<svg version="1.1" xmlns="http://www.w3.org/2000/svg" xmlns:xlink="http://www.w3.org/1999/xlink" width="651.56725" height="666.1309" viewBox="0,0,651.56725,666.1309"><defs><linearGradient x1="239.99998" y1="98.97788" x2="239.99998" y2="261.02212" gradientUnits="userSpaceOnUse" id="color-1"><stop offset="0" stop-color="#411794"/><stop offset="1" stop-color="#756192"/></linearGradient><linearGradient x1="473.83329" y1="249.05887" x2="473.83329" y2="492.94015" gradientUnits="userSpaceOnUse" id="color-2"><stop offset="0" stop-color="#411794"/><stop offset="1" stop-color="#756192"/></linearGradient><linearGradient x1="473.83329" y1="106.94013" x2="473.83329" y2="-136.94114" gradientUnits="userSpaceOnUse" id="color-3"><stop offset="0" stop-color="#411794"/><stop offset="1" stop-color="#756192"/></linearGradient></defs><g transform="translate(38.16665,155.06595)"><g data-paper-data="{&quot;isPaintingLayer&quot;:true}" fill-rule="nonzero" stroke="none" stroke-linecap="butt" stroke-linejoin="miter" stroke-miterlimit="10" stroke-dasharray="" stroke-dashoffset="0" style="mix-blend-mode: normal"><path d="M-38.16665,385.46666c0,-1.38071 1.11929,-2.5 2.5,-2.5c1.38071,0 2.5,1.11929 2.5,2.5c0,1.38071 -1.11929,2.5 -2.5,2.5c-1.38071,0 -2.5,-1.11929 -2.5,-2.5z" fill="#000000" stroke-width="0.5"/><path d="M506.83335,393.46666c0,-1.38071 1.11929,-2.5 2.5,-2.5c1.38071,0 2.5,1.11929 2.5,2.5c0,1.38071 -1.11929,2.5 -2.5,2.5c-1.38071,0 -2.5,-1.11929 -2.5,-2.5z" fill="#000000" stroke-width="0.5"/><path d="M148.2641,175.58844c16.40663,-16.40663 76.98644,-76.98644 86.66667,-86.66667c3.1041,-3.1041 7.04421,-2.35409 10.14831,0.75c10.19489,10.19489 69.47918,69.47918 85.83333,85.83333c2.75224,2.75224 2.23001,6.12385 -0.52222,8.87608c-9.78143,9.78143 -71.53232,71.53232 -87.16667,87.16667c-2.46663,2.46663 -5.47056,1.71664 -7.9372,-0.75c-9.33564,-9.33564 -69.67151,-69.67151 -86.66667,-86.66667c-2.82212,-2.82212 -0.35556,-8.54276 -0.35556,-8.54276z" fill="#8f5ce6" stroke-width="0"/><path d="M160.13495,176.15931c14.28357,-14.28357 67.02421,-67.02421 75.45179,-75.45179c2.70242,-2.70242 6.13267,-2.04946 8.83509,0.65295c8.87565,8.87565 60.4884,60.4884 74.72629,74.72629c2.39609,2.39609 1.94144,5.33141 -0.45464,7.72749c-8.51569,8.51569 -62.27586,62.27586 -75.88709,75.88709c-2.14744,2.14744 -4.76266,1.4945 -6.91011,-0.65295c-8.12759,-8.12759 -60.65585,-60.65585 -75.45179,-75.45179c-2.45693,-2.45693 -0.30955,-7.43731 -0.30955,-7.43731z" fill="url(#color-1)" stroke-width="0"/><path d="M335.76814,364.35999c24.69245,-24.69245 115.86682,-115.86682 130.43585,-130.43585c4.67176,-4.67176 10.60174,-3.54297 15.2735,1.12877c15.3436,15.3436 104.56818,104.56818 129.18165,129.18165c4.1422,4.1422 3.35623,9.21657 -0.78596,13.35876c-14.72134,14.72134 -107.65821,107.65821 -131.18836,131.18836c-3.71235,3.71235 -8.23335,2.58359 -11.94572,-1.12877c-14.05041,-14.05041 -104.85764,-104.85764 -130.43585,-130.43585c-4.24737,-4.24737 -0.53513,-12.8571 -0.53513,-12.8571z" fill="#8f5ce6" stroke-width="0"/><path d="M353.63411,365.21916c21.49719,-21.49719 100.87338,-100.87338 113.55713,-113.55713c4.06722,-4.06722 9.22985,-3.0845 13.29707,0.98271c13.35811,13.35811 91.03679,91.03679 112.46523,112.46523c3.60618,3.60618 2.92192,8.02393 -0.68425,11.6301c-12.81636,12.81636 -93.72697,93.72697 -114.21227,114.21227c-3.23196,3.23196 -7.16794,2.24927 -10.39992,-0.98271c-12.23226,-12.23226 -91.28881,-91.28881 -113.55713,-113.55713c-3.69775,-3.69775 -0.46588,-11.19337 -0.46588,-11.19337z" fill="url(#color-2)" stroke-width="0"/><path d="M509.33335,-39.96766c1.38071,0 2.5,1.11929 2.5,2.5c0,1.38071 -1.11929,2.5 -2.5,2.5c-1.38071,0 -2.5,-1.11929 -2.5,-2.5c0,-1.38071 1.11929,-2.5 2.5,-2.5z" data-paper-data="{&quot;index&quot;:null}" fill="#000000" stroke-width="0.5"/><path d="M335.76812,-8.36095c0,0 -3.71224,-8.60973 0.53513,-12.8571c25.57821,-25.57821 116.38544,-116.38544 130.43585,-130.43585c3.71236,-3.71237 8.23337,-4.84112 11.94572,-1.12877c23.53015,23.53015 116.46703,116.46702 131.18836,131.18836c4.14218,4.14218 4.92816,9.21656 0.78596,13.35876c-24.61347,24.61347 -113.83804,113.83804 -129.18165,129.18164c-4.67176,4.67174 -10.60174,5.80053 -15.2735,1.12878c-14.56903,-14.56902 -105.7434,-105.74339 -130.43585,-130.43585z" data-paper-data="{&quot;index&quot;:null}" fill="#8f5ce6" stroke-width="0"/><path d="M353.6341,-9.22012c0,0 -3.23187,-7.49562 0.46588,-11.19337c22.26832,-22.26832 101.32487,-101.32487 113.55713,-113.55713c3.23197,-3.23197 7.16796,-4.21467 10.39992,-0.98271c20.4853,20.4853 101.39591,101.39591 114.21227,114.21227c3.60617,3.60617 4.29043,8.02392 0.68424,11.6301c-21.42844,21.42843 -99.10712,99.10712 -112.46523,112.46523c-4.06722,4.06721 -9.22985,5.04993 -13.29707,0.98271c-12.68375,-12.68375 -92.05994,-92.05994 -113.55713,-113.55713z" data-paper-data="{&quot;index&quot;:null}" fill="url(#color-3)" stroke-width="0"/></g></g></svg>