<svg version="1.1" xmlns="http://www.w3.org/2000/svg" xmlns:xlink="http://www.w3.org/1999/xlink" width="7.78126" height="33.21876" viewBox="0,0,7.78126,33.21876"><g transform="translate(-237.8055,-156.02627)"><g data-paper-data="{&quot;isPaintingLayer&quot;:true}" fill="#ffffff" fill-rule="nonzero" stroke="#ffffff" stroke-width="2.5" stroke-linecap="square" stroke-linejoin="miter" stroke-miterlimit="10" stroke-dasharray="" stroke-dashoffset="0" style="mix-blend-mode: normal"><path d="M241.33674,187.99502c-0.59375,0 -1.08333,-0.19271 -1.46875,-0.57812c-0.38542,-0.38542 -0.57812,-0.875 -0.57812,-1.46875v-17.79687c0,-0.61458 0.19271,-1.10417 0.57813,-1.46875c0.38542,-0.375 0.875,-0.5625 1.46875,-0.5625c0.60417,0 1.09375,0.1875 1.46875,0.5625c0.375,0.36458 0.5625,0.85417 0.5625,1.46875v17.79688c0,0.59375 -0.1875,1.08333 -0.5625,1.46875c-0.375,0.38542 -0.86458,0.57813 -1.46875,0.57813zM241.69612,162.55752c-0.72917,0 -1.35417,-0.26042 -1.875,-0.78125c-0.51042,-0.52083 -0.76562,-1.14062 -0.76562,-1.85937c0,-0.71875 0.25521,-1.33854 0.76563,-1.85937c0.52083,-0.52083 1.14583,-0.78125 1.875,-0.78125c0.71875,0 1.33854,0.26042 1.85938,0.78125c0.52083,0.52083 0.78125,1.14063 0.78125,1.85938c0,0.71875 -0.26042,1.33854 -0.78125,1.85938c-0.52083,0.52083 -1.14062,0.78125 -1.85937,0.78125z"/></g></g></svg>