<svg version="1.1" xmlns="http://www.w3.org/2000/svg" xmlns:xlink="http://www.w3.org/1999/xlink" width="107.51039" height="107.45205" viewBox="0,0,107.51039,107.45205"><defs><linearGradient x1="240" y1="142.31563" x2="240" y2="217.68439" gradientUnits="userSpaceOnUse" id="color-1"><stop offset="0" stop-color="#04d2ff"/><stop offset="1" stop-color="#2389ff"/></linearGradient><linearGradient x1="244.75481" y1="142.31562" x2="244.75481" y2="168.18585" gradientUnits="userSpaceOnUse" id="color-2"><stop offset="0" stop-color="#04d2ff"/><stop offset="1" stop-color="#1f00ff"/></linearGradient><linearGradient x1="211.23377" y1="204.36315" x2="263.66285" y2="204.36315" gradientUnits="userSpaceOnUse" id="color-3"><stop offset="0" stop-color="#09c5ff"/><stop offset="1" stop-color="#192eff"/></linearGradient></defs><g transform="translate(-186.24481,-126.27397)"><g data-paper-data="{&quot;isPaintingLayer&quot;:true}" fill-rule="nonzero" stroke-linejoin="miter" stroke-miterlimit="10" stroke-dasharray="" stroke-dashoffset="0" style="mix-blend-mode: normal"><path d="M186.46657,200.77369c0,-17.50536 0,-27.34993 0,-44.85529c0,-16.69837 10.43565,-29.64443 27.134,-29.64443c19.39055,0 30.2953,0 49.68586,0c18.4847,0 30.46876,13.92008 30.46876,32.40478c0,17.1014 0,26.37374 0,43.47513c0,17.09996 -9.57337,31.40874 -26.6733,31.40874c-17.90931,0 -27.9811,0 -45.89041,0c0,0 -15.61741,1.90648 -26.09213,-7.30479c-11.03897,-9.70748 -8.63277,-25.4841 -8.63277,-25.4841z" fill="#ffffff" stroke="#000000" stroke-width="0" stroke-linecap="butt"/><g stroke-linecap="square"><path d="M251.15878,197.17965c0,-2.58618 -0.91524,-4.60139 -2.74572,-6.04561c-1.83049,-1.44423 -5.04641,-2.93885 -9.64781,-4.48383c-4.60139,-1.54499 -8.36311,-3.03961 -11.28516,-4.48383c-9.50506,-4.66856 -14.25759,-11.08364 -14.25759,-19.24523c0,-4.064 1.18394,-7.64939 3.55181,-10.75617c2.36787,-3.10678 5.71815,-5.52503 10.05085,-7.25475c4.33269,-1.72972 9.20278,-2.59459 14.61026,-2.59459c5.27312,0 10.00047,0.94043 14.18202,2.8213c4.18156,1.88086 7.43108,4.5594 9.74856,8.03564c1.53145,2.29718 2.5569,4.81071 3.07633,7.54056c0.43848,2.30441 -1.09419,4.37435 -3.43995,4.37435c-2.15628,0 -7.74248,0 -11.10737,0c-2.24934,0 -2.59083,-2.22353 -3.49825,-4.28171c-0.45408,-1.02996 -1.09852,-1.92021 -1.93331,-2.67075c-1.83049,-1.64576 -4.30751,-2.46863 -7.43108,-2.46863c-3.15715,0 -5.65097,0.69693 -7.48146,2.09078c-1.83049,1.39385 -2.74572,3.16556 -2.74572,5.31511c0,1.88086 1.0076,3.58539 3.02281,5.11359c2.01521,1.5282 5.55861,3.10678 10.63022,4.73574c5.0716,1.62896 9.23637,3.38387 12.49429,5.26473c7.92649,4.5678 11.88972,10.86532 11.88972,18.89256c0,6.41508 -2.41825,11.4531 -7.25475,15.11406c-4.8365,3.66096 -11.46989,5.49144 -19.90017,5.49144c-5.94486,0 -11.32715,-1.06638 -16.14685,-3.19914c-4.8197,-2.13276 -8.44708,-5.05482 -10.88212,-8.76615c-1.90304,-2.9005 -3.06245,-6.1446 -3.47822,-9.73232c-0.19627,-1.69366 0.9192,-3.08943 2.6242,-3.08943c1.89749,0 7.3443,0 11.10737,0c2.30941,0 3.69831,1.42667 4.1875,3.68367c0.45821,2.11413 1.35435,3.7831 2.68841,5.00691c2.032,1.86406 5.3319,2.7961 9.89971,2.7961c2.92205,0 5.23114,-0.62975 6.92728,-1.88926c1.69613,-1.25951 2.5442,-3.03121 2.5442,-5.31511z" fill="url(#color-1)" stroke="#000000" stroke-width="0"/><path d="M226.90115,144.91021c4.33269,-1.72972 9.20278,-2.59459 14.61026,-2.59459c5.27312,0 10.00047,0.94043 14.18202,2.8213c4.18156,1.88086 7.43107,4.55941 9.74856,8.03564c1.53145,2.29718 2.5569,4.81071 3.07633,7.54056c0.43848,2.30441 -1.09419,4.37435 -3.43995,4.37435c-2.15628,0 -7.74248,0 -11.10737,0c-2.24934,0 -2.59084,-2.22353 -3.49825,-4.28171c-0.45409,-1.02995 -1.09852,-1.92021 -1.93331,-2.67075c-1.83048,-1.64576 -4.30751,-2.46863 -7.43107,-2.46863c-3.15715,0 -5.65097,0.69693 -7.48146,2.09078c-1.83048,1.39385 -2.74572,3.16556 -2.74572,5.31511c0,1.88086 1.0076,3.5854 3.02281,5.11359c0,0 -7.73946,-2.0194 -11.75739,-9.30236c-4.48969,-8.13808 4.75454,-13.97328 4.75454,-13.97328z" fill="url(#color-2)" stroke="none" stroke-width="1"/><path d="M251.23478,197.17965c0,-2.58618 -0.91524,-4.60139 -2.74572,-6.04561c-0.99242,-0.78302 8.37721,3.5293 12.73882,9.02008c3.68317,4.63669 2.6499,10.36272 0.4356,12.03883c-4.8365,3.66096 -11.46989,5.49144 -19.90017,5.49144c-5.94486,0 -11.32715,-1.06638 -16.14685,-3.19914c-4.8197,-2.13276 -8.44708,-5.05482 -10.88212,-8.76615c-1.90304,-2.9005 -3.06245,-6.1446 -3.47822,-9.73232c-0.19627,-1.69366 0.9192,-3.08943 2.6242,-3.08943c1.89749,0 7.3443,0 11.10737,0c2.30941,0 3.69831,1.42667 4.1875,3.68367c0.45821,2.11413 1.35435,3.7831 2.68841,5.00691c2.032,1.86406 5.3319,2.7961 9.89971,2.7961c2.92205,0 5.23114,-0.62975 6.92728,-1.88926c1.69613,-1.25951 2.5442,-3.03121 2.5442,-5.31511z" fill="url(#color-3)" stroke="none" stroke-width="1"/></g></g></g></svg>