<svg version="1.1" xmlns="http://www.w3.org/2000/svg" xmlns:xlink="http://www.w3.org/1999/xlink" width="29.37214" height="26.78417" viewBox="0,0,29.37214,26.78417"><defs><linearGradient x1="240" y1="166.60793" x2="240" y2="193.39209" gradientUnits="userSpaceOnUse" id="color-1"><stop offset="0" stop-color="#9966ff"/><stop offset="1" stop-color="#8446ff"/></linearGradient><linearGradient x1="240.00868" y1="166.60791" x2="240.00868" y2="180.10889" gradientUnits="userSpaceOnUse" id="color-2"><stop offset="0" stop-color="#b48fff"/><stop offset="1" stop-color="#9966ff"/></linearGradient><linearGradient x1="236.81318" y1="173.78394" x2="236.81318" y2="186.90894" gradientUnits="userSpaceOnUse" id="color-3"><stop offset="0" stop-color="#ceb6ff"/><stop offset="1" stop-color="#b793ff"/></linearGradient><linearGradient x1="237.00068" y1="178.03394" x2="237.00068" y2="183.28394" gradientUnits="userSpaceOnUse" id="color-4"><stop offset="0" stop-color="#9966ff"/><stop offset="1" stop-color="#8446ff"/></linearGradient><linearGradient x1="237.00068" y1="179.59644" x2="237.00068" y2="181.72144" gradientUnits="userSpaceOnUse" id="color-5"><stop offset="0" stop-color="#ceb6ff"/><stop offset="1" stop-color="#b793ff"/></linearGradient></defs><g transform="translate(-225.31393,-166.60791)"><g data-paper-data="{&quot;isPaintingLayer&quot;:true}" fill-rule="nonzero" stroke="none" stroke-linecap="butt" stroke-linejoin="miter" stroke-miterlimit="10" stroke-dasharray="" stroke-dashoffset="0" style="mix-blend-mode: normal"><path d="M225.31393,192.87661c4.25395,-9.16062 4.29243,-16.48745 0.07556,-25.6652c-0.24171,-0.52606 0.31453,-0.74475 0.84331,-0.50905c2.89234,1.28926 21.44583,9.55943 27.68883,12.34223c0.97813,0.436 1.03842,1.36152 0.06029,1.79752c-6.26495,2.79259 -25.35395,11.30146 -28.01907,12.48944c-0.6076,0.27084 -0.64891,-0.45493 -0.64891,-0.45493z" fill="url(#color-1)" stroke-width="NaN"/><path d="M228.57064,180.98389c-0.12077,-6.62047 -0.8843,-8.77357 -3.18117,-13.77249c-0.2417,-0.52606 0.31454,-0.74475 0.84331,-0.50905c2.89235,1.28925 21.44583,9.55943 27.68883,12.34223c0.50368,0.22451 0.76398,0.57883 0.76444,0.92926z" fill="url(#color-2)" stroke-width="NaN"/><path d="M240.78309,180.34644c0,3.62437 -1.77739,6.5625 -3.96991,6.5625c-2.19252,0 -3.96991,-2.93813 -3.96991,-6.5625c0,-3.62437 1.77739,-6.5625 3.96991,-6.5625c2.19252,0 3.96991,2.93813 3.96991,6.5625z" fill="url(#color-3)" stroke-width="0"/><path d="M234.37568,180.65894c0,-1.44975 1.17525,-2.625 2.625,-2.625c1.44975,0 2.625,1.17525 2.625,2.625c0,1.44975 -1.17525,2.625 -2.625,2.625c-1.44975,0 -2.625,-1.17525 -2.625,-2.625z" fill="url(#color-4)" stroke-width="0"/><path d="M235.93818,180.65894c0,-0.5868 0.4757,-1.0625 1.0625,-1.0625c0.5868,0 1.0625,0.4757 1.0625,1.0625c0,0.5868 -0.4757,1.0625 -1.0625,1.0625c-0.5868,0 -1.0625,-0.4757 -1.0625,-1.0625z" fill="url(#color-5)" stroke-width="0"/></g></g></svg>