<svg version="1.1" xmlns="http://www.w3.org/2000/svg" xmlns:xlink="http://www.w3.org/1999/xlink" width="95.62473" height="27.65035" viewBox="0,0,95.62473,27.65035"><defs><linearGradient x1="-1841.39165" y1="-2471.07944" x2="-1841.39165" y2="3444.36563" gradientUnits="userSpaceOnUse" id="color-1"><stop offset="0" stop-color="#ffffff"/><stop offset="1" stop-color="#ffffff" stop-opacity="0"/></linearGradient></defs><g transform="translate(-242.13046,-216.55649)"><g data-paper-data="{&quot;isPaintingLayer&quot;:true}" fill-rule="nonzero" stroke-linecap="butt" stroke-linejoin="miter" stroke-miterlimit="10" stroke-dasharray="" stroke-dashoffset="0" style="mix-blend-mode: normal"><path d="M242.1547,238.2004c0,-18.69892 0,-5.90159 0,-15.99298c0,-3.52358 2.34765,-5.65093 5.87123,-5.65093c13.63144,0 59.98757,0 84.08494,0c3.22447,0 5.64432,1.97265 5.64432,5.19712c0,9.47241 0,-2.42734 0,16.4468c0,3.68071 -2.19052,6.00643 -5.87123,6.00643c-13.46603,0 -57.72667,0 -83.17731,0c-7.33503,0 -6.55195,-6.00643 -6.55195,-6.00643z" fill="url(#color-1)" stroke="none" stroke-width="0"/><text transform="translate(267.16667,233.90879) scale(0.2497,0.2497)" font-size="40" xml:space="preserve" fill="#000000" fill-rule="nonzero" stroke="#000000" stroke-width="2" stroke-linecap="butt" stroke-linejoin="miter" stroke-miterlimit="10" stroke-dasharray="" stroke-dashoffset="0" font-family="Sans Serif" font-weight="normal" text-anchor="start" style="mix-blend-mode: normal"><tspan x="0" dy="0">Play again</tspan></text></g></g></svg>