<svg version="1.1" xmlns="http://www.w3.org/2000/svg" xmlns:xlink="http://www.w3.org/1999/xlink" width="32.6441" height="32.19158" viewBox="0,0,32.6441,32.19158"><defs><linearGradient x1="-2148.7687" y1="-3121.47413" x2="-2148.7687" y2="3765.51132" gradientUnits="userSpaceOnUse" id="color-1"><stop offset="0" stop-color="#ffffff"/><stop offset="1" stop-color="#ffffff" stop-opacity="0"/></linearGradient></defs><g transform="translate(-355.6326,-7.57354)"><g data-paper-data="{&quot;isPaintingLayer&quot;:true}" fill-rule="nonzero" stroke-linecap="butt" stroke-linejoin="miter" stroke-miterlimit="10" stroke-dasharray="" stroke-dashoffset="0" style="mix-blend-mode: normal"><path d="M355.66081,32.77219c0,-21.76999 0,-6.87086 0,-18.61963c0,-4.10229 2.73323,-6.57902 6.83551,-6.57902c15.87024,0 -8.84603,0 19.20904,0c3.75405,0 6.57134,2.29663 6.57134,6.05068c0,11.02814 0,-2.826 0,19.14799c0,4.28523 -2.55029,6.99291 -6.83551,6.99291c-15.67766,0 -14.55591,0 -18.15234,0c-8.53972,0 -7.62803,-6.99291 -7.62803,-6.99291z" fill="url(#color-1)" stroke="none" stroke-width="0"/><g><path d="M366.03198,18.90528c0.76401,-1.99581 3.04843,-3.4444 5.74779,-3.4444c3.32488,0 6.02023,2.19775 6.02023,4.90881c0,2.49786 -2.28809,4.55997 -5.24851,4.86885v5.27421" fill="none" stroke="#000000" stroke-width="1"/><path d="M371.78175,33.15509c0,-0.39089 0.38862,-0.70777 0.86802,-0.70777c0.47939,0 0.86802,0.31688 0.86802,0.70777c0,0.39089 -0.38862,0.70777 -0.86802,0.70777c-0.47939,0 -0.86802,-0.31688 -0.86802,-0.70777z" fill="#000000" stroke="none" stroke-width="0.5"/></g></g></g></svg>