<svg version="1.1" xmlns="http://www.w3.org/2000/svg" xmlns:xlink="http://www.w3.org/1999/xlink" width="23.03126" height="24.62502" viewBox="0,0,23.03126,24.62502"><g transform="translate(-229.48437,-161.02082)"><g data-paper-data="{&quot;isPaintingLayer&quot;:true}" fill="#ffffff" fill-rule="nonzero" stroke="#ffffff" stroke-width="2.5" stroke-linecap="square" stroke-linejoin="miter" stroke-miterlimit="10" stroke-dasharray="" stroke-dashoffset="0" style="mix-blend-mode: normal"><path d="M240.37499,184.3958c-1.83333,0 -3.47917,-0.39062 -4.9375,-1.17187c-1.44792,-0.79167 -2.59375,-1.94792 -3.4375,-3.46875c-0.84375,-1.52083 -1.26562,-3.39062 -1.26562,-5.60937v-9.82812c0,-0.59375 0.19271,-1.08333 0.57813,-1.46875c0.38542,-0.38542 0.875,-0.57812 1.46875,-0.57812c0.58333,0 1.06771,0.19271 1.45313,0.57813c0.38542,0.38542 0.57813,0.875 0.57813,1.46875v9.82813c0,1.5 0.28125,2.73958 0.84375,3.71875c0.5625,0.96875 1.32292,1.6875 2.28125,2.15625c0.95833,0.45833 2.03646,0.6875 3.23438,0.6875c1.14583,0 2.16667,-0.22396 3.0625,-0.67187c0.89583,-0.45833 1.60938,-1.07292 2.14063,-1.84375c0.53125,-0.77083 0.79688,-1.63542 0.79688,-2.59375h2.53125c0,1.64583 -0.40625,3.13542 -1.21875,4.46875c-0.8125,1.33333 -1.92187,2.39063 -3.32812,3.17188c-1.39583,0.77083 -2.98958,1.15625 -4.78125,1.15625zM249.21874,184.19268c-0.58333,0 -1.07292,-0.19271 -1.46875,-0.57812c-0.38542,-0.38542 -0.57812,-0.875 -0.57812,-1.46875v-17.82812c0,-0.61458 0.19271,-1.10937 0.57813,-1.48437c0.39583,-0.375 0.88542,-0.5625 1.46875,-0.5625c0.61458,0 1.10938,0.1875 1.48438,0.5625c0.375,0.375 0.5625,0.86979 0.5625,1.48438v17.82813c0,0.59375 -0.1875,1.08333 -0.5625,1.46875c-0.375,0.38542 -0.86979,0.57813 -1.48437,0.57813z"/></g></g></svg>