<svg version="1.1" xmlns="http://www.w3.org/2000/svg" xmlns:xlink="http://www.w3.org/1999/xlink" width="504.00001" height="378" viewBox="0,0,504.00001,378"><defs><linearGradient x1="240.00001" y1="-5" x2="240.00001" y2="365" gradientUnits="userSpaceOnUse" id="color-1"><stop offset="0" stop-color="#000000"/><stop offset="1" stop-color="#42006e"/></linearGradient><linearGradient x1="240.33336" y1="216" x2="240.33336" y2="365" gradientUnits="userSpaceOnUse" id="color-2"><stop offset="0" stop-color="#411794"/><stop offset="1" stop-color="#756192"/></linearGradient><linearGradient x1="238.33337" y1="58" x2="238.33337" y2="207" gradientUnits="userSpaceOnUse" id="color-3"><stop offset="0" stop-color="#411794"/><stop offset="1" stop-color="#756192"/></linearGradient><linearGradient x1="219.83236" y1="160.80491" x2="238.77162" y2="179.74417" gradientUnits="userSpaceOnUse" id="color-4"><stop offset="0" stop-color="#9966ff"/><stop offset="1" stop-color="#8446ff"/></linearGradient><linearGradient x1="219.83849" y1="160.79876" x2="229.38512" y2="170.34539" gradientUnits="userSpaceOnUse" id="color-5"><stop offset="0" stop-color="#b48fff"/><stop offset="1" stop-color="#9966ff"/></linearGradient></defs><g transform="translate(12.66664,13)"><g data-paper-data="{&quot;isPaintingLayer&quot;:true}" fill-rule="nonzero" stroke="none" stroke-linecap="butt" stroke-linejoin="miter" stroke-miterlimit="10" stroke-dasharray="" stroke-dashoffset="0" style="mix-blend-mode: normal"><path d="M-10.99999,365v-370h502v370z" fill="url(#color-1)" stroke-width="0"/><path d="M-10.66664,365v-149c0,0 113.17229,111.88624 127.09007,125.64587c2.7784,2.74683 6.06982,3.76517 8.9182,1.09097c20.89803,-19.62009 116.90251,-109.7538 129.88629,-121.9436c2.7611,-2.59226 6.04821,-3.85854 8.73768,-1.19205c9.94301,9.85802 87.78108,87.03081 108.38035,107.45402c2.93864,2.91353 6.51703,3.38833 9.41759,0.43689c12.22907,-12.44361 109.56983,-111.4921 109.56983,-111.4921v149z" fill="url(#color-2)" stroke-width="0"/><path d="M489.33337,-13v71c0,0 -97.34076,99.04849 -109.56983,111.4921c-2.90056,2.95144 -6.47895,2.47664 -9.41759,-0.43689c-20.59927,-20.42321 -98.43734,-97.596 -108.38035,-107.45402c-2.68947,-2.66649 -5.97658,-1.40021 -8.73768,1.19205c-12.98378,12.1898 -108.98826,102.32351 -129.88629,121.9436c-2.84838,2.6742 -6.1398,1.65586 -8.9182,-1.09097c-13.91778,-13.75963 -127.09007,-125.64587 -127.09007,-125.64587v-71z" fill="url(#color-3)" stroke-width="0"/><path d="M118.2221,275.17812l108.07552,-108.07552l6.92109,6.92109l-108.07552,108.07552z" fill="#d4beff" stroke-width="0"/><g><path d="M228.02251,189.76429c-0.56355,-1.54071 -3.45093,-9.43455 -4.49129,-12.27881c-0.27385,-0.74868 -0.65145,-1.12576 -1.39902,-1.40264c-2.81559,-1.04278 -10.56884,-3.9143 -12.2043,-4.52002c-0.5429,-0.20107 -0.30421,-0.74902 0.23636,-0.95626c2.95684,-1.13355 21.92403,-8.40495 28.30623,-10.85168c0.99994,-0.38334 1.69701,0.22847 1.31367,1.22841c-2.45533,6.40465 -9.93661,25.91929 -10.98111,28.64384c-0.23813,0.62115 -0.78053,0.13716 -0.78053,0.13716z" fill="url(#color-4)" stroke-width="NaN"/><path d="M223.06497,176.66554c-0.23033,-0.25267 -0.52708,-0.43244 -0.93279,-0.5827c-2.81559,-1.04278 -10.56884,-3.9143 -12.20431,-4.52001c-0.54289,-0.20107 -0.3042,-0.74903 0.23636,-0.95626c2.95684,-1.13356 21.92403,-8.40495 28.30623,-10.85168c0.51491,-0.1974 0.94951,-0.13092 1.19763,0.11655z" fill="url(#color-5)" stroke-width="NaN"/></g><path d="M119.07752,275.81139l-130.6209,-128.22245l2.6039,-10.75861l134.9381,132.05996z" fill="#d4beff" stroke-width="0"/></g></g></svg>