<svg version="1.1" xmlns="http://www.w3.org/2000/svg" xmlns:xlink="http://www.w3.org/1999/xlink" width="41.30628" height="23.81075" viewBox="0,0,41.30628,23.81075"><defs><linearGradient x1="226.88013" y1="170.14023" x2="226.88013" y2="189.51873" gradientUnits="userSpaceOnUse" id="color-1"><stop offset="0" stop-color="#775bad"/><stop offset="1" stop-color="#6a39cc"/></linearGradient><linearGradient x1="243.0497" y1="167.77368" x2="243.0497" y2="191.58444" gradientUnits="userSpaceOnUse" id="color-2"><stop offset="0" stop-color="#9966ff"/><stop offset="1" stop-color="#8446ff"/></linearGradient><linearGradient x1="243.62977" y1="167.53225" x2="243.62977" y2="191.85086" gradientUnits="userSpaceOnUse" id="color-3"><stop offset="0" stop-color="#b48fff"/><stop offset="1" stop-color="#8548ff"/></linearGradient><linearGradient x1="242.52708" y1="183.81436" x2="242.52708" y2="175.45917" gradientUnits="userSpaceOnUse" id="color-4"><stop offset="0" stop-color="#b48fff"/><stop offset="1" stop-color="#8548ff"/></linearGradient></defs><g transform="translate(-218.20319,-167.77369)"><g data-paper-data="{&quot;isPaintingLayer&quot;:true}" fill-rule="nonzero" stroke="none" stroke-width="0" stroke-linecap="butt" stroke-linejoin="miter" stroke-miterlimit="10" stroke-dasharray="" stroke-dashoffset="0" style="mix-blend-mode: normal"><path d="M218.20322,188.97901c0.47986,-1.82353 1.64057,-6.50014 1.64057,-9.06841c0,-2.58722 -1.09641,-7.1098 -1.59857,-9.04534c-0.1059,-0.40822 -0.01132,-0.84079 0.38504,-0.6967c2.42047,0.87991 11.21631,4.24032 16.00126,8.25583c1.04805,0.87952 1.30597,2.13243 0.25085,3.00347c0,0 -4.3086,2.89821 -6.87782,4.16247c-2.45208,1.20661 -7.60068,3.218 -9.38254,3.90598c-0.39333,0.15188 -0.41882,-0.5173 -0.41882,-0.5173z" fill="url(#color-1)"/><path d="M226.58992,190.92127c0.91023,-2.24061 3.1121,-7.98686 3.1121,-11.14254c0,-3.17898 -2.07988,-8.73596 -3.03241,-11.1142c-0.2009,-0.50161 -0.0215,-1.0331 0.73041,-0.85606c4.59155,1.08115 21.27686,5.21019 30.35372,10.14412c1.98813,1.08069 2.47739,2.62015 0.47588,3.69041c0,0 -8.17323,3.56111 -13.04694,5.11453c-4.65151,1.48259 -14.4182,3.95403 -17.79832,4.79936c-0.74614,0.1866 -0.79445,-0.63561 -0.79445,-0.63561z" fill="url(#color-2)"/><path d="M229.70204,179.95306c0,-3.17898 -2.21445,-8.91029 -3.16696,-11.28852c-0.2009,-0.50161 -0.0215,-1.0331 0.73041,-0.85606c4.59155,1.08115 21.27686,5.21019 30.35372,10.14412c1.15548,0.62808 1.80469,1.41114 1.75284,2.16698z" fill="url(#color-3)"/><path d="M242.52708,175.45917c2.30723,0 4.1776,1.87037 4.1776,4.1776c0,2.30723 -1.87037,4.1776 -4.1776,4.1776c-2.30723,0 -4.1776,-1.87037 -4.1776,-4.1776c0,-2.30723 1.87037,-4.1776 4.1776,-4.1776z" data-paper-data="{&quot;index&quot;:null}" fill="url(#color-4)"/></g></g></svg>