<svg version="1.1" xmlns="http://www.w3.org/2000/svg" xmlns:xlink="http://www.w3.org/1999/xlink" width="32.6441" height="32.19158" viewBox="0,0,32.6441,32.19158"><defs><linearGradient x1="-2066.26869" y1="-3121.52413" x2="-2066.26869" y2="3765.46132" gradientUnits="userSpaceOnUse" id="color-1"><stop offset="0" stop-color="#ffffff"/><stop offset="1" stop-color="#ffffff" stop-opacity="0"/></linearGradient></defs><g transform="translate(-438.1326,-7.52353)"><g data-paper-data="{&quot;isPaintingLayer&quot;:true}" fill-rule="nonzero" stroke-linejoin="miter" stroke-miterlimit="10" stroke-dasharray="" stroke-dashoffset="0" style="mix-blend-mode: normal"><g><path d="M438.16081,32.72219c0,-21.76999 0,-6.87086 0,-18.61963c0,-4.10229 2.73323,-6.57902 6.83551,-6.57902c15.87024,0 -8.84603,0 19.20904,0c3.75405,0 6.57134,2.29663 6.57134,6.05068c0,11.02814 0,-2.826 0,19.14799c0,4.28523 -2.55029,6.99291 -6.83551,6.99291c-15.67766,0 -14.55591,0 -18.15234,0c-8.53972,0 -7.62803,-6.99291 -7.62803,-6.99291z" fill="url(#color-1)" stroke="none" stroke-width="0" stroke-linecap="butt"/><g fill="none" stroke="#000000" stroke-width="1" stroke-linecap="round"><path d="M460.30785,16.13838c0,0 -0.07249,3.98701 -0.10585,5.8218c-0.05344,2.93871 -2.49227,4.68 -5.43146,4.68c-2.74585,0 -5.15543,-1.55034 -5.15543,-4.29619c0,-1.26038 0,-3.62789 0,-3.62789z"/><path d="M460.49878,19.38439c0,0 2.8426,0.1301 2.91186,1.86168c0.06985,1.7463 -3.00733,1.71848 -3.00733,1.71848"/><path d="M449.3776,24.01474c0,0 -3.07718,0.02782 -3.00733,-1.71848c0.06926,-1.73158 2.91187,-1.86168 2.91187,-1.86168" data-paper-data="{&quot;index&quot;:null}"/><path d="M454.38864,26.64018v2.86412"/><path d="M456.87089,29.88619h0.6683h-6.39655h0.85923"/></g></g></g></g></svg>