<svg version="1.1" xmlns="http://www.w3.org/2000/svg" xmlns:xlink="http://www.w3.org/1999/xlink" width="676.16668" height="424.96666" viewBox="0,0,676.16668,424.96666"><defs><linearGradient x1="240.33337" y1="231" x2="240.33337" y2="380" gradientUnits="userSpaceOnUse" id="color-1"><stop offset="0" stop-color="#411794"/><stop offset="1" stop-color="#756192"/></linearGradient><linearGradient x1="238.33337" y1="43" x2="238.33337" y2="192" gradientUnits="userSpaceOnUse" id="color-2"><stop offset="0" stop-color="#411794"/><stop offset="1" stop-color="#756192"/></linearGradient></defs><g transform="translate(38.16665,29)"><g data-paper-data="{&quot;isPaintingLayer&quot;:true}" fill-rule="nonzero" stroke="none" stroke-linecap="butt" stroke-linejoin="miter" stroke-miterlimit="10" stroke-dasharray="" stroke-dashoffset="0" style="mix-blend-mode: normal"><path d="M-10.66664,365v-149c0,0 113.17229,111.88624 127.09007,125.64587c2.7784,2.74683 6.06982,3.76517 8.9182,1.09097c20.89803,-19.62009 116.90251,-109.7538 129.88629,-121.9436c2.7611,-2.59226 6.04821,-3.85854 8.73768,-1.19205c9.94301,9.85802 87.78108,87.03081 108.38035,107.45402c2.93864,2.91353 6.51703,3.38833 9.41759,0.43689c10.17459,-10.35309 79.26556,-80.65618 102.19293,-103.98578c4.51969,-4.59898 10.1634,-4.67548 14.68678,-0.08013c17.31274,17.58817 139.35678,141.57382 139.35678,141.57382z" fill="#8f5ce6" stroke-width="0"/><path d="M563.33336,-14c0,0 -171.34076,171.04849 -183.56983,183.4921c-2.90056,2.95144 -6.47895,2.47664 -9.41759,-0.43689c-20.59927,-20.42321 -98.43734,-97.596 -108.38035,-107.45402c-2.68947,-2.66649 -5.97658,-1.40021 -8.73768,1.19205c-12.98378,12.1898 -108.98826,102.32351 -129.88629,121.9436c-2.84838,2.6742 -6.1398,1.65586 -8.9182,-1.09097c-13.91778,-13.75963 -127.09007,-125.64587 -127.09007,-125.64587v-71z" fill="#8f5ce6" stroke-width="0"/><path d="M-38.16665,385.46666c0,-1.38071 1.11929,-2.5 2.5,-2.5c1.38071,0 2.5,1.11929 2.5,2.5c0,1.38071 -1.11929,2.5 -2.5,2.5c-1.38071,0 -2.5,-1.11929 -2.5,-2.5z" fill="#000000" stroke-width="0.5"/><path d="M506.83335,393.46666c0,-1.38071 1.11929,-2.5 2.5,-2.5c1.38071,0 2.5,1.11929 2.5,2.5c0,1.38071 -1.11929,2.5 -2.5,2.5c-1.38071,0 -2.5,-1.11929 -2.5,-2.5z" fill="#000000" stroke-width="0.5"/><path d="M-10.66664,380v-149c0,0 113.17229,111.88624 127.09007,125.64587c2.7784,2.74683 6.06982,3.76517 8.9182,1.09097c20.89803,-19.62009 116.90251,-109.7538 129.88629,-121.9436c2.7611,-2.59226 6.04821,-3.85854 8.73768,-1.19205c9.94301,9.85802 87.78108,87.03081 108.38035,107.45402c2.93864,2.91353 6.51703,3.38833 9.41759,0.43689c10.17459,-10.35309 79.26556,-80.65618 102.19293,-103.98578c4.51969,-4.59898 10.1634,-4.67548 14.68678,-0.08013c17.31274,17.58817 139.35678,141.57382 139.35678,141.57382z" fill="url(#color-1)" stroke-width="0"/><path d="M563.33336,-29c0,0 -171.34076,171.04849 -183.56983,183.4921c-2.90056,2.95144 -6.47895,2.47664 -9.41759,-0.43689c-20.59927,-20.42321 -98.43734,-97.596 -108.38035,-107.45402c-2.68947,-2.66649 -5.97658,-1.40021 -8.73768,1.19205c-12.98378,12.1898 -108.98826,102.32351 -129.88629,121.9436c-2.84838,2.6742 -6.1398,1.65586 -8.9182,-1.09097c-13.91778,-13.75963 -127.09007,-125.64587 -127.09007,-125.64587v-71z" fill="url(#color-2)" stroke-width="0"/></g></g></svg>