<svg version="1.1" xmlns="http://www.w3.org/2000/svg" xmlns:xlink="http://www.w3.org/1999/xlink" width="25.17195" height="34.50004" viewBox="0,0,25.17195,34.50004"><g transform="translate(-229.60315,-158.12717)"><g data-paper-data="{&quot;isPaintingLayer&quot;:true}" fill="#ffffff" fill-rule="nonzero" stroke="#ffffff" stroke-width="2.5" stroke-linecap="square" stroke-linejoin="miter" stroke-miterlimit="10" stroke-dasharray="" stroke-dashoffset="0" style="mix-blend-mode: normal"><path d="M242.29064,191.37712c-1.70834,0 -3.33854,-0.26562 -4.89062,-0.79687c-1.54166,-0.54166 -2.88541,-1.29166 -4.03125,-2.25c-1.14584,-0.95834 -1.98437,-2.0625 -2.51562,-3.3125c-0.27084,-0.5625 -0.26562,-1.08334 0.01563,-1.5625c0.28125,-0.47916 0.75521,-0.78646 1.42188,-0.92187c0.47916,-0.10416 0.95313,-0.03125 1.42188,0.21875c0.46875,0.25 0.82291,0.63021 1.0625,1.14063c0.3125,0.66666 0.83334,1.28125 1.5625,1.84375c0.73959,0.55209 1.63021,1.00521 2.67188,1.35938c1.04166,0.34375 2.13541,0.51563 3.28125,0.51563c1.28125,0 2.45834,-0.19791 3.53125,-0.59375c1.08334,-0.40625 1.95834,-0.98959 2.625,-1.75c0.66666,-0.76041 1,-1.69791 1,-2.8125c0,-1.41666 -0.55209,-2.68229 -1.65625,-3.79687c-1.10416,-1.125 -2.92709,-1.82291 -5.46875,-2.09375c-3.30209,-0.3125 -5.90104,-1.28125 -7.79687,-2.90625c-1.89584,-1.63541 -2.84375,-3.65104 -2.84375,-6.04687c0,-1.76041 0.49479,-3.25521 1.48438,-4.48437c0.98959,-1.22916 2.32813,-2.16146 4.01563,-2.79687c1.69791,-0.63541 3.58854,-0.95312 5.67188,-0.95312c1.625,0 3.04166,0.22916 4.25,0.6875c1.21875,0.44791 2.28125,1.07291 3.1875,1.875c0.90625,0.79166 1.69271,1.73438 2.35938,2.82813c0.375,0.59375 0.52604,1.15104 0.45313,1.67188c-0.0625,0.51041 -0.32291,0.91666 -0.78125,1.21875c-0.5,0.3125 -1.04687,0.375 -1.64062,0.1875c-0.58334,-0.1875 -1.02084,-0.53125 -1.3125,-1.03125c-0.42709,-0.77084 -0.94791,-1.42187 -1.5625,-1.95312c-0.61459,-0.54166 -1.33334,-0.96354 -2.15625,-1.26562c-0.82291,-0.3125 -1.79687,-0.46875 -2.92187,-0.46875c-1.96875,-0.02084 -3.61979,0.34896 -4.95312,1.10938c-1.33334,0.76041 -2,1.92709 -2,3.5c0,0.79166 0.20313,1.55729 0.60938,2.29688c0.41666,0.72916 1.17709,1.36459 2.28125,1.90625c1.10416,0.53125 2.69791,0.90104 4.78125,1.10938c3.17709,0.32291 5.65104,1.29166 7.42188,2.90625c1.77084,1.61459 2.65625,3.73959 2.65625,6.375c0,1.52084 -0.3125,2.84375 -0.9375,3.96875c-0.625,1.11459 -1.46354,2.05209 -2.51562,2.8125c-1.05209,0.76041 -2.25521,1.32813 -3.60937,1.70313c-1.34375,0.375 -2.73437,0.5625 -4.17187,0.5625z"/></g></g></svg>