<svg version="1.1" xmlns="http://www.w3.org/2000/svg" xmlns:xlink="http://www.w3.org/1999/xlink" width="550" height="423.96666" viewBox="0,0,550,423.96666"><defs><linearGradient x1="240.33337" y1="231" x2="240.33337" y2="380" gradientUnits="userSpaceOnUse" id="color-1"><stop offset="0" stop-color="#411794"/><stop offset="1" stop-color="#756192"/></linearGradient><linearGradient x1="238.33338" y1="43" x2="238.33338" y2="192" gradientUnits="userSpaceOnUse" id="color-2"><stop offset="0" stop-color="#411794"/><stop offset="1" stop-color="#756192"/></linearGradient></defs><g transform="translate(38.16666,28)"><g data-paper-data="{&quot;isPaintingLayer&quot;:true}" fill-rule="nonzero" stroke="none" stroke-linecap="butt" stroke-linejoin="miter" stroke-miterlimit="10" stroke-dasharray="" stroke-dashoffset="0" style="mix-blend-mode: normal"><path d="M-10.66664,365v-144c0,0 220.32407,0 242.83333,0c4.39477,0 9.33863,0.08718 12.47178,3.16897c18.25012,17.95094 105.22252,101.36641 113.70629,109.71111c1.4195,1.39623 3.12648,1.22912 4.59383,-0.11673c10.36762,-9.50915 128.39478,-117.76334 128.39478,-117.76334v149z" fill="#8f5ce6" stroke-width="0"/><path d="M489.33337,-13v71c0,0 -113.75362,104.33451 -126.68935,116.19913c-2.36955,2.17334 -5.16767,2.77721 -7.44123,0.50365c-9.88178,-9.88178 -93.23844,-93.23844 -112.66667,-112.66667c-3.31922,-3.31922 -6.34201,-9.03611 -11.03611,-9.03611c-23.57044,0 -244.16666,0 -244.16666,0v-66z" fill="#8f5ce6" stroke-width="0"/><path d="M-38.16665,385.46666c0,-1.38071 1.11929,-2.5 2.5,-2.5c1.38071,0 2.5,1.11929 2.5,2.5c0,1.38071 -1.11929,2.5 -2.5,2.5c-1.38071,0 -2.5,-1.11929 -2.5,-2.5z" fill="#000000" stroke-width="0.5"/><path d="M506.83335,393.46666c0,-1.38071 1.11929,-2.5 2.5,-2.5c1.38071,0 2.5,1.11929 2.5,2.5c0,1.38071 -1.11929,2.5 -2.5,2.5c-1.38071,0 -2.5,-1.11929 -2.5,-2.5z" fill="#000000" stroke-width="0.5"/><path d="M-10.66663,380v-149c0,0 220.32407,0 242.83333,0c4.39477,0 7.08863,1.08718 10.22178,4.16897c18.25012,17.95094 107.47252,105.36641 115.95629,113.71111c1.4195,1.39623 3.12648,1.22912 4.59383,-0.11673c10.36762,-9.50915 128.39478,-117.76334 128.39478,-117.76334v149z" fill="url(#color-1)" stroke-width="0"/><path d="M489.33337,-28v71c0,0 -113.75362,104.33451 -126.68935,116.19913c-2.36955,2.17334 -5.16767,2.77721 -7.44123,0.50365c-9.88178,-9.88178 -93.23844,-93.23844 -112.66667,-112.66667c-3.31922,-3.31922 -6.34201,-4.03611 -11.03611,-4.03611c-23.57044,0 -244.16666,0 -244.16666,0v-71z" fill="url(#color-2)" stroke-width="0"/></g></g></svg>