<svg version="1.1" xmlns="http://www.w3.org/2000/svg" xmlns:xlink="http://www.w3.org/1999/xlink" width="73.75966" height="27.17955" viewBox="0,0,73.75966,27.17955"><defs><linearGradient x1="229.7563" y1="304.08244" x2="229.7563" y2="315.42484" gradientUnits="userSpaceOnUse" id="color-1"><stop offset="0" stop-color="#a99fff"/><stop offset="1" stop-color="#9069de"/></linearGradient><linearGradient x1="229.7563" y1="304.08244" x2="229.7563" y2="315.42484" gradientUnits="userSpaceOnUse" id="color-2"><stop offset="0" stop-color="#beb7ff"/><stop offset="1" stop-color="#7051ac"/></linearGradient><linearGradient x1="229.7563" y1="306.66623" x2="229.7563" y2="312.84107" gradientUnits="userSpaceOnUse" id="color-3"><stop offset="0" stop-color="#e4e0ff"/><stop offset="1" stop-color="#a99fff"/></linearGradient><linearGradient x1="229.7563" y1="306.66623" x2="229.7563" y2="312.84107" gradientUnits="userSpaceOnUse" id="color-4"><stop offset="0" stop-color="#baafff"/><stop offset="1" stop-color="#7060ff"/></linearGradient></defs><g transform="translate(-204.84299,-297.12969)"><g data-paper-data="{&quot;isPaintingLayer&quot;:true}" fill-rule="nonzero" stroke-linecap="butt" stroke-linejoin="miter" stroke-miterlimit="10" stroke-dasharray="" stroke-dashoffset="0" style="mix-blend-mode: normal"><path d="M278.60265,297.12969c0,0 0,7.32802 0,11.60033c0,9.54686 -5.68168,15.57922 -15.22854,15.57922c-34.92759,0 24.53866,0 -41.47408,0c-19.02528,0 -16.99416,-15.57922 -16.99416,-15.57922v-11.60033z" fill="#ffffff" stroke="none" stroke-width="0"/><g stroke="none" stroke-width="0"><path d="M225.60127,312.84644l-0.06982,-5.79607l2.72346,-2.93296l3.01356,-0.03497l2.64286,2.89808l0.06984,5.8659l-2.82014,2.57843l-2.83626,-0.06445z" fill="url(#color-1)"/><path d="M225.53145,307.05036l2.72346,-2.93296l3.01356,-0.03497l2.64286,2.89808l0.06984,5.8659z" fill="url(#color-2)"/><path d="M227.49429,311.43736l-0.03801,-3.15537l1.48266,-1.59672l1.64059,-0.01902l1.43876,1.57772l0.03801,3.1934l-1.53528,1.4037l-1.54406,-0.0351z" fill="url(#color-3)"/><path d="M227.49429,311.43736l4.524,-3.1934l0.03801,3.1934l-1.53528,1.4037l-1.54406,-0.0351z" fill="url(#color-4)"/></g><text transform="translate(238.40456,314.55681) scale(0.31774,0.31774)" font-size="40" xml:space="preserve" fill="#000000" fill-rule="nonzero" stroke="#000000" stroke-width="2" stroke-linecap="butt" stroke-linejoin="miter" stroke-miterlimit="10" stroke-dasharray="" stroke-dashoffset="0" font-family="Sans Serif" font-weight="normal" text-anchor="start" style="mix-blend-mode: normal"><tspan x="0" dy="0">35</tspan></text></g></g></svg>