<svg version="1.1" xmlns="http://www.w3.org/2000/svg" xmlns:xlink="http://www.w3.org/1999/xlink" width="36.7374" height="22.8263" viewBox="0,0,36.7374,22.8263"><defs><linearGradient x1="245.82828" y1="191.38348" x2="245.82828" y2="168.51251" gradientUnits="userSpaceOnUse" id="color-1"><stop offset="0" stop-color="#9966ff"/><stop offset="1" stop-color="#8446ff"/></linearGradient><linearGradient x1="222.07795" y1="175.05694" x2="258.36869" y2="175.05694" gradientUnits="userSpaceOnUse" id="color-2"><stop offset="0" stop-color="#b48fff"/><stop offset="1" stop-color="#9966ff"/></linearGradient></defs><g transform="translate(-221.6313,-168.58685)"><g data-paper-data="{&quot;isPaintingLayer&quot;:true}" fill-rule="nonzero" stroke="none" stroke-linecap="butt" stroke-linejoin="miter" stroke-miterlimit="10" stroke-dasharray="" stroke-dashoffset="0" style="mix-blend-mode: normal"><path d="M221.6313,180.15099c0.16276,-8.58596 5.14442,-10.89942 8.77219,-11.44223c3.70674,-0.55462 5.782,0.8765 9.20363,2.40621c5.9213,2.64724 14.95512,6.68524 18.16031,8.11395c0.83522,0.3723 0.78374,1.1626 -0.05148,1.5349c-3.59428,1.60215 -13.08998,5.83483 -18.89524,8.42251c-3.81912,1.70236 -6.37978,2.94181 -10.39096,1.76106c-3.28808,-0.96789 -6.79336,-3.67092 -6.79845,-10.79642z" data-paper-data="{&quot;index&quot;:null}" fill="url(#color-1)" stroke-width="NaN"/><path d="M257.71594,180.76384c0,0 -19.86591,1.58538 -29.79975,0.18618c-7.44235,-1.04827 -5.72434,-5.05616 -5.53529,-5.62785c1.55244,-4.69465 5.19791,-6.19076 8.02258,-6.61341c3.70675,-0.55462 5.78201,0.8765 9.20364,2.40621c5.9213,2.64724 14.95511,6.68524 18.1603,8.11395c0.83522,0.3723 0.78374,1.1626 -0.05148,1.5349z" data-paper-data="{&quot;index&quot;:null}" fill="url(#color-2)" stroke-width="NaN"/></g></g></svg>