<svg version="1.1" xmlns="http://www.w3.org/2000/svg" xmlns:xlink="http://www.w3.org/1999/xlink" width="135.53843" height="39.19158" viewBox="0,0,135.53843,39.19158"><defs><linearGradient x1="-2780.95202" y1="-3620.19603" x2="-2780.95202" y2="4764.35177" gradientUnits="userSpaceOnUse" id="color-1"><stop offset="0" stop-color="#ffffff"/><stop offset="1" stop-color="#ffffff" stop-opacity="0"/></linearGradient></defs><g transform="translate(-172.2308,-189.2573)"><g data-paper-data="{&quot;isPaintingLayer&quot;:true}" fill-rule="nonzero" stroke-linecap="butt" stroke-linejoin="miter" stroke-miterlimit="10" stroke-dasharray="" stroke-dashoffset="0" style="mix-blend-mode: normal"><path d="M172.26515,219.93536c0,-26.50384 0,-8.36491 0,-22.66844c0,-4.99432 3.32756,-8.00962 8.32188,-8.00962c19.32119,0 85.02634,0 119.18194,0c4.57036,0 8.00026,2.79603 8.00026,7.36639c0,13.42619 0,-3.44051 0,23.31168c0,5.21704 -3.10484,8.51351 -8.32188,8.51351c-19.08674,0 -81.82174,0 -117.89546,0c-10.39667,0 -9.28673,-8.51351 -9.28673,-8.51351z" fill="url(#color-1)" stroke="none" stroke-width="0"/><text transform="translate(225.43676,213.15754) scale(0.35392,0.35392)" font-size="40" xml:space="preserve" fill="#000000" fill-rule="nonzero" stroke="#000000" stroke-width="2" stroke-linecap="butt" stroke-linejoin="miter" stroke-miterlimit="10" stroke-dasharray="" stroke-dashoffset="0" font-family="Sans Serif" font-weight="normal" text-anchor="start" style="mix-blend-mode: normal"><tspan x="0" dy="0">Skin</tspan></text></g></g></svg>