<svg version="1.1" xmlns="http://www.w3.org/2000/svg" xmlns:xlink="http://www.w3.org/1999/xlink" width="54.1578" height="28.8" viewBox="0,0,54.1578,28.8"><defs><radialGradient cx="240" cy="180" r="14.4" gradientUnits="userSpaceOnUse" id="color-1"><stop offset="0" stop-color="#06cdff"/><stop offset="1" stop-color="#06cdff" stop-opacity="0"/></radialGradient><linearGradient x1="241.54914" y1="179.80837" x2="279.7578" y2="179.80837" gradientUnits="userSpaceOnUse" id="color-2"><stop offset="0" stop-color="#06cdff"/><stop offset="1" stop-color="#06cdff" stop-opacity="0"/></linearGradient></defs><g transform="translate(-225.6,-165.6)"><g data-paper-data="{&quot;isPaintingLayer&quot;:true}" fill-rule="nonzero" stroke-width="0" stroke-linejoin="miter" stroke-miterlimit="10" stroke-dasharray="" stroke-dashoffset="0" style="mix-blend-mode: normal"><path d="M225.6,180c0,-7.9529 6.4471,-14.4 14.4,-14.4c7.9529,0 14.4,6.4471 14.4,14.4c0,7.9529 -6.4471,14.4 -14.4,14.4c-7.9529,0 -14.4,-6.4471 -14.4,-14.4z" fill="url(#color-1)" stroke="none" stroke-linecap="butt"/><path d="M241.54914,174.6267l38.20866,5.5443l-38.10563,4.81903z" fill="url(#color-2)" stroke="#000000" stroke-linecap="round"/><path d="M232.35714,180c0,-4.22103 3.42182,-7.64286 7.64286,-7.64286c4.22103,0 7.64286,3.42182 7.64286,7.64286c0,4.22103 -3.42182,7.64286 -7.64286,7.64286c-4.22103,0 -7.64286,-3.42182 -7.64286,-7.64286z" fill="#ffffff" stroke="none" stroke-linecap="butt"/></g></g></svg>