<svg version="1.1" xmlns="http://www.w3.org/2000/svg" xmlns:xlink="http://www.w3.org/1999/xlink" width="550" height="423.96665" viewBox="0,0,550,423.96665"><defs><linearGradient x1="240.6817" y1="231" x2="240.6817" y2="380" gradientUnits="userSpaceOnUse" id="color-1"><stop offset="0" stop-color="#411794"/><stop offset="1" stop-color="#756192"/></linearGradient><linearGradient x1="238.68171" y1="231" x2="238.68171" y2="380" gradientUnits="userSpaceOnUse" id="color-2"><stop offset="0" stop-color="#411794"/><stop offset="1" stop-color="#756192"/></linearGradient><linearGradient x1="240.6817" y1="43" x2="240.6817" y2="192" gradientUnits="userSpaceOnUse" id="color-3"><stop offset="0" stop-color="#411794"/><stop offset="1" stop-color="#756192"/></linearGradient></defs><g transform="translate(38.16665,27.99999)"><g data-paper-data="{&quot;isPaintingLayer&quot;:true}" fill-rule="nonzero" stroke="none" stroke-linecap="butt" stroke-linejoin="miter" stroke-miterlimit="10" stroke-dasharray="" stroke-dashoffset="0" style="mix-blend-mode: normal"><path d="M-10.3183,365v-149c0,0 113.17229,111.88624 127.09007,125.64587c2.7784,2.74683 -1.0818,23.09097 -1.0818,23.09097z" data-paper-data="{&quot;index&quot;:null}" fill="#8f5ce6" stroke-width="0"/><path d="M76.68172,365l134.36243,-135.55381c0,0 6.68776,-1.336 9.67621,1.58164c13.76403,13.43789 48.78636,48.12749 62.15757,61.37937c4.07433,4.03798 8.84398,1.84239 12.97803,-2.13443c16.33189,-15.71073 53.65734,-51.61654 61.4196,-59.08357c3.46078,-3.32915 7.57325,-3.16401 11.20718,-0.02478c12.65641,10.93345 41.90724,36.20225 49.44865,42.71702c4.19204,3.62137 9.18556,3.97236 13.12499,0.07769c9.51963,-9.41144 58.62533,-57.95913 58.62533,-57.95913v149z" data-paper-data="{&quot;index&quot;:null}" fill="#8f5ce6" stroke-width="0"/><path d="M-10.40163,-12.99999l502.08333,0.00001v71c0,0 -54.00248,53.38882 -64.40943,63.67751c-3.42937,3.39041 -7.74119,5.38601 -11.18078,2.00597c-6.36299,-6.25282 -35.93476,-35.31259 -47.16126,-46.34471c-2.77836,-2.73026 -6.0562,-2.57275 -8.83226,0.15985c-13.6312,13.4178 -54.10695,53.25992 -62.74316,61.76093c-3.13151,3.08249 -6.95317,5.32347 -10.11087,2.26781c-7.45825,-7.21724 -51.13295,-49.48062 -65.56661,-63.44786c-2.70002,-2.61278 -5.73118,-3.536 -8.584,-1.09098c-17.32622,14.84947 -86.45009,74.24618 -104.42421,92.06668c-2.93864,2.91353 -9.41759,0.43689 -9.41759,0.43689l-111.91816,-112.04297z" data-paper-data="{&quot;index&quot;:null}" fill="#8f5ce6" stroke-width="0"/><path d="M-38.16665,385.46666c0,-1.38071 1.11929,-2.5 2.5,-2.5c1.38071,0 2.5,1.11929 2.5,2.5c0,1.38071 -1.11929,2.5 -2.5,2.5c-1.38071,0 -2.5,-1.11929 -2.5,-2.5z" fill="#000000" stroke-width="0.5"/><path d="M506.83335,393.46666c0,-1.38071 1.11929,-2.5 2.5,-2.5c1.38071,0 2.5,1.11929 2.5,2.5c0,1.38071 -1.11929,2.5 -2.5,2.5c-1.38071,0 -2.5,-1.11929 -2.5,-2.5z" fill="#000000" stroke-width="0.5"/><path d="M-10.3183,380v-149c0,0 113.17229,111.88624 127.09007,125.64587c2.7784,2.74683 -1.0818,23.09097 -1.0818,23.09097z" data-paper-data="{&quot;index&quot;:null}" fill="url(#color-1)" stroke-width="0"/><path d="M76.68172,380l134.36243,-135.55381c0,0 6.68776,-1.336 9.67621,1.58164c13.76403,13.43789 48.78636,48.12749 62.15757,61.37937c4.07433,4.03798 8.84398,1.84239 12.97803,-2.13443c16.33189,-15.71073 53.65734,-51.61654 61.4196,-59.08357c3.46078,-3.32915 7.57325,-3.16401 11.20718,-0.02478c12.65641,10.93345 41.90724,36.20225 49.44865,42.71702c4.19204,3.62137 9.18556,3.97236 13.12499,0.07769c9.51963,-9.41144 58.62533,-57.95913 58.62533,-57.95913v149z" data-paper-data="{&quot;index&quot;:null}" fill="url(#color-2)" stroke-width="0"/><path d="M-10.40164,-27.99999l502.08333,0.00001v71c0,0 -54.00248,53.38882 -64.40943,63.67751c-3.42937,3.39041 -7.74119,5.38601 -11.18078,2.00597c-6.36299,-6.25282 -35.93476,-35.31259 -47.16126,-46.34471c-2.77836,-2.73026 -6.0562,-2.57275 -8.83226,0.15985c-13.6312,13.4178 -54.10695,53.25992 -62.74316,61.76093c-3.13151,3.08249 -6.95317,5.32347 -10.11087,2.26781c-7.45825,-7.21724 -51.13295,-49.48062 -65.56661,-63.44786c-2.70002,-2.61278 -5.73118,-3.536 -8.584,-1.09098c-17.32622,14.84947 -86.45009,74.24618 -104.42421,92.06668c-2.93864,2.91353 -9.41759,0.43689 -9.41759,0.43689l-111.91816,-112.04297z" data-paper-data="{&quot;index&quot;:null}" fill="url(#color-3)" stroke-width="0"/></g></g></svg>