<svg version="1.1" xmlns="http://www.w3.org/2000/svg" xmlns:xlink="http://www.w3.org/1999/xlink" width="19.47989" height="33.84029" viewBox="0,0,19.47989,33.84029"><g transform="translate(-233.53008,-158.1211)"><g data-paper-data="{&quot;isPaintingLayer&quot;:true}" fill="#ffffff" fill-rule="nonzero" stroke="#ffffff" stroke-width="2.5" stroke-linecap="square" stroke-linejoin="miter" stroke-miterlimit="10" stroke-dasharray="" stroke-dashoffset="0" style="mix-blend-mode: normal"><path d="M238.62382,182.60547l-2.48437,-2.71875l12.28125,-10.96875c0.40625,-0.36458 0.85417,-0.53125 1.34375,-0.5c0.48958,0.02083 0.91146,0.22917 1.26563,0.625c0.375,0.40625 0.54688,0.84896 0.51563,1.32813c-0.03125,0.47917 -0.24479,0.90625 -0.64062,1.28125zM236.74882,190.60547c-0.58333,0 -1.05729,-0.17708 -1.42187,-0.53125c-0.36458,-0.36458 -0.54687,-0.83854 -0.54687,-1.42187v-27.32812c0,-0.58333 0.18229,-1.05208 0.54688,-1.40625c0.36458,-0.36458 0.83854,-0.54687 1.42188,-0.54687c0.58333,0 1.05208,0.18229 1.40625,0.54688c0.36458,0.35417 0.54688,0.82292 0.54688,1.40625v27.32813c0,0.58333 -0.18229,1.05729 -0.54687,1.42188c-0.35417,0.35417 -0.82292,0.53125 -1.40625,0.53125zM251.03007,190.40235c-0.42708,0.34375 -0.90104,0.49479 -1.42187,0.45313c-0.52083,-0.03125 -0.95312,-0.26042 -1.29687,-0.6875l-8.125,-10.04687l2.79688,-2.64062l8.32813,10.25c0.34375,0.42708 0.49479,0.88542 0.45313,1.375c-0.04167,0.48958 -0.28646,0.92188 -0.73437,1.29688z"/></g></g></svg>