<svg version="1.1" xmlns="http://www.w3.org/2000/svg" xmlns:xlink="http://www.w3.org/1999/xlink" width="484" height="429.55923" viewBox="0,0,484,429.55923"><defs><linearGradient x1="240" y1="100.50539" x2="240" y2="259.49462" gradientUnits="userSpaceOnUse" id="color-1"><stop offset="0" stop-color="#04d2ff"/><stop offset="1" stop-color="#2389ff"/></linearGradient><linearGradient x1="250.03019" y1="100.50537" x2="250.03019" y2="155.07821" gradientUnits="userSpaceOnUse" id="color-2"><stop offset="0" stop-color="#04d2ff"/><stop offset="1" stop-color="#1f00ff"/></linearGradient><linearGradient x1="179.31808" y1="231.39367" x2="289.91641" y2="231.39367" gradientUnits="userSpaceOnUse" id="color-3"><stop offset="0" stop-color="#09c5ff"/><stop offset="1" stop-color="#192eff"/></linearGradient></defs><g transform="translate(0.99999,12.21666)"><g data-paper-data="{&quot;isPaintingLayer&quot;:true}" fill-rule="nonzero" stroke-linejoin="miter" stroke-miterlimit="10" stroke-dasharray="" stroke-dashoffset="0" style="mix-blend-mode: normal"><path d="M-0.99999,-12.21666h484c0,0 0,282.35621 0,356.43332c0,39.59277 -16.40723,73.12591 -56,73.12591c-116.90171,0 -279.843,-0.71824 -367.00483,-1.14873c-36.61578,-0.18084 -60.73425,-22.36047 -60.75778,-58.97668c-0.04509,-70.1771 -0.23739,-369.43381 -0.23739,-369.43381z" fill="#ffffff" stroke="none" stroke-width="0" stroke-linecap="butt"/><path d="M263.53927,216.24019c0,-5.4555 -1.93068,-9.70656 -5.79205,-12.75312c-3.86139,-3.04658 -10.64533,-6.19946 -20.35191,-9.45857c-9.70656,-3.25913 -17.64185,-6.41201 -23.80587,-9.45857c-20.05078,-9.84825 -30.07617,-23.38077 -30.07617,-40.59752c0,-8.57295 2.49751,-16.13627 7.49249,-22.68997c4.99498,-6.5537 12.06234,-11.65496 21.20211,-15.30378c9.13974,-3.64882 19.41312,-5.47325 30.82012,-5.47325c11.12356,0 21.09584,1.98383 29.91675,5.95149c8.82094,3.96765 15.67575,9.61798 20.56444,16.95105c3.23057,4.84587 5.39374,10.14812 6.48947,15.9067c0.92496,4.86112 -2.30818,9.22762 -7.25652,9.22762c-4.54864,0 -16.33264,0 -23.43082,0c-4.74495,0 -5.46531,-4.6905 -7.3795,-9.0322c-0.95788,-2.17269 -2.31731,-4.05066 -4.07828,-5.63391c-3.86139,-3.47171 -9.08663,-5.20754 -15.67575,-5.20754c-6.65996,0 -11.92063,1.47017 -15.78202,4.41047c-3.86139,2.9403 -5.79205,6.6777 -5.79205,11.21214c0,3.96765 2.12551,7.56332 6.37657,10.78704c4.25106,3.22371 11.7258,6.55371 22.42428,9.98997c10.69846,3.43626 19.48398,7.13822 26.35651,11.10587c16.72081,9.63571 25.08118,22.92022 25.08118,39.85356c0,13.53251 -5.10126,24.16014 -15.30378,31.88288c-10.20252,7.72274 -24.19556,11.58411 -41.9791,11.58411c-12.54059,0 -23.89445,-2.24951 -34.06153,-6.74854c-10.16708,-4.49902 -17.81898,-10.66306 -22.95566,-18.49205c-4.01443,-6.11856 -6.46019,-12.96194 -7.33725,-20.53018c-0.41403,-3.57275 1.93904,-6.5171 5.53571,-6.5171c4.00272,0 15.49268,0 23.43083,0c4.87167,0 7.80153,3.00954 8.83347,7.77065c0.96659,4.45972 2.85698,7.98039 5.67116,10.562c4.28647,3.93221 11.24756,5.89833 20.88328,5.89833c6.16402,0 11.03501,-1.32845 14.61299,-3.98537c3.57796,-2.65691 5.36696,-6.3943 5.36696,-11.21215z" fill="url(#color-1)" stroke="#000000" stroke-width="0" stroke-linecap="square"/><path d="M212.36817,105.97861c9.13974,-3.64882 19.41313,-5.47325 30.82012,-5.47325c11.12356,0 21.09583,1.98382 29.91675,5.95149c8.82094,3.96765 15.67573,9.618 20.56444,16.95106c3.23057,4.84586 5.39374,10.14812 6.48947,15.9067c0.92496,4.86112 -2.30818,9.22762 -7.25652,9.22762c-4.54864,0 -16.33264,0 -23.43082,0c-4.74495,0 -5.46534,-4.6905 -7.37951,-9.0322c-0.9579,-2.17266 -2.31731,-4.05066 -4.07828,-5.63391c-3.86137,-3.47171 -9.08663,-5.20753 -15.67573,-5.20753c-6.65996,0 -11.92063,1.47016 -15.78202,4.41046c-3.86137,2.9403 -5.79206,6.67771 -5.79206,11.21214c0,3.96765 2.12552,7.56335 6.37657,10.78704c0,0 -16.32627,-4.25989 -24.80203,-19.62319c-9.47093,-17.16716 10.02962,-29.47642 10.02962,-29.47642z" fill="url(#color-2)" stroke="none" stroke-width="1" stroke-linecap="square"/><path d="M263.69959,216.24019c0,-5.4555 -1.93068,-9.70656 -5.79205,-12.75312c-2.09349,-1.65177 17.67159,7.445 26.87234,19.02772c7.76959,9.78103 5.58992,21.86 0.9189,25.39573c-10.20252,7.72274 -24.19556,11.58411 -41.9791,11.58411c-12.54059,0 -23.89445,-2.24951 -34.06153,-6.74854c-10.16708,-4.49902 -17.81898,-10.66307 -22.95567,-18.49206c-4.01443,-6.11856 -6.46019,-12.96193 -7.33725,-20.53017c-0.41403,-3.57275 1.93904,-6.51711 5.53571,-6.51711c4.00272,0 15.49268,0 23.43083,0c4.87167,0 7.80152,3.00954 8.83346,7.77065c0.96659,4.45972 2.85698,7.98038 5.67116,10.56199c4.28647,3.93221 11.24756,5.89833 20.88329,5.89833c6.16402,0 11.03501,-1.32845 14.61299,-3.98537c3.57796,-2.65691 5.36695,-6.39429 5.36695,-11.21214z" fill="url(#color-3)" stroke="none" stroke-width="1" stroke-linecap="square"/></g></g></svg>