<svg version="1.1" xmlns="http://www.w3.org/2000/svg" xmlns:xlink="http://www.w3.org/1999/xlink" width="550" height="423.96666" viewBox="0,0,550,423.96666"><defs><linearGradient x1="238.33336" y1="231" x2="238.33336" y2="380" gradientUnits="userSpaceOnUse" id="color-1"><stop offset="0" stop-color="#411794"/><stop offset="1" stop-color="#756192"/></linearGradient><linearGradient x1="240.33335" y1="43" x2="240.33335" y2="192" gradientUnits="userSpaceOnUse" id="color-2"><stop offset="0" stop-color="#411794"/><stop offset="1" stop-color="#756192"/></linearGradient></defs><g transform="translate(38.16665,28)"><g data-paper-data="{&quot;isPaintingLayer&quot;:true}" fill-rule="nonzero" stroke="none" stroke-linecap="butt" stroke-linejoin="miter" stroke-miterlimit="10" stroke-dasharray="" stroke-dashoffset="0" style="mix-blend-mode: normal"><path d="M-12.66664,365.00001v-149c0,0 118.02716,108.25419 128.39478,117.76334c1.46735,1.34585 3.17433,1.51296 4.59383,0.11673c8.48377,-8.3447 95.70617,-93.76017 113.95629,-111.71111c3.13315,-3.08179 7.82701,-3.16897 12.22178,-3.16897c22.50926,0 242.83333,0 242.83333,0v146z" data-paper-data="{&quot;index&quot;:null}" fill="#8f5ce6" stroke-width="0"/><path d="M491.33336,-13v66.5c0,0 -220.59622,0 -244.16666,0c-4.6941,0 -7.71689,5.21689 -11.03611,8.53611c-19.42823,19.42823 -102.78489,102.78489 -112.66667,112.66667c-2.27356,2.27356 -5.07168,1.66969 -7.44123,-0.50365c-12.93573,-11.86462 -126.68935,-116.19913 -126.68935,-116.19913v-71z" data-paper-data="{&quot;index&quot;:null}" fill="#8f5ce6" stroke-width="0"/><path d="M-38.16665,385.46666c0,-1.38071 1.11929,-2.5 2.5,-2.5c1.38071,0 2.5,1.11929 2.5,2.5c0,1.38071 -1.11929,2.5 -2.5,2.5c-1.38071,0 -2.5,-1.11929 -2.5,-2.5z" fill="#000000" stroke-width="0.5"/><path d="M506.83335,393.46666c0,-1.38071 1.11929,-2.5 2.5,-2.5c1.38071,0 2.5,1.11929 2.5,2.5c0,1.38071 -1.11929,2.5 -2.5,2.5c-1.38071,0 -2.5,-1.11929 -2.5,-2.5z" fill="#000000" stroke-width="0.5"/><path d="M-12.66664,380.00001v-149c0,0 118.02716,108.25419 128.39478,117.76334c1.46735,1.34585 3.17433,1.51296 4.59383,0.11673c8.48377,-8.3447 97.70617,-95.76017 115.95629,-113.71111c3.13315,-3.08179 5.82701,-4.16897 10.22178,-4.16897c22.50926,0 242.83333,0 242.83333,0v149z" data-paper-data="{&quot;index&quot;:null}" fill="url(#color-1)" stroke-width="0"/><path d="M491.33336,-28v71c0,0 -220.59622,0 -244.16666,0c-4.6941,0 -7.71689,0.71689 -11.03611,4.03611c-19.42823,19.42823 -102.78489,102.78489 -112.66667,112.66667c-2.27356,2.27356 -5.07168,1.66969 -7.44123,-0.50365c-12.93573,-11.86462 -126.68935,-116.19913 -126.68935,-116.19913v-71z" data-paper-data="{&quot;index&quot;:null}" fill="url(#color-2)" stroke-width="0"/></g></g></svg>