<svg version="1.1" xmlns="http://www.w3.org/2000/svg" xmlns:xlink="http://www.w3.org/1999/xlink" width="24.08012" height="24.7032" viewBox="0,0,24.08012,24.7032"><g transform="translate(-228.93649,-159.67404)"><g data-paper-data="{&quot;isPaintingLayer&quot;:true}" fill="#ffffff" fill-rule="nonzero" stroke="#ffffff" stroke-width="2.5" stroke-linecap="square" stroke-linejoin="miter" stroke-miterlimit="10" stroke-dasharray="" stroke-dashoffset="0" style="mix-blend-mode: normal"><path d="M241.5771,183.12715c-2.20833,0 -4.17187,-0.47396 -5.89062,-1.42187c-1.71875,-0.94792 -3.06771,-2.25521 -4.04687,-3.92187c-0.96875,-1.66667 -1.45312,-3.57812 -1.45312,-5.73437c0,-2.1875 0.45833,-4.11458 1.375,-5.78125c0.91667,-1.66667 2.1875,-2.97396 3.8125,-3.92187c1.63542,-0.94792 3.50521,-1.42187 5.60938,-1.42187c2.08333,0 3.86979,0.46354 5.35938,1.39063c1.48958,0.91667 2.625,2.18229 3.40625,3.79688c0.79167,1.61458 1.1875,3.47396 1.1875,5.57813c0,0.51042 -0.17187,0.93229 -0.51562,1.26563c-0.34375,0.33333 -0.78125,0.5 -1.3125,0.5h-16.125v-3.20312h16l-1.64062,1.125c-0.03125,-1.33333 -0.30208,-2.52604 -0.8125,-3.57812c-0.5,-1.0625 -1.21875,-1.89583 -2.15625,-2.5c-0.92708,-0.61458 -2.05729,-0.92187 -3.39062,-0.92187c-1.52083,0 -2.82292,0.33333 -3.90625,1c-1.07292,0.66667 -1.89062,1.57813 -2.45312,2.73438c-0.5625,1.15625 -0.84375,2.46875 -0.84375,3.9375c0,1.46875 0.33333,2.77604 1,3.92188c0.66667,1.14583 1.58333,2.05208 2.75,2.71875c1.17708,0.66667 2.52604,1 4.04688,1c0.83333,0 1.68229,-0.15104 2.54688,-0.45312c0.86458,-0.3125 1.5625,-0.66667 2.09375,-1.0625c0.40625,-0.29167 0.83854,-0.44271 1.29688,-0.45312c0.46875,-0.02083 0.88021,0.11458 1.23438,0.40625c0.44792,0.40625 0.68229,0.84896 0.70313,1.32813c0.03125,0.47917 -0.17708,0.89063 -0.625,1.23438c-0.90625,0.71875 -2.03646,1.30729 -3.39062,1.76563c-1.34375,0.44792 -2.63021,0.67188 -3.85937,0.67188z"/></g></g></svg>