<svg version="1.1" xmlns="http://www.w3.org/2000/svg" xmlns:xlink="http://www.w3.org/1999/xlink" width="28.50002" height="34.54695" viewBox="0,0,28.50002,34.54695"><g transform="translate(-227.02743,-156.65523)"><g data-paper-data="{&quot;isPaintingLayer&quot;:true}" fill="#ffffff" fill-rule="nonzero" stroke="#ffffff" stroke-width="2.5" stroke-linecap="square" stroke-linejoin="miter" stroke-miterlimit="10" stroke-dasharray="" stroke-dashoffset="0" style="mix-blend-mode: normal"><path d="M243.71492,189.9521c-2.15625,0 -4.17708,-0.40625 -6.0625,-1.21875c-1.875,-0.82292 -3.51562,-1.95833 -4.92187,-3.40625c-1.39583,-1.45833 -2.48958,-3.15625 -3.28125,-5.09375c-0.78125,-1.94792 -1.17187,-4.05729 -1.17187,-6.32812c0,-2.23958 0.39063,-4.32292 1.17188,-6.25c0.79167,-1.9375 1.88542,-3.63021 3.28125,-5.07812c1.40625,-1.45833 3.04167,-2.59896 4.90625,-3.42187c1.86458,-0.83333 3.89063,-1.25 6.07813,-1.25c2.05208,0 3.81771,0.26563 5.29688,0.79688c1.47917,0.53125 2.96875,1.41146 4.46875,2.64063c0.20833,0.16667 0.36979,0.33854 0.48438,0.51563c0.125,0.16667 0.20833,0.33854 0.25,0.51563c0.04167,0.16667 0.0625,0.36979 0.0625,0.60938c0,0.51042 -0.18229,0.93229 -0.54687,1.26563c-0.35417,0.33333 -0.78646,0.52083 -1.29687,0.5625c-0.51042,0.03125 -1.00521,-0.13542 -1.48437,-0.5c-0.97917,-0.85417 -2,-1.50521 -3.0625,-1.95312c-1.05208,-0.45833 -2.44271,-0.6875 -4.17187,-0.6875c-1.57292,0 -3.05208,0.32292 -4.4375,0.96875c-1.38542,0.63542 -2.60937,1.51563 -3.67187,2.64063c-1.05208,1.11458 -1.86979,2.41146 -2.45312,3.89063c-0.58333,1.47917 -0.875,3.05729 -0.875,4.73438c0,1.70833 0.29167,3.30208 0.875,4.78125c0.58333,1.47917 1.40104,2.78125 2.45313,3.90625c1.0625,1.11458 2.28646,1.98438 3.67188,2.60938c1.38542,0.625 2.86458,0.9375 4.4375,0.9375c1.36458,0 2.65104,-0.22917 3.85938,-0.6875c1.21875,-0.46875 2.38542,-1.11979 3.5,-1.95312c0.47917,-0.34375 0.95313,-0.49479 1.42188,-0.45312c0.46875,0.04167 0.85938,0.22917 1.17188,0.5625c0.32292,0.33333 0.48438,0.79167 0.48438,1.375c0,0.27083 -0.05208,0.53125 -0.15625,0.78125c-0.10417,0.25 -0.26562,0.48438 -0.48437,0.70313c-1.4375,1.14583 -2.97917,2.01563 -4.625,2.60938c-1.63542,0.58333 -3.35937,0.875 -5.17187,0.875z"/></g></g></svg>