<svg version="1.1" xmlns="http://www.w3.org/2000/svg" xmlns:xlink="http://www.w3.org/1999/xlink" width="29.37214" height="26.78418" viewBox="0,0,29.37214,26.78418"><defs><linearGradient x1="240" y1="166.60793" x2="240" y2="193.39209" gradientUnits="userSpaceOnUse" id="color-1"><stop offset="0" stop-color="#9966ff"/><stop offset="1" stop-color="#8446ff"/></linearGradient><linearGradient x1="240.00868" y1="166.60791" x2="240.00868" y2="180.10889" gradientUnits="userSpaceOnUse" id="color-2"><stop offset="0" stop-color="#b48fff"/><stop offset="1" stop-color="#9966ff"/></linearGradient></defs><g transform="translate(-225.31393,-166.60791)"><g data-paper-data="{&quot;isPaintingLayer&quot;:true}" fill-rule="nonzero" stroke="none" stroke-linecap="butt" stroke-linejoin="miter" stroke-miterlimit="10" stroke-dasharray="" stroke-dashoffset="0" style="mix-blend-mode: normal"><path d="M225.31393,192.87661c0.69096,-1.48794 4.23106,-9.11141 5.50661,-11.85825c0.33576,-0.72304 0.33539,-1.25668 0.00256,-1.98107c-1.25356,-2.72828 -4.70547,-10.24113 -5.43361,-11.82588c-0.24171,-0.52606 0.31453,-0.74475 0.84331,-0.50905c2.89234,1.28926 21.44583,9.55943 27.68883,12.34223c0.97813,0.436 1.03842,1.36152 0.06029,1.79752c-6.26495,2.79259 -25.35395,11.30146 -28.01907,12.48944c-0.6076,0.27084 -0.64891,-0.45493 -0.64891,-0.45493z" fill="url(#color-1)" stroke-width="NaN"/><path d="M231.07064,180.10889c0.0158,-0.34153 -0.06692,-0.67848 -0.24755,-1.07161c-1.25356,-2.72828 -4.70547,-10.24113 -5.43362,-11.82588c-0.2417,-0.52606 0.31454,-0.74475 0.84331,-0.50905c2.89235,1.28925 21.44583,9.55943 27.68883,12.34223c0.50368,0.22451 0.76398,0.57883 0.76444,0.92926z" fill="url(#color-2)" stroke-width="none"/></g></g></svg>