<svg version="1.1" xmlns="http://www.w3.org/2000/svg" xmlns:xlink="http://www.w3.org/1999/xlink" width="550" height="428.47116" viewBox="0,0,550,428.47116"><defs><linearGradient x1="240.33337" y1="231.00001" x2="240.33337" y2="380.00001" gradientUnits="userSpaceOnUse" id="color-1"><stop offset="0" stop-color="#411794"/><stop offset="1" stop-color="#756192"/></linearGradient><linearGradient x1="238.33338" y1="43.00001" x2="238.33338" y2="192.00001" gradientUnits="userSpaceOnUse" id="color-2"><stop offset="0" stop-color="#411794"/><stop offset="1" stop-color="#756192"/></linearGradient></defs><g transform="translate(38.16665,32.5045)"><g data-paper-data="{&quot;isPaintingLayer&quot;:true}" fill-rule="nonzero" stroke="none" stroke-linecap="butt" stroke-linejoin="miter" stroke-miterlimit="10" stroke-dasharray="" stroke-dashoffset="0" style="mix-blend-mode: normal"><path d="M491.33338,216.00001v149h-145.75002z" fill="#8f5ce6" stroke-width="0"/><path d="M489.33338,-12.99999v71c0,0 -97.34076,99.04849 -109.56983,111.4921c-2.90056,2.95144 -6.47895,2.47664 -9.41759,-0.43689c-74.55634,-73.91911 -193.8234,-186.55971 -193.8234,-186.55971z" fill="#8f5ce6" stroke-width="0"/><path d="M-38.16665,385.46667c0,-1.38071 1.11929,-2.5 2.5,-2.5c1.38071,0 2.5,1.11929 2.5,2.5c0,1.38071 -1.11929,2.5 -2.5,2.5c-1.38071,0 -2.5,-1.11929 -2.5,-2.5z" fill="#000000" stroke-width="0.5"/><path d="M506.83335,393.46667c0,-1.38071 1.11929,-2.5 2.5,-2.5c1.38071,0 2.5,1.11929 2.5,2.5c0,1.38071 -1.11929,2.5 -2.5,2.5c-1.38071,0 -2.5,-1.11929 -2.5,-2.5z" fill="#000000" stroke-width="0.5"/><path d="M491.33338,231.00001v149h-145.75002z" fill="url(#color-1)" stroke-width="0"/><path d="M489.33338,-27.99999v71c0,0 -97.34076,99.04849 -109.56983,111.4921c-2.90056,2.95144 -6.47895,2.47664 -9.41759,-0.43689c-74.55634,-73.91911 -193.8234,-186.55971 -193.8234,-186.55971z" fill="url(#color-2)" stroke-width="0"/></g></g></svg>