<svg version="1.1" xmlns="http://www.w3.org/2000/svg" xmlns:xlink="http://www.w3.org/1999/xlink" width="550" height="423.96666" viewBox="0,0,550,423.96666"><defs><linearGradient x1="240.33337" y1="231" x2="240.33337" y2="380" gradientUnits="userSpaceOnUse" id="color-1"><stop offset="0" stop-color="#411794"/><stop offset="1" stop-color="#756192"/></linearGradient><linearGradient x1="238.33338" y1="43" x2="238.33338" y2="192" gradientUnits="userSpaceOnUse" id="color-2"><stop offset="0" stop-color="#411794"/><stop offset="1" stop-color="#756192"/></linearGradient></defs><g transform="translate(38.16665,28)"><g data-paper-data="{&quot;isPaintingLayer&quot;:true}" fill-rule="nonzero" stroke="none" stroke-linecap="butt" stroke-linejoin="miter" stroke-miterlimit="10" stroke-dasharray="" stroke-dashoffset="0" style="mix-blend-mode: normal"><path d="M-10.66664,365v-149c0,0 113.17229,111.88624 127.09007,125.64587c2.7784,2.74683 6.06982,3.76517 8.9182,1.09097c6.55912,-6.15802 32.62626,-33.46561 42.278,-43.6023c2.06984,-2.17384 4.79594,-2.60272 6.89655,-0.4586c1.85821,1.89669 6.6654,6.80343 10.14135,10.35137c2.49459,2.54625 5.5826,2.26476 8.05387,-0.30413c15.74491,-16.36688 71.49445,-74.31869 80.65039,-83.83632c2.68152,-2.78745 6.17025,-3.19553 8.88464,-0.44007c9.81143,9.95986 76.44817,77.60469 95.77387,97.22276c2.74595,2.78749 6.07457,4.46873 8.80422,1.66528c10.85681,-11.15039 104.50884,-107.33482 104.50884,-107.33482v149z" fill="#8f5ce6" stroke-width="0"/><path d="M489.33337,-13v71c0,0 -135.27508,128.31397 -148.18805,140.56245c-2.59464,2.46112 -5.55867,1.04478 -8.13032,-1.44036c-13.44506,-12.99271 -52.34458,-50.59996 -78.97458,-76.51277c-4.26288,-4.14807 -9.29411,-3.8101 -13.58182,0.31229c-11.18727,10.75592 -32.40407,31.15468 -37.7428,36.28756c-3.20112,3.07769 -7.16209,2.15828 -10.27244,-1.01111c-4.85608,-4.94824 -11.58671,-11.80661 -14.38046,-14.65338c-2.64954,-2.69983 -5.84099,-2.69904 -8.59879,-0.10988c-11.05071,10.37496 -39.47381,37.05995 -46.12248,43.30204c-2.84838,2.6742 -6.1398,1.65586 -8.9182,-1.09097c-13.91778,-13.75963 -127.09007,-125.64587 -127.09007,-125.64587v-71z" fill="#8f5ce6" stroke-width="0"/><path d="M-38.16665,385.46666c0,-1.38071 1.11929,-2.5 2.5,-2.5c1.38071,0 2.5,1.11929 2.5,2.5c0,1.38071 -1.11929,2.5 -2.5,2.5c-1.38071,0 -2.5,-1.11929 -2.5,-2.5z" fill="#000000" stroke-width="0.5"/><path d="M506.83335,393.46666c0,-1.38071 1.11929,-2.5 2.5,-2.5c1.38071,0 2.5,1.11929 2.5,2.5c0,1.38071 -1.11929,2.5 -2.5,2.5c-1.38071,0 -2.5,-1.11929 -2.5,-2.5z" fill="#000000" stroke-width="0.5"/><path d="M-10.66663,380v-149c0,0 113.17229,111.88624 127.09007,125.64587c2.7784,2.74683 6.06982,3.76517 8.9182,1.09097c6.55912,-6.15802 32.62626,-33.46561 42.278,-43.6023c2.06984,-2.17384 4.79594,-2.60272 6.89655,-0.4586c1.85821,1.89669 6.6654,6.80343 10.14135,10.35137c2.49459,2.54625 5.5826,2.26476 8.05387,-0.30413c15.74491,-16.36688 71.49445,-74.31869 80.65039,-83.83632c2.68152,-2.78745 6.17025,-3.19553 8.88464,-0.44007c9.81143,9.95986 76.44817,77.60469 95.77387,97.22276c2.74595,2.78749 6.07457,4.46873 8.80422,1.66528c10.85681,-11.15039 104.50884,-107.33482 104.50884,-107.33482v149z" fill="url(#color-1)" stroke-width="0"/><path d="M489.33337,-28v71c0,0 -135.27508,128.31397 -148.18805,140.56245c-2.59464,2.46112 -5.55867,1.04478 -8.13032,-1.44036c-13.44506,-12.99271 -52.34458,-50.59996 -78.97458,-76.51277c-4.26288,-4.14807 -9.29411,-3.8101 -13.58182,0.31229c-11.18727,10.75592 -32.40407,31.15468 -37.7428,36.28756c-3.20112,3.07769 -7.16209,2.15828 -10.27244,-1.01111c-4.85608,-4.94824 -11.58671,-11.80661 -14.38046,-14.65338c-2.64954,-2.69983 -5.84099,-2.69904 -8.59879,-0.10988c-11.05071,10.37496 -39.47381,37.05995 -46.12248,43.30204c-2.84838,2.6742 -6.1398,1.65586 -8.9182,-1.09097c-13.91778,-13.75963 -127.09007,-125.64587 -127.09007,-125.64587v-71z" fill="url(#color-2)" stroke-width="0"/></g></g></svg>