<svg version="1.1" xmlns="http://www.w3.org/2000/svg" xmlns:xlink="http://www.w3.org/1999/xlink" width="30.7173" height="26.78417" viewBox="0,0,30.7173,26.78417"><defs><linearGradient x1="231.3153" y1="187.68573" x2="231.3153" y2="172.45712" gradientUnits="userSpaceOnUse" id="color-1"><stop offset="0" stop-color="#9966ff"/><stop offset="1" stop-color="#8446ff"/></linearGradient><linearGradient x1="231.31924" y1="187.68574" x2="231.31924" y2="180.00952" gradientUnits="userSpaceOnUse" id="color-2"><stop offset="0" stop-color="#b48fff"/><stop offset="1" stop-color="#9966ff"/></linearGradient><linearGradient x1="239.16847" y1="166.60793" x2="239.16847" y2="193.39209" gradientUnits="userSpaceOnUse" id="color-3"><stop offset="0" stop-color="#9966ff"/><stop offset="1" stop-color="#8446ff"/></linearGradient><linearGradient x1="239.17541" y1="166.6079" x2="239.17541" y2="180.10889" gradientUnits="userSpaceOnUse" id="color-4"><stop offset="0" stop-color="#b48fff"/><stop offset="1" stop-color="#9966ff"/></linearGradient><linearGradient x1="246.01937" y1="169.34483" x2="246.01937" y2="190.65518" gradientUnits="userSpaceOnUse" id="color-5"><stop offset="0" stop-color="#9966ff"/><stop offset="1" stop-color="#8446ff"/></linearGradient><linearGradient x1="246.02488" y1="169.34481" x2="246.02488" y2="180.08663" gradientUnits="userSpaceOnUse" id="color-6"><stop offset="0" stop-color="#b48fff"/><stop offset="1" stop-color="#9966ff"/></linearGradient><linearGradient x1="240.02482" y1="187.61431" x2="240.02482" y2="172.3857" gradientUnits="userSpaceOnUse" id="color-7"><stop offset="0" stop-color="#9966ff"/><stop offset="1" stop-color="#8446ff"/></linearGradient><linearGradient x1="240.02877" y1="187.61431" x2="240.02877" y2="179.93809" gradientUnits="userSpaceOnUse" id="color-8"><stop offset="0" stop-color="#b48fff"/><stop offset="1" stop-color="#9966ff"/></linearGradient></defs><g transform="translate(-224.64135,-166.60792)"><g data-paper-data="{&quot;isPaintingLayer&quot;:true}" fill-rule="nonzero" stroke="none" stroke-linecap="butt" stroke-linejoin="miter" stroke-miterlimit="10" stroke-dasharray="" stroke-dashoffset="0" style="mix-blend-mode: normal"><path d="M224.64136,172.7502c0,0 0.01877,-0.41265 0.29489,-0.25866c1.21114,0.67545 9.88595,5.51332 12.733,7.10109c0.4445,0.2479 0.4171,0.77412 -0.0274,1.02201c-2.83707,1.58221 -11.26852,6.28436 -12.58293,7.01739c-0.2403,0.13401 -0.49308,0.00967 -0.38324,-0.28943c0.3309,-0.90104 1.89958,-5.1726 2.46926,-6.72381c0.15125,-0.41186 0.15142,-0.71528 -0.00117,-1.12637c-0.57966,-1.56176 -2.18842,-5.89622 -2.50243,-6.74222z" data-paper-data="{&quot;index&quot;:null}" fill="url(#color-1)" stroke-width="NaN"/><path d="M237.98923,180.0863c-0.00021,0.19924 -0.1185,0.4007 -0.3474,0.52835c-2.83707,1.58221 -11.26852,6.28437 -12.58293,7.01739c-0.24029,0.13401 -0.49307,0.00967 -0.38324,-0.28943c0.3309,-0.90104 1.89959,-5.1726 2.46926,-6.72381c0.08209,-0.22352 0.11968,-0.4151 0.1125,-0.60928z" data-paper-data="{&quot;index&quot;:null}" fill="url(#color-2)" stroke-width="NaN"/><path d="M227.4303,192.87661c0.55227,-1.48794 3.38177,-9.11141 4.40128,-11.85825c0.26836,-0.72304 0.26807,-1.25668 0.00205,-1.98107c-1.00194,-2.72828 -3.76095,-10.24113 -4.34293,-11.82588c-0.19319,-0.52606 0.2514,-0.74475 0.67403,-0.50905c2.31177,1.28926 17.14106,9.55943 22.13091,12.34223c0.78179,0.436 0.82998,1.36152 0.04819,1.79752c-5.0074,2.79259 -20.26471,11.30146 -22.39486,12.48944c-0.48564,0.27084 -0.51866,-0.45493 -0.51866,-0.45493z" fill="url(#color-3)" stroke-width="NaN"/><path d="M232.03148,180.10889c0.01263,-0.34153 -0.05349,-0.67848 -0.19786,-1.07161c-1.00194,-2.72828 -3.76095,-10.24113 -4.34294,-11.82588c-0.19318,-0.52606 0.2514,-0.74475 0.67403,-0.50905c2.31178,1.28925 17.14106,9.55943 22.13091,12.34223c0.40258,0.22451 0.61063,0.57883 0.611,0.92926z" fill="url(#color-4)" stroke-width="NaN"/><path d="M236.68009,190.24506c0.4394,-1.18386 2.69064,-7.24934 3.5018,-9.43481c0.21353,-0.57526 0.21329,-0.99986 0.00163,-1.5762c-0.79718,-2.17071 -2.99234,-8.14817 -3.45538,-9.40905c-0.15371,-0.41855 0.20002,-0.59255 0.53629,-0.40502c1.83933,1.02578 13.63799,7.60579 17.60809,9.81988c0.62202,0.34689 0.66036,1.08326 0.03834,1.43016c-3.98405,2.22187 -16.12327,8.9918 -17.81809,9.937c-0.38638,0.21549 -0.41266,-0.36196 -0.41266,-0.36196z" data-paper-data="{&quot;index&quot;:null}" fill="url(#color-5)" stroke-width="NaN"/><path d="M240.34093,180.08663c0.01005,-0.27173 -0.04256,-0.53982 -0.15742,-0.8526c-0.79717,-2.17071 -2.99234,-8.14817 -3.45538,-9.40905c-0.1537,-0.41855 0.20003,-0.59255 0.53629,-0.40502c1.83933,1.02576 13.63799,7.60579 17.60809,9.81988c0.32031,0.17863 0.48585,0.46054 0.48613,0.73935z" data-paper-data="{&quot;index&quot;:null}" fill="url(#color-6)" stroke-width="NaN"/><path d="M233.35089,172.67878c0,0 0.01877,-0.41265 0.29489,-0.25866c1.21114,0.67545 9.88595,5.51332 12.733,7.10109c0.4445,0.2479 0.4171,0.77412 -0.0274,1.02201c-2.83707,1.58221 -11.26852,6.28436 -12.58293,7.01739c-0.2403,0.13401 -0.49308,0.00967 -0.38324,-0.28943c0.3309,-0.90104 1.89958,-5.1726 2.46926,-6.72381c0.15125,-0.41186 0.15142,-0.71528 -0.00117,-1.12637c-0.57966,-1.56176 -2.18842,-5.89622 -2.50243,-6.74222z" data-paper-data="{&quot;index&quot;:null}" fill="url(#color-7)" stroke-width="NaN"/><path d="M246.69876,180.01487c-0.00021,0.19924 -0.1185,0.4007 -0.3474,0.52835c-2.83707,1.58221 -11.26852,6.28437 -12.58293,7.01739c-0.24029,0.13401 -0.49307,0.00967 -0.38324,-0.28943c0.3309,-0.90104 1.89959,-5.1726 2.46926,-6.72381c0.08209,-0.22352 0.11968,-0.4151 0.1125,-0.60928z" data-paper-data="{&quot;index&quot;:null}" fill="url(#color-8)" stroke-width="NaN"/></g></g></svg>