<svg version="1.1" xmlns="http://www.w3.org/2000/svg" xmlns:xlink="http://www.w3.org/1999/xlink" width="24.53126" height="24.70311" viewBox="0,0,24.53126,24.70311"><g transform="translate(-229.68499,-158.85104)"><g data-paper-data="{&quot;isPaintingLayer&quot;:true}" fill="#ffffff" fill-rule="nonzero" stroke="#ffffff" stroke-width="2.5" stroke-linecap="square" stroke-linejoin="miter" stroke-miterlimit="10" stroke-dasharray="" stroke-dashoffset="0" style="mix-blend-mode: normal"><path d="M241.96624,182.30412c-2.15625,0 -4.0625,-0.47396 -5.71875,-1.42187c-1.65625,-0.94792 -2.95833,-2.25521 -3.90625,-3.92187c-0.9375,-1.66667 -1.40625,-3.57811 -1.40625,-5.73434c0,-2.1875 0.46875,-4.11458 1.40625,-5.78125c0.94792,-1.66667 2.25,-2.97396 3.90625,-3.92187c1.65625,-0.94792 3.5625,-1.42187 5.71875,-1.42187c2.13542,0 4.03125,0.47396 5.6875,1.42188c1.65625,0.94792 2.95313,2.25521 3.89063,3.92188c0.94792,1.66667 1.42188,3.59375 1.42188,5.78125c0,2.15623 -0.46875,4.06768 -1.40625,5.73434c-0.92708,1.66667 -2.21875,2.97396 -3.875,3.92188c-1.64583,0.94792 -3.55208,1.42188 -5.71875,1.42188zM241.96624,178.71037c1.38542,0 2.60938,-0.31771 3.67188,-0.95312c1.07292,-0.64583 1.90625,-1.52604 2.5,-2.64062c0.60417,-1.125 0.90625,-2.42186 0.90625,-3.89059c0,-1.46875 -0.30208,-2.76562 -0.90625,-3.89062c-0.59375,-1.13542 -1.42708,-2.02083 -2.5,-2.65625c-1.0625,-0.64583 -2.28646,-0.96875 -3.67187,-0.96875c-1.38542,0 -2.61458,0.32292 -3.6875,0.96875c-1.0625,0.63542 -1.90104,1.52083 -2.51562,2.65625c-0.60417,1.125 -0.90625,2.42188 -0.90625,3.89063c0,1.46873 0.30208,2.76559 0.90625,3.89059c0.61458,1.11458 1.45313,1.99479 2.51563,2.64063c1.07292,0.63542 2.30208,0.95313 3.6875,0.95313z"/></g></g></svg>