<svg version="1.1" xmlns="http://www.w3.org/2000/svg" xmlns:xlink="http://www.w3.org/1999/xlink" width="29.63881" height="23.69317" viewBox="0,0,29.63881,23.69317"><defs><linearGradient x1="234.45392" y1="169.65919" x2="234.45392" y2="190.34084" gradientUnits="userSpaceOnUse" id="color-1"><stop offset="0" stop-color="#8446ff"/><stop offset="1" stop-color="#af88ff"/></linearGradient><linearGradient x1="239.7615" y1="168.15343" x2="239.7615" y2="191.84659" gradientUnits="userSpaceOnUse" id="color-2"><stop offset="0" stop-color="#9966ff"/><stop offset="1" stop-color="#8446ff"/></linearGradient><linearGradient x1="239.76918" y1="168.15342" x2="239.76918" y2="180.09633" gradientUnits="userSpaceOnUse" id="color-3"><stop offset="0" stop-color="#b48fff"/><stop offset="1" stop-color="#9966ff"/></linearGradient></defs><g transform="translate(-223.11393,-168.15342)"><g data-paper-data="{&quot;isPaintingLayer&quot;:true}" fill-rule="nonzero" stroke="none" stroke-linecap="butt" stroke-linejoin="miter" stroke-miterlimit="10" stroke-dasharray="" stroke-dashoffset="0" style="mix-blend-mode: normal"><path d="M223.11393,189.9428c0.53353,-1.14892 3.26705,-7.03546 4.25198,-9.15646c0.25926,-0.5583 0.25897,-0.97036 0.00197,-1.5297c-0.96795,-2.10667 -3.63337,-7.90779 -4.19561,-9.13147c-0.18664,-0.4062 0.24286,-0.57506 0.65117,-0.39307c2.23335,0.99552 16.55961,7.38141 21.3802,9.53017c0.75528,0.33666 0.80183,1.05132 0.04656,1.38798c-4.83754,2.15633 -19.5773,8.72653 -21.6352,9.64384c-0.46917,0.20913 -0.50106,-0.35127 -0.50106,-0.35127z" fill="url(#color-1)" stroke-width="NaN"/><path d="M226.77026,191.3906c0.61122,-1.31623 3.74278,-8.05992 4.87113,-10.48976c0.29701,-0.6396 0.29668,-1.11166 0.00226,-1.75245c-1.10889,-2.41342 -4.16244,-9.05926 -4.80655,-10.46113c-0.21382,-0.46535 0.27823,-0.6588 0.74599,-0.4503c2.55855,1.14048 18.97089,8.45623 24.49343,10.91789c0.86525,0.38568 0.91859,1.2044 0.05334,1.59008c-5.54195,2.47031 -22.428,9.99722 -24.78556,11.0481c-0.53748,0.23959 -0.57402,-0.40242 -0.57402,-0.40242z" fill="url(#color-2)" stroke-width="NaN"/><path d="M231.86263,180.09633c0.01397,-0.30211 -0.0592,-0.60018 -0.21899,-0.94794c-1.10889,-2.41342 -4.16244,-9.05926 -4.80656,-10.46112c-0.21381,-0.46535 0.27823,-0.65881 0.74598,-0.45031c2.55856,1.14047 18.9709,8.45623 24.49343,10.91789c0.44556,0.1986 0.67582,0.51203 0.67622,0.82202z" fill="url(#color-3)" stroke-width="NaN"/></g></g></svg>