<svg version="1.1" xmlns="http://www.w3.org/2000/svg" xmlns:xlink="http://www.w3.org/1999/xlink" width="550" height="423.96666" viewBox="0,0,550,423.96666"><defs><linearGradient x1="238.33336" y1="231" x2="238.33336" y2="380" gradientUnits="userSpaceOnUse" id="color-1"><stop offset="0" stop-color="#411794"/><stop offset="1" stop-color="#756192"/></linearGradient><linearGradient x1="240.33335" y1="43" x2="240.33335" y2="192" gradientUnits="userSpaceOnUse" id="color-2"><stop offset="0" stop-color="#411794"/><stop offset="1" stop-color="#756192"/></linearGradient></defs><g transform="translate(38.16665,28)"><g data-paper-data="{&quot;isPaintingLayer&quot;:true}" fill-rule="nonzero" stroke="none" stroke-linecap="butt" stroke-linejoin="miter" stroke-miterlimit="10" stroke-dasharray="" stroke-dashoffset="0" style="mix-blend-mode: normal"><path d="M-12.66664,365.00001v-144.4955l502.00001,-0.00001v144.4955z" data-paper-data="{&quot;index&quot;:null}" fill="#8f5ce6" stroke-width="0"/><path d="M491.33336,-13v66.4955c0,0 -220.59622,0 -244.16666,0c-100.62278,0 -257.83336,0 -257.83336,0v-66.4955z" data-paper-data="{&quot;index&quot;:null}" fill="#8f5ce6" stroke-width="0"/><path d="M-38.16665,385.46666c0,-1.38071 1.11929,-2.5 2.5,-2.5c1.38071,0 2.5,1.11929 2.5,2.5c0,1.38071 -1.11929,2.5 -2.5,2.5c-1.38071,0 -2.5,-1.11929 -2.5,-2.5z" fill="#000000" stroke-width="0.5"/><path d="M506.83335,393.46666c0,-1.38071 1.11929,-2.5 2.5,-2.5c1.38071,0 2.5,1.11929 2.5,2.5c0,1.38071 -1.11929,2.5 -2.5,2.5c-1.38071,0 -2.5,-1.11929 -2.5,-2.5z" fill="#000000" stroke-width="0.5"/><path d="M-12.66664,380.00001v-149l502.00001,-0.00001v149z" data-paper-data="{&quot;index&quot;:null}" fill="url(#color-1)" stroke-width="0"/><path d="M491.33336,-28v71c0,0 -220.59622,0 -244.16666,0c-100.62278,0 -257.83336,0 -257.83336,0v-71z" data-paper-data="{&quot;index&quot;:null}" fill="url(#color-2)" stroke-width="0"/></g></g></svg>