<svg version="1.1" xmlns="http://www.w3.org/2000/svg" xmlns:xlink="http://www.w3.org/1999/xlink" width="51.1165" height="28.8" viewBox="0,0,51.1165,28.8"><defs><radialGradient cx="240" cy="180" r="14.4" gradientUnits="userSpaceOnUse" id="color-1"><stop offset="0" stop-color="#1c1eff"/><stop offset="1" stop-color="#1c1eff" stop-opacity="0"/></radialGradient><linearGradient x1="238.50784" y1="179.66771" x2="276.7165" y2="179.66771" gradientUnits="userSpaceOnUse" id="color-2"><stop offset="0" stop-color="#1b1dff"/><stop offset="1" stop-color="#1b1dff" stop-opacity="0"/></linearGradient><linearGradient x1="244.69091" y1="172.93802" x2="244.69091" y2="175.90612" gradientUnits="userSpaceOnUse" id="color-3"><stop offset="0" stop-color="#ff5e5e"/><stop offset="1" stop-color="#df5eff"/></linearGradient><linearGradient x1="245.73144" y1="175.90612" x2="245.73144" y2="177.95306" gradientUnits="userSpaceOnUse" id="color-4"><stop offset="0" stop-color="#ff5e5e"/><stop offset="1" stop-color="#df5eff"/></linearGradient><linearGradient x1="245.27088" y1="178.63538" x2="245.27088" y2="179.45414" gradientUnits="userSpaceOnUse" id="color-5"><stop offset="0" stop-color="#ff5e5e"/><stop offset="1" stop-color="#df5eff"/></linearGradient><linearGradient x1="243.85507" y1="176.99783" x2="243.85507" y2="178.02129" gradientUnits="userSpaceOnUse" id="color-6"><stop offset="0" stop-color="#ff5e5e"/><stop offset="1" stop-color="#df5eff"/></linearGradient></defs><g transform="translate(-225.6,-165.6)"><g data-paper-data="{&quot;isPaintingLayer&quot;:true}" fill-rule="nonzero" stroke-width="0" stroke-linejoin="miter" stroke-miterlimit="10" stroke-dasharray="" stroke-dashoffset="0" style="mix-blend-mode: normal"><path d="M225.6,180c0,-7.9529 6.4471,-14.4 14.4,-14.4c7.9529,0 14.4,6.4471 14.4,14.4c0,7.9529 -6.4471,14.4 -14.4,14.4c-7.9529,0 -14.4,-6.4471 -14.4,-14.4z" fill="url(#color-1)" stroke="none" stroke-linecap="butt"/><path d="M238.50784,174.48604l38.20866,5.5443l-38.10563,4.81903z" fill="url(#color-2)" stroke="#000000" stroke-linecap="round"/><path d="M232.59686,180c0,-4.08862 3.3145,-7.40313 7.40313,-7.40313c0.62222,0 1.60182,0.1791 2.17922,0.32368c0.09436,0.02363 0.29795,0.01568 0.27994,0.11013c-0.24556,1.28733 -1.2296,1.69717 -0.77785,2.47903c0.12818,0.22183 0.45938,0.17871 0.64459,0.35394c0.12437,0.11768 0.36462,0.41364 0.35557,0.69019c-0.01195,0.36524 -0.28105,0.72204 -0.07066,0.8403c0.19343,0.10875 -0.62049,0.37171 -0.40082,0.45267c0.10626,0.03915 0.14248,0.35449 0.32374,0.6115c0.20425,0.28961 0.55584,0.52358 0.69908,0.55525c0.11324,0.02501 0.31244,0.27124 0.37703,0.47673c0.06306,0.20055 -0.0086,0.36068 0.10675,0.36863c0.12578,0.00866 0.62863,0.45279 0.75706,0.44712c0.07652,-0.00339 0.28114,0.03858 0.42365,-0.03068c0.17868,-0.08681 0.2987,-0.28992 0.39063,-0.30969c0.47912,-0.10315 0.98601,0.00545 1.30889,-0.11509c0.59129,-0.22079 0.80635,-0.56776 0.80635,0.14943c0,4.08862 -3.3145,7.40313 -7.40313,7.40313c-4.08862,0 -7.40313,-3.3145 -7.40313,-7.40313z" fill="#ffffff" stroke="none" stroke-linecap="butt"/><path d="M243.85507,173.41566l1.5011,-0.47762l0.71643,1.7058l-0.06823,0.27292l-2.08109,0.98936l-0.61409,-1.26228z" fill="#ffffff" stroke="url(#color-3)" stroke-linecap="round"/><path d="M245.11735,176.72488l0.54586,-0.2047l0.40939,-0.61409l0.34115,0.13647l0.2047,1.467l-0.2047,0.2047l-1.26228,0.23882l-0.30705,-1.26228z" fill="#ffffff" stroke="url(#color-4)" stroke-linecap="round"/><path d="M244.84444,178.63538l0.61409,0.06823l0.40939,0.06823l0.0341,0.47762l-0.23882,0.2047l-0.92114,-0.2047l-0.10234,-0.30705z" fill="#ffffff" stroke="url(#color-5)" stroke-linecap="round"/><path d="M244.12802,176.99783l0.17057,0.54586l-0.23882,0.47762l-0.37527,-0.06823l-0.27292,-0.40939l0.2047,-0.44352z" fill="#ffffff" stroke="url(#color-6)" stroke-linecap="round"/></g></g></svg>