<svg version="1.1" xmlns="http://www.w3.org/2000/svg" xmlns:xlink="http://www.w3.org/1999/xlink" width="36.18721" height="23.36295" viewBox="0,0,36.18721,23.36295"><defs><linearGradient x1="219.71958" y1="180.00685" x2="255.90677" y2="180.00685" gradientUnits="userSpaceOnUse" id="color-1"><stop offset="0" stop-color="#9966ff"/><stop offset="1" stop-color="#8446ff"/></linearGradient><linearGradient x1="222.96593" y1="180.00001" x2="255.53409" y2="180.00001" gradientUnits="userSpaceOnUse" id="color-2"><stop offset="0" stop-color="#b48fff"/><stop offset="1" stop-color="#9966ff"/></linearGradient><linearGradient x1="219.71958" y1="180.00686" x2="255.90677" y2="180.00686" gradientUnits="userSpaceOnUse" id="color-3"><stop offset="0" stop-color="#9966ff"/><stop offset="1" stop-color="#8446ff"/></linearGradient><linearGradient x1="222.96593" y1="180.00001" x2="255.53409" y2="180.00001" gradientUnits="userSpaceOnUse" id="color-4"><stop offset="0" stop-color="#b48fff"/><stop offset="1" stop-color="#9966ff"/></linearGradient></defs><g transform="translate(-219.71957,-168.32539)"><g data-paper-data="{&quot;isPaintingLayer&quot;:true}" fill-rule="nonzero" stroke="none" stroke-width="0" stroke-linecap="round" stroke-linejoin="miter" stroke-miterlimit="10" stroke-dasharray="" stroke-dashoffset="0" style="mix-blend-mode: normal"><path d="M248.26382,186.81468c-0.34828,0.4241 -0.67139,0.66658 -1.21548,0.59499c-0.74584,-0.09813 -0.982,-0.55164 -0.982,-0.55164c0,0 -3.40021,-4.91682 -3.93678,-5.93574c-0.15422,-0.29285 -0.32696,-0.49883 -0.65793,-0.49695c-0.4249,0.00241 -0.63823,0.2715 -0.84743,0.64134c-0.8296,1.46664 -6.51045,10.07458 -6.51045,10.07458c0,0 -0.374,0.24419 -0.56249,0.34543c-0.98061,0.52672 -1.86599,-0.01846 -2.37852,-1.17038c-0.80269,-1.8041 -8.08068,-14.43965 -11.12486,-19.70637c-0.59411,-1.02787 -0.40903,-2.29118 0.77818,-2.28453c1.30098,0.00729 4.86323,0.02726 6.87338,0.03853c0.99887,0.0056 1.63858,0.33361 2.17891,1.17374c0.75331,1.17127 3.54876,5.51777 4.88739,7.59913c0.3433,0.53377 0.97698,0.72988 1.31959,0.19567c0.5399,-0.84182 2.45263,-3.82424 2.45263,-3.82424c0,0 0.40941,-0.95785 1.65474,-1.06983c1.22905,-0.11051 1.75742,0.76149 1.75742,0.76149c0,0 3.44283,5.31658 3.98715,6.11588c0.28344,0.41621 0.57651,0.63327 1.08002,0.64044c0.78389,0.01117 4.02573,0.0316 6.36834,0.04548c1.42753,0.00846 2.52114,0.01447 2.52114,0.01447l-7.64294,6.79851z" data-paper-data="{&quot;index&quot;:null}" fill="url(#color-1)"/><path d="M248.26384,173.19904l7.64294,6.79851c0,0 -7.62791,0.04198 -8.88948,0.05995c-0.50351,0.00717 -0.79658,0.22423 -1.08002,0.64044c-0.54432,0.7993 -3.98715,6.11588 -3.98715,6.11588c0,0 -0.52837,0.872 -1.75742,0.76149c-1.24533,-0.11198 -1.65474,-1.06983 -1.65474,-1.06983c0,0 -1.91274,-2.98242 -2.45263,-3.82425c-0.34261,-0.53421 -0.9763,-0.3381 -1.3196,0.19567c-1.33863,2.08137 -4.13409,6.42786 -4.88739,7.59914c-0.54033,0.84013 -1.18004,1.16814 -2.17891,1.17374c-2.01015,0.01127 -5.5724,0.03123 -6.87338,0.03853c-1.18721,0.00665 -1.37229,-1.25664 -0.77818,-2.28452c3.04418,-5.26671 10.32217,-17.90226 11.12486,-19.70637c0.51253,-1.15192 1.39791,-1.6971 2.37852,-1.17038c0.18849,0.10124 0.56249,0.34543 0.56249,0.34543c0,0 5.68085,8.60795 6.51045,10.07459c0.2092,0.36984 0.42253,0.63893 0.84743,0.64134c0.33097,0.00188 0.50371,-0.2041 0.65793,-0.49695c0.53657,-1.01892 3.93678,-5.93575 3.93678,-5.93575c0,0 0.23616,-0.45351 0.982,-0.55164c0.54409,-0.07159 0.8672,0.17089 1.21548,0.59499z" data-paper-data="{&quot;index&quot;:null}" fill="url(#color-2)"/><path d="M234.11375,191.14126c0,0 -0.374,0.24419 -0.56249,0.34543c-0.98061,0.52672 -1.86599,-0.01846 -2.37852,-1.17038c-0.80269,-1.8041 -8.08068,-14.43965 -11.12486,-19.70637c-0.59411,-1.02787 -0.40903,-2.29118 0.77818,-2.28453c1.30098,0.00729 4.86323,0.02726 6.87338,0.03853c0.99887,0.0056 1.63858,0.33361 2.17891,1.17374c0.75331,1.17127 3.54876,5.51777 4.88739,7.59913c0.3433,0.53377 0.97698,0.72988 1.31959,0.19567c0.5399,-0.84182 2.45263,-3.82424 2.45263,-3.82424c0,0 0.40941,-0.95785 1.65474,-1.06983c1.22905,-0.11051 1.75742,0.76149 1.75742,0.76149l2.01095,3.02651c0,0 -1.14675,1.85538 -2.08104,3.27047c-1.77314,2.68562 -7.76629,11.64439 -7.76629,11.64439z" data-paper-data="{&quot;index&quot;:null}" fill="url(#color-3)"/><path d="M229.87835,190.47604c-0.54033,0.84013 -1.18004,1.16814 -2.17891,1.17374c-2.01015,0.01127 -5.5724,0.03123 -6.87338,0.03853c-1.18721,0.00665 -1.37229,-1.25664 -0.77818,-2.28452c3.04418,-5.26671 10.32217,-17.90226 11.12486,-19.70637c0.51253,-1.15192 1.39791,-1.6971 2.37852,-1.17038c0.18849,0.10124 0.56249,0.34543 0.56249,0.34543l3.72779,5.69061c0,0 -5.03259,10.58267 -6.40429,13.32376c-0.6193,1.23757 -1.5589,2.58921 -1.5589,2.58921z" data-paper-data="{&quot;index&quot;:null}" fill="url(#color-4)"/></g></g></svg>