<svg version="1.1" xmlns="http://www.w3.org/2000/svg" xmlns:xlink="http://www.w3.org/1999/xlink" width="11.62214" height="10.59812" viewBox="0,0,11.62214,10.59812"><defs><linearGradient x1="240" y1="174.70095" x2="240" y2="185.29906" gradientUnits="userSpaceOnUse" id="color-1"><stop offset="0" stop-color="#9966ff"/><stop offset="1" stop-color="#8446ff"/></linearGradient><linearGradient x1="240.00343" y1="174.70094" x2="240.00343" y2="180.04309" gradientUnits="userSpaceOnUse" id="color-2"><stop offset="0" stop-color="#b48fff"/><stop offset="1" stop-color="#9966ff"/></linearGradient></defs><g transform="translate(-234.18893,-174.70094)"><g data-paper-data="{&quot;isPaintingLayer&quot;:true}" fill-rule="nonzero" stroke="none" stroke-linecap="butt" stroke-linejoin="miter" stroke-miterlimit="10" stroke-dasharray="" stroke-dashoffset="0" style="mix-blend-mode: normal"><path d="M234.18893,185.09509c0.2734,-0.58876 1.67417,-3.60526 2.17889,-4.69214c0.13286,-0.2861 0.13271,-0.49725 0.00101,-0.78388c-0.49602,-1.07954 -1.86189,-4.05227 -2.15,-4.67933c-0.09564,-0.20815 0.12446,-0.29469 0.33369,-0.20142c1.14446,0.51014 8.48581,3.78253 10.95608,4.88365c0.38703,0.17252 0.41089,0.53873 0.02386,0.71125c-2.47895,1.10499 -10.0322,4.47183 -11.08675,4.94189c-0.24042,0.10717 -0.25676,-0.18001 -0.25676,-0.18001z" fill="url(#color-1)" stroke-width="NaN"/><path d="M236.46678,180.04309c0.00625,-0.13514 -0.02648,-0.26846 -0.09795,-0.42402c-0.49602,-1.07954 -1.86189,-4.05227 -2.15001,-4.67933c-0.09564,-0.20815 0.12446,-0.29469 0.33369,-0.20142c1.14446,0.51014 8.48581,3.78253 10.95608,4.88365c0.1993,0.08884 0.3023,0.22903 0.30248,0.3677z" fill="url(#color-2)" stroke-width="NaN"/></g></g></svg>