<svg version="1.1" xmlns="http://www.w3.org/2000/svg" xmlns:xlink="http://www.w3.org/1999/xlink" width="638.9006" height="646.62991" viewBox="0,0,638.9006,646.62991"><defs><linearGradient x1="407.99998" y1="98.97788" x2="407.99998" y2="261.02212" gradientUnits="userSpaceOnUse" id="color-1"><stop offset="0" stop-color="#411794"/><stop offset="1" stop-color="#756192"/></linearGradient><linearGradient x1="248.49998" y1="98.97788" x2="248.49998" y2="261.02212" gradientUnits="userSpaceOnUse" id="color-2"><stop offset="0" stop-color="#411794"/><stop offset="1" stop-color="#756192"/></linearGradient><linearGradient x1="323.49998" y1="-139.02212" x2="323.49998" y2="23.02213" gradientUnits="userSpaceOnUse" id="color-3"><stop offset="0" stop-color="#411794"/><stop offset="1" stop-color="#756192"/></linearGradient><linearGradient x1="323.99998" y1="321.47789" x2="323.99998" y2="483.52213" gradientUnits="userSpaceOnUse" id="color-4"><stop offset="0" stop-color="#411794"/><stop offset="1" stop-color="#756192"/></linearGradient><linearGradient x1="499.99997" y1="-133.02212" x2="499.99997" y2="29.02213" gradientUnits="userSpaceOnUse" id="color-5"><stop offset="0" stop-color="#411794"/><stop offset="1" stop-color="#756192"/></linearGradient><linearGradient x1="507.99997" y1="317.97788" x2="507.99997" y2="480.02213" gradientUnits="userSpaceOnUse" id="color-6"><stop offset="0" stop-color="#411794"/><stop offset="1" stop-color="#756192"/></linearGradient><linearGradient x1="327.70239" y1="169.60238" x2="327.70239" y2="189.60238" gradientUnits="userSpaceOnUse" id="color-7"><stop offset="0" stop-color="#573793"/><stop offset="1" stop-color="#5b3d92"/></linearGradient></defs><g transform="translate(38.16665,151.06495)"><g data-paper-data="{&quot;isPaintingLayer&quot;:true}" fill-rule="nonzero" stroke="none" stroke-linecap="butt" stroke-linejoin="miter" stroke-miterlimit="10" stroke-dasharray="" stroke-dashoffset="0" style="mix-blend-mode: normal"><path d="M-38.16665,385.46666c0,-1.38071 1.11929,-2.5 2.5,-2.5c1.38071,0 2.5,1.11929 2.5,2.5c0,1.38071 -1.11929,2.5 -2.5,2.5c-1.38071,0 -2.5,-1.11929 -2.5,-2.5z" fill="#000000" stroke-width="0.5"/><path d="M507.83335,393.46666c0,-1.38071 1.11929,-2.5 2.5,-2.5c1.38071,0 2.5,1.11929 2.5,2.5c0,1.38071 -1.11929,2.5 -2.5,2.5c-1.38071,0 -2.5,-1.11929 -2.5,-2.5z" fill="#000000" stroke-width="0.5"/><path d="M155.7641,175.58844c16.40663,-16.40663 76.98644,-76.98644 86.66667,-86.66667c3.1041,-3.1041 7.04421,-2.35409 10.14831,0.75c10.19489,10.19489 69.47918,69.47918 85.83333,85.83333c2.75224,2.75224 2.23001,6.12385 -0.52222,8.87608c-9.78143,9.78143 -71.53232,71.53232 -87.16667,87.16667c-2.46663,2.46663 -5.47056,1.71664 -7.9372,-0.75c-9.33564,-9.33564 -69.67151,-69.67151 -86.66667,-86.66667c-2.82212,-2.82212 -0.35556,-8.54276 -0.35556,-8.54276z" fill="#8f5ce6" stroke-width="0"/><g stroke-width="0"><path d="M317.7641,175.58844c16.40663,-16.40663 76.98644,-76.98644 86.66667,-86.66667c3.1041,-3.1041 7.04421,-2.35409 10.14831,0.75c10.19489,10.19489 69.47918,69.47918 85.83333,85.83333c2.75224,2.75224 2.23001,6.12385 -0.52222,8.87608c-9.78143,9.78143 -71.53232,71.53232 -87.16667,87.16667c-2.46663,2.46663 -5.47056,1.71664 -7.9372,-0.75c-9.33564,-9.33564 -69.67151,-69.67151 -86.66667,-86.66667c-2.82212,-2.82212 -0.35556,-8.54276 -0.35556,-8.54276z" fill="#8f5ce6"/><path d="M328.13495,176.15931c14.28357,-14.28357 67.02421,-67.02421 75.45179,-75.45179c2.70242,-2.70242 6.13267,-2.04946 8.83509,0.65295c8.87565,8.87565 60.4884,60.4884 74.72629,74.72629c2.39609,2.39609 1.94144,5.33141 -0.45464,7.72749c-8.51569,8.51569 -62.27586,62.27586 -75.88709,75.88709c-2.14744,2.14744 -4.76266,1.4945 -6.91011,-0.65295c-8.12759,-8.12759 -60.65585,-60.65585 -75.45179,-75.45179c-2.45693,-2.45693 -0.30955,-7.43731 -0.30955,-7.43731z" fill="url(#color-1)"/></g><path d="M168.63495,176.15931c14.28357,-14.28357 67.02421,-67.02421 75.45179,-75.45179c2.70242,-2.70242 6.13267,-2.04946 8.83509,0.65295c8.87565,8.87565 60.4884,60.4884 74.72629,74.72629c2.39609,2.39609 1.94144,5.33141 -0.45464,7.72749c-8.51569,8.51569 -62.27586,62.27586 -75.88709,75.88709c-2.14744,2.14744 -4.76266,1.4945 -6.91011,-0.65295c-8.12759,-8.12759 -60.65585,-60.65585 -75.45179,-75.45179c-2.45693,-2.45693 -0.30955,-7.43731 -0.30955,-7.43731z" fill="url(#color-2)" stroke-width="0"/><path d="M509.33335,-39.96766c1.38071,0 2.5,1.11929 2.5,2.5c0,1.38071 -1.11929,2.5 -2.5,2.5c-1.38071,0 -2.5,-1.11929 -2.5,-2.5c0,-1.38071 1.11929,-2.5 2.5,-2.5z" data-paper-data="{&quot;index&quot;:null}" fill="#000000" stroke-width="0.5"/><g stroke-width="0"><path d="M231.7641,-62.41156c16.40663,-16.40663 76.98644,-76.98644 86.66667,-86.66667c3.1041,-3.1041 7.04421,-2.35409 10.14831,0.75c10.19489,10.19489 69.47918,69.47918 85.83333,85.83333c2.75224,2.75224 2.23001,6.12385 -0.52222,8.87608c-9.78143,9.78143 -71.53232,71.53232 -87.16667,87.16667c-2.46663,2.46663 -5.47056,1.71664 -7.9372,-0.75c-9.33564,-9.33564 -69.67151,-69.67151 -86.66667,-86.66667c-2.82212,-2.82212 -0.35556,-8.54276 -0.35556,-8.54276z" fill="#8f5ce6"/><path d="M243.63495,-61.84069c14.28357,-14.28357 67.02421,-67.02421 75.45179,-75.45179c2.70242,-2.70242 6.13267,-2.04946 8.83509,0.65295c8.87565,8.87565 60.4884,60.4884 74.72629,74.72629c2.39609,2.39609 1.94144,5.33141 -0.45464,7.72749c-8.51569,8.51569 -62.27586,62.27586 -75.88709,75.88709c-2.14744,2.14744 -4.76266,1.4945 -6.91011,-0.65295c-8.12759,-8.12759 -60.65585,-60.65585 -75.45179,-75.45179c-2.45693,-2.45693 -0.30955,-7.43731 -0.30955,-7.43731z" fill="url(#color-3)"/></g><g stroke-width="0"><path d="M232.2641,398.08845c16.40663,-16.40663 76.98644,-76.98644 86.66667,-86.66667c3.1041,-3.1041 7.04421,-2.35409 10.14831,0.75c10.19489,10.19489 69.47918,69.47918 85.83333,85.83333c2.75224,2.75224 2.23001,6.12385 -0.52222,8.87608c-9.78143,9.78143 -71.53232,71.53232 -87.16667,87.16667c-2.46663,2.46663 -5.47056,1.71664 -7.9372,-0.75c-9.33564,-9.33564 -69.67151,-69.67151 -86.66667,-86.66667c-2.82212,-2.82212 -0.35556,-8.54276 -0.35556,-8.54276z" fill="#8f5ce6"/><path d="M244.13495,398.65932c14.28357,-14.28357 67.02421,-67.02421 75.45179,-75.45179c2.70242,-2.70242 6.13267,-2.04946 8.83509,0.65295c8.87565,8.87565 60.4884,60.4884 74.72629,74.72629c2.39609,2.39609 1.94144,5.33141 -0.45464,7.72749c-8.51569,8.51569 -62.27586,62.27586 -75.88709,75.88709c-2.14744,2.14744 -4.76266,1.4945 -6.91011,-0.65295c-8.12759,-8.12759 -60.65585,-60.65585 -75.45179,-75.45179c-2.45693,-2.45693 -0.30955,-7.43731 -0.30955,-7.43731z" fill="url(#color-4)"/></g><g stroke-width="0"><path d="M408.26409,-56.41156c16.40663,-16.40663 76.98644,-76.98644 86.66667,-86.66667c3.1041,-3.1041 7.04421,-2.35409 10.14831,0.75c10.19489,10.19489 69.47918,69.47918 85.83333,85.83333c2.75224,2.75224 2.23001,6.12385 -0.52222,8.87608c-9.78143,9.78143 -71.53232,71.53232 -87.16667,87.16667c-2.46663,2.46663 -5.47056,1.71664 -7.9372,-0.75c-9.33564,-9.33564 -69.67151,-69.67151 -86.66667,-86.66667c-2.82212,-2.82212 -0.35556,-8.54276 -0.35556,-8.54276z" fill="#8f5ce6"/><path d="M420.13494,-55.84069c14.28357,-14.28357 67.02421,-67.02421 75.45179,-75.45179c2.70242,-2.70242 6.13267,-2.04946 8.83509,0.65295c8.87565,8.87565 60.4884,60.4884 74.72629,74.72629c2.39609,2.39609 1.94144,5.33141 -0.45464,7.72749c-8.51569,8.51569 -62.27586,62.27586 -75.88709,75.88709c-2.14744,2.14744 -4.76266,1.4945 -6.91011,-0.65295c-8.12759,-8.12759 -60.65585,-60.65585 -75.45179,-75.45179c-2.45693,-2.45693 -0.30955,-7.43731 -0.30955,-7.43731z" fill="url(#color-5)"/></g><g stroke-width="0"><path d="M416.2641,394.58844c16.40663,-16.40663 76.98644,-76.98644 86.66667,-86.66667c3.1041,-3.1041 7.04421,-2.35409 10.14831,0.75c10.19489,10.19489 69.47918,69.47918 85.83333,85.83333c2.75224,2.75224 2.23001,6.12385 -0.52222,8.87608c-9.78143,9.78143 -71.53232,71.53232 -87.16667,87.16667c-2.46663,2.46663 -5.47056,1.71664 -7.9372,-0.75c-9.33564,-9.33564 -69.67151,-69.67151 -86.66667,-86.66667c-2.82212,-2.82212 -0.35556,-8.54276 -0.35556,-8.54276z" fill="#8f5ce6"/><path d="M428.13495,395.15931c14.28357,-14.28357 67.02421,-67.02421 75.45179,-75.45179c2.70242,-2.70242 6.13267,-2.04946 8.83509,0.65295c8.87565,8.87565 60.4884,60.4884 74.72629,74.72629c2.39609,2.39609 1.94144,5.33141 -0.45464,7.72749c-8.51569,8.51569 -62.27586,62.27586 -75.88709,75.88709c-2.14744,2.14744 -4.76266,1.4945 -6.91011,-0.65295c-8.12759,-8.12759 -60.65585,-60.65585 -75.45179,-75.45179c-2.45693,-2.45693 -0.30955,-7.43731 -0.30955,-7.43731z" fill="url(#color-6)"/></g><path d="M320.55953,189.60238l0.28571,-20c0,0 5.16021,3.63884 7.14066,3.67926c2.54374,0.05191 6.28791,-3.10783 6.28791,-3.10783l0.57143,19c0,0 -4.95788,-2.69984 -7.42592,-2.62579c-2.27875,0.06836 -6.8598,3.05437 -6.8598,3.05437z" fill="url(#color-7)" stroke-width="0"/></g></g></svg>