<svg version="1.1" xmlns="http://www.w3.org/2000/svg" xmlns:xlink="http://www.w3.org/1999/xlink" width="29.24054" height="24.69842" viewBox="0,0,29.24054,24.69842"><defs><linearGradient x1="236.11225" y1="170.22444" x2="236.11225" y2="189.77557" gradientUnits="userSpaceOnUse" id="color-1"><stop offset="0" stop-color="#9966ff"/><stop offset="1" stop-color="#8446ff"/></linearGradient><linearGradient x1="236.11858" y1="170.22443" x2="236.11858" y2="180.07948" gradientUnits="userSpaceOnUse" id="color-2"><stop offset="0" stop-color="#b48fff"/><stop offset="1" stop-color="#9966ff"/></linearGradient><linearGradient x1="243.57369" y1="167.32985" x2="243.57369" y2="192.02827" gradientUnits="userSpaceOnUse" id="color-3"><stop offset="0" stop-color="#9966ff"/><stop offset="1" stop-color="#8446ff"/></linearGradient><linearGradient x1="243.96342" y1="167.07943" x2="243.96342" y2="192.30463" gradientUnits="userSpaceOnUse" id="color-4"><stop offset="0" stop-color="#b48fff"/><stop offset="1" stop-color="#9966ff"/></linearGradient><linearGradient x1="246.57131" y1="180.96264" x2="246.57131" y2="175.84752" gradientUnits="userSpaceOnUse" id="color-5"><stop offset="0" stop-color="#b48fff"/><stop offset="1" stop-color="#8548ff"/></linearGradient></defs><g transform="translate(-225.39213,-167.32985)"><g data-paper-data="{&quot;isPaintingLayer&quot;:true}" fill-rule="nonzero" stroke="none" stroke-linecap="butt" stroke-linejoin="miter" stroke-miterlimit="10" stroke-dasharray="" stroke-dashoffset="0" style="mix-blend-mode: normal"><path d="M225.39213,189.3993c0.50437,-1.08612 3.08847,-6.65089 4.01956,-8.65595c0.24509,-0.52778 0.24482,-0.91732 0.00187,-1.44608c-0.91504,-1.99151 -3.43476,-7.47553 -3.96627,-8.63232c-0.17644,-0.384 0.22959,-0.54363 0.61558,-0.37158c2.11127,0.9411 15.65441,6.97792 20.2115,9.00923c0.71399,0.31826 0.758,0.99384 0.04401,1.3121c-4.57311,2.03845 -18.50715,8.24952 -20.45256,9.11668c-0.44352,0.1977 -0.47367,-0.33208 -0.47367,-0.33208z" fill="url(#color-1)" stroke-width="NaN"/><path d="M229.59425,180.07948c0.01153,-0.2493 -0.04885,-0.49526 -0.1807,-0.78222c-0.91504,-1.99151 -3.43476,-7.47553 -3.96628,-8.63232c-0.17643,-0.384 0.2296,-0.54363 0.61558,-0.37158c2.11127,0.94109 15.65441,6.97792 20.2115,9.00923c0.36766,0.16388 0.55767,0.42252 0.558,0.67831z" fill="url(#color-2)" stroke-width="NaN"/><path d="M232.51472,191.34038c0.61157,-2.32414 2.09096,-8.28461 2.09096,-11.55794c0,-3.29749 -1.39743,-9.06163 -2.03741,-11.52854c-0.13498,-0.52031 -0.01444,-1.07162 0.49075,-0.88797c3.08496,1.12146 14.29546,5.40442 20.39401,10.52229c1.33578,1.12098 1.66451,2.71783 0.31973,3.82799c0,0 -5.49142,3.69387 -8.76596,5.3052c-3.12525,1.53786 -9.68728,4.10143 -11.95831,4.97828c-0.50132,0.19356 -0.53378,-0.65931 -0.53378,-0.65931z" fill="url(#color-3)" stroke-width="0"/><path d="M234.60568,179.96327c0,-3.29749 -1.48784,-9.24246 -2.12782,-11.70936c-0.13498,-0.52031 -0.01444,-1.07162 0.49075,-0.88797c3.08496,1.12146 14.29546,5.40442 20.39401,10.52229c0.77634,0.6515 1.21253,1.46375 1.1777,2.24777z" fill="url(#color-4)" stroke-width="0"/><path d="M246.57131,175.84752c1.4125,0 2.55756,1.14506 2.55756,2.55756c0,1.4125 -1.14506,2.55756 -2.55756,2.55756c-1.4125,0 -2.55756,-1.14506 -2.55756,-2.55756c0,-1.4125 1.14506,-2.55756 2.55756,-2.55756z" data-paper-data="{&quot;index&quot;:null}" fill="url(#color-5)" stroke-width="0"/></g></g></svg>