<svg version="1.1" xmlns="http://www.w3.org/2000/svg" xmlns:xlink="http://www.w3.org/1999/xlink" width="73.75966" height="27.17955" viewBox="0,0,73.75966,27.17955"><g transform="translate(-308.55349,-297.09759)"><g data-paper-data="{&quot;isPaintingLayer&quot;:true}" fill-rule="nonzero" stroke-linecap="butt" stroke-linejoin="miter" stroke-miterlimit="10" stroke-dasharray="" stroke-dashoffset="0" style="mix-blend-mode: normal"><path d="M382.31315,297.09759c0,0 0,7.32802 0,11.60033c0,9.54686 -5.68168,15.57922 -15.22854,15.57922c-34.92759,0 24.53866,0 -41.47408,0c-19.02528,0 -16.99416,-15.57922 -16.99416,-15.57922v-11.60033z" fill="#ffffff" stroke="none" stroke-width="0"/><text transform="translate(323.29777,312.82037) scale(0.17133,0.17133)" font-size="40" xml:space="preserve" fill="#000000" fill-rule="nonzero" stroke="#000000" stroke-width="2" stroke-linecap="butt" stroke-linejoin="miter" stroke-miterlimit="10" stroke-dasharray="" stroke-dashoffset="0" font-family="Sans Serif" font-weight="normal" text-anchor="start" style="mix-blend-mode: normal"><tspan x="0" dy="0">Inactive</tspan></text><path d="M355.00357,310.07735c0,-3.7082 3.00608,-6.71429 6.71428,-6.71429c3.7082,0 6.71429,3.00609 6.71429,6.71429c0,3.7082 -3.00609,6.71428 -6.71429,6.71428c-3.7082,0 -6.71428,-3.00608 -6.71428,-6.71428z" fill="#000000" stroke="#000000" stroke-width="0"/><path d="M357.46358,310.11975c0,-2.08168 1.50648,-3.81151 3.48869,-4.15873c0.13842,-0.02425 0.46518,0.09511 0.13729,0.38925c-0.83988,0.75343 -2.07043,2.39613 -0.18235,4.54038c2.15113,2.04071 3.7442,0.84073 4.50424,-0.05874c0.32395,-0.38337 0.42814,0.07332 0.38389,0.2609c-0.43939,1.86279 -2.11257,3.24917 -4.10955,3.24917c-2.33187,0 -4.22222,-1.89035 -4.22222,-4.22222z" fill="#ffffff" stroke="none" stroke-width="0"/></g></g></svg>