<svg version="1.1" xmlns="http://www.w3.org/2000/svg" xmlns:xlink="http://www.w3.org/1999/xlink" width="50.91651" height="28.8" viewBox="0,0,50.91651,28.8"><defs><radialGradient cx="240" cy="180" r="14.4" gradientUnits="userSpaceOnUse" id="color-1"><stop offset="0" stop-color="#2090ff"/><stop offset="1" stop-color="#2090ff" stop-opacity="0"/></radialGradient><linearGradient x1="238.30784" y1="180.2677" x2="276.51651" y2="180.2677" gradientUnits="userSpaceOnUse" id="color-2"><stop offset="0" stop-color="#2091ff"/><stop offset="1" stop-color="#2091ff" stop-opacity="0"/></linearGradient></defs><g transform="translate(-225.6,-165.6)"><g data-paper-data="{&quot;isPaintingLayer&quot;:true}" fill-rule="nonzero" stroke-width="0" stroke-linejoin="miter" stroke-miterlimit="10" stroke-dasharray="" stroke-dashoffset="0" style="mix-blend-mode: normal"><path d="M225.6,180c0,-7.9529 6.4471,-14.4 14.4,-14.4c7.9529,0 14.4,6.4471 14.4,14.4c0,7.9529 -6.4471,14.4 -14.4,14.4c-7.9529,0 -14.4,-6.4471 -14.4,-14.4z" fill="url(#color-1)" stroke="none" stroke-linecap="butt"/><path d="M238.30784,175.08604l38.20867,5.5443l-38.10563,4.81903z" fill="url(#color-2)" stroke="#000000" stroke-linecap="round"/><path d="M243.66355,177.55983l-7.49742,0.19642c0,0 0.34288,-0.67141 0.42892,-0.87373c0.02868,-0.06743 0.0932,-0.34953 0.12052,-0.41753c0.7999,-1.65054 1.85702,-4.83996 3.18621,-4.87837c1.14177,-0.02453 1.39067,0.75347 1.87395,1.61601c0.54116,0.96587 1.43598,3.04875 1.84924,4.07587c0.35875,0.89166 0.03857,0.28133 0.03857,0.28133z" data-paper-data="{&quot;origRot&quot;:0,&quot;index&quot;:null}" fill="#ffffff" stroke="none" stroke-linecap="butt"/><path d="M242.11738,176.16226c1.10358,0.08871 3.35842,0.32279 4.44161,0.55184c0.96731,0.20455 1.78413,0.21054 2.10067,1.30783c0.35908,1.28034 -2.37097,3.23912 -3.70849,4.49417c-0.05679,0.04632 -0.30688,0.1919 -0.36271,0.23937c-0.16752,0.14238 -0.7064,0.66961 -0.7064,0.66961l-2.04473,-7.21589c0,0 -0.67798,-0.12393 0.28006,-0.04693z" data-paper-data="{&quot;origRot&quot;:0,&quot;index&quot;:null}" fill="#ffffff" stroke="none" stroke-linecap="butt"/><path d="M238.86015,185.05848l6.14718,-4.29675c0,0 0.08404,0.7492 0.12377,0.96543c0.01324,0.07209 0.11492,0.34301 0.12961,0.4148c0.24245,1.81806 1.11858,5.06187 0.03075,5.82661c-0.93911,0.64985 -1.57565,0.13794 -2.45434,-0.31532c-0.98394,-0.50755 -3.36669,-1.66342 -4.27767,-2.29259c-0.79084,-0.54619 0.30071,-0.30218 0.30071,-0.30218z" data-paper-data="{&quot;origRot&quot;:0,&quot;index&quot;:null}" fill="#ffffff" stroke="none" stroke-linecap="butt"/><path d="M240.97577,185.45384c-0.26069,0.18004 0.43359,-0.16524 0.16867,0.00852c-0.79472,0.5213 -2.69504,1.67673 -3.95839,2.3284c-0.87869,0.45324 -1.51524,0.96514 -2.45434,0.31528c-1.08782,-0.76475 -0.21166,-4.00856 0.03082,-5.82661c0.01468,-0.07179 0.11637,-0.34272 0.12961,-0.4148c0.03973,-0.21623 0.12378,-0.96543 0.12378,-0.96543c0,0 6.93318,4.01334 7.08346,4.11839c0.05009,0.03501 -0.93632,0.17844 -0.93632,0.17844c0,0 0.60359,-0.33273 -0.18727,0.21346z" data-paper-data="{&quot;origRot&quot;:0,&quot;index&quot;:null}" fill="#ffffff" stroke="none" stroke-linecap="butt"/><path d="M238.16269,176.20918l-2.04482,7.21586c0,0 -0.53888,-0.52723 -0.70639,-0.66962c-0.05585,-0.04746 -0.30593,-0.19305 -0.36271,-0.23938c-1.33751,-1.25507 -4.06754,-3.09041 -3.70844,-4.37075c0.31654,-1.09728 1.13336,-1.04154 2.10068,-1.24608c1.0832,-0.22904 3.33804,-0.64828 4.44163,-0.73698c0.95804,-0.077 0.28006,0.04693 0.28006,0.04693z" data-paper-data="{&quot;origRot&quot;:0,&quot;index&quot;:null}" fill="#ffffff" stroke="none" stroke-linecap="butt"/><path d="M244.68853,180.81095c-0.00001,2.35816 -1.93575,4.26983 -4.32358,4.26982c-2.38783,-0.00002 -4.32354,-1.9117 -4.32352,-4.26987c0.00002,-2.35816 1.93574,-4.26983 4.32357,-4.26982c2.38783,0.00002 4.32354,1.9117 4.32352,4.26987z" fill="#ffffff" stroke="none" stroke-linecap="butt"/></g></g></svg>