<svg version="1.1" xmlns="http://www.w3.org/2000/svg" xmlns:xlink="http://www.w3.org/1999/xlink" width="222.83853" height="59.08904" viewBox="0,0,222.83853,59.08904"><defs><linearGradient x1="240" y1="151.70279" x2="240" y2="208.29721" gradientUnits="userSpaceOnUse" id="color-1"><stop offset="0" stop-color="#47006d"/><stop offset="1" stop-color="#3e1a84"/></linearGradient></defs><g transform="translate(-129.04421,-150.45711)"><g data-paper-data="{&quot;isPaintingLayer&quot;:true}" fill="url(#color-1)" fill-rule="nonzero" stroke="#b448ff" stroke-width="2.5" stroke-linecap="square" stroke-linejoin="miter" stroke-miterlimit="10" stroke-dasharray="" stroke-dashoffset="0" style="mix-blend-mode: normal"><path d="M195.76153,154.03423c3.30823,1.13604 4.97582,2.68446 5.00277,4.64526c0.00882,0.64161 -0.26844,1.85092 -0.83177,3.62791l-13.58642,41.08355c-0.09716,0.34919 -0.26528,0.77132 -0.50437,1.2664c-0.23918,0.48908 -0.88084,1.14863 -1.92498,1.97864c-1.04423,0.82401 -2.2919,1.24599 -3.74302,1.26594c-1.44511,0.01986 -2.70092,-0.36771 -3.7674,-1.16271c-1.06656,-0.801 -1.77914,-1.59187 -2.13772,-2.37261l-8.96609,-25.3001c-5.23524,16.18718 -7.89881,24.42834 -7.99072,24.72348c-0.09191,0.29514 -0.308,0.71794 -0.64829,1.26838c-0.33437,0.54437 -0.72041,1.03847 -1.15813,1.4823c-1.11174,1.1488 -2.45313,1.734 -4.02417,1.75559c-1.57104,0.02159 -2.86532,-0.32946 -3.88285,-1.05317c-1.01752,-0.72371 -1.70525,-1.45194 -2.06317,-2.18471l-0.5279,-1.09928l-14.78229,-40.69367c-0.56201,-1.6176 -0.8484,-2.81915 -0.8592,-3.60467c-0.02695,-1.9608 1.59779,-3.53049 4.87421,-4.70904c1.41438,-0.51123 2.69721,-0.77476 3.84851,-0.79058c1.1573,-0.0159 2.04716,0.3647 2.66958,1.14181c0.62842,0.77704 1.19964,1.97468 1.71368,3.59293l8.44227,24.49764l7.69897,-24.35062c0.66123,-2.07222 1.8949,-3.51358 3.701,-4.32407c0.78074,-0.35858 1.79773,-0.54649 3.05096,-0.56371c1.25324,-0.01722 2.42513,0.3745 3.51568,1.17517c1.09047,0.79467 1.78801,1.58275 2.09263,2.36423l8.82415,25.44599l7.77286,-24.86443c0.37419,-1.13867 0.6805,-1.97952 0.91893,-2.52258c0.23843,-0.54305 0.6839,-1.07695 1.33641,-1.6017c0.65851,-0.52484 1.47946,-0.79401 2.46286,-0.80752c0.9834,-0.01352 2.14108,0.21647 3.47303,0.68996zM235.96894,157.01715l20.46093,40.84053c0.85648,1.66152 1.29046,2.90903 1.30191,3.74253c0.02431,1.76892 -1.37785,3.38653 -4.20651,4.8528c-1.66152,0.85648 -2.972,1.29131 -3.93141,1.30451c-0.95342,0.0131 -1.74199,-0.19796 -2.36572,-0.63321c-0.61772,-0.43533 -1.06484,-0.89399 -1.34135,-1.37598c-0.27659,-0.48799 -0.66749,-1.22031 -1.17272,-2.19695l-3.94107,-7.90749l-20.40857,0.28048l-3.72227,8.01281c-0.47818,0.99016 -0.84915,1.70896 -1.11288,2.15639c-0.26382,0.44145 -0.70133,0.90027 -1.31252,1.37647c-0.6052,0.47612 -1.3875,0.72077 -2.34692,0.73396c-0.95342,0.0131 -2.27239,-0.38859 -3.95691,-1.20508c-2.86714,-1.33402 -4.31286,-2.8855 -4.33718,-4.65442c-0.01145,-0.83349 0.38807,-2.09246 1.19857,-3.77689l19.32985,-41.45936c0.52418,-1.13473 1.33319,-2.05447 2.42704,-2.75921c1.09985,-0.70483 2.2644,-1.06569 3.49365,-1.08258c2.65039,-0.03642 4.63174,1.21381 5.94408,3.7507zM230.23959,174.78247l-4.71822,10.1676l9.79504,-0.13462zM299.36649,153.12311c2.91585,1.38733 4.3856,2.94146 4.40925,4.66242c0.01079,0.78552 -0.33878,1.96884 -1.04875,3.54993l-19.76959,41.53738c-0.53075,1.09284 -1.34322,1.97963 -2.4374,2.66039c-1.09426,0.67477 -2.23203,1.02026 -3.41332,1.0365l-0.73753,0.01014c-1.22326,0.01681 -2.39408,-0.29696 -3.51247,-0.94132c-1.11248,-0.65043 -1.946,-1.51461 -2.5006,-2.59253l-20.90364,-40.97838c-0.75914,-1.5609 -1.14411,-2.73412 -1.15491,-3.51965c-0.02365,-1.72096 1.40283,-3.3149 4.27946,-4.78183c1.61356,-0.85582 2.84907,-1.28963 3.70655,-1.30142c0.85748,-0.01179 1.50943,0.07821 1.95589,0.26999c0.44645,0.19178 0.86793,0.53084 1.26445,1.01718c0.45181,0.58154 0.8655,1.22659 1.24109,1.93512c0.3815,0.70246 1.35694,2.7282 2.92633,6.07721c1.5693,3.34302 3.24943,6.89443 5.04037,10.65422c1.79686,3.75372 3.49197,7.30492 5.08534,10.65361c1.59329,3.34269 2.49155,5.20755 2.69478,5.5946l14.29849,-32.47496c0.3769,-0.94079 0.70856,-1.68303 0.99497,-2.22675c0.86924,-1.33739 1.94247,-2.01487 3.2197,-2.03242c1.27722,-0.01756 2.73107,0.37929 4.36154,1.19053zM321.3644,192.98893l22.69318,-0.31188c1.12731,-0.01549 1.97334,0.01187 2.53806,0.08207c0.57064,0.06413 1.22742,0.286 1.97032,0.66563c1.33468,0.67137 2.0236,2.5781 2.06678,5.72018c0.0473,3.4419 -0.83346,5.46917 -2.64227,6.08178c-0.83545,0.30536 -2.11066,0.46982 -3.82561,0.49339l-29.17823,0.40101c-3.4419,0.0473 -5.46949,-0.85744 -6.08277,-2.71422c-0.30461,-0.78149 -0.46875,-2.03269 -0.49241,-3.75365l-0.56307,-40.97006c-0.03445,-2.50647 0.40683,-4.21882 1.32382,-5.13704c0.92291,-0.9243 2.68556,-1.40433 5.28797,-1.44011l29.03432,-0.39903c1.12731,-0.01549 1.97334,0.01187 2.53806,0.08207c0.57064,0.06413 1.22742,0.286 1.97032,0.66563c1.33468,0.67137 2.0236,2.5781 2.06678,5.72018c0.0473,3.4419 -0.83346,5.46917 -2.64227,6.08178c-0.83545,0.30536 -2.11066,0.46982 -3.82561,0.49339l-22.62123,0.31089l0.10235,7.44747l14.58911,-0.20051c1.12731,-0.01549 1.97329,0.00886 2.53794,0.07307c0.57064,0.06413 1.22446,0.28904 1.96145,0.67475c1.34058,0.66529 2.03251,2.57197 2.07578,5.72006c0.04722,3.43591 -0.86057,5.46054 -2.72335,6.07389c-0.82937,0.31128 -2.10452,0.47874 -3.82548,0.50239l-14.43621,0.1984z"/></g></g></svg>