<svg version="1.1" xmlns="http://www.w3.org/2000/svg" xmlns:xlink="http://www.w3.org/1999/xlink" width="27.35413" height="24.90136" viewBox="0,0,27.35413,24.90136"><defs><linearGradient x1="240" y1="168.48292" x2="240" y2="191.51709" gradientUnits="userSpaceOnUse" id="color-1"><stop offset="0" stop-color="#9966ff"/><stop offset="1" stop-color="#8446ff"/></linearGradient><linearGradient x1="240.00747" y1="168.48291" x2="240.00747" y2="180.09364" gradientUnits="userSpaceOnUse" id="color-2"><stop offset="0" stop-color="#b48fff"/><stop offset="1" stop-color="#9966ff"/></linearGradient></defs><g transform="translate(-225.86836,-167.42243)"><g data-paper-data="{&quot;isPaintingLayer&quot;:true}" fill-rule="nonzero" stroke-linecap="butt" stroke-linejoin="miter" stroke-miterlimit="10" stroke-dasharray="" stroke-dashoffset="0" style="mix-blend-mode: normal"><path d="M227.3701,191.07379c3.65836,-7.87806 3.69146,-14.17907 0.06498,-22.07187c-0.20787,-0.45241 0.27049,-0.64048 0.72524,-0.43778c2.48739,1.10875 18.44324,8.22103 23.81217,10.61422c0.84118,0.37496 0.89303,1.1709 0.05185,1.54585c-5.38781,2.40161 -21.80419,9.71917 -24.09618,10.74082c-0.52253,0.23292 -0.55806,-0.39124 -0.55806,-0.39124z" fill="none" stroke="#f800ff" stroke-width="2.5"/><path d="M227.3701,191.07378c3.65836,-7.87806 3.69146,-14.17907 0.06498,-22.07187c-0.20787,-0.45241 0.27049,-0.64048 0.72524,-0.43778c2.48739,1.10875 18.44324,8.22103 23.81217,10.61422c0.84118,0.37496 0.89303,1.1709 0.05185,1.54585c-5.38781,2.40161 -21.80419,9.71917 -24.09618,10.74082c-0.52253,0.23292 -0.55806,-0.39124 -0.55806,-0.39124z" fill="url(#color-1)" stroke="#000000" stroke-width="0"/><path d="M230.17084,180.84614c-0.10386,-5.69355 -0.76049,-7.5452 -2.73578,-11.84423c-0.20786,-0.45241 0.2705,-0.64048 0.72524,-0.43778c2.4874,1.10874 18.44324,8.22103 23.81217,10.61422c0.43316,0.19308 0.65702,0.49779 0.65741,0.79916z" fill="url(#color-2)" stroke="#000000" stroke-width="0"/><path d="M227.3701,191.07379c3.65836,-7.87806 3.69146,-14.17907 0.06498,-22.07187c-0.20787,-0.45241 0.27049,-0.64048 0.72524,-0.43778c2.48739,1.10875 18.44324,8.22103 23.81217,10.61422c0.84118,0.37496 0.89303,1.1709 0.05185,1.54585c-5.38781,2.40161 -21.80419,9.71917 -24.09618,10.74082c-0.52253,0.23292 -0.55806,-0.39124 -0.55806,-0.39124z" fill="none" stroke="#000000" stroke-width="0.5"/></g></g></svg>