<svg version="1.1" xmlns="http://www.w3.org/2000/svg" xmlns:xlink="http://www.w3.org/1999/xlink" width="550.00001" height="423.96665" viewBox="0,0,550.00001,423.96665"><defs><linearGradient x1="240.33336" y1="231" x2="240.33336" y2="380" gradientUnits="userSpaceOnUse" id="color-1"><stop offset="0" stop-color="#411794"/><stop offset="1" stop-color="#756192"/></linearGradient><linearGradient x1="238.33338" y1="43" x2="238.33338" y2="192" gradientUnits="userSpaceOnUse" id="color-2"><stop offset="0" stop-color="#411794"/><stop offset="1" stop-color="#756192"/></linearGradient><linearGradient x1="238.33336" y1="231" x2="238.33336" y2="380" gradientUnits="userSpaceOnUse" id="color-3"><stop offset="0" stop-color="#411794"/><stop offset="1" stop-color="#756192"/></linearGradient></defs><g transform="translate(38.16665,27.99999)"><g data-paper-data="{&quot;isPaintingLayer&quot;:true}" fill-rule="nonzero" stroke="none" stroke-linecap="butt" stroke-linejoin="miter" stroke-miterlimit="10" stroke-dasharray="" stroke-dashoffset="0" style="mix-blend-mode: normal"><path d="M363.32512,364.73684c0,0 -3.8602,-20.34414 -1.0818,-23.09097c13.91778,-13.75963 127.09007,-125.64587 127.09007,-125.64587v149z" data-paper-data="{&quot;index&quot;:null}" fill="#8f5ce6" stroke-width="0"/><path d="M-10.66664,365v-149c0,0 49.1057,48.54769 58.62533,57.95913c3.93943,3.89467 8.93295,3.54368 13.12499,-0.07769c7.54141,-6.51477 36.79224,-31.78357 49.44865,-42.71702c3.63393,-3.13923 7.7464,-3.30437 11.20718,0.02478c7.76226,7.46703 45.08771,43.37284 61.4196,59.08357c4.13405,3.97682 8.9037,6.17241 12.97803,2.13443c13.37121,-13.25188 48.39354,-47.94148 62.15757,-61.37937c2.98845,-2.91764 9.67621,-1.58164 9.67621,-1.58164l134.36243,135.55381z" fill="#8f5ce6" stroke-width="0"/><path d="M491.68171,57.44914l-111.91816,112.04297c0,0 -6.47895,2.47664 -9.41759,-0.43689c-17.97412,-17.8205 -87.09799,-77.21721 -104.42421,-92.06668c-2.85282,-2.44502 -5.88398,-1.5218 -8.584,1.09098c-14.43366,13.96724 -58.10836,56.23062 -65.56661,63.44786c-3.1577,3.05566 -6.97936,0.81468 -10.11087,-2.26781c-8.63621,-8.50101 -49.11196,-48.34313 -62.74316,-61.76093c-2.77606,-2.7326 -6.0539,-2.89011 -8.83226,-0.15985c-11.2265,11.03212 -40.79827,40.09189 -47.16126,46.34471c-3.43959,3.38004 -7.75141,1.38444 -11.18078,-2.00597c-10.40695,-10.28869 -64.40943,-63.67751 -64.40943,-63.67751v-71l502.08333,-0.00001z" fill="#8f5ce6" stroke-width="0"/><path d="M-38.16665,385.46666c0,-1.38071 1.11929,-2.5 2.5,-2.5c1.38071,0 2.5,1.11929 2.5,2.5c0,1.38071 -1.11929,2.5 -2.5,2.5c-1.38071,0 -2.5,-1.11929 -2.5,-2.5z" fill="#000000" stroke-width="0.5"/><path d="M506.83336,393.46666c0,-1.38071 1.11929,-2.5 2.5,-2.5c1.38071,0 2.5,1.11929 2.5,2.5c0,1.38071 -1.11929,2.5 -2.5,2.5c-1.38071,0 -2.5,-1.11929 -2.5,-2.5z" fill="#000000" stroke-width="0.5"/><path d="M-10.66664,380v-149c0,0 49.1057,48.54769 58.62533,57.95913c3.93943,3.89467 8.93295,3.54368 13.12499,-0.07769c7.54141,-6.51477 36.79224,-31.78357 49.44865,-42.71702c3.63393,-3.13923 7.7464,-3.30437 11.20718,0.02478c7.76226,7.46703 45.08771,43.37284 61.4196,59.08357c4.13405,3.97682 8.9037,6.17241 12.97803,2.13443c13.37121,-13.25188 48.39354,-47.94148 62.15757,-61.37937c2.98845,-2.91764 9.67621,-1.58164 9.67621,-1.58164l134.36243,135.55381z" fill="url(#color-1)" stroke-width="0"/><path d="M491.68171,42.44914l-111.91816,112.04297c0,0 -6.47895,2.47664 -9.41759,-0.43689c-17.97412,-17.8205 -87.09799,-77.21721 -104.42421,-92.06668c-2.85282,-2.44502 -5.88398,-1.5218 -8.584,1.09098c-14.43366,13.96724 -58.10836,56.23062 -65.56661,63.44786c-3.1577,3.05566 -6.97936,0.81468 -10.11087,-2.26781c-8.63621,-8.50101 -49.11196,-48.34313 -62.74316,-61.76093c-2.77606,-2.7326 -6.0539,-2.89011 -8.83226,-0.15985c-11.2265,11.03212 -40.79827,40.09189 -47.16126,46.34471c-3.43959,3.38004 -7.75141,1.38444 -11.18078,-2.00597c-10.40695,-10.28869 -64.40943,-63.67751 -64.40943,-63.67751v-71l502.08333,-0.00001z" fill="url(#color-2)" stroke-width="0"/><path d="M363.32511,379.73684c0,0 -3.8602,-20.34414 -1.0818,-23.09097c13.91778,-13.75963 127.09007,-125.64587 127.09007,-125.64587v149z" data-paper-data="{&quot;index&quot;:null}" fill="url(#color-3)" stroke-width="0"/></g></g></svg>