<svg version="1.1" xmlns="http://www.w3.org/2000/svg" xmlns:xlink="http://www.w3.org/1999/xlink" width="51.5165" height="28.8" viewBox="0,0,51.5165,28.8"><defs><radialGradient cx="240" cy="180" r="14.4" gradientUnits="userSpaceOnUse" id="color-1"><stop offset="0" stop-color="#e3c0f0"/><stop offset="1" stop-color="#e3c0f0" stop-opacity="0"/></radialGradient><linearGradient x1="238.90784" y1="180.06771" x2="277.1165" y2="180.06771" gradientUnits="userSpaceOnUse" id="color-2"><stop offset="0" stop-color="#e3cbff"/><stop offset="1" stop-color="#e3cbff" stop-opacity="0"/></linearGradient></defs><g transform="translate(-225.6,-165.6)"><g data-paper-data="{&quot;isPaintingLayer&quot;:true}" fill-rule="nonzero" stroke-width="0" stroke-linejoin="miter" stroke-miterlimit="10" stroke-dasharray="" stroke-dashoffset="0" style="mix-blend-mode: normal"><path d="M225.6,180c0,-7.9529 6.4471,-14.4 14.4,-14.4c7.9529,0 14.4,6.4471 14.4,14.4c0,7.9529 -6.4471,14.4 -14.4,14.4c-7.9529,0 -14.4,-6.4471 -14.4,-14.4z" fill="url(#color-1)" stroke="none" stroke-linecap="butt"/><path d="M238.90784,174.88605l38.20866,5.5443l-38.10563,4.81903z" fill="url(#color-2)" stroke="#000000" stroke-linecap="round"/><path d="M243.95258,179.84523c0.80982,3.86541 -1.7293,8.85209 -5.01394,7.82395c-3.28355,-1.0278 -6.54322,-4.84816 -7.35304,-8.71356c-0.80982,-3.86541 1.37069,-6.94211 4.80729,-6.75318c3.4366,0.18892 6.74987,3.77739 7.55969,7.6428z" data-paper-data="{&quot;origPos&quot;:null,&quot;origRot&quot;:0}" fill="#ffffff" stroke="none" stroke-linecap="butt"/><path d="M243.85171,172.33182c3.4417,-0.02461 5.47281,3.15271 4.47934,6.97503c-0.99347,3.82233 -5.447,8.14997 -8.60371,8.49497c-1.20349,-0.13979 -1.87737,-0.51633 -2.67421,-1.42899c-0.4522,-0.51794 -0.68618,-0.83282 -1.00563,-1.44169c-0.95835,-1.82657 -0.80859,-2.8405 -0.24097,-5.02444c0.99347,-3.82232 4.60346,-7.55026 8.04517,-7.57488z" data-paper-data="{&quot;origPos&quot;:null,&quot;origRot&quot;:0,&quot;index&quot;:null}" fill="#ffffff" stroke="none" stroke-linecap="butt"/></g></g></svg>