<svg version="1.1" xmlns="http://www.w3.org/2000/svg" xmlns:xlink="http://www.w3.org/1999/xlink" width="32.6441" height="32.19158" viewBox="0,0,32.6441,32.19158"><defs><linearGradient x1="-2107.5187" y1="-3121.47413" x2="-2107.5187" y2="3765.51132" gradientUnits="userSpaceOnUse" id="color-1"><stop offset="0" stop-color="#ffffff"/><stop offset="1" stop-color="#ffffff" stop-opacity="0"/></linearGradient></defs><g transform="translate(-396.88259,-7.57354)"><g data-paper-data="{&quot;isPaintingLayer&quot;:true}" fill-rule="nonzero" stroke-linejoin="miter" stroke-miterlimit="10" stroke-dasharray="" stroke-dashoffset="0" style="mix-blend-mode: normal"><path d="M396.91081,32.77219c0,-21.76999 0,-6.87086 0,-18.61963c0,-4.10229 2.73323,-6.57902 6.83551,-6.57902c15.87024,0 -8.84603,0 19.20904,0c3.75405,0 6.57134,2.29663 6.57134,6.05068c0,11.02814 0,-2.826 0,19.14799c0,4.28523 -2.55029,6.99291 -6.83551,6.99291c-15.67766,0 -14.55591,0 -18.15234,0c-8.53972,0 -7.62803,-6.99291 -7.62803,-6.99291z" fill="url(#color-1)" stroke="none" stroke-width="0" stroke-linecap="butt"/><path d="M404.39215,27.83392c0,-3.3751 0,-7.53713 0,-9.375c0,-2.63631 2.11369,-4.125 4.75,-4.125c1.98269,0 6.34269,0 9.625,0c2.72165,0 4.125,2.15334 4.125,4.875c0,1.87637 0,5.83193 0,9c0,3.13087 -2.61914,4.625 -5.75,4.625c-1.67546,0 -4.77605,0 -7.5,0c-5.45297,0 -5.25,-5 -5.25,-5z" fill="none" stroke="#000000" stroke-width="1" stroke-linecap="butt"/><path d="M404.76715,21.45892h17.625" fill="none" stroke="#000000" stroke-width="1" stroke-linecap="round"/><path d="M412.90013,28.58628c0.40613,-0.2626 1.97084,-1.27431 2.66509,-1.72321c0.20606,-0.13323 0.11847,-0.35671 -0.08758,-0.48994c-0.69306,-0.44812 -2.0356,-1.31619 -2.45047,-1.58444c-0.23823,-0.15404 -0.51002,-0.00811 -0.51002,0.27559c0,0.52657 0,2.30387 0,3.21739c0,0.33378 0.38298,0.30461 0.38298,0.30461z" fill="none" stroke="#000000" stroke-width="1" stroke-linecap="round"/><path d="M410.02845,14.56427l-5.55,5.55" fill="none" stroke="#000000" stroke-width="1" stroke-linecap="round"/><path d="M414.42845,14.71427l-6.625,6.625" fill="none" stroke="#000000" stroke-width="1" stroke-linecap="round"/><path d="M419.12845,14.91427l-6.25,6.25" fill="none" stroke="#000000" stroke-width="1" stroke-linecap="round"/><path d="M422.50345,16.98927l-4.3,4.3" fill="none" stroke="#000000" stroke-width="1" stroke-linecap="round"/></g></g></svg>