<svg version="1.1" xmlns="http://www.w3.org/2000/svg" xmlns:xlink="http://www.w3.org/1999/xlink" width="29.17214" height="24.11751" viewBox="0,0,29.17214,24.11751"><defs><linearGradient x1="234.71736" y1="170.40246" x2="234.71736" y2="190.31791" gradientUnits="userSpaceOnUse" id="color-1"><stop offset="0" stop-color="#6141a2"/><stop offset="1" stop-color="#562da7"/></linearGradient><linearGradient x1="239.74573" y1="167.94126" x2="239.74573" y2="192.05876" gradientUnits="userSpaceOnUse" id="color-2"><stop offset="0" stop-color="#9966ff"/><stop offset="1" stop-color="#8446ff"/></linearGradient><linearGradient x1="239.75354" y1="167.94125" x2="239.75354" y2="180.09805" gradientUnits="userSpaceOnUse" id="color-3"><stop offset="0" stop-color="#b48fff"/><stop offset="1" stop-color="#9966ff"/></linearGradient><linearGradient x1="238.55295" y1="171.22086" x2="238.55295" y2="178.73937" gradientUnits="userSpaceOnUse" id="color-4"><stop offset="0" stop-color="#9966ff"/><stop offset="1" stop-color="#8446ff"/></linearGradient><linearGradient x1="238.79307" y1="188.88431" x2="238.79307" y2="181.36581" gradientUnits="userSpaceOnUse" id="color-5"><stop offset="0" stop-color="#b48fff"/><stop offset="1" stop-color="#9966ff"/></linearGradient></defs><g transform="translate(-223.79749,-167.94124)"><g data-paper-data="{&quot;isPaintingLayer&quot;:true}" fill-rule="nonzero" stroke="none" stroke-linecap="butt" stroke-linejoin="miter" stroke-miterlimit="10" stroke-dasharray="" stroke-dashoffset="0" style="mix-blend-mode: normal"><path d="M223.79749,189.93462c0.51377,-1.10636 3.14602,-6.77482 4.09446,-8.81724c0.24966,-0.53762 0.24938,-0.93441 0.0019,-1.47303c-0.93209,-2.02862 -3.49877,-7.61482 -4.04018,-8.79317c-0.17972,-0.39115 0.23387,-0.55376 0.62705,-0.37851c2.15061,0.95863 15.94612,7.10794 20.58812,9.1771c0.72729,0.32419 0.77212,1.01236 0.04483,1.33655c-4.65832,2.07644 -18.85201,8.40324 -20.83367,9.28656c-0.45178,0.20138 -0.4825,-0.33826 -0.4825,-0.33826z" fill="url(#color-1)" stroke-width="NaN"/><path d="M226.52182,191.5946c0.62217,-1.3398 3.80981,-8.20427 4.95836,-10.67763c0.30233,-0.65105 0.302,-1.13156 0.00231,-1.78383c-1.12875,-2.45665 -4.23699,-9.22151 -4.89263,-10.64848c-0.21765,-0.47368 0.28321,-0.6706 0.75935,-0.45837c2.60437,1.1609 19.31066,8.60768 24.93209,11.11342c0.88075,0.39259 0.93503,1.22597 0.05429,1.61856c-5.6412,2.51456 -22.82968,10.17627 -25.22946,11.24598c-0.54711,0.24387 -0.5843,-0.40964 -0.5843,-0.40964z" fill="url(#color-2)" stroke-width="NaN"/><path d="M231.70539,180.09805c0.01423,-0.30753 -0.06026,-0.61093 -0.2229,-0.96492c-1.12875,-2.45665 -4.23699,-9.22151 -4.89264,-10.64848c-0.21764,-0.47368 0.28322,-0.6706 0.75935,-0.45837c2.60438,1.16089 19.31066,8.60768 24.93209,11.11342c0.45353,0.20216 0.68792,0.5212 0.68833,0.83674z" fill="url(#color-3)" stroke-width="NaN"/><path d="M233.57549,178.73937c0.0088,-0.19019 -0.03727,-0.37784 -0.13786,-0.59676c-0.69809,-1.51934 -2.62041,-5.70314 -3.02591,-6.58566c-0.1346,-0.29296 0.17516,-0.41474 0.46963,-0.28348c1.61071,0.71796 11.94288,5.32351 15.41952,6.87321c0.28049,0.12503 0.42545,0.32234 0.42571,0.51749z" fill="url(#color-4)" stroke-width="NaN"/><path d="M246.96669,181.44102c-0.00026,0.19515 -0.14521,0.39247 -0.4257,0.51749c-3.47664,1.5497 -13.8088,6.15525 -15.41951,6.87321c-0.29447,0.13126 -0.60423,0.00947 -0.46963,-0.28348c0.40549,-0.88252 2.32782,-5.06632 3.02591,-6.58566c0.10059,-0.21893 0.14665,-0.40657 0.13786,-0.59677z" data-paper-data="{&quot;index&quot;:null}" fill="url(#color-5)" stroke-width="NaN"/></g></g></svg>