<svg version="1.1" xmlns="http://www.w3.org/2000/svg" xmlns:xlink="http://www.w3.org/1999/xlink" width="136.82958" height="39.56493" viewBox="0,0,136.82958,39.56493"><defs><linearGradient x1="-2809.72977" y1="-3708.08553" x2="-2809.72977" y2="4756.33391" gradientUnits="userSpaceOnUse" id="color-1"><stop offset="0" stop-color="#ffffff"/><stop offset="1" stop-color="#ffffff" stop-opacity="0"/></linearGradient><linearGradient x1="-2809.72977" y1="-3708.08554" x2="-2809.72977" y2="4756.3339" gradientUnits="userSpaceOnUse" id="color-2"><stop offset="0" stop-color="#ffffff"/><stop offset="1" stop-color="#ffffff" stop-opacity="0"/></linearGradient></defs><g transform="translate(-171.58521,-137.65684)"><g data-paper-data="{&quot;isPaintingLayer&quot;:true}" fill-rule="nonzero" stroke-linecap="butt" stroke-linejoin="miter" stroke-miterlimit="10" stroke-dasharray="" stroke-dashoffset="0" style="mix-blend-mode: normal"><path d="M171.6199,168.62715c0,-26.75631 0,-8.44459 0,-22.88438c0,-5.0419 3.35926,-8.08592 8.40115,-8.08592c19.50525,0 85.83631,0 120.31727,0c4.6139,0 8.07647,2.82267 8.07647,7.43657c0,13.55409 0,-3.47328 0,23.53375c0,5.26673 -3.13442,8.59461 -8.40115,8.59461c-19.26856,0 -82.60118,0 -119.01854,0c-10.49571,0 -9.3752,-8.59461 -9.3752,-8.59461z" fill="url(#color-1)" stroke="none" stroke-width="0"/><path d="M171.6199,168.62714c0,-26.75631 0,-8.44459 0,-22.88438c0,-5.0419 3.35926,-8.08592 8.40115,-8.08592c19.50525,0 85.83631,0 120.31727,0c4.6139,0 8.07647,2.82267 8.07647,7.43657c0,13.55409 0,-3.47328 0,23.53375c0,5.26673 -3.13442,8.59461 -8.40115,8.59461c-19.26856,0 -82.60118,0 -119.01854,0c-10.49571,0 -9.3752,-8.59461 -9.3752,-8.59461z" fill="url(#color-2)" stroke="none" stroke-width="0"/><text transform="translate(224.37471,162.43375) scale(0.35731,0.35731)" font-size="40" xml:space="preserve" fill="#000000" fill-rule="nonzero" stroke="#000000" stroke-width="2" stroke-linecap="butt" stroke-linejoin="miter" stroke-miterlimit="10" stroke-dasharray="" stroke-dashoffset="0" font-family="Sans Serif" font-weight="normal" text-anchor="start" style="mix-blend-mode: normal"><tspan x="0" dy="0">Play</tspan></text></g></g></svg>