<svg version="1.1" xmlns="http://www.w3.org/2000/svg" xmlns:xlink="http://www.w3.org/1999/xlink" width="16.84086" height="24.62502" viewBox="0,0,16.84086,24.62502"><g transform="translate(-233.71253,-161.59587)"><g data-paper-data="{&quot;isPaintingLayer&quot;:true}" fill="#ffffff" fill-rule="nonzero" stroke="#ffffff" stroke-width="2.5" stroke-linecap="square" stroke-linejoin="miter" stroke-miterlimit="10" stroke-dasharray="" stroke-dashoffset="0" style="mix-blend-mode: normal"><path d="M236.93127,171.28338c0,-1.59375 0.39063,-3.02083 1.17188,-4.28125c0.79167,-1.27083 1.85417,-2.28125 3.1875,-3.03125c1.33333,-0.75 2.79688,-1.125 4.39063,-1.125c1.60417,0 2.79688,0.26042 3.57813,0.78125c0.79167,0.52083 1.09375,1.14063 0.90625,1.85938c-0.07292,0.375 -0.22396,0.66667 -0.45312,0.875c-0.22917,0.19792 -0.48958,0.32292 -0.78125,0.375c-0.29167,0.05208 -0.61458,0.03646 -0.96875,-0.04687c-1.69792,-0.34375 -3.22917,-0.36979 -4.59375,-0.07812c-1.36458,0.29167 -2.44271,0.83854 -3.23437,1.64063c-0.78125,0.80208 -1.17187,1.8125 -1.17187,3.03125zM236.96252,184.97088c-0.63542,0 -1.13021,-0.16667 -1.48437,-0.5c-0.34375,-0.33333 -0.51562,-0.83333 -0.51562,-1.5v-17.875c0,-0.64583 0.17188,-1.14062 0.51563,-1.48437c0.35417,-0.34375 0.84896,-0.51562 1.48438,-0.51562c0.66667,0 1.16667,0.16667 1.5,0.5c0.33333,0.33333 0.5,0.83333 0.5,1.5v17.875c0,0.63542 -0.16667,1.13021 -0.5,1.48438c-0.33333,0.34375 -0.83333,0.51563 -1.5,0.51563z"/></g></g></svg>