<svg version="1.1" xmlns="http://www.w3.org/2000/svg" xmlns:xlink="http://www.w3.org/1999/xlink" width="24.54689" height="33.90628" viewBox="0,0,24.54689,33.90628"><g transform="translate(-229.05989,-158.04685)"><g data-paper-data="{&quot;isPaintingLayer&quot;:true}" fill="#ffffff" fill-rule="nonzero" stroke="#ffffff" stroke-width="2.5" stroke-linecap="square" stroke-linejoin="miter" stroke-miterlimit="10" stroke-dasharray="" stroke-dashoffset="0" style="mix-blend-mode: normal"><path d="M232.35676,190.70309c-0.58333,0 -1.07292,-0.19271 -1.46875,-0.57812c-0.38542,-0.38542 -0.57812,-0.875 -0.57812,-1.46875v-18.23437c0.03125,-2.10417 0.52604,-3.99479 1.48438,-5.67187c0.95833,-1.6875 2.26563,-3.01562 3.92188,-3.98437c1.65625,-0.97917 3.52083,-1.46875 5.59375,-1.46875c2.11458,0 3.99479,0.48958 5.64063,1.46875c1.65625,0.96875 2.96875,2.29688 3.9375,3.98438c0.97917,1.67708 1.46875,3.56771 1.46875,5.67188c0,2.10417 -0.44792,3.98958 -1.34375,5.65625c-0.89583,1.66667 -2.11979,2.98958 -3.67187,3.96875c-1.54167,0.96875 -3.28125,1.45313 -5.21875,1.45313c-1.57292,0 -3.02083,-0.32292 -4.34375,-0.96875c-1.32292,-0.65625 -2.44792,-1.54687 -3.375,-2.67187v10.79688c0,0.59375 -0.1875,1.08333 -0.5625,1.46875c-0.375,0.38542 -0.86979,0.57813 -1.48437,0.57813zM241.30989,177.90622c1.36458,0 2.57813,-0.32812 3.64063,-0.98437c1.07292,-0.65625 1.92188,-1.54687 2.54688,-2.67187c0.625,-1.13542 0.9375,-2.41146 0.9375,-3.82812c0,-1.4375 -0.3125,-2.72396 -0.9375,-3.85937c-0.625,-1.13542 -1.47396,-2.02604 -2.54687,-2.67187c-1.0625,-0.65625 -2.27604,-0.98437 -3.64062,-0.98437c-1.33333,0 -2.54167,0.32813 -3.625,0.98438c-1.07292,0.64583 -1.91667,1.53646 -2.53125,2.67188c-0.61458,1.13542 -0.92187,2.42188 -0.92187,3.85938c0,1.41667 0.30729,2.69271 0.92188,3.82813c0.61458,1.125 1.45833,2.01563 2.53125,2.67188c1.08333,0.65625 2.29167,0.98438 3.625,0.98438z"/></g></g></svg>