<svg version="1.1" xmlns="http://www.w3.org/2000/svg" xmlns:xlink="http://www.w3.org/1999/xlink" width="73.75966" height="27.17955" viewBox="0,0,73.75966,27.17955"><defs><linearGradient x1="229.03497" y1="169.88268" x2="229.03497" y2="181.22509" gradientUnits="userSpaceOnUse" id="color-1"><stop offset="0" stop-color="#a99fff"/><stop offset="1" stop-color="#9069de"/></linearGradient><linearGradient x1="229.03497" y1="169.88268" x2="229.03497" y2="181.22509" gradientUnits="userSpaceOnUse" id="color-2"><stop offset="0" stop-color="#beb7ff"/><stop offset="1" stop-color="#7051ac"/></linearGradient><linearGradient x1="229.03497" y1="172.46647" x2="229.03497" y2="178.64129" gradientUnits="userSpaceOnUse" id="color-3"><stop offset="0" stop-color="#e4e0ff"/><stop offset="1" stop-color="#a99fff"/></linearGradient><linearGradient x1="229.03497" y1="172.46647" x2="229.03497" y2="178.64129" gradientUnits="userSpaceOnUse" id="color-4"><stop offset="0" stop-color="#baafff"/><stop offset="1" stop-color="#7060ff"/></linearGradient></defs><g transform="translate(-202.78634,-163.59759)"><g data-paper-data="{&quot;isPaintingLayer&quot;:true}" fill-rule="nonzero" stroke-linejoin="miter" stroke-miterlimit="10" stroke-dasharray="" stroke-dashoffset="0" style="mix-blend-mode: normal"><path d="M276.546,163.59759c0,0 0,7.32802 0,11.60033c0,9.54686 -5.68168,15.57922 -15.22854,15.57922c-34.92759,0 24.53866,0 -41.47408,0c-19.02528,0 -16.99416,-15.57922 -16.99416,-15.57922v-11.60033z" fill="#ffffff" stroke="none" stroke-width="0" stroke-linecap="butt"/><g stroke="none" stroke-width="0" stroke-linecap="butt"><path d="M224.87994,178.64668l-0.06982,-5.79607l2.72346,-2.93293l3.01356,-0.03497l2.64287,2.89808l0.06984,5.8659l-2.82014,2.57843l-2.83626,-0.06445z" fill="url(#color-1)"/><path d="M224.81012,172.85061l2.72346,-2.93293l3.01356,-0.03497l2.64287,2.89808l0.06984,5.8659z" fill="url(#color-2)"/><path d="M226.77296,177.2376l-0.03801,-3.15539l1.48266,-1.59672l1.64058,-0.01902l1.43876,1.57772l0.03803,3.19341l-1.53528,1.40369l-1.54407,-0.0351z" fill="url(#color-3)"/><path d="M226.77296,177.2376l4.52399,-3.19341l0.03803,3.19341l-1.53528,1.40369l-1.54407,-0.0351z" fill="url(#color-4)"/></g><text transform="translate(237.68324,180.35705) scale(0.31774,0.31774)" font-size="40" xml:space="preserve" fill="#000000" fill-rule="nonzero" stroke="#000000" stroke-width="2" stroke-linecap="butt" stroke-linejoin="miter" stroke-miterlimit="10" stroke-dasharray="" stroke-dashoffset="0" font-family="Sans Serif" font-weight="normal" text-anchor="start" style="mix-blend-mode: normal"><tspan x="0" dy="0">10</tspan></text><path d="M276.546,163.59759c0,0 0,7.32802 0,11.60033c0,9.54686 -5.68168,15.57922 -15.22854,15.57922c-34.92759,0 24.53866,0 -41.47408,0c-19.02528,0 -16.99416,-15.57922 -16.99416,-15.57922v-11.60033z" fill="#ffffff" stroke="none" stroke-width="0" stroke-linecap="butt"/><g><text transform="translate(214.69777,179.6537) scale(0.17133,0.17133)" font-size="40" xml:space="preserve" fill="#000000" fill-rule="nonzero" stroke="#000000" stroke-width="2" stroke-linecap="butt" stroke-linejoin="miter" stroke-miterlimit="10" stroke-dasharray="" stroke-dashoffset="0" font-family="Sans Serif" font-weight="normal" text-anchor="start" style="mix-blend-mode: normal"><tspan x="0" dy="0">Unlocked</tspan></text><g fill="#000000" stroke="#000000" stroke-width="0" stroke-linecap="butt"><path d="M251.80357,176.91068c0,-3.7082 3.00608,-6.71429 6.71428,-6.71429c3.7082,0 6.71429,3.00609 6.71429,6.71429c0,3.7082 -3.00609,6.71428 -6.71429,6.71428c-3.7082,0 -6.71428,-3.00608 -6.71428,-6.71428z"/></g><path d="M256.5625,177.625l-0.75,-0.75l1.8125,1.8125l3.4375,-3.4375l-0.75,0.75" fill="none" stroke="#ffffff" stroke-width="1.5" stroke-linecap="round"/></g></g></g></svg>