<svg version="1.1" xmlns="http://www.w3.org/2000/svg" xmlns:xlink="http://www.w3.org/1999/xlink" width="50.20798" height="45.78418" viewBox="0,0,50.20798,45.78418"><defs><linearGradient x1="240" y1="157.10795" x2="240" y2="202.89209" gradientUnits="userSpaceOnUse" id="color-1"><stop offset="0" stop-color="#9966ff"/><stop offset="1" stop-color="#8446ff"/></linearGradient><linearGradient x1="240.01484" y1="157.10791" x2="240.01484" y2="180.18614" gradientUnits="userSpaceOnUse" id="color-2"><stop offset="0" stop-color="#b48fff"/><stop offset="1" stop-color="#9966ff"/></linearGradient></defs><g transform="translate(-214.89601,-157.10792)"><g data-paper-data="{&quot;isPaintingLayer&quot;:true}" fill-rule="nonzero" stroke="none" stroke-linecap="butt" stroke-linejoin="miter" stroke-miterlimit="10" stroke-dasharray="" stroke-dashoffset="0" style="mix-blend-mode: normal"><path d="M214.89601,202.01095c1.18112,-2.54344 7.23246,-15.5748 9.41286,-20.27018c0.57394,-1.23594 0.57331,-2.14814 0.00437,-3.38639c-2.1428,-4.66365 -8.04341,-17.50593 -9.28807,-20.21486c-0.41318,-0.89924 0.53764,-1.27305 1.44153,-0.87015c4.94409,2.20383 36.65895,16.34064 47.33057,21.09749c1.67199,0.74528 1.77505,2.32735 0.10306,3.07264c-10.70914,4.77358 -43.33939,19.31843 -47.89508,21.34913c-1.03862,0.46297 -1.10923,-0.77764 -1.10923,-0.77764z" fill="url(#color-1)" stroke-width="NaN"/><path d="M224.73639,180.18614c0.02701,-0.5838 -0.11439,-1.15978 -0.42315,-1.83178c-2.1428,-4.66365 -8.04341,-17.50593 -9.28809,-20.21486c-0.41315,-0.89924 0.53767,-1.27305 1.44153,-0.87015c4.94411,2.20381 36.65895,16.34064 47.33057,21.09749c0.86098,0.38378 1.30592,0.98944 1.30671,1.58845z" fill="url(#color-2)" stroke-width="NaN"/></g></g></svg>