<svg version="1.1" xmlns="http://www.w3.org/2000/svg" xmlns:xlink="http://www.w3.org/1999/xlink" width="73.75966" height="27.17955" viewBox="0,0,73.75966,27.17955"><g transform="translate(-97.02625,-297.79735)"><g data-paper-data="{&quot;isPaintingLayer&quot;:true}" fill-rule="nonzero" stroke-linejoin="miter" stroke-miterlimit="10" stroke-dasharray="" stroke-dashoffset="0" style="mix-blend-mode: normal"><path d="M170.78591,297.79735c0,0 0,7.32802 0,11.60033c0,9.54686 -5.68168,15.57922 -15.22854,15.57922c-34.92759,0 24.53866,0 -41.47408,0c-19.02528,0 -16.99416,-15.57922 -16.99416,-15.57922v-11.60033z" fill="#ffffff" stroke="none" stroke-width="0" stroke-linecap="butt"/><g><text transform="translate(108.69777,313.82037) scale(0.17133,0.17133)" font-size="40" xml:space="preserve" fill="#000000" fill-rule="nonzero" stroke="#000000" stroke-width="2" stroke-linecap="butt" stroke-linejoin="miter" stroke-miterlimit="10" stroke-dasharray="" stroke-dashoffset="0" font-family="Sans Serif" font-weight="normal" text-anchor="start" style="mix-blend-mode: normal"><tspan x="0" dy="0">Unlocked</tspan></text><g fill="#000000" stroke="#000000" stroke-width="0" stroke-linecap="butt"><path d="M145.80357,311.07735c0,-3.7082 3.00608,-6.71429 6.71428,-6.71429c3.7082,0 6.71429,3.00609 6.71429,6.71429c0,3.7082 -3.00609,6.71428 -6.71429,6.71428c-3.7082,0 -6.71428,-3.00608 -6.71428,-6.71428z"/></g><path d="M154.3125,310.16667l0.75,-0.75l-3.4375,3.4375l-1.8125,-1.8125l0.75,0.75" fill="none" stroke="#ffffff" stroke-width="1.5" stroke-linecap="round"/></g></g></g></svg>