<svg version="1.1" xmlns="http://www.w3.org/2000/svg" xmlns:xlink="http://www.w3.org/1999/xlink" width="550" height="423.96666" viewBox="0,0,550,423.96666"><defs><linearGradient x1="238.33336" y1="231" x2="238.33336" y2="380" gradientUnits="userSpaceOnUse" id="color-1"><stop offset="0" stop-color="#411794"/><stop offset="1" stop-color="#756192"/></linearGradient><linearGradient x1="240.33335" y1="43" x2="240.33335" y2="192" gradientUnits="userSpaceOnUse" id="color-2"><stop offset="0" stop-color="#411794"/><stop offset="1" stop-color="#756192"/></linearGradient></defs><g transform="translate(38.16667,28)"><g data-paper-data="{&quot;isPaintingLayer&quot;:true}" fill-rule="nonzero" stroke="none" stroke-linecap="butt" stroke-linejoin="miter" stroke-miterlimit="10" stroke-dasharray="" stroke-dashoffset="0" style="mix-blend-mode: normal"><path d="M-12.66666,365v-149c0,0 97.34076,99.04849 109.56983,111.4921c2.90056,2.95144 6.47895,2.47664 9.41759,-0.43689c20.59927,-20.42321 98.43734,-97.596 108.38035,-107.45402c2.68947,-2.66649 5.97658,-1.40021 8.73768,1.19205c12.98378,12.1898 108.98826,102.32351 129.88629,121.9436c2.84838,2.6742 6.1398,1.65586 8.9182,-1.09097c13.91778,-13.75963 127.09007,-125.64587 127.09007,-125.64587v149z" data-paper-data="{&quot;index&quot;:null}" fill="#8f5ce6" stroke-width="0"/><path d="M491.33335,-13v71c0,0 -113.17229,111.88624 -127.09007,125.64587c-2.7784,2.74683 -6.06982,3.76517 -8.9182,1.09097c-20.89803,-19.62009 -116.90251,-109.7538 -129.88629,-121.9436c-2.7611,-2.59226 -6.04821,-3.85854 -8.73768,-1.19205c-9.94301,9.85802 -87.78108,87.03081 -108.38035,107.45402c-2.93864,2.91353 -6.51703,3.38833 -9.41759,0.43689c-12.22907,-12.44361 -109.56983,-111.4921 -109.56983,-111.4921v-71z" data-paper-data="{&quot;index&quot;:null}" fill="#8f5ce6" stroke-width="0"/><path d="M-38.16667,385.46666c0,-1.38071 1.11929,-2.5 2.5,-2.5c1.38071,0 2.5,1.11929 2.5,2.5c0,1.38071 -1.11929,2.5 -2.5,2.5c-1.38071,0 -2.5,-1.11929 -2.5,-2.5z" fill="#000000" stroke-width="0.5"/><path d="M506.83333,393.46666c0,-1.38071 1.11929,-2.5 2.5,-2.5c1.38071,0 2.5,1.11929 2.5,2.5c0,1.38071 -1.11929,2.5 -2.5,2.5c-1.38071,0 -2.5,-1.11929 -2.5,-2.5z" fill="#000000" stroke-width="0.5"/><path d="M-12.66665,380v-149c0,0 97.34076,99.04849 109.56983,111.4921c2.90056,2.95144 6.47895,2.47664 9.41759,-0.43689c20.59927,-20.42321 98.43734,-97.596 108.38035,-107.45402c2.68947,-2.66649 5.97658,-1.40021 8.73768,1.19205c12.98378,12.1898 108.98826,102.32351 129.88629,121.9436c2.84838,2.6742 6.1398,1.65586 8.9182,-1.09097c13.91778,-13.75963 127.09007,-125.64587 127.09007,-125.64587v149z" data-paper-data="{&quot;index&quot;:null}" fill="url(#color-1)" stroke-width="0"/><path d="M491.33336,-28v71c0,0 -113.17229,111.88624 -127.09007,125.64587c-2.7784,2.74683 -6.06982,3.76517 -8.9182,1.09097c-20.89803,-19.62009 -116.90251,-109.7538 -129.88629,-121.9436c-2.7611,-2.59226 -6.04821,-3.85854 -8.73768,-1.19205c-9.94301,9.85802 -87.78108,87.03081 -108.38035,107.45402c-2.93864,2.91353 -6.51703,3.38833 -9.41759,0.43689c-12.22907,-12.44361 -109.56983,-111.4921 -109.56983,-111.4921v-71z" data-paper-data="{&quot;index&quot;:null}" fill="url(#color-2)" stroke-width="0"/></g></g></svg>