<svg version="1.1" xmlns="http://www.w3.org/2000/svg" xmlns:xlink="http://www.w3.org/1999/xlink" width="73.75966" height="27.17955" viewBox="0,0,73.75966,27.17955"><defs><linearGradient x1="335.97043" y1="303.60523" x2="335.97043" y2="314.94763" gradientUnits="userSpaceOnUse" id="color-1"><stop offset="0" stop-color="#a99fff"/><stop offset="1" stop-color="#9069de"/></linearGradient><linearGradient x1="335.97043" y1="303.60523" x2="335.97043" y2="314.94763" gradientUnits="userSpaceOnUse" id="color-2"><stop offset="0" stop-color="#beb7ff"/><stop offset="1" stop-color="#7051ac"/></linearGradient><linearGradient x1="335.97043" y1="306.18903" x2="335.97043" y2="312.36385" gradientUnits="userSpaceOnUse" id="color-3"><stop offset="0" stop-color="#e4e0ff"/><stop offset="1" stop-color="#a99fff"/></linearGradient><linearGradient x1="335.97043" y1="306.18903" x2="335.97043" y2="312.36385" gradientUnits="userSpaceOnUse" id="color-4"><stop offset="0" stop-color="#baafff"/><stop offset="1" stop-color="#7060ff"/></linearGradient></defs><g transform="translate(-308.60904,-297.09759)"><g data-paper-data="{&quot;isPaintingLayer&quot;:true}" fill-rule="nonzero" stroke-linecap="butt" stroke-linejoin="miter" stroke-miterlimit="10" stroke-dasharray="" stroke-dashoffset="0" style="mix-blend-mode: normal"><path d="M382.3687,297.09759c0,0 0,7.32802 0,11.60033c0,9.54686 -5.68168,15.57922 -15.22854,15.57922c-34.92759,0 24.53866,0 -41.47408,0c-19.02528,0 -16.99416,-15.57922 -16.99416,-15.57922v-11.60033z" fill="#ffffff" stroke="none" stroke-width="0"/><g stroke="none" stroke-width="0"><path d="M331.81541,312.36922l-0.06982,-5.79607l2.72346,-2.93296l3.01356,-0.03497l2.64287,2.8981l0.06984,5.86589l-2.82014,2.57843l-2.83626,-0.06445z" fill="url(#color-1)"/><path d="M331.74558,306.57316l2.72346,-2.93296l3.01356,-0.03497l2.64287,2.8981l0.06984,5.86589z" fill="url(#color-2)"/><path d="M333.70842,310.96015l-0.03801,-3.15539l1.48266,-1.59672l1.64059,-0.01905l1.43876,1.57772l0.03801,3.19341l-1.53528,1.40369l-1.54407,-0.0351z" fill="url(#color-3)"/><path d="M333.70842,310.96015l4.524,-3.19341l0.03801,3.19341l-1.53528,1.40369l-1.54407,-0.0351z" fill="url(#color-4)"/></g><text transform="translate(344.6187,314.0796) scale(0.31774,0.31774)" font-size="40" xml:space="preserve" fill="#000000" fill-rule="nonzero" stroke="#000000" stroke-width="2" stroke-linecap="butt" stroke-linejoin="miter" stroke-miterlimit="10" stroke-dasharray="" stroke-dashoffset="0" font-family="Sans Serif" font-weight="normal" text-anchor="start" style="mix-blend-mode: normal"><tspan x="0" dy="0">45</tspan></text></g></g></svg>