<svg version="1.1" xmlns="http://www.w3.org/2000/svg" xmlns:xlink="http://www.w3.org/1999/xlink" width="227.51039" height="227.38692" viewBox="0,0,227.51039,227.38692"><defs><linearGradient x1="240" y1="100.25341" x2="240" y2="259.7466" gradientUnits="userSpaceOnUse" id="color-1"><stop offset="0" stop-color="#04d2ff"/><stop offset="1" stop-color="#2389ff"/></linearGradient><linearGradient x1="250.06199" y1="100.2534" x2="250.06199" y2="154.99923" gradientUnits="userSpaceOnUse" id="color-2"><stop offset="0" stop-color="#04d2ff"/><stop offset="1" stop-color="#1f00ff"/></linearGradient><linearGradient x1="179.12574" y1="231.55659" x2="290.07464" y2="231.55659" gradientUnits="userSpaceOnUse" id="color-3"><stop offset="0" stop-color="#09c5ff"/><stop offset="1" stop-color="#192eff"/></linearGradient></defs><g transform="translate(-126.24481,-66.30654)"><g data-paper-data="{&quot;isPaintingLayer&quot;:true}" fill-rule="nonzero" stroke-linejoin="miter" stroke-miterlimit="10" stroke-dasharray="" stroke-dashoffset="0" style="mix-blend-mode: normal"><path d="" fill="none" stroke="#ffffff" stroke-width="4.5" stroke-linecap="round"/><path d="M126.71412,223.96071c0,-37.04434 0,-57.87713 0,-94.92148c0,-35.3366 22.08363,-62.73268 57.42018,-62.73268c41.03372,0 64.11005,0 105.14378,0c39.11678,0 64.47712,29.45728 64.47712,68.57405c0,36.18948 0,55.81134 0,92.00082c0,36.18644 -20.25888,66.46627 -56.44527,66.46627c-37.89917,0 -59.2128,0 -97.11196,0c0,0 -33.04912,4.03444 -55.21542,-15.45818c-23.36036,-20.54269 -18.26842,-53.92872 -18.26842,-53.92872z" fill="#ffffff" stroke="#000000" stroke-width="0" stroke-linecap="butt"/><path d="M263.6139,216.35507c0,-5.4728 -1.9368,-9.73732 -5.81042,-12.79355c-3.87362,-3.05624 -10.67907,-6.2191 -20.41641,-9.48856c-9.73733,-3.26947 -17.69777,-6.43233 -23.88134,-9.48856c-20.11433,-9.87947 -30.1715,-23.45488 -30.1715,-40.7262c0,-8.60012 2.50541,-16.18742 7.51623,-22.7619c5.01082,-6.57447 12.10058,-11.6919 21.26932,-15.35229c9.16872,-3.66038 19.47466,-5.49059 30.9178,-5.49059c11.15883,0 21.1627,1.99012 30.01159,5.97035c8.84889,3.98023 15.72544,9.64848 20.62963,17.00479c3.24082,4.86123 5.41083,10.18028 6.51004,15.95712c0.92789,4.87653 -2.3155,9.25688 -7.27953,9.25688c-4.56305,0 -16.38441,0 -23.5051,0c-4.75999,0 -5.48265,-4.70536 -7.40289,-9.06084c-0.96091,-2.17957 -2.32466,-4.06349 -4.09121,-5.65177c-3.87362,-3.4827 -9.11542,-5.22404 -15.72544,-5.22404c-6.68108,0 -11.95843,1.47482 -15.83205,4.42444c-3.87362,2.94962 -5.81042,6.69886 -5.81042,11.24768c0,3.98023 2.13226,7.58729 6.39679,10.82123c4.26452,3.23393 11.76298,6.57447 22.49536,10.02163c10.73238,3.44716 19.54574,7.16084 26.44005,11.14107c16.7738,9.66625 25.16069,22.99288 25.16069,39.9799c0,13.5754 -5.11743,24.23671 -15.35229,31.98393c-10.23486,7.74721 -24.27225,11.62083 -42.11217,11.62083c-12.58034,0 -23.97018,-2.25664 -34.1695,-6.76993c-10.19931,-4.51329 -17.87546,-10.69686 -23.02843,-18.55068c-4.02716,-6.13795 -6.48067,-13.00303 -7.36051,-20.59526c-0.41535,-3.58407 1.94519,-6.53776 5.55325,-6.53776c4.01542,0 15.54179,0 23.5051,0c4.8871,0 7.82626,3.01907 8.86146,7.79527c0.96966,4.47386 2.86604,8.00568 5.68914,10.59547c4.30007,3.94468 11.28322,5.91703 20.94947,5.91703c6.18355,0 11.06999,-1.33266 14.6593,-3.99799c3.58931,-2.66533 5.38397,-6.41455 5.38397,-11.24768z" fill="url(#color-1)" stroke="#000000" stroke-width="0" stroke-linecap="square"/><path d="M212.2806,105.74399c9.16872,-3.66038 19.47466,-5.49059 30.9178,-5.49059c11.15883,0 21.16271,1.99012 30.01159,5.97035c8.84889,3.98023 15.72542,9.64849 20.62963,17.00479c3.24082,4.86123 5.41083,10.18028 6.51004,15.95712c0.92789,4.87653 -2.31549,9.25688 -7.27952,9.25688c-4.56305,0 -16.38441,0 -23.5051,0c-4.75999,0 -5.48267,-4.70536 -7.40289,-9.06084c-0.96093,-2.17956 -2.32466,-4.06349 -4.09121,-5.65176c-3.87361,-3.4827 -9.11542,-5.22405 -15.72542,-5.22405c-6.68108,0 -11.95843,1.47482 -15.83205,4.42444c-3.87361,2.94963 -5.81042,6.69886 -5.81042,11.24768c0,3.98023 2.13226,7.58731 6.39679,10.82123c0,0 -16.37803,-4.2734 -24.88065,-19.68539c-9.50095,-17.22157 10.06142,-29.56986 10.06142,-29.56986z" fill="url(#color-2)" stroke="none" stroke-width="1" stroke-linecap="square"/><path d="M263.77472,216.35506c0,-5.4728 -1.9368,-9.73732 -5.81042,-12.79355c-2.10014,-1.657 17.7276,7.4686 26.95752,19.08804c7.79421,9.81204 5.60765,21.92929 0.9218,25.47622c-10.23486,7.74721 -24.27225,11.62083 -42.11217,11.62083c-12.58034,0 -23.97018,-2.25664 -34.1695,-6.76993c-10.19931,-4.51329 -17.87546,-10.69686 -23.02843,-18.55068c-4.02716,-6.13795 -6.48067,-13.00303 -7.36051,-20.59526c-0.41535,-3.58407 1.94519,-6.53776 5.55325,-6.53776c4.01542,0 15.54179,0 23.5051,0c4.8871,0 7.82626,3.01907 8.86146,7.79527c0.96966,4.47386 2.86604,8.00568 5.68914,10.59547c4.30007,3.94468 11.28322,5.91703 20.94947,5.91703c6.18355,0 11.06999,-1.33266 14.6593,-3.99799c3.58931,-2.66533 5.38397,-6.41455 5.38397,-11.24768z" fill="url(#color-3)" stroke="none" stroke-width="1" stroke-linecap="square"/></g></g></svg>