<svg version="1.1" xmlns="http://www.w3.org/2000/svg" xmlns:xlink="http://www.w3.org/1999/xlink" width="573.11066" height="390.03325" viewBox="0,0,573.11066,390.03325"><g transform="translate(-18.08997,95.39245)"><g data-paper-data="{&quot;isPaintingLayer&quot;:true}" fill="none" fill-rule="nonzero" stroke="none" stroke-width="none" stroke-linecap="none" stroke-linejoin="miter" stroke-miterlimit="10" stroke-dasharray="" stroke-dashoffset="0" font-family="none" font-weight="none" font-size="none" text-anchor="none" style="mix-blend-mode: normal"><g data-paper-data="{&quot;origPos&quot;:null}" fill="#b5b5b5" stroke="none" stroke-width="0" stroke-linecap="butt"><path d="M253.47605,283.01725c0,0 4.77733,-7.68571 4.6348,-16.44525c-0.29758,-18.28923 -5.7625,-52.86389 -5.7625,-52.86389c0,0 8.83308,27.17782 11.83664,40.10085c3.69067,15.87944 4.72502,30.64499 4.72502,30.64499z" data-paper-data="{&quot;origPos&quot;:null}"/><path d="M248.43897,287.0917c0,0 4.18071,2.86275 2.3847,-13.06455c-1.46164,-12.96196 -6.7337,-26.44229 -6.7337,-26.44229c0,0 5.72089,3.54975 11.31028,16.3902c6.61962,15.20724 8.8336,21.18904 8.8336,21.18904z" data-paper-data="{&quot;origPos&quot;:null,&quot;origRot&quot;:0}"/></g><path d="M278.91295,282.2789c0,0 3.11238,-10.0493 12.41815,-35.59719c7.8575,-21.57172 15.89983,-27.53522 15.89983,-27.53522c0,0 -7.41139,22.6467 -9.46614,44.42254c-2.52481,26.75756 3.35238,21.94819 3.35238,21.94819z" data-paper-data="{&quot;origPos&quot;:null,&quot;origRot&quot;:0}" fill="#b5b5b5" stroke="none" stroke-width="0" stroke-linecap="butt"/><path d="M276.11807,281.65333c0,0 4.18071,2.86275 2.3847,-13.06455c-1.46164,-12.96196 -6.7337,-26.44229 -6.7337,-26.44229c0,0 5.72087,3.54974 11.31027,16.3902c6.61962,15.20725 8.8336,21.18904 8.8336,21.18904z" data-paper-data="{&quot;origPos&quot;:null,&quot;origRot&quot;:0}" fill="#b5b5b5" stroke="none" stroke-width="0" stroke-linecap="butt"/><path d="M325.96641,286.55192c0,0 5.0182,-8.11328 14.78945,-28.73932c8.25054,-17.41588 11.44477,-21.88185 11.44477,-21.88185c0,0 -3.69845,22.11895 -5.85598,39.69963c-2.65114,21.60266 2.93668,13.53596 2.93668,13.53596z" data-paper-data="{&quot;origPos&quot;:null,&quot;origRot&quot;:0}" fill="#b5b5b5" stroke="none" stroke-width="0" stroke-linecap="butt"/><path d="M328.59111,286.1101c0,0 1.84177,9.87016 3.79358,-15.3342c1.58842,-20.51182 3.03674,-46.4167 3.03674,-46.4167c0,0 1.07593,5.47445 2.92024,26.40368c2.18422,24.78696 3.70013,34.6541 3.70013,34.6541z" data-paper-data="{&quot;origPos&quot;:null}" fill="#b5b5b5" stroke="none" stroke-width="0" stroke-linecap="butt"/><path d="M329.15299,288.32532c0,0 3.85835,9.03101 0.45482,-15.95964c-2.76986,-20.33788 -6.80845,-45.86143 -6.80845,-45.86143c0,0 2.19273,4.99325 8.37684,24.74054c7.32394,23.38718 10.86587,32.5097 10.86587,32.5097z" data-paper-data="{&quot;origPos&quot;:null,&quot;origRot&quot;:0}" fill="#b5b5b5" stroke="none" stroke-width="0" stroke-linecap="butt"/><g data-paper-data="{&quot;origPos&quot;:null}" fill="#b5b5b5" stroke="none" stroke-width="0" stroke-linecap="butt"><path d="M319.47605,283.01725c0,0 4.77733,-7.68571 4.6348,-16.44525c-0.29758,-18.28923 -5.7625,-52.86389 -5.7625,-52.86389c0,0 8.83308,27.17782 11.83664,40.10085c3.69067,15.87944 4.72502,30.64499 4.72502,30.64499z" data-paper-data="{&quot;origPos&quot;:null}"/><path d="M314.43897,287.09171c0,0 4.18071,2.86275 2.3847,-13.06455c-1.46164,-12.96196 -6.7337,-26.44229 -6.7337,-26.44229c0,0 5.72089,3.54975 11.31028,16.3902c6.61962,15.20724 8.8336,21.18904 8.8336,21.18904z" data-paper-data="{&quot;origPos&quot;:null,&quot;origRot&quot;:0}"/></g><path d="M344.91295,282.27889c0,0 3.11238,-10.0493 12.41815,-35.59719c7.8575,-21.57172 15.89983,-27.53522 15.89983,-27.53522c0,0 -7.41139,22.6467 -9.46614,44.42254c-2.52481,26.75756 3.35238,21.94819 3.35238,21.94819z" data-paper-data="{&quot;origPos&quot;:null,&quot;origRot&quot;:0}" fill="#b5b5b5" stroke="none" stroke-width="0" stroke-linecap="butt"/><path d="M342.11807,281.65333c0,0 4.18071,2.86275 2.3847,-13.06455c-1.46164,-12.96196 -6.7337,-26.44229 -6.7337,-26.44229c0,0 5.72087,3.54974 11.31027,16.3902c6.61962,15.20725 8.8336,21.18904 8.8336,21.18904z" data-paper-data="{&quot;origPos&quot;:null,&quot;origRot&quot;:0}" fill="#b5b5b5" stroke="none" stroke-width="0" stroke-linecap="butt"/><path d="M391.96641,286.55192c0,0 5.0182,-8.11328 14.78945,-28.73932c8.25054,-17.41588 11.44477,-21.88185 11.44477,-21.88185c0,0 -3.69845,22.11895 -5.85598,39.69963c-2.65114,21.60266 2.93668,13.53596 2.93668,13.53596z" data-paper-data="{&quot;origPos&quot;:null,&quot;origRot&quot;:0}" fill="#b5b5b5" stroke="none" stroke-width="0" stroke-linecap="butt"/><path d="M394.59111,286.1101c0,0 1.84177,9.87016 3.79358,-15.3342c1.58842,-20.51182 3.03674,-46.4167 3.03674,-46.4167c0,0 1.07593,5.47445 2.92024,26.40368c2.18422,24.78696 3.70013,34.6541 3.70013,34.6541z" data-paper-data="{&quot;origPos&quot;:null}" fill="#b5b5b5" stroke="none" stroke-width="0" stroke-linecap="butt"/><path d="M395.15299,288.32532c0,0 3.85835,9.03101 0.45482,-15.95964c-2.76986,-20.33788 -6.80845,-45.86143 -6.80845,-45.86143c0,0 2.19273,4.99325 8.37684,24.74054c7.32394,23.38718 10.86587,32.5097 10.86587,32.5097z" data-paper-data="{&quot;origPos&quot;:null,&quot;origRot&quot;:0}" fill="#b5b5b5" stroke="none" stroke-width="0" stroke-linecap="butt"/><g data-paper-data="{&quot;origPos&quot;:null}" fill="#b5b5b5" stroke="none" stroke-width="0" stroke-linecap="butt"><path d="M424.47605,279.01725c0,0 4.77733,-7.68571 4.6348,-16.44525c-0.29758,-18.28923 -5.7625,-52.86389 -5.7625,-52.86389c0,0 8.83308,27.17782 11.83664,40.10085c3.69067,15.87944 4.72502,30.64499 4.72502,30.64499z" data-paper-data="{&quot;origPos&quot;:null}"/><path d="M419.43897,283.09171c0,0 4.18071,2.86275 2.3847,-13.06455c-1.46164,-12.96196 -6.7337,-26.44229 -6.7337,-26.44229c0,0 5.72089,3.54975 11.31028,16.3902c6.61962,15.20724 8.8336,21.18904 8.8336,21.18904z" data-paper-data="{&quot;origPos&quot;:null,&quot;origRot&quot;:0}"/></g><path d="M451.91295,280.27889c0,0 3.11238,-10.0493 12.41815,-35.59719c7.8575,-21.57172 15.89983,-27.53522 15.89983,-27.53522c0,0 -7.41139,22.6467 -9.46614,44.42254c-2.52481,26.75756 3.35238,21.94819 3.35238,21.94819z" data-paper-data="{&quot;origPos&quot;:null,&quot;origRot&quot;:0}" fill="#b5b5b5" stroke="none" stroke-width="0" stroke-linecap="butt"/><path d="M449.11807,279.65333c0,0 4.18071,2.86275 2.3847,-13.06455c-1.46164,-12.96196 -6.7337,-26.44229 -6.7337,-26.44229c0,0 5.72087,3.54974 11.31027,16.3902c6.61962,15.20725 8.8336,21.18904 8.8336,21.18904z" data-paper-data="{&quot;origPos&quot;:null,&quot;origRot&quot;:0}" fill="#b5b5b5" stroke="none" stroke-width="0" stroke-linecap="butt"/><path d="M498.96641,284.55192c0,0 5.0182,-8.11328 14.78945,-28.73932c8.25054,-17.41588 11.44477,-21.88185 11.44477,-21.88185c0,0 -3.69845,22.11895 -5.85598,39.69963c-2.65114,21.60266 2.93668,13.53596 2.93668,13.53596z" data-paper-data="{&quot;origPos&quot;:null,&quot;origRot&quot;:0}" fill="#b5b5b5" stroke="none" stroke-width="0" stroke-linecap="butt"/><path d="M501.59111,284.1101c0,0 1.84177,9.87016 3.79358,-15.3342c1.58842,-20.51182 3.03674,-46.4167 3.03674,-46.4167c0,0 1.07593,5.47445 2.92024,26.40368c2.18422,24.78696 3.70013,34.6541 3.70013,34.6541z" data-paper-data="{&quot;origPos&quot;:null}" fill="#b5b5b5" stroke="none" stroke-width="0" stroke-linecap="butt"/><path d="M502.15299,286.32532c0,0 3.85835,9.03101 0.45482,-15.95964c-2.76986,-20.33788 -6.80845,-45.86143 -6.80845,-45.86143c0,0 2.19273,4.99325 8.37684,24.74054c7.32394,23.38718 10.86587,32.5097 10.86587,32.5097z" data-paper-data="{&quot;origPos&quot;:null,&quot;origRot&quot;:0}" fill="#b5b5b5" stroke="none" stroke-width="0" stroke-linecap="butt"/><g data-paper-data="{&quot;origPos&quot;:null}" fill="#b5b5b5" stroke="none" stroke-width="0" stroke-linecap="butt"><path d="M492.47605,281.01725c0,0 4.77733,-7.68571 4.6348,-16.44525c-0.29758,-18.28923 -5.7625,-52.86389 -5.7625,-52.86389c0,0 8.83308,27.17782 11.83664,40.10085c3.69067,15.87944 4.72502,30.64499 4.72502,30.64499z" data-paper-data="{&quot;origPos&quot;:null}"/><path d="M487.43897,285.09171c0,0 4.18071,2.86275 2.3847,-13.06455c-1.46164,-12.96196 -6.7337,-26.44229 -6.7337,-26.44229c0,0 5.72089,3.54975 11.31028,16.3902c6.61962,15.20724 8.8336,21.18904 8.8336,21.18904z" data-paper-data="{&quot;origPos&quot;:null,&quot;origRot&quot;:0}"/></g><path d="M517.91295,280.27889c0,0 3.11238,-10.0493 12.41815,-35.59719c7.8575,-21.57172 15.89983,-27.53522 15.89983,-27.53522c0,0 -7.41139,22.6467 -9.46614,44.42254c-2.52481,26.75756 3.35238,21.94819 3.35238,21.94819z" data-paper-data="{&quot;origPos&quot;:null,&quot;origRot&quot;:0}" fill="#b5b5b5" stroke="none" stroke-width="0" stroke-linecap="butt"/><path d="M515.11807,279.65333c0,0 4.18071,2.86275 2.3847,-13.06455c-1.46164,-12.96196 -6.7337,-26.44229 -6.7337,-26.44229c0,0 5.72087,3.54974 11.31027,16.3902c6.61962,15.20725 8.8336,21.18904 8.8336,21.18904z" data-paper-data="{&quot;origPos&quot;:null,&quot;origRot&quot;:0}" fill="#b5b5b5" stroke="none" stroke-width="0" stroke-linecap="butt"/><path d="M564.96641,284.55192c0,0 5.0182,-8.11328 14.78945,-28.73932c8.25054,-17.41588 11.44477,-21.88185 11.44477,-21.88185c0,0 -3.69845,22.11895 -5.85598,39.69963c-2.65114,21.60266 2.93668,13.53596 2.93668,13.53596z" data-paper-data="{&quot;origPos&quot;:null,&quot;origRot&quot;:0}" fill="#b5b5b5" stroke="none" stroke-width="0" stroke-linecap="butt"/><path d="M567.59111,284.1101c0,0 1.84177,9.87016 3.79358,-15.3342c1.58842,-20.51182 3.03674,-46.4167 3.03674,-46.4167c0,0 1.07593,5.47445 2.92024,26.40368c2.18422,24.78696 3.70013,34.6541 3.70013,34.6541z" data-paper-data="{&quot;origPos&quot;:null}" fill="#b5b5b5" stroke="none" stroke-width="0" stroke-linecap="butt"/><path d="M568.15299,286.32532c0,0 3.85835,9.03101 0.45482,-15.95964c-2.76986,-20.33788 -6.80845,-45.86143 -6.80845,-45.86143c0,0 2.19273,4.99325 8.37684,24.74054c7.32394,23.38718 10.86587,32.5097 10.86587,32.5097z" data-paper-data="{&quot;origPos&quot;:null,&quot;origRot&quot;:0}" fill="#b5b5b5" stroke="none" stroke-width="0" stroke-linecap="butt"/><path d="M33.96641,290.55192c0,0 5.0182,-8.11328 14.78945,-28.73932c8.25054,-17.41588 11.44477,-21.88185 11.44477,-21.88185c0,0 -3.69845,22.11895 -5.85598,39.69963c-2.65114,21.60266 2.93668,13.53596 2.93668,13.53596z" data-paper-data="{&quot;origPos&quot;:null,&quot;origRot&quot;:0}" fill="#b5b5b5" stroke="none" stroke-width="0" stroke-linecap="butt"/><path d="M36.59111,290.1101c0,0 1.84177,9.87016 3.79358,-15.3342c1.58842,-20.51182 3.03674,-46.4167 3.03674,-46.4167c0,0 1.07593,5.47445 2.92024,26.40368c2.18422,24.78696 3.70013,34.6541 3.70013,34.6541z" data-paper-data="{&quot;origPos&quot;:null}" fill="#b5b5b5" stroke="none" stroke-width="0" stroke-linecap="butt"/><path d="M37.15299,292.32532c0,0 3.85835,9.03101 0.45482,-15.95964c-2.76986,-20.33788 -6.80845,-45.86143 -6.80845,-45.86143c0,0 2.19273,4.99325 8.37684,24.74054c7.32394,23.38718 10.86587,32.5097 10.86587,32.5097z" data-paper-data="{&quot;origPos&quot;:null,&quot;origRot&quot;:0}" fill="#b5b5b5" stroke="none" stroke-width="0" stroke-linecap="butt"/><g data-paper-data="{&quot;origPos&quot;:null}" fill="#b5b5b5" stroke="none" stroke-width="0" stroke-linecap="butt"><path d="M27.47605,287.01725c0,0 4.77733,-7.68571 4.6348,-16.44525c-0.29758,-18.28923 -5.7625,-52.86389 -5.7625,-52.86389c0,0 8.83308,27.17782 11.83664,40.10085c3.69067,15.87944 4.72502,30.64499 4.72502,30.64499z" data-paper-data="{&quot;origPos&quot;:null}"/><path d="M22.43897,291.09171c0,0 4.18071,2.86275 2.3847,-13.06455c-1.46164,-12.96196 -6.7337,-26.44229 -6.7337,-26.44229c0,0 5.72089,3.54975 11.31028,16.3902c6.61962,15.20724 8.8336,21.18904 8.8336,21.18904z" data-paper-data="{&quot;origPos&quot;:null,&quot;origRot&quot;:0}"/></g><path d="M52.91295,286.27889c0,0 3.11238,-10.0493 12.41815,-35.59719c7.8575,-21.57172 15.89983,-27.53522 15.89983,-27.53522c0,0 -7.41139,22.6467 -9.46614,44.42254c-2.52481,26.75756 3.35238,21.94819 3.35238,21.94819z" data-paper-data="{&quot;origPos&quot;:null,&quot;origRot&quot;:0}" fill="#b5b5b5" stroke="none" stroke-width="0" stroke-linecap="butt"/><path d="M50.11807,285.65332c0,0 4.18071,2.86275 2.3847,-13.06455c-1.46164,-12.96196 -6.7337,-26.44229 -6.7337,-26.44229c0,0 5.72087,3.54974 11.31027,16.3902c6.61962,15.20725 8.8336,21.18904 8.8336,21.18904z" data-paper-data="{&quot;origPos&quot;:null,&quot;origRot&quot;:0}" fill="#b5b5b5" stroke="none" stroke-width="0" stroke-linecap="butt"/><path d="M91.96641,282.55192c0,0 5.0182,-8.11328 14.78945,-28.73932c8.25054,-17.41588 11.44477,-21.88185 11.44477,-21.88185c0,0 -3.69845,22.11895 -5.85598,39.69963c-2.65114,21.60266 2.93668,13.53596 2.93668,13.53596z" data-paper-data="{&quot;origPos&quot;:null,&quot;origRot&quot;:0}" fill="#b5b5b5" stroke="none" stroke-width="0" stroke-linecap="butt"/><path d="M94.59111,282.1101c0,0 1.84177,9.87016 3.79358,-15.3342c1.58842,-20.51182 3.03674,-46.4167 3.03674,-46.4167c0,0 1.07593,5.47445 2.92024,26.40368c2.18422,24.78696 3.70013,34.6541 3.70013,34.6541z" data-paper-data="{&quot;origPos&quot;:null}" fill="#b5b5b5" stroke="none" stroke-width="0" stroke-linecap="butt"/><path d="M95.15299,284.32532c0,0 3.85835,9.03101 0.45482,-15.95964c-2.76986,-20.33788 -6.80845,-45.86143 -6.80845,-45.86143c0,0 2.19273,4.99325 8.37684,24.74054c7.32394,23.38718 10.86587,32.5097 10.86587,32.5097z" data-paper-data="{&quot;origPos&quot;:null,&quot;origRot&quot;:0}" fill="#b5b5b5" stroke="none" stroke-width="0" stroke-linecap="butt"/><g data-paper-data="{&quot;origPos&quot;:null}" fill="#b5b5b5" stroke="#b5b5b5"><path d="M163.5,74.14245c0,-4.14213 3.35786,-7.5 7.5,-7.5c4.14213,0 7.5,3.35787 7.5,7.5c0,4.14213 -3.35787,7.5 -7.5,7.5c-4.14214,0 -7.5,-3.35787 -7.5,-7.5z" data-paper-data="{&quot;origPos&quot;:null}" stroke-width="3.5" stroke-linecap="butt"/><path d="M171.10715,57.05672v12.57143" data-paper-data="{&quot;origPos&quot;:null}" stroke-width="3.5" stroke-linecap="round"/><path d="M165.55299,-36.35717c-1.29491,-0.84384 -2.01334,-1.96805 -2.02075,-3.1668l-0.06004,-6.69997c-0.01044,-1.19772 0.68934,-2.32445 1.96864,-3.17318c0.87095,-0.57782 1.94726,-0.96337 3.11291,-1.16333l-0.0609,-6.98499c-1.16909,-0.19501 -2.25208,-0.57596 -3.13222,-1.14953c-1.29491,-0.84384 -2.01335,-1.9681 -2.02303,-3.16532l-0.06,-6.69993c-0.01044,-1.19772 0.68846,-2.32504 1.96774,-3.17377c0.87095,-0.57782 1.94738,-0.96328 3.11377,-1.16275l-0.06088,-6.98498c-2.93984,-0.49339 -5.13867,-2.22884 -5.15771,-4.31325l-0.05766,-6.70149c-0.01281,-1.19617 0.68687,-2.32285 1.96864,-3.17319c1.28175,-0.85038 2.98891,-1.32047 4.80813,-1.32276c1.81997,-0.0049 3.53699,0.45797 4.83188,1.30181c1.29651,0.8449 2.01496,1.96915 2.02455,3.1662l0.05842,6.70101c0.01752,2.00915 -2.21076,3.79134 -5.08154,4.32267l0.061,6.99886c2.93984,0.49339 5.13869,2.22883 5.15774,4.31325l0.05766,6.70149c0.02161,2.00858 -2.21323,3.79301 -5.08155,4.32269l0.06103,6.99886c2.93898,0.49395 5.13793,2.23045 5.15684,4.31378l0.05766,6.70149c0.02488,2.39496 -3.13991,4.49357 -6.77761,4.49539c-1.81908,0.00548 -3.5361,-0.45742 -4.83263,-1.30232zM168.27673,-82.33377l-0.0066,-0.7559c-0.00529,-0.61707 0.75009,-1.11832 1.68857,-1.12023c0.93847,-0.00189 1.70267,0.49604 1.70804,1.11304l0.00659,0.75476c0.2355,-0.0928 0.48482,-0.17128 0.68337,-0.30298c0.63352,-0.4203 0.97943,-0.97833 0.97587,-1.57187l-0.06005,-6.69995c-0.00528,-0.59353 -0.36154,-1.14951 -1.00249,-1.5672c-0.63933,-0.41662 -1.48888,-0.64646 -2.39157,-0.6435c-1.79973,0.00216 -3.36559,1.04105 -3.35282,2.22439l0.05766,6.70149c0.00707,0.80716 0.70529,1.48298 1.6934,1.8679zM167.78147,-60.29997c0.20168,0.13141 0.45247,0.20877 0.68864,0.30222l-0.00583,-0.75423c-0.00529,-0.61707 0.75018,-1.11827 1.68856,-1.12026c0.93847,-0.00189 1.70266,0.49609 1.70805,1.11306l0.00659,0.75375c0.23539,-0.09389 0.4847,-0.17236 0.68411,-0.30465c0.63363,-0.42039 0.9803,-0.97789 0.97427,-1.56981l-0.05766,-6.7015c-0.00693,-0.8071 -0.70616,-1.48246 -1.69265,-1.86842l0.00661,0.75588c0.00529,0.61707 -0.75021,1.11827 -1.68858,1.12026c-0.93847,0.00189 -1.70266,-0.49608 -1.70804,-1.11306l-0.00641,-0.73548c-0.96507,0.3997 -1.66378,1.07802 -1.6586,1.85623l0.06001,6.69995c0.0043,0.59307 0.36057,1.14904 1.00095,1.56608zM167.97441,-37.96379c0.64171,0.41818 1.49042,0.64759 2.39149,0.64457c0.90033,-0.00144 1.74577,-0.23375 2.3794,-0.65413c0.63362,-0.42039 0.97954,-0.97837 0.97351,-1.5703l-0.05765,-6.70149c-0.00702,-0.80704 -0.70454,-1.48238 -1.69101,-1.86838l0.00657,0.75588c0.00529,0.61707 -0.75009,1.11834 -1.68857,1.12025c-0.93847,0.0019 -1.70265,-0.49609 -1.70804,-1.11307l-0.00644,-0.7366c-0.9665,0.39975 -1.66456,1.07968 -1.66016,1.85739l0.06002,6.69993c0.00441,0.59298 0.36152,1.14952 1.00085,1.56601z" data-paper-data="{&quot;origPos&quot;:null,&quot;origRot&quot;:0}" stroke-width="0" stroke-linecap="butt"/><path d="M166.05924,1.43241c-1.29489,-0.84384 -2.01333,-1.96807 -2.02074,-3.16683l-0.06002,-6.69992c-0.01044,-1.19772 0.68932,-2.32448 1.96862,-3.17321c0.87095,-0.57782 1.94727,-0.96336 3.11291,-1.16331l-0.0609,-6.98498c-1.16911,-0.195 -2.25208,-0.57594 -3.1322,-1.14951c-1.29489,-0.84384 -2.01336,-1.9681 -2.02303,-3.16532l-0.06002,-6.69993c-0.01044,-1.19772 0.68848,-2.32503 1.96778,-3.17375c0.87095,-0.57782 1.94737,-0.96331 3.11375,-1.16275l-0.0068,-0.78191c1.13741,0.06091 2.27299,0.02204 3.39386,-0.11281l0.00774,0.88963c2.93984,0.49339 5.13869,2.22882 5.15773,4.31322l0.05766,6.70151c0.02161,2.00857 -2.21324,3.79299 -5.08156,4.32267l0.06103,6.99886c2.93898,0.49395 5.13792,2.23047 5.15684,4.31381l0.05766,6.7015c0.02488,2.39496 -3.13991,4.49355 -6.77761,4.49537c-1.81912,0.00548 -3.53611,-0.4574 -4.83264,-1.30232zM168.48068,-0.17419c0.64171,0.41818 1.49039,0.64759 2.39148,0.64457c0.90033,-0.00144 1.74578,-0.23377 2.3794,-0.65415c0.63362,-0.42039 0.97952,-0.97838 0.9735,-1.57031l-0.05766,-6.70149c-0.00702,-0.80704 -0.70454,-1.48237 -1.69101,-1.86839l0.00655,0.75587c0.00529,0.61707 -0.75007,1.11836 -1.68854,1.12026c-0.93847,0.0019 -1.70266,-0.49608 -1.70805,-1.11306l-0.00641,-0.73661c-0.9665,0.39975 -1.66458,1.07968 -1.66019,1.85739l0.06005,6.69992c0.00439,0.59297 0.36152,1.14953 1.00083,1.566zM168.2878,-22.51031c0.20169,0.13141 0.45248,0.20878 0.68865,0.30224l-0.0058,-0.75423c-0.00529,-0.61707 0.75019,-1.11825 1.68858,-1.12024c0.93847,-0.0019 1.70264,0.49607 1.70803,1.11308l0.00658,0.75377c0.23539,-0.09389 0.48472,-0.17238 0.68409,-0.30466c0.63362,-0.42039 0.9803,-0.97787 0.97429,-1.5698l-0.05768,-6.7015c-0.00696,-0.8071 -0.70616,-1.48246 -1.69265,-1.86842l0.0066,0.75588c0.00529,0.61707 -0.75018,1.11825 -1.68857,1.12024c-0.93847,0.0019 -1.70264,-0.49608 -1.70803,-1.11308l-0.00642,-0.73547c-0.96507,0.3997 -1.66381,1.07805 -1.65864,1.85626l0.06,6.69993c0.0043,0.59306 0.36058,1.14904 1.00097,1.5661z" data-paper-data="{&quot;origPos&quot;:null,&quot;origRot&quot;:0}" stroke-width="0" stroke-linecap="butt"/><path d="M166.67312,58.87165c-1.29489,-0.84384 -2.01333,-1.96806 -2.02076,-3.16681l-0.06003,-6.69994c-0.01044,-1.19772 0.68935,-2.32446 1.96863,-3.17319c0.87095,-0.57781 1.94728,-0.96336 3.11292,-1.16331l-0.0609,-6.98498c-1.16911,-0.19501 -2.25207,-0.57599 -3.1322,-1.14955c-1.29489,-0.84384 -2.01334,-1.96808 -2.02301,-3.1653l-0.06005,-6.69993c-0.01044,-1.19772 0.68846,-2.32506 1.96775,-3.17379c0.87095,-0.57781 1.94738,-0.9633 3.11377,-1.16273l-0.0609,-6.98499c-2.93984,-0.49339 -5.13868,-2.22883 -5.15774,-4.31322l-0.05767,-6.70149c-0.0128,-1.19615 0.68689,-2.32283 1.96864,-3.17321c1.28175,-0.85036 2.9889,-1.32047 4.80813,-1.32276c1.81997,-0.00491 3.537,0.45797 4.83189,1.30181c1.29653,0.84492 2.01498,1.96916 2.02456,3.16621l0.05842,6.70099c0.01752,2.00913 -2.21076,3.79134 -5.08154,4.32267l0.06101,6.99884c2.93984,0.49339 5.13868,2.22885 5.15773,4.31325l0.05766,6.70149c0.02161,2.00858 -2.21323,3.79299 -5.08154,4.32267l0.061,6.99887c2.93898,0.49395 5.13797,2.23046 5.15686,4.31378l0.05764,6.70148c0.02488,2.39496 -3.13993,4.49359 -6.77761,4.4954c-1.81912,0.00547 -3.5361,-0.45742 -4.83263,-1.30232zM169.39682,12.89506l-0.0066,-0.75586c-0.00529,-0.61707 0.7501,-1.11834 1.68857,-1.12023c0.93847,-0.00189 1.70265,0.49606 1.70804,1.11304l0.00657,0.75475c0.2355,-0.09281 0.48483,-0.17128 0.68336,-0.303c0.63352,-0.4203 0.97945,-0.97835 0.97587,-1.5719l-0.06003,-6.69992c-0.00528,-0.59354 -0.36157,-1.14951 -1.0025,-1.56722c-0.63931,-0.41662 -1.48887,-0.64647 -2.39154,-0.64349c-1.79973,0.00217 -3.3656,1.04104 -3.35281,2.22438l0.05766,6.7015c0.00707,0.80716 0.70529,1.48299 1.6934,1.86792zM168.90161,34.92891c0.20169,0.13141 0.45247,0.20878 0.68865,0.30223l-0.0058,-0.75424c-0.00529,-0.61707 0.75018,-1.11826 1.68855,-1.12025c0.93847,-0.00189 1.70266,0.49608 1.70804,1.11308l0.00655,0.75374c0.23539,-0.09389 0.48473,-0.17238 0.68412,-0.30465c0.63362,-0.42039 0.98031,-0.97787 0.97429,-1.5698l-0.05767,-6.70148c-0.00696,-0.8071 -0.70616,-1.48246 -1.69265,-1.86842l0.00661,0.75588c0.00529,0.61707 -0.7502,1.11827 -1.68858,1.12026c-0.93847,0.00189 -1.70267,-0.49607 -1.70804,-1.11307l-0.00639,-0.73548c-0.96507,0.3997 -1.66381,1.07804 -1.65865,1.85625l0.06003,6.69994c0.0043,0.59306 0.36057,1.14902 1.00095,1.56608zM169.09455,57.26503c0.64171,0.41818 1.49041,0.6476 2.39149,0.64457c0.90033,-0.00144 1.74575,-0.23374 2.37938,-0.65412c0.63362,-0.42039 0.97953,-0.97839 0.9735,-1.57031l-0.05766,-6.7015c-0.00702,-0.80704 -0.70457,-1.48238 -1.69103,-1.86839l0.00661,0.75588c0.00529,0.61707 -0.7501,1.11836 -1.68858,1.12027c-0.93847,0.00189 -1.70264,-0.49608 -1.70803,-1.11308l-0.00641,-0.73662c-0.9665,0.39975 -1.66459,1.0797 -1.66018,1.85739l0.06002,6.69992c0.00439,0.59297 0.36153,1.14952 1.00087,1.56601z" data-paper-data="{&quot;origPos&quot;:null,&quot;origRot&quot;:0}" stroke-width="0" stroke-linecap="butt"/></g><g data-paper-data="{&quot;origPos&quot;:null}" fill="#b5b5b5" stroke="#b5b5b5"><path d="M247.5,96.14245c0,-4.14213 3.35786,-7.5 7.5,-7.5c4.14213,0 7.5,3.35787 7.5,7.5c0,4.14213 -3.35787,7.5 -7.5,7.5c-4.14214,0 -7.5,-3.35787 -7.5,-7.5z" data-paper-data="{&quot;origPos&quot;:null}" stroke-width="3.5" stroke-linecap="butt"/><path d="M255.10715,91.62815v-12.57143" data-paper-data="{&quot;origPos&quot;:null}" stroke-width="3.5" stroke-linecap="round"/><path d="M249.55299,-14.35717c-1.29491,-0.84384 -2.01334,-1.96805 -2.02075,-3.1668l-0.06004,-6.69997c-0.01044,-1.19772 0.68934,-2.32445 1.96864,-3.17318c0.87095,-0.57782 1.94726,-0.96337 3.11291,-1.16333l-0.0609,-6.98499c-1.16909,-0.19501 -2.25208,-0.57596 -3.13222,-1.14953c-1.29491,-0.84384 -2.01335,-1.9681 -2.02303,-3.16532l-0.06,-6.69993c-0.01044,-1.19772 0.68846,-2.32504 1.96774,-3.17377c0.87095,-0.57782 1.94738,-0.96328 3.11377,-1.16275l-0.06088,-6.98498c-2.93984,-0.49339 -5.13867,-2.22884 -5.15771,-4.31325l-0.05766,-6.70149c-0.01281,-1.19617 0.68687,-2.32285 1.96864,-3.17319c1.28175,-0.85038 2.98891,-1.32047 4.80813,-1.32276c1.81997,-0.0049 3.53699,0.45797 4.83188,1.30181c1.29651,0.8449 2.01496,1.96915 2.02455,3.1662l0.05842,6.70101c0.01752,2.00915 -2.21076,3.79134 -5.08154,4.32267l0.061,6.99886c2.93984,0.49339 5.13869,2.22883 5.15774,4.31325l0.05766,6.70149c0.02161,2.00858 -2.21323,3.79301 -5.08155,4.32269l0.06103,6.99886c2.93898,0.49395 5.13793,2.23045 5.15684,4.31378l0.05766,6.70149c0.02488,2.39496 -3.13991,4.49357 -6.77761,4.49539c-1.81908,0.00548 -3.5361,-0.45742 -4.83263,-1.30232zM252.27673,-60.33377l-0.0066,-0.7559c-0.00529,-0.61707 0.75009,-1.11832 1.68857,-1.12023c0.93847,-0.00189 1.70267,0.49604 1.70804,1.11304l0.00659,0.75476c0.2355,-0.0928 0.48482,-0.17128 0.68337,-0.30298c0.63352,-0.4203 0.97943,-0.97833 0.97587,-1.57187l-0.06005,-6.69995c-0.00528,-0.59353 -0.36154,-1.14951 -1.00249,-1.5672c-0.63933,-0.41662 -1.48888,-0.64646 -2.39157,-0.6435c-1.79973,0.00216 -3.36559,1.04105 -3.35282,2.22439l0.05766,6.70149c0.00707,0.80716 0.70529,1.48298 1.6934,1.8679zM251.78147,-38.29997c0.20168,0.13141 0.45247,0.20877 0.68864,0.30222l-0.00583,-0.75423c-0.00529,-0.61707 0.75018,-1.11827 1.68856,-1.12026c0.93847,-0.00189 1.70266,0.49609 1.70805,1.11306l0.00659,0.75375c0.23539,-0.09389 0.4847,-0.17236 0.68411,-0.30465c0.63363,-0.42039 0.9803,-0.97789 0.97427,-1.56981l-0.05766,-6.7015c-0.00693,-0.8071 -0.70616,-1.48246 -1.69265,-1.86842l0.00661,0.75588c0.00529,0.61707 -0.75021,1.11827 -1.68858,1.12026c-0.93847,0.00189 -1.70266,-0.49608 -1.70804,-1.11306l-0.00641,-0.73548c-0.96507,0.3997 -1.66378,1.07802 -1.6586,1.85623l0.06001,6.69995c0.0043,0.59307 0.36057,1.14904 1.00095,1.56608zM251.97441,-15.96379c0.64171,0.41818 1.49042,0.64759 2.39149,0.64457c0.90033,-0.00144 1.74577,-0.23375 2.3794,-0.65413c0.63362,-0.42039 0.97954,-0.97837 0.97351,-1.5703l-0.05765,-6.70149c-0.00702,-0.80704 -0.70454,-1.48238 -1.69101,-1.86838l0.00657,0.75588c0.00529,0.61707 -0.75009,1.11834 -1.68857,1.12025c-0.93847,0.0019 -1.70265,-0.49609 -1.70804,-1.11307l-0.00644,-0.7366c-0.9665,0.39975 -1.66456,1.07968 -1.66016,1.85739l0.06002,6.69993c0.00441,0.59298 0.36152,1.14952 1.00085,1.56601z" data-paper-data="{&quot;origPos&quot;:null,&quot;origRot&quot;:0}" stroke-width="0" stroke-linecap="butt"/><path d="M250.05924,23.43241c-1.29489,-0.84384 -2.01333,-1.96807 -2.02074,-3.16683l-0.06002,-6.69992c-0.01044,-1.19772 0.68932,-2.32448 1.96862,-3.17321c0.87095,-0.57782 1.94727,-0.96336 3.11291,-1.16331l-0.0609,-6.98498c-1.16911,-0.195 -2.25208,-0.57594 -3.1322,-1.14951c-1.29489,-0.84384 -2.01336,-1.9681 -2.02303,-3.16532l-0.06002,-6.69993c-0.01044,-1.19772 0.68848,-2.32503 1.96778,-3.17375c0.87095,-0.57782 1.94737,-0.96331 3.11375,-1.16275l-0.0068,-0.78191c1.13741,0.06091 2.27299,0.02204 3.39386,-0.11281l0.00774,0.88963c2.93984,0.49339 5.13869,2.22882 5.15773,4.31322l0.05766,6.70151c0.02161,2.00857 -2.21324,3.79299 -5.08156,4.32267l0.06103,6.99886c2.93898,0.49395 5.13792,2.23047 5.15684,4.31381l0.05766,6.7015c0.02488,2.39496 -3.13991,4.49355 -6.77761,4.49537c-1.81912,0.00548 -3.53611,-0.4574 -4.83264,-1.30232zM252.48068,21.82581c0.64171,0.41818 1.49039,0.64759 2.39148,0.64457c0.90033,-0.00144 1.74578,-0.23377 2.3794,-0.65415c0.63362,-0.42039 0.97952,-0.97838 0.9735,-1.57031l-0.05766,-6.70149c-0.00702,-0.80704 -0.70454,-1.48237 -1.69101,-1.86839l0.00655,0.75587c0.00529,0.61707 -0.75007,1.11836 -1.68854,1.12026c-0.93847,0.0019 -1.70266,-0.49608 -1.70805,-1.11306l-0.00641,-0.73661c-0.9665,0.39975 -1.66458,1.07968 -1.66019,1.85739l0.06005,6.69992c0.00439,0.59297 0.36152,1.14953 1.00083,1.566zM252.2878,-0.51031c0.20169,0.13141 0.45248,0.20878 0.68865,0.30224l-0.0058,-0.75423c-0.00529,-0.61707 0.75019,-1.11825 1.68858,-1.12024c0.93847,-0.0019 1.70264,0.49607 1.70803,1.11308l0.00658,0.75377c0.23539,-0.09389 0.48472,-0.17238 0.68409,-0.30466c0.63362,-0.42039 0.9803,-0.97787 0.97429,-1.5698l-0.05768,-6.7015c-0.00696,-0.8071 -0.70616,-1.48246 -1.69265,-1.86842l0.0066,0.75588c0.00529,0.61707 -0.75018,1.11825 -1.68857,1.12024c-0.93847,0.0019 -1.70264,-0.49608 -1.70803,-1.11308l-0.00642,-0.73547c-0.96507,0.3997 -1.66381,1.07805 -1.65864,1.85626l0.06,6.69993c0.0043,0.59306 0.36058,1.14904 1.00097,1.5661z" data-paper-data="{&quot;origPos&quot;:null,&quot;origRot&quot;:0}" stroke-width="0" stroke-linecap="butt"/><path d="M250.67312,80.87165c-1.29489,-0.84384 -2.01333,-1.96806 -2.02076,-3.16681l-0.06003,-6.69994c-0.01044,-1.19772 0.68935,-2.32446 1.96863,-3.17319c0.87095,-0.57781 1.94728,-0.96336 3.11292,-1.16331l-0.0609,-6.98498c-1.16911,-0.19501 -2.25207,-0.57599 -3.1322,-1.14955c-1.29489,-0.84384 -2.01334,-1.96808 -2.02301,-3.1653l-0.06005,-6.69993c-0.01044,-1.19772 0.68846,-2.32506 1.96775,-3.17379c0.87095,-0.57781 1.94738,-0.9633 3.11377,-1.16273l-0.0609,-6.98499c-2.93984,-0.49339 -5.13868,-2.22883 -5.15774,-4.31322l-0.05767,-6.70149c-0.0128,-1.19615 0.68689,-2.32283 1.96864,-3.17321c1.28175,-0.85036 2.9889,-1.32047 4.80813,-1.32276c1.81997,-0.00491 3.537,0.45797 4.83189,1.30181c1.29653,0.84492 2.01498,1.96916 2.02456,3.16621l0.05842,6.70099c0.01752,2.00913 -2.21076,3.79134 -5.08154,4.32267l0.06101,6.99884c2.93984,0.49339 5.13868,2.22885 5.15773,4.31325l0.05766,6.70149c0.02161,2.00858 -2.21323,3.79299 -5.08154,4.32267l0.061,6.99887c2.93898,0.49395 5.13797,2.23046 5.15686,4.31378l0.05764,6.70148c0.02488,2.39496 -3.13993,4.49359 -6.77761,4.4954c-1.81912,0.00547 -3.5361,-0.45742 -4.83263,-1.30232zM253.39682,34.89506l-0.0066,-0.75586c-0.00529,-0.61707 0.7501,-1.11834 1.68857,-1.12023c0.93847,-0.00189 1.70265,0.49606 1.70804,1.11304l0.00657,0.75475c0.2355,-0.09281 0.48483,-0.17128 0.68336,-0.303c0.63352,-0.4203 0.97945,-0.97835 0.97587,-1.5719l-0.06003,-6.69992c-0.00528,-0.59354 -0.36157,-1.14951 -1.0025,-1.56722c-0.63931,-0.41662 -1.48887,-0.64647 -2.39154,-0.64349c-1.79973,0.00217 -3.3656,1.04104 -3.35281,2.22438l0.05766,6.7015c0.00707,0.80716 0.70529,1.48299 1.6934,1.86792zM252.90161,56.92891c0.20169,0.13141 0.45247,0.20878 0.68865,0.30223l-0.0058,-0.75424c-0.00529,-0.61707 0.75018,-1.11826 1.68855,-1.12025c0.93847,-0.00189 1.70266,0.49608 1.70804,1.11308l0.00655,0.75374c0.23539,-0.09389 0.48473,-0.17238 0.68412,-0.30465c0.63362,-0.42039 0.98031,-0.97787 0.97429,-1.5698l-0.05767,-6.70148c-0.00696,-0.8071 -0.70616,-1.48246 -1.69265,-1.86842l0.00661,0.75588c0.00529,0.61707 -0.7502,1.11827 -1.68858,1.12026c-0.93847,0.00189 -1.70267,-0.49607 -1.70804,-1.11307l-0.00639,-0.73548c-0.96507,0.3997 -1.66381,1.07804 -1.65865,1.85625l0.06003,6.69994c0.0043,0.59306 0.36057,1.14902 1.00095,1.56608zM253.09455,79.26503c0.64171,0.41818 1.49041,0.6476 2.39149,0.64457c0.90033,-0.00144 1.74575,-0.23374 2.37938,-0.65412c0.63362,-0.42039 0.97953,-0.97839 0.9735,-1.57031l-0.05766,-6.7015c-0.00702,-0.80704 -0.70457,-1.48238 -1.69103,-1.86839l0.00661,0.75588c0.00529,0.61707 -0.7501,1.11836 -1.68858,1.12027c-0.93847,0.00189 -1.70264,-0.49608 -1.70803,-1.11308l-0.00641,-0.73662c-0.9665,0.39975 -1.66459,1.0797 -1.66018,1.85739l0.06002,6.69992c0.00439,0.59297 0.36153,1.14952 1.00087,1.56601z" data-paper-data="{&quot;origPos&quot;:null,&quot;origRot&quot;:0}" stroke-width="0" stroke-linecap="butt"/></g><g data-paper-data="{&quot;origPos&quot;:null}" fill="#b5b5b5" stroke="#b5b5b5"><path d="M302.5,120.14245c0,-4.14213 3.35786,-7.5 7.5,-7.5c4.14213,0 7.5,3.35787 7.5,7.5c0,4.14213 -3.35787,7.5 -7.5,7.5c-4.14214,0 -7.5,-3.35787 -7.5,-7.5z" data-paper-data="{&quot;origPos&quot;:null}" stroke-width="3.5" stroke-linecap="butt"/><path d="M310.10715,115.62815v-12.57143" data-paper-data="{&quot;origPos&quot;:null}" stroke-width="3.5" stroke-linecap="round"/><path d="M304.55299,9.64283c-1.29491,-0.84384 -2.01334,-1.96805 -2.02075,-3.1668l-0.06004,-6.69997c-0.01044,-1.19772 0.68934,-2.32445 1.96864,-3.17318c0.87095,-0.57782 1.94726,-0.96337 3.11291,-1.16333l-0.0609,-6.98499c-1.16909,-0.19501 -2.25208,-0.57596 -3.13222,-1.14953c-1.29491,-0.84384 -2.01335,-1.9681 -2.02303,-3.16532l-0.06,-6.69993c-0.01044,-1.19772 0.68846,-2.32504 1.96774,-3.17377c0.87095,-0.57782 1.94738,-0.96328 3.11377,-1.16275l-0.06088,-6.98498c-2.93984,-0.49339 -5.13867,-2.22884 -5.15771,-4.31325l-0.05766,-6.70149c-0.01281,-1.19617 0.68687,-2.32285 1.96864,-3.17319c1.28175,-0.85038 2.98891,-1.32047 4.80813,-1.32276c1.81997,-0.0049 3.53699,0.45797 4.83188,1.30181c1.29651,0.8449 2.01496,1.96915 2.02455,3.1662l0.05842,6.70101c0.01752,2.00915 -2.21076,3.79134 -5.08154,4.32267l0.061,6.99886c2.93984,0.49339 5.13869,2.22883 5.15774,4.31325l0.05766,6.70149c0.02161,2.00858 -2.21323,3.79301 -5.08155,4.32269l0.06103,6.99886c2.93898,0.49395 5.13793,2.23045 5.15684,4.31378l0.05766,6.70149c0.02488,2.39496 -3.13991,4.49357 -6.77761,4.49539c-1.81908,0.00548 -3.5361,-0.45742 -4.83263,-1.30232zM307.27673,-36.33377l-0.0066,-0.7559c-0.00529,-0.61707 0.75009,-1.11832 1.68857,-1.12023c0.93847,-0.00189 1.70267,0.49604 1.70804,1.11304l0.00659,0.75476c0.2355,-0.0928 0.48482,-0.17128 0.68337,-0.30298c0.63352,-0.4203 0.97943,-0.97833 0.97587,-1.57187l-0.06005,-6.69995c-0.00528,-0.59353 -0.36154,-1.14951 -1.00249,-1.5672c-0.63933,-0.41662 -1.48888,-0.64646 -2.39157,-0.6435c-1.79973,0.00216 -3.36559,1.04105 -3.35282,2.22439l0.05766,6.70149c0.00707,0.80716 0.70529,1.48298 1.6934,1.8679zM306.78147,-14.29997c0.20168,0.13141 0.45247,0.20877 0.68864,0.30222l-0.00583,-0.75423c-0.00529,-0.61707 0.75018,-1.11827 1.68856,-1.12026c0.93847,-0.00189 1.70266,0.49609 1.70805,1.11306l0.00659,0.75375c0.23539,-0.09389 0.4847,-0.17236 0.68411,-0.30465c0.63363,-0.42039 0.9803,-0.97789 0.97427,-1.56981l-0.05766,-6.7015c-0.00693,-0.8071 -0.70616,-1.48246 -1.69265,-1.86842l0.00661,0.75588c0.00529,0.61707 -0.75021,1.11827 -1.68858,1.12026c-0.93847,0.00189 -1.70266,-0.49608 -1.70804,-1.11306l-0.00641,-0.73548c-0.96507,0.3997 -1.66378,1.07802 -1.6586,1.85623l0.06001,6.69995c0.0043,0.59307 0.36057,1.14904 1.00095,1.56608zM306.97441,8.03621c0.64171,0.41818 1.49042,0.64759 2.39149,0.64457c0.90033,-0.00144 1.74577,-0.23375 2.3794,-0.65413c0.63362,-0.42039 0.97954,-0.97837 0.97351,-1.5703l-0.05765,-6.70149c-0.00702,-0.80704 -0.70454,-1.48238 -1.69101,-1.86838l0.00657,0.75588c0.00529,0.61707 -0.75009,1.11834 -1.68857,1.12025c-0.93847,0.0019 -1.70265,-0.49609 -1.70804,-1.11307l-0.00644,-0.7366c-0.9665,0.39975 -1.66456,1.07968 -1.66016,1.85739l0.06002,6.69993c0.00441,0.59298 0.36152,1.14952 1.00085,1.56601z" data-paper-data="{&quot;origPos&quot;:null,&quot;origRot&quot;:0}" stroke-width="0" stroke-linecap="butt"/><path d="M305.05924,47.43241c-1.29489,-0.84384 -2.01333,-1.96807 -2.02074,-3.16683l-0.06002,-6.69992c-0.01044,-1.19772 0.68932,-2.32448 1.96862,-3.17321c0.87095,-0.57782 1.94727,-0.96336 3.11291,-1.16331l-0.0609,-6.98498c-1.16911,-0.195 -2.25208,-0.57594 -3.1322,-1.14951c-1.29489,-0.84384 -2.01336,-1.9681 -2.02303,-3.16532l-0.06002,-6.69993c-0.01044,-1.19772 0.68848,-2.32503 1.96778,-3.17375c0.87095,-0.57782 1.94737,-0.96331 3.11375,-1.16275l-0.0068,-0.78191c1.13741,0.06091 2.27299,0.02204 3.39386,-0.11281l0.00774,0.88963c2.93984,0.49339 5.13869,2.22882 5.15773,4.31322l0.05766,6.70151c0.02161,2.00857 -2.21324,3.79299 -5.08156,4.32267l0.06103,6.99886c2.93898,0.49395 5.13792,2.23047 5.15684,4.31381l0.05766,6.7015c0.02488,2.39496 -3.13991,4.49355 -6.77761,4.49537c-1.81912,0.00548 -3.53611,-0.4574 -4.83264,-1.30232zM307.48068,45.82581c0.64171,0.41818 1.49039,0.64759 2.39148,0.64457c0.90033,-0.00144 1.74578,-0.23377 2.3794,-0.65415c0.63362,-0.42039 0.97952,-0.97838 0.9735,-1.57031l-0.05766,-6.70149c-0.00702,-0.80704 -0.70454,-1.48237 -1.69101,-1.86839l0.00655,0.75587c0.00529,0.61707 -0.75007,1.11836 -1.68854,1.12026c-0.93847,0.0019 -1.70266,-0.49608 -1.70805,-1.11306l-0.00641,-0.73661c-0.9665,0.39975 -1.66458,1.07968 -1.66019,1.85739l0.06005,6.69992c0.00439,0.59297 0.36152,1.14953 1.00083,1.566zM307.2878,23.48969c0.20169,0.13141 0.45248,0.20878 0.68865,0.30224l-0.0058,-0.75423c-0.00529,-0.61707 0.75019,-1.11825 1.68858,-1.12024c0.93847,-0.0019 1.70264,0.49607 1.70803,1.11308l0.00658,0.75377c0.23539,-0.09389 0.48472,-0.17238 0.68409,-0.30466c0.63362,-0.42039 0.9803,-0.97787 0.97429,-1.5698l-0.05768,-6.7015c-0.00696,-0.8071 -0.70616,-1.48246 -1.69265,-1.86842l0.0066,0.75588c0.00529,0.61707 -0.75018,1.11825 -1.68857,1.12024c-0.93847,0.0019 -1.70264,-0.49608 -1.70803,-1.11308l-0.00642,-0.73547c-0.96507,0.3997 -1.66381,1.07805 -1.65864,1.85626l0.06,6.69993c0.0043,0.59306 0.36058,1.14904 1.00097,1.5661z" data-paper-data="{&quot;origPos&quot;:null,&quot;origRot&quot;:0}" stroke-width="0" stroke-linecap="butt"/><path d="M305.67312,104.87165c-1.29489,-0.84384 -2.01333,-1.96806 -2.02076,-3.16681l-0.06003,-6.69994c-0.01044,-1.19772 0.68935,-2.32446 1.96863,-3.17319c0.87095,-0.57781 1.94728,-0.96336 3.11292,-1.16331l-0.0609,-6.98498c-1.16911,-0.19501 -2.25207,-0.57599 -3.1322,-1.14955c-1.29489,-0.84384 -2.01334,-1.96808 -2.02301,-3.1653l-0.06005,-6.69993c-0.01044,-1.19772 0.68846,-2.32506 1.96775,-3.17379c0.87095,-0.57781 1.94738,-0.9633 3.11377,-1.16273l-0.0609,-6.98499c-2.93984,-0.49339 -5.13868,-2.22883 -5.15774,-4.31322l-0.05767,-6.70149c-0.0128,-1.19615 0.68689,-2.32283 1.96864,-3.17321c1.28175,-0.85036 2.9889,-1.32047 4.80813,-1.32276c1.81997,-0.00491 3.537,0.45797 4.83189,1.30181c1.29653,0.84492 2.01498,1.96916 2.02456,3.16621l0.05842,6.70099c0.01752,2.00913 -2.21076,3.79134 -5.08154,4.32267l0.06101,6.99884c2.93984,0.49339 5.13868,2.22885 5.15773,4.31325l0.05766,6.70149c0.02161,2.00858 -2.21323,3.79299 -5.08154,4.32267l0.061,6.99887c2.93898,0.49395 5.13797,2.23046 5.15686,4.31378l0.05764,6.70148c0.02488,2.39496 -3.13993,4.49359 -6.77761,4.4954c-1.81912,0.00547 -3.5361,-0.45742 -4.83263,-1.30232zM308.39682,58.89506l-0.0066,-0.75586c-0.00529,-0.61707 0.7501,-1.11834 1.68857,-1.12023c0.93847,-0.00189 1.70265,0.49606 1.70804,1.11304l0.00657,0.75475c0.2355,-0.09281 0.48483,-0.17128 0.68336,-0.303c0.63352,-0.4203 0.97945,-0.97835 0.97587,-1.5719l-0.06003,-6.69992c-0.00528,-0.59354 -0.36157,-1.14951 -1.0025,-1.56722c-0.63931,-0.41662 -1.48887,-0.64647 -2.39154,-0.64349c-1.79973,0.00217 -3.3656,1.04104 -3.35281,2.22438l0.05766,6.7015c0.00707,0.80716 0.70529,1.48299 1.6934,1.86792zM307.90161,80.92891c0.20169,0.13141 0.45247,0.20878 0.68865,0.30223l-0.0058,-0.75424c-0.00529,-0.61707 0.75018,-1.11826 1.68855,-1.12025c0.93847,-0.00189 1.70266,0.49608 1.70804,1.11308l0.00655,0.75374c0.23539,-0.09389 0.48473,-0.17238 0.68412,-0.30465c0.63362,-0.42039 0.98031,-0.97787 0.97429,-1.5698l-0.05767,-6.70148c-0.00696,-0.8071 -0.70616,-1.48246 -1.69265,-1.86842l0.00661,0.75588c0.00529,0.61707 -0.7502,1.11827 -1.68858,1.12026c-0.93847,0.00189 -1.70267,-0.49607 -1.70804,-1.11307l-0.00639,-0.73548c-0.96507,0.3997 -1.66381,1.07804 -1.65865,1.85625l0.06003,6.69994c0.0043,0.59306 0.36057,1.14902 1.00095,1.56608zM308.09455,103.26503c0.64171,0.41818 1.49041,0.6476 2.39149,0.64457c0.90033,-0.00144 1.74575,-0.23374 2.37938,-0.65412c0.63362,-0.42039 0.97953,-0.97839 0.9735,-1.57031l-0.05766,-6.7015c-0.00702,-0.80704 -0.70457,-1.48238 -1.69103,-1.86839l0.00661,0.75588c0.00529,0.61707 -0.7501,1.11836 -1.68858,1.12027c-0.93847,0.00189 -1.70264,-0.49608 -1.70803,-1.11308l-0.00641,-0.73662c-0.9665,0.39975 -1.66459,1.0797 -1.66018,1.85739l0.06002,6.69992c0.00439,0.59297 0.36153,1.14952 1.00087,1.56601z" data-paper-data="{&quot;origPos&quot;:null,&quot;origRot&quot;:0}" stroke-width="0" stroke-linecap="butt"/></g><g data-paper-data="{&quot;origPos&quot;:null}" fill="#b5b5b5" stroke="#b5b5b5"><path d="M427.5,88.14245c0,-4.14213 3.35786,-7.5 7.5,-7.5c4.14213,0 7.5,3.35787 7.5,7.5c0,4.14213 -3.35787,7.5 -7.5,7.5c-4.14214,0 -7.5,-3.35787 -7.5,-7.5z" data-paper-data="{&quot;origPos&quot;:null}" stroke-width="3.5" stroke-linecap="butt"/><path d="M435.10715,83.62815v-12.57143" data-paper-data="{&quot;origPos&quot;:null}" stroke-width="3.5" stroke-linecap="round"/><path d="M429.55299,-22.35717c-1.29491,-0.84384 -2.01334,-1.96805 -2.02075,-3.1668l-0.06004,-6.69997c-0.01044,-1.19772 0.68934,-2.32445 1.96864,-3.17318c0.87095,-0.57782 1.94726,-0.96337 3.11291,-1.16333l-0.0609,-6.98499c-1.16909,-0.19501 -2.25208,-0.57596 -3.13222,-1.14953c-1.29491,-0.84384 -2.01335,-1.9681 -2.02303,-3.16532l-0.06,-6.69993c-0.01044,-1.19772 0.68846,-2.32504 1.96774,-3.17377c0.87095,-0.57782 1.94738,-0.96328 3.11377,-1.16275l-0.06088,-6.98498c-2.93984,-0.49339 -5.13867,-2.22884 -5.15771,-4.31325l-0.05766,-6.70149c-0.01281,-1.19617 0.68687,-2.32285 1.96864,-3.17319c1.28175,-0.85038 2.98891,-1.32047 4.80813,-1.32276c1.81997,-0.0049 3.53699,0.45797 4.83188,1.30181c1.29651,0.8449 2.01496,1.96915 2.02455,3.1662l0.05842,6.70101c0.01752,2.00915 -2.21076,3.79134 -5.08154,4.32267l0.061,6.99886c2.93984,0.49339 5.13869,2.22883 5.15774,4.31325l0.05766,6.70149c0.02161,2.00858 -2.21323,3.79301 -5.08155,4.32269l0.06103,6.99886c2.93898,0.49395 5.13793,2.23045 5.15684,4.31378l0.05766,6.70149c0.02488,2.39496 -3.13991,4.49357 -6.77761,4.49539c-1.81908,0.00548 -3.5361,-0.45742 -4.83263,-1.30232zM432.27673,-68.33377l-0.0066,-0.7559c-0.00529,-0.61707 0.75009,-1.11832 1.68857,-1.12023c0.93847,-0.00189 1.70267,0.49604 1.70804,1.11304l0.00659,0.75476c0.2355,-0.0928 0.48482,-0.17128 0.68337,-0.30298c0.63352,-0.4203 0.97943,-0.97833 0.97587,-1.57187l-0.06005,-6.69995c-0.00528,-0.59353 -0.36154,-1.14951 -1.00249,-1.5672c-0.63933,-0.41662 -1.48888,-0.64646 -2.39157,-0.6435c-1.79973,0.00216 -3.36559,1.04105 -3.35282,2.22439l0.05766,6.70149c0.00707,0.80716 0.70529,1.48298 1.6934,1.8679zM431.78147,-46.29997c0.20168,0.13141 0.45247,0.20877 0.68864,0.30222l-0.00583,-0.75423c-0.00529,-0.61707 0.75018,-1.11827 1.68856,-1.12026c0.93847,-0.00189 1.70266,0.49609 1.70805,1.11306l0.00659,0.75375c0.23539,-0.09389 0.4847,-0.17236 0.68411,-0.30465c0.63363,-0.42039 0.9803,-0.97789 0.97427,-1.56981l-0.05766,-6.7015c-0.00693,-0.8071 -0.70616,-1.48246 -1.69265,-1.86842l0.00661,0.75588c0.00529,0.61707 -0.75021,1.11827 -1.68858,1.12026c-0.93847,0.00189 -1.70266,-0.49608 -1.70804,-1.11306l-0.00641,-0.73548c-0.96507,0.3997 -1.66378,1.07802 -1.6586,1.85623l0.06001,6.69995c0.0043,0.59307 0.36057,1.14904 1.00095,1.56608zM431.97441,-23.96379c0.64171,0.41818 1.49042,0.64759 2.39149,0.64457c0.90033,-0.00144 1.74577,-0.23375 2.3794,-0.65413c0.63362,-0.42039 0.97954,-0.97837 0.97351,-1.5703l-0.05765,-6.70149c-0.00702,-0.80704 -0.70454,-1.48238 -1.69101,-1.86838l0.00657,0.75588c0.00529,0.61707 -0.75009,1.11834 -1.68857,1.12025c-0.93847,0.0019 -1.70265,-0.49609 -1.70804,-1.11307l-0.00644,-0.7366c-0.9665,0.39975 -1.66456,1.07968 -1.66016,1.85739l0.06002,6.69993c0.00441,0.59298 0.36152,1.14952 1.00085,1.56601z" data-paper-data="{&quot;origPos&quot;:null,&quot;origRot&quot;:0}" stroke-width="0" stroke-linecap="butt"/><path d="M430.05924,15.43241c-1.29489,-0.84384 -2.01333,-1.96807 -2.02074,-3.16683l-0.06002,-6.69992c-0.01044,-1.19772 0.68932,-2.32448 1.96862,-3.17321c0.87095,-0.57782 1.94727,-0.96336 3.11291,-1.16331l-0.0609,-6.98498c-1.16911,-0.195 -2.25208,-0.57594 -3.1322,-1.14951c-1.29489,-0.84384 -2.01336,-1.9681 -2.02303,-3.16532l-0.06002,-6.69993c-0.01044,-1.19772 0.68848,-2.32503 1.96778,-3.17375c0.87095,-0.57782 1.94737,-0.96331 3.11375,-1.16275l-0.0068,-0.78191c1.13741,0.06091 2.27299,0.02204 3.39386,-0.11281l0.00774,0.88963c2.93984,0.49339 5.13869,2.22882 5.15773,4.31322l0.05766,6.70151c0.02161,2.00857 -2.21324,3.79299 -5.08156,4.32267l0.06103,6.99886c2.93898,0.49395 5.13792,2.23047 5.15684,4.31381l0.05766,6.7015c0.02488,2.39496 -3.13991,4.49355 -6.77761,4.49537c-1.81912,0.00548 -3.53611,-0.4574 -4.83264,-1.30232zM432.48068,13.82581c0.64171,0.41818 1.49039,0.64759 2.39148,0.64457c0.90033,-0.00144 1.74578,-0.23377 2.3794,-0.65415c0.63362,-0.42039 0.97952,-0.97838 0.9735,-1.57031l-0.05766,-6.70149c-0.00702,-0.80704 -0.70454,-1.48237 -1.69101,-1.86839l0.00655,0.75587c0.00529,0.61707 -0.75007,1.11836 -1.68854,1.12026c-0.93847,0.0019 -1.70266,-0.49608 -1.70805,-1.11306l-0.00641,-0.73661c-0.9665,0.39975 -1.66458,1.07968 -1.66019,1.85739l0.06005,6.69992c0.00439,0.59297 0.36152,1.14953 1.00083,1.566zM432.2878,-8.51031c0.20169,0.13141 0.45248,0.20878 0.68865,0.30224l-0.0058,-0.75423c-0.00529,-0.61707 0.75019,-1.11825 1.68858,-1.12024c0.93847,-0.0019 1.70264,0.49607 1.70803,1.11308l0.00658,0.75377c0.23539,-0.09389 0.48472,-0.17238 0.68409,-0.30466c0.63362,-0.42039 0.9803,-0.97787 0.97429,-1.5698l-0.05768,-6.7015c-0.00696,-0.8071 -0.70616,-1.48246 -1.69265,-1.86842l0.0066,0.75588c0.00529,0.61707 -0.75018,1.11825 -1.68857,1.12024c-0.93847,0.0019 -1.70264,-0.49608 -1.70803,-1.11308l-0.00642,-0.73547c-0.96507,0.3997 -1.66381,1.07805 -1.65864,1.85626l0.06,6.69993c0.0043,0.59306 0.36058,1.14904 1.00097,1.5661z" data-paper-data="{&quot;origPos&quot;:null,&quot;origRot&quot;:0}" stroke-width="0" stroke-linecap="butt"/><path d="M430.67312,72.87165c-1.29489,-0.84384 -2.01333,-1.96806 -2.02076,-3.16681l-0.06003,-6.69994c-0.01044,-1.19772 0.68935,-2.32446 1.96863,-3.17319c0.87095,-0.57781 1.94728,-0.96336 3.11292,-1.16331l-0.0609,-6.98498c-1.16911,-0.19501 -2.25207,-0.57599 -3.1322,-1.14955c-1.29489,-0.84384 -2.01334,-1.96808 -2.02301,-3.1653l-0.06005,-6.69993c-0.01044,-1.19772 0.68846,-2.32506 1.96775,-3.17379c0.87095,-0.57781 1.94738,-0.9633 3.11377,-1.16273l-0.0609,-6.98499c-2.93984,-0.49339 -5.13868,-2.22883 -5.15774,-4.31322l-0.05767,-6.70149c-0.0128,-1.19615 0.68689,-2.32283 1.96864,-3.17321c1.28175,-0.85036 2.9889,-1.32047 4.80813,-1.32276c1.81997,-0.00491 3.537,0.45797 4.83189,1.30181c1.29653,0.84492 2.01498,1.96916 2.02456,3.16621l0.05842,6.70099c0.01752,2.00913 -2.21076,3.79134 -5.08154,4.32267l0.06101,6.99884c2.93984,0.49339 5.13868,2.22885 5.15773,4.31325l0.05766,6.70149c0.02161,2.00858 -2.21323,3.79299 -5.08154,4.32267l0.061,6.99887c2.93898,0.49395 5.13797,2.23046 5.15686,4.31378l0.05764,6.70148c0.02488,2.39496 -3.13993,4.49359 -6.77761,4.4954c-1.81912,0.00547 -3.5361,-0.45742 -4.83263,-1.30232zM433.39682,26.89506l-0.0066,-0.75586c-0.00529,-0.61707 0.7501,-1.11834 1.68857,-1.12023c0.93847,-0.00189 1.70265,0.49606 1.70804,1.11304l0.00657,0.75475c0.2355,-0.09281 0.48483,-0.17128 0.68336,-0.303c0.63352,-0.4203 0.97945,-0.97835 0.97587,-1.5719l-0.06003,-6.69992c-0.00528,-0.59354 -0.36157,-1.14951 -1.0025,-1.56722c-0.63931,-0.41662 -1.48887,-0.64647 -2.39154,-0.64349c-1.79973,0.00217 -3.3656,1.04104 -3.35281,2.22438l0.05766,6.7015c0.00707,0.80716 0.70529,1.48299 1.6934,1.86792zM432.90161,48.92891c0.20169,0.13141 0.45247,0.20878 0.68865,0.30223l-0.0058,-0.75424c-0.00529,-0.61707 0.75018,-1.11826 1.68855,-1.12025c0.93847,-0.00189 1.70266,0.49608 1.70804,1.11308l0.00655,0.75374c0.23539,-0.09389 0.48473,-0.17238 0.68412,-0.30465c0.63362,-0.42039 0.98031,-0.97787 0.97429,-1.5698l-0.05767,-6.70148c-0.00696,-0.8071 -0.70616,-1.48246 -1.69265,-1.86842l0.00661,0.75588c0.00529,0.61707 -0.7502,1.11827 -1.68858,1.12026c-0.93847,0.00189 -1.70267,-0.49607 -1.70804,-1.11307l-0.00639,-0.73548c-0.96507,0.3997 -1.66381,1.07804 -1.65865,1.85625l0.06003,6.69994c0.0043,0.59306 0.36057,1.14902 1.00095,1.56608zM433.09455,71.26503c0.64171,0.41818 1.49041,0.6476 2.39149,0.64457c0.90033,-0.00144 1.74575,-0.23374 2.37938,-0.65412c0.63362,-0.42039 0.97953,-0.97839 0.9735,-1.57031l-0.05766,-6.7015c-0.00702,-0.80704 -0.70457,-1.48238 -1.69103,-1.86839l0.00661,0.75588c0.00529,0.61707 -0.7501,1.11836 -1.68858,1.12027c-0.93847,0.00189 -1.70264,-0.49608 -1.70803,-1.11308l-0.00641,-0.73662c-0.9665,0.39975 -1.66459,1.0797 -1.66018,1.85739l0.06002,6.69992c0.00439,0.59297 0.36153,1.14952 1.00087,1.56601z" data-paper-data="{&quot;origPos&quot;:null,&quot;origRot&quot;:0}" stroke-width="0" stroke-linecap="butt"/></g><g data-paper-data="{&quot;origPos&quot;:null}" fill="#b5b5b5" stroke="#b5b5b5"><path d="M74.5,90.14245c0,-4.14213 3.35786,-7.5 7.5,-7.5c4.14213,0 7.5,3.35787 7.5,7.5c0,4.14213 -3.35787,7.5 -7.5,7.5c-4.14214,0 -7.5,-3.35787 -7.5,-7.5z" data-paper-data="{&quot;origPos&quot;:null}" stroke-width="3.5" stroke-linecap="butt"/><path d="M82.10715,85.62815v-12.57143" data-paper-data="{&quot;origPos&quot;:null}" stroke-width="3.5" stroke-linecap="round"/><path d="M76.55299,-20.35717c-1.29491,-0.84384 -2.01334,-1.96805 -2.02075,-3.1668l-0.06004,-6.69997c-0.01044,-1.19772 0.68934,-2.32445 1.96864,-3.17318c0.87095,-0.57782 1.94726,-0.96337 3.11291,-1.16333l-0.0609,-6.98499c-1.16909,-0.19501 -2.25208,-0.57596 -3.13222,-1.14953c-1.29491,-0.84384 -2.01335,-1.9681 -2.02303,-3.16532l-0.06,-6.69993c-0.01044,-1.19772 0.68846,-2.32504 1.96774,-3.17377c0.87095,-0.57782 1.94738,-0.96328 3.11377,-1.16275l-0.06088,-6.98498c-2.93984,-0.49339 -5.13867,-2.22884 -5.15771,-4.31325l-0.05766,-6.70149c-0.01281,-1.19617 0.68687,-2.32285 1.96864,-3.17319c1.28175,-0.85038 2.98891,-1.32047 4.80813,-1.32276c1.81997,-0.0049 3.53699,0.45797 4.83188,1.30181c1.29651,0.8449 2.01496,1.96915 2.02455,3.1662l0.05842,6.70101c0.01752,2.00915 -2.21076,3.79134 -5.08154,4.32267l0.061,6.99886c2.93984,0.49339 5.13869,2.22883 5.15774,4.31325l0.05766,6.70149c0.02161,2.00858 -2.21323,3.79301 -5.08155,4.32269l0.06103,6.99886c2.93898,0.49395 5.13793,2.23045 5.15684,4.31378l0.05766,6.70149c0.02488,2.39496 -3.13991,4.49357 -6.77761,4.49539c-1.81908,0.00548 -3.5361,-0.45742 -4.83263,-1.30232zM79.27673,-66.33377l-0.0066,-0.7559c-0.00529,-0.61707 0.75009,-1.11832 1.68857,-1.12023c0.93847,-0.00189 1.70267,0.49604 1.70804,1.11304l0.00659,0.75476c0.2355,-0.0928 0.48482,-0.17128 0.68337,-0.30298c0.63352,-0.4203 0.97943,-0.97833 0.97587,-1.57187l-0.06005,-6.69995c-0.00528,-0.59353 -0.36154,-1.14951 -1.00249,-1.5672c-0.63933,-0.41662 -1.48888,-0.64646 -2.39157,-0.6435c-1.79973,0.00216 -3.36559,1.04105 -3.35282,2.22439l0.05766,6.70149c0.00707,0.80716 0.70529,1.48298 1.6934,1.8679zM78.78147,-44.29997c0.20168,0.13141 0.45247,0.20877 0.68864,0.30222l-0.00583,-0.75423c-0.00529,-0.61707 0.75018,-1.11827 1.68856,-1.12026c0.93847,-0.00189 1.70266,0.49609 1.70805,1.11306l0.00659,0.75375c0.23539,-0.09389 0.4847,-0.17236 0.68411,-0.30465c0.63363,-0.42039 0.9803,-0.97789 0.97427,-1.56981l-0.05766,-6.7015c-0.00693,-0.8071 -0.70616,-1.48246 -1.69265,-1.86842l0.00661,0.75588c0.00529,0.61707 -0.75021,1.11827 -1.68858,1.12026c-0.93847,0.00189 -1.70266,-0.49608 -1.70804,-1.11306l-0.00641,-0.73548c-0.96507,0.3997 -1.66378,1.07802 -1.6586,1.85623l0.06001,6.69995c0.0043,0.59307 0.36057,1.14904 1.00095,1.56608zM78.97441,-21.96379c0.64171,0.41818 1.49042,0.64759 2.39149,0.64457c0.90033,-0.00144 1.74577,-0.23375 2.3794,-0.65413c0.63362,-0.42039 0.97954,-0.97837 0.97351,-1.5703l-0.05765,-6.70149c-0.00702,-0.80704 -0.70454,-1.48238 -1.69101,-1.86838l0.00657,0.75588c0.00529,0.61707 -0.75009,1.11834 -1.68857,1.12025c-0.93847,0.0019 -1.70265,-0.49609 -1.70804,-1.11307l-0.00644,-0.7366c-0.9665,0.39975 -1.66456,1.07968 -1.66016,1.85739l0.06002,6.69993c0.00441,0.59298 0.36152,1.14952 1.00085,1.56601z" data-paper-data="{&quot;origPos&quot;:null,&quot;origRot&quot;:0}" stroke-width="0" stroke-linecap="butt"/><path d="M77.05924,17.43241c-1.29489,-0.84384 -2.01333,-1.96807 -2.02074,-3.16683l-0.06002,-6.69992c-0.01044,-1.19772 0.68932,-2.32448 1.96862,-3.17321c0.87095,-0.57782 1.94727,-0.96336 3.11291,-1.16331l-0.0609,-6.98498c-1.16911,-0.195 -2.25208,-0.57594 -3.1322,-1.14951c-1.29489,-0.84384 -2.01336,-1.9681 -2.02303,-3.16532l-0.06002,-6.69993c-0.01044,-1.19772 0.68848,-2.32503 1.96778,-3.17375c0.87095,-0.57782 1.94737,-0.96331 3.11375,-1.16275l-0.0068,-0.78191c1.13741,0.06091 2.27299,0.02204 3.39386,-0.11281l0.00774,0.88963c2.93984,0.49339 5.13869,2.22882 5.15773,4.31322l0.05766,6.70151c0.02161,2.00857 -2.21324,3.79299 -5.08156,4.32267l0.06103,6.99886c2.93898,0.49395 5.13792,2.23047 5.15684,4.31381l0.05766,6.7015c0.02488,2.39496 -3.13991,4.49355 -6.77761,4.49537c-1.81912,0.00548 -3.53611,-0.4574 -4.83264,-1.30232zM79.48068,15.82581c0.64171,0.41818 1.49039,0.64759 2.39148,0.64457c0.90033,-0.00144 1.74578,-0.23377 2.3794,-0.65415c0.63362,-0.42039 0.97952,-0.97838 0.9735,-1.57031l-0.05766,-6.70149c-0.00702,-0.80704 -0.70454,-1.48237 -1.69101,-1.86839l0.00655,0.75587c0.00529,0.61707 -0.75007,1.11836 -1.68854,1.12026c-0.93847,0.0019 -1.70266,-0.49608 -1.70805,-1.11306l-0.00641,-0.73661c-0.9665,0.39975 -1.66458,1.07968 -1.66019,1.85739l0.06005,6.69992c0.00439,0.59297 0.36152,1.14953 1.00083,1.566zM79.2878,-6.51031c0.20169,0.13141 0.45248,0.20878 0.68865,0.30224l-0.0058,-0.75423c-0.00529,-0.61707 0.75019,-1.11825 1.68858,-1.12024c0.93847,-0.0019 1.70264,0.49607 1.70803,1.11308l0.00658,0.75377c0.23539,-0.09389 0.48472,-0.17238 0.68409,-0.30466c0.63362,-0.42039 0.9803,-0.97787 0.97429,-1.5698l-0.05768,-6.7015c-0.00696,-0.8071 -0.70616,-1.48246 -1.69265,-1.86842l0.0066,0.75588c0.00529,0.61707 -0.75018,1.11825 -1.68857,1.12024c-0.93847,0.0019 -1.70264,-0.49608 -1.70803,-1.11308l-0.00642,-0.73547c-0.96507,0.3997 -1.66381,1.07805 -1.65864,1.85626l0.06,6.69993c0.0043,0.59306 0.36058,1.14904 1.00097,1.5661z" data-paper-data="{&quot;origPos&quot;:null,&quot;origRot&quot;:0}" stroke-width="0" stroke-linecap="butt"/><path d="M77.67312,74.87165c-1.29489,-0.84384 -2.01333,-1.96806 -2.02076,-3.16681l-0.06003,-6.69994c-0.01044,-1.19772 0.68935,-2.32446 1.96863,-3.17319c0.87095,-0.57781 1.94728,-0.96336 3.11292,-1.16331l-0.0609,-6.98498c-1.16911,-0.19501 -2.25207,-0.57599 -3.1322,-1.14955c-1.29489,-0.84384 -2.01334,-1.96808 -2.02301,-3.1653l-0.06005,-6.69993c-0.01044,-1.19772 0.68846,-2.32506 1.96775,-3.17379c0.87095,-0.57781 1.94738,-0.9633 3.11377,-1.16273l-0.0609,-6.98499c-2.93984,-0.49339 -5.13868,-2.22883 -5.15774,-4.31322l-0.05767,-6.70149c-0.0128,-1.19615 0.68689,-2.32283 1.96864,-3.17321c1.28175,-0.85036 2.9889,-1.32047 4.80813,-1.32276c1.81997,-0.00491 3.537,0.45797 4.83189,1.30181c1.29653,0.84492 2.01498,1.96916 2.02456,3.16621l0.05842,6.70099c0.01752,2.00913 -2.21076,3.79134 -5.08154,4.32267l0.06101,6.99884c2.93984,0.49339 5.13868,2.22885 5.15773,4.31325l0.05766,6.70149c0.02161,2.00858 -2.21323,3.79299 -5.08154,4.32267l0.061,6.99887c2.93898,0.49395 5.13797,2.23046 5.15686,4.31378l0.05764,6.70148c0.02488,2.39496 -3.13993,4.49359 -6.77761,4.4954c-1.81912,0.00547 -3.5361,-0.45742 -4.83263,-1.30232zM80.39682,28.89506l-0.0066,-0.75586c-0.00529,-0.61707 0.7501,-1.11834 1.68857,-1.12023c0.93847,-0.00189 1.70265,0.49606 1.70804,1.11304l0.00657,0.75475c0.2355,-0.09281 0.48483,-0.17128 0.68336,-0.303c0.63352,-0.4203 0.97945,-0.97835 0.97587,-1.5719l-0.06003,-6.69992c-0.00528,-0.59354 -0.36157,-1.14951 -1.0025,-1.56722c-0.63931,-0.41662 -1.48887,-0.64647 -2.39154,-0.64349c-1.79973,0.00217 -3.3656,1.04104 -3.35281,2.22438l0.05766,6.7015c0.00707,0.80716 0.70529,1.48299 1.6934,1.86792zM79.90161,50.92891c0.20169,0.13141 0.45247,0.20878 0.68865,0.30223l-0.0058,-0.75424c-0.00529,-0.61707 0.75018,-1.11826 1.68855,-1.12025c0.93847,-0.00189 1.70266,0.49608 1.70804,1.11308l0.00655,0.75374c0.23539,-0.09389 0.48473,-0.17238 0.68412,-0.30465c0.63362,-0.42039 0.98031,-0.97787 0.97429,-1.5698l-0.05767,-6.70148c-0.00696,-0.8071 -0.70616,-1.48246 -1.69265,-1.86842l0.00661,0.75588c0.00529,0.61707 -0.7502,1.11827 -1.68858,1.12026c-0.93847,0.00189 -1.70267,-0.49607 -1.70804,-1.11307l-0.00639,-0.73548c-0.96507,0.3997 -1.66381,1.07804 -1.65865,1.85625l0.06003,6.69994c0.0043,0.59306 0.36057,1.14902 1.00095,1.56608zM80.09455,73.26503c0.64171,0.41818 1.49041,0.6476 2.39149,0.64457c0.90033,-0.00144 1.74575,-0.23374 2.37938,-0.65412c0.63362,-0.42039 0.97953,-0.97839 0.9735,-1.57031l-0.05766,-6.7015c-0.00702,-0.80704 -0.70457,-1.48238 -1.69103,-1.86839l0.00661,0.75588c0.00529,0.61707 -0.7501,1.11836 -1.68858,1.12027c-0.93847,0.00189 -1.70264,-0.49608 -1.70803,-1.11308l-0.00641,-0.73662c-0.9665,0.39975 -1.66459,1.0797 -1.66018,1.85739l0.06002,6.69992c0.00439,0.59297 0.36153,1.14952 1.00087,1.56601z" data-paper-data="{&quot;origPos&quot;:null,&quot;origRot&quot;:0}" stroke-width="0" stroke-linecap="butt"/></g></g></g></svg>