<svg version="1.1" xmlns="http://www.w3.org/2000/svg" xmlns:xlink="http://www.w3.org/1999/xlink" width="82.5025" height="82.5025" viewBox="0,0,82.5025,82.5025"><defs><radialGradient cx="240" cy="179.99999" r="41.25126" gradientUnits="userSpaceOnUse" id="color-1"><stop offset="0" stop-color="#2a5843"/><stop offset="1" stop-color="#2a5843" stop-opacity="0"/></radialGradient><linearGradient x1="240" y1="155.1472" x2="240" y2="204.85278" gradientUnits="userSpaceOnUse" id="color-2"><stop offset="0" stop-color="#3d7f61"/><stop offset="1" stop-color="#3f8465"/></linearGradient><linearGradient x1="239.71342" y1="173.11267" x2="239.71342" y2="177.39042" gradientUnits="userSpaceOnUse" id="color-3"><stop offset="0" stop-color="#bebebe"/><stop offset="1" stop-color="#ebebeb"/></linearGradient></defs><g transform="translate(-198.74874,-138.74874)"><g data-paper-data="{&quot;isPaintingLayer&quot;:true}" fill="none" fill-rule="nonzero" stroke="none" stroke-width="8" stroke-linecap="none" stroke-linejoin="miter" stroke-miterlimit="10" stroke-dasharray="" stroke-dashoffset="0" font-family="none" font-weight="none" font-size="none" text-anchor="none" style="mix-blend-mode: normal"><g><path d="M214.60113,147.49749c17.95064,-14.0274 43.87395,-10.847 57.90137,7.10363c14.0274,17.95064 10.847,43.87395 -7.10363,57.90137c-17.95064,14.0274 -43.87395,10.847 -57.90137,-7.10363c-14.0274,-17.95064 -10.847,-43.87395 7.10363,-57.90137z" data-paper-data="{&quot;origPos&quot;:null}" fill="url(#color-1)" stroke="none" stroke-linecap="butt"/><path d="M218.74005,152.794c15.02546,-11.74154 36.72439,-9.07941 48.46594,5.94605c11.74154,15.02546 9.07941,36.72439 -5.94605,48.46594c-15.02546,11.74154 -36.72439,9.07941 -48.46594,-5.94605c-11.74154,-15.02546 -9.07941,-36.72439 5.94605,-48.46594z" data-paper-data="{&quot;origPos&quot;:null}" fill="#2a5843" stroke="none" stroke-linecap="butt"/><path d="M224.20094,157.96266c11.30234,-8.83213 27.62457,-6.82963 36.4567,4.47269c8.83213,11.30234 6.82963,27.62455 -4.4727,36.45669c-11.30234,8.83213 -27.62454,6.82963 -36.45668,-4.47269c-8.83213,-11.30234 -6.82965,-27.62455 4.47269,-36.45669z" data-paper-data="{&quot;origPos&quot;:null}" fill="#244a39" stroke="none" stroke-linecap="butt"/><path d="M224.69785,160.41807c10.81478,-8.45115 26.43291,-6.53503 34.88405,4.27975c8.45115,10.81478 6.53503,26.43289 -4.27977,34.88404c-10.81478,8.45115 -26.43291,6.53503 -34.88404,-4.27974c-8.45115,-10.81478 -6.53503,-26.43291 4.27975,-34.88405z" data-paper-data="{&quot;origPos&quot;:null}" fill="url(#color-2)" stroke="none" stroke-linecap="butt"/><path d="M217.54186,190.23199l37.54184,-30.03324c0,0 2.26344,1.64132 3.40396,2.93271c0.61109,0.69191 2.03321,3.03269 2.03321,3.03269l-38.44013,31.19951c0,0 -1.51867,-1.28177 -2.71996,-4.14234c-0.47305,-1.12645 -1.81894,-2.9893 -1.81894,-2.9893z" data-paper-data="{&quot;origPos&quot;:null}" fill="#408667" stroke="none" stroke-linecap="butt"/><path d="M225.1105,200.03211l37.74486,-30.13662c0,0 1.24423,3.20121 1.32352,5.14864c0.3331,3.66005 0.60742,3.78005 0.60742,3.78005l-31.77068,25.25442c0,0 -3.91216,-1.44911 -5.20227,-2.35651c-2.87016,-2.01877 -2.70284,-1.68998 -2.70284,-1.68998z" data-paper-data="{&quot;origPos&quot;:null}" fill="#408667" stroke="none" stroke-linecap="butt"/><path d="M241.64974,196.42749l-0.26053,-22.40508" data-paper-data="{&quot;origPos&quot;:null}" fill="none" stroke="#506c5f" stroke-linecap="round"/><path d="M226.97172,172.20148l27.87609,0.26053" data-paper-data="{&quot;origPos&quot;:null}" fill="none" stroke="#506c5f" stroke-linecap="round"/><path d="M239.65699,172.98859l0.26053,22.40508" data-paper-data="{&quot;origPos&quot;:null}" fill="none" stroke="#ebebeb" stroke-linecap="round"/><path d="M235.74123,177.39042v-4.27775h7.94439v4.27775z" data-paper-data="{&quot;origPos&quot;:null}" fill="url(#color-3)" stroke="none" stroke-linecap="butt"/><path d="M225.5887,170.64387l27.87609,0.26053" data-paper-data="{&quot;origPos&quot;:null}" fill="none" stroke="#e6e6e6" stroke-linecap="round"/></g></g></g></svg>