<svg version="1.1" xmlns="http://www.w3.org/2000/svg" xmlns:xlink="http://www.w3.org/1999/xlink" width="207.97416" height="63.01767"><g transform="translate(-136.01292,-148.49117)"><g data-paper-data="{&quot;isPaintingLayer&quot;:true}" fill="none" fill-rule="nonzero" stroke="none" stroke-width="none" stroke-linecap="none" stroke-linejoin="miter" stroke-miterlimit="10" stroke-dasharray="" stroke-dashoffset="0" font-family="none" font-weight="none" font-size="none" text-anchor="none" style="mix-blend-mode: normal"><path d="M152.54345,163.01382c0.18296,-0.54008 0.36855,-1.07996 0.55742,-1.61955h168.98795c-0.01423,0.53984 -0.02566,1.07969 -0.03403,1.61955z" data-paper-data="{&quot;origPos&quot;:null,&quot;index&quot;:null}" fill="#65815b" stroke="none" stroke-width="0" stroke-linecap="butt"/><path d="M144.76066,200.26361c0.14527,-4.97175 0.37784,-9.94338 0.58598,-14.91527c0.21628,-5.1667 -1.68605,-10.47238 2.19055,-15.5931c2.30354,-3.25431 4.06671,-6.55112 6.43961,-9.81857h168.19414c-0.2142,2.68618 -0.20047,5.37263 0.27521,8.06075c1.90267,10.75191 4.0795,21.5081 5.08913,32.26619z" data-paper-data="{&quot;origPos&quot;:null,&quot;index&quot;:null}" fill="#dbc19c" stroke="#b39d7f" stroke-width="10" stroke-linecap="butt"/><path d="M144.76066,200.26361c0.14527,-4.97175 0.37784,-9.94338 0.58598,-14.91527c0.21628,-5.1667 -1.68605,-10.47238 2.19055,-15.5931c2.30354,-3.25431 4.06671,-6.55112 6.43961,-9.81857h168.19414c-0.2142,2.68618 -0.20047,5.37263 0.27521,8.06075c1.90267,10.75191 4.0795,21.5081 5.08913,32.26619z" data-paper-data="{&quot;origPos&quot;:null,&quot;index&quot;:null}" fill="#a4cf93" stroke="#6f8368" stroke-width="10" stroke-linecap="butt"/><path d="M144.83164,194.78712c0.14358,-3.30868 0.33813,-6.61732 0.51497,-9.9261c0.21628,-4.04621 -1.68605,-8.20126 2.19055,-12.21146c0.20199,-0.22349 0.39984,-0.44722 0.5943,-0.67117h174.47469c1.73025,7.60069 3.6511,15.20406 4.70247,22.80875z" data-paper-data="{&quot;origPos&quot;:null,&quot;index&quot;:null}" fill="#9dc78d" stroke="none" stroke-width="0" stroke-linecap="butt"/><path d="M144.64148,205.12227c0.09035,-5.32959 0.4206,-10.65878 0.70513,-15.98834c0.12085,-2.26321 -0.41959,-4.56044 -0.24415,-6.84739h178.89972c1.7566,7.61003 3.42289,15.22241 3.93917,22.83574z" data-paper-data="{&quot;origPos&quot;:null,&quot;index&quot;:null}" fill="#97be87" stroke="none" stroke-width="0" stroke-linecap="butt"/><path d="M311.84443,206.33238l4.51324,-55.15701l6.83857,-0.45497l6.31705,5.50784z" data-paper-data="{&quot;origPos&quot;:null,&quot;origRot&quot;:0}" fill="#696053" stroke="none" stroke-width="0" stroke-linecap="butt"/><path d="M220.86202,170.8868c0,-1.34168 1.24549,-2.42934 2.78188,-2.42934c1.53639,0 2.78188,1.08765 2.78188,2.42934c0,1.34168 -1.24549,2.42934 -2.78188,2.42934c-1.53639,0 -2.78188,-1.08765 -2.78188,-2.42934z" data-paper-data="{&quot;origPos&quot;:null}" fill="#9dc78d" stroke="none" stroke-width="0.5" stroke-linecap="butt"/><g data-paper-data="{&quot;origPos&quot;:null}" stroke="none" stroke-width="0" stroke-linecap="butt"><path d="M312.84443,206.33238l4.51324,-55.15701l6.83856,-0.45497l6.31705,5.50784l9.02319,-3.6689l-4.51324,55.15701z" data-paper-data="{&quot;origPos&quot;:null,&quot;origRot&quot;:0}" fill="#696053"/><path d="M315.6259,207.58074l4.79546,-58.60614l7.26621,-0.48343l6.71207,5.85227l9.58744,-3.89833l-4.79546,58.60613z" data-paper-data="{&quot;origPos&quot;:null,&quot;origRot&quot;:0}" fill="#8b7f6e"/><path d="M315.62591,204.10317l4.51324,-55.15702l6.83857,-0.45497l6.31705,5.50785z" data-paper-data="{&quot;origPos&quot;:null,&quot;origRot&quot;:0}" fill="#817666"/></g><g data-paper-data="{&quot;index&quot;:null,&quot;origPos&quot;:null}" stroke="none" stroke-width="0" stroke-linecap="butt"><path d="M144.97677,210.17394l-4.51324,-55.15701l9.02319,3.6689l6.31705,-5.50784l6.83856,0.45497l4.51324,55.15701z" data-paper-data="{&quot;origPos&quot;:null,&quot;origRot&quot;:0}" fill="#696053"/><path d="M140.80838,211.50884l-4.79546,-58.60613l9.58744,3.89833l6.71207,-5.85227l7.26621,0.48343l4.79546,58.60614z" data-paper-data="{&quot;origPos&quot;:null,&quot;origRot&quot;:0}" fill="#8b7f6e"/><path d="M146.70523,156.45662l6.31705,-5.50785l6.83857,0.45497l4.51324,55.15702z" data-paper-data="{&quot;origPos&quot;:null,&quot;origRot&quot;:0}" fill="#817666"/></g><path d="M183.70868,193.88419c-0.12769,0.12769 -0.60941,0.19153 -1.44518,0.19153c-0.56878,0.11608 -1.24204,0.02322 -2.01977,-0.27859l-0.64424,-0.20894l-0.81836,-0.47012c0.04643,-0.20894 0.04063,-0.22055 -0.01741,-0.03482c-0.05804,0.19734 -0.23796,0.16251 -0.53976,-0.10447c-0.05804,-0.04643 -0.16251,-0.09867 -0.31341,-0.15671c-0.49914,-0.34824 -0.85318,-0.66165 -1.06212,-0.94024c-0.69647,-1.12596 -1.04471,-2.08361 -1.04471,-2.87295c0,-0.24377 0.1509,-0.52235 0.45271,-0.83577c0.51075,-0.61522 1.16079,-0.92283 1.95012,-0.92283c0.39467,0.02322 0.72548,0.16831 0.99247,0.4353l0.99247,1.28847c0.12769,0.11608 0.2902,0.26118 0.48753,0.4353l0.38306,0.41788l0.52235,0.41788c-0.06965,0.03482 -0.05224,0.02322 0.05224,-0.03482c0.11608,0.05804 0.27278,0.10447 0.47012,0.13929c0.2902,-0.06965 0.52235,-0.1451 0.69647,-0.22635c0.13929,-0.13929 0.27278,-0.25537 0.40047,-0.34824l0.36565,-0.40047c-0.01161,0.01161 0.01161,-0.05804 0.06965,-0.20894c0,-0.20894 0.00581,-0.34824 0.01741,-0.41788c0.01161,-0.06965 -0.01741,-0.24957 -0.08706,-0.53977c0.12769,-0.01161 0.01741,-0.11028 -0.33082,-0.296c-0.12769,-0.25537 -0.27859,-0.49914 -0.45271,-0.7313c-0.05804,-0.04643 -0.5804,-0.31341 -1.56706,-0.80094l-0.62683,-0.38306l-0.48753,-0.41788c-0.26698,-0.08125 -0.65584,-0.37725 -1.16659,-0.888c-0.17412,-0.11608 -0.2902,-0.19734 -0.34824,-0.24377c-0.17412,-0.06965 -0.60941,-0.51075 -1.30588,-1.3233c0.19734,-0.1509 0.04063,-0.53396 -0.47012,-1.14918l-0.33082,-1.35812l0.12188,-0.76612c-0.11608,-0.49914 -0.1451,-0.96926 -0.08706,-1.41036c0.11608,-0.1509 0.20894,-0.32502 0.27859,-0.52235c-0.09286,-0.34824 0.19734,-0.97506 0.87059,-1.88048c-0.03482,-0.17412 0.46431,-0.76031 1.49741,-1.75859l1.11436,-0.57459l0.57459,-0.27859c0.24377,-0.01161 0.52235,-0.03482 0.83577,-0.06965c0.32502,-0.04643 0.82996,-0.04643 1.51483,0c0.69647,0.04643 1.15499,0.1451 1.37553,0.296c0.13929,0.05804 0.56298,0.34824 1.27106,0.87059c0.99828,0.87059 1.54385,1.67153 1.63671,2.40283c0.35984,1.09114 0.38306,2.24612 0.06965,3.46495c0,0.2902 -0.4411,0.62683 -1.3233,1.00989l-0.90541,-0.03482c-0.78934,-0.10447 -1.50322,-0.47592 -2.14165,-1.11436c-0.27859,-0.17412 -0.47592,-0.5862 -0.592,-1.23624c0.02322,-0.30181 0.02902,-0.4353 0.01741,-0.40047c-0.13929,-0.08125 -0.30181,-0.33082 -0.48753,-0.74871c-0.17412,-0.24377 -0.24377,-0.36565 -0.20894,-0.36565c0.03482,0 0.04643,0 0.03482,0c-0.53396,0.42949 -0.81255,0.92863 -0.83577,1.49742c-0.11608,0.45271 0.03482,1.01569 0.45271,1.68895c-0.06965,0.40628 0.01741,0.47012 0.26118,0.19153c0.19734,0.35984 0.4411,0.66745 0.7313,0.92283l0.41788,0.4353l1.21883,0.90541l0.48753,0.48753l0.47012,0.296c0.33663,0.1509 0.67325,0.35984 1.00989,0.62683c0.4411,0.32502 0.96926,0.92283 1.58448,1.79342c0.16251,0.24377 0.35984,0.87059 0.592,1.88048v1.30589l-0.20894,0.94024c-0.12769,0.11608 -0.35984,0.21475 -0.69647,0.296c0.27859,0.08125 0.28439,0.42369 0.01741,1.0273c-0.10447,0.19734 -0.38887,0.48173 -0.85318,0.85318c-0.66165,0.51075 -1.39875,0.89381 -2.2113,1.14918c-0.22055,0.06965 -0.4469,0.09867 -0.67906,0.08706zM191.56123,173.21637c1.48581,0 2.61758,0.38887 3.3953,1.16659c0,0.5804 -0.23796,1.41036 -0.71388,2.48989c-0.09286,0.40628 -0.26698,0.74871 -0.52235,1.0273l-0.45271,0.45271c-0.23216,0.13929 -0.42949,0.20894 -0.592,0.20894c-0.90541,0.23216 -1.64832,0.01741 -2.22871,-0.64424c-0.04643,-0.05804 -0.1451,-0.12769 -0.296,-0.20894c-0.13929,-0.08125 -0.24957,-0.32502 -0.33082,-0.7313c-0.19734,-0.30181 -0.296,-0.57459 -0.296,-0.81836c-0.05804,-1.50902 0.55137,-2.48989 1.82824,-2.9426zM191.16076,180.23333c0.27859,-0.1509 0.91122,-0.02322 1.89789,0.38306c0.09286,0.09286 0.20894,0.17412 0.34824,0.24377l0.53977,0.45271c0.22055,0.22055 0.33082,0.49914 0.33082,0.83577v2.61177c0,0.41788 -0.02322,0.78934 -0.06965,1.11436v0.15671c-0.05804,0.80094 -0.00581,2.60597 0.15671,5.41507c0.09286,0.85898 -0.20314,1.41616 -0.888,1.67153c-0.55718,0 -0.93443,-0.08125 -1.13177,-0.24377c0.10447,-0.16251 0.15671,-0.1509 0.15671,0.03482h-0.08706l-0.17412,0.06965c-0.24377,0 -0.49334,-0.06965 -0.74871,-0.20894c-0.25537,-0.1509 -0.37145,-0.30181 -0.34824,-0.45271c0.03482,-0.1509 0.01741,-0.13349 -0.05224,0.05224c-0.51075,-0.18572 -0.78353,-0.47592 -0.81836,-0.87059c-0.27859,-0.53396 -0.42369,-0.85318 -0.4353,-0.95765c-0.01161,-0.10447 -0.04643,-0.21475 -0.10447,-0.33082l-0.15671,-2.73365c0,-0.35984 0.02322,-0.62102 0.06965,-0.78353v-0.64424c0.01161,-0.23216 0.02902,-0.63843 0.05224,-1.21883c0.02322,-0.5804 0.05224,-1.0389 0.08706,-1.37553c-0.03482,-0.49914 -0.05224,-0.84737 -0.05224,-1.04471c0,-0.19734 0.12188,-0.296 0.36565,-0.296c-0.54557,-0.23216 -0.59781,-0.69647 -0.15671,-1.39295c0.41788,-0.32502 0.81836,-0.48753 1.20142,-0.48753zM203.44063,191.32466l-0.57459,-0.31341l-0.31341,-2.01977c-0.11608,-0.40628 -0.17412,-0.79514 -0.17412,-1.16659l0.12188,-1.30589c0,-0.35984 0.19734,-0.46431 0.592,-0.31341c-0.01161,0.39467 -0.18572,0.79514 -0.52235,1.20142c-0.02322,0.03482 -0.07545,0.12188 -0.15671,0.26118c-0.78934,1.24204 -1.25946,2.78008 -1.41036,4.61413c-0.30181,0.63843 -0.7313,0.95765 -1.28847,0.95765c-0.53396,-0.11608 -0.78934,-0.17412 -0.76612,-0.17412l-0.20894,0.03482h-0.47012c-0.71969,-0.06965 -1.18981,-0.35404 -1.41036,-0.85318c-0.11608,-0.17412 -0.17412,-0.52816 -0.17412,-1.06212v-0.40047l-0.10447,-1.63671v-2.45507c0,-0.26698 -0.01741,-0.59781 -0.05224,-0.99247c-0.03482,-0.47592 -0.04643,-1.1782 -0.03482,-2.10683c0.02322,-0.94024 0.01161,-1.44518 -0.03482,-1.51483c-0.03482,-0.06965 -0.05224,-0.20894 -0.05224,-0.41788c0,-0.22055 0.05804,-0.45271 0.17412,-0.69647c0.11608,-0.24377 0.47592,-0.45271 1.07953,-0.62683c0.32502,-0.18572 0.65004,-0.27859 0.97506,-0.27859c0.34824,0.06965 0.7371,0.19153 1.16659,0.36565c0.592,0.11608 0.888,0.59781 0.888,1.44518c0.03482,0.87059 0.03482,1.49742 0,1.88048c-0.02322,0.37145 -0.08706,0.54557 -0.19153,0.52235c0.90541,-1.95012 1.96173,-3.23279 3.16895,-3.84801c0.17412,-0.16251 0.4353,-0.24377 0.78353,-0.24377c0.35984,0 0.69067,0.11608 0.99247,0.34824c0.30181,0.23216 0.50494,0.38306 0.60941,0.45271c0.11608,0.05804 0.23216,0.15671 0.34824,0.296c0.12769,0.12769 0.24957,0.21475 0.36565,0.26118c0.37145,0.62683 0.48173,1.74118 0.33082,3.34307c-0.01161,0.20894 -0.02902,0.39467 -0.05224,0.55718c-0.02322,0.16251 -0.03482,0.51075 -0.03482,1.04471c0,0.53396 0.01161,0.90541 0.03482,1.11436c0.05804,0.70808 0.08706,1.12016 0.08706,1.23624l0.13929,0.99247c0.20894,0.47592 0.31341,0.82996 0.31341,1.06212c0.01161,0.23216 0.16251,0.57459 0.45271,1.0273c0.2902,0.63843 0.15671,1.14918 -0.40047,1.53224c-0.68487,0.34824 -1.0331,0.41788 -1.04471,0.20894c0,-0.19734 -0.07545,-0.19734 -0.22635,0c-0.1509,0.19734 -0.53977,0.27859 -1.16659,0.24377c-0.41788,-0.09286 -0.79514,-0.31922 -1.13177,-0.67906l-0.47012,-0.47012c-0.23216,-0.33663 -0.37145,-0.62102 -0.41788,-0.85318c-0.27859,-0.26698 -0.19153,-0.45851 0.26118,-0.57459zM213.5475,186.76276c-0.09286,0.46431 -0.16251,0.92863 -0.20894,1.39295c0,0.75451 0.06965,1.27106 0.20894,1.54965c0.11608,0.10447 0.18572,0.19153 0.20894,0.26118c0.03482,0.05804 -0.06384,0.1451 -0.296,0.26118c-0.09286,-0.24377 -0.09867,-0.45271 -0.01741,-0.62683l0.81836,-1.41036c0.40628,-1.11436 0.7429,-1.96754 1.00989,-2.55954c0,-0.02322 0.00581,-0.24377 0.01741,-0.66165c0.01161,-0.41788 -0.11608,-0.77773 -0.38306,-1.07953c-0.24377,-0.22055 -0.41208,-0.42949 -0.50494,-0.62683c-0.09286,-0.20894 -0.16251,-0.33082 -0.20894,-0.36565c0.05804,-0.02322 0.04063,0.1509 -0.05224,0.52235c0,0.32502 -0.05804,0.63843 -0.17412,0.94024c-0.17412,0.4411 -0.26118,0.82416 -0.26118,1.14918c-0.10447,0.4411 -0.15671,0.85898 -0.15671,1.25365zM220.05953,184.27287c0,0.45271 0.04643,0.92283 0.13929,1.41036c0,0.17412 0.06384,0.79514 0.19153,1.86306c0.13929,1.05631 0.20894,2.03718 0.20894,2.9426c0,2.07781 -0.16831,3.65068 -0.50494,4.7186c-0.05804,0.39467 -0.20894,0.77773 -0.45271,1.14918c-0.24377,0.37145 -0.32502,0.60941 -0.24377,0.71388c-0.18572,0.33663 -0.60361,0.91702 -1.25365,1.74118l-0.50494,0.47012c-0.16251,-0.32502 -0.23216,-0.26698 -0.20894,0.17412c-0.89381,0.53396 -1.74118,0.80094 -2.54212,0.80094c-0.80095,0 -1.4684,-0.37725 -2.00236,-1.13177c-0.12769,0.35984 -0.45851,0.34824 -0.99247,-0.03482c-0.35984,-0.12769 -0.64424,-0.53396 -0.85318,-1.21883c-0.03482,-0.25537 -0.05224,-0.63263 -0.05224,-1.13177c0.40628,0.34824 0.46431,0.30181 0.17412,-0.13929c0.04643,-0.12769 0.13929,-0.32502 0.27859,-0.592c0.19734,-0.67325 0.70228,-0.94024 1.51483,-0.80094c0.33663,0.02322 0.61522,0.12188 0.83577,0.296c0.12769,0.11608 0.30761,0.41788 0.53977,0.90541c0.10447,0.27859 0.13929,0.46431 0.10447,0.55718c-0.02322,0.10447 -0.04063,0.06965 -0.05224,-0.10447c0.17412,-0.01161 0.37145,-0.24377 0.592,-0.69647c0.20894,0.10447 0.296,0.02902 0.26118,-0.22635c0.41788,-0.49914 0.65004,-1.07953 0.69647,-1.74118c0,-0.08125 0.01741,-0.4411 0.05224,-1.07953v-0.81836c-0.03482,-0.53396 -0.02322,-1.24204 0.03482,-2.12424c0,-0.48753 0.16831,-0.75451 0.50494,-0.80094c0.27859,0.23216 0.08125,0.99247 -0.592,2.28095l-0.296,0.40047c-0.4411,0.63843 -1.09694,1.0273 -1.96754,1.16659c-0.18572,-0.12769 -0.41788,-0.19153 -0.69647,-0.19153h-0.20894c-0.82416,-0.09286 -1.41616,-0.27278 -1.77601,-0.53977c-0.38306,-0.1509 -0.69067,-0.42949 -0.92283,-0.83577l-0.48753,-0.62683c0.10447,-0.13929 0.09867,-0.24377 -0.01741,-0.31341c-0.10447,-0.06965 -0.16831,-0.12188 -0.19153,-0.15671c-0.02322,-0.03482 -0.07545,-0.12188 -0.15671,-0.26118c-0.08125,-0.13929 -0.16251,-0.54557 -0.24377,-1.21883c-0.09286,-1.04471 -0.06965,-1.81663 0.06965,-2.31577c0,-0.39467 0.02902,-0.70808 0.08706,-0.94024c0,-0.53396 0.06965,-1.07953 0.20894,-1.63671c0,-0.25537 0.09286,-0.77193 0.27859,-1.54965c0.24377,-0.5804 0.40628,-0.94604 0.48753,-1.09694l0.48753,-0.7313c0.19734,-0.24377 0.37145,-0.4411 0.52235,-0.592c0.1509,-0.16251 0.38887,-0.296 0.71388,-0.40047l0.31341,-0.20894l0.592,-0.15671c0.47592,-0.1509 1.06793,-0.11608 1.77601,0.10447c0.27859,0 0.54557,0.09286 0.80094,0.27859c0.37145,0.12769 0.60941,0.22055 0.71388,0.27859c0.11608,0.04643 0.13349,0.1509 0.05224,0.31341c-0.03482,-0.32502 0.13929,-0.55718 0.52235,-0.69647c0.17412,-0.09286 0.53977,-0.10447 1.09694,-0.03482c0.06965,0.03482 0.1509,0.04643 0.24377,0.03482c0.76612,-0.05804 1.30008,0.33663 1.60189,1.184c0.12769,0.53396 0.24377,1.26526 0.34824,2.19389zM226.32045,172.50249l0.83577,-0.17412c0.66165,0.06965 1.184,0.25537 1.56706,0.55718c0.38306,0.30181 0.55137,0.71388 0.50494,1.23624c-0.30181,1.0331 -0.53977,2.07201 -0.71388,3.11671v0.41788c-0.06965,0.97506 -0.17412,1.79342 -0.31341,2.45507l-0.71388,6.70355v2.01977c-0.02322,1.52063 0.05804,2.72205 0.24377,3.60425l0.06965,0.4353c-0.02322,0.56878 -0.296,0.92283 -0.81836,1.06212c-0.52235,0.13929 -0.85898,0.19153 -1.00989,0.15671c-0.1509,-0.02322 -0.30181,-0.05804 -0.45271,-0.10447l-0.85318,-0.31341c-0.40628,-0.20894 -0.81836,-0.53977 -1.23624,-0.99247c-0.41788,-0.40628 -0.49334,-0.70808 -0.22635,-0.90541c-0.18572,0.02322 -0.36565,-0.8822 -0.53977,-2.71624c0.04643,-0.37145 0.06965,-0.66745 0.06965,-0.888v-0.50494c0,-0.40628 0.00581,-0.69647 0.01741,-0.87059c0,-0.05804 0.02322,-0.30761 0.06965,-0.74871c0.09286,-1.14918 0.1509,-1.7702 0.17412,-1.86306v-0.40047c0,-1.23043 0.09286,-2.17648 0.27859,-2.83813c-0.02322,-0.10447 -0.03482,-0.30181 -0.03482,-0.592c0.19734,-0.35984 0.26698,-1.10275 0.20894,-2.22871c0.34824,-1.21883 0.55137,-2.04299 0.60941,-2.47248c0.05804,-0.42949 0.13929,-0.7429 0.24377,-0.94024c0,-0.40628 0.20314,-0.84157 0.60941,-1.30589c0.41788,-0.47592 0.888,-0.77773 1.41036,-0.90541zM235.60144,181.83522c0.23216,-0.1509 0.31922,-0.1509 0.26118,0c-0.05804,0.13929 -0.09867,0.23216 -0.12188,0.27859c-0.75451,1.19561 -1.15499,2.30417 -1.20142,3.32566c0.06965,0.01161 0.24957,-0.20894 0.53977,-0.66165c0.53396,-1.69475 0.70808,-2.67561 0.52235,-2.9426zM233.7732,193.95384l-0.53977,-0.08706l-0.296,-0.57459c-0.24377,0.12769 -0.4411,0.05224 -0.592,-0.22635c-0.19734,-0.23216 -0.61522,-0.76612 -1.25365,-1.60189l-0.48753,-1.82824c0,-0.27859 -0.04643,-0.51655 -0.13929,-0.71388c-0.22055,-0.92863 -0.35404,-1.4684 -0.40047,-1.6193c-0.03482,-0.1509 -0.05804,-0.54557 -0.06965,-1.184c-0.01161,-0.63843 0.01741,-1.11436 0.08706,-1.42777c0.05804,-0.42949 0.45271,-1.45099 1.184,-3.06448c0.13929,-0.12769 0.22055,-0.31341 0.24377,-0.55718l0.57459,-0.83577c0.51075,-0.592 1.10855,-0.86478 1.79342,-0.81836c-0.34824,-0.32502 -0.01741,-0.60941 0.99247,-0.85318c0.24377,-0.01161 0.64424,0.04643 1.20142,0.17412c1.3349,0.31341 2.19969,0.7429 2.59436,1.28847l0.08706,0.15671c0.4411,0.61522 0.69647,1.55546 0.76612,2.82071c-0.05804,0.52235 -0.11028,0.96926 -0.15671,1.34071c-0.04643,0.35984 -0.28439,1.02149 -0.71388,1.98495c-0.32502,0.61522 -0.65584,1.12596 -0.99247,1.53224c-0.5804,0.41788 -0.96926,0.59781 -1.16659,0.53977c-0.06965,0.10447 -0.28439,0.15671 -0.64424,0.15671h-0.80094c-0.03482,-0.12769 -0.15671,-0.16251 -0.36565,-0.10447c-0.19734,0.04643 -0.30761,0.00581 -0.33082,-0.12188c0.11608,0 0.28439,0.36565 0.50494,1.09694c0.23216,0.7313 0.38306,1.14337 0.45271,1.23624c0.33663,0.24377 0.5862,0.40047 0.74871,0.47012c0.16251,0.06965 0.37725,0.08125 0.64424,0.03482c0.26698,-0.04643 0.4469,-0.11608 0.53977,-0.20894l0.7313,-0.92283c0.78934,-1.06793 1.60769,-1.14337 2.45507,-0.22635c0.38306,0.40628 0.53396,0.80094 0.45271,1.184c-0.08125,0.37145 -0.31341,0.95765 -0.69647,1.75859c-0.33663,0.53396 -0.71388,0.99828 -1.13177,1.39295c-0.7429,0.39467 -1.21883,0.592 -1.42777,0.592c-0.23216,0.01161 -0.48753,-0.01161 -0.76612,-0.06965c-0.19734,0.10447 -0.76612,0.04063 -1.70636,-0.19153c0.35984,-0.31341 0.47012,-0.38306 0.33082,-0.20894c-0.12769,0.17412 -0.82416,0.00581 -2.08942,-0.50494l1.82824,0.03482c-0.03482,0.40628 -0.20314,0.60941 -0.50494,0.60941l-0.83577,-0.45271zM248.5115,183.68087c0.2902,-0.69647 0.50494,-1.04471 0.64424,-1.04471c0.13929,0.20894 0.19153,0.39467 0.15671,0.55718l-0.97506,1.11436c-0.94024,1.16079 -1.41036,1.78761 -1.41036,1.88048c0,0.12769 -0.06384,0.32502 -0.19153,0.592l0.01741,0.34824l-0.05224,1.30589v0.31341c0,0.81255 -0.16831,1.39295 -0.50494,1.74118c-0.32502,-0.26698 -0.30181,-0.51655 0.06965,-0.74871l0.4353,-0.60941c0.48753,-0.592 0.78934,-0.99247 0.90541,-1.20142c0.40628,-1.25365 0.60941,-1.93271 0.60941,-2.03718c0,-0.33663 0.07545,-0.76031 0.22635,-1.27106c0,-0.16251 0.02322,-0.35984 0.06965,-0.592zM242.15619,183.22816l0.12188,-1.48c0.04643,-0.11608 0.04643,-0.27859 0,-0.48753l0.22635,-1.27106c0,-0.12769 -0.01161,-0.31341 -0.03482,-0.55718c-0.02322,-0.25537 0.00581,-0.47592 0.08706,-0.66165c0.16251,-0.31341 0.55718,-0.36565 1.184,-0.15671l-2.36801,0.60941c1.63671,-0.96346 2.67561,-1.38134 3.11671,-1.25365c0.45271,0.12769 0.85898,0.24957 1.21883,0.36565c0.19734,0.25537 0.45851,0.53977 0.78353,0.85318l0.01741,1.20142c0,0.47592 0.03482,0.99247 0.10447,1.54965c-0.18572,0.18572 -0.38306,0.2902 -0.592,0.31341l0.27859,-0.55718c-0.19734,-0.18572 -0.06384,-0.49334 0.40047,-0.92283c0.46431,-0.42949 0.78934,-0.592 0.97506,-0.48753c-0.19734,-0.30181 -0.02902,-0.53396 0.50494,-0.69647c0.65004,-0.13929 1.15499,-0.12188 1.51483,0.05224c0.37145,0.16251 0.59781,0.19153 0.67906,0.08706l1.58448,0.67906c-0.30181,0.26698 -0.32502,0.28439 -0.06965,0.05224l0.17412,0.15671c0.16251,-0.03482 0.33082,0.02902 0.50494,0.19153c0.53396,0.08125 0.7371,0.45851 0.60941,1.13177c-0.18572,-0.03482 -0.15671,-0.04063 0.08706,-0.01741v0.90541c0,0.37145 -0.09867,0.97506 -0.296,1.81083c-0.19734,0.83577 -0.32502,1.3291 -0.38306,1.48c-0.04643,0.13929 -0.10447,0.31922 -0.17412,0.53977c-0.06965,0.22055 -0.1451,0.42369 -0.22635,0.60941c-0.09286,0.35984 -0.30181,0.85318 -0.62683,1.48c-0.32502,0.62683 -0.64424,1.12016 -0.95765,1.48c-0.71969,0.99828 -1.55546,1.82243 -2.5073,2.47248c-0.99828,0.38306 -1.65412,0.61522 -1.96754,0.69647c-0.04643,-0.34824 0.13349,-0.20314 0.53977,0.4353v2.14165l0.08706,1.28847l0.03482,1.35812c0.04643,0.82416 -0.04063,1.34652 -0.26118,1.56706l-0.45271,0.36565c-0.46431,0.19734 -0.86478,0.22635 -1.20142,0.08706c-0.4411,-0.13929 -0.65004,-0.296 -0.62683,-0.47012c-0.1509,0.1509 -0.34243,0.12769 -0.57459,-0.06965l-0.08706,-0.03482c-0.51075,0.05804 -0.82996,-0.09867 -0.95765,-0.47012c-0.25537,-0.20894 -0.36565,-0.41208 -0.33082,-0.60941l-0.4353,-0.52235c-0.16251,-0.42949 -0.24377,-0.77773 -0.24377,-1.04471c-0.12769,-0.47592 -0.16831,-0.85318 -0.12188,-1.13177l-0.05224,-1.07953v-1.58448c0,-0.48753 -0.01161,-0.77773 -0.03482,-0.87059c-0.05804,-0.18572 -0.04643,-1.31169 0.03482,-3.37789c0.05804,-0.39467 0.08706,-0.63843 0.08706,-0.7313l0.4353,-3.67389l0.10447,-0.99247v-0.26118c0.05804,-0.24377 0.08706,-0.40628 0.08706,-0.48753zM254.93321,176.83803c0.04643,-0.13929 0.05804,-0.27278 0.03482,-0.40047c-0.01161,-0.13929 0.01161,-0.592 0.06965,-1.35812c0.06965,-0.12769 0.07545,-0.40047 0.01741,-0.81836c0,-0.45271 0.1451,-0.8822 0.4353,-1.28847c0.30181,-0.41788 0.93443,-0.91122 1.89789,-1.48l-0.592,1.06212c-0.12769,-0.4411 0.01741,-0.69647 0.4353,-0.76612c0.94024,-0.12769 1.69475,0.28439 2.26354,1.23624c-0.1509,0.24377 -0.22635,0.69067 -0.22635,1.34071v3.01224c0.02322,0.49914 0.03482,1.1782 0.03482,2.03718v1.11436l0.10447,1.93271c0,0.49914 0.02902,1.00408 0.08706,1.51483c0,0.94024 0.01741,1.51483 0.05224,1.72377c0.04643,0.19734 0.06965,0.34824 0.06965,0.45271v0.48753c0,0.38306 0.02322,0.67325 0.06965,0.87059c0,0.16251 0.05804,0.38306 0.17412,0.66165c-0.10447,0.33663 -0.12769,0.62102 -0.06965,0.85318c0.13929,0.31341 0.18572,0.64424 0.13929,0.99247c0.12769,0.23216 0.16831,0.55718 0.12188,0.97506l0.03482,0.06965l0.08706,0.296c0.11608,0.39467 0.06384,0.84737 -0.15671,1.35812c-0.20894,0.49914 -0.64424,0.84157 -1.30589,1.0273c-0.65004,0.18572 -1.38134,-0.12769 -2.19389,-0.94024c0.24377,-0.17412 0.22055,-0.18572 -0.06965,-0.03482c-0.39467,-0.23216 -0.67906,-0.80094 -0.85318,-1.70636c-0.12769,-0.23216 -0.19153,-0.41208 -0.19153,-0.53977c-0.22055,-0.17412 -0.33082,-0.53977 -0.33082,-1.09694v-0.64424c-0.01161,-0.17412 -0.01161,-0.25537 0,-0.24377c-0.12769,-0.1509 -0.21475,-0.47012 -0.26118,-0.95765l0.05224,-2.01977c0,-0.62683 -0.01741,-1.12016 -0.05224,-1.48v-2.01977c-0.05804,-0.65004 -0.08706,-1.16079 -0.08706,-1.53224c0,-0.37145 0.06965,-1.07953 0.20894,-2.12424c0,0.02322 -0.03482,-0.05224 -0.10447,-0.22635c0.06965,-0.38306 0.10447,-0.82996 0.10447,-1.34071zM267.30017,183.8724l0.17412,0.13929c0.17412,0.05804 -0.00581,0.48173 -0.53977,1.27106c-0.7313,1.00989 -1.25365,2.00236 -1.56706,2.97742c-0.19734,0.56878 -0.31341,1.02149 -0.34824,1.35812c0,0.33663 -0.03482,0.55137 -0.10447,0.64424c-0.09286,0.08125 -0.12188,0.06384 -0.08706,-0.05224c0.03482,-0.12769 0.04063,-0.27859 0.01741,-0.45271c0.17412,-0.09286 0.34243,-0.28439 0.50494,-0.57459c0.2902,-0.40628 0.52235,-0.55137 0.69647,-0.4353l-0.03482,-0.66165l0.99247,-0.55718c-0.56878,0.38306 -0.67906,0.05804 -0.33082,-0.97506c0.20894,-0.35984 0.31922,-0.61522 0.33082,-0.76612zM261.04933,190.90677c-0.06965,-0.84737 -0.05804,-1.53805 0.03482,-2.07201c0.46431,-1.68314 0.94024,-2.91358 1.42777,-3.6913c-0.24377,-0.05804 -0.2902,-0.35404 -0.13929,-0.888c0.24377,-0.76612 0.55718,-1.18981 0.94024,-1.27106c-0.24377,-0.11608 -0.2902,-0.30181 -0.13929,-0.55718c0,-0.24377 0.27859,-0.63263 0.83577,-1.16659l0.33082,-0.38306c0.48753,-0.42949 1.12016,-0.64424 1.89789,-0.64424c0.27859,-0.03482 0.62683,-0.01741 1.04471,0.05224c0.66165,0.2902 1.36973,0.70228 2.12424,1.23624l0.20894,0.12188c0.13929,0.03482 0.24957,0.06965 0.33082,0.10447c0.05804,0 0.28439,0.06384 0.67906,0.19153l0.4353,0.34824c0.30181,0.19734 0.51655,0.59781 0.64424,1.20142c-0.17412,0.1509 -0.25537,0.47012 -0.24377,0.95765c-0.06965,0.82416 -0.00581,1.79922 0.19153,2.92518c0.08125,1.04471 0.26698,2.17067 0.55718,3.37789c0,0.08125 0.07545,0.35404 0.22635,0.81836c0.16251,0.45271 0.22635,0.76612 0.19153,0.94024c0,0.87059 -0.67325,1.30589 -2.01977,1.30589c-1.1724,-0.06965 -1.99075,-0.59781 -2.45507,-1.58448c-0.02322,-0.06965 -0.06965,-0.17992 -0.13929,-0.33082c-0.2902,-0.27859 -0.45851,-0.56878 -0.50494,-0.87059l0.22635,-0.31341c-0.24377,0.03482 -0.19153,-0.05804 0.15671,-0.27859c0.09286,0.49914 -0.03482,0.92283 -0.38306,1.27106l-0.60941,0.97506l-0.31341,0.10447c0.02322,0.24377 -0.25537,0.4469 -0.83577,0.60941c-0.56878,0.16251 -0.96926,0.19153 -1.20142,0.08706c-0.06965,0 -0.22635,-0.03482 -0.47012,-0.10447l-1.30589,-0.52235c-0.41788,-0.10447 -0.71969,-0.28439 -0.90541,-0.53977c-0.37145,-0.24377 -0.37725,-0.47592 -0.01741,-0.69647c-0.5804,-0.27859 -0.84737,-0.51655 -0.80094,-0.71388zM284.93301,185.24793l-0.12188,0.60941l-0.05224,0.64424c0,0.19734 -0.02902,0.41208 -0.08706,0.64424c0,0.82416 -0.06384,1.44518 -0.19153,1.86306c0,0.49914 -0.07545,1.11436 -0.22635,1.84565c-0.05804,0.54557 -0.08125,0.96926 -0.06965,1.27106c-0.09286,0.20894 -0.13929,0.34824 -0.13929,0.41788c0,0.11608 -0.04063,0.38306 -0.12188,0.80094c-0.08125,0.41788 -0.16831,0.66745 -0.26118,0.74871c0.01161,0.1509 -0.04643,0.35404 -0.17412,0.60941c-0.09286,0.16251 -0.16251,0.35984 -0.20894,0.592c-0.04643,0.24377 -0.16251,0.35404 -0.34824,0.33082c-0.17412,-0.01161 -0.09867,0.03482 0.22635,0.13929l-1.04471,0.78353c0.35984,0.1509 0.41788,0.37145 0.17412,0.66165c-0.03482,0.12769 -0.23216,0.27859 -0.592,0.45271c0.17412,0.23216 -0.16251,0.60361 -1.00989,1.11436c-0.26698,0.22055 -0.5862,0.37725 -0.95765,0.47012l-0.17412,0.06965c-0.37145,0.23216 -0.81255,0.35404 -1.3233,0.36565c-0.94024,0.13929 -1.66573,0.12188 -2.17648,-0.05224l-0.57459,-0.81836l0.592,0.94024c-0.95184,-0.42949 -1.54965,-0.76031 -1.79342,-0.99247c-0.48753,-0.24377 -0.82416,-0.52235 -1.00989,-0.83577c-0.18572,-0.30181 -0.34243,-0.75451 -0.47012,-1.35812c-0.05804,-0.33663 0.02322,-0.74871 0.24377,-1.23624c0.23216,-0.48753 0.60941,-0.71969 1.13177,-0.69647c0.16251,0 0.55137,0.17412 1.16659,0.52235c0.05804,0.09286 0.26698,0.28439 0.62683,0.57459c0.33663,0.40628 0.64424,0.60941 0.92283,0.60941c0.09286,0 0.16831,-0.01741 0.22635,-0.05224c0.06965,-0.02322 0.31341,0.12188 0.7313,0.4353c-0.61522,-0.09286 -0.74871,-0.25537 -0.40047,-0.48753c0.34824,-0.23216 0.5804,-0.35984 0.69647,-0.38306c-0.02322,0.01161 0,-0.02902 0.06965,-0.12188l0.38306,-0.296c0.03482,-0.04643 0.16251,-0.17412 0.38306,-0.38306l0.15671,-0.20894c0,-0.13929 0.25537,-0.30761 0.76612,-0.50494c-0.35984,-0.08125 -0.40628,-0.24377 -0.13929,-0.48753c-0.10447,-0.05804 -0.12769,-0.18572 -0.06965,-0.38306l0.22635,-1.04471l-0.05224,-0.24377c0.12769,-0.27859 0.19153,-0.53396 0.19153,-0.76612l0.66165,-0.67906l0.10447,0.06965l-0.50494,0.76612c0.32502,0.16251 0.4353,0.30181 0.33082,0.41788c-0.10447,0.11608 -0.19734,0.23216 -0.27859,0.34824l-0.64424,0.888l-0.38306,0.20894c-0.62683,0.53396 -1.38134,0.71969 -2.26354,0.55718c-0.26698,-0.1509 -0.53396,-0.24377 -0.80094,-0.27859c-0.26698,-0.03482 -0.52235,-0.17992 -0.76612,-0.4353c-0.26698,-0.09286 -0.56878,-0.31922 -0.90541,-0.67906c-0.1509,-0.30181 -0.22635,-0.49914 -0.22635,-0.592c0,-0.09286 -0.04063,-0.23216 -0.12188,-0.41788c-0.20894,-1.10275 -0.26118,-2.01977 -0.15671,-2.75107c-0.13929,-0.05804 -0.19153,-0.27278 -0.15671,-0.64424c0.03482,-0.37145 0.05224,-0.60941 0.05224,-0.71388c0,-0.11608 0.01741,-0.28439 0.05224,-0.50494l0.15671,-1.06212c0.11608,-0.1509 0.20314,-0.40047 0.26118,-0.74871c0.09286,-0.55718 0.31922,-1.22463 0.67906,-2.00236l0.15671,-0.41788l0.20894,-0.34824c0,-0.17412 0.09286,-0.45851 0.27859,-0.85318c0.18572,-0.39467 0.30761,-0.63263 0.36565,-0.71388c0.05804,-0.09286 0.13929,-0.19153 0.24377,-0.296c0.10447,-0.10447 0.21475,-0.22055 0.33082,-0.34824c0.41788,-0.39467 0.90541,-0.53977 1.46259,-0.4353c0.56878,0.10447 1.0273,0.28439 1.37553,0.53977c0.34824,0.25537 0.4469,0.7371 0.296,1.44518c-0.37145,0.87059 -0.46431,1.34071 -0.27859,1.41036l-0.20894,0.57459c0,0.2902 -0.08125,0.49914 -0.24377,0.62683c0.08125,0.03482 0.02902,0.53977 -0.15671,1.51483c-0.11608,0.23216 -0.17412,0.35404 -0.17412,0.36565c0,0.22055 -0.05224,0.48753 -0.15671,0.80094c-0.10447,0.30181 -0.17412,0.51655 -0.20894,0.64424c-0.04643,0.34824 -0.08706,0.67906 -0.12188,0.99247c-0.02322,0.31341 -0.27859,0.52816 -0.76612,0.64424c0.49914,-0.38306 0.67906,-0.23796 0.53977,0.4353v0.26118c-0.1509,0 -0.17412,-0.02902 -0.06965,-0.08706c0.11608,-0.05804 0.27278,-0.25537 0.47012,-0.592c0.47592,-0.97506 0.7429,-1.52643 0.80094,-1.65412l0.22635,-0.41788l0.12188,-0.38306c0.18572,-0.13929 0.296,-0.23796 0.33082,-0.296l0.31341,-0.22635c-0.12769,-0.06965 0.20894,-1.31169 1.00989,-3.72613l0.15671,-0.69647c0,-0.54557 0.1451,-0.99828 0.4353,-1.35812c0.2902,-0.37145 0.62102,-0.56878 0.99247,-0.592c0.39467,0 0.90541,0.13349 1.53224,0.40047c0.52235,0 0.83577,0.46431 0.94024,1.39295c0,0.41788 -0.08706,0.96346 -0.26118,1.63671c-0.04643,0.32502 -0.06965,0.63263 -0.06965,0.92283c-0.05804,0.24377 -0.08706,0.55137 -0.08706,0.92283zM292.18839,182.81028c0.05804,-0.22055 0.06384,-0.4411 0.01741,-0.66165c0.08125,0.06965 0.07545,0.10447 -0.01741,0.10447c-0.02322,0 -0.11028,0.17412 -0.26118,0.52235c-0.30181,0.45271 -0.56878,1.07953 -0.80094,1.88048l-0.45271,-0.592c0.17412,0.8822 0.09286,1.29428 -0.24377,1.23624c0.27859,-0.26698 0.47012,-0.40047 0.57459,-0.40047c0.10447,-0.01161 0.22635,-0.07545 0.36565,-0.19153c0.35984,-0.33663 0.63263,-0.96926 0.81836,-1.89789zM292.71075,187.84229l-1.09694,0.08706c-0.69647,0 -1.04471,-0.09286 -1.04471,-0.27859h0.27859c0.04643,1.45099 0.38887,2.36801 1.0273,2.75107c0.13929,0.05804 0.23796,0.08706 0.296,0.08706c0.05804,0 0.1451,-0.03482 0.26118,-0.10447c-0.01161,0 -0.01161,-0.00581 0,-0.01741c0.06965,-0.49914 0.2902,-0.70228 0.66165,-0.60941c0.85898,-1.184 1.65412,-1.58448 2.38542,-1.20142c0.61522,0.39467 0.92283,0.78353 0.92283,1.16659c0,0.26698 -0.11608,0.41788 -0.34824,0.45271h0.19153c0,0.2902 -0.13929,0.71969 -0.41788,1.28847c-0.26698,0.56878 -0.53977,1.0331 -0.81836,1.39295c-0.17412,0.38306 -0.42949,0.66165 -0.76612,0.83577c-0.7429,0.46431 -1.53224,0.65004 -2.36801,0.55718c-0.32502,-0.02322 -0.49334,-0.1451 -0.50494,-0.36565c0,-0.01161 -0.02322,0.06965 -0.06965,0.24377l-0.33082,-0.05224c-0.26698,0 -0.51075,-0.06965 -0.7313,-0.20894c-0.05804,-0.20894 -0.12188,-0.23796 -0.19153,-0.08706c-0.66165,-0.25537 -1.05631,-0.4353 -1.184,-0.53977c-0.11608,-0.10447 -0.22055,-0.17992 -0.31341,-0.22635c-0.09286,-0.05804 -0.30181,-0.2902 -0.62683,-0.69647c-0.27859,-0.23216 -0.4469,-0.40047 -0.50494,-0.50494c-0.09286,-0.12769 -0.20894,-0.24957 -0.34824,-0.36565c-0.12769,-0.11608 -0.20314,-0.33663 -0.22635,-0.66165c-0.09286,-0.11608 -0.13929,-0.27859 -0.13929,-0.48753l-0.10447,-0.24377c0.1509,-0.08125 0.16251,-0.07545 0.03482,0.01741c-0.26698,-0.26698 -0.40047,-0.56878 -0.40047,-0.90541l0.40047,-0.10447c-0.41788,0.11608 -0.56878,-0.06965 -0.45271,-0.55718v-0.67906l-0.03482,-0.26118v-0.15671c-0.03482,-0.12769 -0.01741,-0.34243 0.05224,-0.64424l-0.03482,-0.33082c0.2902,0.01161 0.33082,-0.1451 0.12188,-0.47012c0.10447,-0.54557 0.23216,-0.82996 0.38306,-0.85318l-0.13929,-0.17412c0.02322,-0.06965 0.03482,-0.15671 0.03482,-0.26118c0,-0.10447 0.02902,-0.22635 0.08706,-0.36565c0.05804,-0.1509 0.22055,-0.62102 0.48753,-1.41036l0.48753,-1.06212c0.16251,-0.34824 0.37725,-0.68487 0.64424,-1.00989c0.01161,-0.05804 0.11608,-0.26698 0.31341,-0.62683l0.41788,-0.38306c0.17412,-0.24377 0.42369,-0.42369 0.74871,-0.53977c0.34824,-0.17412 0.62102,-0.26118 0.81836,-0.26118l0.92283,-0.13929c0.11608,0.03482 0.17412,0.05224 0.17412,0.05224h0.40047c0.53396,0.04643 0.95765,0.1451 1.27106,0.296c0.65004,0.20894 1.15499,0.48753 1.51483,0.83577c0.7313,0.82416 1.09694,1.61349 1.09694,2.36801c0,0.7429 -0.11608,1.38714 -0.34824,1.93271c-0.51075,1.1724 -0.8764,1.90949 -1.09694,2.2113c-0.46431,0.84737 -1.06212,1.27106 -1.79342,1.27106zM297.67794,183.75052c0,-0.18572 -0.02322,-0.39467 -0.06965,-0.62683v-0.31341c0.01161,-0.09286 0.00581,-0.20314 -0.01741,-0.33082c0,-0.2902 0.01741,-0.51075 0.05224,-0.66165c0,-0.48753 0.12769,-0.77193 0.38306,-0.85318c-0.1509,-0.13929 -0.04643,-0.45271 0.31341,-0.94024c0.12769,-0.11608 0.33663,-0.2902 0.62683,-0.52235c0.42949,-0.13929 0.68487,-0.13929 0.76612,0c0.05804,-0.30181 0.42369,-0.35404 1.09694,-0.15671c0.19734,0.01161 0.51655,0.08706 0.95765,0.22635c0.26698,0.06965 0.62683,0.39467 1.07953,0.97506c-0.10447,0.25537 -0.20314,0.61522 -0.296,1.07953c-0.08125,0.45271 -0.27859,0.74871 -0.592,0.888c-0.23216,-0.24377 -0.16251,-0.47012 0.20894,-0.67906c0.38306,-0.22055 0.49334,-0.45271 0.33082,-0.69647c0.69647,-0.30181 1.3233,-0.51655 1.88048,-0.64424c0.90541,-0.06965 1.49161,0 1.75859,0.20894c0.24377,0.08125 0.4353,0.21475 0.57459,0.40047c0.25537,0.20894 0.47012,0.60361 0.64424,1.184c0.17412,0.56878 0.07545,0.99247 -0.296,1.27106c-0.19734,0.16251 -0.70228,0.28439 -1.51483,0.36565c-0.02322,-0.27859 -0.05804,-0.23796 -0.10447,0.12188l-1.56706,1.23624c-0.2902,0.1509 -0.45271,0.23796 -0.48753,0.26118l-0.50494,0.92283c-0.12769,-0.08125 -0.16831,0.10447 -0.12188,0.55718c0.05804,0.4411 0.09867,0.76612 0.12188,0.97506c0.02322,0.19734 0.02322,0.87059 0,2.01977v1.27106c0,0.7313 -0.01161,1.1782 -0.03482,1.34071c-0.02322,0.1509 -0.12188,0.40047 -0.296,0.74871c-0.19734,0.30181 -0.49914,0.45271 -0.90541,0.45271c-1.10275,0.83577 -1.83405,0.7429 -2.19389,-0.27859l-0.17412,-0.10447c-0.30181,-0.1509 -0.48753,-0.33663 -0.55718,-0.55718c-0.19734,-0.26698 -0.25537,-0.47012 -0.17412,-0.60941l-0.20894,-0.26118l0.22635,-0.40047c-0.33663,0.13929 -0.52816,-0.22635 -0.57459,-1.09694c-0.04643,-0.8822 -0.06965,-1.39875 -0.06965,-1.54965c0,-0.16251 -0.03482,-0.42949 -0.10447,-0.80094c0.16251,-0.16251 0.23796,-0.35984 0.22635,-0.592c0,-0.23216 -0.02902,-0.47592 -0.08706,-0.7313c-0.05804,-0.26698 -0.04063,-0.42369 0.05224,-0.47012c0.10447,-0.04643 0.09286,-0.19153 -0.03482,-0.4353c-0.09286,-0.12769 -0.11028,-0.35404 -0.05224,-0.67906z" data-paper-data="{&quot;origPos&quot;:null}" fill="#ffffff" stroke="none" stroke-width="1" stroke-linecap="square"/></g></g></svg>