<svg version="1.1" xmlns="http://www.w3.org/2000/svg" xmlns:xlink="http://www.w3.org/1999/xlink" width="319.64977" height="164.67732"><g transform="translate(-49.79234,61.87727)"><g data-paper-data="{&quot;isPaintingLayer&quot;:true}" fill="none" fill-rule="nonzero" stroke="none" stroke-width="none" stroke-linecap="none" stroke-linejoin="miter" stroke-miterlimit="10" stroke-dasharray="" stroke-dashoffset="0" font-family="none" font-weight="none" font-size="none" text-anchor="none" style="mix-blend-mode: normal"><g data-paper-data="{&quot;origPos&quot;:null}" stroke="none" stroke-width="0" stroke-linecap="butt"><g data-paper-data="{&quot;origPos&quot;:null}"><path d="M67.17484,54.4752l-4.22689,-29.32403l14.66201,-2.11344l4.22689,29.32403z" data-paper-data="{&quot;origPos&quot;:null,&quot;origRot&quot;:0}" fill="#c7c7c7"/><path d="M52.45647,33.49546l-2.66413,-18.48241l37.16538,-5.93375l11.21283,8.39353l-8.5487,10.08888z" data-paper-data="{&quot;origPos&quot;:null,&quot;origRot&quot;:0}" fill="#b6b6b6"/></g><path d="M75.4365,24.44774c0,0 -0.54399,-5.5692 -1.0517,-8.73494c-0.31911,-1.98971 -1.06692,-4.47527 -1.06692,-4.47527l4.11261,-0.62312c0,0 -0.90371,3.9619 -1.32259,6.73702c-0.3593,2.38034 -0.6714,7.09631 -0.6714,7.09631z" data-paper-data="{&quot;origPos&quot;:null}" fill="#838383"/><path d="M83.64521,14.94774c0,0 0.54399,5.5692 1.0517,8.73494c0.3191,1.98971 1.06691,4.47527 1.06691,4.47527l-4.11261,0.62312c0,0 0.90371,-3.9619 1.32259,-6.73701c0.3593,-2.38034 0.6714,-7.09632 0.6714,-7.09632z" data-paper-data="{&quot;origPos&quot;:null,&quot;index&quot;:null}" fill="#838383"/><path d="M58.0452,18.94774c0,0 0.54398,5.56919 1.0517,8.73493c0.3191,1.98971 1.06691,4.47527 1.06691,4.47527l-4.11261,0.62312c0,0 0.9037,-3.9619 1.32259,-6.73701c0.3593,-2.38034 0.67141,-7.09631 0.67141,-7.09631z" data-paper-data="{&quot;origPos&quot;:null,&quot;index&quot;:null}" fill="#838383"/></g><g data-paper-data="{&quot;origPos&quot;:null,&quot;index&quot;:null}"><path d="M228.7802,30.3029h12.92727" data-paper-data="{&quot;origPos&quot;:null,&quot;index&quot;:null}" fill="none" stroke="#88ac7a" stroke-width="15" stroke-linecap="round"/><g data-paper-data="{&quot;origPos&quot;:null}"><path d="M261.82932,11.87297h-11.41784" data-paper-data="{&quot;origPos&quot;:null,&quot;index&quot;:null}" fill="none" stroke="#88ac7a" stroke-width="17" stroke-linecap="round"/><path d="M263.94211,-21.41992l-0.47575,32.92702" data-paper-data="{&quot;origPos&quot;:null,&quot;index&quot;:null}" fill="none" stroke="#94bc85" stroke-width="17" stroke-linecap="round"/><path d="M244.44534,59.80006l1.56143,-75.67989" data-paper-data="{&quot;origPos&quot;:null,&quot;index&quot;:null}" fill="none" stroke="#9dc78d" stroke-width="15" stroke-linecap="round"/><path d="M236.69142,77.59489l2.78018,-93.8c0,0 0.28058,-3.96283 2.08386,-5.34716c1.50139,-1.15257 4.40322,-1.85284 4.40322,-1.85284c0,0 -3.66584,21.37475 -2.36525,30.39771c4.101,28.45098 1.80921,61.80229 1.80921,61.80229z" data-paper-data="{&quot;origPos&quot;:null}" fill="#97be87" stroke="none" stroke-width="0" stroke-linecap="butt"/><path d="M226.76807,-5.32226l-0.76805,32.92702" data-paper-data="{&quot;origPos&quot;:null,&quot;index&quot;:null}" fill="none" stroke="#94bc85" stroke-width="17" stroke-linecap="round"/></g></g><g data-paper-data="{&quot;origPos&quot;:null}" fill="#696053" stroke="none" stroke-width="0" stroke-linecap="butt"><path d="M147.07167,79.06203l-15.56964,-130.07147l19.06094,7.78978l12.43019,-13.65761l14.18282,0.40063l15.56964,130.07147z" data-paper-data="{&quot;origPos&quot;:null,&quot;origRot&quot;:0}"/><path d="M150.56296,-43.21964l12.43019,-13.65761l14.18282,0.40063l15.56964,130.07147z" data-paper-data="{&quot;origPos&quot;:null,&quot;origRot&quot;:0}"/></g><g data-paper-data="{&quot;origPos&quot;:null}" stroke="none" stroke-width="0" stroke-linecap="butt"><path d="M141.07167,74.06203l-15.56964,-130.07147l19.06094,7.78978l12.43019,-13.65761l14.18282,0.40063l15.56964,130.07147z" data-paper-data="{&quot;origPos&quot;:null,&quot;origRot&quot;:0}" fill="#8b7f6e"/><path d="M144.56296,-48.21964l12.43019,-13.65761l14.18282,0.40063l15.56964,130.07147z" data-paper-data="{&quot;origPos&quot;:null,&quot;origRot&quot;:0}" fill="#817666"/></g><g data-paper-data="{&quot;origPos&quot;:null}" stroke="none" stroke-width="0" stroke-linecap="butt"><path d="M81.60397,70.22907c0,0 7.70017,-18.55846 12.53502,-22.46235c10.92974,-8.8252 16.7308,-1.99238 29.77877,-7.19753c10.66408,-4.25416 21.45243,-1.94407 32.93373,-1.94407c9.78877,0 18.56105,31.60396 18.56105,31.60396z" data-paper-data="{&quot;index&quot;:null,&quot;origPos&quot;:null}" fill="#dbcfbd"/><path d="M61.53797,60.1961c0,0 7.70016,-18.55846 12.53501,-22.46235c10.92974,-8.8252 16.7308,-1.99239 29.77877,-7.19754c10.66408,-4.25416 21.45243,-1.94407 32.93374,-1.94407c9.78877,0 18.56106,31.60396 18.56106,31.60396z" data-paper-data="{&quot;origPos&quot;:null,&quot;index&quot;:null}" fill="#d1c0a6"/><path d="M70.06602,79.25879c0,0 7.70016,-18.55846 12.53502,-22.46235c10.92974,-8.8252 16.7308,-1.99239 29.77877,-7.19754c10.66408,-4.25416 21.45243,-1.94407 32.93373,-1.94407c9.78877,0 18.56106,31.60396 18.56106,31.60396z" data-paper-data="{&quot;origPos&quot;:null,&quot;index&quot;:null}" fill="#dbcfbd"/><path d="M50,69.2258c0,0 7.70016,-18.55847 12.53502,-22.46235c10.92974,-8.8252 16.7308,-1.99239 29.77878,-7.19754c10.66408,-4.25416 21.45242,-1.94407 32.93373,-1.94407c9.78877,0 18.56106,31.60397 18.56106,31.60397z" data-paper-data="{&quot;origPos&quot;:null,&quot;index&quot;:null}" fill="#d1c0a6"/><path d="M70.56767,73.23898c0,0 8.77229,-31.60396 18.56106,-31.60396c11.48131,0 22.26966,-2.31008 32.93373,1.94408c13.04798,5.20515 18.84904,-1.62767 29.77877,7.19753c4.83486,3.90389 12.53502,22.46236 12.53502,22.46236z" data-paper-data="{&quot;origPos&quot;:null}" fill="#dbcfbd"/><path d="M96.65348,68.22249c0,0 8.77229,-31.60396 18.56106,-31.60396c11.48131,0 22.26966,-2.31009 32.93374,1.94407c13.04798,5.20515 18.84904,-1.62766 29.77877,7.19754c4.83486,3.90389 12.53501,22.46235 12.53501,22.46235z" data-paper-data="{&quot;origPos&quot;:null}" fill="#d1c0a6"/><path d="M92.64028,91.80006c0,0 8.77229,-31.60396 18.56106,-31.60396c11.48131,0 22.26965,-2.31009 32.93373,1.94407c13.04798,5.20515 18.84904,-1.62766 29.77877,7.19753c4.83486,3.90389 12.53502,22.46235 12.53502,22.46235z" data-paper-data="{&quot;origPos&quot;:null}" fill="#dbcfbd"/><path d="M108.19143,77.25219c0,0 8.77229,-31.60396 18.56106,-31.60396c11.48131,0 22.26965,-2.31009 32.93373,1.94407c13.04798,5.20515 18.84904,-1.62766 29.77878,7.19754c4.83486,3.90389 12.53502,22.46235 12.53502,22.46235z" data-paper-data="{&quot;origPos&quot;:null}" fill="#d1c0a6"/></g><g data-paper-data="{&quot;origPos&quot;:null}" stroke="none" stroke-width="0" stroke-linecap="butt"><path d="M186.60397,81.22907c0,0 7.70017,-18.55846 12.53502,-22.46235c10.92974,-8.8252 16.7308,-1.99238 29.77877,-7.19753c10.66408,-4.25416 21.45243,-1.94407 32.93373,-1.94407c9.78877,0 18.56105,31.60396 18.56105,31.60396z" data-paper-data="{&quot;index&quot;:null,&quot;origPos&quot;:null}" fill="#dbcfbd"/><path d="M166.53797,71.19609c0,0 7.70016,-18.55846 12.53501,-22.46235c10.92974,-8.8252 16.7308,-1.99239 29.77877,-7.19754c10.66408,-4.25416 21.45243,-1.94407 32.93374,-1.94407c9.78877,0 18.56106,31.60396 18.56106,31.60396z" data-paper-data="{&quot;origPos&quot;:null,&quot;index&quot;:null}" fill="#d1c0a6"/><path d="M175.06602,90.25879c0,0 7.70016,-18.55846 12.53502,-22.46235c10.92974,-8.8252 16.7308,-1.99239 29.77877,-7.19754c10.66408,-4.25416 21.45243,-1.94407 32.93373,-1.94407c9.78877,0 18.56106,31.60396 18.56106,31.60396z" data-paper-data="{&quot;origPos&quot;:null,&quot;index&quot;:null}" fill="#dbcfbd"/><path d="M155.00001,80.2258c0,0 7.70016,-18.55847 12.53502,-22.46235c10.92974,-8.8252 16.7308,-1.99239 29.77878,-7.19754c10.66408,-4.25416 21.45242,-1.94407 32.93373,-1.94407c9.78877,0 18.56106,31.60397 18.56106,31.60397z" data-paper-data="{&quot;origPos&quot;:null,&quot;index&quot;:null}" fill="#d1c0a6"/><path d="M175.56766,84.23898c0,0 8.77229,-31.60396 18.56106,-31.60396c11.48131,0 22.26966,-2.31008 32.93373,1.94408c13.04798,5.20515 18.84904,-1.62767 29.77877,7.19753c4.83486,3.90389 12.53502,22.46236 12.53502,22.46236z" data-paper-data="{&quot;origPos&quot;:null}" fill="#dbcfbd"/><path d="M201.65348,79.22249c0,0 8.77229,-31.60396 18.56106,-31.60396c11.48131,0 22.26966,-2.31009 32.93374,1.94407c13.04798,5.20515 18.84904,-1.62766 29.77877,7.19754c4.83486,3.90389 12.53501,22.46235 12.53501,22.46235z" data-paper-data="{&quot;origPos&quot;:null}" fill="#d1c0a6"/><path d="M197.64027,102.80006c0,0 8.77229,-31.60396 18.56106,-31.60396c11.48131,0 22.26965,-2.31009 32.93373,1.94407c13.04798,5.20515 18.84904,-1.62766 29.77877,7.19753c4.83486,3.90389 12.53502,22.46235 12.53502,22.46235z" data-paper-data="{&quot;origPos&quot;:null}" fill="#dbcfbd"/><path d="M213.19142,88.25221c0,0 8.77229,-31.60396 18.56106,-31.60396c11.48131,0 22.26965,-2.31009 32.93373,1.94407c13.04798,5.20515 18.84904,-1.62766 29.77878,7.19754c4.83486,3.90389 12.53502,22.46235 12.53502,22.46235z" data-paper-data="{&quot;origPos&quot;:null}" fill="#d1c0a6"/></g><g data-paper-data="{&quot;origPos&quot;:null,&quot;index&quot;:null}"><path d="M345.23466,35.3029h12.92727" data-paper-data="{&quot;origPos&quot;:null,&quot;index&quot;:null}" fill="none" stroke="#88ac7a" stroke-width="15" stroke-linecap="round"/><g data-paper-data="{&quot;origPos&quot;:null}"><path d="M325.11281,16.87297h11.41784" data-paper-data="{&quot;origPos&quot;:null,&quot;index&quot;:null}" fill="none" stroke="#88ac7a" stroke-width="17" stroke-linecap="round"/><path d="M323.47577,16.5071l-0.47575,-32.92702" data-paper-data="{&quot;origPos&quot;:null,&quot;index&quot;:null}" fill="none" stroke="#94bc85" stroke-width="17" stroke-linecap="round"/><path d="M342.49679,64.80006l-1.56143,-75.67989" data-paper-data="{&quot;origPos&quot;:null,&quot;index&quot;:null}" fill="none" stroke="#9dc78d" stroke-width="15" stroke-linecap="round"/><path d="M341.53949,73.7949c0,0 -2.29179,-33.35131 1.80921,-61.80229c1.30059,-9.02296 -2.36525,-30.39771 -2.36525,-30.39771c0,0 2.90183,0.70027 4.40322,1.85284c1.80328,1.38433 2.08386,5.34716 2.08386,5.34716l2.78018,93.8z" data-paper-data="{&quot;origPos&quot;:null}" fill="#97be87" stroke="none" stroke-width="0" stroke-linecap="butt"/><path d="M360.94211,32.60475l-0.76805,-32.92702" data-paper-data="{&quot;origPos&quot;:null,&quot;index&quot;:null}" fill="none" stroke="#94bc85" stroke-width="17" stroke-linecap="round"/></g></g></g></g></svg>