<svg version="1.1" xmlns="http://www.w3.org/2000/svg" xmlns:xlink="http://www.w3.org/1999/xlink" width="652.30358" height="1053.91355"><g transform="translate(61.30358,362.79967)"><g data-paper-data="{&quot;isPaintingLayer&quot;:true}" fill="none" fill-rule="nonzero" stroke="none" stroke-width="none" stroke-linecap="butt" stroke-linejoin="miter" stroke-miterlimit="10" stroke-dasharray="" stroke-dashoffset="0" font-family="none" font-weight="none" font-size="none" text-anchor="none" style="mix-blend-mode: normal"><g data-paper-data="{&quot;origPos&quot;:null}" stroke="#6f6f6f"><path d="M7,434.80008v-162h504v162z" data-paper-data="{&quot;origPos&quot;:null}" fill="#dbc19c" stroke-width="10"/><path d="M14,281.13338v-3.33333h577v3.33333z" data-paper-data="{&quot;origPos&quot;:null}" fill="#81715b" stroke-width="0"/><path d="M7,434.80008v-162h504v162z" data-paper-data="{&quot;origPos&quot;:null}" fill="#949494" stroke-width="10"/><path d="M14,281.13338v-3.33333h577v3.33333z" data-paper-data="{&quot;origPos&quot;:null}" fill="#454545" stroke-width="0"/><path d="M5,424.80008v-117h544v117z" data-paper-data="{&quot;origPos&quot;:null}" fill="#8d8d8d" stroke-width="0"/><path d="M11,454.80008v-117h544v117z" data-paper-data="{&quot;origPos&quot;:null}" fill="#898989" stroke-width="0"/><path d="M91,320.80001v0v13z" data-paper-data="{&quot;origPos&quot;:null}" fill="#dbc19c" stroke-width="0"/><path d="M59,323.33333c0,-5.52285 4.47715,-10 10,-10c5.52285,0 10,4.47715 10,10c0,5.52285 -4.47715,10 -10,10c-5.52285,0 -10,-4.47715 -10,-10z" data-paper-data="{&quot;origPos&quot;:null}" fill="#5f5f5f" stroke-width="0.5"/><path d="M322,309.33333c0,-5.52285 4.47715,-10 10,-10c5.52285,0 10,4.47715 10,10c0,5.52285 -4.47715,10 -10,10c-5.52285,0 -10,-4.47715 -10,-10z" data-paper-data="{&quot;origPos&quot;:null}" fill="#5f5f5f" stroke-width="0.5"/><path d="M452,338.33333c0,-5.52285 4.47715,-10 10,-10c5.52285,0 10,4.47715 10,10c0,5.52285 -4.47715,10 -10,10c-5.52285,0 -10,-4.47715 -10,-10z" data-paper-data="{&quot;origPos&quot;:null}" fill="#5f5f5f" stroke-width="0.5"/><path d="M129,339.3334c0,-2.76142 2.23858,-5 5,-5c2.76142,0 5,2.23858 5,5c0,2.76142 -2.23858,5 -5,5c-2.76142,0 -5,-2.23858 -5,-5z" data-paper-data="{&quot;origPos&quot;:null}" fill="#5f5f5f" stroke-width="0.5"/><path d="M212,299.33333c0,-2.76142 2.23858,-5 5,-5c2.76142,0 5,2.23858 5,5c0,2.76142 -2.23858,5 -5,5c-2.76142,0 -5,-2.23858 -5,-5z" data-paper-data="{&quot;origPos&quot;:null}" fill="#5f5f5f" stroke-width="0.5"/><path d="M349,350.3334c0,-2.76142 2.23858,-5 5,-5c2.76142,0 5,2.23858 5,5c0,2.76142 -2.23858,5 -5,5c-2.76142,0 -5,-2.23858 -5,-5z" data-paper-data="{&quot;origPos&quot;:null}" fill="#5f5f5f" stroke-width="0.5"/><path d="M245,339.3334c0,-2.76142 2.23858,-5 5,-5c2.76142,0 5,2.23858 5,5c0,2.76142 -2.23858,5 -5,5c-2.76142,0 -5,-2.23858 -5,-5z" data-paper-data="{&quot;origPos&quot;:null}" fill="#5f5f5f" stroke-width="0.5"/></g><path d="M-39.30357,419.30433l0.24616,-150.52227l16.13011,-2.36757l16.02378,13.91043l20.70124,-11.45643l-0.24616,150.52227z" data-paper-data="{&quot;origPos&quot;:null,&quot;origRot&quot;:0,&quot;index&quot;:null}" fill="#696053" stroke="none" stroke-width="0"/><path d="M-39.30358,419.30434l0.24616,-150.52227l16.13011,-2.36756l16.02378,13.91043z" data-paper-data="{&quot;origPos&quot;:null,&quot;origRot&quot;:0,&quot;index&quot;:null}" fill="#696053" stroke="none" stroke-width="0"/><path d="M-39.30358,527.50433l0.24616,-150.52227l16.13011,-2.36756l16.02378,13.91043z" data-paper-data="{&quot;origPos&quot;:null,&quot;origRot&quot;:0,&quot;index&quot;:null}" fill="#696053" stroke="none" stroke-width="0"/><path d="M-31.46691,408.04997l0.24616,-150.52227l16.13011,-2.36756l16.02378,13.91043z" data-paper-data="{&quot;origPos&quot;:null,&quot;origRot&quot;:0,&quot;index&quot;:null}" fill="#817666" stroke="none" stroke-width="0"/><path d="M-31.75268,541.40019l0.24616,-150.52227l16.13011,-2.36757l16.02378,13.91043l20.70124,-11.45643l-0.24616,150.52227z" data-paper-data="{&quot;origPos&quot;:null,&quot;origRot&quot;:0,&quot;index&quot;:null}" fill="#8b7f6e" stroke="none" stroke-width="0"/><g data-paper-data="{&quot;origPos&quot;:null,&quot;index&quot;:null,&quot;origRot&quot;:0}" stroke="none" stroke-width="0"><path d="M-41.30357,412.11903l0.26232,-160.40263l17.1889,-2.52298l17.07559,14.82352l22.06008,-12.20844l-0.26232,160.40263z" data-paper-data="{&quot;origPos&quot;:null,&quot;origRot&quot;:0}" fill="#696053"/><path d="M-41.30358,412.11903l0.26232,-160.40263l17.1889,-2.52297l17.07559,14.82352z" data-paper-data="{&quot;origPos&quot;:null,&quot;origRot&quot;:0}" fill="#696969"/><path d="M-32.9525,400.12597l0.26232,-160.40263l17.1889,-2.52298l17.07559,14.82352l22.06008,-12.20844l-0.26232,160.40263z" data-paper-data="{&quot;origPos&quot;:null,&quot;origRot&quot;:0}" fill="#8c8c8c"/><path d="M-32.95251,400.12593l0.26232,-160.40263l17.1889,-2.52297l17.07559,14.82352z" data-paper-data="{&quot;origPos&quot;:null,&quot;origRot&quot;:0}" fill="#8c8c8c"/><path d="M-40.89856,554.25765l0.26232,-160.40263l17.1889,-2.52298l17.07559,14.82352l22.06008,-12.20844l-0.26232,160.40263z" data-paper-data="{&quot;origPos&quot;:null,&quot;origRot&quot;:0}" fill="#696053"/><path d="M-40.89857,554.25762l0.26232,-160.40263l17.1889,-2.52297l17.07559,14.82352z" data-paper-data="{&quot;origPos&quot;:null,&quot;origRot&quot;:0}" fill="#696969"/><path d="M-41.29341,691.02178l0.26232,-160.40263l17.1889,-2.52298l17.07559,14.82352l22.06008,-12.20844l-0.26232,160.40263z" data-paper-data="{&quot;origPos&quot;:null,&quot;origRot&quot;:0}" fill="#696053"/><path d="M-41.29342,691.02168l0.26232,-160.40263l17.1889,-2.52297l17.07559,14.82352z" data-paper-data="{&quot;origPos&quot;:null,&quot;origRot&quot;:0}" fill="#696969"/><path d="M-33.65189,678.9934l0.26232,-160.40263l17.1889,-2.52298l17.07559,14.82352l22.06008,-12.20844l-0.26232,160.40263z" data-paper-data="{&quot;origPos&quot;:null,&quot;origRot&quot;:0}" fill="#8c8c8c"/><path d="M-33.25704,542.22927l0.26232,-160.40263l17.1889,-2.52298l17.07559,14.82352l22.06008,-12.20844l-0.26232,160.40263z" data-paper-data="{&quot;origPos&quot;:null,&quot;origRot&quot;:0}" fill="#8c8c8c"/></g><g data-paper-data="{&quot;origPos&quot;:null}"><g data-paper-data="{&quot;origPos&quot;:null,&quot;index&quot;:null}" stroke="#6f6f6f"><path d="M491,-112.48587v162h-504v-162z" data-paper-data="{&quot;origPos&quot;:null}" fill="#dbc19c" stroke-width="10"/><path d="M571,41.18083v3.33333h-577v-3.33333z" data-paper-data="{&quot;origPos&quot;:null}" fill="#81715b" stroke-width="0"/><path d="M491,-112.48587v162h-504v-162z" data-paper-data="{&quot;origPos&quot;:null}" fill="#949494" stroke-width="10"/><path d="M571,41.18083v3.33333h-577v-3.33333z" data-paper-data="{&quot;origPos&quot;:null}" fill="#454545" stroke-width="0"/><path d="M529,-102.48587v117h-544v-117z" data-paper-data="{&quot;origPos&quot;:null}" fill="#8d8d8d" stroke-width="0"/><path d="M535,-132.48587v117h-544v-117z" data-paper-data="{&quot;origPos&quot;:null}" fill="#898989" stroke-width="0"/><path d="M71,1.5142v0v-13z" data-paper-data="{&quot;origPos&quot;:null}" fill="#dbc19c" stroke-width="0"/><path d="M49,-11.01912c5.52285,0 10,4.47715 10,10c0,5.52285 -4.47715,10 -10,10c-5.52285,0 -10,-4.47715 -10,-10c0,-5.52285 4.47715,-10 10,-10z" data-paper-data="{&quot;origPos&quot;:null}" fill="#5f5f5f" stroke-width="0.5"/><path d="M312,2.98088c5.52285,0 10,4.47715 10,10c0,5.52285 -4.47715,10 -10,10c-5.52285,0 -10,-4.47715 -10,-10c0,-5.52285 4.47715,-10 10,-10z" data-paper-data="{&quot;origPos&quot;:null}" fill="#5f5f5f" stroke-width="0.5"/><path d="M442,-26.01912c5.52285,0 10,4.47715 10,10c0,5.52285 -4.47715,10 -10,10c-5.52285,0 -10,-4.47715 -10,-10c0,-5.52285 4.47715,-10 10,-10z" data-paper-data="{&quot;origPos&quot;:null}" fill="#5f5f5f" stroke-width="0.5"/><path d="M114,-22.01919c2.76142,0 5,2.23858 5,5c0,2.76142 -2.23858,5 -5,5c-2.76142,0 -5,-2.23858 -5,-5c0,-2.76142 2.23858,-5 5,-5z" data-paper-data="{&quot;origPos&quot;:null}" fill="#5f5f5f" stroke-width="0.5"/><path d="M197,17.98088c2.76142,0 5,2.23858 5,5c0,2.76142 -2.23858,5 -5,5c-2.76142,0 -5,-2.23858 -5,-5c0,-2.76142 2.23858,-5 5,-5z" data-paper-data="{&quot;origPos&quot;:null}" fill="#5f5f5f" stroke-width="0.5"/><path d="M334,-33.01919c2.76142,0 5,2.23858 5,5c0,2.76142 -2.23858,5 -5,5c-2.76142,0 -5,-2.23858 -5,-5c0,-2.76142 2.23858,-5 5,-5z" data-paper-data="{&quot;origPos&quot;:null}" fill="#5f5f5f" stroke-width="0.5"/><path d="M230,-22.01919c2.76142,0 5,2.23858 5,5c0,2.76142 -2.23858,5 -5,5c-2.76142,0 -5,-2.23858 -5,-5c0,-2.76142 2.23858,-5 5,-5z" data-paper-data="{&quot;origPos&quot;:null}" fill="#5f5f5f" stroke-width="0.5"/></g><path d="M-6.44844,-91.07655l0.24616,150.52227l-20.70124,-11.45643l-16.02378,13.91043l-16.13011,-2.36757l-0.24616,-150.52227z" data-paper-data="{&quot;origPos&quot;:null,&quot;origRot&quot;:0,&quot;index&quot;:null}" fill="#696053" stroke="none" stroke-width="0"/><path d="M-26.90353,47.98927l-16.02378,13.91043l-16.13011,-2.36756l-0.24616,-150.52227z" data-paper-data="{&quot;origPos&quot;:null,&quot;origRot&quot;:0,&quot;index&quot;:null}" fill="#696053" stroke="none" stroke-width="0"/><path d="M-26.90353,-60.21072l-16.02378,13.91043l-16.13011,-2.36756l-0.24616,-150.52227z" data-paper-data="{&quot;origPos&quot;:null,&quot;origRot&quot;:0,&quot;index&quot;:null}" fill="#696053" stroke="none" stroke-width="0"/><path d="M-19.06686,59.24364l-16.02378,13.91043l-16.13011,-2.36756l-0.24616,-150.52227z" data-paper-data="{&quot;origPos&quot;:null,&quot;origRot&quot;:0,&quot;index&quot;:null}" fill="#817666" stroke="none" stroke-width="0"/><path d="M1.10245,-213.17241l0.24616,150.52227l-20.70124,-11.45643l-16.02378,13.91043l-16.13011,-2.36757l-0.24616,-150.52227z" data-paper-data="{&quot;origPos&quot;:null,&quot;origRot&quot;:0,&quot;index&quot;:null}" fill="#8b7f6e" stroke="none" stroke-width="0"/><g data-paper-data="{&quot;origPos&quot;:null,&quot;index&quot;:null,&quot;origRot&quot;:0}" stroke="none" stroke-width="0"><path d="M-4.979,-83.89692l0.26232,160.40263l-22.06008,-12.20844l-17.07559,14.82352l-17.1889,-2.52298l-0.26232,-160.40263z" data-paper-data="{&quot;origPos&quot;:null,&quot;origRot&quot;:0}" fill="#696053"/><path d="M-26.77677,64.29726l-17.07559,14.82352l-17.1889,-2.52297l-0.26232,-160.40263z" data-paper-data="{&quot;origPos&quot;:null,&quot;origRot&quot;:0}" fill="#696969"/><path d="M3.37207,-71.90386l0.26232,160.40263l-22.06008,-12.20844l-17.07559,14.82352l-17.1889,-2.52298l-0.26232,-160.40263z" data-paper-data="{&quot;origPos&quot;:null,&quot;origRot&quot;:0}" fill="#8c8c8c"/><path d="M-18.4257,76.29036l-17.07559,14.82352l-17.1889,-2.52297l-0.26232,-160.40263z" data-paper-data="{&quot;origPos&quot;:null,&quot;origRot&quot;:0}" fill="#8c8c8c"/><path d="M-4.57399,-226.03554l0.26232,160.40263l-22.06008,-12.20844l-17.07559,14.82352l-17.1889,-2.52298l-0.26232,-160.40263z" data-paper-data="{&quot;origPos&quot;:null,&quot;origRot&quot;:0}" fill="#696053"/><path d="M-26.37176,-77.84133l-17.07559,14.82352l-17.1889,-2.52297l-0.26232,-160.40263z" data-paper-data="{&quot;origPos&quot;:null,&quot;origRot&quot;:0}" fill="#696969"/><path d="M-4.96884,-362.79967l0.26232,160.40263l-22.06008,-12.20844l-17.07559,14.82352l-17.1889,-2.52298l-0.26232,-160.40263z" data-paper-data="{&quot;origPos&quot;:null,&quot;origRot&quot;:0}" fill="#696053"/><path d="M-26.76661,-214.60539l-17.07559,14.82352l-17.1889,-2.52297l-0.26232,-160.40263z" data-paper-data="{&quot;origPos&quot;:null,&quot;origRot&quot;:0}" fill="#696969"/><path d="M2.67268,-350.77129l0.26232,160.40263l-22.06008,-12.20844l-17.07559,14.82352l-17.1889,-2.52298l-0.26232,-160.40263z" data-paper-data="{&quot;origPos&quot;:null,&quot;origRot&quot;:0}" fill="#8c8c8c"/><path d="M3.06753,-214.00716l0.26232,160.40263l-22.06008,-12.20844l-17.07559,14.82352l-17.1889,-2.52298l-0.26232,-160.40263z" data-paper-data="{&quot;origPos&quot;:null,&quot;origRot&quot;:0}" fill="#8c8c8c"/></g></g></g></g></svg>