<svg version="1.1" xmlns="http://www.w3.org/2000/svg" xmlns:xlink="http://www.w3.org/1999/xlink" width="850" height="912.89731"><g transform="translate(246,285.72875)"><g data-paper-data="{&quot;isPaintingLayer&quot;:true}" fill="none" fill-rule="nonzero" stroke="none" stroke-width="none" stroke-linecap="butt" stroke-linejoin="miter" stroke-miterlimit="10" stroke-dasharray="" stroke-dashoffset="0" font-family="none" font-weight="none" font-size="none" text-anchor="none" style="mix-blend-mode: normal"><path d="M20,421.80017v-162h504v162z" data-paper-data="{&quot;origPos&quot;:null}" fill="#dbc19c" stroke="#6f6f6f" stroke-width="10"/><path d="M27,268.13338v-3.33333h577v3.33333z" data-paper-data="{&quot;origPos&quot;:null}" fill="#81715b" stroke="#6f6f6f" stroke-width="0"/><path d="M20,421.80017v-162h504v162z" data-paper-data="{&quot;origPos&quot;:null}" fill="#949494" stroke="#6f6f6f" stroke-width="10"/><path d="M27,268.13338v-3.33333h577v3.33333z" data-paper-data="{&quot;origPos&quot;:null}" fill="#454545" stroke="#6f6f6f" stroke-width="0"/><path d="M18,411.80017v-117h544v117z" data-paper-data="{&quot;origPos&quot;:null}" fill="#8d8d8d" stroke="#6f6f6f" stroke-width="0"/><path d="M24,441.80017v-117h544v117z" data-paper-data="{&quot;origPos&quot;:null}" fill="#898989" stroke="#6f6f6f" stroke-width="0"/><path d="M120.93065,245.80007v162h-163.93932c0.62179,-6.31682 1.18508,-12.64053 1.39965,-18.99999c0.50403,-14.9377 -0.66121,-29.72579 -3.09666,-44.51472c-2.05263,-12.24761 -2.50666,-24.49343 -3.92104,-36.80692c-0.54846,-4.77485 -1.70856,-9.48799 -2.2243,-14.26558c-1.37945,-12.77866 -1.13287,-25.5977 -1.13287,-38.41278c0,-2.98632 -0.06806,-5.99201 -0.12159,-9.00001z" data-paper-data="{&quot;origPos&quot;:null}" fill="#dbc19c" stroke="#b39d7f" stroke-width="10"/><path d="M120.93065,245.80007v162h-163.93932c0.62179,-6.31682 1.18508,-12.64053 1.39965,-18.99999c0.50403,-14.9377 -0.66121,-29.72579 -3.09666,-44.51472c-2.05263,-12.24761 -2.50666,-24.49343 -3.92104,-36.80692c-0.54846,-4.77485 -1.70856,-9.48799 -2.2243,-14.26558c-1.37945,-12.77866 -1.13287,-25.5977 -1.13287,-38.41278c0,-2.98632 -0.06806,-5.99201 -0.12159,-9.00001z" data-paper-data="{&quot;origPos&quot;:null}" fill="#949494" stroke="#6f6f6f" stroke-width="10"/><path d="M129,250.80011v3.33333h-180.98498c-0.00359,-1.10891 -0.01569,-2.22031 -0.0321,-3.33333z" data-paper-data="{&quot;origPos&quot;:null}" fill="#454545" stroke="none" stroke-width="0"/><path d="M116.3196,280.80007v117h-158.4362c0.2267,-2.99404 0.40613,-5.99302 0.50758,-8.99999c0.50403,-14.9377 -0.66121,-29.72579 -3.09666,-44.51472c-2.05263,-12.24761 -2.50666,-24.49343 -3.92104,-36.80692c-0.54846,-4.77485 -1.70856,-9.48799 -2.2243,-14.26558c-0.44625,-4.13387 -0.72233,-8.27197 -0.89165,-12.41279z" data-paper-data="{&quot;origPos&quot;:null}" fill="#8d8d8d" stroke="none" stroke-width="0"/><path d="M116.3196,328.00007v128h-160.85349c0.94751,-12.76254 2.52915,-25.46006 2.92487,-38.2906c0.50403,-16.3421 -0.66121,-32.52052 -3.09666,-48.69986c-2.05263,-13.39909 -2.50666,-26.79623 -3.92104,-40.2674c-0.02598,-0.24752 -0.05335,-0.4949 -0.08195,-0.74214z" data-paper-data="{&quot;origPos&quot;:null}" fill="#898989" stroke="none" stroke-width="0"/><path d="M-84.60966,354.03612l-9.83337,-137.61497l19.65958,9.1538l13.76347,-13.7419l14.89976,1.13515l9.83337,137.61497z" data-paper-data="{&quot;origPos&quot;:null,&quot;origRot&quot;:0}" fill="#696053" stroke="none" stroke-width="0"/><path d="M-74.78348,225.57497l13.76348,-13.7419l14.89976,1.13515l9.83337,137.61497z" data-paper-data="{&quot;origPos&quot;:null,&quot;origRot&quot;:0}" fill="#696969" stroke="none" stroke-width="0"/><path d="M75.66346,461.85654l5.66428,-150.41586l16.20488,-1.78541l15.51267,14.47821l21.10021,-10.70383l-5.66428,150.41586z" data-paper-data="{&quot;origPos&quot;:null,&quot;origRot&quot;:0}" fill="#696969" stroke="none" stroke-width="0"/><path d="M-90.66989,348.47434l-9.83337,-137.61497l19.65958,9.1538l13.76348,-13.7419l14.89976,1.13515l9.83337,137.61498z" data-paper-data="{&quot;origPos&quot;:null,&quot;origRot&quot;:0}" fill="#8c8c8c" stroke="none" stroke-width="0"/><path d="M-80.8437,220.01315l13.76348,-13.74191l14.89976,1.13515l9.83337,137.61498z" data-paper-data="{&quot;origPos&quot;:null,&quot;origRot&quot;:0}" fill="#828282" stroke="none" stroke-width="0"/><path d="M-77.23744,456.40471l-9.83337,-137.61497l19.65958,9.1538l13.76347,-13.7419l14.89976,1.13515l9.83337,137.61497z" data-paper-data="{&quot;origPos&quot;:null,&quot;origRot&quot;:0}" fill="#696969" stroke="none" stroke-width="0"/><path d="M-83.29767,451.89608l-9.83337,-137.61497l19.65958,9.1538l13.76348,-13.7419l14.89976,1.13515l9.83337,137.61498z" data-paper-data="{&quot;origPos&quot;:null,&quot;origRot&quot;:0}" fill="#8c8c8c" stroke="none" stroke-width="0"/><path d="M-68.60192,582.61832l-9.83337,-137.61497l19.65958,9.1538l13.76347,-13.7419l14.89976,1.13515l9.83337,137.61497z" data-paper-data="{&quot;origPos&quot;:null,&quot;origRot&quot;:0}" fill="#696969" stroke="none" stroke-width="0"/><path d="M-74.66215,578.1097l-9.83337,-137.61497l19.65958,9.1538l13.76348,-13.7419l14.89976,1.13515l9.83337,137.61498z" data-paper-data="{&quot;origPos&quot;:null,&quot;origRot&quot;:0}" fill="#8c8c8c" stroke="none" stroke-width="0"/><path d="M104,320.80007v-13v0z" data-paper-data="{&quot;origPos&quot;:null}" fill="#dbc19c" stroke="#6f6f6f" stroke-width="0"/><path d="M335,296.33339c0,-5.52285 4.47715,-10 10,-10c5.52285,0 10,4.47715 10,10c0,5.52285 -4.47715,10 -10,10c-5.52285,0 -10,-4.47715 -10,-10z" data-paper-data="{&quot;origPos&quot;:null}" fill="#5f5f5f" stroke="#6f6f6f" stroke-width="0.5"/><path d="M465,325.33339c0,-5.52285 4.47715,-10 10,-10c5.52285,0 10,4.47715 10,10c0,5.52285 -4.47715,10 -10,10c-5.52285,0 -10,-4.47715 -10,-10z" data-paper-data="{&quot;origPos&quot;:null}" fill="#5f5f5f" stroke="#6f6f6f" stroke-width="0.5"/><path d="M142,326.33348c0,-2.76142 2.23858,-5 5,-5c2.76142,0 5,2.23858 5,5c0,2.76142 -2.23858,5 -5,5c-2.76142,0 -5,-2.23858 -5,-5z" data-paper-data="{&quot;origPos&quot;:null}" fill="#5f5f5f" stroke="#6f6f6f" stroke-width="0.5"/><path d="M225,286.33339c0,-2.76142 2.23858,-5 5,-5c2.76142,0 5,2.23858 5,5c0,2.76142 -2.23858,5 -5,5c-2.76142,0 -5,-2.23858 -5,-5z" data-paper-data="{&quot;origPos&quot;:null}" fill="#5f5f5f" stroke="#6f6f6f" stroke-width="0.5"/><path d="M362,337.33349c0,-2.76142 2.23858,-5 5,-5c2.76142,0 5,2.23858 5,5c0,2.76142 -2.23858,5 -5,5c-2.76142,0 -5,-2.23858 -5,-5z" data-paper-data="{&quot;origPos&quot;:null}" fill="#5f5f5f" stroke="#6f6f6f" stroke-width="0.5"/><path d="M258,326.33348c0,-2.76142 2.23858,-5 5,-5c2.76142,0 5,2.23858 5,5c0,2.76142 -2.23858,5 -5,5c-2.76142,0 -5,-2.23858 -5,-5z" data-paper-data="{&quot;origPos&quot;:null}" fill="#5f5f5f" stroke="#6f6f6f" stroke-width="0.5"/><path d="M57.97287,291.80007v-13v0z" data-paper-data="{&quot;origPos&quot;:null}" fill="#dbc19c" stroke="none" stroke-width="0"/><path d="M78.66345,370.85654l5.66428,-150.41586l16.20488,-1.7854l15.51267,14.47821z" data-paper-data="{&quot;origPos&quot;:null,&quot;origRot&quot;:0}" fill="#696969" stroke="none" stroke-width="0"/><path d="M78.66346,370.85654l5.66428,-150.41586l16.20488,-1.78541l15.51267,14.47821l21.10021,-10.70383l-5.66428,150.41586z" data-paper-data="{&quot;origPos&quot;:null,&quot;origRot&quot;:0}" fill="#696969" stroke="none" stroke-width="0"/><path d="M86.90018,359.89158l5.66428,-150.41586l16.20488,-1.78541l15.51267,14.47821l21.10021,-10.70383l-5.66428,150.41586z" data-paper-data="{&quot;origPos&quot;:null,&quot;origRot&quot;:0}" fill="#8c8c8c" stroke="none" stroke-width="0"/><path d="M86.90016,359.89158l5.66428,-150.41586l16.20488,-1.7854l15.51267,14.47821z" data-paper-data="{&quot;origPos&quot;:null,&quot;origRot&quot;:0}" fill="#82807e" stroke="none" stroke-width="0"/><path d="M81.89999,492.14869l5.66428,-150.41586l16.20488,-1.78541l15.51267,14.47821l21.10021,-10.70383l-5.66428,150.41586z" data-paper-data="{&quot;origPos&quot;:null,&quot;origRot&quot;:0}" fill="#8c8c8c" stroke="none" stroke-width="0"/><path d="M69.20364,625.17959l5.66428,-150.41586l16.20488,-1.78541l15.51267,14.47821l21.10021,-10.70383l-5.66428,150.41586z" data-paper-data="{&quot;origPos&quot;:null,&quot;origRot&quot;:0}" fill="#696053" stroke="none" stroke-width="0"/><path d="M69.20362,625.17959l5.66428,-150.41586l16.20488,-1.7854l15.51267,14.47821z" data-paper-data="{&quot;origPos&quot;:null,&quot;origRot&quot;:0}" fill="#696053" stroke="none" stroke-width="0"/><path d="M77.44035,614.21462l5.66428,-150.41586l16.20488,-1.78541l15.51267,14.47821l21.10021,-10.70383l-5.66428,150.41586z" data-paper-data="{&quot;origPos&quot;:null,&quot;origRot&quot;:0}" fill="#8b7f6e" stroke="none" stroke-width="0"/><path d="M-231.43391,50.08947v-162h163.93932c-0.62179,6.31682 -1.18508,12.64053 -1.39965,18.99999c-0.50403,14.9377 0.66121,29.72579 3.09666,44.51472c2.05263,12.24761 2.50666,24.49343 3.92104,36.80692c0.54846,4.77485 1.70856,9.48799 2.2243,14.26558c1.37945,12.77866 1.13287,25.5977 1.13287,38.41278c0,2.98632 0.06806,5.99201 0.12159,9.00001z" data-paper-data="{&quot;origPos&quot;:null,&quot;index&quot;:null}" fill="#dbc19c" stroke="#b39d7f" stroke-width="10"/><path d="M-231.43391,50.08947v-162h163.93932c-0.62179,6.31682 -1.18508,12.64053 -1.39965,18.99999c-0.50403,14.9377 0.66121,29.72579 3.09666,44.51472c2.05263,12.24761 2.50666,24.49343 3.92104,36.80692c0.54846,4.77485 1.70856,9.48799 2.2243,14.26558c1.37945,12.77866 1.13287,25.5977 1.13287,38.41278c0,2.98632 0.06806,5.99201 0.12159,9.00001z" data-paper-data="{&quot;origPos&quot;:null,&quot;index&quot;:null}" fill="#949494" stroke="#6f6f6f" stroke-width="10"/><path d="M-239.50326,45.08946v-3.33333h180.98498c0.00359,1.10891 0.01569,2.22031 0.0321,3.33333z" data-paper-data="{&quot;origPos&quot;:null,&quot;index&quot;:null}" fill="#454545" stroke="none" stroke-width="0"/><path d="M-226.82286,15.08951v-117h158.4362c-0.2267,2.99404 -0.40613,5.99302 -0.50758,8.99999c-0.50403,14.9377 0.66121,29.72579 3.09666,44.51472c2.05263,12.24761 2.50666,24.49343 3.92104,36.80692c0.54846,4.77485 1.70856,9.48799 2.2243,14.26558c0.44625,4.13387 0.72233,8.27197 0.89165,12.41279z" data-paper-data="{&quot;origPos&quot;:null,&quot;index&quot;:null}" fill="#8d8d8d" stroke="none" stroke-width="0"/><path d="M-226.82286,-32.11053v-128h160.85349c-0.94751,12.76254 -2.52915,25.46006 -2.92487,38.2906c-0.50403,16.3421 0.66121,32.52052 3.09666,48.69986c2.05263,13.39909 2.50666,26.79623 3.92104,40.2674c0.02598,0.24752 0.05335,0.4949 0.08195,0.74214z" data-paper-data="{&quot;origPos&quot;:null,&quot;index&quot;:null}" fill="#898989" stroke="none" stroke-width="0"/><path d="M-25.8936,-58.14659l9.83337,137.61497l-19.65958,-9.1538l-13.76347,13.7419l-14.89976,-1.13515l-9.83337,-137.61497z" data-paper-data="{&quot;origPos&quot;:null,&quot;origRot&quot;:0,&quot;index&quot;:null}" fill="#696053" stroke="none" stroke-width="0"/><path d="M-35.71978,70.31461l-13.76348,13.7419l-14.89976,-1.13515l-9.83337,-137.61497z" data-paper-data="{&quot;origPos&quot;:null,&quot;origRot&quot;:0,&quot;index&quot;:null}" fill="#696969" stroke="none" stroke-width="0"/><path d="M-19.83337,-52.58479l9.83337,137.61497l-19.65958,-9.1538l-13.76348,13.7419l-14.89976,-1.13515l-9.83337,-137.61498z" data-paper-data="{&quot;origPos&quot;:null,&quot;origRot&quot;:0,&quot;index&quot;:null}" fill="#8c8c8c" stroke="none" stroke-width="0"/><path d="M-29.65956,75.87639l-13.76348,13.74191l-14.89976,-1.13515l-9.83337,-137.61498z" data-paper-data="{&quot;origPos&quot;:null,&quot;origRot&quot;:0,&quot;index&quot;:null}" fill="#828282" stroke="none" stroke-width="0"/><path d="M-33.26582,-160.51513l9.83337,137.61497l-19.65958,-9.1538l-13.76347,13.7419l-14.89976,-1.13515l-9.83337,-137.61497z" data-paper-data="{&quot;origPos&quot;:null,&quot;origRot&quot;:0,&quot;index&quot;:null}" fill="#696969" stroke="none" stroke-width="0"/><path d="M-27.20559,-156.00654l9.83337,137.61497l-19.65958,-9.1538l-13.76348,13.7419l-14.89976,-1.13515l-9.83337,-137.61498z" data-paper-data="{&quot;origPos&quot;:null,&quot;origRot&quot;:0,&quot;index&quot;:null}" fill="#8c8c8c" stroke="none" stroke-width="0"/><path d="M48.09866,-285.72875l9.83337,137.61497l-19.65958,-9.1538l-13.76347,13.7419l-14.89976,-1.13515l-9.83337,-137.61497z" data-paper-data="{&quot;origPos&quot;:null,&quot;origRot&quot;:0,&quot;index&quot;:null}" fill="#696969" stroke="none" stroke-width="0"/><path d="M54.15889,-281.22015l9.83337,137.61497l-19.65958,-9.1538l-13.76348,13.7419l-14.89976,-1.13515l-9.83337,-137.61498z" data-paper-data="{&quot;origPos&quot;:null,&quot;origRot&quot;:0,&quot;index&quot;:null}" fill="#8c8c8c" stroke="none" stroke-width="0"/><path d="M-246,40.80001v-227h141.875v227z" data-paper-data="{&quot;origPos&quot;:null}" fill="#949494" stroke="none" stroke-width="0"/></g></g></svg>