<svg version="1.1" xmlns="http://www.w3.org/2000/svg" xmlns:xlink="http://www.w3.org/1999/xlink" width="149.97415" height="74.4947"><g transform="translate(-91.49674,-153.91267)"><g data-paper-data="{&quot;isPaintingLayer&quot;:true}" fill="none" fill-rule="nonzero" stroke="none" stroke-width="none" stroke-linecap="butt" stroke-linejoin="miter" stroke-miterlimit="10" stroke-dasharray="" stroke-dashoffset="0" font-family="none" font-weight="none" font-size="none" text-anchor="none" style="mix-blend-mode: normal"><g><path d="M116.93843,170.15588c0.11234,-0.64874 0.2263,-1.29723 0.34228,-1.94538h103.76519c-0.00874,0.64845 -0.01576,1.29691 -0.0209,1.94538z" data-paper-data="{&quot;origPos&quot;:null,&quot;index&quot;:null}" fill="#65815b" stroke="none" stroke-width="0"/><path d="M112.15949,214.89976c0.0892,-5.97199 0.23201,-11.94384 0.35981,-17.91599c0.13281,-6.20616 -1.0353,-12.57926 1.34508,-18.7302c1.41446,-3.90903 2.49712,-7.86911 3.95417,-11.79392h103.27776c-0.13153,3.2266 -0.1231,6.45352 0.16899,9.68245c1.16831,12.91504 2.50497,25.8352 3.12492,38.75766z" data-paper-data="{&quot;origPos&quot;:null,&quot;index&quot;:null}" fill="#dbc19c" stroke="#b39d7f" stroke-width="10"/><path d="M112.15949,214.89976c0.0892,-5.97199 0.23201,-11.94384 0.35981,-17.91599c0.13281,-6.20616 -1.0353,-12.57926 1.34508,-18.7302c1.41446,-3.90903 2.49712,-7.86911 3.95417,-11.79392h103.27776c-0.13153,3.2266 -0.1231,6.45352 0.16899,9.68245c1.16831,12.91504 2.50497,25.8352 3.12492,38.75766z" data-paper-data="{&quot;origPos&quot;:null,&quot;index&quot;:null}" fill="#a4cf93" stroke="#6f8368" stroke-width="10"/><path d="M112.20308,208.32148c0.08817,-3.97434 0.20762,-7.94862 0.31621,-11.92309c0.13281,-4.86024 -1.0353,-9.85123 1.34508,-14.66823c0.12403,-0.26845 0.24552,-0.53719 0.36492,-0.8062h107.13426c1.06244,9.12983 2.24192,18.26288 2.8875,27.39752z" data-paper-data="{&quot;origPos&quot;:null,&quot;index&quot;:null}" fill="#9dc78d" stroke="none" stroke-width="0"/><path d="M112.08631,220.73592c0.05548,-6.40182 0.25826,-12.80316 0.43298,-19.20496c0.0742,-2.71854 -0.25765,-5.47793 -0.14992,-8.22498h109.8514c1.07862,9.14106 2.10179,18.28492 2.41881,27.42994z" data-paper-data="{&quot;origPos&quot;:null,&quot;index&quot;:null}" fill="#97be87" stroke="none" stroke-width="0"/><path d="M208.80351,223.39066l4.73421,-66.25377l7.17339,-0.54651l6.62633,6.61594z" data-paper-data="{&quot;origPos&quot;:null,&quot;origRot&quot;:0}" fill="#696053" stroke="none" stroke-width="0"/><path d="M180.50004,179.61279c0,-1.61161 1.30647,-2.91808 2.91808,-2.91808c1.61161,0 2.91808,1.30647 2.91808,2.91808c0,1.61161 -1.30647,2.91808 -2.91808,2.91808c-1.61161,0 -2.91808,-1.30647 -2.91808,-2.91808z" data-paper-data="{&quot;origPos&quot;:null}" fill="#9dc78d" stroke="none" stroke-width="0.5"/><g stroke="none" stroke-width="0"><path d="M208.8035,223.39066l4.73421,-66.25377l7.17338,-0.54651l6.62633,6.61594l9.46496,-4.40703l-4.73421,66.25377z" data-paper-data="{&quot;origPos&quot;:null,&quot;origRot&quot;:0}" fill="#696053"/><path d="M211.72115,224.89017l5.03025,-70.39681l7.62196,-0.58069l7.04069,7.02966l10.05684,-4.68262l-5.03025,70.3968z" data-paper-data="{&quot;origPos&quot;:null,&quot;origRot&quot;:0}" fill="#8b7f6e"/><path d="M211.72116,220.71297l4.73421,-66.25378l7.17339,-0.54651l6.62633,6.61595z" data-paper-data="{&quot;origPos&quot;:null,&quot;origRot&quot;:0}" fill="#817666"/></g><g data-paper-data="{&quot;index&quot;:null,&quot;origPos&quot;:null}" stroke="none" stroke-width="0"><path d="M100.89945,226.8039l-4.73421,-66.25377l9.46496,4.40703l6.62633,-6.61594l7.17338,0.54651l4.73421,66.25377z" data-paper-data="{&quot;origPos&quot;:null,&quot;origRot&quot;:0}" fill="#696053"/><path d="M96.52699,228.40737l-5.03025,-70.3968l10.05684,4.68262l7.04069,-7.02966l7.62196,0.58069l5.03025,70.39681z" data-paper-data="{&quot;origPos&quot;:null,&quot;origRot&quot;:0}" fill="#8b7f6e"/><path d="M102.71255,162.27948l6.62633,-6.61595l7.17339,0.54651l4.73421,66.25378z" data-paper-data="{&quot;origPos&quot;:null,&quot;origRot&quot;:0}" fill="#817666"/></g><text transform="translate(131.26228,202.58442) scale(0.65762,0.65762)" font-size="40" xml:space="preserve" data-paper-data="{&quot;origPos&quot;:null}" fill="#ffffff" fill-rule="nonzero" stroke="#ffffff" stroke-width="3" stroke-linecap="butt" stroke-linejoin="miter" stroke-miterlimit="10" stroke-dasharray="" stroke-dashoffset="0" font-family="Malgun Gothic" font-weight="normal" text-anchor="start" style="mix-blend-mode: normal"><tspan x="0" dy="0">START</tspan></text></g></g></g></svg>