<svg version="1.1" xmlns="http://www.w3.org/2000/svg" xmlns:xlink="http://www.w3.org/1999/xlink" width="737.88548" height="838.67832"><g transform="translate(104.50326,-194.69024)"><g data-paper-data="{&quot;isPaintingLayer&quot;:true}" fill="none" fill-rule="nonzero" stroke="none" stroke-width="none" stroke-linecap="none" stroke-linejoin="none" stroke-miterlimit="10" stroke-dasharray="" stroke-dashoffset="0" font-family="none" font-weight="none" font-size="none" text-anchor="none" style="mix-blend-mode: normal"><path d="M404.095,434.82883c3.61262,7.09099 7.87,14.16158 11.73707,21.23681c8.3682,15.31049 16.73637,30.62099 25.10458,45.93149c2.68259,4.90807 -1.25205,-11.13695 0.57285,-6.16829c0,0 -3.29154,21 -9.23861,21c-17.84118,0 -266.62068,0 -266.62068,0c-0.79188,-3.92237 -1.41508,-7.84773 -1.73348,-11.77945c-1.5102,-18.64747 -1.77841,-37.34587 -4.56726,-55.98003c-0.70981,-4.74273 -1.97724,-9.49208 -3.46043,-14.24052z" data-paper-data="{&quot;origPos&quot;:null}" fill="#949494" stroke="#6f6f6f" stroke-width="10" stroke-linecap="butt" stroke-linejoin="miter"/><path d="M452.32273,511.11896c0.22575,0.76094 0.44706,1.52227 0.66445,2.28394c0,0 -37.6307,0 -61.71627,0c-72.2567,0 -219.67641,0 -219.67641,0c-0.10218,-0.7612 -0.20031,-1.52252 -0.29396,-2.28394z" data-paper-data="{&quot;origPos&quot;:null}" fill="#666666" stroke="none" stroke-width="0" stroke-linecap="butt" stroke-linejoin="miter"/><g data-paper-data="{&quot;origPos&quot;:null}"><path d="M175.2709,500.10562c0,0 52.91171,-7.23424 65.78566,0.57693c14.44445,8.76404 4.01434,28.09497 4.01434,28.09497l-69.8,13.8v-42.47191z" data-paper-data="{&quot;origPos&quot;:null,&quot;index&quot;:null}" fill="#696969" stroke="none" stroke-width="0" stroke-linecap="butt" stroke-linejoin="miter"/><path d="M201.04977,524.17369c15.6968,9.5239 44.22109,4.40381 44.22109,4.40381c0,0 -8.09174,14 -13.27086,14c-15.53737,0 -56.72914,0 -56.72914,0v-42.47191c0,0 14.15731,17.01679 25.77891,24.0681z" data-paper-data="{&quot;origPos&quot;:null,&quot;index&quot;:null}" fill="#727272" stroke="none" stroke-width="0" stroke-linecap="butt" stroke-linejoin="miter"/><g data-paper-data="{&quot;origPos&quot;:null}" stroke-width="0.5"><path d="M199.77086,526.67747c0,-8.28427 6.71573,-15 15,-15c8.28427,0 15,6.71573 15,15c0,8.28427 -6.71573,15 -15,15c-8.28427,0 -15,-6.71573 -15,-15z" data-paper-data="{&quot;origPos&quot;:null}" fill="#a6a6a6" stroke="#949494" stroke-linecap="butt" stroke-linejoin="miter"/><g data-paper-data="{&quot;origPos&quot;:null}"><path d="M213.83143,531.82357v0v0v0v0v0v0c0.36578,0.67953 -0.37947,1.695 -0.44131,1.78428c-0.10673,0.10413 0,0 -0.0018,0.00254c0,0 -0.53556,0.57825 -0.8898,0.38215c-0.15087,-0.08326 -0.21901,-0.2309 -0.22247,-0.42431c-0.06619,-0.02116 -0.15775,-0.06601 -0.19873,-0.16294c-0.06829,-0.16115 0.27559,-0.28567 0.27559,-0.28567v0.00239c0.01577,-0.04981 0.03273,-0.10097 0.05329,-0.15409c0.11619,-0.30067 0.40257,-0.88854 0.40257,-0.88854c0,0 0.6522,-0.94406 1.02266,-0.25581z" id="L_Arm" fill="#9a8479" stroke="#000000" stroke-linecap="round" stroke-linejoin="round"/><path d="M217.96056,532.82746v0v0v0v0v0v0c0,0 0.3439,0.12484 0.27514,0.28583c-0.04068,0.09768 -0.13254,0.14238 -0.19843,0.16384c-0.00346,0.1925 -0.07145,0.34074 -0.22245,0.42401c-0.23055,0.12738 -0.51996,-0.06076 -0.69468,-0.2081c-0.08224,-0.05537 -0.17457,-0.11554 -0.25636,-0.16264c-0.2064,-0.11898 -0.69739,-0.92546 -0.60357,-1.37873c0.09382,-0.45327 1.08644,0 1.08644,0c0.231,0.22207 0.48078,0.51599 0.56077,0.7235c0.02027,0.05326 0.03754,0.10488 0.05314,0.15529v-0.00301z" id="R_Arm" fill="#9a8479" stroke="#000000" stroke-linecap="round" stroke-linejoin="round"/><path d="M214.22858,533.54437v0v0v0v0v0v0c0.64874,0.24712 0.9048,0.3817 0.8134,0.89858c-0.06859,0.38755 0.26223,1.23859 0.26223,1.23859c0,0 0.16061,0.04605 0.10551,0.17555c-0.05508,0.13098 -0.45345,0.21801 -0.9698,0.19055c-0.5162,-0.02731 -0.92179,-0.02131 -0.98031,-0.14525c-0.05869,-0.12332 0.04893,-0.18079 0.04893,-0.18079c0,0 0.01996,-0.29244 0.02056,-0.60676c0,-0.31434 -0.04998,-1.17437 -0.04998,-1.17437c0,0 0.10072,-0.64322 0.74946,-0.3961z" id="L_Leg_1_" fill="#9a8479" stroke="#000000" stroke-linecap="butt" stroke-linejoin="miter"/><path d="M215.9037,533.65915v0v0v0v0v0v0c0.48783,-0.22265 0.78442,-0.25957 0.90946,0.0003c0,0 0.24452,0.45673 0.3676,0.9325c0.12279,0.47549 0.21074,1.02237 0.21074,1.02237c0,0 0.16303,0.08673 0.16181,0.17226c-0.0009,0.08552 -0.14124,0.25282 -0.88124,0.27368c-0.73972,0.01994 -1.00328,-0.10144 -1.0261,-0.21337c-0.02342,-0.11178 0.06333,-0.12168 0.06333,-0.12168c0,0 0.01021,-0.12138 0,-0.41501c-0.01005,-0.29362 -0.13194,-0.83437 -0.13194,-0.83437c0,0 -0.16151,-0.59401 0.32633,-0.81667z" id="R_Leg_2_" fill="#9a8479" stroke="#000000" stroke-linecap="butt" stroke-linejoin="miter"/><path d="M214.78952,531.2216v0v0v0v0v0v0c1.34822,-0.10428 1.86321,0.67758 1.86291,0.67743c0.10974,0.20194 0.24602,0.48688 0.30262,0.74705c0.0156,0.07187 0.02521,0.15273 0.02761,0.23946c0,0 -0.00795,0.30127 -0.03722,0.39324c-0.12278,0.38531 -0.32272,0.80708 -0.80094,0.99778c-0.75081,0.30067 -1.54995,0.26376 -2.38033,-0.13129c-0.28023,-0.13294 -0.44625,-0.3595 -0.53586,-0.61741c-0.06395,-0.18561 -0.09126,-0.42762 -0.09126,-0.42762c-0.03933,-0.40256 0.03107,-0.79552 0.06859,-0.96641c0,0 0.23582,-0.80797 1.58388,-0.91224z" id="Belly" fill="#9a8479" stroke="#000000" stroke-linecap="butt" stroke-linejoin="miter"/><g id="Head_1_" stroke-linejoin="miter"><path d="M207.81319,528.92671v0v0v0v0v0v0c-0.00795,-0.0138 -0.24016,-0.40164 -0.24016,-0.40181c-0.64408,-1.03392 -0.78683,-3.37228 -0.73085,-4.10209l0.00496,-0.03496c0.18298,-3.09337 1.62155,-4.74441 2.47114,-5.61824c1.92836,-1.98472 4.8513,-2.06546 4.8513,-2.06546l0.10357,2.00799c0,0 -0.00556,-0.57751 1.17035,-1.58712c1.1756,-1.00962 2.91408,-0.86213 2.91408,-0.86213l-0.92252,2.51631c0,0 0.54381,-0.78381 0.98948,-1.07024c0.79013,-0.50697 1.45823,-0.28911 1.45823,-0.28911l-0.18416,1.56071c0,0 1.1759,1.52441 2.0759,2.95684c0.1926,0.30563 0.4158,0.61501 0.55733,0.9709c0.5147,1.29306 0.589,3.59766 0.01201,4.73917c-0.09966,0.20196 -0.20818,0.39807 -0.32076,0.59086c-0.02927,0.04951 -0.05869,0.09873 -0.08856,0.14734c-0.10312,0.16954 -0.21074,0.33578 -0.32392,0.49693c-0.0153,0.02146 -0.02927,0.04426 -0.04457,0.06573c-0.12835,0.17929 -0.26373,0.35198 -0.40454,0.51988c-0.03361,0.04052 -0.06904,0.07967 -0.10342,0.11988c-0.12068,0.13864 -0.24572,0.27338 -0.37405,0.40301c-0.02957,0.03032 -0.05839,0.06107 -0.08827,0.09033c-0.15446,0.15095 -0.31536,0.29483 -0.48108,0.43226c-0.03692,0.03017 -0.07474,0.05898 -0.11198,0.08853c-0.13914,0.11103 -0.28294,0.21711 -0.43003,0.31823c-0.04248,0.02881 -0.08391,0.05911 -0.12668,0.08732c-0.17967,0.11809 -0.3637,0.22897 -0.55374,0.33144c-0.03391,0.01846 -0.06994,0.03466 -0.10431,0.05252c-0.16241,0.08447 -0.32858,0.16219 -0.49834,0.23421c-0.7181,0.30443 -1.49786,0.50263 -2.33514,0.56295c-0.95689,0.06887 -1.82315,0.0399 -2.60562,-0.06212c-0.19348,-0.02521 -0.3817,-0.05537 -0.56498,-0.08913c-0.03483,-0.00705 -0.0695,-0.0138 -0.10402,-0.02056c-0.18583,-0.03661 -0.36821,-0.07591 -0.54323,-0.12078c-0.00105,-0.0003 -0.00239,-0.0006 -0.00359,-0.0009c-0.17533,-0.04441 -0.3439,-0.09422 -0.50855,-0.14704c-0.02882,-0.00915 -0.05839,-0.01829 -0.08707,-0.02761c-0.1582,-0.05176 -0.31236,-0.10713 -0.46095,-0.16579c-0.02613,-0.0099 -0.05134,-0.02116 -0.0773,-0.03135c-0.14666,-0.05913 -0.28969,-0.12065 -0.42689,-0.18576c-0.00526,-0.00299 -0.01111,-0.00496 -0.01622,-0.00765c-0.14049,-0.06721 -0.27469,-0.13743 -0.40512,-0.20931c-0.02433,-0.01349 -0.0485,-0.02669 -0.0722,-0.0402c-0.12549,-0.07127 -0.24708,-0.14405 -0.36296,-0.21906c-0.01771,-0.01126 -0.03453,-0.02297 -0.05209,-0.03436c-0.11002,-0.07261 -0.21645,-0.14674 -0.31822,-0.22237c-0.01049,-0.0072 -0.02205,-0.01485 -0.03212,-0.0228c-0.10613,-0.07967 -0.20638,-0.16115 -0.30305,-0.24321c-0.01878,-0.01577 -0.03724,-0.03167 -0.05525,-0.04742c-0.09425,-0.08208 -0.18491,-0.16429 -0.27018,-0.24846c-0.00975,-0.00916 -0.01861,-0.01891 -0.02821,-0.02821c-0.08032,-0.07998 -0.15656,-0.16055 -0.2286,-0.24113c-0.01006,-0.01169 -0.02147,-0.0231 -0.03168,-0.03449c-0.07385,-0.08477 -0.23341,-0.28583 -0.24572,-0.30188c-0.06423,-0.08492 -0.12549,-0.16969 -0.18087,-0.25402c-0.00344,-0.00526 -0.00675,-0.01051 -0.0099,-0.01575c-0.05314,-0.08118 -0.10147,-0.16115 -0.14666,-0.24083z" id="Head" fill="#9a8479" stroke="#000000" stroke-linecap="butt"/><path d="M219.16497,524.41383v0v0v0v0v0v0c0,0 1.74869,1.97692 1.20832,4.02768c-0.54007,2.05014 -3.76756,2.91872 -6.24739,2.76283c-3.27823,-0.2063 -4.79803,-2.15863 -4.25856,-4.02182c0.54022,-1.8632 4.88027,-2.73417 4.88027,-2.73417l-0.71269,1.33865c0,0 0.56139,-0.08672 1.01484,-0.34599c0.45332,-0.25881 0.95046,-0.60405 0.95046,-0.60405l-1.03841,1.47113c0,0 1.37148,-0.0147 2.55909,-0.49002c1.18761,-0.47472 1.64407,-1.40422 1.64407,-1.40422z" id="Face" fill="#e6e7e8" stroke="#000000" stroke-linecap="butt"/><g id="R_Ear_1_" stroke="#000000"><path d="M221.40257,523.34494c0,0 2.8147,-1.58097 3.45804,-0.2366c0.64335,1.34435 -0.50749,2.91978 -2.90912,4.34516c0,0 0.05299,-2.34048 -0.54892,-4.10856zM221.40257,523.34494c-0.05029,-0.2069 -0.21646,-0.60255 -0.21646,-0.60255M221.88905,527.81792l0.03017,-0.37854" id="Outer_Ear_1_" fill="#9a8479" stroke-linecap="round"/><path d="M221.9192,527.43927c0.0156,-0.43348 0.015,-1.14721 -0.08271,-2.03845c-0.0563,-0.5187 -0.16512,-1.05374 -0.27679,-1.51586l0.0003,0.0006c1.64871,-0.41967 3.11612,1.10414 3.11612,1.10414h0.0006c-0.82406,1.36792 -2.74432,2.41175 -2.74432,2.41175l-0.01321,0.03782v0v0v0v0v0v0z" id="Inner_Ear" fill="#ee4036" stroke-linecap="butt"/></g><g id="L_Ear" stroke="#000000"><path d="M208.1922,528.48457c-2.33783,-0.93025 -3.59929,-2.18818 -3.24595,-3.5096c0.35349,-1.32155 3.07935,-0.31268 3.07935,-0.31268c-0.24993,1.70055 0.1666,3.82227 0.1666,3.82227v0v0v0v0v0v0zM208.12092,524.08106c0,0 -0.08376,0.38514 -0.09515,0.58125M208.21834,528.46656l0.08645,0.33999" id="Outer_Ear_2_" fill="#9a8479" stroke-linecap="round"/><path d="M208.20079,528.43432c0,0 -1.85421,-0.65672 -2.79536,-1.77543l0.00045,-0.00015c0,0 1.04997,-1.61053 2.56661,-1.48045l0.00015,-0.00045c-0.02521,0.43737 -0.03632,0.9409 -0.00376,1.42134c0.05493,0.82597 0.16722,1.47549 0.24948,1.86739l-0.01756,-0.03225v0v0v0v0v0v0z" id="Inner_Ear_1_" fill="#ee4036" stroke-linecap="butt"/></g><path d="M217.25494,527.64001c-0.10882,0 -0.20399,-0.07877 -0.222,-0.18965c-0.01968,-0.12273 0.06393,-0.23827 0.18673,-0.25791c0.11167,-0.01756 1.10144,-0.17196 1.46619,-0.12663c0.12339,0.0156 0.21104,0.12813 0.19619,0.25086c-0.01562,0.12364 -0.12984,0.20946 -0.25127,0.19611c-0.2295,-0.02791 -0.94279,0.06092 -1.34011,0.12394c-0.01201,0.00239 -0.02402,0.00329 -0.03573,0.00329v0v0v0v0v0v0v0z" id="R_Eye" fill="#231f20" stroke="none" stroke-linecap="butt"/><path d="M213.60641,527.68801c-0.0141,0 -0.02837,-0.0015 -0.04308,-0.00406c-0.51981,-0.10052 -1.43393,0.00181 -1.44293,0.00271c-0.12145,0.01351 -0.23477,-0.07413 -0.24918,-0.19775c-0.0141,-0.12334 0.07444,-0.23497 0.19813,-0.24908c0.04053,-0.00404 0.99142,-0.11072 1.57952,0.00271c0.12188,0.0234 0.20204,0.14149 0.17833,0.26406c-0.02087,0.10668 -0.11528,0.1814 -0.2208,0.1814v0v0v0v0v0v0v0z" id="L_Eye" fill="#231f20" stroke="none" stroke-linecap="butt"/><path d="M217.4061,528.69265c0,0 -0.60746,0.81907 -1.96769,0.81907c-1.35992,0 -1.72407,-0.53834 -1.72407,-0.53834" id="Mouth" fill="none" stroke="#231f20" stroke-linecap="round"/></g></g></g><path d="M113,454.00013v-162h345.72179c0.08752,25.00449 0.27821,50.01024 0.27821,74.99992c0,26.15245 -0.60937,52.37268 0.01326,78.51478c0.06735,2.828 0.14845,5.65647 0.24149,8.4853z" data-paper-data="{&quot;origPos&quot;:null}" fill="#dbc19c" stroke="#b39d7f" stroke-width="10" stroke-linecap="butt" stroke-linejoin="miter"/><path d="M120,300.3334v-3.33333h338.74058c0.00444,1.11111 0.00905,2.22222 0.0138,3.33333z" data-paper-data="{&quot;origPos&quot;:null}" fill="#81715b" stroke="none" stroke-width="0" stroke-linecap="butt" stroke-linejoin="miter"/><path d="M113,454.00013v-162h345.72179c0.08752,25.00449 0.27821,50.01024 0.27821,74.99992c0,26.15245 -0.60937,52.37268 0.01326,78.51478c0.06735,2.828 0.14845,5.65647 0.24149,8.4853z" data-paper-data="{&quot;origPos&quot;:null}" fill="#dbc19c" stroke="#b39d7f" stroke-width="10" stroke-linecap="butt" stroke-linejoin="miter"/><path d="M120,300.3334v-3.33333h338.74058c0.00444,1.11111 0.00905,2.22222 0.0138,3.33333z" data-paper-data="{&quot;origPos&quot;:null}" fill="#81715b" stroke="none" stroke-width="0" stroke-linecap="butt" stroke-linejoin="miter"/><path d="M111,444.00012v-117h347.88183c0.06391,13.33613 0.11817,26.67031 0.11817,39.99992c0,25.64738 -0.58606,51.35995 -0.02145,77.00008z" data-paper-data="{&quot;origPos&quot;:null}" fill="#d8bd99" stroke="none" stroke-width="0" stroke-linecap="butt" stroke-linejoin="miter"/><path d="M117,507.00013v-150h341.99052c0.00609,4.2738 0.00948,8.54728 0.00948,12.82041c0,33.52878 -0.60937,67.14446 0.01326,100.65998c0.22605,12.16809 0.60693,24.34297 1.07436,36.51961z" data-paper-data="{&quot;origPos&quot;:null}" fill="#d1b694" stroke="none" stroke-width="0" stroke-linecap="butt" stroke-linejoin="miter"/><path d="M197,353.00005v-13v0z" data-paper-data="{&quot;origPos&quot;:null}" fill="#dbc19c" stroke="none" stroke-width="0" stroke-linecap="butt" stroke-linejoin="miter"/><path d="M165,342.53337c0,-5.52285 4.47715,-10 10,-10c5.52285,0 10,4.47715 10,10c0,5.52285 -4.47715,10 -10,10c-5.52285,0 -10,-4.47715 -10,-10z" data-paper-data="{&quot;origPos&quot;:null}" fill="#b39d7f" stroke="none" stroke-width="0.5" stroke-linecap="butt" stroke-linejoin="miter"/><path d="M428,328.53335c0,-5.52285 4.47715,-10 10,-10c5.52285,0 10,4.47715 10,10c0,5.52285 -4.47715,10 -10,10c-5.52285,0 -10,-4.47715 -10,-10z" data-paper-data="{&quot;origPos&quot;:null}" fill="#c0a988" stroke="none" stroke-width="0.5" stroke-linecap="butt" stroke-linejoin="miter"/><path d="M235,358.53344c0,-2.76142 2.23858,-5 5,-5c2.76142,0 5,2.23858 5,5c0,2.76142 -2.23858,5 -5,5c-2.76142,0 -5,-2.23858 -5,-5z" data-paper-data="{&quot;origPos&quot;:null}" fill="#c0a988" stroke="none" stroke-width="0.5" stroke-linecap="butt" stroke-linejoin="miter"/><path d="M318,318.53335c0,-2.76142 2.23858,-5 5,-5c2.76142,0 5,2.23858 5,5c0,2.76142 -2.23858,5 -5,5c-2.76142,0 -5,-2.23858 -5,-5z" data-paper-data="{&quot;origPos&quot;:null}" fill="#c0a988" stroke="none" stroke-width="0.5" stroke-linecap="butt" stroke-linejoin="miter"/><path d="M455,369.53344c0,-2.41876 1.71748,-4.43638 3.99944,-4.89987c0.00037,0.78884 0.00056,1.57766 0.00056,2.36647c0,2.47622 -0.00546,4.95304 -0.01483,7.43035c-2.27485,-0.46898 -3.98517,-2.48324 -3.98517,-4.89695z" data-paper-data="{&quot;origPos&quot;:null}" fill="#c0a988" stroke="none" stroke-width="0.5" stroke-linecap="butt" stroke-linejoin="miter"/><path d="M351,358.53344c0,-2.76142 2.23858,-5 5,-5c2.76142,0 5,2.23858 5,5c0,2.76142 -2.23858,5 -5,5c-2.76142,0 -5,-2.23858 -5,-5z" data-paper-data="{&quot;origPos&quot;:null}" fill="#c0a988" stroke="none" stroke-width="0.5" stroke-linecap="butt" stroke-linejoin="miter"/><path d="M432.66346,448.05647l5.66428,-150.41586l16.20488,-1.78541l15.51267,14.47821l21.10021,-10.70383l-5.66428,150.41586z" data-paper-data="{&quot;origPos&quot;:null,&quot;origRot&quot;:0}" fill="#696053" stroke="none" stroke-width="0" stroke-linecap="butt" stroke-linejoin="miter"/><path d="M432.66345,448.05645l5.66428,-150.41586l16.20488,-1.7854l15.51267,14.47821z" data-paper-data="{&quot;origPos&quot;:null,&quot;origRot&quot;:0}" fill="#696053" stroke="none" stroke-width="0" stroke-linecap="butt" stroke-linejoin="miter"/><path d="M440.90018,437.0915l5.66428,-150.41586l16.20488,-1.78541l15.51267,14.47821l21.10021,-10.70383l-5.66428,150.41586z" data-paper-data="{&quot;origPos&quot;:null,&quot;origRot&quot;:0}" fill="#8b7f6e" stroke="none" stroke-width="0" stroke-linecap="butt" stroke-linejoin="miter"/><path d="M440.90016,437.0915l5.66428,-150.41586l16.20488,-1.7854l15.51267,14.47821z" data-paper-data="{&quot;origPos&quot;:null,&quot;origRot&quot;:0}" fill="#817666" stroke="none" stroke-width="0" stroke-linecap="butt" stroke-linejoin="miter"/><path d="M430.08634,510.0786c0.49534,-13.1538 5.2412,-139.18087 5.2412,-139.18087l16.20488,-1.7854l15.51267,14.47821c0,0 1.32386,108.01779 -2.29278,121.34227c-1.20554,4.4415 -34.83109,9.53039 -34.66598,5.14579z" data-paper-data="{&quot;origPos&quot;:null,&quot;origRot&quot;:0}" fill="#696053" stroke="none" stroke-width="0" stroke-linecap="butt" stroke-linejoin="miter"/><path d="M437.89999,514.34862l5.66428,-150.41586l16.20488,-1.78541l15.51267,14.47821l21.10021,-10.70383l-5.66428,150.41586z" data-paper-data="{&quot;origPos&quot;:null,&quot;origRot&quot;:0}" fill="#8b7f6e" stroke="none" stroke-width="0" stroke-linecap="butt" stroke-linejoin="miter"/></g><g data-paper-data="{&quot;origPos&quot;:null}" stroke="none" stroke-width="0" stroke-linecap="butt" stroke-linejoin="miter"><path d="M216.83051,648.00001v-13c0,0 126.61037,5 207.64745,5c73.57314,0 188.52204,-5 188.52204,-5v13c0,0 -114.94889,5 -188.52203,5c-81.03708,0 -207.64745,-5 -207.64745,-5z" data-paper-data="{&quot;origPos&quot;:null}" fill="#23211c"/><path d="M210,643.00001v-13c0,0 126.61038,5 207.64746,5c73.57314,0 188.52203,-5 188.52203,-5v13c0,0 -114.94889,5 -188.52203,5c-81.03708,0 -207.64746,-5 -207.64746,-5z" data-paper-data="{&quot;origPos&quot;:null}" fill="#58534a"/><g data-paper-data="{&quot;origPos&quot;:null,&quot;index&quot;:null,&quot;origRot&quot;:0}"><path d="M566.66346,777.05647l5.66428,-150.41586l16.20488,-1.78541l15.51267,14.47821l21.10021,-10.70383l-5.66428,150.41586z" data-paper-data="{&quot;origPos&quot;:null,&quot;origRot&quot;:0}" fill="#696053"/><path d="M566.66345,777.05646l5.66428,-150.41586l16.20488,-1.7854l15.51267,14.47821z" data-paper-data="{&quot;origPos&quot;:null,&quot;origRot&quot;:0}" fill="#696053"/><path d="M574.90018,766.0915l5.66428,-150.41586l16.20488,-1.78541l15.51267,14.47821l21.10021,-10.70383l-5.66428,150.41586z" data-paper-data="{&quot;origPos&quot;:null,&quot;origRot&quot;:0}" fill="#8b7f6e"/><path d="M574.90016,766.0915l5.66428,-150.41586l16.20488,-1.7854l15.51267,14.47821z" data-paper-data="{&quot;origPos&quot;:null,&quot;origRot&quot;:0}" fill="#817666"/><path d="M561.66328,909.31362l5.66428,-150.41586l16.20488,-1.78541l15.51267,14.47821l21.10021,-10.70383l-5.66428,150.41586z" data-paper-data="{&quot;origPos&quot;:null,&quot;origRot&quot;:0}" fill="#696053"/><path d="M561.66326,909.31359l5.66428,-150.41586l16.20488,-1.7854l15.51267,14.47821z" data-paper-data="{&quot;origPos&quot;:null,&quot;origRot&quot;:0}" fill="#696053"/><path d="M569.89999,898.34863l5.66428,-150.41586l16.20488,-1.78541l15.51267,14.47821l21.10021,-10.70383l-5.66428,150.41586z" data-paper-data="{&quot;origPos&quot;:null,&quot;origRot&quot;:0}" fill="#8b7f6e"/><path d="M557.20364,1031.37959l5.66428,-150.41586l16.20488,-1.78541l15.51267,14.47821l21.10021,-10.70383l-5.66428,150.41586z" data-paper-data="{&quot;origPos&quot;:null,&quot;origRot&quot;:0}" fill="#696053"/><path d="M557.20362,1031.37959l5.66428,-150.41586l16.20488,-1.7854l15.51267,14.47821z" data-paper-data="{&quot;origPos&quot;:null,&quot;origRot&quot;:0}" fill="#696053"/><path d="M565.44035,1020.41464l5.66428,-150.41586l16.20488,-1.78541l15.51267,14.47821l21.10021,-10.70383l-5.66428,150.41586z" data-paper-data="{&quot;origPos&quot;:null,&quot;origRot&quot;:0}" fill="#8b7f6e"/></g></g><path d="M102.93065,231.80005v162h-163.93932c0.62179,-6.31682 1.18508,-12.64053 1.39965,-18.99999c0.50403,-14.9377 -0.66121,-29.72579 -3.09666,-44.51472c-2.05263,-12.24761 -2.50666,-24.49343 -3.92104,-36.80692c-0.54846,-4.77485 -1.70856,-9.48799 -2.2243,-14.26558c-1.37945,-12.77866 -1.13287,-25.5977 -1.13287,-38.41278c0,-2.98632 -0.06806,-5.99201 -0.12159,-9.00001z" data-paper-data="{&quot;origPos&quot;:null}" fill="#dbc19c" stroke="#b39d7f" stroke-width="10" stroke-linecap="butt" stroke-linejoin="miter"/><path d="M102.93065,231.80005v162h-163.93932c0.62179,-6.31682 1.18508,-12.64053 1.39965,-18.99999c0.50403,-14.9377 -0.66121,-29.72579 -3.09666,-44.51472c-2.05263,-12.24761 -2.50666,-24.49343 -3.92104,-36.80692c-0.54846,-4.77485 -1.70856,-9.48799 -2.2243,-14.26558c-1.37945,-12.77866 -1.13287,-25.5977 -1.13287,-38.41278c0,-2.98632 -0.06806,-5.99201 -0.12159,-9.00001z" data-paper-data="{&quot;origPos&quot;:null}" fill="#dbc19c" stroke="#b39d7f" stroke-width="10" stroke-linecap="butt" stroke-linejoin="miter"/><path d="M111,236.80006v3.33333h-180.98498c-0.00359,-1.10891 -0.01569,-2.22031 -0.0321,-3.33333z" data-paper-data="{&quot;origPos&quot;:null}" fill="#81715b" stroke="none" stroke-width="0" stroke-linecap="butt" stroke-linejoin="miter"/><path d="M98.3196,266.80001v117h-158.4362c0.2267,-2.99404 0.40613,-5.99302 0.50758,-8.99999c0.50403,-14.9377 -0.66121,-29.72579 -3.09666,-44.51472c-2.05263,-12.24761 -2.50666,-24.49343 -3.92104,-36.80692c-0.54846,-4.77485 -1.70856,-9.48799 -2.2243,-14.26558c-0.44625,-4.13387 -0.72233,-8.27197 -0.89165,-12.41279z" data-paper-data="{&quot;origPos&quot;:null}" fill="#d8bd99" stroke="none" stroke-width="0" stroke-linecap="butt" stroke-linejoin="miter"/><path d="M103.3196,327.2v218h-160.85349c0.94751,-21.7362 2.52915,-43.36166 2.92487,-65.21368c0.50403,-27.83264 -0.66121,-55.38651 -3.09666,-82.94195c-2.05263,-22.82033 -2.50666,-45.63733 -3.92104,-68.58042c-0.02598,-0.42156 -0.05335,-0.84288 -0.08195,-1.26396z" data-paper-data="{&quot;origPos&quot;:null}" fill="#d1b694" stroke="none" stroke-width="0" stroke-linecap="butt" stroke-linejoin="miter"/><path d="M57.97287,278.80001v0v13z" data-paper-data="{&quot;origPos&quot;:null}" fill="#dbc19c" stroke="none" stroke-width="0" stroke-linecap="butt" stroke-linejoin="miter"/><path d="M51.05629,266.33338c0,-2.76142 2.58055,-5 5.76382,-5c3.18326,0 5.76382,2.23858 5.76382,5c0,2.76142 -2.58055,5 -5.76382,5c-3.18326,0 -5.76382,-2.23858 -5.76382,-5z" data-paper-data="{&quot;origPos&quot;:null}" fill="#c0a988" stroke="none" stroke-width="0.5" stroke-linecap="butt" stroke-linejoin="miter"/><path d="M-15,303.33333c0,-2.76142 2.23858,-5 5,-5c2.76142,0 5,2.23858 5,5c0,2.76142 -2.23858,5 -5,5c-2.76142,0 -5,-2.23858 -5,-5z" data-paper-data="{&quot;origPos&quot;:null}" fill="#c0a988" stroke="none" stroke-width="0.5" stroke-linecap="butt" stroke-linejoin="miter"/><path d="M9,281.33338c0,-5.52285 4.47715,-10 10,-10c5.52285,0 10,4.47715 10,10c0,5.52285 -4.47715,10 -10,10c-5.52285,0 -10,-4.47715 -10,-10z" data-paper-data="{&quot;origPos&quot;:null}" fill="#b39d7f" stroke="none" stroke-width="0.5" stroke-linecap="butt" stroke-linejoin="miter"/><g data-paper-data="{&quot;origPos&quot;:null}" stroke="none" stroke-width="0" stroke-linecap="butt" stroke-linejoin="miter"><path d="M-88.60966,360.03608l-9.83337,-137.61497l19.65958,9.1538l13.76347,-13.7419l14.89976,1.13515l9.83337,137.61497z" data-paper-data="{&quot;origPos&quot;:null,&quot;origRot&quot;:0}" fill="#696053"/><path d="M-78.78348,231.57491l13.76348,-13.7419l14.89976,1.13515l9.83337,137.61497z" data-paper-data="{&quot;origPos&quot;:null,&quot;origRot&quot;:0}" fill="#696053"/><path d="M-94.66989,354.47429l-9.83337,-137.61497l19.65958,9.1538l13.76348,-13.7419l14.89976,1.13515l9.83337,137.61498z" data-paper-data="{&quot;origPos&quot;:null,&quot;origRot&quot;:0}" fill="#8b7f6e"/><path d="M-84.8437,226.01312l13.76348,-13.74191l14.89976,1.13515l9.83337,137.61498z" data-paper-data="{&quot;origPos&quot;:null,&quot;origRot&quot;:0}" fill="#817666"/><path d="M-81.23744,462.40463l-9.83337,-137.61497l19.65958,9.1538l13.76347,-13.7419l14.89976,1.13515l9.83337,137.61497z" data-paper-data="{&quot;origPos&quot;:null,&quot;origRot&quot;:0}" fill="#696053"/><path d="M-71.41126,333.94345l13.76348,-13.7419l14.89976,1.13515l9.83337,137.61497z" data-paper-data="{&quot;origPos&quot;:null,&quot;origRot&quot;:0}" fill="#696053"/><path d="M-87.29767,457.89602l-9.83337,-137.61497l19.65958,9.1538l13.76348,-13.7419l14.89976,1.13515l9.83337,137.61498z" data-paper-data="{&quot;origPos&quot;:null,&quot;origRot&quot;:0}" fill="#8b7f6e"/><path d="M-73.60192,570.61826l-9.83337,-137.61497l19.65958,9.1538l13.76347,-13.7419l14.89976,1.13515l9.83337,137.61497z" data-paper-data="{&quot;origPos&quot;:null,&quot;origRot&quot;:0}" fill="#696053"/><path d="M-63.77574,442.15713l13.76348,-13.7419l14.89976,1.13515l9.83337,137.61497z" data-paper-data="{&quot;origPos&quot;:null,&quot;origRot&quot;:0}" fill="#696053"/><path d="M-79.66215,566.10966l-9.83337,-137.61497l19.65958,9.1538l13.76348,-13.7419l14.89976,1.13515l9.83337,137.61498z" data-paper-data="{&quot;origPos&quot;:null,&quot;origRot&quot;:0}" fill="#8b7f6e"/></g><path d="" fill="#9966ff" stroke="none" stroke-width="0.5" stroke-linecap="butt" stroke-linejoin="miter"/><path d="M169.2709,669.57751v-42.47191h70c0,0 -10.76989,23.13093 -25.21434,31.89497c-12.87395,7.81117 -44.78566,10.57693 -44.78566,10.57693z" data-paper-data="{&quot;origPos&quot;:null}" fill="#696969" stroke="none" stroke-width="0" stroke-linecap="butt" stroke-linejoin="miter"/><path d="M169.27086,669.57751v-42.47191h70c0,0 -28.52429,8.87991 -44.22109,18.40381c-11.6216,7.05131 -25.77891,24.0681 -25.77891,24.0681z" data-paper-data="{&quot;origPos&quot;:null}" fill="#727272" stroke="none" stroke-width="0" stroke-linecap="butt" stroke-linejoin="miter"/><g data-paper-data="{&quot;origPos&quot;:null,&quot;index&quot;:null,&quot;origRot&quot;:0}" stroke="none" stroke-width="0" stroke-linecap="butt" stroke-linejoin="miter"><path d="M135.66346,393.85648l5.66428,-150.41586l16.20488,-1.78541l15.51267,14.47821l21.10021,-10.70383l-5.66428,150.41586z" data-paper-data="{&quot;origPos&quot;:null,&quot;origRot&quot;:0}" fill="#696053"/><path d="M135.66345,393.85647l5.66428,-150.41586l16.20488,-1.7854l15.51267,14.47821z" data-paper-data="{&quot;origPos&quot;:null,&quot;origRot&quot;:0}" fill="#696053"/><path d="M143.90018,382.89151l5.66428,-150.41586l16.20488,-1.78541l15.51267,14.47821l21.10021,-10.70383l-5.66428,150.41586z" data-paper-data="{&quot;origPos&quot;:null,&quot;origRot&quot;:0}" fill="#8b7f6e"/><path d="M143.90016,382.89151l5.66428,-150.41586l16.20488,-1.7854l15.51267,14.47821z" data-paper-data="{&quot;origPos&quot;:null,&quot;origRot&quot;:0}" fill="#817666"/><path d="M130.66328,526.11362l5.66428,-150.41586l16.20488,-1.78541l15.51267,14.47821l21.10021,-10.70383l-5.66428,150.41586z" data-paper-data="{&quot;origPos&quot;:null,&quot;origRot&quot;:0}" fill="#696053"/><path d="M130.66326,526.11358l5.66428,-150.41586l16.20488,-1.7854l15.51267,14.47821z" data-paper-data="{&quot;origPos&quot;:null,&quot;origRot&quot;:0}" fill="#696053"/><path d="M138.89999,515.14861l5.66428,-150.41586l16.20488,-1.78541l15.51267,14.47821l21.10021,-10.70383l-5.66428,150.41586z" data-paper-data="{&quot;origPos&quot;:null,&quot;origRot&quot;:0}" fill="#8b7f6e"/><path d="M126.20364,648.17963l5.66428,-150.41586l16.20488,-1.78541l15.51267,14.47821l21.10021,-10.70383l-5.66428,150.41586z" data-paper-data="{&quot;origPos&quot;:null,&quot;origRot&quot;:0}" fill="#696053"/><path d="M126.20362,648.17963l5.66428,-150.41586l16.20488,-1.7854l15.51267,14.47821z" data-paper-data="{&quot;origPos&quot;:null,&quot;origRot&quot;:0}" fill="#696053"/><path d="M134.44035,637.21466l5.66428,-150.41586l16.20488,-1.78541l15.51267,14.47821l21.10021,-10.70383l-5.66428,150.41586z" data-paper-data="{&quot;origPos&quot;:null,&quot;origRot&quot;:0}" fill="#8b7f6e"/></g><g data-paper-data="{&quot;origPos&quot;:null,&quot;index&quot;:null,&quot;origRot&quot;:0}" stroke="none" stroke-width="0" stroke-linecap="butt" stroke-linejoin="miter"><path d="M86.66346,357.85648l5.66428,-150.41586l16.20488,-1.78541l15.51267,14.47821l21.10021,-10.70383l-5.66428,150.41586z" data-paper-data="{&quot;origPos&quot;:null,&quot;origRot&quot;:0}" fill="#696053"/><path d="M86.66345,357.85647l5.66428,-150.41586l16.20488,-1.7854l15.51267,14.47821z" data-paper-data="{&quot;origPos&quot;:null,&quot;origRot&quot;:0}" fill="#696053"/><path d="M94.90018,346.89151l5.66428,-150.41586l16.20488,-1.78541l15.51267,14.47821l21.10021,-10.70383l-5.66428,150.41586z" data-paper-data="{&quot;origPos&quot;:null,&quot;origRot&quot;:0}" fill="#8b7f6e"/><path d="M94.90016,346.89151l5.66428,-150.41586l16.20488,-1.7854l15.51267,14.47821z" data-paper-data="{&quot;origPos&quot;:null,&quot;origRot&quot;:0}" fill="#817666"/><path d="M81.66328,490.11363l5.66428,-150.41586l16.20488,-1.78541l15.51267,14.47821l21.10021,-10.70383l-5.66428,150.41586z" data-paper-data="{&quot;origPos&quot;:null,&quot;origRot&quot;:0}" fill="#696053"/><path d="M81.66326,490.1136l5.66428,-150.41586l16.20488,-1.7854l15.51267,14.47821z" data-paper-data="{&quot;origPos&quot;:null,&quot;origRot&quot;:0}" fill="#696053"/><path d="M89.89999,479.14863l5.66428,-150.41586l16.20488,-1.78541l15.51267,14.47821l21.10021,-10.70383l-5.66428,150.41586z" data-paper-data="{&quot;origPos&quot;:null,&quot;origRot&quot;:0}" fill="#8b7f6e"/><path d="M77.20364,612.17959l5.66428,-150.41586l16.20488,-1.78541l15.51267,14.47821l21.10021,-10.70383l-5.66428,150.41586z" data-paper-data="{&quot;origPos&quot;:null,&quot;origRot&quot;:0}" fill="#696053"/><path d="M77.20362,612.17959l5.66428,-150.41586l16.20488,-1.7854l15.51267,14.47821z" data-paper-data="{&quot;origPos&quot;:null,&quot;origRot&quot;:0}" fill="#696053"/><path d="M85.44035,601.21462l5.66428,-150.41586l16.20488,-1.78541l15.51267,14.47821l21.10021,-10.70383l-5.66428,150.41586z" data-paper-data="{&quot;origPos&quot;:null,&quot;origRot&quot;:0}" fill="#8b7f6e"/></g></g></g></svg>