<svg version="1.1" xmlns="http://www.w3.org/2000/svg" xmlns:xlink="http://www.w3.org/1999/xlink" width="664.68582" height="1060.8159"><g transform="translate(116.30358,0.30973)"><g data-paper-data="{&quot;isPaintingLayer&quot;:true}" fill="none" fill-rule="nonzero" stroke="none" stroke-width="none" stroke-linecap="butt" stroke-linejoin="miter" stroke-miterlimit="10" stroke-dasharray="" stroke-dashoffset="0" font-family="none" font-weight="none" font-size="none" text-anchor="none" style="mix-blend-mode: normal"><path d="M484.61814,193.9056v42.47191l-69.8,-13.8c0,0 -10.43011,-19.33093 4.01434,-28.09497c12.87395,-7.81117 65.78566,-0.57693 65.78566,-0.57693z" data-paper-data="{&quot;origPos&quot;:null,&quot;index&quot;:null}" fill="#696969" stroke="none" stroke-width="0"/><path d="M484.61818,193.9056v42.47191c0,0 -41.19177,0 -56.72914,0c-5.17912,0 -13.27086,-14 -13.27086,-14c0,0 28.52429,5.12009 44.22109,-4.40381c11.6216,-7.05131 25.77891,-24.0681 25.77891,-24.0681z" data-paper-data="{&quot;origPos&quot;:null,&quot;index&quot;:null}" fill="#727272" stroke="none" stroke-width="0"/><path d="M483.61814,381.37749c0,0 -31.91171,-2.76576 -44.78566,-10.57693c-14.44445,-8.76404 -20.21434,-31.89497 -20.21434,-31.89497h65v42.47191z" data-paper-data="{&quot;origPos&quot;:null,&quot;index&quot;:null}" fill="#696969" stroke="none" stroke-width="0"/><path d="M457.83927,357.30941c-15.6968,-9.5239 -35.22109,-18.40381 -35.22109,-18.40381h61v42.47191c0,0 -14.15731,-17.01679 -25.77891,-24.0681z" data-paper-data="{&quot;origPos&quot;:null,&quot;index&quot;:null}" fill="#727272" stroke="none" stroke-width="0"/><path d="M511,129.82885c-2.0981,4.74844 -3.89098,9.49779 -4.89506,14.24052c-3.94505,18.63416 -4.32446,37.33256 -6.46076,55.98003c-0.4504,3.93172 -1.33197,7.85708 -2.45214,11.77945c0,0 -351.91888,0 -377.15667,0c-8.41261,0 -13.06876,-21 -13.06876,-21c2.58146,-4.96866 -2.98441,11.07636 0.81035,6.16829c11.83751,-15.3105 23.67498,-30.621 35.51247,-45.93149c5.47028,-7.07523 11.49271,-14.14582 16.60305,-21.23681z" data-paper-data="{&quot;origPos&quot;:null,&quot;index&quot;:null}" fill="#949494" stroke="#6f6f6f" stroke-width="10"/><path d="M491.37056,206.11896c-0.13248,0.76142 -0.27129,1.52274 -0.41583,2.28394c0,0 -208.53719,0 -310.75018,0c-34.07099,0 -87.30269,0 -87.30269,0c0.30751,-0.76167 0.62058,-1.523 0.93992,-2.28394z" data-paper-data="{&quot;origPos&quot;:null,&quot;index&quot;:null}" fill="#666666" stroke="none" stroke-width="0"/><path d="M460.97289,83.80004v-13v0z" data-paper-data="{&quot;origPos&quot;:null}" fill="#dbc19c" stroke="none" stroke-width="0"/><path d="M496.10866,23.80007v162h-363.48671c1.37864,-6.31682 2.62757,-12.64053 3.1033,-18.99999c1.11753,-14.9377 -1.46604,-29.72579 -6.86592,-44.51472c-4.5511,-12.24761 -5.55777,-24.49343 -8.69374,-36.80692c-1.21605,-4.77485 -3.78822,-9.48799 -4.93172,-14.26558c-3.05853,-12.77866 -2.5118,-25.5977 -2.5118,-38.41278c0,-2.98632 -0.1509,-5.99201 -0.26959,-9.00001z" data-paper-data="{&quot;origPos&quot;:null}" fill="#dbc19c" stroke="#b39d7f" stroke-width="10"/><path d="M496.10866,23.80007v162h-363.48671c1.37864,-6.31682 2.62757,-12.64053 3.1033,-18.99999c1.11753,-14.9377 -1.46604,-29.72579 -6.86592,-44.51472c-4.5511,-12.24761 -5.55777,-24.49343 -8.69374,-36.80692c-1.21605,-4.77485 -3.78822,-9.48799 -4.93172,-14.26558c-3.05853,-12.77866 -2.5118,-25.5977 -2.5118,-38.41278c0,-2.98632 -0.1509,-5.99201 -0.26959,-9.00001z" data-paper-data="{&quot;origPos&quot;:null}" fill="#dbc19c" stroke="#b39d7f" stroke-width="10"/><path d="M514.00002,28.80006v3.33333h-401.2804c-0.00796,-1.10891 -0.0348,-2.22031 -0.07118,-3.33333z" data-paper-data="{&quot;origPos&quot;:null}" fill="#81715b" stroke="none" stroke-width="0"/><path d="M485.88501,58.80005v117h-351.28518c0.50264,-2.99404 0.90048,-5.99302 1.12541,-8.99999c1.11753,-14.9377 -1.46604,-29.72579 -6.86592,-44.51472c-4.5511,-12.24761 -5.55777,-24.49343 -8.69374,-36.80692c-1.21605,-4.77485 -3.78822,-9.48799 -4.93172,-14.26558c-0.98942,-4.13387 -1.60155,-8.27197 -1.97696,-12.41279z" data-paper-data="{&quot;origPos&quot;:null}" fill="#d8bd99" stroke="none" stroke-width="0"/><path d="M108.00001,200.80005v-93h380.12245v93z" data-paper-data="{&quot;origPos&quot;:null}" fill="#d1b694" stroke="none" stroke-width="0"/><path d="M454.05631,58.33341c0,-2.76142 2.58055,-5 5.76382,-5c3.18326,0 5.76382,2.23858 5.76382,5c0,2.76142 -2.58055,5 -5.76382,5c-3.18326,0 -5.76382,-2.23858 -5.76382,-5z" data-paper-data="{&quot;origPos&quot;:null}" fill="#c0a988" stroke="none" stroke-width="0.5"/><path d="M317.00004,93.33337c0,-2.76142 2.23858,-5 5,-5c2.76142,0 5,2.23858 5,5c0,2.76142 -2.23858,5 -5,5c-2.76142,0 -5,-2.23858 -5,-5z" data-paper-data="{&quot;origPos&quot;:null}" fill="#c0a988" stroke="none" stroke-width="0.5"/><path d="M341.00002,71.33341c0,-5.52285 4.47715,-10 10,-10c5.52285,0 10,4.47715 10,10c0,5.52285 -4.47715,10 -10,10c-5.52285,0 -10,-4.47715 -10,-10z" data-paper-data="{&quot;origPos&quot;:null}" fill="#b39d7f" stroke="none" stroke-width="0.5"/><path d="M481.66349,162.85651l5.66428,-150.41586l16.20488,-1.78541l15.51267,14.47821l21.10021,-10.70383l-5.66428,150.41586z" data-paper-data="{&quot;origPos&quot;:null,&quot;origRot&quot;:0}" fill="#696053" stroke="none" stroke-width="0"/><path d="M481.66348,162.85649l5.66428,-150.41586l16.20488,-1.7854l15.51267,14.47821z" data-paper-data="{&quot;origPos&quot;:null,&quot;origRot&quot;:0}" fill="#696053" stroke="none" stroke-width="0"/><path d="M489.9002,151.89154l5.66428,-150.41586l16.20488,-1.78541l15.51267,14.47821l21.10021,-10.70383l-5.66428,150.41586z" data-paper-data="{&quot;origPos&quot;:null,&quot;origRot&quot;:0}" fill="#8b7f6e" stroke="none" stroke-width="0"/><path d="M489.90019,151.89154l5.66428,-150.41586l16.20488,-1.7854l15.51267,14.47821z" data-paper-data="{&quot;origPos&quot;:null,&quot;origRot&quot;:0}" fill="#817666" stroke="none" stroke-width="0"/><path d="M476.66331,295.11366l5.66428,-150.41586l16.20488,-1.78541l15.51267,14.47821l21.10021,-10.70383l-5.66428,150.41586z" data-paper-data="{&quot;origPos&quot;:null,&quot;origRot&quot;:0}" fill="#696053" stroke="none" stroke-width="0"/><path d="M476.66329,295.11362l5.66428,-150.41586l16.20488,-1.7854l15.51267,14.47821z" data-paper-data="{&quot;origPos&quot;:null,&quot;origRot&quot;:0}" fill="#696053" stroke="none" stroke-width="0"/><path d="M484.90002,284.14865l5.66428,-150.41586l16.20488,-1.78541l15.51267,14.47821l21.10021,-10.70383l-5.66428,150.41586z" data-paper-data="{&quot;origPos&quot;:null,&quot;origRot&quot;:0}" fill="#8b7f6e" stroke="none" stroke-width="0"/><path d="M79.92798,161.65856l-7.22523,-150.34896l15.99272,-3.16526l16.69447,13.09795l20.10709,-12.4698l7.22523,150.34896z" data-paper-data="{&quot;origPos&quot;:null,&quot;origRot&quot;:0}" fill="#696053" stroke="none" stroke-width="0"/><path d="M79.92796,161.65855l-7.22523,-150.34896l15.99272,-3.16525l16.69447,13.09795z" data-paper-data="{&quot;origPos&quot;:null,&quot;origRot&quot;:0}" fill="#696053" stroke="none" stroke-width="0"/><path d="M81.32625,162.65856l-7.22523,-150.34896l15.99272,-3.16526l16.69447,13.09795l20.10709,7.5302l7.22523,130.34896z" data-paper-data="{&quot;origPos&quot;:null,&quot;origRot&quot;:0}" fill="#696053" stroke="none" stroke-width="0"/><path d="M81.32622,162.65855l-7.22523,-150.34896l15.99272,-3.16525l16.69447,13.09795z" data-paper-data="{&quot;origPos&quot;:null,&quot;origRot&quot;:0}" fill="#696053" stroke="none" stroke-width="0"/><path d="M72.59465,155.02911l-7.22523,-150.34896l15.99272,-3.16526l16.69447,13.09795l20.10709,-12.4698l7.22523,150.34896z" data-paper-data="{&quot;origPos&quot;:null,&quot;origRot&quot;:0}" fill="#8b7f6e" stroke="none" stroke-width="0"/><path d="M72.59462,155.02909l-7.22523,-150.34896l15.99272,-3.16525l16.69447,13.09795z" data-paper-data="{&quot;origPos&quot;:null,&quot;origRot&quot;:0}" fill="#817666" stroke="none" stroke-width="0"/><path d="M471.66331,432.11367l5.66428,-150.41586l16.20488,-1.78541l15.51267,14.47821l21.10021,-10.70383l-5.66428,150.41586z" data-paper-data="{&quot;origPos&quot;:null,&quot;origRot&quot;:0}" fill="#696053" stroke="none" stroke-width="0"/><path d="M479.90003,421.14867l5.66428,-150.41586l16.20488,-1.78541l15.51267,14.47821l21.10021,-10.70383l-5.66428,150.41586z" data-paper-data="{&quot;origPos&quot;:null,&quot;origRot&quot;:0}" fill="#8b7f6e" stroke="none" stroke-width="0"/><path d="M84.32625,220.65857l-7.22523,-150.34896l15.99272,-3.16526l16.69447,13.09795l20.10709,7.5302l7.22523,130.34896z" data-paper-data="{&quot;origPos&quot;:null,&quot;origRot&quot;:0}" fill="#696053" stroke="none" stroke-width="0"/><path d="M74.42811,210.82751c-0.58523,-12.17807 -6.72537,-139.94736 -6.72537,-139.94736l15.99272,-3.16526l16.69447,-12.90205l20.10709,13.5302l7.22523,150.34896c0,0 -28.97814,1.39259 -41.82309,2.00987c-4.28165,0.20576 -11.27598,-5.815 -11.47106,-9.87436z" data-paper-data="{&quot;origPos&quot;:null,&quot;origRot&quot;:0,&quot;index&quot;:null}" fill="#8b7f6e" stroke="none" stroke-width="0"/><path d="M302.20074,360.51192c0,0 -8.01421,-7.4986 -13.14371,-12.29809c-3.13469,-2.93302 -6.80632,1.84844 -9.94101,-1.08458c-1.42486,-1.33319 -0.31742,-8.51386 -1.74228,-9.84705c-7.97922,-7.46587 -20.44576,-19.13036 -20.44576,-19.13036l5.46582,-5.84165l45.27276,42.36008z" data-paper-data="{&quot;origPos&quot;:null,&quot;origRot&quot;:0}" fill="#5a5348" stroke="none" stroke-width="0"/><path d="M302.20074,360.51192c0,0 -8.01421,-7.4986 -13.14371,-12.29809c-3.13469,-2.93301 -10.25843,-9.59844 -11.68329,-10.93163c-7.97922,-7.46587 -20.44576,-19.13036 -20.44576,-19.13036l5.46582,-5.84165l45.27276,42.36008z" data-paper-data="{&quot;origPos&quot;:null,&quot;origRot&quot;:0}" fill="#6e6658" stroke="none" stroke-width="0"/><path d="M94.41108,333.20003c-73.57314,0 -188.52203,-5 -188.52203,-5v-13c0,0 114.94889,5 188.52204,5c81.03709,0 207.64746,-5 207.64746,-5v13c0,0 -126.61037,5 -207.64746,5z" data-paper-data="{&quot;origPos&quot;:null,&quot;index&quot;:null}" fill="#23211c" stroke="none" stroke-width="0"/><path d="M101.24158,328.20003c-73.57314,0 -188.52203,-5 -188.52203,-5v-13c0,0 114.94889,5 188.52204,5c81.03708,0 207.64746,-5 207.64746,-5v13c0,0 -126.61038,5 -207.64746,5z" data-paper-data="{&quot;origPos&quot;:null,&quot;index&quot;:null}" fill="#58534a" stroke="none" stroke-width="0"/><g data-paper-data="{&quot;origPos&quot;:null}" stroke="none" stroke-width="0"><g data-paper-data="{&quot;origPos&quot;:null,&quot;index&quot;:null,&quot;origRot&quot;:0}"><path d="M290.89699,472.30432l0.24616,-150.52227l16.13011,-2.36757l16.02378,13.91043l20.70124,-11.45643l-0.24616,150.52227z" data-paper-data="{&quot;origPos&quot;:null,&quot;origRot&quot;:0}" fill="#696053"/><path d="M290.89698,472.30432l0.24616,-150.52227l16.13011,-2.36756l16.02378,13.91043z" data-paper-data="{&quot;origPos&quot;:null,&quot;origRot&quot;:0}" fill="#696053"/><path d="M298.73366,461.04996l0.24616,-150.52227l16.13011,-2.36757l16.02378,13.91043l20.70124,-11.45643l-0.24616,150.52227z" data-paper-data="{&quot;origPos&quot;:null,&quot;origRot&quot;:0}" fill="#8b7f6e"/><path d="M298.73365,461.04995l0.24616,-150.52227l16.13011,-2.36756l16.02378,13.91043z" data-paper-data="{&quot;origPos&quot;:null,&quot;origRot&quot;:0}" fill="#817666"/><path d="M291.27705,605.68756l0.24616,-150.52227l16.13011,-2.36757l16.02378,13.91043l20.70124,-11.45643l-0.24616,150.52227z" data-paper-data="{&quot;origPos&quot;:null,&quot;origRot&quot;:0}" fill="#696053"/><path d="M291.27704,605.68755l0.24616,-150.52227l16.13011,-2.36756l16.02378,13.91043z" data-paper-data="{&quot;origPos&quot;:null,&quot;origRot&quot;:0}" fill="#696053"/><path d="M290.90652,734.02739l0.24616,-150.52227l16.13011,-2.36757l16.02378,13.91043l20.70124,-11.45643l-0.24616,150.52227z" data-paper-data="{&quot;origPos&quot;:null,&quot;origRot&quot;:0}" fill="#696053"/><path d="M290.90651,734.02739l0.24616,-150.52227l16.13011,-2.36756l16.02378,13.91043z" data-paper-data="{&quot;origPos&quot;:null,&quot;origRot&quot;:0}" fill="#696053"/><path d="M298.07735,722.73993l0.24616,-150.52227l16.13011,-2.36757l16.02378,13.91043l20.70124,-11.45643l-0.24616,150.52227z" data-paper-data="{&quot;origPos&quot;:null,&quot;origRot&quot;:0}" fill="#8b7f6e"/><path d="M298.44788,594.40013l0.24616,-150.52227l16.13011,-2.36757l16.02378,13.91043l20.70124,-11.45643l-0.24616,150.52227z" data-paper-data="{&quot;origPos&quot;:null,&quot;origRot&quot;:0}" fill="#8b7f6e"/></g><g data-paper-data="{&quot;origPos&quot;:null,&quot;index&quot;:null,&quot;origRot&quot;:0}"><path d="M290.69644,798.69668l0.24616,-150.52227l16.13011,-2.36757l16.02378,13.91043l20.70124,-11.45643l-0.24616,150.52227z" data-paper-data="{&quot;origPos&quot;:null,&quot;origRot&quot;:0}" fill="#696053"/><path d="M290.69642,798.69668l0.24616,-150.52227l16.13011,-2.36756l16.02378,13.91043z" data-paper-data="{&quot;origPos&quot;:null,&quot;origRot&quot;:0}" fill="#696053"/><path d="M298.53311,787.44233l0.24616,-150.52227l16.13011,-2.36757l16.02378,13.91043l20.70124,-11.45643l-0.24616,150.52227z" data-paper-data="{&quot;origPos&quot;:null,&quot;origRot&quot;:0}" fill="#8b7f6e"/><path d="M298.5331,787.4423l0.24616,-150.52227l16.13011,-2.36756l16.02378,13.91043z" data-paper-data="{&quot;origPos&quot;:null,&quot;origRot&quot;:0}" fill="#817666"/><path d="M291.0765,932.07994l0.24616,-150.52227l16.13011,-2.36757l16.02378,13.91043l20.70124,-11.45643l-0.24616,150.52227z" data-paper-data="{&quot;origPos&quot;:null,&quot;origRot&quot;:0}" fill="#696053"/><path d="M291.07649,932.07993l0.24616,-150.52227l16.13011,-2.36756l16.02378,13.91043z" data-paper-data="{&quot;origPos&quot;:null,&quot;origRot&quot;:0}" fill="#696053"/><path d="M290.70597,1060.41974l0.24616,-150.52227l16.13011,-2.36757l16.02378,13.91043l20.70124,-11.45643l-0.24616,150.52227z" data-paper-data="{&quot;origPos&quot;:null,&quot;origRot&quot;:0}" fill="#696053"/><path d="M290.70595,1060.41974l0.24616,-150.52227l16.13011,-2.36756l16.02378,13.91043z" data-paper-data="{&quot;origPos&quot;:null,&quot;origRot&quot;:0}" fill="#696053"/><path d="M297.87679,1049.13228l0.24616,-150.52227l16.13011,-2.36757l16.02378,13.91043l20.70124,-11.45643l-0.24616,150.52227z" data-paper-data="{&quot;origPos&quot;:null,&quot;origRot&quot;:0}" fill="#8b7f6e"/><path d="M298.24733,920.7925l0.24616,-150.52227l16.13011,-2.36757l16.02378,13.91043l20.70124,-11.45643l-0.24616,150.52227z" data-paper-data="{&quot;origPos&quot;:null,&quot;origRot&quot;:0}" fill="#8b7f6e"/></g></g><path d="M28.00004,122.80008v-13v0z" data-paper-data="{&quot;origPos&quot;:null}" fill="#dbc19c" stroke="none" stroke-width="0"/><path d="M-116.10301,187.30432l0.24616,-150.52227l16.13011,-2.36757l16.02378,13.91043l20.70124,-11.45643l-0.24616,150.52227z" data-paper-data="{&quot;origPos&quot;:null,&quot;origRot&quot;:0}" fill="#696053" stroke="none" stroke-width="0"/><path d="M-116.10302,187.30432l0.24616,-150.52227l16.13011,-2.36756l16.02378,13.91043z" data-paper-data="{&quot;origPos&quot;:null,&quot;origRot&quot;:0}" fill="#696053" stroke="none" stroke-width="0"/><path d="M-108.26634,176.04997l0.24616,-150.52227l16.13011,-2.36757l16.02378,13.91043l20.70124,-11.45643l-0.24616,150.52227z" data-paper-data="{&quot;origPos&quot;:null,&quot;origRot&quot;:0}" fill="#8b7f6e" stroke="none" stroke-width="0"/><path d="M-108.26635,176.04994l0.24616,-150.52227l16.13011,-2.36756l16.02378,13.91043z" data-paper-data="{&quot;origPos&quot;:null,&quot;origRot&quot;:0}" fill="#817666" stroke="none" stroke-width="0"/><path d="M-115.72295,320.68755l0.24616,-150.52227l16.13011,-2.36757l16.02378,13.91043l20.70124,-11.45643l-0.24616,150.52227z" data-paper-data="{&quot;origPos&quot;:null,&quot;origRot&quot;:0}" fill="#696053" stroke="none" stroke-width="0"/><path d="M-115.72296,320.68755l0.24616,-150.52227l16.13011,-2.36756l16.02378,13.91043z" data-paper-data="{&quot;origPos&quot;:null,&quot;origRot&quot;:0}" fill="#696053" stroke="none" stroke-width="0"/><path d="M-116.09348,449.02739l0.24616,-150.52227l16.13011,-2.36757l16.02378,13.91043l20.70124,-11.45643l-0.24616,150.52227z" data-paper-data="{&quot;origPos&quot;:null,&quot;origRot&quot;:0}" fill="#696053" stroke="none" stroke-width="0"/><path d="M-116.09349,449.02739l0.24616,-150.52227l16.13011,-2.36756l16.02378,13.91043z" data-paper-data="{&quot;origPos&quot;:null,&quot;origRot&quot;:0}" fill="#696053" stroke="none" stroke-width="0"/><path d="M-108.92265,437.73993l0.24616,-150.52227l16.13011,-2.36757l16.02378,13.91043l20.70124,-11.45643l-0.24616,150.52227z" data-paper-data="{&quot;origPos&quot;:null,&quot;origRot&quot;:0}" fill="#8b7f6e" stroke="none" stroke-width="0"/><path d="M-108.55212,309.40013l0.24616,-150.52227l16.13011,-2.36757l16.02378,13.91043l20.70124,-11.45643l-0.24616,150.52227z" data-paper-data="{&quot;origPos&quot;:null,&quot;origRot&quot;:0}" fill="#8b7f6e" stroke="none" stroke-width="0"/><path d="M-116.30356,513.69666l0.24616,-150.52227l16.13011,-2.36757l16.02378,13.91043l20.70124,-11.45643l-0.24616,150.52227z" data-paper-data="{&quot;origPos&quot;:null,&quot;origRot&quot;:0}" fill="#696053" stroke="none" stroke-width="0"/><path d="M-116.30358,513.69666l0.24616,-150.52227l16.13011,-2.36756l16.02378,13.91043z" data-paper-data="{&quot;origPos&quot;:null,&quot;origRot&quot;:0}" fill="#696053" stroke="none" stroke-width="0"/><path d="M-108.46689,502.44233l0.24616,-150.52227l16.13011,-2.36757l16.02378,13.91043l20.70124,-11.45643l-0.24616,150.52227z" data-paper-data="{&quot;origPos&quot;:null,&quot;origRot&quot;:0}" fill="#8b7f6e" stroke="none" stroke-width="0"/><path d="M-108.4669,502.44229l0.24616,-150.52227l16.13011,-2.36756l16.02378,13.91043z" data-paper-data="{&quot;origPos&quot;:null,&quot;origRot&quot;:0}" fill="#817666" stroke="none" stroke-width="0"/><path d="M-115.9235,647.07994l0.24616,-150.52227l16.13011,-2.36757l16.02378,13.91043l20.70124,-11.45643l-0.24616,150.52227z" data-paper-data="{&quot;origPos&quot;:null,&quot;origRot&quot;:0}" fill="#696053" stroke="none" stroke-width="0"/><path d="M-115.92351,647.07993l0.24616,-150.52227l16.13011,-2.36756l16.02378,13.91043z" data-paper-data="{&quot;origPos&quot;:null,&quot;origRot&quot;:0}" fill="#696053" stroke="none" stroke-width="0"/><path d="M-116.29403,775.41975l0.24616,-150.52227l16.13011,-2.36757l16.02378,13.91043l20.70124,-11.45643l-0.24616,150.52227z" data-paper-data="{&quot;origPos&quot;:null,&quot;origRot&quot;:0}" fill="#696053" stroke="none" stroke-width="0"/><path d="M-116.29405,775.41974l0.24616,-150.52227l16.13011,-2.36756l16.02378,13.91043z" data-paper-data="{&quot;origPos&quot;:null,&quot;origRot&quot;:0}" fill="#696053" stroke="none" stroke-width="0"/><path d="M-109.12321,764.1323l0.24616,-150.52227l16.13011,-2.36757l16.02378,13.91043l20.70124,-11.45643l-0.24616,150.52227z" data-paper-data="{&quot;origPos&quot;:null,&quot;origRot&quot;:0}" fill="#8b7f6e" stroke="none" stroke-width="0"/><path d="M-108.75267,635.79248l0.24616,-150.52227l16.13011,-2.36757l16.02378,13.91043l20.70124,-11.45643l-0.24616,150.52227z" data-paper-data="{&quot;origPos&quot;:null,&quot;origRot&quot;:0}" fill="#8b7f6e" stroke="none" stroke-width="0"/></g></g></svg>