<svg version="1.1" xmlns="http://www.w3.org/2000/svg" xmlns:xlink="http://www.w3.org/1999/xlink" width="92.86445" height="108.27621" viewBox="0,0,92.86445,108.27621"><g transform="translate(-193.94638,-125.92748)"><g data-paper-data="{&quot;isPaintingLayer&quot;:true}" fill="none" fill-rule="nonzero" stroke="none" stroke-width="none" stroke-linecap="none" stroke-linejoin="none" stroke-miterlimit="10" stroke-dasharray="" stroke-dashoffset="0" font-family="none" font-weight="none" font-size="none" text-anchor="none" style="mix-blend-mode: normal"><path d="M240.2879,222.629c0,-1.3647 0.3828,-3.3251 2.5004,-3.7676c3.0551,-0.6409 6.4597,0.8319 7.5013,3.3629c1.09,2.6497 -0.5267,7.768 -2.9018,8.1461c-2.5754,0.4206 -4.7959,-4.1908 -6.9997,-6.5479c-0.5507,-0.5891 -0.1002,-0.5971 -0.1002,-1.1935v0z" id="R_Leg" fill="#ffc93e" stroke="#603813" stroke-width="1.32684" stroke-linecap="butt" stroke-linejoin="miter"/><path d="M228.3145,233.4885c-1.4781,0.6555 1.5816,-5.0831 1.9902,-7.6625c0.1208,-0.7629 -0.0278,-1.5577 -0.1771,-2.314l0.0027,-0.0411c0,0 -0.0047,-0.1719 -0.0047,-0.2349c0,-3.5725 3.2886,-4.8118 3.8459,-4.9982c1.904,0.0232 5.1952,0.9241 5.9807,2.2828c0.0796,0.1374 0.1539,0.3098 0.1539,0.5308c0,0.1937 0.7019,-0.2813 -0.2222,0.7118c-3.6959,3.9712 -8.4135,10.4157 -11.5694,11.7253z" id="Center_Leg" fill="#ffc93e" stroke="#603813" stroke-width="1.32684" stroke-linecap="butt" stroke-linejoin="miter"/><path d="M274.7081,206.9749l-1.4787,-2.6092c-1.6194,-2.8202 -3.4903,-5.4023 -5.1402,-7.6751c-2.121,-2.9277 -3.9666,-5.9569 -4.5776,-8.0971c-0.2203,-0.7709 -0.1141,-1.5066 0.203,-1.9133c0.0305,-0.1095 0.3503,-0.2839 0.5758,-0.3304c2.7174,-0.5871 13.9657,5.8706 16.772,9.3218c4.1112,5.0559 5.7551,12.1472 4.8383,15.719c-0.3762,1.4596 -1.2174,2.4938 -2.4361,2.9861c-3.1127,1.2578 -5.1607,-1.0124 -8.7565,-7.4018v0z" id="R_Arm" fill="#ffc93e" stroke="#603813" stroke-width="1.32684" stroke-linecap="butt" stroke-linejoin="miter"/><path d="M230.4301,157.1401c3.9932,-2.1701 -0.128,-10.3414 -4.1152,-18.2447c-2.1793,-4.3216 -6.0656,-11.6205 -4.8025,-12.3045c2.4434,-1.3242 14.1163,12.4511 18.8485,18.0032l4.8237,5.4938c0,0 3.4485,4.2313 6.0875,7.021c0.0465,0.0491 2.5416,-0.3383 4.2652,-1.7707c1.4051,-1.1722 1.2193,-2.4838 1.6665,-5.2423c0.4106,-2.5343 0.8565,-7.1205 2.2165,-7.1437c2.0486,-0.0312 3.3954,8.4128 3.9201,11.5408l0.2899,1.6732c0.688,3.7205 4.2771,14.9064 4.431,15.3807c0.0491,0.1155 0.1301,0.2654 0.1301,0.2654l0.0298,0.0604l0.0411,0.0504c5.5423,6.8737 9.6647,15.2082 9.6647,23.0167c0,16.5351 -14.4944,28.1748 -33.8954,28.1748c-3.5984,0 -7.1179,-0.5042 -10.4608,-1.4953l-0.1798,-0.0518c-0.0597,-0.0172 -4.4861,-0.9918 -6.0053,0.3111c-2.7399,2.3499 -3.0935,9.3947 -5.6059,9.2879c-2.3306,-0.057 -2.7406,-6.3244 -4.08,-9.6156l0.1744,-0.479l-0.4007,-0.3171c-0.0982,-0.0783 -10.9862,-8.0121 -12.0862,-19.3812c-0.9586,-9.9101 4.0476,-15.5525 6.1247,-18.6533l1.1935,-1.9877c1.5066,-3.666 -1.3288,-8.7631 -3.8312,-13.2611c-1.4941,-2.6855 -3.9056,-6.6043 -3.3609,-7.5251c0.6044,-1.0204 2.7645,0.065 4.9458,1.1059c1.7687,0.8452 3.4703,2.0393 4.6519,1.2519c1.2286,-0.818 0.4226,-2.8733 -0.694,-5.7167c-1.0501,-2.671 -3.0384,-6.8903 -2.2748,-8.6318c0.2103,-0.479 0.5791,-0.8153 1.1278,-1.0283c2.0287,-0.7855 4.9292,2.6318 7.2771,5.3047c2.8633,3.2634 6.1114,6.9613 9.8829,4.908v0z" id="Body" fill="#ffc93e" stroke="#603813" stroke-width="1.32684" stroke-linecap="round" stroke-linejoin="round"/><g id="L_Eye" stroke="none" stroke-width="0.66342" stroke-linecap="butt" stroke-linejoin="miter"><path d="M233.7784,196.1505v0v0c0,-2.984 2.4188,-5.4042 5.4029,-5.4055c2.9834,0 5.4022,2.4215 5.4022,5.4055c0,2.9821 -2.4181,5.4003 -5.4022,5.4003c-2.9834,0 -5.4029,-2.4182 -5.4029,-5.4003z" id="White_1_" fill="#ffffff"/><path d="M239.9091,192.2019c1.0488,0 1.9995,0.4259 2.6875,1.1145c0.6886,0.688 1.1145,1.6387 1.1145,2.6875c0,1.0489 -0.4259,1.9996 -1.1145,2.6875c-0.688,0.6887 -1.6387,1.1146 -2.6875,1.1146c-1.0489,0 -1.9996,-0.4259 -2.6875,-1.1146c-0.6887,-0.6879 -1.1146,-1.6386 -1.1146,-2.6875c0,-1.0488 0.4259,-1.9995 1.1146,-2.6875c0.6879,-0.6886 1.6386,-1.1145 2.6875,-1.1145z" id="Pupil_1_" fill="#603813"/></g><g id="R_Eye" stroke="none" stroke-width="0.66342" stroke-linecap="butt" stroke-linejoin="miter"><path d="M259.8057,196.1505v0v0c0,-2.984 2.4189,-5.4042 5.4042,-5.4055c2.9834,0 5.4023,2.4215 5.4023,5.4055c0,2.9821 -2.4202,5.4003 -5.4023,5.4003c-2.9853,0 -5.4042,-2.4182 -5.4042,-5.4003z" id="White" fill="#ffffff"/><path d="M262.1337,196.0039v0v0c0,-2.099 1.701,-3.802 3.8014,-3.802c2.099,0 3.802,1.7036 3.802,3.802c0,2.1011 -1.703,3.8008 -3.802,3.8008c-2.1004,0 -3.8014,-1.7017 -3.8014,-3.8008z" id="Pupil" fill="#603813"/></g><path d="M196.473,217.0078c-1.1073,-0.7072 -1.7455,-1.8748 -1.8483,-3.3808c-0.2501,-3.6826 2.6643,-10.352 7.6286,-14.57c3.3901,-2.8806 15.6302,-7.1716 18.1937,-6.0988c0.2116,0.0889 0.4956,0.3171 0.5042,0.4325c0.2395,0.4558 0.2076,1.1975 -0.15,1.9153c-0.9911,1.9929 -3.3595,4.6353 -5.9814,7.1225c-2.038,1.9398 -4.3474,4.1304 -6.4537,6.6096l-1.9319,2.2888c-4.7017,5.6272 -7.1331,7.4887 -9.9612,5.6809v0z" id="L_Arm" fill="#ffc93e" stroke="#603813" stroke-width="1.32684" stroke-linecap="butt" stroke-linejoin="miter"/><path d="M249.9553,209.3951v0v0l9.1897,-0.4425l-0.0956,0.7881c-0.0371,0.3005 -0.8618,5.253 -4.906,5.253c-0.881,0 -1.6472,-0.3185 -2.2768,-0.9554c-1.8516,-1.8675 -1.9193,-3.8385 -1.9153,-4.0097z" id="Mouth" fill="#603813" stroke="none" stroke-width="0.66342" stroke-linecap="butt" stroke-linejoin="miter"/></g></g></svg>