<svg version="1.1" xmlns="http://www.w3.org/2000/svg" xmlns:xlink="http://www.w3.org/1999/xlink" width="338.17881" height="211.982"><g transform="translate(-94.05994,-122.08005)"><g data-paper-data="{&quot;isPaintingLayer&quot;:true}" fill="none" fill-rule="nonzero" stroke="none" stroke-width="none" stroke-linecap="none" stroke-linejoin="miter" stroke-miterlimit="10" stroke-dasharray="" stroke-dashoffset="0" font-family="none" font-weight="none" font-size="none" text-anchor="none" style="mix-blend-mode: normal"><g data-paper-data="{&quot;origPos&quot;:null,&quot;index&quot;:null}"><path d="M240.79458,251.30289h12.92727" data-paper-data="{&quot;origPos&quot;:null,&quot;index&quot;:null}" fill="none" stroke="#88ac7a" stroke-width="15" stroke-linecap="round"/><g data-paper-data="{&quot;origPos&quot;:null}"><path d="M220.67273,232.87294h11.41784" data-paper-data="{&quot;origPos&quot;:null,&quot;index&quot;:null}" fill="none" stroke="#88ac7a" stroke-width="17" stroke-linecap="round"/><path d="M218.55994,199.58005l0.47575,32.92702" data-paper-data="{&quot;origPos&quot;:null,&quot;index&quot;:null}" fill="none" stroke="#94bc85" stroke-width="17" stroke-linecap="round"/><path d="M238.05671,280.80005l-1.56143,-75.67989" data-paper-data="{&quot;origPos&quot;:null,&quot;index&quot;:null}" fill="none" stroke="#9dc78d" stroke-width="15" stroke-linecap="round"/><path d="M237.09941,289.7949c0,0 -2.29179,-33.35131 1.80921,-61.80229c1.30059,-9.02296 -2.36525,-30.39771 -2.36525,-30.39771c0,0 2.90183,0.70027 4.40322,1.85284c1.80328,1.38433 2.08386,5.34716 2.08386,5.34716l2.78018,93.8z" data-paper-data="{&quot;origPos&quot;:null}" fill="#97be87" stroke="none" stroke-width="0" stroke-linecap="butt"/><path d="M256.50203,248.60474l-0.76805,-32.92702" data-paper-data="{&quot;origPos&quot;:null,&quot;index&quot;:null}" fill="none" stroke="#94bc85" stroke-width="17" stroke-linecap="round"/></g></g><g data-paper-data="{&quot;origPos&quot;:null,&quot;index&quot;:null}" fill="#696053" stroke="none" stroke-width="0" stroke-linecap="butt"><path d="M312.75643,329.40789l13.25423,-110.72814l12.07365,-0.34105l10.58166,11.62655l16.22633,-6.63134l-13.25423,110.72814z" data-paper-data="{&quot;origPos&quot;:null,&quot;origRot&quot;:0}"/><path d="M312.75644,329.40789l13.25423,-110.72814l12.07365,-0.34105l10.58166,11.62655z" data-paper-data="{&quot;origPos&quot;:null,&quot;origRot&quot;:0}"/></g><g data-paper-data="{&quot;origPos&quot;:null,&quot;index&quot;:null}" stroke="none" stroke-width="0" stroke-linecap="butt"><path d="M317.86415,325.15145l13.25423,-110.72814l12.07365,-0.34105l10.58166,11.62655l16.22633,-6.63134l-13.25423,110.72814z" data-paper-data="{&quot;origPos&quot;:null,&quot;origRot&quot;:0}" fill="#8b7f6e"/><path d="M317.86416,325.15146l13.25423,-110.72814l12.07365,-0.34105l10.58166,11.62655z" data-paper-data="{&quot;origPos&quot;:null,&quot;origRot&quot;:0}" fill="#817666"/></g><g data-paper-data="{&quot;origPos&quot;:null,&quot;index&quot;:null}" stroke="none" stroke-width="0" stroke-linecap="butt"><path d="M219.08951,304.22911c0,0 8.77228,-31.60396 18.56105,-31.60396c11.4813,0 22.26965,-2.31009 32.93373,1.94407c13.04797,5.20515 18.84903,-1.62767 29.77877,7.19753c4.83485,3.90389 12.53502,22.46235 12.53502,22.46235z" data-paper-data="{&quot;index&quot;:null,&quot;origPos&quot;:null}" fill="#dbcfbd"/><path d="M239.1555,294.19608c0,0 8.77229,-31.60396 18.56106,-31.60396c11.48131,0 22.26966,-2.31009 32.93374,1.94407c13.04797,5.20515 18.84903,-1.62766 29.77877,7.19754c4.83485,3.90389 12.53501,22.46235 12.53501,22.46235z" data-paper-data="{&quot;origPos&quot;:null,&quot;index&quot;:null}" fill="#d1c0a6"/><path d="M230.62745,313.25881c0,0 8.77229,-31.60396 18.56106,-31.60396c11.4813,0 22.26965,-2.31009 32.93373,1.94407c13.04797,5.20515 18.84903,-1.62766 29.77877,7.19754c4.83486,3.90389 12.53502,22.46235 12.53502,22.46235z" data-paper-data="{&quot;origPos&quot;:null,&quot;index&quot;:null}" fill="#dbcfbd"/><path d="M250.69346,303.22578c0,0 8.77229,-31.60397 18.56106,-31.60397c11.48131,0 22.26965,-2.31009 32.93373,1.94407c13.04798,5.20515 18.84904,-1.62766 29.77878,7.19754c4.83486,3.90388 12.53502,22.46235 12.53502,22.46235z" data-paper-data="{&quot;origPos&quot;:null,&quot;index&quot;:null}" fill="#d1c0a6"/><path d="M230.1258,307.23901c0,0 7.70016,-18.55847 12.53502,-22.46236c10.92973,-8.8252 16.73079,-1.99238 29.77877,-7.19753c10.66407,-4.25416 21.45242,-1.94408 32.93373,-1.94408c9.78877,0 18.56106,31.60396 18.56106,31.60396z" data-paper-data="{&quot;origPos&quot;:null}" fill="#dbcfbd"/><path d="M204.03999,302.22247c0,0 7.70015,-18.55846 12.53501,-22.46235c10.92973,-8.8252 16.73079,-1.99239 29.77877,-7.19754c10.66408,-4.25416 21.45243,-1.94407 32.93374,-1.94407c9.78877,0 18.56106,31.60396 18.56106,31.60396z" data-paper-data="{&quot;origPos&quot;:null}" fill="#d1c0a6"/><path d="M208.05319,325.80001c0,0 7.70016,-18.55846 12.53502,-22.46235c10.92973,-8.82519 16.73079,-1.99238 29.77877,-7.19753c10.66408,-4.25416 21.45242,-1.94407 32.93373,-1.94407c9.78877,0 18.56106,31.60396 18.56106,31.60396z" data-paper-data="{&quot;origPos&quot;:null}" fill="#dbcfbd"/><path d="M192.50203,311.25221c0,0 7.70016,-18.55846 12.53502,-22.46235c10.92974,-8.8252 16.7308,-1.99239 29.77878,-7.19754c10.66408,-4.25416 21.45242,-1.94407 32.93373,-1.94407c9.78877,0 18.56106,31.60396 18.56106,31.60396z" data-paper-data="{&quot;origPos&quot;:null}" fill="#d1c0a6"/></g><g data-paper-data="{&quot;origPos&quot;:null,&quot;index&quot;:null}"><path d="M118.26739,182.30289h-12.92727" data-paper-data="{&quot;origPos&quot;:null,&quot;index&quot;:null}" fill="none" stroke="#88ac7a" stroke-width="15" stroke-linecap="round"/><g data-paper-data="{&quot;origPos&quot;:null}"><path d="M138.38924,163.87294h-11.41784" data-paper-data="{&quot;origPos&quot;:null,&quot;index&quot;:null}" fill="none" stroke="#88ac7a" stroke-width="17" stroke-linecap="round"/><path d="M140.50203,130.58005l-0.47575,32.92702" data-paper-data="{&quot;origPos&quot;:null,&quot;index&quot;:null}" fill="none" stroke="#94bc85" stroke-width="17" stroke-linecap="round"/><path d="M121.00526,211.80005l1.56143,-75.67989" data-paper-data="{&quot;origPos&quot;:null,&quot;index&quot;:null}" fill="none" stroke="#9dc78d" stroke-width="15" stroke-linecap="round"/><path d="M113.25134,229.5949l2.78018,-93.8c0,0 0.28058,-3.96283 2.08386,-5.34716c1.50139,-1.15257 4.40322,-1.85284 4.40322,-1.85284c0,0 -3.66584,21.37475 -2.36525,30.39771c4.101,28.45098 1.80921,61.80229 1.80921,61.80229z" data-paper-data="{&quot;origPos&quot;:null}" fill="#97be87" stroke="none" stroke-width="0" stroke-linecap="butt"/><path d="M102.55994,179.60474l0.76805,-32.92702" data-paper-data="{&quot;origPos&quot;:null,&quot;index&quot;:null}" fill="none" stroke="#94bc85" stroke-width="17" stroke-linecap="round"/></g></g><g data-paper-data="{&quot;origPos&quot;:null,&quot;index&quot;:null}" stroke-width="12.5"><path d="M408.15701,278.66764h-10.36742" data-paper-data="{&quot;origPos&quot;:null,&quot;index&quot;:null}" fill="none" stroke="#88ac7a" stroke-linecap="round"/><g data-paper-data="{&quot;origPos&quot;:null}"><path d="M424.29433,263.88719h-9.15688" data-paper-data="{&quot;origPos&quot;:null,&quot;index&quot;:null}" fill="none" stroke="#88ac7a" stroke-linecap="round"/><path d="M425.98875,237.18695l-0.38154,26.40682" data-paper-data="{&quot;origPos&quot;:null,&quot;index&quot;:null}" fill="none" stroke="#94bc85" stroke-linecap="round"/><path d="M410.35272,302.32378l1.25224,-60.69377" data-paper-data="{&quot;origPos&quot;:null,&quot;index&quot;:null}" fill="none" stroke="#9dc78d" stroke-linecap="round"/><path d="M404.13423,316.5949l2.22965,-75.22575c0,0 0.22502,-3.17811 1.67122,-4.28831c1.20409,-0.92434 3.5313,-1.48594 3.5313,-1.48594c0,0 -2.93993,17.14212 -1.89688,24.37836c3.28892,22.81712 1.45095,49.56421 1.45095,49.56421z" data-paper-data="{&quot;origPos&quot;:null}" fill="#97be87" stroke="none" stroke-linecap="butt"/><path d="M395.55994,276.50378l0.61596,-26.40682" data-paper-data="{&quot;origPos&quot;:null,&quot;index&quot;:null}" fill="none" stroke="#94bc85" stroke-linecap="round"/></g></g></g></g></svg>