<svg version="1.1" xmlns="http://www.w3.org/2000/svg" xmlns:xlink="http://www.w3.org/1999/xlink" width="59.37501" height="23.55977" viewBox="0,0,59.37501,23.55977"><g transform="translate(-210.3125,-168.22012)"><g data-paper-data="{&quot;isPaintingLayer&quot;:true}" fill="none" fill-rule="nonzero" stroke="none" stroke-width="none" stroke-linecap="butt" stroke-linejoin="miter" stroke-miterlimit="10" stroke-dasharray="" stroke-dashoffset="0" font-family="none" font-weight="none" font-size="none" text-anchor="none" style="mix-blend-mode: normal"><path d="M245.5863,182.61045c0,0 -11.95789,0.00506 -17.38877,0.00506c-1.4226,0 -2.57576,-1.15341 -2.57576,-2.57576c0,-1.4226 1.15315,-2.57555 2.57576,-2.57555c4.55319,0 17.37479,-0.00532 17.37479,-0.00532c0,0 -0.8608,-0.87113 -4.83187,-4.84194c-1.00596,-1.006 -1.00596,-2.63668 0,-3.64242c1.00647,-1.00574 2.63694,-1.006 3.64268,0c3.21999,3.21952 9.24079,9.241 9.24079,9.241c1.00574,1.006 1.00574,2.63689 0,3.64242c0,0 -5.19579,5.196 -9.16681,9.16709c-1.00647,1.00647 -2.63715,1.00647 -3.64268,0c-1.006,-1.0058 -1.006,-2.63694 0,-3.64195c3.22003,-3.22098 4.77189,-4.77262 4.77189,-4.77262z" data-paper-data="{&quot;origPos&quot;:null}" id="ID0.6278323931619525" fill="#ffffff" stroke-width="0"/><path d="M210.3125,178.47501c0,-1.38071 1.11929,-2.5 2.5,-2.5c1.38071,0 2.5,1.11929 2.5,2.5c0,1.38071 -1.11929,2.5 -2.5,2.5c-1.38071,0 -2.5,-1.11929 -2.5,-2.5z" data-paper-data="{&quot;origPos&quot;:null}" fill="none" stroke-width="0.5"/><path d="M264.68751,179.60002c0,-1.38071 1.11929,-2.5 2.5,-2.5c1.38071,0 2.5,1.11929 2.5,2.5c0,1.38071 -1.11929,2.5 -2.5,2.5c-1.38071,0 -2.5,-1.11929 -2.5,-2.5z" data-paper-data="{&quot;origPos&quot;:null}" fill="none" stroke-width="0.5"/></g></g></svg>