<svg version="1.1" xmlns="http://www.w3.org/2000/svg" xmlns:xlink="http://www.w3.org/1999/xlink" width="152.00002" height="134.71998"><g transform="translate(-184,-120.08004)"><g data-paper-data="{&quot;isPaintingLayer&quot;:true}" fill="none" fill-rule="nonzero" stroke="none" stroke-width="none" stroke-linecap="none" stroke-linejoin="miter" stroke-miterlimit="10" stroke-dasharray="" stroke-dashoffset="0" font-family="none" font-weight="none" font-size="none" text-anchor="none" style="mix-blend-mode: normal"><g data-paper-data="{&quot;origPos&quot;:null,&quot;index&quot;:null}"><path d="M298.70747,180.30288h-12.92727" data-paper-data="{&quot;origPos&quot;:null,&quot;index&quot;:null}" fill="none" stroke="#88ac7a" stroke-width="15" stroke-linecap="round"/><g data-paper-data="{&quot;origPos&quot;:null}"><path d="M318.82932,161.87293h-11.41784" data-paper-data="{&quot;origPos&quot;:null,&quot;index&quot;:null}" fill="none" stroke="#88ac7a" stroke-width="17" stroke-linecap="round"/><path d="M320.94211,128.58004l-0.47575,32.92702" data-paper-data="{&quot;origPos&quot;:null,&quot;index&quot;:null}" fill="none" stroke="#94bc85" stroke-width="17" stroke-linecap="round"/><path d="M303.00677,134.12015l-1.56143,75.67989" data-paper-data="{&quot;origPos&quot;:null,&quot;index&quot;:null}" fill="none" stroke="#9dc78d" stroke-width="15" stroke-linecap="round"/><path d="M293.69142,227.59487l2.78018,-93.8c0,0 0.28058,-3.96283 2.08386,-5.34716c1.50139,-1.15257 4.40322,-1.85284 4.40322,-1.85284c0,0 -3.66584,21.37475 -2.36525,30.39771c4.101,28.45098 1.80921,61.80229 1.80921,61.80229z" data-paper-data="{&quot;origPos&quot;:null}" fill="#97be87" stroke="none" stroke-width="0" stroke-linecap="butt"/><path d="M283.00002,177.60473l0.76805,-32.92702" data-paper-data="{&quot;origPos&quot;:null,&quot;index&quot;:null}" fill="none" stroke="#94bc85" stroke-width="17" stroke-linecap="round"/></g></g><g data-paper-data="{&quot;origPos&quot;:null}" stroke="none" stroke-width="0" stroke-linecap="butt"><path d="M215.60397,233.22908c0,0 7.70017,-18.55846 12.53502,-22.46235c10.92974,-8.8252 16.7308,-1.99238 29.77877,-7.19753c10.66408,-4.25416 21.45243,-1.94407 32.93373,-1.94407c9.78877,0 18.56105,31.60396 18.56105,31.60396z" data-paper-data="{&quot;index&quot;:null,&quot;origPos&quot;:null}" fill="#dbcfbd"/><path d="M195.53797,223.19607c0,0 7.70016,-18.55846 12.53501,-22.46235c10.92974,-8.8252 16.7308,-1.99239 29.77877,-7.19754c10.66408,-4.25416 21.45243,-1.94407 32.93374,-1.94407c9.78877,0 18.56106,31.60396 18.56106,31.60396z" data-paper-data="{&quot;origPos&quot;:null,&quot;index&quot;:null}" fill="#d1c0a6"/><path d="M204.06602,242.25878c0,0 7.70016,-18.55846 12.53502,-22.46235c10.92974,-8.8252 16.7308,-1.99239 29.77877,-7.19754c10.66408,-4.25416 21.45243,-1.94407 32.93373,-1.94407c9.78877,0 18.56106,31.60396 18.56106,31.60396z" data-paper-data="{&quot;origPos&quot;:null,&quot;index&quot;:null}" fill="#dbcfbd"/><path d="M184,232.22578c0,0 7.70016,-18.55847 12.53502,-22.46235c10.92974,-8.8252 16.7308,-1.99239 29.77878,-7.19754c10.66408,-4.25416 21.45242,-1.94407 32.93373,-1.94407c9.78877,0 18.56106,31.60397 18.56106,31.60397z" data-paper-data="{&quot;origPos&quot;:null,&quot;index&quot;:null}" fill="#d1c0a6"/><path d="M204.56767,236.23896c0,0 8.77229,-31.60396 18.56106,-31.60396c11.48131,0 22.26966,-2.31008 32.93373,1.94408c13.04798,5.20515 18.84904,-1.62767 29.77877,7.19753c4.83486,3.90389 12.53502,22.46236 12.53502,22.46236z" data-paper-data="{&quot;origPos&quot;:null}" fill="#dbcfbd"/><path d="M230.65348,231.22247c0,0 8.77229,-31.60396 18.56106,-31.60396c11.48131,0 22.26966,-2.31009 32.93374,1.94407c13.04798,5.20515 18.84904,-1.62766 29.77877,7.19754c4.83486,3.90389 12.53501,22.46235 12.53501,22.46235z" data-paper-data="{&quot;origPos&quot;:null}" fill="#d1c0a6"/><path d="M226.64028,254.80002c0,0 8.77229,-31.60396 18.56106,-31.60396c11.48131,0 22.26965,-2.31009 32.93373,1.94407c13.04798,5.20515 18.84904,-1.62766 29.77877,7.19753c4.83486,3.90389 12.53502,22.46235 12.53502,22.46235z" data-paper-data="{&quot;origPos&quot;:null}" fill="#dbcfbd"/><path d="M242.19143,240.25218c0,0 8.77229,-31.60396 18.56106,-31.60396c11.48131,0 22.26965,-2.31009 32.93373,1.94407c13.04798,5.20515 18.84904,-1.62766 29.77878,7.19754c4.83486,3.90389 12.53502,22.46235 12.53502,22.46235z" data-paper-data="{&quot;origPos&quot;:null}" fill="#d1c0a6"/></g></g></g></svg>