<svg version="1.1" xmlns="http://www.w3.org/2000/svg" xmlns:xlink="http://www.w3.org/1999/xlink" width="54.57814" height="53.66037" viewBox="0,0,54.57814,53.66037"><g transform="translate(-219.33812,-149.65228)"><g data-paper-data="{&quot;isPaintingLayer&quot;:true}" fill="none" fill-rule="nonzero" stroke="none" stroke-width="0.90231" stroke-linecap="none" stroke-linejoin="none" stroke-miterlimit="10" stroke-dasharray="" stroke-dashoffset="0" font-family="none" font-weight="none" font-size="none" text-anchor="none" style="mix-blend-mode: normal"><path d="M243.61484,191.57553v0v0v0v0v0v0c0.97441,1.81019 -1.01088,4.5153 -1.1756,4.75313c-0.2843,0.27739 0,0 -0.00478,0.00678c0,0 -1.42669,1.54042 -2.37034,1.018c-0.40188,-0.22179 -0.58341,-0.61509 -0.59262,-1.13033c-0.17632,-0.05636 -0.42024,-0.17585 -0.52941,-0.43405c-0.18191,-0.42929 0.73414,-0.76098 0.73414,-0.76098v0.00638c0.04201,-0.13269 0.0872,-0.26897 0.14196,-0.4105c0.30952,-0.80095 1.07243,-2.36698 1.07243,-2.36698c0,0 1.73739,-2.51488 2.72426,-0.68146z" data-paper-data="{&quot;origPos&quot;:null}" id="L_Arm" fill="#9a8479" stroke="#000000" stroke-linecap="round" stroke-linejoin="round"/><path d="M254.61447,194.24986v0v0v0v0v0v0c0,0 0.91611,0.33256 0.73296,0.76145c-0.10837,0.2602 -0.35307,0.3793 -0.52859,0.43645c-0.00921,0.5128 -0.19034,0.90769 -0.59259,1.12953c-0.61417,0.33933 -1.38511,-0.16185 -1.85056,-0.55436c-0.21909,-0.14749 -0.46503,-0.3078 -0.68292,-0.43326c-0.54984,-0.31697 -1.85779,-2.46534 -1.60785,-3.67281c0.24993,-1.20745 2.89417,0 2.89417,0c0.61535,0.59158 1.28074,1.37453 1.49385,1.92732c0.05399,0.14187 0.10001,0.2794 0.14156,0.41369z" data-paper-data="{&quot;origPos&quot;:null}" id="R_Arm" fill="#9a8479" stroke="#000000" stroke-linecap="round" stroke-linejoin="round"/><path d="M244.67284,196.1596v0v0v0v0v0v0c1.72818,0.65829 2.41031,1.01681 2.16681,2.39374c-0.18273,1.03241 0.69858,3.29948 0.69858,3.29948c0,0 0.42786,0.12267 0.28108,0.46764c-0.14674,0.34891 -1.20795,0.58076 -2.58345,0.50761c-1.3751,-0.07275 -2.45555,-0.05677 -2.61146,-0.38692c-0.15635,-0.32853 0.13034,-0.4816 0.13034,-0.4816c0,0 0.05317,-0.77904 0.05476,-1.61636c0,-0.83739 -0.13315,-3.12841 -0.13315,-3.12841c0,0 0.26832,-1.71348 1.9965,-1.05517z" data-paper-data="{&quot;origPos&quot;:null}" id="L_Leg_1_" fill="#9a8479" stroke="#000000" stroke-linecap="butt" stroke-linejoin="miter"/><path d="M249.13526,196.46536v0v0v0v0v0v0c1.29952,-0.59312 2.08963,-0.69149 2.42272,0.0008c0,0 0.65138,1.21667 0.97924,2.48407c0.3271,1.26666 0.5614,2.72352 0.5614,2.72352c0,0 0.43428,0.23105 0.43104,0.45886c-0.00238,0.22781 -0.37625,0.67348 -2.34752,0.72905c-1.97054,0.05311 -2.67264,-0.27022 -2.73344,-0.56839c-0.06239,-0.29776 0.16871,-0.32415 0.16871,-0.32415c0,0 0.02721,-0.32334 0,-1.10556c-0.02676,-0.78216 -0.35148,-2.22267 -0.35148,-2.22267c0,0 -0.43025,-1.58237 0.86932,-2.17553z" data-paper-data="{&quot;origPos&quot;:null}" id="R_Leg_2_" fill="#9a8479" stroke="#000000" stroke-linecap="butt" stroke-linejoin="miter"/><path d="M246.16709,189.97199v0v0v0v0v0v0c3.59154,-0.27779 4.96341,1.80501 4.96261,1.8046c0.29232,0.53796 0.65537,1.29701 0.80614,1.99007c0.04156,0.19144 0.06716,0.40685 0.07355,0.63792c0,0 -0.02116,0.80255 -0.09915,1.04756c-0.32706,1.02642 -0.85971,2.14998 -2.13363,2.65798c-2.00008,0.80095 -4.12892,0.70265 -6.34095,-0.34974c-0.74651,-0.35414 -1.18876,-0.95766 -1.42748,-1.64471c-0.17036,-0.49445 -0.24311,-1.13914 -0.24311,-1.13914c-0.10479,-1.07237 0.08276,-2.11919 0.18273,-2.57442c0,0 0.62821,-2.15237 4.2193,-2.43012z" data-paper-data="{&quot;origPos&quot;:null}" id="Belly" fill="#9a8479" stroke="#000000" stroke-linecap="butt" stroke-linejoin="miter"/><g data-paper-data="{&quot;origPos&quot;:null}" id="Head_1_" stroke-linejoin="miter"><path d="M227.58294,183.85867v0v0v0v0v0v0c-0.02117,-0.03677 -0.63976,-1.06993 -0.63976,-1.07038c-1.71576,-2.75424 -2.09604,-8.98343 -1.94692,-10.92755l0.0132,-0.09313c0.48746,-8.24042 4.31966,-12.63863 6.58286,-14.96645c5.13694,-5.2871 12.92339,-5.50217 12.92339,-5.50217l0.27589,5.34909c0,0 -0.01479,-1.53841 3.11769,-4.22794c3.1317,-2.68951 7.76282,-2.29662 7.76282,-2.29662l-2.45749,6.70322c0,0 1.44866,-2.08798 2.63587,-2.85102c2.10483,-1.35053 3.88459,-0.77016 3.88459,-0.77016l-0.49059,4.15757c0,0 3.1325,4.06088 5.52999,7.87672c0.51305,0.81415 1.10764,1.63833 1.48469,2.58638c1.37113,3.44458 1.56903,9.58381 0.03199,12.62466c-0.26548,0.53802 -0.55457,1.06041 -0.85449,1.574c-0.07797,0.1319 -0.15636,0.263 -0.23592,0.3925c-0.27469,0.45165 -0.56139,0.89448 -0.8629,1.32376c-0.04076,0.05717 -0.07798,0.1179 -0.11874,0.1751c-0.34191,0.47761 -0.70255,0.93763 -1.07765,1.3849c-0.08954,0.10793 -0.18392,0.21221 -0.2755,0.31935c-0.32148,0.36934 -0.65456,0.72825 -0.99643,1.07356c-0.07878,0.08077 -0.15555,0.1627 -0.23512,0.24062c-0.41148,0.40212 -0.84007,0.78541 -1.28154,1.15149c-0.09835,0.08038 -0.19911,0.15711 -0.2983,0.23583c-0.37067,0.29578 -0.75373,0.57837 -1.14557,0.84776c-0.11316,0.07674 -0.22353,0.15746 -0.33746,0.23259c-0.47863,0.31457 -0.96887,0.60994 -1.47511,0.88291c-0.09033,0.04919 -0.18631,0.09233 -0.27787,0.13992c-0.43265,0.22502 -0.87529,0.43207 -1.32752,0.62391c-1.91294,0.81097 -3.99016,1.33898 -6.22059,1.49966c-2.54907,0.18347 -4.85668,0.10628 -6.94113,-0.16548c-0.5154,-0.06716 -1.01681,-0.14749 -1.50507,-0.23744c-0.09277,-0.01879 -0.18514,-0.03677 -0.27708,-0.05477c-0.49502,-0.09752 -0.98089,-0.2022 -1.4471,-0.32174c-0.00279,-0.0008 -0.00638,-0.00159 -0.00958,-0.00238c-0.46705,-0.11831 -0.91611,-0.251 -1.35472,-0.39169c-0.07678,-0.02436 -0.15555,-0.04874 -0.23195,-0.07355c-0.42142,-0.13789 -0.83211,-0.28537 -1.22793,-0.44164c-0.06961,-0.02637 -0.13676,-0.05636 -0.20593,-0.08352c-0.39068,-0.1575 -0.7717,-0.3214 -1.13719,-0.49485c-0.014,-0.00797 -0.02959,-0.0132 -0.0432,-0.02038c-0.37426,-0.17903 -0.73175,-0.36608 -1.07919,-0.55757c-0.06482,-0.03592 -0.1292,-0.07111 -0.19233,-0.10709c-0.33428,-0.18985 -0.65821,-0.38372 -0.96689,-0.58355c-0.04719,-0.02999 -0.09198,-0.06118 -0.13877,-0.09153c-0.29308,-0.19345 -0.57658,-0.3909 -0.84769,-0.59237c-0.02796,-0.01918 -0.05875,-0.03956 -0.08558,-0.06074c-0.28271,-0.21221 -0.54979,-0.42929 -0.80729,-0.64787c-0.05003,-0.04201 -0.09922,-0.08437 -0.14718,-0.12631c-0.25108,-0.21865 -0.49259,-0.43765 -0.71975,-0.66187c-0.02598,-0.02441 -0.04959,-0.05039 -0.07514,-0.07514c-0.21395,-0.21307 -0.41704,-0.42768 -0.60897,-0.64234c-0.0268,-0.03114 -0.05719,-0.06154 -0.0844,-0.0919c-0.19672,-0.22582 -0.62178,-0.76145 -0.65456,-0.80419c-0.1711,-0.22622 -0.33429,-0.45204 -0.48184,-0.67668c-0.00918,-0.014 -0.01799,-0.028 -0.02636,-0.04195c-0.14155,-0.21626 -0.2703,-0.42929 -0.39068,-0.64154z" id="Head" fill="#9a8479" stroke="#000000" stroke-linecap="butt"/><path d="M257.82294,171.83677v0v0v0v0v0v0c0,0 4.65832,5.26633 3.21884,10.72933c-1.43869,5.46137 -10.0364,7.77518 -16.64242,7.3599c-8.73288,-0.54957 -12.78147,-5.75037 -11.34439,-10.71374c1.43908,-4.96336 13.00057,-7.28357 13.00057,-7.28357l-1.89855,3.56601c0,0 1.49548,-0.23101 2.70344,-0.92169c1.20758,-0.68944 2.53191,-1.60913 2.53191,-1.60913l-2.76621,3.91894c0,0 3.65348,-0.03917 6.81716,-1.30537c3.16369,-1.26461 4.37964,-3.74071 4.37964,-3.74071z" id="Face" fill="#e6e7e8" stroke="#000000" stroke-linecap="butt"/><g id="R_Ear_1_" stroke="#000000"><path d="M263.78363,168.98934c0,0 7.49809,-4.21155 9.21187,-0.6303c1.71383,3.58122 -1.35189,7.77802 -7.74962,11.57509c0,0 0.14115,-6.2348 -1.46225,-10.94478v0v0v0v0v0v0zM263.78363,168.98934c-0.13398,-0.55115 -0.57664,-1.60514 -0.57664,-1.60514M265.07956,180.90496l0.08038,-1.0084" id="Outer_Ear_1_" fill="#9a8479" stroke-linecap="round"/><path d="M265.15994,179.89616c0.04156,-1.15473 0.03996,-3.05607 -0.22033,-5.43021c-0.14998,-1.38176 -0.43988,-2.80706 -0.73734,-4.03809l0.0008,0.0016c4.39201,-1.11796 8.30104,2.94131 8.30104,2.94131h0.00159c-2.19522,3.644 -7.31058,6.42464 -7.31058,6.42464l-0.03519,0.10073v0v0v0v0v0v0z" id="Inner_Ear" fill="#edaa37" stroke-linecap="butt"/></g><g id="L_Ear" stroke="#000000"><path d="M228.59255,182.68082c-6.22776,-2.47809 -9.58817,-5.82909 -8.64686,-9.34921c0.94168,-3.52048 8.20307,-0.83294 8.20307,-0.83294c-0.66577,4.53011 0.4438,10.18215 0.4438,10.18215v0v0v0v0v0zM228.40263,170.95026c0,0 -0.22312,1.02599 -0.25347,1.54838M228.66217,182.63283l0.2303,0.90568" id="Outer_Ear_2_" fill="#9a8479" stroke-linecap="round"/><path d="M228.61537,182.54691c0,0 -4.93944,-1.74945 -7.44655,-4.72956l0.0012,-0.0004c0,0 2.79701,-4.29029 6.83718,-3.94377l0.0004,-0.0012c-0.06716,1.1651 -0.09677,2.50644 -0.01001,3.7863c0.14633,2.2003 0.44545,3.93056 0.66459,4.97454l-0.04678,-0.0859v0v0v0v0v0v0z" id="Inner_Ear_1_" fill="#edaa37" stroke-linecap="butt"/></g><path d="M252.73477,180.43094c-0.2899,0 -0.54343,-0.20984 -0.59139,-0.50522c-0.05241,-0.32694 0.1703,-0.63471 0.49741,-0.68703c0.29746,-0.04678 2.93415,-0.45808 3.9058,-0.33734c0.32871,0.04156 0.56219,0.34133 0.52263,0.66826c-0.04161,0.32937 -0.3459,0.55798 -0.66937,0.5224c-0.61137,-0.07435 -2.51151,0.1623 -3.56991,0.33017c-0.03199,0.00637 -0.064,0.00877 -0.09516,0.00877v0v0v0v0v0v0v0z" id="R_Eye" fill="#231f20" stroke="none" stroke-linecap="butt"/><path d="M243.01542,180.55885c-0.03755,0 -0.07558,-0.004 -0.11476,-0.01082c-1.38472,-0.26778 -3.81985,0.00482 -3.84382,0.00723c-0.32351,0.03598 -0.62543,-0.19748 -0.66378,-0.52679c-0.03755,-0.32856 0.19831,-0.62594 0.52782,-0.66352c0.10798,-0.01076 2.64105,-0.29494 4.2077,0.00722c0.32468,0.06234 0.53822,0.37692 0.47503,0.70345c-0.0556,0.28419 -0.30709,0.48325 -0.5882,0.48325v0v0v0v0v0v0z" id="L_Eye" fill="#231f20" stroke="none" stroke-linecap="butt"/><path d="M253.13741,183.23517c0,0 -1.61822,2.18192 -5.24173,2.18192c-3.62267,0 -4.59276,-1.43408 -4.59276,-1.43408" id="Mouth" fill="none" stroke="#231f20" stroke-linecap="round"/></g></g></g></svg>