<svg version="1.1" xmlns="http://www.w3.org/2000/svg" xmlns:xlink="http://www.w3.org/1999/xlink" width="960" height="720"><defs><clipPath id="clip-1"><path d="M-1,-6h960v720h-960z" data-paper-data="{&quot;origPos&quot;:null}" id="p.0" fill="none" fill-rule="nonzero" stroke-width="1" stroke-linecap="square"/></clipPath></defs><g transform="translate(1,6)"><g clip-path="url(#clip-1)" data-paper-data="{&quot;isPaintingLayer&quot;:true}" fill="none" fill-rule="none" stroke="none" stroke-width="none" stroke-linecap="none" stroke-linejoin="miter" stroke-miterlimit="10" stroke-dasharray="" stroke-dashoffset="0" font-family="none" font-weight="none" font-size="none" text-anchor="none" style="mix-blend-mode: normal"><path d="M-1,-6h960v720h-960z" data-paper-data="{&quot;origPos&quot;:null}" fill-opacity="0" fill="#000000" fill-rule="evenodd" stroke-width="1" stroke-linecap="square"/><path d="M19.20997,16.25197h924.8504v691.9685h-924.8504z" data-paper-data="{&quot;origPos&quot;:null}" fill-opacity="0" fill="#000000" fill-rule="evenodd" stroke-width="1" stroke-linecap="square"/><path d="M36.74122,228.4301c-0.40625,-0.22917 -1.03125,-0.34375 -1.875,-0.34375l0.10938,1.04688c0.14583,0.96875 0.15625,2.69271 0.03125,5.17188c-0.08333,-0.07292 -0.16667,-0.16146 -0.25,-0.26562c0.25,-0.20833 0.50521,-0.3125 0.76563,-0.3125c0.0625,-0.01042 0.17188,-0.11458 0.32813,-0.3125c0.55208,-0.45833 0.95833,-0.82292 1.21875,-1.09375l0.98438,-1.15625c0.17708,0.25 0.25521,0.18229 0.23438,-0.20312c-0.01042,-0.39583 0,-0.69271 0.03125,-0.89062c0.11458,-0.34375 0.05729,-0.52083 -0.17187,-0.53125c0.22917,-0.19792 0.16667,-0.40104 -0.1875,-0.60937c0.01042,0.01042 -0.13542,-0.07292 -0.4375,-0.25zM31.3506,224.32073l1.53125,-0.20312l2,-0.14062l1.25,0.17188c0,0.1875 0.08854,0.21875 0.26563,0.09375c0.60417,-0.02083 1.375,0.29167 2.3125,0.9375c0.26042,0.08333 0.49479,0.25521 0.70313,0.51563l1,1.20313c0.0625,0.0625 0.13542,0.18229 0.21875,0.35938c0.08333,0.16667 0.35938,0.61979 0.82813,1.35938c-0.66667,-0.34375 -0.81771,-0.54687 -0.45312,-0.60937c0.29167,0.5 0.31771,0.79688 0.07813,0.89063c0.27083,-0.07292 0.45833,0.13542 0.5625,0.625c0.11458,0.48958 -0.02083,0.80208 -0.40625,0.9375c0.375,-0.11458 0.52604,0.11979 0.45313,0.70313c-0.14583,0.94792 -0.39583,1.65104 -0.75,2.10938l-0.34375,0.625l-0.625,0.92188l-0.375,0.34375c-0.6875,0.76042 -1.54167,1.35938 -2.5625,1.79688c-0.0625,0.02083 -0.125,0.03646 -0.1875,0.04688l-0.64062,0.23438l-0.64062,0.15625c0,0.21875 0.0625,1.25 0.1875,3.09375c0.0625,0.58333 0.11458,0.92188 0.15625,1.01563c0,0.71875 -0.05208,1.22396 -0.15625,1.51563c-0.10417,0.29167 -0.28125,0.51563 -0.53125,0.67188c-0.25,0.15625 -0.59896,0.25 -1.04687,0.28125c-0.17708,0.05208 -0.44792,0.01042 -0.8125,-0.125c-0.36458,-0.13542 -0.69792,-0.36979 -1,-0.70312l-0.23437,-1.34375c0.35417,0.10417 0.34375,0.11458 -0.03125,0.03125c-0.14583,-0.17708 -0.27083,-0.5 -0.375,-0.96875l-0.1875,-2.57812v-0.29687c-0.92708,0.0625 -1.54166,-0.34375 -1.84375,-1.21875c-0.29167,-0.5625 -0.31771,-0.96354 -0.07812,-1.20312l0.125,-0.28125c0.32292,-0.54167 0.89062,-0.8125 1.70312,-0.8125l0.5,0.51563c-0.35417,0.13542 -0.53125,0.03125 -0.53125,-0.3125l-0.10937,-1.10937v-0.48437l-0.03125,-0.39062c0.02083,-0.13542 0.01042,-0.28646 -0.03125,-0.45312v-0.21875l-0.04687,-0.65625v-0.5l-0.03125,-0.26562c0,-1.20833 0.03646,-1.78646 0.10938,-1.73437c-0.32292,0.22917 -0.63021,0.36458 -0.92187,0.40625c-0.29167,0.03125 -0.72917,-0.13021 -1.3125,-0.48437c-0.33333,-0.27083 -0.51562,-0.53125 -0.54687,-0.78125c-0.38542,-0.53125 -0.48958,-1.01562 -0.3125,-1.45312c0.05208,-0.20833 0.21875,-0.46354 0.5,-0.76562c0.02083,-0.13542 0.27083,-0.35417 0.75,-0.65625c0.375,-0.36458 1.01562,-0.63542 1.92187,-0.8125zM42.70987,228.00823l0.1875,-1.57812l0.03125,-0.79687c0,-0.33333 0.07292,-0.60937 0.21875,-0.82812l0.3125,-0.4375c0.57292,-0.44792 0.96875,-0.70833 1.1875,-0.78125c0.22917,-0.08333 0.53125,-0.08333 0.90625,0c0.38542,0.08333 0.63542,0.18229 0.75,0.29688l0.21875,0.1875c0.32292,0.1875 0.48438,0.42188 0.48438,0.70313c0.15625,0.20833 0.15104,0.45313 -0.01562,0.73438c-0.0625,0.07292 -0.20833,1.03125 -0.4375,2.875l-0.21875,3.64063l-0.125,0.70313c0,0.15625 0.00521,0.25521 0.01563,0.29688v0.54688c-0.04167,0.45833 -0.07812,0.71875 -0.10937,0.78125c0,0.0625 -0.15625,0.10938 -0.46875,0.14063c0.3125,-0.09375 0.46875,0.05208 0.46875,0.4375c0,0.38542 -0.10937,0.57813 -0.32812,0.57813c0.13542,0.21875 0.20313,0.44271 0.20313,0.67188c0,0.22917 0.02083,0.48438 0.0625,0.76563c0.04167,0.28125 0.05729,0.5625 0.04688,0.84375l0.10938,1v0.39063c0.03125,0.32292 0.04688,0.58333 0.04688,0.78125l0.14063,1.34375l0.09375,0.70313c0.0625,0.38542 0.02604,0.78125 -0.10937,1.1875c-0.13542,0.41667 -0.38021,0.69271 -0.73437,0.82813c-0.75,0.30208 -1.48437,0.16146 -2.20312,-0.42187h-0.28125c-0.29167,-0.33333 -0.45833,-0.58854 -0.5,-0.76562c-0.21875,-0.10417 -0.31771,-0.27604 -0.29687,-0.51562c0.02083,-0.23958 -0.01042,-0.42708 -0.09375,-0.5625c-0.08333,-0.13542 -0.125,-0.30729 -0.125,-0.51562c0,-0.19792 -0.01562,-0.39583 -0.04687,-0.59375l0.34375,-0.14062c-0.27083,0.05208 -0.40625,-0.04687 -0.40625,-0.29687l-0.04687,-0.48437v-0.25c0,-0.10417 -0.01042,-0.20312 -0.03125,-0.29687c-0.01042,-0.09375 0.11979,-0.17187 0.39063,-0.23437c-0.27083,0.03125 -0.38021,-0.25 -0.32812,-0.84375c0.10417,-1.34375 0.15625,-2.27604 0.15625,-2.79687l0.03125,-0.64062v-0.75c0.01042,-0.4375 0.02083,-1.02083 0.03125,-1.75c0.01042,-0.73958 0.14583,-1.08333 0.40625,-1.03125l-0.34375,-0.125c0,-0.47917 0.06771,-1.08854 0.20313,-1.82812c0.13542,-0.73958 0.20313,-1.13021 0.20313,-1.17187zM53.37297,234.66448c-0.01042,-0.26042 -0.05208,-0.4375 -0.125,-0.53125c-0.07292,-0.10417 -0.17708,-0.16146 -0.3125,-0.17187c0.07292,-0.05208 0.01563,0.14063 -0.17187,0.57813c-0.17708,0.42708 -0.28646,0.91146 -0.32812,1.45313c-0.17708,0.83333 -0.26562,1.65625 -0.26562,2.46875c0.02083,0.76042 0.14583,1.3125 0.375,1.65625c-0.28125,0.19792 -0.46875,0.13021 -0.5625,-0.20312c0.11458,0.20833 0.15625,0.125 0.125,-0.25c0.89583,-1.625 1.31771,-3.29167 1.26563,-5zM55.29484,239.85198l-0.70312,0.98438c0.19792,0.11458 0.01563,0.57292 -0.54687,1.375c-0.23958,0.5 -0.64583,0.77083 -1.21875,0.8125c-0.57292,0.04167 -1.09896,-0.01042 -1.57812,-0.15625c-0.625,-0.20833 -1.10937,-0.47396 -1.45312,-0.79687c-0.34375,-0.32292 -0.67187,-0.83333 -0.98437,-1.53125c-0.30208,-0.69792 -0.45833,-1.27604 -0.46875,-1.73437c-0.09375,-0.58333 -0.14062,-0.97396 -0.14062,-1.17187v-0.625c0,-0.72917 0.03646,-1.17187 0.10938,-1.32812c0.01042,-0.03125 0.04688,-0.18229 0.10938,-0.45312c0.09375,-0.79167 0.32813,-1.55208 0.70313,-2.28125c0.75,-1.48958 1.57813,-2.25521 2.48438,-2.29687h0.25c0,0.1875 0.02083,0.19271 0.0625,0.01563h0.35938c0.70833,0.0625 1.14583,0.13021 1.3125,0.20313c0.1875,0.04167 0.38021,0.0625 0.57813,0.0625l0.65625,0.14063c0.23958,-0.03125 0.58333,0.02604 1.03125,0.17188c0.45833,0.14583 0.71875,0.29167 0.78125,0.4375c0.07292,0.13542 0.14583,0.38542 0.21875,0.75c0.08333,0.36458 0.14063,0.63021 0.17188,0.79688c0.03125,0.15625 0.05729,0.31771 0.07813,0.48438c0.13542,1.27083 0.35417,2.44271 0.65625,3.51563c0.03125,0.07292 0.05208,0.16667 0.0625,0.28125c0.02083,0.11458 0.08333,0.32292 0.1875,0.625c0.11458,0.29167 0.19271,0.54167 0.23438,0.75c0.05208,0.20833 0.15104,0.47917 0.29688,0.8125c0.09375,0.25 0.22917,0.53125 0.40625,0.84375c0.66667,0.92708 0.36979,1.625 -0.89062,2.09375c-0.16667,0.05208 -0.41146,0.07813 -0.73437,0.07813c-0.15625,0 -0.375,-0.08854 -0.65625,-0.26562c-0.23958,0 -0.45833,-0.11458 -0.65625,-0.34375l-0.1875,-0.0625c-0.03125,-0.21875 -0.11979,-0.26042 -0.26562,-0.125c-0.19792,-0.1875 -0.43229,-0.97917 -0.70312,-2.375c0.29167,0.03125 0.4375,0.13542 0.4375,0.3125zM59.65864,235.3051c-0.03125,-0.32292 -0.04167,-0.55208 -0.03125,-0.6875v-0.6875l0.14063,-1.125c0,-0.0625 0.15104,-0.61458 0.45313,-1.65625c0.13542,-0.27083 0.28646,-0.52604 0.45313,-0.76562c0.17708,-0.32292 0.47396,-0.52604 0.89063,-0.60937c0.15625,-0.15625 0.77604,-0.09896 1.85938,0.17188c0.28125,0.28125 0.4375,1.03125 0.46875,2.25l-0.01562,1.15625v1.51563l-0.14062,1.10938l-0.07812,1.71875c0.0625,0.10417 0.07813,0.26563 0.04688,0.48438c-0.03125,0.21875 -0.02083,0.52604 0.03125,0.92188c0.10417,0.71875 0.1875,1.09896 0.25,1.14063c-0.16667,0.19792 -0.25521,0.17188 -0.26562,-0.07812c0,0 0.14583,-0.28125 0.4375,-0.84375l0.59375,-0.71875l-0.34375,-0.125l0.125,-0.26562c0.05208,-0.36458 0.13021,-0.63542 0.23438,-0.8125c-0.02083,-0.16667 0.13021,-0.68229 0.45313,-1.54687l-0.01562,-0.20312l0.07813,-0.4375l-0.07812,-0.82812c-0.10417,-0.58333 -0.15625,-1.01562 -0.15625,-1.29687l-0.10937,-0.98437c0,-0.33333 0.0625,-0.86979 0.1875,-1.60937c0.17708,-0.25 0.34375,-0.41146 0.5,-0.48437c0.16667,-0.07292 0.54167,-0.1875 1.125,-0.34375c0.17708,0.04167 0.36458,0.07813 0.5625,0.10938c0.19792,0.02083 0.39063,0.08854 0.57813,0.20313c0.3125,0.05208 0.54167,0.20313 0.6875,0.45313c0.09375,0.20833 0.16667,0.75521 0.21875,1.64063c0.05208,0.48958 0.07813,0.92188 0.07813,1.29688c0.0625,0.60417 0.09375,1.16146 0.09375,1.67188l0.01563,0.5v0.42188c-0.03125,0.32292 -0.03646,0.67188 -0.01562,1.04688c0.03125,0.375 0.04688,0.57813 0.04688,0.60938c0.05208,0.89583 0.07813,1.50521 0.07813,1.82813c0.03125,1.35417 0.02604,2.10417 -0.01562,2.25c-0.04167,0.13542 -0.01042,0.22917 0.09375,0.28125l-0.04687,0.95313c0,0.67708 -0.04687,1.28646 -0.14062,1.82813c0,0.20833 -0.02083,0.41667 -0.0625,0.625c-0.0625,0.39583 -0.125,0.81771 -0.1875,1.26563l-0.40625,0.65625c-0.29167,-0.08333 -0.375,-0.08854 -0.25,-0.01562c0.125,0.07292 0.07292,0.10417 -0.15625,0.09375c0.07292,0.23958 -0.21354,0.57292 -0.85937,1c-0.125,0.05208 -0.26042,0.13021 -0.40625,0.23438c-0.14583,0.11458 -0.4375,0.21875 -0.875,0.3125c-0.6875,0.08333 -1.39062,-0.00521 -2.10937,-0.26562l-0.67187,-0.23437c-1.10417,-0.55208 -1.71875,-0.92187 -1.84375,-1.10937c-0.11458,-0.1875 -0.15625,-0.33333 -0.125,-0.4375c-0.35417,-0.82292 -0.28125,-1.49479 0.21875,-2.01562c0.51042,-0.51042 1.27083,-0.44271 2.28125,0.20313c-0.15625,0.1875 0.07292,0.33333 0.6875,0.4375c0.36458,0.13542 0.58333,0.21354 0.65625,0.23438l0.0625,-0.01562l0.0625,-0.07812l0.46875,-0.0625c-0.25,-0.10417 -0.32292,-0.23958 -0.21875,-0.40625c0,-0.05208 0.05729,-0.28646 0.17188,-0.70312c0,-0.0625 0.01563,-0.23437 0.04688,-0.51562c0.03125,-0.27083 0.04688,-0.44792 0.04688,-0.53125v-0.82812c0.07292,-0.0625 0.05729,-0.47917 -0.04687,-1.25c0.39583,0.34375 0.42188,0.44792 0.07813,0.3125c0,-0.17708 0.15104,-0.27083 0.45313,-0.28125c0.27083,0.13542 0.30208,0.41667 0.09375,0.84375l-0.46875,0.4375c-0.11458,0.21875 -0.27604,0.35938 -0.48437,0.42188c-0.19792,0.07292 -0.52083,-0.08333 -0.96875,-0.46875c0.35417,0.25 0.30208,0.46354 -0.15625,0.64063c-0.5,0.01042 -0.85417,-0.01042 -1.0625,-0.0625c-0.19792,0 -0.34896,-0.01562 -0.45312,-0.04687c-0.34375,0 -0.63542,-0.11458 -0.875,-0.34375c-0.64583,-0.125 -1.15625,-0.8125 -1.53125,-2.0625c-0.14583,-1.17708 -0.21875,-1.875 -0.21875,-2.09375c0.01042,-0.22917 -0.01562,-0.58333 -0.07812,-1.0625l0.28125,-0.51562c-0.21875,0.02083 -0.34896,-0.22917 -0.39062,-0.75c-0.04167,-0.53125 -0.05208,-0.86979 -0.03125,-1.01562z" data-paper-data="{&quot;origPos&quot;:null}" fill="#000000" fill-rule="nonzero" stroke-width="1" stroke-linecap="square"/><path d="M389.5,341.8c0,-1.38071 1.11929,-2.5 2.5,-2.5c1.38071,0 2.5,1.11929 2.5,2.5c0,1.38071 -1.11929,2.5 -2.5,2.5c-1.38071,0 -2.5,-1.11929 -2.5,-2.5z" data-paper-data="{&quot;origPos&quot;:null}" fill="#9966ff" fill-rule="nonzero" stroke-width="0.5" stroke-linecap="butt"/></g></g></svg>