<svg version="1.1" xmlns="http://www.w3.org/2000/svg" xmlns:xlink="http://www.w3.org/1999/xlink" width="534" height="688.64725"><defs><linearGradient x1="158.33129" y1="207.91044" x2="158.33129" y2="357.98071" gradientUnits="userSpaceOnUse" id="color-1"><stop offset="0" stop-color="#bdbdbd" stop-opacity="0"/><stop offset="1" stop-color="#bdbdbd"/></linearGradient><linearGradient x1="167.33129" y1="205.31114" x2="167.33129" y2="356.56681" gradientUnits="userSpaceOnUse" id="color-2"><stop offset="0" stop-color="#bdbdbd" stop-opacity="0"/><stop offset="1" stop-color="#bdbdbd"/></linearGradient><linearGradient x1="176.33129" y1="463.73069" x2="176.33129" y2="205.31114" gradientUnits="userSpaceOnUse" id="color-3"><stop offset="0" stop-color="#bdbdbd"/><stop offset="1" stop-color="#bdbdbd" stop-opacity="0"/></linearGradient></defs><g transform="translate(0,129.82361)"><g data-paper-data="{&quot;isPaintingLayer&quot;:true}" fill="none" fill-rule="nonzero" stroke="none" stroke-width="none" stroke-linecap="none" stroke-linejoin="none" stroke-miterlimit="10" stroke-dasharray="" stroke-dashoffset="0" font-family="none" font-weight="none" font-size="none" text-anchor="none" style="mix-blend-mode: normal"><g data-paper-data="{&quot;origPos&quot;:null}" fill="#8eb480" stroke="none" stroke-width="0" stroke-linecap="butt" stroke-linejoin="miter"><path d="M195.47606,109.01725c0,0 4.77733,-7.68571 4.6348,-16.44525c-0.29758,-18.28923 -5.7625,-52.86389 -5.7625,-52.86389c0,0 8.83308,27.17782 11.83664,40.10085c3.69067,15.87944 4.72502,30.64499 4.72502,30.64499z" data-paper-data="{&quot;origPos&quot;:null}"/><path d="M190.43898,113.09171c0,0 4.18071,2.86275 2.3847,-13.06455c-1.46164,-12.96196 -6.7337,-26.44229 -6.7337,-26.44229c0,0 5.72089,3.54975 11.31028,16.3902c6.61962,15.20724 8.8336,21.18904 8.8336,21.18904z" data-paper-data="{&quot;origPos&quot;:null,&quot;origRot&quot;:0}"/></g><path d="M220.91296,108.27889c0,0 3.11238,-10.0493 12.41815,-35.59719c7.8575,-21.57172 15.89983,-27.53522 15.89983,-27.53522c0,0 -7.41139,22.6467 -9.46614,44.42254c-2.52481,26.75756 3.35238,21.94819 3.35238,21.94819z" data-paper-data="{&quot;origPos&quot;:null,&quot;origRot&quot;:0}" fill="#8eb480" stroke="none" stroke-width="0" stroke-linecap="butt" stroke-linejoin="miter"/><path d="M218.11807,107.65333c0,0 4.18071,2.86275 2.3847,-13.06455c-1.46164,-12.96196 -6.7337,-26.44229 -6.7337,-26.44229c0,0 5.72087,3.54974 11.31027,16.3902c6.61962,15.20725 8.8336,21.18904 8.8336,21.18904z" data-paper-data="{&quot;origPos&quot;:null,&quot;origRot&quot;:0}" fill="#8eb480" stroke="none" stroke-width="0" stroke-linecap="butt" stroke-linejoin="miter"/><path d="M270.59112,112.1101c0,0 1.84177,9.87016 3.79358,-15.3342c1.58842,-20.51182 3.03674,-46.4167 3.03674,-46.4167c0,0 1.07593,5.47445 2.92024,26.40368c2.18422,24.78696 3.70013,34.6541 3.70013,34.6541z" data-paper-data="{&quot;origPos&quot;:null}" fill="#8eb480" stroke="none" stroke-width="0" stroke-linecap="butt" stroke-linejoin="miter"/><path d="M271.15299,114.32532c0,0 3.85835,9.03101 0.45482,-15.95964c-2.76986,-20.33788 -6.80845,-45.86143 -6.80845,-45.86143c0,0 2.19273,4.99325 8.37684,24.74054c7.32394,23.38718 10.86587,32.5097 10.86587,32.5097z" data-paper-data="{&quot;origPos&quot;:null,&quot;origRot&quot;:0}" fill="#8eb480" stroke="none" stroke-width="0" stroke-linecap="butt" stroke-linejoin="miter"/><g data-paper-data="{&quot;origPos&quot;:null}" fill="#8eb480" stroke="none" stroke-width="0" stroke-linecap="butt" stroke-linejoin="miter"><path d="M261.47605,109.01725c0,0 4.77733,-7.68571 4.6348,-16.44525c-0.29758,-18.28923 -5.7625,-52.86389 -5.7625,-52.86389c0,0 8.83308,27.17782 11.83664,40.10085c3.69067,15.87944 4.72502,30.64499 4.72502,30.64499z" data-paper-data="{&quot;origPos&quot;:null}"/><path d="M256.43898,113.09171c0,0 4.18071,2.86275 2.3847,-13.06455c-1.46164,-12.96196 -6.7337,-26.44229 -6.7337,-26.44229c0,0 5.72089,3.54975 11.31028,16.3902c6.61962,15.20724 8.8336,21.18904 8.8336,21.18904z" data-paper-data="{&quot;origPos&quot;:null,&quot;origRot&quot;:0}"/></g><g data-paper-data="{&quot;origPos&quot;:null,&quot;index&quot;:null,&quot;origRot&quot;:0}" stroke="none" stroke-width="0" stroke-linecap="butt" stroke-linejoin="miter"><path d="M384.18738,130.45503c0,0 -12.60181,-11.86187 -12.67039,-21.25116c-0.04895,-6.70123 12.36924,-19.9788 12.36924,-19.9788z" fill="#8eb480"/><path d="M383.71332,89.08663c0,0 12.60181,11.86187 12.67039,21.25116c0.04895,6.70123 -12.36924,19.9788 -12.36924,19.9788z" data-paper-data="{&quot;index&quot;:null,&quot;origPos&quot;:null}" fill="#9dc78d"/></g><g data-paper-data="{&quot;origPos&quot;:null,&quot;index&quot;:null,&quot;origRot&quot;:0}" stroke="none" stroke-width="0" stroke-linecap="butt" stroke-linejoin="miter"><path d="M416.92268,83.13526c0,0 12.41819,13.27757 12.36924,19.9788c-0.06858,9.38929 -12.67039,21.25116 -12.67039,21.25116z" fill="#8eb480"/><path d="M416.79446,124.22677c0,0 -12.41819,-13.27757 -12.36924,-19.9788c0.06858,-9.38929 12.67039,-21.25116 12.67039,-21.25116z" data-paper-data="{&quot;index&quot;:null,&quot;origPos&quot;:null}" fill="#9dc78d"/></g><g data-paper-data="{&quot;origPos&quot;:null,&quot;index&quot;:null,&quot;origRot&quot;:0}" stroke="none" stroke-width="0" stroke-linecap="butt" stroke-linejoin="miter"><path d="M366.18738,128.36522c0,0 -12.60181,-11.86187 -12.67039,-21.25116c-0.04895,-6.70123 12.36924,-19.9788 12.36924,-19.9788z" fill="#8eb480"/><path d="M365.71331,86.99682c0,0 12.60181,11.86187 12.67039,21.25116c0.04895,6.70123 -12.36924,19.9788 -12.36924,19.9788z" data-paper-data="{&quot;index&quot;:null,&quot;origPos&quot;:null}" fill="#9dc78d"/></g><g data-paper-data="{&quot;origPos&quot;:null,&quot;origRot&quot;:0,&quot;index&quot;:null}" stroke="none" stroke-width="0" stroke-linecap="butt" stroke-linejoin="miter"><path d="M328.44131,99.21968c0,0 15.26937,-9.86669 21.85571,-8.63011c9.2283,1.73261 18.66733,16.23828 18.66733,16.23828z" fill="#8eb480"/><path d="M368.85881,106.63308c0,0 -15.26936,9.8667 -21.85569,8.63011c-9.2283,-1.73261 -18.66734,-16.23827 -18.66734,-16.23827z" data-paper-data="{&quot;index&quot;:null,&quot;origPos&quot;:null}" fill="#9dc78d"/></g><g data-paper-data="{&quot;origPos&quot;:null,&quot;index&quot;:null,&quot;origRot&quot;:0}" stroke="none" stroke-width="0" stroke-linecap="butt" stroke-linejoin="miter"><path d="M400.17577,87.85544c0,0 16.16388,8.3207 18.37426,14.64709c3.09702,8.86408 -4.77471,24.27659 -4.77471,24.27659z" fill="#8eb480"/><path d="M413.89154,126.59052c0,0 -16.16388,-8.3207 -18.37426,-14.64709c-3.09702,-8.86408 4.77471,-24.27659 4.77471,-24.27659z" data-paper-data="{&quot;index&quot;:null,&quot;origPos&quot;:null}" fill="#9dc78d"/></g><g data-paper-data="{&quot;origPos&quot;:null,&quot;index&quot;:null,&quot;origRot&quot;:0}" stroke="none" stroke-width="0" stroke-linecap="butt" stroke-linejoin="miter"><path d="M365.96323,83.36397c0,0 16.70997,-4.50407 24.73899,0.36398c5.73041,3.47438 10.51786,21.01251 10.51786,21.01251z" fill="#8eb480"/><path d="M401.42865,104.66585c0,0 -16.70997,4.50408 -24.73899,-0.36398c-5.73041,-3.47438 -10.51785,-21.01249 -10.51785,-21.01249z" data-paper-data="{&quot;index&quot;:null,&quot;origPos&quot;:null}" fill="#9dc78d"/></g><g data-paper-data="{&quot;origPos&quot;:null,&quot;origRot&quot;:0,&quot;index&quot;:null}" stroke="none" stroke-width="0" stroke-linecap="butt" stroke-linejoin="miter"><path d="M368.13911,77.79193c0,0 1.89976,17.20176 -4.13719,24.39333c-4.30863,5.13271 -22.3721,7.18607 -22.3721,7.18607z" fill="#8eb480"/><path d="M341.67171,109.58887c0,0 -1.89976,-17.20176 4.13719,-24.39333c4.30863,-5.1327 22.3721,-7.18606 22.3721,-7.18606z" data-paper-data="{&quot;index&quot;:null,&quot;origPos&quot;:null}" fill="#9dc78d"/></g><g data-paper-data="{&quot;origPos&quot;:null,&quot;index&quot;:null,&quot;origRot&quot;:0}" stroke="none" stroke-width="0" stroke-linecap="butt" stroke-linejoin="miter"><path d="M363.36625,122.52531c0,0 -7.41947,-16.59689 -5.1917,-22.91717c3.12138,-8.85552 18.89822,-15.96895 18.89822,-15.96895z" fill="#8eb480"/><path d="M376.8642,83.71377c0,0 7.41947,16.59689 5.19169,22.91717c-3.12138,8.85553 -18.89822,15.96895 -18.89822,15.96895z" data-paper-data="{&quot;index&quot;:null,&quot;origPos&quot;:null}" fill="#9dc78d"/></g><g data-paper-data="{&quot;origPos&quot;:null,&quot;index&quot;:null,&quot;origRot&quot;:0}" stroke="none" stroke-width="0" stroke-linecap="butt" stroke-linejoin="miter"><path d="M375.56351,91.19984c0,0 15.86008,6.92585 19.08625,15.74374c2.30255,6.29342 -4.91958,22.97713 -4.91958,22.97713z" fill="#8eb480"/><path d="M389.93963,129.99283c0,0 -15.86008,-6.92585 -19.08625,-15.74374c-2.30255,-6.29342 4.91957,-22.97712 4.91957,-22.97712z" data-paper-data="{&quot;index&quot;:null,&quot;origPos&quot;:null}" fill="#9dc78d"/></g><g data-paper-data="{&quot;origPos&quot;:null,&quot;index&quot;:null}" stroke="none" stroke-width="0.5" stroke-linecap="butt" stroke-linejoin="miter"><path d="M254.2336,106.52363c-3.03757,0 -5.5,-2.46243 -5.5,-5.5c0,-3.03757 2.46243,-5.5 5.5,-5.5c3.03757,0 5.5,2.46243 5.5,5.5c0,3.03757 -2.46243,5.5 -5.5,5.5z" data-paper-data="{&quot;origPos&quot;:null}" fill="#c76e6e"/><path d="M254.2336,106.52364c-3.03756,0 -5.5,-2.46244 -5.5,-5.5c0,-3.03756 2.46244,-5.5 5.5,-5.5c3.03756,0 3.03756,11 0,11z" data-paper-data="{&quot;origPos&quot;:null}" fill="#c76262"/></g><g data-paper-data="{&quot;origPos&quot;:null,&quot;index&quot;:null,&quot;origRot&quot;:0}" stroke="none" stroke-width="0" stroke-linecap="butt" stroke-linejoin="miter"><path d="M129.04932,125.3641c0,0 -12.41819,-13.27757 -12.36924,-19.9788c0.06858,-9.38929 12.67039,-21.25116 12.67039,-21.25116z" fill="#8eb480"/><path d="M129.17754,84.27259c0,0 12.41819,13.27757 12.36924,19.9788c-0.06858,9.38929 -12.67039,21.25116 -12.67039,21.25116z" data-paper-data="{&quot;index&quot;:null,&quot;origPos&quot;:null}" fill="#9dc78d"/></g><g data-paper-data="{&quot;origPos&quot;:null,&quot;index&quot;:null,&quot;origRot&quot;:0}" stroke="none" stroke-width="0" stroke-linecap="butt" stroke-linejoin="miter"><path d="M179.7846,80.13414c0,0 12.60181,11.86187 12.67039,21.25116c0.04895,6.70123 -12.36924,19.9788 -12.36924,19.9788z" fill="#8eb480"/><path d="M180.25867,121.50255c0,0 -12.60181,-11.86187 -12.67039,-21.25116c-0.04895,-6.70123 12.36924,-19.9788 12.36924,-19.9788z" data-paper-data="{&quot;index&quot;:null,&quot;origPos&quot;:null}" fill="#9dc78d"/></g><g data-paper-data="{&quot;origPos&quot;:null,&quot;index&quot;:null,&quot;origRot&quot;:0}" stroke="none" stroke-width="0" stroke-linecap="butt" stroke-linejoin="miter"><path d="M186.08576,95.3624c0,0 12.41819,13.27757 12.36924,19.9788c-0.06858,9.38929 -12.67039,21.25116 -12.67039,21.25116z" fill="#8eb480"/><path d="M185.95754,136.45392c0,0 -12.41819,-13.27757 -12.36924,-19.9788c0.06858,-9.38929 12.67039,-21.25116 12.67039,-21.25116z" data-paper-data="{&quot;index&quot;:null,&quot;origPos&quot;:null}" fill="#9dc78d"/></g><g data-paper-data="{&quot;origPos&quot;:null,&quot;index&quot;:null,&quot;origRot&quot;:0}" stroke="none" stroke-width="0" stroke-linecap="butt" stroke-linejoin="miter"><path d="M153.35046,130.50255c0,0 -12.60181,-11.86187 -12.67039,-21.25116c-0.04895,-6.70123 12.36924,-19.9788 12.36924,-19.9788z" fill="#8eb480"/><path d="M152.87634,89.13414c0,0 12.60181,11.86187 12.67039,21.25116c0.04895,6.70123 -12.36924,19.9788 -12.36924,19.9788z" data-paper-data="{&quot;index&quot;:null,&quot;origPos&quot;:null}" fill="#9dc78d"/></g><g data-paper-data="{&quot;origPos&quot;:null,&quot;index&quot;:null}" stroke="none" stroke-width="0" stroke-linecap="butt" stroke-linejoin="miter"><path d="M157.75159,105.52322c0,0 -1.39763,-18.126 2.82824,-23.32706c5.92097,-7.28735 23.17176,-8.67294 23.17176,-8.67294z" fill="#8eb480"/><path d="M183.53007,73.52322c0,0 1.39763,18.126 -2.82824,23.32705c-5.92097,7.28735 -23.17176,8.67294 -23.17176,8.67294z" data-paper-data="{&quot;index&quot;:null,&quot;origPos&quot;:null}" fill="#9dc78d"/></g><g data-paper-data="{&quot;origPos&quot;:null,&quot;index&quot;:null,&quot;origRot&quot;:0}" stroke="none" stroke-width="0" stroke-linecap="butt" stroke-linejoin="miter"><path d="M147.04932,115.2743c0,0 -12.41819,-13.27757 -12.36924,-19.9788c0.06858,-9.38929 12.67039,-21.25116 12.67039,-21.25116z" fill="#8eb480"/><path d="M147.17748,74.18278c0,0 12.41819,13.27757 12.36924,19.9788c-0.06858,9.38929 -12.67039,21.25116 -12.67039,21.25116z" data-paper-data="{&quot;index&quot;:null,&quot;origPos&quot;:null}" fill="#9dc78d"/></g><g data-paper-data="{&quot;origPos&quot;:null,&quot;origRot&quot;:0,&quot;index&quot;:null}" stroke="none" stroke-width="0" stroke-linecap="butt" stroke-linejoin="miter"><path d="M215.42132,89.8182c0,0 -17.70004,4.14895 -23.48537,0.7668c-8.10599,-4.73882 -12.10941,-21.57575 -12.10941,-21.57575z" fill="#8eb480"/><path d="M179.86036,69.22819c0,0 17.70004,-4.14895 23.48536,-0.7668c8.10599,4.73882 12.10941,21.57575 12.10941,21.57575z" data-paper-data="{&quot;index&quot;:null,&quot;origPos&quot;:null}" fill="#9dc78d"/></g><g data-paper-data="{&quot;origPos&quot;:null,&quot;index&quot;:null,&quot;origRot&quot;:0}" stroke="none" stroke-width="0" stroke-linecap="butt" stroke-linejoin="miter"><path d="M204.08576,93.27259c0,0 12.41819,13.27757 12.36924,19.9788c-0.06858,9.38929 -12.67039,21.25116 -12.67039,21.25116z" fill="#8eb480"/><path d="M203.95754,134.36411c0,0 -12.41819,-13.27757 -12.36924,-19.9788c0.06858,-9.38929 12.67039,-21.25116 12.67039,-21.25116z" data-paper-data="{&quot;index&quot;:null,&quot;origPos&quot;:null}" fill="#9dc78d"/></g><g data-paper-data="{&quot;origPos&quot;:null,&quot;index&quot;:null}" stroke="none" stroke-width="0" stroke-linecap="butt" stroke-linejoin="miter"><path d="M173.38346,77.52322c0,0 17.25079,1.38559 23.17176,8.67294c4.22587,5.20106 2.82824,23.32706 2.82824,23.32706z" fill="#8eb480"/><path d="M199.60498,109.52321c0,0 -17.25079,-1.38559 -23.17176,-8.67294c-4.22587,-5.20105 -2.82824,-23.32705 -2.82824,-23.32705z" data-paper-data="{&quot;index&quot;:null,&quot;origPos&quot;:null}" fill="#9dc78d"/></g><g data-paper-data="{&quot;origPos&quot;:null,&quot;index&quot;:null,&quot;origRot&quot;:0}" stroke="none" stroke-width="0" stroke-linecap="butt" stroke-linejoin="miter"><path d="M209.7846,78.04433c0,0 12.60181,11.86187 12.67039,21.25116c0.04895,6.70123 -12.36924,19.9788 -12.36924,19.9788z" fill="#8eb480"/><path d="M210.25867,119.41274c0,0 -12.60181,-11.86187 -12.67039,-21.25116c-0.04895,-6.70123 12.36924,-19.9788 12.36924,-19.9788z" data-paper-data="{&quot;index&quot;:null,&quot;origPos&quot;:null}" fill="#9dc78d"/></g><g data-paper-data="{&quot;origPos&quot;:null,&quot;origRot&quot;:0,&quot;index&quot;:null}" stroke="none" stroke-width="0" stroke-linecap="butt" stroke-linejoin="miter"><path d="M177.30853,73.00925c0,0 -4.00342,16.83693 -12.10941,21.57575c-5.78533,3.38215 -23.48537,-0.7668 -23.48537,-0.7668z" fill="#8eb480"/><path d="M141.67989,94.03714c0,0 4.00342,-16.83693 12.10941,-21.57575c5.78532,-3.38215 23.48536,0.7668 23.48536,0.7668z" data-paper-data="{&quot;index&quot;:null,&quot;origPos&quot;:null}" fill="#9dc78d"/></g><g data-paper-data="{&quot;origPos&quot;:null,&quot;index&quot;:null,&quot;origRot&quot;:0}" stroke="none" stroke-width="0" stroke-linecap="butt" stroke-linejoin="miter"><path d="M206.22343,110.03646c0,0 -15.77684,-7.11343 -18.89822,-15.96896c-2.22777,-6.32028 5.1917,-22.91717 5.1917,-22.91717z" fill="#8eb480"/><path d="M192.30828,71.07575c0,0 15.77685,7.11344 18.89823,15.96896c2.22778,6.32028 -5.19169,22.91716 -5.19169,22.91716z" data-paper-data="{&quot;index&quot;:null,&quot;origPos&quot;:null}" fill="#9dc78d"/></g><g data-paper-data="{&quot;origPos&quot;:null,&quot;index&quot;:null,&quot;origRot&quot;:0}" stroke="none" stroke-width="0" stroke-linecap="butt" stroke-linejoin="miter"><path d="M172.12346,97.28865c0,0 -7.87172,-15.41251 -4.7747,-24.27659c2.21037,-6.32639 18.37425,-14.64709 18.37425,-14.64709z" fill="#8eb480"/><path d="M185.60678,58.17639c0,0 7.87173,15.41251 4.77471,24.27659c-2.21038,6.32638 -18.37426,14.64708 -18.37426,14.64708z" data-paper-data="{&quot;index&quot;:null,&quot;origPos&quot;:null}" fill="#9dc78d"/></g><g data-paper-data="{&quot;origPos&quot;:null,&quot;origRot&quot;:0,&quot;index&quot;:null}" stroke="none" stroke-width="0" stroke-linecap="butt" stroke-linejoin="miter"><path d="M201.00759,112.96518c0,0 9.43903,-14.50567 18.66733,-16.23828c6.58634,-1.23658 21.85571,8.63011 21.85571,8.63011z" fill="#8eb480"/><path d="M241.63619,105.16225c0,0 -9.43904,14.50566 -18.66734,16.23827c-6.58633,1.23659 -21.85569,-8.63011 -21.85569,-8.63011z" data-paper-data="{&quot;index&quot;:null,&quot;origPos&quot;:null}" fill="#9dc78d"/></g><g data-paper-data="{&quot;origPos&quot;:null,&quot;index&quot;:null,&quot;origRot&quot;:0}" stroke="none" stroke-width="0" stroke-linecap="butt" stroke-linejoin="miter"><path d="M233.0645,81.40237c0,0 -4.78745,17.53812 -10.51786,21.0125c-8.02903,4.86806 -24.739,0.36398 -24.739,0.36398z" fill="#8eb480"/><path d="M198.01625,102.85345c0,0 4.78744,-17.53812 10.51785,-21.0125c8.02903,-4.86805 24.739,-0.36398 24.739,-0.36398z" data-paper-data="{&quot;index&quot;:null,&quot;origPos&quot;:null}" fill="#9dc78d"/></g><g data-paper-data="{&quot;origPos&quot;:null,&quot;index&quot;:null,&quot;origRot&quot;:0}" stroke="none" stroke-width="0" stroke-linecap="butt" stroke-linejoin="miter"><path d="M238.42522,81.82444c0,0 7.22213,16.6837 4.91958,22.97712c-3.22618,8.81789 -19.08626,15.74374 -19.08626,15.74374z" fill="#8eb480"/><path d="M224.46801,120.47317c0,0 -7.22213,-16.6837 -4.91958,-22.97712c3.22617,-8.81789 19.08625,-15.74374 19.08625,-15.74374z" data-paper-data="{&quot;index&quot;:null,&quot;origPos&quot;:null}" fill="#9dc78d"/></g><g data-paper-data="{&quot;origPos&quot;:null,&quot;origRot&quot;:0,&quot;index&quot;:null}" stroke="none" stroke-width="0" stroke-linecap="butt" stroke-linejoin="miter"><path d="M173.47424,76.7715c0,0 18.06347,2.05335 22.3721,7.18606c6.03696,7.19157 4.1372,24.39333 4.1372,24.39333z" fill="#8eb480"/><path d="M200.02541,108.13334c0,0 -18.06346,-2.05336 -22.37209,-7.18606c-6.03695,-7.19157 -4.13719,-24.39333 -4.13719,-24.39333z" data-paper-data="{&quot;index&quot;:null,&quot;origPos&quot;:null}" fill="#9dc78d"/></g><g data-paper-data="{&quot;origPos&quot;:null,&quot;index&quot;:null,&quot;origRot&quot;:0}" stroke="none" stroke-width="0" stroke-linecap="butt" stroke-linejoin="miter"><path d="M156.19663,132.91645c0,0 -7.87173,-15.41251 -4.77471,-24.27659c2.21038,-6.32639 18.37426,-14.64709 18.37426,-14.64709z" fill="#8eb480"/><path d="M169.68,93.80417c0,0 7.87173,15.41251 4.77471,24.27659c-2.21038,6.32639 -18.37426,14.64709 -18.37426,14.64709z" data-paper-data="{&quot;index&quot;:null,&quot;origPos&quot;:null}" fill="#9dc78d"/></g><g data-paper-data="{&quot;origPos&quot;:null,&quot;index&quot;:null,&quot;origRot&quot;:0}" stroke="none" stroke-width="0" stroke-linecap="butt" stroke-linejoin="miter"><path d="M168.75191,110.87779c0,0 4.78745,-17.53813 10.51786,-21.01251c8.02902,-4.86805 24.73899,-0.36398 24.73899,-0.36398z" fill="#8eb480"/><path d="M203.80018,89.42671c0,0 -4.78744,17.53811 -10.51785,21.01249c-8.02902,4.86806 -24.73899,0.36398 -24.73899,0.36398z" data-paper-data="{&quot;index&quot;:null,&quot;origPos&quot;:null}" fill="#9dc78d"/></g><g data-paper-data="{&quot;origPos&quot;:null,&quot;index&quot;:null,&quot;origRot&quot;:0}" stroke="none" stroke-width="0" stroke-linecap="butt" stroke-linejoin="miter"><path d="M155.39119,116.45573c0,0 -7.22213,-16.68371 -4.91958,-22.97713c3.22617,-8.8179 19.08626,-15.74374 19.08626,-15.74374z" fill="#8eb480"/><path d="M169.3484,77.80698c0,0 7.22213,16.6837 4.91958,22.97712c-3.22617,8.8179 -19.08625,15.74374 -19.08625,15.74374z" data-paper-data="{&quot;index&quot;:null,&quot;origPos&quot;:null}" fill="#9dc78d"/></g><g data-paper-data="{&quot;origPos&quot;:null,&quot;origRot&quot;:0,&quot;index&quot;:null}" stroke="none" stroke-width="0" stroke-linecap="butt" stroke-linejoin="miter"><path d="M228.34217,115.50866c0,0 -18.06347,-2.05336 -22.3721,-7.18607c-6.03695,-7.19157 -4.13719,-24.39333 -4.13719,-24.39333z" fill="#8eb480"/><path d="M201.79099,84.14681c0,0 18.06347,2.05336 22.3721,7.18606c6.03695,7.19157 4.13719,24.39333 4.13719,24.39333z" data-paper-data="{&quot;index&quot;:null,&quot;origPos&quot;:null}" fill="#9dc78d"/></g><g data-paper-data="{&quot;origPos&quot;:null,&quot;index&quot;:null,&quot;origRot&quot;:0}" stroke="none" stroke-width="0" stroke-linecap="butt" stroke-linejoin="miter"><path d="M192.8992,89.77652c0,0 15.77684,7.11343 18.89822,15.96895c2.22777,6.32028 -5.1917,22.91717 -5.1917,22.91717z" fill="#8eb480"/><path d="M206.81432,128.73722c0,0 -15.77684,-7.11342 -18.89822,-15.96895c-2.22778,-6.32028 5.19169,-22.91717 5.19169,-22.91717z" data-paper-data="{&quot;index&quot;:null,&quot;origPos&quot;:null}" fill="#9dc78d"/></g><g data-paper-data="{&quot;origPos&quot;:null,&quot;origRot&quot;:0,&quot;index&quot;:null}" stroke="none" stroke-width="0" stroke-linecap="butt" stroke-linejoin="miter"><path d="M198.11502,86.8478c0,0 -9.43903,14.50567 -18.66733,16.23828c-6.58633,1.23659 -21.8557,-8.63011 -21.8557,-8.63011z" fill="#8eb480"/><path d="M157.48639,94.65074c0,0 9.43903,-14.50566 18.66733,-16.23827c6.58633,-1.23659 21.8557,8.6301 21.8557,8.6301z" data-paper-data="{&quot;index&quot;:null,&quot;origPos&quot;:null}" fill="#9dc78d"/></g><g data-paper-data="{&quot;origPos&quot;:null,&quot;index&quot;:null,&quot;origRot&quot;:0}" stroke="none" stroke-width="0" stroke-linecap="butt" stroke-linejoin="miter"><path d="M180.24182,136.05804c0,0 -7.22213,-16.68371 -4.91958,-22.97713c3.22617,-8.81789 19.08625,-15.74374 19.08625,-15.74374z" fill="#8eb480"/><path d="M194.19903,97.4093c0,0 7.22212,16.6837 4.91957,22.97712c-3.22617,8.81789 -19.08625,15.74374 -19.08625,15.74374z" data-paper-data="{&quot;index&quot;:null,&quot;origPos&quot;:null}" fill="#9dc78d"/></g><g data-paper-data="{&quot;origPos&quot;:null,&quot;origRot&quot;:0,&quot;index&quot;:null}" stroke="none" stroke-width="0" stroke-linecap="butt" stroke-linejoin="miter"><path d="M280.66893,107.88529l0.88304,-111.34642l11.94314,-1.67627l11.78869,10.36473l15.36692,-8.37839c0,0 -0.60459,76.23523 -0.75477,95.17202c-0.05006,6.31227 15.87173,16.17439 15.87173,16.17439z" data-paper-data="{&quot;origPos&quot;:null,&quot;origRot&quot;:0}" fill="#8b7f6e"/><path d="M280.66893,107.88528c0,0 0.11543,-14.55598 0.18932,-23.87255c0.22166,-27.9497 0.69372,-87.47387 0.69372,-87.47387l11.94313,-1.67627l11.78869,10.36473z" data-paper-data="{&quot;origPos&quot;:null,&quot;origRot&quot;:0}" fill="#817666"/></g><path d="M320.23357,23.02364c0,0 -9.81314,-3.66357 -16.7341,-4.72833c-8.29928,-1.27681 -22.26589,-1.27167 -22.26589,-1.27167v-17h39v23z" data-paper-data="{&quot;origPos&quot;:null,&quot;index&quot;:null}" fill="#6c6356" stroke="none" stroke-width="0" stroke-linecap="butt" stroke-linejoin="miter"/><g data-paper-data="{&quot;origPos&quot;:null,&quot;index&quot;:null}" stroke="none" stroke-width="0" stroke-linecap="butt" stroke-linejoin="miter"><path d="M294.75158,-7.97633c0,0 -17.25079,-1.38559 -23.17176,-8.67294c-4.22587,-5.20106 -2.82824,-23.32706 -2.82824,-23.32706z" fill="#8eb480"/><path d="M268.53004,-39.97632c0,0 17.25079,1.38559 23.17176,8.67294c4.22587,5.20105 2.82824,23.32705 2.82824,23.32705z" data-paper-data="{&quot;index&quot;:null,&quot;origPos&quot;:null}" fill="#9dc78d"/></g><g data-paper-data="{&quot;origPos&quot;:null,&quot;index&quot;:null,&quot;origRot&quot;:0}" stroke="none" stroke-width="0" stroke-linecap="butt" stroke-linejoin="miter"><path d="M258.35044,-8.49745c0,0 -12.60181,-11.86187 -12.67039,-21.25116c-0.04895,-6.70123 12.36924,-19.9788 12.36924,-19.9788z" fill="#8eb480"/><path d="M257.87638,-49.86585c0,0 12.60181,11.86187 12.67039,21.25116c0.04895,6.70123 -12.36924,19.9788 -12.36924,19.9788z" data-paper-data="{&quot;index&quot;:null,&quot;origPos&quot;:null}" fill="#9dc78d"/></g><g data-paper-data="{&quot;origPos&quot;:null,&quot;origRot&quot;:0,&quot;index&quot;:null}" stroke="none" stroke-width="0" stroke-linecap="butt" stroke-linejoin="miter"><path d="M290.82651,-3.46236c0,0 4.00342,-16.83693 12.10941,-21.57575c5.78533,-3.38215 23.48537,0.7668 23.48537,0.7668z" fill="#8eb480"/><path d="M326.45509,-24.49025c0,0 -4.00342,16.83693 -12.10941,21.57575c-5.78532,3.38215 -23.48536,-0.7668 -23.48536,-0.7668z" data-paper-data="{&quot;index&quot;:null,&quot;origPos&quot;:null}" fill="#9dc78d"/></g><g data-paper-data="{&quot;origPos&quot;:null,&quot;index&quot;:null}" stroke="none" stroke-width="0" stroke-linecap="butt" stroke-linejoin="miter"><path d="M262.75158,-33.47679c0,0 -1.39763,-18.126 2.82824,-23.32706c5.92097,-7.28735 23.17176,-8.67294 23.17176,-8.67294z" fill="#8eb480"/><path d="M288.53004,-65.47678c0,0 1.39763,18.126 -2.82824,23.32705c-5.92097,7.28735 -23.17176,8.67294 -23.17176,8.67294z" data-paper-data="{&quot;index&quot;:null,&quot;origPos&quot;:null}" fill="#9dc78d"/></g><g data-paper-data="{&quot;origPos&quot;:null,&quot;index&quot;:null,&quot;origRot&quot;:0}" fill="#8db27e" stroke="none" stroke-width="0" stroke-linecap="butt" stroke-linejoin="miter"><path d="M244.04932,-8.7257c0,0 -12.41819,-13.27757 -12.36924,-19.9788c0.06858,-9.38929 12.67039,-21.25116 12.67039,-21.25116z"/><path d="M244.17754,-49.81722c0,0 12.41819,13.27757 12.36924,19.9788c-0.06858,9.38929 -12.67039,21.25116 -12.67039,21.25116z" data-paper-data="{&quot;index&quot;:null,&quot;origPos&quot;:null}"/></g><g data-paper-data="{&quot;origPos&quot;:null,&quot;origRot&quot;:0,&quot;index&quot;:null}" stroke="none" stroke-width="0" stroke-linecap="butt" stroke-linejoin="miter"><path d="M320.42127,-49.1818c0,0 -17.70004,4.14895 -23.48537,0.7668c-8.10599,-4.73882 -12.10941,-21.57575 -12.10941,-21.57575z" fill="#8eb480"/><path d="M284.86035,-69.77181c0,0 17.70004,-4.14895 23.48536,-0.7668c8.10599,4.73882 12.10941,21.57575 12.10941,21.57575z" data-paper-data="{&quot;index&quot;:null,&quot;origPos&quot;:null}" fill="#9dc78d"/></g><g data-paper-data="{&quot;origPos&quot;:null,&quot;index&quot;:null}" stroke="none" stroke-width="0" stroke-linecap="butt" stroke-linejoin="miter"><path d="M298.38345,-35.97633c0,0 1.39763,18.126 -2.82824,23.32706c-5.92097,7.28735 -23.17176,8.67294 -23.17176,8.67294z" fill="#8eb480"/><path d="M272.60499,-3.97633c0,0 -1.39763,-18.126 2.82824,-23.32705c5.92097,-7.28735 23.17176,-8.67294 23.17176,-8.67294z" data-paper-data="{&quot;index&quot;:null,&quot;origPos&quot;:null}" fill="#9dc78d"/></g><g data-paper-data="{&quot;origPos&quot;:null,&quot;index&quot;:null,&quot;origRot&quot;:0}" stroke="none" stroke-width="0" stroke-linecap="butt" stroke-linejoin="miter"><path d="M309.08574,-45.72741c0,0 12.41819,13.27757 12.36924,19.9788c-0.06858,9.38929 -12.67039,21.25116 -12.67039,21.25116z" fill="#8eb480"/><path d="M308.95752,-4.63589c0,0 -12.41819,-13.27757 -12.36924,-19.9788c0.06858,-9.38929 12.67039,-21.25116 12.67039,-21.25116z" data-paper-data="{&quot;index&quot;:null,&quot;origPos&quot;:null}" fill="#9dc78d"/></g><g data-paper-data="{&quot;origPos&quot;:null,&quot;index&quot;:null}" stroke="none" stroke-width="0" stroke-linecap="butt" stroke-linejoin="miter"><path d="M278.38345,-61.47678c0,0 17.25079,1.38559 23.17176,8.67294c4.22587,5.20106 2.82824,23.32706 2.82824,23.32706z" fill="#8eb480"/><path d="M304.60497,-29.4768c0,0 -17.25079,-1.38559 -23.17176,-8.67294c-4.22587,-5.20105 -2.82824,-23.32705 -2.82824,-23.32705z" data-paper-data="{&quot;index&quot;:null,&quot;origPos&quot;:null}" fill="#9dc78d"/></g><g data-paper-data="{&quot;origPos&quot;:null,&quot;index&quot;:null,&quot;origRot&quot;:0}" stroke="none" stroke-width="0" stroke-linecap="butt" stroke-linejoin="miter"><path d="M314.78459,-60.95566c0,0 12.60181,11.86187 12.67039,21.25116c0.04895,6.70123 -12.36924,19.9788 -12.36924,19.9788z" fill="#8eb480"/><path d="M315.25865,-19.58726c0,0 -12.60181,-11.86187 -12.67039,-21.25116c-0.04895,-6.70123 12.36924,-19.9788 12.36924,-19.9788z" data-paper-data="{&quot;index&quot;:null,&quot;origPos&quot;:null}" fill="#9dc78d"/></g><g data-paper-data="{&quot;origPos&quot;:null,&quot;origRot&quot;:0,&quot;index&quot;:null}" fill="#9dc78d" stroke="none" stroke-width="0" stroke-linecap="butt" stroke-linejoin="miter"><path d="M282.30852,-65.99075c0,0 -4.00342,16.83693 -12.10941,21.57575c-5.78533,3.38215 -23.48537,-0.7668 -23.48537,-0.7668z"/><path d="M246.67993,-44.96286c0,0 4.00342,-16.83693 12.10941,-21.57575c5.78532,-3.38215 23.48536,0.7668 23.48536,0.7668z" data-paper-data="{&quot;index&quot;:null,&quot;origPos&quot;:null}"/></g><g data-paper-data="{&quot;origPos&quot;:null,&quot;index&quot;:null,&quot;origRot&quot;:0}" fill="#9dc78d" stroke="none" stroke-width="0" stroke-linecap="butt" stroke-linejoin="miter"><path d="M249.04932,-62.6359c0,0 -12.41819,-13.27757 -12.36924,-19.9788c0.06858,-9.38929 12.67039,-21.25116 12.67039,-21.25116z"/><path d="M249.17754,-103.72741c0,0 12.41819,13.27757 12.36924,19.9788c-0.06858,9.38929 -12.67039,21.25116 -12.67039,21.25116z" data-paper-data="{&quot;index&quot;:null,&quot;origPos&quot;:null}"/></g><g data-paper-data="{&quot;origPos&quot;:null,&quot;index&quot;:null}" fill="#9dc78d" stroke="none" stroke-width="0" stroke-linecap="butt" stroke-linejoin="miter"><path d="M279.75158,-46.88652c0,0 -17.25079,-1.38559 -23.17176,-8.67294c-4.22587,-5.20106 -2.82824,-23.32706 -2.82824,-23.32706z"/><path d="M253.53007,-78.88651c0,0 17.25079,1.38559 23.17176,8.67294c4.22587,5.20105 2.82824,23.32705 2.82824,23.32705z" data-paper-data="{&quot;index&quot;:null,&quot;origPos&quot;:null}"/></g><g data-paper-data="{&quot;origPos&quot;:null,&quot;index&quot;:null,&quot;origRot&quot;:0}" fill="#9dc78d" stroke="none" stroke-width="0" stroke-linecap="butt" stroke-linejoin="miter"><path d="M243.35046,-47.40764c0,0 -12.60181,-11.86187 -12.67039,-21.25116c-0.04895,-6.70123 12.36924,-19.9788 12.36924,-19.9788z"/><path d="M242.87639,-88.77604c0,0 12.60181,11.86187 12.67039,21.25116c0.04895,6.70123 -12.36924,19.9788 -12.36924,19.9788z" data-paper-data="{&quot;index&quot;:null,&quot;origPos&quot;:null}"/></g><g data-paper-data="{&quot;origPos&quot;:null,&quot;origRot&quot;:0,&quot;index&quot;:null}" stroke="none" stroke-width="0" stroke-linecap="butt" stroke-linejoin="miter"><path d="M275.82651,-42.37255c0,0 4.00342,-16.83693 12.10941,-21.57575c5.78533,-3.38215 23.48537,0.7668 23.48537,0.7668z" fill="#8eb480"/><path d="M311.45509,-63.40044c0,0 -4.00342,16.83693 -12.10941,21.57575c-5.78532,3.38215 -23.48536,-0.7668 -23.48536,-0.7668z" data-paper-data="{&quot;index&quot;:null,&quot;origPos&quot;:null}" fill="#9dc78d"/></g><g data-paper-data="{&quot;origPos&quot;:null,&quot;index&quot;:null,&quot;origRot&quot;:0}" stroke="none" stroke-width="0" stroke-linecap="butt" stroke-linejoin="miter"><path d="M299.78459,-107.86586c0,0 12.60181,11.86187 12.67039,21.25116c0.04895,6.70123 -12.36924,19.9788 -12.36924,19.9788z" fill="#8eb480"/><path d="M300.25865,-66.49745c0,0 -12.60181,-11.86187 -12.67039,-21.25116c-0.04895,-6.70123 12.36924,-19.9788 12.36924,-19.9788z" data-paper-data="{&quot;index&quot;:null,&quot;origPos&quot;:null}" fill="#9dc78d"/></g><g data-paper-data="{&quot;origPos&quot;:null,&quot;index&quot;:null}" stroke="none" stroke-width="0" stroke-linecap="butt" stroke-linejoin="miter"><path d="M295.38345,-82.88652c0,0 1.39763,18.126 -2.82824,23.32706c-5.92097,7.28735 -23.17176,8.67294 -23.17176,8.67294z" fill="#8eb480"/><path d="M269.60499,-50.88652c0,0 -1.39763,-18.126 2.82824,-23.32705c5.92097,-7.28735 23.17176,-8.67294 23.17176,-8.67294z" data-paper-data="{&quot;index&quot;:null,&quot;origPos&quot;:null}" fill="#9dc78d"/></g><g data-paper-data="{&quot;origPos&quot;:null,&quot;index&quot;:null,&quot;origRot&quot;:0}" stroke="none" stroke-width="0" stroke-linecap="butt" stroke-linejoin="miter"><path d="M306.08574,-92.6376c0,0 12.41819,13.27757 12.36924,19.9788c-0.06858,9.38929 -12.67039,21.25116 -12.67039,21.25116z" fill="#8eb480"/><path d="M305.95752,-51.54608c0,0 -12.41819,-13.27757 -12.36924,-19.9788c0.06858,-9.38929 12.67039,-21.25116 12.67039,-21.25116z" data-paper-data="{&quot;index&quot;:null,&quot;origPos&quot;:null}" fill="#9dc78d"/></g><g data-paper-data="{&quot;origPos&quot;:null,&quot;origRot&quot;:0,&quot;index&quot;:null}" fill="#8db27e" stroke="none" stroke-width="0" stroke-linecap="butt" stroke-linejoin="miter"><path d="M221.71376,-63.1815c0,0 17.70004,-4.14895 23.48537,-0.7668c8.10599,4.73882 12.10941,21.57575 12.10941,21.57575z"/><path d="M257.27468,-42.5915c0,0 -17.70004,4.14895 -23.48536,0.7668c-8.10599,-4.73882 -12.10941,-21.57575 -12.10941,-21.57575z" data-paper-data="{&quot;index&quot;:null,&quot;origPos&quot;:null}"/></g><g data-paper-data="{&quot;origPos&quot;:null,&quot;index&quot;:null,&quot;origRot&quot;:0}" fill="#9dc78d" stroke="none" stroke-width="0" stroke-linecap="butt" stroke-linejoin="miter"><path d="M273.35044,-57.49745c0,0 -12.60181,-11.86187 -12.67039,-21.25116c-0.04895,-6.70123 12.36924,-19.9788 12.36924,-19.9788z"/><path d="M272.87636,-98.86586c0,0 12.60181,11.86187 12.67039,21.25116c0.04895,6.70123 -12.36924,19.9788 -12.36924,19.9788z" data-paper-data="{&quot;index&quot;:null,&quot;origPos&quot;:null}"/></g><g data-paper-data="{&quot;origPos&quot;:null,&quot;index&quot;:null}" stroke="none" stroke-width="0" stroke-linecap="butt" stroke-linejoin="miter"><path d="M277.75158,-82.47678c0,0 -1.39763,-18.126 2.82824,-23.32706c5.92097,-7.28735 23.17176,-8.67294 23.17176,-8.67294z" fill="#8eb480"/><path d="M303.53004,-114.47678c0,0 1.39763,18.126 -2.82824,23.32705c-5.92097,7.28735 -23.17176,8.67294 -23.17176,8.67294z" data-paper-data="{&quot;index&quot;:null,&quot;origPos&quot;:null}" fill="#9dc78d"/></g><g data-paper-data="{&quot;origPos&quot;:null,&quot;index&quot;:null,&quot;origRot&quot;:0}" fill="#9dc78d" stroke="none" stroke-width="0" stroke-linecap="butt" stroke-linejoin="miter"><path d="M267.04929,-72.7257c0,0 -12.41819,-13.27757 -12.36924,-19.9788c0.06858,-9.38929 12.67039,-21.25116 12.67039,-21.25116z"/><path d="M267.17753,-113.81722c0,0 12.41819,13.27757 12.36924,19.9788c-0.06858,9.38929 -12.67039,21.25116 -12.67039,21.25116z" data-paper-data="{&quot;index&quot;:null,&quot;origPos&quot;:null}"/></g><g data-paper-data="{&quot;origPos&quot;:null,&quot;origRot&quot;:0,&quot;index&quot;:null}" stroke="none" stroke-width="0" stroke-linecap="butt" stroke-linejoin="miter"><path d="M335.42127,-98.1818c0,0 -17.70004,4.14895 -23.48537,0.7668c-8.10599,-4.73882 -12.10941,-21.57575 -12.10941,-21.57575z" fill="#8eb480"/><path d="M299.86035,-118.77181c0,0 17.70004,-4.14895 23.48536,-0.7668c8.10599,4.73882 12.10941,21.57575 12.10941,21.57575z" data-paper-data="{&quot;index&quot;:null,&quot;origPos&quot;:null}" fill="#9dc78d"/></g><g data-paper-data="{&quot;origPos&quot;:null,&quot;index&quot;:null,&quot;origRot&quot;:0}" stroke="none" stroke-width="0" stroke-linecap="butt" stroke-linejoin="miter"><path d="M324.08574,-94.72741c0,0 12.41819,13.27757 12.36924,19.9788c-0.06858,9.38929 -12.67039,21.25116 -12.67039,21.25116z" fill="#8eb480"/><path d="M323.95752,-53.63589c0,0 -12.41819,-13.27757 -12.36924,-19.9788c0.06858,-9.38929 12.67039,-21.25116 12.67039,-21.25116z" data-paper-data="{&quot;index&quot;:null,&quot;origPos&quot;:null}" fill="#9dc78d"/></g><g data-paper-data="{&quot;origPos&quot;:null,&quot;index&quot;:null}" stroke="none" stroke-width="0" stroke-linecap="butt" stroke-linejoin="miter"><path d="M293.38345,-110.47678c0,0 17.25079,1.38559 23.17176,8.67294c4.22587,5.20106 2.82824,23.32706 2.82824,23.32706z" fill="#8eb480"/><path d="M319.60497,-78.47679c0,0 -17.25079,-1.38559 -23.17176,-8.67294c-4.22587,-5.20105 -2.82824,-23.32705 -2.82824,-23.32705z" data-paper-data="{&quot;index&quot;:null,&quot;origPos&quot;:null}" fill="#9dc78d"/></g><g data-paper-data="{&quot;origPos&quot;:null,&quot;index&quot;:null,&quot;origRot&quot;:0}" stroke="none" stroke-width="0" stroke-linecap="butt" stroke-linejoin="miter"><path d="M329.78459,-109.95567c0,0 12.60181,11.86187 12.67039,21.25116c0.04895,6.70123 -12.36924,19.9788 -12.36924,19.9788z" fill="#8eb480"/><path d="M330.25865,-68.58726c0,0 -12.60181,-11.86187 -12.67039,-21.25116c-0.04895,-6.70123 12.36924,-19.9788 12.36924,-19.9788z" data-paper-data="{&quot;index&quot;:null,&quot;origPos&quot;:null}" fill="#9dc78d"/></g><g data-paper-data="{&quot;origPos&quot;:null,&quot;origRot&quot;:0,&quot;index&quot;:null}" stroke="none" stroke-width="0" stroke-linecap="butt" stroke-linejoin="miter"><path d="M297.30852,-114.99075c0,0 -4.00342,16.83693 -12.10941,21.57575c-5.78533,3.38215 -23.48537,-0.7668 -23.48537,-0.7668z" fill="#8eb480"/><path d="M261.67992,-93.96286c0,0 4.00342,-16.83693 12.10941,-21.57575c5.78532,-3.38215 23.48536,0.7668 23.48536,0.7668z" data-paper-data="{&quot;index&quot;:null,&quot;origPos&quot;:null}" fill="#9dc78d"/></g><g data-paper-data="{&quot;origPos&quot;:null,&quot;index&quot;:null}" stroke="none" stroke-width="0" stroke-linecap="butt" stroke-linejoin="miter"><path d="M335.38347,-70.97633c0,0 1.39763,18.126 -2.82824,23.32706c-5.92097,7.28735 -23.17176,8.67294 -23.17176,8.67294z" fill="#8eb480"/><path d="M309.60497,-38.97633c0,0 -1.39763,-18.126 2.82824,-23.32705c5.92097,-7.28735 23.17176,-8.67294 23.17176,-8.67294z" data-paper-data="{&quot;index&quot;:null,&quot;origPos&quot;:null}" fill="#9dc78d"/></g><g data-paper-data="{&quot;origPos&quot;:null,&quot;index&quot;:null,&quot;origRot&quot;:0}" stroke="none" stroke-width="0" stroke-linecap="butt" stroke-linejoin="miter"><path d="M346.08576,-80.72741c0,0 12.41819,13.27757 12.36924,19.9788c-0.06858,9.38929 -12.67039,21.25116 -12.67039,21.25116z" fill="#8eb480"/><path d="M345.95754,-39.63589c0,0 -12.41819,-13.27757 -12.36924,-19.9788c0.06858,-9.38929 12.67039,-21.25116 12.67039,-21.25116z" data-paper-data="{&quot;index&quot;:null,&quot;origPos&quot;:null}" fill="#9dc78d"/></g><g data-paper-data="{&quot;origPos&quot;:null,&quot;origRot&quot;:0,&quot;index&quot;:null}" stroke="none" stroke-width="0" stroke-linecap="butt" stroke-linejoin="miter"><path d="M277.71371,-55.27131c0,0 17.70004,-4.14895 23.48537,-0.7668c8.10599,4.73882 12.10941,21.57575 12.10941,21.57575z" fill="#8eb480"/><path d="M313.27468,-34.68131c0,0 -17.70004,4.14895 -23.48536,0.7668c-8.10599,-4.73882 -12.10941,-21.57575 -12.10941,-21.57575z" data-paper-data="{&quot;index&quot;:null,&quot;origPos&quot;:null}" fill="#9dc78d"/></g><g data-paper-data="{&quot;origPos&quot;:null,&quot;index&quot;:null}" stroke="none" stroke-width="0" stroke-linecap="butt" stroke-linejoin="miter"><path d="M319.75158,-42.97633c0,0 -17.25079,-1.38559 -23.17176,-8.67294c-4.22587,-5.20106 -2.82824,-23.32706 -2.82824,-23.32706z" fill="#8eb480"/><path d="M293.53004,-74.97632c0,0 17.25079,1.38559 23.17176,8.67294c4.22587,5.20105 2.82824,23.32705 2.82824,23.32705z" data-paper-data="{&quot;index&quot;:null,&quot;origPos&quot;:null}" fill="#9dc78d"/></g><g data-paper-data="{&quot;origPos&quot;:null,&quot;index&quot;:null,&quot;origRot&quot;:0}" stroke="none" stroke-width="0" stroke-linecap="butt" stroke-linejoin="miter"><path d="M283.35044,-43.49745c0,0 -12.60181,-11.86187 -12.67039,-21.25116c-0.04895,-6.70123 12.36924,-19.9788 12.36924,-19.9788z" fill="#8eb480"/><path d="M282.87636,-84.86585c0,0 12.60181,11.86187 12.67039,21.25116c0.04895,6.70123 -12.36924,19.9788 -12.36924,19.9788z" data-paper-data="{&quot;index&quot;:null,&quot;origPos&quot;:null}" fill="#9dc78d"/></g><g data-paper-data="{&quot;origPos&quot;:null,&quot;origRot&quot;:0,&quot;index&quot;:null}" stroke="none" stroke-width="0" stroke-linecap="butt" stroke-linejoin="miter"><path d="M315.82651,-38.46236c0,0 4.00342,-16.83693 12.10941,-21.57575c5.78533,-3.38215 23.48537,0.7668 23.48537,0.7668z" fill="#8eb480"/><path d="M351.45513,-59.49025c0,0 -4.00342,16.83693 -12.10941,21.57575c-5.78532,3.38215 -23.48536,-0.7668 -23.48536,-0.7668z" data-paper-data="{&quot;index&quot;:null,&quot;origPos&quot;:null}" fill="#9dc78d"/></g><g data-paper-data="{&quot;origPos&quot;:null,&quot;index&quot;:null,&quot;origRot&quot;:0}" fill="#9dc78d" stroke="none" stroke-width="0" stroke-linecap="butt" stroke-linejoin="miter"><path d="M349.08576,-41.81722c0,0 12.41819,13.27757 12.36924,19.9788c-0.06858,9.38929 -12.67039,21.25116 -12.67039,21.25116z"/><path d="M348.95754,-0.7257c0,0 -12.41819,-13.27757 -12.36924,-19.9788c0.06858,-9.38929 12.67039,-21.25116 12.67039,-21.25116z" data-paper-data="{&quot;index&quot;:null,&quot;origPos&quot;:null}"/></g><g data-paper-data="{&quot;origPos&quot;:null,&quot;index&quot;:null}" stroke="none" stroke-width="0" stroke-linecap="butt" stroke-linejoin="miter"><path d="M318.38347,-57.56659c0,0 17.25079,1.38559 23.17176,8.67294c4.22587,5.20106 2.82824,23.32706 2.82824,23.32706z" fill="#8eb480"/><path d="M344.60497,-25.56661c0,0 -17.25079,-1.38559 -23.17176,-8.67294c-4.22587,-5.20105 -2.82824,-23.32705 -2.82824,-23.32705z" data-paper-data="{&quot;index&quot;:null,&quot;origPos&quot;:null}" fill="#9dc78d"/></g><g data-paper-data="{&quot;origPos&quot;:null,&quot;index&quot;:null,&quot;origRot&quot;:0}" fill="#9dc78d" stroke="none" stroke-width="0" stroke-linecap="butt" stroke-linejoin="miter"><path d="M354.78459,-57.04547c0,0 12.60181,11.86187 12.67039,21.25116c0.04895,6.70123 -12.36924,19.9788 -12.36924,19.9788z"/><path d="M355.25867,-15.67707c0,0 -12.60181,-11.86187 -12.67039,-21.25116c-0.04895,-6.70123 12.36924,-19.9788 12.36924,-19.9788z" data-paper-data="{&quot;index&quot;:null,&quot;origPos&quot;:null}"/></g><g data-paper-data="{&quot;origPos&quot;:null,&quot;origRot&quot;:0,&quot;index&quot;:null}" stroke="none" stroke-width="0" stroke-linecap="butt" stroke-linejoin="miter"><path d="M322.30852,-62.08056c0,0 -4.00342,16.83693 -12.10941,21.57575c-5.78533,3.38215 -23.48537,-0.7668 -23.48537,-0.7668z" fill="#8eb480"/><path d="M286.67992,-41.05267c0,0 4.00342,-16.83693 12.10941,-21.57575c5.78532,-3.38215 23.48536,0.7668 23.48536,0.7668z" data-paper-data="{&quot;index&quot;:null,&quot;origPos&quot;:null}" fill="#9dc78d"/></g><g data-paper-data="{&quot;origPos&quot;:null,&quot;index&quot;:null,&quot;origRot&quot;:0}" stroke="none" stroke-width="0" stroke-linecap="butt" stroke-linejoin="miter"><path d="M298.35044,3.41274c0,0 -12.60181,-11.86187 -12.67039,-21.25116c-0.04895,-6.70123 12.36924,-19.9788 12.36924,-19.9788z" fill="#8eb480"/><path d="M297.87636,-37.95566c0,0 12.60181,11.86187 12.67039,21.25116c0.04895,6.70123 -12.36924,19.9788 -12.36924,19.9788z" data-paper-data="{&quot;index&quot;:null,&quot;origPos&quot;:null}" fill="#9dc78d"/></g><g data-paper-data="{&quot;origPos&quot;:null,&quot;index&quot;:null}" stroke="none" stroke-width="0" stroke-linecap="butt" stroke-linejoin="miter"><path d="M302.75158,-21.56659c0,0 -1.39763,-18.126 2.82824,-23.32706c5.92097,-7.28735 23.17176,-8.67294 23.17176,-8.67294z" fill="#8eb480"/><path d="M328.53004,-53.56659c0,0 1.39763,18.126 -2.82824,23.32705c-5.92097,7.28735 -23.17176,8.67294 -23.17176,8.67294z" data-paper-data="{&quot;index&quot;:null,&quot;origPos&quot;:null}" fill="#9dc78d"/></g><g data-paper-data="{&quot;origPos&quot;:null,&quot;index&quot;:null,&quot;origRot&quot;:0}" stroke="none" stroke-width="0" stroke-linecap="butt" stroke-linejoin="miter"><path d="M292.04929,-11.81551c0,0 -12.41819,-13.27757 -12.36924,-19.9788c0.06858,-9.38929 12.67039,-21.25116 12.67039,-21.25116z" fill="#8eb480"/><path d="M292.17751,-52.90703c0,0 12.41819,13.27757 12.36924,19.9788c-0.06858,9.38929 -12.67039,21.25116 -12.67039,21.25116z" data-paper-data="{&quot;index&quot;:null,&quot;origPos&quot;:null}" fill="#9dc78d"/></g><g data-paper-data="{&quot;origPos&quot;:null,&quot;origRot&quot;:0,&quot;index&quot;:null}" stroke="none" stroke-width="0" stroke-linecap="butt" stroke-linejoin="miter"><path d="M360.42132,-37.27162c0,0 -17.70004,4.14895 -23.48537,0.7668c-8.10599,-4.73882 -12.10941,-21.57575 -12.10941,-21.57575z" fill="#8eb480"/><path d="M324.86035,-57.86162c0,0 17.70004,-4.14895 23.48536,-0.7668c8.10599,4.73882 12.10941,21.57575 12.10941,21.57575z" data-paper-data="{&quot;index&quot;:null,&quot;origPos&quot;:null}" fill="#9dc78d"/></g><g data-paper-data="{&quot;origPos&quot;:null,&quot;index&quot;:null,&quot;origRot&quot;:0}" stroke="none" stroke-width="0" stroke-linecap="butt" stroke-linejoin="miter"><path d="M324.78459,-46.95566c0,0 12.60181,11.86187 12.67039,21.25116c0.04895,6.70123 -12.36924,19.9788 -12.36924,19.9788z" fill="#8eb480"/><path d="M325.25865,-5.58726c0,0 -12.60181,-11.86187 -12.67039,-21.25116c-0.04895,-6.70123 12.36924,-19.9788 12.36924,-19.9788z" data-paper-data="{&quot;index&quot;:null,&quot;origPos&quot;:null}" fill="#9dc78d"/></g><g data-paper-data="{&quot;origPos&quot;:null,&quot;index&quot;:null}" stroke="none" stroke-width="0" stroke-linecap="butt" stroke-linejoin="miter"><path d="M320.38347,-21.97633c0,0 1.39763,18.126 -2.82824,23.32706c-5.92097,7.28735 -23.17176,8.67294 -23.17176,8.67294z" fill="#8eb480"/><path d="M294.60497,10.02367c0,0 -1.39763,-18.126 2.82824,-23.32705c5.92097,-7.28735 23.17176,-8.67294 23.17176,-8.67294z" data-paper-data="{&quot;index&quot;:null,&quot;origPos&quot;:null}" fill="#9dc78d"/></g><g data-paper-data="{&quot;origPos&quot;:null,&quot;index&quot;:null,&quot;origRot&quot;:0}" fill="#9dc78d" stroke="none" stroke-width="0" stroke-linecap="butt" stroke-linejoin="miter"><path d="M331.08574,-31.72741c0,0 12.41819,13.27757 12.36924,19.9788c-0.06858,9.38929 -12.67039,21.25116 -12.67039,21.25116z"/><path d="M330.95752,9.36411c0,0 -12.41819,-13.27757 -12.36924,-19.9788c0.06858,-9.38929 12.67039,-21.25116 12.67039,-21.25116z" data-paper-data="{&quot;index&quot;:null,&quot;origPos&quot;:null}"/></g><g data-paper-data="{&quot;origPos&quot;:null,&quot;origRot&quot;:0,&quot;index&quot;:null}" fill="#8db27e" stroke="none" stroke-width="0" stroke-linecap="butt" stroke-linejoin="miter"><path d="M262.71371,-6.27131c0,0 17.70004,-4.14895 23.48537,-0.7668c8.10599,4.73882 12.10941,21.57575 12.10941,21.57575z"/><path d="M298.27468,14.3187c0,0 -17.70004,4.14895 -23.48536,0.7668c-8.10599,-4.73882 -12.10941,-21.57575 -12.10941,-21.57575z" data-paper-data="{&quot;index&quot;:null,&quot;origPos&quot;:null}"/></g><g data-paper-data="{&quot;origPos&quot;:null,&quot;index&quot;:null,&quot;origRot&quot;:0}" fill="#9dc78d" stroke="none" stroke-width="0" stroke-linecap="butt" stroke-linejoin="miter"><path d="M274.04929,-9.7257c0,0 -12.41819,-13.27757 -12.36924,-19.9788c0.06858,-9.38929 12.67039,-21.25116 12.67039,-21.25116z"/><path d="M274.17751,-50.81722c0,0 12.41819,13.27757 12.36924,19.9788c-0.06858,9.38929 -12.67039,21.25116 -12.67039,21.25116z" data-paper-data="{&quot;index&quot;:null,&quot;origPos&quot;:null}"/></g><g data-paper-data="{&quot;origPos&quot;:null,&quot;index&quot;:null}" fill="#8db27e" stroke="none" stroke-width="0" stroke-linecap="butt" stroke-linejoin="miter"><path d="M304.75158,6.02367c0,0 -17.25079,-1.38559 -23.17176,-8.67294c-4.22587,-5.20106 -2.82824,-23.32706 -2.82824,-23.32706z"/><path d="M278.53004,-25.97632c0,0 17.25079,1.38559 23.17176,8.67294c4.22587,5.20105 2.82824,23.32705 2.82824,23.32705z" data-paper-data="{&quot;index&quot;:null,&quot;origPos&quot;:null}"/></g><g data-paper-data="{&quot;origPos&quot;:null,&quot;index&quot;:null,&quot;origRot&quot;:0}" fill="#8db27e" stroke="none" stroke-width="0" stroke-linecap="butt" stroke-linejoin="miter"><path d="M262.35044,7.50255c0,0 -12.60181,-11.86187 -12.67039,-21.25116c-0.04895,-6.70123 12.36924,-19.9788 12.36924,-19.9788z"/><path d="M261.87638,-33.86585c0,0 12.60181,11.86187 12.67039,21.25116c0.04895,6.70123 -12.36924,19.9788 -12.36924,19.9788z" data-paper-data="{&quot;index&quot;:null,&quot;origPos&quot;:null}"/></g><g data-paper-data="{&quot;origPos&quot;:null,&quot;origRot&quot;:0,&quot;index&quot;:null}" fill="#9dc78d" stroke="none" stroke-width="0" stroke-linecap="butt" stroke-linejoin="miter"><path d="M300.82651,10.53764c0,0 4.00342,-16.83693 12.10941,-21.57575c5.78533,-3.38215 23.48537,0.7668 23.48537,0.7668z"/><path d="M336.45513,-10.49025c0,0 -4.00342,16.83693 -12.10941,21.57575c-5.78532,3.38215 -23.48536,-0.7668 -23.48536,-0.7668z" data-paper-data="{&quot;index&quot;:null,&quot;origPos&quot;:null}"/></g><g data-paper-data="{&quot;origPos&quot;:null,&quot;index&quot;:null,&quot;origRot&quot;:0}" stroke="none" stroke-width="0" stroke-linecap="butt" stroke-linejoin="miter"><path d="M326.22337,-77.96354c0,0 -15.77684,-7.11343 -18.89822,-15.96896c-2.22777,-6.32028 5.1917,-22.91717 5.1917,-22.91717z" fill="#8eb480"/><path d="M312.30825,-116.92425c0,0 15.77685,7.11344 18.89823,15.96896c2.22778,6.32028 -5.19169,22.91716 -5.19169,22.91716z" data-paper-data="{&quot;index&quot;:null,&quot;origPos&quot;:null}" fill="#9dc78d"/></g><g data-paper-data="{&quot;origPos&quot;:null,&quot;index&quot;:null,&quot;origRot&quot;:0}" fill="#9dc78d" stroke="none" stroke-width="0" stroke-linecap="butt" stroke-linejoin="miter"><path d="M292.12343,-90.71135c0,0 -7.87172,-15.41251 -4.7747,-24.27659c2.21037,-6.32639 18.37425,-14.64709 18.37425,-14.64709z"/><path d="M305.60677,-129.82361c0,0 7.87173,15.41251 4.77471,24.27659c-2.21038,6.32638 -18.37426,14.64708 -18.37426,14.64708z" data-paper-data="{&quot;index&quot;:null,&quot;origPos&quot;:null}"/></g><g data-paper-data="{&quot;origPos&quot;:null,&quot;origRot&quot;:0,&quot;index&quot;:null}" stroke="none" stroke-width="0" stroke-linecap="butt" stroke-linejoin="miter"><path d="M321.00757,-75.03482c0,0 9.43903,-14.50567 18.66733,-16.23828c6.58634,-1.23658 21.85571,8.63011 21.85571,8.63011z" fill="#8eb480"/><path d="M361.63621,-82.83775c0,0 -9.43904,14.50566 -18.66734,16.23827c-6.58633,1.23659 -21.85569,-8.63011 -21.85569,-8.63011z" data-paper-data="{&quot;index&quot;:null,&quot;origPos&quot;:null}" fill="#9dc78d"/></g><g data-paper-data="{&quot;origPos&quot;:null,&quot;index&quot;:null,&quot;origRot&quot;:0}" stroke="none" stroke-width="0" stroke-linecap="butt" stroke-linejoin="miter"><path d="M353.06449,-106.59763c0,0 -4.78745,17.53812 -10.51786,21.0125c-8.02903,4.86806 -24.739,0.36398 -24.739,0.36398z" fill="#8eb480"/><path d="M318.01622,-85.14655c0,0 4.78744,-17.53812 10.51785,-21.0125c8.02903,-4.86805 24.739,-0.36398 24.739,-0.36398z" data-paper-data="{&quot;index&quot;:null,&quot;origPos&quot;:null}" fill="#9dc78d"/></g><g data-paper-data="{&quot;origPos&quot;:null,&quot;index&quot;:null,&quot;origRot&quot;:0}" fill="#9dc78d" stroke="none" stroke-width="0" stroke-linecap="butt" stroke-linejoin="miter"><path d="M358.42525,-106.17556c0,0 7.22213,16.6837 4.91958,22.97712c-3.22618,8.81789 -19.08626,15.74374 -19.08626,15.74374z"/><path d="M344.46802,-67.52683c0,0 -7.22213,-16.6837 -4.91958,-22.97712c3.22617,-8.81789 19.08625,-15.74374 19.08625,-15.74374z" data-paper-data="{&quot;index&quot;:null,&quot;origPos&quot;:null}"/></g><g data-paper-data="{&quot;origPos&quot;:null,&quot;origRot&quot;:0,&quot;index&quot;:null}" stroke="none" stroke-width="0" stroke-linecap="butt" stroke-linejoin="miter"><path d="M293.47425,-111.2285c0,0 18.06347,2.05335 22.3721,7.18606c6.03696,7.19157 4.1372,24.39333 4.1372,24.39333z" fill="#8eb480"/><path d="M320.0254,-79.86666c0,0 -18.06346,-2.05336 -22.37209,-7.18606c-6.03695,-7.19157 -4.13719,-24.39333 -4.13719,-24.39333z" data-paper-data="{&quot;index&quot;:null,&quot;origPos&quot;:null}" fill="#9dc78d"/></g><g data-paper-data="{&quot;origPos&quot;:null,&quot;index&quot;:null,&quot;origRot&quot;:0}" fill="#9dc78d" stroke="none" stroke-width="0" stroke-linecap="butt" stroke-linejoin="miter"><path d="M276.19667,-55.08355c0,0 -7.87173,-15.41251 -4.77471,-24.27659c2.21038,-6.32639 18.37426,-14.64709 18.37426,-14.64709z"/><path d="M289.67999,-94.19583c0,0 7.87173,15.41251 4.77471,24.27659c-2.21038,6.32639 -18.37426,14.64709 -18.37426,14.64709z" data-paper-data="{&quot;index&quot;:null,&quot;origPos&quot;:null}"/></g><g data-paper-data="{&quot;origPos&quot;:null,&quot;index&quot;:null,&quot;origRot&quot;:0}" stroke="none" stroke-width="0" stroke-linecap="butt" stroke-linejoin="miter"><path d="M288.7519,-77.12221c0,0 4.78745,-17.53813 10.51786,-21.01251c8.02902,-4.86805 24.73899,-0.36398 24.73899,-0.36398z" fill="#8eb480"/><path d="M323.80017,-98.57329c0,0 -4.78744,17.53811 -10.51785,21.01249c-8.02902,4.86806 -24.73899,0.36398 -24.73899,0.36398z" data-paper-data="{&quot;index&quot;:null,&quot;origPos&quot;:null}" fill="#9dc78d"/></g><g data-paper-data="{&quot;origPos&quot;:null,&quot;index&quot;:null,&quot;origRot&quot;:0}" fill="#9dc78d" stroke="none" stroke-width="0" stroke-linecap="butt" stroke-linejoin="miter"><path d="M275.39117,-71.54427c0,0 -7.22213,-16.68371 -4.91958,-22.97713c3.22617,-8.8179 19.08626,-15.74374 19.08626,-15.74374z"/><path d="M289.34837,-110.19302c0,0 7.22213,16.6837 4.91958,22.97712c-3.22617,8.8179 -19.08625,15.74374 -19.08625,15.74374z" data-paper-data="{&quot;index&quot;:null,&quot;origPos&quot;:null}"/></g><g data-paper-data="{&quot;origPos&quot;:null,&quot;origRot&quot;:0,&quot;index&quot;:null}" fill="#9dc78d" stroke="none" stroke-width="0" stroke-linecap="butt" stroke-linejoin="miter"><path d="M348.34216,-72.49134c0,0 -18.06347,-2.05336 -22.3721,-7.18607c-6.03695,-7.19157 -4.13719,-24.39333 -4.13719,-24.39333z"/><path d="M321.79098,-103.85319c0,0 18.06347,2.05336 22.3721,7.18606c6.03695,7.19157 4.13719,24.39333 4.13719,24.39333z" data-paper-data="{&quot;index&quot;:null,&quot;origPos&quot;:null}"/></g><g data-paper-data="{&quot;origPos&quot;:null,&quot;index&quot;:null,&quot;origRot&quot;:0}" stroke="none" stroke-width="0" stroke-linecap="butt" stroke-linejoin="miter"><path d="M336.50538,-73.05563c0,0 7.22213,16.6837 4.91958,22.97712c-3.22617,8.8179 -19.08625,15.74374 -19.08625,15.74374z" fill="#8eb480"/><path d="M322.54814,-34.40689c0,0 -7.22213,-16.68371 -4.91958,-22.97713c3.22617,-8.8179 19.08626,-15.74374 19.08626,-15.74374z" data-paper-data="{&quot;index&quot;:null,&quot;origPos&quot;:null}" fill="#9dc78d"/></g><g data-paper-data="{&quot;origPos&quot;:null,&quot;index&quot;:null,&quot;origRot&quot;:0}" fill="#9dc78d" stroke="none" stroke-width="0" stroke-linecap="butt" stroke-linejoin="miter"><path d="M312.89919,-98.22348c0,0 15.77684,7.11343 18.89822,15.96895c2.22777,6.32028 -5.1917,22.91717 -5.1917,22.91717z"/><path d="M326.81431,-59.26278c0,0 -15.77684,-7.11342 -18.89822,-15.96895c-2.22778,-6.32028 5.19169,-22.91717 5.19169,-22.91717z" data-paper-data="{&quot;index&quot;:null,&quot;origPos&quot;:null}"/></g><g data-paper-data="{&quot;origPos&quot;:null,&quot;index&quot;:null,&quot;origRot&quot;:0}" fill="#9dc78d" stroke="none" stroke-width="0" stroke-linecap="butt" stroke-linejoin="miter"><path d="M346.99918,-85.47566c0,0 7.87172,15.41251 4.7747,24.27659c-2.21038,6.32638 -18.37426,14.64708 -18.37426,14.64708z"/><path d="M333.51581,-46.3634c0,0 -7.87173,-15.41251 -4.77471,-24.27659c2.21038,-6.32639 18.37426,-14.64709 18.37426,-14.64709z" data-paper-data="{&quot;index&quot;:null,&quot;origPos&quot;:null}"/></g><g data-paper-data="{&quot;origPos&quot;:null,&quot;origRot&quot;:0,&quot;index&quot;:null}" fill="#9dc78d" stroke="none" stroke-width="0" stroke-linecap="butt" stroke-linejoin="miter"><path d="M318.11501,-101.1522c0,0 -9.43903,14.50567 -18.66733,16.23828c-6.58633,1.23659 -21.8557,-8.63011 -21.8557,-8.63011z"/><path d="M277.48641,-93.34926c0,0 9.43903,-14.50566 18.66733,-16.23827c6.58633,-1.23659 21.8557,8.6301 21.8557,8.6301z" data-paper-data="{&quot;index&quot;:null,&quot;origPos&quot;:null}"/></g><g data-paper-data="{&quot;origPos&quot;:null,&quot;index&quot;:null,&quot;origRot&quot;:0}" fill="#9dc78d" stroke="none" stroke-width="0" stroke-linecap="butt" stroke-linejoin="miter"><path d="M300.24181,-51.94196c0,0 -7.22213,-16.68371 -4.91958,-22.97713c3.22617,-8.81789 19.08625,-15.74374 19.08625,-15.74374z"/><path d="M314.19901,-90.5907c0,0 7.22212,16.6837 4.91957,22.97712c-3.22617,8.81789 -19.08625,15.74374 -19.08625,15.74374z" data-paper-data="{&quot;index&quot;:null,&quot;origPos&quot;:null}"/></g><g data-paper-data="{&quot;origPos&quot;:null,&quot;index&quot;:null,&quot;origRot&quot;:0}" stroke="none" stroke-width="0" stroke-linecap="butt" stroke-linejoin="miter"><path d="M323.84799,-26.7741c0,0 -15.77684,-7.11343 -18.89822,-15.96896c-2.22777,-6.32029 5.1917,-22.91718 5.1917,-22.91718z" fill="#8eb480"/><path d="M309.93287,-65.73482c0,0 15.77684,7.11343 18.89822,15.96895c2.22778,6.32028 -5.19169,22.91717 -5.19169,22.91717z" data-paper-data="{&quot;index&quot;:null,&quot;origPos&quot;:null}" fill="#9dc78d"/></g><g data-paper-data="{&quot;origPos&quot;:null,&quot;index&quot;:null,&quot;origRot&quot;:0}" fill="#9dc78d" stroke="none" stroke-width="0" stroke-linecap="butt" stroke-linejoin="miter"><path d="M289.748,-39.52192c0,0 -7.87173,-15.41251 -4.77471,-24.27659c2.21038,-6.32639 18.37426,-14.64709 18.37426,-14.64709z"/><path d="M303.23134,-78.6342c0,0 7.87173,15.41251 4.77471,24.27659c-2.21038,6.32639 -18.37426,14.64709 -18.37426,14.64709z" data-paper-data="{&quot;index&quot;:null,&quot;origPos&quot;:null}"/></g><g data-paper-data="{&quot;origPos&quot;:null,&quot;origRot&quot;:0,&quot;index&quot;:null}" fill="#9dc78d" stroke="none" stroke-width="0" stroke-linecap="butt" stroke-linejoin="miter"><path d="M318.63214,-23.8454c0,0 9.43903,-14.50566 18.66733,-16.23827c6.58634,-1.23659 21.85571,8.6301 21.85571,8.6301z"/><path d="M359.2608,-31.64833c0,0 -9.43903,14.50566 -18.66733,16.23827c-6.58633,1.23659 -21.8557,-8.63011 -21.8557,-8.63011z" data-paper-data="{&quot;index&quot;:null,&quot;origPos&quot;:null}"/></g><g data-paper-data="{&quot;origPos&quot;:null,&quot;index&quot;:null,&quot;origRot&quot;:0}" fill="#9dc78d" stroke="none" stroke-width="0" stroke-linecap="butt" stroke-linejoin="miter"><path d="M363.24434,-82.44686c0,0 7.87174,15.4125 4.77471,24.27658c-2.21038,6.32638 -18.37426,14.64709 -18.37426,14.64709z"/><path d="M349.76101,-43.33461c0,0 -7.87173,-15.4125 -4.77471,-24.27658c2.21037,-6.32638 18.37426,-14.64709 18.37426,-14.64709z" data-paper-data="{&quot;index&quot;:null,&quot;origPos&quot;:null}"/></g><g data-paper-data="{&quot;origPos&quot;:null,&quot;index&quot;:null,&quot;origRot&quot;:0}" fill="#9dc78d" stroke="none" stroke-width="0" stroke-linecap="butt" stroke-linejoin="miter"><path d="M350.68907,-55.4082c0,0 -4.78745,17.53812 -10.51786,21.0125c-8.02902,4.86806 -24.73899,0.36398 -24.73899,0.36398z"/><path d="M315.64081,-33.95714c0,0 4.78744,-17.53812 10.51785,-21.01249c8.02902,-4.86805 24.73899,-0.36398 24.73899,-0.36398z" data-paper-data="{&quot;index&quot;:null,&quot;origPos&quot;:null}"/></g><g data-paper-data="{&quot;origPos&quot;:null,&quot;index&quot;:null,&quot;origRot&quot;:0}" fill="#9dc78d" stroke="none" stroke-width="0" stroke-linecap="butt" stroke-linejoin="miter"><path d="M364.0498,-60.98614c0,0 7.22214,16.6837 4.91958,22.97712c-3.22618,8.81789 -19.08626,15.74374 -19.08626,15.74374z"/><path d="M350.09259,-22.3374c0,0 -7.22213,-16.68371 -4.91958,-22.97713c3.22617,-8.8179 19.08625,-15.74374 19.08625,-15.74374z" data-paper-data="{&quot;index&quot;:null,&quot;origPos&quot;:null}"/></g><g data-paper-data="{&quot;origPos&quot;:null,&quot;origRot&quot;:0,&quot;index&quot;:null}" fill="#9dc78d" stroke="none" stroke-width="0" stroke-linecap="butt" stroke-linejoin="miter"><path d="M291.0988,-60.03908c0,0 18.06348,2.05335 22.37211,7.18606c6.03696,7.19157 4.13719,24.39333 4.13719,24.39333z"/><path d="M317.65,-28.67723c0,0 -18.06346,-2.05336 -22.37209,-7.18606c-6.03696,-7.19157 -4.13719,-24.39333 -4.13719,-24.39333z" data-paper-data="{&quot;index&quot;:null,&quot;origPos&quot;:null}"/></g><g data-paper-data="{&quot;origPos&quot;:null,&quot;origRot&quot;:0,&quot;index&quot;:null}" stroke="none" stroke-width="0" stroke-linecap="butt" stroke-linejoin="miter"><path d="M201.00759,112.96518c0,0 9.43903,-14.50567 18.66733,-16.23828c6.58634,-1.23658 21.85571,8.63011 21.85571,8.63011z" fill="#8eb480"/><path d="M241.63619,105.16225c0,0 -9.43904,14.50566 -18.66734,16.23827c-6.58633,1.23659 -21.85569,-8.63011 -21.85569,-8.63011z" data-paper-data="{&quot;index&quot;:null,&quot;origPos&quot;:null}" fill="#9dc78d"/></g><g data-paper-data="{&quot;origPos&quot;:null,&quot;index&quot;:null,&quot;origRot&quot;:0}" stroke="none" stroke-width="0" stroke-linecap="butt" stroke-linejoin="miter"><path d="M180.24182,136.05804c0,0 -7.22213,-16.68371 -4.91958,-22.97713c3.22617,-8.81789 19.08625,-15.74374 19.08625,-15.74374z" fill="#8eb480"/><path d="M194.19903,97.4093c0,0 7.22212,16.6837 4.91957,22.97712c-3.22617,8.81789 -19.08625,15.74374 -19.08625,15.74374z" data-paper-data="{&quot;index&quot;:null,&quot;origPos&quot;:null}" fill="#9dc78d"/></g><g data-paper-data="{&quot;origPos&quot;:null,&quot;index&quot;:null}" stroke="none" stroke-linecap="butt" stroke-linejoin="miter"><path d="M295.39574,133.55696c0,0 -9.04333,-50.76315 23.24325,-43c22.22711,5.3444 18.5946,43 18.5946,43z" data-paper-data="{&quot;origPos&quot;:null}" fill="#ababab" stroke-width="0"/><path d="M300.39574,131.55696c0,0 -9.04333,-50.76315 23.24324,-43c22.2271,5.3444 18.59459,43 18.59459,43z" data-paper-data="{&quot;origPos&quot;:null}" fill="#c0c0c0" stroke-width="0"/><path d="M317.23357,117.55696c-2.76142,0 -5,-2.23858 -5,-5c0,-2.76142 2.23858,-5 5,-5c2.76142,0 5,2.23858 5,5c0,2.76142 -2.23858,5 -5,5z" data-paper-data="{&quot;origPos&quot;:null}" fill="#ababab" stroke-width="0.5"/></g><path d="M120.86884,548.82364v-197h70l-5,81.10474l5,115.89526z" data-paper-data="{&quot;origPos&quot;:null}" fill="#a3a3a3" stroke="none" stroke-width="0" stroke-linecap="butt" stroke-linejoin="miter"/><path d="M109.86884,558.82364v-209h70c0,0 0,33.65138 0,55.18997c0,60.02634 0,153.81003 0,153.81003z" data-paper-data="{&quot;origPos&quot;:null}" fill="#949494" stroke="none" stroke-width="0" stroke-linecap="butt" stroke-linejoin="miter"/><g data-paper-data="{&quot;origPos&quot;:null}" stroke-linejoin="miter"><path d="" data-paper-data="{&quot;origPos&quot;:null}" fill="none" stroke="#adadad" stroke-width="10" stroke-linecap="round"/><path d="" data-paper-data="{&quot;origPos&quot;:null}" fill="none" stroke="#5e5e5e" stroke-width="10" stroke-linecap="round"/><path d="" fill="#929292" stroke="none" stroke-width="0.5" stroke-linecap="butt"/></g><path d="M378,336.46667c0,0 13.97527,-14.33333 21,-14.33333c11.70789,0 27,14.33333 27,14.33333z" data-paper-data="{&quot;origPos&quot;:null}" fill="#adadad" stroke="none" stroke-width="NaN" stroke-linecap="butt" stroke-linejoin="miter"/><path d="M304,333.46667c0,0 13.97527,-14.33333 21,-14.33333c11.70788,0 27,14.33333 27,14.33333z" data-paper-data="{&quot;origPos&quot;:null}" fill="#adadad" stroke="none" stroke-width="NaN" stroke-linecap="butt" stroke-linejoin="miter"/><g data-paper-data="{&quot;origPos&quot;:null,&quot;index&quot;:null}" stroke="none" stroke-linecap="butt" stroke-linejoin="miter"><path d="M340.00893,334.55696c0,0 -6.0429,-33.92074 15.53151,-28.73328c14.85251,3.57121 12.42521,28.73328 12.42521,28.73328z" data-paper-data="{&quot;origPos&quot;:null}" fill="#ababab" stroke-width="0"/><path d="M343.35001,333.22053c0,0 -6.0429,-33.92074 15.5315,-28.73328c14.8525,3.57121 12.4252,28.73328 12.4252,28.73328z" data-paper-data="{&quot;origPos&quot;:null}" fill="#c0c0c0" stroke-width="0"/><path d="M354.60131,323.86551c-1.84522,0 -3.34108,-1.49585 -3.34108,-3.34108c0,-1.84522 1.49585,-3.34108 3.34108,-3.34108c1.84522,0 3.34108,1.49585 3.34108,3.34108c0,1.84522 -1.49585,3.34108 -3.34108,3.34108z" data-paper-data="{&quot;origPos&quot;:null}" fill="#ababab" stroke-width="0.5"/></g><g data-paper-data="{&quot;origPos&quot;:null,&quot;index&quot;:null}" stroke="none" stroke-linecap="butt" stroke-linejoin="miter"><path d="M475.00892,345.55696c0,0 -6.04289,-33.92074 15.53151,-28.73328c14.85251,3.57121 12.42521,28.73328 12.42521,28.73328z" data-paper-data="{&quot;origPos&quot;:null}" fill="#ababab" stroke-width="0"/><path d="M478.35,344.22053c0,0 -6.04289,-33.92074 15.5315,-28.73328c14.8525,3.57121 12.4252,28.73328 12.4252,28.73328z" data-paper-data="{&quot;origPos&quot;:null}" fill="#c0c0c0" stroke-width="0"/><path d="M489.60131,334.86551c-1.84523,0 -3.34108,-1.49585 -3.34108,-3.34107c0,-1.84523 1.49586,-3.34108 3.34108,-3.34108c1.84523,0 3.34108,1.49585 3.34108,3.34108c0,1.84523 -1.49585,3.34107 -3.34108,3.34107z" data-paper-data="{&quot;origPos&quot;:null}" fill="#ababab" stroke-width="0.5"/></g><g data-paper-data="{&quot;origPos&quot;:null}" stroke-linejoin="miter"><path d="M418,345.00001v41" data-paper-data="{&quot;origPos&quot;:null}" fill="none" stroke="#adadad" stroke-width="10" stroke-linecap="round"/><path d="M417.75,378.25001l0.25,7.75" data-paper-data="{&quot;origPos&quot;:null}" fill="none" stroke="#5e5e5e" stroke-width="10" stroke-linecap="round"/><path d="M407,387.00001c0,-5.52284 4.47716,-10 10,-10c5.52285,0 10,4.47716 10,10c0,5.52284 -4.47715,10 -10,10c-5.52284,0 -10,-4.47716 -10,-10z" fill="#929292" stroke="none" stroke-width="0.5" stroke-linecap="butt"/></g><g data-paper-data="{&quot;origPos&quot;:null}" stroke-linejoin="miter"><path d="M453,334.00001v41" data-paper-data="{&quot;origPos&quot;:null}" fill="none" stroke="#adadad" stroke-width="10" stroke-linecap="round"/><path d="M452.75,367.25001l0.25,7.75" data-paper-data="{&quot;origPos&quot;:null}" fill="none" stroke="#5e5e5e" stroke-width="10" stroke-linecap="round"/><path d="M442,376.00001c0,-5.52284 4.47716,-10 10,-10c5.52285,0 10,4.47716 10,10c0,5.52284 -4.47715,10 -10,10c-5.52284,0 -10,-4.47716 -10,-10z" fill="#929292" stroke="none" stroke-width="0.5" stroke-linecap="butt"/></g><g data-paper-data="{&quot;origPos&quot;:null}" stroke-linejoin="miter"><path d="M489,348.00001v41" data-paper-data="{&quot;origPos&quot;:null}" fill="none" stroke="#adadad" stroke-width="10" stroke-linecap="round"/><path d="M489,389.00001l-0.25,-7.75" data-paper-data="{&quot;origPos&quot;:null}" fill="none" stroke="#5e5e5e" stroke-width="10" stroke-linecap="round"/><path d="M478,390.00001c0,-5.52284 4.47716,-10 10,-10c5.52285,0 10,4.47716 10,10c0,5.52284 -4.47715,10 -10,10c-5.52284,0 -10,-4.47716 -10,-10z" fill="#929292" stroke="none" stroke-width="0.5" stroke-linecap="butt"/></g><g data-paper-data="{&quot;origPos&quot;:null}" stroke-linejoin="miter"><path d="M525,374.00001v-41" data-paper-data="{&quot;origPos&quot;:null}" fill="none" stroke="#adadad" stroke-width="10" stroke-linecap="round"/><path d="M525,374.00001l-0.25,-7.75" data-paper-data="{&quot;origPos&quot;:null}" fill="none" stroke="#5e5e5e" stroke-width="10" stroke-linecap="round"/><path d="M514,375.00001c0,-5.52284 4.47716,-10 10,-10c5.52285,0 10,4.47716 10,10c0,5.52284 -4.47715,10 -10,10c-5.52284,0 -10,-4.47716 -10,-10z" fill="#929292" stroke="none" stroke-width="0.5" stroke-linecap="butt"/></g><g data-paper-data="{&quot;origPos&quot;:null}" stroke-linejoin="miter"><path d="M382,332.00001v41" data-paper-data="{&quot;origPos&quot;:null}" fill="none" stroke="#adadad" stroke-width="10" stroke-linecap="round"/><path d="M382,373.00001l-0.25,-7.75" data-paper-data="{&quot;origPos&quot;:null}" fill="none" stroke="#5e5e5e" stroke-width="10" stroke-linecap="round"/><path d="M371,374.00001c0,-5.52284 4.47716,-10 10,-10c5.52285,0 10,4.47716 10,10c0,5.52284 -4.47715,10 -10,10c-5.52284,0 -10,-4.47716 -10,-10z" fill="#929292" stroke="none" stroke-width="0.5" stroke-linecap="butt"/></g><path d="M192.83129,207.91044v138.21775c-1.44153,0.05855 -2.8685,0.15823 -4.27069,0.31606c-11.74131,1.32164 -23.5491,4.45173 -35.20827,6.65578c-9.8326,1.85876 -19.67896,3.31885 -29.52104,4.88068c0,-68.11929 0,-150.07027 0,-150.07027z" data-paper-data="{&quot;origPos&quot;:null,&quot;index&quot;:null}" fill="url(#color-1)" stroke="none" stroke-width="0" stroke-linecap="butt" stroke-linejoin="miter"/><path d="M201.83129,205.31114v140.82962c-4.46058,-0.11789 -8.98155,-0.1793 -13.27069,0.3035c-11.74131,1.32164 -23.5491,4.45173 -35.20827,6.65578c-6.83572,1.29223 -13.67809,2.39177 -20.52104,3.46677v-151.25567z" data-paper-data="{&quot;origPos&quot;:null,&quot;index&quot;:null}" fill="url(#color-2)" stroke="none" stroke-width="0" stroke-linecap="butt" stroke-linejoin="miter"/><path d="M210.83129,205.31114v140.99778c-0.2771,0 -0.55419,0 -0.83129,0c-6.92593,0 -14.4872,-0.64722 -21.4394,0.13534c-11.74131,1.32164 -23.5491,4.45173 -35.20827,6.65578c-3.83861,0.72565 -7.67931,1.39054 -11.52104,2.02445v-149.81335z" data-paper-data="{&quot;origPos&quot;:null,&quot;index&quot;:null}" fill="url(#color-3)" stroke="none" stroke-width="0" stroke-linecap="butt" stroke-linejoin="miter"/><g data-paper-data="{&quot;origPos&quot;:null}"><g data-paper-data="{&quot;origPos&quot;:null,&quot;origRot&quot;:0}" stroke="none" stroke-width="0" stroke-linecap="butt" stroke-linejoin="miter"><g data-paper-data="{&quot;origPos&quot;:null}"><path d="M421.42041,128.12351l56.69525,4.49789l-2.24895,28.34761l-56.69525,-4.49789z" data-paper-data="{&quot;origPos&quot;:null,&quot;origRot&quot;:0}" fill="#c7c7c7"/><path d="M466.93271,109.44525l35.734,2.83493l-4.62106,72.09982l-20.46215,17.442l-15.27185,-20.27695z" data-paper-data="{&quot;origPos&quot;:null,&quot;origRot&quot;:0}" fill="#b6b6b6"/></g><path d="M474.14665,156.30261c0,0 10.65796,1.33879 16.8004,1.72813c3.86058,0.24472 8.83107,-0.10338 8.83107,-0.10338l-0.57406,7.96418c0,0 -7.03572,-3.36908 -12.0545,-5.32805c-4.30485,-1.68029 -13.00291,-4.26085 -13.00291,-4.26085z" data-paper-data="{&quot;origPos&quot;:null}" fill="#838383"/><path d="M488.45979,175.6937c0,0 -10.65799,-1.33879 -16.8004,-1.72813c-3.86061,-0.24473 -8.83107,0.10338 -8.83107,0.10338l0.57406,-7.96418c0,0 7.0357,3.36909 12.05453,5.32805c4.30485,1.6803 13.00291,4.26088 13.00291,4.26088z" data-paper-data="{&quot;origPos&quot;:null,&quot;index&quot;:null}" fill="#838383"/><path d="M491.8062,126.06732c0,0 -10.65799,-1.33877 -16.8004,-1.72813c-3.86061,-0.24471 -8.83107,0.10338 -8.83107,0.10338l0.57406,-7.96418c0,0 7.0357,3.36909 12.05453,5.32805c4.30485,1.68029 13.00291,4.26085 13.00291,4.26085z" data-paper-data="{&quot;origPos&quot;:null,&quot;index&quot;:null}" fill="#838383"/></g><path d="M479.44614,163.1458v0v0v0v0v0v0c0.64896,1.20559 -0.67324,3.00719 -0.78295,3.16559c-0.18935,0.18475 0,0 -0.00319,0.00451c0,0 -0.95017,1.02591 -1.57865,0.67799c-0.26766,-0.14771 -0.38855,-0.40965 -0.39469,-0.75279c-0.11744,-0.03753 -0.27988,-0.11712 -0.35258,-0.28908c-0.12116,-0.2859 0.48894,-0.50682 0.48894,-0.50682v0.00425c0.02797,-0.08837 0.05807,-0.17914 0.09454,-0.27339c0.20614,-0.53344 0.71423,-1.57641 0.71423,-1.57641c0,0 1.1571,-1.6749 1.81435,-0.45385z" data-paper-data="{&quot;origPos&quot;:null}" id="L_Arm" fill="#9a8479" stroke="#000000" stroke-width="0.90232" stroke-linecap="round" stroke-linejoin="round"/><path d="M486.7719,164.9269v0v0v0v0v0v0c0,0 0.61013,0.22148 0.48814,0.50711c-0.07218,0.1733 -0.23514,0.25261 -0.35205,0.29068c-0.00614,0.34152 -0.12676,0.60452 -0.39466,0.75226c-0.40903,0.226 -0.92249,-0.10779 -1.23247,-0.3692c-0.14591,-0.09823 -0.30971,-0.20499 -0.45483,-0.28855c-0.36619,-0.2111 -1.23728,-1.64191 -1.07082,-2.44608c0.16645,-0.80417 1.92751,0 1.92751,0c0.40983,0.39398 0.85297,0.91544 0.9949,1.2836c0.03597,0.09448 0.0666,0.18607 0.09428,0.27551v-0.00534z" data-paper-data="{&quot;origPos&quot;:null}" id="R_Arm" fill="#9a8479" stroke="#000000" stroke-width="0.90232" stroke-linecap="round" stroke-linejoin="round"/><path d="M480.15078,166.19879v0v0v0v0v0v0c1.15097,0.43842 1.60526,0.6772 1.44309,1.59423c-0.12169,0.68758 0.46524,2.19745 0.46524,2.19745c0,0 0.28495,0.08171 0.1872,0.31145c-0.09773,0.23237 -0.80449,0.38678 -1.72058,0.33807c-0.91582,-0.04845 -1.63539,-0.0378 -1.73923,-0.25769c-0.10413,-0.2188 0.08681,-0.32075 0.08681,-0.32075c0,0 0.03541,-0.51883 0.03647,-1.07649c0,-0.55769 -0.08867,-2.08352 -0.08867,-2.08352c0,0 0.1787,-1.14117 1.32966,-0.70275z" data-paper-data="{&quot;origPos&quot;:null}" id="L_Leg_1_" fill="#9a8479" stroke="#000000" stroke-width="0.90232" stroke-linecap="butt" stroke-linejoin="miter"/><path d="M483.12274,166.40242v0v0v0v0v0v0c0.86548,-0.39502 1.39169,-0.46052 1.61353,0.00053c0,0 0.43382,0.8103 0.65217,1.65439c0.21785,0.84359 0.37389,1.81385 0.37389,1.81385c0,0 0.28923,0.15388 0.28708,0.30561c-0.00159,0.15173 -0.25058,0.44854 -1.56345,0.48554c-1.31237,0.03538 -1.77998,-0.17997 -1.82046,-0.37855c-0.04155,-0.19832 0.11236,-0.21588 0.11236,-0.21588c0,0 0.01812,-0.21535 0,-0.7363c-0.01782,-0.52092 -0.23408,-1.4803 -0.23408,-1.4803c0,0 -0.28655,-1.05386 0.57897,-1.4489z" data-paper-data="{&quot;origPos&quot;:null}" id="R_Leg_2_" fill="#9a8479" stroke="#000000" stroke-width="0.90232" stroke-linecap="butt" stroke-linejoin="miter"/><path d="M481.14595,162.07784v0v0v0v0v0v0c2.39196,-0.18501 3.30563,1.20213 3.3051,1.20187c0.19469,0.35828 0.43647,0.8638 0.53689,1.32539c0.02768,0.1275 0.04473,0.27097 0.04898,0.42485c0,0 -0.0141,0.5345 -0.06604,0.69767c-0.21782,0.6836 -0.57256,1.43188 -1.42099,1.77021c-1.33205,0.53344 -2.74986,0.46796 -4.22307,-0.23293c-0.49717,-0.23585 -0.79171,-0.6378 -0.9507,-1.09538c-0.11346,-0.3293 -0.16191,-0.75867 -0.16191,-0.75867c-0.06979,-0.7142 0.05512,-1.41137 0.12169,-1.71456c0,0 0.41839,-1.43347 2.81005,-1.61845z" data-paper-data="{&quot;origPos&quot;:null}" id="Belly" fill="#9a8479" stroke="#000000" stroke-width="0.90232" stroke-linecap="butt" stroke-linejoin="miter"/><g data-paper-data="{&quot;origPos&quot;:null}" id="Head_1_" stroke-width="0.90232" stroke-linejoin="miter"><path d="M468.76891,158.00637v0v0v0v0v0v0c-0.0141,-0.02449 -0.42609,-0.71258 -0.42609,-0.71287c-1.1427,-1.83433 -1.39597,-5.98296 -1.29665,-7.27774l0.00879,-0.06202c0.32464,-5.48812 2.87689,-8.41732 4.38419,-9.96764c3.42121,-3.52121 8.60697,-3.66444 8.60697,-3.66444l0.18374,3.56249c0,0 -0.00986,-1.02459 2.07638,-2.81581c2.0857,-1.79122 5.17003,-1.52955 5.17003,-1.52955l-1.63669,4.46433c0,0 0.9648,-1.3906 1.75549,-1.89877c1.40181,-0.89945 2.58712,-0.51293 2.58712,-0.51293l-0.32674,2.76895c0,0 2.08623,2.70453 3.68297,5.24589c0.3417,0.54223 0.73769,1.09113 0.98879,1.72253c0.91317,2.29409 1.04498,6.38281 0.0213,8.40803c-0.17681,0.35831 -0.36934,0.70623 -0.56908,1.04828c-0.05193,0.08784 -0.10413,0.17516 -0.15713,0.26141c-0.18295,0.3008 -0.37389,0.59573 -0.57469,0.88162c-0.02715,0.03806 -0.05193,0.07852 -0.07908,0.11661c-0.22771,0.31809 -0.4679,0.62447 -0.71771,0.92234c-0.05963,0.07188 -0.12249,0.14134 -0.18348,0.21269c-0.21411,0.24597 -0.43594,0.48501 -0.66362,0.71499c-0.05246,0.05379 -0.1036,0.10835 -0.1566,0.16025c-0.27404,0.26781 -0.55949,0.52308 -0.8535,0.7669c-0.06551,0.05353 -0.13261,0.10463 -0.19867,0.15707c-0.24686,0.19699 -0.50198,0.38519 -0.76294,0.5646c-0.07536,0.05111 -0.14887,0.10487 -0.22476,0.15491c-0.31877,0.2095 -0.64527,0.40623 -0.98242,0.58802c-0.06017,0.03275 -0.12408,0.06149 -0.18507,0.09318c-0.28814,0.14987 -0.58295,0.28776 -0.88413,0.41552c-1.27401,0.5401 -2.65744,0.89174 -4.1429,0.99877c-1.69768,0.12219 -3.23455,0.07079 -4.62278,-0.11021c-0.34326,-0.04473 -0.6772,-0.09823 -1.00237,-0.15813c-0.06179,-0.01251 -0.12331,-0.02449 -0.18454,-0.03647c-0.32969,-0.06495 -0.65327,-0.13467 -0.96377,-0.21428c-0.00186,-0.00053 -0.00425,-0.00106 -0.00637,-0.00159c-0.31107,-0.07878 -0.61013,-0.16716 -0.90225,-0.26088c-0.05114,-0.01623 -0.1036,-0.03246 -0.15447,-0.04898c-0.28067,-0.09183 -0.55418,-0.19006 -0.8178,-0.29413c-0.04636,-0.01756 -0.09109,-0.03753 -0.13715,-0.05562c-0.2602,-0.1049 -0.51396,-0.21405 -0.75737,-0.32957c-0.00932,-0.00531 -0.01971,-0.00879 -0.02877,-0.01357c-0.24925,-0.11924 -0.48734,-0.24382 -0.71874,-0.37135c-0.04317,-0.02393 -0.08604,-0.04736 -0.12809,-0.07132c-0.22263,-0.12644 -0.43836,-0.25556 -0.64394,-0.38864c-0.03143,-0.01998 -0.06126,-0.04075 -0.09242,-0.06096c-0.19519,-0.12883 -0.38401,-0.26034 -0.56457,-0.39451c-0.01862,-0.01278 -0.03913,-0.02635 -0.05698,-0.04045c-0.18829,-0.14134 -0.36616,-0.2859 -0.53766,-0.43149c-0.03331,-0.02797 -0.06607,-0.05618 -0.09802,-0.08413c-0.16722,-0.14562 -0.32806,-0.29147 -0.47935,-0.44081c-0.01729,-0.01626 -0.03302,-0.03355 -0.05004,-0.05004c-0.14249,-0.1419 -0.27775,-0.28484 -0.40558,-0.4278c-0.01785,-0.02074 -0.03809,-0.04099 -0.05621,-0.0612c-0.13101,-0.1504 -0.41411,-0.50711 -0.43594,-0.53559c-0.11396,-0.15066 -0.22263,-0.30106 -0.32089,-0.45067c-0.00611,-0.00932 -0.01198,-0.01865 -0.01756,-0.02794c-0.09428,-0.14403 -0.18002,-0.2859 -0.2602,-0.42727z" id="Head" fill="#9a8479" stroke="#000000" stroke-linecap="butt"/><path d="M488.90874,149.9998v0v0v0v0v0v0c0,0 3.10244,3.50737 2.14374,7.14573c-0.95817,3.63726 -6.68423,5.17826 -11.08385,4.90169c-5.81609,-0.36601 -8.51245,-3.82974 -7.55535,-7.13534c0.95843,-3.3056 8.65837,-4.85085 8.65837,-4.85085l-1.26442,2.37497c0,0 0.99599,-0.15385 1.80048,-0.61384c0.80425,-0.45917 1.68626,-1.07168 1.68626,-1.07168l-1.8423,2.61002c0,0 2.43321,-0.02608 4.54022,-0.86938c2.10701,-0.84223 2.91684,-2.49131 2.91684,-2.49131z" id="Face" fill="#e6e7e8" stroke="#000000" stroke-linecap="butt"/><g id="R_Ear_1_" stroke="#000000"><path d="M492.87855,148.10341c0,0 4.99372,-2.80489 6.1351,-0.41977c1.14141,2.38509 -0.90036,5.18015 -5.16123,7.70899c0,0 0.09401,-4.15237 -0.97386,-7.28922v0v0v0v0v0v0zM492.87855,148.10341c-0.08923,-0.36707 -0.38404,-1.06902 -0.38404,-1.06902M493.74164,156.0392l0.05353,-0.67159" id="Outer_Ear_1_" fill="#9a8479" stroke-linecap="round"/><path d="M493.79517,155.36735c0.02768,-0.76905 0.02662,-2.03533 -0.14674,-3.61652c-0.09988,-0.92025 -0.29295,-1.8695 -0.49106,-2.68937l0.00053,0.00106c2.92507,-0.74456 5.52848,1.95891 5.52848,1.95891h0.00106c-1.462,2.4269 -4.86885,4.27881 -4.86885,4.27881l-0.02343,0.0671v0v0v0v0v0v0z" id="Inner_Ear" fill="#ee4036" stroke-linecap="butt"/></g><g id="L_Ear" stroke="#000000"><path d="M469.44132,157.22192c-4.14768,-1.65041 -6.3857,-3.88218 -5.75882,-6.22657c0.62715,-2.34463 5.46324,-0.55474 5.46324,-0.55474c-0.44341,3.01705 0.29558,6.78131 0.29558,6.78131v0v0v0v0v0v0zM469.31482,149.40938c0,0 -0.1486,0.6833 -0.16881,1.03123M469.48768,157.18996l0.15338,0.60319" id="Outer_Ear_2_" fill="#9a8479" stroke-linecap="round"/><path d="M469.45652,157.13275c0,0 -3.28967,-1.16513 -4.9594,-3.14989l0.0008,-0.00027c0,0 1.8628,-2.85732 4.55356,-2.62655l0.00027,-0.0008c-0.04473,0.77596 -0.06444,1.66929 -0.00667,2.52168c0.09746,1.4654 0.29667,2.61775 0.44261,3.31304l-0.03116,-0.05721v0v0v0v0v0v0z" id="Inner_Ear_1_" fill="#ee4036" stroke-linecap="butt"/></g><path d="M485.52001,155.7235c-0.19307,0 -0.36191,-0.13975 -0.39387,-0.33647c-0.03491,-0.21774 0.11343,-0.42272 0.33128,-0.45757c0.19811,-0.03116 1.95413,-0.30508 2.60126,-0.22467c0.21892,0.02768 0.37442,0.22733 0.34807,0.44506c-0.02771,0.21936 -0.23036,0.37162 -0.4458,0.34792c-0.40717,-0.04951 -1.67266,0.10809 -2.37756,0.21989c-0.0213,0.00425 -0.04261,0.00584 -0.06338,0.00584v0v0v0v0v0v0v0z" id="R_Eye" fill="#231f20" stroke="none" stroke-linecap="butt"/><path d="M479.04694,155.80869c-0.02502,0 -0.05034,-0.00266 -0.07642,-0.0072c-0.92223,-0.17834 -2.54401,0.00322 -2.55998,0.00481c-0.21546,0.02396 -0.41653,-0.13151 -0.44208,-0.35084c-0.02502,-0.21883 0.13208,-0.41688 0.35152,-0.4419c0.07191,-0.00717 1.75894,-0.19643 2.80232,0.00481c0.21623,0.04152 0.35846,0.25102 0.31638,0.46849c-0.03703,0.18926 -0.20452,0.32184 -0.39174,0.32184v0v0v0v0v0v0v0z" id="L_Eye" fill="#231f20" stroke="none" stroke-linecap="butt"/><path d="M485.78818,157.59112c0,0 -1.07773,1.45315 -3.491,1.45315c-2.41271,0 -3.05877,-0.9551 -3.05877,-0.9551" id="Mouth" fill="none" stroke="#231f20" stroke-linecap="round"/></g></g></g></g></svg>