<svg version="1.1" xmlns="http://www.w3.org/2000/svg" xmlns:xlink="http://www.w3.org/1999/xlink" width="264.56447" height="49.64613" viewBox="0,0,264.56447,49.64613"><g transform="translate(-108.13082,-34.73048)"><g data-paper-data="{&quot;isPaintingLayer&quot;:true}" fill="#aa7878" fill-rule="nonzero" stroke="none" stroke-width="1" stroke-linecap="square" stroke-linejoin="miter" stroke-miterlimit="10" stroke-dasharray="" stroke-dashoffset="0" font-family="none" font-weight="none" font-size="none" text-anchor="none" style="mix-blend-mode: normal"><path d="M117.20484,78.49418l-1.48832,0.10631c0.14174,-0.68511 -0.41342,-0.76778 -1.6655,-0.24805c0.16536,-0.63785 0.07087,-0.80321 -0.28349,-0.49611c-0.44886,0 -1.15758,-0.49611 -2.12616,-1.48832c-0.73234,-0.61423 -1.19302,-1.06308 -1.38201,-1.34658c0.14174,-0.189 0.05905,-0.2953 -0.24805,-0.31892c-0.30711,-0.44886 -0.56698,-1.18121 -0.7796,-2.19705c-0.68511,-2.00805 -1.05127,-3.36644 -1.09852,-4.07516c-0.02362,-0.70873 0.12992,-1.50014 0.46068,-2.37423c-0.47248,-0.16536 -0.55516,-0.81503 -0.24805,-1.94899c0,-0.35436 0.05905,-1.32295 0.17718,-2.90576v-0.38979l0.24805,-2.69315c-0.04725,-0.89772 0.07087,-1.78363 0.35436,-2.65771c0.30711,-0.87409 0.55516,-1.87812 0.74416,-3.01208c0.66147,0.40161 0.74416,0.09449 0.24805,-0.92134c0.66147,-2.10255 1.0749,-3.28375 1.24026,-3.54362l1.02764,-1.80724c0.14174,-0.14174 0.31892,-0.38979 0.53155,-0.74416l1.87812,-2.4451c0.35436,-0.42524 0.95678,-0.85047 1.80724,-1.27571c0.47248,-0.44886 1.0749,-0.82685 1.80724,-1.13395c1.63007,-0.68511 3.20108,-1.11034 4.71302,-1.27571c0.28349,0.189 0.73234,0.07087 1.34658,-0.35436c2.66953,0.21261 4.44134,0.31892 5.31542,0.31892c0.89772,0 1.78363,0.15356 2.65771,0.46068c1.77181,0.35436 2.70497,1.19302 2.79946,2.51597c0.09449,1.29932 -0.15356,2.37423 -0.74416,3.22469c-0.56698,0.82685 -1.39382,1.18121 -2.48053,1.06308c-1.55919,-0.23624 -2.79946,-0.31892 -3.7208,-0.24805c-0.92134,0.07087 -1.79543,0.34255 -2.62228,0.81503c-0.09449,0.02362 -0.25987,0.10631 -0.49611,0.24805c-0.5906,0.23624 -1.03947,0.47248 -1.34658,0.70873c-1.29932,1.11034 -2.53959,3.27195 -3.7208,6.48483l-1.38201,0.56698c2.29154,-3.40187 3.04752,-4.14603 2.26792,-2.23248c-0.75598,1.91355 -1.15758,2.94121 -1.20483,3.08295c-0.04725,0.11813 -0.08269,0.25987 -0.10631,0.42524c0,0.14174 -0.09449,0.40161 -0.28349,0.7796c-0.35436,0.96859 -0.67329,2.39784 -0.95678,4.28778c-0.28349,1.86631 -0.42524,3.37826 -0.42524,4.53583c0,1.13395 0.15356,1.96081 0.46068,2.48053l0.95678,1.09852c0.09449,0.16536 0.50792,0.46068 1.24026,0.8859c0.37798,0.44886 0.83865,0.85047 1.38201,1.20483c0.189,0.07087 0.86229,-0.22443 2.01986,-0.8859c0.07087,-0.04725 0.20081,-0.15356 0.38979,-0.31892l1.41745,-0.95678c0.7796,-0.82685 1.28752,-1.41745 1.52376,-1.77181l0.46068,-0.38979l0.35436,-1.31114c-0.11813,-0.14174 -0.11813,-0.36618 0,-0.67329c0.11813,-0.47248 0.17718,-0.87409 0.17718,-1.20483v-0.81503l-0.10631,-1.94899c0.189,-0.25987 0.36618,-0.25987 0.53155,0c-0.04725,0.09449 -0.80321,0.63785 -2.26792,1.63007c-0.35436,0.21261 -0.85047,0.31892 -1.48832,0.31892c-0.61423,-0.02362 -1.14577,-0.16536 -1.59463,-0.42524c-1.11034,-0.63785 -1.6655,-1.40563 -1.6655,-2.30335c0,-0.92134 0.07087,-1.57101 0.21261,-1.94899c0.14174,-0.40161 0.21261,-0.70873 0.21261,-0.92134c0.02362,-0.21261 0.17718,-0.46068 0.46068,-0.74416c0.28349,-0.28349 0.54336,-0.49611 0.7796,-0.63785c0.25987,-0.16536 0.56698,-0.42524 0.92134,-0.7796c0.35436,-0.35436 1.14577,-0.82685 2.37423,-1.41745c1.25208,-0.61423 2.69315,-0.92134 4.32321,-0.92134c1.63007,0 2.96483,0.49611 4.00429,1.48832c1.03947,0.96859 1.90174,2.65771 2.58684,5.06737c0.09449,0.61423 0.14174,1.77181 0.14174,3.47275c0,1.67732 -0.37798,4.76026 -1.13395,9.24885c-0.23624,1.98442 -0.48429,3.31918 -0.74416,4.00429c-0.25987,0.66147 -0.42524,1.33476 -0.49611,2.01986c-0.07087,0.66147 -0.14174,1.13395 -0.21261,1.41745c-0.04725,0.28349 -0.08269,0.48429 -0.10631,0.60242c-0.02362,0.11813 -0.04725,0.23624 -0.07087,0.35436c-0.02362,0.11813 -0.11813,0.42524 -0.28349,0.92134c-0.16536,0.49611 -0.5906,1.02765 -1.27571,1.59463c-0.66147,0.56698 -1.3702,0.8859 -2.12618,0.95678c-1.79543,-0.30711 -3.01208,-0.90952 -3.64992,-1.80724c-0.21261,-0.30711 -0.48429,-0.83865 -0.81503,-1.59463c-0.33074,-0.75598 -0.50792,-1.42926 -0.53155,-2.01986c-0.02362,-0.56698 -0.02362,-0.94496 0,-1.13395c0.02362,-0.21261 0.09449,-0.72054 0.21261,-1.52376c0.11813,-0.82685 0.53155,-1.20483 1.24026,-1.13395l-0.67329,1.63007c0.35436,0.49611 0,1.02765 -1.06308,1.59463c-0.49611,0.51973 -1.67732,0.72054 -3.54362,0.60242l-0.03544,-0.70873c0.40161,0.96859 -0.70873,1.19302 -3.331,0.67329c-0.28349,0.04725 -0.94496,-0.10631 -1.98442,-0.46068zM151.29862,60.03192c-0.16536,-0.92134 -0.53155,-1.34658 -1.09852,-1.27571c-0.25987,0 -0.53155,0.27168 -0.81503,0.81503c-0.63785,1.18121 -0.90952,2.82308 -0.81503,4.92563c0.09449,2.07892 0.23624,3.55544 0.42524,4.42952c0.189,0.85047 0.53155,1.58281 1.02765,2.19705c0.09449,0.16536 0.22443,0.24805 0.38979,0.24805c0.51973,0 0.96859,-0.64966 1.34658,-1.94899l0.56698,-1.73637c0.56698,0.189 0.50792,0.24805 -0.17718,0.17718c0.49611,-1.27571 0.75598,-2.30335 0.7796,-3.08295c-0.23624,-0.16536 -0.44886,-0.49611 -0.63785,-0.99221c-0.28349,-0.82685 -0.24805,-1.31114 0.10631,-1.45289c-0.61423,-0.02362 -0.94496,-0.37798 -0.99221,-1.06308c-0.04725,-0.70873 -0.08269,-1.12215 -0.10631,-1.24026zM140.20709,65.38277l0.24805,-3.15382c0.30711,-3.02389 1.22845,-5.61073 2.76402,-7.76052c1.63007,-1.98442 3.89798,-3.00026 6.80375,-3.04752h0.35436c2.66953,0 4.64215,0.61423 5.91784,1.84268c1.22845,0.94496 2.13798,1.99624 2.72858,3.15382c0.5906,1.15758 0.98039,2.01986 1.16939,2.58684c0.21261,0.56698 0.34255,1.3702 0.38979,2.40966c0.09449,2.38605 -0.20081,3.68536 -0.8859,3.89798c0.49611,3.42549 0.05905,6.35489 -1.31114,8.78818c-0.40161,0.99221 -1.02765,2.07892 -1.87812,3.26013c-0.80321,1.01584 -2.12618,1.58281 -3.96886,1.70094c-1.53558,0 -2.90576,-0.09449 -4.1106,-0.28349c-1.18121,-0.189 -2.51597,-0.7796 -4.00429,-1.77181c-1.48832,-0.99221 -2.53959,-2.6341 -3.15382,-4.92563c-0.5906,-1.96081 -0.94496,-4.19329 -1.06308,-6.69744zM178.24414,58.57904l-0.17718,-0.03544c0.11813,-0.25987 0.17718,-0.24805 0.17718,0.03544zM171.86562,74.2064c0.14174,1.41745 0.21261,1.75999 0.21261,1.02765c0.07087,0 0.46068,-0.11813 1.16939,-0.35436c0.14174,0.70873 0.27168,0.74416 0.38979,0.10631c0.14174,-0.63785 0.34255,-1.05127 0.60242,-1.24026c0.51973,-0.28349 0.90952,-0.20081 1.16939,0.24805c-0.51973,-0.44886 -0.60242,-0.8859 -0.24805,-1.31114c0.37798,-0.44886 0.66147,-0.82685 0.85047,-1.13395c0.21261,-0.30711 0.36618,-0.55516 0.46068,-0.74416c0.85047,0.16536 0.56698,0.63785 -0.85047,1.41745c0.75598,-1.32295 1.20483,-2.22066 1.34658,-2.69315l0.56698,-1.34658l0.63785,-2.94121c0.04725,-0.11813 -0.05905,-0.87409 -0.31892,-2.26792l0.46068,-0.42524c-0.37798,-0.02362 -0.56698,-0.21261 -0.56698,-0.56698l-0.07087,-0.60242c0,-0.14174 -0.04725,-0.40161 -0.14174,-0.7796c-0.07087,-0.28349 -0.14174,-0.60242 -0.21261,-0.95678l0.28349,0.14174c-0.40161,0.21261 -0.72054,0.44886 -0.95678,0.70873c-0.35436,0.44886 -0.86229,1.35839 -1.52376,2.72858c-0.63785,1.3702 -1.0749,2.59866 -1.31114,3.68536l-0.38979,1.59463c-0.49611,1.03947 -0.82685,2.24429 -0.99221,3.61449l-0.28349,0.8859zM185.65031,56.41743c0.80321,1.74819 1.20483,3.29557 1.20483,4.64215c0,2.48053 -0.20081,4.32321 -0.60242,5.52805c0,0.42524 -0.04725,0.79142 -0.14174,1.09852c-0.37798,2.71678 -0.88589,4.80751 -1.52376,6.27221c-0.189,0.25987 -0.37798,0.64966 -0.56698,1.16939c-0.33074,0.85047 -1.18121,1.54738 -2.55141,2.09074c0.54336,0.33074 0.41342,0.90952 -0.38979,1.73637c-0.80321,0.82685 -1.93718,1.4647 -3.40187,1.91355c-1.63007,0.51973 -2.69315,0.7796 -3.18926,0.7796c-2.64589,0.42524 -4.35865,-0.30711 -5.13825,-2.19705l1.06308,0.60242c-1.22845,2.10255 -2.75221,2.69315 -4.57126,1.77181c-0.82685,-0.44886 -1.35839,-0.81503 -1.59463,-1.09852c-0.23624,-0.25987 -0.38979,-0.67329 -0.46068,-1.24026c-0.33074,-0.80321 -0.43705,-1.79543 -0.31892,-2.97664l0.28349,-1.80724c-0.14174,-0.70873 -0.15356,-1.35839 -0.03544,-1.94899v-0.38979c0.07087,-0.80321 0.12992,-2.35061 0.17718,-4.64215c0.04725,-2.31516 0.11813,-3.7208 0.21261,-4.21691c0.09449,-0.49611 0.14174,-0.94496 0.14174,-1.34658c0.49611,-5.57529 0.76778,-8.54012 0.81503,-8.89449c0.07087,-0.37798 0.10631,-1.64188 0.10631,-3.79168v-3.331c0,-0.61423 -0.02362,-1.19302 -0.07087,-1.73637c-0.02362,-0.54336 0.30711,-0.72054 0.99221,-0.53155c-0.85047,-0.75598 -1.15758,-1.79543 -0.92134,-3.11839v-0.53155c-0.11813,-0.96859 0.10631,-1.93718 0.67329,-2.90576c0.44886,-0.61423 1.18121,-1.11034 2.19705,-1.48832c1.01584,-0.37798 1.88993,-0.60242 2.62228,-0.67329h0.31892c0.7796,0 1.45289,0.189 2.01986,0.56698c0.89772,0.40161 1.34658,1.19302 1.34658,2.37423c0.09449,0.33074 0.10631,0.66147 0.03544,0.99221c0.02362,0.21261 -0.17718,3.04752 -0.60242,8.50468c-0.42524,5.45718 -0.63785,8.45743 -0.63785,9.00079c0,0.51973 -0.15356,0.83865 -0.46068,0.95678c-0.28349,0.11813 -0.55516,0.16536 -0.81503,0.14174c-0.11813,-0.30711 -0.27168,-0.62604 -0.46068,-0.95678c-0.189,-0.33074 -0.07087,-0.61423 0.35436,-0.85047c0.75598,0 0.90952,0 0.46068,0c0,-0.44886 0.22443,-0.86229 0.67329,-1.24026c0.47248,-0.37798 0.86229,-0.20081 1.16939,0.53155c-0.40161,-0.75598 -0.37798,-1.18121 0.07087,-1.27571l0.92134,0.21261c-0.33074,-0.7796 0.31892,-1.15758 1.94899,-1.13395c1.65368,0 2.68134,0.14174 3.08295,0.42524c0.33074,0.16536 0.53155,0.27168 0.60242,0.31892c0.09449,0.02362 0.20081,0.04725 0.31892,0.07087c0.11813,0.02362 0.62604,0.17718 1.52376,0.46068c1.15758,0 1.42926,0.41342 0.81503,1.24026c0.02362,-0.04725 0.15356,-0.35436 0.38979,-0.92134c1.27572,0.75598 1.91355,1.3702 1.91355,1.84268zM202.62386,63.78815l-0.46068,-2.26792c0.14174,-0.09449 0.15356,-0.189 0.03544,-0.28349c-0.11813,-0.11813 -0.20081,-0.28349 -0.24805,-0.49611c-0.09449,-0.09449 -0.24805,-0.24805 -0.46068,-0.46068l-0.49611,-0.74416l0.21261,-0.49611c-0.47248,0 -0.73234,-0.14174 -0.7796,-0.42524c-0.02362,-0.28349 -0.07087,-0.46068 -0.14174,-0.53155c-0.07087,-0.07087 -0.05905,-0.23624 0.03544,-0.49611c0.09449,-0.25987 0.03544,-0.21261 -0.17718,0.14174c-0.04725,-0.02362 -0.189,0 -0.42524,0.07087c-0.21261,0.04725 -0.30711,0.09449 -0.28349,0.14174c-0.63785,1.41745 -0.95678,2.31516 -0.95678,2.69315c-0.54336,1.81906 -0.70873,3.08295 -0.49611,3.79168c-0.07087,1.34658 0.09449,3.1302 0.49611,5.35086v0.38979c0.25987,0.35436 0.55516,0.92134 0.8859,1.70094c0.35436,0.47248 0.46068,0.90952 0.31892,1.31114c-0.14174,0.37798 -0.03544,0.2953 0.31892,-0.24805c0.5906,0.42524 0.64966,0.87409 0.17718,1.34658c-0.16536,-0.63785 -0.11813,-0.72054 0.14174,-0.24805l-0.81503,-0.7796c0.56698,-0.49611 1.14577,-0.42524 1.73637,0.21261c-2.12618,0.82685 -2.24429,0.37798 -0.35436,-1.34658l0.10631,-0.10631c0.73234,-0.92134 1.02765,-1.3702 0.8859,-1.34658c-0.14174,0.02362 -0.21261,0.02362 -0.21261,0c-0.42524,-0.92134 -0.27168,-1.60645 0.46068,-2.05529c0,0 0.17718,-0.48429 0.53155,-1.45289v-0.35436c0.54336,0 0.49611,0.09449 -0.14174,0.28349v-1.38201c0.37798,-0.09449 0.42524,-0.189 0.14174,-0.28349c0.14174,-0.5906 0.20081,-0.93316 0.17718,-1.02765c-0.02362,-0.11813 0,-0.36618 0.07087,-0.74416c0.09449,-0.37798 0.24805,-0.68511 0.46068,-0.92134c0.49611,0.44886 0.24805,0.80321 -0.74416,1.06308zM194.7216,50.28697c0.40161,0 0.66147,-0.03544 0.7796,-0.10631c0.14174,-0.07087 0.51973,-0.20081 1.13395,-0.38979c0.63785,-0.189 2.00805,-0.21261 4.1106,-0.07087c1.25208,0.25987 2.56322,0.83865 3.93342,1.73637c1.4647,0.70873 2.69315,1.75999 3.68536,3.15382c1.22845,3.21288 1.90174,6.00053 2.01986,8.36294c0.09449,3.52 -0.24805,6.47301 -1.02765,8.85905c-1.06308,2.64589 -1.72455,4.15785 -1.98442,4.53583c-0.09449,0.49611 -0.5906,1.42926 -1.48832,2.79946c-0.51973,-0.21261 -0.86229,-0.57879 -1.02765,-1.09852c0.75598,0.35436 0.89772,0.75598 0.42524,1.20483c-0.47248,0.44886 -1.01584,0.67329 -1.63007,0.67329c-0.23624,0.07087 -0.43705,0.16536 -0.60242,0.28349c-0.14174,0.14174 -0.51973,0.21261 -1.13395,0.21261l-1.48832,0.10631h-1.6655c-1.25208,0 -2.32697,-0.17718 -3.22469,-0.53155l-2.05529,-1.41745l0.07087,-1.24026c-0.66147,0.56698 -1.03947,0.64966 -1.13395,0.24805c-0.09449,-0.42524 0.15356,-0.70873 0.74416,-0.85047c-1.01584,0 -1.52376,-0.27168 -1.52376,-0.81503c-0.44886,-0.68511 -0.56698,-1.18121 -0.35436,-1.48832c0.21261,-0.33074 0.04725,-0.47248 -0.49611,-0.42524c0,-0.82685 -0.16536,-1.79543 -0.49611,-2.90576l-0.14174,-1.02765v-0.70873c-0.04725,-0.47248 -0.27168,-1.29932 -0.67329,-2.48053c0.82685,0.09449 0.8859,0.02362 0.17718,-0.21261c0,-1.08671 0.01182,-1.72455 0.03544,-1.91355l-0.28349,-1.06308c0.189,-0.30711 0.27168,-0.53155 0.24805,-0.67329c-0.02362,-0.14174 0.03544,-0.43705 0.17718,-0.8859v-0.31892l0.24805,-2.12618c0,-0.42524 0.09449,-0.69691 0.28349,-0.81503l-0.17718,-1.41745c0.82685,0.73234 0.89772,0.81503 0.21261,0.24805l0.31892,-0.56698l0.03544,-0.10631c0.21261,0.04725 0.16536,-0.03544 -0.14174,-0.24805l0.67329,-1.06308c-0.21261,-0.25987 -0.05905,-0.55516 0.46068,-0.8859c-0.23624,-0.25987 -0.10631,-0.56698 0.38979,-0.92134c-0.21261,-0.28349 -0.21261,-0.56698 0,-0.85047c0,-0.35436 0.33074,-0.94496 0.99221,-1.77181c0.68511,-0.68511 1.21664,-1.02765 1.59463,-1.02765zM214.73418,46.60161c0.21261,0.04725 0.21261,-0.08269 0,-0.38979v-1.16939c0,-0.04725 -0.12992,-0.41342 -0.38979,-1.09852c-0.25987,-0.68511 -0.44886,-1.19302 -0.56698,-1.52376l-1.59463,-3.36644c0,-0.96859 0.35436,-1.74819 1.06308,-2.33879c0.70873,-0.5906 1.45289,-0.95678 2.23248,-1.09852l1.41745,-0.28349c0.07087,0.09449 0.30711,0.03544 0.70873,-0.17718c0.94496,-0.28349 1.72455,-0.42524 2.33879,-0.42524c0.63785,0 1.61825,0.56698 2.94121,1.70094c-0.42524,0.37798 -0.36618,1.28752 0.17718,2.72858c0.56698,1.41745 0.85047,2.68134 0.85047,3.79168c0,1.08671 -0.07087,1.90174 -0.21261,2.4451c-0.11813,0.51973 -0.36618,0.92134 -0.74416,1.20483c-0.37798,0.28349 -0.41342,0.46068 -0.10631,0.53155c0.30711,0.07087 0.40161,0.2953 0.28349,0.67329c-0.11813,0.35436 -0.22443,0.57879 -0.31892,0.67329c-0.09449,0.07087 -0.22443,0.28349 -0.38979,0.63785c-0.14174,0.35436 -0.37798,0.81503 -0.70873,1.38201c-0.30711,0.54336 -0.63785,1.01584 -0.99221,1.41745c-0.33074,0.40161 -0.96859,0.87409 -1.91355,1.41745c-0.94496,0.54336 -1.92537,0.81503 -2.94121,0.81503c-1.01584,0 -1.84268,-0.20081 -2.48053,-0.60242c-0.63785,-0.42524 -0.95678,-0.94496 -0.95678,-1.55919c0,-0.61423 0.12992,-1.05127 0.38979,-1.31114c0.25987,-0.28349 0.56698,-0.46068 0.92134,-0.53155c0.09449,0.30711 0.42524,-0.87409 0.99221,-3.54362zM226.48526,60.81152c-0.04725,-0.80321 -0.03544,-1.93718 0.03544,-3.40187l0.49611,-2.30335l1.31114,-2.87033l0.81503,-0.99221c0,-0.66147 1.39382,-1.3702 4.18147,-2.12618h0.21261c0.49611,-0.02362 1.28752,0.03544 2.37423,0.17718c1.11034,0.11813 2.17342,0.56698 3.18926,1.34658c1.01584,0.75598 1.74819,1.44107 2.19705,2.05529c0.96859,1.96081 1.38201,3.75624 1.24026,5.3863c0,0.63785 -0.40161,1.21664 -1.20483,1.73637c0.189,0.51973 -0.17718,0.92134 -1.09852,1.20483c-0.89772,0.25987 -1.61825,0.28349 -2.16161,0.07087c-0.51973,-0.21261 -1.14577,-0.55516 -1.87812,-1.02765c-0.70873,-0.47248 -1.03947,-1.11034 -0.99221,-1.91355c-0.47248,-0.49611 -0.53155,-1.27571 -0.17718,-2.33879c0.14174,-0.09449 0.22443,-0.01182 0.24805,0.24805l0.03544,-0.31892c0.21261,-0.16536 0.2953,0 0.24805,0.49611c-0.02362,0.49611 -0.03544,1.13395 -0.03544,1.91355c0,1.4647 0.36618,2.77584 1.09852,3.93342c0.21261,0.35436 0.63785,0.80321 1.27571,1.34658l1.13395,1.38201l1.55919,1.48832l1.20483,1.55919c0.33074,0.33074 0.7796,1.03947 1.34658,2.12618c0.56698,1.08671 0.85047,2.09074 0.85047,3.01208c0,0.92134 -0.25987,2.07892 -0.7796,3.47275l-1.24026,0.31892c0.54336,0.33074 0.47248,0.85047 -0.21261,1.55919c-1.39382,1.3702 -2.96483,2.23248 -4.71302,2.58684h-0.42524c-1.3702,0.16536 -2.75221,0.12992 -4.14603,-0.10631l-1.80724,-0.46068c-0.28349,0 -0.5906,-0.09449 -0.92134,-0.28349c-0.30711,-0.16536 -0.56698,-0.2953 -0.7796,-0.38979c-1.20483,-0.7796 -1.87812,-1.33476 -2.01986,-1.6655c-0.42524,-0.21261 -0.67329,-0.96859 -0.74416,-2.26792c-0.37798,-0.75598 -0.33074,-1.75999 0.14174,-3.01208c0,-0.5906 0.10631,-1.19302 0.31892,-1.80724c1.27571,-1.41745 2.78765,-1.78363 4.53583,-1.09852c0.92134,0.37798 1.38201,1.0749 1.38201,2.09074c0,0.04725 0.05905,0.37798 0.17718,0.99221c0.11813,0.5906 0.25987,1.05127 0.42524,1.38201c0.189,0.33074 0.37798,0.49611 0.56698,0.49611c0.189,0 0.38979,-0.08269 0.60242,-0.24805c0.82685,-0.80321 1.06308,-1.22845 0.70873,-1.27571l0.10631,-0.95678c0.04725,-0.28349 -0.09449,-0.67329 -0.42524,-1.16939c-0.11813,-0.44886 -0.34255,-0.85047 -0.67329,-1.20483l-0.92134,-1.31114l-0.28349,-0.92134c-0.23624,0.25987 -0.96859,-0.04725 -2.19705,-0.92134c0.09449,-0.28349 -0.09449,-0.61423 -0.56698,-0.99221c-0.47248,-0.37798 -0.8859,-0.8859 -1.24026,-1.52376c-0.33074,-0.66147 -0.83865,-1.29932 -1.52376,-1.91355c-0.04725,-0.37798 -0.33074,-0.89772 -0.85047,-1.55919zM270.44077,64.74494l0.95678,-4.00429c0,-0.28349 0.14174,-0.70873 0.42524,-1.27571c0.30711,-0.56698 0.53155,-1.01584 0.67329,-1.34658c0.70873,-0.42524 1.4765,-0.60242 2.30335,-0.53155c1.18121,0.11813 2.17342,0.57879 2.97664,1.38201c0.75598,0.16536 0.73234,0.75598 -0.07087,1.77181c1.72455,-3.26013 2.06711,-2.81127 1.02765,1.34658c-0.25987,1.34658 -0.51973,2.19705 -0.7796,2.55141c-0.14174,0.75598 -0.21261,2.03168 -0.21261,3.82711c-0.09449,1.22845 0,2.29154 0.28349,3.18926c0,0.99221 -0.27168,1.52376 -0.81503,1.59463l-0.56698,-0.53155c0,-0.5906 0.11813,-1.26389 0.35436,-2.01986c0,-0.09449 0.07087,-0.49611 0.21261,-1.20483c0.16536,-0.73234 0.28349,-1.33476 0.35436,-1.80724c0.09449,-0.49611 0.189,-0.89772 0.28349,-1.20483c0.28349,-0.87409 0.54336,-1.60645 0.7796,-2.19705c0.07087,-0.54336 0.16536,-1.02765 0.28349,-1.45289c0.11813,-0.42524 0.23624,-0.86229 0.35436,-1.31114c0.51973,-1.22845 0.7796,-2.18523 0.7796,-2.87033c0.35436,-1.91355 0.80321,-3.31918 1.34658,-4.21691c0.56698,-0.92134 1.32295,-1.38201 2.26792,-1.38201c0.94496,0 1.45289,0.08269 1.52376,0.24805c0.85047,-0.30711 1.70094,0.21261 2.55141,1.55919c0.30711,0.63785 0.53155,1.24026 0.67329,1.80724c-0.07087,0.30711 -0.12992,0.79142 -0.17718,1.45289c-0.02362,0.63785 -0.11813,1.32295 -0.28349,2.05529c-0.09449,0.94496 -0.22443,1.63007 -0.38979,2.05529c-0.33074,0.73234 -0.54336,1.65368 -0.63785,2.76402c-0.09449,1.08671 -0.24805,1.91355 -0.46068,2.48053c-0.30711,0.54336 -0.51973,1.29932 -0.63785,2.26792c-0.09449,0.96859 -0.31892,1.84268 -0.67329,2.62228c-0.33074,0.7796 -0.53155,1.52376 -0.60242,2.23248l-0.56698,0.92134c-1.03947,2.69315 -2.43328,4.37047 -4.18147,5.03194h-1.38201c-0.51973,0 -1.51194,-0.189 -2.97664,-0.56698c0.75598,-0.63785 0.68511,-0.75598 -0.21261,-0.35436c-1.22845,-1.11034 -2.04349,-1.93718 -2.4451,-2.48053c-0.75598,-1.3702 -0.83865,-2.18523 -0.24805,-2.4451c0.16536,1.32295 -0.09449,2.70497 -0.7796,4.14603c-0.14174,0.11813 -0.53155,0.92134 -1.16939,2.40966c-0.51973,0.73234 -1.40563,1.24026 -2.65771,1.52376l-1.6655,-0.38979c-0.66147,0 -1.31114,-0.15356 -1.94899,-0.46068l-0.95678,-1.13395c0.02362,1.01584 -0.35436,1.26389 -1.13395,0.74416c-0.75598,-0.49611 -1.38201,-1.03947 -1.87812,-1.63007l0.31892,-0.53155c-0.82685,0.30711 -1.24026,-0.27168 -1.24026,-1.73637c0.42524,0 0.43705,-0.36618 0.03544,-1.09852c-0.37798,-0.73234 -0.42524,-1.26389 -0.14174,-1.59463c0.02362,-0.44886 0.03544,-1.52376 0.03544,-3.22469c0.16536,-0.54336 0.24805,-1.34658 0.24805,-2.40966l0.49611,-6.02415l1.52376,-2.26792c0,0.189 -0.37798,0.09449 -1.13395,-0.28349c0.04725,-0.30711 0.09449,-0.56698 0.14174,-0.7796c0,-0.89772 0.20081,-1.75999 0.60242,-2.58684c0.42524,-1.65368 0.63785,-2.48053 0.63785,-2.48053c0.5906,-2.17342 1.60645,-3.36644 3.04752,-3.57905c1.11034,0.09449 2.05529,0.30711 2.83489,0.63785c1.60645,0.75598 2.27973,2.11436 2.01986,4.07516c-0.44886,2.45692 -0.81503,5.4808 -1.09852,9.07167c-0.21261,1.81906 -0.33074,2.75221 -0.35436,2.79946l-0.46068,5.59892l-0.56698,-0.10631c-0.21261,-0.35436 -0.22443,-0.7796 -0.03544,-1.27571c0.189,-0.51973 0.40161,-1.12215 0.63785,-1.80724c0.25987,-0.70873 0.7796,-1.74819 1.55919,-3.11839zM298.23105,67.29634c-0.16536,1.29932 -0.24805,2.50415 -0.24805,3.61449c0,1.11034 0.08269,1.90174 0.24805,2.37423c-0.37798,0.33074 -0.48429,0.30711 -0.31892,-0.07087c-0.21261,0.07087 -0.2953,0.02362 -0.24805,-0.14174c0.40161,0.25987 0.40161,0.21261 0,-0.14174c1.32295,-1.25208 2.05529,-2.05529 2.19705,-2.40966c0.16536,-0.35436 0.33074,-0.62604 0.49611,-0.81503c0.02362,0.07087 0.02362,-0.09449 0,-0.49611c0.75598,0 1.13395,0.03544 1.13395,0.10631c-0.5906,-0.14174 -0.76778,-0.43705 -0.53155,-0.8859c-0.44886,-0.56698 -0.51973,-0.96859 -0.21261,-1.20483c0.33074,-0.25987 0.49611,-0.54336 0.49611,-0.85047l0.24805,-1.91355c0,-0.28349 0.07087,-0.46068 0.21261,-0.53155c-0.14174,-0.16536 -0.189,-0.42524 -0.14174,-0.7796c0.07087,-0.35436 0.08269,-0.81503 0.03544,-1.38201c-0.02362,-0.56698 -0.11813,-0.92134 -0.28349,-1.06308l-0.17718,-0.63785c0.28349,-0.09449 0.20081,-0.03544 -0.24805,0.17718l0.24805,-1.13395c0.92134,0.16536 1.02765,0.64966 0.31892,1.45289c-1.4647,1.98442 -2.53959,4.22872 -3.22469,6.73288zM291.67535,60.10279c0.02362,-0.30711 0.25987,-0.50792 0.70873,-0.60242l-0.49611,-0.24805c0.23624,-0.80321 0.47248,-1.50014 0.70873,-2.09074c0.25987,-0.5906 0.57879,-0.24805 0.95678,1.02765c-0.89772,-0.189 -1.21664,-0.46068 -0.95678,-0.81503c0.11813,-0.30711 0.2953,-0.68511 0.53155,-1.13395c0.25987,-0.44886 0.38979,-0.70873 0.38979,-0.7796c0.42524,-1.08671 0.99221,-1.57101 1.70094,-1.45289c-0.37798,-0.75598 0.31892,-1.21664 2.09074,-1.38201c1.4647,-0.51973 2.53959,-0.66147 3.22469,-0.42524c0.47248,-0.30711 1.32295,-0.12992 2.55141,0.53155c0.63785,0.25987 1.33476,0.66147 2.09074,1.20483c0.68511,0.44886 1.21664,0.8859 1.59463,1.31114c0.73234,0.35436 1.22845,0.96859 1.48832,1.84268c1.15758,2.81127 1.73637,5.36268 1.73637,7.65422l-0.10631,0.67329c0,0.7796 -0.07087,1.24026 -0.21261,1.38201c-0.11813,0.11813 -0.49611,0.12992 -1.13395,0.03544c0.94496,-0.28349 1.28752,0.01182 1.02765,0.8859c0,0.189 -0.34255,1.58281 -1.02765,4.18147l-1.6655,1.6655c0.51973,0.33074 0.54336,0.55516 0.07087,0.67329h0.38979c0,0.37798 -0.15356,0.76778 -0.46068,1.16939c-0.42524,0.85047 -0.86229,1.48832 -1.31114,1.91355c-0.63785,1.01584 -1.18121,1.78363 -1.63007,2.30335l-0.85047,1.20483l-1.06308,-0.85047c0.14174,0.66147 0.02362,0.99221 -0.35436,0.99221c-0.37798,0 -2.72858,-0.61423 -7.0518,-1.84268l6.41395,0.31892c-0.44886,0.89772 -0.7796,1.27571 -0.99221,1.13395c-0.189,-0.11813 -0.38979,-0.14174 -0.60242,-0.07087c-0.61423,-0.35436 -0.98039,-0.49611 -1.09852,-0.42524c-0.42524,0 -1.19302,-0.17718 -2.30335,-0.53155l-1.73637,-0.28349l-1.52376,-0.56698c-0.49611,-0.28349 -0.99221,-0.63785 -1.48832,-1.06308c-0.30711,-0.56698 -0.46068,-0.98039 -0.46068,-1.24026l-0.35436,-1.20483c0.16536,-0.11813 0.12992,-0.33074 -0.10631,-0.63785v-1.80724c0.07087,-0.40161 0.10631,-0.67329 0.10631,-0.81503c-0.09449,-0.25987 -0.09449,-0.7796 0,-1.55919v-0.60242c0,-0.16536 0.01182,-0.36618 0.03544,-0.60242c-0.04725,-0.189 -0.02362,-0.64966 0.07087,-1.38201c0.09449,-0.73234 0.14174,-1.35839 0.14174,-1.87812c0,-0.5906 0.09449,-1.44107 0.28349,-2.55141c0.09449,-0.23624 0.16536,-0.75598 0.21261,-1.55919c0.04725,-0.82685 0.20081,-1.39382 0.46068,-1.70094zM312.98645,59.85474c0,-0.37798 -0.04725,-0.80321 -0.14174,-1.27571v-0.63785c0.02362,-0.189 0.01182,-0.41342 -0.03544,-0.67329c0,-0.5906 0.03544,-1.03947 0.10631,-1.34658c0,-0.99221 0.25987,-1.57101 0.7796,-1.73637c-0.30711,-0.28349 -0.09449,-0.92134 0.63785,-1.91355c0.25987,-0.23624 0.68511,-0.5906 1.27571,-1.06308c0.87409,-0.28349 1.39382,-0.28349 1.55919,0c0.11813,-0.61423 0.86229,-0.72054 2.23248,-0.31892c0.40161,0.02362 1.05127,0.17718 1.94899,0.46068c0.54336,0.14174 1.27571,0.80321 2.19705,1.98442c-0.21261,0.51973 -0.41342,1.25208 -0.60242,2.19705c-0.16536,0.92134 -0.56698,1.52376 -1.20483,1.80724c-0.47248,-0.49611 -0.33074,-0.95678 0.42524,-1.38201c0.7796,-0.44886 1.00403,-0.92134 0.67329,-1.41745c1.41745,-0.61423 2.69315,-1.05127 3.82711,-1.31114c1.84268,-0.14174 3.0357,0 3.57905,0.42524c0.49611,0.16536 0.8859,0.43705 1.16939,0.81503c0.51973,0.42524 0.95678,1.22845 1.31114,2.40966c0.35436,1.15758 0.15356,2.01986 -0.60242,2.58684c-0.40161,0.33074 -1.42926,0.57879 -3.08295,0.74416c-0.04725,-0.56698 -0.11813,-0.48429 -0.21261,0.24805l-3.18926,2.51597c-0.5906,0.30711 -0.92134,0.48429 -0.99221,0.53155l-1.02765,1.87812c-0.25987,-0.16536 -0.34255,0.21261 -0.24805,1.13395c0.11813,0.89772 0.20081,1.55919 0.24805,1.98442c0.04725,0.40161 0.04725,1.77181 0,4.1106v2.58684c0,1.48832 -0.02362,2.39784 -0.07087,2.72858c-0.04725,0.30711 -0.24805,0.81503 -0.60242,1.52376c-0.40161,0.61423 -1.01584,0.92134 -1.84268,0.92134c-2.24429,1.70094 -3.73261,1.51194 -4.46496,-0.56698l-0.35436,-0.21261c-0.61423,-0.30711 -0.99221,-0.68511 -1.13395,-1.13395c-0.40161,-0.54336 -0.51973,-0.95678 -0.35436,-1.24026l-0.42524,-0.53155l0.46068,-0.81503c-0.68511,0.28349 -1.0749,-0.46068 -1.16939,-2.23248c-0.09449,-1.79543 -0.14174,-2.84671 -0.14174,-3.15382c0,-0.33074 -0.07087,-0.87409 -0.21261,-1.63007c0.33074,-0.33074 0.48429,-0.73234 0.46068,-1.20483c0,-0.47248 -0.05905,-0.96859 -0.17718,-1.48832c-0.11813,-0.54336 -0.08269,-0.86229 0.10631,-0.95678c0.21261,-0.09449 0.189,-0.38979 -0.07087,-0.8859c-0.189,-0.25987 -0.22443,-0.72054 -0.10631,-1.38201zM334.56844,45.78657c0.09449,-0.28349 0.11813,-0.55516 0.07087,-0.81503c-0.02362,-0.28349 0.02362,-1.20483 0.14174,-2.76402c0.14174,-0.25987 0.15356,-0.81503 0.03544,-1.6655c0,-0.92134 0.2953,-1.79543 0.8859,-2.62228c0.61423,-0.85047 1.90174,-1.8545 3.86255,-3.01208l-1.20483,2.16161c-0.25987,-0.89772 0.03544,-1.41745 0.8859,-1.55919c1.91355,-0.25987 3.44913,0.57879 4.60671,2.51597c-0.30711,0.49611 -0.46068,1.40563 -0.46068,2.72858v6.13046c0.04725,1.01584 0.07087,2.39784 0.07087,4.14603v2.26792l0.21261,3.93342c0,1.01584 0.05905,2.04349 0.17718,3.08295c0,1.91355 0.03544,3.08295 0.10631,3.50818c0.09449,0.40161 0.14174,0.70873 0.14174,0.92134v0.99221c0,0.7796 0.04725,1.3702 0.14174,1.77181c0,0.33074 0.11813,0.7796 0.35436,1.34658c-0.21261,0.68511 -0.25987,1.26389 -0.14174,1.73637c0.28349,0.63785 0.37798,1.31114 0.28349,2.01986c0.25987,0.47248 0.34255,1.13395 0.24805,1.98442l0.07087,0.14174l0.17718,0.60242c0.23624,0.80321 0.12992,1.72455 -0.31892,2.76402c-0.42524,1.01584 -1.31114,1.71276 -2.65771,2.09074c-1.32295,0.37798 -2.81127,-0.25987 -4.46496,-1.91355c0.49611,-0.35436 0.44886,-0.37798 -0.14174,-0.07087c-0.80321,-0.47248 -1.38201,-1.63007 -1.73637,-3.47275c-0.25987,-0.47248 -0.38979,-0.83865 -0.38979,-1.09852c-0.44886,-0.35436 -0.67329,-1.09852 -0.67329,-2.23248v-1.31114c-0.02362,-0.35436 -0.02362,-0.51973 0,-0.49611c-0.25987,-0.30711 -0.43705,-0.95678 -0.53155,-1.94899l0.10631,-4.1106c0,-1.27571 -0.03544,-2.27973 -0.10631,-3.01208v-4.1106c-0.11813,-1.32295 -0.17718,-2.36241 -0.17718,-3.11839c0,-0.75598 0.14174,-2.19705 0.42524,-4.32321c0,0.04725 -0.07087,-0.10631 -0.21261,-0.46068c0.14174,-0.7796 0.21261,-1.68912 0.21261,-2.72858zM356.90255,67.19003c-0.73234,3.89798 -1.09852,5.89423 -1.09852,5.98871c0.02362,0.09449 -0.04725,0.189 -0.21261,0.28349c-0.16536,0.07087 -0.30711,-0.03544 -0.42524,-0.31892c0.40161,-0.16536 0.72054,-0.5906 0.95678,-1.27571l1.55919,-2.37423c0.25987,0.16536 0.2953,0 0.10631,-0.49611c0.33074,-0.5906 0.64966,-1.27571 0.95678,-2.05529c0.33074,-0.35436 0.55516,-0.75598 0.67329,-1.20483c0.54336,-1.06308 0.85047,-1.74819 0.92134,-2.05529c0.30711,-0.09449 0.57879,-0.49611 0.81503,-1.20483c0.25987,-0.70873 0.12992,-0.96859 -0.38979,-0.7796c-0.21261,-0.80321 -0.23624,-1.22845 -0.07087,-1.27571c0,0.189 -0.24805,0.09449 -0.74416,-0.28349c-0.47248,-0.40161 -0.61423,-0.28349 -0.42524,0.35436c-0.42524,-0.70873 -0.62604,-0.74416 -0.60242,-0.10631c0.04725,0.61423 -0.05905,1.35839 -0.31892,2.23248c-0.47248,1.01584 -0.81503,1.48832 -1.02765,1.41745zM369.73046,56.4883l-0.17718,3.7208c0,0.14174 -0.01182,0.42524 -0.03544,0.85047l0.03544,4.28778l0.38979,3.57905c0,0.37798 0.05905,0.90952 0.17718,1.59463c0.11813,0.68511 0.17718,1.09852 0.17718,1.24026c0.16536,1.86631 0.36618,3.01208 0.60242,3.43731c0.30711,1.29932 0.41342,2.23248 0.31892,2.79946c-0.07087,0.54336 -0.46068,1.21664 -1.16939,2.01986c-2.26792,0.75598 -3.70899,0.94496 -4.32321,0.56698c-0.5906,-0.09449 -1.20483,-0.40161 -1.84268,-0.92134c-0.61423,-0.51973 -0.74416,-1.11034 -0.38979,-1.77181c-0.63785,0.40161 -1.21664,-0.35436 -1.73637,-2.26792c0.49611,-0.11813 0.44886,-0.47248 -0.14174,-1.06308c-0.23624,-0.44886 0.01182,-0.76778 0.74416,-0.95678c0.04725,0.80321 0.14174,1.27571 0.28349,1.41745c0.14174,0.14174 0.16536,0.28349 0.07087,0.42524c-0.09449,0.11813 -0.16536,0.21261 -0.21261,0.28349c-0.09449,0.25987 -0.31892,0.64966 -0.67329,1.16939c-0.14174,0.23624 -0.37798,0.68511 -0.70873,1.34658c-1.22845,1.4647 -2.88215,2.19705 -4.96107,2.19705c-2.14979,0 -3.81529,-0.66147 -4.9965,-1.98442c-0.51973,0.56698 -0.73234,0.54336 -0.63785,-0.07087c-0.25987,0.23624 -0.62604,0.23624 -1.09852,0c-0.89772,-0.68511 -1.4765,-1.78363 -1.73637,-3.29557c-0.28349,-0.09449 -0.42524,-0.33074 -0.42524,-0.70873l-0.07087,-0.49611c0,-0.47248 -0.03544,-0.79142 -0.10631,-0.95678c0,-0.89772 0.22443,-2.37423 0.67329,-4.42952l2.01986,-5.45718c0,-0.42524 0.21261,-1.16939 0.63785,-2.23248c0.54336,-1.60645 0.98039,-2.64589 1.31114,-3.11839c0,-0.47248 0.62604,-1.45289 1.87812,-2.94121c0.25987,-0.68511 0.83865,-1.13395 1.73637,-1.34658c1.63007,-0.37798 3.01208,-0.38979 4.14603,-0.03544c0.25987,0 0.51973,0.05905 0.7796,0.17718c0.25987,0.09449 0.49611,0.16536 0.70873,0.21261c0.40161,0.09449 1.02765,0.38979 1.87812,0.8859c0.16536,0.14174 0.04725,0.47248 -0.35436,0.99221c-0.09449,-4.20509 -0.11813,-6.61475 -0.07087,-7.22899c0.09449,-0.63785 0.36618,-1.78363 0.81503,-3.43731l0.24805,-1.87812c0.33074,-1.20483 0.70873,-2.14979 1.13395,-2.83489c0.07087,-0.56698 0.46068,-1.0749 1.16939,-1.52376c1.01584,-0.99221 2.48053,-0.7796 4.39409,0.63785c-0.07087,0.21261 0.16536,0.37798 0.70873,0.49611c0.73234,0.23624 1.25208,0.67329 1.55919,1.31114c0.23624,0.92134 0.2953,1.80724 0.17718,2.65771c0,0.96859 -0.15356,2.19705 -0.46068,3.68536c-0.28349,1.4647 -0.57879,2.64589 -0.8859,3.54362c-0.28349,1.32295 -0.80321,3.1302 -1.55919,5.42174z" data-paper-data="{&quot;origPos&quot;:null}"/></g></g></svg>