<svg version="1.1" xmlns="http://www.w3.org/2000/svg" xmlns:xlink="http://www.w3.org/1999/xlink" width="698" height="928"><g transform="translate(207,-3)"><g data-paper-data="{&quot;isPaintingLayer&quot;:true}" fill="none" fill-rule="nonzero" stroke="none" stroke-width="none" stroke-linecap="butt" stroke-linejoin="miter" stroke-miterlimit="10" stroke-dasharray="" stroke-dashoffset="0" font-family="none" font-weight="none" font-size="none" text-anchor="none" style="mix-blend-mode: normal"><path d="M-207,399.2v-396.2h267v396.2z" data-paper-data="{&quot;origPos&quot;:null}" fill="#d1b694" stroke-width="0"/><path d="M28,434.8v-298h118v298z" data-paper-data="{&quot;origPos&quot;:null}" fill="#d1b694" stroke-width="0"/><path d="M74.66346,281.85649l5.66428,-150.41586l16.20488,-1.78541l15.51267,14.47821l21.10021,-10.70383l-5.66428,150.41586z" data-paper-data="{&quot;origPos&quot;:null,&quot;origRot&quot;:0}" fill="#696053" stroke-width="0"/><path d="M74.66345,281.85648l5.66428,-150.41586l16.20488,-1.7854l15.51267,14.47821z" data-paper-data="{&quot;origPos&quot;:null,&quot;origRot&quot;:0}" fill="#696053" stroke-width="0"/><path d="M82.90018,270.89152l5.66428,-150.41586l16.20488,-1.78541l15.51267,14.47821l21.10021,-10.70383l-5.66428,150.41586z" data-paper-data="{&quot;origPos&quot;:null,&quot;origRot&quot;:0}" fill="#8b7f6e" stroke-width="0"/><path d="M69.66328,414.11363l5.66428,-150.41586l16.20488,-1.78541l15.51267,14.47821l21.10021,-10.70383l-5.66428,150.41586z" data-paper-data="{&quot;origPos&quot;:null,&quot;origRot&quot;:0}" fill="#696053" stroke-width="0"/><path d="M69.66326,414.11361l5.66428,-150.41586l16.20488,-1.7854l15.51267,14.47821z" data-paper-data="{&quot;origPos&quot;:null,&quot;origRot&quot;:0}" fill="#696053" stroke-width="0"/><path d="M77.89999,403.14864l5.66428,-150.41586l16.20488,-1.78541l15.51267,14.47821l21.10021,-10.70383l-5.66428,150.41586z" data-paper-data="{&quot;origPos&quot;:null,&quot;origRot&quot;:0}" fill="#8b7f6e" stroke-width="0"/><path d="M65.20364,536.17959l5.66428,-150.41586l16.20488,-1.78541l15.51267,14.47821l21.10021,-10.70383l-5.66428,150.41586z" data-paper-data="{&quot;origPos&quot;:null,&quot;origRot&quot;:0}" fill="#696053" stroke-width="0"/><path d="M65.20362,536.17959l5.66428,-150.41586l16.20488,-1.7854l15.51267,14.47821z" data-paper-data="{&quot;origPos&quot;:null,&quot;origRot&quot;:0}" fill="#696053" stroke-width="0"/><path d="M73.44035,525.21462l5.66428,-150.41586l16.20488,-1.78541l15.51267,14.47821l21.10021,-10.70383l-5.66428,150.41586z" data-paper-data="{&quot;origPos&quot;:null,&quot;origRot&quot;:0}" fill="#8b7f6e" stroke-width="0"/><path d="M133.90018,262.89152l5.66428,-150.41586l16.20488,-1.78541l15.51267,14.47821l21.10021,-10.70383l-5.66428,150.41586z" data-paper-data="{&quot;origPos&quot;:null,&quot;origRot&quot;:0}" fill="#8b7f6e" stroke-width="0"/><path d="M128.89999,395.14864l5.66428,-150.41586l16.20488,-1.78541l15.51267,14.47821l21.10021,-10.70383l-5.66428,150.41586z" data-paper-data="{&quot;origPos&quot;:null,&quot;origRot&quot;:0}" fill="#8b7f6e" stroke-width="0"/><path d="M112.20364,528.17959l5.66428,-150.41586l16.20488,-1.78541l15.51267,14.47821l21.10021,-10.70383l-5.66428,150.41586z" data-paper-data="{&quot;origPos&quot;:null,&quot;origRot&quot;:0}" fill="#696053" stroke-width="0"/><path d="M112.20362,528.17959l5.66428,-150.41586l16.20488,-1.7854l15.51267,14.47821z" data-paper-data="{&quot;origPos&quot;:null,&quot;origRot&quot;:0}" fill="#696053" stroke-width="0"/><path d="M120.44035,517.21462l5.66428,-150.41586l16.20488,-1.78541l15.51267,14.47821l21.10021,-10.70383l-5.66428,150.41586z" data-paper-data="{&quot;origPos&quot;:null,&quot;origRot&quot;:0}" fill="#8b7f6e" stroke-width="0"/><path d="M109,931v-717.5h30v717.5z" data-paper-data="{&quot;origPos&quot;:null}" fill="#8b7f6e" stroke-width="0"/><path d="M9,281.33339c0,-5.52285 4.47715,-10 10,-10c5.52285,0 10,4.47715 10,10c0,5.52285 -4.47715,10 -10,10c-5.52285,0 -10,-4.47715 -10,-10z" data-paper-data="{&quot;origPos&quot;:null}" fill="#b39d7f" stroke-width="0.5"/><path d="M248,32.33339c0,-5.52285 4.47715,-10 10,-10c5.52285,0 10,4.47715 10,10c0,5.52285 -4.47715,10 -10,10c-5.52285,0 -10,-4.47715 -10,-10z" data-paper-data="{&quot;origPos&quot;:null}" fill="#b39d7f" stroke-width="0.5"/><path d="M51.05629,171.33339c0,-2.76142 2.58055,-5 5.76382,-5c3.18326,0 5.76382,2.23858 5.76382,5c0,2.76142 -2.58055,5 -5.76382,5c-3.18326,0 -5.76382,-2.23858 -5.76382,-5z" data-paper-data="{&quot;origPos&quot;:null}" fill="#c0a988" stroke-width="0.5"/><path d="M23.05629,38.33338c0,-2.76142 2.58055,-5 5.76382,-5c3.18326,0 5.76382,2.23858 5.76382,5c0,2.76142 -2.58055,5 -5.76382,5c-3.18326,0 -5.76382,-2.23858 -5.76382,-5z" data-paper-data="{&quot;origPos&quot;:null}" fill="#c0a988" stroke-width="0.5"/><path d="M374.05629,59.33339c0,-2.76142 2.58055,-5 5.76382,-5c3.18326,0 5.76382,2.23858 5.76382,5c0,2.76142 -2.58055,5 -5.76382,5c-3.18326,0 -5.76382,-2.23858 -5.76382,-5z" data-paper-data="{&quot;origPos&quot;:null}" fill="#c0a988" stroke-width="0.5"/><path d="M438,121.8v-18h53c0,0 0,7.92658 0,13c0,1.95131 -4.03951,5 -6.625,5c-7.75647,0 -46.375,0 -46.375,0z" data-paper-data="{&quot;origPos&quot;:null}" fill="#8b7f6e" stroke-width="0"/><path d="M197,125.3c0,-9.66498 7.83502,-17.5 17.5,-17.5c9.66498,0 17.5,7.83502 17.5,17.5c0,9.66498 -7.83502,17.5 -17.5,17.5c-9.66498,0 -17.5,-7.83502 -17.5,-17.5z" data-paper-data="{&quot;origPos&quot;:null}" fill="#737373" stroke-width="0.5"/></g></g></svg>