<svg version="1.1" xmlns="http://www.w3.org/2000/svg" xmlns:xlink="http://www.w3.org/1999/xlink" width="645.58893" height="986.3647"><g transform="translate(62.58893,-85.14148)"><g data-paper-data="{&quot;isPaintingLayer&quot;:true}" fill="none" fill-rule="nonzero" stroke="none" stroke-width="none" stroke-linecap="butt" stroke-linejoin="miter" stroke-miterlimit="10" stroke-dasharray="" stroke-dashoffset="0" font-family="none" font-weight="none" font-size="none" text-anchor="none" style="mix-blend-mode: normal"><g data-paper-data="{&quot;origPos&quot;:null,&quot;origRot&quot;:0}" stroke="none" stroke-width="0"><path d="M288.22248,371.27025l45.27276,-42.36008l5.46582,5.84165c0,0 -12.46654,11.66449 -20.44576,19.13036c-1.42486,1.33319 -0.31742,8.51386 -1.74228,9.84705c-3.13469,2.93302 -6.80632,-1.84844 -9.94101,1.08458c-5.1295,4.79949 -13.14371,12.29809 -13.14371,12.29809z" data-paper-data="{&quot;origPos&quot;:null,&quot;origRot&quot;:0}" fill="#5a5348"/><path d="M288.22248,371.27025l45.27276,-42.36008l5.46582,5.84165c0,0 -12.46654,11.66449 -20.44576,19.13036c-1.42486,1.33319 -8.5486,7.99862 -11.68329,10.93163c-5.1295,4.79949 -13.14371,12.29809 -13.14371,12.29809z" data-paper-data="{&quot;origPos&quot;:null,&quot;origRot&quot;:0}" fill="#6e6658"/></g><path d="M293,340.80001v-13c0,0 92.68005,5 152,5c53.85627,0 138,-5 138,-5v13c0,0 -84.14373,5 -138,5c-59.31995,0 -152,-5 -152,-5z" data-paper-data="{&quot;origPos&quot;:null}" fill="#23211c" stroke="none" stroke-width="0"/><path d="M288,335.8v-13c0,0 92.68005,5 152,5c53.85627,0 138,-5 138,-5v13c0,0 -84.14373,5 -138,5c-59.31995,0 -152,-5 -152,-5z" data-paper-data="{&quot;origPos&quot;:null}" fill="#58534a" stroke="none" stroke-width="0"/><path d="M145.2709,191.90559c0,0 52.91171,-7.23424 65.78566,0.57693c14.44445,8.76404 4.01434,28.09497 4.01434,28.09497l-69.8,13.8v-42.47191z" data-paper-data="{&quot;origPos&quot;:null,&quot;index&quot;:null}" fill="#696969" stroke="none" stroke-width="0"/><path d="M171.04977,215.97368c15.6968,9.5239 44.22109,4.40381 44.22109,4.40381c0,0 -8.09174,14 -13.27086,14c-15.53737,0 -56.72914,0 -56.72914,0v-42.47191c0,0 14.15731,17.01679 25.77891,24.0681z" data-paper-data="{&quot;origPos&quot;:null,&quot;index&quot;:null}" fill="#727272" stroke="none" stroke-width="0"/><path d="M146.2709,379.37748v-42.47191h70c0,0 -10.76989,23.13093 -25.21434,31.89497c-12.87395,7.81117 -44.78566,10.57693 -44.78566,10.57693z" data-paper-data="{&quot;origPos&quot;:null}" fill="#696969" stroke="none" stroke-width="0"/><path d="M146.27086,379.37749v-42.47191h70c0,0 -28.52429,8.87991 -44.22109,18.40381c-11.6216,7.05131 -25.77891,24.0681 -25.77891,24.0681z" data-paper-data="{&quot;origPos&quot;:null}" fill="#727272" stroke="none" stroke-width="0"/><path d="M387.095,129.82881c3.61262,7.09099 7.87,14.16158 11.73707,21.23681c8.3682,15.31049 16.73637,30.62099 25.10458,45.93149c2.68259,4.90807 -1.25205,-11.13695 0.57285,-6.16829c0,0 -3.29154,21 -9.23861,21c-17.84118,0 -266.62068,0 -266.62068,0c-0.79188,-3.92237 -1.41508,-7.84773 -1.73348,-11.77945c-1.5102,-18.64747 -1.77841,-37.34587 -4.56726,-55.98003c-0.70981,-4.74273 -1.97724,-9.49208 -3.46043,-14.24052z" data-paper-data="{&quot;origPos&quot;:null}" fill="#949494" stroke="#6f6f6f" stroke-width="10"/><path d="M435.32273,206.11893c0.22575,0.76094 0.44706,1.52227 0.66445,2.28394c0,0 -37.6307,0 -61.71627,0c-72.2567,0 -219.67641,0 -219.67641,0c-0.10218,-0.7612 -0.20031,-1.52252 -0.29396,-2.28394z" data-paper-data="{&quot;origPos&quot;:null}" fill="#666666" stroke="none" stroke-width="0"/><path d="M141.71864,187.37749v-83h282.50746v83z" data-paper-data="{&quot;origPos&quot;:null}" fill="#a4cf93" stroke="#708569" stroke-width="10"/><path d="M87.27087,111.71083v-3.33333h323.4262v3.33333z" data-paper-data="{&quot;origPos&quot;:null}" fill="#65815b" stroke="none" stroke-width="0"/><path d="M129.6606,186.37749v-47h304.92869v47z" data-paper-data="{&quot;origPos&quot;:null}" fill="#9dc78d" stroke="none" stroke-width="0"/><path d="M131.3422,192.3775v-26h304.92869v26z" data-paper-data="{&quot;origPos&quot;:null}" fill="#97be87" stroke="none" stroke-width="0"/><g data-paper-data="{&quot;origPos&quot;:null,&quot;origRot&quot;:0,&quot;index&quot;:null}" fill="#696053" stroke="none" stroke-width="0"><path d="M93.99287,254.65849l-7.22523,-150.34896l15.99272,-3.16526l16.69447,13.09795l20.10709,-12.4698l7.22523,150.34896z" data-paper-data="{&quot;origPos&quot;:null,&quot;origRot&quot;:0}"/><path d="M93.99285,254.65849l-7.22523,-150.34896l15.99272,-3.16525l16.69447,13.09795z" data-paper-data="{&quot;origPos&quot;:null,&quot;origRot&quot;:0}"/></g><g data-paper-data="{&quot;origPos&quot;:null,&quot;origRot&quot;:0,&quot;index&quot;:null}" stroke="none" stroke-width="0"><path d="M101.26128,244.02904l-7.22523,-150.34896l15.99272,-3.16526l16.69447,13.09795l20.10709,-12.4698l7.22523,150.34896z" data-paper-data="{&quot;origPos&quot;:null,&quot;origRot&quot;:0}" fill="#8b7f6e"/><path d="M101.26126,244.02904l-7.22523,-150.34896l15.99272,-3.16525l16.69447,13.09795z" data-paper-data="{&quot;origPos&quot;:null,&quot;origRot&quot;:0}" fill="#817666"/></g><g data-paper-data="{&quot;origPos&quot;:null,&quot;origRot&quot;:0,&quot;index&quot;:null}" fill="#696053" stroke="none" stroke-width="0"><path d="M100.99287,387.8585l-7.22523,-150.34896l15.99272,-3.16526l16.69447,13.09795l20.10709,-12.4698l7.22523,150.34896z" data-paper-data="{&quot;origPos&quot;:null,&quot;origRot&quot;:0}"/><path d="M100.99285,387.85847l-7.22523,-150.34896l15.99272,-3.16525l16.69447,13.09795z" data-paper-data="{&quot;origPos&quot;:null,&quot;origRot&quot;:0}"/></g><g data-paper-data="{&quot;origPos&quot;:null,&quot;origRot&quot;:0,&quot;index&quot;:null}" fill="#696053" stroke="none" stroke-width="0"><path d="M393.4272,216.31283l9.33689,-124.86043l14.14748,-1.02994l13.06856,12.46827l18.66697,-8.3054l-9.33689,105.86043z" data-paper-data="{&quot;origPos&quot;:null,&quot;origRot&quot;:0}"/><path d="M393.4272,216.31283l9.33689,-124.86043l14.14748,-1.02994l13.06857,12.46827z" data-paper-data="{&quot;origPos&quot;:null,&quot;origRot&quot;:0}"/></g><g data-paper-data="{&quot;origPos&quot;:null,&quot;origRot&quot;:0,&quot;index&quot;:null}" stroke="none" stroke-width="0"><path d="M392.93146,216.88617l15.58689,-130.66685l14.14748,-1.07784l13.06857,13.04808l18.66697,-8.69163c0,0 -8.97988,112.41641 -9.17158,113.63029c-0.0639,0.40463 -0.10017,0.63212 -0.16531,1.03655c-0.41857,2.59874 0.28929,9.55263 -11.13039,12.40769c-2.97786,0.7445 -41.00263,0.31371 -41.00263,0.31371z" data-paper-data="{&quot;origPos&quot;:null,&quot;origRot&quot;:0}" fill="#8b7f6e"/><path d="M393.18147,216.88617l15.33689,-130.66685l14.14748,-1.07784l13.06857,13.04809z" data-paper-data="{&quot;origPos&quot;:null,&quot;origRot&quot;:0}" fill="#817666"/></g><g data-paper-data="{&quot;origPos&quot;:null,&quot;origRot&quot;:0,&quot;index&quot;:null}" fill="#696053" stroke="none" stroke-width="0"><path d="M106.99287,516.05849l-7.22523,-150.34896l15.99272,-3.16526l16.69447,13.09795l20.10709,-12.4698l7.22523,150.34896z" data-paper-data="{&quot;origPos&quot;:null,&quot;origRot&quot;:0}"/><path d="M106.99285,516.05848l-7.22523,-150.34896l15.99272,-3.16525l16.69447,13.09795z" data-paper-data="{&quot;origPos&quot;:null,&quot;origRot&quot;:0}"/></g><path d="M113.59461,504.42903l-7.22523,-150.34896l15.99272,-3.16526l16.69447,13.09795l20.10709,-12.4698l7.22523,150.34896z" data-paper-data="{&quot;origPos&quot;:null,&quot;origRot&quot;:0}" fill="#8b7f6e" stroke="none" stroke-width="0"/><path d="M107.59461,376.22904l-7.22523,-150.34896l15.99272,-3.16526l16.69447,13.09795l20.10709,-12.4698l7.22523,150.34896z" data-paper-data="{&quot;origPos&quot;:null,&quot;origRot&quot;:0}" fill="#8b7f6e" stroke="none" stroke-width="0"/><path d="M166,125.8c0,-2.76142 2.23858,-5 5,-5c2.76142,0 5,2.23858 5,5c0,2.76142 -2.23858,5 -5,5c-2.76142,0 -5,-2.23858 -5,-5z" fill="#9dc78d" stroke="none" stroke-width="0.5"/><path d="M282,127.8c0,-2.76142 2.23858,-5 5,-5c2.76142,0 5,2.23858 5,5c0,2.76142 -2.23858,5 -5,5c-2.76142,0 -5,-2.23858 -5,-5z" fill="#9dc78d" stroke="none" stroke-width="0.5"/><path d="M254,131.8c0,-2.76142 2.23858,-5 5,-5c2.76142,0 5,2.23858 5,5c0,2.76142 -2.23858,5 -5,5c-2.76142,0 -5,-2.23858 -5,-5z" fill="#9dc78d" stroke="none" stroke-width="0.5"/><g data-paper-data="{&quot;origPos&quot;:null}" stroke="none" stroke-width="0"><g data-paper-data="{&quot;origPos&quot;:null}"><g data-paper-data="{&quot;origPos&quot;:null,&quot;origRot&quot;:0,&quot;index&quot;:null}" fill="#696053"><path d="M-47.87303,333.3436l-5.59528,-167.53312l23.44693,12.01997l17.34383,-16.04975l18.03763,2.06504l5.59526,167.53312z" data-paper-data="{&quot;origPos&quot;:null,&quot;origRot&quot;:0}"/><path d="M-30.02135,177.83046l17.34383,-16.04975l18.03763,2.06502l5.59526,167.53312z" data-paper-data="{&quot;origPos&quot;:null,&quot;origRot&quot;:0}"/></g><g data-paper-data="{&quot;origPos&quot;:null,&quot;origRot&quot;:0,&quot;index&quot;:null}"><path d="M-56.99367,321.09376l-5.59526,-167.53312l23.44693,12.01997l17.34383,-16.04975l18.03764,2.06504l5.59526,167.53312z" data-paper-data="{&quot;origPos&quot;:null,&quot;origRot&quot;:0}" fill="#8b7f6e"/><path d="M-39.14199,165.58061l17.34383,-16.04975l18.03764,2.06502l5.59526,167.53312z" data-paper-data="{&quot;origPos&quot;:null,&quot;origRot&quot;:0}" fill="#817666"/></g><g data-paper-data="{&quot;origPos&quot;:null,&quot;origRot&quot;:0,&quot;index&quot;:null}" fill="#696053"><path d="M-43.58069,481.82196l-5.59528,-167.53312l23.44693,12.01997l17.34383,-16.04975l18.03763,2.06503l5.59526,167.53312z" data-paper-data="{&quot;origPos&quot;:null,&quot;origRot&quot;:0}"/><path d="M-25.72901,326.30881l17.34383,-16.04975l18.03763,2.06503l5.59526,167.53312z" data-paper-data="{&quot;origPos&quot;:null,&quot;origRot&quot;:0}"/></g><path d="M-51.96136,469.51174l-5.59528,-167.53312l23.44693,12.01997l17.34383,-16.04975l18.03763,2.06504l5.59526,167.53312z" data-paper-data="{&quot;origPos&quot;:null,&quot;origRot&quot;:0}" fill="#8b7f6e"/></g><g data-paper-data="{&quot;origPos&quot;:null}"><g data-paper-data="{&quot;origPos&quot;:null,&quot;origRot&quot;:0,&quot;index&quot;:null}" fill="#696053"><path d="M-37.87303,639.3436l-5.59528,-167.53312l23.44693,12.01997l17.34383,-16.04975l18.03763,2.06504l5.59526,167.53312z" data-paper-data="{&quot;origPos&quot;:null,&quot;origRot&quot;:0}"/><path d="M-20.02135,483.83046l17.34383,-16.04975l18.03763,2.06502l5.59526,167.53312z" data-paper-data="{&quot;origPos&quot;:null,&quot;origRot&quot;:0}"/></g><g data-paper-data="{&quot;origPos&quot;:null,&quot;origRot&quot;:0,&quot;index&quot;:null}"><path d="M-46.99367,627.09376l-5.59526,-167.53312l23.44693,12.01997l17.34383,-16.04975l18.03764,2.06504l5.59526,167.53312z" data-paper-data="{&quot;origPos&quot;:null,&quot;origRot&quot;:0}" fill="#8b7f6e"/><path d="M-29.14199,471.58061l17.34383,-16.04975l18.03764,2.06502l5.59526,167.53312z" data-paper-data="{&quot;origPos&quot;:null,&quot;origRot&quot;:0}" fill="#817666"/></g><g data-paper-data="{&quot;origPos&quot;:null,&quot;origRot&quot;:0,&quot;index&quot;:null}" fill="#696053"><path d="M-33.58069,787.82196l-5.59528,-167.53312l23.44693,12.01997l17.34383,-16.04975l18.03763,2.06503l5.59526,167.53312z" data-paper-data="{&quot;origPos&quot;:null,&quot;origRot&quot;:0}"/><path d="M-15.72901,632.30881l17.34383,-16.04975l18.03763,2.06503l5.59526,167.53312z" data-paper-data="{&quot;origPos&quot;:null,&quot;origRot&quot;:0}"/></g><path d="M-41.96136,775.51174l-5.59528,-167.53312l23.44693,12.01997l17.34383,-16.04975l18.03763,2.06504l5.59526,167.53312z" data-paper-data="{&quot;origPos&quot;:null,&quot;origRot&quot;:0}" fill="#8b7f6e"/></g></g><g data-paper-data="{&quot;origPos&quot;:null,&quot;index&quot;:null}" stroke="none" stroke-width="0"><g data-paper-data="{&quot;origPos&quot;:null,&quot;index&quot;:null,&quot;origRot&quot;:0}"><path d="M249.77925,483.39076l-0.24616,-150.52227l20.70124,11.45643l16.02378,-13.91043l16.13011,2.36757l0.24616,150.52227z" data-paper-data="{&quot;origPos&quot;:null,&quot;origRot&quot;:0}" fill="#696053"/><path d="M270.23434,344.32493l16.02378,-13.91043l16.13011,2.36756l0.24616,150.52227z" data-paper-data="{&quot;origPos&quot;:null,&quot;origRot&quot;:0}" fill="#696053"/><path d="M241.94258,472.1364l-0.24616,-150.52227l20.70124,11.45643l16.02378,-13.91043l16.13011,2.36757l0.24616,150.52227z" data-paper-data="{&quot;origPos&quot;:null,&quot;origRot&quot;:0}" fill="#8b7f6e"/><path d="M262.39767,333.07056l16.02378,-13.91043l16.13011,2.36756l0.24616,150.52227z" data-paper-data="{&quot;origPos&quot;:null,&quot;origRot&quot;:0}" fill="#817666"/><path d="M249.39919,616.774l-0.24616,-150.52227l20.70124,11.45643l16.02378,-13.91043l16.13011,2.36757l0.24616,150.52227z" data-paper-data="{&quot;origPos&quot;:null,&quot;origRot&quot;:0}" fill="#696053"/><path d="M269.85428,477.70816l16.02378,-13.91043l16.13011,2.36756l0.24616,150.52227z" data-paper-data="{&quot;origPos&quot;:null,&quot;origRot&quot;:0}" fill="#696053"/><path d="M249.76972,745.11383l-0.24616,-150.52227l20.70124,11.45643l16.02378,-13.91043l16.13011,2.36757l0.24616,150.52227z" data-paper-data="{&quot;origPos&quot;:null,&quot;origRot&quot;:0}" fill="#696053"/><path d="M270.22481,606.048l16.02378,-13.91043l16.13011,2.36756l0.24616,150.52227z" data-paper-data="{&quot;origPos&quot;:null,&quot;origRot&quot;:0}" fill="#696053"/><path d="M242.59889,733.82637l-0.24616,-150.52227l20.70124,11.45643l16.02378,-13.91043l16.13011,2.36757l0.24616,150.52227z" data-paper-data="{&quot;origPos&quot;:null,&quot;origRot&quot;:0}" fill="#8b7f6e"/><path d="M242.22836,605.48657l-0.24616,-150.52227l20.70124,11.45643l16.02378,-13.91043l16.13011,2.36757l0.24616,150.52227z" data-paper-data="{&quot;origPos&quot;:null,&quot;origRot&quot;:0}" fill="#8b7f6e"/></g><g data-paper-data="{&quot;origPos&quot;:null,&quot;index&quot;:null,&quot;origRot&quot;:0}"><path d="M249.9798,809.78312l-0.24616,-150.52227l20.70124,11.45643l16.02378,-13.91043l16.13011,2.36757l0.24616,150.52227z" data-paper-data="{&quot;origPos&quot;:null,&quot;origRot&quot;:0}" fill="#696053"/><path d="M270.4349,670.71728l16.02378,-13.91043l16.13011,2.36756l0.24616,150.52227z" data-paper-data="{&quot;origPos&quot;:null,&quot;origRot&quot;:0}" fill="#696053"/><path d="M242.14313,798.52877l-0.24616,-150.52227l20.70124,11.45643l16.02378,-13.91043l16.13011,2.36757l0.24616,150.52227z" data-paper-data="{&quot;origPos&quot;:null,&quot;origRot&quot;:0}" fill="#8b7f6e"/><path d="M262.59822,659.46291l16.02378,-13.91043l16.13011,2.36756l0.24616,150.52227z" data-paper-data="{&quot;origPos&quot;:null,&quot;origRot&quot;:0}" fill="#817666"/><path d="M249.59974,943.16638l-0.24616,-150.52227l20.70124,11.45643l16.02378,-13.91043l16.13011,2.36757l0.24616,150.52227z" data-paper-data="{&quot;origPos&quot;:null,&quot;origRot&quot;:0}" fill="#696053"/><path d="M270.05483,804.10054l16.02378,-13.91043l16.13011,2.36756l0.24616,150.52227z" data-paper-data="{&quot;origPos&quot;:null,&quot;origRot&quot;:0}" fill="#696053"/><path d="M249.97027,1071.50618l-0.24616,-150.52227l20.70124,11.45643l16.02378,-13.91043l16.13011,2.36757l0.24616,150.52227z" data-paper-data="{&quot;origPos&quot;:null,&quot;origRot&quot;:0}" fill="#696053"/><path d="M270.42537,932.44035l16.02378,-13.91043l16.13011,2.36756l0.24616,150.52227z" data-paper-data="{&quot;origPos&quot;:null,&quot;origRot&quot;:0}" fill="#696053"/><path d="M242.79945,1060.21872l-0.24616,-150.52227l20.70124,11.45643l16.02378,-13.91043l16.13011,2.36757l0.24616,150.52227z" data-paper-data="{&quot;origPos&quot;:null,&quot;origRot&quot;:0}" fill="#8b7f6e"/><path d="M242.42891,931.87894l-0.24616,-150.52227l20.70124,11.45643l16.02378,-13.91043l16.13011,2.36757l0.24616,150.52227z" data-paper-data="{&quot;origPos&quot;:null,&quot;origRot&quot;:0}" fill="#8b7f6e"/></g></g></g></g></svg>