<svg version="1.1" xmlns="http://www.w3.org/2000/svg" xmlns:xlink="http://www.w3.org/1999/xlink" width="152.00002" height="134.71999"><g transform="translate(-353.50203,-85.08005)"><g data-paper-data="{&quot;isPaintingLayer&quot;:true}" fill="none" fill-rule="nonzero" stroke="none" stroke-width="none" stroke-linecap="none" stroke-linejoin="miter" stroke-miterlimit="10" stroke-dasharray="" stroke-dashoffset="0" font-family="none" font-weight="none" font-size="none" text-anchor="none" style="mix-blend-mode: normal"><g data-paper-data="{&quot;origPos&quot;:null,&quot;index&quot;:null}"><path d="M390.79458,145.30289h12.92727" data-paper-data="{&quot;origPos&quot;:null,&quot;index&quot;:null}" fill="none" stroke="#88ac7a" stroke-width="15" stroke-linecap="round"/><g data-paper-data="{&quot;origPos&quot;:null}"><path d="M370.67273,126.87294h11.41784" data-paper-data="{&quot;origPos&quot;:null,&quot;index&quot;:null}" fill="none" stroke="#88ac7a" stroke-width="17" stroke-linecap="round"/><path d="M369.03569,126.50707l-0.47575,-32.92702" data-paper-data="{&quot;origPos&quot;:null,&quot;index&quot;:null}" fill="none" stroke="#94bc85" stroke-width="17" stroke-linecap="round"/><path d="M386.49528,99.12016l1.56143,75.67989" data-paper-data="{&quot;origPos&quot;:null,&quot;index&quot;:null}" fill="none" stroke="#9dc78d" stroke-width="15" stroke-linecap="round"/><path d="M387.09941,183.79491c0,0 -2.29179,-33.35131 1.80921,-61.80229c1.30059,-9.02296 -2.36525,-30.39771 -2.36525,-30.39771c0,0 2.90183,0.70027 4.40322,1.85284c1.80328,1.38433 2.08386,5.34716 2.08386,5.34716l2.78018,93.8z" data-paper-data="{&quot;origPos&quot;:null}" fill="#97be87" stroke="none" stroke-width="0" stroke-linecap="butt"/><path d="M405.73398,109.67772l0.76805,32.92702" data-paper-data="{&quot;origPos&quot;:null,&quot;index&quot;:null}" fill="none" stroke="#94bc85" stroke-width="17" stroke-linecap="round"/></g></g><g data-paper-data="{&quot;origPos&quot;:null,&quot;index&quot;:null}" stroke="none" stroke-width="0" stroke-linecap="butt"><path d="M380.08951,198.22911c0,0 8.77228,-31.60396 18.56105,-31.60396c11.4813,0 22.26965,-2.31009 32.93373,1.94407c13.04797,5.20515 18.84903,-1.62767 29.77877,7.19753c4.83485,3.90389 12.53502,22.46235 12.53502,22.46235z" data-paper-data="{&quot;index&quot;:null,&quot;origPos&quot;:null}" fill="#dbcfbd"/><path d="M400.1555,188.19611c0,0 8.77229,-31.60396 18.56106,-31.60396c11.48131,0 22.26966,-2.31009 32.93374,1.94407c13.04797,5.20515 18.84903,-1.62766 29.77877,7.19754c4.83485,3.90389 12.53501,22.46235 12.53501,22.46235z" data-paper-data="{&quot;origPos&quot;:null,&quot;index&quot;:null}" fill="#d1c0a6"/><path d="M391.62745,207.25882c0,0 8.77229,-31.60396 18.56106,-31.60396c11.4813,0 22.26965,-2.31009 32.93373,1.94407c13.04797,5.20515 18.84903,-1.62766 29.77877,7.19754c4.83486,3.90389 12.53502,22.46235 12.53502,22.46235z" data-paper-data="{&quot;origPos&quot;:null,&quot;index&quot;:null}" fill="#dbcfbd"/><path d="M411.69346,197.2258c0,0 8.77229,-31.60397 18.56106,-31.60397c11.48131,0 22.26965,-2.31009 32.93373,1.94407c13.04798,5.20515 18.84904,-1.62766 29.77878,7.19754c4.83486,3.90388 12.53502,22.46235 12.53502,22.46235z" data-paper-data="{&quot;origPos&quot;:null,&quot;index&quot;:null}" fill="#d1c0a6"/><path d="M391.1258,201.23904c0,0 7.70016,-18.55847 12.53502,-22.46236c10.92973,-8.8252 16.73079,-1.99238 29.77877,-7.19753c10.66407,-4.25416 21.45242,-1.94408 32.93373,-1.94408c9.78877,0 18.56106,31.60396 18.56106,31.60396z" data-paper-data="{&quot;origPos&quot;:null}" fill="#dbcfbd"/><path d="M365.03999,196.22249c0,0 7.70015,-18.55846 12.53501,-22.46235c10.92973,-8.8252 16.73079,-1.99239 29.77877,-7.19754c10.66408,-4.25416 21.45243,-1.94407 32.93374,-1.94407c9.78877,0 18.56106,31.60396 18.56106,31.60396z" data-paper-data="{&quot;origPos&quot;:null}" fill="#d1c0a6"/><path d="M369.05319,219.80003c0,0 7.70016,-18.55846 12.53502,-22.46235c10.92973,-8.82519 16.73079,-1.99238 29.77877,-7.19753c10.66408,-4.25416 21.45242,-1.94407 32.93373,-1.94407c9.78877,0 18.56106,31.60396 18.56106,31.60396z" data-paper-data="{&quot;origPos&quot;:null}" fill="#dbcfbd"/><path d="M353.50203,205.25221c0,0 7.70016,-18.55846 12.53502,-22.46235c10.92974,-8.8252 16.7308,-1.99239 29.77878,-7.19754c10.66408,-4.25416 21.45242,-1.94407 32.93373,-1.94407c9.78877,0 18.56106,31.60396 18.56106,31.60396z" data-paper-data="{&quot;origPos&quot;:null}" fill="#d1c0a6"/></g></g></g></svg>