<svg version="1.1" xmlns="http://www.w3.org/2000/svg" xmlns:xlink="http://www.w3.org/1999/xlink" width="43.3566" height="50.6179" viewBox="0,0,43.3566,50.6179"><g transform="translate(-218.82171,-147.3077)"><g data-paper-data="{&quot;isPaintingLayer&quot;:true}" fill="none" fill-rule="nonzero" stroke="none" stroke-width="none" stroke-linecap="none" stroke-linejoin="none" stroke-miterlimit="10" stroke-dasharray="" stroke-dashoffset="0" font-family="none" font-weight="none" font-size="none" text-anchor="none" style="mix-blend-mode: normal"><path d="M241.60644,190.3374c1.40276,-0.29426 3.00773,1.12617 3.44424,1.54409c-0.03228,0.1663 0.51356,3.52188 0.51356,3.8128c0,0.9836 -0.26287,1.02258 -0.36489,1.03874c-0.96045,0.13981 -3.52009,-2.55174 -4.69497,-4.11774c-0.01616,-0.08499 -0.04601,-0.27416 -0.04601,-0.548c0,-0.62661 0.17577,-1.52673 1.14807,-1.7299z" data-paper-data="{&quot;origPos&quot;:null,&quot;index&quot;:null}" id="R_Leg" fill="#ff793d" stroke="#603813" stroke-width="1.32684" stroke-linecap="butt" stroke-linejoin="miter"/><path d="M236.56907,196.76926c-0.69629,-0.75545 -0.79562,-2.80271 -0.79562,-3.67358c0,-0.36954 0.01887,-0.61531 0.01979,-0.62295l0.00125,-0.01892c0,0 -0.00217,-0.07888 -0.00217,-0.10781c0,-1.64005 1.50998,-2.20936 1.76586,-2.29494c0.87422,0.01066 2.3854,0.42431 2.74606,1.04847c0.03654,0.06273 0.07066,0.14193 0.07066,0.24335c0,0.08899 -0.0265,0.19679 -0.10202,0.32688c-0.03504,0.05968 -0.65586,1.52672 -1.18099,2.65165l-0.37525,1.04025c-0.28087,0.90894 -0.72286,1.81852 -1.20387,1.81852c-0.38012,0.00061 -0.68874,-0.13402 -0.94369,-0.41094v0z" data-paper-data="{&quot;origPos&quot;:null,&quot;index&quot;:null}" id="Center_Leg" fill="#ff793d" stroke="#603813" stroke-width="1.32684" stroke-linecap="butt" stroke-linejoin="miter"/><path d="M256.2625,184.87968l-0.67895,-1.19803c-0.74355,-1.29492 -1.60258,-2.48049 -2.36014,-3.52409c-0.97387,-1.3442 -1.82128,-2.73508 -2.10183,-3.71776c-0.10116,-0.35396 -0.05239,-0.69176 0.09322,-0.8785c0.01399,-0.05028 0.16084,-0.13036 0.26438,-0.1517c1.2477,-0.26957 6.4124,2.69551 7.70092,4.28042c1.88767,2.32115 2.64246,5.57715 2.22151,7.21714c-0.17273,0.67014 -0.55898,1.14504 -1.11822,1.37108c-1.42958,0.57753 -2.36987,-0.46484 -4.02089,-3.39856z" data-paper-data="{&quot;origPos&quot;:null,&quot;index&quot;:null}" id="R_Arm" fill="#ff793d" stroke="#603813" stroke-width="1.32684" stroke-linecap="butt" stroke-linejoin="miter"/><path d="M235.93213,161.99788c1.83347,-0.99641 -0.05877,-4.74801 -1.8895,-8.37712c-1.00062,-1.98428 -2.78504,-5.33558 -2.20508,-5.64964c1.12189,-0.608 6.48155,5.71696 8.65434,8.26622l2.21481,2.52282c0,0 1.58339,1.94251 2.79509,3.22371c0.02134,0.02222 1.16699,-0.15565 1.95838,-0.81334c0.64515,-0.53823 0.55984,-1.14044 0.76519,-2.40703c0.18854,-1.16362 0.39326,-3.26939 1.01771,-3.28003c0.94062,-0.01432 1.55902,3.86275 1.79993,5.29898l0.13311,0.76825c0.3159,1.70824 1.96384,6.84431 2.03451,7.06208c0.02255,0.053 0.05972,0.12186 0.05972,0.12186l0.01368,0.02774l0.01888,0.02315c2.54476,3.15607 4.43729,6.98289 4.43729,10.56819c0,7.59214 -6.65513,12.93654 -15.56322,12.93654c-1.65222,0 -3.26814,-0.2315 -4.8031,-0.68661l-0.08256,-0.02374c0,0 -2.40945,-0.20257 -5.49184,3.84908c-0.61834,0.8133 -0.56324,1.57151 -1.43471,1.33815c-0.29059,-0.0777 -0.50415,-0.29125 -0.67834,-0.679c-0.41673,-0.92478 -0.1091,-3.11586 0.40024,-4.51585l0.08012,-0.21993l-0.18399,-0.14561c-0.04509,-0.03595 -5.04439,-3.67876 -5.54943,-8.89893c-0.44019,-4.55024 1.85843,-7.14098 2.81218,-8.56476l0.548,-0.9126c0.69176,-1.68298 -0.61017,-4.02361 -1.75915,-6.08888c-0.68597,-1.23306 -1.79326,-3.03238 -1.54316,-3.45522c0.27751,-0.46848 1.26932,0.03016 2.27088,0.50782c0.81211,0.38807 1.59345,0.93635 2.13594,0.57477c0.56418,-0.37559 0.19404,-1.31896 -0.31861,-2.62483c-0.48221,-1.22635 -1.39514,-3.16366 -1.04453,-3.96328c0.09655,-0.21993 0.26595,-0.37439 0.51784,-0.47215c0.93153,-0.36066 2.26326,1.20839 3.34132,2.43566c1.31501,1.4984 2.80638,3.1963 4.53808,2.25353v0z" data-paper-data="{&quot;origPos&quot;:null,&quot;index&quot;:null}" id="Body" fill="#ff793d" stroke="#603813" stroke-width="1.32684" stroke-linecap="round" stroke-linejoin="round"/><g data-paper-data="{&quot;origPos&quot;:null,&quot;index&quot;:null}" id="L_Eye" stroke="none" stroke-width="0.66342" stroke-linecap="butt" stroke-linejoin="miter"><path d="M237.46952,179.90963v0c0,-1.37011 1.1106,-2.48135 2.48108,-2.48195c1.36984,0 2.48042,1.11184 2.48042,2.48195c0,1.36925 -1.11032,2.47956 -2.48042,2.47956c-1.37016,0 -2.48108,-1.11032 -2.48108,-2.47956z" id="White_1_" fill="#ffffff"/><path d="M240.28445,178.09657c0.48156,0 0.91808,0.1956 1.23397,0.51178c0.31618,0.3159 0.51172,0.75237 0.51172,1.23397c0,0.48161 -0.19555,0.91812 -0.51172,1.23397c-0.3159,0.31622 -0.75242,0.51178 -1.23397,0.51178c-0.48161,0 -0.91812,-0.19556 -1.23396,-0.51178c-0.31622,-0.31584 -0.51179,-0.75237 -0.51179,-1.23397c0,-0.48161 0.19555,-0.91808 0.51179,-1.23397c0.31584,-0.31618 0.75235,-0.51178 1.23396,-0.51178z" id="Pupil_1_" fill="#603813"/></g><g data-paper-data="{&quot;origPos&quot;:null,&quot;index&quot;:null}" id="R_Eye" stroke="none" stroke-width="0.66342" stroke-linecap="butt" stroke-linejoin="miter"><path d="M249.42002,179.90963v0c0,-1.37011 1.11061,-2.48135 2.48136,-2.48195c1.36984,0 2.48048,1.11184 2.48048,2.48195c0,1.36925 -1.11124,2.47956 -2.48048,2.47956c-1.37075,0 -2.48136,-1.11032 -2.48136,-2.47956z" id="White" fill="#ffffff"/><path d="M250.48894,179.84231v0c0,-0.96381 0.78101,-1.74576 1.74542,-1.74576c0.96375,0 1.7457,0.78228 1.7457,1.74576c0,0.96473 -0.78193,1.7451 -1.7457,1.7451c-0.9644,0 -1.74542,-0.78101 -1.74542,-1.7451z" id="Pupil" fill="#603813"/></g><path d="M220.34063,189.48631c-0.50842,-0.3247 -0.80146,-0.86083 -0.84866,-1.55231c-0.11483,-1.69088 1.22332,-4.75315 3.50269,-6.68986c1.55658,-1.32262 7.17665,-3.29287 8.35369,-2.80033c0.09716,0.04083 0.22752,0.14565 0.23152,0.19863c0.10997,0.20957 0.09531,0.54983 -0.06888,0.87942c-0.45507,0.91506 -1.54253,2.12831 -2.74638,3.27031c-0.93574,0.89067 -1.99613,1.89649 -2.96323,3.03481l-0.88703,1.05092c-2.15878,2.58374 -3.27519,3.43846 -4.57372,2.60841z" data-paper-data="{&quot;origPos&quot;:null,&quot;index&quot;:null}" id="L_Arm" fill="#ff793d" stroke="#603813" stroke-width="1.32684" stroke-linecap="butt" stroke-linejoin="miter"/><path d="M248.23206,187.71715c0,0 -2.25811,0.00181 -3.83934,-1.3534" data-paper-data="{&quot;origPos&quot;:null,&quot;index&quot;:null}" id="Mouth" fill="none" stroke="#603813" stroke-width="1.32684" stroke-linecap="round" stroke-linejoin="round"/></g></g></svg>