<svg version="1.1" xmlns="http://www.w3.org/2000/svg" xmlns:xlink="http://www.w3.org/1999/xlink" width="1086.60444" height="911.34599"><g transform="translate(197.76949,-174.16017)"><g data-paper-data="{&quot;isPaintingLayer&quot;:true}" fill="none" fill-rule="nonzero" stroke="none" stroke-width="none" stroke-linecap="butt" stroke-linejoin="miter" stroke-miterlimit="10" stroke-dasharray="" stroke-dashoffset="0" font-family="none" font-weight="none" font-size="none" text-anchor="none" style="mix-blend-mode: normal"><path d="M839.20074,385.51193c0,0 -8.01421,-7.4986 -13.14371,-12.29809c-3.13469,-2.93302 -6.80632,1.84844 -9.94101,-1.08458c-1.42486,-1.33319 -0.31742,-8.51386 -1.74228,-9.84705c-7.97922,-7.46587 -20.44576,-19.13036 -20.44576,-19.13036l5.46582,-5.84165l45.27276,42.36008z" data-paper-data="{&quot;origPos&quot;:null,&quot;origRot&quot;:0}" fill="#5a5348" stroke="none" stroke-width="0"/><path d="M839.20074,385.51193c0,0 -8.01421,-7.4986 -13.14371,-12.29809c-3.13469,-2.93301 -10.25843,-9.59844 -11.68329,-10.93163c-7.97922,-7.46587 -20.44576,-19.13036 -20.44576,-19.13036l5.46582,-5.84165l45.27276,42.36008z" data-paper-data="{&quot;origPos&quot;:null,&quot;origRot&quot;:0}" fill="#6e6658" stroke="none" stroke-width="0"/><path d="M631.41108,358.20003c-73.57314,0 -188.52203,-5 -188.52203,-5v-13c0,0 114.94889,5 188.52204,5c81.03709,0 207.64746,-5 207.64746,-5v13c0,0 -126.61037,5 -207.64746,5z" data-paper-data="{&quot;origPos&quot;:null,&quot;index&quot;:null}" fill="#23211c" stroke="none" stroke-width="0"/><path d="M638.24158,353.20003c-73.57314,0 -188.52203,-5 -188.52203,-5v-13c0,0 114.94889,5 188.52204,5c81.03708,0 207.64746,-5 207.64746,-5v13c0,0 -126.61038,5 -207.64746,5z" data-paper-data="{&quot;origPos&quot;:null,&quot;index&quot;:null}" fill="#58534a" stroke="none" stroke-width="0"/><g data-paper-data="{&quot;origPos&quot;:null}" stroke="none" stroke-width="0"><g data-paper-data="{&quot;origPos&quot;:null,&quot;index&quot;:null,&quot;origRot&quot;:0}"><path d="M827.89699,497.30433l0.24616,-150.52227l16.13011,-2.36757l16.02378,13.91043l20.70124,-11.45643l-0.24616,150.52227z" data-paper-data="{&quot;origPos&quot;:null,&quot;origRot&quot;:0}" fill="#696053"/><path d="M827.89698,497.30433l0.24616,-150.52227l16.13011,-2.36756l16.02378,13.91043z" data-paper-data="{&quot;origPos&quot;:null,&quot;origRot&quot;:0}" fill="#696053"/><path d="M835.73366,486.04997l0.24616,-150.52227l16.13011,-2.36757l16.02378,13.91043l20.70124,-11.45643l-0.24616,150.52227z" data-paper-data="{&quot;origPos&quot;:null,&quot;origRot&quot;:0}" fill="#8b7f6e"/><path d="M835.73365,486.04996l0.24616,-150.52227l16.13011,-2.36756l16.02378,13.91043z" data-paper-data="{&quot;origPos&quot;:null,&quot;origRot&quot;:0}" fill="#817666"/><path d="M828.27705,630.68756l0.24616,-150.52227l16.13011,-2.36757l16.02378,13.91043l20.70124,-11.45643l-0.24616,150.52227z" data-paper-data="{&quot;origPos&quot;:null,&quot;origRot&quot;:0}" fill="#696053"/><path d="M828.27704,630.68756l0.24616,-150.52227l16.13011,-2.36756l16.02378,13.91043z" data-paper-data="{&quot;origPos&quot;:null,&quot;origRot&quot;:0}" fill="#696053"/><path d="M827.90652,759.0274l0.24616,-150.52227l16.13011,-2.36757l16.02378,13.91043l20.70124,-11.45643l-0.24616,150.52227z" data-paper-data="{&quot;origPos&quot;:null,&quot;origRot&quot;:0}" fill="#696053"/><path d="M827.90651,759.0274l0.24616,-150.52227l16.13011,-2.36756l16.02378,13.91043z" data-paper-data="{&quot;origPos&quot;:null,&quot;origRot&quot;:0}" fill="#696053"/><path d="M835.07735,747.73994l0.24616,-150.52227l16.13011,-2.36757l16.02378,13.91043l20.70124,-11.45643l-0.24616,150.52227z" data-paper-data="{&quot;origPos&quot;:null,&quot;origRot&quot;:0}" fill="#8b7f6e"/><path d="M835.44788,619.40014l0.24616,-150.52227l16.13011,-2.36757l16.02378,13.91043l20.70124,-11.45643l-0.24616,150.52227z" data-paper-data="{&quot;origPos&quot;:null,&quot;origRot&quot;:0}" fill="#8b7f6e"/></g><g data-paper-data="{&quot;origPos&quot;:null,&quot;index&quot;:null,&quot;origRot&quot;:0}"><path d="M827.69644,823.69669l0.24616,-150.52227l16.13011,-2.36757l16.02378,13.91043l20.70124,-11.45643l-0.24616,150.52227z" data-paper-data="{&quot;origPos&quot;:null,&quot;origRot&quot;:0}" fill="#696053"/><path d="M827.69642,823.69669l0.24616,-150.52227l16.13011,-2.36756l16.02378,13.91043z" data-paper-data="{&quot;origPos&quot;:null,&quot;origRot&quot;:0}" fill="#696053"/><path d="M835.53311,812.44234l0.24616,-150.52227l16.13011,-2.36757l16.02378,13.91043l20.70124,-11.45643l-0.24616,150.52227z" data-paper-data="{&quot;origPos&quot;:null,&quot;origRot&quot;:0}" fill="#8b7f6e"/><path d="M835.5331,812.44231l0.24616,-150.52227l16.13011,-2.36756l16.02378,13.91043z" data-paper-data="{&quot;origPos&quot;:null,&quot;origRot&quot;:0}" fill="#817666"/><path d="M828.0765,957.07995l0.24616,-150.52227l16.13011,-2.36757l16.02378,13.91043l20.70124,-11.45643l-0.24616,150.52227z" data-paper-data="{&quot;origPos&quot;:null,&quot;origRot&quot;:0}" fill="#696053"/><path d="M828.07649,957.07994l0.24616,-150.52227l16.13011,-2.36756l16.02378,13.91043z" data-paper-data="{&quot;origPos&quot;:null,&quot;origRot&quot;:0}" fill="#696053"/><path d="M827.70597,1085.41974l0.24616,-150.52227l16.13011,-2.36757l16.02378,13.91043l20.70124,-11.45643l-0.24616,150.52227z" data-paper-data="{&quot;origPos&quot;:null,&quot;origRot&quot;:0}" fill="#696053"/><path d="M827.70595,1085.41974l0.24616,-150.52227l16.13011,-2.36756l16.02378,13.91043z" data-paper-data="{&quot;origPos&quot;:null,&quot;origRot&quot;:0}" fill="#696053"/><path d="M834.87679,1074.13228l0.24616,-150.52227l16.13011,-2.36757l16.02378,13.91043l20.70124,-11.45643l-0.24616,150.52227z" data-paper-data="{&quot;origPos&quot;:null,&quot;origRot&quot;:0}" fill="#8b7f6e"/><path d="M835.24733,945.79251l0.24616,-150.52227l16.13011,-2.36757l16.02378,13.91043l20.70124,-11.45643l-0.24616,150.52227z" data-paper-data="{&quot;origPos&quot;:null,&quot;origRot&quot;:0}" fill="#8b7f6e"/></g></g><path d="M458.17792,568.40005v128h-251.44742c1.48115,-12.76254 3.95359,-25.46006 4.57218,-38.2906c0.7879,-16.3421 -1.03361,-32.52052 -4.84072,-48.69986c-3.20869,-13.39909 -3.91843,-26.79623 -6.1294,-40.2674c-0.04061,-0.24752 -0.0834,-0.4949 -0.1281,-0.74214z" data-paper-data="{&quot;origPos&quot;:null}" fill="#d1b694" stroke="none" stroke-width="0"/><path d="M131.20367,725.17962l5.66428,-150.41586l16.20488,-1.78541l15.51267,14.47821l21.10021,-10.70383l-5.66428,150.41586z" data-paper-data="{&quot;origPos&quot;:null,&quot;origRot&quot;:0}" fill="#696053" stroke="none" stroke-width="0"/><path d="M131.20367,725.17962l5.66428,-150.41586l16.20488,-1.7854l15.51267,14.47821z" data-paper-data="{&quot;origPos&quot;:null,&quot;origRot&quot;:0}" fill="#696053" stroke="none" stroke-width="0"/><path d="M139.44035,714.21465l5.66428,-150.41586l16.20488,-1.78541l15.51267,14.47821l21.10021,-10.70383l-5.66428,150.41586z" data-paper-data="{&quot;origPos&quot;:null,&quot;origRot&quot;:0}" fill="#8b7f6e" stroke="none" stroke-width="0"/><path d="M119.00003,608.80004v-13v0z" data-paper-data="{&quot;origPos&quot;:null}" fill="#dbc19c" stroke="none" stroke-width="0"/><path d="M443.66333,758.31364l5.66428,-150.41586l16.20488,-1.78541l15.51267,14.47821l21.10021,-10.70383l-5.66428,150.41586z" data-paper-data="{&quot;origPos&quot;:null,&quot;origRot&quot;:0}" fill="#696053" stroke="none" stroke-width="0"/><path d="M451.90005,747.34865l5.66428,-150.41586l16.20488,-1.78541l15.51267,14.47821l21.10021,-10.70383l-5.66428,150.41586z" data-paper-data="{&quot;origPos&quot;:null,&quot;origRot&quot;:0}" fill="#8c8c8c" stroke="none" stroke-width="0"/><path d="M-174.20355,311.126l-0.33471,-82.9992l144.48553,-0.69267c0.32244,2.00533 0.90717,3.98507 1.02159,6.00991c0.17601,3.11462 -0.37006,6.24419 -0.14485,9.35601c0.57914,8.00211 2.14112,15.99397 2.89906,23.99998c-9.83825,0 -19.67648,0 -29.51473,0c-4.21437,0 -8.25649,0.35412 -12.3965,1.13606c-1.71195,0.32334 -3.65435,0.22927 -5.09037,1.16251c-3.10935,2.02072 -7.7626,3.65461 -8.40539,7.15442c-1.61881,8.81411 -1.81564,10.59224 2.12925,17.594c0.36194,0.64241 0.85848,1.27788 1.39639,1.88521c0.00345,0.02373 0.00662,0.04637 0.00945,0.06779c0.19682,1.4875 0.53406,2.95612 0.85018,4.42536c0.14493,0.67357 0.43949,1.31837 0.53231,2c0.0234,0.17183 -0.28351,-0.59555 -0.31787,-0.42536c-0.45247,2.24139 0,5.22955 0,7.5c0,0.45346 0,0.90692 0,1.36037z" data-paper-data="{&quot;origPos&quot;:null,&quot;index&quot;:null}" fill="#a4cf93" stroke="#708569" stroke-width="10"/><path d="M-174.83423,304.86213l-3.09025,-42.49959l271.73681,-0.07215c0.08726,0.38322 0.15393,0.76761 0.19131,1.15362c0.30161,3.11462 -0.63412,6.24419 -0.24821,9.35601c0.99237,8.00211 3.6689,15.99398 4.96766,24c-16.85823,0 -33.71642,0 -50.57465,0c-7.22148,0 -14.14782,0.35412 -21.24189,1.13606c-2.93349,0.32334 -6.26187,0.22927 -8.72255,1.16251c-4.53941,1.72164 -10.99917,3.16247 -13.49312,5.71574z" data-paper-data="{&quot;origPos&quot;:null}" fill="#a4cf93" stroke="none" stroke-width="0"/><path d="M-178.28616,235.52525l-0.01146,-3.3333l149.19152,-0.8391c0.11467,0.69361 0.20492,1.3897 0.24216,2.09119c0.02194,0.4133 0.03194,0.82686 0.03327,1.24062z" data-paper-data="{&quot;origPos&quot;:null,&quot;index&quot;:null}" fill="#65815b" stroke="none" stroke-width="0"/><path d="M-30.22387,310.626l-0.31439,-82.9992l135.71474,-0.69267c0.30287,2.00533 0.8521,3.98507 0.95958,6.00991c0.16533,3.11462 -0.3476,6.24419 -0.13606,9.35601c0.54398,8.00211 2.01115,15.99397 2.72308,23.99998c-9.24103,0 -18.48205,0 -27.72308,0c-3.95854,0 -7.75529,0.35412 -11.64399,1.13606c-1.60803,0.32334 -3.43252,0.22927 -4.78137,1.16251c-2.9206,2.02072 -7.29138,3.65461 -7.89515,7.15442c-1.52054,8.81411 -1.70542,10.59224 2,17.594c0.33997,0.64241 0.80637,1.27788 1.31162,1.88521c0.00324,0.02373 0.00622,0.04637 0.00888,0.06779c0.18487,1.4875 0.50164,2.95612 0.79857,4.42536c0.13613,0.67357 0.41281,1.31837 0.5,2c0.02198,0.17183 -0.2663,-0.59555 -0.29857,-0.42536c-0.425,2.24139 0,5.22955 0,7.5c0,0.45346 0,0.90692 0,1.36037z" data-paper-data="{&quot;origPos&quot;:null,&quot;index&quot;:null}" fill="#a4cf93" stroke="#708569" stroke-width="10"/><path d="M-43.28616,235.02525l-0.01146,-3.3333l149.19152,-0.8391c0.11467,0.69361 0.20492,1.3897 0.24216,2.09119c0.02194,0.4133 0.03194,0.82686 0.03327,1.24062z" data-paper-data="{&quot;origPos&quot;:null,&quot;index&quot;:null}" fill="#65815b" stroke="none" stroke-width="0"/><path d="M-179.67699,309.18958l-18.0925,-22.39442l5.90667,-23.60513c0,0 309.87762,-4.02466 308.43715,-3.09142c-3.11898,2.02072 -7.78665,42.65461 -8.43143,46.15442c-1.62382,8.81411 -187.64022,6.59224 -183.68311,13.594c0.36306,0.64241 -13.02188,-24.72212 -12.48231,-24.11479c0.00346,0.02373 0.00664,0.04637 0.00948,0.06779c0.19743,1.4875 13.35081,33.95612 13.66791,35.42536c0.14538,0.67357 -3.83085,-6.68163 -3.73774,-6c0.02347,0.17183 -8.82779,-23.59555 -8.86225,-23.42536c-0.45387,2.24139 0,5.22955 0,7.5c0,0.11603 0,0.23206 0,0.34809z" data-paper-data="{&quot;origPos&quot;:null,&quot;index&quot;:null}" fill="#9dc78d" stroke="none" stroke-width="0"/><path d="M-171,495.80002l0.98623,-46.18301l-21.58989,-64.84188l12.99345,-27.82561l-4.38979,-52.1495h286v191z" data-paper-data="{&quot;origPos&quot;:null}" fill="#97be87" stroke="none" stroke-width="0"/><path d="M-192,263.80001l7,-29h291v29z" data-paper-data="{&quot;origPos&quot;:null}" fill="#a4cf93" stroke="none" stroke-width="0"/><g data-paper-data="{&quot;origPos&quot;:null,&quot;index&quot;:null,&quot;origRot&quot;:0}" stroke="none" stroke-width="0"><path d="M88.77925,338.3908l-0.24616,-150.52227l20.70124,11.45643l16.02378,-13.91043l16.13011,2.36757l0.24616,150.52227z" data-paper-data="{&quot;origPos&quot;:null,&quot;origRot&quot;:0}" fill="#696053"/><path d="M109.23434,199.32497l16.02378,-13.91043l16.13011,2.36756l0.24616,150.52227z" data-paper-data="{&quot;origPos&quot;:null,&quot;origRot&quot;:0}" fill="#696053"/><path d="M80.94258,327.13648l-0.24616,-150.52227l20.70124,11.45643l16.02378,-13.91043l16.13011,2.36757l0.24616,150.52227z" data-paper-data="{&quot;origPos&quot;:null,&quot;origRot&quot;:0}" fill="#8b7f6e"/><path d="M101.39767,188.07061l16.02378,-13.91043l16.13011,2.36756l0.24616,150.52227z" data-paper-data="{&quot;origPos&quot;:null,&quot;origRot&quot;:0}" fill="#817666"/><path d="M88.39919,471.77407l-0.24616,-150.52227l20.70124,11.45643l16.02378,-13.91043l16.13011,2.36757l0.24616,150.52227z" data-paper-data="{&quot;origPos&quot;:null,&quot;origRot&quot;:0}" fill="#696053"/><path d="M108.85428,332.70821l16.02378,-13.91043l16.13011,2.36756l0.24616,150.52227z" data-paper-data="{&quot;origPos&quot;:null,&quot;origRot&quot;:0}" fill="#696053"/><path d="M88.76972,600.11389l-0.24616,-150.52227l20.70124,11.45643l16.02378,-13.91043l16.13011,2.36757l0.24616,150.52227z" data-paper-data="{&quot;origPos&quot;:null,&quot;origRot&quot;:0}" fill="#696053"/><path d="M109.22481,461.04798l16.02378,-13.91043l16.13011,2.36756l0.24616,150.52227z" data-paper-data="{&quot;origPos&quot;:null,&quot;origRot&quot;:0}" fill="#696053"/><path d="M81.59889,588.82643l-0.24616,-150.52227l20.70124,11.45643l16.02378,-13.91043l16.13011,2.36757l0.24616,150.52227z" data-paper-data="{&quot;origPos&quot;:null,&quot;origRot&quot;:0}" fill="#8b7f6e"/><path d="M81.22836,460.48661l-0.24616,-150.52227l20.70124,11.45643l16.02378,-13.91043l16.13011,2.36757l0.24616,150.52227z" data-paper-data="{&quot;origPos&quot;:null,&quot;origRot&quot;:0}" fill="#8b7f6e"/></g><g data-paper-data="{&quot;origPos&quot;:null,&quot;index&quot;:null,&quot;origRot&quot;:0}" stroke="none" stroke-width="0"><path d="M255.17755,404.87186l-8.38054,-150.28899l21.29013,10.32092l15.2486,-14.75608l16.23449,1.49238l8.38054,150.28899z" data-paper-data="{&quot;origPos&quot;:null,&quot;origRot&quot;:0}" fill="#696053"/><path d="M268.08715,264.90378l15.2486,-14.75608l16.23449,1.49237l8.38054,150.28899z" data-paper-data="{&quot;origPos&quot;:null,&quot;origRot&quot;:0}" fill="#696053"/><path d="M246.74411,394.0575l-8.38054,-150.28899l21.29013,10.32092l15.2486,-14.75608l16.23449,1.49238l8.38054,150.28899z" data-paper-data="{&quot;origPos&quot;:null,&quot;origRot&quot;:0}" fill="#8b7f6e"/><path d="M259.65371,254.0894l15.2486,-14.75608l16.23449,1.49237l8.38054,150.28899z" data-paper-data="{&quot;origPos&quot;:null,&quot;origRot&quot;:0}" fill="#817666"/><path d="M262.00654,538.08074l-8.38054,-150.28899l21.29013,10.32092l15.2486,-14.75608l16.23449,1.49238l8.38054,150.28899z" data-paper-data="{&quot;origPos&quot;:null,&quot;origRot&quot;:0}" fill="#696053"/><path d="M274.91614,398.11265l15.2486,-14.75608l16.23449,1.49237l8.38054,150.28899z" data-paper-data="{&quot;origPos&quot;:null,&quot;origRot&quot;:0}" fill="#696053"/><path d="M269.31245,666.21299l-8.38054,-150.28899l21.29013,10.32092l15.2486,-14.75608l16.23449,1.49238l8.38054,150.28899z" data-paper-data="{&quot;origPos&quot;:null,&quot;origRot&quot;:0}" fill="#696053"/><path d="M282.22205,526.24483l15.2486,-14.75608l16.23449,1.49237l8.38054,150.28899z" data-paper-data="{&quot;origPos&quot;:null,&quot;origRot&quot;:0}" fill="#696053"/><path d="M261.54209,655.32956l-8.38054,-150.28899l21.29013,10.32092l15.2486,-14.75608l16.23449,1.49238l8.38054,150.28899z" data-paper-data="{&quot;origPos&quot;:null,&quot;origRot&quot;:0}" fill="#8b7f6e"/><path d="M254.23617,527.19731l-8.38054,-150.28899l21.29013,10.32092l15.2486,-14.75608l16.23449,1.49238l8.38054,150.28899z" data-paper-data="{&quot;origPos&quot;:null,&quot;origRot&quot;:0}" fill="#8b7f6e"/></g><g data-paper-data="{&quot;origPos&quot;:null,&quot;index&quot;:null,&quot;origRot&quot;:0}" stroke="none" stroke-width="0"><path d="M402.49848,477.92908l8.38054,-150.28899l16.23449,-1.49238l15.2486,14.75608l21.29013,-10.32092l-8.38054,150.28899z" data-paper-data="{&quot;origPos&quot;:null,&quot;origRot&quot;:0}" fill="#696053"/><path d="M402.49847,477.92908l8.38054,-150.28899l16.23449,-1.49237l15.24859,14.75608z" data-paper-data="{&quot;origPos&quot;:null,&quot;origRot&quot;:0}" fill="#696053"/><path d="M410.93192,467.11473l8.38054,-150.28899l16.23449,-1.49239l15.24859,14.75608l21.29013,-10.32092l-8.38054,150.289z" data-paper-data="{&quot;origPos&quot;:null,&quot;origRot&quot;:0}" fill="#8b7f6e"/><path d="M410.93191,467.11469l8.38054,-150.28899l16.23449,-1.49238l15.2486,14.75608z" data-paper-data="{&quot;origPos&quot;:null,&quot;origRot&quot;:0}" fill="#817666"/><path d="M395.66949,611.13796l8.38055,-150.28899l16.23449,-1.49238l15.24859,14.75608l21.29013,-10.32092l-8.38054,150.28899z" data-paper-data="{&quot;origPos&quot;:null,&quot;origRot&quot;:0}" fill="#696053"/><path d="M395.66949,611.13793l8.38054,-150.28899l16.23449,-1.49237l15.2486,14.75608z" data-paper-data="{&quot;origPos&quot;:null,&quot;origRot&quot;:0}" fill="#696053"/><path d="M388.36358,739.27022l8.38054,-150.28899l16.23449,-1.49238l15.2486,14.75608l21.29013,-10.32092l-8.38054,150.28899z" data-paper-data="{&quot;origPos&quot;:null,&quot;origRot&quot;:0}" fill="#696053"/><path d="M388.36357,739.27012l8.38054,-150.28899l16.23449,-1.49237l15.2486,14.75608z" data-paper-data="{&quot;origPos&quot;:null,&quot;origRot&quot;:0}" fill="#696053"/><path d="M396.13394,728.38678l8.38055,-150.28899l16.23449,-1.49239l15.24859,14.75608l21.29014,-10.32092l-8.38054,150.28899z" data-paper-data="{&quot;origPos&quot;:null,&quot;origRot&quot;:0}" fill="#8b7f6e"/><path d="M403.43986,600.25452l8.38054,-150.28899l16.23449,-1.49239l15.2486,14.75608l21.29013,-10.32092l-8.38054,150.28899z" data-paper-data="{&quot;origPos&quot;:null,&quot;origRot&quot;:0}" fill="#8b7f6e"/></g></g></g></svg>