<svg version="1.1" xmlns="http://www.w3.org/2000/svg" xmlns:xlink="http://www.w3.org/1999/xlink" width="101.35477" height="107.69417" viewBox="0,0,101.35477,107.69417"><g transform="translate(-187.24246,-125.92748)"><g data-paper-data="{&quot;isPaintingLayer&quot;:true}" fill="#ffc93e" fill-rule="nonzero" stroke="#603813" stroke-width="1.32684" stroke-linecap="none" stroke-linejoin="none" stroke-miterlimit="10" stroke-dasharray="" stroke-dashoffset="0" font-family="none" font-weight="none" font-size="none" text-anchor="none" style="mix-blend-mode: normal"><path d="M189.76908,171.55685c2.8281,-1.8078 5.2595,0.0537 9.9612,5.6809l1.9319,2.2888c2.1063,2.4792 4.4157,4.6698 6.4537,6.6096c2.6219,2.4872 4.9903,5.1296 5.9814,7.1225c0.3576,0.7178 0.3895,1.4595 0.15,1.9153c-0.0086,0.1154 -0.2926,0.3436 -0.5042,0.4325c-2.5635,1.0728 -14.8036,-3.2182 -18.1937,-6.0988c-4.9643,-4.218 -7.8787,-10.8874 -7.6286,-14.57c0.1028,-1.506 0.741,-2.6736 1.8483,-3.3808z" data-paper-data="{&quot;origPos&quot;:null,&quot;index&quot;:null}" id="L_Arm" stroke-linecap="butt" stroke-linejoin="miter"/><path d="M277.51612,182.84078c-3.5958,6.3894 -5.6438,8.6596 -8.7565,7.4018c-1.2187,-0.4923 -2.0599,-1.5265 -2.4361,-2.9861c-0.9168,-3.5718 0.7271,-10.6631 4.8383,-15.719c2.8063,-3.4512 14.0546,-9.9089 16.772,-9.3218c0.2255,0.0465 0.5453,0.2209 0.5758,0.3304c0.3171,0.4067 0.4233,1.1424 0.203,1.9133c-0.611,2.1402 -2.4566,5.1694 -4.5776,8.0971c-1.6499,2.2728 -3.5208,4.8549 -5.1402,7.6751l-1.4787,2.6092z" data-paper-data="{&quot;origPos&quot;:null,&quot;index&quot;:null}" id="R_Arm" stroke-linecap="butt" stroke-linejoin="miter"/><path d="M230.4301,157.1401c3.9932,-2.1701 -0.128,-10.3414 -4.1152,-18.2447c-2.1793,-4.3216 -6.0656,-11.6205 -4.8025,-12.3045c2.4434,-1.3242 14.1163,12.4511 18.8485,18.0032l4.8237,5.4938c0,0 3.4485,4.2313 6.0875,7.021c0.0465,0.0491 2.5416,-0.3383 4.2652,-1.7707c1.4051,-1.1722 1.2193,-2.4838 1.6665,-5.2423c0.4106,-2.5343 0.8565,-7.1205 2.2165,-7.1437c2.0486,-0.0312 3.3954,8.4128 3.9201,11.5408l0.2899,1.6732c0.688,3.7205 4.2771,14.9064 4.431,15.3807c0.0491,0.1155 0.1301,0.2654 0.1301,0.2654l0.0298,0.0604l0.0411,0.0504c5.5423,6.8737 9.6647,15.2082 9.6647,23.0167c0,16.5351 -14.4944,28.1748 -33.8954,28.1748c-3.5984,0 -7.1179,-0.5042 -10.4608,-1.4953l-0.1798,-0.0518c0,0 -5.2477,-0.4412 -11.9608,8.383c-1.3468,1.7713 -1.2267,3.4226 -3.1247,2.9144c-0.6329,-0.1692 -1.098,-0.6342 -1.4775,-1.4788c-0.9075,-2.0141 -0.2375,-6.7861 0.8718,-9.8352l0.1744,-0.479l-0.4007,-0.3171c-0.0982,-0.0783 -10.9862,-8.0121 -12.0862,-19.3812c-0.9586,-9.9101 4.0476,-15.5525 6.1247,-18.6533l1.1935,-1.9877c1.5066,-3.666 -1.3288,-8.7631 -3.8312,-13.2611c-1.4941,-2.6855 -3.9056,-6.6043 -3.3609,-7.5251c0.6044,-1.0204 2.7645,0.065 4.9458,1.1059c1.7687,0.8452 3.4703,2.0393 4.6519,1.2519c1.2286,-0.818 0.4226,-2.8733 -0.694,-5.7167c-1.0501,-2.671 -3.0384,-6.8903 -2.2748,-8.6318c0.2103,-0.479 0.5791,-0.8153 1.1278,-1.0283c2.0287,-0.7855 4.9292,2.6318 7.2771,5.3047c2.8633,3.2634 6.1114,6.9613 9.8829,4.908z" id="Body" stroke-linecap="round" stroke-linejoin="round"/></g></g></svg>