<svg version="1.1" xmlns="http://www.w3.org/2000/svg" xmlns:xlink="http://www.w3.org/1999/xlink" width="207.97416" height="63.01767"><g transform="translate(-136.01292,-148.49117)"><g data-paper-data="{&quot;isPaintingLayer&quot;:true}" fill="none" fill-rule="nonzero" stroke="none" stroke-width="none" stroke-linecap="none" stroke-linejoin="miter" stroke-miterlimit="10" stroke-dasharray="" stroke-dashoffset="0" font-family="none" font-weight="none" font-size="none" text-anchor="none" style="mix-blend-mode: normal"><path d="M152.54345,163.01382c0.18296,-0.54008 0.36855,-1.07996 0.55742,-1.61955h168.98795c-0.01423,0.53984 -0.02566,1.07969 -0.03403,1.61955z" data-paper-data="{&quot;origPos&quot;:null,&quot;index&quot;:null}" fill="#65815b" stroke="none" stroke-width="0" stroke-linecap="butt"/><path d="M144.76066,200.26361c0.14527,-4.97175 0.37784,-9.94338 0.58598,-14.91527c0.21628,-5.1667 -1.68605,-10.47238 2.19055,-15.5931c2.30354,-3.25431 4.06671,-6.55112 6.43961,-9.81857h168.19414c-0.2142,2.68618 -0.20047,5.37263 0.27521,8.06075c1.90267,10.75191 4.0795,21.5081 5.08913,32.26619z" data-paper-data="{&quot;origPos&quot;:null,&quot;index&quot;:null}" fill="#dbc19c" stroke="#b39d7f" stroke-width="10" stroke-linecap="butt"/><path d="M144.76066,200.26361c0.14527,-4.97175 0.37784,-9.94338 0.58598,-14.91527c0.21628,-5.1667 -1.68605,-10.47238 2.19055,-15.5931c2.30354,-3.25431 4.06671,-6.55112 6.43961,-9.81857h168.19414c-0.2142,2.68618 -0.20047,5.37263 0.27521,8.06075c1.90267,10.75191 4.0795,21.5081 5.08913,32.26619z" data-paper-data="{&quot;origPos&quot;:null,&quot;index&quot;:null}" fill="#a4cf93" stroke="#6f8368" stroke-width="10" stroke-linecap="butt"/><path d="M144.83164,194.78712c0.14358,-3.30868 0.33813,-6.61732 0.51497,-9.9261c0.21628,-4.04621 -1.68605,-8.20126 2.19055,-12.21146c0.20199,-0.22349 0.39984,-0.44722 0.5943,-0.67117h174.47469c1.73025,7.60069 3.6511,15.20406 4.70247,22.80875z" data-paper-data="{&quot;origPos&quot;:null,&quot;index&quot;:null}" fill="#9dc78d" stroke="none" stroke-width="0" stroke-linecap="butt"/><path d="M144.64148,205.12227c0.09035,-5.32959 0.4206,-10.65878 0.70513,-15.98834c0.12085,-2.26321 -0.41959,-4.56044 -0.24415,-6.84739h178.89972c1.7566,7.61003 3.42289,15.22241 3.93917,22.83574z" data-paper-data="{&quot;origPos&quot;:null,&quot;index&quot;:null}" fill="#97be87" stroke="none" stroke-width="0" stroke-linecap="butt"/><path d="M311.84443,206.33238l4.51324,-55.15701l6.83857,-0.45497l6.31705,5.50784z" data-paper-data="{&quot;origPos&quot;:null,&quot;origRot&quot;:0}" fill="#696053" stroke="none" stroke-width="0" stroke-linecap="butt"/><path d="M220.86202,170.8868c0,-1.34168 1.24549,-2.42934 2.78188,-2.42934c1.53639,0 2.78188,1.08765 2.78188,2.42934c0,1.34168 -1.24549,2.42934 -2.78188,2.42934c-1.53639,0 -2.78188,-1.08765 -2.78188,-2.42934z" data-paper-data="{&quot;origPos&quot;:null}" fill="#9dc78d" stroke="none" stroke-width="0.5" stroke-linecap="butt"/><g data-paper-data="{&quot;origPos&quot;:null}" stroke="none" stroke-width="0" stroke-linecap="butt"><path d="M312.84443,206.33238l4.51324,-55.15701l6.83856,-0.45497l6.31705,5.50784l9.02319,-3.6689l-4.51324,55.15701z" data-paper-data="{&quot;origPos&quot;:null,&quot;origRot&quot;:0}" fill="#696053"/><path d="M315.6259,207.58074l4.79546,-58.60614l7.26621,-0.48343l6.71207,5.85227l9.58744,-3.89833l-4.79546,58.60613z" data-paper-data="{&quot;origPos&quot;:null,&quot;origRot&quot;:0}" fill="#8b7f6e"/><path d="M315.62591,204.10317l4.51324,-55.15702l6.83857,-0.45497l6.31705,5.50785z" data-paper-data="{&quot;origPos&quot;:null,&quot;origRot&quot;:0}" fill="#817666"/></g><g data-paper-data="{&quot;index&quot;:null,&quot;origPos&quot;:null}" stroke="none" stroke-width="0" stroke-linecap="butt"><path d="M144.97677,210.17394l-4.51324,-55.15701l9.02319,3.6689l6.31705,-5.50784l6.83856,0.45497l4.51324,55.15701z" data-paper-data="{&quot;origPos&quot;:null,&quot;origRot&quot;:0}" fill="#696053"/><path d="M140.80838,211.50884l-4.79546,-58.60613l9.58744,3.89833l6.71207,-5.85227l7.26621,0.48343l4.79546,58.60614z" data-paper-data="{&quot;origPos&quot;:null,&quot;origRot&quot;:0}" fill="#8b7f6e"/><path d="M146.70523,156.45662l6.31705,-5.50785l6.83857,0.45497l4.51324,55.15702z" data-paper-data="{&quot;origPos&quot;:null,&quot;origRot&quot;:0}" fill="#817666"/></g><path d="M186.10854,177.95795c0.02327,0.31412 0.10471,1.08196 0.24431,2.30352c0.22104,2.19882 0.34902,3.52509 0.38392,3.97881l0.27921,1.36117l-0.13961,0.05235c-0.12798,0.02327 -0.19196,0.01163 -0.19196,-0.0349c0,-0.22104 0.18614,-0.82601 0.55843,-1.8149c0.46536,-0.82601 0.75621,-1.52405 0.87255,-2.09411c0.02327,-0.16288 0.26176,-0.413 0.71549,-0.75039c-0.41882,0 -0.47699,-0.29085 -0.17451,-0.87255c0.13961,-0.29085 0.25013,-0.62823 0.33157,-1.01215c0.09307,-0.39555 0.15124,-0.61078 0.17451,-0.64568c0.0349,-0.04653 0.06398,-0.09889 0.08725,-0.15706c0.09307,-0.01163 0.14543,-0.12216 0.15706,-0.33157c0.04653,-0.22104 0.0698,-0.38392 0.0698,-0.48863v-0.9249c0,-0.11634 0.05235,-0.34902 0.15706,-0.69804l-0.0349,-0.59333c0,-0.60496 0.2734,-1.36117 0.82019,-2.26862l0.48863,-0.36647c-0.02327,-0.36065 0.23268,-0.57588 0.76784,-0.64568c0.53516,-0.0698 0.9249,-0.05817 1.16921,0.0349c0.25595,0.08144 0.46536,0.12216 0.62823,0.12216c0.12798,0.10471 0.38974,0.20941 0.78529,0.31412c0.46536,0.13961 0.75039,0.38974 0.8551,0.75039c0.11634,0.34902 0.17451,0.75039 0.17451,1.20411l-0.20941,2.32097c0,0.12798 -0.05817,1.08778 -0.17451,2.8794l0.01745,0.9947c-0.01163,0.04653 -0.01745,0.36065 -0.01745,0.94235v1.55313c0,0.30248 0,0.48863 0,0.55843l0.13961,1.74509c-0.44209,-0.33739 -0.3432,0.32575 0.29667,1.98941c0,0.26758 0.10471,0.87255 0.31412,1.8149c0.22104,0.94235 0.27921,1.74509 0.17451,2.40823c0,0.5468 -0.47118,1.02379 -1.41353,1.43098c-0.73294,-0.13961 -1.17503,-0.32575 -1.32627,-0.55843c-0.13961,-0.09307 -0.26176,-0.19778 -0.36647,-0.31412l-0.17451,-0.24431c-0.34902,-0.27921 -0.62823,-0.61078 -0.83764,-0.9947c-0.18614,-0.17451 -0.31412,-0.40719 -0.38392,-0.69804c-0.20941,-0.30248 -0.33739,-0.66314 -0.38392,-1.08196c-0.0349,-0.41882 -0.09889,-0.69804 -0.19196,-0.83764c-0.08144,-0.15124 -0.15124,-0.28503 -0.20941,-0.40137c-0.24431,-0.26758 -0.40719,-0.71549 -0.48863,-1.34372c-0.0698,-0.63987 -0.13379,-1.18084 -0.19196,-1.62294c0,-0.29085 0.00582,-0.45954 0.01745,-0.50608c-0.0349,-0.10471 -0.05817,-0.19778 -0.0698,-0.27921c-0.01163,-0.09307 0.16869,-0.18033 0.54098,-0.26176l0.47118,0.62823c-0.0698,0.12798 -0.20359,0.50608 -0.40137,1.13431l-0.59333,1.93705l-0.61078,2.11156c-0.20941,-0.01163 -0.31412,0.15706 -0.31412,0.50608c-0.19778,0.5119 -0.31412,0.79111 -0.34902,0.83764c-0.02327,0.0349 -0.04653,0.08144 -0.0698,0.13961c-0.19778,0.38392 -0.42464,0.69804 -0.68059,0.94235c-0.72131,0.67477 -1.46588,0.87255 -2.23372,0.59333c-0.75621,-0.27921 -1.303,-0.79692 -1.64039,-1.55313c-0.12798,-0.30248 -0.23849,-0.52935 -0.33157,-0.68059c-0.0349,-0.17451 -0.13961,-0.44209 -0.31412,-0.80274c-0.16288,-0.44209 -0.28503,-0.93653 -0.36647,-1.48333c-0.09307,-0.19778 -0.16288,-0.5119 -0.20941,-0.94235c-0.09307,-0.18614 -0.16288,-0.45372 -0.20941,-0.80274c-0.0349,-0.36065 -0.09307,-0.68059 -0.17451,-0.9598c-0.11634,-0.37229 -0.19196,-0.82019 -0.22686,-1.34372c-0.0349,-0.31412 -0.16869,-0.88418 -0.40137,-1.71019c-0.05817,-0.0698 0.06398,-0.20359 0.36647,-0.40137c0.33739,0.01163 0.50608,0.0349 0.50608,0.0698c0,0.0349 -0.23268,0.49444 -0.69804,1.37862c0.37229,-0.08144 0.5119,0.2734 0.41882,1.06451c-0.10471,0.36065 -0.16869,0.73876 -0.19196,1.13431c-0.16288,1.04706 -0.23268,1.79163 -0.20941,2.23372c0.0698,0.23268 0.07562,0.49444 0.01745,0.78529c-0.04653,0.27921 -0.08725,0.55261 -0.12216,0.82019c-0.0349,0.26758 -0.08144,0.48863 -0.13961,0.66314v0.13961c-0.16288,0.52353 -0.16869,0.80856 -0.01745,0.8551c0,0.43045 -0.13379,0.89 -0.40137,1.37862c-0.26758,0.50026 -0.73294,0.67477 -1.39607,0.52353c-0.74457,-0.17451 -1.22156,-0.35484 -1.43097,-0.54098c-0.31412,-0.5119 -0.47118,-0.96562 -0.47118,-1.36117v-1.46588l0.33157,-0.45372c-0.20941,-0.02327 -0.09889,-0.26176 0.33157,-0.71549c-0.39555,0.13961 -0.59333,0.0349 -0.59333,-0.31412c0,-0.34902 -0.0349,-0.60496 -0.10471,-0.76784v-0.40137c-0.0349,-0.73294 -0.04072,-1.15176 -0.01745,-1.25647c0.0349,-0.10471 0.01745,-0.52935 -0.05235,-1.27392c0.44209,0.32575 0.58751,0.34902 0.43627,0.0698c-0.13961,-0.29085 -0.18033,-0.73876 -0.12216,-1.34372l0.69804,0.33157c-0.39555,0.18614 -0.57588,-0.10471 -0.54098,-0.87255c0.01163,-0.16288 0.05817,-0.52353 0.13961,-1.08196c0.08144,-0.55843 0.11634,-0.95398 0.10471,-1.18666c-0.01163,-0.24431 0.10471,-0.63405 0.34902,-1.16921c0.39555,-1.17503 0.60496,-1.93123 0.62823,-2.26862c0.0349,-0.33739 0.09889,-0.63987 0.19196,-0.90745c0.08144,-0.69804 0.27921,-1.28555 0.59333,-1.76254c0.19778,-0.62823 0.55843,-0.98888 1.08196,-1.08196l0.40137,-0.31412l0.20941,0.50608c0.30248,-0.63987 1.05287,-0.83764 2.25117,-0.59333c1.07033,0.48863 1.66947,1.16339 1.79745,2.02431c-0.09307,0.30248 -0.0698,1.24483 0.0698,2.82705zM208.22839,183.29793l0.0349,0.50608c0,0.04653 0.05817,0.66314 0.17451,1.8498v0.40137c0,0.44209 0.08144,1.14013 0.24431,2.09411c0,0.36065 0.13379,0.98888 0.40137,1.8847c0.19778,0.02327 0.3432,0.26176 0.43627,0.71549l-0.01745,0.26176c0.08144,0.27921 -0.01745,0.48281 -0.29667,0.61078c0.09307,0.40719 -0.13379,0.61078 -0.68059,0.61078c-0.53516,0 -0.87255,0.02908 -1.01215,0.08725c-0.12798,0.05817 -0.30248,-0.04653 -0.52353,-0.31412c-0.10471,0.23268 -0.413,0.21523 -0.9249,-0.05235c-0.36065,-0.0698 -0.62823,-0.37229 -0.80274,-0.90745l-0.27921,-0.64568c0,-0.31412 -0.09889,-0.61078 -0.29667,-0.89c0,-0.15124 0.02908,-0.34902 0.08725,-0.59333c0.05817,-0.24431 0.13961,-0.39555 0.24431,-0.45372c0.15124,0.90745 0.04072,1.5415 -0.33157,1.90215c0.10471,0.15124 0.06398,0.33157 -0.12216,0.54098l-0.59333,0.29667c0.26758,0.17451 0.2734,0.38392 0.01745,0.62823c-0.18614,0.41882 -0.62241,0.62823 -1.30882,0.62823c-0.44209,0 -0.94235,-0.10471 -1.50078,-0.31412c-0.13961,-0.01163 -0.38974,-0.08725 -0.75039,-0.22686c-0.11634,0.02327 -0.30248,-0.06398 -0.55843,-0.26176c-0.24431,-0.20941 -0.44791,-0.20941 -0.61078,0c-0.15124,-0.13961 -0.33739,-0.28503 -0.55843,-0.43627l-0.55843,-0.55843c-0.09307,-0.10471 -0.18033,-0.29085 -0.26176,-0.55843c-0.0698,-0.27921 -0.09889,-0.45954 -0.08725,-0.54098c0.02327,-0.08144 0.02327,-0.19196 0,-0.33157c-0.01163,-0.13961 0.00582,-0.29085 0.05235,-0.45372c0,-0.38392 0.13961,-0.78529 0.41882,-1.20411c-0.22104,0 -0.33157,-0.08144 -0.33157,-0.24431c0,-0.16288 0.06398,-0.31994 0.19196,-0.47118c-0.0698,-0.0349 -0.10471,-0.10471 -0.10471,-0.20941l0.15706,-1.16921c0,-0.27921 0.00582,-0.47699 0.01745,-0.59333v-0.52353c0.02327,-0.0698 0.0349,-0.15124 0.0349,-0.24431l0.15706,-1.43098c0,-0.23268 0.00582,-0.3781 0.01745,-0.43627v-0.48863c0.29085,0.04653 0.31412,-0.06398 0.0698,-0.33157l0.31412,-0.97725l0.20941,-0.36647c0.05817,-0.20941 0.25595,-0.39555 0.59333,-0.55843c0.39555,-0.24431 0.9598,-0.36647 1.69274,-0.36647c0.36065,0.04653 0.6166,0.28503 0.76784,0.71549c0.05817,-0.33739 0.27921,-0.41882 0.66314,-0.24431c0.75621,0.33739 0.88418,1.08778 0.38392,2.25117c-0.32575,0.43045 -0.36065,0.69222 -0.10471,0.78529c-0.08144,0.16288 -0.12216,0.26758 -0.12216,0.31412c-0.11634,0.62823 -0.36647,0.9249 -0.75039,0.89c1.32627,-1.87307 1.48333,-1.68111 0.47118,0.57588l-0.12216,1.06451c-0.12798,0.44209 -0.18033,0.9598 -0.15706,1.55313l-0.22686,0.31412c0.09307,0.04653 0,0.31994 -0.27921,0.82019c0.27921,-0.02327 0.41882,0.0698 0.41882,0.27921l0.01745,0.27921c-0.27921,0 -0.40719,-0.02327 -0.38392,-0.0698c0.0349,-0.05817 0.08725,-0.12798 0.15706,-0.20941c0.0698,-0.09307 0.09889,-0.13961 0.08725,-0.13961c0.17451,-0.20941 0.30248,-0.46536 0.38392,-0.76784c0.08144,-0.30248 0.12216,-0.49444 0.12216,-0.57588c0.37229,-0.94235 0.59333,-1.46588 0.66314,-1.57058c0.08144,-0.50026 0.3083,-1.04124 0.68059,-1.62294c-0.19778,-0.0349 -0.26176,-0.27921 -0.19196,-0.73294l0.40137,-1.67529c0.15124,-0.25595 0.22686,-0.413 0.22686,-0.47118c0,-0.0698 0.15706,-0.33739 0.47118,-0.80274c-0.0698,-0.09307 -0.02327,-0.3083 0.13961,-0.64568c0.20941,-0.32575 0.58751,-0.63987 1.13431,-0.94235h0.22686c0.5119,-0.04653 1.05287,0.06398 1.62294,0.33157c0.12798,0.30248 0.19196,0.57588 0.19196,0.82019c0.0349,0.17451 0.07562,0.54098 0.12216,1.09941v0.38392l-0.10471,0.55843c0.16288,0.5119 0.17451,1.03542 0.0349,1.57058zM211.50797,175.53227l0.20941,-1.76254l0.0349,-0.89c0,-0.37229 0.08144,-0.68059 0.24431,-0.9249l0.34902,-0.48863c0.63987,-0.50026 1.08196,-0.79111 1.32627,-0.87255c0.25595,-0.09307 0.59333,-0.09307 1.01215,0c0.43046,0.09307 0.70967,0.20359 0.83765,0.33157l0.24431,0.20941c0.36065,0.20941 0.54098,0.47118 0.54098,0.78529c0.17451,0.23268 0.16869,0.50608 -0.01745,0.82019c-0.0698,0.08144 -0.23268,1.15176 -0.48863,3.21097l-0.24431,4.06607l-0.13961,0.78529c0,0.17451 0.00582,0.28503 0.01745,0.33157v0.61078c-0.04653,0.5119 -0.08725,0.80274 -0.12216,0.87255c0,0.0698 -0.17451,0.12216 -0.52353,0.15706c0.34902,-0.10471 0.52353,0.05817 0.52353,0.48863c0,0.43045 -0.12216,0.64568 -0.36647,0.64568c0.15124,0.24431 0.22686,0.49444 0.22686,0.75039c0,0.25595 0.02327,0.54098 0.0698,0.8551c0.04653,0.31412 0.06398,0.62823 0.05235,0.94235l0.12216,1.11686v0.43627c0.0349,0.36065 0.05235,0.6515 0.05235,0.87255l0.15706,1.50078l0.10471,0.78529c0.0698,0.43045 0.02908,0.87255 -0.12216,1.32627c-0.15124,0.46536 -0.42464,0.77366 -0.8202,0.9249c-0.83764,0.33739 -1.65784,0.18033 -2.46058,-0.47118h-0.31412c-0.32575,-0.37229 -0.5119,-0.65732 -0.55843,-0.8551c-0.24431,-0.11634 -0.35484,-0.3083 -0.33157,-0.57588c0.02327,-0.26758 -0.01163,-0.47699 -0.10471,-0.62823c-0.09307,-0.15124 -0.13961,-0.3432 -0.13961,-0.57588c0,-0.22104 -0.01745,-0.44209 -0.05235,-0.66314l0.38392,-0.15706c-0.30248,0.05817 -0.45372,-0.05235 -0.45372,-0.33157l-0.05235,-0.54098v-0.27921c0,-0.11634 -0.01163,-0.22686 -0.0349,-0.33157c-0.01163,-0.10471 0.13379,-0.19196 0.43627,-0.26176c-0.30248,0.0349 -0.42464,-0.27921 -0.36647,-0.94235c0.11634,-1.50078 0.17451,-2.54202 0.17451,-3.12372l0.0349,-0.71549v-0.83764c0.01163,-0.48863 0.02327,-1.14013 0.0349,-1.9545c0.01163,-0.82601 0.16288,-1.20993 0.45372,-1.15176l-0.38392,-0.13961c0,-0.53516 0.07562,-1.21575 0.22686,-2.04176c0.15124,-0.82601 0.22686,-1.26229 0.22686,-1.30882zM224.35951,173.15894c-0.0698,0.81437 -0.10471,1.3379 -0.10471,1.57058c0,0.23268 -0.01163,0.43627 -0.0349,0.61078v0.78529l-0.0349,0.20941v0.57588c0,0.18614 -0.13379,0.27921 -0.40137,0.27921l0.73294,-0.55843c0.09307,0 0.38974,-0.04653 0.89,-0.13961c0.50026,-0.10471 1.00633,-0.15124 1.51823,-0.13961c0.52353,0 0.91327,0.14543 1.16921,0.43627c0.25595,0.29085 0.38392,0.63987 0.38392,1.04706c0.0698,0.39555 -0.04072,0.76784 -0.33157,1.11686l-0.10471,0.13961c-0.22104,0.38392 -0.57588,0.63987 -1.06451,0.76784l-1.04706,0.13961l-1.27392,0.31412l-0.34902,0.13961c0,0.19778 0.02327,0.59333 0.0698,1.18666c0.05817,0.59333 0.08725,1.01797 0.08725,1.27392l0.08725,1.04706c0.24431,1.72182 0.57006,3.44946 0.97725,5.18293c0.11634,0.17451 0.25013,0.60496 0.40137,1.29137l0.24431,0.64568c0.13961,1.18666 -0.47699,1.77999 -1.8498,1.77999c-0.18614,0 -0.60496,-0.04072 -1.25647,-0.12216c-0.32575,-0.04653 -0.76784,-0.34902 -1.32627,-0.90745c0.31412,-0.16288 0.23849,-0.26176 -0.22686,-0.29667l-0.59333,-1.43098c-0.05817,-0.09307 -0.11052,-0.2734 -0.15706,-0.54098c-0.22104,-0.22104 -0.41882,-0.79692 -0.59333,-1.72764c0,-0.0349 -0.01745,-0.12798 -0.05235,-0.27921v-0.24431c-0.12798,-0.11634 -0.22686,-0.52353 -0.29667,-1.22156c-0.0698,-0.70967 -0.13961,-1.35535 -0.20941,-1.93705c0,-0.76784 -0.06398,-1.50078 -0.19196,-2.19882l-0.05235,-0.71549v-0.31412c0.40719,-0.15124 0.61078,-0.0349 0.61078,0.34902h-0.31412c-0.33739,0.0349 -0.6166,0.0349 -0.83764,0c-1.05869,0 -1.82653,-0.35484 -2.30352,-1.06451c-0.39555,-0.87255 -0.39555,-1.44843 0,-1.72764c0.39555,-0.27921 1.08196,-0.5119 2.05921,-0.69804c0.33739,0 0.63987,-0.05817 0.90745,-0.17451c0,-0.37229 0.08144,-0.5817 0.24431,-0.62823c-0.0349,-0.45372 -0.01745,-0.74457 0.05235,-0.87255c0.0698,-0.13961 0.11052,-0.22686 0.12216,-0.26176c0.01163,-0.5119 0.18614,-1.25647 0.52353,-2.23372c0.12798,-0.48863 0.26176,-0.84928 0.40137,-1.08196c0.41882,-0.59333 1.16339,-0.79692 2.23372,-0.61078c0.48863,0.08144 0.70967,0.36065 0.66314,0.83764c0.50026,-0.55843 0.70967,-0.42464 0.62823,0.40137zM230.61587,171.71051c0.11634,-0.05817 0.38392,-0.11634 0.80274,-0.17451c0.73294,-0.11634 1.26229,-0.04653 1.58803,0.20941c0.33739,0.24431 0.60496,0.54098 0.80274,0.89c0.0349,0.77947 -0.05817,1.71019 -0.27921,2.79215c-0.24431,0.72131 -0.45954,1.26229 -0.64568,1.62294l-0.27921,0.40137c-0.0698,0.20941 -0.25595,0.45372 -0.55843,0.73294c-0.30248,0.27921 -0.57006,0.40719 -0.80274,0.38392c-0.22104,-0.0349 -0.47118,-0.13379 -0.75039,-0.29667c-0.26758,-0.17451 -0.48281,-0.36065 -0.64568,-0.55843c-0.02327,-0.13961 -0.04653,-0.24431 -0.0698,-0.31412l-0.12216,-0.47118l-0.55843,-0.69804c-0.17451,-0.36065 -0.26176,-0.69804 -0.26176,-1.01215c-0.0698,-0.68641 0.12798,-1.14594 0.59333,-1.37862c-0.25595,-0.0698 -0.34902,-0.20359 -0.27921,-0.40137c0.13961,-0.57006 0.62823,-1.14594 1.46588,-1.72764zM229.42921,185.60145c0,-0.22104 0.02908,-0.47118 0.08725,-0.75039c0.0698,-0.29085 0.09307,-0.48281 0.0698,-0.57588c-0.02327,-0.09307 -0.02327,-0.47118 0,-1.13431c0.04653,-0.19778 0.05817,-0.38974 0.0349,-0.57588c-0.17451,-0.53516 -0.21523,-0.94817 -0.12216,-1.23902c0.10471,-0.30248 0.27921,-0.61078 0.52353,-0.9249c0.25595,-0.32575 0.55843,-0.55843 0.90745,-0.69804c0.36065,-0.15124 0.86091,-0.13961 1.50078,0.0349c0.23268,0.11634 0.5119,0.36647 0.83764,0.75039c0.12798,0.12798 0.24431,0.43045 0.34902,0.90745c0.10471,0.46536 0.16869,0.94235 0.19196,1.43098c0.0349,0.47699 0.06398,1.16339 0.08725,2.05921c0.02327,0.88418 0.06398,2.07084 0.12216,3.55999c0.05817,1.48915 0.0698,2.4664 0.0349,2.93176c-0.0349,0.45372 -0.26176,0.84346 -0.68059,1.16921c-0.40719,0.33739 -0.73876,0.41882 -0.9947,0.24431c-0.25595,-0.16288 -0.41882,-0.25013 -0.48863,-0.26176c-0.45372,0 -0.78529,-0.20359 -0.9947,-0.61078c-0.09307,0.10471 -0.3432,0.04072 -0.75039,-0.19196c-0.39555,-0.23268 -0.63987,-0.63405 -0.73294,-1.20411c-0.12798,-0.24431 -0.16869,-0.96562 -0.12216,-2.16392v-1.09941l0.13961,-1.01215zM242.88843,182.82675l-0.26176,-0.75039l0.54098,-0.10471c-0.05817,0.11634 -0.16869,0.29085 -0.33157,0.52353c-0.40719,-0.08144 -0.5817,-0.09307 -0.52353,-0.0349c-0.31412,0.24431 -0.66895,0.35484 -1.06451,0.33157c0.13961,0.13961 0.0349,0.37229 -0.31412,0.69804l-0.17451,0.41882c-0.09307,0.80274 -0.12216,1.26229 -0.08725,1.37862c-0.11634,0.68641 -0.15706,1.09941 -0.12216,1.23902c0.04653,0.13961 0.05235,0.30248 0.01745,0.48863c-0.02327,0.18614 -0.05817,0.48281 -0.10471,0.89c0.0349,0.16288 0.04072,0.45372 0.01745,0.87255c-0.02327,0.41882 -0.15706,0.63405 -0.40137,0.64568c-0.09307,-0.23268 0.05817,-0.52353 0.45372,-0.87255c0.05817,0.46536 0.09307,0.57006 0.10471,0.31412c0.01163,-0.25595 0.06398,-0.47699 0.15706,-0.66314c0.15124,0.04653 0.20941,-0.01163 0.17451,-0.17451c0.11634,-0.12798 0.23849,-0.30248 0.36647,-0.52353c0.23268,0.17451 0.24431,0.23268 0.0349,0.17451c0,-0.17451 0.15124,-0.45954 0.45372,-0.8551c0.44209,-0.79111 0.69804,-1.42516 0.76784,-1.90215v-0.24431c0.0349,-0.11634 0.05235,-0.22104 0.05235,-0.31412l0.12216,-0.41882c0,-0.25595 0.16869,-0.33157 0.50608,-0.22686zM240.49765,180.26147c0.17451,-0.59333 0.77366,-0.89 1.79745,-0.89c0.05817,0 0.16869,-0.02908 0.33157,-0.08725c0.17451,-0.0698 0.47118,-0.12216 0.89,-0.15706l0.24431,0.0698c0.17451,0 0.39555,0.0698 0.66314,0.20941c0.26758,0.12798 0.58751,0.25595 0.9598,0.38392l0.31412,0.31412l0.26176,0.17451c0.45372,0.11634 0.68059,0.38974 0.68059,0.82019l0.01745,0.05235c0.24431,0.32575 0.33157,0.69222 0.26176,1.09941c0.18614,0.40719 0.20941,1.04706 0.0698,1.9196c-0.0349,1.16339 -0.16869,2.09411 -0.40137,2.79215l-0.19196,0.31412l-0.8551,1.67529c-0.37229,0.52353 -0.66895,0.86673 -0.89,1.0296c-0.04653,0.19778 -0.40719,0.50608 -1.08196,0.9249l-0.33157,0.22686c-0.41882,0.33739 -1.20993,0.65732 -2.37333,0.9598c-0.19778,0.04653 -0.3432,0.0698 -0.43627,0.0698c-0.08144,0 -0.16288,0.01163 -0.24431,0.0349l-0.47118,-0.59333c0.47699,-0.23268 0.66314,-0.12798 0.55843,0.31412v0.31412l0.0349,0.83764c-0.04653,0.15124 -0.0698,0.33157 -0.0698,0.54098c0,0.22104 0.01745,0.38392 0.05235,0.48863l-0.10471,0.9249v0.90745c-0.10471,0.39555 -0.15124,0.66895 -0.13961,0.82019c0.02327,0.16288 -0.07562,0.25595 -0.29667,0.27921c0.20941,0 0.31412,0.08725 0.31412,0.26176c0,0.17451 -0.05817,0.40137 -0.17451,0.68059c-0.10471,0.29085 -0.20941,0.51771 -0.31412,0.68059c-0.10471,0.16288 -0.26758,0.06398 -0.48863,-0.29667c0.15124,0.32575 0.09889,0.5817 -0.15706,0.76784l-0.38392,0.0698c-0.79111,0 -1.40771,-0.15706 -1.8498,-0.47118c-0.44209,-0.31412 -0.69804,-0.97143 -0.76784,-1.97195c0.34902,0.08144 0.43045,0.10471 0.24431,0.0698c-0.18614,-0.0349 -0.31994,-0.20359 -0.40137,-0.50608c0,-0.10471 -0.0349,-0.25013 -0.10471,-0.43627l0.08725,-0.71549c-0.0698,-0.63987 -0.09889,-1.01797 -0.08725,-1.13431c0.01163,-0.11634 0.02327,-0.20359 0.0349,-0.26176c0.01163,-0.04653 0,-0.19778 -0.0349,-0.45372c-0.02327,-0.25595 0.01745,-0.6515 0.12216,-1.18666c-0.02327,-0.13961 -0.01745,-0.48863 0.01745,-1.04706c0.09307,-0.5468 0.13961,-1.09941 0.13961,-1.65784c0.0698,-0.11634 0.10471,-0.21523 0.10471,-0.29667v-0.55843c0.32575,0.04653 0.33157,0.00582 0.01745,-0.12216l0.0349,-0.19196c0,-0.11634 0.0349,-0.45372 0.10471,-1.01215c0.08144,-0.57006 0.13961,-0.94817 0.17451,-1.13431c0.04653,-0.19778 0.08725,-0.53516 0.12216,-1.01215c0.0349,-0.48863 0.04653,-0.76784 0.0349,-0.83764c-0.0698,-0.20941 -0.02327,-0.68641 0.13961,-1.43098c-0.02327,-0.16288 -0.0349,-0.55261 -0.0349,-1.16921c0.11634,-0.36065 0.17451,-0.89582 0.17451,-1.60549c0.10471,-0.5119 0.22686,-0.9249 0.36647,-1.23902c0.13961,-0.31412 0.5119,-0.58751 1.11686,-0.82019h0.26176c0.13961,0.0349 0.3083,0.06398 0.50608,0.08725c0.79111,0.10471 1.2681,0.27921 1.43098,0.52353l0.17451,0.15706c0.24431,0.25595 0.36647,0.62241 0.36647,1.09941c-0.04653,0.27921 -0.22686,0.413 -0.54098,0.40137zM248.87081,175.53227l0.20941,-1.76254l0.0349,-0.89c0,-0.37229 0.08144,-0.68059 0.24431,-0.9249l0.34902,-0.48863c0.63987,-0.50026 1.08196,-0.79111 1.32627,-0.87255c0.25595,-0.09307 0.59333,-0.09307 1.01215,0c0.43045,0.09307 0.70967,0.20359 0.83764,0.33157l0.24431,0.20941c0.36065,0.20941 0.54098,0.47118 0.54098,0.78529c0.17451,0.23268 0.16869,0.50608 -0.01745,0.82019c-0.0698,0.08144 -0.23268,1.15176 -0.48863,3.21097l-0.24431,4.06607l-0.13961,0.78529c0,0.17451 0.00582,0.28503 0.01745,0.33157v0.61078c-0.04653,0.5119 -0.08725,0.80274 -0.12216,0.87255c0,0.0698 -0.17451,0.12216 -0.52353,0.15706c0.34902,-0.10471 0.52353,0.05817 0.52353,0.48863c0,0.43045 -0.12216,0.64568 -0.36647,0.64568c0.15124,0.24431 0.22686,0.49444 0.22686,0.75039c0,0.25595 0.02327,0.54098 0.0698,0.8551c0.04653,0.31412 0.06398,0.62823 0.05235,0.94235l0.12216,1.11686v0.43627c0.0349,0.36065 0.05235,0.6515 0.05235,0.87255l0.15706,1.50078l0.10471,0.78529c0.0698,0.43045 0.02908,0.87255 -0.12216,1.32627c-0.15124,0.46536 -0.42464,0.77366 -0.82019,0.9249c-0.83764,0.33739 -1.65784,0.18033 -2.46058,-0.47118h-0.31412c-0.32575,-0.37229 -0.5119,-0.65732 -0.55843,-0.8551c-0.24431,-0.11634 -0.35484,-0.3083 -0.33157,-0.57588c0.02327,-0.26758 -0.01163,-0.47699 -0.10471,-0.62823c-0.09307,-0.15124 -0.13961,-0.3432 -0.13961,-0.57588c0,-0.22104 -0.01745,-0.44209 -0.05235,-0.66314l0.38392,-0.15706c-0.30248,0.05817 -0.45372,-0.05235 -0.45372,-0.33157l-0.05235,-0.54098v-0.27921c0,-0.11634 -0.01163,-0.22686 -0.0349,-0.33157c-0.01163,-0.10471 0.13379,-0.19196 0.43627,-0.26176c-0.30248,0.0349 -0.42464,-0.27921 -0.36647,-0.94235c0.11634,-1.50078 0.17451,-2.54202 0.17451,-3.12372l0.0349,-0.71549v-0.83764c0.01163,-0.48863 0.02327,-1.14013 0.0349,-1.9545c0.01163,-0.82601 0.16288,-1.20993 0.45372,-1.15176l-0.38392,-0.13961c0,-0.53516 0.07562,-1.21575 0.22686,-2.04176c0.15124,-0.82601 0.22686,-1.26229 0.22686,-1.30882zM260.8847,182.89656l0.17451,0.13961c0.17451,0.05817 -0.00582,0.48281 -0.54098,1.27392c-0.73294,1.01215 -1.25647,2.00686 -1.57058,2.98411c-0.19778,0.57006 -0.31412,1.02379 -0.34902,1.36117c0,0.33739 -0.0349,0.55261 -0.10471,0.64568c-0.09307,0.08144 -0.12216,0.06398 -0.08725,-0.05235c0.0349,-0.12798 0.04072,-0.27921 0.01745,-0.45372c0.17451,-0.09307 0.3432,-0.28503 0.50608,-0.57588c0.29085,-0.40719 0.52353,-0.55261 0.69804,-0.43627l-0.0349,-0.66314l0.9947,-0.55843c-0.57006,0.38392 -0.68059,0.05817 -0.33157,-0.97725c0.20941,-0.36065 0.31994,-0.6166 0.33157,-0.76784zM254.61981,189.94673c-0.0698,-0.84928 -0.05817,-1.5415 0.0349,-2.07666c0.46536,-1.68692 0.94235,-2.92012 1.43098,-3.6996c-0.24431,-0.05817 -0.29085,-0.35484 -0.13961,-0.89c0.24431,-0.76784 0.55843,-1.19248 0.94235,-1.27392c-0.24431,-0.11634 -0.29085,-0.30248 -0.13961,-0.55843c0,-0.24431 0.27921,-0.63405 0.83764,-1.16921l0.33157,-0.38392c0.48863,-0.43045 1.12268,-0.64568 1.90215,-0.64568c0.27921,-0.0349 0.62823,-0.01745 1.04706,0.05235c0.66314,0.29085 1.3728,0.70386 2.12901,1.23902l0.20941,0.12216c0.13961,0.0349 0.25013,0.0698 0.33157,0.10471c0.05817,0 0.28503,0.06398 0.68059,0.19196l0.43627,0.34902c0.30248,0.19778 0.51771,0.59915 0.64568,1.20411c-0.17451,0.15124 -0.25595,0.47118 -0.24431,0.9598c-0.0698,0.82601 -0.00582,1.80326 0.19196,2.93176c0.08144,1.04706 0.26758,2.17555 0.55843,3.38548c0,0.08144 0.07562,0.35484 0.22686,0.82019c0.16288,0.45372 0.22686,0.76784 0.19196,0.94235c0,0.87255 -0.67477,1.30882 -2.02431,1.30882c-1.17503,-0.0698 -1.99522,-0.59915 -2.46058,-1.58803c-0.02327,-0.0698 -0.0698,-0.18033 -0.13961,-0.33157c-0.29085,-0.27921 -0.45954,-0.57006 -0.50608,-0.87255l0.22686,-0.31412c-0.24431,0.0349 -0.19196,-0.05817 0.15706,-0.27921c0.09307,0.50026 -0.0349,0.9249 -0.38392,1.27392l-0.61078,0.97725l-0.31412,0.10471c0.02327,0.24431 -0.25595,0.44791 -0.83764,0.61078c-0.57006,0.16288 -0.97143,0.19196 -1.20411,0.08725c-0.0698,0 -0.22686,-0.0349 -0.47118,-0.10471l-1.30882,-0.52353c-0.41882,-0.10471 -0.72131,-0.28503 -0.90745,-0.54098c-0.37229,-0.24431 -0.3781,-0.47699 -0.01745,-0.69804c-0.5817,-0.27921 -0.84928,-0.51771 -0.80274,-0.71549zM267.35364,183.68185c-0.0349,-0.36065 -0.04653,-0.6166 -0.0349,-0.76784v-0.76784l0.15706,-1.25647c0,-0.0698 0.16869,-0.68641 0.50608,-1.8498c0.15124,-0.30248 0.31994,-0.58751 0.50608,-0.8551c0.19778,-0.36065 0.52935,-0.58751 0.9947,-0.68059c0.17451,-0.17451 0.86673,-0.11052 2.07666,0.19196c0.31412,0.31412 0.48863,1.15176 0.52353,2.51293l-0.01745,1.29137v1.69274l-0.15706,1.23902l-0.08725,1.9196c0.0698,0.11634 0.08725,0.29667 0.05235,0.54098c-0.0349,0.24431 -0.02327,0.58751 0.0349,1.0296c0.11634,0.80274 0.20941,1.22738 0.27921,1.27392c-0.18614,0.22104 -0.28503,0.19196 -0.29667,-0.08725c0,0 0.16288,-0.31412 0.48863,-0.94235l0.66314,-0.80274l-0.38392,-0.13961l0.13961,-0.29667c0.05817,-0.40719 0.14543,-0.70967 0.26176,-0.90745c-0.02327,-0.18614 0.14543,-0.76202 0.50608,-1.72764l-0.01745,-0.22686l0.08725,-0.48863l-0.08725,-0.9249c-0.11634,-0.6515 -0.17451,-1.13431 -0.17451,-1.44843l-0.12216,-1.09941c0,-0.37229 0.0698,-0.97143 0.20941,-1.79745c0.19778,-0.27921 0.38392,-0.45954 0.55843,-0.54098c0.18614,-0.08144 0.60496,-0.20941 1.25647,-0.38392c0.19778,0.04653 0.40719,0.08725 0.62823,0.12216c0.22104,0.02327 0.43627,0.09889 0.64568,0.22686c0.34902,0.05817 0.60496,0.22686 0.76784,0.50608c0.10471,0.23268 0.18614,0.84346 0.24431,1.83235c0.05817,0.5468 0.08725,1.0296 0.08725,1.44843c0.0698,0.67477 0.10471,1.29719 0.10471,1.86725l0.01745,0.55843v0.47118c-0.0349,0.36065 -0.04072,0.75039 -0.01745,1.16921c0.0349,0.41882 0.05235,0.64568 0.05235,0.68059c0.05817,1.00052 0.08725,1.68111 0.08725,2.04176c0.0349,1.51241 0.02908,2.35006 -0.01745,2.51293c-0.04653,0.15124 -0.01163,0.25595 0.10471,0.31412l-0.05235,1.06451c0,0.75621 -0.05235,1.43679 -0.15706,2.04176c0,0.23268 -0.02327,0.46536 -0.0698,0.69804c-0.0698,0.44209 -0.13961,0.91327 -0.20941,1.41353l-0.45372,0.73294c-0.32575,-0.09307 -0.41882,-0.09889 -0.27921,-0.01745c0.13961,0.08144 0.08144,0.11634 -0.17451,0.10471c0.08144,0.26758 -0.23849,0.63987 -0.9598,1.11686c-0.13961,0.05817 -0.29085,0.14543 -0.45372,0.26176c-0.16288,0.12798 -0.48863,0.24431 -0.97725,0.34902c-0.76784,0.09307 -1.55313,-0.00582 -2.35588,-0.29667l-0.75039,-0.26176c-1.2332,-0.6166 -1.9196,-1.0296 -2.05921,-1.23902c-0.12798,-0.20941 -0.17451,-0.37229 -0.13961,-0.48863c-0.39555,-0.91908 -0.31412,-1.66947 0.24431,-2.25117c0.57006,-0.57006 1.41934,-0.49444 2.54784,0.22686c-0.17451,0.20941 0.08144,0.37229 0.76784,0.48863c0.40719,0.15124 0.6515,0.23849 0.73294,0.26176l0.0698,-0.01745l0.0698,-0.08725l0.52353,-0.0698c-0.27921,-0.11634 -0.36065,-0.26758 -0.24431,-0.45372c0,-0.05817 0.06398,-0.31994 0.19196,-0.78529c0,-0.0698 0.01745,-0.26176 0.05235,-0.57588c0.0349,-0.30248 0.05235,-0.50026 0.05235,-0.59333v-0.9249c0.08144,-0.0698 0.06398,-0.53516 -0.05235,-1.39607c0.44209,0.38392 0.47118,0.50026 0.08725,0.34902c0,-0.19778 0.16869,-0.30248 0.50608,-0.31412c0.30248,0.15124 0.33739,0.46536 0.10471,0.94235l-0.52353,0.48863c-0.12798,0.24431 -0.3083,0.40137 -0.54098,0.47118c-0.22104,0.08144 -0.5817,-0.09307 -1.08196,-0.52353c0.39555,0.27921 0.33739,0.51771 -0.17451,0.71549c-0.55843,0.01163 -0.95398,-0.01163 -1.18666,-0.0698c-0.22104,0 -0.38974,-0.01745 -0.50608,-0.05235c-0.38392,0 -0.70967,-0.12798 -0.97725,-0.38392c-0.72131,-0.13961 -1.29137,-0.90745 -1.71019,-2.30352c-0.16288,-1.31464 -0.24431,-2.09411 -0.24431,-2.33842c0.01163,-0.25595 -0.01745,-0.6515 -0.08725,-1.18666l0.31412,-0.57588c-0.24431,0.02327 -0.38974,-0.25595 -0.43627,-0.83764c-0.04653,-0.59333 -0.05817,-0.97143 -0.0349,-1.13431zM285.91814,181.83205c0.05817,-0.22104 0.06398,-0.44209 0.01745,-0.66314c0.08144,0.0698 0.07562,0.10471 -0.01745,0.10471c-0.02327,0 -0.11052,0.17451 -0.26176,0.52353c-0.30248,0.45372 -0.57006,1.08196 -0.80274,1.8847l-0.45372,-0.59333c0.17451,0.88418 0.09307,1.29719 -0.24431,1.23902c0.27921,-0.26758 0.47118,-0.40137 0.57588,-0.40137c0.10471,-0.01163 0.22686,-0.07562 0.36647,-0.19196c0.36065,-0.33739 0.63405,-0.97143 0.82019,-1.90215zM286.44167,186.87537l-1.09941,0.08725c-0.69804,0 -1.04706,-0.09307 -1.04706,-0.27921h0.27921c0.04653,1.45425 0.38974,2.37333 1.0296,2.75725c0.13961,0.05817 0.23849,0.08725 0.29667,0.08725c0.05817,0 0.14543,-0.0349 0.26176,-0.10471c-0.01163,0 -0.01163,-0.00582 0,-0.01745c0.0698,-0.50026 0.29085,-0.70386 0.66314,-0.61078c0.86091,-1.18666 1.65784,-1.58803 2.39078,-1.20411c0.6166,0.39555 0.9249,0.78529 0.9249,1.16921c0,0.26758 -0.11634,0.41882 -0.34902,0.45372h0.19196c0,0.29085 -0.13961,0.72131 -0.41882,1.29137c-0.26758,0.57006 -0.54098,1.03542 -0.82019,1.39607c-0.17451,0.38392 -0.43045,0.66314 -0.76784,0.83764c-0.74457,0.46536 -1.53568,0.6515 -2.37333,0.55843c-0.32575,-0.02327 -0.49444,-0.14543 -0.50608,-0.36647c0,-0.01163 -0.02327,0.0698 -0.0698,0.24431l-0.33157,-0.05235c-0.26758,0 -0.5119,-0.0698 -0.73294,-0.20941c-0.05817,-0.20941 -0.12216,-0.23849 -0.19196,-0.08725c-0.66314,-0.25595 -1.05869,-0.43627 -1.18666,-0.54098c-0.11634,-0.10471 -0.22104,-0.18033 -0.31412,-0.22686c-0.09307,-0.05817 -0.30248,-0.29085 -0.62823,-0.69804c-0.27921,-0.23268 -0.44791,-0.40137 -0.50608,-0.50608c-0.09307,-0.12798 -0.20941,-0.25013 -0.34902,-0.36647c-0.12798,-0.11634 -0.20359,-0.33739 -0.22686,-0.66314c-0.09307,-0.11634 -0.13961,-0.27921 -0.13961,-0.48863l-0.10471,-0.24431c0.15124,-0.08144 0.16288,-0.07562 0.0349,0.01745c-0.26758,-0.26758 -0.40137,-0.57006 -0.40137,-0.90745l0.40137,-0.10471c-0.41882,0.11634 -0.57006,-0.0698 -0.45372,-0.55843v-0.68059l-0.0349,-0.26176v-0.15706c-0.0349,-0.12798 -0.01745,-0.3432 0.05235,-0.64568l-0.0349,-0.33157c0.29085,0.01163 0.33157,-0.14543 0.12216,-0.47118c0.10471,-0.5468 0.23268,-0.83183 0.38392,-0.8551l-0.13961,-0.17451c0.02327,-0.0698 0.0349,-0.15706 0.0349,-0.26176c0,-0.10471 0.02908,-0.22686 0.08725,-0.36647c0.05817,-0.15124 0.22104,-0.62241 0.48863,-1.41353l0.48863,-1.06451c0.16288,-0.34902 0.3781,-0.68641 0.64568,-1.01215c0.01163,-0.05817 0.11634,-0.26758 0.31412,-0.62823l0.41882,-0.38392c0.17451,-0.24431 0.42464,-0.42464 0.75039,-0.54098c0.34902,-0.17451 0.62241,-0.26176 0.82019,-0.26176l0.9249,-0.13961c0.11634,0.0349 0.17451,0.05235 0.17451,0.05235h0.40137c0.53516,0.04653 0.9598,0.14543 1.27392,0.29667c0.6515,0.20941 1.15758,0.48863 1.51823,0.83764c0.73294,0.82601 1.09941,1.61712 1.09941,2.37333c0,0.74457 -0.11634,1.39026 -0.34902,1.93705c-0.5119,1.17503 -0.87837,1.91378 -1.09941,2.21627c-0.46536,0.84928 -1.06451,1.27392 -1.79745,1.27392zM291.05355,189.3883c0.38392,-2.57111 0.57588,-3.89738 0.57588,-3.97881l0.17451,-1.08196c0.24431,0.05817 0.26176,-0.29085 0.05235,-1.04706v-0.62823l0.0698,-0.59333c-0.05817,-0.39555 -0.08725,-0.69804 -0.08725,-0.90745c-0.09307,-0.46536 -0.0349,-0.97143 0.17451,-1.51823c0.50026,-0.63987 1.2332,-0.84928 2.19882,-0.62823c0.36065,0.09307 0.6515,0.22686 0.87255,0.40137c0.27921,0.10471 0.47699,0.20359 0.59333,0.29667c0.34902,0.13961 0.38974,0.51771 0.12216,1.13431c-0.11634,-0.24431 0.3083,-0.5468 1.27392,-0.90745c0.13961,0 0.39555,-0.04072 0.76784,-0.12216c0.38392,-0.09307 0.73294,-0.13961 1.04706,-0.13961c0.32575,0 0.61078,0.05235 0.8551,0.15706c0.5119,0.29085 0.80274,0.50608 0.87255,0.64568c0.08144,0.12798 0.20359,0.40719 0.36647,0.83764c0.16288,0.43045 -0.05235,0.44791 -0.64568,0.05235c0.6166,0.0698 0.84346,0.35484 0.68059,0.8551c-0.33739,0.46536 -0.79111,0.72712 -1.36117,0.78529c-0.26758,0 -0.8551,0.2734 -1.76254,0.82019l-0.87255,0.43627c-0.75621,0.52353 -1.18084,0.70386 -1.27392,0.54098c-0.15124,4.21149 -0.27921,6.56737 -0.38392,7.06763c-0.10471,0.31412 -0.35484,0.62823 -0.75039,0.94235c-0.38392,0.31412 -0.83764,0.27921 -1.36117,-0.10471l-0.34902,-0.12216c-0.44209,-0.18614 -0.82601,-0.49444 -1.15176,-0.9249l-0.41882,-0.54098l-0.24431,-0.69804c0,-0.15124 -0.01163,-0.29085 -0.0349,-0.41882z" data-paper-data="{&quot;origPos&quot;:null}" fill="#ffffff" stroke="none" stroke-width="1" stroke-linecap="square"/></g></g></svg>