<svg version="1.1" xmlns="http://www.w3.org/2000/svg" xmlns:xlink="http://www.w3.org/1999/xlink" width="405.16871" height="279.68887"><defs><linearGradient x1="203.33129" y1="227.14864" x2="203.33129" y2="28.31114" gradientUnits="userSpaceOnUse" id="color-1"><stop offset="0" stop-color="#bd977e"/><stop offset="1" stop-color="#bd977e" stop-opacity="0"/></linearGradient><linearGradient x1="193.33129" y1="230.14864" x2="193.33129" y2="31.31114" gradientUnits="userSpaceOnUse" id="color-2"><stop offset="0" stop-color="#bd977e"/><stop offset="1" stop-color="#bd977e" stop-opacity="0"/></linearGradient><linearGradient x1="182.33129" y1="235.14864" x2="182.33129" y2="36.31114" gradientUnits="userSpaceOnUse" id="color-3"><stop offset="0" stop-color="#bd977e"/><stop offset="1" stop-color="#bd977e" stop-opacity="0"/></linearGradient></defs><g transform="translate(-147.83129,-28.31114)"><g data-paper-data="{&quot;isPaintingLayer&quot;:true}" fill="none" fill-rule="nonzero" stroke="none" stroke-width="none" stroke-linecap="none" stroke-linejoin="none" stroke-miterlimit="10" stroke-dasharray="" stroke-dashoffset="0" font-family="none" font-weight="none" font-size="none" text-anchor="none" style="mix-blend-mode: normal"><path d="M381,244.46667c0,0 13.97527,-14.33333 21,-14.33333c11.70789,0 27,14.33333 27,14.33333z" data-paper-data="{&quot;origPos&quot;:null}" fill="#adadad" stroke="none" stroke-width="NaN" stroke-linecap="butt" stroke-linejoin="miter"/><path d="M307,241.46667c0,0 13.97527,-14.33333 21,-14.33333c11.70788,0 27,14.33333 27,14.33333z" data-paper-data="{&quot;origPos&quot;:null}" fill="#adadad" stroke="none" stroke-width="NaN" stroke-linecap="butt" stroke-linejoin="miter"/><g data-paper-data="{&quot;origPos&quot;:null,&quot;index&quot;:null}" stroke="none" stroke-linecap="butt" stroke-linejoin="miter"><path d="M343.00893,242.55696c0,0 -6.0429,-33.92074 15.53151,-28.73328c14.85251,3.57121 12.42521,28.73328 12.42521,28.73328z" data-paper-data="{&quot;origPos&quot;:null}" fill="#ababab" stroke-width="0"/><path d="M346.35001,241.22053c0,0 -6.0429,-33.92074 15.5315,-28.73328c14.8525,3.57121 12.4252,28.73328 12.4252,28.73328z" data-paper-data="{&quot;origPos&quot;:null}" fill="#c0c0c0" stroke-width="0"/><path d="M357.60131,231.86551c-1.84522,0 -3.34108,-1.49585 -3.34108,-3.34108c0,-1.84522 1.49585,-3.34108 3.34108,-3.34108c1.84522,0 3.34108,1.49585 3.34108,3.34108c0,1.84522 -1.49585,3.34108 -3.34108,3.34108z" data-paper-data="{&quot;origPos&quot;:null}" fill="#ababab" stroke-width="0.5"/></g><g data-paper-data="{&quot;origPos&quot;:null,&quot;index&quot;:null}" stroke="none" stroke-linecap="butt" stroke-linejoin="miter"><path d="M478.00892,253.55696c0,0 -6.04289,-33.92074 15.53151,-28.73328c14.85251,3.57121 12.42521,28.73328 12.42521,28.73328z" data-paper-data="{&quot;origPos&quot;:null}" fill="#ababab" stroke-width="0"/><path d="M481.35,252.22053c0,0 -6.04289,-33.92074 15.5315,-28.73328c14.8525,3.57121 12.4252,28.73328 12.4252,28.73328z" data-paper-data="{&quot;origPos&quot;:null}" fill="#c0c0c0" stroke-width="0"/><path d="M492.60131,242.86551c-1.84523,0 -3.34108,-1.49585 -3.34108,-3.34107c0,-1.84523 1.49586,-3.34108 3.34108,-3.34108c1.84523,0 3.34108,1.49585 3.34108,3.34108c0,1.84523 -1.49585,3.34107 -3.34108,3.34107z" data-paper-data="{&quot;origPos&quot;:null}" fill="#ababab" stroke-width="0.5"/></g><g data-paper-data="{&quot;origPos&quot;:null}" stroke-linejoin="miter"><path d="M437,297.00001v-41" data-paper-data="{&quot;origPos&quot;:null}" fill="none" stroke="#adadad" stroke-width="10" stroke-linecap="round"/><path d="M437,297.00001l-0.25,-7.75" data-paper-data="{&quot;origPos&quot;:null}" fill="none" stroke="#5e5e5e" stroke-width="10" stroke-linecap="round"/><path d="M426,298.00001c0,-5.52284 4.47716,-10 10,-10c5.52285,0 10,4.47716 10,10c0,5.52284 -4.47715,10 -10,10c-5.52284,0 -10,-4.47716 -10,-10z" fill="#929292" stroke="none" stroke-width="0.5" stroke-linecap="butt"/></g><g data-paper-data="{&quot;origPos&quot;:null}" stroke-linejoin="miter"><path d="M472,245.00001v41" data-paper-data="{&quot;origPos&quot;:null}" fill="none" stroke="#adadad" stroke-width="10" stroke-linecap="round"/><path d="M472,286.00001l-0.25,-7.75" data-paper-data="{&quot;origPos&quot;:null}" fill="none" stroke="#5e5e5e" stroke-width="10" stroke-linecap="round"/><path d="M461,287.00001c0,-5.52284 4.47716,-10 10,-10c5.52285,0 10,4.47716 10,10c0,5.52284 -4.47715,10 -10,10c-5.52284,0 -10,-4.47716 -10,-10z" fill="#929292" stroke="none" stroke-width="0.5" stroke-linecap="butt"/></g><g data-paper-data="{&quot;origPos&quot;:null}" stroke-linejoin="miter"><path d="M508,292.00001v-41" data-paper-data="{&quot;origPos&quot;:null}" fill="none" stroke="#adadad" stroke-width="10" stroke-linecap="round"/><path d="M507.75,284.25001l0.25,7.75" data-paper-data="{&quot;origPos&quot;:null}" fill="none" stroke="#5e5e5e" stroke-width="10" stroke-linecap="round"/><path d="M497,293.00001c0,-5.52284 4.47716,-10 10,-10c5.52285,0 10,4.47716 10,10c0,5.52284 -4.47715,10 -10,10c-5.52284,0 -10,-4.47716 -10,-10z" fill="#929292" stroke="none" stroke-width="0.5" stroke-linecap="butt"/></g><g data-paper-data="{&quot;origPos&quot;:null}" stroke-linejoin="miter"><path d="M544,285.00001v-41" data-paper-data="{&quot;origPos&quot;:null}" fill="none" stroke="#adadad" stroke-width="10" stroke-linecap="round"/><path d="M544,285.00001l-0.25,-7.75" data-paper-data="{&quot;origPos&quot;:null}" fill="none" stroke="#5e5e5e" stroke-width="10" stroke-linecap="round"/><path d="M533,286.00001c0,-5.52284 4.47716,-10 10,-10c5.52285,0 10,4.47716 10,10c0,5.52284 -4.47715,10 -10,10c-5.52284,0 -10,-4.47716 -10,-10z" fill="#929292" stroke="none" stroke-width="0.5" stroke-linecap="butt"/></g><g data-paper-data="{&quot;origPos&quot;:null}" stroke-linejoin="miter"><path d="M401,284.00001v-41" data-paper-data="{&quot;origPos&quot;:null}" fill="none" stroke="#adadad" stroke-width="10" stroke-linecap="round"/><path d="M401,284.00001l-0.25,-7.75" data-paper-data="{&quot;origPos&quot;:null}" fill="none" stroke="#5e5e5e" stroke-width="10" stroke-linecap="round"/><path d="M390,285.00001c0,-5.52284 4.47716,-10 10,-10c5.52285,0 10,4.47716 10,10c0,5.52284 -4.47715,10 -10,10c-5.52284,0 -10,-4.47716 -10,-10z" fill="#929292" stroke="none" stroke-width="0.5" stroke-linecap="butt"/></g><g data-paper-data="{&quot;origPos&quot;:null}" stroke-linejoin="miter"><path d="M256,250.00001v41" data-paper-data="{&quot;origPos&quot;:null}" fill="none" stroke="#adadad" stroke-width="10" stroke-linecap="round"/><path d="M255.75,283.25001l0.25,7.75" data-paper-data="{&quot;origPos&quot;:null}" fill="none" stroke="#5e5e5e" stroke-width="10" stroke-linecap="round"/><path d="M245,292.00001c0,-5.52284 4.47716,-10 10,-10c5.52285,0 10,4.47716 10,10c0,5.52284 -4.47715,10 -10,10c-5.52284,0 -10,-4.47716 -10,-10z" fill="#929292" stroke="none" stroke-width="0.5" stroke-linecap="butt"/></g><g data-paper-data="{&quot;origPos&quot;:null}" stroke-linejoin="miter"><path d="M289,246.00001v41" data-paper-data="{&quot;origPos&quot;:null}" fill="none" stroke="#adadad" stroke-width="10" stroke-linecap="round"/><path d="M288.75,279.25001l0.25,7.75" data-paper-data="{&quot;origPos&quot;:null}" fill="none" stroke="#5e5e5e" stroke-width="10" stroke-linecap="round"/><path d="M278,288.00001c0,-5.52284 4.47716,-10 10,-10c5.52285,0 10,4.47716 10,10c0,5.52284 -4.47715,10 -10,10c-5.52284,0 -10,-4.47716 -10,-10z" fill="#929292" stroke="none" stroke-width="0.5" stroke-linecap="butt"/></g><g data-paper-data="{&quot;origPos&quot;:null}" stroke-linejoin="miter"><path d="M325,293.00001v-41" data-paper-data="{&quot;origPos&quot;:null}" fill="none" stroke="#adadad" stroke-width="10" stroke-linecap="round"/><path d="M324.75,285.25001l0.25,7.75" data-paper-data="{&quot;origPos&quot;:null}" fill="none" stroke="#5e5e5e" stroke-width="10" stroke-linecap="round"/><path d="M314,294.00001c0,-5.52284 4.47716,-10 10,-10c5.52285,0 10,4.47716 10,10c0,5.52284 -4.47715,10 -10,10c-5.52284,0 -10,-4.47716 -10,-10z" fill="#929292" stroke="none" stroke-width="0.5" stroke-linecap="butt"/></g><g data-paper-data="{&quot;origPos&quot;:null}" stroke-linejoin="miter"><path d="M361,243.00001v41" data-paper-data="{&quot;origPos&quot;:null}" fill="none" stroke="#adadad" stroke-width="10" stroke-linecap="round"/><path d="M360.75,276.25001l0.25,7.75" data-paper-data="{&quot;origPos&quot;:null}" fill="none" stroke="#5e5e5e" stroke-width="10" stroke-linecap="round"/><path d="M350,285.00001c0,-5.52284 4.47716,-10 10,-10c5.52285,0 10,4.47716 10,10c0,5.52284 -4.47715,10 -10,10c-5.52284,0 -10,-4.47716 -10,-10z" fill="#929292" stroke="none" stroke-width="0.5" stroke-linecap="butt"/></g><g data-paper-data="{&quot;origPos&quot;:null}" stroke-linejoin="miter"><path d="M218,285.00001v-41" data-paper-data="{&quot;origPos&quot;:null}" fill="none" stroke="#adadad" stroke-width="10" stroke-linecap="round"/><path d="M218,285.00001l-0.25,-7.75" data-paper-data="{&quot;origPos&quot;:null}" fill="none" stroke="#5e5e5e" stroke-width="10" stroke-linecap="round"/><path d="M207,286.00001c0,-5.52284 4.47716,-10 10,-10c5.52285,0 10,4.47716 10,10c0,5.52284 -4.47715,10 -10,10c-5.52284,0 -10,-4.47716 -10,-10z" fill="#929292" stroke="none" stroke-width="0.5" stroke-linecap="butt"/></g><path d="M237.83129,28.31114v198.8375h-69v-198.8375z" data-paper-data="{&quot;origPos&quot;:null,&quot;index&quot;:null}" fill="url(#color-1)" stroke="none" stroke-width="0" stroke-linecap="butt" stroke-linejoin="miter"/><path d="M227.83129,31.31114v198.8375h-69v-198.8375z" data-paper-data="{&quot;origPos&quot;:null,&quot;index&quot;:null}" fill="url(#color-2)" stroke="none" stroke-width="0" stroke-linecap="butt" stroke-linejoin="miter"/><path d="M216.83129,36.31114v198.8375h-69v-198.8375z" data-paper-data="{&quot;origPos&quot;:null,&quot;index&quot;:null}" fill="url(#color-3)" stroke="none" stroke-width="0" stroke-linecap="butt" stroke-linejoin="miter"/><g><g data-paper-data="{&quot;origPos&quot;:null,&quot;origRot&quot;:0}" stroke="none" stroke-width="0" stroke-linecap="butt" stroke-linejoin="miter"><g data-paper-data="{&quot;origPos&quot;:null}"><path d="M472.52069,248.31495l-2.24013,-56.82926l28.41461,-1.12007l2.24013,56.82926z" data-paper-data="{&quot;origPos&quot;:null,&quot;origRot&quot;:0}" fill="#c7c7c7"/><path d="M449.18184,204.21193l-19.65371,-16.06598l18.24178,-19.75248l72.22654,-1.75072l1.41191,35.81846z" data-paper-data="{&quot;origPos&quot;:null,&quot;origRot&quot;:0}" fill="#b6b6b6"/></g><path d="M474.87487,193.38993c0,0 -2.23269,-8.79378 -3.74048,-13.16203c-1.75787,-5.0927 -4.84455,-12.25681 -4.84455,-12.25681l7.9807,-0.25695c0,0 -0.54546,4.95271 -0.45443,8.81997c0.14481,6.15306 1.05878,16.85582 1.05878,16.85582z" data-paper-data="{&quot;origPos&quot;:null}" fill="#838383"/><path d="M456.06821,178.31709c0,0 2.2327,8.79379 3.74051,13.16204c1.75786,5.09274 4.84455,12.25684 4.84455,12.25684l-7.9807,0.25695c0,0 0.54547,-4.95268 0.45443,-8.81997c-0.14481,-6.15303 -1.05877,-16.85582 -1.05877,-16.85582z" data-paper-data="{&quot;origPos&quot;:null,&quot;index&quot;:null}" fill="#838383"/><path d="M505.78842,176.94647c0,0 2.23269,8.79378 3.74048,13.16203c1.75786,5.09274 4.84455,12.25684 4.84455,12.25684l-7.9807,0.25695c0,0 0.54544,-4.95268 0.45443,-8.81997c-0.14482,-6.15303 -1.05877,-16.85583 -1.05877,-16.85583z" data-paper-data="{&quot;origPos&quot;:null,&quot;index&quot;:null}" fill="#838383"/></g><g data-paper-data="{&quot;origPos&quot;:null}"><path d="M489.4274,207.59807c0,0 1.80163,2.48031 0.52005,3.41338c-0.68813,0.50386 -1.6433,-0.49296 -1.90719,-0.85362c-0.38205,-0.52357 -0.50797,-0.64959 -0.58943,-1.30603c-0.08117,-0.65502 -0.40447,-3.06359 -0.27336,-3.93552c0.20621,-1.36636 1.15021,-3.64032 1.83488,-0.45811c0,0 0.21571,1.80214 0.38754,3.00673l0.02752,0.13318v0v0v0v0v0v0v0v0v0v0v0v0v0v0v0v0v0v0v0v0v0v0v0v0v0v0v0v0v0v0v0v0v0v0v0v0v0zM489.03757,207.09765l0.38982,0.50042" data-paper-data="{&quot;origPos&quot;:null}" id="R_Arm_2_" fill="#f05a28" stroke="#000000" stroke-width="0.90192" stroke-linecap="round" stroke-linejoin="miter"/><g data-paper-data="{&quot;origPos&quot;:null}" id="Body_1_" stroke-width="0.90192"><path d="M488.3575,204.74736c-0.12393,0.8205 -0.45408,2.9573 -0.401,3.3797l-0.07717,-0.17234c0.15834,0.44582 0.31839,1.07998 0.26761,1.73929c-0.09866,1.28001 -0.80399,1.96588 -1.55349,2.33199l-0.00861,0.04172l-0.64308,2.55548c0.01232,-0.00029 0.12162,0.00629 0.89091,0.08032c0.97466,0.09314 0.5209,0.67816 0.5209,0.67816l-1.81685,-0.03232l-0.09292,-0.00114l-3.67125,-0.06543c-0.04505,-0.14888 -0.00917,-0.6093 0.22345,-1.77386c0.08977,-0.45753 0.17295,-0.85107 0.24555,-1.17287l0.00057,-0.00228c-1.2403,-0.9605 -1.09142,-2.44688 -0.71337,-3.49856c0.24095,-0.67273 1.61632,-5.75084 1.61632,-5.75084c0,0 0.59778,-1.95017 3.07174,-1.27144c0,0 2.84772,0.47211 2.14096,2.93328c0,0.00086 -0.00028,0.00085 -0.00028,0.00114v0v0v0v0v0v0v0v0v0v0v0v0v0v0v0v0v0v0v0v0v0v0v0v0v0v0v0v0v0v0v0v0v0v0v0v0v0zM484.73473,212.36095c0,0 0.72914,0.11717 1.85843,-0.33437M487.95621,208.12735c-0.06454,-0.29494 -0.44861,-0.81564 -0.44861,-0.81564M482.46413,211.43213c0,0 -0.08289,0.2578 -0.22199,0.9025" id="Body_2_" fill="#f05a28" stroke="#000000" stroke-linecap="round" stroke-linejoin="round"/><path d="M485.61676,215.31622c-0.00228,0 -0.00457,0 -0.00603,0c-0.07946,-0.00371 -0.14082,-0.07028 -0.1374,-0.14888c0.00318,-0.07088 -0.01577,-0.12517 -0.05907,-0.17149c-0.18243,-0.1926 -0.73518,-0.2012 -1.06561,-0.20633c-0.09924,-0.00143 -0.18758,-0.00286 -0.25701,-0.00743c-0.0433,-0.00314 -0.08317,-0.02572 -0.10783,-0.06114c-0.02466,-0.03575 -0.03212,-0.0806 -0.01981,-0.12231c0.11848,-0.39839 0.2332,-0.80133 0.34795,-1.20401l0.14514,-0.50871c0.02177,-0.076 0.10038,-0.12117 0.17726,-0.09803c0.07628,0.02146 0.12019,0.10089 0.09866,0.17662l-0.14514,0.50785c-0.09781,0.34408 -0.19589,0.68874 -0.2963,1.02996c0.01978,0.00029 0.04044,0.00057 0.06139,0.00114c0.42392,0.006 1.0045,0.01515 1.2701,0.2958c0.09752,0.10257 0.14343,0.23062 0.1374,0.37922c-0.00399,0.07774 -0.0674,0.13774 -0.14371,0.13774v0v0v0v0v0v0v0v0v0v0v0v0v0v0v0v0v0v0v0v0v0v0v0v0v0v0v0v0v0v0v0v0v0v0v0v0v0v0z" id="Leg_Separation" fill="#000000" stroke="none" stroke-linecap="butt" stroke-linejoin="miter"/></g><path d="M483.6723,205.70789l-0.9411,1.54352l0.00429,-0.02689c0.03041,1.08456 -0.0433,2.96787 -0.90984,3.27653c-0.46668,0.16516 -1.56384,0.43097 -1.46403,-2.55234c0.08003,-2.40317 2.23362,-4.52682 3.06775,-5.26099c0,0 0.74232,0.4115 0.77159,1.20572c0.02895,0.79476 -0.52921,1.81329 -0.52865,1.81444v0v0v0v0v0v0v0v0v0v0v0v0v0v0v0v0v0v0v0v0v0v0v0v0v0v0v0v0v0v0v0v0v0v0v0v0v0zM482.73549,207.22453c0,-0.46011 -0.12793,-0.74587 -0.12793,-0.74587" data-paper-data="{&quot;origPos&quot;:null}" id="L_Arm_2_" fill="#f05a28" stroke="#000000" stroke-width="0.90192" stroke-linecap="round" stroke-linejoin="miter"/><path d="M473.88369,185.12144c0,0 0.26675,-1.08941 2.53678,-3.40484c2.26889,-2.31429 4.72507,-3.11133 6.35402,-3.77664c1.62894,-0.6653 2.72265,-3.98955 2.72265,-3.98955c0,0 1.49987,1.85875 3.04133,3.54887c1.57301,1.72357 5.23594,3.23422 9.16102,7.17034c0.4684,0.47125 0.86654,0.9645 1.20128,1.47064l0.06796,0.05917c0.87657,0.75759 3.98618,3.78004 3.58719,8.18055c-0.30463,3.35281 -1.83462,4.41223 -2.57665,4.69656l-0.00603,0.02457c0.38208,-0.75416 0.60953,-1.55467 0.71711,-2.36714c0.35481,-2.68694 -1.09859,-4.43252 -2.03023,-6.76965c-1.20789,-3.03045 -4.51198,-4.73542 -8.79014,-4.65053c-8.14245,0.1606 -9.93574,4.72142 -9.93574,4.72142l-0.00603,0.05918c1.51048,2.79496 2.11372,8.99445 -0.97926,10.84977c-3.33161,1.99563 -8.26464,1.29918 -10.18586,-6.41186c-1.75859,-7.05714 3.50715,-9.28053 5.05607,-9.26225l0.06454,-0.1486v0v0v0v0v0v0v0v0v0v0v0v0v0v0v0v0v0v0v0v0v0v0v0v0v0v0v0v0v0v0v0v0v0v0v0v0v0zM498.90049,186.14027c0,0 2.13635,3.38167 1.44105,7.5607M473.81916,185.26977c1.49787,0.04032 2.50181,1.10855 2.50181,1.10855M479.92792,190.09381c-0.25212,-0.39183 -0.42795,-0.71448 -0.42795,-0.71448" data-paper-data="{&quot;origPos&quot;:null}" id="Head_2_" fill="#f05a28" stroke="#000000" stroke-width="0.90192" stroke-linecap="round" stroke-linejoin="miter"/><path d="M500.44106,197.95371c0,0 0.67407,-1.2183 1.129,-3.45198c0.45436,-2.23483 -0.15203,-5.27355 -0.15203,-5.27355c0.75296,1.36061 1.32347,3.10675 1.13903,5.15182c-0.29545,3.2665 -1.81681,4.38048 -2.57722,4.69656l0.46122,-1.12284v0v0v0v0v0v0v0v0v0v0v0v0v0v0v0v0v0v0v0v0v0v0v0v0v0v0v0v0v0v0v0v0v0v0z" data-paper-data="{&quot;origPos&quot;:null}" id="R_Ear" fill="#404041" stroke="#000000" stroke-width="0.90192" stroke-linecap="butt" stroke-linejoin="miter"/><g data-paper-data="{&quot;origPos&quot;:null}" id="L_Ear" stroke="#231f20" stroke-width="0.90192" stroke-linejoin="miter"><path d="M468.93835,195.21935v0v0v0v0v0v0v0v0v0v0v0v0v0v0v0v0v0v0v0v0v0v0v0v0v0v0v0v0v0v0v0v0v0v0v0v0v0c-0.34364,-1.32318 -0.6428,-3.38656 -0.36715,-4.99122c0.28338,-1.65555 1.26064,-2.72839 2.33628,-2.98844c2.01389,-0.489 4.44826,2.40343 5.4393,6.45871c0.93279,3.82264 0.25269,7.31351 -1.5148,8.11284c0,0 -0.57884,0.07371 -1.74685,-0.56557c-1.16713,-0.63788 -2.17623,-1.73387 -2.58783,-2.4426c-0.41274,-0.70791 -1.21445,-2.25828 -1.55896,-3.58372z" id="Outer_Ear" fill="#404041" stroke-linecap="butt"/><path d="M470.18953,191.84707c0.77473,-0.33065 2.08959,0.9991 2.93721,2.97131c0.84672,1.97077 0.90613,3.83834 0.13222,4.16872c-0.77531,0.33008 -2.08959,-1.00024 -2.93664,-2.97184c-0.84815,-1.97135 -0.90698,-3.83752 -0.13279,-4.16817v0v0v0v0v0v0v0v0v0v0v0v0v0v0v0v0v0v0v0v0v0v0v0v0v0v0v0v0v0v0v0v0v0v0v0v0v0zM473.59685,198.66504c-3.19019,-2.01452 -3.15463,-6.86768 -3.15463,-6.86768" id="Inner_Ear" fill="#929497" stroke-linecap="round"/></g><path d="M478.68362,201.12621v0v0v0v0v0v0v0v0v0v0v0v0v0v0v0v0v0v0v0v0v0v0v0v0v0v0v0v0v0v0v0v0v0v0v0v0v0l-0.01721,-0.02174c0.09523,-0.05142 0.18933,-0.10514 0.28224,-0.1606c3.09699,-1.8576 2.48746,-8.07141 0.97351,-10.85979l0.01235,-0.04914c0,0 1.79333,-4.5614 9.93717,-4.72142c4.2782,-0.08488 7.58168,1.62009 8.78985,4.65054c0.93136,2.33714 2.38504,4.08272 2.02995,6.76965c-0.37091,2.79611 -2.16362,5.46704 -6.78257,6.55588c-4.6192,1.09256 -4.43305,0.50699 -5.98168,1.17001c-1.54806,0.66645 -1.62809,0.95878 -1.62809,0.95878c0,0 0.49595,-0.96708 -1.4881,-1.46121c-2.99574,-0.7439 -5.75423,-2.57691 -6.12743,-2.83096z" data-paper-data="{&quot;origPos&quot;:null}" id="Face" fill="#e6e7e8" stroke="#000000" stroke-width="0.90192" stroke-linecap="round" stroke-linejoin="miter"/><path d="M494.17627,195.77263c0,0 -0.23262,0.86304 -2.49434,1.02824c-2.26257,0.1663 -4.32493,-0.79476 -4.32493,-0.79476" data-paper-data="{&quot;origPos&quot;:null}" id="Mouth" fill="none" stroke="#231f20" stroke-width="0.90192" stroke-linecap="round" stroke-linejoin="miter"/><path d="M484.94787,190.74125c0.31903,0 0.60797,0.1292 0.81739,0.3376c0.20917,0.20866 0.33884,0.49652 0.33884,0.81438c0,0.31786 -0.12967,0.60575 -0.33884,0.8144c-0.20942,0.2084 -0.49836,0.33761 -0.81739,0.33761c-0.31903,0 -0.60797,-0.1292 -0.81739,-0.33761c-0.20917,-0.20866 -0.33884,-0.49655 -0.33884,-0.8144c0,-0.31786 0.12967,-0.60572 0.33884,-0.81438c0.20942,-0.2084 0.49836,-0.3376 0.81739,-0.3376v0v0v0v0v0v0v0v0v0v0v0v0v0v0v0v0v0v0v0v0v0v0v0v0v0v0v0v0v0v0v0v0v0z" data-paper-data="{&quot;origPos&quot;:null}" id="Left_Eye" fill="#ffffff" stroke="#000000" stroke-width="1.5" stroke-linecap="butt" stroke-linejoin="miter"/><path d="M495.39188,190.66188c0.31903,0 0.60798,0.1292 0.8174,0.3376c0.20917,0.20866 0.33884,0.49652 0.33884,0.81438c0,0.31786 -0.12967,0.60576 -0.33884,0.81441c-0.20942,0.2084 -0.49836,0.3376 -0.8174,0.3376c-0.31903,0 -0.60797,-0.1292 -0.81739,-0.3376c-0.20917,-0.20866 -0.33884,-0.49655 -0.33884,-0.81441c0,-0.31786 0.12968,-0.60572 0.33884,-0.81438c0.20942,-0.2084 0.49836,-0.3376 0.81739,-0.3376v0v0v0v0v0v0v0v0v0v0v0v0v0v0v0v0v0v0v0v0v0v0v0v0v0v0v0v0v0v0v0v0v0z" data-paper-data="{&quot;origPos&quot;:null}" id="Left_Eye" fill="#ffffff" stroke="#000000" stroke-width="1.5" stroke-linecap="butt" stroke-linejoin="miter"/></g></g></g></g></svg>