<svg version="1.1" xmlns="http://www.w3.org/2000/svg" xmlns:xlink="http://www.w3.org/1999/xlink" width="133.7504" height="133.69408"><g transform="translate(-173.09041,-113.18947)"><g data-paper-data="{&quot;isPaintingLayer&quot;:true}" fill="none" fill-rule="nonzero" stroke="none" stroke-width="none" stroke-linecap="butt" stroke-linejoin="miter" stroke-miterlimit="10" stroke-dasharray="" stroke-dashoffset="0" font-family="none" font-weight="none" font-size="none" text-anchor="none" style="mix-blend-mode: normal"><g data-paper-data="{&quot;origPos&quot;:null,&quot;origRot&quot;:0}" stroke="none" stroke-width="0"><g><path d="M265.69594,214.68318l-28.78964,32.18067l1.31098,-33.26365z" data-paper-data="{&quot;origPos&quot;:null,&quot;index&quot;:null,&quot;origRot&quot;:0}" fill="#707070"/><path d="M238.7169,213.6199l-1.31098,33.26365l-26.16769,-34.34662z" data-paper-data="{&quot;origPos&quot;:null,&quot;origRot&quot;:0,&quot;index&quot;:null}" fill="#7f7f7f"/><path d="M241.27531,146.36916l2.7013,-33.17969l24.70801,35.4112z" data-paper-data="{&quot;origPos&quot;:null,&quot;index&quot;:null,&quot;origRot&quot;:0}" fill="#707070"/><path d="M214.36435,144.17819l30.11062,-30.94817l-2.7013,33.17969z" data-paper-data="{&quot;origPos&quot;:null,&quot;origRot&quot;:0}" fill="#7f7f7f"/></g><g data-paper-data="{&quot;origPos&quot;:null,&quot;origRot&quot;:0}"><path d="M205.55768,206.02774l-32.45231,-28.48309l33.27458,0.99539z" data-paper-data="{&quot;origPos&quot;:null,&quot;index&quot;:null,&quot;origRot&quot;:0}" fill="#707070"/><path d="M206.365,179.03982l-33.27459,-0.99539l34.09687,-26.49233z" data-paper-data="{&quot;origPos&quot;:null,&quot;origRot&quot;:0,&quot;index&quot;:null}" fill="#7f7f7f"/><path d="M273.63699,180.96019l33.20382,2.38644l-35.17524,25.0428z" data-paper-data="{&quot;origPos&quot;:null,&quot;index&quot;:null,&quot;origRot&quot;:0}" fill="#707070"/><path d="M275.57256,154.02965l31.23241,29.8157l-33.20383,-2.38645z" data-paper-data="{&quot;origPos&quot;:null,&quot;origRot&quot;:0}" fill="#7f7f7f"/></g></g><g data-paper-data="{&quot;origRot&quot;:0,&quot;origPos&quot;:null}" stroke="none" stroke-width="0"><g><path d="M232.64919,222.15642l-43.13975,1.84429l24.73593,-22.27831z" data-paper-data="{&quot;origPos&quot;:null,&quot;index&quot;:null,&quot;origRot&quot;:0}" fill="#707070"/><path d="M214.57999,202.09392l-24.73593,22.27831l6.3321,-42.71233z" data-paper-data="{&quot;origPos&quot;:null,&quot;origRot&quot;:0,&quot;index&quot;:null}" fill="#7f7f7f"/><path d="M264.52556,156.98686l25.64621,-21.22406l-8.11329,42.41006z" data-paper-data="{&quot;origPos&quot;:null,&quot;index&quot;:null,&quot;origRot&quot;:0}" fill="#707070"/><path d="M247.31143,136.18605l43.17913,-0.03805l-25.64621,21.22406z" data-paper-data="{&quot;origPos&quot;:null,&quot;origRot&quot;:0}" fill="#7f7f7f"/></g><g data-paper-data="{&quot;origPos&quot;:null,&quot;origRot&quot;:0}"><path d="M196.87267,173.04871l-2.25342,-43.12031l22.51195,24.52349z" data-paper-data="{&quot;origPos&quot;:null,&quot;index&quot;:null,&quot;origRot&quot;:0}" fill="#707070"/><path d="M216.76287,154.79l-22.51195,-24.52349l42.77048,5.92666z" data-paper-data="{&quot;origPos&quot;:null,&quot;origRot&quot;:0,&quot;index&quot;:null}" fill="#7f7f7f"/><path d="M262.34167,204.30545l21.46638,25.44373l-42.48512,-7.71064z" data-paper-data="{&quot;origPos&quot;:null,&quot;index&quot;:null,&quot;origRot&quot;:0}" fill="#707070"/><path d="M282.97825,186.89478l0.44764,43.17683l-21.46638,-25.44374z" data-paper-data="{&quot;origPos&quot;:null,&quot;origRot&quot;:0}" fill="#7f7f7f"/></g></g><path d="M198.09399,181.0623c0,-22.09139 17.90861,-40 40,-40c22.09139,0 40,17.90861 40,40c0,22.09139 -17.90861,40 -40,40c-22.09139,0 -40,-17.90861 -40,-40z" data-paper-data="{&quot;origPos&quot;:null}" fill="#555555" stroke="none" stroke-width="0"/><path d="M201.09399,182.3123c0,-21.1249 17.1251,-38.25 38.25,-38.25c21.12489,0 38.25,17.1251 38.25,38.25c0,21.1249 -17.12511,38.25 -38.25,38.25c-21.1249,0 -38.25,-17.1251 -38.25,-38.25z" data-paper-data="{&quot;origPos&quot;:null}" fill="none" stroke="#3a3a3a" stroke-width="10.5"/><path d="M198.09398,181.0623c0,-22.09139 17.90861,-40 40,-40c22.09139,0 40,17.90861 40,40c0,22.09139 -17.90861,40 -40,40c-22.09139,0 -40,-17.90861 -40,-40z" data-paper-data="{&quot;origPos&quot;:null}" fill="none" stroke="#0b0b0b" stroke-width="13.5"/><path d="M197.5,180c0,-23.4721 19.0279,-42.5 42.5,-42.5c23.4721,0 42.5,19.0279 42.5,42.5c0,23.4721 -19.0279,42.5 -42.5,42.5c-23.4721,0 -42.5,-19.0279 -42.5,-42.5z" data-paper-data="{&quot;origPos&quot;:null}" fill="none" stroke="#323232" stroke-width="15"/></g></g></svg>