<svg version="1.1" xmlns="http://www.w3.org/2000/svg" xmlns:xlink="http://www.w3.org/1999/xlink" width="220.58785" height="51.5986" viewBox="0,0,220.58785,51.5986"><g transform="translate(-119.25685,-110.71415)"><g data-paper-data="{&quot;isPaintingLayer&quot;:true}" fill="#8db27e" fill-rule="nonzero" stroke="none" stroke-width="1" stroke-linecap="square" stroke-linejoin="miter" stroke-miterlimit="10" stroke-dasharray="" stroke-dashoffset="0" font-family="none" font-weight="none" font-size="none" text-anchor="none" style="mix-blend-mode: normal"><path d="M121.08897,129.23283c0,-0.67856 0.59939,-1.00653 1.79819,-0.98392c-0.70118,0 -1.05177,-0.02262 -1.05177,-0.06786c0,-0.56547 0.32797,-1.23273 0.98392,-2.00176c0.67856,-0.76903 1.09701,-1.28927 1.25534,-1.56069c1.0857,-0.65595 1.92259,-1.0857 2.51068,-1.28927c0.45238,0.13571 0.67856,0.20357 0.67856,0.20357v0.33928c1.1988,-0.52023 2.64639,-0.57678 4.3428,-0.16964c1.69641,0.40714 2.91782,1.1988 3.66424,2.37497c0.3619,0.65595 0.71249,1.50415 1.05177,2.54461c0.49761,1.47022 0.74642,2.5333 0.74642,3.18924c0.24881,1.0857 0.27142,2.12616 0.06786,3.12139l-0.06786,0.44107c0,0.49761 -0.2375,0.93867 -0.71249,1.3232c-0.45238,0.3619 -0.79166,0.53154 -1.01784,0.50892c-0.20357,-0.02262 -0.39582,0.06786 -0.57678,0.27142c-0.15833,0.20357 -0.80296,0.30535 -1.9339,0.30535c-1.13094,0 -1.43629,-0.50892 -0.91606,-1.52677c-0.3619,0.56547 -0.76903,0.63332 -1.22141,0.20357c-0.45238,-0.42975 -0.45238,-0.81427 0,-1.15356l-0.98392,-0.16964c0.63332,-0.27142 0.62202,-0.28274 -0.03393,-0.03393c-0.52023,-1.0857 -0.70118,-1.94522 -0.54285,-2.57854c0.67856,-0.76903 0.7238,-1.09701 0.13571,-0.98392c0,-0.61071 -0.05654,-1.11963 -0.16964,-1.52677c0.38452,-0.27142 0.49761,-0.26011 0.33928,0.03393c-0.13571,0.27142 -0.49761,0.31667 -1.0857,0.13571c0.47499,-0.81427 0.74642,-0.99523 0.81427,-0.54285c0.09047,0.22618 0.1131,0.37321 0.06786,0.44107c-0.47499,1.31188 -0.75773,2.1714 -0.8482,2.57854l-0.33928,3.42674v2.54461c0.04524,1.10832 0.20357,1.83212 0.47499,2.1714c0,0.29404 0.05654,0.61071 0.16964,0.94999c0.04524,0.42975 0.39582,1.17617 1.05177,2.23926l0.37321,0.47499c0.04524,0.13571 0.05654,0.20357 0.03393,0.20357c0,0 0.50892,-0.15833 1.52677,-0.47499c-0.70118,-0.18095 -0.66725,-0.85952 0.10178,-2.03569c0.83689,-1.15356 2.08093,-1.61724 3.73209,-1.39105c1.15356,0.22618 1.73033,0.89344 1.73033,2.00176c0.04524,0.40714 -0.10178,1.49284 -0.44107,3.2571c-0.31667,0.31667 -0.47499,0.58809 -0.47499,0.81427c-0.58809,0.61071 -0.7238,1.31188 -0.40714,2.10354c-0.79166,-0.52023 -0.98392,-0.62202 -0.57678,-0.30535l-0.54285,1.05177c-0.47499,-0.61071 -0.42975,-0.75773 0.13571,-0.44107c-0.81427,0.94999 -1.40237,1.22141 -1.76426,0.81427c0.04524,0.52023 -0.26011,0.78035 -0.91606,0.78035c-0.74642,0.31667 -1.35712,0.47499 -1.83212,0.47499l-1.18748,0.06786l-0.74642,-0.27142l-0.54285,-0.06786c-0.40714,-0.15833 -0.74642,-0.22618 -1.01784,-0.20357c-0.24881,0.02262 -0.49761,-0.03393 -0.74642,-0.16964c-0.24881,-0.1131 -0.50892,-0.28274 -0.78035,-0.50892c-0.22618,-0.24881 -0.40714,-0.3619 -0.54285,-0.33928c-0.1131,0.02262 -0.37321,-0.10178 -0.78035,-0.37321c-0.3619,-0.09047 -0.78035,-0.37321 -1.25534,-0.8482l-0.47499,-1.22141c0.72379,-0.18095 1.05177,0.04524 0.98392,0.67856c-0.88213,0 -1.45891,-0.28274 -1.73033,-0.8482l-0.50892,-0.71249c0,-0.33928 -0.1244,-0.70118 -0.37321,-1.0857l-0.50892,-2.10354c-0.3619,-0.27142 -0.45238,-0.63332 -0.27142,-1.0857v-0.74642l-0.67856,-4.51244v-1.0857c0.79166,-1.1988 0.9613,-1.78688 0.50892,-1.76426c-0.06786,-1.0857 0.1244,-1.95652 0.57678,-2.61247c0,-0.74642 0.24881,-1.50415 0.74642,-2.27318zM151.05287,132.11672c-0.15833,-0.88213 -0.50892,-1.28927 -1.05177,-1.22141c-0.24881,0 -0.50892,0.26011 -0.78035,0.78035c-0.61071,1.13094 -0.87082,2.70294 -0.78035,4.71601c0.09047,1.99045 0.22618,3.40413 0.40714,4.24102c0.18095,0.81427 0.50892,1.51545 0.98392,2.10354c0.09047,0.15833 0.21488,0.2375 0.37321,0.2375c0.49761,0 0.92737,-0.62202 1.28927,-1.86605l0.54285,-1.66248c0.54285,0.18095 0.48631,0.2375 -0.16964,0.16964c0.47499,-1.22141 0.7238,-2.20533 0.74642,-2.95175c-0.22618,-0.15833 -0.42975,-0.47499 -0.61071,-0.94999c-0.27142,-0.79166 -0.2375,-1.25534 0.10178,-1.39105c-0.58809,-0.02262 -0.90475,-0.3619 -0.94999,-1.01784c-0.04524,-0.67856 -0.07917,-1.07439 -0.10178,-1.18748zM140.43336,137.23986l0.2375,-3.0196c0.29404,-2.8952 1.17617,-5.37196 2.64639,-7.43026c1.56069,-1.89997 3.73209,-2.87258 6.5142,-2.91782h0.33928c2.55592,0 4.44458,0.58809 5.666,1.76426c1.17617,0.90475 2.047,1.91129 2.61247,3.0196c0.56547,1.10832 0.93867,1.9339 1.11963,2.47675c0.20357,0.54285 0.32797,1.31188 0.37321,2.30711c0.09047,2.2845 -0.19226,3.52852 -0.8482,3.73209c0.47499,3.27972 0.05654,6.08445 -1.25534,8.41417c-0.38452,0.94999 -0.98392,1.99045 -1.79819,3.12139c-0.76903,0.9726 -2.03569,1.51545 -3.79995,1.62855c-1.47022,0 -2.78211,-0.09047 -3.93566,-0.27142c-1.13094,-0.18095 -2.4089,-0.74642 -3.83388,-1.69641c-1.42498,-0.94999 -2.43151,-2.52199 -3.0196,-4.71601c-0.56547,-1.87736 -0.90475,-4.01483 -1.01784,-6.41242zM163.21255,143.34693c0,-0.31667 0.03393,-0.8482 0.10178,-1.59462c-0.29404,-0.42975 -0.44107,-1.57201 -0.44107,-3.42674c-0.04524,-4.25233 0.03393,-6.37849 0.2375,-6.37849c0.22618,0 0.18095,-0.05654 -0.13571,-0.16964c-0.29404,-0.13571 -0.44107,-0.42975 -0.44107,-0.88213v-0.54285c-0.18095,-1.47022 -0.09047,-2.58985 0.27142,-3.35888c0.1131,-0.65595 0.42975,-1.11963 0.94999,-1.39105c0.40714,-0.56547 0.99523,-0.8482 1.76426,-0.8482c0.79166,0 1.27796,0.03393 1.45891,0.10178c0.63332,-0.27142 1.17617,-0.01131 1.62855,0.78035c-0.06786,0.70118 0.03393,0.71249 0.30535,0.03393l0.27142,0.33928c0.38452,-0.06786 0.7238,0.05654 1.01784,0.37321c0.31667,0.29404 0.52023,0.76903 0.61071,1.42498l0.50892,5.12315v0.94999c0.09047,0.45238 0.13571,0.8482 0.13571,1.18748l-0.8482,2.47675l-0.2375,0.03393c-0.40714,-1.01784 -0.46368,-1.83212 -0.16964,-2.44282c0.29404,-0.63332 0.46368,-1.05177 0.50892,-1.25534c0.06786,-0.49761 0.24881,-0.92737 0.54285,-1.28927c0.1131,-0.22618 0.16964,-0.46368 0.16964,-0.71249c0,-0.27142 0.21488,-0.63332 0.64463,-1.0857c0.33928,-0.79166 0.65595,-1.37974 0.94999,-1.76426l0.16964,-0.40714c0.15833,-0.24881 0.29404,-0.50892 0.40714,-0.78035c0.52023,-0.40714 0.88213,-0.74642 1.0857,-1.01784l0.88213,-0.67856c0.27142,0.65595 0.32797,0.7238 0.16964,0.20357c-0.15833,-0.54285 0.46368,-0.8482 1.86605,-0.91606c0.83689,-0.13571 1.53808,-0.13571 2.10354,0c0.52023,0 0.93867,0.1131 1.25534,0.33928l0.20357,0.20357l0.30535,0.06786c1.0857,0.56547 1.75295,1.74165 2.00176,3.52852c0,2.57854 0.09047,4.26363 0.27142,5.05529c0.27142,2.1714 0.70118,4.06006 1.28927,5.666c0.58809,1.58331 1.14224,2.62378 1.66248,3.12139c1.13094,1.47022 1.34581,3.0196 0.64463,4.64815c-0.56547,0.99523 -1.26665,1.51545 -2.10354,1.56069c-0.81427,0.04524 -1.34581,0.03393 -1.59462,-0.03393c-0.42975,0 -0.65595,-0.20357 -0.67856,-0.61071c-0.61071,0.49761 -1.10832,0.54285 -1.49284,0.13571c-0.47499,0 -0.91606,-0.33928 -1.3232,-1.01784c-1.35712,-1.8095 -2.14878,-2.92913 -2.37497,-3.35888c-0.20357,-0.45238 -0.37321,-0.76903 -0.50892,-0.94999c-0.1131,-0.18095 -0.19226,-0.33928 -0.2375,-0.47499c-0.04524,-0.15833 -0.1244,-0.37321 -0.2375,-0.64463c-0.04524,-0.24881 -0.19226,-0.53154 -0.44107,-0.8482c-0.22618,-0.31667 -0.24881,-0.61071 -0.06786,-0.88213c-0.27142,-0.1131 -0.30535,-0.35059 -0.10178,-0.71249c-0.49761,0 -0.53154,-0.24881 -0.10178,-0.74642c-0.54285,0.15833 -0.89344,-0.22618 -1.05177,-1.15356l0.81427,-1.56069h0.06786c-1.17617,2.62378 -1.88866,5.37196 -2.13747,8.24453c-0.1131,0.83689 -0.22618,1.45891 -0.33928,1.86605c-0.18095,0 -0.06786,0.21488 0.33928,0.64463v0.64463c0,0.49761 -0.44107,1.16487 -1.3232,2.00176c-0.74642,0.06786 -1.18748,0.10178 -1.3232,0.10178h-0.64463c0,-0.49761 -0.05654,-0.44107 -0.16964,0.16964c-0.22618,0 -0.45238,0.05654 -0.67856,0.16964c-0.22618,0.13571 -0.58809,0.10178 -1.0857,-0.10178c-0.7238,-0.06786 -1.16487,-0.13571 -1.3232,-0.20357c-0.13571,-0.06786 -0.37321,-0.13571 -0.71249,-0.20357c-0.33928,-0.09047 -0.44107,-0.39582 -0.30535,-0.91606c-0.58809,0.40714 -0.9726,0.31667 -1.15356,-0.27142c-1.10832,-1.0857 -1.66248,-2.14878 -1.66248,-3.18924v-0.37321l-0.03393,-0.50892c0.04524,-0.52023 0,-1.01784 -0.13571,-1.49284zM195.78923,141.75231c-0.40714,-0.88213 -0.41845,-1.85473 -0.03393,-2.91782l1.3232,-3.32496l1.59462,-0.47499c-7.82609,9.25107 -8.08621,8.93441 -0.78035,-0.94999l1.56069,-3.22317c0.31667,0.1131 0.3619,-0.03393 0.13571,-0.44107l1.69641,-2.61247l1.42498,-1.25534c0.20357,-0.1131 0.7238,-0.57678 1.56069,-1.39105c0.02262,1.10832 0.20357,1.24403 0.54285,0.40714c0.54285,0 1.40237,0.06786 2.57854,0.20357l1.42498,0.47499l2.81603,1.69641c0.88213,0.88213 1.26665,1.82081 1.15356,2.81603c-0.04524,0.47499 -0.27142,1.77558 -0.67856,3.90173c-0.31667,1.69641 -0.75773,3.619 -1.3232,5.76778c-0.29404,1.58331 -0.38452,2.73687 -0.27142,3.46067c0.1131,0.7238 0.1244,1.11963 0.03393,1.18748c0.13571,0.09047 0.32797,0.52023 0.57678,1.28927c0.24881,0.74642 -0.1131,0.92737 -1.0857,0.54285c0.9726,-0.61071 1.45891,-0.48631 1.45891,0.37321c0.3619,0.9726 0.45238,1.71902 0.27142,2.23926c-0.18095,0.49761 -0.56547,1.00653 -1.15356,1.52677c-0.58809,0.52023 -1.58331,0.78035 -2.98567,0.78035c-0.61071,-0.06786 -1.13094,-0.10178 -1.56069,-0.10178c-0.42975,0 -1.02916,-0.19226 -1.79819,-0.57678c-1.4476,-1.04046 -2.26187,-2.11486 -2.44282,-3.22317c-0.20357,-0.52023 -0.32797,-0.94999 -0.37321,-1.28927c-0.04524,-0.3619 -0.06786,-0.58809 -0.06786,-0.67856c-0.22618,-1.24403 -0.21488,-2.5333 0.03393,-3.86781c0.04524,-0.47499 0.2375,-1.4476 0.57678,-2.91782c0.29404,-1.53808 0.58809,-2.68032 0.88213,-3.42674c0.7238,-0.67856 1.10832,-1.01784 1.15356,-1.01784l-1.18748,4.74994c-0.27142,0.67856 -0.53154,1.23273 -0.78035,1.66248c-0.18095,-0.02262 -0.20357,0.1244 -0.06786,0.44107c-0.38452,0.38452 -0.66725,0.89344 -0.8482,1.52677c0,0.31667 -0.04524,0.57678 -0.13571,0.78035c-0.06786,0.20357 -0.22618,0.52023 -0.47499,0.94999c-0.22618,0.42975 -0.39582,0.85952 -0.50892,1.28927c-0.09047,0.40714 -0.47499,0.73511 -1.15356,0.98392c0.3619,0.13571 0.27142,0.94999 -0.27142,2.44282c-0.09047,0.65595 -0.85952,1.0857 -2.30711,1.28927l-1.39105,-0.13571c-0.3619,-0.1131 -1.00653,-0.31667 -1.9339,-0.61071c-0.92737,-0.27142 -1.49285,-0.40714 -1.69642,-0.40714c-0.20357,0 -0.26011,-0.28274 -0.16964,-0.8482c-1.1988,0.20357 -1.92259,-0.45238 -2.1714,-1.96783v-1.39105c0.20357,-0.15833 0.21488,-0.47499 0.03393,-0.94999c0.09047,-0.52023 0.44107,-0.91606 1.05177,-1.18748c-0.83689,0.18095 -1.14224,-0.09047 -0.91606,-0.81427c0.06786,-1.0857 0.10178,-1.87736 0.10178,-2.37497v-1.42498c0.09047,-1.31188 0.19226,-2.69163 0.30535,-4.13923c0.1131,-1.4476 0.16964,-2.36366 0.16964,-2.74818v-0.94999c-0.06786,-0.22618 -0.09047,-0.73511 -0.06786,-1.52677c-0.04524,-0.47499 -0.13571,-0.80296 -0.27142,-0.98392c-0.13571,-0.20357 -0.18095,-0.68988 -0.13571,-1.45891l0.61071,-1.45891c1.0857,-0.85952 2.53331,-1.0857 4.34281,-0.67856c0.76903,0.13571 1.88866,0.61071 3.35888,1.42498c0.15833,0.24881 0.18095,0.55416 0.06786,0.91606c0.74642,-0.31667 1.16487,0.26011 1.25534,1.73033c-0.04524,0.3619 -0.06786,0.89344 -0.06786,1.59462c-0.74642,-0.40714 -0.9726,0.29404 -0.67856,2.10354c-0.81427,5.29279 -1.22141,8.12013 -1.22141,8.48203c0,0.3619 -0.3619,0.59939 -1.0857,0.71249zM226.05288,128.21498c0.45238,-0.29404 0.62202,-0.29404 0.50892,0c-0.1131,0.27142 -0.19226,0.45238 -0.2375,0.54285c-1.47022,2.32973 -2.25057,4.48983 -2.34104,6.48027c0.13571,0.02262 0.48631,-0.40714 1.05177,-1.28927c1.04046,-3.30234 1.37974,-5.21362 1.01784,-5.73385zM222.49043,151.82896l-1.05177,-0.16964l-0.57678,-1.11963c-0.47499,0.24881 -0.85952,0.10178 -1.15356,-0.44107c-0.38452,-0.45238 -1.1988,-1.49284 -2.44282,-3.12139l-0.94999,-3.56245c0,-0.54285 -0.09047,-1.00653 -0.27142,-1.39105c-0.42975,-1.8095 -0.68988,-2.86128 -0.78035,-3.15532c-0.06786,-0.29404 -0.1131,-1.06308 -0.13571,-2.30711c-0.02262,-1.24403 0.03393,-2.1714 0.16964,-2.78211c0.1131,-0.83689 0.88213,-2.82735 2.30711,-5.97135c0.27142,-0.24881 0.42975,-0.61071 0.47499,-1.0857l1.11963,-1.62855c0.99523,-1.15356 2.16009,-1.68509 3.4946,-1.59462c-0.67856,-0.63332 -0.03393,-1.18748 1.9339,-1.66248c0.47499,-0.02262 1.25534,0.09047 2.34104,0.33928c2.60115,0.61071 4.28626,1.4476 5.05529,2.51068l0.16964,0.30535c0.85952,1.1988 1.35712,3.03092 1.49284,5.49636c-0.1131,1.01784 -0.21488,1.88866 -0.30535,2.61247c-0.09047,0.70118 -0.55416,1.99045 -1.39105,3.86781c-0.63332,1.1988 -1.27796,2.19402 -1.9339,2.98567c-1.13094,0.81427 -1.88866,1.16487 -2.27318,1.05177c-0.13571,0.20357 -0.55416,0.30535 -1.25534,0.30535h-1.56069c-0.06786,-0.24881 -0.30535,-0.31667 -0.71249,-0.20357c-0.38452,0.09047 -0.59939,0.01131 -0.64463,-0.2375c0.22618,0 0.55416,0.71249 0.98392,2.13747c0.45238,1.42498 0.74642,2.22794 0.88213,2.4089c0.65595,0.47499 1.14224,0.78035 1.45891,0.91606c0.31667,0.13571 0.73511,0.15833 1.25534,0.06786c0.52023,-0.09047 0.87082,-0.22618 1.05177,-0.40714l1.42498,-1.79819c1.53808,-2.08093 3.1327,-2.22794 4.78387,-0.44107c0.74642,0.79166 1.04046,1.56069 0.88213,2.30711c-0.15833,0.7238 -0.61071,1.86605 -1.35712,3.42674c-0.65595,1.04046 -1.39105,1.94522 -2.20533,2.71425c-1.4476,0.76903 -2.37497,1.15356 -2.78211,1.15356c-0.45238,0.02262 -0.94999,-0.02262 -1.49284,-0.13571c-0.38452,0.20357 -1.49284,0.07917 -3.32496,-0.37321c0.70118,-0.61071 0.91606,-0.74642 0.64463,-0.40714c-0.24881,0.33928 -1.60593,0.01131 -4.07137,-0.98392l3.56245,0.06786c-0.06786,0.79166 -0.39582,1.18748 -0.98392,1.18748l-1.62855,-0.88213zM238.58776,129.23283c0,-0.67856 0.59939,-1.00653 1.79819,-0.98392c-0.70118,0 -1.05177,-0.02262 -1.05177,-0.06786c0,-0.56547 0.32797,-1.23273 0.98392,-2.00176c0.67856,-0.76903 1.09701,-1.28927 1.25534,-1.56069c1.0857,-0.65595 1.92259,-1.0857 2.51068,-1.28927c0.45238,0.13571 0.67856,0.20357 0.67856,0.20357v0.33928c1.1988,-0.52023 2.64639,-0.57678 4.3428,-0.16964c1.69641,0.40714 2.91782,1.1988 3.66424,2.37497c0.3619,0.65595 0.71249,1.50415 1.05177,2.54461c0.49761,1.47022 0.74642,2.5333 0.74642,3.18924c0.24881,1.0857 0.27142,2.12616 0.06786,3.12139l-0.06786,0.44107c0,0.49761 -0.2375,0.93867 -0.71249,1.3232c-0.45238,0.3619 -0.79166,0.53154 -1.01784,0.50892c-0.20357,-0.02262 -0.39582,0.06786 -0.57678,0.27142c-0.15833,0.20357 -0.80296,0.30535 -1.9339,0.30535c-1.13094,0 -1.43629,-0.50892 -0.91606,-1.52677c-0.3619,0.56547 -0.76903,0.63332 -1.22141,0.20357c-0.45238,-0.42975 -0.45238,-0.81427 0,-1.15356l-0.98392,-0.16964c0.63332,-0.27142 0.62202,-0.28274 -0.03393,-0.03393c-0.52023,-1.0857 -0.70118,-1.94522 -0.54285,-2.57854c0.67856,-0.76903 0.7238,-1.09701 0.13571,-0.98392c0,-0.61071 -0.05654,-1.11963 -0.16964,-1.52677c0.38452,-0.27142 0.49761,-0.26011 0.33928,0.03393c-0.13571,0.27142 -0.49761,0.31667 -1.0857,0.13571c0.47499,-0.81427 0.74642,-0.99523 0.81427,-0.54285c0.09047,0.22618 0.1131,0.37321 0.06786,0.44107c-0.47499,1.31188 -0.75773,2.1714 -0.8482,2.57854l-0.33928,3.42674v2.54461c0.04524,1.10832 0.20357,1.83212 0.47499,2.1714c0,0.29404 0.05654,0.61071 0.16964,0.94999c0.04524,0.42975 0.39582,1.17617 1.05177,2.23926l0.37321,0.47499c0.04524,0.13571 0.05654,0.20357 0.03393,0.20357c0,0 0.50892,-0.15833 1.52677,-0.47499c-0.70118,-0.18095 -0.66725,-0.85952 0.10178,-2.03569c0.83689,-1.15356 2.08093,-1.61724 3.73209,-1.39105c1.15356,0.22618 1.73033,0.89344 1.73033,2.00176c0.04524,0.40714 -0.10178,1.49284 -0.44107,3.2571c-0.31667,0.31667 -0.47499,0.58809 -0.47499,0.81427c-0.58809,0.61071 -0.7238,1.31188 -0.40714,2.10354c-0.79166,-0.52023 -0.98392,-0.62202 -0.57678,-0.30535l-0.54285,1.05177c-0.47499,-0.61071 -0.42975,-0.75773 0.13571,-0.44107c-0.81427,0.94999 -1.40237,1.22141 -1.76426,0.81427c0.04524,0.52023 -0.26011,0.78035 -0.91606,0.78035c-0.74642,0.31667 -1.35712,0.47499 -1.83212,0.47499l-1.18748,0.06786l-0.74642,-0.27142l-0.54285,-0.06786c-0.40714,-0.15833 -0.74642,-0.22618 -1.01784,-0.20357c-0.24881,0.02262 -0.49761,-0.03393 -0.74642,-0.16964c-0.24881,-0.1131 -0.50892,-0.28274 -0.78035,-0.50892c-0.22618,-0.24881 -0.40714,-0.3619 -0.54285,-0.33928c-0.1131,0.02262 -0.37321,-0.10178 -0.78035,-0.37321c-0.3619,-0.09047 -0.78035,-0.37321 -1.25534,-0.8482l-0.47499,-1.22141c0.7238,-0.18095 1.05177,0.04524 0.98392,0.67856c-0.88213,0 -1.45891,-0.28274 -1.73033,-0.8482l-0.50892,-0.71249c0,-0.33928 -0.1244,-0.70118 -0.37321,-1.0857l-0.50892,-2.10354c-0.3619,-0.27142 -0.45238,-0.63332 -0.27142,-1.0857v-0.74642l-0.67856,-4.51244v-1.0857c0.79166,-1.1988 0.9613,-1.78688 0.50892,-1.76426c-0.06786,-1.0857 0.1244,-1.95652 0.57678,-2.61247c0,-0.74642 0.24881,-1.50415 0.74642,-2.27318zM270.92664,113.25268c-0.13571,1.58331 -0.20357,2.60115 -0.20357,3.05353c0,0.45238 -0.02262,0.8482 -0.06786,1.18748v1.52677l-0.06786,0.40714v1.11963c0,0.3619 -0.26011,0.54285 -0.78035,0.54285l1.42498,-1.0857c0.18095,0 0.75773,-0.09047 1.73033,-0.27142c0.9726,-0.20357 1.95652,-0.29404 2.95175,-0.27142c1.01784,0 1.77558,0.28274 2.27318,0.8482c0.49761,0.56547 0.74642,1.24403 0.74642,2.03569c0.13571,0.76903 -0.07917,1.49284 -0.64463,2.1714l-0.20357,0.27142c-0.42975,0.74642 -1.11963,1.24403 -2.06962,1.49284l-2.03569,0.27142l-2.47675,0.61071l-0.67856,0.27142c0,0.38452 0.04524,1.15356 0.13571,2.30711c0.1131,1.15356 0.16964,1.97914 0.16964,2.47675l0.16964,2.03569c0.47499,3.34757 1.10832,6.70646 1.89997,10.07665c0.22618,0.33928 0.48631,1.17617 0.78035,2.51068l0.47499,1.25534c0.27142,2.30711 -0.92737,3.46067 -3.59638,3.46067c-0.3619,0 -1.17617,-0.07917 -2.44282,-0.2375c-0.63332,-0.09047 -1.49284,-0.67856 -2.57854,-1.76426c0.61071,-0.31667 0.46368,-0.50892 -0.44107,-0.57678l-1.15356,-2.78211c-0.1131,-0.18095 -0.21488,-0.53154 -0.30535,-1.05177c-0.42975,-0.42975 -0.81427,-1.54938 -1.15356,-3.35888c0,-0.06786 -0.03393,-0.24881 -0.10178,-0.54285v-0.47499c-0.24881,-0.22618 -0.44107,-1.01784 -0.57678,-2.37497c-0.13571,-1.37974 -0.27142,-2.63508 -0.40714,-3.76602c0,-1.49284 -0.1244,-2.91782 -0.37321,-4.27494l-0.10178,-1.39105v-0.61071c0.79166,-0.29404 1.18748,-0.06786 1.18748,0.67856h-0.61071c-0.65595,0.06786 -1.1988,0.06786 -1.62855,0c-2.0583,0 -3.55114,-0.68988 -4.47851,-2.06962c-0.76903,-1.69641 -0.76903,-2.81603 0,-3.35888c0.76903,-0.54285 2.10354,-0.99523 4.00352,-1.35712c0.65595,0 1.24403,-0.1131 1.76426,-0.33928c0,-0.7238 0.15833,-1.13094 0.47499,-1.22141c-0.06786,-0.88213 -0.03393,-1.4476 0.10178,-1.69641c0.13571,-0.27142 0.21488,-0.44107 0.2375,-0.50892c0.02262,-0.99523 0.3619,-2.44282 1.01784,-4.3428c0.24881,-0.94999 0.50892,-1.65117 0.78035,-2.10354c0.81427,-1.15356 2.26187,-1.54938 4.3428,-1.18748c0.94999,0.15833 1.37974,0.70118 1.28927,1.62855c0.9726,-1.0857 1.37974,-0.82559 1.22141,0.78035zM288.11163,114.94909h0.20357c1.8095,0.1131 2.99699,0.67856 3.56245,1.69641c0.58809,1.01784 0.81427,1.99045 0.67856,2.91782c-0.13571,0.92737 -0.79166,1.97914 -1.96783,3.15532c-1.15356,1.15356 -2.2845,1.71902 -3.39281,1.69641c-0.33928,0 -0.9613,-0.15833 -1.86605,-0.47499c-0.88213,-0.31667 -1.41367,-0.66725 -1.59462,-1.05177c0.42975,-0.20357 0.52023,-0.10178 0.27142,0.30535c-1.4476,-0.54285 -2.25057,-1.87736 -2.4089,-4.00352c0,-0.76903 0.50892,-0.89344 1.52677,-0.37321c-1.1988,0.79166 -1.59462,0.44107 -1.18748,-1.05177c0.38452,-1.24403 1.26665,-2.06962 2.64639,-2.47675c1.31188,-0.24881 2.48807,-0.3619 3.52852,-0.33928zM289.19733,130.96316l-0.98392,9.56773c0,0.18095 0,0.37321 0,0.57678c0,0.18095 0.01131,0.37321 0.03393,0.57678c-0.02262,0.20357 -0.03393,0.39582 -0.03393,0.57678v4.1053c0.15833,1.53808 0.02262,2.66901 -0.40714,3.39281c-0.45238,0.13571 -0.87082,0.30535 -1.25534,0.50892c-0.3619,0.22618 -1.0857,0.27142 -2.1714,0.13571c-1.06308,-0.1131 -1.82081,-0.27142 -2.27318,-0.47499l-0.40714,-0.13571c-0.83689,0 -1.35712,-0.30535 -1.56069,-0.91606c-0.63332,-0.38452 -0.9726,-0.92737 -1.01784,-1.62855c-0.33928,-0.56547 0.02262,-1.00653 1.0857,-1.3232c-0.47499,0.1131 -0.78035,-0.04524 -0.91606,-0.47499c-0.1131,-0.42975 -0.14703,-0.94999 -0.10178,-1.56069c0.42975,0.02262 0.3619,-0.04524 -0.20357,-0.20357c0,-0.74642 0.09047,-1.52677 0.27142,-2.34104c0.3619,0.04524 0.3619,-0.44107 0,-1.45891c0.29404,-0.40714 0.44107,-0.79166 0.44107,-1.15356c-0.20357,-0.76903 -0.15833,-1.49284 0.13571,-2.1714c0.29404,-0.67856 0.45238,-1.25534 0.47499,-1.73033c0.09047,-1.0857 0.27142,-2.0583 0.54285,-2.91782c0,-0.45238 0.20357,-1.16487 0.61071,-2.13747c0.42975,-0.9726 0.74642,-1.59462 0.94999,-1.86605l1.15356,-1.15356l1.45891,-0.57678l0.2375,0.71249c0.56547,-0.65595 1.1988,-0.8482 1.89997,-0.57678c1.24403,0.49761 2.35235,1.18748 3.32496,2.06962c-0.67856,0.49761 -1.00653,0.8482 -0.98392,1.05177c0.04524,0.18095 0.04524,0.49761 0,0.94999c-0.18095,0.22618 -0.28274,0.41845 -0.30535,0.57678zM300.14903,141.75231c-0.40714,-0.88213 -0.41845,-1.85473 -0.03393,-2.91782l1.3232,-3.32496l1.59462,-0.47499c-7.82608,9.25107 -8.08621,8.93441 -0.78035,-0.94999l1.56069,-3.22317c0.31667,0.1131 0.3619,-0.03393 0.13571,-0.44107l1.69641,-2.61247l1.42498,-1.25534c0.20357,-0.1131 0.7238,-0.57678 1.56069,-1.39105c0.02262,1.10832 0.20357,1.24403 0.54285,0.40714c0.54285,0 1.40237,0.06786 2.57854,0.20357l1.42498,0.47499l2.81603,1.69641c0.88213,0.88213 1.26665,1.82081 1.15356,2.81603c-0.04524,0.47499 -0.27142,1.77558 -0.67856,3.90173c-0.31667,1.69641 -0.75773,3.619 -1.3232,5.76778c-0.29404,1.58331 -0.38452,2.73687 -0.27142,3.46067c0.1131,0.7238 0.1244,1.11963 0.03393,1.18748c0.13571,0.09047 0.32797,0.52023 0.57678,1.28927c0.24881,0.74642 -0.1131,0.92737 -1.0857,0.54285c0.9726,-0.61071 1.45891,-0.48631 1.45891,0.37321c0.3619,0.9726 0.45238,1.71902 0.27142,2.23926c-0.18095,0.49761 -0.56547,1.00653 -1.15356,1.52677c-0.58809,0.52023 -1.58331,0.78035 -2.98567,0.78035c-0.61071,-0.06786 -1.13094,-0.10178 -1.56069,-0.10178c-0.42975,0 -1.02916,-0.19226 -1.79819,-0.57678c-1.4476,-1.04046 -2.26187,-2.11486 -2.44282,-3.22317c-0.20357,-0.52023 -0.32797,-0.94999 -0.37321,-1.28927c-0.04524,-0.3619 -0.06786,-0.58809 -0.06786,-0.67856c-0.22618,-1.24403 -0.21488,-2.5333 0.03393,-3.86781c0.04524,-0.47499 0.2375,-1.4476 0.57678,-2.91782c0.29404,-1.53808 0.58809,-2.68032 0.88213,-3.42674c0.7238,-0.67856 1.10832,-1.01784 1.15356,-1.01784l-1.18748,4.74994c-0.27142,0.67856 -0.53154,1.23273 -0.78035,1.66248c-0.18095,-0.02262 -0.20357,0.1244 -0.06786,0.44107c-0.38452,0.38452 -0.66725,0.89344 -0.8482,1.52677c0,0.31667 -0.04524,0.57678 -0.13571,0.78035c-0.06786,0.20357 -0.22618,0.52023 -0.47499,0.94999c-0.22618,0.42975 -0.39582,0.85952 -0.50892,1.28927c-0.09047,0.40714 -0.47499,0.73511 -1.15356,0.98392c0.3619,0.13571 0.27142,0.94999 -0.27142,2.44282c-0.09047,0.65595 -0.85952,1.0857 -2.30711,1.28927l-1.39105,-0.13571c-0.3619,-0.1131 -1.00653,-0.31667 -1.9339,-0.61071c-0.92737,-0.27142 -1.49284,-0.40714 -1.69641,-0.40714c-0.20357,0 -0.26011,-0.28274 -0.16964,-0.8482c-1.1988,0.20357 -1.92259,-0.45238 -2.1714,-1.96783v-1.39105c0.20357,-0.15833 0.21488,-0.47499 0.03393,-0.94999c0.09047,-0.52023 0.44107,-0.91606 1.05177,-1.18748c-0.83689,0.18095 -1.14224,-0.09047 -0.91606,-0.81427c0.06786,-1.0857 0.10178,-1.87736 0.10178,-2.37497v-1.42498c0.09047,-1.31188 0.19226,-2.69163 0.30535,-4.13923c0.1131,-1.4476 0.16964,-2.36366 0.16964,-2.74818v-0.94999c-0.06786,-0.22618 -0.09047,-0.73511 -0.06786,-1.52677c-0.04524,-0.47499 -0.13571,-0.80296 -0.27142,-0.98392c-0.13571,-0.20357 -0.18095,-0.68988 -0.13571,-1.45891l0.61071,-1.45891c1.0857,-0.85952 2.5333,-1.0857 4.3428,-0.67856c0.76903,0.13571 1.88866,0.61071 3.35888,1.42498c0.15833,0.24881 0.18095,0.55416 0.06786,0.91606c0.74642,-0.31667 1.16487,0.26011 1.25534,1.73033c-0.04524,0.3619 -0.06786,0.89344 -0.06786,1.59462c-0.74642,-0.40714 -0.9726,0.29404 -0.67856,2.10354c-0.81427,5.29279 -1.22141,8.12013 -1.22141,8.48203c0,0.3619 -0.3619,0.59939 -1.0857,0.71249zM328.78413,137.57915l0.10178,2.06962l0.30535,0.8482l0.64463,1.25534c0.04524,0.42975 0.1244,0.65595 0.2375,0.67856c-0.04524,-0.02262 0.02262,-0.15833 0.20357,-0.40714c0.38452,-0.31667 0.62202,-0.49761 0.71249,-0.54285c0.04524,0.13571 0.03393,-0.07917 -0.03393,-0.64463c-0.06786,-0.58809 -0.05654,-1.05177 0.03393,-1.39105c-0.02262,-0.13571 0.01131,-0.82559 0.10178,-2.06962c0.1131,-1.24403 0.21488,-2.16009 0.30535,-2.74818c0.09047,-0.61071 0.13571,-0.87082 0.13571,-0.78035c-0.24881,-0.31667 -0.47499,-0.9726 -0.67856,-1.96783c-0.49761,-0.49761 -0.79166,-0.75773 -0.88213,-0.78035c-0.45238,-0.54285 -0.55416,-0.68988 -0.30535,-0.44107c-0.09047,0.1131 -0.28274,1.25534 -0.57678,3.42674c-0.20357,0.31667 -0.30535,0.73511 -0.30535,1.25534c0.02262,0.49761 0.02262,0.90475 0,1.22141zM339.53934,136.01845c0.15833,1.94522 0.2375,3.43805 0.2375,4.47851l0.06786,0.81427l-0.13571,3.59638c0,0.54285 -0.02262,1.05177 -0.06786,1.52677v0.91606l-0.20357,1.52677v0.50892c0,1.60593 -0.70118,3.81126 -2.10354,6.61598c-0.52023,1.04046 -1.30058,2.11486 -2.34104,3.22317c-1.83212,1.99045 -4.09399,3.0196 -6.78562,3.08746c-2.2845,0 -3.95828,-0.46368 -5.02136,-1.39105l-0.47499,-0.2375c-0.7238,-0.38452 -1.45891,-1.37974 -2.20533,-2.98567c0.33928,-0.18095 0.2375,-0.41845 -0.30535,-0.71249c0,-0.99523 0.16964,-1.73033 0.50892,-2.20533c0.29404,-0.58809 1.07439,-1.04046 2.34104,-1.35712c0.74642,-0.13571 1.82081,0.33928 3.22317,1.42498c0.58809,0.67856 1.25534,1.02916 2.00176,1.05177c0.54285,0.06786 1.02916,-0.32797 1.45891,-1.18748c0.42975,-0.83689 0.79166,-2.16009 1.0857,-3.96959c0.13571,-0.70118 0.20357,-1.47022 0.20357,-2.30711c0,-0.83689 0.28274,-1.27796 0.8482,-1.3232c-0.7238,1.01784 -1.59462,1.47022 -2.61247,1.35712h-0.30535c-0.3619,0.1131 -0.94999,0.10178 -1.76426,-0.03393c-0.79166,-0.13571 -1.52677,-0.44107 -2.20533,-0.91606l-0.40714,-1.73033c1.94522,0.83689 1.78688,1.25534 -0.47499,1.25534l-0.57678,-0.44107l-0.74642,-0.57678c-0.7238,-0.40714 -0.9613,-0.9613 -0.71249,-1.66248c-0.29404,0.1131 -0.48631,0.09047 -0.57678,-0.06786c-0.54285,-0.20357 -0.81427,-0.73511 -0.81427,-1.59462l-0.30535,-1.15356c0,-0.20357 -0.06786,-0.57678 -0.20357,-1.11963c-0.33928,-0.52023 -0.44107,-0.99523 -0.30535,-1.42498c0.15833,-0.42975 0.2375,-0.70118 0.2375,-0.81427l0.16964,-1.96783l0.61071,-0.10178c-0.58809,0 -0.78035,-0.56547 -0.57678,-1.69641c0.31667,-0.1131 0.3619,-0.20357 0.13571,-0.27142c0.24881,-1.35712 0.42975,-2.19402 0.54285,-2.51068c0.1131,-0.31667 0.20357,-0.71249 0.27142,-1.18748c0.09047,-0.49761 0.27142,-0.9613 0.54285,-1.39105l0.54285,-1.25534c0.33928,-0.61071 1.05177,-1.33451 2.13747,-2.1714c0.52023,-0.52023 1.24403,-0.87082 2.1714,-1.05177l1.86605,0.10178l1.56069,1.01784c0.15833,-0.40714 0.59939,-0.29404 1.3232,0.33928c-0.29404,-0.42975 0.07917,-0.98392 1.11963,-1.66248c0.56547,-0.58809 1.53808,-0.70118 2.91782,-0.33928h0.33928c0.70118,-0.04524 1.4476,0.24881 2.23926,0.88213c0.40714,0.45238 0.78035,1.27796 1.11963,2.47675c0.27142,3.70948 0.40714,6.58206 0.40714,8.61774z" data-paper-data="{&quot;origPos&quot;:null}"/></g></g></svg>