<svg version="1.1" xmlns="http://www.w3.org/2000/svg" xmlns:xlink="http://www.w3.org/1999/xlink" width="591.01285" height="419.47835"><g transform="translate(-93.36936,-206.69022)"><g data-paper-data="{&quot;isPaintingLayer&quot;:true}" fill="none" fill-rule="nonzero" stroke="none" stroke-width="none" stroke-linecap="butt" stroke-linejoin="miter" stroke-miterlimit="10" stroke-dasharray="" stroke-dashoffset="0" font-family="none" font-weight="none" font-size="none" text-anchor="none" style="mix-blend-mode: normal"><g data-paper-data="{&quot;origPos&quot;:null}"><path d="M641.93065,230.80003v162h-163.93932c0.62179,-6.31682 1.18508,-12.64053 1.39965,-18.99999c0.50403,-14.9377 -0.66121,-29.72579 -3.09666,-44.51472c-2.05263,-12.24761 -2.50666,-24.49343 -3.92104,-36.80692c-0.54846,-4.77485 -1.70856,-9.48799 -2.2243,-14.26558c-1.37945,-12.77866 -1.13287,-25.5977 -1.13287,-38.41278c0,-2.98632 -0.06806,-5.99201 -0.12159,-9.00001z" data-paper-data="{&quot;origPos&quot;:null}" fill="#dbc19c" stroke="#b39d7f" stroke-width="10"/><path d="M641.93065,230.80003v162h-163.93932c0.62179,-6.31682 1.18508,-12.64053 1.39965,-18.99999c0.50403,-14.9377 -0.66121,-29.72579 -3.09666,-44.51472c-2.05263,-12.24761 -2.50666,-24.49343 -3.92104,-36.80692c-0.54846,-4.77485 -1.70856,-9.48799 -2.2243,-14.26558c-1.37945,-12.77866 -1.13287,-25.5977 -1.13287,-38.41278c0,-2.98632 -0.06806,-5.99201 -0.12159,-9.00001z" data-paper-data="{&quot;origPos&quot;:null}" fill="#dbc19c" stroke="#b39d7f" stroke-width="10"/><path d="M650,235.80004v3.33333h-180.98498c-0.00359,-1.10891 -0.01569,-2.22031 -0.0321,-3.33333z" data-paper-data="{&quot;origPos&quot;:null}" fill="#81715b" stroke="none" stroke-width="0"/><path d="M637.3196,265.80001v117h-158.4362c0.2267,-2.99404 0.40613,-5.99302 0.50758,-8.99999c0.50403,-14.9377 -0.66121,-29.72579 -3.09666,-44.51472c-2.05263,-12.24761 -2.50666,-24.49343 -3.92104,-36.80692c-0.54846,-4.77485 -1.70856,-9.48799 -2.2243,-14.26558c-0.44625,-4.13387 -0.72233,-8.27197 -0.89165,-12.41279z" data-paper-data="{&quot;origPos&quot;:null}" fill="#d8bd99" stroke="none" stroke-width="0"/><path d="M637.3196,313.00003v128h-160.85349c0.94751,-12.76254 2.52915,-25.46006 2.92487,-38.2906c0.50403,-16.3421 -0.66121,-32.52052 -3.09666,-48.69986c-2.05263,-13.39909 -2.50666,-26.79623 -3.92104,-40.2674c-0.02598,-0.24752 -0.05335,-0.4949 -0.08195,-0.74214z" data-paper-data="{&quot;origPos&quot;:null}" fill="#d1b694" stroke="none" stroke-width="0"/><path d="M596.97287,277.80001v0v13z" data-paper-data="{&quot;origPos&quot;:null}" fill="#dbc19c" stroke="none" stroke-width="0"/><path d="M590.05629,265.33336c0,-2.76142 2.58055,-5 5.76382,-5c3.18326,0 5.76382,2.23858 5.76382,5c0,2.76142 -2.58055,5 -5.76382,5c-3.18326,0 -5.76382,-2.23858 -5.76382,-5z" data-paper-data="{&quot;origPos&quot;:null}" fill="#c0a988" stroke="none" stroke-width="0.5"/><path d="M524,302.33333c0,-2.76142 2.23858,-5 5,-5c2.76142,0 5,2.23858 5,5c0,2.76142 -2.23858,5 -5,5c-2.76142,0 -5,-2.23858 -5,-5z" data-paper-data="{&quot;origPos&quot;:null}" fill="#c0a988" stroke="none" stroke-width="0.5"/><path d="M548,280.33336c0,-5.52285 4.47715,-10 10,-10c5.52285,0 10,4.47715 10,10c0,5.52285 -4.47715,10 -10,10c-5.52285,0 -10,-4.47715 -10,-10z" data-paper-data="{&quot;origPos&quot;:null}" fill="#b39d7f" stroke="none" stroke-width="0.5"/><g data-paper-data="{&quot;origPos&quot;:null,&quot;index&quot;:null,&quot;origRot&quot;:0}" stroke="none" stroke-width="0"><path d="M617.66346,369.85646l5.66428,-150.41586l16.20488,-1.78541l15.51267,14.47821l21.10021,-10.70383l-5.66428,150.41586z" data-paper-data="{&quot;origPos&quot;:null,&quot;origRot&quot;:0}" fill="#696053"/><path d="M617.66345,369.85645l5.66428,-150.41586l16.20488,-1.7854l15.51267,14.47821z" data-paper-data="{&quot;origPos&quot;:null,&quot;origRot&quot;:0}" fill="#696053"/><path d="M625.90018,358.89149l5.66428,-150.41586l16.20488,-1.78541l15.51267,14.47821l21.10021,-10.70383l-5.66428,150.41586z" data-paper-data="{&quot;origPos&quot;:null,&quot;origRot&quot;:0}" fill="#8b7f6e"/><path d="M625.90016,358.89149l5.66428,-150.41586l16.20488,-1.7854l15.51267,14.47821z" data-paper-data="{&quot;origPos&quot;:null,&quot;origRot&quot;:0}" fill="#817666"/><path d="M612.66328,502.1136l5.66428,-150.41586l16.20488,-1.78541l15.51267,14.47821l21.10021,-10.70383l-5.66428,150.41586z" data-paper-data="{&quot;origPos&quot;:null,&quot;origRot&quot;:0}" fill="#696053"/><path d="M612.66326,502.11358l5.66428,-150.41586l16.20488,-1.7854l15.51267,14.47821z" data-paper-data="{&quot;origPos&quot;:null,&quot;origRot&quot;:0}" fill="#696053"/><path d="M620.89999,491.14862l5.66428,-150.41586l16.20488,-1.78541l15.51267,14.47821l21.10021,-10.70383l-5.66428,150.41586z" data-paper-data="{&quot;origPos&quot;:null,&quot;origRot&quot;:0}" fill="#8b7f6e"/><path d="M608.20364,624.17959l5.66428,-150.41586l16.20488,-1.78541l15.51267,14.47821l21.10021,-10.70383l-5.66428,150.41586z" data-paper-data="{&quot;origPos&quot;:null,&quot;origRot&quot;:0}" fill="#696053"/><path d="M608.20362,624.17959l5.66428,-150.41586l16.20488,-1.7854l15.51267,14.47821z" data-paper-data="{&quot;origPos&quot;:null,&quot;origRot&quot;:0}" fill="#696053"/><path d="M616.44035,613.21462l5.66428,-150.41586l16.20488,-1.78541l15.51267,14.47821l21.10021,-10.70383l-5.66428,150.41586z" data-paper-data="{&quot;origPos&quot;:null,&quot;origRot&quot;:0}" fill="#8b7f6e"/></g></g><g data-paper-data="{&quot;origPos&quot;:null,&quot;origRot&quot;:0,&quot;index&quot;:null}" stroke="none" stroke-width="0"><path d="M439.63719,281.1119c0,0 -8.36737,-7.4986 -13.72292,-12.29809c-3.27283,-2.93302 -7.10626,1.84844 -10.37909,-1.08458c-1.48765,-1.33319 -0.33141,-8.51386 -1.81906,-9.84705c-8.33085,-7.46587 -21.34676,-19.13036 -21.34676,-19.13036l5.70669,-5.84165l47.26783,42.36008z" data-paper-data="{&quot;origPos&quot;:null,&quot;origRot&quot;:0}" fill="#5a5348"/><path d="M439.63719,281.1119c0,0 -8.36737,-7.4986 -13.72292,-12.29809c-3.27283,-2.93301 -10.7105,-9.59844 -12.19815,-10.93163c-8.33085,-7.46587 -21.34676,-19.13036 -21.34676,-19.13036l5.70669,-5.84165l47.26783,42.36008z" data-paper-data="{&quot;origPos&quot;:null,&quot;origRot&quot;:0}" fill="#6e6658"/></g><g data-paper-data="{&quot;origPos&quot;:null,&quot;origRot&quot;:0}" stroke="none" stroke-width="0"><path d="M138.23227,276.27027l47.26783,-42.36008l5.70669,5.84165c0,0 -13.01591,11.66449 -21.34676,19.13036c-1.48765,1.33319 -0.33141,8.51386 -1.81906,9.84705c-3.27283,2.93302 -7.10626,-1.84844 -10.37909,1.08458c-5.35555,4.79949 -13.72292,12.29809 -13.72292,12.29809z" data-paper-data="{&quot;origPos&quot;:null,&quot;origRot&quot;:0}" fill="#5a5348"/><path d="M138.23227,276.27027l47.26783,-42.36008l5.70669,5.84165c0,0 -13.01591,11.66449 -21.34676,19.13036c-1.48765,1.33319 -8.92532,7.99862 -12.19815,10.93163c-5.35555,4.79949 -13.72292,12.29809 -13.72292,12.29809z" data-paper-data="{&quot;origPos&quot;:null,&quot;origRot&quot;:0}" fill="#6e6658"/></g><path d="M143.22034,245.80002v-13c0,0 96.76426,5 158.69831,5c56.2296,0 144.08136,-5 144.08136,-5v13c0,0 -87.85176,5 -144.08136,5c-61.93405,0 -158.69831,-5 -158.69831,-5z" data-paper-data="{&quot;origPos&quot;:null}" fill="#23211c" stroke="none" stroke-width="0"/><path d="M138,240.80001v-13c0,0 96.76426,5 158.69831,5c56.2296,0 144.08136,-5 144.08136,-5v13c0,0 -87.85176,5 -144.08136,5c-61.93405,0 -158.69831,-5 -158.69831,-5z" data-paper-data="{&quot;origPos&quot;:null}" fill="#58534a" stroke="none" stroke-width="0"/><path d="M107.92795,374.65851l-7.22523,-150.34896l15.99272,-3.16526l16.69447,13.09795l20.10709,-12.4698l7.22523,150.34896z" data-paper-data="{&quot;origPos&quot;:null,&quot;origRot&quot;:0}" fill="#696053" stroke="none" stroke-width="0"/><path d="M107.92792,375.65851l-7.22523,-150.34896l15.99272,-3.16525l16.69447,13.09795z" data-paper-data="{&quot;origPos&quot;:null,&quot;origRot&quot;:0}" fill="#696053" stroke="none" stroke-width="0"/><path d="M109.3262,376.65851l-7.22523,-150.34896l15.99272,-3.16526l16.69447,13.09795l20.10709,7.5302l7.22523,130.34896z" data-paper-data="{&quot;origPos&quot;:null,&quot;origRot&quot;:0}" fill="#696053" stroke="none" stroke-width="0"/><path d="M109.32618,376.65851l-7.22523,-150.34896l15.99272,-3.16525l16.69447,13.09795z" data-paper-data="{&quot;origPos&quot;:null,&quot;origRot&quot;:0}" fill="#696053" stroke="none" stroke-width="0"/><path d="M100.59461,368.02906l-7.22523,-150.34896l15.99272,-3.16526l16.69447,13.09795l20.10709,-12.4698l7.22523,150.34896z" data-paper-data="{&quot;origPos&quot;:null,&quot;origRot&quot;:0}" fill="#8b7f6e" stroke="none" stroke-width="0"/><path d="M100.59459,369.02906l-7.22523,-150.34896l15.99272,-3.16525l16.69447,13.09795z" data-paper-data="{&quot;origPos&quot;:null,&quot;origRot&quot;:0}" fill="#817666" stroke="none" stroke-width="0"/><path d="M115.3262,509.85852l-7.22523,-150.34896l15.99272,-3.16526l16.69447,13.09795l20.10709,-12.4698l7.22523,150.34896z" data-paper-data="{&quot;origPos&quot;:null,&quot;origRot&quot;:0}" fill="#696053" stroke="none" stroke-width="0"/><path d="M115.32618,509.85849l-7.22523,-150.34896l15.99272,-3.16525l16.69447,13.09795z" data-paper-data="{&quot;origPos&quot;:null,&quot;origRot&quot;:0}" fill="#696053" stroke="none" stroke-width="0"/><path d="M106.92795,502.22905l-7.22523,-150.34896l15.99272,-3.16526l16.69447,13.09795l20.10709,-12.4698l7.22523,150.34896z" data-paper-data="{&quot;origPos&quot;:null,&quot;origRot&quot;:0,&quot;index&quot;:null}" fill="#8b7f6e" stroke="none" stroke-width="0"/><path d="M121.3262,623.85852l-7.22523,-150.34896l15.99272,-3.16526l16.69447,13.09795l20.10709,-12.4698l7.22523,150.34896z" data-paper-data="{&quot;origPos&quot;:null,&quot;origRot&quot;:0}" fill="#696053" stroke="none" stroke-width="0"/><path d="M121.32618,623.85849l-7.22523,-150.34896l15.99272,-3.16525l16.69447,13.09795z" data-paper-data="{&quot;origPos&quot;:null,&quot;origRot&quot;:0}" fill="#696053" stroke="none" stroke-width="0"/><path d="M112.92795,616.22906l-7.22523,-150.34896l15.99272,-3.16526l16.69447,13.09795l20.10709,-12.4698l7.22523,150.34896z" data-paper-data="{&quot;origPos&quot;:null,&quot;origRot&quot;:0,&quot;index&quot;:null}" fill="#8b7f6e" stroke="none" stroke-width="0"/><path d="M121,485.80003v0v13z" data-paper-data="{&quot;origPos&quot;:null}" fill="#dbc19c" stroke="none" stroke-width="0"/><g data-paper-data="{&quot;index&quot;:null,&quot;origPos&quot;:null}" stroke="none" stroke-width="0"><path d="M424.76763,368.1214l7.22523,-150.34896l20.10709,12.4698l16.69447,-13.09795l15.99272,3.16526l-7.22523,150.34896z" data-paper-data="{&quot;origPos&quot;:null,&quot;origRot&quot;:0}" fill="#696053"/><path d="M452.09997,230.24224l16.69447,-13.09795l15.99272,3.16525l-7.22523,150.34896z" data-paper-data="{&quot;origPos&quot;:null,&quot;origRot&quot;:0}" fill="#696053"/><path d="M423.36936,369.1214l7.22523,-130.34896l20.10709,-7.5302l16.69447,-13.09795l15.99272,3.16526l-7.22523,150.34896z" data-paper-data="{&quot;origPos&quot;:null,&quot;origRot&quot;:0}" fill="#696053"/><path d="M450.70171,231.24224l16.69447,-13.09795l15.99272,3.16525l-7.22523,150.34896z" data-paper-data="{&quot;origPos&quot;:null,&quot;origRot&quot;:0}" fill="#696053"/><path d="M432.10096,361.49195l7.22523,-150.34896l20.10709,12.4698l16.69447,-13.09795l15.99272,3.16526l-7.22523,150.34896z" data-paper-data="{&quot;origPos&quot;:null,&quot;origRot&quot;:0}" fill="#8b7f6e"/><path d="M459.4333,223.61278l16.69447,-13.09795l15.99272,3.16525l-7.22523,150.34896z" data-paper-data="{&quot;origPos&quot;:null,&quot;origRot&quot;:0}" fill="#817666"/><path d="M417.36936,502.32141l7.22523,-150.34896l20.10709,12.4698l16.69447,-13.09795l15.99272,3.16526l-7.22523,150.34896z" data-paper-data="{&quot;origPos&quot;:null,&quot;origRot&quot;:0}" fill="#696053"/><path d="M444.70171,364.44222l16.69447,-13.09795l15.99272,3.16525l-7.22523,150.34896z" data-paper-data="{&quot;origPos&quot;:null,&quot;origRot&quot;:0}" fill="#696053"/><path d="M425.76763,494.69195l7.22523,-150.34896l20.10709,12.4698l16.69447,-13.09795l15.99272,3.16526l-7.22523,150.34896z" data-paper-data="{&quot;origPos&quot;:null,&quot;origRot&quot;:0,&quot;index&quot;:null}" fill="#8b7f6e"/><path d="M411.36936,616.32141l7.22523,-150.34896l20.10709,12.4698l16.69447,-13.09795l15.99272,3.16526l-7.22523,150.34896z" data-paper-data="{&quot;origPos&quot;:null,&quot;origRot&quot;:0}" fill="#696053"/><path d="M438.70171,478.44223l16.69447,-13.09795l15.99272,3.16525l-7.22523,150.34896z" data-paper-data="{&quot;origPos&quot;:null,&quot;origRot&quot;:0}" fill="#696053"/><path d="M419.76763,608.69193l7.22523,-150.34896l20.10709,12.4698l16.69447,-13.09795l15.99272,3.16526l-7.22523,150.34896z" data-paper-data="{&quot;origPos&quot;:null,&quot;origRot&quot;:0,&quot;index&quot;:null}" fill="#8b7f6e"/><path d="M464.48985,480.80003v0v13z" data-paper-data="{&quot;origPos&quot;:null}" fill="#dbc19c"/></g></g></g></svg>