<svg version="1.1" xmlns="http://www.w3.org/2000/svg" xmlns:xlink="http://www.w3.org/1999/xlink" width="350.20766" height="122.92073"><g transform="translate(-95.79234,-185.07928)"><g data-paper-data="{&quot;isPaintingLayer&quot;:true}" fill="none" fill-rule="nonzero" stroke="none" stroke-width="none" stroke-linecap="none" stroke-linejoin="miter" stroke-miterlimit="10" stroke-dasharray="" stroke-dashoffset="0" font-family="none" font-weight="none" font-size="none" text-anchor="none" style="mix-blend-mode: normal"><path d="M381,244.46667c0,0 13.97527,-14.33333 21,-14.33333c11.70789,0 27,14.33333 27,14.33333z" data-paper-data="{&quot;origPos&quot;:null}" fill="#adadad" stroke="none" stroke-width="NaN" stroke-linecap="butt"/><path d="M307,241.46667c0,0 13.97527,-14.33333 21,-14.33333c11.70788,0 27,14.33333 27,14.33333z" data-paper-data="{&quot;origPos&quot;:null}" fill="#adadad" stroke="none" stroke-width="NaN" stroke-linecap="butt"/><g data-paper-data="{&quot;origPos&quot;:null,&quot;index&quot;:null}" stroke="none" stroke-linecap="butt"><path d="M343.00893,242.55696c0,0 -6.0429,-33.92074 15.53151,-28.73328c14.85251,3.57121 12.42521,28.73328 12.42521,28.73328z" data-paper-data="{&quot;origPos&quot;:null}" fill="#ababab" stroke-width="0"/><path d="M346.35001,241.22053c0,0 -6.0429,-33.92074 15.5315,-28.73328c14.8525,3.57121 12.4252,28.73328 12.4252,28.73328z" data-paper-data="{&quot;origPos&quot;:null}" fill="#c0c0c0" stroke-width="0"/><path d="M357.60131,231.86551c-1.84522,0 -3.34108,-1.49585 -3.34108,-3.34108c0,-1.84522 1.49585,-3.34108 3.34108,-3.34108c1.84522,0 3.34108,1.49585 3.34108,3.34108c0,1.84522 -1.49585,3.34108 -3.34108,3.34108z" data-paper-data="{&quot;origPos&quot;:null}" fill="#ababab" stroke-width="0.5"/></g><g data-paper-data="{&quot;origPos&quot;:null}"><path d="M437,297.00001v-41" data-paper-data="{&quot;origPos&quot;:null}" fill="none" stroke="#adadad" stroke-width="10" stroke-linecap="round"/><path d="M436.75,289.25001l0.25,7.75" data-paper-data="{&quot;origPos&quot;:null}" fill="none" stroke="#5e5e5e" stroke-width="10" stroke-linecap="round"/><path d="M426,298.00001c0,-5.52284 4.47716,-10 10,-10c5.52285,0 10,4.47716 10,10c0,5.52284 -4.47715,10 -10,10c-5.52284,0 -10,-4.47716 -10,-10z" fill="#929292" stroke="none" stroke-width="0.5" stroke-linecap="butt"/></g><g data-paper-data="{&quot;origPos&quot;:null}"><path d="M401,284.00001v-41" data-paper-data="{&quot;origPos&quot;:null}" fill="none" stroke="#adadad" stroke-width="10" stroke-linecap="round"/><path d="M400.75,276.25001l0.25,7.75" data-paper-data="{&quot;origPos&quot;:null}" fill="none" stroke="#5e5e5e" stroke-width="10" stroke-linecap="round"/><path d="M390,285.00001c0,-5.52284 4.47716,-10 10,-10c5.52285,0 10,4.47716 10,10c0,5.52284 -4.47715,10 -10,10c-5.52284,0 -10,-4.47716 -10,-10z" fill="#929292" stroke="none" stroke-width="0.5" stroke-linecap="butt"/></g><g data-paper-data="{&quot;origPos&quot;:null}"><path d="M256,291.00001v-41" data-paper-data="{&quot;origPos&quot;:null}" fill="none" stroke="#adadad" stroke-width="10" stroke-linecap="round"/><path d="M255.75,283.25001l0.25,7.75" data-paper-data="{&quot;origPos&quot;:null}" fill="none" stroke="#5e5e5e" stroke-width="10" stroke-linecap="round"/><path d="M245,292.00001c0,-5.52284 4.47716,-10 10,-10c5.52285,0 10,4.47716 10,10c0,5.52284 -4.47715,10 -10,10c-5.52284,0 -10,-4.47716 -10,-10z" fill="#929292" stroke="none" stroke-width="0.5" stroke-linecap="butt"/></g><g data-paper-data="{&quot;origPos&quot;:null}"><path d="M289,246.00001v41" data-paper-data="{&quot;origPos&quot;:null}" fill="none" stroke="#adadad" stroke-width="10" stroke-linecap="round"/><path d="M289,287.00001l-0.25,-7.75" data-paper-data="{&quot;origPos&quot;:null}" fill="none" stroke="#5e5e5e" stroke-width="10" stroke-linecap="round"/><path d="M278,288.00001c0,-5.52284 4.47716,-10 10,-10c5.52285,0 10,4.47716 10,10c0,5.52284 -4.47715,10 -10,10c-5.52284,0 -10,-4.47716 -10,-10z" fill="#929292" stroke="none" stroke-width="0.5" stroke-linecap="butt"/></g><g data-paper-data="{&quot;origPos&quot;:null}"><path d="M325,278.00001v-41" data-paper-data="{&quot;origPos&quot;:null}" fill="none" stroke="#adadad" stroke-width="10" stroke-linecap="round"/><path d="M324.75,270.25001l0.25,7.75" data-paper-data="{&quot;origPos&quot;:null}" fill="none" stroke="#5e5e5e" stroke-width="10" stroke-linecap="round"/><path d="M314,279.00001c0,-5.52284 4.47716,-10 10,-10c5.52285,0 10,4.47716 10,10c0,5.52284 -4.47715,10 -10,10c-5.52284,0 -10,-4.47716 -10,-10z" fill="#929292" stroke="none" stroke-width="0.5" stroke-linecap="butt"/></g><g data-paper-data="{&quot;origPos&quot;:null}"><path d="M361,284.00001v-41" data-paper-data="{&quot;origPos&quot;:null}" fill="none" stroke="#adadad" stroke-width="10" stroke-linecap="round"/><path d="M360.75,276.25001l0.25,7.75" data-paper-data="{&quot;origPos&quot;:null}" fill="none" stroke="#5e5e5e" stroke-width="10" stroke-linecap="round"/><path d="M350,285.00001c0,-5.52284 4.47716,-10 10,-10c5.52285,0 10,4.47716 10,10c0,5.52284 -4.47715,10 -10,10c-5.52284,0 -10,-4.47716 -10,-10z" fill="#929292" stroke="none" stroke-width="0.5" stroke-linecap="butt"/></g><g data-paper-data="{&quot;origPos&quot;:null}"><path d="M218,244.00001v41" data-paper-data="{&quot;origPos&quot;:null}" fill="none" stroke="#adadad" stroke-width="10" stroke-linecap="round"/><path d="M218,285.00001l-0.25,-7.75" data-paper-data="{&quot;origPos&quot;:null}" fill="none" stroke="#5e5e5e" stroke-width="10" stroke-linecap="round"/><path d="M207,286.00001c0,-5.52284 4.47716,-10 10,-10c5.52285,0 10,4.47716 10,10c0,5.52284 -4.47715,10 -10,10c-5.52284,0 -10,-4.47716 -10,-10z" fill="#929292" stroke="none" stroke-width="0.5" stroke-linecap="butt"/></g><g data-paper-data="{&quot;origPos&quot;:null}" stroke="none" stroke-width="0" stroke-linecap="butt"><g data-paper-data="{&quot;origPos&quot;:null}"><path d="M113.17484,230.47517l-4.22689,-29.32403l14.66201,-2.11344l4.22689,29.32403z" data-paper-data="{&quot;origPos&quot;:null,&quot;origRot&quot;:0}" fill="#c7c7c7"/><path d="M98.45647,209.49544l-2.66413,-18.48241l37.16538,-5.93375l11.21283,8.39353l-8.5487,10.08888z" data-paper-data="{&quot;origPos&quot;:null,&quot;origRot&quot;:0}" fill="#b6b6b6"/></g><path d="M121.4365,200.44771c0,0 -0.54399,-5.5692 -1.0517,-8.73494c-0.31911,-1.98971 -1.06692,-4.47527 -1.06692,-4.47527l4.11261,-0.62312c0,0 -0.90371,3.9619 -1.32259,6.73702c-0.3593,2.38034 -0.6714,7.09631 -0.6714,7.09631z" data-paper-data="{&quot;origPos&quot;:null}" fill="#838383"/><path d="M129.64521,190.94771c0,0 0.54399,5.5692 1.0517,8.73494c0.3191,1.98971 1.06691,4.47527 1.06691,4.47527l-4.11261,0.62312c0,0 0.90371,-3.9619 1.32259,-6.73701c0.3593,-2.38034 0.6714,-7.09632 0.6714,-7.09632z" data-paper-data="{&quot;origPos&quot;:null,&quot;index&quot;:null}" fill="#838383"/><path d="M104.0452,194.94771c0,0 0.54398,5.56919 1.0517,8.73493c0.3191,1.98971 1.06691,4.47527 1.06691,4.47527l-4.11261,0.62312c0,0 0.9037,-3.9619 1.32259,-6.73701c0.3593,-2.38034 0.67141,-7.09631 0.67141,-7.09631z" data-paper-data="{&quot;origPos&quot;:null,&quot;index&quot;:null}" fill="#838383"/></g></g></g></svg>