<svg version="1.1" xmlns="http://www.w3.org/2000/svg" xmlns:xlink="http://www.w3.org/1999/xlink" width="408.7396" height="237.74684" viewBox="0,0,408.7396,237.74684"><g transform="translate(18.49797,3.68478)"><g data-paper-data="{&quot;isPaintingLayer&quot;:true}" fill="none" fill-rule="nonzero" stroke="none" stroke-width="none" stroke-linecap="none" stroke-linejoin="miter" stroke-miterlimit="10" stroke-dasharray="" stroke-dashoffset="0" font-family="none" font-weight="none" font-size="none" text-anchor="none" style="mix-blend-mode: normal"><g data-paper-data="{&quot;origPos&quot;:null,&quot;index&quot;:null}"><path d="M31.72185,146.30289h-12.92727" data-paper-data="{&quot;origPos&quot;:null,&quot;index&quot;:null}" fill="none" stroke="#88ac7a" stroke-width="15" stroke-linecap="round"/><g data-paper-data="{&quot;origPos&quot;:null}"><path d="M10.09057,127.87294h-11.41784" data-paper-data="{&quot;origPos&quot;:null,&quot;index&quot;:null}" fill="none" stroke="#88ac7a" stroke-width="17" stroke-linecap="round"/><path d="M-2.96431,127.50707l-0.47575,-32.92702" data-paper-data="{&quot;origPos&quot;:null,&quot;index&quot;:null}" fill="none" stroke="#94bc85" stroke-width="17" stroke-linecap="round"/><path d="M14.49528,100.12016l1.56143,75.67989" data-paper-data="{&quot;origPos&quot;:null,&quot;index&quot;:null}" fill="none" stroke="#9dc78d" stroke-width="15" stroke-linecap="round"/><path d="M15.09941,184.7949c0,0 -2.29179,-33.35131 1.80921,-61.80229c1.30059,-9.02296 -2.36525,-30.39771 -2.36525,-30.39771c0,0 2.90183,0.70027 4.40322,1.85284c1.80328,1.38433 2.08386,5.34716 2.08386,5.34716l2.78018,93.8z" data-paper-data="{&quot;origPos&quot;:null}" fill="#97be87" stroke="none" stroke-width="0" stroke-linecap="butt"/><path d="M34.50203,143.60474l-0.76805,-32.92702" data-paper-data="{&quot;origPos&quot;:null,&quot;index&quot;:null}" fill="none" stroke="#94bc85" stroke-width="17" stroke-linecap="round"/></g></g><g data-paper-data="{&quot;origPos&quot;:null,&quot;index&quot;:null}" fill="#696053" stroke="none" stroke-width="0" stroke-linecap="butt"><path d="M72.75643,228.59485l15.56964,-130.07147l14.18282,-0.40063l12.43019,13.65761l19.06094,-7.78978l-15.56964,130.07147z" data-paper-data="{&quot;origPos&quot;:null,&quot;origRot&quot;:0}"/><path d="M72.75644,228.59485l15.56964,-130.07147l14.18282,-0.40063l12.43019,13.65761z" data-paper-data="{&quot;origPos&quot;:null,&quot;origRot&quot;:0}"/></g><g data-paper-data="{&quot;origPos&quot;:null,&quot;index&quot;:null}" stroke="none" stroke-width="0" stroke-linecap="butt"><path d="M78.75643,223.59485l15.56964,-130.07147l14.18282,-0.40063l12.43019,13.65761l19.06094,-7.78978l-15.56964,130.07147z" data-paper-data="{&quot;origPos&quot;:null,&quot;origRot&quot;:0}" fill="#8b7f6e"/><path d="M78.75644,223.59486l15.56964,-130.07147l14.18282,-0.40063l12.43019,13.65761z" data-paper-data="{&quot;origPos&quot;:null,&quot;origRot&quot;:0}" fill="#817666"/></g><g data-paper-data="{&quot;origPos&quot;:null,&quot;index&quot;:null}" stroke="none" stroke-width="0" stroke-linecap="butt"><path d="M8.08951,199.22911c0,0 8.77228,-31.60396 18.56105,-31.60396c11.4813,0 22.26965,-2.31009 32.93373,1.94407c13.04797,5.20515 18.84903,-1.62767 29.77877,7.19753c4.83485,3.90389 12.53502,22.46235 12.53502,22.46235z" data-paper-data="{&quot;index&quot;:null,&quot;origPos&quot;:null}" fill="#dbcfbd"/><path d="M28.1555,189.19608c0,0 8.77229,-31.60396 18.56106,-31.60396c11.48131,0 22.26966,-2.31009 32.93374,1.94407c13.04797,5.20515 18.84903,-1.62766 29.77877,7.19754c4.83485,3.90389 12.53501,22.46235 12.53501,22.46235z" data-paper-data="{&quot;origPos&quot;:null,&quot;index&quot;:null}" fill="#d1c0a6"/><path d="M19.62745,208.25881c0,0 8.77229,-31.60396 18.56106,-31.60396c11.4813,0 22.26965,-2.31009 32.93373,1.94407c13.04797,5.20515 18.84903,-1.62766 29.77877,7.19754c4.83486,3.90389 12.53502,22.46235 12.53502,22.46235z" data-paper-data="{&quot;origPos&quot;:null,&quot;index&quot;:null}" fill="#dbcfbd"/><path d="M39.69346,198.22578c0,0 8.77229,-31.60397 18.56106,-31.60397c11.48131,0 22.26965,-2.31009 32.93373,1.94407c13.04798,5.20515 18.84904,-1.62766 29.77878,7.19754c4.83486,3.90388 12.53502,22.46235 12.53502,22.46235z" data-paper-data="{&quot;origPos&quot;:null,&quot;index&quot;:null}" fill="#d1c0a6"/><path d="M19.1258,202.23901c0,0 7.70016,-18.55847 12.53502,-22.46236c10.92973,-8.8252 16.73079,-1.99238 29.77877,-7.19753c10.66407,-4.25416 21.45242,-1.94408 32.93373,-1.94408c9.78877,0 18.56106,31.60396 18.56106,31.60396z" data-paper-data="{&quot;origPos&quot;:null}" fill="#dbcfbd"/><path d="M-6.96001,197.22247c0,0 7.70015,-18.55846 12.53501,-22.46235c10.92973,-8.8252 16.73079,-1.99239 29.77877,-7.19754c10.66408,-4.25416 21.45243,-1.94407 32.93374,-1.94407c9.78877,0 18.56106,31.60396 18.56106,31.60396z" data-paper-data="{&quot;origPos&quot;:null}" fill="#d1c0a6"/><path d="M-2.94681,220.80001c0,0 7.70016,-18.55846 12.53502,-22.46235c10.92973,-8.82519 16.73079,-1.99238 29.77877,-7.19753c10.66408,-4.25416 21.45242,-1.94407 32.93373,-1.94407c9.78877,0 18.56106,31.60396 18.56106,31.60396z" data-paper-data="{&quot;origPos&quot;:null}" fill="#dbcfbd"/><path d="M-18.49797,206.25221c0,0 7.70016,-18.55846 12.53502,-22.46235c10.92974,-8.8252 16.7308,-1.99239 29.77878,-7.19754c10.66408,-4.25416 21.45242,-1.94407 32.93373,-1.94407c9.78877,0 18.56106,31.60396 18.56106,31.60396z" data-paper-data="{&quot;origPos&quot;:null}" fill="#d1c0a6"/></g><path d="M17.81683,17.93081c0.06541,-0.24469 0.03649,-0.74081 -0.08675,-1.48836c-0.01123,-0.23131 -0.04997,-0.4323 -0.11622,-0.60298c-0.84159,0.17611 -1.29612,0.2658 -1.36358,0.26908c-0.56443,0.11435 -0.97675,0.17784 -1.23697,0.19047c-0.26023,0.01264 -0.44886,0.0073 -0.56592,-0.016c-0.38149,-0.0974 -0.58254,-0.35814 -0.60312,-0.78221c-0.02059,-0.42408 0.05366,-0.78512 0.22274,-1.08315c0.16861,-0.30766 0.34743,-0.50473 0.53645,-0.59119c0.25227,-0.17648 0.67034,-0.22092 1.25423,-0.13335c-0.31094,-0.23608 0.04196,-0.52855 1.05871,-0.87739c0.51839,-0.26668 1.18486,-0.46811 1.9994,-0.60425c0.08534,-0.03313 0.1521,-0.05086 0.20029,-0.05319l0.41574,-0.09264l0.8385,-0.04071l0.64594,0.17152c0.29335,0.07271 0.74686,0.35983 1.3605,0.86137l-0.03565,0.16113c0.23599,0.08515 0.35633,0.17592 0.361,0.27229c0.00468,0.09637 0.01829,0.17783 0.04085,0.24437c0.03322,0.68429 -0.17726,1.12442 -0.63146,1.32036c-0.14223,0.05521 -0.39763,0.06761 -0.76621,0.0372c-0.42688,-0.03723 -0.59882,-0.09652 -0.51582,-0.17783c0.00636,-0.06793 0.02011,-0.08309 0.04127,-0.04547c0.06438,0.13213 0.19908,0.61827 0.4041,1.45846c0.00514,0.10602 0.08923,0.44489 0.25223,1.01661c0.17265,0.57126 0.29486,1.1981 0.36663,1.88052c0.20277,0.3959 0.34908,1.5191 0.43893,3.36958c0.01432,0.09591 0.02826,0.28362 0.04183,0.56311c-0.04351,0.09872 -0.05661,0.32639 -0.03929,0.68299c-0.02237,0.13633 -0.02839,0.31052 -0.01811,0.52256c-0.03247,0.12716 -0.05436,0.27314 -0.06568,0.43792c-0.00168,0.16432 -0.01441,0.30018 -0.03817,0.4076c-0.03911,0.38833 -0.10475,0.6282 -0.19692,0.71962c-0.08253,0.09096 -0.13194,0.26724 -0.14822,0.52887c0.00514,0.10602 -0.06765,0.29794 -0.2184,0.57575c-0.15074,0.27781 -0.28689,0.45831 -0.40844,0.5415l-0.13011,0.00631c0.07402,0.13166 -0.0859,0.41958 -0.47974,0.86377l-0.21867,0.27146c-0.10321,0.06297 -0.31398,0.19879 -0.63232,0.40746c0.09798,0.2271 -0.10952,0.43039 -0.62249,0.60986c-0.5125,0.18912 -1.03224,0.22884 -1.55924,0.11917c-0.31075,-0.03321 -0.54435,-0.26822 -0.70081,-0.70501c-0.198,0.29944 -0.27192,0.26921 -0.22177,-0.09067c-0.2271,0.09798 -0.44134,-0.03654 -0.64271,-0.40352c0.02246,0.46262 -0.26396,0.43306 -0.85927,-0.0887c-0.10602,0.00514 -0.50496,-0.35225 -1.19684,-1.07219c-0.03499,-0.12389 -0.1426,-0.35052 -0.32283,-0.67989c0.26612,-0.09021 0.28755,-0.24581 0.06428,-0.46683c-0.21363,-0.22148 -0.35258,-0.59634 -0.41688,-1.12455l-0.00913,-0.18794c-0.00795,-0.16385 0.09861,-0.55545 0.31973,-1.1748c0.53729,-0.67335 1.24498,-0.7222 2.12306,-0.14655c0.07421,0.33452 0.17864,0.59511 0.31329,0.7818c0.13465,0.18667 0.24614,0.3938 0.33448,0.62137c0.10359,0.34275 0.37406,0.7402 0.81143,1.19234c0.09049,0.07289 0.20824,0.11065 0.35328,0.11327c-0.00449,0.10649 0.13764,-0.05016 0.42641,-0.46993c0.00916,-0.0101 0.03939,-0.08403 0.09067,-0.22177c0.12558,-0.19931 0.18789,-0.3086 0.18696,-0.32788c0.00824,-0.02938 0.15388,-0.11374 0.43694,-0.25307c-0.23459,-0.05624 -0.28025,-0.30036 -0.13699,-0.73239c0.09713,-0.18827 0.25081,-0.50487 0.46107,-0.94981c-0.30963,0.18892 -0.4717,0.134 -0.4862,-0.16478c-0.05586,-0.35473 -0.10059,-0.57958 -0.13418,-0.67456l0.39356,-0.25097c-0.28492,0.10078 -0.43207,0.05479 -0.44143,-0.13797l0.0699,-0.35117c-0.06934,-0.03528 -0.15931,-0.29657 -0.26991,-0.7839c-0.23113,-0.78095 -0.15024,-1.40317 0.24266,-1.86663c-0.00916,0.0101 -0.1033,-0.03846 -0.2824,-0.14569c-0.16993,-0.11733 -0.24418,-0.25381 -0.22275,-0.40942l-0.06542,-0.75036zM32.80329,21.60846l0.04927,0.41785c0.00187,0.03855 0.07486,0.54702 0.21897,1.52541l0.01614,0.33251c0.01778,0.36625 0.11332,0.94125 0.28663,1.725c0.0145,0.29877 0.15061,0.81385 0.40831,1.5452c0.16479,0.01133 0.29484,0.20305 0.3902,0.57518l-0.00393,0.21755c0.07869,0.22803 0.00496,0.40068 -0.2212,0.51793c0.09349,0.33359 -0.08627,0.51138 -0.53925,0.53337c-0.44334,0.02152 -0.72168,0.05919 -0.83499,0.113c-0.10368,0.05334 -0.25246,-0.02639 -0.44634,-0.23916c-0.07738,0.19697 -0.33349,0.19491 -0.76832,-0.00617c-0.30158,-0.04332 -0.53542,-0.28315 -0.70151,-0.71948l-0.25728,-0.52368c-0.01264,-0.26023 -0.10649,-0.50202 -0.28156,-0.72537c-0.00608,-0.12529 0.01006,-0.29031 0.04842,-0.49504c0.03837,-0.20474 0.09975,-0.33331 0.18415,-0.38571c0.16179,0.74567 0.09574,1.27539 -0.19818,1.58914c0.09282,0.12108 0.06634,0.27211 -0.07944,0.45308l-0.4796,0.26964c0.2287,0.1338 0.24193,0.30705 0.03972,0.51975c-0.13736,0.35445 -0.49036,0.54549 -1.059,0.57309c-0.36625,0.01778 -0.78488,-0.04884 -1.25593,-0.19986c-0.11612,-0.00402 -0.32639,-0.05661 -0.63077,-0.15776c-0.09544,0.02396 -0.25316,-0.04084 -0.47315,-0.19439c-0.21082,-0.16366 -0.37949,-0.15547 -0.50599,0.02457c-0.13091,-0.10958 -0.29096,-0.22256 -0.48017,-0.33896l-0.48508,-0.44017c-0.08132,-0.08299 -0.16109,-0.23369 -0.23932,-0.45209c-0.06906,-0.2285 -0.10041,-0.37673 -0.09404,-0.44466c0.016,-0.0684 0.01156,-0.15996 -0.01333,-0.27468c-0.01526,-0.11519 -0.00687,-0.24118 0.02512,-0.37799c-0.01544,-0.31805 0.08407,-0.65618 0.29854,-1.01437c-0.18312,0.00889 -0.27796,-0.05413 -0.28451,-0.18906c-0.00655,-0.13494 0.04014,-0.26762 0.14008,-0.39805c-0.05923,-0.0261 -0.09096,-0.08253 -0.09516,-0.16927l0.08308,-0.97493c-0.01123,-0.23131 -0.01437,-0.39539 -0.00941,-0.49224l-0.02105,-0.43371c0.01647,-0.05876 0.02283,-0.12669 0.01909,-0.2038l0.07255,-1.19179c-0.00936,-0.19276 -0.01039,-0.31347 -0.00309,-0.36212l-0.01966,-0.4048c0.24282,0.02685 0.25765,-0.06564 0.0445,-0.27749l0.22092,-0.82222l0.15875,-0.31201c0.03977,-0.17583 0.19612,-0.33798 0.46907,-0.48649c0.31786,-0.21831 0.78039,-0.3422 1.38758,-0.37168c0.30065,0.02404 0.52228,0.21133 0.66488,0.56185c0.03462,-0.28184 0.21447,-0.3582 0.53954,-0.22907c0.64004,0.24908 0.77624,0.86559 0.4086,1.8495c-0.25254,0.36971 -0.27094,0.58796 -0.05516,0.65478c-0.06091,0.13821 -0.09044,0.22659 -0.08856,0.26513c-0.07111,0.52513 -0.2664,0.78095 -0.58586,0.76749c1.02339,-1.60506 1.16122,-1.45234 0.4135,0.45813l-0.05839,0.88679c-0.08824,0.37139 -0.11079,0.80238 -0.06764,1.29298l-0.17531,0.26935c0.07897,0.03481 0.01286,0.26504 -0.19832,0.69071c0.23037,-0.0305 0.34978,0.04098 0.3582,0.21447l0.02569,0.23061c-0.23131,0.01123 -0.33826,-0.0029 -0.32086,-0.04239c0.02657,-0.04959 0.06714,-0.10953 0.12168,-0.1798c0.05408,-0.07991 0.0763,-0.11963 0.06667,-0.11917c0.13615,-0.1805 0.23187,-0.39769 0.28717,-0.65155c0.0553,-0.25386 0.08131,-0.41452 0.07803,-0.48199c0.27051,-0.79565 0.43258,-1.23825 0.48619,-1.32779c0.04735,-0.41771 0.21353,-0.87499 0.49854,-1.37187c-0.16525,-0.02096 -0.22808,-0.22078 -0.18851,-0.59947l0.26513,-1.40401c0.115,-0.21811 0.17132,-0.35127 0.16899,-0.39946c-0.00281,-0.05783 0.11654,-0.28582 0.35805,-0.68396c-0.06158,-0.0743 -0.03168,-0.25447 0.08968,-0.54052c0.16039,-0.27828 0.46098,-0.55371 0.9018,-0.82629l0.18794,-0.00913c0.4222,-0.05914 0.87481,0.01066 1.35783,0.2094c0.11818,0.24544 0.18219,0.46935 0.19201,0.67175c0.03593,0.14316 0.08441,0.44513 0.14542,0.90588l0.01544,0.31805l-0.06428,0.46683c0.15552,0.41752 0.18622,0.85076 0.09208,1.29972zM35.4994,18.36201c0.49873,-0.67148 1.20474,-1.05354 2.118,-1.14618c1.43325,-0.12755 2.52061,0.18193 3.26207,0.92845c0.75111,0.74605 1.17205,1.55642 1.26282,2.43114c0.10041,0.87424 -0.19907,1.37182 -0.89843,1.49272c-0.7031,0.04379 -1.13115,-0.01754 -1.28414,-0.184c-0.16151,0.05615 -0.40395,-0.0625 -0.72734,-0.35595c-0.14831,-0.07008 -0.34383,-0.3166 -0.58656,-0.73954l-0.30557,-0.62276c-0.06391,-0.12249 -0.05709,-0.18077 0.02049,-0.17489c0.05689,-0.02208 0.08908,0.04398 0.09657,0.19818c0.07954,0.6434 0.44316,1.26818 1.09088,1.87434c0,0 0.01057,0.01881 0.03172,0.05642c0.03079,0.03714 0.15252,0.15682 0.36522,0.35904c1.44299,1.46598 2.22232,2.6937 2.33797,3.68313c0.03557,0.73248 -0.109,1.23703 -0.4337,1.51363c-0.73528,0.97278 -1.74315,1.50475 -3.02359,1.59589c-1.27997,0.10079 -2.36439,-0.24748 -3.25323,-1.04481c-0.30364,-0.28474 -0.46178,-0.55722 -0.47442,-0.81744c-0.14401,-0.37943 -0.1952,-0.63779 -0.15355,-0.77505c-0.05961,-0.43184 -0.06728,-0.7889 -0.02303,-1.07121c0.10667,-0.78769 0.63638,-1.21915 1.58912,-1.2944c0.53008,-0.02574 0.8617,0.23833 0.99487,0.79217c0.23983,0.76122 0.42155,1.22092 0.54516,1.37916c0.13324,0.15776 0.31529,0.22621 0.54614,0.20534c0.21156,-0.01993 0.29953,-0.19809 0.26387,-0.53449c-0.02648,-0.3465 -0.27146,-0.7162 -0.73493,-1.10911c-0.15346,-0.1761 -0.30963,-0.3086 -0.46852,-0.39749c-0.14971,-0.09901 -0.29003,-0.20328 -0.42094,-0.31286c0.10958,-0.13091 0.10887,-0.14536 -0.00211,-0.04337c-0.38028,-0.27136 -0.86125,-0.72621 -1.4429,-1.36455c-0.57202,-0.63882 -0.89251,-1.27052 -0.96147,-1.89511c-0.12998,-1.08535 0.09319,-1.96081 0.66949,-2.62639zM48.22538,12.44045c-0.02507,0.67746 -0.03293,1.11257 -0.02358,1.30533c0.00936,0.19276 0.00792,0.36189 -0.00435,0.50739l0.03158,0.65056l-0.02049,0.17489l0.02316,0.47708c0.00749,0.1542 -0.0996,0.23669 -0.32128,0.24745l0.58473,-0.4921c0.07711,-0.00375 0.321,-0.05422 0.73169,-0.15146c0.41022,-0.10686 0.8276,-0.16576 1.25214,-0.17672c0.43371,-0.02105 0.76243,0.08375 0.98616,0.3144c0.22373,0.23066 0.34379,0.51464 0.36017,0.85198c0.07374,0.32489 -0.00285,0.63775 -0.22976,0.93858l-0.08113,0.11986c-0.16768,0.32694 -0.45134,0.55324 -0.85099,0.67892l-0.8618,0.15777l-1.04272,0.31147l-0.28353,0.12969c0.00795,0.16385 0.04314,0.4906 0.10555,0.98026c0.07206,0.48919 0.11323,0.83981 0.12352,1.05185l0.11439,0.8639c0.27165,1.41659 0.61099,2.83473 1.01804,4.2544c0.10339,0.13989 0.23155,0.49111 0.38445,1.05367l0.22837,0.52507c0.16338,0.97745 -0.32356,1.49379 -1.46084,1.549c-0.1542,0.00749 -0.50281,-0.0094 -1.04581,-0.05067c-0.27173,-0.02545 -0.65014,-0.25826 -1.13522,-0.69841c0.25368,-0.14757 0.18705,-0.22644 -0.19987,-0.23665l-0.54909,-1.1616c-0.05193,-0.07477 -0.10256,-0.22204 -0.15187,-0.44185c-0.19201,-0.17423 -0.37902,-0.64336 -0.56102,-1.40737c-0.00141,-0.02891 -0.01961,-0.10532 -0.0546,-0.2292l-0.00983,-0.2024c-0.1107,-0.09123 -0.209,-0.42458 -0.2949,-1.00005c-0.08637,-0.5851 -0.17017,-1.1172 -0.2514,-1.5963c-0.03088,-0.63611 -0.11336,-1.24072 -0.24747,-1.81385l-0.07215,-0.59063l-0.01264,-0.26023c0.33124,-0.14167 0.50459,-0.05348 0.52004,0.26457l-0.26023,0.01264c-0.2781,0.04248 -0.50941,0.05371 -0.69393,0.03369c-0.87705,0.04258 -1.52743,-0.22049 -1.95113,-0.78922c-0.36278,-0.70694 -0.38594,-1.18401 -0.06949,-1.43124c0.31646,-0.24722 0.87574,-0.46759 1.67784,-0.6611c0.27951,-0.01357 0.52774,-0.07393 0.74475,-0.18107c-0.01497,-0.30842 0.04407,-0.48517 0.17713,-0.53028c-0.04717,-0.37448 -0.04441,-0.61612 0.00828,-0.72495c0.05222,-0.11847 0.08244,-0.19239 0.09067,-0.22177c-0.01095,-0.42453 0.10367,-1.04839 0.34387,-1.87154c0.08637,-0.40994 0.1827,-0.7141 0.289,-0.91248c0.3231,-0.50838 0.93174,-0.70699 1.82592,-0.59583c0.40806,0.04781 0.60242,0.27023 0.58306,0.66726c0.39197,-0.48274 0.57083,-0.38033 0.53659,0.30724zM62.24329,21.74417l0.31102,-1.65259c-0.00561,-0.11566 0.04379,-0.29195 0.14822,-0.52887c0.11407,-0.23739 0.19673,-0.42496 0.24801,-0.5627c0.28072,-0.18752 0.59044,-0.27501 0.92917,-0.26248c0.48424,0.02479 0.89816,0.19308 1.24175,0.50486c0.31169,0.05249 0.31374,0.29391 0.00618,0.72425c0.639,-1.36419 0.78764,-1.18786 0.44592,0.52901c-0.07935,0.55451 -0.16852,0.90662 -0.26752,1.05634c-0.04286,0.31122 -0.0465,0.83308 -0.01094,1.56556c-0.01422,0.50304 0.04539,0.93488 0.17882,1.29551c0.01966,0.4048 -0.08065,0.62703 -0.30092,0.6667l-0.24184,-0.20563c-0.0117,-0.24094 0.02316,-0.51796 0.10456,-0.83106c-0.00187,-0.03855 0.01909,-0.2038 0.06288,-0.49574c0.05296,-0.30205 0.08922,-0.55016 0.10877,-0.74432c0.02873,-0.20427 0.05933,-0.36999 0.09179,-0.49715c0.09834,-0.36222 0.18985,-0.66614 0.27453,-0.91177c0.01815,-0.22307 0.04711,-0.42253 0.08687,-0.59835c0.03977,-0.17583 0.0793,-0.35647 0.1186,-0.54192c0.1877,-0.51147 0.27477,-0.90695 0.2612,-1.18645c0.10667,-0.78769 0.26194,-1.37004 0.46584,-1.74705c0.21306,-0.38711 0.51235,-0.59002 0.89787,-0.60874c0.38551,-0.01872 0.59437,0.00496 0.62656,0.07102c0.34089,-0.14213 0.69814,0.05305 1.07178,0.58557c0.13793,0.25415 0.24142,0.49547 0.31048,0.72397c-0.02283,0.12669 -0.03733,0.32545 -0.04351,0.59624c0.003,0.26069 -0.02199,0.54206 -0.07495,0.84412c-0.01984,0.38739 -0.05927,0.66946 -0.11831,0.84622c-0.12042,0.30532 -0.18892,0.68542 -0.20548,1.14027c-0.01703,0.44522 -0.0633,0.78559 -0.1388,1.0211c-0.11453,0.22776 -0.18629,0.54038 -0.2153,0.93788c-0.01937,0.39703 -0.09362,0.75808 -0.22274,1.08315c-0.1195,0.3246 -0.18667,0.63218 -0.20155,0.92272l-0.21306,0.38711c-0.37073,1.11931 -0.90614,1.83122 -1.60624,2.1357l-0.56382,0.02738c-0.21203,0.0103 -0.62057,-0.04716 -1.22561,-0.17235c0.29578,-0.2752 0.26452,-0.32199 -0.09376,-0.14035c-0.52317,-0.42865 -0.87205,-0.74983 -1.04666,-0.96355c-0.33555,-0.54403 -0.38542,-0.8749 -0.14963,-0.99262c0.09367,0.53645 0.01503,1.10541 -0.23593,1.7069c-0.05549,0.051 -0.19861,0.38641 -0.42935,1.00623c-0.19753,0.30907 -0.54889,0.53383 -1.05409,0.67429l-0.68719,-0.12603c-0.26986,0.0131 -0.53795,-0.03668 -0.80425,-0.14933l-0.4128,-0.44367c0.02976,0.41396 -0.11954,0.52265 -0.44789,0.32606c-0.31824,-0.18743 -0.58441,-0.3967 -0.7985,-0.62782l0.11959,-0.22317c-0.33124,0.14167 -0.51138,-0.08627 -0.54038,-0.68382c0.17348,-0.00842 0.17105,-0.15805 -0.0073,-0.44886c-0.16872,-0.29129 -0.19852,-0.50721 -0.08941,-0.64776c0.00074,-0.18359 -0.01573,-0.62235 -0.04942,-1.31628c0.05671,-0.22495 0.07453,-0.55427 0.05347,-0.98798l0.08307,-2.4675l0.57673,-0.95542c0.00375,0.07711 -0.15234,0.04603 -0.46824,-0.0932c0.01319,-0.12623 0.02732,-0.23319 0.04239,-0.32086c-0.01778,-0.36625 0.04706,-0.722 0.19453,-1.06729c0.14073,-0.68308 0.21109,-1.02462 0.21109,-1.02462c0.19789,-0.89839 0.58871,-1.40522 1.1724,-1.52051c0.45485,0.01656 0.84458,0.08458 1.16919,0.20408c0.67036,0.27659 0.97195,0.81744 0.90476,1.62254c-0.13445,1.01124 -0.22395,2.25214 -0.26848,3.72273c-0.05071,0.74634 -0.08042,1.12937 -0.08912,1.14911l-0.07704,2.29332l-0.23342,-0.03214c-0.09376,-0.14035 -0.107,-0.3136 -0.03972,-0.51975c0.06681,-0.21578 0.14162,-0.46576 0.22443,-0.74994c0.09198,-0.29428 0.28342,-0.72865 0.57434,-1.30309zM75.50928,19.72345c0.00916,-0.0101 0.10007,-0.22706 0.27271,-0.65084c-0.17208,0.03734 -0.29017,-0.10667 -0.35427,-0.43202c-0.06391,-0.12249 -0.15533,-0.21465 -0.27426,-0.2765c-0.17273,-0.17516 -0.23337,-0.23019 -0.18191,-0.16506c-0.0073,0.04866 -0.02035,0.07828 -0.03916,0.08885c-0.00916,0.0101 -0.10124,0.20296 -0.27622,0.57855c-0.17545,0.36596 -0.30841,1.01002 -0.39889,1.93217c-0.09048,0.92216 -0.12565,1.59045 -0.10554,2.00488c0.01966,0.4048 0.02236,0.85871 0.00815,1.36176c-0.01422,0.50304 -0.02942,0.68734 -0.04562,0.55287c0.00963,-0.00047 0.14091,-0.48021 0.39383,-1.43924c0.02424,-0.09778 0.07917,-0.25985 0.16478,-0.4862zM79.34444,18.72576c0.0393,0.80959 0.1676,1.56172 0.38488,2.2564c0.1122,0.7191 0.28939,1.48335 0.53156,2.29276c0.17049,0.72593 0.04539,0.93488 -0.37531,0.62684c0.74148,0.74652 1.15684,1.24319 1.24611,1.49004c0.0888,0.23721 -0.22026,1.03472 -0.92719,2.39256l0.41474,-1.90396c0.25003,0.37429 0.20554,0.65178 -0.13348,0.83247c-0.33854,0.19033 -0.61795,0.30533 -0.83822,0.345c-0.94929,0.34557 -1.48129,0.03328 -1.59602,-0.93688c-0.08393,0.06203 -0.21273,-0.00417 -0.38641,-0.19861c-0.17414,-0.20408 -0.27319,-0.35384 -0.29715,-0.44928c-0.01432,-0.09591 -0.0518,-0.17138 -0.11243,-0.22639c-0.05287,-0.09404 -0.15052,-0.21489 -0.29293,-0.36254c-0.14242,-0.14765 -0.22888,-0.33667 -0.25939,-0.56705l0.27201,-0.6653l0.08534,-0.03313c0.06944,0.63423 0.07028,1.0496 0.00254,1.2461c-0.17338,0.60738 -0.50617,1.31428 -0.99836,2.12068c-0.684,0.83504 -1.52045,1.11717 -2.50932,0.84638c-0.37635,0.00861 -0.65665,-0.09371 -0.84089,-0.30696c-0.18378,-0.20361 -0.29331,-0.27074 -0.32858,-0.20141c-0.19603,-0.0581 -0.42155,-0.22588 -0.67653,-0.50332c-0.37999,-0.46459 -0.62984,-1.13353 -0.74952,-2.00684l-0.0386,-0.79513c0.05408,-0.07991 0.03723,-0.42688 -0.05054,-1.0409l-0.00561,-0.11566c-0.12024,-0.48685 -0.18364,-0.79774 -0.19019,-0.93268c-0.00655,-0.13494 0.00641,-0.26598 0.03887,-0.39314c0.0421,-0.12763 0.048,-0.20521 0.01768,-0.23272c-0.03032,-0.02751 -0.04946,-0.12319 -0.05741,-0.28703l-0.01895,-0.39033l0.07578,-1.4238c0.16234,-0.63582 0.33853,-1.18538 0.52858,-1.64866c0.06073,-0.34107 0.20595,-0.63311 0.43566,-0.87612c0.34753,-0.4033 0.52564,-0.61482 0.53434,-0.63456c0.17264,-0.42379 0.73159,-0.75041 1.67685,-0.97986l0.46403,0.00646c0.2024,-0.00983 0.36718,0.0015 0.49434,0.03396c0.1368,0.032 0.25339,0.04566 0.34978,0.04098c0.22729,0.10489 0.41804,0.15359 0.57224,0.14611c0.16385,-0.00795 0.43979,0.10424 0.82784,0.33658c0.09731,0.0146 0.3749,0.16052 0.83275,0.43777c0.44728,0.25844 0.6856,0.39178 0.71499,0.40002l0.67624,0.19903c0.361,0.27229 0.54572,0.49518 0.55414,0.66867c0.00187,0.03855 -0.01422,0.50304 -0.04827,1.39348zM84.78455,11.39003l0.08674,-0.00421c0.77338,0.01076 1.29107,0.22713 1.55307,0.64915c0.27164,0.42154 0.38814,0.83129 0.34951,1.22925c-0.03864,0.39796 -0.29638,0.8597 -0.77323,1.3852c-0.46767,0.5154 -0.93788,0.77974 -1.4106,0.79303c-0.14457,0.00702 -0.41289,-0.04758 -0.80496,-0.1638c-0.38243,-0.11669 -0.61617,-0.25507 -0.70124,-0.41517c0.17891,-0.09563 0.21957,-0.05413 0.12197,0.1245c-0.62806,-0.20137 -0.99781,-0.75339 -1.10926,-1.65608c-0.01591,-0.32769 0.19837,-0.39123 0.64284,-0.19061c-0.49443,0.36213 -0.67035,0.22092 -0.52775,-0.4236c0.13811,-0.53804 0.49691,-0.90808 1.0764,-1.1101c0.55385,-0.13316 1.05269,-0.20568 1.4965,-0.21756zM85.57847,18.19123l-0.22131,4.09721c0.00375,0.07711 0.00772,0.15902 0.01194,0.24576c0.00375,0.07711 0.01254,0.15879 0.02639,0.24506c-0.00543,0.08721 -0.00626,0.16937 -0.00253,0.24647l0.08493,1.74929c0.09928,0.65211 0.06486,1.13681 -0.10329,1.45411c-0.18995,0.06719 -0.36475,0.14812 -0.52438,0.24282c-0.14953,0.10386 -0.45701,0.13811 -0.92244,0.10275c-0.45532,-0.0262 -0.78147,-0.07799 -0.97844,-0.15537l-0.17629,-0.04941c-0.3566,0.01731 -0.58459,-0.10204 -0.68396,-0.35805c-0.27781,-0.15074 -0.43362,-0.37504 -0.4674,-0.67287c-0.15627,-0.23393 -0.01118,-0.42936 0.43525,-0.58628c-0.20006,0.05802 -0.33344,-0.00314 -0.40016,-0.18344c-0.05709,-0.18077 -0.0823,-0.40175 -0.07566,-0.66291c0.18359,0.00074 0.15327,-0.02677 -0.09096,-0.08253c-0.01544,-0.31805 0.00696,-0.65243 0.06723,-1.00314c0.15514,0.01179 0.14508,-0.19543 -0.03018,-0.62164c0.11687,-0.17956 0.17156,-0.34645 0.16407,-0.50066c-0.10265,-0.32348 -0.09835,-0.63283 0.0129,-0.92805c0.11125,-0.29522 0.16679,-0.54426 0.1666,-0.74713c0.01609,-0.4645 0.07307,-0.88266 0.17095,-1.25452c-0.00936,-0.19276 0.06264,-0.50056 0.216,-0.92342c0.163,-0.42332 0.28506,-0.69491 0.36618,-0.81479l0.46767,-0.5154l0.60972,-0.27595l0.11594,0.29868c0.22738,-0.2912 0.49327,-0.38622 0.79765,-0.28508c0.54038,0.18629 1.02691,0.45733 1.45959,0.81308c-0.27884,0.22608 -0.41134,0.38225 -0.39749,0.46852c0.02302,0.07617 0.02957,0.21109 0.01966,0.4048c-0.07242,0.10012 -0.11182,0.18415 -0.11818,0.25209zM88.71778,16.95199l0.28914,-0.01403c-0.21326,0.18425 -0.39262,0.27024 -0.53813,0.25799c-0.14598,-0.0219 -0.38375,-0.04416 -0.71331,-0.06681c-0.31993,-0.02311 -0.5926,-0.06784 -0.81801,-0.13418c-0.55826,-0.15644 -0.89348,-0.59423 -1.00568,-1.31333c-0.10303,-0.7292 0.15377,-1.21022 0.77042,-1.44303c0.3712,-0.11463 0.63391,-0.17568 0.78811,-0.18317c0.1542,-0.00749 0.36578,-0.02742 0.6347,-0.05979c0.17844,-0.10527 0.44044,-0.18079 0.786,-0.22655l0.95598,-0.30725c-0.30617,0.45925 -0.51306,0.57557 -0.62067,0.34893l-0.07116,-0.27188c-0.01544,-0.31805 0.0428,-0.6107 0.17475,-0.87794c-0.00468,-0.09637 0.096,-0.41041 0.30204,-0.94209c-0.01244,-0.05736 0.12108,-0.59035 0.40058,-1.59897c0.12651,-0.18003 0.42734,-0.45065 0.9025,-0.81184c0.45186,-0.24414 0.99098,-0.18337 1.61735,0.18231c0.36409,0.13689 0.6843,0.4643 0.96062,0.98222c-0.16553,0.17227 -0.23739,0.38346 -0.21559,0.63358c-0.0219,0.14598 -0.10783,0.7636 -0.25783,1.85288l-0.26737,0.46221c0.02966,-0.18499 0.20034,-0.25124 0.51203,-0.19875c0.32132,0.05202 0.6959,0.10629 1.12371,0.16281c1.00207,0.14456 1.66451,0.55679 1.98734,1.23669c0.16113,0.53317 0.14224,0.93984 -0.0567,1.22c-0.18976,0.27005 -0.58108,0.46777 -1.17395,0.59316c-0.39469,0.02882 -0.87153,0.0568 -1.43053,0.08394c-0.559,0.02714 -0.84309,0.04576 -0.85225,0.05586c-0.00683,0.0583 -0.0065,0.16455 0.00099,0.31876l-0.01137,0.36282c0.00608,0.12529 -0.03897,0.78923 -0.13516,1.99182c-0.07972,0.14878 -0.1222,0.86573 -0.12743,2.15086l0.08703,1.79265c0.01264,0.26023 0.04936,0.51928 0.11019,0.77716c0.03519,0.32675 0.08567,0.57065 0.15146,0.73169c0.00842,0.17348 0.07393,0.52774 0.19651,1.06279c-0.28979,0.79659 -0.74791,1.21008 -1.37438,1.2405c-0.62646,0.03041 -1.18659,-0.16459 -1.68037,-0.585l-0.35707,-0.48985c-0.06485,-0.14176 -0.1129,-0.23604 -0.14415,-0.28282c-0.03172,-0.05642 -0.05932,-0.12754 -0.08281,-0.21335c-0.10948,-0.26518 -0.18467,-0.42094 -0.22556,-0.46725c-0.17507,-0.22336 -0.26542,-0.39286 -0.27103,-0.50851c-0.00561,-0.11566 -0.0103,-0.21203 -0.01403,-0.28914c-0.04062,-0.23954 -0.06761,-0.39763 -0.08099,-0.47427c-0.13044,-0.09993 -0.21134,-0.47278 -0.24269,-1.11852c-0.01133,-0.83027 -0.05245,-1.37893 -0.12339,-1.64599c0.26023,-0.01264 0.27145,-0.27884 0.03368,-0.79864l0.04562,-0.55287c-0.00375,-0.07711 0.09633,-0.30416 0.30022,-0.68116c-0.2024,0.00983 -0.30262,-0.16403 -0.30065,-0.52157c0.01113,-0.36764 0.0327,-0.61987 0.0647,-0.75667c0.01179,-0.15514 0.01066,-0.37729 -0.00337,-0.66643zM109.87646,17.86653l0.04927,0.41785c0.00187,0.03855 0.07486,0.54702 0.21897,1.52541l0.01614,0.33251c0.01778,0.36625 0.11332,0.94125 0.28663,1.725c0.0145,0.29877 0.15061,0.81385 0.40831,1.5452c0.16479,0.01133 0.29484,0.20305 0.3902,0.57518l-0.00393,0.21755c0.07869,0.22803 0.00496,0.40068 -0.2212,0.51793c0.09349,0.33359 -0.08627,0.51138 -0.53925,0.53337c-0.44334,0.02152 -0.72168,0.05919 -0.83499,0.113c-0.10368,0.05334 -0.25246,-0.02639 -0.44634,-0.23916c-0.07738,0.19697 -0.33349,0.19491 -0.76832,-0.00617c-0.30158,-0.04332 -0.53542,-0.28315 -0.70151,-0.71948l-0.25728,-0.52368c-0.01264,-0.26023 -0.10649,-0.50202 -0.28156,-0.72537c-0.00608,-0.12529 0.01006,-0.29031 0.04842,-0.49504c0.03837,-0.20474 0.09975,-0.33331 0.18415,-0.38571c0.16179,0.74567 0.09574,1.27539 -0.19818,1.58914c0.09282,0.12108 0.06634,0.27211 -0.07944,0.45308l-0.4796,0.26964c0.2287,0.1338 0.24193,0.30705 0.03972,0.51975c-0.13736,0.35445 -0.49036,0.54549 -1.059,0.57309c-0.36625,0.01778 -0.78488,-0.04884 -1.25593,-0.19986c-0.11612,-0.00402 -0.32639,-0.05661 -0.63077,-0.15776c-0.09544,0.02396 -0.25316,-0.04084 -0.47315,-0.19439c-0.21082,-0.16366 -0.37949,-0.15547 -0.50599,0.02457c-0.13091,-0.10958 -0.29096,-0.22256 -0.48017,-0.33896l-0.48508,-0.44017c-0.08132,-0.08299 -0.16109,-0.23369 -0.23932,-0.45209c-0.06906,-0.2285 -0.10041,-0.37673 -0.09404,-0.44466c0.016,-0.0684 0.01156,-0.15996 -0.01333,-0.27468c-0.01526,-0.11519 -0.00687,-0.24118 0.02512,-0.37799c-0.01544,-0.31805 0.08407,-0.65618 0.29854,-1.01437c-0.18312,0.00889 -0.27796,-0.05413 -0.28451,-0.18906c-0.00655,-0.13494 0.04014,-0.26762 0.14008,-0.39805c-0.05923,-0.0261 -0.09096,-0.08253 -0.09516,-0.16927l0.08308,-0.97493c-0.01123,-0.23131 -0.01437,-0.39539 -0.00941,-0.49224l-0.02105,-0.43371c0.01647,-0.05876 0.02283,-0.12669 0.01909,-0.2038l0.07255,-1.19179c-0.00936,-0.19276 -0.01039,-0.31347 -0.00309,-0.36212l-0.01966,-0.4048c0.24282,0.02685 0.25765,-0.06564 0.0445,-0.27749l0.22092,-0.82222l0.15875,-0.31201c0.03977,-0.17583 0.19612,-0.33798 0.46907,-0.48649c0.31786,-0.21831 0.78039,-0.3422 1.38758,-0.37168c0.30065,0.02404 0.52228,0.21133 0.66488,0.56185c0.03462,-0.28184 0.21447,-0.3582 0.53954,-0.22907c0.64004,0.24908 0.77624,0.86559 0.4086,1.8495c-0.25254,0.36971 -0.27094,0.58796 -0.05516,0.65478c-0.06091,0.13821 -0.09044,0.22659 -0.08856,0.26513c-0.07111,0.52513 -0.2664,0.78095 -0.58586,0.76749c1.02339,-1.60506 1.16122,-1.45234 0.4135,0.45813l-0.05839,0.88679c-0.08824,0.37139 -0.11079,0.80238 -0.06764,1.29298l-0.17531,0.26935c0.07897,0.03481 0.01286,0.26504 -0.19832,0.69071c0.23037,-0.0305 0.34978,0.04098 0.3582,0.21447l0.02569,0.23061c-0.23131,0.01123 -0.33826,-0.0029 -0.32086,-0.04239c0.02657,-0.04959 0.06714,-0.10953 0.12168,-0.1798c0.05408,-0.07991 0.0763,-0.11963 0.06667,-0.11917c0.13615,-0.1805 0.23187,-0.39769 0.28717,-0.65155c0.0553,-0.25386 0.08131,-0.41452 0.07803,-0.48199c0.27051,-0.79565 0.43258,-1.23825 0.48619,-1.32779c0.04735,-0.41771 0.21353,-0.87499 0.49854,-1.37187c-0.16525,-0.02096 -0.22808,-0.22078 -0.18851,-0.59947l0.26513,-1.40401c0.115,-0.21811 0.17132,-0.35127 0.16899,-0.39946c-0.00281,-0.05783 0.11654,-0.28582 0.35805,-0.68396c-0.06158,-0.0743 -0.03168,-0.25447 0.08968,-0.54052c0.16039,-0.27828 0.46098,-0.55371 0.9018,-0.82629l0.18794,-0.00913c0.4222,-0.05914 0.87481,0.01066 1.35783,0.2094c0.11818,0.24544 0.18219,0.46935 0.19201,0.67175c0.03593,0.14316 0.08441,0.44513 0.14542,0.90588l0.01544,0.31805l-0.06428,0.46683c0.15552,0.41752 0.18622,0.85076 0.09208,1.29972zM112.2588,22.1851c-0.00655,-0.13494 -0.00309,-0.36212 0.01038,-0.68158c-0.13418,-0.17704 -0.22046,-0.66071 -0.25883,-1.45102c-0.10725,-1.811 -0.1175,-2.7186 -0.03076,-2.72281c0.09637,-0.00468 0.07594,-0.02783 -0.06134,-0.06948c-0.1281,-0.05175 -0.19683,-0.17399 -0.20619,-0.36676l-0.01123,-0.23131c-0.10752,-0.62273 -0.09213,-1.10167 0.04616,-1.43685c0.03462,-0.28184 0.15996,-0.48597 0.37601,-0.61239c0.16178,-0.24937 0.40653,-0.38201 0.73421,-0.39792c0.33733,-0.01638 0.54525,-0.01198 0.62375,0.01319c0.26425,-0.12875 0.50094,-0.02915 0.71008,0.29881c-0.01441,0.30018 0.0292,0.30289 0.13081,0.00814l0.12267,0.13896c0.16245,-0.03687 0.30958,0.00912 0.44143,0.13797c0.14102,0.11874 0.23759,0.31692 0.2897,0.59455l0.32284,2.17247l0.01966,0.4048c0.04791,0.19089 0.07538,0.35862 0.08239,0.50319l-0.31019,1.0729l-0.1005,0.01937c-0.19454,-0.42529 -0.23548,-0.77108 -0.12282,-1.03739c0.11219,-0.27594 0.17581,-0.45776 0.19089,-0.54543c0.01862,-0.21344 0.08683,-0.40031 0.20464,-0.56059c0.04351,-0.09872 0.0627,-0.20108 0.05754,-0.30711c-0.00561,-0.11566 0.07846,-0.27431 0.25222,-0.47596c0.12819,-0.34435 0.25096,-0.60149 0.36829,-0.77141l0.06386,-0.177c0.06232,-0.10929 0.11477,-0.22294 0.15734,-0.34093c0.21326,-0.18425 0.36044,-0.3363 0.44156,-0.45617l0.36185,-0.30739c0.12922,0.27388 0.15472,0.30163 0.0765,0.08323c-0.07869,-0.22803 0.18003,-0.37101 0.77618,-0.42894c0.3538,-0.07514 0.65258,-0.08965 0.89633,-0.04352c0.22168,-0.01077 0.40231,0.02877 0.54192,0.1186l0.09096,0.08253l0.13151,0.0226c0.47432,0.21849 0.78297,0.70586 0.92595,1.4621c0.05335,1.09873 0.12676,1.81488 0.22023,2.14846c0.16057,0.91962 0.38277,1.7155 0.66658,2.38764c0.28335,0.66249 0.54099,1.09437 0.77296,1.29565c0.51232,0.60307 0.63592,1.25882 0.37084,1.96726c-0.22036,0.43577 -0.50837,0.67195 -0.86405,0.70854c-0.34603,0.03613 -0.57276,0.0423 -0.68018,0.01854c-0.18312,0.00889 -0.28371,-0.07318 -0.30177,-0.24619c-0.24993,0.22467 -0.46102,0.25424 -0.6333,0.08871c-0.2024,0.00983 -0.39736,-0.12562 -0.58488,-0.40633c-0.61571,-0.74296 -0.9762,-1.20366 -1.08147,-1.3821c-0.0961,-0.18855 -0.17494,-0.31997 -0.23651,-0.39426c-0.05193,-0.07477 -0.08894,-0.14059 -0.11102,-0.19749c-0.02255,-0.06652 -0.06073,-0.15645 -0.11454,-0.26977c-0.02442,-0.10509 -0.09291,-0.22251 -0.20548,-0.3523c-0.10293,-0.13025 -0.11865,-0.25508 -0.04717,-0.37448c-0.118,-0.04257 -0.13737,-0.14307 -0.05811,-0.30149c-0.21203,0.0103 -0.23164,-0.09502 -0.05882,-0.31595c-0.22803,0.07869 -0.38538,-0.07789 -0.47202,-0.46977l0.31468,-0.68187l0.02891,-0.00141c-0.4469,1.14233 -0.69363,2.32809 -0.74023,3.55725c-0.03088,0.35894 -0.0662,0.62633 -0.10597,0.80215c-0.07711,0.00375 -0.02446,0.09297 0.1579,0.26766l0.01333,0.27468c0.0103,0.21203 -0.16384,0.50548 -0.52241,0.88033c-0.31665,0.04435 -0.50389,0.06794 -0.56172,0.07074l-0.27468,0.01333c-0.0103,-0.21203 -0.03322,-0.18677 -0.06878,0.07579c-0.09637,0.00468 -0.19159,0.03345 -0.28563,0.08632c-0.09357,0.0625 -0.24848,0.05554 -0.46473,-0.02091c-0.30982,-0.01394 -0.49917,-0.03373 -0.56803,-0.05936c-0.05923,-0.0261 -0.16183,-0.05011 -0.30781,-0.072c-0.14644,-0.03153 -0.19612,-0.15954 -0.14906,-0.38402c-0.24217,0.18564 -0.40788,0.15505 -0.49715,-0.09179c-0.49471,-0.4397 -0.75284,-0.88122 -0.77436,-1.32456l-0.00772,-0.15902l-0.02498,-0.21616c0.00852,-0.22262 -0.02105,-0.43371 -0.08871,-0.6333zM121.86083,14.56037c-0.0218,-0.25012 -0.05175,-0.36942 -0.08983,-0.35792c-0.12689,-0.2257 -0.11697,-0.41939 0.02975,-0.58108c0.1559,-0.1718 0.05362,-0.08955 -0.30682,0.24675c0.05287,-0.90101 0.26045,-1.50039 0.62276,-1.79813c0.37148,-0.30786 0.88842,-0.40541 1.55082,-0.29266l0.79471,0.25123l0.67344,0.1412l0.37334,-1.26435c0.11407,-0.23739 0.17381,-0.39969 0.17924,-0.4869c0.00543,-0.08721 0.03355,-0.20451 0.08435,-0.35188c0.06494,-0.25433 0.12374,-0.43591 0.17643,-0.54473l0.08225,-0.39525c0.17358,-0.40451 0.49897,-0.66666 0.97619,-0.78643c0.31244,-0.1311 0.57725,-0.14879 0.79443,-0.05306c0.53149,0.00318 1.00791,0.26504 1.42927,0.78557c0.01123,0.23131 -0.00739,0.44475 -0.05586,0.64031c-0.03884,0.1951 -0.07051,0.43815 -0.09502,0.72916l-0.80269,2.27059l-0.032,-0.36072l0.67807,-0.0619c0.09731,0.0146 0.15561,0.02143 0.17489,0.02049c0.33359,-0.09349 0.60088,-0.15959 0.80187,-0.19834c0.20099,-0.03874 0.36391,-0.06598 0.48873,-0.08169c0.0583,0.00683 0.21708,-0.00571 0.47637,-0.03762c0.26892,-0.03238 0.59236,0.06302 0.9703,0.28618c0.38711,0.21306 0.59073,0.52681 0.61085,0.94124c0.02013,0.41443 -0.17648,0.74278 -0.58978,0.98504l-0.22962,0.34444c-0.31244,0.1311 -0.55236,0.26351 -0.71975,0.39722c-0.28165,0.16825 -1.15276,0.43273 -2.61332,0.79346l-0.064,0.77113c0.02208,0.05689 0.0364,0.1528 0.04295,0.28773c-0.08056,0.72846 -0.13941,1.60561 -0.17656,2.63144c0.0366,0.35566 0.05839,0.60579 0.06542,0.75036l0.04001,0.82404c-0.23319,-0.02732 -0.24024,0.02615 -0.02119,0.16043c0.01872,0.38551 0.08937,0.8458 0.21195,1.38084c0.13222,0.53458 0.20642,0.8691 0.22262,1.00357c0.02536,0.12435 0.04225,0.27328 0.05067,0.44676c0.00505,0.50211 -0.22868,0.86124 -0.70123,1.07739c-0.66502,0.03229 -1.19978,-0.03835 -1.6043,-0.21193c-0.63162,-0.0756 -0.78625,-0.2758 -0.46389,-0.60059c-0.2257,0.12689 -0.46333,0.00801 -0.71288,-0.35664c0.29812,-0.227 0.38651,-0.19749 0.26513,0.08856c-0.31497,-0.11995 -0.32854,-0.39946 -0.04071,-0.8385c-0.29906,0.20774 -0.46959,0.17736 -0.51161,-0.09109l-0.15258,-0.45631c-0.2155,-0.26003 -0.29546,-0.6136 -0.23988,-1.06069c0.09778,0.02424 0.06793,0.00636 -0.08955,-0.05362l-0.01544,-0.31805c-0.00842,-0.17348 0.01052,-0.28067 0.05684,-0.32156c-0.12754,-0.4382 -0.1588,-0.98251 -0.09377,-1.63293c0.06456,-0.66006 0.10157,-1.09175 0.11101,-1.29509c-0.05568,-0.15187 -0.03977,-0.3217 0.04771,-0.5095c-0.00514,-0.10602 0.02287,-0.32475 0.08407,-0.65618l0.46149,-1.23964c-0.00805,0.23225 -0.05544,0.35047 -0.14218,0.35469c-1.08104,-0.17937 -1.61179,-0.36613 -1.59223,-0.5603l-0.16927,0.09516c-0.11566,0.00561 -0.32685,-0.06625 -0.63358,-0.21559c-0.3072,-0.15898 -0.53,-0.37035 -0.66839,-0.63414zM132.64297,7.13918c0.09404,-0.05287 0.31337,-0.11182 0.658,-0.17686c0.60251,-0.12586 1.04385,-0.08932 1.324,0.10961c0.28932,0.18883 0.52294,0.42383 0.70081,0.70501c0.06026,0.64433 0.02059,1.41912 -0.119,2.32434c-0.17338,0.60738 -0.32993,1.06421 -0.46963,1.37046l-0.21517,0.34374c-0.04941,0.17629 -0.19378,0.38618 -0.43314,0.62965c-0.23936,0.24347 -0.45588,0.36026 -0.64958,0.35034c-0.18452,-0.02002 -0.39572,-0.09188 -0.63358,-0.21559c-0.2287,-0.1338 -0.41448,-0.27936 -0.55737,-0.43665c-0.02489,-0.11472 -0.04838,-0.20052 -0.07046,-0.25741l-0.12015,-0.38542l-0.49069,-0.55582c-0.15907,-0.29176 -0.24493,-0.56775 -0.25756,-0.82797c-0.08544,-0.56583 0.05993,-0.95448 0.43609,-1.16596c-0.21484,-0.04753 -0.29733,-0.15462 -0.24745,-0.32128c0.09273,-0.47787 0.47435,-0.9746 1.14489,-1.4902zM132.2186,18.69462c-0.00889,-0.18312 0.00514,-0.3915 0.0421,-0.62516c0.04613,-0.24376 0.05769,-0.40371 0.03467,-0.47989c-0.02302,-0.07617 -0.03822,-0.3894 -0.04563,-0.9397c0.03059,-0.16571 0.03252,-0.32521 0.00575,-0.47848c-0.16609,-0.43632 -0.21644,-0.77684 -0.15103,-1.02153c0.07457,-0.2548 0.20675,-0.51722 0.3965,-0.78728c0.19893,-0.28016 0.44017,-0.48508 0.72368,-0.61477c0.29269,-0.13979 0.70759,-0.15028 1.2447,-0.03145c0.19744,0.08702 0.43881,0.28301 0.72411,0.58795c0.11117,0.10087 0.21971,0.34677 0.32564,0.73772c0.10546,0.38131 0.17765,0.77389 0.21658,1.17774c0.0481,0.39376 0.0998,0.96122 0.1551,1.70241c0.05484,0.73154 0.1363,1.71298 0.24438,2.9443c0.10808,1.23131 0.15703,2.04044 0.14683,2.42736c-0.01066,0.37729 -0.18293,0.70928 -0.51679,0.99599c-0.32376,0.29588 -0.59517,0.37668 -0.81421,0.2424c-0.21858,-0.12464 -0.35703,-0.19037 -0.41533,-0.1972c-0.37588,0.01825 -0.65875,-0.13708 -0.84861,-0.46598c-0.07289,0.09049 -0.28268,0.04753 -0.62936,-0.12884c-0.33705,-0.17685 -0.55559,-0.49953 -0.65562,-0.96805c-0.11584,-0.19725 -0.17859,-0.79316 -0.18823,-1.78775l-0.04422,-0.91078l0.07495,-0.84412zM137.5857,10.07273l0.1026,-1.46857l-0.00689,-0.73871c-0.01497,-0.30842 0.04009,-0.5671 0.16519,-0.77604l0.26948,-0.41883c0.50997,-0.44017 0.8645,-0.6989 1.06363,-0.77619c0.20829,-0.0874 0.48779,-0.10097 0.8385,-0.04071c0.36035,0.05979 0.5961,0.14012 0.70727,0.24099l0.21082,0.16366c0.3072,0.15898 0.46712,0.36858 0.47974,0.6288c0.15393,0.18574 0.1601,0.41246 0.01854,0.68018c-0.05455,0.07027 -0.14643,0.96351 -0.27564,2.67973l-0.03886,3.37829l-0.08407,0.65618c0.00702,0.14457 0.01629,0.2359 0.02779,0.27398l0.02457,0.50599c-0.01796,0.42594 -0.03999,0.66852 -0.06611,0.72776c0.00281,0.05783 -0.13966,0.10822 -0.42739,0.15117c0.28492,-0.10078 0.43605,0.02713 0.45336,0.38373c0.01731,0.3566 -0.07523,0.53982 -0.27763,0.54965c0.13512,0.19632 0.20783,0.40049 0.21812,0.61252c0.0103,0.21203 0.04104,0.44722 0.09222,0.70559c0.05119,0.25835 0.07828,0.51787 0.08127,0.77857l0.14612,0.92033l0.01755,0.36142c0.04342,0.29737 0.06957,0.53762 0.07846,0.72074l0.19047,1.23697l0.11833,0.64635c0.07514,0.3538 0.05919,0.72168 -0.04786,1.10364c-0.10658,0.39159 -0.32067,0.65801 -0.64228,0.7992c-0.68036,0.3132 -1.36616,0.21607 -2.05737,-0.29137l-0.26023,0.01264c-0.28483,-0.29531 -0.45051,-0.52395 -0.49702,-0.68593c-0.20707,-0.08656 -0.30636,-0.24113 -0.29785,-0.46374c0.00852,-0.22262 -0.02882,-0.39469 -0.11201,-0.51623c-0.08319,-0.12155 -0.12946,-0.2787 -0.13882,-0.47146c-0.00889,-0.18312 -0.03223,-0.36555 -0.07004,-0.54726l0.31174,-0.14556c-0.24825,0.06036 -0.37799,-0.02512 -0.38921,-0.25644l-0.06513,-0.44606l-0.01123,-0.23131c-0.00468,-0.09637 -0.01876,-0.18747 -0.04225,-0.27328c-0.01385,-0.08627 0.10312,-0.16441 0.3509,-0.2344c-0.24919,0.04108 -0.36302,-0.21423 -0.3415,-0.76593c0.03602,-1.24797 0.04232,-2.11291 0.01893,-2.59481l0.00013,-0.59414l-0.03369,-0.69393c-0.01001,-0.40526 -0.02658,-0.94545 -0.0497,-1.62058c-0.02359,-0.68476 0.08627,-1.00889 0.32955,-0.9724l-0.32367,-0.10022c-0.02152,-0.44334 0.01375,-1.0102 0.10582,-1.70059c0.09207,-0.69038 0.13717,-1.05485 0.1353,-1.09339zM153.36551,7.33585c-0.02507,0.67746 -0.03293,1.11257 -0.02358,1.30533c0.00936,0.19276 0.00792,0.36189 -0.00435,0.50739l0.03158,0.65056l-0.02049,0.17489l0.02316,0.47708c0.00749,0.1542 -0.0996,0.23669 -0.32128,0.24745l0.58473,-0.4921c0.07711,-0.00375 0.321,-0.05422 0.73169,-0.15146c0.41022,-0.10686 0.8276,-0.16576 1.25214,-0.17672c0.43371,-0.02105 0.76243,0.08375 0.98616,0.3144c0.22373,0.23066 0.34379,0.51464 0.36017,0.85198c0.07374,0.32489 -0.00285,0.63775 -0.22976,0.93858l-0.08113,0.11986c-0.16768,0.32694 -0.45134,0.55324 -0.85099,0.67892l-0.8618,0.15777l-1.04272,0.31147l-0.28353,0.12969c0.00795,0.16385 0.04314,0.4906 0.10555,0.98026c0.07206,0.48919 0.11323,0.83981 0.12352,1.05185l0.11439,0.8639c0.27165,1.41659 0.61099,2.83473 1.01804,4.2544c0.10339,0.13989 0.23155,0.49111 0.38445,1.05367l0.22837,0.52507c0.16338,0.97745 -0.32356,1.49379 -1.46084,1.549c-0.1542,0.00749 -0.50281,-0.0094 -1.04581,-0.05067c-0.27173,-0.02545 -0.65014,-0.25826 -1.13522,-0.69841c0.25368,-0.14757 0.18705,-0.22644 -0.19987,-0.23665l-0.54909,-1.1616c-0.05193,-0.07477 -0.10256,-0.22204 -0.15187,-0.44185c-0.19201,-0.17423 -0.37902,-0.64336 -0.56102,-1.40737c-0.00141,-0.02891 -0.01961,-0.10532 -0.0546,-0.2292l-0.00983,-0.2024c-0.1107,-0.09123 -0.209,-0.42458 -0.2949,-1.00005c-0.08637,-0.5851 -0.17017,-1.1172 -0.2514,-1.5963c-0.03088,-0.63611 -0.11336,-1.24072 -0.24747,-1.81385l-0.07215,-0.59063l-0.01264,-0.26023c0.33124,-0.14167 0.50458,-0.05348 0.52003,0.26457l-0.26023,0.01264c-0.2781,0.04248 -0.50941,0.05371 -0.69393,0.03369c-0.87705,0.04258 -1.52743,-0.22049 -1.95113,-0.78922c-0.36278,-0.70694 -0.38594,-1.18401 -0.06949,-1.43124c0.31646,-0.24722 0.87574,-0.46759 1.67784,-0.6611c0.27951,-0.01357 0.52774,-0.07393 0.74475,-0.18107c-0.01497,-0.30842 0.04407,-0.48517 0.17713,-0.53028c-0.04717,-0.37448 -0.04441,-0.61612 0.00828,-0.72495c0.05222,-0.11847 0.08244,-0.19239 0.09067,-0.22177c-0.01095,-0.42453 0.10367,-1.04839 0.34387,-1.87154c0.08637,-0.40994 0.1827,-0.7141 0.289,-0.91248c0.3231,-0.50838 0.93174,-0.70699 1.82592,-0.59583c0.40806,0.04781 0.60242,0.27023 0.58306,0.66726c0.39197,-0.48274 0.57083,-0.38033 0.53659,0.30724zM166.29917,20.47435l0.00548,0.70979c0.01077,0.22168 0.03893,0.40386 0.0845,0.54655c0.05474,0.13259 0.08609,0.28081 0.09404,0.44466c0.03603,0.74212 -0.59502,0.77759 -1.89316,0.1064c0.0131,0.26986 -0.09212,0.3909 -0.31566,0.36311c-0.2139,-0.02826 -0.35094,-0.06508 -0.41111,-0.11046c-0.06017,-0.04538 -0.09507,-0.06784 -0.10471,-0.06737c-0.47881,-0.112 -0.71957,-0.39496 -0.72229,-0.84888c-0.00047,-0.00963 -0.02736,-0.0663 -0.0807,-0.16997c-0.05334,-0.10368 -0.08033,-0.26177 -0.08099,-0.47427c-0.00065,-0.2125 -0.02938,-0.50575 -0.08618,-0.87976c-0.05727,-0.38364 -0.06873,-0.61978 -0.03439,-0.70839c0.0888,-0.75784 0.16014,-1.27815 0.21404,-1.56093c0.10573,-0.80696 0.0952,-1.52135 -0.0316,-2.14314c-0.11715,-0.62226 -0.28681,-0.93282 -0.50894,-0.93169c-0.19276,0.00936 -0.38214,0.18761 -0.56816,0.53477c-0.42781,0.93854 -0.58298,2.61736 -0.46554,5.03649c0.01778,0.36625 0.08422,0.73979 0.19931,1.12062c0.12473,0.38037 0.17882,0.79798 0.16226,1.25284c-0.01656,0.45485 -0.35875,0.66951 -1.02658,0.64397c-0.65819,-0.02601 -1.07754,-0.10709 -1.25804,-0.24324l-0.14807,-0.06526c-0.36625,0.01778 -0.62184,-0.17268 -0.76679,-0.57139c0,0 -0.04547,-0.04127 -0.13643,-0.12379l-0.47624,-0.55651c-0.23384,-0.23983 -0.33205,-0.47174 -0.29462,-0.69576l-0.01755,-0.36142l0.0007,0.01446c-0.14195,-0.13802 -0.2083,-0.41012 -0.19904,-0.81632c0.00879,-0.41583 0.05314,-1.09424 0.13305,-2.0352c0.12229,-1.26182 0.16776,-2.21561 0.13641,-2.86135c-0.07617,-0.97203 0.06694,-1.30744 0.42935,-1.00623l-0.36902,-2.22819l-0.04282,-0.88187c-0.05288,-1.08909 0.02894,-2.18955 0.24546,-3.30137c0.09479,-0.23645 0.1557,-0.37467 0.18274,-0.41462c0.03621,-0.05006 0.04973,-0.07004 0.04056,-0.05994c0.0015,-0.36718 0.23379,-0.55718 0.69688,-0.57l-0.73252,0.73113c0.23102,-0.81306 0.46762,-1.3124 0.70978,-1.49805c0.41331,-0.24226 1.01226,-0.24236 1.79687,-0.00029c0.1194,0.07149 0.19379,0.11135 0.22317,0.11959c0.04913,0.01694 0.13633,0.02237 0.26163,0.01628c0.59746,0.36708 0.81764,0.7235 0.66053,1.06924c0.08908,0.04398 0.07374,0.32489 -0.04603,0.84271c-0.03229,0.33003 -0.04632,0.53842 -0.0421,0.62516c-0.2998,1.38637 -0.58195,2.73807 -0.84647,4.0551c-0.12502,-0.18714 -0.0226,-0.36601 0.30724,-0.53659c0.69964,-0.31412 1.27642,-0.47255 1.73033,-0.47526c1.38244,0.01983 2.36397,0.53732 2.94459,1.55249c0.52027,0.76692 0.75238,1.86663 0.69634,3.29912c-0.00524,0.29008 -0.08841,1.6611 -0.24953,4.11306zM172.77464,13.71147l-0.01333,-0.27468c0.31057,-0.16964 0.43984,-0.09381 0.38781,0.22752l-0.14738,-0.05081c-0.11566,0.00561 -0.18616,-0.05376 -0.21152,-0.17812c0.08178,0.09264 0.10869,0.14929 0.0807,0.16997c-0.1587,0.11398 -0.2598,0.22032 -0.30332,0.31904l-0.48297,1.09578c-0.19004,0.46328 -0.28254,0.94597 -0.27748,1.44808c0,0 0.02292,-0.02527 0.06878,-0.07579c0.08346,-0.07168 0.13849,-0.13231 0.16506,-0.18191c0.04071,-0.15655 0.10209,-0.28512 0.18415,-0.38571c0.09123,-0.1107 0.17062,-0.36573 0.23819,-0.76509c0.23234,-0.38804 0.33611,-0.83747 0.31131,-1.34828zM175.98647,13.90332l0.01403,0.28914c0.02443,1.10013 -0.25024,2.10851 -0.82403,3.02515c-0.08983,0.13961 -0.21704,0.30519 -0.38163,0.49673l-0.50893,0.56087c-0.14672,0.16169 -0.34692,0.31632 -0.60059,0.46389l-0.84103,0.28718c-0.06859,-0.21887 -0.15285,-0.26308 -0.25279,-0.13263c-0.26472,0.11912 -0.45579,-0.03584 -0.57323,-0.46486c-0.05389,0.28278 -0.1644,0.39441 -0.33153,0.3349c-0.15748,-0.05998 -0.21059,-0.15884 -0.15931,-0.29657c0.15561,0.02143 0.24044,0.17671 0.25447,0.46585l0.32381,0.99865c0.12642,0.21606 0.23416,0.34608 0.32325,0.39006c0.09872,0.04351 0.21096,0.06705 0.33672,0.0706c0.12576,0.00355 0.22144,-0.01558 0.28703,-0.05741c0.07523,-0.04229 0.24544,-0.11818 0.51062,-0.22767l0.45139,-0.25377c0.56237,-0.35577 1.06775,-0.29336 1.51615,0.18723c0.23431,0.24946 0.3459,0.55801 0.33476,0.92566c-0.0116,0.35801 -0.11734,0.66745 -0.31721,0.92833c-0.13053,0.29616 -0.47792,0.60284 -1.04215,0.92005c-0.08974,-0.25648 -0.13241,-0.23992 -0.12801,0.04969c-0.82801,0.45561 -1.77455,0.55953 -2.83959,0.31175l-0.39343,-0.34318c-0.14859,0.12314 -0.24179,0.09385 -0.2796,-0.08786c-0.2097,0.05848 -0.46014,-0.02596 -0.75135,-0.25334c-0.29073,-0.21775 -0.49262,-0.39632 -0.60565,-0.53575c-0.11351,-0.14906 -0.19094,-0.25157 -0.2323,-0.30752c-0.04136,-0.05595 -0.10985,-0.17339 -0.20548,-0.3523c-0.32592,-0.54449 -0.57379,-1.07346 -0.74363,-1.58688l-0.217,-0.88791c0.03387,-0.09825 0.04037,-0.2628 0.0195,-0.49365l-0.01333,-0.27468c-0.19903,-0.3188 -0.14116,-1.01717 0.17361,-2.09514c0.2168,-1.30506 0.41549,-2.08755 0.59609,-2.3475l0.61645,-0.43568c-0.26631,-0.11266 -0.28119,-0.31964 -0.04464,-0.62094c0.05222,-0.11847 0.25031,-0.31646 0.59428,-0.594c0.0976,-0.17863 0.25265,-0.26827 0.46515,-0.26893c0.016,-0.0684 0.09488,-0.13503 0.23665,-0.19987c0.15635,-0.16216 0.4025,-0.26589 0.73842,-0.31118c0.27529,-0.10031 0.69796,-0.14982 1.268,-0.14851c1.3742,0.04921 2.34773,0.60091 2.92059,1.65509l0.23468,0.65519c0.00281,0.05783 0.04744,0.18124 0.13391,0.37027c-0.2184,0.07823 -0.23945,0.14204 -0.06316,0.19145zM183.49993,10.3795l0.15299,0.16647c0.2417,-0.19529 0.64533,-0.23903 1.21087,-0.13124c0.41041,0.096 0.66708,0.70665 0.77002,1.83196c0.09105,0.68149 0.11833,1.14388 0.08183,1.38717c-0.02732,0.23319 0.01273,0.36165 0.12015,0.38542l-0.26835,1.63602l-0.05151,0.13292c-0.31946,-0.01347 -0.46506,-0.12717 -0.4368,-0.34107c0.06288,-0.49574 0.15359,-0.91556 0.27215,-1.25944c0.11612,0.00402 0.15256,-0.04122 0.10934,-0.13573c-0.0437,-0.10415 -0.02087,-0.23084 0.06849,-0.38009c0.07532,-0.43838 0.29666,-1.05292 0.66402,-1.84361c0.13783,-0.34482 0.29681,-0.65202 0.47693,-0.9216c0.18013,-0.26959 0.46987,-0.3706 0.86924,-0.30304c0.40853,0.05745 0.69295,0.14508 0.85324,0.26288c0.04819,-0.00234 0.17442,0.01086 0.37869,0.03958l0.70165,0.12534c0.14551,0.01225 0.33836,0.10433 0.57855,0.27622c0.23973,0.16225 0.3457,0.35515 0.31791,0.5787c-0.01862,0.21344 -0.01777,0.62881 0.00254,1.2461l0.02036,0.41925l-0.05417,0.97353c-0.1164,0.18921 -0.16225,0.23973 -0.13755,0.15159l-0.26416,0.23019l-0.2956,-1.01451c-0.01077,-0.22168 0.0524,-0.41313 0.18948,-0.57435l0.35132,-0.52424c-0.10106,-0.0917 -0.09844,-0.23674 0.00786,-0.43511c0.0233,-0.11706 0.10115,-0.30439 0.23355,-0.56199c0.14204,-0.25808 0.27244,-0.45761 0.39118,-0.59863c-0.01403,-0.28914 0.2132,-0.48372 0.68171,-0.58376c0.30214,-0.34313 0.79298,-0.38145 1.4725,-0.11497c0.09637,-0.00468 0.32615,0.05179 0.6893,0.16941c-0.29719,0.24628 -0.35244,0.3021 -0.16576,0.16744c0.18667,-0.13465 0.46744,-0.02269 0.84229,0.33588l0.02316,0.47708c0.00702,0.14457 0.01793,0.26962 0.0327,0.37518c-0.00449,0.10649 0.01147,0.23613 0.04787,0.38894l0.01544,0.31805c0.02489,0.11472 0.08357,0.52727 0.17602,1.23768l0.00702,0.14457c0.07308,0.11238 0.10373,0.24614 0.09194,0.40128c-0.00215,0.15467 -0.08927,0.25068 -0.26135,0.28802c0.20006,-0.05802 0.33214,0.07565 0.39623,0.40101c0.06364,0.31571 0.06663,0.5764 0.00898,0.78208l0.03593,0.14316l-0.15987,0.5874c0.2125,-0.00065 0.32507,0.12913 0.3377,0.38935l0.09264,0.41574c0.01357,0.27951 0.07098,0.56654 0.17222,0.86109l0.01403,0.28914l0.14724,0.64495l0.01053,0.21685l-0.01698,0.24717c0.01919,0.39515 -0.15565,0.67415 -0.52451,0.83696c0.00047,0.00963 -0.0509,0.04594 -0.15411,0.10892c-0.10321,0.06297 -0.29457,0.10125 -0.57406,0.11482l-0.67554,-0.18456l-0.12267,-0.13896c-0.13213,0.06438 -0.44709,-0.05558 -0.94489,-0.35987c-0.00889,-0.18312 0.00688,-0.25634 0.0473,-0.21966c-0.42145,-0.12444 -0.57393,-0.47932 -0.45743,-1.06461c0.28652,0.131 0.1791,0.10723 -0.32226,-0.0713c0.35566,-0.0366 0.37321,-0.17269 0.05263,-0.4083c-0.00795,-0.16385 -0.02967,-0.31253 -0.06513,-0.44606c-0.02583,-0.134 -0.04661,-0.2634 -0.06232,-0.38824c-0.01619,-0.13447 -0.14799,-0.46136 -0.3954,-0.98068c0.52626,0.29325 0.70559,0.40531 0.538,0.33615c-0.15842,-0.07926 -0.25442,-0.16638 -0.28802,-0.26135l-0.02948,-0.60719l0.28914,-0.01403l0.21643,0.27931c-0.28034,0.59325 -0.38056,0.91692 -0.30064,0.97101l-0.69981,2.59889c-0.07785,0.18733 -0.22293,0.38275 -0.43525,0.58628c-0.20314,0.19341 -0.51194,0.30018 -0.92637,0.32031c0.09245,-0.28465 0.10293,-0.36728 0.03144,-0.24787c-0.07149,0.1194 -0.19692,0.22209 -0.3763,0.30809c-0.91093,0.14083 -1.45622,-0.14667 -1.63588,-0.8625l-0.08801,-0.61884l0.27832,-0.53519c-0.22074,0.03004 -0.33813,-0.09951 -0.35216,-0.38865l-0.0306,-0.33181l-0.05194,-1.06982l-0.1189,-1.25494l0.44703,-1.23895c-0.08635,1.40499 -0.17318,2.30282 -0.26049,2.69348l-0.78206,2.99413c-0.22607,0.71621 -0.67067,1.10973 -1.33382,1.18056l-0.24367,0.0553c-0.59147,0.15431 -1.01728,0.03973 -1.27741,-0.34373l-0.31371,-0.49195c0.04005,-0.36905 -0.02621,-0.53972 -0.19875,-0.51203c-0.0728,-0.30561 -0.17265,-0.57126 -0.29953,-0.79695l-0.19342,-0.70067c-0.00234,-0.04819 -0.02031,-0.11977 -0.0539,-0.21475l-0.01966,-0.4048c-0.05428,-0.12296 -0.11122,-0.40034 -0.17083,-0.83218c-0.05043,-0.44194 -0.07599,-0.76917 -0.07664,-0.98167c-0.06812,-0.20923 -0.09592,-0.4832 -0.08338,-0.82193l-0.01755,-0.36142c-0.10499,-0.37166 -0.17738,-0.96712 -0.21715,-1.78634l-0.01895,-0.39033c0.06288,-0.49574 0.08893,-0.85445 0.07818,-1.07613c-0.01123,-0.23131 0.05193,-0.42276 0.18948,-0.57435c0.13708,-0.16122 0.4767,-0.42889 1.01886,-0.803zM201.10873,13.07487c-0.08571,-0.3726 -0.24352,-0.53883 -0.47343,-0.49869c-0.10602,0.00514 -0.21147,0.12136 -0.31636,0.34865c-0.23683,0.49453 -0.31514,1.16975 -0.23494,2.02566c0.07972,0.84626 0.1668,1.44583 0.26122,1.79869c0.09395,0.34322 0.24821,0.63521 0.46277,0.87597c0.04183,0.0656 0.09648,0.09675 0.16394,0.09347c0.21203,-0.0103 0.38229,-0.28423 0.51075,-0.8218l0.19692,-0.71962c0.23505,0.06587 0.21213,0.09114 -0.06878,0.07579c0.17713,-0.53028 0.26279,-0.95467 0.25699,-1.27319c-0.09965,-0.06279 -0.19295,-0.19351 -0.27988,-0.39216c-0.13203,-0.33171 -0.12717,-0.52999 0.01459,-0.59484c-0.25105,0.00253 -0.393,-0.13549 -0.42585,-0.41405c-0.03332,-0.2882 -0.05596,-0.45616 -0.06794,-0.50389zM196.68971,15.47757l0.03873,-1.29157c0.06539,-1.23974 0.39004,-2.31334 0.97392,-3.22082c0.62571,-0.84188 1.53084,-1.30123 2.71536,-1.37806l0.14457,-0.00702c1.08909,-0.05288 1.90602,0.15864 2.4508,0.63455c0.51989,0.36118 0.91177,0.77206 1.17565,1.23262c0.26387,0.46056 0.43998,0.80463 0.52832,1.03219c0.09798,0.2271 0.16688,0.55221 0.20676,0.97535c0.08581,0.97157 -0.00893,1.5075 -0.28422,1.60781c0.27025,1.38767 0.14997,2.59144 -0.36083,3.61128c-0.14419,0.41275 -0.37807,0.8685 -0.70164,1.36724c-0.30757,0.43034 -0.83607,0.68785 -1.58548,0.77254c-0.62646,0.03041 -1.18734,0.01901 -1.68262,-0.03424c-0.48564,-0.0537 -1.04188,-0.26822 -1.66873,-0.64353c-0.62684,-0.37531 -1.08825,-1.02433 -1.38423,-1.94704c-0.27979,-0.78825 -0.46857,-1.69202 -0.56637,-2.7113zM206.81958,8.50827l1.14561,0.01683c0.16385,-0.00795 0.5176,0.11495 1.06125,0.36871l0.11412,0.55961c0.09704,0.20782 0.1493,0.38884 0.15678,0.54305c0.00702,0.14457 0.0285,0.28844 0.06443,0.4316c0.18537,0.43539 0.34814,1.0023 0.48832,1.70072c0.14982,0.69796 0.25032,1.17611 0.3015,1.43446c0.06082,0.25788 0.12071,0.4965 0.17967,0.71583c0.05895,0.21934 -0.05544,0.35047 -0.34318,0.39343c0.23627,-0.10808 0.38434,-0.04281 0.44424,0.1958c0.05942,0.22897 0.12473,0.38037 0.19594,0.4542l0.7536,2.68772c-0.05904,0.17676 -0.16683,0.24479 -0.32338,0.20408l-0.03734,-0.17208c0.02751,-0.03032 0.06845,-0.18205 0.12281,-0.45518c0.05436,-0.27314 0.07476,-0.54946 0.06119,-0.82896c-0.01357,-0.27951 0.00318,-0.53149 0.05024,-0.75597l0.20154,-2.41529c0.01394,-0.30982 -0.00103,-0.61823 -0.04493,-0.92525l-0.0365,-0.75176l-0.01432,-0.59343l-0.03088,-0.63611c-0.01264,-0.26023 0.05347,-0.49046 0.19832,-0.69071l0.00463,-0.2031c0.05043,-0.5531 0.39758,-0.86461 1.04145,-0.93452c0.59213,0.05819 1.07164,0.18466 1.43854,0.37938c0.25994,0.18059 0.52822,0.43324 0.80483,0.75793l0.02738,0.56382c0.10396,0.74848 0.11978,1.47227 0.04745,2.17135l-0.1134,0.94742c-0.14447,0.60597 -0.21077,1.13087 -0.19888,1.57469c-0.3521,1.90093 -0.52628,2.88994 -0.52253,2.96704c0.01591,0.32769 -0.13718,0.55732 -0.45925,0.68888c0.19603,0.0581 0.25148,0.20516 0.16632,0.44114c-0.03678,0.43652 -0.2539,0.64027 -0.6514,0.61127c0.32367,0.10022 0.40414,0.26537 0.24142,0.49547c-0.15262,0.23927 -0.29311,0.42963 -0.4215,0.57112c-1.17658,0.24067 -1.88535,0.36686 -2.12629,0.37856c-0.23084,0.02087 -0.56298,-0.05478 -0.99641,-0.22695c-0.82877,-0.35585 -1.38235,-0.91344 -1.66074,-1.67278c-0.03546,-0.13353 -0.12899,-0.26907 -0.28057,-0.40662c-0.14242,-0.14765 -0.23207,-0.3027 -0.26893,-0.46515c-0.03687,-0.16245 -0.0721,-0.29115 -0.1057,-0.38613c-0.03406,-0.10462 -0.06789,-0.20441 -0.10148,-0.29938c-0.09891,-0.24638 -0.02892,-0.49612 0.20997,-0.74924c-0.00963,0.00047 -0.10626,0.00032 -0.28984,-0.00042c-0.18405,-0.01039 -0.28184,-0.03462 -0.29335,-0.07271c-0.00234,-0.04819 -0.02583,-0.134 -0.07046,-0.25741c-0.04464,-0.12342 -0.07069,-0.26223 -0.07819,-0.41645c-0.8142,-3.4383 -1.2388,-5.21941 -1.27379,-5.34329c-0.02583,-0.134 -0.04553,-0.34074 -0.05909,-0.62024l-0.02738,-0.56382c-0.01731,-0.3566 0.23191,-0.59573 0.74769,-0.71738l-0.88692,0.53575c0.42659,-0.76459 0.90905,-1.17443 1.44737,-1.22955zM217.21383,3.03322c0.09404,-0.05287 0.31337,-0.11182 0.658,-0.17686c0.60251,-0.12586 1.04385,-0.08932 1.324,0.10961c0.28932,0.18883 0.52294,0.42383 0.70081,0.70501c0.06026,0.64433 0.02059,1.41912 -0.119,2.32434c-0.17338,0.60738 -0.32993,1.06421 -0.46963,1.37046l-0.21517,0.34374c-0.04941,0.17629 -0.19378,0.38618 -0.43314,0.62965c-0.23936,0.24347 -0.45588,0.36026 -0.64958,0.35034c-0.18452,-0.02002 -0.39572,-0.09188 -0.63358,-0.21559c-0.2287,-0.1338 -0.41448,-0.27936 -0.55737,-0.43665c-0.02489,-0.11472 -0.04838,-0.20052 -0.07046,-0.25741l-0.12015,-0.38542l-0.49069,-0.55582c-0.15907,-0.29176 -0.24493,-0.56775 -0.25756,-0.82797c-0.08544,-0.56583 0.05993,-0.95448 0.43609,-1.16596c-0.21484,-0.04753 -0.29733,-0.15462 -0.24745,-0.32128c0.09273,-0.47787 0.47435,-0.9746 1.14489,-1.4902zM216.78946,14.58866c-0.00889,-0.18312 0.00514,-0.3915 0.0421,-0.62516c0.04613,-0.24376 0.05769,-0.40371 0.03467,-0.47989c-0.02302,-0.07617 -0.03822,-0.3894 -0.04563,-0.9397c0.03059,-0.16571 0.03252,-0.32521 0.00575,-0.47848c-0.16609,-0.43632 -0.21644,-0.77684 -0.15103,-1.02153c0.07457,-0.2548 0.20675,-0.51722 0.3965,-0.78728c0.19893,-0.28016 0.44017,-0.48508 0.72368,-0.61477c0.29269,-0.13979 0.70759,-0.15028 1.2447,-0.03145c0.19744,0.08702 0.43881,0.28301 0.72411,0.58795c0.11117,0.10087 0.21971,0.34677 0.32564,0.73772c0.10546,0.38131 0.17765,0.77389 0.21658,1.17774c0.0481,0.39376 0.0998,0.96122 0.1551,1.70241c0.05484,0.73154 0.1363,1.71298 0.24438,2.9443c0.10808,1.23131 0.15703,2.04044 0.14683,2.42736c-0.01066,0.37729 -0.18293,0.70928 -0.51679,0.99599c-0.32376,0.29588 -0.59517,0.37668 -0.81421,0.2424c-0.21858,-0.12464 -0.35703,-0.19037 -0.41533,-0.1972c-0.37588,0.01825 -0.65875,-0.13708 -0.84861,-0.46598c-0.07289,0.09049 -0.28268,0.04753 -0.62936,-0.12884c-0.33705,-0.17685 -0.55559,-0.49953 -0.65562,-0.96805c-0.11584,-0.19725 -0.17859,-0.79316 -0.18823,-1.78775l-0.04422,-0.91078l0.07495,-0.84412zM225.00716,16.03003c-0.19173,-0.36746 -0.21667,-0.78165 -0.07482,-1.2426l0.49504,-1.44415l0.66964,-0.23539c-3.14334,4.10382 -3.26073,3.97427 -0.35216,-0.38865l0.59834,-1.40569c0.13727,0.04164 0.1535,-0.02195 0.0487,-0.19075l0.6688,-1.14828l0.58122,-0.56439c0.0844,-0.0524 0.29648,-0.26075 0.63624,-0.62502c0.03257,0.47179 0.11248,0.52588 0.23973,0.16225c0.23131,-0.01123 0.59896,-0.0001 1.10294,0.03339l0.61702,0.17292l1.23502,0.66459c0.39413,0.35763 0.5774,0.74965 0.54979,1.17606c-0.00945,0.20333 -0.07892,0.76219 -0.20842,1.67658c-0.09984,0.7294 -0.248,1.55775 -0.4445,2.48505c-0.09253,0.68073 -0.10722,1.17415 -0.04407,1.48022c0.06317,0.30608 0.07617,0.47451 0.03903,0.50529c0.0597,0.03575 0.15052,0.21489 0.27244,0.53743c0.12146,0.31291 -0.02901,0.39749 -0.45139,0.25377c0.4018,-0.28034 0.61159,-0.23739 0.62936,0.12884c0.17433,0.40694 0.22832,0.72312 0.16198,0.94854c-0.06681,0.21578 -0.22013,0.44058 -0.45995,0.67442c-0.23983,0.23384 -0.65851,0.36526 -1.25606,0.39428c-0.26163,-0.01628 -0.484,-0.01997 -0.66712,-0.01108c-0.18312,0.00889 -0.44251,-0.06063 -0.77815,-0.20857c-0.63835,-0.4134 -1.00755,-0.85435 -1.10758,-1.32287c-0.09751,-0.21746 -0.1594,-0.39801 -0.1857,-0.54164c-0.02677,-0.15327 -0.04108,-0.24919 -0.04295,-0.28773c-0.12211,-0.52541 -0.14397,-1.075 -0.06556,-1.64879c0.00945,-0.20333 0.07125,-0.62175 0.18541,-1.25523c0.09347,-0.66147 0.19514,-1.15427 0.30498,-1.4784c0.29438,-0.30411 0.4512,-0.45664 0.47047,-0.45757l-0.40773,2.04853c-0.10162,0.29475 -0.20099,0.53627 -0.29812,0.72453c-0.07758,-0.0059 -0.08417,0.05722 -0.01979,0.18934c-0.1559,0.1718 -0.26584,0.3945 -0.32984,0.66811c0.00655,0.13494 -0.00734,0.2467 -0.04168,0.33532c-0.0247,0.08815 -0.08562,0.22635 -0.18274,0.41462c-0.08748,0.1878 -0.15088,0.37443 -0.19019,0.5599c-0.03012,0.17536 -0.18719,0.32306 -0.47118,0.44311c0.15701,0.05034 0.13531,0.39918 -0.06512,1.04651c-0.02498,0.28137 -0.34378,0.48041 -0.9564,0.59709l-0.59554,-0.02905c-0.15655,-0.04071 -0.43544,-0.11411 -0.83668,-0.22022c-0.40077,-0.09647 -0.64453,-0.1426 -0.73127,-0.13839c-0.08674,0.00421 -0.11668,-0.1151 -0.08983,-0.35792c-0.5066,0.11154 -0.82858,-0.15298 -0.96596,-0.79358l-0.02878,-0.59273c0.08346,-0.07168 0.08173,-0.20684 -0.00519,-0.4055c0.02779,-0.22354 0.16899,-0.39946 0.4236,-0.52775c-0.35286,0.09442 -0.48858,-0.01492 -0.40718,-0.32801c0.00646,-0.46403 0.00453,-0.80206 -0.00577,-1.01409l-0.02948,-0.60719c0.01141,-0.56087 0.02623,-1.1509 0.04448,-1.77007c0.01824,-0.61917 0.02338,-1.01067 0.01543,-1.17452l-0.01966,-0.4048c-0.03359,-0.09497 -0.05375,-0.31136 -0.0605,-0.64915c-0.0291,-0.20146 -0.07444,-0.33934 -0.13602,-0.41364c-0.06203,-0.08393 -0.09138,-0.29021 -0.08801,-0.61884l0.23005,-0.63428c0.44484,-0.38871 1.05699,-0.51502 1.83645,-0.37898c0.3305,0.04192 0.8174,0.22116 1.46071,0.5377c0.07261,0.10274 0.08857,0.23238 0.04787,0.38894c0.3115,-0.15038 0.50173,0.08674 0.5707,0.71133c-0.01179,0.15514 -0.01043,0.38211 0.00407,0.68088c-0.32648,-0.15804 -0.40835,0.14541 -0.24562,0.91037c-0.23747,2.27212 -0.35246,3.48529 -0.34498,3.6395c0.00749,0.1542 -0.14181,0.26289 -0.44789,0.32606zM237.12235,13.65944l0.08618,0.87976l0.14766,0.3551l0.30065,0.52157c0.02817,0.18218 0.06658,0.27693 0.11524,0.28422c-0.01975,-0.0087 0.00636,-0.06793 0.07832,-0.17769c0.15729,-0.14289 0.25475,-0.2249 0.29237,-0.24605c0.02208,0.05689 0.01282,-0.03444 -0.02779,-0.27398c-0.04108,-0.24919 -0.04585,-0.44699 -0.01432,-0.59343c-0.01244,-0.05736 -0.01226,-0.35202 0.00056,-0.88398c0.02246,-0.53243 0.04688,-0.92487 0.07326,-1.17732c0.02592,-0.2621 0.03981,-0.37386 0.04168,-0.33532c-0.11257,-0.12978 -0.22251,-0.4046 -0.32985,-0.82446c-0.22233,-0.20173 -0.35301,-0.3065 -0.39202,-0.31426c-0.20399,-0.22195 -0.2504,-0.28249 -0.13923,-0.18162c-0.03621,0.05006 -0.0945,0.54076 -0.17488,1.47209c-0.08019,0.13914 -0.1149,0.31955 -0.10415,0.54123c0.01993,0.21156 0.02835,0.38505 0.02527,0.52045zM241.6729,12.77193c0.1077,0.82559 0.17232,1.46006 0.19385,1.9034l0.04576,0.34556l0.01657,1.53524c0.01123,0.23131 0.01212,0.44863 0.00267,0.65196l0.01895,0.39033l-0.05516,0.65478l0.01053,0.21685c0.03322,0.68429 -0.21993,1.6385 -0.75946,2.86261c-0.20015,0.45411 -0.51043,0.92806 -0.93085,1.42184c-0.7395,0.88604 -1.682,1.37136 -2.82752,1.45596c-0.97343,0.04726 -1.69623,-0.11569 -2.1684,-0.48886l-0.20731,-0.09138c-0.31637,-0.14887 -0.65019,-0.55773 -1.00147,-1.22659c0.14082,-0.08413 0.09255,-0.18322 -0.14486,-0.29728c-0.02059,-0.42408 0.03649,-0.74081 0.17123,-0.95023c0.11313,-0.25667 0.43627,-0.46557 0.96945,-0.62671c0.31524,-0.07327 0.78288,0.1069 1.40288,0.54051c0.26463,0.27697 0.5562,0.41256 0.87472,0.40675c0.23272,0.01768 0.43174,-0.16104 0.59708,-0.53618c0.1658,-0.36549 0.29264,-0.93679 0.3805,-1.71392c0.04332,-0.30158 0.05633,-0.63068 0.03902,-0.98728c-0.01731,-0.3566 0.09403,-0.55039 0.33405,-0.58137c-0.28736,0.44868 -0.64906,0.65945 -1.0851,0.63232l-0.13011,0.00631c-0.15187,0.05568 -0.40269,0.06302 -0.75247,0.02204c-0.34014,-0.04145 -0.65968,-0.15635 -0.95865,-0.34472l-0.20928,-0.72888c0.84618,0.31636 0.78737,0.49794 -0.17643,0.54473l-0.25489,-0.17601l-0.32998,-0.23032c-0.31684,-0.15851 -0.4295,-0.38972 -0.33799,-0.69365c-0.12296,0.05428 -0.20534,0.04861 -0.24717,-0.01698c-0.23552,-0.07551 -0.36217,-0.29639 -0.37996,-0.66263l-0.15398,-0.48522c-0.00421,-0.08674 -0.04085,-0.24437 -0.1099,-0.47287c-0.15533,-0.21465 -0.20853,-0.41495 -0.15959,-0.60088c0.05857,-0.1864 0.08669,-0.30369 0.08435,-0.35188l0.03157,-0.84201l0.25812,-0.05601c-0.25059,0.01217 -0.34421,-0.2248 -0.28086,-0.71091c0.13259,-0.05474 0.15,-0.09423 0.05222,-0.11847c0.07794,-0.58342 0.13773,-0.94377 0.17937,-1.08104c0.04164,-0.13727 0.072,-0.30781 0.09109,-0.51161c0.02826,-0.2139 0.09576,-0.41523 0.20253,-0.60396l0.20534,-0.54614c0.13194,-0.26724 0.42056,-0.5904 0.86587,-0.96946c0.21091,-0.23243 0.51207,-0.3968 0.90348,-0.49309l0.79724,0.00477l0.68607,0.40142c0.05904,-0.17676 0.24933,-0.13769 0.57083,0.11719c-0.13418,-0.17704 0.01338,-0.42089 0.44268,-0.73155c0.22878,-0.26228 0.64087,-0.33059 1.23627,-0.20494l0.14457,-0.00702c0.29784,-0.03378 0.62198,0.07607 0.9724,0.32955c0.18284,0.18434 0.35895,0.5284 0.52832,1.03219c0.1924,1.57501 0.30965,2.79622 0.35176,3.66364zM254.04028,10.28766l-0.0852,-0.56102c-0.00795,-0.16385 -0.02733,-0.26434 -0.05811,-0.30149c-0.09919,-0.05315 -0.07046,-0.25741 0.08618,-0.6128l-0.48283,0.50164c0.29203,-0.35231 0.40526,-0.50754 0.33966,-0.46571c-0.05595,0.04136 -0.0313,0.15126 0.07397,0.3297c-0.03761,0.02114 -0.21737,0.19894 -0.53925,0.53337l-0.25545,0.70797c-0.17142,0.24984 -0.38346,0.75766 -0.63609,1.52346c-0.28793,-0.15992 -0.26523,-0.18999 0.06807,-0.09026c0.04931,0.2198 0.1237,0.75719 0.22318,1.61215c0.1939,1.20783 0.2055,1.84487 0.03482,1.91112l-0.11986,-0.08113c-0.01619,-0.13447 0.05647,-0.22976 0.21798,-0.28591c0.16412,-0.20119 0.28721,-0.35207 0.36928,-0.45266l0.46275,-0.61659c-0.07121,-0.07383 -0.0553,-0.24367 0.04771,-0.5095c0.11266,-0.26631 0.18064,-0.45799 0.20393,-0.57505c-0.00094,-0.01928 0.00673,-0.15972 0.02302,-0.42136c0.03321,-0.31075 0.03415,-0.789 0.0028,-1.43475c0.35137,0.27276 0.44854,0.38397 0.29152,0.33364c-0.14738,-0.05081 -0.22411,-0.13886 -0.23019,-0.26416zM248.32318,8.63792c-0.13129,-0.5153 -0.20278,-0.89343 -0.21448,-1.13438l-0.00913,-0.18794c-0.01919,-0.39515 0.19046,-0.75312 0.62894,-1.07389l0.53238,0.22049c-0.18799,-0.29035 0.03925,-0.48494 0.68171,-0.58376c0.26986,-0.0131 0.4484,-0.01694 0.53561,-0.01151c0.09684,0.00496 0.25868,0.05507 0.4855,0.15032c0.22682,0.09526 0.41602,0.21165 0.56762,0.34921c0.21194,0.3858 0.32564,0.73772 0.34108,1.05577l-0.38373,0.45336l-0.28802,-0.26135l0.1499,-0.19567c0.04257,-0.118 0.19023,-0.26041 0.44297,-0.42725c0.25274,-0.16684 0.58445,-0.29888 0.99514,-0.3961c0.55479,-0.11388 1.16385,-0.10481 1.82719,0.02722c0.38786,0.02947 0.53285,0.23014 0.43497,0.602c-0.34922,-0.42743 0.03303,-0.51362 1.14673,-0.25855c-0.44176,0.2533 -0.60279,0.31908 -0.48311,0.19735c0.11968,-0.12174 0.3021,-0.14509 0.54726,-0.07004l0.35076,0.35974l-0.05825,0.29265c0.18077,-0.05709 0.34271,0.09446 0.48578,0.45462l0.32311,0.98419c0.00375,0.07711 0.05437,0.22438 0.15187,0.44185l0.03229,0.66502c0.0277,0.17255 0.04717,0.37448 0.05839,0.60579c0.01077,0.22168 0.00412,0.48283 -0.01993,0.78348l0.01333,0.27468l-0.00603,0.17419l0.00983,0.2024c-0.24282,-0.02685 -0.23824,-0.03191 0.01376,-0.01515c-0.05446,0.66923 -0.16047,1.1719 -0.31804,1.50802l-0.44493,1.28232c-0.07383,0.07121 -0.13591,0.18532 -0.18625,0.34233c-0.04118,0.14691 -0.27819,0.43858 -0.71105,0.875c-0.86479,0.89213 -1.84112,1.27764 -2.92899,1.15657c0.0698,0.04492 0.07462,0.04468 0.01446,-0.0007c-0.06064,-0.05502 0.04118,-0.14691 0.30541,-0.27567l0.21111,1.96053c-0.25115,0.39862 -0.25035,0.51451 0.00238,0.34767c0.06906,0.2285 0.1288,0.56373 0.17924,1.00566c0.0509,0.45158 0.10785,0.72897 0.17083,0.83218l0.11159,0.80608l0.01403,0.28914c-0.03088,0.35894 -0.11781,0.65781 -0.26078,0.89661c-0.14251,0.24843 -0.36634,0.41387 -0.67148,0.49631c-0.29503,0.09161 -0.65117,0.11856 -1.06841,0.08086c-0.41677,-0.02807 -0.70306,-0.15425 -0.85885,-0.37854c-0.27707,-0.33433 -0.47222,-0.67264 -0.58544,-1.01493c-0.18602,-0.64789 -0.29261,-1.25135 -0.31975,-1.81034c-0.07186,-0.28633 -0.11459,-0.56924 -0.12815,-0.84875c-0.03004,-0.22074 -0.08782,-0.41598 -0.17334,-0.58571c-0.07588,-0.1702 -0.11688,-0.31796 -0.12296,-0.44325c-0.14982,-0.69796 -0.22707,-1.09513 -0.23174,-1.1915c-0.00561,-0.11566 -0.04637,-0.25859 -0.12226,-0.42879c-0.13569,-0.80491 -0.20774,-1.2941 -0.21616,-1.46758l-0.346,-2.64954l0.08295,-0.38079c-0.10789,-0.0334 -0.21204,-0.48723 -0.31244,-1.36147c-0.12642,-0.21606 -0.25256,-1.12287 -0.37842,-2.72043zM261.52886,0.70781l0.68692,-0.17826c0.55217,0.03115 0.99336,0.1643 1.32359,0.39945c0.33021,0.23514 0.48658,0.57051 0.46908,1.00609c-0.20895,0.86995 -0.36464,1.74213 -0.46709,2.61657l0.01685,0.34697c-0.01852,0.81239 -0.07228,1.49608 -0.16126,2.05106l-0.32251,5.59469l0.08142,1.677c0.04202,1.26351 0.15792,2.25776 0.34768,2.98276l0.07538,0.35862c0.00366,0.47319 -0.20857,0.77815 -0.63666,0.91486c-0.42809,0.13671 -0.70549,0.19365 -0.83218,0.17083c-0.12623,-0.01319 -0.25292,-0.03602 -0.38009,-0.06849l-0.72103,-0.22583c-0.34576,-0.15711 -0.70124,-0.41517 -1.06645,-0.77421c-0.36334,-0.32049 -0.43816,-0.56803 -0.22444,-0.74264c-0.15327,0.02677 -0.33916,-0.71774 -0.55766,-2.23352c0.02358,-0.31028 0.03092,-0.55699 0.02203,-0.74011l-0.02036,-0.41925c-0.01638,-0.33733 -0.02325,-0.57851 -0.02063,-0.72355c-0.00234,-0.04819 0.00688,-0.25634 0.02765,-0.62446c0.03078,-0.9579 0.05393,-1.47586 0.06947,-1.55391l-0.01614,-0.33251c-0.0496,-1.02162 -0.01063,-1.81085 0.11691,-2.36771c-0.02349,-0.0858 -0.04108,-0.24919 -0.05278,-0.49013c0.14934,-0.30673 0.17722,-0.92637 0.08364,-1.85891c0.24001,-1.02602 0.37545,-1.7185 0.40632,-2.07745c0.03088,-0.35894 0.08571,-0.62244 0.1645,-0.7905c-0.01638,-0.33733 0.13474,-0.70694 0.45335,-1.10883c0.32778,-0.412 0.70595,-0.68154 1.13452,-0.80861zM269.96781,9.76071l0.15018,0.10864c0.14691,0.04118 0.01459,0.40021 -0.39693,1.07711c-0.56648,0.86798 -0.96018,1.71308 -1.1811,2.5353c-0.14091,0.48021 -0.21905,0.86078 -0.23439,1.14168c0.01357,0.27951 -0.00669,0.4592 -0.06077,0.53912c-0.07383,0.07121 -0.09863,0.05792 -0.07439,-0.03986c0.02377,-0.10742 0.02251,-0.23295 -0.00379,-0.37658c0.14082,-0.08413 0.27285,-0.24993 0.39609,-0.49743c0.22457,-0.34903 0.41149,-0.47886 0.56073,-0.3895l-0.05559,-0.54796l0.80158,-0.50263c-0.45682,0.34098 -0.56148,0.07556 -0.31399,-0.79625c0.15898,-0.3072 0.24024,-0.52368 0.2438,-0.64944zM265.06134,15.85328c-0.09199,-0.70076 -0.11019,-1.27469 -0.05461,-1.72178c0.31766,-1.41622 0.66322,-2.45703 1.03667,-3.12242c-0.20474,-0.03837 -0.25522,-0.28227 -0.15146,-0.73169c0.17152,-0.64594 0.41466,-1.01035 0.72944,-1.09326c-0.20707,-0.08656 -0.25312,-0.23889 -0.13811,-0.45701c-0.00983,-0.2024 0.20581,-0.5365 0.6469,-1.0023l0.25924,-0.33139c0.38748,-0.37626 0.90409,-0.58006 1.54983,-0.61141c0.22991,-0.04015 0.51975,-0.03972 0.86952,0.00126c0.56106,0.21427 1.16559,0.52789 1.81358,0.94081l0.17839,0.09278c0.11706,0.0233 0.21003,0.04777 0.27889,0.07341c0.04819,-0.00234 0.23871,0.04154 0.57154,0.13165l0.37546,0.27159c0.25855,0.15168 0.45299,0.47553 0.58333,0.97155c-0.13849,0.13231 -0.19309,0.40063 -0.1638,0.80496c-0.0246,0.6871 0.06771,1.49412 0.27694,2.42104c0.10958,0.86414 0.30918,1.79153 0.59878,2.78218c0.00328,0.06746 0.07692,0.29091 0.22092,0.67035c0.15318,0.36933 0.21883,0.62698 0.19693,0.77296c0.0351,0.72285 -0.50635,1.11141 -1.62436,1.16569c-0.97624,-0.01057 -1.67701,-0.41611 -2.1023,-1.21661c-0.02208,-0.05689 -0.06508,-0.14658 -0.12899,-0.26907c-0.25218,-0.21961 -0.40363,-0.45377 -0.45434,-0.70249l0.17531,-0.26935c-0.20099,0.03874 -0.16136,-0.04047 0.11888,-0.23763c0.09722,0.41069 0.00829,0.76762 -0.26681,1.07079l-0.46669,0.83416l-0.25601,0.09937c0.0291,0.20146 -0.19401,0.38135 -0.66937,0.53968c-0.46571,0.15786 -0.79704,0.1981 -0.99402,0.12072c-0.05783,0.00281 -0.18934,-0.01979 -0.39455,-0.06779l-1.10533,-0.38106c-0.35117,-0.0699 -0.60902,-0.20712 -0.77352,-0.41167c-0.31824,-0.18743 -0.33241,-0.37995 -0.04253,-0.57758c-0.49313,-0.20792 -0.7244,-0.39473 -0.69379,-0.56044zM276.99826,7.81088l0.28914,-0.01403c-0.21326,0.18425 -0.39262,0.27024 -0.53813,0.25799c-0.14598,-0.0219 -0.38375,-0.04416 -0.71331,-0.06681c-0.31993,-0.02311 -0.5926,-0.06784 -0.81801,-0.13418c-0.55826,-0.15644 -0.89348,-0.59423 -1.00568,-1.31333c-0.10303,-0.7292 0.15377,-1.21022 0.77042,-1.44303c0.3712,-0.11463 0.63391,-0.17568 0.78811,-0.18317c0.1542,-0.00749 0.36578,-0.02742 0.6347,-0.05979c0.17844,-0.10527 0.44044,-0.18079 0.786,-0.22655l0.95598,-0.30725c-0.30617,0.45925 -0.51306,0.57557 -0.62067,0.34893l-0.07116,-0.27188c-0.01544,-0.31805 0.0428,-0.6107 0.17475,-0.87794c-0.00468,-0.09637 0.096,-0.41041 0.30204,-0.94209c-0.01244,-0.05736 0.12108,-0.59035 0.40058,-1.59897c0.12651,-0.18003 0.42734,-0.45065 0.9025,-0.81184c0.45186,-0.24414 0.99098,-0.18337 1.61735,0.18231c0.36409,0.13689 0.6843,0.4643 0.96062,0.98222c-0.16553,0.17227 -0.23739,0.38346 -0.21559,0.63358c-0.0219,0.14598 -0.10783,0.7636 -0.25783,1.85288l-0.26737,0.46221c0.02966,-0.18499 0.20034,-0.25124 0.51203,-0.19875c0.32132,0.05202 0.6959,0.10629 1.12371,0.16281c1.00207,0.14456 1.66451,0.55679 1.98734,1.23669c0.16113,0.53317 0.14224,0.93984 -0.0567,1.22c-0.18976,0.27005 -0.58108,0.46777 -1.17395,0.59316c-0.39469,0.02882 -0.87153,0.0568 -1.43053,0.08394c-0.559,0.02714 -0.84309,0.04576 -0.85225,0.05586c-0.00683,0.0583 -0.0065,0.16455 0.00099,0.31876l-0.01137,0.36282c0.00608,0.12529 -0.03897,0.78923 -0.13516,1.99182c-0.07972,0.14878 -0.1222,0.86573 -0.12743,2.15086l0.08703,1.79265c0.01264,0.26023 0.04936,0.51928 0.11019,0.77716c0.03519,0.32675 0.08567,0.57065 0.15146,0.73169c0.00842,0.17348 0.07393,0.52774 0.19651,1.06279c-0.28979,0.79659 -0.74791,1.21008 -1.37438,1.2405c-0.62646,0.03041 -1.18659,-0.16459 -1.68037,-0.585l-0.35707,-0.48985c-0.06485,-0.14176 -0.1129,-0.23604 -0.14415,-0.28282c-0.03172,-0.05642 -0.05932,-0.12754 -0.08281,-0.21335c-0.10948,-0.26518 -0.18467,-0.42094 -0.22556,-0.46725c-0.17507,-0.22336 -0.26542,-0.39286 -0.27103,-0.50851c-0.00561,-0.11566 -0.0103,-0.21203 -0.01403,-0.28914c-0.04062,-0.23954 -0.06761,-0.39763 -0.08099,-0.47427c-0.13044,-0.09993 -0.21134,-0.47278 -0.24269,-1.11852c-0.01133,-0.83027 -0.05245,-1.37893 -0.12339,-1.64599c0.26023,-0.01264 0.27145,-0.27884 0.03368,-0.79864l0.04562,-0.55287c-0.00375,-0.07711 0.09633,-0.30416 0.30022,-0.68116c-0.2024,0.00983 -0.30262,-0.16403 -0.30065,-0.52157c0.01113,-0.36764 0.0327,-0.61987 0.0647,-0.75667c0.01179,-0.15514 0.01066,-0.37729 -0.00337,-0.66643zM285.93936,15.15845c0.30888,-0.00534 0.27473,-0.21138 -0.10247,-0.61814c-0.00561,-0.11566 -0.03715,-0.46674 -0.09461,-1.05325l-0.03088,-0.63611c0.03059,-0.16571 0.02451,-0.29101 -0.01825,-0.37588l-0.0059,-0.41995c-0.01217,-0.25059 -0.01118,-0.42936 0.00294,-0.53631c0.01366,-0.11659 -0.0044,-0.28961 -0.05418,-0.51905c-0.02339,-0.4819 -0.03448,-0.80982 -0.03327,-0.98378c0.00121,-0.17395 -0.03341,-0.38963 -0.10387,-0.64706c0.02377,-0.10742 0.02559,-0.36835 0.00547,-0.78277c0.03294,-0.11753 0.15177,-0.15711 0.35651,-0.11874l-1.29803,0.4253c-0.71134,0.07318 -1.19343,-0.1063 -1.44626,-0.5384c-0.27707,-0.33433 -0.24558,-0.78025 0.09445,-1.33776c0.14345,-0.22916 0.60799,-0.41111 1.39361,-0.54586l0.24367,-0.0553l0.81843,-0.15566c-0.09404,0.05287 -0.14962,0.00243 -0.16674,-0.1513l0.03157,-0.84201c-0.01264,-0.26023 -0.00328,-0.56499 0.02807,-0.9143c-0.0103,-0.21203 0.00233,-0.44933 0.0379,-0.7119c-0.00936,-0.19276 -0.00084,-0.41537 0.02554,-0.66782c-0.00702,-0.14457 0.00415,-0.71026 0.03354,-1.69707c0.05998,-0.15748 0.1994,-0.27052 0.41827,-0.33911c-0.32816,0.00628 -0.4018,-0.21718 -0.22092,-0.67035c-0.01638,-0.33733 0.27533,-0.79588 0.87513,-1.37566l0.48634,-0.42936c0.30682,-0.24675 0.68687,-0.47774 1.14013,-0.69296c0.21326,-0.18425 0.64143,-0.21953 1.28456,-0.10584c-0.01928,0.00094 0.10003,-0.029 0.35792,-0.08983l0.9157,0.05698c0.93488,-0.04539 1.61146,0.25989 2.02973,0.91582c0.1485,0.27295 0.1965,0.56527 0.14401,0.87696c-0.00749,0.84084 -0.46608,1.24471 -1.37579,1.21159c-0.54936,0.02667 -0.872,0.04717 -0.96791,0.06149c-0.40928,0.12614 -0.65861,0.26383 -0.74796,0.41308c-0.3217,0.5373 -0.5182,0.96708 -0.5895,1.28933c-0.07177,0.31263 -0.12121,0.68696 -0.14835,1.12301c-0.02535,0.87069 -0.04898,1.37902 -0.07087,1.52499c-0.01225,0.14551 -0.06377,0.27843 -0.15453,0.39876c-0.08113,0.11986 -0.14237,0.15182 -0.18373,0.09587c-0.06391,-0.12249 -0.07682,-0.18948 -0.03874,-0.20099c0.17423,-0.19201 0.51273,-0.18429 1.01549,0.02315c0.13334,-0.23833 0.19459,-0.27029 0.18373,-0.09587c-0.00121,0.17395 -0.02283,0.12669 -0.06485,-0.14176l0.41645,-0.07819l0.95696,0.01151c0.57192,0.03986 0.97208,0.2233 1.20048,0.55034c0.23806,0.32657 0.27828,0.6579 0.12072,0.99402c-0.15804,0.32648 -0.4215,0.57112 -0.79035,0.73394c-1.70694,0.45964 -2.66208,0.68473 -2.86541,0.67528c0.0684,0.016 0.09695,0.10639 0.08562,0.27117c-0.01179,0.15514 -0.01418,0.305 -0.00716,0.44957l0.09195,1.89386l0.11369,0.84945l0.00029,0.30429l0.02246,0.46262l-0.00224,0.55077c0.12202,0.9215 0.25313,1.73146 0.3933,2.42988c0.14635,0.42763 0.2242,0.73782 0.23356,0.93057c0.0248,0.51081 -0.25433,0.93012 -0.83737,1.2579c-1.07626,0.51596 -1.88688,0.43457 -2.43185,-0.24421c0.10181,-0.09189 0.09877,-0.15453 -0.00913,-0.18794c-0.09825,-0.03387 -0.03912,-0.1092 0.17741,-0.22598l-0.42908,-0.18204c0.16104,-0.06578 0.10667,-0.29017 -0.1631,-0.67316l-0.12758,-0.24015zM297.19739,8.40973c-0.08571,-0.3726 -0.24352,-0.53883 -0.47343,-0.49869c-0.10602,0.00514 -0.21147,0.12136 -0.31636,0.34865c-0.23683,0.49453 -0.31514,1.16975 -0.23494,2.02566c0.07972,0.84626 0.1668,1.44583 0.26122,1.79869c0.09395,0.34322 0.24821,0.63521 0.46277,0.87597c0.04183,0.0656 0.09648,0.09675 0.16394,0.09347c0.21203,-0.0103 0.38229,-0.28423 0.51075,-0.8218l0.19692,-0.71962c0.23505,0.06587 0.21213,0.09114 -0.06878,0.07579c0.17713,-0.53028 0.26279,-0.95467 0.25699,-1.27319c-0.09965,-0.06279 -0.19295,-0.19351 -0.27988,-0.39216c-0.13203,-0.33171 -0.12717,-0.52999 0.01459,-0.59484c-0.25105,0.00253 -0.393,-0.13549 -0.42585,-0.41405c-0.03332,-0.2882 -0.05596,-0.45616 -0.06794,-0.50389zM292.77836,10.81241l0.03873,-1.29157c0.06539,-1.23974 0.39004,-2.31334 0.97392,-3.22082c0.62571,-0.84188 1.53084,-1.30123 2.71536,-1.37806l0.14457,-0.00702c1.08909,-0.05288 1.90602,0.15864 2.4508,0.63455c0.51989,0.36118 0.91177,0.77206 1.17565,1.23262c0.26387,0.46056 0.43998,0.80463 0.52832,1.03219c0.09798,0.2271 0.16688,0.55221 0.20676,0.97535c0.08581,0.97157 -0.00893,1.5075 -0.28422,1.60781c0.27025,1.38767 0.14997,2.59144 -0.36083,3.61128c-0.14419,0.41275 -0.37807,0.8685 -0.70164,1.36724c-0.30757,0.43034 -0.83607,0.68785 -1.58548,0.77254c-0.62646,0.03041 -1.18734,0.01901 -1.68262,-0.03424c-0.48564,-0.0537 -1.04188,-0.26822 -1.66873,-0.64353c-0.62684,-0.37531 -1.08825,-1.02433 -1.38423,-1.94704c-0.27979,-0.78825 -0.46857,-1.69202 -0.56637,-2.7113zM302.25086,13.584c0.21464,-2.14543 0.32032,-3.25188 0.31705,-3.31934l0.10105,-0.90335c0.20474,0.03837 0.20516,-0.25148 0.00126,-0.86952l-0.02527,-0.52045l0.03396,-0.49434c-0.0641,-0.32535 -0.10036,-0.57477 -0.10878,-0.74825c-0.09582,-0.38178 -0.06798,-0.80337 0.0835,-1.26477c0.38869,-0.55021 0.98746,-0.75317 1.7963,-0.60889c0.30252,0.0626 0.54885,0.16174 0.73899,0.29742c0.23552,0.07551 0.40335,0.14948 0.50346,0.2219c0.29475,0.10162 0.3437,0.41322 0.14682,0.93479c-0.1062,-0.19772 0.23341,-0.46539 1.01886,-0.803c0.11566,-0.00561 0.32605,-0.04964 0.63119,-0.13208c0.31431,-0.09255 0.60157,-0.14513 0.8618,-0.15777c0.26986,-0.0131 0.5081,0.0188 0.7147,0.09572c0.43577,0.22036 0.68537,0.38696 0.74882,0.49982c0.07261,0.10274 0.18504,0.32915 0.33728,0.6792c0.15224,0.35005 -0.02536,0.37316 -0.5328,0.06934c0.51362,0.03303 0.71302,0.26003 0.59821,0.68102c-0.26079,0.39909 -0.62614,0.63419 -1.09605,0.70531c-0.22168,0.01077 -0.6974,0.26089 -1.42716,0.75037l-0.7053,0.39652c-0.60541,0.46412 -0.94994,0.63059 -1.0336,0.4994c0.0441,3.49502 0.03283,5.45185 -0.03378,5.87049c-0.07411,0.26443 -0.26869,0.53472 -0.58375,0.81085c-0.30541,0.27567 -0.6827,0.265 -1.13185,-0.032l-0.29405,-0.08716c-0.37373,-0.13642 -0.70418,-0.37639 -0.99136,-0.71989l-0.36872,-0.43132l-0.23048,-0.56845c-0.00608,-0.12529 -0.02134,-0.24048 -0.04576,-0.34556zM311.67567,4.15651l0.15299,0.16647c0.2417,-0.19529 0.64533,-0.23903 1.21087,-0.13124c0.41041,0.096 0.66708,0.70665 0.77002,1.83196c0.09105,0.68149 0.11833,1.14388 0.08183,1.38717c-0.02732,0.23319 0.01273,0.36165 0.12015,0.38542l-0.26835,1.63602l-0.05151,0.13292c-0.31946,-0.01347 -0.46506,-0.12717 -0.4368,-0.34107c0.06288,-0.49574 0.15359,-0.91556 0.27215,-1.25944c0.11612,0.00402 0.15256,-0.04122 0.10934,-0.13573c-0.0437,-0.10415 -0.02087,-0.23084 0.06849,-0.38009c0.07532,-0.43838 0.29666,-1.05292 0.66402,-1.84361c0.13783,-0.34482 0.29681,-0.65202 0.47693,-0.9216c0.18013,-0.26959 0.46987,-0.3706 0.86924,-0.30304c0.40853,0.05745 0.69295,0.14508 0.85324,0.26288c0.04819,-0.00234 0.17442,0.01086 0.37869,0.03958l0.70165,0.12534c0.14551,0.01225 0.33836,0.10433 0.57855,0.27622c0.23973,0.16225 0.3457,0.35515 0.31791,0.5787c-0.01862,0.21344 -0.01777,0.62881 0.00254,1.2461l0.02036,0.41925l-0.05417,0.97353c-0.1164,0.18921 -0.16225,0.23973 -0.13755,0.15159l-0.26416,0.23019l-0.2956,-1.01451c-0.01077,-0.22168 0.0524,-0.41313 0.18948,-0.57435l0.35132,-0.52424c-0.10106,-0.0917 -0.09844,-0.23674 0.00786,-0.43511c0.0233,-0.11706 0.10115,-0.30439 0.23355,-0.56199c0.14204,-0.25808 0.27244,-0.45761 0.39118,-0.59863c-0.01403,-0.28914 0.2132,-0.48372 0.68171,-0.58376c0.30214,-0.34313 0.79298,-0.38145 1.4725,-0.11497c0.09637,-0.00468 0.32615,0.05179 0.6893,0.16941c-0.29719,0.24628 -0.35244,0.3021 -0.16576,0.16744c0.18667,-0.13465 0.46744,-0.02269 0.84229,0.33588l0.02316,0.47708c0.00702,0.14457 0.01793,0.26962 0.0327,0.37518c-0.00449,0.10649 0.01147,0.23613 0.04787,0.38894l0.01544,0.31805c0.02489,0.11472 0.08357,0.52727 0.17602,1.23768l0.00702,0.14457c0.07308,0.11238 0.10373,0.24614 0.09194,0.40128c-0.00215,0.15467 -0.08927,0.25068 -0.26135,0.28802c0.20006,-0.05802 0.33214,0.07565 0.39623,0.40101c0.06364,0.31571 0.06663,0.5764 0.00898,0.78208l0.03593,0.14316l-0.15987,0.5874c0.2125,-0.00065 0.32507,0.12913 0.3377,0.38935l0.09264,0.41574c0.01357,0.27951 0.07098,0.56654 0.17222,0.86109l0.01403,0.28914l0.14724,0.64495l0.01053,0.21685l-0.01698,0.24717c0.01919,0.39515 -0.15565,0.67415 -0.52451,0.83696c0.00047,0.00963 -0.0509,0.04594 -0.15411,0.10892c-0.10321,0.06297 -0.29457,0.10125 -0.57406,0.11482l-0.67554,-0.18456l-0.12267,-0.13896c-0.13213,0.06438 -0.44709,-0.05558 -0.94489,-0.35987c-0.00889,-0.18312 0.00688,-0.25634 0.0473,-0.21966c-0.42145,-0.12444 -0.57393,-0.47932 -0.45743,-1.06461c0.28652,0.131 0.1791,0.10723 -0.32226,-0.0713c0.35566,-0.0366 0.37321,-0.17269 0.05263,-0.4083c-0.00795,-0.16385 -0.02967,-0.31253 -0.06513,-0.44606c-0.02583,-0.134 -0.04661,-0.2634 -0.06232,-0.38824c-0.01619,-0.13447 -0.14799,-0.46136 -0.3954,-0.98068c0.52626,0.29325 0.70559,0.40531 0.538,0.33615c-0.15842,-0.07926 -0.25442,-0.16638 -0.28802,-0.26135l-0.02948,-0.60719l0.28914,-0.01403l0.21643,0.27931c-0.28034,0.59325 -0.38056,0.91692 -0.30064,0.97101l-0.69981,2.59889c-0.07785,0.18733 -0.22293,0.38275 -0.43525,0.58628c-0.20314,0.19341 -0.51194,0.30018 -0.92637,0.32031c0.09245,-0.28465 0.10293,-0.36728 0.03144,-0.24787c-0.07149,0.1194 -0.19692,0.22209 -0.3763,0.30809c-0.91093,0.14083 -1.45622,-0.14667 -1.63588,-0.8625l-0.08801,-0.61884l0.27832,-0.53519c-0.22074,0.03004 -0.33813,-0.09951 -0.35216,-0.38865l-0.0306,-0.33181l-0.05194,-1.06982l-0.1189,-1.25494l0.44703,-1.23895c-0.08635,1.40499 -0.17318,2.30282 -0.26049,2.69348l-0.78206,2.99413c-0.22607,0.71621 -0.67067,1.10973 -1.33382,1.18056l-0.24367,0.0553c-0.59147,0.15431 -1.01728,0.03973 -1.27741,-0.34373l-0.31371,-0.49195c0.04005,-0.36905 -0.02621,-0.53972 -0.19875,-0.51203c-0.0728,-0.30561 -0.17265,-0.57126 -0.29953,-0.79695l-0.19342,-0.70067c-0.00234,-0.04819 -0.02031,-0.11977 -0.0539,-0.21475l-0.01966,-0.4048c-0.05428,-0.12296 -0.11122,-0.40034 -0.17083,-0.83218c-0.05043,-0.44194 -0.07599,-0.76917 -0.07664,-0.98167c-0.06812,-0.20923 -0.09592,-0.4832 -0.08338,-0.82193l-0.01755,-0.36142c-0.10499,-0.37166 -0.17738,-0.96712 -0.21715,-1.78634l-0.01895,-0.39033c0.06288,-0.49574 0.08893,-0.85445 0.07818,-1.07613c-0.01123,-0.23131 0.05193,-0.42276 0.18948,-0.57435c0.13708,-0.16122 0.4767,-0.42889 1.01886,-0.803zM331.15881,-2.49887c0.09404,-0.05287 0.31337,-0.11182 0.658,-0.17686c0.60251,-0.12586 1.04385,-0.08932 1.324,0.10961c0.28932,0.18883 0.52294,0.42383 0.70081,0.70501c0.06026,0.64433 0.02059,1.41912 -0.119,2.32434c-0.17338,0.60738 -0.32993,1.06421 -0.46963,1.37046l-0.21517,0.34374c-0.04941,0.17629 -0.19378,0.38618 -0.43314,0.62965c-0.23936,0.24347 -0.45588,0.36026 -0.64958,0.35034c-0.18452,-0.02002 -0.39572,-0.09188 -0.63358,-0.21559c-0.2287,-0.1338 -0.41448,-0.27936 -0.55737,-0.43665c-0.02489,-0.11472 -0.04838,-0.20052 -0.07046,-0.25741l-0.12015,-0.38542l-0.49069,-0.55582c-0.15907,-0.29176 -0.24493,-0.56775 -0.25756,-0.82797c-0.08544,-0.56583 0.05993,-0.95448 0.43609,-1.16596c-0.21484,-0.04753 -0.29733,-0.15462 -0.24745,-0.32128c0.09273,-0.47787 0.47435,-0.9746 1.14489,-1.4902zM330.73444,9.05657c-0.00889,-0.18312 0.00514,-0.3915 0.0421,-0.62516c0.04613,-0.24376 0.05769,-0.40371 0.03467,-0.47989c-0.02302,-0.07617 -0.03822,-0.3894 -0.04563,-0.9397c0.03059,-0.16571 0.03252,-0.32521 0.00575,-0.47848c-0.16609,-0.43632 -0.21644,-0.77684 -0.15103,-1.02153c0.07457,-0.2548 0.20675,-0.51722 0.3965,-0.78728c0.19893,-0.28016 0.44017,-0.48508 0.72368,-0.61477c0.29269,-0.13979 0.70759,-0.15028 1.2447,-0.03145c0.19744,0.08702 0.43881,0.28301 0.72411,0.58795c0.11117,0.10087 0.21971,0.34677 0.32564,0.73772c0.10546,0.38131 0.17765,0.77389 0.21658,1.17774c0.0481,0.39376 0.0998,0.96122 0.1551,1.70241c0.05484,0.73154 0.1363,1.71298 0.24438,2.9443c0.10808,1.23131 0.15703,2.04044 0.14683,2.42736c-0.01066,0.37729 -0.18293,0.70928 -0.51679,0.99599c-0.32376,0.29588 -0.59517,0.37668 -0.81421,0.2424c-0.21858,-0.12464 -0.35703,-0.19037 -0.41533,-0.1972c-0.37588,0.01825 -0.65875,-0.13708 -0.84861,-0.46598c-0.07289,0.09049 -0.28268,0.04753 -0.62936,-0.12884c-0.33705,-0.17685 -0.55559,-0.49953 -0.65562,-0.96805c-0.11584,-0.19725 -0.17859,-0.79316 -0.18823,-1.78775l-0.04422,-0.91078l0.07495,-0.84412zM335.6311,6.86255c-0.03519,-0.32675 -0.05283,-0.78961 -0.05292,-1.38856l0.15677,-0.94953l0.47805,-1.19698l0.31286,-0.42094c-0.0131,-0.26986 0.5415,-0.58661 1.6638,-0.95024l0.08674,-0.00421c0.20193,-0.01946 0.52597,-0.01104 0.97213,0.02526c0.45532,0.0262 0.89792,0.18826 1.32779,0.48619c0.4294,0.28829 0.74175,0.55328 0.93704,0.79498c0.434,0.78077 0.63822,1.50506 0.61268,2.17288c0.01264,0.26023 -0.13975,0.50431 -0.45714,0.73225c0.0874,0.20829 -0.05404,0.37938 -0.4243,0.51329c-0.36109,0.1238 -0.65458,0.14771 -0.88046,0.07173c-0.21625,-0.07644 -0.47844,-0.20379 -0.78657,-0.38205c-0.2985,-0.17872 -0.44607,-0.4324 -0.44269,-0.76102c-0.20258,-0.19304 -0.24212,-0.50992 -0.11861,-0.95065c0.05595,-0.04136 0.09133,-0.00927 0.10611,0.09628l0.00814,-0.13081c0.08346,-0.07168 0.12047,-0.00585 0.11102,0.19749c0.0002,0.20287 0.00801,0.46333 0.02345,0.78138c0.02902,0.59755 0.20437,1.12521 0.52608,1.58295c0.09376,0.14035 0.27613,0.31506 0.54713,0.5241l0.49,0.54136l0.66558,0.57631l0.52242,0.61224c0.14149,0.12838 0.33864,0.40863 0.59148,0.84074c0.25283,0.43212 0.38838,0.83611 0.40663,1.21199c0.01825,0.37588 -0.06485,0.85328 -0.24926,1.43222l-0.49967,0.15467c0.22823,0.12417 0.20961,0.33761 -0.05586,0.64031c-0.5415,0.58661 -1.16534,0.96951 -1.87153,1.14871l-0.17348,0.00842c-0.55573,0.0946 -1.12025,0.10752 -1.69357,0.03875l-0.74643,-0.15215c-0.11566,0.00561 -0.24282,-0.02685 -0.38149,-0.0974c-0.12857,-0.06138 -0.23716,-0.10924 -0.32577,-0.14358c-0.50698,-0.29419 -0.79265,-0.50734 -0.85703,-0.63947c-0.17769,-0.07832 -0.29387,-0.38182 -0.34852,-0.9105c-0.16917,-0.30093 -0.16979,-0.71147 -0.00183,-1.23165c-0.0117,-0.24094 0.01974,-0.48882 0.09432,-0.74362c0.49237,-0.60355 1.10195,-0.78288 1.82873,-0.538c0.38337,0.13595 0.58511,0.41115 0.60523,0.82558c0.00094,0.01928 0.03158,0.15303 0.09194,0.40128c0.05989,0.2386 0.12684,0.42374 0.20086,0.55539c0.08366,0.13119 0.16403,0.19491 0.24114,0.19116c0.07711,-0.00375 0.15739,-0.04145 0.24085,-0.11313c0.32143,-0.34406 0.40938,-0.52223 0.26387,-0.53449l0.02442,-0.39244c0.01366,-0.11659 -0.05189,-0.27281 -0.19664,-0.46865c-0.05709,-0.18077 -0.1566,-0.34018 -0.29855,-0.4782l-0.40185,-0.51666l-0.13391,-0.37027c-0.09123,0.1107 -0.39609,-0.00009 -0.91457,-0.33236c0.03294,-0.11753 -0.05072,-0.24872 -0.25097,-0.39356c-0.20025,-0.14484 -0.37897,-0.34387 -0.53618,-0.59708c-0.14803,-0.26331 -0.36789,-0.51347 -0.65955,-0.75049c-0.02677,-0.15327 -0.15271,-0.35969 -0.37785,-0.61926zM357.78596,11.17757l0.00548,0.70979c0.01077,0.22168 0.03893,0.40386 0.0845,0.54655c0.05474,0.13259 0.08609,0.28081 0.09404,0.44466c0.03603,0.74212 -0.59502,0.77759 -1.89316,0.1064c0.0131,0.26986 -0.09212,0.3909 -0.31566,0.36311c-0.2139,-0.02826 -0.35094,-0.06508 -0.41111,-0.11046c-0.06017,-0.04538 -0.09507,-0.06784 -0.10471,-0.06737c-0.47881,-0.112 -0.71957,-0.39496 -0.72229,-0.84888c-0.00047,-0.00963 -0.02736,-0.0663 -0.0807,-0.16997c-0.05334,-0.10368 -0.08033,-0.26177 -0.08099,-0.47427c-0.00065,-0.2125 -0.02938,-0.50575 -0.08618,-0.87976c-0.05727,-0.38364 -0.06873,-0.61978 -0.03439,-0.70839c0.0888,-0.75784 0.16014,-1.27815 0.21404,-1.56093c0.10573,-0.80696 0.0952,-1.52135 -0.0316,-2.14314c-0.11715,-0.62226 -0.28681,-0.93282 -0.50894,-0.93169c-0.19276,0.00936 -0.38214,0.18761 -0.56816,0.53477c-0.42781,0.93854 -0.58298,2.61736 -0.46554,5.03649c0.01778,0.36625 0.08422,0.73979 0.19931,1.12062c0.12473,0.38037 0.17882,0.79798 0.16226,1.25284c-0.01656,0.45485 -0.35875,0.66951 -1.02658,0.64397c-0.65819,-0.02601 -1.07754,-0.10709 -1.25804,-0.24324l-0.14807,-0.06526c-0.36625,0.01778 -0.62184,-0.17268 -0.76679,-0.57139c0,0 -0.04547,-0.04127 -0.13643,-0.12379l-0.47624,-0.55651c-0.23384,-0.23983 -0.33205,-0.47174 -0.29462,-0.69576l-0.01755,-0.36142l0.0007,0.01446c-0.14195,-0.13802 -0.2083,-0.41012 -0.19904,-0.81632c0.00879,-0.41583 0.05314,-1.09424 0.13305,-2.0352c0.12229,-1.26182 0.16776,-2.21561 0.13641,-2.86135c-0.07617,-0.97203 0.06694,-1.30744 0.42935,-1.00623l-0.36902,-2.22819l-0.04282,-0.88187c-0.05288,-1.08909 0.02894,-2.18955 0.24546,-3.30137c0.09479,-0.23645 0.1557,-0.37467 0.18274,-0.41462c0.03621,-0.05006 0.04973,-0.07004 0.04056,-0.05994c0.0015,-0.36718 0.23379,-0.55718 0.69688,-0.57l-0.73252,0.73113c0.23102,-0.81306 0.46762,-1.3124 0.70978,-1.49805c0.41331,-0.24226 1.01226,-0.24236 1.79687,-0.00029c0.1194,0.07149 0.19379,0.11135 0.22317,0.11959c0.04913,0.01694 0.13633,0.02237 0.26163,0.01628c0.59746,0.36708 0.81764,0.7235 0.66053,1.06924c0.08908,0.04398 0.07374,0.32489 -0.04603,0.84271c-0.03229,0.33003 -0.04632,0.53842 -0.0421,0.62516c-0.2998,1.38637 -0.58195,2.73807 -0.84647,4.0551c-0.12502,-0.18714 -0.0226,-0.36601 0.30724,-0.53659c0.69964,-0.31412 1.27642,-0.47255 1.73033,-0.47526c1.38244,0.01983 2.36397,0.53732 2.94459,1.55249c0.52027,0.76692 0.75238,1.86663 0.69634,3.29912c-0.00524,0.29008 -0.08841,1.6611 -0.24953,4.11306zM364.26143,4.41468l-0.01333,-0.27468c0.31057,-0.16964 0.43984,-0.09381 0.38781,0.22752l-0.14738,-0.05081c-0.11566,0.00561 -0.18616,-0.05376 -0.21152,-0.17812c0.08178,0.09264 0.10869,0.14929 0.0807,0.16997c-0.1587,0.11398 -0.2598,0.22032 -0.30332,0.31904l-0.48297,1.09578c-0.19004,0.46328 -0.28254,0.94597 -0.27748,1.44808c0,0 0.02292,-0.02527 0.06878,-0.07579c0.08346,-0.07168 0.13849,-0.13231 0.16506,-0.18191c0.04071,-0.15655 0.10209,-0.28512 0.18415,-0.38571c0.09123,-0.1107 0.17062,-0.36573 0.23819,-0.76509c0.23234,-0.38804 0.33611,-0.83747 0.31131,-1.34828zM367.47325,4.60654l0.01403,0.28914c0.02443,1.10013 -0.25024,2.10851 -0.82403,3.02515c-0.08983,0.13961 -0.21704,0.30519 -0.38163,0.49673l-0.50893,0.56087c-0.14672,0.16169 -0.34692,0.31632 -0.60059,0.46389l-0.84103,0.28718c-0.06859,-0.21887 -0.15285,-0.26308 -0.25279,-0.13263c-0.26472,0.11912 -0.45579,-0.03584 -0.57323,-0.46486c-0.05389,0.28278 -0.1644,0.39441 -0.33153,0.3349c-0.15748,-0.05998 -0.21059,-0.15884 -0.15931,-0.29657c0.15561,0.02143 0.24044,0.17671 0.25447,0.46585l0.32381,0.99865c0.12642,0.21606 0.23416,0.34608 0.32325,0.39006c0.09872,0.04351 0.21096,0.06705 0.33672,0.0706c0.12576,0.00355 0.22144,-0.01558 0.28703,-0.05741c0.07523,-0.04229 0.24544,-0.11818 0.51062,-0.22767l0.45139,-0.25377c0.56237,-0.35577 1.06775,-0.29336 1.51615,0.18723c0.23431,0.24946 0.3459,0.55801 0.33476,0.92566c-0.0116,0.35801 -0.11734,0.66745 -0.31721,0.92833c-0.13053,0.29616 -0.47792,0.60284 -1.04215,0.92005c-0.08974,-0.25648 -0.13241,-0.23992 -0.12801,0.04969c-0.82801,0.45561 -1.77455,0.55953 -2.83959,0.31175l-0.39343,-0.34318c-0.14859,0.12314 -0.24179,0.09385 -0.2796,-0.08786c-0.2097,0.05848 -0.46014,-0.02596 -0.75135,-0.25334c-0.29073,-0.21775 -0.49262,-0.39632 -0.60565,-0.53575c-0.11351,-0.14906 -0.19094,-0.25157 -0.2323,-0.30752c-0.04136,-0.05595 -0.10985,-0.17339 -0.20548,-0.3523c-0.32592,-0.54449 -0.57379,-1.07346 -0.74363,-1.58688l-0.217,-0.88791c0.03387,-0.09825 0.04037,-0.2628 0.0195,-0.49365l-0.01333,-0.27468c-0.19903,-0.3188 -0.14116,-1.01717 0.17361,-2.09514c0.2168,-1.30506 0.41549,-2.08755 0.59609,-2.3475l0.61645,-0.43568c-0.26631,-0.11266 -0.28119,-0.31964 -0.04464,-0.62094c0.05222,-0.11847 0.25031,-0.31646 0.59428,-0.594c0.0976,-0.17863 0.25265,-0.26827 0.46515,-0.26893c0.016,-0.0684 0.09488,-0.13503 0.23665,-0.19987c0.15635,-0.16216 0.4025,-0.26589 0.73842,-0.31118c0.27529,-0.10031 0.69796,-0.14982 1.268,-0.14851c1.3742,0.04921 2.34773,0.60091 2.92059,1.65509l0.23468,0.65519c0.00281,0.05783 0.04744,0.18124 0.13391,0.37027c-0.2184,0.07823 -0.23945,0.14204 -0.06316,0.19145zM368.50976,4.87502c-0.00749,-0.1542 -0.03519,-0.32675 -0.0831,-0.51764l-0.01264,-0.26023c0.0059,-0.07758 -0.00337,-0.1689 -0.02779,-0.27398c-0.0117,-0.24094 -0.00613,-0.42477 0.0167,-0.55147c-0.01966,-0.4048 0.0749,-0.64607 0.28366,-0.72383c-0.13091,-0.10958 -0.0568,-0.37401 0.22232,-0.79331c0.10134,-0.10153 0.2678,-0.25452 0.49939,-0.45898c0.35099,-0.13297 0.56302,-0.14327 0.63611,-0.03088c0.03602,-0.25292 0.33752,-0.31104 0.90447,-0.17433c0.16432,0.00168 0.43239,0.05146 0.80425,0.14933c0.22448,0.04706 0.53636,0.30242 0.93564,0.76607c-0.07644,0.21625 -0.14386,0.519 -0.20225,0.90826c-0.04922,0.37915 -0.20113,0.63288 -0.45574,0.76116c-0.20258,-0.19304 -0.15388,-0.38378 0.14611,-0.57224c0.30916,-0.19856 0.39136,-0.39576 0.24661,-0.59161c0.56611,-0.27866 1.0779,-0.48223 1.53538,-0.61071c0.74895,-0.09433 1.23847,-0.06013 1.46857,0.1026c0.20567,0.05763 0.37008,0.16075 0.49322,0.30934c0.22045,0.16319 0.41466,0.48222 0.58264,0.9571c0.1675,0.46524 0.10265,0.82101 -0.19453,1.06729c-0.15729,0.14289 -0.57163,0.26444 -1.24301,0.36466c-0.0305,-0.23037 -0.05779,-0.19524 -0.08183,0.10541l-1.25129,1.08961c-0.23486,0.13699 -0.36629,0.21583 -0.39426,0.23651l-0.38205,0.78657c-0.10929,-0.06232 -0.13553,0.09353 -0.07874,0.46753c0.06598,0.36391 0.1128,0.63212 0.14051,0.80467c0.02724,0.16291 0.05437,0.72191 0.08142,1.677l0.05124,1.05535c0.02948,0.60719 0.03786,0.97871 0.02514,1.11459c-0.01319,0.12623 -0.08505,0.33742 -0.21559,0.63358c-0.15168,0.25855 -0.39618,0.396 -0.73351,0.41237c-0.88191,0.73838 -1.49285,0.69076 -1.8328,-0.14288l-0.14878,-0.07972c-0.25667,-0.11313 -0.41836,-0.25985 -0.48508,-0.44017c-0.17461,-0.21371 -0.23098,-0.38005 -0.16914,-0.49897l-0.18401,-0.20843l0.17179,-0.34163c-0.27388,0.12922 -0.44765,-0.16665 -0.5213,-0.88762c-0.07411,-0.73061 -0.11421,-1.15857 -0.12029,-1.28385c-0.00655,-0.13494 -0.04623,-0.35519 -0.11903,-0.6608c0.12838,-0.14149 0.18307,-0.30837 0.16407,-0.50066c-0.00936,-0.19276 -0.04328,-0.39399 -0.10176,-0.60368c-0.05895,-0.21934 -0.05081,-0.35015 0.02442,-0.39244c0.08487,-0.04276 0.06939,-0.16277 -0.04646,-0.36002c-0.08225,-0.10227 -0.10583,-0.28952 -0.07074,-0.56172zM381.6716,3.45349c0.0393,-0.18546 0.03523,-0.36881 -0.01221,-0.55007c0.07027,0.05455 0.06686,0.0837 -0.01025,0.08744c-0.01928,0.00094 -0.08454,0.14901 -0.1958,0.44424c-0.23234,0.38804 -0.42874,0.91926 -0.58921,1.59363l-0.39974,-0.47329c0.18014,0.72546 0.12928,1.07089 -0.15256,1.03627c0.22055,-0.2329 0.37419,-0.35146 0.46093,-0.35568c0.08627,-0.01385 0.1849,-0.07177 0.29587,-0.17377c0.28521,-0.29401 0.4862,-0.83026 0.60297,-1.60879zM382.30815,7.61048l-0.90728,0.1165c-0.57828,0.02808 -0.87116,-0.03499 -0.87864,-0.1892l0.23131,-0.01123c0.09704,1.20287 0.41832,1.95046 0.96386,2.24278c0.118,0.04257 0.20108,0.0627 0.24928,0.06035c0.04819,-0.00234 0.11907,-0.03476 0.21264,-0.09727c-0.00963,0.00047 -0.00987,-0.00435 -0.0007,-0.01446c0.0377,-0.41724 0.21264,-0.5948 0.5248,-0.53266c0.66548,-1.01769 1.30954,-1.38226 1.93217,-1.09368c0.52673,0.30289 0.7978,0.61336 0.81325,0.93142c0.01077,0.22168 -0.07953,0.35164 -0.27089,0.38992l0.15902,-0.00772c0.0117,0.24094 -0.08664,0.60317 -0.29502,1.08666c-0.19874,0.48302 -0.40652,0.87954 -0.62332,1.18955c-0.12913,0.32507 -0.32993,0.56668 -0.60242,0.72482c-0.59811,0.41547 -1.24601,0.60149 -1.94368,0.55808c-0.2708,-0.00617 -0.41546,-0.10059 -0.43399,-0.28324c-0.00047,-0.00963 -0.01647,0.05876 -0.048,0.20521l-0.27679,-0.03003c-0.22168,0.01077 -0.42688,-0.03723 -0.61562,-0.144c-0.05662,-0.17114 -0.11079,-0.19266 -0.16254,-0.06456c-0.55966,-0.18536 -0.8946,-0.31885 -1.00483,-0.40043c-0.10059,-0.08207 -0.19037,-0.1405 -0.26935,-0.17531c-0.07944,-0.04445 -0.26228,-0.22878 -0.54852,-0.55301c-0.24067,-0.18153 -0.38721,-0.3145 -0.43961,-0.3989c-0.08225,-0.10227 -0.18355,-0.19879 -0.30388,-0.28956c-0.1107,-0.09123 -0.18223,-0.27132 -0.21461,-0.54024c-0.08178,-0.09264 -0.12689,-0.2257 -0.13531,-0.39918l-0.09657,-0.19818c0.12202,-0.07355 0.13189,-0.0692 0.02962,0.01306c-0.23243,-0.21091 -0.35544,-0.45611 -0.36901,-0.73562l0.3283,-0.10288c-0.34228,0.11322 -0.47507,-0.0349 -0.39834,-0.44437l-0.02738,-0.56382l-0.03945,-0.21545l-0.00631,-0.13011c-0.03406,-0.10462 -0.02826,-0.28362 0.0174,-0.53701l-0.04225,-0.27328c0.24141,-0.00206 0.26883,-0.13381 0.08225,-0.39525c0.06475,-0.4572 0.15931,-0.69847 0.28366,-0.72383l-0.12267,-0.13896c0.01647,-0.05876 0.0226,-0.13151 0.01838,-0.21826c-0.00421,-0.08674 0.01497,-0.18911 0.05754,-0.30711c0.0421,-0.12763 0.15808,-0.52452 0.34794,-1.19067l0.36198,-0.90153c0.12089,-0.29569 0.28562,-0.58385 0.49419,-0.86448c0.0073,-0.04866 0.08562,-0.22635 0.23496,-0.53308l0.33153,-0.3349c0.13474,-0.20942 0.33471,-0.36887 0.59989,-0.47835c0.28212,-0.1586 0.5051,-0.24188 0.66895,-0.24984l0.7606,-0.15285c0.09778,0.02424 0.14668,0.03635 0.14668,0.03635l0.33251,-0.01614c0.44522,0.01703 0.80097,0.08187 1.06729,0.19453c0.54814,0.14728 0.97863,0.35823 1.29144,0.63287c0.64042,0.65482 0.97582,1.29545 1.00625,1.92193c0.02994,0.61683 -0.04046,1.15641 -0.21123,1.61875c-0.37681,0.99402 -0.65069,1.62077 -0.82165,1.88025c-0.35135,0.72229 -0.83063,1.09817 -1.43782,1.12765zM387.74165,7.21626l0.10752,0.1252c0.40694,-0.17433 0.84509,-0.10382 1.31446,0.21151l0.36662,0.38795c-0.12931,0.1222 -0.01497,0.18911 0.34304,0.20071c0.07046,0.25741 0.02115,0.53514 -0.14793,0.83317c0.18171,-0.03781 0.34786,0.20047 0.49841,0.71484c0.03893,0.40386 0.01423,0.98953 -0.0741,1.75701c0.07729,0.19912 0.01072,0.41972 -0.19973,0.66179c-0.31178,0.3436 -0.77954,0.26004 -1.40331,-0.25067c0.34781,0.39852 0.40489,0.57931 0.17124,0.54235c-0.22401,-0.03743 -0.38973,-0.06802 -0.49715,-0.09179c-0.10696,-0.01413 -0.18958,-0.02461 -0.24787,-0.03144c-0.0583,-0.00683 -0.28254,-0.04908 -0.67274,-0.12674c-0.53991,-0.17666 -0.70465,-0.38602 -0.49421,-0.6281c-0.39937,-0.06755 -0.60303,-0.18326 -0.61098,-0.3471c-0.13746,-0.2445 -0.17536,-0.52765 -0.11369,-0.84945c0.0713,-0.32226 0.12613,-0.58576 0.1645,-0.7905l0.16969,-0.38501c-0.00514,-0.10602 0.07883,-0.3661 0.25193,-0.78025c0.02545,-0.27173 0.1113,-0.49327 0.25756,-0.6646c0.30869,-0.2082 0.58095,-0.37115 0.81674,-0.48887z" data-paper-data="{&quot;origPos&quot;:null,&quot;origRot&quot;:0}" fill="#c0c0c0" stroke="none" stroke-width="1" stroke-linecap="square"/></g></g></svg>