<svg version="1.1" xmlns="http://www.w3.org/2000/svg" xmlns:xlink="http://www.w3.org/1999/xlink" width="769.23239" height="452.06269"><g transform="translate(44.23238,-109.51482)"><g data-paper-data="{&quot;isPaintingLayer&quot;:true}" fill="none" fill-rule="nonzero" stroke="none" stroke-width="none" stroke-linecap="butt" stroke-linejoin="miter" stroke-miterlimit="10" stroke-dasharray="" stroke-dashoffset="0" font-family="none" font-weight="none" font-size="none" text-anchor="none" style="mix-blend-mode: normal"><g data-paper-data="{&quot;origPos&quot;:null,&quot;origRot&quot;:0}" stroke="none" stroke-width="0"><path d="M417.23228,170.27025l47.26783,-42.36008l5.70669,5.84165c0,0 -13.01591,11.66449 -21.34676,19.13036c-1.48765,1.33319 -0.33141,8.51386 -1.81906,9.84705c-3.27283,2.93302 -7.10626,-1.84844 -10.37909,1.08458c-5.35555,4.79949 -13.72292,12.29809 -13.72292,12.29809z" data-paper-data="{&quot;origPos&quot;:null,&quot;origRot&quot;:0}" fill="#5a5348"/><path d="M417.23228,170.27025l47.26783,-42.36008l5.70669,5.84165c0,0 -13.01591,11.66449 -21.34676,19.13036c-1.48765,1.33319 -8.92532,7.99862 -12.19815,10.93163c-5.35555,4.79949 -13.72292,12.29809 -13.72292,12.29809z" data-paper-data="{&quot;origPos&quot;:null,&quot;origRot&quot;:0}" fill="#6e6658"/></g><path d="M422.22034,139.80001v-13c0,0 96.76426,5 158.69831,5c56.2296,0 144.08136,-5 144.08136,-5v13c0,0 -87.85176,5 -144.08136,5c-61.93405,0 -158.69831,-5 -158.69831,-5z" data-paper-data="{&quot;origPos&quot;:null}" fill="#23211c" stroke="none" stroke-width="0"/><path d="M417,134.8v-13c0,0 96.76426,5 158.69831,5c56.2296,0 144.08136,-5 144.08136,-5v13c0,0 -87.85176,5 -144.08136,5c-61.93405,0 -158.69831,-5 -158.69831,-5z" data-paper-data="{&quot;origPos&quot;:null}" fill="#58534a" stroke="none" stroke-width="0"/><path d="M3.40945,225.37749v-83h380.56527v83z" data-paper-data="{&quot;origPos&quot;:null,&quot;index&quot;:null}" fill="#a4cf93" stroke="#708569" stroke-width="10"/><path d="M-26.91919,150.71083v-3.33333h435.68683v3.33333z" data-paper-data="{&quot;origPos&quot;:null,&quot;index&quot;:null}" fill="#65815b" stroke="none" stroke-width="0"/><path d="M-10.55078,224.37749v-47h410.76886v47z" data-paper-data="{&quot;origPos&quot;:null,&quot;index&quot;:null}" fill="#9dc78d" stroke="none" stroke-width="0"/><path d="M-13.08057,561.57749v-346.19998h410.76886v346.2z" data-paper-data="{&quot;origPos&quot;:null,&quot;index&quot;:null}" fill="#97be87" stroke="none" stroke-width="0"/><g data-paper-data="{&quot;origPos&quot;:null,&quot;origRot&quot;:0,&quot;index&quot;:null}" fill="#696053" stroke="none" stroke-width="0"><path d="M-37.00713,278.65849l-7.22523,-150.34896l15.99272,-3.16526l16.69447,13.09795l20.10709,-12.4698l7.22523,150.34896z" data-paper-data="{&quot;origPos&quot;:null,&quot;origRot&quot;:0}"/><path d="M-37.00715,278.65849l-7.22523,-150.34896l15.99272,-3.16525l16.69447,13.09795z" data-paper-data="{&quot;origPos&quot;:null,&quot;origRot&quot;:0}"/></g><g data-paper-data="{&quot;origPos&quot;:null,&quot;origRot&quot;:0,&quot;index&quot;:null}" stroke="none" stroke-width="0"><path d="M-29.73872,267.02904l-7.22523,-150.34896l15.99272,-3.16526l16.69447,13.09795l20.10709,-12.4698l7.22523,150.34896z" data-paper-data="{&quot;origPos&quot;:null,&quot;origRot&quot;:0}" fill="#8b7f6e"/><path d="M-29.73874,267.02904l-7.22523,-150.34896l15.99272,-3.16525l16.69447,13.09795z" data-paper-data="{&quot;origPos&quot;:null,&quot;origRot&quot;:0}" fill="#817666"/></g><g data-paper-data="{&quot;origPos&quot;:null,&quot;origRot&quot;:0,&quot;index&quot;:null}" fill="#696053" stroke="none" stroke-width="0"><path d="M-30.00713,411.8585l-7.22523,-150.34896l15.99272,-3.16526l16.69447,13.09795l20.10709,-12.4698l7.22523,150.34896z" data-paper-data="{&quot;origPos&quot;:null,&quot;origRot&quot;:0}"/><path d="M-30.00715,411.85847l-7.22523,-150.34896l15.99272,-3.16525l16.69447,13.09795z" data-paper-data="{&quot;origPos&quot;:null,&quot;origRot&quot;:0}"/></g><g data-paper-data="{&quot;origPos&quot;:null,&quot;origRot&quot;:0,&quot;index&quot;:null}" fill="#696053" stroke="none" stroke-width="0"><path d="M-24.00713,540.05849l-7.22523,-150.34896l15.99272,-3.16526l16.69447,13.09795l20.10709,-12.4698l7.22523,150.34896z" data-paper-data="{&quot;origPos&quot;:null,&quot;origRot&quot;:0}"/><path d="M-24.00715,540.05848l-7.22523,-150.34896l15.99272,-3.16525l16.69447,13.09795z" data-paper-data="{&quot;origPos&quot;:null,&quot;origRot&quot;:0}"/></g><path d="M-17.40539,528.42903l-7.22523,-150.34896l15.99272,-3.16526l16.69447,13.09795l20.10709,-12.4698l7.22523,150.34896z" data-paper-data="{&quot;origPos&quot;:null,&quot;origRot&quot;:0}" fill="#8b7f6e" stroke="none" stroke-width="0"/><path d="M-23.40539,400.22904l-7.22523,-150.34896l15.99272,-3.16526l16.69447,13.09795l20.10709,-12.4698l7.22523,150.34896z" data-paper-data="{&quot;origPos&quot;:null,&quot;origRot&quot;:0}" fill="#8b7f6e" stroke="none" stroke-width="0"/><g data-paper-data="{&quot;origPos&quot;:null,&quot;origRot&quot;:0,&quot;index&quot;:null}" fill="#696053" stroke="none" stroke-width="0"><path d="M362.76762,267.12138l7.22523,-150.34896l20.10709,12.4698l16.69447,-13.09795l15.99272,3.16526l-7.22523,150.34896z" data-paper-data="{&quot;origPos&quot;:null,&quot;origRot&quot;:0}"/><path d="M390.09996,129.24223l16.69447,-13.09795l15.99272,3.16525l-7.22523,150.34896z" data-paper-data="{&quot;origPos&quot;:null,&quot;origRot&quot;:0}"/></g><g data-paper-data="{&quot;origPos&quot;:null,&quot;origRot&quot;:0,&quot;index&quot;:null}" fill="#696053" stroke="none" stroke-width="0"><path d="M361.36936,268.12138l7.22523,-130.34896l20.10709,-7.5302l16.69447,-13.09795l15.99272,3.16526l-7.22523,150.34896z" data-paper-data="{&quot;origPos&quot;:null,&quot;origRot&quot;:0}"/><path d="M388.7017,130.24223l16.69447,-13.09795l15.99272,3.16525l-7.22523,150.34896z" data-paper-data="{&quot;origPos&quot;:null,&quot;origRot&quot;:0}"/></g><g data-paper-data="{&quot;origPos&quot;:null,&quot;origRot&quot;:0,&quot;index&quot;:null}" stroke="none" stroke-width="0"><path d="M370.10095,260.49193l7.22523,-150.34896l20.10709,12.4698l16.69447,-13.09795l15.99272,3.16526l-7.22523,150.34896z" data-paper-data="{&quot;origPos&quot;:null,&quot;origRot&quot;:0}" fill="#8b7f6e"/><path d="M397.43329,122.61278l16.69447,-13.09795l15.99272,3.16525l-7.22523,150.34896z" data-paper-data="{&quot;origPos&quot;:null,&quot;origRot&quot;:0}" fill="#817666"/></g><g data-paper-data="{&quot;origPos&quot;:null,&quot;origRot&quot;:0,&quot;index&quot;:null}" fill="#696053" stroke="none" stroke-width="0"><path d="M355.36936,401.32139l7.22523,-150.34896l20.10709,12.4698l16.69447,-13.09795l15.99272,3.16526l-7.22523,150.34896z" data-paper-data="{&quot;origPos&quot;:null,&quot;origRot&quot;:0}"/><path d="M382.7017,263.44221l16.69447,-13.09795l15.99272,3.16525l-7.22523,150.34896z" data-paper-data="{&quot;origPos&quot;:null,&quot;origRot&quot;:0}"/></g><g data-paper-data="{&quot;origPos&quot;:null,&quot;origRot&quot;:0,&quot;index&quot;:null}" fill="#696053" stroke="none" stroke-width="0"><path d="M364.36936,533.52138l7.22523,-150.34896l20.10709,12.4698l16.69447,-13.09795l15.99272,3.16526l-7.22523,150.34896z" data-paper-data="{&quot;origPos&quot;:null,&quot;origRot&quot;:0}"/><path d="M391.7017,395.64222l16.69447,-13.09795l15.99272,3.16525l-7.22523,150.34896z" data-paper-data="{&quot;origPos&quot;:null,&quot;origRot&quot;:0}"/></g><path d="M357.76762,521.89192l7.22523,-150.34896l20.10709,12.4698l16.69447,-13.09795l15.99272,3.16526l-7.22523,150.34896z" data-paper-data="{&quot;origPos&quot;:null,&quot;origRot&quot;:0,&quot;index&quot;:null}" fill="#8b7f6e" stroke="none" stroke-width="0"/><path d="M363.76762,393.69193l7.22523,-150.34896l20.10709,12.4698l16.69447,-13.09795l15.99272,3.16526l-7.22523,150.34896z" data-paper-data="{&quot;origPos&quot;:null,&quot;origRot&quot;:0,&quot;index&quot;:null}" fill="#8b7f6e" stroke="none" stroke-width="0"/><path d="M273,167.8c0,-2.76142 2.23858,-5 5,-5c2.76142,0 5,2.23858 5,5c0,2.76142 -2.23858,5 -5,5c-2.76142,0 -5,-2.23858 -5,-5z" fill="#9dc78d" stroke="none" stroke-width="0.5"/><path d="M183,171.8c0,-2.76142 2.23858,-5 5,-5c2.76142,0 5,2.23858 5,5c0,2.76142 -2.23858,5 -5,5c-2.76142,0 -5,-2.23858 -5,-5z" fill="#9dc78d" stroke="none" stroke-width="0.5"/></g></g></svg>