<svg version="1.1" xmlns="http://www.w3.org/2000/svg" xmlns:xlink="http://www.w3.org/1999/xlink" width="257.88548" height="419.4783"><g transform="translate(-323.49674,-149.69026)"><g data-paper-data="{&quot;isPaintingLayer&quot;:true}" fill="none" fill-rule="nonzero" stroke="none" stroke-width="none" stroke-linecap="butt" stroke-linejoin="miter" stroke-miterlimit="10" stroke-dasharray="" stroke-dashoffset="0" font-family="none" font-weight="none" font-size="none" text-anchor="none" style="mix-blend-mode: normal"><path d="M520.93065,187.8001v162h-163.93932c0.62179,-6.31682 1.18508,-12.64053 1.39965,-18.99999c0.50403,-14.9377 -0.66121,-29.72579 -3.09666,-44.51472c-2.05263,-12.24761 -2.50666,-24.49343 -3.92104,-36.80692c-0.54846,-4.77485 -1.70856,-9.48799 -2.2243,-14.26558c-1.37945,-12.77866 -1.13287,-25.5977 -1.13287,-38.41278c0,-2.98632 -0.06806,-5.99201 -0.12159,-9.00001z" data-paper-data="{&quot;origPos&quot;:null}" fill="#dbc19c" stroke="#b39d7f" stroke-width="10"/><path d="M520.93065,187.8001v162h-163.93932c0.62179,-6.31682 1.18508,-12.64053 1.39965,-18.99999c0.50403,-14.9377 -0.66121,-29.72579 -3.09666,-44.51472c-2.05263,-12.24761 -2.50666,-24.49343 -3.92104,-36.80692c-0.54846,-4.77485 -1.70856,-9.48799 -2.2243,-14.26558c-1.37945,-12.77866 -1.13287,-25.5977 -1.13287,-38.41278c0,-2.98632 -0.06806,-5.99201 -0.12159,-9.00001z" data-paper-data="{&quot;origPos&quot;:null}" fill="#dbc19c" stroke="#b39d7f" stroke-width="10"/><path d="M529,192.8001v3.33333h-180.98498c-0.00359,-1.10891 -0.01569,-2.22031 -0.0321,-3.33333z" data-paper-data="{&quot;origPos&quot;:null}" fill="#81715b" stroke="none" stroke-width="0"/><path d="M516.3196,222.80005v117h-158.4362c0.2267,-2.99404 0.40613,-5.99302 0.50758,-8.99999c0.50403,-14.9377 -0.66121,-29.72579 -3.09666,-44.51472c-2.05263,-12.24761 -2.50666,-24.49343 -3.92104,-36.80692c-0.54846,-4.77485 -1.70856,-9.48799 -2.2243,-14.26558c-0.44625,-4.13387 -0.72233,-8.27197 -0.89165,-12.41279z" data-paper-data="{&quot;origPos&quot;:null}" fill="#d8bd99" stroke="none" stroke-width="0"/><path d="M521.3196,283.20005v218h-160.85349c0.94751,-21.7362 2.52915,-43.36166 2.92487,-65.21368c0.50403,-27.83264 -0.66121,-55.38651 -3.09666,-82.94195c-2.05263,-22.82033 -2.50666,-45.63733 -3.92104,-68.58042c-0.02598,-0.42156 -0.05335,-0.84288 -0.08195,-1.26396z" data-paper-data="{&quot;origPos&quot;:null}" fill="#d1b694" stroke="none" stroke-width="0"/><path d="M475.97287,234.80005v0v13z" data-paper-data="{&quot;origPos&quot;:null}" fill="#dbc19c" stroke="none" stroke-width="0"/><path d="M469.05629,222.33342c0,-2.76142 2.58055,-5 5.76382,-5c3.18326,0 5.76382,2.23858 5.76382,5c0,2.76142 -2.58055,5 -5.76382,5c-3.18326,0 -5.76382,-2.23858 -5.76382,-5z" data-paper-data="{&quot;origPos&quot;:null}" fill="#c0a988" stroke="none" stroke-width="0.5"/><path d="M403,259.33337c0,-2.76142 2.23858,-5 5,-5c2.76142,0 5,2.23858 5,5c0,2.76142 -2.23858,5 -5,5c-2.76142,0 -5,-2.23858 -5,-5z" data-paper-data="{&quot;origPos&quot;:null}" fill="#c0a988" stroke="none" stroke-width="0.5"/><path d="M427,237.33342c0,-5.52285 4.47715,-10 10,-10c5.52285,0 10,4.47715 10,10c0,5.52285 -4.47715,10 -10,10c-5.52285,0 -10,-4.47715 -10,-10z" data-paper-data="{&quot;origPos&quot;:null}" fill="#b39d7f" stroke="none" stroke-width="0.5"/><g data-paper-data="{&quot;origPos&quot;:null}" stroke="none" stroke-width="0"><path d="M339.39034,315.03612l-9.83337,-137.61497l19.65958,9.1538l13.76347,-13.7419l14.89976,1.13515l9.83337,137.61497z" data-paper-data="{&quot;origPos&quot;:null,&quot;origRot&quot;:0}" fill="#696053"/><path d="M349.21652,186.57496l13.76348,-13.7419l14.89976,1.13515l9.83337,137.61497z" data-paper-data="{&quot;origPos&quot;:null,&quot;origRot&quot;:0}" fill="#696053"/><path d="M333.33011,309.47434l-9.83337,-137.61497l19.65958,9.1538l13.76348,-13.7419l14.89976,1.13515l9.83337,137.61498z" data-paper-data="{&quot;origPos&quot;:null,&quot;origRot&quot;:0}" fill="#8b7f6e"/><path d="M343.1563,181.01317l13.76348,-13.74191l14.89976,1.13515l9.83337,137.61498z" data-paper-data="{&quot;origPos&quot;:null,&quot;origRot&quot;:0}" fill="#817666"/><path d="M346.76256,417.40466l-9.83337,-137.61497l19.65958,9.1538l13.76347,-13.7419l14.89976,1.13515l9.83337,137.61497z" data-paper-data="{&quot;origPos&quot;:null,&quot;origRot&quot;:0}" fill="#696053"/><path d="M356.58874,288.94349l13.76348,-13.7419l14.89976,1.13515l9.83337,137.61497z" data-paper-data="{&quot;origPos&quot;:null,&quot;origRot&quot;:0}" fill="#696053"/><path d="M340.70233,412.89606l-9.83337,-137.61497l19.65958,9.1538l13.76348,-13.7419l14.89976,1.13515l9.83337,137.61498z" data-paper-data="{&quot;origPos&quot;:null,&quot;origRot&quot;:0}" fill="#8b7f6e"/><path d="M354.39808,525.61826l-9.83337,-137.61497l19.65958,9.1538l13.76347,-13.7419l14.89976,1.13515l9.83337,137.61497z" data-paper-data="{&quot;origPos&quot;:null,&quot;origRot&quot;:0}" fill="#696053"/><path d="M364.22426,397.15718l13.76348,-13.7419l14.89976,1.13515l9.83337,137.61497z" data-paper-data="{&quot;origPos&quot;:null,&quot;origRot&quot;:0}" fill="#696053"/><path d="M348.33785,521.10966l-9.83337,-137.61497l19.65958,9.1538l13.76348,-13.7419l14.89976,1.13515l9.83337,137.61498z" data-paper-data="{&quot;origPos&quot;:null,&quot;origRot&quot;:0}" fill="#8b7f6e"/></g><g data-paper-data="{&quot;origPos&quot;:null,&quot;index&quot;:null,&quot;origRot&quot;:0}" stroke="none" stroke-width="0"><path d="M514.66346,312.85652l5.66428,-150.41586l16.20488,-1.78541l15.51267,14.47821l21.10021,-10.70383l-5.66428,150.41586z" data-paper-data="{&quot;origPos&quot;:null,&quot;origRot&quot;:0}" fill="#696053"/><path d="M514.66345,312.8565l5.66428,-150.41586l16.20488,-1.7854l15.51267,14.47821z" data-paper-data="{&quot;origPos&quot;:null,&quot;origRot&quot;:0}" fill="#696053"/><path d="M522.90018,301.89153l5.66428,-150.41586l16.20488,-1.78541l15.51267,14.47821l21.10021,-10.70383l-5.66428,150.41586z" data-paper-data="{&quot;origPos&quot;:null,&quot;origRot&quot;:0}" fill="#8b7f6e"/><path d="M522.90016,301.89153l5.66428,-150.41586l16.20488,-1.7854l15.51267,14.47821z" data-paper-data="{&quot;origPos&quot;:null,&quot;origRot&quot;:0}" fill="#817666"/><path d="M509.66328,445.11367l5.66428,-150.41586l16.20488,-1.78541l15.51267,14.47821l21.10021,-10.70383l-5.66428,150.41586z" data-paper-data="{&quot;origPos&quot;:null,&quot;origRot&quot;:0}" fill="#696053"/><path d="M509.66326,445.11364l5.66428,-150.41586l16.20488,-1.7854l15.51267,14.47821z" data-paper-data="{&quot;origPos&quot;:null,&quot;origRot&quot;:0}" fill="#696053"/><path d="M517.89999,434.14867l5.66428,-150.41586l16.20488,-1.78541l15.51267,14.47821l21.10021,-10.70383l-5.66428,150.41586z" data-paper-data="{&quot;origPos&quot;:null,&quot;origRot&quot;:0}" fill="#8b7f6e"/><path d="M505.20364,567.17959l5.66428,-150.41586l16.20488,-1.78541l15.51267,14.47821l21.10021,-10.70383l-5.66428,150.41586z" data-paper-data="{&quot;origPos&quot;:null,&quot;origRot&quot;:0}" fill="#696053"/><path d="M505.20362,567.17959l5.66428,-150.41586l16.20488,-1.7854l15.51267,14.47821z" data-paper-data="{&quot;origPos&quot;:null,&quot;origRot&quot;:0}" fill="#696053"/><path d="M513.44035,556.21462l5.66428,-150.41586l16.20488,-1.78541l15.51267,14.47821l21.10021,-10.70383l-5.66428,150.41586z" data-paper-data="{&quot;origPos&quot;:null,&quot;origRot&quot;:0}" fill="#8b7f6e"/></g></g></g></svg>