<svg version="1.1" xmlns="http://www.w3.org/2000/svg" xmlns:xlink="http://www.w3.org/1999/xlink" width="568.25" height="533.80003"><g transform="translate(71.75,-14.3)"><g data-paper-data="{&quot;isPaintingLayer&quot;:true}" fill="none" fill-rule="nonzero" stroke="none" stroke-width="none" stroke-linecap="butt" stroke-linejoin="miter" stroke-miterlimit="10" stroke-dasharray="" stroke-dashoffset="0" font-family="none" font-weight="none" font-size="none" text-anchor="none" style="mix-blend-mode: normal"><path d="M186.5,16.8c0,-1.38071 1.11929,-2.5 2.5,-2.5c1.38071,0 2.5,1.11929 2.5,2.5c0,1.38071 -1.11929,2.5 -2.5,2.5c-1.38071,0 -2.5,-1.11929 -2.5,-2.5z" fill="none" stroke="none" stroke-width="0.5"/><path d="M-64,536.60004v-220c0,0 33.04718,0 54.1991,0c63.4557,0 496.13024,0 496.13024,0v220z" data-paper-data="{&quot;origPos&quot;:null}" fill="#517acc" stroke="#496db6" stroke-width="15.5"/><path d="M-57.32934,544.60004v-220c0,0 33.04718,0 54.1991,0c63.4557,0 496.13024,0 496.13024,0v220z" data-paper-data="{&quot;origPos&quot;:null}" fill="#517acc" stroke="#4c72bd" stroke-width="7"/></g></g></svg>