<svg version="1.1" xmlns="http://www.w3.org/2000/svg" xmlns:xlink="http://www.w3.org/1999/xlink" width="871.23238" height="861.34607"><defs><linearGradient x1="547.46494" y1="204.83471" x2="547.46494" y2="224.83471" gradientUnits="userSpaceOnUse" id="color-1"><stop offset="0" stop-color="#6e6e6e"/><stop offset="1" stop-color="#6e6e6e"/></linearGradient></defs><g transform="translate(233.23238,-37.16016)"><g data-paper-data="{&quot;isPaintingLayer&quot;:true}" fill="none" fill-rule="nonzero" stroke="none" stroke-width="none" stroke-linecap="butt" stroke-linejoin="miter" stroke-miterlimit="10" stroke-dasharray="" stroke-dashoffset="0" font-family="none" font-weight="none" font-size="none" text-anchor="none" style="mix-blend-mode: normal"><path d="M-177.22387,199.126l-0.31439,-82.9992l327.84748,-1.67329l0.31439,82.9992z" data-paper-data="{&quot;origPos&quot;:null,&quot;index&quot;:null}" fill="#a4cf93" stroke="#708569" stroke-width="10"/><path d="M-189.68479,198.18957l-0.17803,-46.99955l353.86712,-1.80609l0.17802,46.99955z" data-paper-data="{&quot;origPos&quot;:null,&quot;index&quot;:null}" fill="#9dc78d" stroke="none" stroke-width="0"/><path d="M-190.28499,123.52523l-0.01263,-3.3333l380.93292,-1.94423l0.01263,3.3333z" data-paper-data="{&quot;origPos&quot;:null,&quot;index&quot;:null}" fill="#65815b" stroke="none" stroke-width="0"/><path d="M139.77613,174.12599l-0.31439,-82.9992l135.71474,-0.69267c0.30287,2.00533 0.8521,3.98507 0.95958,6.00991c0.16533,3.11462 -0.3476,6.24419 -0.13606,9.35601c0.54398,8.00211 2.01115,15.99397 2.72308,23.99998c-9.24103,0 -18.48205,0 -27.72308,0c-3.95854,0 -7.75529,0.35412 -11.64399,1.13606c-1.60803,0.32334 -3.43252,0.22927 -4.78137,1.16251c-2.9206,2.02072 -7.29138,3.65461 -7.89515,7.15442c-1.52054,8.81411 -1.70542,10.59224 2,17.594c0.33997,0.64241 0.80637,1.27788 1.31162,1.88521c0.00324,0.02373 0.00622,0.04637 0.00888,0.06779c0.18487,1.4875 0.50164,2.95612 0.79857,4.42536c0.13613,0.67357 0.41281,1.31837 0.5,2c0.02198,0.17183 -0.2663,-0.59555 -0.29857,-0.42536c-0.425,2.24139 0,5.22955 0,7.5c0,0.45346 0,0.90692 0,1.36037z" data-paper-data="{&quot;origPos&quot;:null,&quot;index&quot;:null}" fill="#a4cf93" stroke="#708569" stroke-width="10"/><path d="M130.16577,167.86211l-3.09025,-42.49959l271.73681,-0.07215c0.08726,0.38322 0.15393,0.76761 0.19131,1.15362c0.30161,3.11462 -0.63412,6.24419 -0.24821,9.35601c0.99237,8.00211 3.6689,15.99398 4.96766,24c-16.85823,0 -33.71642,0 -50.57465,0c-7.22148,0 -14.14782,0.35412 -21.24189,1.13606c-2.93349,0.32334 -6.26187,0.22927 -8.72255,1.16251c-4.53941,1.72164 -10.99917,3.16247 -13.49312,5.71574z" data-paper-data="{&quot;origPos&quot;:null}" fill="#a4cf93" stroke="none" stroke-width="0"/><path d="M126.71384,98.52523l-0.01146,-3.3333l149.19152,-0.8391c0.11467,0.69361 0.20492,1.3897 0.24216,2.09119c0.02194,0.4133 0.03194,0.82686 0.03327,1.24062z" data-paper-data="{&quot;origPos&quot;:null,&quot;index&quot;:null}" fill="#65815b" stroke="none" stroke-width="0"/><path d="M581.59173,138.30137c0.17996,14.6285 0.17029,29.29852 0.87507,43.8936c1.90186,39.38518 5.0621,78.75606 7.77075,118.10641h-161.80564c0.05624,-0.08843 0.11723,-0.17326 0.18333,-0.25413c0.82194,-2.87678 0.43142,-6.62762 1.38476,-9.24721c0.0585,-0.16074 0.40744,0.3138 0.48683,0.16228c0.9644,-1.84063 1.55708,-5.77109 1.87711,-7.51829c0.36106,-1.97117 0.56471,-3.97591 0.63092,-5.97913c0.49042,0.1516 0.34752,-0.99867 0.49197,-1.50258c0.72864,-2.54177 1.29554,-5.11131 1.81897,-7.70112c1.15149,-5.69726 0.69419,-11.66673 0.69419,-17.46116c0,-3.52405 -0.52218,-7.5186 0,-11c0.3779,-2.51951 0.90971,-4.22822 1,-7c0.27082,-8.31352 0,-16.68229 0,-25c0,-5.60887 0.47822,-11.41574 0,-17c-0.26459,-3.08967 -0.86826,-6.14642 -1.07722,-9.24035c-0.23975,-3.54973 0.43137,-7.20835 0.07722,-10.75965c-0.56328,-5.64835 -2,-10.8429 -2,-16.5c0,-3.30696 -0.16168,-5.63886 -0.97177,-8.99233c0.42909,0.09601 -0.02823,-1.01796 -0.02823,-1.50767c0,-0.5 0,-1 0,-1.5c0,-1.37342 -0.21084,-2.69406 -0.51385,-3.99867z" data-paper-data="{&quot;origPos&quot;:null,&quot;index&quot;:null}" fill="#dbc19c" stroke="#b39d7f" stroke-width="10"/><path d="M437,374.8v-59h55v59z" data-paper-data="{&quot;origPos&quot;:null}" fill="#898989" stroke="#6f6f6f" stroke-width="10"/><path d="M581.59173,138.30137c0.17996,14.6285 0.17029,29.29852 0.87507,43.8936c1.90186,39.38518 5.0621,78.75606 7.77075,118.10641h-161.80564c0.05624,-0.08843 0.11723,-0.17326 0.18333,-0.25413c0.82194,-2.87678 0.43142,-6.62762 1.38476,-9.24721c0.0585,-0.16074 0.40744,0.3138 0.48683,0.16228c0.9644,-1.84063 1.55708,-5.77109 1.87711,-7.51829c0.36106,-1.97117 0.56471,-3.97591 0.63092,-5.97913c0.49042,0.1516 0.34752,-0.99867 0.49197,-1.50258c0.72864,-2.54177 1.29554,-5.11131 1.81897,-7.70112c1.15149,-5.69726 0.69419,-11.66673 0.69419,-17.46116c0,-3.52405 -0.52218,-7.5186 0,-11c0.3779,-2.51951 0.90971,-4.22822 1,-7c0.27082,-8.31352 0,-16.68229 0,-25c0,-5.60887 0.47822,-11.41574 0,-17c-0.26459,-3.08967 -0.86826,-6.14642 -1.07722,-9.24035c-0.23975,-3.54973 0.43137,-7.20835 0.07722,-10.75965c-0.56328,-5.64835 -2,-10.8429 -2,-16.5c0,-3.30696 -0.16168,-5.63886 -0.97177,-8.99233c0.42909,0.09601 -0.02823,-1.01796 -0.02823,-1.50767c0,-0.5 0,-1 0,-1.5c0,-1.37342 -0.21084,-2.69406 -0.51385,-3.99867z" data-paper-data="{&quot;origPos&quot;:null,&quot;index&quot;:null}" fill="#949494" stroke="#6f6f6f" stroke-width="10"/><path d="M581.64717,143.30137c0.01127,1.11096 0.02204,2.22209 0.03271,3.33333h-148.35374c-0.08795,-0.42656 -0.18684,-0.86717 -0.29792,-1.32699c0.42909,0.09601 -0.02823,-1.01796 -0.02823,-1.50767c0,-0.16622 0,-0.33245 0,-0.49867z" data-paper-data="{&quot;origPos&quot;:null,&quot;index&quot;:null}" fill="#454545" stroke="none" stroke-width="0"/><path d="M606.14138,143.30139c0.10218,1.11095 0.20031,2.22206 0.29396,3.33333h-4.75672c-0.01052,-1.11123 -0.02111,-2.22236 -0.03215,-3.33333z" data-paper-data="{&quot;origPos&quot;:null,&quot;index&quot;:null}" fill="#454545" stroke="none" stroke-width="0"/><path d="M582.11843,208.30137c0.09173,2.96697 0.20533,5.93183 0.34835,8.8936c1.74076,36.04904 4.53575,72.0861 7.07376,108.10641h-158.75538c0.79038,-1.99972 1.29316,-5.29802 1.57878,-6.85735c0.36106,-1.97117 0.56471,-3.97591 0.63092,-5.97913c0.49042,0.1516 0.34752,-0.99867 0.49197,-1.50258c0.72864,-2.54177 1.29554,-5.11131 1.81897,-7.70112c1.15149,-5.69726 0.69419,-11.66673 0.69419,-17.46116c0,-3.52405 -0.52218,-7.5186 0,-11c0.3779,-2.51951 0.90971,-4.22822 1,-7c0.27082,-8.31352 0,-16.68229 0,-25c0,-5.60887 0.47822,-11.41574 0,-17c-0.26459,-3.08967 -0.86826,-6.14642 -1.07722,-9.24035c-0.18379,-2.72125 0.16772,-5.50649 0.18226,-8.25832z" data-paper-data="{&quot;origPos&quot;:null,&quot;index&quot;:null}" fill="#8d8d8d" stroke="none" stroke-width="0"/><path d="M411.06948,459.70134c-0.33985,-2.87169 -0.6816,-5.74313 -1.02626,-8.61421c0.00618,-2.31851 -0.04322,-4.66839 -0.04322,-7.08712c0,-1.9882 -0.69573,-5.14872 0.61524,-6.75279c0.82194,-2.87678 0.43142,-6.62762 1.38476,-9.24721c0.0585,-0.16074 0.40744,0.3138 0.48683,0.16228c0.9644,-1.84063 1.55708,-5.77109 1.87711,-7.51829c0.36106,-1.97117 0.56471,-3.97591 0.63092,-5.97913c0.49042,0.1516 0.34752,-0.99867 0.49197,-1.50258c0.72864,-2.54177 1.29554,-5.11131 1.81897,-7.70112c1.15149,-5.69726 0.69419,-11.66673 0.69419,-17.46116c0,-3.52405 -0.52218,-7.5186 0,-11c0.3779,-2.51951 0.90971,-4.22822 1,-7c0.27082,-8.31352 0,-16.68229 0,-25c0,-0.76291 0.00885,-1.52948 0.02293,-2.29866h146.70317c2.11038,35.64016 4.97522,71.26762 7.32683,106.87773c0.22284,3.37433 0.44308,6.74845 0.66228,10.12228z" data-paper-data="{&quot;origPos&quot;:null,&quot;index&quot;:null}" fill="#898989" stroke="none" stroke-width="0"/><path d="M414.22144,205.50138h2.8051c-0.0163,0.77019 -0.02654,1.53688 -0.02654,2.29866c0,5.83333 0,11.66667 0,17.5c0,1.10324 0.09761,2.392 0.17506,3.65869c-0.99281,-7.81836 -1.97728,-15.63741 -2.95362,-23.45734z" data-paper-data="{&quot;origPos&quot;:null,&quot;index&quot;:null}" fill="#898989" stroke="none" stroke-width="0"/><path d="M269.46494,364.80138c-1.38071,0 -2.5,-1.11929 -2.5,-2.5c0,-1.38071 1.11929,-2.5 2.5,-2.5c1.38071,0 2.5,1.11929 2.5,2.5c0,1.38071 -1.11929,2.5 -2.5,2.5z" data-paper-data="{&quot;origPos&quot;:null,&quot;index&quot;:null}" fill="#6e6e6e" stroke="none" stroke-width="0.5"/><path d="M539.46494,181.8347c-2.76142,0 -5,-2.23858 -5,-5c0,-2.76142 2.23858,-5 5,-5c2.76142,0 5,2.23858 5,5c0,2.76142 -2.23858,5 -5,5z" data-paper-data="{&quot;origPos&quot;:null,&quot;index&quot;:null}" fill="#6e6e6e" stroke="none" stroke-width="0.5"/><path d="M547.46494,224.83471c-5.52285,0 -10,-4.47715 -10,-10c0,-5.52285 4.47715,-10 10,-10c5.52285,0 10,4.47715 10,10c0,5.52285 -4.47715,10 -10,10z" data-paper-data="{&quot;origPos&quot;:null,&quot;index&quot;:null}" fill="url(#color-1)" stroke="none" stroke-width="0.5"/><path d="M462.46494,188.80138c-1.38071,0 -2.5,-1.11929 -2.5,-2.5c0,-1.38071 1.11929,-2.5 2.5,-2.5c1.38071,0 2.5,1.11929 2.5,2.5c0,1.38071 -1.11929,2.5 -2.5,2.5z" data-paper-data="{&quot;origPos&quot;:null,&quot;index&quot;:null}" fill="#6e6e6e" stroke="none" stroke-width="0.5"/><path d="M430,472.8v-195h208v195z" data-paper-data="{&quot;origPos&quot;:null}" fill="#898989" stroke="none" stroke-width="0"/><path d="M415.46494,212.80138c0.57865,0 1.11139,0.1966 1.53506,0.52664c0,1.31558 0,2.63115 0,3.94673c-0.35014,0.27276 -0.77477,0.45438 -1.23825,0.5092c-0.20831,-1.65376 -0.41626,-3.30755 -0.62383,-4.96137c0.10703,-0.01398 0.21618,-0.0212 0.32702,-0.0212z" data-paper-data="{&quot;origPos&quot;:null,&quot;index&quot;:null}" fill="#6e6e6e" stroke="none" stroke-width="0.5"/><path d="M432.30922,89.4535l0.18516,48.88344c-0.28572,-1.23731 -0.65529,-2.45992 -1.00755,-3.69918c-2.06692,-7.27145 -3.05683,-14.97544 -4.50213,-22.38264c-1.27674,-6.54327 -3.03969,-13.01018 -3.83021,-19.62981c-0.12386,-1.03719 -0.17881,-2.0795 -0.20429,-3.12404z" data-paper-data="{&quot;origPos&quot;:null,&quot;index&quot;:null}" fill="#a4cf93" stroke="#708569" stroke-width="10"/><path d="M437.02859,95.19548l0.69396,42.49959l-5.38302,0.00261c-0.25788,-1.02042 -0.56121,-2.03447 -0.8527,-3.05992c-2.06692,-7.27145 -3.05683,-14.97544 -4.50213,-22.38264c-1.11061,-5.69188 -2.58915,-11.32598 -3.47545,-17.05309z" data-paper-data="{&quot;origPos&quot;:null}" fill="#a4cf93" stroke="none" stroke-width="0"/><path d="M438.00832,124.38392l0.174,46.99955l-2.13234,0.01113c-0.0137,-0.1985 -0.03025,-0.3967 -0.04998,-0.59457c-0.56328,-5.64835 -2,-10.8429 -2,-16.5c0,-3.30696 -0.16168,-5.63886 -0.97177,-8.99233c0.42909,0.09601 -0.02823,-1.01796 -0.02823,-1.50767c0,-0.5 0,-1 0,-1.5c0,-2.66322 -0.79278,-5.12794 -1.51317,-7.66228c-0.94799,-3.33504 -1.66942,-6.76106 -2.31214,-10.20771z" data-paper-data="{&quot;origPos&quot;:null,&quot;index&quot;:null}" fill="#9dc78d" stroke="none" stroke-width="0"/><path d="M437.38647,93.2477l0.01146,3.3333l-13.6509,0.07678c-0.18986,-1.1068 -0.36054,-2.21661 -0.50506,-3.33052z" data-paper-data="{&quot;origPos&quot;:null,&quot;index&quot;:null}" fill="#65815b" stroke="none" stroke-width="0"/><g data-paper-data="{&quot;origPos&quot;:null,&quot;index&quot;:null,&quot;origRot&quot;:0}" stroke="none" stroke-width="0"><path d="M393.9798,527.78311l-0.24616,-150.52227l20.70124,11.45643l16.02378,-13.91043l16.13011,2.36757l0.24616,150.52227z" data-paper-data="{&quot;origPos&quot;:null,&quot;origRot&quot;:0}" fill="#696053"/><path d="M414.4349,388.71735l16.02378,-13.91043l16.13011,2.36756l0.24616,150.52227z" data-paper-data="{&quot;origPos&quot;:null,&quot;origRot&quot;:0}" fill="#696053"/><path d="M386.14313,516.52879l-0.24616,-150.52227l20.70124,11.45643l16.02378,-13.91043l16.13011,2.36757l0.24616,150.52227z" data-paper-data="{&quot;origPos&quot;:null,&quot;origRot&quot;:0}" fill="#8b7f6e"/><path d="M406.59822,377.46298l16.02378,-13.91043l16.13011,2.36756l0.24616,150.52227z" data-paper-data="{&quot;origPos&quot;:null,&quot;origRot&quot;:0}" fill="#8b7f6e"/><path d="M393.59974,661.16635l-0.24616,-150.52227l20.70124,11.45643l16.02378,-13.91043l16.13011,2.36757l0.24616,150.52227z" data-paper-data="{&quot;origPos&quot;:null,&quot;origRot&quot;:0}" fill="#696053"/><path d="M414.05483,522.10052l16.02378,-13.91043l16.13011,2.36756l0.24616,150.52227z" data-paper-data="{&quot;origPos&quot;:null,&quot;origRot&quot;:0}" fill="#696053"/><path d="M393.97027,789.50623l-0.24616,-150.52227l20.70124,11.45643l16.02378,-13.91043l16.13011,2.36757l0.24616,150.52227z" data-paper-data="{&quot;origPos&quot;:null,&quot;origRot&quot;:0}" fill="#696053"/><path d="M414.42537,650.44035l16.02378,-13.91043l16.13011,2.36756l0.24616,150.52227z" data-paper-data="{&quot;origPos&quot;:null,&quot;origRot&quot;:0}" fill="#696053"/><path d="M386.79945,778.21878l-0.24616,-150.52227l20.70124,11.45643l16.02378,-13.91043l16.13011,2.36757l0.24616,150.52227z" data-paper-data="{&quot;origPos&quot;:null,&quot;origRot&quot;:0}" fill="#8b7f6e"/><path d="M386.42891,649.87893l-0.24616,-150.52227l20.70124,11.45643l16.02378,-13.91043l16.13011,2.36757l0.24616,150.52227z" data-paper-data="{&quot;origPos&quot;:null,&quot;origRot&quot;:0}" fill="#8b7f6e"/></g><g data-paper-data="{&quot;origPos&quot;:null,&quot;index&quot;:null,&quot;origRot&quot;:0}" stroke="none" stroke-width="0"><path d="M567.77925,310.39077l-0.24616,-150.52227l20.70124,11.45643l16.02378,-13.91043l16.13011,2.36757l0.24616,150.52227z" data-paper-data="{&quot;origPos&quot;:null,&quot;origRot&quot;:0}" fill="#696053"/><path d="M588.23434,171.32495l16.02378,-13.91043l16.13011,2.36756l0.24616,150.52227z" data-paper-data="{&quot;origPos&quot;:null,&quot;origRot&quot;:0}" fill="#696053"/><path d="M559.94258,299.13644l-0.24616,-150.52227l20.70124,11.45643l16.02378,-13.91043l16.13011,2.36757l0.24616,150.52227z" data-paper-data="{&quot;origPos&quot;:null,&quot;origRot&quot;:0}" fill="#8b7f6e"/><path d="M580.39767,160.07059l16.02378,-13.91043l16.13011,2.36756l0.24616,150.52227z" data-paper-data="{&quot;origPos&quot;:null,&quot;origRot&quot;:0}" fill="#8b7f6e"/><path d="M567.39919,443.77405l-0.24616,-150.52227l20.70124,11.45643l16.02378,-13.91043l16.13011,2.36757l0.24616,150.52227z" data-paper-data="{&quot;origPos&quot;:null,&quot;origRot&quot;:0}" fill="#696053"/><path d="M587.85428,304.70818l16.02378,-13.91043l16.13011,2.36756l0.24616,150.52227z" data-paper-data="{&quot;origPos&quot;:null,&quot;origRot&quot;:0}" fill="#696053"/><path d="M567.76972,572.11389l-0.24616,-150.52227l20.70124,11.45643l16.02378,-13.91043l16.13011,2.36757l0.24616,150.52227z" data-paper-data="{&quot;origPos&quot;:null,&quot;origRot&quot;:0}" fill="#696053"/><path d="M588.22481,433.04796l16.02378,-13.91043l16.13011,2.36756l0.24616,150.52227z" data-paper-data="{&quot;origPos&quot;:null,&quot;origRot&quot;:0}" fill="#696053"/><path d="M560.59889,560.82642l-0.24616,-150.52227l20.70124,11.45643l16.02378,-13.91043l16.13011,2.36757l0.24616,150.52227z" data-paper-data="{&quot;origPos&quot;:null,&quot;origRot&quot;:0}" fill="#8b7f6e"/><path d="M560.22836,432.48659l-0.24616,-150.52227l20.70124,11.45643l16.02378,-13.91043l16.13011,2.36757l0.24616,150.52227z" data-paper-data="{&quot;origPos&quot;:null,&quot;origRot&quot;:0}" fill="#8b7f6e"/></g><g data-paper-data="{&quot;origPos&quot;:null,&quot;index&quot;:null,&quot;origRot&quot;:0}" stroke="none" stroke-width="0"><path d="M567.9798,636.78311l-0.24616,-150.52227l20.70124,11.45643l16.02378,-13.91043l16.13011,2.36757l0.24616,150.52227z" data-paper-data="{&quot;origPos&quot;:null,&quot;origRot&quot;:0}" fill="#696053"/><path d="M588.4349,497.71735l16.02378,-13.91043l16.13011,2.36756l0.24616,150.52227z" data-paper-data="{&quot;origPos&quot;:null,&quot;origRot&quot;:0}" fill="#696053"/><path d="M560.14313,625.52879l-0.24616,-150.52227l20.70124,11.45643l16.02378,-13.91043l16.13011,2.36757l0.24616,150.52227z" data-paper-data="{&quot;origPos&quot;:null,&quot;origRot&quot;:0}" fill="#8b7f6e"/><path d="M580.59822,486.46298l16.02378,-13.91043l16.13011,2.36756l0.24616,150.52227z" data-paper-data="{&quot;origPos&quot;:null,&quot;origRot&quot;:0}" fill="#8b7f6e"/><path d="M567.59974,770.16635l-0.24616,-150.52227l20.70124,11.45643l16.02378,-13.91043l16.13011,2.36757l0.24616,150.52227z" data-paper-data="{&quot;origPos&quot;:null,&quot;origRot&quot;:0}" fill="#696053"/><path d="M588.05483,631.10052l16.02378,-13.91043l16.13011,2.36756l0.24616,150.52227z" data-paper-data="{&quot;origPos&quot;:null,&quot;origRot&quot;:0}" fill="#696053"/><path d="M567.97027,898.50623l-0.24616,-150.52227l20.70124,11.45643l16.02378,-13.91043l16.13011,2.36757l0.24616,150.52227z" data-paper-data="{&quot;origPos&quot;:null,&quot;origRot&quot;:0}" fill="#696053"/><path d="M588.42537,759.44035l16.02378,-13.91043l16.13011,2.36756l0.24616,150.52227z" data-paper-data="{&quot;origPos&quot;:null,&quot;origRot&quot;:0}" fill="#696053"/><path d="M560.79945,887.21878l-0.24616,-150.52227l20.70124,11.45643l16.02378,-13.91043l16.13011,2.36757l0.24616,150.52227z" data-paper-data="{&quot;origPos&quot;:null,&quot;origRot&quot;:0}" fill="#8b7f6e"/><path d="M560.42891,758.87893l-0.24616,-150.52227l20.70124,11.45643l16.02378,-13.91043l16.13011,2.36757l0.24616,150.52227z" data-paper-data="{&quot;origPos&quot;:null,&quot;origRot&quot;:0}" fill="#8b7f6e"/></g><path d="M-187.52011,540.18693l-1.31134,-346.19663l353.86712,-1.80609l1.31134,346.19665z" data-paper-data="{&quot;origPos&quot;:null,&quot;index&quot;:null}" fill="#97be87" stroke="none" stroke-width="0"/><path d="M122.05373,95.62798l-0.03978,-9.51026l21.53688,-0.09956l0.03977,9.51026c0,0 -14.96237,0.06917 -18.50825,0.08556c-1.18197,0.00546 -3.02863,0.014 -3.02863,0.014z" data-paper-data="{&quot;origPos&quot;:null}" fill="#708569" stroke="none" stroke-width="0"/><path d="M-226.00713,259.65853l-7.22523,-150.34896l15.99272,-3.16526l16.69447,13.09795l20.10709,-12.4698l7.22523,150.34896z" data-paper-data="{&quot;origPos&quot;:null,&quot;origRot&quot;:0}" fill="#696053" stroke="none" stroke-width="0"/><path d="M-226.00715,259.65853l-7.22523,-150.34896l15.99272,-3.16525l16.69447,13.09795z" data-paper-data="{&quot;origPos&quot;:null,&quot;origRot&quot;:0}" fill="#696053" stroke="none" stroke-width="0"/><path d="M-218.73872,248.02912l-7.22523,-150.34896l15.99272,-3.16526l16.69447,13.09795l20.10709,-12.4698l7.22523,150.34896z" data-paper-data="{&quot;origPos&quot;:null,&quot;origRot&quot;:0}" fill="#8b7f6e" stroke="none" stroke-width="0"/><path d="M-218.73874,248.02912l-7.22523,-150.34896l15.99272,-3.16525l16.69447,13.09795z" data-paper-data="{&quot;origPos&quot;:null,&quot;origRot&quot;:0}" fill="#817666" stroke="none" stroke-width="0"/><path d="M-219.00713,392.85858l-7.22523,-150.34896l15.99272,-3.16526l16.69447,13.09795l20.10709,-12.4698l7.22523,150.34896z" data-paper-data="{&quot;origPos&quot;:null,&quot;origRot&quot;:0}" fill="#696053" stroke="none" stroke-width="0"/><path d="M-219.00715,392.85858l-7.22523,-150.34896l15.99272,-3.16525l16.69447,13.09795z" data-paper-data="{&quot;origPos&quot;:null,&quot;origRot&quot;:0}" fill="#696053" stroke="none" stroke-width="0"/><path d="M-213.00713,521.05855l-7.22523,-150.34896l15.99272,-3.16526l16.69447,13.09795l20.10709,-12.4698l7.22523,150.34896z" data-paper-data="{&quot;origPos&quot;:null,&quot;origRot&quot;:0}" fill="#696053" stroke="none" stroke-width="0"/><path d="M-213.00715,521.05855l-7.22523,-150.34896l15.99272,-3.16525l16.69447,13.09795z" data-paper-data="{&quot;origPos&quot;:null,&quot;origRot&quot;:0}" fill="#696053" stroke="none" stroke-width="0"/><path d="M-206.40539,509.42913l-7.22523,-150.34896l15.99272,-3.16526l16.69447,13.09795l20.10709,-12.4698l7.22523,150.34896z" data-paper-data="{&quot;origPos&quot;:null,&quot;origRot&quot;:0}" fill="#8b7f6e" stroke="none" stroke-width="0"/><path d="M-212.40539,381.22912l-7.22523,-150.34896l15.99272,-3.16526l16.69447,13.09795l20.10709,-12.4698l7.22523,150.34896z" data-paper-data="{&quot;origPos&quot;:null,&quot;origRot&quot;:0}" fill="#8b7f6e" stroke="none" stroke-width="0"/><path d="M216.59974,689.1664l-0.24616,-150.52227l20.70124,11.45643l16.02378,-13.91043l16.13011,2.36757l0.24616,150.52227z" data-paper-data="{&quot;origPos&quot;:null,&quot;origRot&quot;:0}" fill="#696053" stroke="none" stroke-width="0"/><path d="M237.05483,550.10052l16.02378,-13.91043l16.13011,2.36756l0.24616,150.52227z" data-paper-data="{&quot;origPos&quot;:null,&quot;origRot&quot;:0}" fill="#696053" stroke="none" stroke-width="0"/><path d="M216.97027,817.50624l-0.24616,-150.52227l20.70124,11.45643l16.02378,-13.91043l16.13011,2.36757l0.24616,150.52227z" data-paper-data="{&quot;origPos&quot;:null,&quot;origRot&quot;:0}" fill="#696053" stroke="none" stroke-width="0"/><path d="M237.42537,678.44036l16.02378,-13.91043l16.13011,2.36756l0.24616,150.52227z" data-paper-data="{&quot;origPos&quot;:null,&quot;origRot&quot;:0}" fill="#696053" stroke="none" stroke-width="0"/><path d="M209.79945,806.21879l-0.24616,-150.52227l20.70124,11.45643l16.02378,-13.91043l16.13011,2.36757l0.24616,150.52227z" data-paper-data="{&quot;origPos&quot;:null,&quot;origRot&quot;:0}" fill="#8b7f6e" stroke="none" stroke-width="0"/><path d="M225,313.79999v-118h14v118z" data-paper-data="{&quot;origPos&quot;:null}" fill="#97be87" stroke="none" stroke-width="0"/><path d="M209.42891,677.87898l-0.24616,-150.52227l20.70124,11.45643l16.02378,-13.91043l16.13011,2.36757l0.24616,150.52227z" data-paper-data="{&quot;origPos&quot;:null,&quot;origRot&quot;:0}" fill="#8b7f6e" stroke="none" stroke-width="0"/><path d="M274.77613,173.62599l-0.31439,-82.9992l135.71474,-0.69267c0.30287,2.00533 0.8521,3.98507 0.95958,6.00991c0.16533,3.11462 -0.3476,6.24419 -0.13606,9.35601c0.54398,8.00211 2.01115,15.99397 2.72308,23.99998c-9.24103,0 -18.48205,0 -27.72308,0c-3.95854,0 -7.75529,0.35412 -11.64399,1.13606c-1.60803,0.32334 -3.43252,0.22927 -4.78137,1.16251c-2.9206,2.02072 -7.29138,3.65461 -7.89515,7.15442c-1.52054,8.81411 -1.70542,10.59224 2,17.594c0.33997,0.64241 0.80637,1.27788 1.31162,1.88521c0.00324,0.02373 0.00622,0.04637 0.00888,0.06779c0.18487,1.4875 0.50164,2.95612 0.79857,4.42536c0.13613,0.67357 0.41281,1.31837 0.5,2c0.02198,0.17183 -0.2663,-0.59555 -0.29857,-0.42536c-0.425,2.24139 0,5.22955 0,7.5c0,0.45346 0,0.90692 0,1.36037z" data-paper-data="{&quot;origPos&quot;:null,&quot;index&quot;:null}" fill="#a4cf93" stroke="#708569" stroke-width="10"/><path d="M261.71384,98.02523l-0.01146,-3.3333l149.19152,-0.8391c0.11467,0.69361 0.20492,1.3897 0.24216,2.09119c0.02194,0.4133 0.03194,0.82686 0.03327,1.24062z" data-paper-data="{&quot;origPos&quot;:null,&quot;index&quot;:null}" fill="#65815b" stroke="none" stroke-width="0"/><path d="M127.31119,173.18956l-0.17401,-46.99955c0,0 295.78631,-4.02466 294.43746,-3.09142c-2.9206,2.02072 -7.29138,42.65461 -7.89515,46.15442c-1.52054,8.81411 -175.70542,6.59224 -172,13.594c0.33997,0.64241 -12.19363,-24.72212 -11.68838,-24.11479c0.00324,0.02373 0.00622,0.04637 0.00888,0.06779c0.18487,1.4875 12.50164,33.95612 12.79857,35.42536c0.13613,0.67357 -3.58719,-6.68163 -3.5,-6c0.02198,0.17183 -8.2663,-23.59555 -8.29857,-23.42536c-0.425,2.24139 0,5.22955 0,7.5c0,0.11603 0,0.23206 0,0.34809z" data-paper-data="{&quot;origPos&quot;:null,&quot;index&quot;:null}" fill="#9dc78d" stroke="none" stroke-width="0"/><path d="M130,356.8v-191h274v191z" data-paper-data="{&quot;origPos&quot;:null}" fill="#97be87" stroke="none" stroke-width="0"/><path d="M128,126.8v-29h287v29z" fill="#a4cf93" stroke="none" stroke-width="0"/><g data-paper-data="{&quot;origPos&quot;:null,&quot;index&quot;:null,&quot;origRot&quot;:0}" stroke="none" stroke-width="0"><path d="M393.77925,201.39078l-0.24616,-150.52227l20.70124,11.45643l16.02378,-13.91043l16.13011,2.36757l0.24616,150.52227z" data-paper-data="{&quot;origPos&quot;:null,&quot;origRot&quot;:0}" fill="#696053"/><path d="M414.23434,62.32495l16.02378,-13.91043l16.13011,2.36756l0.24616,150.52227z" data-paper-data="{&quot;origPos&quot;:null,&quot;origRot&quot;:0}" fill="#696969"/><path d="M385.94258,190.13646l-0.24616,-150.52227l20.70124,11.45643l16.02378,-13.91043l16.13011,2.36757l0.24616,150.52227z" data-paper-data="{&quot;origPos&quot;:null,&quot;origRot&quot;:0}" fill="#8c8c8c"/><path d="M406.39767,51.07059l16.02378,-13.91043l16.13011,2.36756l0.24616,150.52227z" data-paper-data="{&quot;origPos&quot;:null,&quot;origRot&quot;:0}" fill="#828282"/><path d="M393.39919,334.77405l-0.24616,-150.52227l20.70124,11.45643l16.02378,-13.91043l16.13011,2.36757l0.24616,150.52227z" data-paper-data="{&quot;origPos&quot;:null,&quot;origRot&quot;:0}" fill="#696053"/><path d="M413.85428,195.70819l16.02378,-13.91043l16.13011,2.36756l0.24616,150.52227z" data-paper-data="{&quot;origPos&quot;:null,&quot;origRot&quot;:0}" fill="#696969"/><path d="M393.76972,463.11389l-0.24616,-150.52227l20.70124,11.45643l16.02378,-13.91043l16.13011,2.36757l0.24616,150.52227z" data-paper-data="{&quot;origPos&quot;:null,&quot;origRot&quot;:0}" fill="#696053"/><path d="M414.22481,324.04796l16.02378,-13.91043l16.13011,2.36756l0.24616,150.52227z" data-paper-data="{&quot;origPos&quot;:null,&quot;origRot&quot;:0}" fill="#696969"/><path d="M386.59889,451.82642l-0.24616,-150.52227l20.70124,11.45643l16.02378,-13.91043l16.13011,2.36757l0.24616,150.52227z" data-paper-data="{&quot;origPos&quot;:null,&quot;origRot&quot;:0}" fill="#8c8c8c"/><path d="M386.22836,323.48659l-0.24616,-150.52227l20.70124,11.45643l16.02378,-13.91043l16.13011,2.36757l0.24616,150.52227z" data-paper-data="{&quot;origPos&quot;:null,&quot;origRot&quot;:0}" fill="#8c8c8c"/></g></g></g></svg>