<svg version="1.1" xmlns="http://www.w3.org/2000/svg" xmlns:xlink="http://www.w3.org/1999/xlink" width="373.55301" height="442.47833"><g transform="translate(-113.36937,-164.69023)"><g data-paper-data="{&quot;isPaintingLayer&quot;:true}" fill="none" fill-rule="nonzero" stroke="none" stroke-width="none" stroke-linecap="butt" stroke-linejoin="miter" stroke-miterlimit="10" stroke-dasharray="" stroke-dashoffset="0" font-family="none" font-weight="none" font-size="none" text-anchor="none" style="mix-blend-mode: normal"><path d="M429.38595,188.80003v162h-256.27121c0.97199,-6.31682 1.85253,-12.64053 2.18794,-18.99999c0.7879,-14.9377 -1.03361,-29.72579 -4.84072,-44.51472c-3.20869,-12.24761 -3.91843,-24.49343 -6.1294,-36.80692c-0.85736,-4.77485 -2.67083,-9.48799 -3.47704,-14.26558c-2.15637,-12.77866 -1.77091,-25.5977 -1.77091,-38.41278c0,-2.98632 -0.10639,-5.99201 -0.19007,-9.00001z" data-paper-data="{&quot;origPos&quot;:null}" fill="#dbc19c" stroke="#b39d7f" stroke-width="10"/><path d="M429.38595,188.80003v162h-256.27121c0.97199,-6.31682 1.85253,-12.64053 2.18794,-18.99999c0.7879,-14.9377 -1.03361,-29.72579 -4.84072,-44.51472c-3.20869,-12.24761 -3.91843,-24.49343 -6.1294,-36.80692c-0.85736,-4.77485 -2.67083,-9.48799 -3.47704,-14.26558c-2.15637,-12.77866 -1.77091,-25.5977 -1.77091,-38.41278c0,-2.98632 -0.10639,-5.99201 -0.19007,-9.00001z" data-paper-data="{&quot;origPos&quot;:null}" fill="#dbc19c" stroke="#b39d7f" stroke-width="10"/><path d="M442.00001,193.80003v3.33333h-282.91712c-0.00561,-1.10891 -0.02453,-2.22031 -0.05018,-3.33333z" data-paper-data="{&quot;origPos&quot;:null}" fill="#81715b" stroke="none" stroke-width="0"/><path d="M422.17792,223.80001v117h-247.66869c0.35438,-2.99404 0.63487,-5.99302 0.79345,-8.99999c0.7879,-14.9377 -1.03361,-29.72579 -4.84072,-44.51472c-3.20869,-12.24761 -3.91843,-24.49343 -6.1294,-36.80692c-0.85736,-4.77485 -2.67083,-9.48799 -3.47704,-14.26558c-0.69758,-4.13387 -1.12915,-8.27197 -1.39383,-12.41279z" data-paper-data="{&quot;origPos&quot;:null}" fill="#d8bd99" stroke="none" stroke-width="0"/><path d="M422.17792,271.00003v128h-251.44742c1.48115,-12.76254 3.95359,-25.46006 4.57218,-38.2906c0.7879,-16.3421 -1.03361,-32.52052 -4.84072,-48.69986c-3.20869,-13.39909 -3.91843,-26.79623 -6.1294,-40.2674c-0.04061,-0.24752 -0.0834,-0.4949 -0.1281,-0.74214z" data-paper-data="{&quot;origPos&quot;:null}" fill="#d1b694" stroke="none" stroke-width="0"/><path d="M388.97288,235.80001v0v13z" data-paper-data="{&quot;origPos&quot;:null}" fill="#dbc19c" stroke="none" stroke-width="0"/><path d="M382.0563,223.33337c0,-2.76142 2.58055,-5 5.76382,-5c3.18326,0 5.76382,2.23858 5.76382,5c0,2.76142 -2.58055,5 -5.76382,5c-3.18326,0 -5.76382,-2.23858 -5.76382,-5z" data-paper-data="{&quot;origPos&quot;:null}" fill="#c0a988" stroke="none" stroke-width="0.5"/><path d="M316.00002,260.33333c0,-2.76142 2.23858,-5 5,-5c2.76142,0 5,2.23858 5,5c0,2.76142 -2.23858,5 -5,5c-2.76142,0 -5,-2.23858 -5,-5z" data-paper-data="{&quot;origPos&quot;:null}" fill="#c0a988" stroke="none" stroke-width="0.5"/><path d="M340.00001,238.33337c0,-5.52285 4.47715,-10 10,-10c5.52285,0 10,4.47715 10,10c0,5.52285 -4.47715,10 -10,10c-5.52285,0 -10,-4.47715 -10,-10z" data-paper-data="{&quot;origPos&quot;:null}" fill="#b39d7f" stroke="none" stroke-width="0.5"/><path d="M409.66348,327.85647l5.66428,-150.41586l16.20488,-1.78541l15.51267,14.47821l21.10021,-10.70383l-5.66428,150.41586z" data-paper-data="{&quot;origPos&quot;:null,&quot;origRot&quot;:0}" fill="#696053" stroke="none" stroke-width="0"/><path d="M409.66347,327.85646l5.66428,-150.41586l16.20488,-1.7854l15.51267,14.47821z" data-paper-data="{&quot;origPos&quot;:null,&quot;origRot&quot;:0}" fill="#696053" stroke="none" stroke-width="0"/><path d="M417.90019,316.8915l5.66428,-150.41586l16.20488,-1.78541l15.51267,14.47821l21.10021,-10.70383l-5.66428,150.41586z" data-paper-data="{&quot;origPos&quot;:null,&quot;origRot&quot;:0}" fill="#8b7f6e" stroke="none" stroke-width="0"/><path d="M417.90017,316.8915l5.66428,-150.41586l16.20488,-1.7854l15.51267,14.47821z" data-paper-data="{&quot;origPos&quot;:null,&quot;origRot&quot;:0}" fill="#817666" stroke="none" stroke-width="0"/><path d="M404.6633,460.11361l5.66428,-150.41586l16.20488,-1.78541l15.51267,14.47821l21.10021,-10.70383l-5.66428,150.41586z" data-paper-data="{&quot;origPos&quot;:null,&quot;origRot&quot;:0}" fill="#696053" stroke="none" stroke-width="0"/><path d="M404.66328,460.11358l5.66428,-150.41586l16.20488,-1.7854l15.51267,14.47821z" data-paper-data="{&quot;origPos&quot;:null,&quot;origRot&quot;:0}" fill="#696053" stroke="none" stroke-width="0"/><path d="M412.90001,449.14862l5.66428,-150.41586l16.20488,-1.78541l15.51267,14.47821l21.10021,-10.70383l-5.66428,150.41586z" data-paper-data="{&quot;origPos&quot;:null,&quot;origRot&quot;:0}" fill="#8b7f6e" stroke="none" stroke-width="0"/><path d="M420.20366,605.17959l5.66428,-150.41586l16.20488,-1.78541l15.51267,14.47821l21.10021,-10.70383l-5.66428,150.41586z" data-paper-data="{&quot;origPos&quot;:null,&quot;origRot&quot;:0}" fill="#696053" stroke="none" stroke-width="0"/><path d="M420.20364,605.17959l5.66428,-150.41586l16.20488,-1.7854l15.51267,14.47821z" data-paper-data="{&quot;origPos&quot;:null,&quot;origRot&quot;:0}" fill="#696053" stroke="none" stroke-width="0"/><path d="M428.44035,594.21462l5.66428,-150.41586l16.20488,-1.78541l15.51267,14.47821l21.10021,-10.70383l-5.66428,150.41586z" data-paper-data="{&quot;origPos&quot;:null,&quot;origRot&quot;:0}" fill="#8b7f6e" stroke="none" stroke-width="0"/><path d="M120.00002,472.80004v0v13z" data-paper-data="{&quot;origPos&quot;:null}" fill="#dbc19c" stroke="none" stroke-width="0"/><g data-paper-data="{&quot;index&quot;:null,&quot;origPos&quot;:null}" stroke="none" stroke-width="0"><path d="M127.92796,328.65852l-7.22523,-150.34896l15.99272,-3.16526l16.69447,13.09795l20.10709,-12.4698l7.22523,150.34896z" data-paper-data="{&quot;origPos&quot;:null,&quot;origRot&quot;:0}" fill="#696053"/><path d="M127.92794,328.65851l-7.22523,-150.34896l15.99272,-3.16525l16.69447,13.09795z" data-paper-data="{&quot;origPos&quot;:null,&quot;origRot&quot;:0}" fill="#696053"/><path d="M129.32623,329.65852l-7.22523,-150.34896l15.99272,-3.16526l16.69447,13.09795l20.10709,7.5302l7.22523,130.34896z" data-paper-data="{&quot;origPos&quot;:null,&quot;origRot&quot;:0}" fill="#696053"/><path d="M129.3262,329.65851l-7.22523,-150.34896l15.99272,-3.16525l16.69447,13.09795z" data-paper-data="{&quot;origPos&quot;:null,&quot;origRot&quot;:0}" fill="#696053"/><path d="M120.59463,322.02907l-7.22523,-150.34896l15.99272,-3.16526l16.69447,13.09795l20.10709,-12.4698l7.22523,150.34896z" data-paper-data="{&quot;origPos&quot;:null,&quot;origRot&quot;:0}" fill="#8b7f6e"/><path d="M120.59461,322.02905l-7.22523,-150.34896l15.99272,-3.16525l16.69447,13.09795z" data-paper-data="{&quot;origPos&quot;:null,&quot;origRot&quot;:0}" fill="#817666"/><path d="M135.32623,462.85853l-7.22523,-150.34896l15.99272,-3.16526l16.69447,13.09795l20.10709,-12.4698l7.22523,150.34896z" data-paper-data="{&quot;origPos&quot;:null,&quot;origRot&quot;:0}" fill="#696053"/><path d="M135.3262,462.85849l-7.22523,-150.34896l15.99272,-3.16525l16.69447,13.09795z" data-paper-data="{&quot;origPos&quot;:null,&quot;origRot&quot;:0}" fill="#696053"/><path d="M126.92796,455.22907l-7.22523,-150.34896l15.99272,-3.16526l16.69447,13.09795l20.10709,-12.4698l7.22523,150.34896z" data-paper-data="{&quot;origPos&quot;:null,&quot;origRot&quot;:0,&quot;index&quot;:null}" fill="#8b7f6e"/><path d="M141.32623,576.85853l-7.22523,-150.34896l15.99272,-3.16526l16.69447,13.09795l20.10709,-12.4698l7.22523,150.34896z" data-paper-data="{&quot;origPos&quot;:null,&quot;origRot&quot;:0}" fill="#696053"/><path d="M141.3262,576.85849l-7.22523,-150.34896l15.99272,-3.16525l16.69447,13.09795z" data-paper-data="{&quot;origPos&quot;:null,&quot;origRot&quot;:0}" fill="#696053"/><path d="M132.92796,569.22903l-7.22523,-150.34896l15.99272,-3.16526l16.69447,13.09795l20.10709,-12.4698l7.22523,150.34896z" data-paper-data="{&quot;origPos&quot;:null,&quot;origRot&quot;:0,&quot;index&quot;:null}" fill="#8b7f6e"/><path d="M141.00002,451.80004v-13v0z" data-paper-data="{&quot;origPos&quot;:null}" fill="#dbc19c"/></g></g></g></svg>