<svg version="1.1" xmlns="http://www.w3.org/2000/svg" xmlns:xlink="http://www.w3.org/1999/xlink" width="549.5903" height="250.43602"><g transform="translate(42.1194,-248.36398)"><g data-paper-data="{&quot;isPaintingLayer&quot;:true}" fill="none" fill-rule="nonzero" stroke="none" stroke-width="none" stroke-linecap="butt" stroke-linejoin="miter" stroke-miterlimit="10" stroke-dasharray="" stroke-dashoffset="0" font-family="none" font-weight="none" font-size="none" text-anchor="none" style="mix-blend-mode: normal"><path d="M6.16111,438.84127v-167.47094h459.14105v167.47094z" data-paper-data="{&quot;origPos&quot;:null}" fill="#dbc19c" stroke="#b39d7f" stroke-width="10"/><path d="M-37.11939,438.84127v-167.47094h502.42155v167.47094z" data-paper-data="{&quot;origPos&quot;:null}" fill="#a4cf93" stroke="#708569" stroke-width="10"/><path d="M-36.98689,278.95133v-3.4459h525.64362v3.4459z" data-paper-data="{&quot;origPos&quot;:null}" fill="#65815b" stroke="none" stroke-width="0"/><path d="M-24.81269,428.50356v-120.95123h495.58081v120.95123z" data-paper-data="{&quot;origPos&quot;:null}" fill="#9dc78d" stroke="none" stroke-width="0"/><path d="M-23.18946,498.80001v-158.167h495.58081v158.167z" data-paper-data="{&quot;origPos&quot;:null}" fill="#97be87" stroke="none" stroke-width="0"/><path d="M404.00002,438.8c0,-2.76142 2.23858,-5 5,-5c2.76142,0 5,2.23858 5,5c0,2.76142 -2.23858,5 -5,5c-2.76142,0 -5,-2.23858 -5,-5z" data-paper-data="{&quot;origPos&quot;:null}" fill="#9dc78d" stroke="none" stroke-width="0.5"/><path d="M333.00002,445.8c0,-2.76142 2.23858,-5 5,-5c2.76142,0 5,2.23858 5,5c0,2.76142 -2.23858,5 -5,5c-2.76142,0 -5,-2.23858 -5,-5z" data-paper-data="{&quot;origPos&quot;:null}" fill="#9dc78d" stroke="none" stroke-width="0.5"/><path d="M446.49676,385.38965l9.33689,-130.66684l14.14748,-1.07784l13.06856,13.04808l18.66697,-8.69163l-9.33689,130.66684z" data-paper-data="{&quot;origPos&quot;:null,&quot;origRot&quot;:0}" fill="#696053" stroke="none" stroke-width="0"/><path d="M446.49677,385.38965l9.33689,-130.66684l14.14748,-1.07784l13.06857,13.04808z" data-paper-data="{&quot;origPos&quot;:null,&quot;origRot&quot;:0}" fill="#696053" stroke="none" stroke-width="0"/><path d="M452.251,380.10868l9.33689,-130.66685l14.14748,-1.07784l13.06857,13.04808l18.66697,-8.69163l-9.33689,130.66684z" data-paper-data="{&quot;origPos&quot;:null,&quot;origRot&quot;:0}" fill="#8b7f6e" stroke="none" stroke-width="0"/><path d="M452.25101,380.10868l9.33689,-130.66685l14.14748,-1.07784l13.06857,13.04809z" data-paper-data="{&quot;origPos&quot;:null,&quot;origRot&quot;:0}" fill="#817666" stroke="none" stroke-width="0"/><path d="M439.49676,482.58965l9.33689,-130.66684l14.14748,-1.07784l13.06856,13.04808l18.66697,-8.69163l-9.33689,130.66684z" data-paper-data="{&quot;origPos&quot;:null,&quot;origRot&quot;:0}" fill="#696053" stroke="none" stroke-width="0"/><path d="M440.49677,482.58965l9.33689,-130.66684l14.14748,-1.07784l13.06857,13.04808z" data-paper-data="{&quot;origPos&quot;:null,&quot;origRot&quot;:0}" fill="#696053" stroke="none" stroke-width="0"/><path d="M445.251,478.30868l9.33689,-130.66685l14.14748,-1.07784l13.06857,13.04808l18.66697,-8.69163l-9.33689,130.66684z" data-paper-data="{&quot;origPos&quot;:null,&quot;origRot&quot;:0}" fill="#8b7f6e" stroke="none" stroke-width="0"/><path d="M409.00002,298.8c0,-2.76142 2.23858,-5 5,-5c2.76142,0 5,2.23858 5,5c0,2.76142 -2.23858,5 -5,5c-2.76142,0 -5,-2.23858 -5,-5z" fill="#9dc78d" stroke="none" stroke-width="0.5"/></g></g></svg>