<svg version="1.1" xmlns="http://www.w3.org/2000/svg" xmlns:xlink="http://www.w3.org/1999/xlink" width="48.05328" height="65.97573" viewBox="0,0,48.05328,65.97573"><g transform="translate(-215.98071,-136.03529)"><g data-paper-data="{&quot;isPaintingLayer&quot;:true}" fill="none" fill-rule="nonzero" stroke="none" stroke-width="0.69312" stroke-linecap="none" stroke-linejoin="none" stroke-miterlimit="10" stroke-dasharray="" stroke-dashoffset="0" font-family="none" font-weight="none" font-size="none" text-anchor="none" style="mix-blend-mode: normal"><path d="M237.26357,196.23066c0,0 -4.84411,5.64741 -5.90967,5.0207c-1.06552,-0.62825 -2.67819,-2.40922 -1.94314,-3.02066c0.73259,-0.60711 1.63161,0.67417 1.63161,0.67417l3.16998,-3.12834" data-paper-data="{&quot;origPos&quot;:null,&quot;index&quot;:null}" id="Back_Leg" fill="#be1e2d" stroke="#000000" stroke-linecap="round" stroke-linejoin="round"/><path d="M237.97139,192.6503v0v0v0v0v0v0v0c0,0 -2.6427,-0.36044 -1.85351,-2.24455c0.79072,-1.88441 5.28662,0.57652 5.99412,0.96146c0.70962,0.38618 1.47342,1.24212 0.99483,2.17757c-0.20256,0.40239 -0.58018,0.58967 -1.08234,0.61599c-0.05143,0.17413 -0.15942,0.41496 -0.40852,0.53002c-0.41192,0.19188 -0.76719,-0.69156 -0.76719,-0.69156h0.00706c-0.13007,-0.03947 -0.26592,-0.07713 -0.40455,-0.12486c-0.79259,-0.27664 -1.87554,-0.90733 -2.47991,-1.22406z" data-paper-data="{&quot;origPos&quot;:null,&quot;index&quot;:null}" id="Back_Arm" fill="#be1e2d" stroke="#000000" stroke-linecap="butt" stroke-linejoin="miter"/><g data-paper-data="{&quot;origPos&quot;:null,&quot;index&quot;:null}" id="Body"><path d="M236.75165,187.98277v0v0v0v0v0v0v0c2.10565,0.19126 2.96613,2.25162 2.96613,2.25254c0.19828,0.52512 0.40975,1.28432 0.51011,1.9615c0.17996,1.21488 -0.10803,3.44997 -1.49911,4.23399c-1.37585,0.77634 -2.83734,0.67227 -4.34993,-0.36141c-1.53926,-1.05175 -1.14115,-4.5106 -0.99943,-5.41241c0.45501,-2.52764 3.37223,-2.67422 3.37223,-2.67422z" id="Body_1_" fill="#be1e2d" stroke="#000000" stroke-linecap="butt" stroke-linejoin="miter"/><g id="Belly"><path d="M233.32494,192.02209c2.31249,0.27233 1.69315,2.71399 0.66035,3.67457" id="ID0.11242246581241488" fill="none" stroke="#000000" stroke-linecap="round" stroke-linejoin="round"/><path d="M233.32494,192.15216c0,0 1.29686,0.05599 1.50494,1.254c0.19797,1.14295 -0.79656,2.12494 -0.79656,2.12494c0,0 -0.76685,-0.64323 -0.70839,-3.37894v0v0v0v0v0v0v0z" id="ID0.19927949411794543" fill="#e6e7e8" stroke="none" stroke-linecap="butt" stroke-linejoin="miter"/></g></g><path d="M239.07177,195.133c0,0 5.48464,2.56034 5.17007,3.75624c-0.31673,1.19316 -1.59739,3.22875 -2.38229,2.68464c-0.78521,-0.53982 0.20746,-1.75254 0.20746,-1.75254l-5.20552,-3.02061" data-paper-data="{&quot;origPos&quot;:null,&quot;index&quot;:null}" id="Front_Leg" fill="#be1e2d" stroke="#000000" stroke-linecap="butt" stroke-linejoin="miter"/><path d="M233.66489,190.38124v0v0v0v0v0v0v0c0,0 2.1996,-1.5083 2.8811,0.41925c0.67964,1.92632 -4.30495,3.12314 -5.08835,3.31316c-0.78552,0.19219 -1.92419,0.06976 -2.20022,-0.94375c-0.11628,-0.43514 0.03612,-0.82679 0.38866,-1.18547c-0.07682,-0.16185 -0.15942,-0.41404 -0.04927,-0.66618c0.17289,-0.41951 1.02786,-0.00366 1.02786,-0.00366l-0.00212,0.0049c0.17289,-0.08446 0.24693,-0.12243 0.38344,-0.17996c0.77298,-0.32525 1.99638,-0.58476 2.6589,-0.75827z" data-paper-data="{&quot;origPos&quot;:null,&quot;index&quot;:null}" id="Front_Arm" fill="#be1e2d" stroke="#000000" stroke-linecap="round" stroke-linejoin="round"/><g data-paper-data="{&quot;origPos&quot;:null,&quot;index&quot;:null}" id="Head_2_"><g id="R_Ear" stroke="#000000"><path d="M221.13959,161.43027v0v0v0v0v0v0l-0.68517,2.083l-1.79872,2.2498c-0.36075,-0.50953 -1.91254,-2.79143 -2.32843,-5.24194c-0.47276,-2.78318 0.1781,-6.05841 0.1781,-6.05841c0,0 1.42538,2.266 2.50958,4.04609c0.64477,1.05784 1.73723,2.44102 2.12464,2.92146z" id="Outer_Ear_1_" fill="#be1e2d" stroke-linecap="butt" stroke-linejoin="miter"/><path d="M218.45315,161.81552v0v0v0v0v0v0v0c0.0468,0.88071 0.20225,2.09926 0.71421,2.82482v0c-0.22706,0.43483 -0.32251,0.73748 -0.53306,1.21819l-0.00888,-0.03488c-0.34485,-0.47921 -1.58785,-2.35077 -2.09739,-4.63298v0c0.35987,0.36446 1.10808,0.73443 1.92512,0.62485zM218.56149,160.44184c0,0 -0.15179,0.81125 -0.10834,1.37368" id="Inner_Ear_2_" fill="#939598" stroke-linecap="round" stroke-linejoin="round"/></g><g id="Head_1_" stroke="#000000"><path d="M249.19797,181.60798v0v0v0v0v0v0v0l0.08755,-0.09731c-0.00737,-0.12181 -0.01805,-0.23562 -0.03183,-0.33876c-0.37701,-2.86057 -1.92817,-4.21254 -1.92817,-4.21254l-0.00768,0.00641c-0.46207,1.8792 -1.92358,3.66569 -1.92358,3.66569c0,0 0.79413,-3.85449 -1.26808,-6.53515c-2.9264,-3.80401 -8.43947,-4.5026 -8.43947,-4.5026l-0.1068,0.02203c0.58755,0.34149 1.33942,0.81457 1.9181,1.31245c1.10957,0.9517 1.34825,2.53775 1.34825,2.53775c0,0 -1.66499,-1.11051 -5.07607,-2.14146c-1.81801,-0.54958 -4.99011,-1.5276 -7.55386,-2.3208l-0.13528,0.11753c0,0 -1.44101,0.81921 -2.1396,4.63391c-0.52481,2.86485 -0.15484,4.96534 0.18755,5.31602c0.35315,0.36626 1.03585,0.36291 1.03585,0.36291c0,0 -1.28583,0.41466 -2.38472,-0.30141l-0.03426,0.01346c-0.16314,0.24693 -1.38045,2.17788 -0.76292,4.36371c0.52852,1.87307 3.26883,6.04675 12.82733,5.7551c9.55885,-0.29223 14.38768,-7.65695 14.38768,-7.65695zM222.71279,186.39671v0v0v0v0v0v0c-0.0211,-0.12729 -0.04009,-0.25337 -0.0566,-0.37854c0.01682,0.12517 0.0358,0.25125 0.0566,0.37854zM222.61182,185.61697v0v0v0v0v0v0c0.0098,0.11599 0.02266,0.23445 0.03824,0.3559c-0.0159,-0.12089 -0.02844,-0.2393 -0.03824,-0.3559zM222.60202,185.48907v0v0v0v0v0v0c-0.00552,-0.07894 -0.00949,-0.15483 -0.01161,-0.22887c0.00212,0.07373 0.00551,0.15024 0.01161,0.22887zM222.58763,185.14664v0v0v0v0v0v0c-0.00031,-0.10494 0.00123,-0.20564 0.00856,-0.29774l0.00155,0.00154c-0.00826,0.09179 -0.01069,0.19156 -0.01011,0.2962zM250.95447,168.19553c0,0 1.71271,3.6657 1.84706,8.7204c0.13281,5.05496 -3.90132,9.77699 -3.90132,9.77699c0,0 0.56614,-3.89824 0.35285,-5.51952c-0.377,-2.86088 -1.92786,-4.21223 -1.92786,-4.21223M259.75164,171.40161c1.28066,10.43708 -4.6694,16.15699 -4.6694,16.15699l-1.303,-3.10476M257.09853,174.55291c0,0 0.48746,4.27616 -2.28649,8.52265c-1.47223,2.25594 -4.47572,3.83157 -4.47572,3.83157l0.32468,-2.47042M224.13023,179.07203c0.35346,0.36724 1.03647,0.36357 1.03647,0.36357c0,0 -1.29717,0.41889 -2.39912,-0.31091l-0.03338,0.04314c-0.20653,0.31612 -1.35042,2.20848 -0.74817,4.3423c0.10618,0.36813 0.29683,0.82835 0.60742,1.32411l0.00582,0.00609c0,0.00124 0,0.00247 0,0.00366c0.00428,0.00645 0.00702,0.01348 0.01192,0.02023l-0.00155,-0.00124c1.28035,2.01783 4.56322,4.63515 12.20123,4.40256c9.55947,-0.29285 14.38799,-7.65726 14.38799,-7.65726l0.08689,-0.09519c0.05449,0.87793 -0.03977,2.16137 -0.149,3.23298c-0.28825,0.32777 -5.06291,5.60216 -14.32402,5.8849c-7.39748,0.22583 -10.71156,-2.22164 -12.07699,-4.20826l-0.02049,-0.01103c0.17991,1.09828 0.4853,2.19134 0.4853,2.19134c0,0 -0.81337,-0.88957 -1.5539,-1.86635c-0.61448,-0.80817 -1.46791,-2.5864 -1.46791,-2.5864l-0.0747,-0.05536c0.08663,1.18579 0.20261,1.97254 0.20261,1.97254c0,0 -6.37051,-6.06176 -2.61364,-17.69227c3.45792,-10.70578 10.21001,-11.44539 15.34701,-17.10291c5.13607,-5.65722 9.94932,-14.89042 9.94932,-14.89042c0,0 0.50366,1.60163 0.78031,3.77095c0.20411,1.61236 0.19493,3.7064 0.19493,3.7064c0,0 1.17051,-1.62494 2.01479,-2.21033c0.84578,-0.58507 1.17015,-0.65117 1.17015,-0.65117c0,0 -3.18525,3.7725 -1.56035,8.64967c1.62587,4.87686 12.16026,12.54918 13.65633,18.92119c2.86945,12.22816 -4.16234,18.98856 -4.16234,18.98856l-1.303,-3.10482l-0.06857,-0.0419c-1.51165,1.51599 -3.3728,2.494 -3.3728,2.494l0.32464,-2.47073l-0.03519,-0.24878c-0.8966,1.53431 -1.72679,2.50742 -1.72679,2.50742c0,0 0.12546,-0.86384 0.23593,-1.94711l-0.00031,0.00057c0,-0.00031 0,-0.00057 0,-0.00088c0.00031,-0.00062 0,-0.00031 0.00031,-0.00062c0.12424,-1.21855 0.2298,-2.7143 0.11722,-3.57236c-0.37704,-2.86027 -1.92821,-4.21347 -1.92821,-4.21347l-0.00764,0.01161c-0.46512,1.87708 -1.92357,3.65991 -1.92357,3.65991c0,0 0.79408,-3.85267 -1.26808,-6.53457c-2.9264,-3.80459 -8.43947,-4.50322 -8.43947,-4.50322l-0.03183,0.06671c0.5744,0.33722 1.28861,0.79259 1.84309,1.2687c1.11081,0.9517 1.3483,2.53775 1.3483,2.53775c0,0 -1.665,-1.11051 -5.07612,-2.14084c-3.1819,-0.96454 -5.62079,-1.64326 -7.60004,-2.25527v0c0,0 -1.53006,0.87179 -2.22989,4.68653c-0.52419,2.86671 -0.15544,4.96561 0.1876,5.31722c0.35404,0.36507 1.03643,0.36141 1.03643,0.36141c0,0 -2.0925,0.67597 -3.21921,-1.18641c-0.75431,-1.24852 -1.5261,-2.80764 -0.94804,-6.54799M234.64167,169.10501c0,0 0.54534,0.1781 1.01382,0.55448M247.34476,175.07278c0.10896,0.39568 -0.01894,1.88689 -0.01894,1.88689M222.60418,184.76474c-0.14508,1.19285 0.5955,3.83827 0.5955,3.83827c0,0 -0.81338,-0.88957 -1.55395,-1.86635c-0.61443,-0.80817 -1.4679,-2.5864 -1.4679,-2.5864M220.17814,184.15026c-0.88896,-4.02401 0.68393,-8.91682 0.68393,-8.91682" id="Head" fill="#be1e2d" stroke-linecap="round" stroke-linejoin="round"/><path d="M249.19795,181.60798c0,0 -4.82883,7.36472 -14.38768,7.65695c-9.5585,0.29165 -12.29881,-3.88203 -12.82733,-5.7551c-0.61753,-2.18583 0.59978,-4.11678 0.76292,-4.36371l0.03426,-0.01346c1.09889,0.71607 2.38472,0.30141 2.38472,0.30141c0,0 -0.6827,0.00336 -1.03585,-0.36291c-0.34239,-0.35068 -0.71236,-2.45116 -0.18755,-5.31602c0.69858,-3.8147 2.1396,-4.63391 2.1396,-4.63391l0.13528,-0.11753c2.56375,0.79321 5.73584,1.77122 7.55386,2.3208c3.41108,1.03095 5.07607,2.14146 5.07607,2.14146c0,0 -0.23867,-1.58605 -1.34825,-2.53775c-0.57867,-0.49789 -1.33055,-0.97096 -1.9181,-1.31246l0.1068,-0.02203c0,0 5.51307,0.69859 8.43947,4.5026c2.06221,2.68065 1.26808,6.53514 1.26808,6.53514c0,0 1.46151,-1.78648 1.92358,-3.66569l0.00768,-0.00641c0,0 1.55117,1.35196 1.92817,4.21254c0.01377,0.10313 0.02446,0.21695 0.03183,0.33876l-0.08755,0.09731v0v0v0v0v0v0v0z" id="Face" fill="#e6e7e8" stroke-linecap="butt" stroke-linejoin="miter"/></g><g id="L_Ear" stroke="#000000"><path d="M252.66169,178.83979c0.10371,-0.63011 0.15514,-1.27363 0.1392,-1.92388c-0.09303,-3.5185 -0.9529,-6.36566 -1.46517,-7.76932l0.15546,-0.1683c0.99453,-1.27695 3.87258,-4.90106 5.64896,-6.46508c2.17788,-1.91315 6.44579,-2.64454 6.44579,-2.64454c0,0 -1.46304,6.71299 -3.40772,10.56963c-2.99951,5.94971 -7.32803,8.35342 -7.32803,8.35342l-0.18847,0.04808v0v0v0v0v0v0v0z" id="Outer_Ear" fill="#be1e2d" stroke-linecap="butt" stroke-linejoin="miter"/><path d="M255.97822,176.28493c0,0 -0.84274,-0.56123 -1.03157,-2.54053c-0.11717,-1.22618 0.33541,-3.49554 0.33541,-3.49554l-0.04101,0.07285c0.33815,-0.4125 0.69038,-0.89418 1.00587,-1.41714c0.53338,-0.88989 1.14632,-2.20697 1.70354,-3.50812l0.08569,-0.18177c0,0 1.52058,-2.37678 4.88914,-2.82781l0.04128,0.01836c-0.60587,2.30424 -1.60654,5.69329 -2.78742,8.03307c-1.32106,2.62247 -2.90344,4.55584 -4.25629,5.8977l0.05536,-0.05108v0v0v0v0v0v0v0zM253.73394,171.54634c0,0 1.46579,-1.15184 1.5068,-1.22464" id="Inner_Ear_1_" fill="#939598" stroke-linecap="round" stroke-linejoin="round"/></g><path d="M227.49234,183.00061c0,0 1.99549,-0.06181 4.67554,0c2.68128,0.06119 5.48526,0.37456 5.48526,0.37456c0,0 -1.37126,2.74429 -4.8619,2.55519c-3.49126,-0.18729 -5.05098,-1.37033 -5.29889,-2.92976v0v0v0v0v0v0v0z" id="Mouth" fill="#939598" stroke="#000000" stroke-linecap="butt" stroke-linejoin="miter"/><path d="M237.7388,176.98811c0.05205,-0.01496 0.96853,-0.26438 2.13413,-0.21051c0.03823,-0.05753 0.09028,-0.1068 0.16066,-0.13099c0.00123,-0.00062 0.15267,-0.06305 0.1894,-0.20164c0.04591,-0.17289 0.22278,-0.27939 0.39814,-0.23197c0.17383,0.0468 0.27753,0.22371 0.23135,0.39872c-0.02786,0.10407 -0.0747,0.18883 -0.12455,0.26411c0.04742,0.00795 0.09576,0.01894 0.14411,0.02874c0.03611,-0.02874 0.07805,-0.05046 0.12578,-0.06119c0.00212,-0.00062 0.16432,-0.03854 0.22,-0.17166c0.07038,-0.16649 0.26256,-0.24053 0.4272,-0.17201c0.16587,0.07011 0.24327,0.26137 0.17289,0.42689c-0.05995,0.1426 -0.14657,0.24604 -0.23774,0.3256c0.05598,0.10772 0.07404,0.23562 0.03761,0.35986c-0.06211,0.21206 -0.25735,0.35162 -0.46878,0.35162c-0.0453,0 -0.0906,-0.00675 -0.1362,-0.01991c-1.48013,-0.43117 -2.99461,-0.01955 -3.00896,-0.01496c-0.26133,0.07069 -0.5291,-0.07987 -0.60195,-0.33938c-0.07311,-0.25921 0.07775,-0.52817 0.33691,-0.60133v0v0v0v0v0v0v0z" id="L_Eye" fill="#231f20" stroke="none" stroke-linecap="butt" stroke-linejoin="miter"/><path d="M225.04798,176.1481c0.17868,-0.03823 0.34728,0.0796 0.38309,0.25554c0.02755,0.13925 0.17201,0.21055 0.1815,0.21572c0.06119,0.02663 0.10341,0.07223 0.13709,0.12486c0.03823,-0.00887 0.07894,-0.01744 0.12115,-0.02569c-0.03457,-0.08782 -0.0627,-0.18332 -0.06945,-0.29621c-0.00857,-0.17996 0.12914,-0.33231 0.30786,-0.3415c0.19218,-0.01991 0.33232,0.12913 0.34119,0.30874c0.00671,0.10159 0.07342,0.17536 0.11536,0.21117c0.86079,-0.11293 1.93704,-0.12609 2.44746,0.39139c0.18945,0.19276 0.18636,0.50155 -0.00552,0.69033c-0.09545,0.09457 -0.21877,0.14106 -0.34362,0.14106c-0.12671,0 -0.25095,-0.04772 -0.34671,-0.14503c-0.26411,-0.26866 -1.57625,-0.1781 -2.59007,0.07192c-0.26746,0.06517 -0.52635,-0.0958 -0.5909,-0.35744c-0.0257,-0.10283 -0.00675,-0.20318 0.02936,-0.29528c-0.14198,-0.10344 -0.31611,-0.27726 -0.37302,-0.56706v0v0v0v0v0v0v0c-0.03426,-0.17656 0.07955,-0.34703 0.25523,-0.38252z" id="R_Eye" fill="#231f20" stroke="none" stroke-linecap="butt" stroke-linejoin="miter"/></g></g></g></svg>