<svg version="1.1" xmlns="http://www.w3.org/2000/svg" xmlns:xlink="http://www.w3.org/1999/xlink" width="695.20766" height="296.84724"><g transform="translate(21.20766,96.84723)"><g data-paper-data="{&quot;isPaintingLayer&quot;:true}" fill="none" fill-rule="nonzero" stroke="none" stroke-width="none" stroke-linecap="none" stroke-linejoin="miter" stroke-miterlimit="10" stroke-dasharray="" stroke-dashoffset="0" font-family="none" font-weight="none" font-size="none" text-anchor="none" style="mix-blend-mode: normal"><path d="M32.71866,158.16634c0,0 5.58782,8.0667 2.93668,-13.53596c-2.15753,-17.58068 -5.85598,-39.69963 -5.85598,-39.69963c0,0 3.19423,4.46597 11.44477,21.88185c9.77125,20.62604 14.78945,28.73932 14.78945,28.73932z" data-paper-data="{&quot;origPos&quot;:null,&quot;origRot&quot;:0,&quot;index&quot;:null}" fill="#8eb480" stroke="none" stroke-width="0" stroke-linecap="butt"/><path d="M39.9582,154.41698c0,0 1.51591,-9.86714 3.70013,-34.6541c1.84431,-20.92923 2.92024,-26.40368 2.92024,-26.40368c0,0 1.44832,25.90488 3.03674,46.4167c1.95181,25.20436 3.79358,15.3342 3.79358,15.3342z" data-paper-data="{&quot;origPos&quot;:null,&quot;index&quot;:null}" fill="#8eb480" stroke="none" stroke-width="0" stroke-linecap="butt"/><path d="M39.95793,152.75449c0,0 3.54193,-9.12252 10.86587,-32.5097c6.18411,-19.74729 8.37684,-24.74054 8.37684,-24.74054c0,0 -4.03859,25.52355 -6.80845,45.86143c-3.40353,24.99065 0.45482,15.95964 0.45482,15.95964z" data-paper-data="{&quot;origPos&quot;:null,&quot;origRot&quot;:0,&quot;index&quot;:null}" fill="#8eb480" stroke="none" stroke-width="0" stroke-linecap="butt"/><path d="M187.96641,147.55192c0,0 5.0182,-8.11328 14.78945,-28.73932c8.25054,-17.41588 11.44477,-21.88185 11.44477,-21.88185c0,0 -3.69845,22.11895 -5.85598,39.69963c-2.65114,21.60266 2.93668,13.53596 2.93668,13.53596z" data-paper-data="{&quot;origPos&quot;:null,&quot;origRot&quot;:0}" fill="#8eb480" stroke="none" stroke-width="0" stroke-linecap="butt"/><path d="M190.59111,147.1101c0,0 1.84177,9.87016 3.79358,-15.3342c1.58842,-20.51182 3.03674,-46.4167 3.03674,-46.4167c0,0 1.07593,5.47445 2.92024,26.40368c2.18422,24.78696 3.70013,34.6541 3.70013,34.6541z" data-paper-data="{&quot;origPos&quot;:null}" fill="#8eb480" stroke="none" stroke-width="0" stroke-linecap="butt"/><path d="M191.15299,149.32532c0,0 3.85835,9.03101 0.45482,-15.95964c-2.76986,-20.33788 -6.80845,-45.86143 -6.80845,-45.86143c0,0 2.19273,4.99325 8.37684,24.74054c7.32394,23.38718 10.86587,32.5097 10.86587,32.5097z" data-paper-data="{&quot;origPos&quot;:null,&quot;origRot&quot;:0}" fill="#8eb480" stroke="none" stroke-width="0" stroke-linecap="butt"/><g data-paper-data="{&quot;origPos&quot;:null}" fill="#8eb480" stroke="none" stroke-width="0" stroke-linecap="butt"><path d="M181.47605,144.01725c0,0 4.77733,-7.68571 4.6348,-16.44525c-0.29758,-18.28923 -5.7625,-52.86389 -5.7625,-52.86389c0,0 8.83308,27.17782 11.83664,40.10085c3.69067,15.87944 4.72502,30.64499 4.72502,30.64499z" data-paper-data="{&quot;origPos&quot;:null}"/><path d="M176.43897,148.09171c0,0 4.18071,2.86275 2.3847,-13.06455c-1.46164,-12.96196 -6.7337,-26.44229 -6.7337,-26.44229c0,0 5.72089,3.54975 11.31028,16.3902c6.61962,15.20724 8.8336,21.18904 8.8336,21.18904z" data-paper-data="{&quot;origPos&quot;:null,&quot;origRot&quot;:0}"/></g><path d="M204.11807,142.65333c0,0 4.18071,2.86275 2.3847,-13.06455c-1.46164,-12.96196 -6.7337,-26.44229 -6.7337,-26.44229c0,0 5.72087,3.54974 11.31027,16.3902c6.61962,15.20725 8.8336,21.18904 8.8336,21.18904z" data-paper-data="{&quot;origPos&quot;:null,&quot;origRot&quot;:0}" fill="#8eb480" stroke="none" stroke-width="0" stroke-linecap="butt"/><g data-paper-data="{&quot;origPos&quot;:null,&quot;origRot&quot;:0,&quot;index&quot;:null}" stroke="none" stroke-width="0" stroke-linecap="butt"><path d="M80.40848,141.9268l0.69754,-87.95618l9.43428,-1.32414l9.31227,8.18744l12.13883,-6.61836c0,0 -0.47759,60.2207 -0.59622,75.17949c-0.03954,4.98627 12.5376,12.77668 12.5376,12.77668z" data-paper-data="{&quot;origPos&quot;:null,&quot;origRot&quot;:0}" fill="#8b7f6e"/><path d="M80.4085,141.9268c0,0 0.09118,-11.49824 0.14955,-18.85771c0.1751,-22.07838 0.54799,-69.09847 0.54799,-69.09847l9.43427,-1.32414l9.31227,8.18744z" data-paper-data="{&quot;origPos&quot;:null,&quot;origRot&quot;:0}" fill="#817666"/></g><path d="M111.66189,74.89181c0,0 -7.75172,-2.89397 -13.21881,-3.73506c-6.55587,-1.00859 -17.58855,-1.00453 -17.58855,-1.00453v-13.42886h30.80738v18.16845z" data-paper-data="{&quot;origPos&quot;:null,&quot;index&quot;:null}" fill="#6c6356" stroke="none" stroke-width="0" stroke-linecap="butt"/><g data-paper-data="{&quot;origPos&quot;:null,&quot;index&quot;:null}" stroke="none" stroke-width="0" stroke-linecap="butt"><path d="M91.53283,50.40392c0,0 -13.62696,-1.09452 -18.30413,-6.85104c-3.33815,-4.10849 -2.23412,-18.42681 -2.23412,-18.42681z" fill="#8eb480"/><path d="M70.81959,25.12608c0,0 13.62696,1.09452 18.30413,6.85104c3.33815,4.10848 2.23412,18.4268 2.23412,18.4268z" data-paper-data="{&quot;index&quot;:null,&quot;origPos&quot;:null}" fill="#9dc78d"/></g><g data-paper-data="{&quot;origPos&quot;:null,&quot;index&quot;:null,&quot;origRot&quot;:0}" stroke="none" stroke-width="0" stroke-linecap="butt"><path d="M62.77837,49.99227c0,0 -9.95458,-9.37008 -10.00876,-16.78699c-0.03867,-5.29352 9.77087,-15.78191 9.77087,-15.78191z" fill="#8eb480"/><path d="M62.40389,17.31402c0,0 9.95458,9.37008 10.00876,16.78699c0.03867,5.29352 -9.77087,15.78191 -9.77087,15.78191z" data-paper-data="{&quot;index&quot;:null,&quot;origPos&quot;:null}" fill="#9dc78d"/></g><g data-paper-data="{&quot;origPos&quot;:null,&quot;origRot&quot;:0,&quot;index&quot;:null}" stroke="none" stroke-width="0" stroke-linecap="butt"><path d="M88.43229,53.96965c0,0 3.16243,-13.30004 9.56562,-17.04339c4.57002,-2.67167 18.55186,0.60572 18.55186,0.60572z" fill="#8eb480"/><path d="M116.57648,37.35904c0,0 -3.16243,13.30004 -9.56562,17.04339c-4.57001,2.67167 -18.55185,-0.60572 -18.55185,-0.60572z" data-paper-data="{&quot;index&quot;:null,&quot;origPos&quot;:null}" fill="#9dc78d"/></g><g data-paper-data="{&quot;origPos&quot;:null,&quot;index&quot;:null}" stroke="none" stroke-width="0" stroke-linecap="butt"><path d="M66.25498,30.26027c0,0 -1.10403,-14.31832 2.23412,-18.42681c4.67717,-5.75652 18.30413,-6.85104 18.30413,-6.85104z" fill="#8eb480"/><path d="M86.61824,4.98244c0,0 1.10403,14.31832 -2.23412,18.4268c-4.67717,5.75652 -18.30413,6.85104 -18.30413,6.85104z" data-paper-data="{&quot;index&quot;:null,&quot;origPos&quot;:null}" fill="#9dc78d"/></g><g data-paper-data="{&quot;origPos&quot;:null,&quot;origRot&quot;:0,&quot;index&quot;:null}" stroke="none" stroke-width="0" stroke-linecap="butt"><path d="M111.81017,17.85437c0,0 -13.98184,3.27739 -18.55186,0.60572c-6.40319,-3.74335 -9.56562,-17.04339 -9.56562,-17.04339z" fill="#8eb480"/><path d="M83.71942,1.58965c0,0 13.98184,-3.27739 18.55185,-0.60572c6.40319,3.74335 9.56562,17.04339 9.56562,17.04339z" data-paper-data="{&quot;index&quot;:null,&quot;origPos&quot;:null}" fill="#9dc78d"/></g><g data-paper-data="{&quot;origPos&quot;:null,&quot;index&quot;:null}" stroke="none" stroke-width="0" stroke-linecap="butt"><path d="M94.40175,28.28581c0,0 1.10403,14.31832 -2.23412,18.42681c-4.67717,5.75652 -18.30413,6.85104 -18.30413,6.85104z" fill="#8eb480"/><path d="M74.0385,53.56365c0,0 -1.10403,-14.31832 2.23412,-18.4268c4.67717,-5.75652 18.30413,-6.85104 18.30413,-6.85104z" data-paper-data="{&quot;index&quot;:null,&quot;origPos&quot;:null}" fill="#9dc78d"/></g><g data-paper-data="{&quot;origPos&quot;:null,&quot;index&quot;:null,&quot;origRot&quot;:0}" stroke="none" stroke-width="0" stroke-linecap="butt"><path d="M102.85584,20.58311c0,0 9.80953,10.48839 9.77087,15.78191c-0.05417,7.41691 -10.00876,16.78699 -10.00876,16.78699z" fill="#8eb480"/><path d="M102.75454,53.04264c0,0 -9.80953,-10.48839 -9.77087,-15.78191c0.05417,-7.41691 10.00876,-16.78699 10.00876,-16.78699z" data-paper-data="{&quot;index&quot;:null,&quot;origPos&quot;:null}" fill="#9dc78d"/></g><g data-paper-data="{&quot;origPos&quot;:null,&quot;index&quot;:null}" stroke="none" stroke-width="0" stroke-linecap="butt"><path d="M78.6031,8.14217c0,0 13.62696,1.09452 18.30413,6.85104c3.33815,4.10849 2.23412,18.42681 2.23412,18.42681z" fill="#8eb480"/><path d="M99.31633,33.41999c0,0 -13.62696,-1.09452 -18.30413,-6.85104c-3.33815,-4.10848 -2.23412,-18.4268 -2.23412,-18.4268z" data-paper-data="{&quot;index&quot;:null,&quot;origPos&quot;:null}" fill="#9dc78d"/></g><g data-paper-data="{&quot;origPos&quot;:null,&quot;index&quot;:null,&quot;origRot&quot;:0}" stroke="none" stroke-width="0" stroke-linecap="butt"><path d="M107.35754,8.55382c0,0 9.95458,9.37008 10.00876,16.78699c0.03867,5.29352 -9.77087,15.78191 -9.77087,15.78191z" fill="#8eb480"/><path d="M107.73202,41.23207c0,0 -9.95458,-9.37008 -10.00876,-16.78699c-0.03867,-5.29352 9.77087,-15.78191 9.77087,-15.78191z" data-paper-data="{&quot;index&quot;:null,&quot;origPos&quot;:null}" fill="#9dc78d"/></g><g data-paper-data="{&quot;origPos&quot;:null,&quot;origRot&quot;:0,&quot;index&quot;:null}" fill="#9dc78d" stroke="none" stroke-width="0" stroke-linecap="butt"><path d="M81.70364,4.57643c0,0 -3.16243,13.30004 -9.56562,17.04339c-4.57002,2.67167 -18.55186,-0.60572 -18.55186,-0.60572z"/><path d="M53.55945,21.18705c0,0 3.16243,-13.30004 9.56562,-17.04339c4.57001,-2.67167 18.55185,0.60572 18.55185,0.60572z" data-paper-data="{&quot;index&quot;:null,&quot;origPos&quot;:null}"/></g><g data-paper-data="{&quot;origPos&quot;:null,&quot;index&quot;:null}" fill="#9dc78d" stroke="none" stroke-width="0" stroke-linecap="butt"><path d="M79.68384,19.66749c0,0 -13.62696,-1.09452 -18.30413,-6.85104c-3.33815,-4.10849 -2.23412,-18.42681 -2.23412,-18.42681z"/><path d="M58.97057,-5.61035c0,0 13.62696,1.09452 18.30413,6.85104c3.33815,4.10848 2.23412,18.4268 2.23412,18.4268z" data-paper-data="{&quot;index&quot;:null,&quot;origPos&quot;:null}"/></g><g data-paper-data="{&quot;origPos&quot;:null,&quot;origRot&quot;:0,&quot;index&quot;:null}" stroke="none" stroke-width="0" stroke-linecap="butt"><path d="M76.5833,23.23322c0,0 3.16243,-13.30004 9.56562,-17.04339c4.57002,-2.67167 18.55186,0.60572 18.55186,0.60572z" fill="#8eb480"/><path d="M104.72749,6.6226c0,0 -3.16243,13.30004 -9.56562,17.04339c-4.57001,2.67167 -18.55185,-0.60572 -18.55185,-0.60572z" data-paper-data="{&quot;index&quot;:null,&quot;origPos&quot;:null}" fill="#9dc78d"/></g><g data-paper-data="{&quot;origPos&quot;:null,&quot;index&quot;:null,&quot;origRot&quot;:0}" stroke="none" stroke-width="0" stroke-linecap="butt"><path d="M95.50853,-28.50209c0,0 9.95458,9.37008 10.00876,16.78699c0.03867,5.29352 -9.77087,15.78191 -9.77087,15.78191z" fill="#8eb480"/><path d="M95.88305,4.17616c0,0 -9.95458,-9.37008 -10.00876,-16.78699c-0.03867,-5.29352 9.77087,-15.78191 9.77087,-15.78191z" data-paper-data="{&quot;index&quot;:null,&quot;origPos&quot;:null}" fill="#9dc78d"/></g><g data-paper-data="{&quot;origPos&quot;:null,&quot;index&quot;:null}" stroke="none" stroke-width="0" stroke-linecap="butt"><path d="M92.03194,-8.77009c0,0 1.10403,14.31832 -2.23412,18.42681c-4.67717,5.75652 -18.30413,6.85104 -18.30413,6.85104z" fill="#8eb480"/><path d="M71.6687,16.50776c0,0 -1.10403,-14.31832 2.23412,-18.4268c4.67717,-5.75652 18.30413,-6.85104 18.30413,-6.85104z" data-paper-data="{&quot;index&quot;:null,&quot;origPos&quot;:null}" fill="#9dc78d"/></g><g data-paper-data="{&quot;origPos&quot;:null,&quot;index&quot;:null,&quot;origRot&quot;:0}" stroke="none" stroke-width="0" stroke-linecap="butt"><path d="M100.48605,-16.47279c0,0 9.80953,10.48839 9.77087,15.78191c-0.05417,7.41691 -10.00876,16.78699 -10.00876,16.78699z" fill="#8eb480"/><path d="M100.38474,15.98675c0,0 -9.80953,-10.48839 -9.77087,-15.78191c0.05417,-7.41691 10.00876,-16.78699 10.00876,-16.78699z" data-paper-data="{&quot;index&quot;:null,&quot;origPos&quot;:null}" fill="#9dc78d"/></g><g data-paper-data="{&quot;origPos&quot;:null,&quot;index&quot;:null,&quot;origRot&quot;:0}" fill="#9dc78d" stroke="none" stroke-width="0" stroke-linecap="butt"><path d="M74.62738,11.28557c0,0 -9.95458,-9.37008 -10.00876,-16.78699c-0.03867,-5.29352 9.77087,-15.78191 9.77087,-15.78191z"/><path d="M74.25288,-21.39269c0,0 9.95458,9.37008 10.00876,16.78699c0.03867,5.29352 -9.77087,15.78191 -9.77087,15.78191z" data-paper-data="{&quot;index&quot;:null,&quot;origPos&quot;:null}"/></g><g data-paper-data="{&quot;origPos&quot;:null,&quot;index&quot;:null}" stroke="none" stroke-width="0" stroke-linecap="butt"><path d="M78.10397,-8.44642c0,0 -1.10403,-14.31832 2.23412,-18.42681c4.67717,-5.75652 18.30413,-6.85104 18.30413,-6.85104z" fill="#8eb480"/><path d="M98.46723,-33.72427c0,0 1.10403,14.31832 -2.23412,18.4268c-4.67717,5.75652 -18.30413,6.85104 -18.30413,6.85104z" data-paper-data="{&quot;index&quot;:null,&quot;origPos&quot;:null}" fill="#9dc78d"/></g><g data-paper-data="{&quot;origPos&quot;:null,&quot;index&quot;:null,&quot;origRot&quot;:0}" fill="#9dc78d" stroke="none" stroke-width="0" stroke-linecap="butt"><path d="M69.64989,-0.74372c0,0 -9.80953,-10.48839 -9.77087,-15.78191c0.05417,-7.41691 10.00876,-16.78699 10.00876,-16.78699z"/><path d="M69.75117,-33.20326c0,0 9.80953,10.48839 9.77087,15.78191c-0.05417,7.41691 -10.00876,16.78699 -10.00876,16.78699z" data-paper-data="{&quot;index&quot;:null,&quot;origPos&quot;:null}"/></g><g data-paper-data="{&quot;origPos&quot;:null,&quot;origRot&quot;:0,&quot;index&quot;:null}" stroke="none" stroke-width="0" stroke-linecap="butt"><path d="M123.65916,-20.85233c0,0 -13.98184,3.27739 -18.55186,0.60572c-6.40319,-3.74335 -9.56562,-17.04339 -9.56562,-17.04339z" fill="#8eb480"/><path d="M95.56839,-37.11705c0,0 13.98184,-3.27739 18.55185,-0.60572c6.40319,3.74335 9.56562,17.04339 9.56562,17.04339z" data-paper-data="{&quot;index&quot;:null,&quot;origPos&quot;:null}" fill="#9dc78d"/></g><g data-paper-data="{&quot;origPos&quot;:null,&quot;index&quot;:null,&quot;origRot&quot;:0}" stroke="none" stroke-width="0" stroke-linecap="butt"><path d="M114.70483,-18.1236c0,0 9.80953,10.48839 9.77087,15.78191c-0.05417,7.41691 -10.00876,16.78699 -10.00876,16.78699z" fill="#8eb480"/><path d="M114.60355,14.33594c0,0 -9.80953,-10.48839 -9.77087,-15.78191c0.05417,-7.41691 10.00876,-16.78699 10.00876,-16.78699z" data-paper-data="{&quot;index&quot;:null,&quot;origPos&quot;:null}" fill="#9dc78d"/></g><g data-paper-data="{&quot;origPos&quot;:null,&quot;index&quot;:null}" stroke="none" stroke-width="0" stroke-linecap="butt"><path d="M90.45207,-30.56454c0,0 13.62696,1.09452 18.30413,6.85104c3.33815,4.10849 2.23412,18.42681 2.23412,18.42681z" fill="#8eb480"/><path d="M111.16533,-5.2867c0,0 -13.62696,-1.09452 -18.30413,-6.85104c-3.33815,-4.10848 -2.23412,-18.4268 -2.23412,-18.4268z" data-paper-data="{&quot;index&quot;:null,&quot;origPos&quot;:null}" fill="#9dc78d"/></g><g data-paper-data="{&quot;origPos&quot;:null,&quot;index&quot;:null,&quot;origRot&quot;:0}" stroke="none" stroke-width="0" stroke-linecap="butt"><path d="M119.20653,-30.15289c0,0 9.95458,9.37008 10.00876,16.78699c0.03867,5.29352 -9.77087,15.78191 -9.77087,15.78191z" fill="#8eb480"/><path d="M119.58103,2.52536c0,0 -9.95458,-9.37008 -10.00876,-16.78699c-0.03867,-5.29352 9.77087,-15.78191 9.77087,-15.78191z" data-paper-data="{&quot;index&quot;:null,&quot;origPos&quot;:null}" fill="#9dc78d"/></g><g data-paper-data="{&quot;origPos&quot;:null,&quot;origRot&quot;:0,&quot;index&quot;:null}" stroke="none" stroke-width="0" stroke-linecap="butt"><path d="M93.55263,-34.13027c0,0 -3.16243,13.30004 -9.56562,17.04339c-4.57002,2.67167 -18.55186,-0.60572 -18.55186,-0.60572z" fill="#8eb480"/><path d="M65.40843,-17.51965c0,0 3.16243,-13.30004 9.56562,-17.04339c4.57001,-2.67167 18.55185,0.60572 18.55185,0.60572z" data-paper-data="{&quot;index&quot;:null,&quot;origPos&quot;:null}" fill="#9dc78d"/></g><g data-paper-data="{&quot;origPos&quot;:null,&quot;index&quot;:null}" stroke="none" stroke-width="0" stroke-linecap="butt"><path d="M123.62926,0.63815c0,0 1.10403,14.31832 -2.23412,18.42681c-4.67717,5.75652 -18.30413,6.85104 -18.30413,6.85104z" fill="#8eb480"/><path d="M103.26601,25.91601c0,0 -1.10403,-14.31832 2.23412,-18.4268c4.67717,-5.75652 18.30413,-6.85104 18.30413,-6.85104z" data-paper-data="{&quot;index&quot;:null,&quot;origPos&quot;:null}" fill="#9dc78d"/></g><g data-paper-data="{&quot;origPos&quot;:null,&quot;index&quot;:null,&quot;origRot&quot;:0}" stroke="none" stroke-width="0" stroke-linecap="butt"><path d="M132.08335,-7.06454c0,0 9.80953,10.48839 9.77087,15.78191c-0.05417,7.41691 -10.00876,16.78699 -10.00876,16.78699z" fill="#8eb480"/><path d="M131.98207,25.395c0,0 -9.80953,-10.48839 -9.77087,-15.78191c0.05417,-7.41691 10.00876,-16.78699 10.00876,-16.78699z" data-paper-data="{&quot;index&quot;:null,&quot;origPos&quot;:null}" fill="#9dc78d"/></g><g data-paper-data="{&quot;origPos&quot;:null,&quot;origRot&quot;:0,&quot;index&quot;:null}" stroke="none" stroke-width="0" stroke-linecap="butt"><path d="M78.07407,13.04407c0,0 13.98184,-3.27739 18.55186,-0.60572c6.40319,3.74335 9.56562,17.04339 9.56562,17.04339z" fill="#8eb480"/><path d="M106.16482,29.30878c0,0 -13.98184,3.27739 -18.55185,0.60572c-6.40319,-3.74335 -9.56562,-17.04339 -9.56562,-17.04339z" data-paper-data="{&quot;index&quot;:null,&quot;origPos&quot;:null}" fill="#9dc78d"/></g><g data-paper-data="{&quot;origPos&quot;:null,&quot;index&quot;:null}" stroke="none" stroke-width="0" stroke-linecap="butt"><path d="M111.28115,22.75628c0,0 -13.62696,-1.09452 -18.30413,-6.85104c-3.33815,-4.10849 -2.23412,-18.42681 -2.23412,-18.42681z" fill="#8eb480"/><path d="M90.56789,-2.52156c0,0 13.62696,1.09452 18.30413,6.85104c3.33815,4.10848 2.23412,18.4268 2.23412,18.4268z" data-paper-data="{&quot;index&quot;:null,&quot;origPos&quot;:null}" fill="#9dc78d"/></g><g data-paper-data="{&quot;origPos&quot;:null,&quot;index&quot;:null,&quot;origRot&quot;:0}" stroke="none" stroke-width="0" stroke-linecap="butt"><path d="M82.5267,22.34463c0,0 -9.95458,-9.37008 -10.00876,-16.78699c-0.03867,-5.29352 9.77087,-15.78191 9.77087,-15.78191z" fill="#8eb480"/><path d="M82.1522,-10.33364c0,0 9.95458,9.37008 10.00876,16.78699c0.03867,5.29352 -9.77087,15.78191 -9.77087,15.78191z" data-paper-data="{&quot;index&quot;:null,&quot;origPos&quot;:null}" fill="#9dc78d"/></g><g data-paper-data="{&quot;origPos&quot;:null,&quot;origRot&quot;:0,&quot;index&quot;:null}" stroke="none" stroke-width="0" stroke-linecap="butt"><path d="M108.18061,26.32201c0,0 3.16243,-13.30004 9.56562,-17.04339c4.57002,-2.67167 18.55186,0.60572 18.55186,0.60572z" fill="#8eb480"/><path d="M136.3248,9.71139c0,0 -3.16243,13.30004 -9.56562,17.04339c-4.57001,2.67167 -18.55185,-0.60572 -18.55185,-0.60572z" data-paper-data="{&quot;index&quot;:null,&quot;origPos&quot;:null}" fill="#9dc78d"/></g><g data-paper-data="{&quot;origPos&quot;:null,&quot;index&quot;:null,&quot;origRot&quot;:0}" fill="#8db27e" stroke="none" stroke-width="0" stroke-linecap="butt"><path d="M134.45315,23.6719c0,0 9.80953,10.48839 9.77087,15.78191c-0.05417,7.41691 -10.00876,16.78699 -10.00876,16.78699z"/><path d="M134.35187,56.13143c0,0 -9.80953,-10.48839 -9.77087,-15.78191c0.05417,-7.41691 10.00876,-16.78699 10.00876,-16.78699z" data-paper-data="{&quot;index&quot;:null,&quot;origPos&quot;:null}"/></g><g data-paper-data="{&quot;origPos&quot;:null,&quot;index&quot;:null}" stroke="none" stroke-width="0" stroke-linecap="butt"><path d="M110.20041,11.23095c0,0 13.62696,1.09452 18.30413,6.85104c3.33815,4.10849 2.23412,18.42681 2.23412,18.42681z" fill="#8eb480"/><path d="M130.91365,36.50877c0,0 -13.62696,-1.09452 -18.30413,-6.85104c-3.33815,-4.10848 -2.23412,-18.4268 -2.23412,-18.4268z" data-paper-data="{&quot;index&quot;:null,&quot;origPos&quot;:null}" fill="#9dc78d"/></g><g data-paper-data="{&quot;origPos&quot;:null,&quot;index&quot;:null,&quot;origRot&quot;:0}" fill="#8db27e" stroke="none" stroke-width="0" stroke-linecap="butt"><path d="M138.95485,11.6426c0,0 9.95458,9.37008 10.00876,16.78699c0.03867,5.29352 -9.77087,15.78191 -9.77087,15.78191z"/><path d="M139.32935,44.32085c0,0 -9.95458,-9.37008 -10.00876,-16.78699c-0.03867,-5.29352 9.77087,-15.78191 9.77087,-15.78191z" data-paper-data="{&quot;index&quot;:null,&quot;origPos&quot;:null}"/></g><g data-paper-data="{&quot;origPos&quot;:null,&quot;origRot&quot;:0,&quot;index&quot;:null}" stroke="none" stroke-width="0" stroke-linecap="butt"><path d="M113.30095,7.66522c0,0 -3.16243,13.30004 -9.56562,17.04339c-4.57002,2.67167 -18.55186,-0.60572 -18.55186,-0.60572z" fill="#8eb480"/><path d="M85.15675,24.27584c0,0 3.16243,-13.30004 9.56562,-17.04339c4.57001,-2.67167 18.55185,0.60572 18.55185,0.60572z" data-paper-data="{&quot;index&quot;:null,&quot;origPos&quot;:null}" fill="#9dc78d"/></g><g data-paper-data="{&quot;origPos&quot;:null,&quot;index&quot;:null,&quot;origRot&quot;:0}" stroke="none" stroke-width="0" stroke-linecap="butt"><path d="M94.37569,59.40052c0,0 -9.95458,-9.37008 -10.00876,-16.78699c-0.03867,-5.29352 9.77087,-15.78191 9.77087,-15.78191z" fill="#8eb480"/><path d="M94.0012,26.72227c0,0 9.95458,9.37008 10.00876,16.78699c0.03867,5.29352 -9.77087,15.78191 -9.77087,15.78191z" data-paper-data="{&quot;index&quot;:null,&quot;origPos&quot;:null}" fill="#9dc78d"/></g><g data-paper-data="{&quot;origPos&quot;:null,&quot;index&quot;:null}" stroke="none" stroke-width="0" stroke-linecap="butt"><path d="M97.85228,39.66853c0,0 -1.10403,-14.31832 2.23412,-18.42681c4.67717,-5.75652 18.30413,-6.85104 18.30413,-6.85104z" fill="#8eb480"/><path d="M118.21555,14.39068c0,0 1.10403,14.31832 -2.23412,18.4268c-4.67717,5.75652 -18.30413,6.85104 -18.30413,6.85104z" data-paper-data="{&quot;index&quot;:null,&quot;origPos&quot;:null}" fill="#9dc78d"/></g><g data-paper-data="{&quot;origPos&quot;:null,&quot;index&quot;:null,&quot;origRot&quot;:0}" stroke="none" stroke-width="0" stroke-linecap="butt"><path d="M89.39821,47.37123c0,0 -9.80953,-10.48839 -9.77087,-15.78191c0.05417,-7.41691 10.00876,-16.78699 10.00876,-16.78699z" fill="#8eb480"/><path d="M89.49949,14.91169c0,0 9.80953,10.48839 9.77087,15.78191c-0.05417,7.41691 -10.00876,16.78699 -10.00876,16.78699z" data-paper-data="{&quot;index&quot;:null,&quot;origPos&quot;:null}" fill="#9dc78d"/></g><g data-paper-data="{&quot;origPos&quot;:null,&quot;origRot&quot;:0,&quot;index&quot;:null}" stroke="none" stroke-width="0" stroke-linecap="butt"><path d="M143.40748,27.26261c0,0 -13.98184,3.27739 -18.55186,0.60572c-6.40319,-3.74335 -9.56562,-17.04339 -9.56562,-17.04339z" fill="#8eb480"/><path d="M115.31672,10.9979c0,0 13.98184,-3.27739 18.55185,-0.60572c6.40319,3.74335 9.56562,17.04339 9.56562,17.04339z" data-paper-data="{&quot;index&quot;:null,&quot;origPos&quot;:null}" fill="#9dc78d"/></g><g data-paper-data="{&quot;origPos&quot;:null,&quot;index&quot;:null,&quot;origRot&quot;:0}" stroke="none" stroke-width="0" stroke-linecap="butt"><path d="M115.25687,19.61287c0,0 9.95458,9.37008 10.00876,16.78699c0.03867,5.29352 -9.77087,15.78191 -9.77087,15.78191z" fill="#8eb480"/><path d="M115.63137,52.29113c0,0 -9.95458,-9.37008 -10.00876,-16.78699c-0.03867,-5.29352 9.77087,-15.78191 9.77087,-15.78191z" data-paper-data="{&quot;index&quot;:null,&quot;origPos&quot;:null}" fill="#9dc78d"/></g><g data-paper-data="{&quot;origPos&quot;:null,&quot;index&quot;:null}" stroke="none" stroke-width="0" stroke-linecap="butt"><path d="M111.78027,39.34486c0,0 1.10403,14.31832 -2.23412,18.42681c-4.67717,5.75652 -18.30413,6.85104 -18.30413,6.85104z" fill="#8eb480"/><path d="M91.41702,64.6227c0,0 -1.10403,-14.31832 2.23412,-18.4268c4.67717,-5.75652 18.30413,-6.85104 18.30413,-6.85104z" data-paper-data="{&quot;index&quot;:null,&quot;origPos&quot;:null}" fill="#9dc78d"/></g><g data-paper-data="{&quot;origPos&quot;:null,&quot;index&quot;:null,&quot;origRot&quot;:0}" fill="#8db27e" stroke="none" stroke-width="0" stroke-linecap="butt"><path d="M120.23436,31.64217c0,0 9.80953,10.48839 9.77087,15.78191c-0.05417,7.41691 -10.00876,16.78699 -10.00876,16.78699z"/><path d="M120.13308,64.1017c0,0 -9.80953,-10.48839 -9.77087,-15.78191c0.05417,-7.41691 10.00876,-16.78699 10.00876,-16.78699z" data-paper-data="{&quot;index&quot;:null,&quot;origPos&quot;:null}"/></g><g data-paper-data="{&quot;origPos&quot;:null,&quot;origRot&quot;:0,&quot;index&quot;:null}" fill="#9dc78d" stroke="none" stroke-width="0" stroke-linecap="butt"><path d="M66.22507,51.75077c0,0 13.98184,-3.27739 18.55186,-0.60572c6.40319,3.74335 9.56562,17.04339 9.56562,17.04339z"/><path d="M94.31584,68.01548c0,0 -13.98184,3.27739 -18.55185,0.60572c-6.40319,-3.74335 -9.56562,-17.04339 -9.56562,-17.04339z" data-paper-data="{&quot;index&quot;:null,&quot;origPos&quot;:null}"/></g><g data-paper-data="{&quot;origPos&quot;:null,&quot;index&quot;:null,&quot;origRot&quot;:0}" fill="#9dc78d" stroke="none" stroke-width="0" stroke-linecap="butt"><path d="M75.17942,49.02204c0,0 -9.80953,-10.48839 -9.77087,-15.78191c0.05417,-7.41691 10.00876,-16.78699 10.00876,-16.78699z"/><path d="M75.2807,16.56249c0,0 9.80953,10.48839 9.77087,15.78191c-0.05417,7.41691 -10.00876,16.78699 -10.00876,16.78699z" data-paper-data="{&quot;index&quot;:null,&quot;origPos&quot;:null}"/></g><g data-paper-data="{&quot;origPos&quot;:null,&quot;index&quot;:null}" fill="#9dc78d" stroke="none" stroke-width="0" stroke-linecap="butt"><path d="M99.43215,61.46298c0,0 -13.62696,-1.09452 -18.30413,-6.85104c-3.33815,-4.10849 -2.23412,-18.42681 -2.23412,-18.42681z"/><path d="M78.71891,36.18514c0,0 13.62696,1.09452 18.30413,6.85104c3.33815,4.10848 2.23412,18.4268 2.23412,18.4268z" data-paper-data="{&quot;index&quot;:null,&quot;origPos&quot;:null}"/></g><g data-paper-data="{&quot;origPos&quot;:null,&quot;index&quot;:null,&quot;origRot&quot;:0}" fill="#9dc78d" stroke="none" stroke-width="0" stroke-linecap="butt"><path d="M65.93812,62.63119c0,0 -9.95458,-9.37008 -10.00876,-16.78699c-0.03867,-5.29352 9.77087,-15.78191 9.77087,-15.78191z"/><path d="M65.56362,29.95294c0,0 9.95458,9.37008 10.00876,16.78699c0.03867,5.29352 -9.77087,15.78191 -9.77087,15.78191z" data-paper-data="{&quot;index&quot;:null,&quot;origPos&quot;:null}"/></g><g data-paper-data="{&quot;origPos&quot;:null,&quot;origRot&quot;:0,&quot;index&quot;:null}" fill="#8db27e" stroke="none" stroke-width="0" stroke-linecap="butt"><path d="M96.33162,65.02871c0,0 3.16243,-13.30004 9.56562,-17.04339c4.57002,-2.67167 18.55186,0.60572 18.55186,0.60572z"/><path d="M124.47581,48.41809c0,0 -3.16243,13.30004 -9.56562,17.04339c-4.57001,2.67167 -18.55185,-0.60572 -18.55185,-0.60572z" data-paper-data="{&quot;index&quot;:null,&quot;origPos&quot;:null}"/></g><g data-paper-data="{&quot;origPos&quot;:null,&quot;index&quot;:null,&quot;origRot&quot;:0}" stroke="none" stroke-width="0" stroke-linecap="butt"><path d="M116.39345,-4.88126c0,0 -12.46264,-5.61913 -14.92832,-12.6144c-1.75979,-4.9926 4.10109,-18.10302 4.10109,-18.10302z" fill="#8eb480"/><path d="M105.40143,-35.6576c0,0 12.46265,5.61914 14.92833,12.6144c1.7598,4.9926 -4.10109,18.10301 -4.10109,18.10301z" data-paper-data="{&quot;index&quot;:null,&quot;origPos&quot;:null}" fill="#9dc78d"/></g><g data-paper-data="{&quot;origPos&quot;:null,&quot;index&quot;:null,&quot;origRot&quot;:0}" fill="#9dc78d" stroke="none" stroke-width="0" stroke-linecap="butt"><path d="M89.45677,-14.95118c0,0 -6.21813,-12.17485 -3.77169,-19.17687c1.74604,-4.99742 14.51442,-11.57022 14.51442,-11.57022z"/><path d="M100.1077,-45.84723c0,0 6.21814,12.17485 3.7717,19.17687c-1.74605,4.99741 -14.51443,11.57021 -14.51443,11.57021z" data-paper-data="{&quot;index&quot;:null,&quot;origPos&quot;:null}"/></g><g data-paper-data="{&quot;origPos&quot;:null,&quot;origRot&quot;:0,&quot;index&quot;:null}" stroke="none" stroke-width="0" stroke-linecap="butt"><path d="M112.2733,-2.56778c0,0 7.4562,-11.4585 14.74593,-12.82715c5.20277,-0.97681 17.26454,6.81721 17.26454,6.81721z" fill="#8eb480"/><path d="M144.36716,-8.73156c0,0 -7.45621,11.4585 -14.74594,12.82714c-5.20276,0.97682 -17.26452,-6.81721 -17.26452,-6.81721z" data-paper-data="{&quot;index&quot;:null,&quot;origPos&quot;:null}" fill="#9dc78d"/></g><g data-paper-data="{&quot;origPos&quot;:null,&quot;index&quot;:null,&quot;origRot&quot;:0}" stroke="none" stroke-width="0" stroke-linecap="butt"><path d="M137.5961,-27.50027c0,0 -3.78176,13.85393 -8.3084,16.59846c-6.34239,3.84544 -19.54215,0.28752 -19.54215,0.28752z" fill="#8eb480"/><path d="M109.91033,-10.55536c0,0 3.78176,-13.85393 8.30839,-16.59846c6.34239,-3.84543 19.54215,-0.28752 19.54215,-0.28752z" data-paper-data="{&quot;index&quot;:null,&quot;origPos&quot;:null}" fill="#9dc78d"/></g><g data-paper-data="{&quot;origPos&quot;:null,&quot;index&quot;:null,&quot;origRot&quot;:0}" stroke="none" stroke-width="0" stroke-linecap="butt"><path d="M141.83071,-27.16686c0,0 5.705,13.179 3.88614,18.15038c-2.54847,6.96554 -15.07686,12.4365 -15.07686,12.4365z" fill="#8db27e"/><path d="M130.80545,3.36303c0,0 -5.705,-13.179 -3.88614,-18.15038c2.54846,-6.96554 15.07685,-12.4365 15.07685,-12.4365z" data-paper-data="{&quot;index&quot;:null,&quot;origPos&quot;:null}" fill="#9dc78d"/></g><g data-paper-data="{&quot;origPos&quot;:null,&quot;origRot&quot;:0,&quot;index&quot;:null}" stroke="none" stroke-width="0" stroke-linecap="butt"><path d="M90.5238,-31.15834c0,0 14.26893,1.62201 17.67245,5.6765c4.76879,5.68086 3.26811,19.26909 3.26811,19.26909z" fill="#8eb480"/><path d="M111.49743,-6.3846c0,0 -14.26892,-1.62202 -17.67245,-5.6765c-4.76878,-5.68086 -3.2681,-19.26909 -3.2681,-19.26909z" data-paper-data="{&quot;index&quot;:null,&quot;origPos&quot;:null}" fill="#9dc78d"/></g><g data-paper-data="{&quot;origPos&quot;:null,&quot;index&quot;:null,&quot;origRot&quot;:0}" fill="#9dc78d" stroke="none" stroke-width="0" stroke-linecap="butt"><path d="M76.87568,13.19239c0,0 -6.21814,-12.17485 -3.7717,-19.17687c1.74605,-4.99742 14.51443,-11.57022 14.51443,-11.57022z"/><path d="M87.5266,-17.70368c0,0 6.21814,12.17485 3.7717,19.17687c-1.74605,4.99742 -14.51443,11.57022 -14.51443,11.57022z" data-paper-data="{&quot;index&quot;:null,&quot;origPos&quot;:null}"/></g><g data-paper-data="{&quot;origPos&quot;:null,&quot;index&quot;:null,&quot;origRot&quot;:0}" stroke="none" stroke-width="0" stroke-linecap="butt"><path d="M86.79349,-4.21667c0,0 3.78176,-13.85394 8.3084,-16.59847c6.34239,-3.84543 19.54214,-0.28752 19.54214,-0.28752z" fill="#8eb480"/><path d="M114.47924,-21.16158c0,0 -3.78176,13.85393 -8.30839,16.59845c-6.34239,3.84544 -19.54214,0.28752 -19.54214,0.28752z" data-paper-data="{&quot;index&quot;:null,&quot;origPos&quot;:null}" fill="#9dc78d"/></g><g data-paper-data="{&quot;origPos&quot;:null,&quot;index&quot;:null,&quot;origRot&quot;:0}" fill="#9dc78d" stroke="none" stroke-width="0" stroke-linecap="butt"><path d="M76.23942,0.18953c0,0 -5.705,-13.17901 -3.88614,-18.15039c2.54846,-6.96555 15.07686,-12.4365 15.07686,-12.4365z"/><path d="M87.26467,-30.34039c0,0 5.705,13.179 3.88614,18.15038c-2.54846,6.96555 -15.07685,12.4365 -15.07685,12.4365z" data-paper-data="{&quot;index&quot;:null,&quot;origPos&quot;:null}"/></g><g data-paper-data="{&quot;origPos&quot;:null,&quot;origRot&quot;:0,&quot;index&quot;:null}" fill="#9dc78d" stroke="none" stroke-width="0" stroke-linecap="butt"><path d="M133.86577,-0.5586c0,0 -14.26893,-1.62202 -17.67245,-5.67651c-4.76878,-5.68086 -3.2681,-19.26909 -3.2681,-19.26909z"/><path d="M112.89214,-25.33235c0,0 14.26893,1.62202 17.67245,5.6765c4.76878,5.68086 3.2681,19.26909 3.2681,19.26909z" data-paper-data="{&quot;index&quot;:null,&quot;origPos&quot;:null}"/></g><g data-paper-data="{&quot;origPos&quot;:null,&quot;index&quot;:null,&quot;origRot&quot;:0}" stroke="none" stroke-width="0" stroke-linecap="butt"><path d="M124.51551,-1.00435c0,0 5.705,13.179 3.88614,18.15038c-2.54846,6.96555 -15.07685,12.4365 -15.07685,12.4365z" fill="#8eb480"/><path d="M113.49025,29.52556c0,0 -5.705,-13.17901 -3.88614,-18.15039c2.54846,-6.96555 15.07686,-12.4365 15.07686,-12.4365z" data-paper-data="{&quot;index&quot;:null,&quot;origPos&quot;:null}" fill="#9dc78d"/></g><g data-paper-data="{&quot;origPos&quot;:null,&quot;index&quot;:null,&quot;origRot&quot;:0}" fill="#9dc78d" stroke="none" stroke-width="0" stroke-linecap="butt"><path d="M105.86822,-20.88525c0,0 12.46264,5.61913 14.92832,12.6144c1.75979,4.9926 -4.10109,18.10302 -4.10109,18.10302z"/><path d="M116.86023,9.89107c0,0 -12.46264,-5.61912 -14.92832,-12.6144c-1.7598,-4.9926 4.10109,-18.10302 4.10109,-18.10302z" data-paper-data="{&quot;index&quot;:null,&quot;origPos&quot;:null}"/></g><g data-paper-data="{&quot;origPos&quot;:null,&quot;index&quot;:null,&quot;origRot&quot;:0}" fill="#9dc78d" stroke="none" stroke-width="0" stroke-linecap="butt"><path d="M132.80489,-10.81533c0,0 6.21813,12.17485 3.77169,19.17687c-1.74605,4.99741 -14.51443,11.57021 -14.51443,11.57021z"/><path d="M122.15397,20.08071c0,0 -6.21814,-12.17485 -3.7717,-19.17687c1.74605,-4.99742 14.51443,-11.57022 14.51443,-11.57022z" data-paper-data="{&quot;index&quot;:null,&quot;origPos&quot;:null}"/></g><g data-paper-data="{&quot;origPos&quot;:null,&quot;origRot&quot;:0,&quot;index&quot;:null}" fill="#9dc78d" stroke="none" stroke-width="0" stroke-linecap="butt"><path d="M109.98836,-23.19875c0,0 -7.4562,11.4585 -14.74593,12.82715c-5.20276,0.97682 -17.26453,-6.81721 -17.26453,-6.81721z"/><path d="M77.8945,-17.03495c0,0 7.4562,-11.4585 14.74593,-12.82714c5.20276,-0.97682 17.26453,6.8172 17.26453,6.8172z" data-paper-data="{&quot;index&quot;:null,&quot;origPos&quot;:null}"/></g><g data-paper-data="{&quot;origPos&quot;:null,&quot;index&quot;:null,&quot;origRot&quot;:0}" fill="#9dc78d" stroke="none" stroke-width="0" stroke-linecap="butt"><path d="M95.86973,15.67403c0,0 -5.705,-13.17901 -3.88614,-18.15039c2.54846,-6.96554 15.07685,-12.4365 15.07685,-12.4365z"/><path d="M106.89499,-14.85587c0,0 5.70499,13.179 3.88613,18.15038c-2.54846,6.96554 -15.07685,12.4365 -15.07685,12.4365z" data-paper-data="{&quot;index&quot;:null,&quot;origPos&quot;:null}"/></g><g data-paper-data="{&quot;origPos&quot;:null,&quot;index&quot;:null,&quot;origRot&quot;:0}" stroke="none" stroke-width="0" stroke-linecap="butt"><path d="M114.51702,35.55495c0,0 -12.46264,-5.61913 -14.92832,-12.6144c-1.75979,-4.9926 4.10109,-18.10303 4.10109,-18.10303z" fill="#8eb480"/><path d="M103.525,4.77859c0,0 12.46264,5.61913 14.92832,12.6144c1.7598,4.9926 -4.10109,18.10302 -4.10109,18.10302z" data-paper-data="{&quot;index&quot;:null,&quot;origPos&quot;:null}" fill="#9dc78d"/></g><g data-paper-data="{&quot;origPos&quot;:null,&quot;index&quot;:null,&quot;origRot&quot;:0}" fill="#9dc78d" stroke="none" stroke-width="0" stroke-linecap="butt"><path d="M87.58035,25.48503c0,0 -6.21814,-12.17485 -3.7717,-19.17687c1.74605,-4.99742 14.51443,-11.57022 14.51443,-11.57022z"/><path d="M98.23126,-5.41104c0,0 6.21814,12.17485 3.7717,19.17687c-1.74605,4.99742 -14.51443,11.57022 -14.51443,11.57022z" data-paper-data="{&quot;index&quot;:null,&quot;origPos&quot;:null}"/></g><g data-paper-data="{&quot;origPos&quot;:null,&quot;origRot&quot;:0,&quot;index&quot;:null}" fill="#8db27e" stroke="none" stroke-width="0" stroke-linecap="butt"><path d="M110.39687,37.86842c0,0 7.4562,-11.4585 14.74593,-12.82714c5.20277,-0.97682 17.26454,6.8172 17.26454,6.8172z"/><path d="M142.49074,31.70463c0,0 -7.4562,11.4585 -14.74593,12.82714c-5.20276,0.97682 -17.26453,-6.81721 -17.26453,-6.81721z" data-paper-data="{&quot;index&quot;:null,&quot;origPos&quot;:null}"/></g><g data-paper-data="{&quot;origPos&quot;:null,&quot;index&quot;:null,&quot;origRot&quot;:0}" fill="#8db27e" stroke="none" stroke-width="0" stroke-linecap="butt"><path d="M145.63748,-8.42279c0,0 6.21814,12.17484 3.7717,19.17686c-1.74605,4.99741 -14.51443,11.57022 -14.51443,11.57022z"/><path d="M134.98656,22.47326c0,0 -6.21814,-12.17484 -3.7717,-19.17686c1.74604,-4.99741 14.51443,-11.57022 14.51443,-11.57022z" data-paper-data="{&quot;index&quot;:null,&quot;origPos&quot;:null}"/></g><g data-paper-data="{&quot;origPos&quot;:null,&quot;index&quot;:null,&quot;origRot&quot;:0}" stroke="none" stroke-width="0" stroke-linecap="butt"><path d="M135.71967,12.93594c0,0 -3.78176,13.85393 -8.3084,16.59846c-6.34239,3.84544 -19.54214,0.28752 -19.54214,0.28752z" fill="#8db27e"/><path d="M108.03391,29.88083c0,0 3.78176,-13.85393 8.30839,-16.59845c6.34239,-3.84543 19.54214,-0.28752 19.54214,-0.28752z" data-paper-data="{&quot;index&quot;:null,&quot;origPos&quot;:null}" fill="#9dc78d"/></g><g data-paper-data="{&quot;origPos&quot;:null,&quot;index&quot;:null,&quot;origRot&quot;:0}" fill="#8db27e" stroke="none" stroke-width="0" stroke-linecap="butt"><path d="M146.27374,8.52973c0,0 5.705,13.179 3.88614,18.15038c-2.54847,6.96554 -15.07686,12.4365 -15.07686,12.4365z"/><path d="M135.24849,39.05963c0,0 -5.705,-13.17901 -3.88614,-18.15039c2.54846,-6.96555 15.07685,-12.4365 15.07685,-12.4365z" data-paper-data="{&quot;index&quot;:null,&quot;origPos&quot;:null}"/></g><g data-paper-data="{&quot;origPos&quot;:null,&quot;origRot&quot;:0,&quot;index&quot;:null}" fill="#9dc78d" stroke="none" stroke-width="0" stroke-linecap="butt"><path d="M88.64738,9.27785c0,0 14.26893,1.62201 17.67246,5.6765c4.76879,5.68086 3.2681,19.26909 3.2681,19.26909z"/><path d="M109.62102,34.0516c0,0 -14.26892,-1.62202 -17.67245,-5.6765c-4.76879,-5.68086 -3.2681,-19.26909 -3.2681,-19.26909z" data-paper-data="{&quot;index&quot;:null,&quot;origPos&quot;:null}"/></g><g data-paper-data="{&quot;origPos&quot;:null}" stroke="none" stroke-width="0.5" stroke-linecap="butt"><path d="M296.50001,134.00001c0,-3.03757 2.46243,-5.5 5.5,-5.5c3.03757,0 5.5,2.46243 5.5,5.5c0,3.03757 -2.46243,5.5 -5.5,5.5c-3.03757,0 -5.5,-2.46243 -5.5,-5.5z" data-paper-data="{&quot;origPos&quot;:null}" fill="#c76e6e"/><path d="M302.00001,128.50001c3.03756,0 5.5,2.46244 5.5,5.5c0,3.03756 -2.46244,5.5 -5.5,5.5c-3.03756,0 -3.03756,-11 0,-11z" data-paper-data="{&quot;origPos&quot;:null}" fill="#c76262"/></g><g data-paper-data="{&quot;origPos&quot;:null,&quot;origRot&quot;:0}" stroke="none" stroke-width="0" stroke-linecap="butt"><path d="M220.46593,141.17173c0,0 15.92179,-9.86212 15.87173,-16.17439c-0.15018,-18.93679 -0.75477,-95.17202 -0.75477,-95.17202l15.36692,8.37839l11.78869,-10.36473l11.94314,1.67627l0.88304,111.34642z" data-paper-data="{&quot;origPos&quot;:null,&quot;origRot&quot;:0}" fill="#8b7f6e"/><path d="M250.94979,38.2037l11.78869,-10.36473l11.94313,1.67627c0,0 0.47206,59.52417 0.69372,87.47387c0.07389,9.31657 0.18932,23.87255 0.18932,23.87255z" data-paper-data="{&quot;origPos&quot;:null,&quot;origRot&quot;:0}" fill="#817666"/></g><g data-paper-data="{&quot;origPos&quot;:null,&quot;index&quot;:null}" stroke="none" stroke-width="0" stroke-linecap="butt"><path d="M191.48201,128.00005c0,0 1.39763,18.126 -2.82824,23.32706c-5.92097,7.28735 -23.17176,8.67294 -23.17176,8.67294z" fill="#8eb480"/><path d="M165.70355,160.00005c0,0 -1.39763,-18.126 2.82824,-23.32705c5.92097,-7.28735 23.17176,-8.67294 23.17176,-8.67294z" data-paper-data="{&quot;index&quot;:null,&quot;origPos&quot;:null}" fill="#9dc78d"/></g><g data-paper-data="{&quot;origPos&quot;:null,&quot;index&quot;:null,&quot;origRot&quot;:0}" stroke="none" stroke-width="0" stroke-linecap="butt"><path d="M202.1843,127.24897c0,0 12.41819,13.27757 12.36924,19.9788c-0.06858,9.38929 -12.67039,21.25116 -12.67039,21.25116z" fill="#8eb480"/><path d="M202.05609,168.34049c0,0 -12.41819,-13.27757 -12.36924,-19.9788c0.06858,-9.38929 12.67039,-21.25116 12.67039,-21.25116z" data-paper-data="{&quot;index&quot;:null,&quot;origPos&quot;:null}" fill="#9dc78d"/></g><path d="M236.00001,56.00002v-23h39v17c0,0 -13.96661,-0.00514 -22.26589,1.27167c-6.92096,1.06476 -16.7341,4.72833 -16.7341,4.72833z" data-paper-data="{&quot;origPos&quot;:null}" fill="#6c6356" stroke="none" stroke-width="0" stroke-linecap="butt"/><g data-paper-data="{&quot;origPos&quot;:null,&quot;origRot&quot;:0,&quot;index&quot;:null}" stroke="none" stroke-width="0" stroke-linecap="butt"><path d="M165.97577,152.54805c0,0 11.2257,-14.29996 17.85582,-15.27481c9.28966,-1.3659 22.93664,9.27692 22.93664,9.27692z" fill="#8eb480"/><path d="M206.60501,146.4004c0,0 -11.2257,14.29996 -17.85582,15.27481c-9.28966,1.3659 -22.93664,-9.27692 -22.93664,-9.27692z" data-paper-data="{&quot;index&quot;:null,&quot;origPos&quot;:null}" fill="#9dc78d"/></g><g data-paper-data="{&quot;origPos&quot;:null,&quot;origRot&quot;:0,&quot;index&quot;:null}" stroke="none" stroke-width="0" stroke-linecap="butt"><path d="M132.81231,129.70506c0,0 17.70004,-4.14895 23.48537,-0.7668c8.10599,4.73882 12.10941,21.57575 12.10941,21.57575z" fill="#8eb480"/><path d="M168.37326,150.29508c0,0 -17.70004,4.14895 -23.48536,0.7668c-8.10599,-4.73882 -12.10941,-21.57575 -12.10941,-21.57575z" data-paper-data="{&quot;index&quot;:null,&quot;origPos&quot;:null}" fill="#9dc78d"/></g><g data-paper-data="{&quot;origPos&quot;:null,&quot;origRot&quot;:0}" stroke="none" stroke-width="0" stroke-linecap="butt"><path d="M63.07495,145.51401c0,0 4.00341,-16.83693 12.1094,-21.57575c5.78533,-3.38214 23.48537,0.7668 23.48537,0.7668z" fill="#8eb480"/><path d="M98.70354,124.48614c0,0 -4.00341,16.83693 -12.1094,21.57575c-5.78532,3.38214 -23.48537,-0.7668 -23.48537,-0.7668z" data-paper-data="{&quot;index&quot;:null,&quot;origPos&quot;:null}" fill="#9dc78d"/></g><g data-paper-data="{&quot;origPos&quot;:null,&quot;index&quot;:null}" stroke="none" stroke-width="0" stroke-linecap="butt"><path d="M287.48202,-6.99995c0,0 1.39763,18.126 -2.82824,23.32706c-5.92097,7.28735 -23.17176,8.67294 -23.17176,8.67294z" fill="#8eb480"/><path d="M261.70355,25.00005c0,0 -1.39763,-18.126 2.82824,-23.32705c5.92097,-7.28735 23.17176,-8.67294 23.17176,-8.67294z" data-paper-data="{&quot;index&quot;:null,&quot;origPos&quot;:null}" fill="#9dc78d"/></g><g data-paper-data="{&quot;origPos&quot;:null,&quot;index&quot;:null,&quot;origRot&quot;:0}" stroke="none" stroke-width="0" stroke-linecap="butt"><path d="M298.1843,-16.75104c0,0 12.41819,13.27757 12.36924,19.9788c-0.06858,9.38929 -12.67039,21.25116 -12.67039,21.25116z" fill="#8eb480"/><path d="M298.05609,24.34049c0,0 -12.41819,-13.27757 -12.36924,-19.9788c0.06858,-9.38929 12.67039,-21.25116 12.67039,-21.25116z" data-paper-data="{&quot;index&quot;:null,&quot;origPos&quot;:null}" fill="#9dc78d"/></g><g data-paper-data="{&quot;origPos&quot;:null,&quot;origRot&quot;:0,&quot;index&quot;:null}" stroke="none" stroke-width="0" stroke-linecap="butt"><path d="M229.8123,8.70507c0,0 17.70004,-4.14895 23.48537,-0.7668c8.10599,4.73882 12.10941,21.57575 12.10941,21.57575z" fill="#8eb480"/><path d="M265.37325,29.29508c0,0 -17.70004,4.14895 -23.48536,0.7668c-8.10599,-4.73882 -12.10941,-21.57575 -12.10941,-21.57575z" data-paper-data="{&quot;index&quot;:null,&quot;origPos&quot;:null}" fill="#9dc78d"/></g><g data-paper-data="{&quot;origPos&quot;:null,&quot;index&quot;:null}" stroke="none" stroke-width="0" stroke-linecap="butt"><path d="M267.48202,-32.50041c0,0 17.25079,1.38559 23.17176,8.67294c4.22587,5.20106 2.82824,23.32706 2.82824,23.32706z" fill="#8eb480"/><path d="M293.70355,-0.50041c0,0 -17.25079,-1.38559 -23.17176,-8.67294c-4.22587,-5.20105 -2.82824,-23.32705 -2.82824,-23.32705z" data-paper-data="{&quot;index&quot;:null,&quot;origPos&quot;:null}" fill="#9dc78d"/></g><g data-paper-data="{&quot;origPos&quot;:null,&quot;index&quot;:null,&quot;origRot&quot;:0}" fill="#8db27e" stroke="none" stroke-width="0" stroke-linecap="butt"><path d="M311.88315,-16.97928c0,0 12.60181,11.86187 12.67039,21.25116c0.04895,6.70123 -12.36924,19.9788 -12.36924,19.9788z"/><path d="M312.35724,24.38912c0,0 -12.60181,-11.86187 -12.67039,-21.25116c-0.04895,-6.70123 12.36924,-19.9788 12.36924,-19.9788z" data-paper-data="{&quot;index&quot;:null,&quot;origPos&quot;:null}"/></g><g data-paper-data="{&quot;origPos&quot;:null,&quot;origRot&quot;:0,&quot;index&quot;:null}" stroke="none" stroke-width="0" stroke-linecap="butt"><path d="M271.40709,-37.01437c0,0 -4.00342,16.83693 -12.10941,21.57575c-5.78533,3.38215 -23.48537,-0.7668 -23.48537,-0.7668z" fill="#8eb480"/><path d="M235.77849,-15.98648c0,0 4.00342,-16.83693 12.10941,-21.57575c5.78532,-3.38215 23.48536,0.7668 23.48536,0.7668z" data-paper-data="{&quot;index&quot;:null,&quot;origPos&quot;:null}" fill="#9dc78d"/></g><g data-paper-data="{&quot;origPos&quot;:null,&quot;index&quot;:null}" stroke="none" stroke-width="0" stroke-linecap="butt"><path d="M283.85016,29.00005c0,0 -17.25079,-1.38559 -23.17176,-8.67294c-4.22587,-5.20106 -2.82824,-23.32706 -2.82824,-23.32706z" fill="#8eb480"/><path d="M257.62863,-2.99994c0,0 17.25079,1.38559 23.17176,8.67294c4.22587,5.20105 2.82824,23.32705 2.82824,23.32705z" data-paper-data="{&quot;index&quot;:null,&quot;origPos&quot;:null}" fill="#9dc78d"/></g><g data-paper-data="{&quot;origPos&quot;:null,&quot;index&quot;:null,&quot;origRot&quot;:0}" stroke="none" stroke-width="0" stroke-linecap="butt"><path d="M247.44901,28.47893c0,0 -12.60181,-11.86187 -12.67039,-21.25116c-0.04895,-6.70123 12.36924,-19.9788 12.36924,-19.9788z" fill="#8eb480"/><path d="M246.97494,-12.88947c0,0 12.60181,11.86187 12.67039,21.25116c0.04895,6.70123 -12.36924,19.9788 -12.36924,19.9788z" data-paper-data="{&quot;index&quot;:null,&quot;origPos&quot;:null}" fill="#9dc78d"/></g><g data-paper-data="{&quot;origPos&quot;:null,&quot;index&quot;:null}" stroke="none" stroke-width="0" stroke-linecap="butt"><path d="M251.85015,3.4996c0,0 -1.39763,-18.126 2.82824,-23.32706c5.92097,-7.28735 23.17176,-8.67294 23.17176,-8.67294z" fill="#8eb480"/><path d="M277.62863,-28.50041c0,0 1.39763,18.126 -2.82824,23.32705c-5.92097,7.28735 -23.17176,8.67294 -23.17176,8.67294z" data-paper-data="{&quot;index&quot;:null,&quot;origPos&quot;:null}" fill="#9dc78d"/></g><g data-paper-data="{&quot;origPos&quot;:null,&quot;index&quot;:null,&quot;origRot&quot;:0}" stroke="none" stroke-width="0" stroke-linecap="butt"><path d="M241.14788,13.25068c0,0 -12.41819,-13.27757 -12.36924,-19.9788c0.06858,-9.38929 12.67039,-21.25116 12.67039,-21.25116z" fill="#8eb480"/><path d="M241.27609,-27.84084c0,0 12.41819,13.27757 12.36924,19.9788c-0.06858,9.38929 -12.67039,21.25116 -12.67039,21.25116z" data-paper-data="{&quot;index&quot;:null,&quot;origPos&quot;:null}" fill="#9dc78d"/></g><g data-paper-data="{&quot;origPos&quot;:null,&quot;origRot&quot;:0,&quot;index&quot;:null}" fill="#9dc78d" stroke="none" stroke-width="0" stroke-linecap="butt"><path d="M309.51987,-12.20542c0,0 -17.70004,4.14895 -23.48537,0.7668c-8.10599,-4.73882 -12.10941,-21.57575 -12.10941,-21.57575z"/><path d="M273.95892,-32.79543c0,0 17.70004,-4.14895 23.48536,-0.7668c8.10599,4.73882 12.10941,21.57575 12.10941,21.57575z" data-paper-data="{&quot;index&quot;:null,&quot;origPos&quot;:null}"/></g><g data-paper-data="{&quot;origPos&quot;:null,&quot;index&quot;:null,&quot;origRot&quot;:0}" fill="#9dc78d" stroke="none" stroke-width="0" stroke-linecap="butt"><path d="M306.88315,-70.88948c0,0 12.60181,11.86187 12.67039,21.25116c0.04895,6.70123 -12.36924,19.9788 -12.36924,19.9788z"/><path d="M307.35724,-29.52107c0,0 -12.60181,-11.86187 -12.67039,-21.25116c-0.04895,-6.70123 12.36924,-19.9788 12.36924,-19.9788z" data-paper-data="{&quot;index&quot;:null,&quot;origPos&quot;:null}"/></g><g data-paper-data="{&quot;origPos&quot;:null,&quot;index&quot;:null}" fill="#9dc78d" stroke="none" stroke-width="0" stroke-linecap="butt"><path d="M302.48202,-45.91014c0,0 1.39763,18.126 -2.82824,23.32706c-5.92097,7.28735 -23.17176,8.67294 -23.17176,8.67294z"/><path d="M276.70355,-13.91014c0,0 -1.39763,-18.126 2.82824,-23.32705c5.92097,-7.28735 23.17176,-8.67294 23.17176,-8.67294z" data-paper-data="{&quot;index&quot;:null,&quot;origPos&quot;:null}"/></g><g data-paper-data="{&quot;origPos&quot;:null,&quot;index&quot;:null,&quot;origRot&quot;:0}" fill="#9dc78d" stroke="none" stroke-width="0" stroke-linecap="butt"><path d="M313.1843,-55.66122c0,0 12.41819,13.27757 12.36924,19.9788c-0.06858,9.38929 -12.67039,21.25116 -12.67039,21.25116z"/><path d="M313.05609,-14.5697c0,0 -12.41819,-13.27757 -12.36924,-19.9788c0.06858,-9.38929 12.67039,-21.25116 12.67039,-21.25116z" data-paper-data="{&quot;index&quot;:null,&quot;origPos&quot;:null}"/></g><g data-paper-data="{&quot;origPos&quot;:null,&quot;origRot&quot;:0,&quot;index&quot;:null}" stroke="none" stroke-width="0" stroke-linecap="butt"><path d="M244.8123,-30.20512c0,0 17.70004,-4.14895 23.48537,-0.7668c8.10599,4.73882 12.10941,21.57575 12.10941,21.57575z" fill="#8eb480"/><path d="M280.37325,-9.61512c0,0 -17.70004,4.14895 -23.48536,0.7668c-8.10599,-4.73882 -12.10941,-21.57575 -12.10941,-21.57575z" data-paper-data="{&quot;index&quot;:null,&quot;origPos&quot;:null}" fill="#9dc78d"/></g><g data-paper-data="{&quot;origPos&quot;:null,&quot;index&quot;:null,&quot;origRot&quot;:0}" stroke="none" stroke-width="0" stroke-linecap="butt"><path d="M256.14788,-33.65952c0,0 -12.41819,-13.27757 -12.36924,-19.9788c0.06858,-9.38929 12.67039,-21.25116 12.67039,-21.25116z" fill="#8eb480"/><path d="M256.27609,-74.75104c0,0 12.41819,13.27757 12.36924,19.9788c-0.06858,9.38929 -12.67039,21.25116 -12.67039,21.25116z" data-paper-data="{&quot;index&quot;:null,&quot;origPos&quot;:null}" fill="#9dc78d"/></g><g data-paper-data="{&quot;origPos&quot;:null,&quot;index&quot;:null}" stroke="none" stroke-width="0" stroke-linecap="butt"><path d="M286.85016,-17.91014c0,0 -17.25079,-1.38559 -23.17176,-8.67294c-4.22587,-5.20106 -2.82824,-23.32706 -2.82824,-23.32706z" fill="#8eb480"/><path d="M260.62863,-49.91013c0,0 17.25079,1.38559 23.17176,8.67294c4.22587,5.20105 2.82824,23.32705 2.82824,23.32705z" data-paper-data="{&quot;index&quot;:null,&quot;origPos&quot;:null}" fill="#9dc78d"/></g><g data-paper-data="{&quot;origPos&quot;:null,&quot;index&quot;:null,&quot;origRot&quot;:0}" stroke="none" stroke-width="0" stroke-linecap="butt"><path d="M250.44901,-18.43126c0,0 -12.60181,-11.86187 -12.67039,-21.25116c-0.04895,-6.70123 12.36924,-19.9788 12.36924,-19.9788z" fill="#8eb480"/><path d="M249.97494,-59.79966c0,0 12.60181,11.86187 12.67039,21.25116c0.04895,6.70123 -12.36924,19.9788 -12.36924,19.9788z" data-paper-data="{&quot;index&quot;:null,&quot;origPos&quot;:null}" fill="#9dc78d"/></g><g data-paper-data="{&quot;origPos&quot;:null,&quot;origRot&quot;:0,&quot;index&quot;:null}" fill="#8db27e" stroke="none" stroke-width="0" stroke-linecap="butt"><path d="M298.92509,-9.39617c0,0 4.00342,-16.83693 12.10941,-21.57575c5.78533,-3.38215 23.48537,0.7668 23.48537,0.7668z"/><path d="M334.55369,-30.42407c0,0 -4.00342,16.83693 -12.10941,21.57575c-5.78532,3.38215 -23.48536,-0.7668 -23.48536,-0.7668z" data-paper-data="{&quot;index&quot;:null,&quot;origPos&quot;:null}"/></g><g data-paper-data="{&quot;origPos&quot;:null,&quot;index&quot;:null,&quot;origRot&quot;:0}" fill="#9dc78d" stroke="none" stroke-width="0" stroke-linecap="butt"><path d="M283.1843,-65.75104c0,0 12.41819,13.27757 12.36924,19.9788c-0.06858,9.38929 -12.67039,21.25116 -12.67039,21.25116z"/><path d="M283.05609,-24.65952c0,0 -12.41819,-13.27757 -12.36924,-19.9788c0.06858,-9.38929 12.67039,-21.25116 12.67039,-21.25116z" data-paper-data="{&quot;index&quot;:null,&quot;origPos&quot;:null}"/></g><g data-paper-data="{&quot;origPos&quot;:null,&quot;index&quot;:null}" stroke="none" stroke-width="0" stroke-linecap="butt"><path d="M252.48202,-81.5004c0,0 17.25079,1.38559 23.17176,8.67294c4.22587,5.20106 2.82824,23.32706 2.82824,23.32706z" fill="#8eb480"/><path d="M278.70355,-49.50041c0,0 -17.25079,-1.38559 -23.17176,-8.67294c-4.22587,-5.20105 -2.82824,-23.32705 -2.82824,-23.32705z" data-paper-data="{&quot;index&quot;:null,&quot;origPos&quot;:null}" fill="#9dc78d"/></g><g data-paper-data="{&quot;origPos&quot;:null,&quot;index&quot;:null,&quot;origRot&quot;:0}" fill="#9dc78d" stroke="none" stroke-width="0" stroke-linecap="butt"><path d="M288.88315,-80.97928c0,0 12.60181,11.86187 12.67039,21.25116c0.04895,6.70123 -12.36924,19.9788 -12.36924,19.9788z"/><path d="M289.35724,-39.61088c0,0 -12.60181,-11.86187 -12.67039,-21.25116c-0.04895,-6.70123 12.36924,-19.9788 12.36924,-19.9788z" data-paper-data="{&quot;index&quot;:null,&quot;origPos&quot;:null}"/></g><g data-paper-data="{&quot;origPos&quot;:null,&quot;origRot&quot;:0,&quot;index&quot;:null}" stroke="none" stroke-width="0" stroke-linecap="butt"><path d="M256.40709,-86.01437c0,0 -4.00342,16.83693 -12.10941,21.57575c-5.78533,3.38215 -23.48537,-0.7668 -23.48537,-0.7668z" fill="#8eb480"/><path d="M220.77849,-64.98649c0,0 4.00342,-16.83693 12.10941,-21.57575c5.78532,-3.38215 23.48536,0.7668 23.48536,0.7668z" data-paper-data="{&quot;index&quot;:null,&quot;origPos&quot;:null}" fill="#9dc78d"/></g><g data-paper-data="{&quot;origPos&quot;:null,&quot;index&quot;:null,&quot;origRot&quot;:0}" stroke="none" stroke-width="0" stroke-linecap="butt"><path d="M232.44901,-20.52107c0,0 -12.60181,-11.86187 -12.67039,-21.25116c-0.04895,-6.70123 12.36924,-19.9788 12.36924,-19.9788z" fill="#8eb480"/><path d="M231.97494,-61.88947c0,0 12.60181,11.86187 12.67039,21.25116c0.04895,6.70123 -12.36924,19.9788 -12.36924,19.9788z" data-paper-data="{&quot;index&quot;:null,&quot;origPos&quot;:null}" fill="#9dc78d"/></g><g data-paper-data="{&quot;origPos&quot;:null,&quot;index&quot;:null}" stroke="none" stroke-width="0" stroke-linecap="butt"><path d="M236.85015,-45.5004c0,0 -1.39763,-18.126 2.82824,-23.32706c5.92097,-7.28735 23.17176,-8.67294 23.17176,-8.67294z" fill="#8eb480"/><path d="M262.62863,-77.5004c0,0 1.39763,18.126 -2.82824,23.32705c-5.92097,7.28735 -23.17176,8.67294 -23.17176,8.67294z" data-paper-data="{&quot;index&quot;:null,&quot;origPos&quot;:null}" fill="#9dc78d"/></g><g data-paper-data="{&quot;origPos&quot;:null,&quot;index&quot;:null,&quot;origRot&quot;:0}" stroke="none" stroke-width="0" stroke-linecap="butt"><path d="M226.14788,-35.74933c0,0 -12.41819,-13.27757 -12.36924,-19.9788c0.06858,-9.38929 12.67039,-21.25116 12.67039,-21.25116z" fill="#8eb480"/><path d="M226.27609,-76.84085c0,0 12.41819,13.27757 12.36924,19.9788c-0.06858,9.38929 -12.67039,21.25116 -12.67039,21.25116z" data-paper-data="{&quot;index&quot;:null,&quot;origPos&quot;:null}" fill="#9dc78d"/></g><g data-paper-data="{&quot;origPos&quot;:null,&quot;origRot&quot;:0,&quot;index&quot;:null}" stroke="none" stroke-width="0" stroke-linecap="butt"><path d="M294.51987,-61.20542c0,0 -17.70004,4.14895 -23.48537,0.7668c-8.10599,-4.73882 -12.10941,-21.57575 -12.10941,-21.57575z" fill="#8eb480"/><path d="M258.95892,-81.79543c0,0 17.70004,-4.14895 23.48536,-0.7668c8.10599,4.73882 12.10941,21.57575 12.10941,21.57575z" data-paper-data="{&quot;index&quot;:null,&quot;origPos&quot;:null}" fill="#9dc78d"/></g><g data-paper-data="{&quot;origPos&quot;:null,&quot;index&quot;:null}" stroke="none" stroke-width="0" stroke-linecap="butt"><path d="M246.85015,-5.99995c0,0 -17.25079,-1.38559 -23.17176,-8.67294c-4.22587,-5.20106 -2.82824,-23.32706 -2.82824,-23.32706z" fill="#8eb480"/><path d="M220.62863,-37.99994c0,0 17.25079,1.38559 23.17176,8.67294c4.22587,5.20105 2.82824,23.32705 2.82824,23.32705z" data-paper-data="{&quot;index&quot;:null,&quot;origPos&quot;:null}" fill="#9dc78d"/></g><g data-paper-data="{&quot;origPos&quot;:null,&quot;index&quot;:null,&quot;origRot&quot;:0}" stroke="none" stroke-width="0" stroke-linecap="butt"><path d="M210.44901,-6.52107c0,0 -12.60181,-11.86187 -12.67039,-21.25116c-0.04895,-6.70123 12.36924,-19.9788 12.36924,-19.9788z" fill="#8eb480"/><path d="M209.97494,-47.88947c0,0 12.60181,11.86187 12.67039,21.25116c0.04895,6.70123 -12.36924,19.9788 -12.36924,19.9788z" data-paper-data="{&quot;index&quot;:null,&quot;origPos&quot;:null}" fill="#9dc78d"/></g><g data-paper-data="{&quot;origPos&quot;:null,&quot;origRot&quot;:0,&quot;index&quot;:null}" stroke="none" stroke-width="0" stroke-linecap="butt"><path d="M242.92509,-1.48598c0,0 4.00342,-16.83693 12.10941,-21.57575c5.78533,-3.38215 23.48537,0.7668 23.48537,0.7668z" fill="#8eb480"/><path d="M278.55368,-22.51388c0,0 -4.00342,16.83693 -12.10941,21.57575c-5.78532,3.38215 -23.48536,-0.7668 -23.48536,-0.7668z" data-paper-data="{&quot;index&quot;:null,&quot;origPos&quot;:null}" fill="#9dc78d"/></g><g data-paper-data="{&quot;origPos&quot;:null,&quot;index&quot;:null}" stroke="none" stroke-width="0" stroke-linecap="butt"><path d="M262.48202,-41.99995c0,0 1.39763,18.126 -2.82824,23.32706c-5.92097,7.28735 -23.17176,8.67294 -23.17176,8.67294z" fill="#8eb480"/><path d="M236.70355,-9.99995c0,0 -1.39763,-18.126 2.82824,-23.32705c5.92097,-7.28735 23.17176,-8.67294 23.17176,-8.67294z" data-paper-data="{&quot;index&quot;:null,&quot;origPos&quot;:null}" fill="#9dc78d"/></g><g data-paper-data="{&quot;origPos&quot;:null,&quot;index&quot;:null,&quot;origRot&quot;:0}" stroke="none" stroke-width="0" stroke-linecap="butt"><path d="M273.1843,-51.75103c0,0 12.41819,13.27757 12.36924,19.9788c-0.06858,9.38929 -12.67039,21.25116 -12.67039,21.25116z" fill="#8eb480"/><path d="M273.05609,-10.65951c0,0 -12.41819,-13.27757 -12.36924,-19.9788c0.06858,-9.38929 12.67039,-21.25116 12.67039,-21.25116z" data-paper-data="{&quot;index&quot;:null,&quot;origPos&quot;:null}" fill="#9dc78d"/></g><g data-paper-data="{&quot;origPos&quot;:null,&quot;origRot&quot;:0,&quot;index&quot;:null}" stroke="none" stroke-width="0" stroke-linecap="butt"><path d="M204.8123,-26.29493c0,0 17.70004,-4.14895 23.48537,-0.7668c8.10599,4.73882 12.10941,21.57575 12.10941,21.57575z" fill="#8eb480"/><path d="M240.37325,-5.70492c0,0 -17.70004,4.14895 -23.48536,0.7668c-8.10599,-4.73882 -12.10941,-21.57575 -12.10941,-21.57575z" data-paper-data="{&quot;index&quot;:null,&quot;origPos&quot;:null}" fill="#9dc78d"/></g><g data-paper-data="{&quot;origPos&quot;:null,&quot;index&quot;:null,&quot;origRot&quot;:0}" fill="#9dc78d" stroke="none" stroke-width="0" stroke-linecap="butt"><path d="M207.44901,32.38912c0,0 -12.60181,-11.86187 -12.67039,-21.25116c-0.04895,-6.70123 12.36924,-19.9788 12.36924,-19.9788z"/><path d="M206.97494,-8.97928c0,0 12.60181,11.86187 12.67039,21.25116c0.04895,6.70123 -12.36924,19.9788 -12.36924,19.9788z" data-paper-data="{&quot;index&quot;:null,&quot;origPos&quot;:null}"/></g><g data-paper-data="{&quot;origPos&quot;:null,&quot;index&quot;:null}" stroke="none" stroke-width="0" stroke-linecap="butt"><path d="M211.85015,7.40979c0,0 -1.39763,-18.126 2.82824,-23.32706c5.92097,-7.28735 23.17176,-8.67294 23.17176,-8.67294z" fill="#8eb480"/><path d="M237.62863,-24.59022c0,0 1.39763,18.126 -2.82824,23.32705c-5.92097,7.28735 -23.17176,8.67294 -23.17176,8.67294z" data-paper-data="{&quot;index&quot;:null,&quot;origPos&quot;:null}" fill="#9dc78d"/></g><g data-paper-data="{&quot;origPos&quot;:null,&quot;index&quot;:null,&quot;origRot&quot;:0}" fill="#9dc78d" stroke="none" stroke-width="0" stroke-linecap="butt"><path d="M201.14788,17.16087c0,0 -12.41819,-13.27757 -12.36924,-19.9788c0.06858,-9.38929 12.67039,-21.25116 12.67039,-21.25116z"/><path d="M201.27609,-23.93065c0,0 12.41819,13.27757 12.36924,19.9788c-0.06858,9.38929 -12.67039,21.25116 -12.67039,21.25116z" data-paper-data="{&quot;index&quot;:null,&quot;origPos&quot;:null}"/></g><g data-paper-data="{&quot;origPos&quot;:null,&quot;origRot&quot;:0,&quot;index&quot;:null}" stroke="none" stroke-width="0" stroke-linecap="butt"><path d="M269.51987,-8.29523c0,0 -17.70004,4.14895 -23.48537,0.7668c-8.10599,-4.73882 -12.10941,-21.57575 -12.10941,-21.57575z" fill="#8eb480"/><path d="M233.95892,-28.88524c0,0 17.70004,-4.14895 23.48536,-0.7668c8.10599,4.73882 12.10941,21.57575 12.10941,21.57575z" data-paper-data="{&quot;index&quot;:null,&quot;origPos&quot;:null}" fill="#9dc78d"/></g><g data-paper-data="{&quot;origPos&quot;:null,&quot;index&quot;:null,&quot;origRot&quot;:0}" stroke="none" stroke-width="0" stroke-linecap="butt"><path d="M258.1843,-4.84085c0,0 12.41819,13.27757 12.36924,19.9788c-0.06858,9.38929 -12.67039,21.25116 -12.67039,21.25116z" fill="#8eb480"/><path d="M258.05609,36.25068c0,0 -12.41819,-13.27757 -12.36924,-19.9788c0.06858,-9.38929 12.67039,-21.25116 12.67039,-21.25116z" data-paper-data="{&quot;index&quot;:null,&quot;origPos&quot;:null}" fill="#9dc78d"/></g><g data-paper-data="{&quot;origPos&quot;:null,&quot;index&quot;:null}" stroke="none" stroke-width="0" stroke-linecap="butt"><path d="M227.48202,-20.59021c0,0 17.25079,1.38559 23.17176,8.67294c4.22587,5.20106 2.82824,23.32706 2.82824,23.32706z" fill="#8eb480"/><path d="M253.70355,11.40978c0,0 -17.25079,-1.38559 -23.17176,-8.67294c-4.22587,-5.20105 -2.82824,-23.32705 -2.82824,-23.32705z" data-paper-data="{&quot;index&quot;:null,&quot;origPos&quot;:null}" fill="#9dc78d"/></g><g data-paper-data="{&quot;origPos&quot;:null,&quot;index&quot;:null,&quot;origRot&quot;:0}" stroke="none" stroke-width="0" stroke-linecap="butt"><path d="M263.88315,-20.06909c0,0 12.60181,11.86187 12.67039,21.25116c0.04895,6.70123 -12.36924,19.9788 -12.36924,19.9788z" fill="#8eb480"/><path d="M264.35724,21.29931c0,0 -12.60181,-11.86187 -12.67039,-21.25116c-0.04895,-6.70123 12.36924,-19.9788 12.36924,-19.9788z" data-paper-data="{&quot;index&quot;:null,&quot;origPos&quot;:null}" fill="#9dc78d"/></g><g data-paper-data="{&quot;origPos&quot;:null,&quot;origRot&quot;:0,&quot;index&quot;:null}" stroke="none" stroke-width="0" stroke-linecap="butt"><path d="M231.40709,-25.10419c0,0 -4.00342,16.83693 -12.10941,21.57575c-5.78533,3.38215 -23.48537,-0.7668 -23.48537,-0.7668z" fill="#8eb480"/><path d="M195.77849,-4.07629c0,0 4.00342,-16.83693 12.10941,-21.57575c5.78532,-3.38215 23.48536,0.7668 23.48536,0.7668z" data-paper-data="{&quot;index&quot;:null,&quot;origPos&quot;:null}" fill="#9dc78d"/></g><g data-paper-data="{&quot;origPos&quot;:null,&quot;index&quot;:null,&quot;origRot&quot;:0}" stroke="none" stroke-width="0" stroke-linecap="butt"><path d="M231.14788,27.25068c0,0 -12.41819,-13.27757 -12.36924,-19.9788c0.06858,-9.38929 12.67039,-21.25116 12.67039,-21.25116z" fill="#8eb480"/><path d="M231.27609,-13.84084c0,0 12.41819,13.27757 12.36924,19.9788c-0.06858,9.38929 -12.67039,21.25116 -12.67039,21.25116z" data-paper-data="{&quot;index&quot;:null,&quot;origPos&quot;:null}" fill="#9dc78d"/></g><g data-paper-data="{&quot;origPos&quot;:null,&quot;index&quot;:null}" stroke="none" stroke-width="0" stroke-linecap="butt"><path d="M261.85015,43.00005c0,0 -17.25079,-1.38559 -23.17176,-8.67294c-4.22587,-5.20106 -2.82824,-23.32706 -2.82824,-23.32706z" fill="#8eb480"/><path d="M235.62863,11.00006c0,0 17.25079,1.38559 23.17176,8.67294c4.22587,5.20105 2.82824,23.32705 2.82824,23.32705z" data-paper-data="{&quot;index&quot;:null,&quot;origPos&quot;:null}" fill="#9dc78d"/></g><g data-paper-data="{&quot;origPos&quot;:null,&quot;index&quot;:null,&quot;origRot&quot;:0}" fill="#9dc78d" stroke="none" stroke-width="0" stroke-linecap="butt"><path d="M225.44901,42.47893c0,0 -12.60181,-11.86187 -12.67039,-21.25116c-0.04895,-6.70123 12.36924,-19.9788 12.36924,-19.9788z"/><path d="M224.97494,1.11052c0,0 12.60181,11.86187 12.67039,21.25116c0.04895,6.70123 -12.36924,19.9788 -12.36924,19.9788z" data-paper-data="{&quot;index&quot;:null,&quot;origPos&quot;:null}"/></g><g data-paper-data="{&quot;origPos&quot;:null,&quot;origRot&quot;:0,&quot;index&quot;:null}" fill="#8db27e" stroke="none" stroke-width="0" stroke-linecap="butt"><path d="M257.92509,47.51402c0,0 4.00342,-16.83693 12.10941,-21.57575c5.78533,-3.38215 23.48537,0.7668 23.48537,0.7668z"/><path d="M293.55369,26.48613c0,0 -4.00342,16.83693 -12.10941,21.57575c-5.78532,3.38215 -23.48536,-0.7668 -23.48536,-0.7668z" data-paper-data="{&quot;index&quot;:null,&quot;origPos&quot;:null}"/></g><g data-paper-data="{&quot;origPos&quot;:null,&quot;index&quot;:null,&quot;origRot&quot;:0}" fill="#9dc78d" stroke="none" stroke-width="0" stroke-linecap="butt"><path d="M281.88315,-17.97928c0,0 12.60181,11.86187 12.67039,21.25116c0.04895,6.70123 -12.36924,19.9788 -12.36924,19.9788z"/><path d="M282.35724,23.38912c0,0 -12.60181,-11.86187 -12.67039,-21.25116c-0.04895,-6.70123 12.36924,-19.9788 12.36924,-19.9788z" data-paper-data="{&quot;index&quot;:null,&quot;origPos&quot;:null}"/></g><g data-paper-data="{&quot;origPos&quot;:null,&quot;index&quot;:null}" fill="#8db27e" stroke="none" stroke-width="0" stroke-linecap="butt"><path d="M277.48202,7.00005c0,0 1.39763,18.126 -2.82824,23.32706c-5.92097,7.28735 -23.17176,8.67294 -23.17176,8.67294z"/><path d="M251.70355,39.00004c0,0 -1.39763,-18.126 2.82824,-23.32705c5.92097,-7.28735 23.17176,-8.67294 23.17176,-8.67294z" data-paper-data="{&quot;index&quot;:null,&quot;origPos&quot;:null}"/></g><g data-paper-data="{&quot;origPos&quot;:null,&quot;index&quot;:null,&quot;origRot&quot;:0}" fill="#8db27e" stroke="none" stroke-width="0" stroke-linecap="butt"><path d="M294.1843,-0.75103c0,0 12.41819,13.27757 12.36924,19.9788c-0.06858,9.38929 -12.67039,21.25116 -12.67039,21.25116z"/><path d="M294.05609,40.34049c0,0 -12.41819,-13.27757 -12.36924,-19.9788c0.06858,-9.38929 12.67039,-21.25116 12.67039,-21.25116z" data-paper-data="{&quot;index&quot;:null,&quot;origPos&quot;:null}"/></g><g data-paper-data="{&quot;origPos&quot;:null,&quot;origRot&quot;:0,&quot;index&quot;:null}" fill="#9dc78d" stroke="none" stroke-width="0" stroke-linecap="butt"><path d="M219.8123,22.70507c0,0 17.70004,-4.14895 23.48537,-0.7668c8.10599,4.73882 12.10941,21.57575 12.10941,21.57575z"/><path d="M255.37325,43.29508c0,0 -17.70004,4.14895 -23.48536,0.7668c-8.10599,-4.73882 -12.10941,-21.57575 -12.10941,-21.57575z" data-paper-data="{&quot;index&quot;:null,&quot;origPos&quot;:null}"/></g><g data-paper-data="{&quot;origPos&quot;:null,&quot;index&quot;:null,&quot;origRot&quot;:0}" stroke="none" stroke-width="0" stroke-linecap="butt"><path d="M243.71672,-83.87329c0,0 7.41947,16.59689 5.1917,22.91717c-3.12138,8.85553 -18.89822,15.96896 -18.89822,15.96896z" fill="#8eb480"/><path d="M230.21879,-45.06175c0,0 -7.41947,-16.59688 -5.19169,-22.91716c3.12138,-8.85552 18.89823,-15.96896 18.89823,-15.96896z" data-paper-data="{&quot;index&quot;:null,&quot;origPos&quot;:null}" fill="#9dc78d"/></g><g data-paper-data="{&quot;origPos&quot;:null,&quot;index&quot;:null,&quot;origRot&quot;:0}" fill="#9dc78d" stroke="none" stroke-width="0" stroke-linecap="butt"><path d="M250.51061,-96.65865c0,0 16.16388,8.3207 18.37425,14.64709c3.09702,8.86408 -4.7747,24.27659 -4.7747,24.27659z"/><path d="M264.22638,-57.92356c0,0 -16.16388,-8.3207 -18.37426,-14.64708c-3.09702,-8.86408 4.77471,-24.27659 4.77471,-24.27659z" data-paper-data="{&quot;index&quot;:null,&quot;origPos&quot;:null}"/></g><g data-paper-data="{&quot;origPos&quot;:null,&quot;origRot&quot;:0,&quot;index&quot;:null}" stroke="none" stroke-width="0" stroke-linecap="butt"><path d="M194.70298,-49.66661c0,0 15.26937,-9.86669 21.85571,-8.63011c9.2283,1.73261 18.66733,16.23828 18.66733,16.23828z" fill="#8eb480"/><path d="M235.12045,-42.25321c0,0 -15.26936,9.8667 -21.85569,8.63011c-9.2283,-1.73261 -18.66734,-16.23827 -18.66734,-16.23827z" data-paper-data="{&quot;index&quot;:null,&quot;origPos&quot;:null}" fill="#9dc78d"/></g><g data-paper-data="{&quot;origPos&quot;:null,&quot;index&quot;:null,&quot;origRot&quot;:0}" stroke="none" stroke-width="0" stroke-linecap="butt"><path d="M238.42598,-52.24477c0,0 -16.70997,4.50408 -24.739,-0.36398c-5.73041,-3.47438 -10.51786,-21.0125 -10.51786,-21.0125z" fill="#8eb480"/><path d="M202.96053,-73.54665c0,0 16.70997,-4.50407 24.739,0.36398c5.73041,3.47438 10.51785,21.0125 10.51785,21.0125z" data-paper-data="{&quot;index&quot;:null,&quot;origPos&quot;:null}" fill="#9dc78d"/></g><g data-paper-data="{&quot;origPos&quot;:null,&quot;index&quot;:null,&quot;origRot&quot;:0}" fill="#9dc78d" stroke="none" stroke-width="0" stroke-linecap="butt"><path d="M211.97506,-34.47832c0,0 -15.86008,-6.92585 -19.08626,-15.74374c-2.30255,-6.29342 4.91958,-22.97712 4.91958,-22.97712z"/><path d="M197.59894,-73.27131c0,0 15.86008,6.92585 19.08625,15.74374c2.30255,6.29342 -4.91958,22.97712 -4.91958,22.97712z" data-paper-data="{&quot;index&quot;:null,&quot;origPos&quot;:null}"/></g><g data-paper-data="{&quot;origPos&quot;:null,&quot;origRot&quot;:0,&quot;index&quot;:null}" stroke="none" stroke-width="0" stroke-linecap="butt"><path d="M236.25007,-46.67273c0,0 -1.89976,-17.20176 4.1372,-24.39333c4.30863,-5.13271 22.3721,-7.18606 22.3721,-7.18606z" fill="#8eb480"/><path d="M262.7175,-78.46967c0,0 1.89976,17.20176 -4.13719,24.39333c-4.30863,5.1327 -22.37209,7.18606 -22.37209,7.18606z" data-paper-data="{&quot;index&quot;:null,&quot;origPos&quot;:null}" fill="#9dc78d"/></g><g data-paper-data="{&quot;origPos&quot;:null,&quot;index&quot;:null,&quot;origRot&quot;:0}" fill="#9dc78d" stroke="none" stroke-width="0" stroke-linecap="butt"><path d="M266.43739,-61.03085c0,0 16.16388,8.3207 18.37426,14.64709c3.09702,8.86408 -4.77471,24.27659 -4.77471,24.27659z"/><path d="M280.15317,-22.29577c0,0 -16.16388,-8.3207 -18.37426,-14.64709c-3.09702,-8.86408 4.77471,-24.27659 4.77471,-24.27659z" data-paper-data="{&quot;index&quot;:null,&quot;origPos&quot;:null}"/></g><g data-paper-data="{&quot;origPos&quot;:null,&quot;index&quot;:null,&quot;origRot&quot;:0}" stroke="none" stroke-width="0" stroke-linecap="butt"><path d="M232.22485,-65.52232c0,0 16.70997,-4.50407 24.73899,0.36398c5.73041,3.47438 10.51786,21.01251 10.51786,21.01251z" fill="#8eb480"/><path d="M267.69029,-44.22044c0,0 -16.70997,4.50408 -24.73899,-0.36398c-5.73041,-3.47438 -10.51785,-21.01249 -10.51785,-21.01249z" data-paper-data="{&quot;index&quot;:null,&quot;origPos&quot;:null}" fill="#9dc78d"/></g><g data-paper-data="{&quot;origPos&quot;:null,&quot;index&quot;:null,&quot;origRot&quot;:0}" fill="#9dc78d" stroke="none" stroke-width="0" stroke-linecap="butt"><path d="M266.67573,-77.28876c0,0 15.86009,6.92584 19.08626,15.74374c2.30255,6.29342 -4.91958,22.97713 -4.91958,22.97713z"/><path d="M281.05188,-38.49578c0,0 -15.86008,-6.92584 -19.08625,-15.74374c-2.30255,-6.29342 4.91958,-22.97712 4.91958,-22.97712z" data-paper-data="{&quot;index&quot;:null,&quot;origPos&quot;:null}"/></g><g data-paper-data="{&quot;origPos&quot;:null,&quot;origRot&quot;:0,&quot;index&quot;:null}" fill="#9dc78d" stroke="none" stroke-width="0" stroke-linecap="butt"><path d="M234.40074,-71.09436c0,0 1.89976,17.20176 -4.13719,24.39333c-4.30863,5.13271 -22.3721,7.18607 -22.3721,7.18607z"/><path d="M207.93333,-39.29742c0,0 -1.89976,-17.20176 4.13719,-24.39333c4.30863,-5.1327 22.3721,-7.18606 22.3721,-7.18606z" data-paper-data="{&quot;index&quot;:null,&quot;origPos&quot;:null}"/></g><g data-paper-data="{&quot;origPos&quot;:null,&quot;index&quot;:null,&quot;origRot&quot;:0}" stroke="none" stroke-width="0" stroke-linecap="butt"><path d="M233.89491,-1.35839c0,0 -15.86008,-6.92584 -19.08625,-15.74374c-2.30255,-6.29342 4.91958,-22.97712 4.91958,-22.97712z" fill="#8eb480"/><path d="M219.51876,-40.15138c0,0 15.86009,6.92584 19.08626,15.74374c2.30255,6.29342 -4.91958,22.97713 -4.91958,22.97713z" data-paper-data="{&quot;index&quot;:null,&quot;origPos&quot;:null}" fill="#9dc78d"/></g><g data-paper-data="{&quot;origPos&quot;:null,&quot;index&quot;:null,&quot;origRot&quot;:0}" fill="#9dc78d" stroke="none" stroke-width="0" stroke-linecap="butt"><path d="M229.62789,-26.36098c0,0 -7.41947,-16.59689 -5.1917,-22.91717c3.12138,-8.85552 18.89822,-15.96895 18.89822,-15.96895z"/><path d="M243.12582,-65.17252c0,0 7.41947,16.59689 5.19169,22.91717c-3.12138,8.85553 -18.89822,15.96895 -18.89822,15.96895z" data-paper-data="{&quot;index&quot;:null,&quot;origPos&quot;:null}"/></g><g data-paper-data="{&quot;origPos&quot;:null,&quot;index&quot;:null,&quot;origRot&quot;:0}" fill="#9dc78d" stroke="none" stroke-width="0" stroke-linecap="butt"><path d="M222.83401,-13.57561c0,0 -16.16388,-8.3207 -18.37426,-14.64708c-3.09702,-8.86408 4.7747,-24.27659 4.7747,-24.27659z"/><path d="M209.11823,-52.3107c0,0 16.16388,8.3207 18.37426,14.64709c3.09702,8.86408 -4.77471,24.27659 -4.77471,24.27659z" data-paper-data="{&quot;index&quot;:null,&quot;origPos&quot;:null}"/></g><g data-paper-data="{&quot;origPos&quot;:null,&quot;origRot&quot;:0,&quot;index&quot;:null}" fill="#9dc78d" stroke="none" stroke-width="0" stroke-linecap="butt"><path d="M278.64162,-60.56765c0,0 -15.26937,9.8667 -21.8557,8.63011c-9.2283,-1.73261 -18.66733,-16.23828 -18.66733,-16.23828z"/><path d="M238.22417,-67.98105c0,0 15.26937,-9.86669 21.8557,-8.6301c9.2283,1.73261 18.66733,16.23827 18.66733,16.23827z" data-paper-data="{&quot;index&quot;:null,&quot;origPos&quot;:null}"/></g><g data-paper-data="{&quot;origPos&quot;:null,&quot;index&quot;:null,&quot;origRot&quot;:0}" fill="#9dc78d" stroke="none" stroke-width="0" stroke-linecap="butt"><path d="M241.82513,-57.68645c0,0 15.86008,6.92585 19.08625,15.74374c2.30255,6.29342 -4.91958,22.97713 -4.91958,22.97713z"/><path d="M256.20124,-18.89346c0,0 -15.86008,-6.92585 -19.08625,-15.74374c-2.30255,-6.29342 4.91957,-22.97712 4.91957,-22.97712z" data-paper-data="{&quot;index&quot;:null,&quot;origPos&quot;:null}"/></g><g data-paper-data="{&quot;origPos&quot;:null,&quot;index&quot;:null,&quot;origRot&quot;:0}" stroke="none" stroke-width="0" stroke-linecap="butt"><path d="M246.09215,-32.68386c0,0 7.41947,16.59689 5.1917,22.91718c-3.12138,8.85553 -18.89822,15.96896 -18.89822,15.96896z" fill="#8eb480"/><path d="M232.59422,6.12768c0,0 -7.41947,-16.59689 -5.19169,-22.91717c3.12138,-8.85552 18.89822,-15.96895 18.89822,-15.96895z" data-paper-data="{&quot;index&quot;:null,&quot;origPos&quot;:null}" fill="#9dc78d"/></g><g data-paper-data="{&quot;origPos&quot;:null,&quot;index&quot;:null,&quot;origRot&quot;:0}" fill="#9dc78d" stroke="none" stroke-width="0" stroke-linecap="butt"><path d="M252.88603,-45.46922c0,0 16.16388,8.3207 18.37426,14.64709c3.09702,8.86408 -4.77471,24.27659 -4.77471,24.27659z"/><path d="M266.6018,-6.73414c0,0 -16.16388,-8.3207 -18.37426,-14.64709c-3.09702,-8.86408 4.77471,-24.27659 4.77471,-24.27659z" data-paper-data="{&quot;index&quot;:null,&quot;origPos&quot;:null}"/></g><g data-paper-data="{&quot;origPos&quot;:null,&quot;origRot&quot;:0,&quot;index&quot;:null}" fill="#9dc78d" stroke="none" stroke-width="0" stroke-linecap="butt"><path d="M197.07841,1.52281c0,0 15.26937,-9.86669 21.85571,-8.6301c9.2283,1.73261 18.66733,16.23827 18.66733,16.23827z"/><path d="M237.49586,8.93621c0,0 -15.26937,9.8667 -21.8557,8.63011c-9.2283,-1.73261 -18.66733,-16.23827 -18.66733,-16.23827z" data-paper-data="{&quot;index&quot;:null,&quot;origPos&quot;:null}"/></g><g data-paper-data="{&quot;origPos&quot;:null,&quot;index&quot;:null,&quot;origRot&quot;:0}" fill="#9dc78d" stroke="none" stroke-width="0" stroke-linecap="butt"><path d="M206.58884,-10.54681c0,0 -16.16388,-8.32071 -18.37426,-14.64709c-3.09703,-8.86408 4.77471,-24.27658 4.77471,-24.27658z"/><path d="M192.87306,-49.2819c0,0 16.16389,8.32071 18.37426,14.64709c3.09702,8.86408 -4.77471,24.27658 -4.77471,24.27658z" data-paper-data="{&quot;index&quot;:null,&quot;origPos&quot;:null}"/></g><g data-paper-data="{&quot;origPos&quot;:null,&quot;index&quot;:null,&quot;origRot&quot;:0}" fill="#9dc78d" stroke="none" stroke-width="0" stroke-linecap="butt"><path d="M240.8014,-1.05534c0,0 -16.70997,4.50408 -24.73899,-0.36398c-5.73041,-3.47438 -10.51786,-21.0125 -10.51786,-21.0125z"/><path d="M205.33594,-22.35723c0,0 16.70997,-4.50407 24.73899,0.36398c5.73041,3.47437 10.51785,21.01249 10.51785,21.01249z" data-paper-data="{&quot;index&quot;:null,&quot;origPos&quot;:null}"/></g><g data-paper-data="{&quot;origPos&quot;:null,&quot;index&quot;:null,&quot;origRot&quot;:0}" fill="#9dc78d" stroke="none" stroke-width="0" stroke-linecap="butt"><path d="M206.3505,10.7111c0,0 -15.86008,-6.92585 -19.08626,-15.74374c-2.30256,-6.29342 4.91958,-22.97712 4.91958,-22.97712z"/><path d="M191.97436,-28.08189c0,0 15.86008,6.92584 19.08625,15.74374c2.30255,6.29342 -4.91958,22.97713 -4.91958,22.97713z" data-paper-data="{&quot;index&quot;:null,&quot;origPos&quot;:null}"/></g><g data-paper-data="{&quot;origPos&quot;:null,&quot;origRot&quot;:0,&quot;index&quot;:null}" fill="#9dc78d" stroke="none" stroke-width="0" stroke-linecap="butt"><path d="M238.6255,4.51669c0,0 -1.89977,-17.20176 4.13719,-24.39333c4.30863,-5.13271 22.37211,-7.18606 22.37211,-7.18606z"/><path d="M265.0929,-27.28024c0,0 1.89977,17.20176 -4.13719,24.39333c-4.30863,5.1327 -22.37209,7.18606 -22.37209,7.18606z" data-paper-data="{&quot;index&quot;:null,&quot;origPos&quot;:null}"/></g><g data-paper-data="{&quot;origPos&quot;:null}" stroke="none" stroke-width="0.5" stroke-linecap="butt"><path d="M161.5,134.00001c0,-3.03757 2.46243,-5.5 5.5,-5.5c3.03757,0 5.5,2.46243 5.5,5.5c0,3.03757 -2.46243,5.5 -5.5,5.5c-3.03757,0 -5.5,-2.46243 -5.5,-5.5z" data-paper-data="{&quot;origPos&quot;:null}" fill="#c76e6e"/><path d="M167,128.50001c3.03756,0 5.5,2.46244 5.5,5.5c0,3.03756 -2.46244,5.5 -5.5,5.5c-3.03756,0 -3.03756,-11 0,-11z" data-paper-data="{&quot;origPos&quot;:null}" fill="#c76262"/></g><g data-paper-data="{&quot;origPos&quot;:null}" stroke="none" stroke-width="0.5" stroke-linecap="butt"><path d="M122.50001,134.00001c0,-3.03757 2.46243,-5.5 5.5,-5.5c3.03757,0 5.5,2.46243 5.5,5.5c0,3.03757 -2.46243,5.5 -5.5,5.5c-3.03757,0 -5.5,-2.46243 -5.5,-5.5z" data-paper-data="{&quot;origPos&quot;:null}" fill="#c76e6e"/><path d="M128.00001,128.50001c3.03756,0 5.5,2.46244 5.5,5.5c0,3.03756 -2.46244,5.5 -5.5,5.5c-3.03756,0 -3.03756,-11 0,-11z" data-paper-data="{&quot;origPos&quot;:null}" fill="#c76262"/></g><g data-paper-data="{&quot;origPos&quot;:null}" stroke="none" stroke-width="0.5" stroke-linecap="butt"><path d="M137.50001,136.00001c0,-3.03757 2.46243,-5.5 5.5,-5.5c3.03757,0 5.5,2.46243 5.5,5.5c0,3.03757 -2.46243,5.5 -5.5,5.5c-3.03757,0 -5.5,-2.46243 -5.5,-5.5z" data-paper-data="{&quot;origPos&quot;:null}" fill="#c76e6e"/><path d="M143.00001,130.50001c3.03756,0 5.5,2.46244 5.5,5.5c0,3.03756 -2.46244,5.5 -5.5,5.5c-3.03756,0 -3.03756,-11 0,-11z" data-paper-data="{&quot;origPos&quot;:null}" fill="#c76262"/></g><g data-paper-data="{&quot;origPos&quot;:null,&quot;origRot&quot;:0,&quot;index&quot;:null}" stroke="none" stroke-width="0" stroke-linecap="butt"><path d="M165.97577,152.54805c0,0 11.2257,-14.29996 17.85582,-15.27481c9.28966,-1.3659 22.93664,9.27692 22.93664,9.27692z" fill="#8eb480"/><path d="M206.60501,146.4004c0,0 -11.2257,14.29996 -17.85582,15.27481c-9.28966,1.3659 -22.93664,-9.27692 -22.93664,-9.27692z" data-paper-data="{&quot;index&quot;:null,&quot;origPos&quot;:null}" fill="#9dc78d"/></g><g data-paper-data="{&quot;origPos&quot;:null,&quot;index&quot;:null,&quot;origRot&quot;:0}" stroke="none" stroke-width="0" stroke-linecap="butt"><path d="M64.74965,19.86062c0,0 -9.56337,-9.00184 -9.61541,-16.12726c-0.03715,-5.08549 9.38687,-15.16168 9.38687,-15.16168z" fill="#8eb480"/><path d="M64.38987,-11.53338c0,0 9.56337,9.00184 9.61541,16.12726c0.03715,5.08549 -9.38687,15.16168 -9.38687,15.16168z" data-paper-data="{&quot;index&quot;:null,&quot;origPos&quot;:null}" fill="#9dc78d"/></g><g data-paper-data="{&quot;origPos&quot;:null,&quot;origRot&quot;:0,&quot;index&quot;:null}" stroke="none" stroke-width="0" stroke-linecap="butt"><path d="M60.47201,4.85447c0,0 13.43236,-3.14859 17.82278,-0.58192c6.15154,3.59624 9.18969,16.37359 9.18969,16.37359z" fill="#8eb480"/><path d="M87.45881,20.47999c0,0 -13.43236,3.14859 -17.82277,0.58192c-6.15154,-3.59624 -9.18969,-16.37359 -9.18969,-16.37359z" data-paper-data="{&quot;index&quot;:null,&quot;origPos&quot;:null}" fill="#9dc78d"/></g><g data-paper-data="{&quot;origPos&quot;:null,&quot;index&quot;:null,&quot;origRot&quot;:0}" fill="#9dc78d" stroke="none" stroke-width="0" stroke-linecap="butt"><path d="M62.47298,49.38912c0,0 -9.56337,-9.00184 -9.61541,-16.12726c-0.03715,-5.08549 9.38687,-15.16168 9.38687,-15.16168z"/><path d="M62.11321,17.99511c0,0 9.56337,9.00184 9.61541,16.12726c0.03715,5.08549 -9.38687,15.16168 -9.38687,15.16168z" data-paper-data="{&quot;index&quot;:null,&quot;origPos&quot;:null}"/></g><g data-paper-data="{&quot;origPos&quot;:null,&quot;index&quot;:null}" stroke="none" stroke-width="0" stroke-linecap="butt"><path d="M65.81296,30.43259c0,0 -1.06065,-13.75561 2.14632,-17.70264c4.49336,-5.53029 17.58478,-6.58179 17.58478,-6.58179z" fill="#8eb480"/><path d="M85.37594,6.14815c0,0 1.06065,13.75561 -2.14632,17.70263c-4.49336,5.53029 -17.58478,6.58179 -17.58478,6.58179z" data-paper-data="{&quot;index&quot;:null,&quot;origPos&quot;:null}" fill="#9dc78d"/></g><g data-paper-data="{&quot;origPos&quot;:null,&quot;index&quot;:null,&quot;origRot&quot;:0}" fill="#9dc78d" stroke="none" stroke-width="0" stroke-linecap="butt"><path d="M57.69112,37.83258c0,0 -9.42402,-10.0762 -9.38687,-15.16168c0.05204,-7.12542 9.61541,-16.12726 9.61541,-16.12726z"/><path d="M57.78842,6.64869c0,0 9.42402,10.0762 9.38687,15.16168c-0.05204,7.12542 -9.61541,16.12726 -9.61541,16.12726z" data-paper-data="{&quot;index&quot;:null,&quot;origPos&quot;:null}"/></g><g data-paper-data="{&quot;origPos&quot;:null,&quot;origRot&quot;:0,&quot;index&quot;:null}" stroke="none" stroke-width="0" stroke-linecap="butt"><path d="M80.65449,5.75811c0,0 -3.03815,12.77735 -9.18969,16.37359c-4.39042,2.56667 -17.82278,-0.58192 -17.82278,-0.58192z" fill="#8eb480"/><path d="M53.61635,21.71594c0,0 3.03815,-12.77735 9.18969,-16.37359c4.39041,-2.56667 17.82277,0.58192 17.82277,0.58192z" data-paper-data="{&quot;index&quot;:null,&quot;origPos&quot;:null}" fill="#9dc78d"/></g><g data-paper-data="{&quot;origPos&quot;:null,&quot;origRot&quot;:0,&quot;index&quot;:null}" stroke="none" stroke-width="0" stroke-linecap="butt"><path d="M52.80016,-12.88203c0,0 11.58775,-7.48772 16.58605,-6.54929c7.00325,1.31486 14.16642,12.32304 14.16642,12.32304z" fill="#8eb480"/><path d="M83.47251,-7.25609c0,0 -11.58774,7.48773 -16.58603,6.54929c-7.00325,-1.31486 -14.16643,-12.32304 -14.16643,-12.32304z" data-paper-data="{&quot;index&quot;:null,&quot;origPos&quot;:null}" fill="#9dc78d"/></g><g data-paper-data="{&quot;origPos&quot;:null,&quot;index&quot;:null,&quot;origRot&quot;:0}" stroke="none" stroke-width="0" stroke-linecap="butt"><path d="M85.98104,-14.83857c0,0 -12.681,3.41809 -18.77414,-0.27622c-4.34874,-2.63667 -7.98188,-15.94615 -7.98188,-15.94615z" fill="#8eb480"/><path d="M59.06672,-31.00432c0,0 12.681,-3.41809 18.77414,0.27622c4.34874,2.63667 7.98188,15.94615 7.98188,15.94615z" data-paper-data="{&quot;index&quot;:null,&quot;origPos&quot;:null}" fill="#9dc78d"/></g><g data-paper-data="{&quot;origPos&quot;:null,&quot;index&quot;:null,&quot;origRot&quot;:0}" fill="#9dc78d" stroke="none" stroke-width="0" stroke-linecap="butt"><path d="M65.90775,-1.35581c0,0 -12.03603,-5.25595 -14.48434,-11.94774c-1.74738,-4.776 3.73341,-17.43707 3.73341,-17.43707z"/><path d="M54.99787,-30.79537c0,0 12.03603,5.25595 14.48434,11.94774c1.74738,4.776 -3.73341,17.43707 -3.73341,17.43707z" data-paper-data="{&quot;index&quot;:null,&quot;origPos&quot;:null}"/></g><g data-paper-data="{&quot;origPos&quot;:null,&quot;origRot&quot;:0,&quot;index&quot;:null}" fill="#9dc78d" stroke="none" stroke-width="0" stroke-linecap="butt"><path d="M82.92633,-29.14331c0,0 1.44171,13.05422 -3.13967,18.51182c-3.26977,3.89515 -16.97793,5.45343 -16.97793,5.45343z"/><path d="M62.84052,-5.01297c0,0 -1.44171,-13.05422 3.13967,-18.51182c3.26977,-3.89515 16.97793,-5.45342 16.97793,-5.45342z" data-paper-data="{&quot;index&quot;:null,&quot;origPos&quot;:null}"/></g><g data-paper-data="{&quot;origPos&quot;:null,&quot;index&quot;:null,&quot;origRot&quot;:0}" fill="#9dc78d" stroke="none" stroke-width="0" stroke-linecap="butt"><path d="M74.14847,14.50701c0,0 -12.26658,-6.31448 -13.94402,-11.1155c-2.35029,-6.72685 3.62347,-18.42323 3.62347,-18.42323z"/><path d="M63.73973,-14.8886c0,0 12.26658,6.31448 13.94402,11.11551c2.35029,6.72685 -3.62347,18.42323 -3.62347,18.42323z" data-paper-data="{&quot;index&quot;:null,&quot;origPos&quot;:null}"/></g><g data-paper-data="{&quot;origPos&quot;:null,&quot;origRot&quot;:0,&quot;index&quot;:null}" fill="#9dc78d" stroke="none" stroke-width="0" stroke-linecap="butt"><path d="M54.60285,25.96503c0,0 11.58775,-7.48772 16.58605,-6.54928c7.00325,1.31486 14.16642,12.32304 14.16642,12.32304z"/><path d="M85.27519,31.59098c0,0 -11.58775,7.48773 -16.58604,6.54929c-7.00325,-1.31486 -14.16642,-12.32304 -14.16642,-12.32304z" data-paper-data="{&quot;index&quot;:null,&quot;origPos&quot;:null}"/></g><g data-paper-data="{&quot;origPos&quot;:null,&quot;index&quot;:null,&quot;origRot&quot;:0}" fill="#9dc78d" stroke="none" stroke-width="0" stroke-linecap="butt"><path d="M87.78372,24.0085c0,0 -12.681,3.41809 -18.77414,-0.27622c-4.34874,-2.63667 -7.98188,-15.94615 -7.98188,-15.94615z"/><path d="M60.86939,7.84274c0,0 12.681,-3.41809 18.77414,0.27622c4.34874,2.63666 7.98188,15.94614 7.98188,15.94614z" data-paper-data="{&quot;index&quot;:null,&quot;origPos&quot;:null}"/></g><g data-paper-data="{&quot;origPos&quot;:null,&quot;index&quot;:null,&quot;origRot&quot;:0}" stroke="none" stroke-width="0" stroke-linecap="butt"><path d="M66.89073,35.12704c0,0 -11.62381,-6.11378 -13.58107,-12.96531c-1.39693,-4.89 4.98638,-17.12092 4.98638,-17.12092z" fill="#8eb480"/><path d="M58.14146,4.9747c0,0 11.6238,6.11377 13.58107,12.96531c1.39693,4.89 -4.98638,17.12093 -4.98638,17.12093z" data-paper-data="{&quot;index&quot;:null,&quot;origPos&quot;:null}" fill="#9dc78d"/></g><g data-paper-data="{&quot;origPos&quot;:null,&quot;origRot&quot;:0,&quot;index&quot;:null}" stroke="none" stroke-width="0" stroke-linecap="butt"><path d="M58.75276,21.81328c0,0 12.09957,-6.6289 17.01678,-5.33096c6.88965,1.81857 13.23682,13.31659 13.23682,13.31659z" fill="#8eb480"/><path d="M88.93715,29.6457c0,0 -12.09957,6.62889 -17.01678,5.33095c-6.88965,-1.81857 -13.23681,-13.3166 -13.23681,-13.3166z" data-paper-data="{&quot;index&quot;:null,&quot;origPos&quot;:null}" fill="#9dc78d"/></g><g data-paper-data="{&quot;origPos&quot;:null,&quot;index&quot;:null,&quot;origRot&quot;:0}" fill="#9dc78d" stroke="none" stroke-width="0" stroke-linecap="butt"><path d="M72.60043,64.18757c0,0 -11.6238,-6.11378 -13.58107,-12.96531c-1.39693,-4.89 4.98638,-17.12093 4.98638,-17.12093z"/><path d="M63.85117,34.03523c0,0 11.6238,6.11378 13.58107,12.96531c1.39693,4.89 -4.98637,17.12093 -4.98637,17.12093z" data-paper-data="{&quot;index&quot;:null,&quot;origPos&quot;:null}"/></g><g data-paper-data="{&quot;origPos&quot;:null,&quot;index&quot;:null,&quot;origRot&quot;:0}" stroke="none" stroke-width="0" stroke-linecap="butt"><path d="M70.74483,45.02871c0,0 -4.70364,-12.96988 -2.6701,-17.63124c2.84924,-6.53117 15.1816,-11.04824 15.1816,-11.04824z" fill="#8eb480"/><path d="M83.09435,16.39422c0,0 4.70365,12.96987 2.6701,17.63123c-2.84924,6.53117 -15.1816,11.04824 -15.1816,11.04824z" data-paper-data="{&quot;index&quot;:null,&quot;origPos&quot;:null}" fill="#9dc78d"/></g><g data-paper-data="{&quot;origPos&quot;:null,&quot;index&quot;:null,&quot;origRot&quot;:0}" fill="#9dc78d" stroke="none" stroke-width="0" stroke-linecap="butt"><path d="M64.89992,54.33252c0,0 -11.7771,-7.18623 -13.10243,-12.09612c-1.85698,-6.87939 4.94814,-18.11245 4.94814,-18.11245z"/><path d="M56.64729,24.26031c0,0 11.7771,7.18623 13.10243,12.09612c1.85698,6.87939 -4.94814,18.11244 -4.94814,18.11244z" data-paper-data="{&quot;index&quot;:null,&quot;origPos&quot;:null}"/></g><g data-paper-data="{&quot;origPos&quot;:null,&quot;origRot&quot;:0,&quot;index&quot;:null}" stroke="none" stroke-width="0" stroke-linecap="butt"><path d="M78.44075,17.28209c0,0 0.49256,13.12435 -4.47202,18.23584c-3.54327,3.64813 -17.32829,4.20959 -17.32829,4.20959z" fill="#8eb480"/><path d="M56.66019,39.8945c0,0 -0.49256,-13.12435 4.47202,-18.23584c3.54326,-3.64813 17.32828,-4.20958 17.32828,-4.20958z" data-paper-data="{&quot;index&quot;:null,&quot;origPos&quot;:null}" fill="#9dc78d"/></g><g data-paper-data="{&quot;origPos&quot;:null,&quot;origRot&quot;:0,&quot;index&quot;:null}" stroke="none" stroke-width="0" stroke-linecap="butt"><path d="M46.61362,6.77725c0,0 9.16089,-10.316 14.228,-10.74961c7.09967,-0.60753 16.94785,8.08181 16.94785,8.08181z" fill="#8eb480"/><path d="M77.67272,3.98847c0,0 -9.16089,10.31601 -14.22799,10.74961c-7.09967,0.60753 -16.94785,-8.0818 -16.94785,-8.0818z" data-paper-data="{&quot;index&quot;:null,&quot;origPos&quot;:null}" fill="#9dc78d"/></g><g data-paper-data="{&quot;origPos&quot;:null,&quot;index&quot;:null,&quot;origRot&quot;:0}" stroke="none" stroke-width="0" stroke-linecap="butt"><path d="M78.06027,-3.98878c0,0 -11.30349,6.68746 -18.16312,4.75876c-4.89579,-1.37653 -11.95866,-13.22801 -11.95866,-13.22801z" fill="#8eb480"/><path d="M47.80112,-12.36112c0,0 11.3035,-6.68745 18.16312,-4.75876c4.89579,1.37653 11.95866,13.22802 11.95866,13.22802z" data-paper-data="{&quot;index&quot;:null,&quot;origPos&quot;:null}" fill="#9dc78d"/></g><g data-paper-data="{&quot;origPos&quot;:null,&quot;origRot&quot;:0,&quot;index&quot;:null}" fill="#9dc78d" stroke="none" stroke-width="0" stroke-linecap="butt"><path d="M71.28835,-16.95403c0,0 4.88307,12.19208 1.92957,18.67677c-2.10794,4.6282 -14.8989,9.79861 -14.8989,9.79861z"/><path d="M58.39383,11.67191c0,0 -4.88307,-12.19207 -1.92957,-18.67676c2.10794,-4.62819 14.8989,-9.79861 14.8989,-9.79861z" data-paper-data="{&quot;index&quot;:null,&quot;origPos&quot;:null}"/></g><g data-paper-data="{&quot;origPos&quot;:null,&quot;index&quot;:null,&quot;origRot&quot;:0}" fill="#9dc78d" stroke="none" stroke-width="0" stroke-linecap="butt"><path d="M74.51376,27.45315c0,0 -13.50913,-2.80095 -16.41035,-6.97784c-4.06499,-5.85237 -1.43972,-18.7209 -1.43972,-18.7209z"/><path d="M56.61701,1.91591c0,0 13.50912,2.80095 16.41035,6.97785c4.06499,5.85237 1.43971,18.7209 1.43971,18.7209z" data-paper-data="{&quot;index&quot;:null,&quot;origPos&quot;:null}"/></g><g data-paper-data="{&quot;origPos&quot;:null,&quot;origRot&quot;:0,&quot;index&quot;:null}" fill="#9dc78d" stroke="none" stroke-width="0" stroke-linecap="butt"><path d="M58.74797,43.72453c0,0 9.1609,-10.316 14.22801,-10.7496c7.09967,-0.60753 16.94784,8.0818 16.94784,8.0818z"/><path d="M89.80705,40.93575c0,0 -9.16089,10.31601 -14.228,10.7496c-7.09967,0.60753 -16.94784,-8.0818 -16.94784,-8.0818z" data-paper-data="{&quot;index&quot;:null,&quot;origPos&quot;:null}"/></g><g data-paper-data="{&quot;origPos&quot;:null,&quot;index&quot;:null,&quot;origRot&quot;:0}" fill="#9dc78d" stroke="none" stroke-width="0" stroke-linecap="butt"><path d="M90.19461,32.95852c0,0 -11.3035,6.68746 -18.16311,4.75876c-4.89579,-1.37653 -11.95866,-13.22801 -11.95866,-13.22801z"/><path d="M59.93545,24.58617c0,0 11.3035,-6.68745 18.16311,-4.75876c4.89578,1.37652 11.95865,13.22801 11.95865,13.22801z" data-paper-data="{&quot;index&quot;:null,&quot;origPos&quot;:null}"/></g><g data-paper-data="{&quot;origPos&quot;:null,&quot;index&quot;:null,&quot;origRot&quot;:0}" fill="#9dc78d" stroke="none" stroke-width="0" stroke-linecap="butt"><path d="M67.39403,48.5597c0,0 -13.00367,-1.84274 -17.15372,-7.63511c-2.96193,-4.13407 -1.06984,-17.80015 -1.06984,-17.80015z"/><path d="M49.00267,23.11425c0,0 13.00366,1.84274 17.15371,7.63511c2.96193,4.13407 1.06984,17.80016 1.06984,17.80016z" data-paper-data="{&quot;index&quot;:null,&quot;origPos&quot;:null}"/></g><g data-paper-data="{&quot;origPos&quot;:null}" stroke="none" stroke-linecap="butt"><path d="M218.00001,166.53334c0,0 -3.63251,-37.6556 18.5946,-43c32.28658,-7.76315 23.24325,43 23.24325,43z" data-paper-data="{&quot;origPos&quot;:null}" fill="#ababab" stroke-width="0"/><path d="M213.00001,164.53334c0,0 -3.63251,-37.6556 18.59459,-43c32.28657,-7.76315 23.24324,43 23.24324,43z" data-paper-data="{&quot;origPos&quot;:null}" fill="#c0c0c0" stroke-width="0"/><path d="M233.00001,145.53334c0,-2.76142 2.23858,-5 5,-5c2.76142,0 5,2.23858 5,5c0,2.76142 -2.23858,5 -5,5c-2.76142,0 -5,-2.23858 -5,-5z" data-paper-data="{&quot;origPos&quot;:null}" fill="#ababab" stroke-width="0.5"/></g><g data-paper-data="{&quot;origPos&quot;:null}" stroke="none" stroke-width="0" stroke-linecap="butt"><g data-paper-data="{&quot;origPos&quot;:null}"><path d="M-3.82516,128.47515l-4.22689,-29.32403l14.66201,-2.11344l4.22689,29.32403z" data-paper-data="{&quot;origPos&quot;:null,&quot;origRot&quot;:0}" fill="#c7c7c7"/><path d="M-18.54353,107.4954l-2.66413,-18.48241l37.16538,-5.93375l11.21283,8.39353l-8.5487,10.08888z" data-paper-data="{&quot;origPos&quot;:null,&quot;origRot&quot;:0}" fill="#b6b6b6"/></g><path d="M4.43649,98.44767c0,0 -0.54399,-5.5692 -1.0517,-8.73494c-0.31911,-1.98971 -1.06692,-4.47527 -1.06692,-4.47527l4.11261,-0.62312c0,0 -0.90371,3.9619 -1.32259,6.73702c-0.3593,2.38034 -0.6714,7.09631 -0.6714,7.09631z" data-paper-data="{&quot;origPos&quot;:null}" fill="#838383"/><path d="M12.6452,88.94767c0,0 0.54399,5.5692 1.0517,8.73494c0.3191,1.98971 1.06691,4.47527 1.06691,4.47527l-4.11261,0.62312c0,0 0.90371,-3.9619 1.32259,-6.73701c0.3593,-2.38034 0.6714,-7.09632 0.6714,-7.09632z" data-paper-data="{&quot;origPos&quot;:null,&quot;index&quot;:null}" fill="#838383"/><path d="M-12.9548,92.94767c0,0 0.54398,5.56919 1.0517,8.73493c0.3191,1.98971 1.06691,4.47527 1.06691,4.47527l-4.11261,0.62312c0,0 0.9037,-3.9619 1.32259,-6.73701c0.3593,-2.38034 0.67141,-7.09631 0.67141,-7.09631z" data-paper-data="{&quot;origPos&quot;:null,&quot;index&quot;:null}" fill="#838383"/></g><g data-paper-data="{&quot;origPos&quot;:null}"><path d="M518,132.46667c0,0 13.97527,-14.33333 21,-14.33333c11.70789,0 27,14.33333 27,14.33333z" data-paper-data="{&quot;origPos&quot;:null}" fill="#adadad" stroke="none" stroke-width="NaN" stroke-linecap="butt"/><path d="M444,133.46667c0,0 13.97527,-14.33333 21,-14.33333c11.70788,0 27,14.33333 27,14.33333z" data-paper-data="{&quot;origPos&quot;:null}" fill="#adadad" stroke="none" stroke-width="NaN" stroke-linecap="butt"/><g data-paper-data="{&quot;origPos&quot;:null,&quot;index&quot;:null}" stroke="none" stroke-linecap="butt"><path d="M480.00893,134.55696c0,0 -6.0429,-33.92074 15.53151,-28.73328c14.85251,3.57121 12.42521,28.73328 12.42521,28.73328z" data-paper-data="{&quot;origPos&quot;:null}" fill="#ababab" stroke-width="0"/><path d="M483.35001,133.22053c0,0 -6.0429,-33.92074 15.5315,-28.73328c14.8525,3.57121 12.4252,28.73328 12.4252,28.73328z" data-paper-data="{&quot;origPos&quot;:null}" fill="#c0c0c0" stroke-width="0"/><path d="M494.60131,123.86551c-1.84522,0 -3.34108,-1.49585 -3.34108,-3.34108c0,-1.84522 1.49585,-3.34108 3.34108,-3.34108c1.84522,0 3.34108,1.49585 3.34108,3.34108c0,1.84522 -1.49585,3.34108 -3.34108,3.34108z" data-paper-data="{&quot;origPos&quot;:null}" fill="#ababab" stroke-width="0.5"/></g><g data-paper-data="{&quot;origPos&quot;:null,&quot;index&quot;:null}" stroke="none" stroke-linecap="butt"><path d="M615.00892,141.55696c0,0 -6.04289,-33.92074 15.53151,-28.73328c14.85251,3.57121 12.42521,28.73328 12.42521,28.73328z" data-paper-data="{&quot;origPos&quot;:null}" fill="#ababab" stroke-width="0"/><path d="M618.35,140.22053c0,0 -6.04289,-33.92074 15.5315,-28.73328c14.8525,3.57121 12.4252,28.73328 12.4252,28.73328z" data-paper-data="{&quot;origPos&quot;:null}" fill="#c0c0c0" stroke-width="0"/><path d="M629.60131,130.86551c-1.84523,0 -3.34108,-1.49585 -3.34108,-3.34107c0,-1.84523 1.49586,-3.34108 3.34108,-3.34108c1.84523,0 3.34108,1.49585 3.34108,3.34108c0,1.84523 -1.49585,3.34107 -3.34108,3.34107z" data-paper-data="{&quot;origPos&quot;:null}" fill="#ababab" stroke-width="0.5"/></g><g data-paper-data="{&quot;origPos&quot;:null}"><path d="M558,145.00001v41" data-paper-data="{&quot;origPos&quot;:null}" fill="none" stroke="#adadad" stroke-width="10" stroke-linecap="round"/><path d="M557.75,178.25001l0.25,7.75" data-paper-data="{&quot;origPos&quot;:null}" fill="none" stroke="#5e5e5e" stroke-width="10" stroke-linecap="round"/><path d="M547,187.00001c0,-5.52284 4.47716,-10 10,-10c5.52285,0 10,4.47716 10,10c0,5.52284 -4.47715,10 -10,10c-5.52284,0 -10,-4.47716 -10,-10z" fill="#929292" stroke="none" stroke-width="0.5" stroke-linecap="butt"/></g><g data-paper-data="{&quot;origPos&quot;:null}"><path d="M593,134.00001v41" data-paper-data="{&quot;origPos&quot;:null}" fill="none" stroke="#adadad" stroke-width="10" stroke-linecap="round"/><path d="M592.75,167.25001l0.25,7.75" data-paper-data="{&quot;origPos&quot;:null}" fill="none" stroke="#5e5e5e" stroke-width="10" stroke-linecap="round"/><path d="M582,176.00001c0,-5.52284 4.47716,-10 10,-10c5.52285,0 10,4.47716 10,10c0,5.52284 -4.47715,10 -10,10c-5.52284,0 -10,-4.47716 -10,-10z" fill="#929292" stroke="none" stroke-width="0.5" stroke-linecap="butt"/></g><g data-paper-data="{&quot;origPos&quot;:null}"><path d="M629,148.00001v41" data-paper-data="{&quot;origPos&quot;:null}" fill="none" stroke="#adadad" stroke-width="10" stroke-linecap="round"/><path d="M629,189.00001l-0.25,-7.75" data-paper-data="{&quot;origPos&quot;:null}" fill="none" stroke="#5e5e5e" stroke-width="10" stroke-linecap="round"/><path d="M618,190.00001c0,-5.52284 4.47716,-10 10,-10c5.52285,0 10,4.47716 10,10c0,5.52284 -4.47715,10 -10,10c-5.52284,0 -10,-4.47716 -10,-10z" fill="#929292" stroke="none" stroke-width="0.5" stroke-linecap="butt"/></g><g data-paper-data="{&quot;origPos&quot;:null}"><path d="M665,170.00001v-41" data-paper-data="{&quot;origPos&quot;:null}" fill="none" stroke="#adadad" stroke-width="10" stroke-linecap="round"/><path d="M665,170.00001l-0.25,-7.75" data-paper-data="{&quot;origPos&quot;:null}" fill="none" stroke="#5e5e5e" stroke-width="10" stroke-linecap="round"/><path d="M654,171.00001c0,-5.52284 4.47716,-10 10,-10c5.52285,0 10,4.47716 10,10c0,5.52284 -4.47715,10 -10,10c-5.52284,0 -10,-4.47716 -10,-10z" fill="#929292" stroke="none" stroke-width="0.5" stroke-linecap="butt"/></g><g data-paper-data="{&quot;origPos&quot;:null}"><path d="M522,132.00001v41" data-paper-data="{&quot;origPos&quot;:null}" fill="none" stroke="#adadad" stroke-width="10" stroke-linecap="round"/><path d="M522,173.00001l-0.25,-7.75" data-paper-data="{&quot;origPos&quot;:null}" fill="none" stroke="#5e5e5e" stroke-width="10" stroke-linecap="round"/><path d="M511,174.00001c0,-5.52284 4.47716,-10 10,-10c5.52285,0 10,4.47716 10,10c0,5.52284 -4.47715,10 -10,10c-5.52284,0 -10,-4.47716 -10,-10z" fill="#929292" stroke="none" stroke-width="0.5" stroke-linecap="butt"/></g></g><path d="M313.96642,150.55192c0,0 5.0182,-8.11328 14.78945,-28.73932c8.25054,-17.41588 11.44477,-21.88185 11.44477,-21.88185c0,0 -3.69845,22.11895 -5.85598,39.69963c-2.65114,21.60266 2.93668,13.53596 2.93668,13.53596z" data-paper-data="{&quot;origPos&quot;:null,&quot;origRot&quot;:0}" fill="#8eb480" stroke="none" stroke-width="0" stroke-linecap="butt"/><path d="M316.59112,150.1101c0,0 1.84177,9.87016 3.79358,-15.3342c1.58842,-20.51182 3.03674,-46.4167 3.03674,-46.4167c0,0 1.07593,5.47445 2.92024,26.40368c2.18422,24.78696 3.70013,34.6541 3.70013,34.6541z" data-paper-data="{&quot;origPos&quot;:null}" fill="#8eb480" stroke="none" stroke-width="0" stroke-linecap="butt"/><path d="M317.15299,152.32532c0,0 3.85835,9.03101 0.45482,-15.95964c-2.76986,-20.33788 -6.80845,-45.86143 -6.80845,-45.86143c0,0 2.19273,4.99325 8.37684,24.74054c7.32394,23.38718 10.86587,32.5097 10.86587,32.5097z" data-paper-data="{&quot;origPos&quot;:null,&quot;origRot&quot;:0}" fill="#8eb480" stroke="none" stroke-width="0" stroke-linecap="butt"/></g></g></svg>