<svg version="1.1" xmlns="http://www.w3.org/2000/svg" xmlns:xlink="http://www.w3.org/1999/xlink" width="315.52225" height="167.18979" viewBox="0,0,315.52225,167.18979"><g transform="translate(-211.47777,-98.87224)"><g data-paper-data="{&quot;isPaintingLayer&quot;:true}" fill="none" fill-rule="nonzero" stroke="none" stroke-width="none" stroke-linecap="none" stroke-linejoin="miter" stroke-miterlimit="10" stroke-dasharray="" stroke-dashoffset="0" font-family="none" font-weight="none" font-size="none" text-anchor="none" style="mix-blend-mode: normal"><g data-paper-data="{&quot;origPos&quot;:null,&quot;index&quot;:null}" fill="#696053" stroke-width="0" stroke-linecap="butt"><path d="M459.75643,260.59484l15.56964,-130.07147l14.18282,-0.40063l12.43019,13.65761l19.06094,-7.78978l-15.56964,130.07147z" data-paper-data="{&quot;origPos&quot;:null,&quot;origRot&quot;:0}"/><path d="M459.75644,260.59484l15.56964,-130.07147l14.18282,-0.40063l12.43019,13.65761z" data-paper-data="{&quot;origPos&quot;:null,&quot;origRot&quot;:0}"/></g><g data-paper-data="{&quot;origPos&quot;:null,&quot;index&quot;:null}" stroke-width="0" stroke-linecap="butt"><path d="M465.75643,255.59484l15.56964,-130.07147l14.18282,-0.40063l12.43019,13.65761l19.06094,-7.78978l-15.56964,130.07147z" data-paper-data="{&quot;origPos&quot;:null,&quot;origRot&quot;:0}" fill="#8b7f6e"/><path d="M465.75644,255.59485l15.56964,-130.07147l14.18282,-0.40063l12.43019,13.65761z" data-paper-data="{&quot;origPos&quot;:null,&quot;origRot&quot;:0}" fill="#817666"/></g><g data-paper-data="{&quot;origPos&quot;:null,&quot;index&quot;:null}" stroke-width="0" stroke-linecap="butt"><path d="M395.08951,231.2291c0,0 8.77228,-31.60396 18.56105,-31.60396c11.4813,0 22.26965,-2.31009 32.93373,1.94407c13.04797,5.20515 18.84903,-1.62767 29.77877,7.19753c4.83485,3.90389 12.53502,22.46235 12.53502,22.46235z" data-paper-data="{&quot;index&quot;:null,&quot;origPos&quot;:null}" fill="#dbcfbd"/><path d="M415.1555,221.19607c0,0 8.77229,-31.60396 18.56106,-31.60396c11.48131,0 22.26966,-2.31009 32.93374,1.94407c13.04797,5.20515 18.84903,-1.62766 29.77877,7.19754c4.83485,3.90389 12.53501,22.46235 12.53501,22.46235z" data-paper-data="{&quot;origPos&quot;:null,&quot;index&quot;:null}" fill="#d1c0a6"/><path d="M406.62745,240.2588c0,0 8.77229,-31.60396 18.56106,-31.60396c11.4813,0 22.26965,-2.31009 32.93373,1.94407c13.04797,5.20515 18.84903,-1.62766 29.77877,7.19754c4.83486,3.90389 12.53502,22.46235 12.53502,22.46235z" data-paper-data="{&quot;origPos&quot;:null,&quot;index&quot;:null}" fill="#dbcfbd"/><path d="M426.69346,230.22578c0,0 8.77229,-31.60397 18.56106,-31.60397c11.48131,0 22.26965,-2.31009 32.93373,1.94407c13.04798,5.20515 18.84904,-1.62766 29.77878,7.19754c4.83486,3.90388 12.53502,22.46235 12.53502,22.46235z" data-paper-data="{&quot;origPos&quot;:null,&quot;index&quot;:null}" fill="#d1c0a6"/><path d="M406.1258,234.239c0,0 7.70016,-18.55847 12.53502,-22.46236c10.92973,-8.8252 16.73079,-1.99238 29.77877,-7.19753c10.66407,-4.25416 21.45242,-1.94408 32.93373,-1.94408c9.78877,0 18.56106,31.60396 18.56106,31.60396z" data-paper-data="{&quot;origPos&quot;:null}" fill="#dbcfbd"/><path d="M380.03999,229.22247c0,0 7.70015,-18.55846 12.53501,-22.46235c10.92973,-8.8252 16.73079,-1.99239 29.77877,-7.19754c10.66408,-4.25416 21.45243,-1.94407 32.93374,-1.94407c9.78877,0 18.56106,31.60396 18.56106,31.60396z" data-paper-data="{&quot;origPos&quot;:null}" fill="#d1c0a6"/><path d="M384.05319,252.80001c0,0 7.70016,-18.55846 12.53502,-22.46235c10.92973,-8.82519 16.73079,-1.99238 29.77877,-7.19753c10.66408,-4.25416 21.45242,-1.94407 32.93373,-1.94407c9.78877,0 18.56106,31.60396 18.56106,31.60396z" data-paper-data="{&quot;origPos&quot;:null}" fill="#dbcfbd"/><path d="M368.50203,238.2522c0,0 7.70016,-18.55846 12.53502,-22.46235c10.92974,-8.8252 16.7308,-1.99239 29.77878,-7.19754c10.66408,-4.25416 21.45242,-1.94407 32.93373,-1.94407c9.78877,0 18.56106,31.60396 18.56106,31.60396z" data-paper-data="{&quot;origPos&quot;:null}" fill="#d1c0a6"/></g><path d="M214.13903,120.9161c0.32091,-0.22628 0.8954,-0.4219 1.72346,-0.58685c0.83578,-0.1775 1.45296,-0.23872 1.85153,-0.18368l0.76507,0.04278c0.56454,0.34748 0.89315,0.44596 0.98581,0.29541c1.09581,0.51015 1.82004,1.25864 2.17268,2.24547c0.22531,0.40681 0.34084,0.80226 0.3466,1.18637c0.02171,0.0912 0.04653,0.35299 0.07448,0.78534l-0.1376,0.77157l-0.32724,0.78458c-0.26155,0.11578 -0.41958,0.12663 -0.4741,0.03253c-0.61817,0.37198 -1.15599,0.56423 -1.61343,0.57673c-0.45987,0.00237 -0.92164,-0.16077 -1.38533,-0.48942c-0.16453,-0.19641 -0.27211,-0.40101 -0.32276,-0.61382c0.00436,-0.16165 0.0121,-0.28663 0.0232,-0.37493l0.03913,-0.44297c0.06808,-0.4338 -0.04673,-0.78124 -0.34444,-1.04232c0.22682,-0.17176 0.22127,-0.24004 -0.01663,-0.20484c-0.22777,0.0328 -0.35925,0.04267 -0.39448,0.02964c-0.03764,-0.02317 -0.08059,-0.02365 -0.12884,-0.00146c-0.20654,0.16694 -0.34749,0.67698 -0.42284,1.53011c-0.23312,0.5052 -0.3345,1.09148 -0.30416,1.75884c0.09639,1.30481 0.16267,2.03321 0.19885,2.18522l0.11866,0.56604l0.10491,0.44082c-0.2654,0.00963 -0.09343,0.66469 0.5159,1.9652c0.01978,0.03813 0.0731,0.12716 0.15994,0.26711c0.0989,0.19061 0.23978,0.46761 0.42263,0.83098l0.30325,0.32937c0.1134,0.02655 0.19445,0.23212 0.24314,0.61671c0.18242,-0.26828 0.367,-0.28008 0.55373,-0.03542c0.39132,0.24951 0.34498,0.43722 -0.13902,0.56312c0.09992,-0.34501 0.27341,-0.49338 0.52047,-0.4451c0.26201,0.06613 0.4548,-0.00116 0.57835,-0.20189c0.08494,-0.138 0.18943,-0.32883 0.31347,-0.5725c0.13176,-0.25622 0.23528,-0.47359 0.31058,-0.65213c0.07529,-0.17853 0.21767,-0.36768 0.42711,-0.56743c0.68143,-0.82605 1.42938,-0.94517 2.24386,-0.35735c0.23739,0.23261 0.39659,0.67656 0.47759,1.33186c0.081,0.6553 -0.03656,1.33109 -0.35268,2.02738c-0.00387,0.1187 -0.08858,0.34767 -0.25412,0.68688c-0.16554,0.33921 -0.32722,0.55972 -0.48502,0.66152c0.04485,0.27843 -0.70577,0.63376 -2.25188,1.06597c-0.11147,0.02653 -0.24562,0.04775 -0.40245,0.06366c-0.21088,0.10372 -0.50643,0.09912 -0.88667,-0.01384c-0.36768,-0.10523 -0.55757,-0.07075 -0.56965,0.10345l-0.35612,-0.01161c-0.19254,0.04582 -0.39327,0.03471 -0.6022,-0.03335c-0.21135,-0.07819 -0.50954,-0.18389 -0.8946,-0.31711c-0.38747,-0.14335 -0.69049,-0.26932 -0.90907,-0.37791c-0.6987,-0.32627 -1.24079,-0.75939 -1.62629,-1.29939c-0.14234,-0.14815 -0.25017,-0.33129 -0.32349,-0.5494c-0.0632,-0.22053 -0.09358,-0.32572 -0.09117,-0.31559c-0.24849,-0.14431 -0.4135,-0.4102 -0.49501,-0.79769c-0.08151,-0.38749 -0.19946,-0.79308 -0.35383,-1.21676c-0.06271,-0.26347 0.05022,-0.41884 0.33879,-0.4661c-0.35758,0.11722 -0.55999,0.03155 -0.60726,-0.25701c-0.04968,-0.29869 -0.12878,-0.67605 -0.23731,-1.13207c0.02655,-0.1134 -0.02191,-0.40703 -0.1454,-0.88089c-0.11577,-0.48641 -0.18401,-0.81817 -0.20475,-0.99526c-0.10953,-0.14526 -0.1797,-0.41766 -0.21055,-0.81721l-0.15048,-0.76726c-0.06656,-0.36963 -0.0711,-0.74867 -0.01365,-1.13711c-0.01109,-0.13656 -0.02144,-0.33754 -0.03106,-0.60294c0.00051,-0.26781 0.11975,-0.75661 0.3577,-1.46641c-0.05065,-0.21281 0.13997,-0.42414 0.57187,-0.634c-0.23643,-0.09363 -0.28637,-0.25843 -0.14978,-0.49437c0.13658,-0.23595 0.2681,-0.47069 0.39455,-0.70424c0.20174,-0.41208 0.4428,-0.72643 0.72318,-0.94306c0.27797,-0.22677 0.52964,-0.47405 0.75501,-0.74183zM227.36051,124.38673l0.01486,3.70666l-0.47188,-0.49803c0.04538,-0.21425 0.31009,-0.60918 0.79414,-1.18481c-0.22679,-0.0531 -0.15315,-0.64349 0.22093,-1.77115l0.31782,-0.62173l0.16074,-0.47191c0.38945,-0.47816 0.74125,-0.75463 1.0554,-0.82939c0.55591,-0.22867 1.17357,-0.22041 1.85297,0.02479c0.19978,-0.01542 0.45358,0.1062 0.76142,0.36487c0.48011,0.21767 0.76984,0.62521 0.86919,1.22261c0.01688,0.07094 0.02098,0.15562 0.01229,0.25406c0.31533,2.71964 0.58827,4.60882 0.81884,5.66754c0.22815,1.04859 0.51542,1.89572 0.86183,2.5414c0.42745,0.85124 0.26163,1.54923 -0.49745,2.09395c-0.22488,0.22485 -0.56099,0.34232 -1.0083,0.35241c-0.34455,0.082 -0.64782,0.08993 -0.90983,0.0238c-0.26201,-0.06613 -0.55393,-0.28041 -0.87575,-0.64282l-0.2598,-0.48426c-0.1322,-0.15056 -0.23568,-0.38292 -0.31045,-0.69706l-0.35386,-0.87947c0.26588,-0.05257 0.24154,-0.24487 -0.07305,-0.57688l-0.11431,-0.61525c-0.11096,-0.24129 -0.22021,-0.74531 -0.32775,-1.51207l-0.21848,-1.12048l-0.17365,-0.72962c0.27071,-0.0323 0.38652,0.00438 0.34742,0.11005c-0.0285,0.28518 -0.08434,1.42277 -0.16751,3.41277l-0.17682,2.22644c-0.0561,1.38392 -0.35608,2.21556 -0.89993,2.4949l-0.33513,0.14401c-0.33441,0.07959 -0.8032,0.08943 -1.40637,0.02955c-0.59928,-0.40346 -0.96765,-0.894 -1.10512,-1.47162c0.05888,-0.06755 0.06539,-0.08516 0.01955,-0.05283c-0.12833,-0.26927 -0.10031,-0.62394 0.08407,-1.064c-0.20267,0.04823 -0.32451,-0.01378 -0.36551,-0.18605l-0.04195,-0.31124c-0.04487,-0.05357 -0.14064,-0.29847 -0.28728,-0.7347c-0.13652,-0.43864 -0.17726,-0.74482 -0.12224,-0.91853c-0.13317,-0.06467 -0.18357,-0.29895 -0.15121,-0.70284c-0.12497,-0.12016 -0.24244,-0.34383 -0.35243,-0.671c-0.247,-0.72287 -0.40257,-1.26406 -0.4667,-1.62356c-0.05642,-0.37205 -0.11839,-0.69994 -0.18592,-0.98368c-0.10758,-0.31704 -0.2055,-0.70597 -0.29375,-1.16681l-0.32768,-2.18667l-0.16851,-1.51785c-0.00965,-0.04054 -0.09021,-0.17662 -0.24171,-0.40825c-0.14377,-0.24418 -0.24484,-0.57883 -0.30318,-1.00395c-0.04822,-0.42753 -0.06411,-0.6968 -0.04769,-0.80778c0.02655,-0.1134 0.0355,-0.34573 0.02685,-0.69703c-0.09165,-0.38507 -0.11839,-0.69994 -0.08025,-0.94459l0.03913,-0.44297c-0.01976,-0.26299 0.25026,-0.68061 0.81007,-1.25285l0.44082,-0.10491c0.78463,-0.12249 1.39987,-0.12436 1.84573,-0.00562c0.38747,0.14335 0.61615,0.58683 0.68606,1.33044c0.13842,0.71659 0.21921,1.1685 0.24236,1.35573c0.03086,0.17468 0.16881,0.93422 0.41381,2.27861c0.24259,1.33426 0.3844,2.08751 0.4254,2.25979zM239.85063,123.16482c0.00484,-0.2046 -0.03591,-0.39834 -0.12227,-0.58124c0.08541,0.04392 0.08758,0.07553 0.00651,0.09482c-0.02026,0.00482 -0.06009,0.17492 -0.11947,0.51028c-0.16941,0.45792 -0.27226,1.0606 -0.30851,1.80806l-0.51821,-0.42276c0.3353,0.73398 0.34998,1.11061 0.04405,1.12988c0.18774,-0.29095 0.32721,-0.44728 0.41841,-0.46899c0.08879,-0.03184 0.18193,-0.1129 0.27942,-0.24317c0.2442,-0.36864 0.3509,-0.9776 0.3201,-1.82687zM241.35214,127.44921l-0.93953,0.30392c-0.60802,0.14471 -0.93132,0.13599 -0.96991,-0.02615l0.24321,-0.05788c0.34201,1.25705 0.83148,1.98646 1.46842,2.18823c0.13366,0.02172 0.22583,0.02657 0.2765,0.01451c0.05066,-0.01206 0.11944,-0.06055 0.20631,-0.14547c-0.01014,0.00241 -0.01134,-0.00266 -0.00362,-0.0152c-0.04291,-0.45022 0.10743,-0.67338 0.451,-0.66948c0.50388,-1.2121 1.11484,-1.72691 1.83285,-1.54445c0.61908,0.21672 0.96842,0.49229 1.04801,0.8267c0.05547,0.23307 -0.01452,0.38893 -0.20995,0.46756l0.16721,-0.0398c0.0603,0.25334 0.02793,0.65722 -0.0971,1.21166c-0.11489,0.55202 -0.25656,1.01404 -0.425,1.38606c-0.07242,0.37059 -0.23748,0.66685 -0.49517,0.8888c-0.55208,0.5597 -1.20258,0.88583 -1.95149,0.97842c-0.28857,0.04727 -0.46083,-0.02417 -0.51678,-0.21429c-0.00241,-0.01014 -0.00579,0.06562 -0.01015,0.22728l-0.29966,0.02314c-0.23307,0.05547 -0.46035,0.04532 -0.68183,-0.03046c-0.09408,-0.17035 -0.15584,-0.18242 -0.18529,-0.0362c-0.63068,-0.08547 -1.0126,-0.16053 -1.14578,-0.22521c-0.12305,-0.06708 -0.22992,-0.11125 -0.32064,-0.13248c-0.09312,-0.03137 -0.32377,-0.19064 -0.69192,-0.47778c-0.29144,-0.14479 -0.47335,-0.25675 -0.54572,-0.3359c-0.10759,-0.09217 -0.23426,-0.17446 -0.37998,-0.24685c-0.13559,-0.07481 -0.24728,-0.25167 -0.33507,-0.53059c-0.10518,-0.08205 -0.17949,-0.21427 -0.2229,-0.39667l-0.14185,-0.1911c0.11486,-0.10229 0.12619,-0.09963 0.03402,0.00797c-0.28854,-0.1776 -0.46778,-0.41335 -0.53772,-0.70722l0.32791,-0.17441c-0.34069,0.18816 -0.51102,0.05738 -0.51098,-0.39235l-0.14109,-0.59281l-0.08466,-0.22077l-0.03256,-0.1368c-0.05693,-0.10423 -0.08634,-0.29532 -0.08825,-0.57327l-0.09914,-0.28157c0.25576,-0.05016 0.25867,-0.19541 0.00873,-0.43573c-0.02215,-0.49798 0.03023,-0.77279 0.15715,-0.8244l-0.15778,-0.12306c0.00579,-0.06562 -0.00216,-0.14403 -0.02386,-0.23524c-0.02171,-0.0912 -0.0217,-0.20363 0.00004,-0.33729c0.01931,-0.1438 0.06351,-0.58797 0.13258,-1.33252l0.20494,-1.02852c0.06951,-0.33777 0.18705,-0.67626 0.3526,-1.01548c-0.00192,-0.05308 0.04587,-0.25719 0.14337,-0.61233l0.28522,-0.42123c0.10136,-0.24898 0.28185,-0.45791 0.54148,-0.62677c0.26783,-0.22436 0.48788,-0.35703 0.66016,-0.39803l0.77669,-0.31334c0.10857,0.00628 0.16286,0.00943 0.16286,0.00943l0.34961,-0.08321c0.4758,-0.0704 0.86618,-0.0723 1.17114,-0.00568c0.61089,0.04735 1.10959,0.18564 1.49609,0.41488c0.80965,0.56754 1.29287,1.18066 1.44963,1.83935c0.15435,0.64856 0.18687,1.23508 0.09755,1.75961c-0.20229,1.12961 -0.36835,1.84907 -0.49818,2.15837c-0.22929,0.83623 -0.66313,1.33031 -1.30155,1.48225zM246.62077,118.38944c0.55402,-0.73148 1.5937,-1.06459 3.11901,-0.9993c0.44104,0.09848 0.85456,0.28382 1.24057,0.55601c0.23739,0.23261 0.44823,0.57861 0.63252,1.03801c0.19442,0.45698 0.3278,0.94992 0.40014,1.47879c0.08005,0.51633 0.03899,1.01865 -0.12319,1.50697c-0.15446,0.47577 -0.56441,0.8678 -1.22987,1.17609c-0.64856,0.15435 -1.10068,0.03174 -1.35639,-0.36782c-0.33389,-0.41309 -0.47474,-0.80251 -0.42259,-1.16827c-0.02748,-0.25044 -0.05375,-0.60825 -0.07879,-1.07342c0.04777,0.02075 0.10543,0.06057 0.17299,0.11944l0.06655,0.48207c-0.00531,0.02268 -0.01742,0.53418 -0.03633,1.53449c-0.02132,0.99017 -0.01318,1.60928 0.02444,1.85731c0.04533,0.23548 0.07185,0.45939 0.07956,0.67171c0.26047,1.09443 0.50747,1.81731 0.74098,2.16862c0.23351,0.35131 0.41325,0.54411 0.53919,0.57838c-0.06275,0.18626 -0.01884,0.21329 0.13173,0.08108c0.1607,-0.13461 0.3226,-0.26416 0.48572,-0.38864c0.15878,-0.18769 0.36556,-0.37611 0.62037,-0.56524c-0.2152,-0.18435 -0.13024,-0.43478 0.25486,-0.75129l0.2237,-0.34234c1.10362,-0.40186 1.79652,-0.12239 2.07872,0.83837c0.14088,0.27699 0.14109,0.59282 0.00064,0.94748c-0.05649,0.30255 -0.22683,0.39663 -0.51104,0.28224c0.31269,0.05407 0.27185,0.64736 -0.12249,1.77985c-0.29,-0.04876 -0.39375,-0.03478 -0.31124,0.04195c-0.36919,0.47334 -0.88891,0.74159 -1.55916,0.80474c-0.04246,-0.04343 -0.05886,-0.04488 -0.04921,-0.00434c-0.08107,0.01929 -0.37566,0.04123 -0.88378,0.06579l-0.36481,0.08682c-0.60897,0.00573 -1.00393,-0.03411 -1.18487,-0.11953c-0.20219,0.00529 -0.50715,-0.06133 -0.91488,-0.19986l-0.35535,-0.41333c-0.08446,0.09506 -0.26106,0.07284 -0.52983,-0.06664c-0.26104,-0.15202 -0.42389,-0.27388 -0.48854,-0.36557c-0.05452,-0.0941 -0.15922,-0.21909 -0.3141,-0.37496c-0.1573,-0.16601 -0.25886,-0.34528 -0.30468,-0.53782l-0.2598,-0.48426c0.13658,-0.23595 0.09075,-0.31606 -0.1375,-0.24032c0.1385,-0.18287 0.08182,-0.30858 -0.17006,-0.37712c-0.05547,-0.23307 -0.13699,-0.50813 -0.24457,-0.82517c-0.22721,-0.68475 -0.20569,-1.24667 0.06458,-1.68576c0.22146,0.30065 0.10829,0.36506 -0.33949,0.19323l-0.23153,-0.97283c-0.082,-0.34455 -0.09861,-0.77425 -0.04982,-1.28911c-0.04003,-0.25817 -0.00307,-0.62031 0.11085,-1.08644l0.0297,-0.28011c-0.03134,-0.3566 0.06545,-0.75976 0.29036,-1.20946l0.26352,-0.51244l0.18101,-0.58917c0.20464,-0.44489 0.47875,-0.77781 0.82235,-0.99879zM255.48635,110.51341c0.67896,-0.16159 1.17351,0.34175 1.48368,1.51001c0.3449,1.22424 0.59861,2.47019 0.7611,3.73785c0.17263,1.26524 0.36529,2.54713 0.57797,3.84568l-0.22017,1.36944l-0.19398,0.06223c0.07339,-0.45647 0.25633,-0.99257 0.5488,-1.60826l0.18168,0.02101c0.11246,-0.33728 0.23385,-0.56962 0.36415,-0.697c0.01883,-0.10085 0.25386,-0.44054 0.7051,-1.01906c0.17949,0.21427 0.22075,0.1402 0.1238,-0.2222c0.39331,-0.372 0.62833,-0.59926 0.70506,-0.68177c0.07673,-0.08251 0.16867,-0.16863 0.2758,-0.25838c0.11727,-0.09216 0.41573,-0.23279 0.8954,-0.4219c0.04485,0.27843 0.16379,0.37326 0.35682,0.2845c0.19302,-0.08877 0.34961,-0.08321 0.46976,0.01669c0.69048,0.38176 0.79779,1.05757 0.32191,2.02744c-0.37647,0.89267 -0.8072,1.66976 -1.29222,2.33128c-0.48743,0.65138 -0.7917,0.97008 -0.91281,0.95607c0.05165,-0.09795 0.24272,-0.01493 0.57324,0.24905c0.31795,0.48113 0.58863,0.78611 0.81204,0.91498c0.4521,0.4599 1.00457,0.86916 1.65743,1.22775c0.07286,0.03619 0.17178,0.11438 0.29675,0.23455c0.1351,0.11775 0.36791,0.30862 0.69843,0.5726c0.42269,0.15638 0.69313,0.48285 0.81131,0.9794c0.06607,0.41258 -0.07872,0.70403 -0.43437,0.87433c-0.34552,0.16789 -0.63311,0.24169 -0.8628,0.22141c-0.097,0.08733 -0.44467,0.11119 -1.04302,0.07157c-0.06031,-0.02848 -0.10277,-0.07191 -0.12738,-0.1303c-0.09941,0.07719 -0.2724,0.07019 -0.51897,-0.02103c-0.28374,0.06753 -0.50088,0.05496 -0.65143,-0.0377c-0.6688,-0.06569 -0.9711,-0.25608 -0.90688,-0.57117c-0.15105,0.17515 -0.339,0.15028 -0.56384,-0.0746c-0.13317,-0.06467 -0.25402,-0.32502 -0.36255,-0.78103c-0.13609,0.193 -0.33056,0.18575 -0.58339,-0.02177c-0.25284,-0.20752 -0.39541,-0.3342 -0.42773,-0.38004c-0.02461,-0.05839 -0.05065,-0.10037 -0.07815,-0.12595c-0.02991,-0.03571 -0.07985,-0.08808 -0.14981,-0.15708c-0.48202,-0.49562 -0.62964,-0.84596 -0.44288,-1.05102l0.45887,0.30839l0.00432,0.28808c0.11194,0.15539 0.14642,0.34527 0.10345,0.56966c0.01109,0.13656 0.02989,0.26058 0.05642,0.37205l0.15407,1.11975l0.10491,0.44082c0.14907,0.44637 0.11309,0.72262 -0.10792,0.82876c0.00576,0.3841 -0.39598,0.60821 -1.20521,0.67231l-0.65866,-0.0681l-0.08685,-0.02751c-0.11147,0.02653 -0.2555,-0.08374 -0.43209,-0.33082c-0.04248,0.18143 -0.24901,0.23594 -0.61959,0.16353c-0.373,-0.08255 -0.64031,-0.23844 -0.80194,-0.46765c-0.38068,-0.51973 -0.54228,-0.97383 -0.48483,-1.36226c-0.0743,-0.13222 -0.11651,-0.30956 -0.12662,-0.53201c0.16408,-0.21038 0.15372,-0.29892 -0.0311,-0.26564c-0.05788,-0.24321 -0.09502,-0.42175 -0.11141,-0.53563c-0.00626,-0.11629 -0.04533,-0.23548 -0.11722,-0.35758c-0.00432,-0.28808 -0.01395,-0.55348 -0.02888,-0.7962c-0.05403,-0.13704 -0.08924,-0.26251 -0.10564,-0.37639c-0.00868,-0.12643 -0.02628,-0.24537 -0.0528,-0.35684c0.02704,-0.15634 0.02488,-0.30038 -0.00647,-0.43211c-0.08441,-0.35467 -0.12636,-0.66592 -0.12586,-0.93373c0.01064,-0.27023 -0.03614,-0.4893 -0.14035,-0.65723l-0.20966,-2.56811c-0.24105,-2.36256 -0.34752,-4.22711 -0.3194,-5.59366l-0.12808,-0.40317c-0.22387,-0.31078 -0.16447,-0.75857 0.17819,-1.34338c0.37352,-0.41013 0.64353,-0.60288 0.81001,-0.57825c0.14091,-0.17274 0.53516,-0.1809 1.18271,-0.0245zM270.51745,116.66929c0.10864,-0.66831 0.22376,-1.01694 0.34536,-1.04588c0.16502,0.15346 0.24921,0.30475 0.25257,0.45385l-0.61969,1.17542c-0.57965,1.20872 -0.85982,1.85361 -0.84052,1.93468c0.02653,0.11147 0.0118,0.29701 -0.0442,0.55661l0.08756,0.30039l0.22573,1.15089l0.06512,0.27361c0.16882,0.70936 0.14248,1.251 -0.07904,1.62495c-0.33921,-0.16554 -0.37079,-0.38824 -0.09476,-0.66808l0.2534,-0.62245c0.30261,-0.61811 0.48288,-1.03042 0.54081,-1.23694c0.0942,-1.17884 0.13046,-1.81386 0.10876,-1.90507c-0.06994,-0.29387 -0.0921,-0.67943 -0.06648,-1.15666c-0.03376,-0.14187 -0.0545,-0.31897 -0.0622,-0.53129zM264.87523,117.59452l-0.20109,-1.31736c0.01642,-0.11099 -0.01734,-0.25285 -0.10129,-0.42561l-0.06648,-1.15666c-0.02653,-0.11147 -0.07525,-0.2712 -0.14617,-0.47918c-0.07332,-0.21812 -0.09381,-0.41668 -0.06146,-0.59571c0.07675,-0.30737 0.41044,-0.43497 1.00107,-0.3828l-1.94064,1.02402c1.22866,-1.18115 2.0488,-1.76181 2.46041,-1.74199c0.42174,0.01741 0.80174,0.0394 1.14,0.06598c0.22533,0.18194 0.51243,0.37595 0.86129,0.58203l0.26482,1.04522c0.09888,0.41548 0.23661,0.85919 0.41318,1.33114c-0.12355,0.20073 -0.27411,0.33293 -0.4517,0.39661l0.12744,-0.5443c-0.21086,-0.12114 -0.15823,-0.41742 0.15788,-0.88883c0.31611,-0.47142 0.56608,-0.68081 0.74993,-0.6282c-0.23497,-0.22247 -0.13627,-0.46012 0.29611,-0.71293c0.53854,-0.25666 0.98297,-0.34637 1.3333,-0.26913c0.35804,0.06469 0.56168,0.043 0.61091,-0.06508l1.52433,0.26361c-0.208,0.29578 -0.22466,0.31581 -0.04995,0.06008l0.18456,0.10063c0.13463,-0.06416 0.29484,-0.0434 0.48061,0.0623c0.48303,-0.04 0.73875,0.24713 0.76717,0.86141c-0.16938,0.00819 -0.14524,-0.00291 0.07239,-0.03329l0.18812,0.79042c0.07718,0.32427 0.11645,0.87172 0.11783,1.64234c0.00138,0.77062 -0.0076,1.22783 -0.02691,1.37163c-0.0116,0.13125 -0.02488,0.30038 -0.03986,0.50739c-0.01498,0.20701 -0.03864,0.40003 -0.07098,0.57905c-0.0063,0.33344 -0.0862,0.80753 -0.23971,1.42228c-0.15351,0.61475 -0.32967,1.11175 -0.52852,1.49101c-0.42087,1.02102 -0.97925,1.91416 -1.67516,2.6794c-0.7919,0.54182 -1.31621,0.88075 -1.57294,1.01681c-0.11289,-0.29436 0.07433,-0.20507 0.56166,0.26787l0.44497,1.86966l0.34371,1.10674l0.31258,1.1784c0.21177,0.70984 0.2443,1.18394 0.09759,1.4223l-0.31924,0.41327c-0.36435,0.26874 -0.70792,0.37729 -1.03074,0.32562c-0.41402,-0.02996 -0.62898,-0.12334 -0.64489,-0.28017c-0.10039,0.16309 -0.27241,0.18261 -0.51608,0.05858l-0.08323,-0.01231c-0.43382,0.15678 -0.74505,0.08631 -0.93369,-0.21144c-0.26635,-0.12935 -0.40482,-0.28377 -0.41542,-0.46328l-0.48854,-0.36557c-0.2311,-0.34118 -0.3744,-0.62831 -0.42987,-0.86138c-0.21035,-0.38895 -0.3242,-0.70985 -0.34154,-0.9627l-0.26989,-0.93158l-0.32921,-1.38323c-0.10129,-0.42561 -0.17173,-0.67654 -0.21128,-0.75279c-0.08925,-0.15008 -0.31307,-1.13545 -0.67142,-2.95612c-0.03134,-0.3566 -0.05664,-0.57544 -0.07593,-0.65651l-0.38331,-3.29773l-0.115,-0.88813l-0.05426,-0.228c0.00002,-0.22486 -0.0084,-0.37276 -0.02529,-0.4437zM281.55575,115.88926l-0.42913,-0.9258c0.05115,-0.05501 0.04658,-0.09674 -0.01374,-0.12522c-0.06272,-0.03861 -0.11508,-0.1011 -0.15705,-0.18748c-0.05019,-0.03089 -0.13172,-0.08108 -0.24463,-0.15057l-0.28878,-0.26856l0.04056,-0.23451c-0.20267,0.04823 -0.32862,0.01396 -0.37782,-0.10282c-0.03908,-0.11919 -0.07743,-0.19037 -0.11507,-0.21353c-0.03764,-0.02317 -0.04945,-0.09531 -0.03544,-0.21642c0.01401,-0.12111 -0.0065,-0.09482 -0.06153,0.07889c-0.02268,-0.00531 -0.08107,0.01929 -0.17517,0.07381c-0.08638,0.04197 -0.12209,0.07189 -0.10713,0.08974c-0.1289,0.67314 -0.17405,1.09077 -0.13546,1.25291c-0.04736,0.83576 0.01073,1.3948 0.17428,1.6771c0.10707,0.58485 0.3601,1.33306 0.75907,2.24462l0.0398,0.16721c0.14764,0.12548 0.3322,0.33854 0.55366,0.63918c0.20024,0.16649 0.29046,0.34311 0.27066,0.52986c-0.02221,0.17661 0.01495,0.13029 0.11149,-0.13896c0.29676,0.12211 0.36791,0.30862 0.21348,0.55953c-0.13606,-0.25672 -0.12422,-0.29702 0.03548,-0.12087l-0.42919,-0.2512c0.19256,-0.27069 0.44807,-0.29938 0.76653,-0.08606c-0.82761,0.57173 -0.9241,0.39126 -0.28948,-0.54144l0.03475,-0.05645c0.22009,-0.46998 0.30093,-0.69267 0.24254,-0.66806c-0.05839,0.02461 -0.08879,0.03184 -0.0912,0.02171c-0.27646,-0.3518 -0.28053,-0.66135 -0.01221,-0.92866c0,0 0.02657,-0.22583 0.07969,-0.67748l-0.03618,-0.152c0.23307,-0.05547 0.22245,-0.01011 -0.03186,0.13607l-0.14109,-0.59281c0.15249,-0.07913 0.16311,-0.12448 0.03186,-0.13607c0.00051,-0.26781 -0.00913,-0.42078 -0.0289,-0.4589c-0.02219,-0.04825 -0.03738,-0.15707 -0.04557,-0.32644c0.00195,-0.17179 0.03647,-0.3192 0.10355,-0.44224c0.25863,0.14189 0.18841,0.31922 -0.21067,0.53198zM276.78772,110.90464c0.17227,-0.041 0.28013,-0.08273 0.32356,-0.12518c0.05357,-0.04487 0.20244,-0.13919 0.44662,-0.28296c0.25431,-0.14618 0.83966,-0.2962 1.75602,-0.45005c0.56361,-0.01636 1.18512,0.09806 1.86452,0.34327c0.70063,0.15448 1.33491,0.48001 1.90282,0.97661c0.85495,1.25276 1.42834,2.37979 1.7202,3.38109c0.39989,1.50026 0.55443,2.80194 0.46361,3.90502c-0.18589,1.2435 -0.31529,1.95957 -0.38816,2.14824c0.01011,0.22245 -0.10743,0.67338 -0.35262,1.35278c-0.24465,-0.03814 -0.42897,-0.16025 -0.55295,-0.3663c0.36045,0.07483 0.46225,0.23263 0.30541,0.4734c-0.15684,0.24078 -0.36701,0.39252 -0.63048,0.45523c-0.0941,0.05452 -0.17059,0.11556 -0.22946,0.1831c-0.04633,0.07527 -0.20124,0.14426 -0.46471,0.20697l-0.62756,0.19755l-0.71442,0.17003c-0.53708,0.12782 -1.01625,0.16156 -1.4375,0.1012l-1.02633,-0.39819l-0.09622,-0.53925c-0.22586,0.31074 -0.37955,0.38479 -0.46109,0.22217c-0.08395,-0.17276 -0.00648,-0.31969 0.23239,-0.44078c-0.43575,0.10371 -0.68135,0.03902 -0.73682,-0.19405c-0.26248,-0.24805 -0.36379,-0.4488 -0.30395,-0.60224c0.05744,-0.16357 -0.02797,-0.20749 -0.25622,-0.13176c-0.08441,-0.35467 -0.25423,-0.75328 -0.50945,-1.19579l-0.16571,-0.42634l-0.07235,-0.30401c-0.0685,-0.19785 -0.24918,-0.52962 -0.54204,-0.9953c0.36432,-0.04387 0.38243,-0.08031 0.0543,-0.10929c-0.11094,-0.46615 -0.17099,-0.74096 -0.18015,-0.82444l-0.23013,-0.42707c0.04971,-0.15103 0.06227,-0.25574 0.03767,-0.31413c-0.02461,-0.05839 -0.02941,-0.19109 -0.01443,-0.3981l-0.03256,-0.1368l-0.11065,-0.93735c-0.04341,-0.18241 -0.03061,-0.30859 0.0384,-0.37855l-0.2207,-0.58993c0.42944,0.22973 0.46828,0.25797 0.11653,0.0847l0.07893,-0.27577l0.00435,-0.04922c0.09603,-0.00144 0.06732,-0.03208 -0.08612,-0.09193l0.18028,-0.52475c-0.11773,-0.08976 -0.08201,-0.23211 0.10717,-0.42704c-0.12787,-0.08735 -0.10348,-0.23236 0.07315,-0.43501c-0.12014,-0.0999 -0.14909,-0.2215 -0.08682,-0.36481c-0.03618,-0.152 0.0454,-0.43911 0.24473,-0.86132c0.22393,-0.36381 0.41697,-0.56501 0.57911,-0.6036zM287.81978,104.56885l0.0912,-0.02171c0.82274,-0.14228 1.41506,-0.01555 1.77693,0.38017c0.372,0.39331 0.57705,0.80494 0.61513,1.23488c0.03808,0.42995 -0.14364,0.9711 -0.54518,1.62347c-0.39381,0.63982 -0.8402,1.01375 -1.33916,1.12179c-0.152,0.03618 -0.44756,0.03156 -0.88667,-0.01384c-0.42898,-0.04781 -0.7045,-0.1482 -0.82656,-0.30118c0.17084,-0.13703 0.22222,-0.10107 0.15416,0.10787c-0.70644,-0.08885 -1.20847,-0.60112 -1.50611,-1.5368c-0.082,-0.34455 0.13275,-0.45455 0.64423,-0.33c-0.45267,0.4825 -0.66738,0.36764 -0.64416,-0.34459c0.03962,-0.59835 0.3468,-1.06228 0.92155,-1.3918c0.56122,-0.25135 1.07611,-0.42744 1.54467,-0.52824zM290.01373,111.62769l0.57937,4.39143c0.01929,0.08107 0.0398,0.16721 0.0615,0.25841c0.01929,0.08107 0.04486,0.166 0.07671,0.25479c0.01157,0.09362 0.02701,0.18095 0.04631,0.26203l0.43774,1.83926c0.23494,0.6722 0.29473,1.19336 0.17936,1.56346c-0.1882,0.10904 -0.35758,0.22966 -0.50815,0.36186c-0.13802,0.13993 -0.45747,0.23737 -0.95836,0.29233c-0.48834,0.06269 -0.8447,0.07254 -1.06907,0.02958l-0.19688,-0.01739c-0.37495,0.08924 -0.64058,0.00791 -0.7969,-0.24399c-0.32474,-0.10474 -0.53463,-0.31177 -0.62966,-0.62109c-0.2123,-0.21717 -0.09719,-0.45336 0.34533,-0.70858c-0.20075,0.10131 -0.35443,0.06294 -0.46105,-0.11513c-0.09649,-0.18048 -0.16716,-0.40994 -0.21201,-0.68837c0.19495,-0.03569 0.15732,-0.05885 -0.11291,-0.0695c-0.07959,-0.33441 -0.12226,-0.69366 -0.12801,-1.07777c0.16696,-0.01833 0.11511,-0.23619 -0.15556,-0.65361c0.08833,-0.21376 0.1132,-0.4017 0.07461,-0.56385c-0.1732,-0.32284 -0.23012,-0.65194 -0.17073,-0.9873c0.05939,-0.33536 0.06882,-0.61065 0.02831,-0.82586c-0.07523,-0.49606 -0.09787,-0.9511 -0.06791,-1.36512c-0.04823,-0.20267 -0.033,-0.54359 0.0457,-1.02274c0.08884,-0.48157 0.16438,-0.794 0.22664,-0.93731l0.39381,-0.63982l0.59212,-0.41396l0.18238,0.29389c0.1834,-0.35417 0.44664,-0.50783 0.78973,-0.46099c0.61041,0.09029 1.18051,0.2812 1.71032,0.5727c-0.25095,0.2953 -0.3605,0.48734 -0.32866,0.57613c0.03956,0.07624 0.07332,0.21812 0.10129,0.42561c-0.05695,0.12063 -0.08205,0.21762 -0.0753,0.29097zM293.18545,116.73525c-0.03376,-0.14187 -0.07523,-0.38362 -0.12442,-0.72527c-0.17756,-0.16119 -0.36522,-0.65726 -0.56298,-1.48821c-0.47368,-1.9003 -0.66491,-2.8613 -0.57371,-2.88301c0.10134,-0.02412 0.07504,-0.04463 -0.07889,-0.06153c-0.14621,-0.02945 -0.24343,-0.14551 -0.29166,-0.34818l-0.05788,-0.24321c-0.23783,-0.63939 -0.31669,-1.15065 -0.23654,-1.53378c-0.01928,-0.30593 0.07316,-0.54743 0.27729,-0.72451c0.12211,-0.29676 0.35544,-0.48612 0.69998,-0.56812c0.35467,-0.08441 0.57617,-0.12106 0.66448,-0.10995c0.2548,-0.18913 0.52575,-0.13048 0.81283,0.17597c0.04436,0.32138 0.09118,0.3156 0.14043,-0.01735l0.15778,0.12306c0.16503,-0.0714 0.3303,-0.05184 0.49581,0.05868c0.17322,0.09798 0.31507,0.28908 0.42555,0.5733l0.77428,2.241l0.10129,0.42561c0.08877,0.19302 0.15124,0.36555 0.18742,0.51755l-0.11592,1.20008l-0.10278,0.04053c-0.29093,-0.4126 -0.40309,-0.77138 -0.33647,-1.07634c0.06421,-0.3151 0.09559,-0.52065 0.09416,-0.61668c-0.02266,-0.23018 0.01258,-0.442 0.10574,-0.6355c0.02655,-0.1134 0.02657,-0.22583 0.00004,-0.33729c-0.02894,-0.1216 0.02874,-0.30666 0.17305,-0.55515c0.06759,-0.39085 0.14675,-0.68809 0.23749,-0.89172l0.0326,-0.20049c0.04441,-0.12835 0.07748,-0.25936 0.0992,-0.39302c0.18966,-0.23788 0.31562,-0.42847 0.37788,-0.57178l0.32286,-0.39807c0.19154,0.26493 0.22411,0.2893 0.09771,0.07311c-0.12882,-0.22632 0.1173,-0.42945 0.73835,-0.60938c0.36048,-0.15004 0.67461,-0.2248 0.94243,-0.22429c0.23307,-0.05547 0.4326,-0.04942 0.5986,0.01815l0.11291,0.0695l0.14404,-0.00216c0.54671,0.13758 0.97106,0.59337 1.27307,1.3674c0.27494,1.15523 0.49516,1.90054 0.66064,2.23593c0.35313,0.94389 0.74706,1.74422 1.18177,2.40101c0.4323,0.64665 0.79151,1.0537 1.07765,1.22117c0.66344,0.53809 0.92492,1.20934 0.78443,2.01373c-0.14723,0.50617 -0.40589,0.81401 -0.77601,0.92351c-0.35999,0.10709 -0.59933,0.15871 -0.71803,0.15483c-0.19254,0.04582 -0.31558,-0.02126 -0.36913,-0.20125c-0.22055,0.28806 -0.43867,0.36138 -0.65435,0.21998c-0.21281,0.05065 -0.44658,-0.05433 -0.70134,-0.31493c-0.80096,-0.66598 -1.27502,-1.08319 -1.42218,-1.2516c-0.13944,-0.18096 -0.2492,-0.30475 -0.3293,-0.37135c-0.06996,-0.06901 -0.12231,-0.1315 -0.15705,-0.18748c-0.03715,-0.06612 -0.09553,-0.15394 -0.17513,-0.26348c-0.04679,-0.10664 -0.14281,-0.21764 -0.28804,-0.33298c-0.1351,-0.11775 -0.17658,-0.24708 -0.12446,-0.38798c-0.13366,-0.02172 -0.17418,-0.12452 -0.12157,-0.30835c-0.22294,0.05306 -0.26467,-0.05479 -0.12518,-0.32356c-0.22632,0.12882 -0.4244,-0.00607 -0.59421,-0.40467l0.1984,-0.78604l0.0304,-0.00724c-0.24719,1.30091 -0.27336,2.60812 -0.07853,3.92162c0.03857,0.38701 0.05422,0.67774 0.04697,0.87221c-0.08107,0.01929 -0.00749,0.10351 0.22074,0.25264l0.06874,0.28881c0.05306,0.22294 -0.07339,0.56891 -0.37937,1.03792c-0.32717,0.10999 -0.52116,0.17222 -0.58196,0.18669l-0.2888,0.06873c-0.05306,-0.22294 -0.07236,-0.19157 -0.05791,0.09409c-0.10134,0.02412 -0.19664,0.07357 -0.28592,0.14836c-0.08687,0.08492 -0.25262,0.10831 -0.49727,0.07017c-0.33151,0.04678 -0.53635,0.0634 -0.61452,0.04988c-0.06804,-0.01593 -0.18167,-0.02101 -0.34091,-0.01523c-0.16165,-0.00436 -0.23981,-0.13031 -0.23447,-0.37785c-0.22006,0.24511 -0.40198,0.24557 -0.54576,0.0014c-0.61232,-0.36824 -0.97393,-0.78543 -1.08488,-1.25158l-0.03979,-0.1672l-0.06946,-0.22439c-0.03521,-0.23789 -0.10853,-0.45601 -0.21998,-0.65435zM301.85877,106.73669c-0.07284,-0.26106 -0.12832,-0.3817 -0.16644,-0.36192c-0.17949,-0.21427 -0.20746,-0.42176 -0.0839,-0.62249c0.13127,-0.21327 0.0391,-0.10567 -0.27653,0.3228c-0.12296,-0.96655 -0.0218,-1.64379 0.30347,-2.03172c0.333,-0.40048 0.86212,-0.60671 1.58738,-0.61871l0.89318,0.10866l0.74263,0.01599l0.14489,-1.41577c0.07386,-0.27456 0.10499,-0.45864 0.09342,-0.55226c-0.01157,-0.09362 -0.00504,-0.22366 0.01958,-0.39014c0.01836,-0.28276 0.04468,-0.48712 0.07895,-0.61306l0.00873,-0.43573c0.10379,-0.46371 0.39697,-0.80654 0.87953,-1.02845c0.30547,-0.20119 0.58294,-0.27258 0.83241,-0.21417c0.56459,-0.10225 1.12215,0.08093 1.67268,0.54954c0.05788,0.24321 0.08054,0.47339 0.06797,0.69053c-0.00243,0.21473 0.01226,0.47893 0.04408,0.79258l-0.4005,2.56878l-0.10564,-0.37639l0.70719,-0.20043c0.10616,-0.00385 0.16938,-0.00819 0.18964,-0.01301c0.33538,-0.16548 0.60586,-0.28874 0.81143,-0.36979c0.20557,-0.08105 0.37302,-0.14231 0.50234,-0.1838c0.06321,-0.00433 0.22922,-0.0492 0.498,-0.13458c0.27892,-0.08779 0.64107,-0.05085 1.08644,0.11085c0.45309,0.14915 0.7315,0.4416 0.83521,0.87734c0.10371,0.43575 -0.03965,0.82322 -0.43005,1.16241l-0.1752,0.41111c-0.30547,0.20119 -0.53372,0.38936 -0.68477,0.56452c-0.26542,0.23449 -1.13717,0.68824 -2.61526,1.36125l0.08534,0.83095c0.03473,0.05598 0.06899,0.15491 0.10275,0.29677c0.05928,0.78896 0.17115,1.73138 0.33559,2.82725c0.1095,0.37012 0.18234,0.63118 0.21852,0.78319l0.20621,0.86643c-0.25285,0.01734 -0.24972,0.0755 0.00939,0.17444c0.09647,0.40535 0.2629,0.8797 0.4993,1.42307c0.24653,0.54095 0.39174,0.88116 0.43564,1.02062c0.05162,0.12692 0.09914,0.28158 0.14255,0.46398c0.10515,0.53177 -0.07151,0.95929 -0.52995,1.28255c-0.69922,0.16641 -1.28069,0.19772 -1.7444,0.09393c-0.68521,0.0453 -0.88907,-0.1364 -0.61157,-0.54508c-0.21427,0.17949 -0.49003,0.10057 -0.8273,-0.23676c0.27121,-0.30012 0.37086,-0.28636 0.29893,0.04129c-0.35804,-0.06469 -0.42798,-0.35857 -0.20982,-0.88163c-0.27604,0.27985 -0.46302,0.28152 -0.56095,0.00501l-0.25256,-0.45386c-0.28034,-0.2331 -0.43544,-0.59236 -0.46531,-1.0778c0.10857,0.00628 0.07335,-0.00675 -0.10567,-0.0391l-0.07959,-0.33441c-0.04341,-0.18241 -0.04461,-0.2999 -0.00358,-0.3525c-0.22241,-0.43962 -0.36374,-1.01096 -0.42399,-1.71403c-0.06266,-0.7132 -0.10918,-1.17862 -0.13957,-1.39625c-0.08925,-0.15008 -0.10613,-0.33345 -0.05061,-0.5501c-0.02653,-0.11147 -0.04026,-0.34913 -0.04119,-0.71296l0.24333,-1.40707c0.03762,0.24803 0.01083,0.3829 -0.08038,0.4046c-1.18271,0.0245 -1.78299,-0.06821 -1.80082,-0.27811l-0.1607,0.13461c-0.1216,0.02894 -0.35998,-0.00534 -0.71511,-0.10284c-0.35756,-0.10764 -0.63596,-0.28765 -0.83523,-0.54004z" data-paper-data="{&quot;origPos&quot;:null,&quot;origRot&quot;:0}" fill="#c0c0c0" stroke-width="1" stroke-linecap="square"/></g></g></svg>