<svg version="1.1" xmlns="http://www.w3.org/2000/svg" xmlns:xlink="http://www.w3.org/1999/xlink" width="377.129" height="846.34613"><g transform="translate(-86.69642,57.83989)"><g data-paper-data="{&quot;isPaintingLayer&quot;:true}" fill="none" fill-rule="nonzero" stroke="none" stroke-width="none" stroke-linecap="butt" stroke-linejoin="miter" stroke-miterlimit="10" stroke-dasharray="" stroke-dashoffset="0" font-family="none" font-weight="none" font-size="none" text-anchor="none" style="mix-blend-mode: normal"><g data-paper-data="{&quot;origPos&quot;:null}"><path d="M253.3103,139.26268c0.78135,-43.21707 2.46599,-86.42642 3.93845,-129.61865c0.36813,-10.7986 0.37875,-21.59052 0.21298,-32.38135h130.16483c1.83637,13.12588 3.2009,26.36973 4.98359,39.44284c3.00009,20.57079 1.52787,41.88461 1.69526,62.64009c0.16107,19.97289 0.34106,39.94472 0.45348,59.91708z" data-paper-data="{&quot;origPos&quot;:null}" fill="#dbc19c" stroke="#b39d7f" stroke-width="10"/><path d="M253.3103,139.26268c0.78135,-43.21707 2.46599,-86.42642 3.93845,-129.61865c0.36813,-10.7986 0.37875,-21.59052 0.21298,-32.38135h130.16483c1.83637,13.12588 3.2009,26.36973 4.98359,39.44284c3.00009,20.57079 1.52787,41.88461 1.69526,62.64009c0.16107,19.97289 0.34106,39.94472 0.45348,59.91708z" data-paper-data="{&quot;origPos&quot;:null}" fill="#a4cf93" stroke="#6f8368" stroke-width="10"/><path d="M257.55159,-14.40399c-0.00648,-1.11113 -0.01533,-2.22224 -0.02634,-3.33333h130.77916c0.14618,1.11059 0.2898,2.22175 0.43139,3.33333z" data-paper-data="{&quot;origPos&quot;:null}" fill="#65815b" stroke="none" stroke-width="0"/><path d="M253.4857,130.26268c0.81364,-39.00912 2.30018,-78.01144 3.63922,-117h135.02531c0.15049,1.1488 0.3036,2.29647 0.45992,3.44284c3.00009,20.57079 1.52787,41.88461 1.69526,62.64009c0.13687,16.9728 0.28742,33.94483 0.39854,50.91708z" data-paper-data="{&quot;origPos&quot;:null}" fill="#9dc78d" stroke="none" stroke-width="0"/><path d="M256.99602,282.46269c0.39954,-69.0129 1.68908,-138.01699 3.04851,-207h138.44983c0.13578,20.73059 -0.28247,41.55435 -0.18895,62.06978c0.22021,48.31119 0.47578,96.61889 0.5457,144.93022z" data-paper-data="{&quot;origPos&quot;:null}" fill="#97be87" stroke="none" stroke-width="0"/><path d="M315,-3.19999c0,-2.76142 2.23858,-5 5,-5c2.76142,0 5,2.23858 5,5c0,2.76142 -2.23858,5 -5,5c-2.76142,0 -5,-2.23858 -5,-5z" data-paper-data="{&quot;origPos&quot;:null}" fill="#9dc78d" stroke="none" stroke-width="0.5"/></g><g data-paper-data="{&quot;origPos&quot;:null}"><path d="M109.3103,215.26268c0.78135,-43.21707 2.46599,-86.42642 3.93845,-129.61865c0.36813,-10.7986 0.37875,-21.59052 0.21298,-32.38135h130.16483c1.83637,13.12588 3.2009,26.36973 4.98359,39.44284c3.00009,20.57079 1.52787,41.88461 1.69526,62.64009c0.16107,19.97289 0.34106,39.94472 0.45348,59.91708z" data-paper-data="{&quot;origPos&quot;:null}" fill="#dbc19c" stroke="#b39d7f" stroke-width="10"/><path d="M109.3103,215.26268c0.78135,-43.21707 2.46599,-86.42642 3.93845,-129.61865c0.36813,-10.7986 0.37875,-21.59052 0.21298,-32.38135h130.16483c1.83637,13.12588 3.2009,26.36973 4.98359,39.44284c3.00009,20.57079 1.52787,41.88461 1.69526,62.64009c0.16107,19.97289 0.34106,39.94472 0.45348,59.91708z" data-paper-data="{&quot;origPos&quot;:null}" fill="#a4cf93" stroke="#6f8368" stroke-width="10"/><path d="M113.55159,61.59601c-0.00648,-1.11113 -0.01533,-2.22224 -0.02634,-3.33333h130.77916c0.14618,1.11059 0.2898,2.22175 0.43139,3.33333z" data-paper-data="{&quot;origPos&quot;:null}" fill="#65815b" stroke="none" stroke-width="0"/><path d="M109.4857,206.26268c0.81364,-39.00912 2.30018,-78.01144 3.63922,-117h135.02531c0.15049,1.1488 0.3036,2.29647 0.45992,3.44284c3.00009,20.57079 1.52787,41.88461 1.69526,62.64009c0.13687,16.9728 0.28742,33.94483 0.39854,50.91708z" data-paper-data="{&quot;origPos&quot;:null}" fill="#9dc78d" stroke="none" stroke-width="0"/><path d="M112.99602,358.46271c0.39954,-69.0129 1.68908,-138.01699 3.04851,-207h138.44983c0.13578,20.73059 -0.28247,41.55435 -0.18895,62.06978c0.22021,48.31119 0.47578,96.61889 0.5457,144.93022z" data-paper-data="{&quot;origPos&quot;:null}" fill="#97be87" stroke="none" stroke-width="0"/><path d="M171,72.80002c0,-2.76142 2.23858,-5 5,-5c2.76142,0 5,2.23858 5,5c0,2.76142 -2.23858,5 -5,5c-2.76142,0 -5,-2.23858 -5,-5z" data-paper-data="{&quot;origPos&quot;:null}" fill="#9dc78d" stroke="none" stroke-width="0.5"/></g><g data-paper-data="{&quot;origPos&quot;:null,&quot;index&quot;:null,&quot;origRot&quot;:0}" stroke="none" stroke-width="0"><path d="M228.77925,106.39073l-0.24616,-150.52227l20.70124,11.45643l16.02378,-13.91043l16.13011,2.36757l0.24616,150.52227z" data-paper-data="{&quot;origPos&quot;:null,&quot;origRot&quot;:0}" fill="#696053"/><path d="M249.23434,-32.67511l16.02378,-13.91043l16.13011,2.36756l0.24616,150.52227z" data-paper-data="{&quot;origPos&quot;:null,&quot;origRot&quot;:0}" fill="#696053"/><path d="M220.94258,95.13638l-0.24616,-150.52227l20.70124,11.45643l16.02378,-13.91043l16.13011,2.36757l0.24616,150.52227z" data-paper-data="{&quot;origPos&quot;:null,&quot;origRot&quot;:0}" fill="#8b7f6e"/><path d="M241.39767,-43.92946l16.02378,-13.91043l16.13011,2.36756l0.24616,150.52227z" data-paper-data="{&quot;origPos&quot;:null,&quot;origRot&quot;:0}" fill="#817666"/><path d="M228.39919,239.77401l-0.24616,-150.52227l20.70124,11.45643l16.02378,-13.91043l16.13011,2.36757l0.24616,150.52227z" data-paper-data="{&quot;origPos&quot;:null,&quot;origRot&quot;:0}" fill="#696053"/><path d="M248.85428,100.70814l16.02378,-13.91043l16.13011,2.36756l0.24616,150.52227z" data-paper-data="{&quot;origPos&quot;:null,&quot;origRot&quot;:0}" fill="#696053"/><path d="M228.76972,368.11381l-0.24616,-150.52227l20.70124,11.45643l16.02378,-13.91043l16.13011,2.36757l0.24616,150.52227z" data-paper-data="{&quot;origPos&quot;:null,&quot;origRot&quot;:0}" fill="#696053"/><path d="M249.22481,229.04796l16.02378,-13.91043l16.13011,2.36756l0.24616,150.52227z" data-paper-data="{&quot;origPos&quot;:null,&quot;origRot&quot;:0}" fill="#696053"/><path d="M221.59889,356.82636l-0.24616,-150.52227l20.70124,11.45643l16.02378,-13.91043l16.13011,2.36757l0.24616,150.52227z" data-paper-data="{&quot;origPos&quot;:null,&quot;origRot&quot;:0}" fill="#8b7f6e"/><path d="M221.22836,228.48655l-0.24616,-150.52227l20.70124,11.45643l16.02378,-13.91043l16.13011,2.36757l0.24616,150.52227z" data-paper-data="{&quot;origPos&quot;:null,&quot;origRot&quot;:0}" fill="#8b7f6e"/></g><path d="M249.4349,293.71724l16.02378,-13.91043l16.13011,2.36756l0.24616,150.52227z" data-paper-data="{&quot;origPos&quot;:null,&quot;origRot&quot;:0}" fill="#696053" stroke="none" stroke-width="0"/><path d="M221.89313,421.52872l-0.24616,-150.52227l20.70124,11.45643l16.02378,-13.91043l16.13011,2.36757l0.24616,150.52227z" data-paper-data="{&quot;origPos&quot;:null,&quot;origRot&quot;:0}" fill="#8b7f6e" stroke="none" stroke-width="0"/><path d="M229.34974,566.16636l-0.24616,-150.52227l20.70124,11.45643l16.02378,-13.91043l16.13011,2.36757l0.24616,150.52227z" data-paper-data="{&quot;origPos&quot;:null,&quot;origRot&quot;:0}" fill="#696053" stroke="none" stroke-width="0"/><path d="M249.80483,427.10049l16.02378,-13.91043l16.13011,2.36756l0.24616,150.52227z" data-paper-data="{&quot;origPos&quot;:null,&quot;origRot&quot;:0}" fill="#696053" stroke="none" stroke-width="0"/><path d="M229.72027,694.50616l-0.24616,-150.52227l20.70124,11.45643l16.02378,-13.91043l16.13011,2.36757l0.24616,150.52227z" data-paper-data="{&quot;origPos&quot;:null,&quot;origRot&quot;:0}" fill="#696053" stroke="none" stroke-width="0"/><path d="M250.17537,555.44032l16.02378,-13.91043l16.13011,2.36756l0.24616,150.52227z" data-paper-data="{&quot;origPos&quot;:null,&quot;origRot&quot;:0}" fill="#696053" stroke="none" stroke-width="0"/><path d="M222.54945,683.21871l-0.24616,-150.52227l20.70124,11.45643l16.02378,-13.91043l16.13011,2.36757l0.24616,150.52227z" data-paper-data="{&quot;origPos&quot;:null,&quot;origRot&quot;:0}" fill="#8b7f6e" stroke="none" stroke-width="0"/><path d="M222.17891,554.87891l-0.24616,-150.52227l20.70124,11.45643l16.02378,-13.91043l16.13011,2.36757l0.24616,150.52227z" data-paper-data="{&quot;origPos&quot;:null,&quot;origRot&quot;:0}" fill="#8b7f6e" stroke="none" stroke-width="0"/><g data-paper-data="{&quot;origPos&quot;:null}" stroke="none" stroke-width="0"><g data-paper-data="{&quot;origPos&quot;:null,&quot;index&quot;:null,&quot;origRot&quot;:0}"><path d="M86.89699,192.30431l0.24616,-150.52227l16.13011,-2.36757l16.02378,13.91043l20.70124,-11.45643l-0.24616,150.52227z" data-paper-data="{&quot;origPos&quot;:null,&quot;origRot&quot;:0}" fill="#696053"/><path d="M86.89698,192.30431l0.24616,-150.52227l16.13011,-2.36756l16.02378,13.91043z" data-paper-data="{&quot;origPos&quot;:null,&quot;origRot&quot;:0}" fill="#696053"/><path d="M94.73366,181.04995l0.24616,-150.52227l16.13011,-2.36757l16.02378,13.91043l20.70124,-11.45643l-0.24616,150.52227z" data-paper-data="{&quot;origPos&quot;:null,&quot;origRot&quot;:0}" fill="#8b7f6e"/><path d="M94.73365,181.04993l0.24616,-150.52227l16.13011,-2.36756l16.02378,13.91043z" data-paper-data="{&quot;origPos&quot;:null,&quot;origRot&quot;:0}" fill="#817666"/><path d="M87.27705,325.68756l0.24616,-150.52227l16.13011,-2.36757l16.02378,13.91043l20.70124,-11.45643l-0.24616,150.52227z" data-paper-data="{&quot;origPos&quot;:null,&quot;origRot&quot;:0}" fill="#696053"/><path d="M87.27704,325.68753l0.24616,-150.52227l16.13011,-2.36756l16.02378,13.91043z" data-paper-data="{&quot;origPos&quot;:null,&quot;origRot&quot;:0}" fill="#696053"/><path d="M86.90652,454.02737l0.24616,-150.52227l16.13011,-2.36757l16.02378,13.91043l20.70124,-11.45643l-0.24616,150.52227z" data-paper-data="{&quot;origPos&quot;:null,&quot;origRot&quot;:0}" fill="#696053"/><path d="M86.90651,454.02737l0.24616,-150.52227l16.13011,-2.36756l16.02378,13.91043z" data-paper-data="{&quot;origPos&quot;:null,&quot;origRot&quot;:0}" fill="#696053"/><path d="M94.07735,442.73991l0.24616,-150.52227l16.13011,-2.36757l16.02378,13.91043l20.70124,-11.45643l-0.24616,150.52227z" data-paper-data="{&quot;origPos&quot;:null,&quot;origRot&quot;:0}" fill="#8b7f6e"/><path d="M94.44788,314.40011l0.24616,-150.52227l16.13011,-2.36757l16.02378,13.91043l20.70124,-11.45643l-0.24616,150.52227z" data-paper-data="{&quot;origPos&quot;:null,&quot;origRot&quot;:0}" fill="#8b7f6e"/></g><g data-paper-data="{&quot;origPos&quot;:null,&quot;index&quot;:null,&quot;origRot&quot;:0}"><path d="M86.69644,518.69666l0.24616,-150.52227l16.13011,-2.36757l16.02378,13.91043l20.70124,-11.45643l-0.24616,150.52227z" data-paper-data="{&quot;origPos&quot;:null,&quot;origRot&quot;:0}" fill="#696053"/><path d="M86.69642,518.69666l0.24616,-150.52227l16.13011,-2.36756l16.02378,13.91043z" data-paper-data="{&quot;origPos&quot;:null,&quot;origRot&quot;:0}" fill="#696053"/><path d="M94.53311,507.44231l0.24616,-150.52227l16.13011,-2.36757l16.02378,13.91043l20.70124,-11.45643l-0.24616,150.52227z" data-paper-data="{&quot;origPos&quot;:null,&quot;origRot&quot;:0}" fill="#8b7f6e"/><path d="M94.5331,507.44228l0.24616,-150.52227l16.13011,-2.36756l16.02378,13.91043z" data-paper-data="{&quot;origPos&quot;:null,&quot;origRot&quot;:0}" fill="#817666"/><path d="M87.0765,652.07992l0.24616,-150.52227l16.13011,-2.36757l16.02378,13.91043l20.70124,-11.45643l-0.24616,150.52227z" data-paper-data="{&quot;origPos&quot;:null,&quot;origRot&quot;:0}" fill="#696053"/><path d="M87.07649,652.07991l0.24616,-150.52227l16.13011,-2.36756l16.02378,13.91043z" data-paper-data="{&quot;origPos&quot;:null,&quot;origRot&quot;:0}" fill="#696053"/><path d="M86.70597,780.41973l0.24616,-150.52227l16.13011,-2.36757l16.02378,13.91043l20.70124,-11.45643l-0.24616,150.52227z" data-paper-data="{&quot;origPos&quot;:null,&quot;origRot&quot;:0}" fill="#696053"/><path d="M86.70595,780.41972l0.24616,-150.52227l16.13011,-2.36756l16.02378,13.91043z" data-paper-data="{&quot;origPos&quot;:null,&quot;origRot&quot;:0}" fill="#696053"/><path d="M93.87679,769.13228l0.24616,-150.52227l16.13011,-2.36757l16.02378,13.91043l20.70124,-11.45643l-0.24616,150.52227z" data-paper-data="{&quot;origPos&quot;:null,&quot;origRot&quot;:0}" fill="#8b7f6e"/><path d="M94.24733,640.79248l0.24616,-150.52227l16.13011,-2.36757l16.02378,13.91043l20.70124,-11.45643l-0.24616,150.52227z" data-paper-data="{&quot;origPos&quot;:null,&quot;origRot&quot;:0}" fill="#8b7f6e"/></g></g><path d="M410.97027,788.50624l-0.24616,-150.52227l20.70124,11.45643l16.02378,-13.91043l16.13011,2.36757l0.24616,150.52227z" data-paper-data="{&quot;origPos&quot;:null,&quot;origRot&quot;:0}" fill="#696053" stroke="none" stroke-width="0"/><path d="M431.42537,649.44035l16.02378,-13.91043l16.13011,2.36756l0.24616,150.52227z" data-paper-data="{&quot;origPos&quot;:null,&quot;origRot&quot;:0}" fill="#696053" stroke="none" stroke-width="0"/><path d="M403.79945,777.21879l-0.24616,-150.52227l20.70124,11.45643l16.02378,-13.91043l16.13011,2.36757l0.24616,150.52227z" data-paper-data="{&quot;origPos&quot;:null,&quot;origRot&quot;:0}" fill="#8b7f6e" stroke="none" stroke-width="0"/></g></g></svg>