<svg version="1.1" xmlns="http://www.w3.org/2000/svg" xmlns:xlink="http://www.w3.org/1999/xlink" width="960" height="720"><defs><clipPath id="clip-1"><path d="M-24,-78h960v720h-960z" data-paper-data="{&quot;origPos&quot;:null}" id="p.0" fill="none" fill-rule="nonzero" stroke-width="1" stroke-linecap="square"/></clipPath></defs><g transform="translate(24,78)"><g clip-path="url(#clip-1)" data-paper-data="{&quot;isPaintingLayer&quot;:true}" fill="none" fill-rule="none" stroke="none" stroke-width="none" stroke-linecap="none" stroke-linejoin="miter" stroke-miterlimit="10" stroke-dasharray="" stroke-dashoffset="0" font-family="none" font-weight="none" font-size="none" text-anchor="none" style="mix-blend-mode: normal"><path d="M-24,-78h960v720h-960z" data-paper-data="{&quot;origPos&quot;:null}" fill-opacity="0" fill="#000000" fill-rule="evenodd" stroke-width="1" stroke-linecap="square"/><path d="M-3.79003,-55.74803h924.8504v691.9685h-924.8504z" data-paper-data="{&quot;origPos&quot;:null}" fill-opacity="0" fill="#000000" fill-rule="evenodd" stroke-width="1" stroke-linecap="square"/><path d="M12.89747,171.58635c-0.11458,0.11458 -0.54687,0.17188 -1.29687,0.17188c-0.51042,0.10417 -1.11458,0.02083 -1.8125,-0.25l-0.57812,-0.1875l-0.73437,-0.42187c0.04167,-0.1875 0.03646,-0.19792 -0.01562,-0.03125c-0.05208,0.17708 -0.21354,0.14583 -0.48437,-0.09375c-0.05208,-0.04167 -0.14583,-0.08854 -0.28125,-0.14062c-0.44792,-0.3125 -0.76562,-0.59375 -0.95312,-0.84375c-0.625,-1.01042 -0.9375,-1.86979 -0.9375,-2.57812c0,-0.21875 0.13542,-0.46875 0.40625,-0.75c0.45833,-0.55208 1.04167,-0.82812 1.75,-0.82812c0.35417,0.02083 0.65104,0.15104 0.89062,0.39063l0.89063,1.15625c0.11458,0.10417 0.26042,0.23438 0.4375,0.39063l0.34375,0.375l0.46875,0.375c-0.0625,0.03125 -0.04687,0.02083 0.04688,-0.03125c0.10417,0.05208 0.24479,0.09375 0.42188,0.125c0.26042,-0.0625 0.46875,-0.13021 0.625,-0.20312c0.125,-0.125 0.24479,-0.22917 0.35938,-0.3125l0.32813,-0.35937c-0.01042,0.01042 0.01042,-0.05208 0.0625,-0.1875c0,-0.1875 0.00521,-0.3125 0.01563,-0.375c0.01042,-0.0625 -0.01562,-0.22396 -0.07812,-0.48437c0.11458,-0.01042 0.01563,-0.09896 -0.29687,-0.26562c-0.11458,-0.22917 -0.25,-0.44792 -0.40625,-0.65625c-0.05208,-0.04167 -0.52083,-0.28125 -1.40625,-0.71875l-0.5625,-0.34375l-0.4375,-0.375c-0.23958,-0.07292 -0.58854,-0.33854 -1.04687,-0.79687c-0.15625,-0.10417 -0.26042,-0.17708 -0.3125,-0.21875c-0.15625,-0.0625 -0.54687,-0.45833 -1.17187,-1.1875c0.17708,-0.13542 0.03646,-0.47917 -0.42187,-1.03125l-0.29687,-1.21875l0.10938,-0.6875c-0.10417,-0.44792 -0.13021,-0.86979 -0.07812,-1.26562c0.10417,-0.13542 0.1875,-0.29167 0.25,-0.46875c-0.08333,-0.3125 0.17708,-0.875 0.78125,-1.6875c-0.03125,-0.15625 0.41667,-0.68229 1.34375,-1.57812l1,-0.51562l0.51563,-0.25c0.21875,-0.01042 0.46875,-0.03125 0.75,-0.0625c0.29167,-0.04167 0.74479,-0.04167 1.35938,0c0.625,0.04167 1.03646,0.13021 1.23438,0.26563c0.125,0.05208 0.50521,0.3125 1.14063,0.78125c0.89583,0.78125 1.38542,1.5 1.46875,2.15625c0.32292,0.97917 0.34375,2.01563 0.0625,3.10938c0,0.26042 -0.39583,0.5625 -1.1875,0.90625l-0.8125,-0.03125c-0.70833,-0.09375 -1.34896,-0.42708 -1.92187,-1c-0.25,-0.15625 -0.42708,-0.52604 -0.53125,-1.10937c0.02083,-0.27083 0.02604,-0.39062 0.01563,-0.35937c-0.125,-0.07292 -0.27083,-0.29687 -0.4375,-0.67187c-0.15625,-0.21875 -0.21875,-0.32812 -0.1875,-0.32812c0.03125,0 0.04167,0 0.03125,0c-0.47917,0.38542 -0.72917,0.83333 -0.75,1.34375c-0.10417,0.40625 0.03125,0.91146 0.40625,1.51563c-0.0625,0.36458 0.01563,0.42188 0.23438,0.17188c0.17708,0.32292 0.39583,0.59896 0.65625,0.82813l0.375,0.39063l1.09375,0.8125l0.4375,0.4375l0.42188,0.26563c0.30208,0.13542 0.60417,0.32292 0.90625,0.5625c0.39583,0.29167 0.86979,0.82813 1.42188,1.60938c0.14583,0.21875 0.32292,0.78125 0.53125,1.6875v1.17188l-0.1875,0.84375c-0.11458,0.10417 -0.32292,0.19271 -0.625,0.26563c0.25,0.07292 0.25521,0.38021 0.01563,0.92188c-0.09375,0.17708 -0.34896,0.43229 -0.76562,0.76563c-0.59375,0.45833 -1.25521,0.80208 -1.98437,1.03125c-0.19792,0.0625 -0.40104,0.08854 -0.60937,0.07813zM19.94418,153.03948c1.33333,0 2.34896,0.34896 3.04688,1.04688c0,0.52083 -0.21354,1.26563 -0.64062,2.23438c-0.08333,0.36458 -0.23958,0.67188 -0.46875,0.92188l-0.40625,0.40625c-0.20833,0.125 -0.38542,0.1875 -0.53125,0.1875c-0.8125,0.20833 -1.47917,0.01563 -2,-0.57812c-0.04167,-0.05208 -0.13021,-0.11458 -0.26562,-0.1875c-0.125,-0.07292 -0.22396,-0.29167 -0.29687,-0.65625c-0.17708,-0.27083 -0.26562,-0.51562 -0.26562,-0.73437c-0.05208,-1.35417 0.49479,-2.23437 1.64063,-2.64062zM19.5848,159.33635c0.25,-0.13542 0.81771,-0.02083 1.70313,0.34375c0.08333,0.08333 0.1875,0.15625 0.3125,0.21875l0.48438,0.40625c0.19792,0.19792 0.29688,0.44792 0.29688,0.75v2.34375c0,0.375 -0.02083,0.70833 -0.0625,1v0.14063c-0.05208,0.71875 -0.00521,2.33854 0.14063,4.85938c0.08333,0.77083 -0.18229,1.27083 -0.79687,1.5c-0.5,0 -0.83854,-0.07292 -1.01562,-0.21875c0.09375,-0.14583 0.14063,-0.13542 0.14063,0.03125h-0.07812l-0.15625,0.0625c-0.21875,0 -0.44271,-0.0625 -0.67187,-0.1875c-0.22917,-0.13542 -0.33333,-0.27083 -0.3125,-0.40625c0.03125,-0.13542 0.01563,-0.11979 -0.04687,0.04688c-0.45833,-0.16667 -0.70312,-0.42708 -0.73437,-0.78125c-0.25,-0.47917 -0.38021,-0.76562 -0.39062,-0.85937c-0.01042,-0.09375 -0.04167,-0.19271 -0.09375,-0.29687l-0.14062,-2.45312c0,-0.32292 0.02083,-0.55729 0.0625,-0.70312v-0.57812c0.01042,-0.20833 0.02604,-0.57292 0.04688,-1.09375c0.02083,-0.52083 0.04688,-0.93229 0.07813,-1.23437c-0.03125,-0.44792 -0.04687,-0.76042 -0.04687,-0.9375c0,-0.17708 0.10938,-0.26562 0.32813,-0.26562c-0.48958,-0.20833 -0.53646,-0.625 -0.14062,-1.25c0.375,-0.29167 0.73438,-0.4375 1.07813,-0.4375zM30.6045,169.28948l-0.51562,-0.28125l-0.28125,-1.8125c-0.10417,-0.36458 -0.15625,-0.71354 -0.15625,-1.04687l0.10938,-1.17187c0,-0.32292 0.17708,-0.41667 0.53125,-0.28125c-0.01042,0.35417 -0.16667,0.71354 -0.46875,1.07813c-0.02083,0.03125 -0.06771,0.10938 -0.14062,0.23438c-0.70833,1.11458 -1.13021,2.49479 -1.26562,4.14063c-0.27083,0.57292 -0.65625,0.85938 -1.15625,0.85938c-0.47917,-0.10417 -0.70833,-0.15625 -0.6875,-0.15625l-0.1875,0.03125h-0.42187c-0.64583,-0.0625 -1.06771,-0.31771 -1.26562,-0.76562c-0.10417,-0.15625 -0.15625,-0.47396 -0.15625,-0.95312v-0.35937l-0.09375,-1.46875v-2.20312c0,-0.23958 -0.01562,-0.53646 -0.04687,-0.89062c-0.03125,-0.42708 -0.04167,-1.05729 -0.03125,-1.89062c0.02083,-0.84375 0.01042,-1.29687 -0.03125,-1.35937c-0.03125,-0.0625 -0.04687,-0.1875 -0.04687,-0.375c0,-0.19792 0.05208,-0.40625 0.15625,-0.625c0.10417,-0.21875 0.42708,-0.40625 0.96875,-0.5625c0.29167,-0.16667 0.58333,-0.25 0.875,-0.25c0.3125,0.0625 0.66146,0.17188 1.04688,0.32813c0.53125,0.10417 0.79688,0.53646 0.79688,1.29688c0.03125,0.78125 0.03125,1.34375 0,1.6875c-0.02083,0.33333 -0.07812,0.48958 -0.17187,0.46875c0.8125,-1.75 1.76042,-2.90104 2.84375,-3.45312c0.15625,-0.14583 0.39063,-0.21875 0.70313,-0.21875c0.32292,0 0.61979,0.10417 0.89063,0.3125c0.27083,0.20833 0.45313,0.34375 0.54688,0.40625c0.10417,0.05208 0.20833,0.14063 0.3125,0.26563c0.11458,0.11458 0.22396,0.19271 0.32813,0.23438c0.33333,0.5625 0.43229,1.5625 0.29688,3c-0.01042,0.1875 -0.02604,0.35417 -0.04687,0.5c-0.02083,0.14583 -0.03125,0.45833 -0.03125,0.9375c0,0.47917 0.01042,0.8125 0.03125,1c0.05208,0.63542 0.07813,1.00521 0.07813,1.10938l0.125,0.89063c0.1875,0.42708 0.28125,0.74479 0.28125,0.95313c0.01042,0.20833 0.14583,0.51563 0.40625,0.92188c0.26042,0.57292 0.14063,1.03125 -0.35937,1.375c-0.61458,0.3125 -0.92708,0.375 -0.9375,0.1875c0,-0.17708 -0.06771,-0.17708 -0.20312,0c-0.13542,0.17708 -0.48437,0.25 -1.04687,0.21875c-0.375,-0.08333 -0.71354,-0.28646 -1.01562,-0.60937l-0.42187,-0.42187c-0.20833,-0.30208 -0.33333,-0.55729 -0.375,-0.76562c-0.25,-0.23958 -0.17187,-0.41146 0.23438,-0.51562zM39.6742,165.19573c-0.08333,0.41667 -0.14583,0.83333 -0.1875,1.25c0,0.67708 0.0625,1.14063 0.1875,1.39063c0.10417,0.09375 0.16667,0.17188 0.1875,0.23438c0.03125,0.05208 -0.05729,0.13021 -0.26562,0.23438c-0.08333,-0.21875 -0.08854,-0.40625 -0.01562,-0.5625l0.73438,-1.26562c0.36458,-1 0.66667,-1.76562 0.90625,-2.29687c0,-0.02083 0.00521,-0.21875 0.01563,-0.59375c0.01042,-0.375 -0.10417,-0.69792 -0.34375,-0.96875c-0.21875,-0.19792 -0.36979,-0.38542 -0.45312,-0.5625c-0.08333,-0.1875 -0.14583,-0.29687 -0.1875,-0.32812c0.05208,-0.02083 0.03646,0.13542 -0.04687,0.46875c0,0.29167 -0.05208,0.57292 -0.15625,0.84375c-0.15625,0.39583 -0.23438,0.73958 -0.23438,1.03125c-0.09375,0.39583 -0.14062,0.77083 -0.14062,1.125zM45.51796,162.96135c0,0.40625 0.04167,0.82813 0.125,1.26563c0,0.15625 0.05729,0.71354 0.17188,1.67188c0.125,0.94792 0.1875,1.82813 0.1875,2.64063c0,1.86458 -0.15104,3.27604 -0.45312,4.23438c-0.05208,0.35417 -0.1875,0.69792 -0.40625,1.03125c-0.21875,0.33333 -0.29167,0.54688 -0.21875,0.64063c-0.16667,0.30208 -0.54167,0.82292 -1.125,1.5625l-0.45312,0.42188c-0.14583,-0.29167 -0.20833,-0.23958 -0.1875,0.15625c-0.80208,0.47917 -1.5625,0.71875 -2.28125,0.71875c-0.71875,0 -1.31771,-0.33854 -1.79688,-1.01562c-0.11458,0.32292 -0.41146,0.3125 -0.89062,-0.03125c-0.32292,-0.11458 -0.57812,-0.47917 -0.76562,-1.09375c-0.03125,-0.22917 -0.04687,-0.56771 -0.04687,-1.01562c0.36458,0.3125 0.41667,0.27083 0.15625,-0.125c0.04167,-0.11458 0.125,-0.29167 0.25,-0.53125c0.17708,-0.60417 0.63021,-0.84375 1.35938,-0.71875c0.30208,0.02083 0.55208,0.10938 0.75,0.26563c0.11459,0.10417 0.27605,0.375 0.48438,0.8125c0.09375,0.25 0.125,0.41667 0.09375,0.5c-0.02083,0.09375 -0.03646,0.0625 -0.04687,-0.09375c0.15625,-0.01042 0.33333,-0.21875 0.53125,-0.625c0.1875,0.09375 0.26563,0.02604 0.23438,-0.20312c0.375,-0.44792 0.58333,-0.96875 0.625,-1.5625c0,-0.07292 0.01563,-0.39583 0.04688,-0.96875v-0.73437c-0.03125,-0.47917 -0.02083,-1.11458 0.03125,-1.90625c0,-0.4375 0.15104,-0.67708 0.45313,-0.71875c0.25,0.20833 0.07292,0.89063 -0.53125,2.04688l-0.26562,0.35938c-0.39583,0.57292 -0.98438,0.92188 -1.76563,1.04688c-0.16667,-0.11458 -0.375,-0.17187 -0.625,-0.17187h-0.1875c-0.73958,-0.08333 -1.27083,-0.24479 -1.59375,-0.48437c-0.34375,-0.13542 -0.61979,-0.38542 -0.82812,-0.75l-0.4375,-0.5625c0.09375,-0.125 0.08854,-0.21875 -0.01562,-0.28125c-0.09375,-0.0625 -0.15104,-0.10937 -0.17187,-0.14062c-0.02083,-0.03125 -0.06771,-0.10937 -0.14062,-0.23437c-0.07292,-0.125 -0.14583,-0.48958 -0.21875,-1.09375c-0.08333,-0.9375 -0.0625,-1.63021 0.0625,-2.07812c0,-0.35417 0.02604,-0.63542 0.07813,-0.84375c0,-0.47917 0.0625,-0.96875 0.1875,-1.46875c0,-0.22917 0.08333,-0.69271 0.25,-1.39062c0.21875,-0.52083 0.36458,-0.84896 0.4375,-0.98437l0.4375,-0.65625c0.17708,-0.21875 0.33333,-0.39583 0.46875,-0.53125c0.13542,-0.14583 0.34896,-0.26562 0.64063,-0.35937l0.28125,-0.1875l0.53125,-0.14062c0.42708,-0.13542 0.95833,-0.10417 1.59375,0.09375c0.25,0 0.48958,0.08333 0.71875,0.25c0.33333,0.11458 0.54688,0.19792 0.64063,0.25c0.10417,0.04167 0.11979,0.13542 0.04688,0.28125c-0.03125,-0.29167 0.125,-0.5 0.46875,-0.625c0.15625,-0.08333 0.48438,-0.09375 0.98438,-0.03125c0.0625,0.03125 0.13542,0.04167 0.21875,0.03125c0.6875,-0.05208 1.16667,0.30208 1.4375,1.0625c0.11458,0.47917 0.21875,1.13542 0.3125,1.96875zM51.13638,152.39885l0.75,-0.15625c0.59375,0.0625 1.0625,0.22917 1.40625,0.5c0.34375,0.27083 0.49479,0.64063 0.45313,1.10938c-0.27083,0.92708 -0.48437,1.85938 -0.64062,2.79688v0.375c-0.0625,0.875 -0.15625,1.60938 -0.28125,2.20313l-0.64062,6.01563v1.8125c-0.02083,1.36458 0.05208,2.44271 0.21875,3.23438l0.0625,0.39063c-0.02083,0.51042 -0.26562,0.82813 -0.73437,0.95313c-0.46875,0.125 -0.77083,0.17188 -0.90625,0.14063c-0.13542,-0.02083 -0.27083,-0.05208 -0.40625,-0.09375l-0.76562,-0.28125c-0.36458,-0.1875 -0.73437,-0.48437 -1.10937,-0.89062c-0.375,-0.36458 -0.44271,-0.63542 -0.20312,-0.8125c-0.16667,0.02083 -0.32812,-0.79167 -0.48437,-2.4375c0.04167,-0.33333 0.0625,-0.59896 0.0625,-0.79687v-0.45312c0,-0.36458 0.00521,-0.625 0.01563,-0.78125c0,-0.05208 0.02083,-0.27604 0.0625,-0.67187c0.08333,-1.03125 0.13542,-1.58854 0.15625,-1.67187v-0.35937c0,-1.10417 0.08333,-1.95312 0.25,-2.54687c-0.02083,-0.09375 -0.03125,-0.27083 -0.03125,-0.53125c0.17708,-0.32292 0.23958,-0.98958 0.1875,-2c0.3125,-1.09375 0.49479,-1.83333 0.54688,-2.21875c0.05208,-0.38542 0.125,-0.66667 0.21875,-0.84375c0,-0.36458 0.18229,-0.75521 0.54688,-1.17187c0.375,-0.42708 0.79688,-0.69792 1.26563,-0.8125zM59.46495,160.77385c0.20833,-0.13542 0.28646,-0.13542 0.23438,0c-0.05208,0.125 -0.08854,0.20833 -0.10937,0.25c-0.67708,1.07292 -1.03646,2.06771 -1.07812,2.98438c0.0625,0.01042 0.22396,-0.1875 0.48438,-0.59375c0.47917,-1.52083 0.63542,-2.40104 0.46875,-2.64062zM57.82432,171.64885l-0.48437,-0.07812l-0.26562,-0.51562c-0.21875,0.11458 -0.39583,0.04688 -0.53125,-0.20312c-0.17708,-0.20833 -0.55208,-0.6875 -1.125,-1.4375l-0.4375,-1.64062c0,-0.25 -0.04167,-0.46354 -0.125,-0.64062c-0.19792,-0.83333 -0.31771,-1.31771 -0.35937,-1.45312c-0.03125,-0.13542 -0.05208,-0.48958 -0.0625,-1.0625c-0.01042,-0.57292 0.01563,-1 0.07813,-1.28125c0.05208,-0.38542 0.40625,-1.30208 1.0625,-2.75c0.125,-0.11458 0.19792,-0.28125 0.21875,-0.5l0.51563,-0.75c0.45833,-0.53125 0.99479,-0.77604 1.60938,-0.73437c-0.3125,-0.29167 -0.01562,-0.54687 0.89063,-0.76562c0.21875,-0.01042 0.57813,0.04167 1.07813,0.15625c1.19792,0.28125 1.97396,0.66667 2.32813,1.15625l0.07813,0.14063c0.39583,0.55208 0.625,1.39583 0.6875,2.53125c-0.05208,0.46875 -0.09896,0.86979 -0.14062,1.20313c-0.04167,0.32292 -0.25521,0.91667 -0.64062,1.78125c-0.29167,0.55208 -0.58854,1.01042 -0.89062,1.375c-0.52083,0.375 -0.86979,0.53646 -1.04687,0.48438c-0.0625,0.09375 -0.25521,0.14063 -0.57812,0.14063h-0.71875c-0.03125,-0.11458 -0.14062,-0.14583 -0.32812,-0.09375c-0.17708,0.04167 -0.27604,0.00521 -0.29687,-0.10937c0.10417,0 0.25521,0.32813 0.45313,0.98438c0.20833,0.65625 0.34375,1.02604 0.40625,1.10938c0.30208,0.21875 0.52604,0.35938 0.67188,0.42188c0.14583,0.0625 0.33854,0.07292 0.57813,0.03125c0.23958,-0.04167 0.40104,-0.10417 0.48438,-0.1875l0.65625,-0.82812c0.70833,-0.95833 1.44271,-1.02604 2.20313,-0.20312c0.34375,0.36458 0.47917,0.71875 0.40625,1.0625c-0.07292,0.33333 -0.28125,0.85938 -0.625,1.57813c-0.30208,0.47917 -0.64062,0.89583 -1.01562,1.25c-0.66667,0.35417 -1.09375,0.53125 -1.28125,0.53125c-0.20833,0.01042 -0.4375,-0.01042 -0.6875,-0.0625c-0.17708,0.09375 -0.6875,0.03646 -1.53125,-0.17187c0.32292,-0.28125 0.42188,-0.34375 0.29688,-0.1875c-0.11458,0.15625 -0.73958,0.00521 -1.875,-0.45312l1.64063,0.03125c-0.03125,0.36458 -0.18229,0.54688 -0.45312,0.54688l-0.75,-0.40625zM71.05017,162.4301c0.26042,-0.625 0.45313,-0.9375 0.57813,-0.9375c0.125,0.1875 0.17188,0.35417 0.14063,0.5l-0.875,1c-0.84375,1.04167 -1.26562,1.60417 -1.26562,1.6875c0,0.11458 -0.05729,0.29167 -0.17187,0.53125l0.01563,0.3125l-0.04687,1.17188v0.28125c0,0.72917 -0.15104,1.25 -0.45312,1.5625c-0.29167,-0.23958 -0.27083,-0.46354 0.0625,-0.67187l0.39063,-0.54687c0.4375,-0.53125 0.70833,-0.89062 0.8125,-1.07812c0.36458,-1.125 0.54688,-1.73437 0.54688,-1.82812c0,-0.30208 0.06771,-0.68229 0.20313,-1.14062c0,-0.14583 0.02083,-0.32292 0.0625,-0.53125zM65.34704,162.02385l0.10938,-1.32812c0.04167,-0.10417 0.04167,-0.25 0,-0.4375l0.20313,-1.14062c0,-0.11458 -0.01042,-0.28125 -0.03125,-0.5c-0.02083,-0.22917 0.00521,-0.42708 0.07813,-0.59375c0.14583,-0.28125 0.5,-0.32812 1.0625,-0.14062l-2.125,0.54688c1.46875,-0.86458 2.40104,-1.23958 2.79688,-1.125c0.40625,0.11458 0.77083,0.22396 1.09375,0.32813c0.17708,0.22917 0.41146,0.48438 0.70313,0.76563l0.01563,1.07813c0,0.42708 0.03125,0.89063 0.09375,1.39063c-0.16667,0.16667 -0.34375,0.26042 -0.53125,0.28125l0.25,-0.5c-0.17708,-0.16667 -0.05729,-0.44271 0.35938,-0.82812c0.41667,-0.38542 0.70833,-0.53125 0.875,-0.4375c-0.17708,-0.27083 -0.02604,-0.47917 0.45313,-0.625c0.58333,-0.125 1.03646,-0.10937 1.35938,0.04688c0.33333,0.14583 0.53646,0.17188 0.60938,0.07813l1.42188,0.60938c-0.27083,0.23958 -0.29167,0.25521 -0.0625,0.04688l0.15625,0.14063c0.14583,-0.03125 0.29688,0.02604 0.45313,0.17188c0.47917,0.07292 0.66146,0.41146 0.54688,1.01563c-0.16667,-0.03125 -0.14062,-0.03646 0.07813,-0.01562v0.8125c0,0.33333 -0.08854,0.875 -0.26562,1.625c-0.17708,0.75 -0.29167,1.19271 -0.34375,1.32813c-0.04167,0.125 -0.09375,0.28646 -0.15625,0.48438c-0.0625,0.19792 -0.13021,0.38021 -0.20312,0.54688c-0.08333,0.32292 -0.27083,0.76563 -0.5625,1.32813c-0.29167,0.5625 -0.57812,1.00521 -0.85937,1.32813c-0.64583,0.89583 -1.39583,1.63542 -2.25,2.21875c-0.89583,0.34375 -1.48437,0.55208 -1.76562,0.625c-0.04167,-0.3125 0.11979,-0.18229 0.48438,0.39063v1.92188l0.07813,1.15625l0.03125,1.21875c0.04167,0.73958 -0.03646,1.20833 -0.23437,1.40625l-0.40625,0.32813c-0.41667,0.17708 -0.77604,0.20313 -1.07812,0.07813c-0.39583,-0.125 -0.58333,-0.26562 -0.5625,-0.42187c-0.13542,0.13542 -0.30729,0.11458 -0.51562,-0.0625l-0.07812,-0.03125c-0.45833,0.05208 -0.74479,-0.08854 -0.85937,-0.42187c-0.22917,-0.1875 -0.32812,-0.36979 -0.29687,-0.54687l-0.39062,-0.46875c-0.14583,-0.38542 -0.21875,-0.69792 -0.21875,-0.9375c-0.11458,-0.42708 -0.15104,-0.76562 -0.10937,-1.01562l-0.04687,-0.96875v-1.42187c0,-0.4375 -0.01042,-0.69792 -0.03125,-0.78125c-0.05208,-0.16667 -0.04167,-1.17708 0.03125,-3.03125c0.05208,-0.35417 0.07813,-0.57292 0.07813,-0.65625l0.39063,-3.29687l0.09375,-0.89062v-0.23437c0.05208,-0.21875 0.07813,-0.36458 0.07813,-0.4375zM76.81288,156.28948c0.04167,-0.125 0.05208,-0.24479 0.03125,-0.35937c-0.01042,-0.125 0.01042,-0.53125 0.0625,-1.21875c0.0625,-0.11458 0.06771,-0.35937 0.01563,-0.73437c0,-0.40625 0.13021,-0.79167 0.39063,-1.15625c0.27083,-0.375 0.83854,-0.81771 1.70313,-1.32812l-0.53125,0.95313c-0.11458,-0.39583 0.01563,-0.625 0.39063,-0.6875c0.84375,-0.11458 1.52083,0.25521 2.03125,1.10938c-0.13542,0.21875 -0.20312,0.61979 -0.20312,1.20313v2.70313c0.02083,0.44792 0.03125,1.05729 0.03125,1.82813v1l0.09375,1.73438c0,0.44792 0.02604,0.90104 0.07813,1.35938c0,0.84375 0.01563,1.35938 0.04688,1.54688c0.04167,0.17708 0.0625,0.3125 0.0625,0.40625v0.4375c0,0.34375 0.02083,0.60417 0.0625,0.78125c0,0.14583 0.05208,0.34375 0.15625,0.59375c-0.09375,0.30208 -0.11458,0.55729 -0.0625,0.76563c0.125,0.28125 0.16667,0.57813 0.125,0.89063c0.11458,0.20833 0.15104,0.5 0.10938,0.875l0.03125,0.0625l0.07813,0.26563c0.10417,0.35417 0.05729,0.76042 -0.14062,1.21875c-0.1875,0.44792 -0.57812,0.75521 -1.17187,0.92188c-0.58333,0.16667 -1.23958,-0.11458 -1.96875,-0.84375c0.21875,-0.15625 0.19792,-0.16667 -0.0625,-0.03125c-0.35417,-0.20833 -0.60937,-0.71875 -0.76562,-1.53125c-0.11458,-0.20833 -0.17187,-0.36979 -0.17187,-0.48437c-0.19792,-0.15625 -0.29687,-0.48437 -0.29687,-0.98437v-0.57812c-0.01042,-0.15625 -0.01042,-0.22917 0,-0.21875c-0.11458,-0.13542 -0.19271,-0.42187 -0.23437,-0.85937l0.04688,-1.8125c0,-0.5625 -0.01562,-1.00521 -0.04687,-1.32812v-1.8125c-0.05208,-0.58333 -0.07812,-1.04167 -0.07812,-1.375c0,-0.33333 0.0625,-0.96875 0.1875,-1.90625c0,0.02083 -0.03125,-0.04687 -0.09375,-0.20312c0.0625,-0.34375 0.09375,-0.74479 0.09375,-1.20312zM87.91074,162.60198l0.15625,0.125c0.15625,0.05208 -0.00521,0.43229 -0.48438,1.14063c-0.65625,0.90625 -1.125,1.79688 -1.40625,2.67188c-0.17708,0.51042 -0.28125,0.91667 -0.3125,1.21875c0,0.30208 -0.03125,0.49479 -0.09375,0.57813c-0.08333,0.07292 -0.10937,0.05729 -0.07812,-0.04687c0.03125,-0.11458 0.03646,-0.25 0.01563,-0.40625c0.15625,-0.08333 0.30729,-0.25521 0.45313,-0.51562c0.26042,-0.36458 0.46875,-0.49479 0.625,-0.39062l-0.03125,-0.59375l0.89063,-0.5c-0.51042,0.34375 -0.60937,0.05208 -0.29687,-0.875c0.1875,-0.32292 0.28646,-0.55208 0.29688,-0.6875zM82.30136,168.91448c-0.0625,-0.76042 -0.05208,-1.38021 0.03125,-1.85937c0.41667,-1.51042 0.84375,-2.61458 1.28125,-3.3125c-0.21875,-0.05208 -0.26042,-0.31771 -0.125,-0.79687c0.21875,-0.6875 0.5,-1.06771 0.84375,-1.14062c-0.21875,-0.10417 -0.26042,-0.27083 -0.125,-0.5c0,-0.21875 0.25,-0.56771 0.75,-1.04687l0.29688,-0.34375c0.4375,-0.38542 1.00521,-0.57812 1.70313,-0.57812c0.25,-0.03125 0.5625,-0.01562 0.9375,0.04688c0.59375,0.26042 1.22917,0.63021 1.90625,1.10938l0.1875,0.10938c0.125,0.03125 0.22396,0.0625 0.29688,0.09375c0.05208,0 0.25521,0.05729 0.60938,0.17188l0.39063,0.3125c0.27083,0.17708 0.46354,0.53646 0.57813,1.07813c-0.15625,0.13542 -0.22917,0.42188 -0.21875,0.85938c-0.0625,0.73958 -0.00521,1.61458 0.17188,2.625c0.07292,0.9375 0.23958,1.94792 0.5,3.03125c0,0.07292 0.06771,0.31771 0.20313,0.73438c0.14583,0.40625 0.20313,0.6875 0.17188,0.84375c0,0.78125 -0.60417,1.17188 -1.8125,1.17188c-1.05208,-0.0625 -1.78646,-0.53646 -2.20312,-1.42187c-0.02083,-0.0625 -0.0625,-0.16146 -0.125,-0.29687c-0.26042,-0.25 -0.41146,-0.51042 -0.45312,-0.78125l0.20313,-0.28125c-0.21875,0.03125 -0.17187,-0.05208 0.14063,-0.25c0.08333,0.44792 -0.03125,0.82813 -0.34375,1.14063l-0.54688,0.875l-0.28125,0.09375c0.02083,0.21875 -0.22917,0.40104 -0.75,0.54688c-0.51042,0.14583 -0.86979,0.17188 -1.07812,0.07813c-0.0625,0 -0.20312,-0.03125 -0.42187,-0.09375l-1.17187,-0.46875c-0.375,-0.09375 -0.64583,-0.25521 -0.8125,-0.48437c-0.33333,-0.21875 -0.33854,-0.42708 -0.01562,-0.625c-0.52083,-0.25 -0.76042,-0.46354 -0.71875,-0.64062zM103.73407,163.83635l-0.10937,0.54688l-0.04687,0.57813c0,0.17708 -0.02604,0.36979 -0.07812,0.57813c0,0.73958 -0.05729,1.29688 -0.17187,1.67188c0,0.44792 -0.06771,1 -0.20312,1.65625c-0.05208,0.48958 -0.07292,0.86979 -0.0625,1.14063c-0.08333,0.1875 -0.125,0.3125 -0.125,0.375c0,0.10417 -0.03646,0.34375 -0.10937,0.71875c-0.07292,0.375 -0.15104,0.59896 -0.23437,0.67188c0.01042,0.13542 -0.04167,0.31771 -0.15625,0.54688c-0.08333,0.14583 -0.14583,0.32292 -0.1875,0.53125c-0.04167,0.21875 -0.14583,0.31771 -0.3125,0.29688c-0.15625,-0.01042 -0.08854,0.03125 0.20313,0.125l-0.9375,0.70313c0.32292,0.13542 0.375,0.33333 0.15625,0.59375c-0.03125,0.11458 -0.20833,0.25 -0.53125,0.40625c0.15625,0.20833 -0.14583,0.54167 -0.90625,1c-0.23958,0.19792 -0.52604,0.33854 -0.85937,0.42188l-0.15625,0.0625c-0.33333,0.20833 -0.72917,0.31771 -1.1875,0.32813c-0.84375,0.125 -1.49479,0.10938 -1.95312,-0.04687l-0.51562,-0.73437l0.53125,0.84375c-0.85417,-0.38542 -1.39062,-0.68229 -1.60937,-0.89062c-0.4375,-0.21875 -0.73958,-0.46875 -0.90625,-0.75c-0.16667,-0.27083 -0.30729,-0.67708 -0.42187,-1.21875c-0.05208,-0.30208 0.02083,-0.67187 0.21875,-1.10937c0.20833,-0.4375 0.54688,-0.64583 1.01563,-0.625c0.14583,0 0.49479,0.15625 1.04688,0.46875c0.05208,0.08333 0.23958,0.25521 0.5625,0.51563c0.30208,0.36458 0.57813,0.54688 0.82813,0.54688c0.08333,0 0.15104,-0.01562 0.20313,-0.04687c0.0625,-0.02083 0.28125,0.10938 0.65625,0.39063c-0.55208,-0.08333 -0.67187,-0.22917 -0.35937,-0.4375c0.3125,-0.20833 0.52083,-0.32292 0.625,-0.34375c-0.02083,0.01042 0,-0.02604 0.0625,-0.10937l0.34375,-0.26562c0.03125,-0.04167 0.14583,-0.15625 0.34375,-0.34375l0.14063,-0.1875c0,-0.125 0.22917,-0.27604 0.6875,-0.45312c-0.32292,-0.07292 -0.36458,-0.21875 -0.125,-0.4375c-0.09375,-0.05208 -0.11458,-0.16667 -0.0625,-0.34375l0.20313,-0.9375l-0.04687,-0.21875c0.11458,-0.25 0.17188,-0.47917 0.17188,-0.6875l0.59375,-0.60937l0.09375,0.0625l-0.45312,0.6875c0.29167,0.14583 0.39063,0.27083 0.29688,0.375c-0.09375,0.10417 -0.17708,0.20833 -0.25,0.3125l-0.57812,0.79688l-0.34375,0.1875c-0.5625,0.47917 -1.23958,0.64583 -2.03125,0.5c-0.23958,-0.13542 -0.47917,-0.21875 -0.71875,-0.25c-0.23958,-0.03125 -0.46875,-0.16146 -0.6875,-0.39062c-0.23958,-0.08333 -0.51042,-0.28646 -0.8125,-0.60937c-0.13542,-0.27083 -0.20312,-0.44792 -0.20312,-0.53125c0,-0.08333 -0.03646,-0.20833 -0.10937,-0.375c-0.1875,-0.98958 -0.23437,-1.8125 -0.14062,-2.46875c-0.125,-0.05208 -0.17187,-0.24479 -0.14062,-0.57812c0.03125,-0.33333 0.04688,-0.54687 0.04688,-0.64062c0,-0.10417 0.01563,-0.25521 0.04688,-0.45312l0.14063,-0.95312c0.10417,-0.13542 0.18229,-0.35937 0.23438,-0.67187c0.08333,-0.5 0.28646,-1.09896 0.60938,-1.79687l0.14063,-0.375l0.1875,-0.3125c0,-0.15625 0.08333,-0.41146 0.25,-0.76562c0.16667,-0.35417 0.27604,-0.56771 0.32813,-0.64062c0.05208,-0.08333 0.125,-0.17187 0.21875,-0.26562c0.09375,-0.09375 0.19271,-0.19792 0.29688,-0.3125c0.375,-0.35417 0.8125,-0.48437 1.3125,-0.39062c0.51042,0.09375 0.92188,0.25521 1.23438,0.48438c0.3125,0.22917 0.40104,0.66146 0.26563,1.29688c-0.33333,0.78125 -0.41667,1.20313 -0.25,1.26563l-0.1875,0.51563c0,0.26042 -0.07292,0.44792 -0.21875,0.5625c0.07292,0.03125 0.02604,0.48438 -0.14062,1.35938c-0.10417,0.20833 -0.15625,0.31771 -0.15625,0.32813c0,0.19792 -0.04687,0.4375 -0.14062,0.71875c-0.09375,0.27083 -0.15625,0.46354 -0.1875,0.57813c-0.04167,0.3125 -0.07812,0.60938 -0.10937,0.89063c-0.02083,0.28125 -0.25,0.47396 -0.6875,0.57813c0.44792,-0.34375 0.60938,-0.21354 0.48438,0.39063v0.23438c-0.13542,0 -0.15625,-0.02604 -0.0625,-0.07812c0.10417,-0.05208 0.24479,-0.22917 0.42188,-0.53125c0.42708,-0.875 0.66667,-1.36979 0.71875,-1.48437l0.20313,-0.375l0.10938,-0.34375c0.16667,-0.125 0.26563,-0.21354 0.29688,-0.26562l0.28125,-0.20312c-0.11458,-0.0625 0.1875,-1.17708 0.90625,-3.34375l0.14063,-0.625c0,-0.48958 0.13021,-0.89583 0.39063,-1.21875c0.26042,-0.33333 0.55729,-0.51042 0.89063,-0.53125c0.35417,0 0.8125,0.11979 1.375,0.35938c0.46875,0 0.75,0.41667 0.84375,1.25c0,0.375 -0.07812,0.86458 -0.23437,1.46875c-0.04167,0.29167 -0.0625,0.56771 -0.0625,0.82813c-0.05208,0.21875 -0.07812,0.49479 -0.07812,0.82813zM110.2449,161.64885c0.05208,-0.19792 0.05729,-0.39583 0.01563,-0.59375c0.07292,0.0625 0.06771,0.09375 -0.01562,0.09375c-0.02083,0 -0.09896,0.15625 -0.23437,0.46875c-0.27083,0.40625 -0.51042,0.96875 -0.71875,1.6875l-0.40625,-0.53125c0.15625,0.79167 0.08333,1.16146 -0.21875,1.10938c0.25,-0.23958 0.42188,-0.35937 0.51563,-0.35937c0.09375,-0.01042 0.20313,-0.06771 0.32813,-0.17187c0.32292,-0.30208 0.56771,-0.86979 0.73438,-1.70312zM110.71365,166.16448l-0.98437,0.07813c-0.625,0 -0.9375,-0.08333 -0.9375,-0.25h0.25c0.04167,1.30208 0.34896,2.125 0.92188,2.46875c0.125,0.05208 0.21354,0.07813 0.26563,0.07813c0.05208,0 0.13021,-0.03125 0.23438,-0.09375c-0.01042,0 -0.01042,-0.00521 0,-0.01562c0.0625,-0.44792 0.26042,-0.63021 0.59375,-0.54687c0.77083,-1.0625 1.48438,-1.42187 2.14063,-1.07812c0.55208,0.35417 0.82813,0.70313 0.82813,1.04688c0,0.23958 -0.10417,0.375 -0.3125,0.40625h0.17188c0,0.26042 -0.125,0.64583 -0.375,1.15625c-0.23958,0.51042 -0.48437,0.92708 -0.73437,1.25c-0.15625,0.34375 -0.38542,0.59375 -0.6875,0.75c-0.66667,0.41667 -1.375,0.58333 -2.125,0.5c-0.29167,-0.02083 -0.44271,-0.13021 -0.45312,-0.32812c0,-0.01042 -0.02083,0.0625 -0.0625,0.21875l-0.29687,-0.04687c-0.23958,0 -0.45833,-0.0625 -0.65625,-0.1875c-0.05208,-0.1875 -0.10937,-0.21354 -0.17187,-0.07812c-0.59375,-0.22917 -0.94792,-0.39062 -1.0625,-0.48437c-0.10417,-0.09375 -0.19792,-0.16146 -0.28125,-0.20312c-0.08333,-0.05208 -0.27083,-0.26042 -0.5625,-0.625c-0.25,-0.20833 -0.40104,-0.35937 -0.45312,-0.45312c-0.08333,-0.11458 -0.1875,-0.22396 -0.3125,-0.32812c-0.11458,-0.10417 -0.18229,-0.30208 -0.20312,-0.59375c-0.08333,-0.10417 -0.125,-0.25 -0.125,-0.4375l-0.09375,-0.21875c0.13542,-0.07292 0.14583,-0.06771 0.03125,0.01563c-0.23958,-0.23958 -0.35937,-0.51042 -0.35937,-0.8125l0.35938,-0.09375c-0.375,0.10417 -0.51042,-0.0625 -0.40625,-0.5v-0.60937l-0.03125,-0.23437v-0.14062c-0.03125,-0.11458 -0.01562,-0.30729 0.04688,-0.57812l-0.03125,-0.29687c0.26042,0.01042 0.29688,-0.13021 0.10938,-0.42187c0.09375,-0.48958 0.20833,-0.74479 0.34375,-0.76562l-0.125,-0.15625c0.02083,-0.0625 0.03125,-0.14062 0.03125,-0.23437c0,-0.09375 0.02604,-0.20312 0.07813,-0.32812c0.05208,-0.13542 0.19792,-0.55729 0.4375,-1.26562l0.4375,-0.95312c0.14583,-0.3125 0.33854,-0.61458 0.57813,-0.90625c0.01042,-0.05208 0.10417,-0.23958 0.28125,-0.5625l0.375,-0.34375c0.15625,-0.21875 0.38021,-0.38021 0.67188,-0.48437c0.3125,-0.15625 0.55729,-0.23437 0.73438,-0.23437l0.82813,-0.125c0.10417,0.03125 0.15625,0.04688 0.15625,0.04688h0.35938c0.47917,0.04167 0.85938,0.13021 1.14063,0.26563c0.58333,0.1875 1.03646,0.4375 1.35938,0.75c0.65625,0.73958 0.98438,1.44792 0.98438,2.125c0,0.66667 -0.10417,1.24479 -0.3125,1.73438c-0.45833,1.05208 -0.78646,1.71354 -0.98437,1.98438c-0.41667,0.76042 -0.95312,1.14063 -1.60937,1.14063zM115.17111,162.4926c0,-0.16667 -0.02083,-0.35417 -0.0625,-0.5625v-0.28125c0.01042,-0.08333 0.00521,-0.18229 -0.01562,-0.29687c0,-0.26042 0.01563,-0.45833 0.04688,-0.59375c0,-0.4375 0.11458,-0.69271 0.34375,-0.76562c-0.13542,-0.125 -0.04167,-0.40625 0.28125,-0.84375c0.11458,-0.10417 0.30208,-0.26042 0.5625,-0.46875c0.38542,-0.125 0.61458,-0.125 0.6875,0c0.05208,-0.27083 0.38021,-0.31771 0.98438,-0.14062c0.17708,0.01042 0.46354,0.07813 0.85938,0.20313c0.23958,0.0625 0.5625,0.35417 0.96875,0.875c-0.09375,0.22917 -0.18229,0.55208 -0.26562,0.96875c-0.07292,0.40625 -0.25,0.67188 -0.53125,0.79688c-0.20833,-0.21875 -0.14583,-0.42187 0.1875,-0.60937c0.34375,-0.19792 0.44271,-0.40625 0.29688,-0.625c0.625,-0.27083 1.1875,-0.46354 1.6875,-0.57812c0.8125,-0.0625 1.33854,0 1.57813,0.1875c0.21875,0.07292 0.39063,0.19271 0.51563,0.35938c0.22917,0.1875 0.42188,0.54167 0.57813,1.0625c0.15625,0.51042 0.06771,0.89063 -0.26562,1.14063c-0.17708,0.14583 -0.63021,0.25521 -1.35937,0.32813c-0.02083,-0.25 -0.05208,-0.21354 -0.09375,0.10938l-1.40625,1.10938c-0.26042,0.13542 -0.40625,0.21354 -0.4375,0.23438l-0.45312,0.82813c-0.11458,-0.07292 -0.15104,0.09375 -0.10937,0.5c0.05208,0.39583 0.08854,0.6875 0.10938,0.875c0.02083,0.17708 0.02083,0.78125 0,1.8125v1.14063c0,0.65625 -0.01042,1.05729 -0.03125,1.20313c-0.02083,0.13542 -0.10937,0.35938 -0.26562,0.67188c-0.17708,0.27083 -0.44792,0.40625 -0.8125,0.40625c-0.98958,0.75 -1.64583,0.66667 -1.96875,-0.25l-0.15625,-0.09375c-0.27083,-0.13542 -0.4375,-0.30208 -0.5,-0.5c-0.17708,-0.23958 -0.22917,-0.42187 -0.15625,-0.54687l-0.1875,-0.23437l0.20313,-0.35937c-0.30208,0.125 -0.47396,-0.20312 -0.51562,-0.98437c-0.04167,-0.79167 -0.0625,-1.25521 -0.0625,-1.39062c0,-0.14583 -0.03125,-0.38542 -0.09375,-0.71875c0.14583,-0.14583 0.21354,-0.32292 0.20313,-0.53125c0,-0.20833 -0.02604,-0.42708 -0.07812,-0.65625c-0.05208,-0.23958 -0.03646,-0.38021 0.04688,-0.42187c0.09375,-0.04167 0.08333,-0.17187 -0.03125,-0.39062c-0.08333,-0.11458 -0.09896,-0.31771 -0.04687,-0.60937z" data-paper-data="{&quot;origPos&quot;:null}" fill="#000000" fill-rule="nonzero" stroke-width="1" stroke-linecap="square"/><path d="M14.24122,190.1801c0.02083,0.28125 0.09375,0.96875 0.21875,2.0625c0.19792,1.96875 0.3125,3.15625 0.34375,3.5625l0.25,1.21875l-0.125,0.04688c-0.11458,0.02083 -0.17187,0.01042 -0.17187,-0.03125c0,-0.19792 0.16667,-0.73958 0.5,-1.625c0.41667,-0.73958 0.67708,-1.36458 0.78125,-1.875c0.02083,-0.14583 0.23438,-0.36979 0.64063,-0.67187c-0.375,0 -0.42708,-0.26042 -0.15625,-0.78125c0.125,-0.26042 0.22396,-0.5625 0.29688,-0.90625c0.08333,-0.35417 0.13542,-0.54687 0.15625,-0.57812c0.03125,-0.04167 0.05729,-0.08854 0.07813,-0.14062c0.08333,-0.01042 0.13021,-0.10937 0.14063,-0.29687c0.04167,-0.19792 0.0625,-0.34375 0.0625,-0.4375v-0.82812c0,-0.10417 0.04688,-0.3125 0.14063,-0.625l-0.03125,-0.53125c0,-0.54167 0.24479,-1.21875 0.73438,-2.03125l0.4375,-0.32812c-0.02083,-0.32292 0.20833,-0.51562 0.6875,-0.57812c0.47917,-0.0625 0.82813,-0.05208 1.04688,0.03125c0.22917,0.07292 0.41667,0.10938 0.5625,0.10938c0.11458,0.09375 0.34896,0.1875 0.70313,0.28125c0.41667,0.125 0.67188,0.34896 0.76563,0.67188c0.10417,0.3125 0.15625,0.67188 0.15625,1.07813l-0.1875,2.07813c0,0.11458 -0.05208,0.97396 -0.15625,2.57813l0.01563,0.89063c-0.01042,0.04167 -0.01562,0.32292 -0.01562,0.84375v1.39063c0,0.27083 0,0.4375 0,0.5l0.125,1.5625c-0.39583,-0.30208 -0.30729,0.29167 0.26563,1.78125c0,0.23958 0.09375,0.78125 0.28125,1.625c0.19792,0.84375 0.25,1.5625 0.15625,2.15625c0,0.48958 -0.42187,0.91667 -1.26562,1.28125c-0.65625,-0.125 -1.05208,-0.29167 -1.1875,-0.5c-0.125,-0.08333 -0.23437,-0.17708 -0.32812,-0.28125l-0.15625,-0.21875c-0.3125,-0.25 -0.5625,-0.54687 -0.75,-0.89062c-0.16667,-0.15625 -0.28125,-0.36458 -0.34375,-0.625c-0.1875,-0.27083 -0.30208,-0.59375 -0.34375,-0.96875c-0.03125,-0.375 -0.08854,-0.625 -0.17187,-0.75c-0.07292,-0.13542 -0.13542,-0.25521 -0.1875,-0.35937c-0.21875,-0.23958 -0.36458,-0.64062 -0.4375,-1.20312c-0.0625,-0.57292 -0.11979,-1.05729 -0.17187,-1.45312c0,-0.26042 0.00521,-0.41146 0.01563,-0.45312c-0.03125,-0.09375 -0.05208,-0.17708 -0.0625,-0.25c-0.01042,-0.08333 0.15104,-0.16146 0.48438,-0.23437l0.42188,0.5625c-0.0625,0.11458 -0.18229,0.45313 -0.35937,1.01563l-0.53125,1.73438l-0.54687,1.89063c-0.1875,-0.01042 -0.28125,0.14063 -0.28125,0.45313c-0.17708,0.45833 -0.28125,0.70833 -0.3125,0.75c-0.02083,0.03125 -0.04167,0.07292 -0.0625,0.125c-0.17708,0.34375 -0.38021,0.625 -0.60937,0.84375c-0.64583,0.60417 -1.3125,0.78125 -2,0.53125c-0.67708,-0.25 -1.16667,-0.71354 -1.46875,-1.39062c-0.11458,-0.27083 -0.21354,-0.47396 -0.29687,-0.60937c-0.03125,-0.15625 -0.125,-0.39583 -0.28125,-0.71875c-0.14583,-0.39583 -0.25521,-0.83854 -0.32812,-1.32812c-0.08333,-0.17708 -0.14583,-0.45833 -0.1875,-0.84375c-0.08333,-0.16667 -0.14583,-0.40625 -0.1875,-0.71875c-0.03125,-0.32292 -0.08333,-0.60937 -0.15625,-0.85937c-0.10417,-0.33333 -0.17187,-0.73437 -0.20312,-1.20312c-0.03125,-0.28125 -0.15104,-0.79167 -0.35937,-1.53125c-0.05208,-0.0625 0.05729,-0.18229 0.32813,-0.35937c0.30208,0.01042 0.45313,0.03125 0.45313,0.0625c0,0.03125 -0.20833,0.44271 -0.625,1.23438c0.33333,-0.07292 0.45833,0.24479 0.375,0.95313c-0.09375,0.32292 -0.15104,0.66146 -0.17187,1.01563c-0.14583,0.9375 -0.20833,1.60417 -0.1875,2c0.0625,0.20833 0.06771,0.44271 0.01563,0.70313c-0.04167,0.25 -0.07812,0.49479 -0.10937,0.73438c-0.03125,0.23958 -0.07292,0.4375 -0.125,0.59375v0.125c-0.14583,0.46875 -0.15104,0.72396 -0.01562,0.76563c0,0.38542 -0.11979,0.79688 -0.35937,1.23438c-0.23958,0.44792 -0.65625,0.60417 -1.25,0.46875c-0.66667,-0.15625 -1.09375,-0.31771 -1.28125,-0.48437c-0.28125,-0.45833 -0.42187,-0.86458 -0.42187,-1.21875v-1.3125l0.29688,-0.40625c-0.1875,-0.02083 -0.08854,-0.23437 0.29688,-0.64062c-0.35417,0.125 -0.53125,0.03125 -0.53125,-0.28125c0,-0.3125 -0.03125,-0.54167 -0.09375,-0.6875v-0.35937c-0.03125,-0.65625 -0.03646,-1.03125 -0.01562,-1.125c0.03125,-0.09375 0.01563,-0.47396 -0.04687,-1.14062c0.39583,0.29167 0.52604,0.3125 0.39063,0.0625c-0.125,-0.26042 -0.16146,-0.66146 -0.10937,-1.20312l0.625,0.29688c-0.35417,0.16667 -0.51562,-0.09375 -0.48437,-0.78125c0.01042,-0.14583 0.05208,-0.46875 0.125,-0.96875c0.07292,-0.5 0.10417,-0.85417 0.09375,-1.0625c-0.01042,-0.21875 0.09375,-0.56771 0.3125,-1.04687c0.35417,-1.05208 0.54166,-1.72917 0.5625,-2.03125c0.03125,-0.30208 0.08854,-0.57292 0.17188,-0.8125c0.07292,-0.625 0.25,-1.15104 0.53125,-1.57812c0.17708,-0.5625 0.5,-0.88542 0.96875,-0.96875l0.35938,-0.28125l0.1875,0.45313c0.27083,-0.57292 0.94271,-0.75 2.01563,-0.53125c0.95833,0.4375 1.49479,1.04167 1.60938,1.8125c-0.08333,0.27083 -0.0625,1.11458 0.0625,2.53125zM34.04663,194.96135l0.03125,0.45313c0,0.04167 0.05208,0.59375 0.15625,1.65625v0.35938c0,0.39583 0.07292,1.02083 0.21875,1.875c0,0.32292 0.11979,0.88542 0.35938,1.6875c0.17708,0.02083 0.30729,0.23438 0.39063,0.64063l-0.01562,0.23438c0.07292,0.25 -0.01562,0.43229 -0.26562,0.54688c0.08333,0.36458 -0.11979,0.54688 -0.60937,0.54688c-0.47917,0 -0.78125,0.02604 -0.90625,0.07813c-0.11458,0.05208 -0.27083,-0.04167 -0.46875,-0.28125c-0.09375,0.20833 -0.36979,0.19271 -0.82812,-0.04687c-0.32292,-0.0625 -0.5625,-0.33333 -0.71875,-0.8125l-0.25,-0.57812c0,-0.28125 -0.08854,-0.54687 -0.26562,-0.79687c0,-0.13542 0.02604,-0.3125 0.07813,-0.53125c0.05208,-0.21875 0.125,-0.35417 0.21875,-0.40625c0.13542,0.8125 0.03646,1.38021 -0.29687,1.70313c0.09375,0.13542 0.05729,0.29688 -0.10937,0.48438l-0.53125,0.26563c0.23958,0.15625 0.24479,0.34375 0.01563,0.5625c-0.16667,0.375 -0.55729,0.5625 -1.17187,0.5625c-0.39583,0 -0.84375,-0.09375 -1.34375,-0.28125c-0.125,-0.01042 -0.34896,-0.07812 -0.67187,-0.20312c-0.10417,0.02083 -0.27083,-0.05729 -0.5,-0.23437c-0.21875,-0.1875 -0.40104,-0.1875 -0.54687,0c-0.13542,-0.125 -0.30208,-0.25521 -0.5,-0.39062l-0.5,-0.5c-0.08333,-0.09375 -0.16146,-0.26042 -0.23437,-0.5c-0.0625,-0.25 -0.08854,-0.41146 -0.07812,-0.48437c0.02083,-0.07292 0.02083,-0.17187 0,-0.29687c-0.01042,-0.125 0.00521,-0.26042 0.04688,-0.40625c0,-0.34375 0.125,-0.70312 0.375,-1.07812c-0.19792,0 -0.29687,-0.07292 -0.29687,-0.21875c0,-0.14583 0.05729,-0.28646 0.17188,-0.42187c-0.0625,-0.03125 -0.09375,-0.09375 -0.09375,-0.1875l0.14063,-1.04687c0,-0.25 0.00521,-0.42708 0.01563,-0.53125v-0.46875c0.02083,-0.0625 0.03125,-0.13542 0.03125,-0.21875l0.14063,-1.28125c0,-0.20833 0.00521,-0.33854 0.01563,-0.39062v-0.4375c0.26042,0.04167 0.28125,-0.05729 0.0625,-0.29687l0.28125,-0.875l0.1875,-0.32812c0.05208,-0.1875 0.22917,-0.35417 0.53125,-0.5c0.35417,-0.21875 0.85938,-0.32812 1.51563,-0.32812c0.32292,0.04167 0.55208,0.25521 0.6875,0.64063c0.05208,-0.30208 0.25,-0.375 0.59375,-0.21875c0.67708,0.30208 0.79167,0.97396 0.34375,2.01563c-0.29167,0.38542 -0.32292,0.61979 -0.09375,0.70313c-0.07292,0.14583 -0.10937,0.23958 -0.10937,0.28125c-0.10417,0.5625 -0.32812,0.82813 -0.67187,0.79688c1.1875,-1.67708 1.32813,-1.50521 0.42188,0.51563l-0.10937,0.95313c-0.11458,0.39583 -0.16146,0.85938 -0.14062,1.39063l-0.20312,0.28125c0.08333,0.04167 0,0.28646 -0.25,0.73438c0.25,-0.02083 0.375,0.0625 0.375,0.25l0.01563,0.25c-0.25,0 -0.36458,-0.02083 -0.34375,-0.0625c0.03125,-0.05208 0.07813,-0.11458 0.14063,-0.1875c0.0625,-0.08333 0.08854,-0.125 0.07813,-0.125c0.15625,-0.1875 0.27083,-0.41667 0.34375,-0.6875c0.07292,-0.27083 0.10938,-0.44271 0.10938,-0.51562c0.33333,-0.84375 0.53125,-1.3125 0.59375,-1.40625c0.07292,-0.44792 0.27604,-0.93229 0.60938,-1.45312c-0.17708,-0.03125 -0.23437,-0.25 -0.17187,-0.65625l0.35938,-1.5c0.13542,-0.22917 0.20313,-0.36979 0.20313,-0.42187c0,-0.0625 0.14063,-0.30208 0.42188,-0.71875c-0.0625,-0.08333 -0.02083,-0.27604 0.125,-0.57812c0.1875,-0.29167 0.52604,-0.57292 1.01563,-0.84375h0.20313c0.45833,-0.04167 0.94271,0.05729 1.45313,0.29688c0.11458,0.27083 0.17188,0.51563 0.17188,0.73438c0.03125,0.15625 0.06771,0.48438 0.10938,0.98438v0.34375l-0.09375,0.5c0.14583,0.45833 0.15625,0.92708 0.03125,1.40625zM36.98306,188.00823l0.1875,-1.57812l0.03125,-0.79687c0,-0.33333 0.07292,-0.60937 0.21875,-0.82812l0.3125,-0.4375c0.57292,-0.44792 0.96875,-0.70833 1.1875,-0.78125c0.22917,-0.08333 0.53125,-0.08333 0.90625,0c0.38542,0.08333 0.63542,0.18229 0.75,0.29688l0.21875,0.1875c0.32292,0.1875 0.48438,0.42188 0.48438,0.70313c0.15625,0.20833 0.15104,0.45313 -0.01562,0.73438c-0.0625,0.07292 -0.20833,1.03125 -0.4375,2.875l-0.21875,3.64063l-0.125,0.70313c0,0.15625 0.00521,0.25521 0.01563,0.29688v0.54688c-0.04167,0.45833 -0.07812,0.71875 -0.10937,0.78125c0,0.0625 -0.15625,0.10938 -0.46875,0.14063c0.3125,-0.09375 0.46875,0.05208 0.46875,0.4375c0,0.38542 -0.10937,0.57813 -0.32812,0.57813c0.13542,0.21875 0.20313,0.44271 0.20313,0.67188c0,0.22917 0.02083,0.48438 0.0625,0.76563c0.04167,0.28125 0.05729,0.5625 0.04688,0.84375l0.10938,1v0.39063c0.03125,0.32292 0.04688,0.58333 0.04688,0.78125l0.14063,1.34375l0.09375,0.70313c0.0625,0.38542 0.02604,0.78125 -0.10937,1.1875c-0.13542,0.41667 -0.38021,0.69271 -0.73438,0.82813c-0.75,0.30208 -1.48437,0.16146 -2.20312,-0.42187h-0.28125c-0.29167,-0.33333 -0.45833,-0.58854 -0.5,-0.76562c-0.21875,-0.10417 -0.31771,-0.27604 -0.29687,-0.51562c0.02083,-0.23958 -0.01042,-0.42708 -0.09375,-0.5625c-0.08333,-0.13542 -0.125,-0.30729 -0.125,-0.51562c0,-0.19792 -0.01562,-0.39583 -0.04687,-0.59375l0.34375,-0.14062c-0.27083,0.05208 -0.40625,-0.04687 -0.40625,-0.29687l-0.04687,-0.48437v-0.25c0,-0.10417 -0.01042,-0.20312 -0.03125,-0.29687c-0.01042,-0.09375 0.11979,-0.17187 0.39063,-0.23437c-0.27083,0.03125 -0.38021,-0.25 -0.32812,-0.84375c0.10417,-1.34375 0.15625,-2.27604 0.15625,-2.79687l0.03125,-0.64062v-0.75c0.01042,-0.4375 0.02083,-1.02083 0.03125,-1.75c0.01042,-0.73958 0.14583,-1.08333 0.40625,-1.03125l-0.34375,-0.125c0,-0.47917 0.06771,-1.08854 0.20313,-1.82812c0.13542,-0.73958 0.20313,-1.13021 0.20313,-1.17187zM48.48991,185.88323c-0.0625,0.72917 -0.09375,1.19792 -0.09375,1.40625c0,0.20833 -0.01042,0.39063 -0.03125,0.54688v0.70313l-0.03125,0.1875v0.51563c0,0.16667 -0.11979,0.25 -0.35937,0.25l0.65625,-0.5c0.08333,0 0.34896,-0.04167 0.79688,-0.125c0.44792,-0.09375 0.90104,-0.13542 1.35938,-0.125c0.46875,0 0.81771,0.13021 1.04688,0.39063c0.22917,0.26042 0.34375,0.57292 0.34375,0.9375c0.0625,0.35417 -0.03646,0.6875 -0.29687,1l-0.09375,0.125c-0.19792,0.34375 -0.51562,0.57292 -0.95312,0.6875l-0.9375,0.125l-1.14062,0.28125l-0.3125,0.125c0,0.17708 0.02083,0.53125 0.0625,1.0625c0.05208,0.53125 0.07813,0.91146 0.07813,1.14063l0.07813,0.9375c0.21875,1.54167 0.51042,3.08854 0.875,4.64063c0.10417,0.15625 0.22396,0.54167 0.35938,1.15625l0.21875,0.57813c0.125,1.0625 -0.42708,1.59375 -1.65625,1.59375c-0.16667,0 -0.54167,-0.03646 -1.125,-0.10937c-0.29167,-0.04167 -0.6875,-0.3125 -1.1875,-0.8125c0.28125,-0.14583 0.21354,-0.23437 -0.20312,-0.26562l-0.53125,-1.28125c-0.05208,-0.08333 -0.09896,-0.24479 -0.14062,-0.48437c-0.19792,-0.19792 -0.375,-0.71354 -0.53125,-1.54687c0,-0.03125 -0.01562,-0.11458 -0.04687,-0.25v-0.21875c-0.11458,-0.10417 -0.20312,-0.46875 -0.26562,-1.09375c-0.0625,-0.63542 -0.125,-1.21354 -0.1875,-1.73437c0,-0.6875 -0.05729,-1.34375 -0.17187,-1.96875l-0.04687,-0.64062v-0.28125c0.36458,-0.13542 0.54688,-0.03125 0.54688,0.3125h-0.28125c-0.30208,0.03125 -0.55208,0.03125 -0.75,0c-0.94792,0 -1.63542,-0.31771 -2.0625,-0.95312c-0.35417,-0.78125 -0.35417,-1.29687 0,-1.54687c0.35417,-0.25 0.96875,-0.45833 1.84375,-0.625c0.30208,0 0.57292,-0.05208 0.8125,-0.15625c0,-0.33333 0.07292,-0.52083 0.21875,-0.5625c-0.03125,-0.40625 -0.01562,-0.66667 0.04688,-0.78125c0.0625,-0.125 0.09896,-0.20312 0.10938,-0.23437c0.01042,-0.45833 0.16667,-1.125 0.46875,-2c0.11458,-0.4375 0.23438,-0.76042 0.35938,-0.96875c0.375,-0.53125 1.04167,-0.71354 2,-0.54687c0.4375,0.07292 0.63542,0.32292 0.59375,0.75c0.44792,-0.5 0.63542,-0.38021 0.5625,0.35938zM54.09166,184.58635c0.10417,-0.05208 0.34375,-0.10417 0.71875,-0.15625c0.65625,-0.10417 1.13021,-0.04167 1.42188,0.1875c0.30208,0.21875 0.54167,0.48438 0.71875,0.79688c0.03125,0.69792 -0.05208,1.53125 -0.25,2.5c-0.21875,0.64583 -0.41146,1.13021 -0.57812,1.45313l-0.25,0.35938c-0.0625,0.1875 -0.22917,0.40625 -0.5,0.65625c-0.27083,0.25 -0.51042,0.36458 -0.71875,0.34375c-0.19792,-0.03125 -0.42187,-0.11979 -0.67187,-0.26562c-0.23958,-0.15625 -0.43229,-0.32292 -0.57812,-0.5c-0.02083,-0.125 -0.04167,-0.21875 -0.0625,-0.28125l-0.10937,-0.42187l-0.5,-0.625c-0.15625,-0.32292 -0.23437,-0.625 -0.23437,-0.90625c-0.0625,-0.61458 0.11458,-1.02604 0.53125,-1.23437c-0.22917,-0.0625 -0.3125,-0.18229 -0.25,-0.35937c0.125,-0.51042 0.5625,-1.02604 1.3125,-1.54687zM53.02916,197.02385c0,-0.19792 0.02604,-0.42187 0.07813,-0.67187c0.0625,-0.26042 0.08333,-0.43229 0.0625,-0.51562c-0.02083,-0.08333 -0.02083,-0.42187 0,-1.01562c0.04167,-0.17708 0.05208,-0.34896 0.03125,-0.51562c-0.15625,-0.47917 -0.19271,-0.84896 -0.10937,-1.10937c0.09375,-0.27083 0.25,-0.54687 0.46875,-0.82812c0.22917,-0.29167 0.5,-0.5 0.8125,-0.625c0.32292,-0.13542 0.77083,-0.125 1.34375,0.03125c0.20833,0.10417 0.45833,0.32813 0.75,0.67188c0.11458,0.11458 0.21875,0.38542 0.3125,0.8125c0.09375,0.41667 0.15104,0.84375 0.17188,1.28125c0.03125,0.42708 0.05729,1.04167 0.07813,1.84375c0.02083,0.79167 0.05729,1.85417 0.10938,3.1875c0.05208,1.33333 0.0625,2.20833 0.03125,2.625c-0.03125,0.40625 -0.23437,0.75521 -0.60937,1.04688c-0.36458,0.30208 -0.66146,0.375 -0.89062,0.21875c-0.22917,-0.14583 -0.375,-0.22396 -0.4375,-0.23437c-0.40625,0 -0.70312,-0.18229 -0.89062,-0.54687c-0.08333,0.09375 -0.30729,0.03646 -0.67187,-0.17187c-0.35417,-0.20833 -0.57292,-0.56771 -0.65625,-1.07812c-0.11458,-0.21875 -0.15104,-0.86458 -0.10937,-1.9375v-0.98437l0.125,-0.90625zM65.08011,194.53948l-0.23437,-0.67187l0.48438,-0.09375c-0.05208,0.10417 -0.15104,0.26042 -0.29687,0.46875c-0.36458,-0.07292 -0.52083,-0.08333 -0.46875,-0.03125c-0.28125,0.21875 -0.59896,0.31771 -0.95312,0.29688c0.125,0.125 0.03125,0.33333 -0.28125,0.625l-0.15625,0.375c-0.08333,0.71875 -0.10937,1.13021 -0.07812,1.23438c-0.10417,0.61458 -0.14062,0.98438 -0.10937,1.10938c0.04167,0.125 0.04688,0.27083 0.01563,0.4375c-0.02083,0.16667 -0.05208,0.43229 -0.09375,0.79688c0.03125,0.14583 0.03646,0.40625 0.01563,0.78125c-0.02083,0.375 -0.14062,0.56771 -0.35937,0.57813c-0.08333,-0.20833 0.05208,-0.46875 0.40625,-0.78125c0.05208,0.41667 0.08333,0.51042 0.09375,0.28125c0.01042,-0.22917 0.05729,-0.42708 0.14063,-0.59375c0.13542,0.04167 0.1875,-0.01042 0.15625,-0.15625c0.10417,-0.11458 0.21354,-0.27083 0.32813,-0.46875c0.20833,0.15625 0.21875,0.20833 0.03125,0.15625c0,-0.15625 0.13542,-0.41146 0.40625,-0.76562c0.39583,-0.70833 0.625,-1.27604 0.6875,-1.70312v-0.21875c0.03125,-0.10417 0.04688,-0.19792 0.04688,-0.28125l0.10938,-0.375c0,-0.22917 0.15104,-0.29687 0.45313,-0.20312zM62.93948,192.2426c0.15625,-0.53125 0.69271,-0.79687 1.60938,-0.79687c0.05208,0 0.15104,-0.02604 0.29688,-0.07812c0.15625,-0.0625 0.42188,-0.10937 0.79688,-0.14062l0.21875,0.0625c0.15625,0 0.35417,0.0625 0.59375,0.1875c0.23958,0.11458 0.52604,0.22917 0.85938,0.34375l0.28125,0.28125l0.23438,0.15625c0.40625,0.10417 0.60938,0.34896 0.60938,0.73438l0.01563,0.04688c0.21875,0.29167 0.29688,0.61979 0.23438,0.98438c0.16667,0.36458 0.1875,0.9375 0.0625,1.71875c-0.03125,1.04167 -0.15104,1.875 -0.35937,2.5l-0.17187,0.28125l-0.76562,1.5c-0.33333,0.46875 -0.59896,0.77604 -0.79687,0.92188c-0.04167,0.17708 -0.36458,0.45313 -0.96875,0.82813l-0.29687,0.20313c-0.375,0.30208 -1.08333,0.58854 -2.125,0.85938c-0.17708,0.04167 -0.30729,0.0625 -0.39062,0.0625c-0.07292,0 -0.14583,0.01042 -0.21875,0.03125l-0.42187,-0.53125c0.42708,-0.20833 0.59375,-0.11458 0.5,0.28125v0.28125l0.03125,0.75c-0.04167,0.13542 -0.0625,0.29688 -0.0625,0.48438c0,0.19792 0.01563,0.34375 0.04688,0.4375l-0.09375,0.82813v0.8125c-0.09375,0.35417 -0.13542,0.59896 -0.125,0.73438c0.02083,0.14583 -0.06771,0.22917 -0.26562,0.25c0.1875,0 0.28125,0.07813 0.28125,0.23438c0,0.15625 -0.05208,0.35938 -0.15625,0.60938c-0.09375,0.26042 -0.1875,0.46354 -0.28125,0.60938c-0.09375,0.14583 -0.23958,0.05729 -0.4375,-0.26562c0.13542,0.29167 0.08854,0.52083 -0.14062,0.6875l-0.34375,0.0625c-0.70833,0 -1.26042,-0.14062 -1.65625,-0.42187c-0.39583,-0.28125 -0.625,-0.86979 -0.6875,-1.76562c0.3125,0.07292 0.38542,0.09375 0.21875,0.0625c-0.16667,-0.03125 -0.28646,-0.18229 -0.35937,-0.45312c0,-0.09375 -0.03125,-0.22396 -0.09375,-0.39062l0.07813,-0.64062c-0.0625,-0.57292 -0.08854,-0.91146 -0.07812,-1.01562c0.01042,-0.10417 0.02083,-0.18229 0.03125,-0.23437c0.01042,-0.04167 0,-0.17708 -0.03125,-0.40625c-0.02083,-0.22917 0.01563,-0.58333 0.10938,-1.0625c-0.02083,-0.125 -0.01562,-0.4375 0.01563,-0.9375c0.08333,-0.48958 0.125,-0.98437 0.125,-1.48437c0.0625,-0.10417 0.09375,-0.19271 0.09375,-0.26562v-0.5c0.29167,0.04167 0.29688,0.00521 0.01563,-0.10937l0.03125,-0.17187c0,-0.10417 0.03125,-0.40625 0.09375,-0.90625c0.07292,-0.51042 0.125,-0.84896 0.15625,-1.01562c0.04167,-0.17708 0.07813,-0.47917 0.10938,-0.90625c0.03125,-0.4375 0.04167,-0.6875 0.03125,-0.75c-0.0625,-0.1875 -0.02083,-0.61458 0.125,-1.28125c-0.02083,-0.14583 -0.03125,-0.49479 -0.03125,-1.04687c0.10417,-0.32292 0.15625,-0.80208 0.15625,-1.4375c0.09375,-0.45833 0.20313,-0.82812 0.32813,-1.10937c0.125,-0.28125 0.45833,-0.52604 1,-0.73437h0.23438c0.125,0.03125 0.27604,0.05729 0.45313,0.07813c0.70833,0.09375 1.13542,0.25 1.28125,0.46875l0.15625,0.14063c0.21875,0.22917 0.32813,0.55729 0.32813,0.98438c-0.04167,0.25 -0.20312,0.36979 -0.48437,0.35938zM70.43654,188.00823l0.1875,-1.57812l0.03125,-0.79687c0,-0.33333 0.07292,-0.60937 0.21875,-0.82812l0.3125,-0.4375c0.57292,-0.44792 0.96875,-0.70833 1.1875,-0.78125c0.22917,-0.08333 0.53125,-0.08333 0.90625,0c0.38542,0.08333 0.63542,0.18229 0.75,0.29688l0.21875,0.1875c0.32292,0.1875 0.48438,0.42188 0.48438,0.70313c0.15625,0.20833 0.15104,0.45313 -0.01562,0.73438c-0.0625,0.07292 -0.20833,1.03125 -0.4375,2.875l-0.21875,3.64063l-0.125,0.70313c0,0.15625 0.00521,0.25521 0.01563,0.29688v0.54688c-0.04167,0.45833 -0.07812,0.71875 -0.10937,0.78125c0,0.0625 -0.15625,0.10938 -0.46875,0.14063c0.3125,-0.09375 0.46875,0.05208 0.46875,0.4375c0,0.38542 -0.10937,0.57813 -0.32812,0.57813c0.13542,0.21875 0.20313,0.44271 0.20313,0.67188c0,0.22917 0.02083,0.48438 0.0625,0.76563c0.04167,0.28125 0.05729,0.5625 0.04688,0.84375l0.10938,1v0.39063c0.03125,0.32292 0.04688,0.58333 0.04688,0.78125l0.14063,1.34375l0.09375,0.70313c0.0625,0.38542 0.02604,0.78125 -0.10937,1.1875c-0.13542,0.41667 -0.38021,0.69271 -0.73437,0.82813c-0.75,0.30208 -1.48437,0.16146 -2.20312,-0.42187h-0.28125c-0.29167,-0.33333 -0.45833,-0.58854 -0.5,-0.76562c-0.21875,-0.10417 -0.31771,-0.27604 -0.29687,-0.51562c0.02083,-0.23958 -0.01042,-0.42708 -0.09375,-0.5625c-0.08333,-0.13542 -0.125,-0.30729 -0.125,-0.51562c0,-0.19792 -0.01562,-0.39583 -0.04687,-0.59375l0.34375,-0.14062c-0.27083,0.05208 -0.40625,-0.04687 -0.40625,-0.29687l-0.04687,-0.48437v-0.25c0,-0.10417 -0.01042,-0.20312 -0.03125,-0.29687c-0.01042,-0.09375 0.11979,-0.17187 0.39063,-0.23437c-0.27083,0.03125 -0.38021,-0.25 -0.32812,-0.84375c0.10417,-1.34375 0.15625,-2.27604 0.15625,-2.79687l0.03125,-0.64062v-0.75c0.01042,-0.4375 0.02083,-1.02083 0.03125,-1.75c0.01042,-0.73958 0.14583,-1.08333 0.40625,-1.03125l-0.34375,-0.125c0,-0.47917 0.06771,-1.08854 0.20313,-1.82812c0.13542,-0.73958 0.20313,-1.13021 0.20313,-1.17187zM81.19339,194.60198l0.15625,0.125c0.15625,0.05208 -0.00521,0.43229 -0.48437,1.14063c-0.65625,0.90625 -1.125,1.79688 -1.40625,2.67188c-0.17708,0.51042 -0.28125,0.91667 -0.3125,1.21875c0,0.30208 -0.03125,0.49479 -0.09375,0.57813c-0.08333,0.07292 -0.10937,0.05729 -0.07812,-0.04687c0.03125,-0.11458 0.03646,-0.25 0.01563,-0.40625c0.15625,-0.08333 0.30729,-0.25521 0.45313,-0.51562c0.26042,-0.36458 0.46875,-0.49479 0.625,-0.39062l-0.03125,-0.59375l0.89063,-0.5c-0.51042,0.34375 -0.60937,0.05208 -0.29687,-0.875c0.1875,-0.32292 0.28646,-0.55208 0.29688,-0.6875zM75.58401,200.91448c-0.0625,-0.76042 -0.05208,-1.38021 0.03125,-1.85937c0.41667,-1.51042 0.84375,-2.61458 1.28125,-3.3125c-0.21875,-0.05208 -0.26042,-0.31771 -0.125,-0.79687c0.21875,-0.6875 0.5,-1.06771 0.84375,-1.14062c-0.21875,-0.10417 -0.26042,-0.27083 -0.125,-0.5c0,-0.21875 0.25,-0.56771 0.75,-1.04687l0.29688,-0.34375c0.4375,-0.38542 1.00521,-0.57812 1.70313,-0.57812c0.25,-0.03125 0.5625,-0.01562 0.9375,0.04688c0.59375,0.26042 1.22917,0.63021 1.90625,1.10938l0.1875,0.10938c0.125,0.03125 0.22396,0.0625 0.29688,0.09375c0.05208,0 0.25521,0.05729 0.60938,0.17188l0.39063,0.3125c0.27083,0.17708 0.46354,0.53646 0.57813,1.07813c-0.15625,0.13542 -0.22917,0.42188 -0.21875,0.85938c-0.0625,0.73958 -0.00521,1.61458 0.17188,2.625c0.07292,0.9375 0.23958,1.94792 0.5,3.03125c0,0.07292 0.06771,0.31771 0.20313,0.73438c0.14583,0.40625 0.20313,0.6875 0.17188,0.84375c0,0.78125 -0.60417,1.17188 -1.8125,1.17188c-1.05208,-0.0625 -1.78646,-0.53646 -2.20312,-1.42187c-0.02083,-0.0625 -0.0625,-0.16146 -0.125,-0.29687c-0.26042,-0.25 -0.41146,-0.51042 -0.45312,-0.78125l0.20313,-0.28125c-0.21875,0.03125 -0.17187,-0.05208 0.14063,-0.25c0.08333,0.44792 -0.03125,0.82813 -0.34375,1.14063l-0.54687,0.875l-0.28125,0.09375c0.02083,0.21875 -0.22917,0.40104 -0.75,0.54688c-0.51042,0.14583 -0.86979,0.17188 -1.07812,0.07813c-0.0625,0 -0.20312,-0.03125 -0.42187,-0.09375l-1.17187,-0.46875c-0.375,-0.09375 -0.64583,-0.25521 -0.8125,-0.48437c-0.33333,-0.21875 -0.33854,-0.42708 -0.01562,-0.625c-0.52083,-0.25 -0.76042,-0.46354 -0.71875,-0.64062zM86.98547,195.3051c-0.03125,-0.32292 -0.04167,-0.55208 -0.03125,-0.6875v-0.6875l0.14063,-1.125c0,-0.0625 0.15104,-0.61458 0.45313,-1.65625c0.13542,-0.27083 0.28646,-0.52604 0.45313,-0.76562c0.17708,-0.32292 0.47396,-0.52604 0.89063,-0.60937c0.15625,-0.15625 0.77604,-0.09896 1.85938,0.17188c0.28125,0.28125 0.4375,1.03125 0.46875,2.25l-0.01562,1.15625v1.51563l-0.14062,1.10938l-0.07812,1.71875c0.0625,0.10417 0.07813,0.26563 0.04688,0.48438c-0.03125,0.21875 -0.02083,0.52604 0.03125,0.92188c0.10417,0.71875 0.1875,1.09896 0.25,1.14063c-0.16667,0.19792 -0.25521,0.17188 -0.26562,-0.07812c0,0 0.14583,-0.28125 0.4375,-0.84375l0.59375,-0.71875l-0.34375,-0.125l0.125,-0.26562c0.05208,-0.36458 0.13021,-0.63542 0.23438,-0.8125c-0.02083,-0.16667 0.13021,-0.68229 0.45313,-1.54687l-0.01562,-0.20312l0.07813,-0.4375l-0.07812,-0.82812c-0.10417,-0.58333 -0.15625,-1.01562 -0.15625,-1.29687l-0.10937,-0.98437c0,-0.33333 0.0625,-0.86979 0.1875,-1.60937c0.17708,-0.25 0.34375,-0.41146 0.5,-0.48437c0.16667,-0.07292 0.54167,-0.1875 1.125,-0.34375c0.17708,0.04167 0.36458,0.07813 0.5625,0.10938c0.19792,0.02083 0.39063,0.08854 0.57813,0.20313c0.3125,0.05208 0.54167,0.20313 0.6875,0.45313c0.09375,0.20833 0.16667,0.75521 0.21875,1.64063c0.05208,0.48958 0.07813,0.92188 0.07813,1.29688c0.0625,0.60417 0.09375,1.16146 0.09375,1.67188l0.01563,0.5v0.42188c-0.03125,0.32292 -0.03646,0.67188 -0.01562,1.04688c0.03125,0.375 0.04688,0.57813 0.04688,0.60938c0.05208,0.89583 0.07813,1.50521 0.07813,1.82813c0.03125,1.35417 0.02604,2.10417 -0.01562,2.25c-0.04167,0.13542 -0.01042,0.22917 0.09375,0.28125l-0.04687,0.95313c0,0.67708 -0.04687,1.28646 -0.14062,1.82813c0,0.20833 -0.02083,0.41667 -0.0625,0.625c-0.0625,0.39583 -0.125,0.81771 -0.1875,1.26563l-0.40625,0.65625c-0.29167,-0.08333 -0.375,-0.08854 -0.25,-0.01562c0.125,0.07292 0.07292,0.10417 -0.15625,0.09375c0.07292,0.23958 -0.21354,0.57292 -0.85937,1c-0.125,0.05208 -0.26042,0.13021 -0.40625,0.23438c-0.14583,0.11458 -0.4375,0.21875 -0.875,0.3125c-0.6875,0.08333 -1.39062,-0.00521 -2.10937,-0.26562l-0.67187,-0.23437c-1.10417,-0.55208 -1.71875,-0.92187 -1.84375,-1.10937c-0.11458,-0.1875 -0.15625,-0.33333 -0.125,-0.4375c-0.35417,-0.82292 -0.28125,-1.49479 0.21875,-2.01562c0.51042,-0.51042 1.27083,-0.44271 2.28125,0.20313c-0.15625,0.1875 0.07292,0.33333 0.6875,0.4375c0.36458,0.13542 0.58333,0.21354 0.65625,0.23438l0.0625,-0.01562l0.0625,-0.07812l0.46875,-0.0625c-0.25,-0.10417 -0.32292,-0.23958 -0.21875,-0.40625c0,-0.05208 0.05729,-0.28646 0.17188,-0.70312c0,-0.0625 0.01563,-0.23437 0.04688,-0.51562c0.03125,-0.27083 0.04688,-0.44792 0.04688,-0.53125v-0.82812c0.07292,-0.0625 0.05729,-0.47917 -0.04687,-1.25c0.39583,0.34375 0.42188,0.44792 0.07813,0.3125c0,-0.17708 0.15104,-0.27083 0.45313,-0.28125c0.27083,0.13542 0.30208,0.41667 0.09375,0.84375l-0.46875,0.4375c-0.11458,0.21875 -0.27604,0.35938 -0.48437,0.42188c-0.19792,0.07292 -0.52083,-0.08333 -0.96875,-0.46875c0.35417,0.25 0.30208,0.46354 -0.15625,0.64063c-0.5,0.01042 -0.85417,-0.01042 -1.0625,-0.0625c-0.19792,0 -0.34896,-0.01562 -0.45312,-0.04687c-0.34375,0 -0.63542,-0.11458 -0.875,-0.34375c-0.64583,-0.125 -1.15625,-0.8125 -1.53125,-2.0625c-0.14583,-1.17708 -0.21875,-1.875 -0.21875,-2.09375c0.01042,-0.22917 -0.01562,-0.58333 -0.07812,-1.0625l0.28125,-0.51562c-0.21875,0.02083 -0.34896,-0.22917 -0.39062,-0.75c-0.04167,-0.53125 -0.05208,-0.86979 -0.03125,-1.01562zM103.60753,193.64885c0.05208,-0.19792 0.05729,-0.39583 0.01563,-0.59375c0.07292,0.0625 0.06771,0.09375 -0.01562,0.09375c-0.02083,0 -0.09896,0.15625 -0.23437,0.46875c-0.27083,0.40625 -0.51042,0.96875 -0.71875,1.6875l-0.40625,-0.53125c0.15625,0.79167 0.08333,1.16146 -0.21875,1.10938c0.25,-0.23958 0.42188,-0.35937 0.51563,-0.35937c0.09375,-0.01042 0.20313,-0.06771 0.32813,-0.17187c0.32292,-0.30208 0.56771,-0.86979 0.73438,-1.70312zM104.07628,198.16448l-0.98437,0.07813c-0.625,0 -0.9375,-0.08333 -0.9375,-0.25h0.25c0.04167,1.30208 0.34896,2.125 0.92188,2.46875c0.125,0.05208 0.21354,0.07813 0.26563,0.07813c0.05208,0 0.13021,-0.03125 0.23438,-0.09375c-0.01042,0 -0.01042,-0.00521 0,-0.01562c0.0625,-0.44792 0.26042,-0.63021 0.59375,-0.54687c0.77083,-1.0625 1.48438,-1.42187 2.14063,-1.07812c0.55208,0.35417 0.82813,0.70313 0.82813,1.04688c0,0.23958 -0.10417,0.375 -0.3125,0.40625h0.17188c0,0.26042 -0.125,0.64583 -0.375,1.15625c-0.23958,0.51042 -0.48437,0.92708 -0.73437,1.25c-0.15625,0.34375 -0.38542,0.59375 -0.6875,0.75c-0.66667,0.41667 -1.375,0.58333 -2.125,0.5c-0.29167,-0.02083 -0.44271,-0.13021 -0.45312,-0.32812c0,-0.01042 -0.02083,0.0625 -0.0625,0.21875l-0.29687,-0.04687c-0.23958,0 -0.45833,-0.0625 -0.65625,-0.1875c-0.05208,-0.1875 -0.10937,-0.21354 -0.17187,-0.07812c-0.59375,-0.22917 -0.94792,-0.39062 -1.0625,-0.48437c-0.10417,-0.09375 -0.19792,-0.16146 -0.28125,-0.20312c-0.08333,-0.05208 -0.27083,-0.26042 -0.5625,-0.625c-0.25,-0.20833 -0.40104,-0.35937 -0.45312,-0.45312c-0.08333,-0.11458 -0.1875,-0.22396 -0.3125,-0.32812c-0.11458,-0.10417 -0.18229,-0.30208 -0.20312,-0.59375c-0.08333,-0.10417 -0.125,-0.25 -0.125,-0.4375l-0.09375,-0.21875c0.13542,-0.07292 0.14583,-0.06771 0.03125,0.01563c-0.23958,-0.23958 -0.35937,-0.51042 -0.35937,-0.8125l0.35938,-0.09375c-0.375,0.10417 -0.51042,-0.0625 -0.40625,-0.5v-0.60937l-0.03125,-0.23437v-0.14062c-0.03125,-0.11458 -0.01562,-0.30729 0.04688,-0.57812l-0.03125,-0.29687c0.26042,0.01042 0.29688,-0.13021 0.10938,-0.42187c0.09375,-0.48958 0.20833,-0.74479 0.34375,-0.76562l-0.125,-0.15625c0.02083,-0.0625 0.03125,-0.14062 0.03125,-0.23437c0,-0.09375 0.02604,-0.20312 0.07813,-0.32812c0.05208,-0.13542 0.19792,-0.55729 0.4375,-1.26562l0.4375,-0.95312c0.14583,-0.3125 0.33854,-0.61458 0.57813,-0.90625c0.01042,-0.05208 0.10417,-0.23958 0.28125,-0.5625l0.375,-0.34375c0.15625,-0.21875 0.38021,-0.38021 0.67188,-0.48437c0.3125,-0.15625 0.55729,-0.23437 0.73438,-0.23437l0.82813,-0.125c0.10417,0.03125 0.15625,0.04688 0.15625,0.04688h0.35938c0.47917,0.04167 0.85938,0.13021 1.14063,0.26563c0.58333,0.1875 1.03646,0.4375 1.35938,0.75c0.65625,0.73958 0.98438,1.44792 0.98438,2.125c0,0.66667 -0.10417,1.24479 -0.3125,1.73438c-0.45833,1.05208 -0.78646,1.71354 -0.98437,1.98438c-0.41667,0.76042 -0.95312,1.14063 -1.60937,1.14063zM108.20561,200.41448c0.34375,-2.30208 0.51563,-3.48958 0.51563,-3.5625l0.15625,-0.96875c0.21875,0.05208 0.23438,-0.26042 0.04688,-0.9375v-0.5625l0.0625,-0.53125c-0.05208,-0.35417 -0.07812,-0.625 -0.07812,-0.8125c-0.08333,-0.41667 -0.03125,-0.86979 0.15625,-1.35937c0.44792,-0.57292 1.10417,-0.76042 1.96875,-0.5625c0.32292,0.08333 0.58333,0.20313 0.78125,0.35938c0.25,0.09375 0.42708,0.18229 0.53125,0.26563c0.3125,0.125 0.34896,0.46354 0.10938,1.01563c-0.10417,-0.21875 0.27604,-0.48958 1.14063,-0.8125c0.125,0 0.35417,-0.03646 0.6875,-0.10937c0.34375,-0.08333 0.65625,-0.125 0.9375,-0.125c0.29167,0 0.54688,0.04688 0.76563,0.14063c0.45833,0.26042 0.71875,0.45313 0.78125,0.57813c0.07292,0.11458 0.18229,0.36458 0.32813,0.75c0.14583,0.38542 -0.04687,0.40104 -0.57812,0.04688c0.55208,0.0625 0.75521,0.31771 0.60938,0.76563c-0.30208,0.41667 -0.70833,0.65104 -1.21875,0.70313c-0.23958,0 -0.76562,0.24479 -1.57812,0.73438l-0.78125,0.39063c-0.67708,0.46875 -1.05729,0.63021 -1.14062,0.48438c-0.13542,3.77083 -0.25,5.88021 -0.34375,6.32813c-0.09375,0.28125 -0.31771,0.5625 -0.67187,0.84375c-0.34375,0.28125 -0.75,0.25 -1.21875,-0.09375l-0.3125,-0.10937c-0.39583,-0.16667 -0.73958,-0.44271 -1.03125,-0.82812l-0.375,-0.48437l-0.21875,-0.625c0,-0.13542 -0.01042,-0.26042 -0.03125,-0.375z" data-paper-data="{&quot;origPos&quot;:null}" fill="#000000" fill-rule="nonzero" stroke-width="1" stroke-linecap="square"/><path d="M378.10937,234.42592c0,-1.38071 1.11929,-2.5 2.5,-2.5c1.38071,0 2.5,1.11929 2.5,2.5c0,1.38071 -1.11929,2.5 -2.5,2.5c-1.38071,0 -2.5,-1.11929 -2.5,-2.5z" data-paper-data="{&quot;origPos&quot;:null}" fill="#9966ff" fill-rule="nonzero" stroke-width="0.5" stroke-linecap="butt"/></g></g></svg>