<svg version="1.1" xmlns="http://www.w3.org/2000/svg" xmlns:xlink="http://www.w3.org/1999/xlink" width="142.97415" height="62.01767"><g transform="translate(-168.51293,-148.99117)"><g data-paper-data="{&quot;isPaintingLayer&quot;:true}" fill="none" fill-rule="nonzero" stroke="none" stroke-width="none" stroke-linecap="none" stroke-linejoin="miter" stroke-miterlimit="10" stroke-dasharray="" stroke-dashoffset="0" font-family="none" font-weight="none" font-size="none" text-anchor="none" style="mix-blend-mode: normal"><path d="M192.76713,162.51381c0.1071,-0.54008 0.21574,-1.07996 0.3263,-1.61955h98.92198c-0.00833,0.53984 -0.01502,1.07969 -0.01992,1.61955z" data-paper-data="{&quot;origPos&quot;:null,&quot;index&quot;:null}" fill="#65815b" stroke="none" stroke-width="0" stroke-linecap="butt"/><path d="M188.21125,199.7636c0.08504,-4.97175 0.22118,-9.94338 0.34302,-14.91527c0.12661,-5.1667 -0.98698,-10.47238 1.2823,-15.5931c1.34844,-3.25431 2.38057,-6.55112 3.76961,-9.81857h98.4573c-0.12539,2.68618 -0.11735,5.37263 0.1611,8.06075c1.11378,10.75191 2.38805,21.5081 2.97907,32.26619z" data-paper-data="{&quot;origPos&quot;:null,&quot;index&quot;:null}" fill="#dbc19c" stroke="#b39d7f" stroke-width="10" stroke-linecap="butt"/><path d="M188.21125,199.7636c0.08504,-4.97175 0.22118,-9.94338 0.34302,-14.91527c0.12661,-5.1667 -0.98698,-10.47238 1.2823,-15.5931c1.34844,-3.25431 2.38057,-6.55112 3.76961,-9.81857h98.4573c-0.12539,2.68618 -0.11735,5.37263 0.1611,8.06075c1.11378,10.75191 2.38805,21.5081 2.97907,32.26619z" data-paper-data="{&quot;origPos&quot;:null,&quot;index&quot;:null}" fill="#a4cf93" stroke="#6f8368" stroke-width="10" stroke-linecap="butt"/><path d="M188.2528,194.28711c0.08405,-3.30868 0.19793,-6.61732 0.30145,-9.9261c0.12661,-4.04621 -0.98698,-8.20126 1.2823,-12.21146c0.11824,-0.22349 0.23406,-0.44722 0.34789,-0.67117h102.1338c1.01285,7.60069 2.13728,15.20406 2.75273,22.80875z" data-paper-data="{&quot;origPos&quot;:null,&quot;index&quot;:null}" fill="#9dc78d" stroke="none" stroke-width="0" stroke-linecap="butt"/><path d="M188.14148,204.62227c0.05289,-5.32959 0.24621,-10.65878 0.41277,-15.98834c0.07074,-2.26321 -0.24562,-4.56044 -0.14292,-6.84739h104.72412c1.02828,7.61003 2.00369,15.22241 2.30591,22.83574z" data-paper-data="{&quot;origPos&quot;:null,&quot;index&quot;:null}" fill="#97be87" stroke="none" stroke-width="0" stroke-linecap="butt"/><path d="M280.34444,206.83237l4.51324,-55.15701l6.83857,-0.45497l6.31705,5.50784z" data-paper-data="{&quot;origPos&quot;:null,&quot;origRot&quot;:0}" fill="#696053" stroke="none" stroke-width="0" stroke-linecap="butt"/><path d="M253.36202,170.3868c0,-1.34168 1.24549,-2.42934 2.78188,-2.42934c1.53639,0 2.78188,1.08765 2.78188,2.42934c0,1.34168 -1.24549,2.42934 -2.78188,2.42934c-1.53639,0 -2.78188,-1.08765 -2.78188,-2.42934z" data-paper-data="{&quot;origPos&quot;:null}" fill="#9dc78d" stroke="none" stroke-width="0.5" stroke-linecap="butt"/><g data-paper-data="{&quot;origPos&quot;:null}" stroke="none" stroke-width="0" stroke-linecap="butt"><path d="M280.34443,206.83237l4.51324,-55.15701l6.83856,-0.45497l6.31705,5.50784l9.02319,-3.6689l-4.51324,55.15701z" data-paper-data="{&quot;origPos&quot;:null,&quot;origRot&quot;:0}" fill="#696053"/><path d="M283.1259,208.08074l4.79546,-58.60614l7.26621,-0.48343l6.71207,5.85227l9.58744,-3.89833l-4.79546,58.60613z" data-paper-data="{&quot;origPos&quot;:null,&quot;origRot&quot;:0}" fill="#8b7f6e"/><path d="M283.12591,204.60316l4.51324,-55.15702l6.83857,-0.45497l6.31705,5.50785z" data-paper-data="{&quot;origPos&quot;:null,&quot;origRot&quot;:0}" fill="#817666"/></g><g data-paper-data="{&quot;index&quot;:null,&quot;origPos&quot;:null}" stroke="none" stroke-width="0" stroke-linecap="butt"><path d="M177.47677,209.67393l-4.51324,-55.15701l9.02319,3.6689l6.31705,-5.50784l6.83856,0.45497l4.51324,55.15701z" data-paper-data="{&quot;origPos&quot;:null,&quot;origRot&quot;:0}" fill="#696053"/><path d="M173.30839,211.00884l-4.79546,-58.60613l9.58744,3.89833l6.71207,-5.85227l7.26621,0.48343l4.79546,58.60614z" data-paper-data="{&quot;origPos&quot;:null,&quot;origRot&quot;:0}" fill="#8b7f6e"/><path d="M179.20524,155.95662l6.31705,-5.50785l6.83857,0.45497l4.51324,55.15702z" data-paper-data="{&quot;origPos&quot;:null,&quot;origRot&quot;:0}" fill="#817666"/></g><path d="M221.68786,174.10218c-0.5447,-0.30727 -1.38271,-0.4609 -2.51401,-0.4609l0.14665,1.40366c0.19554,1.29891 0.2095,3.6104 0.0419,6.93448c-0.11174,-0.09776 -0.22347,-0.21649 -0.3352,-0.35615c0.3352,-0.27934 0.67739,-0.419 1.02655,-0.419c0.0838,-0.01396 0.23045,-0.15364 0.43995,-0.419c0.74024,-0.61454 1.28494,-1.10337 1.63411,-1.46651l1.31986,-1.55031c0.23744,0.3352 0.34219,0.24442 0.31425,-0.27235c-0.01396,-0.53074 0,-0.92879 0.0419,-1.19415c0.15364,-0.4609 0.07681,-0.69834 -0.23045,-0.7123c0.30727,-0.26537 0.22347,-0.53772 -0.2514,-0.81705c0.01396,0.01396 -0.18157,-0.09776 -0.5866,-0.3352zM214.46008,168.5923l2.05311,-0.27235l2.68161,-0.18855l1.67601,0.23045c0,0.2514 0.11871,0.2933 0.35615,0.1257c0.81007,-0.02794 1.84361,0.39107 3.10061,1.25701c0.34917,0.11174 0.66342,0.34219 0.94275,0.69135l1.34081,1.61316c0.0838,0.0838 0.18157,0.24442 0.2933,0.48185c0.11174,0.22347 0.48185,0.83102 1.11035,1.82266c-0.89387,-0.4609 -1.09639,-0.73325 -0.60755,-0.81705c0.39107,0.6704 0.42599,1.06845 0.10475,1.19415c0.36314,-0.09776 0.61454,0.18157 0.7542,0.838c0.15364,0.65644 -0.02794,1.07544 -0.5447,1.25701c0.5028,-0.15364 0.70532,0.16062 0.60755,0.94275c-0.19554,1.27097 -0.53074,2.21372 -1.0056,2.82826l-0.4609,0.838l-0.838,1.23605l-0.5028,0.4609c-0.9218,1.01957 -2.06707,1.82266 -3.43581,2.40926c-0.0838,0.02794 -0.1676,0.04889 -0.2514,0.06285l-0.85895,0.31425l-0.85895,0.2095c0,0.2933 0.0838,1.67601 0.2514,4.14812c0.0838,0.78214 0.15364,1.23605 0.2095,1.36176c0,0.9637 -0.06984,1.64109 -0.2095,2.03216c-0.13966,0.39107 -0.3771,0.69135 -0.7123,0.90085c-0.3352,0.2095 -0.80309,0.3352 -1.40366,0.3771c-0.23744,0.06984 -0.60057,0.01396 -1.0894,-0.1676c-0.48884,-0.18157 -0.93577,-0.49582 -1.34081,-0.94275l-0.31425,-1.80171c0.47487,0.13966 0.4609,0.15364 -0.0419,0.0419c-0.19554,-0.23744 -0.36314,-0.6704 -0.5028,-1.29891l-0.2514,-3.45676v-0.39805c-1.24303,0.0838 -2.06707,-0.4609 -2.4721,-1.63411c-0.39107,-0.7542 -0.42599,-1.29192 -0.10475,-1.61316l0.1676,-0.3771c0.43297,-0.72627 1.19415,-1.0894 2.28355,-1.0894l0.6704,0.69135c-0.47487,0.18157 -0.7123,0.0419 -0.7123,-0.419l-0.14665,-1.48746v-0.64945l-0.0419,-0.52375c0.02794,-0.18157 0.01396,-0.38409 -0.0419,-0.60755v-0.2933l-0.06285,-0.8799v-0.6704l-0.0419,-0.35615c0,-1.62014 0.04889,-2.3953 0.14665,-2.32546c-0.43297,0.30727 -0.84498,0.48884 -1.23605,0.5447c-0.39107,0.0419 -0.97767,-0.17459 -1.75981,-0.64945c-0.44694,-0.36314 -0.69135,-0.7123 -0.73325,-1.0475c-0.51677,-0.7123 -0.65644,-1.36176 -0.419,-1.94836c0.06984,-0.27934 0.2933,-0.62152 0.6704,-1.02655c0.02794,-0.18157 0.36314,-0.47487 1.0056,-0.8799c0.5028,-0.48884 1.36175,-0.85197 2.57685,-1.0894zM229.69065,173.53652l0.2514,-2.11596l0.0419,-1.06845c0,-0.44694 0.09776,-0.81705 0.2933,-1.11035l0.419,-0.5866c0.76817,-0.60057 1.29891,-0.94974 1.59221,-1.0475c0.30727,-0.11174 0.7123,-0.11174 1.2151,0c0.51677,0.11174 0.85197,0.24442 1.0056,0.39805l0.2933,0.2514c0.43297,0.2514 0.64945,0.56565 0.64945,0.94275c0.2095,0.27934 0.20252,0.60755 -0.02095,0.98465c-0.0838,0.09776 -0.27934,1.38271 -0.5866,3.85482l-0.2933,4.88137l-0.1676,0.94275c0,0.2095 0.00699,0.34219 0.02095,0.39805v0.73325c-0.05586,0.61454 -0.10475,0.9637 -0.14665,1.0475c0,0.0838 -0.2095,0.14665 -0.6285,0.18855c0.419,-0.1257 0.6285,0.06984 0.6285,0.5866c0,0.51677 -0.14665,0.77515 -0.43995,0.77515c0.18157,0.2933 0.27235,0.59359 0.27235,0.90085c0,0.30727 0.02794,0.64945 0.0838,1.02655c0.05586,0.3771 0.07681,0.7542 0.06285,1.1313l0.14665,1.34081v0.52375c0.0419,0.43297 0.06285,0.78214 0.06285,1.0475l0.18855,1.80171l0.1257,0.94275c0.0838,0.51677 0.03491,1.0475 -0.14665,1.59221c-0.18157,0.55867 -0.50979,0.92879 -0.98465,1.11035c-1.0056,0.40504 -1.99026,0.21649 -2.95396,-0.56565h-0.3771c-0.39107,-0.44694 -0.61454,-0.78912 -0.6704,-1.02655c-0.2933,-0.13966 -0.42599,-0.37012 -0.39805,-0.69135c0.02794,-0.32124 -0.01396,-0.57264 -0.1257,-0.7542c-0.11174,-0.18157 -0.1676,-0.41202 -0.1676,-0.69135c0,-0.26537 -0.02095,-0.53074 -0.06285,-0.7961l0.4609,-0.18855c-0.36314,0.06984 -0.5447,-0.06285 -0.5447,-0.39805l-0.06285,-0.64945v-0.3352c0,-0.13966 -0.01396,-0.27235 -0.0419,-0.39805c-0.01396,-0.1257 0.16062,-0.23045 0.52375,-0.31425c-0.36314,0.0419 -0.50979,-0.3352 -0.43995,-1.1313c0.13966,-1.80171 0.2095,-3.05173 0.2095,-3.75006l0.0419,-0.85895v-1.0056c0.01396,-0.5866 0.02794,-1.36874 0.0419,-2.34641c0.01396,-0.99164 0.19554,-1.45254 0.5447,-1.38271l-0.4609,-0.1676c0,-0.64247 0.09079,-1.45952 0.27235,-2.45116c0.18157,-0.99164 0.27235,-1.51539 0.27235,-1.57126zM243.9878,182.46126c-0.01396,-0.34917 -0.06984,-0.5866 -0.1676,-0.7123c-0.09776,-0.13966 -0.23744,-0.21649 -0.419,-0.23045c0.09776,-0.06984 0.02095,0.18855 -0.23045,0.77515c-0.23744,0.57264 -0.38409,1.22209 -0.43995,1.94836c-0.23744,1.11734 -0.35615,2.22071 -0.35615,3.31011c0.02794,1.01957 0.19554,1.75981 0.5028,2.22071c-0.3771,0.26537 -0.6285,0.17459 -0.7542,-0.27235c0.15364,0.27934 0.2095,0.1676 0.1676,-0.3352c1.20114,-2.17881 1.76679,-4.41348 1.69696,-6.70403zM246.56466,189.41669l-0.94275,1.31986c0.26537,0.15364 0.02095,0.76817 -0.73325,1.84361c-0.32124,0.6704 -0.86594,1.03354 -1.63411,1.0894c-0.76817,0.05586 -1.47349,-0.01396 -2.11596,-0.2095c-0.838,-0.27934 -1.48746,-0.63549 -1.94836,-1.06845c-0.4609,-0.43297 -0.90085,-1.11734 -1.31986,-2.05311c-0.40504,-0.93577 -0.61454,-1.71092 -0.6285,-2.32546c-0.1257,-0.78214 -0.18855,-1.30589 -0.18855,-1.57126v-0.838c0,-0.97767 0.04889,-1.57126 0.14665,-1.78076c0.01396,-0.0419 0.06285,-0.24442 0.14665,-0.60755c0.1257,-1.06147 0.43995,-2.08104 0.94275,-3.05871c1.0056,-1.99724 2.11596,-3.0238 3.33106,-3.07966h0.3352c0,0.2514 0.02794,0.25839 0.0838,0.02095h0.48185c0.94974,0.0838 1.53634,0.17459 1.75981,0.27235c0.2514,0.05586 0.50979,0.0838 0.77515,0.0838l0.8799,0.18855c0.32124,-0.0419 0.78214,0.03491 1.38271,0.23045c0.61454,0.19554 0.9637,0.39107 1.0475,0.5866c0.09776,0.18157 0.19554,0.51677 0.2933,1.0056c0.11174,0.48884 0.18855,0.84499 0.23045,1.06845c0.0419,0.2095 0.07681,0.42599 0.10475,0.64945c0.18157,1.70394 0.47487,3.2752 0.8799,4.71377c0.0419,0.09776 0.06984,0.22347 0.0838,0.3771c0.02794,0.15364 0.11174,0.43297 0.2514,0.838c0.15364,0.39107 0.25839,0.72627 0.31425,1.0056c0.06984,0.27934 0.20252,0.64247 0.39805,1.0894c0.1257,0.3352 0.30727,0.7123 0.5447,1.1313c0.89387,1.24304 0.49582,2.17881 -1.19415,2.80731c-0.22347,0.06984 -0.55169,0.10475 -0.98465,0.10475c-0.2095,0 -0.5028,-0.11871 -0.8799,-0.35615c-0.32124,0 -0.61454,-0.15364 -0.8799,-0.4609l-0.2514,-0.0838c-0.0419,-0.2933 -0.16062,-0.34917 -0.35615,-0.1676c-0.26537,-0.2514 -0.57962,-1.31287 -0.94275,-3.18441c0.39107,0.0419 0.5866,0.18157 0.5866,0.419zM252.41566,183.32021c-0.0419,-0.43297 -0.05586,-0.74024 -0.0419,-0.9218v-0.9218l0.18855,-1.50841c0,-0.0838 0.20252,-0.82404 0.60755,-2.22071c0.18157,-0.36314 0.38409,-0.70532 0.60755,-1.02655c0.23744,-0.43297 0.63549,-0.70532 1.19415,-0.81705c0.2095,-0.2095 1.04053,-0.13269 2.49307,0.23045c0.3771,0.3771 0.5866,1.38271 0.6285,3.01681l-0.02095,1.55031v2.03216l-0.18855,1.48746l-0.10475,2.30451c0.0838,0.13966 0.10475,0.35615 0.06285,0.64945c-0.0419,0.2933 -0.02794,0.70532 0.0419,1.23605c0.13966,0.9637 0.2514,1.47349 0.3352,1.52936c-0.22347,0.26537 -0.34219,0.23045 -0.35615,-0.10475c0,0 0.19554,-0.3771 0.5866,-1.1313l0.7961,-0.9637l-0.4609,-0.1676l0.1676,-0.35615c0.06984,-0.48884 0.17459,-0.85197 0.31425,-1.0894c-0.02794,-0.22347 0.17459,-0.91482 0.60755,-2.07406l-0.02095,-0.27235l0.10475,-0.5866l-0.10475,-1.11035c-0.13966,-0.78214 -0.2095,-1.36176 -0.2095,-1.73886l-0.14665,-1.31986c0,-0.44694 0.0838,-1.16622 0.2514,-2.15786c0.23744,-0.3352 0.4609,-0.55169 0.6704,-0.64945c0.22347,-0.09776 0.72627,-0.2514 1.50841,-0.4609c0.23744,0.05586 0.48884,0.10475 0.7542,0.14665c0.26537,0.02794 0.52375,0.11871 0.77515,0.27235c0.419,0.06984 0.72627,0.27235 0.9218,0.60755c0.1257,0.27934 0.22347,1.01259 0.2933,2.19976c0.06984,0.65644 0.10475,1.23605 0.10475,1.73886c0.0838,0.81007 0.1257,1.55729 0.1257,2.24166l0.02095,0.6704v0.56565c-0.0419,0.43297 -0.04889,0.90085 -0.02095,1.40366c0.0419,0.5028 0.06285,0.77515 0.06285,0.81705c0.06984,1.20114 0.10475,2.01819 0.10475,2.45116c0.0419,1.81567 0.03491,2.82128 -0.02095,3.01681c-0.05586,0.18157 -0.01396,0.30727 0.1257,0.3771l-0.06285,1.27796c0,0.90784 -0.06285,1.72489 -0.18855,2.45116c0,0.27934 -0.02794,0.55867 -0.0838,0.838c-0.0838,0.53074 -0.1676,1.09639 -0.2514,1.69696l-0.5447,0.8799c-0.39107,-0.11174 -0.5028,-0.11871 -0.3352,-0.02095c0.1676,0.09776 0.09776,0.13966 -0.2095,0.1257c0.09776,0.32124 -0.28632,0.76817 -1.15225,1.34081c-0.1676,0.06984 -0.34917,0.17459 -0.5447,0.31425c-0.19554,0.15364 -0.5866,0.2933 -1.1732,0.419c-0.9218,0.11174 -1.86456,-0.00699 -2.82826,-0.35615l-0.90085,-0.31425c-1.48048,-0.74024 -2.30452,-1.23605 -2.47212,-1.48746c-0.15364,-0.2514 -0.2095,-0.44694 -0.1676,-0.5866c-0.47487,-1.10337 -0.3771,-2.00422 0.2933,-2.70256c0.68437,-0.68437 1.70394,-0.59359 3.05872,0.27235c-0.2095,0.2514 0.09776,0.44694 0.9218,0.5866c0.48884,0.18157 0.78214,0.28632 0.8799,0.31425l0.0838,-0.02095l0.0838,-0.10475l0.6285,-0.0838c-0.3352,-0.13966 -0.43297,-0.32124 -0.2933,-0.5447c0,-0.06984 0.07681,-0.38409 0.23045,-0.94275c0,-0.0838 0.02095,-0.31425 0.06285,-0.69135c0.0419,-0.36314 0.06285,-0.60057 0.06285,-0.7123v-1.11035c0.09776,-0.0838 0.07681,-0.64247 -0.06285,-1.67601c0.53074,0.4609 0.56565,0.60057 0.10475,0.419c0,-0.23744 0.20252,-0.36314 0.60755,-0.3771c0.36314,0.18157 0.40504,0.55867 0.1257,1.1313l-0.6285,0.5866c-0.15364,0.2933 -0.37012,0.48185 -0.64945,0.56565c-0.26537,0.09776 -0.69834,-0.11174 -1.29891,-0.6285c0.47487,0.3352 0.40504,0.62152 -0.2095,0.85895c-0.6704,0.01396 -1.14528,-0.01396 -1.42461,-0.0838c-0.26537,0 -0.46789,-0.02095 -0.60755,-0.06285c-0.4609,0 -0.85197,-0.15364 -1.1732,-0.4609c-0.86594,-0.1676 -1.55031,-1.0894 -2.05311,-2.76541c-0.19554,-1.57824 -0.2933,-2.51401 -0.2933,-2.80731c0.01396,-0.30727 -0.02095,-0.78214 -0.10475,-1.42461l0.3771,-0.69135c-0.2933,0.02794 -0.46789,-0.30727 -0.52375,-1.0056c-0.05586,-0.7123 -0.06984,-1.16622 -0.0419,-1.36176z" data-paper-data="{&quot;origPos&quot;:null}" fill="#ffffff" stroke="none" stroke-width="1" stroke-linecap="square"/></g></g></svg>