<svg version="1.1" xmlns="http://www.w3.org/2000/svg" xmlns:xlink="http://www.w3.org/1999/xlink" width="391.38206" height="1343.24629"><g transform="translate(-119.00003,582.9437)"><g data-paper-data="{&quot;isPaintingLayer&quot;:true}" fill="none" fill-rule="nonzero" stroke="none" stroke-width="none" stroke-linecap="butt" stroke-linejoin="miter" stroke-miterlimit="10" stroke-dasharray="" stroke-dashoffset="0" font-family="none" font-weight="none" font-size="none" text-anchor="none" style="mix-blend-mode: normal"><path d="M455.386,228.20003v162h-256.27121c0.97199,-6.31682 1.85253,-12.64053 2.18794,-18.99999c0.7879,-14.9377 -1.03361,-29.72579 -4.84072,-44.51472c-3.20869,-12.24761 -3.91843,-24.49343 -6.1294,-36.80692c-0.85736,-4.77485 -2.67083,-9.48799 -3.47704,-14.26558c-2.15637,-12.77866 -1.77091,-25.5977 -1.77091,-38.41278c0,-2.98632 -0.10639,-5.99201 -0.19007,-9.00001z" data-paper-data="{&quot;origPos&quot;:null}" fill="#dbc19c" stroke="#b39d7f" stroke-width="10"/><path d="M455.386,228.20003v162h-256.27121c0.97199,-6.31682 1.85253,-12.64053 2.18794,-18.99999c0.7879,-14.9377 -1.03361,-29.72579 -4.84072,-44.51472c-3.20869,-12.24761 -3.91843,-24.49343 -6.1294,-36.80692c-0.85736,-4.77485 -2.67083,-9.48799 -3.47704,-14.26558c-2.15637,-12.77866 -1.77091,-25.5977 -1.77091,-38.41278c0,-2.98632 -0.10639,-5.99201 -0.19007,-9.00001z" data-paper-data="{&quot;origPos&quot;:null}" fill="#9c9c9c" stroke="#828282" stroke-width="10"/><path d="M468.00001,233.20003v3.33333h-282.91712c-0.00561,-1.10891 -0.02453,-2.22031 -0.05018,-3.33333z" data-paper-data="{&quot;origPos&quot;:null}" fill="#7a7a7a" stroke="none" stroke-width="0"/><path d="M448.17792,263.20001v117h-247.66869c0.35438,-2.99404 0.63487,-5.99302 0.79345,-8.99999c0.7879,-14.9377 -1.03361,-29.72579 -4.84072,-44.51472c-3.20869,-12.24761 -3.91843,-24.49343 -6.1294,-36.80692c-0.85736,-4.77485 -2.67083,-9.48799 -3.47704,-14.26558c-0.69758,-4.13387 -1.12915,-8.27197 -1.39383,-12.41279z" data-paper-data="{&quot;origPos&quot;:null}" fill="#999999" stroke="none" stroke-width="0"/><path d="M458.17792,568.40003v128h-251.44742c1.48115,-12.76254 3.95359,-25.46006 4.57218,-38.2906c0.7879,-16.3421 -1.03361,-32.52052 -4.84072,-48.69986c-3.20869,-13.39909 -3.91843,-26.79623 -6.1294,-40.2674c-0.04061,-0.24752 -0.0834,-0.4949 -0.1281,-0.74214z" data-paper-data="{&quot;origPos&quot;:null}" fill="#d1b694" stroke="none" stroke-width="0"/><path d="M414.97288,275.20001v0v13z" data-paper-data="{&quot;origPos&quot;:null}" fill="#dbc19c" stroke="none" stroke-width="0"/><path d="M182.00004,573.2v-270h268v270z" data-paper-data="{&quot;origPos&quot;:null}" fill="#959595" stroke="none" stroke-width="0"/><path d="M131.20367,725.1796l5.66428,-150.41586l16.20488,-1.78541l15.51267,14.47821l21.10021,-10.70383l-5.66428,150.41586z" data-paper-data="{&quot;origPos&quot;:null,&quot;origRot&quot;:0}" fill="#696053" stroke="none" stroke-width="0"/><path d="M131.20367,725.1796l5.66428,-150.41586l16.20488,-1.7854l15.51267,14.47821z" data-paper-data="{&quot;origPos&quot;:null,&quot;origRot&quot;:0}" fill="#696053" stroke="none" stroke-width="0"/><path d="M139.44035,714.21463l5.66428,-150.41586l16.20488,-1.78541l15.51267,14.47821l21.10021,-10.70383l-5.66428,150.41586z" data-paper-data="{&quot;origPos&quot;:null,&quot;origRot&quot;:0}" fill="#8b7f6e" stroke="none" stroke-width="0"/><path d="M119.00003,608.80004v-13v0z" data-paper-data="{&quot;origPos&quot;:null}" fill="#dbc19c" stroke="none" stroke-width="0"/><g data-paper-data="{&quot;index&quot;:null,&quot;origPos&quot;:null}" stroke="none" stroke-width="0"><path d="M145.92797,265.05852l-7.22523,-150.34896l15.99272,-3.16526l16.69447,13.09795l20.10709,-12.4698l7.22523,150.34896z" data-paper-data="{&quot;origPos&quot;:null,&quot;origRot&quot;:0}" fill="#6e6e6e"/><path d="M145.92797,265.05851l-7.22523,-150.34896l15.99272,-3.16525l16.69447,13.09795z" data-paper-data="{&quot;origPos&quot;:null,&quot;origRot&quot;:0}" fill="#696053"/><path d="M147.32625,266.05852l-7.22523,-150.34896l15.99272,-3.16526l16.69447,13.09795l20.10709,7.5302l7.22523,130.34896z" data-paper-data="{&quot;origPos&quot;:null,&quot;origRot&quot;:0}" fill="#6e6e6e"/><path d="M147.3262,266.05851l-7.22523,-150.34896l15.99272,-3.16525l16.69447,13.09795z" data-paper-data="{&quot;origPos&quot;:null,&quot;origRot&quot;:0}" fill="#696053"/><path d="M138.59464,258.42907l-7.22523,-150.34896l15.99272,-3.16526l16.69447,13.09795l20.10709,-12.4698l7.22523,150.34896z" data-paper-data="{&quot;origPos&quot;:null,&quot;origRot&quot;:0}" fill="#8c8c8c"/><path d="M138.59462,258.42905l-7.22523,-150.34896l15.99272,-3.16525l16.69447,13.09795z" data-paper-data="{&quot;origPos&quot;:null,&quot;origRot&quot;:0}" fill="#828282"/><path d="M153.32625,399.25853l-7.22523,-150.34896l15.99272,-3.16526l16.69447,13.09795l20.10709,-12.4698l7.22523,150.34896z" data-paper-data="{&quot;origPos&quot;:null,&quot;origRot&quot;:0}" fill="#6e6e6e"/><path d="M153.3262,399.25849l-7.22523,-150.34896l15.99272,-3.16525l16.69447,13.09795z" data-paper-data="{&quot;origPos&quot;:null,&quot;origRot&quot;:0}" fill="#696053"/><path d="M144.92797,391.62907l-7.22523,-150.34896l15.99272,-3.16526l16.69447,13.09795l20.10709,-12.4698l7.22523,150.34896z" data-paper-data="{&quot;origPos&quot;:null,&quot;origRot&quot;:0,&quot;index&quot;:null}" fill="#8c8c8c"/><path d="M159.32625,513.25853l-7.22523,-150.34896l15.99272,-3.16526l16.69447,13.09795l20.10709,-12.4698l7.22523,150.34896z" data-paper-data="{&quot;origPos&quot;:null,&quot;origRot&quot;:0}" fill="#696053"/><path d="M159.3262,513.25849l-7.22523,-150.34896l15.99272,-3.16525l16.69447,13.09795z" data-paper-data="{&quot;origPos&quot;:null,&quot;origRot&quot;:0}" fill="#696053"/><path d="M150.92797,505.62903l-7.22523,-150.34896l15.99272,-3.16526l16.69447,13.09795l20.10709,-12.4698l7.22523,150.34896z" data-paper-data="{&quot;origPos&quot;:null,&quot;origRot&quot;:0,&quot;index&quot;:null}" fill="#8c8c8c"/><path d="M159.00005,388.20004v-13v0z" data-paper-data="{&quot;origPos&quot;:null}" fill="#dbc19c"/></g><path d="M443.66333,758.31362l5.66428,-150.41586l16.20488,-1.78541l15.51267,14.47821l21.10021,-10.70383l-5.66428,150.41586z" data-paper-data="{&quot;origPos&quot;:null,&quot;origRot&quot;:0}" fill="#696053" stroke="none" stroke-width="0"/><path d="M451.90006,747.34863l5.66428,-150.41586l16.20488,-1.78541l15.51267,14.47821l21.10021,-10.70383l-5.66428,150.41586z" data-paper-data="{&quot;origPos&quot;:null,&quot;origRot&quot;:0}" fill="#8c8c8c" stroke="none" stroke-width="0"/><g data-paper-data="{&quot;origPos&quot;:null}"><path d="M181.89457,-205.8852c0.08368,-3.008 0.19007,-6.01369 0.19007,-9.00001c0,-12.81508 -0.38546,-25.63412 1.77091,-38.41278c0.80621,-4.77759 2.61968,-9.49073 3.47704,-14.26558c2.21097,-12.31349 2.92071,-24.55931 6.1294,-36.80692c3.80711,-14.78893 5.62862,-29.57702 4.84072,-44.51472c-0.33541,-6.35946 -1.21595,-12.68317 -2.18794,-18.99999h256.27121v162z" data-paper-data="{&quot;origPos&quot;:null,&quot;index&quot;:null}" fill="#dbc19c" stroke="#b39d7f" stroke-width="10"/><path d="M181.89457,-205.8852c0.08368,-3.008 0.19007,-6.01369 0.19007,-9.00001c0,-12.81508 -0.38546,-25.63412 1.77091,-38.41278c0.80621,-4.77759 2.61968,-9.49073 3.47704,-14.26558c2.21097,-12.31349 2.92071,-24.55931 6.1294,-36.80692c3.80711,-14.78893 5.62862,-29.57702 4.84072,-44.51472c-0.33541,-6.35946 -1.21595,-12.68317 -2.18794,-18.99999h256.27121v162z" data-paper-data="{&quot;origPos&quot;:null,&quot;index&quot;:null}" fill="#9c9c9c" stroke="#828282" stroke-width="10"/><path d="M182.03273,-210.8852c0.02565,-1.11302 0.04457,-2.22442 0.05018,-3.33333h282.91712v3.33333z" data-paper-data="{&quot;origPos&quot;:null,&quot;index&quot;:null}" fill="#7a7a7a" stroke="none" stroke-width="0"/><path d="M182.46173,-240.88518c0.26468,-4.14082 0.69625,-8.27892 1.39383,-12.41279c0.80621,-4.77759 2.61968,-9.49073 3.47704,-14.26558c2.21097,-12.31349 2.92071,-24.55931 6.1294,-36.80692c3.80711,-14.78893 5.62862,-29.57702 4.84072,-44.51472c-0.15858,-3.00697 -0.43907,-6.00595 -0.79345,-8.99999h247.66869v117z" data-paper-data="{&quot;origPos&quot;:null,&quot;index&quot;:null}" fill="#999999" stroke="none" stroke-width="0"/><path d="M411.97288,-252.88518v0v-13z" data-paper-data="{&quot;origPos&quot;:null,&quot;index&quot;:null}" fill="#dbc19c" stroke="none" stroke-width="0"/><path d="M447.00001,-568.88517v270h-268v-270z" data-paper-data="{&quot;origPos&quot;:null,&quot;index&quot;:null}" fill="#959595" stroke="none" stroke-width="0"/><path d="M485.48128,-346.93061l5.66428,150.41586l-21.10021,-10.70383l-15.51267,14.47821l-16.20488,-1.78541l-5.66428,-150.41586z" data-paper-data="{&quot;origPos&quot;:null,&quot;origRot&quot;:0,&quot;index&quot;:null}" fill="#6e6e6e" stroke="none" stroke-width="0"/><path d="M470.04531,-213.21858l-15.51267,14.47821l-16.20488,-1.7854l-5.66428,-150.41586z" data-paper-data="{&quot;origPos&quot;:null,&quot;origRot&quot;:0,&quot;index&quot;:null}" fill="#6e6e6e" stroke="none" stroke-width="0"/><path d="M493.71795,-335.96564l5.66428,150.41586l-21.10021,-10.70383l-15.51267,14.47821l-16.20488,-1.78541l-5.66428,-150.41586z" data-paper-data="{&quot;origPos&quot;:null,&quot;origRot&quot;:0,&quot;index&quot;:null}" fill="#8c8c8c" stroke="none" stroke-width="0"/><path d="M478.28205,-196.25362l-15.51267,14.47821l-16.20488,-1.7854l-5.66428,-150.41586z" data-paper-data="{&quot;origPos&quot;:null,&quot;origRot&quot;:0,&quot;index&quot;:null}" fill="#828282" stroke="none" stroke-width="0"/><path d="M480.4811,-479.18775l5.66428,150.41586l-21.10021,-10.70383l-15.51267,14.47821l-16.20488,-1.78541l-5.66428,-150.41586z" data-paper-data="{&quot;origPos&quot;:null,&quot;origRot&quot;:0,&quot;index&quot;:null}" fill="#696053" stroke="none" stroke-width="0"/><path d="M465.04513,-339.4757l-15.51267,14.47821l-16.20488,-1.7854l-5.66428,-150.41586z" data-paper-data="{&quot;origPos&quot;:null,&quot;origRot&quot;:0,&quot;index&quot;:null}" fill="#6e6e6e" stroke="none" stroke-width="0"/><path d="M488.71777,-468.22276l5.66428,150.41586l-21.10021,-10.70383l-15.51267,14.47821l-16.20488,-1.78541l-5.66428,-150.41586z" data-paper-data="{&quot;origPos&quot;:null,&quot;origRot&quot;:0,&quot;index&quot;:null}" fill="#8c8c8c" stroke="none" stroke-width="0"/><g data-paper-data="{&quot;index&quot;:null,&quot;origPos&quot;:null}" stroke="none" stroke-width="0"><path d="M198.72229,-332.20658l-7.22523,150.34896l-20.10709,-12.4698l-16.69447,13.09795l-15.99272,-3.16526l7.22523,-150.34896z" data-paper-data="{&quot;origPos&quot;:null,&quot;origRot&quot;:0}" fill="#6e6e6e"/><path d="M171.38991,-194.32742l-16.69447,13.09795l-15.99272,-3.16525l7.22523,-150.34896z" data-paper-data="{&quot;origPos&quot;:null,&quot;origRot&quot;:0}" fill="#696053"/><path d="M200.12056,-333.20658l-7.22523,130.34896l-20.10709,7.5302l-16.69447,13.09795l-15.99272,-3.16526l7.22523,-150.34896z" data-paper-data="{&quot;origPos&quot;:null,&quot;origRot&quot;:0}" fill="#6e6e6e"/><path d="M172.78819,-195.32742l-16.69447,13.09795l-15.99272,-3.16525l7.22523,-150.34896z" data-paper-data="{&quot;origPos&quot;:null,&quot;origRot&quot;:0}" fill="#696053"/><path d="M191.38893,-325.57713l-7.22523,150.34896l-20.10709,-12.4698l-16.69447,13.09795l-15.99272,-3.16526l7.22523,-150.34896z" data-paper-data="{&quot;origPos&quot;:null,&quot;origRot&quot;:0}" fill="#8c8c8c"/><path d="M164.05658,-187.69796l-16.69447,13.09795l-15.99272,-3.16525l7.22523,-150.34896z" data-paper-data="{&quot;origPos&quot;:null,&quot;origRot&quot;:0}" fill="#828282"/><path d="M206.12056,-466.40659l-7.22523,150.34896l-20.10709,-12.4698l-16.69447,13.09795l-15.99272,-3.16526l7.22523,-150.34896z" data-paper-data="{&quot;origPos&quot;:null,&quot;origRot&quot;:0}" fill="#6e6e6e"/><path d="M178.78819,-328.5274l-16.69447,13.09795l-15.99272,-3.16525l7.22523,-150.34896z" data-paper-data="{&quot;origPos&quot;:null,&quot;origRot&quot;:0}" fill="#696053"/><path d="M197.72229,-458.77713l-7.22523,150.34896l-20.10709,-12.4698l-16.69447,13.09795l-15.99272,-3.16526l7.22523,-150.34896z" data-paper-data="{&quot;origPos&quot;:null,&quot;origRot&quot;:0,&quot;index&quot;:null}" fill="#8c8c8c"/><path d="M212.12056,-580.40659l-7.22523,150.34896l-20.10709,-12.4698l-16.69447,13.09795l-15.99272,-3.16526l7.22523,-150.34896z" data-paper-data="{&quot;origPos&quot;:null,&quot;origRot&quot;:0}" fill="#696053"/><path d="M184.78819,-442.5274l-16.69447,13.09795l-15.99272,-3.16525l7.22523,-150.34896z" data-paper-data="{&quot;origPos&quot;:null,&quot;origRot&quot;:0}" fill="#696053"/><path d="M203.72229,-572.77709l-7.22523,150.34896l-20.10709,-12.4698l-16.69447,13.09795l-15.99272,-3.16526l7.22523,-150.34896z" data-paper-data="{&quot;origPos&quot;:null,&quot;origRot&quot;:0,&quot;index&quot;:null}" fill="#8c8c8c"/><path d="M159.00005,-444.88521v0v-13z" data-paper-data="{&quot;origPos&quot;:null}" fill="#dbc19c"/></g></g></g></g></svg>