<svg version="1.1" xmlns="http://www.w3.org/2000/svg" xmlns:xlink="http://www.w3.org/1999/xlink" width="43.39178" height="56.037" viewBox="0,0,43.39178,56.037"><g transform="translate(-218.05413,-144.56234)"><g data-paper-data="{&quot;isPaintingLayer&quot;:true}" fill="none" fill-rule="nonzero" stroke="none" stroke-width="none" stroke-linecap="none" stroke-linejoin="miter" stroke-miterlimit="10" stroke-dasharray="" stroke-dashoffset="0" font-family="none" font-weight="none" font-size="none" text-anchor="none" style="mix-blend-mode: normal"><g data-paper-data="{&quot;origPos&quot;:null,&quot;index&quot;:null}"><path d="M243.25366,192.4423l1.65134,1.6495c0,0 0.43784,0.35516 0.36014,0.8544c-0.07595,0.49812 -1.15673,3.17172 -1.15673,3.17172c0,0 2.06347,0.13872 2.05849,0.74205c-0.00251,0.60404 -4.31172,0.13905 -4.31172,0.13905l0.74739,-3.69447l-1.58996,-2.19794" data-paper-data="{&quot;origPos&quot;:null,&quot;index&quot;:null}" id="Back_Leg" fill="#f05a28" stroke="#000000" stroke-width="0.89575" stroke-linecap="round"/><path d="M237.21043,187.36786c0,0 -1.13104,3.80326 -3.09934,3.23094c-1.05976,-0.30808 -0.78664,-2.07242 -0.62367,-2.62869c0.23821,-0.80551 0.26707,-1.03297 0.87859,-1.63455c0.60906,-0.60153 2.8298,-2.83442 3.82822,-3.38993c1.56679,-0.86864 4.64511,-1.69876 1.91443,1.51794c0,0 -1.68124,1.64521 -2.78518,2.77272l-0.11305,0.13156v0v0v0z" data-paper-data="{&quot;origPos&quot;:null,&quot;index&quot;:null}" id="Back_Arm" fill="#f05a28" stroke="#000000" stroke-width="0.89575" stroke-linecap="round"/><path d="M244.60083,188.1445v0v0v0l0.0039,0.09411c0.16476,0.54309 0.29632,1.23021 0.24175,1.93727c-0.28419,3.70732 -4.4932,3.80397 -4.4932,3.80397c-5.49377,0 -4.53744,-3.55043 -4.04963,-4.91469c0.31058,-0.87147 1.217,-3.70553 1.217,-3.70553c0,0 0.56375,-2.52564 0.82262,-3.34754c0.30167,-0.95705 1.67268,-1.88485 3.89701,-1.65668c3.92663,0.40258 2.92678,3.09369 2.92678,3.09369c-0.09271,0.64966 -0.64326,4.07885 -0.56623,4.69539z" data-paper-data="{&quot;origPos&quot;:null,&quot;index&quot;:null}" id="Body" fill="#f05a28" stroke="#000000" stroke-width="0.89575" stroke-linecap="round"/><path d="M240.86568,193.57227l-0.47925,5.38573c0,0 2.37624,0.37904 2.42365,1.19347c0.04817,0.81443 -5.41817,0 -5.41817,0l1.04694,-6.7671" data-paper-data="{&quot;origPos&quot;:null,&quot;index&quot;:null}" id="Front_Leg" fill="#f05a28" stroke="#000000" stroke-width="0.89575" stroke-linecap="round"/><path d="M241.19732,185.63132c0,0 0.46213,1.99899 1.26477,3.06265c0.9977,1.32289 2.39618,2.34555 2.08309,3.22521c-0.21536,0.60157 -0.84508,1.91805 -3.75724,-0.62829c-2.34662,-2.05029 -3.0116,-6.06999 -2.72245,-7.79187" data-paper-data="{&quot;origPos&quot;:null,&quot;index&quot;:null}" id="Front_Arm" fill="#f05a28" stroke="#000000" stroke-width="0.89575" stroke-linecap="round"/><g data-paper-data="{&quot;origPos&quot;:null,&quot;index&quot;:null}" id="Head_1_"><path d="M225.30862,159.42477c0,0 0.33164,-1.35927 3.15356,-4.24823c2.82053,-2.88757 5.87389,-3.88204 7.89887,-4.71215c2.02501,-0.83011 3.38464,-4.97782 3.38464,-4.97782c0,0 1.86451,2.3192 3.78112,4.42797c1.95511,2.15052 6.50895,4.03502 11.38833,8.94648c0.58227,0.588 1.0772,1.20346 1.49335,1.83497l0.0838,0.07345c1.09042,0.94527 4.95497,4.71677 4.45968,10.207c-0.37869,4.18263 -2.28066,5.50479 -3.2024,5.86067l-0.00749,0.03065c0.47495,-0.94101 0.7577,-1.93939 0.89142,-2.95316c0.44003,-3.35217 -1.36568,-5.53084 -2.52385,-8.44655c-1.50154,-3.78116 -5.60893,-5.90849 -10.92763,-5.80256c-10.12244,0.20039 -12.35178,5.89097 -12.35178,5.89097l-0.00713,0.07345c1.87773,3.48699 2.62762,11.22253 -1.21736,13.53742c-4.14163,2.48926 -10.27402,1.62065 -12.66237,-8.00086c-2.18616,-8.80493 4.35985,-11.57944 6.28538,-11.55663l0.07986,-0.18506v0v0v0zM256.40813,160.69599c0,0 2.65541,4.21937 1.79071,9.43322M225.2284,159.60947c1.86204,0.05063 3.11005,1.38351 3.11005,1.38351M232.82275,165.62883c-0.31341,-0.48884 -0.53199,-0.89141 -0.53199,-0.89141" id="Head_2_" fill="#f05a28" stroke="#000000" stroke-width="0.89575" stroke-linecap="round"/><path d="M258.32328,175.43575c0,0 0.83835,-1.5208 1.40386,-4.30706c0.56483,-2.78844 -0.18825,-6.57992 -0.18825,-6.57992c0.93599,1.69768 1.64449,3.87635 1.41596,6.42766c-0.36659,4.07638 -2.25857,5.46558 -3.20312,5.86067l0.57155,-1.40134v0v0z" id="R_Ear" fill="#404041" stroke="#000000" stroke-width="0.89575" stroke-linecap="butt"/><g id="L_Ear" stroke="#231f20" stroke-width="0.89575"><path d="M219.16125,172.02404v0v0v0c-0.42718,-1.65095 -0.79906,-4.22506 -0.4564,-6.22762c0.35229,-2.06562 1.56715,-3.40423 2.90429,-3.72871c2.50355,-0.61009 5.5298,2.99914 6.76177,8.05862c1.15959,4.76955 0.31415,9.12515 -1.88306,10.1232c0,0 -0.71959,0.09128 -2.17154,-0.70602c-1.45091,-0.79659 -2.70537,-2.1637 -3.21706,-3.04763c-0.51311,-0.88397 -1.50974,-2.81766 -1.93799,-4.47183z" id="Outer_Ear" fill="#404041" stroke-linecap="butt"/><path d="M220.71667,167.81646c0.96311,-0.41257 2.59765,1.24658 3.65132,3.70697c1.05264,2.45891 1.12643,4.78986 0.1644,5.20135c-0.96382,0.41149 -2.59764,-1.24801 -3.65064,-3.70768c-1.05474,-2.45963 -1.12783,-4.78774 -0.16508,-5.20063v0v0zM224.95208,176.32291c-3.96583,-2.51314 -3.92165,-8.56815 -3.92165,-8.56815" id="Inner_Ear" fill="#929497" stroke-linecap="round"/></g><path d="M231.27559,179.39447v0v0v0l-0.02177,-0.02747c0.11838,-0.06382 0.23534,-0.13156 0.35086,-0.20039c3.84995,-2.31772 3.09226,-10.07077 1.21023,-13.54988l0.01533,-0.06134c0,0 2.22935,-5.69058 12.35358,-5.89097c5.31834,-0.10593 9.42538,2.02143 10.92691,5.80256c1.15816,2.91607 2.96495,5.09474 2.52385,8.44658c-0.46069,3.48874 -2.68929,6.82056 -8.43158,8.17983c-5.74233,1.36321 -5.51196,0.63294 -7.43606,1.45982c-1.92514,0.8319 -2.02426,1.19594 -2.02426,1.19594c0,0 0.6165,-1.20593 -1.84994,-1.82243c-3.72404,-0.92783 -7.15328,-3.2149 -7.61715,-3.53225z" id="Face_1_" fill="#e6e7e8" stroke="#000000" stroke-width="0.89575" stroke-linecap="round"/><path d="M246.67895,178.63104c-4.53385,0.30489 -5.0402,-5.5911 -5.0402,-5.5911c0,0 2.59123,-0.08201 5.9352,-0.28956c3.34328,-0.20609 4.14486,0 4.14486,0c0,0 -0.50707,5.57438 -5.03984,5.88066v0v0v0z" id="Smile" fill="#ffffff" stroke="#000000" stroke-width="0.97672" stroke-linecap="round"/><path d="M253.55265,169.3711c-0.05633,0 -0.11266,-0.00749 -0.17078,-0.02353c-0.32021,-0.09378 -0.50563,-0.43076 -0.41005,-0.75164c0.0428,-0.1498 0.05203,-0.30452 0.02743,-0.4593c-0.09164,-0.58155 -0.65468,-0.97808 -1.24125,-0.88537c-0.59333,0.09343 -1.00124,0.64325 -0.9096,1.22592c0.05207,0.33052 -0.17399,0.64074 -0.50491,0.69245c-0.33338,0.05207 -0.64115,-0.17328 -0.6921,-0.50491c-0.19649,-1.2416 0.66356,-2.41402 1.91837,-2.61226c1.25262,-0.19398 2.43077,0.65324 2.62937,1.89413c0.05207,0.33338 0.03142,0.66574 -0.06417,0.98878c-0.0781,0.26424 -0.31985,0.43574 -0.5823,0.43574v0v0v0v0z" id="R_Eye" fill="#000000" stroke="none" stroke-width="0.89575" stroke-linecap="butt"/><path d="M241.99602,169.3711c-0.05597,0 -0.11302,-0.00749 -0.17077,-0.02353c-0.32057,-0.09378 -0.50564,-0.43076 -0.41042,-0.75164c0.04316,-0.1498 0.05203,-0.30452 0.02851,-0.4593c-0.09236,-0.58155 -0.65324,-0.97808 -1.24232,-0.88537c-0.59297,0.09343 -1.00052,0.64325 -0.9096,1.22592c0.05207,0.33052 -0.17364,0.64074 -0.50492,0.69245c-0.33302,0.05207 -0.64075,-0.17328 -0.69281,-0.50491c-0.19577,-1.2416 0.66431,-2.41402 1.91837,-2.61226c1.25016,-0.19398 2.43185,0.65324 2.62937,1.89413c0.05243,0.33338 0.03177,0.66574 -0.06382,0.98878c-0.07739,0.26424 -0.31913,0.43574 -0.58159,0.43574v0v0v0v0z" id="L_Eye" fill="#000000" stroke="none" stroke-width="0.89575" stroke-linecap="butt"/></g></g></g></g></svg>