<svg version="1.1" xmlns="http://www.w3.org/2000/svg" xmlns:xlink="http://www.w3.org/1999/xlink" width="128.5" height="153"><defs><linearGradient x1="237.75007" y1="143.90002" x2="237.75007" y2="190.90002" gradientUnits="userSpaceOnUse" id="color-1"><stop offset="0" stop-color="#a1a1a1"/><stop offset="1" stop-color="#a1a1a1" stop-opacity="0"/></linearGradient><radialGradient cx="276.69884" cy="103.40002" r="64.25" gradientUnits="userSpaceOnUse" id="color-2"><stop offset="0" stop-color="#a1a1a1"/><stop offset="1" stop-color="#626262"/></radialGradient><linearGradient x1="238.25007" y1="49.90002" x2="238.25007" y2="153.40002" gradientUnits="userSpaceOnUse" id="color-3"><stop offset="0" stop-color="#ffffff"/><stop offset="1" stop-color="#e0e0e0"/></linearGradient></defs><g transform="translate(-174.00005,-37.90002)"><g data-paper-data="{&quot;isPaintingLayer&quot;:true}" fill="none" fill-rule="nonzero" stroke="none" stroke-width="none" stroke-linecap="none" stroke-linejoin="miter" stroke-miterlimit="10" stroke-dasharray="" stroke-dashoffset="0" font-family="none" font-weight="none" font-size="none" text-anchor="none" style="mix-blend-mode: normal"><g><path d="M291.50005,167.40002c0,12.97869 -24.0647,23.5 -53.75,23.5c-29.6853,0 -53.75,-10.52131 -53.75,-23.5c0,-12.97869 24.0647,-23.5 53.75,-23.5c29.6853,0 53.75,10.52131 53.75,23.5z" data-paper-data="{&quot;origPos&quot;:null}" fill="url(#color-1)" stroke="none" stroke-width="0" stroke-linecap="butt"/><path d="M302.50005,101.40002c0,35.07008 -28.76571,63.5 -64.25,63.5c-35.4843,0 -64.25,-28.42992 -64.25,-63.5c0,-35.07008 28.7657,-63.5 64.25,-63.5c35.48429,0 64.25,28.42992 64.25,63.5z" data-paper-data="{&quot;origPos&quot;:null}" fill="url(#color-2)" stroke="none" stroke-width="0" stroke-linecap="butt"/><path d="M290.00005,101.65002c0,28.58074 -23.16926,51.75 -51.75,51.75c-28.58074,0 -51.75,-23.16926 -51.75,-51.75c0,-28.58074 23.16926,-51.75 51.75,-51.75c28.58074,0 51.75,23.16926 51.75,51.75z" data-paper-data="{&quot;origPos&quot;:null}" fill="url(#color-3)" stroke="none" stroke-width="0" stroke-linecap="butt"/><path d="M268.50007,87.40002l-53.5,-0.5" data-paper-data="{&quot;origPos&quot;:null}" fill="none" stroke="#c2c2c2" stroke-width="13.5" stroke-linecap="round"/><path d="M242.00007,91.40002l0.5,43" data-paper-data="{&quot;origPos&quot;:null}" fill="none" stroke="#c2c2c2" stroke-width="13.5" stroke-linecap="round"/><path d="M237.00007,86.40002l0.5,43" data-paper-data="{&quot;origPos&quot;:null}" fill="none" stroke="#000000" stroke-width="13.5" stroke-linecap="round"/><path d="M210.00007,81.90002l53.5,0.5" data-paper-data="{&quot;origPos&quot;:null}" fill="none" stroke="#000000" stroke-width="13.5" stroke-linecap="round"/></g></g></g></svg>