<svg version="1.1" xmlns="http://www.w3.org/2000/svg" xmlns:xlink="http://www.w3.org/1999/xlink" width="608.63436" height="448.14243"><g transform="translate(-119.00003,-312.16018)"><g data-paper-data="{&quot;isPaintingLayer&quot;:true}" fill="none" fill-rule="nonzero" stroke="none" stroke-width="none" stroke-linecap="butt" stroke-linejoin="miter" stroke-miterlimit="10" stroke-dasharray="" stroke-dashoffset="0" font-family="none" font-weight="none" font-size="none" text-anchor="none" style="mix-blend-mode: normal"><path d="M458.17792,568.40005v128h-251.44742c1.48115,-12.76254 3.95359,-25.46006 4.57218,-38.2906c0.7879,-16.3421 -1.03361,-32.52052 -4.84072,-48.69986c-3.20869,-13.39909 -3.91843,-26.79623 -6.1294,-40.2674c-0.04061,-0.24752 -0.0834,-0.4949 -0.1281,-0.74214z" data-paper-data="{&quot;origPos&quot;:null}" fill="#d1b694" stroke="none" stroke-width="0"/><path d="M131.20367,725.17962l5.66428,-150.41586l16.20488,-1.78541l15.51267,14.47821l21.10021,-10.70383l-5.66428,150.41586z" data-paper-data="{&quot;origPos&quot;:null,&quot;origRot&quot;:0}" fill="#696053" stroke="none" stroke-width="0"/><path d="M131.20367,725.17962l5.66428,-150.41586l16.20488,-1.7854l15.51267,14.47821z" data-paper-data="{&quot;origPos&quot;:null,&quot;origRot&quot;:0}" fill="#696053" stroke="none" stroke-width="0"/><path d="M139.44035,714.21465l5.66428,-150.41586l16.20488,-1.78541l15.51267,14.47821l21.10021,-10.70383l-5.66428,150.41586z" data-paper-data="{&quot;origPos&quot;:null,&quot;origRot&quot;:0}" fill="#8b7f6e" stroke="none" stroke-width="0"/><path d="M119.00003,608.80004v-13v0z" data-paper-data="{&quot;origPos&quot;:null}" fill="#dbc19c" stroke="none" stroke-width="0"/><path d="M443.66333,758.31364l5.66428,-150.41586l16.20488,-1.78541l15.51267,14.47821l21.10021,-10.70383l-5.66428,150.41586z" data-paper-data="{&quot;origPos&quot;:null,&quot;origRot&quot;:0}" fill="#696053" stroke="none" stroke-width="0"/><path d="M451.90005,747.34865l5.66428,-150.41586l16.20488,-1.78541l15.51267,14.47821l21.10021,-10.70383l-5.66428,150.41586z" data-paper-data="{&quot;origPos&quot;:null,&quot;origRot&quot;:0}" fill="#8c8c8c" stroke="none" stroke-width="0"/><path d="M606.94911,417.66039c0,-0.45345 0,-0.90691 0,-1.36037c0,-2.27045 0.45247,-5.25861 0,-7.5c-0.03436,-0.17019 -0.34127,0.59719 -0.31787,0.42536c0.09282,-0.68163 0.38738,-1.32643 0.53231,-2c0.31612,-1.46924 0.65336,-2.93786 0.85018,-4.42536c0.00283,-0.02142 0.006,-0.04406 0.00945,-0.06779c0.53791,-0.60733 1.03445,-1.2428 1.39639,-1.88521c3.94489,-7.00176 3.74806,-8.77989 2.12925,-17.594c-0.64279,-3.49981 -5.29604,-5.1337 -8.40539,-7.15442c-1.43602,-0.93324 -3.37842,-0.83917 -5.09037,-1.16251c-4.14001,-0.78194 -8.18213,-1.13606 -12.3965,-1.13606c-9.83825,0 -19.67648,0 -29.51473,0c0.75794,-8.00601 2.31992,-15.99787 2.89906,-23.99998c0.22521,-3.11182 -0.32086,-6.24139 -0.14485,-9.35601c0.11442,-2.02484 0.69915,-4.00458 1.02159,-6.00991l144.48553,0.69267l-0.33471,82.9992z" data-paper-data="{&quot;origPos&quot;:null,&quot;index&quot;:null}" fill="#a4cf93" stroke="#708569" stroke-width="10"/><path d="M525.17402,411.81432c-2.49395,-2.55327 -8.95371,-3.9941 -13.49312,-5.71574c-2.46068,-0.93324 -5.78906,-0.83917 -8.72255,-1.16251c-7.09407,-0.78194 -14.02041,-1.13606 -21.24189,-1.13606c-16.85823,0 -33.71642,0 -50.57465,0c1.29876,-8.00602 3.97529,-15.99789 4.96766,-24c0.38591,-3.11182 -0.54982,-6.24139 -0.24821,-9.35601c0.03738,-0.38601 0.10405,-0.7704 0.19131,-1.15362l271.73681,0.07215l-3.09025,42.49959z" data-paper-data="{&quot;origPos&quot;:null,&quot;index&quot;:null}" fill="#a4cf93" stroke="none" stroke-width="0"/><path d="M558.69557,341.68466c0.00133,-0.41376 0.01133,-0.82732 0.03327,-1.24062c0.03724,-0.70149 0.12749,-1.39758 0.24216,-2.09119l149.19152,0.8391l-0.01146,3.3333z" data-paper-data="{&quot;origPos&quot;:null,&quot;index&quot;:null}" fill="#65815b" stroke="none" stroke-width="0"/><path d="M468.86491,417.16039c0,-0.45345 0,-0.90691 0,-1.36037c0,-2.27045 0.425,-5.25861 0,-7.5c-0.03227,-0.17019 -0.32055,0.59719 -0.29857,0.42536c0.08719,-0.68163 0.36387,-1.32643 0.5,-2c0.29693,-1.46924 0.6137,-2.93786 0.79857,-4.42536c0.00266,-0.02142 0.00564,-0.04406 0.00888,-0.06779c0.50525,-0.60733 0.97165,-1.2428 1.31162,-1.88521c3.70542,-7.00176 3.52054,-8.77989 2,-17.594c-0.60377,-3.49981 -4.97455,-5.1337 -7.89515,-7.15442c-1.34885,-0.93324 -3.17334,-0.83917 -4.78137,-1.16251c-3.8887,-0.78194 -7.68545,-1.13606 -11.64399,-1.13606c-9.24103,0 -18.48205,0 -27.72308,0c0.71193,-8.00601 2.1791,-15.99787 2.72308,-23.99998c0.21154,-3.11182 -0.30139,-6.24139 -0.13606,-9.35601c0.10748,-2.02484 0.65671,-4.00458 0.95958,-6.00991l135.71474,0.69267l-0.31439,82.9992z" data-paper-data="{&quot;origPos&quot;:null,&quot;index&quot;:null}" fill="#a4cf93" stroke="#708569" stroke-width="10"/><path d="M423.69557,341.18466c0.00133,-0.41376 0.01133,-0.82732 0.03327,-1.24062c0.03724,-0.70149 0.12749,-1.39758 0.24216,-2.09119l149.19152,0.8391l-0.01146,3.3333z" data-paper-data="{&quot;origPos&quot;:null,&quot;index&quot;:null}" fill="#65815b" stroke="none" stroke-width="0"/><path d="M616.81002,416.64811c0,-0.11603 0,-0.23206 0,-0.34809c0,-2.27045 0.45387,-5.25861 0,-7.5c-0.03446,-0.17019 -8.88572,23.59719 -8.86225,23.42536c0.09311,-0.68163 -3.88312,6.67357 -3.73774,6c0.3171,-1.46924 13.47048,-33.93786 13.66791,-35.42536c0.00284,-0.02142 0.00602,-0.04406 0.00948,-0.06779c0.53957,-0.60733 -12.84537,24.7572 -12.48231,24.11479c3.95711,-7.00176 -182.05929,-4.77989 -183.68311,-13.594c-0.64478,-3.49981 -5.31245,-44.1337 -8.43143,-46.15442c-1.44047,-0.93324 308.43715,3.09142 308.43715,3.09142l5.90667,23.60513l-18.0925,22.39442z" data-paper-data="{&quot;origPos&quot;:null,&quot;index&quot;:null}" fill="#9dc78d" stroke="none" stroke-width="0"/><path d="M430.8649,600.80002v-191h286l8.60366,79.97511l-21.58989,64.84188l0.98623,46.18301z" data-paper-data="{&quot;origPos&quot;:null,&quot;index&quot;:null}" fill="#97be87" stroke="none" stroke-width="0"/><path d="M419.8649,370.80001v-29h291l7,29z" data-paper-data="{&quot;origPos&quot;:null,&quot;index&quot;:null}" fill="#a4cf93" stroke="none" stroke-width="0"/><g data-paper-data="{&quot;origPos&quot;:null,&quot;index&quot;:null,&quot;origRot&quot;:0}" stroke="none" stroke-width="0"><path d="M388.23052,476.30437l0.24616,-150.52227l16.13011,-2.36757l16.02378,13.91043l20.70124,-11.45643l-0.24616,150.52227z" data-paper-data="{&quot;origPos&quot;:null,&quot;origRot&quot;:0}" fill="#696053"/><path d="M388.23051,476.30437l0.24616,-150.52227l16.13011,-2.36756l16.02378,13.91043z" data-paper-data="{&quot;origPos&quot;:null,&quot;origRot&quot;:0}" fill="#696053"/><path d="M396.06719,465.05005l0.24616,-150.52227l16.13011,-2.36757l16.02378,13.91043l20.70124,-11.45643l-0.24616,150.52227z" data-paper-data="{&quot;origPos&quot;:null,&quot;origRot&quot;:0}" fill="#8b7f6e"/><path d="M396.06718,465.05001l0.24616,-150.52227l16.13011,-2.36756l16.02378,13.91043z" data-paper-data="{&quot;origPos&quot;:null,&quot;origRot&quot;:0}" fill="#817666"/><path d="M388.61058,609.68764l0.24616,-150.52227l16.13011,-2.36757l16.02378,13.91043l20.70124,-11.45643l-0.24616,150.52227z" data-paper-data="{&quot;origPos&quot;:null,&quot;origRot&quot;:0}" fill="#696053"/><path d="M388.61057,609.68761l0.24616,-150.52227l16.13011,-2.36756l16.02378,13.91043z" data-paper-data="{&quot;origPos&quot;:null,&quot;origRot&quot;:0}" fill="#696053"/><path d="M388.24005,738.02746l0.24616,-150.52227l16.13011,-2.36757l16.02378,13.91043l20.70124,-11.45643l-0.24616,150.52227z" data-paper-data="{&quot;origPos&quot;:null,&quot;origRot&quot;:0}" fill="#696053"/><path d="M388.24004,738.02738l0.24616,-150.52227l16.13011,-2.36756l16.02378,13.91043z" data-paper-data="{&quot;origPos&quot;:null,&quot;origRot&quot;:0}" fill="#696053"/><path d="M395.41088,726.74l0.24616,-150.52227l16.13011,-2.36757l16.02378,13.91043l20.70124,-11.45643l-0.24616,150.52227z" data-paper-data="{&quot;origPos&quot;:null,&quot;origRot&quot;:0}" fill="#8b7f6e"/><path d="M395.78141,598.40018l0.24616,-150.52227l16.13011,-2.36757l16.02378,13.91043l20.70124,-11.45643l-0.24616,150.52227z" data-paper-data="{&quot;origPos&quot;:null,&quot;origRot&quot;:0}" fill="#8b7f6e"/></g></g></g></svg>