<svg version="1.1" xmlns="http://www.w3.org/2000/svg" xmlns:xlink="http://www.w3.org/1999/xlink" width="960" height="720"><defs><clipPath id="clip-1"><path d="M-57,-60h960v720h-960z" data-paper-data="{&quot;origPos&quot;:null}" id="p.0" fill="none" fill-rule="nonzero" stroke-width="1" stroke-linecap="square"/></clipPath></defs><g transform="translate(57,60)"><g clip-path="url(#clip-1)" data-paper-data="{&quot;isPaintingLayer&quot;:true}" fill="none" fill-rule="none" stroke="none" stroke-width="none" stroke-linecap="none" stroke-linejoin="miter" stroke-miterlimit="10" stroke-dasharray="" stroke-dashoffset="0" font-family="none" font-weight="none" font-size="none" text-anchor="none" style="mix-blend-mode: normal"><path d="M-57,-60h960v720h-960z" data-paper-data="{&quot;origPos&quot;:null}" fill-opacity="0" fill="#000000" fill-rule="evenodd" stroke-width="1" stroke-linecap="square"/><path d="M-36.79003,-37.74803h924.8504v691.9685h-924.8504z" data-paper-data="{&quot;origPos&quot;:null}" fill-opacity="0" fill="#000000" fill-rule="evenodd" stroke-width="1" stroke-linecap="square"/><path d="M-20.75878,180.03947c0,-0.30208 0.01042,-0.54687 0.03125,-0.73437c0.08333,-0.875 0.14583,-1.42187 0.1875,-1.64062c0.05208,-0.22917 0.07813,-0.35417 0.07813,-0.375v-1.3125c0.09375,-0.07292 0.14583,-0.45833 0.15625,-1.15625c0,-0.86458 0.03646,-1.50521 0.10938,-1.92187c0,-0.35417 0.11979,-0.6875 0.35938,-1c0.27083,-0.46875 0.65625,-0.82292 1.15625,-1.0625l0.125,0.3125c0.29167,-0.30208 0.59896,-0.39583 0.92188,-0.28125c0.32292,0.10417 0.50521,0.16146 0.54688,0.17188c0.05208,0.01042 0.10417,0.02604 0.15625,0.04688c0.05208,0.02083 0.10417,0.03646 0.15625,0.04688c0.05208,0.01042 0.11458,0.04688 0.1875,0.10938c0.08333,0.0625 0.14063,0.10938 0.17188,0.14063c0.03125,0.02083 0.07292,0.05208 0.125,0.09375c0.05208,0.04167 0.10938,0.10938 0.17188,0.20313c0.22917,0.44792 0.38021,1.69792 0.45313,3.75c0.05208,0.32292 0.07813,0.84896 0.07813,1.57813c0,0.71875 -0.01042,1.20313 -0.03125,1.45313v0.28125c-0.03125,0.32292 -0.04687,0.55208 -0.04687,0.6875v0.1875c0,0.38542 -0.02604,0.66667 -0.07812,0.84375c0,0.41667 -0.04687,0.80208 -0.14062,1.15625c0,0.125 -0.04167,0.34375 -0.125,0.65625c-0.07292,0.3125 -0.10937,0.52604 -0.10937,0.64063c0.03125,0.125 -0.10417,0.50521 -0.40625,1.14063c0.16667,0.07292 0.16146,0.39063 -0.01562,0.95313c0,0.21875 -0.07292,0.47396 -0.21875,0.76563c-0.13542,0.29167 -0.25,0.5625 -0.34375,0.8125c-0.09375,0.25 -0.21354,0.34896 -0.35937,0.29688c0.04167,0.61458 -0.20312,1.28646 -0.73437,2.01563l-0.73437,0.0625c0.52083,0 0.57292,0.20833 0.15625,0.625c-0.14583,0.16667 -0.78646,0.38542 -1.92187,0.65625c0.1875,0.28125 0.05208,0.47917 -0.40625,0.59375c-0.44792,0.11458 -0.92187,0.17188 -1.42187,0.17188c-0.48958,0 -0.96354,-0.07292 -1.42187,-0.21875c-0.28125,-0.08333 -0.55729,-0.20833 -0.82812,-0.375c-0.09375,-0.08333 -0.15625,-0.15104 -0.1875,-0.20312c-0.11458,0.03125 -0.44271,-0.14583 -0.98437,-0.53125c-0.10417,-0.09375 -0.38021,-0.47917 -0.82812,-1.15625c-0.13542,-0.33333 -0.20833,-0.51042 -0.21875,-0.53125c-0.01042,-0.02083 -0.04167,-0.08854 -0.09375,-0.20312c-0.05208,-0.11458 -0.09375,-0.36979 -0.125,-0.76562c-0.05208,-1.09375 0.36979,-1.64062 1.26563,-1.64062c0.69792,0 1.33333,0.32813 1.90625,0.98438c0.14583,0.14583 0.23438,0.23958 0.26563,0.28125c0.03125,0.04167 0.09375,0.10938 0.1875,0.20313c0.10417,0.08333 0.18229,0.14063 0.23438,0.17188c0.05208,0.02083 0.125,0.05208 0.21875,0.09375c0.09375,0.03125 0.17188,0.04688 0.23438,0.04688c0.0625,0 0.14583,-0.02083 0.25,-0.0625c0.11458,-0.04167 0.15104,-0.02604 0.10938,0.04688c0,-0.19792 0.11458,-0.45312 0.34375,-0.76562c0.22917,-0.32292 0.35938,-0.46354 0.39063,-0.42187c0.01042,-0.27083 0.04688,-0.46875 0.10938,-0.59375c0.08333,-0.23958 0.16667,-0.65625 0.25,-1.25c0.29167,0.125 0.24479,0.01563 -0.14062,-0.32812c0.26042,-0.04167 0.25,-0.04167 -0.03125,0c-0.27083,0.04167 -0.46875,0.05729 -0.59375,0.04688c-0.46875,0.10417 -1.04167,-0.10937 -1.71875,-0.64062c-0.29167,-0.22917 -0.46354,-0.39062 -0.51562,-0.48437c-0.05208,-0.09375 -0.10937,-0.16146 -0.17187,-0.20312c-0.05208,-0.04167 -0.10937,-0.14583 -0.17187,-0.3125c-0.40625,-0.67708 -0.60937,-1.11979 -0.60937,-1.32812l-0.10937,-0.26562c0,-0.10417 -0.06771,-0.22917 -0.20312,-0.375c0,-0.15625 -0.02604,-0.51562 -0.07812,-1.07812c-0.125,-0.46875 -0.1875,-0.91667 -0.1875,-1.34375v-0.42187l0.01563,-0.51562c-0.03125,-0.15625 -0.02083,-0.46875 0.03125,-0.9375v-1l0.03125,-0.39062v-0.76562c0.3125,0.09375 0.32292,0.07292 0.03125,-0.0625l0.01563,-0.26562c0,-0.19792 0.01042,-0.35417 0.03125,-0.46875c0,-1.02083 0.55208,-1.61979 1.65625,-1.79687c0.77083,-0.0625 1.31771,0.04167 1.64063,0.3125c0.55208,0.46875 0.79688,1.34896 0.73438,2.64063c0,0.34375 -0.01562,0.59896 -0.04687,0.76563c0.10417,0.33333 0.13021,0.625 0.07813,0.875c0.03125,0.08333 0.04688,0.21875 0.04688,0.40625v0.39063c0,0.05208 0.02604,0.35938 0.07813,0.92188c0.0625,0.5625 0.13021,0.95833 0.20313,1.1875c0,0.21875 0.03646,0.4375 0.10938,0.65625c0,0.125 0.08854,0.35938 0.26563,0.70313c0.10417,0.52083 0.20313,0.77604 0.29688,0.76563c0,0.10417 0.00521,-0.11458 0.01563,-0.65625c0.23958,0.08333 0.23438,0.04688 -0.01562,-0.10937zM-9.78109,180.57072c-0.07292,-0.40625 -0.23437,-0.59375 -0.48437,-0.5625c-0.11458,0 -0.23437,0.11979 -0.35937,0.35938c-0.28125,0.52083 -0.40104,1.24479 -0.35937,2.17188c0.04167,0.91667 0.10417,1.56771 0.1875,1.95313c0.08333,0.375 0.23438,0.69792 0.45313,0.96875c0.04167,0.07292 0.09896,0.10938 0.17188,0.10938c0.22917,0 0.42708,-0.28646 0.59375,-0.85937l0.25,-0.76562c0.25,0.08333 0.22396,0.10938 -0.07812,0.07813c0.21875,-0.5625 0.33333,-1.01562 0.34375,-1.35937c-0.10417,-0.07292 -0.19792,-0.21875 -0.28125,-0.4375c-0.125,-0.36458 -0.10937,-0.57812 0.04688,-0.64062c-0.27083,-0.01042 -0.41667,-0.16667 -0.4375,-0.46875c-0.02083,-0.3125 -0.03646,-0.49479 -0.04687,-0.54687zM-14.67171,182.9301l0.10938,-1.39062c0.13542,-1.33333 0.54167,-2.47396 1.21875,-3.42187c0.71875,-0.875 1.71875,-1.32292 3,-1.34375h0.15625c1.17708,0 2.04688,0.27083 2.60938,0.8125c0.54167,0.41667 0.94271,0.88021 1.20313,1.39063c0.26042,0.51042 0.43229,0.89063 0.51563,1.14063c0.09375,0.25 0.15104,0.60417 0.17188,1.0625c0.04167,1.05208 -0.08854,1.625 -0.39062,1.71875c0.21875,1.51042 0.02604,2.80208 -0.57812,3.875c-0.17708,0.4375 -0.45312,0.91667 -0.82812,1.4375c-0.35417,0.44792 -0.9375,0.69792 -1.75,0.75c-0.67708,0 -1.28125,-0.04167 -1.8125,-0.125c-0.52083,-0.08333 -1.10937,-0.34375 -1.76562,-0.78125c-0.65625,-0.4375 -1.11979,-1.16146 -1.39062,-2.17187c-0.26042,-0.86458 -0.41667,-1.84896 -0.46875,-2.95312zM-0.19678,176.96135c0.39583,0.33333 0.60938,0.75521 0.64063,1.26563c0.03125,0.51042 0.02083,0.85938 -0.03125,1.04688c-0.04167,0.17708 -0.11979,0.74479 -0.23437,1.70313c-0.04167,0.10417 -0.0625,0.23958 -0.0625,0.40625l-0.26562,2.375c0,0.89583 0.00521,1.40104 0.01563,1.51563c0.02083,0.10417 0.05729,0.19792 0.10938,0.28125c-0.25,0.11458 -0.34375,0.17188 -0.28125,0.17188c0.0625,-0.01042 -0.02604,-0.02604 -0.26562,-0.04687c0,-0.26042 0.19271,-0.36458 0.57813,-0.3125c-0.28125,-0.08333 -0.28125,-0.34896 0,-0.79687c-0.05208,-0.08333 -0.04167,-0.19792 0.03125,-0.34375c0.07292,-0.15625 0.11979,-0.28125 0.14063,-0.375c0.03125,-0.09375 0.08854,-0.21354 0.17188,-0.35937c0.11458,0.01042 0.16146,-0.08854 0.14063,-0.29687c0,-0.29167 0.22917,-0.5 0.6875,-0.625c-0.23958,-0.08333 -0.26042,-0.32812 -0.0625,-0.73437l0.04688,-0.23437c0.29167,-0.63542 0.43229,-1.04687 0.42188,-1.23437l0.14063,-1.40625l0.29688,-1.14062c0.33333,-0.76042 0.80208,-1.22396 1.40625,-1.39062c0.32292,-0.13542 0.72396,-0.09896 1.20313,0.10938c0.48958,0.20833 0.8125,0.4375 0.96875,0.6875c0.16667,0.23958 0.25,0.48438 0.25,0.73438v0.51563l-0.03125,0.29688v1.40625c0,1.05208 0.02083,1.84896 0.0625,2.39063c0.10417,1.52083 0.39583,2.82813 0.875,3.92188c0.375,0.84375 0.20313,1.5 -0.51562,1.96875c-0.36458,0.23958 -0.77604,0.35938 -1.23437,0.35938c-0.83333,0 -1.40625,-0.31771 -1.71875,-0.95312c-0.13542,-0.19792 -0.26042,-0.45312 -0.375,-0.76562c-0.11458,-0.32292 -0.19271,-0.53646 -0.23437,-0.64062c0.09375,-0.39583 0.04167,-0.54687 -0.15625,-0.45312l0.28125,-0.23437c0.03125,0.65625 -0.3125,1.61979 -1.03125,2.89063c-0.20833,0.32292 -0.59375,0.61979 -1.15625,0.89063c-0.45833,-0.10417 -0.88542,-0.22396 -1.28125,-0.35937c-0.22917,-0.09375 -0.58333,-0.20833 -1.0625,-0.34375c-0.5,-0.05208 -0.79687,-0.14583 -0.89062,-0.28125c-0.09375,-0.14583 -0.17187,-0.25 -0.23437,-0.3125c-0.0625,-0.07292 0.05208,-0.18229 0.34375,-0.32812c-0.07292,0.0625 -0.23958,0.19271 -0.5,0.39063c-0.13542,-0.29167 -0.3125,-0.52083 -0.53125,-0.6875c0.29167,-0.17708 0.29167,-0.23958 0,-0.1875c-0.19792,-0.13542 -0.36458,-0.53125 -0.5,-1.1875c-0.11458,-0.11458 -0.19792,-0.73958 -0.25,-1.875c-0.04167,-1.14583 -0.05208,-1.85417 -0.03125,-2.125c0.03125,-0.27083 0.07292,-0.44271 0.125,-0.51562c-0.11458,-0.09375 -0.13542,-0.28125 -0.0625,-0.5625c0.07292,-0.28125 0.09375,-0.44792 0.0625,-0.5l0.10938,-1.25l0.20313,-0.9375c0,-0.33333 0.10938,-0.67708 0.32813,-1.03125c0.22917,-0.36458 0.375,-0.57292 0.4375,-0.625c0.11458,-0.20833 0.50521,-0.38542 1.17188,-0.53125c0.14583,0.03125 0.28646,0.05208 0.42188,0.0625c0.14583,0.01042 0.30729,0.03646 0.48438,0.07813c0.17708,0.03125 0.45833,0.20313 0.84375,0.51563zM17.68491,180.72697l-0.03125,1.125v0.84375l0.0625,1.01563c0,0.71875 0.07813,1.47917 0.23438,2.28125l-0.45312,0.15625c-0.32292,-0.09375 -0.45312,-0.20833 -0.39062,-0.34375c0.0625,-0.14583 0.09375,-0.30729 0.09375,-0.48437l0.375,-1.39062c0,-0.09375 0.0625,-0.26042 0.1875,-0.5c0.0625,-0.14583 0.16146,-0.44792 0.29688,-0.90625c0.14583,-0.46875 0.23438,-0.88542 0.26563,-1.25c0.03125,-0.36458 0.07292,-0.625 0.125,-0.78125c0.01042,-0.05208 -0.00521,-0.19792 -0.04687,-0.4375l0.14063,-1.14062c0,-0.33333 0.10417,-0.66667 0.3125,-1c0.92708,-0.13542 1.70833,-0.22917 2.34375,-0.28125c-0.03125,0.39583 0.03125,0.67708 0.1875,0.84375c-0.05208,0.11458 0,0.27083 0.15625,0.46875l0.10938,0.5c0.11458,0.28125 0.26042,1.42188 0.4375,3.42188c0.01042,0.58333 0.01042,1.36458 0,2.34375c-0.3125,-0.05208 -0.48437,-0.19792 -0.51562,-0.4375c0.13542,-0.11458 0.19792,-0.36458 0.1875,-0.75l0.28125,-0.76562l0.5,-2.6875l0.09375,-1.1875l0.23438,-0.84375c0.04167,-0.34375 0.17708,-0.60937 0.40625,-0.79687c0.23958,-0.19792 0.55208,-0.28125 0.9375,-0.25h0.84375c0.125,0.09375 0.25,0.14063 0.375,0.14063l0.85938,0.20313c-0.05208,0.52083 -0.08854,0.91146 -0.10937,1.17188c-0.01042,0.22917 -0.07812,0.72917 -0.20312,1.5c-0.21875,2.55208 -0.38021,4.07813 -0.48437,4.57813c0,0.19792 -0.04167,0.33854 -0.125,0.42188c0.01042,0.1875 -0.09896,0.75 -0.32812,1.6875c0,0.26042 -0.22396,0.60938 -0.67187,1.04688c-0.17708,0.3125 -0.41667,0.5 -0.71875,0.5625c-0.10417,0.11458 -0.34375,0.18229 -0.71875,0.20313c-0.32292,0.05208 -0.66667,0.01042 -1.03125,-0.125c-0.35417,-0.13542 -0.57812,-0.25521 -0.67187,-0.35937c-0.08333,-0.08333 -0.22396,-0.15104 -0.42187,-0.20312l-0.5625,-0.23437c-0.23958,-0.26042 -0.38542,-0.41146 -0.4375,-0.45312c-0.16667,-0.22917 -0.11979,-0.59896 0.14063,-1.10937c-0.32292,0.21875 -0.36458,0.19792 -0.125,-0.0625c0.1875,0.35417 0.28125,0.57813 0.28125,0.67188c-0.11458,0.39583 -0.18229,0.60938 -0.20312,0.64063c-0.01042,0.03125 -0.02083,0.08333 -0.03125,0.15625c-0.01042,0.0625 -0.02604,0.11979 -0.04687,0.17188c0,0.17708 -0.10417,0.375 -0.3125,0.59375c-0.20833,0.21875 -0.52083,0.36979 -0.9375,0.45313c-0.375,0.11458 -0.84375,0.13021 -1.40625,0.04688l-0.26562,0.03125c-0.19792,0 -0.42187,-0.03646 -0.67187,-0.10937c-0.34375,-0.21875 -0.57812,-0.47396 -0.70312,-0.76562c-0.20833,-0.30208 -0.38021,-0.60937 -0.51562,-0.92187c-0.13542,-0.125 -0.30208,-0.52604 -0.5,-1.20312c-0.17708,-0.42708 -0.26562,-0.70312 -0.26562,-0.82812l0.17188,-0.07812c-0.15625,0.01042 -0.28646,-0.20312 -0.39062,-0.64062c-0.09375,-0.44792 -0.05729,-0.73958 0.10938,-0.875c-0.17708,-0.01042 -0.26562,-0.20833 -0.26562,-0.59375c-0.03125,-0.17708 -0.04687,-0.47396 -0.04687,-0.89062c-0.05208,-0.58333 -0.11458,-0.98958 -0.1875,-1.21875c0.01042,-0.21875 -0.05729,-0.51562 -0.20312,-0.89062c-0.17708,-0.94792 -0.20312,-1.46354 -0.07812,-1.54687c-0.13542,-0.14583 -0.11458,-0.40625 0.0625,-0.78125c0,-0.16667 0.3125,-0.53125 0.9375,-1.09375c0.45833,-0.14583 0.77604,-0.16667 0.95313,-0.0625c0.17708,0.09375 0.33333,0.15104 0.46875,0.17188l0.98438,0.26563c0.79167,0.22917 1.13542,1.01563 1.03125,2.35938l-0.10937,1.03125c0,0 0,0.02604 0,0.07813zM30.93582,183.77385c-0.07292,0.57292 -0.10937,1.10417 -0.10937,1.59375c0,0.48958 0.03646,0.83854 0.10938,1.04688c-0.16667,0.14583 -0.21354,0.13542 -0.14062,-0.03125c-0.09375,0.03125 -0.13021,0.01042 -0.10937,-0.0625c0.17708,0.11458 0.17708,0.09375 0,-0.0625c0.58333,-0.55208 0.90625,-0.90625 0.96875,-1.0625c0.07292,-0.15625 0.14583,-0.27604 0.21875,-0.35937c0.01042,0.03125 0.01042,-0.04167 0,-0.21875c0.33333,0 0.5,0.01563 0.5,0.04688c-0.26042,-0.0625 -0.33854,-0.19271 -0.23437,-0.39062c-0.19792,-0.25 -0.22917,-0.42708 -0.09375,-0.53125c0.14583,-0.11458 0.21875,-0.23958 0.21875,-0.375l0.10938,-0.84375c0,-0.125 0.03125,-0.20312 0.09375,-0.23437c-0.0625,-0.07292 -0.08333,-0.1875 -0.0625,-0.34375c0.03125,-0.15625 0.03646,-0.35937 0.01563,-0.60937c-0.01042,-0.25 -0.05208,-0.40625 -0.125,-0.46875l-0.07812,-0.28125c0.125,-0.04167 0.08854,-0.01562 -0.10937,0.07813l0.10938,-0.5c0.40625,0.07292 0.45313,0.28646 0.14063,0.64063c-0.64583,0.875 -1.11979,1.86458 -1.42187,2.96875zM28.0452,180.60197c0.01042,-0.13542 0.11458,-0.22396 0.3125,-0.26562l-0.21875,-0.10937c0.10417,-0.35417 0.20833,-0.66146 0.3125,-0.92187c0.11458,-0.26042 0.25521,-0.10937 0.42188,0.45313c-0.39583,-0.08333 -0.53646,-0.20312 -0.42187,-0.35937c0.05208,-0.13542 0.13021,-0.30208 0.23438,-0.5c0.11458,-0.19792 0.17188,-0.3125 0.17188,-0.34375c0.1875,-0.47917 0.4375,-0.69271 0.75,-0.64062c-0.16667,-0.33333 0.14063,-0.53646 0.92188,-0.60937c0.64583,-0.22917 1.11979,-0.29167 1.42188,-0.1875c0.20833,-0.13542 0.58333,-0.05729 1.125,0.23438c0.28125,0.11458 0.58854,0.29167 0.92188,0.53125c0.30208,0.19792 0.53646,0.39063 0.70313,0.57813c0.32292,0.15625 0.54167,0.42708 0.65625,0.8125c0.51042,1.23958 0.76563,2.36458 0.76563,3.375l-0.04687,0.29688c0,0.34375 -0.03125,0.54688 -0.09375,0.60938c-0.05208,0.05208 -0.21875,0.05729 -0.5,0.01563c0.41667,-0.125 0.56771,0.00521 0.45313,0.39063c0,0.08333 -0.15104,0.69792 -0.45312,1.84375l-0.73437,0.73438c0.22917,0.14583 0.23958,0.24479 0.03125,0.29688h0.17188c0,0.16667 -0.06771,0.33854 -0.20312,0.51563c-0.1875,0.375 -0.38021,0.65625 -0.57812,0.84375c-0.28125,0.44792 -0.52083,0.78646 -0.71875,1.01563l-0.375,0.53125l-0.46875,-0.375c0.0625,0.29167 0.01042,0.4375 -0.15625,0.4375c-0.16667,0 -1.20312,-0.27083 -3.10937,-0.8125l2.82813,0.14063c-0.19792,0.39583 -0.34375,0.5625 -0.4375,0.5c-0.08333,-0.05208 -0.17187,-0.0625 -0.26562,-0.03125c-0.27083,-0.15625 -0.43229,-0.21875 -0.48437,-0.1875c-0.1875,0 -0.52604,-0.07812 -1.01562,-0.23437l-0.76562,-0.125l-0.67187,-0.25c-0.21875,-0.125 -0.4375,-0.28125 -0.65625,-0.46875c-0.13542,-0.25 -0.20312,-0.43229 -0.20312,-0.54687l-0.15625,-0.53125c0.07292,-0.05208 0.05729,-0.14583 -0.04687,-0.28125v-0.79687c0.03125,-0.17708 0.04688,-0.29687 0.04688,-0.35937c-0.04167,-0.11458 -0.04167,-0.34375 0,-0.6875v-0.26562c0,-0.07292 0.00521,-0.16146 0.01563,-0.26562c-0.02083,-0.08333 -0.01042,-0.28646 0.03125,-0.60937c0.04167,-0.32292 0.0625,-0.59896 0.0625,-0.82812c0,-0.26042 0.04167,-0.63542 0.125,-1.125c0.04167,-0.10417 0.07292,-0.33333 0.09375,-0.6875c0.02083,-0.36458 0.08854,-0.61458 0.20313,-0.75zM37.53572,185.7426c0,-0.14583 0.01563,-0.39062 0.04688,-0.73437c-0.13542,-0.19792 -0.20312,-0.72396 -0.20312,-1.57812c-0.02083,-1.95833 0.01563,-2.9375 0.10938,-2.9375c0.10417,0 0.08333,-0.02604 -0.0625,-0.07812c-0.13542,-0.0625 -0.20312,-0.19792 -0.20312,-0.40625v-0.25c-0.08333,-0.67708 -0.04167,-1.19271 0.125,-1.54687c0.05208,-0.30208 0.19792,-0.51562 0.4375,-0.64062c0.1875,-0.26042 0.45833,-0.39062 0.8125,-0.39062c0.36458,0 0.58854,0.01563 0.67188,0.04688c0.29167,-0.125 0.54167,-0.00521 0.75,0.35938c-0.03125,0.32292 0.01563,0.32813 0.14063,0.01563l0.125,0.15625c0.17708,-0.03125 0.33333,0.02604 0.46875,0.17188c0.14583,0.13542 0.23958,0.35417 0.28125,0.65625l0.23438,2.35938v0.4375c0.04167,0.20833 0.0625,0.39063 0.0625,0.54688l-0.39062,1.14063l-0.10937,0.01563c-0.1875,-0.46875 -0.21354,-0.84375 -0.07812,-1.125c0.13542,-0.29167 0.21354,-0.48437 0.23438,-0.57812c0.03125,-0.22917 0.11458,-0.42708 0.25,-0.59375c0.05208,-0.10417 0.07813,-0.21354 0.07813,-0.32812c0,-0.125 0.09896,-0.29167 0.29688,-0.5c0.15625,-0.36458 0.30208,-0.63542 0.4375,-0.8125l0.07813,-0.1875c0.07292,-0.11458 0.13542,-0.23437 0.1875,-0.35937c0.23958,-0.1875 0.40625,-0.34375 0.5,-0.46875l0.40625,-0.3125c0.125,0.30208 0.15104,0.33333 0.07813,0.09375c-0.07292,-0.25 0.21354,-0.39062 0.85938,-0.42187c0.38542,-0.0625 0.70833,-0.0625 0.96875,0c0.23958,0 0.43229,0.05208 0.57813,0.15625l0.09375,0.09375l0.14063,0.03125c0.5,0.26042 0.80729,0.80208 0.92188,1.625c0,1.1875 0.04167,1.96354 0.125,2.32813c0.125,1 0.32292,1.86979 0.59375,2.60938c0.27083,0.72917 0.52604,1.20833 0.76563,1.4375c0.52083,0.67708 0.61979,1.39063 0.29688,2.14063c-0.26042,0.45833 -0.58333,0.69792 -0.96875,0.71875c-0.375,0.02083 -0.61979,0.01563 -0.73437,-0.01562c-0.19792,0 -0.30208,-0.09375 -0.3125,-0.28125c-0.28125,0.22917 -0.51042,0.25 -0.6875,0.0625c-0.21875,0 -0.42187,-0.15625 -0.60937,-0.46875c-0.625,-0.83333 -0.98958,-1.34896 -1.09375,-1.54687c-0.09375,-0.20833 -0.17187,-0.35417 -0.23437,-0.4375c-0.05208,-0.08333 -0.08854,-0.15625 -0.10937,-0.21875c-0.02083,-0.07292 -0.05729,-0.17187 -0.10937,-0.29687c-0.02083,-0.11458 -0.08854,-0.24479 -0.20312,-0.39062c-0.10417,-0.14583 -0.11458,-0.28125 -0.03125,-0.40625c-0.125,-0.05208 -0.14062,-0.16146 -0.04687,-0.32812c-0.22917,0 -0.24479,-0.11458 -0.04687,-0.34375c-0.25,0.07292 -0.41146,-0.10417 -0.48437,-0.53125l0.375,-0.71875h0.03125c-0.54167,1.20833 -0.86979,2.47396 -0.98437,3.79688c-0.05208,0.38542 -0.10417,0.67188 -0.15625,0.85938c-0.08333,0 -0.03125,0.09896 0.15625,0.29688v0.29688c0,0.22917 -0.20312,0.53646 -0.60937,0.92188c-0.34375,0.03125 -0.54687,0.04688 -0.60937,0.04688h-0.29687c0,-0.22917 -0.02604,-0.20312 -0.07812,0.07813c-0.10417,0 -0.20833,0.02604 -0.3125,0.07813c-0.10417,0.0625 -0.27083,0.04688 -0.5,-0.04687c-0.33333,-0.03125 -0.53646,-0.0625 -0.60937,-0.09375c-0.0625,-0.03125 -0.17187,-0.0625 -0.32812,-0.09375c-0.15625,-0.04167 -0.20312,-0.18229 -0.14062,-0.42187c-0.27083,0.1875 -0.44792,0.14583 -0.53125,-0.125c-0.51042,-0.5 -0.76562,-0.98958 -0.76562,-1.46875v-0.17187l-0.01562,-0.23437c0.02083,-0.23958 0,-0.46875 -0.0625,-0.6875zM48.46021,186.78947c0.07292,-0.25 0.26042,-0.52083 0.5625,-0.8125c0.3125,-0.29167 0.60417,-0.4375 0.875,-0.4375c0.28125,0 0.51042,-0.03125 0.6875,-0.09375c0.17708,-0.07292 0.36458,-0.10937 0.5625,-0.10937c0.20833,0 0.48438,0.04167 0.82813,0.125c0.34375,0.08333 0.57292,0.13542 0.6875,0.15625c0.11458,0.02083 0.23958,0.04688 0.375,0.07813c0.14583,0.02083 0.30208,0.13542 0.46875,0.34375c0.16667,0.20833 0.25,0.47917 0.25,0.8125c-0.3125,1.38542 -0.85937,2.29688 -1.64062,2.73438l-0.9375,0.14063c-0.40625,0 -0.76042,-0.13021 -1.0625,-0.39062c-0.77083,-0.07292 -1.15625,-0.38021 -1.15625,-0.92187c0.25,0 0.21354,-0.08854 -0.10937,-0.26562c-0.32292,-0.1875 -0.48437,-0.39583 -0.48437,-0.625c0,-0.23958 0.03125,-0.48437 0.09375,-0.73437zM54.06958,169.38322l-0.23437,2.01563c-0.07292,0.90625 -0.24479,2.60417 -0.51562,5.09375c-0.26042,2.47917 -0.39062,4.14583 -0.39062,5c0,0.85417 0.07292,1.46354 0.21875,1.82813c-0.39583,0.66667 -0.84896,1 -1.35937,1c-0.21875,0 -0.375,-0.0625 -0.46875,-0.1875c-0.09375,-0.125 -0.14062,-0.09896 -0.14062,0.07813h-0.1875l-0.375,-0.10937c-0.53125,-0.82292 -0.82292,-1.5 -0.875,-2.03125c-0.30208,-0.72917 -0.46875,-1.18229 -0.5,-1.35937c-0.02083,-0.1875 -0.05729,-0.32292 -0.10937,-0.40625c-0.0625,-0.85417 -0.09375,-1.31771 -0.09375,-1.39062v-1.14062c0.0625,-0.44792 0.09375,-0.90104 0.09375,-1.35937v-0.39062c0,-0.40625 0.07292,-0.94792 0.21875,-1.625c0.14583,-0.6875 0.21875,-1.26562 0.21875,-1.73437c0,-0.47917 0.14583,-1.03125 0.4375,-1.65625c0.29167,-0.63542 0.47917,-1.07292 0.5625,-1.3125c0.09375,-0.25 0.16146,-0.43229 0.20313,-0.54687c0.04167,-0.11458 0.09896,-0.24479 0.17188,-0.39062c0.21875,-0.30208 0.45833,-0.45312 0.71875,-0.45312c0.26042,-0.11458 0.47917,-0.17187 0.65625,-0.17187c1.16667,0 1.75,0.41667 1.75,1.25z" data-paper-data="{&quot;origPos&quot;:null}" fill="#000000" fill-rule="nonzero" stroke-width="1" stroke-linecap="square"/><path d="M412.5,248.8c0,-1.38071 1.11929,-2.5 2.5,-2.5c1.38071,0 2.5,1.11929 2.5,2.5c0,1.38071 -1.11929,2.5 -2.5,2.5c-1.38071,0 -2.5,-1.11929 -2.5,-2.5z" data-paper-data="{&quot;origPos&quot;:null}" fill="#9966ff" fill-rule="nonzero" stroke-width="0.5" stroke-linecap="butt"/></g></g></svg>