<svg version="1.1" xmlns="http://www.w3.org/2000/svg" xmlns:xlink="http://www.w3.org/1999/xlink" width="374.66148" height="206.67863" viewBox="0,0,374.66148,206.67863"><g transform="translate(-49.50908,-110.95276)"><g data-paper-data="{&quot;isPaintingLayer&quot;:true}" fill="none" fill-rule="nonzero" stroke="none" stroke-width="none" stroke-linecap="butt" stroke-linejoin="miter" stroke-miterlimit="10" stroke-dasharray="" stroke-dashoffset="0" font-family="none" font-weight="none" font-size="none" text-anchor="none" style="mix-blend-mode: normal"><g data-paper-data="{&quot;origPos&quot;:null}" stroke-width="0"><g data-paper-data="{&quot;origPos&quot;:null,&quot;origRot&quot;:0,&quot;index&quot;:null}"><path d="M76.0941,298.97172c0,0 12.57714,-7.79041 12.5376,-12.77668c-0.11863,-14.95879 -0.59622,-75.17949 -0.59622,-75.17949l12.13883,6.61836l9.31227,-8.18744l9.43428,1.32414l0.69754,87.95618z" data-paper-data="{&quot;origPos&quot;:null,&quot;origRot&quot;:0}" fill="#8b7f6e"/><path d="M100.1743,217.63391l9.31227,-8.18744l9.43427,1.32414c0,0 0.37289,47.02009 0.54799,69.09847c0.05837,7.35947 0.14955,18.85771 0.14955,18.85771z" data-paper-data="{&quot;origPos&quot;:null,&quot;origRot&quot;:0}" fill="#817666"/></g><path d="M88.36497,231.6918v-18.16845h30.80738v13.42886c0,0 -11.03268,-0.00406 -17.58855,1.00453c-5.46709,0.84109 -13.21881,3.73506 -13.21881,3.73506z" data-paper-data="{&quot;origPos&quot;:null,&quot;index&quot;:null}" fill="#6c6356"/><g data-paper-data="{&quot;origPos&quot;:null,&quot;index&quot;:null}"><path d="M129.0323,181.92606c0,0 1.10403,14.31832 -2.23412,18.42681c-4.67717,5.75652 -18.30413,6.85104 -18.30413,6.85104z" fill="#8eb480"/><path d="M108.66904,207.20391c0,0 -1.10403,-14.31832 2.23412,-18.4268c4.67717,-5.75652 18.30413,-6.85104 18.30413,-6.85104z" data-paper-data="{&quot;index&quot;:null,&quot;origPos&quot;:null}" fill="#9dc78d"/></g><g data-paper-data="{&quot;origPos&quot;:null,&quot;index&quot;:null,&quot;origRot&quot;:0}"><path d="M137.48639,174.22336c0,0 9.80954,10.48839 9.77087,15.78191c-0.05418,7.41691 -10.00876,16.78699 -10.00876,16.78699z" fill="#8eb480"/><path d="M137.3851,206.68291c0,0 -9.80954,-10.48839 -9.77087,-15.78191c0.05418,-7.41691 10.00876,-16.78699 10.00876,-16.78699z" data-paper-data="{&quot;index&quot;:null,&quot;origPos&quot;:null}" fill="#9dc78d"/></g><g data-paper-data="{&quot;origPos&quot;:null,&quot;origRot&quot;:0,&quot;index&quot;:null}"><path d="M83.47711,194.33197c0,0 13.98184,-3.27739 18.55186,-0.60572c6.40319,3.74335 9.56562,17.04339 9.56562,17.04339z" fill="#8eb480"/><path d="M111.56787,210.5967c0,0 -13.98184,3.27739 -18.55185,0.60572c-6.40319,-3.74335 -9.56562,-17.04339 -9.56562,-17.04339z" data-paper-data="{&quot;index&quot;:null,&quot;origPos&quot;:null}" fill="#9dc78d"/></g><g data-paper-data="{&quot;origPos&quot;:null,&quot;index&quot;:null}"><path d="M113.23365,161.78241c0,0 13.62696,1.09452 18.30413,6.85104c3.33815,4.10849 2.23412,18.42681 2.23412,18.42681z" fill="#8eb480"/><path d="M133.94689,187.06027c0,0 -13.62696,-1.09452 -18.30413,-6.85104c-3.33815,-4.10848 -2.23412,-18.4268 -2.23412,-18.4268z" data-paper-data="{&quot;index&quot;:null,&quot;origPos&quot;:null}" fill="#9dc78d"/></g><g data-paper-data="{&quot;origPos&quot;:null,&quot;origRot&quot;:0,&quot;index&quot;:null}"><path d="M116.33419,158.21669c0,0 -3.16243,13.30004 -9.56562,17.04339c-4.57002,2.67167 -18.55186,-0.60572 -18.55186,-0.60572z" fill="#8eb480"/><path d="M88.18999,174.82731c0,0 3.16243,-13.30004 9.56562,-17.04339c4.57001,-2.67167 18.55185,0.60572 18.55185,0.60572z" data-paper-data="{&quot;index&quot;:null,&quot;origPos&quot;:null}" fill="#9dc78d"/></g><g data-paper-data="{&quot;origPos&quot;:null,&quot;index&quot;:null}"><path d="M126.16338,210.36365c0,0 -13.62696,-1.09452 -18.30413,-6.85104c-3.33815,-4.10849 -2.23412,-18.42681 -2.23412,-18.42681z" fill="#8eb480"/><path d="M105.45013,185.0858c0,0 13.62696,1.09452 18.30413,6.85104c3.33815,4.10848 2.23412,18.4268 2.23412,18.4268z" data-paper-data="{&quot;index&quot;:null,&quot;origPos&quot;:null}" fill="#9dc78d"/></g><g data-paper-data="{&quot;origPos&quot;:null,&quot;index&quot;:null,&quot;origRot&quot;:0}"><path d="M97.40893,209.952c0,0 -9.95459,-9.37008 -10.00876,-16.78699c-0.03866,-5.29352 9.77087,-15.78191 9.77087,-15.78191z" fill="#8eb480"/><path d="M97.03444,177.27373c0,0 9.95459,9.37008 10.00876,16.78699c0.03866,5.29352 -9.77087,15.78191 -9.77087,15.78191z" data-paper-data="{&quot;index&quot;:null,&quot;origPos&quot;:null}" fill="#9dc78d"/></g><g data-paper-data="{&quot;origPos&quot;:null,&quot;index&quot;:null}"><path d="M100.88553,190.22001c0,0 -1.10403,-14.31832 2.23412,-18.42681c4.67717,-5.75652 18.30413,-6.85104 18.30413,-6.85104z" fill="#8eb480"/><path d="M121.24879,164.94215c0,0 1.10403,14.31832 -2.23412,18.4268c-4.67717,5.75652 -18.30413,6.85104 -18.30413,6.85104z" data-paper-data="{&quot;index&quot;:null,&quot;origPos&quot;:null}" fill="#9dc78d"/></g><g data-paper-data="{&quot;origPos&quot;:null,&quot;index&quot;:null,&quot;origRot&quot;:0}"><path d="M92.43145,197.92271c0,0 -9.80954,-10.48839 -9.77087,-15.78191c0.05418,-7.41691 10.00876,-16.78699 10.00876,-16.78699z" fill="#8eb480"/><path d="M92.53274,165.46316c0,0 9.80954,10.48839 9.77087,15.78191c-0.05418,7.41691 -10.00876,16.78699 -10.00876,16.78699z" data-paper-data="{&quot;index&quot;:null,&quot;origPos&quot;:null}" fill="#9dc78d"/></g><g data-paper-data="{&quot;origPos&quot;:null,&quot;origRot&quot;:0,&quot;index&quot;:null}" fill="#9dc78d"><path d="M146.44072,177.81409c0,0 -13.98184,3.27739 -18.55186,0.60572c-6.40319,-3.74335 -9.56562,-17.04339 -9.56562,-17.04339z"/><path d="M118.34996,161.54937c0,0 13.98184,-3.27739 18.55185,-0.60572c6.40319,3.74335 9.56562,17.04339 9.56562,17.04339z" data-paper-data="{&quot;index&quot;:null,&quot;origPos&quot;:null}"/></g><g data-paper-data="{&quot;origPos&quot;:null,&quot;index&quot;:null}" fill="#9dc78d"><path d="M140.88129,151.18963c0,0 1.10403,14.31832 -2.23412,18.42681c-4.67717,5.75652 -18.30413,6.85104 -18.30413,6.85104z"/><path d="M120.51805,176.46748c0,0 -1.10403,-14.31832 2.23412,-18.4268c4.67717,-5.75652 18.30413,-6.85104 18.30413,-6.85104z" data-paper-data="{&quot;index&quot;:null,&quot;origPos&quot;:null}"/></g><g data-paper-data="{&quot;origPos&quot;:null,&quot;origRot&quot;:0,&quot;index&quot;:null}"><path d="M95.3261,163.59554c0,0 13.98184,-3.27739 18.55186,-0.60572c6.40319,3.74335 9.56562,17.04339 9.56562,17.04339z" fill="#8eb480"/><path d="M123.41686,179.86026c0,0 -13.98184,3.27739 -18.55185,0.60572c-6.40319,-3.74335 -9.56562,-17.04339 -9.56562,-17.04339z" data-paper-data="{&quot;index&quot;:null,&quot;origPos&quot;:null}" fill="#9dc78d"/></g><g data-paper-data="{&quot;origPos&quot;:null,&quot;index&quot;:null,&quot;origRot&quot;:0}"><path d="M104.28045,160.8668c0,0 -9.80954,-10.48839 -9.77087,-15.78191c0.05418,-7.41691 10.00876,-16.78699 10.00876,-16.78699z" fill="#8eb480"/><path d="M104.38172,128.40726c0,0 9.80954,10.48839 9.77087,15.78191c-0.05418,7.41691 -10.00876,16.78699 -10.00876,16.78699z" data-paper-data="{&quot;index&quot;:null,&quot;origPos&quot;:null}" fill="#9dc78d"/></g><g data-paper-data="{&quot;origPos&quot;:null,&quot;index&quot;:null}"><path d="M128.53318,173.30775c0,0 -13.62696,-1.09452 -18.30413,-6.85104c-3.33815,-4.10849 -2.23412,-18.42681 -2.23412,-18.42681z" fill="#8eb480"/><path d="M107.81993,148.02991c0,0 13.62696,1.09452 18.30413,6.85104c3.33815,4.10848 2.23412,18.4268 2.23412,18.4268z" data-paper-data="{&quot;index&quot;:null,&quot;origPos&quot;:null}" fill="#9dc78d"/></g><g data-paper-data="{&quot;origPos&quot;:null,&quot;index&quot;:null,&quot;origRot&quot;:0}"><path d="M99.77872,172.89611c0,0 -9.95459,-9.37008 -10.00876,-16.78699c-0.03866,-5.29352 9.77087,-15.78191 9.77087,-15.78191z" fill="#8eb480"/><path d="M99.40424,140.21784c0,0 9.95459,9.37008 10.00876,16.78699c0.03866,5.29352 -9.77087,15.78191 -9.77087,15.78191z" data-paper-data="{&quot;index&quot;:null,&quot;origPos&quot;:null}" fill="#9dc78d"/></g><g data-paper-data="{&quot;origPos&quot;:null,&quot;index&quot;:null,&quot;origRot&quot;:0}" fill="#9dc78d"><path d="M125.63739,135.51666c0,0 9.80954,10.48839 9.77087,15.78191c-0.05418,7.41691 -10.00876,16.78699 -10.00876,16.78699z"/><path d="M125.53611,167.9762c0,0 -9.80954,-10.48839 -9.77087,-15.78191c0.05418,-7.41691 10.00876,-16.78699 10.00876,-16.78699z" data-paper-data="{&quot;index&quot;:null,&quot;origPos&quot;:null}"/></g><g data-paper-data="{&quot;origPos&quot;:null,&quot;index&quot;:null}"><path d="M101.38466,123.07572c0,0 13.62696,1.09452 18.30413,6.85104c3.33815,4.10849 2.23412,18.42681 2.23412,18.42681z" fill="#8eb480"/><path d="M122.0979,148.35356c0,0 -13.62696,-1.09452 -18.30413,-6.85104c-3.33815,-4.10848 -2.23412,-18.4268 -2.23412,-18.4268z" data-paper-data="{&quot;index&quot;:null,&quot;origPos&quot;:null}" fill="#9dc78d"/></g><g data-paper-data="{&quot;origPos&quot;:null,&quot;index&quot;:null,&quot;origRot&quot;:0}" fill="#9dc78d"><path d="M130.1391,123.48737c0,0 9.95459,9.37008 10.00876,16.78699c0.03866,5.29352 -9.77087,15.78191 -9.77087,15.78191z"/><path d="M130.5136,156.16563c0,0 -9.95459,-9.37008 -10.00876,-16.78699c-0.03866,-5.29352 9.77087,-15.78191 9.77087,-15.78191z" data-paper-data="{&quot;index&quot;:null,&quot;origPos&quot;:null}"/></g><g data-paper-data="{&quot;origPos&quot;:null,&quot;origRot&quot;:0,&quot;index&quot;:null}"><path d="M104.4852,119.50999c0,0 -3.16243,13.30004 -9.56562,17.04339c-4.57002,2.67167 -18.55186,-0.60572 -18.55186,-0.60572z" fill="#8eb480"/><path d="M76.34101,136.12061c0,0 3.16243,-13.30004 9.56562,-17.04339c4.57001,-2.67167 18.55185,0.60572 18.55185,0.60572z" data-paper-data="{&quot;index&quot;:null,&quot;origPos&quot;:null}" fill="#9dc78d"/></g><g data-paper-data="{&quot;origPos&quot;:null,&quot;index&quot;:null,&quot;origRot&quot;:0}"><path d="M85.55994,171.2453c0,0 -9.95459,-9.37008 -10.00876,-16.78699c-0.03866,-5.29352 9.77087,-15.78191 9.77087,-15.78191z" fill="#8eb480"/><path d="M85.18544,138.56703c0,0 9.95459,9.37008 10.00876,16.78699c0.03866,5.29352 -9.77087,15.78191 -9.77087,15.78191z" data-paper-data="{&quot;index&quot;:null,&quot;origPos&quot;:null}" fill="#9dc78d"/></g><g data-paper-data="{&quot;origPos&quot;:null,&quot;index&quot;:null}"><path d="M89.03655,151.5133c0,0 -1.10403,-14.31832 2.23412,-18.42681c4.67717,-5.75652 18.30413,-6.85104 18.30413,-6.85104z" fill="#8eb480"/><path d="M109.3998,126.23545c0,0 1.10403,14.31832 -2.23412,18.4268c-4.67717,5.75652 -18.30413,6.85104 -18.30413,6.85104z" data-paper-data="{&quot;index&quot;:null,&quot;origPos&quot;:null}" fill="#9dc78d"/></g><g data-paper-data="{&quot;origPos&quot;:null,&quot;index&quot;:null,&quot;origRot&quot;:0}"><path d="M80.58246,159.216c0,0 -9.80954,-10.48839 -9.77087,-15.78191c0.05418,-7.41691 10.00876,-16.78699 10.00876,-16.78699z" fill="#8eb480"/><path d="M80.68374,126.75646c0,0 9.80954,10.48839 9.77087,15.78191c-0.05418,7.41691 -10.00876,16.78699 -10.00876,16.78699z" data-paper-data="{&quot;index&quot;:null,&quot;origPos&quot;:null}" fill="#9dc78d"/></g><g data-paper-data="{&quot;origPos&quot;:null,&quot;origRot&quot;:0,&quot;index&quot;:null}"><path d="M134.59173,139.10739c0,0 -13.98184,3.27739 -18.55186,0.60572c-6.40319,-3.74335 -9.56562,-17.04339 -9.56562,-17.04339z" fill="#8eb480"/><path d="M106.50097,122.84267c0,0 13.98184,-3.27739 18.55185,-0.60572c6.40319,3.74335 9.56562,17.04339 9.56562,17.04339z" data-paper-data="{&quot;index&quot;:null,&quot;origPos&quot;:null}" fill="#9dc78d"/></g><g data-paper-data="{&quot;origPos&quot;:null,&quot;index&quot;:null}"><path d="M96.93587,182.716c0,0 -13.62696,-1.09452 -18.30413,-6.85104c-3.33815,-4.10849 -2.23412,-18.42681 -2.23412,-18.42681z" fill="#8eb480"/><path d="M76.22262,157.43816c0,0 13.62696,1.09452 18.30413,6.85104c3.33815,4.10848 2.23412,18.4268 2.23412,18.4268z" data-paper-data="{&quot;index&quot;:null,&quot;origPos&quot;:null}" fill="#9dc78d"/></g><g data-paper-data="{&quot;origPos&quot;:null,&quot;index&quot;:null,&quot;origRot&quot;:0}"><path d="M68.18142,182.30435c0,0 -9.95459,-9.37008 -10.00876,-16.78699c-0.03866,-5.29352 9.77087,-15.78191 9.77087,-15.78191z" fill="#8eb480"/><path d="M67.80692,149.62609c0,0 9.95459,9.37008 10.00876,16.78699c0.03866,5.29352 -9.77087,15.78191 -9.77087,15.78191z" data-paper-data="{&quot;index&quot;:null,&quot;origPos&quot;:null}" fill="#9dc78d"/></g><g data-paper-data="{&quot;origPos&quot;:null,&quot;origRot&quot;:0,&quot;index&quot;:null}"><path d="M93.83533,186.28173c0,0 3.16243,-13.30004 9.56562,-17.04339c4.57002,-2.67167 18.55186,0.60572 18.55186,0.60572z" fill="#8eb480"/><path d="M121.97952,169.6711c0,0 -3.16243,13.30004 -9.56562,17.04339c-4.57001,2.67167 -18.55185,-0.60572 -18.55185,-0.60572z" data-paper-data="{&quot;index&quot;:null,&quot;origPos&quot;:null}" fill="#9dc78d"/></g><g data-paper-data="{&quot;origPos&quot;:null,&quot;index&quot;:null}"><path d="M109.28398,154.27842c0,0 1.10403,14.31832 -2.23412,18.42681c-4.67717,5.75652 -18.30413,6.85104 -18.30413,6.85104z" fill="#8eb480"/><path d="M88.92073,179.55627c0,0 -1.10403,-14.31832 2.23412,-18.4268c4.67717,-5.75652 18.30413,-6.85104 18.30413,-6.85104z" data-paper-data="{&quot;index&quot;:null,&quot;origPos&quot;:null}" fill="#9dc78d"/></g><g data-paper-data="{&quot;origPos&quot;:null,&quot;index&quot;:null,&quot;origRot&quot;:0}"><path d="M117.73807,146.57572c0,0 9.80954,10.48839 9.77087,15.78191c-0.05418,7.41691 -10.00876,16.78699 -10.00876,16.78699z" fill="#8eb480"/><path d="M117.63679,179.03526c0,0 -9.80954,-10.48839 -9.77087,-15.78191c0.05418,-7.41691 10.00876,-16.78699 10.00876,-16.78699z" data-paper-data="{&quot;index&quot;:null,&quot;origPos&quot;:null}" fill="#9dc78d"/></g><g data-paper-data="{&quot;origPos&quot;:null,&quot;origRot&quot;:0,&quot;index&quot;:null}"><path d="M63.72879,166.68433c0,0 13.98184,-3.27739 18.55186,-0.60572c6.40319,3.74335 9.56562,17.04339 9.56562,17.04339z" fill="#8eb480"/><path d="M91.81955,182.94905c0,0 -13.98184,3.27739 -18.55185,0.60572c-6.40319,-3.74335 -9.56562,-17.04339 -9.56562,-17.04339z" data-paper-data="{&quot;index&quot;:null,&quot;origPos&quot;:null}" fill="#9dc78d"/></g><g data-paper-data="{&quot;origPos&quot;:null,&quot;index&quot;:null,&quot;origRot&quot;:0}" fill="#8db27e"><path d="M65.81162,213.04079c0,0 -9.95459,-9.37008 -10.00876,-16.78699c-0.03866,-5.29352 9.77087,-15.78191 9.77087,-15.78191z"/><path d="M65.43712,180.36252c0,0 9.95459,9.37008 10.00876,16.78699c0.03866,5.29352 -9.77087,15.78191 -9.77087,15.78191z" data-paper-data="{&quot;index&quot;:null,&quot;origPos&quot;:null}"/></g><g data-paper-data="{&quot;origPos&quot;:null,&quot;index&quot;:null}"><path d="M69.28822,193.30879c0,0 -1.10403,-14.31832 2.23412,-18.42681c4.67717,-5.75652 18.30413,-6.85104 18.30413,-6.85104z" fill="#8eb480"/><path d="M89.65148,168.03093c0,0 1.10403,14.31832 -2.23412,18.4268c-4.67717,5.75652 -18.30413,6.85104 -18.30413,6.85104z" data-paper-data="{&quot;index&quot;:null,&quot;origPos&quot;:null}" fill="#9dc78d"/></g><g data-paper-data="{&quot;origPos&quot;:null,&quot;index&quot;:null,&quot;origRot&quot;:0}" fill="#8db27e"><path d="M60.83414,201.01149c0,0 -9.80954,-10.48839 -9.77087,-15.78191c0.05418,-7.41691 10.00876,-16.78699 10.00876,-16.78699z"/><path d="M60.93542,168.55194c0,0 9.80954,10.48839 9.77087,15.78191c-0.05418,7.41691 -10.00876,16.78699 -10.00876,16.78699z" data-paper-data="{&quot;index&quot;:null,&quot;origPos&quot;:null}"/></g><g data-paper-data="{&quot;origPos&quot;:null,&quot;origRot&quot;:0,&quot;index&quot;:null}"><path d="M114.84341,180.90288c0,0 -13.98184,3.27739 -18.55186,0.60572c-6.40319,-3.74335 -9.56562,-17.04339 -9.56562,-17.04339z" fill="#8eb480"/><path d="M86.75266,164.63816c0,0 13.98184,-3.27739 18.55185,-0.60572c6.40319,3.74335 9.56562,17.04339 9.56562,17.04339z" data-paper-data="{&quot;index&quot;:null,&quot;origPos&quot;:null}" fill="#9dc78d"/></g><g data-paper-data="{&quot;origPos&quot;:null,&quot;index&quot;:null,&quot;origRot&quot;:0}"><path d="M105.88908,183.63161c0,0 9.80954,10.48839 9.77087,15.78191c-0.05418,7.41691 -10.00876,16.78699 -10.00876,16.78699z" fill="#8eb480"/><path d="M105.78779,216.09116c0,0 -9.80954,-10.48839 -9.77087,-15.78191c0.05418,-7.41691 10.00876,-16.78699 10.00876,-16.78699z" data-paper-data="{&quot;index&quot;:null,&quot;origPos&quot;:null}" fill="#9dc78d"/></g><g data-paper-data="{&quot;origPos&quot;:null,&quot;index&quot;:null}"><path d="M81.63634,171.19067c0,0 13.62696,1.09452 18.30413,6.85104c3.33815,4.10849 2.23412,18.42681 2.23412,18.42681z" fill="#8eb480"/><path d="M102.34958,196.46851c0,0 -13.62696,-1.09452 -18.30413,-6.85104c-3.33815,-4.10848 -2.23412,-18.4268 -2.23412,-18.4268z" data-paper-data="{&quot;index&quot;:null,&quot;origPos&quot;:null}" fill="#9dc78d"/></g><g data-paper-data="{&quot;origPos&quot;:null,&quot;index&quot;:null,&quot;origRot&quot;:0}"><path d="M110.39078,171.60232c0,0 9.95459,9.37008 10.00876,16.78699c0.03866,5.29352 -9.77087,15.78191 -9.77087,15.78191z" fill="#8eb480"/><path d="M110.76528,204.28058c0,0 -9.95459,-9.37008 -10.00876,-16.78699c-0.03866,-5.29352 9.77087,-15.78191 9.77087,-15.78191z" data-paper-data="{&quot;index&quot;:null,&quot;origPos&quot;:null}" fill="#9dc78d"/></g><g data-paper-data="{&quot;origPos&quot;:null,&quot;origRot&quot;:0,&quot;index&quot;:null}"><path d="M84.73688,167.62493c0,0 -3.16243,13.30004 -9.56562,17.04339c-4.57002,2.67167 -18.55186,-0.60572 -18.55186,-0.60572z" fill="#8eb480"/><path d="M56.59269,184.23556c0,0 3.16243,-13.30004 9.56562,-17.04339c4.57001,-2.67167 18.55185,0.60572 18.55185,0.60572z" data-paper-data="{&quot;index&quot;:null,&quot;origPos&quot;:null}" fill="#9dc78d"/></g><g data-paper-data="{&quot;origPos&quot;:null,&quot;index&quot;:null,&quot;origRot&quot;:0}"><path d="M84.53212,208.98176c0,0 -9.80954,-10.48839 -9.77087,-15.78191c0.05418,-7.41691 10.00876,-16.78699 10.00876,-16.78699z" fill="#8eb480"/><path d="M84.6334,176.52222c0,0 9.80954,10.48839 9.77087,15.78191c-0.05418,7.41691 -10.00876,16.78699 -10.00876,16.78699z" data-paper-data="{&quot;index&quot;:null,&quot;origPos&quot;:null}" fill="#9dc78d"/></g><g data-paper-data="{&quot;origPos&quot;:null,&quot;index&quot;:null}"><path d="M108.78486,221.4227c0,0 -13.62696,-1.09452 -18.30413,-6.85104c-3.33815,-4.10849 -2.23412,-18.42681 -2.23412,-18.42681z" fill="#8eb480"/><path d="M88.07161,196.14486c0,0 13.62696,1.09452 18.30413,6.85104c3.33815,4.10848 2.23412,18.4268 2.23412,18.4268z" data-paper-data="{&quot;index&quot;:null,&quot;origPos&quot;:null}" fill="#9dc78d"/></g><g data-paper-data="{&quot;origPos&quot;:null,&quot;index&quot;:null,&quot;origRot&quot;:0}" fill="#8db27e"><path d="M80.03041,221.01106c0,0 -9.95459,-9.37008 -10.00876,-16.78699c-0.03866,-5.29352 9.77087,-15.78191 9.77087,-15.78191z"/><path d="M79.65591,188.33279c0,0 9.95459,9.37008 10.00876,16.78699c0.03866,5.29352 -9.77087,15.78191 -9.77087,15.78191z" data-paper-data="{&quot;index&quot;:null,&quot;origPos&quot;:null}"/></g><g data-paper-data="{&quot;origPos&quot;:null,&quot;origRot&quot;:0,&quot;index&quot;:null}" fill="#9dc78d"><path d="M105.68432,224.98843c0,0 3.16243,-13.30004 9.56562,-17.04339c4.57002,-2.67167 18.55186,0.60572 18.55186,0.60572z"/><path d="M133.82851,208.37781c0,0 -3.16243,13.30004 -9.56562,17.04339c-4.57001,2.67167 -18.55185,-0.60572 -18.55185,-0.60572z" data-paper-data="{&quot;index&quot;:null,&quot;origPos&quot;:null}"/></g><g data-paper-data="{&quot;origPos&quot;:null,&quot;index&quot;:null,&quot;origRot&quot;:0}" fill="#9dc78d"><path d="M124.60957,173.25313c0,0 9.95459,9.37008 10.00876,16.78699c0.03866,5.29352 -9.77087,15.78191 -9.77087,15.78191z"/><path d="M124.98407,205.93139c0,0 -9.95459,-9.37008 -10.00876,-16.78699c-0.03866,-5.29352 9.77087,-15.78191 9.77087,-15.78191z" data-paper-data="{&quot;index&quot;:null,&quot;origPos&quot;:null}"/></g><g data-paper-data="{&quot;origPos&quot;:null,&quot;index&quot;:null}" fill="#9dc78d"><path d="M121.13297,192.98512c0,0 1.10403,14.31832 -2.23412,18.42681c-4.67717,5.75652 -18.30413,6.85104 -18.30413,6.85104z"/><path d="M100.76972,218.26297c0,0 -1.10403,-14.31832 2.23412,-18.4268c4.67717,-5.75652 18.30413,-6.85104 18.30413,-6.85104z" data-paper-data="{&quot;index&quot;:null,&quot;origPos&quot;:null}"/></g><g data-paper-data="{&quot;origPos&quot;:null,&quot;index&quot;:null,&quot;origRot&quot;:0}" fill="#9dc78d"><path d="M134.32665,186.86228c0,0 9.80954,10.48839 9.77087,15.78191c-0.05418,7.41691 -10.00876,16.78699 -10.00876,16.78699z"/><path d="M134.22537,219.32183c0,0 -9.80954,-10.48839 -9.77087,-15.78191c0.05418,-7.41691 10.00876,-16.78699 10.00876,-16.78699z" data-paper-data="{&quot;index&quot;:null,&quot;origPos&quot;:null}"/></g><g data-paper-data="{&quot;origPos&quot;:null,&quot;origRot&quot;:0,&quot;index&quot;:null}" fill="#8db27e"><path d="M75.57778,205.39103c0,0 13.98184,-3.27739 18.55186,-0.60572c6.40319,3.74335 9.56562,17.04339 9.56562,17.04339z"/><path d="M103.66854,221.65575c0,0 -13.98184,3.27739 -18.55185,0.60572c-6.40319,-3.74335 -9.56562,-17.04339 -9.56562,-17.04339z" data-paper-data="{&quot;index&quot;:null,&quot;origPos&quot;:null}"/></g><g data-paper-data="{&quot;origPos&quot;:null,&quot;index&quot;:null,&quot;origRot&quot;:0}"><path d="M94.46066,121.20131c0,0 5.86088,13.11042 4.10109,18.10302c-2.46568,6.99527 -14.92832,12.6144 -14.92832,12.6144z" fill="#8eb480"/><path d="M83.79821,151.8598c0,0 -5.86089,-13.11041 -4.10109,-18.10301c2.46568,-6.99526 14.92833,-12.6144 14.92833,-12.6144z" data-paper-data="{&quot;index&quot;:null,&quot;origPos&quot;:null}" fill="#9dc78d"/></g><g data-paper-data="{&quot;origPos&quot;:null,&quot;index&quot;:null,&quot;origRot&quot;:0}" fill="#9dc78d"><path d="M99.82737,111.10172c0,0 12.76838,6.5728 14.51442,11.57022c2.44644,7.00202 -3.77169,19.17687 -3.77169,19.17687z"/><path d="M110.66191,141.69984c0,0 -12.76838,-6.5728 -14.51443,-11.57021c-2.44644,-7.00202 3.7717,-19.17687 3.7717,-19.17687z" data-paper-data="{&quot;index&quot;:null,&quot;origPos&quot;:null}"/></g><g data-paper-data="{&quot;origPos&quot;:null,&quot;origRot&quot;:0,&quot;index&quot;:null}"><path d="M55.74311,148.22228c0,0 12.06177,-7.79402 17.26454,-6.81721c7.28973,1.36865 14.74593,12.82715 14.74593,12.82715z" fill="#8eb480"/><path d="M87.67018,154.07836c0,0 -12.06176,7.79403 -17.26452,6.81721c-7.28973,-1.36864 -14.74594,-12.82714 -14.74594,-12.82714z" data-paper-data="{&quot;index&quot;:null,&quot;origPos&quot;:null}" fill="#9dc78d"/></g><g data-paper-data="{&quot;origPos&quot;:null,&quot;index&quot;:null,&quot;origRot&quot;:0}"><path d="M90.28133,146.1857c0,0 -13.19976,3.55792 -19.54215,-0.28752c-4.52664,-2.74453 -8.3084,-16.59846 -8.3084,-16.59846z" fill="#8eb480"/><path d="M62.26601,129.35865c0,0 13.19976,-3.55791 19.54215,0.28752c4.52663,2.74453 8.30839,16.59846 8.30839,16.59846z" data-paper-data="{&quot;index&quot;:null,&quot;origPos&quot;:null}" fill="#9dc78d"/></g><g data-paper-data="{&quot;origPos&quot;:null,&quot;index&quot;:null,&quot;origRot&quot;:0}"><path d="M69.38689,160.22001c0,0 -12.52839,-5.47096 -15.07686,-12.4365c-1.81886,-4.97138 3.88614,-18.15038 3.88614,-18.15038z" fill="#8db27e"/><path d="M58.03072,129.57614c0,0 12.52839,5.47096 15.07685,12.4365c1.81886,4.97138 -3.88614,18.15038 -3.88614,18.15038z" data-paper-data="{&quot;index&quot;:null,&quot;origPos&quot;:null}" fill="#9dc78d"/></g><g data-paper-data="{&quot;origPos&quot;:null,&quot;origRot&quot;:0,&quot;index&quot;:null}"><path d="M88.56252,150.58724c0,0 -1.50068,-13.58823 3.26811,-19.26909c3.40352,-4.05449 17.67245,-5.6765 17.67245,-5.6765z" fill="#8eb480"/><path d="M109.47,125.4698c0,0 1.50068,13.58823 -3.2681,19.26909c-3.40353,4.05448 -17.67245,5.6765 -17.67245,5.6765z" data-paper-data="{&quot;index&quot;:null,&quot;origPos&quot;:null}" fill="#9dc78d"/></g><g data-paper-data="{&quot;origPos&quot;:null,&quot;index&quot;:null,&quot;origRot&quot;:0}" fill="#9dc78d"><path d="M112.40847,139.24529c0,0 12.76838,6.5728 14.51443,11.57022c2.44644,7.00202 -3.7717,19.17687 -3.7717,19.17687z"/><path d="M123.24301,169.8434c0,0 -12.76838,-6.5728 -14.51443,-11.57022c-2.44644,-7.00202 3.7717,-19.17687 3.7717,-19.17687z" data-paper-data="{&quot;index&quot;:null,&quot;origPos&quot;:null}"/></g><g data-paper-data="{&quot;origPos&quot;:null,&quot;index&quot;:null,&quot;origRot&quot;:0}"><path d="M85.38285,135.69733c0,0 13.19975,-3.55791 19.54214,0.28752c4.52664,2.74453 8.3084,16.59847 8.3084,16.59847z" fill="#8eb480"/><path d="M113.39817,152.52438c0,0 -13.19975,3.55792 -19.54214,-0.28752c-4.52663,-2.74452 -8.30839,-16.59845 -8.30839,-16.59845z" data-paper-data="{&quot;index&quot;:null,&quot;origPos&quot;:null}" fill="#9dc78d"/></g><g data-paper-data="{&quot;origPos&quot;:null,&quot;index&quot;:null,&quot;origRot&quot;:0}" fill="#9dc78d"><path d="M112.59674,126.40263c0,0 12.5284,5.47095 15.07686,12.4365c1.81886,4.97138 -3.88614,18.15039 -3.88614,18.15039z"/><path d="M123.95292,157.04648c0,0 -12.52839,-5.47095 -15.07685,-12.4365c-1.81886,-4.97138 3.88614,-18.15038 3.88614,-18.15038z" data-paper-data="{&quot;index&quot;:null,&quot;origPos&quot;:null}"/></g><g data-paper-data="{&quot;origPos&quot;:null,&quot;origRot&quot;:0,&quot;index&quot;:null}" fill="#9dc78d"><path d="M87.10166,131.29579c0,0 1.50068,13.58823 -3.2681,19.26909c-3.40352,4.05449 -17.67245,5.67651 -17.67245,5.67651z"/><path d="M66.19419,156.41323c0,0 -1.50068,-13.58823 3.2681,-19.26909c3.40352,-4.05448 17.67245,-5.6765 17.67245,-5.6765z" data-paper-data="{&quot;index&quot;:null,&quot;origPos&quot;:null}"/></g><g data-paper-data="{&quot;origPos&quot;:null,&quot;index&quot;:null,&quot;origRot&quot;:0}"><path d="M86.70208,186.38252c0,0 -12.52839,-5.47095 -15.07685,-12.4365c-1.81886,-4.97138 3.88614,-18.15038 3.88614,-18.15038z" fill="#8eb480"/><path d="M75.34591,155.73866c0,0 12.5284,5.47095 15.07686,12.4365c1.81886,4.97138 -3.88614,18.15039 -3.88614,18.15039z" data-paper-data="{&quot;index&quot;:null,&quot;origPos&quot;:null}" fill="#9dc78d"/></g><g data-paper-data="{&quot;origPos&quot;:null,&quot;index&quot;:null,&quot;origRot&quot;:0}" fill="#9dc78d"><path d="M83.33143,166.63216c0,0 -5.86088,-13.11042 -4.10109,-18.10302c2.46568,-6.99527 14.92832,-12.6144 14.92832,-12.6144z"/><path d="M93.99388,135.97365c0,0 5.86089,13.11042 4.10109,18.10302c-2.46568,6.99528 -14.92832,12.6144 -14.92832,12.6144z" data-paper-data="{&quot;index&quot;:null,&quot;origPos&quot;:null}"/></g><g data-paper-data="{&quot;origPos&quot;:null,&quot;index&quot;:null,&quot;origRot&quot;:0}" fill="#9dc78d"><path d="M77.96473,176.73174c0,0 -12.76838,-6.5728 -14.51443,-11.57021c-2.44644,-7.00202 3.77169,-19.17687 3.77169,-19.17687z"/><path d="M67.13018,146.13362c0,0 12.76838,6.5728 14.51443,11.57022c2.44644,7.00202 -3.7717,19.17687 -3.7717,19.17687z" data-paper-data="{&quot;index&quot;:null,&quot;origPos&quot;:null}"/></g><g data-paper-data="{&quot;origPos&quot;:null,&quot;origRot&quot;:0,&quot;index&quot;:null}" fill="#9dc78d"><path d="M122.04898,139.61118c0,0 -12.06177,7.79403 -17.26453,6.81721c-7.28973,-1.36865 -14.74593,-12.82715 -14.74593,-12.82715z"/><path d="M90.12192,133.7551c0,0 12.06177,-7.79402 17.26453,-6.8172c7.28973,1.36864 14.74593,12.82714 14.74593,12.82714z" data-paper-data="{&quot;index&quot;:null,&quot;origPos&quot;:null}"/></g><g data-paper-data="{&quot;origPos&quot;:null,&quot;index&quot;:null,&quot;origRot&quot;:0}" fill="#9dc78d"><path d="M92.96644,141.88713c0,0 12.52839,5.47096 15.07685,12.4365c1.81886,4.97138 -3.88614,18.15039 -3.88614,18.15039z"/><path d="M104.3226,172.531c0,0 -12.52839,-5.47096 -15.07685,-12.4365c-1.81886,-4.97138 3.88613,-18.15038 3.88613,-18.15038z" data-paper-data="{&quot;index&quot;:null,&quot;origPos&quot;:null}"/></g><g data-paper-data="{&quot;origPos&quot;:null,&quot;index&quot;:null,&quot;origRot&quot;:0}"><path d="M96.33709,161.63751c0,0 5.86088,13.11043 4.10109,18.10303c-2.46568,6.99527 -14.92832,12.6144 -14.92832,12.6144z" fill="#8eb480"/><path d="M85.67464,192.29601c0,0 -5.86089,-13.11042 -4.10109,-18.10302c2.46568,-6.99527 14.92832,-12.6144 14.92832,-12.6144z" data-paper-data="{&quot;index&quot;:null,&quot;origPos&quot;:null}" fill="#9dc78d"/></g><g data-paper-data="{&quot;origPos&quot;:null,&quot;index&quot;:null,&quot;origRot&quot;:0}" fill="#9dc78d"><path d="M101.7038,151.53793c0,0 12.76838,6.5728 14.51443,11.57022c2.44644,7.00202 -3.7717,19.17687 -3.7717,19.17687z"/><path d="M112.53834,182.13604c0,0 -12.76838,-6.5728 -14.51443,-11.57022c-2.44644,-7.00202 3.7717,-19.17687 3.7717,-19.17687z" data-paper-data="{&quot;index&quot;:null,&quot;origPos&quot;:null}"/></g><g data-paper-data="{&quot;origPos&quot;:null,&quot;origRot&quot;:0,&quot;index&quot;:null}" fill="#8db27e"><path d="M57.61954,188.65847c0,0 12.06177,-7.79402 17.26454,-6.8172c7.28973,1.36864 14.74593,12.82714 14.74593,12.82714z"/><path d="M89.5466,194.51455c0,0 -12.06177,7.79403 -17.26453,6.81721c-7.28973,-1.36864 -14.74593,-12.82714 -14.74593,-12.82714z" data-paper-data="{&quot;index&quot;:null,&quot;origPos&quot;:null}"/></g><g data-paper-data="{&quot;origPos&quot;:null,&quot;index&quot;:null,&quot;origRot&quot;:0}" fill="#8db27e"><path d="M65.13213,179.12428c0,0 -12.76838,-6.57281 -14.51443,-11.57022c-2.44644,-7.00202 3.7717,-19.17686 3.7717,-19.17686z"/><path d="M54.29759,148.52617c0,0 12.76839,6.57281 14.51443,11.57022c2.44644,7.00202 -3.7717,19.17686 -3.7717,19.17686z" data-paper-data="{&quot;index&quot;:null,&quot;origPos&quot;:null}"/></g><g data-paper-data="{&quot;origPos&quot;:null,&quot;index&quot;:null,&quot;origRot&quot;:0}"><path d="M92.15775,186.62191c0,0 -13.19975,3.55792 -19.54214,-0.28752c-4.52664,-2.74453 -8.3084,-16.59846 -8.3084,-16.59846z" fill="#8db27e"/><path d="M64.14243,169.79485c0,0 13.19975,-3.55791 19.54214,0.28752c4.52663,2.74452 8.30839,16.59845 8.30839,16.59845z" data-paper-data="{&quot;index&quot;:null,&quot;origPos&quot;:null}" fill="#9dc78d"/></g><g data-paper-data="{&quot;origPos&quot;:null,&quot;index&quot;:null,&quot;origRot&quot;:0}" fill="#8db27e"><path d="M64.94386,195.91661c0,0 -12.52839,-5.47096 -15.07686,-12.4365c-1.81886,-4.97138 3.88614,-18.15038 3.88614,-18.15038z"/><path d="M53.58768,165.27274c0,0 12.52839,5.47095 15.07685,12.4365c1.81886,4.97138 -3.88614,18.15039 -3.88614,18.15039z" data-paper-data="{&quot;index&quot;:null,&quot;origPos&quot;:null}"/></g><g data-paper-data="{&quot;origPos&quot;:null,&quot;origRot&quot;:0,&quot;index&quot;:null}" fill="#9dc78d"><path d="M90.43894,191.02343c0,0 -1.50069,-13.58823 3.2681,-19.26909c3.40353,-4.05449 17.67246,-5.6765 17.67246,-5.6765z"/><path d="M111.34641,165.906c0,0 1.50069,13.58823 -3.2681,19.26909c-3.40353,4.05448 -17.67245,5.6765 -17.67245,5.6765z" data-paper-data="{&quot;index&quot;:null,&quot;origPos&quot;:null}"/></g><g data-paper-data="{&quot;origPos&quot;:null,&quot;index&quot;:null,&quot;origRot&quot;:0}"><path d="M135.50577,145.37167c0,0 9.42402,10.07619 9.38687,15.16168c-0.05204,7.12542 -9.61541,16.12726 -9.61541,16.12726z" fill="#8eb480"/><path d="M135.40847,176.55555c0,0 -9.42402,-10.07619 -9.38687,-15.16168c0.05204,-7.12542 9.61541,-16.12726 9.61541,-16.12726z" data-paper-data="{&quot;index&quot;:null,&quot;origPos&quot;:null}" fill="#9dc78d"/></g><g data-paper-data="{&quot;origPos&quot;:null,&quot;origRot&quot;:0,&quot;index&quot;:null}"><path d="M112.5424,177.44613c0,0 3.03815,-12.77735 9.18969,-16.37359c4.39042,-2.56667 17.82278,0.58192 17.82278,0.58192z" fill="#8eb480"/><path d="M139.58053,161.48831c0,0 -3.03815,12.77735 -9.18969,16.37359c-4.39041,2.56667 -17.82277,-0.58192 -17.82277,-0.58192z" data-paper-data="{&quot;index&quot;:null,&quot;origPos&quot;:null}" fill="#9dc78d"/></g><g data-paper-data="{&quot;origPos&quot;:null,&quot;index&quot;:null,&quot;origRot&quot;:0}" fill="#9dc78d"><path d="M137.78244,174.90017c0,0 9.42402,10.07619 9.38687,15.16168c-0.05204,7.12542 -9.61541,16.12726 -9.61541,16.12726z"/><path d="M137.68513,206.08405c0,0 -9.42402,-10.07619 -9.38687,-15.16168c0.05204,-7.12542 9.61541,-16.12726 9.61541,-16.12726z" data-paper-data="{&quot;index&quot;:null,&quot;origPos&quot;:null}"/></g><g data-paper-data="{&quot;origPos&quot;:null,&quot;index&quot;:null}"><path d="M114.48282,162.94815c0,0 13.09142,1.0515 17.58478,6.58179c3.20697,3.94703 2.14632,17.70264 2.14632,17.70264z" fill="#8eb480"/><path d="M134.38204,187.23256c0,0 -13.09142,-1.0515 -17.58478,-6.58179c-3.20697,-3.94702 -2.14632,-17.70263 -2.14632,-17.70263z" data-paper-data="{&quot;index&quot;:null,&quot;origPos&quot;:null}" fill="#9dc78d"/></g><g data-paper-data="{&quot;origPos&quot;:null,&quot;index&quot;:null,&quot;origRot&quot;:0}" fill="#9dc78d"><path d="M142.10722,163.34363c0,0 9.56337,9.00184 9.61541,16.12726c0.03715,5.08548 -9.38687,15.16168 -9.38687,15.16168z"/><path d="M142.467,194.73762c0,0 -9.56337,-9.00184 -9.61541,-16.12726c-0.03715,-5.08548 9.38687,-15.16168 9.38687,-15.16168z" data-paper-data="{&quot;index&quot;:null,&quot;origPos&quot;:null}"/></g><g data-paper-data="{&quot;origPos&quot;:null,&quot;origRot&quot;:0,&quot;index&quot;:null}"><path d="M146.38486,178.34977c0,0 -13.43236,3.14859 -17.82278,0.58192c-6.15154,-3.59624 -9.18969,-16.37359 -9.18969,-16.37359z" fill="#8eb480"/><path d="M119.39807,162.72426c0,0 13.43236,-3.14859 17.82277,-0.58192c6.15154,3.59624 9.18969,16.37359 9.18969,16.37359z" data-paper-data="{&quot;index&quot;:null,&quot;origPos&quot;:null}" fill="#9dc78d"/></g><g data-paper-data="{&quot;origPos&quot;:null,&quot;origRot&quot;:0,&quot;index&quot;:null}"><path d="M116.47425,149.69171c0,0 7.16317,-11.00818 14.16642,-12.32304c4.9983,-0.93843 16.58605,6.54929 16.58605,6.54929z" fill="#8eb480"/><path d="M147.30683,143.77015c0,0 -7.16318,11.00818 -14.16643,12.32304c-4.99829,0.93844 -16.58603,-6.54929 -16.58603,-6.54929z" data-paper-data="{&quot;index&quot;:null,&quot;origPos&quot;:null}" fill="#9dc78d"/></g><g data-paper-data="{&quot;origPos&quot;:null,&quot;index&quot;:null,&quot;origRot&quot;:0}"><path d="M140.80186,125.73905c0,0 -3.63314,13.30948 -7.98188,15.94615c-6.09314,3.69431 -18.77414,0.27622 -18.77414,0.27622z" fill="#8eb480"/><path d="M114.20414,142.01804c0,0 3.63314,-13.30948 7.98188,-15.94615c6.09314,-3.69431 18.77414,-0.27622 18.77414,-0.27622z" data-paper-data="{&quot;index&quot;:null,&quot;origPos&quot;:null}" fill="#9dc78d"/></g><g data-paper-data="{&quot;origPos&quot;:null,&quot;index&quot;:null,&quot;origRot&quot;:0}" fill="#9dc78d"><path d="M144.87006,126.05937c0,0 5.48079,12.66107 3.73341,17.43707c-2.44831,6.69179 -14.48434,11.94774 -14.48434,11.94774z"/><path d="M134.27808,155.38943c0,0 -5.48079,-12.66107 -3.73341,-17.43707c2.44831,-6.69179 14.48434,-11.94774 14.48434,-11.94774z" data-paper-data="{&quot;index&quot;:null,&quot;origPos&quot;:null}"/></g><g data-paper-data="{&quot;origPos&quot;:null,&quot;origRot&quot;:0,&quot;index&quot;:null}" fill="#9dc78d"><path d="M137.21815,151.62193c0,0 -13.70816,-1.55828 -16.97793,-5.45343c-4.58138,-5.4576 -3.13967,-18.51182 -3.13967,-18.51182z"/><path d="M117.06876,127.82178c0,0 13.70816,1.55827 16.97793,5.45342c4.58138,5.4576 3.13967,18.51182 3.13967,18.51182z" data-paper-data="{&quot;index&quot;:null,&quot;origPos&quot;:null}"/></g><g data-paper-data="{&quot;origPos&quot;:null,&quot;index&quot;:null,&quot;origRot&quot;:0}" fill="#9dc78d"><path d="M136.19896,141.76827c0,0 5.97376,11.69638 3.62347,18.42323c-1.67744,4.80102 -13.94402,11.1155 -13.94402,11.1155z"/><path d="M125.9666,171.45013c0,0 -5.97376,-11.69638 -3.62347,-18.42323c1.67744,-4.80103 13.94402,-11.11551 13.94402,-11.11551z" data-paper-data="{&quot;index&quot;:null,&quot;origPos&quot;:null}"/></g><g data-paper-data="{&quot;origPos&quot;:null,&quot;origRot&quot;:0,&quot;index&quot;:null}" fill="#9dc78d"><path d="M114.67156,188.53878c0,0 7.16317,-11.00818 14.16642,-12.32304c4.9983,-0.93844 16.58605,6.54928 16.58605,6.54928z"/><path d="M145.50415,182.61722c0,0 -7.16317,11.00818 -14.16642,12.32304c-4.99829,0.93844 -16.58604,-6.54929 -16.58604,-6.54929z" data-paper-data="{&quot;index&quot;:null,&quot;origPos&quot;:null}"/></g><g data-paper-data="{&quot;origPos&quot;:null,&quot;index&quot;:null,&quot;origRot&quot;:0}" fill="#9dc78d"><path d="M148.52723,144.0668c0,0 5.97377,11.69637 3.62347,18.42322c-1.67744,4.80102 -13.94402,11.11551 -13.94402,11.11551z"/><path d="M138.29488,173.74864c0,0 -5.97376,-11.69637 -3.62347,-18.42322c1.67743,-4.80102 13.94402,-11.11551 13.94402,-11.11551z" data-paper-data="{&quot;index&quot;:null,&quot;origPos&quot;:null}"/></g><g data-paper-data="{&quot;origPos&quot;:null,&quot;index&quot;:null,&quot;origRot&quot;:0}" fill="#9dc78d"><path d="M138.99918,164.58612c0,0 -3.63314,13.30948 -7.98188,15.94615c-6.09314,3.69431 -18.77414,0.27622 -18.77414,0.27622z"/><path d="M112.40146,180.86509c0,0 3.63314,-13.30948 7.98188,-15.94614c6.09314,-3.69431 18.77414,-0.27622 18.77414,-0.27622z" data-paper-data="{&quot;index&quot;:null,&quot;origPos&quot;:null}"/></g><g data-paper-data="{&quot;origPos&quot;:null,&quot;index&quot;:null,&quot;origRot&quot;:0}" fill="#9dc78d"><path d="M149.13848,160.3531c0,0 5.4808,12.66107 3.73341,17.43707c-2.44831,6.69179 -14.48434,11.94774 -14.48434,11.94774z"/><path d="M138.54651,189.68317c0,0 -5.48079,-12.66108 -3.73341,-17.43708c2.44831,-6.6918 14.48434,-11.94774 14.48434,-11.94774z" data-paper-data="{&quot;index&quot;:null,&quot;origPos&quot;:null}"/></g><g data-paper-data="{&quot;origPos&quot;:null,&quot;index&quot;:null,&quot;origRot&quot;:0}"><path d="M141.73084,161.8408c0,0 6.38331,12.23092 4.98638,17.12092c-1.95726,6.85153 -13.58107,12.96531 -13.58107,12.96531z" fill="#8eb480"/><path d="M133.29072,191.86093c0,0 -6.38331,-12.23093 -4.98638,-17.12093c1.95727,-6.85154 13.58107,-12.96531 13.58107,-12.96531z" data-paper-data="{&quot;index&quot;:null,&quot;origPos&quot;:null}" fill="#9dc78d"/></g><g data-paper-data="{&quot;origPos&quot;:null,&quot;origRot&quot;:0,&quot;index&quot;:null}"><path d="M111.02052,186.5989c0,0 6.34717,-11.49802 13.23682,-13.31659c4.91721,-1.29794 17.01678,5.33096 17.01678,5.33096z" fill="#8eb480"/><path d="M141.34332,178.46004c0,0 -6.34716,11.49803 -13.23681,13.3166c-4.91721,1.29794 -17.01678,-5.33095 -17.01678,-5.33095z" data-paper-data="{&quot;index&quot;:null,&quot;origPos&quot;:null}" fill="#9dc78d"/></g><g data-paper-data="{&quot;origPos&quot;:null,&quot;index&quot;:null,&quot;origRot&quot;:0}" fill="#9dc78d"><path d="M136.02114,190.90132c0,0 6.38331,12.23093 4.98638,17.12093c-1.95727,6.85153 -13.58107,12.96531 -13.58107,12.96531z"/><path d="M127.58101,220.92147c0,0 -6.3833,-12.23093 -4.98637,-17.12093c1.95727,-6.85153 13.58107,-12.96531 13.58107,-12.96531z" data-paper-data="{&quot;index&quot;:null,&quot;origPos&quot;:null}"/></g><g data-paper-data="{&quot;origPos&quot;:null,&quot;index&quot;:null,&quot;origRot&quot;:0}"><path d="M116.77055,173.14922c0,0 12.33236,4.51707 15.1816,11.04824c2.03354,4.66136 -2.6701,17.63124 -2.6701,17.63124z" fill="#8eb480"/><path d="M129.44403,201.87368c0,0 -12.33236,-4.51707 -15.1816,-11.04824c-2.03355,-4.66136 2.6701,-17.63123 2.6701,-17.63123z" data-paper-data="{&quot;index&quot;:null,&quot;origPos&quot;:null}" fill="#9dc78d"/></g><g data-paper-data="{&quot;origPos&quot;:null,&quot;index&quot;:null,&quot;origRot&quot;:0}" fill="#9dc78d"><path d="M143.28125,180.92394c0,0 6.80512,11.23306 4.94814,18.11245c-1.32533,4.90989 -13.10243,12.09612 -13.10243,12.09612z"/><path d="M135.2253,211.26886c0,0 -6.80512,-11.23305 -4.94814,-18.11244c1.32533,-4.90989 13.10243,-12.09612 13.10243,-12.09612z" data-paper-data="{&quot;index&quot;:null,&quot;origPos&quot;:null}"/></g><g data-paper-data="{&quot;origPos&quot;:null,&quot;origRot&quot;:0,&quot;index&quot;:null}"><path d="M143.38644,196.52752c0,0 -13.78502,-0.56146 -17.32829,-4.20959c-4.96458,-5.11149 -4.47202,-18.23584 -4.47202,-18.23584z" fill="#8eb480"/><path d="M121.56639,174.24907c0,0 13.78502,0.56145 17.32828,4.20958c4.96458,5.11149 4.47202,18.23584 4.47202,18.23584z" data-paper-data="{&quot;index&quot;:null,&quot;origPos&quot;:null}" fill="#9dc78d"/></g><g data-paper-data="{&quot;origPos&quot;:null,&quot;origRot&quot;:0,&quot;index&quot;:null}"><path d="M122.23741,160.90944c0,0 9.84818,-8.68934 16.94785,-8.08181c5.06711,0.43361 14.228,10.74961 14.228,10.74961z" fill="#8eb480"/><path d="M153.53,163.45627c0,0 -9.84818,8.68933 -16.94785,8.0818c-5.0671,-0.4336 -14.22799,-10.74961 -14.22799,-10.74961z" data-paper-data="{&quot;index&quot;:null,&quot;origPos&quot;:null}" fill="#9dc78d"/></g><g data-paper-data="{&quot;origPos&quot;:null,&quot;index&quot;:null,&quot;origRot&quot;:0}"><path d="M152.08839,144.34196c0,0 -7.06287,11.85148 -11.95866,13.22801c-6.85963,1.9287 -18.16312,-4.75876 -18.16312,-4.75876z" fill="#8eb480"/><path d="M122.10398,152.90813c0,0 7.06287,-11.85149 11.95866,-13.22802c6.85962,-1.92869 18.16312,4.75876 18.16312,4.75876z" data-paper-data="{&quot;index&quot;:null,&quot;origPos&quot;:null}" fill="#9dc78d"/></g><g data-paper-data="{&quot;origPos&quot;:null,&quot;index&quot;:null,&quot;origRot&quot;:0}" fill="#9dc78d"><path d="M155.92244,145.73943c0,0 1.8921,13.66608 -1.06983,17.80015c-4.15005,5.79236 -17.15372,7.6351 -17.15372,7.6351z"/><path d="M137.86669,171.16449c0,0 -1.89209,-13.66608 1.06984,-17.80015c4.15004,-5.79236 17.15371,-7.63511 17.15371,-7.63511z" data-paper-data="{&quot;index&quot;:null,&quot;origPos&quot;:null}"/></g><g data-paper-data="{&quot;origPos&quot;:null,&quot;origRot&quot;:0,&quot;index&quot;:null}" fill="#9dc78d"><path d="M141.70786,168.32134c0,0 -12.79096,-5.17041 -14.8989,-9.79861c-2.9535,-6.48469 1.92957,-18.67677 1.92957,-18.67677z"/><path d="M128.66372,139.99653c0,0 12.79096,5.17042 14.8989,9.79861c2.9535,6.48469 -1.92957,18.67676 -1.92957,18.67676z" data-paper-data="{&quot;index&quot;:null,&quot;origPos&quot;:null}"/></g><g data-paper-data="{&quot;origPos&quot;:null,&quot;index&quot;:null,&quot;origRot&quot;:0}" fill="#9dc78d"><path d="M143.36319,158.5544c0,0 2.62527,12.86853 -1.43972,18.7209c-2.90122,4.17689 -16.41035,6.97784 -16.41035,6.97784z"/><path d="M125.55981,184.41465c0,0 -2.62528,-12.86853 1.43971,-18.7209c2.90123,-4.1769 16.41035,-6.97785 16.41035,-6.97785z" data-paper-data="{&quot;index&quot;:null,&quot;origPos&quot;:null}"/></g><g data-paper-data="{&quot;origPos&quot;:null,&quot;origRot&quot;:0,&quot;index&quot;:null}" fill="#9dc78d"><path d="M110.10306,197.85672c0,0 9.84817,-8.68933 16.94784,-8.0818c5.06711,0.4336 14.22801,10.7496 14.22801,10.7496z"/><path d="M141.39567,200.40355c0,0 -9.84817,8.68933 -16.94784,8.0818c-5.06711,-0.43359 -14.228,-10.7496 -14.228,-10.7496z" data-paper-data="{&quot;index&quot;:null,&quot;origPos&quot;:null}"/></g><g data-paper-data="{&quot;origPos&quot;:null,&quot;index&quot;:null,&quot;origRot&quot;:0}" fill="#9dc78d"><path d="M154.62647,164.06873c0,0 2.6253,12.86852 -1.4397,18.72089c-2.90122,4.17689 -16.41035,6.97785 -16.41035,6.97785z"/><path d="M136.82311,189.92896c0,0 -2.62529,-12.86852 1.4397,-18.72089c2.90122,-4.17689 16.41035,-6.97785 16.41035,-6.97785z" data-paper-data="{&quot;index&quot;:null,&quot;origPos&quot;:null}"/></g><g data-paper-data="{&quot;origPos&quot;:null,&quot;index&quot;:null,&quot;origRot&quot;:0}" fill="#9dc78d"><path d="M139.95404,181.28926c0,0 -7.06287,11.85148 -11.95866,13.22801c-6.85961,1.9287 -18.16311,-4.75876 -18.16311,-4.75876z"/><path d="M109.96966,189.85541c0,0 7.06287,-11.85149 11.95865,-13.22801c6.85961,-1.92869 18.16311,4.75876 18.16311,4.75876z" data-paper-data="{&quot;index&quot;:null,&quot;origPos&quot;:null}"/></g><g data-paper-data="{&quot;origPos&quot;:null,&quot;index&quot;:null,&quot;origRot&quot;:0}" fill="#9dc78d"><path d="M150.85641,179.92443c0,0 1.89209,13.66608 -1.06984,17.80015c-4.15005,5.79237 -17.15372,7.63511 -17.15372,7.63511z"/><path d="M132.80066,205.34951c0,0 -1.89209,-13.66609 1.06984,-17.80016c4.15005,-5.79237 17.15371,-7.63511 17.15371,-7.63511z" data-paper-data="{&quot;index&quot;:null,&quot;origPos&quot;:null}"/></g></g><path d="M128.32892,297.3c-3.03757,0 -5.5,-2.46243 -5.5,-5.5c0,-3.03757 2.46243,-5.5 5.5,-5.5c3.03757,0 5.5,2.46243 5.5,5.5c0,3.03757 -2.46243,5.5 -5.5,5.5z" data-paper-data="{&quot;origPos&quot;:null}" fill="#c76e6e" stroke-width="0.5"/><path d="M128.32892,297.30001c-3.03756,0 -5.5,-2.46244 -5.5,-5.5c0,-3.03756 2.46244,-5.5 5.5,-5.5c3.03756,0 3.03756,11 0,11z" data-paper-data="{&quot;origPos&quot;:null}" fill="#c76262" stroke-width="0.5"/><path d="M139.8123,282.50506c0,0 17.70004,-4.14895 23.48537,-0.7668c8.10599,4.73882 12.10941,21.57575 12.10941,21.57575z" fill="#8eb480" stroke-width="0"/><path d="M175.37325,303.09507c0,0 -17.70004,4.14895 -23.48536,0.7668c-8.10599,-4.73882 -12.10941,-21.57575 -12.10941,-21.57575z" data-paper-data="{&quot;index&quot;:null,&quot;origPos&quot;:null}" fill="#9dc78d" stroke-width="0"/><path d="M61.07494,303.314c0,0 4.00341,-16.83693 12.1094,-21.57575c5.78533,-3.38214 23.48537,0.7668 23.48537,0.7668z" fill="#8eb480" stroke-width="0"/><path d="M96.70353,282.28613c0,0 -4.00341,16.83693 -12.1094,21.57575c-5.78532,3.38214 -23.48537,-0.7668 -23.48537,-0.7668z" data-paper-data="{&quot;index&quot;:null,&quot;origPos&quot;:null}" fill="#9dc78d" stroke-width="0"/><g data-paper-data="{&quot;origPos&quot;:null,&quot;index&quot;:null}" stroke-width="0.5"><path d="M108.92868,292.06266c0,-3.03757 2.46243,-5.5 5.5,-5.5c3.03757,0 5.5,2.46243 5.5,5.5c0,3.03757 -2.46243,5.5 -5.5,5.5c-3.03757,0 -5.5,-2.46243 -5.5,-5.5z" data-paper-data="{&quot;origPos&quot;:null}" fill="#c76e6e"/><path d="M114.42868,286.56267c3.03756,0 5.5,2.46244 5.5,5.5c0,3.03756 -2.46244,5.5 -5.5,5.5c-3.03756,0 -3.03756,-11 0,-11z" data-paper-data="{&quot;origPos&quot;:null}" fill="#c76262"/></g><g data-paper-data="{&quot;origPos&quot;:null,&quot;index&quot;:null,&quot;origRot&quot;:0}" stroke-width="0"><path d="M100.60974,276.40143c0,0 12.41819,13.27757 12.36924,19.9788c-0.06858,9.38929 -12.67039,21.25116 -12.67039,21.25116z" fill="#8eb480"/><path d="M100.48152,317.49295c0,0 -12.41819,-13.27757 -12.36924,-19.9788c0.06858,-9.38929 12.67039,-21.25116 12.67039,-21.25116z" data-paper-data="{&quot;index&quot;:null,&quot;origPos&quot;:null}" fill="#9dc78d"/></g><g data-paper-data="{&quot;origPos&quot;:null,&quot;index&quot;:null,&quot;origRot&quot;:0}" stroke-width="0"><path d="M67.87446,311.54158c0,0 -12.60181,-11.86187 -12.67039,-21.25116c-0.04895,-6.70123 12.36924,-19.9788 12.36924,-19.9788z" fill="#8eb480"/><path d="M67.40037,270.17317c0,0 12.60181,11.86187 12.67039,21.25116c0.04895,6.70123 -12.36924,19.9788 -12.36924,19.9788z" data-paper-data="{&quot;index&quot;:null,&quot;origPos&quot;:null}" fill="#9dc78d"/></g><g data-paper-data="{&quot;origPos&quot;:null,&quot;index&quot;:null,&quot;origRot&quot;:0}" stroke-width="0"><path d="M118.60974,274.31162c0,0 12.41819,13.27757 12.36924,19.9788c-0.06858,9.38929 -12.67039,21.25116 -12.67039,21.25116z" fill="#8eb480"/><path d="M118.48152,315.40314c0,0 -12.41819,-13.27757 -12.36924,-19.9788c0.06858,-9.38929 12.67039,-21.25116 12.67039,-21.25116z" data-paper-data="{&quot;index&quot;:null,&quot;origPos&quot;:null}" fill="#9dc78d"/></g><g data-paper-data="{&quot;origPos&quot;:null,&quot;origRot&quot;:0,&quot;index&quot;:null}" stroke-width="0"><path d="M115.53159,294.00421c0,0 9.43903,-14.50567 18.66733,-16.23828c6.58634,-1.23658 21.85571,8.63011 21.85571,8.63011z" fill="#8eb480"/><path d="M156.16019,286.20128c0,0 -9.43904,14.50566 -18.66734,16.23827c-6.58633,1.23659 -21.85569,-8.63011 -21.85569,-8.63011z" data-paper-data="{&quot;index&quot;:null,&quot;origPos&quot;:null}" fill="#9dc78d"/></g><g data-paper-data="{&quot;origPos&quot;:null,&quot;index&quot;:null,&quot;origRot&quot;:0}" stroke-width="0"><path d="M70.72066,313.95548c0,0 -7.87173,-15.41251 -4.77471,-24.27659c2.21038,-6.32639 18.37426,-14.64709 18.37426,-14.64709z" fill="#8eb480"/><path d="M84.20398,274.8432c0,0 7.87173,15.41251 4.77471,24.27659c-2.21038,6.32639 -18.37426,14.64709 -18.37426,14.64709z" data-paper-data="{&quot;index&quot;:null,&quot;origPos&quot;:null}" fill="#9dc78d"/></g><g data-paper-data="{&quot;origPos&quot;:null,&quot;index&quot;:null,&quot;origRot&quot;:0}" stroke-width="0"><path d="M83.27591,291.91682c0,0 4.78745,-17.53813 10.51786,-21.01251c8.02902,-4.86805 24.73899,-0.36398 24.73899,-0.36398z" fill="#8eb480"/><path d="M118.32416,270.46574c0,0 -4.78744,17.53811 -10.51785,21.01249c-8.02902,4.86806 -24.73899,0.36398 -24.73899,0.36398z" data-paper-data="{&quot;index&quot;:null,&quot;origPos&quot;:null}" fill="#9dc78d"/></g><g data-paper-data="{&quot;origPos&quot;:null,&quot;origRot&quot;:0,&quot;index&quot;:null}" stroke-width="0"><path d="M142.86616,296.54769c0,0 -18.06347,-2.05336 -22.3721,-7.18607c-6.03695,-7.19157 -4.13719,-24.39333 -4.13719,-24.39333z" fill="#8eb480"/><path d="M116.31499,265.18584c0,0 18.06347,2.05336 22.3721,7.18606c6.03695,7.19157 4.13719,24.39333 4.13719,24.39333z" data-paper-data="{&quot;index&quot;:null,&quot;origPos&quot;:null}" fill="#9dc78d"/></g><g data-paper-data="{&quot;origPos&quot;:null,&quot;index&quot;:null,&quot;origRot&quot;:0}" stroke-width="0"><path d="M107.4232,270.81555c0,0 15.77684,7.11343 18.89822,15.96895c2.22777,6.32028 -5.1917,22.91717 -5.1917,22.91717z" fill="#8eb480"/><path d="M121.33832,309.77625c0,0 -15.77684,-7.11342 -18.89822,-15.96895c-2.22778,-6.32028 5.19169,-22.91717 5.19169,-22.91717z" data-paper-data="{&quot;index&quot;:null,&quot;origPos&quot;:null}" fill="#9dc78d"/></g><g data-paper-data="{&quot;origPos&quot;:null,&quot;index&quot;:null,&quot;origRot&quot;:0}" stroke-width="0"><path d="M94.76581,317.09707c0,0 -7.22213,-16.68371 -4.91958,-22.97713c3.22617,-8.81789 19.08625,-15.74374 19.08625,-15.74374z" fill="#8eb480"/><path d="M108.72303,278.44833c0,0 7.22212,16.6837 4.91957,22.97712c-3.22617,8.81789 -19.08625,15.74374 -19.08625,15.74374z" data-paper-data="{&quot;index&quot;:null,&quot;origPos&quot;:null}" fill="#9dc78d"/></g><g data-paper-data="{&quot;origPos&quot;:null,&quot;index&quot;:null,&quot;origRot&quot;:0}" stroke-width="0"><path d="M338.31858,266.63139c0,0 -12.60181,-11.86187 -12.67039,-21.25116c-0.04895,-6.70123 12.36924,-19.9788 12.36924,-19.9788z" fill="#8eb480"/><path d="M337.8445,225.26299c0,0 12.60181,11.86187 12.67039,21.25116c0.04895,6.70123 -12.36924,19.9788 -12.36924,19.9788z" data-paper-data="{&quot;index&quot;:null,&quot;origPos&quot;:null}" fill="#9dc78d"/></g><g data-paper-data="{&quot;origPos&quot;:null,&quot;index&quot;:null,&quot;origRot&quot;:0}" stroke-width="0"><path d="M371.05386,219.31162c0,0 12.41819,13.27757 12.36924,19.9788c-0.06858,9.38929 -12.67039,21.25116 -12.67039,21.25116z" fill="#8eb480"/><path d="M370.92565,260.40313c0,0 -12.41819,-13.27757 -12.36924,-19.9788c0.06858,-9.38929 12.67039,-21.25116 12.67039,-21.25116z" data-paper-data="{&quot;index&quot;:null,&quot;origPos&quot;:null}" fill="#9dc78d"/></g><g data-paper-data="{&quot;origPos&quot;:null,&quot;index&quot;:null,&quot;origRot&quot;:0}" stroke-width="0"><path d="M320.31858,264.54158c0,0 -12.60181,-11.86187 -12.67039,-21.25116c-0.04895,-6.70123 12.36924,-19.9788 12.36924,-19.9788z" fill="#8eb480"/><path d="M319.8445,223.17318c0,0 12.60181,11.86187 12.67039,21.25116c0.04895,6.70123 -12.36924,19.9788 -12.36924,19.9788z" data-paper-data="{&quot;index&quot;:null,&quot;origPos&quot;:null}" fill="#9dc78d"/></g><g data-paper-data="{&quot;origPos&quot;:null,&quot;origRot&quot;:0,&quot;index&quot;:null}" stroke-width="0"><path d="M282.57254,235.39604c0,0 15.26937,-9.86669 21.85571,-8.63011c9.2283,1.73261 18.66733,16.23828 18.66733,16.23828z" fill="#8eb480"/><path d="M322.99001,242.80944c0,0 -15.26936,9.8667 -21.85569,8.63011c-9.2283,-1.73261 -18.66734,-16.23827 -18.66734,-16.23827z" data-paper-data="{&quot;index&quot;:null,&quot;origPos&quot;:null}" fill="#9dc78d"/></g><g data-paper-data="{&quot;origPos&quot;:null,&quot;index&quot;:null,&quot;origRot&quot;:0}" stroke-width="0"><path d="M354.30696,224.0318c0,0 16.16388,8.3207 18.37426,14.64709c3.09702,8.86408 -4.77471,24.27659 -4.77471,24.27659z" fill="#8eb480"/><path d="M368.02274,262.76688c0,0 -16.16388,-8.3207 -18.37426,-14.64709c-3.09702,-8.86408 4.77471,-24.27659 4.77471,-24.27659z" data-paper-data="{&quot;index&quot;:null,&quot;origPos&quot;:null}" fill="#9dc78d"/></g><g data-paper-data="{&quot;origPos&quot;:null,&quot;index&quot;:null,&quot;origRot&quot;:0}" stroke-width="0"><path d="M320.09441,219.54033c0,0 16.70997,-4.50407 24.73899,0.36398c5.73041,3.47438 10.51786,21.01251 10.51786,21.01251z" fill="#8eb480"/><path d="M355.55985,240.84221c0,0 -16.70997,4.50408 -24.73899,-0.36398c-5.73041,-3.47438 -10.51785,-21.01249 -10.51785,-21.01249z" data-paper-data="{&quot;index&quot;:null,&quot;origPos&quot;:null}" fill="#9dc78d"/></g><g data-paper-data="{&quot;origPos&quot;:null,&quot;origRot&quot;:0,&quot;index&quot;:null}" stroke-width="0"><path d="M322.2703,213.96829c0,0 1.89976,17.20176 -4.13719,24.39333c-4.30863,5.13271 -22.3721,7.18607 -22.3721,7.18607z" fill="#8eb480"/><path d="M295.80289,245.76523c0,0 -1.89976,-17.20176 4.13719,-24.39333c4.30863,-5.1327 22.3721,-7.18606 22.3721,-7.18606z" data-paper-data="{&quot;index&quot;:null,&quot;origPos&quot;:null}" fill="#9dc78d"/></g><g data-paper-data="{&quot;origPos&quot;:null,&quot;index&quot;:null,&quot;origRot&quot;:0}" stroke-width="0"><path d="M317.49745,258.70167c0,0 -7.41947,-16.59689 -5.1917,-22.91717c3.12138,-8.85552 18.89822,-15.96895 18.89822,-15.96895z" fill="#8eb480"/><path d="M330.99538,219.89013c0,0 7.41947,16.59689 5.19169,22.91717c-3.12138,8.85553 -18.89822,15.96895 -18.89822,15.96895z" data-paper-data="{&quot;index&quot;:null,&quot;origPos&quot;:null}" fill="#9dc78d"/></g><g data-paper-data="{&quot;origPos&quot;:null,&quot;index&quot;:null,&quot;origRot&quot;:0}" stroke-width="0"><path d="M329.69469,227.3762c0,0 15.86008,6.92585 19.08625,15.74374c2.30255,6.29342 -4.91958,22.97713 -4.91958,22.97713z" fill="#8eb480"/><path d="M344.07082,266.16919c0,0 -15.86008,-6.92585 -19.08625,-15.74374c-2.30255,-6.29342 4.91957,-22.97712 4.91957,-22.97712z" data-paper-data="{&quot;index&quot;:null,&quot;origPos&quot;:null}" fill="#9dc78d"/></g><g data-paper-data="{&quot;origPos&quot;:null}" stroke-width="0"><g data-paper-data="{&quot;origPos&quot;:null}"><path d="M393.17484,217.47514l-4.22689,-29.32403l14.66201,-2.11344l4.22689,29.32403z" data-paper-data="{&quot;origPos&quot;:null,&quot;origRot&quot;:0}" fill="#c7c7c7"/><path d="M378.45647,196.4954l-2.66413,-18.48241l37.16538,-5.93375l11.21283,8.39353l-8.5487,10.08888z" data-paper-data="{&quot;origPos&quot;:null,&quot;origRot&quot;:0}" fill="#b6b6b6"/></g><path d="M401.43649,187.44766c0,0 -0.54398,-5.56919 -1.0517,-8.73494c-0.3191,-1.98971 -1.06691,-4.47527 -1.06691,-4.47527l4.11261,-0.62312c0,0 -0.9037,3.9619 -1.32259,6.73701c-0.35929,2.38034 -0.6714,7.09632 -0.6714,7.09632z" data-paper-data="{&quot;origPos&quot;:null}" fill="#838383"/><path d="M409.6452,177.94766c0,0 0.54398,5.5692 1.0517,8.73494c0.3191,1.98972 1.06691,4.47527 1.06691,4.47527l-4.11261,0.62312c0,0 0.90371,-3.9619 1.32259,-6.73702c0.3593,-2.38034 0.67141,-7.09632 0.67141,-7.09632z" data-paper-data="{&quot;origPos&quot;:null,&quot;index&quot;:null}" fill="#838383"/><path d="M384.0452,181.94766c0,0 0.54399,5.5692 1.0517,8.73494c0.31911,1.98972 1.06691,4.47527 1.06691,4.47527l-4.11261,0.62312c0,0 0.90371,-3.9619 1.32259,-6.73702c0.35929,-2.38034 0.6714,-7.09632 0.6714,-7.09632z" data-paper-data="{&quot;origPos&quot;:null,&quot;index&quot;:null}" fill="#838383"/></g></g></g></svg>