<svg version="1.1" xmlns="http://www.w3.org/2000/svg" xmlns:xlink="http://www.w3.org/1999/xlink" width="48.22543" height="65.88515" viewBox="0,0,48.22543,65.88515"><g transform="translate(-215.70706,-136.03529)"><g data-paper-data="{&quot;isPaintingLayer&quot;:true}" fill="none" fill-rule="nonzero" stroke="none" stroke-width="none" stroke-linecap="none" stroke-linejoin="none" stroke-miterlimit="10" stroke-dasharray="" stroke-dashoffset="0" font-family="none" font-weight="none" font-size="none" text-anchor="none" style="mix-blend-mode: normal"><path d="M245.5287,195.77653l3.16998,3.12834c0,0 0.89902,-1.28128 1.63161,-0.67417c0.73505,0.61144 -0.87762,2.39241 -1.94314,3.02066c-1.06556,0.62671 -5.90967,-5.0207 -5.90967,-5.0207" data-paper-data="{&quot;origPos&quot;:null}" id="Back_Leg" fill="#ba651a" stroke="#000000" stroke-width="0.69312" stroke-linecap="round" stroke-linejoin="round"/><path d="M241.76967,192.65031c-0.60437,0.31673 -1.68732,0.94742 -2.47991,1.22406c-0.13863,0.04773 -0.27448,0.08539 -0.40455,0.12486h0.00706c0,0 -0.35527,0.88344 -0.76719,0.69156c-0.2491,-0.11506 -0.35709,-0.35589 -0.40852,-0.53002c-0.50216,-0.02632 -0.87978,-0.2136 -1.08234,-0.61599c-0.47859,-0.93545 0.28521,-1.79139 0.99483,-2.17757c0.7075,-0.38494 5.2034,-2.84587 5.99412,-0.96146c0.78919,1.88411 -1.85351,2.24455 -1.85351,2.24455v0v0v0v0v0v0v0z" data-paper-data="{&quot;origPos&quot;:null}" id="Back_Arm" fill="#ba651a" stroke="#000000" stroke-width="0.69312" stroke-linecap="butt" stroke-linejoin="miter"/><g data-paper-data="{&quot;origPos&quot;:null}" id="Body" stroke-width="0.69312"><path d="M242.9894,187.98276c0,0 2.91722,0.14658 3.37223,2.67422c0.14172,0.90181 0.53983,4.36066 -0.99943,5.41241c-1.51259,1.03368 -2.97408,1.13775 -4.34993,0.36141c-1.39108,-0.78402 -1.67907,-3.01911 -1.49911,-4.23399c0.10036,-0.67718 0.31183,-1.43638 0.51011,-1.9615c0,-0.00092 0.86048,-2.06128 2.96613,-2.25254v0v0v0v0v0v0v0z" id="Body_1_" fill="#ba651a" stroke="#000000" stroke-linecap="butt" stroke-linejoin="miter"/><g id="Belly"><path d="M245.75576,195.69666c-1.0328,-0.96058 -1.65214,-3.40224 0.66035,-3.67457" id="ID0.11242246581241488" fill="none" stroke="#000000" stroke-linecap="round" stroke-linejoin="round"/><path d="M246.41612,192.15216v0v0v0v0v0v0v0c0.05846,2.73571 -0.70839,3.37894 -0.70839,3.37894c0,0 -0.99453,-0.98199 -0.79656,-2.12494c0.20808,-1.19801 1.50494,-1.254 1.50494,-1.254z" id="ID0.19927949411794543" fill="#e6e7e8" stroke="none" stroke-linecap="butt" stroke-linejoin="miter"/></g></g><path d="M242.87956,196.80073l-5.20552,3.02061c0,0 0.99267,1.21272 0.20746,1.75254c-0.7849,0.54411 -2.06556,-1.49148 -2.38229,-2.68464c-0.31457,-1.1959 5.17007,-3.75624 5.17007,-3.75624" data-paper-data="{&quot;origPos&quot;:null}" id="Front_Leg" fill="#ba651a" stroke="#000000" stroke-width="0.69312" stroke-linecap="butt" stroke-linejoin="miter"/><path d="M246.07616,190.38126c0.66252,0.17351 1.88592,0.43302 2.6589,0.75827c0.13651,0.05753 0.21055,0.0955 0.38344,0.17996l-0.00212,-0.0049c0,0 0.85497,-0.41585 1.02786,0.00366c0.11015,0.25214 0.02755,0.50433 -0.04927,0.66618c0.35254,0.35868 0.50494,0.75033 0.38866,1.18547c-0.27603,1.01351 -1.4147,1.13594 -2.20022,0.94375c-0.7834,-0.19002 -5.76799,-1.38684 -5.08835,-3.31316c0.6815,-1.92755 2.8811,-0.41925 2.8811,-0.41925v0v0v0v0v0v0v0z" data-paper-data="{&quot;origPos&quot;:null}" id="Front_Arm" fill="#ba651a" stroke="#000000" stroke-width="0.69312" stroke-linecap="round" stroke-linejoin="round"/><g data-paper-data="{&quot;origPos&quot;:null}" id="Head_2_"><g id="R_Ear" stroke="#000000" stroke-width="0.69312"><path d="M258.60146,161.43027c0.38741,-0.48044 1.47987,-1.86362 2.12464,-2.92146c1.0842,-1.78009 2.50958,-4.04609 2.50958,-4.04609c0,0 0.65086,3.27523 0.1781,6.05841c-0.41589,2.45051 -1.96768,4.73241 -2.32843,5.24194l-1.79872,-2.2498l-0.68517,-2.083v0v0v0v0v0z" id="Outer_Ear_1_" fill="#ba651a" stroke-linecap="butt" stroke-linejoin="miter"/><path d="M261.2879,161.81552c0.81704,0.10958 1.56525,-0.26039 1.92512,-0.62485v0c-0.50954,2.28221 -1.75254,4.15377 -2.09739,4.63298l-0.00888,0.03487c-0.21055,-0.48071 -0.306,-0.78336 -0.53306,-1.21819v0c0.51196,-0.72556 0.66741,-1.94411 0.71421,-2.82482v0v0v0v0v0v0v0zM261.2879,161.81552c0.04345,-0.56243 -0.10834,-1.37368 -0.10834,-1.37368" id="Inner_Ear_2_" fill="#939598" stroke-linecap="round" stroke-linejoin="round"/></g><g id="Head_1_" stroke="#000000" stroke-width="0.69312"><path d="M230.54309,181.60797c0,0 4.82883,7.36472 14.38768,7.65695c9.5585,0.29165 12.29881,-3.88203 12.82733,-5.7551c0.61753,-2.18583 -0.59978,-4.11678 -0.76292,-4.36371l-0.03426,-0.01346c-1.09889,0.71607 -2.38472,0.30141 -2.38472,0.30141c0,0 0.6827,0.00335 1.03585,-0.36291c0.34239,-0.35068 0.71236,-2.45117 0.18755,-5.31602c-0.69859,-3.8147 -2.1396,-4.63391 -2.1396,-4.63391l-0.13528,-0.11753c-2.56375,0.7932 -5.73585,1.77122 -7.55386,2.3208c-3.41108,1.03095 -5.07607,2.14146 -5.07607,2.14146c0,0 0.23868,-1.58605 1.34825,-2.53775c0.57868,-0.49788 1.33055,-0.97096 1.9181,-1.31245l-0.1068,-0.02203c0,0 -5.51307,0.69859 -8.43947,4.5026c-2.06221,2.68066 -1.26808,6.53515 -1.26808,6.53515c0,0 -1.46151,-1.7865 -1.92358,-3.66569l-0.00768,-0.00641c0,0 -1.55116,1.35197 -1.92817,4.21254c-0.01378,0.10314 -0.02446,0.21695 -0.03183,0.33876l0.08755,0.09731v0v0v0v0v0v0v0zM257.02826,186.39671c0.0208,-0.12729 0.03978,-0.25337 0.0566,-0.37854c-0.01651,0.12517 -0.0355,0.25125 -0.0566,0.37854v0v0v0v0v0zM257.12923,185.61697c-0.0098,0.1166 -0.02234,0.23501 -0.03824,0.3559c0.01558,-0.12145 0.02844,-0.23991 0.03824,-0.3559v0v0v0v0v0zM257.13903,185.48907c0.0061,-0.07863 0.00949,-0.15514 0.01161,-0.22887c-0.00212,0.07404 -0.00609,0.14993 -0.01161,0.22887v0v0v0v0v0zM257.15342,185.14664c0.00058,-0.10464 -0.00185,-0.20441 -0.01011,-0.2962l0.00155,-0.00154c0.00733,0.0921 0.00887,0.1928 0.00856,0.29774v0v0v0v0v0zM232.41585,176.96117c0,0 -1.55086,1.35135 -1.92786,4.21223c-0.21329,1.62128 0.35285,5.51952 0.35285,5.51952c0,0 -4.03413,-4.72203 -3.90132,-9.77699c0.13435,-5.0547 1.84706,-8.7204 1.84706,-8.7204M225.96181,184.45384l-1.303,3.10476c0,0 -5.95006,-5.71991 -4.6694,-16.15699M229.08005,184.43671l0.32468,2.47042c0,0 -3.00349,-1.57563 -4.47572,-3.83157c-2.77395,-4.24649 -2.28649,-8.52265 -2.28649,-8.52265M258.74313,171.69998c0.57806,3.74035 -0.19373,5.29947 -0.94804,6.54799c-1.12671,1.86238 -3.21921,1.18641 -3.21921,1.18641c0,0 0.68239,0.00366 1.03643,-0.36141c0.34304,-0.35161 0.71179,-2.45051 0.1876,-5.31722c-0.69983,-3.81474 -2.22989,-4.68653 -2.22989,-4.68653v0c-1.97925,0.61201 -4.41814,1.29073 -7.60004,2.25527c-3.41112,1.03033 -5.07612,2.14084 -5.07612,2.14084c0,0 0.23749,-1.58605 1.3483,-2.53775c0.55448,-0.47611 1.26869,-0.93148 1.84309,-1.2687l-0.03183,-0.06671c0,0 -5.51307,0.69863 -8.43947,4.50322c-2.06216,2.6819 -1.26808,6.53457 -1.26808,6.53457c0,0 -1.45845,-1.78283 -1.92357,-3.65991l-0.00764,-0.01161c0,0 -1.55117,1.3532 -1.92821,4.21347c-0.11258,0.85806 -0.00702,2.35381 0.11722,3.57236c0.00031,0.00031 0,0 0.00031,0.00062c0,0.00031 0,0.00057 0,0.00088l-0.00031,-0.00057c0.11047,1.08327 0.23593,1.94711 0.23593,1.94711c0,0 -0.83019,-0.97311 -1.72679,-2.50742l-0.03519,0.24878l0.32464,2.47073c0,0 -1.86115,-0.97801 -3.3728,-2.494l-0.06857,0.0419l-1.303,3.10482c0,0 -7.03179,-6.7604 -4.16234,-18.98856c1.49607,-6.37201 12.03046,-14.04433 13.65633,-18.92119c1.6249,-4.87717 -1.56035,-8.64967 -1.56035,-8.64967c0,0 0.32437,0.0661 1.17015,0.65117c0.84428,0.58539 2.01479,2.21033 2.01479,2.21033c0,0 -0.00918,-2.09404 0.19493,-3.7064c0.27665,-2.16932 0.78031,-3.77095 0.78031,-3.77095c0,0 4.81325,9.2332 9.94932,14.89042c5.137,5.65752 11.88909,6.39713 15.34701,17.10291c3.75687,11.63051 -2.61364,17.69227 -2.61364,17.69227c0,0 0.11598,-0.78675 0.20261,-1.97254l-0.0747,0.05536c0,0 -0.85343,1.77823 -1.46791,2.5864c-0.74053,0.97678 -1.5539,1.86635 -1.5539,1.86635c0,0 0.30539,-1.09306 0.4853,-2.19134l-0.02049,0.01103c-1.36543,1.98662 -4.67951,4.43409 -12.07699,4.20826c-9.26111,-0.28274 -14.03577,-5.55713 -14.32402,-5.8849c-0.10923,-1.07161 -0.20349,-2.35505 -0.149,-3.23298l0.08689,0.09519c0,0 4.82852,7.36441 14.38799,7.65726c7.63801,0.23259 10.92088,-2.38473 12.20123,-4.40256l-0.00155,0.00124c0.0049,-0.00675 0.00764,-0.01378 0.01192,-0.02023c0,-0.00119 0,-0.00242 0,-0.00366l0.00582,-0.00609c0.31059,-0.49576 0.50124,-0.95598 0.60742,-1.32411c0.60225,-2.13382 -0.54164,-4.02618 -0.74817,-4.3423l-0.03338,-0.04314c-1.10195,0.7298 -2.39912,0.31091 -2.39912,0.31091c0,0 0.68301,0.00367 1.03647,-0.36357M244.08556,169.65949c0.46848,-0.37638 1.01382,-0.55448 1.01382,-0.55448M232.41523,176.95967c0,0 -0.1279,-1.49121 -0.01894,-1.88689M259.56322,184.15026c0,0 -0.85347,1.77823 -1.4679,2.5864c-0.74057,0.97678 -1.55395,1.86635 -1.55395,1.86635c0,0 0.74058,-2.64542 0.5955,-3.83827M258.87898,175.23344c0,0 1.57289,4.89281 0.68393,8.91682" id="Head" fill="#ba651a" stroke-linecap="round" stroke-linejoin="round"/><path d="M230.54309,181.60797v0v0v0v0v0v0v0l-0.08755,-0.09731c0.00737,-0.12181 0.01806,-0.23563 0.03183,-0.33876c0.377,-2.86058 1.92817,-4.21254 1.92817,-4.21254l0.00768,0.00641c0.46207,1.87921 1.92358,3.66569 1.92358,3.66569c0,0 -0.79413,-3.85449 1.26808,-6.53514c2.9264,-3.80401 8.43947,-4.5026 8.43947,-4.5026l0.1068,0.02203c-0.58755,0.3415 -1.33943,0.81457 -1.9181,1.31246c-1.10958,0.9517 -1.34825,2.53775 -1.34825,2.53775c0,0 1.66499,-1.11051 5.07607,-2.14146c1.81802,-0.54958 4.99011,-1.52759 7.55386,-2.3208l0.13528,0.11753c0,0 1.44102,0.81922 2.1396,4.63392c0.52481,2.86486 0.15484,4.96534 -0.18755,5.31602c-0.35315,0.36627 -1.03585,0.36291 -1.03585,0.36291c0,0 1.28583,0.41466 2.38472,-0.30141l0.03426,0.01346c0.16314,0.24693 1.38045,2.17788 0.76292,4.36371c-0.52852,1.87307 -3.26883,6.04675 -12.82733,5.7551c-9.55885,-0.29223 -14.38768,-7.65695 -14.38768,-7.65695z" id="Face" fill="#e6e7e8" stroke-linecap="butt" stroke-linejoin="miter"/></g><g id="L_Ear" stroke="#000000"><path d="M227.07934,178.8398v0v0v0v0v0v0v0l-0.18847,-0.04808c0,0 -4.32852,-2.40371 -7.32803,-8.35342c-1.94468,-3.85664 -3.40772,-10.56963 -3.40772,-10.56963c0,0 4.26791,0.73139 6.44579,2.64454c1.77638,1.56402 4.65443,5.18813 5.64896,6.46508l0.15546,0.1683c-0.51227,1.40366 -1.37214,4.25082 -1.46517,7.76932c-0.01594,0.65025 0.03549,1.29377 0.1392,1.92388z" id="Outer_Ear" fill="#ba651a" stroke-width="0.69312" stroke-linecap="butt" stroke-linejoin="miter"/><path d="M223.76283,176.28492v0v0v0v0v0v0v0l0.05536,0.05108c-1.35285,-1.34186 -2.93523,-3.27523 -4.25629,-5.8977c-1.18088,-2.33978 -2.18155,-5.72883 -2.78742,-8.03307l0.04128,-0.01836c3.36856,0.45103 4.88914,2.82781 4.88914,2.82781l0.08569,0.18177c0.55722,1.30115 1.17016,2.61823 1.70354,3.50812c0.31549,0.52296 0.66772,1.00464 1.00587,1.41714l-0.04101,-0.07285c0,0 0.45258,2.26936 0.33541,3.49554c-0.18883,1.9793 -1.03157,2.54053 -1.03157,2.54053zM224.50031,170.3217c0.04101,0.0728 1.5068,1.22464 1.5068,1.22464" id="Inner_Ear_1_" fill="#939598" stroke-width="0.69312" stroke-linecap="round" stroke-linejoin="round"/><path d="M226.04591,171.57788c0,0 -1.54339,-1.21491 -1.5844,-1.28771" data-paper-data="{&quot;noHover&quot;:false,&quot;origItem&quot;:[&quot;Path&quot;,{&quot;applyMatrix&quot;:true,&quot;segments&quot;:[[[224.50031,170.3217],[0,0],[0.04101,0.0728]],[226.00711,171.54634]],&quot;strokeColor&quot;:[0,0,0],&quot;strokeWidth&quot;:0.69312,&quot;strokeCap&quot;:null,&quot;strokeJoin&quot;:null}]}" fill="#ba651a" stroke-width="0.34656" stroke-linecap="none" stroke-linejoin="none"/></g><path d="M252.2487,183.0006v0v0v0v0v0v0v0c-0.24791,1.55943 -1.80763,2.74247 -5.29889,2.92976c-3.49064,0.1891 -4.8619,-2.55519 -4.8619,-2.55519c0,0 2.80398,-0.31337 5.48526,-0.37456c2.68005,-0.06181 4.67554,0 4.67554,0z" id="Mouth" fill="#939598" stroke="#000000" stroke-width="0.69312" stroke-linecap="butt" stroke-linejoin="miter"/><path d="M242.00225,176.9881v0v0v0v0v0v0v0c0.25916,0.07316 0.41002,0.34212 0.33691,0.60133c-0.07285,0.25951 -0.34062,0.41007 -0.60195,0.33938c-0.01435,-0.00459 -1.52883,-0.41621 -3.00896,0.01496c-0.0456,0.01316 -0.0909,0.01991 -0.1362,0.01991c-0.21143,0 -0.40667,-0.13956 -0.46878,-0.35162c-0.03643,-0.12424 -0.01837,-0.25214 0.03761,-0.35986c-0.09117,-0.07956 -0.17779,-0.183 -0.23774,-0.3256c-0.07038,-0.16552 0.00702,-0.35678 0.17289,-0.42689c0.16464,-0.06852 0.35682,0.00552 0.4272,0.17201c0.05568,0.13312 0.21788,0.17104 0.22,0.17166c0.04773,0.01073 0.08967,0.03245 0.12578,0.06119c0.04835,-0.0098 0.09669,-0.02079 0.14411,-0.02874c-0.04985,-0.07528 -0.09669,-0.16004 -0.12455,-0.26411c-0.04618,-0.17501 0.05752,-0.35192 0.23135,-0.39872c0.17536,-0.04742 0.35223,0.05908 0.39814,0.23197c0.03673,0.13859 0.18817,0.20102 0.1894,0.20164c0.07038,0.02419 0.12243,0.07346 0.16066,0.13099c1.1656,-0.05387 2.08208,0.19555 2.13413,0.21051z" id="L_Eye" fill="#231f20" stroke="none" stroke-width="0.69312" stroke-linecap="butt" stroke-linejoin="miter"/><path d="M254.9483,176.53062v0v0v0v0v0v0v0c-0.05691,0.2898 -0.23104,0.46362 -0.37302,0.56706c0.03611,0.0921 0.05506,0.19245 0.02936,0.29528c-0.06455,0.26164 -0.32344,0.42261 -0.5909,0.35744c-1.01382,-0.25002 -2.32596,-0.34058 -2.59007,-0.07192c-0.09576,0.09731 -0.22,0.14503 -0.34671,0.14503c-0.12485,0 -0.24817,-0.04649 -0.34362,-0.14106c-0.19188,-0.18878 -0.19497,-0.49757 -0.00552,-0.69033c0.51042,-0.51748 1.58667,-0.50432 2.44746,-0.39139c0.04194,-0.03581 0.10865,-0.10958 0.11536,-0.21117c0.00887,-0.17961 0.14901,-0.32865 0.34119,-0.30874c0.17872,0.00919 0.31643,0.16154 0.30786,0.3415c-0.00675,0.11289 -0.03488,0.20839 -0.06945,0.29621c0.04221,0.00825 0.08292,0.01682 0.12115,0.02569c0.03368,-0.05263 0.0759,-0.09823 0.13709,-0.12486c0.00949,-0.00517 0.15395,-0.07647 0.1815,-0.21572c0.03581,-0.17594 0.20441,-0.29377 0.38309,-0.25554c0.17568,0.03549 0.28949,0.20596 0.25523,0.38252z" id="R_Eye" fill="#231f20" stroke="none" stroke-width="0.69312" stroke-linecap="butt" stroke-linejoin="miter"/></g></g></g></svg>