<svg version="1.1" xmlns="http://www.w3.org/2000/svg" xmlns:xlink="http://www.w3.org/1999/xlink" width="69.9925" height="198.15855"><g transform="translate(-88.69443,-34.13332)"><g data-paper-data="{&quot;isPaintingLayer&quot;:true}" fill="none" fill-rule="nonzero" stroke="none" stroke-width="none" stroke-linecap="none" stroke-linejoin="miter" stroke-miterlimit="10" stroke-dasharray="" stroke-dashoffset="0" font-family="none" font-weight="none" font-size="none" text-anchor="none" style="mix-blend-mode: normal"><path d="M98.05372,39.9145c-0.04167,0.32292 -0.0625,0.64063 -0.0625,0.95313c0,0.66667 -0.03646,1.26563 -0.10937,1.79688c-0.0625,0.52083 -0.10417,0.875 -0.125,1.0625c-0.02083,0.1875 -0.04687,0.35938 -0.07812,0.51563v0.14063c0,0.40625 -0.07292,0.77604 -0.21875,1.10938l-0.07812,1.09375l-0.10937,2.51563v1.3125c0,0.86458 -0.13021,1.27083 -0.39062,1.21875l0.3125,0.54688v0.34375l-0.03125,0.3125c0,0.41667 -0.18229,0.45833 -0.54687,0.125c0.38542,0.30208 0.42708,0.625 0.125,0.96875c-0.29167,0.34375 -0.65104,0.56771 -1.07812,0.67188l-0.54687,0.09375c-0.09375,0 -0.21875,0.00521 -0.375,0.01563c-0.14583,0 -0.28646,-0.02083 -0.42187,-0.0625c-0.13542,-0.05208 -0.27083,-0.11458 -0.40625,-0.1875c-0.3125,-0.19792 -0.51562,-0.48958 -0.60937,-0.875c-0.05208,-0.10417 -0.16667,-0.70312 -0.34375,-1.79687c0,-0.21875 -0.02083,-0.5 -0.0625,-0.84375l0.07813,-0.67187v-0.46875c0,-0.41667 0.10417,-0.63542 0.3125,-0.65625c-0.26042,-0.08333 -0.30208,-0.29687 -0.125,-0.64062c-0.11458,-0.125 -0.09375,-0.50521 0.0625,-1.14062c-0.09375,-0.32292 -0.0625,-0.56771 0.09375,-0.73437c-0.01042,0.01042 -0.01562,-0.15104 -0.01562,-0.48437l0.03125,-0.26562c0,-0.54167 0.16667,-0.98958 0.5,-1.34375c-0.29167,0.02083 -0.41667,-0.11979 -0.375,-0.42187c0.05208,-0.30208 0.08854,-0.59896 0.10938,-0.89062v-0.1875c0.02083,-0.27083 0.03125,-0.55729 0.03125,-0.85937l0.01563,-0.23437c0,-0.125 0.02083,-0.34896 0.0625,-0.67187c0.05208,-0.33333 0.26042,-0.64062 0.625,-0.92187l0.04688,0.29688c-1.86458,0.65625 -3.03125,0.98438 -3.5,0.98438l-0.45312,0.03125c-0.34375,0 -0.69792,-0.0625 -1.0625,-0.1875c-0.30208,-0.16667 -0.51562,-0.5 -0.64062,-1c0,-0.77083 0.16667,-1.33333 0.5,-1.6875c0.34375,-0.35417 0.92708,-0.66146 1.75,-0.92187c0.17708,-0.02083 1.27083,-0.39583 3.28125,-1.125l1.14063,-0.26562c0.26042,-0.08333 0.61979,-0.125 1.07813,-0.125c0.46875,0 0.84896,-0.05208 1.14063,-0.15625c0.29167,-0.11458 0.63021,-0.20312 1.01563,-0.26562c0.39583,-0.0625 0.78125,-0.13021 1.15625,-0.20312c0.26042,-0.09375 0.68229,-0.08333 1.26563,0.03125c0.30208,0 0.75,0.28646 1.34375,0.85938l0.23438,0.57813c-0.1875,0.10417 -0.17187,0.13021 0.04688,0.07813c0.125,0.86458 -0.06771,1.42708 -0.57812,1.6875c-0.13542,0.07292 -0.38021,0.16146 -0.73437,0.26563c-0.36458,0 -1.25521,0.17708 -2.67187,0.53125c-0.08333,0 -0.32812,-0.00521 -0.73437,-0.01562h0.125zM100.71557,46.49262c0,-0.16667 -0.02083,-0.35417 -0.0625,-0.5625v-0.28125c0.01042,-0.08333 0.00521,-0.18229 -0.01562,-0.29687c0,-0.26042 0.01563,-0.45833 0.04688,-0.59375c0,-0.4375 0.11458,-0.69271 0.34375,-0.76562c-0.13542,-0.125 -0.04167,-0.40625 0.28125,-0.84375c0.11458,-0.10417 0.30208,-0.26042 0.5625,-0.46875c0.38542,-0.125 0.61458,-0.125 0.6875,0c0.05208,-0.27083 0.38021,-0.31771 0.98438,-0.14062c0.17708,0.01042 0.46354,0.07813 0.85938,0.20313c0.23958,0.0625 0.5625,0.35417 0.96875,0.875c-0.09375,0.22917 -0.18229,0.55208 -0.26562,0.96875c-0.07292,0.40625 -0.25,0.67188 -0.53125,0.79688c-0.20833,-0.21875 -0.14583,-0.42187 0.1875,-0.60937c0.34375,-0.19792 0.44271,-0.40625 0.29688,-0.625c0.625,-0.27083 1.1875,-0.46354 1.6875,-0.57812c0.8125,-0.0625 1.33854,0 1.57813,0.1875c0.21875,0.07292 0.39063,0.19271 0.51563,0.35938c0.22917,0.1875 0.42188,0.54167 0.57813,1.0625c0.15625,0.51042 0.06771,0.89063 -0.26562,1.14063c-0.17708,0.14583 -0.63021,0.25521 -1.35937,0.32813c-0.02083,-0.25 -0.05208,-0.21354 -0.09375,0.10938l-1.40625,1.10938c-0.26042,0.13542 -0.40625,0.21354 -0.4375,0.23438l-0.45312,0.82813c-0.11458,-0.07292 -0.15104,0.09375 -0.10937,0.5c0.05208,0.39583 0.08854,0.6875 0.10938,0.875c0.02083,0.17708 0.02083,0.78125 0,1.8125v1.14063c0,0.65625 -0.01042,1.05729 -0.03125,1.20313c-0.02083,0.13542 -0.10937,0.35938 -0.26562,0.67188c-0.17708,0.27083 -0.44792,0.40625 -0.8125,0.40625c-0.98958,0.75 -1.64583,0.66667 -1.96875,-0.25l-0.15625,-0.09375c-0.27083,-0.13542 -0.4375,-0.30208 -0.5,-0.5c-0.17708,-0.23958 -0.22917,-0.42187 -0.15625,-0.54687l-0.1875,-0.23437l0.20313,-0.35937c-0.30208,0.125 -0.47396,-0.20312 -0.51562,-0.98437c-0.04167,-0.79167 -0.0625,-1.25521 -0.0625,-1.39062c0,-0.14583 -0.03125,-0.38542 -0.09375,-0.71875c0.14583,-0.14583 0.21354,-0.32292 0.20313,-0.53125c0,-0.20833 -0.02604,-0.42708 -0.07812,-0.65625c-0.05208,-0.23958 -0.03646,-0.38021 0.04688,-0.42187c0.09375,-0.04167 0.08333,-0.17187 -0.03125,-0.39062c-0.08333,-0.11458 -0.09896,-0.31771 -0.04687,-0.60937zM114.73179,46.6645c-0.01042,-0.26042 -0.05208,-0.4375 -0.125,-0.53125c-0.07292,-0.10417 -0.17708,-0.16146 -0.3125,-0.17187c0.07292,-0.05208 0.01563,0.14063 -0.17187,0.57813c-0.17708,0.42708 -0.28646,0.91146 -0.32812,1.45313c-0.17708,0.83333 -0.26562,1.65625 -0.26562,2.46875c0.02083,0.76042 0.14583,1.3125 0.375,1.65625c-0.28125,0.19792 -0.46875,0.13021 -0.5625,-0.20312c0.11458,0.20833 0.15625,0.125 0.125,-0.25c0.89583,-1.625 1.31771,-3.29167 1.26563,-5zM116.65367,51.852l-0.70312,0.98438c0.19792,0.11458 0.01563,0.57292 -0.54687,1.375c-0.23958,0.5 -0.64583,0.77083 -1.21875,0.8125c-0.57292,0.04167 -1.09896,-0.01042 -1.57812,-0.15625c-0.625,-0.20833 -1.10937,-0.47396 -1.45312,-0.79687c-0.34375,-0.32292 -0.67187,-0.83333 -0.98437,-1.53125c-0.30208,-0.69792 -0.45833,-1.27604 -0.46875,-1.73437c-0.09375,-0.58333 -0.14062,-0.97396 -0.14062,-1.17187v-0.625c0,-0.72917 0.03646,-1.17187 0.10938,-1.32812c0.01042,-0.03125 0.04688,-0.18229 0.10938,-0.45312c0.09375,-0.79167 0.32813,-1.55208 0.70313,-2.28125c0.75,-1.48958 1.57813,-2.25521 2.48438,-2.29687h0.25c0,0.1875 0.02083,0.19271 0.0625,0.01563h0.35938c0.70833,0.0625 1.14583,0.13021 1.3125,0.20313c0.1875,0.04167 0.38021,0.0625 0.57813,0.0625l0.65625,0.14063c0.23958,-0.03125 0.58333,0.02604 1.03125,0.17188c0.45833,0.14583 0.71875,0.29167 0.78125,0.4375c0.07292,0.13542 0.14583,0.38542 0.21875,0.75c0.08333,0.36458 0.14063,0.63021 0.17188,0.79688c0.03125,0.15625 0.05729,0.31771 0.07813,0.48438c0.13542,1.27083 0.35417,2.44271 0.65625,3.51563c0.03125,0.07292 0.05208,0.16667 0.0625,0.28125c0.02083,0.11458 0.08333,0.32292 0.1875,0.625c0.11458,0.29167 0.19271,0.54167 0.23438,0.75c0.05208,0.20833 0.15104,0.47917 0.29688,0.8125c0.09375,0.25 0.22917,0.53125 0.40625,0.84375c0.66667,0.92708 0.36979,1.625 -0.89062,2.09375c-0.16667,0.05208 -0.41146,0.07813 -0.73437,0.07813c-0.15625,0 -0.375,-0.08854 -0.65625,-0.26562c-0.23958,0 -0.45833,-0.11458 -0.65625,-0.34375l-0.1875,-0.0625c-0.03125,-0.21875 -0.11979,-0.26042 -0.26562,-0.125c-0.19792,-0.1875 -0.43229,-0.97917 -0.70312,-2.375c0.29167,0.03125 0.4375,0.13542 0.4375,0.3125zM127.3456,46.33637l-0.0625,-0.60937c0,-0.17708 -0.01562,-0.28646 -0.04687,-0.32812c-0.10417,-0.0625 -0.0625,-0.28125 0.125,-0.65625l-0.54687,0.51563c0.33333,-0.36458 0.46354,-0.52604 0.39063,-0.48437c-0.0625,0.04167 -0.04167,0.16146 0.0625,0.35938c-0.04167,0.02083 -0.24479,0.20313 -0.60937,0.54688l-0.3125,0.75c-0.19792,0.26042 -0.45312,0.79688 -0.76562,1.60938c-0.30208,-0.1875 -0.27604,-0.21875 0.07813,-0.09375c0.04167,0.23958 0.09375,0.82292 0.15625,1.75c0.14583,1.3125 0.125,2 -0.0625,2.0625l-0.125,-0.09375c-0.01042,-0.14583 0.07292,-0.24479 0.25,-0.29687c0.1875,-0.20833 0.32813,-0.36458 0.42188,-0.46875l0.53125,-0.64062c-0.07292,-0.08333 -0.04687,-0.26562 0.07813,-0.54687c0.13542,-0.28125 0.21875,-0.48437 0.25,-0.60937c0,-0.02083 0.01563,-0.17187 0.04688,-0.45312c0.05208,-0.33333 0.07813,-0.84896 0.07813,-1.54687c0.36458,0.3125 0.46354,0.4375 0.29688,0.375c-0.15625,-0.0625 -0.23437,-0.16146 -0.23437,-0.29687zM121.26747,44.25825c-0.11458,-0.5625 -0.17187,-0.97396 -0.17187,-1.23437v-0.20312c0,-0.42708 0.24479,-0.80208 0.73438,-1.125l0.5625,0.26563c-0.1875,-0.32292 0.06771,-0.52083 0.76563,-0.59375c0.29167,0 0.48438,0.00521 0.57813,0.01563c0.10417,0.01042 0.27604,0.07292 0.51563,0.1875c0.23958,0.11458 0.4375,0.25 0.59375,0.40625c0.20833,0.42708 0.3125,0.8125 0.3125,1.15625l-0.4375,0.46875l-0.29687,-0.29687l0.17188,-0.20312c0.05208,-0.125 0.21875,-0.27083 0.5,-0.4375c0.28125,-0.16667 0.64583,-0.29167 1.09375,-0.375c0.60417,-0.09375 1.26042,-0.05208 1.96875,0.125c0.41667,0.05208 0.5625,0.27604 0.4375,0.67188c-0.35417,-0.47917 0.0625,-0.55208 1.25,-0.21875c-0.48958,0.25 -0.66667,0.3125 -0.53125,0.1875c0.13542,-0.125 0.33333,-0.14062 0.59375,-0.04687l0.35938,0.40625l-0.07812,0.3125c0.19792,-0.05208 0.36458,0.11979 0.5,0.51563l0.29688,1.07813c0,0.08333 0.04688,0.24479 0.14063,0.48438v0.71875c0.02083,0.1875 0.03125,0.40625 0.03125,0.65625c0,0.23958 -0.02083,0.52083 -0.0625,0.84375v0.29688l-0.01562,0.1875v0.21875c-0.26042,-0.04167 -0.25521,-0.04687 0.01563,-0.01562c-0.09375,0.71875 -0.23437,1.25521 -0.42187,1.60938l-0.54687,1.35938c-0.08333,0.07292 -0.15625,0.19271 -0.21875,0.35938c-0.05208,0.15625 -0.32292,0.45833 -0.8125,0.90625c-0.97917,0.91667 -2.05208,1.28125 -3.21875,1.09375c0.07292,0.05208 0.07813,0.05208 0.01563,0c-0.0625,-0.0625 0.05208,-0.15625 0.34375,-0.28125l0.125,2.125c-0.29167,0.41667 -0.29687,0.54167 -0.01562,0.375c0.0625,0.25 0.10938,0.61458 0.14063,1.09375c0.03125,0.48958 0.07813,0.79167 0.14063,0.90625l0.07813,0.875v0.3125c-0.05208,0.38542 -0.16146,0.70313 -0.32812,0.95313c-0.16667,0.26042 -0.41667,0.42708 -0.75,0.5c-0.32292,0.08333 -0.70833,0.09375 -1.15625,0.03125c-0.44792,-0.05208 -0.75,-0.20312 -0.90625,-0.45312c-0.28125,-0.375 -0.47396,-0.75 -0.57813,-1.125c-0.16667,-0.70833 -0.25,-1.36458 -0.25,-1.96875c-0.0625,-0.3125 -0.09375,-0.61979 -0.09375,-0.92187c-0.02083,-0.23958 -0.07292,-0.45312 -0.15625,-0.64062c-0.07292,-0.1875 -0.10937,-0.34896 -0.10937,-0.48437c-0.125,-0.76042 -0.1875,-1.19271 -0.1875,-1.29687c0,-0.125 -0.03646,-0.28125 -0.10937,-0.46875c-0.10417,-0.875 -0.15625,-1.40625 -0.15625,-1.59375l-0.23437,-2.875l0.10938,-0.40625c-0.11458,-0.04167 -0.20312,-0.53646 -0.26562,-1.48437c-0.125,-0.23958 -0.21354,-1.22396 -0.26562,-2.95312zM132.82796,45.227l-0.01562,-0.15625c0,-0.20833 0.07813,-0.44271 0.23438,-0.70312c0.10417,-0.16667 0.25521,-0.35937 0.45313,-0.57812c0.19792,-0.22917 0.33333,-0.36979 0.40625,-0.42187c0.30208,-0.21875 0.54688,-0.34375 0.73438,-0.375c0.11458,-0.08333 0.42708,-0.18229 0.9375,-0.29687h0.35938c0.15625,0 0.26563,0.01042 0.32813,0.03125c0.07292,0.02083 0.23958,0.05729 0.5,0.10938c0.52083,-0.04167 1.09375,0.03125 1.71875,0.21875c0.17708,0.13542 0.29688,0.22917 0.35938,0.28125c0.07292,0.05208 0.17708,0.13021 0.3125,0.23438c0.13542,0.09375 0.29688,0.21354 0.48438,0.35938c0.19792,0.13542 0.45833,0.34896 0.78125,0.64063c0.83333,0.75 1.08854,1.55208 0.76563,2.40625l-0.29687,0.625c-0.45833,0.44792 -0.92708,0.60417 -1.40625,0.46875l-0.3125,-0.03125c-0.36458,-0.20833 -0.61979,-0.48958 -0.76562,-0.84375c-0.10417,-0.09375 -0.1875,-0.17187 -0.25,-0.23437c-0.42708,-0.42708 -0.84375,-0.69271 -1.25,-0.79687c-0.10417,0.01042 -0.22917,0.08854 -0.375,0.23438c-0.13542,0.14583 -0.09896,0.38542 0.10938,0.71875c-0.11458,0.15625 -0.14583,0.22396 -0.09375,0.20313c0.0625,-0.02083 0.16146,0.08854 0.29688,0.32813c0.21875,0.28125 0.41146,0.54167 0.57813,0.78125c0.05208,0.16667 0.16146,0.29688 0.32813,0.39063l-0.07812,0.57813c0.11458,-0.19792 0.41667,-0.14062 0.90625,0.17188c0.17708,0.14583 0.32292,0.31771 0.4375,0.51563c0,0 0.32813,0.36458 0.98438,1.09375c0.15625,0.15625 0.28646,0.34896 0.39063,0.57813c0.26042,0.26042 0.39583,0.53125 0.40625,0.8125c0.02083,0.28125 -0.01042,0.53646 -0.09375,0.76563c0,0.32292 -0.11979,0.56771 -0.35937,0.73438c-0.22917,0.16667 -0.38542,0.29167 -0.46875,0.375c-0.08333,0.08333 -0.39583,0.22396 -0.9375,0.42188c0.05208,0.19792 -0.40104,0.49479 -1.35937,0.89063l-0.90625,0.23438c-0.04167,-0.13542 -0.13021,-0.15625 -0.26562,-0.0625c-0.13542,0.09375 -0.38021,0.14063 -0.73437,0.14063h-0.09375c-0.08333,0.04167 -0.33333,0.0625 -0.75,0.0625c-0.66667,-0.02083 -1.23437,-0.17187 -1.70312,-0.45312c-0.20833,-0.07292 -0.34896,-0.19792 -0.42187,-0.375c0,-0.64583 0.16667,-0.4375 0.5,0.625c-0.79167,-1.02083 -1.20312,-1.68229 -1.23437,-1.98437c-0.03125,-0.30208 -0.0625,-0.51042 -0.09375,-0.625c-0.02083,-0.125 0.04167,-0.3125 0.1875,-0.5625c0.32292,-0.59375 0.88021,-0.68229 1.67188,-0.26562l0.42188,0.21875c0.11458,0.11458 0.20833,0.17708 0.28125,0.1875c0.11458,-0.01042 0.25521,-0.00521 0.42188,0.01563c0.17708,0.01042 0.30208,0.01042 0.375,0l0.59375,0.32813l-1.3125,0.54688c0.72917,-0.72917 1.16146,-1.09896 1.29688,-1.10937c0.13542,-0.02083 0.27604,-0.05729 0.42188,-0.10937c0.17708,-0.04167 0.26563,-0.04167 0.26563,0l-0.17187,-0.28125c-0.15625,-0.33333 -0.3125,-0.5625 -0.46875,-0.6875l-0.23437,-0.15625c-0.76042,-0.71875 -1.33854,-1.3125 -1.73437,-1.78125c-0.03125,-0.02083 -0.14062,-0.11979 -0.32812,-0.29687c-0.23958,-0.25 -0.41146,-0.58333 -0.51562,-1c-0.16667,-0.36458 -0.26562,-0.64583 -0.29687,-0.84375v-0.54687c0,-0.02083 -0.01042,-0.13021 -0.03125,-0.32812c-0.01042,-0.19792 -0.00521,-0.34896 0.01563,-0.45312c0.02083,-0.10417 0.01563,-0.19271 -0.01562,-0.26562c-0.03125,-0.08333 0.00521,-0.31771 0.10938,-0.70312zM144.09421,52.0395c0.03125,-0.38542 0.16146,-0.64062 0.39063,-0.76562c0.22917,-0.125 0.40104,-0.16146 0.51563,-0.10937c0.11458,0.05208 0.52083,0.10417 1.21875,0.15625c0.16667,0.27083 0.30208,0.40104 0.40625,0.39063c0.375,0.39583 0.57292,0.58854 0.59375,0.57813c0.5,0.07292 0.73958,0.34375 0.71875,0.8125c-0.02083,0.45833 -0.13542,0.81771 -0.34375,1.07813c-0.26042,0.59375 -0.66146,1.08333 -1.20312,1.46875c-0.29167,0.10417 -0.51562,0.15625 -0.67187,0.15625c-0.15625,0 -0.53125,-0.04167 -1.125,-0.125c-0.58333,-0.08333 -0.95833,-0.36979 -1.125,-0.85937v-0.70312c0,-0.52083 0.03646,-0.80729 0.10938,-0.85937c0.08333,-0.0625 0.125,-0.125 0.125,-0.1875l0.10938,-0.84375c0.17708,-0.125 0.27083,-0.1875 0.28125,-0.1875zM148.50046,39.352c-0.11458,-0.1875 -0.16667,-0.3125 -0.15625,-0.375c0.02083,-0.0625 0.0625,-0.14583 0.125,-0.25c0.09375,-0.19792 0.14063,-0.30729 0.14063,-0.32812v-0.375c0.20833,-0.07292 0.32813,-0.10417 0.35938,-0.09375c0.04167,0 0.03125,0.13021 -0.03125,0.39063c-0.17708,0.04167 -0.47396,0.15625 -0.89062,0.34375c-0.40625,0.1875 -0.68229,0.34896 -0.82812,0.48438c-0.14583,0.125 -0.35417,0.40625 -0.625,0.84375c-0.27083,0.42708 -0.42187,0.72917 -0.45312,0.90625c-0.02083,0.16667 -0.0625,0.29688 -0.125,0.39063c-0.0625,0.08333 -0.11979,0.26042 -0.17187,0.53125c-0.05208,0.27083 -0.15104,0.42708 -0.29687,0.46875c-0.13542,0.04167 -0.1875,-0.07812 -0.15625,-0.35937c1.72917,0.27083 1.73958,0.68229 0.03125,1.23438c-0.10417,0.08333 -0.29687,0.125 -0.57812,0.125c-0.27083,0 -0.38542,-0.13021 -0.34375,-0.39062c-0.46875,0.21875 -0.67708,0.1875 -0.625,-0.09375c-0.20833,0.19792 -0.47917,0.19271 -0.8125,-0.01562c-0.32292,-0.21875 -0.54167,-0.48437 -0.65625,-0.79687c-0.3125,-0.90625 -0.22917,-1.72917 0.25,-2.46875c0.25,-0.75 0.52083,-1.22917 0.8125,-1.4375c0.29167,-0.60417 0.48958,-0.96354 0.59375,-1.07812c0.11458,-0.11458 0.25521,-0.07292 0.42188,0.125c-0.19792,-0.15625 -0.29687,-0.29167 -0.29687,-0.40625c0,-0.11458 0.11458,-0.23958 0.34375,-0.375c0.23958,-0.14583 0.39063,-0.24479 0.45313,-0.29687c0.26042,0.0625 0.28646,-0.08854 0.07813,-0.45312c0.40625,0 0.64063,-0.01562 0.70313,-0.04687c0.16667,0 0.28646,-0.09896 0.35938,-0.29687c0.26042,0 0.5625,-0.05208 0.90625,-0.15625c0.34375,-0.10417 0.86458,-0.125 1.5625,-0.0625c0.15625,0.05208 0.36979,0.15104 0.64063,0.29688c0.27083,0.14583 0.41667,0.22917 0.4375,0.25c0.03125,0.02083 0.04688,0.03125 0.04688,0.03125c0.23958,0.09375 0.40625,0.19792 0.5,0.3125c0.08333,0.02083 0.23958,0.09896 0.46875,0.23438c0.14583,0.13542 0.33333,0.23958 0.5625,0.3125l0.4375,0.25c0.125,0.02083 0.23958,0.03646 0.34375,0.04688c0.30208,0 0.56771,0.26563 0.79688,0.79688c0.03125,1.09375 -0.39583,2.45833 -1.28125,4.09375c-0.05208,0.125 -0.14062,0.30729 -0.26562,0.54688c-0.11458,0.22917 -0.18229,0.40104 -0.20312,0.51563c-0.19792,0.42708 -0.69271,1.46354 -1.48437,3.10938c-0.78125,1.63542 -1.28646,2.66667 -1.51562,3.09375c-0.21875,-0.32292 -0.30729,-0.375 -0.26562,-0.15625c0.05208,0.20833 -0.01042,0.23958 -0.1875,0.09375l0.23438,0.26563c0,0.28125 -0.18229,0.46875 -0.54687,0.5625c-0.35417,0.09375 -0.60937,0.125 -0.76562,0.09375h-0.85937c-0.5625,-0.125 -0.92708,-0.26562 -1.09375,-0.42187c-0.16667,-0.15625 -0.25,-0.5 -0.25,-1.03125c0,-1.28125 0.26042,-2.33333 0.78125,-3.15625c0.16667,-0.4375 0.32292,-0.77604 0.46875,-1.01562c0.14583,-0.25 0.23958,-0.45833 0.28125,-0.625c0.04167,-0.17708 0.19792,-0.39583 0.46875,-0.65625c0.09375,-0.26042 0.23958,-0.51562 0.4375,-0.76562c0.10417,0.01042 0.20313,-0.09896 0.29688,-0.32812c0.09375,-0.22917 0.14063,-0.41667 0.14063,-0.5625c0,-0.15625 0.19792,-0.22396 0.59375,-0.20312c-0.22917,-0.11458 -0.29167,-0.25 -0.1875,-0.40625c0,-0.28125 0.05208,-0.47917 0.15625,-0.59375c0.11458,-0.11458 0.17188,-0.17708 0.17188,-0.1875c0,-0.47917 0.18229,-0.64062 0.54688,-0.48437zM153.07752,52.7895c0.07292,-0.25 0.26042,-0.52083 0.5625,-0.8125c0.3125,-0.29167 0.60417,-0.4375 0.875,-0.4375c0.28125,0 0.51042,-0.03125 0.6875,-0.09375c0.17708,-0.07292 0.36458,-0.10937 0.5625,-0.10937c0.20833,0 0.48438,0.04167 0.82813,0.125c0.34375,0.08333 0.57292,0.13542 0.6875,0.15625c0.11458,0.02083 0.23958,0.04688 0.375,0.07813c0.14583,0.02083 0.30208,0.13542 0.46875,0.34375c0.16667,0.20833 0.25,0.47917 0.25,0.8125c-0.3125,1.38542 -0.85937,2.29688 -1.64062,2.73438l-0.9375,0.14063c-0.40625,0 -0.76042,-0.13021 -1.0625,-0.39062c-0.77083,-0.07292 -1.15625,-0.38021 -1.15625,-0.92187c0.25,0 0.21354,-0.08854 -0.10937,-0.26562c-0.32292,-0.1875 -0.48437,-0.39583 -0.48437,-0.625c0,-0.23958 0.03125,-0.48437 0.09375,-0.73437zM158.68689,35.38325l-0.23437,2.01563c-0.07292,0.90625 -0.24479,2.60417 -0.51562,5.09375c-0.26042,2.47917 -0.39062,4.14583 -0.39062,5c0,0.85417 0.07292,1.46354 0.21875,1.82813c-0.39583,0.66667 -0.84896,1 -1.35937,1c-0.21875,0 -0.375,-0.0625 -0.46875,-0.1875c-0.09375,-0.125 -0.14062,-0.09896 -0.14062,0.07813h-0.1875l-0.375,-0.10937c-0.53125,-0.82292 -0.82292,-1.5 -0.875,-2.03125c-0.30208,-0.72917 -0.46875,-1.18229 -0.5,-1.35937c-0.02083,-0.1875 -0.05729,-0.32292 -0.10937,-0.40625c-0.0625,-0.85417 -0.09375,-1.31771 -0.09375,-1.39062v-1.14062c0.0625,-0.44792 0.09375,-0.90104 0.09375,-1.35937v-0.39062c0,-0.40625 0.07292,-0.94792 0.21875,-1.625c0.14583,-0.6875 0.21875,-1.26562 0.21875,-1.73437c0,-0.47917 0.14583,-1.03125 0.4375,-1.65625c0.29167,-0.63542 0.47917,-1.07292 0.5625,-1.3125c0.09375,-0.25 0.16146,-0.43229 0.20313,-0.54687c0.04167,-0.11458 0.09896,-0.24479 0.17188,-0.39062c0.21875,-0.30208 0.45833,-0.45312 0.71875,-0.45312c0.26042,-0.11458 0.47917,-0.17187 0.65625,-0.17187c1.16667,0 1.75,0.41667 1.75,1.25z" data-paper-data="{&quot;origPos&quot;:null}" fill="#c0c0c0" stroke-width="1" stroke-linecap="square"/><g data-paper-data="{&quot;origPos&quot;:null}" fill="#b5b5b5" stroke-width="0" stroke-linecap="butt"><path d="M119.47605,228.01725c0,0 4.77733,-7.68571 4.6348,-16.44525c-0.29758,-18.28923 -5.7625,-52.86389 -5.7625,-52.86389c0,0 8.83308,27.17782 11.83664,40.10085c3.69067,15.87944 4.72502,30.64499 4.72502,30.64499z" data-paper-data="{&quot;origPos&quot;:null}"/><path d="M114.43897,232.09171c0,0 4.18071,2.86275 2.3847,-13.06455c-1.46164,-12.96196 -6.7337,-26.44229 -6.7337,-26.44229c0,0 5.72089,3.54975 11.31028,16.3902c6.61962,15.20724 8.8336,21.18904 8.8336,21.18904z" data-paper-data="{&quot;origPos&quot;:null,&quot;origRot&quot;:0}"/></g></g></g></svg>