<svg version="1.1" xmlns="http://www.w3.org/2000/svg" xmlns:xlink="http://www.w3.org/1999/xlink" width="41.15366" height="53.36359" viewBox="0,0,41.15366,53.36359"><g transform="translate(-219.42316,-147.31821)"><g data-paper-data="{&quot;isPaintingLayer&quot;:true}" fill="none" fill-rule="nonzero" stroke="none" stroke-width="0.77378" stroke-linecap="none" stroke-linejoin="none" stroke-miterlimit="10" stroke-dasharray="" stroke-dashoffset="0" font-family="none" font-weight="none" font-size="none" text-anchor="none" style="mix-blend-mode: normal"><path d="M232.35698,180.05558c1.38419,2.85935 0.98076,5.50813 0.57733,9.8542c-0.48639,5.20535 -4.02493,8.32216 -6.19637,6.84894c-2.16886,-1.47321 0.25553,-5.34357 1.03219,-6.36483c0.59856,-0.7872 2.37878,-7.52527 3.16503,-10.57618c0,0 0.07619,-0.44297 0.5465,-0.4227c0.47089,0.02057 0.87532,0.66121 0.87532,0.66058z" data-paper-data="{&quot;origPos&quot;:null,&quot;index&quot;:null}" id="R_Arm" fill="#ba651a" stroke="#000000" stroke-linecap="butt" stroke-linejoin="miter"/><path d="M234.88938,197.54917c0.02509,1.14345 -0.25396,2.79509 -1.37326,2.74461c-0.73611,-0.03311 -0.60854,-1.62592 -0.66026,-3.25314c-0.03344,-1.0547 -0.25781,-1.93642 -0.41277,-2.42826c0,0 -0.03598,-0.08582 -0.03598,-0.11669c-0.00033,-0.72423 0.40085,-0.96821 0.91034,-1.0444c0.63907,-0.0958 0.71655,0.4571 0.71975,0.47123c0.13116,0.56192 0.35491,1.26816 0.35491,1.26816c0.30153,0.98911 0.48216,1.69087 0.49728,2.35851z" data-paper-data="{&quot;origPos&quot;:null,&quot;index&quot;:null}" id="R_Leg_1_" fill="#ba651a" stroke="#000000" stroke-linecap="butt" stroke-linejoin="miter"/><path d="M237.89501,197.54917c0.02472,1.14345 -0.25396,2.79509 -1.37326,2.74461c-0.73648,-0.03311 -0.60852,-1.62592 -0.66062,-3.25314c-0.03311,-1.0547 -0.2575,-1.93642 -0.41241,-2.42826c0,0 -0.03601,-0.08582 -0.03601,-0.11669c-0.00033,-0.72423 0.40085,-0.96821 0.91038,-1.0444c0.63873,-0.0958 0.71621,0.4571 0.71941,0.47123c0.13149,0.56192 0.35487,1.26816 0.35487,1.26816c0.30185,0.98911 0.48219,1.69087 0.49765,2.35851z" data-paper-data="{&quot;origPos&quot;:null,&quot;index&quot;:null}" id="L_Leg" fill="#ba651a" stroke="#000000" stroke-linecap="butt" stroke-linejoin="miter"/><g data-paper-data="{&quot;origPos&quot;:null,&quot;index&quot;:null}" id="Body_1_" stroke="#000000" stroke-linecap="butt" stroke-linejoin="miter"><path d="M233.10145,194.49633c-0.44876,-0.04724 -0.91935,-0.1408 -1.40957,-0.29189c-3.49293,-1.07398 -2.14987,-5.57497 -1.6796,-7.32208c0.18936,-0.70561 0.3684,-1.741 0.51497,-2.72434l0.02634,-0.06206l0.28129,-2.37392c0.15815,-0.20061 0.07328,-0.66674 0.61497,-0.94927c0.64064,-0.33401 2.0033,-0.52814 2.68765,-0.5288c2.5167,-0.00258 3.64822,0.8975 3.64822,0.8975c0.4208,0.92289 -0.00257,1.3546 0.70076,2.89919c1.28132,2.8147 1.04506,3.24351 1.34754,3.30811c0.04437,0.00934 0.03535,0.61688 0.10286,0.62942c0.00129,0.2144 -0.01188,0.83706 -0.18354,1.65837c0,0 -0.46965,1.94868 -1.27713,2.8886c-0.14112,0.16493 -0.33591,0.35748 -0.57703,0.55581c0,0 -0.68438,0.55095 -1.32021,0.85604c-0.63616,0.30472 -1.72913,0.45773 -2.23799,0.53392c-0.50916,0.07618 -1.23954,0.02475 -1.23954,0.02538z" id="Body" fill="#ba651a"/><path d="M230.00936,186.90998c0.25267,-0.93414 0.48415,-2.44433 0.64679,-3.64884l0.07295,-0.05979c0.3655,-0.32242 0.67183,-0.93864 1.52917,-0.78534c1.87731,0.33788 2.72176,2.14381 2.72176,4.78681c0,2.64399 -1.45714,5.0025 -2.95898,5.0025c-0.75189,0 -2.13383,-0.21923 -2.62629,-1.08587l-0.02089,-0.0582c-0.10257,-1.5462 0.38769,-3.23192 0.63549,-4.15127z" id="Belly" fill="#d0d2d3"/></g><path d="M237.74231,180.96307c2.66647,1.72779 3.69321,4.20108 5.60201,8.12765c2.2836,4.70193 0.8737,9.20201 -1.74649,9.06795c-2.61985,-0.13502 -2.55364,-4.70256 -2.41862,-5.97844c0.10319,-0.98234 -1.86667,-7.66797 -2.77639,-10.68453c0,0 -0.16589,-0.41821 0.24751,-0.64546c0.4134,-0.22633 1.09134,0.11283 1.09197,0.11283z" data-paper-data="{&quot;origPos&quot;:null,&quot;index&quot;:null}" id="L_Arm" fill="#ba651a" stroke="#000000" stroke-linecap="butt" stroke-linejoin="miter"/><g data-paper-data="{&quot;origPos&quot;:null,&quot;index&quot;:null}" id="Head_1_"><path d="M220.47662,169.85324c-0.00419,0.01384 -0.01803,0.06207 -0.0373,0.14499l-0.01126,0.05272c0,0 -0.43653,-7.41664 4.65375,-10.99893c0.18287,-0.12924 0.36803,-0.25041 0.55319,-0.36678l0.02123,-0.01351c-0.75252,-0.28864 -2.41123,-0.94249 -3.85328,-2.54237c-1.66452,-1.84774 -3.40066,-4.86043 -0.20252,-7.52399c3.03163,-2.5241 6.76373,2.2264 7.59697,4.20786c1.06334,2.53145 0.2353,4.2692 0.21922,4.30265c0.72809,-0.171 1.45652,-0.27614 2.17368,-0.32657l0.04371,-0.00678c-0.44776,-2.84423 -0.92547,-9.53373 4.62607,-9.0522c5.83732,0.50629 3.78707,7.06721 2.42893,10.258l0.0363,0.06365c0.27871,0.12825 0.53911,0.26389 0.77794,0.40148l0.18516,0.07328c0.87661,-2.23828 2.64008,-5.22493 6.12467,-7.16393c6.19222,-3.44827 10.57556,-0.9152 12.05525,1.10099c1.42951,1.95026 1.48061,7.37418 -3.68744,10.44889c-2.46876,1.46839 -4.48624,2.38746 -6.01957,2.96284l-0.05496,0.0196c0,0 0.66926,0.5719 1.07074,1.81367l0.04246,-0.04853c0.54775,-0.37386 2.52792,-1.47421 6.17066,-0.85796c4.35122,0.73805 5.01792,3.2396 4.74759,5.42196c-0.26617,2.1515 -2.34471,5.0057 -7.49349,4.90413c-4.07442,-0.07906 -4.98318,-1.97502 -4.98318,-1.97502c-1.68861,2.34501 -4.23166,3.74593 -6.23721,4.65146l-0.03087,0.01865c0.03216,-0.01927 0.06207,-0.03984 0.09389,-0.05945c-2.1586,1.32985 -5.16128,2.20003 -8.53465,1.90976c-6.88944,-0.59437 -9.58549,-3.24318 -11.13299,-5.31591c-2.28456,-3.0625 -1.38062,-6.36932 -1.34269,-6.50467zM225.51959,158.7569c0.29255,-0.1874 0.5934,-0.36292 0.90103,-0.52527M231.87059,158.02626c-0.08197,-0.35296 -0.15688,-0.70786 -0.22243,-1.06468M238.71309,157.93012c-0.25491,0.60271 -0.5291,1.19869 -0.83515,1.77731M249.23368,167.89462c0.19546,0.68792 0.26202,1.40795 0.22953,2.12125M253.44765,166.62002M254.09731,177.03456" id="Head" fill="#ba651a" stroke="#000000" stroke-linecap="round" stroke-linejoin="round"/><path d="M254.07098,177.07568l0.02634,-0.04146c1.40188,-3.10816 1.23794,-7.0537 -0.49666,-10.40838l0.04117,-0.00258c0.53263,0.01637 1.11544,0.07166 1.7484,0.17905c4.35122,0.73805 5.01792,3.2396 4.74759,5.42196c-0.24017,1.94095 -1.9548,4.45279 -6.06685,4.8514z" id="Hair1" fill="#f1f1f2" stroke="#000000" stroke-linecap="butt" stroke-linejoin="miter"/><path d="M254.98455,162.38677l-0.01446,-0.01541c-0.00387,-1.3871 -0.24819,-2.80664 -0.76058,-4.19598c-1.33695,-3.61831 -4.18505,-6.21083 -7.47708,-7.24144l-0.05754,-0.01894c5.73575,-2.7626 9.78449,-0.37256 11.19373,1.54845c1.35079,1.84354 1.47069,6.78979 -2.88407,9.92333z" id="Hair2" fill="#f1f1f2" stroke="#000000" stroke-linecap="butt" stroke-linejoin="miter"/><path d="M240.11817,152.82638c-2.68159,-1.31701 -5.79357,-1.55423 -8.64233,-0.44909l-0.026,0.02639c0.26484,-2.56137 1.40088,-4.96907 4.80961,-4.67398c3.37848,0.29251 4.11493,2.61408 3.87256,5.13652z" id="Hair3" fill="#f1f1f2" stroke="#000000" stroke-linecap="butt" stroke-linejoin="miter"/><path d="M224.8288,148.17235l0.00482,0.01155c-2.1814,1.2807 -3.75109,3.27309 -4.58524,5.57568l-0.03473,-0.00258c-0.68567,-1.59506 -0.66124,-3.44442 1.3871,-5.15165c1.04182,-0.86826 2.16757,-0.87565 3.22805,-0.43301z" id="Hair4" fill="#f1f1f2" stroke="#000000" stroke-linecap="butt" stroke-linejoin="miter"/><path d="M224.94129,165.34384c1.94868,-1.42178 4.99768,-5.43546 4.99768,-5.43546c0,0 0.08005,4.23352 5.8627,7.79754c5.78331,3.56588 8.80402,3.02166 9.13803,7.18935c0.25139,3.13096 -5.09925,7.37159 -11.98774,6.77885c-6.8894,-0.59469 -9.58517,-3.24317 -11.13295,-5.31594c-2.3325,-3.12711 -1.34081,-6.51107 -1.34081,-6.51107c0.67056,-2.33761 1.65971,-2.4617 4.4631,-4.50327z" id="Face_1_" fill="#e6e7e8" stroke="#000000" stroke-linecap="butt" stroke-linejoin="miter"/><g id="L_Eye" stroke="none" stroke-linecap="butt" stroke-linejoin="miter"><path d="M234.91672,171.11074c0.02987,0 0.05945,0.00358 0.0887,0.00968c0.10835,0.02315 0.199,0.08679 0.25849,0.17806c0.05849,0.09065 0.07743,0.19899 0.05367,0.30634c-0.04566,0.21411 -0.26265,0.36005 -0.48349,0.31182c-0.21985,-0.04724 -0.35939,-0.26421 -0.31307,-0.48377c0.04079,-0.18678 0.2073,-0.32213 0.3957,-0.32213z" id="Inner_Eye_1_" fill="#ffffff"/><path d="M235.14238,170.4952c0.27386,0.05945 0.5082,0.2218 0.66025,0.45739c0.15142,0.23435 0.20123,0.51469 0.14079,0.78825c-0.10158,0.47767 -0.53201,0.8258 -1.02255,0.8258c-0.07424,0 -0.14847,-0.00803 -0.2218,-0.02381c-0.56478,-0.12247 -0.9248,-0.68052 -0.80428,-1.24435c0.12022,-0.55419 0.69727,-0.92384 1.24759,-0.80328zM235.26391,171.29882c-0.0595,-0.09161 -0.15014,-0.15496 -0.25849,-0.1781c-0.02954,-0.00611 -0.05912,-0.00964 -0.0887,-0.00964c-0.18869,0 -0.3549,0.13535 -0.3957,0.32209c-0.04632,0.21955 0.09322,0.43653 0.3134,0.48381c0.22052,0.0479 0.43784,-0.09771 0.48316,-0.31182c0.02377,-0.10735 0.00482,-0.21569 -0.05367,-0.30634z" id="Outer_Eye_1_" fill="#231f20"/></g><g id="R_Eye" stroke="none" stroke-linecap="butt" stroke-linejoin="miter"><path d="M224.57743,170.82016c0.0405,-0.18674 0.20701,-0.32209 0.3957,-0.32209c0.02958,0 0.05916,0.00324 0.08874,0.00964c0.10801,0.02314 0.19866,0.08682 0.25844,0.17809c0.05849,0.09065 0.07714,0.19899 0.05367,0.30634c-0.04594,0.21441 -0.26292,0.36006 -0.48344,0.31216c-0.21989,-0.04761 -0.35911,-0.26488 -0.31312,-0.48415z" id="Inner_Eye" fill="#ffffff"/><path d="M223.95123,170.68517c0.1199,-0.55419 0.6969,-0.92389 1.24722,-0.80333c0.27423,0.05916 0.50858,0.2218 0.66063,0.45744c0.15139,0.23434 0.2009,0.51464 0.14079,0.7882c-0.1019,0.47801 -0.53201,0.82581 -1.02255,0.82581c-0.07428,0 -0.14852,-0.00801 -0.2218,-0.02347c-0.56483,-0.12214 -0.92517,-0.68019 -0.80428,-1.24464zM225.32064,170.68547c-0.05982,-0.09128 -0.15047,-0.15492 -0.25848,-0.17806c-0.02987,-0.00644 -0.05945,-0.00968 -0.0887,-0.00968c-0.18903,0 -0.35521,0.13534 -0.39571,0.32212c-0.04632,0.21923 0.09323,0.43654 0.31341,0.48378c0.21989,0.04857 0.43716,-0.09737 0.48315,-0.31182c0.02348,-0.10735 0.00482,-0.21569 -0.05367,-0.30634z" id="Outer_Eye" fill="#231f20"/></g><path d="M234.13783,173.98137c0,0 -2.01648,1.42984 -5.31462,0.94702c-3.29751,-0.48029 -3.8446,-1.66162 -3.8446,-1.66162" id="Mouth" fill="none" stroke="#231f20" stroke-linecap="round" stroke-linejoin="miter"/></g></g></g></svg>