<svg version="1.1" xmlns="http://www.w3.org/2000/svg" xmlns:xlink="http://www.w3.org/1999/xlink" width="327.49307" height="63.30033" viewBox="0,0,327.49307,63.30033"><g transform="translate(-69.87224,-116.49263)"><g data-paper-data="{&quot;isPaintingLayer&quot;:true}" fill="#b37f7f" fill-rule="nonzero" stroke="none" stroke-width="1" stroke-linecap="none" stroke-linejoin="miter" stroke-miterlimit="10" stroke-dasharray="" stroke-dashoffset="0" font-family="none" font-weight="none" font-size="none" text-anchor="none" style="mix-blend-mode: normal"><path d="M76.64133,132.98077c0.21463,-0.16864 0.61322,-0.28362 1.19579,-0.34494c0.5979,-0.07666 1.28778,-0.31428 2.06964,-0.71288c0.12265,0.50591 -0.09198,0.47525 -0.64389,-0.09198c-0.07666,-1.07314 -0.14564,-1.83968 -0.20696,-2.2996c-0.04599,-0.61322 -0.09965,-1.05782 -0.16097,-1.33377c0,-0.50591 0.05366,-0.73587 0.16097,-0.68988l-0.87385,3.54139c-0.33727,1.48707 -0.71288,2.29193 -1.1268,2.41458zM71.0993,134.70547l0.22996,-1.7477c0,-0.38326 0.05366,-0.7512 0.16097,-1.10381c0,-0.49058 0.39093,-1.14213 1.1728,-1.95466c-0.33727,-0.09198 -0.25296,-0.42926 0.25296,-1.01182c-0.27595,-0.09198 -0.14564,-0.93517 0.39092,-2.52956l0.41393,-1.01182c0,-0.10731 0.06899,-0.32194 0.20696,-0.64389c0.1533,-0.33727 0.26062,-0.65156 0.32194,-0.94284c0.06132,-0.29128 0.16097,-0.61322 0.29895,-0.96583c0.36794,-0.7512 0.69755,-1.37976 0.98883,-1.88567c0.72054,-1.3491 2.00065,-1.95466 3.84033,-1.81668l1.33377,0.11498c0.88918,0.24529 1.55606,0.49058 2.00065,0.73587c0.72054,0.27595 1.23412,0.62089 1.54073,1.03482c0.32194,0.41393 0.45992,1.01182 0.41393,1.79369c0.03066,0.29128 0.10731,1.64804 0.22996,4.07029c0.13798,2.42225 0.08432,3.64104 -0.16097,3.65637l0.5519,1.67871c0,0.13798 0.28362,1.96999 0.85085,5.49605l0.85085,2.69053c0.50591,1.41042 0.7742,2.1463 0.80486,2.20762c0.04599,0.06132 0.16864,0.36794 0.36794,0.91984c0.44459,1.37976 0.00767,2.2996 -1.31077,2.75952c-0.96583,0.1533 -1.61739,0.03066 -1.95466,-0.36794c-0.12265,0.13798 -0.55957,0.01533 -1.31077,-0.36794c0.04599,-0.21463 -0.06899,-0.35261 -0.34494,-0.41393c-0.26062,-0.04599 -0.36794,-0.16097 -0.32194,-0.34494c-0.49058,0.03066 -0.7742,-0.44459 -0.85085,-1.42575c-0.22996,0.10731 -0.48292,-0.06899 -0.75887,-0.52891c-0.29128,-0.58257 -0.36027,-0.96583 -0.20696,-1.1498c-0.21463,-0.13798 -0.32194,-0.5979 -0.32194,-1.37976c-0.22996,-0.3986 -0.34494,-1.01182 -0.34494,-1.83968c0,-0.84318 0.023,-1.22646 0.06899,-1.1498c-0.98116,0.45992 -2.28427,0.71288 -3.90932,0.75887c-0.1993,-0.42926 -0.08432,-0.64389 0.34494,-0.64389c0,0.29128 -0.08432,0.75887 -0.25296,1.40276l-0.64389,4.16228c0.32194,2.39158 -0.16097,3.67936 -1.44875,3.86333c-0.1993,0 -0.5979,0.06132 -1.19579,0.18397c-0.5979,0.13798 -1.1268,-0.01533 -1.58672,-0.45992c-0.64389,-0.35261 -1.14213,-0.7742 -1.49474,-1.26478c-0.33727,-0.47525 -0.48292,-1.03482 -0.43692,-1.67871c0.03066,-0.36794 0.09965,-1.27245 0.20696,-2.71353c0.42926,0.1533 0.53658,-0.03066 0.32194,-0.5519c-0.1993,-0.53658 -0.25296,-0.98883 -0.16097,-1.35676l0.71288,-2.66754c0.33727,0.12265 0.58257,-0.11498 0.73587,-0.71288c-0.36794,0.03066 -0.5519,-0.09198 -0.5519,-0.36794zM90.31704,123.13848l0.27595,-2.3226l0.04599,-1.1728c0,-0.49058 0.10731,-0.89684 0.32194,-1.21879l0.45992,-0.64389c0.84318,-0.65922 1.42575,-1.04249 1.7477,-1.1498c0.33727,-0.12265 0.78186,-0.12265 1.33377,0c0.56723,0.12265 0.93517,0.26828 1.10381,0.43692l0.32194,0.27595c0.47525,0.27595 0.71288,0.62089 0.71288,1.03482c0.22996,0.30662 0.22229,0.66688 -0.023,1.08081c-0.09198,0.10731 -0.30662,1.51774 -0.64389,4.23127l-0.32194,5.35807l-0.18397,1.03482c0,0.22996 0.00767,0.3756 0.023,0.43692v0.80486c-0.06132,0.67455 -0.11498,1.05782 -0.16097,1.1498c0,0.09198 -0.22996,0.16097 -0.68988,0.20696c0.45992,-0.13798 0.68988,0.07666 0.68988,0.64389c0,0.56723 -0.16097,0.85085 -0.48292,0.85085c0.1993,0.32194 0.29895,0.65156 0.29895,0.98883c0,0.33727 0.03066,0.71288 0.09198,1.1268c0.06132,0.41393 0.08432,0.82786 0.06899,1.24178l0.16097,1.47174v0.5749c0.04599,0.47525 0.06899,0.85852 0.06899,1.1498l0.20696,1.97766l0.13798,1.03482c0.09198,0.56723 0.03832,1.1498 -0.16097,1.7477c-0.1993,0.61322 -0.55957,1.01949 -1.08081,1.21879c-1.10381,0.44459 -2.18462,0.23763 -3.24244,-0.62089h-0.41393c-0.42926,-0.49058 -0.67455,-0.86618 -0.73587,-1.1268c-0.32194,-0.1533 -0.46759,-0.40626 -0.43692,-0.75887c0.03066,-0.35261 -0.01533,-0.62856 -0.13798,-0.82786c-0.12265,-0.1993 -0.18397,-0.45225 -0.18397,-0.75887c0,-0.29128 -0.023,-0.58257 -0.06899,-0.87385l0.50591,-0.20696c-0.3986,0.07666 -0.5979,-0.06899 -0.5979,-0.43692l-0.06899,-0.71288v-0.36794c0,-0.1533 -0.01533,-0.29895 -0.04599,-0.43692c-0.01533,-0.13798 0.1763,-0.25296 0.5749,-0.34494c-0.3986,0.04599 -0.55957,-0.36794 -0.48292,-1.24178c0.1533,-1.97766 0.22996,-3.34975 0.22996,-4.11629l0.04599,-0.94284v-1.10381c0.01533,-0.64389 0.03066,-1.50241 0.04599,-2.57555c0.01533,-1.08848 0.21463,-1.59439 0.5979,-1.51774l-0.50591,-0.18397c0,-0.70521 0.09965,-1.60205 0.29895,-2.69053c0.1993,-1.08848 0.29895,-1.66338 0.29895,-1.7247zM99.38755,123.5524c0.06132,-0.18397 0.07666,-0.36027 0.04599,-0.52891c-0.01533,-0.18397 0.01533,-0.78186 0.09198,-1.79369c0.09198,-0.16864 0.09965,-0.52891 0.023,-1.08081c0,-0.5979 0.19164,-1.16513 0.5749,-1.7017c0.3986,-0.5519 1.23412,-1.20346 2.50656,-1.95466l-0.78186,1.40276c-0.16864,-0.58257 0.023,-0.91984 0.5749,-1.01182c1.24178,-0.16864 2.23828,0.3756 2.98948,1.63272c-0.1993,0.32194 -0.29895,0.91217 -0.29895,1.77069v3.97831c0.03066,0.65922 0.04599,1.55606 0.04599,2.69053v1.47174l0.13798,2.55256c0,0.65922 0.03832,1.3261 0.11498,2.00065c0,1.24178 0.023,2.00065 0.06899,2.2766c0.06132,0.26062 0.09198,0.45992 0.09198,0.5979v0.64389c0,0.50591 0.03066,0.88918 0.09198,1.1498c0,0.21463 0.07666,0.50591 0.22996,0.87385c-0.13798,0.44459 -0.16864,0.82019 -0.09198,1.1268c0.18397,0.41393 0.24529,0.85085 0.18397,1.31077c0.16864,0.30662 0.22229,0.73587 0.16097,1.28778l0.04599,0.09198l0.11498,0.39093c0.1533,0.52124 0.08432,1.11914 -0.20696,1.79369c-0.27595,0.65922 -0.85085,1.11148 -1.7247,1.35676c-0.85852,0.24529 -1.82435,-0.16864 -2.8975,-1.24178c0.32194,-0.22996 0.29128,-0.24529 -0.09198,-0.04599c-0.52124,-0.30662 -0.89684,-1.05782 -1.1268,-2.25361c-0.16864,-0.30662 -0.25296,-0.54424 -0.25296,-0.71288c-0.29128,-0.22996 -0.43692,-0.71288 -0.43692,-1.44875v-0.85085c-0.01533,-0.22996 -0.01533,-0.33727 0,-0.32194c-0.16864,-0.1993 -0.28362,-0.62089 -0.34494,-1.26478l0.06899,-2.66754c0,-0.82786 -0.023,-1.47941 -0.06899,-1.95466v-2.66754c-0.07666,-0.85852 -0.11498,-1.53306 -0.11498,-2.02365c0,-0.49058 0.09198,-1.42575 0.27595,-2.80551c0,0.03066 -0.04599,-0.06899 -0.13798,-0.29895c0.09198,-0.50591 0.13798,-1.09614 0.13798,-1.77069zM123.48584,133.76264c-0.06132,0.21463 -0.22229,0.62856 -0.48292,1.24178l-0.27595,0.87385l-0.34494,0.71288c-0.03066,0.06132 -0.04599,0.22229 -0.04599,0.48292c-0.21463,0.50591 -0.32194,0.86618 -0.32194,1.08081c-0.16864,0.1993 -0.28362,0.66688 -0.34494,1.40276c-0.06132,0.73587 -0.05366,1.21112 0.023,1.42575l0.5749,0.68988h-0.09198l0.06899,-0.09198c0.3986,-0.27595 0.52124,-0.47525 0.36794,-0.5979c0.07666,-0.1533 0.26062,-0.51358 0.5519,-1.08081c0.13798,-0.12265 0.25296,-0.24529 0.34494,-0.36794c0.09198,-0.13798 0.27595,-0.23763 0.5519,-0.29895c-0.1533,-0.03066 -0.1993,-0.19164 -0.13798,-0.48292c0.22996,0.01533 0.26828,-0.11498 0.11498,-0.39093c-0.13798,-0.27595 -0.12265,-0.72054 0.04599,-1.33377c0.29128,-1.28778 0.31428,-2.16929 0.06899,-2.64454c-0.06132,-0.38326 -0.12265,-0.63622 -0.18397,-0.75887c-0.06132,-0.13798 -0.10731,-0.1763 -0.13798,-0.11498c-0.18397,-0.03066 -0.29895,0.05366 -0.34494,0.25296zM122.12908,128.15161c1.19579,0.10731 2.04664,0.23763 2.55256,0.39093c0.50591,0.1533 1.05782,0.4216 1.65571,0.80486c0.56723,0.24529 1.02715,0.52891 1.37976,0.85085c0.36794,0.32194 0.61322,0.52891 0.73587,0.62089c1.16513,0.81253 1.60205,2.05431 1.31077,3.72535c-0.13798,0.76654 -0.20696,1.68638 -0.20696,2.75952v1.19579l0.023,0.68988c-0.04599,0.62856 -0.06899,1.37209 -0.06899,2.23061c-0.04599,0.56723 -0.06899,0.93517 -0.06899,1.10381c-0.1533,0.32194 -0.26828,0.85852 -0.34494,1.60972c-0.07666,0.73587 -0.16864,1.28778 -0.27595,1.65571l-0.48292,1.7017c-0.1993,0.52124 -0.5519,1.31844 -1.05782,2.39158c-0.27595,0.01533 -0.36027,0.06132 -0.25296,0.13798c0.10731,0.07666 0.01533,0.33727 -0.27595,0.78186c-0.29128,0.45992 -0.50591,0.74354 -0.64389,0.85085c-0.12265,0.10731 -0.33727,0.08432 -0.64389,-0.06899c0.33727,0.22996 0.34494,0.49058 0.023,0.78186c-0.30662,0.29128 -0.52891,0.46759 -0.66688,0.52891c-0.21463,0.26062 -0.61322,0.47525 -1.19579,0.64389c-0.22996,0.10731 -0.95816,0.23763 -2.18462,0.39093c-1.70171,-0.09198 -3.38809,-0.67455 -5.05913,-1.7477c-0.85852,-0.56723 -1.24178,-1.50241 -1.1498,-2.80551c0.09198,-1.28778 0.85852,-1.80136 2.2996,-1.54073c0.49058,0.10731 1.03482,0.42926 1.63272,0.96583c0.3986,0.13798 0.73587,0.22229 1.01183,0.25296c0.27595,0.04599 0.47525,0.09198 0.5979,0.13798c0.07666,0.03066 0.30662,-0.09965 0.68988,-0.39093c0.65922,-0.42926 1.18046,-0.98116 1.56373,-1.65571c0.07666,-0.62856 0.27595,-1.37209 0.5979,-2.23061c0.1993,-0.64389 0.50591,-0.96583 0.91984,-0.96583h0.16097c0.35261,0.29128 0.34494,0.55957 -0.023,0.80486c-0.36794,0.22996 -0.66688,0.36794 -0.89684,0.41393l-1.05782,0.25296c-0.41393,0.07666 -0.79719,0.09198 -1.1498,0.04599c-0.35261,-0.03066 -0.56723,-0.04599 -0.64389,-0.04599l-0.68988,-0.13798c-0.36794,-0.13798 -1.03483,-0.50591 -2.00066,-1.10381c-0.09198,-0.10731 -0.1763,-0.1763 -0.25296,-0.20696c-0.5979,-0.5519 -1.1268,-1.21112 -1.58672,-1.97766c0.65922,0.07666 0.7282,0.11498 0.20696,0.11498c-0.18397,-0.1993 -0.27595,-0.74354 -0.27595,-1.63272l0.29895,-2.50656c0,-0.29128 0.023,-0.51358 0.06899,-0.66688c-0.07666,-0.21463 -0.04599,-0.53658 0.09198,-0.96583l0.91984,-1.1728c-0.7512,0.84318 -1.06548,0.95816 -0.94284,0.34494c0.13798,-0.62856 0.22996,-1.01182 0.27595,-1.1498c0.06132,-0.13798 0.09965,-0.22996 0.11498,-0.27595c0,-0.44459 0.05366,-0.81253 0.16097,-1.10381c0.10731,-0.29128 0.20696,-0.59023 0.29895,-0.89684c0.22996,-0.67455 0.51358,-1.08848 0.85085,-1.24178c-0.22996,-0.13798 -0.25296,-0.38326 -0.06899,-0.73587c0.1993,-0.35261 0.43692,-0.63622 0.71288,-0.85085c0.9505,-0.73587 1.95467,-1.10381 3.01248,-1.10381zM139.39603,132.93478c-0.01533,-0.38326 -0.07666,-0.64389 -0.18397,-0.78186c-0.10731,-0.1533 -0.26062,-0.23763 -0.45992,-0.25296c0.10731,-0.07666 0.023,0.20696 -0.25296,0.85085c-0.26062,0.62856 -0.4216,1.34144 -0.48292,2.13863c-0.26062,1.22646 -0.39093,2.43758 -0.39093,3.63337c0.03066,1.11914 0.21463,1.93166 0.5519,2.43758c-0.41393,0.29128 -0.68988,0.19164 -0.82786,-0.29895c0.16864,0.30662 0.22996,0.18397 0.18397,-0.36794c1.31844,-2.39158 1.93933,-4.84449 1.86268,-7.35872zM142.22454,140.56945l-1.03482,1.44875c0.29128,0.16864 0.023,0.84318 -0.80486,2.02365c-0.35261,0.73587 -0.9505,1.13447 -1.79369,1.19579c-0.84318,0.06132 -1.61739,-0.01533 -2.3226,-0.22996c-0.91984,-0.30662 -1.63272,-0.69755 -2.13863,-1.1728c-0.50591,-0.47525 -0.98883,-1.22646 -1.44875,-2.25361c-0.44459,-1.02715 -0.67455,-1.878 -0.68988,-2.55256c-0.13798,-0.85852 -0.20696,-1.43342 -0.20696,-1.7247v-0.91984c0,-1.07314 0.05366,-1.7247 0.16097,-1.95466c0.01533,-0.04599 0.06899,-0.26828 0.16097,-0.66688c0.13798,-1.16513 0.48292,-2.28427 1.03482,-3.35742c1.10381,-2.19229 2.3226,-3.31909 3.65637,-3.38041h0.36794c0,0.27595 0.03066,0.28362 0.09198,0.023h0.52891c1.04249,0.09198 1.68638,0.19164 1.93166,0.29895c0.27595,0.06132 0.55957,0.09198 0.85085,0.09198l0.96583,0.20696c0.35261,-0.04599 0.85852,0.03832 1.51774,0.25296c0.67455,0.21463 1.05782,0.42926 1.1498,0.64389c0.10731,0.1993 0.21463,0.56723 0.32194,1.10381c0.12265,0.53658 0.20696,0.92751 0.25296,1.1728c0.04599,0.22996 0.08432,0.46759 0.11498,0.71288c0.1993,1.87034 0.52124,3.59504 0.96583,5.1741c0.04599,0.10731 0.07666,0.24529 0.09198,0.41393c0.03066,0.16864 0.12265,0.47525 0.27595,0.91984c0.16864,0.42926 0.28362,0.79719 0.34494,1.10381c0.07666,0.30662 0.22229,0.70521 0.43692,1.19579c0.13798,0.36794 0.33727,0.78186 0.5979,1.24178c0.98116,1.36443 0.54424,2.39158 -1.31077,3.08146c-0.24529,0.07666 -0.60556,0.11498 -1.08081,0.11498c-0.22996,0 -0.5519,-0.13031 -0.96583,-0.39093c-0.35261,0 -0.67455,-0.16864 -0.96583,-0.50591l-0.27595,-0.09198c-0.04599,-0.32194 -0.1763,-0.38326 -0.39093,-0.18397c-0.29128,-0.27595 -0.63622,-1.44108 -1.03482,-3.49539c0.42926,0.04599 0.64389,0.1993 0.64389,0.45992zM151.26848,127.16278l0.22996,0.27595c0.3986,-0.29128 1.04249,-0.32961 1.93166,-0.11498c0.64389,0.18397 1.00416,1.1728 1.08081,2.96648c0.09198,1.08848 0.09965,1.82435 0.023,2.20762c-0.06132,0.36794 -0.00767,0.5749 0.16097,0.62089l-0.5519,2.57555l-0.09198,0.20696c-0.50591,-0.04599 -0.7282,-0.23763 -0.66688,-0.5749c0.13798,-0.78186 0.31428,-1.44108 0.52891,-1.97766c0.18397,0.01533 0.24529,-0.05366 0.18397,-0.20696c-0.06132,-0.16864 -0.01533,-0.36794 0.13798,-0.5979c0.1533,-0.68988 0.5519,-1.64804 1.19579,-2.8745c0.24529,-0.53658 0.52124,-1.01182 0.82786,-1.42575c0.30662,-0.41393 0.7742,-0.5519 1.40276,-0.41393c0.64389,0.12265 1.08848,0.28362 1.33377,0.48292c0.07666,0 0.27595,0.03066 0.5979,0.09198l1.10381,0.25296c0.22996,0.03066 0.52891,0.19164 0.89684,0.48292c0.36794,0.27595 0.52124,0.59023 0.45992,0.94284c-0.04599,0.33727 -0.07666,0.9965 -0.09198,1.97766v0.66688l-0.16097,1.54073c-0.1993,0.29128 -0.27595,0.36794 -0.22996,0.22996l-0.43692,0.34494l-0.39093,-1.63272c0,-0.35261 0.11498,-0.65156 0.34494,-0.89684l0.5979,-0.80486c-0.1533,-0.1533 -0.13798,-0.38326 0.04599,-0.68988c0.04599,-0.18397 0.18397,-0.47525 0.41393,-0.87385c0.24529,-0.3986 0.46759,-0.70521 0.66688,-0.91984c0,-0.45992 0.3756,-0.7512 1.1268,-0.87385c0.50591,-0.52124 1.28778,-0.54424 2.34559,-0.06899c0.1533,0 0.51358,0.10731 1.08081,0.32194c-0.49058,0.36794 -0.58257,0.45225 -0.27595,0.25296c0.30662,-0.1993 0.74354,0 1.31077,0.5979v0.75887c0,0.22996 0.00767,0.42926 0.023,0.5979c-0.01533,0.16864 0,0.3756 0.04599,0.62089v0.50591c0.03066,0.18397 0.09198,0.84318 0.18397,1.97766v0.22996c0.10731,0.18397 0.14564,0.3986 0.11498,0.64389c-0.01533,0.24529 -0.16097,0.39093 -0.43692,0.43692c0.32194,-0.07666 0.52124,0.14564 0.5979,0.66688c0.07666,0.50591 0.06132,0.91984 -0.04599,1.24178l0.04599,0.22996l-0.29895,0.91984c0.33727,0.01533 0.50591,0.22996 0.50591,0.64389l0.11498,0.66688c0,0.44459 0.06899,0.90451 0.20696,1.37976v0.45992l0.18397,1.03482v0.34494l-0.04599,0.39093c0,0.62856 -0.29895,1.05782 -0.89684,1.28778c0,0.01533 -0.08432,0.06899 -0.25296,0.16097c-0.16864,0.09198 -0.47525,0.13798 -0.91984,0.13798l-1.05782,-0.34494l-0.18397,-0.22996c-0.21463,0.09198 -0.70521,-0.12265 -1.47174,-0.64389c0,-0.29128 0.03066,-0.40626 0.09198,-0.34494c-0.65922,-0.22996 -0.87385,-0.80486 -0.64389,-1.7247c0.44459,0.22996 0.27595,0.18397 -0.50591,-0.13798c0.56723,-0.03066 0.60556,-0.24529 0.11498,-0.64389c0,-0.26062 -0.023,-0.49824 -0.06899,-0.71288c-0.03066,-0.21463 -0.05366,-0.4216 -0.06899,-0.62089c-0.01533,-0.21463 -0.1993,-0.74354 -0.5519,-1.58672c0.81253,0.50591 1.08848,0.69755 0.82786,0.5749c-0.24529,-0.13798 -0.39093,-0.28362 -0.43692,-0.43692v-0.96583h0.45992l0.32194,0.45992c-0.49058,0.91984 -0.67455,1.42575 -0.5519,1.51774l-1.31077,4.07029c-0.13798,0.29128 -0.38326,0.59023 -0.73587,0.89684c-0.33727,0.29128 -0.83552,0.43692 -1.49474,0.43692c0.16864,-0.44459 0.19164,-0.5749 0.06899,-0.39093c-0.12265,0.18397 -0.32961,0.33727 -0.62089,0.45992c-1.45642,0.1533 -2.2996,-0.34494 -2.52956,-1.49474l-0.09198,-0.98883l0.48292,-0.82786c-0.35261,0.03066 -0.52891,-0.18397 -0.52891,-0.64389l-0.023,-0.52891v-1.7017l-0.09198,-2.00065l0.80486,-1.93166c-0.24529,2.22294 -0.45225,3.64104 -0.62089,4.25426l-1.47174,4.69119c-0.41393,1.11914 -1.1498,1.70937 -2.20762,1.77069l-0.39093,0.06899c-0.9505,0.1993 -1.61739,-0.01533 -2.00065,-0.64389l-0.45992,-0.80486c0.09198,-0.58257 0,-0.85852 -0.27595,-0.82786c-0.09198,-0.49058 -0.22996,-0.91984 -0.41393,-1.28778l-0.25296,-1.1268c0,-0.07666 -0.023,-0.19164 -0.06899,-0.34494v-0.64389c-0.07666,-0.1993 -0.14564,-0.64389 -0.20696,-1.33377c-0.04599,-0.70521 -0.06132,-1.22646 -0.04599,-1.56373c-0.09198,-0.33727 -0.11498,-0.7742 -0.06899,-1.31077v-0.5749c-0.13798,-0.5979 -0.20696,-1.5484 -0.20696,-2.8515v-0.62089c0.13798,-0.78186 0.20696,-1.3491 0.20696,-1.7017c0,-0.36794 0.11498,-0.66688 0.34494,-0.89684c0.22996,-0.24529 0.78953,-0.64389 1.67871,-1.19579zM174.38231,118.10236c0.1533,-0.07666 0.50591,-0.1533 1.05782,-0.22996c0.96583,-0.1533 1.66338,-0.06132 2.09264,0.27595c0.44459,0.32194 0.79719,0.71288 1.05782,1.1728c0.04599,1.02715 -0.07666,2.25361 -0.36794,3.67936c-0.32194,0.9505 -0.60556,1.66338 -0.85085,2.13863l-0.36794,0.52891c-0.09198,0.27595 -0.33727,0.5979 -0.73587,0.96583c-0.3986,0.36794 -0.7512,0.53658 -1.05782,0.50591c-0.29128,-0.04599 -0.62089,-0.1763 -0.98883,-0.39093c-0.35261,-0.22996 -0.63622,-0.47525 -0.85085,-0.73587c-0.03066,-0.18397 -0.06132,-0.32194 -0.09198,-0.41393l-0.16097,-0.62089l-0.73587,-0.91984c-0.22996,-0.47525 -0.34494,-0.91984 -0.34494,-1.33377c-0.09198,-0.90451 0.16864,-1.51007 0.78186,-1.81668c-0.33727,-0.09198 -0.45992,-0.26828 -0.36794,-0.52891c0.18397,-0.7512 0.82786,-1.51007 1.93166,-2.2766zM172.81859,136.40718c0,-0.29128 0.03832,-0.62089 0.11498,-0.98883c0.09198,-0.38326 0.12265,-0.63622 0.09198,-0.75887c-0.03066,-0.12265 -0.03066,-0.62089 0,-1.49474c0.06132,-0.26062 0.07666,-0.51358 0.04599,-0.75887c-0.22996,-0.70521 -0.28362,-1.24945 -0.16097,-1.63272c0.13798,-0.3986 0.36794,-0.80486 0.68988,-1.21879c0.33727,-0.42926 0.73587,-0.73587 1.19579,-0.91984c0.47525,-0.1993 1.13447,-0.18397 1.97766,0.04599c0.30662,0.1533 0.67455,0.48292 1.10381,0.98883c0.16864,0.16864 0.32194,0.56723 0.45992,1.19579c0.13798,0.61322 0.22229,1.24178 0.25296,1.88567c0.04599,0.62856 0.08432,1.53306 0.11498,2.71353c0.03066,1.16513 0.08432,2.72886 0.16097,4.69119c0.07666,1.96233 0.09198,3.2501 0.04599,3.86333c-0.04599,0.5979 -0.34494,1.11148 -0.89684,1.54073c-0.53658,0.44459 -0.9735,0.5519 -1.31077,0.32194c-0.33727,-0.21463 -0.5519,-0.32961 -0.64389,-0.34494c-0.5979,0 -1.03482,-0.26828 -1.31077,-0.80486c-0.12265,0.13798 -0.45225,0.05366 -0.98883,-0.25296c-0.52124,-0.30662 -0.84318,-0.83552 -0.96583,-1.58672c-0.16864,-0.32194 -0.22229,-1.27245 -0.16097,-2.8515v-1.44875l0.18397,-1.33377zM181.12614,140.40848c0,-0.21463 0.023,-0.5749 0.06899,-1.08081c-0.1993,-0.29128 -0.29895,-1.06548 -0.29895,-2.3226c-0.03066,-2.88217 0.023,-4.32325 0.16097,-4.32325c0.1533,0 0.12265,-0.03832 -0.09198,-0.11498c-0.1993,-0.09198 -0.29895,-0.29128 -0.29895,-0.5979v-0.36794c-0.12265,-0.9965 -0.06132,-1.75536 0.18397,-2.2766c0.07666,-0.44459 0.29128,-0.75887 0.64389,-0.94284c0.27595,-0.38326 0.67455,-0.5749 1.19579,-0.5749c0.53658,0 0.86618,0.023 0.98883,0.06899c0.42926,-0.18397 0.79719,-0.00767 1.10381,0.52891c-0.04599,0.47525 0.023,0.48292 0.20696,0.023l0.18397,0.22996c0.26062,-0.04599 0.49058,0.03832 0.68988,0.25296c0.21463,0.1993 0.35261,0.52124 0.41393,0.96583l0.34494,3.4724v0.64389c0.06132,0.30662 0.09198,0.5749 0.09198,0.80486l-0.5749,1.67871l-0.16097,0.023c-0.27595,-0.68988 -0.31428,-1.24178 -0.11498,-1.65571c0.1993,-0.42926 0.31428,-0.71288 0.34494,-0.85085c0.04599,-0.33727 0.16864,-0.62856 0.36794,-0.87385c0.07666,-0.1533 0.11498,-0.31428 0.11498,-0.48292c0,-0.18397 0.14564,-0.42926 0.43692,-0.73587c0.22996,-0.53658 0.44459,-0.93517 0.64389,-1.19579l0.11498,-0.27595c0.10731,-0.16864 0.1993,-0.34494 0.27595,-0.52891c0.35261,-0.27595 0.5979,-0.50591 0.73587,-0.68988l0.5979,-0.45992c0.18397,0.44459 0.22229,0.49058 0.11498,0.13798c-0.10731,-0.36794 0.31428,-0.5749 1.26478,-0.62089c0.56723,-0.09198 1.04249,-0.09198 1.42575,0c0.35261,0 0.63622,0.07666 0.85085,0.22996l0.13798,0.13798l0.20696,0.04599c0.73587,0.38326 1.18812,1.18046 1.35676,2.39158c0,1.7477 0.06132,2.88983 0.18397,3.42641c0.18397,1.47174 0.47525,2.75185 0.87385,3.84033c0.3986,1.07314 0.7742,1.77836 1.1268,2.11563c0.76654,0.9965 0.91217,2.04664 0.43692,3.15045c-0.38326,0.67455 -0.85852,1.02715 -1.42575,1.05782c-0.5519,0.03066 -0.91217,0.023 -1.08081,-0.023c-0.29128,0 -0.44459,-0.13798 -0.45992,-0.41393c-0.41393,0.33727 -0.7512,0.36794 -1.01182,0.09198c-0.32194,0 -0.62089,-0.22996 -0.89684,-0.68988c-0.91984,-1.22646 -1.45642,-1.98532 -1.60972,-2.2766c-0.13798,-0.30662 -0.25296,-0.52124 -0.34494,-0.64389c-0.07666,-0.12265 -0.13031,-0.22996 -0.16097,-0.32194c-0.03066,-0.10731 -0.08432,-0.25296 -0.16097,-0.43692c-0.03066,-0.16864 -0.13031,-0.36027 -0.29895,-0.5749c-0.1533,-0.21463 -0.16864,-0.41393 -0.04599,-0.5979c-0.18397,-0.07666 -0.20696,-0.23763 -0.06899,-0.48292c-0.33727,0 -0.36027,-0.16864 -0.06899,-0.50591c-0.36794,0.10731 -0.60556,-0.1533 -0.71288,-0.78186l0.5519,-1.05782h0.04599c-0.79719,1.77836 -1.28011,3.64104 -1.44875,5.58803c-0.07666,0.56723 -0.1533,0.98883 -0.22996,1.26478c-0.12265,0 -0.04599,0.14564 0.22996,0.43692v0.43692c0,0.33727 -0.29895,0.78953 -0.89684,1.35676c-0.50591,0.04599 -0.80486,0.06899 -0.89684,0.06899h-0.43692c0,-0.33727 -0.03832,-0.29895 -0.11498,0.11498c-0.1533,0 -0.30662,0.03832 -0.45992,0.11498c-0.1533,0.09198 -0.3986,0.06899 -0.73587,-0.06899c-0.49058,-0.04599 -0.78953,-0.09198 -0.89684,-0.13798c-0.09198,-0.04599 -0.25296,-0.09198 -0.48292,-0.13798c-0.22996,-0.06132 -0.29895,-0.26828 -0.20696,-0.62089c-0.3986,0.27595 -0.65922,0.21463 -0.78186,-0.18397c-0.7512,-0.73587 -1.1268,-1.45642 -1.1268,-2.16162v-0.25296l-0.023,-0.34494c0.03066,-0.35261 0,-0.68988 -0.09198,-1.01182zM205.32178,133.76264c-0.06132,0.21463 -0.22229,0.62856 -0.48292,1.24178l-0.27595,0.87385l-0.34494,0.71288c-0.03066,0.06132 -0.04599,0.22229 -0.04599,0.48292c-0.21463,0.50591 -0.32194,0.86618 -0.32194,1.08081c-0.16864,0.1993 -0.28362,0.66688 -0.34494,1.40276c-0.06132,0.73587 -0.05366,1.21112 0.023,1.42575l0.5749,0.68988h-0.09198l0.06899,-0.09198c0.3986,-0.27595 0.52124,-0.47525 0.36794,-0.5979c0.07666,-0.1533 0.26062,-0.51358 0.5519,-1.08081c0.13798,-0.12265 0.25296,-0.24529 0.34494,-0.36794c0.09198,-0.13798 0.27595,-0.23763 0.5519,-0.29895c-0.1533,-0.03066 -0.1993,-0.19164 -0.13798,-0.48292c0.22996,0.01533 0.26828,-0.11498 0.11498,-0.39093c-0.13798,-0.27595 -0.12265,-0.72054 0.04599,-1.33377c0.29128,-1.28778 0.31428,-2.16929 0.06899,-2.64454c-0.06132,-0.38326 -0.12265,-0.63622 -0.18397,-0.75887c-0.06132,-0.13798 -0.10731,-0.1763 -0.13798,-0.11498c-0.18397,-0.03066 -0.29895,0.05366 -0.34494,0.25296zM203.96502,128.15161c1.19579,0.10731 2.04664,0.23763 2.55256,0.39093c0.50591,0.1533 1.05782,0.4216 1.65571,0.80486c0.56723,0.24529 1.02715,0.52891 1.37976,0.85085c0.36794,0.32194 0.61322,0.52891 0.73587,0.62089c1.16513,0.81253 1.60205,2.05431 1.31077,3.72535c-0.13798,0.76654 -0.20696,1.68638 -0.20696,2.75952v1.19579l0.023,0.68988c-0.04599,0.62856 -0.06899,1.37209 -0.06899,2.23061c-0.04599,0.56723 -0.06899,0.93517 -0.06899,1.10381c-0.1533,0.32194 -0.26828,0.85852 -0.34494,1.60972c-0.07666,0.73587 -0.16864,1.28778 -0.27595,1.65571l-0.48292,1.7017c-0.1993,0.52124 -0.5519,1.31844 -1.05782,2.39158c-0.27595,0.01533 -0.36027,0.06132 -0.25296,0.13798c0.10731,0.07666 0.01533,0.33727 -0.27595,0.78186c-0.29128,0.45992 -0.50591,0.74354 -0.64389,0.85085c-0.12265,0.10731 -0.33727,0.08432 -0.64389,-0.06899c0.33727,0.22996 0.34494,0.49058 0.023,0.78186c-0.30662,0.29128 -0.52891,0.46759 -0.66688,0.52891c-0.21463,0.26062 -0.61322,0.47525 -1.19579,0.64389c-0.22996,0.10731 -0.95816,0.23763 -2.18462,0.39093c-1.7017,-0.09198 -3.38808,-0.67455 -5.05912,-1.7477c-0.85852,-0.56723 -1.24178,-1.50241 -1.1498,-2.80551c0.09198,-1.28778 0.85852,-1.80136 2.2996,-1.54073c0.49058,0.10731 1.03482,0.42926 1.63272,0.96583c0.3986,0.13798 0.73587,0.22229 1.01182,0.25296c0.27595,0.04599 0.47525,0.09198 0.5979,0.13798c0.07666,0.03066 0.30662,-0.09965 0.68988,-0.39093c0.65922,-0.42926 1.18046,-0.98116 1.56373,-1.65571c0.07666,-0.62856 0.27595,-1.37209 0.5979,-2.23061c0.1993,-0.64389 0.50591,-0.96583 0.91984,-0.96583h0.16097c0.35261,0.29128 0.34494,0.55957 -0.023,0.80486c-0.36794,0.22996 -0.66688,0.36794 -0.89684,0.41393l-1.05782,0.25296c-0.41393,0.07666 -0.79719,0.09198 -1.1498,0.04599c-0.35261,-0.03066 -0.56723,-0.04599 -0.64389,-0.04599l-0.68988,-0.13798c-0.36794,-0.13798 -1.03482,-0.50591 -2.00065,-1.10381c-0.09198,-0.10731 -0.1763,-0.1763 -0.25296,-0.20696c-0.5979,-0.5519 -1.1268,-1.21112 -1.58672,-1.97766c0.65922,0.07666 0.7282,0.11498 0.20696,0.11498c-0.18397,-0.1993 -0.27595,-0.74354 -0.27595,-1.63272l0.29895,-2.50656c0,-0.29128 0.023,-0.51358 0.06899,-0.66688c-0.07666,-0.21463 -0.04599,-0.53658 0.09198,-0.96583l0.91984,-1.1728c-0.7512,0.84318 -1.06548,0.95816 -0.94284,0.34494c0.13798,-0.62856 0.22996,-1.01182 0.27595,-1.1498c0.06132,-0.13798 0.09965,-0.22996 0.11498,-0.27595c0,-0.44459 0.05366,-0.81253 0.16097,-1.10381c0.10731,-0.29128 0.20696,-0.59023 0.29895,-0.89684c0.22996,-0.67455 0.51358,-1.08848 0.85085,-1.24178c-0.22996,-0.13798 -0.25296,-0.38326 -0.06899,-0.73587c0.1993,-0.35261 0.43692,-0.63622 0.71288,-0.85085c0.9505,-0.73587 1.95466,-1.10381 3.01248,-1.10381zM223.47801,128.42756c0.84318,-1.02715 1.99298,-1.57906 3.4494,-1.65571c2.28427,-0.09198 3.98598,0.48292 5.10511,1.7247c1.13447,1.24178 1.74003,2.56022 1.81668,3.95531c0.09198,1.39509 -0.4216,2.16162 -1.54073,2.2996c-1.11914,0.01533 -1.79369,-0.11498 -2.02365,-0.39093c-0.26062,0.07666 -0.63622,-0.13031 -1.1268,-0.62089c-0.22996,-0.12265 -0.52124,-0.52891 -0.87385,-1.21879l-0.43692,-1.01182c-0.09198,-0.1993 -0.07666,-0.29128 0.04599,-0.27595c0.09198,-0.03066 0.13798,0.07666 0.13798,0.32194c0.07666,1.02715 0.60556,2.04664 1.58672,3.05847c0,0 0.01533,0.03066 0.04599,0.09198c0.04599,0.06132 0.22996,0.26062 0.5519,0.5979c2.17695,2.43758 3.31909,4.4459 3.42641,6.02495c0,1.16513 -0.26828,1.95466 -0.80486,2.36859c-1.24178,1.48707 -2.88217,2.25361 -4.92115,2.2996c-2.03898,0.06132 -3.73302,-0.5749 -5.08212,-1.90867c-0.45992,-0.47525 -0.68988,-0.91984 -0.68988,-1.33377c-0.1993,-0.61322 -0.26062,-1.02715 -0.18397,-1.24178c-0.06132,-0.68988 -0.04599,-1.25711 0.04599,-1.7017c0.22996,-1.24178 1.10381,-1.88567 2.62154,-1.93166c0.84318,0 1.3491,0.44459 1.51774,1.33377c0.32194,1.22646 0.5749,1.96999 0.75887,2.23061c0.1993,0.26062 0.48292,0.38326 0.85085,0.36794c0.33727,-0.01533 0.49058,-0.29128 0.45992,-0.82786c-0.01533,-0.5519 -0.3756,-1.15747 -1.08081,-1.81668c-0.22996,-0.29128 -0.46759,-0.51358 -0.71288,-0.66688c-0.22996,-0.16864 -0.44459,-0.34494 -0.64389,-0.52891c0.18397,-0.1993 0.18397,-0.22229 0,-0.06899c-0.58257,-0.45992 -1.31077,-1.21879 -2.18462,-2.2766c-0.85852,-1.05782 -1.31844,-2.08497 -1.37976,-3.08146c-0.12265,-1.73237 0.29895,-3.10446 1.26478,-4.11629zM236.26467,123.5524c0.06132,-0.18397 0.07666,-0.36027 0.04599,-0.52891c-0.01533,-0.18397 0.01533,-0.78186 0.09198,-1.79369c0.09198,-0.16864 0.09965,-0.52891 0.023,-1.08081c0,-0.5979 0.19164,-1.16513 0.5749,-1.7017c0.3986,-0.5519 1.23412,-1.20346 2.50656,-1.95466l-0.78186,1.40276c-0.16864,-0.58257 0.023,-0.91984 0.5749,-1.01182c1.24178,-0.16864 2.23828,0.3756 2.98948,1.63272c-0.1993,0.32194 -0.29895,0.91217 -0.29895,1.77069v3.97831c0.03066,0.65922 0.04599,1.55606 0.04599,2.69053v1.47174l0.13798,2.55256c0,0.65922 0.03832,1.3261 0.11498,2.00065c0,1.24178 0.023,2.00065 0.06899,2.2766c0.06132,0.26062 0.09198,0.45992 0.09198,0.5979v0.64389c0,0.50591 0.03066,0.88918 0.09198,1.1498c0,0.21463 0.07666,0.50591 0.22996,0.87385c-0.13798,0.44459 -0.16864,0.82019 -0.09198,1.1268c0.18397,0.41393 0.24529,0.85085 0.18397,1.31077c0.16864,0.30662 0.22229,0.73587 0.16097,1.28778l0.04599,0.09198l0.11498,0.39093c0.1533,0.52124 0.08432,1.11914 -0.20696,1.79369c-0.27595,0.65922 -0.85085,1.11148 -1.7247,1.35676c-0.85852,0.24529 -1.82435,-0.16864 -2.8975,-1.24178c0.32194,-0.22996 0.29128,-0.24529 -0.09198,-0.04599c-0.52124,-0.30662 -0.89684,-1.05782 -1.1268,-2.25361c-0.16864,-0.30662 -0.25296,-0.54424 -0.25296,-0.71288c-0.29128,-0.22996 -0.43692,-0.71288 -0.43692,-1.44875v-0.85085c-0.01533,-0.22996 -0.01533,-0.33727 0,-0.32194c-0.16864,-0.1993 -0.28362,-0.62089 -0.34494,-1.26478l0.06899,-2.66754c0,-0.82786 -0.023,-1.47941 -0.06899,-1.95466v-2.66754c-0.07666,-0.85852 -0.11498,-1.53306 -0.11498,-2.02365c0,-0.49058 0.09198,-1.42575 0.27595,-2.80551c0,0.03066 -0.04599,-0.06899 -0.13798,-0.29895c0.09198,-0.50591 0.13798,-1.09614 0.13798,-1.77069zM249.95333,137.51099c-0.10731,0.84318 -0.16097,1.62505 -0.16097,2.34559c0,0.72054 0.05366,1.23412 0.16097,1.54073c-0.24529,0.21463 -0.31428,0.1993 -0.20696,-0.04599c-0.13798,0.04599 -0.19164,0.01533 -0.16097,-0.09198c0.26062,0.16864 0.26062,0.13798 0,-0.09198c0.85852,-0.81253 1.33377,-1.33377 1.42575,-1.56373c0.10731,-0.22996 0.21463,-0.40626 0.32194,-0.52891c0.01533,0.04599 0.01533,-0.06132 0,-0.32194c0.49058,0 0.73587,0.023 0.73587,0.06899c-0.38326,-0.09198 -0.49824,-0.28362 -0.34494,-0.5749c-0.29128,-0.36794 -0.33727,-0.62856 -0.13798,-0.78186c0.21463,-0.16864 0.32194,-0.35261 0.32194,-0.5519l0.16097,-1.24178c0,-0.18397 0.04599,-0.29895 0.13798,-0.34494c-0.09198,-0.10731 -0.12265,-0.27595 -0.09198,-0.50591c0.04599,-0.22996 0.05366,-0.52891 0.023,-0.89684c-0.01533,-0.36794 -0.07666,-0.5979 -0.18397,-0.68988l-0.11498,-0.41393c0.18397,-0.06132 0.13031,-0.023 -0.16097,0.11498l0.16097,-0.73587c0.5979,0.10731 0.66688,0.4216 0.20696,0.94284c-0.9505,1.28778 -1.64804,2.74419 -2.09264,4.36924zM245.69907,132.8428c0.01533,-0.1993 0.16864,-0.32961 0.45992,-0.39093l-0.32194,-0.16097c0.1533,-0.52124 0.30662,-0.9735 0.45992,-1.35676c0.16864,-0.38326 0.3756,-0.16097 0.62089,0.66688c-0.58257,-0.12265 -0.78953,-0.29895 -0.62089,-0.52891c0.07666,-0.1993 0.19164,-0.44459 0.34494,-0.73587c0.16864,-0.29128 0.25296,-0.45992 0.25296,-0.50591c0.27595,-0.70521 0.64389,-1.01949 1.10381,-0.94284c-0.24529,-0.49058 0.20696,-0.78953 1.35676,-0.89684c0.9505,-0.33727 1.64804,-0.42926 2.09264,-0.27595c0.30662,-0.1993 0.85852,-0.08432 1.65571,0.34494c0.41393,0.16864 0.86618,0.42926 1.35676,0.78186c0.44459,0.29128 0.78953,0.5749 1.03482,0.85085c0.47525,0.22996 0.79719,0.62856 0.96583,1.19579c0.7512,1.82435 1.1268,3.48006 1.1268,4.96714l-0.06899,0.43692c0,0.50591 -0.04599,0.80486 -0.13798,0.89684c-0.07666,0.07666 -0.32194,0.08432 -0.73587,0.023c0.61322,-0.18397 0.83552,0.00767 0.66688,0.5749c0,0.12265 -0.22229,1.02715 -0.66688,2.71353l-1.08081,1.08081c0.33727,0.21463 0.35261,0.36027 0.04599,0.43692h0.25296c0,0.24529 -0.09965,0.49824 -0.29895,0.75887c-0.27595,0.5519 -0.55957,0.96583 -0.85085,1.24178c-0.41393,0.65922 -0.76654,1.15747 -1.05782,1.49474l-0.5519,0.78186l-0.68988,-0.5519c0.09198,0.42926 0.01533,0.64389 -0.22996,0.64389c-0.24529,0 -1.77069,-0.3986 -4.57621,-1.19579l4.16228,0.20696c-0.29128,0.58257 -0.50591,0.82786 -0.64389,0.73587c-0.12265,-0.07666 -0.25296,-0.09198 -0.39093,-0.04599c-0.3986,-0.22996 -0.63622,-0.32194 -0.71288,-0.27595c-0.27595,0 -0.7742,-0.11498 -1.49474,-0.34494l-1.1268,-0.18397l-0.98883,-0.36794c-0.32194,-0.18397 -0.64389,-0.41393 -0.96583,-0.68988c-0.1993,-0.36794 -0.29895,-0.63622 -0.29895,-0.80486l-0.22996,-0.78186c0.10731,-0.07666 0.08432,-0.21463 -0.06899,-0.41393v-1.1728c0.04599,-0.26062 0.06899,-0.43692 0.06899,-0.52891c-0.06132,-0.16864 -0.06132,-0.50591 0,-1.01182v-0.39093c0,-0.10731 0.00767,-0.23763 0.023,-0.39093c-0.03066,-0.12265 -0.01533,-0.4216 0.04599,-0.89684c0.06132,-0.47525 0.09198,-0.88152 0.09198,-1.21879c0,-0.38326 0.06132,-0.93517 0.18397,-1.65571c0.06132,-0.1533 0.10731,-0.49058 0.13798,-1.01182c0.03066,-0.53658 0.13031,-0.90451 0.29895,-1.10381zM258.03398,129.04846c-0.01533,-0.3986 -0.05366,-0.59023 -0.11498,-0.5749c-0.18397,-0.36794 -0.1533,-0.67455 0.09198,-0.91984c0.26062,-0.26062 0.09198,-0.13798 -0.50591,0.36794c0.1533,-1.42575 0.52891,-2.36092 1.1268,-2.80551c0.61322,-0.45992 1.44108,-0.5749 2.48357,-0.34494l1.24178,0.45992l1.05782,0.27595l0.68988,-1.97766c0.1993,-0.36794 0.30662,-0.62089 0.32194,-0.75887c0.01533,-0.13798 0.06899,-0.32194 0.16097,-0.5519c0.12265,-0.3986 0.22996,-0.68221 0.32194,-0.85085l0.16097,-0.62089c0.30662,-0.62856 0.84318,-1.01949 1.60972,-1.1728c0.50591,-0.18397 0.92751,-0.19164 1.26478,-0.023c0.84318,0.04599 1.57906,0.49824 2.20762,1.35676c0,0.36794 -0.04599,0.70521 -0.13798,1.01182c-0.07666,0.30662 -0.14564,0.68988 -0.20696,1.1498l-1.44875,3.54139l-0.023,-0.5749l1.08081,-0.04599c0.1533,0.03066 0.24529,0.04599 0.27595,0.04599c0.53658,-0.12265 0.96583,-0.20696 1.28778,-0.25296c0.32194,-0.04599 0.58257,-0.07666 0.78186,-0.09198c0.09198,0.01533 0.34494,0.00767 0.75887,-0.023c0.42926,-0.03066 0.93517,0.14564 1.51774,0.52891c0.5979,0.36794 0.89684,0.88152 0.89684,1.54073c0,0.65922 -0.33727,1.16513 -1.01182,1.51774l-0.39093,0.52891c-0.50591,0.18397 -0.89684,0.3756 -1.1728,0.5749c-0.45992,0.24529 -1.86268,0.5979 -4.20827,1.05782l-0.16097,1.21879c0.03066,0.09198 0.04599,0.24529 0.04599,0.45992c-0.18397,1.1498 -0.34494,2.53723 -0.48292,4.16228c0.03066,0.56723 0.04599,0.96583 0.04599,1.19579v1.31077c-0.36794,-0.06132 -0.38326,0.023 -0.04599,0.25296c0,0.61322 0.07666,1.3491 0.22996,2.20762c0.16864,0.85852 0.26062,1.39509 0.27595,1.60972c0.03066,0.1993 0.04599,0.43692 0.04599,0.71288c-0.03066,0.79719 -0.42926,1.3491 -1.19579,1.65571c-1.05782,0 -1.901,-0.1533 -2.52956,-0.45992c-0.9965,-0.16864 -1.22646,-0.49824 -0.68988,-0.98883c-0.36794,0.18397 -0.73587,-0.023 -1.10381,-0.62089c0.49058,-0.33727 0.62856,-0.28362 0.41393,0.16097c-0.49058,-0.21463 -0.49058,-0.65922 0,-1.33377c-0.49058,0.30662 -0.75887,0.24529 -0.80486,-0.18397l-0.20696,-0.73587c-0.32194,-0.42926 -0.4216,-0.9965 -0.29895,-1.7017c0.1533,0.04599 0.10731,0.01533 -0.13798,-0.09198v-0.50591c0,-0.27595 0.03832,-0.44459 0.11498,-0.50591c-0.16864,-0.70521 -0.1763,-1.5714 -0.023,-2.59855c0.1533,-1.04249 0.24529,-1.7247 0.27595,-2.04664c-0.07666,-0.24529 -0.03832,-0.51358 0.11498,-0.80486c0,-0.16864 0.06132,-0.51358 0.18397,-1.03482l0.82786,-1.93166c-0.03066,0.36794 -0.11498,0.5519 -0.25296,0.5519c-1.7017,-0.36794 -2.52956,-0.70521 -2.48357,-1.01182l-0.27595,0.13798c-0.18397,0 -0.51358,-0.13031 -0.98883,-0.39093c-0.47525,-0.27595 -0.81253,-0.62856 -1.01182,-1.05782zM274.6353,128.42756c0.84318,-1.02715 1.99298,-1.57906 3.4494,-1.65571c2.28427,-0.09198 3.98598,0.48292 5.10511,1.7247c1.13447,1.24178 1.74003,2.56022 1.81668,3.95531c0.09198,1.39509 -0.4216,2.16162 -1.54073,2.2996c-1.11914,0.01533 -1.79369,-0.11498 -2.02365,-0.39093c-0.26062,0.07666 -0.63622,-0.13031 -1.1268,-0.62089c-0.22996,-0.12265 -0.52124,-0.52891 -0.87385,-1.21879l-0.43692,-1.01182c-0.09198,-0.1993 -0.07666,-0.29128 0.04599,-0.27595c0.09198,-0.03066 0.13798,0.07666 0.13798,0.32194c0.07666,1.02715 0.60556,2.04664 1.58672,3.05847c0,0 0.01533,0.03066 0.04599,0.09198c0.04599,0.06132 0.22996,0.26062 0.5519,0.5979c2.17695,2.43758 3.31909,4.4459 3.42641,6.02495c0,1.16513 -0.26828,1.95466 -0.80486,2.36859c-1.24178,1.48707 -2.88217,2.25361 -4.92115,2.2996c-2.03898,0.06132 -3.73302,-0.5749 -5.08212,-1.90867c-0.45992,-0.47525 -0.68988,-0.91984 -0.68988,-1.33377c-0.1993,-0.61322 -0.26062,-1.02715 -0.18397,-1.24178c-0.06132,-0.68988 -0.04599,-1.25711 0.04599,-1.7017c0.22996,-1.24178 1.10381,-1.88567 2.62154,-1.93166c0.84318,0 1.3491,0.44459 1.51774,1.33377c0.32194,1.22646 0.5749,1.96999 0.75887,2.23061c0.1993,0.26062 0.48292,0.38326 0.85085,0.36794c0.33727,-0.01533 0.49058,-0.29128 0.45992,-0.82786c-0.01533,-0.5519 -0.3756,-1.15747 -1.08081,-1.81668c-0.22996,-0.29128 -0.46759,-0.51358 -0.71288,-0.66688c-0.22996,-0.16864 -0.44459,-0.34494 -0.64389,-0.52891c0.18397,-0.1993 0.18397,-0.22229 0,-0.06899c-0.58257,-0.45992 -1.31077,-1.21879 -2.18462,-2.2766c-0.85852,-1.05782 -1.31844,-2.08497 -1.37976,-3.08146c-0.12265,-1.73237 0.29895,-3.10446 1.26478,-4.11629zM302.36179,132.93478c-0.01533,-0.38326 -0.07666,-0.64389 -0.18397,-0.78186c-0.10731,-0.1533 -0.26062,-0.23763 -0.45992,-0.25296c0.10731,-0.07666 0.023,0.20696 -0.25296,0.85085c-0.26062,0.62856 -0.4216,1.34144 -0.48292,2.13863c-0.26062,1.22646 -0.39093,2.43758 -0.39093,3.63337c0.03066,1.11914 0.21463,1.93166 0.5519,2.43758c-0.41393,0.29128 -0.68988,0.19164 -0.82786,-0.29895c0.16864,0.30662 0.22996,0.18397 0.18397,-0.36794c1.31844,-2.39158 1.93933,-4.84449 1.86268,-7.35872zM305.1903,140.56945l-1.03482,1.44875c0.29128,0.16864 0.023,0.84318 -0.80486,2.02365c-0.35261,0.73587 -0.9505,1.13447 -1.79369,1.19579c-0.84318,0.06132 -1.61739,-0.01533 -2.3226,-0.22996c-0.91984,-0.30662 -1.63272,-0.69755 -2.13863,-1.1728c-0.50591,-0.47525 -0.98883,-1.22646 -1.44875,-2.25361c-0.44459,-1.02715 -0.67455,-1.878 -0.68988,-2.55256c-0.13798,-0.85852 -0.20696,-1.43342 -0.20696,-1.7247v-0.91984c0,-1.07314 0.05366,-1.7247 0.16097,-1.95466c0.01533,-0.04599 0.06899,-0.26828 0.16097,-0.66688c0.13798,-1.16513 0.48292,-2.28427 1.03482,-3.35742c1.10381,-2.19229 2.3226,-3.31909 3.65637,-3.38041h0.36794c0,0.27595 0.03066,0.28362 0.09198,0.023h0.52891c1.04249,0.09198 1.68638,0.19164 1.93166,0.29895c0.27595,0.06132 0.55957,0.09198 0.85085,0.09198l0.96583,0.20696c0.35261,-0.04599 0.85852,0.03832 1.51774,0.25296c0.67455,0.21463 1.05782,0.42926 1.1498,0.64389c0.10731,0.1993 0.21463,0.56723 0.32194,1.10381c0.12265,0.53658 0.20696,0.92751 0.25296,1.1728c0.04599,0.22996 0.08432,0.46759 0.11498,0.71288c0.1993,1.87034 0.52124,3.59504 0.96583,5.1741c0.04599,0.10731 0.07666,0.24529 0.09198,0.41393c0.03066,0.16864 0.12265,0.47525 0.27595,0.91984c0.16864,0.42926 0.28362,0.79719 0.34494,1.10381c0.07666,0.30662 0.22229,0.70521 0.43692,1.19579c0.13798,0.36794 0.33727,0.78186 0.5979,1.24178c0.98116,1.36443 0.54424,2.39158 -1.31077,3.08146c-0.24529,0.07666 -0.60556,0.11498 -1.08081,0.11498c-0.22996,0 -0.5519,-0.13031 -0.96583,-0.39093c-0.35261,0 -0.67455,-0.16864 -0.96583,-0.50591l-0.27595,-0.09198c-0.04599,-0.32194 -0.1763,-0.38326 -0.39093,-0.18397c-0.29128,-0.27595 -0.63622,-1.44108 -1.03482,-3.49539c0.42926,0.04599 0.64389,0.1993 0.64389,0.45992zM312.32558,129.9453c-0.45992,-1.22646 -0.23763,-2.1233 0.66688,-2.69053c0.44459,-0.26062 0.80486,-0.3756 1.08081,-0.34494c0.29128,0.01533 0.88918,0.16864 1.79369,0.45992c0.27595,0 0.36027,0.21463 0.25296,0.64389c0.13798,-0.38326 0.25296,-0.50591 0.34494,-0.36794c0.64389,-0.07666 0.88918,0.1533 0.73587,0.68988c0.36794,0.30662 0.59023,0.78186 0.66688,1.42575c0.09198,1.04249 -0.04599,1.95466 -0.41393,2.73652c-0.53658,-0.09198 -0.7742,-0.26062 -0.71288,-0.50591c0.53658,-0.61322 0.96583,-0.82786 1.28778,-0.64389c-0.64389,-0.10731 -0.71288,-0.4216 -0.20696,-0.94284c0.16864,-0.53658 0.33727,-0.81253 0.50591,-0.82786c-0.12265,-0.1993 -0.023,-0.48292 0.29895,-0.85085c0.18397,-0.3986 0.36027,-0.67455 0.52891,-0.82786c0.16864,-0.1533 0.28362,-0.26828 0.34494,-0.34494c0.5979,-0.56723 1.3261,-0.78953 2.18462,-0.66688c0.03066,0 0.13031,-0.00767 0.29895,-0.023c0.76654,-0.10731 1.11914,0.06899 1.05782,0.52891c1.24178,-0.27595 1.7477,0.87385 1.51774,3.4494c-0.12265,1.16513 -0.36794,1.86268 -0.73587,2.09264c-0.35261,0.21463 -0.82786,0.3986 -1.42575,0.5519c-0.5979,0.1533 -1.00416,0.27595 -1.21879,0.36794c-0.70521,0.29128 -1.13447,0.68988 -1.28778,1.19579c-0.01533,0.32194 -0.09965,0.65156 -0.25296,0.98883c-0.03066,0.35261 -0.05366,0.55957 -0.06899,0.62089c-0.01533,0.06132 -0.023,0.19164 -0.023,0.39093c0,0.61322 -0.08432,1.16513 -0.25296,1.65571c-0.06132,0.42926 -0.09198,1.18046 -0.09198,2.25361c0.01533,1.07314 -0.023,1.96233 -0.11498,2.66754c-0.09198,0.68988 -0.3756,0.78186 -0.85085,0.27595c0.53658,0.04599 0.80486,0.12265 0.80486,0.22996v0.39093c-0.1533,0.41393 -0.55957,0.93517 -1.21879,1.56373l-0.89684,0.06899c-0.87385,0 -1.31844,-0.16097 -1.33377,-0.48292c-0.41393,0.03066 -0.61322,-0.09965 -0.5979,-0.39093c-0.47525,0.07666 -0.55957,-0.10731 -0.25296,-0.5519c-0.47525,0.22996 -0.7512,0.09965 -0.82786,-0.39093c-0.32194,-0.33727 -0.48292,-0.62856 -0.48292,-0.87385c-0.30662,-1.02715 -0.41393,-1.93933 -0.32194,-2.73652v-2.09264c0.50591,-0.09198 0.53658,-0.13798 0.09198,-0.13798v-0.68988c0.5519,0.09198 0.5749,0.27595 0.06899,0.5519v-1.1728c0.44459,0.13798 0.56723,0.13798 0.36794,0c-0.1993,-0.1533 -0.28362,-0.44459 -0.25296,-0.87385c0.06132,-0.29128 0.023,-1.3031 -0.11498,-3.03547c-0.1533,-0.04599 -0.39093,-0.65156 -0.71288,-1.81668c0,-0.10731 -0.05366,-0.26828 -0.16097,-0.48292v-0.41393c0.26062,-0.16864 0.26062,-0.19164 0,-0.06899c-0.26062,0.12265 -0.28362,-0.06132 -0.06899,-0.5519zM333.05538,130.15226c0.30662,-0.1993 0.4216,-0.1993 0.34494,0c-0.07666,0.18397 -0.13031,0.30662 -0.16097,0.36794c-0.9965,1.57906 -1.5254,3.04314 -1.58672,4.39224c0.09198,0.01533 0.32961,-0.27595 0.71288,-0.87385c0.70521,-2.23828 0.93517,-3.53372 0.68988,-3.88633zM330.6408,146.15748l-0.71288,-0.11498l-0.39093,-0.75887c-0.32194,0.16864 -0.58257,0.06899 -0.78186,-0.29895c-0.26062,-0.30662 -0.81253,-1.01182 -1.65571,-2.11563l-0.64389,-2.41458c0,-0.36794 -0.06132,-0.68221 -0.18397,-0.94284c-0.29128,-1.22646 -0.46759,-1.93933 -0.52891,-2.13863c-0.04599,-0.1993 -0.07666,-0.72054 -0.09198,-1.56373c-0.01533,-0.84318 0.023,-1.47174 0.11498,-1.88567c0.07666,-0.56723 0.5979,-1.91634 1.56373,-4.0473c0.18397,-0.16864 0.29128,-0.41393 0.32194,-0.73587l0.75887,-1.10381c0.67455,-0.78186 1.46408,-1.14213 2.36859,-1.08081c-0.45992,-0.42926 -0.023,-0.80486 1.31077,-1.1268c0.32194,-0.01533 0.85085,0.06132 1.58672,0.22996c1.76302,0.41393 2.90516,0.98116 3.42641,1.7017l0.11498,0.20696c0.58257,0.81253 0.91984,2.05431 1.01182,3.72535c-0.07666,0.68988 -0.14564,1.28011 -0.20696,1.77069c-0.06132,0.47525 -0.3756,1.3491 -0.94284,2.62154c-0.42926,0.81253 -0.86618,1.48707 -1.31077,2.02365c-0.76654,0.5519 -1.28011,0.78953 -1.54073,0.71288c-0.09198,0.13798 -0.3756,0.20696 -0.85085,0.20696h-1.05782c-0.04599,-0.16864 -0.20696,-0.21463 -0.48292,-0.13798c-0.26062,0.06132 -0.40626,0.00767 -0.43692,-0.16097c0.1533,0 0.3756,0.48292 0.66688,1.44875c0.30662,0.96583 0.50591,1.51007 0.5979,1.63272c0.44459,0.32194 0.7742,0.52891 0.98883,0.62089c0.21463,0.09198 0.49824,0.10731 0.85085,0.04599c0.35261,-0.06132 0.59023,-0.1533 0.71288,-0.27595l0.96583,-1.21879c1.04249,-1.41042 2.1233,-1.51007 3.24244,-0.29895c0.50591,0.53658 0.70521,1.05782 0.5979,1.56373c-0.10731,0.49058 -0.41393,1.26478 -0.91984,2.3226c-0.44459,0.70521 -0.94284,1.31844 -1.49474,1.83968c-0.98116,0.52124 -1.60972,0.78186 -1.88567,0.78186c-0.30662,0.01533 -0.64389,-0.01533 -1.01182,-0.09198c-0.26062,0.13798 -1.01182,0.05366 -2.25361,-0.25296c0.47525,-0.41393 0.62089,-0.50591 0.43692,-0.27595c-0.16864,0.22996 -1.08848,0.00767 -2.75952,-0.66688l2.41458,0.04599c-0.04599,0.53658 -0.26828,0.80486 -0.66688,0.80486l-1.10381,-0.5979zM351.86899,128.12861l0.04599,-0.32194c0,-0.10731 0.03066,-0.26062 0.09198,-0.45992c0.07666,-0.1993 0.14564,-0.49824 0.20696,-0.89684c0.56723,-0.16864 0.43692,-0.01533 -0.39093,0.45992c0.38326,-0.84318 0.58257,-1.37976 0.5979,-1.60972c0,-0.42926 0.06899,-0.88918 0.20696,-1.37976c0.13798,-0.50591 0.21463,-0.78186 0.22996,-0.82786c0.06132,-0.91984 0.32194,-1.75536 0.78186,-2.50656c0.22996,-0.26062 0.45225,-0.63622 0.66688,-1.1268c0.1993,-0.70521 0.78186,-1.22646 1.7477,-1.56373l0.5749,-0.45992c0.21463,0 0.46759,-0.03832 0.75887,-0.11498l1.33377,-0.18397h0.45992c1.80902,0 3.16578,0.1993 4.07029,0.5979l0.5979,0.13798l1.21879,0.64389c0.87385,1.45642 0.64389,2.62154 -0.68988,3.49539c-0.53658,0.04599 -1.05782,0.04599 -1.56373,0c-0.49058,-0.06132 -0.82019,-0.09198 -0.98883,-0.09198c-0.65922,-0.04599 -1.20346,0.08432 -1.63272,0.39093c-0.3986,0.1993 -0.9505,0.98116 -1.65571,2.34559c-0.29128,0.5519 -0.49824,1.03482 -0.62089,1.44875c-0.38326,0.93517 -0.5979,1.50241 -0.64389,1.7017c0.03066,0 0.74354,0.03832 2.13863,0.11498c1.41042,0.07666 1.91634,0.36794 1.51774,0.87385c0.93517,-0.13798 1.37209,0.46759 1.31077,1.81668c-0.04599,0.5519 -0.26828,1.05782 -0.66688,1.51774c-0.3986,0.45992 -0.87385,0.63622 -1.42575,0.52891h-0.78186l-1.65571,0.09198c-1.18046,0 -1.77836,-0.04599 -1.79369,-0.13798c-0.21463,1.24178 -0.32194,2.52189 -0.32194,3.84033l0.39093,3.08146v0.32194l0.18397,2.06964c0.12265,0.29128 0.18397,0.56723 0.18397,0.82786l0.023,0.39093c-0.09198,0.01533 -0.08432,0.16097 0.023,0.43692c0.10731,0.27595 0.12265,0.65922 0.04599,1.1498c-0.07666,0.47525 -0.22996,0.85852 -0.45992,1.1498c-0.21463,0.30662 -0.49058,0.48292 -0.82786,0.52891c-0.32194,0.04599 -0.84318,0.08432 -1.56373,0.11498c-0.76654,0.1533 -1.54073,-0.01533 -2.3226,-0.50591c-0.32194,-0.16864 -0.62089,-0.63622 -0.89684,-1.40276c0,0 -0.03832,-0.5749 -0.11498,-1.7247c0.01533,-0.1533 -0.01533,-0.38326 -0.09198,-0.68988c-0.06132,-0.30662 -0.08432,-0.61322 -0.06899,-0.91984l-0.023,-0.94284c-0.1533,-0.58257 -0.16864,-1.16513 -0.04599,-1.7477l-0.04599,-0.25296v-0.32194c0,-0.33727 0.07666,-0.89684 0.22996,-1.67871v-0.62089c0.12265,-0.68988 0.20696,-1.08848 0.25296,-1.19579c0,-0.22996 0.22229,-0.39093 0.66688,-0.48292c-0.53658,0.04599 -0.71288,-0.16864 -0.52891,-0.64389c0.24529,-0.45992 0.36794,-0.81253 0.36794,-1.05782h0.13798c-1.02715,0.09198 -1.68638,0.023 -1.97766,-0.20696c-0.72054,-0.1993 -1.19579,-0.62856 -1.42575,-1.28778l-0.16097,-0.62089c0,-1.3031 0.7282,-1.95466 2.18462,-1.95466l2.16162,-0.22996c0.09198,0 0.08432,0.03066 -0.023,0.09198zM369.63495,138.68378c0,-0.1993 0.05366,-0.36794 0.16097,-0.50591c0.12265,-0.13798 0.1993,-0.22229 0.22996,-0.25296c0,-0.10731 0.13798,-0.7512 0.41393,-1.93166c0.24529,-0.93517 0.55957,-2.06964 0.94284,-3.40341c0.29128,0.09198 0.29895,0.05366 0.023,-0.11498l0.39093,-1.83968c0,-0.98116 0.29128,-1.5714 0.87385,-1.77069c0.3986,-0.3986 0.93517,-0.50591 1.60972,-0.32194c0.68988,0.18397 1.29544,0.51358 1.81668,0.98883c-0.07666,-0.01533 -0.01533,-0.03066 0.18397,-0.04599l1.31077,1.1498c-0.41393,0.29128 -0.5749,0.88152 -0.48292,1.77069c0.09198,0.88918 0.1533,1.44108 0.18397,1.65571v0.71288c0,0.26062 0.01533,0.44459 0.04599,0.5519v0.5979l-0.04599,0.66688c0.10731,0.53658 0.12265,1.31844 0.04599,2.34559v1.35676c-0.29128,0 -0.36027,0.06899 -0.20696,0.20696c0.16864,0.12265 0.26062,0.33727 0.27595,0.64389c-0.27595,0.03066 -0.28362,0.09965 -0.023,0.20696v0.25296c0.06132,0.38326 0.06899,0.64389 0.023,0.78186l0.09198,0.94284c0.07666,0.29128 0.1763,0.78186 0.29895,1.47174c-0.04599,0.1533 -0.04599,0.43692 0,0.85085c-0.33727,0.7512 -0.93517,1.1268 -1.79369,1.1268c-0.65922,-0.06132 -1.11148,-0.25296 -1.35676,-0.5749c-0.10731,0.04599 -0.1993,-0.12265 -0.27595,-0.50591c-0.12265,0.27595 -0.36794,0.32194 -0.73587,0.13798c-0.10731,-0.12265 -0.22996,-0.20696 -0.36794,-0.25296c-0.96583,-1.10381 -1.33377,-2.28427 -1.10381,-3.54139c-0.42926,0.13798 -0.38326,0.06899 0.13798,-0.20696c0.29128,0.68988 0.01533,1.7017 -0.82786,3.03547c-0.24529,0.29128 -0.4216,0.52891 -0.52891,0.71288c-0.10731,0.18397 -0.18397,0.29895 -0.22996,0.34494c-0.35261,0.67455 -1.20346,0.80486 -2.55256,0.39093c-0.32194,-0.10731 -0.52891,-0.16097 -0.62089,-0.16097l-1.40276,-0.39093c-0.65922,-0.33727 -1.06548,-0.81253 -1.21879,-1.42575c-0.1993,0.29128 -0.43692,0.32194 -0.71288,0.09198c-0.26062,-0.24529 -0.41393,-0.45992 -0.45992,-0.64389l-0.34494,-0.52891c-0.36794,-0.33727 -0.69755,-0.90451 -0.98883,-1.7017c-0.01533,-0.35261 -0.05366,-0.64389 -0.11498,-0.87385v-0.32194l-0.023,-0.29895l0.06899,-1.08081l0.39093,-2.48357c0.30662,0.04599 0.34494,-0.03066 0.11498,-0.22996l0.16097,-1.01182c0.10731,-0.1533 0.16097,-0.34494 0.16097,-0.5749c0.16864,-0.06132 0.21463,-0.26062 0.13798,-0.5979c0.10731,-0.09198 0.1533,-0.20696 0.13798,-0.34494c0,-0.13798 0.07666,-0.49824 0.22996,-1.08081c0.13798,-0.24529 0.20696,-0.63622 0.20696,-1.1728c0,-0.53658 0.12265,-1.25711 0.36794,-2.16162c0.81253,-1.08848 1.878,-1.41042 3.19645,-0.96583c0.24529,0 0.5749,0.13798 0.98883,0.41393c0.42926,0.27595 0.76654,0.45992 1.01182,0.5519c0.36794,0.36794 0.66688,0.83552 0.89684,1.40276c-0.42926,0.10731 -0.54424,0.21463 -0.34494,0.32194c-0.79719,2.77485 -1.27245,4.93647 -1.42575,6.48487c-0.01533,0.30662 -0.07666,0.68988 -0.18397,1.1498c-0.09198,0.45992 -0.16864,0.92751 -0.22996,1.40276c-0.12265,0.67455 -0.12265,1.01182 0,1.01182c0.10731,0.01533 0.20696,0.03832 0.29895,0.06899c0.10731,0.01533 0.09965,-0.03832 -0.023,-0.16097c0.76654,-1.48707 1.16513,-2.26128 1.19579,-2.3226zM381.29372,123.13848l0.27595,-2.3226l0.04599,-1.1728c0,-0.49058 0.10731,-0.89684 0.32194,-1.21879l0.45992,-0.64389c0.84318,-0.65922 1.42575,-1.04249 1.7477,-1.1498c0.33727,-0.12265 0.78186,-0.12265 1.33377,0c0.56723,0.12265 0.93517,0.26828 1.10381,0.43692l0.32194,0.27595c0.47525,0.27595 0.71288,0.62089 0.71288,1.03482c0.22996,0.30662 0.22229,0.66688 -0.023,1.08081c-0.09198,0.10731 -0.30662,1.51774 -0.64389,4.23127l-0.32194,5.35807l-0.18397,1.03482c0,0.22996 0.00767,0.3756 0.023,0.43692v0.80486c-0.06132,0.67455 -0.11498,1.05782 -0.16097,1.1498c0,0.09198 -0.22996,0.16097 -0.68988,0.20696c0.45992,-0.13798 0.68988,0.07666 0.68988,0.64389c0,0.56723 -0.16097,0.85085 -0.48292,0.85085c0.1993,0.32194 0.29895,0.65156 0.29895,0.98883c0,0.33727 0.03066,0.71288 0.09198,1.1268c0.06132,0.41393 0.08432,0.82786 0.06899,1.24178l0.16097,1.47174v0.5749c0.04599,0.47525 0.06899,0.85852 0.06899,1.1498l0.20696,1.97766l0.13798,1.03482c0.09198,0.56723 0.03832,1.1498 -0.16097,1.7477c-0.1993,0.61322 -0.55957,1.01949 -1.08081,1.21879c-1.10381,0.44459 -2.18462,0.23763 -3.24244,-0.62089h-0.41393c-0.42926,-0.49058 -0.67455,-0.86618 -0.73587,-1.1268c-0.32194,-0.1533 -0.46759,-0.40626 -0.43692,-0.75887c0.03066,-0.35261 -0.01533,-0.62856 -0.13798,-0.82786c-0.12265,-0.1993 -0.18397,-0.45225 -0.18397,-0.75887c0,-0.29128 -0.023,-0.58257 -0.06899,-0.87385l0.50591,-0.20696c-0.3986,0.07666 -0.5979,-0.06899 -0.5979,-0.43692l-0.06899,-0.71288v-0.36794c0,-0.1533 -0.01533,-0.29895 -0.04599,-0.43692c-0.01533,-0.13798 0.1763,-0.25296 0.5749,-0.34494c-0.3986,0.04599 -0.55957,-0.36794 -0.48292,-1.24178c0.1533,-1.97766 0.22996,-3.34975 0.22996,-4.11629l0.04599,-0.94284v-1.10381c0.01533,-0.64389 0.03066,-1.50241 0.04599,-2.57555c0.01533,-1.08848 0.21463,-1.59439 0.5979,-1.51774l-0.50591,-0.18397c0,-0.70521 0.09965,-1.60205 0.29895,-2.69053c0.1993,-1.08848 0.29895,-1.66338 0.29895,-1.7247zM390.36423,123.5524c0.06132,-0.18397 0.07666,-0.36027 0.04599,-0.52891c-0.01533,-0.18397 0.01533,-0.78186 0.09198,-1.79369c0.09198,-0.16864 0.09965,-0.52891 0.023,-1.08081c0,-0.5979 0.19164,-1.16513 0.5749,-1.7017c0.3986,-0.5519 1.23412,-1.20346 2.50656,-1.95466l-0.78186,1.40276c-0.16864,-0.58257 0.023,-0.91984 0.5749,-1.01182c1.24178,-0.16864 2.23828,0.3756 2.98948,1.63272c-0.1993,0.32194 -0.29895,0.91217 -0.29895,1.77069v3.97831c0.03066,0.65922 0.04599,1.55606 0.04599,2.69053v1.47174l0.13798,2.55256c0,0.65922 0.03832,1.3261 0.11498,2.00065c0,1.24178 0.023,2.00065 0.06899,2.2766c0.06132,0.26062 0.09198,0.45992 0.09198,0.5979v0.64389c0,0.50591 0.03066,0.88918 0.09198,1.1498c0,0.21463 0.07666,0.50591 0.22996,0.87385c-0.13798,0.44459 -0.16864,0.82019 -0.09198,1.1268c0.18397,0.41393 0.24529,0.85085 0.18397,1.31077c0.16864,0.30662 0.22229,0.73587 0.16097,1.28778l0.04599,0.09198l0.11498,0.39093c0.1533,0.52124 0.08432,1.11914 -0.20696,1.79369c-0.27595,0.65922 -0.85085,1.11148 -1.7247,1.35676c-0.85852,0.24529 -1.82435,-0.16864 -2.8975,-1.24178c0.32194,-0.22996 0.29128,-0.24529 -0.09198,-0.04599c-0.52124,-0.30662 -0.89684,-1.05782 -1.1268,-2.25361c-0.16864,-0.30662 -0.25296,-0.54424 -0.25296,-0.71288c-0.29128,-0.22996 -0.43692,-0.71288 -0.43692,-1.44875v-0.85085c-0.01533,-0.22996 -0.01533,-0.33727 0,-0.32194c-0.16864,-0.1993 -0.28362,-0.62089 -0.34494,-1.26478l0.06899,-2.66754c0,-0.82786 -0.023,-1.47941 -0.06899,-1.95466v-2.66754c-0.07666,-0.85852 -0.11498,-1.53306 -0.11498,-2.02365c0,-0.49058 0.09198,-1.42575 0.27595,-2.80551c0,0.03066 -0.04599,-0.06899 -0.13798,-0.29895c0.09198,-0.50591 0.13798,-1.09614 0.13798,-1.77069z" data-paper-data="{&quot;origPos&quot;:null}" stroke="none" stroke-linecap="square"/><text transform="translate(108.4388,175.24296) scale(0.364,0.364)" font-size="40" xml:space="preserve" data-paper-data="{&quot;origPos&quot;:null}" fill="#b37f7f" fill-rule="nonzero" stroke="#b37f7f" stroke-width="1" stroke-linecap="butt" stroke-linejoin="miter" stroke-miterlimit="10" stroke-dasharray="" stroke-dashoffset="0" font-family="Sans Serif" font-weight="normal" text-anchor="start" style="mix-blend-mode: normal"><tspan x="0" dy="0">You are playing in singleplayer mode</tspan></text></g></g></svg>