<svg version="1.1" xmlns="http://www.w3.org/2000/svg" xmlns:xlink="http://www.w3.org/1999/xlink" width="445.63369" height="419.34368"><g transform="translate(0.50326,-204.93733)"><g data-paper-data="{&quot;isPaintingLayer&quot;:true}" fill="none" fill-rule="nonzero" stroke="none" stroke-width="none" stroke-linecap="butt" stroke-linejoin="miter" stroke-miterlimit="10" stroke-dasharray="" stroke-dashoffset="0" font-family="none" font-weight="none" font-size="none" text-anchor="none" style="mix-blend-mode: normal"><path d="M24.86829,463.26267c0.11242,-19.97236 0.29241,-39.94419 0.45348,-59.91708c0.16739,-20.75548 -1.30483,-42.0693 1.69526,-62.64009c1.78269,-13.07311 3.14722,-26.31696 4.98359,-39.44284h130.16483c-0.16577,10.79083 -0.15515,21.58275 0.21298,32.38135c1.47246,43.19223 3.1571,86.40158 3.93845,129.61865z" data-paper-data="{&quot;origPos&quot;:null,&quot;index&quot;:null}" fill="#dbc19c" stroke="#b39d7f" stroke-width="10"/><path d="M24.86829,463.26267c0.11242,-19.97236 0.29241,-39.94419 0.45348,-59.91708c0.16739,-20.75548 -1.30483,-42.0693 1.69526,-62.64009c1.78269,-13.07311 3.14722,-26.31696 4.98359,-39.44284h130.16483c-0.16577,10.79083 -0.15515,21.58275 0.21298,32.38135c1.47246,43.19223 3.1571,86.40158 3.93845,129.61865z" data-paper-data="{&quot;origPos&quot;:null,&quot;index&quot;:null}" fill="#a4cf93" stroke="#6f8368" stroke-width="10"/><path d="M30.89138,307.59599c0.14159,-1.11158 0.28521,-2.22274 0.43139,-3.33333h130.77916c-0.01101,1.11109 -0.01986,2.2222 -0.02634,3.33333z" data-paper-data="{&quot;origPos&quot;:null,&quot;index&quot;:null}" fill="#65815b" stroke="none" stroke-width="0"/><path d="M24.92323,454.26267c0.11112,-16.97225 0.26167,-33.94428 0.39854,-50.91708c0.16739,-20.75548 -1.30483,-42.0693 1.69526,-62.64009c0.15632,-1.14637 0.30943,-2.29404 0.45992,-3.44284h135.02531c1.33904,38.98856 2.82558,77.99088 3.63922,117z" data-paper-data="{&quot;origPos&quot;:null,&quot;index&quot;:null}" fill="#9dc78d" stroke="none" stroke-width="0"/><path d="M24.77606,485.26267c0.06992,-27.3064 0.32549,-54.61076 0.5457,-81.91708c0.09352,-11.59568 -0.32473,-23.36563 -0.18895,-35.08292h138.44983c1.35943,38.9904 2.64897,77.99271 3.04851,117z" data-paper-data="{&quot;origPos&quot;:null,&quot;index&quot;:null}" fill="#97be87" stroke="none" stroke-width="0"/><g data-paper-data="{&quot;origPos&quot;:null}" stroke="none" stroke-width="0"><path d="M16.77582,439.77602l-10.69057,-149.61116l21.37334,9.95176l14.96326,-14.93981l16.19861,1.23411l10.69057,149.61116z" data-paper-data="{&quot;origPos&quot;:null,&quot;origRot&quot;:0}" fill="#696053"/><path d="M27.45857,300.11662l14.96328,-14.93981l16.19861,1.23411l10.69057,149.61116z" data-paper-data="{&quot;origPos&quot;:null,&quot;origRot&quot;:0}" fill="#696053"/><path d="M10.18731,433.7294l-10.69057,-149.61116l21.37334,9.95176l14.96328,-14.93981l16.19861,1.23411l10.69057,149.61117z" data-paper-data="{&quot;origPos&quot;:null,&quot;origRot&quot;:0}" fill="#8b7f6e"/><path d="M20.87007,294.07001l14.96328,-14.93983l16.19861,1.23411l10.69057,149.61117z" data-paper-data="{&quot;origPos&quot;:null,&quot;origRot&quot;:0}" fill="#817666"/><path d="M25.93568,551.06826l-10.69057,-149.61116l21.37334,9.95176l14.96326,-14.93981l16.19861,1.23411l10.69057,149.61116z" data-paper-data="{&quot;origPos&quot;:null,&quot;origRot&quot;:0}" fill="#696053"/><path d="M36.61843,411.40886l14.96328,-14.93981l16.19861,1.23411l10.69057,149.61116z" data-paper-data="{&quot;origPos&quot;:null,&quot;origRot&quot;:0}" fill="#696053"/><path d="M18.20218,546.16662l-10.69057,-149.61116l21.37334,9.95176l14.96328,-14.93981l16.19861,1.23411l10.69057,149.61117z" data-paper-data="{&quot;origPos&quot;:null,&quot;origRot&quot;:0}" fill="#8b7f6e"/></g><g data-paper-data="{&quot;origPos&quot;:null}" stroke="none" stroke-width="0"><path d="M134.49674,398.78964l9.33689,-130.66684l14.14748,-1.07784l13.06856,13.04808l18.66697,-8.69163l-9.33689,130.66684z" data-paper-data="{&quot;origPos&quot;:null,&quot;origRot&quot;:0}" fill="#696053"/><path d="M134.49675,398.78964l9.33689,-130.66684l14.14748,-1.07784l13.06857,13.04808z" data-paper-data="{&quot;origPos&quot;:null,&quot;origRot&quot;:0}" fill="#696053"/><path d="M140.25098,393.50867l9.33689,-130.66685l14.14748,-1.07784l13.06857,13.04808l18.66697,-8.69163l-9.33689,130.66684z" data-paper-data="{&quot;origPos&quot;:null,&quot;origRot&quot;:0}" fill="#8b7f6e"/><path d="M140.25099,393.50867l9.33689,-130.66685l14.14748,-1.07784l13.06857,13.04809z" data-paper-data="{&quot;origPos&quot;:null,&quot;origRot&quot;:0}" fill="#817666"/><path d="M126.49674,495.98964l9.33689,-130.66684l14.14748,-1.07784l13.06856,13.04808l18.66697,-8.69163l-9.33689,130.66684z" data-paper-data="{&quot;origPos&quot;:null,&quot;origRot&quot;:0}" fill="#696053"/><path d="M126.49675,495.98964l9.33689,-130.66684l14.14748,-1.07784l13.06857,13.04808z" data-paper-data="{&quot;origPos&quot;:null,&quot;origRot&quot;:0}" fill="#696053"/><path d="M133.25098,491.70867l9.33689,-130.66685l14.14748,-1.07784l13.06857,13.04808l18.66697,-8.69163l-9.33689,130.66684z" data-paper-data="{&quot;origPos&quot;:null,&quot;origRot&quot;:0}" fill="#8b7f6e"/></g><path d="M91,323.8c0,-2.76142 2.23858,-5 5,-5c2.76142,0 5,2.23858 5,5c0,2.76142 -2.23858,5 -5,5c-2.76142,0 -5,-2.23858 -5,-5z" fill="#9dc78d" stroke="none" stroke-width="0.5"/><g data-paper-data="{&quot;origPos&quot;:null}"><path d="M281.3103,403.26266c0.78135,-43.21707 2.46599,-86.42642 3.93845,-129.61865c0.36813,-10.7986 0.37875,-21.59052 0.21298,-32.38135h130.16483c1.83637,13.12588 3.2009,26.36973 4.98359,39.44284c3.00009,20.57079 1.52787,41.88461 1.69526,62.64009c0.16107,19.97289 0.34106,39.94472 0.45348,59.91708z" data-paper-data="{&quot;origPos&quot;:null}" fill="#dbc19c" stroke="#b39d7f" stroke-width="10"/><path d="M281.3103,403.26266c0.78135,-43.21707 2.46599,-86.42642 3.93845,-129.61865c0.36813,-10.7986 0.37875,-21.59052 0.21298,-32.38135h130.16483c1.83637,13.12588 3.2009,26.36973 4.98359,39.44284c3.00009,20.57079 1.52787,41.88461 1.69526,62.64009c0.16107,19.97289 0.34106,39.94472 0.45348,59.91708z" data-paper-data="{&quot;origPos&quot;:null}" fill="#a4cf93" stroke="#6f8368" stroke-width="10"/><path d="M285.55159,249.59599c-0.00648,-1.11113 -0.01533,-2.22224 -0.02634,-3.33333h130.77916c0.14618,1.11059 0.2898,2.22175 0.43139,3.33333z" data-paper-data="{&quot;origPos&quot;:null}" fill="#65815b" stroke="none" stroke-width="0"/><path d="M281.4857,394.26266c0.81364,-39.00912 2.30018,-78.01144 3.63922,-117h135.02531c0.15049,1.1488 0.3036,2.29647 0.45992,3.44284c3.00009,20.57079 1.52787,41.88461 1.69526,62.64009c0.13687,16.9728 0.28742,33.94483 0.39854,50.91708z" data-paper-data="{&quot;origPos&quot;:null}" fill="#9dc78d" stroke="none" stroke-width="0"/><path d="M284.99602,546.46267c0.39954,-69.0129 1.68908,-138.01699 3.04851,-207h138.44983c0.13578,20.73059 -0.28247,41.55435 -0.18895,62.06978c0.22021,48.31119 0.47578,96.61889 0.5457,144.93022z" data-paper-data="{&quot;origPos&quot;:null}" fill="#97be87" stroke="none" stroke-width="0"/><g data-paper-data="{&quot;origPos&quot;:null,&quot;index&quot;:null,&quot;origRot&quot;:0}" stroke="none" stroke-width="0"><path d="M403.75271,205.17317c0,0 12.60181,11.86187 12.67039,21.25116c0.04895,6.70123 -12.36924,19.9788 -12.36924,19.9788z" fill="#8eb480"/><path d="M404.2268,246.54158c0,0 -12.60181,-11.86187 -12.67039,-21.25116c-0.04895,-6.70123 12.36924,-19.9788 12.36924,-19.9788z" data-paper-data="{&quot;index&quot;:null,&quot;origPos&quot;:null}" fill="#9dc78d"/></g><g data-paper-data="{&quot;origPos&quot;:null,&quot;origRot&quot;:0}" fill="#696053" stroke="none" stroke-width="0"><path d="M279.58788,364.66826l-9.33689,-130.66684l18.66697,8.69163l13.06856,-13.04808l14.14748,1.07784l9.33689,130.66684z" data-paper-data="{&quot;origPos&quot;:null,&quot;origRot&quot;:0}"/><path d="M288.91794,242.69305l13.06857,-13.04808l14.14748,1.07784l9.33689,130.66684z" data-paper-data="{&quot;origPos&quot;:null,&quot;origRot&quot;:0}"/></g><g data-paper-data="{&quot;origPos&quot;:null,&quot;origRot&quot;:0}" stroke="none" stroke-width="0"><path d="M273.83363,359.38728l-9.33689,-130.66684l18.66697,8.69163l13.06857,-13.04808l14.14748,1.07784l9.33689,130.66685z" data-paper-data="{&quot;origPos&quot;:null,&quot;origRot&quot;:0}" fill="#8b7f6e"/><path d="M283.1637,237.41208l13.06857,-13.04809l14.14748,1.07784l9.33689,130.66685z" data-paper-data="{&quot;origPos&quot;:null,&quot;origRot&quot;:0}" fill="#817666"/></g><g data-paper-data="{&quot;origPos&quot;:null,&quot;origRot&quot;:0,&quot;index&quot;:null}" fill="#696053" stroke="none" stroke-width="0"><path d="M385.1109,367.5439l7.22523,-150.34896l20.10709,12.4698l16.69447,-13.09795l15.99272,3.16526l-7.22523,150.34896z" data-paper-data="{&quot;origPos&quot;:null,&quot;origRot&quot;:0}"/><path d="M412.44324,229.66474l16.69447,-13.09795l15.99272,3.16525l-7.22523,150.34896z" data-paper-data="{&quot;origPos&quot;:null,&quot;origRot&quot;:0}"/></g><g data-paper-data="{&quot;origPos&quot;:null,&quot;origRot&quot;:0,&quot;index&quot;:null}" stroke="none" stroke-width="0"><path d="M377.84249,355.91444l7.22523,-150.34896l20.10709,12.4698l16.69447,-13.09795l15.99272,3.16526l-7.22523,150.34896z" data-paper-data="{&quot;origPos&quot;:null,&quot;origRot&quot;:0}" fill="#8b7f6e"/><path d="M405.17483,218.03529l16.69447,-13.09795l15.99272,3.16525l-7.22523,150.34896z" data-paper-data="{&quot;origPos&quot;:null,&quot;origRot&quot;:0}" fill="#817666"/></g><g data-paper-data="{&quot;origPos&quot;:null,&quot;origRot&quot;:0}" fill="#696053" stroke="none" stroke-width="0"><path d="M286.58788,461.86826l-9.33689,-130.66684l18.66697,8.69163l13.06856,-13.04808l14.14748,1.07784l9.33689,130.66684z" data-paper-data="{&quot;origPos&quot;:null,&quot;origRot&quot;:0}"/><path d="M295.91794,339.89305l13.06857,-13.04808l14.14748,1.07784l9.33689,130.66684z" data-paper-data="{&quot;origPos&quot;:null,&quot;origRot&quot;:0}"/></g><path d="M280.83363,457.58728l-9.33689,-130.66684l18.66697,8.69163l13.06857,-13.04808l14.14748,1.07784l9.33689,130.66685z" data-paper-data="{&quot;origPos&quot;:null,&quot;origRot&quot;:0}" fill="#8b7f6e" stroke="none" stroke-width="0"/><g data-paper-data="{&quot;origPos&quot;:null,&quot;origRot&quot;:0,&quot;index&quot;:null}" fill="#696053" stroke="none" stroke-width="0"><path d="M378.77757,499.7439l7.22523,-150.34896l20.10709,12.4698l16.69447,-13.09795l15.99272,3.16526l-7.22523,150.34896z" data-paper-data="{&quot;origPos&quot;:null,&quot;origRot&quot;:0}"/><path d="M406.10991,361.86474l16.69447,-13.09795l15.99272,3.16525l-7.22523,150.34896z" data-paper-data="{&quot;origPos&quot;:null,&quot;origRot&quot;:0}"/></g><path d="M371.50916,488.11444l7.22523,-150.34896l20.10709,12.4698l16.69447,-13.09795l15.99272,3.16526l-7.22523,150.34896z" data-paper-data="{&quot;origPos&quot;:null,&quot;origRot&quot;:0}" fill="#8b7f6e" stroke="none" stroke-width="0"/><path d="M343,260.8c0,-2.76142 2.23858,-5 5,-5c2.76142,0 5,2.23858 5,5c0,2.76142 -2.23858,5 -5,5c-2.76142,0 -5,-2.23858 -5,-5z" data-paper-data="{&quot;origPos&quot;:null}" fill="#9dc78d" stroke="none" stroke-width="0.5"/><g data-paper-data="{&quot;origPos&quot;:null,&quot;origRot&quot;:0}" fill="#696053" stroke="none" stroke-width="0"><path d="M293.83788,564.61826l-9.33689,-130.66684l18.66697,8.69163l13.06856,-13.04808l14.14748,1.07784l9.33689,130.66684z" data-paper-data="{&quot;origPos&quot;:null,&quot;origRot&quot;:0}"/><path d="M303.16794,442.64305l13.06857,-13.04808l14.14748,1.07784l9.33689,130.66684z" data-paper-data="{&quot;origPos&quot;:null,&quot;origRot&quot;:0}"/></g><path d="M288.08363,560.33728l-9.33689,-130.66684l18.66697,8.69163l13.06857,-13.04808l14.14748,1.07784l9.33689,130.66685z" data-paper-data="{&quot;origPos&quot;:null,&quot;origRot&quot;:0}" fill="#8b7f6e" stroke="none" stroke-width="0"/><g data-paper-data="{&quot;origPos&quot;:null,&quot;origRot&quot;:0,&quot;index&quot;:null}" fill="#696053" stroke="none" stroke-width="0"><path d="M372.77757,621.7439l7.22523,-150.34896l20.10709,12.4698l16.69447,-13.09795l15.99272,3.16526l-7.22523,150.34896z" data-paper-data="{&quot;origPos&quot;:null,&quot;origRot&quot;:0}"/><path d="M400.10991,483.86474l16.69447,-13.09795l15.99272,3.16525l-7.22523,150.34896z" data-paper-data="{&quot;origPos&quot;:null,&quot;origRot&quot;:0}"/></g><path d="M365.50916,610.11444l7.22523,-150.34896l20.10709,12.4698l16.69447,-13.09795l15.99272,3.16526l-7.22523,150.34896z" data-paper-data="{&quot;origPos&quot;:null,&quot;origRot&quot;:0}" fill="#8b7f6e" stroke="none" stroke-width="0"/></g></g></g></svg>