<svg version="1.1" xmlns="http://www.w3.org/2000/svg" xmlns:xlink="http://www.w3.org/1999/xlink" width="620.33127" height="484.87728"><defs><linearGradient x1="457.33129" y1="158.31115" x2="457.33129" y2="357.14865" gradientUnits="userSpaceOnUse" id="color-1"><stop offset="0" stop-color="#5c78bd" stop-opacity="0"/><stop offset="1" stop-color="#5c78bd"/></linearGradient><linearGradient x1="466.33129" y1="156.31115" x2="466.33129" y2="355.14865" gradientUnits="userSpaceOnUse" id="color-2"><stop offset="0" stop-color="#5c78bd" stop-opacity="0"/><stop offset="1" stop-color="#5c78bd"/></linearGradient><linearGradient x1="475.33129" y1="355.14865" x2="475.33129" y2="156.31115" gradientUnits="userSpaceOnUse" id="color-3"><stop offset="0" stop-color="#5c78bd"/><stop offset="1" stop-color="#5c78bd" stop-opacity="0"/></linearGradient></defs><g transform="translate(110.49998,101.87725)"><g data-paper-data="{&quot;isPaintingLayer&quot;:true}" fill="none" fill-rule="nonzero" stroke="none" stroke-width="none" stroke-linecap="none" stroke-linejoin="none" stroke-miterlimit="10" stroke-dasharray="" stroke-dashoffset="0" font-family="none" font-weight="none" font-size="none" text-anchor="none" style="mix-blend-mode: normal"><g data-paper-data="{&quot;origPos&quot;:null}" stroke="none" stroke-width="0" stroke-linecap="butt" stroke-linejoin="miter"><g data-paper-data="{&quot;origPos&quot;:null}"><path d="M113.17484,14.47522l-4.22689,-29.32403l14.66201,-2.11344l4.22689,29.32403z" data-paper-data="{&quot;origPos&quot;:null,&quot;origRot&quot;:0}" fill="#c7c7c7"/><path d="M98.45647,-6.50452l-2.66413,-18.48241l37.16538,-5.93375l11.21283,8.39353l-8.5487,10.08888z" data-paper-data="{&quot;origPos&quot;:null,&quot;origRot&quot;:0}" fill="#b6b6b6"/></g><path d="M121.4365,-15.55224c0,0 -0.54399,-5.5692 -1.0517,-8.73494c-0.31911,-1.98971 -1.06692,-4.47527 -1.06692,-4.47527l4.11261,-0.62312c0,0 -0.90371,3.9619 -1.32259,6.73702c-0.3593,2.38034 -0.6714,7.09631 -0.6714,7.09631z" data-paper-data="{&quot;origPos&quot;:null}" fill="#838383"/><path d="M129.64521,-25.05224c0,0 0.54399,5.5692 1.0517,8.73494c0.3191,1.98971 1.06691,4.47527 1.06691,4.47527l-4.11261,0.62312c0,0 0.90371,-3.9619 1.32259,-6.73701c0.3593,-2.38034 0.6714,-7.09632 0.6714,-7.09632z" data-paper-data="{&quot;origPos&quot;:null,&quot;index&quot;:null}" fill="#838383"/><path d="M104.0452,-21.05224c0,0 0.54398,5.56919 1.0517,8.73493c0.3191,1.98971 1.06691,4.47527 1.06691,4.47527l-4.11261,0.62312c0,0 0.9037,-3.9619 1.32259,-6.73701c0.3593,-2.38034 0.67141,-7.09631 0.67141,-7.09631z" data-paper-data="{&quot;origPos&quot;:null,&quot;index&quot;:null}" fill="#838383"/></g><g data-paper-data="{&quot;origPos&quot;:null,&quot;index&quot;:null}" stroke-linejoin="miter"><path d="M274.7802,-9.69708h12.92727" data-paper-data="{&quot;origPos&quot;:null,&quot;index&quot;:null}" fill="none" stroke="#88ac7a" stroke-width="15" stroke-linecap="round"/><g data-paper-data="{&quot;origPos&quot;:null}"><path d="M296.41148,-28.12701h11.41784" data-paper-data="{&quot;origPos&quot;:null,&quot;index&quot;:null}" fill="none" stroke="#88ac7a" stroke-width="17" stroke-linecap="round"/><path d="M309.94211,-61.4199l-0.47575,32.92702" data-paper-data="{&quot;origPos&quot;:null,&quot;index&quot;:null}" fill="none" stroke="#94bc85" stroke-width="17" stroke-linecap="round"/><path d="M292.00677,-55.87981l-1.56143,75.67989" data-paper-data="{&quot;origPos&quot;:null,&quot;index&quot;:null}" fill="none" stroke="#9dc78d" stroke-width="15" stroke-linecap="round"/><path d="M282.69142,37.59491l2.78018,-93.8c0,0 0.28058,-3.96283 2.08386,-5.34716c1.50139,-1.15257 4.40322,-1.85284 4.40322,-1.85284c0,0 -3.66584,21.37475 -2.36525,30.39771c4.101,28.45098 1.80921,61.80229 1.80921,61.80229z" data-paper-data="{&quot;origPos&quot;:null}" fill="#97be87" stroke="none" stroke-width="0" stroke-linecap="butt"/><path d="M272.76807,-45.32224l-0.76805,32.92702" data-paper-data="{&quot;origPos&quot;:null,&quot;index&quot;:null}" fill="none" stroke="#94bc85" stroke-width="17" stroke-linecap="round"/></g></g><g data-paper-data="{&quot;origPos&quot;:null}" fill="#696053" stroke="none" stroke-width="0" stroke-linecap="butt" stroke-linejoin="miter"><path d="M193.07167,39.06205l-15.56964,-130.07147l19.06094,7.78978l12.43019,-13.65761l14.18282,0.40063l15.56964,130.07147z" data-paper-data="{&quot;origPos&quot;:null,&quot;origRot&quot;:0}"/><path d="M196.56296,-83.21963l12.43019,-13.65761l14.18282,0.40063l15.56964,130.07147z" data-paper-data="{&quot;origPos&quot;:null,&quot;origRot&quot;:0}"/></g><g data-paper-data="{&quot;origPos&quot;:null}" stroke="none" stroke-width="0" stroke-linecap="butt" stroke-linejoin="miter"><path d="M187.07167,34.06205l-15.56964,-130.07147l19.06094,7.78978l12.43019,-13.65761l14.18282,0.40063l15.56964,130.07147z" data-paper-data="{&quot;origPos&quot;:null,&quot;origRot&quot;:0}" fill="#8b7f6e"/><path d="M190.56296,-88.21963l12.43019,-13.65761l14.18282,0.40063l15.56964,130.07147z" data-paper-data="{&quot;origPos&quot;:null,&quot;origRot&quot;:0}" fill="#817666"/></g><g data-paper-data="{&quot;origPos&quot;:null}" stroke="none" stroke-width="0" stroke-linecap="butt" stroke-linejoin="miter"><path d="M127.60397,30.22909c0,0 7.70017,-18.55846 12.53502,-22.46235c10.92974,-8.8252 16.7308,-1.99238 29.77877,-7.19753c10.66408,-4.25416 21.45243,-1.94407 32.93373,-1.94407c9.78877,0 18.56105,31.60396 18.56105,31.60396z" data-paper-data="{&quot;index&quot;:null,&quot;origPos&quot;:null}" fill="#dbcfbd"/><path d="M107.53797,20.19612c0,0 7.70016,-18.55846 12.53501,-22.46235c10.92974,-8.8252 16.7308,-1.99239 29.77877,-7.19754c10.66408,-4.25416 21.45243,-1.94407 32.93374,-1.94407c9.78877,0 18.56106,31.60396 18.56106,31.60396z" data-paper-data="{&quot;origPos&quot;:null,&quot;index&quot;:null}" fill="#d1c0a6"/><path d="M116.06602,39.25881c0,0 7.70016,-18.55846 12.53502,-22.46235c10.92974,-8.8252 16.7308,-1.99239 29.77877,-7.19754c10.66408,-4.25416 21.45243,-1.94407 32.93373,-1.94407c9.78877,0 18.56106,31.60396 18.56106,31.60396z" data-paper-data="{&quot;origPos&quot;:null,&quot;index&quot;:null}" fill="#dbcfbd"/><path d="M96,29.22582c0,0 7.70016,-18.55847 12.53502,-22.46235c10.92974,-8.8252 16.7308,-1.99239 29.77878,-7.19754c10.66408,-4.25416 21.45242,-1.94407 32.93373,-1.94407c9.78877,0 18.56106,31.60397 18.56106,31.60397z" data-paper-data="{&quot;origPos&quot;:null,&quot;index&quot;:null}" fill="#d1c0a6"/><path d="M116.56767,33.23899c0,0 8.77229,-31.60396 18.56106,-31.60396c11.48131,0 22.26966,-2.31008 32.93373,1.94408c13.04798,5.20515 18.84904,-1.62767 29.77877,7.19753c4.83486,3.90389 12.53502,22.46236 12.53502,22.46236z" data-paper-data="{&quot;origPos&quot;:null}" fill="#dbcfbd"/><path d="M142.65348,28.22251c0,0 8.77229,-31.60396 18.56106,-31.60396c11.48131,0 22.26966,-2.31009 32.93374,1.94407c13.04798,5.20515 18.84904,-1.62766 29.77877,7.19754c4.83486,3.90389 12.53501,22.46235 12.53501,22.46235z" data-paper-data="{&quot;origPos&quot;:null}" fill="#d1c0a6"/><path d="M138.64028,51.80008c0,0 8.77229,-31.60396 18.56106,-31.60396c11.48131,0 22.26965,-2.31009 32.93373,1.94407c13.04798,5.20515 18.84904,-1.62766 29.77877,7.19753c4.83486,3.90389 12.53502,22.46235 12.53502,22.46235z" data-paper-data="{&quot;origPos&quot;:null}" fill="#dbcfbd"/><path d="M154.19143,37.25219c0,0 8.77229,-31.60396 18.56106,-31.60396c11.48131,0 22.26965,-2.31009 32.93373,1.94407c13.04798,5.20515 18.84904,-1.62766 29.77878,7.19754c4.83486,3.90389 12.53502,22.46235 12.53502,22.46235z" data-paper-data="{&quot;origPos&quot;:null}" fill="#d1c0a6"/></g><g data-paper-data="{&quot;origPos&quot;:null}" stroke="none" stroke-width="0" stroke-linecap="butt" stroke-linejoin="miter"><path d="M232.60397,41.22909c0,0 7.70017,-18.55846 12.53502,-22.46235c10.92974,-8.8252 16.7308,-1.99238 29.77877,-7.19753c10.66408,-4.25416 21.45243,-1.94407 32.93373,-1.94407c9.78877,0 18.56105,31.60396 18.56105,31.60396z" data-paper-data="{&quot;index&quot;:null,&quot;origPos&quot;:null}" fill="#dbcfbd"/><path d="M212.53797,31.19611c0,0 7.70016,-18.55846 12.53501,-22.46235c10.92974,-8.8252 16.7308,-1.99239 29.77877,-7.19754c10.66408,-4.25416 21.45243,-1.94407 32.93374,-1.94407c9.78877,0 18.56106,31.60396 18.56106,31.60396z" data-paper-data="{&quot;origPos&quot;:null,&quot;index&quot;:null}" fill="#d1c0a6"/><path d="M221.06602,50.25881c0,0 7.70016,-18.55846 12.53502,-22.46235c10.92974,-8.8252 16.7308,-1.99239 29.77877,-7.19754c10.66408,-4.25416 21.45243,-1.94407 32.93373,-1.94407c9.78877,0 18.56106,31.60396 18.56106,31.60396z" data-paper-data="{&quot;origPos&quot;:null,&quot;index&quot;:null}" fill="#dbcfbd"/><path d="M201.00001,40.22582c0,0 7.70016,-18.55847 12.53502,-22.46235c10.92974,-8.8252 16.7308,-1.99239 29.77878,-7.19754c10.66408,-4.25416 21.45242,-1.94407 32.93373,-1.94407c9.78877,0 18.56106,31.60397 18.56106,31.60397z" data-paper-data="{&quot;origPos&quot;:null,&quot;index&quot;:null}" fill="#d1c0a6"/><path d="M221.56766,44.239c0,0 8.77229,-31.60396 18.56106,-31.60396c11.48131,0 22.26966,-2.31008 32.93373,1.94408c13.04798,5.20515 18.84904,-1.62767 29.77877,7.19753c4.83486,3.90389 12.53502,22.46236 12.53502,22.46236z" data-paper-data="{&quot;origPos&quot;:null}" fill="#dbcfbd"/><path d="M247.65348,39.22252c0,0 8.77229,-31.60396 18.56106,-31.60396c11.48131,0 22.26966,-2.31009 32.93374,1.94407c13.04798,5.20515 18.84904,-1.62766 29.77877,7.19754c4.83486,3.90389 12.53501,22.46235 12.53501,22.46235z" data-paper-data="{&quot;origPos&quot;:null}" fill="#d1c0a6"/><path d="M243.64027,62.80008c0,0 8.77229,-31.60396 18.56106,-31.60396c11.48131,0 22.26965,-2.31009 32.93373,1.94407c13.04798,5.20515 18.84904,-1.62766 29.77877,7.19753c4.83486,3.90389 12.53502,22.46235 12.53502,22.46235z" data-paper-data="{&quot;origPos&quot;:null}" fill="#dbcfbd"/><path d="M259.19142,48.25223c0,0 8.77229,-31.60396 18.56106,-31.60396c11.48131,0 22.26965,-2.31009 32.93373,1.94407c13.04798,5.20515 18.84904,-1.62766 29.77878,7.19754c4.83486,3.90389 12.53502,22.46235 12.53502,22.46235z" data-paper-data="{&quot;origPos&quot;:null}" fill="#d1c0a6"/></g><g data-paper-data="{&quot;origPos&quot;:null,&quot;index&quot;:null}" stroke-linejoin="miter"><path d="M391.23466,-4.69709h12.92727" data-paper-data="{&quot;origPos&quot;:null,&quot;index&quot;:null}" fill="none" stroke="#88ac7a" stroke-width="15" stroke-linecap="round"/><g data-paper-data="{&quot;origPos&quot;:null}"><path d="M382.53065,-23.12701h-11.41784" data-paper-data="{&quot;origPos&quot;:null,&quot;index&quot;:null}" fill="none" stroke="#88ac7a" stroke-width="17" stroke-linecap="round"/><path d="M369.47577,-23.49288l-0.47575,-32.92702" data-paper-data="{&quot;origPos&quot;:null,&quot;index&quot;:null}" fill="none" stroke="#94bc85" stroke-width="17" stroke-linecap="round"/><path d="M386.93536,-50.87981l1.56143,75.67989" data-paper-data="{&quot;origPos&quot;:null,&quot;index&quot;:null}" fill="none" stroke="#9dc78d" stroke-width="15" stroke-linecap="round"/><path d="M387.53949,33.7949c0,0 -2.29179,-33.35131 1.80921,-61.80229c1.30059,-9.02296 -2.36525,-30.39771 -2.36525,-30.39771c0,0 2.90183,0.70027 4.40322,1.85284c1.80328,1.38433 2.08386,5.34716 2.08386,5.34716l2.78018,93.8z" data-paper-data="{&quot;origPos&quot;:null}" fill="#97be87" stroke="none" stroke-width="0" stroke-linecap="butt"/><path d="M406.94211,-7.39523l-0.76805,-32.92702" data-paper-data="{&quot;origPos&quot;:null,&quot;index&quot;:null}" fill="none" stroke="#94bc85" stroke-width="17" stroke-linecap="round"/></g></g><g data-paper-data="{&quot;origPos&quot;:null}" stroke="none" stroke-width="0" stroke-linecap="butt" stroke-linejoin="miter"><path d="M-61.72276,312.49972c0,0 6.88963,-16.60494 11.21554,-20.09789c9.77924,-7.89623 14.96966,-1.78266 26.64416,-6.4399c9.54155,-3.80635 19.19428,-1.73943 29.46702,-1.73943c8.75837,0 16.60726,28.27723 16.60726,28.27723z" data-paper-data="{&quot;index&quot;:null,&quot;origPos&quot;:null}" fill="#dbcfbd"/><path d="M-79.67655,303.52285c0,0 6.88962,-16.60494 11.21554,-20.09789c9.77924,-7.89623 14.96966,-1.78266 26.64416,-6.4399c9.54155,-3.80635 19.19428,-1.73943 29.46703,-1.73943c8.75837,0 16.60726,28.27723 16.60726,28.27723z" data-paper-data="{&quot;origPos&quot;:null,&quot;index&quot;:null}" fill="#d1c0a6"/><path d="M-72.04619,320.57894c0,0 6.88962,-16.60494 11.21554,-20.09789c9.77924,-7.89623 14.96966,-1.78266 26.64416,-6.4399c9.54155,-3.80635 19.19428,-1.73943 29.46702,-1.73943c8.75837,0 16.60726,28.27723 16.60726,28.27723z" data-paper-data="{&quot;origPos&quot;:null,&quot;index&quot;:null}" fill="#dbcfbd"/><path d="M-90,311.60205c0,0 6.88962,-16.60495 11.21554,-20.09789c9.77924,-7.89623 14.96966,-1.78266 26.64417,-6.4399c9.54155,-3.80635 19.19427,-1.73943 29.46702,-1.73943c8.75837,0 16.60726,28.27724 16.60726,28.27724z" data-paper-data="{&quot;origPos&quot;:null,&quot;index&quot;:null}" fill="#d1c0a6"/><path d="M-71.59735,315.1928c0,0 7.84889,-28.27723 16.60726,-28.27723c10.27275,0 19.92549,-2.06691 29.46702,1.73944c11.67451,4.65724 16.86493,-1.45634 26.64416,6.4399c4.32593,3.49295 11.21554,20.0979 11.21554,20.0979z" data-paper-data="{&quot;origPos&quot;:null}" fill="#dbcfbd"/><path d="M-48.25741,310.70437c0,0 7.84889,-28.27723 16.60726,-28.27723c10.27275,0 19.92549,-2.06692 29.46703,1.73943c11.67451,4.65724 16.86493,-1.45633 26.64416,6.4399c4.32593,3.49295 11.21554,20.09789 11.21554,20.09789z" data-paper-data="{&quot;origPos&quot;:null}" fill="#d1c0a6"/><path d="M-51.84817,331.80007c0,0 7.84889,-28.27723 16.60726,-28.27723c10.27275,0 19.92548,-2.06692 29.46702,1.73943c11.67451,4.65724 16.86493,-1.45633 26.64416,6.4399c4.32593,3.49295 11.21554,20.09789 11.21554,20.09789z" data-paper-data="{&quot;origPos&quot;:null}" fill="#dbcfbd"/><path d="M-37.93398,318.78354c0,0 7.84889,-28.27723 16.60726,-28.27723c10.27275,0 19.92548,-2.06692 29.46702,1.73943c11.67451,4.65724 16.86493,-1.45633 26.64417,6.4399c4.32593,3.49295 11.21554,20.09789 11.21554,20.09789z" data-paper-data="{&quot;origPos&quot;:null}" fill="#d1c0a6"/></g><g data-paper-data="{&quot;origPos&quot;:null,&quot;index&quot;:null}" stroke-linejoin="miter"><path d="M336.16193,302.3029h-12.92727" data-paper-data="{&quot;origPos&quot;:null,&quot;index&quot;:null}" fill="none" stroke="#88ac7a" stroke-width="15" stroke-linecap="round"/><g data-paper-data="{&quot;origPos&quot;:null}"><path d="M314.53065,283.87299h-11.41784" data-paper-data="{&quot;origPos&quot;:null,&quot;index&quot;:null}" fill="none" stroke="#88ac7a" stroke-width="17" stroke-linecap="round"/><path d="M301.47577,283.50712l-0.47575,-32.92702" data-paper-data="{&quot;origPos&quot;:null,&quot;index&quot;:null}" fill="none" stroke="#94bc85" stroke-width="17" stroke-linecap="round"/><path d="M318.93536,256.12019l1.56143,75.67989" data-paper-data="{&quot;origPos&quot;:null,&quot;index&quot;:null}" fill="none" stroke="#9dc78d" stroke-width="15" stroke-linecap="round"/><path d="M319.53949,340.79492c0,0 -2.29179,-33.35131 1.80921,-61.80229c1.30059,-9.02296 -2.36525,-30.39771 -2.36525,-30.39771c0,0 2.90183,0.70027 4.40322,1.85284c1.80328,1.38433 2.08386,5.34716 2.08386,5.34716l2.78018,93.8z" data-paper-data="{&quot;origPos&quot;:null}" fill="#97be87" stroke="none" stroke-width="0" stroke-linecap="butt"/><path d="M338.94211,299.60476l-0.76805,-32.92702" data-paper-data="{&quot;origPos&quot;:null,&quot;index&quot;:null}" fill="none" stroke="#94bc85" stroke-width="17" stroke-linecap="round"/></g></g><path d="M178,319.46669c0,0 13.97527,-14.33333 21,-14.33333c11.70789,0 27,14.33333 27,14.33333z" data-paper-data="{&quot;origPos&quot;:null}" fill="#adadad" stroke="none" stroke-width="NaN" stroke-linecap="butt" stroke-linejoin="miter"/><path d="M104,316.46669c0,0 13.97527,-14.33333 21,-14.33333c11.70788,0 27,14.33333 27,14.33333z" data-paper-data="{&quot;origPos&quot;:null}" fill="#adadad" stroke="none" stroke-width="NaN" stroke-linecap="butt" stroke-linejoin="miter"/><g data-paper-data="{&quot;origPos&quot;:null,&quot;index&quot;:null}" stroke="none" stroke-linecap="butt" stroke-linejoin="miter"><path d="M140.00893,317.55698c0,0 -6.0429,-33.92074 15.53151,-28.73328c14.85251,3.57121 12.42521,28.73328 12.42521,28.73328z" data-paper-data="{&quot;origPos&quot;:null}" fill="#ababab" stroke-width="0"/><path d="M143.35001,316.22055c0,0 -6.0429,-33.92074 15.5315,-28.73328c14.8525,3.57121 12.4252,28.73328 12.4252,28.73328z" data-paper-data="{&quot;origPos&quot;:null}" fill="#c0c0c0" stroke-width="0"/><path d="M154.60131,306.86553c-1.84522,0 -3.34108,-1.49585 -3.34108,-3.34108c0,-1.84522 1.49585,-3.34108 3.34108,-3.34108c1.84522,0 3.34108,1.49585 3.34108,3.34108c0,1.84522 -1.49585,3.34108 -3.34108,3.34108z" data-paper-data="{&quot;origPos&quot;:null}" fill="#ababab" stroke-width="0.5"/></g><g data-paper-data="{&quot;origPos&quot;:null}" stroke-linejoin="miter"><path d="M234,331.00003v41" data-paper-data="{&quot;origPos&quot;:null}" fill="none" stroke="#adadad" stroke-width="10" stroke-linecap="round"/><path d="M233.75,364.25003l0.25,7.75" data-paper-data="{&quot;origPos&quot;:null}" fill="none" stroke="#5e5e5e" stroke-width="10" stroke-linecap="round"/><path d="M223,373.00003c0,-5.52284 4.47716,-10 10,-10c5.52285,0 10,4.47716 10,10c0,5.52284 -4.47715,10 -10,10c-5.52284,0 -10,-4.47716 -10,-10z" fill="#929292" stroke="none" stroke-width="0.5" stroke-linecap="butt"/></g><g data-paper-data="{&quot;origPos&quot;:null}" stroke-linejoin="miter"><path d="M198,359.00003v-41" data-paper-data="{&quot;origPos&quot;:null}" fill="none" stroke="#adadad" stroke-width="10" stroke-linecap="round"/><path d="M197.75,351.25003l0.25,7.75" data-paper-data="{&quot;origPos&quot;:null}" fill="none" stroke="#5e5e5e" stroke-width="10" stroke-linecap="round"/><path d="M187,360.00003c0,-5.52284 4.47716,-10 10,-10c5.52285,0 10,4.47716 10,10c0,5.52284 -4.47715,10 -10,10c-5.52284,0 -10,-4.47716 -10,-10z" fill="#929292" stroke="none" stroke-width="0.5" stroke-linecap="butt"/></g><g data-paper-data="{&quot;origPos&quot;:null}" stroke-linejoin="miter"><path d="M53,366.00003v-41" data-paper-data="{&quot;origPos&quot;:null}" fill="none" stroke="#adadad" stroke-width="10" stroke-linecap="round"/><path d="M53,366.00003l-0.25,-7.75" data-paper-data="{&quot;origPos&quot;:null}" fill="none" stroke="#5e5e5e" stroke-width="10" stroke-linecap="round"/><path d="M42,367.00003c0,-5.52284 4.47716,-10 10,-10c5.52285,0 10,4.47716 10,10c0,5.52284 -4.47715,10 -10,10c-5.52284,0 -10,-4.47716 -10,-10z" fill="#929292" stroke="none" stroke-width="0.5" stroke-linecap="butt"/></g><g data-paper-data="{&quot;origPos&quot;:null}" stroke-linejoin="miter"><path d="M86,321.00003v41" data-paper-data="{&quot;origPos&quot;:null}" fill="none" stroke="#adadad" stroke-width="10" stroke-linecap="round"/><path d="M86,362.00003l-0.25,-7.75" data-paper-data="{&quot;origPos&quot;:null}" fill="none" stroke="#5e5e5e" stroke-width="10" stroke-linecap="round"/><path d="M75,363.00003c0,-5.52284 4.47716,-10 10,-10c5.52285,0 10,4.47716 10,10c0,5.52284 -4.47715,10 -10,10c-5.52284,0 -10,-4.47716 -10,-10z" fill="#929292" stroke="none" stroke-width="0.5" stroke-linecap="butt"/></g><g data-paper-data="{&quot;origPos&quot;:null}" stroke-linejoin="miter"><path d="M122,312.00003v41" data-paper-data="{&quot;origPos&quot;:null}" fill="none" stroke="#adadad" stroke-width="10" stroke-linecap="round"/><path d="M121.75,345.25003l0.25,7.75" data-paper-data="{&quot;origPos&quot;:null}" fill="none" stroke="#5e5e5e" stroke-width="10" stroke-linecap="round"/><path d="M111,354.00003c0,-5.52284 4.47716,-10 10,-10c5.52285,0 10,4.47716 10,10c0,5.52284 -4.47715,10 -10,10c-5.52284,0 -10,-4.47716 -10,-10z" fill="#929292" stroke="none" stroke-width="0.5" stroke-linecap="butt"/></g><g data-paper-data="{&quot;origPos&quot;:null}" stroke-linejoin="miter"><path d="M158,359.00003v-41" data-paper-data="{&quot;origPos&quot;:null}" fill="none" stroke="#adadad" stroke-width="10" stroke-linecap="round"/><path d="M157.75,351.25003l0.25,7.75" data-paper-data="{&quot;origPos&quot;:null}" fill="none" stroke="#5e5e5e" stroke-width="10" stroke-linecap="round"/><path d="M147,360.00003c0,-5.52284 4.47716,-10 10,-10c5.52285,0 10,4.47716 10,10c0,5.52284 -4.47715,10 -10,10c-5.52284,0 -10,-4.47716 -10,-10z" fill="#929292" stroke="none" stroke-width="0.5" stroke-linecap="butt"/></g><g data-paper-data="{&quot;origPos&quot;:null}" stroke-linejoin="miter"><path d="M15,360.00003v-41" data-paper-data="{&quot;origPos&quot;:null}" fill="none" stroke="#adadad" stroke-width="10" stroke-linecap="round"/><path d="M14.75,352.25003l0.25,7.75" data-paper-data="{&quot;origPos&quot;:null}" fill="none" stroke="#5e5e5e" stroke-width="10" stroke-linecap="round"/><path d="M4,361.00003c0,-5.52284 4.47716,-10 10,-10c5.52285,0 10,4.47716 10,10c0,5.52284 -4.47715,10 -10,10c-5.52284,0 -10,-4.47716 -10,-10z" fill="#929292" stroke="none" stroke-width="0.5" stroke-linecap="butt"/></g><g data-paper-data="{&quot;origPos&quot;:null,&quot;index&quot;:null}" stroke-linejoin="miter"><path d="M-86.29253,12.30292h-12.92727" data-paper-data="{&quot;origPos&quot;:null,&quot;index&quot;:null}" fill="none" stroke="#88ac7a" stroke-width="15" stroke-linecap="round"/><g data-paper-data="{&quot;origPos&quot;:null}"><path d="M-77.58852,-6.12701h11.41784" data-paper-data="{&quot;origPos&quot;:null,&quot;index&quot;:null}" fill="none" stroke="#88ac7a" stroke-width="17" stroke-linecap="round"/><path d="M-64.05789,-39.41991l-0.47575,32.92702" data-paper-data="{&quot;origPos&quot;:null,&quot;index&quot;:null}" fill="none" stroke="#94bc85" stroke-width="17" stroke-linecap="round"/><path d="M-83.55466,41.80008l1.56143,-75.67989" data-paper-data="{&quot;origPos&quot;:null,&quot;index&quot;:null}" fill="none" stroke="#9dc78d" stroke-width="15" stroke-linecap="round"/><path d="M-91.30858,59.59492l2.78018,-93.8c0,0 0.28058,-3.96283 2.08386,-5.34716c1.50139,-1.15257 4.40322,-1.85284 4.40322,-1.85284c0,0 -3.66584,21.37475 -2.36525,30.39771c4.101,28.45098 1.80921,61.80229 1.80921,61.80229z" data-paper-data="{&quot;origPos&quot;:null}" fill="#97be87" stroke="none" stroke-width="0" stroke-linecap="butt"/><path d="M-101.99998,9.60478l0.76805,-32.92702" data-paper-data="{&quot;origPos&quot;:null,&quot;index&quot;:null}" fill="none" stroke="#94bc85" stroke-width="17" stroke-linecap="round"/></g></g><path d="M491.83129,158.31115v198.8375c0,0 -69,-9.23653 -69,-18.34863c0,-27.33631 0,-180.48887 0,-180.48887z" data-paper-data="{&quot;origPos&quot;:null,&quot;index&quot;:null}" fill="url(#color-1)" stroke="none" stroke-width="0" stroke-linecap="butt" stroke-linejoin="miter"/><path d="M500.83129,156.31115v198.8375h-69v-198.8375z" data-paper-data="{&quot;origPos&quot;:null,&quot;index&quot;:null}" fill="url(#color-2)" stroke="none" stroke-width="0" stroke-linecap="butt" stroke-linejoin="miter"/><path d="M509.83129,156.31115v198.8375h-69v-198.8375z" data-paper-data="{&quot;origPos&quot;:null,&quot;index&quot;:null}" fill="url(#color-3)" stroke="none" stroke-width="0" stroke-linecap="butt" stroke-linejoin="miter"/><g data-paper-data="{&quot;origPos&quot;:null}"><g data-paper-data="{&quot;origPos&quot;:null,&quot;origRot&quot;:0}" stroke="none" stroke-width="0" stroke-linecap="butt" stroke-linejoin="miter"><g data-paper-data="{&quot;origPos&quot;:null}"><path d="M-78.73013,87.94962l55.24405,-13.51585l6.75792,27.62201l-55.24405,13.51585z" data-paper-data="{&quot;origPos&quot;:null,&quot;origRot&quot;:0}" fill="#c7c7c7"/><path d="M-41.37537,55.93604l34.81933,-8.5188l18.23167,69.90954l-13.95713,22.98089l-20.8622,-14.46211z" data-paper-data="{&quot;origPos&quot;:null,&quot;origRot&quot;:0}" fill="#b6b6b6"/></g><path d="M-19.82536,98.16457c0,0 10.5399,-2.07245 16.49437,-3.6298c3.74246,-0.97879 8.35278,-2.86868 8.35278,-2.86868l1.95347,7.74219c0,0 -7.73747,-0.99172 -13.11745,-1.27728c-4.61465,-0.24492 -13.68317,0.03359 -13.68317,0.03359z" data-paper-data="{&quot;origPos&quot;:null}" fill="#838383"/><path d="M-0.15139,112.08631c0,0 -10.53992,2.07248 -16.49437,3.62981c-3.74249,0.97879 -8.35278,2.86869 -8.35278,2.86869l-1.95347,-7.74219c0,0 7.73747,0.99173 13.11748,1.27726c4.61466,0.24493 13.68319,-0.03356 13.68319,-0.03356z" data-paper-data="{&quot;origPos&quot;:null,&quot;index&quot;:null}" fill="#838383"/><path d="M-12.54289,63.91552c0,0 -10.53992,2.07249 -16.49437,3.62982c-3.74247,0.97882 -8.35278,2.86868 -8.35278,2.86868l-1.95348,-7.7422c0,0 7.73747,0.99173 13.11749,1.27726c4.61465,0.24492 13.68317,-0.03359 13.68317,-0.03359z" data-paper-data="{&quot;origPos&quot;:null,&quot;index&quot;:null}" fill="#838383"/></g><path d="M-30.79579,89.57683c-1.42078,1.94398 -3.3369,2.61676 -6.38882,3.89364c-3.65647,1.5272 -7.00163,0.26858 -6.78863,-1.70887c0.21392,-1.97572 3.6668,-1.73088 4.62664,-1.57463c0.73982,0.12037 5.88247,-1.08654 8.20394,-1.64626c0,0 0.32355,-0.10668 0.47738,0.21526c0.15383,0.32243 -0.13093,0.82109 -0.13051,0.82087z" data-paper-data="{&quot;origPos&quot;:null,&quot;index&quot;:null,&quot;origRot&quot;:0}" id="R_Arm" fill="#1b75bb" stroke="#000000" stroke-width="0.77378" stroke-linecap="butt" stroke-linejoin="miter"/><path d="M-41.60094,97.49778c-0.75625,0.42377 -1.96083,0.82488 -2.32543,0.05789c-0.23984,-0.50438 0.87145,-0.98592 1.94196,-1.59969c0.69389,-0.39777 1.20407,-0.86173 1.47805,-1.14048c0,0 0.04462,-0.05462 0.06528,-0.06561c0.48453,-0.25799 0.79058,-0.07636 1.02291,0.23747c0.29157,0.39356 -0.05085,0.6422 -0.05917,0.64937c-0.32935,0.28777 -0.72232,0.68886 -0.72232,0.68886c-0.55458,0.55382 -0.9599,0.92447 -1.40129,1.17221z" data-paper-data="{&quot;origPos&quot;:null,&quot;index&quot;:null,&quot;origRot&quot;:0}" id="R_Leg_1_" fill="#1b75bb" stroke="#000000" stroke-width="0.77378" stroke-linecap="butt" stroke-linejoin="miter"/><path d="M-40.53118,99.50911c-0.75638,0.42352 -1.96083,0.82488 -2.32543,0.05789c-0.23997,-0.50463 0.87146,-0.98591 1.94183,-1.59993c0.69401,-0.39754 1.20418,-0.86152 1.47818,-1.14024c0,0 0.04461,-0.05464 0.06527,-0.06563c0.48453,-0.25799 0.79058,-0.07636 1.02292,0.23749c0.29144,0.39333 -0.05097,0.64197 -0.05929,0.64914c-0.32923,0.28799 -0.72233,0.68884 -0.72233,0.68884c-0.55447,0.55404 -0.95989,0.92449 -1.40116,1.17246z" data-paper-data="{&quot;origPos&quot;:null,&quot;index&quot;:null,&quot;origRot&quot;:0}" id="L_Leg" fill="#1b75bb" stroke="#000000" stroke-width="0.77378" stroke-linecap="butt" stroke-linejoin="miter"/><g data-paper-data="{&quot;origPos&quot;:null,&quot;index&quot;:null,&quot;origRot&quot;:0}" id="Body_1_" stroke="#000000" stroke-width="0.77378" stroke-linecap="butt" stroke-linejoin="miter"><path d="M-40.19439,95.21476c-0.12811,-0.31712 -0.23299,-0.66533 -0.30636,-1.04716c-0.52451,-2.71967 2.96552,-3.4229 4.30204,-3.73003c0.53958,-0.12442 1.29618,-0.37313 2.00638,-0.62503l0.0509,-0.00446l1.68871,-0.65669c0.19053,0.03443 0.47226,-0.18827 0.85412,0.07367c0.45153,0.30983 1.06644,1.15261 1.31045,1.61033c0.89747,1.68323 0.69787,2.76078 0.69787,2.76078c-0.46782,0.61007 -0.9074,0.48041 -1.69069,1.50082c-1.42752,1.85925 -1.79856,1.85377 -1.73413,2.07918c0.00954,0.03302 -0.40023,0.24322 -0.38459,0.29286c-0.14301,0.07717 -0.56438,0.28998 -1.17509,0.46742c0,0 -1.47119,0.37929 -2.38757,0.17347c-0.1606,-0.03573 -0.35878,-0.09755 -0.57732,-0.18832c0,0 -0.61227,-0.26188 -1.04274,-0.57879c-0.43034,-0.31725 -0.92174,-0.9942 -1.15384,-1.3076c-0.2322,-0.31361 -0.45774,-0.82068 -0.45816,-0.82045z" id="Body" fill="#1b75bb"/><path d="M-36.21823,90.44544c0.71504,-0.16339 1.80803,-0.546 2.67196,-0.86587l0.06598,0.02754c0.34585,0.12983 0.86724,0.1155 1.0698,0.74378c0.44207,1.37653 -0.46588,2.58439 -2.23455,3.52508c-1.76932,0.94105 -3.86623,0.80538 -4.40077,-0.19963c-0.26761,-0.50316 -0.61276,-1.50596 -0.2081,-2.14396l0.03151,-0.03469c0.99819,-0.61896 2.30075,-0.89086 3.00416,-1.05225z" id="Belly" fill="#d0d2d3"/></g><path d="M-29.48632,93.50361c-0.20717,2.39932 -1.49683,3.96669 -3.44506,6.64158c-2.3337,3.20166 -5.8469,3.85984 -6.68977,2.05873c-0.8421,-1.80123 2.23801,-3.38259 3.13986,-3.74635c0.6941,-0.28058 4.46693,-3.97833 6.16178,-5.66075c0,0 0.22082,-0.25986 0.52003,-0.0641c0.29859,0.19609 0.31292,0.77047 0.31315,0.77089z" data-paper-data="{&quot;origPos&quot;:null,&quot;index&quot;:null,&quot;origRot&quot;:0}" id="L_Arm" fill="#1b75bb" stroke="#000000" stroke-width="0.77378" stroke-linecap="butt" stroke-linejoin="miter"/><g data-paper-data="{&quot;origPos&quot;:null,&quot;index&quot;:null,&quot;origRot&quot;:0}" id="Head_1_" stroke-width="0.77378"><path d="M-28.19696,77.99544c-0.01075,0.00212 -0.04795,0.01003 -0.1103,0.02664l-0.03929,0.01123c0,0 4.80775,-2.93184 9.0167,-0.8005c0.15157,0.07638 0.29856,0.15716 0.44234,0.23964l0.0166,0.0094c-0.07468,-0.60631 -0.2275,-1.94901 0.32987,-3.48344c0.64405,-1.77152 2.04218,-4.0056 4.96288,-2.81345c2.76811,1.13035 0.91746,5.31862 -0.11194,6.58145c-1.31555,1.61256 -2.77315,1.67695 -2.80125,1.67809c0.37357,0.42637 0.70319,0.8764 0.99219,1.33837l0.02009,0.02684c1.74396,-1.31195 6.05046,-4.01255 7.70412,-0.12614c1.73881,4.08646 -3.3814,5.04961 -6.00002,5.27643l-0.02967,0.04695c0.01337,0.23216 0.01529,0.45469 0.00822,0.66348l0.01686,0.14999c1.80983,-0.21003 4.43611,-0.09294 6.9739,1.54877c4.51147,2.91645 4.37648,6.75129 3.55392,8.45908c-0.7963,1.65074 -4.40773,3.61542 -8.3047,1.25137c-1.86131,-1.12944 -3.1944,-2.15239 -4.12517,-2.97369l-0.03268,-0.0298c0,0 -0.14451,0.65141 -0.83259,1.36205l0.04759,0.01114c0.44514,0.23348 1.88626,1.16695 2.77039,3.82396c1.05479,3.17447 -0.38193,4.51096 -1.93855,5.10681c-1.53449,0.58764 -4.18428,0.21257 -5.94886,-3.26908c-1.39726,-2.75469 -0.45195,-4.03763 -0.45195,-4.03763c-2.17026,-0.29536 -4.01286,-1.49853 -5.33264,-2.51832l-0.02347,-0.01402c0.02434,0.01466 0.04875,0.02736 0.0732,0.04167c-1.65821,-0.97119 -3.30923,-2.67083 -4.31563,-5.03156c-2.05434,-4.82187 -1.24136,-7.5688 -0.4051,-9.34209c1.23627,-2.6188 3.77088,-3.19086 3.87495,-3.21365zM-18.97654,77.42073c0.22953,0.12907 0.45406,0.26793 0.6722,0.416M-16.22715,81.41069c0.20702,-0.18048 0.41785,-0.35692 0.6333,-0.52779M-13.72744,85.95538c-0.49405,0.04393 -0.99046,0.07257 -1.4866,0.07371M-16.65108,96.54218c-0.39078,0.37564 -0.84892,0.67646 -1.33782,0.90859M-14.29831,98.90847M-21.03636,103.04994" id="Head" fill="#1b75bb" stroke="#000000" stroke-linecap="round" stroke-linejoin="round"/><path d="M-21.07325,103.04696l0.03712,0.00287c2.5789,-0.16813 5.16085,-1.68213 6.78839,-4.0369l0.01638,0.02663c0.17862,0.36226 0.34905,0.77194 0.50247,1.23373c1.05479,3.17447 -0.38193,4.51096 -1.93855,5.10681c-1.38434,0.5301 -3.6755,0.2767 -5.4058,-2.33315z" id="Hair1" fill="#f1f1f2" stroke="#000000" stroke-linecap="butt" stroke-linejoin="miter"/><path d="M-10.91846,98.43025l0.00517,-0.01516c0.92685,-0.49628 1.78983,-1.16502 2.53719,-2.0024c1.94548,-2.1825 2.66667,-5.01113 2.18465,-7.58093l-0.00781,-0.04525c3.89016,2.85503 3.7318,6.41506 2.94786,8.04183c-0.7529,1.56008 -4.0202,3.40078 -7.66706,1.60192z" id="Hair2" fill="#f1f1f2" stroke="#000000" stroke-linecap="butt" stroke-linejoin="miter"/><path d="M-9.81199,85.07913c-0.0731,-2.26324 -1.02197,-4.43016 -2.77544,-5.94318l-0.02691,-0.00801c1.8083,-0.73441 3.82384,-0.83113 4.8396,1.55497c1.00672,2.36495 -0.28473,3.68406 -2.05898,4.41965z" id="Hair3" fill="#f1f1f2" stroke="#000000" stroke-linecap="butt" stroke-linejoin="miter"/><path d="M-12.13936,73.19122l-0.00601,0.00734c-1.63343,-1.00394 -3.52539,-1.34523 -5.36315,-1.08389l-0.01063,-0.02416c0.82335,-1.02655 2.06961,-1.66843 3.94111,-0.90534c0.95183,0.38814 1.35745,1.13885 1.43869,2.00605z" id="Hair4" fill="#f1f1f2" stroke="#000000" stroke-linecap="butt" stroke-linejoin="miter"/><path d="M-23.59026,79.37816c1.64501,0.79799 5.41611,1.4098 5.41611,1.4098c0,0 -2.80453,1.56036 -3.13137,6.69854c-0.32785,5.13928 1.11146,6.96701 -1.55862,8.67388c-2.00572,1.28259 -6.74789,-0.78867 -8.80298,-5.60932c-2.05411,-4.82196 -1.24126,-7.56858 -0.40507,-9.34207c1.26244,-2.67388 3.87991,-3.21467 3.87991,-3.21467c1.80296,-0.38327 2.23806,0.23449 4.60203,1.38385z" id="Face_1_" fill="#e6e7e8" stroke="#000000" stroke-linecap="butt" stroke-linejoin="miter"/><g id="L_Eye" stroke="none" stroke-linecap="butt" stroke-linejoin="miter"><path d="M-23.89896,88.10614c0.01063,0.01999 0.01876,0.04106 0.02509,0.0628c0.02307,0.08075 0.01275,0.16406 -0.02715,0.23635c-0.03984,0.0714 -0.1056,0.12264 -0.1859,0.14495c-0.15953,0.04565 -0.33442,-0.04761 -0.38075,-0.21256c-0.04664,-0.16393 0.04889,-0.33454 0.21231,-0.38169c0.13951,-0.03918 0.28935,0.02407 0.3564,0.15015z" id="Inner_Eye_1_" fill="#ffffff"/><path d="M-23.40672,88.03806c0.05769,0.20442 0.03245,0.41902 -0.07108,0.60462c-0.10293,0.18474 -0.2728,0.31785 -0.47738,0.37477c-0.3558,0.10204 -0.74197,-0.0621 -0.91656,-0.39036c-0.02642,-0.04968 -0.04747,-0.10221 -0.06301,-0.1569c-0.11906,-0.42153 0.12624,-0.86107 0.54644,-0.9811c0.41365,-0.1168 0.86639,0.13779 0.98159,0.54897zM-23.90124,88.40541c0.04013,-0.07242 0.05026,-0.15562 0.02718,-0.23637c-0.00643,-0.02194 -0.01459,-0.04299 -0.02512,-0.06279c-0.06716,-0.12627 -0.21689,-0.18932 -0.35638,-0.15016c-0.16341,0.04715 -0.25894,0.21775 -0.21221,0.38192c0.04643,0.16462 0.22122,0.25822 0.38063,0.21234c0.0803,-0.0223 0.14605,-0.07354 0.1859,-0.14495z" id="Outer_Eye_1_" fill="#231f20"/></g><g id="R_Eye" stroke="none" stroke-linecap="butt" stroke-linejoin="miter"><path d="M-27.38445,81.08379c0.13938,-0.03936 0.28922,0.02389 0.35638,0.15016c0.01053,0.01979 0.01889,0.04074 0.02513,0.06281c0.02296,0.08051 0.01261,0.16384 -0.02719,0.23633c-0.03984,0.0714 -0.10571,0.12245 -0.1859,0.14495c-0.15983,0.04557 -0.33453,-0.04779 -0.38096,-0.21241c-0.0464,-0.16409 0.04944,-0.33459 0.21254,-0.38185z" id="Inner_Eye" fill="#ffffff"/><path d="M-27.51699,80.6167c0.41353,-0.11701 0.8663,0.13753 0.98149,0.5487c0.05801,0.20457 0.03259,0.41928 -0.07098,0.6049c-0.10293,0.18471 -0.27289,0.31761 -0.47734,0.37475c-0.35615,0.10194 -0.74197,-0.06209 -0.91657,-0.39036c-0.02644,-0.04971 -0.0475,-0.10224 -0.06324,-0.15678c-0.1193,-0.42145 0.12589,-0.8612 0.54664,-0.9812zM-27.02979,81.5332c0.03979,-0.07252 0.05012,-0.15583 0.02716,-0.23635c-0.00632,-0.02228 -0.01468,-0.04323 -0.02509,-0.0628c-0.06728,-0.1265 -0.21699,-0.18953 -0.3564,-0.15016c-0.16319,0.04703 -0.25894,0.21776 -0.21219,0.38192c0.04576,0.16443 0.22075,0.25789 0.38063,0.21234c0.08019,-0.0225 0.14605,-0.07354 0.1859,-0.14495z" id="Outer_Eye" fill="#231f20"/></g><path d="M-26.09716,88.60662c0,0 -1.67453,-0.8405 -2.52531,-3.21941c-0.85224,-2.3776 -0.25643,-3.16416 -0.25643,-3.16416" id="Mouth" fill="none" stroke="#231f20" stroke-linecap="round" stroke-linejoin="miter"/></g></g></g></g></svg>