<svg version="1.1" xmlns="http://www.w3.org/2000/svg" xmlns:xlink="http://www.w3.org/1999/xlink" width="43.3486" height="56.39897" viewBox="0,0,43.3486,56.39897"><g transform="translate(-218.09732,-144.56234)"><g data-paper-data="{&quot;isPaintingLayer&quot;:true}" fill="none" fill-rule="nonzero" stroke="none" stroke-width="none" stroke-linecap="none" stroke-linejoin="miter" stroke-miterlimit="10" stroke-dasharray="" stroke-dashoffset="0" font-family="none" font-weight="none" font-size="none" text-anchor="none" style="mix-blend-mode: normal"><path d="M238.48744,193.10661l-1.58996,2.19794l0.74739,3.69447c0,0 -4.30921,0.46499 -4.31172,-0.13905c-0.00498,-0.60333 2.05849,-0.74205 2.05849,-0.74205c0,0 -1.08078,-2.6736 -1.15673,-3.17172c-0.0777,-0.49924 0.36014,-0.8544 0.36014,-0.8544l1.65134,-1.6495" data-paper-data="{&quot;origPos&quot;:null,&quot;index&quot;:null}" id="Back_Leg" fill="#f09629" stroke="#000000" stroke-width="0.89575" stroke-linecap="round"/><path d="M242.28962,187.36785v0v0v0l-0.11305,-0.13156c-1.10394,-1.12751 -2.78518,-2.77272 -2.78518,-2.77272c-2.73068,-3.2167 0.34764,-2.38658 1.91443,-1.51794c0.99842,0.55551 3.21916,2.7884 3.82822,3.38993c0.61152,0.60158 0.64038,0.82904 0.87859,1.63455c0.16297,0.55627 0.43609,2.32061 -0.62367,2.62869c-1.9683,0.57232 -3.09934,-3.23094 -3.09934,-3.23094z" data-paper-data="{&quot;origPos&quot;:null,&quot;index&quot;:null}" id="Back_Arm" fill="#f09629" stroke="#000000" stroke-width="0.89575" stroke-linecap="round"/><path d="M234.89922,188.14449c0.07703,-0.61654 -0.47352,-4.04573 -0.56623,-4.69539c0,0 -0.99985,-2.69111 2.92678,-3.09369c2.22433,-0.22817 3.59534,0.69963 3.89701,1.65668c0.25887,0.8219 0.82262,3.34754 0.82262,3.34754c0,0 0.90642,2.83406 1.217,3.70553c0.48781,1.36426 1.44414,4.91469 -4.04963,4.91469c0,0 -4.20901,-0.09665 -4.4932,-3.80397c-0.05457,-0.70706 0.07699,-1.39418 0.24175,-1.93727l0.0039,-0.09411v0v0v0z" data-paper-data="{&quot;origPos&quot;:null,&quot;index&quot;:null}" id="Body" fill="#f09629" stroke="#000000" stroke-width="0.89575" stroke-linecap="round"/><path d="M241.0612,193.38437l1.04694,6.7671c0,0 -5.46634,0.81443 -5.41817,0c0.04741,-0.81443 2.42365,-1.19347 2.42365,-1.19347l-0.47925,-5.38573" data-paper-data="{&quot;origPos&quot;:null,&quot;index&quot;:null}" id="Front_Leg" fill="#f09629" stroke="#000000" stroke-width="0.89575" stroke-linecap="round"/><path d="M241.43456,183.49902c0.28915,1.72188 -0.37583,5.74158 -2.72245,7.79187c-2.91216,2.54634 -3.54188,1.22986 -3.75724,0.62829c-0.31309,-0.87966 1.08539,-1.90232 2.08309,-3.22521c0.80264,-1.06366 1.26477,-3.06265 1.26477,-3.06265" data-paper-data="{&quot;origPos&quot;:null,&quot;index&quot;:null}" id="Front_Arm" fill="#f09629" stroke="#000000" stroke-width="0.89575" stroke-linecap="round"/><g data-paper-data="{&quot;origPos&quot;:null,&quot;index&quot;:null}" id="Head_1_"><path d="M254.19143,159.42478v0v0v0l0.07986,0.18506c1.92553,-0.02281 8.47154,2.7517 6.28538,11.55663c-2.38835,9.62151 -8.52074,10.49012 -12.66237,8.00086c-3.84498,-2.31489 -3.09509,-10.05043 -1.21736,-13.53742l-0.00713,-0.07345c0,0 -2.22934,-5.69058 -12.35178,-5.89097c-5.3187,-0.10593 -9.42609,2.0214 -10.92763,5.80256c-1.15817,2.91571 -2.96388,5.09438 -2.52385,8.44655c0.13372,1.01377 0.41647,2.01215 0.89142,2.95316l-0.00749,-0.03065c-0.92174,-0.35588 -2.82371,-1.67804 -3.2024,-5.86067c-0.49529,-5.49023 3.36926,-9.26173 4.45968,-10.207l0.0838,-0.07345c0.41615,-0.63151 0.91108,-1.24697 1.49335,-1.83497c4.87938,-4.91146 9.43322,-6.79596 11.38833,-8.94648c1.91661,-2.10877 3.78112,-4.42797 3.78112,-4.42797c0,0 1.35963,4.14771 3.38464,4.97782c2.02498,0.83011 5.07834,1.82458 7.89887,4.71215c2.82192,2.88896 3.15356,4.24823 3.15356,4.24823zM221.30121,170.12921c-0.8647,-5.21385 1.79071,-9.43322 1.79071,-9.43322M251.1616,160.99298c0,0 1.24801,-1.33288 3.11005,-1.38351M247.20929,164.73742c0,0 -0.21858,0.40257 -0.53199,0.89141" id="Head_2_" fill="#f09629" stroke="#000000" stroke-width="0.89575" stroke-linecap="round"/><path d="M221.17677,175.43576v0v0l0.57155,1.40134c-0.94455,-0.39509 -2.83653,-1.78429 -3.20312,-5.86067c-0.22853,-2.55131 0.47997,-4.72998 1.41596,-6.42766c0,0 -0.75308,3.79148 -0.18825,6.57992c0.56551,2.78626 1.40386,4.30706 1.40386,4.30706z" id="R_Ear" fill="#404041" stroke="#000000" stroke-width="0.89575" stroke-linecap="butt"/><g id="L_Ear" stroke="#231f20" stroke-width="0.89575"><path d="M260.33878,172.02405c-0.42825,1.65417 -1.42488,3.58786 -1.93799,4.47183c-0.51169,0.88393 -1.76615,2.25104 -3.21706,3.04763c-1.45195,0.7973 -2.17154,0.70602 -2.17154,0.70602c-2.19721,-0.99805 -3.04265,-5.35365 -1.88306,-10.1232c1.23197,-5.05948 4.25822,-8.66871 6.76177,-8.05862c1.33714,0.32448 2.552,1.66309 2.90429,3.72871c0.34266,2.00256 -0.02922,4.57667 -0.4564,6.22762v0v0v0z" id="Outer_Ear" fill="#404041" stroke-linecap="butt"/><path d="M258.78337,167.81647v0v0c0.96275,0.41289 0.88966,2.741 -0.16508,5.20063c-1.053,2.45967 -2.68682,4.11917 -3.65064,3.70768c-0.96203,-0.41149 -0.88824,-2.74244 0.1644,-5.20135c1.05367,-2.46039 2.68821,-4.11954 3.65132,-3.70697zM258.46961,167.75475c0,0 0.04418,6.05501 -3.92165,8.56815" id="Inner_Ear" fill="#929497" stroke-linecap="round"/></g><path d="M240.60731,182.92672c-2.46644,0.6165 -1.84994,1.82243 -1.84994,1.82243c0,0 -0.09912,-0.36404 -2.02426,-1.19594c-1.9241,-0.82688 -1.69373,-0.09661 -7.43606,-1.45982c-5.74229,-1.35927 -7.97089,-4.69109 -8.43158,-8.17983c-0.4411,-3.35184 1.36569,-5.53051 2.52385,-8.44658c1.50153,-3.78113 5.60857,-5.90849 10.92691,-5.80256c10.12423,0.20039 12.35358,5.89097 12.35358,5.89097l0.01533,0.06134c-1.88203,3.47911 -2.63972,11.23216 1.21023,13.54988c0.11552,0.06883 0.23248,0.13657 0.35086,0.20039l-0.02177,0.02747v0v0v0c-0.46387,0.31735 -3.89311,2.60442 -7.61715,3.53225z" id="Face_1_" fill="#e6e7e8" stroke="#000000" stroke-width="0.89575" stroke-linecap="round"/><path d="M232.82108,178.63104v0v0v0c-4.53277,-0.30628 -5.03984,-5.88066 -5.03984,-5.88066c0,0 0.80158,-0.20609 4.14486,0c3.34397,0.20755 5.9352,0.28956 5.9352,0.28956c0,0 -0.50635,5.89599 -5.0402,5.5911z" id="Smile" fill="#ffffff" stroke="#000000" stroke-width="0.97672" stroke-linecap="round"/><path d="M225.94739,169.37111v0v0v0v0c-0.26245,0 -0.5042,-0.1715 -0.5823,-0.43574c-0.09559,-0.32304 -0.11624,-0.6554 -0.06417,-0.98878c0.1986,-1.24089 1.37675,-2.08811 2.62937,-1.89413c1.25481,0.19824 2.11486,1.37066 1.91837,2.61226c-0.05095,0.33163 -0.35872,0.55698 -0.6921,0.50491c-0.33092,-0.05171 -0.55698,-0.36193 -0.50491,-0.69245c0.09164,-0.58267 -0.31627,-1.13249 -0.9096,-1.22592c-0.58657,-0.09271 -1.14961,0.30382 -1.24125,0.88537c-0.0246,0.15478 -0.01537,0.3095 0.02743,0.4593c0.09558,0.32088 -0.08984,0.65786 -0.41005,0.75164c-0.05812,0.01604 -0.11445,0.02353 -0.17078,0.02353z" id="R_Eye" fill="#000000" stroke="none" stroke-width="0.89575" stroke-linecap="butt"/><path d="M237.50403,169.37111v0v0v0v0c-0.26246,0 -0.5042,-0.1715 -0.58159,-0.43574c-0.09559,-0.32304 -0.11625,-0.6554 -0.06382,-0.98878c0.19752,-1.24089 1.37921,-2.08811 2.62937,-1.89413c1.25406,0.19824 2.11414,1.37066 1.91837,2.61226c-0.05206,0.33163 -0.35979,0.55698 -0.69281,0.50491c-0.33128,-0.05171 -0.55699,-0.36193 -0.50492,-0.69245c0.09092,-0.58267 -0.31663,-1.13249 -0.9096,-1.22592c-0.58908,-0.09271 -1.14996,0.30382 -1.24232,0.88537c-0.02352,0.15478 -0.01465,0.3095 0.02851,0.4593c0.09522,0.32088 -0.08985,0.65786 -0.41042,0.75164c-0.05775,0.01604 -0.1148,0.02353 -0.17077,0.02353z" id="L_Eye" fill="#000000" stroke="none" stroke-width="0.89575" stroke-linecap="butt"/></g></g></g></svg>