<svg version="1.1" xmlns="http://www.w3.org/2000/svg" xmlns:xlink="http://www.w3.org/1999/xlink" width="43.23498" height="50.65884" viewBox="0,0,43.23498,50.65884"><g transform="translate(-218.93499,-147.26676)"><g data-paper-data="{&quot;isPaintingLayer&quot;:true}" fill="none" fill-rule="nonzero" stroke="none" stroke-width="none" stroke-linecap="none" stroke-linejoin="none" stroke-miterlimit="10" stroke-dasharray="" stroke-dashoffset="0" font-family="none" font-weight="none" font-size="none" text-anchor="none" style="mix-blend-mode: normal"><path d="M239.39359,190.33738c0.9723,0.20317 1.14807,1.1033 1.14807,1.7299c0,0.27384 -0.02985,0.46301 -0.04601,0.548c-1.17488,1.566 -3.73452,4.25755 -4.69497,4.11774c-0.10202,-0.01616 -0.36489,-0.05514 -0.36489,-1.03874c0,-0.29092 0.54584,-3.6465 0.51356,-3.8128c0.43651,-0.41791 2.04148,-1.83835 3.44424,-1.54409z" data-paper-data="{&quot;origPos&quot;:null,&quot;index&quot;:null}" id="R_Leg" fill="#ffc93e" stroke="#603813" stroke-width="1.32684" stroke-linecap="butt" stroke-linejoin="miter"/><path d="M244.43094,196.76925v0c-0.25495,0.27692 -0.56357,0.41155 -0.94369,0.41094c-0.48101,0 -0.923,-0.90959 -1.20387,-1.81852l-0.37525,-1.04025c-0.52513,-1.12492 -1.14595,-2.59197 -1.18099,-2.65165c-0.07552,-0.13009 -0.10202,-0.23789 -0.10202,-0.32688c0,-0.10143 0.03412,-0.18063 0.07066,-0.24335c0.36066,-0.62417 1.87184,-1.03781 2.74606,-1.04847c0.25588,0.08558 1.76586,0.65489 1.76586,2.29494c0,0.02893 -0.00217,0.10781 -0.00217,0.10781l0.00125,0.01892c0.00092,0.00764 0.01979,0.25341 0.01979,0.62295c0,0.87088 -0.09933,2.91814 -0.79562,3.67358z" data-paper-data="{&quot;origPos&quot;:null,&quot;index&quot;:null}" id="Center_Leg" fill="#ffc93e" stroke="#603813" stroke-width="1.32684" stroke-linecap="butt" stroke-linejoin="miter"/><path d="M220.71663,188.27823c-0.55924,-0.22604 -0.94549,-0.70094 -1.11822,-1.37108c-0.42095,-1.64 0.33384,-4.89599 2.22151,-7.21714c1.28852,-1.58491 6.45323,-4.54999 7.70092,-4.28042c0.10354,0.02134 0.25039,0.10143 0.26439,0.1517c0.14561,0.18675 0.19437,0.52454 0.09321,0.8785c-0.28054,0.98268 -1.12795,2.37356 -2.10182,3.71776c-0.75755,1.0436 -1.61658,2.22918 -2.36013,3.52409l-0.67896,1.19803c-1.65103,2.93372 -2.59132,3.97609 -4.02089,3.39856z" data-paper-data="{&quot;origPos&quot;:null,&quot;index&quot;:null}" id="R_Arm" fill="#ffc93e" stroke="#603813" stroke-width="1.32684" stroke-linecap="butt" stroke-linejoin="miter"/><path d="M245.06789,161.99789v0c1.7317,0.94277 3.22307,-0.75513 4.53808,-2.25353c1.07806,-1.22727 2.40979,-2.79632 3.34132,-2.43566c0.25189,0.09776 0.42129,0.25222 0.51784,0.47215c0.35061,0.79961 -0.56232,2.73693 -1.04453,3.96328c-0.51265,1.30587 -0.88278,2.24924 -0.31861,2.62483c0.54249,0.36158 1.32383,-0.1867 2.13594,-0.57477c1.00155,-0.47767 1.99337,-0.9763 2.27088,-0.50782c0.25009,0.42283 -0.85719,2.22216 -1.54316,3.45522c-1.14898,2.06527 -2.45091,4.4059 -1.75915,6.08888l0.548,0.9126c0.95376,1.42378 3.25237,4.01452 2.81218,8.56476c-0.50504,5.22017 -5.50434,8.86298 -5.54943,8.89893l-0.18399,0.14561l0.08012,0.21993c0.50934,1.39999 0.81697,3.59107 0.40024,4.51585c-0.17419,0.38775 -0.38775,0.6013 -0.67834,0.679c-0.87147,0.23335 -0.81637,-0.52486 -1.43471,-1.33815c-3.08239,-4.05165 -5.49184,-3.84908 -5.49184,-3.84908l-0.08256,0.02374c-1.53496,0.45511 -3.15089,0.68661 -4.8031,0.68661c-8.90809,0 -15.56322,-5.3444 -15.56322,-12.93654c0,-3.58531 1.89253,-7.41212 4.43729,-10.56819l0.01889,-0.02315l0.01368,-0.02774c0,0 0.03717,-0.06886 0.05972,-0.12186c0.07066,-0.21777 1.71861,-5.35384 2.03451,-7.06208l0.13311,-0.76825c0.24091,-1.43623 0.85931,-5.3133 1.79993,-5.29898c0.62445,0.01065 0.82918,2.11641 1.01771,3.28003c0.20534,1.26658 0.12004,1.8688 0.76519,2.40703c0.79139,0.65769 1.93704,0.83557 1.95838,0.81334c1.2117,-1.2812 2.79509,-3.22371 2.79509,-3.22371l2.21481,-2.52282c2.17279,-2.54926 7.53244,-8.87422 8.65434,-8.26622c0.57996,0.31405 -1.20446,3.66535 -2.20508,5.64964c-1.83073,3.62911 -3.72297,7.38071 -1.8895,8.37712z" data-paper-data="{&quot;origPos&quot;:null,&quot;index&quot;:null}" id="Body" fill="#ffc93e" stroke="#603813" stroke-width="1.32684" stroke-linecap="round" stroke-linejoin="round"/><g data-paper-data="{&quot;origPos&quot;:null,&quot;index&quot;:null}" id="L_Eye" stroke="none" stroke-width="0.66342" stroke-linecap="butt" stroke-linejoin="miter"><path d="M241.04943,182.38919c-1.3701,0 -2.48042,-1.11031 -2.48042,-2.47956c0,-1.37011 1.11058,-2.48195 2.48042,-2.48195c1.37048,0.00061 2.48108,1.11184 2.48108,2.48195v0c0,1.36924 -1.11092,2.47956 -2.48108,2.47956z" id="White_1_" fill="#ffffff"/><path d="M241.94954,178.60835c0.31624,0.3159 0.51179,0.75237 0.51179,1.23397c0,0.48161 -0.19557,0.91813 -0.51179,1.23397c-0.31584,0.31622 -0.75235,0.51178 -1.23396,0.51178c-0.48155,0 -0.91808,-0.19556 -1.23397,-0.51178c-0.31617,-0.31585 -0.51172,-0.75237 -0.51172,-1.23397c0,-0.48161 0.19554,-0.91808 0.51172,-1.23397c0.3159,-0.31618 0.75241,-0.51178 1.23397,-0.51178c0.48161,0 0.91812,0.1956 1.23396,0.51178z" id="Pupil_1_" fill="#603813"/></g><g data-paper-data="{&quot;origPos&quot;:null,&quot;index&quot;:null}" id="R_Eye" stroke="none" stroke-width="0.66342" stroke-linecap="butt" stroke-linejoin="miter"><path d="M229.09864,182.38919c-1.36924,0 -2.48048,-1.11031 -2.48048,-2.47956c0,-1.37011 1.11064,-2.48195 2.48048,-2.48195c1.37075,0.00061 2.48136,1.11184 2.48136,2.48195v0c0,1.36924 -1.11061,2.47956 -2.48136,2.47956z" id="White" fill="#ffffff"/><path d="M228.76566,181.58742c-0.96376,0 -1.7457,-0.78037 -1.7457,-1.7451c0,-0.96348 0.78195,-1.74576 1.7457,-1.74576c0.9644,0 1.74542,0.78195 1.74542,1.74576v0c0,0.96409 -0.78101,1.7451 -1.74542,1.7451z" id="Pupil" fill="#603813"/></g><path d="M260.65941,189.48631c-1.29853,0.83005 -2.41494,-0.02466 -4.57372,-2.60841l-0.88703,-1.05092c-0.96711,-1.13832 -2.02749,-2.14415 -2.96323,-3.03481c-1.20385,-1.14201 -2.29131,-2.35525 -2.74638,-3.27031c-0.16419,-0.32959 -0.17885,-0.66985 -0.06888,-0.87942c0.004,-0.05299 0.13435,-0.15781 0.23152,-0.19863c1.17704,-0.49254 6.79711,1.47771 8.35369,2.80033c2.27937,1.93671 3.61753,4.99899 3.50269,6.68986c-0.04721,0.69149 -0.34024,1.22761 -0.84866,1.55231z" data-paper-data="{&quot;origPos&quot;:null,&quot;index&quot;:null}" id="L_Arm" fill="#ffc93e" stroke="#603813" stroke-width="1.32684" stroke-linecap="butt" stroke-linejoin="miter"/><path d="M236.6073,186.36375c-1.58123,1.35521 -3.83934,1.3534 -3.83934,1.3534" data-paper-data="{&quot;origPos&quot;:null,&quot;index&quot;:null}" id="Mouth" fill="none" stroke="#603813" stroke-width="1.32684" stroke-linecap="round" stroke-linejoin="round"/></g></g></svg>