<svg version="1.1" xmlns="http://www.w3.org/2000/svg" xmlns:xlink="http://www.w3.org/1999/xlink" width="46.08587" height="56.14238" viewBox="0,0,46.08587,56.14238"><g transform="translate(-216.95707,-142.69026)"><g data-paper-data="{&quot;isPaintingLayer&quot;:true}" fill="none" fill-rule="nonzero" stroke="none" stroke-width="none" stroke-linecap="none" stroke-linejoin="none" stroke-miterlimit="10" stroke-dasharray="" stroke-dashoffset="0" font-family="none" font-weight="none" font-size="none" text-anchor="none" style="mix-blend-mode: normal"><path d="M245.19119,188.09339c0,0 2.38138,3.27844 0.68739,4.51176c-0.90956,0.66599 -2.1721,-0.65159 -2.5209,-1.1283c-0.50499,-0.69205 -0.67143,-0.85862 -0.7791,-1.7263c-0.10729,-0.8658 -0.53462,-4.04942 -0.36132,-5.20193c0.27257,-1.80604 1.52033,-4.81173 2.42532,-0.60552c0,0 0.28512,2.38205 0.51225,3.97426l0.03638,0.17603v0v0v0v0v0v0v0v0v0v0v0v0v0v0v0v0v0v0v0v0v0v0v0v0v0v0v0v0v0v0v0v0v0v0v0v0v0zM244.67592,187.43194l0.51526,0.66145" data-paper-data="{&quot;origPos&quot;:null}" id="R_Arm_2_" fill="#f09629" stroke="#000000" stroke-width="0.90192" stroke-linecap="round" stroke-linejoin="miter"/><g data-paper-data="{&quot;origPos&quot;:null}" id="Body_1_" stroke-width="0.90192"><path d="M243.77702,184.32536c-0.16381,1.08453 -0.6002,3.90893 -0.53004,4.46725l-0.102,-0.2278c0.20929,0.58928 0.42085,1.42751 0.35372,2.29898c-0.13041,1.6919 -1.06271,2.59848 -2.05338,3.0824l-0.01138,0.05514l-0.85002,3.3778c0.01628,-0.00038 0.16075,0.00831 1.1776,0.10616c1.28829,0.12311 0.68852,0.89639 0.68852,0.89639l-2.40149,-0.04272l-0.12282,-0.00151l-4.85261,-0.08648c-0.05954,-0.19679 -0.01212,-0.80537 0.29536,-2.34467c0.11866,-0.60476 0.2286,-1.12494 0.32456,-1.55029l0.00075,-0.00302c-1.63941,-1.26958 -1.44262,-3.23426 -0.94292,-4.62435c0.31848,-0.88921 2.13643,-7.60139 2.13643,-7.60139c0,0 0.79014,-2.57771 4.06019,-1.68057c0,0 3.76409,0.62403 2.82989,3.87717c0,0.00114 -0.00037,0.00113 -0.00037,0.00151v0v0v0v0v0v0v0v0v0v0v0v0v0v0v0v0v0v0v0v0v0v0v0v0v0v0v0v0v0v0v0v0v0v0v0v0v0zM238.98848,194.38891c0,0 0.96377,0.15487 2.45645,-0.44197M243.2466,188.79299c-0.08531,-0.38985 -0.59297,-1.07811 -0.59297,-1.07811M235.98722,193.16121c0,0 -0.10956,0.34076 -0.29343,1.19292" id="Body_2_" fill="#f09629" stroke="#000000" stroke-linecap="round" stroke-linejoin="round"/><path d="M240.15433,198.29516c-0.00302,0 -0.00604,0 -0.00797,0c-0.10503,-0.00491 -0.18614,-0.0929 -0.18161,-0.19679c0.0042,-0.09369 -0.02085,-0.16545 -0.07808,-0.22667c-0.24114,-0.25457 -0.97175,-0.26594 -1.40851,-0.27273c-0.13117,-0.00189 -0.24794,-0.00378 -0.33971,-0.00982c-0.05723,-0.00415 -0.10993,-0.03399 -0.14253,-0.08081c-0.0326,-0.04725 -0.04246,-0.10654 -0.02618,-0.16167c0.1566,-0.52659 0.30824,-1.05919 0.45992,-1.59145l0.19184,-0.67241c0.02878,-0.10045 0.13268,-0.16016 0.2343,-0.12957c0.10083,0.02837 0.15886,0.13335 0.13041,0.23346l-0.19184,0.67127c-0.12928,0.4548 -0.25893,0.91037 -0.39165,1.36139c0.02614,0.00038 0.05345,0.00075 0.08115,0.00151c0.56033,0.00793 1.32773,0.02002 1.67881,0.39098c0.1289,0.13557 0.18958,0.30483 0.18161,0.50125c-0.00528,0.10276 -0.08909,0.18206 -0.18995,0.18206v0v0v0v0v0v0v0v0v0v0v0v0v0v0v0v0v0v0v0v0v0v0v0v0v0v0v0v0v0v0v0v0v0v0v0v0v0v0z" id="Leg_Separation" fill="#000000" stroke="none" stroke-linecap="butt" stroke-linejoin="miter"/></g><path d="M237.58417,185.59498l-1.24394,2.04021l0.00567,-0.03554c0.0402,1.43356 -0.05724,3.9229 -1.20261,4.33088c-0.61685,0.21831 -2.06706,0.56965 -1.93514,-3.37365c0.10578,-3.17648 2.95237,-5.9835 4.05491,-6.95391c0,0 0.98119,0.54392 1.01988,1.59371c0.03826,1.0505 -0.69951,2.39679 -0.69876,2.3983v0v0v0v0v0v0v0v0v0v0v0v0v0v0v0v0v0v0v0v0v0v0v0v0v0v0v0v0v0v0v0v0v0v0v0v0v0zM236.3459,187.59965c0,-0.60817 -0.1691,-0.98588 -0.1691,-0.98588" data-paper-data="{&quot;origPos&quot;:null}" id="L_Arm_2_" fill="#f09629" stroke="#000000" stroke-width="0.90192" stroke-linecap="round" stroke-linejoin="miter"/><path d="M224.6457,158.38405c0,0 0.35259,-1.43997 3.35309,-4.50048c2.99899,-3.059 6.24554,-4.11252 8.39867,-4.99192c2.15312,-0.87939 3.59877,-5.27334 3.59877,-5.27334c0,0 1.98251,2.45687 4.02,4.69085c2.07919,2.2782 6.92081,4.27495 12.10893,9.47767c0.61912,0.62289 1.14538,1.27487 1.58784,1.94387l0.08983,0.07821c1.15864,1.00137 5.26889,4.99641 4.7415,10.81296c-0.40265,4.43171 -2.42498,5.83203 -3.40579,6.20786l-0.00797,0.03248c0.50503,-0.99684 0.80567,-2.05494 0.94787,-3.12886c0.46898,-3.55156 -1.4521,-5.85885 -2.68354,-8.94805c-1.59657,-4.00561 -5.96388,-6.25922 -11.61871,-6.14702c-10.7626,0.21228 -13.13295,6.24072 -13.13295,6.24072l-0.00797,0.07822c1.99653,3.69435 2.79389,11.88876 -1.29438,14.3411c-4.40368,2.6378 -10.9241,1.71724 -13.46355,-8.47512c-2.32449,-9.32804 4.63571,-12.2669 6.68306,-12.24273l0.08531,-0.19642v0v0v0v0v0v0v0v0v0v0v0v0v0v0v0v0v0v0v0v0v0v0v0v0v0v0v0v0v0v0v0v0v0v0v0v0v0zM257.71262,159.73072c0,0 2.8238,4.46985 1.90476,9.99364M224.5604,158.5801c1.97987,0.05329 3.30686,1.46527 3.30686,1.46527M232.63489,164.95647c-0.33325,-0.51791 -0.56566,-0.94439 -0.56566,-0.94439" data-paper-data="{&quot;origPos&quot;:null}" id="Head_2_" fill="#f09629" stroke="#000000" stroke-width="0.90192" stroke-linecap="round" stroke-linejoin="miter"/><path d="M259.74892,175.34559c0,0 0.89098,-1.61033 1.4923,-4.56279c0.60057,-2.95397 -0.20095,-6.97052 -0.20095,-6.97052c0.99525,1.79844 1.74935,4.10647 1.50556,6.80961c-0.39052,4.31762 -2.40144,5.79007 -3.40654,6.20786l0.60963,-1.48416v0v0v0v0v0v0v0v0v0v0v0v0v0v0v0v0v0v0v0v0v0v0v0v0v0v0v0v0v0v0v0v0v0v0z" data-paper-data="{&quot;origPos&quot;:null}" id="R_Ear" fill="#f09629" stroke="#000000" stroke-width="0.90192" stroke-linecap="butt" stroke-linejoin="miter"/><g data-paper-data="{&quot;origPos&quot;:null}" id="L_Ear" stroke="#231f20" stroke-width="0.90192" stroke-linejoin="miter"><path d="M218.109,171.73134v0v0v0v0v0v0v0v0v0v0v0v0v0v0v0v0v0v0v0v0v0v0v0v0v0v0v0v0v0v0v0v0v0v0v0v0v0c-0.45422,-1.74897 -0.84964,-4.47631 -0.4853,-6.59734c0.37457,-2.18829 1.6663,-3.60636 3.08807,-3.95009c2.66193,-0.64635 5.87966,3.17682 7.1896,8.53705c1.23295,5.05272 0.334,9.66691 -2.00224,10.72346c0,0 -0.7651,0.09743 -2.30897,-0.74756c-1.5427,-0.84314 -2.87651,-2.29181 -3.42056,-3.2286c-0.54556,-0.93571 -1.60525,-2.98497 -2.06061,-4.73692z" id="Outer_Ear" fill="#404041" stroke-linecap="butt"/><path d="M219.7628,167.27391c1.02403,-0.43705 2.762,1.3206 3.88237,3.92744c1.11919,2.60494 1.19771,5.07348 0.17477,5.51016c-1.02479,0.4363 -2.762,-1.32211 -3.88162,-3.92815c-1.12108,-2.60571 -1.19883,-5.07239 -0.17552,-5.50944v0v0v0v0v0v0v0v0v0v0v0v0v0v0v0v0v0v0v0v0v0v0v0v0v0v0v0v0v0v0v0v0v0v0v0v0v0zM224.26656,176.28582c-4.21675,-2.66277 -4.16976,-9.07762 -4.16976,-9.07762" id="Inner_Ear" fill="#929497" stroke-linecap="round"/></g><path d="M230.99019,179.53897v0v0v0v0v0v0v0v0v0v0v0v0v0v0v0v0v0v0v0v0v0v0v0v0v0v0v0v0v0v0v0v0v0v0v0v0v0l-0.02275,-0.02874c0.12588,-0.06797 0.25025,-0.13897 0.37306,-0.21228c4.09356,-2.45536 3.28789,-10.66869 1.28678,-14.35435l0.01632,-0.06495c0,0 2.3704,-6.0292 13.13484,-6.24072c5.65488,-0.1122 10.02138,2.14142 11.61832,6.14703c1.23106,3.0892 3.15252,5.39649 2.68316,8.94805c-0.49026,3.69586 -2.85985,7.22627 -8.96512,8.66549c-6.10561,1.44413 -5.85956,0.67014 -7.90652,1.54651c-2.04621,0.88091 -2.15199,1.26731 -2.15199,1.26731c0,0 0.65554,-1.27827 -1.96695,-1.93141c-3.95974,-0.98328 -7.60588,-3.40613 -8.09916,-3.74193z" data-paper-data="{&quot;origPos&quot;:null}" id="Face" fill="#e6e7e8" stroke="#000000" stroke-width="0.90192" stroke-linecap="round" stroke-linejoin="miter"/><path d="M251.4682,172.46266c0,0 -0.30748,1.14076 -3.29699,1.35912c-2.99064,0.21982 -5.71664,-1.05051 -5.71664,-1.05051" data-paper-data="{&quot;origPos&quot;:null}" id="Mouth" fill="none" stroke="#231f20" stroke-width="0.90192" stroke-linecap="round" stroke-linejoin="miter"/><path d="M239.2702,165.81224c0.42169,0 0.80361,0.17077 1.08042,0.44624c0.27648,0.2758 0.44788,0.6563 0.44788,1.07644c0,0.42014 -0.1714,0.80067 -0.44788,1.07647c-0.27681,0.27546 -0.65873,0.44625 -1.08042,0.44625c-0.42169,0 -0.80361,-0.17078 -1.08042,-0.44625c-0.27648,-0.2758 -0.44788,-0.65633 -0.44788,-1.07647c0,-0.42014 0.1714,-0.80064 0.44788,-1.07644c0.27681,-0.27546 0.65873,-0.44624 1.08042,-0.44624v0v0v0v0v0v0v0v0v0v0v0v0v0v0v0v0v0v0v0v0v0v0v0v0v0v0v0v0v0v0v0v0v0z" data-paper-data="{&quot;origPos&quot;:null}" id="Left_Eye" fill="#ffffff" stroke="#000000" stroke-width="1.5" stroke-linecap="butt" stroke-linejoin="miter"/><path d="M253.07497,165.70734c0.42169,0 0.80362,0.17078 1.08043,0.44624c0.27648,0.2758 0.44787,0.6563 0.44787,1.07644c0,0.42014 -0.1714,0.80068 -0.44787,1.07648c-0.27681,0.27546 -0.65873,0.44624 -1.08043,0.44624c-0.42169,0 -0.80361,-0.17078 -1.08042,-0.44624c-0.27648,-0.2758 -0.44788,-0.65633 -0.44788,-1.07648c0,-0.42014 0.17141,-0.80064 0.44788,-1.07644c0.27681,-0.27546 0.65872,-0.44624 1.08042,-0.44624v0v0v0v0v0v0v0v0v0v0v0v0v0v0v0v0v0v0v0v0v0v0v0v0v0v0v0v0v0v0v0v0v0z" data-paper-data="{&quot;origPos&quot;:null}" id="Left_Eye" fill="#ffffff" stroke="#000000" stroke-width="1.5" stroke-linecap="butt" stroke-linejoin="miter"/></g></g></svg>