<svg version="1.1" xmlns="http://www.w3.org/2000/svg" xmlns:xlink="http://www.w3.org/1999/xlink" width="295.38208" height="950.9876"><g transform="translate(-139.5,352.4876)"><g data-paper-data="{&quot;isPaintingLayer&quot;:true}" fill="none" fill-rule="nonzero" stroke="none" stroke-width="none" stroke-linecap="butt" stroke-linejoin="miter" stroke-miterlimit="10" stroke-dasharray="" stroke-dashoffset="0" font-family="none" font-weight="none" font-size="none" text-anchor="none" style="mix-blend-mode: normal"><path d="M386.61815,-241.4944v42.47191l-69.8,-13.8c0,0 -10.43011,-19.33093 4.01434,-28.09497c12.87395,-7.81117 65.78566,-0.57693 65.78566,-0.57693z" data-paper-data="{&quot;origPos&quot;:null,&quot;index&quot;:null}" fill="#696969" stroke-width="0"/><path d="M386.61819,-241.4944v42.47191c0,0 -53.19177,0 -68.72914,0c-5.17912,0 -4.27086,-26 -4.27086,-26c0,0 31.52429,17.12009 47.22109,7.59619c11.6216,-7.05131 25.77891,-24.0681 25.77891,-24.0681z" data-paper-data="{&quot;origPos&quot;:null,&quot;index&quot;:null}" fill="#626262" stroke-width="0"/><path d="M139.5,596c0,-1.38071 1.11929,-2.5 2.5,-2.5c1.38071,0 2.5,1.11929 2.5,2.5c0,1.38071 -1.11929,2.5 -2.5,2.5c-1.38071,0 -2.5,-1.11929 -2.5,-2.5z" data-paper-data="{&quot;origPos&quot;:null}" fill="#9966ff" stroke-width="0.5"/><path d="" data-paper-data="{&quot;origPos&quot;:null}" fill="#9966ff" stroke-width="0.5"/><path d="M369.16332,-66.28634l5.66428,-150.41586l16.20488,-1.78541l15.51267,14.47821l21.10021,-10.70383l-5.66428,150.41586z" data-paper-data="{&quot;origPos&quot;:null,&quot;origRot&quot;:0}" fill="#696053" stroke-width="0"/><path d="M373.6633,-66.28637l5.66428,-150.41586l16.20488,-1.7854l15.51267,14.47821z" data-paper-data="{&quot;origPos&quot;:null,&quot;origRot&quot;:0}" fill="#696053" stroke-width="0"/><path d="M371.90003,-70.25134l5.66428,-150.41586l16.20488,-1.78541l15.51267,14.47821l21.10021,-10.70383l-5.66428,150.41586z" data-paper-data="{&quot;origPos&quot;:null,&quot;origRot&quot;:0}" fill="#8b7f6e" stroke-width="0"/><path d="M363.16332,-57.28631l5.66428,-150.41586l16.20488,-1.78541l15.51267,14.47821l21.10021,-10.70383l-5.66428,150.41586z" data-paper-data="{&quot;origPos&quot;:null,&quot;origRot&quot;:0}" fill="#696969" stroke-width="0"/><path d="M371.40004,-68.25133l5.66428,-150.41586l16.20488,-1.78541l15.51267,14.47821l21.10021,-10.70383l-5.66428,150.41586z" data-paper-data="{&quot;origPos&quot;:null,&quot;origRot&quot;:0}" fill="#8c8c8c" stroke-width="0"/><path d="M347.69297,-49.19945c-25.77779,-8.76404 -36.07482,-31.89497 -36.07482,-31.89497h116c0,0 0,15.30099 0,25.0944c0,6.7818 3.78922,15.17633 -20.70657,16.06938c-10.52672,0.38378 -37.02964,-1.72489 -59.21861,-9.26881z" data-paper-data="{&quot;origPos&quot;:null,&quot;index&quot;:null}" fill="#696969" stroke-width="0"/><path d="M406.91158,-69.91104c-22.1317,-0.49717 -37.02965,-0.46862 -59.21861,-2.51815c-25.77779,-2.38101 -36.07482,-8.66523 -36.07482,-8.66523h116c0,0 0,4.15697 0,6.81765c0,1.84248 -13.32934,4.53145 -20.70657,4.36573z" data-paper-data="{&quot;origPos&quot;:null,&quot;index&quot;:null}" fill="#626262" stroke-width="0"/><path d="M368.66332,-200.28633l5.66428,-150.41586l16.20488,-1.78541l15.51267,14.47821l21.10021,-10.70383l-5.66428,150.41586z" data-paper-data="{&quot;origPos&quot;:null,&quot;origRot&quot;:0}" fill="#696969" stroke-width="0"/><path d="M375.90003,-195.45009l5.71271,-151.70186l16.34343,-1.80067l15.6453,14.60199l21.28061,-10.79534l-5.71271,151.70186z" data-paper-data="{&quot;origPos&quot;:null,&quot;origRot&quot;:0}" fill="#8c8c8c" stroke-width="0"/></g></g></svg>