<svg version="1.1" xmlns="http://www.w3.org/2000/svg" xmlns:xlink="http://www.w3.org/1999/xlink" width="41.10155" height="53.33786" viewBox="0,0,41.10155,53.33786"><g transform="translate(-219.47527,-147.34279)"><g data-paper-data="{&quot;isPaintingLayer&quot;:true}" fill="none" fill-rule="nonzero" stroke="none" stroke-width="0.77378" stroke-linecap="none" stroke-linejoin="none" stroke-miterlimit="10" stroke-dasharray="" stroke-dashoffset="0" font-family="none" font-weight="none" font-size="none" text-anchor="none" style="mix-blend-mode: normal"><path d="M247.643,180.05559c0,0.00063 0.40443,-0.64001 0.87532,-0.66058c0.47031,-0.02027 0.5465,0.4227 0.5465,0.4227c0.78625,3.05091 2.56647,9.78898 3.16503,10.57618c0.77666,1.02126 3.20105,4.89162 1.03219,6.36483c-2.17144,1.47322 -5.70998,-1.64359 -6.19637,-6.84894c-0.40343,-4.34607 -0.80686,-6.99485 0.57733,-9.8542z" data-paper-data="{&quot;origPos&quot;:null}" id="R_Arm" fill="#ba651a" stroke="#000000" stroke-linecap="butt" stroke-linejoin="miter"/><path d="M245.11059,197.54918c0.01512,-0.66764 0.19575,-1.3694 0.49728,-2.35851c0,0 0.22375,-0.70624 0.35491,-1.26816c0.0032,-0.01413 0.08068,-0.56703 0.71975,-0.47123c0.50949,0.07619 0.91067,0.32017 0.91034,1.0444c0,0.03087 -0.03598,0.11669 -0.03598,0.11669c-0.15496,0.49184 -0.37933,1.37356 -0.41277,2.42826c-0.05172,1.62722 0.07585,3.22003 -0.66026,3.25314c-1.1193,0.05048 -1.39835,-1.60116 -1.37326,-2.74461z" data-paper-data="{&quot;origPos&quot;:null}" id="R_Leg_1_" fill="#ba651a" stroke="#000000" stroke-linecap="butt" stroke-linejoin="miter"/><path d="M242.10496,197.54918c0.01546,-0.66764 0.1958,-1.3694 0.49765,-2.35851c0,0 0.22338,-0.70624 0.35487,-1.26816c0.0032,-0.01413 0.08068,-0.56703 0.71941,-0.47123c0.50953,0.07619 0.91071,0.32017 0.91038,1.0444c0,0.03087 -0.03601,0.11669 -0.03601,0.11669c-0.15491,0.49184 -0.3793,1.37356 -0.41241,2.42826c-0.0521,1.62722 0.07586,3.22003 -0.66062,3.25314c-1.1193,0.05048 -1.39798,-1.60116 -1.37326,-2.74461z" data-paper-data="{&quot;origPos&quot;:null}" id="L_Leg" fill="#ba651a" stroke="#000000" stroke-linecap="butt" stroke-linejoin="miter"/><g data-paper-data="{&quot;origPos&quot;:null}" id="Body_1_" stroke="#000000" stroke-linecap="butt" stroke-linejoin="miter"><path d="M246.89854,194.49631c0,-0.00063 -0.73038,0.0508 -1.23954,-0.02538c-0.50886,-0.07619 -1.60183,-0.2292 -2.23799,-0.53392c-0.63583,-0.30509 -1.32021,-0.85604 -1.32021,-0.85604c-0.24112,-0.19833 -0.43591,-0.39088 -0.57703,-0.55581c-0.80748,-0.93992 -1.27713,-2.8886 -1.27713,-2.8886c-0.17166,-0.82131 -0.18483,-1.44397 -0.18354,-1.65837c0.06751,-0.01254 0.05849,-0.62008 0.10286,-0.62942c0.30248,-0.0646 0.06622,-0.49341 1.34754,-3.30811c0.70333,-1.54459 0.27996,-1.9763 0.70076,-2.89919c0,0 1.13152,-0.90008 3.64822,-0.8975c0.68435,0.00066 2.04701,0.19479 2.68765,0.5288c0.54169,0.28253 0.45682,0.74866 0.61497,0.94927l0.28129,2.37392l0.02634,0.06206c0.14657,0.98334 0.32561,2.01873 0.51497,2.72434c0.47027,1.74711 1.81333,6.2481 -1.6796,7.32208c-0.49022,0.15109 -0.96081,0.24465 -1.40957,0.29189z" id="Body" fill="#ba651a"/><path d="M250.62611,191.06125l-0.02089,0.0582c-0.49246,0.86664 -1.8744,1.08587 -2.62629,1.08587c-1.50184,0 -2.95898,-2.35851 -2.95898,-5.0025c0,-2.643 0.84445,-4.44893 2.72176,-4.78681c0.85734,-0.1533 1.16367,0.46292 1.52917,0.78534l0.07295,0.05979c0.16264,1.20451 0.39412,2.7147 0.64679,3.64884c0.2478,0.91935 0.73806,2.60507 0.63549,4.15127z" id="Belly" fill="#d0d2d3"/></g><path d="M242.25768,180.96306c0.00063,0 0.67857,-0.33916 1.09197,-0.11283c0.4134,0.22725 0.24751,0.64546 0.24751,0.64546c-0.90972,3.01656 -2.87958,9.70219 -2.77639,10.68453c0.13502,1.27588 0.20123,5.84342 -2.41862,5.97844c-2.62019,0.13406 -4.03009,-4.36602 -1.74649,-9.06795c1.9088,-3.92657 2.93554,-6.39986 5.60201,-8.12765z" data-paper-data="{&quot;origPos&quot;:null}" id="L_Arm" fill="#ba651a" stroke="#000000" stroke-linecap="butt" stroke-linejoin="miter"/><g data-paper-data="{&quot;origPos&quot;:null}" id="Head_1_"><path d="M259.52336,169.85322c0.03793,0.13535 0.94187,3.44217 -1.34269,6.50467c-1.5475,2.07273 -4.24355,4.72154 -11.13299,5.31591c-3.37337,0.29027 -6.37605,-0.57991 -8.53465,-1.90976c0.03182,0.01961 0.06173,0.04018 0.09389,0.05945l-0.03087,-0.01865c-2.00555,-0.90553 -4.5486,-2.30645 -6.23721,-4.65146c0,0 -0.90876,1.89596 -4.98318,1.97502c-5.14878,0.10157 -7.22732,-2.75263 -7.49349,-4.90413c-0.27033,-2.18236 0.39637,-4.68391 4.74759,-5.42196c3.64274,-0.61625 5.62291,0.4841 6.17066,0.85796l0.04246,0.04853c0.40148,-1.24177 1.07074,-1.81367 1.07074,-1.81367l-0.05496,-0.0196c-1.53333,-0.57538 -3.55081,-1.49445 -6.01957,-2.96284c-5.16805,-3.07471 -5.11695,-8.49863 -3.68744,-10.44889c1.47969,-2.01619 5.86303,-4.54926 12.05525,-1.10099c3.48459,1.939 5.24806,4.92565 6.12467,7.16393l0.18516,-0.07328c0.23883,-0.13759 0.49923,-0.27323 0.77794,-0.40148l0.0363,-0.06365c-1.35814,-3.19079 -3.40839,-9.75171 2.42893,-10.258c5.55154,-0.48153 5.07383,6.20797 4.62607,9.0522l0.04371,0.00678c0.71716,0.05043 1.44559,0.15557 2.17368,0.32657c-0.01608,-0.03345 -0.84412,-1.7712 0.21922,-4.30265c0.83324,-1.98146 4.56534,-6.73196 7.59697,-4.20786c3.19814,2.66356 1.462,5.67625 -0.20252,7.52399c-1.44205,1.59988 -3.10076,2.25373 -3.85328,2.54237l0.02123,0.01351c0.18516,0.11637 0.37032,0.23754 0.55319,0.36678c5.09028,3.58229 4.65375,10.99893 4.65375,10.99893l-0.01126,-0.05272c-0.01927,-0.08292 -0.03311,-0.13115 -0.0373,-0.14499zM253.57936,158.23163c0.30763,0.16235 0.60848,0.33787 0.90103,0.52527M248.35182,156.96157c-0.06555,0.35682 -0.14046,0.71172 -0.22243,1.06468M242.12204,159.70742c-0.30605,-0.57862 -0.58024,-1.1746 -0.83515,-1.77731M230.53677,170.01586c-0.03249,-0.7133 0.03407,-1.43333 0.22953,-2.12125M226.55233,166.62001M225.90267,177.03455" id="Head" fill="#ba651a" stroke="#000000" stroke-linecap="round" stroke-linejoin="round"/><path d="M225.92901,177.07567c-4.11205,-0.39861 -5.82668,-2.91045 -6.06685,-4.8514c-0.27033,-2.18236 0.39637,-4.68391 4.74759,-5.42196c0.63296,-0.10739 1.21577,-0.16268 1.7484,-0.17905l0.04117,0.00258c-1.7346,3.35468 -1.89854,7.30022 -0.49666,10.40838l0.02634,0.04146z" id="Hair1" fill="#f1f1f2" stroke="#000000" stroke-linecap="butt" stroke-linejoin="miter"/><path d="M225.01543,162.38677c-4.35476,-3.13354 -4.23486,-8.07979 -2.88407,-9.92333c1.40924,-1.92101 5.45798,-4.31105 11.19373,-1.54845l-0.05754,0.01894c-3.29203,1.03061 -6.14013,3.62313 -7.47708,7.24144c-0.51239,1.38934 -0.75671,2.80888 -0.76058,4.19598l-0.01446,0.01541z" id="Hair2" fill="#f1f1f2" stroke="#000000" stroke-linecap="butt" stroke-linejoin="miter"/><path d="M239.86797,152.86621c-0.24237,-2.52244 0.49408,-4.84401 3.87256,-5.13652c3.40873,-0.29509 4.54477,2.11261 4.80961,4.67398l-0.026,-0.02639c-2.84876,-1.10514 -5.96074,-0.86792 -8.64233,0.44909z" id="Hair3" fill="#f1f1f2" stroke="#000000" stroke-linecap="butt" stroke-linejoin="miter"/><path d="M255.17118,148.17234c1.06048,-0.44264 2.18623,-0.43525 3.22805,0.43301c2.04834,1.70723 2.07277,3.55659 1.3871,5.15165l-0.03473,0.00258c-0.83415,-2.30259 -2.40384,-4.29498 -4.58524,-5.57568l0.00482,-0.01155z" id="Hair4" fill="#f1f1f2" stroke="#000000" stroke-linecap="butt" stroke-linejoin="miter"/><path d="M255.05868,165.34384c2.80339,2.04157 3.79254,2.16566 4.4631,4.50327c0,0 0.99169,3.38396 -1.34081,6.51107c-1.54778,2.07277 -4.24355,4.72125 -11.13295,5.31594c-6.88849,0.59274 -12.23913,-3.64789 -11.98774,-6.77885c0.33401,-4.16769 3.35472,-3.62347 9.13803,-7.18935c5.78265,-3.56402 5.8627,-7.79754 5.8627,-7.79754c0,0 3.049,4.01368 4.99768,5.43546z" id="Face_1_" fill="#e6e7e8" stroke="#000000" stroke-linecap="butt" stroke-linejoin="miter"/><g id="L_Eye" stroke="none" stroke-linecap="butt" stroke-linejoin="miter"><path d="M245.47896,171.43287c0.04632,0.21956 -0.09322,0.43653 -0.31307,0.48377c-0.22084,0.04823 -0.43783,-0.09771 -0.48349,-0.31182c-0.02376,-0.10735 -0.00482,-0.21569 0.05367,-0.30634c0.05949,-0.09127 0.15014,-0.15491 0.25849,-0.17806c0.02925,-0.0061 0.05883,-0.00968 0.0887,-0.00968c0.1884,0 0.35491,0.13535 0.3957,0.32213z" id="Inner_Eye_1_" fill="#ffffff"/><path d="M246.10519,171.29847c0.12052,0.56383 -0.2395,1.12188 -0.80428,1.24435c-0.07333,0.01578 -0.14756,0.02381 -0.2218,0.02381c-0.49054,0 -0.92097,-0.34813 -1.02255,-0.8258c-0.06044,-0.27356 -0.01063,-0.5539 0.14079,-0.78825c0.15205,-0.23559 0.38639,-0.39794 0.66025,-0.45739c0.55032,-0.12056 1.12737,0.24909 1.24759,0.80328zM244.6824,171.60515c0.04532,0.21411 0.26264,0.35972 0.48316,0.31182c0.22018,-0.04728 0.35972,-0.26426 0.3134,-0.48381c-0.0408,-0.18674 -0.20701,-0.32209 -0.3957,-0.32209c-0.02958,0 -0.05916,0.00353 -0.0887,0.00964c-0.10835,0.02314 -0.19899,0.08649 -0.25849,0.1781c-0.05849,0.09065 -0.07744,0.19899 -0.05367,0.30634z" id="Outer_Eye_1_" fill="#231f20"/></g><g id="R_Eye" stroke="none" stroke-linecap="butt" stroke-linejoin="miter"><path d="M255.42256,170.82014c0.04599,0.21927 -0.09323,0.43654 -0.31312,0.48415c-0.22052,0.0479 -0.4375,-0.09775 -0.48344,-0.31216c-0.02347,-0.10735 -0.00482,-0.21569 0.05367,-0.30634c0.05978,-0.09127 0.15043,-0.15495 0.25844,-0.17809c0.02958,-0.0064 0.05916,-0.00964 0.08874,-0.00964c0.18869,0 0.3552,0.13535 0.3957,0.32209z" id="Inner_Eye" fill="#ffffff"/><path d="M256.04874,170.68517c0.12089,0.56445 -0.23945,1.1225 -0.80428,1.24464c-0.07328,0.01546 -0.14752,0.02347 -0.2218,0.02347c-0.49054,0 -0.92065,-0.3478 -1.02255,-0.82581c-0.06011,-0.27356 -0.0106,-0.55386 0.14079,-0.7882c0.15205,-0.23564 0.3864,-0.39828 0.66063,-0.45744c0.55032,-0.12056 1.12732,0.24914 1.24722,0.80333zM254.62567,170.9918c0.04599,0.21445 0.26326,0.36039 0.48315,0.31182c0.22018,-0.04724 0.35973,-0.26455 0.31341,-0.48378c-0.0405,-0.18678 -0.20668,-0.32212 -0.39571,-0.32212c-0.02925,0 -0.05883,0.00324 -0.0887,0.00968c-0.10801,0.02314 -0.19866,0.08678 -0.25848,0.17806c-0.05849,0.09065 -0.07715,0.19899 -0.05367,0.30634z" id="Outer_Eye" fill="#231f20"/></g><path d="M255.02137,173.26676c0,0 -0.54709,1.18133 -3.8446,1.66162c-3.29814,0.48282 -5.31462,-0.94702 -5.31462,-0.94702" id="Mouth" fill="none" stroke="#231f20" stroke-linecap="round" stroke-linejoin="miter"/></g></g></g></svg>