<svg version="1.1" xmlns="http://www.w3.org/2000/svg" xmlns:xlink="http://www.w3.org/1999/xlink" width="36.875" height="36.74231" viewBox="0,0,36.875,36.74231"><g transform="translate(-221.5625,-161.62885)"><g data-paper-data="{&quot;isPaintingLayer&quot;:true}" fill-rule="nonzero" stroke-linecap="butt" stroke-linejoin="miter" stroke-miterlimit="10" stroke-dasharray="" stroke-dashoffset="0" style="mix-blend-mode: normal"><path d="M239.49907,195.87116c-8.57025,-0.26357 -15.43657,-7.26672 -15.43657,-15.86731c0,-8.76752 7.13546,-15.875 15.9375,-15.875c8.80204,0 15.9375,7.10748 15.9375,15.875c0,1.56195 -0.22647,3.07121 -0.64847,4.49699" data-paper-data="{&quot;origPos&quot;:null}" fill="none" stroke="#bababa" stroke-width="5"/><path d="M236.88246,195.83736c0,-1.38071 1.11929,-2.5 2.5,-2.5c1.38071,0 2.5,1.11929 2.5,2.5c0,1.38071 -1.11929,2.5 -2.5,2.5c-1.38071,0 -2.5,-1.11929 -2.5,-2.5z" fill="#bababa" stroke="none" stroke-width="0.5"/><path d="M252.86491,184.17449c0,-1.38071 1.11929,-2.5 2.5,-2.5c1.38071,0 2.5,1.11929 2.5,2.5c0,1.38071 -1.11929,2.5 -2.5,2.5c-1.38071,0 -2.5,-1.11929 -2.5,-2.5z" fill="#bababa" stroke="none" stroke-width="0.5"/></g></g></svg>