<svg version="1.1" viewBox="0.0 0.0 960.0 720.0" fill="none" stroke="none" stroke-linecap="square" stroke-miterlimit="10" xmlns:xlink="http://www.w3.org/1999/xlink" xmlns="http://www.w3.org/2000/svg"><clipPath id="p.0"><path d="m0 0l960.0 0l0 720.0l-960.0 0l0 -720.0z" clip-rule="nonzero"/></clipPath><g clip-path="url(#p.0)"><path fill="#000000" fill-opacity="0.0" d="m0 0l960.0 0l0 720.0l-960.0 0z" fill-rule="evenodd"/><path fill="#000000" fill-opacity="0.0" d="m55.72441 47.422573l993.3858 0l0 695.4016l-993.3858 0z" fill-rule="evenodd"/><path stroke="#000000" stroke-width="1.0" stroke-linejoin="round" stroke-linecap="butt" d="m55.72441 47.422573l993.3858 0l0 695.4016l-993.3858 0z" fill-rule="evenodd"/><path fill="#000000" d="m76.646286 72.588196q3.203125 0 5.421875 1.59375q2.21875 1.59375 3.09375 4.28125l0 -5.59375l3.640625 0l0 21.953125l-3.640625 0l0 -5.59375q-0.875 2.671875 -3.09375 4.28125q-2.21875 1.59375 -5.421875 1.59375q-2.921875 0 -5.203125 -1.359375q-2.28125 -1.359375 -3.578125 -3.890625q-1.296875 -2.546875 -1.296875 -5.984375q0 -3.453125 1.296875 -6.0q1.296875 -2.5625 3.578125 -3.921875q2.28125 -1.359375 5.203125 -1.359375zm1.03125 3.234375q-3.359375 0 -5.375 2.140625q-2.015625 2.140625 -2.015625 5.90625q0 3.75 2.015625 5.890625q2.015625 2.140625 5.375 2.140625q2.171875 0 3.859375 -1.0q1.703125 -1.0 2.65625 -2.8125q0.96875 -1.828125 0.96875 -4.21875q0 -2.40625 -0.96875 -4.25q-0.953125 -1.84375 -2.65625 -2.8125q-1.6875 -0.984375 -3.859375 -0.984375zm29.053726 -3.234375q2.90625 0 5.1875 1.359375q2.28125 1.359375 3.578125 3.921875q1.3125 2.546875 1.3125 6.0q0 3.4375 -1.3125 5.984375q-1.296875 2.53125 -3.578125 3.890625q-2.28125 1.359375 -5.1875 1.359375q-3.203125 0 -5.421875 -1.609375q-2.21875 -1.625 -3.0625 -4.265625l0 16.0l-3.640625 0l0 -32.359375l3.640625 0l0 5.59375q0.84375 -2.640625 3.0625 -4.25q2.21875 -1.625 5.421875 -1.625zm-1.046875 3.234375q-2.125 0 -3.84375 0.984375q-1.71875 0.96875 -2.6875 2.8125q-0.953125 1.84375 -0.953125 4.25q0 2.390625 0.953125 4.21875q0.96875 1.8125 2.6875 2.8125q1.71875 1.0 3.84375 1.0q3.40625 0 5.421875 -2.140625q2.015625 -2.140625 2.015625 -5.890625q0 -3.765625 -2.015625 -5.90625q-2.015625 -2.140625 -5.421875 -2.140625zm28.006851 -3.234375q2.90625 0 5.1875 1.359375q2.28125 1.359375 3.578125 3.921875q1.3125 2.546875 1.3125 6.0q0 3.4375 -1.3125 5.984375q-1.296875 2.53125 -3.578125 3.890625q-2.28125 1.359375 -5.1875 1.359375q-3.203125 0 -5.421875 -1.609375q-2.21875 -1.625 -3.0625 -4.265625l0 16.0l-3.640625 0l0 -32.359375l3.640625 0l0 5.59375q0.84375 -2.640625 3.0625 -4.25q2.21875 -1.625 5.421875 -1.625zm-1.046875 3.234375q-2.125 0 -3.84375 0.984375q-1.71875 0.96875 -2.6875 2.8125q-0.953125 1.84375 -0.953125 4.25q0 2.390625 0.953125 4.21875q0.96875 1.8125 2.6875 2.8125q1.71875 1.0 3.84375 1.0q3.40625 0 5.421875 -2.140625q2.015625 -2.140625 2.015625 -5.890625q0 -3.765625 -2.015625 -5.90625q-2.015625 -2.140625 -5.421875 -2.140625zm19.522476 -10.59375l0 29.59375l-3.640625 0l0 -29.59375l3.640625 0zm14.839371 7.359375q3.203125 0 5.421875 1.59375q2.21875 1.59375 3.09375 4.28125l0 -5.59375l3.640625 0l0 21.953125l-3.640625 0l0 -5.59375q-0.875 2.671875 -3.09375 4.28125q-2.21875 1.59375 -5.421875 1.59375q-2.921875 0 -5.203125 -1.359375q-2.28125 -1.359375 -3.578125 -3.890625q-1.296875 -2.546875 -1.296875 -5.984375q0 -3.453125 1.296875 -6.0q1.296875 -2.5625 3.578125 -3.921875q2.28125 -1.359375 5.203125 -1.359375zm1.03125 3.234375q-3.359375 0 -5.375 2.140625q-2.015625 2.140625 -2.015625 5.90625q0 3.75 2.015625 5.890625q2.015625 2.140625 5.375 2.140625q2.171875 0 3.859375 -1.0q1.703125 -1.0 2.65625 -2.8125q0.96875 -1.828125 0.96875 -4.21875q0 -2.40625 -0.96875 -4.25q-0.953125 -1.84375 -2.65625 -2.8125q-1.6875 -0.984375 -3.859375 -0.984375zm36.44435 -2.953125l0 21.953125l-3.640625 0l0 -5.15625q-0.84375 2.671875 -2.984375 4.09375q-2.125 1.421875 -4.96875 1.421875q-3.796875 0 -6.171875 -2.453125q-2.359375 -2.46875 -2.359375 -7.0625l0 -12.796875l3.640625 0l0 12.4375q0 3.28125 1.671875 5.0625q1.6875 1.765625 4.578125 1.765625q3.0 0 4.796875 -1.9375q1.796875 -1.9375 1.796875 -5.65625l0 -11.671875l3.640625 0zm14.844345 -0.28125q3.203125 0 5.421875 1.59375q2.21875 1.59375 3.09375 4.28125l0 -13.234375l3.640625 0l0 29.59375l-3.640625 0l0 -5.59375q-0.875 2.671875 -3.09375 4.28125q-2.21875 1.59375 -5.421875 1.59375q-2.921875 0 -5.203125 -1.359375q-2.28125 -1.359375 -3.578125 -3.890625q-1.296875 -2.546875 -1.296875 -5.984375q0 -3.453125 1.296875 -6.0q1.296875 -2.5625 3.578125 -3.921875q2.28125 -1.359375 5.203125 -1.359375zm1.03125 3.234375q-3.359375 0 -5.375 2.140625q-2.015625 2.140625 -2.015625 5.90625q0 3.75 2.015625 5.890625q2.015625 2.140625 5.375 2.140625q2.171875 0 3.859375 -1.0q1.703125 -1.0 2.65625 -2.8125q0.96875 -1.828125 0.96875 -4.21875q0 -2.40625 -0.96875 -4.25q-0.953125 -1.84375 -2.65625 -2.8125q-1.6875 -0.984375 -3.859375 -0.984375zm16.288101 -9.40625q0 -1.0 0.671875 -1.609375q0.6875 -0.625 1.8125 -0.625q1.109375 0 1.78125 0.625q0.6875 0.609375 0.6875 1.609375q0 1.0 -0.6875 1.625q-0.671875 0.625 -1.78125 0.625q-1.125 0 -1.8125 -0.625q-0.671875 -0.625 -0.671875 -1.625zm4.28125 6.453125l0 21.953125l-3.640625 0l0 -21.953125l3.640625 0zm17.401855 -0.359375q3.828125 0 6.1875 2.453125q2.375 2.453125 2.375 7.09375l0 12.765625l-3.640625 0l0 -12.4375q0 -3.28125 -1.6875 -5.03125q-1.671875 -1.765625 -4.5625 -1.765625q-2.9999847 0 -4.7968597 1.9375q-1.796875 1.9375 -1.796875 5.65625l0 11.640625l-3.640625 0l0 -21.953125l3.640625 0l0 5.1875q0.84375 -2.671875 2.984375 -4.109375q2.140625 -1.4375 4.9374847 -1.4375zm23.15747 0.078125q3.203125 0 5.421875 1.59375q2.21875 1.59375 3.09375 4.28125l0 -5.59375l3.640625 0l0 22.3125q0 3.046875 -1.28125 5.40625q-1.28125 2.359375 -3.609375 3.671875q-2.3125 1.328125 -5.390625 1.328125q-4.4375 0 -7.234375 -2.140625q-2.796875 -2.140625 -3.5625 -5.78125l3.59375 0q0.640625 2.203125 2.421875 3.453125q1.78125 1.265625 4.578125 1.265625q2.96875 0 4.90625 -1.90625q1.9375 -1.890625 1.9375 -5.296875l0 -5.953125q-0.875 2.671875 -3.09375 4.28125q-2.21875 1.59375 -5.421875 1.59375q-2.921875 0 -5.203125 -1.359375q-2.28125 -1.359375 -3.578125 -3.890625q-1.296875 -2.546875 -1.296875 -5.984375q0 -3.453125 1.296875 -6.0q1.296875 -2.5625 3.578125 -3.921875q2.28125 -1.359375 5.203125 -1.359375zm1.03125 3.234375q-3.359375 0 -5.375 2.140625q-2.015625 2.140625 -2.015625 5.90625q0 3.75 2.015625 5.890625q2.015625 2.140625 5.375 2.140625q2.171875 0 3.859375 -1.0q1.703125 -1.0 2.65625 -2.8125q0.96875 -1.828125 0.96875 -4.21875q0 -2.40625 -0.96875 -4.25q-0.953125 -1.84375 -2.65625 -2.8125q-1.6875 -0.984375 -3.859375 -0.984375z" fill-rule="nonzero"/><path fill="#000000" d="m70.31816 138.54132l0 4.28125l-4.390625 0l0 -4.28125l4.390625 0zm6.8399963 0l0 4.28125l-4.390625 0l0 -4.28125l4.390625 0zm6.8399963 0l0 4.28125l-4.390625 0l0 -4.28125l4.390625 0z" fill-rule="nonzero"/></g></svg>