<svg version="1.1" xmlns="http://www.w3.org/2000/svg" xmlns:xlink="http://www.w3.org/1999/xlink" width="408.30298" height="217.71772" viewBox="0,0,408.30298,217.71772"><g transform="translate(-64.67246,-129.61628)"><g data-paper-data="{&quot;isPaintingLayer&quot;:true}" fill-rule="nonzero" stroke-miterlimit="10" stroke-dasharray="" stroke-dashoffset="0" style="mix-blend-mode: normal"><path d="M398.92838,295.92747v-86.02407h62.79706v86.02407z" data-paper-data="{&quot;zoomLevel&quot;:2.5}" fill="#ab8754" stroke="#ab8754" stroke-width="22.5" stroke-linecap="butt" stroke-linejoin="round"/><g fill="#ffffff" stroke="none" stroke-width="1" stroke-linecap="butt" stroke-linejoin="miter"><path d="M451.0316,226.30644v8.22181c0,1.25145 -0.48713,2.42804 -1.37225,3.31282l-9.22039,9.22039c-1.57756,1.57756 -3.64988,2.36615 -5.72189,2.36615c-2.07235,0 -4.14468,-0.78861 -5.72224,-2.36615l-12.04671,-12.04671c-1.49469,-1.49469 -1.49469,-3.92639 0,-5.42108c0.31678,-0.31678 0.67582,-0.56567 1.05879,-0.74802l-1.05879,-1.05879c-0.72404,-0.72404 -1.12301,-1.6867 -1.12301,-2.71054c0,-1.02386 0.39897,-1.98649 1.12301,-2.71055c0.67346,-0.67346 1.55358,-1.0651 2.49727,-1.11636c0.05158,-0.94399 0.44322,-1.82411 1.11668,-2.4976c0.67346,-0.67346 1.55358,-1.0651 2.49726,-1.11635c0.05158,-0.94399 0.44322,-1.82411 1.11668,-2.4976c1.24512,-1.24512 3.14013,-1.45211 4.60253,-0.62256c0.18368,-0.41893 0.44589,-0.81192 0.78826,-1.15429c1.47805,-1.47805 3.8828,-1.47805 5.36087,0l5.88196,5.88196v-0.60361c0,-2.1136 1.71963,-3.83323 3.83322,-3.83323c1.02386,0 1.98649,0.39863 2.71055,1.12269c0.72404,0.72404 1.12269,1.6867 1.12269,2.71055v4.05384c1.48738,0.52739 2.55548,1.9479 2.55548,3.61328zM431.37399,216.91471l11.99115,11.99115v-2.59908c0,-1.66572 1.06812,-3.08621 2.55548,-3.61362v-0.00067v-4.05319c0,-0.34139 -0.13309,-0.66216 -0.37433,-0.9034c-0.24124,-0.24157 -0.56202,-0.37434 -0.90341,-0.37434c-0.70441,0 -1.27774,0.57333 -1.27774,1.27774v3.68815c0,0.51677 -0.31146,0.98293 -0.78894,1.18057c-0.47717,0.19765 -1.02684,0.08851 -1.39219,-0.27684l-8.06343,-8.06343c-0.24058,-0.24058 -0.55701,-0.36103 -0.87311,-0.36103c-0.31645,0 -0.63255,0.12045 -0.87346,0.36103c-0.48147,0.48147 -0.48147,1.2651 0,1.7469zM425.60882,217.84839c0,0.34139 0.13275,0.66217 0.37401,0.90341l1.05912,1.05911c0.18235,-0.38332 0.43124,-0.74236 0.74802,-1.05911c0.31678,-0.31678 0.67582,-0.56567 1.05912,-0.74802l-1.05912,-1.05912c-0.49812,-0.49812 -1.30869,-0.49812 -1.80681,0c-0.24157,0.24157 -0.37433,0.56234 -0.37433,0.90374zM448.47612,226.30678c0,-0.70476 -0.57334,-1.27774 -1.27775,-1.27774c-0.70441,0 -1.27774,0.57298 -1.27774,1.27774v5.68396c0,0.51677 -0.31146,0.9826 -0.78893,1.18025c-0.47717,0.19797 -1.02685,0.08884 -1.3922,-0.27684l-6.91445,-6.91446l-5.42108,-5.42076c-0.24124,-0.24157 -0.56202,-0.37434 -0.90341,-0.37434c-0.34106,0 -0.66217,0.13276 -0.90341,0.37434c-0.49812,0.49812 -0.49812,1.30869 0,1.80681l5.42109,5.42109c0.49878,0.4991 0.49878,1.30803 0,1.80681c-0.03127,0.03127 -0.06355,0.06056 -0.09717,0.08783c-0.4685,0.382 -1.14465,0.382 -1.61282,0c-0.03361,-0.02729 -0.06589,-0.05656 -0.09716,-0.08783l-5.42109,-5.42076l-3.61395,-3.61395c-0.49812,-0.49845 -1.30869,-0.49812 -1.80681,0c-0.49812,0.49812 -0.49812,1.30869 0,1.80681l9.03471,9.03506c0.4991,0.4991 0.4991,1.30803 0,1.80681c-0.03095,0.03127 -0.06355,0.06057 -0.09682,0.08784c-0.4685,0.382 -1.14465,0.382 -1.61315,0c-0.03328,-0.02729 -0.0659,-0.05656 -0.09682,-0.08784l-9.03506,-9.03471c-0.24157,-0.24157 -0.56234,-0.37434 -0.90373,-0.37434c-0.34106,0 -0.66183,0.13276 -0.90341,0.37434c-0.24124,0.24124 -0.37433,0.56202 -0.37433,0.90341c0,0.34139 0.13309,0.66216 0.37433,0.9034l9.03506,9.03506c0.4991,0.4991 0.4991,1.30804 0,1.80714c-0.49878,0.49878 -1.30803,0.49878 -1.80681,0l-5.42109,-5.42108c-0.49812,-0.49812 -1.30869,-0.49812 -1.80714,0c-0.49812,0.49812 -0.49812,1.30869 0,1.80681l5.42109,5.42109l6.62562,6.62595c2.15885,2.15885 5.67166,2.15852 7.8305,0l9.22039,-9.22039c0.40196,-0.40228 0.62357,-0.93701 0.62357,-1.50601zM448.47612,234.52827"/><path d="M417.63991,214.33626v-4.08878c0,-0.70576 0.57199,-1.27774 1.27774,-1.27774c0.70576,0 1.27774,0.57199 1.27774,1.27774v4.08878c0,0.70576 -0.57199,1.27775 -1.27774,1.27775c-0.70576,0 -1.27774,-0.57199 -1.27774,-1.27775zM418.91765,215.61401"/><path d="M415.136,214.88098c0.4991,0.4991 0.4991,1.30803 0,1.80681c-0.24955,0.24955 -0.57664,0.37434 -0.90341,0.37434c-0.32709,0 -0.65418,-0.12479 -0.9034,-0.37434l-3.06658,-3.06658c-0.4991,-0.49878 -0.4991,-1.30771 0,-1.80682c0.49878,-0.4991 1.30804,-0.4991 1.80682,0zM412.0694,211.81438"/><path d="M414.06221,220.46942c0,0.70576 -0.57199,1.27775 -1.27774,1.27775h-4.08878c-0.70576,0 -1.27775,-0.57199 -1.27775,-1.27775c0,-0.70576 0.57199,-1.27774 1.27775,-1.27774h4.08878c0.70576,0 1.27774,0.57199 1.27774,1.27774zM412.78447,219.19168"/></g><path d="M64.67247,238.47514c0,-60.12109 38.65409,-108.85886 86.33633,-108.85886c47.68224,0 86.33634,48.73777 86.33634,108.85886c0,60.12109 -38.6541,108.85886 -86.33634,108.85886c-47.68225,0 -86.33634,-48.73777 -86.33634,-108.85886z" fill="none" stroke="none" stroke-width="0" stroke-linecap="butt" stroke-linejoin="miter"/><path d="M402.90052,270.87921c0.33384,0 0.52197,0 0.56437,0v-0.30205c0,-0.93266 -0.53788,-1.399 -1.61362,-1.399c-0.55642,0 -0.95121,0.04504 -1.18437,0.13513c-0.47693,0.17487 -0.83463,0.33649 -1.07308,0.48488c-0.23846,0.14308 -0.46899,0.21463 -0.69155,0.21463c-0.21727,0 -0.42393,-0.08479 -0.62,-0.25437c-0.19607,-0.16958 -0.29411,-0.39479 -0.29411,-0.67565c0,-0.25437 0.11659,-0.48223 0.34975,-0.6836c0.81078,-0.77898 1.98986,-1.16847 3.53723,-1.16847c1.83883,0 3.0285,0.64121 3.56902,1.92362c0.17487,0.44513 0.26231,0.95122 0.26231,1.51823l-0.04769,5.4052c0,0.33916 -0.11659,0.59882 -0.34975,0.77899c-0.23317,0.18018 -0.47958,0.27026 -0.73924,0.27026c-0.25966,0 -0.50873,-0.07683 -0.74719,-0.23052c-0.23846,-0.15898 -0.3577,-0.42659 -0.3577,-0.80283h0.23846c-0.05829,0.49813 -0.63591,0.86378 -1.73284,1.09694c-0.32325,0.08479 -0.69155,0.12718 -1.10489,0.12718c-0.41334,0 -0.82932,-0.06358 -1.24797,-0.19076c-0.41334,-0.12188 -0.78164,-0.31795 -1.10489,-0.58821c-0.6783,-0.56702 -1.01745,-1.3301 -1.01745,-2.28926c0,-2.24687 1.80173,-3.3703 5.4052,-3.3703zM403.56027,272.73128c-0.0159,0.06358 -0.19076,0.09538 -0.52462,0.09538c-0.33384,0 -0.66506,0.0053 -0.99361,0.0159c-0.32855,0.0053 -0.63326,0.03974 -0.91411,0.10334c-0.27556,0.05829 -0.52197,0.14838 -0.73924,0.27026c-0.39214,0.20666 -0.59882,0.54582 -0.62,1.01745c0,0.34445 0.14573,0.61735 0.43718,0.81872c0.24377,0.20137 0.60676,0.30735 1.089,0.31795c0.59351,0 1.10488,-0.18813 1.53412,-0.56437c0.38155,-0.35505 0.59351,-0.90881 0.63591,-1.6613zM409.69031,267.85071c0.13777,-0.41334 1.04925,-0.62 2.73439,-0.62c1.39369,0 2.4615,0.53787 3.20338,1.61361c0.63591,0.94856 0.95385,2.10379 0.95385,3.4657c0,1.40429 -0.3365,2.55421 -1.0095,3.44979c-0.75779,1.04925 -1.81498,1.56857 -3.17158,1.55797c-1.14463,0 -2.0826,-0.34974 -2.81389,-1.04925c-0.25437,-0.21727 -0.31795,-0.39214 -0.19077,-0.52463l0.26231,3.69621c0,0.37624 -0.12453,0.65445 -0.3736,0.83462c-0.24906,0.18018 -0.49813,0.27026 -0.74719,0.27026c-0.28616,0 -0.55377,-0.09803 -0.80283,-0.29411c-0.24377,-0.19607 -0.36564,-0.46633 -0.36564,-0.81078v-10.94554c0,-0.37095 0.11659,-0.6465 0.34975,-0.82668c0.23317,-0.18018 0.52992,-0.27026 0.89027,-0.27026c0.82139,0 1.18172,0.15103 1.08104,0.45308zM410.15133,270.03664c-0.18547,0.25437 -0.31531,0.58026 -0.38949,0.97771c-0.06889,0.39214 -0.10334,0.81078 -0.10334,1.25591c0,0.43984 0.05035,0.84787 0.15103,1.22411c0.10068,0.37095 0.24642,0.7101 0.43718,1.01745c0.40804,0.58821 1.0095,0.87437 1.80438,0.85847c0.74719,0 1.31156,-0.30735 1.69311,-0.92207c0.31795,-0.53523 0.47693,-1.26387 0.47693,-2.18592c0,-1.4149 -0.37889,-2.3555 -1.13668,-2.82184c-0.25966,-0.16427 -0.61472,-0.24906 -1.06515,-0.25436c-0.44513,-0.0053 -0.82138,0.07154 -1.12873,0.23052c-0.30735,0.15368 -0.55377,0.36035 -0.73925,0.62zM420.02855,267.85071c0.13777,-0.41334 1.04926,-0.62 2.7344,-0.62c1.39369,0 2.46149,0.53787 3.20337,1.61361c0.63591,0.94856 0.95386,2.10379 0.95386,3.4657c0,1.40429 -0.33649,2.55421 -1.0095,3.44979c-0.75779,1.04925 -1.81499,1.56857 -3.17159,1.55797c-1.14463,0 -2.0826,-0.34974 -2.81389,-1.04925c-0.25437,-0.21727 -0.31795,-0.39214 -0.19076,-0.52463l0.2623,3.69621c0,0.37624 -0.12453,0.65445 -0.3736,0.83462c-0.24906,0.18018 -0.49813,0.27026 -0.74719,0.27026c-0.28616,0 -0.55377,-0.09803 -0.80283,-0.29411c-0.24377,-0.19607 -0.36564,-0.46633 -0.36564,-0.81078v-10.94554c0,-0.37095 0.11659,-0.6465 0.34975,-0.82668c0.23317,-0.18018 0.52992,-0.27026 0.89027,-0.27026c0.82139,0 1.18172,0.15103 1.08104,0.45308zM420.48958,270.03664c-0.18547,0.25437 -0.3153,0.58026 -0.38948,0.97771c-0.06889,0.39214 -0.10334,0.81078 -0.10334,1.25591c0,0.43984 0.05035,0.84787 0.15103,1.22411c0.10068,0.37095 0.24642,0.7101 0.43719,1.01745c0.40804,0.58821 1.0095,0.87437 1.80438,0.85847c0.74719,0 1.31155,-0.30735 1.6931,-0.92207c0.31795,-0.53523 0.47693,-1.26387 0.47693,-2.18592c0,-1.4149 -0.37889,-2.3555 -1.13668,-2.82184c-0.25966,-0.16427 -0.61472,-0.24906 -1.06515,-0.25436c-0.44513,-0.0053 -0.82138,0.07154 -1.12873,0.23052c-0.30735,0.15368 -0.55377,0.36035 -0.73924,0.62zM428.23651,264.68708c0,-0.39744 0.12453,-0.6836 0.3736,-0.85847c0.24906,-0.18018 0.46367,-0.27026 0.64385,-0.27026c0.18547,0 0.34445,0.01325 0.47693,0.03974c0.13777,0.0265 0.26496,0.09803 0.38155,0.21462c0.27556,0.17487 0.41334,0.46634 0.41334,0.87437v11.31914c0,0.37624 -0.12453,0.65709 -0.3736,0.84257c-0.24906,0.18547 -0.51403,0.27821 -0.79489,0.27821c-0.28616,0 -0.54581,-0.09539 -0.77898,-0.28616c-0.22787,-0.19077 -0.34181,-0.46899 -0.34181,-0.83463zM437.07287,270.87921c0.33384,0 0.52197,0 0.56437,0v-0.30205c0,-0.93266 -0.53787,-1.399 -1.61361,-1.399c-0.55642,0 -0.95122,0.04504 -1.18438,0.13513c-0.47693,0.17487 -0.83463,0.33649 -1.07309,0.48488c-0.23846,0.14308 -0.46899,0.21463 -0.69155,0.21463c-0.21727,0 -0.42393,-0.08479 -0.62,-0.25437c-0.19607,-0.16958 -0.29411,-0.39479 -0.29411,-0.67565c0,-0.25437 0.11658,-0.48223 0.34974,-0.6836c0.81078,-0.77898 1.98986,-1.16847 3.53724,-1.16847c1.83883,0 3.0285,0.64121 3.56902,1.92362c0.17487,0.44513 0.2623,0.95122 0.2623,1.51823l-0.04769,5.4052c0,0.33916 -0.11659,0.59882 -0.34975,0.77899c-0.23317,0.18018 -0.47958,0.27026 -0.73925,0.27026c-0.25966,0 -0.50873,-0.07683 -0.74719,-0.23052c-0.23846,-0.15898 -0.3577,-0.42659 -0.3577,-0.80283h0.23846c-0.05829,0.49813 -0.63591,0.86378 -1.73284,1.09694c-0.32325,0.08479 -0.69155,0.12718 -1.10488,0.12718c-0.41334,0 -0.82933,-0.06358 -1.24797,-0.19076c-0.41334,-0.12188 -0.78164,-0.31795 -1.10489,-0.58821c-0.6783,-0.56702 -1.01745,-1.3301 -1.01745,-2.28926c0,-2.24687 1.80172,-3.3703 5.40519,-3.3703zM437.73263,272.73128c-0.0159,0.06358 -0.19076,0.09538 -0.52462,0.09538c-0.33384,0 -0.66506,0.0053 -0.99361,0.0159c-0.32855,0.0053 -0.63326,0.03974 -0.91411,0.10334c-0.27556,0.05829 -0.52197,0.14838 -0.73925,0.27026c-0.39214,0.20666 -0.59882,0.54582 -0.62,1.01745c0,0.34445 0.14574,0.61735 0.43719,0.81872c0.24377,0.20137 0.60676,0.30735 1.08899,0.31795c0.59351,0 1.10489,-0.18813 1.53412,-0.56437c0.38155,-0.35505 0.59351,-0.90881 0.63591,-1.6613zM450.15018,276.0539c0,0.36564 -0.13249,0.63591 -0.39744,0.81078c-0.25966,0.17487 -0.47958,0.26231 -0.65975,0.26231c-0.17487,0 -0.33916,-0.01855 -0.49283,-0.05564c-0.15368,-0.04239 -0.2782,-0.12188 -0.3736,-0.23846c-0.24906,-0.16958 -0.3736,-0.42924 -0.3736,-0.77898h0.24642c-0.05829,0.52992 -0.6518,0.90882 -1.78053,1.13669c-0.33916,0.08479 -0.7101,0.12718 -1.11284,0.12718c-0.39744,0 -0.81873,-0.07154 -1.26387,-0.21463c-0.44513,-0.14837 -0.82933,-0.3842 -1.15258,-0.70745c-0.70479,-0.66771 -1.05719,-1.65601 -1.05719,-2.96491v-4.91237c0,-0.34445 0.11394,-0.61736 0.3418,-0.81873c0.22787,-0.20137 0.48753,-0.30205 0.77899,-0.30205c0.29145,0 0.55112,0.10068 0.77898,0.30205c0.22787,0.20137 0.3418,0.47428 0.3418,0.81873v5.03161c0,0.72069 0.12718,1.20292 0.38154,1.44669c0.26495,0.24906 0.6836,0.3736 1.25592,0.3736c0.97505,0 1.64541,-0.38949 2.01106,-1.16848c0.14308,-0.27556 0.21992,-0.59085 0.23052,-0.9459v-4.7375c0,-0.35505 0.12188,-0.63061 0.36564,-0.82668c0.24906,-0.19607 0.51933,-0.29411 0.81079,-0.29411c0.29145,0 0.55111,0.10069 0.77898,0.30206c0.22787,0.20137 0.34181,0.47427 0.34181,0.81872zM458.51758,276.0539c-0.45574,0.84257 -1.42814,1.26387 -2.91722,1.26387c-1.3619,0 -2.4297,-0.54582 -3.20338,-1.63746c-0.64121,-0.94856 -0.96181,-2.08789 -0.96181,-3.41799c0,-2.25747 0.76838,-3.78629 2.30516,-4.58648c0.52462,-0.29676 1.04925,-0.44513 1.57387,-0.44513c0.52992,0 0.9671,0.0318 1.31155,0.09538c0.34445,0.05829 0.67565,0.17487 0.99361,0.34975c0.6571,0.32855 0.95916,0.55642 0.90616,0.6836l-0.16692,-3.72006c0,-0.38155 0.12718,-0.6571 0.38155,-0.82668c0.25437,-0.16958 0.51668,-0.25436 0.78694,-0.25436c0.28616,0 0.54317,0.08744 0.77103,0.26231c0.23317,0.16958 0.34975,0.44249 0.34975,0.81872v11.41452c0,0.36035 -0.12453,0.63061 -0.3736,0.81078c-0.24906,0.17487 -0.46898,0.26231 -0.65975,0.26231c-0.18547,0 -0.34975,-0.01856 -0.49282,-0.05565c-0.14308,-0.04239 -0.27026,-0.11923 -0.38154,-0.23051c-0.25437,-0.17487 -0.38155,-0.4372 -0.38155,-0.78694zM455.87857,275.3703c1.62156,0 2.43234,-1.08369 2.43234,-3.25107c0,-1.399 -0.39744,-2.30252 -1.19233,-2.71055c-0.30205,-0.15368 -0.6677,-0.23052 -1.09693,-0.23052c-0.42393,0 -0.77103,0.07948 -1.04129,0.23846c-0.26495,0.15368 -0.48753,0.36829 -0.66771,0.64385c-0.34445,0.54053 -0.51667,1.23472 -0.51667,2.0826c0,1.27182 0.28881,2.19653 0.86642,2.77414c0.29145,0.30205 0.69685,0.45308 1.21617,0.45308z" fill="#fff9f1" stroke="none" stroke-width="1" stroke-linecap="square" stroke-linejoin="miter"/><path d="M398.1153,290.91487c0,-0.49313 0.08003,-0.98843 0.24008,-1.48591c0.16005,-0.49746 0.40447,-0.94736 0.73322,-1.34965c0.70943,-0.86084 1.70219,-1.29125 2.9783,-1.29125c1.28042,0 2.27321,0.43258 2.9783,1.29774c0.64887,0.79595 0.9733,1.73248 0.9733,2.8096c0,1.08577 -0.32443,2.02231 -0.9733,2.8096c-0.70509,0.87814 -1.69788,1.31719 -2.9783,1.31719c-1.2761,0 -2.26887,-0.4369 -2.9783,-1.31071c-0.64887,-0.77864 -0.9733,-1.71085 -0.9733,-2.79663zM400.04244,290.91487c0,0.27686 0.03677,0.56885 0.1103,0.87597c0.07786,0.30713 0.21197,0.59047 0.4023,0.85001c0.36769,0.52775 0.87165,0.79161 1.51187,0.79161c0.67915,0 1.18093,-0.25738 1.50537,-0.77215c0.33308,-0.52775 0.49962,-1.11605 0.49962,-1.76491c0,-0.66618 -0.16437,-1.23934 -0.49314,-1.7195c-0.34174,-0.53207 -0.84569,-0.79811 -1.51187,-0.79811c-0.64022,0 -1.14418,0.27036 -1.51187,0.81109c-0.34174,0.46286 -0.51261,1.03819 -0.51261,1.72599zM408.81254,287.29419c0.11247,-0.33742 0.8565,-0.50612 2.23211,-0.50612c1.13768,0 2.00932,0.43907 2.61494,1.3172c0.5191,0.77432 0.77864,1.71734 0.77864,2.82908c0,1.14634 -0.27468,2.08503 -0.82406,2.81609c-0.61859,0.85651 -1.48159,1.28043 -2.58899,1.27179c-0.93437,0 -1.70004,-0.28551 -2.29699,-0.85651c-0.20764,-0.17737 -0.25954,-0.32011 -0.15573,-0.42825l0.21413,3.01723c0,0.30713 -0.10165,0.53424 -0.30496,0.68132c-0.20331,0.14708 -0.40661,0.22062 -0.60994,0.22062c-0.23359,0 -0.45204,-0.08004 -0.65535,-0.24009c-0.19899,-0.16005 -0.29848,-0.38067 -0.29848,-0.66184v-8.93491c0,-0.3028 0.09517,-0.52775 0.28551,-0.67482c0.19034,-0.14708 0.43259,-0.22062 0.72673,-0.22062c0.6705,0 0.96465,0.12328 0.88246,0.36985zM409.18889,289.07857c-0.1514,0.20764 -0.25739,0.47368 -0.31795,0.79811c-0.05623,0.32011 -0.08435,0.66185 -0.08435,1.02521c0,0.35904 0.04109,0.69212 0.12329,0.99926c0.0822,0.3028 0.20114,0.57965 0.35688,0.83055c0.33308,0.48016 0.82406,0.71376 1.47292,0.70078c0.60994,0 1.07064,-0.2509 1.38209,-0.75268c0.25954,-0.43691 0.38932,-1.0317 0.38932,-1.78439c0,-1.15499 -0.3093,-1.92281 -0.92789,-2.30349c-0.21196,-0.1341 -0.50178,-0.20331 -0.86948,-0.20764c-0.36336,-0.00432 -0.6705,0.0584 -0.9214,0.18817c-0.2509,0.12545 -0.45204,0.29417 -0.60344,0.50612zM417.25172,287.29419c0.11247,-0.33742 0.85651,-0.50612 2.23211,-0.50612c1.13768,0 2.00932,0.43907 2.61494,1.3172c0.5191,0.77432 0.77864,1.71734 0.77864,2.82908c0,1.14634 -0.27469,2.08503 -0.82407,2.81609c-0.61859,0.85651 -1.48159,1.28043 -2.58898,1.27179c-0.93437,0 -1.70004,-0.28551 -2.29699,-0.85651c-0.20764,-0.17737 -0.25954,-0.32011 -0.15573,-0.42825l0.21413,3.01723c0,0.30713 -0.10165,0.53424 -0.30496,0.68132c-0.20331,0.14708 -0.40662,0.22062 -0.60994,0.22062c-0.23359,0 -0.45204,-0.08004 -0.65535,-0.24009c-0.19899,-0.16005 -0.29848,-0.38067 -0.29848,-0.66184v-8.93491c0,-0.3028 0.09517,-0.52775 0.28551,-0.67482c0.19034,-0.14708 0.43258,-0.22062 0.72673,-0.22062c0.6705,0 0.96466,0.12328 0.88246,0.36985zM417.62808,289.07857c-0.1514,0.20764 -0.25739,0.47368 -0.31795,0.79811c-0.05623,0.32011 -0.08435,0.66185 -0.08435,1.02521c0,0.35904 0.04109,0.69212 0.12329,0.99926c0.0822,0.3028 0.20114,0.57965 0.35688,0.83055c0.33308,0.48016 0.82406,0.71376 1.47292,0.70078c0.60994,0 1.07064,-0.2509 1.38209,-0.75268c0.25954,-0.43691 0.38932,-1.0317 0.38932,-1.78439c0,-1.15499 -0.3093,-1.92281 -0.92789,-2.30349c-0.21196,-0.1341 -0.50178,-0.20331 -0.86948,-0.20764c-0.36336,-0.00432 -0.6705,0.0584 -0.9214,0.18817c-0.2509,0.12545 -0.45204,0.29417 -0.60344,0.50612zM423.43285,290.91487c0,-0.49313 0.08003,-0.98843 0.24008,-1.48591c0.16005,-0.49746 0.40446,-0.94736 0.73321,-1.34965c0.70943,-0.86084 1.7022,-1.29125 2.9783,-1.29125c1.28042,0 2.2732,0.43258 2.9783,1.29774c0.64887,0.79595 0.9733,1.73248 0.9733,2.8096c0,1.08577 -0.32443,2.02231 -0.9733,2.8096c-0.7051,0.87814 -1.69788,1.31719 -2.9783,1.31719c-1.2761,0 -2.26888,-0.4369 -2.9783,-1.31071c-0.64887,-0.77864 -0.9733,-1.71085 -0.9733,-2.79663zM425.35999,290.91487c0,0.27686 0.03677,0.56885 0.1103,0.87597c0.07786,0.30713 0.21197,0.59047 0.4023,0.85001c0.36769,0.52775 0.87165,0.79161 1.51187,0.79161c0.67915,0 1.18093,-0.25738 1.50537,-0.77215c0.33308,-0.52775 0.49962,-1.11605 0.49962,-1.76491c0,-0.66618 -0.16437,-1.23934 -0.49313,-1.7195c-0.34174,-0.53207 -0.84569,-0.79811 -1.51187,-0.79811c-0.64022,0 -1.14418,0.27036 -1.51187,0.81109c-0.34174,0.46286 -0.51262,1.03819 -0.51262,1.72599zM432.39112,287.81977c0,-0.27253 0.09949,-0.48881 0.29848,-0.64887c0.19899,-0.16438 0.40446,-0.24657 0.61642,-0.24657c0.42825,0 0.69861,0.1514 0.81109,0.45421c0.11247,0.3028 0.03245,0.67266 -0.24008,1.10957c-0.03028,-0.54073 0.24657,-0.97114 0.83055,-1.29125c0.49746,-0.27253 0.98844,-0.40879 1.47293,-0.40879c0.48881,0 0.90626,0.06272 1.25231,0.18817c0.34607,0.12111 0.66402,0.31145 0.95384,0.57101c0.58398,0.5537 0.87597,1.35181 0.87597,2.39432v4.04893c0,0.29848 -0.10814,0.5191 -0.32443,0.66185c-0.21196,0.14275 -0.42176,0.21413 -0.6294,0.21413c-0.23791,0 -0.45204,-0.07787 -0.64238,-0.2336c-0.18601,-0.15573 -0.27902,-0.36986 -0.27902,-0.64238v-4.1268c0,-0.50178 -0.12978,-0.87813 -0.38933,-1.12902c-0.24225,-0.23791 -0.54505,-0.35689 -0.90841,-0.35689c-0.52775,0 -0.97546,0.14925 -1.34316,0.44773c-0.35039,0.31145 -0.52559,0.81109 -0.52559,1.49888v3.6661c0,0.29848 -0.10382,0.5191 -0.31145,0.66185c-0.20331,0.14275 -0.41744,0.21413 -0.64238,0.21413c-0.24225,0 -0.44988,-0.08003 -0.62292,-0.24008c-0.1687,-0.16005 -0.25305,-0.37203 -0.25305,-0.6359v-6.17073zM447.94877,290.68129c0,0.48016 -0.26171,0.74187 -0.78512,0.78512h-4.89247c0.03893,0.90841 0.46935,1.52701 1.29125,1.85576c0.22062,0.07355 0.48665,0.1103 0.79811,0.1103c0.64022,0 1.30423,-0.24225 1.99203,-0.72673c0.385,-0.22062 0.72024,-0.1925 1.00575,0.08435c0.1687,0.18169 0.22494,0.35904 0.1687,0.53208c0,0.24225 -0.08003,0.43474 -0.24008,0.57749c-0.76135,0.757 -1.76275,1.13119 -3.00426,1.12254c-1.142,0 -2.0634,-0.37202 -2.76418,-1.11605c-0.77864,-0.76567 -1.16796,-1.76924 -1.16796,-3.01075c0,-1.13768 0.31794,-2.08286 0.95383,-2.83556c0.68347,-0.84785 1.63731,-1.27178 2.86151,-1.27178c1.2242,0 2.16505,0.37634 2.82258,1.12903c0.61426,0.6705 0.93437,1.5919 0.96032,2.76418zM446.11896,289.99997c-0.02164,-0.36336 -0.20764,-0.73755 -0.55802,-1.12255c-0.31578,-0.33308 -0.78081,-0.49963 -1.39507,-0.49963c-0.51044,0 -0.94734,0.19034 -1.31071,0.57101c-0.33742,0.39364 -0.51693,0.74403 -0.53856,1.05117zM449.05946,287.81977c0,-0.27253 0.09949,-0.48881 0.29847,-0.64887c0.19899,-0.16438 0.40447,-0.24657 0.61642,-0.24657c0.42825,0 0.69861,0.1514 0.81109,0.45421c0.11247,0.3028 0.03245,0.67266 -0.24008,1.10957c-0.03028,-0.54073 0.24657,-0.97114 0.83055,-1.29125c0.49746,-0.27253 0.98843,-0.40879 1.47292,-0.40879c0.48881,0 0.90627,0.06272 1.25232,0.18817c0.34607,0.12111 0.66401,0.31145 0.95384,0.57101c0.58398,0.5537 0.87597,1.35181 0.87597,2.39432v4.04893c0,0.29848 -0.10814,0.5191 -0.32443,0.66185c-0.21196,0.14275 -0.42176,0.21413 -0.62941,0.21413c-0.23791,0 -0.45204,-0.07787 -0.64237,-0.2336c-0.18601,-0.15573 -0.27902,-0.36986 -0.27902,-0.64238v-4.1268c0,-0.50178 -0.12978,-0.87813 -0.38933,-1.12902c-0.24225,-0.23791 -0.54505,-0.35689 -0.90841,-0.35689c-0.52775,0 -0.97546,0.14925 -1.34316,0.44773c-0.35039,0.31145 -0.52559,0.81109 -0.52559,1.49888v3.6661c0,0.29848 -0.10382,0.5191 -0.31145,0.66185c-0.20331,0.14275 -0.41744,0.21413 -0.64238,0.21413c-0.24225,0 -0.44988,-0.08003 -0.62292,-0.24008c-0.1687,-0.16005 -0.25305,-0.37203 -0.25305,-0.6359v-6.17073zM461.98269,294.10081c0,0.61426 -0.56668,0.92139 -1.70004,0.92139c-0.78729,0 -1.35613,-0.23143 -1.70652,-0.69429c-0.34607,-0.44988 -0.53424,-1.1658 -0.56452,-2.14775v-3.6726h-0.49962c-0.2509,0 -0.45421,-0.08219 -0.60994,-0.24656c-0.1514,-0.16438 -0.2271,-0.3439 -0.2271,-0.53856c0,-0.17737 0.06488,-0.3547 0.19466,-0.53207c0.1341,-0.17737 0.34823,-0.26604 0.64238,-0.26604h0.59047l0.0584,-1.75194c0.04326,-0.25954 0.15573,-0.45637 0.33741,-0.59047c0.18601,-0.1341 0.38283,-0.20114 0.59047,-0.20114c0.20764,0 0.39148,0.07137 0.55154,0.21413c0.16005,0.13842 0.24008,0.34174 0.24008,0.60994v1.71949h0.9733c0.26387,0 0.46719,0.08869 0.60994,0.26604c0.14275,0.17302 0.21413,0.35038 0.21413,0.53207c0,0.22494 -0.0757,0.41311 -0.22711,0.56453c-0.14708,0.14708 -0.34606,0.22062 -0.59695,0.22062h-0.9733v3.0367c0,0.90409 0.02164,1.42534 0.06489,1.56377c0.04758,0.1341 0.10814,0.22278 0.18169,0.26603c0.07355,0.03893 0.17952,0.05839 0.31794,0.05839l0.73971,-0.05839c0.25954,0 0.45637,0.08219 0.59047,0.24657c0.13842,0.16438 0.20764,0.32443 0.20764,0.48016z" fill="#fff9f1" stroke="none" stroke-width="1" stroke-linecap="square" stroke-linejoin="miter"/></g></g></svg>