<svg version="1.1" viewBox="0.0 0.0 960.0 720.0" fill="none" stroke="none" stroke-linecap="square" stroke-miterlimit="10" xmlns:xlink="http://www.w3.org/1999/xlink" xmlns="http://www.w3.org/2000/svg"><clipPath id="p.0"><path d="m0 0l960.0 0l0 720.0l-960.0 0l0 -720.0z" clip-rule="nonzero"/></clipPath><g clip-path="url(#p.0)"><path fill="#000000" fill-opacity="0.0" d="m0 0l960.0 0l0 720.0l-960.0 0z" fill-rule="evenodd"/><path fill="#000000" fill-opacity="0.0" d="m55.72441 47.422573l993.3858 0l0 695.4016l-993.3858 0z" fill-rule="evenodd"/><path stroke="#000000" stroke-width="1.0" stroke-linejoin="round" stroke-linecap="butt" d="m55.72441 47.422573l993.3858 0l0 695.4016l-993.3858 0z" fill-rule="evenodd"/><path fill="#000000" d="m79.19316 82.54132q0.984375 0 1.109375 0l0.125 -0.59375q0.59375 -2.75 -2.578125 -2.75q-1.640625 0 -2.390625 0.265625q-1.515625 0.515625 -2.3125 0.953125q-0.796875 0.421875 -1.453125 0.421875q-0.640625 0 -1.109375 -0.5q-0.46875 -0.5 -0.296875 -1.328125q0.15625 -0.75 0.96875 -1.34375q2.890625 -2.296875 7.453125 -2.296875q5.421875 0 6.203125 3.78125q0.234375 1.3125 -0.109375 2.984375l-2.359375 10.625q-0.21875 1.0 -1.015625 1.53125q-0.796875 0.53125 -1.5625 0.53125q-0.765625 0 -1.375 -0.453125q-0.59375 -0.46875 -0.359375 -1.578125l0.46875 0q-0.484375 1.46875 -3.875 2.15625q-1.0 0.25 -2.21875 0.25q-1.21875 0 -2.375 -0.375q-1.140625 -0.359375 -1.921875 -1.15625q-1.65625 -1.671875 -1.046875 -4.5q1.40625 -6.625 12.03125 -6.625zm0.53125 3.640625q-0.09375 0.1875 -1.078125 0.1875q-0.984375 0 -1.96875 0.03125q-0.96875 0.015625 -1.828125 0.203125q-0.859375 0.171875 -1.5625 0.53125q-1.296875 0.609375 -1.65625 2.0q-0.203125 1.015625 0.515625 1.609375q0.59375 0.59375 2.015625 0.625q1.75 0 3.25 -1.109375q1.34375 -1.046875 1.9375 -3.265625l0.375 -0.8125zm14.081039 -9.59375q0.671875 -1.21875 5.640625 -1.21875q4.109375 0 5.609375 3.171875q1.28125 2.796875 0.4375 6.8125q-0.890625 4.140625 -3.421875 6.78125q-2.90625 3.09375 -6.890625 3.0625q-3.375 0 -5.09375 -2.0625q-0.609375 -0.640625 -0.15625 -1.03125l-1.03125 7.265625q-0.234375 1.109375 -1.078125 1.640625q-0.84375 0.53125 -1.578125 0.53125q-0.84375 0 -1.453125 -0.578125q-0.609375 -0.578125 -0.390625 -1.59375l4.578125 -21.515625q0.234375 -1.09375 1.03125 -1.625q0.796875 -0.53125 1.859375 -0.53125q2.421875 0 1.9375 0.890625zm-0.015625 4.296875q-0.703125 0.75 -1.15625 1.921875q-0.453125 1.15625 -0.734375 2.46875q-0.28125 1.296875 -0.21875 2.40625q0.0625 1.09375 0.4375 2.0q0.828125 1.734375 3.1875 1.6875q2.203125 0 3.71875 -1.8125q1.265625 -1.578125 1.84375 -4.296875q0.890625 -4.171875 -1.046875 -5.546875q-0.671875 -0.484375 -1.984375 -0.5q-1.3125 -0.015625 -2.328125 0.453125q-1.0 0.453125 -1.71875 1.21875zm20.33751 -4.296875q0.671875 -1.21875 5.640625 -1.21875q4.109375 0 5.609375 3.171875q1.28125 2.796875 0.4375 6.8125q-0.890625 4.140625 -3.421875 6.78125q-2.90625 3.09375 -6.890625 3.0625q-3.375 0 -5.09375 -2.0625q-0.609375 -0.640625 -0.15625 -1.03125l-1.03125 7.265625q-0.234375 1.109375 -1.078125 1.640625q-0.84375 0.53125 -1.578125 0.53125q-0.84375 0 -1.453125 -0.578125q-0.609375 -0.578125 -0.390625 -1.59375l4.578125 -21.515625q0.234375 -1.09375 1.03125 -1.625q0.796875 -0.53125 1.859375 -0.53125q2.421875 0 1.9375 0.890625zm-0.015625 4.296875q-0.703125 0.75 -1.15625 1.921875q-0.453125 1.15625 -0.734375 2.46875q-0.28125 1.296875 -0.21875 2.40625q0.0625 1.09375 0.4375 2.0q0.828125 1.734375 3.1875 1.6875q2.203125 0 3.71875 -1.8125q1.265625 -1.578125 1.84375 -4.296875q0.890625 -4.171875 -1.046875 -5.546875q-0.671875 -0.484375 -1.984375 -0.5q-1.3125 -0.015625 -2.328125 0.453125q-1.0 0.453125 -1.71875 1.21875zm17.478134 -10.515625q0.25 -1.171875 1.09375 -1.6875q0.84375 -0.53125 1.375 -0.53125q0.546875 0 0.921875 0.078125q0.390625 0.078125 0.65625 0.421875q0.703125 0.515625 0.453125 1.71875l-4.734375 22.25q-0.234375 1.109375 -1.09375 1.65625q-0.84375 0.546875 -1.671875 0.546875q-0.84375 0 -1.40625 -0.5625q-0.5625 -0.5625 -0.328125 -1.640625l4.734375 -22.25zm14.775879 12.171875q0.984375 0 1.109375 0l0.125 -0.59375q0.59375 -2.75 -2.578125 -2.75q-1.640625 0 -2.390625 0.265625q-1.515625 0.515625 -2.3125 0.953125q-0.796875 0.421875 -1.453125 0.421875q-0.640625 0 -1.109375 -0.5q-0.46875 -0.5 -0.296875 -1.328125q0.15625 -0.75 0.96875 -1.34375q2.890625 -2.296875 7.453125 -2.296875q5.421875 0 6.203125 3.78125q0.234375 1.3125 -0.109375 2.984375l-2.359375 10.625q-0.21875 1.0 -1.015625 1.53125q-0.796875 0.53125 -1.5625 0.53125q-0.765625 0 -1.375 -0.453125q-0.59375 -0.46875 -0.359375 -1.578125l0.46875 0q-0.484375 1.46875 -3.875 2.15625q-1.0 0.25 -2.21875 0.25q-1.21875 0 -2.375 -0.375q-1.140625 -0.359375 -1.921875 -1.15625q-1.65625 -1.671875 -1.046875 -4.5q1.40625 -6.625 12.03125 -6.625zm0.53125 3.640625q-0.09375 0.1875 -1.078125 0.1875q-0.984375 0 -1.96875 0.03125q-0.96875 0.015625 -1.828125 0.203125q-0.859375 0.171875 -1.5625 0.53125q-1.296875 0.609375 -1.65625 2.0q-0.203125 1.015625 0.515625 1.609375q0.59375 0.59375 2.015625 0.625q1.75 0 3.25 -1.109375q1.34375 -1.046875 1.9375 -3.265625l0.375 -0.8125zm23.01854 6.53125q-0.234375 1.078125 -1.125 1.59375q-0.875 0.515625 -1.40625 0.515625q-0.515625 0 -0.953125 -0.109375q-0.421875 -0.125 -0.625 -0.46875q-0.625 -0.5 -0.40625 -1.53125l0.484375 0q-0.515625 1.5625 -3.984375 2.234375q-1.046875 0.25 -2.234375 0.25q-1.171875 0 -2.390625 -0.421875q-1.21875 -0.4375 -1.96875 -1.390625q-1.671875 -1.96875 -0.84375 -5.828125l2.046875 -9.65625q0.21875 -1.015625 1.015625 -1.609375q0.796875 -0.59375 1.65625 -0.59375q0.859375 0 1.40625 0.59375q0.546875 0.59375 0.328125 1.609375l-2.09375 9.890625q-0.453125 2.125 0.140625 2.84375q0.625 0.734375 2.3125 0.734375q2.875 0 4.4375 -2.296875q0.59375 -0.8125 0.859375 -1.859375l1.96875 -9.3125q0.21875 -1.046875 1.0625 -1.625q0.859375 -0.578125 1.71875 -0.578125q0.859375 0 1.40625 0.59375q0.546875 0.59375 0.328125 1.609375l-3.140625 14.8125zm16.447784 0q-1.875 2.484375 -6.265625 2.484375q-4.015625 0 -5.609375 -3.21875q-1.296875 -2.796875 -0.46875 -6.71875q1.421875 -6.65625 6.453125 -9.015625q1.734375 -0.875 3.28125 -0.875q1.5625 0 2.53125 0.1875q0.984375 0.171875 1.8125 0.6875q1.734375 0.96875 1.484375 1.34375l1.234375 -7.3125q0.234375 -1.125 1.09375 -1.625q0.859375 -0.5 1.65625 -0.5q0.84375 0 1.40625 0.515625q0.578125 0.5 0.34375 1.609375l-4.765625 22.4375q-0.234375 1.0625 -1.078125 1.59375q-0.84375 0.515625 -1.40625 0.515625q-0.546875 0 -0.953125 -0.109375q-0.390625 -0.125 -0.640625 -0.453125q-0.640625 -0.515625 -0.421875 -1.546875l0.3125 0zm-4.90625 -1.34375q4.78125 0 6.140625 -6.390625q0.875 -4.125 -1.21875 -5.328125q-0.78125 -0.453125 -2.046875 -0.453125q-1.25 0 -2.140625 0.46875q-0.890625 0.453125 -1.59375 1.265625q-1.359375 1.59375 -1.890625 4.09375q-0.796875 3.75 0.546875 5.453125q0.671875 0.890625 2.203125 0.890625zm22.196884 -20.921875q-0.25 1.109375 -1.15625 1.796875q-0.890625 0.6875 -2.125 0.6875q-1.234375 0 -1.859375 -0.671875q-0.625 -0.6875 -0.375 -1.8125q0.203125 -1.0 1.109375 -1.6875q0.921875 -0.703125 2.1875 -0.703125q1.265625 0 1.84375 0.703125q0.578125 0.703125 0.375 1.6875zm-6.5625 7.546875q0.21875 -1.0625 1.0625 -1.671875q0.84375 -0.625 1.46875 -0.625q0.625 0 0.953125 0.1875q0.34375 0.1875 0.5625 0.4375q0.6875 0.53125 0.453125 1.671875l-3.109375 14.625q-0.234375 1.109375 -1.09375 1.65625q-0.84375 0.546875 -1.671875 0.546875q-0.84375 0 -1.40625 -0.5625q-0.5625 -0.5625 -0.328125 -1.640625l3.109375 -14.625zm8.307129 -0.140625q0.203125 -0.984375 1.046875 -1.5625q0.84375 -0.59375 1.609375 -0.59375q1.546875 0 1.71875 1.09375q0.171875 1.09375 -1.140625 2.671875q0.3125 -1.953125 2.65625 -3.109375q2.015625 -0.984375 3.765625 -0.984375q1.765625 0 2.921875 0.453125q1.15625 0.4375 2.0 1.375q1.6875 2.0 0.875 5.765625l-2.0625 9.75q-0.234375 1.078125 -1.125 1.59375q-0.875 0.515625 -1.625 0.515625q-0.859375 0 -1.421875 -0.5625q-0.5625 -0.5625 -0.34375 -1.546875l2.109375 -9.9375q0.390625 -1.8125 -0.359375 -2.71875q-0.6875 -0.859375 -2.0 -0.859375q-1.90625 0 -3.46875 1.078125q-1.5 1.125 -2.03125 3.609375l-1.875 8.828125q-0.234375 1.078125 -1.09375 1.59375q-0.84375 0.515625 -1.65625 0.515625q-0.875 0 -1.375 -0.578125q-0.484375 -0.578125 -0.28125 -1.53125l3.15625 -14.859375zm27.791534 1.375q-4.328125 0 -5.609375 6.03125q-0.609375 2.90625 0.453125 4.515625q0.859375 1.34375 2.6875 1.375q1.875 0 3.5 -1.4375q1.765625 -1.5625 2.359375 -4.359375q0.890625 -4.203125 -1.34375 -5.625q-0.71875 -0.5 -2.046875 -0.5zm0.09375 -3.859375q5.0 0 5.359375 2.34375l-0.328125 -0.078125q0.34375 -0.90625 1.046875 -1.421875q0.703125 -0.515625 1.515625 -0.515625q0.828125 0 1.359375 0.59375q0.546875 0.59375 0.34375 1.5625l-3.515625 16.515625q-0.84375 3.984375 -3.875 5.984375q-2.671875 1.828125 -6.875 1.828125q-3.75 0 -5.453125 -1.359375q-1.453125 -1.25 -1.21875 -2.328125q0.171875 -0.796875 0.828125 -1.34375q0.65625 -0.53125 1.34375 -0.53125q0.6875 0 1.0625 0.296875q0.375 0.3125 0.796875 0.515625q0.421875 0.203125 0.859375 0.375q1.109375 0.421875 2.390625 0.421875q1.28125 0 2.21875 -0.203125q0.953125 -0.203125 1.6875 -0.671875q1.359375 -0.78125 1.796875 -2.8125l0.359375 -1.140625q-0.140625 0.390625 -3.59375 1.21875q-1.078125 0.203125 -2.03125 0.203125q-4.21875 0 -5.859375 -2.9375q-1.515625 -2.5625 -0.671875 -6.53125q0.890625 -4.1875 3.5 -6.875q2.890625 -3.109375 6.953125 -3.109375z" fill-rule="nonzero"/></g></svg>