<svg version="1.1" viewBox="0.0 0.0 960.0 720.0" fill="none" stroke="none" stroke-linecap="square" stroke-miterlimit="10" xmlns:xlink="http://www.w3.org/1999/xlink" xmlns="http://www.w3.org/2000/svg"><clipPath id="p.0"><path d="m0 0l960.0 0l0 720.0l-960.0 0l0 -720.0z" clip-rule="nonzero"/></clipPath><g clip-path="url(#p.0)"><path fill="#000000" fill-opacity="0.0" d="m0 0l960.0 0l0 720.0l-960.0 0z" fill-rule="evenodd"/><path fill="#000000" fill-opacity="0.0" d="m55.72441 47.422573l993.3858 0l0 695.4016l-993.3858 0z" fill-rule="evenodd"/><path stroke="#000000" stroke-width="1.0" stroke-linejoin="round" stroke-linecap="butt" d="m55.72441 47.422573l993.3858 0l0 695.4016l-993.3858 0z" fill-rule="evenodd"/><path fill="#000000" d="m66.240036 85.306946q0 -1.78125 0.578125 -3.578125q0.578125 -1.796875 1.765625 -3.25q2.5625 -3.109375 7.171875 -3.109375q4.625 0 7.171875 3.125q2.34375 2.875 2.34375 6.765625q0 3.921875 -2.34375 6.765625q-2.546875 3.171875 -7.171875 3.171875q-4.609375 0 -7.171875 -3.15625q-2.34375 -2.8125 -2.34375 -6.734375zm4.640625 0q0 1.0 0.265625 2.109375q0.28125 1.109375 0.96875 2.046875q1.328125 1.90625 3.640625 1.90625q2.453125 0 3.625 -1.859375q1.203125 -1.90625 1.203125 -4.25q0 -2.40625 -1.1875 -4.140625q-1.234375 -1.921875 -3.640625 -1.921875q-2.3125 0 -3.640625 1.953125q-1.234375 1.671875 -1.234375 4.15625zm22.90001 -5.84375l0 13.15625q0 1.09375 -0.71875 1.65625q-0.703125 0.546875 -1.3125 0.546875q-0.609375 0 -1.046875 -0.125q-0.4375 -0.125 -0.71875 -0.46875q-0.734375 -0.515625 -0.65625 -1.640625l0 -13.125l-1.609375 0q-0.9375 0 -1.4375 -0.578125q-0.5 -0.578125 -0.5 -1.296875q0 -0.609375 0.46875 -1.25q0.484375 -0.640625 1.46875 -0.640625l1.609375 0l0 -1.109375q0 -5.28125 3.03125 -6.5625q0.984375 -0.375 1.96875 -0.375q1.625 0 3.28125 0.546875q1.234375 0.5 1.234375 1.703125q0 0.625 -0.4375 1.265625q-0.421875 0.625 -1.0625 0.625q-0.625 0 -0.921875 -0.03125q-0.296875 -0.03125 -0.515625 -0.140625q-0.3125 -0.0625 -0.78125 -0.0625q-0.46875 0 -0.6875 0.125q-0.203125 0.125 -0.359375 0.453125q-0.296875 0.703125 -0.296875 3.84375l-0.28125 0l2.4375 -0.28125q0.921875 0 1.453125 0.578125q0.53125 0.5625 0.53125 1.3125q0 0.734375 -0.53125 1.3125q-0.53125 0.5625 -1.453125 0.5625l-2.15625 0zm12.183929 0l0 13.15625q0 1.09375 -0.71875 1.65625q-0.703125 0.546875 -1.3125 0.546875q-0.609375 0 -1.046875 -0.125q-0.4375 -0.125 -0.71875 -0.46875q-0.734375 -0.515625 -0.65625 -1.640625l0 -13.125l-1.609375 0q-0.9375 0 -1.4375 -0.578125q-0.5 -0.578125 -0.5 -1.296875q0 -0.609375 0.46875 -1.25q0.484375 -0.640625 1.46875 -0.640625l1.609375 0l0 -1.109375q0 -5.28125 3.03125 -6.5625q0.984375 -0.375 1.96875 -0.375q1.625 0 3.28125 0.546875q1.234375 0.5 1.234375 1.703125q0 0.625 -0.4375 1.265625q-0.421875 0.625 -1.0625 0.625q-0.625 0 -0.921875 -0.03125q-0.296875 -0.03125 -0.515625 -0.140625q-0.3125 -0.0625 -0.78125 -0.0625q-0.46875 0 -0.6875 0.125q-0.203125 0.125 -0.359375 0.453125q-0.296875 0.703125 -0.296875 3.84375l-0.28125 0l2.4375 -0.28125q0.921875 0 1.453125 0.578125q0.53125 0.5625 0.53125 1.3125q0 0.734375 -0.53125 1.3125q-0.53125 0.5625 -1.453125 0.5625l-2.15625 0zm23.40268 5.28125q0 1.734375 -1.890625 1.890625l-11.78125 0q0.140625 3.28125 3.109375 4.46875q0.796875 0.265625 1.921875 0.265625q2.3125 0 4.796875 -1.75q1.390625 -0.796875 2.421875 0.203125q0.609375 0.65625 0.40625 1.28125q0 0.875 -0.578125 1.390625q-2.75 2.734375 -7.234375 2.703125q-4.125 0 -6.65625 -2.6875q-2.8125 -2.765625 -2.8125 -7.25q0 -4.109375 2.296875 -6.828125q2.46875 -3.0625 6.890625 -3.0625q4.421875 0 6.796875 2.71875q2.21875 2.421875 2.3125 6.65625zm-4.40625 -1.640625q-0.078125 -1.3125 -1.34375 -2.703125q-1.140625 -1.203125 -3.359375 -1.203125q-1.84375 0 -3.15625 1.375q-1.21875 1.421875 -1.296875 2.53125l9.15625 0zm10.658997 -3.640625q0.515625 -4.09375 4.828125 -4.09375q1.0625 0 1.625 0.65625q0.578125 0.640625 0.578125 1.390625q0 0.75 -0.578125 1.40625q-0.5625 0.640625 -1.59375 0.640625q-1.015625 0 -1.765625 0.296875q-0.75 0.296875 -1.203125 0.828125q-1.0625 1.296875 -1.0625 3.46875l0 8.65625q0 1.078125 -0.75 1.59375q-0.734375 0.515625 -1.296875 0.515625q-0.5625 0 -0.953125 -0.109375q-0.375 -0.125 -0.703125 -0.453125q-0.703125 -0.453125 -0.703125 -1.546875l0 -14.8125q0 -0.953125 0.65625 -1.578125q0.671875 -0.625 1.640625 -0.625q0.96875 0 1.53125 0.65625q0.578125 0.640625 0.578125 1.546875l-0.828125 1.5625z" fill-rule="nonzero"/><path fill="#000000" d="m80.208786 140.7132q-1.34375 2.484375 -5.734375 2.484375q-4.015625 0 -6.296875 -3.21875q-1.890625 -2.796875 -1.890625 -6.71875q0 -6.6562576 4.53125 -9.015633q1.546875 -0.875 3.09375 -0.875q1.5625 0 2.578125 0.1875q1.015625 0.171875 1.953125 0.6875q1.9375 0.96875 1.78125 1.34375l-0.328125 -7.3125q0 -1.125 0.75 -1.625q0.75 -0.5 1.546875 -0.5q0.84375 0 1.515625 0.515625q0.6875 0.5 0.6875 1.609375l0 22.437508q0 1.0625 -0.734375 1.59375q-0.734375 0.515625 -1.296875 0.515625q-0.546875 0 -0.96875 -0.109375q-0.421875 -0.125 -0.75 -0.453125q-0.75 -0.515625 -0.75 -1.546875l0.3125 0zm-5.1875 -1.34375q4.78125 0 4.78125 -6.390625q0 -4.125 -2.34375 -5.3281326q-0.890625 -0.453125 -2.15625 -0.453125q-1.25 0 -2.046875 0.46875q-0.78125 0.45313263 -1.3125 1.2656326q-1.015625 1.59375 -1.015625 4.09375q0 3.75 1.703125 5.453125q0.859375 0.890625 2.390625 0.890625zm16.36876 -11.906258q0.515625 -4.09375 4.828125 -4.09375q1.0625 0 1.625 0.65625q0.578125 0.640625 0.578125 1.390625q0 0.75 -0.578125 1.40625q-0.5625 0.640625 -1.59375 0.640625q-1.015625 0 -1.765625 0.296875q-0.75 0.29688263 -1.203125 0.8281326q-1.0625 1.296875 -1.0625 3.46875l0 8.65625q0 1.078125 -0.75 1.59375q-0.734375 0.515625 -1.296875 0.515625q-0.5625 0 -0.953125 -0.109375q-0.375 -0.125 -0.703125 -0.453125q-0.703125 -0.453125 -0.703125 -1.546875l0 -14.812508q0 -0.953125 0.65625 -1.578125q0.671875 -0.625 1.640625 -0.625q0.96875 0 1.53125 0.65625q0.578125 0.640625 0.578125 1.546875l-0.828125 1.5625zm17.929443 3.0781326q0.984375 0 1.109375 0l0 -0.59375q0 -2.7500076 -3.171875 -2.7500076q-1.640625 0 -2.328125 0.265625q-1.40625 0.515625 -2.109375 0.9531326q-0.703125 0.421875 -1.359375 0.421875q-0.640625 0 -1.21875 -0.5q-0.578125 -0.5000076 -0.578125 -1.3281326q0 -0.75 0.6875 -1.34375q2.390625 -2.296875 6.953125 -2.296875q5.421875 0 7.015625 3.78125q0.515625 1.3125076 0.515625 2.9843826l-0.09375 10.625q0 1.0 -0.6875 1.53125q-0.6875 0.53125 -1.453125 0.53125q-0.765625 0 -1.46875 -0.453125q-0.703125 -0.46875 -0.703125 -1.578125l0.46875 0q-0.171875 1.46875 -3.40625 2.15625q-0.953125 0.25 -2.171875 0.25q-1.21875 0 -2.453125 -0.375q-1.21875 -0.359375 -2.171875 -1.15625q-2.0 -1.671875 -2.0 -4.5q0 -6.625 10.625 -6.625zm1.296875 3.640625q-0.046875 0.1875 -1.03125 0.1875q-0.984375 0 -1.953125 0.03125q-0.96875 0.015625 -1.796875 0.203125q-0.8125 0.171875 -1.453125 0.53125q-1.15625 0.609375 -1.21875 2.0q0 1.015625 0.859375 1.609375q0.71875 0.59375 2.140625 0.625q1.75 0 3.015625 -1.109375q1.125 -1.046875 1.25 -3.265625l0.1875 -0.8125zm21.096664 -4.546875l-4.09375 11.109375q-0.6875 2.078125 -2.75 2.078125q-2.0625 0 -2.625 -2.046875l-5.28125 -14.093758q-0.140625 -0.40625 -0.140625 -0.796875q0 -0.390625 0.15625 -0.90625q0.171875 -0.53125 0.671875 -0.734375q0.546875 -0.390625 1.171875 -0.546875q1.890625 0 2.234375 1.625l3.96875 11.218758l4.0625 -10.828133q0.640625 -1.890625 2.6875 -2.015625q0.890625 0 1.671875 0.453125q0.796875 0.453125 1.15625 1.578125l3.828125 10.625008l3.90625 -11.078133q0.484375 -1.578125 1.96875 -1.578125q0.90625 0 1.53125 0.640625q0.640625 0.625 0.640625 1.25q0 0.625 -0.078125 1.03125l-5.453125 14.171883q-0.625 2.03125 -2.515625 2.03125q-2.125 0 -2.6875 -2.09375l-4.03125 -11.09375z" fill-rule="nonzero"/></g></svg>