<svg version="1.1" xmlns="http://www.w3.org/2000/svg" xmlns:xlink="http://www.w3.org/1999/xlink" width="142.06685" height="35.28838" viewBox="0,0,142.06685,35.28838"><g transform="translate(-168.96662,-162.35581)"><g data-paper-data="{&quot;isPaintingLayer&quot;:true}" fill-rule="nonzero" stroke-miterlimit="10" stroke-dasharray="" stroke-dashoffset="0" style="mix-blend-mode: normal"><path d="M176.21663,190.39419v-20.78838h127.56685v20.78838z" data-paper-data="{&quot;zoomLevel&quot;:2.5}" fill="#a7c7a0" stroke="#a7c7a0" stroke-width="14.5" stroke-linecap="butt" stroke-linejoin="round"/><path d="M211.93137,173.0502c0.4271,0 0.77977,0.14237 1.05803,0.4271c0.28473,0.27826 0.4271,0.64065 0.4271,1.08715v10.51236c0,0.4271 -0.14237,0.78625 -0.4271,1.07745c-0.27826,0.2912 -0.63093,0.4368 -1.05803,0.4368c-0.43356,0 -0.79272,-0.1456 -1.07745,-0.4368c-0.27826,-0.2912 -0.41739,-0.65035 -0.41739,-1.07745v-1.22304l0.55328,0.22325c0,0.22002 -0.11648,0.4821 -0.34944,0.78625c-0.23296,0.30415 -0.55005,0.60828 -0.95126,0.91243c-0.39474,0.29767 -0.86066,0.55004 -1.39776,0.75712c-0.5371,0.20708 -1.12274,0.31062 -1.75691,0.31062c-1.13892,0 -2.17431,-0.29444 -3.10615,-0.88331c-0.92538,-0.58888 -1.65661,-1.401 -2.19371,-2.43639c-0.5371,-1.03538 -0.80566,-2.22608 -0.80566,-3.57207c0,-1.35247 0.26855,-2.54639 0.80566,-3.58177c0.5371,-1.03538 1.26188,-1.84751 2.17431,-2.43639c0.91243,-0.58888 1.92193,-0.88331 3.02849,-0.88331c0.71183,0 1.36541,0.10677 1.96076,0.32032c0.60181,0.21355 1.11951,0.48857 1.55307,0.82507c0.44004,0.33003 0.77978,0.66652 1.01921,1.00949c0.23943,0.3365 0.35915,0.62123 0.35915,0.85419l-0.89302,0.32033v-1.81516c0,-0.43356 0.13913,-0.79272 0.41739,-1.07745c0.28473,-0.2912 0.64388,-0.4368 1.07745,-0.4368zM206.91301,184.10615c0.72476,0 1.35894,-0.18119 1.90251,-0.54358c0.55005,-0.36885 0.97715,-0.86713 1.28129,-1.49483c0.31062,-0.6277 0.46592,-1.33306 0.46592,-2.11607c0,-0.78948 -0.1553,-1.49806 -0.46592,-2.12577c-0.30415,-0.63417 -0.73125,-1.13245 -1.28129,-1.49483c-0.54358,-0.36885 -1.17775,-0.55328 -1.90251,-0.55328c-0.71183,0 -1.34276,0.18443 -1.89281,0.55328c-0.54358,0.36238 -0.97067,0.86066 -1.28129,1.49483c-0.30415,0.6277 -0.45622,1.33629 -0.45622,2.12577c0,0.78301 0.15207,1.48837 0.45622,2.11607c0.31062,0.6277 0.73771,1.12598 1.28129,1.49483c0.55005,0.36238 1.18098,0.54358 1.89281,0.54358zM222.44256,173.0502c0.94479,0 1.76662,0.1003 2.46551,0.30091c0.70535,0.19413 1.25216,0.46916 1.64043,0.82507c0.39474,0.35591 0.59211,0.78301 0.59211,1.28128c0,0.33003 -0.1003,0.64065 -0.30091,0.93185c-0.2006,0.2912 -0.4918,0.4368 -0.8736,0.4368c-0.26532,0 -0.48533,-0.03558 -0.66005,-0.10677c-0.16825,-0.07765 -0.32032,-0.17472 -0.45621,-0.2912c-0.12942,-0.11648 -0.28474,-0.22326 -0.46592,-0.32032c-0.16825,-0.10353 -0.42386,-0.18443 -0.76683,-0.24267c-0.3365,-0.05824 -0.58887,-0.08736 -0.75712,-0.08736c-0.84124,0 -1.55631,0.18443 -2.14518,0.55328c-0.58888,0.36238 -1.04185,0.85419 -1.35894,1.47542c-0.31062,0.62123 -0.46592,1.33628 -0.46592,2.14518c0,0.79595 0.16178,1.50454 0.48533,2.12577c0.32356,0.62123 0.77007,1.11628 1.33953,1.48513c0.56946,0.36238 1.22628,0.54358 1.97046,0.54358c0.41415,0 0.77007,-0.02265 1.06774,-0.06795c0.30415,-0.05177 0.55328,-0.12943 0.74742,-0.23297c0.23296,-0.12942 0.44004,-0.26855 0.62123,-0.41738c0.18767,-0.14883 0.46268,-0.22325 0.82507,-0.22325c0.4271,0 0.75713,0.13589 0.99009,0.40768c0.23296,0.27179 0.34945,0.60829 0.34945,1.0095c0,0.41415 -0.23297,0.79271 -0.69889,1.13568c-0.45945,0.3365 -1.06773,0.60828 -1.82486,0.81536c-0.75065,0.20708 -1.56602,0.31062 -2.44609,0.31062c-1.30717,0 -2.44286,-0.30091 -3.40706,-0.90272c-0.95773,-0.60828 -1.69868,-1.43336 -2.22284,-2.47521c-0.51769,-1.04833 -0.77653,-2.2196 -0.77653,-3.51383c0,-1.35247 0.27502,-2.54639 0.82507,-3.58177c0.55652,-1.03538 1.32658,-1.84751 2.31019,-2.43639c0.99008,-0.58888 2.12253,-0.88331 3.39735,-0.88331zM235.23985,173.0502c0.94479,0 1.76662,0.1003 2.4655,0.30091c0.70535,0.19413 1.25217,0.46916 1.64044,0.82507c0.39474,0.35591 0.59211,0.78301 0.59211,1.28128c0,0.33003 -0.1003,0.64065 -0.30091,0.93185c-0.2006,0.2912 -0.4918,0.4368 -0.8736,0.4368c-0.26532,0 -0.48534,-0.03558 -0.66005,-0.10677c-0.16825,-0.07765 -0.32032,-0.17472 -0.45621,-0.2912c-0.12943,-0.11648 -0.28473,-0.22326 -0.46592,-0.32032c-0.16825,-0.10353 -0.42386,-0.18443 -0.76683,-0.24267c-0.3365,-0.05824 -0.58888,-0.08736 -0.75713,-0.08736c-0.84124,0 -1.55631,0.18443 -2.14518,0.55328c-0.58888,0.36238 -1.04186,0.85419 -1.35894,1.47542c-0.31062,0.62123 -0.46592,1.33628 -0.46592,2.14518c0,0.79595 0.16178,1.50454 0.48533,2.12577c0.32356,0.62123 0.77007,1.11628 1.33953,1.48513c0.56946,0.36238 1.22628,0.54358 1.97046,0.54358c0.41415,0 0.77006,-0.02265 1.06773,-0.06795c0.30415,-0.05177 0.55329,-0.12943 0.74742,-0.23297c0.23296,-0.12942 0.44004,-0.26855 0.62123,-0.41738c0.18766,-0.14883 0.46269,-0.22325 0.82507,-0.22325c0.4271,0 0.75712,0.13589 0.99008,0.40768c0.23296,0.27179 0.34944,0.60829 0.34944,1.0095c0,0.41415 -0.23297,0.79271 -0.69889,1.13568c-0.45945,0.3365 -1.06774,0.60828 -1.82486,0.81536c-0.75065,0.20708 -1.56601,0.31062 -2.44609,0.31062c-1.30717,0 -2.44286,-0.30091 -3.40706,-0.90272c-0.95773,-0.60828 -1.69868,-1.43336 -2.22284,-2.47521c-0.51769,-1.04833 -0.77653,-2.2196 -0.77653,-3.51383c0,-1.35247 0.27502,-2.54639 0.82507,-3.58177c0.55652,-1.03538 1.32658,-1.84751 2.3102,-2.43639c0.99008,-0.58888 2.12254,-0.88331 3.39735,-0.88331zM248.38661,186.84344c-1.41071,0 -2.63376,-0.29444 -3.66913,-0.88331c-1.03538,-0.58888 -1.83134,-1.38805 -2.38786,-2.39755c-0.55005,-1.0095 -0.82507,-2.15489 -0.82507,-3.43618c0,-1.48836 0.30091,-2.7567 0.90273,-3.80503c0.60181,-1.0548 1.3913,-1.86369 2.36844,-2.42668c0.98361,-0.56299 2.02223,-0.84448 3.11585,-0.84448c0.84125,0 1.6372,0.17473 2.38786,0.52417c0.75712,0.34297 1.42364,0.8186 1.99958,1.42688c0.5824,0.60181 1.04185,1.3007 1.37835,2.09665c0.34297,0.79595 0.51445,1.64044 0.51445,2.53345c-0.01295,0.40121 -0.17148,0.72476 -0.47563,0.97067c-0.29767,0.2459 -0.64388,0.36885 -1.03862,0.36885h-9.49316l-0.74742,-2.48492h9.12431l-0.54357,0.50475v-0.66976c-0.03882,-0.48533 -0.21031,-0.91567 -0.51445,-1.29099c-0.30415,-0.3818 -0.68595,-0.68594 -1.1454,-0.91243c-0.45298,-0.22649 -0.93508,-0.33973 -1.4463,-0.33973c-0.49828,0 -0.9642,0.06795 -1.39776,0.20385c-0.4271,0.12942 -0.79918,0.35268 -1.11627,0.66976c-0.31709,0.31708 -0.56623,0.74095 -0.74742,1.27158c-0.18119,0.52416 -0.27179,1.19392 -0.27179,2.00929c0,0.89301 0.18443,1.65014 0.55328,2.27137c0.37532,0.62123 0.85743,1.09362 1.4463,1.41718c0.58887,0.32356 1.21334,0.48534 1.8734,0.48534c0.61476,0 1.10333,-0.04854 1.46571,-0.1456c0.36885,-0.10353 0.66329,-0.22325 0.88331,-0.35915c0.22649,-0.14237 0.43033,-0.26532 0.61152,-0.36885c0.29767,-0.14883 0.57916,-0.22326 0.84448,-0.22326c0.36239,0 0.66329,0.12619 0.90272,0.37857c0.2459,0.2459 0.36885,0.53387 0.36885,0.8639c0,0.44651 -0.23296,0.85419 -0.69888,1.22304c-0.43356,0.36238 -1.03862,0.68271 -1.81516,0.96097c-0.77654,0.27179 -1.57896,0.40768 -2.40726,0.40768zM263.54652,173.0502c1.15834,0 2.19696,0.29443 3.11586,0.88331c0.9189,0.58888 1.64691,1.39777 2.18401,2.42668c0.5371,1.02244 0.80566,2.21313 0.80566,3.57207c0,1.35894 -0.26855,2.5561 -0.80566,3.59148c-0.5371,1.03538 -1.25864,1.84751 -2.1646,2.43639c-0.89949,0.58888 -1.91222,0.88331 -3.0382,0.88331c-0.66652,0 -1.29099,-0.10677 -1.8734,-0.32032c-0.57594,-0.22002 -1.08391,-0.49504 -1.52396,-0.82507c-0.44004,-0.33003 -0.77977,-0.66329 -1.0192,-0.99979c-0.23943,-0.34297 -0.35915,-0.63094 -0.35915,-0.8639l0.77654,-0.32032v6.53262c0,0.4271 -0.14236,0.78624 -0.4271,1.07744c-0.27826,0.2912 -0.63418,0.4368 -1.06774,0.4368c-0.43356,0 -0.79271,-0.14236 -1.07745,-0.42709c-0.27826,-0.27826 -0.41739,-0.64065 -0.41739,-1.08715v-15.22983c0,-0.43356 0.13913,-0.79595 0.41739,-1.08715c0.28473,-0.2912 0.64388,-0.4368 1.07745,-0.4368c0.43356,0 0.78948,0.1456 1.06774,0.4368c0.28473,0.2912 0.4271,0.65359 0.4271,1.08715v1.21334l-0.4271,-0.22325c0,-0.21355 0.11648,-0.47239 0.34944,-0.77654c0.23296,-0.31062 0.54681,-0.61799 0.94155,-0.92213c0.40121,-0.31062 0.86066,-0.56299 1.37835,-0.75713c0.52416,-0.2006 1.07744,-0.30091 1.65984,-0.30091zM263.16796,175.77779c-0.73124,0 -1.36865,0.18443 -1.91222,0.55328c-0.54357,0.36238 -0.97067,0.85419 -1.28129,1.47542c-0.30415,0.62123 -0.45621,1.32982 -0.45621,2.12577c0,0.77653 0.15207,1.48512 0.45621,2.12577c0.31061,0.63417 0.73771,1.13569 1.28129,1.50454c0.54357,0.36238 1.18098,0.54358 1.91222,0.54358c0.73124,0 1.36541,-0.18119 1.90251,-0.54358c0.5371,-0.36885 0.95772,-0.87037 1.26187,-1.50454c0.31061,-0.64065 0.46593,-1.34923 0.46593,-2.12577c0,-0.79595 -0.15531,-1.50454 -0.46593,-2.12577c-0.30415,-0.62123 -0.72476,-1.11304 -1.26187,-1.47542c-0.5371,-0.36885 -1.17127,-0.55328 -1.90251,-0.55328zM272.2911,173.54525h5.88227c0.40121,0 0.73447,0.13265 0.99979,0.39798c0.26532,0.26532 0.39798,0.59534 0.39798,0.99008c0,0.3818 -0.13266,0.70211 -0.39798,0.96096c-0.26532,0.25885 -0.59858,0.38827 -0.99979,0.38827h-5.88227c-0.40121,0 -0.73447,-0.13265 -0.99979,-0.39798c-0.26532,-0.26532 -0.39797,-0.59858 -0.39797,-0.99979c0,-0.3818 0.13265,-0.69888 0.39797,-0.95126c0.26532,-0.25885 0.59858,-0.38826 0.99979,-0.38826zM274.95077,170.4391c0.4271,0 0.77653,0.1456 1.04832,0.4368c0.27826,0.2912 0.41739,0.65035 0.41739,1.07745v11.05594c0,0.23296 0.0453,0.42386 0.1359,0.5727c0.0906,0.14883 0.21355,0.25884 0.36885,0.33003c0.16177,0.06471 0.33326,0.09707 0.51445,0.09707c0.19414,0 0.37532,-0.03558 0.54357,-0.10677c0.16825,-0.07765 0.35915,-0.11648 0.5727,-0.11648c0.23296,0 0.44327,0.10677 0.63094,0.32032c0.19414,0.21355 0.2912,0.51121 0.2912,0.89301c0,0.46592 -0.25561,0.84772 -0.76683,1.1454c-0.50475,0.29767 -1.04508,0.44651 -1.62102,0.44651c-0.34944,0 -0.73448,-0.02912 -1.1551,-0.08736c-0.42062,-0.05824 -0.8186,-0.19736 -1.19392,-0.41738c-0.37532,-0.22649 -0.68594,-0.56947 -0.93185,-1.02892c-0.2459,-0.46592 -0.36885,-1.10656 -0.36885,-1.92192v-11.18213c0,-0.4271 0.14236,-0.78625 0.4271,-1.07745c0.2912,-0.2912 0.65359,-0.4368 1.08715,-0.4368z" fill="#233f1c" stroke="none" stroke-width="1" stroke-linecap="square" stroke-linejoin="miter"/></g></g></svg>