<svg version="1.1" xmlns="http://www.w3.org/2000/svg" xmlns:xlink="http://www.w3.org/1999/xlink" width="408.30298" height="217.71772" viewBox="0,0,408.30298,217.71772"><g transform="translate(-64.67246,-129.61628)"><g data-paper-data="{&quot;isPaintingLayer&quot;:true}" fill-rule="nonzero" stroke-miterlimit="10" stroke-dasharray="" stroke-dashoffset="0" style="mix-blend-mode: normal"><path d="M398.92838,285.41696v-27.46551h62.79706v27.46551z" data-paper-data="{&quot;zoomLevel&quot;:2.5}" fill="#548aab" stroke="#548aab" stroke-width="22.5" stroke-linecap="butt" stroke-linejoin="round"/><path d="M64.67247,238.47514c0,-60.12109 38.65409,-108.85886 86.33633,-108.85886c47.68224,0 86.33634,48.73777 86.33634,108.85886c0,60.12109 -38.6541,108.85886 -86.33634,108.85886c-47.68225,0 -86.33634,-48.73777 -86.33634,-108.85886z" fill="none" stroke="none" stroke-width="0" stroke-linecap="butt" stroke-linejoin="miter"/><path d="M413.60134,264.41066c0,-0.56371 0.09148,-1.12989 0.27444,-1.69853c0.18295,-0.56866 0.46234,-1.08292 0.83815,-1.54279c0.81095,-0.98401 1.94579,-1.47603 3.40451,-1.47603c1.46367,0 2.5985,0.49449 3.40451,1.48344c0.74172,0.90984 1.11259,1.9804 1.11259,3.21165c0,1.24115 -0.37087,2.3117 -1.11259,3.21166c-0.80601,1.0038 -1.94085,1.50569 -3.40451,1.50569c-1.45872,0 -2.59356,-0.49944 -3.40451,-1.49828c-0.74172,-0.89007 -1.11259,-1.95567 -1.11259,-3.19682zM415.80425,264.41066c0,0.31647 0.04204,0.65025 0.1261,1.00132c0.08901,0.35108 0.2423,0.67496 0.45987,0.97165c0.42031,0.60327 0.99639,0.90491 1.72821,0.90491c0.77633,0 1.34994,-0.29422 1.72079,-0.88265c0.38075,-0.60327 0.57113,-1.27577 0.57113,-2.01749c0,-0.76151 -0.1879,-1.41668 -0.56371,-1.96556c-0.39064,-0.60822 -0.96671,-0.91232 -1.72822,-0.91232c-0.73183,0 -1.30789,0.30904 -1.72821,0.92716c-0.39064,0.5291 -0.58597,1.18676 -0.58597,1.97298zM426.67494,261.6366v6.2453c0,0.34614 -0.11373,0.60822 -0.34119,0.78622c-0.22252,0.17308 -0.43019,0.2596 -0.62304,0.2596c-0.19285,0 -0.3585,-0.01979 -0.49696,-0.05934c-0.13846,-0.03956 -0.25218,-0.11373 -0.34119,-0.22252c-0.23241,-0.16319 -0.33624,-0.42278 -0.31152,-0.77881v-6.23046h-0.76397c-0.29668,0 -0.52415,-0.09149 -0.68238,-0.27444c-0.15824,-0.18295 -0.23735,-0.38818 -0.23735,-0.61563c0,-0.19285 0.07417,-0.39063 0.22252,-0.59337c0.15329,-0.20273 0.38569,-0.3041 0.69722,-0.3041h0.76397v-0.52662c0,-1.67135 0.47964,-2.70977 1.43894,-3.11524c0.31152,-0.11868 0.62305,-0.17801 0.93457,-0.17801c0.51427,0 1.03346,0.08653 1.55762,0.2596c0.39064,0.15823 0.58596,0.42773 0.58596,0.80847c0,0.19779 -0.06923,0.39806 -0.20768,0.60079c-0.1335,0.19779 -0.30163,0.29668 -0.50437,0.29668c-0.19779,0 -0.34367,-0.00495 -0.43762,-0.01483c-0.09395,-0.00988 -0.17554,-0.03215 -0.24478,-0.06676c-0.09889,-0.01979 -0.22252,-0.02966 -0.37086,-0.02966c-0.14835,0 -0.25713,0.01979 -0.32635,0.05934c-0.06428,0.03956 -0.12115,0.11125 -0.17059,0.2151c-0.09395,0.22252 -0.14093,0.83073 -0.14093,1.82462h-0.1335l1.15709,-0.1335c0.29175,0 0.52168,0.09148 0.6898,0.27444c0.16812,0.17801 0.25219,0.38569 0.25219,0.62304c0,0.23241 -0.08406,0.44009 -0.25219,0.62305c-0.16812,0.17801 -0.39806,0.26702 -0.6898,0.26702zM432.45869,261.6366v6.2453c0,0.34614 -0.11373,0.60822 -0.34119,0.78622c-0.22252,0.17308 -0.43019,0.2596 -0.62305,0.2596c-0.19285,0 -0.3585,-0.01979 -0.49695,-0.05934c-0.13846,-0.03956 -0.25218,-0.11373 -0.34119,-0.22252c-0.23241,-0.16319 -0.33624,-0.42278 -0.31152,-0.77881v-6.23046h-0.76397c-0.29668,0 -0.52415,-0.09149 -0.68239,-0.27444c-0.15824,-0.18295 -0.23735,-0.38818 -0.23735,-0.61563c0,-0.19285 0.07417,-0.39063 0.22252,-0.59337c0.15329,-0.20273 0.38569,-0.3041 0.69722,-0.3041h0.76397v-0.52662c0,-1.67135 0.47964,-2.70977 1.43894,-3.11524c0.31152,-0.11868 0.62305,-0.17801 0.93457,-0.17801c0.51427,0 1.03347,0.08653 1.55763,0.2596c0.39064,0.15823 0.58596,0.42773 0.58596,0.80847c0,0.19779 -0.06923,0.39806 -0.20768,0.60079c-0.1335,0.19779 -0.30163,0.29668 -0.50438,0.29668c-0.19779,0 -0.34367,-0.00495 -0.43762,-0.01483c-0.09395,-0.00988 -0.17554,-0.03215 -0.24477,-0.06676c-0.09889,-0.01979 -0.22252,-0.02966 -0.37086,-0.02966c-0.14835,0 -0.25713,0.01979 -0.32635,0.05934c-0.06428,0.03956 -0.12115,0.11125 -0.1706,0.2151c-0.09395,0.22252 -0.14093,0.83073 -0.14093,1.82462h-0.13351l1.15709,-0.1335c0.29175,0 0.52168,0.09148 0.6898,0.27444c0.16812,0.17801 0.25219,0.38569 0.25219,0.62304c0,0.23241 -0.08406,0.44009 -0.25219,0.62305c-0.16812,0.17801 -0.39806,0.26702 -0.6898,0.26702zM443.56799,264.14363c0,0.54887 -0.29916,0.84803 -0.89748,0.89748h-5.5926c0.0445,1.03841 0.53652,1.74552 1.47603,2.12132c0.25219,0.08406 0.55629,0.12609 0.91231,0.12609c0.73183,0 1.49087,-0.27691 2.27709,-0.83073c0.44009,-0.25219 0.82331,-0.22004 1.14966,0.09643c0.19285,0.20768 0.25713,0.41042 0.19285,0.60822c0,0.27691 -0.09149,0.49695 -0.27444,0.66013c-0.87029,0.86534 -2.01501,1.29308 -3.43418,1.28318c-1.30543,0 -2.35869,-0.42526 -3.15974,-1.27576c-0.89007,-0.87523 -1.3351,-2.02243 -1.3351,-3.4416c0,-1.30049 0.36344,-2.38092 1.09034,-3.24132c0.78128,-0.96919 1.87161,-1.45377 3.27099,-1.45377c1.39938,0 2.47488,0.43019 3.22649,1.29059c0.70216,0.76645 1.06808,1.81969 1.09775,3.15974zM441.47633,263.36482c-0.02473,-0.41537 -0.23734,-0.84309 -0.63788,-1.28318c-0.36098,-0.38075 -0.89255,-0.57113 -1.5947,-0.57113c-0.58349,0 -1.08292,0.21758 -1.49828,0.65272c-0.38569,0.44997 -0.59091,0.85051 -0.61563,1.20159zM446.53618,261.6366c0.16319,-1.29555 0.92716,-1.94331 2.29192,-1.94331c0.33624,0 0.59337,0.10384 0.77139,0.31152c0.18295,0.20273 0.27444,0.42278 0.27444,0.66013c0,0.23735 -0.09148,0.45987 -0.27444,0.66756c-0.17801,0.20273 -0.43019,0.3041 -0.75655,0.3041c-0.32142,0 -0.60079,0.04698 -0.83815,0.14093c-0.23735,0.09395 -0.42772,0.22499 -0.57113,0.39312c-0.33624,0.41042 -0.50437,0.9593 -0.50437,1.64663v4.10915c0,0.34119 -0.11868,0.59337 -0.35602,0.75655c-0.23241,0.16319 -0.43762,0.24477 -0.61563,0.24477c-0.17801,0 -0.32882,-0.0173 -0.45244,-0.05192c-0.11868,-0.03956 -0.22994,-0.11125 -0.33378,-0.2151c-0.22252,-0.14341 -0.33377,-0.38817 -0.33377,-0.73431v-7.03153c0,-0.30163 0.10384,-0.55135 0.31152,-0.74914c0.21262,-0.19779 0.47223,-0.29668 0.77881,-0.29668c0.30658,0 0.54887,0.10384 0.72689,0.31152c0.18295,0.20273 0.27444,0.44751 0.27444,0.73431z" fill="#edf8ff" stroke="none" stroke-width="1" stroke-linecap="square" stroke-linejoin="miter"/><path d="M419.82935,285.35335c-0.41217,0.76202 -1.29159,1.14303 -2.63832,1.14303c-1.2317,0 -2.1974,-0.49363 -2.89713,-1.48092c-0.5799,-0.85787 -0.86985,-1.88828 -0.86985,-3.09123c0,-2.04165 0.69493,-3.42432 2.08479,-4.148c0.47447,-0.26839 0.94892,-0.40258 1.42339,-0.40258c0.47926,0 0.87465,0.02877 1.18617,0.08628c0.31152,0.05272 0.61105,0.15816 0.89861,0.3163c0.59428,0.29714 0.86746,0.50322 0.81953,0.61824l-0.15096,-3.36441c0,-0.34506 0.11501,-0.59427 0.34506,-0.74765c0.23005,-0.15337 0.46728,-0.23005 0.7117,-0.23005c0.2588,0 0.49124,0.07907 0.69732,0.23723c0.21087,0.15337 0.3163,0.40018 0.3163,0.74045v10.32326c0,0.3259 -0.11261,0.57031 -0.33786,0.73327c-0.22525,0.15816 -0.42414,0.23723 -0.59668,0.23723c-0.16774,0 -0.3163,-0.01677 -0.44571,-0.05032c-0.1294,-0.03834 -0.24442,-0.10783 -0.34507,-0.20847c-0.23005,-0.15816 -0.34507,-0.39538 -0.34507,-0.7117zM417.44264,284.73511c1.46654,0 2.19981,-0.98009 2.19981,-2.94026c0,-1.26524 -0.35945,-2.08238 -1.07834,-2.45141c-0.27317,-0.13899 -0.60387,-0.20847 -0.99207,-0.20847c-0.38342,0 -0.69732,0.07189 -0.94174,0.21567c-0.23963,0.13899 -0.44093,0.33308 -0.60387,0.5823c-0.31152,0.48884 -0.46728,1.11668 -0.46728,1.8835c0,1.15023 0.2612,1.98653 0.78359,2.50893c0.2636,0.27317 0.63022,0.40976 1.0999,0.40976zM424.97373,279.25717c0.15816,-1.25566 0.89861,-1.88349 2.22137,-1.88349c0.3259,0 0.5751,0.10064 0.74764,0.30194c0.17732,0.1965 0.26599,0.40977 0.26599,0.63981c0,0.23005 -0.08866,0.44572 -0.26599,0.647c-0.17254,0.1965 -0.41696,0.29474 -0.73327,0.29474c-0.31152,0 -0.5823,0.04552 -0.81234,0.13658c-0.23005,0.09105 -0.41456,0.21807 -0.55354,0.38102c-0.3259,0.39778 -0.48885,0.92976 -0.48885,1.59593v3.98264c0,0.33069 -0.11501,0.57511 -0.34506,0.73327c-0.22525,0.15816 -0.42414,0.23723 -0.59668,0.23723c-0.17254,0 -0.31871,-0.01677 -0.43851,-0.05032c-0.11502,-0.03834 -0.22285,-0.10783 -0.3235,-0.20847c-0.21567,-0.13899 -0.32351,-0.37622 -0.32351,-0.7117v-6.81507c0,-0.29235 0.10064,-0.53438 0.30194,-0.72608c0.20608,-0.1917 0.45769,-0.28756 0.75484,-0.28756c0.29714,0 0.53198,0.10064 0.70451,0.30193c0.17732,0.1965 0.26599,0.43374 0.26599,0.7117zM433.22287,280.67338c0.30194,0 0.47207,0 0.5104,0v-0.27317c0,-0.8435 -0.48645,-1.26525 -1.45934,-1.26525c-0.50322,0 -0.86026,0.04073 -1.07115,0.12221c-0.43133,0.15816 -0.75484,0.30434 -0.97051,0.43853c-0.21567,0.1294 -0.42414,0.1941 -0.62543,0.1941c-0.1965,0 -0.38342,-0.07668 -0.56074,-0.23005c-0.17732,-0.15337 -0.26599,-0.35705 -0.26599,-0.61106c0,-0.23005 0.10544,-0.43613 0.31632,-0.61825c0.73327,-0.70451 1.79962,-1.05676 3.19905,-1.05676c1.66303,0 2.73897,0.57989 3.2278,1.73971c0.15816,0.40258 0.23723,0.86028 0.23723,1.37309l-0.04312,4.88845c0,0.30672 -0.10544,0.54156 -0.31632,0.7045c-0.21087,0.16294 -0.43373,0.24442 -0.66856,0.24442c-0.23483,0 -0.4601,-0.06949 -0.67576,-0.20847c-0.21567,-0.14378 -0.32349,-0.3858 -0.32349,-0.72608h0.21567c-0.05272,0.45051 -0.57511,0.78119 -1.56718,0.99207c-0.29235,0.07668 -0.62544,0.11502 -0.99925,0.11502c-0.37382,0 -0.75004,-0.05751 -1.12866,-0.17254c-0.37382,-0.11023 -0.7069,-0.28756 -0.99924,-0.53198c-0.61345,-0.51281 -0.92019,-1.20295 -0.92019,-2.0704c0,-2.03206 1.62948,-3.04809 4.88844,-3.04809zM433.81956,282.3484c-0.01438,0.05751 -0.17253,0.08626 -0.47447,0.08626c-0.30194,0 -0.60147,0.00479 -0.89861,0.01438c-0.29714,0.00479 -0.57271,0.03595 -0.82672,0.09346c-0.24921,0.05272 -0.47207,0.1342 -0.66857,0.24443c-0.35465,0.18691 -0.54156,0.49365 -0.56073,0.92019c0,0.31152 0.13179,0.55833 0.39538,0.74045c0.22046,0.18212 0.54875,0.27796 0.98488,0.28755c0.53677,0 0.99924,-0.17013 1.38745,-0.5104c0.34506,-0.3211 0.53677,-0.82193 0.57511,-1.50247zM443.5259,280.25643l-1.88349,5.11131c-0.21087,0.63741 -0.63263,0.95612 -1.26525,0.95612c-0.63263,0 -1.0352,-0.31391 -1.20773,-0.94174l-2.42985,-6.48439c-0.04313,-0.12461 -0.0647,-0.24681 -0.0647,-0.36663c0,-0.11982 0.02396,-0.2588 0.07189,-0.41696c0.05272,-0.16294 0.15576,-0.27556 0.30912,-0.33787c0.16774,-0.11982 0.34746,-0.20369 0.53916,-0.2516c0.5799,0 0.92257,0.24921 1.02801,0.74764l1.82599,5.16162l1.86912,-4.98191c0.1965,-0.5799 0.60866,-0.88902 1.23649,-0.92737c0.27317,0 0.52958,0.06949 0.76921,0.20848c0.24442,0.13899 0.42175,0.38101 0.53198,0.72607l1.76127,4.88844l1.79723,-5.09693c0.14857,-0.48406 0.45051,-0.72607 0.9058,-0.72607c0.27798,0 0.5128,0.09824 0.7045,0.29474c0.1965,0.1917 0.29474,0.38341 0.29474,0.57511c0,0.1917 -0.01198,0.34986 -0.03595,0.47447l-2.50892,6.52033c-0.1917,0.62304 -0.57751,0.93456 -1.15741,0.93456c-0.65179,0 -1.06395,-0.3211 -1.23649,-0.96332z" fill="#edf8ff" stroke="none" stroke-width="1" stroke-linecap="square" stroke-linejoin="miter"/></g></g></svg>