<svg version="1.1" viewBox="0.0 0.0 960.0 720.0" fill="none" stroke="none" stroke-linecap="square" stroke-miterlimit="10" xmlns:xlink="http://www.w3.org/1999/xlink" xmlns="http://www.w3.org/2000/svg"><clipPath id="p.0"><path d="m0 0l960.0 0l0 720.0l-960.0 0l0 -720.0z" clip-rule="nonzero"/></clipPath><g clip-path="url(#p.0)"><path fill="#000000" fill-opacity="0.0" d="m0 0l960.0 0l0 720.0l-960.0 0z" fill-rule="evenodd"/><path fill="#000000" fill-opacity="0.0" d="m55.72441 47.422573l993.3858 0l0 695.4016l-993.3858 0z" fill-rule="evenodd"/><path stroke="#000000" stroke-width="1.0" stroke-linejoin="round" stroke-linecap="butt" d="m55.72441 47.422573l993.3858 0l0 695.4016l-993.3858 0z" fill-rule="evenodd"/><path fill="#000000" d="m79.208786 131.57257l0 8.90625q0 1.640625 -1.515625 2.203125q-0.40625 0.140625 -1.078125 0.140625q-0.65625 0 -1.453125 -0.5625q-0.78125 -0.578125 -0.78125 -1.78125l0 -8.859375l-7.984375 -12.109383q-0.390625 -0.484375 -0.390625 -1.046875q0 -0.578125 0.21875 -1.015625q0.234375 -0.4375 0.65625 -0.78125q0.78125 -0.609375 1.609375 -0.609375q1.5 0 2.1875 1.234375l6.375 11.515633l-0.046875 0l6.421875 -11.625008q0.6875 -1.125 1.984375 -1.125q1.421875 0 2.0 1.125q0.296875 0.40625 0.296875 0.90625q0 0.515625 -0.34375 1.078125l-8.15625 12.406258zm9.422104 1.734375q0 -1.78125 0.578125 -3.578125q0.578125 -1.7968826 1.765625 -3.2500076q2.5625 -3.109375 7.171875 -3.109375q4.625 0 7.171875 3.125q2.34375 2.8750076 2.34375 6.7656326q0 3.921875 -2.34375 6.765625q-2.546875 3.171875 -7.171875 3.171875q-4.609375 0 -7.171875 -3.15625q-2.34375 -2.8125 -2.34375 -6.734375zm4.640625 0q0 1.0 0.265625 2.109375q0.28125 1.109375 0.96875 2.046875q1.328125 1.90625 3.640625 1.90625q2.453125 0 3.625 -1.859375q1.203125 -1.90625 1.203125 -4.25q0 -2.40625 -1.1875 -4.140625q-1.234375 -1.9218826 -3.640625 -1.9218826q-2.3125 0 -3.640625 1.9531326q-1.234375 1.671875 -1.234375 4.15625zm33.478134 7.40625q0 1.078125 -0.78125 1.59375q-0.765625 0.515625 -1.296875 0.515625q-0.515625 0 -0.96875 -0.109375q-0.453125 -0.125 -0.734375 -0.46875q-0.734375 -0.5 -0.734375 -1.53125l0.484375 0q-0.171875 1.5625 -3.5 2.234375q-1.0 0.25 -2.1875 0.25q-1.171875 0 -2.484375 -0.421875q-1.3125 -0.4375 -2.265625 -1.390625q-2.078125 -1.96875 -2.078125 -5.828125l0 -9.656258q0 -1.015625 0.671875 -1.609375q0.671875 -0.59375 1.53125 -0.59375q0.859375 0 1.53125 0.59375q0.671875 0.59375 0.671875 1.609375l0 9.890633q0 2.125 0.75 2.84375q0.78125 0.734375 2.46875 0.734375q2.875 0 3.953125 -2.296875q0.421875 -0.8125 0.453125 -1.859375l0 -9.312508q0 -1.046875 0.71875 -1.625q0.734375 -0.578125 1.59375 -0.578125q0.859375 0 1.53125 0.59375q0.671875 0.59375 0.671875 1.609375l0 14.812508zm26.204803 -11.078125l-4.09375 11.109375q-0.6875 2.078125 -2.75 2.078125q-2.0625 0 -2.625 -2.046875l-5.28125 -14.093758q-0.140625 -0.40625 -0.140625 -0.796875q0 -0.390625 0.15625 -0.90625q0.171875 -0.53125 0.671875 -0.734375q0.546875 -0.390625 1.171875 -0.546875q1.890625 0 2.234375 1.625l3.96875 11.218758l4.0625 -10.828133q0.640625 -1.890625 2.6875 -2.015625q0.890625 0 1.671875 0.453125q0.796875 0.453125 1.15625 1.578125l3.828125 10.625008l3.90625 -11.078133q0.484375 -1.578125 1.96875 -1.578125q0.90625 0 1.53125 0.640625q0.640625 0.625 0.640625 1.25q0 0.625 -0.078125 1.03125l-5.453125 14.171883q-0.625 2.03125 -2.515625 2.03125q-2.125 0 -2.6875 -2.09375l-4.03125 -11.09375zm21.833755 -11.187508q0 1.109375 -0.765625 1.796875q-0.75 0.6875 -1.984375 0.6875q-1.234375 0 -2.0 -0.671875q-0.765625 -0.6875 -0.765625 -1.8125q0 -1.0 0.765625 -1.6875q0.765625 -0.703125 2.03125 -0.703125q1.265625 0 1.984375 0.703125q0.734375 0.703125 0.734375 1.6875zm-4.953125 7.546875q0 -1.0625 0.703125 -1.671875q0.71875 -0.625 1.34375 -0.625q0.625 0 1.0 0.1875q0.375 0.1875 0.640625 0.4375q0.8125 0.53125 0.8125 1.671875l0 14.625008q0 1.109375 -0.734375 1.65625q-0.734375 0.546875 -1.5625 0.546875q-0.84375 0 -1.53125 -0.5625q-0.671875 -0.5625 -0.671875 -1.640625l0 -14.625008zm8.275879 -0.140625q0 -0.984375 0.71875 -1.5625q0.71875 -0.59375 1.484375 -0.59375q1.546875 0 1.953125 1.09375q0.40625 1.09375 -0.578125 2.671875q-0.109375 -1.953125 2.0 -3.109375q1.796875 -0.984375 3.546875 -0.984375q1.765625 0 3.015625 0.453125q1.25 0.4375 2.296875 1.375q2.109375 2.0 2.109375 5.7656326l0 9.75q0 1.078125 -0.78125 1.59375q-0.765625 0.515625 -1.515625 0.515625q-0.859375 0 -1.546875 -0.5625q-0.671875 -0.5625 -0.671875 -1.546875l0 -9.9375q0 -1.8125 -0.9375 -2.71875q-0.875 -0.8593826 -2.1875 -0.8593826q-1.90625 0 -3.234375 1.0781326q-1.265625 1.125 -1.265625 3.609375l0 8.828125q0 1.078125 -0.75 1.59375q-0.734375 0.515625 -1.546875 0.515625q-0.875 0 -1.5 -0.578125q-0.609375 -0.578125 -0.609375 -1.53125l0 -14.859383zm25.229034 12.140633q1.3125 0 1.921875 0.609375q0.75 1.0 0.75 1.625q0 0.609375 -0.15625 1.078125q-0.140625 0.46875 -0.59375 0.875q-0.796875 0.640625 -1.921875 0.640625q-1.28125 0 -1.8125 -0.59375q-0.9375 -0.75 -0.9375 -1.5625q0 -0.828125 0.1875 -1.15625q0.203125 -0.34375 0.453125 -0.71875q0.828125 -0.796875 2.109375 -0.796875zm-2.609375 -20.625008q0 -1.09375 0.796875 -1.65625q0.8125 -0.5625 1.671875 -0.5625q0.875 0 1.671875 0.5625q0.8125 0.5625 0.8125 1.65625l-0.5 16.953133q-0.0625 0.984375 -0.625 1.625q-0.5625 0.625 -1.34375 0.625q-0.78125 0 -1.359375 -0.609375q-0.578125 -0.625 -0.578125 -1.671875l-0.546875 -16.921883z" fill-rule="nonzero"/><path fill="#000000" d="m79.208786 179.57257l0 8.90625q0 1.640625 -1.515625 2.203125q-0.40625 0.140625 -1.078125 0.140625q-0.65625 0 -1.453125 -0.5625q-0.78125 -0.578125 -0.78125 -1.78125l0 -8.859375l-7.984375 -12.109375q-0.390625 -0.484375 -0.390625 -1.046875q0 -0.578125 0.21875 -1.015625q0.234375 -0.4375 0.65625 -0.78125q0.78125 -0.609375 1.609375 -0.609375q1.5 0 2.1875 1.234375l6.375 11.515625l-0.046875 0l6.421875 -11.625q0.6875 -1.125 1.984375 -1.125q1.421875 0 2.0 1.125q0.296875 0.40625 0.296875 0.90625q0 0.515625 -0.34375 1.078125l-8.15625 12.40625zm9.422104 1.734375q0 -1.78125 0.578125 -3.578125q0.578125 -1.796875 1.765625 -3.25q2.5625 -3.109375 7.171875 -3.109375q4.625 0 7.171875 3.125q2.34375 2.875 2.34375 6.765625q0 3.921875 -2.34375 6.765625q-2.546875 3.171875 -7.171875 3.171875q-4.609375 0 -7.171875 -3.15625q-2.34375 -2.8125 -2.34375 -6.734375zm4.640625 0q0 1.0 0.265625 2.109375q0.28125 1.109375 0.96875 2.046875q1.328125 1.90625 3.640625 1.90625q2.453125 0 3.625 -1.859375q1.203125 -1.90625 1.203125 -4.25q0 -2.40625 -1.1875 -4.140625q-1.234375 -1.921875 -3.640625 -1.921875q-2.3125 0 -3.640625 1.953125q-1.234375 1.671875 -1.234375 4.15625zm33.478134 7.40625q0 1.078125 -0.78125 1.59375q-0.765625 0.515625 -1.296875 0.515625q-0.515625 0 -0.96875 -0.109375q-0.453125 -0.125 -0.734375 -0.46875q-0.734375 -0.5 -0.734375 -1.53125l0.484375 0q-0.171875 1.5625 -3.5 2.234375q-1.0 0.25 -2.1875 0.25q-1.171875 0 -2.484375 -0.421875q-1.3125 -0.4375 -2.265625 -1.390625q-2.078125 -1.96875 -2.078125 -5.828125l0 -9.65625q0 -1.015625 0.671875 -1.609375q0.671875 -0.59375 1.53125 -0.59375q0.859375 0 1.53125 0.59375q0.671875 0.59375 0.671875 1.609375l0 9.890625q0 2.125 0.75 2.84375q0.78125 0.734375 2.46875 0.734375q2.875 0 3.953125 -2.296875q0.421875 -0.8125 0.453125 -1.859375l0 -9.3125q0 -1.046875 0.71875 -1.625q0.734375 -0.578125 1.59375 -0.578125q0.859375 0 1.53125 0.59375q0.671875 0.59375 0.671875 1.609375l0 14.8125zm12.970428 -22.34375q0 -1.171875 0.734375 -1.6875q0.734375 -0.53125 1.265625 -0.53125q0.546875 0 0.9375 0.078125q0.40625 0.078125 0.75 0.421875q0.8125 0.515625 0.8125 1.71875l0 22.25q0 1.109375 -0.734375 1.65625q-0.734375 0.546875 -1.5625 0.546875q-0.84375 0 -1.53125 -0.5625q-0.671875 -0.5625 -0.671875 -1.640625l0 -22.25zm7.025879 14.9375q0 -1.78125 0.578125 -3.578125q0.578125 -1.796875 1.765625 -3.25q2.5625 -3.109375 7.171875 -3.109375q4.625 0 7.171875 3.125q2.34375 2.875 2.34375 6.765625q0 3.921875 -2.34375 6.765625q-2.546875 3.171875 -7.171875 3.171875q-4.609375 0 -7.171875 -3.15625q-2.34375 -2.8125 -2.34375 -6.734375zm4.640625 0q0 1.0 0.265625 2.109375q0.28125 1.109375 0.96875 2.046875q1.328125 1.90625 3.640625 1.90625q2.453125 0 3.625 -1.859375q1.203125 -1.90625 1.203125 -4.25q0 -2.40625 -1.1875 -4.140625q-1.234375 -1.921875 -3.640625 -1.921875q-2.3125 0 -3.640625 1.953125q-1.234375 1.671875 -1.234375 4.15625zm23.915634 -6.109375q-3.140625 0 -3.078125 1.671875q0 0.984375 1.6875 1.4375q0.765625 0.203125 1.65625 0.390625q0.890625 0.1875 1.96875 0.453125q1.09375 0.25 2.21875 0.6875q1.78125 0.515625 2.796875 1.8125q1.015625 1.296875 1.015625 3.109375q0 3.203125 -2.71875 4.953125q-2.3125 1.515625 -5.78125 1.484375q-2.53125 0 -4.984375 -0.890625q-1.078125 -0.421875 -1.828125 -1.109375q-0.734375 -0.6875 -0.734375 -1.515625q0 -0.828125 0.5625 -1.328125q0.5625 -0.5 1.21875 -0.5q0.65625 0 1.234375 0.265625q0.59375 0.25 1.390625 0.515625q2.0 0.734375 3.171875 0.734375q1.171875 0 1.84375 -0.125q0.6875 -0.140625 1.1875 -0.4375q0.984375 -0.65625 0.984375 -1.6875q0 -0.6875 -0.453125 -1.078125q-0.453125 -0.390625 -1.40625 -0.671875q-0.9375 -0.296875 -1.9375 -0.515625q-0.984375 -0.234375 -2.03125 -0.46875q-1.03125 -0.234375 -2.046875 -0.578125q-1.0 -0.359375 -1.75 -1.0q-1.875 -1.3125 -1.875 -3.78125q0 -3.078125 2.59375 -4.4375q1.953125 -1.21875 5.140625 -1.21875q3.171875 0 5.15625 0.96875q1.96875 1.015625 1.96875 2.484375q0 0.78125 -0.578125 1.21875q-0.5625 0.4375 -1.21875 0.4375q-0.9375 0 -1.375 -0.28125q-0.4375 -0.296875 -0.78125 -0.484375q-0.328125 -0.1875 -0.765625 -0.265625q-0.953125 -0.25 -2.453125 -0.25zm28.180176 5.546875q0 1.734375 -1.890625 1.890625l-11.78125 0q0.140625 3.28125 3.109375 4.46875q0.796875 0.265625 1.921875 0.265625q2.3125 0 4.796875 -1.75q1.390625 -0.796875 2.421875 0.203125q0.609375 0.65625 0.40625 1.28125q0 0.875 -0.578125 1.390625q-2.75 2.734375 -7.234375 2.703125q-4.125 0 -6.65625 -2.6875q-2.8125 -2.765625 -2.8125 -7.25q0 -4.109375 2.296875 -6.828125q2.46875 -3.0625 6.890625 -3.0625q4.421875 0 6.796875 2.71875q2.21875 2.421875 2.3125 6.65625zm-4.40625 -1.640625q-0.078125 -1.3125 -1.34375 -2.703125q-1.140625 -1.203125 -3.359375 -1.203125q-1.84375 0 -3.15625 1.375q-1.21875 1.421875 -1.296875 2.53125l9.15625 0zm12.033997 6.890625q1.3125 0 1.921875 0.609375q0.75 1.0 0.75 1.625q0 0.609375 -0.15625 1.078125q-0.140625 0.46875 -0.59375 0.875q-0.796875 0.640625 -1.921875 0.640625q-1.28125 0 -1.8125 -0.59375q-0.9375 -0.75 -0.9375 -1.5625q0 -0.828125 0.1875 -1.15625q0.203125 -0.34375 0.453125 -0.71875q0.828125 -0.796875 2.109375 -0.796875zm-2.609375 -20.625q0 -1.09375 0.796875 -1.65625q0.8125 -0.5625 1.671875 -0.5625q0.875 0 1.671875 0.5625q0.8125 0.5625 0.8125 1.65625l-0.5 16.953125q-0.0625 0.984375 -0.625 1.625q-0.5625 0.625 -1.34375 0.625q-0.78125 0 -1.359375 -0.609375q-0.578125 -0.625 -0.578125 -1.671875l-0.546875 -16.921875z" fill-rule="nonzero"/><path fill="#000000" d="m70.19316 238.82257q-1.46875 0 -2.234375 -1.421875q-0.171875 -0.53125 -0.109375 -0.984375l0 -21.96875q0 -1.375 1.3125 -2.15625q0.46875 -0.234375 1.03125 -0.234375l5.984375 0q10.453125 0 13.375 7.703125q0.921875 2.5 0.875 5.734375q0 6.515625 -3.765625 9.9375q-3.71875 3.390625 -10.390625 3.390625l-6.078125 0zm2.390625 -4.046875l4.046875 0q6.734375 0 8.3125 -5.390625q0.515625 -1.71875 0.515625 -4.015625q0 -2.296875 -0.671875 -4.0625q-0.671875 -1.78125 -1.90625 -2.9375q-2.390625 -2.171875 -7.171875 -2.171875l-3.125 0l0 18.578125zm24.69133 -11.3125q0.515625 -4.09375 4.828125 -4.09375q1.0625 0 1.625 0.65625q0.578125 0.640625 0.578125 1.390625q0 0.75 -0.578125 1.40625q-0.5625 0.640625 -1.59375 0.640625q-1.015625 0 -1.765625 0.296875q-0.75 0.296875 -1.203125 0.828125q-1.0625 1.296875 -1.0625 3.46875l0 8.65625q0 1.078125 -0.75 1.59375q-0.734375 0.515625 -1.296875 0.515625q-0.5625 0 -0.953125 -0.109375q-0.375 -0.125 -0.703125 -0.453125q-0.703125 -0.453125 -0.703125 -1.546875l0 -14.8125q0 -0.953125 0.65625 -1.578125q0.671875 -0.625 1.640625 -0.625q0.96875 0 1.53125 0.65625q0.578125 0.640625 0.578125 1.546875l-0.828125 1.5625zm17.929443 3.078125q0.984375 0 1.109375 0l0 -0.59375q0 -2.75 -3.171875 -2.75q-1.640625 0 -2.328125 0.265625q-1.40625 0.515625 -2.109375 0.953125q-0.703125 0.421875 -1.359375 0.421875q-0.640625 0 -1.21875 -0.5q-0.578125 -0.5 -0.578125 -1.328125q0 -0.75 0.6875 -1.34375q2.390625 -2.296875 6.953125 -2.296875q5.421875 0 7.015625 3.78125q0.515625 1.3125 0.515625 2.984375l-0.09375 10.625q0 1.0 -0.6875 1.53125q-0.6875 0.53125 -1.453125 0.53125q-0.765625 0 -1.46875 -0.453125q-0.703125 -0.46875 -0.703125 -1.578125l0.46875 0q-0.171875 1.46875 -3.40625 2.15625q-0.953125 0.25 -2.171875 0.25q-1.21875 0 -2.453125 -0.375q-1.21875 -0.359375 -2.171875 -1.15625q-2.0 -1.671875 -2.0 -4.5q0 -6.625 10.625 -6.625zm1.296875 3.640625q-0.046875 0.1875 -1.03125 0.1875q-0.984375 0 -1.953125 0.03125q-0.96875 0.015625 -1.796875 0.203125q-0.8125 0.171875 -1.453125 0.53125q-1.15625 0.609375 -1.21875 2.0q0 1.015625 0.859375 1.609375q0.71875 0.59375 2.140625 0.625q1.75 0 3.015625 -1.109375q1.125 -1.046875 1.25 -3.265625l0.1875 -0.8125zm21.096664 -4.546875l-4.09375 11.109375q-0.6875 2.078125 -2.75 2.078125q-2.0625 0 -2.625 -2.046875l-5.28125 -14.09375q-0.140625 -0.40625 -0.140625 -0.796875q0 -0.390625 0.15625 -0.90625q0.171875 -0.53125 0.671875 -0.734375q0.546875 -0.390625 1.171875 -0.546875q1.890625 0 2.234375 1.625l3.96875 11.21875l4.0625 -10.828125q0.640625 -1.890625 2.6875 -2.015625q0.890625 0 1.671875 0.453125q0.796875 0.453125 1.15625 1.578125l3.828125 10.625l3.90625 -11.078125q0.484375 -1.578125 1.96875 -1.578125q0.90625 0 1.53125 0.640625q0.640625 0.625 0.640625 1.25q0 0.625 -0.078125 1.03125l-5.453125 14.171875q-0.625 2.03125 -2.515625 2.03125q-2.125 0 -2.6875 -2.09375l-4.03125 -11.09375zm21.833755 8.359375q1.3125 0 1.921875 0.609375q0.75 1.0 0.75 1.625q0 0.609375 -0.15625 1.078125q-0.140625 0.46875 -0.59375 0.875q-0.796875 0.640625 -1.921875 0.640625q-1.28125 0 -1.8125 -0.59375q-0.9375 -0.75 -0.9375 -1.5625q0 -0.828125 0.1875 -1.15625q0.203125 -0.34375 0.453125 -0.71875q0.828125 -0.796875 2.109375 -0.796875zm-2.609375 -20.625q0 -1.09375 0.796875 -1.65625q0.8125 -0.5625 1.671875 -0.5625q0.875 0 1.671875 0.5625q0.8125 0.5625 0.8125 1.65625l-0.5 16.953125q-0.0625 0.984375 -0.625 1.625q-0.5625 0.625 -1.34375 0.625q-0.78125 0 -1.359375 -0.609375q-0.578125 -0.625 -0.578125 -1.671875l-0.546875 -16.921875z" fill-rule="nonzero"/><path fill="#000000" d="m81.302536 451.51007q0.71875 0 1.359375 0.484375q0.640625 0.46875 0.640625 1.265625l0 0.515625l-0.921875 5.921875l1.28125 0q0.9375 0 1.484375 0.625q0.546875 0.625 0.546875 1.390625q0 0.8125 -0.5625 1.375q-0.5625 0.5625 -1.46875 0.5625l-1.8125 0l-0.53125 3.171875l1.34375 0q0.90625 0 1.453125 0.59375q0.5625 0.59375 0.5625 1.375q0 0.78125 -0.5 1.359375q-0.5 0.578125 -1.515625 0.578125l-1.90625 0l-1.0625 7.25q-0.140625 0.890625 -0.734375 1.328125q-0.578125 0.4375 -1.3125 0.4375q-0.734375 0 -1.359375 -0.546875q-0.625 -0.546875 -0.625 -1.484375l0 -0.09375q0 -0.546875 0.734375 -0.21875l0.25 -6.671875l-3.015625 0l-1.0 7.21875q-0.078125 0.921875 -0.75 1.359375q-0.65625 0.4375 -1.390625 0.4375q-0.71875 0 -1.3125 -0.5625q-0.59375 -0.546875 -0.59375 -1.46875l0 -0.09375q0 -0.03125 0 -0.140625l1.0625 -6.75l-1.703125 0q-0.921875 0 -1.4375 -0.578125q-0.5 -0.578125 -0.5 -1.328125q0 -0.765625 0.453125 -1.375q0.46875 -0.625 1.484375 -0.625l2.21875 0l0.421875 -3.171875l-1.625 0q-0.921875 0 -1.484375 -0.59375q-0.546875 -0.59375 -0.546875 -1.4375q0 -0.796875 0.5625 -1.359375q0.5625 -0.5625 1.46875 -0.5625l2.21875 0l0.921875 -6.375q0.140625 -0.90625 0.75 -1.359375q0.609375 -0.453125 1.359375 -0.453125q0.75 0 1.359375 0.484375q0.609375 0.484375 0.609375 1.265625l0 0.515625l-0.921875 5.921875l3.0 0l0.953125 -6.34375q0.078125 -0.921875 0.734375 -1.375q0.65625 -0.46875 1.359375 -0.46875zm-7.078125 15.3125l3.015625 0l0.46875 -3.171875l-3.03125 0l-0.453125 3.171875z" fill-rule="nonzero"/></g></svg>