<svg height="512pt" viewBox="0 -19 512 512" width="512pt" xmlns="http://www.w3.org/2000/svg"><path d="m482 161.105469v-47.589844c0-12.019531-4.679688-23.320313-13.179688-31.820313s-19.800781-13.179687-31.820312-13.179687c-24.8125 0-45 20.1875-45 45v7.085937l-69.050781-69.050781c-17.351563-17.351562-45.582031-17.351562-62.933594 0-4.019531 4.019531-7.097656 8.632813-9.253906 13.550781-17.167969-9.738281-39.414063-7.308593-54.03125 7.308594-7.90625 7.90625-12.503907 18.238282-13.109375 29.320313-11.078125.601562-21.410156 5.199219-29.316406 13.105469s-12.503907 18.238281-13.109376 29.320312c-11.078124.601562-21.410156 5.199219-29.316406 13.105469-8.5 8.5-13.183594 19.800781-13.183594 31.820312s4.683594 23.320313 13.183594 31.820313l12.429688 12.429687c-4.496094 2.140625-8.710938 5.0625-12.429688 8.78125-17.546875 17.546875-17.546875 46.09375 0 63.640625l141.421875 141.421875c18.519531 18.519531 42.847657 27.777344 67.175781 27.777344 24.324219 0 48.652344-9.257813 67.171876-27.777344l108.242187-108.242187c10.390625-10.386719 16.109375-24.199219 16.109375-38.890625v-96.519531c0-19.550782-12.539062-36.226563-30-42.417969zm-200.769531-88.34375c2.828125-2.824219 6.539062-4.238281 10.253906-4.238281 3.710937 0 7.425781 1.414062 10.25 4.238281l94.660156 94.660156c4.289063 4.289063 10.742188 5.570313 16.34375 3.25 5.605469-2.320313 9.261719-7.792969 9.261719-13.859375v-43.296875c0-8.269531 6.730469-15 15-15 4.007812 0 7.773438 1.558594 10.605469 4.394531 2.832031 2.832032 4.394531 6.597656 4.394531 10.605469v47.582031.007813c-17.460938 6.191406-30 22.867187-30 42.421875v30.511718l-140.769531-140.769531c-5.652344-5.65625-5.652344-14.855469 0-20.507812zm-63.285157 20.859375c5.847657-5.847656 15.363282-5.847656 21.210938 0l12.433594 12.433594c-4.5 2.140624-8.714844 5.0625-12.433594 8.78125s-6.640625 7.933593-8.78125 12.433593l-12.433594-12.433593c-2.832031-2.832032-4.390625-6.597657-4.390625-10.605469 0-4.007813 1.558594-7.773438 4.394531-10.609375zm264.054688 206.421875c0 6.679687-2.601562 12.957031-7.320312 17.679687l-108.242188 108.242188c-25.34375 25.339844-66.582031 25.34375-91.925781 0l-77.78125-77.785156-63.640625-63.640626c-5.847656-5.847656-5.847656-15.363281 0-21.210937 5.851562-5.847656 15.367187-5.847656 21.214844 0l63.640624 63.640625c5.855469 5.855469 15.355469 5.855469 21.210938 0 5.859375-5.859375 5.859375-15.355469 0-21.214844l-106.066406-106.066406c-2.832032-2.832031-4.394532-6.597656-4.394532-10.605469 0-4.007812 1.5625-7.773437 4.394532-10.605469 2.835937-2.835937 6.601562-4.394531 10.605468-4.394531 4.007813 0 7.773438 1.558594 10.609376 4.394531l106.066406 106.0625c.363281.367188.746094.710938 1.136718 1.03125 5.5 4.484376 13.4375 4.484376 18.9375 0 .390626-.320312.773438-.664062 1.136719-1.03125 5.859375-5.855468 5.859375-15.351562 0-21.210937l-106.0625-106.066406c-5.847656-5.847657-5.847656-15.363281 0-21.210938 5.847657-5.847656 15.363281-5.851562 21.210938 0l42.425781 42.425781 63.640625 63.636719c.367187.367188.746094.710938 1.140625 1.03125 5.496094 4.484375 13.433594 4.484375 18.933594 0 .394531-.320312.773437-.664062 1.140625-1.03125 5.855469-5.855469 5.855469-15.351562 0-21.210937l-63.640625-63.640625c-5.847656-5.847657-5.847656-15.363281 0-21.210938 2.832031-2.835937 6.601562-4.394531 10.605468-4.394531 4.007813 0 7.773438 1.558594 10.605469 4.394531l63.640625 63.636719 81.171875 81.171875c4.289063 4.292969 10.742188 5.574219 16.34375 3.25 5.605469-2.320313 9.261719-7.789063 9.261719-13.855469v-66.726562c0-8.273438 6.730469-15 15-15s15 6.726562 15 15zm0 0"/><path d="m135 78c8.285156 0 15-6.714844 15-15v-48c0-8.285156-6.714844-15-15-15s-15 6.714844-15 15v48c0 8.285156 6.714844 15 15 15zm0 0"/><path d="m54.605469 33.394531c-5.855469-5.859375-15.355469-5.859375-21.210938 0-5.859375 5.859375-5.859375 15.355469 0 21.210938l36 36c2.925781 2.929687 6.765625 4.394531 10.605469 4.394531 3.835938 0 7.675781-1.464844 10.605469-4.394531 5.859375-5.855469 5.859375-15.351563 0-21.210938zm0 0"/><path d="m63 120h-48c-8.285156 0-15 6.714844-15 15s6.714844 15 15 15h48c8.285156 0 15-6.714844 15-15s-6.714844-15-15-15zm0 0"/></svg>