<svg version="1.1" xmlns="http://www.w3.org/2000/svg" xmlns:xlink="http://www.w3.org/1999/xlink" width="142.06685" height="35.28838" viewBox="0,0,142.06685,35.28838"><g transform="translate(-168.96662,-162.35581)"><g data-paper-data="{&quot;isPaintingLayer&quot;:true}" fill-rule="nonzero" stroke-miterlimit="10" stroke-dasharray="" stroke-dashoffset="0" style="mix-blend-mode: normal"><path d="M176.21662,190.39419v-20.78838h127.56685v20.78838z" data-paper-data="{&quot;zoomLevel&quot;:2.5}" fill="#d8acac" stroke="#d8acac" stroke-width="14.5" stroke-linecap="butt" stroke-linejoin="round"/><path d="M208.76366,187.1653c-0.43356,0 -0.79271,-0.1456 -1.07744,-0.4368c-0.27826,-0.2912 -0.41739,-0.65035 -0.41739,-1.07744v-10.26c0,-0.43356 0.13913,-0.79595 0.41739,-1.08715c0.28473,-0.2912 0.64388,-0.43681 1.07744,-0.43681c0.43356,0 0.78948,0.14561 1.06774,0.43681c0.28473,0.2912 0.42709,0.65358 0.42709,1.08715v2.32961l-0.17472,-1.65984c0.18119,-0.40121 0.41415,-0.75389 0.69888,-1.05803c0.2912,-0.30415 0.618,-0.55975 0.98038,-0.76683c0.36885,-0.20708 0.76036,-0.35915 1.17451,-0.45622c0.41415,-0.10353 0.82831,-0.1553 1.24246,-0.1553c0.49828,0 0.91566,0.14237 1.25216,0.4271c0.34297,0.27826 0.51445,0.60828 0.51445,0.99008c0,0.54358 -0.14236,0.93508 -0.42709,1.17451c-0.27826,0.23943 -0.5824,0.35915 -0.91243,0.35915c-0.31708,0 -0.60505,-0.05501 -0.8639,-0.16502c-0.25238,-0.11648 -0.54681,-0.17472 -0.88331,-0.17472c-0.29767,0 -0.59858,0.07118 -0.90273,0.21354c-0.30415,0.1359 -0.58564,0.35268 -0.84448,0.65035c-0.25885,0.29767 -0.46592,0.66653 -0.62123,1.10657c-0.1553,0.44004 -0.23296,0.95773 -0.23296,1.55308v5.89198c0,0.4271 -0.14236,0.78624 -0.42709,1.07744c-0.27826,0.2912 -0.63418,0.4368 -1.06774,0.4368zM223.65103,187.41768c-1.41071,0 -2.63376,-0.29443 -3.66914,-0.88331c-1.03538,-0.58888 -1.83133,-1.38806 -2.38786,-2.39756c-0.55005,-1.0095 -0.82507,-2.15489 -0.82507,-3.43617c0,-1.48836 0.30091,-2.75671 0.90273,-3.80504c0.60181,-1.0548 1.3913,-1.86369 2.36844,-2.42668c0.98361,-0.56299 2.02223,-0.84448 3.11585,-0.84448c0.84124,0 1.6372,0.17472 2.38786,0.52416c0.75713,0.34297 1.42364,0.8186 1.99958,1.42688c0.5824,0.60181 1.04185,1.3007 1.37835,2.09665c0.34297,0.79595 0.51445,1.64044 0.51445,2.53346c-0.01295,0.40121 -0.17148,0.72477 -0.47563,0.97067c-0.29767,0.2459 -0.64388,0.36885 -1.03862,0.36885h-9.49316l-0.74742,-2.48492h9.12431l-0.54358,0.50475v-0.66976c-0.03883,-0.48533 -0.21031,-0.91567 -0.51445,-1.291c-0.30415,-0.3818 -0.68595,-0.68594 -1.1454,-0.91243c-0.45298,-0.22649 -0.93508,-0.33973 -1.4463,-0.33973c-0.49828,0 -0.9642,0.06794 -1.39777,0.20384c-0.4271,0.12942 -0.79918,0.35268 -1.11627,0.66977c-0.31708,0.31708 -0.56623,0.74095 -0.74742,1.27158c-0.18119,0.52416 -0.27178,1.19392 -0.27178,2.00929c0,0.89301 0.18443,1.65015 0.55328,2.27138c0.37533,0.62123 0.85743,1.09361 1.4463,1.41717c0.58888,0.32356 1.21334,0.48534 1.87339,0.48534c0.61476,0 1.10333,-0.04854 1.46571,-0.1456c0.36885,-0.10353 0.66329,-0.22325 0.88331,-0.35915c0.22649,-0.14237 0.43034,-0.26532 0.61153,-0.36885c0.29767,-0.14883 0.57916,-0.22325 0.84448,-0.22325c0.36238,0 0.66329,0.12618 0.90272,0.37856c0.2459,0.2459 0.36885,0.53387 0.36885,0.8639c0,0.44651 -0.23296,0.85419 -0.69888,1.22305c-0.43356,0.36238 -1.03862,0.6827 -1.81516,0.96096c-0.77653,0.27179 -1.57896,0.40768 -2.40726,0.40768zM235.27771,187.41768c0,0.94479 -0.18443,1.76015 -0.55328,2.44609c-0.36238,0.68594 -0.85095,1.21981 -1.46571,1.60161c-0.60828,0.3818 -1.29423,0.5727 -2.05783,0.5727c-0.41415,0 -0.74741,-0.13913 -0.99979,-0.41739c-0.25885,-0.27179 -0.38827,-0.59857 -0.38827,-0.98037v-0.27179c0,-0.36238 0.11972,-0.65358 0.35915,-0.8736c0.23943,-0.21355 0.54034,-0.37856 0.90273,-0.49504c0.40121,-0.12942 0.68271,-0.31386 0.84448,-0.55329c0.16825,-0.23943 0.27179,-0.52739 0.31062,-0.86389c0.0453,-0.33003 0.06794,-0.67624 0.06794,-1.03862v-11.15302c0,-0.43356 0.13913,-0.79595 0.41739,-1.08715c0.28473,-0.2912 0.64064,-0.43681 1.06773,-0.43681c0.43356,0 0.78948,0.14561 1.06774,0.43681c0.28473,0.2912 0.42709,0.65358 0.42709,1.08715zM233.71493,172.25579c-0.56299,0 -0.96096,-0.0906 -1.19392,-0.27178c-0.23296,-0.18119 -0.34945,-0.50475 -0.34945,-0.97067v-0.47563c0,-0.47887 0.12619,-0.80566 0.37856,-0.98038c0.25885,-0.17472 0.65359,-0.26208 1.18422,-0.26208c0.5824,0 0.99009,0.09383 1.22305,0.2815c0.23296,0.18119 0.34944,0.50151 0.34944,0.96096v0.47563c0,0.47887 -0.12618,0.80566 -0.37856,0.98038c-0.2459,0.17472 -0.65035,0.26208 -1.21334,0.26208zM244.89705,187.41768c-1.41071,0 -2.63376,-0.29443 -3.66913,-0.88331c-1.03538,-0.58888 -1.83133,-1.38806 -2.38785,-2.39756c-0.55005,-1.0095 -0.82507,-2.15489 -0.82507,-3.43617c0,-1.48836 0.3009,-2.75671 0.90272,-3.80504c0.60181,-1.0548 1.3913,-1.86369 2.36844,-2.42668c0.98361,-0.56299 2.02224,-0.84448 3.11586,-0.84448c0.84124,0 1.6372,0.17472 2.38785,0.52416c0.75712,0.34297 1.42364,0.8186 1.99958,1.42688c0.5824,0.60181 1.04185,1.3007 1.37835,2.09665c0.34297,0.79595 0.51445,1.64044 0.51445,2.53346c-0.01294,0.40121 -0.17148,0.72477 -0.47563,0.97067c-0.29767,0.2459 -0.64388,0.36885 -1.03861,0.36885h-9.49316l-0.74741,-2.48492h9.1243l-0.54357,0.50475v-0.66976c-0.03882,-0.48533 -0.21031,-0.91567 -0.51445,-1.291c-0.30414,-0.3818 -0.68594,-0.68594 -1.14539,-0.91243c-0.45298,-0.22649 -0.93508,-0.33973 -1.4463,-0.33973c-0.49828,0 -0.9642,0.06794 -1.39777,0.20384c-0.4271,0.12942 -0.79919,0.35268 -1.11627,0.66977c-0.31709,0.31708 -0.56623,0.74095 -0.74741,1.27158c-0.18119,0.52416 -0.27179,1.19392 -0.27179,2.00929c0,0.89301 0.18443,1.65015 0.55328,2.27138c0.37532,0.62123 0.85743,1.09361 1.4463,1.41717c0.58888,0.32356 1.21334,0.48534 1.8734,0.48534c0.61476,0 1.10332,-0.04854 1.46571,-0.1456c0.36886,-0.10353 0.66329,-0.22325 0.88331,-0.35915c0.22649,-0.14237 0.43033,-0.26532 0.61152,-0.36885c0.29767,-0.14883 0.57917,-0.22325 0.84449,-0.22325c0.36238,0 0.66329,0.12618 0.90272,0.37856c0.2459,0.2459 0.36886,0.53387 0.36886,0.8639c0,0.44651 -0.23297,0.85419 -0.69888,1.22305c-0.43356,0.36238 -1.03862,0.6827 -1.81515,0.96096c-0.77653,0.27179 -1.57896,0.40768 -2.40726,0.40768zM258.96011,173.62444c0.94479,0 1.76662,0.1003 2.46551,0.30091c0.70536,0.19413 1.25216,0.46916 1.64043,0.82507c0.39474,0.35591 0.59211,0.78301 0.59211,1.28128c0,0.33003 -0.1003,0.64064 -0.30091,0.93184c-0.2006,0.2912 -0.4918,0.43681 -0.8736,0.43681c-0.26532,0 -0.48533,-0.03559 -0.66005,-0.10677c-0.16825,-0.07765 -0.32032,-0.17472 -0.45622,-0.2912c-0.12943,-0.11648 -0.28473,-0.22326 -0.46592,-0.32032c-0.16825,-0.10353 -0.42386,-0.18443 -0.76683,-0.24267c-0.3365,-0.05824 -0.58888,-0.08736 -0.75712,-0.08736c-0.84125,0 -1.55631,0.18443 -2.14518,0.55328c-0.58888,0.36238 -1.04186,0.85419 -1.35894,1.47543c-0.31061,0.62123 -0.46592,1.33629 -0.46592,2.14518c0,0.79595 0.16178,1.50454 0.48533,2.12577c0.32356,0.62123 0.77006,1.11627 1.33953,1.48513c0.56946,0.36238 1.22628,0.54358 1.97046,0.54358c0.41415,0 0.77007,-0.02265 1.06774,-0.06795c0.30414,-0.05177 0.55328,-0.12942 0.74741,-0.23296c0.23296,-0.12942 0.44004,-0.26856 0.62123,-0.41739c0.18766,-0.14883 0.46268,-0.22325 0.82507,-0.22325c0.4271,0 0.75712,0.13589 0.99009,0.40768c0.23296,0.27179 0.34944,0.60829 0.34944,1.0095c0,0.41415 -0.23296,0.79271 -0.69888,1.13568c-0.45945,0.3365 -1.06773,0.60829 -1.82486,0.81537c-0.75066,0.20708 -1.56602,0.31061 -2.4461,0.31061c-1.30717,0 -2.44285,-0.30091 -3.40705,-0.90273c-0.95773,-0.60828 -1.69867,-1.43336 -2.22283,-2.47521c-0.51769,-1.04833 -0.77654,-2.2196 -0.77654,-3.51383c0,-1.35247 0.27503,-2.5464 0.82507,-3.58178c0.55652,-1.03538 1.32658,-1.84751 2.31019,-2.43639c0.99008,-0.58888 2.12253,-0.88331 3.39735,-0.88331zM266.11784,174.11948h5.88227c0.40121,0 0.73447,0.13265 0.99979,0.39798c0.26532,0.26532 0.39797,0.59535 0.39797,0.99009c0,0.3818 -0.13265,0.70212 -0.39797,0.96096c-0.26532,0.25885 -0.59858,0.38827 -0.99979,0.38827h-5.88227c-0.40121,0 -0.73447,-0.13265 -0.99979,-0.39798c-0.26532,-0.26532 -0.39797,-0.59859 -0.39797,-0.9998c0,-0.3818 0.13265,-0.69888 0.39797,-0.95126c0.26532,-0.25885 0.59858,-0.38827 0.99979,-0.38827zM268.77747,171.01333c0.4271,0 0.77653,0.1456 1.04832,0.4368c0.27826,0.2912 0.41739,0.65035 0.41739,1.07745v11.05595c0,0.23296 0.0453,0.42386 0.13589,0.5727c0.0906,0.14883 0.21355,0.25884 0.36885,0.33003c0.16178,0.06471 0.33327,0.09706 0.51446,0.09706c0.19414,0 0.37532,-0.03559 0.54358,-0.10677c0.16825,-0.07765 0.35915,-0.11648 0.57269,-0.11648c0.23296,0 0.44327,0.10677 0.63094,0.32032c0.19414,0.21355 0.2912,0.51121 0.2912,0.89301c0,0.46592 -0.25561,0.84772 -0.76683,1.14539c-0.50475,0.29767 -1.04508,0.44651 -1.62102,0.44651c-0.34944,0 -0.73447,-0.02912 -1.1551,-0.08736c-0.42062,-0.05824 -0.8186,-0.19737 -1.19392,-0.41739c-0.37532,-0.22649 -0.68594,-0.56946 -0.93185,-1.02891c-0.2459,-0.46592 -0.36885,-1.10656 -0.36885,-1.92193v-11.18213c0,-0.4271 0.14236,-0.78625 0.4271,-1.07745c0.2912,-0.2912 0.65359,-0.4368 1.08715,-0.4368z" fill="#701b1b" stroke="none" stroke-width="1" stroke-linecap="square" stroke-linejoin="miter"/></g></g></svg>