<svg version="1.1" xmlns="http://www.w3.org/2000/svg" xmlns:xlink="http://www.w3.org/1999/xlink" width="720" height="540" viewBox="0,0,720,540"><defs><clipPath id="clip-1"><rect x="-240" y="-180" transform="scale(0.5,0.5)" width="1440" height="1080" fill="none" fill-rule="nonzero" stroke="none" stroke-width="0.5" stroke-linecap="butt" stroke-linejoin="miter"/></clipPath></defs><g transform="translate(120,90)"><g clip-path="url(#clip-1)" data-paper-data="{&quot;isPaintingLayer&quot;:true}" stroke-miterlimit="10" stroke-dasharray="" stroke-dashoffset="0" style="mix-blend-mode: normal"><path d="M-240,-180h960v720h-960z" fill-opacity="0" fill="#000000" fill-rule="evenodd" stroke="none" stroke-width="1" stroke-linecap="square" stroke-linejoin="miter"/><path d="M-74.34383,-108.06562h693.98425v512.8189h-693.98425z" fill-opacity="0" fill="#000000" fill-rule="evenodd" stroke="none" stroke-width="1" stroke-linecap="square" stroke-linejoin="miter"/><path d="M-74.34383,-108.06562h693.98425v512.8189h-693.98425z" fill="none" fill-rule="evenodd" stroke="#000000" stroke-width="1" stroke-linecap="butt" stroke-linejoin="round"/><path d="M88.6718,52.44376c0.73958,-1.25 1.80208,-1.875 3.1875,-1.875c1.30208,0 2.21354,0.57813 2.73438,1.73438c0.16667,0.35417 0.27083,0.78125 0.3125,1.28125v14.23438h1.875c0.625,0 1.10417,0.20313 1.4375,0.60938c0.33333,0.40625 0.5,0.85938 0.5,1.35938c0,0.54167 -0.16667,1.01563 -0.5,1.42188c-0.33333,0.40625 -0.8125,0.60938 -1.4375,0.60938h-1.92187v3.3125c0,0.76042 -0.22917,1.28646 -0.6875,1.57813c-0.41667,0.41667 -0.98437,0.625 -1.70312,0.625c-0.90625,0 -1.58333,-0.39062 -2.03125,-1.17187c-0.13542,-0.28125 -0.22917,-0.60937 -0.28125,-0.98437v-3.35937h-9.32812c-0.77083,0 -1.38021,-0.25521 -1.82812,-0.76562c-0.4375,-0.51042 -0.65625,-1.03646 -0.65625,-1.57812c0,-0.65625 0.13021,-1.23958 0.39063,-1.75zM83.39055,67.81876h6.76563v-10.65625zM117.93552,61.74063c-2.88542,0 -4.32812,2.01042 -4.32812,6.03125c0,1.9375 0.46875,3.44271 1.40625,4.51563c0.77083,0.89583 1.76563,1.35417 2.98438,1.375c1.25,0 2.3125,-0.47917 3.1875,-1.4375c0.95833,-1.04167 1.4375,-2.49479 1.4375,-4.35937c0,-2.80208 -0.84375,-4.67708 -2.53125,-5.625c-0.55208,-0.33333 -1.27083,-0.5 -2.15625,-0.5zM117.20114,57.88126c3.33333,0 5.28646,0.78125 5.85938,2.34375l-0.34375,-0.07812c0.10417,-0.60417 0.35417,-1.07812 0.75,-1.42187c0.39583,-0.34375 0.86458,-0.51562 1.40625,-0.51562c0.55208,0 1.04688,0.19792 1.48438,0.59375c0.44792,0.39583 0.67188,0.91667 0.67188,1.5625v16.51563c0,2.65625 -0.86979,4.65104 -2.60937,5.98438c-1.52083,1.21875 -3.68229,1.82813 -6.48437,1.82813c-2.5,0 -4.41146,-0.45312 -5.73437,-1.35937c-1.14583,-0.83333 -1.71875,-1.60937 -1.71875,-2.32812c0,-0.53125 0.17708,-0.97917 0.53125,-1.34375c0.36458,-0.35417 0.77604,-0.53125 1.23438,-0.53125c0.45833,0 0.83333,0.09896 1.125,0.29688c0.30208,0.20833 0.60417,0.38021 0.90625,0.51563c0.3125,0.13542 0.63021,0.26042 0.95313,0.375c0.79167,0.28125 1.61458,0.42188 2.46875,0.42188c0.85417,0 1.58333,-0.06771 2.1875,-0.20312c0.60417,-0.13542 1.11458,-0.35937 1.53125,-0.67187c0.80208,-0.52083 1.20313,-1.45833 1.20313,-2.8125l0.125,-1.14062c-0.04167,0.26042 -1.15625,0.66667 -3.34375,1.21875c-0.6875,0.13542 -1.34896,0.20313 -1.98437,0.20313c-2.8125,0 -4.97396,-0.97917 -6.48437,-2.9375c-1.375,-1.70833 -2.0625,-3.88542 -2.0625,-6.53125c0,-2.79167 0.68229,-5.08333 2.04688,-6.875c1.47917,-2.07292 3.57292,-3.10937 6.28125,-3.10937zM147.6324,67.25626c0,1.15625 -0.63021,1.78646 -1.89062,1.89063h-11.78125c0.09375,2.1875 1.13021,3.67708 3.10938,4.46875c0.53125,0.17708 1.17188,0.26563 1.92188,0.26563c1.54167,0 3.14063,-0.58333 4.79688,-1.75c0.92708,-0.53125 1.73438,-0.46354 2.42188,0.20313c0.40625,0.4375 0.54167,0.86458 0.40625,1.28125c0,0.58333 -0.19271,1.04688 -0.57812,1.39063c-1.83333,1.82292 -4.24479,2.72396 -7.23437,2.70313c-2.75,0 -4.96875,-0.89583 -6.65625,-2.6875c-1.875,-1.84375 -2.8125,-4.26042 -2.8125,-7.25c0,-2.73958 0.76563,-5.01562 2.29688,-6.82812c1.64583,-2.04167 3.94271,-3.0625 6.89063,-3.0625c2.94792,0 5.21354,0.90625 6.79688,2.71875c1.47917,1.61458 2.25,3.83333 2.3125,6.65625zM143.22615,65.61563c-0.05208,-0.875 -0.5,-1.77604 -1.34375,-2.70312c-0.76042,-0.80208 -1.88021,-1.20312 -3.35937,-1.20312c-1.22917,0 -2.28125,0.45833 -3.15625,1.375c-0.8125,0.94792 -1.24479,1.79167 -1.29687,2.53125zM163.54138,64.14688l-4.09375,11.10938c-0.45832,1.38542 -1.37498,2.07813 -2.74998,2.07813c-1.375,0 -2.25,-0.68229 -2.625,-2.04687l-5.28125,-14.09375c-0.09375,-0.27083 -0.14062,-0.53646 -0.14062,-0.79687c0,-0.26042 0.05208,-0.5625 0.15625,-0.90625c0.11458,-0.35417 0.33854,-0.59896 0.67188,-0.73437c0.36458,-0.26042 0.75521,-0.44271 1.17188,-0.54687c1.26042,0 2.00521,0.54167 2.23438,1.625l3.96875,11.21875l4.06248,-10.82812c0.42708,-1.26042 1.32292,-1.93229 2.6875,-2.01562c0.59375,0 1.15104,0.15104 1.67188,0.45313c0.53125,0.30208 0.91667,0.82813 1.15625,1.57813l3.82813,10.625l3.90625,-11.07812c0.32292,-1.05208 0.97917,-1.57812 1.96875,-1.57812c0.60417,0 1.11458,0.21354 1.53125,0.64063c0.42708,0.41667 0.64063,0.83333 0.64063,1.25c0,0.41667 -0.02604,0.76042 -0.07812,1.03125l-5.45312,14.17188c-0.41667,1.35417 -1.25521,2.03125 -2.51562,2.03125c-1.41667,0 -2.3125,-0.69792 -2.6875,-2.09375zM185.37515,52.95938c0,0.73958 -0.25521,1.33854 -0.76562,1.79688c-0.5,0.45833 -1.16146,0.6875 -1.98437,0.6875c-0.82292,0 -1.48958,-0.22396 -2,-0.67187c-0.51042,-0.45833 -0.76562,-1.0625 -0.76562,-1.8125c0,-0.66667 0.25521,-1.22917 0.76563,-1.6875c0.51042,-0.46875 1.1875,-0.70312 2.03125,-0.70312c0.84375,0 1.50521,0.23438 1.98438,0.70313c0.48958,0.46875 0.73438,1.03125 0.73438,1.6875zM180.42203,60.50626c0,-0.70833 0.23438,-1.26562 0.70313,-1.67187c0.47917,-0.41667 0.92708,-0.625 1.34375,-0.625c0.41667,0 0.75,0.0625 1,0.1875c0.25,0.125 0.46354,0.27083 0.64063,0.4375c0.54167,0.35417 0.8125,0.91146 0.8125,1.67188v14.625c0,0.73958 -0.24479,1.29167 -0.73437,1.65625c-0.48958,0.36458 -1.01042,0.54688 -1.5625,0.54688c-0.5625,0 -1.07292,-0.1875 -1.53125,-0.5625c-0.44792,-0.375 -0.67187,-0.92187 -0.67187,-1.64062zM188.69791,60.36563c0,-0.65625 0.23958,-1.17708 0.71875,-1.5625c0.47917,-0.39583 0.97396,-0.59375 1.48438,-0.59375c1.03125,0 1.68229,0.36458 1.95313,1.09375c0.27083,0.72917 0.07813,1.61979 -0.57812,2.67188c-0.07292,-1.30208 0.59375,-2.33854 2,-3.10937c1.19792,-0.65625 2.38021,-0.98437 3.54688,-0.98437c1.17708,0 2.18229,0.15104 3.01563,0.45313c0.83333,0.29167 1.59896,0.75 2.29688,1.375c1.40625,1.33333 2.10938,3.25521 2.10938,5.76563v9.75c0,0.71875 -0.26042,1.25 -0.78125,1.59375c-0.51042,0.34375 -1.01562,0.51563 -1.51562,0.51563c-0.57292,0 -1.08854,-0.1875 -1.54687,-0.5625c-0.44792,-0.375 -0.67187,-0.89062 -0.67187,-1.54687v-9.9375c0,-1.20833 -0.3125,-2.11458 -0.9375,-2.71875c-0.58333,-0.57292 -1.3125,-0.85937 -2.1875,-0.85937c-1.27083,0 -2.34896,0.35938 -3.23437,1.07813c-0.84375,0.75 -1.26562,1.95313 -1.26562,3.60938v8.82813c0,0.71875 -0.25,1.25 -0.75,1.59375c-0.48958,0.34375 -1.00521,0.51563 -1.54687,0.51563c-0.58333,0 -1.08333,-0.19271 -1.5,-0.57812c-0.40625,-0.38542 -0.60937,-0.89583 -0.60937,-1.53125zM208.97382,60.36563c0,-0.65625 0.23958,-1.17708 0.71875,-1.5625c0.47917,-0.39583 0.97396,-0.59375 1.48438,-0.59375c1.03125,0 1.68229,0.36458 1.95313,1.09375c0.27083,0.72917 0.07813,1.61979 -0.57812,2.67188c-0.07292,-1.30208 0.59375,-2.33854 2,-3.10937c1.19792,-0.65625 2.38021,-0.98437 3.54688,-0.98437c1.17708,0 2.18229,0.15104 3.01563,0.45313c0.83333,0.29167 1.59896,0.75 2.29688,1.375c1.40625,1.33333 2.10938,3.25521 2.10938,5.76563v9.75c0,0.71875 -0.26042,1.25 -0.78125,1.59375c-0.51042,0.34375 -1.01562,0.51563 -1.51562,0.51563c-0.57292,0 -1.08854,-0.1875 -1.54687,-0.5625c-0.44792,-0.375 -0.67187,-0.89062 -0.67187,-1.54687v-9.9375c0,-1.20833 -0.3125,-2.11458 -0.9375,-2.71875c-0.58333,-0.57292 -1.3125,-0.85937 -2.1875,-0.85937c-1.27083,0 -2.34896,0.35938 -3.23437,1.07813c-0.84375,0.75 -1.26562,1.95313 -1.26562,3.60938v8.82813c0,0.71875 -0.25,1.25 -0.75,1.59375c-0.48958,0.34375 -1.00521,0.51563 -1.54687,0.51563c-0.58333,0 -1.08333,-0.19271 -1.5,-0.57812c-0.40625,-0.38542 -0.60937,-0.89583 -0.60937,-1.53125zM240.09348,75.49063c0,1.47917 -1.36458,2.21875 -4.09375,2.21875c-1.89583,0 -3.26562,-0.55729 -4.10937,-1.67187c-0.83333,-1.08333 -1.28646,-2.80729 -1.35937,-5.17187v-8.84375h-1.20312c-0.60417,0 -1.09375,-0.19792 -1.46875,-0.59375c-0.36458,-0.39583 -0.54687,-0.82812 -0.54687,-1.29687c0,-0.42708 0.15625,-0.85417 0.46875,-1.28125c0.32292,-0.42708 0.83854,-0.64062 1.54688,-0.64062h1.42188l0.14063,-4.21875c0.10417,-0.625 0.375,-1.09896 0.8125,-1.42187c0.44792,-0.32292 0.92188,-0.48437 1.42188,-0.48437c0.5,0 0.94271,0.17188 1.32813,0.51563c0.38542,0.33333 0.57813,0.82292 0.57813,1.46875v4.14063h2.34375c0.63542,0 1.125,0.21354 1.46875,0.64063c0.34375,0.41667 0.51563,0.84375 0.51563,1.28125c0,0.54167 -0.18229,0.99479 -0.54687,1.35938c-0.35417,0.35417 -0.83333,0.53125 -1.4375,0.53125h-2.34375v7.3125c0,2.17708 0.05208,3.43229 0.15625,3.76563c0.11458,0.32292 0.26042,0.53646 0.4375,0.64063c0.17708,0.09375 0.43229,0.14063 0.76563,0.14063l1.78125,-0.14062c0.625,0 1.09896,0.19792 1.42188,0.59375c0.33333,0.39583 0.5,0.78125 0.5,1.15625z" fill="#000000" fill-rule="nonzero" stroke="none" stroke-width="1" stroke-linecap="square" stroke-linejoin="miter"/><path d="M152.4218,124.33438c-0.66667,0 -1.22917,-0.23437 -1.6875,-0.70312c-0.44792,-0.46875 -0.67187,-1.04687 -0.67187,-1.73437v-18.79687l0.82813,0.1875l-7.71875,9.5625l-0.20312,-0.51562h13.5625c0.64583,0 1.18229,0.21354 1.60938,0.64063c0.42708,0.42708 0.64063,0.95833 0.64063,1.59375c0,0.61458 -0.21354,1.13021 -0.64062,1.54688c-0.42708,0.41667 -0.96354,0.625 -1.60937,0.625h-16.875c-0.5625,0 -1.10417,-0.22396 -1.625,-0.67187c-0.52083,-0.45833 -0.78125,-1.02083 -0.78125,-1.6875c0,-0.59375 0.20313,-1.13021 0.60938,-1.60937l12.64063,-15.48437c0.20833,-0.29167 0.48438,-0.52083 0.82813,-0.6875c0.35417,-0.17708 0.74479,-0.26562 1.17188,-0.26562c0.6875,0 1.25,0.23438 1.6875,0.70313c0.44792,0.46875 0.67188,1.04688 0.67188,1.73438v23.125c0,0.6875 -0.23437,1.26563 -0.70312,1.73438c-0.46875,0.46875 -1.04687,0.70313 -1.73437,0.70313zM184.4574,102.53751c1.11458,0 2.14063,0.17188 3.07813,0.51563c0.9375,0.34375 1.74479,0.78646 2.42188,1.32813c0.67708,0.53125 1.20833,1.07292 1.59375,1.625c0.38542,0.54167 0.57813,1 0.57813,1.375l-1.03125,0.51563v-2.92187c0,-0.69792 0.22396,-1.27604 0.67188,-1.73437c0.45833,-0.46875 1.03125,-0.70312 1.71875,-0.70312c0.69792,0 1.27083,0.22917 1.71875,0.6875c0.45833,0.44792 0.6875,1.03125 0.6875,1.75v17.79688c0,2.32292 -0.5,4.18229 -1.5,5.57813c-1,1.40625 -2.3125,2.42188 -3.9375,3.04688c-1.625,0.625 -3.36979,0.9375 -5.23437,0.9375c-0.54167,0 -1.23958,-0.06771 -2.09375,-0.20312c-0.84375,-0.13542 -1.65625,-0.29687 -2.4375,-0.48437c-0.77083,-0.17708 -1.35417,-0.34896 -1.75,-0.51562c-0.80208,-0.34375 -1.35937,-0.77604 -1.67187,-1.29687c-0.30208,-0.52083 -0.35937,-1.07292 -0.17187,-1.65625c0.23958,-0.77083 0.625,-1.29687 1.15625,-1.57812c0.53125,-0.28125 1.09375,-0.31771 1.6875,-0.10937c0.26042,0.08333 0.69792,0.24479 1.3125,0.48438c0.61458,0.23958 1.28646,0.45833 2.01563,0.65625c0.73958,0.19792 1.39063,0.29688 1.95313,0.29688c2,0 3.47917,-0.40104 4.4375,-1.20312c0.95833,-0.79167 1.4375,-1.89583 1.4375,-3.3125v-3.48437l0.48438,0.35938c0,0.35417 -0.18229,0.77604 -0.54687,1.26563c-0.36458,0.48958 -0.85937,0.97917 -1.48437,1.46875c-0.625,0.47917 -1.36458,0.88542 -2.21875,1.21875c-0.85417,0.33333 -1.76042,0.5 -2.71875,0.5c-1.89583,0 -3.60417,-0.47396 -5.125,-1.42187c-1.51042,-0.94792 -2.70833,-2.25521 -3.59375,-3.92187c-0.875,-1.66667 -1.3125,-3.58333 -1.3125,-5.75c0,-2.17708 0.4375,-4.09896 1.3125,-5.76562c0.88542,-1.66667 2.07292,-2.97396 3.5625,-3.92187c1.48958,-0.94792 3.15625,-1.42187 5,-1.42187zM185.22303,106.92813c-1.20833,0 -2.26562,0.29688 -3.17187,0.89063c-0.90625,0.58333 -1.61458,1.38542 -2.125,2.40625c-0.5,1.01042 -0.75,2.15104 -0.75,3.42188c0,1.26042 0.25,2.39583 0.75,3.40625c0.51042,1.01042 1.21875,1.8125 2.125,2.40625c0.90625,0.58333 1.96354,0.875 3.17188,0.875c1.21875,0 2.28125,-0.29167 3.1875,-0.875c0.90625,-0.59375 1.61458,-1.39583 2.125,-2.40625c0.51042,-1.01042 0.76563,-2.14583 0.76563,-3.40625c0,-1.27083 -0.25521,-2.41146 -0.76562,-3.42187c-0.51042,-1.02083 -1.21875,-1.82292 -2.125,-2.40625c-0.90625,-0.59375 -1.96875,-0.89062 -3.1875,-0.89062zM210.1805,124.74063c-2.27083,0 -4.23958,-0.47396 -5.90625,-1.42187c-1.66667,-0.94792 -2.94792,-2.23437 -3.84375,-3.85937c-0.88542,-1.625 -1.32812,-3.46875 -1.32812,-5.53125c0,-2.39583 0.48438,-4.4375 1.45313,-6.125c0.96875,-1.69792 2.23958,-3 3.8125,-3.90625c1.58333,-0.90625 3.25521,-1.35937 5.01563,-1.35937c1.35417,0 2.63542,0.28125 3.84375,0.84375c1.21874,0.55208 2.29165,1.31771 3.21873,2.29688c0.9375,0.96875 1.67708,2.09375 2.21875,3.375c0.55208,1.28125 0.82813,2.64063 0.82813,4.07813c-0.02083,0.64583 -0.27604,1.16667 -0.76562,1.5625c-0.47917,0.39583 -1.03646,0.59375 -1.67187,0.59375h-15.28123l-1.20312,-4h14.68748l-0.87498,0.8125v-1.07812c-0.0625,-0.78125 -0.33854,-1.47396 -0.82812,-2.07812c-0.48958,-0.61458 -1.10417,-1.10417 -1.84375,-1.46875c-0.72917,-0.36458 -1.50521,-0.54687 -2.32812,-0.54687c-0.80208,0 -1.55208,0.10938 -2.25,0.32813c-0.6875,0.20833 -1.28646,0.56771 -1.79687,1.07813c-0.51042,0.51042 -0.91146,1.19271 -1.20312,2.04688c-0.29167,0.84375 -0.4375,1.92188 -0.4375,3.23438c0,1.4375 0.29688,2.65625 0.89063,3.65625c0.60417,1 1.38021,1.76042 2.32813,2.28125c0.94792,0.52083 1.95313,0.78125 3.01563,0.78125c0.98958,0 1.77604,-0.07812 2.35938,-0.23437c0.59375,-0.16667 1.06771,-0.35937 1.42188,-0.57812c0.36458,-0.22917 0.69271,-0.42708 0.98438,-0.59375c0.47916,-0.23958 0.93228,-0.35937 1.35936,-0.35937c0.58333,0 1.06771,0.20313 1.45313,0.60938c0.39583,0.39583 0.59375,0.85938 0.59375,1.39063c0,0.71875 -0.375,1.375 -1.125,1.96875c-0.69792,0.58333 -1.67187,1.09896 -2.92186,1.54688c-1.25,0.4375 -2.54167,0.65625 -3.875,0.65625zM248.13047,102.92813c0.61458,0 1.14583,0.23438 1.59375,0.70313c0.45833,0.46875 0.6875,1.0625 0.6875,1.78125c0,0.1875 -0.01562,0.35417 -0.04687,0.5c-0.02083,0.14583 -0.05729,0.28646 -0.10937,0.42188l-6.125,16.48438c-0.1875,0.53125 -0.52083,0.9375 -1,1.21875c-0.47917,0.28125 -0.98437,0.38021 -1.51562,0.29688c-0.90625,-0.05208 -1.58333,-0.55729 -2.03125,-1.51562l-3.96875,-11.40625l1.04688,0.04688l-3.71875,11.35938c-0.45833,0.95833 -1.14062,1.46354 -2.04687,1.51563c-0.51042,0.08333 -1.01042,-0.01562 -1.5,-0.29687c-0.48958,-0.28125 -0.82812,-0.6875 -1.01562,-1.21875l-6.125,-16.48437c-0.10417,-0.29167 -0.15625,-0.59896 -0.15625,-0.92187c0,-0.63542 0.21354,-1.20833 0.64063,-1.71875c0.42708,-0.51042 1.01042,-0.76562 1.75,-0.76562c0.51042,0 0.96354,0.11979 1.35938,0.35938c0.40625,0.23958 0.6875,0.63021 0.84375,1.17188l4.84375,13.10938l-1,-0.07812l3.64063,-9.875c0.42708,-0.98958 1.16146,-1.48437 2.20313,-1.48437c0.58333,0 1.02604,0.13021 1.32813,0.39063c0.3125,0.25 0.5625,0.61458 0.75,1.09375l3.64063,9.875l-1.20312,0.15625l4.92188,-13.1875c0.32292,-1.02083 1.09375,-1.53125 2.3125,-1.53125zM258.74106,121.89688c0,0.6875 -0.22917,1.26563 -0.6875,1.73438c-0.44792,0.46875 -1.02083,0.70313 -1.71875,0.70313c-0.6875,0 -1.26042,-0.23437 -1.71875,-0.70312c-0.45833,-0.46875 -0.6875,-1.04687 -0.6875,-1.73437v-16.51562c0,-0.69792 0.22917,-1.28125 0.6875,-1.75c0.45833,-0.46875 1.03125,-0.70312 1.71875,-0.70312c0.69792,0 1.27083,0.23438 1.71875,0.70313c0.45833,0.46875 0.6875,1.05208 0.6875,1.75zM256.10044,100.33438c-0.90625,0 -1.54688,-0.14583 -1.92188,-0.4375c-0.375,-0.29167 -0.5625,-0.8125 -0.5625,-1.5625v-0.76562c0,-0.77083 0.20313,-1.29687 0.60938,-1.57812c0.41667,-0.28125 1.05208,-0.42187 1.90625,-0.42187c0.9375,0 1.59375,0.15104 1.96875,0.45313c0.375,0.29167 0.5625,0.80729 0.5625,1.54688v0.76563c0,0.77083 -0.20312,1.29688 -0.60937,1.57813c-0.39583,0.28125 -1.04687,0.42188 -1.95312,0.42188zM275.10294,102.53751c1.96875,0 3.46354,0.41667 4.48438,1.25c1.03125,0.82292 1.73958,1.92188 2.125,3.29688c0.38542,1.36458 0.57813,2.88542 0.57813,4.5625v10.25c0,0.6875 -0.22917,1.26563 -0.6875,1.73438c-0.44792,0.46875 -1.01562,0.70313 -1.70312,0.70313c-0.69792,0 -1.27604,-0.23437 -1.73437,-0.70312c-0.44792,-0.46875 -0.67187,-1.04687 -0.67187,-1.73437v-10.25c0,-0.875 -0.11458,-1.66667 -0.34375,-2.375c-0.21875,-0.70833 -0.625,-1.27604 -1.21875,-1.70312c-0.58333,-0.42708 -1.42187,-0.64062 -2.51562,-0.64062c-1.0625,0 -1.96354,0.21354 -2.70312,0.64063c-0.72917,0.42708 -1.28646,0.99479 -1.67187,1.70313c-0.38542,0.70833 -0.57812,1.5 -0.57812,2.375v10.25c0,0.6875 -0.22917,1.26563 -0.6875,1.73438c-0.44792,0.46875 -1.02083,0.70313 -1.71875,0.70313c-0.69792,0 -1.27604,-0.23437 -1.73437,-0.70312c-0.44792,-0.46875 -0.67187,-1.04687 -0.67187,-1.73437v-16.51562c0,-0.69792 0.22396,-1.28125 0.67188,-1.75c0.45833,-0.46875 1.03646,-0.70312 1.73438,-0.70312c0.69792,0 1.27083,0.23438 1.71875,0.70313c0.45833,0.46875 0.6875,1.05208 0.6875,1.75v1.71875l-0.60937,-0.125c0.23958,-0.45833 0.58333,-0.94271 1.03125,-1.45312c0.45833,-0.52083 0.99479,-1.00521 1.60938,-1.45312c0.61458,-0.45833 1.30729,-0.82812 2.07813,-1.10937c0.78125,-0.28125 1.625,-0.42187 2.53125,-0.42187zM298.9429,102.53751c1.96875,0 3.46354,0.41667 4.48438,1.25c1.03125,0.82292 1.73958,1.92188 2.125,3.29688c0.38542,1.36458 0.57813,2.88542 0.57813,4.5625v10.25c0,0.6875 -0.22917,1.26563 -0.6875,1.73438c-0.44792,0.46875 -1.01562,0.70313 -1.70312,0.70313c-0.69792,0 -1.27604,-0.23437 -1.73437,-0.70312c-0.44792,-0.46875 -0.67187,-1.04687 -0.67187,-1.73437v-10.25c0,-0.875 -0.11458,-1.66667 -0.34375,-2.375c-0.21875,-0.70833 -0.625,-1.27604 -1.21875,-1.70312c-0.58333,-0.42708 -1.42187,-0.64062 -2.51562,-0.64062c-1.0625,0 -1.96354,0.21354 -2.70312,0.64063c-0.72917,0.42708 -1.28646,0.99479 -1.67187,1.70313c-0.38542,0.70833 -0.57812,1.5 -0.57812,2.375v10.25c0,0.6875 -0.22917,1.26563 -0.6875,1.73438c-0.44792,0.46875 -1.02083,0.70313 -1.71875,0.70313c-0.69792,0 -1.27604,-0.23437 -1.73437,-0.70312c-0.44792,-0.46875 -0.67187,-1.04687 -0.67187,-1.73437v-16.51562c0,-0.69792 0.22396,-1.28125 0.67188,-1.75c0.45833,-0.46875 1.03646,-0.70312 1.73438,-0.70312c0.69792,0 1.27083,0.23438 1.71875,0.70313c0.45833,0.46875 0.6875,1.05208 0.6875,1.75v1.71875l-0.60937,-0.125c0.23958,-0.45833 0.58333,-0.94271 1.03125,-1.45312c0.45833,-0.52083 0.99479,-1.00521 1.60938,-1.45312c0.61458,-0.45833 1.30729,-0.82812 2.07813,-1.10937c0.78125,-0.28125 1.625,-0.42187 2.53125,-0.42187zM311.57977,103.33438h9.46875c0.64583,0 1.18229,0.21354 1.60938,0.64063c0.42708,0.42708 0.64063,0.95833 0.64063,1.59375c0,0.61458 -0.21354,1.13021 -0.64062,1.54688c-0.42708,0.41667 -0.96354,0.625 -1.60937,0.625h-9.46875c-0.64583,0 -1.18229,-0.21354 -1.60937,-0.64062c-0.42708,-0.42708 -0.64062,-0.96354 -0.64062,-1.60937c0,-0.61458 0.21354,-1.125 0.64063,-1.53125c0.42708,-0.41667 0.96354,-0.625 1.60937,-0.625zM315.86102,98.33438c0.6875,0 1.25,0.23438 1.6875,0.70313c0.44792,0.46875 0.67188,1.04688 0.67188,1.73438v17.79688c0,0.375 0.07292,0.68229 0.21875,0.92188c0.14583,0.23958 0.34375,0.41667 0.59375,0.53125c0.26042,0.10417 0.53646,0.15625 0.82813,0.15625c0.3125,0 0.60417,-0.05729 0.875,-0.17187c0.27083,-0.125 0.57813,-0.1875 0.92188,-0.1875c0.375,0 0.71354,0.17188 1.01563,0.51563c0.3125,0.34375 0.46875,0.82292 0.46875,1.4375c0,0.75 -0.41146,1.36458 -1.23437,1.84375c-0.8125,0.47917 -1.68229,0.71875 -2.60937,0.71875c-0.5625,0 -1.18229,-0.04687 -1.85937,-0.14062c-0.67708,-0.09375 -1.31771,-0.31771 -1.92187,-0.67187c-0.60417,-0.36458 -1.10417,-0.91667 -1.5,-1.65625c-0.39583,-0.75 -0.59375,-1.78125 -0.59375,-3.09375v-18c0,-0.6875 0.22917,-1.26562 0.6875,-1.73437c0.46875,-0.46875 1.05208,-0.70312 1.75,-0.70312z" fill="#000000" fill-rule="nonzero" stroke="none" stroke-width="1" stroke-linecap="square" stroke-linejoin="miter"/><path d="M90.84367,170.70938c-0.36458,0.84375 -0.78646,1.49479 -1.26562,1.95313c-0.46875,0.44792 -1.13021,0.67188 -1.98437,0.67188c-0.86458,0 -1.54167,-0.21875 -2.03125,-0.65625c-0.47917,-0.44792 -0.85937,-1.11458 -1.14062,-2l-5.71875,-13.4375c-0.5,-0.91667 -0.28125,-1.71875 0.65625,-2.40625c0.40625,-0.3125 0.85417,-0.52083 1.34375,-0.625c1.14583,0 1.86458,0.52604 2.15625,1.57813l4.71875,11.3125l4.5625,-11.34375c0.33333,-0.92708 0.97396,-1.44271 1.92188,-1.54687c0.95833,0 1.67188,0.39063 2.14063,1.17188c0.23958,0.36458 0.32813,0.69271 0.26563,0.98438c-0.05208,0.29167 -0.11458,0.55729 -0.1875,0.79688zM103.35197,148.95938c0,0.73958 -0.25521,1.33854 -0.76562,1.79688c-0.5,0.45833 -1.16146,0.6875 -1.98437,0.6875c-0.82292,0 -1.48958,-0.22396 -2,-0.67187c-0.51042,-0.45833 -0.76562,-1.0625 -0.76562,-1.8125c0,-0.66667 0.25521,-1.22917 0.76563,-1.6875c0.51042,-0.46875 1.1875,-0.70312 2.03125,-0.70312c0.84375,0 1.50521,0.23438 1.98438,0.70313c0.48958,0.46875 0.73438,1.03125 0.73438,1.6875zM98.39885,156.50626c0,-0.70833 0.23438,-1.26562 0.70313,-1.67187c0.47917,-0.41667 0.92708,-0.625 1.34375,-0.625c0.41667,0 0.75,0.0625 1,0.1875c0.25,0.125 0.46354,0.27083 0.64063,0.4375c0.54167,0.35417 0.8125,0.91146 0.8125,1.67188v14.625c0,0.73958 -0.24479,1.29167 -0.73437,1.65625c-0.48958,0.36458 -1.01042,0.54688 -1.5625,0.54688c-0.5625,0 -1.07292,-0.1875 -1.53125,-0.5625c-0.44792,-0.375 -0.67187,-0.92187 -0.67187,-1.64062zM123.86223,163.25626c0,1.15625 -0.63021,1.78646 -1.89062,1.89063h-11.78125c0.09375,2.1875 1.13021,3.67708 3.10938,4.46875c0.53125,0.17708 1.17188,0.26563 1.92188,0.26563c1.54167,0 3.14063,-0.58333 4.79688,-1.75c0.92708,-0.53125 1.73438,-0.46354 2.42188,0.20313c0.40625,0.4375 0.54167,0.86458 0.40625,1.28125c0,0.58333 -0.19271,1.04688 -0.57812,1.39063c-1.83333,1.82292 -4.24479,2.72396 -7.23437,2.70313c-2.75,0 -4.96875,-0.89583 -6.65625,-2.6875c-1.875,-1.84375 -2.8125,-4.26042 -2.8125,-7.25c0,-2.73958 0.76563,-5.01562 2.29688,-6.82812c1.64583,-2.04167 3.94271,-3.0625 6.89063,-3.0625c2.94792,0 5.21354,0.90625 6.79688,2.71875c1.47917,1.61458 2.25,3.83333 2.3125,6.65625zM119.45598,161.61563c-0.05208,-0.875 -0.5,-1.77604 -1.34375,-2.70312c-0.76042,-0.80208 -1.88021,-1.20312 -3.35937,-1.20312c-1.22917,0 -2.28125,0.45833 -3.15625,1.375c-0.8125,0.94792 -1.24479,1.79167 -1.29687,2.53125zM130.11497,157.97501c0.34375,-2.72917 1.95313,-4.09375 4.82813,-4.09375c0.70833,0 1.25,0.21875 1.625,0.65625c0.38542,0.42708 0.57813,0.89063 0.57813,1.39063c0,0.5 -0.19271,0.96875 -0.57812,1.40625c-0.375,0.42708 -0.90625,0.64063 -1.59375,0.64063c-0.67708,0 -1.26562,0.09896 -1.76562,0.29688c-0.5,0.19792 -0.90104,0.47396 -1.20312,0.82813c-0.70833,0.86458 -1.0625,2.02083 -1.0625,3.46875v8.65625c0,0.71875 -0.25,1.25 -0.75,1.59375c-0.48958,0.34375 -0.92187,0.51563 -1.29687,0.51563c-0.375,0 -0.69271,-0.03646 -0.95313,-0.10937c-0.25,-0.08333 -0.48437,-0.23437 -0.70312,-0.45312c-0.46875,-0.30208 -0.70312,-0.81771 -0.70312,-1.54687v-14.8125c0,-0.63542 0.21875,-1.16146 0.65625,-1.57812c0.44792,-0.41667 0.99479,-0.625 1.64063,-0.625c0.64583,0 1.15625,0.21875 1.53125,0.65625c0.38542,0.42708 0.57813,0.94271 0.57813,1.54688zM156.00456,157.74063c-2.88542,0 -4.32812,2.01042 -4.32812,6.03125c0,1.9375 0.46875,3.44271 1.40625,4.51563c0.77083,0.89583 1.76563,1.35417 2.98438,1.375c1.25,0 2.31249,-0.47917 3.18748,-1.4375c0.95833,-1.04167 1.4375,-2.49479 1.4375,-4.35937c0,-2.80208 -0.84374,-4.67708 -2.53123,-5.625c-0.55208,-0.33333 -1.27083,-0.5 -2.15625,-0.5zM155.27018,153.88126c3.33332,0 5.28644,0.78125 5.85936,2.34375l-0.34375,-0.07812c0.10417,-0.60417 0.35417,-1.07812 0.75,-1.42187c0.39583,-0.34375 0.86458,-0.51562 1.40625,-0.51562c0.55208,0 1.04688,0.19792 1.48438,0.59375c0.44792,0.39583 0.67188,0.91667 0.67188,1.5625v16.51563c0,2.65625 -0.86979,4.65104 -2.60937,5.98438c-1.52083,1.21875 -3.68229,1.82813 -6.48436,1.82813c-2.5,0 -4.41146,-0.45312 -5.73437,-1.35937c-1.14583,-0.83333 -1.71875,-1.60937 -1.71875,-2.32812c0,-0.53125 0.17708,-0.97917 0.53125,-1.34375c0.36458,-0.35417 0.77604,-0.53125 1.23438,-0.53125c0.45833,0 0.83333,0.09896 1.125,0.29688c0.30208,0.20833 0.60417,0.38021 0.90625,0.51563c0.3125,0.13542 0.63021,0.26042 0.95313,0.375c0.79167,0.28125 1.61458,0.42188 2.46875,0.42188c0.85417,0 1.58333,-0.06771 2.1875,-0.20312c0.60417,-0.13542 1.11458,-0.35937 1.53123,-0.67187c0.80208,-0.52083 1.20313,-1.45833 1.20313,-2.8125l0.125,-1.14062c-0.04167,0.26042 -1.15624,0.66667 -3.34373,1.21875c-0.6875,0.13542 -1.34896,0.20313 -1.98437,0.20313c-2.8125,0 -4.97396,-0.97917 -6.48437,-2.9375c-1.375,-1.70833 -2.0625,-3.88542 -2.0625,-6.53125c0,-2.79167 0.68229,-5.08333 2.04688,-6.875c1.47917,-2.07292 3.57292,-3.10937 6.28125,-3.10937zM185.70144,163.25626c0,1.15625 -0.63021,1.78646 -1.89062,1.89063h-11.78125c0.09375,2.1875 1.13021,3.67708 3.10938,4.46875c0.53125,0.17708 1.17188,0.26563 1.92188,0.26563c1.54167,0 3.14063,-0.58333 4.79688,-1.75c0.92708,-0.53125 1.73438,-0.46354 2.42188,0.20313c0.40625,0.4375 0.54167,0.86458 0.40625,1.28125c0,0.58333 -0.19271,1.04688 -0.57812,1.39063c-1.83333,1.82292 -4.24479,2.72396 -7.23437,2.70313c-2.75,0 -4.96875,-0.89583 -6.65625,-2.6875c-1.875,-1.84375 -2.8125,-4.26042 -2.8125,-7.25c0,-2.73958 0.76563,-5.01562 2.29688,-6.82812c1.64583,-2.04167 3.94271,-3.0625 6.89063,-3.0625c2.94792,0 5.21354,0.90625 6.79688,2.71875c1.47917,1.61458 2.25,3.83333 2.3125,6.65625zM181.29519,161.61563c-0.05208,-0.875 -0.5,-1.77604 -1.34375,-2.70312c-0.76042,-0.80208 -1.88021,-1.20312 -3.35937,-1.20312c-1.22917,0 -2.28125,0.45833 -3.15625,1.375c-0.8125,0.94792 -1.24479,1.79167 -1.29687,2.53125zM201.61044,160.14688l-4.09375,11.10938c-0.45833,1.38542 -1.375,2.07813 -2.75,2.07813c-1.375,0 -2.25,-0.68229 -2.625,-2.04687l-5.28125,-14.09375c-0.09375,-0.27083 -0.14062,-0.53646 -0.14062,-0.79687c0,-0.26042 0.05208,-0.5625 0.15625,-0.90625c0.11458,-0.35417 0.33854,-0.59896 0.67188,-0.73437c0.36458,-0.26042 0.75521,-0.44271 1.17188,-0.54687c1.26042,0 2.00521,0.54167 2.23438,1.625l3.96875,11.21875l4.0625,-10.82812c0.42708,-1.26042 1.32292,-1.93229 2.6875,-2.01562c0.59375,0 1.15104,0.15104 1.67188,0.45313c0.53125,0.30208 0.91667,0.82813 1.15625,1.57813l3.82813,10.625l3.90625,-11.07812c0.32292,-1.05208 0.97917,-1.57812 1.96875,-1.57812c0.60417,0 1.11458,0.21354 1.53125,0.64063c0.42708,0.41667 0.64063,0.83333 0.64063,1.25c0,0.41667 -0.02604,0.76042 -0.07812,1.03125l-5.45312,14.17188c-0.41667,1.35417 -1.25521,2.03125 -2.51562,2.03125c-1.41667,0 -2.3125,-0.69792 -2.6875,-2.09375zM223.44418,148.95938c0,0.73958 -0.25521,1.33854 -0.76562,1.79688c-0.5,0.45833 -1.16146,0.6875 -1.98437,0.6875c-0.82292,0 -1.48958,-0.22396 -2,-0.67187c-0.51042,-0.45833 -0.76562,-1.0625 -0.76562,-1.8125c0,-0.66667 0.25521,-1.22917 0.76563,-1.6875c0.51042,-0.46875 1.1875,-0.70312 2.03125,-0.70312c0.84375,0 1.50521,0.23438 1.98438,0.70313c0.48958,0.46875 0.73438,1.03125 0.73438,1.6875zM218.49106,156.50626c0,-0.70833 0.23438,-1.26562 0.70313,-1.67187c0.47917,-0.41667 0.92708,-0.625 1.34375,-0.625c0.41667,0 0.75,0.0625 1,0.1875c0.25,0.125 0.46354,0.27083 0.64063,0.4375c0.54167,0.35417 0.8125,0.91146 0.8125,1.67188v14.625c0,0.73958 -0.24479,1.29167 -0.73437,1.65625c-0.48958,0.36458 -1.01042,0.54688 -1.5625,0.54688c-0.5625,0 -1.07292,-0.1875 -1.53125,-0.5625c-0.44792,-0.375 -0.67187,-0.92187 -0.67187,-1.64062zM226.76693,156.36563c0,-0.65625 0.23958,-1.17708 0.71875,-1.5625c0.47917,-0.39583 0.97396,-0.59375 1.48438,-0.59375c1.03125,0 1.68229,0.36458 1.95313,1.09375c0.27083,0.72917 0.07813,1.61979 -0.57812,2.67188c-0.07292,-1.30208 0.59375,-2.33854 2,-3.10937c1.19792,-0.65625 2.38021,-0.98437 3.54688,-0.98437c1.17708,0 2.18229,0.15104 3.01563,0.45313c0.83333,0.29167 1.59896,0.75 2.29688,1.375c1.40625,1.33333 2.10938,3.25521 2.10938,5.76563v9.75c0,0.71875 -0.26042,1.25 -0.78125,1.59375c-0.51042,0.34375 -1.01562,0.51563 -1.51562,0.51563c-0.57292,0 -1.08854,-0.1875 -1.54687,-0.5625c-0.44792,-0.375 -0.67187,-0.89062 -0.67187,-1.54687v-9.9375c0,-1.20833 -0.3125,-2.11458 -0.9375,-2.71875c-0.58333,-0.57292 -1.3125,-0.85937 -2.1875,-0.85937c-1.27083,0 -2.34896,0.35938 -3.23437,1.07813c-0.84375,0.75 -1.26562,1.95313 -1.26562,3.60938v8.82813c0,0.71875 -0.25,1.25 -0.75,1.59375c-0.48958,0.34375 -1.00521,0.51563 -1.54687,0.51563c-0.58333,0 -1.08333,-0.19271 -1.5,-0.57812c-0.40625,-0.38542 -0.60937,-0.89583 -0.60937,-1.53125zM247.04284,156.36563c0,-0.65625 0.23958,-1.17708 0.71875,-1.5625c0.47917,-0.39583 0.97396,-0.59375 1.48438,-0.59375c1.03125,0 1.68229,0.36458 1.95313,1.09375c0.27083,0.72917 0.07813,1.61979 -0.57812,2.67188c-0.07292,-1.30208 0.59375,-2.33854 2,-3.10937c1.19792,-0.65625 2.38021,-0.98437 3.54688,-0.98437c1.17708,0 2.18229,0.15104 3.01563,0.45313c0.83333,0.29167 1.59896,0.75 2.29688,1.375c1.40625,1.33333 2.10938,3.25521 2.10938,5.76563v9.75c0,0.71875 -0.26042,1.25 -0.78125,1.59375c-0.51042,0.34375 -1.01562,0.51563 -1.51562,0.51563c-0.57292,0 -1.08854,-0.1875 -1.54687,-0.5625c-0.44792,-0.375 -0.67187,-0.89062 -0.67187,-1.54687v-9.9375c0,-1.20833 -0.3125,-2.11458 -0.9375,-2.71875c-0.58333,-0.57292 -1.3125,-0.85937 -2.1875,-0.85937c-1.27083,0 -2.34896,0.35938 -3.23437,1.07813c-0.84375,0.75 -1.26562,1.95313 -1.26562,3.60938v8.82813c0,0.71875 -0.25,1.25 -0.75,1.59375c-0.48958,0.34375 -1.00521,0.51563 -1.54687,0.51563c-0.58333,0 -1.08333,-0.19271 -1.5,-0.57812c-0.40625,-0.38542 -0.60937,-0.89583 -0.60937,-1.53125zM278.1625,171.49063c0,1.47917 -1.36458,2.21875 -4.09375,2.21875c-1.89583,0 -3.26562,-0.55729 -4.10937,-1.67187c-0.83333,-1.08333 -1.28646,-2.80729 -1.35937,-5.17187v-8.84375h-1.20312c-0.60417,0 -1.09375,-0.19792 -1.46875,-0.59375c-0.36458,-0.39583 -0.54687,-0.82812 -0.54687,-1.29687c0,-0.42708 0.15625,-0.85417 0.46875,-1.28125c0.32292,-0.42708 0.83854,-0.64062 1.54688,-0.64062h1.42188l0.14063,-4.21875c0.10417,-0.625 0.375,-1.09896 0.8125,-1.42187c0.44792,-0.32292 0.92188,-0.48437 1.42188,-0.48437c0.5,0 0.94271,0.17188 1.32813,0.51563c0.38542,0.33333 0.57813,0.82292 0.57813,1.46875v4.14063h2.34375c0.63542,0 1.125,0.21354 1.46875,0.64063c0.34375,0.41667 0.51563,0.84375 0.51563,1.28125c0,0.54167 -0.18229,0.99479 -0.54687,1.35938c-0.35417,0.35417 -0.83333,0.53125 -1.4375,0.53125h-2.34375v7.3125c0,2.17708 0.05208,3.43229 0.15625,3.76563c0.11458,0.32292 0.26042,0.53646 0.4375,0.64063c0.17708,0.09375 0.43229,0.14063 0.76563,0.14063l1.78125,-0.14062c0.625,0 1.09896,0.19792 1.42188,0.59375c0.33333,0.39583 0.5,0.78125 0.5,1.15625z" fill="#000000" fill-rule="nonzero" stroke="none" stroke-width="1" stroke-linecap="square" stroke-linejoin="miter"/><path d="M144.21867,205.92813c0.5,0 0.96354,0.13021 1.39063,0.39063c0.42708,0.25 0.75,0.63021 0.96875,1.14063l5.875,13.4375l-0.875,0.39063l6,-13.79687c0.44792,-1.0625 1.15625,-1.56771 2.125,-1.51562c0.66667,0 1.20313,0.20833 1.60938,0.625c0.41667,0.40625 0.625,0.91667 0.625,1.53125c0,0.1875 -0.03646,0.39063 -0.10937,0.60938c-0.0625,0.20833 -0.13542,0.40625 -0.21875,0.59375l-7.46875,16.48438c-0.42708,0.95833 -1.10937,1.46354 -2.04687,1.51563c-0.5,0.08333 -0.98437,-0.01042 -1.45312,-0.28125c-0.46875,-0.27083 -0.82292,-0.68229 -1.0625,-1.23437l-7.4375,-16.48437c-0.05208,-0.13542 -0.11458,-0.30729 -0.1875,-0.51562c-0.0625,-0.21875 -0.09375,-0.47396 -0.09375,-0.76562c0,-0.47917 0.21354,-0.95312 0.64063,-1.42187c0.42708,-0.46875 1,-0.70312 1.71875,-0.70312zM170.26115,224.89688c0,0.6875 -0.22917,1.26563 -0.6875,1.73438c-0.44792,0.46875 -1.02083,0.70313 -1.71875,0.70313c-0.6875,0 -1.26042,-0.23437 -1.71875,-0.70312c-0.45833,-0.46875 -0.6875,-1.04687 -0.6875,-1.73437v-16.51562c0,-0.69792 0.22917,-1.28125 0.6875,-1.75c0.45833,-0.46875 1.03125,-0.70312 1.71875,-0.70312c0.69792,0 1.27083,0.23438 1.71875,0.70313c0.45833,0.46875 0.6875,1.05208 0.6875,1.75zM167.62053,203.33438c-0.90625,0 -1.54687,-0.14583 -1.92187,-0.4375c-0.375,-0.29167 -0.5625,-0.8125 -0.5625,-1.5625v-0.76562c0,-0.77083 0.20313,-1.29687 0.60938,-1.57812c0.41667,-0.28125 1.05208,-0.42187 1.90625,-0.42187c0.9375,0 1.59375,0.15104 1.96875,0.45313c0.375,0.29167 0.5625,0.80729 0.5625,1.54688v0.76563c0,0.77083 -0.20312,1.29688 -0.60937,1.57813c-0.39583,0.28125 -1.04687,0.42188 -1.95312,0.42188zM185.06051,227.74063c-2.27083,0 -4.23958,-0.47396 -5.90625,-1.42187c-1.66667,-0.94792 -2.94792,-2.23437 -3.84375,-3.85937c-0.88542,-1.625 -1.32812,-3.46875 -1.32812,-5.53125c0,-2.39583 0.48438,-4.4375 1.45313,-6.125c0.96875,-1.69792 2.23958,-3 3.8125,-3.90625c1.58333,-0.90625 3.25521,-1.35937 5.01563,-1.35937c1.35417,0 2.63542,0.28125 3.84375,0.84375c1.21875,0.55208 2.29167,1.31771 3.21875,2.29688c0.9375,0.96875 1.67708,2.09375 2.21875,3.375c0.55208,1.28125 0.82813,2.64063 0.82813,4.07813c-0.02083,0.64583 -0.27604,1.16667 -0.76562,1.5625c-0.47917,0.39583 -1.03646,0.59375 -1.67187,0.59375h-15.28125l-1.20312,-4h14.6875l-0.875,0.8125v-1.07812c-0.0625,-0.78125 -0.33854,-1.47396 -0.82812,-2.07812c-0.48958,-0.61458 -1.10417,-1.10417 -1.84375,-1.46875c-0.72917,-0.36458 -1.50521,-0.54687 -2.32812,-0.54687c-0.80208,0 -1.55208,0.10938 -2.25,0.32813c-0.6875,0.20833 -1.28646,0.56771 -1.79687,1.07813c-0.51042,0.51042 -0.91146,1.19271 -1.20312,2.04688c-0.29167,0.84375 -0.4375,1.92188 -0.4375,3.23438c0,1.4375 0.29688,2.65625 0.89063,3.65625c0.60417,1 1.38021,1.76042 2.32813,2.28125c0.94792,0.52083 1.95313,0.78125 3.01563,0.78125c0.98958,0 1.77604,-0.07812 2.35938,-0.23437c0.59375,-0.16667 1.06771,-0.35937 1.42188,-0.57812c0.36458,-0.22917 0.69271,-0.42708 0.98438,-0.59375c0.47917,-0.23958 0.93229,-0.35937 1.35938,-0.35937c0.58333,0 1.06771,0.20313 1.45313,0.60938c0.39583,0.39583 0.59375,0.85938 0.59375,1.39063c0,0.71875 -0.375,1.375 -1.125,1.96875c-0.69792,0.58333 -1.67187,1.09896 -2.92187,1.54688c-1.25,0.4375 -2.54167,0.65625 -3.875,0.65625zM200.77612,227.33438c-0.69792,0 -1.27604,-0.23437 -1.73437,-0.70312c-0.44792,-0.46875 -0.67187,-1.04687 -0.67187,-1.73437v-16.51562c0,-0.69792 0.22396,-1.28125 0.67188,-1.75c0.45833,-0.46875 1.03646,-0.70312 1.73438,-0.70312c0.69792,0 1.27083,0.23438 1.71875,0.70313c0.45833,0.46875 0.6875,1.05208 0.6875,1.75v3.75l-0.28125,-2.67187c0.29167,-0.64583 0.66667,-1.21354 1.125,-1.70312c0.46875,-0.48958 0.99479,-0.90104 1.57813,-1.23437c0.59375,-0.33333 1.22396,-0.57812 1.89063,-0.73437c0.66667,-0.16667 1.33333,-0.25 2,-0.25c0.80208,0 1.47396,0.22917 2.01563,0.6875c0.55208,0.44792 0.82813,0.97917 0.82813,1.59375c0,0.875 -0.22917,1.50521 -0.6875,1.89063c-0.44792,0.38542 -0.9375,0.57813 -1.46875,0.57813c-0.51042,0 -0.97396,-0.08854 -1.39062,-0.26562c-0.40625,-0.1875 -0.88021,-0.28125 -1.42187,-0.28125c-0.47917,0 -0.96354,0.11458 -1.45312,0.34375c-0.48958,0.21875 -0.94271,0.56771 -1.35937,1.04688c-0.41667,0.47917 -0.75,1.07292 -1,1.78125c-0.25,0.70833 -0.375,1.54167 -0.375,2.5v9.48438c0,0.6875 -0.22917,1.26563 -0.6875,1.73438c-0.44792,0.46875 -1.02083,0.70313 -1.71875,0.70313zM235.61734,205.53751c1.11458,0 2.14063,0.17188 3.07813,0.51563c0.9375,0.34375 1.74479,0.78646 2.42188,1.32813c0.67708,0.53125 1.20833,1.07292 1.59375,1.625c0.38542,0.54167 0.57813,1 0.57813,1.375l-1.03125,0.51563v-2.92187c0,-0.69792 0.22396,-1.27604 0.67188,-1.73437c0.45833,-0.46875 1.03125,-0.70312 1.71875,-0.70312c0.69792,0 1.27083,0.22917 1.71875,0.6875c0.45833,0.44792 0.6875,1.03125 0.6875,1.75v17.79688c0,2.32292 -0.5,4.18229 -1.5,5.57813c-1,1.40625 -2.3125,2.42188 -3.9375,3.04688c-1.625,0.625 -3.36979,0.9375 -5.23437,0.9375c-0.54167,0 -1.23958,-0.06771 -2.09375,-0.20312c-0.84375,-0.13542 -1.65625,-0.29687 -2.4375,-0.48437c-0.77083,-0.17708 -1.35417,-0.34896 -1.75,-0.51562c-0.80208,-0.34375 -1.35938,-0.77604 -1.67188,-1.29687c-0.30208,-0.52083 -0.35937,-1.07292 -0.17187,-1.65625c0.23958,-0.77083 0.625,-1.29687 1.15625,-1.57812c0.53125,-0.28125 1.09375,-0.31771 1.6875,-0.10937c0.26042,0.08333 0.69792,0.24479 1.3125,0.48438c0.61458,0.23958 1.28646,0.45833 2.01563,0.65625c0.73958,0.19792 1.39063,0.29688 1.95313,0.29688c2,0 3.47917,-0.40104 4.4375,-1.20312c0.95833,-0.79167 1.4375,-1.89583 1.4375,-3.3125v-3.48437l0.48438,0.35938c0,0.35417 -0.18229,0.77604 -0.54687,1.26563c-0.36458,0.48958 -0.85937,0.97917 -1.48437,1.46875c-0.625,0.47917 -1.36458,0.88542 -2.21875,1.21875c-0.85417,0.33333 -1.76042,0.5 -2.71875,0.5c-1.89583,0 -3.60417,-0.47396 -5.125,-1.42187c-1.51042,-0.94792 -2.70833,-2.25521 -3.59375,-3.92187c-0.875,-1.66667 -1.3125,-3.58333 -1.3125,-5.75c0,-2.17708 0.4375,-4.09896 1.3125,-5.76562c0.88542,-1.66667 2.07292,-2.97396 3.5625,-3.92187c1.48958,-0.94792 3.15625,-1.42187 5,-1.42187zM236.38296,209.92813c-1.20833,0 -2.26562,0.29688 -3.17187,0.89063c-0.90625,0.58333 -1.61458,1.38542 -2.125,2.40625c-0.5,1.01042 -0.75,2.15104 -0.75,3.42188c0,1.26042 0.25,2.39583 0.75,3.40625c0.51042,1.01042 1.21875,1.8125 2.125,2.40625c0.90625,0.58333 1.96354,0.875 3.17188,0.875c1.21875,0 2.28125,-0.29167 3.1875,-0.875c0.90625,-0.59375 1.61458,-1.39583 2.125,-2.40625c0.51042,-1.01042 0.76563,-2.14583 0.76563,-3.40625c0,-1.27083 -0.25521,-2.41146 -0.76562,-3.42187c-0.51042,-1.02083 -1.21875,-1.82292 -2.125,-2.40625c-0.90625,-0.59375 -1.96875,-0.89062 -3.1875,-0.89062zM261.34045,227.74063c-2.27083,0 -4.23958,-0.47396 -5.90625,-1.42187c-1.66667,-0.94792 -2.94792,-2.23437 -3.84375,-3.85937c-0.88542,-1.625 -1.32812,-3.46875 -1.32812,-5.53125c0,-2.39583 0.48438,-4.4375 1.45313,-6.125c0.96875,-1.69792 2.23958,-3 3.8125,-3.90625c1.58333,-0.90625 3.25521,-1.35937 5.01563,-1.35937c1.35417,0 2.63542,0.28125 3.84375,0.84375c1.21875,0.55208 2.29167,1.31771 3.21875,2.29688c0.9375,0.96875 1.67708,2.09375 2.21875,3.375c0.55208,1.28125 0.82813,2.64063 0.82813,4.07813c-0.02083,0.64583 -0.27604,1.16667 -0.76562,1.5625c-0.47917,0.39583 -1.03646,0.59375 -1.67187,0.59375h-15.28125l-1.20312,-4h14.6875l-0.875,0.8125v-1.07812c-0.0625,-0.78125 -0.33854,-1.47396 -0.82812,-2.07812c-0.48958,-0.61458 -1.10417,-1.10417 -1.84375,-1.46875c-0.72917,-0.36458 -1.50521,-0.54687 -2.32812,-0.54687c-0.80208,0 -1.55208,0.10938 -2.25,0.32813c-0.6875,0.20833 -1.28646,0.56771 -1.79687,1.07813c-0.51042,0.51042 -0.91146,1.19271 -1.20312,2.04688c-0.29167,0.84375 -0.4375,1.92188 -0.4375,3.23438c0,1.4375 0.29688,2.65625 0.89063,3.65625c0.60417,1 1.38021,1.76042 2.32813,2.28125c0.94792,0.52083 1.95313,0.78125 3.01563,0.78125c0.98958,0 1.77604,-0.07812 2.35938,-0.23437c0.59375,-0.16667 1.06771,-0.35937 1.42188,-0.57812c0.36458,-0.22917 0.69271,-0.42708 0.98438,-0.59375c0.47917,-0.23958 0.93229,-0.35937 1.35938,-0.35937c0.58333,0 1.06771,0.20313 1.45313,0.60938c0.39583,0.39583 0.59375,0.85938 0.59375,1.39063c0,0.71875 -0.375,1.375 -1.125,1.96875c-0.69792,0.58333 -1.67187,1.09896 -2.92187,1.54688c-1.25,0.4375 -2.54167,0.65625 -3.875,0.65625zM299.29043,205.92813c0.61458,0 1.14583,0.23438 1.59375,0.70313c0.45833,0.46875 0.6875,1.0625 0.6875,1.78125c0,0.1875 -0.01562,0.35417 -0.04687,0.5c-0.02083,0.14583 -0.05729,0.28646 -0.10937,0.42188l-6.125,16.48438c-0.1875,0.53125 -0.52083,0.9375 -1,1.21875c-0.47917,0.28125 -0.98437,0.38021 -1.51562,0.29688c-0.90625,-0.05208 -1.58333,-0.55729 -2.03125,-1.51562l-3.96875,-11.40625l1.04688,0.04688l-3.71875,11.35938c-0.45833,0.95833 -1.14062,1.46354 -2.04687,1.51563c-0.51042,0.08333 -1.01042,-0.01562 -1.5,-0.29687c-0.48958,-0.28125 -0.82812,-0.6875 -1.01562,-1.21875l-6.125,-16.48437c-0.10417,-0.29167 -0.15625,-0.59896 -0.15625,-0.92187c0,-0.63542 0.21354,-1.20833 0.64063,-1.71875c0.42708,-0.51042 1.01042,-0.76562 1.75,-0.76562c0.51042,0 0.96354,0.11979 1.35938,0.35938c0.40625,0.23958 0.6875,0.63021 0.84375,1.17188l4.84375,13.10938l-1,-0.07812l3.64063,-9.875c0.42708,-0.98958 1.16146,-1.48437 2.20313,-1.48437c0.58333,0 1.02604,0.13021 1.32813,0.39063c0.3125,0.25 0.5625,0.61458 0.75,1.09375l3.64063,9.875l-1.20312,0.15625l4.92188,-13.1875c0.32292,-1.02083 1.09375,-1.53125 2.3125,-1.53125zM309.90103,224.89688c0,0.6875 -0.22917,1.26563 -0.6875,1.73438c-0.44792,0.46875 -1.02083,0.70313 -1.71875,0.70313c-0.6875,0 -1.26042,-0.23437 -1.71875,-0.70312c-0.45833,-0.46875 -0.6875,-1.04687 -0.6875,-1.73437v-16.51562c0,-0.69792 0.22917,-1.28125 0.6875,-1.75c0.45833,-0.46875 1.03125,-0.70312 1.71875,-0.70312c0.69792,0 1.27083,0.23438 1.71875,0.70313c0.45833,0.46875 0.6875,1.05208 0.6875,1.75zM307.2604,203.33438c-0.90625,0 -1.54687,-0.14583 -1.92187,-0.4375c-0.375,-0.29167 -0.5625,-0.8125 -0.5625,-1.5625v-0.76562c0,-0.77083 0.20313,-1.29687 0.60938,-1.57812c0.41667,-0.28125 1.05208,-0.42187 1.90625,-0.42187c0.9375,0 1.59375,0.15104 1.96875,0.45313c0.375,0.29167 0.5625,0.80729 0.5625,1.54688v0.76563c0,0.77083 -0.20312,1.29688 -0.60937,1.57813c-0.39583,0.28125 -1.04687,0.42188 -1.95312,0.42188zM326.26287,205.53751c1.96875,0 3.46354,0.41667 4.48438,1.25c1.03125,0.82292 1.73958,1.92188 2.125,3.29688c0.38542,1.36458 0.57813,2.88542 0.57813,4.5625v10.25c0,0.6875 -0.22917,1.26563 -0.6875,1.73438c-0.44792,0.46875 -1.01562,0.70313 -1.70312,0.70313c-0.69792,0 -1.27604,-0.23437 -1.73437,-0.70312c-0.44792,-0.46875 -0.67187,-1.04687 -0.67187,-1.73437v-10.25c0,-0.875 -0.11458,-1.66667 -0.34375,-2.375c-0.21875,-0.70833 -0.625,-1.27604 -1.21875,-1.70312c-0.58333,-0.42708 -1.42187,-0.64062 -2.51562,-0.64062c-1.0625,0 -1.96354,0.21354 -2.70312,0.64063c-0.72917,0.42708 -1.28646,0.99479 -1.67187,1.70313c-0.38542,0.70833 -0.57812,1.5 -0.57812,2.375v10.25c0,0.6875 -0.22917,1.26563 -0.6875,1.73438c-0.44792,0.46875 -1.02083,0.70313 -1.71875,0.70313c-0.69792,0 -1.27604,-0.23437 -1.73437,-0.70312c-0.44792,-0.46875 -0.67187,-1.04687 -0.67187,-1.73437v-16.51562c0,-0.69792 0.22396,-1.28125 0.67188,-1.75c0.45833,-0.46875 1.03646,-0.70312 1.73438,-0.70312c0.69792,0 1.27083,0.23438 1.71875,0.70313c0.45833,0.46875 0.6875,1.05208 0.6875,1.75v1.71875l-0.60937,-0.125c0.23958,-0.45833 0.58333,-0.94271 1.03125,-1.45312c0.45833,-0.52083 0.99479,-1.00521 1.60938,-1.45312c0.61458,-0.45833 1.30729,-0.82812 2.07813,-1.10937c0.78125,-0.28125 1.625,-0.42187 2.53125,-0.42187zM350.10287,205.53751c1.96875,0 3.46354,0.41667 4.48438,1.25c1.03125,0.82292 1.73958,1.92188 2.125,3.29688c0.38542,1.36458 0.57813,2.88542 0.57813,4.5625v10.25c0,0.6875 -0.22917,1.26563 -0.6875,1.73438c-0.44792,0.46875 -1.01562,0.70313 -1.70312,0.70313c-0.69792,0 -1.27604,-0.23437 -1.73437,-0.70312c-0.44792,-0.46875 -0.67187,-1.04687 -0.67187,-1.73437v-10.25c0,-0.875 -0.11458,-1.66667 -0.34375,-2.375c-0.21875,-0.70833 -0.625,-1.27604 -1.21875,-1.70312c-0.58333,-0.42708 -1.42187,-0.64062 -2.51562,-0.64062c-1.0625,0 -1.96354,0.21354 -2.70312,0.64063c-0.72917,0.42708 -1.28646,0.99479 -1.67187,1.70313c-0.38542,0.70833 -0.57812,1.5 -0.57812,2.375v10.25c0,0.6875 -0.22917,1.26563 -0.6875,1.73438c-0.44792,0.46875 -1.02083,0.70313 -1.71875,0.70313c-0.69792,0 -1.27604,-0.23437 -1.73437,-0.70312c-0.44792,-0.46875 -0.67187,-1.04687 -0.67187,-1.73437v-16.51562c0,-0.69792 0.22396,-1.28125 0.67188,-1.75c0.45833,-0.46875 1.03646,-0.70312 1.73438,-0.70312c0.69792,0 1.27083,0.23438 1.71875,0.70313c0.45833,0.46875 0.6875,1.05208 0.6875,1.75v1.71875l-0.60937,-0.125c0.23958,-0.45833 0.58333,-0.94271 1.03125,-1.45312c0.45833,-0.52083 0.99479,-1.00521 1.60938,-1.45312c0.61458,-0.45833 1.30729,-0.82812 2.07813,-1.10937c0.78125,-0.28125 1.625,-0.42187 2.53125,-0.42187zM362.73971,206.33438h9.46875c0.64583,0 1.18229,0.21354 1.60938,0.64063c0.42708,0.42708 0.64063,0.95833 0.64063,1.59375c0,0.61458 -0.21354,1.13021 -0.64062,1.54688c-0.42708,0.41667 -0.96354,0.625 -1.60937,0.625h-9.46875c-0.64583,0 -1.18229,-0.21354 -1.60937,-0.64062c-0.42708,-0.42708 -0.64062,-0.96354 -0.64062,-1.60937c0,-0.61458 0.21354,-1.125 0.64063,-1.53125c0.42708,-0.41667 0.96354,-0.625 1.60938,-0.625zM367.02096,201.33438c0.6875,0 1.25,0.23438 1.6875,0.70313c0.44792,0.46875 0.67188,1.04688 0.67188,1.73438v17.79688c0,0.375 0.07292,0.68229 0.21875,0.92188c0.14583,0.23958 0.34375,0.41667 0.59375,0.53125c0.26042,0.10417 0.53646,0.15625 0.82813,0.15625c0.3125,0 0.60417,-0.05729 0.875,-0.17187c0.27083,-0.125 0.57813,-0.1875 0.92188,-0.1875c0.375,0 0.71354,0.17188 1.01563,0.51563c0.3125,0.34375 0.46875,0.82292 0.46875,1.4375c0,0.75 -0.41146,1.36458 -1.23437,1.84375c-0.8125,0.47917 -1.68229,0.71875 -2.60937,0.71875c-0.5625,0 -1.18229,-0.04687 -1.85937,-0.14062c-0.67708,-0.09375 -1.31771,-0.31771 -1.92187,-0.67187c-0.60417,-0.36458 -1.10417,-0.91667 -1.5,-1.65625c-0.39583,-0.75 -0.59375,-1.78125 -0.59375,-3.09375v-18c0,-0.6875 0.22917,-1.26562 0.6875,-1.73437c0.46875,-0.46875 1.05208,-0.70312 1.75,-0.70312z" fill="#000000" fill-rule="nonzero" stroke="none" stroke-width="1" stroke-linecap="square" stroke-linejoin="miter"/></g></g></svg>