<svg version="1.1" viewBox="0.0 0.0 960.0 720.0" fill="none" stroke="none" stroke-linecap="square" stroke-miterlimit="10" xmlns:xlink="http://www.w3.org/1999/xlink" xmlns="http://www.w3.org/2000/svg"><clipPath id="p.0"><path d="m0 0l960.0 0l0 720.0l-960.0 0l0 -720.0z" clip-rule="nonzero"/></clipPath><g clip-path="url(#p.0)"><path fill="#000000" fill-opacity="0.0" d="m0 0l960.0 0l0 720.0l-960.0 0z" fill-rule="evenodd"/><path fill="#000000" fill-opacity="0.0" d="m55.72441 47.422573l993.3858 0l0 695.4016l-993.3858 0z" fill-rule="evenodd"/><path stroke="#000000" stroke-width="1.0" stroke-linejoin="round" stroke-linecap="butt" d="m55.72441 47.422573l993.3858 0l0 695.4016l-993.3858 0z" fill-rule="evenodd"/><path fill="#000000" d="m76.646286 73.025696q2.28125 0 3.96875 0.484375q1.703125 0.46875 2.640625 1.328125q0.953125 0.859375 0.953125 2.0625q0 0.796875 -0.484375 1.5q-0.484375 0.703125 -1.40625 0.703125q-0.640625 0 -1.0625 -0.171875q-0.40625 -0.1875 -0.734375 -0.46875q-0.3125 -0.28125 -0.75 -0.515625q-0.40625 -0.25 -1.234375 -0.390625q-0.8125 -0.140625 -1.21875 -0.140625q-2.03125 0 -3.453125 0.890625q-1.421875 0.875 -2.1875 2.375q-0.75 1.5 -0.75 3.453125q0 1.921875 0.78125 3.421875q0.78125 1.5 2.15625 2.390625q1.375 0.875 3.171875 0.875q1.0 0 1.71875 -0.109375q0.734375 -0.125 1.203125 -0.375q0.5625 -0.3125 1.0 -0.671875q0.453125 -0.359375 1.328125 -0.359375q1.03125 0 1.59375 0.65625q0.5625 0.65625 0.5625 1.625q0 1.0 -1.125 1.828125q-1.109375 0.8125 -2.9375 1.3125q-1.8125 0.5 -3.9375 0.5q-3.15625 0 -5.484375 -1.453125q-2.3125 -1.46875 -3.578125 -3.984375q-1.25 -2.53125 -1.25 -5.65625q0 -3.265625 1.328125 -5.765625q1.34375 -2.5 3.71875 -3.921875q2.390625 -1.421875 5.46875 -1.421875zm31.83435 11.109375q0 3.28125 -1.46875 5.78125q-1.453125 2.5 -3.921875 3.90625q-2.453125 1.40625 -5.484375 1.40625q-3.046875 0 -5.515625 -1.40625q-2.453125 -1.40625 -3.90625 -3.90625q-1.453125 -2.5 -1.453125 -5.78125q0 -3.265625 1.453125 -5.765625q1.453125 -2.5 3.90625 -3.921875q2.46875 -1.421875 5.515625 -1.421875q3.03125 0 5.484375 1.421875q2.46875 1.421875 3.921875 3.921875q1.46875 2.5 1.46875 5.765625zm-4.796875 0q0 -2.03125 -0.828125 -3.53125q-0.8125 -1.5 -2.203125 -2.34375q-1.375 -0.84375 -3.046875 -0.84375q-1.6875 0 -3.0625 0.84375q-1.375 0.84375 -2.203125 2.34375q-0.8125 1.5 -0.8125 3.53125q0 2.0 0.8125 3.5q0.828125 1.5 2.203125 2.34375q1.375 0.84375 3.0625 0.84375q1.671875 0 3.046875 -0.84375q1.390625 -0.84375 2.203125 -2.34375q0.828125 -1.5 0.828125 -3.5zm20.247482 -11.109375q2.953125 0 4.484375 1.25q1.546875 1.234375 2.125 3.296875q0.578125 2.046875 0.578125 4.5625l0 10.25q0 1.03125 -0.6875 1.734375q-0.671875 0.703125 -1.703125 0.703125q-1.046875 0 -1.734375 -0.703125q-0.671875 -0.703125 -0.671875 -1.734375l0 -10.25q0 -1.3125 -0.34375 -2.375q-0.328125 -1.0625 -1.21875 -1.703125q-0.875 -0.640625 -2.515625 -0.640625q-1.59375 0 -2.703125 0.640625q-1.09375 0.640625 -1.671875 1.703125q-0.578125 1.0625 -0.578125 2.375l0 10.25q0 1.03125 -0.6875 1.734375q-0.671875 0.703125 -1.71875 0.703125q-1.046875 0 -1.734375 -0.703125q-0.671875 -0.703125 -0.671875 -1.734375l0 -16.515625q0 -1.046875 0.671875 -1.75q0.6875 -0.703125 1.734375 -0.703125q1.046875 0 1.71875 0.703125q0.6875 0.703125 0.6875 1.75l0 1.71875l-0.609375 -0.125q0.359375 -0.6875 1.03125 -1.453125q0.6875 -0.78125 1.609375 -1.453125q0.921875 -0.6875 2.078125 -1.109375q1.171875 -0.421875 2.53125 -0.421875zm23.839981 0q2.953125 0 4.484375 1.25q1.546875 1.234375 2.125 3.296875q0.578125 2.046875 0.578125 4.5625l0 10.25q0 1.03125 -0.6875 1.734375q-0.671875 0.703125 -1.703125 0.703125q-1.046875 0 -1.734375 -0.703125q-0.671875 -0.703125 -0.671875 -1.734375l0 -10.25q0 -1.3125 -0.34375 -2.375q-0.328125 -1.0625 -1.21875 -1.703125q-0.875 -0.640625 -2.515625 -0.640625q-1.59375 0 -2.703125 0.640625q-1.09375 0.640625 -1.671875 1.703125q-0.578125 1.0625 -0.578125 2.375l0 10.25q0 1.03125 -0.6875 1.734375q-0.671875 0.703125 -1.71875 0.703125q-1.046875 0 -1.734375 -0.703125q-0.671875 -0.703125 -0.671875 -1.734375l0 -16.515625q0 -1.046875 0.671875 -1.75q0.6875 -0.703125 1.734375 -0.703125q1.046875 0 1.71875 0.703125q0.6875 0.703125 0.6875 1.75l0 1.71875l-0.609375 -0.125q0.359375 -0.6875 1.03125 -1.453125q0.6875 -0.78125 1.609375 -1.453125q0.921875 -0.6875 2.078125 -1.109375q1.171875 -0.421875 2.53125 -0.421875zm22.277481 22.203125q-3.40625 0 -5.90625 -1.421875q-2.5 -1.421875 -3.84375 -3.859375q-1.328125 -2.4375 -1.328125 -5.53125q0 -3.59375 1.453125 -6.125q1.453125 -2.546875 3.8125 -3.90625q2.375 -1.359375 5.015625 -1.359375q2.03125 0 3.84375 0.84375q1.828125 0.828125 3.21875 2.296875q1.40625 1.453125 2.21875 3.375q0.828125 1.921875 0.828125 4.078125q-0.03125 0.96875 -0.765625 1.5625q-0.71875 0.59375 -1.671875 0.59375l-15.28125 0l-1.203125 -4.0l14.6875 0l-0.875 0.8125l0 -1.078125q-0.09375 -1.171875 -0.828125 -2.078125q-0.734375 -0.921875 -1.84375 -1.46875q-1.09375 -0.546875 -2.328125 -0.546875q-1.203125 0 -2.25 0.328125q-1.03125 0.3125 -1.796875 1.078125q-0.765625 0.765625 -1.203125 2.046875q-0.4375 1.265625 -0.4375 3.234375q0 2.15625 0.890625 3.65625q0.90625 1.5 2.328125 2.28125q1.421875 0.78125 3.015625 0.78125q1.484375 0 2.359375 -0.234375q0.890625 -0.25 1.421875 -0.578125q0.546875 -0.34375 0.984375 -0.59375q0.71875 -0.359375 1.359375 -0.359375q0.875 0 1.453125 0.609375q0.59375 0.59375 0.59375 1.390625q0 1.078125 -1.125 1.96875q-1.046875 0.875 -2.921875 1.546875q-1.875 0.65625 -3.875 0.65625zm22.637482 -22.203125q2.28125 0 3.96875 0.484375q1.703125 0.46875 2.640625 1.328125q0.953125 0.859375 0.953125 2.0625q0 0.796875 -0.484375 1.5q-0.484375 0.703125 -1.40625 0.703125q-0.640625 0 -1.0625 -0.171875q-0.40625 -0.1875 -0.734375 -0.46875q-0.3125 -0.28125 -0.75 -0.515625q-0.40625 -0.25 -1.234375 -0.390625q-0.8125 -0.140625 -1.21875 -0.140625q-2.03125 0 -3.453125 0.890625q-1.421875 0.875 -2.1875 2.375q-0.75 1.5 -0.75 3.453125q0 1.921875 0.78125 3.421875q0.78125 1.5 2.15625 2.390625q1.375 0.875 3.171875 0.875q1.0 0 1.71875 -0.109375q0.734375 -0.125 1.203125 -0.375q0.5625 -0.3125 1.0 -0.671875q0.453125 -0.359375 1.328125 -0.359375q1.03125 0 1.59375 0.65625q0.5625 0.65625 0.5625 1.625q0 1.0 -1.125 1.828125q-1.109375 0.8125 -2.9375 1.3125q-1.8125 0.5 -3.9375 0.5q-3.15625 0 -5.484375 -1.453125q-2.3125 -1.46875 -3.578125 -3.984375q-1.25 -2.53125 -1.25 -5.65625q0 -3.265625 1.328125 -5.765625q1.34375 -2.5 3.71875 -3.921875q2.390625 -1.421875 5.46875 -1.421875zm11.521851 0.796875l9.46875 0q0.96875 0 1.609375 0.640625q0.640625 0.640625 0.640625 1.59375q0 0.921875 -0.640625 1.546875q-0.640625 0.625 -1.609375 0.625l-9.46875 0q-0.96875 0 -1.609375 -0.640625q-0.640625 -0.640625 -0.640625 -1.609375q0 -0.921875 0.640625 -1.53125q0.640625 -0.625 1.609375 -0.625zm4.28125 -5.0q1.03125 0 1.6875 0.703125q0.671875 0.703125 0.671875 1.734375l0 17.796875q0 0.5625 0.21875 0.921875q0.21875 0.359375 0.59375 0.53125q0.390625 0.15625 0.828125 0.15625q0.46875 0 0.875 -0.171875q0.40625 -0.1875 0.921875 -0.1875q0.5625 0 1.015625 0.515625q0.46875 0.515625 0.46875 1.4375q0 1.125 -1.234375 1.84375q-1.21875 0.71875 -2.609375 0.71875q-0.84375 0 -1.859375 -0.140625q-1.015625 -0.140625 -1.921875 -0.671875q-0.90625 -0.546875 -1.5 -1.65625q-0.59375 -1.125 -0.59375 -3.09375l0 -18.0q0 -1.03125 0.6875 -1.734375q0.703125 -0.703125 1.75 -0.703125zm39.200607 26.0q-1.0 0 -1.6875 -0.703125q-0.671875 -0.703125 -0.671875 -1.734375l0 -18.796875l0.828125 0.1875l-7.71875 9.5625l-0.203125 -0.515625l13.5625 0q0.96875 0 1.609375 0.640625q0.640625 0.640625 0.640625 1.59375q0 0.921875 -0.640625 1.546875q-0.640625 0.625 -1.609375 0.625l-16.875 0q-0.84375 0 -1.625 -0.671875q-0.78125 -0.6875 -0.78125 -1.6875q0 -0.890625 0.609375 -1.609375l12.640625 -15.484375q0.3125 -0.4375 0.828125 -0.6875q0.53125 -0.265625 1.171875 -0.265625q1.03125 0 1.6875 0.703125q0.671875 0.703125 0.671875 1.734375l0 23.125q0 1.03125 -0.703125 1.734375q-0.703125 0.703125 -1.734375 0.703125z" fill-rule="nonzero"/></g></svg>