<svg version="1.1" viewBox="0.0 0.0 960.0 720.0" fill="none" stroke="none" stroke-linecap="square" stroke-miterlimit="10" xmlns:xlink="http://www.w3.org/1999/xlink" xmlns="http://www.w3.org/2000/svg"><clipPath id="p.0"><path d="m0 0l960.0 0l0 720.0l-960.0 0l0 -720.0z" clip-rule="nonzero"/></clipPath><g clip-path="url(#p.0)"><path fill="#000000" fill-opacity="0.0" d="m0 0l960.0 0l0 720.0l-960.0 0z" fill-rule="evenodd"/><path fill="#000000" fill-opacity="0.0" d="m55.72441 47.422573l993.3858 0l0 695.4016l-993.3858 0z" fill-rule="evenodd"/><path stroke="#000000" stroke-width="1.0" stroke-linejoin="round" stroke-linecap="butt" d="m55.72441 47.422573l993.3858 0l0 695.4016l-993.3858 0z" fill-rule="evenodd"/><path fill="#000000" d="m76.646286 72.588196q3.203125 0 5.421875 1.59375q2.21875 1.59375 3.09375 4.28125l0 -5.59375l3.640625 0l0 21.953125l-3.640625 0l0 -5.59375q-0.875 2.671875 -3.09375 4.28125q-2.21875 1.59375 -5.421875 1.59375q-2.921875 0 -5.203125 -1.359375q-2.28125 -1.359375 -3.578125 -3.890625q-1.296875 -2.546875 -1.296875 -5.984375q0 -3.453125 1.296875 -6.0q1.296875 -2.5625 3.578125 -3.921875q2.28125 -1.359375 5.203125 -1.359375zm1.03125 3.234375q-3.359375 0 -5.375 2.140625q-2.015625 2.140625 -2.015625 5.90625q0 3.75 2.015625 5.890625q2.015625 2.140625 5.375 2.140625q2.171875 0 3.859375 -1.0q1.703125 -1.0 2.65625 -2.8125q0.96875 -1.828125 0.96875 -4.21875q0 -2.40625 -0.96875 -4.25q-0.953125 -1.84375 -2.65625 -2.8125q-1.6875 -0.984375 -3.859375 -0.984375zm29.053726 -3.234375q2.90625 0 5.1875 1.359375q2.28125 1.359375 3.578125 3.921875q1.3125 2.546875 1.3125 6.0q0 3.4375 -1.3125 5.984375q-1.296875 2.53125 -3.578125 3.890625q-2.28125 1.359375 -5.1875 1.359375q-3.203125 0 -5.421875 -1.609375q-2.21875 -1.625 -3.0625 -4.265625l0 16.0l-3.640625 0l0 -32.359375l3.640625 0l0 5.59375q0.84375 -2.640625 3.0625 -4.25q2.21875 -1.625 5.421875 -1.625zm-1.046875 3.234375q-2.125 0 -3.84375 0.984375q-1.71875 0.96875 -2.6875 2.8125q-0.953125 1.84375 -0.953125 4.25q0 2.390625 0.953125 4.21875q0.96875 1.8125 2.6875 2.8125q1.71875 1.0 3.84375 1.0q3.40625 0 5.421875 -2.140625q2.015625 -2.140625 2.015625 -5.890625q0 -3.765625 -2.015625 -5.90625q-2.015625 -2.140625 -5.421875 -2.140625zm28.006851 -3.234375q2.90625 0 5.1875 1.359375q2.28125 1.359375 3.578125 3.921875q1.3125 2.546875 1.3125 6.0q0 3.4375 -1.3125 5.984375q-1.296875 2.53125 -3.578125 3.890625q-2.28125 1.359375 -5.1875 1.359375q-3.203125 0 -5.421875 -1.609375q-2.21875 -1.625 -3.0625 -4.265625l0 16.0l-3.640625 0l0 -32.359375l3.640625 0l0 5.59375q0.84375 -2.640625 3.0625 -4.25q2.21875 -1.625 5.421875 -1.625zm-1.046875 3.234375q-2.125 0 -3.84375 0.984375q-1.71875 0.96875 -2.6875 2.8125q-0.953125 1.84375 -0.953125 4.25q0 2.390625 0.953125 4.21875q0.96875 1.8125 2.6875 2.8125q1.71875 1.0 3.84375 1.0q3.40625 0 5.421875 -2.140625q2.015625 -2.140625 2.015625 -5.890625q0 -3.765625 -2.015625 -5.90625q-2.015625 -2.140625 -5.421875 -2.140625zm19.522476 -10.59375l0 29.59375l-3.640625 0l0 -29.59375l3.640625 0zm14.839371 7.359375q3.203125 0 5.421875 1.59375q2.21875 1.59375 3.09375 4.28125l0 -5.59375l3.640625 0l0 21.953125l-3.640625 0l0 -5.59375q-0.875 2.671875 -3.09375 4.28125q-2.21875 1.59375 -5.421875 1.59375q-2.921875 0 -5.203125 -1.359375q-2.28125 -1.359375 -3.578125 -3.890625q-1.296875 -2.546875 -1.296875 -5.984375q0 -3.453125 1.296875 -6.0q1.296875 -2.5625 3.578125 -3.921875q2.28125 -1.359375 5.203125 -1.359375zm1.03125 3.234375q-3.359375 0 -5.375 2.140625q-2.015625 2.140625 -2.015625 5.90625q0 3.75 2.015625 5.890625q2.015625 2.140625 5.375 2.140625q2.171875 0 3.859375 -1.0q1.703125 -1.0 2.65625 -2.8125q0.96875 -1.828125 0.96875 -4.21875q0 -2.40625 -0.96875 -4.25q-0.953125 -1.84375 -2.65625 -2.8125q-1.6875 -0.984375 -3.859375 -0.984375zm36.44435 -2.953125l0 21.953125l-3.640625 0l0 -5.15625q-0.84375 2.671875 -2.984375 4.09375q-2.125 1.421875 -4.96875 1.421875q-3.796875 0 -6.171875 -2.453125q-2.359375 -2.46875 -2.359375 -7.0625l0 -12.796875l3.640625 0l0 12.4375q0 3.28125 1.671875 5.0625q1.6875 1.765625 4.578125 1.765625q3.0 0 4.796875 -1.9375q1.796875 -1.9375 1.796875 -5.65625l0 -11.671875l3.640625 0zm14.844345 -0.28125q3.203125 0 5.421875 1.59375q2.21875 1.59375 3.09375 4.28125l0 -13.234375l3.640625 0l0 29.59375l-3.640625 0l0 -5.59375q-0.875 2.671875 -3.09375 4.28125q-2.21875 1.59375 -5.421875 1.59375q-2.921875 0 -5.203125 -1.359375q-2.28125 -1.359375 -3.578125 -3.890625q-1.296875 -2.546875 -1.296875 -5.984375q0 -3.453125 1.296875 -6.0q1.296875 -2.5625 3.578125 -3.921875q2.28125 -1.359375 5.203125 -1.359375zm1.03125 3.234375q-3.359375 0 -5.375 2.140625q-2.015625 2.140625 -2.015625 5.90625q0 3.75 2.015625 5.890625q2.015625 2.140625 5.375 2.140625q2.171875 0 3.859375 -1.0q1.703125 -1.0 2.65625 -2.8125q0.96875 -1.828125 0.96875 -4.21875q0 -2.40625 -0.96875 -4.25q-0.953125 -1.84375 -2.65625 -2.8125q-1.6875 -0.984375 -3.859375 -0.984375zm36.761826 -3.234375q3.171875 0 5.671875 1.359375q2.5 1.359375 3.90625 3.921875q1.421875 2.546875 1.421875 6.0q0 3.4375 -1.421875 5.984375q-1.40625 2.53125 -3.90625 3.890625q-2.5 1.359375 -5.671875 1.359375q-3.1562347 0 -5.6562347 -1.359375q-2.5 -1.359375 -3.9375 -3.890625q-1.4375 -2.546875 -1.4375 -5.984375q0 -3.453125 1.4375 -6.0q1.4375 -2.5625 3.9375 -3.921875q2.5 -1.359375 5.6562347 -1.359375zm0 3.1875q-1.9531097 0 -3.6249847 0.890625q-1.65625 0.875 -2.671875 2.703125q-1.015625 1.8125 -1.015625 4.5q0 2.640625 1.015625 4.453125q1.015625 1.8125 2.671875 2.703125q1.671875 0.875 3.6249847 0.875q1.96875 0 3.625 -0.875q1.65625 -0.890625 2.671875 -2.703125q1.03125 -1.8125 1.03125 -4.453125q0 -2.6875 -1.03125 -4.5q-1.015625 -1.828125 -2.671875 -2.703125q-1.65625 -0.890625 -3.625 -0.890625zm27.891846 -3.1875q2.90625 0 5.1875 1.359375q2.28125 1.359375 3.578125 3.921875q1.3125 2.546875 1.3125 6.0q0 3.4375 -1.3125 5.984375q-1.296875 2.53125 -3.578125 3.890625q-2.28125 1.359375 -5.1875 1.359375q-3.203125 0 -5.421875 -1.609375q-2.21875 -1.625 -3.0625 -4.265625l0 16.0l-3.640625 0l0 -32.359375l3.640625 0l0 5.59375q0.84375 -2.640625 3.0625 -4.25q2.21875 -1.625 5.421875 -1.625zm-1.046875 3.234375q-2.125 0 -3.84375 0.984375q-1.71875 0.96875 -2.6875 2.8125q-0.953125 1.84375 -0.953125 4.25q0 2.390625 0.953125 4.21875q0.96875 1.8125 2.6875 2.8125q1.71875 1.0 3.84375 1.0q3.40625 0 5.421875 -2.140625q2.015625 -2.140625 2.015625 -5.890625q0 -3.765625 -2.015625 -5.90625q-2.015625 -2.140625 -5.421875 -2.140625zm28.006836 -3.234375q2.90625 0 5.1875 1.359375q2.28125 1.359375 3.578125 3.921875q1.3125 2.546875 1.3125 6.0q0 3.4375 -1.3125 5.984375q-1.296875 2.53125 -3.578125 3.890625q-2.28125 1.359375 -5.1875 1.359375q-3.2030945 0 -5.4218445 -1.609375q-2.21875 -1.625 -3.0625 -4.265625l0 16.0l-3.640625 0l0 -32.359375l3.640625 0l0 5.59375q0.84375 -2.640625 3.0625 -4.25q2.21875 -1.625 5.4218445 -1.625zm-1.0468445 3.234375q-2.125 0 -3.84375 0.984375q-1.71875 0.96875 -2.6875 2.8125q-0.953125 1.84375 -0.953125 4.25q0 2.390625 0.953125 4.21875q0.96875 1.8125 2.6875 2.8125q1.71875 1.0 3.84375 1.0q3.4062195 0 5.4218445 -2.140625q2.015625 -2.140625 2.015625 -5.890625q0 -3.765625 -2.015625 -5.90625q-2.015625 -2.140625 -5.4218445 -2.140625zm25.83496 -3.234375q3.171875 0 5.671875 1.359375q2.5 1.359375 3.90625 3.921875q1.421875 2.546875 1.421875 6.0q0 3.4375 -1.421875 5.984375q-1.40625 2.53125 -3.90625 3.890625q-2.5 1.359375 -5.671875 1.359375q-3.15625 0 -5.65625 -1.359375q-2.5 -1.359375 -3.9375 -3.890625q-1.4375 -2.546875 -1.4375 -5.984375q0 -3.453125 1.4375 -6.0q1.4375 -2.5625 3.9375 -3.921875q2.5 -1.359375 5.65625 -1.359375zm0 3.1875q-1.953125 0 -3.625 0.890625q-1.65625 0.875 -2.671875 2.703125q-1.015625 1.8125 -1.015625 4.5q0 2.640625 1.015625 4.453125q1.015625 1.8125 2.671875 2.703125q1.671875 0.875 3.625 0.875q1.96875 0 3.625 -0.875q1.65625 -0.890625 2.671875 -2.703125q1.03125 -1.8125 1.03125 -4.453125q0 -2.6875 -1.03125 -4.5q-1.015625 -1.828125 -2.671875 -2.703125q-1.65625 -0.890625 -3.625 -0.890625zm27.329346 -3.265625q3.828125 0 6.1875 2.453125q2.375 2.453125 2.375 7.09375l0 12.765625l-3.640625 0l0 -12.4375q0 -3.28125 -1.6875 -5.03125q-1.671875 -1.765625 -4.5625 -1.765625q-3.0 0 -4.796875 1.9375q-1.796875 1.9375 -1.796875 5.65625l0 11.640625l-3.640625 0l0 -21.953125l3.640625 0l0 5.1875q0.84375 -2.671875 2.984375 -4.109375q2.140625 -1.4375 4.9375 -1.4375zm34.360596 10.109375q0 1.15625 -0.171875 2.0l-17.546875 0q0.109375 3.765625 2.125 5.640625q2.03125 1.875 4.953125 1.875q2.640625 0 4.421875 -1.328125q1.78125 -1.34375 2.171875 -3.578125l3.875 0q-0.390625 2.28125 -1.78125 4.078125q-1.375 1.796875 -3.578125 2.796875q-2.1875 1.0 -4.953125 1.0q-3.15625 0 -5.609375 -1.359375q-2.4375 -1.359375 -3.8125 -3.890625q-1.375 -2.546875 -1.375 -5.984375q0 -3.453125 1.375 -6.0q1.375 -2.5625 3.8125 -3.921875q2.453125 -1.359375 5.609375 -1.359375q3.203125 0 5.578125 1.359375q2.375 1.359375 3.640625 3.640625q1.265625 2.28125 1.265625 5.03125zm-3.6875 0.25q0.125 -2.453125 -0.796875 -4.09375q-0.921875 -1.640625 -2.53125 -2.4375q-1.59375 -0.796875 -3.46875 -0.796875q-3.0 0 -5.046875 1.859375q-2.03125 1.859375 -2.1875 5.46875l14.03125 0zm20.006866 -10.359375q3.828125 0 6.1875 2.453125q2.375 2.453125 2.375 7.09375l0 12.765625l-3.640625 0l0 -12.4375q0 -3.28125 -1.6875 -5.03125q-1.671875 -1.765625 -4.5625 -1.765625q-3.0 0 -4.796875 1.9375q-1.796875 1.9375 -1.796875 5.65625l0 11.640625l-3.640625 0l0 -21.953125l3.640625 0l0 5.1875q0.84375 -2.671875 2.984375 -4.109375q2.140625 -1.4375 4.9375 -1.4375zm24.641846 19.109375l0 3.203125l-2.71875 0q-3.375 0 -5.03125 -1.59375q-1.65625 -1.609375 -1.65625 -5.359375l0 -11.84375l-3.28125 0l0 -3.15625l3.28125 0l0 -5.484375l3.6875 0l0 5.484375l5.671875 0l0 3.15625l-5.671875 0l0 11.921875q0 2.109375 0.765625 2.890625q0.78125 0.78125 2.703125 0.78125l2.25 0zm11.310608 -19.03125q3.71875 0 5.984375 1.9375q2.265625 1.9375 2.734375 5.21875l-3.46875 0q-0.25 -1.96875 -1.625 -3.21875q-1.375 -1.265625 -3.703125 -1.265625q-1.953125 0 -3.0625 0.9375q-1.09375 0.9375 -1.09375 2.546875q0 1.203125 0.734375 1.9375q0.75 0.734375 1.84375 1.125q1.09375 0.375 3.015625 0.8125q2.4375 0.5625 3.9375 1.140625q1.5 0.578125 2.5625 1.859375q1.0625 1.28125 1.0625 3.4375q0 2.6875 -2.015625 4.375q-2.015625 1.671875 -5.390625 1.671875q-3.90625 0 -6.390625 -1.875q-2.484375 -1.890625 -2.921875 -5.25l3.515625 0q0.203125 2.0 1.734375 3.25q1.546875 1.234375 4.0625 1.234375q1.890625 0 2.9375 -0.953125q1.0625 -0.96875 1.0625 -2.53125q0 -1.28125 -0.765625 -2.03125q-0.75 -0.765625 -1.875 -1.15625q-1.109375 -0.40625 -3.078125 -0.84375q-2.4375 -0.5625 -3.90625 -1.125q-1.453125 -0.5625 -2.46875 -1.78125q-1.015625 -1.21875 -1.015625 -3.296875q0 -2.765625 2.03125 -4.453125q2.046875 -1.703125 5.5625 -1.703125z" fill-rule="nonzero"/></g></svg>