<svg version="1.1" xmlns="http://www.w3.org/2000/svg" xmlns:xlink="http://www.w3.org/1999/xlink" width="596.23577" height="609.60961" viewBox="0,0,596.23577,609.60961"><g transform="translate(123.26033,78.59692)"><g data-paper-data="{&quot;isPaintingLayer&quot;:true}" fill-rule="nonzero" stroke-miterlimit="10" stroke-dasharray="" stroke-dashoffset="0" style="mix-blend-mode: normal"><path d="M398.92838,295.92747v-86.02407h62.79706v86.02407z" data-paper-data="{&quot;zoomLevel&quot;:2.5}" fill="#ab7d54" stroke="#ab7d54" stroke-width="22.5" stroke-linecap="butt" stroke-linejoin="round"/><path d="M65.92885,226.20788c0,168.33905 -42.35144,304.80481 -94.59459,304.80481c-52.24315,0 -94.59459,-136.46576 -94.59459,-304.80481c0,-168.33904 42.35145,-304.8048 94.5946,-304.8048c52.24315,0 94.5946,136.46576 94.5946,304.80481z" fill="none" stroke="none" stroke-width="NaN" stroke-linecap="butt" stroke-linejoin="miter"/><path d="M151.0088,129.61628c47.68225,0 86.33634,48.73777 86.33634,108.85886c0,60.12109 -38.6541,108.85886 -86.33634,108.85886c-47.68225,0 -86.33634,-48.73777 -86.33634,-108.85886c0,-60.12109 38.6541,-108.85886 86.33634,-108.85886z" fill="none" stroke="none" stroke-width="0" stroke-linecap="butt" stroke-linejoin="miter"/><g fill="#ffffff" stroke="none" stroke-width="1" stroke-linecap="butt" stroke-linejoin="miter"><path d="M451.0316,226.30644v8.22181c0,1.25145 -0.48713,2.42804 -1.37225,3.31282l-9.22039,9.22039c-1.57756,1.57756 -3.64988,2.36615 -5.72189,2.36615c-2.07235,0 -4.14468,-0.78861 -5.72224,-2.36615l-12.04671,-12.04671c-1.49469,-1.49469 -1.49469,-3.92639 0,-5.42108c0.31678,-0.31678 0.67582,-0.56567 1.05879,-0.74802l-1.05879,-1.05879c-0.72404,-0.72404 -1.12301,-1.6867 -1.12301,-2.71054c0,-1.02386 0.39897,-1.98649 1.12301,-2.71055c0.67346,-0.67346 1.55358,-1.0651 2.49727,-1.11636c0.05158,-0.94399 0.44322,-1.82411 1.11668,-2.4976c0.67346,-0.67346 1.55358,-1.0651 2.49726,-1.11635c0.05158,-0.94399 0.44322,-1.82411 1.11668,-2.4976c1.24512,-1.24512 3.14013,-1.45211 4.60253,-0.62256c0.18368,-0.41893 0.44589,-0.81192 0.78826,-1.15429c1.47805,-1.47805 3.8828,-1.47805 5.36087,0l5.88196,5.88196v-0.60361c0,-2.1136 1.71963,-3.83323 3.83322,-3.83323c1.02386,0 1.98649,0.39863 2.71055,1.12269c0.72404,0.72404 1.12269,1.6867 1.12269,2.71055v4.05384c1.48738,0.52739 2.55548,1.9479 2.55548,3.61328zM431.37399,216.91471l11.99115,11.99115v-2.59908c0,-1.66572 1.06812,-3.08621 2.55548,-3.61362v-0.00067v-4.05319c0,-0.34139 -0.13309,-0.66216 -0.37433,-0.9034c-0.24124,-0.24157 -0.56202,-0.37434 -0.90341,-0.37434c-0.70441,0 -1.27774,0.57333 -1.27774,1.27774v3.68815c0,0.51677 -0.31146,0.98293 -0.78894,1.18057c-0.47717,0.19765 -1.02684,0.08851 -1.39219,-0.27684l-8.06343,-8.06343c-0.24058,-0.24058 -0.55701,-0.36103 -0.87311,-0.36103c-0.31645,0 -0.63255,0.12045 -0.87346,0.36103c-0.48147,0.48147 -0.48147,1.2651 0,1.7469zM425.60882,217.84839c0,0.34139 0.13275,0.66217 0.37401,0.90341l1.05912,1.05911c0.18235,-0.38332 0.43124,-0.74236 0.74802,-1.05911c0.31678,-0.31678 0.67582,-0.56567 1.05912,-0.74802l-1.05912,-1.05912c-0.49812,-0.49812 -1.30869,-0.49812 -1.80681,0c-0.24157,0.24157 -0.37433,0.56234 -0.37433,0.90374zM448.47612,226.30678c0,-0.70476 -0.57334,-1.27774 -1.27775,-1.27774c-0.70441,0 -1.27774,0.57298 -1.27774,1.27774v5.68396c0,0.51677 -0.31146,0.9826 -0.78893,1.18025c-0.47717,0.19797 -1.02685,0.08884 -1.3922,-0.27684l-6.91445,-6.91446l-5.42108,-5.42076c-0.24124,-0.24157 -0.56202,-0.37434 -0.90341,-0.37434c-0.34106,0 -0.66217,0.13276 -0.90341,0.37434c-0.49812,0.49812 -0.49812,1.30869 0,1.80681l5.42109,5.42109c0.49878,0.4991 0.49878,1.30803 0,1.80681c-0.03127,0.03127 -0.06355,0.06056 -0.09717,0.08783c-0.4685,0.382 -1.14465,0.382 -1.61282,0c-0.03361,-0.02729 -0.06589,-0.05656 -0.09716,-0.08783l-5.42109,-5.42076l-3.61395,-3.61395c-0.49812,-0.49845 -1.30869,-0.49812 -1.80681,0c-0.49812,0.49812 -0.49812,1.30869 0,1.80681l9.03471,9.03506c0.4991,0.4991 0.4991,1.30803 0,1.80681c-0.03095,0.03127 -0.06355,0.06057 -0.09682,0.08784c-0.4685,0.382 -1.14465,0.382 -1.61315,0c-0.03328,-0.02729 -0.0659,-0.05656 -0.09682,-0.08784l-9.03506,-9.03471c-0.24157,-0.24157 -0.56234,-0.37434 -0.90373,-0.37434c-0.34106,0 -0.66183,0.13276 -0.90341,0.37434c-0.24124,0.24124 -0.37433,0.56202 -0.37433,0.90341c0,0.34139 0.13309,0.66216 0.37433,0.9034l9.03506,9.03506c0.4991,0.4991 0.4991,1.30804 0,1.80714c-0.49878,0.49878 -1.30803,0.49878 -1.80681,0l-5.42109,-5.42108c-0.49812,-0.49812 -1.30869,-0.49812 -1.80714,0c-0.49812,0.49812 -0.49812,1.30869 0,1.80681l5.42109,5.42109l6.62562,6.62595c2.15885,2.15885 5.67166,2.15852 7.8305,0l9.22039,-9.22039c0.40196,-0.40228 0.62357,-0.93701 0.62357,-1.50601zM448.47612,234.52827"/><path d="M417.63991,214.33626v-4.08878c0,-0.70576 0.57199,-1.27774 1.27774,-1.27774c0.70576,0 1.27774,0.57199 1.27774,1.27774v4.08878c0,0.70576 -0.57199,1.27775 -1.27774,1.27775c-0.70576,0 -1.27774,-0.57199 -1.27774,-1.27775zM418.91765,215.61401"/><path d="M415.136,214.88098c0.4991,0.4991 0.4991,1.30803 0,1.80681c-0.24955,0.24955 -0.57664,0.37434 -0.90341,0.37434c-0.32709,0 -0.65418,-0.12479 -0.9034,-0.37434l-3.06658,-3.06658c-0.4991,-0.49878 -0.4991,-1.30771 0,-1.80682c0.49878,-0.4991 1.30804,-0.4991 1.80682,0zM412.0694,211.81438"/><path d="M414.06221,220.46942c0,0.70576 -0.57199,1.27775 -1.27774,1.27775h-4.08878c-0.70576,0 -1.27775,-0.57199 -1.27775,-1.27775c0,-0.70576 0.57199,-1.27774 1.27775,-1.27774h4.08878c0.70576,0 1.27774,0.57199 1.27774,1.27774zM412.78447,219.19168"/></g><path d="M399.9467,284.24584c0.26931,0 0.42107,0 0.45527,0l0.0513,-0.24367c0.16244,-0.75237 -0.19023,-1.12855 -1.05802,-1.12855c-0.44886,0 -0.77588,0.03634 -0.98107,0.10901c-0.41465,0.14107 -0.73099,0.27145 -0.94901,0.39114c-0.21802,0.11542 -0.41679,0.17313 -0.59633,0.17313c-0.17527,0 -0.32702,-0.0684 -0.45527,-0.20519c-0.12825,-0.13679 -0.16886,-0.31847 -0.12183,-0.54504c0.04275,-0.20519 0.17527,-0.38901 0.39756,-0.55145c0.79084,-0.6284 1.81039,-0.9426 3.05863,-0.9426c1.48337,0 2.33191,0.51725 2.54566,1.55176c0.06412,0.35909 0.04916,0.76733 -0.04489,1.22473l-0.96825,4.36032c-0.05985,0.27359 -0.19878,0.48305 -0.41679,0.6284c-0.21802,0.14534 -0.43176,0.21802 -0.64122,0.21802c-0.20946,0 -0.39756,-0.06199 -0.56428,-0.18595c-0.16244,-0.12825 -0.2116,-0.34412 -0.14749,-0.64764h0.19237c-0.13252,0.40184 -0.66259,0.6968 -1.59023,0.88489c-0.27359,0.0684 -0.5771,0.1026 -0.91053,0.1026c-0.33344,0 -0.65832,-0.0513 -0.97466,-0.1539c-0.31206,-0.09832 -0.57496,-0.25649 -0.78871,-0.47451c-0.45313,-0.4574 -0.59633,-1.07298 -0.42962,-1.84673c0.38473,-1.81252 2.03054,-2.71878 4.93742,-2.71878zM400.16472,285.73989c-0.02565,0.0513 -0.17313,0.07694 -0.44245,0.07694c-0.26931,0 -0.53863,0.00427 -0.80794,0.01283c-0.26504,0.00427 -0.51512,0.03206 -0.75023,0.08336c-0.23511,0.04702 -0.44886,0.11969 -0.64122,0.21802c-0.35481,0.16671 -0.58138,0.4403 -0.6797,0.82076c-0.05557,0.27786 0.01496,0.49802 0.2116,0.66046c0.16244,0.16244 0.43817,0.24794 0.82718,0.25649c0.47878,0 0.92336,-0.15176 1.33374,-0.45527c0.36763,-0.28642 0.63267,-0.73314 0.79512,-1.34015zM405.94334,281.80278c0.18382,-0.33344 0.95542,-0.50015 2.31482,-0.50015c1.12428,0 1.89161,0.43389 2.30199,1.30169c0.35053,0.76519 0.41038,1.6971 0.17954,2.79574c-0.24367,1.13283 -0.71176,2.06046 -1.40428,2.78291c-0.79512,0.84641 -1.73772,1.26535 -2.82779,1.2568c-0.92336,0 -1.62016,-0.28213 -2.09039,-0.84641c-0.16671,-0.17527 -0.18809,-0.31634 -0.06412,-0.42321l-0.42321,2.98169c-0.06412,0.30352 -0.2116,0.52794 -0.44245,0.67329c-0.23084,0.14534 -0.44672,0.21802 -0.64764,0.21802c-0.23084,0 -0.42962,-0.07909 -0.59633,-0.23726c-0.16671,-0.15817 -0.22016,-0.37619 -0.16031,-0.65405l1.87878,-8.82965c0.06412,-0.29924 0.20519,-0.52153 0.42321,-0.66688c0.21802,-0.14534 0.47237,-0.21802 0.76306,-0.21802c0.66259,0 0.92764,0.12183 0.79512,0.3655zM405.93693,283.56614c-0.19237,0.20519 -0.35053,0.4681 -0.47451,0.78871c-0.12397,0.31634 -0.22443,0.65405 -0.30137,1.01313c-0.07694,0.35481 -0.10687,0.68397 -0.08977,0.98749c0.0171,0.29924 0.07694,0.57282 0.17954,0.82076c0.22657,0.47451 0.66259,0.70534 1.3081,0.69252c0.60275,0 1.11145,-0.24794 1.52612,-0.74382c0.34626,-0.43176 0.59848,-1.01954 0.75665,-1.76336c0.24367,-1.14138 0.10045,-1.90016 -0.42962,-2.27635c-0.18382,-0.13252 -0.45527,-0.20092 -0.81435,-0.20519c-0.35909,-0.00427 -0.67756,0.05771 -0.95542,0.18595c-0.27359,0.12397 -0.50871,0.29069 -0.70534,0.50015zM414.28309,281.80278c0.18382,-0.33344 0.95542,-0.50015 2.31482,-0.50015c1.12428,0 1.89161,0.43389 2.30199,1.30169c0.35053,0.76519 0.41038,1.6971 0.17954,2.79574c-0.24367,1.13283 -0.71176,2.06046 -1.40428,2.78291c-0.79512,0.84641 -1.73772,1.26535 -2.82779,1.2568c-0.92336,0 -1.62016,-0.28213 -2.09039,-0.84641c-0.16671,-0.17527 -0.18809,-0.31634 -0.06412,-0.42321l-0.42321,2.98169c-0.06412,0.30352 -0.2116,0.52794 -0.44245,0.67329c-0.23084,0.14534 -0.44672,0.21802 -0.64764,0.21802c-0.23084,0 -0.42962,-0.07909 -0.59633,-0.23726c-0.16671,-0.15817 -0.22016,-0.37619 -0.16031,-0.65405l1.87878,-8.82965c0.06412,-0.29924 0.20519,-0.52153 0.42321,-0.66688c0.21802,-0.14534 0.47237,-0.21802 0.76306,-0.21802c0.66259,0 0.92764,0.12183 0.79512,0.3655zM414.27668,283.56614c-0.19237,0.20519 -0.35053,0.4681 -0.47451,0.78871c-0.12397,0.31634 -0.22443,0.65405 -0.30137,1.01313c-0.07694,0.35481 -0.10687,0.68397 -0.08977,0.98749c0.0171,0.29924 0.07694,0.57282 0.17954,0.82076c0.22657,0.47451 0.66259,0.70534 1.3081,0.69252c0.60275,0 1.11145,-0.24794 1.52612,-0.74382c0.34626,-0.43176 0.59848,-1.01954 0.75665,-1.76336c0.24367,-1.14138 0.10045,-1.90016 -0.42962,-2.27635c-0.18382,-0.13252 -0.45527,-0.20092 -0.81435,-0.20519c-0.35909,-0.00427 -0.67756,0.05771 -0.95542,0.18595c-0.27359,0.12397 -0.50871,0.29069 -0.70534,0.50015zM421.44942,279.25071c0.0684,-0.32061 0.21802,-0.55145 0.44886,-0.69252c0.23084,-0.14534 0.41894,-0.21802 0.56428,-0.21802c0.14962,0 0.27572,0.01068 0.37832,0.03206c0.10687,0.02137 0.19664,0.07909 0.26931,0.17313c0.19237,0.14107 0.25435,0.37619 0.18595,0.70534l-1.94291,9.13102c-0.06412,0.30352 -0.21375,0.53007 -0.44886,0.6797c-0.23084,0.14962 -0.45954,0.22443 -0.68611,0.22443c-0.23084,0 -0.42321,-0.07694 -0.5771,-0.23084c-0.1539,-0.1539 -0.19878,-0.37832 -0.13466,-0.67329zM427.51318,284.24584c0.26931,0 0.42107,0 0.45527,0l0.0513,-0.24367c0.16244,-0.75237 -0.19023,-1.12855 -1.05802,-1.12855c-0.44886,0 -0.77588,0.03634 -0.98107,0.10901c-0.41465,0.14107 -0.73099,0.27145 -0.94901,0.39114c-0.21802,0.11542 -0.41679,0.17313 -0.59633,0.17313c-0.17527,0 -0.32702,-0.0684 -0.45527,-0.20519c-0.12825,-0.13679 -0.16886,-0.31847 -0.12183,-0.54504c0.04275,-0.20519 0.17527,-0.38901 0.39756,-0.55145c0.79084,-0.6284 1.81039,-0.9426 3.05863,-0.9426c1.48337,0 2.33191,0.51725 2.54566,1.55176c0.06412,0.35909 0.04916,0.76733 -0.04489,1.22473l-0.96825,4.36032c-0.05985,0.27359 -0.19878,0.48305 -0.41679,0.6284c-0.21802,0.14534 -0.43176,0.21802 -0.64122,0.21802c-0.20946,0 -0.39756,-0.06199 -0.56428,-0.18595c-0.16244,-0.12825 -0.2116,-0.34412 -0.14749,-0.64764h0.19237c-0.13252,0.40184 -0.66259,0.6968 -1.59023,0.88489c-0.27359,0.0684 -0.5771,0.1026 -0.91053,0.1026c-0.33344,0 -0.65832,-0.0513 -0.97466,-0.1539c-0.31206,-0.09832 -0.57496,-0.25649 -0.78871,-0.47451c-0.45313,-0.4574 -0.59633,-1.07298 -0.42962,-1.84673c0.38473,-1.81252 2.03054,-2.71878 4.93742,-2.71878zM427.7312,285.73989c-0.02565,0.0513 -0.17313,0.07694 -0.44245,0.07694c-0.26931,0 -0.53863,0.00427 -0.80794,0.01283c-0.26504,0.00427 -0.51512,0.03206 -0.75023,0.08336c-0.23511,0.04702 -0.44886,0.11969 -0.64122,0.21802c-0.35481,0.16671 -0.58138,0.4403 -0.6797,0.82076c-0.05557,0.27786 0.01496,0.49802 0.2116,0.66046c0.16244,0.16244 0.43817,0.24794 0.82718,0.25649c0.47878,0 0.92336,-0.15176 1.33374,-0.45527c0.36763,-0.28642 0.63267,-0.73314 0.79512,-1.34015zM437.17762,288.4202c-0.06412,0.29496 -0.21802,0.51298 -0.46168,0.65405c-0.23939,0.14107 -0.43176,0.2116 -0.5771,0.2116c-0.14107,0 -0.27145,-0.01496 -0.39114,-0.04489c-0.11542,-0.0342 -0.20092,-0.09832 -0.25649,-0.19237c-0.17099,-0.13679 -0.22657,-0.34626 -0.16671,-0.6284h0.19878c-0.14107,0.42748 -0.68611,0.73314 -1.63512,0.91695c-0.28642,0.0684 -0.59206,0.1026 -0.91695,0.1026c-0.32061,0 -0.64764,-0.05771 -0.98107,-0.17313c-0.33344,-0.11969 -0.60275,-0.30993 -0.80794,-0.57069c-0.4574,-0.53863 -0.57282,-1.33588 -0.34626,-2.39176l0.84,-3.96277c0.05985,-0.27786 0.19878,-0.49802 0.41679,-0.66046c0.21802,-0.16244 0.44458,-0.24367 0.6797,-0.24367c0.23511,0 0.42748,0.08123 0.5771,0.24367c0.14962,0.16244 0.19451,0.3826 0.13466,0.66046l-0.85924,4.05895c-0.12397,0.58138 -0.10474,0.97039 0.05771,1.16703c0.17099,0.20092 0.48733,0.30137 0.94901,0.30137c0.78657,0 1.39359,-0.3142 1.82108,-0.9426c0.16244,-0.22229 0.28,-0.47664 0.35268,-0.76306l0.80794,-3.82169c0.05985,-0.28642 0.20519,-0.50871 0.43603,-0.66688c0.23511,-0.15817 0.47023,-0.23726 0.70534,-0.23726c0.23511,0 0.42748,0.08123 0.5771,0.24367c0.14962,0.16244 0.19451,0.3826 0.13466,0.66046zM443.92751,288.4202c-0.51298,0.6797 -1.37008,1.01954 -2.57131,1.01954c-1.09863,0 -1.86596,-0.4403 -2.30199,-1.32092c-0.35481,-0.76519 -0.41894,-1.68428 -0.19237,-2.75726c0.38901,-1.82108 1.27176,-3.05436 2.64825,-3.69986c0.47451,-0.23939 0.92336,-0.35909 1.34657,-0.35909c0.42748,0 0.77374,0.02565 1.03878,0.07694c0.26931,0.04702 0.51725,0.14107 0.74382,0.28213c0.47451,0.26504 0.67756,0.44886 0.60916,0.55145l0.50656,-3.00093c0.06412,-0.30779 0.21375,-0.53007 0.44886,-0.66688c0.23511,-0.13679 0.46168,-0.20519 0.6797,-0.20519c0.23084,0 0.42321,0.07053 0.5771,0.2116c0.15817,0.13679 0.20519,0.35695 0.14107,0.66046l-1.95574,9.20797c-0.06412,0.29069 -0.2116,0.50871 -0.44245,0.65405c-0.23084,0.14107 -0.42321,0.2116 -0.5771,0.2116c-0.14962,0 -0.28,-0.01496 -0.39114,-0.04489c-0.10687,-0.0342 -0.19451,-0.09618 -0.2629,-0.18595c-0.17527,-0.14107 -0.23298,-0.35268 -0.17313,-0.63481zM441.91407,287.86874c1.3081,0 2.1481,-0.8742 2.52001,-2.6226c0.23939,-1.12855 0.07267,-1.85741 -0.50015,-2.18657c-0.21375,-0.12397 -0.49374,-0.18595 -0.84,-0.18595c-0.34198,0 -0.63481,0.06412 -0.87848,0.19237c-0.24367,0.12397 -0.46168,0.2971 -0.65405,0.51939c-0.37191,0.43603 -0.63054,0.99603 -0.77588,1.68c-0.21802,1.02595 -0.1432,1.77192 0.22443,2.23787c0.18382,0.24367 0.48519,0.3655 0.90412,0.3655zM451.02329,279.28276c-0.0684,0.30352 -0.22657,0.54931 -0.47451,0.73741c-0.24367,0.18809 -0.53436,0.28213 -0.87207,0.28213c-0.33771,0 -0.59206,-0.09191 -0.76306,-0.27572c-0.17099,-0.18809 -0.22229,-0.43603 -0.1539,-0.74382c0.05557,-0.27359 0.20733,-0.50443 0.45527,-0.69252c0.25221,-0.19237 0.55145,-0.28855 0.89772,-0.28855c0.34626,0 0.59848,0.09618 0.75665,0.28855c0.15817,0.19237 0.20946,0.42321 0.1539,0.69252zM448.33016,282.37987c0.05985,-0.29069 0.20519,-0.51939 0.43603,-0.68611c0.23084,-0.17099 0.43176,-0.25649 0.60275,-0.25649c0.17099,0 0.30137,0.02565 0.39114,0.07694c0.09404,0.0513 0.17099,0.11115 0.23084,0.17954c0.18809,0.14534 0.25008,0.37405 0.18595,0.68611l-1.27604,6.00185c-0.06412,0.30352 -0.21375,0.53007 -0.44886,0.6797c-0.23084,0.14962 -0.45954,0.22443 -0.68611,0.22443c-0.23084,0 -0.42321,-0.07694 -0.5771,-0.23084c-0.1539,-0.1539 -0.19878,-0.37832 -0.13466,-0.67329zM451.73926,282.32217c0.05557,-0.26931 0.19878,-0.48305 0.42962,-0.64122c0.23084,-0.16244 0.45099,-0.24367 0.66046,-0.24367c0.42321,0 0.65832,0.14962 0.70534,0.44886c0.04702,0.29924 -0.10901,0.66473 -0.4681,1.0965c0.0855,-0.53436 0.44886,-0.95969 1.09008,-1.27604c0.55145,-0.26931 1.06657,-0.40397 1.54535,-0.40397c0.48305,0 0.88275,0.06199 1.19909,0.18595c0.31634,0.11969 0.58992,0.30779 0.82076,0.56428c0.46168,0.54718 0.58138,1.33588 0.35909,2.36612l-0.84641,4.00123c-0.06412,0.29496 -0.21802,0.51298 -0.46168,0.65405c-0.23939,0.14107 -0.46168,0.2116 -0.66688,0.2116c-0.23511,0 -0.42962,-0.07694 -0.58351,-0.23084c-0.1539,-0.1539 -0.20092,-0.3655 -0.14107,-0.63481l0.86565,-4.07819c0.10687,-0.49588 0.05771,-0.86779 -0.14749,-1.11573c-0.18809,-0.23511 -0.46168,-0.35268 -0.82076,-0.35268c-0.52153,0 -0.99603,0.14749 -1.42352,0.44245c-0.41038,0.30779 -0.68825,0.80153 -0.83359,1.48123l-0.76947,3.62291c-0.06412,0.29496 -0.21375,0.51298 -0.44886,0.65405c-0.23084,0.14107 -0.4574,0.2116 -0.6797,0.2116c-0.23939,0 -0.42748,-0.07909 -0.56428,-0.23726c-0.13252,-0.15817 -0.17099,-0.36763 -0.11542,-0.6284zM463.14444,282.88644c-1.18412,0 -1.95146,0.82504 -2.30199,2.47513c-0.16671,0.79512 -0.10474,1.41283 0.18595,1.85314c0.23511,0.36763 0.60275,0.55573 1.10291,0.56428c0.51298,0 0.99176,-0.19664 1.43634,-0.58992c0.48305,-0.42748 0.80581,-1.02382 0.96825,-1.78901c0.24367,-1.14993 0.05985,-1.9194 -0.55145,-2.3084c-0.19664,-0.13679 -0.47664,-0.20519 -0.84,-0.20519zM463.18292,281.30262c1.36795,0 2.10108,0.32061 2.19939,0.96184l-0.13466,-0.03206c0.09404,-0.24794 0.23726,-0.44245 0.42962,-0.58351c0.19237,-0.14107 0.3997,-0.2116 0.62199,-0.2116c0.22657,0 0.41252,0.08123 0.55787,0.24367c0.14962,0.16244 0.19664,0.37619 0.14107,0.64122l-1.44275,6.77773c-0.23084,1.09008 -0.76092,1.9087 -1.59023,2.45589c-0.73099,0.50015 -1.67146,0.75023 -2.82138,0.75023c-1.02595,0 -1.77192,-0.18595 -2.23787,-0.55787c-0.39756,-0.34198 -0.56428,-0.66046 -0.50015,-0.95542c0.04702,-0.21802 0.16031,-0.40184 0.33985,-0.55145c0.17954,-0.14534 0.36336,-0.21802 0.55145,-0.21802c0.18809,0 0.33344,0.04061 0.43603,0.12183c0.1026,0.0855 0.2116,0.15603 0.32702,0.2116c0.11542,0.05557 0.23298,0.10687 0.35268,0.1539c0.30352,0.11542 0.63054,0.17313 0.98107,0.17313c0.35053,0 0.65405,-0.02778 0.91053,-0.08336c0.26076,-0.05557 0.49161,-0.14749 0.69252,-0.27572c0.37191,-0.21375 0.61771,-0.59848 0.73741,-1.1542l0.14749,-0.4681c-0.03848,0.10687 -0.53007,0.27359 -1.47481,0.50015c-0.29496,0.05557 -0.57282,0.08336 -0.83359,0.08336c-1.1542,0 -1.95574,-0.40184 -2.40459,-1.2055c-0.41465,-0.70107 -0.50656,-1.59451 -0.27572,-2.68032c0.24367,-1.14565 0.72245,-2.08611 1.43634,-2.82138c0.79084,-0.85069 1.74199,-1.27604 2.85344,-1.27604z" fill="#ffffff" stroke="none" stroke-width="1" stroke-linecap="square" stroke-linejoin="miter"/></g></g></svg>