<svg version="1.1" xmlns="http://www.w3.org/2000/svg" xmlns:xlink="http://www.w3.org/1999/xlink" width="170" height="185" viewBox="0,0,170,185"><g transform="translate(-158.55707,-83.66847)"><g data-paper-data="{&quot;isPaintingLayer&quot;:true}" fill-rule="nonzero" stroke-width="0" stroke-linecap="butt" stroke-linejoin="miter" stroke-miterlimit="10" stroke-dasharray="" stroke-dashoffset="0" style="mix-blend-mode: normal"><g data-paper-data="{&quot;origPos&quot;:null}" fill="#b82832" stroke="none"><path d="M189.00548,237.42067l0.32341,-14.30272l99.31646,-0.21205l-0.22314,14.51478z" data-paper-data="{&quot;origPos&quot;:null}"/><path d="M273.23632,241.1102c-0.92187,-0.30773 -0.78357,-0.90872 -0.78357,-0.90872v-7.01363h16.08182v6.98692c0,0 0.23183,0.59755 -0.7516,0.92594c-0.98344,0.32839 -2.82891,0.26965 -2.82891,0.26965h-8.99968c0,0 -1.79618,0.04758 -2.71806,-0.26015z" data-paper-data="{&quot;origPos&quot;:null}"/><path d="M245.14263,241.23524c-0.92187,-0.30773 -0.78356,-0.90872 -0.78356,-0.90872v-7.01363h16.08183v6.98692c0,0 0.23183,0.59755 -0.75161,0.92594c-0.98344,0.32839 -2.82891,0.26965 -2.82891,0.26965h-8.99968c0,0 -1.79619,0.04758 -2.71806,-0.26016z" data-paper-data="{&quot;origPos&quot;:null}"/><path d="M216.82873,241.27949c-0.92187,-0.30773 -0.78356,-0.90872 -0.78356,-0.90872v-7.01363h16.08182v6.98692c0,0 0.23184,0.59755 -0.7516,0.92594c-0.98344,0.32839 -2.82891,0.26965 -2.82891,0.26965h-8.99968c0,0 -1.79619,0.04758 -2.71806,-0.26015z" data-paper-data="{&quot;origPos&quot;:null}"/><path d="M189.75297,241.64691c-0.90795,-0.30773 -0.77174,-0.90872 -0.77174,-0.90872v-7.01363h15.83896v6.98692c0,0 0.22833,0.59756 -0.74026,0.92594c-0.96859,0.32839 -2.78619,0.26965 -2.78619,0.26965h-8.86377c0,0 -1.76906,0.04758 -2.67701,-0.26016z" data-paper-data="{&quot;origPos&quot;:null}"/></g><path d="M189.02238,232.37737l0.37105,-25.56528l99.70454,0.04372l0.13371,16.12643c0,0 -0.21618,0.50054 -0.70141,0.65365c-0.48523,0.15309 -2.02747,0.21725 -2.02747,0.21725l-68.59116,-0.04943c0,0 -1.04765,-0.04312 -1.61624,0.14523c-0.56859,0.18835 -0.44744,0.53838 -0.44744,0.53838l-0.09121,2.06579c0,0 -0.20692,0.40606 0.43627,0.61008c0.64319,0.20402 1.94799,0.14621 1.94799,0.14621l67.47031,-0.01282c0,0 1.56572,0.05421 2.11039,0.20941c0.54467,0.15519 0.80241,0.6488 0.80241,0.6488l-0.04291,4.18604z" data-paper-data="{&quot;origPos&quot;:null}" fill="#fe404f" stroke="#000000"/><path d="M189.35517,212.13782v-4.20547c0,0 0.03818,-1.71183 2.77859,-2.49662c2.74041,-0.78479 7.77553,-0.72869 7.77553,-0.72869h76.93528c0,0 6.44492,-0.01718 9.32105,0.94046c2.87613,0.95763 2.83257,2.94113 2.83257,2.94113v3.5492z" data-paper-data="{&quot;origPos&quot;:null}" fill="#b82832" stroke="none"/><path d="M209.5218,200.8384c1.14174,-0.3876 3.49827,-0.33754 3.49827,-0.33754l41.268,-0.07634c0,0 5.99622,-0.01602 8.67829,0.877c2.68207,0.89302 2.6553,2.73349 2.6553,2.73349v3.31892h-57.30603l0.17562,-5.31667c0,0 -0.11119,-0.81126 1.03055,-1.19886z" data-paper-data="{&quot;origPos&quot;:null}" fill="#b82832" stroke="none"/><g data-paper-data="{&quot;origPos&quot;:null}" fill="#ffffff" stroke="none"><path d="M287.79317,223.90983c0,0 1.29537,0.01177 1.60945,0.41592c0.31408,0.40413 -0.64215,0.82876 -0.64215,0.82876l-7.74481,4.14591c0,0 -0.90557,0.62295 -1.94471,0.5832c-1.03914,-0.03975 -1.8741,-0.72927 -1.8741,-0.72927l-9.18059,-5.2445z" data-paper-data="{&quot;origPos&quot;:null,&quot;index&quot;:null}"/><path d="M270.39317,223.90983c0,0 1.29538,0.01177 1.60945,0.41592c0.31408,0.40413 -0.64216,0.82876 -0.64216,0.82876l-7.74481,4.14591c0,0 -0.90557,0.62295 -1.94471,0.5832c-1.03914,-0.03975 -1.8741,-0.72927 -1.8741,-0.72927l-9.18059,-5.2445z" data-paper-data="{&quot;origPos&quot;:null,&quot;index&quot;:null}"/></g><path d="M229.35072,216.71687c-1.79194,-0.57475 -1.4572,-1.71616 -1.4572,-1.71616l0.16223,-9.3231c0,0 0.04546,-1.33988 2.39299,-1.76743c2.34753,-0.42755 6.73526,0.19574 6.73526,0.19574l49.00367,10.12826c0,0 3.99774,0.83479 2.48058,2.05433c-1.37726,1.10708 -6.68494,0.9572 -6.68494,0.9572l-47.25865,-0.05397c0,0 -3.582,0.09988 -5.37394,-0.47487z" data-paper-data="{&quot;origPos&quot;:null}" fill="#fdf883" stroke="none"/><path d="M244.78775,210.04377c0,-1.76491 4.30926,-3.19566 9.625,-3.19566c5.31574,0 9.625,1.43075 9.625,3.19566c0,1.76491 -4.30926,3.19566 -9.625,3.19566c-5.31574,0 -9.625,-1.43075 -9.625,-3.19566z" data-paper-data="{&quot;origPos&quot;:null}" fill="#f02333" stroke="none"/><path d="M158.55707,268.66847v-185h170v185z" fill="none" stroke="none"/></g></g></svg>