<svg version="1.1" xmlns="http://www.w3.org/2000/svg" xmlns:xlink="http://www.w3.org/1999/xlink" width="717.22372" height="474.39324" viewBox="0,0,717.22372,474.39324"><defs><linearGradient x1="386.6104" y1="92.64822" x2="386.6104" y2="121.71536" gradientUnits="userSpaceOnUse" id="color-1"><stop offset="0" stop-color="#ffe9d8"/><stop offset="1" stop-color="#f7cbd0"/></linearGradient><linearGradient x1="350.75886" y1="92.57348" x2="350.75886" y2="121.64063" gradientUnits="userSpaceOnUse" id="color-2"><stop offset="0" stop-color="#ffe9d8"/><stop offset="1" stop-color="#f7cbd0"/></linearGradient><linearGradient x1="314.02025" y1="92.49876" x2="314.02025" y2="121.56591" gradientUnits="userSpaceOnUse" id="color-3"><stop offset="0" stop-color="#ffe9d8"/><stop offset="1" stop-color="#f7cbd0"/></linearGradient><linearGradient x1="277.28162" y1="92.42402" x2="277.28162" y2="121.49118" gradientUnits="userSpaceOnUse" id="color-4"><stop offset="0" stop-color="#ffe9d8"/><stop offset="1" stop-color="#f7cbd0"/></linearGradient><linearGradient x1="312.4213" y1="97.09748" x2="312.4213" y2="128.33948" gradientUnits="userSpaceOnUse" id="color-5"><stop offset="0" stop-color="#fde3d6"/><stop offset="1" stop-color="#f7cbd0"/></linearGradient><linearGradient x1="410.46633" y1="104.0346" x2="410.46633" y2="134.19493" gradientUnits="userSpaceOnUse" id="color-6"><stop offset="0" stop-color="#fde0d6"/><stop offset="1" stop-color="#f7cbd0"/></linearGradient><linearGradient x1="254.00381" y1="103.20441" x2="254.00381" y2="133.36476" gradientUnits="userSpaceOnUse" id="color-7"><stop offset="0" stop-color="#fbdcd4"/><stop offset="1" stop-color="#f7cbd0"/></linearGradient><linearGradient x1="447.00676" y1="129.62701" x2="447.00676" y2="160.03704" gradientUnits="userSpaceOnUse" id="color-8"><stop offset="0" stop-color="#ffe9d8"/><stop offset="1" stop-color="#f7cbd0"/></linearGradient><linearGradient x1="409.49892" y1="129.54882" x2="409.49892" y2="159.95884" gradientUnits="userSpaceOnUse" id="color-9"><stop offset="0" stop-color="#ffe9d8"/><stop offset="1" stop-color="#f7cbd0"/></linearGradient><linearGradient x1="371.0631" y1="129.47065" x2="371.0631" y2="159.88067" gradientUnits="userSpaceOnUse" id="color-10"><stop offset="0" stop-color="#ffe9d8"/><stop offset="1" stop-color="#f7cbd0"/></linearGradient><linearGradient x1="332.62718" y1="129.39247" x2="332.62718" y2="159.80247" gradientUnits="userSpaceOnUse" id="color-11"><stop offset="0" stop-color="#ffe9d8"/><stop offset="1" stop-color="#f7cbd0"/></linearGradient><linearGradient x1="295.11939" y1="129.31426" x2="295.11939" y2="159.72429" gradientUnits="userSpaceOnUse" id="color-12"><stop offset="0" stop-color="#ffe9d8"/><stop offset="1" stop-color="#f7cbd0"/></linearGradient><linearGradient x1="369.39028" y1="134.28183" x2="369.39028" y2="166.96717" gradientUnits="userSpaceOnUse" id="color-13"><stop offset="0" stop-color="#fde3d6"/><stop offset="1" stop-color="#f7cbd0"/></linearGradient><linearGradient x1="472.54772" y1="141.01633" x2="472.54772" y2="172.57002" gradientUnits="userSpaceOnUse" id="color-14"><stop offset="0" stop-color="#fde0d6"/><stop offset="1" stop-color="#f7cbd0"/></linearGradient><linearGradient x1="271.00681" y1="140.1478" x2="271.00681" y2="171.70151" gradientUnits="userSpaceOnUse" id="color-15"><stop offset="0" stop-color="#fbdcd4"/><stop offset="1" stop-color="#f7cbd0"/></linearGradient><linearGradient x1="188.95092" y1="262.98538" x2="188.95092" y2="292.05254" gradientUnits="userSpaceOnUse" id="color-16"><stop offset="0" stop-color="#ffe9d8"/><stop offset="1" stop-color="#f7cbd0"/></linearGradient><linearGradient x1="152.21231" y1="262.91066" x2="152.21231" y2="291.97781" gradientUnits="userSpaceOnUse" id="color-17"><stop offset="0" stop-color="#ffe9d8"/><stop offset="1" stop-color="#f7cbd0"/></linearGradient><linearGradient x1="116.36076" y1="262.83592" x2="116.36076" y2="291.90308" gradientUnits="userSpaceOnUse" id="color-18"><stop offset="0" stop-color="#ffe9d8"/><stop offset="1" stop-color="#f7cbd0"/></linearGradient><linearGradient x1="78.0232" y1="267.35992" x2="78.0232" y2="298.60193" gradientUnits="userSpaceOnUse" id="color-19"><stop offset="0" stop-color="#fde3d6"/><stop offset="1" stop-color="#f7cbd0"/></linearGradient><linearGradient x1="209.65338" y1="274.80246" x2="209.65338" y2="304.96279" gradientUnits="userSpaceOnUse" id="color-20"><stop offset="0" stop-color="#fde0d6"/><stop offset="1" stop-color="#f7cbd0"/></linearGradient><linearGradient x1="97.77252" y1="274.10218" x2="97.77252" y2="304.26253" gradientUnits="userSpaceOnUse" id="color-21"><stop offset="0" stop-color="#fbdcd4"/><stop offset="1" stop-color="#f7cbd0"/></linearGradient><linearGradient x1="249.31034" y1="300.19255" x2="249.31034" y2="330.60256" gradientUnits="userSpaceOnUse" id="color-22"><stop offset="0" stop-color="#ffe9d8"/><stop offset="1" stop-color="#f7cbd0"/></linearGradient><linearGradient x1="211.80255" y1="300.11434" x2="211.80255" y2="330.52435" gradientUnits="userSpaceOnUse" id="color-23"><stop offset="0" stop-color="#ffe9d8"/><stop offset="1" stop-color="#f7cbd0"/></linearGradient><linearGradient x1="173.36669" y1="300.03618" x2="173.36669" y2="330.44618" gradientUnits="userSpaceOnUse" id="color-24"><stop offset="0" stop-color="#ffe9d8"/><stop offset="1" stop-color="#f7cbd0"/></linearGradient><linearGradient x1="134.93079" y1="299.958" x2="134.93079" y2="330.368" gradientUnits="userSpaceOnUse" id="color-25"><stop offset="0" stop-color="#ffe9d8"/><stop offset="1" stop-color="#f7cbd0"/></linearGradient><linearGradient x1="97.423" y1="299.8798" x2="97.423" y2="330.28982" gradientUnits="userSpaceOnUse" id="color-26"><stop offset="0" stop-color="#ffe9d8"/><stop offset="1" stop-color="#f7cbd0"/></linearGradient><linearGradient x1="58.5231" y1="300.26563" x2="58.5231" y2="330.67566" gradientUnits="userSpaceOnUse" id="color-27"><stop offset="0" stop-color="#ffe9d8"/><stop offset="1" stop-color="#f7cbd0"/></linearGradient><linearGradient x1="171.69387" y1="304.84736" x2="171.69387" y2="337.53269" gradientUnits="userSpaceOnUse" id="color-28"><stop offset="0" stop-color="#fde3d6"/><stop offset="1" stop-color="#f7cbd0"/></linearGradient><linearGradient x1="274.85129" y1="311.58185" x2="274.85129" y2="343.13555" gradientUnits="userSpaceOnUse" id="color-29"><stop offset="0" stop-color="#fde0d6"/><stop offset="1" stop-color="#f7cbd0"/></linearGradient><linearGradient x1="35.44551" y1="310.71334" x2="35.44551" y2="342.26703" gradientUnits="userSpaceOnUse" id="color-30"><stop offset="0" stop-color="#fbdcd4"/><stop offset="1" stop-color="#f7cbd0"/></linearGradient><linearGradient x1="58.66471" y1="301.40173" x2="58.66471" y2="330.46889" gradientUnits="userSpaceOnUse" id="color-31"><stop offset="0" stop-color="#ffe9d8"/><stop offset="1" stop-color="#f7cbd0"/></linearGradient><linearGradient x1="266.40064" y1="337.35763" x2="266.40064" y2="367.76764" gradientUnits="userSpaceOnUse" id="color-32"><stop offset="0" stop-color="#ffe9d8"/><stop offset="1" stop-color="#f7cbd0"/></linearGradient><linearGradient x1="227.9648" y1="337.27947" x2="227.9648" y2="367.68947" gradientUnits="userSpaceOnUse" id="color-33"><stop offset="0" stop-color="#ffe9d8"/><stop offset="1" stop-color="#f7cbd0"/></linearGradient><linearGradient x1="189.52891" y1="337.20129" x2="189.52891" y2="367.61129" gradientUnits="userSpaceOnUse" id="color-34"><stop offset="0" stop-color="#ffe9d8"/><stop offset="1" stop-color="#f7cbd0"/></linearGradient><linearGradient x1="152.02112" y1="337.12309" x2="152.02112" y2="367.53311" gradientUnits="userSpaceOnUse" id="color-35"><stop offset="0" stop-color="#ffe9d8"/><stop offset="1" stop-color="#f7cbd0"/></linearGradient><linearGradient x1="226.29198" y1="342.09065" x2="226.29198" y2="374.77598" gradientUnits="userSpaceOnUse" id="color-36"><stop offset="0" stop-color="#fde3d6"/><stop offset="1" stop-color="#f7cbd0"/></linearGradient><linearGradient x1="288.9494" y1="348.82514" x2="288.9494" y2="380.37884" gradientUnits="userSpaceOnUse" id="color-37"><stop offset="0" stop-color="#fde0d6"/><stop offset="1" stop-color="#f7cbd0"/></linearGradient><linearGradient x1="131.04363" y1="347.95663" x2="131.04363" y2="379.51032" gradientUnits="userSpaceOnUse" id="color-38"><stop offset="0" stop-color="#fbdcd4"/><stop offset="1" stop-color="#f7cbd0"/></linearGradient></defs><g transform="translate(120.44238,26.02298)"><g data-paper-data="{&quot;isPaintingLayer&quot;:true}" stroke-miterlimit="10" stroke-dasharray="" stroke-dashoffset="0" style="mix-blend-mode: normal"><path d="M235.27739,244.65512l-11.99234,30.68164l-321.01227,0.32705v-33.15746z" data-paper-data="{&quot;index&quot;:null}" fill="#4926f1" fill-rule="nonzero" stroke="none" stroke-width="0" stroke-linecap="butt" stroke-linejoin="miter"/><path d="M-94.51805,242.14356h322.49744" data-paper-data="{&quot;index&quot;:null}" fill="none" fill-rule="nonzero" stroke="#3eb5fa" stroke-width="7" stroke-linecap="round" stroke-linejoin="miter"/><path d="M-97.34052,433.43119l-0.29408,-162.30527l246.95856,-0.40362l65.22817,-8.07501l0.22865,-247.22573l187.75965,0.44771l134.9887,106.81206l-2.25302,310.12733z" data-paper-data="{&quot;index&quot;:null}" fill="#4000af" fill-rule="nonzero" stroke="none" stroke-width="0" stroke-linecap="butt" stroke-linejoin="miter"/><path d="M402.83835,16.6829l-0.2,27.7979h-187.819v-27.95262z" data-paper-data="{&quot;index&quot;:null}" fill="#4926f1" fill-rule="nonzero" stroke="none" stroke-width="0" stroke-linecap="butt" stroke-linejoin="miter"/><path d="M247.24031,214.95807h68.02236" data-paper-data="{&quot;index&quot;:null}" fill="none" fill-rule="nonzero" stroke="#3d00a3" stroke-width="30" stroke-linecap="round" stroke-linejoin="miter"/><path d="M338.63501,245.25576h-60.86188" data-paper-data="{&quot;index&quot;:null}" fill="none" fill-rule="nonzero" stroke="#39009c" stroke-width="30" stroke-linecap="round" stroke-linejoin="miter"/><path d="M-120.44238,448.37026v-474.39324h717.22372l-1.38193,474.39324z" fill="none" fill-rule="nonzero" stroke="none" stroke-width="NaN" stroke-linecap="butt" stroke-linejoin="miter"/><path d="M281.81047,31.73532h-34.16213" data-paper-data="{&quot;index&quot;:null}" fill="none" fill-rule="nonzero" stroke="#502bff" stroke-width="25" stroke-linecap="round" stroke-linejoin="miter"/><path d="M76.91435,263.29858h129.93143" data-paper-data="{&quot;index&quot;:null}" fill="none" fill-rule="nonzero" stroke="#4926f1" stroke-width="15" stroke-linecap="round" stroke-linejoin="miter"/><path d="M36.28965,286.77857h-50.74607" data-paper-data="{&quot;index&quot;:null}" fill="none" fill-rule="nonzero" stroke="#3d00a3" stroke-width="30" stroke-linecap="round" stroke-linejoin="miter"/><path d="M4.29924,258.27363h-34.16213" data-paper-data="{&quot;index&quot;:null}" fill="none" fill-rule="nonzero" stroke="#502bff" stroke-width="25" stroke-linecap="round" stroke-linejoin="miter"/><g data-paper-data="{&quot;index&quot;:null}" fill-rule="nonzero" stroke-linejoin="miter"><g data-paper-data="{&quot;origPos&quot;:null}" stroke="none" stroke-linecap="butt"><path d="M362.65954,114.82491c0,-12.24786 10.72317,-22.17671 23.95085,-22.17671c13.22769,0 23.95085,9.92885 23.95085,22.17671c0,12.24787 -20.84611,4.43534 -20.84611,4.43534c0,0 -27.05558,7.81252 -27.05558,-4.43534z" data-paper-data="{&quot;origPos&quot;:null}" fill="url(#color-1)" stroke-width="NaN"/><path d="M326.80797,114.75019c0,-12.24786 10.72317,-22.17671 23.95085,-22.17671c13.22769,0 23.95085,9.92885 23.95085,22.17671c0,12.24787 -20.84611,4.43534 -20.84611,4.43534c0,0 -27.05558,7.81252 -27.05558,-4.43534z" data-paper-data="{&quot;origPos&quot;:null}" fill="url(#color-2)" stroke-width="NaN"/><path d="M290.06939,114.67546c0,-12.24786 10.72317,-22.17671 23.95085,-22.17671c13.2277,0 23.95085,9.92885 23.95085,22.17671c0,12.24787 -20.84611,4.43534 -20.84611,4.43534c0,0 -27.05558,7.81252 -27.05558,-4.43534z" data-paper-data="{&quot;origPos&quot;:null}" fill="url(#color-3)" stroke-width="NaN"/><path d="M253.33078,114.60073c0,-12.24786 10.72317,-22.17671 23.95085,-22.17671c13.2277,0 23.95085,9.92885 23.95085,22.17671c0,12.24786 -20.84611,4.43533 -20.84611,4.43533c0,0 -27.05558,7.81253 -27.05558,-4.43533z" data-paper-data="{&quot;origPos&quot;:null}" fill="url(#color-4)" stroke-width="NaN"/><path d="M245.88404,128.33948l20.22687,-30.74431l134.02408,1.46022l8.76134,30.25757z" data-paper-data="{&quot;origPos&quot;:null}" fill="url(#color-5)" stroke-width="0"/><path d="M394.94266,119.11476c0,-8.32855 6.9502,-15.08016 15.5237,-15.08016c8.5735,0 15.5237,6.75161 15.5237,15.08016c0,8.32854 -4.64605,16.4396 -13.21955,16.4396c-8.5735,0 -17.82784,-8.11105 -17.82784,-16.4396z" data-paper-data="{&quot;origPos&quot;:null}" fill="url(#color-6)" stroke-width="0"/><path d="M254.00383,103.20445c3.71778,0 5.90243,0.65935 8.96486,2.76731c4.66595,3.21169 6.55884,6.64839 6.55884,12.31285c0,8.32855 -9.2474,16.62852 -17.8209,16.62852c-8.5735,0 -13.2265,-8.29997 -13.2265,-16.62852c0,-8.32854 6.9502,-15.08016 15.5237,-15.08016z" data-paper-data="{&quot;origPos&quot;:null}" fill="url(#color-7)" stroke-width="0"/></g><path d="M251.52683,131.73271c0,0 -0.03346,0 1.97146,0c6.01476,0 24.3493,0 39.9341,0c48.91908,0 119.85778,0 119.85778,0" data-paper-data="{&quot;origPos&quot;:null}" fill="#ffc3d5" stroke="#ffc3d5" stroke-width="10" stroke-linecap="round"/><path d="M347.69923,127.93893c5.16868,-1.6283 6.93222,-1.48741 10.36417,-3.39753c4.6158,-3.00757 9.67257,-2.34864 9.67257,-2.34864c4.85924,0 8.14324,-0.09767 12.8288,2.71514c2.12931,1.27826 4.81479,1.43009 7.80644,2.82298c0.29545,0.13756 -6.44486,2.90845 -6.44486,3.23435c0,5.87785 -6.9113,0.28571 -14.74843,0.28571c-7.83713,0 -23.97789,-0.78138 -19.47868,-3.31201z" data-paper-data="{&quot;origPos&quot;:null}" fill="#ffc3d5" stroke="none" stroke-width="0" stroke-linecap="butt"/><path d="M311.7867,127.611c5.16868,-1.6283 6.93222,-1.48741 10.36417,-3.39753c4.6158,-3.00757 9.67257,-2.34864 9.67257,-2.34864c4.85924,0 8.14324,-0.09767 12.8288,2.71514c2.1293,1.27826 4.81478,1.43009 7.80643,2.82298c0.29544,0.13756 -6.44485,2.90845 -6.44485,3.23435c0,5.87785 -6.9113,0.28571 -14.74843,0.28571c-7.83713,0 -23.97789,-0.78138 -19.47868,-3.31201z" data-paper-data="{&quot;origPos&quot;:null}" fill="#ffc3d5" stroke="none" stroke-width="0" stroke-linecap="butt"/><path d="M274.60541,127.3995c5.16868,-1.6283 6.93222,-1.4874 10.36417,-3.39752c4.6158,-3.00757 9.67257,-2.34864 9.67257,-2.34864c4.85924,0 8.14324,-0.09767 12.8288,2.71514c2.1293,1.27826 4.81478,1.43009 7.80643,2.82298c0.29544,0.13756 -6.44485,2.90845 -6.44485,3.23435c0,5.87785 -6.91131,0.28571 -14.74844,0.28571c-7.83712,0 -23.97788,-0.78138 -19.47867,-3.31201z" data-paper-data="{&quot;origPos&quot;:null}" fill="#ffc3d5" stroke="none" stroke-width="0" stroke-linecap="butt"/></g><g data-paper-data="{&quot;index&quot;:null}" fill-rule="nonzero" stroke-linejoin="miter"><g><g data-paper-data="{&quot;origPos&quot;:null}" stroke="none" stroke-linecap="butt"><path d="M447.00674,129.62701c13.83878,0 25.05733,10.38755 25.05733,23.20124c0,12.8137 -21.80916,4.64025 -21.80916,4.64025c0,0 -28.3055,8.17344 -28.3055,-4.64025c0,-12.81369 11.21855,-23.20124 25.05733,-23.20124z" data-paper-data="{&quot;origPos&quot;:null}" fill="url(#color-8)" stroke-width="NaN"/><path d="M409.49896,129.54882c13.83878,0 25.05733,10.38755 25.05733,23.20124c0,12.8137 -21.80916,4.64025 -21.80916,4.64025c0,0 -28.3055,8.17344 -28.3055,-4.64025c0,-12.81369 11.21855,-23.20124 25.05733,-23.20124z" data-paper-data="{&quot;origPos&quot;:null}" fill="url(#color-9)" stroke-width="NaN"/><path d="M371.06307,129.47065c13.83879,0 25.05733,10.38755 25.05733,23.20124c0,12.8137 -21.80916,4.64025 -21.80916,4.64025c0,0 -28.3055,8.17344 -28.3055,-4.64025c0,-12.81369 11.21855,-23.20124 25.05733,-23.20124z" data-paper-data="{&quot;origPos&quot;:null}" fill="url(#color-10)" stroke-width="NaN"/><path d="M332.62719,129.39243c13.83879,0 25.05733,10.38755 25.05733,23.20124c0,12.81369 -21.80916,4.64024 -21.80916,4.64024c0,0 -28.3055,8.17345 -28.3055,-4.64024c0,-12.81369 11.21855,-23.20124 25.05733,-23.20124z" data-paper-data="{&quot;origPos&quot;:null}" fill="url(#color-11)" stroke-width="NaN"/><path d="M295.11941,129.3143c13.83878,0 25.05733,10.38755 25.05733,23.20124c0,12.81369 -21.80916,4.64024 -21.80916,4.64024c0,0 -28.3055,8.17345 -28.3055,-4.64024c0,-12.81369 11.21855,-23.20124 25.05733,-23.20124z" data-paper-data="{&quot;origPos&quot;:null}" fill="url(#color-12)" stroke-width="NaN"/><path d="M270.85883,167.62553l8.55863,-30.84793l183.10537,-0.56471l7.75699,31.45946z" data-paper-data="{&quot;origPos&quot;:null}" fill="url(#color-13)" stroke-width="0"/><path d="M456.30681,156.79317c0,-8.71332 7.27129,-15.77684 16.24087,-15.77684c8.96959,0 16.24087,7.06352 16.24087,15.77684c0,8.71331 -4.51094,16.03718 -13.48052,16.03718c-8.96959,0 -19.00121,-7.32386 -19.00121,-16.03718z" data-paper-data="{&quot;origPos&quot;:null}" fill="url(#color-14)" stroke-width="0"/><path d="M271.00684,140.14783c8.9696,0 16.24087,7.06352 16.24087,15.77684c0,8.71331 -9.09366,17.83887 -18.06324,17.83887c-8.96959,0 -14.4185,-9.12555 -14.4185,-17.83887c0,-8.71331 7.27129,-15.77684 16.24087,-15.77684z" data-paper-data="{&quot;origPos&quot;:null}" fill="url(#color-15)" stroke-width="0"/></g><path d="M477.68785,170.39c0,0 -95.46007,0 -158.2303,0c-21.30801,0 -50.44,0 -51.59911,0" data-paper-data="{&quot;origPos&quot;:null}" fill="#ffc3d5" stroke="#ffc3d5" stroke-width="9" stroke-linecap="round"/><path d="M406.29798,166.54811c5.40746,-1.70353 7.25248,-1.55613 10.84298,-3.55449c4.82904,-3.14651 10.11942,-2.45714 10.11942,-2.45714c5.08372,0 8.51943,-0.10219 13.42146,2.84057c2.22768,1.33731 5.03722,1.49615 8.16708,2.95339c0.3091,0.14391 -6.7426,3.04281 -6.7426,3.38377c0,6.14939 -7.23059,0.29891 -15.42978,0.29891c-8.19919,0 -25.08562,-0.81748 -20.37856,-3.46502z" data-paper-data="{&quot;origPos&quot;:null}" fill="#ffc3d5" stroke="none" stroke-width="0" stroke-linecap="butt"/><path d="M368.72635,166.20503c5.40746,-1.70353 7.25248,-1.55613 10.84298,-3.55449c4.82904,-3.14651 10.11942,-2.45714 10.11942,-2.45714c5.08372,0 8.51943,-0.10219 13.42146,2.84057c2.22767,1.33731 5.03721,1.49615 8.16707,2.95339c0.30909,0.14391 -6.74259,3.04281 -6.74259,3.38377c0,6.14939 -7.23059,0.29891 -15.42978,0.29891c-8.19919,0 -25.08562,-0.81748 -20.37856,-3.46502z" data-paper-data="{&quot;origPos&quot;:null}" fill="#ffc3d5" stroke="none" stroke-width="0" stroke-linecap="butt"/><path d="M340.67036,162.42927c4.82904,-3.14651 10.11942,-2.45714 10.11942,-2.45714c5.08372,0 8.51943,-0.10219 13.42146,2.84057c2.22767,1.33731 5.03721,1.49615 8.16707,2.95339c0.30909,0.14391 -6.74259,3.04281 -6.74259,3.38377c0,6.14939 -7.2306,0.29891 -15.42979,0.29891c-8.19918,0 -25.08561,-0.81748 -20.37855,-3.46502c5.40746,-1.70353 7.25248,-1.55612 10.84298,-3.55448z" data-paper-data="{&quot;origPos&quot;:null}" fill="#ffc3d5" stroke="none" stroke-width="0" stroke-linecap="butt"/><path d="M294.25028,166.20503c5.40746,-1.70353 7.25248,-1.55613 10.84298,-3.55449c4.82904,-3.14651 10.11942,-2.45714 10.11942,-2.45714c5.08372,0 8.51943,-0.10219 13.42146,2.84057c2.22767,1.33731 5.03721,1.49615 8.16707,2.95339c0.3091,0.14391 -6.7426,3.04281 -6.7426,3.38377c0,6.14939 -7.23059,0.29891 -15.42978,0.29891c-8.19918,0 -25.08561,-0.81748 -20.37855,-3.46502z" data-paper-data="{&quot;origPos&quot;:null}" fill="#ffc3d5" stroke="none" stroke-width="0" stroke-linecap="butt"/></g><g data-paper-data="{&quot;origPos&quot;:null}"><g data-paper-data="{&quot;origPos&quot;:null}" fill="none" stroke="none" stroke-width="1" stroke-linecap="butt" font-family="sans-serif" font-weight="normal" font-size="12" text-anchor="start"/><path d="M276.42145,169.99544c16.57483,0 42.47096,0 42.47096,0" data-paper-data="{&quot;origPos&quot;:null}" fill="#ffc3d5" stroke="#ffc3d5" stroke-width="10" stroke-linecap="round"/></g></g><path d="M320.18109,59.57619h-50.8102" data-paper-data="{&quot;index&quot;:null}" fill="none" fill-rule="nonzero" stroke="#3d00a3" stroke-width="30" stroke-linecap="round" stroke-linejoin="miter"/><g data-paper-data="{&quot;index&quot;:null}" fill-rule="nonzero" stroke-linejoin="miter"><g data-paper-data="{&quot;origPos&quot;:null}" stroke="none" stroke-linecap="butt"><path d="M165.00004,285.1621c0,-12.24786 10.72317,-22.1767 23.95085,-22.1767c13.22769,0 23.95085,9.92884 23.95085,22.1767c0,12.24786 -20.84611,4.43534 -20.84611,4.43534c0,0 -27.05558,7.81252 -27.05558,-4.43534z" data-paper-data="{&quot;origPos&quot;:null}" fill="url(#color-16)" stroke-width="NaN"/><path d="M128.26144,285.08737c0,-12.24786 10.72317,-22.17671 23.95085,-22.17671c13.22769,0 23.95085,9.92885 23.95085,22.17671c0,12.24787 -20.84611,4.43534 -20.84611,4.43534c0,0 -27.05558,7.81252 -27.05558,-4.43534z" data-paper-data="{&quot;origPos&quot;:null}" fill="url(#color-17)" stroke-width="NaN"/><path d="M92.4099,285.01264c0,-12.24786 10.72317,-22.17671 23.95085,-22.17671c13.22769,0 23.95085,9.92885 23.95085,22.17671c0,12.24787 -20.84611,4.43534 -20.84611,4.43534c0,0 -27.05558,7.81252 -27.05558,-4.43534z" data-paper-data="{&quot;origPos&quot;:null}" fill="url(#color-18)" stroke-width="NaN"/><path d="M89.85011,299.39906l14.22687,-29.87477l93.29811,-1.66667v30.74431z" data-paper-data="{&quot;origPos&quot;:null}" fill="url(#color-19)" stroke-width="0"/><path d="M194.12967,289.88262c0,-8.32855 6.9502,-15.08016 15.5237,-15.08016c8.5735,0 15.5237,6.75161 15.5237,15.08016c0,8.32854 -5.46672,15.94632 -14.04022,15.94632c-8.5735,0 -17.00717,-7.61777 -17.00717,-15.94632z" data-paper-data="{&quot;origPos&quot;:null}" fill="url(#color-20)" stroke-width="0"/><path d="M97.77254,274.10221c3.71778,0 5.90243,0.65935 8.96486,2.76731c4.66595,3.21169 6.55884,6.64839 6.55884,12.31285c0,8.32855 -9.1921,16.63162 -17.7656,16.63162c-8.5735,0 -13.2818,-8.30307 -13.2818,-16.63162c0,-8.32854 6.9502,-15.08016 15.5237,-15.08016z" data-paper-data="{&quot;origPos&quot;:null}" fill="url(#color-21)" stroke-width="0"/></g><path d="M212.61432,302.71402h-121.79394" data-paper-data="{&quot;origPos&quot;:null}" fill="#ffc3d5" stroke="#ffc3d5" stroke-width="9" stroke-linecap="round"/><path d="M151.45717,298.41284c5.16868,-1.6283 6.93222,-1.48741 10.36417,-3.39753c4.6158,-3.00757 9.67257,-2.34864 9.67257,-2.34864c4.85924,0 8.14324,-0.09767 12.8288,2.71514c2.1293,1.27826 4.81478,1.43009 7.80643,2.82298c0.29545,0.13756 -6.44486,2.90845 -6.44486,3.23435c0,5.87785 -6.9113,0.28571 -14.74843,0.28571c-7.83712,0 -23.97788,-0.78138 -19.47867,-3.31201z" data-paper-data="{&quot;origPos&quot;:null}" fill="#ffc3d5" stroke="none" stroke-width="0" stroke-linecap="butt"/><path d="M113.30115,298.20137c5.16868,-1.6283 6.93222,-1.48741 10.36417,-3.39753c4.6158,-3.00757 9.67257,-2.34864 9.67257,-2.34864c4.85924,0 8.14324,-0.09767 12.8288,2.71514c2.12931,1.27826 4.81479,1.43009 7.80644,2.82298c0.29545,0.13756 -6.44486,2.90845 -6.44486,3.23435c0,5.87785 -6.9113,0.28571 -14.74843,0.28571c-7.83713,0 -23.97789,-0.78138 -19.47868,-3.31201z" data-paper-data="{&quot;origPos&quot;:null}" fill="#ffc3d5" stroke="none" stroke-width="0" stroke-linecap="butt"/></g><g data-paper-data="{&quot;index&quot;:null}" fill-rule="nonzero" stroke-linejoin="miter"><g><g data-paper-data="{&quot;origPos&quot;:null}" stroke="none" stroke-linecap="butt"><path d="M249.31037,300.19254c13.83878,0 25.05733,10.38755 25.05733,23.20124c0,12.8137 -21.80916,4.64025 -21.80916,4.64025c0,0 -28.3055,8.17344 -28.3055,-4.64025c0,-12.81369 11.21855,-23.20124 25.05733,-23.20124z" data-paper-data="{&quot;origPos&quot;:null}" fill="url(#color-22)" stroke-width="NaN"/><path d="M211.80253,300.11436c13.83878,0 25.05733,10.38755 25.05733,23.20124c0,12.8137 -21.80916,4.64025 -21.80916,4.64025c0,0 -28.3055,8.17344 -28.3055,-4.64025c0,-12.81369 11.21855,-23.20124 25.05733,-23.20124z" data-paper-data="{&quot;origPos&quot;:null}" fill="url(#color-23)" stroke-width="NaN"/><path d="M173.36668,300.03618c13.83879,0 25.05733,10.38755 25.05733,23.20124c0,12.8137 -21.80916,4.64025 -21.80916,4.64025c0,0 -28.3055,8.17344 -28.3055,-4.64025c0,-12.81369 11.21855,-23.20124 25.05733,-23.20124z" data-paper-data="{&quot;origPos&quot;:null}" fill="url(#color-24)" stroke-width="NaN"/><path d="M134.9308,299.95797c2.88963,0 4.53136,0.21904 7.31247,1.00351c8.34333,2.35341 17.74486,10.288 17.74486,22.19773c0,12.81369 -21.80916,4.64024 -21.80916,4.64024c0,0 -28.3055,8.17345 -28.3055,-4.64024c0,-12.81369 11.21855,-23.20124 25.05733,-23.20124z" data-paper-data="{&quot;origPos&quot;:null}" fill="url(#color-25)" stroke-width="NaN"/><path d="M97.42299,299.87982c13.83878,0 25.05733,10.38755 25.05733,23.20124c0,12.81369 -21.80916,4.64024 -21.80916,4.64024c0,0 -28.3055,8.17345 -28.3055,-4.64024c0,-12.81369 11.21855,-23.20124 25.05733,-23.20124z" data-paper-data="{&quot;origPos&quot;:null}" fill="url(#color-26)" stroke-width="NaN"/><path d="M58.5231,300.26566c13.83879,0 25.05733,10.38755 25.05733,23.20124c0,12.8137 -21.80916,4.64025 -21.80916,4.64025c0,0 -28.3055,8.17344 -28.3055,-4.64025c0,-12.81369 11.21855,-23.20124 25.05733,-23.20124z" data-paper-data="{&quot;origPos&quot;:null}" fill="url(#color-27)" stroke-width="NaN"/><path d="M46.82816,337.53269v-32.16464l217.99828,1.41036l7.75699,31.45946z" data-paper-data="{&quot;origPos&quot;:null}" fill="url(#color-28)" stroke-width="0"/><path d="M258.61039,327.3587c0,-8.71332 7.27129,-15.77684 16.24087,-15.77684c8.96959,0 16.24087,7.06352 16.24087,15.77684c0,8.71331 -4.51094,16.03718 -13.48052,16.03718c-8.96959,0 -19.00121,-7.32386 -19.00121,-16.03718z" data-paper-data="{&quot;origPos&quot;:null}" fill="url(#color-29)" stroke-width="0"/><path d="M35.44552,310.71335c8.9696,0 16.24087,7.06352 16.24087,15.77684c0,8.71331 -9.09366,17.83887 -18.06324,17.83887c-8.96959,0 -14.4185,-9.12555 -14.4185,-17.83887c0,-8.71331 7.27129,-15.77684 16.24087,-15.77684z" data-paper-data="{&quot;origPos&quot;:null}" fill="url(#color-30)" stroke-width="0"/></g><path d="M36.54597,340.95552c0,0 50.9832,0 85.21518,0c62.77023,0 158.2303,0 158.2303,0" data-paper-data="{&quot;origPos&quot;:null}" fill="#ffc3d5" stroke="#ffc3d5" stroke-width="9" stroke-linecap="round"/><path d="M208.60158,337.11364c5.40746,-1.70353 7.25248,-1.55613 10.84298,-3.55449c4.82904,-3.14651 10.11942,-2.45714 10.11942,-2.45714c5.08372,0 8.51943,-0.10219 13.42146,2.84057c2.22768,1.33731 5.03722,1.49615 8.16708,2.95339c0.3091,0.14391 -6.7426,3.04281 -6.7426,3.38377c0,6.14939 -7.23059,0.29891 -15.42978,0.29891c-8.19919,0 -25.08562,-0.81748 -20.37856,-3.46502z" data-paper-data="{&quot;origPos&quot;:null}" fill="#ffc3d5" stroke="none" stroke-width="0" stroke-linecap="butt"/><path d="M171.02994,336.77056c5.40746,-1.70353 7.25248,-1.55613 10.84298,-3.55449c4.82904,-3.14651 10.11942,-2.45714 10.11942,-2.45714c5.08372,0 8.51943,-0.10219 13.42146,2.84057c2.22767,1.33731 5.03721,1.49615 8.16707,2.95339c0.30909,0.14391 -6.74259,3.04281 -6.74259,3.38377c0,6.14939 -7.23059,0.29891 -15.42978,0.29891c-8.19919,0 -25.08562,-0.81748 -20.37856,-3.46502z" data-paper-data="{&quot;origPos&quot;:null}" fill="#ffc3d5" stroke="none" stroke-width="0" stroke-linecap="butt"/><path d="M142.97397,332.9948c4.82904,-3.14651 10.11942,-2.45714 10.11942,-2.45714c5.08372,0 8.51943,-0.10219 13.42146,2.84057c2.22767,1.33731 5.03721,1.49615 8.16707,2.95339c0.30909,0.14391 -6.74259,3.04281 -6.74259,3.38377c0,6.14939 -7.2306,0.29891 -15.42979,0.29891c-8.19918,0 -25.08561,-0.81748 -20.37855,-3.46502c5.40746,-1.70353 7.25248,-1.55612 10.84298,-3.55448z" data-paper-data="{&quot;origPos&quot;:null}" fill="#ffc3d5" stroke="none" stroke-width="0" stroke-linecap="butt"/><path d="M96.55389,336.77056c5.40746,-1.70353 7.25248,-1.55613 10.84298,-3.55449c4.82904,-3.14651 10.11942,-2.45714 10.11942,-2.45714c5.08372,0 8.51943,-0.10219 13.42146,2.84057c2.22767,1.33731 5.03721,1.49615 8.16707,2.95339c0.3091,0.14391 -6.7426,3.04281 -6.7426,3.38377c0,6.14939 -7.23059,0.29891 -15.42978,0.29891c-8.19918,0 -25.08561,-0.81748 -20.37855,-3.46502z" data-paper-data="{&quot;origPos&quot;:null}" fill="#ffc3d5" stroke="none" stroke-width="0" stroke-linecap="butt"/><path d="M69.00778,332.9948c4.82904,-3.14651 10.11942,-2.45714 10.11942,-2.45714c5.08372,0 8.51943,-0.10219 13.42146,2.84057c2.22767,1.33731 5.03721,1.49615 8.16707,2.95339c0.30909,0.14391 -6.74259,3.04281 -6.74259,3.38377c0,6.14939 -7.23059,0.29891 -15.42978,0.29891c-8.19919,0 -25.08562,-0.81748 -20.37856,-3.46502c5.40746,-1.70353 7.25248,-1.55612 10.84298,-3.55448z" data-paper-data="{&quot;origPos&quot;:null}" fill="#ffc3d5" stroke="none" stroke-width="0" stroke-linecap="butt"/></g><g data-paper-data="{&quot;origPos&quot;:null}" stroke="none" stroke-linecap="butt"><g data-paper-data="{&quot;origPos&quot;:null}" fill="url(#color-31)" stroke-width="NaN"><path d="M34.71384,323.57845c0,-12.24786 10.72317,-22.17671 23.95085,-22.17671c13.22769,0 23.95085,9.92885 23.95085,22.17671c0,12.24787 -20.84611,4.43534 -20.84611,4.43534c0,0 -27.05558,7.81252 -27.05558,-4.43534z" data-paper-data="{&quot;origPos&quot;:null}" stroke-width="NaN"/></g><path d="M55.60508,336.76718c5.16868,-1.6283 6.93222,-1.48741 10.36417,-3.39753c4.6158,-3.00757 9.67257,-2.34864 9.67257,-2.34864c4.85924,0 8.14324,-0.09767 12.8288,2.71514c2.12931,1.27826 4.81479,1.43009 7.80644,2.82298c0.29545,0.13756 -6.44486,2.90845 -6.44486,3.23435c0,5.87785 -6.9113,0.28571 -14.74843,0.28571c-7.83713,0 -23.97789,-0.78138 -19.47868,-3.31201z" data-paper-data="{&quot;origPos&quot;:null}" fill="#ffc3d5" stroke-width="0"/></g></g><g data-paper-data="{&quot;index&quot;:null}" fill-rule="nonzero" stroke-linejoin="miter"><g data-paper-data="{&quot;origPos&quot;:null}" stroke="none" stroke-linecap="butt"><path d="M266.40064,337.35765c13.83878,0 25.05733,10.38755 25.05733,23.20124c0,12.8137 -21.80916,4.64025 -21.80916,4.64025c0,0 -28.3055,8.17344 -28.3055,-4.64025c0,-12.81369 11.21855,-23.20124 25.05733,-23.20124z" data-paper-data="{&quot;origPos&quot;:null}" fill="url(#color-32)" stroke-width="NaN"/><path d="M227.96479,337.27947c13.83879,0 25.05733,10.38755 25.05733,23.20124c0,12.8137 -21.80916,4.64025 -21.80916,4.64025c0,0 -28.3055,8.17344 -28.3055,-4.64025c0,-12.81369 11.21855,-23.20124 25.05733,-23.20124z" data-paper-data="{&quot;origPos&quot;:null}" fill="url(#color-33)" stroke-width="NaN"/><path d="M189.52892,337.20126c2.88963,0 4.53136,0.21904 7.31247,1.00351c8.34333,2.35341 17.74486,10.288 17.74486,22.19773c0,12.81369 -21.80916,4.64024 -21.80916,4.64024c0,0 -28.3055,8.17345 -28.3055,-4.64024c0,-12.81369 11.21855,-23.20124 25.05733,-23.20124z" data-paper-data="{&quot;origPos&quot;:null}" fill="url(#color-34)" stroke-width="NaN"/><path d="M152.0211,337.12311c13.83878,0 25.05733,10.38755 25.05733,23.20124c0,12.81369 -21.80916,4.64024 -21.80916,4.64024c0,0 -28.3055,8.17345 -28.3055,-4.64024c0,-12.81369 11.21855,-23.20124 25.05733,-23.20124z" data-paper-data="{&quot;origPos&quot;:null}" fill="url(#color-35)" stroke-width="NaN"/><path d="M133.42626,376.77598c0,0 -3.84048,-32.09892 2.66213,-32.05685c19.50783,0.12621 147.83616,1.30257 147.83616,1.30257l16.75699,30.95946z" data-paper-data="{&quot;origPos&quot;:null}" fill="url(#color-36)" stroke-width="0"/><path d="M272.70851,364.60199c0,-8.71332 7.27129,-15.77684 16.24087,-15.77684c8.96959,0 16.24087,7.06352 16.24087,15.77684c0,8.71331 -4.51094,16.03718 -13.48052,16.03718c-8.96959,0 -19.00121,-7.32386 -19.00121,-16.03718z" data-paper-data="{&quot;origPos&quot;:null}" fill="url(#color-37)" stroke-width="0"/><path d="M131.04363,347.95664c8.9696,0 16.24087,7.06352 16.24087,15.77684c0,8.71331 -9.09366,17.83887 -18.06324,17.83887c-8.96959,0 -14.4185,-9.12555 -14.4185,-17.83887c0,-8.71331 7.27129,-15.77684 16.24087,-15.77684z" data-paper-data="{&quot;origPos&quot;:null}" fill="url(#color-38)" stroke-width="0"/></g><path d="M130.35925,378.19881c79.7035,0 164.2303,0.5 164.2303,0.5" data-paper-data="{&quot;origPos&quot;:null}" fill="#ffc3d5" stroke="#ffc3d5" stroke-width="9" stroke-linecap="round"/><path d="M225.62804,374.01385c5.40746,-1.70353 7.25248,-1.55613 10.84298,-3.55449c4.82904,-3.14651 10.11942,-2.45714 10.11942,-2.45714c5.08372,0 8.51943,-0.10219 13.42146,2.84057c2.22767,1.33731 5.03721,1.49615 8.16707,2.95339c0.30909,0.14391 -6.74259,3.04281 -6.74259,3.38377c0,6.14939 -7.23059,0.29891 -15.42978,0.29891c-8.19919,0 -25.08562,-0.81748 -20.37856,-3.46502z" data-paper-data="{&quot;origPos&quot;:null}" fill="#ffc3d5" stroke="none" stroke-width="0" stroke-linecap="butt"/><path d="M197.57209,370.23809c4.82904,-3.14651 10.11942,-2.45714 10.11942,-2.45714c5.08372,0 8.51943,-0.10219 13.42146,2.84057c2.22767,1.33731 5.03721,1.49615 8.16707,2.95339c0.30909,0.14391 -6.74259,3.04281 -6.74259,3.38377c0,6.14939 -7.2306,0.29891 -15.42979,0.29891c-8.19918,0 -25.08561,-0.81748 -20.37855,-3.46502c5.40746,-1.70353 7.25248,-1.55612 10.84298,-3.55448z" data-paper-data="{&quot;origPos&quot;:null}" fill="#ffc3d5" stroke="none" stroke-width="0" stroke-linecap="butt"/><path d="M151.15202,374.01385c5.40746,-1.70353 7.25248,-1.55613 10.84298,-3.55449c4.82904,-3.14651 10.11942,-2.45714 10.11942,-2.45714c5.08372,0 8.51943,-0.10219 13.42146,2.84057c2.22767,1.33731 5.03721,1.49615 8.16707,2.95339c0.3091,0.14391 -6.7426,3.04281 -6.7426,3.38377c0,6.14939 -7.23059,0.29891 -15.42978,0.29891c-8.19918,0 -25.08561,-0.81748 -20.37855,-3.46502z" data-paper-data="{&quot;origPos&quot;:null}" fill="#ffc3d5" stroke="none" stroke-width="0" stroke-linecap="butt"/></g><path d="M537.48139,122.4152l0.54866,27.55294c0,0 -7.14716,0.06992 -12.04337,-1.18831c-4.89621,-1.25823 -10.17384,-4.86752 -10.17384,-4.86752l-118.63191,-92.83405c0,0 -4.63742,-3.92159 -8.86854,-5.17722c-4.36007,-1.29391 -12.50574,-1.54969 -12.50574,-1.54969l21.07814,-28.95885z" data-paper-data="{&quot;index&quot;:null}" fill="#4926f1" fill-rule="nonzero" stroke="none" stroke-width="0" stroke-linecap="butt" stroke-linejoin="miter"/><path d="M398.63055,15.39135l-180.59268,0.18086" data-paper-data="{&quot;index&quot;:null}" fill="none" fill-rule="nonzero" stroke="#3eb5fa" stroke-width="7" stroke-linecap="round" stroke-linejoin="miter"/><g fill="#303030" fill-rule="evenodd" stroke="none" stroke-width="1" stroke-linecap="round" stroke-linejoin="round"><g data-paper-data="{&quot;origPos&quot;:null}"><path d="M134.13698,104.75296c0,0.16119 -0.10746,0.3403 -0.16119,0.53732l-2.40006,6.85985c-0.19702,0.59106 -0.62688,0.89554 -1.11047,0.89554c-0.51942,0 -0.93137,-0.30448 -1.1642,-0.89554l-2.18512,-5.12249l-2.18511,5.12249c-0.23284,0.59106 -0.66271,0.89554 -1.1463,0.89554c-0.51942,0 -0.93136,-0.30448 -1.12839,-0.89554l-2.38213,-6.85985c-0.07164,-0.19702 -0.1612,-0.37613 -0.1612,-0.53732c0,-0.62688 0.4836,-1.11047 1.11047,-1.11047c0.41195,0 0.85972,0.25074 0.9851,0.62687l1.71943,5.39116l2.13139,-5.30161c0.19702,-0.46568 0.55523,-0.71643 1.05674,-0.71643c0.51942,0 0.87763,0.25074 1.05675,0.71643l2.13139,5.30161l1.71944,-5.39116c0.12537,-0.37613 0.57314,-0.62687 1.00301,-0.62687c0.60897,0 1.11047,0.48359 1.11047,1.11047z" data-paper-data="{&quot;origPos&quot;:null}"/><path d="M135.74896,101.20663c0,-0.62688 0.55524,-1.16421 1.20002,-1.16421c0.62687,0 1.18212,0.53733 1.18212,1.16421c0,0.62688 -0.55523,1.1642 -1.18212,1.1642c-0.64479,0 -1.20002,-0.53732 -1.20002,-1.1642zM138.11319,104.82461v7.09268c0,0.6627 -0.53732,1.20002 -1.1642,1.20002c-0.64479,0 -1.18212,-0.53733 -1.18212,-1.20002v-7.09268c0,-0.64479 0.53733,-1.18212 1.18212,-1.18212c0.62688,0 1.1642,0.53733 1.1642,1.18212z" data-paper-data="{&quot;origPos&quot;:null}"/><path d="M145.51035,111.84565c0,0.82389 -0.80599,1.25376 -2.02392,1.25376c-1.21794,0 -2.45378,-0.39404 -2.45378,-2.88364v-4.67473h-0.51942c-0.57314,0 -0.94927,-0.37613 -0.94927,-0.91344c0,-0.55524 0.37613,-0.93136 0.94927,-0.93136h0.51942v-1.21793c0,-0.64479 0.53732,-1.18212 1.18212,-1.18212c0.64479,0 1.1642,0.53733 1.1642,1.18212v1.21793h1.18212c0.59106,0 0.94927,0.37613 0.94927,0.93136c0,0.53733 -0.35821,0.91344 -0.94927,0.91344h-1.18212v4.74637c0,0.51942 0.17911,0.78807 0.57314,0.78807c0.19702,0 0.48359,-0.07164 0.68061,-0.07164c0.53733,-0.03582 0.87763,0.28657 0.87763,0.8418z" data-paper-data="{&quot;origPos&quot;:null}"/><path d="M155.93445,107.88736v4.04784c0,0.64479 -0.53733,1.1642 -1.18212,1.1642c-0.62687,0 -1.1642,-0.51942 -1.1642,-1.1642v-4.04784c0,-1.61198 -0.84181,-2.27467 -1.89855,-2.27467c-1.61197,0 -2.1493,1.5045 -2.22094,2.00601v4.31651c0,0.64479 -0.53733,1.1642 -1.1642,1.1642c-0.64479,0 -1.18212,-0.51941 -1.18212,-1.1642v-10.54947c0,-0.62688 0.53732,-1.1642 1.18212,-1.1642c0.62687,0 1.1642,0.53732 1.1642,1.1642v4.33442c0.07164,-0.64479 1.12838,-2.11348 3.06275,-2.11348c1.80899,0 3.40305,1.18212 3.40305,4.28068z" data-paper-data="{&quot;origPos&quot;:null}"/><path d="M167.98484,111.33864c0,0.82389 -0.80599,1.25377 -2.02393,1.25377c-1.21794,0 -2.45378,-0.39404 -2.45378,-2.88365v-4.67472h-0.51942c-0.57314,0 -0.94928,-0.37614 -0.94928,-0.91345c0,-0.55524 0.37613,-0.93136 0.94928,-0.93136h0.51942v-1.21794c0,-0.64479 0.53733,-1.18212 1.18212,-1.18212c0.64479,0 1.1642,0.53733 1.1642,1.18212v1.21794h1.18212c0.59106,0 0.94928,0.37613 0.94928,0.93136c0,0.53733 -0.35821,0.91345 -0.94928,0.91345h-1.18212v4.74636c0,0.51942 0.17912,0.78808 0.57315,0.78808c0.19702,0 0.48359,-0.07164 0.68061,-0.07164c0.53733,-0.03582 0.87763,0.28657 0.87763,0.8418z" data-paper-data="{&quot;origPos&quot;:null}"/><path d="M178.40879,107.38035v4.04784c0,0.64479 -0.53733,1.16421 -1.18212,1.16421c-0.62672,0 -1.16406,-0.51942 -1.16406,-1.16421v-4.04784c0,-1.61198 -0.84181,-2.27467 -1.89855,-2.27467c-1.61197,0 -2.1493,1.50451 -2.22094,2.00602v4.31651c0,0.64479 -0.53733,1.16421 -1.1642,1.16421c-0.64479,0 -1.18212,-0.51942 -1.18212,-1.16421v-10.54947c0,-0.62688 0.53733,-1.1642 1.18212,-1.1642c0.62687,0 1.1642,0.53732 1.1642,1.1642v4.33442c0.07164,-0.64479 1.12838,-2.11347 3.06275,-2.11347c1.80899,0 3.4029,1.18212 3.4029,4.28069z" data-paper-data="{&quot;origPos&quot;:null}"/><path d="M189.42394,107.4699c0,0.93136 -0.51941,1.25376 -1.46869,1.25376l-5.31951,-0.03583c0.21493,1.30749 1.25377,2.00602 2.56125,2.00602c0.64479,0 0.94927,-0.1433 1.4866,-0.37613c0.32239,-0.14329 0.57314,-0.28657 0.87763,-0.28657c0.50151,0 0.80599,0.35821 0.80599,0.80598c0,0.28657 -0.12538,0.60897 -0.57315,0.9851c-0.6627,0.46568 -1.55824,0.77017 -2.68662,0.77017c-2.38214,0 -4.90757,-1.46869 -4.90757,-4.72846c0,-3.22394 2.66871,-4.78219 4.71055,-4.78219c2.04183,0 4.51353,1.61198 4.51353,4.38815zM182.63573,107.07586h4.4777c-0.17911,-1.37914 -1.18212,-1.95228 -2.20303,-1.95228c-1.02092,0 -2.11347,0.57314 -2.27466,1.95228z" data-paper-data="{&quot;origPos&quot;:null}"/></g><g><path d="M70.58639,107.85305c0,3.25977 -2.36423,4.78219 -4.33442,4.78219c-1.55824,0 -2.50752,-0.96718 -2.6508,-1.52241v0.34031c0,0.07164 0,0.14329 -0.01791,0.19702v3.22395c0,0.64479 -0.55524,1.1642 -1.18212,1.1642c-0.64479,0 -1.18212,-0.51941 -1.18212,-1.1642v-10.5674c0,-0.62688 0.57314,-1.1642 1.20002,-1.1642c0.64479,0 1.18212,0.53732 1.18212,1.1642v0.30449c0.35822,-0.8418 1.37914,-1.52241 2.6508,-1.52241c1.95228,0 4.33442,1.57616 4.33442,4.76427zM68.24007,107.85305c0,-1.82691 -1.23585,-2.75827 -2.41797,-2.75827c-1.00301,0 -2.32841,0.73434 -2.32841,2.75827c0,2.02392 1.32539,2.75827 2.32841,2.75827c1.18212,0 2.41797,-0.91345 2.41797,-2.75827z" data-paper-data="{&quot;origPos&quot;:null}"/><path d="M73.55958,112.59941c-0.64479,0 -1.18212,-0.51941 -1.18212,-1.1642v-10.54947c0,-0.62688 0.53732,-1.1642 1.18212,-1.1642c0.62688,0 1.16421,0.53732 1.16421,1.1642v10.54948c0,0.64479 -0.53733,1.1642 -1.16421,1.1642z" data-paper-data="{&quot;origPos&quot;:null}"/><path d="M85.88223,104.3067v7.14641c0,0.64479 -0.57314,1.1642 -1.20002,1.1642c-0.64479,0 -1.18212,-0.51942 -1.18212,-1.1642v-0.34031c-0.14329,0.55524 -1.09256,1.52242 -2.6508,1.52242c-1.97019,0 -4.33442,-1.52242 -4.33442,-4.7822c0,-3.18813 2.38214,-4.76427 4.33442,-4.76427c1.27167,0 2.29259,0.68061 2.6508,1.52241v-0.30448c0,-0.62688 0.53732,-1.16421 1.18212,-1.16421c0.62688,0 1.20002,0.53733 1.20002,1.16421zM83.60755,107.85305c0,-2.02392 -1.3254,-2.75827 -2.32841,-2.75827c-1.18212,0 -2.41796,0.93136 -2.41796,2.75827c0,1.84482 1.23584,2.75827 2.41796,2.75827c1.00301,0 2.32841,-0.73435 2.32841,-2.75827z" data-paper-data="{&quot;origPos&quot;:null}"/><path d="M95.91228,110.52176c0,0.57314 -0.42987,0.85972 -0.6627,1.07465c-0.75225,0.6627 -1.62989,1.003 -2.79408,1.003c-2.16721,0 -4.78219,-1.55824 -4.78219,-4.74636c0,-3.20604 2.61498,-4.76427 4.78219,-4.76427c1.1642,0 2.04183,0.3224 2.79408,0.9851c0.23284,0.23284 0.6627,0.51942 0.6627,1.09256c0,0.55524 -0.46568,0.89554 -0.94927,0.89554c-0.42987,0 -0.77016,-0.25074 -0.91345,-0.37613c-0.41195,-0.39404 -1.02092,-0.55524 -1.5045,-0.55524c-1.41495,0 -2.54333,0.9851 -2.54333,2.72245c0,1.71944 1.12839,2.70453 2.54333,2.70453c0.48359,0 1.09256,-0.16119 1.5045,-0.55523c0.14329,-0.12537 0.48359,-0.37614 0.91345,-0.37614c0.48359,0 0.94927,0.3403 0.94927,0.89555z" data-paper-data="{&quot;origPos&quot;:null}"/><path d="M106.39012,107.47692c0,0.93136 -0.51942,1.25376 -1.46869,1.25376l-5.31951,-0.03582c0.21493,1.30749 1.25376,2.00601 2.56125,2.00601c0.64479,0 0.94927,-0.14329 1.4866,-0.37613c0.3224,-0.14329 0.57314,-0.28657 0.87763,-0.28657c0.50151,0 0.80598,0.35821 0.80598,0.80599c0,0.28657 -0.12537,0.60897 -0.57314,0.9851c-0.6627,0.46568 -1.55824,0.77016 -2.68662,0.77016c-2.38214,0 -4.90757,-1.46868 -4.90757,-4.72845c0,-3.22394 2.66871,-4.7822 4.71055,-4.7822c2.04183,0 4.51353,1.61198 4.51353,4.38816zM99.60192,107.08288h4.4777c-0.17911,-1.37914 -1.18212,-1.95228 -2.20303,-1.95228c-1.02092,0 -2.11347,0.57314 -2.27467,1.95228z" data-paper-data="{&quot;origPos&quot;:null}"/><path d="M114.16341,104.39626c0.10747,0.16119 0.28657,0.41195 0.28657,0.78808c0,0.57314 -0.39404,0.87763 -0.91344,0.87763c-0.34031,0 -0.68061,-0.12538 -0.9851,-0.50151c-0.35822,-0.41195 -0.77016,-0.60897 -1.28958,-0.60897c-0.69853,0 -1.11046,0.34031 -1.11046,0.84181c0,0.28657 0.10747,0.6627 0.93136,0.89555l1.09256,0.3224c1.43286,0.39404 2.63289,1.07465 2.63289,2.66871c0,1.97019 -1.82691,2.91946 -3.68963,2.91946c-1.61198,0 -2.57916,-0.68061 -3.08067,-1.28958c-0.08955,-0.12537 -0.48359,-0.57314 -0.48359,-1.12839c0,-0.39404 0.25074,-0.89554 0.89554,-0.89554c0.48359,0 0.75225,0.30448 0.96719,0.57314c0.51942,0.64479 1.09256,0.82389 1.70153,0.82389c0.87763,0 1.36122,-0.37613 1.36122,-0.87763c0,-0.30449 -0.19702,-0.69853 -1.05674,-0.94927l-1.02092,-0.30449c-1.809,-0.50151 -2.56125,-1.46869 -2.56125,-2.74035c0,-1.79108 1.6478,-2.72245 3.34933,-2.72245c1.21794,0 2.38214,0.4836 2.9732,1.30749z" data-paper-data="{&quot;origPos&quot;:null}"/></g><path d="M115.47441,128.86394c0,3.20604 -2.74035,4.76427 -4.7822,4.76427c-2.05974,0 -4.78219,-1.55824 -4.78219,-4.76427c0,-3.18813 2.72245,-4.78219 4.78219,-4.78219c2.04183,0 4.7822,1.59405 4.7822,4.78219zM108.23844,128.86394c0,1.71944 1.18212,2.72245 2.45378,2.72245c1.25376,0 2.45378,-1.00301 2.45378,-2.72245c0,-1.73736 -1.20002,-2.74035 -2.45378,-2.74035c-1.27167,0 -2.45378,1.00301 -2.45378,2.74035z"/><path d="M123.57011,121.93245c0,0.50151 -0.37613,0.8418 -0.87763,0.8418c-0.16119,0 -0.41195,-0.05372 -0.75225,-0.16119c-0.23284,-0.08955 -0.37614,-0.14329 -0.60897,-0.14329c-1.00301,0 -1.12839,0.82389 -1.12839,1.18212v0.53733h1.46869c0.57314,0 0.94928,0.37613 0.94928,0.93136c0,0.53733 -0.37614,0.91344 -0.94928,0.91344h-1.46869v6.41207c0,0.64479 -0.53732,1.1642 -1.18211,1.1642c-0.62688,0 -1.16421,-0.51941 -1.16421,-1.1642v-6.41207h-0.53733c-0.57314,0 -0.94927,-0.37613 -0.94927,-0.91344c0,-0.55524 0.37613,-0.93136 0.94927,-0.93136h0.53733v-0.66271c0,-2.50752 1.98809,-3.04484 3.13439,-3.04484c0.78808,0 1.46869,0.19702 1.95228,0.50151c0.41195,0.25074 0.62688,0.55524 0.62688,0.94928z"/><path d="M136.21515,125.17431c0,0.6627 -0.50151,1.11047 -1.50451,1.11047c-1.41495,0 -2.31049,1.09256 -2.40005,1.8269v4.31651c0,0.62688 -0.53732,1.1642 -1.1642,1.1642c-0.64479,0 -1.18212,-0.53732 -1.18212,-1.1642v-7.1106c0,-0.64479 0.53733,-1.18212 1.18212,-1.18212c0.62688,0 1.1642,0.53733 1.1642,1.18212v0.89554c0.07164,-0.64479 1.18212,-2.11347 2.79409,-2.11347c0.73434,0 1.11047,0.50151 1.11047,1.07465z"/><path d="M146.49595,128.86394c0,3.20604 -2.74035,4.76427 -4.78219,4.76427c-2.05974,0 -4.7822,-1.55824 -4.7822,-4.76427c0,-3.18813 2.72246,-4.78219 4.7822,-4.78219c2.04183,0 4.78219,1.59405 4.78219,4.78219zM139.25998,128.86394c0,1.71944 1.18212,2.72245 2.45378,2.72245c1.25376,0 2.45378,-1.00301 2.45378,-2.72245c0,-1.73736 -1.20002,-2.74035 -2.45378,-2.74035c-1.27167,0 -2.45378,1.00301 -2.45378,2.74035z"/><path d="M157.6544,128.84603c0,3.25977 -2.36423,4.78219 -4.33442,4.78219c-1.55824,0 -2.50752,-0.96718 -2.6508,-1.52241v0.34031c0,0.64479 -0.53733,1.1642 -1.18212,1.1642c-0.62687,0 -1.20002,-0.51941 -1.20002,-1.1642v-10.56739c0,-0.62688 0.55523,-1.16421 1.20002,-1.16421c0.62687,0 1.1642,0.53733 1.1642,1.16421v3.22394c0.01791,0.07164 0.01791,0.12537 0.01791,0.19702v0.30449c0.35821,-0.8418 1.37914,-1.52241 2.6508,-1.52241c1.95228,0 4.33442,1.57616 4.33442,4.76427zM155.30808,128.84603c0,-1.82691 -1.23584,-2.75827 -2.41796,-2.75827c-1.00301,0 -2.32841,0.73435 -2.32841,2.75827c0,2.02392 1.3254,2.75826 2.32841,2.75826c1.18212,0 2.41796,-0.91344 2.41796,-2.75826z"/><path d="M168.50835,128.86394c0,3.20604 -2.74035,4.76427 -4.78219,4.76427c-2.05974,0 -4.7822,-1.55824 -4.7822,-4.76427c0,-3.18813 2.72246,-4.78219 4.7822,-4.78219c2.04183,0 4.78219,1.59405 4.78219,4.78219zM161.27238,128.86394c0,1.71944 1.18212,2.72245 2.45378,2.72245c1.25376,0 2.45378,-1.00301 2.45378,-2.72245c0,-1.73736 -1.20002,-2.74035 -2.45378,-2.74035c-1.27167,0 -2.45378,1.00301 -2.45378,2.74035z" data-paper-data="{&quot;origPos&quot;:null}"/><path d="M175.35029,132.33864c0,0.82389 -0.80599,1.25377 -2.02392,1.25377c-1.21794,0 -2.45378,-0.39404 -2.45378,-2.88365v-4.67472h-0.51942c-0.57314,0 -0.94928,-0.37614 -0.94928,-0.91345c0,-0.55524 0.37613,-0.93136 0.94928,-0.93136h0.51942v-1.21794c0,-0.64479 0.53733,-1.18212 1.18212,-1.18212c0.64479,0 1.1642,0.53733 1.1642,1.18212v1.21794h1.18212c0.59106,0 0.94927,0.37613 0.94927,0.93136c0,0.53733 -0.35821,0.91345 -0.94927,0.91345h-1.18212v4.74636c0,0.51942 0.17911,0.78808 0.57314,0.78808c0.19702,0 0.48359,-0.07164 0.68061,-0.07164c0.53733,-0.03582 0.87763,0.28657 0.87763,0.8418z"/><path d="M183.19523,125.38924c0.10747,0.16119 0.28657,0.41195 0.28657,0.78808c0,0.57314 -0.39404,0.87763 -0.91345,0.87763c-0.34031,0 -0.68061,-0.12538 -0.9851,-0.50151c-0.35821,-0.41195 -0.77016,-0.60896 -1.28958,-0.60896c-0.69853,0 -1.11047,0.34031 -1.11047,0.8418c0,0.28657 0.10747,0.6627 0.93137,0.89554l1.09256,0.3224c1.43286,0.39404 2.63289,1.07464 2.63289,2.6687c0,1.97019 -1.8269,2.91947 -3.68962,2.91947c-1.61197,0 -2.57916,-0.68061 -3.08067,-1.28958c-0.08955,-0.12537 -0.48359,-0.57314 -0.48359,-1.12839c0,-0.39404 0.25074,-0.89554 0.89555,-0.89554c0.48359,0 0.75225,0.30448 0.96718,0.57314c0.51941,0.64479 1.09256,0.8239 1.70153,0.8239c0.87763,0 1.36122,-0.37613 1.36122,-0.87763c0,-0.30449 -0.19702,-0.69853 -1.05674,-0.94928l-1.02092,-0.30448c-1.80899,-0.50151 -2.56125,-1.46869 -2.56125,-2.74035c0,-1.79108 1.64781,-2.72245 3.34933,-2.72245c1.21794,0 2.38213,0.4836 2.97319,1.30749z"/><g data-paper-data="{&quot;origPos&quot;:null}"><path d="M73.16755,127.88035v4.04784c0,0.64479 -0.53733,1.16421 -1.18212,1.16421c-0.62688,0 -1.1642,-0.51942 -1.1642,-1.16421v-4.04784c0,-1.61198 -0.8418,-2.27467 -1.89854,-2.27467c-1.61198,0 -2.1493,1.50451 -2.22095,2.00602v4.31651c0,0.64479 -0.53732,1.16421 -1.1642,1.16421c-0.64479,0 -1.18212,-0.51942 -1.18212,-1.16421v-10.54947c0,-0.62688 0.53733,-1.1642 1.18212,-1.1642c0.62688,0 1.1642,0.53732 1.1642,1.1642v4.33442c0.07164,-0.64479 1.12838,-2.11347 3.06275,-2.11347c1.809,0 3.40305,1.18212 3.40305,4.28069z" data-paper-data="{&quot;origPos&quot;:null}"/><path d="M84.1827,127.9699c0,0.93136 -0.51942,1.25376 -1.46869,1.25376l-5.3195,-0.03583c0.21493,1.30749 1.25376,2.00602 2.56124,2.00602c0.64479,0 0.94928,-0.1433 1.4866,-0.37613c0.3224,-0.14329 0.57314,-0.28657 0.87763,-0.28657c0.50151,0 0.80599,0.35821 0.80599,0.80598c0,0.28657 -0.12538,0.60897 -0.57314,0.9851c-0.6627,0.46568 -1.55824,0.77017 -2.68662,0.77017c-2.38214,0 -4.90757,-1.46869 -4.90757,-4.72846c0,-3.22394 2.66871,-4.78219 4.71055,-4.78219c2.04183,0 4.51353,1.61198 4.51353,4.38815zM77.39451,127.57586h4.4777c-0.17911,-1.37914 -1.18212,-1.95228 -2.20303,-1.95228c-1.02092,0 -2.11347,0.57314 -2.27466,1.95228z" data-paper-data="{&quot;origPos&quot;:null}"/><path d="M87.1559,133.09239c-0.64479,0 -1.18212,-0.51941 -1.18212,-1.1642v-10.54947c0,-0.62688 0.53733,-1.16421 1.18212,-1.16421c0.62688,0 1.1642,0.53733 1.1642,1.16421v10.54948c0,0.64479 -0.53732,1.1642 -1.1642,1.1642z" data-paper-data="{&quot;origPos&quot;:null}"/><path d="M99.83676,128.34603c0,3.25977 -2.36423,4.78219 -4.33442,4.78219c-1.55824,0 -2.50752,-0.96718 -2.6508,-1.52241v0.34031c0,0.07164 0,0.1433 -0.01791,0.19702v3.22394c0,0.64479 -0.55524,1.1642 -1.18212,1.1642c-0.64479,0 -1.18212,-0.51942 -1.18212,-1.1642v-10.56739c0,-0.62688 0.57314,-1.1642 1.20002,-1.1642c0.64479,0 1.18212,0.53732 1.18212,1.1642v0.30449c0.35822,-0.8418 1.37914,-1.52241 2.6508,-1.52241c1.95228,0 4.33442,1.57616 4.33442,4.76427zM97.49045,128.34603c0,-1.82691 -1.23584,-2.75827 -2.41796,-2.75827c-1.00301,0 -2.32841,0.73435 -2.32841,2.75827c0,2.02392 1.32539,2.75826 2.32841,2.75826c1.18212,0 2.41796,-0.91344 2.41796,-2.75826z" data-paper-data="{&quot;origPos&quot;:null}"/></g><g data-paper-data="{&quot;origPos&quot;:null}"><path d="M84.46354,85.18132c0,0.6627 -0.50151,1.11047 -1.5045,1.11047c-1.41495,0 -2.3105,1.09256 -2.40006,1.8269v4.31651c0,0.62688 -0.53732,1.1642 -1.1642,1.1642c-0.64479,0 -1.18212,-0.53733 -1.18212,-1.1642v-7.11059c0,-0.64479 0.53733,-1.18212 1.18212,-1.18212c0.62688,0 1.1642,0.53733 1.1642,1.18212v0.89555c0.07164,-0.64479 1.18212,-2.11348 2.79408,-2.11348c0.73434,0 1.11047,0.50151 1.11047,1.07465z"/><path d="M94.40405,88.47692c0,0.93136 -0.51942,1.25376 -1.46869,1.25376l-5.3195,-0.03582c0.21493,1.30749 1.25376,2.00601 2.56124,2.00601c0.64479,0 0.94928,-0.14329 1.4866,-0.37613c0.3224,-0.14329 0.57314,-0.28657 0.87763,-0.28657c0.50151,0 0.80599,0.35821 0.80599,0.80599c0,0.28657 -0.12538,0.60897 -0.57314,0.9851c-0.6627,0.46568 -1.55824,0.77016 -2.68662,0.77016c-2.38214,0 -4.90757,-1.46868 -4.90757,-4.72845c0,-3.22394 2.66871,-4.7822 4.71055,-4.7822c2.04183,0 4.51353,1.61198 4.51353,4.38816zM87.61585,88.08288h4.47771c-0.17911,-1.37914 -1.18212,-1.95228 -2.20303,-1.95228c-1.02092,0 -2.11348,0.57314 -2.27467,1.95228z"/><path d="M105.06099,85.3067v7.14641c0,0.64479 -0.57314,1.1642 -1.20002,1.1642c-0.64479,0 -1.18212,-0.51942 -1.18212,-1.1642v-0.34031c-0.14329,0.55524 -1.09256,1.52242 -2.6508,1.52242c-1.97019,0 -4.33442,-1.52242 -4.33442,-4.7822c0,-3.18813 2.38214,-4.76427 4.33442,-4.76427c1.27167,0 2.29259,0.68061 2.6508,1.52241v-0.30448c0,-0.62688 0.53732,-1.16421 1.18212,-1.16421c0.62688,0 1.20002,0.53733 1.20002,1.16421zM102.78631,88.85305c0,-2.02392 -1.32539,-2.75827 -2.32841,-2.75827c-1.18212,0 -2.41797,0.93136 -2.41797,2.75827c0,1.84482 1.23585,2.75827 2.41797,2.75827c1.00301,0 2.32841,-0.73435 2.32841,-2.75827z"/><path d="M115.0909,91.52176c0,0.57314 -0.42987,0.85972 -0.66271,1.07465c-0.75225,0.6627 -1.62988,1.003 -2.79394,1.003c-2.16721,0 -4.78219,-1.55824 -4.78219,-4.74636c0,-3.20604 2.61498,-4.76427 4.78219,-4.76427c1.16405,0 2.04168,0.3224 2.79394,0.9851c0.23284,0.23284 0.66271,0.51942 0.66271,1.09256c0,0.55524 -0.46569,0.89554 -0.94928,0.89554c-0.42987,0 -0.77016,-0.25074 -0.91344,-0.37613c-0.41195,-0.39404 -1.02076,-0.55524 -1.50436,-0.55524c-1.41495,0 -2.54333,0.9851 -2.54333,2.72245c0,1.71944 1.12839,2.70453 2.54333,2.70453c0.48359,0 1.09241,-0.16119 1.50436,-0.55523c0.14329,-0.12537 0.48359,-0.37614 0.91344,-0.37614c0.48359,0 0.94928,0.3403 0.94928,0.89555z"/><path d="M125.6941,88.38736v4.04784c0,0.64479 -0.53732,1.1642 -1.18212,1.1642c-0.62688,0 -1.16421,-0.51942 -1.16421,-1.1642v-4.04784c0,-1.61198 -0.8418,-2.27467 -1.89854,-2.27467c-1.61198,0 -2.1493,1.5045 -2.22095,2.00601v4.31651c0,0.64479 -0.53732,1.1642 -1.1642,1.1642c-0.64479,0 -1.18212,-0.51941 -1.18212,-1.1642v-10.54947c0,-0.62688 0.53733,-1.1642 1.18212,-1.1642c0.62688,0 1.1642,0.53732 1.1642,1.1642v4.33442c0.07164,-0.64479 1.12838,-2.11348 3.06275,-2.11348c1.809,0 3.40305,1.18212 3.40305,4.28068z"/><path d="M142.79593,88.38736v4.04784c0,0.64479 -0.53733,1.1642 -1.18212,1.1642c-0.62687,0 -1.1642,-0.51942 -1.1642,-1.1642v-4.04784c0,-1.61198 -0.84181,-2.27467 -1.89855,-2.27467c-1.61198,0 -2.1493,1.5045 -2.22095,2.00601v4.31651c0,0.64479 -0.53732,1.1642 -1.1642,1.1642c-0.64479,0 -1.18212,-0.51941 -1.18212,-1.1642v-10.54947c0,-0.62688 0.53733,-1.1642 1.18212,-1.1642c0.62688,0 1.1642,0.53732 1.1642,1.1642v4.33442c0.07164,-0.64479 1.12839,-2.11348 3.06275,-2.11348c1.80899,0 3.40305,1.18212 3.40305,4.28068z" data-paper-data="{&quot;origPos&quot;:null}"/><path d="M144.94523,81.70663c0,-0.62688 0.55524,-1.16421 1.20002,-1.16421c0.62687,0 1.18212,0.53733 1.18212,1.16421c0,0.62688 -0.55523,1.1642 -1.18212,1.1642c-0.64479,0 -1.20002,-0.53732 -1.20002,-1.1642zM147.30945,85.32461v7.09268c0,0.6627 -0.53733,1.20002 -1.1642,1.20002c-0.64479,0 -1.18212,-0.53733 -1.18212,-1.20002v-7.09268c0,-0.64479 0.53733,-1.18212 1.18212,-1.18212c0.62687,0 1.1642,0.53733 1.1642,1.18212z"/><path d="M158.48579,92.45312c0,0.08955 -0.0179,0.17911 -0.03582,0.26866v0.60897c0,2.91946 -2.72245,3.85082 -4.621,3.85082c-1.11046,0 -2.00601,-0.30449 -2.40006,-0.48359c-0.50151,-0.21493 -0.77016,-0.57314 -0.77016,-1.00301c0,-0.53733 0.42986,-0.93136 0.93136,-0.93136c0.10747,0 0.25074,0.01791 0.48359,0.08955c0.35821,0.08955 0.96718,0.30448 1.77317,0.30448c1.45078,0 2.25676,-0.77016 2.25676,-1.8269v-1.21794c-0.1433,0.55524 -1.09256,1.52241 -2.6508,1.52241c-1.97019,0 -4.33442,-1.52241 -4.33442,-4.78219c0,-3.18813 2.38214,-4.76428 4.33442,-4.76428c1.27167,0 2.29259,0.68061 2.6508,1.52242v-0.30449c0,-0.62688 0.53733,-1.1642 1.18212,-1.1642c0.62687,0 1.20002,0.53732 1.20002,1.1642zM156.21113,88.85305c0,-2.02392 -1.3254,-2.75827 -2.32841,-2.75827c-1.18212,0 -2.41796,0.93136 -2.41796,2.75827c0,1.84482 1.23584,2.75827 2.41796,2.75827c1.00301,0 2.32841,-0.73435 2.32841,-2.75827z"/><path d="M169.42933,88.38736v4.04784c0,0.64479 -0.53733,1.1642 -1.18212,1.1642c-0.62687,0 -1.1642,-0.51942 -1.1642,-1.1642v-4.04784c0,-1.61198 -0.84181,-2.27467 -1.89855,-2.27467c-1.61197,0 -2.14929,1.5045 -2.22094,2.00601v4.31651c0,0.64479 -0.53733,1.1642 -1.16421,1.1642c-0.64479,0 -1.18212,-0.51941 -1.18212,-1.1642v-10.54947c0,-0.62688 0.53732,-1.1642 1.18212,-1.1642c0.62687,0 1.16421,0.53732 1.16421,1.1642v4.33442c0.07164,-0.64479 1.12838,-2.11348 3.06275,-2.11348c1.80899,0 3.40305,1.18212 3.40305,4.28068z"/></g></g><path d="M539.19013,121.57835h-3.97589" fill="none" fill-rule="nonzero" stroke="#3eb5fa" stroke-width="7" stroke-linecap="round" stroke-linejoin="miter"/><path d="M464.27442,86.91519l-26.93346,-21.01523" data-paper-data="{&quot;index&quot;:null}" fill="none" fill-rule="nonzero" stroke="#502bff" stroke-width="25" stroke-linecap="round" stroke-linejoin="miter"/><path d="M534.30237,121.46899l-134.64112,-106.04543" data-paper-data="{&quot;index&quot;:null}" fill="none" fill-rule="nonzero" stroke="#3eb5fa" stroke-width="7" stroke-linecap="round" stroke-linejoin="miter"/><path d="M332.21605,26.47881h-29.53836" data-paper-data="{&quot;index&quot;:null}" fill="none" fill-rule="nonzero" stroke="#4b2af5" stroke-width="15" stroke-linecap="round" stroke-linejoin="miter"/></g></g></svg>