<svg version="1.1" xmlns="http://www.w3.org/2000/svg" xmlns:xlink="http://www.w3.org/1999/xlink" width="106.71729" height="138.42315" viewBox="0,0,106.71729,138.42315"><defs><linearGradient x1="240.00006" y1="164.21072" x2="240.00006" y2="195.78928" gradientUnits="userSpaceOnUse" id="color-1"><stop offset="0" stop-color="#005d82"/><stop offset="1" stop-color="#112e54"/></linearGradient><linearGradient x1="240.00006" y1="174.00183" x2="240.00006" y2="185.99817" gradientUnits="userSpaceOnUse" id="color-2"><stop offset="0" stop-color="#064b71"/><stop offset="1" stop-color="#0b3e64"/></linearGradient></defs><g transform="translate(-181.59895,-71.70901)"><g data-paper-data="{&quot;isPaintingLayer&quot;:true}" stroke="none" stroke-miterlimit="10" stroke-dasharray="" stroke-dashoffset="0" style="mix-blend-mode: normal"><g fill-rule="nonzero" stroke-width="1" stroke-linecap="butt" stroke-linejoin="miter"><path d="M275.44813,122.97758l-30.16483,49.61728c-1.61908,-1.12828 -3.58761,-1.78988 -5.71066,-1.78988c-2.01798,0 -3.89635,0.59774 -5.46773,1.62582l-30.05303,-49.45322c0,0 1.01254,-2.9706 4.37611,-2.98583l25.43313,43.366l-15.765,-44.89962l5.01413,-1.71081l14.28233,43.58053l-0.29156,-44.14104h5.29778v43.84948l13.99077,-43.28897l5.01413,1.71081l-14.89033,43.73339l24.55863,-42.19977c3.36357,0.01506 4.37611,2.98583 4.37611,2.98583z" fill="#424242"/><path d="M275.45033,122.97758h-0.01709c-2.38522,-2.17198 -5.55603,-3.49642 -9.03604,-3.49642c-3.4069,0 -6.51509,1.27148 -8.88237,3.3629c-2.36728,-2.09143 -5.47564,-3.3629 -8.88254,-3.3629c-3.40673,0 -6.51509,1.27148 -8.88237,3.3629v0v0c-2.36711,-2.09143 -5.47547,-3.3629 -8.88237,-3.3629c-3.4069,0 -6.51526,1.27148 -8.88254,3.3629c-2.36711,-2.09143 -5.47547,-3.3629 -8.88237,-3.3629c-3.48034,0 -6.65082,1.32428 -9.03603,3.49642h-0.01709c0.73584,-19.08411 16.43641,-34.33027 35.70058,-34.33027c19.26401,0 34.96457,15.24617 35.70025,34.33028z" fill="#ff7565"/><g fill="#ee2712"><path d="M239.74992,88.6473v34.19641c-2.36728,-2.09143 -5.47564,-3.36289 -8.88254,-3.36289c-3.40673,0 -6.51509,1.27147 -8.88237,3.36289c-0.02572,-0.02268 -0.0528,-0.04383 -0.07869,-0.06651c0.43392,-9.63513 8.25535,-34.1299 17.8436,-34.1299z"/><path d="M239.75009,88.6473c19.26418,0 34.96474,15.24617 35.70041,34.33028h-0.01709c-2.38522,-2.17215 -5.55569,-3.49642 -9.03603,-3.49642c-3.36984,0 -6.44639,1.24558 -8.80385,3.29622c-0.43376,-9.63531 -8.25535,-34.13006 -17.84343,-34.13006z"/></g></g><g fill="none" fill-rule="nonzero" stroke-width="1" stroke-linecap="butt" stroke-linejoin="miter" font-family="sans-serif" font-weight="normal" font-size="12" text-anchor="start"/><path d="M213.41688,202.74102v-51.6h49v51.6z" fill="none" fill-rule="nonzero" stroke-width="0" stroke-linecap="butt" stroke-linejoin="miter"/><path d="M213.41688,202.74102v-51.6h49v51.6z" data-paper-data="{&quot;origPos&quot;:null}" fill="none" fill-rule="nonzero" stroke-width="0" stroke-linecap="butt" stroke-linejoin="miter"/><path d="M230.83227,164.21072h18.33558c3.85062,0 6.97197,3.02447 6.97197,6.75559v18.06738c0,3.73084 -3.12134,6.75559 -6.97197,6.75559h-18.33558c-3.85053,0 -6.97203,-3.02476 -6.97203,-6.75559v-18.06738c0,-3.73111 3.1215,-6.75559 6.97203,-6.75559z" data-paper-data="{&quot;origPos&quot;:null}" fill="url(#color-1)" fill-rule="evenodd" stroke-width="14" stroke-linecap="round" stroke-linejoin="round"/><path d="M228.77765,180c0,-6.19795 5.02443,-11.22238 11.22238,-11.22238c6.19795,0 11.22238,5.02443 11.22238,11.22238c0,6.19795 -5.02443,11.22238 -11.22238,11.22238c-6.19795,0 -11.22238,-5.02443 -11.22238,-11.22238z" data-paper-data="{&quot;origPos&quot;:null}" fill="#ffffff" fill-rule="nonzero" stroke-width="0" stroke-linecap="butt" stroke-linejoin="miter"/><path d="M234.00186,180c0,-3.3127 2.68547,-5.99817 5.99817,-5.99817c3.3127,0 5.99817,2.68547 5.99817,5.99817c0,3.3127 -2.68547,5.99817 -5.99817,5.99817c-3.3127,0 -5.99817,-2.68547 -5.99817,-5.99817z" data-paper-data="{&quot;origPos&quot;:null}" fill="url(#color-2)" fill-rule="nonzero" stroke-width="0" stroke-linecap="butt" stroke-linejoin="miter"/><path d="M239.91408,178.15476c0,-1.30779 1.06017,-2.36796 2.36796,-2.36796c1.30779,0 2.36796,1.06017 2.36796,2.36796c0,1.30779 -1.06017,2.36796 -2.36796,2.36796c-1.30779,0 -2.36796,-1.06017 -2.36796,-2.36796z" data-paper-data="{&quot;origPos&quot;:null}" fill="#ffffff" fill-rule="nonzero" stroke-width="0" stroke-linecap="butt" stroke-linejoin="miter"/><path d="M181.59895,210.13216v-138.42314h106.71729v138.42315z" fill="none" fill-rule="nonzero" stroke-width="0" stroke-linecap="butt" stroke-linejoin="miter"/></g></g></svg>