<svg version="1.1" xmlns="http://www.w3.org/2000/svg" xmlns:xlink="http://www.w3.org/1999/xlink" width="67.18593" height="51.81416" viewBox="0,0,67.18593,51.81416"><defs><linearGradient x1="222.61646" y1="180.00001" x2="257.38355" y2="180.00001" gradientUnits="userSpaceOnUse" id="color-1"><stop offset="0" stop-color="#ffffff"/><stop offset="1" stop-color="#e5e5e5"/></linearGradient></defs><g transform="translate(-209.42986,-154.09292)"><g data-paper-data="{&quot;isPaintingLayer&quot;:true}" fill-rule="nonzero" stroke-width="0" stroke-linecap="butt" stroke-linejoin="miter" stroke-miterlimit="10" stroke-dasharray="" stroke-dashoffset="0" style="mix-blend-mode: normal"><path d="M222.81129,181.02954c-0.169,-0.50858 -0.23123,-1.02636 -0.17421,-1.45624c0.07055,-0.55596 0.35176,-1.20148 0.71937,-1.6493c0.10411,-0.12888 2.51212,-2.53022 5.3522,-5.34026c5.5827,-5.52352 5.36503,-5.32081 5.9613,-5.56377c0.42776,-0.17586 0.73528,-0.23261 1.2398,-0.22699c0.38487,0.00183 0.50124,0.01531 0.77579,0.091c2.09314,0.563 3.01958,2.98663 1.83045,4.80188c-0.13358,0.20636 -0.6276,0.71181 -2.62283,2.6914c0,0 -0.48357,0.48091 -0.79308,0.78871c-0.31742,0.31568 -0.80931,0.76434 -0.72652,1.20428c0.07554,0.40141 0.68723,0.45612 1.09567,0.45843c2.37614,0.01345 8.60772,0.0487 8.60772,0.0487l10.6405,0.05696l0.2584,0.07238c1.34693,0.37186 2.26365,1.43705 2.39313,2.77666c0.16021,1.67935 -1.01772,3.17769 -2.69747,3.42524c-0.26216,0.0408 -1.79845,0.03998 -10.7863,-0.00267c0,0 -5.43972,-0.02581 -8.15749,-0.03872c-0.44417,-0.0021 -0.93458,-0.10616 -1.20847,0.24351c-0.239,0.30512 -0.04299,0.82695 0.22958,1.10249c0.42704,0.43167 1.09423,1.10612 1.09423,1.10612c2.5976,2.62563 2.63299,2.6646 2.85359,3.20577c0.18866,0.4537 0.23602,0.69649 0.23681,1.21398c0.00024,0.63068 -0.10856,1.06679 -0.39558,1.57321c-0.92307,1.6354 -3.05016,2.09427 -4.61034,0.99692c-0.22566,-0.15632 -10.26543,-10.2561 -10.57412,-10.63596c-0.19293,-0.23379 -0.46238,-0.70403 -0.5421,-0.94374z" data-paper-data="{&quot;origRot&quot;:0,&quot;index&quot;:null}" fill="url(#color-1)" stroke="#ffffff"/><path d="M209.42986,205.90708v-51.81416h67.18593v51.81416z" fill="none" stroke="none"/></g></g></svg>