<svg version="1.1" xmlns="http://www.w3.org/2000/svg" xmlns:xlink="http://www.w3.org/1999/xlink" width="717.30374" height="338.35477" viewBox="0,0,717.30374,338.35477"><defs><linearGradient x1="343.66303" y1="238.23951" x2="343.66303" y2="267.30665" gradientUnits="userSpaceOnUse" id="color-1"><stop offset="0" stop-color="#93abd5"/><stop offset="1" stop-color="#8494bd"/></linearGradient><linearGradient x1="380.40161" y1="238.16478" x2="380.40161" y2="267.23193" gradientUnits="userSpaceOnUse" id="color-2"><stop offset="0" stop-color="#93abd5"/><stop offset="1" stop-color="#8494bd"/></linearGradient><linearGradient x1="417.67592" y1="238.09004" x2="417.67592" y2="267.1572" gradientUnits="userSpaceOnUse" id="color-3"><stop offset="0" stop-color="#93abd5"/><stop offset="1" stop-color="#8494bd"/></linearGradient><linearGradient x1="382.00055" y1="242.7635" x2="382.00055" y2="274.0055" gradientUnits="userSpaceOnUse" id="color-4"><stop offset="0" stop-color="#90a6d0"/><stop offset="1" stop-color="#828fb7"/></linearGradient><linearGradient x1="321.33747" y1="249.70062" x2="321.33747" y2="281.22038" gradientUnits="userSpaceOnUse" id="color-5"><stop offset="0" stop-color="#8ca0ca"/><stop offset="1" stop-color="#818fb5"/></linearGradient><linearGradient x1="474.20674" y1="248.87047" x2="474.20674" y2="280.57915" gradientUnits="userSpaceOnUse" id="color-6"><stop offset="0" stop-color="#8ca0ca"/><stop offset="1" stop-color="#818fb5"/></linearGradient><linearGradient x1="453.84323" y1="238.4467" x2="453.84323" y2="267.51387" gradientUnits="userSpaceOnUse" id="color-7"><stop offset="0" stop-color="#93abd5"/><stop offset="1" stop-color="#8494bd"/></linearGradient><linearGradient x1="363.24118" y1="275.69615" x2="363.24118" y2="306.10616" gradientUnits="userSpaceOnUse" id="color-8"><stop offset="0" stop-color="#93abd5"/><stop offset="1" stop-color="#8494bd"/></linearGradient><linearGradient x1="400.74897" y1="275.61797" x2="400.74897" y2="306.02798" gradientUnits="userSpaceOnUse" id="color-9"><stop offset="0" stop-color="#93abd5"/><stop offset="1" stop-color="#8494bd"/></linearGradient><linearGradient x1="439.18487" y1="275.5398" x2="439.18487" y2="305.94981" gradientUnits="userSpaceOnUse" id="color-10"><stop offset="0" stop-color="#93abd5"/><stop offset="1" stop-color="#8494bd"/></linearGradient><linearGradient x1="477.62075" y1="275.46159" x2="477.62075" y2="305.87159" gradientUnits="userSpaceOnUse" id="color-11"><stop offset="0" stop-color="#93abd5"/><stop offset="1" stop-color="#8494bd"/></linearGradient><linearGradient x1="515.12853" y1="275.38344" x2="515.12853" y2="305.79344" gradientUnits="userSpaceOnUse" id="color-12"><stop offset="0" stop-color="#93abd5"/><stop offset="1" stop-color="#8494bd"/></linearGradient><linearGradient x1="439.6786" y1="282.28202" x2="439.6786" y2="313.74149" gradientUnits="userSpaceOnUse" id="color-13"><stop offset="0" stop-color="#90a6d0"/><stop offset="1" stop-color="#828fb7"/></linearGradient><linearGradient x1="337.70026" y1="287.08547" x2="337.70026" y2="318.89949" gradientUnits="userSpaceOnUse" id="color-14"><stop offset="0" stop-color="#8ca0ca"/><stop offset="1" stop-color="#818fb5"/></linearGradient><linearGradient x1="573.34906" y1="286.21697" x2="573.34906" y2="319.83268" gradientUnits="userSpaceOnUse" id="color-15"><stop offset="0" stop-color="#8ca0ca"/><stop offset="1" stop-color="#818fb5"/></linearGradient><linearGradient x1="554.77789" y1="276.05226" x2="554.77789" y2="306.46227" gradientUnits="userSpaceOnUse" id="color-16"><stop offset="0" stop-color="#93abd5"/><stop offset="1" stop-color="#8494bd"/></linearGradient><linearGradient x1="310.0907" y1="316.08878" x2="310.0907" y2="345.15595" gradientUnits="userSpaceOnUse" id="color-17"><stop offset="0" stop-color="#93abd5"/><stop offset="1" stop-color="#8494bd"/></linearGradient><linearGradient x1="346.82928" y1="316.01406" x2="346.82928" y2="345.08121" gradientUnits="userSpaceOnUse" id="color-18"><stop offset="0" stop-color="#93abd5"/><stop offset="1" stop-color="#8494bd"/></linearGradient><linearGradient x1="383.5679" y1="315.93931" x2="383.5679" y2="345.00648" gradientUnits="userSpaceOnUse" id="color-19"><stop offset="0" stop-color="#93abd5"/><stop offset="1" stop-color="#8494bd"/></linearGradient><linearGradient x1="348.42822" y1="320.61278" x2="348.42822" y2="351.8548" gradientUnits="userSpaceOnUse" id="color-20"><stop offset="0" stop-color="#90a6d0"/><stop offset="1" stop-color="#828fb7"/></linearGradient><linearGradient x1="287.76514" y1="327.54991" x2="287.76514" y2="359.06966" gradientUnits="userSpaceOnUse" id="color-21"><stop offset="0" stop-color="#8ca0ca"/><stop offset="1" stop-color="#818fb5"/></linearGradient><linearGradient x1="406.84569" y1="326.71975" x2="406.84569" y2="358.42844" gradientUnits="userSpaceOnUse" id="color-22"><stop offset="0" stop-color="#8ca0ca"/><stop offset="1" stop-color="#818fb5"/></linearGradient><linearGradient x1="222.4156" y1="179.96676" x2="222.4156" y2="210.37677" gradientUnits="userSpaceOnUse" id="color-23"><stop offset="0" stop-color="#93abd5"/><stop offset="1" stop-color="#8494bd"/></linearGradient><linearGradient x1="184.90782" y1="178.89039" x2="184.90782" y2="209.3004" gradientUnits="userSpaceOnUse" id="color-24"><stop offset="0" stop-color="#93abd5"/><stop offset="1" stop-color="#8494bd"/></linearGradient><linearGradient x1="146.47193" y1="179.8104" x2="146.47193" y2="210.22041" gradientUnits="userSpaceOnUse" id="color-25"><stop offset="0" stop-color="#93abd5"/><stop offset="1" stop-color="#8494bd"/></linearGradient><linearGradient x1="108.03605" y1="179.73218" x2="108.03605" y2="210.14218" gradientUnits="userSpaceOnUse" id="color-26"><stop offset="0" stop-color="#93abd5"/><stop offset="1" stop-color="#8494bd"/></linearGradient><linearGradient x1="70.52827" y1="179.65405" x2="70.52827" y2="210.06405" gradientUnits="userSpaceOnUse" id="color-27"><stop offset="0" stop-color="#93abd5"/><stop offset="1" stop-color="#8494bd"/></linearGradient><linearGradient x1="145.97819" y1="186.55264" x2="145.97819" y2="218.0121" gradientUnits="userSpaceOnUse" id="color-28"><stop offset="0" stop-color="#90a6d0"/><stop offset="1" stop-color="#828fb7"/></linearGradient><linearGradient x1="247.95654" y1="191.35608" x2="247.95654" y2="223.1701" gradientUnits="userSpaceOnUse" id="color-29"><stop offset="0" stop-color="#8ca0ca"/><stop offset="1" stop-color="#818fb5"/></linearGradient><linearGradient x1="46.4157" y1="190.48758" x2="46.4157" y2="224.10329" gradientUnits="userSpaceOnUse" id="color-30"><stop offset="0" stop-color="#8ca0ca"/><stop offset="1" stop-color="#818fb5"/></linearGradient><linearGradient x1="-62.25074" y1="217.4154" x2="-62.25074" y2="247.82541" gradientUnits="userSpaceOnUse" id="color-31"><stop offset="0" stop-color="#93abd5"/><stop offset="1" stop-color="#8494bd"/></linearGradient><linearGradient x1="-24.74295" y1="217.33722" x2="-24.74295" y2="247.74723" gradientUnits="userSpaceOnUse" id="color-32"><stop offset="0" stop-color="#93abd5"/><stop offset="1" stop-color="#8494bd"/></linearGradient><linearGradient x1="13.69295" y1="217.25905" x2="13.69295" y2="247.66906" gradientUnits="userSpaceOnUse" id="color-33"><stop offset="0" stop-color="#93abd5"/><stop offset="1" stop-color="#8494bd"/></linearGradient><linearGradient x1="52.12883" y1="217.18084" x2="52.12883" y2="247.59084" gradientUnits="userSpaceOnUse" id="color-34"><stop offset="0" stop-color="#93abd5"/><stop offset="1" stop-color="#8494bd"/></linearGradient><linearGradient x1="89.63661" y1="217.10269" x2="89.63661" y2="247.51269" gradientUnits="userSpaceOnUse" id="color-35"><stop offset="0" stop-color="#93abd5"/><stop offset="1" stop-color="#8494bd"/></linearGradient><linearGradient x1="14.18668" y1="224.00128" x2="14.18668" y2="255.46074" gradientUnits="userSpaceOnUse" id="color-36"><stop offset="0" stop-color="#90a6d0"/><stop offset="1" stop-color="#828fb7"/></linearGradient><linearGradient x1="-87.79166" y1="228.80472" x2="-87.79166" y2="260.61874" gradientUnits="userSpaceOnUse" id="color-37"><stop offset="0" stop-color="#8ca0ca"/><stop offset="1" stop-color="#818fb5"/></linearGradient><linearGradient x1="147.85714" y1="227.93622" x2="147.85714" y2="261.55193" gradientUnits="userSpaceOnUse" id="color-38"><stop offset="0" stop-color="#8ca0ca"/><stop offset="1" stop-color="#818fb5"/></linearGradient><linearGradient x1="129.28597" y1="217.77152" x2="129.28597" y2="248.18152" gradientUnits="userSpaceOnUse" id="color-39"><stop offset="0" stop-color="#93abd5"/><stop offset="1" stop-color="#8494bd"/></linearGradient></defs><g transform="translate(118.32252,-52.76198)"><g data-paper-data="{&quot;isPaintingLayer&quot;:true}" stroke-miterlimit="10" stroke-dasharray="" stroke-dashoffset="0" style="mix-blend-mode: normal"><g fill-rule="nonzero" stroke-linejoin="miter"><g data-paper-data="{&quot;index&quot;:null}"><g data-paper-data="{&quot;origPos&quot;:null}" stroke="none" stroke-linecap="butt"><path d="M367.61387,260.41622c0,12.24786 -27.05558,4.43534 -27.05558,4.43534c0,0 -20.84611,7.81253 -20.84611,-4.43534c0,-12.24786 10.72316,-22.17671 23.95085,-22.17671c13.22768,0 23.95085,9.92885 23.95085,22.17671z" data-paper-data="{&quot;origPos&quot;:null}" fill="url(#color-1)" stroke-width="NaN"/><path d="M404.35245,260.34148c0,12.24786 -27.05558,4.43534 -27.05558,4.43534c0,0 -20.84611,7.81253 -20.84611,-4.43534c0,-12.24786 10.72315,-22.17671 23.95085,-22.17671c13.22768,0 23.95085,9.92885 23.95085,22.17671z" data-paper-data="{&quot;origPos&quot;:null}" fill="url(#color-2)" stroke-width="NaN"/><path d="M441.62675,260.26676c0,12.24786 -27.05558,4.43533 -27.05558,4.43533c0,0 -20.84611,7.81253 -20.84611,-4.43533c0,-12.24786 10.72315,-22.17671 23.95085,-22.17671c13.22768,0 23.95085,9.92885 23.95085,22.17671z" data-paper-data="{&quot;origPos&quot;:null}" fill="url(#color-3)" stroke-width="NaN"/><path d="M315.76094,274.979l14.25869,-30.25757l130.33844,-0.21287l13.20843,31.58268z" data-paper-data="{&quot;origPos&quot;:null}" fill="url(#color-4)" stroke-width="0"/><path d="M336.86116,264.78078c0,8.32855 -9.25434,16.4396 -17.82784,16.4396c-8.5735,0 -13.21955,-8.11106 -13.21955,-16.4396c0,-8.32855 6.9502,-15.08016 15.5237,-15.08016c8.5735,0 15.5237,6.75161 15.5237,15.08016z" data-paper-data="{&quot;origPos&quot;:null}" fill="url(#color-5)" stroke-width="0"/><path d="M489.73044,263.95063c0,8.32855 -4.653,16.62852 -13.2265,16.62852c-8.5735,0 -17.8209,-8.29997 -17.8209,-16.62852c0,-5.66446 1.89289,-9.10116 6.55884,-12.31285c3.06243,-2.10796 5.24708,-2.76731 8.96486,-2.76731c8.5735,0 15.5237,6.75162 15.5237,15.08016z" data-paper-data="{&quot;origPos&quot;:null}" fill="url(#color-6)" stroke-width="0"/></g><path d="M315.21524,277.39872c0,0 155.15086,0 161.16562,0" data-paper-data="{&quot;origPos&quot;:null}" fill="#7585b2" stroke="#7585b2" stroke-width="10" stroke-linecap="round"/><path d="M382.63514,273.75644c4.49921,2.53063 -11.64155,3.31201 -19.47868,3.31201c-7.83713,0 -14.74843,5.59214 -14.74843,-0.28571c0,-0.3259 -6.74029,-3.09679 -6.44485,-3.23435c2.99165,-1.39289 5.67713,-1.54472 7.80643,-2.82298c4.68556,-2.81281 7.96956,-2.71514 12.8288,-2.71514c0,0 5.05677,-0.65893 9.67257,2.34864c3.43195,1.91012 5.19549,1.76923 10.36417,3.39753z" data-paper-data="{&quot;origPos&quot;:null}" fill="#7585b2" stroke="none" stroke-width="0" stroke-linecap="butt"/><path d="M419.81643,273.54494c4.49921,2.53063 -11.64155,3.31201 -19.47867,3.31201c-7.83713,0 -14.74844,5.59214 -14.74844,-0.28571c0,-0.3259 -6.74029,-3.09679 -6.44485,-3.23435c2.99165,-1.39289 5.67713,-1.54472 7.80643,-2.82298c4.68556,-2.81281 7.96956,-2.71514 12.8288,-2.71514c0,0 5.05677,-0.65893 9.67257,2.34864c3.43195,1.91012 5.19549,1.76922 10.36417,3.39752z" data-paper-data="{&quot;origPos&quot;:null}" fill="#7585b2" stroke="none" stroke-width="0" stroke-linecap="butt"/></g><path d="M477.79406,260.62342c0,12.24786 -27.05558,4.43533 -27.05558,4.43533c0,0 -20.84611,7.81253 -20.84611,-4.43533c0,-12.24786 10.72315,-22.17671 23.95085,-22.17671c13.22768,0 23.95085,9.92885 23.95085,22.17671z" fill="url(#color-7)" stroke="none" stroke-width="NaN" stroke-linecap="butt"/><path d="M461.53091,273.54497c4.49921,2.53063 -11.64155,3.31201 -19.47867,3.31201c-7.83713,0 -14.74844,5.59214 -14.74844,-0.28571c0,-0.3259 -6.74029,-3.09679 -6.44485,-3.23435c2.99165,-1.39289 5.67713,-1.54472 7.80643,-2.82298c4.68556,-2.81281 7.96956,-2.71514 12.8288,-2.71514c0,0 5.05677,-0.65893 9.67257,2.34864c3.43195,1.91012 5.19549,1.76922 10.36417,3.39752z" data-paper-data="{&quot;origPos&quot;:null}" fill="#7585b2" stroke="none" stroke-width="0" stroke-linecap="butt"/></g><g fill-rule="nonzero" stroke-linejoin="miter"><g><g><g data-paper-data="{&quot;origPos&quot;:null}" stroke="none" stroke-linecap="butt"><path d="M388.29853,298.89739c0,12.81369 -28.3055,4.64025 -28.3055,4.64025c0,0 -21.80916,8.17345 -21.80916,-4.64025c0,-12.81369 11.21855,-23.20124 25.05733,-23.20124c13.83878,0 25.05733,10.38755 25.05733,23.20124z" data-paper-data="{&quot;origPos&quot;:null}" fill="url(#color-8)" stroke-width="NaN"/><path d="M425.80631,298.81921c0,12.81369 -28.3055,4.64025 -28.3055,4.64025c0,0 -21.80916,8.17345 -21.80916,-4.64025c0,-12.81369 11.21855,-23.20124 25.05733,-23.20124c13.83878,0 25.05733,10.38755 25.05733,23.20124z" data-paper-data="{&quot;origPos&quot;:null}" fill="url(#color-9)" stroke-width="NaN"/><path d="M464.2422,298.74104c0,12.81369 -28.3055,4.64025 -28.3055,4.64025c0,0 -21.80916,8.17345 -21.80916,-4.64025c0,-12.81369 11.21854,-23.20124 25.05733,-23.20124c13.83878,0 25.05733,10.38755 25.05733,23.20124z" data-paper-data="{&quot;origPos&quot;:null}" fill="url(#color-10)" stroke-width="NaN"/><path d="M502.67808,298.66283c0,12.81369 -28.3055,4.64024 -28.3055,4.64024c0,0 -21.80916,8.17345 -21.80916,-4.64024c0,-12.81369 11.21854,-23.20124 25.05733,-23.20124c13.83878,0 25.05733,10.38755 25.05733,23.20124z" data-paper-data="{&quot;origPos&quot;:null}" fill="url(#color-11)" stroke-width="NaN"/><path d="M540.18586,298.58468c0,12.81369 -28.3055,4.64024 -28.3055,4.64024c0,0 -21.80916,8.17345 -21.80916,-4.64024c0,-12.81369 11.21855,-23.20124 25.05733,-23.20124c13.83878,0 25.05733,10.38755 25.05733,23.20124z" data-paper-data="{&quot;origPos&quot;:null}" fill="url(#color-12)" stroke-width="NaN"/><path d="M339.96811,313.74149l7.75699,-31.45946l218.88012,-0.31176l3.71646,34.06384z" data-paper-data="{&quot;origPos&quot;:null}" fill="url(#color-13)" stroke-width="0"/><path d="M353.94112,302.86231c0,8.71332 -10.03162,16.03718 -19.00121,16.03718c-8.96958,0 -13.48052,-7.32387 -13.48052,-16.03718c0,-8.71332 7.27128,-15.77684 16.24087,-15.77684c8.96958,0 16.24087,7.06352 16.24087,15.77684z" data-paper-data="{&quot;origPos&quot;:null}" fill="url(#color-14)" stroke-width="0"/><path d="M589.58993,301.99381c0,8.71332 -5.44891,17.83887 -14.4185,17.83887c-8.96958,0 -18.06324,-9.12556 -18.06324,-17.83887c0,-8.71332 7.27127,-15.77684 16.24087,-15.77684c8.96958,0 16.24087,7.06353 16.24087,15.77684z" data-paper-data="{&quot;origPos&quot;:null}" fill="url(#color-15)" stroke-width="0"/></g><path d="M332.56009,317.84779c0,0 239.86282,0 241.02193,0" data-paper-data="{&quot;origPos&quot;:null}" fill="#ffc3d5" stroke="#7585b2" stroke-width="9" stroke-linecap="round"/><path d="M403.94996,314.00588c4.70706,2.64754 -12.17937,3.46502 -20.37856,3.46502c-8.19919,0 -15.42978,5.85048 -15.42978,-0.29891c0,-0.34096 -7.0517,-3.23986 -6.7426,-3.38377c3.12986,-1.45724 5.9394,-1.61608 8.16708,-2.95339c4.90203,-2.94276 8.33774,-2.84057 13.42146,-2.84057c0,0 5.29038,-0.68937 10.11942,2.45714c3.5905,1.99836 5.43552,1.85096 10.84298,3.55449z" data-paper-data="{&quot;origPos&quot;:null}" fill="#7585b2" stroke="none" stroke-width="0" stroke-linecap="butt"/><path d="M441.52159,313.66281c4.70706,2.64754 -12.17937,3.46502 -20.37856,3.46502c-8.19919,0 -15.42978,5.85048 -15.42978,-0.29891c0,-0.34096 -7.05168,-3.23986 -6.74259,-3.38377c3.12986,-1.45724 5.9394,-1.61608 8.16707,-2.95339c4.90203,-2.94276 8.33774,-2.84057 13.42146,-2.84057c0,0 5.29038,-0.68937 10.11942,2.45714c3.5905,1.99836 5.43552,1.85096 10.84298,3.55449z" data-paper-data="{&quot;origPos&quot;:null}" fill="#7585b2" stroke="none" stroke-width="0" stroke-linecap="butt"/><path d="M480.42056,313.44154c4.70706,2.64754 -12.17937,3.46502 -20.37855,3.46502c-8.19919,0 -15.42979,5.85048 -15.42979,-0.29891c0,-0.34096 -7.05168,-3.23986 -6.74259,-3.38377c3.12986,-1.45724 5.9394,-1.61608 8.16707,-2.95339c4.90203,-2.94276 8.33774,-2.84057 13.42146,-2.84057c0,0 5.29038,-0.68937 10.11942,2.45714c3.5905,1.99836 5.43552,1.85095 10.84298,3.55448z" data-paper-data="{&quot;origPos&quot;:null}" fill="#7585b2" stroke="none" stroke-width="0" stroke-linecap="butt"/><path d="M515.99766,313.66281c4.70706,2.64754 -12.17937,3.46502 -20.37855,3.46502c-8.19919,0 -15.42978,5.85048 -15.42978,-0.29891c0,-0.34096 -7.0517,-3.23986 -6.7426,-3.38377c3.12986,-1.45724 5.9394,-1.61608 8.16707,-2.95339c4.90203,-2.94276 8.33774,-2.84057 13.42146,-2.84057c0,0 5.29038,-0.68937 10.11942,2.45714c3.5905,1.99836 5.43552,1.85096 10.84298,3.55449z" data-paper-data="{&quot;origPos&quot;:null}" fill="#7585b2" stroke="none" stroke-width="0" stroke-linecap="butt"/></g><g data-paper-data="{&quot;origPos&quot;:null}" fill="none" stroke="none" stroke-width="1" stroke-linecap="butt" font-family="sans-serif" font-weight="normal" font-size="12" text-anchor="start"><g data-paper-data="{&quot;origPos&quot;:null}"/></g></g><path d="M579.83522,299.25351c0,12.81369 -28.3055,4.64024 -28.3055,4.64024c0,0 -21.80916,8.17345 -21.80916,-4.64024c0,-12.81369 11.21855,-23.20124 25.05733,-23.20124c13.83878,0 25.05733,10.38755 25.05733,23.20124z" fill="url(#color-16)" stroke="none" stroke-width="NaN" stroke-linecap="butt"/><path d="M557.58769,313.66281c4.70706,2.64754 -12.17937,3.46502 -20.37855,3.46502c-8.19919,0 -15.42978,5.85048 -15.42978,-0.29891c0,-0.34096 -7.0517,-3.23986 -6.7426,-3.38377c3.12986,-1.45724 5.9394,-1.61608 8.16707,-2.95339c4.90203,-2.94276 8.33774,-2.84057 13.42146,-2.84057c0,0 5.29038,-0.68937 10.11942,2.45714c3.5905,1.99836 5.43552,1.85096 10.84298,3.55449z" fill="#7585b2" stroke="none" stroke-width="0" stroke-linecap="butt"/></g><g data-paper-data="{&quot;index&quot;:null}" fill-rule="nonzero" stroke-linejoin="miter"><g data-paper-data="{&quot;origPos&quot;:null}" stroke="none" stroke-linecap="butt"><path d="M334.04154,338.2655c0,12.24786 -27.05558,4.43534 -27.05558,4.43534c0,0 -20.84611,7.81253 -20.84611,-4.43534c0,-12.24786 10.72316,-22.17671 23.95085,-22.17671c13.22768,0 23.95085,9.92885 23.95085,22.17671z" data-paper-data="{&quot;origPos&quot;:null}" fill="url(#color-17)" stroke-width="NaN"/><path d="M370.78012,338.19078c0,12.24786 -27.05558,4.43534 -27.05558,4.43534c0,0 -20.84611,7.81253 -20.84611,-4.43534c0,-12.24786 10.72315,-22.17671 23.95085,-22.17671c13.22768,0 23.95085,9.92885 23.95085,22.17671z" data-paper-data="{&quot;origPos&quot;:null}" fill="url(#color-18)" stroke-width="NaN"/><path d="M407.51873,338.11603c0,12.24786 -27.05558,4.43533 -27.05558,4.43533c0,0 -20.84611,7.81253 -20.84611,-4.43533c0,-12.24786 10.72315,-22.17671 23.95085,-22.17671c13.22768,0 23.95085,9.92885 23.95085,22.17671z" data-paper-data="{&quot;origPos&quot;:null}" fill="url(#color-19)" stroke-width="NaN"/><path d="M282.18861,352.82827l14.25869,-30.25757l98.29131,-1.46022l20.22687,30.74431z" data-paper-data="{&quot;origPos&quot;:null}" fill="url(#color-20)" stroke-width="0"/><path d="M303.28883,342.63006c0,8.32855 -9.25434,16.4396 -17.82784,16.4396c-8.5735,0 -13.21955,-8.11106 -13.21955,-16.4396c0,-8.32855 6.9502,-15.08016 15.5237,-15.08016c8.5735,0 15.5237,6.75161 15.5237,15.08016z" data-paper-data="{&quot;origPos&quot;:null}" fill="url(#color-21)" stroke-width="0"/><path d="M422.36939,341.79991c0,8.32855 -4.653,16.62852 -13.2265,16.62852c-8.5735,0 -17.8209,-8.29997 -17.8209,-16.62852c0,-5.66446 1.89289,-9.10116 6.55884,-12.31285c3.06243,-2.10796 5.24708,-2.76731 8.96486,-2.76731c8.5735,0 15.5237,6.75162 15.5237,15.08016z" data-paper-data="{&quot;origPos&quot;:null}" fill="url(#color-22)" stroke-width="0"/></g><path d="M281.64291,355.24801c0,0 36.85514,0 85.77422,0c15.5848,0 33.91934,0 39.9341,0c2.00492,0 1.97146,0 1.97146,0" data-paper-data="{&quot;origPos&quot;:null}" fill="#7585b2" stroke="#7585b2" stroke-width="10" stroke-linecap="round"/><path d="M349.06281,351.60572c4.49921,2.53063 -11.64155,3.31201 -19.47868,3.31201c-7.83713,0 -14.74843,5.59214 -14.74843,-0.28571c0,-0.3259 -6.74029,-3.09679 -6.44485,-3.23435c2.99165,-1.39289 5.67713,-1.54472 7.80643,-2.82298c4.68556,-2.81281 7.96956,-2.71514 12.8288,-2.71514c0,0 5.05677,-0.65893 9.67257,2.34864c3.43195,1.91012 5.19549,1.76923 10.36417,3.39753z" data-paper-data="{&quot;origPos&quot;:null}" fill="#7585b2" stroke="none" stroke-width="0" stroke-linecap="butt"/><path d="M386.2441,351.39423c4.49921,2.53063 -11.64155,3.31201 -19.47867,3.31201c-7.83713,0 -14.74844,5.59214 -14.74844,-0.28571c0,-0.3259 -6.74029,-3.09679 -6.44485,-3.23435c2.99165,-1.39289 5.67713,-1.54472 7.80643,-2.82298c4.68556,-2.81281 7.96956,-2.71514 12.8288,-2.71514c0,0 5.05677,-0.65893 9.67257,2.34864c3.43195,1.91012 5.19549,1.76922 10.36417,3.39752z" data-paper-data="{&quot;origPos&quot;:null}" fill="#7585b2" stroke="none" stroke-width="0" stroke-linecap="butt"/></g><path d="M-118.32252,391.11676v-338.35477h717.30374v338.35477z" fill="none" fill-rule="nonzero" stroke="none" stroke-width="NaN" stroke-linecap="butt" stroke-linejoin="miter"/><g data-paper-data="{&quot;index&quot;:null}" fill-rule="nonzero" stroke-linejoin="miter"><g><g data-paper-data="{&quot;origPos&quot;:null}" stroke="none" stroke-linecap="butt"><path d="M222.4156,179.96676c13.83878,0 25.05733,10.38755 25.05733,23.20124c0,12.8137 -21.80916,4.64025 -21.80916,4.64025c0,0 -28.3055,8.17344 -28.3055,-4.64025c0,-12.81369 11.21855,-23.20124 25.05733,-23.20124z" data-paper-data="{&quot;origPos&quot;:null}" fill="url(#color-23)" stroke-width="NaN"/><path d="M184.90782,178.89039c13.83878,0 25.05733,10.38755 25.05733,23.20124c0,12.8137 -21.80916,4.64025 -21.80916,4.64025c0,0 -28.3055,8.17344 -28.3055,-4.64025c0,-12.81369 11.21855,-23.20124 25.05733,-23.20124z" data-paper-data="{&quot;origPos&quot;:null}" fill="url(#color-24)" stroke-width="NaN"/><path d="M146.47193,179.8104c13.83879,0 25.05733,10.38755 25.05733,23.20124c0,12.8137 -21.80916,4.64025 -21.80916,4.64025c0,0 -28.3055,8.17344 -28.3055,-4.64025c0,-12.81369 11.21855,-23.20124 25.05733,-23.20124z" data-paper-data="{&quot;origPos&quot;:null}" fill="url(#color-25)" stroke-width="NaN"/><path d="M108.03605,179.73218c13.83879,0 25.05733,10.38755 25.05733,23.20124c0,12.81369 -21.80916,4.64024 -21.80916,4.64024c0,0 -28.3055,8.17345 -28.3055,-4.64024c0,-12.81369 11.21855,-23.20124 25.05733,-23.20124z" data-paper-data="{&quot;origPos&quot;:null}" fill="url(#color-26)" stroke-width="NaN"/><path d="M70.52827,179.65405c13.83878,0 25.05733,10.38755 25.05733,23.20124c0,12.81369 -21.80916,4.64024 -21.80916,4.64024c0,0 -28.3055,8.17345 -28.3055,-4.64024c0,-12.81369 11.21855,-23.20124 25.05733,-23.20124z" data-paper-data="{&quot;origPos&quot;:null}" fill="url(#color-27)" stroke-width="NaN"/><path d="M46.26769,217.96528l8.55863,-30.84793l183.10537,-0.56471l7.75699,31.45946z" data-paper-data="{&quot;origPos&quot;:null}" fill="url(#color-28)" stroke-width="0"/><path d="M231.71567,207.13292c0,-8.71332 7.27129,-15.77684 16.24087,-15.77684c8.96959,0 16.24087,7.06352 16.24087,15.77684c0,8.71331 -4.51094,16.03718 -13.48052,16.03718c-8.96959,0 -19.00121,-7.32386 -19.00121,-16.03718z" data-paper-data="{&quot;origPos&quot;:null}" fill="url(#color-29)" stroke-width="0"/><path d="M46.4157,190.48758c8.9696,0 16.24087,7.06352 16.24087,15.77684c0,8.71331 -9.09366,17.83887 -18.06324,17.83887c-8.96959,0 -14.4185,-9.12555 -14.4185,-17.83887c0,-8.71331 7.27129,-15.77684 16.24087,-15.77684z" data-paper-data="{&quot;origPos&quot;:null}" fill="url(#color-30)" stroke-width="0"/></g><path d="M253.09671,220.72975c0,0 -208.6703,0 -209.82941,0" data-paper-data="{&quot;origPos&quot;:null}" fill="#ffc3d5" stroke="#7585b2" stroke-width="9" stroke-linecap="round"/><path d="M181.70684,216.88786c5.40746,-1.70353 7.25248,-1.55613 10.84298,-3.55449c4.82904,-3.14651 10.11942,-2.45714 10.11942,-2.45714c5.08372,0 8.51943,-0.10219 13.42146,2.84057c2.22768,1.33731 5.03722,1.49615 8.16708,2.95339c0.3091,0.14391 -6.7426,3.04281 -6.7426,3.38377c0,6.14939 -7.23059,0.29891 -15.42978,0.29891c-8.19919,0 -25.08562,-0.81748 -20.37856,-3.46502z" data-paper-data="{&quot;origPos&quot;:null}" fill="#7585b2" stroke="none" stroke-width="0" stroke-linecap="butt"/><path d="M144.13521,216.54478c5.40746,-1.70353 7.25248,-1.55613 10.84298,-3.55449c4.82904,-3.14651 10.11942,-2.45714 10.11942,-2.45714c5.08372,0 8.51943,-0.10219 13.42146,2.84057c2.22767,1.33731 5.03721,1.49615 8.16707,2.95339c0.30909,0.14391 -6.74259,3.04281 -6.74259,3.38377c0,6.14939 -7.23059,0.29891 -15.42978,0.29891c-8.19919,0 -25.08562,-0.81748 -20.37856,-3.46502z" data-paper-data="{&quot;origPos&quot;:null}" fill="#7585b2" stroke="none" stroke-width="0" stroke-linecap="butt"/><path d="M116.07922,212.76902c4.82904,-3.14651 10.11942,-2.45714 10.11942,-2.45714c5.08372,0 8.51943,-0.10219 13.42146,2.84057c2.22767,1.33731 5.03721,1.49615 8.16707,2.95339c0.30909,0.14391 -6.74259,3.04281 -6.74259,3.38377c0,6.14939 -7.2306,0.29891 -15.42979,0.29891c-8.19918,0 -25.08561,-0.81748 -20.37855,-3.46502c5.40746,-1.70353 7.25248,-1.55612 10.84298,-3.55448z" data-paper-data="{&quot;origPos&quot;:null}" fill="#7585b2" stroke="none" stroke-width="0" stroke-linecap="butt"/><path d="M69.65914,216.54478c5.40746,-1.70353 7.25248,-1.55613 10.84298,-3.55449c4.82904,-3.14651 10.11942,-2.45714 10.11942,-2.45714c5.08372,0 8.51943,-0.10219 13.42146,2.84057c2.22767,1.33731 5.03721,1.49615 8.16707,2.95339c0.3091,0.14391 -6.7426,3.04281 -6.7426,3.38377c0,6.14939 -7.23059,0.29891 -15.42978,0.29891c-8.19918,0 -25.08561,-0.81748 -20.37855,-3.46502z" data-paper-data="{&quot;origPos&quot;:null}" fill="#7585b2" stroke="none" stroke-width="0" stroke-linecap="butt"/></g><g data-paper-data="{&quot;origPos&quot;:null}" fill="none" stroke="none" stroke-width="1" stroke-linecap="butt" font-family="sans-serif" font-weight="normal" font-size="12" text-anchor="start"><g data-paper-data="{&quot;origPos&quot;:null}"/></g></g><g fill-rule="nonzero" stroke-linejoin="miter"><g><g><g data-paper-data="{&quot;origPos&quot;:null}" stroke="none" stroke-linecap="butt"><path d="M-37.19339,240.61664c0,12.81369 -28.3055,4.64025 -28.3055,4.64025c0,0 -21.80916,8.17345 -21.80916,-4.64025c0,-12.81369 11.21855,-23.20124 25.05733,-23.20124c13.83878,0 25.05733,10.38755 25.05733,23.20124z" data-paper-data="{&quot;origPos&quot;:null}" fill="url(#color-31)" stroke-width="NaN"/><path d="M0.31439,240.53846c0,12.81369 -28.3055,4.64025 -28.3055,4.64025c0,0 -21.80916,8.17345 -21.80916,-4.64025c0,-12.81369 11.21855,-23.20124 25.05733,-23.20124c13.83878,0 25.05733,10.38755 25.05733,23.20124z" data-paper-data="{&quot;origPos&quot;:null}" fill="url(#color-32)" stroke-width="NaN"/><path d="M38.75028,240.46029c0,12.81369 -28.3055,4.64025 -28.3055,4.64025c0,0 -21.80916,8.17345 -21.80916,-4.64025c0,-12.81369 11.21854,-23.20124 25.05733,-23.20124c13.83878,0 25.05733,10.38755 25.05733,23.20124z" data-paper-data="{&quot;origPos&quot;:null}" fill="url(#color-33)" stroke-width="NaN"/><path d="M77.18616,240.38208c0,12.81369 -28.3055,4.64024 -28.3055,4.64024c0,0 -21.80916,8.17345 -21.80916,-4.64024c0,-12.81369 11.21854,-23.20124 25.05733,-23.20124c13.83878,0 25.05733,10.38755 25.05733,23.20124z" data-paper-data="{&quot;origPos&quot;:null}" fill="url(#color-34)" stroke-width="NaN"/><path d="M114.69394,240.30393c0,12.81369 -28.3055,4.64024 -28.3055,4.64024c0,0 -21.80916,8.17345 -21.80916,-4.64024c0,-12.81369 11.21855,-23.20124 25.05733,-23.20124c13.83878,0 25.05733,10.38755 25.05733,23.20124z" data-paper-data="{&quot;origPos&quot;:null}" fill="url(#color-35)" stroke-width="NaN"/><path d="M-85.52381,255.46074l7.75699,-31.45946l218.88012,-0.31176l3.71646,34.06384z" data-paper-data="{&quot;origPos&quot;:null}" fill="url(#color-36)" stroke-width="0"/><path d="M-71.5508,244.58156c0,8.71332 -10.03162,16.03718 -19.00121,16.03718c-8.96958,0 -13.48052,-7.32387 -13.48052,-16.03718c0,-8.71332 7.27128,-15.77684 16.24087,-15.77684c8.96958,0 16.24087,7.06352 16.24087,15.77684z" data-paper-data="{&quot;origPos&quot;:null}" fill="url(#color-37)" stroke-width="0"/><path d="M164.09801,243.71306c0,8.71332 -5.44891,17.83887 -14.4185,17.83887c-8.96958,0 -18.06324,-9.12556 -18.06324,-17.83887c0,-8.71332 7.27127,-15.77684 16.24087,-15.77684c8.96958,0 16.24087,7.06353 16.24087,15.77684z" data-paper-data="{&quot;origPos&quot;:null}" fill="url(#color-38)" stroke-width="0"/></g><path d="M148.0901,259.56703c-1.15911,0 -241.02193,0 -241.02193,0" data-paper-data="{&quot;origPos&quot;:null}" fill="#ffc3d5" stroke="#7585b2" stroke-width="9" stroke-linecap="round"/><path d="M-21.54196,255.72514c4.70706,2.64754 -12.17937,3.46502 -20.37856,3.46502c-8.19919,0 -15.42978,5.85048 -15.42978,-0.29891c0,-0.34096 -7.0517,-3.23986 -6.7426,-3.38377c3.12986,-1.45724 5.9394,-1.61608 8.16708,-2.95339c4.90203,-2.94276 8.33774,-2.84057 13.42146,-2.84057c0,0 5.29038,-0.68937 10.11942,2.45714c3.5905,1.99836 5.43552,1.85096 10.84298,3.55449z" data-paper-data="{&quot;origPos&quot;:null}" fill="#7585b2" stroke="none" stroke-width="0" stroke-linecap="butt"/><path d="M16.02967,255.38206c4.70706,2.64754 -12.17937,3.46502 -20.37856,3.46502c-8.19919,0 -15.42978,5.85048 -15.42978,-0.29891c0,-0.34096 -7.05168,-3.23986 -6.74259,-3.38377c3.12986,-1.45724 5.9394,-1.61608 8.16707,-2.95339c4.90203,-2.94276 8.33774,-2.84057 13.42146,-2.84057c0,0 5.29038,-0.68937 10.11942,2.45714c3.5905,1.99836 5.43552,1.85096 10.84298,3.55449z" data-paper-data="{&quot;origPos&quot;:null}" fill="#7585b2" stroke="none" stroke-width="0" stroke-linecap="butt"/><path d="M54.92864,255.16079c4.70706,2.64754 -12.17937,3.46502 -20.37855,3.46502c-8.19919,0 -15.42979,5.85048 -15.42979,-0.29891c0,-0.34096 -7.05168,-3.23986 -6.74259,-3.38377c3.12986,-1.45724 5.9394,-1.61608 8.16707,-2.95339c4.90203,-2.94276 8.33774,-2.84057 13.42146,-2.84057c0,0 5.29038,-0.68937 10.11942,2.45714c3.5905,1.99836 5.43552,1.85095 10.84298,3.55448z" data-paper-data="{&quot;origPos&quot;:null}" fill="#7585b2" stroke="none" stroke-width="0" stroke-linecap="butt"/><path d="M90.50574,255.38206c4.70706,2.64754 -12.17937,3.46502 -20.37855,3.46502c-8.19919,0 -15.42978,5.85048 -15.42978,-0.29891c0,-0.34096 -7.0517,-3.23986 -6.7426,-3.38377c3.12986,-1.45724 5.9394,-1.61608 8.16707,-2.95339c4.90203,-2.94276 8.33774,-2.84057 13.42146,-2.84057c0,0 5.29038,-0.68937 10.11942,2.45714c3.5905,1.99836 5.43552,1.85096 10.84298,3.55449z" data-paper-data="{&quot;origPos&quot;:null}" fill="#7585b2" stroke="none" stroke-width="0" stroke-linecap="butt"/></g><g data-paper-data="{&quot;origPos&quot;:null}" fill="none" stroke="none" stroke-width="1" stroke-linecap="butt" font-family="sans-serif" font-weight="normal" font-size="12" text-anchor="start"><g data-paper-data="{&quot;origPos&quot;:null}"/></g></g><path d="M154.3433,240.97276c0,12.81369 -28.3055,4.64024 -28.3055,4.64024c0,0 -21.80916,8.17345 -21.80916,-4.64024c0,-12.81369 11.21855,-23.20124 25.05733,-23.20124c13.83878,0 25.05733,10.38755 25.05733,23.20124z" fill="url(#color-39)" stroke="none" stroke-width="NaN" stroke-linecap="butt"/><path d="M132.09577,255.38206c4.70706,2.64754 -12.17937,3.46502 -20.37855,3.46502c-8.19919,0 -15.42978,5.85048 -15.42978,-0.29891c0,-0.34096 -7.0517,-3.23986 -6.7426,-3.38377c3.12986,-1.45724 5.9394,-1.61608 8.16707,-2.95339c4.90203,-2.94276 8.33774,-2.84057 13.42146,-2.84057c0,0 5.29038,-0.68937 10.11942,2.45714c3.5905,1.99836 5.43552,1.85096 10.84298,3.55449z" fill="#7585b2" stroke="none" stroke-width="0" stroke-linecap="butt"/></g><g fill="#ffffff" fill-rule="evenodd" stroke="none" stroke-width="1" stroke-linecap="round" stroke-linejoin="round"><path d="M42.84715,144.16799c0,0 -1.00625,0.28041 -1.29211,0.85913c-0.28587,0.57872 0.11961,1.51452 0.11961,1.51452c0,0 2.48306,6.50525 4.15502,11.13067c0.40837,1.12975 -0.15285,2.88608 -1.51985,3.23692c-1.36699,0.35084 -2.77065,-0.72083 -3.30004,-1.75603c-0.52938,-1.03521 -4.40805,-12.00092 -4.76968,-13.24192c-0.36162,-1.241 -0.44197,-2.52157 0.08003,-3.63988c0.522,-1.11831 1.8169,-1.89859 2.97631,-2.31959c1.15942,-0.42099 13.77554,-4.25164 13.77554,-4.25164c1.25615,-0.36916 2.82579,0.20619 3.39512,1.58587c0.56932,1.37967 -0.36749,2.78998 -1.4558,3.11383z" data-paper-data="{&quot;origPos&quot;:null,&quot;origRot&quot;:0,&quot;index&quot;:null}" opacity="0.42445"/><path d="M25.78357,135.28322c0,0 -1.00626,0.2804 -1.29211,0.85913c-0.28587,0.57872 0.11962,1.51451 0.11962,1.51451c0,0 2.48306,6.50525 4.15501,11.13068c0.40837,1.12975 -0.15283,2.88608 -1.51984,3.23691c-1.36699,0.35084 -2.77067,-0.72084 -3.30004,-1.75604c-0.52938,-1.03521 -4.40805,-12.00092 -4.76968,-13.24192c-0.36162,-1.241 -0.44198,-2.52158 0.08002,-3.63989c0.522,-1.11831 1.81691,-1.89857 2.97632,-2.31957c1.15942,-0.42099 13.77554,-4.25165 13.77554,-4.25165c1.25615,-0.36916 2.82579,0.20619 3.3951,1.58586c0.56932,1.37967 -0.36749,2.78999 -1.45579,3.11383z" data-paper-data="{&quot;origPos&quot;:null,&quot;origRot&quot;:0,&quot;index&quot;:null}" opacity="0.42445"/><path d="M8.72,126.39847c0,0 -1.00626,0.2804 -1.29211,0.85913c-0.28587,0.57872 0.11962,1.51451 0.11962,1.51451c0,0 2.48306,6.50525 4.15501,11.13068c0.40837,1.12975 -0.15283,2.88608 -1.51984,3.23691c-1.367,0.35084 -2.77067,-0.72084 -3.30005,-1.75604c-0.52938,-1.03521 -4.40805,-12.00092 -4.76967,-13.24192c-0.36162,-1.241 -0.44197,-2.52158 0.08003,-3.63989c0.522,-1.11831 1.8169,-1.89858 2.97631,-2.31959c1.15942,-0.42099 13.77554,-4.25164 13.77554,-4.25164c1.25615,-0.36916 2.82579,0.2062 3.39512,1.58587c0.56933,1.37968 -0.36749,2.78998 -1.45579,3.11383z" data-paper-data="{&quot;origPos&quot;:null,&quot;origRot&quot;:0,&quot;index&quot;:null}" opacity="0.42445"/></g></g></g></svg>