<svg version="1.1" xmlns="http://www.w3.org/2000/svg" xmlns:xlink="http://www.w3.org/1999/xlink" width="519" height="401.57092" viewBox="0,0,519,401.57092"><g transform="translate(26.38051,23.91582)"><g data-paper-data="{&quot;isPaintingLayer&quot;:true}" stroke-miterlimit="10" stroke-dasharray="" stroke-dashoffset="0" style="mix-blend-mode: normal"><path d="M4.619,362.71602l-0.29408,-173.46809l156.33422,1.85239l0.24171,-77.72311l107.03042,0.01408l-3.22897,117.11823l192.61319,-1.71411v133.29809z" data-paper-data="{&quot;index&quot;:null}" fill="#4000af" fill-rule="nonzero" stroke="none" stroke-width="0" stroke-linecap="butt" stroke-linejoin="miter"/><path d="M177.51663,171.935v28.7455h-173.28431v-28.88932z" data-paper-data="{&quot;index&quot;:null}" fill="#4926f1" fill-rule="nonzero" stroke="none" stroke-width="0" stroke-linecap="butt" stroke-linejoin="miter"/><path d="M7.44149,171.42839h152.75239" data-paper-data="{&quot;index&quot;:null}" fill="none" fill-rule="nonzero" stroke="#3eb5fa" stroke-width="7" stroke-linecap="round" stroke-linejoin="miter"/><path d="M457.55025,208.07768v28.37682h-178.6063v-28.53476z" data-paper-data="{&quot;index&quot;:null}" fill="#4926f1" fill-rule="nonzero" stroke="none" stroke-width="0" stroke-linecap="butt" stroke-linejoin="miter"/><path d="M280.02414,207.61381h174.93191" data-paper-data="{&quot;index&quot;:null}" fill="none" fill-rule="nonzero" stroke="#3eb5fa" stroke-width="7" stroke-linecap="round" stroke-linejoin="miter"/><path d="M255.15371,113.16229h25.10885v108.86127h-25.20355z" data-paper-data="{&quot;index&quot;:null}" fill="#4926f1" fill-rule="nonzero" stroke="none" stroke-width="0" stroke-linecap="butt" stroke-linejoin="miter"/><path d="M328.64878,223.81218l-60.06344,0.22044c0,0 -0.96018,0.14795 -0.95924,-0.9462c0.00075,-0.87216 -0.14399,-30.77424 -0.14399,-30.77424" data-paper-data="{&quot;index&quot;:null}" fill="none" fill-rule="nonzero" stroke="#502bff" stroke-width="25" stroke-linecap="round" stroke-linejoin="miter"/><path d="M280.30323,104.65068l-0.2,34.98092h-119.48463v-35.17562z" data-paper-data="{&quot;index&quot;:null}" fill="#4926f1" fill-rule="nonzero" stroke="none" stroke-width="0" stroke-linecap="butt" stroke-linejoin="miter"/><path d="M276.87917,103.67187h-113.04205" data-paper-data="{&quot;index&quot;:null}" fill="none" fill-rule="nonzero" stroke="#3eb5fa" stroke-width="7" stroke-linecap="round" stroke-linejoin="miter"/><path d="M160.64864,125.63259h25.10885v67.29099h-25.20355z" data-paper-data="{&quot;index&quot;:null}" fill="#4926f1" fill-rule="nonzero" stroke="none" stroke-width="0" stroke-linecap="butt" stroke-linejoin="miter"/><path d="M247.61963,140.03882v29.58795" data-paper-data="{&quot;index&quot;:null}" fill="none" fill-rule="nonzero" stroke="#4000af" stroke-width="15" stroke-linecap="round" stroke-linejoin="miter"/><path d="M185.29641,132.18271l5.02488,-3.14055" data-paper-data="{&quot;index&quot;:null}" fill="none" fill-rule="nonzero" stroke="#502bff" stroke-width="25" stroke-linecap="round" stroke-linejoin="miter"/><path d="M193.12141,139.97122v29.58795" data-paper-data="{&quot;index&quot;:null}" fill="none" fill-rule="nonzero" stroke="#4000af" stroke-width="15" stroke-linecap="round" stroke-linejoin="miter"/><path d="M247.45595,139.57575h-53.78946" data-paper-data="{&quot;index&quot;:null}" fill="none" fill-rule="nonzero" stroke="#4000af" stroke-width="15" stroke-linecap="round" stroke-linejoin="miter"/><path d="M172.85319,167.66968c0,0 -0.08932,-41.1712 0.23687,-46.48258c0.06823,-1.11105 1.62514,-1.58624 1.62514,-1.58624l34.18591,0.2391" data-paper-data="{&quot;index&quot;:null}" fill="none" fill-rule="nonzero" stroke="#502bff" stroke-width="25" stroke-linecap="round" stroke-linejoin="miter"/><path d="M178.22479,193.14036h-27.45423" data-paper-data="{&quot;index&quot;:null}" fill="none" fill-rule="nonzero" stroke="#4926f1" stroke-width="15" stroke-linecap="round" stroke-linejoin="miter"/><path d="M102.09106,187.55847h-34.16213" data-paper-data="{&quot;index&quot;:null}" fill="none" fill-rule="nonzero" stroke="#502bff" stroke-width="25" stroke-linecap="round" stroke-linejoin="miter"/><path d="M82.26667,299.11104h153.59555" data-paper-data="{&quot;index&quot;:null}" fill="none" fill-rule="nonzero" stroke="#3d00a3" stroke-width="30" stroke-linecap="round" stroke-linejoin="miter"/><path d="M98.29322,240.34972h83.75037" data-paper-data="{&quot;index&quot;:null}" fill="none" fill-rule="nonzero" stroke="#3d00a3" stroke-width="30" stroke-linecap="round" stroke-linejoin="miter"/><path d="M172.51941,269.83004h-53.32889" data-paper-data="{&quot;index&quot;:null}" fill="none" fill-rule="nonzero" stroke="#3d00a3" stroke-width="29.5" stroke-linecap="round" stroke-linejoin="miter"/><path d="M72.44164,270.15125h44.32889" data-paper-data="{&quot;index&quot;:null}" fill="none" fill-rule="nonzero" stroke="#4000af" stroke-width="29" stroke-linecap="round" stroke-linejoin="miter"/><path d="M217.99974,269.69356h-44.32889" data-paper-data="{&quot;index&quot;:null}" fill="none" fill-rule="nonzero" stroke="#4000af" stroke-width="29" stroke-linecap="round" stroke-linejoin="miter"/><path d="M114.6864,329.24481h-60.86188" data-paper-data="{&quot;index&quot;:null}" fill="none" fill-rule="nonzero" stroke="#39009c" stroke-width="30" stroke-linecap="round" stroke-linejoin="miter"/><path d="M-26.38051,377.6551v-303h519l-1,303z" fill="none" fill-rule="nonzero" stroke="none" stroke-width="NaN" stroke-linecap="butt" stroke-linejoin="miter"/><path d="M329.16011,251.88081h62.52433" data-paper-data="{&quot;index&quot;:null}" fill="none" fill-rule="nonzero" stroke="#3d00a3" stroke-width="30" stroke-linecap="round" stroke-linejoin="miter"/><path d="M358.71043,281.18305h73.92406" data-paper-data="{&quot;index&quot;:null}" fill="none" fill-rule="nonzero" stroke="#39009c" stroke-width="30" stroke-linecap="round" stroke-linejoin="miter"/><path d="M399.57479,228.60381h29.53836" data-paper-data="{&quot;index&quot;:null}" fill="none" fill-rule="nonzero" stroke="#4b2af5" stroke-width="15" stroke-linecap="round" stroke-linejoin="miter"/><path d="M86.42372,15.74925c0,0.25309 -0.16873,0.5343 -0.25309,0.84364l-3.76824,10.7704c-0.30933,0.928 -0.98427,1.40606 -1.74354,1.40606c-0.81552,0 -1.4623,-0.47805 -1.82788,-1.40606l-3.43078,-8.04265l-3.43078,8.04265c-0.36558,0.928 -1.04049,1.40606 -1.79976,1.40606c-0.81552,0 -1.4623,-0.47805 -1.77164,-1.40606l-3.74011,-10.7704c-0.11249,-0.30934 -0.2531,-0.59054 -0.2531,-0.84364c0,-0.98423 0.75927,-1.74351 1.74351,-1.74351c0.64678,0 1.34981,0.3937 1.54666,0.98424l2.69963,8.46447l3.34642,-8.32386c0.30934,-0.73115 0.87176,-1.12485 1.65915,-1.12485c0.81552,0 1.37793,0.39369 1.65915,1.12485l3.34641,8.32386l2.69966,-8.46447c0.19685,-0.59054 0.89988,-0.98424 1.57479,-0.98424c0.95612,0 1.74351,0.75928 1.74351,1.74351z" fill="#2e2e2e" fill-rule="evenodd" stroke="none" stroke-width="1" stroke-linecap="round" stroke-linejoin="round"/><path d="M102.8746,20.81107c0,1.4623 -0.81552,1.96848 -2.30594,1.96848l-8.35199,-0.05624c0.33745,2.05284 1.96848,3.14956 4.02133,3.14956c1.01236,0 1.49042,-0.22497 2.33406,-0.59054c0.50618,-0.22498 0.89987,-0.44994 1.37794,-0.44994c0.78739,0 1.26546,0.56242 1.26546,1.26545c0,0.44994 -0.19685,0.95612 -0.89988,1.54666c-1.04048,0.73114 -2.44654,1.20921 -4.21817,1.20921c-3.74012,0 -7.7052,-2.30593 -7.7052,-7.42398c0,-5.06181 4.19006,-7.50836 7.39587,-7.50836c3.20581,0 7.08653,2.53091 7.08653,6.88969zM92.21668,20.1924h7.03029c-0.28121,-2.16533 -1.85599,-3.06521 -3.4589,-3.06521c-1.60291,0 -3.31829,0.89988 -3.57139,3.06521z" fill="#2e2e2e" fill-rule="evenodd" stroke="none" stroke-width="1" stroke-linecap="round" stroke-linejoin="round"/><path d="M107.5427,28.85372c-1.01236,0 -1.85599,-0.81551 -1.85599,-1.82787v-16.56336c0,-0.98424 0.84363,-1.82788 1.85599,-1.82788c0.98424,0 1.82788,0.84363 1.82788,1.82788v16.56336c0,1.01237 -0.84364,1.82787 -1.82788,1.82787z" fill="#2e2e2e" fill-rule="evenodd" stroke="none" stroke-width="1" stroke-linecap="round" stroke-linejoin="round"/><path d="M125.11843,25.59167c0,0.89988 -0.67491,1.34981 -1.04048,1.68727c-1.18109,1.04048 -2.55902,1.57478 -4.3869,1.57478c-3.40265,0 -7.50835,-2.44654 -7.50835,-7.45211c0,-5.03369 4.10568,-7.48023 7.50835,-7.48023c1.82788,0 3.20581,0.50618 4.3869,1.54666c0.36558,0.36558 1.04048,0.81552 1.04048,1.7154c0,0.87176 -0.73115,1.40606 -1.49042,1.40606c-0.67491,0 -1.20921,-0.3937 -1.43418,-0.59054c-0.64678,-0.61867 -1.6029,-0.87176 -2.36218,-0.87176c-2.22158,0 -3.99321,1.54666 -3.99321,4.27442c0,2.69963 1.77163,4.2463 3.99321,4.2463c0.75927,0 1.71539,-0.25309 2.36218,-0.87176c0.22498,-0.19685 0.75928,-0.59054 1.43418,-0.59054c0.75927,0 1.49042,0.5343 1.49042,1.40606z" fill="#2e2e2e" fill-rule="evenodd" stroke="none" stroke-width="1" stroke-linecap="round" stroke-linejoin="round"/><path d="M142.38482,21.42973c0,5.03369 -4.30253,7.48022 -7.50835,7.48022c-3.23394,0 -7.50835,-2.44653 -7.50835,-7.48022c0,-5.00556 4.27442,-7.50836 7.50835,-7.50836c3.20581,0 7.50835,2.50279 7.50835,7.50836zM131.02387,21.42973c0,2.69963 1.856,4.27442 3.8526,4.27442c1.96848,0 3.8526,-1.57479 3.8526,-4.27442c0,-2.72775 -1.88412,-4.30254 -3.8526,-4.30254c-1.9966,0 -3.8526,1.57479 -3.8526,4.30254z" fill="#2e2e2e" fill-rule="evenodd" stroke="none" stroke-width="1" stroke-linecap="round" stroke-linejoin="round"/><path d="M169.18431,20.67046v6.35539c0,1.01237 -0.84364,1.82788 -1.856,1.82788c-0.98424,0 -1.82788,-0.81551 -1.82788,-1.82788v-6.35539c0,-2.53091 -1.3217,-3.57139 -2.98085,-3.57139c-2.53091,0 -3.40266,2.36218 -3.48703,3.14957v-0.02811v0.44994v6.35539c0,1.01237 -0.84363,1.82788 -1.856,1.82788c-0.98423,0 -1.82788,-0.81551 -1.82788,-1.82788v-6.35539c0,-2.53091 -1.32169,-3.57139 -2.98084,-3.57139c-2.53091,0 -3.37454,2.36218 -3.48703,3.14957v6.7772c0,1.01237 -0.84364,1.82787 -1.82788,1.82787c-1.01236,0 -1.856,-0.81551 -1.856,-1.82787v-11.16411c0,-1.01236 0.84363,-1.85599 1.856,-1.85599c0.98424,0 1.82788,0.84363 1.82788,1.856v1.40606c0.11249,-1.01236 1.77164,-3.3183 4.80872,-3.3183c2.10908,0 4.02132,1.01236 4.86496,3.51514c0.78739,-1.74351 2.55902,-3.51514 5.28678,-3.51514c2.84023,0 5.34303,1.85599 5.34303,6.72095z" fill="#2e2e2e" fill-rule="evenodd" stroke="none" stroke-width="1" stroke-linecap="round" stroke-linejoin="round"/><path d="M186.4788,20.81107c0,1.4623 -0.81551,1.96848 -2.30593,1.96848l-8.35199,-0.05624c0.33745,2.05284 1.96849,3.14956 4.02133,3.14956c1.01236,0 1.49042,-0.22497 2.33406,-0.59054c0.50618,-0.22498 0.89988,-0.44994 1.37794,-0.44994c0.78739,0 1.26546,0.56242 1.26546,1.26545c0,0.44994 -0.19685,0.95612 -0.89988,1.54666c-1.04048,0.73114 -2.44653,1.20921 -4.21817,1.20921c-3.74012,0 -7.7052,-2.30593 -7.7052,-7.42398c0,-5.06181 4.19005,-7.50836 7.39586,-7.50836c3.20581,0 7.08653,2.53091 7.08653,6.88969zM175.82088,20.1924h7.03029c-0.28121,-2.16533 -1.856,-3.06521 -3.4589,-3.06521c-1.6029,0 -3.3183,0.89988 -3.57139,3.06521z" fill="#2e2e2e" fill-rule="evenodd" stroke="none" stroke-width="1" stroke-linecap="round" stroke-linejoin="round"/><path d="M193.48098,11.0249v9.61744c0,1.12485 -0.92801,2.08097 -2.05285,2.08097c-1.12485,0 -2.08097,-0.95612 -2.08097,-2.08097v-9.61744c0,-1.12485 0.95612,-2.08097 2.08097,-2.08097c1.12485,0 2.05285,0.95612 2.05285,2.08097zM189.29092,26.68839c0,-1.15296 0.95612,-2.10908 2.1372,-2.10908c1.15296,0 2.10909,0.95612 2.10909,2.10908c0,1.18109 -0.95612,2.13721 -2.10909,2.13721c-1.18109,0 -2.1372,-0.95612 -2.1372,-2.13721z" fill="#2e2e2e" fill-rule="evenodd" stroke="none" stroke-width="1" stroke-linecap="round" stroke-linejoin="round"/><path d="M30.26309,65.54045v-89.45627h190.76819v89.45627z" fill="none" fill-rule="nonzero" stroke="none" stroke-width="NaN" stroke-linecap="butt" stroke-linejoin="miter"/></g></g></svg>