<svg version="1.1" xmlns="http://www.w3.org/2000/svg" xmlns:xlink="http://www.w3.org/1999/xlink" width="170" height="185" viewBox="0,0,170,185"><g transform="translate(-158.55707,-83.66847)"><g data-paper-data="{&quot;isPaintingLayer&quot;:true}" fill-rule="nonzero" stroke-width="0" stroke-linecap="butt" stroke-linejoin="miter" stroke-miterlimit="10" stroke-dasharray="" stroke-dashoffset="0" style="mix-blend-mode: normal"><g data-paper-data="{&quot;origPos&quot;:null}" fill="#b82832" stroke="none"><path d="M189.00548,234.42844l0.32341,-23.83332l99.31646,-0.35334l-0.22314,24.18668z" data-paper-data="{&quot;origPos&quot;:null}"/><path d="M273.23632,240.57649c-0.92187,-0.51278 -0.78357,-1.51424 -0.78357,-1.51424v-11.68715h16.08182v11.64264c0,0 0.23183,0.99572 -0.7516,1.54293c-0.98344,0.54721 -2.82891,0.44934 -2.82891,0.44934h-8.99968c0,0 -1.79618,0.07928 -2.71806,-0.4335z" data-paper-data="{&quot;origPos&quot;:null}"/><path d="M245.14263,240.78486c-0.92187,-0.51278 -0.78356,-1.51424 -0.78356,-1.51424v-11.68715h16.08183v11.64263c0,0 0.23183,0.99572 -0.75161,1.54293c-0.98344,0.54721 -2.82891,0.44934 -2.82891,0.44934h-8.99968c0,0 -1.79619,0.07928 -2.71806,-0.43351z" data-paper-data="{&quot;origPos&quot;:null}"/><path d="M216.82873,240.85859c-0.92187,-0.51278 -0.78356,-1.51424 -0.78356,-1.51424v-11.68715h16.08182v11.64264c0,0 0.23184,0.99572 -0.7516,1.54293c-0.98344,0.54721 -2.82891,0.44934 -2.82891,0.44934h-8.99968c0,0 -1.79619,0.07928 -2.71806,-0.4335z" data-paper-data="{&quot;origPos&quot;:null}"/><path d="M189.75297,241.47084c-0.90795,-0.51278 -0.77174,-1.51424 -0.77174,-1.51424v-11.68715h15.83896v11.64263c0,0 0.22833,0.99573 -0.74026,1.54293c-0.96859,0.54721 -2.78619,0.44934 -2.78619,0.44934h-8.86377c0,0 -1.76906,0.07928 -2.67701,-0.43351z" data-paper-data="{&quot;origPos&quot;:null}"/></g><path d="M189.02238,226.02456l0.37105,-42.60068l99.70454,0.07286l0.13371,26.87225c0,0 -0.21618,0.83409 -0.70141,1.0892c-0.48523,0.25511 -2.02747,0.36202 -2.02747,0.36202l-68.59116,-0.08237c0,0 -1.04765,-0.07184 -1.61624,0.24201c-0.56859,0.31386 -0.44744,0.89713 -0.44744,0.89713l-0.09121,3.44232c0,0 -0.20692,0.67664 0.43627,1.01661c0.64319,0.33997 1.94799,0.24364 1.94799,0.24364l67.47031,-0.02136c0,0 1.56572,0.09033 2.11039,0.34894c0.54467,0.25861 0.80241,1.08113 0.80241,1.08113l-0.04291,6.97541z" data-paper-data="{&quot;origPos&quot;:null}" fill="#fe404f" stroke="#000000"/><path d="M189.35517,192.29842v-7.00779c0,0 0.03818,-2.8525 2.77859,-4.16024c2.74041,-1.30773 7.77553,-1.21425 7.77553,-1.21425h76.93528c0,0 6.44492,-0.02862 9.32105,1.56713c2.87613,1.59575 2.83257,4.90095 2.83257,4.90095v5.91419z" data-paper-data="{&quot;origPos&quot;:null}" fill="#b82832" stroke="none"/><path d="M209.5218,173.46963c1.14174,-0.64588 3.49827,-0.56246 3.49827,-0.56246l41.268,-0.12721c0,0 5.99622,-0.02669 8.67829,1.46139c2.68207,1.48808 2.6553,4.55495 2.6553,4.55495v5.53048h-57.30603l0.17562,-8.85943c0,0 -0.11119,-1.35185 1.03055,-1.99773z" data-paper-data="{&quot;origPos&quot;:null}" fill="#b82832" stroke="none"/><g data-paper-data="{&quot;origPos&quot;:null}" fill="#ffffff" stroke="none"><path d="M287.79317,211.91468c0,0 1.29537,0.01962 1.60945,0.69306c0.31408,0.67342 -0.64215,1.38101 -0.64215,1.38101l-7.74481,6.90853c0,0 -0.90557,1.03805 -1.94471,0.97182c-1.03914,-0.06624 -1.8741,-1.21523 -1.8741,-1.21523l-9.18059,-8.73917z" data-paper-data="{&quot;origPos&quot;:null,&quot;index&quot;:null}"/><path d="M270.39317,211.91468c0,0 1.29538,0.01962 1.60945,0.69306c0.31408,0.67342 -0.64216,1.38101 -0.64216,1.38101l-7.74481,6.90853c0,0 -0.90557,1.03805 -1.94471,0.97182c-1.03914,-0.06624 -1.8741,-1.21523 -1.8741,-1.21523l-9.18059,-8.73917z" data-paper-data="{&quot;origPos&quot;:null,&quot;index&quot;:null}"/></g><path d="M229.35072,199.92871c-1.79194,-0.95773 -1.4572,-2.85973 -1.4572,-2.85973l0.16223,-15.53554c0,0 0.04546,-2.23271 2.39299,-2.94515c2.34753,-0.71244 6.73526,0.32617 6.73526,0.32617l49.00367,16.87721c0,0 3.99774,1.39106 2.48058,3.42323c-1.37726,1.84478 -6.68494,1.59504 -6.68494,1.59504l-47.25865,-0.08993c0,0 -3.582,0.16644 -5.37394,-0.79129z" data-paper-data="{&quot;origPos&quot;:null}" fill="#fdf883" stroke="none"/><path d="M244.78775,188.809c0,-2.94096 4.30926,-5.32509 9.625,-5.32509c5.31574,0 9.625,2.38412 9.625,5.32509c0,2.94096 -4.30926,5.32509 -9.625,5.32509c-5.31574,0 -9.625,-2.38412 -9.625,-5.32509z" data-paper-data="{&quot;origPos&quot;:null}" fill="#f02333" stroke="none"/><path d="M158.55707,268.66847v-185h170v185z" fill="none" stroke="none"/></g></g></svg>