<svg version="1.1" xmlns="http://www.w3.org/2000/svg" xmlns:xlink="http://www.w3.org/1999/xlink" width="70.72887" height="70.72887" viewBox="0,0,70.72887,70.72887"><defs><linearGradient x1="240.00006" y1="164.21077" x2="240.00006" y2="195.78935" gradientUnits="userSpaceOnUse" id="color-1"><stop offset="0" stop-color="#000000"/><stop offset="1" stop-color="#454545"/></linearGradient><linearGradient x1="236.14199" y1="174.00188" x2="236.14199" y2="185.99822" gradientUnits="userSpaceOnUse" id="color-2"><stop offset="0" stop-color="#0f0f0f"/><stop offset="1" stop-color="#353535"/></linearGradient></defs><g transform="translate(-204.63557,-144.63557)"><g data-paper-data="{&quot;isPaintingLayer&quot;:true}" stroke="none" stroke-miterlimit="10" stroke-dasharray="" stroke-dashoffset="0" style="mix-blend-mode: normal"><path d="M230.83233,164.21077h18.33558c3.85062,0 6.97197,3.02447 6.97197,6.75559v18.06738c0,3.73084 -3.12134,6.75559 -6.97197,6.75559h-18.33558c-3.85053,0 -6.97203,-3.02476 -6.97203,-6.75559v-18.06738c0,-3.73111 3.1215,-6.75559 6.97203,-6.75559z" data-paper-data="{&quot;origPos&quot;:null}" fill="url(#color-1)" fill-rule="evenodd" stroke-width="14" stroke-linecap="round" stroke-linejoin="round"/><path d="M228.77771,180.00006c0,-6.19795 5.02443,-11.22238 11.22238,-11.22238c6.19795,0 11.22238,5.02443 11.22238,11.22238c0,6.19795 -5.02443,11.22238 -11.22238,11.22238c-6.19795,0 -11.22238,-5.02443 -11.22238,-11.22238z" data-paper-data="{&quot;origPos&quot;:null}" fill="#ffffff" fill-rule="nonzero" stroke-width="0" stroke-linecap="butt" stroke-linejoin="miter"/><path d="M230.14385,180.00006c0,-3.3127 2.68547,-5.99817 5.99817,-5.99817c3.3127,0 5.99817,2.68547 5.99817,5.99817c0,3.3127 -2.68547,5.99817 -5.99817,5.99817c-3.3127,0 -5.99817,-2.68547 -5.99817,-5.99817z" data-paper-data="{&quot;origPos&quot;:null}" fill="url(#color-2)" fill-rule="nonzero" stroke-width="0" stroke-linecap="butt" stroke-linejoin="miter"/><path d="M236.24892,178.15482c0,-1.30778 1.06017,-2.36796 2.36796,-2.36796c1.30778,0 2.36796,1.06018 2.36796,2.36796c0,1.30778 -1.06018,2.36796 -2.36796,2.36796c-1.30778,0 -2.36796,-1.06017 -2.36796,-2.36796z" data-paper-data="{&quot;origPos&quot;:null}" fill="#ffffff" fill-rule="nonzero" stroke-width="0" stroke-linecap="butt" stroke-linejoin="miter"/><path d="M204.63557,215.36443v-70.72887h70.72887v70.72887z" fill="none" fill-rule="nonzero" stroke-width="0" stroke-linecap="butt" stroke-linejoin="miter"/></g></g></svg>