<svg version="1.1" xmlns="http://www.w3.org/2000/svg" xmlns:xlink="http://www.w3.org/1999/xlink" width="735.1239" height="527.94074" viewBox="0,0,735.1239,527.94074"><g transform="translate(116.9109,156.20262)"><g data-paper-data="{&quot;isPaintingLayer&quot;:true}" fill-rule="nonzero" stroke-linejoin="miter" stroke-miterlimit="10" stroke-dasharray="" stroke-dashoffset="0" style="mix-blend-mode: normal"><path d="M-96.81238,339.45196l0.67995,-264.54912l212.53385,151.39727l348.50792,0.20148l10.45226,-9.12913l-0.79097,-23.87047l-0.40461,-113.1598l-121.4046,0.14011l0.08739,-38.43339l174.47585,-105.85953l-0.88408,403.26259z" fill="#4000af" stroke="none" stroke-width="0" stroke-linecap="butt"/><path d="M-114.64077,371.73812l-2.27013,-527.94074h732.85377l2.27013,527.94074z" fill="none" stroke="none" stroke-width="0" stroke-linecap="butt"/><path d="M523.56158,343.04709v-485h86v485z" fill="#4000af" stroke="none" stroke-width="0" stroke-linecap="butt"/><path d="M524.15988,-76.17808l-0.50876,26.67042c0,0 0.06309,4.97598 -1.94223,8.60492c-2.00532,3.62895 -6.1555,6.04919 -6.1555,6.04919l-162.75696,108.19048l0.17203,-36.67063z" data-paper-data="{&quot;index&quot;:null}" fill="#4926f1" stroke="none" stroke-width="0" stroke-linecap="butt"/><path d="M356.24555,36.65719l169.80083,-114.2326" data-paper-data="{&quot;index&quot;:null}" fill="none" stroke="#3eb5fa" stroke-width="7" stroke-linecap="round"/><path d="M105.66465,196.77927l14.74013,2.03153l4.73623,27.48328l-20.29185,-0.20204c0,0 -5.34092,-0.36134 -9.09874,-1.61795c-3.75782,-1.25661 -7.60097,-3.96641 -7.60097,-3.96641l-152.99421,-115.30806c0,0 -4.89737,-4.27903 -9.1728,-5.76702c-4.27543,-1.488 -12.48274,-1.60317 -12.48274,-1.60317l23.67655,-31.10584z" data-paper-data="{&quot;index&quot;:null}" fill="#4926f1" stroke="none" stroke-width="0" stroke-linecap="butt"/><path d="M-99.05417,67.6881l35.39786,0.01544l168.87899,128.6817l19.65376,0.25436" data-paper-data="{&quot;index&quot;:null}" fill="none" stroke="#3eb5fa" stroke-width="7" stroke-linecap="round"/><path d="M-60.27914,70.09915l-3.91757,27.95262l-38.1239,-0.16667l-0.02939,-28.93611z" data-paper-data="{&quot;index&quot;:null}" fill="#4926f1" stroke="none" stroke-width="0" stroke-linecap="butt"/><path d="M493.82442,198.21024l-18.79117,42.88596l-365.76222,-1.56292l11.2659,-43.53278z" data-paper-data="{&quot;index&quot;:null}" fill="#4926f1" stroke="none" stroke-width="0" stroke-linecap="butt"/><path d="M115.08697,196.65185h376.41843" fill="none" stroke="#3eb5fa" stroke-width="7" stroke-linecap="round"/></g></g></svg>