<svg version="1.1" xmlns="http://www.w3.org/2000/svg" xmlns:xlink="http://www.w3.org/1999/xlink" width="170" height="185" viewBox="0,0,170,185"><g transform="translate(-158.55707,-83.66848)"><g data-paper-data="{&quot;isPaintingLayer&quot;:true}" stroke-miterlimit="10" stroke-dasharray="" stroke-dashoffset="0" style="mix-blend-mode: normal"><path d="M158.55707,268.66848v-185h170v185z" fill="none" fill-rule="nonzero" stroke="none" stroke-width="0" stroke-linecap="butt" stroke-linejoin="miter"/><g data-paper-data="{&quot;origPos&quot;:null}" fill="#ffdf32" fill-rule="nonzero" stroke="none" stroke-width="0" stroke-linecap="butt" stroke-linejoin="miter"><path d="M189.00548,238.97928l0.32341,-9.33832l99.31646,-0.13845l-0.22314,9.47677z" data-paper-data="{&quot;origPos&quot;:null}"/><path d="M273.23632,241.3882c-0.92187,-0.20092 -0.78357,-0.59331 -0.78357,-0.59331v-4.57924h16.08182v4.5618c0,0 0.23183,0.39014 -0.7516,0.60455c-0.98344,0.21441 -2.82891,0.17606 -2.82891,0.17606h-8.99968c0,0 -1.79618,0.03106 -2.71806,-0.16986z" data-paper-data="{&quot;origPos&quot;:null}"/><path d="M245.14263,241.46984c-0.92187,-0.20092 -0.78357,-0.59331 -0.78357,-0.59331v-4.57924h16.08184v4.56179c0,0 0.23182,0.39014 -0.75162,0.60455c-0.98344,0.21441 -2.82891,0.17606 -2.82891,0.17606h-8.99968c0,0 -1.79619,0.03106 -2.71806,-0.16986z" data-paper-data="{&quot;origPos&quot;:null}"/><path d="M216.82873,241.49873c-0.92187,-0.20092 -0.78356,-0.59331 -0.78356,-0.59331v-4.57924h16.08182v4.5618c0,0 0.23184,0.39014 -0.7516,0.60455c-0.98344,0.21441 -2.82892,0.17606 -2.82892,0.17606h-8.99968c0,0 -1.79618,0.03106 -2.71805,-0.16986z" data-paper-data="{&quot;origPos&quot;:null}"/><path d="M189.75297,241.73862c-0.90795,-0.20092 -0.77174,-0.59331 -0.77174,-0.59331v-4.57924h15.83896v4.56179c0,0 0.22833,0.39014 -0.74026,0.60455c-0.96859,0.21441 -2.78619,0.17606 -2.78619,0.17606h-8.86377c0,0 -1.76906,0.03106 -2.67701,-0.16986z" data-paper-data="{&quot;origPos&quot;:null}"/></g><path d="M189.02238,235.68649l0.37105,-15.44553l99.70454,0.02642l-0.61676,15.39705z" data-paper-data="{&quot;origPos&quot;:null}" fill="#ffb73b" fill-rule="nonzero" stroke="#000000" stroke-width="0" stroke-linecap="butt" stroke-linejoin="miter"/><path d="M189.35517,222.35684v-2.83073c0,0 0.02568,-0.75172 1.86882,-1.09634c1.84314,-0.34462 5.22967,-0.31999 5.22967,-0.31999h84.37025c0,0 4.33472,-0.00754 6.26916,0.41298c1.93443,0.42052 1.90513,1.29154 1.90513,1.29154v2.54254z" data-paper-data="{&quot;origPos&quot;:null}" fill="#ffdf32" fill-rule="nonzero" stroke="none" stroke-width="0" stroke-linecap="butt" stroke-linejoin="miter"/><path d="M202.27864,228.22135h12.5459" fill="none" fill-rule="nonzero" stroke="#fff65d" stroke-width="11" stroke-linecap="round" stroke-linejoin="miter"/><path d="M237.73128,224.60983h43.80996c3.92231,0 7.10172,0.61908 7.10172,1.38282v5.99706c0,0.76368 -3.17941,1.38282 -7.10172,1.38282h-43.80996c-3.92213,0 -7.10163,-0.61914 -7.10163,-1.38282v-5.99706c0,-0.76374 3.1795,-1.38282 7.10163,-1.38282z" fill="#ffffff" fill-rule="evenodd" stroke="none" stroke-width="1" stroke-linecap="round" stroke-linejoin="round"/><path d="M259.6965,229.31873c0,-0.91275 3.41336,-1.65268 7.62393,-1.65268c4.21057,0 7.62393,0.73993 7.62393,1.65268c0,0.91275 -3.41335,1.65268 -7.62393,1.65268c-4.21057,0 -7.62393,-0.73993 -7.62393,-1.65268z" fill="#ff40a7" fill-rule="nonzero" stroke="none" stroke-width="0" stroke-linecap="butt" stroke-linejoin="miter"/></g></g></svg>