<svg version="1.1" xmlns="http://www.w3.org/2000/svg" xmlns:xlink="http://www.w3.org/1999/xlink" width="737.53277" height="527.41116" viewBox="0,0,737.53277,527.41116"><defs><linearGradient x1="10.48352" y1="308.31881" x2="10.48352" y2="337.38601" gradientUnits="userSpaceOnUse" id="color-1"><stop offset="0" stop-color="#ffe9d8"/><stop offset="1" stop-color="#f7cbd0"/></linearGradient><linearGradient x1="-26.25509" y1="308.24406" x2="-26.25509" y2="337.31128" gradientUnits="userSpaceOnUse" id="color-2"><stop offset="0" stop-color="#ffe9d8"/><stop offset="1" stop-color="#f7cbd0"/></linearGradient><linearGradient x1="-62.10664" y1="308.16936" x2="-62.10664" y2="337.23654" gradientUnits="userSpaceOnUse" id="color-3"><stop offset="0" stop-color="#ffe9d8"/><stop offset="1" stop-color="#f7cbd0"/></linearGradient><linearGradient x1="-100.4442" y1="312.69336" x2="-100.4442" y2="343.9354" gradientUnits="userSpaceOnUse" id="color-4"><stop offset="0" stop-color="#fde3d6"/><stop offset="1" stop-color="#f7cbd0"/></linearGradient><linearGradient x1="31.18598" y1="320.1359" x2="31.18598" y2="350.29624" gradientUnits="userSpaceOnUse" id="color-5"><stop offset="0" stop-color="#fde0d6"/><stop offset="1" stop-color="#f7cbd0"/></linearGradient><linearGradient x1="-80.69488" y1="319.43557" x2="-80.69488" y2="349.596" gradientUnits="userSpaceOnUse" id="color-6"><stop offset="0" stop-color="#fbdcd4"/><stop offset="1" stop-color="#f7cbd0"/></linearGradient><linearGradient x1="378.55218" y1="310.41346" x2="378.55218" y2="339.48064" gradientUnits="userSpaceOnUse" id="color-7"><stop offset="0" stop-color="#ffe9d8"/><stop offset="1" stop-color="#f7cbd0"/></linearGradient><linearGradient x1="341.81357" y1="310.33871" x2="341.81357" y2="339.4059" gradientUnits="userSpaceOnUse" id="color-8"><stop offset="0" stop-color="#ffe9d8"/><stop offset="1" stop-color="#f7cbd0"/></linearGradient><linearGradient x1="305.96202" y1="310.26401" x2="305.96202" y2="339.33118" gradientUnits="userSpaceOnUse" id="color-9"><stop offset="0" stop-color="#ffe9d8"/><stop offset="1" stop-color="#f7cbd0"/></linearGradient><linearGradient x1="267.62446" y1="314.78801" x2="267.62446" y2="346.03003" gradientUnits="userSpaceOnUse" id="color-10"><stop offset="0" stop-color="#fde3d6"/><stop offset="1" stop-color="#f7cbd0"/></linearGradient><linearGradient x1="399.25464" y1="322.23055" x2="399.25464" y2="352.39089" gradientUnits="userSpaceOnUse" id="color-11"><stop offset="0" stop-color="#fde0d6"/><stop offset="1" stop-color="#f7cbd0"/></linearGradient><linearGradient x1="287.37378" y1="321.53027" x2="287.37378" y2="351.69064" gradientUnits="userSpaceOnUse" id="color-12"><stop offset="0" stop-color="#fbdcd4"/><stop offset="1" stop-color="#f7cbd0"/></linearGradient><linearGradient x1="477.32997" y1="347.445" x2="477.32997" y2="377.855" gradientUnits="userSpaceOnUse" id="color-13"><stop offset="0" stop-color="#ffe9d8"/><stop offset="1" stop-color="#f7cbd0"/></linearGradient><linearGradient x1="438.89413" y1="347.36684" x2="438.89413" y2="377.77683" gradientUnits="userSpaceOnUse" id="color-14"><stop offset="0" stop-color="#ffe9d8"/><stop offset="1" stop-color="#f7cbd0"/></linearGradient><linearGradient x1="400.45824" y1="347.28866" x2="400.45824" y2="377.69866" gradientUnits="userSpaceOnUse" id="color-15"><stop offset="0" stop-color="#ffe9d8"/><stop offset="1" stop-color="#f7cbd0"/></linearGradient><linearGradient x1="362.95045" y1="347.21046" x2="362.95045" y2="377.62048" gradientUnits="userSpaceOnUse" id="color-16"><stop offset="0" stop-color="#ffe9d8"/><stop offset="1" stop-color="#f7cbd0"/></linearGradient><linearGradient x1="437.22131" y1="352.17801" x2="437.22131" y2="384.86334" gradientUnits="userSpaceOnUse" id="color-17"><stop offset="0" stop-color="#fde3d6"/><stop offset="1" stop-color="#f7cbd0"/></linearGradient><linearGradient x1="499.87873" y1="358.91251" x2="499.87873" y2="390.46621" gradientUnits="userSpaceOnUse" id="color-18"><stop offset="0" stop-color="#fde0d6"/><stop offset="1" stop-color="#f7cbd0"/></linearGradient><linearGradient x1="341.97296" y1="358.04399" x2="341.97296" y2="389.59769" gradientUnits="userSpaceOnUse" id="color-19"><stop offset="0" stop-color="#fbdcd4"/><stop offset="1" stop-color="#f7cbd0"/></linearGradient><linearGradient x1="504.33758" y1="192.39692" x2="504.33758" y2="221.46408" gradientUnits="userSpaceOnUse" id="color-20"><stop offset="0" stop-color="#ffe9d8"/><stop offset="1" stop-color="#f7cbd0"/></linearGradient><linearGradient x1="541.07619" y1="192.32221" x2="541.07619" y2="221.38938" gradientUnits="userSpaceOnUse" id="color-21"><stop offset="0" stop-color="#ffe9d8"/><stop offset="1" stop-color="#f7cbd0"/></linearGradient><linearGradient x1="542.67514" y1="196.92092" x2="542.67514" y2="228.16293" gradientUnits="userSpaceOnUse" id="color-22"><stop offset="0" stop-color="#fde3d6"/><stop offset="1" stop-color="#f7cbd0"/></linearGradient><linearGradient x1="482.01208" y1="203.85804" x2="482.01208" y2="234.0184" gradientUnits="userSpaceOnUse" id="color-23"><stop offset="0" stop-color="#fde0d6"/><stop offset="1" stop-color="#f7cbd0"/></linearGradient><linearGradient x1="562.54736" y1="203.02786" x2="562.54736" y2="233.18819" gradientUnits="userSpaceOnUse" id="color-24"><stop offset="0" stop-color="#fbdcd4"/><stop offset="1" stop-color="#f7cbd0"/></linearGradient><linearGradient x1="448.74691" y1="228.95356" x2="448.74691" y2="258.02072" gradientUnits="userSpaceOnUse" id="color-25"><stop offset="0" stop-color="#ffe9d8"/><stop offset="1" stop-color="#f7cbd0"/></linearGradient><linearGradient x1="485.48552" y1="228.87884" x2="485.48552" y2="257.94597" gradientUnits="userSpaceOnUse" id="color-26"><stop offset="0" stop-color="#ffe9d8"/><stop offset="1" stop-color="#f7cbd0"/></linearGradient><linearGradient x1="522.22415" y1="228.80411" x2="522.22415" y2="257.87122" gradientUnits="userSpaceOnUse" id="color-27"><stop offset="0" stop-color="#ffe9d8"/><stop offset="1" stop-color="#f7cbd0"/></linearGradient><linearGradient x1="487.08447" y1="233.47756" x2="487.08447" y2="264.71957" gradientUnits="userSpaceOnUse" id="color-28"><stop offset="0" stop-color="#fde3d6"/><stop offset="1" stop-color="#f7cbd0"/></linearGradient><linearGradient x1="426.42141" y1="240.4147" x2="426.42141" y2="270.57501" gradientUnits="userSpaceOnUse" id="color-29"><stop offset="0" stop-color="#fde0d6"/><stop offset="1" stop-color="#f7cbd0"/></linearGradient><linearGradient x1="545.50196" y1="239.58449" x2="545.50196" y2="269.74486" gradientUnits="userSpaceOnUse" id="color-30"><stop offset="0" stop-color="#fbdcd4"/><stop offset="1" stop-color="#f7cbd0"/></linearGradient><linearGradient x1="-7.8666" y1="40.4308" x2="-7.8666" y2="69.49796" gradientUnits="userSpaceOnUse" id="color-31"><stop offset="0" stop-color="#93abd5"/><stop offset="1" stop-color="#8494bd"/></linearGradient><linearGradient x1="28.87198" y1="40.35608" x2="28.87198" y2="69.42325" gradientUnits="userSpaceOnUse" id="color-32"><stop offset="0" stop-color="#93abd5"/><stop offset="1" stop-color="#8494bd"/></linearGradient><linearGradient x1="66.14629" y1="40.28136" x2="66.14629" y2="69.34851" gradientUnits="userSpaceOnUse" id="color-33"><stop offset="0" stop-color="#93abd5"/><stop offset="1" stop-color="#8494bd"/></linearGradient><linearGradient x1="30.47092" y1="44.9548" x2="30.47092" y2="76.19679" gradientUnits="userSpaceOnUse" id="color-34"><stop offset="0" stop-color="#90a6d0"/><stop offset="1" stop-color="#828fb7"/></linearGradient><linearGradient x1="-30.19216" y1="51.89194" x2="-30.19216" y2="83.41169" gradientUnits="userSpaceOnUse" id="color-35"><stop offset="0" stop-color="#8ca0ca"/><stop offset="1" stop-color="#818fb5"/></linearGradient><linearGradient x1="122.67711" y1="51.06179" x2="122.67711" y2="82.77043" gradientUnits="userSpaceOnUse" id="color-36"><stop offset="0" stop-color="#8ca0ca"/><stop offset="1" stop-color="#818fb5"/></linearGradient><linearGradient x1="102.3136" y1="40.638" x2="102.3136" y2="69.70516" gradientUnits="userSpaceOnUse" id="color-37"><stop offset="0" stop-color="#93abd5"/><stop offset="1" stop-color="#8494bd"/></linearGradient><linearGradient x1="89.88072" y1="77.18319" x2="89.88072" y2="106.25035" gradientUnits="userSpaceOnUse" id="color-38"><stop offset="0" stop-color="#93abd5"/><stop offset="1" stop-color="#8494bd"/></linearGradient><linearGradient x1="126.6193" y1="77.10846" x2="126.6193" y2="106.1756" gradientUnits="userSpaceOnUse" id="color-39"><stop offset="0" stop-color="#93abd5"/><stop offset="1" stop-color="#8494bd"/></linearGradient><linearGradient x1="163.35792" y1="77.03369" x2="163.35792" y2="106.10089" gradientUnits="userSpaceOnUse" id="color-40"><stop offset="0" stop-color="#93abd5"/><stop offset="1" stop-color="#8494bd"/></linearGradient><linearGradient x1="128.21824" y1="81.70719" x2="128.21824" y2="112.94921" gradientUnits="userSpaceOnUse" id="color-41"><stop offset="0" stop-color="#90a6d0"/><stop offset="1" stop-color="#828fb7"/></linearGradient><linearGradient x1="67.55516" y1="88.64432" x2="67.55516" y2="120.16405" gradientUnits="userSpaceOnUse" id="color-42"><stop offset="0" stop-color="#8ca0ca"/><stop offset="1" stop-color="#818fb5"/></linearGradient><linearGradient x1="186.63571" y1="87.81417" x2="186.63571" y2="119.52284" gradientUnits="userSpaceOnUse" id="color-43"><stop offset="0" stop-color="#8ca0ca"/><stop offset="1" stop-color="#818fb5"/></linearGradient></defs><g transform="translate(126.12708,73.25182)"><g data-paper-data="{&quot;isPaintingLayer&quot;:true}" stroke-miterlimit="10" stroke-dasharray="" stroke-dashoffset="0" style="mix-blend-mode: normal"><g><path d="M253.75685,87.433c0,-9.91412 8.03699,-17.95111 17.95111,-17.95111" data-paper-data="{&quot;index&quot;:null}" fill="none" fill-rule="nonzero" stroke="#b43955" stroke-width="7.46" stroke-linecap="butt" stroke-linejoin="miter"/><path d="M211.08721,69.48187c9.91413,0 17.95111,8.03698 17.95111,17.95111" fill="none" fill-rule="nonzero" stroke="#b43955" stroke-width="7.46" stroke-linecap="butt" stroke-linejoin="miter"/><path d="M225.19511,61.19178h32.443v223.838h-32.443z" fill="#d84773" fill-rule="evenodd" stroke="none" stroke-width="1" stroke-linecap="round" stroke-linejoin="round"/><path d="M272.06311,5.88276h11.188c8.566,0 15.511,6.945 15.511,15.512v11.17c0,8.566 -6.945,15.511 -15.511,15.511h-11.188c-8.567,0 -15.511,-6.945 -15.511,-15.511v-11.17c0,-8.567 6.944,-15.512 15.511,-15.512z" fill="#00cd17" fill-rule="evenodd" stroke="none" stroke-width="1" stroke-linecap="round" stroke-linejoin="round"/><path d="M186.15111,-2.42924h11.188c8.567,0 15.511,6.945 15.511,15.511v11.171c0,8.566 -6.944,15.511 -15.511,15.511h-11.188c-8.566,0 -15.511,-6.945 -15.511,-15.511v-11.171c0,-8.566 6.945,-15.511 15.511,-15.511z" fill="#00cd17" fill-rule="evenodd" stroke="none" stroke-width="1" stroke-linecap="round" stroke-linejoin="round"/><path d="M220.58311,-37.22673h40.53c15.572,0 28.195,12.6232 28.195,28.1948v39.5927c0,15.572 -12.623,28.195 -28.195,28.195h-40.53c-15.572,0 -28.195,-12.623 -28.195,-28.195v-39.5927c0,-15.5716 12.623,-28.1948 28.195,-28.1948z" fill="#2fe700" fill-rule="evenodd" stroke="none" stroke-width="1" stroke-linecap="round" stroke-linejoin="round"/><path d="M263.48511,-19.57724l5.44,5.6788c2.028,2.1175 1.924,5.5022 -0.234,7.56l-5.626,5.3662c-2.158,2.058 -5.551,2.01 -7.58,-0.108l-5.44,-5.6787c-2.029,-2.1175 -1.924,-5.5022 0.233,-7.56l5.627,-5.3665c2.158,-2.0577 5.551,-2.0093 7.58,0.1082z" fill="#14de18" fill-rule="evenodd" stroke="none" stroke-width="1" stroke-linecap="round" stroke-linejoin="round"/><path d="M193.21811,27.88075h11.134c5.569,0 10.084,4.515 10.084,10.083v10.586c0,5.568 -4.515,10.083 -10.084,10.083h-11.134c-5.569,0 -10.083,-4.515 -10.083,-10.083v-10.586c0,-5.568 4.514,-10.083 10.083,-10.083z" fill="#4af500" fill-rule="evenodd" stroke="none" stroke-width="1" stroke-linecap="round" stroke-linejoin="round"/><path d="M284.13311,-12.52795h14.77c7.764,0 14.057,6.2936 14.057,14.0567v14.8c0,7.764 -6.293,14.057 -14.057,14.057h-14.77c-7.764,0 -14.057,-6.293 -14.057,-14.057v-14.8c0,-7.7631 6.293,-14.0567 14.057,-14.0567z" fill="#4af500" fill-rule="evenodd" stroke="none" stroke-width="1" stroke-linecap="round" stroke-linejoin="round"/><path d="M240.24233,32.47969l4.38634,4.54149c1.6358,1.6932 1.5515,4.39979 -0.18833,6.04546l-4.537,4.29127c-1.73893,1.64566 -4.47513,1.6071 -6.11092,-0.0861l-4.38634,-4.54149c-1.6358,-1.6932 -1.5515,-4.39979 0.18833,-6.04545l4.53611,-4.29217c1.73983,-1.64477 4.47602,-1.60621 6.11182,0.08699z" fill="#14db16" fill-rule="evenodd" stroke="none" stroke-width="1" stroke-linecap="round" stroke-linejoin="round"/><path d="M230.84311,3.32811l-8.835,8.87l-9.204,-9.038" fill="none" fill-rule="evenodd" stroke="#14d415" stroke-width="10.18" stroke-linecap="round" stroke-linejoin="round"/><path d="M229.25845,160.08372l0.18,-62.779" fill="none" fill-rule="evenodd" stroke="#e46b7e" stroke-width="8" stroke-linecap="round" stroke-linejoin="round"/><path d="M253.47111,63.94808l-0.009,53.144" fill="none" fill-rule="evenodd" stroke="#e46b7e" stroke-width="8" stroke-linecap="round" stroke-linejoin="round"/><path d="M229.46211,255.0921l0.009,-62.144" fill="none" fill-rule="evenodd" stroke="#e46b7e" stroke-width="8" stroke-linecap="round" stroke-linejoin="round"/><path d="M253.47111,167.61477l-0.009,45.81067" fill="none" fill-rule="evenodd" stroke="#e46b7e" stroke-width="8" stroke-linecap="round" stroke-linejoin="round"/><path d="M237.46211,131.75875l0.009,-64.47733" fill="none" fill-rule="evenodd" stroke="#c03e5e" stroke-width="8" stroke-linecap="round" stroke-linejoin="round"/><path d="M245.37878,160.75877l0.009,-61.81066" fill="none" fill-rule="evenodd" stroke="#ce4165" stroke-width="8" stroke-linecap="round" stroke-linejoin="round"/><path d="M237.04544,227.75878l0.009,-40.81066" fill="none" fill-rule="evenodd" stroke="#ce4165" stroke-width="8" stroke-linecap="round" stroke-linejoin="round"/><path d="M245.05444,195.61477l-0.009,67.81066" fill="none" fill-rule="evenodd" stroke="#c03e5e" stroke-width="8" stroke-linecap="round" stroke-linejoin="round"/><path d="M253.46211,284.09209l0.009,-20.81066" fill="none" fill-rule="evenodd" stroke="#e46b7e" stroke-width="8" stroke-linecap="round" stroke-linejoin="round"/><path d="M179.49138,69.50805l135.38144,0.009" fill="none" fill-rule="evenodd" stroke="#b43955" stroke-width="7.46" stroke-linecap="round" stroke-linejoin="round"/><path d="M225.27126,73.50697v-7.93506h8.48231v7.93506z" fill="#c34067" fill-rule="nonzero" stroke="none" stroke-width="0" stroke-linecap="butt" stroke-linejoin="miter"/><path d="M233.47994,73.50699v-7.93506h8.48231v7.93506z" fill="#a73552" fill-rule="nonzero" stroke="none" stroke-width="0" stroke-linecap="butt" stroke-linejoin="miter"/><path d="M241.68863,73.50697v-7.93506h7.93506v7.93506z" fill="#c34067" fill-rule="nonzero" stroke="none" stroke-width="0" stroke-linecap="butt" stroke-linejoin="miter"/><path d="M249.62369,73.50697v-7.93506h7.93507v7.93506z" fill="#cb5f6f" fill-rule="nonzero" stroke="none" stroke-width="0" stroke-linecap="butt" stroke-linejoin="miter"/><path d="M179.43461,62.26112l135.38144,0.009" fill="none" fill-rule="evenodd" stroke="#71fa3c" stroke-width="7.46" stroke-linecap="round" stroke-linejoin="round"/></g><path d="M602.68598,446.04838l-491.65388,-0.68867l0.20359,-172.48898l266.9942,-1.43363l0.44405,-93.96187l223.58079,-2.3659z" data-paper-data="{&quot;index&quot;:null}" fill="#4000af" fill-rule="nonzero" stroke="none" stroke-width="0" stroke-linecap="butt" stroke-linejoin="miter"/><path d="M111.09363,300.6302l0.04142,-30.21099l267.58334,0.68777l-0.11884,21.84091l-6.95861,7.68232z" data-paper-data="{&quot;index&quot;:null}" fill="#4926f1" fill-rule="nonzero" stroke="none" stroke-width="0" stroke-linecap="butt" stroke-linejoin="miter"/><path d="M114.6991,270.92548h263.94459h-2.08168" data-paper-data="{&quot;index&quot;:null}" fill="none" fill-rule="nonzero" stroke="#3eb5fa" stroke-width="7" stroke-linecap="round" stroke-linejoin="miter"/><path d="M337.88849,293.04589h33.07803" data-paper-data="{&quot;index&quot;:null}" fill="none" fill-rule="nonzero" stroke="#4926f1" stroke-width="15" stroke-linecap="round" stroke-linejoin="miter"/><path d="M378.58175,193.24723l0.02055,-30.21099h223.81034l-0.01391,30.21099z" data-paper-data="{&quot;index&quot;:null}" fill="#4926f1" fill-rule="nonzero" stroke="none" stroke-width="0" stroke-linecap="butt" stroke-linejoin="miter"/><g data-paper-data="{&quot;index&quot;:null}" fill-rule="nonzero" stroke-linejoin="miter"><g data-paper-data="{&quot;origPos&quot;:null}" stroke="none" stroke-linecap="butt"><path d="M-13.46736,330.4955c0,-12.24786 10.72317,-22.1767 23.95085,-22.1767c13.22769,0 23.95085,9.92884 23.95085,22.1767c0,12.24786 -20.84611,4.43534 -20.84611,4.43534c0,0 -27.05558,7.81252 -27.05558,-4.43534z" data-paper-data="{&quot;origPos&quot;:null}" fill="url(#color-1)" stroke-width="NaN"/><path d="M-50.20596,330.4208c0,-12.24786 10.72317,-22.17671 23.95085,-22.17671c13.22769,0 23.95085,9.92885 23.95085,22.17671c0,12.24787 -20.84611,4.43534 -20.84611,4.43534c0,0 -27.05558,7.81252 -27.05558,-4.43534z" data-paper-data="{&quot;origPos&quot;:null}" fill="url(#color-2)" stroke-width="NaN"/><path d="M-86.0575,330.34605c0,-12.24786 10.72317,-22.17671 23.95085,-22.17671c13.22769,0 23.95085,9.92885 23.95085,22.17671c0,12.24787 -20.84611,4.43534 -20.84611,4.43534c0,0 -27.05558,7.81252 -27.05558,-4.43534z" data-paper-data="{&quot;origPos&quot;:null}" fill="url(#color-3)" stroke-width="NaN"/><path d="M-86.43508,351.27916l12.04466,-36.42141l93.29811,-1.66667v30.74431z" data-paper-data="{&quot;origPos&quot;:null}" fill="url(#color-4)" stroke-width="0"/><path d="M2.16227,341.21609c0,-8.32855 20.4502,-21.08016 29.0237,-21.08016c8.5735,0 15.5237,6.75161 15.5237,15.08016c0,8.32854 -5.46672,15.94632 -14.04022,15.94632c-8.5735,0 -25.00717,1.88223 -25.00717,-6.44632z" data-paper-data="{&quot;origPos&quot;:null}" fill="url(#color-5)" stroke-width="0"/><path d="M-80.69486,319.43565c3.71778,0 5.90243,0.65935 8.96486,2.76731c4.66595,3.21169 6.55884,6.64839 6.55884,12.31285c0,8.32855 -9.1921,16.63162 -17.7656,16.63162c-8.5735,0 -13.2818,-8.30307 -13.2818,-16.63162c0,-8.32854 6.9502,-15.08016 15.5237,-15.08016z" data-paper-data="{&quot;origPos&quot;:null}" fill="url(#color-6)" stroke-width="0"/></g><path d="M-87.64702,350.00344h121.79394" data-paper-data="{&quot;origPos&quot;:null}" fill="#ffc3d5" stroke="#ffc3d5" stroke-width="9" stroke-linecap="round"/><path d="M-27.01023,345.65575c5.16868,-1.6283 6.93222,-1.48741 10.36417,-3.39753c4.6158,-3.00757 9.67257,-2.34864 9.67257,-2.34864c4.85924,0 8.14324,-0.09767 12.8288,2.71514c2.1293,1.27826 4.81478,1.43009 7.80643,2.82298c0.29545,0.13756 -6.44486,2.90845 -6.44486,3.23435c0,5.87785 -6.9113,0.28571 -14.74843,0.28571c-7.83712,0 -23.97788,-0.78138 -19.47867,-3.31201z" data-paper-data="{&quot;origPos&quot;:null}" fill="#ffc3d5" stroke="none" stroke-width="0" stroke-linecap="butt"/><path d="M-65.16625,345.44425c5.16868,-1.6283 6.93222,-1.48741 10.36417,-3.39753c4.6158,-3.00757 9.67257,-2.34864 9.67257,-2.34864c4.85924,0 8.14324,-0.09767 12.8288,2.71514c2.12931,1.27826 4.81479,1.43009 7.80644,2.82298c0.29545,0.13756 -6.44486,2.90845 -6.44486,3.23435c0,5.87785 -6.9113,0.28571 -14.74843,0.28571c-7.83713,0 -23.97789,-0.78138 -19.47868,-3.31201z" data-paper-data="{&quot;origPos&quot;:null}" fill="#ffc3d5" stroke="none" stroke-width="0" stroke-linecap="butt"/></g><path d="M-126.12708,454.15933l3.22475,-527.41116h734.30802v527.41116z" fill="none" fill-rule="nonzero" stroke="none" stroke-width="NaN" stroke-linecap="butt" stroke-linejoin="miter"/><path d="" fill="#d84773" fill-rule="nonzero" stroke="none" stroke-width="1" stroke-linecap="butt" stroke-linejoin="miter"/><path d="M120.47222,395.82731h-8.78558h141.74746" data-paper-data="{&quot;index&quot;:null}" fill="none" fill-rule="nonzero" stroke="#3d00a3" stroke-width="30" stroke-linecap="round" stroke-linejoin="miter"/><path d="M215.95027,366.34699h-53.32889" data-paper-data="{&quot;index&quot;:null}" fill="none" fill-rule="nonzero" stroke="#3d00a3" stroke-width="29.5" stroke-linecap="round" stroke-linejoin="miter"/><path d="M223.68023,336.79052h-71.18493" data-paper-data="{&quot;index&quot;:null}" fill="none" fill-rule="nonzero" stroke="#3d00a3" stroke-width="30" stroke-linecap="round" stroke-linejoin="miter"/><path d="M159.10245,366.02578h-24.73075" data-paper-data="{&quot;index&quot;:null}" fill="none" fill-rule="nonzero" stroke="#4000af" stroke-width="29" stroke-linecap="round" stroke-linejoin="miter"/><path d="M260.47929,366.48347h-44.32889" data-paper-data="{&quot;index&quot;:null}" fill="none" fill-rule="nonzero" stroke="#4000af" stroke-width="29" stroke-linecap="round" stroke-linejoin="miter"/><path d="M598.88504,162.54252h-216.91703" data-paper-data="{&quot;index&quot;:null}" fill="none" fill-rule="nonzero" stroke="#3eb5fa" stroke-width="7" stroke-linecap="round" stroke-linejoin="miter"/><g data-paper-data="{&quot;index&quot;:null}" fill-rule="nonzero" stroke-linejoin="miter"><g data-paper-data="{&quot;origPos&quot;:null}" stroke="none" stroke-linecap="butt"><path d="M354.6013,332.5902c0,-12.24786 10.72317,-22.1767 23.95085,-22.1767c13.22769,0 23.95085,9.92884 23.95085,22.1767c0,12.24786 -20.84611,4.43534 -20.84611,4.43534c0,0 -27.05558,7.81252 -27.05558,-4.43534z" data-paper-data="{&quot;origPos&quot;:null}" fill="url(#color-7)" stroke-width="NaN"/><path d="M317.8627,332.51545c0,-12.24786 10.72317,-22.17671 23.95085,-22.17671c13.22769,0 23.95085,9.92885 23.95085,22.17671c0,12.24787 -20.84611,4.43534 -20.84611,4.43534c0,0 -27.05558,7.81252 -27.05558,-4.43534z" data-paper-data="{&quot;origPos&quot;:null}" fill="url(#color-8)" stroke-width="NaN"/><path d="M282.01116,332.4407c0,-12.24786 10.72317,-22.17671 23.95085,-22.17671c13.22769,0 23.95085,9.92885 23.95085,22.17671c0,12.24787 -20.84611,4.43534 -20.84611,4.43534c0,0 -27.05558,7.81252 -27.05558,-4.43534z" data-paper-data="{&quot;origPos&quot;:null}" fill="url(#color-9)" stroke-width="NaN"/><path d="M279.45137,346.82717l14.22687,-29.87477l93.29811,-1.66667v30.74431z" data-paper-data="{&quot;origPos&quot;:null}" fill="url(#color-10)" stroke-width="0"/><path d="M383.73093,337.31071c0,-8.32855 6.9502,-15.08016 15.5237,-15.08016c8.5735,0 15.5237,6.75161 15.5237,15.08016c0,8.32854 -5.46672,15.94632 -14.04022,15.94632c-8.5735,0 -17.00717,-7.61777 -17.00717,-15.94632z" data-paper-data="{&quot;origPos&quot;:null}" fill="url(#color-11)" stroke-width="0"/><path d="M287.3738,321.5303c3.71778,0 5.90243,0.65935 8.96486,2.76731c4.66595,3.21169 6.55884,6.64839 6.55884,12.31285c0,8.32855 -9.1921,16.63162 -17.7656,16.63162c-8.5735,0 -13.2818,-8.30307 -13.2818,-16.63162c0,-8.32854 6.9502,-15.08016 15.5237,-15.08016z" data-paper-data="{&quot;origPos&quot;:null}" fill="url(#color-12)" stroke-width="0"/></g><path d="M280.42164,350.14213h121.79394" data-paper-data="{&quot;origPos&quot;:null}" fill="#ffc3d5" stroke="#ffc3d5" stroke-width="9" stroke-linecap="round"/><path d="M341.05843,345.84095c5.16868,-1.6283 6.93222,-1.48741 10.36417,-3.39753c4.6158,-3.00757 9.67257,-2.34864 9.67257,-2.34864c4.85924,0 8.14324,-0.09767 12.8288,2.71514c2.1293,1.27826 4.81478,1.43009 7.80643,2.82298c0.29545,0.13756 -6.44486,2.90845 -6.44486,3.23435c0,5.87785 -6.9113,0.28571 -14.74843,0.28571c-7.83712,0 -23.97788,-0.78138 -19.47867,-3.31201z" data-paper-data="{&quot;origPos&quot;:null}" fill="#ffc3d5" stroke="none" stroke-width="0" stroke-linecap="butt"/><path d="M302.90241,345.62948c5.16868,-1.6283 6.93222,-1.48741 10.36417,-3.39753c4.6158,-3.00757 9.67257,-2.34864 9.67257,-2.34864c4.85924,0 8.14324,-0.09767 12.8288,2.71514c2.12931,1.27826 4.81479,1.43009 7.80644,2.82298c0.29545,0.13756 -6.44486,2.90845 -6.44486,3.23435c0,5.87785 -6.9113,0.28571 -14.74843,0.28571c-7.83713,0 -23.97789,-0.78138 -19.47868,-3.31201z" data-paper-data="{&quot;origPos&quot;:null}" fill="#ffc3d5" stroke="none" stroke-width="0" stroke-linecap="butt"/></g><g data-paper-data="{&quot;index&quot;:null}" fill-rule="nonzero" stroke-linejoin="miter"><g data-paper-data="{&quot;origPos&quot;:null}" stroke="none" stroke-linecap="butt"><path d="M477.32997,347.44502c13.83878,0 25.05733,10.38755 25.05733,23.20124c0,12.8137 -21.80916,4.64025 -21.80916,4.64025c0,0 -28.3055,8.17344 -28.3055,-4.64025c0,-12.81369 11.21855,-23.20124 25.05733,-23.20124z" data-paper-data="{&quot;origPos&quot;:null}" fill="url(#color-13)" stroke-width="NaN"/><path d="M438.89412,347.36684c13.83879,0 25.05733,10.38755 25.05733,23.20124c0,12.8137 -21.80916,4.64025 -21.80916,4.64025c0,0 -28.3055,8.17344 -28.3055,-4.64025c0,-12.81369 11.21855,-23.20124 25.05733,-23.20124z" data-paper-data="{&quot;origPos&quot;:null}" fill="url(#color-14)" stroke-width="NaN"/><path d="M400.45825,347.28863c2.88963,0 4.53136,0.21904 7.31247,1.00351c8.34333,2.35341 17.74486,10.288 17.74486,22.19773c0,12.81369 -21.80916,4.64024 -21.80916,4.64024c0,0 -28.3055,8.17345 -28.3055,-4.64024c0,-12.81369 11.21855,-23.20124 25.05733,-23.20124z" data-paper-data="{&quot;origPos&quot;:null}" fill="url(#color-15)" stroke-width="NaN"/><path d="M362.95043,347.21046c13.83878,0 25.05733,10.38755 25.05733,23.20124c0,12.81369 -21.80916,4.64024 -21.80916,4.64024c0,0 -28.3055,8.17345 -28.3055,-4.64024c0,-12.81369 11.21855,-23.20124 25.05733,-23.20124z" data-paper-data="{&quot;origPos&quot;:null}" fill="url(#color-16)" stroke-width="NaN"/><path d="M344.35559,386.86334c0,0 -3.84048,-32.09892 2.66213,-32.05685c19.50783,0.12621 147.83616,1.30257 147.83616,1.30257l16.75699,30.95946z" data-paper-data="{&quot;origPos&quot;:null}" fill="url(#color-17)" stroke-width="0"/><path d="M483.63784,374.68935c0,-8.71332 7.27129,-15.77684 16.24087,-15.77684c8.96959,0 16.24087,7.06352 16.24087,15.77684c0,8.71331 -4.51094,16.03718 -13.48052,16.03718c-8.96959,0 -19.00121,-7.32386 -19.00121,-16.03718z" data-paper-data="{&quot;origPos&quot;:null}" fill="url(#color-18)" stroke-width="0"/><path d="M341.97296,358.04401c8.9696,0 16.24087,7.06352 16.24087,15.77684c0,8.71331 -9.09366,17.83887 -18.06324,17.83887c-8.96959,0 -14.4185,-9.12555 -14.4185,-17.83887c0,-8.71331 7.27129,-15.77684 16.24087,-15.77684z" data-paper-data="{&quot;origPos&quot;:null}" fill="url(#color-19)" stroke-width="0"/></g><path d="M341.28858,388.28618c79.7035,0 164.2303,0.5 164.2303,0.5" data-paper-data="{&quot;origPos&quot;:null}" fill="#ffc3d5" stroke="#ffc3d5" stroke-width="9" stroke-linecap="round"/><path d="M436.55737,384.10122c5.40746,-1.70353 7.25248,-1.55613 10.84298,-3.55449c4.82904,-3.14651 10.11942,-2.45714 10.11942,-2.45714c5.08372,0 8.51943,-0.10219 13.42146,2.84057c2.22767,1.33731 5.03721,1.49615 8.16707,2.95339c0.30909,0.14391 -6.74259,3.04281 -6.74259,3.38377c0,6.14939 -7.23059,0.29891 -15.42978,0.29891c-8.19919,0 -25.08562,-0.81748 -20.37856,-3.46502z" data-paper-data="{&quot;origPos&quot;:null}" fill="#ffc3d5" stroke="none" stroke-width="0" stroke-linecap="butt"/><path d="M408.50142,380.32546c4.82904,-3.14651 10.11942,-2.45714 10.11942,-2.45714c5.08372,0 8.51943,-0.10219 13.42146,2.84057c2.22767,1.33731 5.03721,1.49615 8.16707,2.95339c0.30909,0.14391 -6.74259,3.04281 -6.74259,3.38377c0,6.14939 -7.2306,0.29891 -15.42979,0.29891c-8.19918,0 -25.08561,-0.81748 -20.37855,-3.46502c5.40746,-1.70353 7.25248,-1.55612 10.84298,-3.55448z" data-paper-data="{&quot;origPos&quot;:null}" fill="#ffc3d5" stroke="none" stroke-width="0" stroke-linecap="butt"/><path d="M362.08135,384.10122c5.40746,-1.70353 7.25248,-1.55613 10.84298,-3.55449c4.82904,-3.14651 10.11942,-2.45714 10.11942,-2.45714c5.08372,0 8.51943,-0.10219 13.42146,2.84057c2.22767,1.33731 5.03721,1.49615 8.16707,2.95339c0.3091,0.14391 -6.7426,3.04281 -6.7426,3.38377c0,6.14939 -7.23059,0.29891 -15.42978,0.29891c-8.19918,0 -25.08561,-0.81748 -20.37855,-3.46502z" data-paper-data="{&quot;origPos&quot;:null}" fill="#ffc3d5" stroke="none" stroke-width="0" stroke-linecap="butt"/></g><g data-paper-data="{&quot;index&quot;:null}" fill-rule="nonzero" stroke-linejoin="miter"><g data-paper-data="{&quot;origPos&quot;:null}" stroke="none" stroke-linecap="butt"><path d="M528.28846,214.57365c0,12.24786 -27.05558,4.43534 -27.05558,4.43534c0,0 -20.84611,7.81253 -20.84611,-4.43534c0,-12.24786 10.72316,-22.17671 23.95085,-22.17671c13.22768,0 23.95085,9.92885 23.95085,22.17671z" data-paper-data="{&quot;origPos&quot;:null}" fill="url(#color-20)" stroke-width="NaN"/><path d="M565.02704,214.49891c0,12.24786 -27.05558,4.43534 -27.05558,4.43534c0,0 -20.84611,7.81253 -20.84611,-4.43534c0,-12.24786 10.72315,-22.17671 23.95085,-22.17671c13.22768,0 23.95085,9.92885 23.95085,22.17671z" data-paper-data="{&quot;origPos&quot;:null}" fill="url(#color-21)" stroke-width="NaN"/><path d="M476.43553,229.13642l14.25869,-30.25757l62.15511,-1.46022l2.12489,34.23886z" data-paper-data="{&quot;origPos&quot;:null}" fill="url(#color-22)" stroke-width="0"/><path d="M497.53575,218.93819c0,8.32855 -9.25434,16.4396 -17.82784,16.4396c-8.5735,0 -13.21955,-8.11106 -13.21955,-16.4396c0,-8.32855 6.9502,-15.08016 15.5237,-15.08016c8.5735,0 15.5237,6.75161 15.5237,15.08016z" data-paper-data="{&quot;origPos&quot;:null}" fill="url(#color-23)" stroke-width="0"/><path d="M578.07104,218.10806c0,8.32855 -4.653,16.62852 -13.2265,16.62852c-8.5735,0 -17.8209,-8.29997 -17.8209,-16.62852c0,-5.66446 1.89289,-9.10116 6.55884,-12.31285c3.06243,-2.10796 5.24708,-2.76731 8.96486,-2.76731c8.5735,0 15.5237,6.75162 15.5237,15.08016z" fill="url(#color-24)" stroke-width="0"/></g><path d="M565.87994,231.55618h-89.99011" data-paper-data="{&quot;origPos&quot;:null}" fill="#ffc3d5" stroke="#ffc3d5" stroke-width="10" stroke-linecap="round"/><path d="M543.30973,227.43446c4.49921,2.53063 -11.64155,3.31201 -19.47868,3.31201c-7.83713,0 -14.74843,5.59214 -14.74843,-0.28571c0,-0.3259 -6.74029,-3.09679 -6.44485,-3.23435c2.99165,-1.39289 5.67713,-1.54472 7.80643,-2.82298c4.68556,-2.81281 7.96956,-2.71514 12.8288,-2.71514c0,0 5.05677,-0.65893 9.67257,2.34864c3.43195,1.91012 5.19549,1.76923 10.36417,3.39753z" data-paper-data="{&quot;origPos&quot;:null}" fill="#ffc3d5" stroke="none" stroke-width="0" stroke-linecap="butt"/></g><g data-paper-data="{&quot;index&quot;:null}" fill-rule="nonzero" stroke-linejoin="miter"><g data-paper-data="{&quot;origPos&quot;:null}" stroke="none" stroke-linecap="butt"><path d="M472.69779,251.13029c0,12.24786 -27.05558,4.43534 -27.05558,4.43534c0,0 -20.84611,7.81253 -20.84611,-4.43534c0,-12.24786 10.72316,-22.17671 23.95085,-22.17671c13.22768,0 23.95085,9.92885 23.95085,22.17671z" data-paper-data="{&quot;origPos&quot;:null}" fill="url(#color-25)" stroke-width="NaN"/><path d="M509.43637,251.05555c0,12.24786 -27.05558,4.43534 -27.05558,4.43534c0,0 -20.84611,7.81253 -20.84611,-4.43534c0,-12.24786 10.72315,-22.17671 23.95085,-22.17671c13.22768,0 23.95085,9.92885 23.95085,22.17671z" data-paper-data="{&quot;origPos&quot;:null}" fill="url(#color-26)" stroke-width="NaN"/><path d="M546.17498,250.98081c0,12.24786 -27.05558,4.43533 -27.05558,4.43533c0,0 -20.84611,7.81253 -20.84611,-4.43533c0,-12.24786 10.72315,-22.17671 23.95085,-22.17671c13.22768,0 23.95085,9.92885 23.95085,22.17671z" data-paper-data="{&quot;origPos&quot;:null}" fill="url(#color-27)" stroke-width="NaN"/><path d="M420.84486,265.69306l14.25869,-30.25757l98.29131,-1.46022l20.22687,30.74431z" data-paper-data="{&quot;origPos&quot;:null}" fill="url(#color-28)" stroke-width="0"/><path d="M441.94508,255.49485c0,8.32855 -9.25434,16.4396 -17.82784,16.4396c-8.5735,0 -13.21955,-8.11106 -13.21955,-16.4396c0,-8.32855 6.9502,-15.08016 15.5237,-15.08016c8.5735,0 15.5237,6.75161 15.5237,15.08016z" data-paper-data="{&quot;origPos&quot;:null}" fill="url(#color-29)" stroke-width="0"/><path d="M561.02564,254.6647c0,8.32855 -4.653,16.62852 -13.2265,16.62852c-8.5735,0 -17.8209,-8.29997 -17.8209,-16.62852c0,-5.66446 1.89289,-9.10116 6.55884,-12.31285c3.06243,-2.10796 5.24708,-2.76731 8.96486,-2.76731c8.5735,0 15.5237,6.75162 15.5237,15.08016z" data-paper-data="{&quot;origPos&quot;:null}" fill="url(#color-30)" stroke-width="0"/></g><path d="M420.29916,268.11279c0,0 36.85514,0 85.77422,0c15.5848,0 33.91934,0 39.9341,0c2.00492,0 1.97146,0 1.97146,0" data-paper-data="{&quot;origPos&quot;:null}" fill="#ffc3d5" stroke="#ffc3d5" stroke-width="10" stroke-linecap="round"/><path d="M487.71906,263.99108c4.49921,2.53063 -11.64155,3.31201 -19.47868,3.31201c-7.83713,0 -14.74843,5.59214 -14.74843,-0.28571c0,-0.3259 -6.74029,-3.09679 -6.44485,-3.23435c2.99165,-1.39289 5.67713,-1.54472 7.80643,-2.82298c4.68556,-2.81281 7.96956,-2.71514 12.8288,-2.71514c0,0 5.05677,-0.65893 9.67257,2.34864c3.43195,1.91012 5.19549,1.76923 10.36417,3.39753z" data-paper-data="{&quot;origPos&quot;:null}" fill="#ffc3d5" stroke="none" stroke-width="0" stroke-linecap="butt"/><path d="M524.90035,263.77959c4.49921,2.53063 -11.64155,3.31201 -19.47867,3.31201c-7.83713,0 -14.74844,5.59214 -14.74844,-0.28571c0,-0.3259 -6.74029,-3.09679 -6.44485,-3.23435c2.99165,-1.39289 5.67713,-1.54472 7.80643,-2.82298c4.68556,-2.81281 7.96956,-2.71514 12.8288,-2.71514c0,0 5.05677,-0.65893 9.67257,2.34864c3.43195,1.91012 5.19549,1.76922 10.36417,3.39752z" data-paper-data="{&quot;origPos&quot;:null}" fill="#ffc3d5" stroke="none" stroke-width="0" stroke-linecap="butt"/></g><g fill-rule="nonzero" stroke-linejoin="miter"><g data-paper-data="{&quot;index&quot;:null}"><g data-paper-data="{&quot;origPos&quot;:null}" stroke="none" stroke-linecap="butt"><path d="M16.08424,62.60754c0,12.24786 -27.05558,4.43534 -27.05558,4.43534c0,0 -20.84611,7.81253 -20.84611,-4.43534c0,-12.24786 10.72316,-22.17671 23.95085,-22.17671c13.22768,0 23.95085,9.92885 23.95085,22.17671z" data-paper-data="{&quot;origPos&quot;:null}" fill="url(#color-31)" stroke-width="NaN"/><path d="M52.82282,62.53279c0,12.24786 -27.05558,4.43534 -27.05558,4.43534c0,0 -20.84611,7.81253 -20.84611,-4.43534c0,-12.24786 10.72315,-22.17671 23.95085,-22.17671c13.22768,0 23.95085,9.92885 23.95085,22.17671z" data-paper-data="{&quot;origPos&quot;:null}" fill="url(#color-32)" stroke-width="NaN"/><path d="M90.09712,62.45808c0,12.24786 -27.05558,4.43533 -27.05558,4.43533c0,0 -20.84611,7.81253 -20.84611,-4.43533c0,-12.24786 10.72315,-22.17671 23.95085,-22.17671c13.22768,0 23.95085,9.92885 23.95085,22.17671z" data-paper-data="{&quot;origPos&quot;:null}" fill="url(#color-33)" stroke-width="NaN"/><path d="M-35.76869,77.17031l14.25869,-30.25757l130.33844,-0.21287l13.20843,31.58268z" data-paper-data="{&quot;origPos&quot;:null}" fill="url(#color-34)" stroke-width="0"/><path d="M-14.66847,66.97209c0,8.32855 -9.25434,16.4396 -17.82784,16.4396c-8.5735,0 -13.21955,-8.11106 -13.21955,-16.4396c0,-8.32855 6.9502,-15.08016 15.5237,-15.08016c8.5735,0 15.5237,6.75161 15.5237,15.08016z" data-paper-data="{&quot;origPos&quot;:null}" fill="url(#color-35)" stroke-width="0"/><path d="M138.20081,66.14194c0,8.32855 -4.653,16.62852 -13.2265,16.62852c-8.5735,0 -17.8209,-8.29997 -17.8209,-16.62852c0,-5.66446 1.89289,-9.10116 6.55884,-12.31285c3.06243,-2.10796 5.24708,-2.76731 8.96486,-2.76731c8.5735,0 15.5237,6.75162 15.5237,15.08016z" data-paper-data="{&quot;origPos&quot;:null}" fill="url(#color-36)" stroke-width="0"/></g><path d="M-36.31439,79.59002c0,0 155.15086,0 161.16562,0" data-paper-data="{&quot;origPos&quot;:null}" fill="#7585b2" stroke="#7585b2" stroke-width="10" stroke-linecap="round"/><path d="M31.10551,75.94773c4.49921,2.53063 -11.64155,3.31201 -19.47868,3.31201c-7.83713,0 -14.74843,5.59214 -14.74843,-0.28571c0,-0.3259 -6.74029,-3.09679 -6.44485,-3.23435c2.99165,-1.39289 5.67713,-1.54472 7.80643,-2.82298c4.68556,-2.81281 7.96956,-2.71514 12.8288,-2.71514c0,0 5.05677,-0.65893 9.67257,2.34864c3.43195,1.91012 5.19549,1.76923 10.36417,3.39753z" data-paper-data="{&quot;origPos&quot;:null}" fill="#7585b2" stroke="none" stroke-width="0" stroke-linecap="butt"/><path d="M68.2868,75.73623c4.49921,2.53063 -11.64155,3.31201 -19.47867,3.31201c-7.83713,0 -14.74844,5.59214 -14.74844,-0.28571c0,-0.3259 -6.74029,-3.09679 -6.44485,-3.23435c2.99165,-1.39289 5.67713,-1.54472 7.80643,-2.82298c4.68556,-2.81281 7.96956,-2.71514 12.8288,-2.71514c0,0 5.05677,-0.65893 9.67257,2.34864c3.43195,1.91012 5.19549,1.76922 10.36417,3.39752z" data-paper-data="{&quot;origPos&quot;:null}" fill="#7585b2" stroke="none" stroke-width="0" stroke-linecap="butt"/></g><path d="M126.26443,62.81474c0,12.24786 -27.05558,4.43533 -27.05558,4.43533c0,0 -20.84611,7.81253 -20.84611,-4.43533c0,-12.24786 10.72315,-22.17671 23.95085,-22.17671c13.22768,0 23.95085,9.92885 23.95085,22.17671z" fill="url(#color-37)" stroke="none" stroke-width="NaN" stroke-linecap="butt"/><path d="M110.00128,75.73628c4.49921,2.53063 -11.64155,3.31201 -19.47867,3.31201c-7.83713,0 -14.74844,5.59214 -14.74844,-0.28571c0,-0.3259 -6.74029,-3.09679 -6.44485,-3.23435c2.99165,-1.39289 5.67713,-1.54472 7.80643,-2.82298c4.68556,-2.81281 7.96956,-2.71514 12.8288,-2.71514c0,0 5.05677,-0.65893 9.67257,2.34864c3.43195,1.91012 5.19549,1.76922 10.36417,3.39752z" data-paper-data="{&quot;origPos&quot;:null}" fill="#7585b2" stroke="none" stroke-width="0" stroke-linecap="butt"/></g><g data-paper-data="{&quot;index&quot;:null}" fill-rule="nonzero" stroke-linejoin="miter"><g data-paper-data="{&quot;origPos&quot;:null}" stroke="none" stroke-linecap="butt"><path d="M113.83156,99.35992c0,12.24786 -27.05558,4.43534 -27.05558,4.43534c0,0 -20.84611,7.81253 -20.84611,-4.43534c0,-12.24786 10.72316,-22.17671 23.95085,-22.17671c13.22768,0 23.95085,9.92885 23.95085,22.17671z" data-paper-data="{&quot;origPos&quot;:null}" fill="url(#color-38)" stroke-width="NaN"/><path d="M150.57014,99.28518c0,12.24786 -27.05558,4.43534 -27.05558,4.43534c0,0 -20.84611,7.81253 -20.84611,-4.43534c0,-12.24786 10.72315,-22.17671 23.95085,-22.17671c13.22768,0 23.95085,9.92885 23.95085,22.17671z" data-paper-data="{&quot;origPos&quot;:null}" fill="url(#color-39)" stroke-width="NaN"/><path d="M187.30875,99.21043c0,12.24786 -27.05558,4.43533 -27.05558,4.43533c0,0 -20.84611,7.81253 -20.84611,-4.43533c0,-12.24786 10.72315,-22.17671 23.95085,-22.17671c13.22768,0 23.95085,9.92885 23.95085,22.17671z" data-paper-data="{&quot;origPos&quot;:null}" fill="url(#color-40)" stroke-width="NaN"/><path d="M61.97863,113.92269l14.25869,-30.25757l98.29131,-1.46022l20.22687,30.74431z" data-paper-data="{&quot;origPos&quot;:null}" fill="url(#color-41)" stroke-width="0"/><path d="M83.07885,103.72446c0,8.32855 -9.25434,16.4396 -17.82784,16.4396c-8.5735,0 -13.21955,-8.11106 -13.21955,-16.4396c0,-8.32855 6.9502,-15.08016 15.5237,-15.08016c8.5735,0 15.5237,6.75161 15.5237,15.08016z" data-paper-data="{&quot;origPos&quot;:null}" fill="url(#color-42)" stroke-width="0"/><path d="M202.15941,102.89432c0,8.32855 -4.653,16.62852 -13.2265,16.62852c-8.5735,0 -17.8209,-8.29997 -17.8209,-16.62852c0,-5.66446 1.89289,-9.10116 6.55884,-12.31285c3.06243,-2.10796 5.24708,-2.76731 8.96486,-2.76731c8.5735,0 15.5237,6.75162 15.5237,15.08016z" data-paper-data="{&quot;origPos&quot;:null}" fill="url(#color-43)" stroke-width="0"/></g><path d="M61.43293,116.34241c0,0 36.85514,0 85.77422,0c15.5848,0 33.91934,0 39.9341,0c2.00492,0 1.97146,0 1.97146,0" data-paper-data="{&quot;origPos&quot;:null}" fill="#7585b2" stroke="#7585b2" stroke-width="10" stroke-linecap="round"/><path d="M128.85283,112.70012c4.49921,2.53063 -11.64155,3.31201 -19.47868,3.31201c-7.83713,0 -14.74843,5.59214 -14.74843,-0.28571c0,-0.3259 -6.74029,-3.09679 -6.44485,-3.23435c2.99165,-1.39289 5.67713,-1.54472 7.80643,-2.82298c4.68556,-2.81281 7.96956,-2.71514 12.8288,-2.71514c0,0 5.05677,-0.65893 9.67257,2.34864c3.43195,1.91012 5.19549,1.76923 10.36417,3.39753z" data-paper-data="{&quot;origPos&quot;:null}" fill="#7585b2" stroke="none" stroke-width="0" stroke-linecap="butt"/><path d="M166.03412,112.48862c4.49921,2.53063 -11.64155,3.31201 -19.47867,3.31201c-7.83713,0 -14.74844,5.59214 -14.74844,-0.28571c0,-0.3259 -6.74029,-3.09679 -6.44485,-3.23435c2.99165,-1.39289 5.67713,-1.54472 7.80643,-2.82298c4.68556,-2.81281 7.96956,-2.71514 12.8288,-2.71514c0,0 5.05677,-0.65893 9.67257,2.34864c3.43195,1.91012 5.19549,1.76922 10.36417,3.39752z" data-paper-data="{&quot;origPos&quot;:null}" fill="#7585b2" stroke="none" stroke-width="0" stroke-linecap="butt"/></g><path d="M308.53221,293.08523h-29.53836" data-paper-data="{&quot;index&quot;:null}" fill="none" fill-rule="nonzero" stroke="#4b2af5" stroke-width="15" stroke-linecap="round" stroke-linejoin="miter"/><path d="M176.86469,286.9371l35.23888,0.20029" fill="none" fill-rule="nonzero" stroke="#502bff" stroke-width="25" stroke-linecap="round" stroke-linejoin="miter"/><path d="M492.5818,179.65759l-54.91589,-0.20029" fill="none" fill-rule="nonzero" stroke="#502bff" stroke-width="26" stroke-linecap="round" stroke-linejoin="miter"/><g fill="#ffffff" fill-rule="evenodd" stroke="none" stroke-width="1" stroke-linecap="round" stroke-linejoin="round"><path d="M388.59816,106.80055c0,0 -1.04359,-0.04571 -1.49493,0.41573c-0.45135,0.46143 -0.3563,1.47686 -0.3563,1.47686c0,0 0.34168,6.95464 0.49567,11.87056c0.03761,1.2007 -1.04095,2.69616 -2.44933,2.60545c-1.40838,-0.0907 -2.41017,-1.54506 -2.59215,-2.69344c-0.18198,-1.14838 -0.46615,-12.77637 -0.4248,-14.06833c0.04135,-1.29195 0.36237,-2.53424 1.20565,-3.43534c0.84327,-0.9011 2.31639,-1.24101 3.54921,-1.28142c1.23282,-0.0404 14.41484,0.23326 14.41484,0.23326c1.30869,0.03888 2.62228,1.07294 2.73535,2.56119c0.11305,1.48823 -1.21516,2.53819 -2.35025,2.50831z" data-paper-data="{&quot;origPos&quot;:null,&quot;origRot&quot;:0,&quot;index&quot;:null}" opacity="0.42445"/><path d="M375.13426,93.05907c0,0 -1.0436,-0.04571 -1.49493,0.41573c-0.45135,0.46143 -0.35629,1.47686 -0.35629,1.47686c0,0 0.34168,6.95464 0.49567,11.87057c0.03761,1.2007 -1.04092,2.69616 -2.44932,2.60545c-1.40838,-0.0907 -2.41018,-1.54508 -2.59216,-2.69345c-0.18198,-1.14838 -0.46615,-12.77637 -0.4248,-14.06833c0.04136,-1.29195 0.36237,-2.53425 1.20565,-3.43535c0.84327,-0.9011 2.31639,-1.24099 3.54921,-1.2814c1.23282,-0.0404 14.41484,0.23325 14.41484,0.23325c1.30869,0.03888 2.62228,1.07294 2.73534,2.56118c0.11305,1.48823 -1.21517,2.5382 -2.35024,2.50832z" data-paper-data="{&quot;origPos&quot;:null,&quot;origRot&quot;:0,&quot;index&quot;:null}" opacity="0.42445"/><path d="M361.67037,79.31759c0,0 -1.0436,-0.04571 -1.49493,0.41573c-0.45135,0.46143 -0.35629,1.47686 -0.35629,1.47686c0,0 0.34168,6.95464 0.49567,11.87057c0.03761,1.2007 -1.04092,2.69616 -2.44932,2.60545c-1.40839,-0.09071 -2.41018,-1.54508 -2.59217,-2.69345c-0.18198,-1.14838 -0.46615,-12.77637 -0.42479,-14.06832c0.04136,-1.29195 0.36238,-2.53424 1.20565,-3.43534c0.84327,-0.9011 2.31638,-1.241 3.54921,-1.28142c1.23282,-0.0404 14.41484,0.23326 14.41484,0.23326c1.30869,0.03888 2.62229,1.07295 2.73535,2.56119c0.11306,1.48824 -1.21516,2.53819 -2.35024,2.50832z" data-paper-data="{&quot;origPos&quot;:null,&quot;origRot&quot;:0,&quot;index&quot;:null}" opacity="0.42445"/></g></g></g></svg>