<svg version="1.1" xmlns="http://www.w3.org/2000/svg" xmlns:xlink="http://www.w3.org/1999/xlink" width="758.68243" height="381" viewBox="0,0,758.68243,381"><g transform="translate(120.12073,5.47538)"><g data-paper-data="{&quot;isPaintingLayer&quot;:true}" fill-rule="nonzero" stroke-linejoin="miter" stroke-miterlimit="10" stroke-dasharray="" stroke-dashoffset="0" style="mix-blend-mode: normal"><path d="M-100.54978,332.99102l0.22865,-283.23808l353.56957,0.44771l63.90222,46.80332l-0.56758,254.30696z" data-paper-data="{&quot;index&quot;:null}" fill="#4000af" stroke="none" stroke-width="0" stroke-linecap="butt"/><path d="M254.1287,50.98418l-0.78521,27.63123l-355.67783,0.16667v-27.95262z" data-paper-data="{&quot;index&quot;:null}" fill="#4926f1" stroke="none" stroke-width="0" stroke-linecap="butt"/><path d="M-120.12073,375.52462v-381h758.68243v381z" fill="none" stroke="none" stroke-width="NaN" stroke-linecap="butt"/><g><path d="M436.74154,340.09196l0.22865,-283.23808l70.24526,-17.4727l99.11285,17.16771l-1.00839,285.26349z" data-paper-data="{&quot;index&quot;:null}" fill="#4000af" stroke="none" stroke-width="0" stroke-linecap="butt"/><path d="M482.7476,26.71615l37.14239,2.26023l-82.74508,68.96913l-0.06521,-40.11308z" data-paper-data="{&quot;index&quot;:null}" fill="#4926f1" stroke="none" stroke-width="0" stroke-linecap="butt"/><path d="M562.80034,27.60404l-13.00863,28.5617h-49.04887c0,0 -6.26726,-0.22796 -11.16667,1.33333c-4.89941,1.56129 -9.70203,5.16667 -9.70203,5.16667l2.59358,-35.33452z" data-paper-data="{&quot;index&quot;:null}" fill="#4926f1" stroke="none" stroke-width="0" stroke-linecap="butt"/><path d="M605.13145,97.47355l-43.4284,-34.59466c0,0 -4.89737,-4.27903 -9.1728,-5.76702c-4.27543,-1.488 -12.48274,-1.60317 -12.48274,-1.60317l23.44525,-30.41193l42.13331,32.72521z" data-paper-data="{&quot;index&quot;:null}" fill="#4926f1" stroke="none" stroke-width="0" stroke-linecap="butt"/><path d="M440.4057,56.36722l37.44079,-29.86485l86.92192,0.48633l36.37583,28.0806" data-paper-data="{&quot;index&quot;:null}" fill="none" stroke="#3eb5fa" stroke-width="7" stroke-linecap="round"/></g><path d="M316.55917,135.68725l-67.76874,-49.99414c0,0 -4.89737,-4.27903 -9.1728,-5.76702c-4.27543,-1.488 -12.48274,-1.60317 -12.48274,-1.60317l14.84525,-30.81193l75.07365,49.12469z" data-paper-data="{&quot;index&quot;:null}" fill="#4926f1" stroke="none" stroke-width="0" stroke-linecap="butt"/><path d="M-101.37278,49.40359l348.86641,-0.16411l65.40686,45.69532" data-paper-data="{&quot;index&quot;:null}" fill="none" stroke="#3eb5fa" stroke-width="7" stroke-linecap="round"/></g></g></svg>