<svg version="1.1" xmlns="http://www.w3.org/2000/svg" xmlns:xlink="http://www.w3.org/1999/xlink" width="170" height="185" viewBox="0,0,170,185"><g transform="translate(-158.55707,-83.66847)"><g data-paper-data="{&quot;isPaintingLayer&quot;:true}" fill-rule="nonzero" stroke-width="0" stroke-linecap="butt" stroke-linejoin="miter" stroke-miterlimit="10" stroke-dasharray="" stroke-dashoffset="0" style="mix-blend-mode: normal"><g data-paper-data="{&quot;origPos&quot;:null}" fill="#b82832" stroke="none"><path d="M189.00548,230.92588l0.32341,-34.98938l99.31646,-0.51874l-0.22314,35.50814z" data-paper-data="{&quot;origPos&quot;:null}"/><path d="M273.23632,239.95175c-0.92187,-0.75281 -0.78357,-2.22305 -0.78357,-2.22305v-17.15775h16.08182v17.09241c0,0 0.23183,1.46181 -0.7516,2.26516c-0.98344,0.80335 -2.82891,0.65966 -2.82891,0.65966h-8.99968c0,0 -1.79618,0.11639 -2.71806,-0.63642z" data-paper-data="{&quot;origPos&quot;:null}"/><path d="M245.14263,240.25766c-0.92187,-0.75281 -0.78356,-2.22305 -0.78356,-2.22305v-17.15775h16.08183v17.0924c0,0 0.23183,1.46181 -0.75161,2.26516c-0.98344,0.80335 -2.82891,0.65966 -2.82891,0.65966h-8.99968c0,0 -1.79619,0.11639 -2.71806,-0.63643z" data-paper-data="{&quot;origPos&quot;:null}"/><path d="M216.82873,240.36591c-0.92187,-0.75281 -0.78356,-2.22305 -0.78356,-2.22305v-17.15775h16.08182v17.09241c0,0 0.23184,1.46181 -0.7516,2.26516c-0.98344,0.80335 -2.82891,0.65966 -2.82891,0.65966h-8.99968c0,0 -1.79619,0.11639 -2.71806,-0.63642z" data-paper-data="{&quot;origPos&quot;:null}"/><path d="M189.75297,241.26474c-0.90795,-0.75281 -0.77174,-2.22305 -0.77174,-2.22305v-17.15775h15.83896v17.0924c0,0 0.22833,1.46182 -0.74026,2.26516c-0.96859,0.80335 -2.78619,0.65966 -2.78619,0.65966h-8.86377c0,0 -1.76906,0.11639 -2.67701,-0.63643z" data-paper-data="{&quot;origPos&quot;:null}"/></g><path d="M189.02238,218.58826l0.37105,-62.5415l99.70454,0.10696l0.13371,39.45081c0,0 -0.21618,1.22451 -0.70141,1.59904c-0.48523,0.37453 -2.02747,0.53148 -2.02747,0.53148l-68.59116,-0.12093c0,0 -1.04765,-0.10547 -1.61624,0.3553c-0.56859,0.46077 -0.44744,1.31706 -0.44744,1.31706l-0.09121,5.05362c0,0 -0.20692,0.99337 0.43627,1.49247c0.64319,0.49912 1.94799,0.35767 1.94799,0.35767l67.47031,-0.03136c0,0 1.56572,0.13261 2.11039,0.51228c0.54467,0.37967 0.80241,1.5872 0.80241,1.5872l-0.04291,10.24051z" data-paper-data="{&quot;origPos&quot;:null}" fill="#fe404f" stroke="#000000"/><path d="M189.35517,169.07534v-10.28804c0,0 0.03818,-4.18772 2.77859,-6.1076c2.74041,-1.91986 7.77553,-1.78263 7.77553,-1.78263h76.93528c0,0 6.44492,-0.04202 9.32105,2.30069c2.87613,2.34269 2.83257,7.19502 2.83257,7.19502v8.68255z" data-paper-data="{&quot;origPos&quot;:null}" fill="#b82832" stroke="none"/><path d="M209.5218,141.43305c1.14174,-0.9482 3.49827,-0.82574 3.49827,-0.82574l41.268,-0.18675c0,0 5.99622,-0.03918 8.67829,2.14545c2.68207,2.18463 2.6553,6.68706 2.6553,6.68706v8.11922h-57.30603l0.17562,-13.00641c0,0 -0.11119,-1.98464 1.03055,-2.93283z" data-paper-data="{&quot;origPos&quot;:null}" fill="#b82832" stroke="none"/><g data-paper-data="{&quot;origPos&quot;:null}" fill="#ffffff" stroke="none"><path d="M287.79317,197.87373c0,0 1.29537,0.0288 1.60945,1.01746c0.31408,0.98863 -0.64215,2.02743 -0.64215,2.02743l-7.74481,10.14232c0,0 -0.90557,1.52395 -1.94471,1.42671c-1.03914,-0.09724 -1.8741,-1.78406 -1.8741,-1.78406l-9.18059,-12.82987z" data-paper-data="{&quot;origPos&quot;:null,&quot;index&quot;:null}"/><path d="M270.39317,197.87373c0,0 1.29538,0.0288 1.60945,1.01746c0.31408,0.98863 -0.64216,2.02743 -0.64216,2.02743l-7.74481,10.14232c0,0 -0.90557,1.52395 -1.94471,1.42671c-1.03914,-0.09724 -1.8741,-1.78406 -1.8741,-1.78406l-9.18059,-12.82987z" data-paper-data="{&quot;origPos&quot;:null,&quot;index&quot;:null}"/></g><path d="M229.35072,180.27728c-1.79194,-1.40604 -1.4572,-4.19833 -1.4572,-4.19833l0.16223,-22.80753c0,0 0.04546,-3.27781 2.39299,-4.32374c2.34753,-1.04593 6.73526,0.47884 6.73526,0.47884l49.00367,24.77721c0,0 3.99774,2.04219 2.48058,5.0256c-1.37726,2.70829 -6.68494,2.34166 -6.68494,2.34166l-47.25865,-0.13201c0,0 -3.582,0.24435 -5.37394,-1.16168z" data-paper-data="{&quot;origPos&quot;:null}" fill="#fdf883" stroke="none"/><path d="M244.78775,163.95258c0,-4.31759 4.30926,-7.81769 9.625,-7.81769c5.31574,0 9.625,3.50011 9.625,7.81769c0,4.31759 -4.30926,7.81769 -9.625,7.81769c-5.31574,0 -9.625,-3.50011 -9.625,-7.81769z" data-paper-data="{&quot;origPos&quot;:null}" fill="#f02333" stroke="none"/><path d="M158.55707,268.66847v-185h170v185z" fill="none" stroke="none"/></g></g></svg>