<svg version="1.1" xmlns="http://www.w3.org/2000/svg" xmlns:xlink="http://www.w3.org/1999/xlink" width="762" height="473" viewBox="0,0,762,473"><g transform="translate(163,18.95291)"><g data-paper-data="{&quot;isPaintingLayer&quot;:true}" fill-rule="nonzero" stroke-linejoin="miter" stroke-miterlimit="10" stroke-dasharray="" stroke-dashoffset="0" style="mix-blend-mode: normal"><path d="M-97.34052,433.43119l-0.29408,-162.30527l246.95856,-0.40362l65.22817,-8.07501l0.22865,-247.22573l187.75965,0.44771l134.9887,106.81206l-2.25302,310.12733z" data-paper-data="{&quot;index&quot;:null}" fill="#4000af" stroke="none" stroke-width="0" stroke-linecap="butt"/><path d="M537.48139,124.6652l-17.15767,21.87185l-140.53298,-109.02798l17.09403,-22.11657z" data-paper-data="{&quot;index&quot;:null}" fill="#4926f1" stroke="none" stroke-width="0" stroke-linecap="butt"/><path d="M535.30237,121.96899l-135.39997,-106.1837" data-paper-data="{&quot;index&quot;:null}" fill="none" stroke="#3eb5fa" stroke-width="7" stroke-linecap="round"/><path d="M-163,239.04709v-54h75.56158v54z" fill="#4000af" stroke="none" stroke-width="0" stroke-linecap="butt"/><path d="M235.27739,244.65512l-11.99234,30.68164l-321.01227,0.32705v-33.15746z" data-paper-data="{&quot;index&quot;:null}" fill="#4926f1" stroke="none" stroke-width="0" stroke-linecap="butt"/><path d="M-94.51805,242.14356h322.49744" data-paper-data="{&quot;index&quot;:null}" fill="none" stroke="#3eb5fa" stroke-width="7" stroke-linecap="round"/><path d="M402.83835,16.6829l-0.2,27.7979h-187.819v-27.95262z" data-paper-data="{&quot;index&quot;:null}" fill="#4926f1" stroke="none" stroke-width="0" stroke-linecap="butt"/><path d="M399.41429,15.57221h-181.37642" data-paper-data="{&quot;index&quot;:null}" fill="none" stroke="#3eb5fa" stroke-width="7" stroke-linecap="round"/><path d="M-135.43842,454.04709v-473h734.43842v473z" fill="none" stroke="none" stroke-width="NaN" stroke-linecap="butt"/></g></g></svg>