<svg version="1.1" xmlns="http://www.w3.org/2000/svg" xmlns:xlink="http://www.w3.org/1999/xlink" width="519" height="384" viewBox="0,0,519,384"><g transform="translate(9.88051,-38.6551)"><g data-paper-data="{&quot;isPaintingLayer&quot;:true}" stroke-miterlimit="10" stroke-dasharray="" stroke-dashoffset="0" style="mix-blend-mode: normal"><path d="M-9.88051,422.6551v-384h519l-1,384z" fill="none" fill-rule="nonzero" stroke="none" stroke-width="NaN" stroke-linecap="butt" stroke-linejoin="miter"/><path d="M55.8915,137.97782v-29.79814h388.71376l0.33333,29.79814z" data-paper-data="{&quot;origPos&quot;:null}" fill="#8d00e4" fill-rule="nonzero" stroke="none" stroke-width="0" stroke-linecap="butt" stroke-linejoin="miter"/><path d="M292.1439,141.45755v-30.40128l52.79411,-0.33333v30.73462z" data-paper-data="{&quot;origPos&quot;:null}" fill="#7700c2" fill-rule="nonzero" stroke="none" stroke-width="0" stroke-linecap="butt" stroke-linejoin="miter"/><path d="M381.87776,131.57479v-10.197c0,-2.79218 2.19312,-5.05554 4.89864,-5.05554h30.98056c2.70533,0 4.89864,2.26336 4.89864,5.05554v10.197c0,2.79212 -2.19332,5.05559 -4.89864,5.05559h-30.98056c-2.70552,0 -4.89864,-2.26347 -4.89864,-5.05559z" data-paper-data="{&quot;origPos&quot;:null,&quot;origRot&quot;:0}" fill="#8300d5" fill-rule="evenodd" stroke="none" stroke-width="14" stroke-linecap="round" stroke-linejoin="round"/><path d="M326.36082,125.07415v-10.19698c0,-2.79218 2.19312,-5.05555 4.89864,-5.05555h30.98056c2.70532,0 4.89865,2.26336 4.89865,5.05555v10.19698c0,2.79212 -2.19333,5.05559 -4.89865,5.05559h-30.98056c-2.70551,0 -4.89864,-2.26348 -4.89864,-5.05559z" data-paper-data="{&quot;origPos&quot;:null,&quot;origRot&quot;:0}" fill="#9d00ff" fill-rule="evenodd" stroke="none" stroke-width="14" stroke-linecap="round" stroke-linejoin="round"/><path d="M151.96641,140.85072v-29.73462h70.39215v29.73462z" data-paper-data="{&quot;origPos&quot;:null}" fill="#7700c2" fill-rule="nonzero" stroke="none" stroke-width="0" stroke-linecap="butt" stroke-linejoin="miter"/><path d="M262.22195,131.8049v-10.197c0,-2.79218 2.19313,-5.05555 4.89865,-5.05555h30.98056c2.70532,0 4.89865,2.26336 4.89865,5.05555v10.197c0,2.7921 -2.19333,5.05559 -4.89865,5.05559h-30.98056c-2.70551,0 -4.89865,-2.26347 -4.89865,-5.05559z" data-paper-data="{&quot;origPos&quot;:null,&quot;origRot&quot;:0}" fill="#9d00ff" fill-rule="evenodd" stroke="none" stroke-width="14" stroke-linecap="round" stroke-linejoin="round"/><path d="M73.68095,132.12523v-10.19698c0,-2.79218 2.19312,-5.05555 4.89865,-5.05555h30.98056c2.70532,0 4.89864,2.26336 4.89864,5.05555v10.19698c0,2.7921 -2.19332,5.05559 -4.89864,5.05559h-30.98056c-2.70552,0 -4.89865,-2.26347 -4.89865,-5.05559z" data-paper-data="{&quot;origPos&quot;:null,&quot;origRot&quot;:0}" fill="#9d00ff" fill-rule="evenodd" stroke="none" stroke-width="14" stroke-linecap="round" stroke-linejoin="round"/><path d="M133.21333,119.96687v-10.197c0,-2.79218 2.19312,-5.05555 4.89865,-5.05555h30.98056c2.70532,0 4.89865,2.26336 4.89865,5.05555v10.197c0,2.7921 -2.19333,5.05559 -4.89865,5.05559h-30.98056c-2.70552,0 -4.89865,-2.26347 -4.89865,-5.05559z" data-paper-data="{&quot;origPos&quot;:null,&quot;origRot&quot;:0}" fill="#8300d5" fill-rule="evenodd" stroke="none" stroke-width="14" stroke-linecap="round" stroke-linejoin="round"/><path d="M203.74082,131.58953v-10.19698c0,-2.79218 2.19313,-5.05555 4.89865,-5.05555h30.98056c2.70532,0 4.89865,2.26336 4.89865,5.05555v10.19698c0,2.79212 -2.19333,5.05559 -4.89865,5.05559h-30.98056c-2.70552,0 -4.89865,-2.26347 -4.89865,-5.05559z" data-paper-data="{&quot;origPos&quot;:null,&quot;origRot&quot;:0}" fill="#8300d5" fill-rule="evenodd" stroke="none" stroke-width="14" stroke-linecap="round" stroke-linejoin="round"/><g data-paper-data="{&quot;origPos&quot;:null}" fill-rule="nonzero" stroke="#000000" stroke-width="0" stroke-linecap="butt" stroke-linejoin="miter"><path d="M68.57169,402.90089v-256.33818h361.85358v256.33818l-36.3955,0.30775l0.27168,-170.89844c0,0 0.21505,-30.91615 -13.42522,-48.30693c-18.12332,-23.10647 -49.25502,-24.07573 -49.25502,-24.07573l-151.80335,-0.16683c0,0 -34.76187,-2.52758 -56.02581,18.50275c-20.98246,20.75195 -18.62832,42.99413 -18.62832,42.99413l-0.40667,181.64331z" data-paper-data="{&quot;origPos&quot;:null}" fill="#5f00a2"/><path d="M56.10565,403.01929v-266.00675h388.81596v265.00675l-39.10739,0.33067c0,0 0.08176,-149.29911 0.1341,-155.25101c0.06159,-7.00511 0.15782,-17.94973 0.15782,-17.94973c0,0 0.23108,-33.21977 -14.42556,-51.90636c-19.47372,-24.82817 -52.92509,-25.86965 -52.92509,-25.86965l-163.1145,-0.17927c0,0 -37.35204,-2.71591 -60.20039,19.88143c-22.54589,22.29821 -20.01637,46.19771 -20.01637,46.19771l-0.43697,185.74622z" data-paper-data="{&quot;origPos&quot;:null}" fill="#6600ae"/></g><path d="M59.4205,107.44339h381.72608" data-paper-data="{&quot;origPos&quot;:null}" fill="none" fill-rule="nonzero" stroke="#a718ff" stroke-width="7" stroke-linecap="round" stroke-linejoin="miter"/></g></g></svg>