<svg version="1.1" xmlns="http://www.w3.org/2000/svg" xmlns:xlink="http://www.w3.org/1999/xlink" width="465.33814" height="339.3373" viewBox="0,0,465.33814,339.3373"><g transform="translate(46.8729,-16.87414)"><g data-paper-data="{&quot;isPaintingLayer&quot;:true}" fill-rule="nonzero" stroke-linejoin="miter" stroke-miterlimit="10" stroke-dasharray="" stroke-dashoffset="0" style="mix-blend-mode: normal"><path d="M-43.26836,354.49102l0.22865,-283.23808l143.35936,0.44771l49.84572,-45.85876l72.28288,-1.39344l182.02788,130.46936l2.58782,201.29364z" data-paper-data="{&quot;index&quot;:null}" fill="#4000af" stroke="none" stroke-width="0" stroke-linecap="butt"/><path d="M98.91838,71.98417l3.21479,27.63123l-146.46762,0.16667v-27.95262z" data-paper-data="{&quot;index&quot;:null}" fill="#4926f1" stroke="none" stroke-width="0" stroke-linecap="butt"/><path d="M166.73729,19.35226l36.19532,2.26023l-85.07232,71.68598c0,0 -4.3082,3.56758 -8.22721,4.95858c-3.91901,1.391 -9.41253,1.30241 -9.41253,1.30241l-11.4707,-22.31238z" data-paper-data="{&quot;index&quot;:null}" fill="#4926f1" stroke="none" stroke-width="0" stroke-linecap="butt"/><path d="M230.75179,22.11482l-18.79117,28.5617h-30.23112c0,0 -6.26726,-0.22796 -11.16667,1.33333c-4.89941,1.56129 -9.70203,5.16667 -9.70203,5.16667l2.59358,-35.33452z" data-paper-data="{&quot;index&quot;:null}" fill="#4926f1" stroke="none" stroke-width="0" stroke-linecap="butt"/><path d="M396.42006,149.49869l14.74013,2.03153l4.73623,27.48328l-20.29185,-0.20204c0,0 -5.34092,-0.36134 -9.09874,-1.61795c-3.75782,-1.25661 -7.60097,-3.96641 -7.60097,-3.96641l-152.99421,-115.30806c0,0 -4.89737,-4.27903 -9.1728,-5.76702c-4.27543,-1.488 -12.48274,-1.60317 -12.48274,-1.60317l23.67655,-31.10584z" data-paper-data="{&quot;index&quot;:null}" fill="#4926f1" stroke="none" stroke-width="0" stroke-linecap="butt"/><path d="M-43.3729,71.40358l139.17272,-0.16827l64.00422,-50.86088l66.62845,0.01544l168.87899,128.6817l19.65376,0.25436" data-paper-data="{&quot;index&quot;:null}" fill="none" stroke="#3eb5fa" stroke-width="7" stroke-linecap="round"/></g></g></svg>