<svg version="1.1" xmlns="http://www.w3.org/2000/svg" xmlns:xlink="http://www.w3.org/1999/xlink" width="170" height="185" viewBox="0,0,170,185"><g transform="translate(-158.55707,-83.66848)"><g data-paper-data="{&quot;isPaintingLayer&quot;:true}" stroke-miterlimit="10" stroke-dasharray="" stroke-dashoffset="0" style="mix-blend-mode: normal"><path d="M158.55707,268.66848v-185h170v185z" fill="none" fill-rule="nonzero" stroke="none" stroke-width="0" stroke-linecap="butt" stroke-linejoin="miter"/><g data-paper-data="{&quot;origPos&quot;:null}" fill="#ffdf32" fill-rule="nonzero" stroke="none" stroke-width="0" stroke-linecap="butt" stroke-linejoin="miter"><path d="M189.00548,235.31628l0.32341,-21.00542l99.31646,-0.31142l-0.22314,21.31685z" data-paper-data="{&quot;origPos&quot;:null}"/><path d="M273.23632,240.73485c-0.92187,-0.45194 -0.78357,-1.33458 -0.78357,-1.33458v-10.30044h16.08182v10.26121c0,0 0.23183,0.87758 -0.7516,1.35986c-0.98344,0.48228 -2.82891,0.39602 -2.82891,0.39602h-8.99968c0,0 -1.79618,0.06987 -2.71806,-0.38207z" data-paper-data="{&quot;origPos&quot;:null}"/><path d="M245.14263,240.91849c-0.92187,-0.45194 -0.78357,-1.33458 -0.78357,-1.33458v-10.30044h16.08184v10.2612c0,0 0.23182,0.87758 -0.75162,1.35986c-0.98344,0.48228 -2.82891,0.39602 -2.82891,0.39602h-8.99968c0,0 -1.79619,0.06987 -2.71806,-0.38207z" data-paper-data="{&quot;origPos&quot;:null}"/><path d="M216.82873,240.98348c-0.92187,-0.45194 -0.78356,-1.33458 -0.78356,-1.33458v-10.30044h16.08182v10.26121c0,0 0.23184,0.87758 -0.7516,1.35986c-0.98344,0.48228 -2.82892,0.39602 -2.82892,0.39602h-8.99968c0,0 -1.79618,0.06987 -2.71805,-0.38207z" data-paper-data="{&quot;origPos&quot;:null}"/><path d="M189.75297,241.52308c-0.90795,-0.45194 -0.77174,-1.33458 -0.77174,-1.33458v-10.30044h15.83896v10.2612c0,0 0.22833,0.87758 -0.74026,1.35986c-0.96859,0.48228 -2.78619,0.39602 -2.78619,0.39602h-8.86377c0,0 -1.76906,0.06987 -2.67701,-0.38207z" data-paper-data="{&quot;origPos&quot;:null}"/></g><path d="M189.02238,227.90955l0.37105,-34.74287l99.70454,0.05942l-0.61676,34.6338z" data-paper-data="{&quot;origPos&quot;:null}" fill="#ffb73b" fill-rule="nonzero" stroke="#000000" stroke-width="0" stroke-linecap="butt" stroke-linejoin="miter"/><path d="M189.35517,197.9261v-6.36739c0,0 0.02568,-1.6909 1.86882,-2.46609c1.84314,-0.77519 5.22967,-0.71978 5.22967,-0.71978h84.37025c0,0 4.33472,-0.01696 6.26916,0.92896c1.93443,0.94592 1.90513,2.90517 1.90513,2.90517v5.71913z" data-paper-data="{&quot;origPos&quot;:null}" fill="#ffdf32" fill-rule="nonzero" stroke="none" stroke-width="0" stroke-linecap="butt" stroke-linejoin="miter"/><path d="M214.82454,211.1176h-12.5459" fill="none" fill-rule="nonzero" stroke="#fff65d" stroke-width="11" stroke-linecap="round" stroke-linejoin="miter"/><path d="M237.73128,202.99393h43.80996c3.92231,0 7.10172,1.39254 7.10172,3.11048v13.48966c0,1.7178 -3.17941,3.11048 -7.10172,3.11048h-43.80996c-3.92213,0 -7.10163,-1.39268 -7.10163,-3.11048v-13.48966c0,-1.71793 3.1795,-3.11048 7.10163,-3.11048z" fill="#ffffff" fill-rule="evenodd" stroke="none" stroke-width="1" stroke-linecap="round" stroke-linejoin="round"/><path d="M259.6965,213.58603c0,-2.05312 3.41336,-3.7175 7.62393,-3.7175c4.21057,0 7.62393,1.66439 7.62393,3.7175c0,2.05312 -3.41335,3.7175 -7.62393,3.7175c-4.21057,0 -7.62393,-1.66438 -7.62393,-3.7175z" fill="#ff40a7" fill-rule="nonzero" stroke="none" stroke-width="0" stroke-linecap="butt" stroke-linejoin="miter"/></g></g></svg>