<svg version="1.1" xmlns="http://www.w3.org/2000/svg" xmlns:xlink="http://www.w3.org/1999/xlink" width="226.69182" height="109.02456" viewBox="0,0,226.69182,109.02456"><defs><linearGradient x1="274.79977" y1="25.14933" x2="268.03063" y2="43.8241" gradientUnits="userSpaceOnUse" id="color-1"><stop offset="0" stop-color="#9a2ffe"/><stop offset="1" stop-color="#c443fd"/></linearGradient></defs><g transform="translate(-129.50189,14.83117)"><g data-paper-data="{&quot;isPaintingLayer&quot;:true}" stroke-miterlimit="10" stroke-dasharray="" stroke-dashoffset="0" style="mix-blend-mode: normal"><path d="M187.93544,16.93866h91.11341c8.98431,0 16.26832,7.28399 16.26832,16.26832v0.28971c0,8.98431 -7.28399,16.26832 -16.26832,16.26832h-92.28906c-8.98515,0 -16.26898,-7.28399 -16.26898,-16.26832v-0.28971c0,-8.60502 6.68181,-15.65028 15.14053,-16.22979c0.37284,-0.02554 1.92478,-0.03853 2.3041,-0.03853z" fill="#000000" fill-rule="evenodd" stroke="none" stroke-width="1" stroke-linecap="round" stroke-linejoin="round" opacity="0.31775"/><path d="M129.50189,94.19339v-109.02456h226.69182v109.02456z" fill="none" fill-rule="nonzero" stroke="none" stroke-width="0" stroke-linecap="butt" stroke-linejoin="miter"/><g fill-rule="evenodd" stroke-linecap="round" stroke-linejoin="round"><path d="M260.14075,33.38715c0,-6.46653 5.24207,-11.70875 11.70913,-11.70875c6.46653,0 11.70875,5.24222 11.70875,11.70875c0,6.46707 -5.24222,11.70929 -11.70875,11.70929c-6.46707,0 -11.70913,-5.24223 -11.70913,-11.70929z" fill="url(#color-1)" stroke="#ffffff" stroke-width="1.875"/><path d="M277.59164,27.97301c0.27016,0.31014 0.05369,0.82134 0.05369,0.82077l-2.64164,6.78317c0,0 -0.15935,0.3644 -0.41067,0.62428c-0.25131,0.26045 -0.58887,0.41067 -0.58887,0.41067l-6.97908,2.62394c0,0 -0.48549,0.14622 -0.73167,-0.21419c-0.24617,-0.36041 0.01771,-0.85675 0.01771,-0.85675l2.90953,-6.5153c0,0 0.14565,-0.29757 0.41067,-0.53518c0.26446,-0.23761 0.66027,-0.41067 0.66027,-0.41067l6.51472,-2.80214c0,0 0.12223,-0.04912 0.28559,-0.07139c0.16392,-0.02228 0.36498,-0.01256 0.49977,0.14278zM272.13428,34.99785c0.74918,0 1.35652,-0.60733 1.35652,-1.35652c0,-0.74918 -0.60734,-1.35652 -1.35652,-1.35652c-0.74918,0 -1.35652,0.60734 -1.35652,1.35652c0,0.74918 0.60734,1.35652 1.35652,1.35652z" fill="#ffffff" stroke="none" stroke-width="1"/></g><g fill="#ffffff" fill-rule="evenodd" stroke="none" stroke-width="1" stroke-linecap="round" stroke-linejoin="round"><path d="M192.58532,28.80444l-2.81555,3.5075c1.88498,0.38177 4.12788,2.09973 4.12788,4.86756c0,3.1496 -2.67239,5.29705 -6.01286,5.29705c-2.38606,0 -4.65281,-1.04987 -5.60723,-3.45978c-0.33405,-0.93057 0.19089,-2.00429 1.28847,-2.00429c0.73968,0 1.21689,0.45335 1.38391,0.88284c0.62038,1.55093 2.09973,1.88498 2.93485,1.88498c0.88284,0 2.88713,-0.45335 2.88713,-2.6008c0,-2.00429 -2.17131,-2.6008 -3.19732,-2.86327c-0.6681,-0.14316 -1.09758,-0.71582 -1.09758,-1.26461c0,-0.50107 0.35791,-0.88284 0.73968,-1.38391l2.62467,-3.45978h-5.77426c-0.73968,0 -1.36005,-0.57266 -1.36005,-1.33619c0,-0.73968 0.62038,-1.33619 1.36005,-1.33619h6.6571c1.86112,0 3.00644,1.78954 1.86112,3.2689z"/><path d="M209.52634,33.57655v0.57266c0,5.44022 -3.36434,8.20804 -6.75254,8.20804c-3.34048,0 -6.72868,-2.76783 -6.72868,-8.20804v-0.57266c0,-5.44022 3.3882,-8.20804 6.72868,-8.20804c3.3882,0 6.75254,2.76783 6.75254,8.20804zM199.17084,33.57655v0.57266c0,2.55308 0.93057,5.51179 3.60294,5.51179c2.69625,0 3.6268,-2.95871 3.6268,-5.51179v-0.57266c0,-2.52922 -0.93057,-5.53565 -3.6268,-5.53565c-2.67239,0 -3.60294,3.00644 -3.60294,5.53565z"/><path d="M221.43276,26.32294l-7.08659,18.20562c-0.19089,0.5488 -0.76354,0.97829 -1.38391,0.97829c-1.1453,0 -1.74182,-1.16916 -1.40777,-2.02815l7.08659,-18.20562c0.19089,-0.5488 0.76354,-0.97829 1.38391,-0.97829c1.1453,0 1.74182,1.16916 1.40777,2.02815z"/><path d="M233.88799,35.81945c0.73968,0 1.36005,0.57266 1.36005,1.26461c0,0.73968 -0.62038,1.28847 -1.36005,1.28847h-0.59652v2.4815c0,0.85898 -0.71582,1.55093 -1.5748,1.55093c-0.83512,0 -1.55093,-0.69196 -1.55093,-1.55093v-2.4815h-4.62895c-2.00429,0 -2.64853,-1.50321 -1.59866,-2.95871l6.27533,-8.94772c1.04987,-1.47935 3.07802,-1.00215 3.07802,0.73968v8.61367zM226.77753,35.81945h3.3882v-4.93914z"/><path d="M250.63811,33.57655v0.57266c0,5.44022 -3.36434,8.20804 -6.75254,8.20804c-3.34048,0 -6.72868,-2.76783 -6.72868,-8.20804v-0.57266c0,-5.44022 3.3882,-8.20804 6.72868,-8.20804c3.3882,0 6.75254,2.76783 6.75254,8.20804zM240.28262,33.57655v0.57266c0,2.55308 0.93057,5.51179 3.60294,5.51179c2.69625,0 3.6268,-2.95871 3.6268,-5.51179v-0.57266c0,-2.52922 -0.93057,-5.53565 -3.6268,-5.53565c-2.67239,0 -3.60294,3.00644 -3.60294,5.53565z"/></g></g></g></svg>