<svg version="1.1" xmlns="http://www.w3.org/2000/svg" xmlns:xlink="http://www.w3.org/1999/xlink" width="586.06062" height="332.90763" viewBox="0,0,586.06062,332.90763"><g transform="translate(84.44412,-69.90103)"><g data-paper-data="{&quot;isPaintingLayer&quot;:true}" fill-rule="nonzero" stroke-linejoin="miter" stroke-miterlimit="10" stroke-dasharray="" stroke-dashoffset="0" style="mix-blend-mode: normal"><path d="M-83.41854,103.75755l70.24526,-17.4727l126.47062,20.85558l38.43032,45.8425l349.68525,-7.33577l0.20359,256.52507l-586.06062,0.63644z" data-paper-data="{&quot;index&quot;:null}" fill="#4000af" stroke="none" stroke-width="0" stroke-linecap="butt"/><path d="M-37.64114,73.61974l37.14239,2.26023l-83.07841,68.96913l-0.06521,-40.11308z" data-paper-data="{&quot;index&quot;:null}" fill="#4926f1" stroke="none" stroke-width="0" stroke-linecap="butt"/><path d="M74.8914,74.50768l-13.00863,28.5617h-81.52867c0,0 -6.26726,-0.22796 -11.16667,1.33333c-4.89941,1.56129 -9.70203,5.16667 -9.70203,5.16667l2.59358,-35.33452z" data-paper-data="{&quot;index&quot;:null}" fill="#4926f1" stroke="none" stroke-width="0" stroke-linecap="butt"/><path d="M164.44409,173.39205c0,0 -4.73184,-0.04918 -8.5934,-0.78792c-3.90725,-0.74747 -7.79098,-3.39554 -7.79098,-3.39554l-72.44606,-59.42606c0,0 -4.89737,-4.27903 -9.1728,-5.76702c-4.27543,-1.488 -12.48274,-1.60317 -12.48274,-1.60317l23.44525,-30.41193l87.38381,70.2326z" data-paper-data="{&quot;index&quot;:null}" fill="#4926f1" stroke="none" stroke-width="0" stroke-linecap="butt"/><path d="M-79.98303,103.27088l37.44079,-29.86485l119.40172,0.48633l86.44241,69.46089" data-paper-data="{&quot;index&quot;:null}" fill="none" stroke="#3eb5fa" stroke-width="7" stroke-linecap="round"/><path d="M163.64313,173.40663l-16.01838,-30.21099h353.8888l0.04142,30.21099z" fill="#4926f1" stroke="none" stroke-width="0" stroke-linecap="butt"/><path d="M497.9495,143.70192h-333.86569" fill="none" stroke="#3eb5fa" stroke-width="7" stroke-linecap="round"/></g></g></svg>