<svg version="1.1" xmlns="http://www.w3.org/2000/svg" xmlns:xlink="http://www.w3.org/1999/xlink" width="719.92498" height="617.28289" viewBox="0,0,719.92498,617.28289"><defs><linearGradient x1="460.95316" y1="130.39181" x2="460.95316" y2="159.45896" gradientUnits="userSpaceOnUse" id="color-1"><stop offset="0" stop-color="#fffc45"/><stop offset="1" stop-color="#ffe134"/></linearGradient><linearGradient x1="497.69172" y1="128.83853" x2="497.69172" y2="157.90568" gradientUnits="userSpaceOnUse" id="color-2"><stop offset="0" stop-color="#fffc45"/><stop offset="1" stop-color="#ffe134"/></linearGradient><linearGradient x1="534.96598" y1="129.76379" x2="534.96598" y2="158.83095" gradientUnits="userSpaceOnUse" id="color-3"><stop offset="0" stop-color="#fffc45"/><stop offset="1" stop-color="#ffe134"/></linearGradient><linearGradient x1="438.62759" y1="141.85292" x2="438.62759" y2="173.37268" gradientUnits="userSpaceOnUse" id="color-4"><stop offset="0" stop-color="#fef23f"/><stop offset="1" stop-color="#ffe537"/></linearGradient><linearGradient x1="558.45026" y1="141.02277" x2="558.45026" y2="172.73145" gradientUnits="userSpaceOnUse" id="color-5"><stop offset="0" stop-color="#fef23f"/><stop offset="1" stop-color="#ffe537"/></linearGradient><linearGradient x1="499.29066" y1="134.9158" x2="499.29066" y2="166.1578" gradientUnits="userSpaceOnUse" id="color-6"><stop offset="0" stop-color="#fff642"/><stop offset="1" stop-color="#ffe335"/></linearGradient></defs><g transform="translate(118.19257,120.69954)"><g data-paper-data="{&quot;isPaintingLayer&quot;:true}" fill-rule="nonzero" stroke-linejoin="miter" stroke-miterlimit="10" stroke-dasharray="" stroke-dashoffset="0" style="mix-blend-mode: normal"><path d="M109.68133,38.16959l-18.79117,42.88596h-159.92577l0.15179,-45.0957z" data-paper-data="{&quot;index&quot;:null}" fill="#4926f1" stroke="none" stroke-width="0" stroke-linecap="butt"/><path d="M-74.33379,36.6112h172.1669" fill="none" stroke="#3eb5fa" stroke-width="7" stroke-linecap="round"/><path d="M254.5375,242.76172l-322.98842,3.7917l-0.87665,-179.081l149.02119,-0.08114l9.83465,-7.26589l-0.40947,-129.06384l115.46613,1.22764l186.28662,128.57462h125.78316v405.80929l-254.96049,-10.25161z" fill="#4000af" stroke="none" stroke-width="0" stroke-linecap="butt"/><path d="M390.81962,69.94205v-29.26876h125.78315v29.26876z" fill="#4926f1" stroke="none" stroke-width="0" stroke-linecap="butt"/><path d="M512.83059,40.60193h-118.41772" data-paper-data="{&quot;index&quot;:null}" fill="none" stroke="#3eb5fa" stroke-width="7" stroke-linecap="round"/><path d="M481.23015,57.30252h-35.10847" fill="none" stroke="#502bff" stroke-width="25" stroke-linecap="round"/><path d="M261.51448,457.7932l247.63505,8.22639" data-paper-data="{&quot;index&quot;:null}" fill="none" stroke="#4000af" stroke-width="15" stroke-linecap="round"/><path d="M-115.96185,496.58335l-2.23072,-617.28289h717.69426l2.23072,617.28289z" fill="none" stroke="none" stroke-width="0" stroke-linecap="butt"/><g><path d="M484.90399,152.56852c0,12.24786 -27.05558,4.43534 -27.05558,4.43534c0,0 -20.84611,7.81253 -20.84611,-4.43534c0,-12.24786 10.72316,-22.17671 23.95085,-22.17671c13.22768,0 23.95085,9.92885 23.95085,22.17671z" fill="url(#color-1)" stroke="none" stroke-width="NaN" stroke-linecap="butt"/><path d="M521.64253,151.01524c0,12.24786 -27.05558,4.43534 -27.05558,4.43534c0,0 -20.84611,7.81253 -20.84611,-4.43534c0,-12.24786 10.72315,-22.17671 23.95085,-22.17671c13.22768,0 23.95085,9.92885 23.95085,22.17671z" fill="url(#color-2)" stroke="none" stroke-width="NaN" stroke-linecap="butt"/><path d="M558.91685,151.94051c0,12.24786 -27.05558,4.43533 -27.05558,4.43533c0,0 -20.84611,7.81253 -20.84611,-4.43533c0,-12.24786 10.72315,-22.17671 23.95085,-22.17671c13.22768,0 23.95085,9.92885 23.95085,22.17671z" fill="url(#color-3)" stroke="none" stroke-width="NaN" stroke-linecap="butt"/><path d="M454.15129,156.93308c0,8.32855 -9.25434,16.4396 -17.82784,16.4396c-8.5735,0 -13.21955,-8.11106 -13.21955,-16.4396c0,-8.32855 6.9502,-15.08016 15.5237,-15.08016c8.5735,0 15.5237,6.75161 15.5237,15.08016z" fill="url(#color-4)" stroke="none" stroke-width="0" stroke-linecap="butt"/><path d="M573.97401,156.10293c0,8.32855 -4.653,16.62852 -13.2265,16.62852c-8.5735,0 -17.8209,-8.29997 -17.8209,-16.62852c0,-5.66446 1.89289,-9.10116 6.55884,-12.31285c3.06243,-2.10796 5.24708,-2.76731 8.96486,-2.76731c8.5735,0 15.5237,6.75162 15.5237,15.08016z" fill="url(#color-5)" stroke="none" stroke-width="0" stroke-linecap="butt"/><path d="M433.05105,167.1313l14.25869,-30.25757l101.06867,-0.21287l13.20843,31.58268z" fill="url(#color-6)" stroke="none" stroke-width="0" stroke-linecap="butt"/><path d="M432.50536,169.55102c0,0 126.82527,0 132.84003,0" fill="#ffd426" stroke="#ffd426" stroke-width="10" stroke-linecap="round"/><path d="M499.92524,165.90874c4.49921,2.53063 -11.64155,3.31201 -19.47868,3.31201c-7.83713,0 -14.74843,5.59214 -14.74843,-0.28571c0,-0.3259 -6.74029,-3.09679 -6.44485,-3.23435c2.99165,-1.39289 5.67713,-1.54472 7.80643,-2.82298c4.68556,-2.81281 7.96956,-2.71514 12.8288,-2.71514c0,0 5.05677,-0.65893 9.67257,2.34864c3.43195,1.91012 5.19549,1.76923 10.36417,3.39753z" fill="#ffd426" stroke="none" stroke-width="0" stroke-linecap="butt"/><path d="M537.10651,165.69724c4.49921,2.53063 -11.64155,3.31201 -19.47867,3.31201c-7.83713,0 -14.74844,5.59214 -14.74844,-0.28571c0,-0.3259 -6.74029,-3.09679 -6.44485,-3.23435c2.99165,-1.39289 5.67713,-1.54472 7.80643,-2.82298c4.68556,-2.81281 7.96956,-2.71514 12.8288,-2.71514c0,0 5.05677,-0.65893 9.67257,2.34864c3.43195,1.91012 5.19549,1.76922 10.36417,3.39752z" fill="#ffd426" stroke="none" stroke-width="0" stroke-linecap="butt"/></g><path d="M496.71252,203.11891l17.71181,0.05558l-51.80475,0.35972" data-paper-data="{&quot;index&quot;:null}" fill="none" stroke="#3d00a3" stroke-width="30" stroke-linecap="round"/><path d="M474.0111,231.96142h-56.77413" data-paper-data="{&quot;index&quot;:null}" fill="none" stroke="#39009c" stroke-width="30" stroke-linecap="round"/><path d="M214.3297,-86.8346l-18.79117,28.5617h-106.40724l0.15179,-30.03337z" data-paper-data="{&quot;index&quot;:null}" fill="#4926f1" stroke="none" stroke-width="0" stroke-linecap="butt"/><path d="M379.99798,40.77927l14.74013,2.03153l4.73623,27.48328l-20.29185,-0.20204c0,0 -5.34092,-0.36134 -9.09874,-1.61795c-3.75782,-1.25661 -7.60097,-3.96641 -7.60097,-3.96641l-152.99421,-115.30806c0,0 -4.89737,-4.27903 -9.1728,-5.76702c-4.27543,-1.488 -12.48274,-1.60317 -12.48274,-1.60317l23.67655,-31.10584z" data-paper-data="{&quot;index&quot;:null}" fill="#4926f1" stroke="none" stroke-width="0" stroke-linecap="butt"/><path d="M92.65115,-88.3119l117.3592,0.01544l168.87899,128.6817l19.65376,0.25436" data-paper-data="{&quot;index&quot;:null}" fill="none" stroke="#3eb5fa" stroke-width="7" stroke-linecap="round"/><path d="M270.37381,56.17296h-78.87506" data-paper-data="{&quot;index&quot;:null}" fill="none" stroke="#3d00a3" stroke-width="30" stroke-linecap="round"/><path d="M204.32363,85.65328h53.32889" data-paper-data="{&quot;index&quot;:null}" fill="none" stroke="#3d00a3" stroke-width="29.5" stroke-linecap="round"/><path d="M167.39983,115.20976h148.54298" data-paper-data="{&quot;index&quot;:null}" fill="none" stroke="#3d00a3" stroke-width="30" stroke-linecap="round"/><path d="M157.57481,85.97449h44.32889" data-paper-data="{&quot;index&quot;:null}" fill="none" stroke="#4000af" stroke-width="29" stroke-linecap="round"/><path d="M261.49476,85.51681h44.32889" data-paper-data="{&quot;index&quot;:null}" fill="none" stroke="#4000af" stroke-width="29" stroke-linecap="round"/><path d="M404.42957,101.66867l46.90616,-0.4153" data-paper-data="{&quot;index&quot;:null}" fill="none" stroke="#3d00a3" stroke-width="30" stroke-linecap="round"/><path d="M172.78155,-12.34539l-39.47444,0.4153" data-paper-data="{&quot;index&quot;:null}" fill="none" stroke="#3d00a3" stroke-width="30" stroke-linecap="round"/><path d="M60.90407,59.86343h20.99025" data-paper-data="{&quot;index&quot;:null}" fill="none" stroke="#4926f1" stroke-width="15" stroke-linecap="round"/><path d="M32.20573,100.38072l-49.66475,0.4153" data-paper-data="{&quot;index&quot;:null}" fill="none" stroke="#3d00a3" stroke-width="30" stroke-linecap="round"/><path d="M-50.88446,130.69107h56.77413" data-paper-data="{&quot;index&quot;:null}" fill="none" stroke="#39009c" stroke-width="30" stroke-linecap="round"/><path d="M128.87123,-71.9431l35.23888,0.20029" fill="none" stroke="#502bff" stroke-width="25" stroke-linecap="round"/></g></g></svg>