<svg version="1.1" xmlns="http://www.w3.org/2000/svg" xmlns:xlink="http://www.w3.org/1999/xlink" width="615.22699" height="463.17592" viewBox="0,0,615.22699,463.17592"><defs><linearGradient x1="280.01891" y1="235.63071" x2="280.01891" y2="264.69787" gradientUnits="userSpaceOnUse" id="color-1"><stop offset="0" stop-color="#ffe9d8"/><stop offset="1" stop-color="#f7cbd0"/></linearGradient><linearGradient x1="316.75753" y1="235.55599" x2="316.75753" y2="264.62314" gradientUnits="userSpaceOnUse" id="color-2"><stop offset="0" stop-color="#ffe9d8"/><stop offset="1" stop-color="#f7cbd0"/></linearGradient><linearGradient x1="390.94665" y1="240.00525" x2="390.94665" y2="271.24726" gradientUnits="userSpaceOnUse" id="color-3"><stop offset="0" stop-color="#fde3d6"/><stop offset="1" stop-color="#f7cbd0"/></linearGradient><linearGradient x1="259.31647" y1="247.44779" x2="259.31647" y2="277.60812" gradientUnits="userSpaceOnUse" id="color-4"><stop offset="0" stop-color="#fcdcd5"/><stop offset="1" stop-color="#f7ccd0"/></linearGradient><linearGradient x1="341.3053" y1="246.74751" x2="341.3053" y2="276.90786" gradientUnits="userSpaceOnUse" id="color-5"><stop offset="0" stop-color="#fbdcd4"/><stop offset="1" stop-color="#f7cbd0"/></linearGradient><linearGradient x1="-50.65843" y1="160.8355" x2="-50.65843" y2="191.24551" gradientUnits="userSpaceOnUse" id="color-6"><stop offset="0" stop-color="#ffe9d8"/><stop offset="1" stop-color="#f7cbd0"/></linearGradient><linearGradient x1="-12.33691" y1="160.7573" x2="-12.33691" y2="191.16731" gradientUnits="userSpaceOnUse" id="color-7"><stop offset="0" stop-color="#ffe9d8"/><stop offset="1" stop-color="#f7cbd0"/></linearGradient><linearGradient x1="26.93281" y1="160.67914" x2="26.93281" y2="191.08914" gradientUnits="userSpaceOnUse" id="color-8"><stop offset="0" stop-color="#ffe9d8"/><stop offset="1" stop-color="#f7cbd0"/></linearGradient><linearGradient x1="66.20251" y1="160.60095" x2="66.20251" y2="191.01095" gradientUnits="userSpaceOnUse" id="color-9"><stop offset="0" stop-color="#ffe9d8"/><stop offset="1" stop-color="#f7cbd0"/></linearGradient><linearGradient x1="104.52405" y1="160.52275" x2="104.52405" y2="190.93277" gradientUnits="userSpaceOnUse" id="color-10"><stop offset="0" stop-color="#ffe9d8"/><stop offset="1" stop-color="#f7cbd0"/></linearGradient><linearGradient x1="144.26784" y1="160.90858" x2="144.26784" y2="191.31861" gradientUnits="userSpaceOnUse" id="color-11"><stop offset="0" stop-color="#ffe9d8"/><stop offset="1" stop-color="#f7cbd0"/></linearGradient><linearGradient x1="28.64192" y1="165.49031" x2="28.64192" y2="198.17564" gradientUnits="userSpaceOnUse" id="color-12"><stop offset="0" stop-color="#fde3d6"/><stop offset="1" stop-color="#f7cbd0"/></linearGradient><linearGradient x1="-76.75348" y1="172.22481" x2="-76.75348" y2="203.7785" gradientUnits="userSpaceOnUse" id="color-13"><stop offset="0" stop-color="#fde0d6"/><stop offset="1" stop-color="#f7cbd0"/></linearGradient><linearGradient x1="166.15492" y1="171.35629" x2="166.15492" y2="202.90998" gradientUnits="userSpaceOnUse" id="color-14"><stop offset="0" stop-color="#fbdcd4"/><stop offset="1" stop-color="#f7cbd0"/></linearGradient><linearGradient x1="144.12319" y1="162.04469" x2="144.12319" y2="191.11185" gradientUnits="userSpaceOnUse" id="color-15"><stop offset="0" stop-color="#ffe9d8"/><stop offset="1" stop-color="#f7cbd0"/></linearGradient><linearGradient x1="181.65879" y1="161.96997" x2="181.65879" y2="191.03712" gradientUnits="userSpaceOnUse" id="color-16"><stop offset="0" stop-color="#ffe9d8"/><stop offset="1" stop-color="#f7cbd0"/></linearGradient><linearGradient x1="219.19446" y1="161.89523" x2="219.19446" y2="190.96238" gradientUnits="userSpaceOnUse" id="color-17"><stop offset="0" stop-color="#ffe9d8"/><stop offset="1" stop-color="#f7cbd0"/></linearGradient><linearGradient x1="183.29244" y1="166.56869" x2="183.29244" y2="197.8107" gradientUnits="userSpaceOnUse" id="color-18"><stop offset="0" stop-color="#fde3d6"/><stop offset="1" stop-color="#f7cbd0"/></linearGradient><linearGradient x1="242.97729" y1="172.67562" x2="242.97729" y2="202.83597" gradientUnits="userSpaceOnUse" id="color-19"><stop offset="0" stop-color="#fbdcd4"/><stop offset="1" stop-color="#f7cbd0"/></linearGradient><linearGradient x1="181.90588" y1="273.23007" x2="181.90588" y2="303.64009" gradientUnits="userSpaceOnUse" id="color-20"><stop offset="0" stop-color="#ffe9d8"/><stop offset="1" stop-color="#f7cbd0"/></linearGradient><linearGradient x1="219.41372" y1="273.15187" x2="219.41372" y2="303.56189" gradientUnits="userSpaceOnUse" id="color-21"><stop offset="0" stop-color="#ffe9d8"/><stop offset="1" stop-color="#f7cbd0"/></linearGradient><linearGradient x1="257.84953" y1="273.07371" x2="257.84953" y2="303.48372" gradientUnits="userSpaceOnUse" id="color-22"><stop offset="0" stop-color="#ffe9d8"/><stop offset="1" stop-color="#f7cbd0"/></linearGradient><linearGradient x1="296.28546" y1="272.99552" x2="296.28546" y2="303.40552" gradientUnits="userSpaceOnUse" id="color-23"><stop offset="0" stop-color="#ffe9d8"/><stop offset="1" stop-color="#f7cbd0"/></linearGradient><linearGradient x1="333.79324" y1="272.91732" x2="333.79324" y2="303.32734" gradientUnits="userSpaceOnUse" id="color-24"><stop offset="0" stop-color="#ffe9d8"/><stop offset="1" stop-color="#f7cbd0"/></linearGradient><linearGradient x1="259.52235" y1="277.88488" x2="259.52235" y2="310.57022" gradientUnits="userSpaceOnUse" id="color-25"><stop offset="0" stop-color="#fde3d6"/><stop offset="1" stop-color="#f7cbd0"/></linearGradient><linearGradient x1="156.36492" y1="284.61938" x2="156.36492" y2="316.17307" gradientUnits="userSpaceOnUse" id="color-26"><stop offset="0" stop-color="#fde0d6"/><stop offset="1" stop-color="#f7cbd0"/></linearGradient><linearGradient x1="357.90583" y1="283.75086" x2="357.90583" y2="315.30456" gradientUnits="userSpaceOnUse" id="color-27"><stop offset="0" stop-color="#fbdcd4"/><stop offset="1" stop-color="#f7cbd0"/></linearGradient><linearGradient x1="44.56012" y1="198.46987" x2="44.56012" y2="228.87988" gradientUnits="userSpaceOnUse" id="color-28"><stop offset="0" stop-color="#ffe9d8"/><stop offset="1" stop-color="#f7cbd0"/></linearGradient><linearGradient x1="82.99591" y1="198.39172" x2="82.99591" y2="228.80171" gradientUnits="userSpaceOnUse" id="color-29"><stop offset="0" stop-color="#ffe9d8"/><stop offset="1" stop-color="#f7cbd0"/></linearGradient><linearGradient x1="121.43179" y1="198.31353" x2="121.43179" y2="228.72352" gradientUnits="userSpaceOnUse" id="color-30"><stop offset="0" stop-color="#ffe9d8"/><stop offset="1" stop-color="#f7cbd0"/></linearGradient><linearGradient x1="158.93958" y1="198.23534" x2="158.93958" y2="228.64535" gradientUnits="userSpaceOnUse" id="color-31"><stop offset="0" stop-color="#ffe9d8"/><stop offset="1" stop-color="#f7cbd0"/></linearGradient><linearGradient x1="84.66878" y1="203.2029" x2="84.66878" y2="235.88823" gradientUnits="userSpaceOnUse" id="color-32"><stop offset="0" stop-color="#fde3d6"/><stop offset="1" stop-color="#f7cbd0"/></linearGradient><linearGradient x1="22.01131" y1="209.93739" x2="22.01131" y2="241.49109" gradientUnits="userSpaceOnUse" id="color-33"><stop offset="0" stop-color="#fde0d6"/><stop offset="1" stop-color="#f7cbd0"/></linearGradient><linearGradient x1="179.91707" y1="209.06888" x2="179.91707" y2="240.62257" gradientUnits="userSpaceOnUse" id="color-34"><stop offset="0" stop-color="#fbdcd4"/><stop offset="1" stop-color="#f7cbd0"/></linearGradient><linearGradient x1="122.8791" y1="313.58807" x2="122.8791" y2="343.99808" gradientUnits="userSpaceOnUse" id="color-35"><stop offset="0" stop-color="#ffe9d8"/><stop offset="1" stop-color="#f7cbd0"/></linearGradient><linearGradient x1="161.31489" y1="313.50992" x2="161.31489" y2="343.91991" gradientUnits="userSpaceOnUse" id="color-36"><stop offset="0" stop-color="#ffe9d8"/><stop offset="1" stop-color="#f7cbd0"/></linearGradient><linearGradient x1="199.75077" y1="313.43173" x2="199.75077" y2="343.84172" gradientUnits="userSpaceOnUse" id="color-37"><stop offset="0" stop-color="#ffe9d8"/><stop offset="1" stop-color="#f7cbd0"/></linearGradient><linearGradient x1="237.25856" y1="313.35354" x2="237.25856" y2="343.76355" gradientUnits="userSpaceOnUse" id="color-38"><stop offset="0" stop-color="#ffe9d8"/><stop offset="1" stop-color="#f7cbd0"/></linearGradient><linearGradient x1="162.98776" y1="318.3211" x2="162.98776" y2="351.00643" gradientUnits="userSpaceOnUse" id="color-39"><stop offset="0" stop-color="#fde3d6"/><stop offset="1" stop-color="#f7cbd0"/></linearGradient><linearGradient x1="100.33029" y1="325.05559" x2="100.33029" y2="356.60929" gradientUnits="userSpaceOnUse" id="color-40"><stop offset="0" stop-color="#fde0d6"/><stop offset="1" stop-color="#f7cbd0"/></linearGradient><linearGradient x1="258.23605" y1="324.18708" x2="258.23605" y2="355.74077" gradientUnits="userSpaceOnUse" id="color-41"><stop offset="0" stop-color="#fbdcd4"/><stop offset="1" stop-color="#f7cbd0"/></linearGradient></defs><g transform="translate(185.94157,13.40705)"><g data-paper-data="{&quot;isPaintingLayer&quot;:true}" stroke-miterlimit="10" stroke-dasharray="" stroke-dashoffset="0" style="mix-blend-mode: normal"><path d="M180.85793,427.30753v-277.0173h112.34873v277.01731z" fill="#4000af" fill-rule="nonzero" stroke="none" stroke-width="0" stroke-linecap="butt" stroke-linejoin="miter"/><path d="M180.80598,167.03002v-29.26876h112.34873v29.26876z" fill="#4926f1" fill-rule="nonzero" stroke="none" stroke-width="0" stroke-linecap="butt" stroke-linejoin="miter"/><path d="M289.38257,137.6899h-104.9833" data-paper-data="{&quot;index&quot;:null}" fill="none" fill-rule="nonzero" stroke="#3eb5fa" stroke-width="7" stroke-linecap="round" stroke-linejoin="miter"/><path d="M250.18252,154.04867h-32.64513" fill="none" fill-rule="nonzero" stroke="#502bff" stroke-width="25" stroke-linecap="round" stroke-linejoin="miter"/><g fill-rule="nonzero" stroke-linejoin="miter"><g data-paper-data="{&quot;origPos&quot;:null}" stroke="none" stroke-linecap="butt"><path d="M303.9698,257.80743c0,12.24786 -27.05558,4.43534 -27.05558,4.43534c0,0 -20.84611,7.81252 -20.84611,-4.43534c0,-12.24786 10.72316,-22.1767 23.95085,-22.1767c13.22768,0 23.95085,9.92884 23.95085,22.1767z" data-paper-data="{&quot;origPos&quot;:null}" fill="url(#color-1)" stroke-width="NaN"/><path d="M340.7084,257.7327c0,12.24786 -27.05558,4.43534 -27.05558,4.43534c0,0 -20.84611,7.81253 -20.84611,-4.43534c0,-12.24786 10.72316,-22.17671 23.95085,-22.17671c13.22768,0 23.95085,9.92885 23.95085,22.17671z" data-paper-data="{&quot;origPos&quot;:null}" fill="url(#color-2)" stroke-width="NaN"/><path d="M265.34579,275.41321l6.24892,-34.91026l59.30927,1.24181l5.72966,29.87477z" data-paper-data="{&quot;origPos&quot;:null}" fill="url(#color-3)" stroke-width="0"/><path d="M274.84014,262.52795c0,8.32855 -8.43367,15.94632 -17.00717,15.94632c-8.5735,0 -14.04022,-7.61778 -14.04022,-15.94632c0,-8.32855 6.9502,-15.08016 15.5237,-15.08016c8.5735,0 15.5237,6.75161 15.5237,15.08016z" data-paper-data="{&quot;origPos&quot;:null}" fill="url(#color-4)" stroke-width="0"/><path d="M356.82894,261.8277c0,8.32855 -4.7083,16.63162 -13.2818,16.63162c-8.5735,0 -17.7656,-8.30307 -17.7656,-16.63162c0,-5.66446 1.89289,-9.10116 6.55884,-12.31285c3.06243,-2.10796 5.24708,-2.76731 8.96486,-2.76731c8.5735,0 15.5237,6.75162 15.5237,15.08016z" data-paper-data="{&quot;origPos&quot;:null}" fill="url(#color-5)" stroke-width="0"/></g><path d="M256.35554,276.05368h89.07968" data-paper-data="{&quot;origPos&quot;:null}" fill="#ffc3d5" stroke="#ffc3d5" stroke-width="9" stroke-linecap="round"/><path d="M317.51267,271.7525c4.49921,2.53063 -11.64155,3.31201 -19.47867,3.31201c-7.83713,0 -14.74843,5.59214 -14.74843,-0.28571c0,-0.3259 -6.74031,-3.09679 -6.44486,-3.23435c2.99165,-1.39289 5.67713,-1.54472 7.80643,-2.82298c4.68556,-2.81281 7.96956,-2.71514 12.8288,-2.71514c0,0 5.05677,-0.65893 9.67257,2.34864c3.43195,1.91012 5.19549,1.76923 10.36417,3.39753z" data-paper-data="{&quot;origPos&quot;:null}" fill="#ffc3d5" stroke="none" stroke-width="0" stroke-linecap="butt"/></g><path d="M-78.36698,323.0459v-96.66159h80.34873v96.66159z" fill="#260068" fill-rule="nonzero" stroke="none" stroke-width="0" stroke-linecap="butt" stroke-linejoin="miter"/><path d="M-78.36698,425.86738v-105.23004h80.34873v105.23004z" fill="#4000af" fill-rule="nonzero" stroke="none" stroke-width="0" stroke-linecap="butt" stroke-linejoin="miter"/><path d="M-78.36871,244.57854v-79.38436h80.34873v79.38436z" fill="#4000af" fill-rule="nonzero" stroke="none" stroke-width="0" stroke-linecap="butt" stroke-linejoin="miter"/><path d="M-78.42066,166.89421v-29.26876h80.34873v29.26876z" fill="#4926f1" fill-rule="nonzero" stroke="none" stroke-width="0" stroke-linecap="butt" stroke-linejoin="miter"/><path d="M-74.82737,137.55408h73.45275" data-paper-data="{&quot;index&quot;:null}" fill="none" fill-rule="nonzero" stroke="#3eb5fa" stroke-width="7" stroke-linecap="round" stroke-linejoin="miter"/><path d="M-16.15405,153.91286h-32.64513" fill="none" fill-rule="nonzero" stroke="#502bff" stroke-width="25" stroke-linecap="round" stroke-linejoin="miter"/><path d="M-70.72203,426.07108h65.09379" data-paper-data="{&quot;index&quot;:null}" fill="none" fill-rule="nonzero" stroke="#4000af" stroke-width="15" stroke-linecap="round" stroke-linejoin="miter"/><path d="M-65.73836,214.52983h-11.69672h38.18154" data-paper-data="{&quot;index&quot;:null}" fill="none" fill-rule="nonzero" stroke="#3d00a3" stroke-width="26" stroke-linecap="round" stroke-linejoin="miter"/><path d="M50.42586,427.10263v-363.28435h80.34873v363.28435z" fill="#4000af" fill-rule="nonzero" stroke="none" stroke-width="0" stroke-linecap="butt" stroke-linejoin="miter"/><path d="M-45.33874,333.96869h29.26544" data-paper-data="{&quot;index&quot;:null}" fill="none" fill-rule="nonzero" stroke="#3d00a3" stroke-width="26.5" stroke-linecap="round" stroke-linejoin="miter"/><path d="M-185.94157,449.76887v-463.17592h615.22699v463.17592z" fill="none" fill-rule="nonzero" stroke="none" stroke-width="NaN" stroke-linecap="butt" stroke-linejoin="miter"/><path d="M278.228,183.83407h-31.25713" data-paper-data="{&quot;index&quot;:null}" fill="none" fill-rule="nonzero" stroke="#3d00a3" stroke-width="27.5" stroke-linecap="round" stroke-linejoin="miter"/><g fill-rule="nonzero" stroke-linejoin="miter"><g><g data-paper-data="{&quot;origPos&quot;:null}" stroke="none" stroke-linecap="butt"><path d="M-25.0575,184.03673c0,12.81369 -28.91958,4.64025 -28.91958,4.64025c0,0 -22.2823,8.17345 -22.2823,-4.64025c0,-12.81369 11.46193,-23.20124 25.60094,-23.20124c14.13901,0 25.60094,10.38755 25.60094,23.20124z" data-paper-data="{&quot;origPos&quot;:null}" fill="url(#color-6)" stroke-width="NaN"/><path d="M13.26404,183.95855c0,12.81369 -28.91958,4.64025 -28.91958,4.64025c0,0 -22.2823,8.17345 -22.2823,-4.64025c0,-12.81369 11.46193,-23.20124 25.60094,-23.20124c14.13901,0 25.60094,10.38755 25.60094,23.20124z" data-paper-data="{&quot;origPos&quot;:null}" fill="url(#color-7)" stroke-width="NaN"/><path d="M52.53374,183.88037c0,12.81369 -28.91958,4.64025 -28.91958,4.64025c0,0 -22.2823,8.17345 -22.2823,-4.64025c0,-12.81369 11.46192,-23.20124 25.60094,-23.20124c14.13901,0 25.60094,10.38755 25.60094,23.20124z" data-paper-data="{&quot;origPos&quot;:null}" fill="url(#color-8)" stroke-width="NaN"/><path d="M91.80347,183.80217c0,12.81369 -28.91958,4.64024 -28.91958,4.64024c0,0 -22.2823,8.17345 -22.2823,-4.64024c0,-12.81369 11.46192,-23.20124 25.60094,-23.20124c14.13901,0 25.60094,10.38755 25.60094,23.20124z" data-paper-data="{&quot;origPos&quot;:null}" fill="url(#color-9)" stroke-width="NaN"/><path d="M130.12499,183.72401c0,12.81369 -28.91958,4.64024 -28.91958,4.64024c0,0 -22.2823,8.17345 -22.2823,-4.64024c0,-12.81369 11.46193,-23.20124 25.60094,-23.20124c14.13901,0 25.60094,10.38755 25.60094,23.20124z" data-paper-data="{&quot;origPos&quot;:null}" fill="url(#color-10)" stroke-width="NaN"/><path d="M169.86881,184.10985c0,12.81369 -28.91958,4.64025 -28.91958,4.64025c0,0 -22.2823,8.17345 -22.2823,-4.64025c0,-12.81369 11.46192,-23.20124 25.60094,-23.20124c14.13901,0 25.60094,10.38755 25.60094,23.20124z" data-paper-data="{&quot;origPos&quot;:null}" fill="url(#color-11)" stroke-width="NaN"/><path d="M-74.43641,198.88082l7.92527,-31.45946l222.72767,-1.41036v32.16464z" data-paper-data="{&quot;origPos&quot;:null}" fill="url(#color-12)" stroke-width="0"/><path d="M-60.16023,188.00165c0,8.71332 -10.24925,16.03718 -19.41343,16.03718c-9.16417,0 -13.77297,-7.32387 -13.77297,-16.03718c0,-8.71332 7.42903,-15.77684 16.59321,-15.77684c9.16417,0 16.59321,7.06352 16.59321,15.77684z" data-paper-data="{&quot;origPos&quot;:null}" fill="url(#color-13)" stroke-width="0"/><path d="M182.74811,187.13314c0,8.71332 -5.56712,17.83887 -14.7313,17.83887c-9.16417,0 -18.45512,-9.12556 -18.45512,-17.83887c0,-8.71332 7.42902,-15.77684 16.59321,-15.77684c9.16417,0 16.59321,7.06353 16.59321,15.77684z" data-paper-data="{&quot;origPos&quot;:null}" fill="url(#color-14)" stroke-width="0"/></g><path d="M-82.00515,201.59847c0,0 97.53104,0 161.66305,0c34.97463,0 87.06389,0 87.06389,0" data-paper-data="{&quot;origPos&quot;:null}" fill="#ffc3d5" stroke="#ffc3d5" stroke-width="9" stroke-linecap="round"/><path d="M-9.06649,197.75658c4.80918,2.64754 -12.4436,3.46502 -20.82066,3.46502c-8.37707,0 -15.76452,5.85048 -15.76452,-0.29891c0,-0.34096 -7.20468,-3.23986 -6.88888,-3.38377c3.19776,-1.45724 6.06825,-1.61608 8.34426,-2.95339c5.00838,-2.94276 8.51862,-2.84057 13.71263,-2.84057c0,0 5.40515,-0.68937 10.33896,2.45714c3.66839,1.99836 5.55344,1.85096 11.07821,3.55449z" data-paper-data="{&quot;origPos&quot;:null}" fill="#ffc3d5" stroke="none" stroke-width="0" stroke-linecap="butt"/><path d="M29.32026,197.4135c4.80918,2.64754 -12.4436,3.46502 -20.82066,3.46502c-8.37707,0 -15.76452,5.85048 -15.76452,-0.29891c0,-0.34096 -7.20466,-3.23986 -6.88887,-3.38377c3.19776,-1.45724 6.06825,-1.61608 8.34425,-2.95339c5.00838,-2.94276 8.51862,-2.84057 13.71263,-2.84057c0,0 5.40515,-0.68937 10.33896,2.45714c3.66839,1.99836 5.55344,1.85096 11.07821,3.55449z" data-paper-data="{&quot;origPos&quot;:null}" fill="#ffc3d5" stroke="none" stroke-width="0" stroke-linecap="butt"/><path d="M69.06305,197.19223c4.80918,2.64754 -12.4436,3.46502 -20.82065,3.46502c-8.37707,0 -15.76453,5.85048 -15.76453,-0.29891c0,-0.34096 -7.20466,-3.23986 -6.88887,-3.38377c3.19776,-1.45724 6.06825,-1.61608 8.34425,-2.95339c5.00838,-2.94276 8.51862,-2.84057 13.71263,-2.84057c0,0 5.40515,-0.68937 10.33896,2.45714c3.66839,1.99836 5.55344,1.85095 11.07821,3.55448z" data-paper-data="{&quot;origPos&quot;:null}" fill="#ffc3d5" stroke="none" stroke-width="0" stroke-linecap="butt"/><path d="M105.412,197.4135c4.80918,2.64754 -12.4436,3.46502 -20.82065,3.46502c-8.37707,0 -15.76452,5.85048 -15.76452,-0.29891c0,-0.34096 -7.20468,-3.23986 -6.88888,-3.38377c3.19776,-1.45724 6.06825,-1.61608 8.34425,-2.95339c5.00838,-2.94276 8.51862,-2.84057 13.71263,-2.84057c0,0 5.40515,-0.68937 10.33896,2.45714c3.66839,1.99836 5.55344,1.85096 11.07821,3.55449z" data-paper-data="{&quot;origPos&quot;:null}" fill="#ffc3d5" stroke="none" stroke-width="0" stroke-linecap="butt"/><path d="M144.63394,197.19223c4.80918,2.64754 -12.4436,3.46502 -20.82066,3.46502c-8.37707,0 -15.76452,5.85048 -15.76452,-0.29891c0,-0.34096 -7.20466,-3.23986 -6.88887,-3.38377c3.19776,-1.45724 6.06825,-1.61608 8.34425,-2.95339c5.00838,-2.94276 8.51862,-2.84057 13.71263,-2.84057c0,0 5.40515,-0.68937 10.33896,2.45714c3.66839,1.99836 5.55344,1.85095 11.07821,3.55448z" data-paper-data="{&quot;origPos&quot;:null}" fill="#ffc3d5" stroke="none" stroke-width="0" stroke-linecap="butt"/></g><g data-paper-data="{&quot;origPos&quot;:null}"><g data-paper-data="{&quot;origPos&quot;:null}" stroke="none" stroke-linecap="butt"><path d="M168.59363,184.22141c0,12.24786 -27.64254,4.43534 -27.64254,4.43534c0,0 -21.29836,7.81253 -21.29836,-4.43534c0,-12.24786 10.95579,-22.17671 24.47045,-22.17671c13.51465,0 24.47045,9.92885 24.47045,22.17671z" data-paper-data="{&quot;origPos&quot;:null}" fill="url(#color-15)" stroke-width="NaN"/><path d="M206.12926,184.14668c0,12.24786 -27.64254,4.43534 -27.64254,4.43534c0,0 -21.29836,7.81253 -21.29836,-4.43534c0,-12.24786 10.95578,-22.17671 24.47045,-22.17671c13.51465,0 24.47045,9.92885 24.47045,22.17671z" data-paper-data="{&quot;origPos&quot;:null}" fill="url(#color-16)" stroke-width="NaN"/><path d="M243.6649,184.07194c0,12.24786 -27.64254,4.43533 -27.64254,4.43533c0,0 -21.29836,7.81253 -21.29836,-4.43533c0,-12.24786 10.95578,-22.17671 24.47045,-22.17671c13.51465,0 24.47045,9.92885 24.47045,22.17671z" data-paper-data="{&quot;origPos&quot;:null}" fill="url(#color-17)" stroke-width="NaN"/><path d="M100.39037,195.78418l-6.71457,-27.25757l136.93168,-1.46022l20.66568,30.74431z" data-paper-data="{&quot;origPos&quot;:null}" fill="url(#color-18)" stroke-width="0"/><path d="M258.83775,187.75581c0,8.32855 -4.75395,16.62852 -13.51344,16.62852c-8.7595,0 -18.20752,-8.29997 -18.20752,-16.62852c0,-5.66446 1.93396,-9.10116 6.70113,-12.31285c3.12887,-2.10796 5.36091,-2.76731 9.15935,-2.76731c8.7595,0 15.86048,6.75162 15.86048,15.08016z" data-paper-data="{&quot;origPos&quot;:null}" fill="url(#color-19)" stroke-width="0"/></g><path d="M247.04053,201.20392c0,0 -1.49835,0 -3.54677,0c-6.14524,0 -24.87754,0 -40.80045,0c-49.98036,0 -122.45805,0 -122.45805,0" data-paper-data="{&quot;origPos&quot;:null}" fill="#ffc3d5" stroke="#ffc3d5" stroke-width="10" stroke-linecap="round"/><path d="M147.24917,197.41014c4.59682,2.53063 -11.89411,3.31201 -19.90126,3.31201c-8.00715,0 -15.06839,5.59214 -15.06839,-0.28571c0,-0.3259 -6.88654,-3.09679 -6.58468,-3.23435c3.05655,-1.39289 5.80029,-1.54472 7.9758,-2.82298c4.78721,-2.81281 8.14246,-2.71514 13.10712,-2.71514c0,0 5.16647,-0.65893 9.88241,2.34864c3.5064,1.91012 5.3082,1.76923 10.58902,3.39753z" data-paper-data="{&quot;origPos&quot;:null}" fill="#ffc3d5" stroke="none" stroke-width="0" stroke-linecap="butt"/><path d="M183.94081,197.08221c4.59682,2.53063 -11.89411,3.31201 -19.90126,3.31201c-8.00715,0 -15.06839,5.59214 -15.06839,-0.28571c0,-0.3259 -6.88652,-3.09679 -6.58467,-3.23435c3.05655,-1.39289 5.80029,-1.54472 7.97579,-2.82298c4.78721,-2.81281 8.14246,-2.71514 13.10712,-2.71514c0,0 5.16647,-0.65893 9.88241,2.34864c3.5064,1.91012 5.3082,1.76923 10.58902,3.39753z" data-paper-data="{&quot;origPos&quot;:null}" fill="#ffc3d5" stroke="none" stroke-width="0" stroke-linecap="butt"/><path d="M221.9287,196.87072c4.59682,2.53063 -11.89411,3.31201 -19.90125,3.31201c-8.00715,0 -15.0684,5.59214 -15.0684,-0.28571c0,-0.3259 -6.88652,-3.09679 -6.58467,-3.23435c3.05655,-1.39289 5.80029,-1.54472 7.97579,-2.82298c4.78721,-2.81281 8.14246,-2.71514 13.10712,-2.71514c0,0 5.16647,-0.65893 9.88241,2.34864c3.5064,1.91012 5.3082,1.76922 10.58902,3.39752z" data-paper-data="{&quot;origPos&quot;:null}" fill="#ffc3d5" stroke="none" stroke-width="0" stroke-linecap="butt"/></g></g><path d="M285.64498,426.13749h-96.95644" data-paper-data="{&quot;index&quot;:null}" fill="none" fill-rule="nonzero" stroke="#4000af" stroke-width="15" stroke-linecap="round" stroke-linejoin="miter"/><path d="M-35.80018,359.84064h-41.88551h11.16329" data-paper-data="{&quot;index&quot;:null}" fill="none" fill-rule="nonzero" stroke="#39009b" stroke-width="26" stroke-linecap="round" stroke-linejoin="miter"/><path d="M246.99051,355.6665h45.63427h-9.66913" data-paper-data="{&quot;index&quot;:null}" fill="none" fill-rule="nonzero" stroke="#3d00a3" stroke-width="27" stroke-linecap="round" stroke-linejoin="miter"/><path d="M58.06804,426.07108h65.09379" data-paper-data="{&quot;index&quot;:null}" fill="none" fill-rule="nonzero" stroke="#4000af" stroke-width="15" stroke-linecap="round" stroke-linejoin="miter"/><path d="M69.73943,299.43127h26.48482" data-paper-data="{&quot;index&quot;:null}" fill="none" fill-rule="nonzero" stroke="#3d00a3" stroke-width="27.5" stroke-linecap="round" stroke-linejoin="miter"/><path d="M257.64351,382.25385h-41.33209" data-paper-data="{&quot;index&quot;:null}" fill="none" fill-rule="nonzero" stroke="#39009b" stroke-width="26" stroke-linecap="round" stroke-linejoin="miter"/><path d="M97.53701,326.8299h31.98024h-5.49542" data-paper-data="{&quot;index&quot;:null}" fill="none" fill-rule="nonzero" stroke="#3d00a3" stroke-width="27.5" stroke-linecap="round" stroke-linejoin="miter"/><g fill-rule="nonzero" stroke-linejoin="miter"><g><g data-paper-data="{&quot;origPos&quot;:null}" stroke="none" stroke-linecap="butt"><path d="M206.96323,296.4313c0,12.81369 -28.3055,4.64025 -28.3055,4.64025c0,0 -21.80916,8.17345 -21.80916,-4.64025c0,-12.81369 11.21855,-23.20124 25.05733,-23.20124c13.83878,0 25.05733,10.38755 25.05733,23.20124z" data-paper-data="{&quot;origPos&quot;:null}" fill="url(#color-20)" stroke-width="NaN"/><path d="M244.47101,296.35312c0,12.81369 -28.3055,4.64025 -28.3055,4.64025c0,0 -21.80916,8.17345 -21.80916,-4.64025c0,-12.81369 11.21855,-23.20124 25.05733,-23.20124c13.83878,0 25.05733,10.38755 25.05733,23.20124z" data-paper-data="{&quot;origPos&quot;:null}" fill="url(#color-21)" stroke-width="NaN"/><path d="M282.9069,296.27495c0,12.81369 -28.3055,4.64025 -28.3055,4.64025c0,0 -21.80916,8.17345 -21.80916,-4.64025c0,-12.81369 11.21854,-23.20124 25.05733,-23.20124c13.83878,0 25.05733,10.38755 25.05733,23.20124z" data-paper-data="{&quot;origPos&quot;:null}" fill="url(#color-22)" stroke-width="NaN"/><path d="M321.34278,296.19674c0,12.81369 -28.3055,4.64024 -28.3055,4.64024c0,0 -21.80916,8.17345 -21.80916,-4.64024c0,-12.81369 11.21854,-23.20124 25.05733,-23.20124c13.83878,0 25.05733,10.38755 25.05733,23.20124z" data-paper-data="{&quot;origPos&quot;:null}" fill="url(#color-23)" stroke-width="NaN"/><path d="M358.85056,296.11859c0,12.81369 -28.3055,4.64024 -28.3055,4.64024c0,0 -21.80916,8.17345 -21.80916,-4.64024c0,-12.81369 11.21855,-23.20124 25.05733,-23.20124c13.83878,0 25.05733,10.38755 25.05733,23.20124z" data-paper-data="{&quot;origPos&quot;:null}" fill="url(#color-24)" stroke-width="NaN"/><path d="M158.63281,311.2754l7.75699,-31.45946l183.10537,0.56471l8.55863,30.84793z" data-paper-data="{&quot;origPos&quot;:null}" fill="url(#color-25)" stroke-width="0"/><path d="M172.60582,300.39622c0,8.71332 -10.03162,16.03718 -19.00121,16.03718c-8.96958,0 -13.48052,-7.32387 -13.48052,-16.03718c0,-8.71332 7.27128,-15.77684 16.24087,-15.77684c8.96958,0 16.24087,7.06352 16.24087,15.77684z" data-paper-data="{&quot;origPos&quot;:null}" fill="url(#color-26)" stroke-width="0"/><path d="M374.14667,299.52772c0,8.71332 -5.44891,17.83887 -14.4185,17.83887c-8.96958,0 -18.06324,-9.12556 -18.06324,-17.83887c0,-8.71332 7.27127,-15.77684 16.24087,-15.77684c8.96958,0 16.24087,7.06353 16.24087,15.77684z" data-paper-data="{&quot;origPos&quot;:null}" fill="url(#color-27)" stroke-width="0"/></g><path d="M151.22479,315.3817c0,0 95.46007,0 158.2303,0c21.30801,0 50.44,0 51.59911,0" data-paper-data="{&quot;origPos&quot;:null}" fill="#ffc3d5" stroke="#ffc3d5" stroke-width="9" stroke-linecap="round"/><path d="M222.61466,311.5398c4.70706,2.64754 -12.17937,3.46502 -20.37856,3.46502c-8.19919,0 -15.42978,5.85048 -15.42978,-0.29891c0,-0.34096 -7.0517,-3.23986 -6.7426,-3.38377c3.12986,-1.45724 5.9394,-1.61608 8.16708,-2.95339c4.90203,-2.94276 8.33774,-2.84057 13.42146,-2.84057c0,0 5.29038,-0.68937 10.11942,2.45714c3.5905,1.99836 5.43552,1.85096 10.84298,3.55449z" data-paper-data="{&quot;origPos&quot;:null}" fill="#ffc3d5" stroke="none" stroke-width="0" stroke-linecap="butt"/><path d="M260.18629,311.19672c4.70706,2.64754 -12.17937,3.46502 -20.37856,3.46502c-8.19919,0 -15.42978,5.85048 -15.42978,-0.29891c0,-0.34096 -7.05168,-3.23986 -6.74259,-3.38377c3.12986,-1.45724 5.9394,-1.61608 8.16707,-2.95339c4.90203,-2.94276 8.33774,-2.84057 13.42146,-2.84057c0,0 5.29038,-0.68937 10.11942,2.45714c3.5905,1.99836 5.43552,1.85096 10.84298,3.55449z" data-paper-data="{&quot;origPos&quot;:null}" fill="#ffc3d5" stroke="none" stroke-width="0" stroke-linecap="butt"/><path d="M299.08526,310.97545c4.70706,2.64754 -12.17937,3.46502 -20.37855,3.46502c-8.19919,0 -15.42979,5.85048 -15.42979,-0.29891c0,-0.34096 -7.05168,-3.23986 -6.74259,-3.38377c3.12986,-1.45724 5.9394,-1.61608 8.16707,-2.95339c4.90203,-2.94276 8.33774,-2.84057 13.42146,-2.84057c0,0 5.29038,-0.68937 10.11942,2.45714c3.5905,1.99836 5.43552,1.85095 10.84298,3.55448z" data-paper-data="{&quot;origPos&quot;:null}" fill="#ffc3d5" stroke="none" stroke-width="0" stroke-linecap="butt"/><path d="M334.66236,311.19672c4.70706,2.64754 -12.17937,3.46502 -20.37855,3.46502c-8.19919,0 -15.42978,5.85048 -15.42978,-0.29891c0,-0.34096 -7.0517,-3.23986 -6.7426,-3.38377c3.12986,-1.45724 5.9394,-1.61608 8.16707,-2.95339c4.90203,-2.94276 8.33774,-2.84057 13.42146,-2.84057c0,0 5.29038,-0.68937 10.11942,2.45714c3.5905,1.99836 5.43552,1.85096 10.84298,3.55449z" data-paper-data="{&quot;origPos&quot;:null}" fill="#ffc3d5" stroke="none" stroke-width="0" stroke-linecap="butt"/></g><g data-paper-data="{&quot;origPos&quot;:null}"><g data-paper-data="{&quot;origPos&quot;:null}" fill="none" stroke="none" stroke-width="1" stroke-linecap="butt" font-family="sans-serif" font-weight="normal" font-size="12" text-anchor="start"/><path d="M310.02023,314.98714c0,0 25.89613,0 42.47096,0" data-paper-data="{&quot;origPos&quot;:null}" fill="#ffc3d5" stroke="#ffc3d5" stroke-width="10" stroke-linecap="round"/></g></g><g fill-rule="nonzero" stroke-linejoin="miter"><g data-paper-data="{&quot;origPos&quot;:null}" stroke="none" stroke-linecap="butt"><path d="M69.61742,221.67113c0,12.81369 -28.3055,4.64025 -28.3055,4.64025c0,0 -21.80916,8.17345 -21.80916,-4.64025c0,-12.81369 11.21855,-23.20124 25.05733,-23.20124c13.83878,0 25.05733,10.38755 25.05733,23.20124z" data-paper-data="{&quot;origPos&quot;:null}" fill="url(#color-28)" stroke-width="NaN"/><path d="M108.0533,221.59296c0,12.81369 -28.3055,4.64025 -28.3055,4.64025c0,0 -21.80916,8.17345 -21.80916,-4.64025c0,-12.81369 11.21854,-23.20124 25.05733,-23.20124c13.83878,0 25.05733,10.38755 25.05733,23.20124z" data-paper-data="{&quot;origPos&quot;:null}" fill="url(#color-29)" stroke-width="NaN"/><path d="M146.48912,221.51475c0,12.81369 -28.3055,4.64024 -28.3055,4.64024c0,0 -21.80916,8.17345 -21.80916,-4.64024c0,-11.90973 9.40153,-19.84432 17.74486,-22.19773c2.78111,-0.78447 4.42284,-1.00351 7.31247,-1.00351c13.83878,0 25.05733,10.38755 25.05733,23.20124z" data-paper-data="{&quot;origPos&quot;:null}" fill="url(#color-30)" stroke-width="NaN"/><path d="M183.99695,221.4366c0,12.81369 -28.3055,4.64024 -28.3055,4.64024c0,0 -21.80916,8.17345 -21.80916,-4.64024c0,-12.81369 11.21855,-23.20124 25.05733,-23.20124c13.83878,0 25.05733,10.38755 25.05733,23.20124z" data-paper-data="{&quot;origPos&quot;:null}" fill="url(#color-31)" stroke-width="NaN"/><path d="M10.27922,238.09341l23.09326,-33.675c0,0 117.76788,0.03055 137.27571,-0.09566c6.50261,-0.04207 6.88631,33.56548 6.88631,33.56548z" data-paper-data="{&quot;origPos&quot;:null}" fill="url(#color-32)" stroke-width="0"/><path d="M38.25224,225.71423c0,8.71332 -10.03162,16.03718 -19.00121,16.03718c-8.96958,0 -13.48052,-7.32387 -13.48052,-16.03718c0,-8.71332 7.27128,-15.77684 16.24087,-15.77684c8.96958,0 16.24087,7.06352 16.24087,15.77684z" data-paper-data="{&quot;origPos&quot;:null}" fill="url(#color-33)" stroke-width="0"/><path d="M196.15793,224.84573c0,8.71332 -5.44891,17.83887 -14.4185,17.83887c-8.96958,0 -18.06324,-9.12556 -18.06324,-17.83887c0,-8.71332 7.27127,-15.77684 16.24087,-15.77684c8.96958,0 16.24087,7.06353 16.24087,15.77684z" data-paper-data="{&quot;origPos&quot;:null}" fill="url(#color-34)" stroke-width="0"/></g><path d="M16.37118,240.30557c0,0 84.5268,-0.5 164.2303,-0.5" data-paper-data="{&quot;origPos&quot;:null}" fill="#ffc3d5" stroke="#ffc3d5" stroke-width="9" stroke-linecap="round"/><path d="M85.33272,235.6206c4.70706,2.64754 -12.17937,3.46502 -20.37856,3.46502c-8.19919,0 -15.42978,5.85048 -15.42978,-0.29891c0,-0.34096 -7.05168,-3.23986 -6.74259,-3.38377c3.12986,-1.45724 5.9394,-1.61608 8.16707,-2.95339c4.90203,-2.94276 8.33774,-2.84057 13.42146,-2.84057c0,0 5.29038,-0.68937 10.11942,2.45714c3.5905,1.99836 5.43552,1.85096 10.84298,3.55449z" data-paper-data="{&quot;origPos&quot;:null}" fill="#ffc3d5" stroke="none" stroke-width="0" stroke-linecap="butt"/><path d="M124.2316,235.39933c4.70706,2.64754 -12.17937,3.46502 -20.37855,3.46502c-8.19919,0 -15.42979,5.85048 -15.42979,-0.29891c0,-0.34096 -7.05168,-3.23986 -6.74259,-3.38377c3.12986,-1.45724 5.9394,-1.61608 8.16707,-2.95339c4.90203,-2.94276 8.33774,-2.84057 13.42146,-2.84057c0,0 5.29038,-0.68937 10.11942,2.45714c3.5905,1.99836 5.43552,1.85095 10.84298,3.55448z" data-paper-data="{&quot;origPos&quot;:null}" fill="#ffc3d5" stroke="none" stroke-width="0" stroke-linecap="butt"/><path d="M159.80864,235.6206c4.70706,2.64754 -12.17937,3.46502 -20.37855,3.46502c-8.19919,0 -15.42978,5.85048 -15.42978,-0.29891c0,-0.34096 -7.0517,-3.23986 -6.7426,-3.38377c3.12986,-1.45724 5.9394,-1.61608 8.16707,-2.95339c4.90203,-2.94276 8.33774,-2.84057 13.42146,-2.84057c0,0 5.29038,-0.68937 10.11942,2.45714c3.5905,1.99836 5.43552,1.85096 10.84298,3.55449z" data-paper-data="{&quot;origPos&quot;:null}" fill="#ffc3d5" stroke="none" stroke-width="0" stroke-linecap="butt"/></g><g fill-rule="nonzero" stroke-linejoin="miter"><g data-paper-data="{&quot;origPos&quot;:null}" stroke="none" stroke-linecap="butt"><path d="M147.9364,336.78933c0,12.81369 -28.3055,4.64025 -28.3055,4.64025c0,0 -21.80916,8.17345 -21.80916,-4.64025c0,-12.81369 11.21855,-23.20124 25.05733,-23.20124c13.83878,0 25.05733,10.38755 25.05733,23.20124z" data-paper-data="{&quot;origPos&quot;:null}" fill="url(#color-35)" stroke-width="NaN"/><path d="M186.37228,336.71116c0,12.81369 -28.3055,4.64025 -28.3055,4.64025c0,0 -21.80916,8.17345 -21.80916,-4.64025c0,-12.81369 11.21854,-23.20124 25.05733,-23.20124c13.83878,0 25.05733,10.38755 25.05733,23.20124z" data-paper-data="{&quot;origPos&quot;:null}" fill="url(#color-36)" stroke-width="NaN"/><path d="M224.8081,336.63295c0,12.81369 -28.3055,4.64024 -28.3055,4.64024c0,0 -21.80916,8.17345 -21.80916,-4.64024c0,-11.90973 9.40153,-19.84432 17.74486,-22.19773c2.78111,-0.78447 4.42284,-1.00351 7.31247,-1.00351c13.83878,0 25.05733,10.38755 25.05733,23.20124z" data-paper-data="{&quot;origPos&quot;:null}" fill="url(#color-37)" stroke-width="NaN"/><path d="M262.31593,336.5548c0,12.81369 -28.3055,4.64024 -28.3055,4.64024c0,0 -21.80916,8.17345 -21.80916,-4.64024c0,-12.81369 11.21855,-23.20124 25.05733,-23.20124c13.83878,0 25.05733,10.38755 25.05733,23.20124z" data-paper-data="{&quot;origPos&quot;:null}" fill="url(#color-38)" stroke-width="NaN"/><path d="M88.5982,353.21161l23.09326,-33.675c0,0 117.76788,0.03055 137.27571,-0.09566c6.50261,-0.04207 6.88631,33.56548 6.88631,33.56548z" data-paper-data="{&quot;origPos&quot;:null}" fill="url(#color-39)" stroke-width="0"/><path d="M116.57122,340.83243c0,8.71332 -10.03162,16.03718 -19.00121,16.03718c-8.96958,0 -13.48052,-7.32387 -13.48052,-16.03718c0,-8.71332 7.27128,-15.77684 16.24087,-15.77684c8.96958,0 16.24087,7.06352 16.24087,15.77684z" data-paper-data="{&quot;origPos&quot;:null}" fill="url(#color-40)" stroke-width="0"/><path d="M274.47691,339.96393c0,8.71332 -5.44891,17.83887 -14.4185,17.83887c-8.96958,0 -18.06324,-9.12556 -18.06324,-17.83887c0,-8.71332 7.27127,-15.77684 16.24087,-15.77684c8.96958,0 16.24087,7.06353 16.24087,15.77684z" data-paper-data="{&quot;origPos&quot;:null}" fill="url(#color-41)" stroke-width="0"/></g><path d="M94.69016,355.42377c0,0 84.5268,-0.5 164.2303,-0.5" data-paper-data="{&quot;origPos&quot;:null}" fill="#ffc3d5" stroke="#ffc3d5" stroke-width="9" stroke-linecap="round"/><path d="M163.6517,350.7388c4.70706,2.64754 -12.17937,3.46502 -20.37856,3.46502c-8.19919,0 -15.42978,5.85048 -15.42978,-0.29891c0,-0.34096 -7.05168,-3.23986 -6.74259,-3.38377c3.12986,-1.45724 5.9394,-1.61608 8.16707,-2.95339c4.90203,-2.94276 8.33774,-2.84057 13.42146,-2.84057c0,0 5.29038,-0.68937 10.11942,2.45714c3.5905,1.99836 5.43552,1.85096 10.84298,3.55449z" data-paper-data="{&quot;origPos&quot;:null}" fill="#ffc3d5" stroke="none" stroke-width="0" stroke-linecap="butt"/><path d="M202.55058,350.51753c4.70706,2.64754 -12.17937,3.46502 -20.37855,3.46502c-8.19919,0 -15.42979,5.85048 -15.42979,-0.29891c0,-0.34096 -7.05168,-3.23986 -6.74259,-3.38377c3.12986,-1.45724 5.9394,-1.61608 8.16707,-2.95339c4.90203,-2.94276 8.33774,-2.84057 13.42146,-2.84057c0,0 5.29038,-0.68937 10.11942,2.45714c3.5905,1.99836 5.43552,1.85095 10.84298,3.55448z" data-paper-data="{&quot;origPos&quot;:null}" fill="#ffc3d5" stroke="none" stroke-width="0" stroke-linecap="butt"/><path d="M238.12762,350.7388c4.70706,2.64754 -12.17937,3.46502 -20.37855,3.46502c-8.19919,0 -15.42978,5.85048 -15.42978,-0.29891c0,-0.34096 -7.0517,-3.23986 -6.7426,-3.38377c3.12986,-1.45724 5.9394,-1.61608 8.16707,-2.95339c4.90203,-2.94276 8.33774,-2.84057 13.42146,-2.84057c0,0 5.29038,-0.68937 10.11942,2.45714c3.5905,1.99836 5.43552,1.85096 10.84298,3.55449z" data-paper-data="{&quot;origPos&quot;:null}" fill="#ffc3d5" stroke="none" stroke-width="0" stroke-linecap="butt"/></g><path d="M50.37391,70.37375v-29.26876h80.34873v29.26876z" fill="#4926f1" fill-rule="nonzero" stroke="none" stroke-width="0" stroke-linecap="butt" stroke-linejoin="miter"/><path d="M53.9672,41.03363h73.45275" data-paper-data="{&quot;index&quot;:null}" fill="none" fill-rule="nonzero" stroke="#3eb5fa" stroke-width="7" stroke-linecap="round" stroke-linejoin="miter"/><path d="M79.99539,57.39241h32.64513" fill="none" fill-rule="nonzero" stroke="#502bff" stroke-width="25" stroke-linecap="round" stroke-linejoin="miter"/><path d="M73.66126,94.96869h29.26544" data-paper-data="{&quot;index&quot;:null}" fill="none" fill-rule="nonzero" stroke="#3d00a3" stroke-width="26.5" stroke-linecap="round" stroke-linejoin="miter"/><g fill="#ffffff" fill-rule="evenodd" stroke="none" stroke-width="1" stroke-linecap="round" stroke-linejoin="round"><path d="M-137.20944,184.79733c0,0 1.04359,0.04571 1.49493,-0.41573c0.45135,-0.46143 0.3563,-1.47686 0.3563,-1.47686c0,0 -0.34168,-6.95464 -0.49567,-11.87056c-0.03761,-1.2007 1.04095,-2.69616 2.44933,-2.60545c1.40838,0.0907 2.41017,1.54506 2.59215,2.69344c0.18198,1.14838 0.46615,12.77637 0.4248,14.06833c-0.04135,1.29195 -0.36237,2.53424 -1.20565,3.43534c-0.84327,0.9011 -2.31639,1.24101 -3.54921,1.28142c-1.23282,0.0404 -14.41484,-0.23326 -14.41484,-0.23326c-1.30869,-0.03888 -2.62228,-1.07294 -2.73535,-2.56119c-0.11305,-1.48823 1.21516,-2.53819 2.35025,-2.50831z" data-paper-data="{&quot;origPos&quot;:null,&quot;origRot&quot;:0,&quot;index&quot;:null}" opacity="0.42445"/><path d="M-123.74554,198.53881c0,0 1.0436,0.04571 1.49493,-0.41573c0.45135,-0.46143 0.35629,-1.47686 0.35629,-1.47686c0,0 -0.34168,-6.95464 -0.49567,-11.87057c-0.03761,-1.2007 1.04092,-2.69616 2.44932,-2.60545c1.40838,0.0907 2.41018,1.54508 2.59216,2.69345c0.18198,1.14838 0.46615,12.77637 0.4248,14.06833c-0.04136,1.29195 -0.36237,2.53425 -1.20565,3.43535c-0.84327,0.9011 -2.31639,1.24099 -3.54921,1.2814c-1.23282,0.0404 -14.41484,-0.23325 -14.41484,-0.23325c-1.30869,-0.03888 -2.62228,-1.07294 -2.73534,-2.56118c-0.11305,-1.48823 1.21517,-2.5382 2.35024,-2.50832z" data-paper-data="{&quot;origPos&quot;:null,&quot;origRot&quot;:0,&quot;index&quot;:null}" opacity="0.42445"/><path d="M-110.28165,212.28029c0,0 1.0436,0.04571 1.49493,-0.41573c0.45135,-0.46143 0.35629,-1.47686 0.35629,-1.47686c0,0 -0.34168,-6.95464 -0.49567,-11.87057c-0.03761,-1.2007 1.04092,-2.69616 2.44932,-2.60545c1.40839,0.09071 2.41018,1.54508 2.59217,2.69345c0.18198,1.14838 0.46615,12.77637 0.42479,14.06832c-0.04136,1.29195 -0.36238,2.53424 -1.20565,3.43534c-0.84327,0.9011 -2.31638,1.241 -3.54921,1.28142c-1.23282,0.0404 -14.41484,-0.23326 -14.41484,-0.23326c-1.30869,-0.03888 -2.62229,-1.07295 -2.73535,-2.56119c-0.11306,-1.48824 1.21516,-2.53819 2.35024,-2.50832z" data-paper-data="{&quot;origPos&quot;:null,&quot;origRot&quot;:0,&quot;index&quot;:null}" opacity="0.42445"/></g></g></g></svg>