<svg version="1.1" xmlns="http://www.w3.org/2000/svg" xmlns:xlink="http://www.w3.org/1999/xlink" width="738.69186" height="537.85862" viewBox="0,0,738.69186,537.85862"><defs><linearGradient x1="1.38137" y1="-90.39338" x2="1.38137" y2="-59.98337" gradientUnits="userSpaceOnUse" id="color-1"><stop offset="0" stop-color="#fffc45"/><stop offset="1" stop-color="#ffe134"/></linearGradient><linearGradient x1="39.81721" y1="-90.47156" x2="39.81721" y2="-60.06155" gradientUnits="userSpaceOnUse" id="color-2"><stop offset="0" stop-color="#fffc45"/><stop offset="1" stop-color="#ffe134"/></linearGradient><linearGradient x1="78.2531" y1="-90.54976" x2="78.2531" y2="-60.13976" gradientUnits="userSpaceOnUse" id="color-3"><stop offset="0" stop-color="#fffc45"/><stop offset="1" stop-color="#ffe134"/></linearGradient><linearGradient x1="115.76091" y1="-90.62792" x2="115.76091" y2="-60.21792" gradientUnits="userSpaceOnUse" id="color-4"><stop offset="0" stop-color="#fffc45"/><stop offset="1" stop-color="#ffe134"/></linearGradient><linearGradient x1="154.66076" y1="-90.24211" x2="154.66076" y2="-59.83208" gradientUnits="userSpaceOnUse" id="color-5"><stop offset="0" stop-color="#ffe9d8"/><stop offset="1" stop-color="#f7cbd0"/></linearGradient><linearGradient x1="53.47813" y1="-85.13969" x2="53.47813" y2="-52.26987" gradientUnits="userSpaceOnUse" id="color-6"><stop offset="0" stop-color="#fff642"/><stop offset="1" stop-color="#ffe335"/></linearGradient><linearGradient x1="-19.66734" y1="-78.92588" x2="-19.66734" y2="-47.11186" gradientUnits="userSpaceOnUse" id="color-7"><stop offset="0" stop-color="#fef23f"/><stop offset="1" stop-color="#ffe537"/></linearGradient><linearGradient x1="176.08308" y1="-79.7944" x2="176.08308" y2="-48.24071" gradientUnits="userSpaceOnUse" id="color-8"><stop offset="0" stop-color="#fbdcd4"/><stop offset="1" stop-color="#f7cbd0"/></linearGradient><linearGradient x1="154.51917" y1="-89.10599" x2="154.51917" y2="-60.03884" gradientUnits="userSpaceOnUse" id="color-9"><stop offset="0" stop-color="#fffc45"/><stop offset="1" stop-color="#ffe134"/></linearGradient><linearGradient x1="191.2578" y1="-89.18072" x2="191.2578" y2="-60.11357" gradientUnits="userSpaceOnUse" id="color-10"><stop offset="0" stop-color="#fffc45"/><stop offset="1" stop-color="#ffe134"/></linearGradient><linearGradient x1="227.99641" y1="-89.25546" x2="227.99641" y2="-60.18832" gradientUnits="userSpaceOnUse" id="color-11"><stop offset="0" stop-color="#fffc45"/><stop offset="1" stop-color="#ffe134"/></linearGradient><linearGradient x1="182.26847" y1="-84.0843" x2="182.26847" y2="-53.33999" gradientUnits="userSpaceOnUse" id="color-12"><stop offset="0" stop-color="#fff642"/><stop offset="1" stop-color="#ffe335"/></linearGradient><linearGradient x1="251.27419" y1="-78.47504" x2="251.27419" y2="-46.76636" gradientUnits="userSpaceOnUse" id="color-13"><stop offset="0" stop-color="#fef23f"/><stop offset="1" stop-color="#ffe537"/></linearGradient><linearGradient x1="-51.08541" y1="-52.08013" x2="-51.08541" y2="-23.01298" gradientUnits="userSpaceOnUse" id="color-14"><stop offset="0" stop-color="#fffc45"/><stop offset="1" stop-color="#ffe134"/></linearGradient><linearGradient x1="94.11647" y1="-51.87295" x2="94.11647" y2="-22.80578" gradientUnits="userSpaceOnUse" id="color-15"><stop offset="0" stop-color="#fffc45"/><stop offset="1" stop-color="#ffe134"/></linearGradient><linearGradient x1="-16.06374" y1="-52.84569" x2="-16.06374" y2="-23.77854" gradientUnits="userSpaceOnUse" id="color-16"><stop offset="0" stop-color="#fffc45"/><stop offset="1" stop-color="#ffe134"/></linearGradient><linearGradient x1="20.67487" y1="-52.15487" x2="20.67487" y2="-23.08772" gradientUnits="userSpaceOnUse" id="color-17"><stop offset="0" stop-color="#fffc45"/><stop offset="1" stop-color="#ffe134"/></linearGradient><linearGradient x1="57.94915" y1="-52.22961" x2="57.94915" y2="-23.16245" gradientUnits="userSpaceOnUse" id="color-18"><stop offset="0" stop-color="#fffc45"/><stop offset="1" stop-color="#ffe134"/></linearGradient><linearGradient x1="-72.33882" y1="-40.61903" x2="-72.33882" y2="-9.09927" gradientUnits="userSpaceOnUse" id="color-19"><stop offset="0" stop-color="#fef23f"/><stop offset="1" stop-color="#ffe537"/></linearGradient><linearGradient x1="114.47999" y1="-41.44918" x2="114.47999" y2="-9.7405" gradientUnits="userSpaceOnUse" id="color-20"><stop offset="0" stop-color="#fef23f"/><stop offset="1" stop-color="#ffe537"/></linearGradient><linearGradient x1="22.98854" y1="-47.55615" x2="22.98854" y2="-16.31415" gradientUnits="userSpaceOnUse" id="color-21"><stop offset="0" stop-color="#fff642"/><stop offset="1" stop-color="#ffe335"/></linearGradient></defs><g transform="translate(197.02854,116.4415)"><g data-paper-data="{&quot;isPaintingLayer&quot;:true}" fill-rule="nonzero" stroke-linejoin="miter" stroke-miterlimit="10" stroke-dasharray="" stroke-dashoffset="0" style="mix-blend-mode: normal"><path d="M-157.42604,395.94368l-2.16554,-512.38518h699.08936l2.16554,512.38518z" fill="none" stroke="none" stroke-width="0" stroke-linecap="butt"/><path d="M519.58186,169.14216l-0.1414,35.32468l-339.61875,0.20347l1.12318,-34.12405z" data-paper-data="{&quot;index&quot;:null}" fill="#4926f1" stroke="none" stroke-width="0" stroke-linecap="butt"/><path d="M517.78604,167.88128l-347.44504,0.01544" data-paper-data="{&quot;index&quot;:null}" fill="none" stroke="#3eb5fa" stroke-width="7" stroke-linecap="round"/><path d="M-49.33985,361.58878l1.63075,-437.57835l231.91643,0.7178l0.61715,265.61833l10.08458,7.72815l323.20507,-0.56548l-0.5633,169.58596z" data-paper-data="{&quot;index&quot;:null}" fill="#4000af" stroke="none" stroke-width="0" stroke-linecap="butt"/><path d="M213.39945,190.5679h-20.99025" data-paper-data="{&quot;index&quot;:null}" fill="none" stroke="#4926f1" stroke-width="15" stroke-linecap="round"/><path d="M311.50618,235.6772l-41.66673,-0.4153" data-paper-data="{&quot;index&quot;:null}" fill="none" stroke="#3d00a3" stroke-width="30" stroke-linecap="round"/><g data-paper-data="{&quot;index&quot;:null}" fill="none" stroke-linecap="round"><path d="M111.25891,175.69551h-67.16318" data-paper-data="{&quot;index&quot;:null}" stroke="#3d00a3" stroke-width="30"/><path d="M51.06467,205.17586h53.32889" data-paper-data="{&quot;index&quot;:null}" stroke="#3d00a3" stroke-width="29.5"/><path d="M19.9968,234.73233h148.54298" data-paper-data="{&quot;index&quot;:null}" stroke="#3d00a3" stroke-width="30"/><path d="M16.02773,205.49705h32.61701" data-paper-data="{&quot;index&quot;:null}" stroke="#4000af" stroke-width="29"/><path d="M152.5647,205.0394h-44.32889" data-paper-data="{&quot;index&quot;:null}" stroke="#4000af" stroke-width="29"/></g><path d="M166.74176,46.11891l17.71181,0.05558l-51.80475,0.35972" data-paper-data="{&quot;index&quot;:null}" fill="none" stroke="#3d00a3" stroke-width="30" stroke-linecap="round"/><path d="M144.04036,74.96142h-56.77413" data-paper-data="{&quot;index&quot;:null}" fill="none" stroke="#39009c" stroke-width="30" stroke-linecap="round"/><path d="M-197.02853,99.29486v-172.23029h165.00385v172.23029z" fill="#4000af" stroke="none" stroke-width="0" stroke-linecap="butt"/><g><g><g data-paper-data="{&quot;origPos&quot;:null}" stroke="none" stroke-linecap="butt"><path d="M26.4387,-67.19214c0,12.81369 -28.3055,4.64025 -28.3055,4.64025c0,0 -21.80916,8.17345 -21.80916,-4.64025c0,-12.81369 11.21855,-23.20124 25.05733,-23.20124c13.83878,0 25.05733,10.38755 25.05733,23.20124z" data-paper-data="{&quot;origPos&quot;:null}" fill="url(#color-1)" stroke-width="NaN"/><path d="M64.87453,-67.27032c0,12.81369 -28.3055,4.64025 -28.3055,4.64025c0,0 -21.80916,8.17345 -21.80916,-4.64025c0,-12.81369 11.21854,-23.20124 25.05733,-23.20124c13.83878,0 25.05733,10.38755 25.05733,23.20124z" data-paper-data="{&quot;origPos&quot;:null}" fill="url(#color-2)" stroke-width="NaN"/><path d="M103.31041,-67.34852c0,12.81369 -28.3055,4.64024 -28.3055,4.64024c0,0 -21.80916,8.17345 -21.80916,-4.64024c0,-12.81369 11.21854,-23.20124 25.05733,-23.20124c13.83878,0 25.05733,10.38755 25.05733,23.20124z" data-paper-data="{&quot;origPos&quot;:null}" fill="url(#color-3)" stroke-width="NaN"/><path d="M140.81823,-67.42668c0,12.81369 -28.3055,4.64024 -28.3055,4.64024c0,0 -21.80916,8.17345 -21.80916,-4.64024c0,-12.81369 11.21855,-23.20124 25.05733,-23.20124c13.83878,0 25.05733,10.38755 25.05733,23.20124z" data-paper-data="{&quot;origPos&quot;:null}" fill="url(#color-4)" stroke-width="NaN"/><path d="M179.71813,-67.04084c0,12.81369 -28.3055,4.64025 -28.3055,4.64025c0,0 -21.80916,8.17345 -21.80916,-4.64025c0,-12.81369 11.21854,-23.20124 25.05733,-23.20124c13.83878,0 25.05733,10.38755 25.05733,23.20124z" data-paper-data="{&quot;origPos&quot;:null}" fill="url(#color-5)" stroke-width="NaN"/><path d="M-21.89954,-52.26987l7.75699,-31.45946l180.49828,-1.41036v32.16464z" data-paper-data="{&quot;origPos&quot;:null}" fill="url(#color-6)" stroke-width="0"/><path d="M-3.42649,-63.14904c0,8.71332 -10.03162,16.03718 -19.00121,16.03718c-8.96958,0 -13.48052,-7.32387 -13.48052,-16.03718c0,-8.71332 7.27128,-15.77684 16.24087,-15.77684c8.96958,0 16.24087,7.06352 16.24087,15.77684z" fill="url(#color-7)" stroke-width="0"/><path d="M192.32394,-64.01755c0,8.71332 -5.44891,17.83887 -14.4185,17.83887c-8.96958,0 -18.06324,-9.12556 -18.06324,-17.83887c0,-8.71332 7.27127,-15.77684 16.24087,-15.77684c8.96958,0 16.24087,7.06353 16.24087,15.77684z" data-paper-data="{&quot;origPos&quot;:null}" fill="url(#color-8)" stroke-width="0"/></g><path d="M-26.80758,-49.55222c0,0 55.46007,0 118.2303,0c34.23198,0 85.21518,0 85.21518,0" data-paper-data="{&quot;origPos&quot;:null}" fill="#ffc3d5" stroke="#ffd426" stroke-width="9" stroke-linecap="round"/><path d="M42.15398,-53.73719c4.70706,2.64754 -12.17937,3.46502 -20.37856,3.46502c-8.19919,0 -15.42978,5.85048 -15.42978,-0.29891c0,-0.34096 -7.05168,-3.23986 -6.74259,-3.38377c3.12986,-1.45724 5.9394,-1.61608 8.16707,-2.95339c4.90203,-2.94276 8.33774,-2.84057 13.42146,-2.84057c0,0 5.29038,-0.68937 10.11942,2.45714c3.5905,1.99836 5.43552,1.85096 10.84298,3.55449z" data-paper-data="{&quot;origPos&quot;:null}" fill="#ffd426" stroke="none" stroke-width="0" stroke-linecap="butt"/><path d="M81.05288,-53.95846c4.70706,2.64754 -12.17937,3.46502 -20.37855,3.46502c-8.19919,0 -15.42979,5.85048 -15.42979,-0.29891c0,-0.34096 -7.05168,-3.23986 -6.74259,-3.38377c3.12986,-1.45724 5.9394,-1.61608 8.16707,-2.95339c4.90203,-2.94276 8.33774,-2.84057 13.42146,-2.84057c0,0 5.29038,-0.68937 10.11942,2.45714c3.5905,1.99836 5.43552,1.85095 10.84298,3.55448z" data-paper-data="{&quot;origPos&quot;:null}" fill="#ffd426" stroke="none" stroke-width="0" stroke-linecap="butt"/><path d="M116.62998,-53.73719c4.70706,2.64754 -12.17937,3.46502 -20.37855,3.46502c-8.19919,0 -15.42978,5.85048 -15.42978,-0.29891c0,-0.34096 -7.0517,-3.23986 -6.7426,-3.38377c3.12986,-1.45724 5.9394,-1.61608 8.16707,-2.95339c4.90203,-2.94276 8.33774,-2.84057 13.42146,-2.84057c0,0 5.29038,-0.68937 10.11942,2.45714c3.5905,1.99836 5.43552,1.85096 10.84298,3.55449z" data-paper-data="{&quot;origPos&quot;:null}" fill="#ffd426" stroke="none" stroke-width="0" stroke-linecap="butt"/><path d="M155.01908,-53.95846c4.70706,2.64754 -12.17937,3.46502 -20.37856,3.46502c-8.19919,0 -15.42978,5.85048 -15.42978,-0.29891c0,-0.34096 -7.05168,-3.23986 -6.74259,-3.38377c3.12986,-1.45724 5.9394,-1.61608 8.16707,-2.95339c4.90203,-2.94276 8.33774,-2.84057 13.42146,-2.84057c0,0 5.29038,-0.68937 10.11942,2.45714c3.5905,1.99836 5.43552,1.85095 10.84298,3.55448z" data-paper-data="{&quot;origPos&quot;:null}" fill="#ffc3d5" stroke="none" stroke-width="0" stroke-linecap="butt"/></g><g data-paper-data="{&quot;origPos&quot;:null}"><g data-paper-data="{&quot;origPos&quot;:null}" stroke="none" stroke-linecap="butt"><path d="M178.47001,-66.92928c0,12.24786 -27.05558,4.43534 -27.05558,4.43534c0,0 -20.84611,7.81253 -20.84611,-4.43534c0,-12.24786 10.72316,-22.17671 23.95085,-22.17671c13.22768,0 23.95085,9.92885 23.95085,22.17671z" data-paper-data="{&quot;origPos&quot;:null}" fill="url(#color-9)" stroke-width="NaN"/><path d="M215.20863,-67.00401c0,12.24786 -27.05558,4.43534 -27.05558,4.43534c0,0 -20.84611,7.81253 -20.84611,-4.43534c0,-12.24786 10.72315,-22.17671 23.95085,-22.17671c13.22768,0 23.95085,9.92885 23.95085,22.17671z" data-paper-data="{&quot;origPos&quot;:null}" fill="url(#color-10)" stroke-width="NaN"/><path d="M251.94724,-67.07875c0,12.24786 -27.05558,4.43533 -27.05558,4.43533c0,0 -20.84611,7.81253 -20.84611,-4.43533c0,-12.24786 10.72315,-22.17671 23.95085,-22.17671c13.22768,0 23.95085,9.92885 23.95085,22.17671z" data-paper-data="{&quot;origPos&quot;:null}" fill="url(#color-11)" stroke-width="NaN"/><path d="M111.71499,-55.36651l-6.57199,-27.25757l134.02408,-1.46022l20.22687,30.74431z" data-paper-data="{&quot;origPos&quot;:null}" fill="url(#color-12)" stroke-width="0"/><path d="M266.79793,-63.39488c0,8.32855 -4.653,16.62852 -13.2265,16.62852c-8.5735,0 -17.8209,-8.29997 -17.8209,-16.62852c0,-5.66446 1.89289,-9.10116 6.55884,-12.31285c3.06243,-2.10796 5.24708,-2.76731 8.96486,-2.76731c8.5735,0 15.5237,6.75162 15.5237,15.08016z" data-paper-data="{&quot;origPos&quot;:null}" fill="url(#color-13)" stroke-width="0"/></g><path d="M255.25119,-49.94677c0,0 -1.46654,0 -3.47146,0c-6.01476,0 -24.3493,0 -39.9341,0c-48.91908,0 -119.85778,0 -119.85778,0" data-paper-data="{&quot;origPos&quot;:null}" fill="#ffc3d5" stroke="#ffd426" stroke-width="10" stroke-linecap="round"/><path d="M157.5788,-53.74055c4.49921,2.53063 -11.64155,3.31201 -19.47868,3.31201c-7.83713,0 -14.74843,5.59214 -14.74843,-0.28571c0,-0.3259 -6.74031,-3.09679 -6.44486,-3.23435c2.99165,-1.39289 5.67713,-1.54472 7.80644,-2.82298c4.68556,-2.81281 7.96956,-2.71514 12.8288,-2.71514c0,0 5.05677,-0.65893 9.67257,2.34864c3.43195,1.91012 5.19549,1.76923 10.36417,3.39753z" data-paper-data="{&quot;origPos&quot;:null}" fill="#ffd426" stroke="none" stroke-width="0" stroke-linecap="butt"/><path d="M193.49132,-54.06848c4.49921,2.53063 -11.64155,3.31201 -19.47868,3.31201c-7.83713,0 -14.74843,5.59214 -14.74843,-0.28571c0,-0.3259 -6.74029,-3.09679 -6.44485,-3.23435c2.99165,-1.39289 5.67713,-1.54472 7.80643,-2.82298c4.68556,-2.81281 7.96956,-2.71514 12.8288,-2.71514c0,0 5.05677,-0.65893 9.67257,2.34864c3.43195,1.91012 5.19549,1.76923 10.36417,3.39753z" data-paper-data="{&quot;origPos&quot;:null}" fill="#ffd426" stroke="none" stroke-width="0" stroke-linecap="butt"/><path d="M230.67261,-54.27997c4.49921,2.53063 -11.64155,3.31201 -19.47867,3.31201c-7.83713,0 -14.74844,5.59214 -14.74844,-0.28571c0,-0.3259 -6.74029,-3.09679 -6.44485,-3.23435c2.99165,-1.39289 5.67713,-1.54472 7.80643,-2.82298c4.68556,-2.81281 7.96956,-2.71514 12.8288,-2.71514c0,0 5.05677,-0.65893 9.67257,2.34864c3.43195,1.91012 5.19549,1.76922 10.36417,3.39752z" data-paper-data="{&quot;origPos&quot;:null}" fill="#ffd426" stroke="none" stroke-width="0" stroke-linecap="butt"/></g></g><g><path d="M-27.13454,-29.90342c0,12.24786 -27.05558,4.43534 -27.05558,4.43534c0,0 -20.84611,7.81253 -20.84611,-4.43534c0,-12.24786 10.72316,-22.17671 23.95085,-22.17671c13.22768,0 23.95085,9.92885 23.95085,22.17671z" fill="url(#color-14)" stroke="none" stroke-width="NaN" stroke-linecap="butt"/><g><path d="M118.0673,-29.69623c0,12.24786 -27.05558,4.43533 -27.05558,4.43533c0,0 -20.84611,7.81253 -20.84611,-4.43533c0,-12.24786 10.72315,-22.17671 23.95085,-22.17671c13.22768,0 23.95085,9.92885 23.95085,22.17671z" fill="url(#color-15)" stroke="none" stroke-width="NaN" stroke-linecap="butt"/><path d="M7.88711,-30.66898c0,12.24786 -27.05558,4.43534 -27.05558,4.43534c0,0 -20.84611,7.81253 -20.84611,-4.43534c0,-12.24786 10.72316,-22.17671 23.95085,-22.17671c13.22768,0 23.95085,9.92885 23.95085,22.17671z" fill="url(#color-16)" stroke="none" stroke-width="NaN" stroke-linecap="butt"/><path d="M44.6257,-29.97816c0,12.24786 -27.05558,4.43534 -27.05558,4.43534c0,0 -20.84611,7.81253 -20.84611,-4.43534c0,-12.24786 10.72315,-22.17671 23.95085,-22.17671c13.22768,0 23.95085,9.92885 23.95085,22.17671z" fill="url(#color-17)" stroke="none" stroke-width="NaN" stroke-linecap="butt"/><path d="M81.89996,-30.05289c0,12.24786 -27.05558,4.43533 -27.05558,4.43533c0,0 -20.84611,7.81253 -20.84611,-4.43533c0,-12.24786 10.72315,-22.17671 23.95085,-22.17671c13.22768,0 23.95085,9.92885 23.95085,22.17671z" fill="url(#color-18)" stroke="none" stroke-width="NaN" stroke-linecap="butt"/><path d="M-56.81518,-25.53887c0,8.32855 -9.25434,16.4396 -17.82784,16.4396c-8.5735,0 -13.21955,-8.11106 -13.21955,-16.4396c0,-8.32855 6.9502,-15.08016 15.5237,-15.08016c8.5735,0 15.5237,6.75161 15.5237,15.08016z" fill="url(#color-19)" stroke="none" stroke-width="0" stroke-linecap="butt"/><path d="M130.00367,-26.36902c0,8.32855 -4.653,16.62852 -13.2265,16.62852c-8.5735,0 -17.8209,-8.29997 -17.8209,-16.62852c0,-5.66446 1.89289,-9.10116 6.55884,-12.31285c3.06243,-2.10796 5.24708,-2.76731 8.96486,-2.76731c8.5735,0 15.5237,6.75162 15.5237,15.08016z" fill="url(#color-20)" stroke="none" stroke-width="0" stroke-linecap="butt"/><path d="M-74.69912,-13.91119l7.82614,-31.68702l168.21899,-0.21287c0,0 3.52579,8.43051 5.51725,13.19231c2.3513,5.6222 7.69118,18.39037 7.69118,18.39037z" fill="url(#color-21)" stroke="none" stroke-width="0" stroke-linecap="butt"/><path d="M101.80415,-16.77468c4.49921,2.53063 -11.64155,3.31201 -19.47867,3.31201c-7.83713,0 -14.74844,5.59214 -14.74844,-0.28571c0,-0.3259 -6.74029,-3.09679 -6.44485,-3.23435c2.99165,-1.39289 5.67713,-1.54472 7.80643,-2.82298c4.68556,-2.81281 7.96956,-2.71514 12.8288,-2.71514c0,0 5.05677,-0.65893 9.67257,2.34864c3.43195,1.91012 5.19549,1.76922 10.36417,3.39752z" fill="#ffd426" stroke="none" stroke-width="0" stroke-linecap="butt"/><path d="M-76.31691,-12.92093c0,0 186.95622,0 192.97098,0" fill="#ffd426" stroke="#ffd426" stroke-width="10" stroke-linecap="round"/><path d="M21.8363,-16.56321c4.49921,2.53063 -11.64155,3.31201 -19.47868,3.31201c-7.83713,0 -14.74843,5.59214 -14.74843,-0.28571c0,-0.3259 -6.74029,-3.09679 -6.44485,-3.23435c2.99165,-1.39289 5.67713,-1.54472 7.80643,-2.82298c4.68556,-2.81281 7.96956,-2.71514 12.8288,-2.71514c0,0 5.05677,-0.65893 9.67257,2.34864c3.43195,1.91012 5.19549,1.76923 10.36417,3.39753z" fill="#ffd426" stroke="none" stroke-width="0" stroke-linecap="butt"/><path d="M60.08967,-16.77471c4.49921,2.53063 -11.64155,3.31201 -19.47867,3.31201c-7.83713,0 -14.74844,5.59214 -14.74844,-0.28571c0,-0.3259 -6.74029,-3.09679 -6.44485,-3.23435c2.99165,-1.39289 5.67713,-1.54472 7.80643,-2.82298c4.68556,-2.81281 7.96956,-2.71514 12.8288,-2.71514c0,0 5.05677,-0.65893 9.67257,2.34864c3.43195,1.91012 5.19549,1.76922 10.36417,3.39752z" fill="#ffd426" stroke="none" stroke-width="0" stroke-linecap="butt"/></g><path d="M-19.26056,-16.56321c4.49921,2.53063 -11.64155,3.31201 -19.47868,3.31201c-7.83713,0 -14.74843,5.59214 -14.74843,-0.28571c0,-0.3259 -6.74029,-3.09679 -6.44485,-3.23435c2.99165,-1.39289 5.67713,-1.54472 7.80643,-2.82298c4.68556,-2.81281 7.96956,-2.71514 12.8288,-2.71514c0,0 5.05677,-0.65893 9.67257,2.34864c3.43195,1.91012 5.19549,1.76923 10.36417,3.39753z" fill="#ffd426" stroke="none" stroke-width="0" stroke-linecap="butt"/></g><path d="M340.10856,421.41712v-73.65025h192.23963v73.65025z" fill="#4000af" stroke="none" stroke-width="0" stroke-linecap="butt"/><path d="M340.07886,209.54145l-31.30992,-0.19177" fill="none" stroke="#4a00ca" stroke-width="22.5" stroke-linecap="round"/><path d="M442.45839,183.96918l-44.88977,-0.20029" fill="none" stroke="#502bff" stroke-width="25" stroke-linecap="round"/></g></g></svg>