<svg version="1.1" xmlns="http://www.w3.org/2000/svg" xmlns:xlink="http://www.w3.org/1999/xlink" width="806.79184" height="497.8173" viewBox="0,0,806.79184,497.8173"><defs><linearGradient x1="383.75312" y1="94.79983" x2="383.75312" y2="220.33039" gradientUnits="userSpaceOnUse" id="color-1"><stop offset="0" stop-color="#ffce17"/><stop offset="1" stop-color="#ff9100"/></linearGradient><linearGradient x1="300.84775" y1="289.19873" x2="300.84775" y2="318.26588" gradientUnits="userSpaceOnUse" id="color-2"><stop offset="0" stop-color="#fffc45"/><stop offset="1" stop-color="#ffe134"/></linearGradient><linearGradient x1="446.04963" y1="289.40591" x2="446.04963" y2="318.47308" gradientUnits="userSpaceOnUse" id="color-3"><stop offset="0" stop-color="#fffc45"/><stop offset="1" stop-color="#ffe134"/></linearGradient><linearGradient x1="335.86943" y1="288.43317" x2="335.86943" y2="317.50032" gradientUnits="userSpaceOnUse" id="color-4"><stop offset="0" stop-color="#fffc45"/><stop offset="1" stop-color="#ffe134"/></linearGradient><linearGradient x1="372.60803" y1="289.12399" x2="372.60803" y2="318.19114" gradientUnits="userSpaceOnUse" id="color-5"><stop offset="0" stop-color="#fffc45"/><stop offset="1" stop-color="#ffe134"/></linearGradient><linearGradient x1="409.88231" y1="289.04925" x2="409.88231" y2="318.11641" gradientUnits="userSpaceOnUse" id="color-6"><stop offset="0" stop-color="#fffc45"/><stop offset="1" stop-color="#ffe134"/></linearGradient><linearGradient x1="279.59434" y1="300.65983" x2="279.59434" y2="332.17959" gradientUnits="userSpaceOnUse" id="color-7"><stop offset="0" stop-color="#fef23f"/><stop offset="1" stop-color="#ffe537"/></linearGradient><linearGradient x1="466.41315" y1="299.82968" x2="466.41315" y2="331.53836" gradientUnits="userSpaceOnUse" id="color-8"><stop offset="0" stop-color="#fef23f"/><stop offset="1" stop-color="#ffe537"/></linearGradient><linearGradient x1="374.9217" y1="293.72271" x2="374.9217" y2="324.96471" gradientUnits="userSpaceOnUse" id="color-9"><stop offset="0" stop-color="#fff642"/><stop offset="1" stop-color="#ffe335"/></linearGradient><linearGradient x1="543.74248" y1="326.14144" x2="543.74248" y2="355.20861" gradientUnits="userSpaceOnUse" id="color-10"><stop offset="0" stop-color="#fffc45"/><stop offset="1" stop-color="#ffe134"/></linearGradient><linearGradient x1="433.56228" y1="325.93425" x2="433.56228" y2="355.0014" gradientUnits="userSpaceOnUse" id="color-11"><stop offset="0" stop-color="#fffc45"/><stop offset="1" stop-color="#ffe134"/></linearGradient><linearGradient x1="470.30089" y1="325.85952" x2="470.30089" y2="354.92667" gradientUnits="userSpaceOnUse" id="color-12"><stop offset="0" stop-color="#fffc45"/><stop offset="1" stop-color="#ffe134"/></linearGradient><linearGradient x1="507.57518" y1="325.78478" x2="507.57518" y2="354.85194" gradientUnits="userSpaceOnUse" id="color-13"><stop offset="0" stop-color="#fffc45"/><stop offset="1" stop-color="#ffe134"/></linearGradient><linearGradient x1="411.23673" y1="337.39536" x2="411.23673" y2="368.91512" gradientUnits="userSpaceOnUse" id="color-14"><stop offset="0" stop-color="#fef23f"/><stop offset="1" stop-color="#ffe537"/></linearGradient><linearGradient x1="564.10597" y1="336.56521" x2="564.10597" y2="368.27389" gradientUnits="userSpaceOnUse" id="color-15"><stop offset="0" stop-color="#fef23f"/><stop offset="1" stop-color="#ffe537"/></linearGradient><linearGradient x1="471.89979" y1="330.45824" x2="471.89979" y2="361.70024" gradientUnits="userSpaceOnUse" id="color-16"><stop offset="0" stop-color="#fff642"/><stop offset="1" stop-color="#ffe335"/></linearGradient><linearGradient x1="244.44358" y1="217.20339" x2="244.44358" y2="246.27056" gradientUnits="userSpaceOnUse" id="color-17"><stop offset="0" stop-color="#fffc45"/><stop offset="1" stop-color="#ffe134"/></linearGradient><linearGradient x1="134.26336" y1="216.9962" x2="134.26336" y2="246.06335" gradientUnits="userSpaceOnUse" id="color-18"><stop offset="0" stop-color="#fffc45"/><stop offset="1" stop-color="#ffe134"/></linearGradient><linearGradient x1="171.00194" y1="216.44292" x2="171.00194" y2="245.51007" gradientUnits="userSpaceOnUse" id="color-19"><stop offset="0" stop-color="#fffc45"/><stop offset="1" stop-color="#ffe134"/></linearGradient><linearGradient x1="208.27625" y1="216.36818" x2="208.27625" y2="245.43534" gradientUnits="userSpaceOnUse" id="color-20"><stop offset="0" stop-color="#fffc45"/><stop offset="1" stop-color="#ffe134"/></linearGradient><linearGradient x1="111.93781" y1="228.45731" x2="111.93781" y2="259.97707" gradientUnits="userSpaceOnUse" id="color-21"><stop offset="0" stop-color="#fef23f"/><stop offset="1" stop-color="#ffe537"/></linearGradient><linearGradient x1="264.80708" y1="227.62716" x2="264.80708" y2="259.33584" gradientUnits="userSpaceOnUse" id="color-22"><stop offset="0" stop-color="#fef23f"/><stop offset="1" stop-color="#ffe537"/></linearGradient><linearGradient x1="172.60091" y1="221.52019" x2="172.60091" y2="252.76219" gradientUnits="userSpaceOnUse" id="color-23"><stop offset="0" stop-color="#fff642"/><stop offset="1" stop-color="#ffe335"/></linearGradient><linearGradient x1="160.90187" y1="365.64965" x2="160.90187" y2="394.7168" gradientUnits="userSpaceOnUse" id="color-24"><stop offset="0" stop-color="#fffc45"/><stop offset="1" stop-color="#ffe134"/></linearGradient><linearGradient x1="197.64045" y1="365.57492" x2="197.64045" y2="394.64207" gradientUnits="userSpaceOnUse" id="color-25"><stop offset="0" stop-color="#fffc45"/><stop offset="1" stop-color="#ffe134"/></linearGradient><linearGradient x1="138.57632" y1="377.11076" x2="138.57632" y2="408.63052" gradientUnits="userSpaceOnUse" id="color-26"><stop offset="0" stop-color="#fef23f"/><stop offset="1" stop-color="#ffe537"/></linearGradient><linearGradient x1="219.50743" y1="376.28061" x2="219.50743" y2="407.98929" gradientUnits="userSpaceOnUse" id="color-27"><stop offset="0" stop-color="#fef23f"/><stop offset="1" stop-color="#ffe537"/></linearGradient><linearGradient x1="199.23942" y1="370.17364" x2="199.23942" y2="401.41564" gradientUnits="userSpaceOnUse" id="color-28"><stop offset="0" stop-color="#fff642"/><stop offset="1" stop-color="#ffe335"/></linearGradient><linearGradient x1="-46.09577" y1="368.99012" x2="-46.09577" y2="398.05729" gradientUnits="userSpaceOnUse" id="color-29"><stop offset="0" stop-color="#fffc45"/><stop offset="1" stop-color="#ffe134"/></linearGradient><linearGradient x1="-156.27599" y1="368.78293" x2="-156.27599" y2="397.85008" gradientUnits="userSpaceOnUse" id="color-30"><stop offset="0" stop-color="#fffc45"/><stop offset="1" stop-color="#ffe134"/></linearGradient><linearGradient x1="-119.53741" y1="368.22965" x2="-119.53741" y2="397.2968" gradientUnits="userSpaceOnUse" id="color-31"><stop offset="0" stop-color="#fffc45"/><stop offset="1" stop-color="#ffe134"/></linearGradient><linearGradient x1="-82.2631" y1="368.15491" x2="-82.2631" y2="397.22207" gradientUnits="userSpaceOnUse" id="color-32"><stop offset="0" stop-color="#fffc45"/><stop offset="1" stop-color="#ffe134"/></linearGradient><linearGradient x1="-178.60154" y1="380.24404" x2="-178.60154" y2="411.7638" gradientUnits="userSpaceOnUse" id="color-33"><stop offset="0" stop-color="#fef23f"/><stop offset="1" stop-color="#ffe537"/></linearGradient><linearGradient x1="-25.73227" y1="379.41389" x2="-25.73227" y2="411.12257" gradientUnits="userSpaceOnUse" id="color-34"><stop offset="0" stop-color="#fef23f"/><stop offset="1" stop-color="#ffe537"/></linearGradient><linearGradient x1="-117.93844" y1="373.30692" x2="-117.93844" y2="404.54892" gradientUnits="userSpaceOnUse" id="color-35"><stop offset="0" stop-color="#fff642"/><stop offset="1" stop-color="#ffe335"/></linearGradient><linearGradient x1="-97.23761" y1="405.93493" x2="-97.23761" y2="436.34494" gradientUnits="userSpaceOnUse" id="color-36"><stop offset="0" stop-color="#fffc45"/><stop offset="1" stop-color="#ffe134"/></linearGradient><linearGradient x1="-58.80176" y1="405.85675" x2="-58.80176" y2="436.26676" gradientUnits="userSpaceOnUse" id="color-37"><stop offset="0" stop-color="#fffc45"/><stop offset="1" stop-color="#ffe134"/></linearGradient><linearGradient x1="-20.36588" y1="405.77855" x2="-20.36588" y2="436.18855" gradientUnits="userSpaceOnUse" id="color-38"><stop offset="0" stop-color="#fffc45"/><stop offset="1" stop-color="#ffe134"/></linearGradient><linearGradient x1="17.14193" y1="405.70039" x2="17.14193" y2="436.11039" gradientUnits="userSpaceOnUse" id="color-39"><stop offset="0" stop-color="#fffc45"/><stop offset="1" stop-color="#ffe134"/></linearGradient><linearGradient x1="56.04179" y1="406.0862" x2="56.04179" y2="436.49623" gradientUnits="userSpaceOnUse" id="color-40"><stop offset="0" stop-color="#ffe9d8"/><stop offset="1" stop-color="#f7cbd0"/></linearGradient><linearGradient x1="-45.14085" y1="411.18862" x2="-45.14085" y2="444.05844" gradientUnits="userSpaceOnUse" id="color-41"><stop offset="0" stop-color="#fff642"/><stop offset="1" stop-color="#ffe335"/></linearGradient><linearGradient x1="-118.28632" y1="417.40243" x2="-118.28632" y2="449.21645" gradientUnits="userSpaceOnUse" id="color-42"><stop offset="0" stop-color="#fef23f"/><stop offset="1" stop-color="#ffe537"/></linearGradient><linearGradient x1="77.4641" y1="416.53391" x2="77.4641" y2="448.0876" gradientUnits="userSpaceOnUse" id="color-43"><stop offset="0" stop-color="#fbdcd4"/><stop offset="1" stop-color="#f7cbd0"/></linearGradient><linearGradient x1="55.90021" y1="407.22232" x2="55.90021" y2="436.28947" gradientUnits="userSpaceOnUse" id="color-44"><stop offset="0" stop-color="#fffc45"/><stop offset="1" stop-color="#ffe134"/></linearGradient><linearGradient x1="92.63882" y1="407.14759" x2="92.63882" y2="436.21474" gradientUnits="userSpaceOnUse" id="color-45"><stop offset="0" stop-color="#fffc45"/><stop offset="1" stop-color="#ffe134"/></linearGradient><linearGradient x1="129.37743" y1="407.07285" x2="129.37743" y2="436.13999" gradientUnits="userSpaceOnUse" id="color-46"><stop offset="0" stop-color="#fffc45"/><stop offset="1" stop-color="#ffe134"/></linearGradient><linearGradient x1="83.64949" y1="412.24401" x2="83.64949" y2="442.98832" gradientUnits="userSpaceOnUse" id="color-47"><stop offset="0" stop-color="#fff642"/><stop offset="1" stop-color="#ffe335"/></linearGradient><linearGradient x1="152.65521" y1="417.85327" x2="152.65521" y2="449.56195" gradientUnits="userSpaceOnUse" id="color-48"><stop offset="0" stop-color="#fef23f"/><stop offset="1" stop-color="#ffe537"/></linearGradient><linearGradient x1="-150.95421" y1="251.65839" x2="-150.95421" y2="282.0684" gradientUnits="userSpaceOnUse" id="color-49"><stop offset="0" stop-color="#fffc45"/><stop offset="1" stop-color="#ffe134"/></linearGradient><linearGradient x1="-112.51836" y1="251.58021" x2="-112.51836" y2="281.99022" gradientUnits="userSpaceOnUse" id="color-50"><stop offset="0" stop-color="#fffc45"/><stop offset="1" stop-color="#ffe134"/></linearGradient><linearGradient x1="-74.08248" y1="251.50201" x2="-74.08248" y2="281.91201" gradientUnits="userSpaceOnUse" id="color-51"><stop offset="0" stop-color="#fffc45"/><stop offset="1" stop-color="#ffe134"/></linearGradient><linearGradient x1="-36.57467" y1="251.42385" x2="-36.57467" y2="281.83385" gradientUnits="userSpaceOnUse" id="color-52"><stop offset="0" stop-color="#fffc45"/><stop offset="1" stop-color="#ffe134"/></linearGradient><linearGradient x1="2.32519" y1="251.80966" x2="2.32519" y2="282.21969" gradientUnits="userSpaceOnUse" id="color-53"><stop offset="0" stop-color="#ffe9d8"/><stop offset="1" stop-color="#f7cbd0"/></linearGradient><linearGradient x1="-98.85745" y1="256.91208" x2="-98.85745" y2="289.7819" gradientUnits="userSpaceOnUse" id="color-54"><stop offset="0" stop-color="#fff642"/><stop offset="1" stop-color="#ffe335"/></linearGradient><linearGradient x1="-172.00292" y1="263.12589" x2="-172.00292" y2="294.93991" gradientUnits="userSpaceOnUse" id="color-55"><stop offset="0" stop-color="#fef23f"/><stop offset="1" stop-color="#ffe537"/></linearGradient><linearGradient x1="23.7475" y1="262.25737" x2="23.7475" y2="293.81106" gradientUnits="userSpaceOnUse" id="color-56"><stop offset="0" stop-color="#fbdcd4"/><stop offset="1" stop-color="#f7cbd0"/></linearGradient><linearGradient x1="2.18361" y1="252.94578" x2="2.18361" y2="282.01293" gradientUnits="userSpaceOnUse" id="color-57"><stop offset="0" stop-color="#fffc45"/><stop offset="1" stop-color="#ffe134"/></linearGradient><linearGradient x1="38.92222" y1="252.87105" x2="38.92222" y2="281.9382" gradientUnits="userSpaceOnUse" id="color-58"><stop offset="0" stop-color="#fffc45"/><stop offset="1" stop-color="#ffe134"/></linearGradient><linearGradient x1="75.66083" y1="252.79631" x2="75.66083" y2="281.86345" gradientUnits="userSpaceOnUse" id="color-59"><stop offset="0" stop-color="#fffc45"/><stop offset="1" stop-color="#ffe134"/></linearGradient><linearGradient x1="29.93289" y1="257.96747" x2="29.93289" y2="288.71178" gradientUnits="userSpaceOnUse" id="color-60"><stop offset="0" stop-color="#fff642"/><stop offset="1" stop-color="#ffe335"/></linearGradient><linearGradient x1="98.93861" y1="263.57673" x2="98.93861" y2="295.28541" gradientUnits="userSpaceOnUse" id="color-61"><stop offset="0" stop-color="#fef23f"/><stop offset="1" stop-color="#ffe537"/></linearGradient></defs><g transform="translate(209.74994,14.70779)"><g data-paper-data="{&quot;isPaintingLayer&quot;:true}" fill-rule="nonzero" stroke-linejoin="miter" stroke-miterlimit="10" stroke-dasharray="" stroke-dashoffset="0" style="mix-blend-mode: normal"><path d="M81.70704,388.74214v-123.30327h98.90134v123.30327z" fill="#260068" stroke="none" stroke-width="0" stroke-linecap="butt"/><path d="M81.65879,281.61237v-129.77284h98.29686v129.77285z" fill="#4000af" stroke="none" stroke-width="0" stroke-linecap="butt"/><path d="M-68.97587,465.95031v-248.40336h97.96243v248.40337z" fill="#4000af" stroke="none" stroke-width="0" stroke-linecap="butt"/><path d="M-69.02781,226.6252v-29.26876h97.96243v29.26876z" fill="#4926f1" stroke="none" stroke-width="0" stroke-linecap="butt"/><path d="M-65.43454,197.28508h90.597" data-paper-data="{&quot;index&quot;:null}" fill="none" stroke="#3eb5fa" stroke-width="7" stroke-linecap="round"/><path d="M5.73502,213.98567h-22.4901" fill="none" stroke="#502bff" stroke-width="25" stroke-linecap="round"/><path d="M-61.14525,465.66039h82.57014" data-paper-data="{&quot;index&quot;:null}" fill="none" stroke="#4000af" stroke-width="15" stroke-linecap="round"/><path d="M-43.89452,239.8819h33.71582" data-paper-data="{&quot;index&quot;:null}" fill="none" stroke="#3d00a3" stroke-width="26" stroke-linecap="round"/><path d="M81.45373,465.93746v-89.81649h98.50188v89.8165z" fill="#4000af" stroke="none" stroke-width="0" stroke-linecap="butt"/><path d="M81.60685,153.19888v-29.26876h98.29686v29.26876z" fill="#4926f1" stroke="none" stroke-width="0" stroke-linecap="butt"/><path d="M176.13155,123.85876h-90.93143" data-paper-data="{&quot;index&quot;:null}" fill="none" stroke="#3eb5fa" stroke-width="7" stroke-linecap="round"/><path d="M123.81696,140.21753h32.64513" fill="none" stroke="#502bff" stroke-width="25" stroke-linecap="round"/><path d="M89.28437,465.64754h83.10959" data-paper-data="{&quot;index&quot;:null}" fill="none" stroke="#4000af" stroke-width="15" stroke-linecap="round"/><path d="M109.36582,181.39393h31.72496" data-paper-data="{&quot;index&quot;:null}" fill="none" stroke="#3d00a3" stroke-width="26" stroke-linecap="round"/><g data-paper-data="{&quot;index&quot;:null}"><g data-paper-data="{&quot;origPos&quot;:null}"><g data-paper-data="{&quot;origPos&quot;:null}"><g data-paper-data="{&quot;origPos&quot;:null}" stroke="none" stroke-width="0" stroke-linecap="butt"><path d="M354.04297,228.16806h59v73.44925c-10.87634,-0.17022 -53.12203,-7.40402 -58.99999,-7.16548z" data-paper-data="{&quot;origPos&quot;:null}" fill="#95153c"/><path d="M401.47963,229.62065l11.74843,-1.01121c0,0 0,36.33432 0,58.94292c0,1.73762 0,16.54412 0,18.40116c-3.86637,-0.05994 -7.74312,-12.47158 -11.61887,-12.51393z" data-paper-data="{&quot;origPos&quot;:null}" fill="#88143c"/><path d="M353.72804,228.60306h11.74843l-0.13379,65.21202c-3.80624,0.26689 -7.69732,0.49432 -11.61464,0.64938z" data-paper-data="{&quot;origPos&quot;:null}" fill="#88143c"/><path d="M365.53049,240.66326v-12.46863h35.7453v12.46863z" data-paper-data="{&quot;origPos&quot;:null}" fill="#830e37"/><path d="M401.27424,240.91606v-12.71984h12.00157v12.71984z" data-paper-data="{&quot;origPos&quot;:null}" fill="#7a1039"/><path d="M353.92202,240.66166v-12.21105h11.7547v12.21105z" data-paper-data="{&quot;origPos&quot;:null}" fill="#7a1039"/></g><g data-paper-data="{&quot;origPos&quot;:null}"><path d="M320.98779,157.56511c0,-34.6643 28.10098,-62.76528 62.76528,-62.76528c34.66431,0 62.76528,28.10098 62.76528,62.76528c0,34.66431 -28.10097,62.76528 -62.76528,62.76528c-34.6643,0 -62.76528,-28.10097 -62.76528,-62.76528z" data-paper-data="{&quot;origPos&quot;:null}" fill="url(#color-1)" stroke="none" stroke-width="0" stroke-linecap="butt"/><path d="M438.34978,130.06835h-109.90225" data-paper-data="{&quot;origPos&quot;:null}" fill="none" stroke="#ffde3d" stroke-width="28" stroke-linecap="round"/><path d="M438.02811,205.92202h-109.90225" data-paper-data="{&quot;origPos&quot;:null}" fill="none" stroke="#fd7323" stroke-width="47" stroke-linecap="round"/><path d="M401.64563,151.01223v-11.59518" data-paper-data="{&quot;origPos&quot;:null}" fill="none" stroke="#ffde3d" stroke-width="9" stroke-linecap="round"/><path d="M425.00074,238.33876v-17.64485" data-paper-data="{&quot;origPos&quot;:null}" fill="none" stroke="#fd7323" stroke-width="9" stroke-linecap="round"/><path d="M366.63731,226.15445c0.14405,0.94167 0.19372,1.91229 0.13945,2.90125c-0.42396,7.72771 -7.03219,13.64856 -14.7599,13.2246c-7.72771,-0.42396 -13.64856,-7.03219 -13.2246,-14.7599c0.02587,-0.47149 0.07476,-0.93627 0.14552,-1.39327" data-paper-data="{&quot;origPos&quot;:null,&quot;origRot&quot;:0}" fill="none" stroke="#fd7323" stroke-width="9" stroke-linecap="butt"/></g></g><path d="M396.10799,257.53155v40.01243" data-paper-data="{&quot;origPos&quot;:null}" fill="none" stroke="#ac2841" stroke-width="10" stroke-linecap="round"/></g><path d="M370.48997,262.47122v-10.02648" data-paper-data="{&quot;origPos&quot;:null}" fill="none" stroke="#ac2841" stroke-width="10" stroke-linecap="round"/></g><g><path d="M324.79862,311.37544c0,12.24786 -27.05558,4.43534 -27.05558,4.43534c0,0 -20.84611,7.81253 -20.84611,-4.43534c0,-12.24786 10.72316,-22.17671 23.95085,-22.17671c13.22768,0 23.95085,9.92885 23.95085,22.17671z" fill="url(#color-2)" stroke="none" stroke-width="NaN" stroke-linecap="butt"/><g><path d="M470.00046,311.58263c0,12.24786 -27.05558,4.43533 -27.05558,4.43533c0,0 -20.84611,7.81253 -20.84611,-4.43533c0,-12.24786 10.72315,-22.17671 23.95085,-22.17671c13.22768,0 23.95085,9.92885 23.95085,22.17671z" fill="url(#color-3)" stroke="none" stroke-width="NaN" stroke-linecap="butt"/><path d="M359.82027,310.60988c0,12.24786 -27.05558,4.43534 -27.05558,4.43534c0,0 -20.84611,7.81253 -20.84611,-4.43534c0,-12.24786 10.72316,-22.17671 23.95085,-22.17671c13.22768,0 23.95085,9.92885 23.95085,22.17671z" fill="url(#color-4)" stroke="none" stroke-width="NaN" stroke-linecap="butt"/><path d="M396.55886,311.3007c0,12.24786 -27.05558,4.43534 -27.05558,4.43534c0,0 -20.84611,7.81253 -20.84611,-4.43534c0,-12.24786 10.72315,-22.17671 23.95085,-22.17671c13.22768,0 23.95085,9.92885 23.95085,22.17671z" fill="url(#color-5)" stroke="none" stroke-width="NaN" stroke-linecap="butt"/><path d="M433.83314,311.22597c0,12.24786 -27.05558,4.43533 -27.05558,4.43533c0,0 -20.84611,7.81253 -20.84611,-4.43533c0,-12.24786 10.72315,-22.17671 23.95085,-22.17671c13.22768,0 23.95085,9.92885 23.95085,22.17671z" fill="url(#color-6)" stroke="none" stroke-width="NaN" stroke-linecap="butt"/><path d="M295.11798,315.73999c0,8.32855 -9.25434,16.4396 -17.82784,16.4396c-8.5735,0 -13.21955,-8.11106 -13.21955,-16.4396c0,-8.32855 6.9502,-15.08016 15.5237,-15.08016c8.5735,0 15.5237,6.75161 15.5237,15.08016z" fill="url(#color-7)" stroke="none" stroke-width="0" stroke-linecap="butt"/><path d="M481.93683,314.90984c0,8.32855 -4.653,16.62852 -13.2265,16.62852c-8.5735,0 -17.8209,-8.29997 -17.8209,-16.62852c0,-5.66446 1.89289,-9.10116 6.55884,-12.31285c3.06243,-2.10796 5.24708,-2.76731 8.96486,-2.76731c8.5735,0 15.5237,6.75162 15.5237,15.08016z" fill="url(#color-8)" stroke="none" stroke-width="0" stroke-linecap="butt"/><path d="M277.23405,327.36767l7.82614,-31.68702l168.21899,-0.21287c0,0 3.52579,8.43051 5.51725,13.19231c2.3513,5.6222 7.69118,18.39037 7.69118,18.39037z" fill="url(#color-9)" stroke="none" stroke-width="0" stroke-linecap="butt"/><path d="M453.73731,324.50418c4.49921,2.53063 -11.64155,3.31201 -19.47867,3.31201c-7.83713,0 -14.74844,5.59214 -14.74844,-0.28571c0,-0.3259 -6.74029,-3.09679 -6.44485,-3.23435c2.99165,-1.39289 5.67713,-1.54472 7.80643,-2.82298c4.68556,-2.81281 7.96956,-2.71514 12.8288,-2.71514c0,0 5.05677,-0.65893 9.67257,2.34864c3.43195,1.91012 5.19549,1.76922 10.36417,3.39752z" fill="#ffd426" stroke="none" stroke-width="0" stroke-linecap="butt"/><path d="M275.61627,328.35793c0,0 186.95622,0 192.97098,0" fill="#ffd426" stroke="#ffd426" stroke-width="10" stroke-linecap="round"/><path d="M373.76946,324.71565c4.49921,2.53063 -11.64155,3.31201 -19.47868,3.31201c-7.83713,0 -14.74843,5.59214 -14.74843,-0.28571c0,-0.3259 -6.74029,-3.09679 -6.44485,-3.23435c2.99165,-1.39289 5.67713,-1.54472 7.80643,-2.82298c4.68556,-2.81281 7.96956,-2.71514 12.8288,-2.71514c0,0 5.05677,-0.65893 9.67257,2.34864c3.43195,1.91012 5.19549,1.76923 10.36417,3.39753z" fill="#ffd426" stroke="none" stroke-width="0" stroke-linecap="butt"/><path d="M412.02284,324.50415c4.49921,2.53063 -11.64155,3.31201 -19.47867,3.31201c-7.83713,0 -14.74844,5.59214 -14.74844,-0.28571c0,-0.3259 -6.74029,-3.09679 -6.44485,-3.23435c2.99165,-1.39289 5.67713,-1.54472 7.80643,-2.82298c4.68556,-2.81281 7.96956,-2.71514 12.8288,-2.71514c0,0 5.05677,-0.65893 9.67257,2.34864c3.43195,1.91012 5.19549,1.76922 10.36417,3.39752z" fill="#ffd426" stroke="none" stroke-width="0" stroke-linecap="butt"/></g><path d="M332.6726,324.71565c4.49921,2.53063 -11.64155,3.31201 -19.47868,3.31201c-7.83713,0 -14.74843,5.59214 -14.74843,-0.28571c0,-0.3259 -6.74029,-3.09679 -6.44485,-3.23435c2.99165,-1.39289 5.67713,-1.54472 7.80643,-2.82298c4.68556,-2.81281 7.96956,-2.71514 12.8288,-2.71514c0,0 5.05677,-0.65893 9.67257,2.34864c3.43195,1.91012 5.19549,1.76923 10.36417,3.39753z" fill="#ffd426" stroke="none" stroke-width="0" stroke-linecap="butt"/></g><path d="M-209.74994,483.10951v-497.8173h806.79184v497.8173z" fill="none" stroke="none" stroke-width="NaN" stroke-linecap="butt"/><g><path d="M567.69331,348.31816c0,12.24786 -27.05558,4.43533 -27.05558,4.43533c0,0 -20.84611,7.81253 -20.84611,-4.43533c0,-12.24786 10.72315,-22.17671 23.95085,-22.17671c13.22768,0 23.95085,9.92885 23.95085,22.17671z" fill="url(#color-10)" stroke="none" stroke-width="NaN" stroke-linecap="butt"/><path d="M457.51313,348.11096c0,12.24786 -27.05558,4.43534 -27.05558,4.43534c0,0 -20.84611,7.81253 -20.84611,-4.43534c0,-12.24786 10.72316,-22.17671 23.95085,-22.17671c13.22768,0 23.95085,9.92885 23.95085,22.17671z" fill="url(#color-11)" stroke="none" stroke-width="NaN" stroke-linecap="butt"/><path d="M494.25172,348.03623c0,12.24786 -27.05558,4.43534 -27.05558,4.43534c0,0 -20.84611,7.81253 -20.84611,-4.43534c0,-12.24786 10.72315,-22.17671 23.95085,-22.17671c13.22768,0 23.95085,9.92885 23.95085,22.17671z" fill="url(#color-12)" stroke="none" stroke-width="NaN" stroke-linecap="butt"/><path d="M531.52598,347.9615c0,12.24786 -27.05558,4.43533 -27.05558,4.43533c0,0 -20.84611,7.81253 -20.84611,-4.43533c0,-12.24786 10.72315,-22.17671 23.95085,-22.17671c13.22768,0 23.95085,9.92885 23.95085,22.17671z" fill="url(#color-13)" stroke="none" stroke-width="NaN" stroke-linecap="butt"/><path d="M426.76041,352.47552c0,8.32855 -9.25434,16.4396 -17.82784,16.4396c-8.5735,0 -13.21955,-8.11106 -13.21955,-16.4396c0,-8.32855 6.9502,-15.08016 15.5237,-15.08016c8.5735,0 15.5237,6.75161 15.5237,15.08016z" fill="url(#color-14)" stroke="none" stroke-width="0" stroke-linecap="butt"/><path d="M579.62965,351.64537c0,8.32855 -4.653,16.62852 -13.2265,16.62852c-8.5735,0 -17.8209,-8.29997 -17.8209,-16.62852c0,-5.66446 1.89289,-9.10116 6.55884,-12.31285c3.06243,-2.10796 5.24708,-2.76731 8.96486,-2.76731c8.5735,0 15.5237,6.75162 15.5237,15.08016z" fill="url(#color-15)" stroke="none" stroke-width="0" stroke-linecap="butt"/><path d="M405.66022,362.67374l14.25869,-30.25757l130.33844,-0.21287c0,0 3.52579,8.43051 5.51725,13.19231c2.3513,5.6222 7.69118,18.39037 7.69118,18.39037z" fill="url(#color-16)" stroke="none" stroke-width="0" stroke-linecap="butt"/><path d="M551.43016,361.23971c4.49921,2.53063 -11.64155,3.31201 -19.47867,3.31201c-7.83713,0 -14.74844,5.59214 -14.74844,-0.28571c0,-0.3259 -6.74029,-3.09679 -6.44485,-3.23435c2.99165,-1.39289 5.67713,-1.54472 7.80643,-2.82298c4.68556,-2.81281 7.96956,-2.71514 12.8288,-2.71514c0,0 5.05677,-0.65893 9.67257,2.34864c3.43195,1.91012 5.19549,1.76922 10.36417,3.39752z" fill="#ffd426" stroke="none" stroke-width="0" stroke-linecap="butt"/><path d="M566.28009,365.09346c-6.01476,0 -161.16562,0 -161.16562,0" fill="#ffd426" stroke="#ffd426" stroke-width="10" stroke-linecap="round"/><path d="M472.53441,361.45118c4.49921,2.53063 -11.64155,3.31201 -19.47868,3.31201c-7.83713,0 -14.74843,5.59214 -14.74843,-0.28571c0,-0.3259 -6.74029,-3.09679 -6.44485,-3.23435c2.99165,-1.39289 5.67713,-1.54472 7.80643,-2.82298c4.68556,-2.81281 7.96956,-2.71514 12.8288,-2.71514c0,0 5.05677,-0.65893 9.67257,2.34864c3.43195,1.91012 5.19549,1.76923 10.36417,3.39753z" fill="#ffd426" stroke="none" stroke-width="0" stroke-linecap="butt"/><path d="M509.7157,361.23968c4.49921,2.53063 -11.64155,3.31201 -19.47867,3.31201c-7.83713,0 -14.74844,5.59214 -14.74844,-0.28571c0,-0.3259 -6.74029,-3.09679 -6.44485,-3.23435c2.99165,-1.39289 5.67713,-1.54472 7.80643,-2.82298c4.68556,-2.81281 7.96956,-2.71514 12.8288,-2.71514c0,0 5.05677,-0.65893 9.67257,2.34864c3.43195,1.91012 5.19549,1.76922 10.36417,3.39752z" fill="#ffd426" stroke="none" stroke-width="0" stroke-linecap="butt"/></g><g><path d="M268.39439,239.38011c0,12.24786 -27.05558,4.43533 -27.05558,4.43533c0,0 -20.84611,7.81253 -20.84611,-4.43533c0,-12.24786 10.72315,-22.17671 23.95085,-22.17671c13.22768,0 23.95085,9.92885 23.95085,22.17671z" fill="url(#color-17)" stroke="none" stroke-width="NaN" stroke-linecap="butt"/><path d="M158.21419,239.17291c0,12.24786 -27.05558,4.43534 -27.05558,4.43534c0,0 -20.84611,7.81253 -20.84611,-4.43534c0,-12.24786 10.72316,-22.17671 23.95085,-22.17671c13.22768,0 23.95085,9.92885 23.95085,22.17671z" fill="url(#color-18)" stroke="none" stroke-width="NaN" stroke-linecap="butt"/><path d="M194.95281,238.61963c0,12.24786 -27.05558,4.43534 -27.05558,4.43534c0,0 -20.84611,7.81253 -20.84611,-4.43534c0,-12.24786 10.72315,-22.17671 23.95085,-22.17671c13.22768,0 23.95085,9.92885 23.95085,22.17671z" fill="url(#color-19)" stroke="none" stroke-width="NaN" stroke-linecap="butt"/><path d="M232.22708,238.5449c0,12.24786 -27.05558,4.43533 -27.05558,4.43533c0,0 -20.84611,7.81253 -20.84611,-4.43533c0,-12.24786 10.72315,-22.17671 23.95085,-22.17671c13.22768,0 23.95085,9.92885 23.95085,22.17671z" fill="url(#color-20)" stroke="none" stroke-width="NaN" stroke-linecap="butt"/><path d="M127.4615,243.53747c0,8.32855 -9.25434,16.4396 -17.82784,16.4396c-8.5735,0 -13.21955,-8.11106 -13.21955,-16.4396c0,-8.32855 6.9502,-15.08016 15.5237,-15.08016c8.5735,0 15.5237,6.75161 15.5237,15.08016z" fill="url(#color-21)" stroke="none" stroke-width="0" stroke-linecap="butt"/><path d="M280.33077,242.70732c0,8.32855 -4.653,16.62852 -13.2265,16.62852c-8.5735,0 -17.8209,-8.29997 -17.8209,-16.62852c0,-5.66446 1.89289,-9.10116 6.55884,-12.31285c3.06243,-2.10796 5.24708,-2.76731 8.96486,-2.76731c8.5735,0 15.5237,6.75162 15.5237,15.08016z" fill="url(#color-22)" stroke="none" stroke-width="0" stroke-linecap="butt"/><path d="M106.36128,253.73569l14.25869,-30.25757l130.33844,-0.21287c0,0 3.52579,8.43051 5.51725,13.19231c2.3513,5.6222 7.69118,18.39037 7.69118,18.39037z" fill="url(#color-23)" stroke="none" stroke-width="0" stroke-linecap="butt"/><path d="M252.13126,252.30166c4.49921,2.53063 -11.64155,3.31201 -19.47867,3.31201c-7.83713,0 -14.74844,5.59214 -14.74844,-0.28571c0,-0.3259 -6.74029,-3.09679 -6.44485,-3.23435c2.99165,-1.39289 5.67713,-1.54472 7.80643,-2.82298c4.68556,-2.81281 7.96956,-2.71514 12.8288,-2.71514c0,0 5.05677,-0.65893 9.67257,2.34864c3.43195,1.91012 5.19549,1.76922 10.36417,3.39752z" fill="#ffd426" stroke="none" stroke-width="0" stroke-linecap="butt"/><path d="M105.81555,256.15541c0,0 155.15086,0 161.16562,0" fill="#ffd426" stroke="#ffd426" stroke-width="10" stroke-linecap="round"/><path d="M173.23549,252.51313c4.49921,2.53063 -11.64155,3.31201 -19.47868,3.31201c-7.83713,0 -14.74843,5.59214 -14.74843,-0.28571c0,-0.3259 -6.74029,-3.09679 -6.44485,-3.23435c2.99165,-1.39289 5.67713,-1.54472 7.80643,-2.82298c4.68556,-2.81281 7.96956,-2.71514 12.8288,-2.71514c0,0 5.05677,-0.65893 9.67257,2.34864c3.43195,1.91012 5.19549,1.76923 10.36417,3.39753z" fill="#ffd426" stroke="none" stroke-width="0" stroke-linecap="butt"/><path d="M210.41679,252.30163c4.49921,2.53063 -11.64155,3.31201 -19.47867,3.31201c-7.83713,0 -14.74844,5.59214 -14.74844,-0.28571c0,-0.3259 -6.74029,-3.09679 -6.44485,-3.23435c2.99165,-1.39289 5.67713,-1.54472 7.80643,-2.82298c4.68556,-2.81281 7.96956,-2.71514 12.8288,-2.71514c0,0 5.05677,-0.65893 9.67257,2.34864c3.43195,1.91012 5.19549,1.76922 10.36417,3.39752z" fill="#ffd426" stroke="none" stroke-width="0" stroke-linecap="butt"/></g><g><path d="M184.85271,387.82636c0,12.24786 -27.05558,4.43534 -27.05558,4.43534c0,0 -20.84611,7.81253 -20.84611,-4.43534c0,-12.24786 10.72316,-22.17671 23.95085,-22.17671c13.22768,0 23.95085,9.92885 23.95085,22.17671z" fill="url(#color-24)" stroke="none" stroke-width="NaN" stroke-linecap="butt"/><path d="M221.59132,387.75163c0,12.24786 -27.05558,4.43534 -27.05558,4.43534c0,0 -20.84611,7.81253 -20.84611,-4.43534c0,-12.24786 10.72315,-22.17671 23.95085,-22.17671c13.22768,0 23.95085,9.92885 23.95085,22.17671z" fill="url(#color-25)" stroke="none" stroke-width="NaN" stroke-linecap="butt"/><path d="M154.10001,392.19092c0,8.32855 -9.25434,16.4396 -17.82784,16.4396c-8.5735,0 -13.21955,-8.11106 -13.21955,-16.4396c0,-8.32855 6.9502,-15.08016 15.5237,-15.08016c8.5735,0 15.5237,6.75161 15.5237,15.08016z" fill="url(#color-26)" stroke="none" stroke-width="0" stroke-linecap="butt"/><path d="M235.03116,391.36077c0,8.32855 -4.653,16.62852 -13.2265,16.62852c-8.5735,0 -17.8209,-8.29997 -17.8209,-16.62852c0,-5.66446 1.89289,-9.10116 6.55884,-12.31285c3.06243,-2.10796 5.24708,-2.76731 8.96486,-2.76731c8.5735,0 15.5237,6.75162 15.5237,15.08016z" fill="url(#color-27)" stroke="none" stroke-width="0" stroke-linecap="butt"/><path d="M132.99975,402.38914l14.25869,-30.25757l65.17708,-0.21287l13.20843,31.58268z" fill="url(#color-28)" stroke="none" stroke-width="0" stroke-linecap="butt"/><path d="M222.20283,404.80886h-89.74876" fill="#ffd426" stroke="#ffd426" stroke-width="10" stroke-linecap="round"/><path d="M199.87401,401.16658c4.49921,2.53063 -11.64155,3.31201 -19.47868,3.31201c-7.83713,0 -14.74843,5.59214 -14.74843,-0.28571c0,-0.3259 -6.74029,-3.09679 -6.44485,-3.23435c2.99165,-1.39289 5.67713,-1.54472 7.80643,-2.82298c4.68556,-2.81281 7.96956,-2.71514 12.8288,-2.71514c0,0 5.05677,-0.65893 9.67257,2.34864c3.43195,1.91012 5.19549,1.76923 10.36417,3.39753z" fill="#ffd426" stroke="none" stroke-width="0" stroke-linecap="butt"/></g><g><path d="M-22.14496,391.16684c0,12.24786 -27.05558,4.43533 -27.05558,4.43533c0,0 -20.84611,7.81253 -20.84611,-4.43533c0,-12.24786 10.72315,-22.17671 23.95085,-22.17671c13.22768,0 23.95085,9.92885 23.95085,22.17671z" fill="url(#color-29)" stroke="none" stroke-width="NaN" stroke-linecap="butt"/><path d="M-132.32516,390.95964c0,12.24786 -27.05558,4.43534 -27.05558,4.43534c0,0 -20.84611,7.81253 -20.84611,-4.43534c0,-12.24786 10.72316,-22.17671 23.95085,-22.17671c13.22768,0 23.95085,9.92885 23.95085,22.17671z" fill="url(#color-30)" stroke="none" stroke-width="NaN" stroke-linecap="butt"/><path d="M-95.58654,390.40636c0,12.24786 -27.05558,4.43534 -27.05558,4.43534c0,0 -20.84611,7.81253 -20.84611,-4.43534c0,-12.24786 10.72315,-22.17671 23.95085,-22.17671c13.22768,0 23.95085,9.92885 23.95085,22.17671z" fill="url(#color-31)" stroke="none" stroke-width="NaN" stroke-linecap="butt"/><path d="M-58.31227,390.33163c0,12.24786 -27.05558,4.43533 -27.05558,4.43533c0,0 -20.84611,7.81253 -20.84611,-4.43533c0,-12.24786 10.72315,-22.17671 23.95085,-22.17671c13.22768,0 23.95085,9.92885 23.95085,22.17671z" fill="url(#color-32)" stroke="none" stroke-width="NaN" stroke-linecap="butt"/><path d="M-163.07785,395.3242c0,8.32855 -9.25434,16.4396 -17.82784,16.4396c-8.5735,0 -13.21955,-8.11106 -13.21955,-16.4396c0,-8.32855 6.9502,-15.08016 15.5237,-15.08016c8.5735,0 15.5237,6.75161 15.5237,15.08016z" fill="url(#color-33)" stroke="none" stroke-width="0" stroke-linecap="butt"/><path d="M-10.20858,394.49405c0,8.32855 -4.653,16.62852 -13.2265,16.62852c-8.5735,0 -17.8209,-8.29997 -17.8209,-16.62852c0,-5.66446 1.89289,-9.10116 6.55884,-12.31285c3.06243,-2.10796 5.24708,-2.76731 8.96486,-2.76731c8.5735,0 15.5237,6.75162 15.5237,15.08016z" fill="url(#color-34)" stroke="none" stroke-width="0" stroke-linecap="butt"/><path d="M-184.17807,405.52242l14.25869,-30.25757l130.33844,-0.21287c0,0 3.52579,8.43051 5.51725,13.19231c2.3513,5.6222 7.69118,18.39037 7.69118,18.39037z" fill="url(#color-35)" stroke="none" stroke-width="0" stroke-linecap="butt"/><path d="M-38.40809,404.08839c4.49921,2.53063 -11.64155,3.31201 -19.47867,3.31201c-7.83713,0 -14.74844,5.59214 -14.74844,-0.28571c0,-0.3259 -6.74029,-3.09679 -6.44485,-3.23435c2.99165,-1.39289 5.67713,-1.54472 7.80643,-2.82298c4.68556,-2.81281 7.96956,-2.71514 12.8288,-2.71514c0,0 5.05677,-0.65893 9.67257,2.34864c3.43195,1.91012 5.19549,1.76922 10.36417,3.39752z" fill="#ffd426" stroke="none" stroke-width="0" stroke-linecap="butt"/><path d="M-184.7238,407.94214c0,0 155.15086,0 161.16562,0" fill="#ffd426" stroke="#ffd426" stroke-width="10" stroke-linecap="round"/><path d="M-117.30386,404.29986c4.49921,2.53063 -11.64155,3.31201 -19.47868,3.31201c-7.83713,0 -14.74843,5.59214 -14.74843,-0.28571c0,-0.3259 -6.74029,-3.09679 -6.44485,-3.23435c2.99165,-1.39289 5.67713,-1.54472 7.80643,-2.82298c4.68556,-2.81281 7.96956,-2.71514 12.8288,-2.71514c0,0 5.05677,-0.65893 9.67257,2.34864c3.43195,1.91012 5.19549,1.76923 10.36417,3.39753z" fill="#ffd426" stroke="none" stroke-width="0" stroke-linecap="butt"/><path d="M-80.12256,404.08836c4.49921,2.53063 -11.64155,3.31201 -19.47867,3.31201c-7.83713,0 -14.74844,5.59214 -14.74844,-0.28571c0,-0.3259 -6.74029,-3.09679 -6.44485,-3.23435c2.99165,-1.39289 5.67713,-1.54472 7.80643,-2.82298c4.68556,-2.81281 7.96956,-2.71514 12.8288,-2.71514c0,0 5.05677,-0.65893 9.67257,2.34864c3.43195,1.91012 5.19549,1.76922 10.36417,3.39752z" fill="#ffd426" stroke="none" stroke-width="0" stroke-linecap="butt"/></g><g><g><g data-paper-data="{&quot;origPos&quot;:null}" stroke="none" stroke-linecap="butt"><path d="M-72.18028,429.13617c0,12.81369 -28.3055,4.64025 -28.3055,4.64025c0,0 -21.80916,8.17345 -21.80916,-4.64025c0,-12.81369 11.21855,-23.20124 25.05733,-23.20124c13.83878,0 25.05733,10.38755 25.05733,23.20124z" data-paper-data="{&quot;origPos&quot;:null}" fill="url(#color-36)" stroke-width="NaN"/><path d="M-33.74443,429.05799c0,12.81369 -28.3055,4.64025 -28.3055,4.64025c0,0 -21.80916,8.17345 -21.80916,-4.64025c0,-12.81369 11.21854,-23.20124 25.05733,-23.20124c13.83878,0 25.05733,10.38755 25.05733,23.20124z" data-paper-data="{&quot;origPos&quot;:null}" fill="url(#color-37)" stroke-width="NaN"/><path d="M4.69143,428.97979c0,12.81369 -28.3055,4.64024 -28.3055,4.64024c0,0 -21.80916,8.17345 -21.80916,-4.64024c0,-12.81369 11.21854,-23.20124 25.05733,-23.20124c13.83878,0 25.05733,10.38755 25.05733,23.20124z" data-paper-data="{&quot;origPos&quot;:null}" fill="url(#color-38)" stroke-width="NaN"/><path d="M42.19925,428.90163c0,12.81369 -28.3055,4.64024 -28.3055,4.64024c0,0 -21.80916,8.17345 -21.80916,-4.64024c0,-12.81369 11.21855,-23.20124 25.05733,-23.20124c13.83878,0 25.05733,10.38755 25.05733,23.20124z" data-paper-data="{&quot;origPos&quot;:null}" fill="url(#color-39)" stroke-width="NaN"/><path d="M81.09915,429.28747c0,12.81369 -28.3055,4.64025 -28.3055,4.64025c0,0 -21.80916,8.17345 -21.80916,-4.64025c0,-12.81369 11.21854,-23.20124 25.05733,-23.20124c13.83878,0 25.05733,10.38755 25.05733,23.20124z" data-paper-data="{&quot;origPos&quot;:null}" fill="url(#color-40)" stroke-width="NaN"/><path d="M-120.51852,444.05844l7.75699,-31.45946l180.49828,-1.41036v32.16464z" data-paper-data="{&quot;origPos&quot;:null}" fill="url(#color-41)" stroke-width="0"/><path d="M-102.04547,433.17927c0,8.71332 -10.03162,16.03718 -19.00121,16.03718c-8.96958,0 -13.48052,-7.32387 -13.48052,-16.03718c0,-8.71332 7.27128,-15.77684 16.24087,-15.77684c8.96958,0 16.24087,7.06352 16.24087,15.77684z" fill="url(#color-42)" stroke-width="0"/><path d="M93.70496,432.31076c0,8.71332 -5.44891,17.83887 -14.4185,17.83887c-8.96958,0 -18.06324,-9.12556 -18.06324,-17.83887c0,-8.71332 7.27127,-15.77684 16.24087,-15.77684c8.96958,0 16.24087,7.06353 16.24087,15.77684z" data-paper-data="{&quot;origPos&quot;:null}" fill="url(#color-43)" stroke-width="0"/></g><path d="M78.01892,446.77609c0,0 -50.9832,0 -85.21518,0c-62.77023,0 -118.2303,0 -118.2303,0" data-paper-data="{&quot;origPos&quot;:null}" fill="#ffc3d5" stroke="#ffd426" stroke-width="9" stroke-linecap="round"/><path d="M-56.465,442.59112c4.70706,2.64754 -12.17937,3.46502 -20.37856,3.46502c-8.19919,0 -15.42978,5.85048 -15.42978,-0.29891c0,-0.34096 -7.05168,-3.23986 -6.74259,-3.38377c3.12986,-1.45724 5.9394,-1.61608 8.16707,-2.95339c4.90203,-2.94276 8.33774,-2.84057 13.42146,-2.84057c0,0 5.29038,-0.68937 10.11942,2.45714c3.5905,1.99836 5.43552,1.85096 10.84298,3.55449z" data-paper-data="{&quot;origPos&quot;:null}" fill="#ffd426" stroke="none" stroke-width="0" stroke-linecap="butt"/><path d="M-17.5661,442.36985c4.70706,2.64754 -12.17937,3.46502 -20.37855,3.46502c-8.19919,0 -15.42979,5.85048 -15.42979,-0.29891c0,-0.34096 -7.05168,-3.23986 -6.74259,-3.38377c3.12986,-1.45724 5.9394,-1.61608 8.16707,-2.95339c4.90203,-2.94276 8.33774,-2.84057 13.42146,-2.84057c0,0 5.29038,-0.68937 10.11942,2.45714c3.5905,1.99836 5.43552,1.85095 10.84298,3.55448z" data-paper-data="{&quot;origPos&quot;:null}" fill="#ffd426" stroke="none" stroke-width="0" stroke-linecap="butt"/><path d="M18.011,442.59112c4.70706,2.64754 -12.17937,3.46502 -20.37855,3.46502c-8.19919,0 -15.42978,5.85048 -15.42978,-0.29891c0,-0.34096 -7.0517,-3.23986 -6.7426,-3.38377c3.12986,-1.45724 5.9394,-1.61608 8.16707,-2.95339c4.90203,-2.94276 8.33774,-2.84057 13.42146,-2.84057c0,0 5.29038,-0.68937 10.11942,2.45714c3.5905,1.99836 5.43552,1.85096 10.84298,3.55449z" data-paper-data="{&quot;origPos&quot;:null}" fill="#ffd426" stroke="none" stroke-width="0" stroke-linecap="butt"/><path d="M56.40012,442.36985c4.70706,2.64754 -12.17937,3.46502 -20.37856,3.46502c-8.19919,0 -15.42978,5.85048 -15.42978,-0.29891c0,-0.34096 -7.05168,-3.23986 -6.74259,-3.38377c3.12986,-1.45724 5.9394,-1.61608 8.16707,-2.95339c4.90203,-2.94276 8.33774,-2.84057 13.42146,-2.84057c0,0 5.29038,-0.68937 10.11942,2.45714c3.5905,1.99836 5.43552,1.85095 10.84298,3.55448z" data-paper-data="{&quot;origPos&quot;:null}" fill="#ffc3d5" stroke="none" stroke-width="0" stroke-linecap="butt"/></g><g data-paper-data="{&quot;origPos&quot;:null}"><g data-paper-data="{&quot;origPos&quot;:null}" stroke="none" stroke-linecap="butt"><path d="M79.85103,429.39903c0,12.24786 -27.05558,4.43534 -27.05558,4.43534c0,0 -20.84611,7.81253 -20.84611,-4.43534c0,-12.24786 10.72316,-22.17671 23.95085,-22.17671c13.22768,0 23.95085,9.92885 23.95085,22.17671z" data-paper-data="{&quot;origPos&quot;:null}" fill="url(#color-44)" stroke-width="NaN"/><path d="M116.58965,429.3243c0,12.24786 -27.05558,4.43534 -27.05558,4.43534c0,0 -20.84611,7.81253 -20.84611,-4.43534c0,-12.24786 10.72315,-22.17671 23.95085,-22.17671c13.22768,0 23.95085,9.92885 23.95085,22.17671z" data-paper-data="{&quot;origPos&quot;:null}" fill="url(#color-45)" stroke-width="NaN"/><path d="M153.32826,429.24956c0,12.24786 -27.05558,4.43533 -27.05558,4.43533c0,0 -20.84611,7.81253 -20.84611,-4.43533c0,-12.24786 10.72315,-22.17671 23.95085,-22.17671c13.22768,0 23.95085,9.92885 23.95085,22.17671z" data-paper-data="{&quot;origPos&quot;:null}" fill="url(#color-46)" stroke-width="NaN"/><path d="M13.09601,440.9618l-6.57199,-27.25757l134.02408,-1.46022l20.22687,30.74431z" data-paper-data="{&quot;origPos&quot;:null}" fill="url(#color-47)" stroke-width="0"/><path d="M168.17895,432.93343c0,8.32855 -4.653,16.62852 -13.2265,16.62852c-8.5735,0 -17.8209,-8.29997 -17.8209,-16.62852c0,-5.66446 1.89289,-9.10116 6.55884,-12.31285c3.06243,-2.10796 5.24708,-2.76731 8.96486,-2.76731c8.5735,0 15.5237,6.75162 15.5237,15.08016z" data-paper-data="{&quot;origPos&quot;:null}" fill="url(#color-48)" stroke-width="0"/></g><path d="M-6.63113,446.38154c0,0 70.9387,0 119.85778,0c15.5848,0 33.91934,0 39.9341,0c2.00492,0 3.47146,0 3.47146,0" data-paper-data="{&quot;origPos&quot;:null}" fill="#ffc3d5" stroke="#ffd426" stroke-width="10" stroke-linecap="round"/><path d="M58.95982,442.58776c4.49921,2.53063 -11.64155,3.31201 -19.47868,3.31201c-7.83713,0 -14.74843,5.59214 -14.74843,-0.28571c0,-0.3259 -6.74031,-3.09679 -6.44486,-3.23435c2.99165,-1.39289 5.67713,-1.54472 7.80644,-2.82298c4.68556,-2.81281 7.96956,-2.71514 12.8288,-2.71514c0,0 5.05677,-0.65893 9.67257,2.34864c3.43195,1.91012 5.19549,1.76923 10.36417,3.39753z" data-paper-data="{&quot;origPos&quot;:null}" fill="#ffd426" stroke="none" stroke-width="0" stroke-linecap="butt"/><path d="M94.87234,442.25983c4.49921,2.53063 -11.64155,3.31201 -19.47868,3.31201c-7.83713,0 -14.74843,5.59214 -14.74843,-0.28571c0,-0.3259 -6.74029,-3.09679 -6.44485,-3.23435c2.99165,-1.39289 5.67713,-1.54472 7.80643,-2.82298c4.68556,-2.81281 7.96956,-2.71514 12.8288,-2.71514c0,0 5.05677,-0.65893 9.67257,2.34864c3.43195,1.91012 5.19549,1.76923 10.36417,3.39753z" data-paper-data="{&quot;origPos&quot;:null}" fill="#ffd426" stroke="none" stroke-width="0" stroke-linecap="butt"/><path d="M132.05363,442.04834c4.49921,2.53063 -11.64155,3.31201 -19.47867,3.31201c-7.83713,0 -14.74844,5.59214 -14.74844,-0.28571c0,-0.3259 -6.74029,-3.09679 -6.44485,-3.23435c2.99165,-1.39289 5.67713,-1.54472 7.80643,-2.82298c4.68556,-2.81281 7.96956,-2.71514 12.8288,-2.71514c0,0 5.05677,-0.65893 9.67257,2.34864c3.43195,1.91012 5.19549,1.76922 10.36417,3.39752z" data-paper-data="{&quot;origPos&quot;:null}" fill="#ffd426" stroke="none" stroke-width="0" stroke-linecap="butt"/></g></g><path d="M5.26445,331.69056h-35.67391" data-paper-data="{&quot;index&quot;:null}" fill="none" stroke="#3d00a3" stroke-width="26" stroke-linecap="round"/><g><g><g data-paper-data="{&quot;origPos&quot;:null}" stroke="none" stroke-linecap="butt"><path d="M-125.89688,274.85963c0,12.81369 -28.3055,4.64025 -28.3055,4.64025c0,0 -21.80916,8.17345 -21.80916,-4.64025c0,-12.81369 11.21855,-23.20124 25.05733,-23.20124c13.83878,0 25.05733,10.38755 25.05733,23.20124z" data-paper-data="{&quot;origPos&quot;:null}" fill="url(#color-49)" stroke-width="NaN"/><path d="M-87.46103,274.78145c0,12.81369 -28.3055,4.64025 -28.3055,4.64025c0,0 -21.80916,8.17345 -21.80916,-4.64025c0,-12.81369 11.21854,-23.20124 25.05733,-23.20124c13.83878,0 25.05733,10.38755 25.05733,23.20124z" data-paper-data="{&quot;origPos&quot;:null}" fill="url(#color-50)" stroke-width="NaN"/><path d="M-49.02517,274.70325c0,12.81369 -28.3055,4.64024 -28.3055,4.64024c0,0 -21.80916,8.17345 -21.80916,-4.64024c0,-12.81369 11.21854,-23.20124 25.05733,-23.20124c13.83878,0 25.05733,10.38755 25.05733,23.20124z" data-paper-data="{&quot;origPos&quot;:null}" fill="url(#color-51)" stroke-width="NaN"/><path d="M-11.51735,274.62509c0,12.81369 -28.3055,4.64024 -28.3055,4.64024c0,0 -21.80916,8.17345 -21.80916,-4.64024c0,-12.81369 11.21855,-23.20124 25.05733,-23.20124c13.83878,0 25.05733,10.38755 25.05733,23.20124z" data-paper-data="{&quot;origPos&quot;:null}" fill="url(#color-52)" stroke-width="NaN"/><path d="M27.38255,275.01093c0,12.81369 -28.3055,4.64025 -28.3055,4.64025c0,0 -21.80916,8.17345 -21.80916,-4.64025c0,-12.81369 11.21854,-23.20124 25.05733,-23.20124c13.83878,0 25.05733,10.38755 25.05733,23.20124z" data-paper-data="{&quot;origPos&quot;:null}" fill="url(#color-53)" stroke-width="NaN"/><path d="M-174.23512,289.7819l7.75699,-31.45946l180.49828,-1.41036v32.16464z" data-paper-data="{&quot;origPos&quot;:null}" fill="url(#color-54)" stroke-width="0"/><path d="M-155.76207,278.90273c0,8.71332 -10.03162,16.03718 -19.00121,16.03718c-8.96958,0 -13.48052,-7.32387 -13.48052,-16.03718c0,-8.71332 7.27128,-15.77684 16.24087,-15.77684c8.96958,0 16.24087,7.06352 16.24087,15.77684z" fill="url(#color-55)" stroke-width="0"/><path d="M39.98836,278.03422c0,8.71332 -5.44891,17.83887 -14.4185,17.83887c-8.96958,0 -18.06324,-9.12556 -18.06324,-17.83887c0,-8.71332 7.27127,-15.77684 16.24087,-15.77684c8.96958,0 16.24087,7.06353 16.24087,15.77684z" data-paper-data="{&quot;origPos&quot;:null}" fill="url(#color-56)" stroke-width="0"/></g><path d="M24.30232,292.49955c0,0 -50.9832,0 -85.21518,0c-62.77023,0 -118.2303,0 -118.2303,0" data-paper-data="{&quot;origPos&quot;:null}" fill="#ffc3d5" stroke="#ffd426" stroke-width="9" stroke-linecap="round"/><path d="M-110.1816,288.31458c4.70706,2.64754 -12.17937,3.46502 -20.37856,3.46502c-8.19919,0 -15.42978,5.85048 -15.42978,-0.29891c0,-0.34096 -7.05168,-3.23986 -6.74259,-3.38377c3.12986,-1.45724 5.9394,-1.61608 8.16707,-2.95339c4.90203,-2.94276 8.33774,-2.84057 13.42146,-2.84057c0,0 5.29038,-0.68937 10.11942,2.45714c3.5905,1.99836 5.43552,1.85096 10.84298,3.55449z" data-paper-data="{&quot;origPos&quot;:null}" fill="#ffd426" stroke="none" stroke-width="0" stroke-linecap="butt"/><path d="M-71.2827,288.09331c4.70706,2.64754 -12.17937,3.46502 -20.37855,3.46502c-8.19919,0 -15.42979,5.85048 -15.42979,-0.29891c0,-0.34096 -7.05168,-3.23986 -6.74259,-3.38377c3.12986,-1.45724 5.9394,-1.61608 8.16707,-2.95339c4.90203,-2.94276 8.33774,-2.84057 13.42146,-2.84057c0,0 5.29038,-0.68937 10.11942,2.45714c3.5905,1.99836 5.43552,1.85095 10.84298,3.55448z" data-paper-data="{&quot;origPos&quot;:null}" fill="#ffd426" stroke="none" stroke-width="0" stroke-linecap="butt"/><path d="M-35.7056,288.31458c4.70706,2.64754 -12.17937,3.46502 -20.37855,3.46502c-8.19919,0 -15.42978,5.85048 -15.42978,-0.29891c0,-0.34096 -7.0517,-3.23986 -6.7426,-3.38377c3.12986,-1.45724 5.9394,-1.61608 8.16707,-2.95339c4.90203,-2.94276 8.33774,-2.84057 13.42146,-2.84057c0,0 5.29038,-0.68937 10.11942,2.45714c3.5905,1.99836 5.43552,1.85096 10.84298,3.55449z" data-paper-data="{&quot;origPos&quot;:null}" fill="#ffd426" stroke="none" stroke-width="0" stroke-linecap="butt"/><path d="M2.68352,288.09331c4.70706,2.64754 -12.17937,3.46502 -20.37856,3.46502c-8.19919,0 -15.42978,5.85048 -15.42978,-0.29891c0,-0.34096 -7.05168,-3.23986 -6.74259,-3.38377c3.12986,-1.45724 5.9394,-1.61608 8.16707,-2.95339c4.90203,-2.94276 8.33774,-2.84057 13.42146,-2.84057c0,0 5.29038,-0.68937 10.11942,2.45714c3.5905,1.99836 5.43552,1.85095 10.84298,3.55448z" data-paper-data="{&quot;origPos&quot;:null}" fill="#ffc3d5" stroke="none" stroke-width="0" stroke-linecap="butt"/></g><g data-paper-data="{&quot;origPos&quot;:null}"><g data-paper-data="{&quot;origPos&quot;:null}" stroke="none" stroke-linecap="butt"><path d="M26.13443,275.12249c0,12.24786 -27.05558,4.43534 -27.05558,4.43534c0,0 -20.84611,7.81253 -20.84611,-4.43534c0,-12.24786 10.72316,-22.17671 23.95085,-22.17671c13.22768,0 23.95085,9.92885 23.95085,22.17671z" data-paper-data="{&quot;origPos&quot;:null}" fill="url(#color-57)" stroke-width="NaN"/><path d="M62.87305,275.04776c0,12.24786 -27.05558,4.43534 -27.05558,4.43534c0,0 -20.84611,7.81253 -20.84611,-4.43534c0,-12.24786 10.72315,-22.17671 23.95085,-22.17671c13.22768,0 23.95085,9.92885 23.95085,22.17671z" data-paper-data="{&quot;origPos&quot;:null}" fill="url(#color-58)" stroke-width="NaN"/><path d="M99.61166,274.97302c0,12.24786 -27.05558,4.43533 -27.05558,4.43533c0,0 -20.84611,7.81253 -20.84611,-4.43533c0,-12.24786 10.72315,-22.17671 23.95085,-22.17671c13.22768,0 23.95085,9.92885 23.95085,22.17671z" data-paper-data="{&quot;origPos&quot;:null}" fill="url(#color-59)" stroke-width="NaN"/><path d="M-40.62059,286.68526l-6.57199,-27.25757l134.02408,-1.46022l20.22687,30.74431z" data-paper-data="{&quot;origPos&quot;:null}" fill="url(#color-60)" stroke-width="0"/><path d="M114.46235,278.65689c0,8.32855 -4.653,16.62852 -13.2265,16.62852c-8.5735,0 -17.8209,-8.29997 -17.8209,-16.62852c0,-5.66446 1.89289,-9.10116 6.55884,-12.31285c3.06243,-2.10796 5.24708,-2.76731 8.96486,-2.76731c8.5735,0 15.5237,6.75162 15.5237,15.08016z" data-paper-data="{&quot;origPos&quot;:null}" fill="url(#color-61)" stroke-width="0"/></g><path d="M-60.34773,292.105c0,0 70.9387,0 119.85778,0c15.5848,0 33.91934,0 39.9341,0c2.00492,0 3.47146,0 3.47146,0" data-paper-data="{&quot;origPos&quot;:null}" fill="#ffc3d5" stroke="#ffd426" stroke-width="10" stroke-linecap="round"/><path d="M5.24322,288.31122c4.49921,2.53063 -11.64155,3.31201 -19.47868,3.31201c-7.83713,0 -14.74843,5.59214 -14.74843,-0.28571c0,-0.3259 -6.74031,-3.09679 -6.44486,-3.23435c2.99165,-1.39289 5.67713,-1.54472 7.80644,-2.82298c4.68556,-2.81281 7.96956,-2.71514 12.8288,-2.71514c0,0 5.05677,-0.65893 9.67257,2.34864c3.43195,1.91012 5.19549,1.76923 10.36417,3.39753z" data-paper-data="{&quot;origPos&quot;:null}" fill="#ffd426" stroke="none" stroke-width="0" stroke-linecap="butt"/><path d="M41.15574,287.98329c4.49921,2.53063 -11.64155,3.31201 -19.47868,3.31201c-7.83713,0 -14.74843,5.59214 -14.74843,-0.28571c0,-0.3259 -6.74029,-3.09679 -6.44485,-3.23435c2.99165,-1.39289 5.67713,-1.54472 7.80643,-2.82298c4.68556,-2.81281 7.96956,-2.71514 12.8288,-2.71514c0,0 5.05677,-0.65893 9.67257,2.34864c3.43195,1.91012 5.19549,1.76923 10.36417,3.39753z" data-paper-data="{&quot;origPos&quot;:null}" fill="#ffd426" stroke="none" stroke-width="0" stroke-linecap="butt"/><path d="M78.33703,287.7718c4.49921,2.53063 -11.64155,3.31201 -19.47867,3.31201c-7.83713,0 -14.74844,5.59214 -14.74844,-0.28571c0,-0.3259 -6.74029,-3.09679 -6.44485,-3.23435c2.99165,-1.39289 5.67713,-1.54472 7.80643,-2.82298c4.68556,-2.81281 7.96956,-2.71514 12.8288,-2.71514c0,0 5.05677,-0.65893 9.67257,2.34864c3.43195,1.91012 5.19549,1.76922 10.36417,3.39752z" data-paper-data="{&quot;origPos&quot;:null}" fill="#ffd426" stroke="none" stroke-width="0" stroke-linecap="butt"/></g></g></g></g></svg>