<svg version="1.1" xmlns="http://www.w3.org/2000/svg" xmlns:xlink="http://www.w3.org/1999/xlink" width="835.67972" height="527.94074" viewBox="0,0,835.67972,527.94074"><defs><linearGradient x1="514.19818" y1="186.22289" x2="514.19818" y2="215.29008" gradientUnits="userSpaceOnUse" id="color-1"><stop offset="0" stop-color="#fffc45"/><stop offset="1" stop-color="#ffe134"/></linearGradient><linearGradient x1="404.01795" y1="186.01571" x2="404.01795" y2="215.08287" gradientUnits="userSpaceOnUse" id="color-2"><stop offset="0" stop-color="#fffc45"/><stop offset="1" stop-color="#ffe134"/></linearGradient><linearGradient x1="440.75655" y1="185.46242" x2="440.75655" y2="214.52959" gradientUnits="userSpaceOnUse" id="color-3"><stop offset="0" stop-color="#fffc45"/><stop offset="1" stop-color="#ffe134"/></linearGradient><linearGradient x1="478.03085" y1="185.38769" x2="478.03085" y2="214.45486" gradientUnits="userSpaceOnUse" id="color-4"><stop offset="0" stop-color="#fffc45"/><stop offset="1" stop-color="#ffe134"/></linearGradient><linearGradient x1="381.69241" y1="197.47681" x2="381.69241" y2="228.99658" gradientUnits="userSpaceOnUse" id="color-5"><stop offset="0" stop-color="#fef23f"/><stop offset="1" stop-color="#ffe537"/></linearGradient><linearGradient x1="534.56168" y1="196.64666" x2="534.56168" y2="228.35535" gradientUnits="userSpaceOnUse" id="color-6"><stop offset="0" stop-color="#fef23f"/><stop offset="1" stop-color="#ffe537"/></linearGradient><linearGradient x1="442.35551" y1="190.53969" x2="442.35551" y2="221.78169" gradientUnits="userSpaceOnUse" id="color-7"><stop offset="0" stop-color="#fff642"/><stop offset="1" stop-color="#ffe335"/></linearGradient><linearGradient x1="346.42846" y1="224.08606" x2="346.42846" y2="253.15321" gradientUnits="userSpaceOnUse" id="color-8"><stop offset="0" stop-color="#fffc45"/><stop offset="1" stop-color="#ffe134"/></linearGradient><linearGradient x1="383.16702" y1="222.53278" x2="383.16702" y2="251.59993" gradientUnits="userSpaceOnUse" id="color-9"><stop offset="0" stop-color="#fffc45"/><stop offset="1" stop-color="#ffe134"/></linearGradient><linearGradient x1="420.44128" y1="223.45806" x2="420.44128" y2="252.52521" gradientUnits="userSpaceOnUse" id="color-10"><stop offset="0" stop-color="#fffc45"/><stop offset="1" stop-color="#ffe134"/></linearGradient><linearGradient x1="324.10289" y1="235.54717" x2="324.10289" y2="267.06694" gradientUnits="userSpaceOnUse" id="color-11"><stop offset="0" stop-color="#fef23f"/><stop offset="1" stop-color="#ffe537"/></linearGradient><linearGradient x1="443.92556" y1="234.71703" x2="443.92556" y2="266.42568" gradientUnits="userSpaceOnUse" id="color-12"><stop offset="0" stop-color="#fef23f"/><stop offset="1" stop-color="#ffe537"/></linearGradient><linearGradient x1="384.76596" y1="228.61005" x2="384.76596" y2="259.85205" gradientUnits="userSpaceOnUse" id="color-13"><stop offset="0" stop-color="#fff642"/><stop offset="1" stop-color="#ffe335"/></linearGradient></defs><g transform="translate(131.37396,156.20262)"><g data-paper-data="{&quot;isPaintingLayer&quot;:true}" stroke-miterlimit="10" stroke-dasharray="" stroke-dashoffset="0" style="mix-blend-mode: normal"><g><path d="M171.84072,85.03764c0,-9.91412 8.03699,-17.95111 17.95111,-17.95111" data-paper-data="{&quot;index&quot;:null}" fill="none" fill-rule="nonzero" stroke="#b43955" stroke-width="7.46" stroke-linecap="butt" stroke-linejoin="miter"/><path d="M129.17108,67.08656c9.91413,0 17.95111,8.03698 17.95111,17.95111" fill="none" fill-rule="nonzero" stroke="#b43955" stroke-width="7.46" stroke-linecap="butt" stroke-linejoin="miter"/><path d="M143.27895,58.79644h32.443v144.36929c-10.81092,-0.16798 -21.62342,-0.39651 -32.443,-0.70598z" fill="#d84773" fill-rule="nonzero" stroke="none" stroke-width="1" stroke-linecap="butt" stroke-linejoin="miter"/><path d="" fill="#d84773" fill-rule="nonzero" stroke="none" stroke-width="1" stroke-linecap="butt" stroke-linejoin="miter"/><path d="M190.14698,3.48745h11.188c8.566,0 15.511,6.945 15.511,15.512v11.17c0,8.566 -6.945,15.511 -15.511,15.511h-11.188c-8.567,0 -15.511,-6.945 -15.511,-15.511v-11.17c0,-8.567 6.944,-15.512 15.511,-15.512z" fill="#00cd17" fill-rule="evenodd" stroke="none" stroke-width="1" stroke-linecap="round" stroke-linejoin="round"/><path d="M104.23499,-4.82456h11.188c8.567,0 15.511,6.945 15.511,15.511v11.171c0,8.566 -6.944,15.511 -15.511,15.511h-11.188c-8.566,0 -15.511,-6.945 -15.511,-15.511v-11.171c0,-8.566 6.945,-15.511 15.511,-15.511z" fill="#00cd17" fill-rule="evenodd" stroke="none" stroke-width="1" stroke-linecap="round" stroke-linejoin="round"/><path d="M138.66698,-39.62206h40.53c15.572,0 28.195,12.6232 28.195,28.1948v39.5927c0,15.572 -12.623,28.195 -28.195,28.195h-40.53c-15.572,0 -28.195,-12.623 -28.195,-28.195v-39.5927c0,-15.5716 12.623,-28.1948 28.195,-28.1948z" fill="#2fe700" fill-rule="evenodd" stroke="none" stroke-width="1" stroke-linecap="round" stroke-linejoin="round"/><path d="M181.56898,-21.97258l5.44,5.6788c2.028,2.1175 1.924,5.5022 -0.234,7.56l-5.626,5.3662c-2.158,2.058 -5.551,2.01 -7.58,-0.108l-5.44,-5.6787c-2.029,-2.1175 -1.924,-5.5022 0.233,-7.56l5.627,-5.3665c2.158,-2.0577 5.551,-2.0093 7.58,0.1082z" fill="#14de18" fill-rule="evenodd" stroke="none" stroke-width="1" stroke-linecap="round" stroke-linejoin="round"/><path d="M111.30196,25.48544h11.134c5.569,0 10.084,4.515 10.084,10.083v10.586c0,5.568 -4.515,10.083 -10.084,10.083h-11.134c-5.569,0 -10.083,-4.515 -10.083,-10.083v-10.586c0,-5.568 4.514,-10.083 10.083,-10.083z" fill="#4af500" fill-rule="evenodd" stroke="none" stroke-width="1" stroke-linecap="round" stroke-linejoin="round"/><path d="M202.21698,-14.92326h14.77c7.764,0 14.057,6.2936 14.057,14.0567v14.8c0,7.764 -6.293,14.057 -14.057,14.057h-14.77c-7.764,0 -14.057,-6.293 -14.057,-14.057v-14.8c0,-7.7631 6.293,-14.0567 14.057,-14.0567z" fill="#4af500" fill-rule="evenodd" stroke="none" stroke-width="1" stroke-linecap="round" stroke-linejoin="round"/><path d="M158.3262,30.08437l4.38634,4.54149c1.6358,1.6932 1.5515,4.39979 -0.18833,6.04546l-4.537,4.29127c-1.73893,1.64566 -4.47513,1.6071 -6.11092,-0.0861l-4.38634,-4.54149c-1.6358,-1.6932 -1.5515,-4.39979 0.18833,-6.04545l4.53611,-4.29217c1.73983,-1.64477 4.47602,-1.60621 6.11182,0.08699z" fill="#14db16" fill-rule="evenodd" stroke="none" stroke-width="1" stroke-linecap="round" stroke-linejoin="round"/><path d="M148.92696,0.93278l-8.835,8.87l-9.204,-9.038" fill="none" fill-rule="evenodd" stroke="#14d415" stroke-width="10.18" stroke-linecap="round" stroke-linejoin="round"/><path d="M147.34232,157.68843l0.18,-62.779" fill="none" fill-rule="evenodd" stroke="#e46b7e" stroke-width="8" stroke-linecap="round" stroke-linejoin="round"/><path d="M171.55498,61.55277l-0.009,53.144" fill="none" fill-rule="evenodd" stroke="#e46b7e" stroke-width="8" stroke-linecap="round" stroke-linejoin="round"/><path d="M171.55498,156.21944l-0.00744,37.87838" fill="none" fill-rule="evenodd" stroke="#e46b7e" stroke-width="8" stroke-linecap="round" stroke-linejoin="round"/><path d="M155.54598,129.3634l0.009,-64.47733" fill="none" fill-rule="evenodd" stroke="#c03e5e" stroke-width="8" stroke-linecap="round" stroke-linejoin="round"/><path d="M163.46263,158.36344l0.009,-61.81066" fill="none" fill-rule="evenodd" stroke="#ce4165" stroke-width="8" stroke-linecap="round" stroke-linejoin="round"/><path d="M155.13429,202.76751l0.00402,-22.15196" fill="none" fill-rule="evenodd" stroke="#ce4165" stroke-width="8" stroke-linecap="round" stroke-linejoin="round"/><path d="M143.3551,71.11164v-7.93506h8.48231v7.93506z" fill="#c34067" fill-rule="nonzero" stroke="none" stroke-width="0" stroke-linecap="butt" stroke-linejoin="miter"/><path d="M151.56379,71.11164v-7.93506h8.48231v7.93506z" fill="#a73552" fill-rule="nonzero" stroke="none" stroke-width="0" stroke-linecap="butt" stroke-linejoin="miter"/><path d="M159.7725,71.11164v-7.93506h7.93506v7.93506z" fill="#c34067" fill-rule="nonzero" stroke="none" stroke-width="0" stroke-linecap="butt" stroke-linejoin="miter"/><path d="M167.70756,71.11164v-7.93506h7.93507v7.93506z" fill="#cb5f6f" fill-rule="nonzero" stroke="none" stroke-width="0" stroke-linecap="butt" stroke-linejoin="miter"/><path d="M223.08387,67.12172l-128.73218,-0.009" fill="none" fill-rule="evenodd" stroke="#b43955" stroke-width="7.46" stroke-linecap="round" stroke-linejoin="round"/><path d="M223.01396,59.8748l-128.73218,-0.009" fill="none" fill-rule="evenodd" stroke="#71fa3c" stroke-width="7.46" stroke-linecap="round" stroke-linejoin="round"/></g><path d="M352.72359,201.87909v-134.06904h133.50561v134.06904z" fill="#260068" fill-rule="nonzero" stroke="none" stroke-width="0" stroke-linecap="butt" stroke-linejoin="miter"/><path d="M493.82442,198.21024l-18.79117,42.88596l-365.76222,-1.56292l11.2659,-43.53278z" data-paper-data="{&quot;index&quot;:null}" fill="#4926f1" fill-rule="nonzero" stroke="none" stroke-width="0" stroke-linecap="butt" stroke-linejoin="miter"/><path d="M115.08697,196.65185h376.41843" fill="none" fill-rule="nonzero" stroke="#3eb5fa" stroke-width="7" stroke-linecap="round" stroke-linejoin="miter"/><path d="M-131.37396,339.45196l35.24153,-264.54912l212.53385,151.39727l348.50792,0.20148l10.45226,-9.12913l-0.79097,-23.87047l-0.40461,-113.1598l-121.4046,0.14011l0.08739,-38.43339l174.47585,-105.85953l-0.88408,403.26259z" fill="#4000af" fill-rule="nonzero" stroke="none" stroke-width="0" stroke-linecap="butt" stroke-linejoin="miter"/><path d="M524.15988,-76.17808l-0.50876,26.67042c0,0 0.06309,4.97598 -1.94223,8.60492c-2.00532,3.62895 -6.1555,6.04919 -6.1555,6.04919l-162.75696,108.19048l0.17203,-36.67063z" data-paper-data="{&quot;index&quot;:null}" fill="#4926f1" fill-rule="nonzero" stroke="none" stroke-width="0" stroke-linecap="butt" stroke-linejoin="miter"/><path d="M356.24555,36.65719l169.80083,-114.2326" data-paper-data="{&quot;index&quot;:null}" fill="none" fill-rule="nonzero" stroke="#3eb5fa" stroke-width="7" stroke-linecap="round" stroke-linejoin="miter"/><path d="M446.84433,218.8061h20.99025" data-paper-data="{&quot;index&quot;:null}" fill="none" fill-rule="nonzero" stroke="#4926f1" stroke-width="15" stroke-linecap="round" stroke-linejoin="miter"/><path d="M523.56158,343.04709v-485h86v485z" fill="#4000af" fill-rule="nonzero" stroke="none" stroke-width="0" stroke-linecap="butt" stroke-linejoin="miter"/><g data-paper-data="{&quot;index&quot;:null}" fill="none" fill-rule="nonzero" stroke-linecap="round" stroke-linejoin="miter"><path d="M544.90395,58.03751h-68.39262" data-paper-data="{&quot;index&quot;:null}" stroke="#3d00a3" stroke-width="30"/><path d="M532.8079,87.51783h-50.29823" data-paper-data="{&quot;index&quot;:null}" stroke="#3d00a3" stroke-width="29.5"/><path d="M567.63333,117.07431h-92.93712h22.83579" data-paper-data="{&quot;index&quot;:null}" stroke="#3d00a3" stroke-width="30"/><path d="M576.9,87.83904h-41.80969" data-paper-data="{&quot;index&quot;:null}" stroke="#4000af" stroke-width="29"/><path d="M478.88578,87.38136h-9.18958" data-paper-data="{&quot;index&quot;:null}" stroke="#4000af" stroke-width="29"/></g><path d="M-114.64077,371.73812l-2.27013,-527.94074h732.85376l2.27013,527.94074z" fill="none" fill-rule="nonzero" stroke="none" stroke-width="0" stroke-linecap="butt" stroke-linejoin="miter"/><path d="M212.13871,259.11303l49.66475,-0.4153" data-paper-data="{&quot;index&quot;:null}" fill="none" fill-rule="nonzero" stroke="#3d00a3" stroke-width="30" stroke-linecap="round" stroke-linejoin="miter"/><path d="M105.66465,196.77927l14.74013,2.03153l4.73623,27.48328l-20.29185,-0.20204c0,0 -5.34092,-0.36134 -9.09874,-1.61795c-3.75782,-1.25661 -7.60097,-3.96641 -7.60097,-3.96641l-152.99421,-115.30806c0,0 -4.89737,-4.27903 -9.1728,-5.76702c-4.27543,-1.488 -12.48274,-1.60317 -12.48274,-1.60317l23.67655,-31.10584z" data-paper-data="{&quot;index&quot;:null}" fill="#4926f1" fill-rule="nonzero" stroke="none" stroke-width="0" stroke-linecap="butt" stroke-linejoin="miter"/><path d="M-60.27914,70.09915l-3.91757,27.95262l-38.1239,-0.16667l-0.02939,-28.93611z" data-paper-data="{&quot;index&quot;:null}" fill="#4926f1" fill-rule="nonzero" stroke="none" stroke-width="0" stroke-linecap="butt" stroke-linejoin="miter"/><path d="M-103.05417,67.6881l39.39786,0.01544l168.87899,128.6817l19.65376,0.25436" data-paper-data="{&quot;index&quot;:null}" fill="none" fill-rule="nonzero" stroke="#3eb5fa" stroke-width="7" stroke-linecap="round" stroke-linejoin="miter"/><path d="M-28.52307,193.67718l-41.66673,-0.4153" data-paper-data="{&quot;index&quot;:null}" fill="none" fill-rule="nonzero" stroke="#3d00a3" stroke-width="30" stroke-linecap="round" stroke-linejoin="miter"/><path d="M-39.98143,222.70402h54.22621" data-paper-data="{&quot;index&quot;:null}" fill="none" fill-rule="nonzero" stroke="#39009c" stroke-width="30" stroke-linecap="round" stroke-linejoin="miter"/><g fill-rule="nonzero" stroke-linejoin="miter"><path d="M538.14899,208.39961c0,12.24786 -27.05558,4.43533 -27.05558,4.43533c0,0 -20.84611,7.81253 -20.84611,-4.43533c0,-12.24786 10.72315,-22.17671 23.95085,-22.17671c13.22768,0 23.95085,9.92885 23.95085,22.17671z" fill="url(#color-1)" stroke="none" stroke-width="NaN" stroke-linecap="butt"/><path d="M427.96878,208.19241c0,12.24786 -27.05558,4.43534 -27.05558,4.43534c0,0 -20.84611,7.81253 -20.84611,-4.43534c0,-12.24786 10.72316,-22.17671 23.95085,-22.17671c13.22768,0 23.95085,9.92885 23.95085,22.17671z" fill="url(#color-2)" stroke="none" stroke-width="NaN" stroke-linecap="butt"/><path d="M464.70741,207.63913c0,12.24786 -27.05558,4.43534 -27.05558,4.43534c0,0 -20.84611,7.81253 -20.84611,-4.43534c0,-12.24786 10.72315,-22.17671 23.95085,-22.17671c13.22768,0 23.95085,9.92885 23.95085,22.17671z" fill="url(#color-3)" stroke="none" stroke-width="NaN" stroke-linecap="butt"/><path d="M501.98168,207.56442c0,12.24786 -27.05558,4.43533 -27.05558,4.43533c0,0 -20.84611,7.81253 -20.84611,-4.43533c0,-12.24786 10.72315,-22.17671 23.95085,-22.17671c13.22768,0 23.95085,9.92885 23.95085,22.17671z" fill="url(#color-4)" stroke="none" stroke-width="NaN" stroke-linecap="butt"/><path d="M397.2161,212.55699c0,8.32855 -9.25434,16.4396 -17.82784,16.4396c-8.5735,0 -13.21955,-8.11106 -13.21955,-16.4396c0,-8.32855 6.9502,-15.08016 15.5237,-15.08016c8.5735,0 15.5237,6.75161 15.5237,15.08016z" fill="url(#color-5)" stroke="none" stroke-width="0" stroke-linecap="butt"/><path d="M550.08535,211.72682c0,8.32855 -4.653,16.62852 -13.2265,16.62852c-8.5735,0 -17.8209,-8.29997 -17.8209,-16.62852c0,-5.66446 1.89289,-9.10116 6.55884,-12.31285c3.06243,-2.10796 5.24708,-2.76731 8.96486,-2.76731c8.5735,0 15.5237,6.75162 15.5237,15.08016z" fill="url(#color-6)" stroke="none" stroke-width="0" stroke-linecap="butt"/><path d="M376.11588,222.75519l14.25869,-30.25757l130.33844,-0.21287c0,0 3.52579,8.43051 5.51725,13.19231c2.3513,5.6222 7.69118,18.39037 7.69118,18.39037z" fill="url(#color-7)" stroke="none" stroke-width="0" stroke-linecap="butt"/><path d="M521.88585,221.32117c4.49921,2.53063 -11.64155,3.31201 -19.47867,3.31201c-7.83713,0 -14.74844,5.59214 -14.74844,-0.28571c0,-0.3259 -6.74029,-3.09679 -6.44485,-3.23435c2.99165,-1.39289 5.67713,-1.54472 7.80643,-2.82298c4.68556,-2.81281 7.96956,-2.71514 12.8288,-2.71514c0,0 5.05677,-0.65893 9.67257,2.34864c3.43195,1.91012 5.19549,1.76922 10.36417,3.39752z" fill="#ffd426" stroke="none" stroke-width="0" stroke-linecap="butt"/><path d="M536.73577,225.90692c-6.01476,0 -161.16562,0 -161.16562,0" fill="#ffd426" stroke="#ffd426" stroke-width="10" stroke-linecap="round"/><path d="M442.99009,221.53265c4.49921,2.53063 -11.64155,3.31201 -19.47868,3.31201c-7.83713,0 -14.74843,5.59214 -14.74843,-0.28571c0,-0.3259 -6.74029,-3.09679 -6.44485,-3.23435c2.99165,-1.39289 5.67713,-1.54472 7.80643,-2.82298c4.68556,-2.81281 7.96956,-2.71514 12.8288,-2.71514c0,0 5.05677,-0.65893 9.67257,2.34864c3.43195,1.91012 5.19549,1.76923 10.36417,3.39753z" fill="#ffd426" stroke="none" stroke-width="0" stroke-linecap="butt"/><path d="M480.1714,221.32115c4.49921,2.53063 -11.64155,3.31201 -19.47867,3.31201c-7.83713,0 -14.74844,5.59214 -14.74844,-0.28571c0,-0.3259 -6.74029,-3.09679 -6.44485,-3.23435c2.99165,-1.39289 5.67713,-1.54472 7.80643,-2.82298c4.68556,-2.81281 7.96956,-2.71514 12.8288,-2.71514c0,0 5.05677,-0.65893 9.67257,2.34864c3.43195,1.91012 5.19549,1.76922 10.36417,3.39752z" fill="#ffd426" stroke="none" stroke-width="0" stroke-linecap="butt"/></g><g fill-rule="nonzero" stroke-linejoin="miter"><path d="M370.37929,246.26277c0,12.24786 -27.05558,4.43534 -27.05558,4.43534c0,0 -20.84611,7.81253 -20.84611,-4.43534c0,-12.24786 10.72316,-22.17671 23.95085,-22.17671c13.22768,0 23.95085,9.92885 23.95085,22.17671z" fill="url(#color-8)" stroke="none" stroke-width="NaN" stroke-linecap="butt"/><path d="M407.11781,244.70949c0,12.24786 -27.05558,4.43534 -27.05558,4.43534c0,0 -20.84611,7.81253 -20.84611,-4.43534c0,-12.24786 10.72315,-22.17671 23.95085,-22.17671c13.22768,0 23.95085,9.92885 23.95085,22.17671z" fill="url(#color-9)" stroke="none" stroke-width="NaN" stroke-linecap="butt"/><path d="M444.39214,245.63476c0,12.24786 -27.05558,4.43533 -27.05558,4.43533c0,0 -20.84611,7.81253 -20.84611,-4.43533c0,-12.24786 10.72315,-22.17671 23.95085,-22.17671c13.22768,0 23.95085,9.92885 23.95085,22.17671z" fill="url(#color-10)" stroke="none" stroke-width="NaN" stroke-linecap="butt"/><path d="M339.62659,250.62733c0,8.32855 -9.25434,16.4396 -17.82784,16.4396c-8.5735,0 -13.21955,-8.11106 -13.21955,-16.4396c0,-8.32855 6.9502,-15.08016 15.5237,-15.08016c8.5735,0 15.5237,6.75161 15.5237,15.08016z" fill="url(#color-11)" stroke="none" stroke-width="0" stroke-linecap="butt"/><path d="M459.44932,249.79718c0,8.32855 -4.653,16.62852 -13.2265,16.62852c-8.5735,0 -17.8209,-8.29997 -17.8209,-16.62852c0,-5.66446 1.89289,-9.10116 6.55884,-12.31285c3.06243,-2.10796 5.24708,-2.76731 8.96486,-2.76731c8.5735,0 15.5237,6.75162 15.5237,15.08016z" fill="url(#color-12)" stroke="none" stroke-width="0" stroke-linecap="butt"/><path d="M318.52635,260.82555l14.25869,-30.25757l101.06867,-0.21287l13.20843,31.58268z" fill="url(#color-13)" stroke="none" stroke-width="0" stroke-linecap="butt"/><path d="M450.82068,263.24526c-6.01476,0 -132.84003,0 -132.84003,0" fill="#ffd426" stroke="#ffd426" stroke-width="10" stroke-linecap="round"/><path d="M385.40054,259.60298c4.49921,2.53063 -11.64155,3.31201 -19.47868,3.31201c-7.83713,0 -14.74843,5.59214 -14.74843,-0.28571c0,-0.3259 -6.74029,-3.09679 -6.44485,-3.23435c2.99165,-1.39289 5.67713,-1.54472 7.80643,-2.82298c4.68556,-2.81281 7.96956,-2.71514 12.8288,-2.71514c0,0 5.05677,-0.65893 9.67257,2.34864c3.43195,1.91012 5.19549,1.76923 10.36417,3.39753z" fill="#ffd426" stroke="none" stroke-width="0" stroke-linecap="butt"/><path d="M422.5818,259.39148c4.49921,2.53063 -11.64155,3.31201 -19.47867,3.31201c-7.83713,0 -14.74844,5.59214 -14.74844,-0.28571c0,-0.3259 -6.74029,-3.09679 -6.44485,-3.23435c2.99165,-1.39289 5.67713,-1.54472 7.80643,-2.82298c4.68556,-2.81281 7.96956,-2.71514 12.8288,-2.71514c0,0 5.05677,-0.65893 9.67257,2.34864c3.43195,1.91012 5.19549,1.76922 10.36417,3.39752z" fill="#ffd426" stroke="none" stroke-width="0" stroke-linecap="butt"/></g><path d="M444.47886,118.31333v-38h29.66667v38z" fill="#260068" fill-rule="nonzero" stroke="none" stroke-width="0" stroke-linecap="butt" stroke-linejoin="miter"/><path d="M571.37349,331.9393v-197.46249h132.93227v197.46249z" fill="#4000af" fill-rule="nonzero" stroke="none" stroke-width="0" stroke-linecap="butt" stroke-linejoin="miter"/><path d="M641.16673,198.67718l-41.66673,-0.4153" data-paper-data="{&quot;index&quot;:null}" fill="none" fill-rule="nonzero" stroke="#3d00a3" stroke-width="30" stroke-linecap="round" stroke-linejoin="miter"/><path d="M286.42297,218.15946h-29.53836" data-paper-data="{&quot;index&quot;:null}" fill="none" fill-rule="nonzero" stroke="#4b2af5" stroke-width="15" stroke-linecap="round" stroke-linejoin="miter"/><g fill="#ffffff" fill-rule="evenodd" stroke="none" stroke-width="1" stroke-linecap="round" stroke-linejoin="round"><path d="M318.03098,75.4897c0,0 0.70561,0.77025 1.35104,0.76311c0.64543,-0.00713 1.29624,-0.79236 1.29624,-0.79236c0,0 4.67607,-5.15928 8.04326,-8.74425c0.82243,-0.87562 2.64253,-1.17041 3.57427,-0.11039c0.93174,1.06001 0.61172,2.79677 -0.07162,3.73748c-0.68335,0.94071 -8.70464,9.36388 -9.64743,10.24819c-0.94279,0.88431 -2.04821,1.53574 -3.28167,1.57663c-1.23346,0.04089 -2.51546,-0.76041 -3.41577,-1.60357c-0.9003,-0.84317 -10.02789,-10.35777 -10.02789,-10.35777c-0.89789,-0.95288 -1.09555,-2.61292 -0.12315,-3.74522c0.9724,-1.13228 2.65402,-0.93552 3.43552,-0.11177z" data-paper-data="{&quot;origPos&quot;:null,&quot;origRot&quot;:0,&quot;index&quot;:null}" opacity="0.42445"/><path d="M317.8347,94.72681c0,0 0.70561,0.77026 1.35104,0.76311c0.64543,-0.00713 1.29623,-0.79236 1.29623,-0.79236c0,0 4.67607,-5.15928 8.04327,-8.74425c0.82243,-0.87562 2.64252,-1.17043 3.57426,-0.1104c0.93174,1.06001 0.61172,2.79679 -0.07162,3.73749c-0.68335,0.94071 -8.70464,9.36388 -9.64743,10.24819c-0.94279,0.8843 -2.04822,1.53575 -3.28168,1.57664c-1.23346,0.04089 -2.51545,-0.76042 -3.41576,-1.60358c-0.9003,-0.84317 -10.0279,-10.35776 -10.0279,-10.35776c-0.89789,-0.95288 -1.09555,-2.61292 -0.12315,-3.7452c0.9724,-1.13228 2.65403,-0.93552 3.43552,-0.11178z" data-paper-data="{&quot;origPos&quot;:null,&quot;origRot&quot;:0,&quot;index&quot;:null}" opacity="0.42445"/><path d="M317.63842,113.96391c0,0 0.70561,0.77026 1.35104,0.76311c0.64543,-0.00713 1.29623,-0.79236 1.29623,-0.79236c0,0 4.67607,-5.15928 8.04327,-8.74425c0.82243,-0.87562 2.64252,-1.17043 3.57426,-0.1104c0.93174,1.06002 0.61172,2.79679 -0.07162,3.7375c-0.68335,0.94071 -8.70464,9.36388 -9.64743,10.24818c-0.94279,0.8843 -2.04822,1.53574 -3.28168,1.57663c-1.23346,0.04089 -2.51545,-0.76041 -3.41577,-1.60357c-0.9003,-0.84317 -10.02789,-10.35777 -10.02789,-10.35777c-0.89789,-0.95288 -1.09555,-2.61293 -0.12315,-3.74522c0.9724,-1.13229 2.65402,-0.93552 3.43552,-0.11178z" data-paper-data="{&quot;origPos&quot;:null,&quot;origRot&quot;:0,&quot;index&quot;:null}" opacity="0.42445"/></g></g></g></svg>