<svg version="1.1" xmlns="http://www.w3.org/2000/svg" xmlns:xlink="http://www.w3.org/1999/xlink" width="266.38149" height="202.78591" viewBox="0,0,266.38149,202.78591"><defs><linearGradient x1="160.90187" y1="365.64965" x2="160.90187" y2="394.7168" gradientUnits="userSpaceOnUse" id="color-1"><stop offset="0" stop-color="#fffc45"/><stop offset="1" stop-color="#ffe134"/></linearGradient><linearGradient x1="197.64045" y1="365.57492" x2="197.64045" y2="394.64207" gradientUnits="userSpaceOnUse" id="color-2"><stop offset="0" stop-color="#fffc45"/><stop offset="1" stop-color="#ffe134"/></linearGradient><linearGradient x1="138.57632" y1="377.11076" x2="138.57632" y2="408.63052" gradientUnits="userSpaceOnUse" id="color-3"><stop offset="0" stop-color="#fef23f"/><stop offset="1" stop-color="#ffe537"/></linearGradient><linearGradient x1="219.50743" y1="376.28061" x2="219.50743" y2="407.98929" gradientUnits="userSpaceOnUse" id="color-4"><stop offset="0" stop-color="#fef23f"/><stop offset="1" stop-color="#ffe537"/></linearGradient><linearGradient x1="199.23942" y1="370.17364" x2="199.23942" y2="401.41564" gradientUnits="userSpaceOnUse" id="color-5"><stop offset="0" stop-color="#fff642"/><stop offset="1" stop-color="#ffe335"/></linearGradient><linearGradient x1="38.15909" y1="251.65654" x2="38.15909" y2="280.72369" gradientUnits="userSpaceOnUse" id="color-6"><stop offset="0" stop-color="#fffc45"/><stop offset="1" stop-color="#ffe134"/></linearGradient><linearGradient x1="75.43339" y1="252.5818" x2="75.43339" y2="281.64896" gradientUnits="userSpaceOnUse" id="color-7"><stop offset="0" stop-color="#fffc45"/><stop offset="1" stop-color="#ffe134"/></linearGradient><linearGradient x1="-20.90504" y1="264.67093" x2="-20.90504" y2="296.19069" gradientUnits="userSpaceOnUse" id="color-8"><stop offset="0" stop-color="#fef23f"/><stop offset="1" stop-color="#ffe537"/></linearGradient><linearGradient x1="98.91771" y1="263.84078" x2="98.91771" y2="295.54946" gradientUnits="userSpaceOnUse" id="color-9"><stop offset="0" stop-color="#fef23f"/><stop offset="1" stop-color="#ffe537"/></linearGradient><linearGradient x1="39.75805" y1="257.73381" x2="39.75805" y2="288.97581" gradientUnits="userSpaceOnUse" id="color-10"><stop offset="0" stop-color="#fff642"/><stop offset="1" stop-color="#ffe335"/></linearGradient></defs><g transform="translate(12.49472,-218.7917)"><g data-paper-data="{&quot;isPaintingLayer&quot;:true}" fill-rule="nonzero" stroke-linejoin="miter" stroke-miterlimit="10" stroke-dasharray="" stroke-dashoffset="0" style="mix-blend-mode: normal"><path d="M81.65879,377.59936v-78.65646c0.0203,-0.46276 0.01915,-0.928 0,-1.3952v-19.14756h98.29686v99.19922z" fill="#4000af" stroke="none" stroke-width="0" stroke-linecap="butt"/><g><path d="M160.90187,365.64965c9.6316,0 17.93533,5.26415 21.7384,12.85466c-1.2414,-0.05475 -2.49706,-0.22729 -3.73268,-0.18279c-4.19791,0.15116 -8.40204,1.63756 -12.62564,1.66221c-9.2438,0.05394 -18.49064,-0.17077 -27.73392,-0.13637c3.46016,-8.3055 12.16385,-14.1977 22.35383,-14.1977z" fill="url(#color-1)" stroke="none" stroke-width="NaN" stroke-linecap="butt"/><path d="M184.283,373.77722c0.06349,1.06599 0.30813,2.11427 0.51317,3.16228c0.09324,0.47656 0.93342,1.27107 0.46067,1.38202c-2.06043,0.48357 -4.2342,-0.07616 -6.34925,0c-1.03524,0.03728 -2.07086,0.15576 -3.10706,0.3135c1.83383,-3.76054 4.76726,-6.96272 8.42074,-9.25509c-0.07244,1.71314 -0.00002,3.36062 0.06172,4.39729z" fill="url(#color-2)" stroke="none" stroke-width="NaN" stroke-linecap="butt"/><path d="M138.57632,377.11076c3.33902,0 6.43182,1.02407 8.96373,2.76653c-6.02789,-0.05027 -12.05518,-0.06451 -18.08004,0.10635c2.55978,-1.80707 5.70992,-2.87288 9.11631,-2.87288z" fill="url(#color-3)" stroke="none" stroke-width="0" stroke-linecap="butt"/><path d="" fill="url(#color-4)" stroke="none" stroke-width="0" stroke-linecap="butt"/><path d="M147.25844,372.13157l36.94769,-0.12067c0.01778,0.68272 0.04845,1.28921 0.07687,1.76632c0.06349,1.06599 0.30813,2.11427 0.51317,3.16228c0.09324,0.47656 0.93342,1.27107 0.46067,1.38202c-2.06043,0.48357 -4.2342,-0.07616 -6.34925,0c-4.19791,0.15116 -8.40204,1.63756 -12.62564,1.66221c-7.55295,0.04408 -15.10793,-0.09789 -22.66134,-0.13253z" fill="url(#color-5)" stroke="none" stroke-width="0" stroke-linecap="butt"/><path d="" fill="#ffd426" stroke="#ffd426" stroke-width="10" stroke-linecap="round"/><path d="" fill="#ffd426" stroke="none" stroke-width="0" stroke-linecap="butt"/></g><g><path d="" fill="url(#color-6)" stroke="none" stroke-width="NaN" stroke-linecap="butt"/><path d="M79.59209,280.80899l0.67419,-3.59565c0.20374,-1.01869 0.44478,-1.97805 0.70816,-2.91002c5.89391,0.87189 12.14263,1.38777 18.3329,1.54069c-1.02523,6.93255 -12.0791,6.27879 -19.71525,4.96498z" fill="url(#color-7)" stroke="none" stroke-width="NaN" stroke-linecap="butt"/><path d="" fill="url(#color-8)" stroke="none" stroke-width="0" stroke-linecap="butt"/><path d="M114.4414,278.92094c0,8.32855 -4.653,16.62852 -13.2265,16.62852c-8.5735,0 -17.8209,-8.29997 -17.8209,-16.62852c0,-1.5639 0.14428,-2.958 0.45138,-4.22442c9.42167,1.18944 19.55491,1.49752 28.79747,0.89729c0.46188,-0.02999 0.92833,-0.05965 1.39821,-0.0904c0.2619,1.09807 0.40034,2.2421 0.40034,3.41753z" fill="url(#color-9)" stroke="none" stroke-width="0" stroke-linecap="butt"/><path d="M102.05423,291.06155l-21.50474,-0.18608c-0.60142,-2.5312 -1.25611,-5.04962 -1.44286,-7.47737l1.15964,-6.18476c0.20374,-1.01869 0.44478,-1.97805 0.70816,-2.91002c4.72934,0.69961 9.68715,1.17001 14.65989,1.40759z" fill="url(#color-10)" stroke="none" stroke-width="0" stroke-linecap="butt"/><path d="" fill="#ffd426" stroke="#ffd426" stroke-width="10" stroke-linecap="round"/><path d="" fill="#ffd426" stroke="#ffd426" stroke-width="10" stroke-linecap="round"/><path d="M105.81276,292.36903c-1.56689,0 -11.33246,0 -24.91875,0" fill="#ffd426" stroke="#ffd426" stroke-width="10" stroke-linecap="round"/><path d="" fill="#ffd426" stroke="none" stroke-width="0" stroke-linecap="butt"/><path d="" fill="#ffd426" stroke="none" stroke-width="0" stroke-linecap="butt"/></g><path d="M-12.49472,421.57761v-202.78591h266.38149v202.78591z" fill="none" stroke="none" stroke-width="NaN" stroke-linecap="butt"/><path d="M106.76977,340.08691h31.27656" data-paper-data="{&quot;index&quot;:null}" fill="none" stroke="#380099" stroke-width="26" stroke-linecap="round"/><path d="M156.72139,315.28608h-21.60456" data-paper-data="{&quot;index&quot;:null}" fill="none" stroke="#3d00a3" stroke-width="26.5" stroke-linecap="round"/></g></g></svg>