<svg version="1.1" xmlns="http://www.w3.org/2000/svg" xmlns:xlink="http://www.w3.org/1999/xlink" width="336" height="103" viewBox="0,0,336,103"><g transform="translate(-72.64447,25.89286)"><g data-paper-data="{&quot;isPaintingLayer&quot;:true}" stroke="none" stroke-dasharray="" stroke-dashoffset="0" style="mix-blend-mode: normal"><path d="" data-paper-data="{&quot;index&quot;:null}" fill="#f2f2f2" fill-rule="nonzero" stroke-width="1" stroke-linecap="butt" stroke-linejoin="miter" stroke-miterlimit="10"/><path d="" data-paper-data="{&quot;index&quot;:null}" fill="#f2f2f2" fill-rule="nonzero" stroke-width="1" stroke-linecap="butt" stroke-linejoin="miter" stroke-miterlimit="10"/><path d="" data-paper-data="{&quot;index&quot;:null}" fill="#f2f2f2" fill-rule="nonzero" stroke-width="1" stroke-linecap="butt" stroke-linejoin="miter" stroke-miterlimit="10"/><path d="" data-paper-data="{&quot;index&quot;:null}" fill="#f2f2f2" fill-rule="nonzero" stroke-width="1" stroke-linecap="butt" stroke-linejoin="miter" stroke-miterlimit="10"/><path d="M72.64447,77.10715v-103h336v103z" fill="none" fill-rule="nonzero" stroke-width="0" stroke-linecap="butt" stroke-linejoin="miter" stroke-miterlimit="10"/><path d="M181.74789,16.93867h125.77173c10.02093,0 18.14538,8.12443 18.14538,18.14538v0.32314c0,10.02093 -8.12442,18.14538 -18.14538,18.14538h-125.77173c-10.02186,0 -18.14611,-8.12443 -18.14611,-18.14538v-0.32314c0,-10.02093 8.12425,-18.14538 18.14611,-18.14538z" fill="#000000" fill-rule="evenodd" stroke-width="1" stroke-linecap="round" stroke-linejoin="round" stroke-miterlimit="10" opacity="0.31775"/><g fill-rule="nonzero" stroke-width="0" stroke-linecap="butt" stroke-linejoin="miter" stroke-miterlimit="10"><g><g fill="#e95f76"><path d="M196.61381,33.93127c1.23254,4.62078 -1.5108,10.81683 -5.54981,9.78893c-4.03764,-1.02755 -8.22948,-5.43328 -9.46201,-10.05406c-1.23254,-4.62078 1.20237,-8.48389 5.37011,-8.48067c4.16774,0.00321 8.40917,4.12504 9.64172,8.7458z" data-paper-data="{&quot;origPos&quot;:null,&quot;origRot&quot;:0}"/><path d="M195.99939,24.85307c4.15992,-0.25534 6.82407,3.4534 5.87334,8.14026c-0.95075,4.68688 -6.05209,10.21153 -9.84638,10.83557c-1.46435,-0.09015 -2.30386,-0.50128 -3.32718,-1.5526c-0.58072,-0.59663 -0.88427,-0.96203 -1.31045,-1.6773c-1.27851,-2.14579 -1.16389,-3.3816 -0.62067,-6.05949c0.95075,-4.68688 5.07142,-9.43111 9.23134,-9.68644z" data-paper-data="{&quot;origPos&quot;:null,&quot;origRot&quot;:0,&quot;index&quot;:null}"/></g><path d="M194.48307,36.00656c1.23254,4.62078 -1.5108,10.81683 -5.5498,9.78893c-4.03764,-1.02755 -8.22948,-5.43328 -9.46201,-10.05406c-1.23254,-4.62078 1.20237,-8.48388 5.37011,-8.48067c4.16775,0.00321 8.40917,4.12504 9.64171,8.74581z" data-paper-data="{&quot;origRot&quot;:0}" fill="#fe6780"/><path d="M193.86865,26.92836c4.15992,-0.25534 6.82408,3.45339 5.87333,8.14025c-0.95075,4.68688 -6.05208,10.21153 -9.84638,10.83557c-1.46435,-0.09015 -2.30387,-0.50127 -3.32717,-1.55259c-0.58072,-0.59663 -0.88428,-0.96203 -1.31045,-1.6773c-1.27851,-2.14579 -1.16389,-3.3816 -0.62067,-6.05949c0.95075,-4.68688 5.07142,-9.43111 9.23134,-9.68644z" data-paper-data="{&quot;origRot&quot;:0,&quot;index&quot;:null}" fill="#fe6780"/></g></g><g fill-rule="nonzero" stroke-width="0" stroke-linecap="butt" stroke-linejoin="miter" stroke-miterlimit="10"><g><g fill="#ebb000"><path d="M223.55503,32.38264l-9.51709,0.06346c0,0 0.45164,-0.84334 0.56583,-1.09789c0.03806,-0.08483 0.12691,-0.44115 0.16325,-0.52674c1.05576,-2.07426 2.47595,-6.09464 4.1633,-6.11043c1.44921,-0.00283 1.74572,0.9904 2.33751,2.09672c0.66268,1.23884 1.74635,3.90362 2.24523,5.21701c0.43307,1.14018 0.04198,0.35789 0.04198,0.35789z" data-paper-data="{&quot;origPos&quot;:null,&quot;origRot&quot;:0,&quot;index&quot;:null}"/><path d="M221.62796,30.57121c1.39795,0.13988 4.25294,0.49274 5.62154,0.81018c1.22219,0.28348 2.25838,0.31132 2.63279,1.71133c0.42386,1.63331 -3.08836,4.05084 -4.81642,5.61003c-0.07319,0.05737 -0.39409,0.23588 -0.46611,0.2947c-0.21607,0.17651 -0.91282,0.83206 -0.91282,0.83206l-2.41546,-9.20569c0,0 -0.85709,-0.17404 0.35649,-0.05261z" data-paper-data="{&quot;origPos&quot;:null,&quot;origRot&quot;:0,&quot;index&quot;:null}"/><path d="M217.27504,41.77743l7.90557,-5.29915c0,0 0.08807,0.95259 0.1331,1.22794c0.01501,0.09177 0.13731,0.43804 0.15416,0.52949c0.26256,2.31265 1.29378,6.44989 -0.10533,7.39319c-1.20758,0.80121 -2.0025,0.13597 -3.10609,-0.46085c-1.2358,-0.66832 -4.23024,-2.19385 -5.37042,-3.01466c-0.98985,-0.71256 0.38902,-0.37595 0.38902,-0.37595z" data-paper-data="{&quot;origPos&quot;:null,&quot;origRot&quot;:0,&quot;index&quot;:null}"/><path d="M224.77491,36.53283c-0.05844,2.99188 -2.56172,5.36931 -5.59124,5.31014c-3.02952,-0.05916 -5.43806,-2.53253 -5.37963,-5.52442c0.05844,-2.99188 2.56174,-5.36932 5.59125,-5.31015c3.02953,0.05917 5.43806,2.53254 5.37962,5.52442z" data-paper-data="{&quot;origPos&quot;:null}"/></g><g fill="#ebb000"><path d="M224.4025,31.92008l-9.5171,0.06346c0,0 0.45165,-0.84335 0.56584,-1.0979c0.03806,-0.08483 0.12691,-0.44115 0.16324,-0.52674c0.87549,-1.7201 2.00157,-4.77844 3.32281,-5.78169c0.54901,-0.02618 1.12725,-0.08264 1.71716,-0.1654c0.73499,0.32578 1.0136,1.09728 1.46084,1.93338c0.66268,1.23884 1.74635,3.90362 2.24522,5.21701c0.43307,1.14018 0.04197,0.35789 0.04197,0.35789z" data-paper-data="{&quot;origPos&quot;:null,&quot;origRot&quot;:0,&quot;index&quot;:null}"/><path d="M222.47544,30.10864c1.39795,0.13988 4.25295,0.49274 5.62154,0.81018c1.22219,0.28348 2.25838,0.31132 2.63278,1.71133c0.42386,1.63331 -3.08835,4.05084 -4.81642,5.61003c-0.07319,0.05737 -0.3941,0.23588 -0.46612,0.29471c-0.21607,0.17651 -0.91282,0.83205 -0.91282,0.83205l-2.41546,-9.20569c0,0 -0.85709,-0.17402 0.35649,-0.05261z" data-paper-data="{&quot;origPos&quot;:null,&quot;origRot&quot;:0,&quot;index&quot;:null}"/><path d="M218.12249,41.31486l7.90557,-5.29915c0,0 0.08806,0.95259 0.1331,1.22795c0.01501,0.09177 0.13732,0.43804 0.15416,0.52949c0.26256,2.31265 1.29379,6.44989 -0.10533,7.39319c-1.20758,0.80121 -2.0025,0.13597 -3.10609,-0.46085c-1.2358,-0.66832 -4.23022,-2.19385 -5.37042,-3.01466c-0.98985,-0.71256 0.38901,-0.37595 0.38901,-0.37595z" data-paper-data="{&quot;origPos&quot;:null,&quot;origRot&quot;:0,&quot;index&quot;:null}"/><path d="M225.6224,36.07026c-0.05844,2.99188 -2.56174,5.36933 -5.59125,5.31015c-3.02952,-0.05916 -5.43805,-2.53254 -5.37962,-5.52443c0.05844,-2.99188 2.56172,-5.36932 5.59123,-5.31014c3.02953,0.05917 5.43807,2.53253 5.37963,5.52442z" data-paper-data="{&quot;origPos&quot;:null}"/></g><g fill="#ebb000"><path d="M225.24532,31.69699l-9.5171,0.06346c0,0 0.45164,-0.84335 0.56583,-1.0979c0.03806,-0.08483 0.12691,-0.44115 0.16324,-0.52674c0.82794,-1.6267 1.88004,-4.45025 3.10934,-5.60063c0.66532,-0.05658 1.31749,0.52656 2.01664,0.39757c0.63959,0.35576 0.955,0.40453 1.37482,1.18938c0.66268,1.23884 1.74635,3.90362 2.24523,5.217c0.43307,1.14018 0.04198,0.35789 0.04198,0.35789z" data-paper-data="{&quot;origPos&quot;:null,&quot;origRot&quot;:0,&quot;index&quot;:null}"/><path d="M223.31825,29.88555c1.39795,0.13988 4.25294,0.49273 5.62154,0.81017c1.22219,0.28348 2.25838,0.31133 2.63279,1.71133c0.42386,1.63331 -3.08836,4.05084 -4.81642,5.61003c-0.07319,0.05737 -0.3941,0.23588 -0.46611,0.29471c-0.21607,0.17651 -0.91282,0.83206 -0.91282,0.83206l-2.41546,-9.20569c0,0 -0.85709,-0.17403 0.35649,-0.0526z" data-paper-data="{&quot;origPos&quot;:null,&quot;origRot&quot;:0,&quot;index&quot;:null}"/><path d="M218.96532,41.09178l7.90557,-5.29915c0,0 0.08806,0.95259 0.1331,1.22794c0.01501,0.09177 0.13731,0.43804 0.15416,0.52949c0.26256,2.31265 1.29378,6.44988 -0.10533,7.39317c-1.20758,0.80121 -2.0025,0.13598 -3.10609,-0.46084c-1.2358,-0.66832 -4.23022,-2.19384 -5.37042,-3.01465c-0.98985,-0.71256 0.389,-0.37595 0.389,-0.37595z" data-paper-data="{&quot;origPos&quot;:null,&quot;origRot&quot;:0,&quot;index&quot;:null}"/><path d="M226.46522,35.84716c-0.05844,2.99188 -2.56173,5.36933 -5.59125,5.31015c-3.02952,-0.05916 -5.43806,-2.53254 -5.37963,-5.52443c0.05844,-2.99188 2.56173,-5.36931 5.59124,-5.31014c3.02953,0.05917 5.43807,2.53253 5.37963,5.52441z" data-paper-data="{&quot;origPos&quot;:null}"/></g><g fill="#ebb000"><path d="M226.08577,31.59362l-9.5171,0.06346c0,0 0.45164,-0.84335 0.56583,-1.0979c0.03806,-0.08483 0.12691,-0.44115 0.16325,-0.52675c0.8243,-1.61953 1.87074,-4.42537 3.09307,-5.58532c0.50797,-0.06486 0.66197,0.44819 1.17997,0.34558c0.39308,0.27107 1.06866,-0.2654 1.45302,0.10178c0.91832,0.87729 2.5211,5.02788 3.01997,6.34127c0.43307,1.14018 0.04198,0.35789 0.04198,0.35789z" data-paper-data="{&quot;origPos&quot;:null,&quot;origRot&quot;:0,&quot;index&quot;:null}"/><path d="M224.15871,29.78219c1.39795,0.13988 4.25294,0.49273 5.62154,0.81017c1.22219,0.28348 2.25838,0.31132 2.63279,1.71133c0.42386,1.63331 -3.08836,4.05084 -4.81642,5.61003c-0.07319,0.05737 -0.3941,0.23588 -0.46612,0.29471c-0.21607,0.17651 -0.91282,0.83205 -0.91282,0.83205l-2.41547,-9.20569c0,0 -0.85709,-0.17404 0.35649,-0.05261z" data-paper-data="{&quot;origPos&quot;:null,&quot;origRot&quot;:0,&quot;index&quot;:null}"/><path d="M219.80578,40.98842l7.90557,-5.29915c0,0 0.08806,0.9526 0.13309,1.22795c0.01501,0.09177 0.13731,0.43804 0.15416,0.52948c0.26256,2.31265 1.29379,6.44988 -0.10533,7.39317c-1.20758,0.80121 -2.0025,0.13598 -3.10609,-0.46084c-1.2358,-0.66832 -4.23023,-2.19384 -5.37042,-3.01466c-0.98985,-0.71256 0.38901,-0.37595 0.38901,-0.37595z" data-paper-data="{&quot;origPos&quot;:null,&quot;origRot&quot;:0,&quot;index&quot;:null}"/><path d="M222.48015,41.54243c-0.3352,0.22196 0.5542,-0.1989 0.21379,0.01499c-1.02119,0.6417 -8.37077,-1.89579 -8.0181,-4.1964c0.02042,-0.09073 0.15614,-0.43194 0.17472,-0.52307c0.05577,-0.27335 0.18095,-1.22181 0.18095,-1.22181c0,0 8.69693,5.2636 8.88499,5.40061c0.06268,0.04567 -1.19237,0.2032 -1.19237,0.2032c0,0 0.77403,-0.40718 -0.24289,0.26619z" data-paper-data="{&quot;origPos&quot;:null,&quot;origRot&quot;:0,&quot;index&quot;:null}"/><path d="M227.30569,35.74382c-0.05843,2.99188 -2.56172,5.36931 -5.59123,5.31015c-3.02952,-0.05916 -5.43806,-2.53254 -5.37963,-5.52442c0.05843,-2.99188 2.56173,-5.36932 5.59124,-5.31014c3.02953,0.05917 5.43806,2.53254 5.37962,5.52442z" data-paper-data="{&quot;origPos&quot;:null}"/></g><path d="M223.2474,25.23212c0.33099,0.94405 -0.85337,2.07427 -2.64538,2.52443c-1.79199,0.45016 -3.513,0.04978 -3.844,-0.89428c-0.33099,-0.94405 0.90773,-2.27496 3.2009,-2.56402c0.86382,-0.00713 1.55838,0.00632 2.28914,0.24464c0.26977,0.17605 0.46312,0.14442 0.76695,0.30858c0.10479,0.11445 0.18367,0.24166 0.23239,0.38066z" data-paper-data="{&quot;origRot&quot;:0}" fill="#ebb000"/><g fill="#ffbe00"><path d="M222.80753,32.63156l-9.51709,0.06346c0,0 0.45164,-0.84335 0.56583,-1.09789c0.03806,-0.08483 0.12691,-0.44115 0.16324,-0.52675c1.05576,-2.07426 2.47595,-6.09463 4.16331,-6.11042c1.44921,-0.00283 1.74572,0.9904 2.33751,2.09672c0.66268,1.23884 1.74635,3.90362 2.24523,5.21701c0.43307,1.14018 0.04197,0.35789 0.04197,0.35789z" data-paper-data="{&quot;origPos&quot;:null,&quot;origRot&quot;:0,&quot;index&quot;:null}"/><path d="M220.88048,30.82011c1.39795,0.13988 4.25295,0.49273 5.62154,0.81017c1.22219,0.28348 2.25838,0.31132 2.63279,1.71133c0.42386,1.63331 -3.08836,4.05084 -4.81642,5.61003c-0.07319,0.05737 -0.39411,0.23588 -0.46612,0.2947c-0.21607,0.17651 -0.91282,0.83206 -0.91282,0.83206l-2.41547,-9.2057c0,0 -0.8571,-0.17403 0.35649,-0.0526z" data-paper-data="{&quot;origPos&quot;:null,&quot;origRot&quot;:0,&quot;index&quot;:null}"/><path d="M216.52754,42.02634l7.90557,-5.29915c0,0 0.08806,0.9526 0.1331,1.22795c0.01501,0.09177 0.13732,0.43804 0.15416,0.52948c0.26256,2.31265 1.29379,6.44988 -0.10533,7.39317c-1.20758,0.80121 -2.0025,0.13598 -3.10609,-0.46084c-1.2358,-0.66832 -4.23023,-2.19384 -5.37042,-3.01465c-0.98985,-0.71256 0.38902,-0.37595 0.38902,-0.37595z" data-paper-data="{&quot;origPos&quot;:null,&quot;origRot&quot;:0,&quot;index&quot;:null}"/><path d="M219.20189,42.58037c-0.3352,0.22196 0.5542,-0.19891 0.2138,0.01498c-0.45135,0.28363 -1.1798,0.71908 -1.99202,1.18541c-0.40425,0.23211 -0.82925,0.47185 -1.25117,0.70436c-0.64833,0.35726 -1.28936,0.69738 -1.83664,0.9663c-1.12605,0.55328 -1.94636,1.18698 -3.12172,0.33921c-1.36121,-0.99721 -0.16922,-5.09104 0.18345,-7.39165c0.02042,-0.09073 0.15615,-0.43194 0.17472,-0.52307c0.05577,-0.27335 0.18095,-1.22181 0.18095,-1.22181c0,0 8.69693,5.2636 8.885,5.40061c0.06269,0.04567 -1.19237,0.2032 -1.19237,0.2032c0,0 0.77403,-0.40719 -0.24289,0.26619z" data-paper-data="{&quot;origPos&quot;:null,&quot;origRot&quot;:0,&quot;index&quot;:null}"/><path d="M216.09901,30.90608l-2.77308,9.10435c0,0 -0.67063,-0.68226 -0.87963,-0.86707c-0.06966,-0.06159 -0.38337,-0.25251 -0.45425,-0.31268c-1.66586,-1.62547 -5.081,-4.17831 -4.59368,-5.79382c0.4288,-1.38432 1.46527,-1.37168 2.6976,-1.60721c1.37996,-0.26376 4.24656,-0.50486 5.6489,-0.59005c1.21741,-0.07395 0.35415,0.06649 0.35415,0.06649z" data-paper-data="{&quot;origRot&quot;:0,&quot;index&quot;:null}"/><path d="M224.02743,36.78175c-0.05843,2.99188 -2.56173,5.36932 -5.59124,5.31015c-3.02952,-0.05916 -5.43806,-2.53253 -5.37962,-5.52442c0.05843,-2.99188 2.56173,-5.36931 5.59124,-5.31015c3.02952,0.05917 5.43805,2.53253 5.37962,5.52442z" data-paper-data="{&quot;origPos&quot;:null}"/></g></g></g><g stroke-width="1" stroke-linecap="butt" stroke-linejoin="round" stroke-miterlimit="2"><path d="M309.50936,43.04578c0,1.98498 -1.60937,3.59434 -3.59434,3.59434h-63.15979c-1.98498,0 -3.59434,-1.60937 -3.59434,-3.59434v-15.45568c0,-1.98498 1.60937,-3.59434 3.59434,-3.59434h63.15979c1.98498,0 3.59434,1.60937 3.59434,3.59434z" data-paper-data="{&quot;index&quot;:null}" fill="#2cbcff" fill-rule="evenodd"/><g data-paper-data="{&quot;index&quot;:null}" fill="#000000" fill-rule="nonzero"><g><path d="M250.03474,39.32762c-0.30202,0 -0.54811,-0.08948 -0.73826,-0.27964c-0.19016,-0.19016 -0.27964,-0.43624 -0.27964,-0.73826v-5.98437c0,-0.30202 0.0783,-0.53691 0.24608,-0.7047c0.16779,-0.16778 0.40269,-0.24608 0.7047,-0.24608h3.7584c0.33557,0 0.58166,0.06711 0.73826,0.19015c0.1566,0.13424 0.2349,0.34676 0.2349,0.62641c0,0.27964 -0.07831,0.48099 -0.2349,0.60402c-0.16779,0.12304 -0.41387,0.19016 -0.73826,0.19016h-2.68457v1.45415h2.46087c0.32439,0 0.57048,0.06712 0.73825,0.20134c0.1566,0.13424 0.2349,0.33557 0.2349,0.61521c0,0.27964 -0.07831,0.48099 -0.2349,0.60402c-0.16779,0.12304 -0.41387,0.19016 -0.73825,0.19016h-2.46087v2.25952c0,0.3132 -0.08949,0.55929 -0.26845,0.73826c-0.19016,0.19016 -0.43624,0.27964 -0.73826,0.27964z"/></g><g><path d="M259.76633,39.36118c-0.80537,0 -1.49889,-0.16778 -2.09173,-0.50335c-0.59285,-0.32439 -1.05146,-0.7942 -1.37585,-1.4094c-0.32439,-0.60402 -0.48099,-1.31992 -0.48099,-2.13647c0,-0.81656 0.1566,-1.53244 0.48099,-2.14766c0.32439,-0.60402 0.783,-1.07383 1.37585,-1.39822c0.59285,-0.32439 1.28636,-0.49218 2.09173,-0.49218c0.80537,0 1.51007,0.16779 2.10291,0.49218c0.59285,0.32439 1.04029,0.7942 1.36465,1.39822c0.3132,0.61521 0.4698,1.3311 0.4698,2.14766c0,0.81656 -0.1566,1.53244 -0.48099,2.13647c-0.32439,0.61521 -0.77181,1.08502 -1.36465,1.4094c-0.59285,0.33557 -1.29755,0.50335 -2.09173,0.50335zM259.76633,37.78399c0.59285,0 1.06264,-0.21253 1.39822,-0.63759c0.33557,-0.41387 0.50336,-1.02909 0.50336,-1.83446c0,-0.80537 -0.16779,-1.42058 -0.50336,-1.83446c-0.34676,-0.41387 -0.80537,-0.62641 -1.39822,-0.62641c-0.59285,0 -1.06265,0.20134 -1.39822,0.61521c-0.33557,0.41387 -0.50335,1.02908 -0.50335,1.84564c0,0.81656 0.16778,1.43178 0.50335,1.84565c0.33557,0.41387 0.80537,0.62641 1.39822,0.62641z"/></g><g><path d="M266.43299,39.2605c-0.30202,0 -0.53691,-0.0783 -0.7047,-0.24608c-0.16779,-0.16779 -0.24609,-0.40269 -0.24609,-0.71589v-5.97318c0,-0.30202 0.08948,-0.54811 0.27964,-0.73826c0.17897,-0.17897 0.42506,-0.26845 0.73826,-0.26845c0.32439,0 0.57047,0.08948 0.76062,0.26845c0.19016,0.19016 0.27964,0.43624 0.27964,0.73826v5.26847h2.57272c0.64878,0 0.97316,0.27964 0.97316,0.83893c0,0.27964 -0.07831,0.49218 -0.2349,0.62641c-0.16779,0.13423 -0.41387,0.20134 -0.73825,0.20134z"/></g><g><path d="M273.39069,39.2605c-0.30202,0 -0.53691,-0.0783 -0.70469,-0.24608c-0.16779,-0.16779 -0.24608,-0.40269 -0.24608,-0.71589v-5.97318c0,-0.30202 0.08948,-0.54811 0.27964,-0.73826c0.17897,-0.17897 0.42505,-0.26845 0.73825,-0.26845c0.32439,0 0.57048,0.08948 0.76063,0.26845c0.19016,0.19016 0.27965,0.43624 0.27965,0.73826v5.26847h2.57271c0.64878,0 0.97316,0.27964 0.97316,0.83893c0,0.27964 -0.07831,0.49218 -0.2349,0.62641c-0.16779,0.13423 -0.41387,0.20134 -0.73826,0.20134z"/></g><g><path d="M282.68583,39.36118c-0.80537,0 -1.49889,-0.16778 -2.09173,-0.50335c-0.59285,-0.32439 -1.05146,-0.7942 -1.37585,-1.4094c-0.32439,-0.60402 -0.48099,-1.31992 -0.48099,-2.13647c0,-0.81656 0.1566,-1.53244 0.48099,-2.14766c0.32439,-0.60402 0.783,-1.07383 1.37585,-1.39822c0.59285,-0.32439 1.28636,-0.49218 2.09173,-0.49218c0.80537,0 1.51007,0.16779 2.10291,0.49218c0.59285,0.32439 1.04029,0.7942 1.36465,1.39822c0.3132,0.61521 0.4698,1.3311 0.4698,2.14766c0,0.81656 -0.1566,1.53244 -0.48099,2.13647c-0.32439,0.61521 -0.77181,1.08502 -1.36465,1.4094c-0.59285,0.33557 -1.29755,0.50335 -2.09173,0.50335zM282.68583,37.78399c0.59285,0 1.06265,-0.21253 1.39822,-0.63759c0.33557,-0.41387 0.50335,-1.02909 0.50335,-1.83446c0,-0.80537 -0.16778,-1.42058 -0.50335,-1.83446c-0.34676,-0.41387 -0.80537,-0.62641 -1.39822,-0.62641c-0.59285,0 -1.06265,0.20134 -1.39822,0.61521c-0.33557,0.41387 -0.50335,1.02908 -0.50335,1.84564c0,0.81656 0.16778,1.43178 0.50335,1.84565c0.33557,0.41387 0.80537,0.62641 1.39822,0.62641z"/></g><g><path d="M297.82019,31.94504c0.07831,-0.21254 0.20133,-0.36913 0.36912,-0.481c0.1566,-0.11185 0.34676,-0.16778 0.54811,-0.16778c0.24608,0 0.45862,0.0783 0.64878,0.2349c0.17897,0.1566 0.26845,0.36913 0.26845,0.6376c0,0.12304 -0.03356,0.26845 -0.08948,0.44742l-2.24833,6.08503c-0.07831,0.21254 -0.21253,0.36912 -0.40269,0.48099c-0.20134,0.12304 -0.42506,0.17897 -0.65996,0.17897c-0.2349,0 -0.45862,-0.05593 -0.64878,-0.17897c-0.19016,-0.11185 -0.32439,-0.26845 -0.40268,-0.48099l-1.45416,-4.14991l-1.52125,4.14991c-0.07831,0.21254 -0.22372,0.36912 -0.41387,0.48099c-0.19016,0.12304 -0.40268,0.17897 -0.63759,0.17897c-0.2349,0 -0.45862,-0.05593 -0.64878,-0.17897c-0.19016,-0.11185 -0.3244,-0.26845 -0.40269,-0.48099l-2.25951,-6.08503c-0.05593,-0.14542 -0.07831,-0.29084 -0.07831,-0.42506c0,-0.27964 0.10067,-0.49217 0.30202,-0.65995c0.19016,-0.1566 0.42506,-0.2349 0.68233,-0.2349c0.21254,0 0.40269,0.05593 0.58165,0.1566c0.16779,0.11185 0.29084,0.27964 0.36912,0.49218l1.53244,4.40717l1.62194,-4.40717c0.07831,-0.21254 0.19015,-0.36913 0.36912,-0.481c0.16779,-0.11185 0.34676,-0.16778 0.54811,-0.16778c0.20134,0 0.38032,0.05593 0.54811,0.16778c0.16779,0.11185 0.27964,0.27964 0.35793,0.49218l1.52126,4.49666z"/></g></g></g></g></g></svg>