<svg version="1.1" xmlns="http://www.w3.org/2000/svg" xmlns:xlink="http://www.w3.org/1999/xlink" width="781.24868" height="497.91071" viewBox="0,0,781.24868,497.91071"><g transform="translate(162.97459,42.08854)"><g data-paper-data="{&quot;isPaintingLayer&quot;:true}" fill-rule="nonzero" stroke-linejoin="miter" stroke-miterlimit="10" stroke-dasharray="" stroke-dashoffset="0" style="mix-blend-mode: normal"><path d="M604.02888,236.19777l0.15179,37.53337h-176.71134l-0.79117,-35.69419z" data-paper-data="{&quot;index&quot;:null}" fill="#4926f1" stroke="none" stroke-width="0" stroke-linecap="butt"/><path d="M607.48385,236.19212l-303.74005,0.01544" data-paper-data="{&quot;index&quot;:null}" fill="none" stroke="#3eb5fa" stroke-width="7" stroke-linecap="round"/><path d="M-144.42781,389.73291l-0.82078,-306.29206l81.45733,-12.49112l65.38597,55.85938l67.5971,2.82069l151.6493,-100.61601l215.71758,-0.48639l0.18578,84.95068l-126.26481,-0.33348l0.05145,119.55766l125.60205,0.16005l0.92949,26.11082l13.64681,8.29995h150.01111v122.45982z" fill="#4000af" stroke="none" stroke-width="0" stroke-linecap="butt"/><path d="M-160.55386,455.82217l-2.42073,-497.91071h778.82795l2.42073,497.91071z" fill="none" stroke="none" stroke-width="0" stroke-linecap="butt"/><path d="M73.8483,110.11212l-13.00863,28.5617h-51.50307c0,0 -7.98264,0.36517 -12.82657,-0.95079c-4.84393,-1.31596 -8.79354,-4.80479 -8.79354,-4.80479l5.7992,-25.22431z" data-paper-data="{&quot;index&quot;:null}" fill="#4926f1" stroke="none" stroke-width="0" stroke-linecap="butt"/><path d="M5.38842,105.82845l-17.44013,27.09385l-81.32833,-69.51495l41.82193,-4.01506z" data-paper-data="{&quot;index&quot;:null}" fill="#4926f1" stroke="none" stroke-width="0" stroke-linecap="butt"/><path d="M-53.15344,61.76224l1.78169,35.91449c0,0 -4.80262,-3.60538 -9.70203,-5.16667c-4.89941,-1.56129 -10.76072,-1.9133 -10.76072,-1.9133h-72.99125l-0.21543,-31.6608z" data-paper-data="{&quot;index&quot;:null}" fill="#4926f1" stroke="none" stroke-width="0" stroke-linecap="butt"/><path d="M223.61881,4.12848l15.79354,31.77048c0,0 -8.12422,0.11517 -12.35637,1.60317c-4.23215,1.48799 -9.07994,5.76702 -9.07994,5.76702l-120.02247,89.59836c0,0 -3.80424,2.7098 -7.52402,3.96641c-3.71978,1.25661 -9.00663,1.61795 -9.00663,1.61795l-23.12634,0.20204l7.7282,-27.48328l14.59092,-2.03153z" data-paper-data="{&quot;index&quot;:null}" fill="#4926f1" stroke="none" stroke-width="0" stroke-linecap="butt"/><path d="M436.61593,6.84024l-0.15947,28.93611l-206.86975,0.16667l-7.97564,-27.95262z" data-paper-data="{&quot;index&quot;:null}" fill="#4926f1" stroke="none" stroke-width="0" stroke-linecap="butt"/><path d="M433.22965,6.54803l-218.14637,0.13659l-133.14899,101.41114c0,0 -74.92473,0.37888 -75.94719,-0.51973c-5.48149,-4.81757 -54.44691,-47.03169 -54.44691,-47.03169l-92.81765,-0.16827" data-paper-data="{&quot;index&quot;:null}" fill="none" stroke="#3eb5fa" stroke-width="7" stroke-linecap="round"/></g></g></svg>