<svg version="1.1" xmlns="http://www.w3.org/2000/svg" xmlns:xlink="http://www.w3.org/1999/xlink" width="941.54544" height="520.07033" viewBox="0,0,941.54544,520.07033"><defs><linearGradient x1="633.99624" y1="34.79787" x2="633.99624" y2="133.09726" gradientUnits="userSpaceOnUse" id="color-1"><stop offset="0" stop-color="#ef1f9c"/><stop offset="1" stop-color="#ed358e"/></linearGradient><linearGradient x1="578.23223" y1="139.8843" x2="578.23223" y2="187.07482" gradientUnits="userSpaceOnUse" id="color-2"><stop offset="0" stop-color="#ec1f99"/><stop offset="1" stop-color="#ed358e"/></linearGradient><linearGradient x1="254.69153" y1="75.19688" x2="254.69153" y2="104.26408" gradientUnits="userSpaceOnUse" id="color-3"><stop offset="0" stop-color="#fffc45"/><stop offset="1" stop-color="#ffe134"/></linearGradient><linearGradient x1="144.51128" y1="74.98971" x2="144.51128" y2="104.05687" gradientUnits="userSpaceOnUse" id="color-4"><stop offset="0" stop-color="#fffc45"/><stop offset="1" stop-color="#ffe134"/></linearGradient><linearGradient x1="181.24989" y1="74.43637" x2="181.24989" y2="103.50359" gradientUnits="userSpaceOnUse" id="color-5"><stop offset="0" stop-color="#fffc45"/><stop offset="1" stop-color="#ffe134"/></linearGradient><linearGradient x1="218.52421" y1="74.36169" x2="218.52421" y2="103.42885" gradientUnits="userSpaceOnUse" id="color-6"><stop offset="0" stop-color="#fffc45"/><stop offset="1" stop-color="#ffe134"/></linearGradient><linearGradient x1="122.18575" y1="86.4508" x2="122.18575" y2="117.97057" gradientUnits="userSpaceOnUse" id="color-7"><stop offset="0" stop-color="#fef23f"/><stop offset="1" stop-color="#ffe537"/></linearGradient><linearGradient x1="275.05503" y1="85.62065" x2="275.05503" y2="117.32935" gradientUnits="userSpaceOnUse" id="color-8"><stop offset="0" stop-color="#fef23f"/><stop offset="1" stop-color="#ffe537"/></linearGradient><linearGradient x1="182.84887" y1="79.51368" x2="182.84887" y2="110.75567" gradientUnits="userSpaceOnUse" id="color-9"><stop offset="0" stop-color="#fff642"/><stop offset="1" stop-color="#ffe335"/></linearGradient><linearGradient x1="86.92181" y1="113.06004" x2="86.92181" y2="142.1272" gradientUnits="userSpaceOnUse" id="color-10"><stop offset="0" stop-color="#fffc45"/><stop offset="1" stop-color="#ffe134"/></linearGradient><linearGradient x1="123.66037" y1="111.50677" x2="123.66037" y2="140.57389" gradientUnits="userSpaceOnUse" id="color-11"><stop offset="0" stop-color="#fffc45"/><stop offset="1" stop-color="#ffe134"/></linearGradient><linearGradient x1="160.93461" y1="112.43206" x2="160.93461" y2="141.49919" gradientUnits="userSpaceOnUse" id="color-12"><stop offset="0" stop-color="#fffc45"/><stop offset="1" stop-color="#ffe134"/></linearGradient><linearGradient x1="64.59623" y1="124.52116" x2="64.59623" y2="156.04093" gradientUnits="userSpaceOnUse" id="color-13"><stop offset="0" stop-color="#fef23f"/><stop offset="1" stop-color="#ffe537"/></linearGradient><linearGradient x1="184.41893" y1="123.69101" x2="184.41893" y2="155.39966" gradientUnits="userSpaceOnUse" id="color-14"><stop offset="0" stop-color="#fef23f"/><stop offset="1" stop-color="#ffe537"/></linearGradient><linearGradient x1="125.2593" y1="117.58404" x2="125.2593" y2="148.82603" gradientUnits="userSpaceOnUse" id="color-15"><stop offset="0" stop-color="#fff642"/><stop offset="1" stop-color="#ffe335"/></linearGradient><linearGradient x1="-182.62225" y1="99.61274" x2="-182.62225" y2="128.67983" gradientUnits="userSpaceOnUse" id="color-16"><stop offset="0" stop-color="#fffc45"/><stop offset="1" stop-color="#ffe134"/></linearGradient><linearGradient x1="-37.42039" y1="99.81988" x2="-37.42039" y2="128.88703" gradientUnits="userSpaceOnUse" id="color-17"><stop offset="0" stop-color="#fffc45"/><stop offset="1" stop-color="#ffe134"/></linearGradient><linearGradient x1="-147.60058" y1="98.84718" x2="-147.60058" y2="127.91432" gradientUnits="userSpaceOnUse" id="color-18"><stop offset="0" stop-color="#fffc45"/><stop offset="1" stop-color="#ffe134"/></linearGradient><linearGradient x1="-110.86198" y1="99.53799" x2="-110.86198" y2="128.60512" gradientUnits="userSpaceOnUse" id="color-19"><stop offset="0" stop-color="#fffc45"/><stop offset="1" stop-color="#ffe134"/></linearGradient><linearGradient x1="-73.58769" y1="99.46323" x2="-73.58769" y2="128.53037" gradientUnits="userSpaceOnUse" id="color-20"><stop offset="0" stop-color="#fffc45"/><stop offset="1" stop-color="#ffe134"/></linearGradient><linearGradient x1="-203.87566" y1="111.0738" x2="-203.87566" y2="142.59357" gradientUnits="userSpaceOnUse" id="color-21"><stop offset="0" stop-color="#fef23f"/><stop offset="1" stop-color="#ffe537"/></linearGradient><linearGradient x1="-17.05689" y1="110.24367" x2="-17.05689" y2="141.95229" gradientUnits="userSpaceOnUse" id="color-22"><stop offset="0" stop-color="#fef23f"/><stop offset="1" stop-color="#ffe537"/></linearGradient><linearGradient x1="-108.54831" y1="104.13668" x2="-108.54831" y2="135.37868" gradientUnits="userSpaceOnUse" id="color-23"><stop offset="0" stop-color="#fff642"/><stop offset="1" stop-color="#ffe335"/></linearGradient></defs><g transform="translate(230.54212,42.08845)"><g data-paper-data="{&quot;isPaintingLayer&quot;:true}" fill-rule="nonzero" stroke-linejoin="miter" stroke-miterlimit="10" stroke-dasharray="" stroke-dashoffset="0" style="mix-blend-mode: normal"><g><g data-paper-data="{&quot;origPos&quot;:null}"><path d="M580.20422,211.61422c0,0 -3.07864,-0.31561 -4.33354,-1.62949c-1.25491,-1.31387 -1.29172,-4.26011 -1.29172,-4.26011l-0.48391,-24.19509l11.26869,1.77327l0.03914,14.21097c0,0 0.20342,1.16355 0.74889,1.701c0.54547,0.53745 1.73436,0.74571 1.73436,0.74571h17.68062v11.89307z" data-paper-data="{&quot;origPos&quot;:null,&quot;index&quot;:null}" fill="#910049" stroke="none" stroke-width="0" stroke-linecap="butt"/><path d="M648.74799,169.43577v-11.07252h18.39703c0,0 1.18887,-0.20824 1.73434,-0.74569c0.54547,-0.53745 0.7489,-1.70101 0.7489,-1.70101l0.03914,-14.21097l10.96369,-1.77327l-0.04058,23.34034c0,0 -0.03682,2.94624 -1.29172,4.26011c-1.2549,1.31387 -4.33354,1.62949 -4.33354,1.62949z" data-paper-data="{&quot;origPos&quot;:null}" fill="#910049" stroke="none" stroke-width="0" stroke-linecap="butt"/><g data-paper-data="{&quot;origPos&quot;:null}"><path d="M601.57445,238.7922v-106.59717h51.0788v106.59717z" data-paper-data="{&quot;origPos&quot;:null}" fill="#910044" stroke="none" stroke-width="0" stroke-linecap="butt"/><path d="M642.85746,238.28783l-0.21508,-104.83522l10.17111,-0.87545c0,0 0,31.45616 0,51.02937c0,21.34008 0,54.68131 0,54.68131z" data-paper-data="{&quot;origPos&quot;:null}" fill="#a30052" stroke="none" stroke-width="0" stroke-linecap="butt"/><path d="M601.30181,237.40686v-104.83522h10.17111l-0.21508,104.83522z" data-paper-data="{&quot;origPos&quot;:null}" fill="#a30052" stroke="none" stroke-width="0" stroke-linecap="butt"/><path d="M611.51969,143.01264v-10.79462h30.94622v10.79462z" data-paper-data="{&quot;origPos&quot;:null}" fill="#85003e" stroke="none" stroke-width="0" stroke-linecap="butt"/><path d="M642.46454,143.23151v-11.01211h10.39027v11.01211z" data-paper-data="{&quot;origPos&quot;:null}" fill="#780041" stroke="none" stroke-width="0" stroke-linecap="butt"/><path d="M601.46971,143.01127v-10.57162h10.17654v10.57162z" data-paper-data="{&quot;origPos&quot;:null}" fill="#780041" stroke="none" stroke-width="0" stroke-linecap="butt"/><path d="M669.7368,142.79103l-0.21508,-11.0121h11.01561l0.21508,11.0121z" data-paper-data="{&quot;origPos&quot;:null}" fill="#780041" stroke="none" stroke-width="0" stroke-linecap="butt"/><path d="M615.95366,186.45947v-30.90903" data-paper-data="{&quot;origPos&quot;:null}" fill="none" stroke="#b30064" stroke-width="10" stroke-linecap="round"/><path d="M638.15415,203.5336v27.71065" data-paper-data="{&quot;origPos&quot;:null}" fill="none" stroke="#b3005d" stroke-width="10" stroke-linecap="round"/><path d="M637.61914,167.38199v6.2835" data-paper-data="{&quot;origPos&quot;:null}" fill="none" stroke="#a8005e" stroke-width="10" stroke-linecap="round"/></g><path d="M574.41924,195.75335v-11.01211h10.80125v11.01211z" data-paper-data="{&quot;origPos&quot;:null}" fill="#780041" stroke="none" stroke-width="0" stroke-linecap="butt"/></g><g data-paper-data="{&quot;origPos&quot;:null}" stroke="none" stroke-width="0" stroke-linecap="butt"><path d="M560.73138,116.42751v-55.57568c0,0 0.7238,-11.67746 7.37984,-18.67413c6.46328,-6.79405 18.1695,-6.99143 18.1695,-6.99143l95.5495,-0.38841c0,0 11.69077,0.41669 18.55791,8.15666c5.39689,6.08285 6.34725,15.98302 6.34725,15.98302l0.52576,60.55091l-18.38599,13.60881l-113.48673,-0.31994z" data-paper-data="{&quot;origPos&quot;:null}" fill="url(#color-1)"/><path d="M592.2694,57.23372c0,-3.64673 2.95627,-6.60301 6.60301,-6.60301c3.64675,0 6.60301,2.95627 6.60301,6.60301c0,3.64675 -2.95628,6.60302 -6.60301,6.60302c-3.64675,0 -6.60301,-2.95627 -6.60301,-6.60302z" data-paper-data="{&quot;origPos&quot;:null}" fill="#fc26ae"/><path d="M666.84462,64.41935c0,-2.25241 1.82593,-4.07834 4.07834,-4.07834c2.2524,0 4.07833,1.82593 4.07833,4.07834c0,2.25241 -1.82592,4.07834 -4.07833,4.07834c-2.2524,0 -4.07834,-1.82593 -4.07834,-4.07834z" data-paper-data="{&quot;origPos&quot;:null}" fill="#fc26ae"/><path d="M588.77365,95.32441c0,-4.50481 3.65187,-8.15667 8.15665,-8.15667c4.50481,0 8.15667,3.65187 8.15667,8.15667c0,4.5048 -3.65187,8.15665 -8.15667,8.15665c-4.50481,0 -8.15665,-3.65186 -8.15665,-8.15665z" data-paper-data="{&quot;origPos&quot;:null}" fill="#f916a6"/><path d="M628.39179,90.08084c0,-3.53949 2.86933,-6.40881 6.40881,-6.40881c3.53949,0 6.4088,2.86933 6.4088,6.40881c0,3.53949 -2.86932,6.40881 -6.4088,6.40881c-3.53949,0 -6.40881,-2.86933 -6.40881,-6.40881z" data-paper-data="{&quot;origPos&quot;:null}" fill="#f725aa"/><path d="M667.22274,110.32157c0,-2.78868 2.26068,-5.04937 5.04937,-5.04937c2.78868,0 5.04936,2.26068 5.04936,5.04937c0,2.78869 -2.26068,5.04936 -5.04936,5.04936c-2.78868,0 -5.04937,-2.26068 -5.04937,-5.04936z" data-paper-data="{&quot;origPos&quot;:null}" fill="#eb0597"/><path d="M557.76506,117.41349c0,-3.53948 2.86933,-6.4088 6.40881,-6.4088c3.53949,0 6.40881,2.86933 6.40881,6.4088c0,3.53948 -2.86932,6.40881 -6.40881,6.40881c-3.53949,0 -6.40881,-2.86932 -6.40881,-6.40881z" data-paper-data="{&quot;origPos&quot;:null}" fill="#f0059a"/><path d="M564.81265,127.56839c0,-4.39755 3.56491,-7.96245 7.96246,-7.96245c4.39754,0 7.96246,3.5649 7.96246,7.96245c0,4.39754 -3.56492,7.96245 -7.96246,7.96245c-4.39754,0 -7.96246,-3.5649 -7.96246,-7.96245z" data-paper-data="{&quot;origPos&quot;:null}" fill="#e60593"/><path d="M605.98439,130.28726c0,-3.53948 2.86932,-6.4088 6.40881,-6.4088c3.53949,0 6.4088,2.86933 6.4088,6.4088c0,3.53948 -2.86933,6.4088 -6.4088,6.4088c-3.53949,0 -6.40881,-2.86933 -6.40881,-6.4088z" data-paper-data="{&quot;origPos&quot;:null}" fill="#e60593"/><path d="M617.51618,128.33947c0,-5.36286 4.34746,-9.71031 9.71032,-9.71031c5.36286,0 9.71031,4.34745 9.71031,9.71031c0,5.36286 -4.34745,9.71031 -9.71031,9.71031c-5.36286,0 -9.71032,-4.34745 -9.71032,-9.71031z" data-paper-data="{&quot;origPos&quot;:null}" fill="#e60593"/><path d="M680.71961,129.45945c0,-3.754 3.04322,-6.79722 6.79723,-6.79722c3.754,0 6.79722,3.04322 6.79722,6.79722c0,3.75399 -3.04322,6.79722 -6.79722,6.79722c-3.754,0 -6.79723,-3.04322 -6.79723,-6.79722z" data-paper-data="{&quot;origPos&quot;:null}" fill="#e81786"/><path d="M698.899,108.58313c0,-3.34252 2.70965,-6.05216 6.05216,-6.05216c3.34251,0 6.05217,2.70965 6.05217,6.05216c0,3.34252 -2.70966,6.05217 -6.05217,6.05217c-3.34251,0 -6.05216,-2.70965 -6.05216,-6.05217z" data-paper-data="{&quot;origPos&quot;:null}" fill="#f0059a"/><path d="M691.53843,121.45336c0,-4.98846 4.04393,-9.03239 9.03238,-9.03239c4.98845,0 9.03238,4.04393 9.03238,9.03239c0,4.98845 -4.04393,9.03239 -9.03238,9.03239c-4.98845,0 -9.03238,-4.04394 -9.03238,-9.03239z" data-paper-data="{&quot;origPos&quot;:null}" fill="#e81786"/></g><g data-paper-data="{&quot;origPos&quot;:null}" stroke="none" stroke-width="0" stroke-linecap="butt"><path d="M542.95179,184.26664l0.21644,-31.87462c0,0 0.34746,-5.606 3.54283,-8.96489c3.10282,-3.26161 8.72262,-3.35636 8.72262,-3.35636l45.87039,-0.18646c0,0 5.61238,0.20004 8.90909,3.91578c2.59088,2.92019 3.04713,7.67295 3.04713,7.67295l0.25239,29.06863l-9.25942,6.53318l-54.04863,-0.15359z" data-paper-data="{&quot;origPos&quot;:null}" fill="url(#color-2)"/><path d="M560.02185,153.86092c0,-3.04811 2.47099,-5.51911 5.51911,-5.51911c3.04812,0 5.5191,2.471 5.5191,5.51911c0,3.04811 -2.47099,5.5191 -5.5191,5.5191c-3.04812,0 -5.51911,-2.47099 -5.51911,-5.5191z" data-paper-data="{&quot;origPos&quot;:null}" fill="#fc26ae"/><path d="M542.92342,184.87055c0,-3.28719 2.66479,-5.95199 5.95198,-5.95199c3.28719,0 5.95198,2.6648 5.95198,5.95199c0,3.28719 -2.66479,5.95198 -5.95198,5.95198c-3.28719,0 -5.95198,-2.66479 -5.95198,-5.95198z" data-paper-data="{&quot;origPos&quot;:null}" fill="#ed358e"/><path d="M591.40501,148.77468c0,-2.03207 1.64733,-3.67941 3.67941,-3.67941c2.03207,0 3.6794,1.64733 3.6794,3.67941c0,2.03207 -1.64732,3.6794 -3.6794,3.6794c-2.03207,0 -3.67941,-1.64732 -3.67941,-3.6794z" fill="#fc26ae"/><path d="M539.02758,174.09764c0,-3.22742 2.61634,-5.84376 5.84376,-5.84376c3.22742,0 5.84376,2.61634 5.84376,5.84376c0,3.22742 -2.61634,5.84375 -5.84376,5.84375c-3.22742,0 -5.84376,-2.61634 -5.84376,-5.84375z" data-paper-data="{&quot;origPos&quot;:null}" fill="#f511a1"/><path d="M566.77059,183.978c0,-4.18369 3.39156,-7.57524 7.57524,-7.57524c4.18369,0 7.57524,3.39156 7.57524,7.57524c0,4.18369 -3.39156,7.57524 -7.57524,7.57524c-4.18369,0 -7.57524,-3.39155 -7.57524,-7.57524z" data-paper-data="{&quot;origPos&quot;:null}" fill="#e60593"/><path d="M594.86797,185.08697c0,-3.28719 2.66479,-5.95198 5.95198,-5.95198c3.28719,0 5.95198,2.66479 5.95198,5.95198c0,3.28719 -2.6648,5.95198 -5.95198,5.95198c-3.28719,0 -5.95198,-2.66479 -5.95198,-5.95198z" data-paper-data="{&quot;origPos&quot;:null}" fill="#e60593"/><path d="M599.66883,177.48494c0,-4.18369 3.39155,-7.57524 7.57524,-7.57524c4.1837,0 7.57524,3.39155 7.57524,7.57524c0,4.18369 -3.39156,7.57524 -7.57524,7.57524c-4.18369,0 -7.57524,-3.39156 -7.57524,-7.57524z" data-paper-data="{&quot;origPos&quot;:null}" fill="#f0059a"/></g></g><path d="M604.02888,236.19785l2.79577,37.53337h-305.2131l-0.79117,-35.69419z" data-paper-data="{&quot;index&quot;:null}" fill="#4926f1" stroke="none" stroke-width="0" stroke-linecap="butt"/><path d="M606.4839,236.19219l-302.0837,0.01544" data-paper-data="{&quot;index&quot;:null}" fill="none" stroke="#3eb5fa" stroke-width="7" stroke-linecap="round"/><path d="M-68.2416,470.11115l2.67961,-298.91969l-80.63335,0.44694l-0.01979,-88.19747l82.42389,-12.49112l65.38597,55.85938l67.5971,2.82069l151.6493,-100.61601l215.71758,-0.48639l0.45041,204.53623l-126.68465,-0.14169l0.02618,26.05121l13.64681,8.29995h279.36711v122.45982h-482.20795l-13.69721,88.24888z" fill="#4000af" stroke="none" stroke-width="0" stroke-linecap="butt"/><path d="M-227.92108,455.82226l-2.62103,-497.91071h846.13411l2.62103,497.91071z" fill="none" stroke="none" stroke-width="0" stroke-linecap="butt"/><path d="M338.85526,259.82617h-20.99025" data-paper-data="{&quot;index&quot;:null}" fill="none" stroke="#4926f1" stroke-width="15" stroke-linecap="round"/><path d="M73.84832,110.1122l-13.00863,28.5617h-51.50307c0,0 -6.89428,0.36517 -11.73821,-0.95079c-4.84393,-1.31596 -8.79354,-4.80479 -8.79354,-4.80479l4.71084,-25.22431z" data-paper-data="{&quot;index&quot;:null}" fill="#4926f1" stroke="none" stroke-width="0" stroke-linecap="butt"/><path d="M5.38843,105.82853l-16.71456,27.09385l-82.0539,-69.51495l41.82193,-4.01506z" data-paper-data="{&quot;index&quot;:null}" fill="#4926f1" stroke="none" stroke-width="0" stroke-linecap="butt"/><path d="M-54.65493,61.76229l1.78169,35.91449c0,0 -4.80262,-3.60538 -9.70203,-5.16667c-4.89941,-1.56129 -10.76072,-1.9133 -10.76072,-1.9133h-72.99125l-0.21543,-31.6608z" data-paper-data="{&quot;index&quot;:null}" fill="#4926f1" stroke="none" stroke-width="0" stroke-linecap="butt"/><path d="M223.61886,4.12851l15.79354,31.77048c0,0 -8.12422,0.11517 -12.35637,1.60317c-4.23215,1.48799 -9.07994,5.76702 -9.07994,5.76702l-120.02247,89.59836c0,0 -3.80424,2.7098 -7.52402,3.96641c-3.71978,1.25661 -9.00663,1.61795 -9.00663,1.61795l-23.12635,0.20204l7.7282,-27.48328l14.59092,-2.03153z" data-paper-data="{&quot;index&quot;:null}" fill="#4926f1" stroke="none" stroke-width="0" stroke-linecap="butt"/><path d="M436.61598,6.84029l-0.15947,28.93611l-206.86975,0.16667l-7.97564,-27.95262z" data-paper-data="{&quot;index&quot;:null}" fill="#4926f1" stroke="none" stroke-width="0" stroke-linecap="butt"/><path d="M433.22968,6.54807l-218.14637,0.13659l-133.14899,101.41114c0,0 -74.92474,0.37888 -75.9472,-0.51973c-5.48149,-4.81757 -54.44691,-47.0317 -54.44691,-47.0317l-94.31915,-0.16827" data-paper-data="{&quot;index&quot;:null}" fill="none" stroke="#3eb5fa" stroke-width="7" stroke-linecap="round"/><path d="M-49.18979,172.2619l41.66673,0.4153" data-paper-data="{&quot;index&quot;:null}" fill="none" stroke="#3d00a3" stroke-width="30" stroke-linecap="round"/><path d="M-18.98142,201.70404h54.22621" data-paper-data="{&quot;index&quot;:null}" fill="none" stroke="#39009c" stroke-width="30" stroke-linecap="round"/><path d="M369.98923,23.06304l-44.88977,-0.20029" fill="none" stroke="#502bff" stroke-width="25" stroke-linecap="round"/><path d="M521.29412,305.45125l-49.66475,0.4153" data-paper-data="{&quot;index&quot;:null}" fill="none" stroke="#3d00a3" stroke-width="30" stroke-linecap="round"/><g><path d="M278.64234,97.3736c0,12.24786 -27.05558,4.43533 -27.05558,4.43533c0,0 -20.84611,7.81253 -20.84611,-4.43533c0,-12.24786 10.72315,-22.17671 23.95085,-22.17671c13.22768,0 23.95085,9.92885 23.95085,22.17671z" fill="url(#color-3)" stroke="none" stroke-width="NaN" stroke-linecap="butt"/><path d="M168.46212,97.1664c0,12.24786 -27.05558,4.43534 -27.05558,4.43534c0,0 -20.84611,7.81253 -20.84611,-4.43534c0,-12.24786 10.72316,-22.17671 23.95085,-22.17671c13.22768,0 23.95085,9.92885 23.95085,22.17671z" fill="url(#color-4)" stroke="none" stroke-width="NaN" stroke-linecap="butt"/><path d="M205.20077,96.61311c0,12.24786 -27.05558,4.43534 -27.05558,4.43534c0,0 -20.84611,7.81253 -20.84611,-4.43534c0,-12.24786 10.72315,-22.17671 23.95085,-22.17671c13.22768,0 23.95085,9.92885 23.95085,22.17671z" fill="url(#color-5)" stroke="none" stroke-width="NaN" stroke-linecap="butt"/><path d="M242.47504,96.53842c0,12.24786 -27.05558,4.43533 -27.05558,4.43533c0,0 -20.84611,7.81253 -20.84611,-4.43533c0,-12.24786 10.72315,-22.17671 23.95085,-22.17671c13.22768,0 23.95085,9.92885 23.95085,22.17671z" fill="url(#color-6)" stroke="none" stroke-width="NaN" stroke-linecap="butt"/><path d="M137.70945,101.53099c0,8.32855 -9.25434,16.4396 -17.82784,16.4396c-8.5735,0 -13.21955,-8.11106 -13.21955,-16.4396c0,-8.32855 6.9502,-15.08016 15.5237,-15.08016c8.5735,0 15.5237,6.75161 15.5237,15.08016z" fill="url(#color-7)" stroke="none" stroke-width="0" stroke-linecap="butt"/><path d="M290.57867,100.7008c0,8.32855 -4.653,16.62852 -13.2265,16.62852c-8.5735,0 -17.8209,-8.29997 -17.8209,-16.62852c0,-5.66446 1.89289,-9.10116 6.55884,-12.31285c3.06243,-2.10796 5.24708,-2.76731 8.96486,-2.76731c8.5735,0 15.5237,6.75162 15.5237,15.08016z" fill="url(#color-8)" stroke="none" stroke-width="0" stroke-linecap="butt"/><path d="M116.60922,111.72917l14.25869,-30.25757l130.33844,-0.21287c0,0 3.52579,8.43051 5.51725,13.19231c2.3513,5.6222 7.69118,18.39037 7.69118,18.39037z" fill="url(#color-9)" stroke="none" stroke-width="0" stroke-linecap="butt"/><path d="M262.37922,110.29516c4.49921,2.53063 -11.64155,3.31201 -19.47867,3.31201c-7.83713,0 -14.74844,5.59214 -14.74844,-0.28571c0,-0.3259 -6.74029,-3.09679 -6.44485,-3.23435c2.99165,-1.39289 5.67713,-1.54472 7.80643,-2.82298c4.68556,-2.81281 7.96956,-2.71514 12.8288,-2.71514c0,0 5.05677,-0.65893 9.67257,2.34864c3.43195,1.91012 5.19549,1.76922 10.36417,3.39752z" fill="#ffd426" stroke="none" stroke-width="0" stroke-linecap="butt"/><path d="M277.22912,114.88092c-6.01476,0 -161.16562,0 -161.16562,0" fill="#ffd426" stroke="#ffd426" stroke-width="10" stroke-linecap="round"/><path d="M183.48342,110.50665c4.49921,2.53063 -11.64155,3.31201 -19.47868,3.31201c-7.83713,0 -14.74843,5.59214 -14.74843,-0.28571c0,-0.3259 -6.74029,-3.09679 -6.44485,-3.23435c2.99165,-1.39289 5.67713,-1.54472 7.80643,-2.82298c4.68556,-2.81281 7.96956,-2.71514 12.8288,-2.71514c0,0 5.05677,-0.65893 9.67257,2.34864c3.43195,1.91012 5.19549,1.76923 10.36417,3.39753z" fill="#ffd426" stroke="none" stroke-width="0" stroke-linecap="butt"/><path d="M220.66474,110.29515c4.49921,2.53063 -11.64155,3.31201 -19.47867,3.31201c-7.83713,0 -14.74844,5.59214 -14.74844,-0.28571c0,-0.3259 -6.74029,-3.09679 -6.44485,-3.23435c2.99165,-1.39289 5.67713,-1.54472 7.80643,-2.82298c4.68556,-2.81281 7.96956,-2.71514 12.8288,-2.71514c0,0 5.05677,-0.65893 9.67257,2.34864c3.43195,1.91012 5.19549,1.76922 10.36417,3.39752z" fill="#ffd426" stroke="none" stroke-width="0" stroke-linecap="butt"/></g><g><path d="M110.87264,135.23676c0,12.24786 -27.05558,4.43534 -27.05558,4.43534c0,0 -20.84611,7.81253 -20.84611,-4.43534c0,-12.24786 10.72316,-22.17671 23.95085,-22.17671c13.22768,0 23.95085,9.92885 23.95085,22.17671z" fill="url(#color-10)" stroke="none" stroke-width="NaN" stroke-linecap="butt"/><path d="M147.61113,133.68347c0,12.24786 -27.05558,4.43534 -27.05558,4.43534c0,0 -20.84611,7.81253 -20.84611,-4.43534c0,-12.24786 10.72315,-22.17671 23.95085,-22.17671c13.22768,0 23.95085,9.92885 23.95085,22.17671z" fill="url(#color-11)" stroke="none" stroke-width="NaN" stroke-linecap="butt"/><path d="M184.88548,134.60872c0,12.24786 -27.05558,4.43533 -27.05558,4.43533c0,0 -20.84611,7.81253 -20.84611,-4.43533c0,-12.24786 10.72315,-22.17671 23.95085,-22.17671c13.22768,0 23.95085,9.92885 23.95085,22.17671z" fill="url(#color-12)" stroke="none" stroke-width="NaN" stroke-linecap="butt"/><path d="M80.11992,139.60129c0,8.32855 -9.25434,16.4396 -17.82784,16.4396c-8.5735,0 -13.21955,-8.11106 -13.21955,-16.4396c0,-8.32855 6.9502,-15.08016 15.5237,-15.08016c8.5735,0 15.5237,6.75161 15.5237,15.08016z" fill="url(#color-13)" stroke="none" stroke-width="0" stroke-linecap="butt"/><path d="M199.94266,138.77115c0,8.32855 -4.653,16.62852 -13.2265,16.62852c-8.5735,0 -17.8209,-8.29997 -17.8209,-16.62852c0,-5.66446 1.89289,-9.10116 6.55884,-12.31285c3.06243,-2.10796 5.24708,-2.76731 8.96486,-2.76731c8.5735,0 15.5237,6.75162 15.5237,15.08016z" fill="url(#color-14)" stroke="none" stroke-width="0" stroke-linecap="butt"/><path d="M59.0197,149.79953l14.25869,-30.25757l101.06867,-0.21287l13.20843,31.58268z" fill="url(#color-15)" stroke="none" stroke-width="0" stroke-linecap="butt"/><path d="M58.47398,152.21923c0,0 126.82527,0 132.84003,0" fill="#ffd426" stroke="#ffd426" stroke-width="10" stroke-linecap="round"/><path d="M125.89389,148.57697c4.49921,2.53063 -11.64155,3.31201 -19.47868,3.31201c-7.83713,0 -14.74843,5.59214 -14.74843,-0.28571c0,-0.3259 -6.74029,-3.09679 -6.44485,-3.23435c2.99165,-1.39289 5.67713,-1.54472 7.80643,-2.82298c4.68556,-2.81281 7.96956,-2.71514 12.8288,-2.71514c0,0 5.05677,-0.65893 9.67257,2.34864c3.43195,1.91012 5.19549,1.76923 10.36417,3.39753z" fill="#ffd426" stroke="none" stroke-width="0" stroke-linecap="butt"/><path d="M163.07513,148.36547c4.49921,2.53063 -11.64155,3.31201 -19.47867,3.31201c-7.83713,0 -14.74844,5.59214 -14.74844,-0.28571c0,-0.3259 -6.74029,-3.09679 -6.44485,-3.23435c2.99165,-1.39289 5.67713,-1.54472 7.80643,-2.82298c4.68556,-2.81281 7.96956,-2.71514 12.8288,-2.71514c0,0 5.05677,-0.65893 9.67257,2.34864c3.43195,1.91012 5.19549,1.76922 10.36417,3.39752z" fill="#ffd426" stroke="none" stroke-width="0" stroke-linecap="butt"/></g><g><path d="M-158.67139,121.78942c0,12.24786 -27.05558,4.43534 -27.05558,4.43534c0,0 -20.84611,7.81253 -20.84611,-4.43534c0,-12.24786 10.72316,-22.17671 23.95085,-22.17671c13.22768,0 23.95085,9.92885 23.95085,22.17671z" fill="url(#color-16)" stroke="none" stroke-width="NaN" stroke-linecap="butt"/><g><path d="M-13.46955,121.99662c0,12.24786 -27.05558,4.43533 -27.05558,4.43533c0,0 -20.84611,7.81253 -20.84611,-4.43533c0,-12.24786 10.72315,-22.17671 23.95085,-22.17671c13.22768,0 23.95085,9.92885 23.95085,22.17671z" fill="url(#color-17)" stroke="none" stroke-width="NaN" stroke-linecap="butt"/><path d="M-123.64973,121.02386c0,12.24786 -27.05558,4.43534 -27.05558,4.43534c0,0 -20.84611,7.81253 -20.84611,-4.43534c0,-12.24786 10.72316,-22.17671 23.95085,-22.17671c13.22768,0 23.95085,9.92885 23.95085,22.17671z" fill="url(#color-18)" stroke="none" stroke-width="NaN" stroke-linecap="butt"/><path d="M-86.91113,121.71467c0,12.24786 -27.05558,4.43534 -27.05558,4.43534c0,0 -20.84611,7.81253 -20.84611,-4.43534c0,-12.24786 10.72315,-22.17671 23.95085,-22.17671c13.22768,0 23.95085,9.92885 23.95085,22.17671z" fill="url(#color-19)" stroke="none" stroke-width="NaN" stroke-linecap="butt"/><path d="M-49.63686,121.63998c0,12.24786 -27.05558,4.43533 -27.05558,4.43533c0,0 -20.84611,7.81253 -20.84611,-4.43533c0,-12.24786 10.72315,-22.17671 23.95085,-22.17671c13.22768,0 23.95085,9.92885 23.95085,22.17671z" fill="url(#color-20)" stroke="none" stroke-width="NaN" stroke-linecap="butt"/><path d="M-188.35202,126.15397c0,8.32855 -9.25434,16.4396 -17.82784,16.4396c-8.5735,0 -13.21955,-8.11106 -13.21955,-16.4396c0,-8.32855 6.9502,-15.08016 15.5237,-15.08016c8.5735,0 15.5237,6.75161 15.5237,15.08016z" fill="url(#color-21)" stroke="none" stroke-width="0" stroke-linecap="butt"/><path d="M-1.53317,125.32382c0,8.32855 -4.653,16.62852 -13.2265,16.62852c-8.5735,0 -17.8209,-8.29997 -17.8209,-16.62852c0,-5.66446 1.89289,-9.10116 6.55884,-12.31285c3.06243,-2.10796 5.24708,-2.76731 8.96486,-2.76731c8.5735,0 15.5237,6.75162 15.5237,15.08016z" fill="url(#color-22)" stroke="none" stroke-width="0" stroke-linecap="butt"/><path d="M-206.23595,137.78164l7.82614,-31.68702l168.21899,-0.21287c0,0 3.52579,8.43051 5.51725,13.19231c2.3513,5.6222 7.69118,18.39037 7.69118,18.39037z" fill="url(#color-23)" stroke="none" stroke-width="0" stroke-linecap="butt"/><path d="M-29.7327,134.91816c4.49921,2.53063 -11.64155,3.31201 -19.47867,3.31201c-7.83713,0 -14.74844,5.59214 -14.74844,-0.28571c0,-0.3259 -6.74029,-3.09679 -6.44485,-3.23435c2.99165,-1.39289 5.67713,-1.54472 7.80643,-2.82298c4.68556,-2.81281 7.96956,-2.71514 12.8288,-2.71514c0,0 5.05677,-0.65893 9.67257,2.34864c3.43195,1.91012 5.19549,1.76922 10.36417,3.39752z" fill="#ffd426" stroke="none" stroke-width="0" stroke-linecap="butt"/><path d="M-207.85372,138.7719c0,0 186.95622,0 192.97098,0" fill="#ffd426" stroke="#ffd426" stroke-width="10" stroke-linecap="round"/><path d="M-109.70054,135.1296c4.49921,2.53063 -11.64155,3.31201 -19.47868,3.31201c-7.83713,0 -14.74843,5.59214 -14.74843,-0.28571c0,-0.3259 -6.74029,-3.09679 -6.44485,-3.23435c2.99165,-1.39289 5.67713,-1.54472 7.80643,-2.82298c4.68556,-2.81281 7.96956,-2.71514 12.8288,-2.71514c0,0 5.05677,-0.65893 9.67257,2.34864c3.43195,1.91012 5.19549,1.76923 10.36417,3.39753z" fill="#ffd426" stroke="none" stroke-width="0" stroke-linecap="butt"/><path d="M-71.44717,134.9181c4.49921,2.53063 -11.64155,3.31201 -19.47867,3.31201c-7.83713,0 -14.74844,5.59214 -14.74844,-0.28571c0,-0.3259 -6.74029,-3.09679 -6.44485,-3.23435c2.99165,-1.39289 5.67713,-1.54472 7.80643,-2.82298c4.68556,-2.81281 7.96956,-2.71514 12.8288,-2.71514c0,0 5.05677,-0.65893 9.67257,2.34864c3.43195,1.91012 5.19549,1.76922 10.36417,3.39752z" fill="#ffd426" stroke="none" stroke-width="0" stroke-linecap="butt"/></g><path d="M-150.7974,135.1296c4.49921,2.53063 -11.64155,3.31201 -19.47868,3.31201c-7.83713,0 -14.74843,5.59214 -14.74843,-0.28571c0,-0.3259 -6.74029,-3.09679 -6.44485,-3.23435c2.99165,-1.39289 5.67713,-1.54472 7.80643,-2.82298c4.68556,-2.81281 7.96956,-2.71514 12.8288,-2.71514c0,0 5.05677,-0.65893 9.67257,2.34864c3.43195,1.91012 5.19549,1.76923 10.36417,3.39753z" fill="#ffd426" stroke="none" stroke-width="0" stroke-linecap="butt"/></g><path d="M393.80348,66.69774l-49.66475,0.4153" data-paper-data="{&quot;index&quot;:null}" fill="none" stroke="#3d00a3" stroke-width="30" stroke-linecap="round"/><path d="M-113.00613,72.08523h29.53836" data-paper-data="{&quot;index&quot;:null}" fill="none" stroke="#4b2af5" stroke-width="15" stroke-linecap="round"/><g data-paper-data="{&quot;index&quot;:null}" fill="none" stroke-linecap="round"><path d="M304.27937,151.69551h67.16318" data-paper-data="{&quot;index&quot;:null}" stroke="#3d00a3" stroke-width="30"/><path d="M364.47361,181.17587h-53.32889" data-paper-data="{&quot;index&quot;:null}" stroke="#3d00a3" stroke-width="29.5"/><path d="M246.9985,210.73235h148.54298" data-paper-data="{&quot;index&quot;:null}" stroke="#3d00a3" stroke-width="30"/><path d="M399.51056,181.49706h-32.61701" data-paper-data="{&quot;index&quot;:null}" stroke="#4000af" stroke-width="29"/><path d="M307.30248,181.0394h-44.32889" data-paper-data="{&quot;index&quot;:null}" stroke="#4000af" stroke-width="29"/></g><path d="M310.02082,232.94973v-120.52056h126.69102v120.23581z" fill="#260068" stroke="none" stroke-width="0" stroke-linecap="butt"/></g></g></svg>