<svg version="1.1" xmlns="http://www.w3.org/2000/svg" xmlns:xlink="http://www.w3.org/1999/xlink" width="170" height="185" viewBox="0,0,170,185"><g transform="translate(-158.55707,-83.66847)"><g data-paper-data="{&quot;isPaintingLayer&quot;:true}" stroke-miterlimit="10" stroke-dasharray="" stroke-dashoffset="0" style="mix-blend-mode: normal"><path d="M158.55707,268.66848v-185h170v185z" fill="none" fill-rule="nonzero" stroke="none" stroke-width="0" stroke-linecap="butt" stroke-linejoin="miter"/><g data-paper-data="{&quot;origPos&quot;:null}" fill="#ffdf32" fill-rule="nonzero" stroke="none" stroke-width="0" stroke-linecap="butt" stroke-linejoin="miter"><path d="M189.00548,230.96028l0.32341,-34.87982l99.31646,-0.51711l-0.22314,35.39694z" data-paper-data="{&quot;origPos&quot;:null}"/><path d="M273.23632,239.9579c-0.92187,-0.75046 -0.78357,-2.21609 -0.78357,-2.21609v-17.10403h16.08182v17.03889c0,0 0.23183,1.45724 -0.7516,2.25807c-0.98344,0.80083 -2.82891,0.65759 -2.82891,0.65759h-8.99968c0,0 -1.79618,0.11602 -2.71806,-0.63444z" data-paper-data="{&quot;origPos&quot;:null}"/><path d="M245.14263,240.26284c-0.92187,-0.75046 -0.78357,-2.21609 -0.78357,-2.21609v-17.10403h16.08184v17.03888c0,0 0.23182,1.45724 -0.75162,2.25807c-0.98344,0.80083 -2.82891,0.6576 -2.82891,0.6576h-8.99968c0,0 -1.79619,0.11602 -2.71806,-0.63444z" data-paper-data="{&quot;origPos&quot;:null}"/><path d="M216.82873,240.37075c-0.92187,-0.75046 -0.78356,-2.21609 -0.78356,-2.21609v-17.10403h16.08182v17.03889c0,0 0.23184,1.45724 -0.7516,2.25807c-0.98344,0.80083 -2.82892,0.65759 -2.82892,0.65759h-8.99968c0,0 -1.79618,0.11602 -2.71805,-0.63444z" data-paper-data="{&quot;origPos&quot;:null}"/><path d="M189.75297,241.26676c-0.90795,-0.75046 -0.77174,-2.21609 -0.77174,-2.21609v-17.10403h15.83896v17.03888c0,0 0.22833,1.45724 -0.74026,2.25807c-0.96859,0.80083 -2.78619,0.65759 -2.78619,0.65759h-8.86377c0,0 -1.76906,0.11602 -2.67701,-0.63444z" data-paper-data="{&quot;origPos&quot;:null}"/></g><path d="M189.02238,218.66129l0.37105,-57.69106l99.70454,0.09867l-0.61676,57.50994z" data-paper-data="{&quot;origPos&quot;:null}" fill="#ffb73b" fill-rule="nonzero" stroke="#000000" stroke-width="0" stroke-linecap="butt" stroke-linejoin="miter"/><path d="M189.35517,168.87333v-10.57314c0,0 0.02568,-2.80776 1.86882,-4.09498c1.84314,-1.28721 5.22967,-1.19521 5.22967,-1.19521h84.37025c0,0 4.33472,-0.02817 6.26916,1.54255c1.93443,1.57072 1.90513,4.82407 1.90513,4.82407v9.4967z" data-paper-data="{&quot;origPos&quot;:null}" fill="#ffdf32" fill-rule="nonzero" stroke="none" stroke-width="0" stroke-linecap="butt" stroke-linejoin="miter"/><path d="M214.82454,190.77801h-12.5459" fill="none" fill-rule="nonzero" stroke="#fff65d" stroke-width="11" stroke-linecap="round" stroke-linejoin="miter"/><path d="M237.73128,177.28853h43.80996c3.92231,0 7.10172,2.31234 7.10172,5.165v22.39978c0,2.85243 -3.17941,5.165 -7.10172,5.165h-43.80996c-3.92213,0 -7.10163,-2.31256 -7.10163,-5.165v-22.39978c0,-2.85265 3.1795,-5.165 7.10163,-5.165z" fill="#ffffff" fill-rule="evenodd" stroke="none" stroke-width="1" stroke-linecap="round" stroke-linejoin="round"/><path d="M259.6965,194.87687c0,-3.40923 3.41336,-6.17297 7.62393,-6.17297c4.21057,0 7.62393,2.76374 7.62393,6.17297c0,3.40923 -3.41335,6.17296 -7.62393,6.17296c-4.21057,0 -7.62393,-2.76373 -7.62393,-6.17296z" fill="#ff40a7" fill-rule="nonzero" stroke="none" stroke-width="0" stroke-linecap="butt" stroke-linejoin="miter"/></g></g></svg>