<svg version="1.1" xmlns="http://www.w3.org/2000/svg" xmlns:xlink="http://www.w3.org/1999/xlink" width="724.74929" height="465.26101" viewBox="0,0,724.74929,465.26101"><defs><linearGradient x1="-67.26628" y1="264.04509" x2="-67.26628" y2="293.11225" gradientUnits="userSpaceOnUse" id="color-1"><stop offset="0" stop-color="#ffe9d8"/><stop offset="1" stop-color="#f7cbd0"/></linearGradient><linearGradient x1="-30.52765" y1="263.97037" x2="-30.52765" y2="293.03752" gradientUnits="userSpaceOnUse" id="color-2"><stop offset="0" stop-color="#ffe9d8"/><stop offset="1" stop-color="#f7cbd0"/></linearGradient><linearGradient x1="5.32388" y1="263.89563" x2="5.32388" y2="292.96279" gradientUnits="userSpaceOnUse" id="color-3"><stop offset="0" stop-color="#ffe9d8"/><stop offset="1" stop-color="#f7cbd0"/></linearGradient><linearGradient x1="43.66145" y1="268.41963" x2="43.66145" y2="299.66164" gradientUnits="userSpaceOnUse" id="color-4"><stop offset="0" stop-color="#fde3d6"/><stop offset="1" stop-color="#f7cbd0"/></linearGradient><linearGradient x1="-87.9687" y1="275.86217" x2="-87.9687" y2="306.0225" gradientUnits="userSpaceOnUse" id="color-5"><stop offset="0" stop-color="#fcdcd5"/><stop offset="1" stop-color="#f7ccd0"/></linearGradient><linearGradient x1="23.91216" y1="275.16189" x2="23.91216" y2="305.32224" gradientUnits="userSpaceOnUse" id="color-6"><stop offset="0" stop-color="#fbdcd4"/><stop offset="1" stop-color="#f7cbd0"/></linearGradient><linearGradient x1="-13.12349" y1="301.42531" x2="-13.12349" y2="331.83532" gradientUnits="userSpaceOnUse" id="color-7"><stop offset="0" stop-color="#ffe9d8"/><stop offset="1" stop-color="#f7cbd0"/></linearGradient><linearGradient x1="25.31234" y1="301.34715" x2="25.31234" y2="331.75715" gradientUnits="userSpaceOnUse" id="color-8"><stop offset="0" stop-color="#ffe9d8"/><stop offset="1" stop-color="#f7cbd0"/></linearGradient><linearGradient x1="63.74823" y1="301.26897" x2="63.74823" y2="331.67897" gradientUnits="userSpaceOnUse" id="color-9"><stop offset="0" stop-color="#ffe9d8"/><stop offset="1" stop-color="#f7cbd0"/></linearGradient><linearGradient x1="101.25605" y1="301.19077" x2="101.25605" y2="331.60079" gradientUnits="userSpaceOnUse" id="color-10"><stop offset="0" stop-color="#ffe9d8"/><stop offset="1" stop-color="#f7cbd0"/></linearGradient><linearGradient x1="26.98516" y1="306.15833" x2="26.98516" y2="338.84366" gradientUnits="userSpaceOnUse" id="color-11"><stop offset="0" stop-color="#fde3d6"/><stop offset="1" stop-color="#f7cbd0"/></linearGradient><linearGradient x1="-35.67226" y1="312.89282" x2="-35.67226" y2="344.44652" gradientUnits="userSpaceOnUse" id="color-12"><stop offset="0" stop-color="#fde0d6"/><stop offset="1" stop-color="#f7cbd0"/></linearGradient><linearGradient x1="122.23356" y1="312.02431" x2="122.23356" y2="343.578" gradientUnits="userSpaceOnUse" id="color-13"><stop offset="0" stop-color="#fbdcd4"/><stop offset="1" stop-color="#f7cbd0"/></linearGradient></defs><g transform="translate(124.88201,16.75869)"><g data-paper-data="{&quot;isPaintingLayer&quot;:true}" fill-rule="nonzero" stroke-linejoin="miter" stroke-miterlimit="10" stroke-dasharray="" stroke-dashoffset="0" style="mix-blend-mode: normal"><path d="M203.21674,90.69564v-5.33333" fill="none" stroke="#dce984" stroke-width="4" stroke-linecap="round"/><path d="M206.53182,90.69564v-5.33333" fill="none" stroke="#dce984" stroke-width="4" stroke-linecap="round"/><path d="M204.31176,52.83589v-5.5" fill="none" stroke="#a91645" stroke-width="4" stroke-linecap="round"/><path d="M209.23985,54.36909h-9" fill="none" stroke="#c5007f" stroke-width="5" stroke-linecap="round"/><path d="M209.47067,84.24016h-9.38462" fill="none" stroke="#c5007f" stroke-width="5" stroke-linecap="round"/><path d="M197.5723,84.22455v-2.5641h14.38742v2.5641z" fill="#c5007f" stroke="none" stroke-width="0" stroke-linecap="butt"/><path d="M198.80789,58.58006v20.05153" fill="none" stroke="#ff428a" stroke-width="8" stroke-linecap="round"/><path d="M210.52281,58.60904v20.05153" fill="none" stroke="#ff428a" stroke-width="8" stroke-linecap="round"/><path d="M210.4593,58.5098h-11.31401" fill="none" stroke="#ff428a" stroke-width="8" stroke-linecap="round"/><path d="M199.05251,78.78011h11.31401" fill="none" stroke="#ff428a" stroke-width="8" stroke-linecap="round"/><path d="M202.57849,62.10391v12.22078" fill="none" stroke="#ff428a" stroke-width="8" stroke-linecap="round"/><path d="M209.40031,68.17891h-9.27049" fill="none" stroke="#e1ffb8" stroke-width="5.5" stroke-linecap="round"/><path d="M204.70062,72.75974v-9.02049" fill="none" stroke="#e1ffb8" stroke-width="5" stroke-linecap="round"/><path d="M392.2276,90.58342v-5.33333" fill="none" stroke="#dce984" stroke-width="4" stroke-linecap="round"/><path d="M395.54262,85.25009v5.33333" fill="none" stroke="#dce984" stroke-width="4" stroke-linecap="round"/><path d="M393.32265,47.22367v5.5" fill="none" stroke="#a91645" stroke-width="4" stroke-linecap="round"/><path d="M398.25073,54.25686h-9" fill="none" stroke="#c5007f" stroke-width="5" stroke-linecap="round"/><path d="M398.48147,84.12794h-9.38462" fill="none" stroke="#c5007f" stroke-width="5" stroke-linecap="round"/><path d="M386.58314,84.11232v-2.5641h14.38742v2.5641z" fill="#c5007f" stroke="none" stroke-width="0" stroke-linecap="butt"/><path d="M387.81875,58.46783v20.05153" fill="none" stroke="#ff428a" stroke-width="8" stroke-linecap="round"/><path d="M399.53361,78.54835v-20.05153" fill="none" stroke="#ff428a" stroke-width="8" stroke-linecap="round"/><path d="M388.15615,58.39759h11.31402" fill="none" stroke="#ff428a" stroke-width="8" stroke-linecap="round"/><path d="M388.06336,78.6679h11.314" fill="none" stroke="#ff428a" stroke-width="8" stroke-linecap="round"/><path d="M391.58935,74.21249v-12.22078" fill="none" stroke="#ff428a" stroke-width="8" stroke-linecap="round"/><path d="M389.14066,68.06668h9.27049" fill="none" stroke="#e1ffb8" stroke-width="5.5" stroke-linecap="round"/><path d="M393.71148,63.62702v9.02049" fill="none" stroke="#e1ffb8" stroke-width="5" stroke-linecap="round"/><path d="M203.46674,90.81284h2.91667" fill="none" stroke="#dce984" stroke-width="4" stroke-linecap="round"/><path d="M198.46013,21.90825h200.73672" fill="none" stroke="#781c72" stroke-width="13" stroke-linecap="round"/><path d="M211.86055,39.39705c0,0 -12.53188,-0.00445 -12.86391,-0.02936c-0.53468,-0.03645 -0.5361,-0.87064 -0.5361,-0.87064l-0.2,-15.9" fill="none" stroke="#781c72" stroke-width="13" stroke-linecap="round"/><path d="M322.98236,39.47386c0,0 -12.53187,-0.00444 -12.8639,-0.02935c-0.53468,-0.03645 -0.5361,-0.87064 -0.5361,-0.87064l-0.2,-15.9" fill="none" stroke="#781c72" stroke-width="13" stroke-linecap="round"/><path d="M286.95583,22.75069l-0.2,15.9c0,0 -0.00141,0.83419 -0.53609,0.87064c-0.33203,0.02491 -12.86391,0.02936 -12.86391,0.02936" data-paper-data="{&quot;index&quot;:null}" fill="none" stroke="#781c72" stroke-width="13" stroke-linecap="round"/><path d="M399.64187,22.54772l-0.2,15.9c0,0 -0.00142,0.83419 -0.5361,0.87064c-0.33203,0.02491 -12.8639,0.02936 -12.8639,0.02936" data-paper-data="{&quot;index&quot;:null}" fill="none" stroke="#781c72" stroke-width="13" stroke-linecap="round"/><path d="M263.19683,91.40824v-11h70v11z" fill="#781c72" stroke="none" stroke-width="0" stroke-linecap="butt"/><path d="M263.19683,74.90824v-11h70v11z" fill="#781c72" stroke="none" stroke-width="0" stroke-linecap="butt"/><path d="M332.2994,187.39707v-188.75629h29.41656v188.75629z" fill="#ff428a" stroke="none" stroke-width="0" stroke-linecap="butt"/><path d="M234.75982,188.52553v-188.75628h29.41656v188.75628z" fill="#ff428a" stroke="none" stroke-width="0" stroke-linecap="butt"/><path d="M237.80433,190.05292v-189.83333" fill="none" stroke="#ff7bae" stroke-width="6" stroke-linecap="round"/><path d="M334.80427,190.38626v-189.83334" fill="none" stroke="#ff7bae" stroke-width="6" stroke-linecap="round"/><path d="M235.70547,67.87892h28.19087" fill="none" stroke="#fea7ca" stroke-width="8.5" stroke-linecap="round"/><path d="M263.99357,124.05149h-28.19088" fill="none" stroke="#fea7ca" stroke-width="8.5" stroke-linecap="round"/><path d="M263.8964,67.87892h-28.19088" fill="none" stroke="#fea7ca" stroke-width="8.5" stroke-linecap="round"/><path d="M332.63217,124.05149h28.19088" fill="none" stroke="#fea7ca" stroke-width="8.5" stroke-linecap="round"/><path d="M360.7259,67.87892h-28.19087" fill="none" stroke="#fea7ca" stroke-width="8.5" stroke-linecap="round"/><path d="M268.07298,-4.88996v0.77878c0,0 0.09265,2.52088 -1.03585,3.70018c-1.1285,1.1793 -3.70311,1.12997 -3.70311,1.12997h-26.52104c0,0 -2.64247,0.21357 -3.86412,-1.01309c-1.22165,-1.22666 -0.96603,-3.83688 -0.96603,-3.83688v-0.75896z" data-paper-data="{&quot;index&quot;:null}" fill="#fea7ca" stroke="none" stroke-width="0" stroke-linecap="butt"/><path d="M365.02876,-4.95174v0.77878c0,0 0.09265,2.52088 -1.03584,3.70018c-1.1285,1.1793 -3.70312,1.12997 -3.70312,1.12997h-26.52105c0,0 -2.64247,0.21357 -3.86412,-1.01309c-1.22165,-1.22666 -0.96603,-3.83688 -0.96603,-3.83688v-0.75896z" data-paper-data="{&quot;index&quot;:null}" fill="#fea7ca" stroke="none" stroke-width="0" stroke-linecap="butt"/><path d="M260.12969,4.80541h-18.41385" fill="none" stroke="#e12584" stroke-width="8.5" stroke-linecap="round"/><path d="M260.12971,76.0632h-18.41385" fill="none" stroke="#e12584" stroke-width="8.5" stroke-linecap="round"/><path d="M260.12971,132.89979h-18.41385" fill="none" stroke="#e12584" stroke-width="8.5" stroke-linecap="round"/><path d="M338.7056,4.80541h18.41385" fill="none" stroke="#e12584" stroke-width="8.5" stroke-linecap="round"/><path d="M357.1195,76.0632h-18.41385" fill="none" stroke="#e12584" stroke-width="8.5" stroke-linecap="round"/><path d="M338.70559,132.89979h18.41385" fill="none" stroke="#e12584" stroke-width="8.5" stroke-linecap="round"/><path d="M392.39417,90.81284h2.91667" fill="none" stroke="#dce984" stroke-width="4" stroke-linecap="round"/><path d="M28.55766,359.68214v-118.66396l80.40069,6.00869v112.65526z" fill="#4000af" stroke="none" stroke-width="0" stroke-linecap="butt"/><path d="M6.51566,241.20635v-20.56082h102.44157v21.23654z" fill="#4926f1" stroke="none" stroke-width="0" stroke-linecap="butt"/><path d="M112.2026,219.83657h-102.23725" fill="none" stroke="#3eb5fa" stroke-width="7" stroke-linecap="round"/><path d="M36.10376,360.26194h77.28972" fill="none" stroke="#4000af" stroke-width="15" stroke-linecap="round"/><path d="M83.64997,427.47471l0.29629,-92.54414l31.56532,-117.57372h382.11822v85.80663l-55.26002,0.49339l-2.52865,65.34096l57.78867,2.25389v56.223z" fill="#4000af" stroke="none" stroke-width="0" stroke-linecap="butt"/><path d="M106.13333,218.5685v-29.26876h391.4954v29.26876z" fill="#4926f1" stroke="none" stroke-width="0" stroke-linecap="butt"/><path d="M109.5831,189.74697h384.87883" fill="none" stroke="#3eb5fa" stroke-width="7" stroke-linecap="round"/><path d="M490.24983,428.68581h-398.86133" fill="none" stroke="#4000af" stroke-width="15" stroke-linecap="round"/><path d="M14.11042,241.26455h103.47996" fill="none" stroke="#4926f1" stroke-width="15" stroke-linecap="round"/><path d="M497.92879,262.95306h-27.30112v-36.57811l-52.74226,-8.83333l52.74226,-15.73859h26.51227z" data-paper-data="{&quot;index&quot;:null}" fill="#4926f1" stroke="none" stroke-width="0" stroke-linecap="butt"/><path d="M85.40366,236.07408c0,0 32.64491,0.05937 32.69113,0.05108c0.60376,-0.10834 0.59498,-0.84845 0.59498,-0.84845c0,0 0.0101,-25.06167 -0.00986,-28.79806c-0.00509,-0.95372 0.40254,-0.55934 0.40254,-0.55934h55.18541" fill="none" stroke="#502bff" stroke-width="25" stroke-linecap="round"/><path d="M406.28054,226.08075h56.66252" data-paper-data="{&quot;index&quot;:null}" fill="none" stroke="#4000af" stroke-width="15" stroke-linecap="round"/><path d="M135.77304,214.29038l-6.19266,5.22936" fill="none" stroke="#502bff" stroke-width="15" stroke-linecap="round"/><path d="M151.33001,226.08075h-12.58693" data-paper-data="{&quot;index&quot;:null}" fill="none" stroke="#4000af" stroke-width="15" stroke-linecap="round"/><path d="M169.84432,350.37169h79.772" data-paper-data="{&quot;index&quot;:null}" fill="none" stroke="#3d00a3" stroke-width="30" stroke-linecap="round"/><path d="M228.71898,320.89137h-53.32889" data-paper-data="{&quot;index&quot;:null}" fill="none" stroke="#3d00a3" stroke-width="29.5" stroke-linecap="round"/><path d="M126.96614,291.33489h138.67665" data-paper-data="{&quot;index&quot;:null}" fill="none" stroke="#3d00a3" stroke-width="30" stroke-linecap="round"/><path d="M231.13892,320.57016h44.32889" data-paper-data="{&quot;index&quot;:null}" fill="none" stroke="#4000af" stroke-width="29" stroke-linecap="round"/><path d="M174.23868,321.02784h-44.32889" data-paper-data="{&quot;index&quot;:null}" fill="none" stroke="#4000af" stroke-width="29" stroke-linecap="round"/><path d="M189.88881,230.2238h48.91249" fill="none" stroke="#4a00ca" stroke-width="22.5" stroke-linecap="round"/><path d="M-124.88201,448.50232v-465.26101h723.59646l1.15283,465.26101z" fill="none" stroke="none" stroke-width="NaN" stroke-linecap="butt"/><g><g data-paper-data="{&quot;origPos&quot;:null}" stroke="none" stroke-linecap="butt"><path d="M-43.31537,286.22181c0,12.24786 -27.05558,4.43534 -27.05558,4.43534c0,0 -20.84611,7.81252 -20.84611,-4.43534c0,-12.24786 10.72316,-22.1767 23.95085,-22.1767c13.22768,0 23.95085,9.92884 23.95085,22.1767z" data-paper-data="{&quot;origPos&quot;:null}" fill="url(#color-1)" stroke-width="NaN"/><path d="M-6.5768,286.14708c0,12.24786 -27.05558,4.43534 -27.05558,4.43534c0,0 -20.84611,7.81253 -20.84611,-4.43534c0,-12.24786 10.72316,-22.17671 23.95085,-22.17671c13.22768,0 23.95085,9.92885 23.95085,22.17671z" data-paper-data="{&quot;origPos&quot;:null}" fill="url(#color-2)" stroke-width="NaN"/><path d="M29.27474,286.07235c0,12.24786 -27.05558,4.43534 -27.05558,4.43534c0,0 -20.84611,7.81253 -20.84611,-4.43534c0,-12.24786 10.72316,-22.17671 23.95085,-22.17671c13.22768,0 23.95085,9.92885 23.95085,22.17671z" data-paper-data="{&quot;origPos&quot;:null}" fill="url(#color-3)" stroke-width="NaN"/><path d="M-75.69048,299.66164v-30.74431l93.29811,1.66667l14.22687,29.87477z" data-paper-data="{&quot;origPos&quot;:null}" fill="url(#color-4)" stroke-width="0"/><path d="M-72.44505,290.94233c0,8.32855 -8.43367,15.94632 -17.00717,15.94632c-8.5735,0 -14.04022,-7.61778 -14.04022,-15.94632c0,-8.32855 6.9502,-15.08016 15.5237,-15.08016c8.5735,0 15.5237,6.75161 15.5237,15.08016z" data-paper-data="{&quot;origPos&quot;:null}" fill="url(#color-5)" stroke-width="0"/><path d="M39.43578,290.24208c0,8.32855 -4.7083,16.63162 -13.2818,16.63162c-8.5735,0 -17.7656,-8.30307 -17.7656,-16.63162c0,-5.66446 1.89289,-9.10116 6.55884,-12.31285c3.06243,-2.10796 5.24708,-2.76731 8.96486,-2.76731c8.5735,0 15.5237,6.75162 15.5237,15.08016z" data-paper-data="{&quot;origPos&quot;:null}" fill="url(#color-6)" stroke-width="0"/></g><path d="M30.86428,303.77373h-121.79394" data-paper-data="{&quot;origPos&quot;:null}" fill="#ffc3d5" stroke="#ffc3d5" stroke-width="9" stroke-linecap="round"/><path d="M-29.7725,299.47255c4.49921,2.53063 -11.64155,3.31201 -19.47867,3.31201c-7.83713,0 -14.74843,5.59214 -14.74843,-0.28571c0,-0.3259 -6.74031,-3.09679 -6.44486,-3.23435c2.99165,-1.39289 5.67713,-1.54472 7.80643,-2.82298c4.68556,-2.81281 7.96956,-2.71514 12.8288,-2.71514c0,0 5.05677,-0.65893 9.67257,2.34864c3.43195,1.91012 5.19549,1.76923 10.36417,3.39753z" data-paper-data="{&quot;origPos&quot;:null}" fill="#ffc3d5" stroke="none" stroke-width="0" stroke-linecap="butt"/><path d="M8.3835,299.26108c4.49921,2.53063 -11.64155,3.31201 -19.47868,3.31201c-7.83713,0 -14.74843,5.59214 -14.74843,-0.28571c0,-0.3259 -6.74031,-3.09679 -6.44486,-3.23435c2.99165,-1.39289 5.67713,-1.54472 7.80644,-2.82298c4.68556,-2.81281 7.96956,-2.71514 12.8288,-2.71514c0,0 5.05677,-0.65893 9.67257,2.34864c3.43195,1.91012 5.19549,1.76923 10.36417,3.39753z" data-paper-data="{&quot;origPos&quot;:null}" fill="#ffc3d5" stroke="none" stroke-width="0" stroke-linecap="butt"/></g><g data-paper-data="{&quot;index&quot;:null}"><g data-paper-data="{&quot;origPos&quot;:null}" stroke="none" stroke-linecap="butt"><path d="M11.93383,324.62657c0,12.81369 -28.3055,4.64025 -28.3055,4.64025c0,0 -21.80916,8.17345 -21.80916,-4.64025c0,-12.81369 11.21855,-23.20124 25.05733,-23.20124c13.83878,0 25.05733,10.38755 25.05733,23.20124z" data-paper-data="{&quot;origPos&quot;:null}" fill="url(#color-7)" stroke-width="NaN"/><path d="M50.36971,324.54839c0,12.81369 -28.3055,4.64025 -28.3055,4.64025c0,0 -21.80916,8.17345 -21.80916,-4.64025c0,-12.81369 11.21854,-23.20124 25.05733,-23.20124c13.83878,0 25.05733,10.38755 25.05733,23.20124z" data-paper-data="{&quot;origPos&quot;:null}" fill="url(#color-8)" stroke-width="NaN"/><path d="M88.80558,324.47018c0,12.81369 -28.3055,4.64024 -28.3055,4.64024c0,0 -21.80916,8.17345 -21.80916,-4.64024c0,-11.90973 9.40153,-19.84432 17.74486,-22.19773c2.78111,-0.78447 4.42284,-1.00351 7.31247,-1.00351c13.83878,0 25.05733,10.38755 25.05733,23.20124z" data-paper-data="{&quot;origPos&quot;:null}" fill="url(#color-9)" stroke-width="NaN"/><path d="M126.3134,324.39203c0,12.81369 -28.3055,4.64024 -28.3055,4.64024c0,0 -21.80916,8.17345 -21.80916,-4.64024c0,-12.81369 11.21855,-23.20124 25.05733,-23.20124c13.83878,0 25.05733,10.38755 25.05733,23.20124z" data-paper-data="{&quot;origPos&quot;:null}" fill="url(#color-10)" stroke-width="NaN"/><path d="M-47.40436,341.04884l23.09326,-33.675c0,0 117.76788,0.03055 137.27571,-0.09566c6.50261,-0.04207 6.88631,33.56548 6.88631,33.56548z" data-paper-data="{&quot;origPos&quot;:null}" fill="url(#color-11)" stroke-width="0"/><path d="M-19.43139,328.66967c0,8.71332 -10.03162,16.03718 -19.00121,16.03718c-8.96958,0 -13.48052,-7.32387 -13.48052,-16.03718c0,-8.71332 7.27128,-15.77684 16.24087,-15.77684c8.96958,0 16.24087,7.06352 16.24087,15.77684z" data-paper-data="{&quot;origPos&quot;:null}" fill="url(#color-12)" stroke-width="0"/><path d="M138.47431,327.80116c0,8.71332 -5.44891,17.83887 -14.4185,17.83887c-8.96958,0 -18.06324,-9.12556 -18.06324,-17.83887c0,-8.71332 7.27127,-15.77684 16.24087,-15.77684c8.96958,0 16.24087,7.06353 16.24087,15.77684z" data-paper-data="{&quot;origPos&quot;:null}" fill="url(#color-13)" stroke-width="0"/></g><path d="M-41.31243,342.76649c0,0 84.5268,-0.5 164.2303,-0.5" data-paper-data="{&quot;origPos&quot;:null}" fill="#ffc3d5" stroke="#ffc3d5" stroke-width="9" stroke-linecap="round"/><path d="M27.6491,338.08152c4.70706,2.64754 -12.17937,3.46502 -20.37856,3.46502c-8.19919,0 -15.42978,5.85048 -15.42978,-0.29891c0,-0.34096 -7.05168,-3.23986 -6.74259,-3.38377c3.12986,-1.45724 5.9394,-1.61608 8.16707,-2.95339c4.90203,-2.94276 8.33774,-2.84057 13.42146,-2.84057c0,0 5.29038,-0.68937 10.11942,2.45714c3.5905,1.99836 5.43552,1.85096 10.84298,3.55449z" data-paper-data="{&quot;origPos&quot;:null}" fill="#ffc3d5" stroke="none" stroke-width="0" stroke-linecap="butt"/><path d="M66.54805,337.86025c4.70706,2.64754 -12.17937,3.46502 -20.37855,3.46502c-8.19919,0 -15.42979,5.85048 -15.42979,-0.29891c0,-0.34096 -7.05168,-3.23986 -6.74259,-3.38377c3.12986,-1.45724 5.9394,-1.61608 8.16707,-2.95339c4.90203,-2.94276 8.33774,-2.84057 13.42146,-2.84057c0,0 5.29038,-0.68937 10.11942,2.45714c3.5905,1.99836 5.43552,1.85095 10.84298,3.55448z" data-paper-data="{&quot;origPos&quot;:null}" fill="#ffc3d5" stroke="none" stroke-width="0" stroke-linecap="butt"/><path d="M102.12515,338.08152c4.70706,2.64754 -12.17937,3.46502 -20.37855,3.46502c-8.19919,0 -15.42978,5.85048 -15.42978,-0.29891c0,-0.34096 -7.0517,-3.23986 -6.7426,-3.38377c3.12986,-1.45724 5.9394,-1.61608 8.16707,-2.95339c4.90203,-2.94276 8.33774,-2.84057 13.42146,-2.84057c0,0 5.29038,-0.68937 10.11942,2.45714c3.5905,1.99836 5.43552,1.85096 10.84298,3.55449z" data-paper-data="{&quot;origPos&quot;:null}" fill="#ffc3d5" stroke="none" stroke-width="0" stroke-linecap="butt"/></g><path d="M334.43947,273.20842h61.772" data-paper-data="{&quot;index&quot;:null}" fill="none" stroke="#3d00a3" stroke-width="30" stroke-linecap="round"/><path d="M381.77721,301.66408h42.9035" data-paper-data="{&quot;index&quot;:null}" fill="none" stroke="#39009b" stroke-width="27.5" stroke-linecap="round"/><path d="M437.83224,391.86865h59.00591h-16.04224" data-paper-data="{&quot;index&quot;:null}" fill="none" stroke="#3d00a3" stroke-width="30" stroke-linecap="round"/><path d="M507.11709,263.51016h-28.82275" data-paper-data="{&quot;index&quot;:null}" fill="none" stroke="#4926f1" stroke-width="15" stroke-linecap="round"/><path d="M521.85511,284.63959h-20.5549" data-paper-data="{&quot;index&quot;:null}" fill="none" stroke="#3d00a3" stroke-width="26.5" stroke-linecap="round"/><path d="M382.40074,210.76926h29.53836" data-paper-data="{&quot;index&quot;:null}" fill="none" stroke="#4b2af5" stroke-width="15" stroke-linecap="round"/></g></g></svg>