<svg version="1.1" xmlns="http://www.w3.org/2000/svg" xmlns:xlink="http://www.w3.org/1999/xlink" width="519" height="468.72079" viewBox="0,0,519,468.72079"><g transform="translate(9.88051,65.51215)"><g data-paper-data="{&quot;isPaintingLayer&quot;:true}" stroke-miterlimit="10" stroke-dasharray="" stroke-dashoffset="0" style="mix-blend-mode: normal"><path d="M-9.88051,400.64794v-466.16008h519l-1,466.16008z" fill="none" fill-rule="nonzero" stroke="none" stroke-width="NaN" stroke-linecap="butt" stroke-linejoin="miter"/><path d="M55.8915,137.97782v-29.79814h388.71376l0.33333,29.79814z" data-paper-data="{&quot;origPos&quot;:null}" fill="#8d00e4" fill-rule="nonzero" stroke="none" stroke-width="0" stroke-linecap="butt" stroke-linejoin="miter"/><path d="M292.1439,141.45755v-30.40128l52.79411,-0.33333v30.73462z" data-paper-data="{&quot;origPos&quot;:null}" fill="#7700c2" fill-rule="nonzero" stroke="none" stroke-width="0" stroke-linecap="butt" stroke-linejoin="miter"/><path d="M381.87777,131.57479v-10.197c0,-2.79218 2.19312,-5.05554 4.89864,-5.05554h30.98056c2.70533,0 4.89864,2.26336 4.89864,5.05554v10.197c0,2.79212 -2.19332,5.05559 -4.89864,5.05559h-30.98056c-2.70552,0 -4.89864,-2.26347 -4.89864,-5.05559z" data-paper-data="{&quot;origPos&quot;:null,&quot;origRot&quot;:0}" fill="#8300d5" fill-rule="evenodd" stroke="none" stroke-width="14" stroke-linecap="round" stroke-linejoin="round"/><path d="M326.36082,125.07415v-10.19698c0,-2.79218 2.19312,-5.05555 4.89864,-5.05555h30.98056c2.70532,0 4.89865,2.26336 4.89865,5.05555v10.19698c0,2.79212 -2.19333,5.05559 -4.89865,5.05559h-30.98056c-2.70551,0 -4.89864,-2.26348 -4.89864,-5.05559z" data-paper-data="{&quot;origPos&quot;:null,&quot;origRot&quot;:0}" fill="#9d00ff" fill-rule="evenodd" stroke="none" stroke-width="14" stroke-linecap="round" stroke-linejoin="round"/><path d="M151.96641,140.85072v-29.73462h70.39215v29.73462z" data-paper-data="{&quot;origPos&quot;:null}" fill="#7700c2" fill-rule="nonzero" stroke="none" stroke-width="0" stroke-linecap="butt" stroke-linejoin="miter"/><path d="M262.22195,131.8049v-10.197c0,-2.79218 2.19313,-5.05555 4.89865,-5.05555h30.98056c2.70532,0 4.89865,2.26336 4.89865,5.05555v10.197c0,2.7921 -2.19333,5.05559 -4.89865,5.05559h-30.98056c-2.70551,0 -4.89865,-2.26347 -4.89865,-5.05559z" data-paper-data="{&quot;origPos&quot;:null,&quot;origRot&quot;:0}" fill="#9d00ff" fill-rule="evenodd" stroke="none" stroke-width="14" stroke-linecap="round" stroke-linejoin="round"/><path d="M73.68095,132.12523v-10.19698c0,-2.79218 2.19312,-5.05555 4.89865,-5.05555h30.98056c2.70532,0 4.89864,2.26336 4.89864,5.05555v10.19698c0,2.7921 -2.19332,5.05559 -4.89864,5.05559h-30.98056c-2.70552,0 -4.89865,-2.26347 -4.89865,-5.05559z" data-paper-data="{&quot;origPos&quot;:null,&quot;origRot&quot;:0}" fill="#9d00ff" fill-rule="evenodd" stroke="none" stroke-width="14" stroke-linecap="round" stroke-linejoin="round"/><path d="M133.21333,119.96687v-10.197c0,-2.79218 2.19312,-5.05555 4.89865,-5.05555h30.98056c2.70532,0 4.89865,2.26336 4.89865,5.05555v10.197c0,2.7921 -2.19333,5.05559 -4.89865,5.05559h-30.98056c-2.70552,0 -4.89865,-2.26347 -4.89865,-5.05559z" data-paper-data="{&quot;origPos&quot;:null,&quot;origRot&quot;:0}" fill="#8300d5" fill-rule="evenodd" stroke="none" stroke-width="14" stroke-linecap="round" stroke-linejoin="round"/><path d="M203.74082,131.58953v-10.19698c0,-2.79218 2.19313,-5.05555 4.89865,-5.05555h30.98056c2.70532,0 4.89865,2.26336 4.89865,5.05555v10.19698c0,2.79212 -2.19333,5.05559 -4.89865,5.05559h-30.98056c-2.70552,0 -4.89865,-2.26347 -4.89865,-5.05559z" data-paper-data="{&quot;origPos&quot;:null,&quot;origRot&quot;:0}" fill="#8300d5" fill-rule="evenodd" stroke="none" stroke-width="14" stroke-linecap="round" stroke-linejoin="round"/><g data-paper-data="{&quot;origPos&quot;:null}" fill-rule="nonzero" stroke="#000000" stroke-width="0" stroke-linecap="butt" stroke-linejoin="miter"><path d="M68.57169,402.90089v-256.33818h361.85358v256.33818l-36.3955,0.30775l0.27168,-170.89844c0,0 0.21505,-30.91615 -13.42522,-48.30693c-18.12332,-23.10647 -49.25502,-24.07573 -49.25502,-24.07573l-151.80335,-0.16683c0,0 -34.76187,-2.52758 -56.02581,18.50275c-20.98246,20.75195 -18.62832,42.99413 -18.62832,42.99413l-0.40667,181.64331z" data-paper-data="{&quot;origPos&quot;:null}" fill="#5f00a2"/><path d="M56.10565,403.01929v-266.00675h388.81596v265.00675l-39.10739,0.33067c0,0 0.08176,-149.29911 0.1341,-155.25101c0.06159,-7.00511 0.15782,-17.94973 0.15782,-17.94973c0,0 0.23108,-33.21977 -14.42556,-51.90636c-19.47372,-24.82817 -52.92509,-25.86965 -52.92509,-25.86965l-163.1145,-0.17927c0,0 -37.35204,-2.71591 -60.20039,19.88143c-22.54589,22.29821 -20.01637,46.19771 -20.01637,46.19771l-0.43697,185.74622z" data-paper-data="{&quot;origPos&quot;:null}" fill="#6600ae"/></g><path d="M59.4205,107.44339h381.72608" data-paper-data="{&quot;origPos&quot;:null}" fill="none" fill-rule="nonzero" stroke="#a718ff" stroke-width="7" stroke-linecap="round" stroke-linejoin="miter"/><g fill="#232323" fill-rule="evenodd" stroke="none" stroke-width="1" stroke-linecap="round" stroke-linejoin="round"><g><path d="M129.13234,-20.05037c0,0.7959 -0.91237,1.14531 -1.9993,1.14531c-1.16473,0 -2.31004,-0.40765 -2.31004,-2.64005v-5.90128h-0.73766c-0.50472,0 -0.83472,-0.33 -0.83472,-0.83472c0,-0.4853 0.33,-0.8153 0.83472,-0.8153h0.73766v-1.51415c0,-0.54354 0.46589,-1.00943 1.00943,-1.00943c0.56295,0 1.02884,0.46589 1.02884,1.00943v1.51415h1.41695c0.50472,0 0.85413,0.33 0.85413,0.8153c0,0.50472 -0.34941,0.83472 -0.85413,0.83472h-1.41695v5.92069c0,0.58236 0.23295,0.85414 0.67942,0.85414c0.25222,0 0.5434,-0.07764 0.75694,-0.09706c0.4853,-0.07764 0.83472,0.23295 0.83472,0.71825z"/><path d="M140.52724,-24.02985c0,3.47476 -2.8924,5.16362 -5.12479,5.16362c-2.23239,0 -5.10538,-1.68885 -5.10538,-5.16362c0,-3.45535 2.87299,-5.18303 5.10538,-5.18303c2.23239,0 5.12479,1.72768 5.12479,5.18303zM132.33534,-24.02985c0,2.19357 1.57238,3.37771 3.06711,3.37771c1.51415,0 3.08652,-1.18414 3.08652,-3.37771c0,-2.21298 -1.57238,-3.39711 -3.08652,-3.39711c-1.49473,0 -3.06711,1.18414 -3.06711,3.39711z"/><path d="M157.49341,-31.83351v11.91902c0,0.56295 -0.4853,1.02884 -1.04826,1.02884c-0.56295,0 -1.02884,-0.46589 -1.02884,-1.02884v-1.04825c-0.13588,0.87354 -1.33943,2.09651 -3.18358,2.09651c-2.15474,0 -4.73655,-1.66944 -4.73655,-5.18303c0,-3.45535 2.60122,-5.16362 4.73655,-5.16362c1.4365,0 2.67886,0.73766 3.18358,1.86356v-0.77649c0,-0.05824 0,-0.13588 0.01941,-0.19412v-3.51359c0,-0.56295 0.46589,-1.02884 1.00943,-1.02884c0.56295,0 1.04826,0.46589 1.04826,1.02884zM155.51337,-24.04926c0,-2.42651 -1.63062,-3.39712 -2.95064,-3.39712c-1.41708,0 -3.00887,1.1065 -3.00887,3.39712c0,2.31004 1.59179,3.41652 3.00887,3.41652c1.32002,0 2.95064,-1.00943 2.95064,-3.41652z"/><path d="M169.33478,-24.37927c0,0.7959 -0.44648,1.1065 -1.2812,1.1065l-6.50305,-0.01941c0.21353,1.80532 1.63062,2.69829 3.18358,2.69829c0.7959,0 1.33943,-0.19412 1.94121,-0.56295c0.33,-0.17471 0.54354,-0.3106 0.8153,-0.3106c0.44648,0 0.71825,0.3106 0.71825,0.73766c0,0.25236 -0.09706,0.52413 -0.52413,0.87354c-0.73766,0.60178 -1.80532,0.95119 -3.02829,0.95119c-2.52357,0 -5.22186,-1.61121 -5.22186,-5.1248c0,-3.49418 2.81475,-5.18303 5.02773,-5.18303c2.21298,0 4.87244,1.74708 4.87244,4.83361zM161.55053,-24.76751h5.7848c-0.17471,-1.84415 -1.57239,-2.65945 -2.87299,-2.65945c-1.2812,0 -2.7371,0.8153 -2.91181,2.65945z"/><path d="M177.66257,-31.69762c0,0.44648 -0.33,0.75707 -0.75707,0.75707c-0.17471,0 -0.42706,-0.07764 -0.73766,-0.19412c-0.27177,-0.11648 -0.52413,-0.23295 -0.91237,-0.23295c-1.08707,0 -1.4365,0.8153 -1.4365,1.6112v0.66001h1.94121c0.50472,0 0.85414,0.33 0.85414,0.8153c0,0.50472 -0.34942,0.83472 -0.85414,0.83472h-1.94121v7.53189c0,0.56295 -0.46589,1.02884 -1.00943,1.02884c-0.56295,0 -1.02884,-0.46589 -1.02884,-1.02884v-7.53189h-0.6406c-0.50472,0 -0.83472,-0.33 -0.83472,-0.83472c0,-0.4853 0.33,-0.8153 0.83472,-0.8153h0.6406v-0.73766c0,-2.65946 1.96062,-3.28064 3.22241,-3.28064c0.87354,0 1.6112,0.23295 2.13533,0.60178c0.33,0.21353 0.52413,0.46589 0.52413,0.8153z"/><path d="M186.98038,-24.37927c0,0.7959 -0.44648,1.1065 -1.2812,1.1065l-6.50305,-0.01941c0.21353,1.80532 1.63062,2.69829 3.18358,2.69829c0.7959,0 1.33943,-0.19412 1.94121,-0.56295c0.33,-0.17471 0.54354,-0.3106 0.81531,-0.3106c0.44648,0 0.71825,0.3106 0.71825,0.73766c0,0.25236 -0.09706,0.52413 -0.52413,0.87354c-0.73766,0.60178 -1.80532,0.95119 -3.02829,0.95119c-2.52357,0 -5.22186,-1.61121 -5.22186,-5.1248c0,-3.49418 2.81475,-5.18303 5.02774,-5.18303c2.21298,0 4.87243,1.74708 4.87243,4.83361zM179.19613,-24.76751h5.7848c-0.17471,-1.84415 -1.57238,-2.65945 -2.87299,-2.65945c-1.2812,0 -2.73711,0.8153 -2.91182,2.65945z"/><path d="M196.25935,-27.34932v-0.77649c0,-0.56295 0.46589,-1.02884 1.02884,-1.02884c0.56295,0 1.04826,0.46589 1.04826,1.02884v8.21132c0,0.56295 -0.4853,1.02884 -1.04826,1.02884c-0.56295,0 -1.02884,-0.46589 -1.02884,-1.02884v-1.04825c-0.13588,0.87354 -1.33943,2.09651 -3.18358,2.09651c-2.15474,0 -4.73655,-1.66944 -4.73655,-5.18303c0,-3.45535 2.60122,-5.16362 4.73655,-5.16362c1.4365,0 2.67886,0.73766 3.18358,1.86356zM196.35642,-24.04926c0,-2.42651 -1.63062,-3.39712 -2.95063,-3.39712c-1.41708,0 -3.00887,1.1065 -3.00887,3.39712c0,2.31004 1.59179,3.41652 3.00887,3.41652c1.32002,0 2.95063,-1.00943 2.95063,-3.41652z"/><path d="M205.77129,-20.05037c0,0.7959 -0.91237,1.14531 -1.99944,1.14531c-1.16473,0 -2.31004,-0.40765 -2.31004,-2.64005v-5.90128h-0.73766c-0.50472,0 -0.83472,-0.33 -0.83472,-0.83472c0,-0.4853 0.33,-0.8153 0.83472,-0.8153h0.73766v-1.51415c0,-0.54354 0.46589,-1.00943 1.00943,-1.00943c0.56295,0 1.02884,0.46589 1.02884,1.00943v1.51415h1.41708c0.50472,0 0.85414,0.33 0.85414,0.8153c0,0.50472 -0.34942,0.83472 -0.85414,0.83472h-1.41708v5.92069c0,0.58236 0.23295,0.85414 0.67942,0.85414c0.25236,0 0.54354,-0.07764 0.75707,-0.09706c0.4853,-0.07764 0.83472,0.23295 0.83472,0.71825z"/><path d="M218.03972,-20.05037c0,0.7959 -0.91237,1.14531 -1.99944,1.14531c-1.16473,0 -2.31004,-0.40765 -2.31004,-2.64005v-5.90128h-0.73766c-0.50472,0 -0.83472,-0.33 -0.83472,-0.83472c0,-0.4853 0.33,-0.8153 0.83472,-0.8153h0.73766v-1.51415c0,-0.54354 0.46589,-1.00943 1.00943,-1.00943c0.56295,0 1.02884,0.46589 1.02884,1.00943v1.51415h1.41708c0.50472,0 0.85413,0.33 0.85413,0.8153c0,0.50472 -0.34941,0.83472 -0.85413,0.83472h-1.41708v5.92069c0,0.58236 0.23295,0.85414 0.67942,0.85414c0.25236,0 0.54353,-0.07764 0.75707,-0.09706c0.4853,-0.07764 0.83472,0.23295 0.83472,0.71825z"/><path d="M229.04638,-24.70927v4.77538c0,0.56295 -0.44648,1.02884 -1.00943,1.02884c-0.56295,0 -1.02884,-0.46589 -1.02884,-1.02884v-4.77538c0,-1.94121 -1.1065,-2.71769 -2.36828,-2.71769c-1.86356,0 -2.67886,1.66944 -2.79534,2.50416v4.98891c0,0.56295 -0.46589,1.02884 -1.02884,1.02884c-0.56295,0 -1.02884,-0.46589 -1.02884,-1.02884v-11.89961c0,-0.56295 0.46589,-1.02884 1.02884,-1.02884c0.56295,0 1.02884,0.46589 1.02884,1.02884v5.00831c0.09706,-0.67942 1.26179,-2.36828 3.47476,-2.36828c1.88297,0 3.72712,1.18414 3.72712,4.48419z"/><path d="M240.88776,-24.37927c0,0.7959 -0.44648,1.1065 -1.2812,1.1065l-6.50305,-0.01941c0.21353,1.80532 1.63062,2.69829 3.18358,2.69829c0.7959,0 1.33943,-0.19412 1.94121,-0.56295c0.33,-0.17471 0.54354,-0.3106 0.81531,-0.3106c0.44648,0 0.71825,0.3106 0.71825,0.73766c0,0.25236 -0.09706,0.52413 -0.52413,0.87354c-0.73766,0.60178 -1.80532,0.95119 -3.02829,0.95119c-2.52357,0 -5.22186,-1.61121 -5.22186,-5.1248c0,-3.49418 2.81475,-5.18303 5.02774,-5.18303c2.21298,0 4.87243,1.74708 4.87243,4.83361zM233.10351,-24.76751h5.7848c-0.17471,-1.84415 -1.57238,-2.65945 -2.87299,-2.65945c-1.2812,0 -2.73711,0.8153 -2.91182,2.65945z"/><path d="M259.30984,-24.70927v4.77538c0,0.56295 -0.46589,1.02884 -1.00943,1.02884c-0.56295,0 -1.02884,-0.46589 -1.02884,-1.02884v-4.77538c0,-1.94121 -1.10649,-2.71769 -2.36828,-2.71769c-1.86356,0 -2.67887,1.66944 -2.81475,2.50416v0.21353v4.77538c0,0.56295 -0.44648,1.02884 -1.00943,1.02884c-0.56295,0 -1.02884,-0.46589 -1.02884,-1.02884v-4.77538c0,-1.94121 -1.1065,-2.71769 -2.36828,-2.71769c-1.86356,0 -2.67886,1.66944 -2.79534,2.50416v4.98891c0,0.56295 -0.46589,1.02884 -1.02884,1.02884c-0.56295,0 -1.02884,-0.46589 -1.02884,-1.02884v-8.17249c0,-0.58236 0.46589,-1.04826 1.02884,-1.04826c0.56295,0 1.02884,0.46589 1.02884,1.04826v1.28119c0.09706,-0.67942 1.26179,-2.36828 3.47476,-2.36828c1.4365,0 2.87299,0.69884 3.45536,2.50416c0.54354,-1.20355 1.78591,-2.50416 3.76595,-2.50416c1.88297,0 3.72712,1.18414 3.72712,4.48419z"/></g><g><path d="M112.25892,-51.37804c0,-0.56295 0.4853,-1.02884 1.04825,-1.02884c0.56295,0 1.04826,0.46589 1.04826,1.02884c0,0.56295 -0.4853,1.02884 -1.04826,1.02884c-0.56295,0 -1.04825,-0.46589 -1.04825,-1.02884zM114.33601,-47.45679v10.19153c0,1.98004 -1.16473,2.8924 -2.7371,2.8924c-0.54354,0 -1.04826,-0.09706 -1.51415,-0.33c-0.34942,-0.19412 -0.77649,-0.52413 -0.77649,-1.04825c0,-0.58236 0.56295,-1.06767 1.18414,-0.87355c0.23295,0.09706 0.46589,0.29118 0.87354,0.29118c0.73766,0 0.91237,-0.67942 0.91237,-1.39767v-9.72564c0,-0.58236 0.46589,-1.04826 1.02884,-1.04826c0.56295,0 1.02884,0.46589 1.02884,1.04826z"/><path d="M116.68488,-42.70065v-4.77556c0,-0.56295 0.44649,-1.02884 1.00943,-1.02884c0.56295,0 1.02884,0.46589 1.02884,1.02884v4.77556c0,1.94121 1.10649,2.71769 2.36828,2.71769c1.86356,0 2.67886,-1.66944 2.79534,-2.50416v-4.98908c0,-0.56295 0.46589,-1.02884 1.02884,-1.02884c0.56295,0 1.02884,0.46589 1.02884,1.02884v8.17267c0,0.58236 -0.46589,1.04826 -1.02884,1.04826c-0.56295,0 -1.02884,-0.46589 -1.02884,-1.04826v-1.2812c-0.09706,0.67942 -1.26179,2.36828 -3.47476,2.36828c-1.88297,0 -3.72712,-1.18414 -3.72712,-4.48419z"/><path d="M144.75485,-44.05949v4.77538c0,0.56295 -0.46589,1.02884 -1.00943,1.02884c-0.56295,0 -1.02884,-0.46589 -1.02884,-1.02884v-4.77538c0,-1.94139 -1.1065,-2.71787 -2.36828,-2.71787c-1.86356,0 -2.67886,1.66944 -2.81475,2.50434v0.21353v4.77538c0,0.56295 -0.44649,1.02884 -1.00943,1.02884c-0.56295,0 -1.02884,-0.46589 -1.02884,-1.02884v-4.77538c0,-1.94139 -1.10649,-2.71787 -2.36828,-2.71787c-1.86356,0 -2.67886,1.66944 -2.79534,2.50434v4.98891c0,0.56295 -0.46589,1.02884 -1.02884,1.02884c-0.56295,0 -1.02884,-0.46589 -1.02884,-1.02884v-8.17267c0,-0.58236 0.46589,-1.04826 1.02884,-1.04826c0.56295,0 1.02884,0.46589 1.02884,1.04826v1.2812c0.09706,-0.67942 1.26179,-2.36828 3.47476,-2.36828c1.4365,0 2.87299,0.69884 3.45535,2.50416c0.54354,-1.20355 1.78591,-2.50416 3.76595,-2.50416c1.88297,0 3.72712,1.18414 3.72712,4.48437z"/><path d="M157.17859,-43.39948c0,3.51359 -2.58181,5.18303 -4.73655,5.18303c-1.84415,0 -3.0477,-1.22296 -3.18358,-2.09651v1.04825c0,0.05824 0,0.13588 -0.01941,0.19412v3.49418c0,0.56295 -0.46589,1.02884 -1.02884,1.02884c-0.56295,0 -1.02884,-0.46589 -1.02884,-1.02884v-11.89979c0,-0.56295 0.4853,-1.02884 1.04826,-1.02884c0.56295,0 1.02884,0.46589 1.02884,1.02884v0.77649c0.50472,-1.1259 1.74708,-1.86356 3.18358,-1.86356c2.13533,0 4.73655,1.70827 4.73655,5.1638zM155.12091,-43.39948c0,-2.29081 -1.59179,-3.39729 -3.00887,-3.39729c-1.32002,0 -2.95064,0.97061 -2.95064,3.39729c0,2.4071 1.63062,3.41652 2.95064,3.41652c1.41708,0 3.00887,-1.10649 3.00887,-3.41652z"/><path d="M174.37771,-43.38007c0,3.47476 -2.8924,5.16362 -5.12479,5.16362c-2.23239,0 -5.10538,-1.68885 -5.10538,-5.16362c0,-3.45553 2.87299,-5.18321 5.10538,-5.18321c2.23239,0 5.12479,1.72768 5.12479,5.18321zM166.18581,-43.38007c0,2.19357 1.57238,3.3777 3.06711,3.3777c1.51415,0 3.08652,-1.18414 3.08652,-3.3777c0,-2.21316 -1.57238,-3.39729 -3.08652,-3.39729c-1.49473,0 -3.06711,1.18414 -3.06711,3.39729z"/><path d="M185.57849,-44.05949v4.77538c0,0.56295 -0.44649,1.02884 -1.00943,1.02884c-0.56295,0 -1.02884,-0.46589 -1.02884,-1.02884v-4.77538c0,-1.94139 -1.10649,-2.71787 -2.36828,-2.71787c-1.86356,0 -2.67886,1.66944 -2.79534,2.50434v4.98891c0,0.56295 -0.46589,1.02884 -1.02884,1.02884c-0.56295,0 -1.02884,-0.46589 -1.02884,-1.02884v-8.17267c0,-0.58236 0.46589,-1.04826 1.02884,-1.04826c0.56295,0 1.02884,0.46589 1.02884,1.04826v1.2812c0.09706,-0.67942 1.26179,-2.36828 3.47476,-2.36828c1.88297,0 3.72712,1.18414 3.72712,4.48437z"/><path d="M202.83584,-43.72948c0,0.7959 -0.44648,1.10649 -1.2812,1.10649l-6.50305,-0.01941c0.21353,1.80532 1.63062,2.69829 3.18358,2.69829c0.7959,0 1.33943,-0.19412 1.94121,-0.56295c0.33,-0.17471 0.54354,-0.3106 0.8153,-0.3106c0.44648,0 0.71825,0.3106 0.71825,0.73766c0,0.25236 -0.09706,0.52413 -0.52413,0.87354c-0.73766,0.60178 -1.80532,0.95119 -3.02829,0.95119c-2.52357,0 -5.22186,-1.6112 -5.22186,-5.12479c0,-3.49436 2.81475,-5.18321 5.02773,-5.18321c2.21298,0 4.87244,1.74709 4.87244,4.8338zM195.05159,-44.11773h5.7848c-0.17471,-1.84433 -1.57239,-2.65964 -2.87299,-2.65964c-1.2812,0 -2.7371,0.81531 -2.91181,2.65964z"/><path d="M214.03662,-44.05949v4.77538c0,0.56295 -0.44649,1.02884 -1.00943,1.02884c-0.56295,0 -1.02884,-0.46589 -1.02884,-1.02884v-4.77538c0,-1.94139 -1.10649,-2.71787 -2.36828,-2.71787c-1.86356,0 -2.67886,1.66944 -2.79534,2.50434v4.98891c0,0.56295 -0.46589,1.02884 -1.02884,1.02884c-0.56295,0 -1.02884,-0.46589 -1.02884,-1.02884v-8.17267c0,-0.58236 0.46589,-1.04826 1.02884,-1.04826c0.56295,0 1.02884,0.46589 1.02884,1.04826v1.2812c0.09706,-0.67942 1.26179,-2.36828 3.47476,-2.36828c1.88297,0 3.72712,1.18414 3.72712,4.48437z"/><path d="M225.878,-43.72948c0,0.7959 -0.44648,1.10649 -1.2812,1.10649l-6.50305,-0.01941c0.21353,1.80532 1.63062,2.69829 3.18358,2.69829c0.7959,0 1.33943,-0.19412 1.94121,-0.56295c0.33,-0.17471 0.54354,-0.3106 0.8153,-0.3106c0.44648,0 0.71825,0.3106 0.71825,0.73766c0,0.25236 -0.09706,0.52413 -0.52413,0.87354c-0.73766,0.60178 -1.80533,0.95119 -3.02829,0.95119c-2.52357,0 -5.22186,-1.6112 -5.22186,-5.12479c0,-3.49436 2.81475,-5.18321 5.02773,-5.18321c2.21298,0 4.87244,1.74709 4.87244,4.8338zM218.09375,-44.11773h5.7848c-0.17471,-1.84433 -1.57239,-2.65964 -2.87299,-2.65964c-1.2812,0 -2.7371,0.81531 -2.91181,2.65964z"/><path d="M244.30007,-44.05949v4.77538c0,0.56295 -0.46589,1.02884 -1.00943,1.02884c-0.56295,0 -1.02884,-0.46589 -1.02884,-1.02884v-4.77538c0,-1.94139 -1.1065,-2.71787 -2.36828,-2.71787c-1.86356,0 -2.67886,1.66944 -2.81475,2.50434v0.21353v4.77538c0,0.56295 -0.44649,1.02884 -1.00943,1.02884c-0.56295,0 -1.02884,-0.46589 -1.02884,-1.02884v-4.77538c0,-1.94139 -1.10649,-2.71787 -2.36828,-2.71787c-1.86356,0 -2.67886,1.66944 -2.79534,2.50434v4.98891c0,0.56295 -0.46589,1.02884 -1.02884,1.02884c-0.56295,0 -1.02884,-0.46589 -1.02884,-1.02884v-8.17267c0,-0.58236 0.46589,-1.04826 1.02884,-1.04826c0.56295,0 1.02884,0.46589 1.02884,1.04826v1.2812c0.09706,-0.67942 1.26179,-2.36828 3.47476,-2.36828c1.4365,0 2.87299,0.69884 3.45535,2.50416c0.54354,-1.20355 1.78591,-2.50416 3.76595,-2.50416c1.88297,0 3.72712,1.18414 3.72712,4.48437z"/><path d="M246.62952,-51.37804c0,-0.56295 0.4853,-1.02884 1.04825,-1.02884c0.56295,0 1.04826,0.46589 1.04826,1.02884c0,0.56295 -0.4853,1.02884 -1.04826,1.02884c-0.56295,0 -1.04825,-0.46589 -1.04825,-1.02884zM248.70661,-47.45679v8.17267c0,0.58236 -0.46589,1.04825 -1.02884,1.04825c-0.56295,0 -1.02884,-0.46589 -1.02884,-1.04825v-8.17267c0,-0.58236 0.46589,-1.04826 1.02884,-1.04826c0.56295,0 1.02884,0.46589 1.02884,1.04826z"/><path d="M260.56741,-43.72948c0,0.7959 -0.44648,1.10649 -1.2812,1.10649l-6.50305,-0.01941c0.21353,1.80532 1.63062,2.69829 3.18358,2.69829c0.7959,0 1.33943,-0.19412 1.94121,-0.56295c0.33,-0.17471 0.54354,-0.3106 0.8153,-0.3106c0.44648,0 0.71825,0.3106 0.71825,0.73766c0,0.25236 -0.09706,0.52413 -0.52413,0.87354c-0.73766,0.60178 -1.80532,0.95119 -3.02829,0.95119c-2.52357,0 -5.22186,-1.6112 -5.22186,-5.12479c0,-3.49436 2.81475,-5.18321 5.02773,-5.18321c2.21298,0 4.87244,1.74709 4.87244,4.8338zM252.78315,-44.11773h5.7848c-0.17471,-1.84433 -1.57239,-2.65964 -2.87299,-2.65964c-1.2812,0 -2.7371,0.81531 -2.91181,2.65964z"/><path d="M268.89519,-47.04913c0.11648,0.17471 0.27177,0.38825 0.27177,0.71825c0,0.4853 -0.36884,0.77649 -0.83472,0.77649c-0.3106,0 -0.60178,-0.13588 -0.89295,-0.52413c-0.38824,-0.4853 -0.93178,-0.81531 -1.72767,-0.81531c-0.97061,0 -1.55297,0.4853 -1.55297,1.18414c0,0.4853 0.27177,0.95138 1.30062,1.24256l1.20355,0.33c1.65003,0.44648 2.8924,1.18414 2.8924,2.81475c0,2.03827 -1.92179,3.06711 -3.94065,3.06711c-1.68885,0 -2.87299,-0.73766 -3.37771,-1.53356c-0.09706,-0.13588 -0.40765,-0.52413 -0.40765,-0.99002c0,-0.40765 0.25236,-0.83472 0.7959,-0.83472c0.44648,0 0.67942,0.27177 0.87354,0.56295c0.4853,0.8153 1.2812,1.08707 2.11592,1.08707c1.1259,0 1.90239,-0.46589 1.90239,-1.24238c0,-0.58236 -0.40765,-1.00943 -1.37826,-1.2812l-1.30062,-0.34942c-1.88297,-0.52413 -2.69828,-1.53355 -2.69828,-2.85375c0,-1.82473 1.65002,-2.87299 3.533,-2.87299c1.39767,0 2.60122,0.56295 3.22241,1.51415z"/></g></g></g></g></svg>