<svg version="1.1" xmlns="http://www.w3.org/2000/svg" xmlns:xlink="http://www.w3.org/1999/xlink" width="616.11048" height="393" viewBox="0,0,616.11048,393"><defs><linearGradient x1="147.55284" y1="0.13461" x2="147.55284" y2="102.81792" gradientUnits="userSpaceOnUse" id="color-1"><stop offset="0" stop-color="#ef1f9c"/><stop offset="1" stop-color="#ed358e"/></linearGradient><linearGradient x1="89.3019" y1="109.90763" x2="89.3019" y2="159.20273" gradientUnits="userSpaceOnUse" id="color-2"><stop offset="0" stop-color="#ec1f99"/><stop offset="1" stop-color="#ed358e"/></linearGradient><linearGradient x1="612.59263" y1="123.88342" x2="612.59263" y2="152.95057" gradientUnits="userSpaceOnUse" id="color-3"><stop offset="0" stop-color="#ffe9d8"/><stop offset="1" stop-color="#f7cbd0"/></linearGradient><linearGradient x1="576.74109" y1="123.80868" x2="576.74109" y2="152.87584" gradientUnits="userSpaceOnUse" id="color-4"><stop offset="0" stop-color="#ffe9d8"/><stop offset="1" stop-color="#f7cbd0"/></linearGradient><linearGradient x1="540.00249" y1="123.73396" x2="540.00249" y2="152.80111" gradientUnits="userSpaceOnUse" id="color-5"><stop offset="0" stop-color="#ffe9d8"/><stop offset="1" stop-color="#f7cbd0"/></linearGradient><linearGradient x1="503.26388" y1="123.65922" x2="503.26388" y2="152.72637" gradientUnits="userSpaceOnUse" id="color-6"><stop offset="0" stop-color="#ffe9d8"/><stop offset="1" stop-color="#f7cbd0"/></linearGradient><linearGradient x1="538.40353" y1="128.33268" x2="538.40353" y2="159.57469" gradientUnits="userSpaceOnUse" id="color-7"><stop offset="0" stop-color="#fde3d6"/><stop offset="1" stop-color="#f7cbd0"/></linearGradient><linearGradient x1="636.44859" y1="135.2698" x2="636.44859" y2="165.43013" gradientUnits="userSpaceOnUse" id="color-8"><stop offset="0" stop-color="#fde0d6"/><stop offset="1" stop-color="#f7cbd0"/></linearGradient><linearGradient x1="479.98605" y1="134.43961" x2="479.98605" y2="164.59996" gradientUnits="userSpaceOnUse" id="color-9"><stop offset="0" stop-color="#fbdcd4"/><stop offset="1" stop-color="#f7cbd0"/></linearGradient><linearGradient x1="521.73752" y1="161.21665" x2="521.73752" y2="190.28381" gradientUnits="userSpaceOnUse" id="color-10"><stop offset="0" stop-color="#ffe9d8"/><stop offset="1" stop-color="#f7cbd0"/></linearGradient><linearGradient x1="484.99891" y1="161.14194" x2="484.99891" y2="190.20908" gradientUnits="userSpaceOnUse" id="color-11"><stop offset="0" stop-color="#ffe9d8"/><stop offset="1" stop-color="#f7cbd0"/></linearGradient><linearGradient x1="449.14736" y1="161.06719" x2="449.14736" y2="190.13436" gradientUnits="userSpaceOnUse" id="color-12"><stop offset="0" stop-color="#ffe9d8"/><stop offset="1" stop-color="#f7cbd0"/></linearGradient><linearGradient x1="410.8098" y1="165.59119" x2="410.8098" y2="196.8332" gradientUnits="userSpaceOnUse" id="color-13"><stop offset="0" stop-color="#fde3d6"/><stop offset="1" stop-color="#f7cbd0"/></linearGradient><linearGradient x1="542.43999" y1="173.03373" x2="542.43999" y2="203.19406" gradientUnits="userSpaceOnUse" id="color-14"><stop offset="0" stop-color="#fde0d6"/><stop offset="1" stop-color="#f7cbd0"/></linearGradient><linearGradient x1="430.55912" y1="172.33346" x2="430.55912" y2="202.4938" gradientUnits="userSpaceOnUse" id="color-15"><stop offset="0" stop-color="#fbdcd4"/><stop offset="1" stop-color="#f7cbd0"/></linearGradient></defs><g transform="translate(-37.7853,10.4699)"><g data-paper-data="{&quot;isPaintingLayer&quot;:true}" fill-rule="nonzero" stroke-linejoin="miter" stroke-miterlimit="10" stroke-dasharray="" stroke-dashoffset="0" style="mix-blend-mode: normal"><g><g data-paper-data="{&quot;origPos&quot;:null}"><path d="M91.36183,184.83652c0,0 -3.21594,-0.32969 -4.52681,-1.70216c-1.31088,-1.37247 -1.34933,-4.4501 -1.34933,-4.4501l-0.50549,-25.27413l11.77124,1.85235l0.04089,14.84474c0,0 0.21249,1.21544 0.78229,1.77686c0.5698,0.56142 1.81171,0.77897 1.81171,0.77897h18.46913v12.42347z" data-paper-data="{&quot;origPos&quot;:null,&quot;index&quot;:null}" fill="#910049" stroke="none" stroke-width="0" stroke-linecap="butt"/><path d="M162.96247,140.77702v-11.56633h19.21749c0,0 1.24189,-0.21753 1.81169,-0.77895c0.5698,-0.56142 0.7823,-1.77687 0.7823,-1.77687l0.04089,-14.84474l11.45264,-1.85235l-0.04239,24.38126c0,0 -0.03846,3.07763 -1.34933,4.4501c-1.31087,1.37247 -4.52681,1.70216 -4.52681,1.70216z" data-paper-data="{&quot;origPos&quot;:null}" fill="#910049" stroke="none" stroke-width="0" stroke-linecap="butt"/><g data-paper-data="{&quot;origPos&quot;:null}"><path d="M113.68512,213.22657v-111.35113h53.35678v111.35113z" data-paper-data="{&quot;origPos&quot;:null}" fill="#910044" stroke="none" stroke-width="0" stroke-linecap="butt"/><path d="M156.80924,212.69971l-0.22467,-109.51061l10.62472,-0.91449c0,0 0,32.85902 0,53.30515c0,22.29179 0,57.11996 0,57.11996z" data-paper-data="{&quot;origPos&quot;:null}" fill="#a30052" stroke="none" stroke-width="0" stroke-linecap="butt"/><path d="M113.40032,211.77945v-109.51061h10.62472l-0.22467,109.51061z" data-paper-data="{&quot;origPos&quot;:null}" fill="#a30052" stroke="none" stroke-width="0" stroke-linecap="butt"/><path d="M124.07388,113.1755v-11.27603h32.32634v11.27603z" data-paper-data="{&quot;origPos&quot;:null}" fill="#85003e" stroke="none" stroke-width="0" stroke-linecap="butt"/><path d="M156.39881,113.40412v-11.50322h10.85365v11.50322z" data-paper-data="{&quot;origPos&quot;:null}" fill="#780041" stroke="none" stroke-width="0" stroke-linecap="butt"/><path d="M113.57572,113.17406v-11.04309h10.63039v11.04309z" data-paper-data="{&quot;origPos&quot;:null}" fill="#780041" stroke="none" stroke-width="0" stroke-linecap="butt"/><path d="M184.88732,112.944l-0.22467,-11.50321h11.50688l0.22467,11.50321z" data-paper-data="{&quot;origPos&quot;:null}" fill="#780041" stroke="none" stroke-width="0" stroke-linecap="butt"/><path d="M128.7056,158.55994v-32.28749" data-paper-data="{&quot;origPos&quot;:null}" fill="none" stroke="#b30064" stroke-width="10" stroke-linecap="round"/><path d="M151.89618,176.39553v28.94648" data-paper-data="{&quot;origPos&quot;:null}" fill="none" stroke="#b3005d" stroke-width="10" stroke-linecap="round"/><path d="M151.33729,145.19538v-6.56373" data-paper-data="{&quot;origPos&quot;:null}" fill="none" stroke="#a8005e" stroke-width="10" stroke-linecap="round"/></g><path d="M85.31884,168.2683v-11.50322h11.28296v11.50322z" data-paper-data="{&quot;origPos&quot;:null}" fill="#780041" stroke="none" stroke-width="0" stroke-linecap="butt"/></g><g data-paper-data="{&quot;origPos&quot;:null}" stroke="none" stroke-width="0" stroke-linecap="butt"><path d="M71.02053,85.40473v-58.05421c0,0 0.75608,-12.19824 7.70896,-19.50695c6.75153,-7.09705 18.97981,-7.30323 18.97981,-7.30323l99.81077,-0.40573c0,0 12.21215,0.43527 19.38555,8.52043c5.63758,6.35413 6.63032,16.69582 6.63032,16.69582l0.54921,63.25133l-19.20596,14.21573l-118.54795,-0.33421z" data-paper-data="{&quot;origPos&quot;:null}" fill="url(#color-1)"/><path d="M103.96506,23.57104c0,-3.80937 3.08811,-6.89749 6.89749,-6.89749c3.80939,0 6.89749,3.08811 6.89749,6.89749c0,3.80939 -3.08812,6.8975 -6.89749,6.8975c-3.80939,0 -6.89749,-3.08811 -6.89749,-6.8975z" data-paper-data="{&quot;origPos&quot;:null}" fill="#fc26ae"/><path d="M181.86616,31.07714c0,-2.35286 1.90736,-4.26022 4.26022,-4.26022c2.35285,0 4.26021,1.90736 4.26021,4.26022c0,2.35286 -1.90735,4.26022 -4.26021,4.26022c-2.35285,0 -4.26022,-1.90736 -4.26022,-4.26022z" data-paper-data="{&quot;origPos&quot;:null}" fill="#fc26ae"/><path d="M100.31345,63.36048c0,-4.70571 3.81473,-8.52044 8.52042,-8.52044c4.70571,0 8.52044,3.81473 8.52044,8.52044c0,4.7057 -3.81473,8.52042 -8.52044,8.52042c-4.70571,0 -8.52042,-3.81472 -8.52042,-8.52042z" data-paper-data="{&quot;origPos&quot;:null}" fill="#f916a6"/><path d="M141.6984,57.88306c0,-3.69734 2.99729,-6.69463 6.69463,-6.69463c3.69734,0 6.69462,2.99729 6.69462,6.69463c0,3.69734 -2.99728,6.69463 -6.69462,6.69463c-3.69734,0 -6.69463,-2.99729 -6.69463,-6.69463z" data-paper-data="{&quot;origPos&quot;:null}" fill="#f725aa"/><path d="M182.26117,79.02648c0,-2.91305 2.3615,-5.27456 5.27456,-5.27456c2.91305,0 5.27455,2.3615 5.27455,5.27456c0,2.91306 -2.3615,5.27455 -5.27455,5.27455c-2.91305,0 -5.27456,-2.3615 -5.27456,-5.27455z" data-paper-data="{&quot;origPos&quot;:null}" fill="#eb0597"/><path d="M67.92194,86.43468c0,-3.69733 2.99729,-6.69462 6.69463,-6.69462c3.69734,0 6.69463,2.99729 6.69463,6.69462c0,3.69733 -2.99728,6.69463 -6.69463,6.69463c-3.69734,0 -6.69463,-2.99728 -6.69463,-6.69463z" data-paper-data="{&quot;origPos&quot;:null}" fill="#f0059a"/><path d="M75.28384,97.04246c0,-4.59367 3.7239,-8.31756 8.31757,-8.31756c4.59366,0 8.31757,3.72389 8.31757,8.31756c0,4.59366 -3.72391,8.31756 -8.31757,8.31756c-4.59366,0 -8.31757,-3.72389 -8.31757,-8.31756z" data-paper-data="{&quot;origPos&quot;:null}" fill="#e60593"/><path d="M118.29174,99.8826c0,-3.69733 2.99728,-6.69462 6.69463,-6.69462c3.69734,0 6.69462,2.99729 6.69462,6.69462c0,3.69733 -2.99729,6.69462 -6.69462,6.69462c-3.69734,0 -6.69463,-2.99729 -6.69463,-6.69462z" data-paper-data="{&quot;origPos&quot;:null}" fill="#e60593"/><path d="M130.33781,97.84794c0,-5.60203 4.54135,-10.14337 10.14338,-10.14337c5.60203,0 10.14337,4.54134 10.14337,10.14337c0,5.60203 -4.54134,10.14337 -10.14337,10.14337c-5.60203,0 -10.14338,-4.54134 -10.14338,-10.14337z" data-paper-data="{&quot;origPos&quot;:null}" fill="#e60593"/><path d="M196.35992,99.01787c0,-3.92142 3.17894,-7.10036 7.10037,-7.10036c3.92142,0 7.10036,3.17894 7.10036,7.10036c0,3.92141 -3.17894,7.10036 -7.10036,7.10036c-3.92142,0 -7.10037,-3.17894 -7.10037,-7.10036z" data-paper-data="{&quot;origPos&quot;:null}" fill="#e81786"/><path d="M215.35008,77.21051c0,-3.49159 2.83049,-6.32207 6.32207,-6.32207c3.49158,0 6.32208,2.83049 6.32208,6.32207c0,3.49159 -2.8305,6.32208 -6.32208,6.32208c-3.49158,0 -6.32207,-2.83049 -6.32207,-6.32208z" data-paper-data="{&quot;origPos&quot;:null}" fill="#f0059a"/><path d="M207.66124,90.65472c0,-5.21093 4.22428,-9.43521 9.4352,-9.43521c5.21092,0 9.4352,4.22428 9.4352,9.43521c0,5.21092 -4.22428,9.43521 -9.4352,9.43521c-5.21092,0 -9.4352,-4.22429 -9.4352,-9.43521z" data-paper-data="{&quot;origPos&quot;:null}" fill="#e81786"/></g><g data-paper-data="{&quot;origPos&quot;:null}" stroke="none" stroke-width="0" stroke-linecap="butt"><path d="M52.44803,156.26931l0.22609,-33.29615c0,0 0.36296,-5.85601 3.70083,-9.3647c3.2412,-3.40707 9.11163,-3.50605 9.11163,-3.50605l47.91609,-0.19478c0,0 5.86268,0.20896 9.30641,4.09041c2.70643,3.05042 3.18302,8.01514 3.18302,8.01514l0.26365,30.36502l-9.67237,6.82454l-56.45906,-0.16044z" data-paper-data="{&quot;origPos&quot;:null}" fill="url(#color-2)"/><path d="M70.27937,124.50757c0,-3.18405 2.58119,-5.76525 5.76525,-5.76525c3.18406,0 5.76524,2.5812 5.76524,5.76525c0,3.18405 -2.58119,5.76524 -5.76524,5.76524c-3.18406,0 -5.76525,-2.58119 -5.76525,-5.76524z" data-paper-data="{&quot;origPos&quot;:null}" fill="#fc26ae"/><path d="M52.41841,156.90015c0,-3.43379 2.78363,-6.21743 6.21742,-6.21743c3.43379,0 6.21742,2.78364 6.21742,6.21743c0,3.43379 -2.78363,6.21742 -6.21742,6.21742c-3.43379,0 -6.21742,-2.78363 -6.21742,-6.21742z" data-paper-data="{&quot;origPos&quot;:null}" fill="#ed358e"/><path d="M103.06214,119.1945c0,-2.1227 1.7208,-3.8435 3.8435,-3.8435c2.1227,0 3.84349,1.7208 3.84349,3.8435c0,2.1227 -1.72079,3.84349 -3.84349,3.84349c-2.1227,0 -3.8435,-1.72079 -3.8435,-3.84349z" fill="#fc26ae"/><path d="M48.34882,145.6468c0,-3.37135 2.73302,-6.10438 6.10438,-6.10438c3.37135,0 6.10438,2.73302 6.10438,6.10438c0,3.37135 -2.73302,6.10437 -6.10438,6.10437c-3.37135,0 -6.10438,-2.73302 -6.10438,-6.10437z" data-paper-data="{&quot;origPos&quot;:null}" fill="#f511a1"/><path d="M77.32912,155.9678c0,-4.37027 3.54281,-7.91308 7.91308,-7.91308c4.37027,0 7.91308,3.54281 7.91308,7.91308c0,4.37027 -3.54281,7.91308 -7.91308,7.91308c-4.37027,0 -7.91308,-3.5428 -7.91308,-7.91308z" data-paper-data="{&quot;origPos&quot;:null}" fill="#e60593"/><path d="M106.67955,157.12623c0,-3.43379 2.78363,-6.21742 6.21742,-6.21742c3.43379,0 6.21742,2.78363 6.21742,6.21742c0,3.43379 -2.78364,6.21742 -6.21742,6.21742c-3.43379,0 -6.21742,-2.78363 -6.21742,-6.21742z" data-paper-data="{&quot;origPos&quot;:null}" fill="#e60593"/><path d="M111.6945,149.18516c0,-4.37027 3.5428,-7.91308 7.91308,-7.91308c4.37028,0 7.91308,3.5428 7.91308,7.91308c0,4.37027 -3.54281,7.91308 -7.91308,7.91308c-4.37027,0 -7.91308,-3.54281 -7.91308,-7.91308z" data-paper-data="{&quot;origPos&quot;:null}" fill="#f0059a"/></g></g><path d="M94.32938,362.18723v-133.29809l162.48479,-2.96603l160.19014,-112.59622l65.84677,5.82647l-0.43378,243.65639z" data-paper-data="{&quot;index&quot;:null}" fill="#4000af" stroke="none" stroke-width="0" stroke-linecap="butt"/><path d="M482.92305,114.34325v33.17037l-67.02549,0.11397l-142.98698,81.47674l-29.03962,7.27984h-149.75553v-28.21275l160.13513,-0.07658l161.63164,-93.76113z" data-paper-data="{&quot;index&quot;:null}" fill="#4926f1" stroke="none" stroke-width="0" stroke-linecap="butt"/><path d="M479.54138,114.18435l-64.07602,0.03909l-162.613,93.45904h-155.72695" data-paper-data="{&quot;index&quot;:null}" fill="none" stroke="#3eb5fa" stroke-width="7" stroke-linecap="round"/><path d="M294.93851,202.71836c0,0 -37.4184,21.06059 -38.35196,21.06059c-4.05064,0 -59.55283,0 -59.55283,0" data-paper-data="{&quot;index&quot;:null}" fill="none" stroke="#502bff" stroke-width="25" stroke-linecap="round"/><path d="M297.56427,276.1521h-61.60022" data-paper-data="{&quot;index&quot;:null}" fill="none" stroke="#3d00a3" stroke-width="30" stroke-linecap="round"/><path d="M190.75704,305.47147h83.75037" data-paper-data="{&quot;index&quot;:null}" fill="none" stroke="#39009c" stroke-width="30" stroke-linecap="round"/><path d="M37.7853,382.5301v-393h616.11048v393z" fill="none" stroke="none" stroke-width="0" stroke-linecap="butt"/><path d="M436.4815,223.52755h45.33303h-11.56817" data-paper-data="{&quot;index&quot;:null}" fill="none" stroke="#3d00a3" stroke-width="30" stroke-linecap="round"/><path d="M452.07884,158.87478l-31.30992,-0.19177" fill="none" stroke="#4a00ca" stroke-width="22.5" stroke-linecap="round"/><path d="M406.21777,279.66093h75.59402h-20.81459" data-paper-data="{&quot;index&quot;:null}" fill="none" stroke="#3d00a3" stroke-width="30" stroke-linecap="round"/><path d="M465.13053,251.26502h16.64763h-34.65343" data-paper-data="{&quot;index&quot;:null}" fill="none" stroke="#3d00a3" stroke-width="27" stroke-linecap="round"/><path d="M444.05395,251.4285h-40.82889" data-paper-data="{&quot;index&quot;:null}" fill="none" stroke="#4000af" stroke-width="27" stroke-linecap="round"/><g data-paper-data="{&quot;index&quot;:null}"><g data-paper-data="{&quot;origPos&quot;:null}" stroke="none" stroke-linecap="butt"><path d="M588.64177,146.06013c0,-12.24786 10.72317,-22.17671 23.95085,-22.17671c13.22769,0 23.95085,9.92885 23.95085,22.17671c0,12.24787 -20.84611,4.43534 -20.84611,4.43534c0,0 -27.05558,7.81252 -27.05558,-4.43534z" data-paper-data="{&quot;origPos&quot;:null}" fill="url(#color-3)" stroke-width="NaN"/><path d="M552.79023,145.9854c0,-12.24786 10.72317,-22.17671 23.95085,-22.17671c13.22769,0 23.95085,9.92885 23.95085,22.17671c0,12.24787 -20.84611,4.43534 -20.84611,4.43534c0,0 -27.05558,7.81252 -27.05558,-4.43534z" data-paper-data="{&quot;origPos&quot;:null}" fill="url(#color-4)" stroke-width="NaN"/><path d="M516.05163,145.91067c0,-12.24786 10.72317,-22.17671 23.95085,-22.17671c13.2277,0 23.95085,9.92885 23.95085,22.17671c0,12.24787 -20.84611,4.43534 -20.84611,4.43534c0,0 -27.05558,7.81252 -27.05558,-4.43534z" data-paper-data="{&quot;origPos&quot;:null}" fill="url(#color-5)" stroke-width="NaN"/><path d="M479.31303,145.83593c0,-12.24786 10.72317,-22.17671 23.95085,-22.17671c13.2277,0 23.95085,9.92885 23.95085,22.17671c0,12.24786 -20.84611,4.43533 -20.84611,4.43533c0,0 -27.05558,7.81253 -27.05558,-4.43533z" data-paper-data="{&quot;origPos&quot;:null}" fill="url(#color-6)" stroke-width="NaN"/><path d="M471.8663,159.57469l20.22687,-30.74431l134.02408,1.46022l8.76134,30.25757z" data-paper-data="{&quot;origPos&quot;:null}" fill="url(#color-7)" stroke-width="0"/><path d="M620.92488,150.34996c0,-8.32855 6.9502,-15.08016 15.5237,-15.08016c8.5735,0 15.5237,6.75161 15.5237,15.08016c0,8.32854 -4.64605,16.4396 -13.21955,16.4396c-8.5735,0 -17.82784,-8.11105 -17.82784,-16.4396z" data-paper-data="{&quot;origPos&quot;:null}" fill="url(#color-8)" stroke-width="0"/><path d="M479.98607,134.43964c3.71778,0 5.90243,0.65935 8.96486,2.76731c4.66595,3.21169 6.55884,6.64839 6.55884,12.31285c0,8.32855 -9.2474,16.62852 -17.8209,16.62852c-8.5735,0 -13.2265,-8.29997 -13.2265,-16.62852c0,-8.32854 6.9502,-15.08016 15.5237,-15.08016z" data-paper-data="{&quot;origPos&quot;:null}" fill="url(#color-9)" stroke-width="0"/></g><path d="M639.2724,162.96791c0,0 -70.9387,0 -119.85778,0c-15.5848,0 -33.91934,0 -39.9341,0c-2.00492,0 -3.47146,0 -3.47146,0" data-paper-data="{&quot;origPos&quot;:null}" fill="#ffc3d5" stroke="#ffc3d5" stroke-width="10" stroke-linecap="round"/><path d="M573.68147,159.17413c5.16868,-1.6283 6.93222,-1.48741 10.36417,-3.39753c4.6158,-3.00757 9.67257,-2.34864 9.67257,-2.34864c4.85924,0 8.14324,-0.09767 12.8288,2.71514c2.12931,1.27826 4.81479,1.43009 7.80644,2.82298c0.29545,0.13756 -6.44486,2.90845 -6.44486,3.23435c0,5.87785 -6.9113,0.28571 -14.74843,0.28571c-7.83713,0 -23.97789,-0.78138 -19.47868,-3.31201z" data-paper-data="{&quot;origPos&quot;:null}" fill="#ffc3d5" stroke="none" stroke-width="0" stroke-linecap="butt"/><path d="M537.76893,158.8462c5.16868,-1.6283 6.93222,-1.48741 10.36417,-3.39753c4.6158,-3.00757 9.67257,-2.34864 9.67257,-2.34864c4.85924,0 8.14324,-0.09767 12.8288,2.71514c2.1293,1.27826 4.81478,1.43009 7.80643,2.82298c0.29544,0.13756 -6.44485,2.90845 -6.44485,3.23435c0,5.87785 -6.9113,0.28571 -14.74843,0.28571c-7.83713,0 -23.97789,-0.78138 -19.47868,-3.31201z" data-paper-data="{&quot;origPos&quot;:null}" fill="#ffc3d5" stroke="none" stroke-width="0" stroke-linecap="butt"/><path d="M500.58767,158.6347c5.16868,-1.6283 6.93222,-1.4874 10.36417,-3.39752c4.6158,-3.00757 9.67257,-2.34864 9.67257,-2.34864c4.85924,0 8.14324,-0.09767 12.8288,2.71514c2.1293,1.27826 4.81478,1.43009 7.80643,2.82298c0.29544,0.13756 -6.44485,2.90845 -6.44485,3.23435c0,5.87785 -6.91131,0.28571 -14.74844,0.28571c-7.83712,0 -23.97788,-0.78138 -19.47867,-3.31201z" data-paper-data="{&quot;origPos&quot;:null}" fill="#ffc3d5" stroke="none" stroke-width="0" stroke-linecap="butt"/></g><g data-paper-data="{&quot;index&quot;:null}"><g data-paper-data="{&quot;origPos&quot;:null}" stroke="none" stroke-linecap="butt"><path d="M497.78664,183.39338c0,-12.24786 10.72317,-22.1767 23.95085,-22.1767c13.22769,0 23.95085,9.92884 23.95085,22.1767c0,12.24786 -20.84611,4.43534 -20.84611,4.43534c0,0 -27.05558,7.81252 -27.05558,-4.43534z" data-paper-data="{&quot;origPos&quot;:null}" fill="url(#color-10)" stroke-width="NaN"/><path d="M461.04804,183.31864c0,-12.24786 10.72317,-22.17671 23.95085,-22.17671c13.22769,0 23.95085,9.92885 23.95085,22.17671c0,12.24787 -20.84611,4.43534 -20.84611,4.43534c0,0 -27.05558,7.81252 -27.05558,-4.43534z" data-paper-data="{&quot;origPos&quot;:null}" fill="url(#color-11)" stroke-width="NaN"/><path d="M425.1965,183.24391c0,-12.24786 10.72317,-22.17671 23.95085,-22.17671c13.22769,0 23.95085,9.92885 23.95085,22.17671c0,12.24787 -20.84611,4.43534 -20.84611,4.43534c0,0 -27.05558,7.81252 -27.05558,-4.43534z" data-paper-data="{&quot;origPos&quot;:null}" fill="url(#color-12)" stroke-width="NaN"/><path d="M422.63671,197.63033l14.22687,-29.87477l93.29811,-1.66667v31.41098z" data-paper-data="{&quot;origPos&quot;:null}" fill="url(#color-13)" stroke-width="0"/><path d="M526.91626,188.11389c0,-8.32855 6.9502,-15.08016 15.5237,-15.08016c8.5735,0 15.5237,6.75161 15.5237,15.08016c0,8.32854 -5.46672,15.94632 -14.04022,15.94632c-8.5735,0 -17.00717,-7.61777 -17.00717,-15.94632z" data-paper-data="{&quot;origPos&quot;:null}" fill="url(#color-14)" stroke-width="0"/><path d="M430.55914,172.33349c3.71778,0 5.90243,0.65935 8.96486,2.76731c4.66595,3.21169 6.55884,6.64839 6.55884,12.31285c0,8.32855 -9.1921,16.63162 -17.7656,16.63162c-8.5735,0 -13.2818,-8.30307 -13.2818,-16.63162c0,-8.32854 6.9502,-15.08016 15.5237,-15.08016z" data-paper-data="{&quot;origPos&quot;:null}" fill="url(#color-15)" stroke-width="0"/></g><path d="M545.40091,201.4453h-121.79394" data-paper-data="{&quot;origPos&quot;:null}" fill="#ffc3d5" stroke="#ffc3d5" stroke-width="9" stroke-linecap="round"/><path d="M484.24376,196.64411c5.16868,-1.6283 6.93222,-1.48741 10.36417,-3.39753c4.6158,-3.00757 9.67257,-2.34864 9.67257,-2.34864c4.85924,0 8.14324,-0.09767 12.8288,2.71514c2.1293,1.27826 4.81478,1.43009 7.80643,2.82298c0.29545,0.13756 -6.44486,2.90845 -6.44486,3.23435c0,5.87785 -6.9113,0.28571 -14.74843,0.28571c-7.83712,0 -23.97788,-0.78138 -19.47867,-3.31201z" data-paper-data="{&quot;origPos&quot;:null}" fill="#ffc3d5" stroke="none" stroke-width="0" stroke-linecap="butt"/><path d="M446.08775,196.43265c5.16868,-1.6283 6.93222,-1.48741 10.36417,-3.39753c4.6158,-3.00757 9.67257,-2.34864 9.67257,-2.34864c4.85924,0 8.14324,-0.09767 12.8288,2.71514c2.12931,1.27826 4.81479,1.43009 7.80644,2.82298c0.29545,0.13756 -6.44486,2.90845 -6.44486,3.23435c0,5.87785 -6.9113,0.28571 -14.74843,0.28571c-7.83713,0 -23.97789,-0.78138 -19.47868,-3.31201z" data-paper-data="{&quot;origPos&quot;:null}" fill="#ffc3d5" stroke="none" stroke-width="0" stroke-linecap="butt"/></g></g></g></svg>