<svg version="1.1" xmlns="http://www.w3.org/2000/svg" xmlns:xlink="http://www.w3.org/1999/xlink" width="292.09089" height="131.02019" viewBox="0,0,292.09089,131.02019"><g transform="translate(-218.95457,8.01009)"><g data-paper-data="{&quot;isPaintingLayer&quot;:true}" stroke="none" stroke-miterlimit="10" stroke-dasharray="" stroke-dashoffset="0" style="mix-blend-mode: normal"><path d="M339.39851,10.52881h119.22716c5.67764,0 10.28044,5.18621 10.28044,11.58346v50.12007c0,6.39726 -4.60278,11.58343 -10.28044,11.58343h-119.22716c-5.67785,0 -10.28067,-5.18618 -10.28067,-11.58343v-50.12007c0,-6.39726 4.60283,-11.58346 10.28067,-11.58346z" data-paper-data="{&quot;origPos&quot;:null}" fill="#ffffff" fill-rule="evenodd" stroke-width="1" stroke-linecap="round" stroke-linejoin="round"/><path d="M218.95457,123.0101v-131.02019h292.09089v131.02019z" fill="none" fill-rule="nonzero" stroke-width="0" stroke-linecap="butt" stroke-linejoin="miter"/><path d="" data-paper-data="{&quot;origPos&quot;:null}" fill="#000000" fill-rule="nonzero" stroke-width="1" stroke-linecap="butt" stroke-linejoin="miter"/><path d="M348.80884,88.56442v-52.80417h69.16102v52.80417z" data-paper-data="{&quot;origPos&quot;:null}" fill="none" fill-rule="nonzero" stroke-width="0" stroke-linecap="butt" stroke-linejoin="miter"/><g fill-rule="nonzero" stroke-linecap="butt" stroke-linejoin="miter"><path d="M415.14593,69.73498c0,3.43084 -1.6282,6.22202 -5.05904,6.80353h-25.87668c-3.43084,-0.5815 -5.05904,-3.37269 -5.05904,-6.86168c0,-2.61674 1.68635,-4.94274 4.01234,-5.81498c-0.17446,-0.3489 0.52335,-0.34891 0.52335,-0.75596c0,-1.33745 0.29075,-2.73305 1.6282,-2.73305c0.11631,0 0.29075,0.05815 0.40705,0.05815c-0.17446,-0.40705 0.4652,-0.52334 0.4652,-1.04669c0,-2.03524 0.93041,-4.07049 2.96565,-4.07049c0.5815,0 1.0467,0.1163 1.6282,0.3489v0c0,-3.43084 2.73304,-6.16387 6.16387,-6.16387c3.37269,0 6.04758,2.67489 6.04758,6.10573c2.26785,-0.93041 4.94275,-0.4652 6.74538,1.33745c1.86079,1.8608 1.68635,4.71015 0.63964,6.97799c2.4423,0.87226 4.82644,3.14009 4.76829,5.81498z" data-paper-data="{&quot;origPos&quot;:null}" fill="#c40e0e" stroke-width="1"/><path d="M415.20407,68.57465c0,3.43084 -2.79119,6.33833 -6.16387,6.33833h-23.66698c-3.43084,0 -6.22202,-2.90749 -6.22202,-6.33833c0,-2.6749 1.68635,-5.05904 4.07048,-5.93129c-0.17446,-0.3489 -0.29075,-0.69779 -0.29075,-1.10484c0,-1.33745 1.04669,-2.38415 2.38415,-2.38415c0.11631,0 0.29076,0.05815 0.40706,0.05815c-0.17446,-0.4652 -0.29076,-0.93041 -0.29076,-1.45375c0,-2.03524 1.68636,-3.66344 3.7216,-3.66344c0.5815,0 1.04669,0.1163 1.6282,0.34891c0,-3.43084 2.73305,-6.22203 6.16388,-6.22203c3.37269,0 6.04757,2.73304 6.04757,6.10573c2.26785,-0.93041 4.94274,-0.4652 6.74538,1.33745c1.86079,1.8608 2.32601,4.65199 1.27929,6.91983c2.4423,0.87226 4.1868,3.31453 4.1868,5.98942z" data-paper-data="{&quot;origPos&quot;:null}" fill="#e83838" stroke-width="1"/><path d="M409.0402,74.91299h-7.79209l-15.58415,-15.70045c-0.17446,-0.40705 -0.23261,-0.98855 -0.23261,-1.45375c0,-2.03524 1.68635,-3.66345 3.72159,-3.66345c0.5815,0 1.0467,0.1163 1.6282,0.34891c0,-3.43084 2.73304,-6.22202 6.16387,-6.22202c3.37269,0 6.04758,2.73305 6.04758,6.04758c2.26785,-0.87226 4.94275,-0.40705 6.74538,1.3956c1.86079,1.91895 2.326,4.71013 1.27929,6.97799c2.4423,0.87226 4.18679,3.19823 4.18679,5.93129c0,3.43084 -2.79119,6.33833 -6.16387,6.33833z" data-paper-data="{&quot;origPos&quot;:null}" fill="#d91c1c" stroke-width="1"/><g data-paper-data="{&quot;origPos&quot;:null}" fill="#c40e0e" stroke-width="1"><path d="M400.60846,71.54029c-0.40705,0 -0.87225,-0.17446 -1.22114,-0.52335l-6.86167,-6.86167c-0.63964,-0.63965 -0.63964,-1.7445 0,-2.38415c0.63964,-0.63965 1.7445,-0.63965 2.38415,0l6.91982,6.86167c0.63964,0.63965 0.63964,1.7445 0,2.38415c-0.3489,0.3489 -0.75594,0.52335 -1.22114,0.52335z" data-paper-data="{&quot;origPos&quot;:null}"/><path d="M402.29479,62.93411c0,0.40705 -0.17446,0.87225 -0.52335,1.22114l-6.86168,6.86168c-0.63964,0.63965 -1.7445,0.63965 -2.38416,0c-0.63964,-0.63965 -0.63964,-1.7445 0,-2.38415l6.91983,-6.91982c0.63964,-0.63965 1.7445,-0.63965 2.38415,0c0.3489,0.3489 0.4652,0.81409 0.4652,1.22113z" data-paper-data="{&quot;origPos&quot;:null}"/></g><g data-paper-data="{&quot;origPos&quot;:null}" fill="#ffffff" stroke-width="1"><path d="M400.60846,70.31913c-0.40705,0 -0.87225,-0.17446 -1.22114,-0.52335l-6.86167,-6.86167c-0.63964,-0.63965 -0.63964,-1.7445 0,-2.38415c0.63964,-0.63965 1.7445,-0.63965 2.38415,0l6.91982,6.91983c0.63964,0.63965 0.63964,1.7445 0,2.38415c-0.3489,0.29075 -0.75594,0.4652 -1.22114,0.4652z"/><path d="M402.29479,61.77113c0,0.40705 -0.17446,0.87225 -0.52335,1.22114l-6.86168,6.86167c-0.63964,0.63965 -1.7445,0.63965 -2.38416,0c-0.63964,-0.63965 -0.63964,-1.7445 0,-2.38415l6.91983,-6.91983c0.63964,-0.63965 1.7445,-0.63965 2.38415,0c0.3489,0.3489 0.4652,0.75595 0.4652,1.22114z"/></g><path d="M370.98353,78.72788v-37.83777h48.39116v37.83777z" data-paper-data="{&quot;origPos&quot;:null}" fill="none" stroke-width="0"/></g><g fill="#000000" fill-rule="evenodd" stroke-width="1" stroke-linecap="round" stroke-linejoin="round"><path d="M363.85624,36.8372c0,0.12238 -0.06119,0.22945 -0.10708,0.36741l-2.15684,6.28665c-0.13767,0.39772 -0.42831,0.61216 -0.76483,0.61216c-0.35182,0 -0.62715,-0.21444 -0.79543,-0.61216l-2.06505,-5.04792l-2.08035,5.04792c-0.15295,0.39772 -0.4436,0.61216 -0.78012,0.61216c-0.35182,0 -0.62718,-0.21444 -0.76485,-0.61216l-2.15683,-6.28664c-0.0459,-0.13797 -0.10708,-0.24503 -0.10708,-0.36741c0,-0.42831 0.33653,-0.76485 0.76483,-0.76485c0.29064,0 0.59656,0.18357 0.68836,0.44362l1.68264,5.20086l2.01915,-5.13969c0.12237,-0.32123 0.38242,-0.50479 0.73423,-0.50479c0.35182,0 0.59658,0.18356 0.73424,0.50479l2.01915,5.13969l1.68264,-5.20086c0.07649,-0.27533 0.39772,-0.44362 0.68836,-0.44362c0.42831,0 0.76484,0.33654 0.76484,0.76485z"/><path d="M372.98836,40.11069c0,2.73812 -2.27921,4.06892 -4.03832,4.06892c-1.75912,0 -4.02303,-1.3308 -4.02303,-4.06892c0,-2.72281 2.26391,-4.08422 4.02303,-4.08422c1.75912,0 4.03832,1.36141 4.03832,4.08422zM366.53317,40.11069c0,1.72852 1.23904,2.66162 2.41688,2.66162c1.19313,0 2.43217,-0.93309 2.43217,-2.66162c0,-1.74353 -1.23904,-2.67692 -2.43217,-2.67692c-1.17785,0 -2.41688,0.93341 -2.41688,2.67692z"/><path d="M381.81456,39.5756v3.76269c0,0.4436 -0.35182,0.81103 -0.79543,0.81103c-0.44362,0 -0.81072,-0.3674 -0.81072,-0.81103v-3.76269c0,-1.52997 -0.87192,-2.14183 -1.8662,-2.14183c-1.46848,0 -2.11094,1.31551 -2.20273,1.97357v3.93095c0,0.4436 -0.36711,0.81103 -0.81072,0.81103c-0.44362,0 -0.81072,-0.3674 -0.81072,-0.81103v-6.43991c0,-0.4589 0.36712,-0.82603 0.81072,-0.82603c0.44362,0 0.81072,0.36713 0.81072,0.82603v1.00959c0.07649,-0.53509 0.99429,-1.86591 2.73812,-1.86591c1.48379,0 2.93697,0.93281 2.93697,3.53356z"/><path d="M383.25246,36.3783l0.79542,-2.37099c0.16827,-0.45861 0.42832,-0.64245 0.84131,-0.64245h0.50479c0.52009,0 0.59657,0.27534 0.33654,0.78013l-1.20845,2.40157c-0.19885,0.39772 -0.50479,0.4742 -0.81072,0.4742h-0.09178c-0.38242,0 -0.50478,-0.27506 -0.36712,-0.64246z"/><path d="M391.28322,43.24651c0,0.62717 -0.71895,0.90281 -1.57556,0.90281c-0.91781,0 -1.8203,-0.32153 -1.8203,-2.08035v-4.6505h-0.58128c-0.39772,0 -0.65775,-0.26003 -0.65775,-0.65775c0,-0.38242 0.26003,-0.64246 0.65776,-0.64246h0.58128v-1.19314c0,-0.42831 0.36712,-0.79514 0.79543,-0.79514c0.44362,0 0.81072,0.36683 0.81072,0.79514v1.19314h1.11665c0.39772,0 0.67305,0.26003 0.67305,0.64246c0,0.39772 -0.27533,0.65776 -0.67305,0.65776h-1.11665v4.6655c0,0.4589 0.18356,0.67306 0.53538,0.67306c0.19885,0 0.42831,-0.06119 0.59658,-0.07649c0.38242,-0.06118 0.65776,0.18355 0.65776,0.56598z"/><path d="M402.21216,37.02846c0.09178,0.13738 0.21416,0.30564 0.21416,0.56568c0,0.38242 -0.29064,0.61217 -0.65776,0.61217c-0.24474,0 -0.47419,-0.10737 -0.70365,-0.41301c-0.30594,-0.38271 -0.73426,-0.64277 -1.36141,-0.64277c-0.76483,0 -1.22373,0.38271 -1.22373,0.9331c0,0.38271 0.21416,0.74953 1.02488,0.97899l0.9484,0.26004c1.30023,0.35182 2.27921,0.9331 2.27921,2.21831c0,1.60585 -1.51436,2.41659 -3.10523,2.41659c-1.33082,0 -2.26391,-0.58127 -2.66163,-1.20844c-0.07649,-0.10678 -0.32123,-0.41301 -0.32123,-0.78013c0,-0.32123 0.19885,-0.65745 0.62715,-0.65745c0.35182,0 0.53538,0.21415 0.68836,0.4433c0.38242,0.64245 1.00959,0.85691 1.66735,0.85691c0.8872,0 1.49908,-0.36741 1.49908,-0.97928c0,-0.4589 -0.32123,-0.79543 -1.08606,-1.00927l-1.02488,-0.27565c-1.48378,-0.41301 -2.12625,-1.20845 -2.12625,-2.24862c0,-1.43788 1.30023,-2.26391 2.784,-2.26391c1.10136,0 2.04974,0.44362 2.53925,1.19345z"/><path d="M411.68082,39.6439c0,0.62747 -0.35182,0.8719 -1.00958,0.8719l-5.12439,-0.01529c0.16827,1.42258 1.28492,2.12623 2.50865,2.12623c0.62715,0 1.05547,-0.15266 1.52967,-0.4433c0.26003,-0.13798 0.42831,-0.24474 0.64245,-0.24474c0.35182,0 0.56598,0.24474 0.56598,0.58126c0,0.19856 -0.07648,0.41302 -0.41302,0.68806c-0.58126,0.47449 -1.4226,0.74954 -2.3863,0.74954c-1.98856,0 -4.11481,-1.26933 -4.11481,-4.03833c0,-2.75341 2.21802,-4.08422 3.96183,-4.08422c1.74383,0 3.83948,1.37671 3.83948,3.80889zM405.54685,39.33797h4.5584c-0.13767,-1.45319 -1.23902,-2.09535 -2.26391,-2.09535c-1.00959,0 -2.15684,0.64216 -2.2945,2.09535z"/><path d="M420.70587,39.6439c0,0.62747 -0.35182,0.8719 -1.00959,0.8719l-5.12439,-0.01529c0.16827,1.42258 1.28491,2.12623 2.50864,2.12623c0.62715,0 1.05547,-0.15266 1.52967,-0.4433c0.26003,-0.13798 0.42832,-0.24474 0.64246,-0.24474c0.35182,0 0.56597,0.24474 0.56597,0.58126c0,0.19856 -0.07648,0.41302 -0.41302,0.68806c-0.58126,0.47449 -1.42259,0.74954 -2.38628,0.74954c-1.98856,0 -4.11481,-1.26933 -4.11481,-4.03833c0,-2.75341 2.21802,-4.08422 3.96183,-4.08422c1.74383,0 3.83948,1.37671 3.83948,3.80889zM414.57189,39.33797h4.5584c-0.13767,-1.45319 -1.23902,-2.09535 -2.26392,-2.09535c-1.00959,0 -2.15683,0.64216 -2.2945,2.09535z"/><path d="M433.67746,36.61545c0,0.15268 -0.0459,0.25975 -0.09178,0.36682l-4.08422,9.33098c-0.16827,0.38271 -0.4589,0.55068 -0.76483,0.55068c-0.42831,0 -0.71895,-0.33622 -0.71895,-0.73424c0,-0.15295 0.0459,-0.26004 0.09178,-0.36682l0.94839,-2.18773l-2.92167,-6.59287c-0.0459,-0.10708 -0.09178,-0.21415 -0.09178,-0.36682c0,-0.39772 0.32124,-0.73453 0.74954,-0.73453c0.30594,0 0.59656,0.16826 0.76483,0.55068l2.29451,5.33884l2.30981,-5.33884c0.16827,-0.38242 0.4589,-0.55068 0.76483,-0.55068c0.42831,0 0.74954,0.33683 0.74954,0.73453z"/><path d="M442.80958,39.91924c0,2.73812 -2.27921,4.06892 -4.03832,4.06892c-1.75912,0 -4.02304,-1.3308 -4.02304,-4.06892c0,-2.72252 2.26392,-4.08422 4.02304,-4.08422c1.75912,0 4.03832,1.3617 4.03832,4.08422zM436.35438,39.91924c0,1.72852 1.23903,2.66162 2.41688,2.66162c1.19313,0 2.43218,-0.93309 2.43218,-2.66162c0,-1.74381 -1.23904,-2.67663 -2.43218,-2.67663c-1.17785,0 -2.41688,0.9328 -2.41688,2.67663z"/><path d="M444.33926,40.45493v-3.76329c0,-0.44362 0.35182,-0.81072 0.79543,-0.81072c0.44362,0 0.81073,0.36712 0.81073,0.81072v3.76329c0,1.52936 0.87191,2.14124 1.86619,2.14124c1.46848,0 2.11093,-1.31522 2.20272,-1.97298v-3.93155c0,-0.44362 0.36712,-0.81072 0.81073,-0.81072c0.44362,0 0.81072,0.36712 0.81072,0.81072v6.43991c0,0.4589 -0.36711,0.82603 -0.81072,0.82603c-0.44362,0 -0.81073,-0.36713 -0.81073,-0.82603v-1.00929c-0.07649,0.53509 -0.99428,1.86589 -2.7381,1.86589c-1.48379,0 -2.93697,-0.93279 -2.93697,-3.53324z"/></g><g fill="#000000"><path d="M346.02117,27.53024c0,0.38242 -0.26004,0.65776 -0.71895,0.96369c-0.68836,0.4742 -1.57557,0.76485 -2.66163,0.76485c-2.69221,0 -5.38444,-2.23302 -5.38444,-5.46091c0,-3.22761 2.69221,-5.46063 5.38444,-5.46063c1.08606,0 1.9733,0.29034 2.66163,0.76454c0.4589,0.30623 0.71895,0.58127 0.71895,0.96399c0,0.47391 -0.36712,0.74924 -0.76484,0.74924c-0.32123,0 -0.53537,-0.15295 -0.73423,-0.30563c-0.33653,-0.26004 -1.00959,-0.59687 -1.8662,-0.59687c-1.91209,0 -3.67121,1.65205 -3.67121,3.88535c0,2.23361 1.75912,3.88535 3.67121,3.88535c0.85661,0 1.52966,-0.33654 1.8662,-0.59657c0.19885,-0.15297 0.41301,-0.30594 0.73423,-0.30594c0.39772,0 0.76484,0.27533 0.76484,0.74954z" fill-rule="evenodd" stroke-width="1" stroke-linecap="round" stroke-linejoin="round"/><path d="M348.28509,29.22845c-0.44362,0 -0.81072,-0.3674 -0.81072,-0.81072v-9.37717c0,-0.4433 0.36712,-0.81072 0.81072,-0.81072c0.44362,0 0.81072,0.36741 0.81072,0.81072v9.37718c0,0.44331 -0.36712,0.81072 -0.81072,0.81072z" fill-rule="evenodd" stroke-width="1" stroke-linecap="round" stroke-linejoin="round"/><path d="M358.68682,25.18984c0,2.7384 -2.27922,4.06892 -4.03835,4.06892c-1.75912,0 -4.02304,-1.33052 -4.02304,-4.06892c0,-2.72281 2.26392,-4.08422 4.02304,-4.08422c1.75912,0 4.03835,1.36141 4.03835,4.08422zM352.23161,25.18984c0,1.72852 1.23904,2.66163 2.41688,2.66163c1.19313,0 2.43217,-0.9331 2.43217,-2.66163c0,-1.74381 -1.23903,-2.67692 -2.43217,-2.67692c-1.17785,0 -2.41688,0.93309 -2.41688,2.67692z" fill-rule="evenodd" stroke-width="1" stroke-linecap="round" stroke-linejoin="round"/><path d="M360.21649,25.72551v-3.76327c0,-0.44331 0.35182,-0.81072 0.79543,-0.81072c0.44362,0 0.81072,0.36741 0.81072,0.81072v3.76327c0,1.52966 0.87192,2.14124 1.8662,2.14124c1.46848,0 2.11094,-1.31521 2.20273,-1.97328v-3.93125c0,-0.44331 0.36712,-0.81072 0.81072,-0.81072c0.44362,0 0.81072,0.36741 0.81072,0.81072v6.43991c0,0.4589 -0.36711,0.82632 -0.81072,0.82632c-0.44362,0 -0.81072,-0.36741 -0.81072,-0.82632v-1.00959c-0.07649,0.53569 -0.99429,1.8662 -2.73812,1.8662c-1.48379,0 -2.93697,-0.9331 -2.93697,-3.53325z" fill-rule="evenodd" stroke-width="1" stroke-linecap="round" stroke-linejoin="round"/><path d="M376.92048,19.04057v9.39217c0,0.44389 -0.38241,0.81072 -0.82601,0.81072c-0.44362,0 -0.81073,-0.36683 -0.81073,-0.81072v-0.82572c-0.10708,0.68836 -1.05546,1.65175 -2.50865,1.65175c-1.69791,0 -3.7324,-1.31522 -3.7324,-4.08422c0,-2.72281 2.04975,-4.06892 3.7324,-4.06892c1.13196,0 2.11093,0.58157 2.50865,1.46848v-0.61187c0,-0.04559 0,-0.10677 0.01531,-0.15267v-2.769c0,-0.4433 0.36712,-0.81072 0.79543,-0.81072c0.44362,0 0.82601,0.36741 0.82601,0.81072zM375.36022,25.17455c0,-1.91209 -1.28492,-2.67662 -2.32509,-2.67662c-1.11665,0 -2.37099,0.87191 -2.37099,2.67662c0,1.8203 1.25433,2.69221 2.37099,2.69221c1.04017,0 2.32509,-0.79542 2.32509,-2.69221z" fill-rule="evenodd" stroke-width="1" stroke-linecap="round" stroke-linejoin="round"/><path d="M389.21903,19.89747h-4.54311v3.34968h3.71709c0.39772,0 0.73426,0.30593 0.73426,0.70393c0,0.39772 -0.33653,0.70337 -0.73426,0.70337h-3.71709v3.73239c0,0.4589 -0.36711,0.85661 -0.81072,0.85661c-0.4589,0 -0.84132,-0.39772 -0.84132,-0.85661v-9.04034c0,-0.52009 0.38242,-0.9022 0.90251,-0.9022h5.29266c0.39772,0 0.73423,0.32094 0.73423,0.71866c0,0.41302 -0.33651,0.73453 -0.73423,0.73453z" fill-rule="evenodd" stroke-width="1" stroke-linecap="round" stroke-linejoin="round"/><path d="M391.40646,25.72551v-3.76327c0,-0.44331 0.35182,-0.81072 0.79543,-0.81072c0.44362,0 0.81074,0.36741 0.81074,0.81072v3.76327c0,1.52966 0.8719,2.14124 1.86619,2.14124c1.46848,0 2.11094,-1.31521 2.20273,-1.97328v-3.93125c0,-0.44331 0.36712,-0.81072 0.81072,-0.81072c0.44362,0 0.81072,0.36741 0.81072,0.81072v6.43991c0,0.4589 -0.36712,0.82632 -0.81072,0.82632c-0.44362,0 -0.81072,-0.36741 -0.81072,-0.82632v-1.00959c-0.07649,0.53569 -0.99429,1.8662 -2.73812,1.8662c-1.48379,0 -2.93697,-0.9331 -2.93697,-3.53325z" fill-rule="evenodd" stroke-width="1" stroke-linecap="round" stroke-linejoin="round"/><path d="M401.3493,29.22845c-0.44362,0 -0.81072,-0.3674 -0.81072,-0.81072v-9.37717c0,-0.4433 0.36712,-0.81072 0.81072,-0.81072c0.44362,0 0.81073,0.36741 0.81073,0.81072v9.37718c0,0.44331 -0.36712,0.81072 -0.81073,0.81072z" fill-rule="evenodd" stroke-width="1" stroke-linecap="round" stroke-linejoin="round"/><path d="M404.80635,29.22845c-0.44362,0 -0.81073,-0.3674 -0.81073,-0.81072v-9.37717c0,-0.4433 0.36712,-0.81072 0.81073,-0.81072c0.44362,0 0.81073,0.36741 0.81073,0.81072v9.37718c0,0.44331 -0.36712,0.81072 -0.81073,0.81072z" fill-rule="evenodd" stroke-width="1" stroke-linecap="round" stroke-linejoin="round"/><path d="M423.95024,23.92995c0,3.22789 -2.64632,5.46092 -5.32324,5.46092c-2.67691,0 -5.32325,-2.23302 -5.32325,-5.46091c0,-3.22761 2.64633,-5.46064 5.32325,-5.46064c2.67691,0 5.32324,2.23303 5.32324,5.46064zM415.03228,23.92995c0,2.32509 1.72852,3.88535 3.59472,3.88535c1.8662,0 3.59472,-1.56026 3.59472,-3.88535c0,-2.32509 -1.71322,-3.90065 -3.59472,-3.90065c-1.8662,0 -3.59472,1.57556 -3.59472,3.90065z" fill-rule="evenodd" stroke-width="1" stroke-linecap="round" stroke-linejoin="round"/><path d="M429.65592,28.45776c0,0.62718 -0.71895,0.90281 -1.57557,0.90281c-0.91781,0 -1.8203,-0.32153 -1.8203,-2.08035v-4.65049h-0.58126c-0.39772,0 -0.65775,-0.26003 -0.65775,-0.65775c0,-0.38242 0.26003,-0.64246 0.65776,-0.64246h0.58126v-1.19314c0,-0.42831 0.36713,-0.79514 0.79543,-0.79514c0.44362,0 0.81072,0.36683 0.81072,0.79514v1.19314h1.11665c0.39772,0 0.67307,0.26004 0.67307,0.64246c0,0.39772 -0.27534,0.65776 -0.67307,0.65776h-1.11665v4.6655c0,0.4589 0.18356,0.67306 0.53538,0.67306c0.19885,0 0.42831,-0.06119 0.59657,-0.07649c0.38242,-0.06119 0.65776,0.18355 0.65776,0.56597z" fill-rule="evenodd" stroke-width="1" stroke-linecap="round" stroke-linejoin="round"/><path d="M438.32914,24.78685v3.76269c0,0.44362 -0.35182,0.81102 -0.79543,0.81102c-0.44362,0 -0.81072,-0.3674 -0.81072,-0.81102v-3.76269c0,-1.52997 -0.87191,-2.14183 -1.8662,-2.14183c-1.46848,0 -2.11094,1.31553 -2.20272,1.97357v3.93095c0,0.44362 -0.36712,0.81102 -0.81073,0.81102c-0.44362,0 -0.81072,-0.3674 -0.81072,-0.81102v-9.37657c0,-0.44391 0.36711,-0.81103 0.81072,-0.81103c0.44362,0 0.81073,0.36712 0.81073,0.81103v3.94626c0.07649,-0.53509 0.99429,-1.86591 2.7381,-1.86591c1.48378,0 2.93697,0.93281 2.93697,3.53356z" fill-rule="evenodd" stroke-width="1" stroke-linecap="round" stroke-linejoin="round"/><path d="M447.66012,25.0466c0,0.62718 -0.35182,0.87191 -1.00959,0.87191l-5.12439,-0.0153c0.16827,1.42258 1.28492,2.12653 2.50866,2.12653c0.62715,0 1.05548,-0.15325 1.52967,-0.44391c0.26003,-0.13738 0.42832,-0.24473 0.64246,-0.24473c0.35182,0 0.56597,0.24474 0.56597,0.58127c0,0.19886 -0.07649,0.41301 -0.41302,0.68863c-0.58126,0.47391 -1.42259,0.74954 -2.38628,0.74954c-1.98856,0 -4.11481,-1.26993 -4.11481,-4.03863c0,-2.75341 2.21802,-4.08422 3.96183,-4.08422c1.74383,0 3.83948,1.37671 3.83948,3.80888zM441.52615,24.74066h4.55842c-0.13767,-1.4529 -1.23904,-2.09564 -2.26392,-2.09564c-1.00959,0 -2.15684,0.64275 -2.2945,2.09564z" fill-rule="evenodd" stroke-width="1" stroke-linecap="round" stroke-linejoin="round"/><path d="M454.17651,22.00286c0,0.45861 -0.35183,0.76454 -1.04017,0.76454c-1.34611,0 -2.21802,1.04018 -2.32509,1.8512v3.93095c0,0.44362 -0.36712,0.81102 -0.81072,0.81102c-0.44362,0 -0.81072,-0.3674 -0.81072,-0.81102v-6.43991c0,-0.4589 0.36712,-0.82603 0.81072,-0.82603c0.44362,0 0.81072,0.36713 0.81072,0.82603v1.00959c0.07649,-0.53509 1.04018,-1.86591 2.53926,-1.86591c0.53538,0 0.82601,0.33623 0.82601,0.74954z" fill-rule="evenodd" stroke-width="1" stroke-linecap="round" stroke-linejoin="round"/><path d="M460.73879,22.43087c0.09178,0.13768 0.21416,0.30593 0.21416,0.56627c0,0.38212 -0.29063,0.61158 -0.65776,0.61158c-0.24474,0 -0.47419,-0.10708 -0.70365,-0.41302c-0.30594,-0.38242 -0.73426,-0.64246 -1.36141,-0.64246c-0.76483,0 -1.22373,0.38242 -1.22373,0.9331c0,0.38271 0.21416,0.74954 1.0249,0.979l0.94839,0.26003c1.30023,0.35214 2.27922,0.93339 2.27922,2.21802c0,1.60615 -1.51437,2.41718 -3.10522,2.41718c-1.33082,0 -2.26391,-0.58127 -2.66163,-1.20845c-0.07649,-0.10737 -0.32124,-0.41301 -0.32124,-0.78042c0,-0.32123 0.19885,-0.65776 0.62717,-0.65776c0.35182,0 0.53538,0.21416 0.68836,0.44391c0.38242,0.64216 1.0096,0.85632 1.66735,0.85632c0.8872,0 1.49909,-0.36712 1.49909,-0.97899c0,-0.45861 -0.32125,-0.79514 -1.08608,-1.00959l-1.02488,-0.27534c-1.48379,-0.41301 -2.12624,-1.20844 -2.12624,-2.24862c0,-1.43788 1.30022,-2.26392 2.784,-2.26392c1.10136,0 2.04976,0.44362 2.53926,1.19314z" fill-rule="evenodd" stroke-width="1" stroke-linecap="round" stroke-linejoin="round"/><path d="M408.90941,28.17802c0,0.47522 -0.38525,0.86046 -0.86046,0.86046c-0.47521,0 -0.86047,-0.38525 -0.86047,-0.86046c0,-0.47522 0.38525,-0.86046 0.86047,-0.86046c0.47521,0 0.86046,0.38524 0.86046,0.86046z" fill-rule="nonzero" stroke-width="0" stroke-linecap="butt" stroke-linejoin="miter"/></g></g></g></svg>