<svg version="1.1" xmlns="http://www.w3.org/2000/svg" xmlns:xlink="http://www.w3.org/1999/xlink" width="226.69182" height="109.02456" viewBox="0,0,226.69182,109.02456"><g transform="translate(-126.99359,14.83117)"><g data-paper-data="{&quot;isPaintingLayer&quot;:true}" stroke="none" stroke-miterlimit="10" stroke-dasharray="" stroke-dashoffset="0" style="mix-blend-mode: normal"><path d="M154.47474,16.93866h173.36494c8.98431,0 16.26832,7.28399 16.26832,16.26832v0.28971c0,8.98431 -7.28399,16.26832 -16.26832,16.26832h-173.36494c-8.98515,0 -16.26898,-7.28399 -16.26898,-16.26832v-0.28971c0,-8.98431 7.28383,-16.26832 16.26898,-16.26832z" fill="#000000" fill-rule="evenodd" stroke-width="1" stroke-linecap="round" stroke-linejoin="round" opacity="0.31775"/><path d="M126.99359,94.19339v-109.02456h226.69182v109.02456z" fill="none" fill-rule="nonzero" stroke-width="0" stroke-linecap="butt" stroke-linejoin="miter"/><g fill="#ffffff" fill-rule="evenodd" stroke-width="1" stroke-linecap="round" stroke-linejoin="round"><path d="M149.8926,25.85705c0,-0.82446 0.73024,-1.53115 1.57826,-1.53115c0.82447,0 1.55471,0.70669 1.55471,1.53115c0,0.82447 -0.73025,1.53115 -1.55471,1.53115c-0.84803,0 -1.57826,-0.70669 -1.57826,-1.53115zM153.00202,30.61541v9.32828c0,0.87158 -0.70669,1.57827 -1.53116,1.57827c-0.84803,0 -1.55471,-0.70669 -1.55471,-1.57827v-9.32828c0,-0.84803 0.70668,-1.55471 1.55471,-1.55471c0.82447,0 1.53116,0.70668 1.53116,1.55471z"/><path d="M162.73075,39.84946c0,1.08359 -1.06003,1.64894 -2.66186,1.64894c-1.60182,0 -3.2272,-0.51824 -3.2272,-3.79255v-6.14818h-0.68313c-0.7538,0 -1.24848,-0.49468 -1.24848,-1.20137c0,-0.73025 0.49468,-1.22492 1.24848,-1.22492h0.68313v-1.60182c0,-0.84803 0.70669,-1.55472 1.55472,-1.55472c0.84803,0 1.53115,0.70669 1.53115,1.55472v1.60182h1.55472c0.77736,0 1.24847,0.49467 1.24847,1.22492c0,0.70669 -0.47112,1.20137 -1.24847,1.20137h-1.55472v6.2424c0,0.68314 0.23556,1.03648 0.7538,1.03648c0.25912,0 0.63601,-0.09423 0.89513,-0.09423c0.70668,-0.04711 1.15426,0.37689 1.15426,1.10714z"/><path d="M176.51092,34.76131c0,1.22492 -0.68313,1.64894 -1.93161,1.64894l-6.99598,-0.04712c0.28268,1.7196 1.64872,2.6383 3.36832,2.6383c0.84803,0 1.24848,-0.18845 1.95517,-0.49468c0.42401,-0.18845 0.7538,-0.3769 1.15426,-0.3769c0.65957,0 1.06003,0.47113 1.06003,1.06003c0,0.37689 -0.1649,0.80091 -0.7538,1.29559c-0.87158,0.61245 -2.04939,1.01291 -3.53344,1.01291c-3.13276,0 -6.45419,-1.93161 -6.45419,-6.21885c0,-4.24012 3.50987,-6.28952 6.19508,-6.28952c2.68541,0 5.93618,2.12006 5.93618,5.77128zM167.58333,34.24307h5.88884c-0.23556,-1.81383 -1.55472,-2.56763 -2.89742,-2.56763c-1.3427,0 -2.77941,0.7538 -2.99142,2.56763z"/><path d="M198.96003,34.64352v5.32371c0,0.84803 -0.70668,1.53115 -1.55471,1.53115c-0.82447,0 -1.53116,-0.68313 -1.53116,-1.53115v-5.32371c0,-2.12006 -1.10715,-2.99164 -2.49696,-2.99164c-2.12006,0 -2.85031,1.97872 -2.92097,2.63829v-0.02355v0.37689v5.32371c0,0.84803 -0.70668,1.53115 -1.55471,1.53115c-0.82447,0 -1.53116,-0.68313 -1.53116,-1.53115v-5.32371c0,-2.12006 -1.10715,-2.99164 -2.49696,-2.99164c-2.12006,0 -2.82674,1.97872 -2.92097,2.63829v5.67706c0,0.84803 -0.70668,1.53115 -1.53115,1.53115c-0.84803,0 -1.55472,-0.68313 -1.55472,-1.53115v-9.35183c0,-0.84803 0.70669,-1.55471 1.55472,-1.55471c0.82447,0 1.53115,0.70668 1.53115,1.55471v1.17781c0.09423,-0.84803 1.48404,-2.77964 4.02812,-2.77964c1.76672,0 3.36855,0.84803 4.07523,2.94453c0.65957,-1.46048 2.14362,-2.94453 4.42857,-2.94453c2.37919,0 4.47569,1.55472 4.47569,5.62994z"/><path d="M220.86733,35.25599c0,4.28723 -3.10942,6.28952 -5.70061,6.28952c-2.04939,0 -3.29788,-1.27203 -3.48633,-2.00227v0.44757c0,0.09423 0,0.18845 -0.02355,0.25912v4.24012c0,0.84803 -0.73025,1.53115 -1.55471,1.53115c-0.84803,0 -1.55471,-0.68313 -1.55471,-1.53115v-13.89818c0,-0.82446 0.7538,-1.53115 1.57826,-1.53115c0.84803,0 1.55471,0.70669 1.55471,1.53115v0.40046c0.47113,-1.10714 1.81384,-2.00228 3.48633,-2.00228c2.56763,0 5.70061,2.07296 5.70061,6.26596zM217.78146,35.25599c0,-2.40273 -1.62538,-3.62766 -3.18009,-3.62766c-1.31915,0 -3.0623,0.96581 -3.0623,3.62766c0,2.66186 1.74316,3.62766 3.0623,3.62766c1.55471,0 3.18009,-1.20138 3.18009,-3.62766z"/><path d="M223.22296,35.91557v-5.32371c0,-0.84803 0.70668,-1.53115 1.55471,-1.53115c0.82447,0 1.53115,0.68313 1.53115,1.53115v5.32371c0,2.12006 1.10715,2.99164 2.49696,2.99164c2.12006,0 2.82675,-1.97873 2.92098,-2.6383v-5.67705c0,-0.84803 0.70669,-1.53115 1.53115,-1.53115c0.84803,0 1.55472,0.68313 1.55472,1.53115v9.35183c0,0.84803 -0.70669,1.55472 -1.55472,1.55472c-0.82447,0 -1.53115,-0.70669 -1.53115,-1.55472v-1.17781c-0.09423,0.84803 -1.48404,2.77964 -4.02812,2.77964c-2.37919,0 -4.47569,-1.55472 -4.47569,-5.62994z"/><path d="M245.86051,30.42696c0,0.87158 -0.65957,1.46048 -1.97872,1.46048c-1.86094,0 -3.03875,1.43693 -3.15653,2.40273v5.67706c0,0.82447 -0.70669,1.53115 -1.53116,1.53115c-0.84803,0 -1.55471,-0.70668 -1.55471,-1.53115v-9.35183c0,-0.84803 0.70668,-1.55471 1.55471,-1.55471c0.82447,0 1.53116,0.70668 1.53116,1.55471v1.17781c0.09423,-0.84803 1.55471,-2.77964 3.67477,-2.77964c0.96581,0 1.46049,0.65958 1.46049,1.41338z"/><path d="M258.34532,38.76587c0,0.7538 -0.56535,1.1307 -0.87158,1.41338c-0.98937,0.87158 -2.14362,1.31915 -3.67477,1.31915c-2.8503,0 -6.28951,-2.04939 -6.28951,-6.24241c0,-4.21656 3.43921,-6.26595 6.28951,-6.26595c1.53115,0 2.68541,0.42401 3.67477,1.29559c0.30623,0.30623 0.87158,0.68314 0.87158,1.43694c0,0.73025 -0.61246,1.17781 -1.24848,1.17781c-0.56536,0 -1.01291,-0.32979 -1.20137,-0.49468c-0.54179,-0.51824 -1.3427,-0.73025 -1.97872,-0.73025c-1.86094,0 -3.34499,1.29559 -3.34499,3.58054c0,2.2614 1.48404,3.557 3.34499,3.557c0.63602,0 1.43693,-0.21201 1.97872,-0.73025c0.18845,-0.1649 0.63601,-0.49468 1.20137,-0.49468c0.63602,0 1.24848,0.44757 1.24848,1.17781z"/><path d="M272.29062,34.64352v5.32371c0,0.84803 -0.70668,1.53115 -1.55471,1.53115c-0.82446,0 -1.53116,-0.68313 -1.53116,-1.53115v-5.32371c0,-2.12006 -1.10715,-2.99164 -2.49696,-2.99164c-2.12006,0 -2.82674,1.97872 -2.92097,2.63829v5.67706c0,0.84803 -0.70669,1.53115 -1.53116,1.53115c-0.84803,0 -1.55471,-0.68313 -1.55471,-1.53115v-13.87463c0,-0.82446 0.70668,-1.53115 1.55471,-1.53115c0.82446,0 1.53116,0.70669 1.53116,1.53115v5.70061c0.09423,-0.84803 1.48403,-2.77964 4.02811,-2.77964c2.37919,0 4.47569,1.55472 4.47569,5.62994z"/><path d="M286.96615,30.59186v9.39894c0,0.84803 -0.7538,1.53115 -1.57827,1.53115c-0.84803,0 -1.55471,-0.68313 -1.55471,-1.53115v-0.44757c-0.18845,0.73025 -1.43694,2.00227 -3.48633,2.00227c-2.59118,0 -5.70062,-2.00228 -5.70062,-6.28952c0,-4.19301 3.13299,-6.26596 5.70062,-6.26596c1.6725,0 3.0152,0.89513 3.48633,2.00228v-0.40046c0,-0.82446 0.70668,-1.53115 1.55471,-1.53115c0.82446,0 1.57827,0.70669 1.57827,1.53115zM283.97451,35.25599c0,-2.66186 -1.74317,-3.62766 -3.06231,-3.62766c-1.55471,0 -3.18009,1.22492 -3.18009,3.62766c0,2.4263 1.62538,3.62766 3.18009,3.62766c1.31916,0 3.06231,-0.96581 3.06231,-3.62766z"/><path d="M297.89625,30.70964c0.14134,0.21201 0.3769,0.5418 0.3769,1.03648c0,0.7538 -0.51824,1.15426 -1.20138,1.15426c-0.44757,0 -0.89513,-0.1649 -1.29559,-0.65957c-0.47112,-0.54179 -1.01291,-0.80091 -1.69605,-0.80091c-0.9187,0 -1.46049,0.44758 -1.46049,1.10714c0,0.37689 0.14133,0.87158 1.22492,1.17781l1.43694,0.42401c1.8845,0.51824 3.46276,1.41337 3.46276,3.50987c0,2.59118 -2.40274,3.83967 -4.85259,3.83967c-2.12006,0 -3.39209,-0.89513 -4.05166,-1.69605c-0.11778,-0.1649 -0.63602,-0.7538 -0.63602,-1.48404c0,-0.51824 0.32979,-1.17781 1.17781,-1.17781c0.63602,0 0.98937,0.40046 1.27204,0.7538c0.68313,0.84803 1.43693,1.08359 2.23783,1.08359c1.15426,0 1.79028,-0.49468 1.79028,-1.15425c0,-0.40046 -0.25912,-0.9187 -1.38982,-1.24848l-1.3427,-0.40046c-2.37919,-0.65957 -3.36855,-1.93162 -3.36855,-3.60411c0,-2.35562 2.16717,-3.58055 4.40501,-3.58055c1.60182,0 3.13298,0.63602 3.91034,1.7196z"/><path d="M312.64246,34.76131c0,1.22492 -0.68313,1.64894 -1.93161,1.64894l-6.99621,-0.04712c0.28267,1.7196 1.64894,2.6383 3.36855,2.6383c0.84803,0 1.24847,-0.18845 1.95517,-0.49468c0.42401,-0.18845 0.7538,-0.3769 1.15426,-0.3769c0.65957,0 1.06003,0.47113 1.06003,1.06003c0,0.37689 -0.1649,0.80091 -0.7538,1.29559c-0.87158,0.61245 -2.04939,1.01291 -3.53344,1.01291c-3.13299,0 -6.45441,-1.93161 -6.45441,-6.21885c0,-4.24012 3.50988,-6.28952 6.19529,-6.28952c2.68541,0 5.93617,2.12006 5.93617,5.77128zM303.71464,34.24307h5.88906c-0.23556,-1.81383 -1.55471,-2.56763 -2.89742,-2.56763c-1.34271,0 -2.77964,0.7538 -2.99164,2.56763z"/><path d="M326.84688,26.09262v13.89818c0,0.84803 -0.75381,1.53115 -1.57827,1.53115c-0.84803,0 -1.55471,-0.68313 -1.55471,-1.53115v-0.44757c-0.18845,0.73025 -1.43694,2.00227 -3.48633,2.00227c-2.59118,0 -5.70061,-2.00228 -5.70061,-6.28952c0,-4.19301 3.13298,-6.26596 5.70061,-6.26596c1.6725,0 3.0152,0.89513 3.48633,2.00228v-0.40046c0,-0.09423 0,-0.16489 0.02355,-0.25911v-4.24013c0,-0.82446 0.70669,-1.53115 1.53115,-1.53115c0.84803,0 1.57827,0.70669 1.57827,1.53115zM323.85523,35.25599c0,-2.66186 -1.74316,-3.62766 -3.0623,-3.62766c-1.55471,0 -3.18009,1.22492 -3.18009,3.62766c0,2.4263 1.62538,3.62766 3.18009,3.62766c1.31916,0 3.0623,-0.96581 3.0623,-3.62766z"/><path d="M333.1835,26.56374v8.05623c0,0.94225 -0.77735,1.74316 -1.71961,1.74316c-0.94225,0 -1.74316,-0.80091 -1.74316,-1.74316v-8.05623c0,-0.94225 0.80091,-1.74316 1.74316,-1.74316c0.94225,0 1.71961,0.80091 1.71961,1.74316zM329.67362,39.68457c0,-0.96581 0.80091,-1.76671 1.79028,-1.76671c0.96581,0 1.76672,0.80091 1.76672,1.76671c0,0.98936 -0.80092,1.79028 -1.76672,1.79028c-0.98937,0 -1.79028,-0.80092 -1.79028,-1.79028z"/></g></g></g></svg>