<svg version="1.1" xmlns="http://www.w3.org/2000/svg" xmlns:xlink="http://www.w3.org/1999/xlink" width="511.32621" height="443.9082" viewBox="0,0,511.32621,443.9082"><g transform="translate(70.46315,68.42807)"><g data-paper-data="{&quot;isPaintingLayer&quot;:true}" fill-rule="nonzero" stroke-linejoin="miter" stroke-miterlimit="10" stroke-dasharray="" stroke-dashoffset="0" style="mix-blend-mode: normal"><g><path d="M7.10199,71.24917v-88.08277h96.29946v88.08278zM74.80741,68.9217l-0.18868,-68.497c0,0 -5.6948,-13.91923 -20.22549,-13.89992c-14.53069,0.01931 -19.68321,13.95296 -19.68321,13.95296l0.18868,68.63264z" fill="#afe0f6" stroke="none" stroke-width="0" stroke-linecap="butt"/><path d="M103.67742,-15.07676v85.3901" fill="none" stroke="#e4ffff" stroke-width="7" stroke-linecap="round"/><path d="M6.72063,70.31334v-85.3901" fill="none" stroke="#e4ffff" stroke-width="7" stroke-linecap="round"/><path d="M10.11322,-8.34392v-6.90201h90.21529v6.90201h-32.23533c-1.8207,-1.90448 -7.71582,-5.07381 -13.7735,-5.07381c-6.05767,0 -11.75449,3.16933 -13.57519,5.07381z" fill="#7ec3e4" stroke="none" stroke-width="0" stroke-linecap="butt"/><path d="M-0.85779,-20.11421v-22.29298h111.46491v22.29298z" fill="#b8dff4" stroke="none" stroke-width="0" stroke-linecap="butt"/><path d="M-0.2314,-35.29126v-6.90201h110.43214v6.90201z" fill="#7ec3e4" stroke="none" stroke-width="0" stroke-linecap="butt"/><path d="M1.09497,-44.10113h108.3968" fill="none" stroke="#cceef9" stroke-width="7" stroke-linecap="round"/><path d="M3.3284,-8.49965v-5.67329h6.95436v5.67329z" fill="#b1d9f4" stroke="none" stroke-width="0" stroke-linecap="butt"/><path d="M100.14037,-8.49965v-5.67329h6.95436v5.67329z" fill="#b1d9f4" stroke="none" stroke-width="0" stroke-linecap="butt"/><path d="M1.09497,-17.27991h108.3968" fill="none" stroke="#cceef9" stroke-width="7" stroke-linecap="round"/></g><path d="M-43.26835,354.49102l0.22865,-283.23808l143.35936,0.44771l49.84572,-45.85876l72.28288,-1.39344l182.02788,130.46936l2.58782,201.29364z" data-paper-data="{&quot;index&quot;:null}" fill="#4000af" stroke="none" stroke-width="0" stroke-linecap="butt"/><path d="M98.9184,71.98417l3.21479,27.63123l-146.46762,0.16667v-27.95262z" data-paper-data="{&quot;index&quot;:null}" fill="#4926f1" stroke="none" stroke-width="0" stroke-linecap="butt"/><path d="M166.73729,19.35226l36.19532,2.26023l-85.07232,71.68598c0,0 -4.3082,3.56758 -8.22721,4.95858c-3.91901,1.391 -9.41253,1.30241 -9.41253,1.30241l-11.4707,-22.31238z" data-paper-data="{&quot;index&quot;:null}" fill="#4926f1" stroke="none" stroke-width="0" stroke-linecap="butt"/><path d="M230.75182,22.11482l-18.79117,28.5617h-30.23112c0,0 -6.26726,-0.22796 -11.16667,1.33333c-4.89941,1.56129 -9.70203,5.16667 -9.70203,5.16667l2.59358,-35.33452z" data-paper-data="{&quot;index&quot;:null}" fill="#4926f1" stroke="none" stroke-width="0" stroke-linecap="butt"/><path d="M396.4201,149.49869l14.74013,2.03153l4.73623,27.48328l-20.29185,-0.20204c0,0 -5.34092,-0.36134 -9.09874,-1.61795c-3.75782,-1.25661 -7.60097,-3.96641 -7.60097,-3.96641l-152.99421,-115.30806c0,0 -4.89737,-4.27903 -9.1728,-5.76702c-4.27543,-1.488 -12.48274,-1.60317 -12.48274,-1.60317l23.67655,-31.10584z" data-paper-data="{&quot;index&quot;:null}" fill="#4926f1" stroke="none" stroke-width="0" stroke-linecap="butt"/><path d="M287.44847,88.02277l44.72439,33.855" data-paper-data="{&quot;index&quot;:null}" fill="none" stroke="#502bff" stroke-width="25" stroke-linecap="round"/><path d="M45.74817,193.63081h163.96188" data-paper-data="{&quot;index&quot;:null}" fill="none" stroke="#3d00a3" stroke-width="30" stroke-linecap="round"/><path d="M114.232,164.15049h53.32889" data-paper-data="{&quot;index&quot;:null}" fill="none" stroke="#3d00a3" stroke-width="29.5" stroke-linecap="round"/><path d="M187.31981,134.59401h-81.46022" data-paper-data="{&quot;index&quot;:null}" fill="none" stroke="#3d00a3" stroke-width="30" stroke-linecap="round"/><path d="M174.06779,163.82928h44.32889" data-paper-data="{&quot;index&quot;:null}" fill="none" stroke="#4000af" stroke-width="29" stroke-linecap="round"/><path d="M113.89799,164.28696h-44.32889" data-paper-data="{&quot;index&quot;:null}" fill="none" stroke="#4000af" stroke-width="29" stroke-linecap="round"/><path d="M271.05428,187.26297h61.35569" data-paper-data="{&quot;index&quot;:null}" fill="none" stroke="#3d00a3" stroke-width="30" stroke-linecap="round"/><path d="M355.78236,217.56066h-54.19521" data-paper-data="{&quot;index&quot;:null}" fill="none" stroke="#39009c" stroke-width="30" stroke-linecap="round"/><path d="M-4.52537,115.00729h44.90054" data-paper-data="{&quot;index&quot;:null}" fill="none" stroke="#3d00a3" stroke-width="30" stroke-linecap="round"/><path d="M54.44634,87.52354h-33" fill="none" stroke="#502bff" stroke-width="25" stroke-linecap="round"/><path d="M17.14142,65.0843h-22.50355" fill="none" stroke="#4dff00" stroke-width="6" stroke-linecap="round"/><path d="M78.46747,59.28535h16.18783" fill="none" stroke="#4dff00" stroke-width="6" stroke-linecap="round"/><path d="M103.29263,64.80497h-31.77641" fill="none" stroke="#48ee00" stroke-width="6" stroke-linecap="round"/><path d="M-43.37289,71.40358l139.17272,-0.16827l64.00422,-50.86088l66.62845,0.01544l168.87899,128.6817l19.65376,0.25436" data-paper-data="{&quot;index&quot;:null}" fill="none" stroke="#3eb5fa" stroke-width="7" stroke-linecap="round"/><path d="M-70.46315,375.48013v-443.9082h511.32621v443.9082z" fill="none" stroke="none" stroke-width="NaN" stroke-linecap="butt"/></g></g></svg>