<svg version="1.1" xmlns="http://www.w3.org/2000/svg" xmlns:xlink="http://www.w3.org/1999/xlink" width="767.43138" height="465.26101" viewBox="0,0,767.43138,465.26101"><g transform="translate(124.88205,16.75869)"><g data-paper-data="{&quot;isPaintingLayer&quot;:true}" fill-rule="nonzero" stroke-linejoin="miter" stroke-miterlimit="10" stroke-dasharray="" stroke-dashoffset="0" style="mix-blend-mode: normal"><path d="M489.15592,264.12769l-0.37744,-20.87785l34.18296,-0.35869v20.56082z" data-paper-data="{&quot;index&quot;:null}" fill="#4926f1" stroke="none" stroke-width="0" stroke-linecap="butt"/><path d="M517.89136,241.67006h5.3197h-31.55918" data-paper-data="{&quot;index&quot;:null}" fill="none" stroke="#3eb5fa" stroke-width="7" stroke-linecap="round"/><path d="M28.55762,359.68214v-118.66396l80.40069,6.00869v112.65526z" fill="#4000af" stroke="none" stroke-width="0" stroke-linecap="butt"/><path d="M6.51561,274.12451v-53.47898h102.44157v55.23654z" fill="#4926f1" stroke="none" stroke-width="0" stroke-linecap="butt"/><path d="M112.20255,219.83657h-102.23725" fill="none" stroke="#3eb5fa" stroke-width="7" stroke-linecap="round"/><path d="M36.10371,360.26194h77.28972" fill="none" stroke="#4000af" stroke-width="15" stroke-linecap="round"/><path d="M83.64996,427.47471l0.29629,-92.54414l31.56532,-117.57372h382.11822v85.80663l-55.26002,0.49339l-2.52865,65.34096l57.78867,2.25389v56.223z" fill="#4000af" stroke="none" stroke-width="0" stroke-linecap="butt"/><path d="M106.13331,218.5685v-29.26876h391.4954v29.26876z" fill="#4926f1" stroke="none" stroke-width="0" stroke-linecap="butt"/><path d="M494.46187,189.74697h-384.87883" fill="none" stroke="#3eb5fa" stroke-width="7" stroke-linecap="round"/><path d="M91.38847,428.68581h398.86133" fill="none" stroke="#4000af" stroke-width="15" stroke-linecap="round"/><path d="M497.92873,262.95306h-27.30112v-36.57811l-52.74226,-8.83333l52.74226,-15.73859h26.51227z" data-paper-data="{&quot;index&quot;:null}" fill="#4926f1" stroke="none" stroke-width="0" stroke-linecap="butt"/><path d="M85.40364,236.07408c0,0 32.64491,0.05937 32.69113,0.05108c0.60376,-0.10834 0.59498,-0.84845 0.59498,-0.84845c0,0 0.0101,-25.06167 -0.00986,-28.79806c-0.00509,-0.95372 0.40254,-0.55934 0.40254,-0.55934h55.18541" fill="none" stroke="#502bff" stroke-width="25" stroke-linecap="round"/><path d="M-124.88205,448.50232v-465.26101h766.21066l1.22072,465.26101z" fill="none" stroke="none" stroke-width="NaN" stroke-linecap="butt"/><path d="M478.29429,263.51016h73.2615" data-paper-data="{&quot;index&quot;:null}" fill="none" stroke="#4926f1" stroke-width="15" stroke-linecap="round"/><path d="M-91.96967,325.04709v-48h39.0625v48z" fill="#4000af" stroke="none" stroke-width="0" stroke-linecap="butt"/></g></g></svg>