<svg version="1.1" xmlns="http://www.w3.org/2000/svg" xmlns:xlink="http://www.w3.org/1999/xlink" width="589.70146" height="463.17592" viewBox="0,0,589.70146,463.17592"><g transform="translate(118.374,13.40705)"><g data-paper-data="{&quot;isPaintingLayer&quot;:true}" fill-rule="nonzero" stroke-linejoin="miter" stroke-miterlimit="10" stroke-dasharray="" stroke-dashoffset="0" style="mix-blend-mode: normal"><path d="M-78.36698,425.86738v-105.23004h80.34873v105.23004z" fill="#4000af" stroke="none" stroke-width="0" stroke-linecap="butt"/><path d="M-74.48551,140.71881h72.76903" data-paper-data="{&quot;index&quot;:null}" fill="none" stroke="#3eb5fa" stroke-width="7" stroke-linecap="round"/><path d="M-5.62824,426.07108h-65.09379" data-paper-data="{&quot;index&quot;:null}" fill="none" stroke="#4000af" stroke-width="15" stroke-linecap="round"/><path d="M-118.374,449.76887v-463.17592h589.70146v463.17592z" fill="none" stroke="none" stroke-width="NaN" stroke-linecap="butt"/><path d="M180.85793,427.30753v-270.62179h112.34873v270.62181z" fill="#4000af" stroke="none" stroke-width="0" stroke-linecap="butt"/><path d="M285.64498,426.13749h-96.95644" data-paper-data="{&quot;index&quot;:null}" fill="none" stroke="#4000af" stroke-width="15" stroke-linecap="round"/><path d="M122.88751,426.07108h-65.09379" data-paper-data="{&quot;index&quot;:null}" fill="none" stroke="#4000af" stroke-width="15" stroke-linecap="round"/><path d="M180.80598,170.19475v-29.26876h112.34873v29.26876z" fill="#4926f1" stroke="none" stroke-width="0" stroke-linecap="butt"/><path d="M184.39927,140.85463h104.9833" data-paper-data="{&quot;index&quot;:null}" fill="none" stroke="#3eb5fa" stroke-width="7" stroke-linecap="round"/><path d="M50.42586,427.10263v-364.28435h80.34873v364.28435z" fill="#4000af" stroke="none" stroke-width="0" stroke-linecap="butt"/><path d="M50.37391,70.37375v-29.26876h80.34873v29.26876z" fill="#4926f1" stroke="none" stroke-width="0" stroke-linecap="butt"/><path d="M54.24362,41.03363h72.6235" data-paper-data="{&quot;index&quot;:null}" fill="none" stroke="#3eb5fa" stroke-width="7" stroke-linecap="round"/><path d="M180.80598,167.03002v-29.26876h112.34873v29.26876z" fill="#4926f1" stroke="none" stroke-width="0" stroke-linecap="butt"/><path d="M288.70746,137.6899h-103.63308" data-paper-data="{&quot;index&quot;:null}" fill="none" stroke="#3eb5fa" stroke-width="7" stroke-linecap="round"/><path d="M-78.36871,244.57854v-79.38436h80.34873v79.38436z" fill="#4000af" stroke="none" stroke-width="0" stroke-linecap="butt"/><path d="M-78.42066,166.89421v-29.26876h80.34873v29.26876z" fill="#4926f1" stroke="none" stroke-width="0" stroke-linecap="butt"/><path d="M-74.15226,137.55408h72.10253" data-paper-data="{&quot;index&quot;:null}" fill="none" stroke="#3eb5fa" stroke-width="7" stroke-linecap="round"/></g></g></svg>