<svg version="1.1" xmlns="http://www.w3.org/2000/svg" xmlns:xlink="http://www.w3.org/1999/xlink" width="196.09089" height="131.02019" viewBox="0,0,196.09089,131.02019"><g transform="translate(-316.59983,9.90601)"><g data-paper-data="{&quot;isPaintingLayer&quot;:true}" stroke="none" stroke-miterlimit="10" stroke-dasharray="" stroke-dashoffset="0" style="mix-blend-mode: normal"><path d="M339.39851,10.52882h119.22716c5.67764,0 10.28044,5.18621 10.28044,11.58346v50.12007c0,6.39726 -4.60278,11.58343 -10.28044,11.58343h-119.22716c-5.67785,0 -10.28067,-5.18618 -10.28067,-11.58343v-50.12007c0,-6.39726 4.60283,-11.58346 10.28067,-11.58346z" data-paper-data="{&quot;origPos&quot;:null}" fill="#ffffff" fill-rule="evenodd" stroke-width="1" stroke-linecap="round" stroke-linejoin="round"/><path d="M316.59983,121.11418v-131.02019h196.09089v131.02019z" fill="none" fill-rule="nonzero" stroke-width="0" stroke-linecap="butt" stroke-linejoin="miter"/><path d="" data-paper-data="{&quot;origPos&quot;:null}" fill="#000000" fill-rule="nonzero" stroke-width="1" stroke-linecap="butt" stroke-linejoin="miter"/><path d="M350.9541,87.1685v-52.80417h69.16102v52.80417z" data-paper-data="{&quot;origPos&quot;:null}" fill="none" fill-rule="nonzero" stroke-width="0" stroke-linecap="butt" stroke-linejoin="miter"/><g fill-rule="nonzero" stroke-linecap="butt" stroke-linejoin="miter"><path d="M348.4541,85.26715v-52.80417h69.16102v52.80417z" data-paper-data="{&quot;origPos&quot;:null}" fill="none" stroke-width="0"/><g data-paper-data="{&quot;origPos&quot;:null}"><path d="M415.03097,73.53574c0,3.43084 -1.6282,6.3762 -5.05904,6.80353h-25.87668c-3.50793,-0.42732 -5.05904,-3.37269 -5.05904,-6.86168c0,-2.61674 1.68635,-4.94274 4.01234,-5.81498c-0.17446,-0.3489 0.52335,-0.34891 0.52335,-0.75596c0,-1.33745 0.29075,-2.73305 1.6282,-2.73305c0.11631,0 0.29075,0.05815 0.40705,0.05815c-0.17446,-0.40705 0.4652,-0.52334 0.4652,-1.04669c0,-2.03524 0.93041,-4.07049 2.96565,-4.07049c0.5815,0 1.0467,0.1163 1.6282,0.3489v0c0,-3.43084 2.73304,-6.16387 6.16387,-6.16387c3.37269,0 6.04758,2.67489 6.04758,6.10573c2.26785,-0.93041 4.94275,-0.4652 6.74538,1.33745c1.86079,1.8608 1.68635,4.71015 0.63964,6.97799c2.4423,0.87226 4.82644,3.14009 4.76829,5.81498z" data-paper-data="{&quot;origPos&quot;:null}" fill="#d68800" stroke-width="1"/><path d="M415.08911,72.22123c0,3.43084 -2.79119,6.33833 -6.16387,6.33833h-23.66698c-3.43084,0 -6.22202,-2.90749 -6.22202,-6.33833c0,-2.6749 1.68635,-5.05904 4.07048,-5.93129c-0.17446,-0.3489 -0.29075,-0.69779 -0.29075,-1.10484c0,-1.33745 1.04669,-2.38415 2.38415,-2.38415c0.11631,0 0.29076,0.05815 0.40706,0.05815c-0.17446,-0.4652 -0.29076,-0.93041 -0.29076,-1.45375c0,-2.03524 1.68636,-3.66344 3.7216,-3.66344c0.5815,0 1.04669,0.1163 1.6282,0.34891c0,-3.43084 2.73305,-6.22203 6.16388,-6.22203c3.37269,0 6.04757,2.73304 6.04757,6.10573c2.26785,-0.93041 4.94274,-0.4652 6.74538,1.33745c1.86079,1.8608 2.32601,4.65199 1.27929,6.91983c2.4423,0.87226 4.1868,3.31453 4.1868,5.98942z" data-paper-data="{&quot;origPos&quot;:null}" fill="#ffa200" stroke-width="1"/><path d="M408.92524,78.55957h-7.79209l-15.58415,-15.70045c-0.17446,-0.40705 -0.23261,-0.98855 -0.23261,-1.45375c0,-2.03524 1.68635,-3.66345 3.72159,-3.66345c0.5815,0 1.0467,0.1163 1.6282,0.34891c0,-3.43084 2.73304,-6.22202 6.16387,-6.22202c3.37269,0 6.04758,2.73305 6.04758,6.04758c2.26785,-0.87226 4.94275,-0.40705 6.74538,1.3956c1.86079,1.91895 2.326,4.71013 1.27929,6.97799c2.4423,0.87226 4.18679,3.19823 4.18679,5.93129c0,3.43084 -2.79119,6.33833 -6.16387,6.33833z" data-paper-data="{&quot;origPos&quot;:null}" fill="#ec9600" stroke-width="1"/><g data-paper-data="{&quot;origPos&quot;:null}" fill="none" stroke-width="1" font-family="sans-serif" font-weight="normal" font-size="12" text-anchor="start"/><g data-paper-data="{&quot;origPos&quot;:null}" fill="none" stroke-width="1" font-family="sans-serif" font-weight="normal" font-size="12" text-anchor="start"/><path d="M370.86858,82.37446v-37.83777h48.39116v37.83777z" data-paper-data="{&quot;origPos&quot;:null}" fill="none" stroke-width="0"/></g><path d="M402.91619,68.88875c0,3.2192 -2.61903,5.70144 -5.8382,5.70144c-3.21918,0 -5.74704,-2.48221 -5.74704,-5.70144c0,-2.93634 2.0879,-5.14493 4.91383,-5.55048v-0.66031c0,-0.39859 0.21441,-0.76989 0.55962,-0.96914c0.34653,-0.20001 0.77344,-0.10828 1.11906,0.09147l2.94012,1.69883c0.3449,0.19929 0.55916,0.5705 0.55916,0.96883c0,0.39828 -0.21421,0.76951 -0.55911,0.9688l-2.94017,1.69885c-0.3451,0.19942 -0.77199,0.20062 -1.11908,0.00031c-0.34518,-0.19919 -0.55962,-0.57052 -0.55962,-0.96908v-0.57411c-1.252,0.36206 -2.58052,1.19943 -2.58052,3.34163c0,1.97527 1.75816,3.37368 3.41375,3.41375c1.88405,0.0456 3.27183,-1.80606 3.36813,-3.45934c0.0456,-0.78282 0.54341,-1.41742 1.32623,-1.41742c0.78282,0 1.14387,0.6346 1.14384,1.41742z" data-paper-data="{&quot;origPos&quot;:null}" fill="#d68800" stroke-width="1"/><path d="M402.91619,67.7324c0,3.2192 -2.61903,5.70144 -5.8382,5.70144c-3.21918,0 -5.74704,-2.48221 -5.74704,-5.70144c0,-2.93634 2.0879,-5.14493 4.91383,-5.55048v-0.66031c0,-0.39859 0.21441,-0.76989 0.55962,-0.96914c0.34653,-0.20001 0.77344,-0.10828 1.11906,0.09147l2.94012,1.69883c0.3449,0.19929 0.55916,0.5705 0.55916,0.96883c0,0.39828 -0.21421,0.76951 -0.55911,0.9688l-2.94017,1.69885c-0.3451,0.19942 -0.77199,0.20062 -1.11908,0.00031c-0.34518,-0.19919 -0.55962,-0.57052 -0.55962,-0.96908v-0.57411c-1.252,0.36206 -2.58052,1.19943 -2.58052,3.34163c0,1.97527 1.75816,3.37368 3.41375,3.41375c1.88405,0.0456 3.27183,-1.80606 3.36813,-3.45934c0.0456,-0.78282 0.54341,-1.41742 1.32623,-1.41742c0.78282,0 1.14387,0.6346 1.14384,1.41742z" data-paper-data="{&quot;origPos&quot;:null}" fill="#ffffff" stroke-width="1"/></g><g fill="#000000" fill-rule="evenodd" stroke-width="1" stroke-linecap="round" stroke-linejoin="round"><path d="M344.51769,20.03412c0,0.44994 -0.36663,0.79991 -0.79991,0.79991h-2.63304v9.21565c0,0.51661 -0.41662,0.94989 -0.88324,0.94989c-0.49995,0 -0.91657,-0.43328 -0.91657,-0.94989v-9.21565h-2.63304c-0.43328,0 -0.79991,-0.34996 -0.79991,-0.79991c0,-0.44994 0.36663,-0.79991 0.79991,-0.79991h7.06589c0.43328,0 0.79991,0.34996 0.79991,0.79991z"/><path d="M351.45025,22.96712c0,0.49995 -0.38329,0.83324 -1.13321,0.83324c-1.4665,0 -2.4164,1.13321 -2.53305,2.01644v4.28286c0,0.48329 -0.39996,0.88324 -0.88324,0.88324c-0.48329,0 -0.88324,-0.39996 -0.88324,-0.88324v-7.01589c0,-0.49995 0.39996,-0.8999 0.88324,-0.8999c0.48329,0 0.88324,0.39996 0.88324,0.8999v1.09988c0.08333,-0.58327 1.13321,-2.03311 2.76636,-2.03311c0.58327,0 0.8999,0.36663 0.8999,0.81657z"/><path d="M359.4159,23.73371v-0.66659c0,-0.48329 0.39996,-0.88324 0.88324,-0.88324c0.48329,0 0.8999,0.39996 0.8999,0.88324v7.04921c0,0.48329 -0.41662,0.88324 -0.8999,0.88324c-0.48329,0 -0.88324,-0.39996 -0.88324,-0.88324v-0.8999c-0.11665,0.74992 -1.14987,1.7998 -2.73304,1.7998c-1.84979,0 -4.06609,-1.43318 -4.06609,-4.4495c0,-2.96634 2.23296,-4.43284 4.06609,-4.43284c1.23319,0 2.29975,0.63326 2.73304,1.59982zM359.49923,26.56673c0,-2.0831 -1.39985,-2.91634 -2.53305,-2.91634c-1.21653,0 -2.58305,0.94989 -2.58305,2.91634c0,1.98311 1.36651,2.93301 2.58305,2.93301c1.13321,0 2.53305,-0.86657 2.53305,-2.93301z"/><path d="M368.8482,20.00079c0,0.38329 -0.2833,0.64993 -0.64993,0.64993c-0.14998,0 -0.36663,-0.06666 -0.63326,-0.16665c-0.23331,-0.09999 -0.44994,-0.19998 -0.78325,-0.19998c-0.93323,0 -1.23319,0.69992 -1.23319,1.38318v0.56661h1.66648c0.43328,0 0.73325,0.2833 0.73325,0.69992c0,0.43328 -0.29996,0.71659 -0.73325,0.71659h-1.66648v6.46596c0,0.48329 -0.39996,0.88324 -0.86657,0.88324c-0.48329,0 -0.88324,-0.39996 -0.88324,-0.88324v-6.46596h-0.54993c-0.43328,0 -0.71659,-0.2833 -0.71659,-0.71659c0,-0.41662 0.2833,-0.69992 0.71659,-0.69992h0.54993v-0.63326c0,-2.28308 1.68314,-2.81636 2.76636,-2.81636c0.74992,0 1.38318,0.19998 1.83313,0.51661c0.2833,0.18331 0.44994,0.39996 0.44994,0.69992z"/><path d="M375.6641,20.00079c0,0.38329 -0.2833,0.64993 -0.64993,0.64993c-0.14998,0 -0.36663,-0.06666 -0.63326,-0.16665c-0.23331,-0.09999 -0.44994,-0.19998 -0.78325,-0.19998c-0.93323,0 -1.23319,0.69992 -1.23319,1.38318v0.56661h1.66648c0.43328,0 0.73325,0.2833 0.73325,0.69992c0,0.43328 -0.29996,0.71659 -0.73325,0.71659h-1.66648v6.46596c0,0.48329 -0.39996,0.88324 -0.86657,0.88324c-0.48329,0 -0.88324,-0.39996 -0.88324,-0.88324v-6.46596h-0.54993c-0.43328,0 -0.71659,-0.2833 -0.71659,-0.71659c0,-0.41662 0.2833,-0.69992 0.71659,-0.69992h0.54993v-0.63326c0,-2.28308 1.68314,-2.81636 2.76636,-2.81636c0.74992,0 1.38318,0.19998 1.83313,0.51661c0.2833,0.18331 0.44994,0.39996 0.44994,0.69992z"/><path d="M376.83065,19.71749c0,-0.48329 0.41662,-0.88324 0.8999,-0.88324c0.48329,0 0.8999,0.39996 0.8999,0.88324c0,0.48329 -0.41662,0.88324 -0.8999,0.88324c-0.48329,0 -0.8999,-0.39996 -0.8999,-0.88324zM378.61377,23.08378v7.01589c0,0.49995 -0.39996,0.8999 -0.88324,0.8999c-0.48329,0 -0.88324,-0.39996 -0.88324,-0.8999v-7.01589c0,-0.49995 0.39996,-0.8999 0.88324,-0.8999c0.48329,0 0.88324,0.39996 0.88324,0.8999z"/><path d="M387.94608,29.04978c0,0.39996 -0.2833,0.6166 -0.46662,0.79991c-0.71659,0.74992 -1.64982,1.13321 -2.79968,1.13321c-1.98311,0 -4.38286,-1.44984 -4.38286,-4.41618c0,-2.983 2.39973,-4.43284 4.38286,-4.43284c1.14987,0 2.0831,0.38329 2.79968,1.13321c0.18331,0.18331 0.46662,0.39996 0.46662,0.79991c0,0.41662 -0.34996,0.68326 -0.71659,0.68326c-0.3333,0 -0.58327,-0.18331 -0.71659,-0.31663c-0.44994,-0.53327 -1.14987,-0.76658 -1.76647,-0.76658c-1.39985,0 -2.6997,0.9999 -2.6997,2.89967c0,1.88312 1.29986,2.88301 2.6997,2.88301c0.6166,0 1.31652,-0.23331 1.76647,-0.76658c0.13332,-0.13332 0.38329,-0.31663 0.71659,-0.31663c0.36663,0 0.71659,0.26664 0.71659,0.68326z"/><path d="M398.6449,29.99967c0,0.68326 -0.78325,0.98323 -1.71648,0.98323c-0.9999,0 -1.98311,-0.34996 -1.98311,-2.26641v-5.0661h-0.63326c-0.43328,0 -0.71659,-0.2833 -0.71659,-0.71659c0,-0.41662 0.2833,-0.69992 0.71659,-0.69992h0.63326v-1.29986c0,-0.46662 0.39996,-0.86657 0.86657,-0.86657c0.48329,0 0.88324,0.39996 0.88324,0.86657v1.29986h1.21653c0.43328,0 0.73325,0.2833 0.73325,0.69992c0,0.43328 -0.29996,0.71659 -0.73325,0.71659h-1.21653v5.08277c0,0.49995 0.19998,0.73325 0.58327,0.73325c0.21665,0 0.46662,-0.06666 0.64993,-0.08333c0.41662,-0.06666 0.71659,0.19998 0.71659,0.6166z"/><path d="M408.59378,26.58339c0,2.983 -2.48306,4.43284 -4.39952,4.43284c-1.91646,0 -4.38286,-1.44984 -4.38286,-4.43284c0,-2.96634 2.46639,-4.4495 4.38286,-4.4495c1.91646,0 4.39952,1.48316 4.39952,4.4495zM401.56123,26.58339c0,1.88312 1.34985,2.89967 2.63304,2.89967c1.29986,0 2.64971,-1.01656 2.64971,-2.89967c0,-1.89979 -1.34985,-2.91634 -2.64971,-2.91634c-1.28319,0 -2.63304,1.01656 -2.63304,2.91634z"/><path d="M418.70934,26.58339c0,2.983 -2.48306,4.43284 -4.39952,4.43284c-1.91646,0 -4.38286,-1.44984 -4.38286,-4.43284c0,-2.96634 2.46639,-4.4495 4.38286,-4.4495c1.91646,0 4.39952,1.48316 4.39952,4.4495zM411.67678,26.58339c0,1.88312 1.34985,2.89967 2.63304,2.89967c1.29986,0 2.64971,-1.01656 2.64971,-2.89967c0,-1.89979 -1.34985,-2.91634 -2.64971,-2.91634c-1.28319,0 -2.63304,1.01656 -2.63304,2.91634z"/><path d="M432.97442,26.00013v4.09954c0,0.48329 -0.38329,0.88324 -0.86657,0.88324c-0.48329,0 -0.88324,-0.39996 -0.88324,-0.88324v-4.09954c0,-1.66648 -0.94989,-2.33308 -2.03311,-2.33308c-1.59982,0 -2.29975,1.43318 -2.39973,2.14976v4.28286c0,0.48329 -0.39996,0.88324 -0.88324,0.88324c-0.48329,0 -0.88324,-0.39996 -0.88324,-0.88324v-10.21553c0,-0.48329 0.39996,-0.88324 0.88324,-0.88324c0.48329,0 0.88324,0.39996 0.88324,0.88324v4.29953c0.08333,-0.58327 1.08321,-2.03311 2.983,-2.03311c1.61649,0 3.19965,1.01656 3.19965,3.84957z"/><path d="M434.9742,19.71749c0,-0.48329 0.41662,-0.88324 0.8999,-0.88324c0.48329,0 0.8999,0.39996 0.8999,0.88324c0,0.48329 -0.41662,0.88324 -0.8999,0.88324c-0.48329,0 -0.8999,-0.39996 -0.8999,-0.88324zM436.75733,23.08378v7.01589c0,0.49995 -0.39996,0.8999 -0.88324,0.8999c-0.48329,0 -0.88324,-0.39996 -0.88324,-0.8999v-7.01589c0,-0.49995 0.39996,-0.8999 0.88324,-0.8999c0.48329,0 0.88324,0.39996 0.88324,0.8999z"/><path d="M447.02287,30.11634c0,0.04999 0,0.11665 -0.01666,0.16665v0.44994c0,2.73304 -2.46639,3.58285 -4.23286,3.58285c-1.06654,0 -1.89979,-0.29996 -2.28308,-0.49985c-0.34996,-0.14998 -0.54993,-0.41662 -0.54993,-0.74992c0,-0.39996 0.31663,-0.69992 0.69992,-0.69992c0.09999,0 0.23331,0.01666 0.41662,0.08333c0.36663,0.14998 0.98323,0.34996 1.7498,0.34996c1.44984,0 2.43307,-0.74992 2.43307,-2.06644v-1.5165c-0.11665,0.74992 -1.14987,1.7998 -2.73304,1.7998c-1.84979,0 -4.06622,-1.43318 -4.06622,-4.4495c0,-2.96634 2.23309,-4.43284 4.06622,-4.43284c1.23319,0 2.29975,0.63326 2.73304,1.59982v-0.66659c0,-0.48329 0.39996,-0.88324 0.88324,-0.88324c0.48329,0 0.8999,0.39996 0.8999,0.88324zM445.32305,26.56673c0,-2.0831 -1.39985,-2.91634 -2.53305,-2.91634c-1.21653,0 -2.58305,0.94989 -2.58305,2.91634c0,1.98311 1.36651,2.93301 2.58305,2.93301c1.13321,0 2.53305,-0.86657 2.53305,-2.93301z"/><path d="M456.97176,26.00013v4.09954c0,0.48329 -0.38329,0.88324 -0.86657,0.88324c-0.48329,0 -0.88324,-0.39996 -0.88324,-0.88324v-4.09954c0,-1.66648 -0.94989,-2.33308 -2.03311,-2.33308c-1.59982,0 -2.29975,1.43318 -2.39973,2.14976v4.28286c0,0.48329 -0.39996,0.88324 -0.88324,0.88324c-0.48329,0 -0.88324,-0.39996 -0.88324,-0.88324v-10.21553c0,-0.48329 0.39996,-0.88324 0.88324,-0.88324c0.48329,0 0.88324,0.39996 0.88324,0.88324v4.29953c0.08333,-0.58327 1.08321,-2.03311 2.983,-2.03311c1.61649,0 3.19965,1.01656 3.19965,3.84957z"/><path d="M460.98798,20.16744v6.38263c0,0.53327 -0.44994,0.98323 -0.96655,0.98323c-0.54993,0 -0.9999,-0.44994 -0.9999,-0.98323v-6.38263c0,-0.53327 0.44994,-0.98323 0.9999,-0.98323c0.51661,0 0.96655,0.44994 0.96655,0.98323zM458.97154,29.89968c0,-0.56661 0.46662,-1.03322 1.04988,-1.03322c0.54993,0 1.01656,0.46662 1.01656,1.03322c0,0.58327 -0.46662,1.04988 -1.01656,1.04988c-0.58327,0 -1.04988,-0.46662 -1.04988,-1.04988z"/></g><g fill="#000000" fill-rule="evenodd" stroke-width="1" stroke-linecap="round" stroke-linejoin="round"><path d="M346.49246,37.39581c0,0.44994 -0.36663,0.79991 -0.79991,0.79991h-2.63304v9.21565c0,0.51661 -0.41662,0.94989 -0.88324,0.94989c-0.49995,0 -0.91657,-0.43328 -0.91657,-0.94989v-9.21565h-2.63304c-0.43328,0 -0.79991,-0.34996 -0.79991,-0.79991c0,-0.44994 0.36663,-0.79991 0.79991,-0.79991h7.06589c0.43328,0 0.79991,0.34996 0.79991,0.79991z"/><path d="M352.25849,40.3288c0,0.49995 -0.38329,0.83324 -1.13321,0.83324c-1.4665,0 -2.4164,1.13321 -2.53305,2.01644v4.28286c0,0.48329 -0.39996,0.88324 -0.88324,0.88324c-0.48329,0 -0.88324,-0.39996 -0.88324,-0.88324v-7.01589c0,-0.49995 0.39996,-0.8999 0.88324,-0.8999c0.48329,0 0.88324,0.39996 0.88324,0.8999v1.09988c0.08333,-0.58327 1.13321,-2.03311 2.76636,-2.03311c0.58327,0 0.8999,0.36663 0.8999,0.81657z"/><path d="M361.574,40.34547c0,0.16665 -0.04999,0.2833 -0.09999,0.39996l-4.4495,10.16554c-0.18331,0.41662 -0.49995,0.59994 -0.83324,0.59994c-0.46662,0 -0.78325,-0.36663 -0.78325,-0.79991c0,-0.16665 0.04999,-0.2833 0.09999,-0.39996l1.03322,-2.38307l-3.18285,-7.18254c-0.04999,-0.11665 -0.09999,-0.23331 -0.09999,-0.39996c0,-0.43328 0.34984,-0.79991 0.81645,-0.79991c0.3333,0 0.64993,0.18331 0.83324,0.59994l2.49972,5.81603l2.51638,-5.81603c0.18331,-0.41662 0.49995,-0.59994 0.83324,-0.59994c0.46662,0 0.81657,0.36663 0.81657,0.79991z"/><path d="M368.25659,37.07917c0,-0.48329 0.41662,-0.88324 0.8999,-0.88324c0.48329,0 0.8999,0.39996 0.8999,0.88324c0,0.48329 -0.41662,0.88324 -0.8999,0.88324c-0.48329,0 -0.8999,-0.39996 -0.8999,-0.88324zM370.03974,40.44546v8.74903c0,1.69982 -0.9999,2.48306 -2.34974,2.48306c-0.46662,0 -0.8999,-0.08333 -1.29986,-0.2833c-0.29996,-0.16665 -0.66659,-0.44994 -0.66659,-0.8999c0,-0.49995 0.48329,-0.91657 1.01656,-0.74992c0.19998,0.08333 0.39996,0.24997 0.74992,0.24997c0.63326,0 0.78325,-0.58327 0.78325,-1.19987v-8.34907c0,-0.49995 0.39996,-0.8999 0.88324,-0.8999c0.48329,0 0.88324,0.39996 0.88324,0.8999z"/><path d="M380.50523,43.94507c0,2.983 -2.48306,4.43284 -4.39952,4.43284c-1.91646,0 -4.38286,-1.44984 -4.38286,-4.43284c0,-2.96634 2.46639,-4.4495 4.38286,-4.4495c1.91646,0 4.39952,1.48316 4.39952,4.4495zM373.47268,43.94507c0,1.88312 1.34985,2.89967 2.63304,2.89967c1.29986,0 2.64971,-1.01656 2.64971,-2.89967c0,-1.89979 -1.34985,-2.91634 -2.64971,-2.91634c-1.28319,0 -2.63304,1.01656 -2.63304,2.91634z"/><path d="M382.17172,37.07917c0,-0.48329 0.41662,-0.88324 0.8999,-0.88324c0.48329,0 0.8999,0.39996 0.8999,0.88324c0,0.48329 -0.41662,0.88324 -0.8999,0.88324c-0.48329,0 -0.8999,-0.39996 -0.8999,-0.88324zM383.95485,40.44546v7.01589c0,0.49995 -0.39996,0.8999 -0.88324,0.8999c-0.48329,0 -0.88324,-0.39996 -0.88324,-0.8999v-7.01589c0,-0.49995 0.39996,-0.8999 0.88324,-0.8999c0.48329,0 0.88324,0.39996 0.88324,0.8999z"/><path d="M393.92042,43.3618v4.09954c0,0.48329 -0.38329,0.88324 -0.86657,0.88324c-0.48329,0 -0.88324,-0.39996 -0.88324,-0.88324v-4.09954c0,-1.66648 -0.94989,-2.33308 -2.03311,-2.33308c-1.59982,0 -2.29975,1.43318 -2.39973,2.14976v4.28286c0,0.48329 -0.39996,0.88324 -0.88324,0.88324c-0.48329,0 -0.88324,-0.39996 -0.88324,-0.88324v-7.01589c0,-0.49995 0.39996,-0.8999 0.88324,-0.8999c0.48329,0 0.88324,0.39996 0.88324,0.8999v1.09988c0.08333,-0.58327 1.08321,-2.03311 2.983,-2.03311c1.61649,0 3.19965,1.01656 3.19965,3.84957z"/><path d="M395.92019,37.07917c0,-0.48329 0.41662,-0.88324 0.8999,-0.88324c0.48329,0 0.8999,0.39996 0.8999,0.88324c0,0.48329 -0.41662,0.88324 -0.8999,0.88324c-0.48329,0 -0.8999,-0.39996 -0.8999,-0.88324zM397.70333,40.44546v7.01589c0,0.49995 -0.39996,0.8999 -0.88324,0.8999c-0.48329,0 -0.88324,-0.39996 -0.88324,-0.8999v-7.01589c0,-0.49995 0.39996,-0.8999 0.88324,-0.8999c0.48329,0 0.88324,0.39996 0.88324,0.8999z"/><path d="M407.66889,43.3618v4.09954c0,0.48329 -0.38329,0.88324 -0.86657,0.88324c-0.48329,0 -0.88324,-0.39996 -0.88324,-0.88324v-4.09954c0,-1.66648 -0.94989,-2.33308 -2.03311,-2.33308c-1.59982,0 -2.29975,1.43318 -2.39973,2.14976v4.28286c0,0.48329 -0.39996,0.88324 -0.88324,0.88324c-0.48329,0 -0.88324,-0.39996 -0.88324,-0.88324v-7.01589c0,-0.49995 0.39996,-0.8999 0.88324,-0.8999c0.48329,0 0.88324,0.39996 0.88324,0.8999v1.09988c0.08333,-0.58327 1.08321,-2.03311 2.983,-2.03311c1.61649,0 3.19965,1.01656 3.19965,3.84957z"/><path d="M417.91776,47.47802c0,0.04999 0,0.11665 -0.01666,0.16665v0.44994c0,2.73304 -2.46639,3.58293 -4.23286,3.58293c-1.06654,0 -1.89979,-0.29996 -2.28308,-0.49995c-0.34996,-0.14998 -0.54993,-0.41662 -0.54993,-0.74992c0,-0.39996 0.31663,-0.69992 0.69992,-0.69992c0.09999,0 0.23331,0.01666 0.41662,0.08333c0.36663,0.14998 0.98323,0.34996 1.7498,0.34996c1.44984,0 2.43307,-0.74992 2.43307,-2.06644v-1.5165c-0.11665,0.74992 -1.14987,1.7998 -2.73304,1.7998c-1.84979,0 -4.06622,-1.43318 -4.06622,-4.4495c0,-2.96634 2.23309,-4.43284 4.06622,-4.43284c1.23319,0 2.29975,0.63326 2.73304,1.59982v-0.66659c0,-0.48329 0.39996,-0.88324 0.88324,-0.88324c0.48329,0 0.8999,0.39996 0.8999,0.88324zM416.21794,43.92841c0,-2.0831 -1.39985,-2.91634 -2.53305,-2.91634c-1.21653,0 -2.58305,0.94989 -2.58305,2.91634c0,1.98311 1.36651,2.93301 2.58305,2.93301c1.13321,0 2.53305,-0.86657 2.53305,-2.93301z"/><path d="M425.45025,48.34459c-0.48329,0 -0.88324,-0.39996 -0.88324,-0.88324v-10.21553c0,-0.48329 0.39996,-0.88324 0.88324,-0.88324c0.48329,0 0.88324,0.39996 0.88324,0.88324v10.21553c0,0.48329 -0.39996,0.88324 -0.88324,0.88324z"/><path d="M434.79922,41.09539v-0.66659c0,-0.48329 0.39996,-0.88324 0.88324,-0.88324c0.48329,0 0.8999,0.39996 0.8999,0.88324v7.04921c0,0.48329 -0.41662,0.88324 -0.8999,0.88324c-0.48329,0 -0.88324,-0.39996 -0.88324,-0.88324v-0.8999c-0.11665,0.74992 -1.14987,1.7998 -2.73304,1.7998c-1.84979,0 -4.06622,-1.43318 -4.06622,-4.4495c0,-2.96634 2.23309,-4.43284 4.06622,-4.43284c1.23319,0 2.29975,0.63326 2.73304,1.59982zM434.88255,43.92841c0,-2.0831 -1.39985,-2.91634 -2.53305,-2.91634c-1.21653,0 -2.58305,0.94989 -2.58305,2.91634c0,1.98311 1.36651,2.93301 2.58305,2.93301c1.13321,0 2.53305,-0.86657 2.53305,-2.93301z"/><path d="M442.96498,47.36137c0,0.68326 -0.78325,0.98323 -1.71648,0.98323c-0.9999,0 -1.98311,-0.34996 -1.98311,-2.26641v-5.0661h-0.63326c-0.43328,0 -0.71659,-0.2833 -0.71659,-0.71659c0,-0.41662 0.2833,-0.69992 0.71659,-0.69992h0.63326v-1.29986c0,-0.46662 0.39996,-0.86657 0.86657,-0.86657c0.48329,0 0.88324,0.39996 0.88324,0.86657v1.29986h1.21653c0.43328,0 0.73325,0.2833 0.73325,0.69992c0,0.43328 -0.29996,0.71659 -0.73325,0.71659h-1.21653v5.08277c0,0.49995 0.19998,0.73325 0.58327,0.73325c0.21665,0 0.46662,-0.06666 0.64993,-0.08333c0.41662,-0.06666 0.71659,0.19998 0.71659,0.6166z"/><path d="M452.46393,43.6451c0,0.68326 -0.38329,0.94989 -1.09988,0.94989l-5.58271,-0.01666c0.18331,1.54983 1.39985,2.31642 2.73304,2.31642c0.68326,0 1.14987,-0.16665 1.66648,-0.48329c0.2833,-0.14998 0.46662,-0.26664 0.69992,-0.26664c0.38329,0 0.6166,0.26664 0.6166,0.63326c0,0.21665 -0.08333,0.44994 -0.44994,0.74992c-0.63326,0.51661 -1.54983,0.81657 -2.59971,0.81657c-2.16643,0 -4.48284,-1.38318 -4.48284,-4.39952c0,-2.99967 2.4164,-4.4495 4.31619,-4.4495c1.89979,0 4.18287,1.49983 4.18287,4.14954zM445.78133,43.31181h4.96611c-0.14998,-1.58315 -1.34985,-2.28308 -2.46639,-2.28308c-1.09988,0 -2.34974,0.69992 -2.49972,2.28308z"/><path d="M459.56314,40.3288c0,0.49995 -0.38329,0.83324 -1.13321,0.83324c-1.4665,0 -2.4164,1.13321 -2.53305,2.01644v4.28286c0,0.48329 -0.39996,0.88324 -0.88324,0.88324c-0.48329,0 -0.88324,-0.39996 -0.88324,-0.88324v-7.01589c0,-0.49995 0.39996,-0.8999 0.88324,-0.8999c0.48329,0 0.88324,0.39996 0.88324,0.8999v1.09988c0.08333,-0.58327 1.13321,-2.03311 2.76636,-2.03311c0.58327,0 0.8999,0.36663 0.8999,0.81657z"/></g></g></g></svg>