<svg version="1.1" xmlns="http://www.w3.org/2000/svg" xmlns:xlink="http://www.w3.org/1999/xlink" width="170" height="185" viewBox="0,0,170,185"><g transform="translate(-158.55707,-83.66848)"><g data-paper-data="{&quot;isPaintingLayer&quot;:true}" stroke-miterlimit="10" stroke-dasharray="" stroke-dashoffset="0" style="mix-blend-mode: normal"><g data-paper-data="{&quot;origPos&quot;:null}" fill="#ffdf32" fill-rule="nonzero" stroke="none" stroke-width="0" stroke-linecap="butt" stroke-linejoin="miter"><path d="M189.00548,228.38628l0.32341,-43.07833l99.31646,-0.63866l-0.22314,43.717z" data-paper-data="{&quot;origPos&quot;:null}"/><path d="M273.23632,239.4988c-0.92187,-0.92685 -0.78357,-2.73698 -0.78357,-2.73698v-21.12433h16.08182v21.04388c0,0 0.23183,1.79976 -0.7516,2.78883c-0.98344,0.98907 -2.82891,0.81216 -2.82891,0.81216h-8.99968c0,0 -1.79618,0.14329 -2.71806,-0.78356z" data-paper-data="{&quot;origPos&quot;:null}"/><path d="M245.14263,239.87541c-0.92187,-0.92685 -0.78357,-2.73698 -0.78357,-2.73698v-21.12433h16.08184v21.04387c0,0 0.23182,1.79976 -0.75162,2.78883c-0.98344,0.98907 -2.82891,0.81217 -2.82891,0.81217h-8.99968c0,0 -1.79619,0.14329 -2.71806,-0.78357z" data-paper-data="{&quot;origPos&quot;:null}"/><path d="M216.82873,240.00869c-0.92187,-0.92685 -0.78356,-2.73698 -0.78356,-2.73698v-21.12433h16.08182v21.04388c0,0 0.23184,1.79976 -0.7516,2.78883c-0.98344,0.98907 -2.82892,0.81216 -2.82892,0.81216h-8.99968c0,0 -1.79618,0.14329 -2.71805,-0.78356z" data-paper-data="{&quot;origPos&quot;:null}"/><path d="M189.75297,241.11531c-0.90795,-0.92685 -0.77174,-2.73698 -0.77174,-2.73698v-21.12433h15.83896v21.04387c0,0 0.22833,1.79977 -0.74026,2.78883c-0.96859,0.98907 -2.78619,0.81216 -2.78619,0.81216h-8.86377c0,0 -1.76906,0.14329 -2.67701,-0.78357z" data-paper-data="{&quot;origPos&quot;:null}"/></g><path d="M189.02238,213.19642l0.37105,-71.25135l99.70454,0.12186l-0.61676,71.02766z" data-paper-data="{&quot;origPos&quot;:null}" fill="#ffb73b" fill-rule="nonzero" stroke="#000000" stroke-width="0" stroke-linecap="butt" stroke-linejoin="miter"/><path d="M189.35517,151.70579v-13.05836c0,0 0.02568,-3.46773 1.86882,-5.0575c1.84314,-1.58977 5.22967,-1.47614 5.22967,-1.47614h84.37025c0,0 4.33472,-0.03479 6.26916,1.90513c1.93443,1.93992 1.90513,5.95797 1.90513,5.95797v11.7289z" data-paper-data="{&quot;origPos&quot;:null}" fill="#ffdf32" fill-rule="nonzero" stroke="none" stroke-width="0" stroke-linecap="butt" stroke-linejoin="miter"/><path d="M158.55707,268.66848v-185h170v185z" fill="none" fill-rule="nonzero" stroke="none" stroke-width="0" stroke-linecap="butt" stroke-linejoin="miter"/><path d="M202.27864,178.75917h12.5459" fill="none" fill-rule="nonzero" stroke="#fff65d" stroke-width="11" stroke-linecap="round" stroke-linejoin="miter"/><path d="M237.73128,162.09898h43.80996c3.92231,0 7.10172,2.85586 7.10172,6.37903v27.66485c0,3.52289 -3.17941,6.37903 -7.10172,6.37903h-43.80996c-3.92213,0 -7.10163,-2.85613 -7.10163,-6.37903v-27.66485c0,-3.52316 3.1795,-6.37903 7.10163,-6.37903z" fill="#ffffff" fill-rule="evenodd" stroke="none" stroke-width="1" stroke-linecap="round" stroke-linejoin="round"/><path d="M259.6965,183.82147c0,-4.21057 3.41336,-7.62393 7.62393,-7.62393c4.21057,0 7.62393,3.41336 7.62393,7.62393c0,4.21057 -3.41335,7.62392 -7.62393,7.62392c-4.21057,0 -7.62393,-3.41335 -7.62393,-7.62392z" fill="#ff40a7" fill-rule="nonzero" stroke="none" stroke-width="0" stroke-linecap="butt" stroke-linejoin="miter"/></g></g></svg>