<svg version="1.1" xmlns="http://www.w3.org/2000/svg" xmlns:xlink="http://www.w3.org/1999/xlink" width="661.47951" height="478.22829" viewBox="0,0,661.47951,478.22829"><defs><linearGradient x1="375.6063" y1="222.15494" x2="375.6063" y2="251.22207" gradientUnits="userSpaceOnUse" id="color-1"><stop offset="0" stop-color="#fffc45"/><stop offset="1" stop-color="#ffe134"/></linearGradient><linearGradient x1="414.09693" y1="222.0802" x2="414.09693" y2="251.14735" gradientUnits="userSpaceOnUse" id="color-2"><stop offset="0" stop-color="#fffc45"/><stop offset="1" stop-color="#ffe134"/></linearGradient><linearGradient x1="451.65824" y1="222.00546" x2="451.65824" y2="251.07261" gradientUnits="userSpaceOnUse" id="color-3"><stop offset="0" stop-color="#fffc45"/><stop offset="1" stop-color="#ffe134"/></linearGradient><linearGradient x1="423.1067" y1="227.02716" x2="423.1067" y2="258.56859" gradientUnits="userSpaceOnUse" id="color-4"><stop offset="0" stop-color="#fff642"/><stop offset="1" stop-color="#ffe335"/></linearGradient><linearGradient x1="353.91647" y1="233.972" x2="353.91647" y2="264.99847" gradientUnits="userSpaceOnUse" id="color-5"><stop offset="0" stop-color="#fef23f"/><stop offset="1" stop-color="#ffe537"/></linearGradient><linearGradient x1="471.13286" y1="233.27175" x2="471.13286" y2="264.98352" gradientUnits="userSpaceOnUse" id="color-6"><stop offset="0" stop-color="#fef23f"/><stop offset="1" stop-color="#ffe537"/></linearGradient><linearGradient x1="164.31586" y1="258.03363" x2="164.31586" y2="288.44363" gradientUnits="userSpaceOnUse" id="color-7"><stop offset="0" stop-color="#fffc45"/><stop offset="1" stop-color="#ffe134"/></linearGradient><linearGradient x1="202.75171" y1="257.95545" x2="202.75171" y2="288.36546" gradientUnits="userSpaceOnUse" id="color-8"><stop offset="0" stop-color="#fffc45"/><stop offset="1" stop-color="#ffe134"/></linearGradient><linearGradient x1="241.18759" y1="257.87726" x2="241.18759" y2="288.28725" gradientUnits="userSpaceOnUse" id="color-9"><stop offset="0" stop-color="#fffc45"/><stop offset="1" stop-color="#ffe134"/></linearGradient><linearGradient x1="278.6954" y1="257.79909" x2="278.6954" y2="288.2091" gradientUnits="userSpaceOnUse" id="color-10"><stop offset="0" stop-color="#fffc45"/><stop offset="1" stop-color="#ffe134"/></linearGradient><linearGradient x1="317.59526" y1="258.18491" x2="317.59526" y2="288.59493" gradientUnits="userSpaceOnUse" id="color-11"><stop offset="0" stop-color="#ffe9d8"/><stop offset="1" stop-color="#f7cbd0"/></linearGradient><linearGradient x1="216.41262" y1="263.28732" x2="216.41262" y2="296.15715" gradientUnits="userSpaceOnUse" id="color-12"><stop offset="0" stop-color="#fff642"/><stop offset="1" stop-color="#ffe335"/></linearGradient><linearGradient x1="143.26715" y1="269.50113" x2="143.26715" y2="301.31515" gradientUnits="userSpaceOnUse" id="color-13"><stop offset="0" stop-color="#fef23f"/><stop offset="1" stop-color="#ffe537"/></linearGradient><linearGradient x1="339.01757" y1="268.63262" x2="339.01757" y2="300.18629" gradientUnits="userSpaceOnUse" id="color-14"><stop offset="0" stop-color="#fbdcd4"/><stop offset="1" stop-color="#f7cbd0"/></linearGradient><linearGradient x1="317.45368" y1="259.32102" x2="317.45368" y2="288.38818" gradientUnits="userSpaceOnUse" id="color-15"><stop offset="0" stop-color="#fffc45"/><stop offset="1" stop-color="#ffe134"/></linearGradient><linearGradient x1="354.19229" y1="259.24629" x2="354.19229" y2="288.31345" gradientUnits="userSpaceOnUse" id="color-16"><stop offset="0" stop-color="#fffc45"/><stop offset="1" stop-color="#ffe134"/></linearGradient><linearGradient x1="390.9309" y1="259.17155" x2="390.9309" y2="288.23869" gradientUnits="userSpaceOnUse" id="color-17"><stop offset="0" stop-color="#fffc45"/><stop offset="1" stop-color="#ffe134"/></linearGradient><linearGradient x1="345.20296" y1="264.34272" x2="345.20296" y2="295.087" gradientUnits="userSpaceOnUse" id="color-18"><stop offset="0" stop-color="#fff642"/><stop offset="1" stop-color="#ffe335"/></linearGradient><linearGradient x1="414.20868" y1="269.95196" x2="414.20868" y2="301.66066" gradientUnits="userSpaceOnUse" id="color-19"><stop offset="0" stop-color="#fef23f"/><stop offset="1" stop-color="#ffe537"/></linearGradient><linearGradient x1="154.85001" y1="297.24437" x2="154.85001" y2="326.31157" gradientUnits="userSpaceOnUse" id="color-20"><stop offset="0" stop-color="#fffc45"/><stop offset="1" stop-color="#ffe134"/></linearGradient><linearGradient x1="44.66978" y1="297.0372" x2="44.66978" y2="326.10436" gradientUnits="userSpaceOnUse" id="color-21"><stop offset="0" stop-color="#fffc45"/><stop offset="1" stop-color="#ffe134"/></linearGradient><linearGradient x1="81.40837" y1="296.48387" x2="81.40837" y2="325.55108" gradientUnits="userSpaceOnUse" id="color-22"><stop offset="0" stop-color="#fffc45"/><stop offset="1" stop-color="#ffe134"/></linearGradient><linearGradient x1="118.68268" y1="296.40918" x2="118.68268" y2="325.47634" gradientUnits="userSpaceOnUse" id="color-23"><stop offset="0" stop-color="#fffc45"/><stop offset="1" stop-color="#ffe134"/></linearGradient><linearGradient x1="22.34424" y1="308.49829" x2="22.34424" y2="340.01806" gradientUnits="userSpaceOnUse" id="color-24"><stop offset="0" stop-color="#fef23f"/><stop offset="1" stop-color="#ffe537"/></linearGradient><linearGradient x1="175.21351" y1="307.66814" x2="175.21351" y2="339.37684" gradientUnits="userSpaceOnUse" id="color-25"><stop offset="0" stop-color="#fef23f"/><stop offset="1" stop-color="#ffe537"/></linearGradient><linearGradient x1="83.00734" y1="301.56117" x2="83.00734" y2="332.80316" gradientUnits="userSpaceOnUse" id="color-26"><stop offset="0" stop-color="#fff642"/><stop offset="1" stop-color="#ffe335"/></linearGradient><linearGradient x1="-19.97365" y1="336.96474" x2="-19.97365" y2="366.03187" gradientUnits="userSpaceOnUse" id="color-27"><stop offset="0" stop-color="#fffc45"/><stop offset="1" stop-color="#ffe134"/></linearGradient><linearGradient x1="18.51698" y1="336.89" x2="18.51698" y2="365.95715" gradientUnits="userSpaceOnUse" id="color-28"><stop offset="0" stop-color="#fffc45"/><stop offset="1" stop-color="#ffe134"/></linearGradient><linearGradient x1="56.07829" y1="336.81526" x2="56.07829" y2="365.88241" gradientUnits="userSpaceOnUse" id="color-29"><stop offset="0" stop-color="#fffc45"/><stop offset="1" stop-color="#ffe134"/></linearGradient><linearGradient x1="27.52675" y1="341.83696" x2="27.52675" y2="373.37839" gradientUnits="userSpaceOnUse" id="color-30"><stop offset="0" stop-color="#fff642"/><stop offset="1" stop-color="#ffe335"/></linearGradient><linearGradient x1="-41.66348" y1="348.7818" x2="-41.66348" y2="379.80827" gradientUnits="userSpaceOnUse" id="color-31"><stop offset="0" stop-color="#fef23f"/><stop offset="1" stop-color="#ffe537"/></linearGradient><linearGradient x1="75.55291" y1="348.08155" x2="75.55291" y2="379.79332" gradientUnits="userSpaceOnUse" id="color-32"><stop offset="0" stop-color="#fef23f"/><stop offset="1" stop-color="#ffe537"/></linearGradient></defs><g transform="translate(117.40491,56.60282)"><g data-paper-data="{&quot;isPaintingLayer&quot;:true}" fill-rule="nonzero" stroke-linejoin="miter" stroke-miterlimit="10" stroke-dasharray="" stroke-dashoffset="0" style="mix-blend-mode: normal"><g data-paper-data="{&quot;index&quot;:null}"><g data-paper-data="{&quot;origPos&quot;:null}" stroke="none" stroke-linecap="butt"><path d="M400.69934,244.33164c0,12.24786 -28.34585,4.43534 -28.34585,4.43534c0,0 -21.84025,7.81252 -21.84025,-4.43534c0,-12.24786 11.23454,-22.1767 25.09306,-22.1767c13.8585,0 25.09306,9.92884 25.09306,22.1767z" data-paper-data="{&quot;origPos&quot;:null}" fill="url(#color-1)" stroke-width="NaN"/><path d="M439.18998,244.2569c0,12.24786 -28.34585,4.43534 -28.34585,4.43534c0,0 -21.84026,7.81253 -21.84026,-4.43534c0,-12.24786 11.23454,-22.17671 25.09306,-22.17671c13.85851,0 25.09306,9.92885 25.09306,22.17671z" data-paper-data="{&quot;origPos&quot;:null}" fill="url(#color-2)" stroke-width="NaN"/><path d="M476.75128,244.18218c0,12.24786 -28.34585,4.43534 -28.34585,4.43534c0,0 -21.84026,7.81253 -21.84026,-4.43534c0,-12.24786 11.23455,-22.17671 25.09307,-22.17671c13.85851,0 25.09306,9.92885 25.09306,22.17671z" data-paper-data="{&quot;origPos&quot;:null}" fill="url(#color-3)" stroke-width="NaN"/><path d="M366.78028,257.77147v-30.74431l97.74748,1.66667l14.90535,29.87477z" data-paper-data="{&quot;origPos&quot;:null}" fill="url(#color-4)" stroke-width="0"/><path d="M370.18048,249.05216c0,8.32855 -8.83586,15.94632 -17.81824,15.94632c-8.98237,0 -14.70979,-7.61778 -14.70979,-15.94632c0,-8.32855 7.28165,-15.08016 16.26402,-15.08016c8.98237,0 16.26402,6.75161 16.26402,15.08016z" data-paper-data="{&quot;origPos&quot;:null}" fill="url(#color-5)" stroke-width="0"/><path d="M487.39688,248.3519c0,8.32855 -4.93284,16.63162 -13.91521,16.63162c-8.98237,0 -18.61284,-8.30307 -18.61284,-16.63162c0,-5.66446 1.98316,-9.10116 6.87163,-12.31285c3.20847,-2.10796 5.49731,-2.76731 9.39239,-2.76731c8.98237,0 16.26402,6.75162 16.26402,15.08016z" data-paper-data="{&quot;origPos&quot;:null}" fill="url(#color-6)" stroke-width="0"/></g><path d="M350.81435,261.88355h127.60227" data-paper-data="{&quot;origPos&quot;:null}" fill="#ffc3d5" stroke="#ffd426" stroke-width="9" stroke-linecap="round"/><path d="M414.88807,257.58237c4.71377,2.53063 -12.19673,3.31201 -20.4076,3.31201c-8.21088,0 -15.45178,5.59214 -15.45178,-0.28571c0,-0.3259 -7.06176,-3.09679 -6.75222,-3.23435c3.13432,-1.39289 5.94787,-1.54472 8.17872,-2.82298c4.90902,-2.81281 8.34963,-2.71514 13.4406,-2.71514c0,0 5.29793,-0.65893 10.13385,2.34864c3.59562,1.91012 5.44326,1.76923 10.85844,3.39753z" data-paper-data="{&quot;origPos&quot;:null}" fill="#ffd426" stroke="none" stroke-width="0" stroke-linecap="butt"/><path d="M454.86373,257.37091c4.71377,2.53063 -12.19674,3.31201 -20.40762,3.31201c-8.21088,0 -15.45178,5.59214 -15.45178,-0.28571c0,-0.3259 -7.06176,-3.09679 -6.75222,-3.23435c3.13432,-1.39289 5.94788,-1.54472 8.17873,-2.82298c4.90902,-2.81281 8.34963,-2.71514 13.4406,-2.71514c0,0 5.29793,-0.65893 10.13386,2.34864c3.59562,1.91012 5.44326,1.76923 10.85843,3.39753z" data-paper-data="{&quot;origPos&quot;:null}" fill="#ffd426" stroke="none" stroke-width="0" stroke-linecap="butt"/></g><g><path d="M149.34365,169.47858v5.33333" fill="none" stroke="#dce984" stroke-width="4" stroke-linecap="round"/><path d="M152.65872,174.81191v-5.33333" fill="none" stroke="#dce984" stroke-width="4" stroke-linecap="round"/><path d="M150.43868,131.45215v5.5" fill="none" stroke="#a91645" stroke-width="4" stroke-linecap="round"/><path d="M155.36677,138.48536h-9" fill="none" stroke="#c5007f" stroke-width="5" stroke-linecap="round"/><path d="M155.59757,168.35643h-9.38462" fill="none" stroke="#c5007f" stroke-width="5" stroke-linecap="round"/><path d="M143.6992,168.34082v-2.5641h14.38742v2.5641z" fill="#c5007f" stroke="none" stroke-width="0" stroke-linecap="butt"/><path d="M144.93479,142.69632v20.05153" fill="none" stroke="#ff428a" stroke-width="8" stroke-linecap="round"/><path d="M156.64973,162.77684v-20.05153" fill="none" stroke="#ff428a" stroke-width="8" stroke-linecap="round"/><path d="M156.58622,142.62605h-11.31401" fill="none" stroke="#ff428a" stroke-width="8" stroke-linecap="round"/><path d="M145.17941,162.89636h11.31401" fill="none" stroke="#ff428a" stroke-width="8" stroke-linecap="round"/><path d="M148.70541,146.22017v12.22078" fill="none" stroke="#ff428a" stroke-width="8" stroke-linecap="round"/><path d="M146.25674,152.29518h9.27049" fill="none" stroke="#e1ffb8" stroke-width="5.5" stroke-linecap="round"/><path d="M150.82753,147.85549v9.02049" fill="none" stroke="#e1ffb8" stroke-width="5" stroke-linecap="round"/><path d="M338.3545,174.69969v-5.33333" fill="none" stroke="#dce984" stroke-width="4" stroke-linecap="round"/><path d="M341.66953,174.69969v-5.33333" fill="none" stroke="#dce984" stroke-width="4" stroke-linecap="round"/><path d="M339.44955,136.83991v-5.5" fill="none" stroke="#a91645" stroke-width="4" stroke-linecap="round"/><path d="M335.37763,138.3731h9" fill="none" stroke="#c5007f" stroke-width="5" stroke-linecap="round"/><path d="M335.22376,168.24421h9.38462" fill="none" stroke="#c5007f" stroke-width="5" stroke-linecap="round"/><path d="M332.71004,168.22856v-2.5641h14.38742v2.5641z" fill="#c5007f" stroke="none" stroke-width="0" stroke-linecap="butt"/><path d="M333.94565,162.63561v-20.05153" fill="none" stroke="#ff428a" stroke-width="8" stroke-linecap="round"/><path d="M345.66051,142.61309v20.05153" fill="none" stroke="#ff428a" stroke-width="8" stroke-linecap="round"/><path d="M345.59707,142.51384h-11.31402" fill="none" stroke="#ff428a" stroke-width="8" stroke-linecap="round"/><path d="M334.19026,162.78417h11.314" fill="none" stroke="#ff428a" stroke-width="8" stroke-linecap="round"/><path d="M337.71625,158.32876v-12.22078" fill="none" stroke="#ff428a" stroke-width="8" stroke-linecap="round"/><path d="M344.53805,152.18292h-9.27049" fill="none" stroke="#e1ffb8" stroke-width="5.5" stroke-linecap="round"/><path d="M339.83838,147.74326v9.02049" fill="none" stroke="#e1ffb8" stroke-width="5" stroke-linecap="round"/><path d="M149.59365,174.92911h2.91667" fill="none" stroke="#dce984" stroke-width="4" stroke-linecap="round"/><path d="M345.32377,106.02452h-200.73672" fill="none" stroke="#781c72" stroke-width="13" stroke-linecap="round"/><path d="M157.98747,123.51332c0,0 -12.53188,-0.00445 -12.86391,-0.02936c-0.53468,-0.03645 -0.5361,-0.87064 -0.5361,-0.87064l-0.2,-15.9" fill="none" stroke="#781c72" stroke-width="13" stroke-linecap="round"/><path d="M269.10926,123.59013c0,0 -12.53187,-0.00444 -12.8639,-0.02935c-0.53468,-0.03645 -0.5361,-0.87064 -0.5361,-0.87064l-0.2,-15.9" fill="none" stroke="#781c72" stroke-width="13" stroke-linecap="round"/><path d="M233.08274,106.86693l-0.2,15.9c0,0 -0.00141,0.83419 -0.53609,0.87064c-0.33203,0.02491 -12.86391,0.02936 -12.86391,0.02936" data-paper-data="{&quot;index&quot;:null}" fill="none" stroke="#781c72" stroke-width="13" stroke-linecap="round"/><path d="M345.76878,106.66396l-0.2,15.9c0,0 -0.00142,0.83419 -0.5361,0.87064c-0.33203,0.02491 -12.8639,0.02936 -12.8639,0.02936" data-paper-data="{&quot;index&quot;:null}" fill="none" stroke="#781c72" stroke-width="13" stroke-linecap="round"/><path d="M209.32373,175.52449v-11h70v11z" fill="#781c72" stroke="none" stroke-width="0" stroke-linecap="butt"/><path d="M209.32373,159.02449v-11h70v11z" fill="#781c72" stroke="none" stroke-width="0" stroke-linecap="butt"/><path d="M278.42631,271.51334v-188.75629h29.41656v188.75629z" fill="#ff428a" stroke="none" stroke-width="0" stroke-linecap="butt"/><path d="M180.88674,272.6418v-188.75628h29.41656v188.75628z" fill="#ff428a" stroke="none" stroke-width="0" stroke-linecap="butt"/><path d="M183.93125,84.33586v189.83333" fill="none" stroke="#ff7bae" stroke-width="6" stroke-linecap="round"/><path d="M280.93117,274.50253v-189.83334" fill="none" stroke="#ff7bae" stroke-width="6" stroke-linecap="round"/><path d="M210.02326,151.99517h-28.19087" fill="none" stroke="#fea7ca" stroke-width="8.5" stroke-linecap="round"/><path d="M210.12047,208.16776h-28.19088" fill="none" stroke="#fea7ca" stroke-width="8.5" stroke-linecap="round"/><path d="M181.83242,151.99517h28.19088" fill="none" stroke="#fea7ca" stroke-width="8.5" stroke-linecap="round"/><path d="M278.75907,208.16776h28.19088" fill="none" stroke="#fea7ca" stroke-width="8.5" stroke-linecap="round"/><path d="M278.66193,151.99517h28.19087" fill="none" stroke="#fea7ca" stroke-width="8.5" stroke-linecap="round"/><path d="M214.1999,79.22628v0.77878c0,0 0.09265,2.52088 -1.03585,3.70018c-1.1285,1.1793 -3.70311,1.12997 -3.70311,1.12997h-26.52104c0,0 -2.64247,0.21357 -3.86412,-1.01309c-1.22165,-1.22666 -0.96603,-3.83688 -0.96603,-3.83688v-0.75896z" data-paper-data="{&quot;index&quot;:null}" fill="#fea7ca" stroke="none" stroke-width="0" stroke-linecap="butt"/><path d="M311.15566,79.1645v0.77878c0,0 0.09265,2.52088 -1.03584,3.70018c-1.1285,1.1793 -3.70312,1.12997 -3.70312,1.12997h-26.52105c0,0 -2.64247,0.21357 -3.86412,-1.01309c-1.22165,-1.22666 -0.96603,-3.83688 -0.96603,-3.83688v-0.75896z" data-paper-data="{&quot;index&quot;:null}" fill="#fea7ca" stroke="none" stroke-width="0" stroke-linecap="butt"/><path d="M187.84274,88.92166h18.41385" fill="none" stroke="#e12584" stroke-width="8.5" stroke-linecap="round"/><path d="M206.25662,160.17945h-18.41385" fill="none" stroke="#e12584" stroke-width="8.5" stroke-linecap="round"/><path d="M206.25662,217.01606h-18.41385" fill="none" stroke="#e12584" stroke-width="8.5" stroke-linecap="round"/><path d="M284.83251,88.92166h18.41385" fill="none" stroke="#e12584" stroke-width="8.5" stroke-linecap="round"/><path d="M284.83256,160.17945h18.41385" fill="none" stroke="#e12584" stroke-width="8.5" stroke-linecap="round"/><path d="M284.83251,217.01606h18.41385" fill="none" stroke="#e12584" stroke-width="8.5" stroke-linecap="round"/><path d="M341.43775,174.92911h-2.91667" fill="none" stroke="#dce984" stroke-width="4" stroke-linecap="round"/></g><g><g><g data-paper-data="{&quot;origPos&quot;:null}" stroke="none" stroke-linecap="butt"><path d="M189.37319,281.23488c0,12.81369 -28.3055,4.64025 -28.3055,4.64025c0,0 -21.80916,8.17345 -21.80916,-4.64025c0,-12.81369 11.21855,-23.20124 25.05733,-23.20124c13.83878,0 25.05733,10.38755 25.05733,23.20124z" data-paper-data="{&quot;origPos&quot;:null}" fill="url(#color-7)" stroke-width="NaN"/><path d="M227.80904,281.1567c0,12.81369 -28.3055,4.64025 -28.3055,4.64025c0,0 -21.80916,8.17345 -21.80916,-4.64025c0,-12.81369 11.21854,-23.20124 25.05733,-23.20124c13.83878,0 25.05733,10.38755 25.05733,23.20124z" data-paper-data="{&quot;origPos&quot;:null}" fill="url(#color-8)" stroke-width="NaN"/><path d="M266.2449,281.07849c0,12.81369 -28.3055,4.64024 -28.3055,4.64024c0,0 -21.80916,8.17345 -21.80916,-4.64024c0,-12.81369 11.21854,-23.20124 25.05733,-23.20124c13.83878,0 25.05733,10.38755 25.05733,23.20124z" data-paper-data="{&quot;origPos&quot;:null}" fill="url(#color-9)" stroke-width="NaN"/><path d="M303.75272,281.00032c0,12.81369 -28.3055,4.64024 -28.3055,4.64024c0,0 -21.80916,8.17345 -21.80916,-4.64024c0,-12.81369 11.21855,-23.20124 25.05733,-23.20124c13.83878,0 25.05733,10.38755 25.05733,23.20124z" data-paper-data="{&quot;origPos&quot;:null}" fill="url(#color-10)" stroke-width="NaN"/><path d="M342.65262,281.38617c0,12.81369 -28.3055,4.64025 -28.3055,4.64025c0,0 -21.80916,8.17345 -21.80916,-4.64025c0,-12.81369 11.21854,-23.20124 25.05733,-23.20124c13.83878,0 25.05733,10.38755 25.05733,23.20124z" data-paper-data="{&quot;origPos&quot;:null}" fill="url(#color-11)" stroke-width="NaN"/><path d="M141.03495,296.15715l7.75699,-31.45946l180.49828,-1.41036v32.16464z" data-paper-data="{&quot;origPos&quot;:null}" fill="url(#color-12)" stroke-width="0"/><path d="M159.508,285.27797c0,8.71332 -10.03162,16.03718 -19.00121,16.03718c-8.96958,0 -13.48052,-7.32387 -13.48052,-16.03718c0,-8.71332 7.27128,-15.77684 16.24087,-15.77684c8.96958,0 16.24087,7.06352 16.24087,15.77684z" fill="url(#color-13)" stroke-width="0"/><path d="M355.25843,284.40945c0,8.71332 -5.44891,17.83887 -14.4185,17.83887c-8.96958,0 -18.06324,-9.12556 -18.06324,-17.83887c0,-8.71332 7.27127,-15.77684 16.24087,-15.77684c8.96958,0 16.24087,7.06353 16.24087,15.77684z" data-paper-data="{&quot;origPos&quot;:null}" fill="url(#color-14)" stroke-width="0"/></g><path d="M136.12691,298.87478c0,0 55.46007,0 118.2303,0c34.23198,0 85.21518,0 85.21518,0" data-paper-data="{&quot;origPos&quot;:null}" fill="#ffc3d5" stroke="#ffd426" stroke-width="9" stroke-linecap="round"/><path d="M205.08847,294.6898c4.70706,2.64754 -12.17937,3.46502 -20.37856,3.46502c-8.19919,0 -15.42978,5.85048 -15.42978,-0.29891c0,-0.34096 -7.05168,-3.23986 -6.74259,-3.38377c3.12986,-1.45724 5.9394,-1.61608 8.16707,-2.95339c4.90203,-2.94276 8.33774,-2.84057 13.42146,-2.84057c0,0 5.29038,-0.68937 10.11942,2.45714c3.5905,1.99836 5.43552,1.85096 10.84298,3.55449z" data-paper-data="{&quot;origPos&quot;:null}" fill="#ffd426" stroke="none" stroke-width="0" stroke-linecap="butt"/><path d="M243.98737,294.46853c4.70706,2.64754 -12.17937,3.46502 -20.37855,3.46502c-8.19919,0 -15.42979,5.85048 -15.42979,-0.29891c0,-0.34096 -7.05168,-3.23986 -6.74259,-3.38377c3.12986,-1.45724 5.9394,-1.61608 8.16707,-2.95339c4.90203,-2.94276 8.33774,-2.84057 13.42146,-2.84057c0,0 5.29038,-0.68937 10.11942,2.45714c3.5905,1.99836 5.43552,1.85095 10.84298,3.55448z" data-paper-data="{&quot;origPos&quot;:null}" fill="#ffd426" stroke="none" stroke-width="0" stroke-linecap="butt"/><path d="M279.56447,294.6898c4.70706,2.64754 -12.17937,3.46502 -20.37855,3.46502c-8.19919,0 -15.42978,5.85048 -15.42978,-0.29891c0,-0.34096 -7.0517,-3.23986 -6.7426,-3.38377c3.12986,-1.45724 5.9394,-1.61608 8.16707,-2.95339c4.90203,-2.94276 8.33774,-2.84057 13.42146,-2.84057c0,0 5.29038,-0.68937 10.11942,2.45714c3.5905,1.99836 5.43552,1.85096 10.84298,3.55449z" data-paper-data="{&quot;origPos&quot;:null}" fill="#ffd426" stroke="none" stroke-width="0" stroke-linecap="butt"/><path d="M317.95359,294.46853c4.70706,2.64754 -12.17937,3.46502 -20.37856,3.46502c-8.19919,0 -15.42978,5.85048 -15.42978,-0.29891c0,-0.34096 -7.05168,-3.23986 -6.74259,-3.38377c3.12986,-1.45724 5.9394,-1.61608 8.16707,-2.95339c4.90203,-2.94276 8.33774,-2.84057 13.42146,-2.84057c0,0 5.29038,-0.68937 10.11942,2.45714c3.5905,1.99836 5.43552,1.85095 10.84298,3.55448z" data-paper-data="{&quot;origPos&quot;:null}" fill="#ffc3d5" stroke="none" stroke-width="0" stroke-linecap="butt"/></g><g data-paper-data="{&quot;origPos&quot;:null}"><g data-paper-data="{&quot;origPos&quot;:null}" stroke="none" stroke-linecap="butt"><path d="M341.4045,281.49773c0,12.24786 -27.05558,4.43534 -27.05558,4.43534c0,0 -20.84611,7.81253 -20.84611,-4.43534c0,-12.24786 10.72316,-22.17671 23.95085,-22.17671c13.22768,0 23.95085,9.92885 23.95085,22.17671z" data-paper-data="{&quot;origPos&quot;:null}" fill="url(#color-15)" stroke-width="NaN"/><path d="M378.14312,281.42301c0,12.24786 -27.05558,4.43534 -27.05558,4.43534c0,0 -20.84611,7.81253 -20.84611,-4.43534c0,-12.24786 10.72315,-22.17671 23.95085,-22.17671c13.22768,0 23.95085,9.92885 23.95085,22.17671z" data-paper-data="{&quot;origPos&quot;:null}" fill="url(#color-16)" stroke-width="NaN"/><path d="M414.88173,281.34826c0,12.24786 -27.05558,4.43533 -27.05558,4.43533c0,0 -20.84611,7.81253 -20.84611,-4.43533c0,-12.24786 10.72315,-22.17671 23.95085,-22.17671c13.22768,0 23.95085,9.92885 23.95085,22.17671z" data-paper-data="{&quot;origPos&quot;:null}" fill="url(#color-17)" stroke-width="NaN"/><path d="M274.64948,293.0605l-6.57199,-27.25757l134.02408,-1.46022l20.22687,30.74431z" data-paper-data="{&quot;origPos&quot;:null}" fill="url(#color-18)" stroke-width="0"/><path d="M429.73242,285.03211c0,8.32855 -4.653,16.62852 -13.2265,16.62852c-8.5735,0 -17.8209,-8.29997 -17.8209,-16.62852c0,-5.66446 1.89289,-9.10116 6.55884,-12.31285c3.06243,-2.10796 5.24708,-2.76731 8.96486,-2.76731c8.5735,0 15.5237,6.75162 15.5237,15.08016z" data-paper-data="{&quot;origPos&quot;:null}" fill="url(#color-19)" stroke-width="0"/></g><path d="M418.18568,298.48024c0,0 -1.46654,0 -3.47146,0c-6.01476,0 -24.3493,0 -39.9341,0c-48.91908,0 -119.85778,0 -119.85778,0" data-paper-data="{&quot;origPos&quot;:null}" fill="#ffc3d5" stroke="#ffd426" stroke-width="10" stroke-linecap="round"/><path d="M320.51329,294.68647c4.49921,2.53063 -11.64155,3.31201 -19.47868,3.31201c-7.83713,0 -14.74843,5.59214 -14.74843,-0.28571c0,-0.3259 -6.74031,-3.09679 -6.44486,-3.23435c2.99165,-1.39289 5.67713,-1.54472 7.80644,-2.82298c4.68556,-2.81281 7.96956,-2.71514 12.8288,-2.71514c0,0 5.05677,-0.65893 9.67257,2.34864c3.43195,1.91012 5.19549,1.76923 10.36417,3.39753z" data-paper-data="{&quot;origPos&quot;:null}" fill="#ffd426" stroke="none" stroke-width="0" stroke-linecap="butt"/><path d="M356.42581,294.35853c4.49921,2.53063 -11.64155,3.31201 -19.47868,3.31201c-7.83713,0 -14.74843,5.59214 -14.74843,-0.28571c0,-0.3259 -6.74029,-3.09679 -6.44485,-3.23435c2.99165,-1.39289 5.67713,-1.54472 7.80643,-2.82298c4.68556,-2.81281 7.96956,-2.71514 12.8288,-2.71514c0,0 5.05677,-0.65893 9.67257,2.34864c3.43195,1.91012 5.19549,1.76923 10.36417,3.39753z" data-paper-data="{&quot;origPos&quot;:null}" fill="#ffd426" stroke="none" stroke-width="0" stroke-linecap="butt"/><path d="M393.6071,294.14705c4.49921,2.53063 -11.64155,3.31201 -19.47867,3.31201c-7.83713,0 -14.74844,5.59214 -14.74844,-0.28571c0,-0.3259 -6.74029,-3.09679 -6.44485,-3.23435c2.99165,-1.39289 5.67713,-1.54472 7.80643,-2.82298c4.68556,-2.81281 7.96956,-2.71514 12.8288,-2.71514c0,0 5.05677,-0.65893 9.67257,2.34864c3.43195,1.91012 5.19549,1.76922 10.36417,3.39752z" data-paper-data="{&quot;origPos&quot;:null}" fill="#ffd426" stroke="none" stroke-width="0" stroke-linecap="butt"/></g></g><path d="M-115.3622,421.62547l-2.04271,-478.22829h659.4368l2.04271,478.22829z" fill="none" stroke="none" stroke-width="0" stroke-linecap="butt"/><g><path d="M178.80082,319.42109c0,12.24786 -27.05558,4.43533 -27.05558,4.43533c0,0 -20.84611,7.81253 -20.84611,-4.43533c0,-12.24786 10.72315,-22.17671 23.95085,-22.17671c13.22768,0 23.95085,9.92885 23.95085,22.17671z" fill="url(#color-20)" stroke="none" stroke-width="NaN" stroke-linecap="butt"/><path d="M68.62061,319.21389c0,12.24786 -27.05558,4.43534 -27.05558,4.43534c0,0 -20.84611,7.81253 -20.84611,-4.43534c0,-12.24786 10.72316,-22.17671 23.95085,-22.17671c13.22768,0 23.95085,9.92885 23.95085,22.17671z" fill="url(#color-21)" stroke="none" stroke-width="NaN" stroke-linecap="butt"/><path d="M105.35924,318.6606c0,12.24786 -27.05558,4.43534 -27.05558,4.43534c0,0 -20.84611,7.81253 -20.84611,-4.43534c0,-12.24786 10.72315,-22.17671 23.95085,-22.17671c13.22768,0 23.95085,9.92885 23.95085,22.17671z" fill="url(#color-22)" stroke="none" stroke-width="NaN" stroke-linecap="butt"/><path d="M142.63351,318.58591c0,12.24786 -27.05558,4.43533 -27.05558,4.43533c0,0 -20.84611,7.81253 -20.84611,-4.43533c0,-12.24786 10.72315,-22.17671 23.95085,-22.17671c13.22768,0 23.95085,9.92885 23.95085,22.17671z" fill="url(#color-23)" stroke="none" stroke-width="NaN" stroke-linecap="butt"/><path d="M37.86793,323.57848c0,8.32855 -9.25434,16.4396 -17.82784,16.4396c-8.5735,0 -13.21955,-8.11106 -13.21955,-16.4396c0,-8.32855 6.9502,-15.08016 15.5237,-15.08016c8.5735,0 15.5237,6.75161 15.5237,15.08016z" fill="url(#color-24)" stroke="none" stroke-width="0" stroke-linecap="butt"/><path d="M190.73717,322.74829c0,8.32855 -4.653,16.62852 -13.2265,16.62852c-8.5735,0 -17.8209,-8.29997 -17.8209,-16.62852c0,-5.66446 1.89289,-9.10116 6.55884,-12.31285c3.06243,-2.10796 5.24708,-2.76731 8.96486,-2.76731c8.5735,0 15.5237,6.75162 15.5237,15.08016z" fill="url(#color-25)" stroke="none" stroke-width="0" stroke-linecap="butt"/><path d="M16.76771,333.77666l14.25869,-30.25757l130.33844,-0.21287c0,0 3.52579,8.43051 5.51725,13.19231c2.3513,5.6222 7.69118,18.39037 7.69118,18.39037z" fill="url(#color-26)" stroke="none" stroke-width="0" stroke-linecap="butt"/><path d="M162.53768,332.34265c4.49921,2.53063 -11.64155,3.31201 -19.47867,3.31201c-7.83713,0 -14.74844,5.59214 -14.74844,-0.28571c0,-0.3259 -6.74029,-3.09679 -6.44485,-3.23435c2.99165,-1.39289 5.67713,-1.54472 7.80643,-2.82298c4.68556,-2.81281 7.96956,-2.71514 12.8288,-2.71514c0,0 5.05677,-0.65893 9.67257,2.34864c3.43195,1.91012 5.19549,1.76922 10.36417,3.39752z" fill="#ffd426" stroke="none" stroke-width="0" stroke-linecap="butt"/><path d="M177.3876,336.92841c-6.01476,0 -161.16562,0 -161.16562,0" fill="#ffd426" stroke="#ffd426" stroke-width="10" stroke-linecap="round"/><path d="M83.64192,332.55414c4.49921,2.53063 -11.64155,3.31201 -19.47868,3.31201c-7.83713,0 -14.74843,5.59214 -14.74843,-0.28571c0,-0.3259 -6.74029,-3.09679 -6.44485,-3.23435c2.99165,-1.39289 5.67713,-1.54472 7.80643,-2.82298c4.68556,-2.81281 7.96956,-2.71514 12.8288,-2.71514c0,0 5.05677,-0.65893 9.67257,2.34864c3.43195,1.91012 5.19549,1.76923 10.36417,3.39753z" fill="#ffd426" stroke="none" stroke-width="0" stroke-linecap="butt"/><path d="M120.82322,332.34264c4.49921,2.53063 -11.64155,3.31201 -19.47867,3.31201c-7.83713,0 -14.74844,5.59214 -14.74844,-0.28571c0,-0.3259 -6.74029,-3.09679 -6.44485,-3.23435c2.99165,-1.39289 5.67713,-1.54472 7.80643,-2.82298c4.68556,-2.81281 7.96956,-2.71514 12.8288,-2.71514c0,0 5.05677,-0.65893 9.67257,2.34864c3.43195,1.91012 5.19549,1.76922 10.36417,3.39752z" fill="#ffd426" stroke="none" stroke-width="0" stroke-linecap="butt"/></g><g data-paper-data="{&quot;index&quot;:null}"><g data-paper-data="{&quot;origPos&quot;:null}" stroke="none" stroke-linecap="butt"><path d="M5.11939,359.14144c0,12.24786 -28.34585,4.43534 -28.34585,4.43534c0,0 -21.84025,7.81252 -21.84025,-4.43534c0,-12.24786 11.23454,-22.1767 25.09306,-22.1767c13.8585,0 25.09306,9.92884 25.09306,22.1767z" data-paper-data="{&quot;origPos&quot;:null}" fill="url(#color-27)" stroke-width="NaN"/><path d="M43.61003,359.0667c0,12.24786 -28.34585,4.43534 -28.34585,4.43534c0,0 -21.84026,7.81253 -21.84026,-4.43534c0,-12.24786 11.23454,-22.17671 25.09306,-22.17671c13.85851,0 25.09306,9.92885 25.09306,22.17671z" data-paper-data="{&quot;origPos&quot;:null}" fill="url(#color-28)" stroke-width="NaN"/><path d="M81.17133,358.99198c0,12.24786 -28.34585,4.43534 -28.34585,4.43534c0,0 -21.84026,7.81253 -21.84026,-4.43534c0,-12.24786 11.23455,-22.17671 25.09307,-22.17671c13.85851,0 25.09306,9.92885 25.09306,22.17671z" data-paper-data="{&quot;origPos&quot;:null}" fill="url(#color-29)" stroke-width="NaN"/><path d="M-28.79967,372.58127v-30.74431l97.74748,1.66667l14.90535,29.87477z" data-paper-data="{&quot;origPos&quot;:null}" fill="url(#color-30)" stroke-width="0"/><path d="M-25.39947,363.86196c0,8.32855 -8.83586,15.94632 -17.81824,15.94632c-8.98237,0 -14.70979,-7.61778 -14.70979,-15.94632c0,-8.32855 7.28165,-15.08016 16.26402,-15.08016c8.98237,0 16.26402,6.75161 16.26402,15.08016z" data-paper-data="{&quot;origPos&quot;:null}" fill="url(#color-31)" stroke-width="0"/><path d="M91.81693,363.1617c0,8.32855 -4.93284,16.63162 -13.91521,16.63162c-8.98237,0 -18.61284,-8.30307 -18.61284,-16.63162c0,-5.66446 1.98316,-9.10116 6.87163,-12.31285c3.20847,-2.10796 5.49731,-2.76731 9.39239,-2.76731c8.98237,0 16.26402,6.75162 16.26402,15.08016z" data-paper-data="{&quot;origPos&quot;:null}" fill="url(#color-32)" stroke-width="0"/></g><path d="M82.83667,376.69335h-127.60227" data-paper-data="{&quot;origPos&quot;:null}" fill="#ffc3d5" stroke="#ffd426" stroke-width="9" stroke-linecap="round"/><path d="M19.30812,372.39217c4.71377,2.53063 -12.19673,3.31201 -20.4076,3.31201c-8.21088,0 -15.45178,5.59214 -15.45178,-0.28571c0,-0.3259 -7.06176,-3.09679 -6.75222,-3.23435c3.13432,-1.39289 5.94787,-1.54472 8.17872,-2.82298c4.90902,-2.81281 8.34963,-2.71514 13.4406,-2.71514c0,0 5.29793,-0.65893 10.13385,2.34864c3.59562,1.91012 5.44326,1.76923 10.85844,3.39753z" data-paper-data="{&quot;origPos&quot;:null}" fill="#ffd426" stroke="none" stroke-width="0" stroke-linecap="butt"/><path d="M59.28378,372.18071c4.71377,2.53063 -12.19674,3.31201 -20.40762,3.31201c-8.21088,0 -15.45178,5.59214 -15.45178,-0.28571c0,-0.3259 -7.06176,-3.09679 -6.75222,-3.23435c3.13432,-1.39289 5.94788,-1.54472 8.17873,-2.82298c4.90902,-2.81281 8.34963,-2.71514 13.4406,-2.71514c0,0 5.29793,-0.65893 10.13386,2.34864c3.59562,1.91012 5.44326,1.76923 10.85843,3.39753z" data-paper-data="{&quot;origPos&quot;:null}" fill="#ffd426" stroke="none" stroke-width="0" stroke-linecap="butt"/></g></g></g></svg>