<svg version="1.1" xmlns="http://www.w3.org/2000/svg" xmlns:xlink="http://www.w3.org/1999/xlink" width="719.92498" height="594.21913" viewBox="0,0,719.92498,594.21913"><g transform="translate(118.19257,120.69954)"><g data-paper-data="{&quot;isPaintingLayer&quot;:true}" fill-rule="nonzero" stroke-linejoin="miter" stroke-miterlimit="10" stroke-dasharray="" stroke-dashoffset="0" style="mix-blend-mode: normal"><path d="M109.68133,38.16959l-18.79117,42.88596h-159.92577l0.15179,-45.0957z" data-paper-data="{&quot;index&quot;:null}" fill="#4926f1" stroke="none" stroke-width="0" stroke-linecap="butt"/><path d="M-65.33379,36.6112h163.1669" fill="none" stroke="#3eb5fa" stroke-width="7" stroke-linecap="round"/><path d="M254.5375,242.76172l-322.98842,3.7917l-0.87665,-179.081l149.02119,-0.08114l9.83465,-7.26589l-0.07614,-129.06384l115.1328,1.22764l186.28662,128.57462h125.78316v405.80929l-254.96049,-10.25161z" fill="#4000af" stroke="none" stroke-width="0" stroke-linecap="butt"/><path d="M390.81962,69.94205v-29.26876h125.78315v29.26876z" fill="#4926f1" stroke="none" stroke-width="0" stroke-linecap="butt"/><path d="M394.41287,40.60193h118.41772" data-paper-data="{&quot;index&quot;:null}" fill="none" stroke="#3eb5fa" stroke-width="7" stroke-linecap="round"/><path d="M261.51448,457.7932l247.63505,8.22639" data-paper-data="{&quot;index&quot;:null}" fill="none" stroke="#4000af" stroke-width="15" stroke-linecap="round"/><path d="M-115.96185,446.69283l-2.23072,-567.39237h717.69426l2.23072,567.39237z" fill="none" stroke="none" stroke-width="0" stroke-linecap="butt"/><path d="M214.66303,-86.8346l-18.79117,28.5617h-106.40724l0.15179,-30.03337z" data-paper-data="{&quot;index&quot;:null}" fill="#4926f1" stroke="none" stroke-width="0" stroke-linecap="butt"/><path d="M379.99798,40.77927l14.74013,2.03153l4.73623,27.48328l-20.29185,-0.20204c0,0 -5.34092,-0.36134 -9.09874,-1.61795c-3.75782,-1.25661 -7.60097,-3.96641 -7.60097,-3.96641l-152.99421,-115.30806c0,0 -4.89737,-4.27903 -9.1728,-5.76702c-4.27543,-1.488 -12.48274,-1.60317 -12.48274,-1.60317l23.67655,-31.10584z" data-paper-data="{&quot;index&quot;:null}" fill="#4926f1" stroke="none" stroke-width="0" stroke-linecap="butt"/><path d="M93.31782,-88.3119l116.69253,0.01544l168.87899,128.6817l19.65376,0.25436" data-paper-data="{&quot;index&quot;:null}" fill="none" stroke="#3eb5fa" stroke-width="7" stroke-linecap="round"/><path d="M81.89432,59.86343h-20.99025" data-paper-data="{&quot;index&quot;:null}" fill="none" stroke="#4926f1" stroke-width="15" stroke-linecap="round"/></g></g></svg>