<svg version="1.1" xmlns="http://www.w3.org/2000/svg" xmlns:xlink="http://www.w3.org/1999/xlink" width="758.68243" height="535.03373" viewBox="0,0,758.68243,535.03373"><defs><linearGradient x1="80.65724" y1="-138.50234" x2="80.65724" y2="-12.97178" gradientUnits="userSpaceOnUse" id="color-1"><stop offset="0" stop-color="#ffce17"/><stop offset="1" stop-color="#ff9100"/></linearGradient></defs><g transform="translate(120.12073,159.81053)"><g data-paper-data="{&quot;isPaintingLayer&quot;:true}" fill-rule="nonzero" stroke-linejoin="miter" stroke-miterlimit="10" stroke-dasharray="" stroke-dashoffset="0" style="mix-blend-mode: normal"><g data-paper-data="{&quot;index&quot;:null}"><g data-paper-data="{&quot;origPos&quot;:null}"><g data-paper-data="{&quot;origPos&quot;:null}"><g data-paper-data="{&quot;origPos&quot;:null}" stroke="none" stroke-width="0" stroke-linecap="butt"><path d="M110.36738,61.14966c-5.87796,-0.23854 -11.69324,-0.63816 -17.2477,-1.08753c-3.03244,-0.24534 -6.09518,0.12079 -9.1346,-0.1308c-10.78425,-0.76172 -21.74135,8.21359 -32.61769,8.38381v-73.44925h59z" data-paper-data="{&quot;origPos&quot;:null}" fill="#95153c"/><path d="M62.80117,60.13742c-3.87575,0.04235 -7.7525,12.45399 -11.61887,12.51393c0,-1.85704 0,-16.66354 0,-18.40116c0,-22.6086 0,-58.94292 0,-58.94292l11.74843,1.01121z" data-paper-data="{&quot;origPos&quot;:null}" fill="#88143c"/><path d="M110.68231,61.16229c-3.91732,-0.15506 -7.8084,-0.38249 -11.61464,-0.64938l-0.13379,-65.21202h11.74843z" data-paper-data="{&quot;origPos&quot;:null}" fill="#88143c"/><path d="M63.13457,7.36109v-12.46863h35.7453v12.46863z" data-paper-data="{&quot;origPos&quot;:null}" fill="#830e37"/><path d="M51.13456,7.61389v-12.71984h12.00157v12.71984z" data-paper-data="{&quot;origPos&quot;:null}" fill="#7a1039"/><path d="M98.73366,7.35949v-12.21105h11.7547v12.21105z" data-paper-data="{&quot;origPos&quot;:null}" fill="#7a1039"/></g><g data-paper-data="{&quot;origPos&quot;:null}"><path d="M80.65724,-12.97178c-34.66431,0 -62.76528,-28.10097 -62.76528,-62.76528c0,-34.6643 28.10097,-62.76528 62.76528,-62.76528c34.6643,0 62.76528,28.10098 62.76528,62.76528c0,34.66431 -28.10098,62.76528 -62.76528,62.76528z" data-paper-data="{&quot;origPos&quot;:null}" fill="url(#color-1)" stroke="none" stroke-width="0" stroke-linecap="butt"/><path d="M135.96283,-103.23382h-109.90225" data-paper-data="{&quot;origPos&quot;:null}" fill="none" stroke="#ffde3d" stroke-width="28" stroke-linecap="round"/><path d="M26.38225,-27.38015h109.90225" data-paper-data="{&quot;origPos&quot;:null}" fill="none" stroke="#fd7323" stroke-width="47" stroke-linecap="round"/><path d="M62.76474,-93.88512v11.59518" data-paper-data="{&quot;origPos&quot;:null}" fill="none" stroke="#ffde3d" stroke-width="9" stroke-linecap="round"/><path d="M39.4096,-12.60826v17.64485" data-paper-data="{&quot;origPos&quot;:null}" fill="none" stroke="#fd7323" stroke-width="9" stroke-linecap="round"/><path d="M125.47258,-7.17504c0.07076,0.457 0.11965,0.92178 0.14552,1.39327c0.42396,7.72771 -5.49689,14.33594 -13.2246,14.7599c-7.72771,0.42396 -14.33594,-5.49689 -14.7599,-13.2246c-0.05427,-0.98896 -0.0046,-1.95958 0.13945,-2.90125" data-paper-data="{&quot;origPos&quot;:null,&quot;origRot&quot;:0}" fill="none" stroke="#fd7323" stroke-width="9" stroke-linecap="butt"/></g></g><path d="M68.30239,64.24181v-40.01243" data-paper-data="{&quot;origPos&quot;:null}" fill="none" stroke="#ac2841" stroke-width="10" stroke-linecap="round"/></g><path d="M93.92039,29.16905v-10.02648" data-paper-data="{&quot;origPos&quot;:null}" fill="none" stroke="#ac2841" stroke-width="10" stroke-linecap="round"/></g><path d="M-100.54978,332.99102l0.22865,-283.23808l353.56957,0.44771l63.90222,46.80332l-0.56758,254.30696z" data-paper-data="{&quot;index&quot;:null}" fill="#4000af" stroke="none" stroke-width="0" stroke-linecap="butt"/><path d="M254.1287,50.98417l-0.78521,27.63123l-355.67783,0.16667v-27.95262z" data-paper-data="{&quot;index&quot;:null}" fill="#4926f1" stroke="none" stroke-width="0" stroke-linecap="butt"/><path d="M-120.12073,375.2232v-535.03373h758.68243v535.03373z" fill="none" stroke="none" stroke-width="NaN" stroke-linecap="butt"/><g><path d="M436.74154,340.09196l0.22865,-283.23808l70.24526,-17.4727l99.11285,17.16771l-1.00839,285.26349z" data-paper-data="{&quot;index&quot;:null}" fill="#4000af" stroke="none" stroke-width="0" stroke-linecap="butt"/><path d="M482.7476,26.71614l37.14239,2.26023l-83.07841,68.96913l-0.06521,-40.11308z" data-paper-data="{&quot;index&quot;:null}" fill="#4926f1" stroke="none" stroke-width="0" stroke-linecap="butt"/><path d="M562.80034,27.60403l-13.00863,28.5617h-49.04887c0,0 -6.26726,-0.22796 -11.16667,1.33333c-4.89941,1.56129 -9.70203,5.16667 -9.70203,5.16667l2.59358,-35.33452z" data-paper-data="{&quot;index&quot;:null}" fill="#4926f1" stroke="none" stroke-width="0" stroke-linecap="butt"/><path d="M606.13145,97.47353l-43.4284,-34.59466c0,0 -4.89737,-4.27903 -9.1728,-5.76702c-4.27543,-1.488 -12.48274,-1.60317 -12.48274,-1.60317l23.44525,-30.41193l42.13331,32.72521z" data-paper-data="{&quot;index&quot;:null}" fill="#4926f1" stroke="none" stroke-width="0" stroke-linecap="butt"/><path d="M440.4057,56.36721l37.44079,-29.86485l86.92192,0.48633l38.37583,30.0806" data-paper-data="{&quot;index&quot;:null}" fill="none" stroke="#3eb5fa" stroke-width="7" stroke-linecap="round"/><path d="M538.43456,43.17655c0,0 13.25885,-0.14968 18.62064,1.80944c4.95213,1.80944 15.28408,9.04721 15.28408,9.04721" fill="none" stroke="#502bff" stroke-width="25" stroke-linecap="round"/><path d="M525.57716,42.85512l33.56338,0.33358l16.25233,13.57669" fill="none" stroke="#502bff" stroke-width="25" stroke-linecap="round"/><path d="M528.59239,105.30196h-44.39705" data-paper-data="{&quot;index&quot;:null}" fill="none" stroke="#3d00a3" stroke-width="30" stroke-linecap="round"/></g><path d="M316.80917,135.68724l-68.01874,-49.99414c0,0 -4.89737,-4.27903 -9.1728,-5.76702c-4.27543,-1.488 -12.48274,-1.60317 -12.48274,-1.60317l14.84525,-30.81193l75.32365,49.12469z" data-paper-data="{&quot;index&quot;:null}" fill="#4926f1" stroke="none" stroke-width="0" stroke-linecap="butt"/><path d="M188.15664,66.02355h33" fill="none" stroke="#502bff" stroke-width="25" stroke-linecap="round"/><path d="M-101.37278,49.40358l348.86641,-0.16411l66.40686,46.69532" data-paper-data="{&quot;index&quot;:null}" fill="none" stroke="#3eb5fa" stroke-width="7" stroke-linecap="round"/><path d="M149.37228,137.4878h44.39705" data-paper-data="{&quot;index&quot;:null}" fill="none" stroke="#3d00a3" stroke-width="30" stroke-linecap="round"/><path d="M94.33688,166.6223h73.84838" data-paper-data="{&quot;index&quot;:null}" fill="none" stroke="#3d00a3" stroke-width="30" stroke-linecap="round"/><path d="M97.07884,89.87478l-31.30992,-0.19177" fill="none" stroke="#4a00ca" stroke-width="22.5" stroke-linecap="round"/><path d="M70.44031,70.73494h-29.53835" data-paper-data="{&quot;index&quot;:null}" fill="none" stroke="#4b2af5" stroke-width="15" stroke-linecap="round"/></g></g></svg>