<svg version="1.1" xmlns="http://www.w3.org/2000/svg" xmlns:xlink="http://www.w3.org/1999/xlink" width="775.3587" height="539.29852" viewBox="0,0,775.3587,539.29852"><defs><linearGradient x1="565.4728" y1="125.92895" x2="565.4728" y2="138.71292" gradientUnits="userSpaceOnUse" id="color-1"><stop offset="0" stop-color="#4418c4"/><stop offset="1" stop-color="#4418c4" stop-opacity="0"/></linearGradient><linearGradient x1="359.38425" y1="170.22086" x2="359.38425" y2="183.00484" gradientUnits="userSpaceOnUse" id="color-2"><stop offset="0" stop-color="#4418c4"/><stop offset="1" stop-color="#4418c4" stop-opacity="0"/></linearGradient><linearGradient x1="473.8844" y1="38.61065" x2="473.8844" y2="136.93347" gradientUnits="userSpaceOnUse" id="color-3"><stop offset="0" stop-color="#ef1f9c"/><stop offset="1" stop-color="#ed358e"/></linearGradient><linearGradient x1="418.10711" y1="143.72212" x2="418.10711" y2="190.92391" gradientUnits="userSpaceOnUse" id="color-4"><stop offset="0" stop-color="#ec1f99"/><stop offset="1" stop-color="#ed358e"/></linearGradient><linearGradient x1="514.37806" y1="199.58284" x2="514.37806" y2="228.64996" gradientUnits="userSpaceOnUse" id="color-5"><stop offset="0" stop-color="#fffc45"/><stop offset="1" stop-color="#ffe134"/></linearGradient><linearGradient x1="552.86869" y1="199.5081" x2="552.86869" y2="228.57525" gradientUnits="userSpaceOnUse" id="color-6"><stop offset="0" stop-color="#fffc45"/><stop offset="1" stop-color="#ffe134"/></linearGradient><linearGradient x1="590.43" y1="199.43335" x2="590.43" y2="228.5005" gradientUnits="userSpaceOnUse" id="color-7"><stop offset="0" stop-color="#fffc45"/><stop offset="1" stop-color="#ffe134"/></linearGradient><linearGradient x1="561.87846" y1="204.45506" x2="561.87846" y2="235.99648" gradientUnits="userSpaceOnUse" id="color-8"><stop offset="0" stop-color="#fff642"/><stop offset="1" stop-color="#ffe335"/></linearGradient><linearGradient x1="492.68823" y1="211.3999" x2="492.68823" y2="242.42636" gradientUnits="userSpaceOnUse" id="color-9"><stop offset="0" stop-color="#fef23f"/><stop offset="1" stop-color="#ffe537"/></linearGradient><linearGradient x1="609.90462" y1="210.69964" x2="609.90462" y2="242.41141" gradientUnits="userSpaceOnUse" id="color-10"><stop offset="0" stop-color="#fef23f"/><stop offset="1" stop-color="#ffe537"/></linearGradient><linearGradient x1="472.8022" y1="80.03199" x2="472.8022" y2="109.09913" gradientUnits="userSpaceOnUse" id="color-11"><stop offset="0" stop-color="#fffc45"/><stop offset="1" stop-color="#ffe134"/></linearGradient><linearGradient x1="512.38092" y1="79.95726" x2="512.38092" y2="109.02441" gradientUnits="userSpaceOnUse" id="color-12"><stop offset="0" stop-color="#fffc45"/><stop offset="1" stop-color="#ffe134"/></linearGradient><linearGradient x1="551.00403" y1="79.88253" x2="551.00403" y2="108.94968" gradientUnits="userSpaceOnUse" id="color-13"><stop offset="0" stop-color="#fffc45"/><stop offset="1" stop-color="#ffe134"/></linearGradient><linearGradient x1="521.64537" y1="84.90422" x2="521.64537" y2="116.44565" gradientUnits="userSpaceOnUse" id="color-14"><stop offset="0" stop-color="#fff642"/><stop offset="1" stop-color="#ffe335"/></linearGradient><linearGradient x1="450.49922" y1="91.84906" x2="450.49922" y2="122.87553" gradientUnits="userSpaceOnUse" id="color-15"><stop offset="0" stop-color="#fef23f"/><stop offset="1" stop-color="#ffe537"/></linearGradient><linearGradient x1="571.02917" y1="91.14881" x2="571.02917" y2="122.86059" gradientUnits="userSpaceOnUse" id="color-16"><stop offset="0" stop-color="#fef23f"/><stop offset="1" stop-color="#ffe537"/></linearGradient><linearGradient x1="365.80679" y1="117.95352" x2="365.80679" y2="148.36353" gradientUnits="userSpaceOnUse" id="color-17"><stop offset="0" stop-color="#fffc45"/><stop offset="1" stop-color="#ffe134"/></linearGradient><linearGradient x1="407.21403" y1="117.87535" x2="407.21403" y2="148.28536" gradientUnits="userSpaceOnUse" id="color-18"><stop offset="0" stop-color="#fffc45"/><stop offset="1" stop-color="#ffe134"/></linearGradient><linearGradient x1="448.62118" y1="117.79715" x2="448.62118" y2="148.20716" gradientUnits="userSpaceOnUse" id="color-19"><stop offset="0" stop-color="#fffc45"/><stop offset="1" stop-color="#ffe134"/></linearGradient><linearGradient x1="489.0286" y1="117.719" x2="489.0286" y2="148.129" gradientUnits="userSpaceOnUse" id="color-20"><stop offset="0" stop-color="#fffc45"/><stop offset="1" stop-color="#ffe134"/></linearGradient><linearGradient x1="418.96837" y1="123.80633" x2="418.96837" y2="157.57705" gradientUnits="userSpaceOnUse" id="color-21"><stop offset="0" stop-color="#fff642"/><stop offset="1" stop-color="#ffe335"/></linearGradient><linearGradient x1="341.51491" y1="129.42102" x2="341.51491" y2="161.23504" gradientUnits="userSpaceOnUse" id="color-22"><stop offset="0" stop-color="#fef23f"/><stop offset="1" stop-color="#ffe537"/></linearGradient><linearGradient x1="511.62774" y1="128.55252" x2="511.62774" y2="162.16823" gradientUnits="userSpaceOnUse" id="color-23"><stop offset="0" stop-color="#fef23f"/><stop offset="1" stop-color="#ffe537"/></linearGradient><linearGradient x1="449.94159" y1="234.81988" x2="449.94159" y2="263.88701" gradientUnits="userSpaceOnUse" id="color-24"><stop offset="0" stop-color="#fffc45"/><stop offset="1" stop-color="#ffe134"/></linearGradient><linearGradient x1="488.43224" y1="234.74512" x2="488.43224" y2="263.81228" gradientUnits="userSpaceOnUse" id="color-25"><stop offset="0" stop-color="#fffc45"/><stop offset="1" stop-color="#ffe134"/></linearGradient><linearGradient x1="471.91243" y1="239.6921" x2="471.91243" y2="274.60236" gradientUnits="userSpaceOnUse" id="color-26"><stop offset="0" stop-color="#fff642"/><stop offset="1" stop-color="#ffe335"/></linearGradient><linearGradient x1="428.25177" y1="246.63694" x2="428.25177" y2="277.66342" gradientUnits="userSpaceOnUse" id="color-27"><stop offset="0" stop-color="#fef23f"/><stop offset="1" stop-color="#ffe537"/></linearGradient><linearGradient x1="514.15058" y1="245.93667" x2="514.15058" y2="277.64847" gradientUnits="userSpaceOnUse" id="color-28"><stop offset="0" stop-color="#fef23f"/><stop offset="1" stop-color="#ffe537"/></linearGradient><linearGradient x1="341.76563" y1="274.13838" x2="341.76563" y2="304.54837" gradientUnits="userSpaceOnUse" id="color-29"><stop offset="0" stop-color="#fffc45"/><stop offset="1" stop-color="#ffe134"/></linearGradient><linearGradient x1="383.17287" y1="274.06021" x2="383.17287" y2="304.4702" gradientUnits="userSpaceOnUse" id="color-30"><stop offset="0" stop-color="#fffc45"/><stop offset="1" stop-color="#ffe134"/></linearGradient><linearGradient x1="424.58002" y1="273.98201" x2="424.58002" y2="304.39203" gradientUnits="userSpaceOnUse" id="color-31"><stop offset="0" stop-color="#fffc45"/><stop offset="1" stop-color="#ffe134"/></linearGradient><linearGradient x1="464.98744" y1="273.90385" x2="464.98744" y2="304.31386" gradientUnits="userSpaceOnUse" id="color-32"><stop offset="0" stop-color="#fffc45"/><stop offset="1" stop-color="#ffe134"/></linearGradient><linearGradient x1="394.92721" y1="279.99118" x2="394.92721" y2="313.76189" gradientUnits="userSpaceOnUse" id="color-33"><stop offset="0" stop-color="#fff642"/><stop offset="1" stop-color="#ffe335"/></linearGradient><linearGradient x1="317.47375" y1="285.60587" x2="317.47375" y2="317.4199" gradientUnits="userSpaceOnUse" id="color-34"><stop offset="0" stop-color="#fef23f"/><stop offset="1" stop-color="#ffe537"/></linearGradient><linearGradient x1="487.58658" y1="284.73738" x2="487.58658" y2="318.35308" gradientUnits="userSpaceOnUse" id="color-35"><stop offset="0" stop-color="#fef23f"/><stop offset="1" stop-color="#ffe537"/></linearGradient></defs><g transform="translate(134.06759,93.45048)"><g data-paper-data="{&quot;isPaintingLayer&quot;:true}" stroke-miterlimit="10" stroke-dasharray="" stroke-dashoffset="0" style="mix-blend-mode: normal"><path d="M-90.40772,444.55694l-2.26656,-456.98243h731.69883l2.26656,456.98243z" fill="none" fill-rule="nonzero" stroke="none" stroke-width="0" stroke-linecap="butt" stroke-linejoin="miter"/><path d="M-134.06759,445.84805v-539.29852h239.71865v539.29852z" fill="#4000af" fill-rule="nonzero" stroke="none" stroke-width="0" stroke-linecap="butt" stroke-linejoin="miter"/><g data-paper-data="{&quot;index&quot;:null}" fill-rule="nonzero" stroke-linejoin="miter"><g><path d="M564.00777,183.72697v6.94829" fill="none" stroke="#dce984" stroke-width="5.5" stroke-linecap="round"/><path d="M568.32661,190.67524v-6.94829" fill="none" stroke="#dce984" stroke-width="5.5" stroke-linecap="round"/><path d="M565.43441,133.12391v-7.19257v15.76099" fill="none" stroke="#a91645" stroke-width="5.5" stroke-linecap="round"/><path d="M571.85474,143.68979h-11.72526" fill="none" stroke="#c5007f" stroke-width="6.5" stroke-linecap="round"/><path d="M572.15536,182.26501h-12.22634" fill="none" stroke="#c5007f" stroke-width="6.5" stroke-linecap="round"/><path d="M556.65413,182.58566v-3.34052h18.74402v3.34052z" fill="#c5007f" stroke="none" stroke-width="0" stroke-linecap="butt"/><path d="M558.26389,149.17586v26.12326" fill="none" stroke="#ff428a" stroke-width="10" stroke-linecap="round"/><path d="M573.52609,149.21364v26.12325" fill="none" stroke="#ff428a" stroke-width="10" stroke-linecap="round"/><path d="M573.44343,149.08434h-14.73997" fill="none" stroke="#ff428a" stroke-width="10" stroke-linecap="round"/><path d="M558.58257,175.49266h14.73995" fill="none" stroke="#ff428a" stroke-width="10" stroke-linecap="round"/><path d="M565.22229,169.68809v-15.9213" fill="none" stroke="#ff428a" stroke-width="10" stroke-linecap="round"/><path d="M560.14589,162.48029c0,0 3.10184,0 4.88782,0c2.1661,0 7.18984,0 7.18984,0" fill="none" stroke="#e1ffb8" stroke-width="6" stroke-linecap="round"/><path d="M566.10078,168.44825v-11.75195" fill="none" stroke="#e1ffb8" stroke-width="6" stroke-linecap="round"/><path d="M564.22479,190.97415h3.79986" fill="none" stroke="#dce984" stroke-width="5.5" stroke-linecap="round"/></g><path d="M562.72163,138.71292v-12.78397h5.50233v12.78397z" fill="url(#color-1)" stroke="none" stroke-width="0" stroke-linecap="butt"/><path d="M562.69635,126.01072v-6.55178h5.55259v6.55178z" fill="#4418c4" stroke="none" stroke-width="0" stroke-linecap="butt"/></g><g data-paper-data="{&quot;index&quot;:null}" fill-rule="nonzero" stroke-linejoin="miter"><g><path d="M357.91922,228.01885v6.9483" fill="none" stroke="#dce984" stroke-width="5.5" stroke-linecap="round"/><path d="M362.23807,228.01885v6.9483" fill="none" stroke="#dce984" stroke-width="5.5" stroke-linecap="round"/><path d="M359.34586,177.41583v-7.19257v15.76099" fill="none" stroke="#a91645" stroke-width="5.5" stroke-linecap="round"/><path d="M354.04093,187.98169h11.72526" fill="none" stroke="#c5007f" stroke-width="6.5" stroke-linecap="round"/><path d="M353.84048,226.55691h12.22634" fill="none" stroke="#c5007f" stroke-width="6.5" stroke-linecap="round"/><path d="M350.56559,226.87756v-3.34053h18.74402v3.34053z" fill="#c5007f" stroke="none" stroke-width="0" stroke-linecap="butt"/><path d="M352.17535,219.59103v-26.12326" fill="none" stroke="#ff428a" stroke-width="10" stroke-linecap="round"/><path d="M367.43754,193.50553v26.12326" fill="none" stroke="#ff428a" stroke-width="10" stroke-linecap="round"/><path d="M352.61491,193.37627h14.73997" fill="none" stroke="#ff428a" stroke-width="10" stroke-linecap="round"/><path d="M367.23398,219.78454h-14.73995" fill="none" stroke="#ff428a" stroke-width="10" stroke-linecap="round"/><path d="M359.13374,198.0587v15.92131" fill="none" stroke="#ff428a" stroke-width="10" stroke-linecap="round"/><path d="M366.13499,206.77222c0,0 -5.02374,0 -7.18984,0c-1.78597,0 -4.88781,0 -4.88781,0" fill="none" stroke="#e1ffb8" stroke-width="6" stroke-linecap="round"/><path d="M360.01223,212.74015v-11.75195" fill="none" stroke="#e1ffb8" stroke-width="6" stroke-linecap="round"/><path d="M358.13625,235.26605h3.79986" fill="none" stroke="#dce984" stroke-width="5.5" stroke-linecap="round"/></g><path d="M356.63309,183.00484v-12.78397h5.50233v12.78397z" fill="url(#color-2)" stroke="none" stroke-width="0" stroke-linecap="butt"/><path d="M356.6078,170.30261v-6.55178h5.55258v6.55178z" fill="#4418c4" stroke="none" stroke-width="0" stroke-linecap="butt"/></g><g data-paper-data="{&quot;index&quot;:null}" fill-rule="nonzero" stroke-linejoin="miter"><g data-paper-data="{&quot;origPos&quot;:null}"><path d="M420.07956,215.46914c0,0 -3.07937,-0.31569 -4.33457,-1.62987c-1.25521,-1.31419 -1.29203,-4.26113 -1.29203,-4.26113l-0.48402,-24.20085l11.27137,1.77369l0.03916,14.21435c0,0 0.20347,1.16383 0.74907,1.7014c0.54561,0.53758 1.73477,0.74589 1.73477,0.74589h17.68483v11.8959z" data-paper-data="{&quot;origPos&quot;:null,&quot;index&quot;:null}" fill="#910049" stroke="none" stroke-width="0" stroke-linecap="butt"/><path d="M488.63966,173.28065v-11.07516h18.40141c0,0 1.18915,-0.2083 1.73476,-0.74588c0.5456,-0.53758 0.74908,-1.70141 0.74908,-1.70141l0.03916,-14.21435l10.9663,-1.77369l-0.04059,23.3459c0,0 -0.03683,2.94694 -1.29203,4.26113c-1.2552,1.31419 -4.33458,1.62988 -4.33458,1.62988z" data-paper-data="{&quot;origPos&quot;:null}" fill="#910049" stroke="none" stroke-width="0" stroke-linecap="butt"/><g data-paper-data="{&quot;origPos&quot;:null}"><path d="M441.45489,242.6536v-106.62256h51.09097v106.62257z" data-paper-data="{&quot;origPos&quot;:null}" fill="#910044" stroke="none" stroke-width="0" stroke-linecap="butt"/><path d="M482.74773,242.14911l-0.21513,-104.8602l10.17354,-0.87565c0,0 0,31.46365 0,51.04152c0,21.34516 0,54.69434 0,54.69434z" data-paper-data="{&quot;origPos&quot;:null}" fill="#a30052" stroke="none" stroke-width="0" stroke-linecap="butt"/><path d="M441.18218,241.26793v-104.8602h10.17354l-0.21513,104.8602z" data-paper-data="{&quot;origPos&quot;:null}" fill="#a30052" stroke="none" stroke-width="0" stroke-linecap="butt"/><path d="M451.40248,146.85123v-10.79719h30.95359v10.79719z" data-paper-data="{&quot;origPos&quot;:null}" fill="#85003e" stroke="none" stroke-width="0" stroke-linecap="butt"/><path d="M482.35472,147.07015v-11.01473h10.39275v11.01473z" data-paper-data="{&quot;origPos&quot;:null}" fill="#780041" stroke="none" stroke-width="0" stroke-linecap="butt"/><path d="M441.35013,146.84984v-10.57414h10.17896v10.57414z" data-paper-data="{&quot;origPos&quot;:null}" fill="#780041" stroke="none" stroke-width="0" stroke-linecap="butt"/><path d="M509.63346,146.62955l-0.21513,-11.01472h11.01823l0.21513,11.01472z" data-paper-data="{&quot;origPos&quot;:null}" fill="#780041" stroke="none" stroke-width="0" stroke-linecap="butt"/><path d="M455.83752,190.30841v-30.91639" data-paper-data="{&quot;origPos&quot;:null}" fill="none" stroke="#b30064" stroke-width="10" stroke-linecap="round"/><path d="M478.0433,235.10384v-27.71726" data-paper-data="{&quot;origPos&quot;:null}" fill="none" stroke="#b3005d" stroke-width="10" stroke-linecap="round"/><path d="M477.50814,171.22639v6.285" data-paper-data="{&quot;origPos&quot;:null}" fill="none" stroke="#a8005e" stroke-width="10" stroke-linecap="round"/></g><path d="M414.29319,199.60451v-11.01474h10.80383v11.01474z" data-paper-data="{&quot;origPos&quot;:null}" fill="#780041" stroke="none" stroke-width="0" stroke-linecap="butt"/></g><g data-paper-data="{&quot;origPos&quot;:null}" stroke="none" stroke-width="0" stroke-linecap="butt"><path d="M400.60206,120.25975v-55.58891c0,0 0.72398,-11.68023 7.3816,-18.67858c6.46483,-6.79567 18.17383,-6.99309 18.17383,-6.99309l95.57227,-0.38851c0,0 11.69356,0.41679 18.56233,8.15861c5.39818,6.0843 6.34876,15.98682 6.34876,15.98682l0.52589,60.56534l-18.39037,13.61205l-113.51377,-0.32002z" data-paper-data="{&quot;origPos&quot;:null}" fill="url(#color-3)"/><path d="M432.14759,61.05185c0,-3.6476 2.95697,-6.60458 6.60459,-6.60458c3.64762,0 6.60459,2.95697 6.60459,6.60458c0,3.64762 -2.95698,6.6046 -6.60458,6.6046c-3.64762,0 -6.60458,-2.95697 -6.60458,-6.6046z" data-paper-data="{&quot;origPos&quot;:null}" fill="#fc26ae"/><path d="M506.74059,68.23919c0,-2.25294 1.82636,-4.0793 4.07931,-4.0793c2.25293,0 4.0793,1.82636 4.0793,4.0793c0,2.25294 -1.82636,4.07931 -4.0793,4.07931c-2.25293,0 -4.07931,-1.82637 -4.07931,-4.07931z" data-paper-data="{&quot;origPos&quot;:null}" fill="#fc26ae"/><path d="M428.65105,99.15162c0,-4.50588 3.65274,-8.15861 8.15859,-8.15861c4.50588,0 8.15862,3.65273 8.15862,8.15861c0,4.50587 -3.65274,8.1586 -8.15862,8.1586c-4.50588,0 -8.15859,-3.65273 -8.15859,-8.1586z" data-paper-data="{&quot;origPos&quot;:null}" fill="#f916a6"/><path d="M468.27857,93.90679c0,-3.54033 2.87001,-6.41034 6.41034,-6.41034c3.54033,0 6.41033,2.87001 6.41033,6.41034c0,3.54033 -2.87,6.41034 -6.41033,6.41034c-3.54033,0 -6.41034,-2.87001 -6.41034,-6.41034z" data-paper-data="{&quot;origPos&quot;:null}" fill="#f725aa"/><path d="M507.11883,114.15235c0,-2.78934 2.26122,-5.05058 5.05058,-5.05058c2.78934,0 5.05056,2.26122 5.05056,5.05058c0,2.78936 -2.26122,5.05056 -5.05056,5.05056c-2.78934,0 -5.05058,-2.26122 -5.05058,-5.05056z" data-paper-data="{&quot;origPos&quot;:null}" fill="#eb0597"/><path d="M397.63506,121.24596c0,-3.54032 2.87001,-6.41034 6.41034,-6.41034c3.54033,0 6.41034,2.87002 6.41034,6.41034c0,3.54032 -2.87,6.41034 -6.41034,6.41034c-3.54033,0 -6.41034,-2.87 -6.41034,-6.41034z" data-paper-data="{&quot;origPos&quot;:null}" fill="#f0059a"/><path d="M404.68433,131.40328c0,-4.3986 3.56576,-7.96435 7.96436,-7.96435c4.39859,0 7.96436,3.56575 7.96436,7.96435c0,4.39859 -3.56577,7.96435 -7.96436,7.96435c-4.39859,0 -7.96436,-3.56575 -7.96436,-7.96435z" data-paper-data="{&quot;origPos&quot;:null}" fill="#e60593"/><path d="M445.86589,134.12281c0,-3.54032 2.87,-6.41033 6.41034,-6.41033c3.54033,0 6.41033,2.87001 6.41033,6.41033c0,3.54032 -2.87001,6.41033 -6.41033,6.41033c-3.54033,0 -6.41034,-2.87001 -6.41034,-6.41033z" data-paper-data="{&quot;origPos&quot;:null}" fill="#e60593"/><path d="M457.40041,132.17457c0,-5.36414 4.3485,-9.71263 9.71264,-9.71263c5.36414,0 9.71263,4.34849 9.71263,9.71263c0,5.36414 -4.34849,9.71263 -9.71263,9.71263c-5.36414,0 -9.71264,-4.34848 -9.71264,-9.71263z" data-paper-data="{&quot;origPos&quot;:null}" fill="#e60593"/><path d="M520.61887,133.29482c0,-3.7549 3.04394,-6.79884 6.79885,-6.79884c3.7549,0 6.79884,3.04395 6.79884,6.79885c0,3.75489 -3.04395,6.79884 -6.79884,6.79884c-3.7549,0 -6.79885,-3.04394 -6.79885,-6.79884z" data-paper-data="{&quot;origPos&quot;:null}" fill="#e81786"/><path d="M538.80261,112.4135c0,-3.34332 2.71029,-6.0536 6.0536,-6.0536c3.34331,0 6.05361,2.71029 6.05361,6.0536c0,3.34332 -2.7103,6.05361 -6.05361,6.05361c-3.34331,0 -6.0536,-2.71029 -6.0536,-6.05361z" data-paper-data="{&quot;origPos&quot;:null}" fill="#f0059a"/><path d="M531.44028,125.28679c0,-4.98964 4.04489,-9.03454 9.03453,-9.03454c4.98963,0 9.03453,4.0449 9.03453,9.03454c0,4.98964 -4.04489,9.03454 -9.03453,9.03454c-4.98963,0 -9.03453,-4.0449 -9.03453,-9.03454z" data-paper-data="{&quot;origPos&quot;:null}" fill="#e81786"/></g><g data-paper-data="{&quot;origPos&quot;:null}" stroke="none" stroke-width="0" stroke-linecap="butt"><path d="M382.81825,188.11504l0.21649,-31.88221c0,0 0.34755,-5.60733 3.54367,-8.96702c3.10356,-3.26239 8.72471,-3.35717 8.72471,-3.35717l45.88132,-0.18651c0,0 5.61372,0.20009 8.91121,3.91671c2.5915,2.92088 3.04785,7.67477 3.04785,7.67477l0.25246,29.07556l-9.26163,6.53474l-54.0615,-0.15363z" data-paper-data="{&quot;origPos&quot;:null}" fill="url(#color-4)"/><path d="M399.89238,157.70207c0,-3.04884 2.47157,-5.52043 5.52042,-5.52043c3.04885,0 5.52042,2.47159 5.52042,5.52043c0,3.04884 -2.47158,5.52041 -5.52042,5.52041c-3.04885,0 -5.52042,-2.47157 -5.52042,-5.52041z" data-paper-data="{&quot;origPos&quot;:null}" fill="#fc26ae"/><path d="M382.78989,188.71911c0,-3.28797 2.66542,-5.95341 5.9534,-5.95341c3.28798,0 5.9534,2.66543 5.9534,5.95341c0,3.28797 -2.66542,5.9534 -5.95339,5.9534c-3.28797,0 -5.95339,-2.66542 -5.95339,-5.95339z" data-paper-data="{&quot;origPos&quot;:null}" fill="#ed358e"/><path d="M431.28302,152.61461c0,-2.03256 1.64772,-3.68028 3.68028,-3.68028c2.03256,0 3.68028,1.64772 3.68028,3.68028c0,2.03256 -1.64771,3.68027 -3.68028,3.68027c-2.03256,0 -3.68028,-1.64772 -3.68028,-3.68027z" fill="#fc26ae"/><path d="M378.89311,177.94364c0,-3.22818 2.61696,-5.84516 5.84516,-5.84516c3.22819,0 5.84516,2.61696 5.84516,5.84516c0,3.22818 -2.61696,5.84514 -5.84515,5.84514c-3.22818,0 -5.84516,-2.61696 -5.84516,-5.84514z" data-paper-data="{&quot;origPos&quot;:null}" fill="#f511a1"/><path d="M406.64275,187.82634c0,-4.18469 3.39237,-7.57705 7.57705,-7.57705c4.18468,0 7.57705,3.39237 7.57705,7.57705c0,4.18469 -3.39236,7.57704 -7.57705,7.57704c-4.18468,0 -7.57705,-3.39235 -7.57705,-7.57704z" data-paper-data="{&quot;origPos&quot;:null}" fill="#e60593"/><path d="M434.74681,188.93557c0,-3.28797 2.66542,-5.95339 5.9534,-5.95339c3.28798,0 5.9534,2.66542 5.9534,5.9534c0,3.28797 -2.66543,5.9534 -5.95339,5.9534c-3.28798,0 -5.95339,-2.66542 -5.95339,-5.95339z" data-paper-data="{&quot;origPos&quot;:null}" fill="#e60593"/><path d="M439.5488,181.33172c0,-4.18469 3.39236,-7.57705 7.57705,-7.57705c4.18469,0 7.57705,3.39235 7.57705,7.57705c0,4.18469 -3.39237,7.57705 -7.57705,7.57705c-4.18469,0 -7.57705,-3.39237 -7.57705,-7.57705z" data-paper-data="{&quot;origPos&quot;:null}" fill="#f0059a"/></g></g><g data-paper-data="{&quot;index&quot;:null}" fill-rule="nonzero" stroke-linejoin="miter"><g data-paper-data="{&quot;origPos&quot;:null}" stroke="none" stroke-linecap="butt"><path d="M539.4711,221.75954c0,12.24786 -28.34585,4.43534 -28.34585,4.43534c0,0 -21.84025,7.81252 -21.84025,-4.43534c0,-12.24786 11.23454,-22.1767 25.09306,-22.1767c13.8585,0 25.09306,9.92884 25.09306,22.1767z" data-paper-data="{&quot;origPos&quot;:null}" fill="url(#color-5)" stroke-width="NaN"/><path d="M577.96174,221.68479c0,12.24786 -28.34585,4.43534 -28.34585,4.43534c0,0 -21.84026,7.81253 -21.84026,-4.43534c0,-12.24786 11.23454,-22.17671 25.09306,-22.17671c13.85851,0 25.09306,9.92885 25.09306,22.17671z" data-paper-data="{&quot;origPos&quot;:null}" fill="url(#color-6)" stroke-width="NaN"/><path d="M615.52304,221.61008c0,12.24786 -28.34585,4.43534 -28.34585,4.43534c0,0 -21.84026,7.81253 -21.84026,-4.43534c0,-12.24786 11.23455,-22.17671 25.09307,-22.17671c13.85851,0 25.09306,9.92885 25.09306,22.17671z" data-paper-data="{&quot;origPos&quot;:null}" fill="url(#color-7)" stroke-width="NaN"/><path d="M505.55204,235.19937v-30.74431l97.74748,1.66667l14.90535,29.87477z" data-paper-data="{&quot;origPos&quot;:null}" fill="url(#color-8)" stroke-width="0"/><path d="M508.95224,226.48006c0,8.32855 -8.83586,15.94632 -17.81824,15.94632c-8.98237,0 -14.70979,-7.61778 -14.70979,-15.94632c0,-8.32855 7.28165,-15.08016 16.26402,-15.08016c8.98237,0 16.26402,6.75161 16.26402,15.08016z" data-paper-data="{&quot;origPos&quot;:null}" fill="url(#color-9)" stroke-width="0"/><path d="M626.16864,225.77979c0,8.32855 -4.93284,16.63162 -13.91521,16.63162c-8.98237,0 -18.61284,-8.30307 -18.61284,-16.63162c0,-5.66446 1.98316,-9.10116 6.87163,-12.31285c3.20847,-2.10796 5.49731,-2.76731 9.39239,-2.76731c8.98237,0 16.26402,6.75162 16.26402,15.08016z" data-paper-data="{&quot;origPos&quot;:null}" fill="url(#color-10)" stroke-width="0"/></g><path d="M489.58611,239.31145h127.60227" data-paper-data="{&quot;origPos&quot;:null}" fill="#ffc3d5" stroke="#ffd426" stroke-width="9" stroke-linecap="round"/><path d="M553.65983,235.01026c4.71377,2.53063 -12.19673,3.31201 -20.4076,3.31201c-8.21088,0 -15.45178,5.59214 -15.45178,-0.28571c0,-0.3259 -7.06176,-3.09679 -6.75222,-3.23435c3.13432,-1.39289 5.94787,-1.54472 8.17872,-2.82298c4.90902,-2.81281 8.34963,-2.71514 13.4406,-2.71514c0,0 5.29793,-0.65893 10.13385,2.34864c3.59562,1.91012 5.44326,1.76923 10.85844,3.39753z" data-paper-data="{&quot;origPos&quot;:null}" fill="#ffd426" stroke="none" stroke-width="0" stroke-linecap="butt"/><path d="M593.63549,234.79881c4.71377,2.53063 -12.19674,3.31201 -20.40762,3.31201c-8.21088,0 -15.45178,5.59214 -15.45178,-0.28571c0,-0.3259 -7.06176,-3.09679 -6.75222,-3.23435c3.13432,-1.39289 5.94788,-1.54472 8.17873,-2.82298c4.90902,-2.81281 8.34963,-2.71514 13.4406,-2.71514c0,0 5.29793,-0.65893 10.13386,2.34864c3.59562,1.91012 5.44326,1.76923 10.85843,3.39753z" data-paper-data="{&quot;origPos&quot;:null}" fill="#ffd426" stroke="none" stroke-width="0" stroke-linecap="butt"/></g><g data-paper-data="{&quot;index&quot;:null}" fill-rule="nonzero" stroke-linejoin="miter"><g data-paper-data="{&quot;origPos&quot;:null}" stroke="none" stroke-linecap="butt"><path d="M498.6046,102.2087c0,12.24786 -29.14716,4.43534 -29.14716,4.43534c0,0 -22.45765,7.81252 -22.45765,-4.43534c0,-12.24786 11.55214,-22.1767 25.80241,-22.1767c14.25026,0 25.80241,9.92884 25.80241,22.1767z" data-paper-data="{&quot;origPos&quot;:null}" fill="url(#color-11)" stroke-width="NaN"/><path d="M538.18332,102.13398c0,12.24786 -29.14716,4.43534 -29.14716,4.43534c0,0 -22.45765,7.81253 -22.45765,-4.43534c0,-12.24786 11.55214,-22.17671 25.80241,-22.17671c14.25026,0 25.80241,9.92885 25.80241,22.17671z" data-paper-data="{&quot;origPos&quot;:null}" fill="url(#color-12)" stroke-width="NaN"/><path d="M576.80642,102.05924c0,12.24786 -29.14715,4.43534 -29.14715,4.43534c0,0 -22.45765,7.81253 -22.45765,-4.43534c0,-12.24786 11.55213,-22.17671 25.8024,-22.17671c14.25026,0 25.80241,9.92885 25.80241,22.17671z" data-paper-data="{&quot;origPos&quot;:null}" fill="url(#color-13)" stroke-width="NaN"/><path d="M463.72668,115.64853v-30.74431l100.51067,1.66667l15.3267,29.87477z" data-paper-data="{&quot;origPos&quot;:null}" fill="url(#color-14)" stroke-width="0"/><path d="M467.223,106.92921c0,8.32855 -9.08564,15.94632 -18.32194,15.94632c-9.23629,0 -15.12562,-7.61778 -15.12562,-15.94632c0,-8.32855 7.48749,-15.08016 16.72378,-15.08016c9.23629,0 16.72378,6.75161 16.72378,15.08016z" data-paper-data="{&quot;origPos&quot;:null}" fill="url(#color-15)" stroke-width="0"/><path d="M587.75296,106.22899c0,8.32855 -5.07228,16.63162 -14.30857,16.63162c-9.23629,0 -19.13901,-8.30307 -19.13901,-16.63162c0,-5.66446 2.03923,-9.10116 7.06589,-12.31285c3.29918,-2.10796 5.65271,-2.76731 9.6579,-2.76731c9.23629,0 16.72378,6.75162 16.72378,15.08016z" data-paper-data="{&quot;origPos&quot;:null}" fill="url(#color-16)" stroke-width="0"/></g><path d="M447.30942,119.76061h131.20941" data-paper-data="{&quot;origPos&quot;:null}" fill="#ffc3d5" stroke="#ffd426" stroke-width="9" stroke-linecap="round"/><path d="M513.19443,115.45943c4.84704,2.53063 -12.54153,3.31201 -20.98451,3.31201c-8.44299,0 -15.88858,5.59214 -15.88858,-0.28571c0,-0.3259 -7.26138,-3.09679 -6.94308,-3.23435c3.22293,-1.39289 6.116,-1.54472 8.40992,-2.82298c5.04778,-2.81281 8.58566,-2.71514 13.82055,-2.71514c0,0 5.44769,-0.65893 10.42032,2.34864c3.69726,1.91012 5.59713,1.76923 11.16538,3.39753z" data-paper-data="{&quot;origPos&quot;:null}" fill="#ffd426" stroke="none" stroke-width="0" stroke-linecap="butt"/><path d="M554.30013,115.24797c4.84702,2.53063 -12.54152,3.31201 -20.98451,3.31201c-8.44299,0 -15.88859,5.59214 -15.88859,-0.28571c0,-0.3259 -7.26138,-3.09679 -6.94308,-3.23435c3.22293,-1.39289 6.11601,-1.54472 8.40994,-2.82298c5.04778,-2.81281 8.58566,-2.71514 13.82055,-2.71514c0,0 5.44769,-0.65893 10.42032,2.34864c3.69726,1.91012 5.59714,1.76923 11.16539,3.39753z" data-paper-data="{&quot;origPos&quot;:null}" fill="#ffd426" stroke="none" stroke-width="0" stroke-linecap="butt"/></g><g data-paper-data="{&quot;index&quot;:null}" fill-rule="nonzero" stroke-linejoin="miter"><g data-paper-data="{&quot;origPos&quot;:null}" stroke="none" stroke-linecap="butt"><path d="M392.80121,141.15478c0,12.81369 -30.4937,4.64025 -30.4937,4.64025c0,0 -23.49515,8.17345 -23.49515,-4.64025c0,-12.81369 12.08582,-23.20124 26.99443,-23.20124c14.90861,0 26.99443,10.38755 26.99443,23.20124z" data-paper-data="{&quot;origPos&quot;:null}" fill="url(#color-17)" stroke-width="NaN"/><path d="M434.20844,141.07661c0,12.81369 -30.49369,4.64025 -30.49369,4.64025c0,0 -23.49515,8.17345 -23.49515,-4.64025c0,-12.81369 12.08581,-23.20124 26.99443,-23.20124c14.90861,0 26.99442,10.38755 26.99442,23.20124z" data-paper-data="{&quot;origPos&quot;:null}" fill="url(#color-18)" stroke-width="NaN"/><path d="M475.6156,140.99838c0,12.81369 -30.49369,4.64024 -30.49369,4.64024c0,0 -23.49516,8.17345 -23.49516,-4.64024c0,-11.90973 10.12833,-19.84432 19.11666,-22.19773c2.99611,-0.78447 4.76475,-1.00351 7.87777,-1.00351c14.90861,0 26.99443,10.38755 26.99443,23.20124z" data-paper-data="{&quot;origPos&quot;:null}" fill="url(#color-19)" stroke-width="NaN"/><path d="M516.02302,140.92025c0,12.81369 -30.49369,4.64024 -30.49369,4.64024c0,0 -23.49515,8.17345 -23.49515,-4.64024c0,-12.81369 12.08582,-23.20124 26.99442,-23.20124c14.9086,0 26.99442,10.38755 26.99442,23.20124z" data-paper-data="{&quot;origPos&quot;:null}" fill="url(#color-20)" stroke-width="NaN"/><path d="M328.87577,157.57705l24.87851,-33.675c0,0 126.87212,0.03055 147.88802,-0.09566c7.00531,-0.04207 7.41867,33.56548 7.41867,33.56548z" data-paper-data="{&quot;origPos&quot;:null}" fill="url(#color-21)" stroke-width="0"/><path d="M359.0113,145.19786c0,8.71332 -10.80713,16.03718 -20.47013,16.03718c-9.66299,0 -14.52266,-7.32387 -14.52266,-16.03718c0,-8.71332 7.8334,-15.77684 17.4964,-15.77684c9.66299,0 17.49639,7.06352 17.49639,15.77684z" data-paper-data="{&quot;origPos&quot;:null}" fill="url(#color-22)" stroke-width="0"/><path d="M529.12413,144.32938c0,8.71332 -5.87015,17.83887 -15.53314,17.83887c-9.66299,0 -19.45965,-9.12556 -19.45965,-17.83887c0,-8.71332 7.83339,-15.77684 17.4964,-15.77684c9.66299,0 17.49639,7.06353 17.49639,15.77684z" data-paper-data="{&quot;origPos&quot;:null}" fill="url(#color-23)" stroke-width="0"/></g><path d="M335.43868,159.7892c0,0 91.06127,-0.5 176.92638,-0.5" data-paper-data="{&quot;origPos&quot;:null}" fill="#ffc3d5" stroke="#ffd426" stroke-width="9" stroke-linecap="round"/><path d="M409.73141,155.10426c5.07095,2.64754 -13.12091,3.46502 -21.95396,3.46502c-8.83304,0 -16.6226,5.85048 -16.6226,-0.29891c0,-0.34096 -7.59682,-3.23986 -7.26384,-3.38377c3.37181,-1.45724 6.39855,-1.61608 8.79844,-2.95339c5.28099,-2.94276 8.9823,-2.84057 14.45902,-2.84057c0,0 5.69937,-0.68937 10.90172,2.45714c3.86807,1.99836 5.85572,1.85096 11.68122,3.55449z" data-paper-data="{&quot;origPos&quot;:null}" fill="#ffd426" stroke="none" stroke-width="0" stroke-linecap="butt"/><path d="M451.63742,154.88296c5.07095,2.64754 -13.12091,3.46502 -21.95394,3.46502c-8.83304,0 -16.62261,5.85048 -16.62261,-0.29891c0,-0.34096 -7.59682,-3.23986 -7.26384,-3.38377c3.37181,-1.45724 6.39855,-1.61608 8.79844,-2.95339c5.28099,-2.94276 8.9823,-2.84057 14.45902,-2.84057c0,0 5.69937,-0.68937 10.90172,2.45714c3.86807,1.99836 5.85572,1.85095 11.68122,3.55448z" data-paper-data="{&quot;origPos&quot;:null}" fill="#ffd426" stroke="none" stroke-width="0" stroke-linecap="butt"/><path d="M489.96481,155.10426c5.07095,2.64754 -13.12092,3.46502 -21.95395,3.46502c-8.83304,0 -16.6226,5.85048 -16.6226,-0.29891c0,-0.34096 -7.59684,-3.23986 -7.26385,-3.38377c3.37182,-1.45724 6.39855,-1.61608 8.79843,-2.95339c5.28098,-2.94276 8.9823,-2.84057 14.45902,-2.84057c0,0 5.69936,-0.68937 10.90172,2.45714c3.86807,1.99836 5.85572,1.85096 11.68122,3.55449z" data-paper-data="{&quot;origPos&quot;:null}" fill="#ffd426" stroke="none" stroke-width="0" stroke-linecap="butt"/></g><g data-paper-data="{&quot;index&quot;:null}" fill-rule="nonzero" stroke-linejoin="miter"><g data-paper-data="{&quot;origPos&quot;:null}" stroke="none" stroke-linecap="butt"><path d="M475.03463,256.99654c0,12.24786 -28.34585,4.43534 -28.34585,4.43534c0,0 -21.84025,7.81252 -21.84025,-4.43534c0,-12.24786 11.23454,-22.1767 25.09306,-22.1767c13.85851,0 25.09306,9.92884 25.09306,22.1767z" data-paper-data="{&quot;origPos&quot;:null}" fill="url(#color-24)" stroke-width="NaN"/><path d="M513.52528,256.92184c0,12.24786 -28.34585,4.43534 -28.34585,4.43534c0,0 -21.84025,7.81253 -21.84025,-4.43534c0,-12.24786 11.23454,-22.17671 25.09306,-22.17671c13.8585,0 25.09306,9.92885 25.09306,22.17671z" data-paper-data="{&quot;origPos&quot;:null}" fill="url(#color-25)" stroke-width="NaN"/><path d="M434.56865,274.60236l6.54693,-34.91026l62.13772,1.24181l6.0029,29.87477z" data-paper-data="{&quot;origPos&quot;:null}" fill="url(#color-26)" stroke-width="0"/><path d="M444.51578,261.71709c0,8.32855 -8.83587,15.94632 -17.81824,15.94632c-8.98237,0 -14.70979,-7.61778 -14.70979,-15.94632c0,-8.32855 7.28165,-15.08016 16.26402,-15.08016c8.98237,0 16.26402,6.75161 16.26402,15.08016z" data-paper-data="{&quot;origPos&quot;:null}" fill="url(#color-27)" stroke-width="0"/><path d="M530.4146,261.01685c0,8.32855 -4.93283,16.63162 -13.9152,16.63162c-8.98237,0 -18.61284,-8.30307 -18.61284,-16.63162c0,-5.66446 1.98316,-9.10116 6.87163,-12.31285c3.20847,-2.10796 5.49731,-2.76731 9.39239,-2.76731c8.98237,0 16.26402,6.75162 16.26402,15.08016z" data-paper-data="{&quot;origPos&quot;:null}" fill="url(#color-28)" stroke-width="0"/></g><path d="M425.14965,275.2428h93.32788" data-paper-data="{&quot;origPos&quot;:null}" fill="#ffc3d5" stroke="#ffd426" stroke-width="9" stroke-linecap="round"/><path d="M489.22335,270.94163c4.71377,2.53063 -12.19673,3.31201 -20.4076,3.31201c-8.21088,0 -15.45178,5.59214 -15.45178,-0.28571c0,-0.3259 -7.06175,-3.09679 -6.75221,-3.23435c3.13432,-1.39289 5.94787,-1.54472 8.17871,-2.82298c4.90901,-2.81281 8.34963,-2.71514 13.44061,-2.71514c0,0 5.29793,-0.65893 10.13385,2.34864c3.59562,1.91012 5.44326,1.76923 10.85844,3.39753z" data-paper-data="{&quot;origPos&quot;:null}" fill="#ffd426" stroke="none" stroke-width="0" stroke-linecap="butt"/></g><g data-paper-data="{&quot;index&quot;:null}" fill-rule="nonzero" stroke-linejoin="miter"><g data-paper-data="{&quot;origPos&quot;:null}" stroke="none" stroke-linecap="butt"><path d="M368.76005,297.33961c0,12.81369 -30.4937,4.64025 -30.4937,4.64025c0,0 -23.49515,8.17345 -23.49515,-4.64025c0,-12.81369 12.08582,-23.20124 26.99443,-23.20124c14.90861,0 26.99443,10.38755 26.99443,23.20124z" data-paper-data="{&quot;origPos&quot;:null}" fill="url(#color-29)" stroke-width="NaN"/><path d="M410.16728,297.26144c0,12.81369 -30.49369,4.64025 -30.49369,4.64025c0,0 -23.49515,8.17345 -23.49515,-4.64025c0,-12.81369 12.08581,-23.20124 26.99443,-23.20124c14.90861,0 26.99442,10.38755 26.99442,23.20124z" data-paper-data="{&quot;origPos&quot;:null}" fill="url(#color-30)" stroke-width="NaN"/><path d="M451.57444,297.18323c0,12.81369 -30.49369,4.64024 -30.49369,4.64024c0,0 -23.49516,8.17345 -23.49516,-4.64024c0,-11.90973 10.12833,-19.84432 19.11666,-22.19773c2.99611,-0.78447 4.76475,-1.00351 7.87777,-1.00351c14.90861,0 26.99443,10.38755 26.99443,23.20124z" data-paper-data="{&quot;origPos&quot;:null}" fill="url(#color-31)" stroke-width="NaN"/><path d="M491.98186,297.1051c0,12.81369 -30.49369,4.64024 -30.49369,4.64024c0,0 -23.49515,8.17345 -23.49515,-4.64024c0,-12.81369 12.08582,-23.20124 26.99442,-23.20124c14.9086,0 26.99442,10.38755 26.99442,23.20124z" data-paper-data="{&quot;origPos&quot;:null}" fill="url(#color-32)" stroke-width="NaN"/><path d="M304.83461,313.76189l24.87851,-33.675c0,0 126.87212,0.03055 147.88802,-0.09566c7.00531,-0.04207 7.41867,33.56548 7.41867,33.56548z" data-paper-data="{&quot;origPos&quot;:null}" fill="url(#color-33)" stroke-width="0"/><path d="M334.97014,301.38271c0,8.71332 -10.80713,16.03718 -20.47013,16.03718c-9.66299,0 -14.52266,-7.32387 -14.52266,-16.03718c0,-8.71332 7.8334,-15.77684 17.4964,-15.77684c9.66299,0 17.49639,7.06352 17.49639,15.77684z" data-paper-data="{&quot;origPos&quot;:null}" fill="url(#color-34)" stroke-width="0"/><path d="M505.08297,300.51424c0,8.71332 -5.87015,17.83887 -15.53314,17.83887c-9.66299,0 -19.45965,-9.12556 -19.45965,-17.83887c0,-8.71332 7.83339,-15.77684 17.4964,-15.77684c9.66299,0 17.49639,7.06353 17.49639,15.77684z" data-paper-data="{&quot;origPos&quot;:null}" fill="url(#color-35)" stroke-width="0"/></g><path d="M311.39752,315.97407c0,0 91.06127,-0.5 176.92638,-0.5" data-paper-data="{&quot;origPos&quot;:null}" fill="#ffc3d5" stroke="#ffd426" stroke-width="9" stroke-linecap="round"/><path d="M385.69025,311.28909c5.07095,2.64754 -13.12091,3.46502 -21.95396,3.46502c-8.83304,0 -16.6226,5.85048 -16.6226,-0.29891c0,-0.34096 -7.59682,-3.23986 -7.26384,-3.38377c3.37181,-1.45724 6.39855,-1.61608 8.79844,-2.95339c5.28099,-2.94276 8.9823,-2.84057 14.45902,-2.84057c0,0 5.69937,-0.68937 10.90172,2.45714c3.86807,1.99836 5.85572,1.85096 11.68122,3.55449z" data-paper-data="{&quot;origPos&quot;:null}" fill="#ffd426" stroke="none" stroke-width="0" stroke-linecap="butt"/><path d="M427.59626,311.06782c5.07095,2.64754 -13.12091,3.46502 -21.95394,3.46502c-8.83304,0 -16.62261,5.85048 -16.62261,-0.29891c0,-0.34096 -7.59682,-3.23986 -7.26384,-3.38377c3.37181,-1.45724 6.39855,-1.61608 8.79844,-2.95339c5.28099,-2.94276 8.9823,-2.84057 14.45902,-2.84057c0,0 5.69937,-0.68937 10.90172,2.45714c3.86807,1.99836 5.85572,1.85095 11.68122,3.55448z" data-paper-data="{&quot;origPos&quot;:null}" fill="#ffd426" stroke="none" stroke-width="0" stroke-linecap="butt"/><path d="M465.92365,311.28909c5.07095,2.64754 -13.12092,3.46502 -21.95395,3.46502c-8.83304,0 -16.6226,5.85048 -16.6226,-0.29891c0,-0.34096 -7.59684,-3.23986 -7.26385,-3.38377c3.37182,-1.45724 6.39855,-1.61608 8.79843,-2.95339c5.28098,-2.94276 8.9823,-2.84057 14.45902,-2.84057c0,0 5.69936,-0.68937 10.90172,2.45714c3.86807,1.99836 5.85572,1.85096 11.68122,3.55449z" data-paper-data="{&quot;origPos&quot;:null}" fill="#ffd426" stroke="none" stroke-width="0" stroke-linecap="butt"/></g><path d="M11.6844,190.88084h-62.52433" data-paper-data="{&quot;index&quot;:null}" fill="none" fill-rule="nonzero" stroke="#3d00a3" stroke-width="30" stroke-linecap="round" stroke-linejoin="miter"/><path d="M52.63448,220.18307h-73.92406" data-paper-data="{&quot;index&quot;:null}" fill="none" fill-rule="nonzero" stroke="#39009c" stroke-width="30" stroke-linecap="round" stroke-linejoin="miter"/><g data-paper-data="{&quot;index&quot;:null}" fill="none" fill-rule="nonzero" stroke-linecap="round" stroke-linejoin="miter"><path d="M10.22965,294.69552h-67.16318" data-paper-data="{&quot;index&quot;:null}" stroke="#3d00a3" stroke-width="30"/><path d="M3.3643,324.17587h-53.32889" data-paper-data="{&quot;index&quot;:null}" stroke="#3d00a3" stroke-width="29.5"/><path d="M-81.03245,353.73234h148.54298" data-paper-data="{&quot;index&quot;:null}" stroke="#3d00a3" stroke-width="30"/><path d="M-85.00153,324.49706h32.61701" data-paper-data="{&quot;index&quot;:null}" stroke="#4000af" stroke-width="29"/><path d="M7.20655,324.03941h44.32889" data-paper-data="{&quot;index&quot;:null}" stroke="#4000af" stroke-width="29"/></g><g fill="#ffffff" fill-rule="evenodd" stroke="none" stroke-width="1" stroke-linecap="round" stroke-linejoin="round"><path d="M166.09539,307.66712c0,0 0.0457,-1.04359 -0.41573,-1.49493c-0.46143,-0.45135 -1.47687,-0.35629 -1.47687,-0.35629c0,0 -6.95464,0.34168 -11.87056,0.49567c-1.2007,0.03761 -2.69616,-1.04095 -2.60545,-2.44933c0.0907,-1.40838 1.54507,-2.41016 2.69344,-2.59215c1.14838,-0.18198 12.77638,-0.46616 14.06833,-0.4248c1.29196,0.04135 2.53423,0.36237 3.43534,1.20565c0.9011,0.84328 1.24101,2.31639 1.28142,3.54921c0.04039,1.23282 -0.23326,14.41484 -0.23326,14.41484c-0.03888,1.30869 -1.07294,2.62228 -2.56119,2.73535c-1.48824,0.11305 -2.53819,-1.21516 -2.50832,-2.35024z" data-paper-data="{&quot;origPos&quot;:null,&quot;origRot&quot;:0,&quot;index&quot;:null}" opacity="0.42445"/><path d="M179.83687,294.20322c0,0 0.04572,-1.0436 -0.41573,-1.49493c-0.46143,-0.45135 -1.47686,-0.35629 -1.47686,-0.35629c0,0 -6.95464,0.34168 -11.87057,0.49567c-1.2007,0.03761 -2.69617,-1.04093 -2.60545,-2.44932c0.0907,-1.40838 1.54508,-2.41018 2.69345,-2.59216c1.14838,-0.18198 12.77638,-0.46615 14.06833,-0.4248c1.29195,0.04136 2.53425,0.36237 3.43535,1.20565c0.9011,0.84328 1.24099,2.31639 1.28141,3.54921c0.04039,1.23282 -0.23325,14.41484 -0.23325,14.41484c-0.03888,1.30869 -1.07294,2.62229 -2.56118,2.73534c-1.48824,0.11305 -2.5382,-1.21517 -2.50832,-2.35024z" data-paper-data="{&quot;origPos&quot;:null,&quot;origRot&quot;:0,&quot;index&quot;:null}" opacity="0.42445"/><path d="M193.57834,280.73933c0,0 0.04572,-1.0436 -0.41573,-1.49493c-0.46143,-0.45135 -1.47686,-0.35629 -1.47686,-0.35629c0,0 -6.95464,0.34168 -11.87057,0.49567c-1.2007,0.03761 -2.69617,-1.04092 -2.60545,-2.44932c0.09071,-1.40839 1.54508,-2.41018 2.69346,-2.59217c1.14838,-0.18198 12.77637,-0.46616 14.06832,-0.4248c1.29195,0.04136 2.53424,0.36238 3.43535,1.20566c0.9011,0.84328 1.241,2.31638 1.28142,3.5492c0.04039,1.23282 -0.23326,14.41484 -0.23326,14.41484c-0.03888,1.30869 -1.07295,2.62229 -2.56119,2.73535c-1.48824,0.11306 -2.53819,-1.21517 -2.50832,-2.35024z" data-paper-data="{&quot;origPos&quot;:null,&quot;origRot&quot;:0,&quot;index&quot;:null}" opacity="0.42445"/></g></g></g></svg>