<svg version="1.1" xmlns="http://www.w3.org/2000/svg" xmlns:xlink="http://www.w3.org/1999/xlink" width="461" height="306" viewBox="0,0,461,306"><defs><linearGradient x1="117.64248" y1="-26.37841" x2="107.06383" y2="-38.3897" gradientUnits="userSpaceOnUse" id="color-1"><stop offset="0" stop-color="#be6969"/><stop offset="1" stop-color="#ff8c8c"/></linearGradient><linearGradient x1="90.86864" y1="-25.67895" x2="70.6731" y2="-28.01124" gradientUnits="userSpaceOnUse" id="color-2"><stop offset="0" stop-color="#a881e3"/><stop offset="1" stop-color="#c0ade3"/></linearGradient><linearGradient x1="89.62894" y1="-22.4148" x2="66.4938" y2="-25.08658" gradientUnits="userSpaceOnUse" id="color-3"><stop offset="0" stop-color="#765b9f"/><stop offset="1" stop-color="#c0ade3"/></linearGradient><linearGradient x1="89.62894" y1="-22.41478" x2="66.4938" y2="-25.08656" gradientUnits="userSpaceOnUse" id="color-4"><stop offset="0" stop-color="#765b9f"/><stop offset="1" stop-color="#765b9f" stop-opacity="0"/></linearGradient><linearGradient x1="74.94089" y1="-35.62162" x2="81.99723" y2="-12.52838" gradientUnits="userSpaceOnUse" id="color-5"><stop offset="0" stop-color="#556c4d" stop-opacity="0"/><stop offset="1" stop-color="#556c4d"/></linearGradient><linearGradient x1="93.55963" y1="-26.71829" x2="71.58336" y2="-29.25623" gradientUnits="userSpaceOnUse" id="color-6"><stop offset="0" stop-color="#708e65"/><stop offset="1" stop-color="#506648"/></linearGradient><linearGradient x1="91.49021" y1="-21.0824" x2="64.21428" y2="-24.23237" gradientUnits="userSpaceOnUse" id="color-7"><stop offset="0" stop-color="#6e8c63"/><stop offset="1" stop-color="#556c4d"/></linearGradient><linearGradient x1="117.64248" y1="-26.37841" x2="107.06383" y2="-38.3897" gradientUnits="userSpaceOnUse" id="color-8"><stop offset="0" stop-color="#643838"/><stop offset="1" stop-color="#643838" stop-opacity="0"/></linearGradient><linearGradient x1="117.82151" y1="-27.98182" x2="109.77335" y2="-37.11988" gradientUnits="userSpaceOnUse" id="color-9"><stop offset="0" stop-color="#d17373"/><stop offset="1" stop-color="#ff8c8c"/></linearGradient><linearGradient x1="117.64249" y1="-26.3784" x2="107.06384" y2="-38.3897" gradientUnits="userSpaceOnUse" id="color-10"><stop offset="0" stop-color="#643838"/><stop offset="1" stop-color="#ff8c8c"/></linearGradient><linearGradient x1="118.51147" y1="-40.89707" x2="104.14567" y2="-25.6357" gradientUnits="userSpaceOnUse" id="color-11"><stop offset="0" stop-color="#556c4d" stop-opacity="0"/><stop offset="1" stop-color="#556c4d"/></linearGradient><linearGradient x1="124.49163" y1="-39.78651" x2="105.34208" y2="-22.92097" gradientUnits="userSpaceOnUse" id="color-12"><stop offset="0" stop-color="#556c4d"/><stop offset="1" stop-color="#708e65"/></linearGradient><linearGradient x1="88.35107" y1="-67.86607" x2="79.81402" y2="-67.86607" gradientUnits="userSpaceOnUse" id="color-13"><stop offset="0" stop-color="#a881e3"/><stop offset="1" stop-color="#c0ade3"/></linearGradient><linearGradient x1="90.72" y1="-69.12821" x2="85.69327" y2="-69.12821" gradientUnits="userSpaceOnUse" id="color-14"><stop offset="0" stop-color="#a881e3"/><stop offset="1" stop-color="#c0ade3"/></linearGradient><linearGradient x1="96.54157" y1="-64.16972" x2="88.4476" y2="-64.16972" gradientUnits="userSpaceOnUse" id="color-15"><stop offset="0" stop-color="#916fc3"/><stop offset="1" stop-color="#c0ade3"/></linearGradient><linearGradient x1="96.54646" y1="-59.29346" x2="68.42249" y2="-59.29346" gradientUnits="userSpaceOnUse" id="color-16"><stop offset="0" stop-color="#916fc3"/><stop offset="1" stop-color="#c0ade3"/></linearGradient><linearGradient x1="95.00424" y1="-52.90561" x2="72.70925" y2="-52.90561" gradientUnits="userSpaceOnUse" id="color-17"><stop offset="0" stop-color="#765b9f"/><stop offset="1" stop-color="#765b9f" stop-opacity="0"/></linearGradient><linearGradient x1="81.4094" y1="-63.80309" x2="85.01907" y2="-45.71937" gradientUnits="userSpaceOnUse" id="color-18"><stop offset="0" stop-color="#708e65"/><stop offset="1" stop-color="#5c7553"/></linearGradient><linearGradient x1="101.12016" y1="-52.2619" x2="87.77574" y2="-65.36795" gradientUnits="userSpaceOnUse" id="color-19"><stop offset="0" stop-color="#5c7553"/><stop offset="1" stop-color="#708e65"/></linearGradient><linearGradient x1="332.86717" y1="-6.94786" x2="332.86717" y2="132.11426" gradientUnits="userSpaceOnUse" id="color-20"><stop offset="0" stop-color="#b6b6b6" stop-opacity="0"/><stop offset="1" stop-color="#b6b6b6"/></linearGradient><linearGradient x1="309.03211" y1="-9.7371" x2="309.03211" y2="116.54982" gradientUnits="userSpaceOnUse" id="color-21"><stop offset="0" stop-color="#b6b6b6" stop-opacity="0"/><stop offset="1" stop-color="#b6b6b6"/></linearGradient><linearGradient x1="356.86549" y1="-9.2371" x2="356.86549" y2="117.04982" gradientUnits="userSpaceOnUse" id="color-22"><stop offset="0" stop-color="#b6b6b6" stop-opacity="0"/><stop offset="1" stop-color="#b6b6b6"/></linearGradient><linearGradient x1="317.16414" y1="-16.10218" x2="346.55479" y2="121.56814" gradientUnits="userSpaceOnUse" id="color-23"><stop offset="0" stop-color="#b6b6b6" stop-opacity="0"/><stop offset="1" stop-color="#b6b6b6"/></linearGradient><linearGradient x1="336.40903" y1="-35.34106" x2="336.40903" y2="-22.41853" gradientUnits="userSpaceOnUse" id="color-24"><stop offset="0" stop-color="#afe09f"/><stop offset="1" stop-color="#8fb681"/></linearGradient><linearGradient x1="253.60312" y1="-24.4024" x2="253.57097" y2="-2.40245" gradientUnits="userSpaceOnUse" id="color-25"><stop offset="0" stop-color="#95bd86"/><stop offset="1" stop-color="#80a374"/></linearGradient><linearGradient x1="259.00012" y1="104.41687" x2="259.00012" y2="119.3913" gradientUnits="userSpaceOnUse" id="color-26"><stop offset="0" stop-color="#ecd284"/><stop offset="1" stop-color="#c5af6e"/></linearGradient><linearGradient x1="181.34547" y1="142.39981" x2="181.34547" y2="159.04093" gradientUnits="userSpaceOnUse" id="color-27"><stop offset="0" stop-color="#c5af6e"/><stop offset="1" stop-color="#d8c079"/></linearGradient><linearGradient x1="215.00006" y1="104.41687" x2="215.00006" y2="119.3913" gradientUnits="userSpaceOnUse" id="color-28"><stop offset="0" stop-color="#ecd284"/><stop offset="1" stop-color="#c5af6e"/></linearGradient><linearGradient x1="106.78088" y1="31.34304" x2="114.31831" y2="173.11129" gradientUnits="userSpaceOnUse" id="color-29"><stop offset="0" stop-color="#7e7463"/><stop offset="1" stop-color="#847c6b"/></linearGradient><linearGradient x1="427.75263" y1="87.79961" x2="419.42907" y2="110.11575" gradientUnits="userSpaceOnUse" id="color-30"><stop offset="0" stop-color="#5c5549"/><stop offset="1" stop-color="#756c5e"/></linearGradient><linearGradient x1="415.6376" y1="76.73453" x2="444.12187" y2="87.3588" gradientUnits="userSpaceOnUse" id="color-31"><stop offset="0" stop-color="#746b5d"/><stop offset="1" stop-color="#746b5d" stop-opacity="0"/></linearGradient><linearGradient x1="419.94793" y1="76.45355" x2="440.02989" y2="87.79339" gradientUnits="userSpaceOnUse" id="color-32"><stop offset="0" stop-color="#514b41"/><stop offset="1" stop-color="#36322b"/></linearGradient><linearGradient x1="372.70011" y1="104.36683" x2="372.70011" y2="120.5833" gradientUnits="userSpaceOnUse" id="color-33"><stop offset="0" stop-color="#ecd284"/><stop offset="1" stop-color="#c5af6e"/></linearGradient><linearGradient x1="72.61383" y1="-15.11963" x2="74.44257" y2="19.27514" gradientUnits="userSpaceOnUse" id="color-34"><stop offset="0" stop-color="#77966b"/><stop offset="1" stop-color="#637d59"/></linearGradient><linearGradient x1="70.10537" y1="1.53035" x2="71.13174" y2="20.83482" gradientUnits="userSpaceOnUse" id="color-35"><stop offset="0" stop-color="#77966b"/><stop offset="1" stop-color="#637d59"/></linearGradient><linearGradient x1="136.13387" y1="-13.44282" x2="137.77929" y2="17.50459" gradientUnits="userSpaceOnUse" id="color-36"><stop offset="0" stop-color="#77966b"/><stop offset="1" stop-color="#637d59"/></linearGradient><linearGradient x1="137.70461" y1="-12.48044" x2="139.34366" y2="18.34814" gradientUnits="userSpaceOnUse" id="color-37"><stop offset="0" stop-color="#77966b"/><stop offset="1" stop-color="#637d59"/></linearGradient><linearGradient x1="140.40438" y1="-18.86278" x2="142.23307" y2="15.53209" gradientUnits="userSpaceOnUse" id="color-38"><stop offset="0" stop-color="#77966b"/><stop offset="1" stop-color="#637d59"/></linearGradient><linearGradient x1="144.66413" y1="-2.5727" x2="145.69046" y2="16.73188" gradientUnits="userSpaceOnUse" id="color-39"><stop offset="0" stop-color="#77966b"/><stop offset="1" stop-color="#637d59"/></linearGradient><linearGradient x1="115.90552" y1="37.47836" x2="123.07979" y2="172.41697" gradientUnits="userSpaceOnUse" id="color-40"><stop offset="0" stop-color="#736c5d"/><stop offset="1" stop-color="#736c5d" stop-opacity="0"/></linearGradient><linearGradient x1="107.12598" y1="37.83384" x2="109.06385" y2="74.28242" gradientUnits="userSpaceOnUse" id="color-41"><stop offset="0" stop-color="#454037"/><stop offset="1" stop-color="#454037" stop-opacity="0"/></linearGradient><linearGradient x1="330.60369" y1="-35.38156" x2="330.60369" y2="-22.45149" gradientUnits="userSpaceOnUse" id="color-42"><stop offset="0" stop-color="#afe09f"/><stop offset="1" stop-color="#8fb681"/></linearGradient><linearGradient x1="413.40856" y1="-24.16439" x2="413.37641" y2="-2.16445" gradientUnits="userSpaceOnUse" id="color-43"><stop offset="0" stop-color="#95bd86"/><stop offset="1" stop-color="#80a374"/></linearGradient><linearGradient x1="117.43343" y1="-40.51385" x2="103.06762" y2="-25.25245" gradientUnits="userSpaceOnUse" id="color-44"><stop offset="0" stop-color="#506648"/><stop offset="1" stop-color="#708e65"/></linearGradient><linearGradient x1="125.70611" y1="104.36682" x2="125.70611" y2="120.58329" gradientUnits="userSpaceOnUse" id="color-45"><stop offset="0" stop-color="#ecd284"/><stop offset="1" stop-color="#c5af6e"/></linearGradient><linearGradient x1="109.69452" y1="11.58029" x2="110.09109" y2="24.49674" gradientUnits="userSpaceOnUse" id="color-46"><stop offset="0" stop-color="#afe09f"/><stop offset="1" stop-color="#8fb681"/></linearGradient><linearGradient x1="27.2633" y1="25.05494" x2="27.90629" y2="47.04551" gradientUnits="userSpaceOnUse" id="color-47"><stop offset="0" stop-color="#95bd86"/><stop offset="1" stop-color="#80a374"/></linearGradient><linearGradient x1="103.89067" y1="11.71797" x2="104.28747" y2="24.64195" gradientUnits="userSpaceOnUse" id="color-48"><stop offset="0" stop-color="#afe09f"/><stop offset="1" stop-color="#8fb681"/></linearGradient><linearGradient x1="187.00077" y1="20.38875" x2="187.64377" y2="42.37932" gradientUnits="userSpaceOnUse" id="color-49"><stop offset="0" stop-color="#95bd86"/><stop offset="1" stop-color="#80a374"/></linearGradient></defs><g transform="translate(-25,84.05371)"><g data-paper-data="{&quot;isPaintingLayer&quot;:true}" fill-rule="nonzero" stroke-miterlimit="10" stroke-dasharray="" stroke-dashoffset="0" style="mix-blend-mode: normal"><path d="M117.62917,-43.89764c0,0 -1.40045,0.68872 -2.57744,1.57278c-0.91121,0.68441 -1.68848,1.4859 -1.57835,2.17555c1.01097,6.33024 3.74829,20.25288 -3.72326,18.49406c-3.61425,-0.85081 7.87905,-22.2424 7.87905,-22.2424z" data-paper-data="{&quot;origRot&quot;:0,&quot;index&quot;:null}" fill="url(#color-1)" stroke="none" stroke-width="0" stroke-linecap="butt" stroke-linejoin="miter"/><path d="M106.47613,3.31056c0,0 0.28846,-9.58199 1.1878,-15.6348c0.89934,-6.05282 2.60955,-9.92243 2.60955,-9.92243" data-paper-data="{&quot;index&quot;:null}" fill="none" stroke="#536a4b" stroke-width="2" stroke-linecap="round" stroke-linejoin="miter"/><path d="M85.26724,-20.7227c1.31406,2.75301 6.30253,-0.09977 16.42677,17.99817c5.97292,10.84046 7.21898,25.25371 7.21898,25.25371" data-paper-data="{&quot;origRot&quot;:0,&quot;index&quot;:null}" fill="none" stroke="#576f4f" stroke-width="3.5" stroke-linecap="round" stroke-linejoin="miter"/><path d="M89.75701,-17.55145c-4.49006,5.39069 -12.8497,-6.79654 -16.27603,-13.59031c-0.91373,-1.81174 -1.70912,-6.37958 -1.70912,-6.37958c0,0 20.7304,16.67395 17.98515,19.96987z" data-paper-data="{&quot;origRot&quot;:0,&quot;index&quot;:null}" fill="url(#color-2)" stroke="none" stroke-width="0" stroke-linecap="butt" stroke-linejoin="miter"/><path d="M67.35716,-32.5625c0,0 11.0595,0.25022 12.78477,0.901c6.9103,2.6066 13.65829,9.89239 7.62862,16.3614c-2.91677,3.12928 -20.41338,-17.2624 -20.41338,-17.2624z" data-paper-data="{&quot;origRot&quot;:0,&quot;index&quot;:null}" fill="url(#color-3)" stroke="none" stroke-width="0" stroke-linecap="butt" stroke-linejoin="miter"/><path d="M67.35718,-32.56249c0,0 6.61157,-1.34765 12.54173,-0.40839c6.91029,2.60659 13.90131,11.20177 7.87164,17.67078c-2.91677,3.12928 -20.41338,-17.2624 -20.41338,-17.2624z" data-paper-data="{&quot;origRot&quot;:0,&quot;index&quot;:null}" fill="url(#color-4)" stroke="none" stroke-width="0" stroke-linecap="butt" stroke-linejoin="miter"/><path d="M64.94679,-32.41736c-0.52174,-1.03865 8.46854,5.05435 16.00512,9.25182c6.59897,3.67526 11.95984,5.30807 10.49213,7.27943c-3.14397,4.22279 -20.56338,-4.71848 -26.49726,-16.53126z" data-paper-data="{&quot;origRot&quot;:0,&quot;index&quot;:null}" fill="url(#color-5)" stroke="none" stroke-width="0" stroke-linecap="butt" stroke-linejoin="miter"/><path d="M72.98423,-40.14302c0,0 13.99253,6.36114 17.93055,13.2973c2.06688,3.64046 1.51566,8.1571 0.54944,9.91118c-0.3426,0.62196 -1.79221,1.99875 -1.79221,1.99875c0,0 -3.28527,-3.85136 -6.49502,-8.18678c-4.99019,-6.74028 -11.24964,-17.28399 -10.19275,-17.02045z" data-paper-data="{&quot;origRot&quot;:0,&quot;index&quot;:null}" fill="url(#color-6)" stroke="none" stroke-width="0" stroke-linecap="butt" stroke-linejoin="miter"/><path d="M65.11313,-31.73089c-0.52733,-1.04977 6.51049,4.68141 13.82772,9.2963c0.69354,0.43741 1.38961,0.86481 2.08199,1.27544c5.55867,3.29675 10.97898,3.46714 9.68978,5.19873c-1.93924,2.60467 -4.56073,2.61145 -12.04468,-1.21012c-6.62893,-3.38497 -11.28102,-10.03384 -13.55482,-14.56036z" data-paper-data="{&quot;origRot&quot;:0,&quot;index&quot;:null}" fill="url(#color-7)" stroke="none" stroke-width="0" stroke-linecap="butt" stroke-linejoin="miter"/><path d="M115.70722,-41.4295c1.01097,6.33024 1.51445,21.53306 -5.9571,19.77424c-3.61425,-0.85081 3.09401,-23.36648 3.09401,-23.36648c0,0 2.61069,2.01179 2.86309,3.59224z" data-paper-data="{&quot;origRot&quot;:0,&quot;index&quot;:null}" fill="url(#color-8)" stroke="none" stroke-width="0" stroke-linecap="butt" stroke-linejoin="miter"/><path d="M90.24049,-52.17459c0,0 6.74357,13.73843 11.48452,30.86615c2.89961,10.47548 7.04211,41.83711 7.04211,41.83711" data-paper-data="{&quot;index&quot;:null}" fill="none" stroke="#536a4b" stroke-width="3" stroke-linecap="round" stroke-linejoin="miter"/><path d="M117.55567,-43.97398c0,0 -3.64022,22.80273 -7.3062,22.15293c-7.59497,-1.34621 7.3062,-22.15293 7.3062,-22.15293z" data-paper-data="{&quot;origRot&quot;:0,&quot;index&quot;:null}" fill="url(#color-9)" stroke="none" stroke-width="0" stroke-linecap="butt" stroke-linejoin="miter"/><path d="M115.38676,-41.12519c1.01096,6.33024 1.83492,21.22874 -5.63663,19.46992c-3.61425,-0.85081 3.09401,-23.36648 3.09401,-23.36648c0,0 2.29022,2.31611 2.54262,3.89656z" data-paper-data="{&quot;origRot&quot;:0,&quot;index&quot;:null}" fill="url(#color-10)" stroke="none" stroke-width="0" stroke-linecap="butt" stroke-linejoin="miter"/><path d="M113.75635,-47.91228c1.04681,-1.57629 1.52364,28.50151 -3.01256,27.95032c-4.38957,-0.53338 -3.32297,-18.17489 2.49696,-27.91653c0.1944,-0.32539 0.31043,0.27515 0.5156,-0.0338z" data-paper-data="{&quot;origRot&quot;:0,&quot;index&quot;:null}" fill="url(#color-11)" stroke="none" stroke-width="0" stroke-linecap="butt" stroke-linejoin="miter"/><path d="M117.89159,-46.22278c0,0 1.09655,6.12205 0.30152,12.29927c-0.80061,6.22061 -3.9208,12.33957 -5.93348,13.43771c-1.32666,0.72384 -2.02122,0.87221 -2.24451,0.32024c-0.07543,-0.18645 -0.09708,-0.45282 -0.07116,-0.80392c0.22048,-2.98595 2.02207,-9.05981 4.3248,-14.58555c0.75291,-1.8067 1.36076,-3.56591 1.84871,-5.12025c1.13059,-3.60141 1.61757,-6.10303 1.77413,-5.54751z" data-paper-data="{&quot;origRot&quot;:0,&quot;index&quot;:null}" fill="url(#color-12)" stroke="none" stroke-width="0" stroke-linecap="butt" stroke-linejoin="miter"/><g data-paper-data="{&quot;index&quot;:null}" stroke="none" stroke-width="0" stroke-linecap="butt" stroke-linejoin="miter"><path d="M87.48492,-62.1247c-1.97758,1.01747 -7.6709,-11.54141 -7.6709,-11.54141c0,0 11.76793,9.43346 7.6709,11.54141z" data-paper-data="{&quot;origRot&quot;:0,&quot;index&quot;:null}" fill="url(#color-13)"/><path d="M86.56956,-76.38514c0,0 5.72625,13.92306 3.72669,14.43615c-4.13359,1.06069 -4.96845,-9.02983 -4.47684,-12.5598c0.12274,-0.88131 0.75015,-1.87635 0.75015,-1.87635z" data-paper-data="{&quot;origRot&quot;:0,&quot;index&quot;:null}" fill="url(#color-14)"/><path d="M94.72409,-46.26773c-6.03089,1.23444 -6.85088,-8.85448 -5.98841,-18.37692c-0.46375,-9.1398 7.80589,-17.52999 7.80589,-17.52999c0,0 -2.52149,14.57688 -1.3973,18.38843c0.60909,2.06513 -0.05471,0.7408 -0.05471,0.7408c0,0 3.05432,16.0777 -0.36549,16.77769z" data-paper-data="{&quot;origRot&quot;:0,&quot;index&quot;:null}" fill="url(#color-15)"/><path d="M68.42249,-69.45915c0,0 2.23505,-1.83902 10.28885,0.9676c10.5107,4.07391 23.80126,10.78977 14.92466,19.63894c-2.26583,2.25883 -11.35084,-8.31522 -11.35084,-8.31522c0,0 -4.87735,-5.47144 -7.42246,-7.69982c-5.74854,-5.03316 -6.4402,-4.5915 -6.4402,-4.5915z" data-paper-data="{&quot;origRot&quot;:0,&quot;index&quot;:null}" fill="url(#color-16)"/><path d="M72.70925,-60.96757c0,0 5.02346,-1.28407 9.25002,-0.01579c3.96958,1.19117 6.55632,2.63282 8.29336,4.47058c3.91738,4.14451 5.50609,11.31906 4.41581,12.04666c-1.40817,0.93974 -4.79095,-1.50923 -9.25914,-6.46893c-3.98112,-4.41904 -12.70004,-10.03253 -12.70004,-10.03253z" data-paper-data="{&quot;origRot&quot;:0}" fill="url(#color-17)"/><path d="M71.19524,-59.89209c0,0 5.02347,-1.28406 9.25002,-0.01578c3.96958,1.19117 6.55632,2.63283 8.29336,4.47058c3.91737,4.14451 5.50609,11.31907 4.41581,12.04667c-1.40817,0.93973 -4.79096,-1.50923 -9.25915,-6.46893c-3.98112,-4.41904 -12.70004,-10.03253 -12.70004,-10.03253z" data-paper-data="{&quot;origRot&quot;:0}" fill="url(#color-18)"/><path d="M90.35289,-58.77086c1.85369,-8.41593 11.58155,-12.88382 11.58155,-12.88382c0,0 -2.30091,0.23897 -2.37415,11.46599c-0.19178,9.73941 -2.07629,13.84766 -4.04916,15.97879c-0.29019,0.31347 -2.60016,1.02203 -2.60016,1.02203c0,0 -0.48229,-0.17767 -1.00867,-0.5167c-0.57223,-0.36855 -1.19654,-0.92777 -1.31003,-1.65673c-0.35394,-2.27334 -1.2557,-8.79548 -0.23939,-13.40956z" data-paper-data="{&quot;origRot&quot;:0}" fill="url(#color-19)"/></g><g fill="none" stroke="#f6fbff" stroke-width="5" stroke-linecap="round" stroke-linejoin="miter"><path d="M321.79293,-18.36338l-94.55787,17.99472"/><path d="M329.71853,-8.05882l-94.55787,17.99473"/><path d="M273.93325,-8.31023l-17.96857,14.11136l-16.70713,-8.30559"/><path d="M311.65765,-15.61969l-17.96857,14.11136l-16.70713,-8.30559"/></g><g fill="none" stroke="#f6fbff" stroke-width="5" stroke-linecap="round" stroke-linejoin="miter"><path d="M149.48505,14.63135l94.55786,-17.99473"/><path d="M251.9685,6.94123l-94.55786,17.99473"/><path d="M196.18332,6.68983l-17.96857,14.11135l-16.70713,-8.3056"/><path d="M233.90765,-0.61971l-17.96857,14.11135l-16.70713,-8.3056"/></g><path d="M286.55323,116.12679l44.40837,-123.07463c9.0099,1.67142 18.39669,2.80033 27.42899,3.9596c6.89773,0.88531 13.83471,1.17952 20.79049,1.18867l-48.31946,133.91392z" fill="url(#color-20)" stroke="none" stroke-width="0" stroke-linecap="butt" stroke-linejoin="miter"/><path d="M287.51313,116.54982v-126.28691c6.41027,0.97633 12.89714,1.77184 19.21079,2.58218c7.90115,1.01409 15.85378,1.2526 23.82719,1.1755v122.52923z" fill="url(#color-21)" stroke="none" stroke-width="0" stroke-linecap="butt" stroke-linejoin="miter"/><path d="M335.3465,117.04982v-126.28691c6.41027,0.97633 12.89714,1.77184 19.21079,2.58218c7.90115,1.01409 15.85378,1.2526 23.82719,1.1755v122.52923z" fill="url(#color-22)" stroke="none" stroke-width="0" stroke-linecap="butt" stroke-linejoin="miter"/><path d="M335.28319,123.97445l-47.20926,-127.54327l40.3618,-14.93963l47.20926,127.54327z" fill="url(#color-23)" stroke="none" stroke-width="0" stroke-linecap="butt" stroke-linejoin="miter"/><path d="M283.86701,-22.60109c0.04368,-1.12306 -0.39775,-2.28024 -0.17474,-3.38624c0.2212,-1.09707 1.28481,-1.90372 1.5059,-3.00081c0.29663,-1.47191 -0.29004,-3.03258 0.00659,-4.5045c0.13732,-0.68138 0.59436,-1.25181 0.97728,-1.84842c42.49271,0.06208 80.06789,0.117 90.19936,0.1318c5.43045,0.00793 12.96636,-1.41588 12.80513,11.56477c-0.02134,1.52024 -0.04785,1.19723 -0.04785,1.19723z" data-paper-data="{&quot;index&quot;:null}" fill="url(#color-24)" stroke="none" stroke-width="0" stroke-linecap="butt" stroke-linejoin="miter"/><path d="M389.17071,1.79571c-0.00503,3.44414 -0.27888,9.38504 -10.37027,9.3703c-4.55061,-0.00665 -8.06763,-0.01178 -14.17733,-0.02071c-12.99521,-0.01899 -44.21546,-0.0646 -80.27922,-0.1173c-0.18212,-1.34286 -0.33971,-2.68873 -0.46134,-4.039c-0.42917,-4.76509 0.31885,-9.58514 -0.07905,-14.35296c-0.13164,-1.57723 -1.13891,-2.96453 -1.49491,-4.5067c-0.02771,-0.12005 -0.05257,-0.2397 -0.07468,-0.35898l106.95733,-0.04579c0,0 -0.01439,9.85401 -0.02056,14.07114z" data-paper-data="{&quot;index&quot;:null}" fill="#80a374" stroke="none" stroke-width="0" stroke-linecap="butt" stroke-linejoin="miter"/><path d="M283.90013,-2.35812c0.04152,-1.67194 0.04222,-3.34208 -0.09663,-5.00585c-0.13164,-1.57723 -1.13892,-2.96453 -1.49492,-4.5067c-0.83997,-3.63876 0.95547,-6.91672 1.51656,-10.30766c0.11844,-0.71572 -0.02359,-1.44998 -0.12045,-2.1801c47.05226,0.06876 88.26739,0.12898 98.02527,0.14323c4.28486,0.00626 7.51195,0.01098 7.51195,0.01098l-0.03215,21.99998z" data-paper-data="{&quot;index&quot;:null}" fill="url(#color-25)" stroke="none" stroke-width="0" stroke-linecap="butt" stroke-linejoin="miter"/><path d="M189.59572,160.50698v-46.09603h129.67364v46.09603z" fill="#e4cb7f" stroke="none" stroke-width="0" stroke-linecap="butt" stroke-linejoin="miter"/><path d="M197.66377,121.99244v-13.30774h121.80288v13.30775z" fill="#b7a367" stroke="none" stroke-width="0" stroke-linecap="butt" stroke-linejoin="miter"/><path d="M195.52343,104.41687h126.95339v14.9744c0,0 -14.53489,-0.80408 -24.75119,-1.1784c-12.79532,-0.46881 -21.41758,1.11765 -34.21368,0.7367c-12.05894,-0.359 -20.7426,-0.66512 -32.80295,-0.66512c-6.68025,0 -35.18558,1.10685 -35.18558,1.10685z" fill="url(#color-26)" stroke="none" stroke-width="0" stroke-linecap="butt" stroke-linejoin="miter"/><path d="M241.81199,146.76765v13.30775l-98.47929,-0.00001c-0.00266,-4.43442 -0.04101,-8.87118 -0.09077,-13.30774z" fill="#b7a367" stroke="none" stroke-width="0" stroke-linecap="butt" stroke-linejoin="miter"/><path d="M146.34544,142.39981c33.18811,0 84.66022,0 93.66667,0c2.6757,0 4.81002,2.73834 4.81002,4.64815c0,1.84313 0,5.80076 0,8.66667c0,1.90408 -1.09362,3.14035 -2.89175,2.86281c-4.75718,-0.73428 -14.44548,-2.10998 -21.85944,-2.38163c-12.79532,-0.46881 -21.41758,1.11765 -34.21368,0.7367c-12.05894,-0.359 -20.7426,-0.66512 -32.80295,-0.66512c-1.81654,0 -5.41582,0.1851 -9.73021,0.42444c-0.02066,-4.7631 -0.07536,-9.52815 -0.13405,-14.29202c1.03137,0 2.08385,0 3.15539,0z" fill="url(#color-27)" stroke="none" stroke-width="0" stroke-linecap="butt" stroke-linejoin="miter"/><path d="M145.59564,160.50698v-46.09603h129.67364v46.09603z" fill="#e4cb7f" stroke="none" stroke-width="0" stroke-linecap="butt" stroke-linejoin="miter"/><path d="M153.66369,121.99244v-13.30774h121.80288v13.30775z" fill="#b7a367" stroke="none" stroke-width="0" stroke-linecap="butt" stroke-linejoin="miter"/><path d="M151.52337,104.41687h126.95339v13.9744c0,0 -14.53489,0.19592 -24.75119,-0.1784c-12.79532,-0.46881 -21.41758,1.11765 -34.21368,0.7367c-12.05894,-0.359 -20.7426,0.33488 -32.80295,0.33488c-6.68025,0 -35.18558,0.10685 -35.18558,0.10685z" fill="url(#color-28)" stroke="none" stroke-width="0" stroke-linecap="butt" stroke-linejoin="miter"/><path d="M76.92139,145.30829c-0.19305,-3.63099 -11.59099,5.10384 -12.10425,-4.1986c-2.05602,-37.26373 -5.96257,-107.21856 -5.96257,-107.21856l95.85261,-5.09621c0,0 3.19604,64.86563 5.18287,104.5925c0.65524,13.10163 -3.82103,5.46909 -3.58684,9.87398c0.23552,4.42972 -21.17215,-14.42638 -26.20466,-14.15881c-11.01665,0.58572 -19.72588,9.54084 -40.63461,9.63478c-6.74219,0.35846 -11.95984,14.59462 -12.54255,6.57092z" fill="url(#color-29)" stroke="none" stroke-width="0" stroke-linecap="butt" stroke-linejoin="miter"/><path d="M410.90178,80.61955l4.30017,-11.52911l35.17935,13.12132l-4.30017,11.52911z" data-paper-data="{&quot;zoomLevel&quot;:1.5487,&quot;index&quot;:null}" fill="#746b5d" stroke="#837969" stroke-width="11.5" stroke-linecap="butt" stroke-linejoin="round"/><path d="M411.55087,107.17732l8.32357,-22.3162l15.75639,5.87688l-8.32357,22.3162z" fill="url(#color-30)" stroke="none" stroke-width="0" stroke-linecap="butt" stroke-linejoin="miter"/><path d="M410.48201,81.74501l4.30017,-11.52911l35.17935,13.12132l-4.30017,11.52911z" data-paper-data="{&quot;zoomLevel&quot;:1.5487,&quot;index&quot;:null}" fill="#746b5d" stroke="#746b5d" stroke-width="11.5" stroke-linecap="butt" stroke-linejoin="round"/><path d="M412.432,85.32903l6.41114,-17.1888l28.48428,10.62416l-6.41114,17.1888z" fill="url(#color-31)" stroke="none" stroke-width="0" stroke-linecap="butt" stroke-linejoin="miter"/><path d="M412.65489,88.68108l5.31469,-9.29954l-1.8933,10.57566z" fill="#665f56" stroke="none" stroke-width="0" stroke-linecap="butt" stroke-linejoin="miter"/><path d="M416.25636,90.02438l8.99779,-15.78766l-3.23545,17.93691z" fill="#665f56" stroke="none" stroke-width="0" stroke-linecap="butt" stroke-linejoin="miter"/><path d="M420.58336,66.27548l-6.87674,12.06605l2.47277,-13.70866z" data-paper-data="{&quot;index&quot;:null}" fill="#665f56" stroke="none" stroke-width="0" stroke-linecap="butt" stroke-linejoin="miter"/><path d="M433.40892,85.93604c0,0 -9.20925,-3.13247 -13.39117,-4.55691c-1.09544,-0.37313 -1.68088,-1.56373 -1.30782,-2.65898c0.37313,-1.09544 1.56349,-1.68079 2.65893,-1.30767c3.50609,1.19423 13.38047,4.55304 13.38047,4.55304c0,0 -0.43436,-0.89656 -2.45071,-4.99576c-0.51075,-1.03849 -0.08305,-2.29416 0.95535,-2.80477c1.03881,-0.51047 2.29437,-0.08302 2.80497,0.95542c1.63504,3.32367 4.6919,9.53953 4.6919,9.53953c0.51059,1.03845 0.08284,2.29427 -0.95535,2.80477c0,0 -5.36374,2.63829 -9.4631,4.6546c-1.039,0.51103 -2.29466,0.08333 -2.80497,-0.95542c-0.51084,-1.03835 -0.08302,-2.29437 0.95523,-2.80441c3.32432,-1.63567 4.92627,-2.42346 4.92627,-2.42346z" fill="url(#color-32)" stroke="none" stroke-width="0" stroke-linecap="butt" stroke-linejoin="miter"/><path d="M313.59569,160.75698v-46.09603h121.67364c0,0 0,26.70746 0,35.10434c0,4.69861 -5.60083,10.99169 -11.31429,10.99169c-17.84392,0 -110.35935,0 -110.35935,0z" fill="#e4cb7f" stroke="none" stroke-width="0" stroke-linecap="butt" stroke-linejoin="miter"/><path d="M311.26374,122.04245v-13.30774h124.20288v13.30775z" fill="#b7a367" stroke="none" stroke-width="0" stroke-linecap="butt" stroke-linejoin="miter"/><path d="M306.92341,118.8079l4.6,-14.44107c0,0 11.97943,0 28.4767,0c33.18811,0 84.66022,0 93.66667,0c2.6757,0 4.81002,2.73834 4.81002,4.64815c0,1.84313 0,5.80076 0,8.66667c0,1.90408 -1.09362,3.14035 -2.89175,2.86281c-4.75718,-0.73428 -14.44548,-2.10998 -21.85944,-2.38163c-12.79532,-0.46881 -21.41758,1.11765 -34.21368,0.7367c-12.05894,-0.359 -20.7426,-0.66512 -32.80295,-0.66512c-4.80879,0 -22.11069,1.29717 -32.09983,1.46368c-3.88753,0.0648 -7.68574,-0.89019 -7.68574,-0.89019z" fill="url(#color-33)" stroke="none" stroke-width="0" stroke-linecap="butt" stroke-linejoin="miter"/><path d="M295.55235,141.07002c0,-3.24497 0,-7.20953 0,-9.13867c0,-2.18456 2.87691,-5.27714 5.86374,-5.27714c3.47959,0 12.34951,0 18.53118,0c3.72844,0 6.47894,2.52087 6.47894,5.02329c0,2.81018 0,6.74504 0,8.63097c0,2.61521 -2.49641,5.78485 -5.97124,5.78485c-6.47814,0 -16.35691,0 -19.80044,0c-2.35404,0 -5.10219,-2.24858 -5.10219,-5.02329z" fill="#e9d18c" stroke="none" stroke-width="NaN" stroke-linecap="butt" stroke-linejoin="miter"/><path d="M389.65145,149.58355c0,-3.24497 0,-7.20953 0,-9.13867c0,-2.18456 2.87691,-5.27714 5.86374,-5.27714c3.47959,0 12.34951,0 18.53118,0c3.72844,0 6.47894,2.52087 6.47894,5.02329c0,2.81018 0,6.74504 0,8.63097c0,2.61521 -2.49641,5.78485 -5.97124,5.78485c-6.47814,0 -16.35691,0 -19.80044,0c-2.35404,0 -5.10219,-2.24858 -5.10219,-5.02329z" fill="#f1d991" stroke="none" stroke-width="NaN" stroke-linecap="butt" stroke-linejoin="miter"/><path d="M70.66237,18.7756c0,0 2.30114,-3.86949 2.00016,-8.12419c-0.62844,-8.88346 -4.38177,-25.54069 -4.38177,-25.54069c0,0 5.32455,12.9674 7.23022,19.16665c2.34164,7.61749 3.26457,14.76733 3.26457,14.76733z" fill="url(#color-34)" stroke="none" stroke-width="0" stroke-linecap="butt" stroke-linejoin="miter"/><path d="M68.13199,20.89666c0,0 2.26159,1.27549 0.91012,-6.41797c-1.09986,-6.26107 -4.207,-12.66819 -4.207,-12.66819c0,0 3.0853,1.56664 6.34194,7.65382c3.8569,7.2092 5.17001,10.05579 5.17001,10.05579z" data-paper-data="{&quot;origRot&quot;:0}" fill="url(#color-35)" stroke="none" stroke-width="0" stroke-linecap="butt" stroke-linejoin="miter"/><path d="M134.19306,16.42902c0,0 0.53817,-4.83932 1.04041,-16.95083c0.42408,-10.22653 0.84556,-12.91801 0.84556,-12.91801c0,0 1.42742,12.55398 2.7888,22.48208c1.67282,12.19939 2.38142,7.34955 2.38142,7.34955z" data-paper-data="{&quot;index&quot;:null}" fill="url(#color-36)" stroke="none" stroke-width="0" stroke-linecap="butt" stroke-linejoin="miter"/><path d="M134.14999,15.62083c0,0 1.61755,-4.53368 4.84539,-16.10763c2.72547,-9.77263 3.74381,-12.26124 3.74381,-12.26124c0,0 -1.45349,12.52121 -2.37715,22.48602c-1.13496,12.24448 0.65054,7.74649 0.65054,7.74649z" data-paper-data="{&quot;origRot&quot;:0,&quot;index&quot;:null}" fill="url(#color-37)" stroke="none" stroke-width="0" stroke-linecap="butt" stroke-linejoin="miter"/><path d="M137.89999,15.76247c0,0 0.15959,-7.20738 1.68031,-15.03022c1.2376,-6.36639 5.15715,-19.82528 5.15715,-19.82528c0,0 -1.9659,16.96133 -1.64885,25.86132c0.15186,4.26262 2.85033,7.86631 2.85033,7.86631z" fill="url(#color-38)" stroke="none" stroke-width="0" stroke-linecap="butt" stroke-linejoin="miter"/><path d="M140.36516,15.97758c0,0 1.00387,-2.96977 4.07459,-10.54729c2.59282,-6.39818 5.49461,-8.28314 5.49461,-8.28314c0,0 -2.41023,6.70046 -2.84002,13.04288c-0.52811,7.7934 1.58551,6.28529 1.58551,6.28529z" data-paper-data="{&quot;origRot&quot;:0}" fill="url(#color-39)" stroke="none" stroke-width="0" stroke-linecap="butt" stroke-linejoin="miter"/><path d="M99.54249,133.24517c-1.32388,-24.53129 -5.10665,-94.62527 -5.10665,-94.62527l42.93935,-2.28297c0,0 4.02609,75.72513 5.34149,100.46599c0.67693,12.7321 -42.33179,12.05184 -43.1742,-3.55775z" fill="url(#color-40)" stroke="none" stroke-width="0" stroke-linecap="butt" stroke-linejoin="miter"/><path d="M61.13753,76.83051l-1.93787,-36.44852l95.85261,-5.09622l1.93786,36.44853z" fill="url(#color-41)" stroke="none" stroke-width="0" stroke-linecap="butt" stroke-linejoin="miter"/><path d="M226.65144,153.08355c0,-3.24497 0,-7.20953 0,-9.13867c0,-2.18456 2.87691,-5.27714 5.86374,-5.27714c3.47959,0 12.34951,0 18.53118,0c3.72844,0 6.47894,2.52087 6.47894,5.02329c0,2.81018 0,6.74504 0,8.63097c0,2.61521 -2.49641,5.78485 -5.97124,5.78485c-6.47814,0 -16.35691,0 -19.80044,0c-2.35404,0 -5.10219,-2.24858 -5.10219,-5.02329z" fill="#f1d991" stroke="none" stroke-width="NaN" stroke-linecap="butt" stroke-linejoin="miter"/><path d="M201.65144,146.58355c0,-3.24497 0,-7.20953 0,-9.13867c0,-2.18456 2.87691,-5.27714 5.86374,-5.27714c3.47959,0 12.34951,0 18.53118,0c3.72844,0 6.47894,2.52087 6.47894,5.02329c0,2.81018 0,6.74504 0,8.63097c0,2.61521 -2.49641,5.78485 -5.97124,5.78485c-6.47814,0 -16.35691,0 -19.80044,0c-2.35404,0 -5.10219,-2.24858 -5.10219,-5.02329z" fill="#dbc583" stroke="none" stroke-width="NaN" stroke-linecap="butt" stroke-linejoin="miter"/><path d="M277.8678,-22.6053c0,0 -0.02745,0.32293 -0.04434,-1.19738c-0.12329,-12.98105 7.40842,-11.53523 12.83886,-11.52729c10.13147,0.01479 47.70663,0.06971 90.19936,0.1318c0.38117,0.59774 0.83656,1.1695 0.97188,1.85128c0.29231,1.47277 -0.2989,3.03173 -0.00658,4.5045c0.21787,1.09774 1.27911,1.90747 1.49711,3.00519c0.21978,1.10665 -0.22504,2.26253 -0.18464,3.38571z" fill="url(#color-42)" stroke="none" stroke-width="0" stroke-linecap="butt" stroke-linejoin="miter"/><path d="M277.76491,1.63745c0.00617,-4.21712 0.02056,-14.07113 0.02056,-14.07113l106.95674,0.35834c-0.02247,0.11922 -0.04766,0.23879 -0.07572,0.35876c-0.3605,1.54111 -1.37186,2.92546 -1.50808,4.5023c-0.41184,4.76663 0.32213,9.58885 -0.12097,14.35267c-0.12556,1.3499 -0.28709,2.6953 -0.47313,4.03764c-36.06376,-0.0527 -67.28402,-0.09831 -80.27923,-0.11729c-6.1097,-0.00893 -9.62671,-0.01407 -14.17732,-0.02072c-10.09139,-0.01474 -10.34788,-5.95642 -10.34285,-9.40056z" fill="#80a374" stroke="none" stroke-width="0" stroke-linecap="butt" stroke-linejoin="miter"/><path d="M277.7376,-2.36266l0.03214,-21.99999c0,0 3.22708,0.00472 7.51193,0.01098c9.75787,0.01427 50.97301,0.07448 98.02527,0.14324c-0.099,0.72984 -0.24316,1.46368 -0.12682,2.17974c0.55118,3.39257 2.33704,6.67577 1.48643,10.31206c-0.3605,1.54111 -1.37185,2.92546 -1.50808,4.5023c-0.14371,1.66336 -0.1479,3.3335 -0.11127,5.00555z" fill="url(#color-43)" stroke="none" stroke-width="0" stroke-linecap="butt" stroke-linejoin="miter"/><path d="M113.40553,-48.34715c0.44717,-0.67335 -1.43286,4.95633 -1.26048,11.12223c0.23953,8.5681 -1.49783,17.40901 -1.49783,17.40901c0,0 -0.31129,0.00745 -1.90416,-0.41067c-2.92011,-4.86455 -3.06062,-22.51107 4.66246,-28.12057z" data-paper-data="{&quot;origRot&quot;:0,&quot;index&quot;:null}" fill="url(#color-44)" stroke="none" stroke-width="0" stroke-linecap="butt" stroke-linejoin="miter"/><path d="M486,68.9463c0,84.49957 -103.19837,153 -230.5,153c-127.30163,0 -230.5,-68.50043 -230.5,-153c0,-84.49957 103.19837,-153 230.5,-153c127.30163,0 230.5,68.50043 230.5,153z" fill="none" stroke="none" stroke-width="0" stroke-linecap="butt" stroke-linejoin="miter"/><g stroke="none" stroke-linecap="butt" stroke-linejoin="miter"><path d="M74.00601,120.94629z" fill="none" stroke-width="0"/><path d="M74.45118,160.50698c-5.71346,0 -11.31429,-6.29308 -11.31429,-10.99169c0,-8.39688 0,-35.10434 0,-35.10434h121.67364v46.09603c0,0 -92.51543,0 -110.35935,0z" data-paper-data="{&quot;index&quot;:null}" fill="#e4cb7f" stroke-width="0"/><path d="M62.9396,122.04246v-13.30775h124.20288v13.30774z" data-paper-data="{&quot;index&quot;:null}" fill="#b7a367" stroke-width="0"/><path d="M183.79707,119.69809c-9.98914,-0.16651 -27.29104,-1.46368 -32.09983,-1.46368c-12.06035,0 -20.74401,0.30612 -32.80295,0.66512c-12.7961,0.38095 -21.41836,-1.20551 -34.21368,-0.7367c-7.41396,0.27165 -17.10226,1.64735 -21.85944,2.38163c-1.79813,0.27754 -2.89175,-0.95873 -2.89175,-2.86281c0,-2.86591 0,-6.82354 0,-8.66667c0,-1.90981 2.13432,-4.64815 4.81002,-4.64815c9.00645,0 60.47856,0 93.66667,0c16.49727,0 28.4767,0 28.4767,0l4.6,14.44107c0,0 -3.79821,0.95499 -7.68574,0.89019z" data-paper-data="{&quot;index&quot;:null}" fill="url(#color-45)" stroke-width="0"/><path d="M108.75478,149.58358c0,2.77471 -2.74815,5.02329 -5.10219,5.02329c-3.44353,0 -13.3223,0 -19.80044,0c-3.47483,0 -5.97124,-3.16964 -5.97124,-5.78485c0,-1.88593 0,-5.82079 0,-8.63097c0,-2.50242 2.7505,-5.02329 6.47894,-5.02329c6.18167,0 15.05159,0 18.53118,0c2.98683,0 5.86374,3.09258 5.86374,5.27714c0,1.92914 0,5.8937 0,9.13867z" data-paper-data="{&quot;index&quot;:null}" fill="#f1d991" stroke-width="NaN"/></g><g stroke="none" stroke-width="0" stroke-linecap="butt" stroke-linejoin="miter"><path d="M57.56821,25.92667c0.0092,-1.12387 -0.46754,-2.26696 -0.27857,-3.37928c0.18743,-1.10334 1.22578,-1.94225 1.4131,-3.04561c0.25132,-1.48032 -0.38297,-3.02225 -0.13165,-4.50258c0.11635,-0.68527 0.55566,-1.26946 0.9201,-1.87754c42.4746,-1.24196 80.03377,-2.34017 90.16092,-2.63629c5.42814,-0.15872 12.9168,-1.81312 13.154,11.16636c0.02532,1.52018 -0.01109,1.19813 -0.01109,1.19813z" data-paper-data="{&quot;index&quot;:null}" fill="url(#color-46)"/><path d="M163.571,47.08043c0.10067,3.44267 0.00926,9.38918 -10.07783,9.68413c-4.54867,0.133 -8.06419,0.2358 -14.17129,0.41437c-12.98967,0.37981 -44.19662,1.29231 -80.24501,2.34635c-0.22324,-1.33664 -0.42206,-2.67704 -0.58507,-4.02294c-0.5752,-4.74968 0.02455,-9.59041 -0.51947,-14.34377c-0.17998,-1.57245 -1.22935,-2.92818 -1.63251,-4.4587c-0.03138,-0.11914 -0.0599,-0.23797 -0.08566,-0.35652l106.90555,-3.32806c0,0 0.28802,9.84981 0.41126,14.06514z" data-paper-data="{&quot;index&quot;:null}" fill="#80a374"/><path d="M58.22253,46.15909c-0.00981,-1.67243 -0.06036,-3.3418 -0.2502,-5.00053c-0.17998,-1.57245 -1.22936,-2.92818 -1.63252,-4.4587c-0.95124,-3.61127 0.74276,-6.94278 1.19953,-10.34935c0.09642,-0.71902 -0.06808,-1.44857 -0.1873,-2.17538c47.03221,-1.37521 88.22978,-2.57982 97.9835,-2.86502c4.28303,-0.12524 7.50875,-0.21955 7.50875,-0.21955l0.643,21.9906z" data-paper-data="{&quot;index&quot;:null}" fill="url(#color-47)"/><path d="M51.5717,26.10656c0,0 -0.01753,0.32362 -0.08106,-1.19546c-0.52159,-12.97115 7.05094,-11.75715 12.47907,-11.91586c10.12715,-0.29613 47.6863,-1.39434 90.16092,-2.63629c0.39933,0.58576 0.87206,1.14328 1.02823,1.82058c0.33737,1.46311 -0.20572,3.03947 0.13166,4.50258c0.25145,1.09054 1.33704,1.86732 1.58863,2.95783c0.25364,1.09938 -0.1555,2.26837 -0.08065,3.38978z" fill="url(#color-48)"/><path d="M52.21281,50.34105c-0.12325,-4.21532 -0.41126,-14.06513 -0.41126,-14.06513l106.91736,-2.9241c-0.0188,0.11985 -0.04031,0.24014 -0.06467,0.36091c-0.31304,1.55145 -1.28144,2.96618 -1.3692,4.54646c-0.26537,4.77702 0.61624,9.57445 0.31954,14.34962c-0.08408,1.35312 -0.20424,2.70284 -0.349,4.05026c-36.04839,1.05404 -67.25535,1.96654 -80.24502,2.34636c-6.1071,0.17857 -9.62261,0.28136 -14.17128,0.41436c-10.08709,0.29495 -10.5258,-5.63606 -10.62646,-9.07873z" fill="#80a374"/><path d="M52.06276,46.34367l-0.64301,-21.99061c0,0 3.2257,-0.09431 7.50873,-0.21955c9.75371,-0.28518 50.95129,-1.48981 97.9835,-2.86501c-0.07656,0.73253 -0.19813,1.47045 -0.05987,2.18261c0.65503,3.37406 2.5408,6.60091 1.80219,10.26159c-0.31304,1.55145 -1.28143,2.96618 -1.3692,4.54646c-0.0926,1.66699 -0.04553,3.33647 0.04239,5.00661z" fill="url(#color-49)"/></g></g></g></svg>