<svg version="1.1" xmlns="http://www.w3.org/2000/svg" xmlns:xlink="http://www.w3.org/1999/xlink" width="484.30508" height="219.23861" viewBox="0,0,484.30508,219.23861"><defs><linearGradient x1="29.2883" y1="303.92269" x2="29.2883" y2="406.02479" gradientUnits="userSpaceOnUse" id="color-1"><stop offset="0" stop-color="#7e7463"/><stop offset="1" stop-color="#847c6b"/></linearGradient><linearGradient x1="52.7475" y1="295.44741" x2="52.7475" y2="328.51446" gradientUnits="userSpaceOnUse" id="color-2"><stop offset="0" stop-color="#454037"/><stop offset="1" stop-color="#454037" stop-opacity="0"/></linearGradient><linearGradient x1="45.02176" y1="279.17409" x2="45.02176" y2="301.17409" gradientUnits="userSpaceOnUse" id="color-3"><stop offset="0" stop-color="#95bd86"/><stop offset="1" stop-color="#80a374"/></linearGradient><linearGradient x1="14.84618" y1="279.17409" x2="14.84618" y2="301.17409" gradientUnits="userSpaceOnUse" id="color-4"><stop offset="0" stop-color="#95bd86"/><stop offset="1" stop-color="#80a374"/></linearGradient><linearGradient x1="219.47614" y1="343.09824" x2="219.47614" y2="358.07267" gradientUnits="userSpaceOnUse" id="color-5"><stop offset="0" stop-color="#ecd284"/><stop offset="1" stop-color="#c5af6e"/></linearGradient><linearGradient x1="141.82144" y1="381.08118" x2="141.82144" y2="397.7223" gradientUnits="userSpaceOnUse" id="color-6"><stop offset="0" stop-color="#c5af6e"/><stop offset="1" stop-color="#d8c079"/></linearGradient><linearGradient x1="175.47607" y1="343.09824" x2="175.47607" y2="358.07267" gradientUnits="userSpaceOnUse" id="color-7"><stop offset="0" stop-color="#ecd284"/><stop offset="1" stop-color="#c5af6e"/></linearGradient><linearGradient x1="333.17609" y1="343.0482" x2="333.17609" y2="359.26467" gradientUnits="userSpaceOnUse" id="color-8"><stop offset="0" stop-color="#ecd284"/><stop offset="1" stop-color="#c5af6e"/></linearGradient><linearGradient x1="29.28834" y1="303.92269" x2="29.28834" y2="406.0248" gradientUnits="userSpaceOnUse" id="color-9"><stop offset="0" stop-color="#7e7463"/><stop offset="1" stop-color="#847c6b"/></linearGradient><linearGradient x1="52.74755" y1="295.44743" x2="52.74755" y2="328.51448" gradientUnits="userSpaceOnUse" id="color-10"><stop offset="0" stop-color="#454037"/><stop offset="1" stop-color="#454037" stop-opacity="0"/></linearGradient><linearGradient x1="45.02181" y1="279.1741" x2="45.02181" y2="301.1741" gradientUnits="userSpaceOnUse" id="color-11"><stop offset="0" stop-color="#95bd86"/><stop offset="1" stop-color="#80a374"/></linearGradient><linearGradient x1="14.84623" y1="279.1741" x2="14.84623" y2="301.1741" gradientUnits="userSpaceOnUse" id="color-12"><stop offset="0" stop-color="#95bd86"/><stop offset="1" stop-color="#80a374"/></linearGradient><linearGradient x1="291.07975" y1="203.04984" x2="291.07975" y2="215.97991" gradientUnits="userSpaceOnUse" id="color-13"><stop offset="0" stop-color="#afe09f"/><stop offset="1" stop-color="#8fb681"/></linearGradient><linearGradient x1="373.88462" y1="214.26702" x2="373.85247" y2="236.26696" gradientUnits="userSpaceOnUse" id="color-14"><stop offset="0" stop-color="#95bd86"/><stop offset="1" stop-color="#80a374"/></linearGradient><linearGradient x1="296.88508" y1="203.09036" x2="296.88508" y2="216.01287" gradientUnits="userSpaceOnUse" id="color-15"><stop offset="0" stop-color="#afe09f"/><stop offset="1" stop-color="#8fb681"/></linearGradient><linearGradient x1="291.07975" y1="203.04984" x2="291.07975" y2="215.97991" gradientUnits="userSpaceOnUse" id="color-16"><stop offset="0" stop-color="#afe09f"/><stop offset="1" stop-color="#8fb681"/></linearGradient><linearGradient x1="214.07918" y1="214.02902" x2="214.04703" y2="236.02898" gradientUnits="userSpaceOnUse" id="color-17"><stop offset="0" stop-color="#95bd86"/><stop offset="1" stop-color="#80a374"/></linearGradient><linearGradient x1="373.88463" y1="214.26704" x2="373.85248" y2="236.26698" gradientUnits="userSpaceOnUse" id="color-18"><stop offset="0" stop-color="#95bd86"/><stop offset="1" stop-color="#80a374"/></linearGradient></defs><g transform="translate(76.70373,-203.04984)"><g data-paper-data="{&quot;isPaintingLayer&quot;:true}" fill-rule="nonzero" stroke="none" stroke-width="0" stroke-linecap="butt" stroke-linejoin="miter" stroke-miterlimit="10" stroke-dasharray="" stroke-dashoffset="0" style="mix-blend-mode: normal"><path d="M-70.56154,392.97374c0,-16.4355 0,-89.05105 0,-89.05105h199.6997c0,0 0,70.48838 0,87.19894c0,6.63462 -6.39222,14.90316 -16.82815,14.90316c-41.42075,0 -146.54351,0 -168.52511,0c-7.94007,0 -14.34643,-6.75908 -14.34643,-13.05105z" fill="url(#color-1)"/><path d="M50.7857,298.8634h43v107.10055h-42.99998z" fill="#7c7464"/><path d="M-34.21431,298.6134h43v107.10055h-42.99998z" fill="#7c7464"/><path d="M-70.55067,328.51446c0,0 -0.09279,-21.05637 -0.09279,-25.92258c0,-1.56759 14.95657,-7.26319 14.95657,-7.26319l182.24949,0.09417c-1.09205,4.10494 1.03328,8.43796 1.03328,12.7895c0,6.76737 0,13.53474 0,20.30211z" fill="url(#color-2)"/><path d="M-76.60313,280.93119c0,0 -0.02698,0.32297 -0.04609,-1.1973c-0.14226,-12.98086 7.39156,-11.54604 12.82201,-11.54604c18.31743,0 126.34193,0 190.94752,0c0.08427,0.56076 0.21511,1.10627 0.38845,1.63249c0,2.00437 -0.12131,6.40426 0.05397,11.11086z" fill="#94bc85"/><path d="M-76.67051,305.17407c0,-4.21713 0,-14.07115 0,-14.07115c0,0 115.42392,0.21806 155.94205,0.29461c25.87698,0.04889 9.9776,23.16198 -19.02797,23.16198c-48.63396,0 -95.63587,0 -112.38018,0c-6.10971,0 -9.62673,0 -14.17734,0c-10.0914,0 -10.35657,-5.9413 -10.35657,-9.38544z" fill="#80a374"/><path d="M-76.70373,301.17409v-22c0,0 2.89607,0 6.7414,0c15.983,0 126.00965,0 190.28373,0c0.01954,0.86766 0.02189,6.7431 0.01825,12.20481c-0.00024,0.3577 -0.0005,0.71363 -0.00079,1.06625c-0.00369,4.53229 -0.01108,8.51984 -0.01554,8.72894z" fill="url(#color-3)"/><g><path d="M-67.69474,280.9312c0.17528,-4.7066 0.05397,-9.10649 0.05397,-11.11086c0.17334,-0.52622 0.30418,-1.07173 0.38845,-1.63249c64.60559,0 172.63009,0 190.94752,0c5.43045,0 12.96427,-1.43482 12.82201,11.54604c-0.01911,1.52027 -0.04609,1.1973 -0.04609,1.1973z" data-paper-data="{&quot;index&quot;:null}" fill="#94bc85"/><path d="M136.5385,305.17407c0,3.44414 -0.26517,9.38544 -10.35657,9.38544c-4.55061,0 -8.06763,0 -14.17734,0c-16.74431,0 -63.74622,0 -112.38018,0c-29.00557,0 -44.90496,-23.1131 -19.02798,-23.16198c40.51814,-0.07654 155.94205,-0.2946 155.94205,-0.2946c0,0 0,9.85402 0,14.07115z" data-paper-data="{&quot;index&quot;:null}" fill="#80a374"/><path d="M-60.45531,301.17409c-0.00446,-0.2091 -0.01185,-4.19665 -0.01554,-8.72894c-0.00029,-0.35262 -0.00055,-0.70855 -0.00079,-1.06625c-0.00363,-5.46171 -0.00128,-11.33715 0.01826,-12.20481c64.27409,0 174.30073,0 190.28373,0c3.84533,0 6.7414,0 6.7414,0v22z" data-paper-data="{&quot;index&quot;:null}" fill="url(#color-4)"/></g><path d="M150.07171,399.18835v-46.09603h129.67364v46.09603z" fill="#e4cb7f"/><path d="M158.13977,360.67381v-13.30774h121.80288v13.30775z" fill="#b7a367"/><path d="M155.99944,343.09824h126.95339v14.9744c0,0 -14.53489,-0.80408 -24.75119,-1.1784c-12.79532,-0.46881 -21.41758,1.11765 -34.21368,0.7367c-12.05894,-0.359 -20.7426,-0.66512 -32.80295,-0.66512c-6.68025,0 -35.18558,1.10685 -35.18558,1.10685z" fill="url(#color-5)"/><path d="M202.28801,385.44902v13.30775l-98.47929,-0.00001c-0.00266,-4.43442 -0.04101,-8.87118 -0.09077,-13.30774z" fill="#b7a367"/><path d="M106.82144,381.08118c33.18811,0 84.66022,0 93.66667,0c2.6757,0 4.81002,2.73834 4.81002,4.64815c0,1.84313 0,5.80076 0,8.66667c0,1.90408 -1.09362,3.14035 -2.89175,2.86281c-4.75718,-0.73428 -14.44548,-2.10998 -21.85944,-2.38163c-12.79532,-0.46881 -21.41758,1.11765 -34.21368,0.7367c-12.05894,-0.359 -20.7426,-0.66512 -32.80295,-0.66512c-1.81654,0 -5.41582,0.1851 -9.73021,0.42444c-0.02066,-4.7631 -0.07536,-9.52815 -0.13405,-14.29202c1.03137,0 2.08385,0 3.15539,0z" fill="url(#color-6)"/><path d="M106.07164,399.18835v-46.09603h129.67364v46.09603z" fill="#e4cb7f"/><path d="M114.13971,360.67381v-13.30774h121.80288v13.30775z" fill="#b7a367"/><path d="M111.99937,343.09824h126.95339v13.9744c0,0 -14.53489,0.19592 -24.75119,-0.1784c-12.79532,-0.46881 -21.41758,1.11765 -34.21368,0.7367c-12.05894,-0.359 -20.7426,0.33488 -32.80295,0.33488c-6.68025,0 -35.18558,0.10685 -35.18558,0.10685z" fill="url(#color-7)"/><path d="M274.07169,399.43835v-46.09603h121.67364c0,0 0,26.70746 0,35.10434c0,4.69861 -5.60083,10.99169 -11.31429,10.99169c-13.02804,0 -65.86062,0 -93.42953,0c-10.19098,0 -16.92982,0 -16.92982,0z" fill="#e4cb7f"/><path d="M271.73975,360.72382v-13.30774h124.20288v13.30775z" fill="#b7a367"/><path d="M267.39941,357.48927l4.6,-14.44107c0,0 11.97943,0 28.4767,0c33.18811,0 84.66022,0 93.66667,0c2.6757,0 4.81002,2.73834 4.81002,4.64815c0,1.84313 0,5.80076 0,8.66667c0,1.90408 -1.09362,3.14035 -2.89175,2.86281c-4.75718,-0.73428 -14.44548,-2.10998 -21.85944,-2.38163c-12.79532,-0.46881 -21.41758,1.11765 -34.21368,0.7367c-12.05894,-0.359 -20.7426,-0.66512 -32.80295,-0.66512c-4.80879,0 -22.11069,1.29717 -32.09983,1.46368c-3.88753,0.0648 -7.68574,-0.89019 -7.68574,-0.89019z" fill="url(#color-8)"/><path d="M-70.56152,392.97375c0,-16.4355 0,-89.05105 0,-89.05105h199.6997c0,0 0,70.48838 0,87.19894c0,6.63462 -6.39222,14.90316 -16.82815,14.90316c-41.42075,0 -146.54351,0 -168.52511,0c-7.94007,0 -14.34643,-6.75908 -14.34643,-13.05105z" fill="url(#color-9)"/><path d="M50.78573,298.86341h43v107.10055h-42.99998z" fill="#7c7464"/><path d="M-34.21429,298.61341h43v107.10055h-42.99998z" fill="#7c7464"/><path d="M-70.55064,328.51448c0,0 -0.09279,-21.05637 -0.09279,-25.92258c0,-1.56759 14.95657,-7.26319 14.95657,-7.26319l182.24949,0.09417c-1.09205,4.10494 1.03328,8.43796 1.03328,12.7895c0,6.76737 0,13.53474 0,20.30211z" fill="url(#color-10)"/><path d="M-76.60311,280.9312c0,0 -0.02698,0.32297 -0.04609,-1.1973c-0.14226,-12.98086 7.39156,-11.54604 12.82201,-11.54604c18.31743,0 126.34193,0 190.94752,0c0.08427,0.56076 0.21511,1.10627 0.38845,1.63249c0,2.00437 -0.12131,6.40426 0.05397,11.11086z" fill="#94bc85"/><path d="M-76.67049,305.17407c0,-4.21713 0,-14.07115 0,-14.07115c0,0 115.42392,0.21806 155.94205,0.29461c25.87698,0.04889 9.9776,23.16198 -19.02797,23.16198c-48.63396,0 -95.63587,0 -112.38018,0c-6.10971,0 -9.62673,0 -14.17734,0c-10.0914,0 -10.35657,-5.9413 -10.35657,-9.38544z" fill="#80a374"/><path d="M-76.70371,301.1741v-22c0,0 2.89607,0 6.7414,0c15.983,0 126.00965,0 190.28373,0c0.01954,0.86766 0.02189,6.7431 0.01825,12.20481c-0.00024,0.3577 -0.0005,0.71363 -0.00079,1.06625c-0.00369,4.53229 -0.01108,8.51984 -0.01554,8.72894z" fill="url(#color-11)"/><g><path d="M-67.69474,280.9312c0.17528,-4.7066 0.05397,-9.10649 0.05397,-11.11086c0.17334,-0.52622 0.30418,-1.07173 0.38845,-1.63249c64.60559,0 172.63009,0 190.94752,0c5.43045,0 12.96427,-1.43482 12.82201,11.54604c-0.01911,1.52027 -0.04609,1.1973 -0.04609,1.1973z" data-paper-data="{&quot;index&quot;:null}" fill="#94bc85"/><path d="M136.5385,305.17407c0,3.44414 -0.26517,9.38544 -10.35657,9.38544c-4.55061,0 -8.06763,0 -14.17734,0c-16.74431,0 -63.74622,0 -112.38018,0c-29.00557,0 -44.90496,-23.1131 -19.02798,-23.16198c40.51814,-0.07654 155.94205,-0.2946 155.94205,-0.2946c0,0 0,9.85402 0,14.07115z" data-paper-data="{&quot;index&quot;:null}" fill="#80a374"/><path d="M-60.45528,301.1741c-0.00446,-0.2091 -0.01185,-4.19665 -0.01554,-8.72894c-0.00029,-0.35262 -0.00055,-0.70855 -0.00079,-1.06625c-0.00363,-5.46171 -0.00128,-11.33715 0.01826,-12.20481c64.27409,0 174.30073,0 190.28373,0c3.84533,0 6.7414,0 6.7414,0v22z" data-paper-data="{&quot;index&quot;:null}" fill="url(#color-12)"/></g><path d="M238.34384,215.8261c0,0 -0.02745,0.32293 -0.04434,-1.19738c-0.12329,-12.98105 7.40842,-11.53523 12.83886,-11.52729c10.13147,0.01479 47.70663,0.06971 90.19936,0.1318c0.38117,0.59774 0.83656,1.1695 0.97188,1.85128c0.29231,1.47277 -0.2989,3.03173 -0.00658,4.5045c0.21787,1.09774 1.27911,1.90747 1.49711,3.00519c0.21978,1.10665 -0.22504,2.26253 -0.18464,3.38571z" fill="url(#color-13)"/><path d="M238.34385,215.8261c0,0 -0.02745,0.32293 -0.04434,-1.19738c-0.12329,-12.98105 7.40842,-11.53523 12.83886,-11.52729c10.13147,0.01479 47.70663,0.06971 90.19936,0.1318c0.38117,0.59774 0.83656,1.1695 0.97188,1.85128c0.29231,1.47277 -0.2989,3.03173 -0.00658,4.5045c0.21787,1.09774 1.27911,1.90747 1.49711,3.00519c0.21978,1.10665 -0.22504,2.26253 -0.18464,3.38571z" fill="#94bc85"/><path d="M238.24097,240.06885c0.00617,-4.21712 0.02056,-14.07113 0.02056,-14.07113l106.95674,0.35834c-0.02247,0.11922 -0.04766,0.23879 -0.07572,0.35876c-0.3605,1.54111 -1.37186,2.92546 -1.50808,4.5023c-0.41184,4.76663 0.32213,9.58885 -0.12097,14.35267c-0.12556,1.3499 -0.28709,2.6953 -0.47313,4.03764c-36.06376,-0.0527 -67.28402,-0.09831 -80.27923,-0.11729c-6.1097,-0.00893 -9.62671,-0.01407 -14.17732,-0.02072c-10.09139,-0.01474 -10.34788,-5.95642 -10.34285,-9.40056z" fill="#80a374"/><path d="M238.21366,236.06875l0.03214,-21.99999c0,0 3.22708,0.00472 7.51193,0.01098c9.75787,0.01427 50.97301,0.07448 98.02527,0.14324c-0.099,0.72984 -0.24316,1.46368 -0.12682,2.17974c0.55118,3.39257 2.33704,6.67577 1.48643,10.31206c-0.3605,1.54111 -1.37185,2.92546 -1.50808,4.5023c-0.14371,1.66336 -0.1479,3.3335 -0.11127,5.00555z" fill="url(#color-14)"/><path d="M244.34306,215.83033c0.04368,-1.12306 -0.39775,-2.28024 -0.17474,-3.38624c0.2212,-1.09707 1.28481,-1.90372 1.5059,-3.00081c0.29663,-1.47191 -0.29004,-3.03258 0.00659,-4.5045c0.13732,-0.68138 0.59436,-1.25181 0.97728,-1.84842c42.49271,0.06208 80.06789,0.117 90.19936,0.1318c5.43045,0.00793 12.96636,-1.41588 12.80513,11.56477c-0.02134,1.52024 -0.04785,1.19723 -0.04785,1.19723z" data-paper-data="{&quot;index&quot;:null}" fill="url(#color-15)"/><path d="M238.34384,215.82612c0,0 -0.02745,0.32293 -0.04434,-1.19738c-0.12329,-12.98105 7.40842,-11.53523 12.83886,-11.52729c10.13147,0.01479 47.70663,0.06971 90.19936,0.1318c0.38117,0.59774 0.83656,1.1695 0.97188,1.85128c0.29231,1.47277 -0.2989,3.03173 -0.00658,4.5045c0.21787,1.09774 1.27911,1.90747 1.49711,3.00519c0.21978,1.10665 -0.22504,2.26253 -0.18464,3.38571z" fill="url(#color-16)"/><path d="M244.34306,215.83033c0.04368,-1.12306 -0.39775,-2.28024 -0.17474,-3.38624c0.2212,-1.09707 1.28481,-1.90372 1.5059,-3.00081c0.29663,-1.47191 -0.29004,-3.03258 0.00659,-4.5045c0.13732,-0.68138 0.59436,-1.25181 0.97728,-1.84842c42.49271,0.06208 80.06789,0.117 90.19936,0.1318c5.43045,0.00793 12.96636,-1.41588 12.80513,11.56477c-0.02134,1.52024 -0.04785,1.19723 -0.04785,1.19723z" data-paper-data="{&quot;index&quot;:null}" fill="#94bc85"/><path d="M349.64676,240.22714c-0.00503,3.44414 -0.27888,9.38504 -10.37027,9.3703c-4.55061,-0.00665 -8.06763,-0.01178 -14.17733,-0.02071c-12.99521,-0.01899 -44.21546,-0.0646 -80.27922,-0.1173c-0.18212,-1.34286 -0.33971,-2.68873 -0.46134,-4.039c-0.42917,-4.76509 0.31885,-9.58514 -0.07905,-14.35296c-0.13164,-1.57723 -1.13891,-2.96453 -1.49491,-4.5067c-0.02771,-0.12005 -0.05257,-0.2397 -0.07468,-0.35898l106.95733,-0.04579c0,0 -0.01439,9.85401 -0.02056,14.07114z" data-paper-data="{&quot;index&quot;:null}" fill="#80a374"/><path d="M244.37619,236.0733c0.04152,-1.67194 0.04222,-3.34208 -0.09663,-5.00585c-0.13164,-1.57723 -1.13892,-2.96453 -1.49492,-4.5067c-0.83997,-3.63876 0.95547,-6.91672 1.51656,-10.30766c0.11844,-0.71572 -0.02359,-1.44998 -0.12045,-2.1801c47.05226,0.06876 88.26739,0.12898 98.02527,0.14323c4.28486,0.00626 7.51195,0.01098 7.51195,0.01098l-0.03215,21.99998z" data-paper-data="{&quot;index&quot;:null}" fill="url(#color-17)"/><path d="M238.34386,215.82612c0,0 -0.02745,0.32293 -0.04434,-1.19738c-0.12329,-12.98105 7.40842,-11.53523 12.83886,-11.52729c10.13147,0.01479 47.70663,0.06971 90.19936,0.1318c0.38117,0.59774 0.83656,1.1695 0.97188,1.85128c0.29231,1.47277 -0.2989,3.03173 -0.00658,4.5045c0.21787,1.09774 1.27911,1.90747 1.49711,3.00519c0.21978,1.10665 -0.22504,2.26253 -0.18464,3.38571z" fill="#94bc85"/><path d="M238.24098,240.06887c0.00617,-4.21712 0.02056,-14.07113 0.02056,-14.07113l106.95674,0.35834c-0.02247,0.11922 -0.04766,0.23879 -0.07572,0.35876c-0.3605,1.54111 -1.37186,2.92546 -1.50808,4.5023c-0.41184,4.76663 0.32213,9.58885 -0.12097,14.35267c-0.12556,1.3499 -0.28709,2.6953 -0.47313,4.03764c-36.06376,-0.0527 -67.28402,-0.09831 -80.27923,-0.11729c-6.1097,-0.00893 -9.62671,-0.01407 -14.17732,-0.02072c-10.09139,-0.01474 -10.34788,-5.95642 -10.34285,-9.40056z" fill="#80a374"/><path d="M238.21366,236.06875l0.03214,-21.99999c0,0 3.22708,0.00472 7.51193,0.01098c9.75787,0.01427 50.97301,0.07448 98.02527,0.14324c-0.099,0.72984 -0.24316,1.46368 -0.12682,2.17974c0.55118,3.39257 2.33704,6.67577 1.48643,10.31206c-0.3605,1.54111 -1.37185,2.92546 -1.50808,4.5023c-0.14371,1.66336 -0.1479,3.3335 -0.11127,5.00555z" fill="url(#color-18)"/><path d="M407.60135,362.97913c0,32.75563 -12.21082,59.30931 -27.27362,59.30931c-15.06281,0 -27.27363,-26.55368 -27.27363,-59.30931c0,-32.75563 12.21082,-59.3093 27.27363,-59.3093c15.06281,0 27.27362,26.55369 27.27362,59.30931z" fill="none"/></g></g></svg>