<svg version="1.1" xmlns="http://www.w3.org/2000/svg" xmlns:xlink="http://www.w3.org/1999/xlink" width="377.36419" height="295.48793" viewBox="0,0,377.36419,295.48793"><defs><linearGradient x1="169.7689" y1="211.69507" x2="169.7689" y2="224.57698" gradientUnits="userSpaceOnUse" id="color-1"><stop offset="0" stop-color="#a38f68"/><stop offset="1" stop-color="#b7a175"/></linearGradient><linearGradient x1="129.00681" y1="211.69507" x2="129.00681" y2="224.57698" gradientUnits="userSpaceOnUse" id="color-2"><stop offset="0" stop-color="#a38f68"/><stop offset="1" stop-color="#b7a175"/></linearGradient><linearGradient x1="381.7689" y1="139.69507" x2="381.7689" y2="152.57698" gradientUnits="userSpaceOnUse" id="color-3"><stop offset="0" stop-color="#a38f68"/><stop offset="1" stop-color="#b7a175"/></linearGradient><linearGradient x1="341.00681" y1="139.69507" x2="341.00681" y2="152.57698" gradientUnits="userSpaceOnUse" id="color-4"><stop offset="0" stop-color="#a38f68"/><stop offset="1" stop-color="#b7a175"/></linearGradient></defs><g transform="translate(-66.70576,-124.84702)"><g data-paper-data="{&quot;isPaintingLayer&quot;:true}" fill-rule="nonzero" stroke="none" stroke-linecap="butt" stroke-linejoin="miter" stroke-miterlimit="10" stroke-dasharray="" stroke-dashoffset="0" style="mix-blend-mode: normal"><path d="M127.64875,420.33495c0,0 0,-109.63004 0,-139.7534c0,-19.3673 -19.02089,-22.91075 -19.02089,-22.91075h78.32105c0,0 -18.47744,4.13633 -18.47744,21.82384c0,29.82438 0,140.84031 0,140.84031z" fill="#75674b" stroke-width="0"/><path d="M127.64875,280.58151c0,0 -0.03538,-1.64109 -0.10308,-2.41848c-1.50218,-17.24788 -18.91781,-20.49228 -18.91781,-20.49228h78.32105c0,0 -16.88933,4.27756 -18.37355,20.11038c-0.06821,0.72766 -0.10389,2.59686 -0.10389,2.59686z" fill="#5d523b" stroke-width="0"/><path d="M82.05555,252.96268c0,-2.63867 0,-25.63301 0,-33.63374c0,-3.85627 2.59203,2.56424 5.91435,2.56424c9.81437,0 60.40946,0 103.7923,0c0.3169,7.07168 0.63917,14.14369 1.15928,21.18972c0.24207,3.27939 0.86026,6.52944 0.98907,9.81523c0.08175,2.08546 0.13317,3.91836 0.1594,5.57084c-44.23373,0 -97.0038,0 -106.6435,0c-3.04029,0 -5.37089,-2.51401 -5.37089,-5.50629z" fill="#b7a175" stroke-width="0"/><path d="M82.05555,223.85237c0,0 0,-3.89316 0,-5.54324c0,-3.85627 2.59203,-6.61406 5.91435,-6.61406c9.77858,0 60.04106,0 103.31749,0c0.2118,4.20089 0.39279,8.40636 0.58342,12.6109z" fill="url(#color-1)" stroke-width="0"/><path d="M131.12753,307.97587c0,-2.4559 0,-5.45641 0,-6.91645c0,-1.65335 2.17734,-3.99392 4.43787,-3.99392c2.63347,0 9.34651,0 14.025,0c2.82181,0 4.90348,1.90788 4.90348,3.80179c0,2.12683 0,5.10487 0,6.5322c0,1.97927 -1.88936,4.37817 -4.51923,4.37817c-4.90287,0 -12.37945,0 -14.98562,0c-1.78161,0 -3.86151,-1.7018 -3.86151,-3.80179z" fill="#645a42" stroke-width="NaN"/><path d="M121.253,256.15633c0,32.75563 -12.21082,59.30931 -27.27362,59.30931c-15.06281,0 -27.27362,-26.55368 -27.27362,-59.30931c0,-32.75563 12.21082,-59.30931 27.27362,-59.30931c15.06281,0 27.27362,26.55369 27.27362,59.30931z" fill="none" stroke-width="0"/><g stroke-width="0"><path d="M216.72015,252.96269c0,2.99228 -2.3306,5.50629 -5.37089,5.50629c-9.6397,0 -62.40976,0 -106.64349,0c0.02623,-1.65249 0.07764,-3.48539 0.1594,-5.57085c0.12881,-3.28579 0.74699,-6.53583 0.98907,-9.81522c0.52011,-7.04603 0.84239,-14.11804 1.15929,-21.18972c43.38284,0 93.97793,0 103.7923,0c3.32232,0 5.91435,-6.42051 5.91435,-2.56424c0,8.00073 0,30.99507 0,33.63374z" data-paper-data="{&quot;index&quot;:null}" fill="#b7a175"/><path d="M106.9049,224.30597c0.19063,-4.20453 0.37162,-8.41001 0.58342,-12.6109c43.27643,0 93.53891,0 103.31749,0c3.32232,0 5.91435,2.75779 5.91435,6.61406c0,1.65008 0,5.54324 0,5.54324z" data-paper-data="{&quot;index&quot;:null}" fill="url(#color-2)"/><path d="M204.79633,196.84702c15.0628,0 27.27362,26.55368 27.27362,59.30931c0,32.75563 -12.21081,59.30931 -27.27362,59.30931c-15.0628,0 -27.27362,-26.55368 -27.27362,-59.30931c0,-32.75562 12.21081,-59.30931 27.27362,-59.30931z" data-paper-data="{&quot;index&quot;:null}" fill="none"/></g><path d="M339.64875,348.33495c0,0 0,-109.63004 0,-139.7534c0,-19.3673 -19.02089,-22.91075 -19.02089,-22.91075h78.32105c0,0 -18.47744,4.13633 -18.47744,21.82384c0,29.82438 0,140.84031 0,140.84031z" fill="#75674b" stroke-width="0"/><path d="M339.64875,208.58151c0,0 -0.03538,-1.64109 -0.10308,-2.41848c-1.50218,-17.24788 -18.91781,-20.49228 -18.91781,-20.49228h78.32105c0,0 -16.88933,4.27756 -18.37355,20.11038c-0.06821,0.72766 -0.10389,2.59686 -0.10389,2.59686z" fill="#5d523b" stroke-width="0"/><path d="M294.05555,180.96268c0,-2.63867 0,-25.63301 0,-33.63374c0,-3.85627 2.59203,2.56424 5.91435,2.56424c9.81437,0 60.40946,0 103.7923,0c0.3169,7.07168 0.63917,14.14369 1.15928,21.18972c0.24207,3.27939 0.86026,6.52944 0.98907,9.81523c0.08175,2.08546 0.13317,3.91836 0.1594,5.57084c-44.23373,0 -97.0038,0 -106.6435,0c-3.04029,0 -5.37089,-2.51401 -5.37089,-5.50629z" fill="#b7a175" stroke-width="0"/><path d="M294.05555,151.85237c0,0 0,-3.89316 0,-5.54324c0,-3.85627 2.59203,-6.61406 5.91435,-6.61406c9.77858,0 60.04106,0 103.31749,0c0.2118,4.20089 0.39279,8.40636 0.58342,12.6109z" fill="url(#color-3)" stroke-width="0"/><path d="M343.12753,235.97587c0,-2.4559 0,-5.45641 0,-6.91645c0,-1.65335 2.17734,-3.99392 4.43787,-3.99392c2.63347,0 9.34651,0 14.025,0c2.82181,0 4.90348,1.90788 4.90348,3.80179c0,2.12683 0,5.10487 0,6.5322c0,1.97927 -1.88936,4.37817 -4.51923,4.37817c-4.90287,0 -12.37945,0 -14.98562,0c-1.78161,0 -3.86151,-1.7018 -3.86151,-3.80179z" fill="#645a42" stroke-width="NaN"/><path d="M333.253,184.15633c0,32.75563 -12.21082,59.30931 -27.27362,59.30931c-15.06281,0 -27.27362,-26.55368 -27.27362,-59.30931c0,-32.75563 12.21082,-59.30931 27.27362,-59.30931c15.06281,0 27.27362,26.55369 27.27362,59.30931z" fill="none" stroke-width="0"/><g stroke-width="0"><path d="M428.72015,180.96269c0,2.99228 -2.3306,5.50629 -5.37089,5.50629c-9.6397,0 -62.40976,0 -106.64349,0c0.02623,-1.65249 0.07764,-3.48539 0.1594,-5.57085c0.12881,-3.28578 0.74699,-6.53583 0.98906,-9.81522c0.52011,-7.04603 0.84238,-14.11804 1.15928,-21.18972c43.38284,0 93.97793,0 103.7923,0c3.32232,0 5.91435,-6.42051 5.91435,-2.56424c0,8.00073 0,30.99507 0,33.63374z" data-paper-data="{&quot;index&quot;:null}" fill="#b7a175"/><path d="M318.9049,152.30597c0.19063,-4.20453 0.37162,-8.41001 0.58342,-12.6109c43.27643,0 93.53891,0 103.31749,0c3.32232,0 5.91435,2.75779 5.91435,6.61406c0,1.65008 0,5.54324 0,5.54324z" data-paper-data="{&quot;index&quot;:null}" fill="url(#color-4)"/><path d="M416.79633,124.84702c15.0628,0 27.27362,26.55368 27.27362,59.30931c0,32.75563 -12.21081,59.30931 -27.27362,59.30931c-15.0628,0 -27.27362,-26.55368 -27.27362,-59.30931c0,-32.75562 12.21081,-59.30931 27.27362,-59.30931z" data-paper-data="{&quot;index&quot;:null}" fill="none"/></g><path d="M140.12753,341.97587c0,-2.4559 0,-5.45641 0,-6.91645c0,-1.65335 2.17734,-3.99392 4.43787,-3.99392c2.63347,0 9.34651,0 14.025,0c2.82181,0 4.90348,1.90788 4.90348,3.80179c0,2.12683 0,5.10487 0,6.5322c0,1.97927 -1.88936,4.37817 -4.51923,4.37817c-4.90287,0 -12.37945,0 -14.98562,0c-1.78161,0 -3.86151,-1.7018 -3.86151,-3.80179z" fill="#645a42" stroke-width="NaN"/><path d="M346.12753,269.97587c0,-2.4559 0,-5.45641 0,-6.91645c0,-1.65335 2.17734,-3.99392 4.43787,-3.99392c2.63347,0 9.34651,0 14.025,0c2.82181,0 4.90348,1.90788 4.90348,3.80179c0,2.12683 0,5.10487 0,6.5322c0,1.97927 -1.88936,4.37817 -4.51923,4.37817c-4.90287,0 -12.37945,0 -14.98562,0c-1.78161,0 -3.86151,-1.7018 -3.86151,-3.80179z" fill="#645a42" stroke-width="NaN"/><path d="M131.12753,355.97587c0,-2.4559 0,-5.45641 0,-6.91645c0,-1.65335 2.17734,-3.99392 4.43787,-3.99392c2.63347,0 9.34651,0 14.025,0c2.82181,0 4.90348,1.90788 4.90348,3.80179c0,2.12683 0,5.10487 0,6.5322c0,1.97927 -1.88936,4.37817 -4.51923,4.37817c-4.90287,0 -12.37945,0 -14.98562,0c-1.78161,0 -3.86151,-1.7018 -3.86151,-3.80179z" fill="#645a42" stroke-width="NaN"/><path d="M350.12753,281.97587c0,-2.4559 0,-5.45641 0,-6.91645c0,-1.65335 2.17734,-3.99392 4.43787,-3.99392c2.63347,0 9.34651,0 14.025,0c2.82181,0 4.90348,1.90788 4.90348,3.80179c0,2.12683 0,5.10487 0,6.5322c0,1.97927 -1.88936,4.37817 -4.51923,4.37817c-4.90287,0 -12.37945,0 -14.98562,0c-1.78161,0 -3.86151,-1.7018 -3.86151,-3.80179z" fill="#645a42" stroke-width="NaN"/><path d="M345.12753,318.97587c0,-2.4559 0,-5.45641 0,-6.91645c0,-1.65335 2.17734,-3.99392 4.43787,-3.99392c2.63347,0 9.34651,0 14.025,0c2.82181,0 4.90348,1.90788 4.90348,3.80179c0,2.12683 0,5.10487 0,6.5322c0,1.97927 -1.88936,4.37817 -4.51923,4.37817c-4.90287,0 -12.37945,0 -14.98562,0c-1.78161,0 -3.86151,-1.7018 -3.86151,-3.80179z" fill="#645a42" stroke-width="NaN"/></g></g></svg>