<svg version="1.1" xmlns="http://www.w3.org/2000/svg" xmlns:xlink="http://www.w3.org/1999/xlink" width="379.90366" height="94.38433" viewBox="0,0,379.90366,94.38433"><defs><linearGradient x1="206.04375" y1="109.81071" x2="206.04375" y2="191.59026" gradientUnits="userSpaceOnUse" id="color-1"><stop offset="0" stop-color="#7e7463"/><stop offset="1" stop-color="#847c6b"/></linearGradient><linearGradient x1="204.48852" y1="124.51254" x2="204.48852" y2="157.57958" gradientUnits="userSpaceOnUse" id="color-2"><stop offset="0" stop-color="#454037"/><stop offset="1" stop-color="#454037" stop-opacity="0"/></linearGradient><linearGradient x1="301.62498" y1="108.23921" x2="301.62498" y2="130.23921" gradientUnits="userSpaceOnUse" id="color-3"><stop offset="0" stop-color="#95bd86"/><stop offset="1" stop-color="#80a374"/></linearGradient><linearGradient x1="137.79173" y1="108.23923" x2="137.79173" y2="130.23921" gradientUnits="userSpaceOnUse" id="color-4"><stop offset="0" stop-color="#95bd86"/><stop offset="1" stop-color="#80a374"/></linearGradient></defs><g transform="translate(-57.36025,-97.20594)"><g data-paper-data="{&quot;isPaintingLayer&quot;:true}" fill-rule="nonzero" stroke="none" stroke-width="0" stroke-linecap="butt" stroke-linejoin="miter" stroke-miterlimit="10" stroke-dasharray="" stroke-dashoffset="0" style="mix-blend-mode: normal"><path d="M67.23147,191.59026c0,0 3.15689,-64.81233 3.15689,-69.82328c0,-1.0442 -0.04405,-3.24974 -0.06451,-5.51349c-0.02412,-2.66985 -0.01541,-5.42067 0.13715,-6.44277h360.32646c0,0 0,59.88915 0,72.58927c0,4.51893 -3.95863,9.19027 -9.28746,9.19027c-32.91166,0 -354.26853,0 -354.26853,0z" data-paper-data="{&quot;index&quot;:null}" fill="url(#color-1)"/><path d="M66.9643,157.5796c0,-6.76737 0,-13.53474 0,-20.30211c0,-4.35154 3.90502,-8.68456 1.89852,-12.7895l334.86004,-0.09417c0,0 27.48078,5.6956 27.48078,7.26319c0,4.86621 -0.17049,25.92258 -0.17049,25.92258z" data-paper-data="{&quot;index&quot;:null}" fill="url(#color-2)"/><path d="M261.43606,143.62467c0,0 -11.01279,0 -16.6959,0c-15.57515,0 -59.2952,0 -104.53334,0c-26.98029,0 -54.50056,0 -76.91217,0c0,-2.11572 0,-4.23144 0,-6.34716c0,-5.22796 0.04893,-16.69466 0.04893,-16.69466l198.05146,-0.41477z" data-paper-data="{&quot;index&quot;:null}" fill="#80a374"/><path d="M63.32771,109.99634c0.17764,-4.7066 0.0547,-9.10649 0.0547,-11.11086c0.17567,-0.52622 0.30827,-1.07173 0.39367,-1.63249c65.47364,0 198.14379,0 198.14379,0l-0.20093,12.74334z" data-paper-data="{&quot;index&quot;:null}" fill="#94bc85"/><path d="M232.99745,109.99632c0.17528,-4.7066 0.05397,-9.10649 0.05397,-11.11086c0.17334,-0.52622 0.30418,-1.07173 0.38845,-1.63249c64.60559,0 172.63009,0 190.94752,0c5.43045,0 12.96427,-1.43482 12.82201,11.54604c-0.01911,1.52027 -0.04609,1.1973 -0.04609,1.1973z" data-paper-data="{&quot;index&quot;:null}" fill="#94bc85"/><path d="M437.23069,134.23921c0,3.44414 -0.26517,9.38544 -10.35657,9.38544c-4.55061,0 -8.06763,0 -14.17734,0c-16.74431,0 -63.74622,0 -112.38018,0c-29.00557,0 -58.59166,0 -82.68561,0c0,-2.11572 0,-4.23144 0,-6.34716c0,-5.22796 0.0526,-16.69466 0.0526,-16.69466l219.54709,-0.41477c0,0 0,9.85402 0,14.07115z" data-paper-data="{&quot;index&quot;:null}" fill="#80a374"/><path d="M217.71637,130.23921c-0.00497,-0.2091 -0.01321,-4.19665 -0.01732,-8.72894c-0.00032,-0.35262 -0.00061,-0.70855 -0.00088,-1.06625c-0.00405,-5.46171 -0.00143,-11.33715 0.02034,-12.20481c71.62071,0 194.22357,0 212.03345,0c4.28486,0 7.51195,0 7.51195,0v22z" data-paper-data="{&quot;index&quot;:null}" fill="url(#color-3)"/><path d="M57.37922,130.23921c-0.00476,-0.2091 -0.01266,-4.19665 -0.0166,-8.72894c-0.00031,-0.35262 -0.00059,-0.70855 -0.00084,-1.06625c-0.00388,-5.46171 -0.00137,-11.33715 0.01949,-12.20481c68.63659,0 204.10647,0 204.10647,0l-0.06127,22z" data-paper-data="{&quot;index&quot;:null}" fill="url(#color-4)"/></g></g></svg>