<svg version="1.1" xmlns="http://www.w3.org/2000/svg" xmlns:xlink="http://www.w3.org/1999/xlink" width="85.63007" height="149.07837" viewBox="0,0,85.63007,149.07837"><defs><linearGradient x1="240" y1="97.8423" x2="240" y2="196.15772" gradientUnits="userSpaceOnUse" id="color-1"><stop offset="0" stop-color="#444444"/><stop offset="1" stop-color="#8b8b8b"/></linearGradient><linearGradient x1="240" y1="97.8423" x2="240" y2="196.1577" gradientUnits="userSpaceOnUse" id="color-2"><stop offset="0" stop-color="#ffca1b"/><stop offset="1" stop-color="#e5bc34"/></linearGradient><linearGradient x1="242.18439" y1="-139.27103" x2="242.18439" y2="470.3386" gradientUnits="userSpaceOnUse" id="color-3"><stop offset="0" stop-color="#b7a175"/><stop offset="1" stop-color="#9f8c66"/></linearGradient><linearGradient x1="240" y1="190.3423" x2="240" y2="197.90772" gradientUnits="userSpaceOnUse" id="color-4"><stop offset="0" stop-color="#444444"/><stop offset="1" stop-color="#8b8b8b"/></linearGradient><linearGradient x1="200.81899" y1="205.75771" x2="200.81899" y2="393.62737" gradientUnits="userSpaceOnUse" id="color-5"><stop offset="0" stop-color="#7e7463"/><stop offset="1" stop-color="#847c6b"/></linearGradient><linearGradient x1="201.20607" y1="220.45957" x2="201.20607" y2="253.5266" gradientUnits="userSpaceOnUse" id="color-6"><stop offset="0" stop-color="#454037"/><stop offset="1" stop-color="#454037" stop-opacity="0"/></linearGradient><linearGradient x1="200.8548" y1="204.18623" x2="200.8548" y2="226.18621" gradientUnits="userSpaceOnUse" id="color-7"><stop offset="0" stop-color="#95bd86"/><stop offset="1" stop-color="#80a374"/></linearGradient><linearGradient x1="238.44838" y1="55.74135" x2="238.44838" y2="112.79843" gradientUnits="userSpaceOnUse" id="color-8"><stop offset="0" stop-color="#8e7e5e"/><stop offset="1" stop-color="#b7a682"/></linearGradient><linearGradient x1="242.2226" y1="55.14132" x2="242.2226" y2="112.79838" gradientUnits="userSpaceOnUse" id="color-9"><stop offset="0" stop-color="#af9a70"/><stop offset="1" stop-color="#d1bb8c"/></linearGradient></defs><g transform="translate(-201.62824,-90.5353)"><g data-paper-data="{&quot;isPaintingLayer&quot;:true}" fill-rule="nonzero" stroke-linejoin="miter" stroke-miterlimit="10" stroke-dasharray="" stroke-dashoffset="0" style="mix-blend-mode: normal"><path d="M226.41814,196.15772v-98.31542h27.16372v98.31542z" fill="url(#color-1)" stroke="#998239" stroke-width="5.5" stroke-linecap="butt"/><path d="M226.41814,196.1577v-98.31542h27.16372v98.31542z" fill="url(#color-2)" stroke="none" stroke-width="NaN" stroke-linecap="butt"/><g fill="none" stroke="#998239"><path d="M238.64452,140.75327c2.49903,-0.53565 4.95911,1.05599 5.49477,3.55501c0.53565,2.49903 -1.05599,4.95911 -3.55501,5.49477c-2.49903,0.53565 -4.95911,-1.05599 -5.49477,-3.55501c-0.53565,-2.49903 1.05599,-4.95911 3.55501,-5.49477z" data-paper-data="{&quot;index&quot;:null}" stroke-width="5" stroke-linecap="butt"/><path d="M243.91264,162.51222l-2.56899,-12.22637" data-paper-data="{&quot;index&quot;:null}" stroke-width="5" stroke-linecap="round"/><path d="M239.32046,157.26501l3.07718,-0.65957l0.04826,0.22515l-3.07718,0.65957z" data-paper-data="{&quot;index&quot;:null}" stroke-width="3.5" stroke-linecap="butt"/><path d="M239.09633,163.20683l3.07718,-0.65957l0.04826,0.22516l-3.07718,0.65957z" data-paper-data="{&quot;index&quot;:null}" stroke-width="5" stroke-linecap="butt"/></g><path d="M225.558,91.53429c-0.16596,-0.01113 -0.33097,-0.02695 -0.49512,-0.04706c1.5408,-0.02652 3.08371,-0.05489 4.62931,-0.08518c1.42973,-0.02802 2.85966,-0.07459 4.2897,-0.13204c-2.80799,0.27579 -5.61578,0.45265 -8.42389,0.26428z" data-paper-data="{&quot;index&quot;:null}" fill="url(#color-3)" stroke="none" stroke-width="0" stroke-linecap="butt"/><path d="M226.41814,197.90772v-7.56542h27.16372v7.56542z" fill="url(#color-4)" stroke="#665726" stroke-width="5.5" stroke-linecap="butt"/><path d="M226.41814,197.9077v-10.31542h27.16372v10.31542z" fill="#c19915" stroke="none" stroke-width="NaN" stroke-linecap="butt"/><path d="M282.56735,210.62196c-1.28634,2.67969 -3.1112,5.09782 -5.05762,7.34434c-1.03248,1.19167 -2.95153,1.50563 -3.77506,2.8502c-2.04194,3.33382 -2.64811,7.39882 -4.58307,10.79584c-0.80402,1.41154 -2.33247,2.26165 -3.49869,3.39248c-3.06835,1.35278 -6.56679,3.99259 -9.75472,4.24155c-3.02469,0.2362 -6.10443,0.6151 -9.10065,0.13839c-1.04273,-0.16591 -1.72764,-1.27263 -2.7285,-1.60893c-4.36494,-1.46666 -9.2811,-1.47211 -13.30805,-3.70535c-6.97693,-3.86922 -14.19116,-10.11823 -16.75115,-18.04567c-0.4709,-1.45824 -0.40942,-3.03752 -0.64588,-4.55155c-0.29788,-1.90729 -0.5406,-3.81216 -0.74553,-5.71552h71.76112c-0.49742,1.66415 -1.06251,3.30249 -1.81219,4.86422z" data-paper-data="{&quot;index&quot;:null}" fill="url(#color-5)" stroke="none" stroke-width="0" stroke-linecap="butt"/><path d="M273.73466,220.8165c-2.04194,3.33382 -2.64811,7.39882 -4.58307,10.79584c-0.80402,1.41154 -2.33247,2.26165 -3.49869,3.39248c-3.06835,1.35278 -6.56679,3.99259 -9.75472,4.24155c-3.02469,0.2362 -6.10443,0.6151 -9.10065,0.13839c-1.04273,-0.16591 -1.72764,-1.27263 -2.7285,-1.60893c-4.36494,-1.46666 -9.2811,-1.47211 -13.30805,-3.70535c-5.64095,-3.12833 -11.43702,-7.8123 -14.80293,-13.68125l58.13071,-0.03003c-0.13242,0.13896 -0.25172,0.29017 -0.35409,0.45731z" data-paper-data="{&quot;index&quot;:null}" fill="url(#color-6)" stroke="none" stroke-width="0" stroke-linecap="butt"/><path d="M277.50973,217.96631c-1.03248,1.19167 -2.95153,1.50563 -3.77506,2.8502c-2.04194,3.33382 -2.64811,7.39882 -4.58307,10.79584c-0.80402,1.41154 -2.33247,2.26165 -3.49869,3.39248c-3.06835,1.35278 -6.56679,3.99259 -9.75472,4.24155c-1.43067,0.11172 -2.87365,0.25537 -4.31428,0.3253c-1.01108,0 -2.02926,0 -3.05414,0c-0.57983,-0.03553 -1.15757,-0.09548 -1.73222,-0.18691c-1.04273,-0.16591 -1.72764,-1.27263 -2.7285,-1.60893c-4.36494,-1.46666 -9.2811,-1.47211 -13.30805,-3.70535c-6.88238,-3.81679 -13.99568,-9.9493 -16.64452,-17.7243l64.85356,-0.13582c-0.4742,0.59751 -0.96328,1.18232 -1.46028,1.75595z" data-paper-data="{&quot;index&quot;:null}" fill="#80a374" stroke="none" stroke-width="0" stroke-linecap="butt"/><path d="M282.56735,210.62196c-1.28634,2.67969 -3.1112,5.09782 -5.05762,7.34434c-1.03248,1.19167 -2.95153,1.50563 -3.77506,2.8502c-1.02015,1.66556 -1.68193,3.51362 -2.33008,5.36971h-51.04806c-2.82529,-2.95043 -5.12018,-6.36328 -6.3467,-10.1614c-0.4709,-1.45824 -0.40942,-3.03752 -0.64588,-4.55155c-0.37987,-2.43232 -0.67005,-4.86071 -0.90654,-7.28705c26.39407,0 52.19293,0 72.3737,0c-0.61275,2.20067 -1.279,4.38431 -2.26376,6.43575z" data-paper-data="{&quot;index&quot;:null}" fill="url(#color-7)" stroke="none" stroke-width="0" stroke-linecap="butt"/><path d="M201.62824,101.66861c0,-2.24002 0,-5.77486 0,-9.91342c9.34194,-0.05527 18.65301,-0.16872 28.06396,-0.35314c9.76868,-0.19143 19.54662,-1.24935 29.30282,-0.71989c1.03821,0.05634 1.91778,0.95551 2.95683,0.99333c1.40774,0.05124 6.81762,0.02867 13.31664,-0.02275c0,1.80732 0,3.35223 0,4.51587c0,3.24372 -15.08192,16.6298 -15.08192,16.6298c0,0 -37.20201,0 -47.50715,0c-4.97026,0 -11.05117,-3.00339 -11.05117,-11.1298z" fill="url(#color-8)" stroke="none" stroke-width="0" stroke-linecap="butt"/><path d="M209.17673,112.32281c0,0 0,-12.74333 0,-20.62523c6.81917,-0.06396 13.64067,-0.16081 20.51547,-0.29553c9.76868,-0.19143 19.54662,-1.24935 29.30282,-0.71989c1.03821,0.05634 1.91778,0.95551 2.95683,0.99333c1.40773,0.05124 6.81762,0.02867 13.31663,-0.02275c0,3.19935 0,5.94973 0,7.87781c0,9.92476 -7.73807,13.26786 -13.8242,13.26786c-8.40577,0 -36.9392,0 -47.91546,0c-0.83448,0 -1.85319,-0.01094 -2.46815,-0.09202c-1.38357,-0.18241 -1.88393,-0.38358 -1.88393,-0.38358z" fill="url(#color-9)" stroke="none" stroke-width="0" stroke-linecap="butt"/><path d="M285.79488,200.70674c-0.50052,1.73719 -0.94661,3.50196 -1.47114,5.23658h-71.68523c-0.46332,-4.25208 -0.73527,-8.49647 -1.00955,-12.74334c27.50503,0 54.74706,0 75.62935,0c-0.94372,2.28877 -0.76509,5.083 -1.46344,7.50676z" data-paper-data="{&quot;index&quot;:null}" fill="#94bc85" stroke="none" stroke-width="0" stroke-linecap="butt"/></g></g></svg>