<svg version="1.1" xmlns="http://www.w3.org/2000/svg" xmlns:xlink="http://www.w3.org/1999/xlink" width="498.5997" height="291.25752" viewBox="0,0,498.5997,291.25752"><defs><linearGradient x1="211.16153" y1="325.79095" x2="213.17621" y2="349.52347" gradientUnits="userSpaceOnUse" id="color-1"><stop offset="0" stop-color="#5c5549"/><stop offset="1" stop-color="#756c5e"/></linearGradient><linearGradient x1="195.47923" y1="320.96659" x2="225.77139" y2="318.39512" gradientUnits="userSpaceOnUse" id="color-2"><stop offset="0" stop-color="#746b5d"/><stop offset="1" stop-color="#746b5d" stop-opacity="0"/></linearGradient><linearGradient x1="199.25582" y1="318.87012" x2="222.25789" y2="320.5372" gradientUnits="userSpaceOnUse" id="color-3"><stop offset="0" stop-color="#514b41"/><stop offset="1" stop-color="#36322b"/></linearGradient><linearGradient x1="317.34148" y1="229.19442" x2="317.34148" y2="355.48134" gradientUnits="userSpaceOnUse" id="color-4"><stop offset="0" stop-color="#bf888e" stop-opacity="0"/><stop offset="1" stop-color="#bf888e"/></linearGradient><linearGradient x1="293.34322" y1="231.48366" x2="293.34322" y2="370.54585" gradientUnits="userSpaceOnUse" id="color-5"><stop offset="0" stop-color="#bf888e" stop-opacity="0"/><stop offset="1" stop-color="#bf888e"/></linearGradient><linearGradient x1="292.33546" y1="219.92304" x2="292.33546" y2="362.40596" gradientUnits="userSpaceOnUse" id="color-6"><stop offset="0" stop-color="#bf888e" stop-opacity="0"/><stop offset="1" stop-color="#bf888e"/></linearGradient><linearGradient x1="296.88508" y1="203.09041" x2="296.88508" y2="216.01294" gradientUnits="userSpaceOnUse" id="color-7"><stop offset="0" stop-color="#afe09f"/><stop offset="1" stop-color="#8fb681"/></linearGradient><linearGradient x1="291.07975" y1="203.04991" x2="291.07975" y2="215.97998" gradientUnits="userSpaceOnUse" id="color-8"><stop offset="0" stop-color="#afe09f"/><stop offset="1" stop-color="#8fb681"/></linearGradient><linearGradient x1="269.50818" y1="228.69442" x2="269.50818" y2="354.98134" gradientUnits="userSpaceOnUse" id="color-9"><stop offset="0" stop-color="#bf888e" stop-opacity="0"/><stop offset="1" stop-color="#bf888e"/></linearGradient><linearGradient x1="214.07918" y1="214.02907" x2="214.04703" y2="236.02905" gradientUnits="userSpaceOnUse" id="color-10"><stop offset="0" stop-color="#95bd86"/><stop offset="1" stop-color="#80a374"/></linearGradient><linearGradient x1="373.88463" y1="214.26708" x2="373.85248" y2="236.26705" gradientUnits="userSpaceOnUse" id="color-11"><stop offset="0" stop-color="#95bd86"/><stop offset="1" stop-color="#80a374"/></linearGradient><linearGradient x1="-35.84179" y1="238.84644" x2="-35.84179" y2="273.28963" gradientUnits="userSpaceOnUse" id="color-12"><stop offset="0" stop-color="#77966b"/><stop offset="1" stop-color="#637d59"/></linearGradient><linearGradient x1="-39.23067" y1="255.33968" x2="-39.23067" y2="274.67134" gradientUnits="userSpaceOnUse" id="color-13"><stop offset="0" stop-color="#77966b"/><stop offset="1" stop-color="#637d59"/></linearGradient><linearGradient x1="-29.82808" y1="239.33498" x2="-29.82808" y2="270.32599" gradientUnits="userSpaceOnUse" id="color-14"><stop offset="0" stop-color="#77966b"/><stop offset="1" stop-color="#637d59"/></linearGradient><linearGradient x1="-25.27589" y1="234.14924" x2="-25.27589" y2="268.59263" gradientUnits="userSpaceOnUse" id="color-15"><stop offset="0" stop-color="#77966b"/><stop offset="1" stop-color="#637d59"/></linearGradient><linearGradient x1="-21.88703" y1="250.64262" x2="-21.88703" y2="269.97436" gradientUnits="userSpaceOnUse" id="color-16"><stop offset="0" stop-color="#77966b"/><stop offset="1" stop-color="#637d59"/></linearGradient><linearGradient x1="-64.23071" y1="254.33968" x2="-64.23071" y2="273.67134" gradientUnits="userSpaceOnUse" id="color-17"><stop offset="0" stop-color="#77966b"/><stop offset="1" stop-color="#637d59"/></linearGradient><linearGradient x1="-59.88701" y1="250.64262" x2="-59.88701" y2="269.97436" gradientUnits="userSpaceOnUse" id="color-18"><stop offset="0" stop-color="#77966b"/><stop offset="1" stop-color="#637d59"/></linearGradient><linearGradient x1="252.57348" y1="400.65362" x2="232.1907" y2="412.28311" gradientUnits="userSpaceOnUse" id="color-19"><stop offset="0" stop-color="#488c1d"/><stop offset="1" stop-color="#78996c"/></linearGradient><linearGradient x1="257.78818" y1="410.34742" x2="237.7712" y2="421.7682" gradientUnits="userSpaceOnUse" id="color-20"><stop offset="0" stop-color="#488c1d"/><stop offset="1" stop-color="#78996c"/></linearGradient><linearGradient x1="252.57348" y1="400.65362" x2="232.1907" y2="412.28311" gradientUnits="userSpaceOnUse" id="color-21"><stop offset="0" stop-color="#488c1d"/><stop offset="1" stop-color="#78996c"/></linearGradient><linearGradient x1="257.78818" y1="410.34742" x2="237.7712" y2="421.7682" gradientUnits="userSpaceOnUse" id="color-22"><stop offset="0" stop-color="#488c1d"/><stop offset="1" stop-color="#78996c"/></linearGradient><linearGradient x1="255.46199" y1="405.93589" x2="229.78678" y2="407.23281" gradientUnits="userSpaceOnUse" id="color-23"><stop offset="0" stop-color="#488c1d"/><stop offset="1" stop-color="#78996c"/></linearGradient><linearGradient x1="255.84793" y1="414.82071" x2="236.79728" y2="415.78307" gradientUnits="userSpaceOnUse" id="color-24"><stop offset="0" stop-color="#488c1d"/><stop offset="1" stop-color="#78996c"/></linearGradient><linearGradient x1="229.81255" y1="406.17306" x2="255.30144" y2="408.44268" gradientUnits="userSpaceOnUse" id="color-25"><stop offset="0" stop-color="#586a51"/><stop offset="1" stop-color="#667c5e"/></linearGradient><linearGradient x1="219.13949" y1="444.99483" x2="203.03111" y2="427.92936" gradientUnits="userSpaceOnUse" id="color-26"><stop offset="0" stop-color="#488c1d"/><stop offset="1" stop-color="#78996c"/></linearGradient><linearGradient x1="210.94883" y1="452.3485" x2="195.12959" y2="435.58935" gradientUnits="userSpaceOnUse" id="color-27"><stop offset="0" stop-color="#488c1d"/><stop offset="1" stop-color="#78996c"/></linearGradient><linearGradient x1="219.13949" y1="444.99483" x2="203.03111" y2="427.92936" gradientUnits="userSpaceOnUse" id="color-28"><stop offset="0" stop-color="#488c1d"/><stop offset="1" stop-color="#78996c"/></linearGradient><linearGradient x1="210.94883" y1="452.3485" x2="195.12959" y2="435.58935" gradientUnits="userSpaceOnUse" id="color-29"><stop offset="0" stop-color="#488c1d"/><stop offset="1" stop-color="#78996c"/></linearGradient><linearGradient x1="214.68728" y1="449.04757" x2="207.37205" y2="424.40233" gradientUnits="userSpaceOnUse" id="color-30"><stop offset="0" stop-color="#488c1d"/><stop offset="1" stop-color="#78996c"/></linearGradient><linearGradient x1="206.14404" y1="451.51788" x2="200.71621" y2="433.23138" gradientUnits="userSpaceOnUse" id="color-31"><stop offset="0" stop-color="#488c1d"/><stop offset="1" stop-color="#78996c"/></linearGradient><linearGradient x1="201.4035" y1="435.72424" x2="217.62523" y2="437.16869" gradientUnits="userSpaceOnUse" id="color-32"><stop offset="0" stop-color="#586a51"/><stop offset="1" stop-color="#667c5e"/></linearGradient><linearGradient x1="188.7656" y1="389.45616" x2="168.38284" y2="401.08567" gradientUnits="userSpaceOnUse" id="color-33"><stop offset="0" stop-color="#488c1d"/><stop offset="1" stop-color="#78996c"/></linearGradient><linearGradient x1="193.98028" y1="399.14999" x2="173.96331" y2="410.57076" gradientUnits="userSpaceOnUse" id="color-34"><stop offset="0" stop-color="#488c1d"/><stop offset="1" stop-color="#78996c"/></linearGradient><linearGradient x1="188.7656" y1="389.45616" x2="168.38284" y2="401.08567" gradientUnits="userSpaceOnUse" id="color-35"><stop offset="0" stop-color="#488c1d"/><stop offset="1" stop-color="#78996c"/></linearGradient><linearGradient x1="193.98028" y1="399.14999" x2="173.96331" y2="410.57076" gradientUnits="userSpaceOnUse" id="color-36"><stop offset="0" stop-color="#488c1d"/><stop offset="1" stop-color="#78996c"/></linearGradient><linearGradient x1="191.65412" y1="394.73846" x2="165.97888" y2="396.03541" gradientUnits="userSpaceOnUse" id="color-37"><stop offset="0" stop-color="#488c1d"/><stop offset="1" stop-color="#78996c"/></linearGradient><linearGradient x1="192.04003" y1="403.62333" x2="172.9894" y2="404.58561" gradientUnits="userSpaceOnUse" id="color-38"><stop offset="0" stop-color="#488c1d"/><stop offset="1" stop-color="#78996c"/></linearGradient><linearGradient x1="191.65412" y1="394.73846" x2="165.97888" y2="396.03541" gradientUnits="userSpaceOnUse" id="color-39"><stop offset="0" stop-color="#78996c"/><stop offset="1" stop-color="#8fa686"/></linearGradient><linearGradient x1="192.04003" y1="403.62333" x2="172.9894" y2="404.58561" gradientUnits="userSpaceOnUse" id="color-40"><stop offset="0" stop-color="#83997c"/><stop offset="1" stop-color="#8fa686"/></linearGradient><linearGradient x1="155.33159" y1="433.79738" x2="139.2232" y2="416.73195" gradientUnits="userSpaceOnUse" id="color-41"><stop offset="0" stop-color="#488c1d"/><stop offset="1" stop-color="#78996c"/></linearGradient><linearGradient x1="147.14093" y1="441.15107" x2="131.3217" y2="424.39194" gradientUnits="userSpaceOnUse" id="color-42"><stop offset="0" stop-color="#488c1d"/><stop offset="1" stop-color="#78996c"/></linearGradient><linearGradient x1="155.33159" y1="433.79738" x2="139.2232" y2="416.73195" gradientUnits="userSpaceOnUse" id="color-43"><stop offset="0" stop-color="#488c1d"/><stop offset="1" stop-color="#78996c"/></linearGradient><linearGradient x1="147.14093" y1="441.15107" x2="131.3217" y2="424.39194" gradientUnits="userSpaceOnUse" id="color-44"><stop offset="0" stop-color="#488c1d"/><stop offset="1" stop-color="#78996c"/></linearGradient><linearGradient x1="150.8794" y1="437.85014" x2="143.56417" y2="413.20489" gradientUnits="userSpaceOnUse" id="color-45"><stop offset="0" stop-color="#488c1d"/><stop offset="1" stop-color="#78996c"/></linearGradient><linearGradient x1="142.33618" y1="440.32044" x2="136.90832" y2="422.03395" gradientUnits="userSpaceOnUse" id="color-46"><stop offset="0" stop-color="#488c1d"/><stop offset="1" stop-color="#78996c"/></linearGradient><linearGradient x1="150.8794" y1="437.85014" x2="143.56417" y2="413.20489" gradientUnits="userSpaceOnUse" id="color-47"><stop offset="0" stop-color="#78996c"/><stop offset="1" stop-color="#8fa686"/></linearGradient><linearGradient x1="142.33618" y1="440.32044" x2="136.90832" y2="422.03395" gradientUnits="userSpaceOnUse" id="color-48"><stop offset="0" stop-color="#83997c"/><stop offset="1" stop-color="#8fa686"/></linearGradient><linearGradient x1="373.42898" y1="394.46383" x2="351.7228" y2="403.38253" gradientUnits="userSpaceOnUse" id="color-49"><stop offset="0" stop-color="#488c1d"/><stop offset="1" stop-color="#78996c"/></linearGradient><linearGradient x1="377.35707" y1="404.74653" x2="356.04042" y2="413.50513" gradientUnits="userSpaceOnUse" id="color-50"><stop offset="0" stop-color="#488c1d"/><stop offset="1" stop-color="#78996c"/></linearGradient><linearGradient x1="373.42898" y1="394.46383" x2="351.7228" y2="403.38253" gradientUnits="userSpaceOnUse" id="color-51"><stop offset="0" stop-color="#488c1d"/><stop offset="1" stop-color="#78996c"/></linearGradient><linearGradient x1="377.35707" y1="404.74653" x2="356.04042" y2="413.50513" gradientUnits="userSpaceOnUse" id="color-52"><stop offset="0" stop-color="#488c1d"/><stop offset="1" stop-color="#78996c"/></linearGradient><linearGradient x1="375.61602" y1="400.07306" x2="349.98657" y2="398.06563" gradientUnits="userSpaceOnUse" id="color-53"><stop offset="0" stop-color="#488c1d"/><stop offset="1" stop-color="#78996c"/></linearGradient><linearGradient x1="374.85901" y1="408.93399" x2="355.84231" y2="407.44452" gradientUnits="userSpaceOnUse" id="color-54"><stop offset="0" stop-color="#488c1d"/><stop offset="1" stop-color="#78996c"/></linearGradient><linearGradient x1="375.61602" y1="400.07306" x2="349.98657" y2="398.06563" gradientUnits="userSpaceOnUse" id="color-55"><stop offset="0" stop-color="#78996c"/><stop offset="1" stop-color="#8fa686"/></linearGradient><linearGradient x1="374.85901" y1="408.93399" x2="355.84231" y2="407.44452" gradientUnits="userSpaceOnUse" id="color-56"><stop offset="0" stop-color="#83997c"/><stop offset="1" stop-color="#8fa686"/></linearGradient><linearGradient x1="334.58312" y1="434.14978" x2="320.79697" y2="415.15892" gradientUnits="userSpaceOnUse" id="color-57"><stop offset="0" stop-color="#488c1d"/><stop offset="1" stop-color="#78996c"/></linearGradient><linearGradient x1="325.51679" y1="440.39198" x2="311.97812" y2="421.742" gradientUnits="userSpaceOnUse" id="color-58"><stop offset="0" stop-color="#488c1d"/><stop offset="1" stop-color="#78996c"/></linearGradient><linearGradient x1="334.58312" y1="434.14978" x2="320.79697" y2="415.15892" gradientUnits="userSpaceOnUse" id="color-59"><stop offset="0" stop-color="#488c1d"/><stop offset="1" stop-color="#78996c"/></linearGradient><linearGradient x1="325.51679" y1="440.39198" x2="311.97812" y2="421.742" gradientUnits="userSpaceOnUse" id="color-60"><stop offset="0" stop-color="#488c1d"/><stop offset="1" stop-color="#78996c"/></linearGradient><linearGradient x1="329.64779" y1="437.59791" x2="325.55449" y2="412.21786" gradientUnits="userSpaceOnUse" id="color-61"><stop offset="0" stop-color="#488c1d"/><stop offset="1" stop-color="#78996c"/></linearGradient><linearGradient x1="320.85826" y1="438.95188" x2="317.82106" y2="420.12018" gradientUnits="userSpaceOnUse" id="color-62"><stop offset="0" stop-color="#488c1d"/><stop offset="1" stop-color="#78996c"/></linearGradient><linearGradient x1="329.64779" y1="437.59791" x2="325.55449" y2="412.21786" gradientUnits="userSpaceOnUse" id="color-63"><stop offset="0" stop-color="#78996c"/><stop offset="1" stop-color="#8fa686"/></linearGradient><linearGradient x1="320.85826" y1="438.95188" x2="317.82106" y2="420.12018" gradientUnits="userSpaceOnUse" id="color-64"><stop offset="0" stop-color="#83997c"/><stop offset="1" stop-color="#8fa686"/></linearGradient><linearGradient x1="29.28831" y1="303.92269" x2="29.28831" y2="406.02491" gradientUnits="userSpaceOnUse" id="color-65"><stop offset="0" stop-color="#7e7463"/><stop offset="1" stop-color="#847c6b"/></linearGradient><linearGradient x1="52.74751" y1="295.44741" x2="52.74751" y2="328.51446" gradientUnits="userSpaceOnUse" id="color-66"><stop offset="0" stop-color="#454037"/><stop offset="1" stop-color="#454037" stop-opacity="0"/></linearGradient><linearGradient x1="45.02177" y1="279.17413" x2="45.02177" y2="301.17413" gradientUnits="userSpaceOnUse" id="color-67"><stop offset="0" stop-color="#95bd86"/><stop offset="1" stop-color="#80a374"/></linearGradient><linearGradient x1="14.84619" y1="279.17413" x2="14.84619" y2="301.17413" gradientUnits="userSpaceOnUse" id="color-68"><stop offset="0" stop-color="#95bd86"/><stop offset="1" stop-color="#80a374"/></linearGradient><linearGradient x1="219.47614" y1="343.09836" x2="219.47614" y2="358.07279" gradientUnits="userSpaceOnUse" id="color-69"><stop offset="0" stop-color="#ecd284"/><stop offset="1" stop-color="#c5af6e"/></linearGradient><linearGradient x1="141.82146" y1="381.0813" x2="141.82146" y2="397.72242" gradientUnits="userSpaceOnUse" id="color-70"><stop offset="0" stop-color="#c5af6e"/><stop offset="1" stop-color="#d8c079"/></linearGradient><linearGradient x1="175.47608" y1="343.09836" x2="175.47608" y2="358.07279" gradientUnits="userSpaceOnUse" id="color-71"><stop offset="0" stop-color="#ecd284"/><stop offset="1" stop-color="#c5af6e"/></linearGradient><linearGradient x1="333.1761" y1="343.04832" x2="333.1761" y2="359.26478" gradientUnits="userSpaceOnUse" id="color-72"><stop offset="0" stop-color="#ecd284"/><stop offset="1" stop-color="#c5af6e"/></linearGradient><linearGradient x1="29.28835" y1="303.92269" x2="29.28835" y2="406.02492" gradientUnits="userSpaceOnUse" id="color-73"><stop offset="0" stop-color="#7e7463"/><stop offset="1" stop-color="#847c6b"/></linearGradient><linearGradient x1="52.74756" y1="295.44748" x2="52.74756" y2="328.51453" gradientUnits="userSpaceOnUse" id="color-74"><stop offset="0" stop-color="#454037"/><stop offset="1" stop-color="#454037" stop-opacity="0"/></linearGradient><linearGradient x1="45.02182" y1="279.17413" x2="45.02182" y2="301.17413" gradientUnits="userSpaceOnUse" id="color-75"><stop offset="0" stop-color="#95bd86"/><stop offset="1" stop-color="#80a374"/></linearGradient><linearGradient x1="14.84624" y1="279.17413" x2="14.84624" y2="301.17413" gradientUnits="userSpaceOnUse" id="color-76"><stop offset="0" stop-color="#95bd86"/><stop offset="1" stop-color="#80a374"/></linearGradient></defs><g transform="translate(99.6469,-158.15755)"><g data-paper-data="{&quot;isPaintingLayer&quot;:true}" fill-rule="nonzero" stroke-miterlimit="10" stroke-dasharray="" stroke-dashoffset="0" style="mix-blend-mode: normal"><path d="M197.88953,333.04161l0.82939,-10.67892l2.80915,10.37005z" data-paper-data="{&quot;index&quot;:null}" fill="#665f56" stroke="none" stroke-width="0" stroke-linecap="butt" stroke-linejoin="miter"/><path d="M201.71957,332.71648l1.38557,-18.11879l4.7425,17.59857z" data-paper-data="{&quot;index&quot;:null}" fill="#665f56" stroke="none" stroke-width="0" stroke-linecap="butt" stroke-linejoin="miter"/><path d="M192.85863,326.50319l-1.04083,-12.26085l37.41215,-3.17595l1.04083,12.26085z" data-paper-data="{&quot;zoomLevel&quot;:1.5487,&quot;index&quot;:null}" fill="#746b5d" stroke="#837969" stroke-width="11.5" stroke-linecap="butt" stroke-linejoin="round"/><path d="M204.79798,350.23472l-2.01468,-23.73259l16.75644,-1.42247l2.01468,23.73259z" data-paper-data="{&quot;index&quot;:null}" fill="url(#color-1)" stroke="none" stroke-width="0" stroke-linecap="butt" stroke-linejoin="miter"/><path d="M192.96024,327.70008l-1.04083,-12.26085l37.41215,-3.17595l1.04083,12.26085z" data-paper-data="{&quot;zoomLevel&quot;:1.5487,&quot;index&quot;:null}" fill="#746b5d" stroke="#746b5d" stroke-width="11.5" stroke-linecap="butt" stroke-linejoin="round"/><path d="M196.25512,330.10652l-1.55178,-18.27976l30.29215,-2.57153l1.55178,18.27976z" data-paper-data="{&quot;index&quot;:null}" fill="url(#color-2)" stroke="none" stroke-width="0" stroke-linecap="butt" stroke-linejoin="miter"/><path d="M215.47838,321.68834c0,0 -9.66447,1.1048 -14.05396,1.6047c-1.14982,0.13095 -2.18802,-0.69514 -2.31894,-1.84475c-0.13095,-1.14982 0.69496,-2.18783 1.84477,-2.31878c3.6801,-0.41912 14.04263,-1.60363 14.04263,-1.60363c0,0 -0.77592,-0.62484 -4.35104,-3.46872c-0.90566,-0.7205 -1.05576,-2.03849 -0.33528,-2.94398c0.7209,-0.90554 2.03869,-1.05583 2.94419,-0.33531c2.89889,2.30577 8.31946,6.6184 8.31946,6.6184c0.90549,0.72053 1.05561,2.03868 0.33528,2.94398c0,0 -3.7212,4.67792 -6.56524,8.25307c-0.72084,0.90613 -2.03882,1.05623 -2.94419,0.33531c-0.90568,-0.72033 -1.05583,-2.03869 -0.33524,-2.9436c2.30609,-2.89974 3.41755,-4.2967 3.41755,-4.2967z" data-paper-data="{&quot;index&quot;:null}" fill="url(#color-3)" stroke="none" stroke-width="0" stroke-linecap="butt" stroke-linejoin="miter"/><path d="M295.82249,355.48134v-126.28691c6.41027,0.97633 12.89714,1.77184 19.21079,2.58218c7.90115,1.01409 15.85378,1.2526 23.82719,1.1755v122.52923z" fill="url(#color-4)" stroke="none" stroke-width="0" stroke-linecap="butt" stroke-linejoin="miter"/><path d="M247.0293,354.5583l44.40837,-123.07463c9.0099,1.67142 18.39669,2.80033 27.42899,3.9596c6.89773,0.88531 13.83471,1.17952 20.79049,1.18867l-48.31946,133.91392z" fill="url(#color-5)" stroke="none" stroke-width="0" stroke-linecap="butt" stroke-linejoin="miter"/><path d="M295.75919,362.40596l-47.20926,-127.54327l40.3618,-14.93963l47.20926,127.54327z" fill="url(#color-6)" stroke="none" stroke-width="0" stroke-linecap="butt" stroke-linejoin="miter"/><path d="M244.34306,215.83038c0.04368,-1.12306 -0.39775,-2.28024 -0.17474,-3.38624c0.2212,-1.09707 1.28481,-1.90372 1.5059,-3.00081c0.29663,-1.47191 -0.29004,-3.03258 0.00659,-4.5045c0.13732,-0.68138 0.59436,-1.25181 0.97728,-1.84842c42.49271,0.06208 80.06789,0.117 90.19936,0.1318c5.43045,0.00793 12.96636,-1.41588 12.80513,11.56477c-0.02134,1.52024 -0.04785,1.19723 -0.04785,1.19723z" data-paper-data="{&quot;index&quot;:null}" fill="url(#color-7)" stroke="none" stroke-width="0" stroke-linecap="butt" stroke-linejoin="miter"/><path d="M238.34384,215.82617c0,0 -0.02745,0.32293 -0.04434,-1.19738c-0.12329,-12.98105 7.40842,-11.53523 12.83886,-11.52729c10.13147,0.01479 47.70663,0.06971 90.19936,0.1318c0.38117,0.59774 0.83656,1.1695 0.97188,1.85128c0.29231,1.47277 -0.2989,3.03173 -0.00658,4.5045c0.21787,1.09774 1.27911,1.90747 1.49711,3.00519c0.21978,1.10665 -0.22504,2.26253 -0.18464,3.38571z" fill="url(#color-8)" stroke="none" stroke-width="0" stroke-linecap="butt" stroke-linejoin="miter"/><path d="M247.98919,354.98134v-126.28691c6.41027,0.97633 12.89714,1.77184 19.21079,2.58218c7.90115,1.01409 15.85378,1.2526 23.82719,1.1755v122.52923z" fill="url(#color-9)" stroke="none" stroke-width="0" stroke-linecap="butt" stroke-linejoin="miter"/><path d="M244.34306,215.83038c0.04368,-1.12306 -0.39775,-2.28024 -0.17474,-3.38624c0.2212,-1.09707 1.28481,-1.90372 1.5059,-3.00081c0.29663,-1.47191 -0.29004,-3.03258 0.00659,-4.5045c0.13732,-0.68138 0.59436,-1.25181 0.97728,-1.84842c42.49271,0.06208 80.06789,0.117 90.19936,0.1318c5.43045,0.00793 12.96636,-1.41588 12.80513,11.56477c-0.02134,1.52024 -0.04785,1.19723 -0.04785,1.19723z" data-paper-data="{&quot;index&quot;:null}" fill="#94bc85" stroke="none" stroke-width="0" stroke-linecap="butt" stroke-linejoin="miter"/><path d="M349.64676,240.22722c-0.00503,3.44414 -0.27888,9.38504 -10.37027,9.3703c-4.55061,-0.00665 -8.06763,-0.01178 -14.17733,-0.02071c-12.99521,-0.01899 -44.21546,-0.0646 -80.27922,-0.1173c-0.18212,-1.34286 -0.33971,-2.68873 -0.46134,-4.039c-0.42917,-4.76509 0.31885,-9.58514 -0.07905,-14.35296c-0.13164,-1.57723 -1.13891,-2.96453 -1.49491,-4.5067c-0.02771,-0.12005 -0.05257,-0.2397 -0.07468,-0.35898l106.95733,-0.04579c0,0 -0.01439,9.85401 -0.02056,14.07114z" data-paper-data="{&quot;index&quot;:null}" fill="#80a374" stroke="none" stroke-width="0" stroke-linecap="butt" stroke-linejoin="miter"/><path d="M244.37619,236.07338c0.04152,-1.67194 0.04222,-3.34208 -0.09663,-5.00585c-0.13164,-1.57723 -1.13892,-2.96453 -1.49492,-4.5067c-0.83997,-3.63876 0.95547,-6.91672 1.51656,-10.30766c0.11844,-0.71572 -0.02359,-1.44998 -0.12045,-2.1801c47.05226,0.06876 88.26739,0.12898 98.02527,0.14323c4.28486,0.00626 7.51195,0.01098 7.51195,0.01098l-0.03215,21.99998z" data-paper-data="{&quot;index&quot;:null}" fill="url(#color-10)" stroke="none" stroke-width="0" stroke-linecap="butt" stroke-linejoin="miter"/><path d="M238.34386,215.82617c0,0 -0.02745,0.32293 -0.04434,-1.19738c-0.12329,-12.98105 7.40842,-11.53523 12.83886,-11.52729c10.13147,0.01479 47.70663,0.06971 90.19936,0.1318c0.38117,0.59774 0.83656,1.1695 0.97188,1.85128c0.29231,1.47277 -0.2989,3.03173 -0.00658,4.5045c0.21787,1.09774 1.27911,1.90747 1.49711,3.00519c0.21978,1.10665 -0.22504,2.26253 -0.18464,3.38571z" fill="#94bc85" stroke="none" stroke-width="0" stroke-linecap="butt" stroke-linejoin="miter"/><path d="M238.24098,240.06892c0.00617,-4.21712 0.02056,-14.07113 0.02056,-14.07113l106.95674,0.35834c-0.02247,0.11922 -0.04766,0.23879 -0.07572,0.35876c-0.3605,1.54111 -1.37186,2.92546 -1.50808,4.5023c-0.41184,4.76663 0.32213,9.58885 -0.12097,14.35267c-0.12556,1.3499 -0.28709,2.6953 -0.47313,4.03764c-36.06376,-0.0527 -67.28402,-0.09831 -80.27923,-0.11729c-6.1097,-0.00893 -9.62671,-0.01407 -14.17732,-0.02072c-10.09139,-0.01474 -10.34788,-5.95642 -10.34285,-9.40056z" fill="#80a374" stroke="none" stroke-width="0" stroke-linecap="butt" stroke-linejoin="miter"/><path d="M238.21366,236.06882l0.03214,-21.99999c0,0 3.22708,0.00472 7.51193,0.01098c9.75787,0.01427 50.97301,0.07448 98.02527,0.14324c-0.099,0.72984 -0.24316,1.46368 -0.12682,2.17974c0.55118,3.39257 2.33704,6.67577 1.48643,10.31206c-0.3605,1.54111 -1.37185,2.92546 -1.50808,4.5023c-0.14371,1.66336 -0.1479,3.3335 -0.11127,5.00555z" fill="url(#color-11)" stroke="none" stroke-width="0" stroke-linecap="butt" stroke-linejoin="miter"/><path d="" fill="none" stroke="none" stroke-width="0" stroke-linecap="butt" stroke-linejoin="miter"/><path d="M-39.59009,272.59029c0,0 2.50333,-3.74186 2.42867,-8.00654c-0.15591,-8.9043 -3.01957,-25.73731 -3.01957,-25.73731c0,0 4.62857,13.2318 6.20242,19.52349c1.93391,7.73107 2.47594,14.91982 2.47594,14.91982z" fill="url(#color-12)" stroke="none" stroke-width="0" stroke-linecap="butt" stroke-linejoin="miter"/><path d="M-42.22951,274.57394c0,0 2.19069,1.39376 1.24958,-6.3606c-0.7659,-6.31064 -3.52848,-12.87369 -3.52848,-12.87369c0,0 2.99778,1.72824 5.92664,7.97973c3.46871,7.4038 4.62883,10.31609 4.62883,10.31609z" data-paper-data="{&quot;origRot&quot;:0}" fill="url(#color-13)" stroke="none" stroke-width="0" stroke-linecap="butt" stroke-linejoin="miter"/><path d="M-33.35215,269.06147c0,0 0.79434,-4.80392 1.9389,-16.87169c0.96642,-10.18959 1.5302,-12.8549 1.5302,-12.8549c0,0 0.7589,12.61205 1.59124,22.59843c1.02277,12.271 1.98785,7.46562 1.98785,7.46562z" data-paper-data="{&quot;index&quot;:null}" fill="url(#color-14)" stroke="none" stroke-width="0" stroke-linecap="butt" stroke-linejoin="miter"/><path d="M-29.61507,268.59263c0,0 0.54202,-7.18875 2.47593,-14.91981c1.57386,-6.29171 6.20244,-19.52352 6.20244,-19.52352c0,0 -2.86364,16.83303 -3.01956,25.73731c-0.07468,4.26467 2.42866,8.00654 2.42866,8.00654z" fill="url(#color-15)" stroke="none" stroke-width="0" stroke-linecap="butt" stroke-linejoin="miter"/><path d="M-27.16474,268.93836c0,0 1.16013,-2.91229 4.62883,-10.31609c2.92886,-6.2515 5.92663,-7.97973 5.92663,-7.97973c0,0 -2.76256,6.56304 -3.52849,12.8737c-0.94113,7.75437 1.24958,6.3606 1.24958,6.3606z" data-paper-data="{&quot;origRot&quot;:0}" fill="url(#color-16)" stroke="none" stroke-width="0" stroke-linecap="butt" stroke-linejoin="miter"/><path d="M-67.22951,273.57394c0,0 2.19069,1.39376 1.24958,-6.3606c-0.7659,-6.31064 -3.52848,-12.87369 -3.52848,-12.87369c0,0 2.99778,1.72824 5.92664,7.97973c3.46871,7.4038 4.62883,10.31609 4.62883,10.31609z" data-paper-data="{&quot;origRot&quot;:0}" fill="url(#color-17)" stroke="none" stroke-width="0" stroke-linecap="butt" stroke-linejoin="miter"/><path d="M-65.16475,268.93836c0,0 1.16013,-2.91229 4.62883,-10.31609c2.92886,-6.2515 5.92663,-7.97973 5.92663,-7.97973c0,0 -2.76256,6.56304 -3.52849,12.8737c-0.94113,7.75437 1.24958,6.3606 1.24958,6.3606z" data-paper-data="{&quot;origRot&quot;:0}" fill="url(#color-18)" stroke="none" stroke-width="0" stroke-linecap="butt" stroke-linejoin="miter"/><path d="M-47.53622,203.07922c0,0 2.77121,26.12969 2.75491,42.91056c-0.0163,16.78087 -1.63092,19.36878 -2.82385,28.04863" data-paper-data="{&quot;origRot&quot;:0,&quot;index&quot;:null}" fill="none" stroke="#576f4f" stroke-width="3.5" stroke-linecap="round" stroke-linejoin="miter"/><path d="M-67.0176,226.07143c0,0 10.71747,19.66531 14.79125,40.37481c0.59787,3.0393 1.03193,5.96437 1.34665,8.81775" data-paper-data="{&quot;origRot&quot;:0,&quot;index&quot;:null}" fill="none" stroke="#708e65" stroke-width="5" stroke-linecap="round" stroke-linejoin="miter"/><path d="M-85.3465,189.16238l22.24307,46.19902" data-paper-data="{&quot;origRot&quot;:0,&quot;index&quot;:null}" fill="none" stroke="#8fa686" stroke-width="10" stroke-linecap="round" stroke-linejoin="miter"/><path d="M-46.63603,213.99361l-8.36256,-50.83606" data-paper-data="{&quot;origRot&quot;:0,&quot;index&quot;:null}" fill="none" stroke="#8fa686" stroke-width="10" stroke-linecap="round" stroke-linejoin="miter"/><g data-paper-data="{&quot;index&quot;:null}" stroke-linejoin="miter"><g data-paper-data="{&quot;index&quot;:null}"><path d="M183.39153,419.29824c1.24841,0.44809 6.32606,3.16983 8.7746,5.00321c5.82795,4.36378 10.28812,9.58302 10.28812,9.58302" data-paper-data="{&quot;index&quot;:null}" fill="none" stroke="#5b7452" stroke-width="2.5" stroke-linecap="round"/><path d="M237.27314,414.9082c0,0 -9.33515,4.85457 -22.78963,6.64424c-13.70838,1.82344 -22.78679,-0.16697 -28.42528,-1.43495c-6.07974,-1.3672 -11.87365,-4.93158 -20.93469,-6.6287c-10.90404,-2.04231 -24.67433,-2.11429 -24.67433,-2.11429" data-paper-data="{&quot;index&quot;:null}" fill="none" stroke="#5b7452" stroke-width="3" stroke-linecap="round"/><path d="M230.98351,405.11019c0.42312,0.40044 1.33469,1.26315 1.33469,1.26315c0,0 1.56514,-9.87415 7.32379,-7.07857c2.65041,1.28665 1.81336,4.03836 1.81336,4.03836c0,0 3.33042,-1.45372 7.96047,-1.10428c5.51139,0.61135 6.30797,3.66722 6.01222,4.48863c-0.60013,1.66678 -1.69475,4.15312 -2.17348,4.39683c-2.55342,1.29995 -16.21644,3.79411 -16.21644,3.79411c0,0 -5.12393,-3.54575 -6.42114,-5.40652c-0.37558,-0.53876 -0.75019,-1.54021 -0.84351,-2.55943c-0.04149,-0.45316 0.1211,-0.93255 0.10977,-1.33746c-0.02443,-0.87421 0.71658,-0.85788 1.10022,-0.49483z" data-paper-data="{&quot;index&quot;:null}" fill="url(#color-19)" stroke="none" stroke-width="2.5" stroke-linecap="butt"/><path d="M239.65453,425.01888c-0.54721,-1.40321 -1.2933,-3.31937 -1.43576,-3.70042c-0.79429,-2.12468 -1.47536,-6.59937 -1.47536,-6.59937l17.34838,-9.88129c0,0 3.14472,0.78953 -0.13967,6.43807c-2.34301,4.00873 -5.17348,6.38467 -5.17348,6.38467c0,0 3.45066,2.98087 2.46022,3.80921c-5.41765,4.53093 -10.15334,1.98271 -10.15334,1.98271c0,0 -0.3605,1.33925 -0.51136,1.89974c-0.11978,0.44495 -0.58342,0.5288 -0.91962,-0.33327z" data-paper-data="{&quot;index&quot;:null}" fill="url(#color-20)" stroke="none" stroke-width="2.5" stroke-linecap="butt"/><path d="M230.98351,405.11019c0.42312,0.40044 1.33469,1.26315 1.33469,1.26315c0,0 1.56514,-9.87415 7.32379,-7.07857c2.65041,1.28665 1.81336,4.03836 1.81336,4.03836c0,0 3.33042,-1.45372 7.96047,-1.10428c5.51139,0.61135 6.30797,3.66722 6.01222,4.48863c-0.60013,1.66678 -1.69475,4.15312 -2.17348,4.39683c-2.55342,1.29995 -16.21644,3.79411 -16.21644,3.79411c0,0 -5.12393,-3.54575 -6.42114,-5.40652c-0.37558,-0.53876 -0.75019,-1.54021 -0.84351,-2.55943c-0.04149,-0.45316 0.1211,-0.93255 0.10977,-1.33746c-0.02443,-0.87421 0.71658,-0.85788 1.10022,-0.49483z" data-paper-data="{&quot;index&quot;:null}" fill="url(#color-21)" stroke="none" stroke-width="2.5" stroke-linecap="butt"/><path d="M239.65453,425.01888c-0.54721,-1.40321 -1.2933,-3.31937 -1.43576,-3.70042c-0.79429,-2.12468 -1.47536,-6.59937 -1.47536,-6.59937l17.34838,-9.88129c0,0 3.14472,0.78953 -0.13967,6.43807c-2.34301,4.00873 -5.17348,6.38467 -5.17348,6.38467c0,0 3.45066,2.98087 2.46022,3.80921c-5.41765,4.53093 -10.15334,1.98271 -10.15334,1.98271c0,0 -0.3605,1.33925 -0.51136,1.89974c-0.11978,0.44495 -0.58342,0.5288 -0.91962,-0.33327z" data-paper-data="{&quot;index&quot;:null}" fill="url(#color-22)" stroke="none" stroke-width="2.5" stroke-linecap="butt"/><path d="M230.98351,405.11019c0.42312,0.40044 1.33469,1.26315 1.33469,1.26315c0,0 1.56514,-9.87415 7.32379,-7.07857c2.65041,1.28665 1.81336,4.03836 1.81336,4.03836c0,0 3.33042,-1.45372 7.96047,-1.10428c5.51139,0.61135 6.30797,3.66722 6.01222,4.48863c-0.60013,1.66678 -1.69475,4.15312 -2.17348,4.39683c-2.55342,1.29995 -16.21644,3.79411 -16.21644,3.79411c0,0 -5.12393,-3.54575 -6.42114,-5.40652c-0.37558,-0.53876 -0.75019,-1.54021 -0.84351,-2.55943c-0.04149,-0.45316 0.1211,-0.93255 0.10977,-1.33746c-0.02443,-0.87421 0.71658,-0.85788 1.10022,-0.49483z" data-paper-data="{&quot;index&quot;:null}" fill="url(#color-23)" stroke="none" stroke-width="2.5" stroke-linecap="butt"/><path d="M239.65453,425.01888c-0.54721,-1.40321 -1.2933,-3.31937 -1.43576,-3.70042c-0.79429,-2.12468 -1.47536,-6.59937 -1.47536,-6.59937l17.34838,-9.88129c0,0 3.14472,0.78953 -0.13967,6.43807c-2.34301,4.00873 -5.17348,6.38467 -5.17348,6.38467c0,0 3.45066,2.98087 2.46022,3.80921c-5.41765,4.53093 -10.15334,1.98271 -10.15334,1.98271c0,0 -0.3605,1.33925 -0.51136,1.89974c-0.11978,0.44495 -0.58342,0.5288 -0.91962,-0.33327z" data-paper-data="{&quot;index&quot;:null}" fill="url(#color-24)" stroke="none" stroke-width="2.5" stroke-linecap="butt"/><path d="M230.98351,405.11019c0.42312,0.40044 1.33469,1.26315 1.33469,1.26315c0,0 1.56514,-9.87415 7.32379,-7.07857c2.65041,1.28665 1.81336,4.03836 1.81336,4.03836c0,0 3.33042,-1.45372 7.96047,-1.10428c5.51139,0.61135 6.30797,3.66722 6.01222,4.48863c-0.60013,1.66678 -1.69475,4.15312 -2.17348,4.39683c-2.55342,1.29995 -16.21644,3.79411 -16.21644,3.79411c0,0 -5.12393,-3.54575 -6.42114,-5.40652c-0.37558,-0.53876 -0.75019,-1.54021 -0.84351,-2.55943c-0.04149,-0.45316 0.1211,-0.93255 0.10977,-1.33746c-0.02443,-0.87421 0.71658,-0.85788 1.10022,-0.49483z" data-paper-data="{&quot;index&quot;:null}" fill="url(#color-25)" stroke="none" stroke-width="2.5" stroke-linecap="butt"/><path d="M239.65453,425.01888c-0.54721,-1.40321 -1.2933,-3.31937 -1.43576,-3.70042c-0.79429,-2.12468 -1.47536,-6.59937 -1.47536,-6.59937l17.34838,-9.88129c0,0 3.14472,0.78953 -0.13967,6.43807c-2.34301,4.00873 -5.17348,6.38467 -5.17348,6.38467c0,0 3.45066,2.98087 2.46022,3.80921c-5.41765,4.53093 -10.15334,1.98271 -10.15334,1.98271c0,0 -0.3605,1.33925 -0.51136,1.89974c-0.11978,0.44495 -0.58342,0.5288 -0.91962,-0.33327z" data-paper-data="{&quot;index&quot;:null}" fill="#667c5e" stroke="none" stroke-width="2.5" stroke-linecap="butt"/><g data-paper-data="{&quot;index&quot;:null}" stroke="none" stroke-width="2.5" stroke-linecap="butt"><path d="M209.71703,425.06466c-0.28936,0.50562 -0.91277,1.59493 -0.91277,1.59493c0,0 9.96476,-0.80757 8.60605,5.44793c-0.62533,2.87908 -3.49682,2.71456 -3.49682,2.71456c0,0 2.19812,2.89366 2.95042,7.47553c0.70562,5.50011 -2.07622,6.99488 -2.9442,6.90119c-1.7613,-0.19013 -4.43564,-0.66754 -4.78538,-1.0753c-1.86545,-2.17484 -7.51134,-14.86432 -7.51134,-14.86432c0,0 2.23739,-5.81559 3.73977,-7.51503c0.43499,-0.49204 1.31986,-1.09225 2.28832,-1.4233c0.43059,-0.14719 0.93481,-0.10224 1.32562,-0.20874c0.8438,-0.2299 1.00267,0.49407 0.74033,0.9525z" fill="url(#color-26)"/><path d="M192.41471,438.18616c1.23459,-0.86269 2.92075,-2.03962 3.25747,-2.26791c1.87744,-1.27294 6.06532,-2.99004 6.06532,-2.99004l13.69378,14.52882c0,0 -0.02565,3.24221 -6.28943,1.38253c-4.44821,-1.33157 -7.42463,-3.5219 -7.42463,-3.5219c0,0 -2.08304,4.05629 -3.12158,3.28913c-5.68075,-4.19634 -4.32119,-9.39939 -4.32119,-9.39939c0,0 -1.38649,-0.03451 -1.96675,-0.04893c-0.46065,-0.01147 -0.65147,-0.44226 0.107,-0.97227z" data-paper-data="{&quot;index&quot;:null}" fill="url(#color-27)"/><path d="M209.71703,425.06466c-0.28936,0.50562 -0.91277,1.59493 -0.91277,1.59493c0,0 9.96476,-0.80757 8.60605,5.44793c-0.62533,2.87908 -3.49682,2.71456 -3.49682,2.71456c0,0 2.19812,2.89366 2.95042,7.47553c0.70562,5.50011 -2.07622,6.99488 -2.9442,6.90119c-1.7613,-0.19013 -4.43564,-0.66754 -4.78538,-1.0753c-1.86545,-2.17484 -7.51134,-14.86432 -7.51134,-14.86432c0,0 2.23739,-5.81559 3.73977,-7.51503c0.43499,-0.49204 1.31986,-1.09225 2.28832,-1.4233c0.43059,-0.14719 0.93481,-0.10224 1.32562,-0.20874c0.8438,-0.2299 1.00267,0.49407 0.74033,0.9525z" fill="url(#color-28)"/><path d="M192.41471,438.18616c1.23459,-0.86269 2.92075,-2.03962 3.25747,-2.26791c1.87744,-1.27294 6.06532,-2.99004 6.06532,-2.99004l13.69378,14.52882c0,0 -0.02565,3.24221 -6.28943,1.38253c-4.44821,-1.33157 -7.42463,-3.5219 -7.42463,-3.5219c0,0 -2.08304,4.05629 -3.12158,3.28913c-5.68075,-4.19634 -4.32119,-9.39939 -4.32119,-9.39939c0,0 -1.38649,-0.03451 -1.96675,-0.04893c-0.46065,-0.01147 -0.65147,-0.44226 0.107,-0.97227z" data-paper-data="{&quot;index&quot;:null}" fill="url(#color-29)"/><path d="M209.71703,425.06466c-0.28936,0.50562 -0.91277,1.59493 -0.91277,1.59493c0,0 9.96476,-0.80757 8.60605,5.44793c-0.62533,2.87908 -3.49682,2.71456 -3.49682,2.71456c0,0 2.19812,2.89366 2.95042,7.47553c0.70562,5.50011 -2.07622,6.99488 -2.9442,6.90119c-1.7613,-0.19013 -4.43564,-0.66754 -4.78538,-1.0753c-1.86545,-2.17484 -7.51134,-14.86432 -7.51134,-14.86432c0,0 2.23739,-5.81559 3.73977,-7.51503c0.43499,-0.49204 1.31986,-1.09225 2.28832,-1.4233c0.43059,-0.14719 0.93481,-0.10224 1.32562,-0.20874c0.8438,-0.2299 1.00267,0.49407 0.74033,0.9525z" fill="url(#color-30)"/><path d="M192.41471,438.18616c1.23459,-0.86269 2.92075,-2.03962 3.25747,-2.26791c1.87744,-1.27294 6.06532,-2.99004 6.06532,-2.99004l13.69378,14.52882c0,0 -0.02565,3.24221 -6.28943,1.38253c-4.44821,-1.33157 -7.42463,-3.5219 -7.42463,-3.5219c0,0 -2.08304,4.05629 -3.12158,3.28913c-5.68075,-4.19634 -4.32119,-9.39939 -4.32119,-9.39939c0,0 -1.38649,-0.03451 -1.96675,-0.04893c-0.46065,-0.01147 -0.65147,-0.44226 0.107,-0.97227z" data-paper-data="{&quot;index&quot;:null}" fill="url(#color-31)"/><path d="M209.71703,425.06466c-0.28936,0.50562 -0.91277,1.59493 -0.91277,1.59493c0,0 9.96476,-0.80757 8.60605,5.44793c-0.62533,2.87908 -3.49682,2.71456 -3.49682,2.71456c0,0 2.19812,2.89366 2.95042,7.47553c0.70562,5.50011 -2.07622,6.99488 -2.9442,6.90119c-1.7613,-0.19013 -4.43564,-0.66754 -4.78538,-1.0753c-1.86545,-2.17484 -7.51134,-14.86432 -7.51134,-14.86432c0,0 2.23739,-5.81559 3.73977,-7.51503c0.43499,-0.49204 1.31986,-1.09225 2.28832,-1.4233c0.43059,-0.14719 0.93481,-0.10224 1.32562,-0.20874c0.8438,-0.2299 1.00267,0.49407 0.74033,0.9525z" fill="url(#color-32)"/><path d="M192.41471,438.18616c1.23459,-0.86269 2.92075,-2.03962 3.25747,-2.26791c1.87744,-1.27294 6.06532,-2.99004 6.06532,-2.99004l13.69378,14.52882c0,0 -0.02565,3.24221 -6.28943,1.38253c-4.44821,-1.33157 -7.42463,-3.5219 -7.42463,-3.5219c0,0 -2.08304,4.05629 -3.12158,3.28913c-5.68075,-4.19634 -4.32119,-9.39939 -4.32119,-9.39939c0,0 -1.38649,-0.03451 -1.96675,-0.04893c-0.46065,-0.01147 -0.65147,-0.44226 0.107,-0.97227z" data-paper-data="{&quot;index&quot;:null}" fill="#667c5e"/></g></g><g data-paper-data="{&quot;index&quot;:null}"><path d="M96.97324,402.77585c0,0 8.34494,4.93119 13.59978,5.68691c5.25483,0.75571 11.48159,2.45289 18.113,5.8129c6.6314,3.36002 9.96036,8.41139 9.96036,8.41139" data-paper-data="{&quot;index&quot;:null}" fill="none" stroke="#536a4b" stroke-width="3.5" stroke-linecap="round"/><path d="M173.46526,403.71076c0,0 -9.33515,4.85457 -22.78963,6.64424c-13.70838,1.82344 -22.78679,-0.16697 -28.42528,-1.43495c-7.77954,-1.74945 -16.09779,-3.55052 -21.7054,-4.75326c-4.04848,-0.86833 -6.6841,-1.42479 -6.6841,-1.42479" data-paper-data="{&quot;index&quot;:null}" fill="none" stroke="#5b7452" stroke-width="3" stroke-linecap="round"/><path d="M167.17561,393.91276c0.42312,0.40044 1.33469,1.26315 1.33469,1.26315c0,0 1.56514,-9.87415 7.32379,-7.07857c2.65041,1.28665 1.81336,4.03836 1.81336,4.03836c0,0 3.33042,-1.45372 7.96047,-1.10428c5.51139,0.61135 6.30797,3.66722 6.01222,4.48863c-0.60013,1.66678 -1.69475,4.15312 -2.17348,4.39683c-2.55342,1.29995 -16.21644,3.79411 -16.21644,3.79411c0,0 -5.12393,-3.54575 -6.42114,-5.40652c-0.37558,-0.53876 -0.75019,-1.54021 -0.84351,-2.55943c-0.04149,-0.45316 0.1211,-0.93255 0.10977,-1.33746c-0.02443,-0.87421 0.71658,-0.85788 1.10022,-0.49483z" data-paper-data="{&quot;index&quot;:null}" fill="url(#color-33)" stroke="none" stroke-width="2.5" stroke-linecap="butt"/><path d="M175.84664,413.82146c-0.54721,-1.40321 -1.2933,-3.31937 -1.43576,-3.70042c-0.79429,-2.12468 -1.47536,-6.59937 -1.47536,-6.59937l17.34838,-9.88129c0,0 3.14472,0.78953 -0.13967,6.43807c-2.34301,4.00873 -5.17348,6.38467 -5.17348,6.38467c0,0 3.45066,2.98087 2.46022,3.80921c-5.41765,4.53093 -10.15334,1.98271 -10.15334,1.98271c0,0 -0.3605,1.33925 -0.51136,1.89974c-0.11978,0.44495 -0.58342,0.5288 -0.91962,-0.33327z" data-paper-data="{&quot;index&quot;:null}" fill="url(#color-34)" stroke="none" stroke-width="2.5" stroke-linecap="butt"/><path d="M167.17561,393.91276c0.42312,0.40044 1.33469,1.26315 1.33469,1.26315c0,0 1.56514,-9.87415 7.32379,-7.07857c2.65041,1.28665 1.81336,4.03836 1.81336,4.03836c0,0 3.33042,-1.45372 7.96047,-1.10428c5.51139,0.61135 6.30797,3.66722 6.01222,4.48863c-0.60013,1.66678 -1.69475,4.15312 -2.17348,4.39683c-2.55342,1.29995 -16.21644,3.79411 -16.21644,3.79411c0,0 -5.12393,-3.54575 -6.42114,-5.40652c-0.37558,-0.53876 -0.75019,-1.54021 -0.84351,-2.55943c-0.04149,-0.45316 0.1211,-0.93255 0.10977,-1.33746c-0.02443,-0.87421 0.71658,-0.85788 1.10022,-0.49483z" data-paper-data="{&quot;index&quot;:null}" fill="url(#color-35)" stroke="none" stroke-width="2.5" stroke-linecap="butt"/><path d="M175.84664,413.82146c-0.54721,-1.40321 -1.2933,-3.31937 -1.43576,-3.70042c-0.79429,-2.12468 -1.47536,-6.59937 -1.47536,-6.59937l17.34838,-9.88129c0,0 3.14472,0.78953 -0.13967,6.43807c-2.34301,4.00873 -5.17348,6.38467 -5.17348,6.38467c0,0 3.45066,2.98087 2.46022,3.80921c-5.41765,4.53093 -10.15334,1.98271 -10.15334,1.98271c0,0 -0.3605,1.33925 -0.51136,1.89974c-0.11978,0.44495 -0.58342,0.5288 -0.91962,-0.33327z" data-paper-data="{&quot;index&quot;:null}" fill="url(#color-36)" stroke="none" stroke-width="2.5" stroke-linecap="butt"/><path d="M167.17561,393.91276c0.42312,0.40044 1.33469,1.26315 1.33469,1.26315c0,0 1.56514,-9.87415 7.32379,-7.07857c2.65041,1.28665 1.81336,4.03836 1.81336,4.03836c0,0 3.33042,-1.45372 7.96047,-1.10428c5.51139,0.61135 6.30797,3.66722 6.01222,4.48863c-0.60013,1.66678 -1.69475,4.15312 -2.17348,4.39683c-2.55342,1.29995 -16.21644,3.79411 -16.21644,3.79411c0,0 -5.12393,-3.54575 -6.42114,-5.40652c-0.37558,-0.53876 -0.75019,-1.54021 -0.84351,-2.55943c-0.04149,-0.45316 0.1211,-0.93255 0.10977,-1.33746c-0.02443,-0.87421 0.71658,-0.85788 1.10022,-0.49483z" data-paper-data="{&quot;index&quot;:null}" fill="url(#color-37)" stroke="none" stroke-width="2.5" stroke-linecap="butt"/><path d="M175.84664,413.82146c-0.54721,-1.40321 -1.2933,-3.31937 -1.43576,-3.70042c-0.79429,-2.12468 -1.47536,-6.59937 -1.47536,-6.59937l17.34838,-9.88129c0,0 3.14472,0.78953 -0.13967,6.43807c-2.34301,4.00873 -5.17348,6.38467 -5.17348,6.38467c0,0 3.45066,2.98087 2.46022,3.80921c-5.41765,4.53093 -10.15334,1.98271 -10.15334,1.98271c0,0 -0.3605,1.33925 -0.51136,1.89974c-0.11978,0.44495 -0.58342,0.5288 -0.91962,-0.33327z" data-paper-data="{&quot;index&quot;:null}" fill="url(#color-38)" stroke="none" stroke-width="2.5" stroke-linecap="butt"/><path d="M167.17561,393.91276c0.42312,0.40044 1.33469,1.26315 1.33469,1.26315c0,0 1.56514,-9.87415 7.32379,-7.07857c2.65041,1.28665 1.81336,4.03836 1.81336,4.03836c0,0 3.33042,-1.45372 7.96047,-1.10428c5.51139,0.61135 6.30797,3.66722 6.01222,4.48863c-0.60013,1.66678 -1.69475,4.15312 -2.17348,4.39683c-2.55342,1.29995 -16.21644,3.79411 -16.21644,3.79411c0,0 -5.12393,-3.54575 -6.42114,-5.40652c-0.37558,-0.53876 -0.75019,-1.54021 -0.84351,-2.55943c-0.04149,-0.45316 0.1211,-0.93255 0.10977,-1.33746c-0.02443,-0.87421 0.71658,-0.85788 1.10022,-0.49483z" data-paper-data="{&quot;index&quot;:null}" fill="url(#color-39)" stroke="none" stroke-width="2.5" stroke-linecap="butt"/><path d="M175.84664,413.82146c-0.54721,-1.40321 -1.2933,-3.31937 -1.43576,-3.70042c-0.79429,-2.12468 -1.47536,-6.59937 -1.47536,-6.59937l17.34838,-9.88129c0,0 3.14472,0.78953 -0.13967,6.43807c-2.34301,4.00873 -5.17348,6.38467 -5.17348,6.38467c0,0 3.45066,2.98087 2.46022,3.80921c-5.41765,4.53093 -10.15334,1.98271 -10.15334,1.98271c0,0 -0.3605,1.33925 -0.51136,1.89974c-0.11978,0.44495 -0.58342,0.5288 -0.91962,-0.33327z" data-paper-data="{&quot;index&quot;:null}" fill="url(#color-40)" stroke="none" stroke-width="2.5" stroke-linecap="butt"/><g data-paper-data="{&quot;index&quot;:null}" stroke="none" stroke-width="2.5" stroke-linecap="butt"><path d="M145.90913,413.86722c-0.28936,0.50562 -0.91277,1.59493 -0.91277,1.59493c0,0 9.96476,-0.80757 8.60605,5.44793c-0.62533,2.87908 -3.49682,2.71456 -3.49682,2.71456c0,0 2.19812,2.89366 2.95042,7.47553c0.70562,5.50011 -2.07622,6.99488 -2.9442,6.90119c-1.7613,-0.19013 -4.43564,-0.66754 -4.78538,-1.0753c-1.86545,-2.17484 -7.51134,-14.86432 -7.51134,-14.86432c0,0 2.23739,-5.81559 3.73977,-7.51503c0.43499,-0.49204 1.31986,-1.09225 2.28832,-1.4233c0.43059,-0.14719 0.93481,-0.10224 1.32562,-0.20874c0.8438,-0.2299 1.00267,0.49407 0.74033,0.9525z" fill="url(#color-41)"/><path d="M128.60682,426.98875c1.23459,-0.86269 2.92075,-2.03962 3.25747,-2.26791c1.87744,-1.27294 6.06532,-2.99004 6.06532,-2.99004l13.69378,14.52882c0,0 -0.02565,3.24221 -6.28943,1.38253c-4.44821,-1.33157 -7.42463,-3.5219 -7.42463,-3.5219c0,0 -2.08304,4.05629 -3.12158,3.28913c-5.68075,-4.19634 -4.32119,-9.39939 -4.32119,-9.39939c0,0 -1.38649,-0.03451 -1.96675,-0.04893c-0.46065,-0.01147 -0.65147,-0.44226 0.107,-0.97227z" data-paper-data="{&quot;index&quot;:null}" fill="url(#color-42)"/><path d="M145.90913,413.86722c-0.28936,0.50562 -0.91277,1.59493 -0.91277,1.59493c0,0 9.96476,-0.80757 8.60605,5.44793c-0.62533,2.87908 -3.49682,2.71456 -3.49682,2.71456c0,0 2.19812,2.89366 2.95042,7.47553c0.70562,5.50011 -2.07622,6.99488 -2.9442,6.90119c-1.7613,-0.19013 -4.43564,-0.66754 -4.78538,-1.0753c-1.86545,-2.17484 -7.51134,-14.86432 -7.51134,-14.86432c0,0 2.23739,-5.81559 3.73977,-7.51503c0.43499,-0.49204 1.31986,-1.09225 2.28832,-1.4233c0.43059,-0.14719 0.93481,-0.10224 1.32562,-0.20874c0.8438,-0.2299 1.00267,0.49407 0.74033,0.9525z" fill="url(#color-43)"/><path d="M128.60682,426.98875c1.23459,-0.86269 2.92075,-2.03962 3.25747,-2.26791c1.87744,-1.27294 6.06532,-2.99004 6.06532,-2.99004l13.69378,14.52882c0,0 -0.02565,3.24221 -6.28943,1.38253c-4.44821,-1.33157 -7.42463,-3.5219 -7.42463,-3.5219c0,0 -2.08304,4.05629 -3.12158,3.28913c-5.68075,-4.19634 -4.32119,-9.39939 -4.32119,-9.39939c0,0 -1.38649,-0.03451 -1.96675,-0.04893c-0.46065,-0.01147 -0.65147,-0.44226 0.107,-0.97227z" data-paper-data="{&quot;index&quot;:null}" fill="url(#color-44)"/><path d="M145.90913,413.86722c-0.28936,0.50562 -0.91277,1.59493 -0.91277,1.59493c0,0 9.96476,-0.80757 8.60605,5.44793c-0.62533,2.87908 -3.49682,2.71456 -3.49682,2.71456c0,0 2.19812,2.89366 2.95042,7.47553c0.70562,5.50011 -2.07622,6.99488 -2.9442,6.90119c-1.7613,-0.19013 -4.43564,-0.66754 -4.78538,-1.0753c-1.86545,-2.17484 -7.51134,-14.86432 -7.51134,-14.86432c0,0 2.23739,-5.81559 3.73977,-7.51503c0.43499,-0.49204 1.31986,-1.09225 2.28832,-1.4233c0.43059,-0.14719 0.93481,-0.10224 1.32562,-0.20874c0.8438,-0.2299 1.00267,0.49407 0.74033,0.9525z" fill="url(#color-45)"/><path d="M128.60682,426.98875c1.23459,-0.86269 2.92075,-2.03962 3.25747,-2.26791c1.87744,-1.27294 6.06532,-2.99004 6.06532,-2.99004l13.69378,14.52882c0,0 -0.02565,3.24221 -6.28943,1.38253c-4.44821,-1.33157 -7.42463,-3.5219 -7.42463,-3.5219c0,0 -2.08304,4.05629 -3.12158,3.28913c-5.68075,-4.19634 -4.32119,-9.39939 -4.32119,-9.39939c0,0 -1.38649,-0.03451 -1.96675,-0.04893c-0.46065,-0.01147 -0.65147,-0.44226 0.107,-0.97227z" data-paper-data="{&quot;index&quot;:null}" fill="url(#color-46)"/><path d="M145.90913,413.86722c-0.28936,0.50562 -0.91277,1.59493 -0.91277,1.59493c0,0 9.96476,-0.80757 8.60605,5.44793c-0.62533,2.87908 -3.49682,2.71456 -3.49682,2.71456c0,0 2.19812,2.89366 2.95042,7.47553c0.70562,5.50011 -2.07622,6.99488 -2.9442,6.90119c-1.7613,-0.19013 -4.43564,-0.66754 -4.78538,-1.0753c-1.86545,-2.17484 -7.51134,-14.86432 -7.51134,-14.86432c0,0 2.23739,-5.81559 3.73977,-7.51503c0.43499,-0.49204 1.31986,-1.09225 2.28832,-1.4233c0.43059,-0.14719 0.93481,-0.10224 1.32562,-0.20874c0.8438,-0.2299 1.00267,0.49407 0.74033,0.9525z" fill="url(#color-47)"/><path d="M128.60682,426.98875c1.23459,-0.86269 2.92075,-2.03962 3.25747,-2.26791c1.87744,-1.27294 6.06532,-2.99004 6.06532,-2.99004l13.69378,14.52882c0,0 -0.02565,3.24221 -6.28943,1.38253c-4.44821,-1.33157 -7.42463,-3.5219 -7.42463,-3.5219c0,0 -2.08304,4.05629 -3.12158,3.28913c-5.68075,-4.19634 -4.32119,-9.39939 -4.32119,-9.39939c0,0 -1.38649,-0.03451 -1.96675,-0.04893c-0.46065,-0.01147 -0.65147,-0.44226 0.107,-0.97227z" data-paper-data="{&quot;index&quot;:null}" fill="url(#color-48)"/></g></g></g><g data-paper-data="{&quot;index&quot;:null}" stroke-linejoin="miter"><path d="M278.91669,393.84871c0,0 9.4131,6.01052 14.52758,7.43408c5.11447,1.42356 11.07207,5.90549 17.21767,10.08842c6.14559,4.18294 8.79905,9.61962 8.79905,9.61962" data-paper-data="{&quot;index&quot;:null}" fill="none" stroke="#536a4b" stroke-width="3.5" stroke-linecap="round"/><path d="M356.42647,406.63793c0,0 -9.88076,3.61695 -23.45367,3.66588c-13.82903,0.04986 -22.57711,-3.08869 -28.00636,-5.0695c-12.89896,-4.70604 -34.26039,-10.82666 -34.26039,-10.82666" data-paper-data="{&quot;index&quot;:null}" fill="none" stroke="#5b7452" stroke-width="3" stroke-linecap="round"/><path d="M351.4457,396.11404c0.36826,0.45141 1.16162,1.42392 1.16162,1.42392c0,0 2.81887,-9.59179 8.17132,-6.08059c2.46346,1.61602 1.28034,4.23761 1.28034,4.23761c0,0 3.48939,-1.01449 8.03636,-0.07399c5.38743,1.3133 5.78542,4.44612 5.38675,5.2228c-0.80898,1.57603 -2.21351,3.9014 -2.71955,4.08168c-2.69908,0.96166 -16.56917,1.68251 -16.56917,1.68251c0,0 -4.62675,-4.17375 -5.67453,-6.18555c-0.30336,-0.58249 -0.54641,-1.62372 -0.50822,-2.64649c0.01698,-0.45473 0.23973,-0.90932 0.28043,-1.31232c0.08792,-0.87012 0.82071,-0.75886 1.15461,-0.3496z" data-paper-data="{&quot;index&quot;:null}" fill="url(#color-49)" stroke="none" stroke-width="2.5" stroke-linecap="butt"/><path d="M357.4912,416.97055c-0.36269,-1.46182 -0.85681,-3.45785 -0.9492,-3.85403c-0.51517,-2.20902 -0.6166,-6.73411 -0.6166,-6.73411l18.47262,-7.5742c0,0 3.01746,1.18641 -0.9644,6.36697c-2.83789,3.67505 -5.94977,5.66826 -5.94977,5.66826c0,0 3.03976,3.39889 1.95124,4.09333c-5.95412,3.79852 -10.32379,0.66385 -10.32379,0.66385c0,0 -0.52932,1.28194 -0.75083,1.81845c-0.17586,0.42591 -0.64643,0.44959 -0.86927,-0.44848z" data-paper-data="{&quot;index&quot;:null}" fill="url(#color-50)" stroke="none" stroke-width="2.5" stroke-linecap="butt"/><path d="M351.4457,396.11404c0.36826,0.45141 1.16162,1.42392 1.16162,1.42392c0,0 2.81887,-9.59179 8.17132,-6.08059c2.46346,1.61602 1.28034,4.23761 1.28034,4.23761c0,0 3.48939,-1.01449 8.03636,-0.07399c5.38743,1.3133 5.78542,4.44612 5.38675,5.2228c-0.80898,1.57603 -2.21351,3.9014 -2.71955,4.08168c-2.69908,0.96166 -16.56917,1.68251 -16.56917,1.68251c0,0 -4.62675,-4.17375 -5.67453,-6.18555c-0.30336,-0.58249 -0.54641,-1.62372 -0.50822,-2.64649c0.01698,-0.45473 0.23973,-0.90932 0.28043,-1.31232c0.08792,-0.87012 0.82071,-0.75886 1.15461,-0.3496z" data-paper-data="{&quot;index&quot;:null}" fill="url(#color-51)" stroke="none" stroke-width="2.5" stroke-linecap="butt"/><path d="M357.4912,416.97055c-0.36269,-1.46182 -0.85681,-3.45785 -0.9492,-3.85403c-0.51517,-2.20902 -0.6166,-6.73411 -0.6166,-6.73411l18.47262,-7.5742c0,0 3.01746,1.18641 -0.9644,6.36697c-2.83789,3.67505 -5.94977,5.66826 -5.94977,5.66826c0,0 3.03976,3.39889 1.95124,4.09333c-5.95412,3.79852 -10.32379,0.66385 -10.32379,0.66385c0,0 -0.52932,1.28194 -0.75083,1.81845c-0.17586,0.42591 -0.64643,0.44959 -0.86927,-0.44848z" data-paper-data="{&quot;index&quot;:null}" fill="url(#color-52)" stroke="none" stroke-width="2.5" stroke-linecap="butt"/><path d="M351.4457,396.11404c0.36826,0.45141 1.16162,1.42392 1.16162,1.42392c0,0 2.81887,-9.59179 8.17132,-6.08059c2.46346,1.61602 1.28034,4.23761 1.28034,4.23761c0,0 3.48939,-1.01449 8.03636,-0.07399c5.38743,1.3133 5.78542,4.44612 5.38675,5.2228c-0.80898,1.57603 -2.21351,3.9014 -2.71955,4.08168c-2.69908,0.96166 -16.56917,1.68251 -16.56917,1.68251c0,0 -4.62675,-4.17375 -5.67453,-6.18555c-0.30336,-0.58249 -0.54641,-1.62372 -0.50822,-2.64649c0.01698,-0.45473 0.23973,-0.90932 0.28043,-1.31232c0.08792,-0.87012 0.82071,-0.75886 1.15461,-0.3496z" data-paper-data="{&quot;index&quot;:null}" fill="url(#color-53)" stroke="none" stroke-width="2.5" stroke-linecap="butt"/><path d="M357.4912,416.97055c-0.36269,-1.46182 -0.85681,-3.45785 -0.9492,-3.85403c-0.51517,-2.20902 -0.6166,-6.73411 -0.6166,-6.73411l18.47262,-7.5742c0,0 3.01746,1.18641 -0.9644,6.36697c-2.83789,3.67505 -5.94977,5.66826 -5.94977,5.66826c0,0 3.03976,3.39889 1.95124,4.09333c-5.95412,3.79852 -10.32379,0.66385 -10.32379,0.66385c0,0 -0.52932,1.28194 -0.75083,1.81845c-0.17586,0.42591 -0.64643,0.44959 -0.86927,-0.44848z" data-paper-data="{&quot;index&quot;:null}" fill="url(#color-54)" stroke="none" stroke-width="2.5" stroke-linecap="butt"/><path d="M351.4457,396.11404c0.36826,0.45141 1.16162,1.42392 1.16162,1.42392c0,0 2.81887,-9.59179 8.17132,-6.08059c2.46346,1.61602 1.28034,4.23761 1.28034,4.23761c0,0 3.48939,-1.01449 8.03636,-0.07399c5.38743,1.3133 5.78542,4.44612 5.38675,5.2228c-0.80898,1.57603 -2.21351,3.9014 -2.71955,4.08168c-2.69908,0.96166 -16.56917,1.68251 -16.56917,1.68251c0,0 -4.62675,-4.17375 -5.67453,-6.18555c-0.30336,-0.58249 -0.54641,-1.62372 -0.50822,-2.64649c0.01698,-0.45473 0.23973,-0.90932 0.28043,-1.31232c0.08792,-0.87012 0.82071,-0.75886 1.15461,-0.3496z" data-paper-data="{&quot;index&quot;:null}" fill="url(#color-55)" stroke="none" stroke-width="2.5" stroke-linecap="butt"/><path d="M357.4912,416.97055c-0.36269,-1.46182 -0.85681,-3.45785 -0.9492,-3.85403c-0.51517,-2.20902 -0.6166,-6.73411 -0.6166,-6.73411l18.47262,-7.5742c0,0 3.01746,1.18641 -0.9644,6.36697c-2.83789,3.67505 -5.94977,5.66826 -5.94977,5.66826c0,0 3.03976,3.39889 1.95124,4.09333c-5.95412,3.79852 -10.32379,0.66385 -10.32379,0.66385c0,0 -0.52932,1.28194 -0.75083,1.81845c-0.17586,0.42591 -0.64643,0.44959 -0.86927,-0.44848z" data-paper-data="{&quot;index&quot;:null}" fill="url(#color-56)" stroke="none" stroke-width="2.5" stroke-linecap="butt"/><g data-paper-data="{&quot;index&quot;:null}" stroke="none" stroke-width="2.5" stroke-linecap="butt"><path d="M327.79516,413.17554c-0.35183,0.46432 -1.10982,1.46466 -1.10982,1.46466c0,0 9.98602,0.47739 7.83609,6.5069c-0.98949,2.77508 -3.81616,2.24356 -3.81616,2.24356c0,0 1.80875,3.15173 1.96708,7.79225c-0.00577,5.54518 -2.95637,6.67075 -3.80516,6.46649c-1.72236,-0.4145 -4.31336,-1.23103 -4.6079,-1.68028c-1.57105,-2.39617 -5.54248,-15.70507 -5.54248,-15.70507c0,0 2.96493,-5.48053 4.6729,-6.9732c0.49452,-0.43217 1.44907,-0.91392 2.452,-1.11799c0.44592,-0.09074 0.9402,0.01852 1.34144,-0.03696c0.86632,-0.11976 0.93101,0.61861 0.61202,1.0396z" fill="url(#color-57)"/><path d="M308.95255,423.96908c1.33506,-0.69719 3.15826,-1.64809 3.52148,-1.83131c2.02522,-1.02159 6.39877,-2.18728 6.39877,-2.18728l11.71688,16.16543c0,0 -0.44135,3.21213 -6.41482,0.5643c-4.24064,-1.89119 -6.9115,-4.44524 -6.9115,-4.44524c0,0 -2.58618,3.75557 -3.51772,2.86152c-5.09551,-4.8904 -3.07973,-9.87606 -3.07973,-9.87606c0,0 -1.37061,-0.21208 -1.94423,-0.30082c-0.45537,-0.07047 -0.58936,-0.52218 0.23083,-0.95051z" data-paper-data="{&quot;index&quot;:null}" fill="url(#color-58)"/><path d="M327.79516,413.17554c-0.35183,0.46432 -1.10982,1.46466 -1.10982,1.46466c0,0 9.98602,0.47739 7.83609,6.5069c-0.98949,2.77508 -3.81616,2.24356 -3.81616,2.24356c0,0 1.80875,3.15173 1.96708,7.79225c-0.00577,5.54518 -2.95637,6.67075 -3.80516,6.46649c-1.72236,-0.4145 -4.31336,-1.23103 -4.6079,-1.68028c-1.57105,-2.39617 -5.54248,-15.70507 -5.54248,-15.70507c0,0 2.96493,-5.48053 4.6729,-6.9732c0.49452,-0.43217 1.44907,-0.91392 2.452,-1.11799c0.44592,-0.09074 0.9402,0.01852 1.34144,-0.03696c0.86632,-0.11976 0.93101,0.61861 0.61202,1.0396z" fill="url(#color-59)"/><path d="M308.95255,423.96908c1.33506,-0.69719 3.15826,-1.64809 3.52148,-1.83131c2.02522,-1.02159 6.39877,-2.18728 6.39877,-2.18728l11.71688,16.16543c0,0 -0.44135,3.21213 -6.41482,0.5643c-4.24064,-1.89119 -6.9115,-4.44524 -6.9115,-4.44524c0,0 -2.58618,3.75557 -3.51772,2.86152c-5.09551,-4.8904 -3.07973,-9.87606 -3.07973,-9.87606c0,0 -1.37061,-0.21208 -1.94423,-0.30082c-0.45537,-0.07047 -0.58936,-0.52218 0.23083,-0.95051z" data-paper-data="{&quot;index&quot;:null}" fill="url(#color-60)"/><path d="M327.79516,413.17554c-0.35183,0.46432 -1.10982,1.46466 -1.10982,1.46466c0,0 9.98602,0.47739 7.83609,6.5069c-0.98949,2.77508 -3.81616,2.24356 -3.81616,2.24356c0,0 1.80875,3.15173 1.96708,7.79225c-0.00577,5.54518 -2.95637,6.67075 -3.80516,6.46649c-1.72236,-0.4145 -4.31336,-1.23103 -4.6079,-1.68028c-1.57105,-2.39617 -5.54248,-15.70507 -5.54248,-15.70507c0,0 2.96493,-5.48053 4.6729,-6.9732c0.49452,-0.43217 1.44907,-0.91392 2.452,-1.11799c0.44592,-0.09074 0.9402,0.01852 1.34144,-0.03696c0.86632,-0.11976 0.93101,0.61861 0.61202,1.0396z" fill="url(#color-61)"/><path d="M308.95255,423.96908c1.33506,-0.69719 3.15826,-1.64809 3.52148,-1.83131c2.02522,-1.02159 6.39877,-2.18728 6.39877,-2.18728l11.71688,16.16543c0,0 -0.44135,3.21213 -6.41482,0.5643c-4.24064,-1.89119 -6.9115,-4.44524 -6.9115,-4.44524c0,0 -2.58618,3.75557 -3.51772,2.86152c-5.09551,-4.8904 -3.07973,-9.87606 -3.07973,-9.87606c0,0 -1.37061,-0.21208 -1.94423,-0.30082c-0.45537,-0.07047 -0.58936,-0.52218 0.23083,-0.95051z" data-paper-data="{&quot;index&quot;:null}" fill="url(#color-62)"/><path d="M327.79516,413.17554c-0.35183,0.46432 -1.10982,1.46466 -1.10982,1.46466c0,0 9.98602,0.47739 7.83609,6.5069c-0.98949,2.77508 -3.81616,2.24356 -3.81616,2.24356c0,0 1.80875,3.15173 1.96708,7.79225c-0.00577,5.54518 -2.95637,6.67075 -3.80516,6.46649c-1.72236,-0.4145 -4.31336,-1.23103 -4.6079,-1.68028c-1.57105,-2.39617 -5.54248,-15.70507 -5.54248,-15.70507c0,0 2.96493,-5.48053 4.6729,-6.9732c0.49452,-0.43217 1.44907,-0.91392 2.452,-1.11799c0.44592,-0.09074 0.9402,0.01852 1.34144,-0.03696c0.86632,-0.11976 0.93101,0.61861 0.61202,1.0396z" fill="url(#color-63)"/><path d="M308.95255,423.96908c1.33506,-0.69719 3.15826,-1.64809 3.52148,-1.83131c2.02522,-1.02159 6.39877,-2.18728 6.39877,-2.18728l11.71688,16.16543c0,0 -0.44135,3.21213 -6.41482,0.5643c-4.24064,-1.89119 -6.9115,-4.44524 -6.9115,-4.44524c0,0 -2.58618,3.75557 -3.51772,2.86152c-5.09551,-4.8904 -3.07973,-9.87606 -3.07973,-9.87606c0,0 -1.37061,-0.21208 -1.94423,-0.30082c-0.45537,-0.07047 -0.58936,-0.52218 0.23083,-0.95051z" data-paper-data="{&quot;index&quot;:null}" fill="url(#color-64)"/></g></g><path d="M-70.56153,392.97386c0,-16.4355 0,-89.05105 0,-89.05105h199.6997c0,0 0,70.48838 0,87.19894c0,6.63462 -6.39222,14.90316 -16.82815,14.90316c-41.42075,0 -146.54351,0 -168.52511,0c-7.94007,0 -14.34643,-6.75908 -14.34643,-13.05105z" fill="url(#color-65)" stroke="none" stroke-width="0" stroke-linecap="butt" stroke-linejoin="miter"/><path d="M50.78571,298.86343h43v107.10055h-42.99998z" fill="#7c7464" stroke="none" stroke-width="0" stroke-linecap="butt" stroke-linejoin="miter"/><path d="M-34.2143,298.61343h43v107.10055h-42.99998z" fill="#7c7464" stroke="none" stroke-width="0" stroke-linecap="butt" stroke-linejoin="miter"/><path d="M-70.55066,328.51446c0,0 -0.09279,-21.05637 -0.09279,-25.92258c0,-1.56759 14.95657,-7.26319 14.95657,-7.26319l182.24949,0.09417c-1.09205,4.10494 1.03328,8.43796 1.03328,12.7895c0,6.76737 0,13.53474 0,20.30211z" fill="url(#color-66)" stroke="none" stroke-width="0" stroke-linecap="butt" stroke-linejoin="miter"/><path d="M-76.60312,280.9312c0,0 -0.02698,0.32297 -0.04609,-1.1973c-0.14226,-12.98086 7.39156,-11.54604 12.82201,-11.54604c18.31743,0 126.34193,0 190.94752,0c0.08427,0.56076 0.21511,1.10627 0.38845,1.63249c0,2.00437 -0.12131,6.40426 0.05397,11.11086z" fill="#94bc85" stroke="none" stroke-width="0" stroke-linecap="butt" stroke-linejoin="miter"/><path d="M-76.6705,305.17411c0,-4.21713 0,-14.07115 0,-14.07115c0,0 115.42392,0.21806 155.94205,0.29461c25.87698,0.04889 9.9776,23.16198 -19.02797,23.16198c-48.63396,0 -95.63587,0 -112.38018,0c-6.10971,0 -9.62673,0 -14.17734,0c-10.0914,0 -10.35657,-5.9413 -10.35657,-9.38544z" fill="#80a374" stroke="none" stroke-width="0" stroke-linecap="butt" stroke-linejoin="miter"/><path d="M-76.70372,301.17413v-22c0,0 2.89607,0 6.7414,0c15.983,0 126.00965,0 190.28373,0c0.01954,0.86766 0.02189,6.7431 0.01825,12.20481c-0.00024,0.3577 -0.0005,0.71363 -0.00079,1.06625c-0.00369,4.53229 -0.01108,8.51984 -0.01554,8.72894z" fill="url(#color-67)" stroke="none" stroke-width="0" stroke-linecap="butt" stroke-linejoin="miter"/><g stroke="none" stroke-width="0" stroke-linecap="butt" stroke-linejoin="miter"><path d="M-67.69473,280.9312c0.17528,-4.7066 0.05397,-9.10649 0.05397,-11.11086c0.17334,-0.52622 0.30418,-1.07173 0.38845,-1.63249c64.60559,0 172.63009,0 190.94752,0c5.43045,0 12.96427,-1.43482 12.82201,11.54604c-0.01911,1.52027 -0.04609,1.1973 -0.04609,1.1973z" data-paper-data="{&quot;index&quot;:null}" fill="#94bc85"/><path d="M136.53851,305.17411c0,3.44414 -0.26517,9.38544 -10.35657,9.38544c-4.55061,0 -8.06763,0 -14.17734,0c-16.74431,0 -63.74622,0 -112.38018,0c-29.00557,0 -44.90496,-23.1131 -19.02798,-23.16198c40.51814,-0.07654 155.94205,-0.2946 155.94205,-0.2946c0,0 0,9.85402 0,14.07115z" data-paper-data="{&quot;index&quot;:null}" fill="#80a374"/><path d="M-60.4553,301.17413c-0.00446,-0.2091 -0.01185,-4.19665 -0.01554,-8.72894c-0.00029,-0.35262 -0.00055,-0.70855 -0.00079,-1.06625c-0.00363,-5.46171 -0.00128,-11.33715 0.01826,-12.20481c64.27409,0 174.30073,0 190.28373,0c3.84533,0 6.7414,0 6.7414,0v22z" data-paper-data="{&quot;index&quot;:null}" fill="url(#color-68)"/></g><path d="M158.13978,360.67392v-13.30774h121.80288v13.30775z" fill="#b7a367" stroke="none" stroke-width="0" stroke-linecap="butt" stroke-linejoin="miter"/><path d="M155.99945,343.09836h126.95339v14.9744c0,0 -14.53489,-0.80408 -24.75119,-1.1784c-12.79532,-0.46881 -21.41758,1.11765 -34.21368,0.7367c-12.05894,-0.359 -20.7426,-0.66512 -32.80295,-0.66512c-6.68025,0 -35.18558,1.10685 -35.18558,1.10685z" fill="url(#color-69)" stroke="none" stroke-width="0" stroke-linecap="butt" stroke-linejoin="miter"/><path d="M202.28803,385.44914v13.30775l-98.47929,-0.00001c-0.00266,-4.43442 -0.04101,-8.87118 -0.09077,-13.30774z" fill="#b7a367" stroke="none" stroke-width="0" stroke-linecap="butt" stroke-linejoin="miter"/><path d="M106.82145,381.0813c33.18811,0 84.66022,0 93.66667,0c2.6757,0 4.81002,2.73834 4.81002,4.64815c0,1.84313 0,5.80076 0,8.66667c0,1.90408 -1.09362,3.14035 -2.89175,2.86281c-4.75718,-0.73428 -14.44548,-2.10998 -21.85944,-2.38163c-12.79532,-0.46881 -21.41758,1.11765 -34.21368,0.7367c-12.05894,-0.359 -20.7426,-0.66512 -32.80295,-0.66512c-1.81654,0 -5.41582,0.1851 -9.73021,0.42444c-0.02066,-4.7631 -0.07536,-9.52815 -0.13405,-14.29202c1.03137,0 2.08385,0 3.15539,0z" fill="url(#color-70)" stroke="none" stroke-width="0" stroke-linecap="butt" stroke-linejoin="miter"/><path d="M114.13972,360.67392v-13.30774h121.80288v13.30775z" fill="#b7a367" stroke="none" stroke-width="0" stroke-linecap="butt" stroke-linejoin="miter"/><path d="M111.99938,343.09836h126.95339v13.9744c0,0 -14.53489,0.19592 -24.75119,-0.1784c-12.79532,-0.46881 -21.41758,1.11765 -34.21368,0.7367c-12.05894,-0.359 -20.7426,0.33488 -32.80295,0.33488c-6.68025,0 -35.18558,0.10685 -35.18558,0.10685z" fill="url(#color-71)" stroke="none" stroke-width="0" stroke-linecap="butt" stroke-linejoin="miter"/><path d="M271.73977,360.72394v-13.30774h124.20288v13.30775z" fill="#b7a367" stroke="none" stroke-width="0" stroke-linecap="butt" stroke-linejoin="miter"/><path d="M267.39941,357.48939l4.6,-14.44107c0,0 11.97943,0 28.4767,0c33.18811,0 84.66022,0 93.66667,0c2.6757,0 4.81002,2.73834 4.81002,4.64815c0,1.84313 0,5.80076 0,8.66667c0,1.90408 -1.09362,3.14035 -2.89175,2.86281c-4.75718,-0.73428 -14.44548,-2.10998 -21.85944,-2.38163c-12.79532,-0.46881 -21.41758,1.11765 -34.21368,0.7367c-12.05894,-0.359 -20.7426,-0.66512 -32.80295,-0.66512c-4.80879,0 -22.11069,1.29717 -32.09983,1.46368c-3.88753,0.0648 -7.68574,-0.89019 -7.68574,-0.89019z" fill="url(#color-72)" stroke="none" stroke-width="0" stroke-linecap="butt" stroke-linejoin="miter"/><path d="M-70.56151,392.97387c0,-16.4355 0,-89.05105 0,-89.05105h199.6997c0,0 0,70.48838 0,87.19894c0,6.63462 -6.39222,14.90316 -16.82815,14.90316c-41.42075,0 -146.54351,0 -168.52511,0c-7.94007,0 -14.34643,-6.75908 -14.34643,-13.05105z" fill="url(#color-73)" stroke="none" stroke-width="0" stroke-linecap="butt" stroke-linejoin="miter"/><path d="M50.78574,298.86343h43v107.10055h-42.99998z" fill="#7c7464" stroke="none" stroke-width="0" stroke-linecap="butt" stroke-linejoin="miter"/><path d="M-34.21428,298.61343h43v107.10055h-42.99998z" fill="#7c7464" stroke="none" stroke-width="0" stroke-linecap="butt" stroke-linejoin="miter"/><path d="M-70.55063,328.51453c0,0 -0.09279,-21.05637 -0.09279,-25.92258c0,-1.56759 14.95657,-7.26319 14.95657,-7.26319l182.24949,0.09417c-1.09205,4.10494 1.03328,8.43796 1.03328,12.7895c0,6.76737 0,13.53474 0,20.30211z" fill="url(#color-74)" stroke="none" stroke-width="0" stroke-linecap="butt" stroke-linejoin="miter"/><path d="M-76.6031,280.9312c0,0 -0.02698,0.32297 -0.04609,-1.1973c-0.14226,-12.98086 7.39156,-11.54604 12.82201,-11.54604c18.31743,0 126.34193,0 190.94752,0c0.08427,0.56076 0.21511,1.10627 0.38845,1.63249c0,2.00437 -0.12131,6.40426 0.05397,11.11086z" fill="#94bc85" stroke="none" stroke-width="0" stroke-linecap="butt" stroke-linejoin="miter"/><path d="M-76.67048,305.17411c0,-4.21713 0,-14.07115 0,-14.07115c0,0 115.42392,0.21806 155.94205,0.29461c25.87698,0.04889 9.9776,23.16198 -19.02797,23.16198c-48.63396,0 -95.63587,0 -112.38018,0c-6.10971,0 -9.62673,0 -14.17734,0c-10.0914,0 -10.35657,-5.9413 -10.35657,-9.38544z" fill="#80a374" stroke="none" stroke-width="0" stroke-linecap="butt" stroke-linejoin="miter"/><path d="M-76.7037,301.17413v-22c0,0 2.89607,0 6.7414,0c15.983,0 126.00965,0 190.28373,0c0.01954,0.86766 0.02189,6.7431 0.01825,12.20481c-0.00024,0.3577 -0.0005,0.71363 -0.00079,1.06625c-0.00369,4.53229 -0.01108,8.51984 -0.01554,8.72894z" fill="url(#color-75)" stroke="none" stroke-width="0" stroke-linecap="butt" stroke-linejoin="miter"/><g stroke="none" stroke-width="0" stroke-linecap="butt" stroke-linejoin="miter"><path d="M-67.69473,280.9312c0.17528,-4.7066 0.05397,-9.10649 0.05397,-11.11086c0.17334,-0.52622 0.30418,-1.07173 0.38845,-1.63249c64.60559,0 172.63009,0 190.94752,0c5.43045,0 12.96427,-1.43482 12.82201,11.54604c-0.01911,1.52027 -0.04609,1.1973 -0.04609,1.1973z" data-paper-data="{&quot;index&quot;:null}" fill="#94bc85"/><path d="M136.53851,305.17411c0,3.44414 -0.26517,9.38544 -10.35657,9.38544c-4.55061,0 -8.06763,0 -14.17734,0c-16.74431,0 -63.74622,0 -112.38018,0c-29.00557,0 -44.90496,-23.1131 -19.02798,-23.16198c40.51814,-0.07654 155.94205,-0.2946 155.94205,-0.2946c0,0 0,9.85402 0,14.07115z" data-paper-data="{&quot;index&quot;:null}" fill="#80a374"/><path d="M-60.45527,301.17413c-0.00446,-0.2091 -0.01185,-4.19665 -0.01554,-8.72894c-0.00029,-0.35262 -0.00055,-0.70855 -0.00079,-1.06625c-0.00363,-5.46171 -0.00128,-11.33715 0.01826,-12.20481c64.27409,0 174.30073,0 190.28373,0c3.84533,0 6.7414,0 6.7414,0v22z" data-paper-data="{&quot;index&quot;:null}" fill="url(#color-76)"/></g><path d="M179.12746,388.75959c0,-2.4559 0,-5.45641 0,-6.91645c0,-1.65335 2.17734,-3.99392 4.43787,-3.99392c2.63347,0 9.34651,0 14.025,0c2.82181,0 4.90348,1.90788 4.90348,3.80179c0,2.12683 0,5.10487 0,6.5322c0,1.97927 -1.88936,4.37817 -4.51923,4.37817c-4.90287,0 -12.37945,0 -14.98562,0c-1.78161,0 -3.86151,-1.7018 -3.86151,-3.80179z" fill="#e9d18c" stroke="none" stroke-width="NaN" stroke-linecap="butt" stroke-linejoin="miter"/><path d="M210.62746,380.25959c0,-2.4559 0,-5.45641 0,-6.91645c0,-1.65335 2.17734,-3.99392 4.43787,-3.99392c2.63347,0 9.34651,0 14.025,0c2.82181,0 4.90348,1.90788 4.90348,3.80179c0,2.12683 0,5.10487 0,6.5322c0,1.97927 -1.88936,4.37817 -4.51923,4.37817c-4.90287,0 -12.37945,0 -14.98562,0c-1.78161,0 -3.86151,-1.7018 -3.86151,-3.80179z" fill="#dbc583" stroke="none" stroke-width="NaN" stroke-linecap="butt" stroke-linejoin="miter"/><path d="M277.49895,384.09598c0,-2.19702 0,-4.88124 0,-6.18737c0,-1.47906 1.94782,-3.57291 3.97007,-3.57291c2.35587,0 8.36129,0 12.54661,0c2.52436,0 4.38659,1.70677 4.38659,3.40104c0,1.90264 0,4.56676 0,5.84364c0,1.77064 -1.6902,3.91666 -4.04285,3.91666c-4.38605,0 -11.07451,0 -13.40597,0c-1.59381,0 -3.45446,-1.52241 -3.45446,-3.40104z" fill="#dbc583" stroke="none" stroke-width="NaN" stroke-linecap="butt" stroke-linejoin="miter"/><path d="M305.99895,379.59598c0,-2.19702 0,-4.88124 0,-6.18737c0,-1.47906 1.94783,-3.57291 3.97007,-3.57291c2.35587,0 8.36129,0 12.54661,0c2.52436,0 4.3866,1.70677 4.3866,3.40104c0,1.90265 0,4.56676 0,5.84364c0,1.77064 -1.69021,3.91665 -4.04286,3.91665c-4.38605,0 -11.07451,0 -13.40597,0c-1.59382,0 -3.45446,-1.52241 -3.45446,-3.40104z" fill="#e9d18c" stroke="none" stroke-width="NaN" stroke-linecap="butt" stroke-linejoin="miter"/><path d="M357.62746,383.25959c0,-2.4559 0,-5.45641 0,-6.91645c0,-1.65335 2.17734,-3.99392 4.43787,-3.99392c2.63347,0 9.34652,0 14.02501,0c2.8218,0 4.90347,1.90788 4.90347,3.80179c0,2.12683 0,5.10487 0,6.5322c0,1.97927 -1.88936,4.37817 -4.51923,4.37817c-4.90287,0 -12.37945,0 -14.98562,0c-1.78161,0 -3.86151,-1.7018 -3.86151,-3.80179z" fill="#dbc583" stroke="none" stroke-width="NaN" stroke-linecap="butt" stroke-linejoin="miter"/><path d="M-17.06432,394.22711c0,20.31678 -18.48674,36.78679 -41.29129,36.78679c-22.80455,0 -41.29129,-16.47001 -41.29129,-36.78679c0,-20.31678 18.48674,-36.78679 41.29129,-36.78679c22.80455,0 41.29129,16.47001 41.29129,36.78679z" fill="none" stroke="none" stroke-width="0" stroke-linecap="butt" stroke-linejoin="miter"/></g></g></svg>