<svg version="1.1" xmlns="http://www.w3.org/2000/svg" xmlns:xlink="http://www.w3.org/1999/xlink" width="470.71305" height="319.51097" viewBox="0,0,470.71305,319.51097"><g transform="translate(-1.64048,-9.73402)"><g data-paper-data="{&quot;isPaintingLayer&quot;:true}" fill-rule="nonzero" stroke="none" stroke-linecap="butt" stroke-linejoin="miter" stroke-miterlimit="10" stroke-dasharray="" stroke-dashoffset="0" style="mix-blend-mode: normal"><g stroke-width="1"><path d="M185.25672,245.23378c0,3.40238 1.49862,9.17815 -0.86696,12.10605c-4.89027,-2.53251 -6.46795,-6.80478 -8.51818,-11.6306l-0.78886,0.15816c-1.26137,3.16417 1.34046,8.14914 1.02511,11.55152c-6.23073,-0.47448 -6.15163,-7.12108 -9.38512,-10.68165l-0.55258,0.23724c0.78886,3.16514 3.23447,6.64662 3.31257,9.89084c-3.23349,3.48048 -8.91259,-17.80274 -9.22794,-19.069c-1.97114,-8.14914 -4.17951,-16.45741 -5.28371,-24.76469c-1.73586,-12.81777 -2.13028,-30.22414 -1.18327,-44.78264l28.23542,-1.74073l4.02234,47.78963c1.18327,5.77575 -0.78886,25.08101 -0.78886,30.93585z" fill="#bfc572"/><path d="M182.49673,179.5633c0,0 -29.18242,3.08607 -32.65217,-1.02902c1.1823,-25.87278 31.15358,-37.108 31.15358,-37.108z" fill="#825726"/></g><g stroke-width="1"><path d="M329.19674,236.05563c-0.78886,5.69669 -1.73488,15.11206 -6.46697,18.98992l-0.86792,-0.07908c-0.947,-1.50349 0.23626,-6.09305 0,-7.99195c-2.99723,-1.74073 -3.07631,10.28625 -7.25582,9.17815c-0.78886,-2.61061 -0.31632,-8.54454 -2.20838,-10.44342c-2.99723,0.23724 -4.1805,7.67465 -6.54703,9.81079l-1.1823,-0.07908c-2.68188,-2.21521 -5.20561,-22.4704 -5.20561,-25.71463l-2.84004,-53.5654c3.47073,-1.97798 24.29216,-9.01999 28.15732,-9.88987c1.73488,1.89889 2.36654,12.50048 2.68188,14.79575c0.5516,3.7187 1.1823,7.35834 1.49862,11.07704c0.5516,7.12012 0.94602,14.32029 1.10419,21.44138c0.15719,7.59558 0.23626,14.87482 -0.86792,22.4704z" fill="#bfc572"/><path d="M330.06468,177.26901c-1.57769,1.74073 -13.96005,0.94896 -27.2894,1.26528l-11.75166,-13.68765l7.41301,-24.92285c5.44284,1.97798 29.97128,17.72268 31.62805,37.34524z" fill="#825726"/></g><g stroke-width="1"><path d="M274.06636,236.58609l24.13401,3.7187c0,0.3954 -3.62791,21.75771 -3.62791,21.75771l9.54328,0.15816c0,0 -0.07908,0.63362 -0.15816,0.87086c-3.15441,0.07908 -30.60196,-0.07908 -30.60196,-0.07908c0,0 0.55258,-25.95187 0.71074,-26.42634z" fill="#6d7041"/><path d="M267.59841,251.46092c-1.49862,-13.1341 -1.34046,-49.3722 -1.34046,-51.50835l38.01594,16.45741c0.31534,2.21521 -1.57769,22.075 -1.97212,26.34728c-0.23626,2.76877 -0.07908,5.77575 -0.23626,8.6246z" fill="#005a5a"/><path d="M264.444,245.44695h40.61777v13.05501h-40.61777z" fill="#006482"/></g><g stroke-width="1"><path d="M214.5973,263.01244c0,0 -27.44756,0.15816 -30.60196,0.07908c-0.07908,-0.23724 -0.15816,-0.87086 -0.15816,-0.87086l9.54328,-0.15816c0,0 -3.62791,-21.36231 -3.62791,-21.75771l24.13499,-3.7187c0.07908,0.47448 0.70976,26.42634 0.70976,26.42634z" fill="#6d7041"/><path d="M188.33302,250.19466c-2.05022,-8.14914 -3.70699,-32.20211 -3.70699,-32.20211l34.46711,-9.96993l0.0781,42.09296z" fill="#005a5a"/><path d="M183.60092,247.02952h38.56755v13.05501h-38.56755z" fill="#006482"/></g><g stroke-width="1"><path d="M274.06636,121.01294v2.05705c-1.65677,0 -6.86239,0.15914 -10.09586,0.07908v-2.05705c2.83907,-0.07908 7.25582,-0.15816 10.09586,-0.07908z" fill="#fab414"/><path d="M276.19565,126.39329c-1.57769,0.3954 -3.07631,0.63362 -4.65401,0.79177l-2.36556,-10.60256c1.49862,-0.71172 4.49583,-0.71172 4.49583,-0.71172z" fill="#ffc800"/><path d="M217.12104,121.09202v2.05705c-3.23349,0.08006 -8.43908,-0.07908 -10.09586,-0.07908v-2.05705c2.76095,-0.07908 7.17772,0 10.09586,0.07908z" fill="#fab414"/><path d="M207.4196,115.87079c0,0 2.99723,0 4.49583,0.71172l-2.36556,10.60256c-1.57769,-0.15816 -3.07631,-0.39637 -4.65401,-0.79177z" fill="#ffc800"/><path d="M270.51655,138.65753l-59.46808,0.23724c0.78786,-7.04202 2.12929,-20.49243 4.17951,-24.76469c2.44562,-5.06403 7.41399,-3.87686 12.38333,-3.95692c5.28371,-0.07908 29.33962,-1.02803 36.7536,1.02902c1.97212,1.89889 5.44187,21.04599 6.15163,27.45537z" fill="#bfc572"/><path d="M268.30817,124.49441c0,0 0.07908,0 0.07908,0.07908z" fill="#a0aa1e"/><path d="M247.72299,122.91184c-3.07631,1.02902 -13.40843,0.55453 -13.72378,0.3173c0,-2.61158 -0.5516,-5.38037 5.99445,-5.77673c6.54605,-0.3954 7.17772,3.08607 7.72932,5.45943z" fill="#82783c"/><path d="M238.49505,125.91882c0,0 2.91815,-0.15816 4.33767,-0.07908c0.15816,0.3954 0.23724,0.86988 0.15816,1.26625c-0.07908,0.07908 -0.07908,0.23724 -0.15816,0.23724c-0.5516,0 -4.10141,0.31632 -4.33767,-0.23724c0,-0.3173 0,-0.79177 0,-1.18717z" fill="#000000"/><path d="M262.07744,121.72563c0,1.18619 -0.6307,1.34436 -1.10419,1.34436c-1.26137,-0.07908 -1.34046,-1.74073 -1.02511,-2.21521c0.15719,-0.3954 0.5516,-0.71172 1.02511,-0.71172c0.4735,0 1.10419,0.3954 1.10419,1.58258z" fill="#000000"/><path d="M223.90433,121.72563c0,1.18619 -0.63166,1.34436 -1.10419,1.34436c-1.26236,-0.07908 -1.34143,-1.74073 -1.02608,-2.21521c0.15816,-0.3954 0.55258,-0.71172 1.02608,-0.71172c0.47252,0 1.10419,0.3954 1.10419,1.58258z" fill="#000000"/><path d="M245.04111,120.61754c0.63166,0 1.10419,0.47448 1.10419,1.10809c0,0.7908 -0.6307,0.86988 -1.10419,0.86988c-1.26137,-0.07908 -1.26137,-1.18619 -1.02511,-1.50349c0.23626,-0.31632 0.6307,-0.47448 1.02511,-0.47448c0.07908,0 0.07908,0 0,0z" fill="#645a1e"/></g><path d="M181.07719,162.23602c-0.39442,-7.12108 -0.07908,-20.96788 -0.07908,-20.96788c0,0 7.17772,-3.56054 12.93493,-5.69669c5.75721,-2.13613 13.88095,-3.32331 13.88095,-3.32331c0,0 59.46905,-0.47448 67.43464,-0.15816c7.17772,0.31632 19.16564,3.32331 23.18798,7.75374c0.23724,1.34533 2.28746,16.29925 2.36654,16.61557c0.94602,4.90588 1.89303,22.075 1.89303,22.075l-61.28301,24.13205l-58.99555,-23.10304c0,0 -0.78886,-7.20018 -1.34046,-17.32728z" fill="#a0640a" stroke-width="1"/><path d="M249.22161,185.65538l-7.49306,44.5454l-57.1816,0.7127l-2.20838,-51.35019c0,0 19.56008,-26.03094 23.97683,-27.69261c0.07908,0.23724 3.54981,0 3.54981,0c0,0 15.93217,-0.15816 31.86334,-0.15816z" fill="#5e968a" stroke-width="1"/><path d="M241.80763,151.71254c14.43355,0 29.33962,0.07908 34.38803,0.3954c5.12653,2.84882 26.50054,26.42634 26.50054,26.42634l1.57769,50.8757l-62.54535,0.7908z" fill="#5e968a" stroke-width="1"/><path d="M278.64031,130.42833c1.34143,8.15011 1.10419,35.5264 1.10419,35.5264l-7.57116,-0.08006l-0.78886,-35.44634z" fill="#005a5a" stroke-width="1"/><path d="M276.27473,159.86168c1.1823,0.07908 2.12929,1.10809 2.05022,2.29429c0,1.66165 -1.26236,1.97895 -2.28746,1.89987c-2.6028,-0.08006 -2.68188,-2.45342 -2.12929,-3.16514c0.5516,-0.7127 1.34046,-1.10809 2.20838,-1.10809c0,0 0.07908,0 0.15816,0.07908z" fill="#ffc800" stroke-width="1"/><path d="M210.33773,130.42833l-0.78786,35.44634l-7.49306,0.08006c0,0 -0.23626,-27.37629 1.10419,-35.5264z" fill="#005a5a" stroke-width="1"/><path d="M205.60564,159.78259c0.86792,0 1.65677,0.3954 2.20838,1.10809c0.55258,0.71172 0.4735,3.08508 -2.12929,3.16514c-1.02511,0.07908 -2.28746,-0.23822 -2.28746,-1.89987c-0.07908,-1.18619 0.86792,-2.21521 2.05119,-2.29429c0,-0.07908 0.07908,-0.07908 0.15719,-0.07908z" fill="#ffc800" stroke-width="1"/><path d="M254.82163,171.0178c0.07908,1.10809 0.07908,2.21521 0.07908,3.32331c0.0781,4.8268 -1.18327,10.99796 -5.91537,13.68765c-4.10141,2.37435 -12.85683,2.05803 -16.721,-0.7908c-3.23349,-3.48147 -5.44187,-10.8398 -4.1805,-16.22015z" fill="#005a5a" stroke-width="1"/><path d="M226.19082,165.95473h30.28662v8.54454h-30.28662z" fill="#006482" stroke-width="1"/><path d="M241.80763,168.32809c1.26236,0.07908 2.20838,1.18619 2.12929,2.45245c0,1.74073 -1.1823,2.05705 -2.28648,1.97798c-2.68188,-0.15816 -2.84004,-2.53153 -2.20935,-3.32331c0.55258,-0.71172 1.42052,-1.18619 2.28746,-1.10712z" fill="#fab414" stroke-width="1"/><path d="M343.08591,285.22885c0,-13.25483 12.75988,-24 28.5,-24c15.74012,0 28.5,10.74517 28.5,24c0,13.25483 -12.75988,24 -28.5,24c-15.74012,0 -28.5,-10.74517 -28.5,-24z" fill="none" stroke-width="0"/><path d="M1.64048,169.48951c0,-88.23052 105.37269,-159.75549 235.35652,-159.75549c129.98383,0 235.35653,71.52496 235.35653,159.75548c0,88.23051 -105.3727,159.75549 -235.35653,159.75549c-129.98382,0 -235.35652,-71.52498 -235.35652,-159.75549z" fill="none" stroke-width="0"/></g></g></svg>