<svg version="1.1" xmlns="http://www.w3.org/2000/svg" xmlns:xlink="http://www.w3.org/1999/xlink" width="850.27437" height="280.20244" viewBox="0,0,850.27437,280.20244"><defs><linearGradient x1="515.7936" y1="199.13131" x2="515.09268" y2="222.65656" gradientUnits="userSpaceOnUse" id="color-1"><stop offset="0" stop-color="#ecd284"/><stop offset="1" stop-color="#c5af6e"/></linearGradient><linearGradient x1="395.34109" y1="76.22578" x2="391.58122" y2="99.45921" gradientUnits="userSpaceOnUse" id="color-2"><stop offset="0" stop-color="#ecd284"/><stop offset="1" stop-color="#c5af6e"/></linearGradient><linearGradient x1="69.61903" y1="-5.1497" x2="69.61903" y2="38.89258" gradientUnits="userSpaceOnUse" id="color-3"><stop offset="0" stop-color="#969696"/><stop offset="1" stop-color="#525252"/></linearGradient><linearGradient x1="71.9448" y1="-28.6036" x2="71.9448" y2="38.97674" gradientUnits="userSpaceOnUse" id="color-4"><stop offset="0" stop-color="#ffca1b"/><stop offset="1" stop-color="#dbb432"/></linearGradient><linearGradient x1="-26.11827" y1="-6.07507" x2="-26.11827" y2="61.50527" gradientUnits="userSpaceOnUse" id="color-5"><stop offset="0" stop-color="#ffca1b"/><stop offset="1" stop-color="#dbb432"/></linearGradient><linearGradient x1="198.58144" y1="-2.56758" x2="198.58144" y2="65.01278" gradientUnits="userSpaceOnUse" id="color-6"><stop offset="0" stop-color="#ffca1b"/><stop offset="1" stop-color="#dbb432"/></linearGradient><linearGradient x1="139.01684" y1="26.45646" x2="139.01684" y2="94.0368" gradientUnits="userSpaceOnUse" id="color-7"><stop offset="0" stop-color="#ffca1b"/><stop offset="1" stop-color="#dbb432"/></linearGradient><linearGradient x1="654.05725" y1="121.8608" x2="654.05725" y2="132.29679" gradientUnits="userSpaceOnUse" id="color-8"><stop offset="0" stop-color="#a38f68"/><stop offset="1" stop-color="#b7a175"/></linearGradient><linearGradient x1="621.0348" y1="121.8608" x2="621.0348" y2="132.29679" gradientUnits="userSpaceOnUse" id="color-9"><stop offset="0" stop-color="#a38f68"/><stop offset="1" stop-color="#b7a175"/></linearGradient></defs><g transform="translate(145.7454,28.6036)"><g data-paper-data="{&quot;isPaintingLayer&quot;:true}" fill-rule="nonzero" stroke="none" stroke-linecap="butt" stroke-linejoin="miter" stroke-miterlimit="10" stroke-dasharray="" stroke-dashoffset="0" style="mix-blend-mode: normal"><path d="M555.17815,210.47049c0.00128,0.22182 1.01826,16.02329 1.59963,26.80676c0.30192,5.60014 -2.63885,10.04229 -7.42209,10.34129c-16.88619,1.05557 -55.95028,3.49747 -63.33046,3.9588c-6.15587,0.3848 -8.77801,-4.47309 -9.01147,-8.20793c-0.41723,-6.67453 -1.74427,-27.90381 -1.74427,-27.90381z" data-paper-data="{&quot;index&quot;:null}" fill="#e4cb7f" stroke-width="0"/><path d="M475.70327,222.89526l-0.83025,-13.28183l79.88031,-4.99332l0.83026,13.28181z" data-paper-data="{&quot;index&quot;:null}" fill="#b7a367" stroke-width="0"/><path d="M476.62939,205.12729c7.52594,-0.47046 76.48911,-4.78136 76.48911,-4.78136c0,0 4.61379,-0.8153 4.85889,3.09562c0.18506,0.83553 0.64085,10.32691 0.64085,10.32691c0,0 -0.04459,2.88303 -2.43272,3.09781c-2.45305,0.22062 -6.05557,0.08178 -9.90073,-0.12549c-5.74079,-0.30945 -12.02238,-0.77141 -15.82674,-0.41726c-12.48102,1.16188 -21.00595,0.10522 -33.48074,1.35476c-7.22823,0.72402 -16.61014,2.68887 -21.21322,3.71232c-1.73987,0.38685 -2.88572,-0.78021 -3.00451,-2.68058c-0.17879,-2.86033 -0.42572,-6.81025 -0.5407,-8.64979c-0.11915,-1.90609 1.79574,-4.76946 4.41053,-4.93292z" data-paper-data="{&quot;index&quot;:null}" fill="url(#color-1)" stroke-width="0"/><path d="M532.54702,233.93916c0.13174,2.10749 -1.84881,3.94585 -3.63679,4.05762c-2.61548,0.1635 -10.11875,0.63253 -15.03914,0.9401c-2.63927,0.16498 -4.68586,-2.12395 -4.81002,-4.1103c-0.08954,-1.43243 -0.27636,-4.4211 -0.40979,-6.55553c-0.11881,-1.90068 1.8506,-3.94596 4.68249,-4.12299c4.69519,-0.2935 11.43222,-0.71463 14.0751,-0.87984c2.26861,-0.14182 4.60055,2.07053 4.70427,3.72978c0.0916,1.46525 0.27983,4.47648 0.43389,6.94115z" data-paper-data="{&quot;index&quot;:null}" fill="#e9d18c" stroke-width="NaN"/><path d="M550.29477,237.50913c0.11151,1.78388 -1.56493,3.33996 -3.07837,3.43456c-2.21387,0.13839 -8.565,0.5354 -12.72985,0.79575c-2.234,0.13965 -3.96634,-1.79781 -4.07144,-3.47915c-0.07579,-1.21248 -0.23392,-3.74223 -0.34687,-5.54892c-0.10057,-1.60883 1.56644,-3.34004 3.96348,-3.48989c3.97424,-0.24844 9.67677,-0.60491 11.91383,-0.74474c1.92026,-0.12004 3.89414,1.75259 3.98192,3.15706c0.07753,1.24026 0.23686,3.78911 0.36727,5.87532z" data-paper-data="{&quot;index&quot;:null}" fill="#e9d18c" stroke-width="NaN"/><path d="M432.91269,92.59938c-0.02763,0.2201 -1.07795,16.01939 -1.90642,26.78669c-0.43025,5.59175 -3.92468,9.61291 -8.70611,9.28619c-16.87979,-1.15338 -55.92908,-3.82161 -63.30646,-4.32571c-6.15354,-0.42047 -8.12044,-5.57858 -7.86533,-9.312c0.45589,-6.672 1.90594,-27.89323 1.90594,-27.89323z" data-paper-data="{&quot;index&quot;:null}" fill="#e4cb7f" stroke-width="0"/><path d="M352.49643,94.56418l0.9072,-13.2768l79.85003,5.45614l-0.90719,13.27678z" data-paper-data="{&quot;index&quot;:null}" fill="#b7a367" stroke-width="0"/><path d="M355.72948,77.06829c7.52309,0.51404 76.46012,5.22448 76.46012,5.22448c0,0 4.68069,-0.20726 4.41418,3.70226c0.07463,0.85252 -0.71001,10.32239 -0.71001,10.32239c0,0 -0.41981,2.85265 -2.81557,2.75447c-2.46089,-0.10085 -6.01461,-0.70784 -9.8,-1.4143c-5.65155,-1.05473 -11.81941,-2.33112 -15.63749,-2.47563c-12.52602,-0.47406 -20.84063,-2.63236 -33.37189,-3.0187c-7.26095,-0.22385 -16.81888,0.50196 -21.51607,0.917c-1.77544,0.15688 -2.75948,-1.14952 -2.62967,-3.04916c0.19538,-2.85924 0.46516,-6.80767 0.59081,-8.64651c0.13019,-1.90537 2.40181,-4.49486 5.01561,-4.31627z" data-paper-data="{&quot;index&quot;:null}" fill="url(#color-2)" stroke-width="0"/><path d="M407.41689,112.91963c-0.14395,2.10669 -2.34712,3.67135 -4.13443,3.54923c-2.61449,-0.17864 -10.11492,-0.69114 -15.03344,-1.02723c-2.63827,-0.18027 -4.36921,-2.71633 -4.23353,-4.70192c0.09784,-1.43189 0.30198,-4.41942 0.44776,-6.55305c0.12983,-1.89996 2.34891,-3.67123 5.17973,-3.47781c4.69341,0.3207 11.42789,0.78086 14.06977,0.96138c2.26775,0.15495 4.29159,2.65225 4.17826,4.31087c-0.10008,1.4647 -0.30576,4.47478 -0.47411,6.93852z" data-paper-data="{&quot;index&quot;:null}" fill="#e9d18c" stroke-width="NaN"/><path d="M424.5483,118.77137c-0.12185,1.7832 -1.98673,3.10761 -3.49959,3.00423c-2.21303,-0.15122 -8.56175,-0.58502 -12.72503,-0.86949c-2.23315,-0.15259 -3.69831,-2.29923 -3.58347,-3.97993c0.08282,-1.21202 0.25562,-3.74081 0.37901,-5.54682c0.10989,-1.60822 1.98823,-3.1075 4.38437,-2.94378c3.97273,0.27145 9.6731,0.66095 11.90932,0.81375c1.91953,0.13116 3.63262,2.24499 3.53668,3.64892c-0.08471,1.23979 -0.25881,3.78767 -0.4013,5.87309z" data-paper-data="{&quot;index&quot;:null}" fill="#e9d18c" stroke-width="NaN"/><g data-paper-data="{&quot;index&quot;:null}"><path d="M-25.49353,38.89258v-44.04227h190.2251v44.04227z" fill="url(#color-3)" stroke-width="0"/><path d="M166.57191,-11.02326c13.80712,0 25,11.19288 25,25c0,13.80712 -11.19288,25 -25,25c-7.65738,0 -14.51068,-3.44268 -19.09655,-8.86468c-1.25232,0.19314 -2.53533,0.29335 -3.84172,0.29335c-6.33076,0 -12.11191,-2.35314 -16.51652,-6.23246c-4.4046,3.87933 -10.18576,6.23246 -16.51652,6.23246c-7.08585,0 -13.48317,-2.94795 -18.03242,-7.68429c-0.97993,0.11673 -1.97726,0.17678 -2.98861,0.17678c-5.30223,0 -10.21893,-1.65063 -14.26427,-4.46609c-4.04534,2.81545 -8.96204,4.46609 -14.26426,4.46609c-6.71196,0 -12.80614,-2.64505 -17.29702,-6.94966c-4.58063,5.18292 -11.27815,8.45116 -18.73901,8.45116c-5.74721,0 -11.04146,-1.93932 -15.26406,-5.19926c-2.63929,1.18951 -5.52218,1.93427 -8.5532,2.13881c-3.16123,10.18343 -12.65703,17.5788 -23.8801,17.5788c-13.80712,0 -25,-11.19288 -25,-25c0,-13.23297 10.28136,-24.0646 23.29173,-24.94256c3.16124,-10.18344 12.65703,-17.57879 23.8801,-17.57879c5.74721,0 11.04146,1.93932 15.26406,5.19926c3.13083,-1.41104 6.60444,-2.19625 10.26147,-2.19625c6.71196,0 12.80614,2.64505 17.29702,6.94965c4.58063,-5.18292 11.27815,-8.45116 18.73901,-8.45116c5.30223,0 10.21892,1.65064 14.26426,4.46609c4.04534,-2.81545 8.96204,-4.46609 14.26427,-4.46609c7.08584,0 13.48317,2.94795 18.03242,7.6843c0.97993,-0.11674 1.97725,-0.17679 2.9886,-0.17679c6.33076,0 12.11191,2.35314 16.51652,6.23247c4.4046,-3.87933 10.18575,-6.23247 16.51652,-6.23247c7.65738,0 14.51068,3.44268 19.09655,8.86468c1.25233,-0.19315 2.53533,-0.29334 3.84172,-0.29334z" fill="url(#color-4)" stroke-width="0.5"/></g><g data-paper-data="{&quot;index&quot;:null}"><path d="M-123.5566,61.42112v-44.04227h190.2251v44.04227z" fill="#d2a617" stroke-width="0"/><path d="M68.50887,11.50527c13.80712,0 25,11.19288 25,25c0,13.80712 -11.19288,25 -25,25c-7.65738,0 -14.51068,-3.44268 -19.09655,-8.86468c-1.25232,0.19314 -2.53533,0.29335 -3.84172,0.29335c-6.33076,0 -12.11191,-2.35314 -16.51652,-6.23246c-4.4046,3.87933 -10.18576,6.23246 -16.51652,6.23246c-7.08585,0 -13.48317,-2.94795 -18.03242,-7.68429c-0.97993,0.11673 -1.97726,0.17678 -2.98861,0.17678c-5.30223,0 -10.21893,-1.65063 -14.26427,-4.46609c-4.04534,2.81545 -8.96204,4.46609 -14.26426,4.46609c-6.71196,0 -12.80614,-2.64505 -17.29702,-6.94966c-4.58063,5.18292 -11.27815,8.45116 -18.73901,8.45116c-5.74721,0 -11.04146,-1.93932 -15.26406,-5.19926c-2.63929,1.18951 -5.52218,1.93427 -8.5532,2.13881c-3.16123,10.18343 -12.65703,17.5788 -23.8801,17.5788c-13.80712,0 -25,-11.19288 -25,-25c0,-13.23297 10.28136,-24.0646 23.29173,-24.94256c3.16124,-10.18344 12.65703,-17.57879 23.8801,-17.57879c5.74721,0 11.04146,1.93932 15.26406,5.19926c3.13083,-1.41104 6.60444,-2.19625 10.26147,-2.19625c6.71196,0 12.80614,2.64505 17.29702,6.94965c4.58063,-5.18292 11.27815,-8.45116 18.73901,-8.45116c5.30223,0 10.21892,1.65064 14.26426,4.46609c4.04534,-2.81545 8.96204,-4.46609 14.26427,-4.46609c7.08584,0 13.48317,2.94795 18.03242,7.6843c0.97993,-0.11674 1.97725,-0.17679 2.9886,-0.17679c6.33076,0 12.11191,2.35314 16.51652,6.23247c4.4046,-3.87933 10.18575,-6.23247 16.51652,-6.23247c7.65738,0 14.51068,3.44268 19.09655,8.86468c1.25233,-0.19315 2.53533,-0.29334 3.84172,-0.29334z" fill="url(#color-5)" stroke-width="0.5"/></g><g data-paper-data="{&quot;index&quot;:null}"><path d="M101.14313,64.92861v-44.04227h190.2251v44.04227z" fill="#d2a617" stroke-width="0"/><path d="M293.20858,15.01278c13.80712,0 25,11.19288 25,25c0,13.80712 -11.19288,25 -25,25c-7.65738,0 -14.51068,-3.44268 -19.09655,-8.86468c-1.25232,0.19314 -2.53533,0.29335 -3.84172,0.29335c-6.33076,0 -12.11191,-2.35314 -16.51652,-6.23246c-4.4046,3.87933 -10.18576,6.23246 -16.51652,6.23246c-7.08585,0 -13.48317,-2.94795 -18.03242,-7.68429c-0.97993,0.11673 -1.97726,0.17678 -2.98861,0.17678c-5.30223,0 -10.21893,-1.65063 -14.26427,-4.46609c-4.04534,2.81545 -8.96204,4.46609 -14.26426,4.46609c-6.71196,0 -12.80614,-2.64505 -17.29702,-6.94966c-4.58063,5.18292 -11.27815,8.45116 -18.73901,8.45116c-5.74721,0 -11.04146,-1.93932 -15.26406,-5.19926c-2.63929,1.18951 -5.52218,1.93427 -8.5532,2.13881c-3.16123,10.18343 -12.65703,17.5788 -23.8801,17.5788c-13.80712,0 -25,-11.19288 -25,-25c0,-13.23297 10.28136,-24.0646 23.29173,-24.94256c3.16124,-10.18344 12.65703,-17.57879 23.8801,-17.57879c5.74721,0 11.04146,1.93932 15.26406,5.19926c3.13083,-1.41104 6.60444,-2.19625 10.26147,-2.19625c6.71196,0 12.80614,2.64505 17.29702,6.94965c4.58063,-5.18292 11.27815,-8.45116 18.73901,-8.45116c5.30223,0 10.21892,1.65064 14.26426,4.46609c4.04534,-2.81545 8.96204,-4.46609 14.26427,-4.46609c7.08584,0 13.48317,2.94795 18.03242,7.6843c0.97993,-0.11674 1.97725,-0.17679 2.9886,-0.17679c6.33076,0 12.11191,2.35314 16.51652,6.23247c4.4046,-3.87933 10.18575,-6.23247 16.51652,-6.23247c7.65738,0 14.51068,3.44268 19.09655,8.86468c1.25233,-0.19315 2.53533,-0.29334 3.84172,-0.29334z" fill="url(#color-6)" stroke-width="0.5"/></g><g data-paper-data="{&quot;index&quot;:null}"><path d="M41.57854,93.95266v-44.04227h190.2251v44.04227z" fill="#d2a617" stroke-width="0"/><path d="M233.64401,44.0368c13.80712,0 25,11.19288 25,25c0,13.80712 -11.19288,25 -25,25c-7.65738,0 -14.51068,-3.44268 -19.09655,-8.86468c-1.25232,0.19314 -2.53533,0.29335 -3.84172,0.29335c-6.33076,0 -12.11191,-2.35314 -16.51652,-6.23246c-4.4046,3.87933 -10.18576,6.23246 -16.51652,6.23246c-7.08585,0 -13.48317,-2.94795 -18.03242,-7.68429c-0.97993,0.11673 -1.97726,0.17678 -2.98861,0.17678c-5.30223,0 -10.21893,-1.65063 -14.26427,-4.46609c-4.04534,2.81545 -8.96204,4.46609 -14.26426,4.46609c-6.71196,0 -12.80614,-2.64505 -17.29702,-6.94966c-4.58063,5.18292 -11.27815,8.45116 -18.73901,8.45116c-5.74721,0 -11.04146,-1.93932 -15.26406,-5.19926c-2.63929,1.18951 -5.52218,1.93427 -8.5532,2.13881c-3.16123,10.18343 -12.65703,17.5788 -23.8801,17.5788c-13.80712,0 -25,-11.19288 -25,-25c0,-13.23297 10.28136,-24.0646 23.29173,-24.94256c3.16124,-10.18344 12.65703,-17.57879 23.8801,-17.57879c5.74721,0 11.04146,1.93932 15.26406,5.19926c3.13083,-1.41104 6.60444,-2.19625 10.26147,-2.19625c6.71196,0 12.80614,2.64505 17.29702,6.94965c4.58063,-5.18292 11.27815,-8.45116 18.73901,-8.45116c5.30223,0 10.21892,1.65064 14.26426,4.46609c4.04534,-2.81545 8.96204,-4.46609 14.26427,-4.46609c7.08584,0 13.48317,2.94795 18.03242,7.6843c0.97993,-0.11674 1.97725,-0.17679 2.9886,-0.17679c6.33076,0 12.11191,2.35314 16.51652,6.23247c4.4046,-3.87933 10.18575,-6.23247 16.51652,-6.23247c7.65738,0 14.51068,3.44268 19.09655,8.86468c1.25233,-0.19315 2.53533,-0.29334 3.84172,-0.29334z" fill="url(#color-7)" stroke-width="0.5"/></g><path d="M582.99833,155.29279c0,-2.13766 0,-20.76598 0,-27.24759c0,-3.12407 2.09987,2.07736 4.79137,2.07736c7.95088,0 48.93931,0 84.0849,0c0.25673,5.72896 0.51781,11.45818 0.93916,17.16636c0.19611,2.65672 0.69692,5.28967 0.80127,7.95158c0.06623,1.68949 0.10788,3.17437 0.12913,4.51309c-35.83492,0 -78.58536,0 -86.39473,0c-2.46302,0 -4.3511,-2.03667 -4.3511,-4.46079z" fill="#b7a175" stroke-width="0"/><path d="M582.99833,131.70976c0,0 0,-3.15395 0,-4.49073c0,-3.12407 2.09987,-5.35823 4.79137,-5.35823c7.92189,0 48.64086,0 83.70025,0c0.17158,3.40325 0.31821,6.81022 0.47264,10.21643z" fill="url(#color-8)" stroke-width="0"/><path d="M614.75323,157.88006c0,26.53621 -9.89231,48.04805 -22.09508,48.04805c-12.20278,0 -22.09508,-21.51184 -22.09508,-48.04805c0,-26.53621 9.89231,-48.04805 22.09508,-48.04805c12.20278,0 22.09508,21.51185 22.09508,48.04805z" fill="none" stroke-width="0"/><g stroke-width="0"><path d="M692.09371,155.2928c0,2.42413 -1.88808,4.46079 -4.3511,4.46079c-7.80938,0 -50.55981,0 -86.39473,0c0.02125,-1.33873 0.0629,-2.82361 0.12913,-4.51309c0.10435,-2.6619 0.60516,-5.29485 0.80126,-7.95157c0.42135,-5.70818 0.68243,-11.4374 0.93916,-17.16636c35.14559,0 76.13402,0 84.0849,0c2.6915,0 4.79137,-5.20143 4.79137,-2.07736c0,6.4816 0,25.10993 0,27.24759z" data-paper-data="{&quot;index&quot;:null}" fill="#b7a175"/><path d="M603.12945,132.07723c0.15443,-3.4062 0.30106,-6.81317 0.47264,-10.21643c35.05939,0 75.77836,0 83.70025,0c2.6915,0 4.79137,2.23416 4.79137,5.35823c0,1.33677 0,4.49073 0,4.49073z" data-paper-data="{&quot;index&quot;:null}" fill="url(#color-9)"/><path d="M682.4339,109.832c12.20277,0 22.09508,21.51184 22.09508,48.04805c0,26.53621 -9.8923,48.04805 -22.09508,48.04805c-12.20277,0 -22.09508,-21.51184 -22.09508,-48.04805c0,-26.5362 9.8923,-48.04805 22.09508,-48.04805z" data-paper-data="{&quot;index&quot;:null}" fill="none"/></g></g></g></svg>