<svg version="1.1" xmlns="http://www.w3.org/2000/svg" xmlns:xlink="http://www.w3.org/1999/xlink" width="463.96397" height="294.33896" viewBox="0,0,463.96397,294.33896"><defs><linearGradient x1="-30.92568" y1="128.64074" x2="-28.94872" y2="147.87113" gradientUnits="userSpaceOnUse" id="color-1"><stop offset="0" stop-color="#77966b"/><stop offset="1" stop-color="#637d59"/></linearGradient><linearGradient x1="-24.5143" y1="116.61446" x2="-21.345" y2="147.44302" gradientUnits="userSpaceOnUse" id="color-2"><stop offset="0" stop-color="#77966b"/><stop offset="1" stop-color="#637d59"/></linearGradient><linearGradient x1="-16.00395" y1="146.47027" x2="-11.81109" y2="187.25531" gradientUnits="userSpaceOnUse" id="color-3"><stop offset="0" stop-color="#928670"/><stop offset="1" stop-color="#837965"/></linearGradient><linearGradient x1="-23.63042" y1="147.2543" x2="-19.43755" y2="188.03934" gradientUnits="userSpaceOnUse" id="color-4"><stop offset="0" stop-color="#928670"/><stop offset="1" stop-color="#837965"/></linearGradient><linearGradient x1="308.96153" y1="134.19096" x2="310.97621" y2="157.92346" gradientUnits="userSpaceOnUse" id="color-5"><stop offset="0" stop-color="#5c5549"/><stop offset="1" stop-color="#756c5e"/></linearGradient><linearGradient x1="293.27923" y1="129.36659" x2="323.57139" y2="126.79513" gradientUnits="userSpaceOnUse" id="color-6"><stop offset="0" stop-color="#746b5d"/><stop offset="1" stop-color="#746b5d" stop-opacity="0"/></linearGradient></defs><g transform="translate(119.48048,26.85856)"><g data-paper-data="{&quot;isPaintingLayer&quot;:true}" fill-rule="nonzero" stroke-miterlimit="10" stroke-dasharray="" stroke-dashoffset="0" style="mix-blend-mode: normal"><path d="M-38.72352,98.29094c0,0 9.52694,20.26884 12.35979,41.18425c0.41576,3.06953 0.6748,6.01526 0.81897,8.88232" data-paper-data="{&quot;origRot&quot;:0,&quot;index&quot;:null}" fill="none" stroke="#708e65" stroke-width="5" stroke-linecap="round" stroke-linejoin="miter"/><path d="M-54.82112,60.35532l20.26163,47.49038" data-paper-data="{&quot;origRot&quot;:0,&quot;index&quot;:null}" fill="none" stroke="#8fa686" stroke-width="10" stroke-linecap="round" stroke-linejoin="miter"/><path d="M-31.94179,148.08089c0,0 2.32176,1.16243 0.59256,-6.45504c-1.40727,-6.19925 -4.82652,-12.44536 -4.82652,-12.44536c0,0 3.15879,1.4126 6.71161,7.33181c4.20766,7.01026 5.65954,9.78864 5.65954,9.78864z" data-paper-data="{&quot;origRot&quot;:0,&quot;index&quot;:null}" fill="url(#color-1)" stroke="none" stroke-width="0" stroke-linecap="butt" stroke-linejoin="miter"/><path d="M-24.94538,146.88124c0,0 1.45144,4.68149 1.21396,-7.62977c-0.19328,-10.01914 -0.72813,-22.64268 -0.72813,-22.64268c0,0 0.83339,2.59368 2.83678,12.63102c0.71162,3.56529 1.32507,6.48383 1.83523,8.82286c1.19084,5.4598 1.81889,7.7621 1.81889,7.7621z" data-paper-data="{&quot;index&quot;:null}" fill="url(#color-2)" stroke="none" stroke-width="0" stroke-linecap="butt" stroke-linejoin="miter"/><path d="M-14.1779,161.3329c0,0 -0.68786,-6.73181 -0.97898,-19.21282c-0.37298,-15.99011 -0.37533,-39.46155 -0.4412,-49.43009c-0.08726,-13.20306 0.75715,-33.93203 0.75715,-33.93203" data-paper-data="{&quot;index&quot;:null}" fill="none" stroke="#536a4b" stroke-width="5.5" stroke-linecap="round" stroke-linejoin="miter"/><path d="M-14.26678,36.59425l-0.66174,37.93292" data-paper-data="{&quot;origRot&quot;:0,&quot;index&quot;:null}" fill="none" stroke="#708e65" stroke-width="10" stroke-linecap="round" stroke-linejoin="miter"/><path d="M-18.17799,113.49859c0,0 0.63272,-12.06233 -6.21822,-23.72349c-3.48934,-5.9393 -8.11153,-9.58635 -8.50777,-16.46341c-0.38601,-6.69954 6.16437,-17.2912 6.16437,-17.2912c0,0 -4.26917,10.07867 -3.59215,16.66413c0.94919,9.23305 8.55624,12.49214 12.55719,20.86724c2.81155,5.88534 4.39431,18.69559 4.39431,18.69559z" data-paper-data="{&quot;index&quot;:null}" fill="#536a4b" stroke="#000000" stroke-width="0" stroke-linecap="butt" stroke-linejoin="miter"/><path d="M-17.37833,120.8491c0,0 0.97471,-12.87081 3.50456,-18.88262c3.60009,-8.55508 11.04435,-12.17055 11.55551,-21.43817c0.36457,-6.61012 -4.37682,-16.47544 -4.37682,-16.47544c0,0 7.04433,10.26977 6.97583,16.98008c-0.07032,6.88809 -4.51472,10.74982 -7.71905,16.84762c-6.29136,11.97234 -5.08845,23.9912 -5.08845,23.9912z" data-paper-data="{&quot;index&quot;:null,&quot;origRot&quot;:0}" fill="#536a4b" stroke="#000000" stroke-width="0" stroke-linecap="butt" stroke-linejoin="miter"/><path d="M12.99744,118.85967c-1.64816,0.16944 -3.00716,0.08411 -3.0354,-0.19058c-0.02824,-0.27469 1.28498,-0.63474 2.93314,-0.80417c1.64816,-0.16944 3.00716,-0.08411 3.0354,0.19058c0.02824,0.27469 -1.28498,0.63474 -2.93314,0.80417z" fill="none" stroke="none" stroke-width="0" stroke-linecap="butt" stroke-linejoin="miter"/><path d="M-24.74294,188.58475l-6.18238,-40.58051c0,0 19.16051,-1.96978 24.20575,-2.48845c2.16542,-0.22261 5.50247,2.55604 5.3818,5.3695c-0.29458,6.8679 -1.52051,35.44963 -1.52051,35.44963z" fill="url(#color-3)" stroke="none" stroke-width="0" stroke-linecap="butt" stroke-linejoin="miter"/><path d="M-28.39037,188.95972c0,0 -7.01598,-28.68785 -8.6013,-34.95513c-0.5692,-2.25023 1.33097,-5.51354 3.74525,-5.76174c5.19213,-0.53377 24.53735,-2.52254 24.53735,-2.52254l2.20335,40.98957z" data-paper-data="{&quot;index&quot;:null}" fill="url(#color-4)" stroke="none" stroke-width="0" stroke-linecap="butt" stroke-linejoin="miter"/><path d="M-35.95484,158.47938l-0.46438,-1.89052c0,0 -0.7274,-2.92621 -0.94897,-3.80216c-0.5692,-2.25023 1.33097,-5.51354 3.74525,-5.76174c5.19214,-0.53377 24.53735,-2.52254 24.53735,-2.52254l8.11617,2.69054l-0.57311,7.6059z" data-paper-data="{&quot;index&quot;:null}" fill="#706757" stroke="none" stroke-width="0" stroke-linecap="butt" stroke-linejoin="miter"/><path d="M-39.37377,151.38597c-0.16019,-1.55819 -0.34173,-3.32413 -0.43463,-4.22772c-0.11603,-1.12862 0.88618,-2.8556 2.20566,-2.99124c4.19052,-0.4308 26.1397,-2.68727 34.31912,-3.52815c1.86169,-0.19139 3.60464,0.83842 3.78845,2.62634c0.13636,1.3264 0.32918,3.20201 0.40906,3.97903c0.13763,1.33873 -0.81654,3.09976 -2.67748,3.29107c-8.0434,0.82689 -29.86622,3.07037 -34.31912,3.52815c-1.55087,0.15944 -3.12638,-1.07555 -3.29107,-2.67748z" fill="#b0a288" stroke="none" stroke-width="0" stroke-linecap="butt" stroke-linejoin="miter"/><g data-paper-data="{&quot;index&quot;:null}" fill="none" stroke="#f6fbff" stroke-width="5" stroke-linecap="round" stroke-linejoin="miter"><path d="M46.27514,258.45448l-80.65504,-52.53345"/><path d="M-45.62323,212.44696l80.65504,52.53345"/><path d="M35.96247,251.91588l-18.60927,1.34388l-11.26907,-19.87481"/><path d="M3.83425,230.83673l-18.60927,1.34388l-11.26907,-19.87481"/></g><g data-paper-data="{&quot;index&quot;:null}" fill="none" stroke="#f6fbff" stroke-width="5" stroke-linecap="round" stroke-linejoin="miter"><path d="M213.22102,161.53542l-93.2274,-23.95104"/><path d="M204.65829,171.31706l-93.2274,-23.95104"/><path d="M201.35794,158.64201l-17.1999,7.23011l-17.03817,-15.22172"/><path d="M164.17268,148.95648l-17.1999,7.23011l-17.03817,-15.22172"/></g><path d="M295.68953,141.44161l0.82939,-10.67892l2.80915,10.37005z" data-paper-data="{&quot;index&quot;:null}" fill="#665f56" stroke="none" stroke-width="0" stroke-linecap="butt" stroke-linejoin="miter"/><path d="M299.51957,141.11648l1.38557,-18.11879l4.7425,17.59857z" data-paper-data="{&quot;index&quot;:null}" fill="#665f56" stroke="none" stroke-width="0" stroke-linecap="butt" stroke-linejoin="miter"/><path d="M290.65863,134.9032l-1.04083,-12.26085l37.41215,-3.17595l1.04083,12.26085z" data-paper-data="{&quot;zoomLevel&quot;:1.5487,&quot;index&quot;:null}" fill="#746b5d" stroke="#837969" stroke-width="11.5" stroke-linecap="butt" stroke-linejoin="round"/><path d="M302.59798,158.63473l-2.01468,-23.73259l16.75644,-1.42247l2.01468,23.73259z" data-paper-data="{&quot;index&quot;:null}" fill="url(#color-5)" stroke="none" stroke-width="0" stroke-linecap="butt" stroke-linejoin="miter"/><path d="M290.76024,136.10009l-1.04083,-12.26085l37.41215,-3.17595l1.04083,12.26085z" data-paper-data="{&quot;zoomLevel&quot;:1.5487,&quot;index&quot;:null}" fill="#746b5d" stroke="#746b5d" stroke-width="11.5" stroke-linecap="butt" stroke-linejoin="round"/><path d="M294.05512,138.50652l-1.55178,-18.27976l30.29215,-2.57153l1.55178,18.27976z" data-paper-data="{&quot;index&quot;:null}" fill="url(#color-6)" stroke="none" stroke-width="0" stroke-linecap="butt" stroke-linejoin="miter"/><path d="M-119.48048,60.22853c0,-48.09687 103.86186,-87.08708 231.98198,-87.08708c128.12012,0 231.98199,38.99021 231.98199,87.08709c0,48.09687 -103.86187,87.08709 -231.98199,87.08709c-128.12012,0 -231.98198,-38.99022 -231.98198,-87.08709z" fill="none" stroke="none" stroke-width="0" stroke-linecap="butt" stroke-linejoin="miter"/><g fill="none" stroke="#3c3730" stroke-linejoin="miter"><path d="M297.48739,128.82429c-0.27123,-2.54136 1.56907,-4.8214 4.11043,-5.09264c2.54136,-0.27123 4.8214,1.56908 5.09264,4.11043c0.27123,2.54136 -1.56907,4.8214 -4.11042,5.09264c-2.54136,0.27123 -4.8214,-1.56907 -5.09264,-4.11042z" data-paper-data="{&quot;index&quot;:null}" stroke-width="5" stroke-linecap="butt"/><path d="M319.67812,125.86177l-12.42806,1.27561" data-paper-data="{&quot;index&quot;:null}" stroke-width="5" stroke-linecap="round"/><path d="M313.97922,129.87972l-0.33398,-3.1293l0.22896,-0.02444l0.33398,3.1293z" data-paper-data="{&quot;index&quot;:null}" stroke-width="3.5" stroke-linecap="butt"/><path d="M319.86497,130.72432l-0.33398,-3.1293l0.22897,-0.02444l0.33398,3.1293z" data-paper-data="{&quot;index&quot;:null}" stroke-width="5" stroke-linecap="butt"/></g></g></g></svg>