<svg version="1.1" xmlns="http://www.w3.org/2000/svg" xmlns:xlink="http://www.w3.org/1999/xlink" width="504.59734" height="342.51097" viewBox="0,0,504.59734,342.51097"><g transform="translate(12.29866,-8.74453)"><g data-paper-data="{&quot;isPaintingLayer&quot;:true}" fill-rule="nonzero" stroke-miterlimit="10" stroke-dasharray="" stroke-dashoffset="0" style="mix-blend-mode: normal"><path d="M258.39759,194.57649c0,0.0015 0.9735,-1.5406 2.107,-1.5901c1.1321,-0.0488 1.3155,1.0175 1.3155,1.0175c1.8926,7.3439 6.1778,23.5632 7.6186,25.4581c1.8695,2.4583 7.7053,11.7747 2.4846,15.3209c-5.2269,3.5462 -13.7446,-3.9563 -14.9154,-16.4862c-0.9711,-10.4615 -1.9422,-16.8374 1.3897,-23.7202z" fill="#8b5314" stroke="none" stroke-width="0" stroke-linecap="butt" stroke-linejoin="miter"/><path d="M252.3018,230.2416c0.0364,-0.56007 0.4712,-1.14874 1.197,-1.97847c0,0 0.5386,-0.59244 0.8543,-1.06381c0.0077,-0.01185 0.1942,-0.47566 1.7325,-0.3953c1.2264,0.06391 2.1921,0.26858 2.1913,0.87612c0,0.02589 -0.0866,0.09789 -0.0866,0.09789c-0.373,0.41258 -0.9131,1.15223 -0.9936,2.03699c-0.1245,1.36502 0.1826,2.70118 -1.5893,2.72896c-2.6943,0.04234 -3.366,-1.34317 -3.3056,-2.30236z" fill="#8b5314" stroke="none" stroke-width="0" stroke-linecap="butt" stroke-linejoin="miter"/><path d="M245.06691,236.68559c0.0372,-1.6071 0.4713,-3.2963 1.1979,-5.6772c0,0 0.5377,-1.7 0.8542,-3.0526c0.0077,-0.034 0.1942,-1.3649 1.7317,-1.1343c1.2265,0.1834 2.1922,0.7707 2.1914,2.514c0,0.0743 -0.0867,0.2809 -0.0867,0.2809c-0.3729,1.1839 -0.913,3.3063 -0.9927,5.8451c-0.1254,3.9169 0.1826,7.751 -1.5902,7.8307c-2.6943,0.1215 -3.3651,-3.8542 -3.3056,-6.6066z" fill="#8b5314" stroke="none" stroke-width="0" stroke-linecap="butt" stroke-linejoin="miter"/><path d="M256.6056,229.33699c0,-0.0015 -1.7581,0.1223 -2.9837,-0.0611c-1.2249,-0.1834 -3.8558,-0.5517 -5.3871,-1.2852c-1.5305,-0.7344 -3.1779,-2.0606 -3.1779,-2.0606c-0.5804,-0.4774 -1.0493,-0.9409 -1.389,-1.3379c-1.9437,-2.2625 -3.0742,-6.9532 -3.0742,-6.9532c-0.4132,-1.977 -0.4449,-3.4758 -0.4418,-3.9919c0.1625,-0.0302 0.1408,-1.4926 0.2476,-1.5151c0.7281,-0.1555 0.1594,-1.1877 3.2437,-7.963c1.693,-3.718 0.6739,-4.7572 1.6868,-6.9787c0,0 2.7237,-2.1666 8.7817,-2.1604c1.6473,0.0016 4.9274,0.4689 6.4695,1.2729c1.3039,0.6801 1.0996,1.8021 1.4803,2.285l0.6771,5.7143l0.0634,0.1494c0.3528,2.367 0.7838,4.8593 1.2396,6.5578c1.132,4.2055 4.3649,15.0399 -4.043,17.6251c-1.18,0.3637 -2.3128,0.5889 -3.393,0.7026z" fill="#ba6f1a" stroke="none" stroke-width="0" stroke-linecap="butt" stroke-linejoin="miter"/><path d="M265.57829,221.06839l-0.0503,0.1401c-1.1854,2.0861 -4.5119,2.6138 -6.3218,2.6138c-3.6151,0 -7.1226,-5.6772 -7.1226,-12.0416c0,-6.362 2.0327,-10.7091 6.5516,-11.5224c2.0637,-0.369 2.8011,1.1143 3.6809,1.8904l0.1756,0.1439c0.3915,2.8994 0.9487,6.5346 1.5569,8.7832c0.5965,2.213 1.7766,6.2707 1.5297,9.9926z" fill="#d0d2d3" stroke="none" stroke-width="0" stroke-linecap="butt" stroke-linejoin="miter"/><path d="M245.43451,196.76089c0.0015,0 1.6334,-0.8164 2.6285,-0.2716c0.9951,0.547 0.5958,1.5537 0.5958,1.5537c-2.1898,7.2612 -6.9315,23.3543 -6.6831,25.7189c0.325,3.0712 0.4844,14.0658 -5.8219,14.3908c-6.3071,0.3227 -9.7009,-10.5095 -4.204,-21.8276c4.5947,-9.4517 7.0662,-15.4052 13.4847,-19.5642z" fill="#8b5314" stroke="none" stroke-width="0" stroke-linecap="butt" stroke-linejoin="miter"/><path d="M286.99499,170.01819c0.0913,0.3258 2.2672,8.2857 -3.232,15.6575c-3.725,4.9893 -10.2147,11.3653 -26.7984,12.796c-8.1201,0.6987 -15.3479,-1.3959 -20.5439,-4.597c0.0766,0.0472 0.1486,0.0967 0.226,0.1431l-0.0743,-0.0449c-4.8276,-2.1797 -10.949,-5.5519 -15.0137,-11.1966c0,0 -2.1875,4.5638 -11.9951,4.7541c-12.3937,0.2445 -17.397,-6.6259 -18.0377,-11.8048c-0.6507,-5.2532 0.9541,-11.2747 11.428,-13.0513c8.7685,-1.4834 13.535,1.1653 14.8535,2.0652l0.1022,0.1168c0.9664,-2.9891 2.5774,-4.3657 2.5774,-4.3657l-0.1323,-0.0472c-3.6909,-1.385 -8.5472,-3.5973 -14.4898,-7.1319c-12.4401,-7.4012 -12.3171,-20.4572 -8.8761,-25.1517c3.5618,-4.8532 14.113,-10.9506 29.0184,-2.6502c8.3878,4.6674 12.6327,11.8566 14.7428,17.2444l0.4457,-0.1764c0.5749,-0.3312 1.2017,-0.6577 1.8726,-0.9664l0.0874,-0.1532c-3.2692,-7.6806 -8.2044,-23.4735 5.8467,-24.6922c13.3632,-1.1591 12.2133,14.9433 11.1355,21.7897l0.1052,0.0163c1.7263,0.1214 3.4797,0.3745 5.2323,0.7861c-0.0387,-0.0805 -2.0319,-4.2635 0.5277,-10.357c2.0057,-4.7696 10.9893,-16.2046 18.2868,-10.1288c7.6983,6.4115 3.5192,13.6634 -0.4875,18.1111c-3.4712,3.8511 -7.4639,5.425 -9.2753,6.1198l0.0511,0.0325c0.4457,0.2801 0.8914,0.5718 1.3316,0.8829c12.2529,8.623 11.2021,26.4757 11.2021,26.4757l-0.0271,-0.1269c-0.0464,-0.1996 -0.0797,-0.3157 -0.0898,-0.349zM272.6871,142.04369c0.7405,0.3908 1.4647,0.8133 2.1689,1.2644M260.1038,138.98649c-0.1578,0.8589 -0.3381,1.7132 -0.5354,2.5628M245.10801,145.59609c-0.7367,-1.3928 -1.3967,-2.8274 -2.0103,-4.2782M217.22091,170.40969c-0.0782,-1.717 0.082,-3.4502 0.5525,-5.1061M207.62989,162.23549M206.06611,187.30449" fill="#ba6f1a" stroke="none" stroke-width="0" stroke-linecap="round" stroke-linejoin="round"/><path d="M206.12951,187.40349c-9.8982,-0.9595 -14.0255,-7.0058 -14.6036,-11.6779c-0.6507,-5.2532 0.9541,-11.2747 11.428,-13.0513c1.5236,-0.2585 2.9265,-0.3916 4.2086,-0.431l0.0991,0.0062c-4.1754,8.0751 -4.57,17.5725 -1.1955,25.0542z" fill="#cfd0d1" stroke="none" stroke-width="0" stroke-linecap="butt" stroke-linejoin="miter"/><path d="M203.93039,152.04559c-10.4824,-7.5428 -10.1938,-19.449 -6.9423,-23.8866c3.3922,-4.6241 13.138,-10.3772 26.9446,-3.7273l-0.1385,0.0456c-7.9243,2.4808 -14.78,8.7213 -17.9982,17.431c-1.2334,3.3443 -1.8215,6.7613 -1.8308,10.1002z" fill="#cfd0d1" stroke="none" stroke-width="0" stroke-linecap="butt" stroke-linejoin="miter"/><path d="M239.68221,129.12849c-0.5834,-6.0718 1.1893,-11.6601 9.3217,-12.3642c8.2052,-0.7103 10.9398,5.0853 11.5773,11.2508l-0.0626,-0.0635c-6.8573,-2.6602 -14.3482,-2.0892 -20.8031,1.081z" fill="#cfd0d1" stroke="none" stroke-width="0" stroke-linecap="butt" stroke-linejoin="miter"/><path d="M276.51881,117.82979c2.5527,-1.0655 5.2625,-1.0477 7.7703,1.0423c4.9306,4.1095 4.9894,8.5611 3.3389,12.4006l-0.0836,0.0062c-2.0079,-5.5426 -5.7863,-10.3385 -11.0372,-13.4213z" fill="#cfd0d1" stroke="none" stroke-width="0" stroke-linecap="butt" stroke-linejoin="miter"/><path d="M276.248,159.16359c6.7481,4.9143 9.1291,5.213 10.7432,10.8399c0,0 2.3871,8.1456 -3.2275,15.6729c-3.7257,4.9894 -10.2147,11.3646 -26.7983,12.7961c-16.5814,1.4268 -29.461,-8.7809 -28.8559,-16.3175c0.804,-10.0321 8.0752,-8.7221 21.9963,-17.3056c13.9195,-8.579 14.1122,-18.7696 14.1122,-18.7696c0,0 7.3393,9.6614 12.03,13.0838z" fill="#e6e7e8" stroke="none" stroke-width="0" stroke-linecap="butt" stroke-linejoin="miter"/><g stroke="none" stroke-width="0" stroke-linecap="butt" stroke-linejoin="miter"><path d="M253.18851,173.82059c0.1115,0.5285 -0.2244,1.0508 -0.7536,1.1645c-0.5316,0.1161 -1.0539,-0.2352 -1.1638,-0.7506c-0.0572,-0.2584 -0.0116,-0.5192 0.1292,-0.7374c0.1432,-0.2197 0.3614,-0.3729 0.6222,-0.4286c0.0704,-0.0147 0.1416,-0.0233 0.2135,-0.0233c0.4535,0 0.8543,0.3258 0.9525,0.7754z" fill="#ffffff"/><path d="M254.69591,173.49709c0.2901,1.3572 -0.5765,2.7005 -1.936,2.9953c-0.1765,0.038 -0.3552,0.0573 -0.5339,0.0573c-1.1808,0 -2.2169,-0.838 -2.4614,-1.9878c-0.1455,-0.6585 -0.0256,-1.3333 0.3389,-1.8974c0.366,-0.5671 0.9301,-0.9579 1.5893,-1.101c1.3247,-0.2902 2.7137,0.5996 3.0031,1.9336zM251.2711,174.23529c0.1091,0.5154 0.6322,0.8659 1.163,0.7506c0.53,-0.1138 0.8659,-0.6361 0.7544,-1.1646c-0.0982,-0.4495 -0.4983,-0.7753 -0.9525,-0.7753c-0.0712,0 -0.1424,0.0085 -0.2135,0.0232c-0.2608,0.0557 -0.479,0.2082 -0.6222,0.4287c-0.1408,0.2182 -0.1864,0.479 -0.1292,0.7374z" fill="#231f20"/></g><g stroke="none" stroke-width="0" stroke-linecap="butt" stroke-linejoin="miter"><path d="M277.1239,172.34569c0.1107,0.5278 -0.2244,1.0508 -0.7537,1.1654c-0.5308,0.1153 -1.0531,-0.2353 -1.1637,-0.7514c-0.0565,-0.2584 -0.0116,-0.5192 0.1292,-0.7374c0.1439,-0.2197 0.3621,-0.373 0.6221,-0.4287c0.0712,-0.0154 0.1424,-0.0232 0.2136,-0.0232c0.4542,0 0.855,0.3258 0.9525,0.7753z" fill="#ffffff"/><path d="M278.6312,172.02079c0.291,1.3587 -0.5764,2.702 -1.936,2.996c-0.1764,0.0372 -0.3551,0.0565 -0.5339,0.0565c-1.1808,0 -2.2161,-0.8372 -2.4614,-1.9878c-0.1447,-0.6585 -0.0255,-1.3332 0.3389,-1.8973c0.366,-0.5672 0.9301,-0.9587 1.5902,-1.1011c1.3247,-0.2902 2.7136,0.5997 3.0022,1.9337zM275.2057,172.75889c0.1107,0.5162 0.6337,0.8675 1.163,0.7506c0.53,-0.1137 0.8659,-0.6368 0.7544,-1.1645c-0.0975,-0.4496 -0.4975,-0.7754 -0.9525,-0.7754c-0.0704,0 -0.1416,0.0078 -0.2135,0.0233c-0.26,0.0557 -0.4782,0.2089 -0.6222,0.4286c-0.1408,0.2182 -0.1857,0.479 -0.1292,0.7374z" fill="#231f20"/></g><path d="M276.15819,178.23499c0,0 -1.3169,2.8436 -9.2544,3.9997c-7.939,1.1622 -12.7929,-2.2796 -12.7929,-2.2796" fill="none" stroke="none" stroke-width="0" stroke-linecap="round" stroke-linejoin="miter"/><path d="M276.15819,178.23499c0,0 -1.3169,2.8436 -9.2544,3.9997c-7.939,1.1622 -12.7929,-2.2796 -12.7929,-2.2796" fill="none" stroke="#000000" stroke-width="1" stroke-linecap="round" stroke-linejoin="miter"/><path d="M-12.29864,180.00002c0,-94.5818 112.95795,-171.25549 252.29866,-171.25549c139.34071,0 252.29867,76.67369 252.29867,171.25548c0,94.58179 -112.95796,171.25549 -252.29867,171.25549c-139.34071,0 -252.29867,-76.6737 -252.29867,-171.25549z" fill="none" stroke="none" stroke-width="0" stroke-linecap="butt" stroke-linejoin="miter"/></g></g></svg>