<svg version="1.1" xmlns="http://www.w3.org/2000/svg" xmlns:xlink="http://www.w3.org/1999/xlink" width="155.01201" height="67.0395" viewBox="0,0,155.01201,67.0395"><g transform="translate(-162.494,-146.48025)"><g data-paper-data="{&quot;isPaintingLayer&quot;:true}" fill-rule="nonzero" stroke-linejoin="miter" stroke-miterlimit="10" stroke-dasharray="" stroke-dashoffset="0" style="mix-blend-mode: normal"><path d="M162.494,205.39375c0,-14.42821 0,-43.73133 0,-51.46467c0,-3.66878 3.64948,-7.44883 7.94934,-7.44883c15.5113,0 108.45108,0 138.02934,0c5.68841,0 9.03333,3.97715 9.03333,7.78742c0,7.94447 0,37.7329 0,51.80325c0,4.54413 -3.20355,7.44883 -8.672,7.44883c-29.17464,0 -122.81565,0 -138.39067,0c-4.29986,0 -7.94934,-3.19392 -7.94934,-8.126z" data-paper-data="{&quot;index&quot;:null}" fill="#ffffff" stroke="none" stroke-width="NaN" stroke-linecap="butt"/><path d="M182.0996,166.20934c0.01816,0.10534 0.02724,0.20523 0.02724,0.29968c0,0.09444 -0.02724,0.19797 -0.08173,0.31057c-0.05449,0.10897 -0.12532,0.18888 -0.2125,0.23974c-0.14893,0.13077 -0.3251,0.19615 -0.52852,0.19615c-0.38504,0 -0.64476,-0.17254 -0.77916,-0.51762l-0.71377,-1.75991h-3.93391l-0.69743,1.74901c-0.1126,0.35234 -0.34508,0.52852 -0.69742,0.52852c-0.34871,0 -0.61025,-0.1453 -0.7846,-0.43589c-0.05812,-0.1126 -0.08718,-0.21613 -0.08718,-0.31057c0,-0.09444 0.02361,-0.2016 0.07083,-0.32147l2.89867,-7.12137c0.25064,-0.62114 0.56666,-0.98439 0.94806,-1.08973c0.07991,-0.0109 0.18707,-0.02906 0.32147,-0.05449c0.30876,0 0.53941,0.07083 0.69198,0.2125c0.20342,0.15256 0.40138,0.46313 0.5939,0.93172zM176.40577,163.5504h2.88778l-1.44934,-3.63969zM182.38013,163.92091c0,-0.95896 0.27425,-1.75809 0.82274,-2.3974c0.60298,-0.70106 1.38759,-1.05159 2.35381,-1.05159c0.81366,0 1.44389,0.17617 1.89067,0.52852c0.19252,0.13803 0.28878,0.31057 0.28878,0.51762c0,0.20342 -0.05993,0.36869 -0.1798,0.49583c-0.11624,0.12714 -0.25427,0.1907 -0.4141,0.1907c-0.15983,0 -0.28151,-0.03269 -0.36506,-0.09807c-0.35234,-0.19978 -0.7283,-0.29604 -1.12787,-0.28878c-0.49038,0 -0.87541,0.18344 -1.15511,0.55031c-0.33055,0.39957 -0.49583,0.91719 -0.49583,1.55286c0,0.59572 0.11987,1.09518 0.35961,1.49838c0.26153,0.42136 0.69198,0.63204 1.29133,0.63204c0.34145,0 0.76644,-0.12169 1.27498,-0.36506c0.2797,-0.16346 0.52489,-0.1235 0.73557,0.11987c0.11624,0.11624 0.17436,0.27425 0.17436,0.47403c0,0.19615 -0.09444,0.37051 -0.28333,0.52307c-0.18889,0.15256 -0.39593,0.26516 -0.62114,0.33781c-0.49764,0.17072 -0.9862,0.25427 -1.46568,0.25064c-0.47585,-0.00363 -0.90992,-0.09444 -1.30222,-0.27243c-0.3923,-0.18162 -0.71922,-0.44497 -0.98076,-0.79005c-0.53397,-0.63931 -0.80095,-1.44207 -0.80095,-2.4083zM192.92725,163.02189c0,-0.41046 -0.10897,-0.72648 -0.32692,-0.94806c-0.18889,-0.17799 -0.41954,-0.26699 -0.69197,-0.26699c-0.2688,0 -0.49764,0.03088 -0.68653,0.09263c-0.18889,0.06175 -0.35416,0.16346 -0.49583,0.30512c-0.30512,0.28696 -0.45769,0.70469 -0.45769,1.25319v3.06213c0,0.25064 -0.08718,0.43589 -0.26154,0.55576c-0.17072,0.11987 -0.35053,0.1798 -0.53941,0.1798c-0.20342,0 -0.37777,-0.0672 -0.52307,-0.2016c-0.14166,-0.1344 -0.2125,-0.31239 -0.2125,-0.53397v-7.82424c0,-0.25064 0.08536,-0.43589 0.25609,-0.55576c0.17072,-0.1235 0.34145,-0.18525 0.51217,-0.18525c0.18889,0 0.36324,0.05994 0.52307,0.17981c0.16346,0.11624 0.24519,0.30331 0.24519,0.56121l-0.17436,2.61534c-0.07991,-0.10897 0.11624,-0.28151 0.58845,-0.51762c0.4141,-0.21431 0.82456,-0.32147 1.23139,-0.32147c0.41046,0 0.75918,0.05086 1.04614,0.15256c0.28696,0.10171 0.55394,0.25063 0.80095,0.44679c0.49401,0.46858 0.74101,1.14058 0.74101,2.016v3.43264c0,0.25064 -0.09081,0.43589 -0.27243,0.55576c-0.17799,0.11987 -0.35416,0.1798 -0.52852,0.1798c-0.19978,0 -0.37959,-0.06538 -0.53941,-0.19615c-0.15619,-0.13077 -0.23429,-0.31057 -0.23429,-0.53941zM197.52949,158.75561c0,0.2579 -0.089,0.46677 -0.26699,0.62659c-0.17436,0.15983 -0.40501,0.23974 -0.69197,0.23974c-0.28696,0 -0.51944,-0.0781 -0.69742,-0.23429c-0.17799,-0.15983 -0.26699,-0.37051 -0.26699,-0.63204c0,-0.23248 0.089,-0.42863 0.26699,-0.58845c0.17799,-0.16346 0.41409,-0.24519 0.70832,-0.24519c0.29423,0 0.52489,0.08173 0.69198,0.24519c0.17072,0.16346 0.25609,0.35961 0.25609,0.58845zM195.80227,161.3873c0,-0.247 0.08173,-0.44134 0.24519,-0.583c0.16709,-0.1453 0.32328,-0.21795 0.46858,-0.21795c0.1453,0 0.26154,0.02179 0.34872,0.06538c0.08718,0.04359 0.16164,0.09444 0.22339,0.15256c0.18889,0.1235 0.28333,0.31784 0.28333,0.583v5.09992c0,0.2579 -0.08536,0.45042 -0.25608,0.57755c-0.17072,0.12714 -0.35234,0.1907 -0.54486,0.1907c-0.19615,0 -0.37414,-0.06538 -0.53397,-0.19615c-0.15619,-0.13077 -0.23429,-0.32147 -0.23429,-0.57211zM204.68167,163.74111c0,0.4032 -0.21976,0.62296 -0.65928,0.65929h-4.10827c0.03269,0.76281 0.39412,1.28225 1.08428,1.55831c0.18525,0.06175 0.40865,0.09263 0.67018,0.09263c0.5376,0 1.09517,-0.20342 1.67273,-0.61025c0.32329,-0.18525 0.6048,-0.16165 0.84454,0.07083c0.14166,0.15256 0.18889,0.30149 0.14166,0.44679c0,0.20342 -0.0672,0.36506 -0.2016,0.48493c-0.63931,0.63567 -1.48021,0.94988 -2.52272,0.94262c-0.95896,0 -1.73266,-0.31239 -2.32112,-0.93717c-0.65383,-0.64294 -0.98076,-1.48566 -0.98076,-2.52817c0,-0.95533 0.26699,-1.74901 0.80095,-2.38105c0.57392,-0.71195 1.37487,-1.06793 2.40285,-1.06793c1.02797,0 1.81802,0.31602 2.37015,0.94806c0.5158,0.56303 0.7846,1.33673 0.8064,2.32112zM203.14515,163.169c-0.01816,-0.30512 -0.17435,-0.61933 -0.46858,-0.94262c-0.26517,-0.2797 -0.65565,-0.41955 -1.17145,-0.41955c-0.42862,0 -0.7955,0.15983 -1.10062,0.47948c-0.28333,0.33055 -0.43407,0.62478 -0.45224,0.88268zM209.24858,166.3401c-0.12714,0.29423 -0.27425,0.52125 -0.44134,0.68108c-0.16346,0.15619 -0.39412,0.23429 -0.69197,0.23429c-0.30149,0 -0.5376,-0.07628 -0.70832,-0.22884c-0.16709,-0.15619 -0.29968,-0.38867 -0.39775,-0.69742l-1.9942,-4.68583c-0.17436,-0.31965 -0.09807,-0.59935 0.22884,-0.83909c0.14166,-0.10897 0.29786,-0.18162 0.46858,-0.21795c0.39957,0 0.6502,0.18344 0.75191,0.55031l1.64549,3.94481l1.591,-3.95571c0.11624,-0.32329 0.33963,-0.50309 0.67018,-0.53941c0.33418,0 0.583,0.13622 0.74646,0.40865c0.08355,0.12714 0.11442,0.24156 0.09263,0.34326c-0.01816,0.10171 -0.03996,0.19434 -0.06538,0.27788zM217.87666,163.74111c0,0.4032 -0.21976,0.62296 -0.65928,0.65929h-4.10827c0.03269,0.76281 0.39412,1.28225 1.08428,1.55831c0.18525,0.06175 0.40865,0.09263 0.67018,0.09263c0.5376,0 1.09518,-0.20342 1.67273,-0.61025c0.32329,-0.18525 0.6048,-0.16165 0.84454,0.07083c0.14166,0.15256 0.18889,0.30149 0.14166,0.44679c0,0.20342 -0.0672,0.36506 -0.2016,0.48493c-0.63931,0.63567 -1.48021,0.94988 -2.52272,0.94262c-0.95896,0 -1.73266,-0.31239 -2.32111,-0.93717c-0.65383,-0.64294 -0.98076,-1.48566 -0.98076,-2.52817c0,-0.95533 0.26698,-1.74901 0.80095,-2.38105c0.57392,-0.71195 1.37487,-1.06793 2.40285,-1.06793c1.02797,0 1.81803,0.31602 2.37016,0.94806c0.5158,0.56303 0.7846,1.33673 0.8064,2.32112zM216.34015,163.169c-0.01816,-0.30512 -0.17435,-0.61933 -0.46858,-0.94262c-0.26517,-0.2797 -0.65565,-0.41955 -1.17146,-0.41955c-0.42862,0 -0.7955,0.15983 -1.10062,0.47948c-0.28333,0.33055 -0.43407,0.62478 -0.45224,0.88268zM224.13265,161.64338c0.38141,-0.78097 1.10789,-1.17145 2.17945,-1.17145c1.12242,0 1.87433,0.47948 2.25573,1.43844c0.13077,0.34145 0.19615,0.73375 0.19615,1.17691v3.43264c0,0.247 -0.08354,0.43226 -0.25063,0.55576c-0.16709,0.11987 -0.33963,0.1798 -0.51762,0.1798c-0.19615,0 -0.37777,-0.06357 -0.54486,-0.1907c-0.16346,-0.13077 -0.24519,-0.31239 -0.24519,-0.54486v-3.49802c0,-0.41046 -0.10898,-0.72648 -0.32692,-0.94806c-0.19615,-0.17799 -0.46132,-0.26699 -0.7955,-0.26699c-0.6829,0 -1.14603,0.27425 -1.3894,0.82275c-0.09807,0.21068 -0.14711,0.4704 -0.14711,0.77915v3.11117c0,0.247 -0.08355,0.43226 -0.25064,0.55576c-0.16709,0.11987 -0.33963,0.1798 -0.51762,0.1798c-0.19978,0 -0.38141,-0.06538 -0.54486,-0.19615c-0.15983,-0.13077 -0.23974,-0.31057 -0.23974,-0.53941v-3.49802c0,-0.4141 -0.10534,-0.73012 -0.31602,-0.94806c-0.19615,-0.17799 -0.43407,-0.26699 -0.71377,-0.26699c-0.27606,0 -0.50309,0.03088 -0.68108,0.09263c-0.17799,0.06175 -0.33782,0.16164 -0.47948,0.29968c-0.28696,0.29059 -0.43952,0.7065 -0.45769,1.24773v3.07303c0,0.25064 -0.08718,0.43589 -0.26153,0.55576c-0.17072,0.11987 -0.3469,0.1798 -0.52852,0.1798c-0.17799,0 -0.35234,-0.06357 -0.52307,-0.1907c-0.17072,-0.12714 -0.25608,-0.30876 -0.25608,-0.54486v-5.18165c0,-0.23248 0.08355,-0.41591 0.25064,-0.55031c0.17072,-0.1344 0.33236,-0.2016 0.48493,-0.2016c0.15256,0 0.2688,0.01998 0.34871,0.05993c0.07991,0.03996 0.15075,0.07992 0.2125,0.11987c0.18162,0.15256 0.27243,0.33782 0.27243,0.55576h-0.17436c-0.07991,-0.11624 0.10897,-0.29241 0.56666,-0.52852c0.3923,-0.21431 0.84999,-0.32147 1.37306,-0.32147c0.8173,0 1.44934,0.26698 1.89612,0.80095c0.1453,0.19615 0.18707,0.31965 0.12532,0.37051zM236.05786,163.74111c0,0.4032 -0.21976,0.62296 -0.65928,0.65929h-4.10827c0.03269,0.76281 0.39412,1.28225 1.08428,1.55831c0.18525,0.06175 0.40865,0.09263 0.67018,0.09263c0.5376,0 1.09518,-0.20342 1.67273,-0.61025c0.32329,-0.18525 0.6048,-0.16165 0.84454,0.07083c0.14166,0.15256 0.18889,0.30149 0.14166,0.44679c0,0.20342 -0.0672,0.36506 -0.2016,0.48493c-0.63931,0.63567 -1.48021,0.94988 -2.52272,0.94262c-0.95896,0 -1.73266,-0.31239 -2.32112,-0.93717c-0.65383,-0.64294 -0.98076,-1.48566 -0.98076,-2.52817c0,-0.95533 0.26698,-1.74901 0.80095,-2.38105c0.57392,-0.71195 1.37487,-1.06793 2.40285,-1.06793c1.02797,0 1.81803,0.31602 2.37016,0.94806c0.5158,0.56303 0.7846,1.33673 0.8064,2.32112zM234.52134,163.169c-0.01816,-0.30512 -0.17435,-0.61933 -0.46858,-0.94262c-0.26517,-0.2797 -0.65565,-0.41955 -1.17146,-0.41955c-0.42862,0 -0.7955,0.15983 -1.10062,0.47948c-0.28333,0.33055 -0.43408,0.62478 -0.45224,0.88268zM236.99053,161.33826c0,-0.22884 0.08355,-0.41047 0.25064,-0.54486c0.16709,-0.13803 0.33963,-0.20705 0.51762,-0.20705c0.35961,0 0.58663,0.12714 0.68108,0.38141c0.09444,0.25427 0.02724,0.56484 -0.2016,0.93172c-0.02543,-0.45405 0.20705,-0.81548 0.69742,-1.08428c0.41773,-0.22884 0.83001,-0.34326 1.23684,-0.34326c0.41046,0 0.76099,0.05267 1.05159,0.15801c0.29059,0.10171 0.55758,0.26154 0.80095,0.47948c0.49038,0.46495 0.73557,1.13513 0.73557,2.01055v3.39995c0,0.25064 -0.09081,0.43589 -0.27243,0.55576c-0.17799,0.11987 -0.35416,0.1798 -0.52852,0.1798c-0.19978,0 -0.37959,-0.06538 -0.53941,-0.19615c-0.15619,-0.13077 -0.23429,-0.31057 -0.23429,-0.53941v-3.46533c0,-0.42136 -0.10898,-0.73738 -0.32692,-0.94806c-0.20342,-0.19978 -0.45769,-0.29968 -0.76281,-0.29968c-0.44316,0 -0.81911,0.12532 -1.12787,0.37596c-0.29423,0.26153 -0.44134,0.68108 -0.44134,1.25864v3.07848c0,0.25064 -0.08718,0.43589 -0.26153,0.55576c-0.17072,0.11987 -0.35053,0.1798 -0.53941,0.1798c-0.20342,0 -0.37777,-0.0672 -0.52307,-0.2016c-0.14166,-0.1344 -0.2125,-0.31239 -0.2125,-0.53397zM247.84235,166.61254c0,0.5158 -0.47585,0.77371 -1.42754,0.77371c-0.6611,0 -1.13876,-0.19434 -1.43299,-0.583c-0.29059,-0.37777 -0.4486,-0.97894 -0.47403,-1.8035v-3.08393h-0.41955c-0.21068,0 -0.3814,-0.06901 -0.51217,-0.20705c-0.12714,-0.13803 -0.1907,-0.28878 -0.1907,-0.45224c0,-0.14893 0.05449,-0.29786 0.16346,-0.44679c0.1126,-0.14893 0.29241,-0.2234 0.53941,-0.2234h0.49583l0.04904,-1.47113c0.03632,-0.21794 0.13077,-0.38322 0.28333,-0.49583c0.15619,-0.1126 0.32147,-0.16891 0.49583,-0.16891c0.17436,0 0.32874,0.05994 0.46313,0.17981c0.1344,0.11624 0.2016,0.28696 0.2016,0.51217v1.44389h0.81729c0.22158,0 0.3923,0.07447 0.51217,0.2234c0.11987,0.1453 0.1798,0.29422 0.1798,0.44679c0,0.18889 -0.06357,0.3469 -0.1907,0.47403c-0.1235,0.1235 -0.29059,0.18525 -0.50127,0.18525h-0.81729v2.54996c0,0.75918 0.01816,1.19688 0.05449,1.31312c0.03996,0.1126 0.09081,0.18707 0.15256,0.22339c0.06175,0.03269 0.15074,0.04904 0.26698,0.04904l0.62114,-0.04904c0.21794,0 0.38322,0.06901 0.49583,0.20705c0.11624,0.13803 0.17436,0.27243 0.17436,0.4032zM257.35048,166.51991c0,0.25064 -0.09081,0.43589 -0.27243,0.55576c-0.17799,0.11987 -0.32873,0.1798 -0.45224,0.1798c-0.11987,0 -0.23248,-0.01271 -0.33782,-0.03814c-0.10534,-0.02906 -0.1907,-0.08355 -0.25608,-0.16346c-0.17072,-0.11624 -0.25609,-0.29423 -0.25609,-0.53397h0.16891c-0.03996,0.36324 -0.44679,0.62296 -1.22049,0.77916c-0.23248,0.05812 -0.48675,0.08718 -0.76281,0.08718c-0.27243,0 -0.56121,-0.04904 -0.86634,-0.14711c-0.30512,-0.10171 -0.56847,-0.26335 -0.79005,-0.48493c-0.48311,-0.45769 -0.72467,-1.13513 -0.72467,-2.03234v-3.36726c0,-0.23611 0.0781,-0.42318 0.23429,-0.56121c0.15619,-0.13803 0.33418,-0.20705 0.53397,-0.20705c0.19978,0 0.37778,0.06901 0.53397,0.20705c0.15619,0.13803 0.23429,0.3251 0.23429,0.56121v3.44899c0,0.49401 0.08718,0.82456 0.26154,0.99165c0.18162,0.17072 0.46858,0.25609 0.86088,0.25609c0.66837,0 1.12787,-0.26698 1.37851,-0.80095c0.09807,-0.18889 0.15074,-0.40502 0.15801,-0.64839v-3.24739c0,-0.24337 0.08355,-0.43226 0.25064,-0.56666c0.17072,-0.1344 0.35598,-0.2016 0.55576,-0.2016c0.19978,0 0.37777,0.06901 0.53397,0.20705c0.15619,0.13803 0.23429,0.3251 0.23429,0.56121zM258.65085,161.33826c0,-0.22884 0.08355,-0.41047 0.25064,-0.54486c0.16709,-0.13803 0.33963,-0.20705 0.51762,-0.20705c0.35961,0 0.58663,0.12714 0.68108,0.38141c0.09444,0.25427 0.02724,0.56484 -0.2016,0.93172c-0.02543,-0.45405 0.20704,-0.81548 0.6974,-1.08428c0.41773,-0.22884 0.83001,-0.34326 1.23684,-0.34326c0.41046,0 0.76099,0.05267 1.05159,0.15801c0.29059,0.10171 0.55758,0.26154 0.80095,0.47948c0.49038,0.46495 0.73557,1.13513 0.73557,2.01055v3.39995c0,0.25064 -0.09081,0.43589 -0.27243,0.55576c-0.17799,0.11987 -0.35416,0.1798 -0.52852,0.1798c-0.19978,0 -0.37959,-0.06538 -0.53941,-0.19615c-0.15619,-0.13077 -0.23429,-0.31057 -0.23429,-0.53941v-3.46533c0,-0.42136 -0.10898,-0.73738 -0.32692,-0.94806c-0.20342,-0.19978 -0.45769,-0.29968 -0.76281,-0.29968c-0.44316,0 -0.81911,0.12532 -1.12787,0.37596c-0.29421,0.26153 -0.44132,0.68108 -0.44132,1.25864v3.07848c0,0.25064 -0.08718,0.43589 -0.26154,0.55576c-0.17072,0.11987 -0.35053,0.1798 -0.53941,0.1798c-0.20342,0 -0.37777,-0.0672 -0.52307,-0.2016c-0.14166,-0.1344 -0.2125,-0.31239 -0.2125,-0.53397zM265.7213,158.72836c0,-0.27243 0.08536,-0.46858 0.25609,-0.58845c0.17072,-0.1235 0.31784,-0.18525 0.44134,-0.18525c0.12714,0 0.23611,0.00908 0.32692,0.02724c0.09444,0.01816 0.18162,0.0672 0.26153,0.14711c0.18889,0.11987 0.28333,0.31965 0.28333,0.59935v7.75886c0,0.2579 -0.08536,0.45042 -0.25609,0.57755c-0.17072,0.12714 -0.35234,0.1907 -0.54486,0.1907c-0.19615,0 -0.37414,-0.06538 -0.53397,-0.19615c-0.15619,-0.13077 -0.23429,-0.32147 -0.23429,-0.57211zM268.17132,163.93726c0,-0.4141 0.0672,-0.83001 0.2016,-1.24774c0.1344,-0.41773 0.33964,-0.7955 0.6157,-1.13331c0.59572,-0.72285 1.42936,-1.08428 2.50092,-1.08428c1.0752,0 1.90884,0.36324 2.50092,1.08973c0.54486,0.66837 0.8173,1.45479 0.8173,2.35926c0,0.91174 -0.27243,1.69816 -0.8173,2.35926c-0.59208,0.73738 -1.42573,1.10607 -2.50092,1.10607c-1.07156,0 -1.90521,-0.36688 -2.50092,-1.10062c-0.54486,-0.65383 -0.8173,-1.43662 -0.8173,-2.34836zM269.78956,163.93726c0,0.23248 0.03088,0.47766 0.09263,0.73557c0.06538,0.2579 0.17799,0.49583 0.33781,0.71377c0.30876,0.44316 0.73193,0.66473 1.26953,0.66473c0.57029,0 0.99165,-0.21613 1.26408,-0.64839c0.2797,-0.44316 0.41955,-0.93717 0.41955,-1.48203c0,-0.55939 -0.13803,-1.04069 -0.4141,-1.44389c-0.28696,-0.44679 -0.71014,-0.67018 -1.26953,-0.67018c-0.5376,0 -0.96078,0.22703 -1.26953,0.68108c-0.28696,0.38867 -0.43044,0.87178 -0.43044,1.44934zM275.27416,163.92091c0,-0.95896 0.27425,-1.75809 0.82275,-2.3974c0.60298,-0.70106 1.38758,-1.05159 2.35381,-1.05159c0.81366,0 1.44389,0.17617 1.89068,0.52852c0.19252,0.13803 0.28878,0.31057 0.28878,0.51762c0,0.20342 -0.05994,0.36869 -0.17981,0.49583c-0.11624,0.12714 -0.25427,0.1907 -0.4141,0.1907c-0.15983,0 -0.28151,-0.03269 -0.36506,-0.09807c-0.35234,-0.19978 -0.7283,-0.29604 -1.12787,-0.28878c-0.49038,0 -0.87541,0.18344 -1.15511,0.55031c-0.33055,0.39957 -0.49583,0.91719 -0.49583,1.55286c0,0.59572 0.11987,1.09518 0.35961,1.49838c0.26153,0.42136 0.69197,0.63204 1.29132,0.63204c0.34145,0 0.76644,-0.12169 1.27498,-0.36506c0.2797,-0.16346 0.52488,-0.1235 0.73556,0.11987c0.11624,0.11624 0.17436,0.27425 0.17436,0.47403c0,0.19615 -0.09444,0.37051 -0.28333,0.52307c-0.18889,0.15256 -0.39593,0.26516 -0.62114,0.33781c-0.49764,0.17072 -0.9862,0.25427 -1.46568,0.25064c-0.47585,-0.00363 -0.90992,-0.09444 -1.30222,-0.27243c-0.3923,-0.18162 -0.71922,-0.44497 -0.98075,-0.79005c-0.53397,-0.63931 -0.80095,-1.44207 -0.80095,-2.4083zM283.22774,164.41129v2.07593c0,0.25427 -0.08355,0.44679 -0.25064,0.57755c-0.16346,0.12714 -0.34145,0.1907 -0.53397,0.1907c-0.18889,0 -0.36324,-0.06538 -0.52307,-0.19615c-0.15619,-0.13077 -0.23429,-0.32147 -0.23429,-0.57211v-7.75886c0,-0.2688 0.07992,-0.46495 0.23974,-0.58845c0.15983,-0.1235 0.30875,-0.18525 0.44679,-0.18525c0.13803,0 0.25609,0.00908 0.35416,0.02724c0.10171,0.01816 0.19434,0.07265 0.27788,0.16346c0.14893,0.1235 0.22339,0.31784 0.22339,0.583v4.01019l2.28298,-1.91247c0.14166,-0.15983 0.31057,-0.23974 0.50672,-0.23974c0.19252,0 0.36324,0.07083 0.51217,0.2125c0.14893,0.13803 0.22339,0.28696 0.22339,0.44679c0,0.23611 -0.0781,0.41228 -0.23429,0.52852l-2.13042,1.7817l2.47913,2.50637c0.11624,0.11624 0.17436,0.25245 0.17436,0.40865c0,0.15619 -0.02542,0.27788 -0.07628,0.36506c-0.04722,0.08718 -0.11079,0.16346 -0.1907,0.22884c-0.15983,0.12714 -0.33055,0.1907 -0.51217,0.1907c-0.18162,0 -0.35416,-0.08173 -0.51762,-0.24519zM293.67973,163.74111c0,0.4032 -0.21976,0.62296 -0.65928,0.65929h-4.10827c0.03269,0.76281 0.39412,1.28225 1.08428,1.55831c0.18525,0.06175 0.40865,0.09263 0.67018,0.09263c0.5376,0 1.09518,-0.20342 1.67273,-0.61025c0.32329,-0.18525 0.6048,-0.16165 0.84454,0.07083c0.14166,0.15256 0.18889,0.30149 0.14166,0.44679c0,0.20342 -0.0672,0.36506 -0.2016,0.48493c-0.63931,0.63567 -1.48021,0.94988 -2.52272,0.94262c-0.95896,0 -1.73266,-0.31239 -2.32112,-0.93717c-0.65383,-0.64294 -0.98076,-1.48566 -0.98076,-2.52817c0,-0.95533 0.26698,-1.74901 0.80095,-2.38105c0.57392,-0.71195 1.37487,-1.06793 2.40285,-1.06793c1.02797,0 1.81803,0.31602 2.37016,0.94806c0.5158,0.56303 0.7846,1.33673 0.8064,2.32112zM292.14322,163.169c-0.01816,-0.30512 -0.17435,-0.61933 -0.46858,-0.94262c-0.26517,-0.2797 -0.65565,-0.41955 -1.17146,-0.41955c-0.42862,0 -0.7955,0.15983 -1.10062,0.47948c-0.28333,0.33055 -0.43407,0.62478 -0.45224,0.88268zM299.04759,166.51991c-0.31239,0.57755 -0.97894,0.86634 -1.99965,0.86634c-0.93353,0 -1.66546,-0.37414 -2.1958,-1.12242c-0.43952,-0.6502 -0.65929,-1.43118 -0.65929,-2.34292c0,-1.54741 0.5267,-2.59537 1.5801,-3.14386c0.35961,-0.20342 0.71922,-0.30512 1.07883,-0.30512c0.36324,0 0.66292,0.02179 0.89903,0.06538c0.23611,0.03996 0.46313,0.11987 0.68108,0.23974c0.45042,0.22521 0.65747,0.38141 0.62114,0.46858l-0.11442,-2.54996c0,-0.26153 0.08718,-0.45042 0.26154,-0.56666c0.17436,-0.11624 0.35416,-0.17436 0.53941,-0.17436c0.19615,0 0.37232,0.05994 0.52852,0.17981c0.15983,0.11624 0.23974,0.30331 0.23974,0.56121v7.82424c0,0.247 -0.08536,0.43226 -0.25609,0.55576c-0.17072,0.11987 -0.32147,0.1798 -0.45224,0.1798c-0.12714,0 -0.23974,-0.01271 -0.33782,-0.03814c-0.09807,-0.02906 -0.18525,-0.08173 -0.26153,-0.15801c-0.17436,-0.11987 -0.26154,-0.29968 -0.26154,-0.53941zM297.23864,166.05133c1.11152,0 1.66728,-0.74283 1.66728,-2.22849c0,-0.95896 -0.27243,-1.57828 -0.8173,-1.85798c-0.20705,-0.10534 -0.45768,-0.15801 -0.75191,-0.15801c-0.29059,0 -0.52852,0.05449 -0.71377,0.16346c-0.18162,0.10534 -0.33418,0.25245 -0.45769,0.44134c-0.23611,0.37051 -0.35416,0.84635 -0.35416,1.42754c0,0.87178 0.19797,1.50564 0.5939,1.90158c0.19978,0.20705 0.47766,0.31057 0.83364,0.31057zM301.85692,161.43633c0,-0.39593 0.18707,-0.67381 0.56121,-0.83364c0.10897,-0.03269 0.23974,-0.04904 0.3923,-0.04904c0.15256,0 0.28333,0.02361 0.3923,0.07083c0.10897,0.04722 0.20705,0.1126 0.29423,0.19615c0.18525,0.17436 0.2688,0.38322 0.25064,0.62659c0,0.37777 -0.18162,0.63931 -0.54486,0.7846c-0.10534,0.04359 -0.23066,0.07083 -0.37596,0.08173c-0.1453,0.00727 -0.27243,-0.0109 -0.3814,-0.05449c-0.10897,-0.04722 -0.21431,-0.10352 -0.31602,-0.16891c-0.18162,-0.19978 -0.27243,-0.41773 -0.27243,-0.65384zM301.91685,166.71061c-0.03996,-0.11624 -0.05993,-0.22884 -0.05993,-0.33781c0,-0.10897 0.01998,-0.21795 0.05993,-0.32692c0.04359,-0.10897 0.11079,-0.20523 0.2016,-0.28878c0.09444,-0.08355 0.19797,-0.14893 0.31057,-0.19615c0.11624,-0.04722 0.247,-0.07083 0.3923,-0.07083c0.1453,0 0.27243,0.02361 0.38141,0.07083c0.10897,0.04722 0.20705,0.11442 0.29423,0.2016c0.09081,0.08718 0.15438,0.18525 0.1907,0.29423c0.03996,0.10534 0.05993,0.21249 0.05993,0.32147c0,0.10534 -0.01998,0.21432 -0.05993,0.32692c-0.03632,0.1126 -0.09989,0.20886 -0.1907,0.28878c-0.09081,0.07991 -0.1907,0.14348 -0.29968,0.1907c-0.10534,0.04722 -0.23066,0.07083 -0.37596,0.07083c-0.1453,0 -0.27425,-0.02179 -0.38685,-0.06538c-0.1126,-0.04722 -0.21613,-0.10897 -0.31057,-0.18525c-0.09444,-0.07991 -0.16346,-0.17799 -0.20705,-0.29423z" data-paper-data="{&quot;index&quot;:null}" fill="#000000" stroke="none" stroke-width="1" stroke-linecap="square"/><path d="M194.18645,187.1675c0.54884,-0.58644 1.68414,-0.87966 3.40586,-0.87966c1.86458,0 3.36451,0.64284 4.4998,1.92849c1.06762,1.27061 1.60143,2.81942 1.60143,4.6464c0,1.93225 -0.609,3.51112 -1.82699,4.73663c-1.24806,1.27062 -2.84949,1.90593 -4.80429,1.90593c-2.25554,0 -3.99606,-0.65034 -5.22157,-1.95104c-0.406,-0.45863 -0.6917,-0.89094 -0.8571,-1.29693c-0.19549,-0.55636 -0.29322,-0.99243 -0.29322,-1.30821c0,-0.32329 0.14285,-0.61651 0.42855,-0.87966c0.28571,-0.27066 0.60899,-0.406 0.96988,-0.406c0.57893,0 1.05259,0.30826 1.42099,0.92477c0.54884,1.30821 1.66533,1.96232 3.34947,1.96232c1.08266,0 1.92472,-0.33833 2.5262,-1.01499c0.52628,-0.66162 0.78944,-1.58639 0.78944,-2.77431c0,-1.60894 -0.5714,-2.68785 -1.71421,-3.23669c-0.36089,-0.1654 -0.75561,-0.24811 -1.18416,-0.24811c-0.42104,0 -0.79695,0.04511 -1.12777,0.13533c-0.32329,0.08271 -0.59395,0.203 -0.81199,0.36089c-0.45111,0.28571 -0.74433,0.54885 -0.87966,0.78944c-0.47366,0.80448 -1.06762,1.20671 -1.78187,1.20671c-0.37593,0 -0.71426,-0.13909 -1.01499,-0.41727c-0.29322,-0.27818 -0.43983,-0.65787 -0.43983,-1.13904v-8.69509c0,-1.06762 0.55262,-1.60143 1.65783,-1.60143h8.45826c0.48871,0 0.86086,0.1654 1.11649,0.49621c0.25562,0.33082 0.38344,0.68042 0.38344,1.04883c0,0.36089 -0.13157,0.6917 -0.39472,0.99243c-0.26315,0.30073 -0.63155,0.45111 -1.10521,0.45111h-7.1275zM216.57129,196.51671c1.81947,0 2.74799,-1.21799 2.78559,-3.65397v-11.27768c0,-0.84206 0.37968,-1.36084 1.13905,-1.55632c0.12029,-0.02256 0.26315,-0.06015 0.42855,-0.11278c0.81199,0 1.37588,0.30826 1.69166,0.92477c0.11278,0.21804 0.16917,0.46615 0.16917,0.74433v11.48068c0,2.12772 -0.65034,3.76674 -1.95104,4.91707c-1.06762,1.01499 -2.48861,1.52249 -4.26297,1.52249c-1.86458,0 -3.37202,-0.69546 -4.52234,-2.08637c-0.3684,-0.50374 -0.62404,-0.96236 -0.76688,-1.37588c-0.14285,-0.41352 -0.21427,-0.7932 -0.21427,-1.13905c0,-0.34585 0.15413,-0.65411 0.46239,-0.92477c0.31578,-0.27818 0.64659,-0.41727 0.99243,-0.41727c0.62404,0 1.10521,0.27818 1.44354,0.83455c0.47366,1.41347 1.34205,2.12021 2.60515,2.12021zM237.64747,197.71214c0,0.51877 -0.18796,0.90222 -0.56388,1.15032c-0.3684,0.24811 -0.68042,0.37217 -0.93604,0.37217c-0.24811,0 -0.48118,-0.02632 -0.69922,-0.07894c-0.21804,-0.06014 -0.39472,-0.17293 -0.53005,-0.33833c-0.35337,-0.24059 -0.53005,-0.60899 -0.53005,-1.10521h0.34961c-0.08271,0.75185 -0.92477,1.28941 -2.5262,1.61271c-0.48118,0.1203 -1.00748,0.18044 -1.57888,0.18044c-0.56388,0 -1.1616,-0.10149 -1.79315,-0.30449c-0.63155,-0.21052 -1.17664,-0.54509 -1.63526,-1.00371c-0.99995,-0.94733 -1.49993,-2.34952 -1.49993,-4.20658v-6.96961c0,-0.48871 0.16165,-0.8759 0.48494,-1.1616c0.32329,-0.28571 0.69171,-0.42855 1.10522,-0.42855c0.41351,0 0.78192,0.14285 1.10521,0.42855c0.32329,0.28571 0.48495,0.6729 0.48495,1.16161v7.13878c0,1.0225 0.18044,1.70669 0.54133,2.05254c0.37593,0.35336 0.96988,0.53005 1.78187,0.53005c1.38339,0 2.33449,-0.55261 2.85326,-1.65782c0.203,-0.39095 0.31202,-0.83831 0.32706,-1.34204v-6.7215c0,-0.50373 0.17293,-0.8947 0.51877,-1.17288c0.35337,-0.27818 0.73681,-0.41727 1.15032,-0.41727c0.41351,0 0.78193,0.14285 1.10522,0.42855c0.32329,0.28571 0.48494,0.6729 0.48494,1.16161zM251.3573,187.61861c0.78944,-1.61647 2.29313,-2.4247 4.51107,-2.4247c2.3232,0 3.87952,0.99243 4.66896,2.97731c0.27066,0.70673 0.406,1.51872 0.406,2.43598v7.10494c0,0.51125 -0.17292,0.89469 -0.51877,1.15032c-0.34585,0.24811 -0.70297,0.37217 -1.07138,0.37217c-0.406,0 -0.78192,-0.13157 -1.12777,-0.39472c-0.33833,-0.27066 -0.50749,-0.64658 -0.50749,-1.12777v-7.24027c0,-0.84959 -0.22556,-1.5037 -0.67666,-1.96232c-0.406,-0.3684 -0.95484,-0.5526 -1.64654,-0.5526c-1.41347,0 -2.37207,0.56764 -2.87581,1.70293c-0.203,0.43607 -0.30449,0.97364 -0.30449,1.61271v6.43956c0,0.51125 -0.17293,0.8947 -0.51878,1.15033c-0.34585,0.24811 -0.70297,0.37217 -1.07138,0.37217c-0.41351,0 -0.78943,-0.13534 -1.12777,-0.406c-0.33082,-0.27066 -0.49622,-0.64282 -0.49622,-1.11648v-7.24027c0,-0.8571 -0.21804,-1.51121 -0.65411,-1.96232c-0.406,-0.3684 -0.89845,-0.5526 -1.47737,-0.5526c-0.5714,0 -1.04131,0.0639 -1.40971,0.19172c-0.3684,0.12782 -0.69922,0.33457 -0.99243,0.62028c-0.59395,0.60148 -0.90972,1.46234 -0.94732,2.58259v6.36062c0,0.51877 -0.18044,0.90222 -0.54133,1.15032c-0.35337,0.24811 -0.71801,0.37217 -1.09393,0.37217c-0.3684,0 -0.72928,-0.13157 -1.08265,-0.39472c-0.35337,-0.26314 -0.53005,-0.63907 -0.53005,-1.12777v-10.72508c0,-0.48118 0.17293,-0.86086 0.51878,-1.13904c0.35337,-0.27818 0.68794,-0.41727 1.00371,-0.41727c0.31578,0 0.55637,0.04135 0.72178,0.12406c0.1654,0.08271 0.31201,0.1654 0.43983,0.24811c0.37593,0.31578 0.56388,0.69922 0.56388,1.15032h-0.36088c-0.1654,-0.24059 0.22555,-0.60523 1.17288,-1.09393c0.81199,-0.44359 1.75932,-0.66538 2.84198,-0.66538c1.69166,0 2.99986,0.55261 3.92463,1.65782c0.30073,0.406 0.3872,0.66162 0.25939,0.76688zM266.65729,186.07357c0.19548,-0.58644 1.48865,-0.87966 3.87952,-0.87966c1.97735,0 3.49232,0.76312 4.54491,2.28937c0.90222,1.34581 1.35332,2.98482 1.35332,4.91707c0,1.99239 -0.47742,3.6239 -1.43226,4.89452c-1.07514,1.48865 -2.57507,2.22546 -4.49979,2.21043c-1.62399,0 -2.95475,-0.49622 -3.9923,-1.48865c-0.36089,-0.30825 -0.45111,-0.55636 -0.27066,-0.74433l0.37217,5.24413c0,0.53381 -0.17668,0.92853 -0.53005,1.18416c-0.35336,0.25563 -0.70674,0.38344 -1.0601,0.38344c-0.406,0 -0.78568,-0.13909 -1.13904,-0.41727c-0.34585,-0.27819 -0.51878,-0.66163 -0.51878,-1.15033v-15.52937c0,-0.52628 0.16541,-0.91726 0.49622,-1.17288c0.33081,-0.25562 0.75185,-0.38344 1.2631,-0.38344c1.16536,0 1.67662,0.21428 1.53377,0.64283zM267.31139,189.17493c-0.26314,0.36089 -0.44734,0.82328 -0.5526,1.38716c-0.09774,0.55637 -0.14661,1.15032 -0.14661,1.78187c0,0.62404 0.07143,1.20295 0.21428,1.73676c0.14285,0.52628 0.34961,1.00748 0.62027,1.44354c0.57892,0.83455 1.43227,1.24055 2.56004,1.21799c1.0601,0 1.86083,-0.43607 2.40215,-1.30821c0.45111,-0.75937 0.67666,-1.79315 0.67666,-3.10136c0,-2.00743 -0.53757,-3.34195 -1.6127,-4.00357c-0.36841,-0.23306 -0.87214,-0.35337 -1.51121,-0.36088c-0.63155,-0.00751 -1.16536,0.1015 -1.60143,0.32705c-0.43608,0.21804 -0.78568,0.51126 -1.04882,0.87966zM283.34377,187.95694c-1.51121,0 -2.25177,0.40224 -2.2217,1.20671c0,0.47366 0.406,0.81951 1.21799,1.03755c0.36841,0.09773 0.76687,0.19173 1.19539,0.28195c0.42855,0.09022 0.90222,0.19924 1.42099,0.32705c0.52629,0.12029 1.0601,0.28571 1.60143,0.49622c0.8571,0.24811 1.53,0.68417 2.01871,1.30821c0.4887,0.62404 0.73305,1.37212 0.73305,2.24427c0,1.54129 -0.65411,2.73296 -1.96232,3.57503c-1.11273,0.7293 -2.50363,1.08641 -4.1727,1.07138c-1.21799,0 -2.41719,-0.21427 -3.59758,-0.64282c-0.51877,-0.203 -0.9586,-0.4699 -1.31948,-0.80071c-0.35336,-0.33081 -0.53005,-0.69546 -0.53005,-1.09393c0,-0.39848 0.13533,-0.71801 0.406,-0.9586c0.27066,-0.24059 0.56388,-0.36089 0.87966,-0.36089c0.31578,0 0.61276,0.06391 0.89094,0.19173c0.2857,0.1203 0.62028,0.24435 1.00372,0.37217c0.96236,0.35336 1.72549,0.53005 2.28937,0.53005c0.56386,0 1.00743,-0.03007 1.33073,-0.09022c0.33081,-0.06767 0.61651,-0.17293 0.8571,-0.31578c0.47366,-0.31578 0.7105,-0.72177 0.7105,-1.21799c0,-0.33082 -0.10902,-0.5902 -0.32705,-0.77816c-0.21803,-0.18796 -0.55637,-0.3496 -1.015,-0.48494c-0.45111,-0.14285 -0.91723,-0.2669 -1.39839,-0.37216c-0.47366,-0.11278 -0.96236,-0.22555 -1.4661,-0.33833c-0.49622,-0.11278 -0.98868,-0.25187 -1.47737,-0.41727c-0.48118,-0.17293 -0.90221,-0.41351 -1.2631,-0.72177c-0.90222,-0.63155 -1.35332,-1.54128 -1.35332,-2.7292c0,-1.48114 0.62403,-2.54876 1.87209,-3.20287c0.9398,-0.58644 2.1766,-0.87966 3.71036,-0.87966c1.52622,0 2.76674,0.23307 3.72159,0.69922c0.94733,0.48871 1.42099,1.08641 1.42099,1.79315c0,0.37593 -0.13909,0.66915 -0.41727,0.87966c-0.27066,0.21051 -0.56388,0.31578 -0.87966,0.31578c-0.45111,0 -0.78192,-0.06767 -0.99243,-0.203c-0.21052,-0.14285 -0.39848,-0.25939 -0.56389,-0.3496c-0.15789,-0.09022 -0.34209,-0.15413 -0.5526,-0.19172c-0.45863,-0.12029 -1.04881,-0.18044 -1.77055,-0.18044z" fill="#000000" stroke="#373737" stroke-width="0" stroke-linecap="square"/></g></g></svg>