<svg version="1.1" xmlns="http://www.w3.org/2000/svg" xmlns:xlink="http://www.w3.org/1999/xlink" width="190.69069" height="219.37188" viewBox="0,0,190.69069,219.37188"><g transform="translate(-144.65467,-70.31407)"><g data-paper-data="{&quot;isPaintingLayer&quot;:true}" fill-rule="nonzero" stroke="none" stroke-width="0" stroke-linejoin="miter" stroke-miterlimit="10" stroke-dasharray="" stroke-dashoffset="0" style="mix-blend-mode: normal"><path d="M242.21631,233.67787l4.87558,4.17683c0,0 1.69622,2.96973 1.17804,4.25244c-0.51279,1.28083 -7.30997,7.23638 -7.30997,7.23638c0,0 5.41554,1.65526 5.02645,3.26084c-0.38295,1.60903 -11.58324,-2.3151 -11.58324,-2.3151l4.29413,-9.38524l-2.87026,-6.85092" fill="#539ad1" stroke-linecap="round"/><path d="M233.04948,220.00109c0,0 -3.09701,10.41394 -8.4865,8.84684c-2.9018,-0.84355 -2.15394,-5.67461 -1.70769,-7.19778c0.65226,-2.2056 0.73127,-2.82843 2.40574,-4.47563c1.6677,-1.64708 7.74846,-7.76109 10.48228,-9.28218c4.29012,-2.37848 12.71906,-4.65145 5.24202,4.15636c0,0 -4.6035,4.50485 -7.62627,7.59216l-0.30955,0.36025v0v0v0z" fill="#539ad1" stroke-linecap="round"/><path d="M243.15068,234.40606l4.33638,14.15597c0,0 6.41853,-1.48811 7.37837,0.52896c0.96176,2.01628 -13.74423,5.58551 -13.74423,5.58551l-4.32033,-18.24529" fill="#539ad1" stroke-linecap="round"/><path d="M242.21631,233.67787l4.62558,3.92683c0,0 1.69622,3.21973 1.17804,4.50244c-0.51279,1.28083 -7.05997,7.23638 -7.05997,7.23638c0,0 5.41554,1.65526 5.02645,3.26084c-0.38295,1.60903 -11.58324,-2.3151 -11.58324,-2.3151l6.29413,-9.13524l-4.87026,-7.10092" fill="#539ad1" stroke-linecap="round"/><path d="M253.28559,222.12767v0v0v0l0.01068,0.25767c0.45115,1.48707 0.81141,3.36851 0.66196,5.30458c-0.77815,10.15124 -12.30311,10.41589 -12.30311,10.41589c-15.04283,0 -12.42421,-9.72167 -11.08853,-13.45719c0.8504,-2.38623 3.33233,-10.14633 3.33233,-10.14633c0,0 1.54364,-6.9156 2.25247,-9.16612c0.82601,-2.62056 4.58006,-5.16103 10.67063,-4.53625c10.75172,1.1023 8.01397,8.47103 8.01397,8.47103c-0.25385,1.77887 -1.76133,11.16854 -1.5504,12.85672z" fill="#539ad1" stroke-linecap="round"/><path d="M243.96623,215.24618c0,0 1.26537,5.47351 3.46312,8.38599c2.73184,3.62227 6.56112,6.42247 5.70383,8.83115c-0.5897,1.64721 -2.31395,5.25193 -10.28794,-1.72035c-6.42541,-5.61403 -8.24627,-16.62059 -7.45447,-21.33537" fill="#539ad1" stroke-linecap="round"/><path d="M200.46047,143.4885c0,0 0.90808,-3.72191 8.63496,-11.63232c7.72304,-7.90661 16.08365,-10.62963 21.62836,-12.9026c5.54481,-2.27297 9.2677,-13.63008 9.2677,-13.63008c0,0 5.10533,6.35031 10.35334,12.12445c5.3534,5.88848 17.82253,11.04851 31.18305,24.49691c1.59434,1.61002 2.94953,3.29527 4.08901,5.02445l0.22945,0.20111c2.98572,2.58829 13.56752,12.91525 12.21134,27.94836c-1.0369,11.4527 -6.24481,15.07303 -8.76869,16.04747l-0.0205,0.08392c1.30048,-2.57666 2.07471,-5.31035 2.44082,-8.08626c1.20488,-9.17874 -3.73944,-15.14429 -6.91068,-23.12797c-4.11146,-10.35343 -15.35815,-16.17838 -29.9216,-15.88832c-27.71687,0.5487 -33.82115,16.1304 -33.82115,16.1304l-0.01951,0.20111c5.14151,9.54792 7.19485,30.72905 -3.33331,37.0676c-11.34043,6.81595 -28.13193,4.43759 -34.67158,-21.90763c-5.98605,-24.1093 11.93797,-31.70636 17.21038,-31.6439l0.21865,-0.50673v0v0v0zM285.61584,146.9693c0,0 2.46483,3.91654 4.05694,10.00673c1.14237,4.36983 1.83543,9.85874 0.84629,15.82289M200.24084,143.99427c5.09856,0.13864 8.5158,3.7883 8.5158,3.7883M221.03532,160.47621c-0.85816,-1.33852 -1.45665,-2.44083 -1.45665,-2.44083" fill="#0078d1" stroke-linecap="round"/><g><path d="M183.62798,177.98731v0v0v0c-1.16968,-4.52053 -2.18794,-11.56889 -1.24969,-17.05222c0.96465,-5.656 4.29111,-9.32131 7.9524,-10.20979c6.8551,-1.67051 15.14145,8.21215 18.51478,22.06578c3.17516,13.0598 0.86022,24.98607 -5.15612,27.71894c0,0 -1.9704,0.24992 -5.94603,-1.93323c-3.97282,-2.1812 -7.40772,-5.92457 -8.8088,-8.34489c-1.405,-2.42044 -4.13391,-7.7152 -5.30652,-12.24459z" fill="#404041" stroke-linecap="butt"/><path d="M187.88691,166.46628c2.63714,-1.12966 7.11278,3.41332 9.99787,10.15025c2.88228,6.73292 3.08438,13.11538 0.45016,14.24211c-2.63909,1.12673 -7.11278,-3.41724 -9.99602,-10.15223c-2.88806,-6.73486 -3.08817,-13.1096 -0.45202,-14.24013v0zM199.48415,189.75831c-10.85908,-6.88135 -10.7381,-23.46096 -10.7381,-23.46096" fill="#929497" stroke-linecap="round"/></g><path d="M216.79896,198.16871v0v0v0l-0.05962,-0.07522c0.32415,-0.17474 0.64441,-0.36025 0.96073,-0.54869c10.54178,-6.34627 8.46707,-27.57539 3.3138,-37.10172l0.04196,-0.16798c0,0 6.10431,-15.5817 33.82606,-16.1304c14.56246,-0.29003 25.80816,5.53499 29.91962,15.88832c3.17124,7.98467 8.1185,13.95022 6.91068,23.12807c-1.26145,9.55274 -7.36369,18.67578 -23.087,22.39768c-15.7234,3.73268 -15.09263,1.7331 -20.36111,3.99725c-5.27132,2.27788 -3.85466,-0.02735 -10.60817,-1.71544c-10.19703,-2.54056 -19.58679,-8.80293 -20.85698,-9.67186z" fill="#e8eae9" stroke-linecap="round"/><path d="M258.9758,196.07829c-12.41439,0.83484 -13.80086,-15.30933 -13.80086,-15.30933c0,0 7.09521,-0.22454 16.2515,-0.79288c9.15444,-0.56429 11.34926,0 11.34926,0c0,0 -1.38845,15.26354 -13.7999,16.10218v0v0v0z" fill="#ffffff" stroke-linecap="round"/><path d="M277.7971,170.72314c-0.15424,0 -0.30847,-0.0205 -0.46761,-0.06441c-0.87681,-0.25681 -1.38453,-1.17949 -1.12281,-2.05812c0.11718,-0.41018 0.14247,-0.83385 0.07509,-1.25765c-0.25091,-1.59236 -1.7926,-2.67811 -3.39871,-2.42427c-1.62463,0.25582 -2.74157,1.76133 -2.49063,3.35675c0.14256,0.90503 -0.47644,1.75447 -1.38255,1.89604c-0.91287,0.14256 -1.75556,-0.47447 -1.89506,-1.38255c-0.53801,-3.3997 1.81691,-6.60996 5.2528,-7.15276c3.4299,-0.53116 6.65585,1.78869 7.19964,5.18641c0.14256,0.91287 0.08599,1.8229 -0.1757,2.70745c-0.21386,0.72353 -0.87582,1.19311 -1.59443,1.19311v0v0v0v0z" fill="#000000" stroke-linecap="butt"/><path d="M246.15321,170.72314c-0.15325,0 -0.30946,-0.0205 -0.46761,-0.06441c-0.87776,-0.25681 -1.38453,-1.17949 -1.1238,-2.05812c0.11817,-0.41018 0.14247,-0.83385 0.07806,-1.25765c-0.25289,-1.59236 -1.78869,-2.67811 -3.40164,-2.42427c-1.62364,0.25582 -2.7396,1.76133 -2.49063,3.35675c0.14256,0.90503 -0.47546,1.75447 -1.38255,1.89604c-0.91188,0.14256 -1.75447,-0.47447 -1.89703,-1.38255c-0.53607,-3.3997 1.81897,-6.60996 5.25279,-7.15276c3.42314,-0.53116 6.65878,1.78869 7.19964,5.18641c0.14355,0.91287 0.08698,1.8229 -0.17474,2.70745c-0.21188,0.72353 -0.87384,1.19311 -1.59249,1.19311z" fill="#000000" stroke-linecap="butt"/><path d="M165.40527,186.83059c0,-56.80544 34.06945,-102.85536 76.09624,-102.85536c42.02679,0 76.09624,46.04992 76.09624,102.85536c0,56.80544 -34.06945,102.85536 -76.09624,102.85536c-42.02679,0 -76.09624,-46.04992 -76.09624,-102.85536z" fill="none" stroke-linecap="butt"/><path d="M144.65467,280.52428v-210.21021h190.69069v210.21021z" fill="none" stroke-linecap="butt"/><path d="M290.91516,188.51376c0,0 2.31963,-4.19247 3.88517,-11.87914c1.56357,-7.6906 -0.52316,-18.14763 -0.52316,-18.14763c2.5911,4.6822 4.55439,10.69113 3.91969,17.72869c-1.01671,11.24084 -6.25211,15.07435 -8.86888,16.16207l1.58717,-3.86398v0v0v0v0v0v0v0v0v0v0v0v0v0v0v0v0v0v0v0v0v0v0v0v0v0v0v0v0v0v0v0v0v0v0v0v0z" fill="#404041" stroke-linecap="butt"/></g></g></svg>