<svg version="1.1" xmlns="http://www.w3.org/2000/svg" xmlns:xlink="http://www.w3.org/1999/xlink" width="190.69069" height="219.37189" viewBox="0,0,190.69069,219.37189"><g transform="translate(-144.65465,-70.31405)"><g data-paper-data="{&quot;isPaintingLayer&quot;:true}" fill-rule="nonzero" stroke="none" stroke-width="0" stroke-linejoin="miter" stroke-miterlimit="10" stroke-dasharray="" stroke-dashoffset="0" style="mix-blend-mode: normal"><path d="M243.98001,232.45017l4.62558,3.92683c0,0 1.69622,3.21973 1.17804,4.50244c-0.51279,1.28083 -7.05997,7.23638 -7.05997,7.23638c0,0 5.41554,1.65526 5.02645,3.26084c-0.38295,1.60903 -11.58324,-2.3151 -11.58324,-2.3151l6.29413,-9.13524l-4.87026,-7.10092" fill="#539ad1" stroke-linecap="round"/><path d="M228.81318,218.52339c0,0 -3.09701,10.41394 -8.4865,8.84684c-2.9018,-0.84355 -2.15394,-5.67461 -1.70769,-7.19778c0.65226,-2.2056 0.73127,-2.82843 2.40574,-4.47563c1.6677,-1.64708 7.74846,-7.76109 10.48228,-9.28218c4.29012,-2.37848 12.71906,-4.65145 5.24202,4.15636c0,0 -4.6035,4.50485 -7.62627,7.59216l-0.30955,0.36025v0v0v0z" fill="#539ad1" stroke-linecap="round"/><path d="M249.04929,220.64997v0v0v0l0.01068,0.25767c0.45115,1.48707 0.81141,3.36851 0.66196,5.30458c-0.77815,10.15124 -12.30311,10.41589 -12.30311,10.41589c-15.04283,0 -12.42421,-9.72167 -11.08853,-13.45719c0.8504,-2.38623 3.33233,-10.14633 3.33233,-10.14633c0,0 1.54364,-6.9156 2.25247,-9.16612c0.82601,-2.62056 4.58006,-5.16103 10.67063,-4.53625c10.75172,1.1023 8.01397,8.47103 8.01397,8.47103c-0.25385,1.77887 -1.76133,11.16854 -1.5504,12.85672z" fill="#539ad1" stroke-linecap="round"/><path d="M239.36571,235.28595l1.37565,14.74121c0,0 6.58694,-0.1556 7.1178,2.0142c0.5329,2.16942 -14.59133,2.68232 -14.59133,2.68232l-0.53067,-18.74231" fill="#539ad1" stroke-linecap="round"/><path d="M239.72993,213.76848c0,0 1.26537,5.47351 3.46312,8.38599c2.73184,3.62227 6.56112,6.42247 5.70383,8.83115c-0.5897,1.64721 -2.31395,5.25193 -10.28794,-1.72035c-6.42541,-5.61403 -8.24627,-16.62059 -7.45447,-21.33537" fill="#539ad1" stroke-linecap="round"/><path d="M205.82811,135.69364c0,0 1.56386,-3.49736 10.58962,-9.88601c9.0213,-6.3856 17.73572,-7.55758 23.59924,-8.79425c5.86362,-1.23666 11.57197,-11.73706 11.57197,-11.73706c0,0 3.87752,7.16629 7.9992,13.79155c4.20475,6.75672 15.54001,14.07907 26.25861,29.71474c1.27814,1.87095 2.30749,3.7728 3.11675,5.679l0.18945,0.23916c2.47048,3.08392 11.01828,15.14856 6.97553,29.69124c-3.08356,11.07841 -8.85856,13.70109 -11.51672,14.2048l-0.03529,0.07886c1.74348,-2.30015 2.99761,-4.8496 3.85791,-7.5141c2.83906,-8.8114 -0.94942,-15.57021 -2.6302,-23.99463c-2.17861,-10.9248 -12.19163,-18.68092 -26.56898,-21.01976c-27.36208,-4.45451 -36.17407,9.77225 -36.17407,9.77225l-0.05542,0.1943c3.33694,10.31808 1.54009,31.52251 -9.95787,35.86027c-12.38296,4.66099 -28.47107,-0.70406 -30.15661,-27.79643c-1.54388,-24.7933 17.45565,-29.03633 22.63051,-28.02487l0.30638,-0.45904v0v0v0zM288.96248,154.46138c0,0 1.71879,4.29657 2.18745,10.57395c0.33628,4.50415 0.02897,10.02809 -2.01865,15.7164M205.52094,136.15154c4.99013,1.05507 7.69382,5.26073 7.69382,5.26073M223.00523,156.11063c-0.60293,-1.47123 -0.99299,-2.66335 -0.99299,-2.66335" fill="#0078d1" stroke-linecap="round"/><g><path d="M183.05488,166.59478v0v0v0c-0.33599,-4.6573 -0.06756,-11.77377 1.84336,-16.99828c1.96799,-5.38961 5.90046,-8.39554 9.66192,-8.60976c7.0439,-0.40797 13.41389,10.80603 14.23576,25.04074c0.76997,13.41816 -3.65603,24.73211 -10.06632,26.33617c0,0 -1.98318,-0.10921 -5.50037,-2.97298c-3.51477,-2.86135 -6.21894,-7.16238 -7.16098,-9.79554c-0.94587,-2.63399 -2.67606,-8.3338 -3.01334,-13.00035z" fill="#404041" stroke-linecap="butt"/><path d="M189.32005,156.02971c2.79753,-0.63599 6.38132,4.63909 8.00528,11.78561c1.62192,7.14207 0.67067,13.45647 -2.12345,14.09011c-2.79891,0.63275 -6.38061,-4.64294 -8.00311,-11.78722c-1.62725,-7.14502 -0.67543,-13.45148 2.12127,-14.0885v0zM196.53054,181.03021c-9.44141,-8.72539 -6.33497,-25.01183 -6.33497,-25.01183" fill="#929497" stroke-linecap="round"/></g><path d="M212.04649,192.42286v0v0v0l-0.04509,-0.08472c0.35033,-0.11347 0.69877,-0.23824 1.04388,-0.3666c11.51276,-4.3429 13.29722,-25.59839 9.94483,-35.89734l0.07153,-0.15767c0,0 8.81202,-14.22674 36.1789,-9.77135c14.37637,2.33869 24.3884,10.09469 26.56703,21.01939c1.6806,8.4254 5.47197,15.18474 2.63019,23.99474c-2.96209,9.16909 -10.60831,17.04326 -26.7449,17.87109c-16.13863,0.83842 -15.15788,-1.01477 -20.74809,0.26301c-5.59549,1.29077 -3.78664,-0.72147 -10.12544,-3.59882c-9.57234,-4.33635 -17.68003,-12.18814 -18.77286,-13.27172z" fill="#e8eae9" stroke-linecap="round"/><path d="M253.90966,197.96638c-12.36162,-1.41574 -10.81643,-17.54549 -10.81643,-17.54549c0,0 7.01953,1.0576 16.12837,2.14841c9.10629,1.09446 11.1635,2.04499 11.1635,2.04499c0,0 -4.11602,14.76353 -16.47543,13.35206v0v0v0z" fill="#ffffff" stroke-linecap="round"/><path d="M276.99156,176.41759c-0.15172,-0.02779 -0.29973,-0.07575 -0.44836,-0.14761c-0.81618,-0.41059 -1.14934,-1.40966 -0.73358,-2.22675c0.18917,-0.38235 0.29039,-0.79453 0.30047,-1.22354c0.04013,-1.61151 -1.28069,-2.95728 -2.90625,-2.997c-1.64413,-0.0411 -3.01407,1.23851 -3.05471,2.85303c-0.02284,0.91591 -0.78477,1.6399 -1.70156,1.61589c-0.92362,-0.02427 -1.64133,-0.78304 -1.61493,-1.70138c0.08338,-3.44099 2.9782,-6.17438 6.45566,-6.0892c3.46947,0.09556 6.22461,2.95872 6.14727,6.39881c-0.02426,0.92361 -0.24387,1.80856 -0.66066,2.63148c-0.34073,0.67315 -1.07647,1.01576 -1.78331,0.88628v0v0v0v0z" fill="#000000" stroke-linecap="butt"/><path d="M245.86563,170.71575c-0.15074,-0.02761 -0.3007,-0.07593 -0.44835,-0.14762c-0.81712,-0.41076 -1.14934,-1.40966 -0.73455,-2.22693c0.19015,-0.38218 0.29039,-0.79454 0.3034,-1.22301c0.03818,-1.61187 -1.27685,-2.95658 -2.90914,-2.99752c-1.64317,-0.04093 -3.01212,1.23886 -3.05471,2.85303c-0.02285,0.91591 -0.78381,1.64008 -1.70156,1.61589c-0.92264,-0.02408 -1.64026,-0.78284 -1.61686,-1.70175c0.08529,-3.44065 2.98023,-6.17401 6.45565,-6.08919c3.46281,0.09434 6.22749,2.95923 6.14727,6.3988c-0.02329,0.92379 -0.24291,1.80874 -0.65973,2.63165c-0.33878,0.67351 -1.07452,1.01613 -1.78141,0.88664z" fill="#000000" stroke-linecap="butt"/><path d="M165.40527,186.83059c0,-56.80545 34.06945,-102.85536 76.09624,-102.85536c42.02679,0 76.09624,46.04991 76.09624,102.85536c0,56.80545 -34.06945,102.85536 -76.09624,102.85536c-42.02679,0 -76.09624,-46.04991 -76.09624,-102.85536z" fill="none" stroke-linecap="butt"/><path d="M144.65466,280.52427v-210.21021h190.69069v210.21021z" fill="none" stroke-linecap="butt"/><path d="M286.84488,195.10551c0,0 3.00832,-3.68244 5.90608,-10.90778c2.89705,-7.23155 2.73938,-17.81486 2.73938,-17.81486c1.68336,5.03423 2.51664,11.25169 0.64239,18.01047c-2.99855,10.79821 -8.32321,15.04548 -12.72407,15.46623l3.4362,-4.7541v0v0v0z" fill="#404041" stroke-linecap="butt"/></g></g></svg>