<svg version="1.1" xmlns="http://www.w3.org/2000/svg" xmlns:xlink="http://www.w3.org/1999/xlink" width="319.88674" height="296.37637" viewBox="0,0,319.88674,296.37637"><defs><linearGradient x1="82.2734" y1="176.09892" x2="82.2734" y2="199.63461" gradientUnits="userSpaceOnUse" id="color-1"><stop offset="0" stop-color="#ecd284"/><stop offset="1" stop-color="#c5af6e"/></linearGradient><linearGradient x1="210.79373" y1="230.30205" x2="209.46139" y2="253.8" gradientUnits="userSpaceOnUse" id="color-2"><stop offset="0" stop-color="#ecd284"/><stop offset="1" stop-color="#c5af6e"/></linearGradient><linearGradient x1="316.09389" y1="-15.58343" x2="315.39295" y2="7.94182" gradientUnits="userSpaceOnUse" id="color-3"><stop offset="0" stop-color="#ecd284"/><stop offset="1" stop-color="#c5af6e"/></linearGradient></defs><g transform="translate(-39.03176,14.4394)"><g data-paper-data="{&quot;isPaintingLayer&quot;:true}" fill-rule="nonzero" stroke="none" stroke-linecap="butt" stroke-linejoin="miter" stroke-miterlimit="10" stroke-dasharray="" stroke-dashoffset="0" style="mix-blend-mode: normal"><path d="M121.9782,186.26011c0.00788,0.22168 1.49501,15.98585 2.39727,26.74723c0.46857,5.58866 -2.3386,10.11642 -7.11082,10.55774c-16.84726,1.558 -55.8213,5.16223 -63.18447,5.84316c-6.14167,0.56796 -8.90733,-4.20968 -9.25192,-7.93591c-0.61582,-6.65915 -2.57453,-27.83948 -2.57453,-27.83948z" data-paper-data="{&quot;index&quot;:null}" fill="#e4cb7f" stroke-width="0"/><path d="M42.90856,201.04631l-1.22544,-13.25121l79.69616,-7.37012l1.22544,13.2512z" data-paper-data="{&quot;index&quot;:null}" fill="#b7a367" stroke-width="0"/><path d="M43.30508,183.25863c7.50859,-0.69438 76.31278,-7.05724 76.31278,-7.05724c0,0 4.58746,-0.95234 4.94893,2.94954c0.20987,0.82964 0.94813,10.30324 0.94813,10.30324c0,0 0.0413,2.88308 -2.33938,3.16889c-2.44539,0.29357 -6.05046,0.26208 -9.90008,0.16942c-5.74746,-0.13834 -12.04002,-0.41302 -15.83214,0.05428c-12.44088,1.53308 -20.99351,0.73078 -33.42555,2.35128c-7.20346,0.93897 -16.52269,3.18236 -21.09324,4.34245c-1.72758,0.43849 -2.90768,-0.69392 -3.08302,-2.58991c-0.26391,-2.85374 -0.62835,-6.79455 -0.79807,-8.62985c-0.17586,-1.90169 1.6529,-4.82084 4.26166,-5.06209z" data-paper-data="{&quot;index&quot;:null}" fill="url(#color-1)" stroke-width="0"/><path d="M78.45471,210.57421c0.18588,2.01001 -1.65425,3.823 -3.35953,3.9807c-2.49451,0.23069 -9.65074,0.89248 -14.34354,1.32646c-2.51719,0.23278 -4.53794,-1.89608 -4.71314,-3.79055c-0.12634,-1.36618 -0.38994,-4.21661 -0.5782,-6.25232c-0.16764,-1.81277 1.65596,-3.82316 4.35686,-4.07293c4.47803,-0.41412 10.90345,-1.00832 13.42408,-1.24143c2.16368,-0.20009 4.4549,1.84746 4.60125,3.42997c0.12923,1.39748 0.39483,4.26943 0.61221,6.6201z" data-paper-data="{&quot;index&quot;:null}" fill="#e9d18c" stroke-width="NaN"/><path d="M249.85964,242.69461c-0.00468,0.22177 0.58767,16.04485 0.87929,26.84005c0.15145,5.60622 -2.90754,9.96781 -7.69709,10.13827c-16.90844,0.60179 -56.02401,1.99394 -63.41392,2.25696c-6.16397,0.21938 -8.65473,-4.70717 -8.78784,-8.44693c-0.23786,-6.68333 -0.99443,-27.94058 -0.99443,-27.94058z" data-paper-data="{&quot;index&quot;:null}" fill="#e4cb7f" stroke-width="0"/><path d="M170.07976,252.98102l-0.47333,-13.29934l79.98558,-2.84675l0.47333,13.29932z" data-paper-data="{&quot;index&quot;:null}" fill="#b7a367" stroke-width="0"/><path d="M171.48259,235.24431c7.53586,-0.26821 76.58991,-2.72591 76.58991,-2.72591c0,0 4.63401,-0.69112 4.77402,3.22496c0.16257,0.84019 0.36335,10.34039 0.36335,10.34039c0,0 -0.12197,2.8808 -2.51502,3.03138c-2.45809,0.15466 -6.05559,-0.08085 -9.89379,-0.39129c-5.73041,-0.46348 -11.99733,-1.09394 -15.80983,-0.84206c-12.50771,0.82635 -21.00121,-0.45881 -33.50505,0.45532c-7.24507,0.52968 -16.67634,2.24191 -21.30524,3.14141c-1.74963,0.33999 -2.86373,-0.85741 -2.93146,-2.76028c-0.10194,-2.8641 -0.24271,-6.81922 -0.30826,-8.66119c-0.06793,-1.90859 1.92315,-4.71954 4.54139,-4.81273z" data-paper-data="{&quot;index&quot;:null}" fill="url(#color-2)" stroke-width="0"/><path d="M226.60891,265.72661c0.07524,2.11415 -1.95768,3.90194 -3.7513,3.96577c-2.62374,0.09338 -10.1507,0.36127 -15.08661,0.53695c-2.64759,0.09423 -4.63565,-2.25313 -4.70657,-4.24574c-0.05114,-1.43695 -0.15784,-4.43505 -0.23405,-6.57622c-0.06786,-1.90668 1.95948,-3.902 4.8003,-4.00311c4.71001,-0.16764 11.4683,-0.40817 14.11951,-0.50252c2.27576,-0.08099 4.55164,2.19733 4.61088,3.86182c0.05231,1.46987 0.15983,4.4906 0.24782,6.96305z" data-paper-data="{&quot;index&quot;:null}" fill="#e9d18c" stroke-width="NaN"/><path d="M355.47845,-4.24425c0.00128,0.22182 1.01826,16.02329 1.59963,26.80676c0.30192,5.60014 -2.63885,10.04229 -7.42209,10.34129c-16.88619,1.05557 -55.95028,3.49747 -63.33046,3.9588c-6.15587,0.3848 -8.77801,-4.47309 -9.01147,-8.20793c-0.41723,-6.67453 -1.74427,-27.90381 -1.74427,-27.90381z" data-paper-data="{&quot;index&quot;:null}" fill="#e4cb7f" stroke-width="0"/><path d="M276.00354,8.18052l-0.83025,-13.28183l79.88031,-4.99332l0.83026,13.28181z" data-paper-data="{&quot;index&quot;:null}" fill="#b7a367" stroke-width="0"/><path d="M276.92965,-9.58745c7.52594,-0.47046 76.48911,-4.78136 76.48911,-4.78136c0,0 4.61379,-0.8153 4.85889,3.09562c0.18506,0.83553 0.64085,10.32691 0.64085,10.32691c0,0 -0.04459,2.88303 -2.43272,3.09781c-2.45305,0.22062 -6.05557,0.08178 -9.90073,-0.12549c-5.74079,-0.30945 -12.02238,-0.77141 -15.82674,-0.41726c-12.48102,1.16188 -21.00595,0.10522 -33.48074,1.35476c-7.22823,0.72402 -16.61014,2.68887 -21.21322,3.71232c-1.73987,0.38685 -2.88572,-0.78021 -3.00451,-2.68058c-0.17879,-2.86033 -0.42572,-6.81025 -0.5407,-8.64979c-0.11915,-1.90609 1.79574,-4.76946 4.41053,-4.93292z" data-paper-data="{&quot;index&quot;:null}" fill="url(#color-3)" stroke-width="0"/><path d="M332.8473,19.22443c0.13174,2.10749 -1.84881,3.94585 -3.63679,4.05762c-2.61548,0.1635 -10.11875,0.63253 -15.03914,0.9401c-2.63927,0.16498 -4.68586,-2.12395 -4.81002,-4.1103c-0.08954,-1.43243 -0.27636,-4.4211 -0.40979,-6.55553c-0.11881,-1.90068 1.8506,-3.94596 4.68249,-4.12299c4.69519,-0.2935 11.43222,-0.71463 14.0751,-0.87984c2.26861,-0.14182 4.60055,2.07053 4.70427,3.72978c0.0916,1.46525 0.27983,4.47648 0.43389,6.94115z" data-paper-data="{&quot;index&quot;:null}" fill="#e9d18c" stroke-width="NaN"/><path d="M207.72891,272.37351c0.07524,2.11415 -1.95768,3.90194 -3.75131,3.96578c-2.62374,0.09338 -10.1507,0.36127 -15.08661,0.53695c-2.64758,0.09424 -4.63565,-2.25313 -4.70657,-4.24574c-0.05113,-1.43696 -0.15783,-4.43505 -0.23404,-6.57622c-0.06787,-1.90668 1.95948,-3.90201 4.8003,-4.00311c4.71001,-0.16764 11.46829,-0.40817 14.11951,-0.50252c2.27577,-0.08099 4.55165,2.19732 4.61088,3.86181c0.05231,1.46987 0.15983,4.49061 0.24782,6.96305z" data-paper-data="{&quot;index&quot;:null}" fill="#e9d18c" stroke-width="NaN"/><path d="M90.04229,216.39766c0.18588,2.01002 -1.65426,3.823 -3.35954,3.9807c-2.49451,0.23069 -9.65074,0.89248 -14.34355,1.32646c-2.51719,0.23279 -4.53794,-1.89608 -4.71313,-3.79056c-0.12633,-1.36618 -0.38994,-4.21661 -0.5782,-6.25232c-0.16764,-1.81277 1.65595,-3.82316 4.35686,-4.07293c4.47803,-0.41412 10.90345,-1.00833 13.42409,-1.24143c2.16367,-0.20009 4.4549,1.84746 4.60124,3.42997c0.12923,1.39748 0.39483,4.26943 0.61221,6.6201z" data-paper-data="{&quot;index&quot;:null}" fill="#e9d18c" stroke-width="NaN"/><path d="M118.92229,210.69284c0.18588,2.01002 -1.65426,3.823 -3.35954,3.9807c-2.49451,0.23069 -9.65074,0.89248 -14.34355,1.32646c-2.51719,0.23279 -4.53794,-1.89608 -4.71313,-3.79056c-0.12633,-1.36618 -0.38994,-4.21661 -0.5782,-6.25232c-0.16765,-1.81277 1.65595,-3.82316 4.35686,-4.07293c4.47803,-0.41412 10.90345,-1.00833 13.42409,-1.24143c2.16367,-0.20009 4.4549,1.84746 4.60124,3.42997c0.12923,1.39748 0.39483,4.26943 0.61221,6.6201z" data-paper-data="{&quot;index&quot;:null}" fill="#e9d18c" stroke-width="NaN"/><path d="M350.59507,22.7944c0.11151,1.78388 -1.56493,3.33996 -3.07837,3.43456c-2.21387,0.13839 -8.565,0.5354 -12.72985,0.79575c-2.234,0.13965 -3.96634,-1.79781 -4.07144,-3.47915c-0.07579,-1.21248 -0.23392,-3.74223 -0.34687,-5.54892c-0.10057,-1.60883 1.56644,-3.34004 3.96348,-3.48989c3.97424,-0.24844 9.67677,-0.60491 11.91383,-0.74474c1.92026,-0.12004 3.89414,1.75259 3.98192,3.15706c0.07753,1.24026 0.23686,3.78911 0.36727,5.87532z" data-paper-data="{&quot;index&quot;:null}" fill="#e9d18c" stroke-width="NaN"/></g></g></svg>