<svg version="1.1" xmlns="http://www.w3.org/2000/svg" xmlns:xlink="http://www.w3.org/1999/xlink" width="117.63248" height="147.17515" viewBox="0,0,117.63248,147.17515"><g transform="translate(-181.18375,-106.41245)"><g data-paper-data="{&quot;isPaintingLayer&quot;:true}" fill-rule="nonzero" stroke-miterlimit="10" stroke-dasharray="" stroke-dashoffset="0" style="mix-blend-mode: normal"><path d="M253.51664,224.19122c0,0 6.19989,9.3674 1.78959,12.89132c-2.36803,1.90289 -5.655,-1.86178 -6.56312,-3.22385c-1.31472,-1.97735 -1.74808,-2.45332 -2.02839,-4.93252c-0.27933,-2.47382 -1.39185,-11.57025 -0.94068,-14.86328c0.70963,-5.16031 3.95814,-13.74842 6.31427,-1.73013c0,0 0.7423,6.80617 1.33362,11.35553l0.09472,0.50294v0v0v0v0v0v0v0v0v0v0v0v0v0v0v0v0v0v0v0v0v0v0v0v0v0v0v0v0v0v0v0v0v0v0v0v0zM252.17516,222.30128l1.34149,1.88995" fill="#d27f54" stroke="none" stroke-width="0" stroke-linecap="round" stroke-linejoin="miter"/><path d="M249.83488,213.42495c-0.42648,3.09882 -1.56259,11.16886 -1.37994,12.76412l-0.26557,-0.65089c0.5449,1.68375 1.09569,4.07879 0.92091,6.56879c-0.33952,4.83422 -2.76676,7.42457 -5.34595,8.80727l-0.02961,0.15753l-2.21301,9.65129c0.04239,-0.00107 0.4185,0.02374 3.06586,0.30332c3.35404,0.35176 1.79254,2.56123 1.79254,2.56123l-6.25221,-0.12205l-0.31975,-0.00431l-12.63367,-0.2471c-0.15501,-0.56229 -0.03157,-2.30119 0.76895,-6.69936c0.30894,-1.72798 0.59515,-3.21427 0.84498,-4.4296l0.00197,-0.00863c-4.26817,-3.62752 -3.75583,-9.24115 -2.45488,-13.21299c0.82914,-2.54072 5.56214,-21.71921 5.56214,-21.71921c0,0 2.05713,-7.36523 10.57065,-4.80184c0,0 9.79973,1.78301 7.36757,11.0781c0,0.00324 -0.00098,0.00324 -0.00098,0.00431v0v0v0v0v0v0v0v0v0v0v0v0v0v0v0v0v0v0v0v0v0v0v0v0v0v0v0v0v0v0v0v0v0v0v0v0zM237.36802,237.31471c0,0 3.35344,-2.56884 7.2396,-4.27416M248.45396,226.19015c-0.22209,-1.1139 -1.5438,-3.08046 -1.5438,-3.08046" fill="#d27f54" stroke="none" stroke-width="0" stroke-linecap="round" stroke-linejoin="round"/><path d="M233.71192,217.05257l-3.23857,5.82942l0.01474,-0.10155c0.10465,4.09605 -0.149,11.20879 -3.13097,12.37447c-1.60596,0.62378 -5.38156,1.62762 -5.03811,-9.63942c0.2754,-9.07606 7.68645,-17.09647 10.55688,-19.86918c0,0 2.5545,1.55414 2.65522,4.55368c0.09963,3.00157 -1.82116,6.84825 -1.8192,6.85258v0v0v0v0v0v0v0v0v0v0v0v0v0v0v0v0v0v0v0v0v0v0v0v0v0v0v0v0v0v0v0v0v0v0v0v0zM230.4881,222.78046c0,-1.73769 -0.44024,-2.81695 -0.44024,-2.81695" fill="#d27f54" stroke="none" stroke-width="0" stroke-linecap="round" stroke-linejoin="miter"/><path d="M200.02687,144.85476c0,0 0.91795,-3.74895 8.7297,-11.71692c7.80782,-7.96403 16.26016,-10.70687 21.86578,-12.99635c5.60562,-2.28949 9.36932,-13.72904 9.36932,-13.72904c0,0 5.16144,6.39642 10.46599,12.21255c5.41314,5.93126 18.01818,11.12974 31.52535,24.67493c1.61186,1.62169 2.98197,3.31908 4.13392,5.06083l0.23389,0.20363c3.01648,2.60705 13.71745,13.00804 12.3444,28.15131c-1.04828,11.53787 -6.31339,15.18359 -8.86691,16.16207l-0.02075,0.08455c1.31483,-2.59525 2.09754,-5.34999 2.46776,-8.14592c1.22099,-9.24642 -3.78052,-15.2534 -6.98654,-23.29608c-4.15664,-10.42852 -15.52682,-16.29577 -30.24908,-16.00366c-28.02023,0.55265 -34.19139,16.24759 -34.19139,16.24759l-0.02075,0.20363c5.19793,9.61817 7.27384,30.95216 -3.36988,37.33678c-11.46489,6.86747 -28.4407,4.47082 -35.0521,-22.06482c-6.05176,-24.28537 12.069,-31.93664 17.39922,-31.87372l0.22209,-0.51136v0v0v0v0v0v0v0v0v0v0v0v0v0v0v0v0v0v0v0v0v0v0v0v0v0v0v0v0v0v0v0v0v0v0v0v0zM286.11593,148.36076c0,0 7.35173,11.63717 4.95902,26.01827M199.80478,145.36515c5.15456,0.13874 8.60932,3.81482 8.60932,3.81482M220.82656,161.96589c-0.86759,-1.34837 -1.47268,-2.4587 -1.47268,-2.4587" fill="#d14600" stroke="none" stroke-width="0" stroke-linecap="round" stroke-linejoin="miter"/><g stroke="none" stroke-width="0" stroke-linejoin="miter"><path d="M183.00869,179.60418v0v0v0v0v0v0v0v0v0v0v0v0v0v0v0v0v0v0v0v0v0v0v0v0v0v0v0v0v0v0v0v0v0v0v0v0v0c-1.18254,-4.55341 -2.21203,-11.65399 -1.26349,-17.17604c0.9752,-5.69716 4.3382,-9.38908 8.03974,-10.28399c6.93028,-1.68275 15.30757,8.27078 18.71798,22.22605c3.20995,13.15464 0.86956,25.1676 -5.21279,27.9183c0,0 -1.99191,0.25366 -6.01134,-1.94625c-4.01637,-2.1951 -7.48894,-5.96666 -8.90537,-8.40559c-1.42036,-2.43609 -4.17925,-7.77133 -5.36474,-12.33249z" fill="#404041" stroke-linecap="butt"/><path d="M187.31433,167.99934c2.66604,-1.13786 7.19082,3.43816 10.10768,10.225c2.9138,6.78193 3.11819,13.20872 0.45499,14.34559c-2.668,1.13589 -7.19082,-3.44209 -10.10571,-10.22686c-2.91872,-6.7839 -3.12114,-13.20587 -0.45696,-14.34373v0v0v0zM199.03977,191.4617c-10.97823,-6.93246 -10.85587,-23.63342 -10.85587,-23.63342" fill="#929497" stroke-linecap="round"/></g><path d="M216.54462,199.9312v0v0v0v0v0v0v0v0v0v0v0v0v0v0v0v0v0v0v0v0v0v0v0v0v0v0v0v0v0v0v0v0v0v0v0v0v0l-0.05921,-0.07483c0.32772,-0.17697 0.65152,-0.3618 0.97127,-0.55265c10.65749,-6.39248 8.55995,-27.77574 3.35011,-37.3713l0.0425,-0.16911c0,0 6.17127,-15.69691 34.1963,-16.2476c14.72237,-0.29211 26.09047,5.57514 30.24809,16.00366c3.20504,8.04268 8.20753,14.04966 6.98556,23.29608c-1.27638,9.6221 -7.44557,18.81346 -23.34054,22.56044c-15.89584,3.75976 -15.25524,1.74469 -20.58448,4.02631c-5.32727,2.29342 -5.60267,3.29942 -5.60267,3.29942c0,0 1.70668,-3.32793 -5.12091,-5.02839c-10.30912,-2.55996 -19.80177,-8.86779 -21.08601,-9.74205z" fill="#e8eae9" stroke="none" stroke-width="0" stroke-linecap="round" stroke-linejoin="miter"/><path d="M258.97253,195.31589c-12.41439,0.83484 -13.80086,-15.30933 -13.80086,-15.30933c0,0 7.09521,-0.22454 16.2515,-0.79288c9.15444,-0.56429 11.34926,0 11.34926,0c0,0 -1.38845,15.26354 -13.7999,16.10218v0v0v0z" fill="#ffffff" stroke="none" stroke-width="0" stroke-linecap="round" stroke-linejoin="miter"/><path d="M238.10146,164.19393c1.09788,0 2.09219,0.44461 2.81286,1.16178c0.71979,0.71805 1.16605,1.70865 1.16605,2.80249c0,1.09383 -0.44625,2.08455 -1.16605,2.80259c-0.72067,0.71717 -1.71498,1.16178 -2.81286,1.16178c-1.09788,0 -2.09219,-0.44461 -2.81286,-1.16178c-0.71979,-0.71805 -1.16605,-1.70876 -1.16605,-2.80259c0,-1.09383 0.44625,-2.08444 1.16605,-2.80249c0.72067,-0.71717 1.71498,-1.16178 2.81286,-1.16178v0v0z" fill="#ffffff" stroke="#000000" stroke-width="2.63981" stroke-linecap="butt" stroke-linejoin="miter"/><path d="M274.04192,163.92078c1.09788,0 2.09219,0.44461 2.81286,1.16178c0.71979,0.71805 1.16604,1.70865 1.16604,2.80249c0,1.09383 -0.44625,2.08454 -1.16604,2.80259c-0.72067,0.71717 -1.71498,1.16178 -2.81286,1.16178c-1.09788,0 -2.0922,-0.44462 -2.81286,-1.16178c-0.71979,-0.71805 -1.16604,-1.70875 -1.16604,-2.80259c0,-1.09383 0.44625,-2.08444 1.16604,-2.80249c0.72067,-0.71717 1.71498,-1.16178 2.81286,-1.16178v0v0z" fill="#ffffff" stroke="#000000" stroke-width="2.63981" stroke-linecap="butt" stroke-linejoin="miter"/></g></g></svg>