<svg version="1.1" xmlns="http://www.w3.org/2000/svg" xmlns:xlink="http://www.w3.org/1999/xlink" width="155.01201" height="71.544" viewBox="0,0,155.01201,71.544"><g transform="translate(-162.49399,-144.228)"><g data-paper-data="{&quot;isPaintingLayer&quot;:true}" fill-rule="nonzero" stroke="none" stroke-linejoin="miter" stroke-miterlimit="10" stroke-dasharray="" stroke-dashoffset="0" style="mix-blend-mode: normal"><path d="M162.49399,207.1c0,-15.39767 0,-46.66972 0,-54.92267c0,-3.91529 3.64948,-7.94933 7.94934,-7.94933c15.5113,0 108.45108,0 138.02934,0c5.68841,0 9.03333,4.24438 9.03333,8.31067c0,8.47827 0,40.26824 0,55.284c0,4.84946 -3.20355,7.94933 -8.672,7.94933c-29.17464,0 -122.81565,0 -138.39067,0c-4.29986,0 -7.94934,-3.40853 -7.94934,-8.672z" fill="#ffffff" stroke-width="0" stroke-linecap="butt"/><path d="M182.09959,163.95709c0.01816,0.10534 0.02724,0.20523 0.02724,0.29968c0,0.09444 -0.02724,0.19797 -0.08173,0.31057c-0.05449,0.10897 -0.12532,0.18888 -0.2125,0.23974c-0.14893,0.13077 -0.3251,0.19615 -0.52852,0.19615c-0.38504,0 -0.64476,-0.17254 -0.77916,-0.51762l-0.71377,-1.75991h-3.93391l-0.69743,1.74901c-0.1126,0.35234 -0.34508,0.52852 -0.69742,0.52852c-0.34871,0 -0.61025,-0.1453 -0.7846,-0.43589c-0.05812,-0.1126 -0.08718,-0.21613 -0.08718,-0.31057c0,-0.09444 0.02361,-0.2016 0.07083,-0.32147l2.89867,-7.12137c0.25064,-0.62114 0.56666,-0.98439 0.94806,-1.08973c0.07991,-0.0109 0.18707,-0.02906 0.32147,-0.05449c0.30876,0 0.53941,0.07083 0.69198,0.2125c0.20342,0.15256 0.40138,0.46313 0.5939,0.93172zM176.40576,161.29815h2.88778l-1.44934,-3.63969zM182.38012,161.66866c0,-0.95896 0.27425,-1.75809 0.82274,-2.3974c0.60298,-0.70106 1.38759,-1.05159 2.35381,-1.05159c0.81366,0 1.44389,0.17617 1.89067,0.52852c0.19252,0.13803 0.28878,0.31057 0.28878,0.51762c0,0.20342 -0.05993,0.36869 -0.1798,0.49583c-0.11624,0.12714 -0.25427,0.1907 -0.4141,0.1907c-0.15983,0 -0.28151,-0.03269 -0.36506,-0.09807c-0.35234,-0.19978 -0.7283,-0.29604 -1.12787,-0.28878c-0.49038,0 -0.87541,0.18344 -1.15511,0.55031c-0.33055,0.39957 -0.49583,0.91719 -0.49583,1.55286c0,0.59572 0.11987,1.09518 0.35961,1.49838c0.26153,0.42136 0.69198,0.63204 1.29133,0.63204c0.34145,0 0.76644,-0.12169 1.27498,-0.36506c0.2797,-0.16346 0.52489,-0.1235 0.73557,0.11987c0.11624,0.11624 0.17436,0.27425 0.17436,0.47403c0,0.19615 -0.09444,0.37051 -0.28333,0.52307c-0.18889,0.15256 -0.39593,0.26516 -0.62114,0.33781c-0.49764,0.17072 -0.9862,0.25427 -1.46568,0.25064c-0.47585,-0.00363 -0.90992,-0.09444 -1.30222,-0.27243c-0.3923,-0.18162 -0.71922,-0.44497 -0.98076,-0.79005c-0.53397,-0.63931 -0.80095,-1.44207 -0.80095,-2.4083zM192.92724,160.76964c0,-0.41046 -0.10897,-0.72648 -0.32692,-0.94806c-0.18889,-0.17799 -0.41954,-0.26699 -0.69197,-0.26699c-0.2688,0 -0.49764,0.03088 -0.68653,0.09263c-0.18889,0.06175 -0.35416,0.16346 -0.49583,0.30512c-0.30512,0.28696 -0.45769,0.70469 -0.45769,1.25319v3.06213c0,0.25064 -0.08718,0.43589 -0.26154,0.55576c-0.17072,0.11987 -0.35053,0.1798 -0.53941,0.1798c-0.20342,0 -0.37777,-0.0672 -0.52307,-0.2016c-0.14166,-0.1344 -0.2125,-0.31239 -0.2125,-0.53397v-7.82424c0,-0.25064 0.08536,-0.43589 0.25609,-0.55576c0.17072,-0.1235 0.34145,-0.18525 0.51217,-0.18525c0.18889,0 0.36324,0.05994 0.52307,0.17981c0.16346,0.11624 0.24519,0.30331 0.24519,0.56121l-0.17436,2.61534c-0.07991,-0.10897 0.11624,-0.28151 0.58845,-0.51762c0.4141,-0.21431 0.82456,-0.32147 1.23139,-0.32147c0.41046,0 0.75918,0.05086 1.04614,0.15256c0.28696,0.10171 0.55394,0.25063 0.80095,0.44679c0.49401,0.46858 0.74101,1.14058 0.74101,2.016v3.43264c0,0.25064 -0.09081,0.43589 -0.27243,0.55576c-0.17799,0.11987 -0.35416,0.1798 -0.52852,0.1798c-0.19978,0 -0.37959,-0.06538 -0.53941,-0.19615c-0.15619,-0.13077 -0.23429,-0.31057 -0.23429,-0.53941zM197.52948,156.50336c0,0.2579 -0.089,0.46677 -0.26699,0.62659c-0.17436,0.15983 -0.40501,0.23974 -0.69197,0.23974c-0.28696,0 -0.51944,-0.0781 -0.69742,-0.23429c-0.17799,-0.15983 -0.26699,-0.37051 -0.26699,-0.63204c0,-0.23248 0.089,-0.42863 0.26699,-0.58845c0.17799,-0.16346 0.41409,-0.24519 0.70832,-0.24519c0.29423,0 0.52489,0.08173 0.69198,0.24519c0.17072,0.16346 0.25609,0.35961 0.25609,0.58845zM195.80226,159.13505c0,-0.247 0.08173,-0.44134 0.24519,-0.583c0.16709,-0.1453 0.32328,-0.21795 0.46858,-0.21795c0.1453,0 0.26154,0.02179 0.34872,0.06538c0.08718,0.04359 0.16164,0.09444 0.22339,0.15256c0.18889,0.1235 0.28333,0.31784 0.28333,0.583v5.09992c0,0.2579 -0.08536,0.45042 -0.25608,0.57755c-0.17072,0.12714 -0.35234,0.1907 -0.54486,0.1907c-0.19615,0 -0.37414,-0.06538 -0.53397,-0.19615c-0.15619,-0.13077 -0.23429,-0.32147 -0.23429,-0.57211zM204.68166,161.48886c0,0.4032 -0.21976,0.62296 -0.65928,0.65929h-4.10827c0.03269,0.76281 0.39412,1.28225 1.08428,1.55831c0.18525,0.06175 0.40865,0.09263 0.67018,0.09263c0.5376,0 1.09517,-0.20342 1.67273,-0.61025c0.32329,-0.18525 0.6048,-0.16165 0.84454,0.07083c0.14166,0.15256 0.18889,0.30149 0.14166,0.44679c0,0.20342 -0.0672,0.36506 -0.2016,0.48493c-0.63931,0.63567 -1.48021,0.94988 -2.52272,0.94262c-0.95896,0 -1.73266,-0.31239 -2.32112,-0.93717c-0.65383,-0.64294 -0.98076,-1.48566 -0.98076,-2.52817c0,-0.95533 0.26699,-1.74901 0.80095,-2.38105c0.57392,-0.71195 1.37487,-1.06793 2.40285,-1.06793c1.02797,0 1.81802,0.31602 2.37015,0.94806c0.5158,0.56303 0.7846,1.33673 0.8064,2.32112zM203.14514,160.91675c-0.01816,-0.30512 -0.17435,-0.61933 -0.46858,-0.94262c-0.26517,-0.2797 -0.65565,-0.41955 -1.17145,-0.41955c-0.42862,0 -0.7955,0.15983 -1.10062,0.47948c-0.28333,0.33055 -0.43407,0.62478 -0.45224,0.88268zM209.24857,164.08785c-0.12714,0.29423 -0.27425,0.52125 -0.44134,0.68108c-0.16346,0.15619 -0.39412,0.23429 -0.69197,0.23429c-0.30149,0 -0.5376,-0.07628 -0.70832,-0.22884c-0.16709,-0.15619 -0.29968,-0.38867 -0.39775,-0.69742l-1.9942,-4.68583c-0.17436,-0.31965 -0.09807,-0.59935 0.22884,-0.83909c0.14166,-0.10897 0.29786,-0.18162 0.46858,-0.21795c0.39957,0 0.6502,0.18344 0.75191,0.55031l1.64549,3.94481l1.591,-3.95571c0.11624,-0.32329 0.33963,-0.50309 0.67018,-0.53941c0.33418,0 0.583,0.13622 0.74646,0.40865c0.08355,0.12714 0.11442,0.24156 0.09263,0.34326c-0.01816,0.10171 -0.03996,0.19434 -0.06538,0.27788zM217.87665,161.48886c0,0.4032 -0.21976,0.62296 -0.65928,0.65929h-4.10827c0.03269,0.76281 0.39412,1.28225 1.08428,1.55831c0.18525,0.06175 0.40865,0.09263 0.67018,0.09263c0.5376,0 1.09518,-0.20342 1.67273,-0.61025c0.32329,-0.18525 0.6048,-0.16165 0.84454,0.07083c0.14166,0.15256 0.18889,0.30149 0.14166,0.44679c0,0.20342 -0.0672,0.36506 -0.2016,0.48493c-0.63931,0.63567 -1.48021,0.94988 -2.52272,0.94262c-0.95896,0 -1.73266,-0.31239 -2.32111,-0.93717c-0.65383,-0.64294 -0.98076,-1.48566 -0.98076,-2.52817c0,-0.95533 0.26698,-1.74901 0.80095,-2.38105c0.57392,-0.71195 1.37487,-1.06793 2.40285,-1.06793c1.02797,0 1.81803,0.31602 2.37016,0.94806c0.5158,0.56303 0.7846,1.33673 0.8064,2.32112zM216.34014,160.91675c-0.01816,-0.30512 -0.17435,-0.61933 -0.46858,-0.94262c-0.26517,-0.2797 -0.65565,-0.41955 -1.17146,-0.41955c-0.42862,0 -0.7955,0.15983 -1.10062,0.47948c-0.28333,0.33055 -0.43407,0.62478 -0.45224,0.88268zM224.13264,159.39113c0.38141,-0.78097 1.10789,-1.17145 2.17945,-1.17145c1.12242,0 1.87433,0.47948 2.25573,1.43844c0.13077,0.34145 0.19615,0.73375 0.19615,1.17691v3.43264c0,0.247 -0.08354,0.43226 -0.25063,0.55576c-0.16709,0.11987 -0.33963,0.1798 -0.51762,0.1798c-0.19615,0 -0.37777,-0.06357 -0.54486,-0.1907c-0.16346,-0.13077 -0.24519,-0.31239 -0.24519,-0.54486v-3.49802c0,-0.41046 -0.10898,-0.72648 -0.32692,-0.94806c-0.19615,-0.17799 -0.46132,-0.26699 -0.7955,-0.26699c-0.6829,0 -1.14603,0.27425 -1.3894,0.82275c-0.09807,0.21068 -0.14711,0.4704 -0.14711,0.77915v3.11117c0,0.247 -0.08355,0.43226 -0.25064,0.55576c-0.16709,0.11987 -0.33963,0.1798 -0.51762,0.1798c-0.19978,0 -0.38141,-0.06538 -0.54486,-0.19615c-0.15983,-0.13077 -0.23974,-0.31057 -0.23974,-0.53941v-3.49802c0,-0.4141 -0.10534,-0.73012 -0.31602,-0.94806c-0.19615,-0.17799 -0.43407,-0.26699 -0.71377,-0.26699c-0.27606,0 -0.50309,0.03088 -0.68108,0.09263c-0.17799,0.06175 -0.33782,0.16164 -0.47948,0.29968c-0.28696,0.29059 -0.43952,0.7065 -0.45769,1.24773v3.07303c0,0.25064 -0.08718,0.43589 -0.26153,0.55576c-0.17072,0.11987 -0.3469,0.1798 -0.52852,0.1798c-0.17799,0 -0.35234,-0.06357 -0.52307,-0.1907c-0.17072,-0.12714 -0.25608,-0.30876 -0.25608,-0.54486v-5.18165c0,-0.23248 0.08355,-0.41591 0.25064,-0.55031c0.17072,-0.1344 0.33236,-0.2016 0.48493,-0.2016c0.15256,0 0.2688,0.01998 0.34871,0.05993c0.07991,0.03996 0.15075,0.07992 0.2125,0.11987c0.18162,0.15256 0.27243,0.33782 0.27243,0.55576h-0.17436c-0.07991,-0.11624 0.10897,-0.29241 0.56666,-0.52852c0.3923,-0.21431 0.84999,-0.32147 1.37306,-0.32147c0.8173,0 1.44934,0.26698 1.89612,0.80095c0.1453,0.19615 0.18707,0.31965 0.12532,0.37051zM236.05785,161.48886c0,0.4032 -0.21976,0.62296 -0.65928,0.65929h-4.10827c0.03269,0.76281 0.39412,1.28225 1.08428,1.55831c0.18525,0.06175 0.40865,0.09263 0.67018,0.09263c0.5376,0 1.09518,-0.20342 1.67273,-0.61025c0.32329,-0.18525 0.6048,-0.16165 0.84454,0.07083c0.14166,0.15256 0.18889,0.30149 0.14166,0.44679c0,0.20342 -0.0672,0.36506 -0.2016,0.48493c-0.63931,0.63567 -1.48021,0.94988 -2.52272,0.94262c-0.95896,0 -1.73266,-0.31239 -2.32112,-0.93717c-0.65383,-0.64294 -0.98076,-1.48566 -0.98076,-2.52817c0,-0.95533 0.26698,-1.74901 0.80095,-2.38105c0.57392,-0.71195 1.37487,-1.06793 2.40285,-1.06793c1.02797,0 1.81803,0.31602 2.37016,0.94806c0.5158,0.56303 0.7846,1.33673 0.8064,2.32112zM234.52133,160.91675c-0.01816,-0.30512 -0.17435,-0.61933 -0.46858,-0.94262c-0.26517,-0.2797 -0.65565,-0.41955 -1.17146,-0.41955c-0.42862,0 -0.7955,0.15983 -1.10062,0.47948c-0.28333,0.33055 -0.43408,0.62478 -0.45224,0.88268zM236.99052,159.08601c0,-0.22884 0.08355,-0.41047 0.25064,-0.54486c0.16709,-0.13803 0.33963,-0.20705 0.51762,-0.20705c0.35961,0 0.58663,0.12714 0.68108,0.38141c0.09444,0.25427 0.02724,0.56484 -0.2016,0.93172c-0.02543,-0.45405 0.20705,-0.81548 0.69742,-1.08428c0.41773,-0.22884 0.83001,-0.34326 1.23684,-0.34326c0.41046,0 0.76099,0.05267 1.05159,0.15801c0.29059,0.10171 0.55758,0.26154 0.80095,0.47948c0.49038,0.46495 0.73557,1.13513 0.73557,2.01055v3.39995c0,0.25064 -0.09081,0.43589 -0.27243,0.55576c-0.17799,0.11987 -0.35416,0.1798 -0.52852,0.1798c-0.19978,0 -0.37959,-0.06538 -0.53941,-0.19615c-0.15619,-0.13077 -0.23429,-0.31057 -0.23429,-0.53941v-3.46533c0,-0.42136 -0.10898,-0.73738 -0.32692,-0.94806c-0.20342,-0.19978 -0.45769,-0.29968 -0.76281,-0.29968c-0.44316,0 -0.81911,0.12532 -1.12787,0.37596c-0.29423,0.26153 -0.44134,0.68108 -0.44134,1.25864v3.07848c0,0.25064 -0.08718,0.43589 -0.26153,0.55576c-0.17072,0.11987 -0.35053,0.1798 -0.53941,0.1798c-0.20342,0 -0.37777,-0.0672 -0.52307,-0.2016c-0.14166,-0.1344 -0.2125,-0.31239 -0.2125,-0.53397zM247.84234,164.36029c0,0.5158 -0.47585,0.77371 -1.42754,0.77371c-0.6611,0 -1.13876,-0.19434 -1.43299,-0.583c-0.29059,-0.37777 -0.4486,-0.97894 -0.47403,-1.8035v-3.08393h-0.41955c-0.21068,0 -0.3814,-0.06901 -0.51217,-0.20705c-0.12714,-0.13803 -0.1907,-0.28878 -0.1907,-0.45224c0,-0.14893 0.05449,-0.29786 0.16346,-0.44679c0.1126,-0.14893 0.29241,-0.2234 0.53941,-0.2234h0.49583l0.04904,-1.47113c0.03632,-0.21794 0.13077,-0.38322 0.28333,-0.49583c0.15619,-0.1126 0.32147,-0.16891 0.49583,-0.16891c0.17436,0 0.32874,0.05994 0.46313,0.17981c0.1344,0.11624 0.2016,0.28696 0.2016,0.51217v1.44389h0.81729c0.22158,0 0.3923,0.07447 0.51217,0.2234c0.11987,0.1453 0.1798,0.29422 0.1798,0.44679c0,0.18889 -0.06357,0.3469 -0.1907,0.47403c-0.1235,0.1235 -0.29059,0.18525 -0.50127,0.18525h-0.81729v2.54996c0,0.75918 0.01816,1.19688 0.05449,1.31312c0.03996,0.1126 0.09081,0.18707 0.15256,0.22339c0.06175,0.03269 0.15074,0.04904 0.26698,0.04904l0.62114,-0.04904c0.21794,0 0.38322,0.06901 0.49583,0.20705c0.11624,0.13803 0.17436,0.27243 0.17436,0.4032zM257.35047,164.26766c0,0.25064 -0.09081,0.43589 -0.27243,0.55576c-0.17799,0.11987 -0.32873,0.1798 -0.45224,0.1798c-0.11987,0 -0.23248,-0.01271 -0.33782,-0.03814c-0.10534,-0.02906 -0.1907,-0.08355 -0.25608,-0.16346c-0.17072,-0.11624 -0.25609,-0.29423 -0.25609,-0.53397h0.16891c-0.03996,0.36324 -0.44679,0.62296 -1.22049,0.77916c-0.23248,0.05812 -0.48675,0.08718 -0.76281,0.08718c-0.27243,0 -0.56121,-0.04904 -0.86634,-0.14711c-0.30512,-0.10171 -0.56847,-0.26335 -0.79005,-0.48493c-0.48311,-0.45769 -0.72467,-1.13513 -0.72467,-2.03234v-3.36726c0,-0.23611 0.0781,-0.42318 0.23429,-0.56121c0.15619,-0.13803 0.33418,-0.20705 0.53397,-0.20705c0.19978,0 0.37778,0.06901 0.53397,0.20705c0.15619,0.13803 0.23429,0.3251 0.23429,0.56121v3.44899c0,0.49401 0.08718,0.82456 0.26154,0.99165c0.18162,0.17072 0.46858,0.25609 0.86088,0.25609c0.66837,0 1.12787,-0.26698 1.37851,-0.80095c0.09807,-0.18889 0.15074,-0.40502 0.15801,-0.64839v-3.24739c0,-0.24337 0.08355,-0.43226 0.25064,-0.56666c0.17072,-0.1344 0.35598,-0.2016 0.55576,-0.2016c0.19978,0 0.37777,0.06901 0.53397,0.20705c0.15619,0.13803 0.23429,0.3251 0.23429,0.56121zM258.65084,159.08601c0,-0.22884 0.08355,-0.41047 0.25064,-0.54486c0.16709,-0.13803 0.33963,-0.20705 0.51762,-0.20705c0.35961,0 0.58663,0.12714 0.68108,0.38141c0.09444,0.25427 0.02724,0.56484 -0.2016,0.93172c-0.02543,-0.45405 0.20704,-0.81548 0.6974,-1.08428c0.41773,-0.22884 0.83001,-0.34326 1.23684,-0.34326c0.41046,0 0.76099,0.05267 1.05159,0.15801c0.29059,0.10171 0.55758,0.26154 0.80095,0.47948c0.49038,0.46495 0.73557,1.13513 0.73557,2.01055v3.39995c0,0.25064 -0.09081,0.43589 -0.27243,0.55576c-0.17799,0.11987 -0.35416,0.1798 -0.52852,0.1798c-0.19978,0 -0.37959,-0.06538 -0.53941,-0.19615c-0.15619,-0.13077 -0.23429,-0.31057 -0.23429,-0.53941v-3.46533c0,-0.42136 -0.10898,-0.73738 -0.32692,-0.94806c-0.20342,-0.19978 -0.45769,-0.29968 -0.76281,-0.29968c-0.44316,0 -0.81911,0.12532 -1.12787,0.37596c-0.29421,0.26153 -0.44132,0.68108 -0.44132,1.25864v3.07848c0,0.25064 -0.08718,0.43589 -0.26154,0.55576c-0.17072,0.11987 -0.35053,0.1798 -0.53941,0.1798c-0.20342,0 -0.37777,-0.0672 -0.52307,-0.2016c-0.14166,-0.1344 -0.2125,-0.31239 -0.2125,-0.53397zM265.72129,156.47611c0,-0.27243 0.08536,-0.46858 0.25609,-0.58845c0.17072,-0.1235 0.31784,-0.18525 0.44134,-0.18525c0.12714,0 0.23611,0.00908 0.32692,0.02724c0.09444,0.01816 0.18162,0.0672 0.26153,0.14711c0.18889,0.11987 0.28333,0.31965 0.28333,0.59935v7.75886c0,0.2579 -0.08536,0.45042 -0.25609,0.57755c-0.17072,0.12714 -0.35234,0.1907 -0.54486,0.1907c-0.19615,0 -0.37414,-0.06538 -0.53397,-0.19615c-0.15619,-0.13077 -0.23429,-0.32147 -0.23429,-0.57211zM268.17131,161.68501c0,-0.4141 0.0672,-0.83001 0.2016,-1.24774c0.1344,-0.41773 0.33964,-0.7955 0.6157,-1.13331c0.59572,-0.72285 1.42936,-1.08428 2.50092,-1.08428c1.0752,0 1.90884,0.36324 2.50092,1.08973c0.54486,0.66837 0.8173,1.45479 0.8173,2.35926c0,0.91174 -0.27243,1.69816 -0.8173,2.35926c-0.59208,0.73738 -1.42573,1.10607 -2.50092,1.10607c-1.07156,0 -1.90521,-0.36688 -2.50092,-1.10062c-0.54486,-0.65383 -0.8173,-1.43662 -0.8173,-2.34836zM269.78955,161.68501c0,0.23248 0.03088,0.47766 0.09263,0.73557c0.06538,0.2579 0.17799,0.49583 0.33781,0.71377c0.30876,0.44316 0.73193,0.66473 1.26953,0.66473c0.57029,0 0.99165,-0.21613 1.26408,-0.64839c0.2797,-0.44316 0.41955,-0.93717 0.41955,-1.48203c0,-0.55939 -0.13803,-1.04069 -0.4141,-1.44389c-0.28696,-0.44679 -0.71014,-0.67018 -1.26953,-0.67018c-0.5376,0 -0.96078,0.22703 -1.26953,0.68108c-0.28696,0.38867 -0.43044,0.87178 -0.43044,1.44934zM275.27415,161.66866c0,-0.95896 0.27425,-1.75809 0.82275,-2.3974c0.60298,-0.70106 1.38758,-1.05159 2.35381,-1.05159c0.81366,0 1.44389,0.17617 1.89068,0.52852c0.19252,0.13803 0.28878,0.31057 0.28878,0.51762c0,0.20342 -0.05994,0.36869 -0.17981,0.49583c-0.11624,0.12714 -0.25427,0.1907 -0.4141,0.1907c-0.15983,0 -0.28151,-0.03269 -0.36506,-0.09807c-0.35234,-0.19978 -0.7283,-0.29604 -1.12787,-0.28878c-0.49038,0 -0.87541,0.18344 -1.15511,0.55031c-0.33055,0.39957 -0.49583,0.91719 -0.49583,1.55286c0,0.59572 0.11987,1.09518 0.35961,1.49838c0.26153,0.42136 0.69197,0.63204 1.29132,0.63204c0.34145,0 0.76644,-0.12169 1.27498,-0.36506c0.2797,-0.16346 0.52488,-0.1235 0.73556,0.11987c0.11624,0.11624 0.17436,0.27425 0.17436,0.47403c0,0.19615 -0.09444,0.37051 -0.28333,0.52307c-0.18889,0.15256 -0.39593,0.26516 -0.62114,0.33781c-0.49764,0.17072 -0.9862,0.25427 -1.46568,0.25064c-0.47585,-0.00363 -0.90992,-0.09444 -1.30222,-0.27243c-0.3923,-0.18162 -0.71922,-0.44497 -0.98075,-0.79005c-0.53397,-0.63931 -0.80095,-1.44207 -0.80095,-2.4083zM283.22773,162.15904v2.07593c0,0.25427 -0.08355,0.44679 -0.25064,0.57755c-0.16346,0.12714 -0.34145,0.1907 -0.53397,0.1907c-0.18889,0 -0.36324,-0.06538 -0.52307,-0.19615c-0.15619,-0.13077 -0.23429,-0.32147 -0.23429,-0.57211v-7.75886c0,-0.2688 0.07992,-0.46495 0.23974,-0.58845c0.15983,-0.1235 0.30875,-0.18525 0.44679,-0.18525c0.13803,0 0.25609,0.00908 0.35416,0.02724c0.10171,0.01816 0.19434,0.07265 0.27788,0.16346c0.14893,0.1235 0.22339,0.31784 0.22339,0.583v4.01019l2.28298,-1.91247c0.14166,-0.15983 0.31057,-0.23974 0.50672,-0.23974c0.19252,0 0.36324,0.07083 0.51217,0.2125c0.14893,0.13803 0.22339,0.28696 0.22339,0.44679c0,0.23611 -0.0781,0.41228 -0.23429,0.52852l-2.13042,1.7817l2.47913,2.50637c0.11624,0.11624 0.17436,0.25245 0.17436,0.40865c0,0.15619 -0.02542,0.27788 -0.07628,0.36506c-0.04722,0.08718 -0.11079,0.16346 -0.1907,0.22884c-0.15983,0.12714 -0.33055,0.1907 -0.51217,0.1907c-0.18162,0 -0.35416,-0.08173 -0.51762,-0.24519zM293.67972,161.48886c0,0.4032 -0.21976,0.62296 -0.65928,0.65929h-4.10827c0.03269,0.76281 0.39412,1.28225 1.08428,1.55831c0.18525,0.06175 0.40865,0.09263 0.67018,0.09263c0.5376,0 1.09518,-0.20342 1.67273,-0.61025c0.32329,-0.18525 0.6048,-0.16165 0.84454,0.07083c0.14166,0.15256 0.18889,0.30149 0.14166,0.44679c0,0.20342 -0.0672,0.36506 -0.2016,0.48493c-0.63931,0.63567 -1.48021,0.94988 -2.52272,0.94262c-0.95896,0 -1.73266,-0.31239 -2.32112,-0.93717c-0.65383,-0.64294 -0.98076,-1.48566 -0.98076,-2.52817c0,-0.95533 0.26698,-1.74901 0.80095,-2.38105c0.57392,-0.71195 1.37487,-1.06793 2.40285,-1.06793c1.02797,0 1.81803,0.31602 2.37016,0.94806c0.5158,0.56303 0.7846,1.33673 0.8064,2.32112zM292.14321,160.91675c-0.01816,-0.30512 -0.17435,-0.61933 -0.46858,-0.94262c-0.26517,-0.2797 -0.65565,-0.41955 -1.17146,-0.41955c-0.42862,0 -0.7955,0.15983 -1.10062,0.47948c-0.28333,0.33055 -0.43407,0.62478 -0.45224,0.88268zM299.04758,164.26766c-0.31239,0.57755 -0.97894,0.86634 -1.99965,0.86634c-0.93353,0 -1.66546,-0.37414 -2.1958,-1.12242c-0.43952,-0.6502 -0.65929,-1.43118 -0.65929,-2.34292c0,-1.54741 0.5267,-2.59537 1.5801,-3.14386c0.35961,-0.20342 0.71922,-0.30512 1.07883,-0.30512c0.36324,0 0.66292,0.02179 0.89903,0.06538c0.23611,0.03996 0.46313,0.11987 0.68108,0.23974c0.45042,0.22521 0.65747,0.38141 0.62114,0.46858l-0.11442,-2.54996c0,-0.26153 0.08718,-0.45042 0.26154,-0.56666c0.17436,-0.11624 0.35416,-0.17436 0.53941,-0.17436c0.19615,0 0.37232,0.05994 0.52852,0.17981c0.15983,0.11624 0.23974,0.30331 0.23974,0.56121v7.82424c0,0.247 -0.08536,0.43226 -0.25609,0.55576c-0.17072,0.11987 -0.32147,0.1798 -0.45224,0.1798c-0.12714,0 -0.23974,-0.01271 -0.33782,-0.03814c-0.09807,-0.02906 -0.18525,-0.08173 -0.26153,-0.15801c-0.17436,-0.11987 -0.26154,-0.29968 -0.26154,-0.53941zM297.23863,163.79908c1.11152,0 1.66728,-0.74283 1.66728,-2.22849c0,-0.95896 -0.27243,-1.57828 -0.8173,-1.85798c-0.20705,-0.10534 -0.45768,-0.15801 -0.75191,-0.15801c-0.29059,0 -0.52852,0.05449 -0.71377,0.16346c-0.18162,0.10534 -0.33418,0.25245 -0.45769,0.44134c-0.23611,0.37051 -0.35416,0.84635 -0.35416,1.42754c0,0.87178 0.19797,1.50564 0.5939,1.90158c0.19978,0.20705 0.47766,0.31057 0.83364,0.31057zM301.85691,159.18408c0,-0.39593 0.18707,-0.67381 0.56121,-0.83364c0.10897,-0.03269 0.23974,-0.04904 0.3923,-0.04904c0.15256,0 0.28333,0.02361 0.3923,0.07083c0.10897,0.04722 0.20705,0.1126 0.29423,0.19615c0.18525,0.17436 0.2688,0.38322 0.25064,0.62659c0,0.37777 -0.18162,0.63931 -0.54486,0.7846c-0.10534,0.04359 -0.23066,0.07083 -0.37596,0.08173c-0.1453,0.00727 -0.27243,-0.0109 -0.3814,-0.05449c-0.10897,-0.04722 -0.21431,-0.10352 -0.31602,-0.16891c-0.18162,-0.19978 -0.27243,-0.41773 -0.27243,-0.65384zM301.91684,164.45836c-0.03996,-0.11624 -0.05993,-0.22884 -0.05993,-0.33781c0,-0.10897 0.01998,-0.21795 0.05993,-0.32692c0.04359,-0.10897 0.11079,-0.20523 0.2016,-0.28878c0.09444,-0.08355 0.19797,-0.14893 0.31057,-0.19615c0.11624,-0.04722 0.247,-0.07083 0.3923,-0.07083c0.1453,0 0.27243,0.02361 0.38141,0.07083c0.10897,0.04722 0.20705,0.11442 0.29423,0.2016c0.09081,0.08718 0.15438,0.18525 0.1907,0.29423c0.03996,0.10534 0.05993,0.21249 0.05993,0.32147c0,0.10534 -0.01998,0.21432 -0.05993,0.32692c-0.03632,0.1126 -0.09989,0.20886 -0.1907,0.28878c-0.09081,0.07991 -0.1907,0.14348 -0.29968,0.1907c-0.10534,0.04722 -0.23066,0.07083 -0.37596,0.07083c-0.1453,0 -0.27425,-0.02179 -0.38685,-0.06538c-0.1126,-0.04722 -0.21613,-0.10897 -0.31057,-0.18525c-0.09444,-0.07991 -0.16346,-0.17799 -0.20705,-0.29423z" fill="#000000" stroke-width="1" stroke-linecap="square"/><path d="M185.55518,181.90171c0,-0.58632 0.20039,-1.06502 0.60117,-1.43612c0.35624,-0.35624 0.76445,-0.56777 1.2246,-0.63457c0.83866,0 1.4955,0.32656 1.97049,0.97967l8.42748,12.69132v-12.02336c0,-0.51953 0.12246,-0.90175 0.36739,-1.14668c0.3711,-0.33399 0.72363,-0.50098 1.05761,-0.50098c0.33399,0 0.60488,0.03711 0.81269,0.11132c0.21523,0.06679 0.38223,0.167 0.50098,0.30059c0.39335,0.27461 0.57148,0.69394 0.53437,1.258v15.34091c0,0.91288 -0.43418,1.55115 -1.30254,1.91483c-0.23008,0.09648 -0.50469,0.14473 -0.82382,0.14473c-0.71249,0 -1.33222,-0.32286 -1.85917,-0.96854l-8.20482,-12.49094v11.88976c0,0.49725 -0.15957,0.87207 -0.4787,1.1244c-0.3711,0.29687 -0.76815,0.44531 -1.1912,0.44531c-0.41562,0 -0.79414,-0.12989 -1.13555,-0.38965c-0.33399,-0.26719 -0.50098,-0.66055 -0.50098,-1.18007zM210.51558,190.15105c0.46758,0 0.73105,0 0.79042,0v-0.42305c0,-1.30624 -0.75333,-1.95936 -2.25996,-1.95936c-0.77929,0 -1.33222,0.06309 -1.65878,0.18926c-0.66796,0.24493 -1.16893,0.47129 -1.50292,0.6791c-0.33399,0.20038 -0.65683,0.30059 -0.96854,0.30059c-0.30429,0 -0.59375,-0.11875 -0.86835,-0.35624c-0.27461,-0.23749 -0.41192,-0.55292 -0.41192,-0.94627c0,-0.35624 0.16328,-0.67539 0.48984,-0.95742c1.13555,-1.09101 2.78689,-1.63651 4.95407,-1.63651c2.57537,0 4.24157,0.89804 4.9986,2.69412c0.24493,0.62343 0.36739,1.33222 0.36739,2.12635l-0.06679,7.57026c0,0.47499 -0.16328,0.83866 -0.48984,1.09101c-0.32656,0.25234 -0.67167,0.37851 -1.03534,0.37851c-0.36367,0 -0.71249,-0.10761 -1.04646,-0.32286c-0.33399,-0.22265 -0.50098,-0.59744 -0.50098,-1.1244h0.33397c-0.08163,0.69766 -0.89062,1.20976 -2.42694,1.53632c-0.45273,0.11875 -0.96854,0.17811 -1.54745,0.17811c-0.5789,0 -1.16151,-0.08907 -1.74784,-0.26718c-0.5789,-0.1707 -1.09472,-0.44532 -1.54744,-0.82383c-0.95,-0.79414 -1.425,-1.86287 -1.425,-3.20623c0,-3.14685 2.52342,-4.72027 7.57026,-4.72027zM211.43961,192.745c-0.02227,0.08907 -0.26719,0.13359 -0.73477,0.13359c-0.46758,0 -0.93144,0.00742 -1.3916,0.02227c-0.46014,0.00742 -0.88691,0.05567 -1.28026,0.14473c-0.38594,0.08163 -0.73105,0.20781 -1.03534,0.37851c-0.54921,0.28945 -0.83867,0.76445 -0.86835,1.425c0,0.48242 0.20409,0.86464 0.6123,1.14668c0.3414,0.28203 0.8498,0.43046 1.52519,0.44531c0.83124,0 1.54744,-0.26347 2.14862,-0.79042c0.53437,-0.49725 0.83124,-1.27285 0.89063,-2.32675zM224.76757,197.58774c0,1.0539 -0.97226,1.58085 -2.91677,1.58085c-1.35077,0 -2.32675,-0.39706 -2.92791,-1.1912c-0.59375,-0.77187 -0.9166,-2.00017 -0.96854,-3.68493v-6.30113h-0.85722c-0.43046,0 -0.77929,-0.14101 -1.04646,-0.42305c-0.25976,-0.28203 -0.38965,-0.59003 -0.38965,-0.92401c0,-0.30429 0.11132,-0.60859 0.33397,-0.9129c0.23008,-0.30429 0.59744,-0.45643 1.10213,-0.45643h1.01309l0.10019,-3.00584c0.07422,-0.44531 0.26719,-0.78301 0.57891,-1.01309c0.31914,-0.23008 0.65683,-0.34512 1.01307,-0.34512c0.35624,0 0.67167,0.12246 0.94627,0.36739c0.27461,0.23749 0.41192,0.58632 0.41192,1.04649v2.95018h1.6699c0.45273,0 0.80156,0.15215 1.04649,0.45643c0.24493,0.29687 0.36739,0.60118 0.36739,0.9129c0,0.38594 -0.12989,0.70878 -0.38965,0.96854c-0.25234,0.25234 -0.59375,0.37851 -1.02421,0.37851h-1.6699v5.21012c0,1.55115 0.03711,2.44549 0.11132,2.68299c0.08163,0.23008 0.18554,0.38223 0.31172,0.45643c0.12617,0.06679 0.30801,0.10019 0.54551,0.10019l1.26914,-0.10019c0.44531,0 0.78299,0.14101 1.01307,0.42305c0.23749,0.28203 0.35624,0.55663 0.35624,0.82382zM237.61029,197.39848c0,0.51211 -0.18554,0.89063 -0.55663,1.13555c-0.36367,0.24493 -0.67167,0.36739 -0.92402,0.36739c-0.24493,0 -0.475,-0.02598 -0.69022,-0.07794c-0.21523,-0.05938 -0.38965,-0.1707 -0.52324,-0.33399c-0.34883,-0.23749 -0.52324,-0.60117 -0.52324,-1.09101h0.34512c-0.08163,0.74218 -0.9129,1.27285 -2.49373,1.59198c-0.47499,0.11875 -0.99453,0.17811 -1.55859,0.17811c-0.55663,0 -1.14668,-0.10019 -1.7701,-0.30057c-0.62343,-0.20781 -1.16151,-0.53809 -1.61425,-0.99082c-0.9871,-0.93515 -1.48066,-2.31932 -1.48066,-4.15251v-6.88004c0,-0.48242 0.15957,-0.86464 0.4787,-1.14668c0.31914,-0.28203 0.6828,-0.42305 1.09101,-0.42305c0.40821,0 0.77186,0.14101 1.09101,0.42305c0.31914,0.28203 0.4787,0.66426 0.4787,1.14668v7.04702c0,1.00938 0.17813,1.68476 0.53437,2.02616c0.3711,0.34883 0.95742,0.52324 1.75897,0.52324c1.36562,0 2.30448,-0.54551 2.81658,-1.63652c0.20038,-0.38594 0.30801,-0.82753 0.32284,-1.32479v-6.63511c0,-0.49725 0.1707,-0.8832 0.5121,-1.1578c0.34883,-0.27461 0.72734,-0.41191 1.13555,-0.41191c0.40821,0 0.77186,0.14101 1.09101,0.42305c0.31914,0.28203 0.4787,0.66426 0.4787,1.14668zM242.81661,187.95791c0.24493,-1.94452 1.39158,-2.91677 3.44001,-2.91677c0.50469,0 0.89063,0.15586 1.1578,0.46758c0.27461,0.30429 0.41191,0.63456 0.41191,0.99082c0,0.35624 -0.1373,0.69024 -0.41191,1.00194c-0.26719,0.30429 -0.6457,0.45643 -1.13555,0.45643c-0.48242,0 -0.90175,0.07051 -1.25799,0.21153c-0.35624,0.14101 -0.64199,0.33768 -0.85722,0.59003c-0.50469,0.616 -0.75703,1.43984 -0.75703,2.47146v6.16754c0,0.51211 -0.17813,0.89063 -0.53437,1.13555c-0.34883,0.24493 -0.65683,0.36739 -0.92402,0.36739c-0.26719,0 -0.49356,-0.02598 -0.6791,-0.07794c-0.17813,-0.05938 -0.34512,-0.16699 -0.50098,-0.32284c-0.33399,-0.21523 -0.50098,-0.58261 -0.50098,-1.10213v-10.55383c0,-0.45273 0.15586,-0.82753 0.46758,-1.1244c0.31914,-0.29687 0.70878,-0.44531 1.16893,-0.44531c0.46014,0 0.82382,0.15586 1.09101,0.46758c0.27461,0.30429 0.41192,0.67167 0.41192,1.10213zM255.59125,190.15105c0.46758,0 0.73105,0 0.79043,0v-0.42305c0,-1.30624 -0.75333,-1.95936 -2.25996,-1.95936c-0.77929,0 -1.33222,0.06309 -1.65878,0.18926c-0.66796,0.24493 -1.16893,0.47129 -1.50292,0.6791c-0.33399,0.20038 -0.65683,0.30059 -0.96854,0.30059c-0.30429,0 -0.59375,-0.11875 -0.86835,-0.35624c-0.27461,-0.23749 -0.41191,-0.55292 -0.41191,-0.94627c0,-0.35624 0.16328,-0.67539 0.48984,-0.95742c1.13555,-1.09101 2.78689,-1.63651 4.95407,-1.63651c2.57537,0 4.24157,0.89804 4.9986,2.69412c0.24493,0.62343 0.36739,1.33222 0.36739,2.12635l-0.06679,7.57026c0,0.47499 -0.16328,0.83866 -0.48984,1.09101c-0.32656,0.25234 -0.67167,0.37851 -1.03534,0.37851c-0.36367,0 -0.71249,-0.10761 -1.04646,-0.32286c-0.33399,-0.22265 -0.50098,-0.59744 -0.50098,-1.1244h0.33397c-0.08163,0.69766 -0.89063,1.20976 -2.42694,1.53632c-0.45273,0.11875 -0.96854,0.17811 -1.54744,0.17811c-0.5789,0 -1.16151,-0.08907 -1.74784,-0.26718c-0.5789,-0.1707 -1.09472,-0.44532 -1.54745,-0.82383c-0.95,-0.79414 -1.42498,-1.86287 -1.42498,-3.20623c0,-3.14685 2.52342,-4.72027 7.57026,-4.72027zM256.51526,192.745c-0.02227,0.08907 -0.26719,0.13359 -0.73477,0.13359c-0.46758,0 -0.93144,0.00742 -1.3916,0.02227c-0.46014,0.00742 -0.88691,0.05567 -1.28026,0.14473c-0.38594,0.08163 -0.73105,0.20781 -1.03534,0.37851c-0.54921,0.28945 -0.83867,0.76445 -0.86835,1.425c0,0.48242 0.20409,0.86464 0.6123,1.14668c0.3414,0.28203 0.8498,0.43046 1.52519,0.44531c0.83124,0 1.54744,-0.26347 2.14862,-0.79042c0.53437,-0.49725 0.83124,-1.27285 0.89063,-2.32675zM262.11711,181.47866c0,-0.55663 0.17441,-0.95742 0.52324,-1.20232c0.34883,-0.25234 0.64941,-0.37851 0.90175,-0.37851c0.25976,0 0.48242,0.01856 0.66796,0.05567c0.19297,0.03711 0.3711,0.1373 0.53437,0.30059c0.38594,0.24493 0.5789,0.65311 0.5789,1.2246v15.85303c0,0.52696 -0.17441,0.92031 -0.52324,1.18007c-0.34883,0.25976 -0.71991,0.38965 -1.11328,0.38965c-0.40079,0 -0.76445,-0.13359 -1.09101,-0.40079c-0.31914,-0.26719 -0.4787,-0.65683 -0.4787,-1.16893zM271.54272,181.53433c0,0.52696 -0.18184,0.95371 -0.54551,1.28026c-0.35624,0.32656 -0.82753,0.48984 -1.41385,0.48984c-0.58632,0 -1.06131,-0.15957 -1.42498,-0.4787c-0.36367,-0.32656 -0.54551,-0.75703 -0.54551,-1.29139c0,-0.47499 0.18184,-0.87579 0.54551,-1.20235c0.36367,-0.33399 0.84608,-0.50098 1.44725,-0.50098c0.60117,0 1.07245,0.16699 1.41385,0.50098c0.34883,0.33399 0.52324,0.73477 0.52324,1.20235zM268.01363,186.91145c0,-0.50469 0.167,-0.90175 0.50098,-1.1912c0.3414,-0.29687 0.66055,-0.44531 0.95742,-0.44531c0.29687,0 0.53437,0.04452 0.71249,0.13359c0.17813,0.08907 0.33027,0.19297 0.45644,0.31172c0.38594,0.25234 0.5789,0.64941 0.5789,1.1912v10.42024c0,0.52696 -0.17441,0.92031 -0.52324,1.18007c-0.34883,0.25976 -0.71993,0.38965 -1.11328,0.38965c-0.40079,0 -0.76445,-0.13359 -1.09101,-0.40079c-0.31914,-0.26719 -0.4787,-0.65683 -0.4787,-1.16893zM278.88649,187.76866c-1.49179,0 -2.22284,0.39706 -2.19314,1.1912c0,0.46758 0.40079,0.80897 1.20232,1.02421c0.36367,0.09648 0.75703,0.18926 1.18007,0.27832c0.42305,0.08907 0.89063,0.19668 1.40273,0.32284c0.51953,0.11875 1.04646,0.28203 1.58085,0.48984c0.84608,0.24493 1.51034,0.67539 1.99276,1.29139c0.48242,0.616 0.72363,1.35448 0.72363,2.21541c0,1.52147 -0.6457,2.69783 -1.93709,3.52907c-1.09843,0.71991 -2.47146,1.07245 -4.11911,1.05761c-1.20232,0 -2.38611,-0.21153 -3.55135,-0.63456c-0.51211,-0.20038 -0.94627,-0.46386 -1.30254,-0.79042c-0.34883,-0.32656 -0.52324,-0.68653 -0.52324,-1.07988c0,-0.39335 0.13359,-0.70878 0.40079,-0.94627c0.26719,-0.23749 0.55663,-0.35624 0.86835,-0.35624c0.31172,0 0.60488,0.06309 0.87948,0.18926c0.28203,0.11875 0.6123,0.24121 0.99082,0.36739c0.95,0.34883 1.70331,0.52324 2.25996,0.52324c0.55663,0 0.99452,-0.02969 1.31366,-0.08907c0.32656,-0.06679 0.60859,-0.1707 0.84608,-0.31172c0.46758,-0.31172 0.70137,-0.71249 0.70137,-1.20232c0,-0.32656 -0.10761,-0.58261 -0.32284,-0.76816c-0.21523,-0.18554 -0.54921,-0.34512 -1.00194,-0.4787c-0.44531,-0.14101 -0.90546,-0.26347 -1.38047,-0.36739c-0.46758,-0.11132 -0.95,-0.22265 -1.44725,-0.33399c-0.48984,-0.11132 -0.97598,-0.24864 -1.4584,-0.41191c-0.47499,-0.1707 -0.89063,-0.40821 -1.24687,-0.71249c-0.89063,-0.62343 -1.33593,-1.52147 -1.33593,-2.69412c0,-1.46211 0.616,-2.51601 1.84803,-3.1617c0.92772,-0.5789 2.14862,-0.86835 3.66266,-0.86835c1.50663,0 2.73123,0.23008 3.67381,0.69022c0.93515,0.48242 1.40273,1.07245 1.40273,1.7701c0,0.3711 -0.1373,0.66055 -0.41191,0.86835c-0.26719,0.20781 -0.55663,0.31172 -0.86835,0.31172c-0.44531,0 -0.77187,-0.0668 -0.97967,-0.20039c-0.20781,-0.14101 -0.39335,-0.25605 -0.55663,-0.34512c-0.15586,-0.08907 -0.3377,-0.15215 -0.54551,-0.18926c-0.45273,-0.11875 -1.03534,-0.17813 -1.74784,-0.17813zM294.44484,197.58774c0,1.0539 -0.97226,1.58085 -2.91677,1.58085c-1.35077,0 -2.32675,-0.39706 -2.92791,-1.1912c-0.59375,-0.77187 -0.9166,-2.00017 -0.96854,-3.68493v-6.30113h-0.85722c-0.43046,0 -0.77929,-0.14101 -1.04649,-0.42305c-0.25976,-0.28203 -0.38965,-0.59003 -0.38965,-0.92401c0,-0.30429 0.11134,-0.60859 0.33399,-0.9129c0.23008,-0.30429 0.59744,-0.45643 1.10213,-0.45643h1.01307l0.10019,-3.00584c0.07422,-0.44531 0.26719,-0.78301 0.5789,-1.01309c0.31914,-0.23008 0.65683,-0.34512 1.01309,-0.34512c0.35624,0 0.67167,0.12246 0.94627,0.36739c0.27461,0.23749 0.41191,0.58632 0.41191,1.04649v2.95018h1.66991c0.45273,0 0.80155,0.15215 1.04646,0.45643c0.24493,0.29687 0.36739,0.60118 0.36739,0.9129c0,0.38594 -0.12989,0.70878 -0.38965,0.96854c-0.25234,0.25234 -0.59375,0.37851 -1.02421,0.37851h-1.66991v5.21012c0,1.55115 0.03711,2.44549 0.11132,2.68299c0.08163,0.23008 0.18556,0.38223 0.31172,0.45643c0.12617,0.06679 0.30801,0.10019 0.5455,0.10019l1.26914,-0.10019c0.44531,0 0.78301,0.14101 1.01309,0.42305c0.23749,0.28203 0.35624,0.55663 0.35624,0.82382z" fill="#000000" stroke-width="0" stroke-linecap="square"/></g></g></svg>