<svg version="1.1" xmlns="http://www.w3.org/2000/svg" xmlns:xlink="http://www.w3.org/1999/xlink" width="53.51982" height="110.58814" viewBox="0,0,53.51982,110.58814"><defs><linearGradient x1="251.41109" y1="188.37496" x2="253.01482" y2="188.37496" gradientUnits="userSpaceOnUse" id="color-1"><stop offset="0" stop-color="#e7e7e7"/><stop offset="1" stop-color="#e7e7e7" stop-opacity="0"/></linearGradient><linearGradient x1="224.71873" y1="134.69053" x2="245.89014" y2="134.69053" gradientUnits="userSpaceOnUse" id="color-2"><stop offset="0" stop-color="#999999"/><stop offset="1" stop-color="#7f7f7f"/></linearGradient><linearGradient x1="224.71873" y1="145.4473" x2="245.89014" y2="145.4473" gradientUnits="userSpaceOnUse" id="color-3"><stop offset="0" stop-color="#a3a3a3"/><stop offset="1" stop-color="#8e8e8e"/></linearGradient><linearGradient x1="249.92495" y1="156.79884" x2="253.13501" y2="156.79884" gradientUnits="userSpaceOnUse" id="color-4"><stop offset="0" stop-color="#e7e7e7"/><stop offset="1" stop-color="#cecece"/></linearGradient><linearGradient x1="248.59966" y1="116.74691" x2="248.59966" y2="150.70607" gradientUnits="userSpaceOnUse" id="color-5"><stop offset="0" stop-color="#ababab"/><stop offset="1" stop-color="#ababab" stop-opacity="0"/></linearGradient><linearGradient x1="248.72426" y1="115.19822" x2="248.72426" y2="128.31249" gradientUnits="userSpaceOnUse" id="color-6"><stop offset="0" stop-color="#9e9e9e"/><stop offset="1" stop-color="#949494"/></linearGradient></defs><g transform="translate(-219.79083,-106.2836)"><g data-paper-data="{&quot;isPaintingLayer&quot;:true}" fill-rule="nonzero" stroke-linejoin="miter" stroke-miterlimit="10" stroke-dasharray="" stroke-dashoffset="0" style="mix-blend-mode: normal"><path d="" fill="#c1c1c1" stroke="none" stroke-width="0" stroke-linecap="butt"/><path d="" data-paper-data="{&quot;index&quot;:null}" fill="#d9d9d9" stroke="none" stroke-width="0" stroke-linecap="butt"/><path d="M251.41109,216.87174h1.60371z" fill="url(#color-1)" stroke="none" stroke-width="0" stroke-linecap="butt"/><path d="" fill="#d9d9d9" stroke="#c1c1c1" stroke-width="2.5" stroke-linecap="butt"/><g><path d="M249.63912,181.64955" fill="none" stroke="#cecece" stroke-width="7.5" stroke-linecap="round"/><path d="M247.95718,181.42535" fill="none" stroke="#e7e7e7" stroke-width="7.5" stroke-linecap="round"/><path d="M224.71873,140.08733c0,0 6.45907,-3.29294 9.85819,-5.02587c3.64133,-1.85641 11.31322,-5.76766 11.31322,-5.76766v10.79353z" fill="url(#color-2)" stroke="none" stroke-width="0" stroke-linecap="butt"/><path d="M245.89014,140.05053v10.79353c0,0 -6.24425,-3.18342 -9.59198,-4.89015c-3.67824,-1.87523 -11.57943,-5.90338 -11.57943,-5.90338z" data-paper-data="{&quot;index&quot;:null}" fill="url(#color-3)" stroke="none" stroke-width="0" stroke-linecap="butt"/><path d="M249.48085,125.46772l0.15827,56.18183" fill="none" stroke="#cecece" stroke-width="7.5" stroke-linecap="round"/><path d="M247.95718,181.42536l-0.15765,-55.95765" fill="none" stroke="#e7e7e7" stroke-width="7.5" stroke-linecap="round"/><path d="M249.92495,185.29561v-56.99352h3.21006v56.99352z" fill="url(#color-4)" stroke="none" stroke-width="0" stroke-linecap="butt"/><path d="M243.97153,150.70607v-33.95913h9.25626v33.95913z" fill="url(#color-5)" stroke="none" stroke-width="0" stroke-linecap="butt"/><path d="M242.16711,121.75535c0,-3.62141 2.93573,-6.55714 6.55714,-6.55714c3.62141,0 6.55714,2.93573 6.55714,6.55714c0,3.62141 -2.93573,6.55714 -6.55714,6.55714c-3.62141,0 -6.55714,-2.93573 -6.55714,-6.55714z" fill="url(#color-6)" stroke="#9f9f9f" stroke-width="2" stroke-linecap="butt"/><path d="M219.79084,130.37372c0,-13.30461 11.98082,-24.09012 26.75991,-24.09012c14.77909,0 26.75991,10.78552 26.75991,24.09013c0,13.30461 -11.98082,24.09013 -26.75991,24.09013c-14.77909,0 -26.75991,-10.78552 -26.75991,-24.09012z" fill="none" stroke="none" stroke-width="0" stroke-linecap="butt"/></g></g></g></svg>