<svg version="1.1" xmlns="http://www.w3.org/2000/svg" xmlns:xlink="http://www.w3.org/1999/xlink" width="720" height="540" viewBox="0,0,720,540"><defs><clipPath id="clip-1"><rect x="-240" y="-180" transform="scale(0.5,0.5)" width="1440" height="1080" fill="none" fill-rule="nonzero" stroke-width="0.5" stroke-linecap="butt"/></clipPath></defs><g transform="translate(120,90)"><g clip-path="url(#clip-1)" data-paper-data="{&quot;isPaintingLayer&quot;:true}" stroke="none" stroke-linejoin="miter" stroke-miterlimit="10" stroke-dasharray="" stroke-dashoffset="0" style="mix-blend-mode: normal"><path d="M-53.81381,118.7988h960v720h-960z" fill-opacity="0" fill="#000000" fill-rule="evenodd" stroke-width="1" stroke-linecap="square"/><path d="M-26.77182,144.06126h900.8819v694.7402h-900.8819c0,0 234.23423,-207.04081 234.23423,-333.61679c0,-70.90238 -234.23423,-361.12341 -234.23423,-361.12341z" fill-opacity="0" fill="#000000" fill-rule="evenodd" stroke-width="1" stroke-linecap="square"/><path d="M-16.20932,181.89876c0,-2.75 0.78646,-5.04167 2.35938,-6.875c1.72917,-2.01042 3.97917,-3.01562 6.75,-3.01562c2.33333,0 4.14063,0.50521 5.42188,1.51563c0.55208,0.39583 0.82813,0.89063 0.82813,1.48438c0,0.58333 -0.17187,1.05729 -0.51562,1.42188c-0.33333,0.36458 -0.72917,0.54688 -1.1875,0.54688c-0.45833,0 -0.80729,-0.09375 -1.04687,-0.28125c-1.01042,-0.57292 -2.08854,-0.84896 -3.23437,-0.82812c-1.40625,0 -2.51042,0.52604 -3.3125,1.57813c-0.94792,1.14583 -1.42187,2.63021 -1.42187,4.45313c0,1.70834 0.34375,3.14063 1.03125,4.29688c0.75,1.20833 1.98438,1.8125 3.70313,1.8125c0.97917,0 2.19792,-0.34896 3.65625,-1.04687c0.80208,-0.46875 1.50521,-0.35417 2.10938,0.34375c0.33333,0.33333 0.5,0.78646 0.5,1.35938c0,0.5625 -0.27083,1.0625 -0.8125,1.5c-0.54167,0.4375 -1.13542,0.76042 -1.78125,0.96875c-1.42708,0.48958 -2.82812,0.72917 -4.20312,0.71875c-1.36458,-0.01042 -2.60937,-0.27083 -3.73437,-0.78125c-1.125,-0.52083 -2.0625,-1.27604 -2.8125,-2.26562c-1.53125,-1.83333 -2.29687,-4.13542 -2.29687,-6.90625zM0.75534,181.94564c0,-1.1875 0.19271,-2.38021 0.57813,-3.57812c0.38542,-1.19792 0.97396,-2.28125 1.76563,-3.25c1.70833,-2.07292 4.09896,-3.10937 7.17187,-3.10937c3.08333,0 5.47396,1.04167 7.17188,3.125c1.5625,1.91667 2.34375,4.17188 2.34375,6.76563c0,2.61459 -0.78125,4.8698 -2.34375,6.76563c-1.69792,2.11458 -4.08854,3.17188 -7.17187,3.17188c-3.07291,0 -5.46354,-1.05208 -7.17187,-3.15625c-1.5625,-1.875 -2.34375,-4.11979 -2.34375,-6.73438zM5.39597,181.94564c0,0.66667 0.08854,1.3698 0.26563,2.10938c0.1875,0.73958 0.51042,1.42188 0.96875,2.04688c0.88542,1.27083 2.09896,1.90625 3.64062,1.90625c1.63542,0 2.84375,-0.61979 3.625,-1.85937c0.80208,-1.27083 1.20313,-2.6875 1.20313,-4.25c0,-1.60417 -0.39583,-2.98437 -1.1875,-4.14062c-0.82292,-1.28125 -2.03646,-1.92187 -3.64062,-1.92187c-1.54166,0 -2.7552,0.65104 -3.64062,1.95313c-0.82292,1.11458 -1.23437,2.5 -1.23437,4.15625zM37.59285,175.36751c1.09375,-2.23958 3.17708,-3.35937 6.25,-3.35937c3.21875,0 5.375,1.375 6.46875,4.125c0.375,0.97917 0.5625,2.10417 0.5625,3.375v9.84375c0,0.70833 -0.23958,1.23958 -0.71875,1.59375c-0.47917,0.34375 -0.97396,0.51563 -1.48437,0.51563c-0.5625,0 -1.08333,-0.18229 -1.5625,-0.54687c-0.46875,-0.375 -0.70312,-0.89583 -0.70312,-1.5625v-10.03125c0,-1.17708 -0.3125,-2.08333 -0.9375,-2.71875c-0.5625,-0.51042 -1.32292,-0.76562 -2.28125,-0.76562c-1.95833,0 -3.28646,0.78646 -3.98437,2.35938c-0.28125,0.60417 -0.42187,1.34896 -0.42187,2.23438v8.92188c0,0.70833 -0.23958,1.23958 -0.71875,1.59375c-0.47917,0.34375 -0.97396,0.51563 -1.48437,0.51563c-0.57292,0 -1.09375,-0.1875 -1.5625,-0.5625c-0.45833,-0.375 -0.6875,-0.89062 -0.6875,-1.54687v-10.03125c0,-1.1875 -0.30208,-2.09375 -0.90625,-2.71875c-0.5625,-0.51042 -1.24479,-0.76562 -2.04687,-0.76562c-0.79167,0 -1.44271,0.08854 -1.95312,0.26563c-0.51042,0.17708 -0.96875,0.46354 -1.375,0.85938c-0.82292,0.83333 -1.26042,2.02604 -1.3125,3.57813v8.8125c0,0.71875 -0.25,1.25 -0.75,1.59375c-0.48958,0.34375 -0.99479,0.51563 -1.51562,0.51563c-0.51042,0 -1.01042,-0.18229 -1.5,-0.54687c-0.48958,-0.36458 -0.73437,-0.88542 -0.73437,-1.5625v-14.85938c0,-0.66667 0.23958,-1.19271 0.71875,-1.57812c0.48958,-0.38542 0.95313,-0.57812 1.39063,-0.57812c0.4375,0 0.77083,0.05729 1,0.17188c0.22917,0.11458 0.43229,0.22917 0.60938,0.34375c0.52083,0.4375 0.78125,0.96875 0.78125,1.59375h-0.5c-0.22917,-0.33333 0.3125,-0.83854 1.625,-1.51562c1.125,-0.61458 2.4375,-0.92187 3.9375,-0.92187c2.34375,0 4.15625,0.76563 5.4375,2.29688c0.41667,0.5625 0.53646,0.91667 0.35938,1.0625zM58.79066,173.22689c0.27083,-0.8125 2.0625,-1.21875 5.375,-1.21875c2.73958,0 4.83854,1.05729 6.29688,3.17188c1.25,1.86458 1.875,4.13542 1.875,6.8125c0,2.76042 -0.66146,5.02084 -1.98437,6.78125c-1.48958,2.0625 -3.56771,3.08333 -6.23437,3.0625c-2.25,0 -4.09375,-0.6875 -5.53125,-2.0625c-0.5,-0.42708 -0.625,-0.77083 -0.375,-1.03125l0.51563,7.26563c0,0.73958 -0.24479,1.28646 -0.73437,1.64063c-0.48958,0.35417 -0.97917,0.53125 -1.46875,0.53125c-0.5625,0 -1.08854,-0.19271 -1.57812,-0.57812c-0.47917,-0.38542 -0.71875,-0.91667 -0.71875,-1.59375v-21.51563c0,-0.72917 0.22917,-1.27083 0.6875,-1.625c0.45833,-0.35417 1.04167,-0.53125 1.75,-0.53125c1.61458,0 2.32292,0.29688 2.125,0.89063zM59.69691,177.52376c-0.36458,0.5 -0.61979,1.14063 -0.76562,1.92188c-0.13542,0.77083 -0.20312,1.59375 -0.20312,2.46875c0,0.86459 0.09896,1.66667 0.29688,2.40625c0.19792,0.72917 0.48438,1.39583 0.85938,2c0.80208,1.15625 1.98438,1.71875 3.54688,1.6875c1.46875,0 2.57813,-0.60417 3.32813,-1.8125c0.625,-1.05208 0.9375,-2.48438 0.9375,-4.29688c0,-2.78125 -0.74479,-4.63021 -2.23437,-5.54687c-0.51042,-0.32292 -1.20833,-0.48958 -2.09375,-0.5c-0.875,-0.01042 -1.61458,0.14063 -2.21875,0.45313c-0.60417,0.30208 -1.08854,0.70833 -1.45312,1.21875zM74.92505,167.00814c0,-0.78125 0.24479,-1.34375 0.73438,-1.6875c0.48958,-0.35417 0.91146,-0.53125 1.26563,-0.53125c0.36458,0 0.67708,0.02604 0.9375,0.07813c0.27083,0.05208 0.52083,0.19271 0.75,0.42188c0.54167,0.34375 0.8125,0.91667 0.8125,1.71875v22.25c0,0.73958 -0.24479,1.29167 -0.73437,1.65625c-0.48958,0.36458 -1.01042,0.54688 -1.5625,0.54688c-0.5625,0 -1.07292,-0.1875 -1.53125,-0.5625c-0.44792,-0.375 -0.67187,-0.92187 -0.67187,-1.64062zM100.38843,181.38314c0,1.15625 -0.63021,1.78646 -1.89062,1.89063h-11.78125c0.09375,2.1875 1.13021,3.67708 3.10938,4.46875c0.53125,0.17708 1.17188,0.26563 1.92188,0.26563c1.54167,0 3.14063,-0.58333 4.79688,-1.75c0.92708,-0.53125 1.73438,-0.46354 2.42188,0.20313c0.40625,0.4375 0.54167,0.86458 0.40625,1.28125c0,0.58333 -0.19271,1.04688 -0.57812,1.39063c-1.83333,1.82292 -4.24479,2.72396 -7.23437,2.70313c-2.75,0 -4.96875,-0.89583 -6.65625,-2.6875c-1.875,-1.84375 -2.8125,-4.26042 -2.8125,-7.25c0,-2.73958 0.76563,-5.01562 2.29688,-6.82812c1.64583,-2.04167 3.94271,-3.0625 6.89063,-3.0625c2.94792,0 5.21354,0.90625 6.79688,2.71875c1.47917,1.61458 2.25,3.83333 2.3125,6.65625zM95.98218,179.74251c-0.05208,-0.875 -0.5,-1.77604 -1.34375,-2.70312c-0.76042,-0.80208 -1.88021,-1.20312 -3.35937,-1.20312c-1.22917,0 -2.28125,0.45833 -3.15625,1.375c-0.8125,0.94792 -1.24479,1.79167 -1.29687,2.53125zM113.9068,189.61752c0,1.47917 -1.36458,2.21875 -4.09375,2.21875c-1.89583,0 -3.26562,-0.55729 -4.10937,-1.67187c-0.83333,-1.08333 -1.28646,-2.80729 -1.35937,-5.17187v-8.84375h-1.20312c-0.60417,0 -1.09375,-0.19792 -1.46875,-0.59375c-0.36458,-0.39583 -0.54687,-0.82812 -0.54687,-1.29687c0,-0.42708 0.15625,-0.85417 0.46875,-1.28125c0.32292,-0.42708 0.83854,-0.64062 1.54688,-0.64062h1.42188l0.14063,-4.21875c0.10417,-0.625 0.375,-1.09896 0.8125,-1.42187c0.44792,-0.32292 0.92188,-0.48437 1.42188,-0.48437c0.5,0 0.94271,0.17188 1.32813,0.51563c0.38542,0.33333 0.57813,0.82292 0.57813,1.46875v4.14063h2.34375c0.63542,0 1.125,0.21354 1.46875,0.64063c0.34375,0.41667 0.51563,0.84375 0.51563,1.28125c0,0.54167 -0.18229,0.99479 -0.54687,1.35938c-0.35417,0.35417 -0.83333,0.53125 -1.4375,0.53125h-2.34375v7.3125c0,2.17708 0.05208,3.43229 0.15625,3.76563c0.11458,0.32292 0.26042,0.53646 0.4375,0.64063c0.17708,0.09375 0.43229,0.14063 0.76563,0.14063l1.78125,-0.14062c0.625,0 1.09896,0.19792 1.42188,0.59375c0.33333,0.39583 0.5,0.78125 0.5,1.15625zM132.57242,181.38314c0,1.15625 -0.63021,1.78646 -1.89062,1.89063h-11.78125c0.09375,2.1875 1.13021,3.67708 3.10938,4.46875c0.53125,0.17708 1.17188,0.26563 1.92188,0.26563c1.54167,0 3.14063,-0.58333 4.79688,-1.75c0.92708,-0.53125 1.73438,-0.46354 2.42188,0.20313c0.40625,0.4375 0.54167,0.86458 0.40625,1.28125c0,0.58333 -0.19271,1.04688 -0.57812,1.39063c-1.83333,1.82292 -4.24479,2.72396 -7.23437,2.70313c-2.75,0 -4.96875,-0.89583 -6.65625,-2.6875c-1.875,-1.84375 -2.8125,-4.26042 -2.8125,-7.25c0,-2.73958 0.76563,-5.01562 2.29688,-6.82812c1.64583,-2.04167 3.94271,-3.0625 6.89063,-3.0625c2.94792,0 5.21354,0.90625 6.79688,2.71875c1.47917,1.61458 2.25,3.83333 2.3125,6.65625zM128.16617,179.74251c-0.05208,-0.875 -0.5,-1.77604 -1.34375,-2.70312c-0.76042,-0.80208 -1.88021,-1.20312 -3.35937,-1.20312c-1.22917,0 -2.28125,0.45833 -3.15625,1.375c-0.8125,0.94792 -1.24479,1.79167 -1.29687,2.53125zM140.20016,186.63314c0.875,0 1.51563,0.20313 1.92188,0.60938c0.5,0.66667 0.75,1.20833 0.75,1.625c0,0.40625 -0.05208,0.76563 -0.15625,1.07813c-0.09375,0.3125 -0.29167,0.60417 -0.59375,0.875c-0.53125,0.42708 -1.17187,0.64063 -1.92187,0.64063c-0.85417,0 -1.45833,-0.19792 -1.8125,-0.59375c-0.625,-0.5 -0.9375,-1.02083 -0.9375,-1.5625c0,-0.55208 0.0625,-0.9375 0.1875,-1.15625c0.13542,-0.22917 0.28646,-0.46875 0.45313,-0.71875c0.55208,-0.53125 1.25521,-0.79687 2.10938,-0.79687zM137.59079,166.00814c0,-0.72917 0.26563,-1.28125 0.79688,-1.65625c0.54167,-0.375 1.09896,-0.5625 1.67188,-0.5625c0.58333,0 1.14063,0.1875 1.67188,0.5625c0.54167,0.375 0.8125,0.92708 0.8125,1.65625l-0.5,16.95313c-0.04167,0.65625 -0.25,1.19792 -0.625,1.625c-0.375,0.41667 -0.82292,0.625 -1.34375,0.625c-0.52083,0 -0.97396,-0.20312 -1.35937,-0.60937c-0.38542,-0.41667 -0.57812,-0.97396 -0.57812,-1.67187z" fill="#000000" fill-rule="nonzero" stroke-width="1" stroke-linecap="square"/></g></g></svg>