<svg version="1.1" xmlns="http://www.w3.org/2000/svg" xmlns:xlink="http://www.w3.org/1999/xlink" width="64.52936" height="63.7761" viewBox="0,0,64.52936,63.7761"><defs><radialGradient cx="446.27436" cy="328.96226" r="32.26468" gradientUnits="userSpaceOnUse" id="color-1"><stop offset="0" stop-color="#1a1a1a"/><stop offset="1" stop-color="#1a1a1a" stop-opacity="0"/></radialGradient><linearGradient x1="447.05172" y1="307.80432" x2="447.05172" y2="348.85204" gradientUnits="userSpaceOnUse" id="color-2"><stop offset="0" stop-color="#ffffff"/><stop offset="1" stop-color="#e0e0e0"/></linearGradient></defs><g transform="translate(-414.00968,-297.07421)"><g data-paper-data="{&quot;isPaintingLayer&quot;:true}" fill-rule="nonzero" stroke-linejoin="miter" stroke-miterlimit="10" stroke-dasharray="" stroke-dashoffset="0" style="mix-blend-mode: normal"><path d="M478.53904,328.96225c0,17.61128 -14.44539,31.88806 -32.26468,31.88806c-17.81929,0 -32.26468,-14.27678 -32.26468,-31.88806c0,-17.61128 14.44539,-31.88804 32.26468,-31.88804c17.81928,0 32.26468,14.27677 32.26468,31.88804z" data-paper-data="{&quot;origPos&quot;:null}" fill="url(#color-1)" stroke="none" stroke-width="6.5" stroke-linecap="butt"/><path d="M467.57558,328.32819c0,11.33501 -9.18885,20.52385 -20.52386,20.52385c-11.33501,0 -20.52386,-9.18884 -20.52386,-20.52385c0,-11.33501 9.18885,-20.52386 20.52387,-20.52386c11.33501,0 20.52387,9.18885 20.52387,20.52387z" data-paper-data="{&quot;origPos&quot;:null}" fill="url(#color-2)" stroke="#000000" stroke-width="0" stroke-linecap="butt"/><path d="M459.04876,322.67668l-21.21791,-0.19829" data-paper-data="{&quot;origPos&quot;:null}" fill="none" stroke="#c2c2c2" stroke-width="6.5" stroke-linecap="round"/><path d="M448.73726,341.31671l-0.1983,-17.05364" data-paper-data="{&quot;origPos&quot;:null}" fill="none" stroke="#c2c2c2" stroke-width="6.5" stroke-linecap="round"/><path d="M446.55598,322.28009l0.1983,17.05365" data-paper-data="{&quot;origPos&quot;:null}" fill="none" stroke="#000000" stroke-width="6.5" stroke-linecap="round"/><path d="M457.06579,320.6937l-21.21791,-0.1983" data-paper-data="{&quot;origPos&quot;:null}" fill="none" stroke="#000000" stroke-width="6.5" stroke-linecap="round"/></g></g></svg>