<svg version="1.1" xmlns="http://www.w3.org/2000/svg" xmlns:xlink="http://www.w3.org/1999/xlink" width="463.47346" height="245.76353" viewBox="0,0,463.47346,245.76353"><defs><linearGradient x1="365.42981" y1="-99.72928" x2="365.42981" y2="-55.68701" gradientUnits="userSpaceOnUse" id="color-1"><stop offset="0" stop-color="#969696"/><stop offset="1" stop-color="#525252"/></linearGradient><linearGradient x1="367.75559" y1="-123.1832" x2="367.75559" y2="-55.60286" gradientUnits="userSpaceOnUse" id="color-2"><stop offset="0" stop-color="#8f8f8f"/><stop offset="1" stop-color="#6f6f6f"/></linearGradient><linearGradient x1="239.87117" y1="46.95391" x2="239.87117" y2="90.99618" gradientUnits="userSpaceOnUse" id="color-3"><stop offset="0" stop-color="#969696"/><stop offset="1" stop-color="#525252"/></linearGradient><linearGradient x1="237.54539" y1="23.49999" x2="237.54539" y2="91.08033" gradientUnits="userSpaceOnUse" id="color-4"><stop offset="0" stop-color="#8f8f8f"/><stop offset="1" stop-color="#6f6f6f"/></linearGradient><linearGradient x1="141.2106" y1="78.45391" x2="141.2106" y2="122.49618" gradientUnits="userSpaceOnUse" id="color-5"><stop offset="0" stop-color="#969696"/><stop offset="1" stop-color="#525252"/></linearGradient><linearGradient x1="143.53637" y1="54.99999" x2="143.53637" y2="122.58033" gradientUnits="userSpaceOnUse" id="color-6"><stop offset="0" stop-color="#8f8f8f"/><stop offset="1" stop-color="#6f6f6f"/></linearGradient></defs><g transform="translate(-23.90925,123.1832)"><g data-paper-data="{&quot;isPaintingLayer&quot;:true}" fill-rule="nonzero" stroke="none" stroke-linecap="butt" stroke-linejoin="miter" stroke-miterlimit="10" stroke-dasharray="" stroke-dashoffset="0" style="mix-blend-mode: normal"><g><path d="M270.31726,-55.68701v-44.04227h190.2251v44.04227z" fill="url(#color-1)" stroke-width="0"/><path d="M462.38271,-105.60286c13.80712,0 25,11.19288 25,25c0,13.80712 -11.19288,25 -25,25c-7.65738,0 -14.51068,-3.44268 -19.09655,-8.86468c-1.25232,0.19314 -2.53533,0.29335 -3.84172,0.29335c-6.33076,0 -12.11191,-2.35314 -16.51652,-6.23246c-4.4046,3.87933 -10.18576,6.23246 -16.51652,6.23246c-7.08585,0 -13.48317,-2.94795 -18.03242,-7.68429c-0.97993,0.11673 -1.97726,0.17678 -2.98861,0.17678c-5.30223,0 -10.21893,-1.65063 -14.26427,-4.46609c-4.04534,2.81545 -8.96204,4.46609 -14.26426,4.46609c-6.71196,0 -12.80614,-2.64505 -17.29702,-6.94966c-4.58063,5.18292 -11.27815,8.45116 -18.73901,8.45116c-5.74721,0 -11.04146,-1.93932 -15.26406,-5.19926c-2.63929,1.18951 -5.52218,1.93427 -8.5532,2.13881c-3.16123,10.18343 -12.65703,17.5788 -23.8801,17.5788c-13.80712,0 -25,-11.19288 -25,-25c0,-13.23297 10.28136,-24.0646 23.29173,-24.94256c3.16124,-10.18344 12.65703,-17.57879 23.8801,-17.57879c5.74721,0 11.04146,1.93932 15.26406,5.19926c3.13083,-1.41104 6.60444,-2.19625 10.26147,-2.19625c6.71196,0 12.80614,2.64505 17.29702,6.94965c4.58063,-5.18292 11.27815,-8.45116 18.73901,-8.45116c5.30223,0 10.21892,1.65064 14.26426,4.46609c4.04534,-2.81545 8.96204,-4.46609 14.26427,-4.46609c7.08584,0 13.48317,2.94795 18.03242,7.6843c0.97993,-0.11674 1.97725,-0.17679 2.9886,-0.17679c6.33076,0 12.11191,2.35314 16.51652,6.23247c4.4046,-3.87933 10.18575,-6.23247 16.51652,-6.23247c7.65738,0 14.51068,3.44268 19.09655,8.86468c1.25233,-0.19315 2.53533,-0.29334 3.84172,-0.29334z" fill="url(#color-2)" stroke-width="0.5"/></g><g data-paper-data="{&quot;index&quot;:null}"><path d="M144.75861,90.99618v-44.04226h190.2251v44.04227z" fill="url(#color-3)" stroke-width="0"/><path d="M146.75999,41.37368c4.58587,-5.422 11.43917,-8.86468 19.09655,-8.86468c6.33076,0 12.11191,2.35314 16.51652,6.23247c4.4046,-3.87933 10.18576,-6.23247 16.51652,-6.23247c1.01135,0 2.00867,0.06005 2.9886,0.17679c4.54925,-4.73635 10.94657,-7.6843 18.03242,-7.6843c5.30222,0 10.21892,1.65064 14.26426,4.46609c4.04534,-2.81545 8.96204,-4.46609 14.26426,-4.46609c7.46086,0 14.15838,3.26824 18.73901,8.45116c4.49088,-4.30461 10.58506,-6.94966 17.29702,-6.94966c3.65702,0 7.13064,0.78522 10.26147,2.19626c4.2226,-3.25994 9.51685,-5.19926 15.26406,-5.19926c11.22307,0 20.71886,7.39536 23.88009,17.5788c13.01038,0.87796 23.29174,11.70959 23.29174,24.94256c0,13.80712 -11.19288,25 -25,25c-11.22307,0 -20.71886,-7.39536 -23.8801,-17.57879c-3.03102,-0.20454 -5.91391,-0.9493 -8.5532,-2.13881c-4.2226,3.25994 -9.51686,5.19926 -15.26406,5.19926c-7.46086,0 -14.15838,-3.26824 -18.73901,-8.45116c-4.49088,4.3046 -10.58506,6.94966 -17.29702,6.94966c-5.30222,0 -10.21892,-1.65064 -14.26426,-4.46609c-4.04534,2.81545 -8.96204,4.46609 -14.26426,4.46609c-1.01135,0 -2.00868,-0.06005 -2.98861,-0.17679c-4.54925,4.73635 -10.94657,7.6843 -18.03242,7.6843c-6.33076,0 -12.11192,-2.35314 -16.51652,-6.23247c-4.40461,3.87933 -10.18575,6.23247 -16.51652,6.23247c-1.3064,0 -2.5894,-0.10021 -3.84172,-0.29335c-4.58587,5.422 -11.43917,8.86468 -19.09655,8.86468c-13.80712,0 -25,-11.19288 -25,-25c0,-13.80712 11.19288,-25 25,-25c1.3064,0 2.5894,0.1002 3.84172,0.29335z" fill="url(#color-4)" stroke-width="0.5"/></g><g><path d="M46.09805,122.49618v-44.04226h190.2251v44.04227z" fill="url(#color-5)" stroke-width="0"/><path d="M238.1635,72.58033c13.80712,0 25,11.19288 25,25c0,13.80712 -11.19288,25 -25,25c-7.65738,0 -14.51068,-3.44268 -19.09655,-8.86468c-1.25233,0.19314 -2.53532,0.29335 -3.84173,0.29335c-6.33076,0 -12.11191,-2.35314 -16.51651,-6.23247c-4.40461,3.87933 -10.18576,6.23247 -16.51652,6.23247c-7.08585,0 -13.48317,-2.94795 -18.03242,-7.6843c-0.97993,0.11674 -1.97726,0.17679 -2.98861,0.17679c-5.30222,0 -10.21892,-1.65064 -14.26426,-4.46609c-4.04534,2.81545 -8.96204,4.46609 -14.26426,4.46609c-6.71196,0 -12.80614,-2.64505 -17.29702,-6.94966c-4.58063,5.18292 -11.27815,8.45116 -18.73901,8.45116c-5.7472,0 -11.04146,-1.93932 -15.26406,-5.19926c-2.63929,1.1895 -5.52218,1.93427 -8.5532,2.13881c-3.16124,10.18344 -12.65703,17.5788 -23.8801,17.5788c-13.80712,0 -25,-11.19288 -25,-25c0,-13.23297 10.28136,-24.0646 23.29174,-24.94255c3.16123,-10.18344 12.65702,-17.57879 23.88009,-17.57879c5.7472,0 11.04146,1.93932 15.26406,5.19926c3.13083,-1.41103 6.60444,-2.19626 10.26147,-2.19626c6.71196,0 12.80614,2.64505 17.29703,6.94966c4.58063,-5.18292 11.27815,-8.45116 18.73901,-8.45116c5.30222,0 10.21892,1.65064 14.26426,4.46609c4.04534,-2.81545 8.96204,-4.46609 14.26426,-4.46609c7.08585,0 13.48317,2.94795 18.03242,7.6843c0.97993,-0.11674 1.97725,-0.17679 2.9886,-0.17679c6.33076,0 12.11191,2.35314 16.51652,6.23247c4.40461,-3.87933 10.18576,-6.23247 16.51651,-6.23247c7.65738,0 14.51069,3.44268 19.09655,8.86468c1.25233,-0.19314 2.53532,-0.29335 3.84173,-0.29335z" fill="url(#color-6)" stroke-width="0.5"/></g></g></g></svg>