<svg version="1.1" xmlns="http://www.w3.org/2000/svg" xmlns:xlink="http://www.w3.org/1999/xlink" width="230" height="116" viewBox="0,0,230,116"><g transform="translate(-64.5,-119.39999)"><g data-paper-data="{&quot;isPaintingLayer&quot;:true}" fill="none" fill-rule="nonzero" stroke-linecap="butt" stroke-linejoin="miter" stroke-miterlimit="10" stroke-dasharray="" stroke-dashoffset="0" style="mix-blend-mode: normal"><path d="M255.1237,173.9849c3.5428,8.38644 -0.35629,17.87805 -8.70887,21.2001c-8.35258,3.32205 -17.9957,-0.78345 -21.5385,-9.1699c-3.5428,-8.38644 0.35629,-17.87805 8.70887,-21.20009c8.35258,-3.32204 17.99569,0.78344 21.53849,9.16989z" data-paper-data="{&quot;origRot&quot;:0}" stroke="#ffd66f" stroke-width="5"/><path d="M294.5,177.39999c0,32.03252 -24.17662,58 -54,58c-29.82338,0 -54,-25.96748 -54,-58c0,-32.03252 24.17662,-58 54,-58c29.82338,0 54,25.96748 54,58z" stroke="none" stroke-width="0"/><ellipse cx="129" cy="344.79999" transform="scale(0.5,0.5)" rx="0" ry="0" stroke="none" stroke-width="0"/></g></g></svg>