<svg version="1.1" xmlns="http://www.w3.org/2000/svg" xmlns:xlink="http://www.w3.org/1999/xlink" width="315" height="42.5" viewBox="0,0,315,42.5"><g transform="translate(-82.25,-298.75)"><g data-paper-data="{&quot;isPaintingLayer&quot;:true}" fill-rule="nonzero" stroke="none" stroke-linejoin="miter" stroke-miterlimit="10" stroke-dasharray="" stroke-dashoffset="0" style="mix-blend-mode: normal"><path d="M82.25,331.5c0,-8.49286 0,-19.80265 0,-24.33333c0,-3.62978 3.65436,-8.41667 10.16667,-8.41667c49.82145,0 266.91237,0 294.66667,0c5.73113,0 10.16667,5.54459 10.16667,9.75c0,4.41299 0,14.50886 0,22.33333c0,5.84128 -4.59629,10.41667 -10.5,10.41667c-28.17537,0 -245.56576,0 -294.66667,0c-6.30343,0 -9.83333,-4.20309 -9.83333,-9.75z" fill="#ffffff" stroke-width="0" stroke-linecap="butt"/><path d="M94.89729,319.32546c0,-0.99493 0.14613,-2.00542 0.43839,-3.03145c0.29227,-1.02603 0.74309,-1.91215 1.35249,-2.65834c1.29963,-1.6603 3.14648,-2.49045 5.54055,-2.49045c1.3556,0 2.66456,0.29537 3.92689,0.88612c0.50991,0.2052 0.76485,0.56898 0.76485,1.09132c0,0.86435 -0.37931,1.31207 -1.13795,1.34316c-0.14302,0 -0.27672,-0.01554 -0.40109,-0.04664c-1.22501,-0.42906 -2.17953,-0.6436 -2.86355,-0.6436c-0.68402,0 -1.24678,0.07462 -1.68829,0.22386c-0.44151,0.14303 -0.82393,0.34511 -1.14728,0.60628c-0.32336,0.25495 -0.60007,0.55654 -0.83015,0.90477c-0.23008,0.34201 -0.41352,0.73065 -0.55033,1.16594c-0.29227,0.83326 -0.43839,1.71627 -0.43839,2.64902c0,1.50484 0.32957,2.76716 0.98871,3.78697c0.7462,1.1504 1.90904,1.72559 3.4885,1.72559c1.1193,0 2.21062,-0.30781 3.27396,-0.92343c0.22386,-0.06218 0.45083,-0.09328 0.68091,-0.09328c0.23008,0 0.45083,0.11504 0.66226,0.34512c0.21765,0.22386 0.32646,0.50058 0.32646,0.83015c0,0.32957 -0.10571,0.61561 -0.31713,0.85813c-0.20521,0.24252 -0.45083,0.44151 -0.73688,0.59697c-0.27983,0.15546 -0.58141,0.29226 -0.90477,0.41041c-0.32336,0.11815 -0.65603,0.21454 -0.99804,0.28916c-0.73377,0.19899 -1.43333,0.29848 -2.0987,0.29848c-2.41272,0 -4.25957,-0.82394 -5.54055,-2.47179c-1.19392,-1.4551 -1.79089,-3.33926 -1.79089,-5.65248zM109.06263,321.54541c0,-0.70889 0.11504,-1.42089 0.34512,-2.136c0.23008,-0.71511 0.58141,-1.36182 1.05401,-1.94013c1.01981,-1.23745 2.44692,-1.85618 4.28133,-1.85618c1.84064,0 3.26775,0.62183 4.28133,1.8655c0.93276,1.14418 1.39913,2.49045 1.39913,4.03882c0,1.56081 -0.46637,2.90708 -1.39913,4.03881c-1.01359,1.26232 -2.4407,1.89349 -4.28133,1.89349c-1.83441,0 -3.26152,-0.62806 -4.28133,-1.88416c-0.93275,-1.1193 -1.39912,-2.45936 -1.39912,-4.02017zM111.8329,321.54541c0,0.39797 0.05285,0.81771 0.15857,1.25922c0.11193,0.44151 0.3047,0.8488 0.57831,1.2219c0.52856,0.75864 1.25299,1.13796 2.17331,1.13796c0.97628,0 1.69761,-0.36999 2.16399,-1.10997c0.47881,-0.75864 0.71822,-1.60433 0.71822,-2.53708c0,-0.95763 -0.2363,-1.78156 -0.7089,-2.4718c-0.49125,-0.76486 -1.21569,-1.14729 -2.17331,-1.14729c-0.92032,0 -1.64475,0.38865 -2.17331,1.16594c-0.49125,0.66537 -0.73688,1.4924 -0.73688,2.48112zM121.94021,317.09618c0,-0.39175 0.14302,-0.70267 0.42907,-0.93275c0.28605,-0.2363 0.58142,-0.35445 0.88612,-0.35445c0.61562,0 1.00426,0.21765 1.16594,0.65293c0.16168,0.43529 0.04664,0.96695 -0.34512,1.595c-0.04353,-0.77729 0.35445,-1.39602 1.19392,-1.85618c0.71511,-0.39175 1.42089,-0.58763 2.11735,-0.58763c0.70267,0 1.30275,0.09017 1.80022,0.2705c0.49747,0.17411 0.95451,0.44772 1.37114,0.82082c0.83947,0.79595 1.25922,1.94324 1.25922,3.44186v5.82037c0,0.42906 -0.15545,0.74621 -0.46637,0.95141c-0.3047,0.2052 -0.60629,0.30781 -0.90477,0.30781c-0.34201,0 -0.64981,-0.11194 -0.92342,-0.3358c-0.26739,-0.22386 -0.40108,-0.53167 -0.40108,-0.92343v-5.9323c0,-0.72133 -0.18655,-1.26233 -0.55965,-1.62299c-0.34823,-0.34201 -0.78351,-0.51301 -1.30585,-0.51301c-0.75864,0 -1.40224,0.21453 -1.9308,0.6436c-0.50369,0.44772 -0.75553,1.16594 -0.75553,2.15466v5.27005c0,0.42906 -0.14924,0.74621 -0.44772,0.95141c-0.29227,0.2052 -0.60007,0.30781 -0.92342,0.30781c-0.34823,0 -0.64671,-0.11504 -0.89545,-0.34512c-0.24251,-0.23008 -0.36377,-0.53478 -0.36377,-0.9141zM140.51745,326.12522c0,0.88301 -0.81461,1.32451 -2.44382,1.32451c-1.13174,0 -1.94945,-0.33268 -2.45314,-0.99804c-0.49747,-0.64671 -0.76797,-1.67585 -0.8115,-3.08741v-5.27938h-0.71822c-0.36067,0 -0.65293,-0.11814 -0.87679,-0.35444c-0.21765,-0.2363 -0.32646,-0.49436 -0.32646,-0.77418c0,-0.25495 0.09327,-0.50991 0.27982,-0.76486c0.19277,-0.25495 0.50057,-0.38243 0.92343,-0.38243h0.8488l0.08394,-2.51843c0.06218,-0.3731 0.22387,-0.65603 0.48504,-0.8488c0.26739,-0.19277 0.55032,-0.28915 0.8488,-0.28915c0.29848,0 0.56276,0.1026 0.79283,0.3078c0.23008,0.19899 0.34512,0.49125 0.34512,0.87679v2.47179h1.39913c0.37932,0 0.67158,0.12748 0.87679,0.38243c0.20521,0.24874 0.30781,0.50369 0.30781,0.76486c0,0.32335 -0.10882,0.59385 -0.32646,0.81149c-0.21142,0.21143 -0.49747,0.31714 -0.85813,0.31714h-1.39913v4.36528c0,1.29964 0.03109,2.04895 0.09327,2.24793c0.06841,0.19277 0.15546,0.32024 0.26117,0.38243c0.10572,0.05597 0.25806,0.08395 0.45705,0.08395l1.06334,-0.08395c0.3731,0 0.65604,0.11815 0.8488,0.35445c0.19899,0.2363 0.29848,0.46637 0.29848,0.69023zM144.35666,312.67494c0,0.44151 -0.15235,0.79906 -0.45705,1.07267c-0.29848,0.27361 -0.69334,0.41041 -1.1846,0.41041c-0.49125,0 -0.88922,-0.1337 -1.19392,-0.40109c-0.3047,-0.27361 -0.45705,-0.63427 -0.45705,-1.08199c0,-0.39797 0.15235,-0.73376 0.45705,-1.00737c0.3047,-0.27983 0.70889,-0.41974 1.21257,-0.41974c0.50368,0 0.89855,0.13991 1.1846,0.41974c0.29226,0.27983 0.4384,0.61562 0.4384,1.00737zM141.39983,317.18013c0,-0.42285 0.13992,-0.75553 0.41974,-0.99804c0.28605,-0.24874 0.55343,-0.37311 0.80216,-0.37311c0.24874,0 0.44772,0.03732 0.59696,0.11194c0.14924,0.07462 0.27671,0.16168 0.38243,0.26117c0.32335,0.21143 0.48503,0.54411 0.48503,0.99804v8.73056c0,0.44151 -0.14613,0.77107 -0.43839,0.98872c-0.29226,0.21765 -0.60318,0.32646 -0.93276,0.32646c-0.33579,0 -0.64049,-0.11194 -0.9141,-0.3358c-0.26739,-0.22386 -0.40108,-0.55032 -0.40108,-0.97939zM146.34021,317.09618c0,-0.39175 0.14302,-0.70267 0.42907,-0.93275c0.28605,-0.2363 0.58142,-0.35445 0.88612,-0.35445c0.61561,0 1.00426,0.21765 1.16594,0.65293c0.16168,0.43529 0.04664,0.96695 -0.34512,1.595c-0.04352,-0.77729 0.35445,-1.39602 1.19392,-1.85618c0.71511,-0.39175 1.42089,-0.58763 2.11735,-0.58763c0.70267,0 1.30275,0.09017 1.80022,0.2705c0.49747,0.17411 0.95452,0.44772 1.37115,0.82082c0.83947,0.79595 1.25921,1.94324 1.25921,3.44186v5.82037c0,0.42906 -0.15545,0.74621 -0.46637,0.95141c-0.3047,0.2052 -0.60629,0.30781 -0.90477,0.30781c-0.34201,0 -0.64982,-0.11194 -0.92343,-0.3358c-0.26739,-0.22386 -0.40108,-0.53167 -0.40108,-0.92343v-5.9323c0,-0.72133 -0.18655,-1.26233 -0.55965,-1.62299c-0.34823,-0.34201 -0.78351,-0.51301 -1.30586,-0.51301c-0.75864,0 -1.40223,0.21453 -1.93079,0.6436c-0.50368,0.44772 -0.75553,1.16594 -0.75553,2.15466v5.27005c0,0.42906 -0.14924,0.74621 -0.44772,0.95141c-0.29226,0.2052 -0.60007,0.30781 -0.92343,0.30781c-0.34823,0 -0.64671,-0.11504 -0.89544,-0.34512c-0.24251,-0.23008 -0.36378,-0.53478 -0.36378,-0.9141zM168.322,325.96666c0,0.42906 -0.15545,0.74621 -0.46637,0.95141c-0.3047,0.2052 -0.56276,0.30781 -0.77418,0.30781c-0.20521,0 -0.39797,-0.02177 -0.57831,-0.06529c-0.18034,-0.04975 -0.32647,-0.14302 -0.4384,-0.27983c-0.29226,-0.19899 -0.43839,-0.50369 -0.43839,-0.9141h0.28915c-0.06841,0.62183 -0.76485,1.06645 -2.08936,1.33384c-0.39798,0.09949 -0.83326,0.14924 -1.30586,0.14924c-0.46637,0 -0.96073,-0.08395 -1.48308,-0.25185c-0.52234,-0.17411 -0.97317,-0.45083 -1.35249,-0.83015c-0.82704,-0.78351 -1.24057,-1.94324 -1.24057,-3.47917v-5.76441c0,-0.4042 0.13369,-0.72443 0.40108,-0.96073c0.26739,-0.2363 0.57209,-0.35445 0.9141,-0.35445c0.34201,0 0.6467,0.11815 0.9141,0.35445c0.26739,0.2363 0.40108,0.55654 0.40108,0.96073v5.90432c0,0.84569 0.14924,1.41156 0.44772,1.69761c0.31092,0.29226 0.80217,0.43839 1.47375,0.43839c1.14417,0 1.9308,-0.45705 2.35986,-1.37114c0.16789,-0.32335 0.25806,-0.69335 0.2705,-1.10998v-5.55921c0,-0.41663 0.14302,-0.73998 0.42907,-0.97006c0.29226,-0.23008 0.6094,-0.34512 0.9514,-0.34512c0.34201,0 0.64671,0.11815 0.9141,0.35445c0.26739,0.2363 0.40108,0.55654 0.40108,0.96073zM180.80837,321.20962c0,0.69023 -0.37621,1.06644 -1.12863,1.12863h-7.03295c0.05596,1.30586 0.67469,2.19507 1.85617,2.66767c0.31714,0.10571 0.69957,0.15857 1.14729,0.15857c0.92031,0 1.87483,-0.34823 2.86355,-1.04468c0.55344,-0.31714 1.03536,-0.27671 1.44577,0.12126c0.24251,0.26117 0.32335,0.51612 0.24251,0.76485c0,0.34823 -0.11504,0.62495 -0.34512,0.83015c-1.09443,1.08821 -2.53397,1.62611 -4.31864,1.61367c-1.64165,0 -2.96616,-0.53478 -3.97353,-1.60433c-1.1193,-1.10065 -1.67895,-2.5433 -1.67895,-4.32797c0,-1.63542 0.45705,-2.99414 1.37115,-4.07613c0.9825,-1.21879 2.35365,-1.82819 4.11344,-1.82819c1.75979,0 3.11228,0.541 4.05747,1.62299c0.883,0.96384 1.34317,2.28835 1.38048,3.97352zM178.17801,320.23023c-0.03109,-0.52234 -0.29848,-1.06023 -0.80217,-1.61366c-0.45394,-0.47881 -1.12241,-0.71822 -2.00542,-0.71822c-0.73377,0 -1.36182,0.27361 -1.88416,0.82082c-0.48503,0.56587 -0.74309,1.06955 -0.77418,1.51106zM190.42155,316.34065c0.16168,-0.48503 1.23123,-0.72755 3.20867,-0.72755c1.63542,0 2.88842,0.63116 3.75899,1.89348c0.7462,1.11309 1.1193,2.46869 1.1193,4.0668c0,1.64786 -0.39487,2.99725 -1.1846,4.04815c-0.88923,1.23124 -2.12979,1.84064 -3.72169,1.82819c-1.34316,0 -2.44382,-0.41042 -3.30194,-1.23124c-0.29848,-0.25495 -0.3731,-0.46015 -0.22386,-0.61561l0.30781,4.3373c0,0.44151 -0.14613,0.76796 -0.43839,0.97939c-0.29226,0.21143 -0.58452,0.31714 -0.87679,0.31714c-0.33579,0 -0.64982,-0.11504 -0.94208,-0.34512c-0.28605,-0.23008 -0.42907,-0.54721 -0.42907,-0.9514v-12.84401c0,-0.43529 0.13681,-0.75863 0.41042,-0.97006c0.27361,-0.21143 0.62183,-0.31714 1.04468,-0.31714c0.96384,0 1.3867,0.17723 1.26855,0.53167zM190.96255,318.90572c-0.21765,0.29848 -0.36999,0.68091 -0.45705,1.14729c-0.08084,0.46016 -0.12126,0.95141 -0.12126,1.47375c0,0.51612 0.05907,0.99493 0.17722,1.43644c0.11815,0.43529 0.28915,0.83326 0.51301,1.19392c0.47881,0.69023 1.1846,1.02603 2.11735,1.00737c0.87679,0 1.53904,-0.36066 1.98676,-1.082c0.3731,-0.62806 0.55965,-1.48307 0.55965,-2.56506c0,-1.6603 -0.44461,-2.76406 -1.33383,-3.31128c-0.3047,-0.19277 -0.72133,-0.29226 -1.24989,-0.29848c-0.52234,-0.00621 -0.96384,0.08395 -1.32451,0.2705c-0.36067,0.18034 -0.64982,0.42284 -0.86746,0.72755zM200.05316,312.6283c0,-0.46638 0.14613,-0.80217 0.43839,-1.00737c0.29226,-0.21143 0.54411,-0.31713 0.75553,-0.31713c0.21765,0 0.40419,0.01554 0.55965,0.04663c0.16168,0.03109 0.31091,0.11504 0.44772,0.25185c0.32335,0.2052 0.48503,0.54721 0.48503,1.02603v13.2824c0,0.44151 -0.14613,0.77107 -0.43839,0.98872c-0.29226,0.21765 -0.60317,0.32646 -0.93275,0.32646c-0.33579,0 -0.64049,-0.11194 -0.9141,-0.3358c-0.26739,-0.22386 -0.40108,-0.55032 -0.40108,-0.97939zM210.42216,319.89444c0.39175,0 0.61251,0 0.66226,0v-0.35445c0,-1.09443 -0.63116,-1.64164 -1.89348,-1.64164c-0.65293,0 -1.11619,0.05285 -1.3898,0.15857c-0.55965,0.2052 -0.9794,0.39487 -1.25922,0.56898c-0.27982,0.16789 -0.55033,0.25185 -0.8115,0.25185c-0.25495,0 -0.49747,-0.09949 -0.72754,-0.29848c-0.23008,-0.19899 -0.34512,-0.46326 -0.34512,-0.79284c0,-0.29848 0.13681,-0.56587 0.41042,-0.80217c0.95141,-0.91409 2.33499,-1.37115 4.15075,-1.37115c2.15777,0 3.55379,0.75242 4.18806,2.25726c0.20521,0.52234 0.30781,1.11619 0.30781,1.78156l-0.05596,6.34271c0,0.39797 -0.13681,0.70267 -0.41042,0.9141c-0.27361,0.21143 -0.56276,0.31714 -0.86746,0.31714c-0.3047,0 -0.59696,-0.09017 -0.87679,-0.2705c-0.27982,-0.18655 -0.41974,-0.50057 -0.41974,-0.94208h0.27982c-0.06841,0.58452 -0.7462,1.01359 -2.0334,1.2872c-0.37932,0.09949 -0.8115,0.14924 -1.29653,0.14924c-0.48503,0 -0.97317,-0.07462 -1.46442,-0.22386c-0.48503,-0.14303 -0.9172,-0.37311 -1.29653,-0.69024c-0.79595,-0.66537 -1.19393,-1.56081 -1.19393,-2.68633c0,-2.63658 2.11424,-3.95487 6.34271,-3.95487zM211.19634,322.06775c-0.01865,0.07462 -0.22386,0.11193 -0.61562,0.11193c-0.39175,0 -0.7804,0.00621 -1.16594,0.01866c-0.38554,0.00621 -0.74309,0.04664 -1.07267,0.12126c-0.32335,0.0684 -0.61251,0.17411 -0.86746,0.31713c-0.46016,0.24252 -0.70268,0.64049 -0.72755,1.19393c0,0.4042 0.17101,0.72443 0.51301,0.96073c0.28605,0.2363 0.712,0.36066 1.27787,0.3731c0.69645,0 1.29653,-0.22075 1.80021,-0.66225c0.44772,-0.41663 0.69645,-1.06644 0.7462,-1.94945zM218.80934,326.6569l-3.94554,-9.01972c-0.08706,-0.16789 -0.13059,-0.34823 -0.13059,-0.541c0,-0.19277 0.04975,-0.37931 0.14924,-0.55965c0.09949,-0.18034 0.22075,-0.31091 0.36378,-0.39175c0.26739,-0.16789 0.54721,-0.27983 0.83947,-0.3358c0.63427,0 1.07577,0.28294 1.32451,0.84881l2.81691,6.79977l2.77961,-6.79977c0.24874,-0.56587 0.59074,-0.84881 1.02603,-0.84881c0.44151,0 0.79906,0.12437 1.07267,0.37311c0.27361,0.24874 0.41042,0.5099 0.41042,0.78351c0,0.27361 -0.03731,0.49125 -0.11193,0.65293l-5.27005,12.82535c-0.26117,0.55965 -0.67158,0.83947 -1.23123,0.83947c-0.32335,0 -0.6094,-0.08706 -0.85814,-0.26117c-0.34201,-0.29848 -0.51301,-0.59696 -0.51301,-0.89544c0,-0.29848 0.04975,-0.50679 0.14924,-0.62494zM229.63315,312.67494c0,0.44151 -0.15234,0.79906 -0.45704,1.07267c-0.29848,0.27361 -0.69335,0.41041 -1.1846,0.41041c-0.49125,0 -0.88922,-0.1337 -1.19392,-0.40109c-0.3047,-0.27361 -0.45705,-0.63427 -0.45705,-1.08199c0,-0.39797 0.15235,-0.73376 0.45705,-1.00737c0.3047,-0.27983 0.70889,-0.41974 1.21257,-0.41974c0.50368,0 0.89855,0.13991 1.1846,0.41974c0.29226,0.27983 0.43839,0.61562 0.43839,1.00737zM226.67633,317.18013c0,-0.42285 0.13992,-0.75553 0.41974,-0.99804c0.28605,-0.24874 0.55343,-0.37311 0.80217,-0.37311c0.24874,0 0.44773,0.03732 0.59697,0.11194c0.14924,0.07462 0.27671,0.16168 0.38242,0.26117c0.32335,0.21143 0.48504,0.54411 0.48504,0.99804v8.73056c0,0.44151 -0.14613,0.77107 -0.4384,0.98872c-0.29226,0.21765 -0.60318,0.32646 -0.93275,0.32646c-0.33579,0 -0.64049,-0.11194 -0.9141,-0.3358c-0.26739,-0.22386 -0.40108,-0.55032 -0.40108,-0.97939zM231.61671,317.09618c0,-0.39175 0.14302,-0.70267 0.42907,-0.93275c0.28605,-0.2363 0.58141,-0.35445 0.88611,-0.35445c0.61561,0 1.00426,0.21765 1.16594,0.65293c0.16168,0.43529 0.04663,0.96695 -0.34512,1.595c-0.04352,-0.77729 0.35445,-1.39602 1.19393,-1.85618c0.71511,-0.39175 1.4209,-0.58763 2.11735,-0.58763c0.70267,0 1.30274,0.09017 1.80021,0.2705c0.49747,0.17411 0.95451,0.44772 1.37114,0.82082c0.83947,0.79595 1.25922,1.94324 1.25922,3.44186v5.82037c0,0.42906 -0.15546,0.74621 -0.46638,0.95141c-0.3047,0.2052 -0.60629,0.30781 -0.90477,0.30781c-0.34201,0 -0.64981,-0.11194 -0.92342,-0.3358c-0.26739,-0.22386 -0.40108,-0.53167 -0.40108,-0.92343v-5.9323c0,-0.72133 -0.18655,-1.26233 -0.55965,-1.62299c-0.34823,-0.34201 -0.78351,-0.51301 -1.30585,-0.51301c-0.75864,0 -1.40224,0.21453 -1.9308,0.6436c-0.50368,0.44772 -0.75553,1.16594 -0.75553,2.15466v5.27005c0,0.42906 -0.14924,0.74621 -0.44772,0.95141c-0.29226,0.2052 -0.60007,0.30781 -0.92342,0.30781c-0.34823,0 -0.64671,-0.11504 -0.89545,-0.34512c-0.24251,-0.23008 -0.36377,-0.53478 -0.36377,-0.9141zM248.38441,317.91701c-1.72248,0 -2.58372,1.20014 -2.58372,3.60043c0,1.15661 0.27983,2.05516 0.83948,2.69565c0.46016,0.53478 1.05401,0.80838 1.78155,0.82082c0.7462,0 1.38047,-0.28605 1.90282,-0.85814c0.57209,-0.62183 0.85813,-1.48929 0.85813,-2.60237c0,-1.67273 -0.50368,-2.79204 -1.51106,-3.35791c-0.32958,-0.19899 -0.75864,-0.29848 -1.2872,-0.29848zM247.94602,315.61311c1.98988,0 3.15582,0.46638 3.49783,1.39913l-0.20521,-0.04664c0.06218,-0.36066 0.21142,-0.6436 0.44772,-0.8488c0.2363,-0.2052 0.51612,-0.30781 0.83947,-0.30781c0.32958,0 0.62494,0.11815 0.88611,0.35445c0.26739,0.2363 0.40109,0.54721 0.40109,0.93275v9.8592c0,1.58568 -0.51923,2.77649 -1.5577,3.57244c-0.90788,0.72755 -2.19819,1.09132 -3.87092,1.09132c-1.4924,0 -2.63347,-0.27049 -3.4232,-0.81149c-0.68402,-0.49747 -1.02603,-0.96074 -1.02603,-1.38981c0,-0.31714 0.10571,-0.58452 0.31714,-0.80217c0.21765,-0.21143 0.46327,-0.31714 0.73687,-0.31714c0.27361,0 0.49747,0.05907 0.67158,0.17722c0.18034,0.12437 0.36066,0.22697 0.541,0.30781c0.18655,0.08084 0.37621,0.15546 0.56898,0.22386c0.4726,0.16789 0.96384,0.25185 1.47375,0.25185c0.50991,0 0.94518,-0.04042 1.30585,-0.12126c0.36067,-0.08084 0.66537,-0.21453 0.9141,-0.40108c0.47881,-0.31092 0.71822,-0.87056 0.71822,-1.67895l0.07462,-0.68091c-0.02487,0.15546 -0.69024,0.39797 -1.99609,0.72755c-0.41041,0.08084 -0.80527,0.12126 -1.1846,0.12126c-1.67896,0 -2.96927,-0.58452 -3.87092,-1.75358c-0.82082,-1.01981 -1.23123,-2.31945 -1.23123,-3.89891c0,-1.66652 0.4073,-3.03456 1.22191,-4.10411c0.883,-1.23745 2.13289,-1.85618 3.74966,-1.85618zM261.01017,313.3745c-0.22386,-0.15546 -0.47571,-0.25806 -0.75553,-0.30781c-0.27983,-0.05597 -0.70267,-0.08395 -1.26855,-0.08395c-0.56587,0 -1.04779,0.04975 -1.44576,0.14925c-0.39175,0.09949 -0.69645,0.14924 -0.9141,0.14924c-0.21142,0 -0.41662,-0.1368 -0.61561,-0.41042c-0.19899,-0.27983 -0.29848,-0.57208 -0.29848,-0.87678c0,-0.70889 0.32647,-1.13174 0.97939,-1.26855c0.79595,-0.2363 1.66651,-0.35444 2.6117,-0.35444c0.94519,0 1.69762,0.08706 2.25727,0.26117c0.55965,0.17411 1.05711,0.44772 1.4924,0.82083c0.95763,0.8146 1.43644,1.92768 1.43644,3.33925c0,1.23124 -0.49435,2.36298 -1.48307,3.39522c-0.27983,0.27983 -0.56276,0.55344 -0.8488,0.82083c-0.33579,0.3731 -0.63116,0.66847 -0.88612,0.88612c-0.25495,0.21765 -0.4384,0.39175 -0.55032,0.52234c-0.23008,0.26739 -0.34512,0.53478 -0.34512,0.80217v1.00738c0,0.42285 -0.1368,0.73998 -0.41041,0.9514c-0.27361,0.21143 -0.58452,0.31714 -0.93275,0.31714c-0.34823,0 -0.61872,-0.08706 -0.81149,-0.26117c-0.19277,-0.18034 -0.32647,-0.40108 -0.40109,-0.66225c-0.0684,-0.26117 -0.09949,-0.55032 -0.09328,-0.86746c0.01244,-0.32335 0.02799,-0.67469 0.04664,-1.05401c0.01866,-0.37932 0.13991,-0.75553 0.36377,-1.12863c0.22386,-0.3731 0.48504,-0.712 0.78352,-1.0167c0.3047,-0.3047 0.61872,-0.59696 0.94208,-0.87678c0.32957,-0.27983 0.63427,-0.56587 0.91409,-0.85814c0.57209,-0.67158 0.85814,-1.28409 0.85814,-1.83752c0,-0.70267 -0.20831,-1.22191 -0.62494,-1.5577zM257.64292,326.40505c-0.08084,-0.19277 -0.12125,-0.38554 -0.12125,-0.57831c0,-0.19899 0.03731,-0.38243 0.11193,-0.55032c0.07462,-0.17411 0.1679,-0.34823 0.27983,-0.52234c0.35444,-0.29226 0.75553,-0.4384 1.20325,-0.4384c0.45394,0 0.79906,0.10571 1.03536,0.31714c0.24252,0.21143 0.40419,0.41352 0.48503,0.60629c0.08084,0.19277 0.12126,0.38554 0.12126,0.57831c0,0.19277 -0.04352,0.39486 -0.13058,0.60629c-0.08084,0.21143 -0.21142,0.3731 -0.39175,0.48503c-0.32957,0.28605 -0.70268,0.42907 -1.11931,0.42907c-0.46638,0 -0.80838,-0.10882 -1.02602,-0.32646c-0.21765,-0.21765 -0.36689,-0.41974 -0.44773,-0.60629z" fill="#404040" stroke-width="1" stroke-linecap="square"/></g></g></svg>