<svg version="1.1" xmlns="http://www.w3.org/2000/svg" xmlns:xlink="http://www.w3.org/1999/xlink" width="208" height="169.5" viewBox="0,0,208,169.5"><defs><linearGradient x1="240" y1="162.95508" x2="240" y2="197.04492" gradientUnits="userSpaceOnUse" id="color-1"><stop offset="0" stop-color="#eaeaea"/><stop offset="1" stop-color="#c5c5c5"/></linearGradient><linearGradient x1="243.31179" y1="176.59211" x2="243.31179" y2="187.49742" gradientUnits="userSpaceOnUse" id="color-2"><stop offset="0" stop-color="#383838"/><stop offset="1" stop-color="#222222"/></linearGradient></defs><g transform="translate(-125,-79.22222)"><g data-paper-data="{&quot;isPaintingLayer&quot;:true}" fill-rule="nonzero" stroke-linecap="butt" stroke-miterlimit="10" stroke-dasharray="" stroke-dashoffset="0" style="mix-blend-mode: normal"><path d="M229.5142,191.08832v-22.17664h20.97161v22.17664z" data-paper-data="{&quot;zoomLevel&quot;:2.5}" fill="none" stroke="#d27f54" stroke-width="29.5" stroke-linejoin="round"/><path d="M222.95508,180c0,-9.41365 7.63127,-17.04492 17.04492,-17.04492c9.41365,0 17.04492,7.63127 17.04492,17.04492c0,9.41365 -7.63127,17.04492 -17.04492,17.04492c-9.41365,0 -17.04492,-7.63127 -17.04492,-17.04492z" fill="url(#color-1)" stroke="#dbdbdb" stroke-width="2.5" stroke-linejoin="miter"/><path d="M228.67442,180.51803c0,-5.99606 4.86078,-10.85684 10.85684,-10.85684c5.99606,0 10.85684,4.86078 10.85684,10.85684c0,5.99606 -4.86078,10.85685 -10.85684,10.85685c-5.99606,0 -10.85684,-4.86078 -10.85684,-10.85685z" fill="#bbbbbb" stroke="none" stroke-width="0.5" stroke-linejoin="miter"/><path d="M229.76495,179.791c0,-5.86222 4.75228,-10.6145 10.6145,-10.6145c5.86222,0 10.6145,4.75227 10.6145,10.6145c0,5.86222 -4.75228,10.61451 -10.6145,10.61451c-5.86222,0 -10.6145,-4.75228 -10.6145,-10.61451z" fill="#000000" stroke="none" stroke-width="0.5" stroke-linejoin="miter"/><path d="M237.85913,182.04476c0,-3.01142 2.44124,-5.45265 5.45266,-5.45265c3.01142,0 5.45266,2.44124 5.45266,5.45265c0,3.01142 -2.44124,5.45266 -5.45266,5.45266c-3.01142,0 -5.45266,-2.44124 -5.45266,-5.45266z" fill="url(#color-2)" stroke="none" stroke-width="0.5" stroke-linejoin="miter"/><path d="M232.625,217.10819c-24.23149,0 -43.875,-19.37547 -43.875,-43.27632c0,-23.90085 19.64351,-43.27632 43.875,-43.27632c24.23149,0 43.875,19.37547 43.875,43.27632c0,23.90085 -19.64351,43.27632 -43.875,43.27632z" fill="none" stroke="none" stroke-width="0" stroke-linejoin="miter"/><path d="M244.68644,128.22222c34.96711,0 63.31356,26.97484 63.31356,60.25c0,33.27516 -28.34645,60.25 -63.31356,60.25c-34.96711,0 -63.31356,-26.97484 -63.31356,-60.25c0,-33.27516 28.34645,-60.25 63.31356,-60.25z" fill="none" stroke="none" stroke-width="0" stroke-linejoin="miter"/><path d="M229,238.72222c-57.43761,0 -104,-35.70529 -104,-79.75c0,-44.04471 46.56239,-79.75 104,-79.75c57.43761,0 104,35.70529 104,79.75c0,44.04471 -46.56239,79.75 -104,79.75z" fill="none" stroke="none" stroke-width="0" stroke-linejoin="miter"/></g></g></svg>