<svg version="1.1" xmlns="http://www.w3.org/2000/svg" xmlns:xlink="http://www.w3.org/1999/xlink" width="69.48006" height="155.12229" viewBox="0,0,69.48006,155.12229"><defs><linearGradient x1="248.47986" y1="167.13801" x2="248.47986" y2="186.46976" gradientUnits="userSpaceOnUse" id="color-1"><stop offset="0" stop-color="#77966b"/><stop offset="1" stop-color="#637d59"/></linearGradient><linearGradient x1="256.0875" y1="155.83044" x2="256.0875" y2="186.82149" gradientUnits="userSpaceOnUse" id="color-2"><stop offset="0" stop-color="#77966b"/><stop offset="1" stop-color="#637d59"/></linearGradient><linearGradient x1="261.50002" y1="186.40004" x2="261.50002" y2="227.40002" gradientUnits="userSpaceOnUse" id="color-3"><stop offset="0" stop-color="#928670"/><stop offset="1" stop-color="#837965"/></linearGradient><linearGradient x1="253.83336" y1="186.40004" x2="253.83336" y2="227.40002" gradientUnits="userSpaceOnUse" id="color-4"><stop offset="0" stop-color="#928670"/><stop offset="1" stop-color="#837965"/></linearGradient></defs><g transform="translate(-226.6929,-72.27772)"><g data-paper-data="{&quot;isPaintingLayer&quot;:true}" fill-rule="nonzero" stroke-linejoin="miter" stroke-miterlimit="10" stroke-dasharray="" stroke-dashoffset="0" style="mix-blend-mode: normal"><path d="M243.82663,136.14988c0,0 7.4042,21.13685 8.08328,42.2323c0.09967,3.09595 0.05611,6.05273 -0.09367,8.9195" data-paper-data="{&quot;origRot&quot;:0,&quot;index&quot;:null}" fill="none" stroke="#708e65" stroke-width="5" stroke-linecap="round"/><path d="M246.99171,146.08039l-15.2988,-49.31345" data-paper-data="{&quot;origRot&quot;:0,&quot;index&quot;:null}" fill="none" stroke="#8fa686" stroke-width="10" stroke-linecap="round"/><path d="M245.48103,186.37232c0,0 2.19071,1.39377 1.24958,-6.3606c-0.76593,-6.31066 -3.52849,-12.8737 -3.52849,-12.8737c0,0 2.99777,1.72823 5.92663,7.97973c3.4687,7.4038 4.62883,10.31609 4.62883,10.31609z" data-paper-data="{&quot;origRot&quot;:0,&quot;index&quot;:null}" fill="url(#color-1)" stroke="none" stroke-width="0" stroke-linecap="butt"/><path d="M252.56344,185.89445c0,0 0.96508,4.80538 1.98785,-7.46562c0.83234,-9.98638 1.59124,-22.59843 1.59124,-22.59843c0,0 0.56378,2.66531 1.5302,12.8549c0.34328,3.61937 0.65505,6.58534 0.92334,8.96428c0.62625,5.55296 1.01556,7.90741 1.01556,7.90741z" data-paper-data="{&quot;index&quot;:null}" fill="url(#color-2)" stroke="none" stroke-width="0" stroke-linecap="butt"/><path d="M261.79657,201.37148c0,0 0.00418,-6.76686 0.99095,-19.21221c1.26421,-15.94442 3.66218,-39.29304 4.61609,-49.21606c1.26341,-13.14276 4.22324,-33.6767 4.22324,-33.6767" data-paper-data="{&quot;index&quot;:null}" fill="none" stroke="#536a4b" stroke-width="5.5" stroke-linecap="round"/><path d="M274.46456,77.27773l-4.53748,37.66637" data-paper-data="{&quot;origRot&quot;:0,&quot;index&quot;:null}" fill="none" stroke="#708e65" stroke-width="10" stroke-linecap="round"/><path d="M262.70923,153.37889c0,0 1.86296,-11.93438 -3.75953,-24.23502c-2.86366,-6.265 -7.08865,-10.36562 -6.77953,-17.24714c0.30114,-6.70389 7.90034,-16.57015 7.90034,-16.57015c0,0 -5.27748,9.58924 -5.27748,16.20941c0,9.28171 7.23387,13.30165 10.35736,22.042c2.19494,6.14201 2.45937,19.04696 2.45937,19.04696z" data-paper-data="{&quot;index&quot;:null}" fill="#536a4b" stroke="#000000" stroke-width="0" stroke-linecap="butt"/><path d="M262.753,160.77264c0,0 2.28583,-12.70365 5.41722,-18.42523c4.4561,-8.14206 12.23107,-10.97729 13.6873,-20.14405c1.03864,-6.53818 -2.66901,-16.83666 -2.66901,-16.83666c0,0 5.95716,10.93632 5.20279,17.60444c-0.77436,6.84479 -5.59038,10.23176 -9.4015,15.9699c-7.48273,11.26618 -7.51523,23.34505 -7.51523,23.34505z" data-paper-data="{&quot;index&quot;:null,&quot;origRot&quot;:0}" fill="#536a4b" stroke="#000000" stroke-width="0" stroke-linecap="butt"/><path d="M293.17296,161.90003c-1.65685,0 -3,-0.22386 -3,-0.5c0,-0.27614 1.34315,-0.5 3,-0.5c1.65685,0 3,0.22386 3,0.5c0,0.27614 -1.34315,0.5 -3,0.5z" fill="none" stroke="none" stroke-width="0" stroke-linecap="butt"/><path d="M248.50001,227.40002l-2,-41c0,0 19.26149,0 24.33333,0c2.17683,0 5.21223,3.10535 4.80447,5.89172c-0.99538,6.80177 -5.1378,35.10828 -5.1378,35.10828z" fill="url(#color-3)" stroke="none" stroke-width="0" stroke-linecap="butt"/><path d="M244.83336,227.40002c0,0 -4.04543,-29.25493 -4.98152,-35.65148c-0.3361,-2.29664 1.88783,-5.34852 4.31484,-5.34852c5.21949,0 24.66667,0 24.66667,0l-2,41z" data-paper-data="{&quot;index&quot;:null}" fill="url(#color-4)" stroke="none" stroke-width="0" stroke-linecap="butt"/><path d="M240.42562,196.30591l-0.26861,-1.9281c0,0 -0.42434,-2.98526 -0.55517,-3.87927c-0.3361,-2.29664 1.88783,-5.34852 4.31484,-5.34852c5.2195,0 24.66667,0 24.66667,0l7.79847,3.50643l-1.34792,7.50741z" data-paper-data="{&quot;index&quot;:null}" fill="#706757" stroke="none" stroke-width="0" stroke-linecap="butt"/><path d="M237.75002,188.90004c0,-1.5664 0,-3.34165 0,-4.25c0,-1.13457 1.17356,-2.75 2.5,-2.75c4.21261,0 26.27747,0 34.5,0c1.8715,0 3.5,1.20265 3.5,3c0,1.33339 0,3.21889 0,4c0,1.34579 -1.12926,3 -3,3c-8.08579,0 -30.02363,0 -34.5,0c-1.55904,0 -3,-1.38963 -3,-3z" fill="#b0a288" stroke="none" stroke-width="0" stroke-linecap="butt"/></g></g></svg>