<svg version="1.1" xmlns="http://www.w3.org/2000/svg" xmlns:xlink="http://www.w3.org/1999/xlink" width="155.01201" height="71.544" viewBox="0,0,155.01201,71.544"><g transform="translate(-162.494,-144.228)"><g data-paper-data="{&quot;isPaintingLayer&quot;:true}" stroke-width="0" stroke-linejoin="miter" stroke-miterlimit="10" stroke-dasharray="" stroke-dashoffset="0" style="mix-blend-mode: normal"><path d="M162.494,207.1c0,-15.39767 0,-46.66972 0,-54.92267c0,-3.91529 3.64948,-7.94933 7.94934,-7.94933c15.5113,0 108.45108,0 138.02934,0c5.68841,0 9.03333,4.24438 9.03333,8.31067c0,8.47827 0,40.26824 0,55.284c0,4.84946 -3.20355,7.94933 -8.672,7.94933c-29.17464,0 -122.81565,0 -138.39067,0c-4.29986,0 -7.94934,-3.40853 -7.94934,-8.672z" fill="#ffffff" fill-rule="nonzero" stroke="none" stroke-linecap="butt"/><path d="M216.04823,169.13719l4.52977,-11.12443c0.31625,-0.6697 0.57048,-1.10996 0.76271,-1.3208c0.41546,-0.37205 0.83093,-0.55809 1.24638,-0.55809c0.41546,0 0.74101,0.05271 0.97663,0.15812c0.23564,0.09921 0.43717,0.23564 0.60459,0.40926c0.40306,0.40306 0.60459,0.92704 0.60459,1.57193v12.48244c0,0.43406 -0.14262,0.76271 -0.42786,0.98595c-0.27904,0.21704 -0.586,0.32555 -0.92083,0.32555c-0.32865,0 -0.6294,-0.11161 -0.90223,-0.33485c-0.26664,-0.22324 -0.39995,-0.54878 -0.39995,-0.97663v-9.98967l-4.47397,9.85015c-0.29764,0.75031 -0.83093,1.12546 -1.59983,1.12546c-0.6821,0 -1.20608,-0.36895 -1.57193,-1.10686l-4.45535,-9.81295v9.93386c0,0.43406 -0.14262,0.76271 -0.42787,0.98595c-0.27904,0.21704 -0.58289,0.32555 -0.91153,0.32555c-0.32865,0 -0.63559,-0.10852 -0.92083,-0.32555c-0.27904,-0.22324 -0.41857,-0.55189 -0.41857,-0.98595v-12.48244c0,-1.03555 0.41236,-1.70525 1.23708,-2.00909c0.24183,-0.04962 0.48678,-0.08371 0.7348,-0.10232c0.25423,-0.0248 0.49917,0.00311 0.7348,0.08371c0.24183,0.07441 0.44646,0.18913 0.61389,0.34415c0.27284,0.21704 0.59219,0.68829 0.95804,1.4138l4.44606,11.13373zM232.84718,164.75624c0.39066,0 0.61079,0 0.6604,0v-0.35345c0,-1.09135 -0.6294,-1.63704 -1.88818,-1.63704c-0.6511,0 -1.11306,0.05271 -1.3859,0.15812c-0.55808,0.20463 -0.97663,0.39376 -1.25569,0.56738c-0.27904,0.16742 -0.54878,0.25114 -0.80922,0.25114c-0.25423,0 -0.49608,-0.09921 -0.72551,-0.29764c-0.22943,-0.19842 -0.34415,-0.46197 -0.34415,-0.79061c0,-0.29764 0.13643,-0.56428 0.40926,-0.79992c0.94874,-0.91153 2.32845,-1.36729 4.13911,-1.36729c2.15171,0 3.54382,0.75031 4.17631,2.25092c0.20463,0.52087 0.30695,1.11306 0.30695,1.77656l-0.05581,6.32493c0,0.39685 -0.13643,0.7007 -0.40926,0.91153c-0.27284,0.21083 -0.56118,0.31625 -0.86503,0.31625c-0.30385,0 -0.59529,-0.08992 -0.87433,-0.26975c-0.27904,-0.18602 -0.41857,-0.49917 -0.41857,-0.93944h0.27903c-0.06821,0.58289 -0.74412,1.01074 -2.0277,1.28359c-0.37826,0.09921 -0.80922,0.14881 -1.29288,0.14881c-0.48367,0 -0.97044,-0.07441 -1.46031,-0.22323c-0.48367,-0.14262 -0.91464,-0.37206 -1.29289,-0.68831c-0.79372,-0.6635 -1.19056,-1.55643 -1.19056,-2.67879c0,-2.62919 2.10831,-3.94378 6.32493,-3.94378zM233.6192,166.92346c-0.0186,0.07441 -0.22324,0.11161 -0.61389,0.11161c-0.39066,0 -0.77821,0.00621 -1.16268,0.0186c-0.38445,0.00621 -0.74101,0.04651 -1.06965,0.12092c-0.32245,0.06821 -0.61079,0.17362 -0.86503,0.31625c-0.45887,0.24183 -0.7007,0.6387 -0.72551,1.19058c0,0.40306 0.17053,0.7224 0.51158,0.95804c0.28524,0.23564 0.71,0.35965 1.27429,0.37205c0.6945,0 1.29289,-0.22013 1.79516,-0.66039c0.44646,-0.41546 0.6945,-1.06346 0.74412,-1.94399zM241.21087,171.49973l-3.93448,-8.99442c-0.08681,-0.16742 -0.13022,-0.34725 -0.13022,-0.53948c0,-0.19223 0.0496,-0.37826 0.14881,-0.55808c0.09921,-0.17982 0.22013,-0.31005 0.36276,-0.39066c0.26664,-0.16742 0.54568,-0.27903 0.83712,-0.33485c0.63249,0 1.07276,0.28215 1.3208,0.84643l2.80902,6.78069l2.77181,-6.78069c0.24804,-0.56428 0.58908,-0.84643 1.02314,-0.84643c0.44027,0 0.79682,0.12402 1.06965,0.37205c0.27284,0.24804 0.40926,0.50848 0.40926,0.78131c0,0.27284 -0.03721,0.48987 -0.11161,0.6511l-5.25528,12.78938c-0.26044,0.55808 -0.6697,0.83712 -1.22778,0.83712c-0.32245,0 -0.60769,-0.08681 -0.85572,-0.26044c-0.34106,-0.29764 -0.51158,-0.59529 -0.51158,-0.89293c0,-0.29764 0.04962,-0.50538 0.14883,-0.62319zM254.7482,172.29034c-1.82307,0 -2.98264,-0.48367 -3.47872,-1.45102l0.16742,0.0186c-0.031,0.39066 -0.17362,0.6914 -0.42787,0.90222c-0.25423,0.20463 -0.54568,0.30695 -0.87433,0.30695c-0.32865,0 -0.6294,-0.11161 -0.90223,-0.33485c-0.26664,-0.22324 -0.39995,-0.53019 -0.39995,-0.92083v-13.35675c0,-0.43406 0.14572,-0.75342 0.43717,-0.95804c0.29764,-0.20463 0.60769,-0.30695 0.93014,-0.30695c0.32245,0 0.62009,0.10232 0.89293,0.30695c0.27904,0.19842 0.41857,0.51778 0.41857,0.95804l-0.23253,4.38094c-0.08061,-0.16742 0.29145,-0.44646 1.11616,-0.83712c0.6821,-0.34106 1.45102,-0.51158 2.30675,-0.51158c0.85572,0 1.59983,0.17053 2.23233,0.51158c0.63249,0.34106 1.13167,0.78752 1.49753,1.3394c0.78751,1.04796 1.18127,2.39355 1.18127,4.0368c0,1.59983 -0.37515,2.93613 -1.12546,4.00889c-0.90533,1.27118 -2.15171,1.90678 -3.73914,1.90678zM251.51132,166.23516c0,0.51467 0.04962,1.01695 0.14883,1.50682c0.10542,0.48367 0.27284,0.88363 0.50227,1.19988c0.47747,0.71311 1.22778,1.06965 2.25092,1.06965c1.10376,0 1.84167,-0.6449 2.21373,-1.93468c0.13022,-0.50227 0.19842,-1.04795 0.20463,-1.63704c0.0124,-0.58908 -0.031,-1.09446 -0.13022,-1.51612c-0.09921,-0.42787 -0.24185,-0.80612 -0.42787,-1.13478c-0.45267,-0.6821 -1.12546,-1.02314 -2.01839,-1.02314c-0.94254,0 -1.64014,0.32245 -2.09281,0.96734c-0.43406,0.58908 -0.6511,1.42312 -0.6511,2.50207zM271.35728,166.06773c0,0.68829 -0.37515,1.06345 -1.12546,1.12546h-7.01323c0.05581,1.30219 0.6728,2.18892 1.85097,2.66019c0.31625,0.10542 0.69761,0.15812 1.14407,0.15812c0.91774,0 1.86958,-0.34725 2.85552,-1.04176c0.55189,-0.31625 1.03246,-0.27594 1.44171,0.12092c0.24183,0.26044 0.32245,0.51467 0.24183,0.76271c0,0.34725 -0.11472,0.62319 -0.34415,0.82782c-1.09135,1.08516 -2.52687,1.62154 -4.30653,1.60914c-1.63704,0 -2.95783,-0.53327 -3.96238,-1.59983c-1.11616,-1.09756 -1.67424,-2.53617 -1.67424,-4.31584c0,-1.63084 0.45576,-2.98575 1.36729,-4.0647c0.97974,-1.21538 2.34705,-1.82307 4.10191,-1.82307c1.75486,0 3.10356,0.53948 4.04609,1.61844c0.88053,0.96115 1.3394,2.28195 1.37661,3.96238zM268.73429,165.09109c-0.031,-0.52087 -0.29764,-1.05725 -0.79992,-1.60914c-0.45267,-0.47747 -1.11927,-0.7162 -1.9998,-0.7162c-0.73172,0 -1.35799,0.27284 -1.87888,0.81852c-0.48367,0.56428 -0.74101,1.06655 -0.77201,1.50682z" fill="#000000" fill-rule="nonzero" stroke="none" stroke-linecap="square"/><path d="M287.62289,190.05333c-0.22324,-0.15502 -0.47436,-0.25734 -0.75342,-0.30695c-0.27904,-0.05581 -0.7007,-0.08371 -1.26499,-0.08371c-0.56428,0 -1.04486,0.04962 -1.44171,0.14883c-0.39066,0.09921 -0.6945,0.14883 -0.91153,0.14883c-0.21083,0 -0.41546,-0.13642 -0.61389,-0.40926c-0.19842,-0.27904 -0.29764,-0.57049 -0.29764,-0.87434c0,-0.70691 0.32555,-1.12857 0.97665,-1.26499c0.79372,-0.23564 1.66184,-0.35344 2.60438,-0.35344c0.94254,0 1.69284,0.08681 2.25092,0.26044c0.55808,0.17362 1.05416,0.44646 1.48822,0.81852c0.95495,0.81232 1.43241,1.92228 1.43241,3.32989c0,1.22778 -0.49297,2.35634 -1.47892,3.3857c-0.27904,0.27904 -0.56118,0.55189 -0.84643,0.81852c-0.33485,0.37205 -0.6294,0.6666 -0.88363,0.88363c-0.25423,0.21704 -0.43717,0.39066 -0.54878,0.52087c-0.22943,0.26664 -0.34415,0.53327 -0.34415,0.79992v1.00455c0,0.42166 -0.13643,0.73791 -0.40926,0.94874c-0.27284,0.21083 -0.58288,0.31625 -0.93014,0.31625c-0.34725,0 -0.61699,-0.08681 -0.80922,-0.26044c-0.19223,-0.17982 -0.32555,-0.39995 -0.39995,-0.66039c-0.06821,-0.26044 -0.09921,-0.54878 -0.09301,-0.86503c0.0124,-0.32245 0.0279,-0.67281 0.04651,-1.05106c0.0186,-0.37826 0.13951,-0.75342 0.36276,-1.12546c0.22324,-0.37205 0.48368,-0.71 0.78131,-1.01385c0.30385,-0.30385 0.61699,-0.59529 0.93944,-0.87434c0.32865,-0.27904 0.63249,-0.56428 0.91153,-0.85572c0.57049,-0.6697 0.85572,-1.2805 0.85572,-1.83237c0,-0.7007 -0.20774,-1.21848 -0.62319,-1.55333zM284.2651,203.04734c-0.08061,-0.19223 -0.12092,-0.38445 -0.12092,-0.57668c0,-0.19842 0.03721,-0.38136 0.11161,-0.54878c0.07441,-0.17362 0.16742,-0.34725 0.27903,-0.52087c0.35345,-0.29145 0.75342,-0.43717 1.19988,-0.43717c0.45267,0 0.79682,0.10542 1.03246,0.31625c0.24183,0.21083 0.40306,0.41236 0.48367,0.60459c0.08061,0.19223 0.12092,0.38445 0.12092,0.57668c0,0.19223 -0.04341,0.39376 -0.13022,0.60459c-0.08061,0.21083 -0.21083,0.37205 -0.39066,0.48367c-0.32865,0.28524 -0.7007,0.42787 -1.11616,0.42787c-0.46507,0 -0.80612,-0.10852 -1.02314,-0.32555c-0.21704,-0.21704 -0.36585,-0.41857 -0.44646,-0.60459z" fill="#000000" fill-rule="nonzero" stroke="#373737" stroke-linecap="square"/><path d="M220.71596,195.98531c0.41606,0 0.65051,0 0.70335,0v-0.37644c0,-1.16234 -0.67032,-1.74351 -2.01097,-1.74351c-0.69344,0 -1.18545,0.05613 -1.47603,0.1684c-0.59437,0.21793 -1.04016,0.41936 -1.33734,0.60428c-0.29719,0.17831 -0.58447,0.26747 -0.86185,0.26747c-0.27078,0 -0.52833,-0.10566 -0.77269,-0.317c-0.24435,-0.21134 -0.36653,-0.49201 -0.36653,-0.84203c0,-0.317 0.14529,-0.60098 0.43588,-0.85194c1.01044,-0.97081 2.47987,-1.45622 4.40829,-1.45622c2.29165,0 3.77429,0.7991 4.44792,2.39732c0.21793,0.55475 0.32691,1.18545 0.32691,1.89209l-0.05944,6.73627c0,0.42266 -0.14529,0.74627 -0.43588,0.97081c-0.29058,0.22454 -0.59768,0.33682 -0.92128,0.33682c-0.32361,0 -0.634,-0.09575 -0.93119,-0.28728c-0.29719,-0.19813 -0.44578,-0.53163 -0.44578,-1.00054h0.29719c-0.07265,0.62079 -0.7925,1.07648 -2.15957,1.36707c-0.40285,0.10566 -0.86185,0.1585 -1.37697,0.1585c-0.51513,0 -1.03355,-0.07925 -1.55529,-0.23775c-0.51513,-0.1519 -0.97412,-0.39625 -1.37697,-0.73306c-0.84533,-0.70665 -1.268,-1.65765 -1.268,-2.85301c0,-2.80018 2.24542,-4.20026 6.73626,-4.20026zM221.53818,198.29348c-0.01982,0.07925 -0.23775,0.11887 -0.65381,0.11887c-0.41606,0 -0.82883,0.0066 -1.23828,0.01982c-0.40946,0.0066 -0.7892,0.04953 -1.13923,0.12878c-0.34341,0.07265 -0.65051,0.18492 -0.92128,0.33682c-0.48871,0.25756 -0.74627,0.68023 -0.77269,1.268c0,0.42927 0.18162,0.76939 0.54484,1.02034c0.30379,0.25096 0.75618,0.38304 1.35716,0.39625c0.73967,0 1.37697,-0.23445 1.91191,-0.70335c0.4755,-0.44248 0.73967,-1.13262 0.7925,-2.07041zM226.52288,193.01343c0,-0.41606 0.1519,-0.74627 0.45569,-0.99063c0.30379,-0.25096 0.61749,-0.37644 0.9411,-0.37644c0.65381,0 1.06658,0.23114 1.23828,0.69344c0.17171,0.4623 0.04953,1.02695 -0.36653,1.69398c-0.04623,-0.82553 0.37644,-1.48264 1.268,-1.97135c0.75948,-0.41606 1.50906,-0.6241 2.24873,-0.6241c0.74627,0 1.38358,0.09575 1.91191,0.28728c0.52833,0.18492 1.01375,0.4755 1.45622,0.87175c0.89157,0.84533 1.33734,2.06381 1.33734,3.65542v6.18152c0,0.45569 -0.1651,0.7925 -0.49531,1.01044c-0.32361,0.21793 -0.64391,0.32691 -0.9609,0.32691c-0.36323,0 -0.69014,-0.11887 -0.98072,-0.35662c-0.28397,-0.23775 -0.42597,-0.56466 -0.42597,-0.98072v-6.30039c0,-0.76609 -0.19813,-1.34065 -0.59437,-1.72369c-0.36984,-0.36323 -0.83213,-0.54484 -1.38688,-0.54484c-0.80571,0 -1.48924,0.22784 -2.0506,0.68353c-0.53494,0.4755 -0.80241,1.23828 -0.80241,2.28835v5.59704c0,0.45569 -0.1585,0.7925 -0.4755,1.01044c-0.3104,0.21793 -0.63731,0.32691 -0.98072,0.32691c-0.36984,0 -0.68684,-0.12218 -0.95101,-0.36653c-0.25756,-0.24435 -0.38635,-0.56796 -0.38635,-0.97081zM247.44156,202.4343c-0.56796,1.05006 -1.77982,1.5751 -3.6356,1.5751c-1.69728,0 -3.02802,-0.68023 -3.99222,-2.04069c-0.7991,-1.18215 -1.19866,-2.60205 -1.19866,-4.2597c0,-2.81338 0.95761,-4.71869 2.87282,-5.71592c0.65381,-0.36984 1.30763,-0.55475 1.96144,-0.55475c0.66041,0 1.20526,0.03962 1.63454,0.11887c0.42927,0.07265 0.84203,0.21793 1.23828,0.43588c0.81892,0.40946 1.19536,0.69344 1.12932,0.85194l-0.20804,-4.63614c0,-0.4755 0.1585,-0.81892 0.4755,-1.03025c0.317,-0.21134 0.64391,-0.317 0.98072,-0.317c0.35662,0 0.67693,0.10897 0.9609,0.32691c0.29058,0.21134 0.43588,0.55145 0.43588,1.02034v14.22541c0,0.44909 -0.1552,0.7859 -0.46559,1.01044c-0.3104,0.21793 -0.58447,0.32691 -0.82222,0.32691c-0.23114,0 -0.43588,-0.02312 -0.61419,-0.06935c-0.17831,-0.05283 -0.33682,-0.1486 -0.4755,-0.28728c-0.317,-0.21793 -0.4755,-0.54484 -0.4755,-0.98072zM244.15267,201.58236c2.02088,0 3.03132,-1.35055 3.03132,-4.05166c0,-1.74351 -0.49531,-2.86952 -1.48594,-3.37804c-0.37644,-0.19152 -0.83213,-0.28728 -1.36707,-0.28728c-0.52833,0 -0.9609,0.09906 -1.29772,0.29719c-0.33021,0.19152 -0.60758,0.459 -0.83213,0.80241c-0.42927,0.67363 -0.64391,1.53877 -0.64391,2.59544c0,1.585 0.35993,2.73744 1.07979,3.45729c0.36323,0.37644 0.86845,0.56466 1.51566,0.56466z" fill="#000000" fill-rule="nonzero" stroke="none" stroke-linecap="square"/><path d="M207.91085,194.07066c0,3.56743 -2.17932,5.6357 -4.48357,7.81503c-1.44363,1.36035 -2.9289,2.77622 -4.13655,4.71956c-0.19434,0.2915 -0.5136,0.48584 -0.87451,0.48584h-0.01388c-0.34703,0 -0.68017,-0.18046 -0.87451,-0.47195c-1.23542,-1.91558 -2.69293,-3.27592 -4.10879,-4.59463c-2.31813,-2.16544 -4.51135,-4.21985 -4.51135,-7.95383c0,-3.19264 2.45694,-5.7884 5.48302,-5.7884c1.55468,0 2.9983,0.69405 4.02551,1.86006c1.02719,-1.16601 2.48471,-1.86006 4.02551,-1.86006c3.02606,0 5.48302,2.59576 5.46913,5.7884z" fill="#000000" fill-rule="evenodd" stroke="none" stroke-linecap="butt"/><path d="M272.0624,205.51546c-1.49867,0.90509 -5.90185,-3.77319 -5.90185,-3.77319c0,0 -5.1308,3.87076 -6.45555,2.72466c-1.3259,-1.14605 1.76436,-6.78112 1.76436,-6.78112c0,0 -5.26598,-3.68384 -4.58541,-5.29769c0.68056,-1.61509 6.99387,-0.4173 6.99387,-0.4173c0,0 1.87485,-6.14637 3.62035,-5.99943c1.74788,0.14809 2.56011,6.52368 2.56011,6.52368c0,0 6.42498,-0.11637 6.82228,1.59035c0.40082,1.70558 -5.41174,4.44905 -5.41174,4.44905c0,0 2.09581,6.07587 0.59358,6.98095z" fill="#000000" fill-rule="nonzero" stroke="none" stroke-linecap="butt"/></g></g></svg>