<svg version="1.1" xmlns="http://www.w3.org/2000/svg" xmlns:xlink="http://www.w3.org/1999/xlink" width="155.01201" height="71.544" viewBox="0,0,155.01201,71.544"><g transform="translate(-162.49399,-144.228)"><g data-paper-data="{&quot;isPaintingLayer&quot;:true}" fill-rule="nonzero" stroke="none" stroke-linejoin="miter" stroke-miterlimit="10" stroke-dasharray="" stroke-dashoffset="0" style="mix-blend-mode: normal"><path d="M162.49399,207.1c0,-15.39767 0,-46.66972 0,-54.92267c0,-3.91529 3.64948,-7.94933 7.94934,-7.94933c15.5113,0 108.45108,0 138.02934,0c5.68841,0 9.03333,4.24438 9.03333,8.31067c0,8.47827 0,40.26824 0,55.284c0,4.84946 -3.20355,7.94933 -8.672,7.94933c-29.17464,0 -122.81565,0 -138.39067,0c-4.29986,0 -7.94934,-3.40853 -7.94934,-8.672z" fill="#ffffff" stroke-width="0" stroke-linecap="butt"/><path d="M182.09959,163.95709c0.01816,0.10534 0.02724,0.20523 0.02724,0.29968c0,0.09444 -0.02724,0.19797 -0.08173,0.31057c-0.05449,0.10897 -0.12532,0.18888 -0.2125,0.23974c-0.14893,0.13077 -0.3251,0.19615 -0.52852,0.19615c-0.38504,0 -0.64476,-0.17254 -0.77916,-0.51762l-0.71377,-1.75991h-3.93391l-0.69743,1.74901c-0.1126,0.35234 -0.34508,0.52852 -0.69742,0.52852c-0.34871,0 -0.61025,-0.1453 -0.7846,-0.43589c-0.05812,-0.1126 -0.08718,-0.21613 -0.08718,-0.31057c0,-0.09444 0.02361,-0.2016 0.07083,-0.32147l2.89867,-7.12137c0.25064,-0.62114 0.56666,-0.98439 0.94806,-1.08973c0.07991,-0.0109 0.18707,-0.02906 0.32147,-0.05449c0.30876,0 0.53941,0.07083 0.69198,0.2125c0.20342,0.15256 0.40138,0.46313 0.5939,0.93172zM176.40576,161.29815h2.88778l-1.44934,-3.63969zM182.38012,161.66866c0,-0.95896 0.27425,-1.75809 0.82274,-2.3974c0.60298,-0.70106 1.38759,-1.05159 2.35381,-1.05159c0.81366,0 1.44389,0.17617 1.89067,0.52852c0.19252,0.13803 0.28878,0.31057 0.28878,0.51762c0,0.20342 -0.05993,0.36869 -0.1798,0.49583c-0.11624,0.12714 -0.25427,0.1907 -0.4141,0.1907c-0.15983,0 -0.28151,-0.03269 -0.36506,-0.09807c-0.35234,-0.19978 -0.7283,-0.29604 -1.12787,-0.28878c-0.49038,0 -0.87541,0.18344 -1.15511,0.55031c-0.33055,0.39957 -0.49583,0.91719 -0.49583,1.55286c0,0.59572 0.11987,1.09518 0.35961,1.49838c0.26153,0.42136 0.69198,0.63204 1.29133,0.63204c0.34145,0 0.76644,-0.12169 1.27498,-0.36506c0.2797,-0.16346 0.52489,-0.1235 0.73557,0.11987c0.11624,0.11624 0.17436,0.27425 0.17436,0.47403c0,0.19615 -0.09444,0.37051 -0.28333,0.52307c-0.18889,0.15256 -0.39593,0.26516 -0.62114,0.33781c-0.49764,0.17072 -0.9862,0.25427 -1.46568,0.25064c-0.47585,-0.00363 -0.90992,-0.09444 -1.30222,-0.27243c-0.3923,-0.18162 -0.71922,-0.44497 -0.98076,-0.79005c-0.53397,-0.63931 -0.80095,-1.44207 -0.80095,-2.4083zM192.92724,160.76964c0,-0.41046 -0.10897,-0.72648 -0.32692,-0.94806c-0.18889,-0.17799 -0.41954,-0.26699 -0.69197,-0.26699c-0.2688,0 -0.49764,0.03088 -0.68653,0.09263c-0.18889,0.06175 -0.35416,0.16346 -0.49583,0.30512c-0.30512,0.28696 -0.45769,0.70469 -0.45769,1.25319v3.06213c0,0.25064 -0.08718,0.43589 -0.26154,0.55576c-0.17072,0.11987 -0.35053,0.1798 -0.53941,0.1798c-0.20342,0 -0.37777,-0.0672 -0.52307,-0.2016c-0.14166,-0.1344 -0.2125,-0.31239 -0.2125,-0.53397v-7.82424c0,-0.25064 0.08536,-0.43589 0.25609,-0.55576c0.17072,-0.1235 0.34145,-0.18525 0.51217,-0.18525c0.18889,0 0.36324,0.05994 0.52307,0.17981c0.16346,0.11624 0.24519,0.30331 0.24519,0.56121l-0.17436,2.61534c-0.07991,-0.10897 0.11624,-0.28151 0.58845,-0.51762c0.4141,-0.21431 0.82456,-0.32147 1.23139,-0.32147c0.41046,0 0.75918,0.05086 1.04614,0.15256c0.28696,0.10171 0.55394,0.25063 0.80095,0.44679c0.49401,0.46858 0.74101,1.14058 0.74101,2.016v3.43264c0,0.25064 -0.09081,0.43589 -0.27243,0.55576c-0.17799,0.11987 -0.35416,0.1798 -0.52852,0.1798c-0.19978,0 -0.37959,-0.06538 -0.53941,-0.19615c-0.15619,-0.13077 -0.23429,-0.31057 -0.23429,-0.53941zM197.52948,156.50336c0,0.2579 -0.089,0.46677 -0.26699,0.62659c-0.17436,0.15983 -0.40501,0.23974 -0.69197,0.23974c-0.28696,0 -0.51944,-0.0781 -0.69742,-0.23429c-0.17799,-0.15983 -0.26699,-0.37051 -0.26699,-0.63204c0,-0.23248 0.089,-0.42863 0.26699,-0.58845c0.17799,-0.16346 0.41409,-0.24519 0.70832,-0.24519c0.29423,0 0.52489,0.08173 0.69198,0.24519c0.17072,0.16346 0.25609,0.35961 0.25609,0.58845zM195.80226,159.13505c0,-0.247 0.08173,-0.44134 0.24519,-0.583c0.16709,-0.1453 0.32328,-0.21795 0.46858,-0.21795c0.1453,0 0.26154,0.02179 0.34872,0.06538c0.08718,0.04359 0.16164,0.09444 0.22339,0.15256c0.18889,0.1235 0.28333,0.31784 0.28333,0.583v5.09992c0,0.2579 -0.08536,0.45042 -0.25608,0.57755c-0.17072,0.12714 -0.35234,0.1907 -0.54486,0.1907c-0.19615,0 -0.37414,-0.06538 -0.53397,-0.19615c-0.15619,-0.13077 -0.23429,-0.32147 -0.23429,-0.57211zM204.68166,161.48886c0,0.4032 -0.21976,0.62296 -0.65928,0.65929h-4.10827c0.03269,0.76281 0.39412,1.28225 1.08428,1.55831c0.18525,0.06175 0.40865,0.09263 0.67018,0.09263c0.5376,0 1.09517,-0.20342 1.67273,-0.61025c0.32329,-0.18525 0.6048,-0.16165 0.84454,0.07083c0.14166,0.15256 0.18889,0.30149 0.14166,0.44679c0,0.20342 -0.0672,0.36506 -0.2016,0.48493c-0.63931,0.63567 -1.48021,0.94988 -2.52272,0.94262c-0.95896,0 -1.73266,-0.31239 -2.32112,-0.93717c-0.65383,-0.64294 -0.98076,-1.48566 -0.98076,-2.52817c0,-0.95533 0.26699,-1.74901 0.80095,-2.38105c0.57392,-0.71195 1.37487,-1.06793 2.40285,-1.06793c1.02797,0 1.81802,0.31602 2.37015,0.94806c0.5158,0.56303 0.7846,1.33673 0.8064,2.32112zM203.14514,160.91675c-0.01816,-0.30512 -0.17435,-0.61933 -0.46858,-0.94262c-0.26517,-0.2797 -0.65565,-0.41955 -1.17145,-0.41955c-0.42862,0 -0.7955,0.15983 -1.10062,0.47948c-0.28333,0.33055 -0.43407,0.62478 -0.45224,0.88268zM209.24857,164.08785c-0.12714,0.29423 -0.27425,0.52125 -0.44134,0.68108c-0.16346,0.15619 -0.39412,0.23429 -0.69197,0.23429c-0.30149,0 -0.5376,-0.07628 -0.70832,-0.22884c-0.16709,-0.15619 -0.29968,-0.38867 -0.39775,-0.69742l-1.9942,-4.68583c-0.17436,-0.31965 -0.09807,-0.59935 0.22884,-0.83909c0.14166,-0.10897 0.29786,-0.18162 0.46858,-0.21795c0.39957,0 0.6502,0.18344 0.75191,0.55031l1.64549,3.94481l1.591,-3.95571c0.11624,-0.32329 0.33963,-0.50309 0.67018,-0.53941c0.33418,0 0.583,0.13622 0.74646,0.40865c0.08355,0.12714 0.11442,0.24156 0.09263,0.34326c-0.01816,0.10171 -0.03996,0.19434 -0.06538,0.27788zM217.87665,161.48886c0,0.4032 -0.21976,0.62296 -0.65928,0.65929h-4.10827c0.03269,0.76281 0.39412,1.28225 1.08428,1.55831c0.18525,0.06175 0.40865,0.09263 0.67018,0.09263c0.5376,0 1.09518,-0.20342 1.67273,-0.61025c0.32329,-0.18525 0.6048,-0.16165 0.84454,0.07083c0.14166,0.15256 0.18889,0.30149 0.14166,0.44679c0,0.20342 -0.0672,0.36506 -0.2016,0.48493c-0.63931,0.63567 -1.48021,0.94988 -2.52272,0.94262c-0.95896,0 -1.73266,-0.31239 -2.32111,-0.93717c-0.65383,-0.64294 -0.98076,-1.48566 -0.98076,-2.52817c0,-0.95533 0.26698,-1.74901 0.80095,-2.38105c0.57392,-0.71195 1.37487,-1.06793 2.40285,-1.06793c1.02797,0 1.81803,0.31602 2.37016,0.94806c0.5158,0.56303 0.7846,1.33673 0.8064,2.32112zM216.34014,160.91675c-0.01816,-0.30512 -0.17435,-0.61933 -0.46858,-0.94262c-0.26517,-0.2797 -0.65565,-0.41955 -1.17146,-0.41955c-0.42862,0 -0.7955,0.15983 -1.10062,0.47948c-0.28333,0.33055 -0.43407,0.62478 -0.45224,0.88268zM224.13264,159.39113c0.38141,-0.78097 1.10789,-1.17145 2.17945,-1.17145c1.12242,0 1.87433,0.47948 2.25573,1.43844c0.13077,0.34145 0.19615,0.73375 0.19615,1.17691v3.43264c0,0.247 -0.08354,0.43226 -0.25063,0.55576c-0.16709,0.11987 -0.33963,0.1798 -0.51762,0.1798c-0.19615,0 -0.37777,-0.06357 -0.54486,-0.1907c-0.16346,-0.13077 -0.24519,-0.31239 -0.24519,-0.54486v-3.49802c0,-0.41046 -0.10898,-0.72648 -0.32692,-0.94806c-0.19615,-0.17799 -0.46132,-0.26699 -0.7955,-0.26699c-0.6829,0 -1.14603,0.27425 -1.3894,0.82275c-0.09807,0.21068 -0.14711,0.4704 -0.14711,0.77915v3.11117c0,0.247 -0.08355,0.43226 -0.25064,0.55576c-0.16709,0.11987 -0.33963,0.1798 -0.51762,0.1798c-0.19978,0 -0.38141,-0.06538 -0.54486,-0.19615c-0.15983,-0.13077 -0.23974,-0.31057 -0.23974,-0.53941v-3.49802c0,-0.4141 -0.10534,-0.73012 -0.31602,-0.94806c-0.19615,-0.17799 -0.43407,-0.26699 -0.71377,-0.26699c-0.27606,0 -0.50309,0.03088 -0.68108,0.09263c-0.17799,0.06175 -0.33782,0.16164 -0.47948,0.29968c-0.28696,0.29059 -0.43952,0.7065 -0.45769,1.24773v3.07303c0,0.25064 -0.08718,0.43589 -0.26153,0.55576c-0.17072,0.11987 -0.3469,0.1798 -0.52852,0.1798c-0.17799,0 -0.35234,-0.06357 -0.52307,-0.1907c-0.17072,-0.12714 -0.25608,-0.30876 -0.25608,-0.54486v-5.18165c0,-0.23248 0.08355,-0.41591 0.25064,-0.55031c0.17072,-0.1344 0.33236,-0.2016 0.48493,-0.2016c0.15256,0 0.2688,0.01998 0.34871,0.05993c0.07991,0.03996 0.15075,0.07992 0.2125,0.11987c0.18162,0.15256 0.27243,0.33782 0.27243,0.55576h-0.17436c-0.07991,-0.11624 0.10897,-0.29241 0.56666,-0.52852c0.3923,-0.21431 0.84999,-0.32147 1.37306,-0.32147c0.8173,0 1.44934,0.26698 1.89612,0.80095c0.1453,0.19615 0.18707,0.31965 0.12532,0.37051zM236.05785,161.48886c0,0.4032 -0.21976,0.62296 -0.65928,0.65929h-4.10827c0.03269,0.76281 0.39412,1.28225 1.08428,1.55831c0.18525,0.06175 0.40865,0.09263 0.67018,0.09263c0.5376,0 1.09518,-0.20342 1.67273,-0.61025c0.32329,-0.18525 0.6048,-0.16165 0.84454,0.07083c0.14166,0.15256 0.18889,0.30149 0.14166,0.44679c0,0.20342 -0.0672,0.36506 -0.2016,0.48493c-0.63931,0.63567 -1.48021,0.94988 -2.52272,0.94262c-0.95896,0 -1.73266,-0.31239 -2.32112,-0.93717c-0.65383,-0.64294 -0.98076,-1.48566 -0.98076,-2.52817c0,-0.95533 0.26698,-1.74901 0.80095,-2.38105c0.57392,-0.71195 1.37487,-1.06793 2.40285,-1.06793c1.02797,0 1.81803,0.31602 2.37016,0.94806c0.5158,0.56303 0.7846,1.33673 0.8064,2.32112zM234.52133,160.91675c-0.01816,-0.30512 -0.17435,-0.61933 -0.46858,-0.94262c-0.26517,-0.2797 -0.65565,-0.41955 -1.17146,-0.41955c-0.42862,0 -0.7955,0.15983 -1.10062,0.47948c-0.28333,0.33055 -0.43408,0.62478 -0.45224,0.88268zM236.99052,159.08601c0,-0.22884 0.08355,-0.41047 0.25064,-0.54486c0.16709,-0.13803 0.33963,-0.20705 0.51762,-0.20705c0.35961,0 0.58663,0.12714 0.68108,0.38141c0.09444,0.25427 0.02724,0.56484 -0.2016,0.93172c-0.02543,-0.45405 0.20705,-0.81548 0.69742,-1.08428c0.41773,-0.22884 0.83001,-0.34326 1.23684,-0.34326c0.41046,0 0.76099,0.05267 1.05159,0.15801c0.29059,0.10171 0.55758,0.26154 0.80095,0.47948c0.49038,0.46495 0.73557,1.13513 0.73557,2.01055v3.39995c0,0.25064 -0.09081,0.43589 -0.27243,0.55576c-0.17799,0.11987 -0.35416,0.1798 -0.52852,0.1798c-0.19978,0 -0.37959,-0.06538 -0.53941,-0.19615c-0.15619,-0.13077 -0.23429,-0.31057 -0.23429,-0.53941v-3.46533c0,-0.42136 -0.10898,-0.73738 -0.32692,-0.94806c-0.20342,-0.19978 -0.45769,-0.29968 -0.76281,-0.29968c-0.44316,0 -0.81911,0.12532 -1.12787,0.37596c-0.29423,0.26153 -0.44134,0.68108 -0.44134,1.25864v3.07848c0,0.25064 -0.08718,0.43589 -0.26153,0.55576c-0.17072,0.11987 -0.35053,0.1798 -0.53941,0.1798c-0.20342,0 -0.37777,-0.0672 -0.52307,-0.2016c-0.14166,-0.1344 -0.2125,-0.31239 -0.2125,-0.53397zM247.84234,164.36029c0,0.5158 -0.47585,0.77371 -1.42754,0.77371c-0.6611,0 -1.13876,-0.19434 -1.43299,-0.583c-0.29059,-0.37777 -0.4486,-0.97894 -0.47403,-1.8035v-3.08393h-0.41955c-0.21068,0 -0.3814,-0.06901 -0.51217,-0.20705c-0.12714,-0.13803 -0.1907,-0.28878 -0.1907,-0.45224c0,-0.14893 0.05449,-0.29786 0.16346,-0.44679c0.1126,-0.14893 0.29241,-0.2234 0.53941,-0.2234h0.49583l0.04904,-1.47113c0.03632,-0.21794 0.13077,-0.38322 0.28333,-0.49583c0.15619,-0.1126 0.32147,-0.16891 0.49583,-0.16891c0.17436,0 0.32874,0.05994 0.46313,0.17981c0.1344,0.11624 0.2016,0.28696 0.2016,0.51217v1.44389h0.81729c0.22158,0 0.3923,0.07447 0.51217,0.2234c0.11987,0.1453 0.1798,0.29422 0.1798,0.44679c0,0.18889 -0.06357,0.3469 -0.1907,0.47403c-0.1235,0.1235 -0.29059,0.18525 -0.50127,0.18525h-0.81729v2.54996c0,0.75918 0.01816,1.19688 0.05449,1.31312c0.03996,0.1126 0.09081,0.18707 0.15256,0.22339c0.06175,0.03269 0.15074,0.04904 0.26698,0.04904l0.62114,-0.04904c0.21794,0 0.38322,0.06901 0.49583,0.20705c0.11624,0.13803 0.17436,0.27243 0.17436,0.4032zM257.35047,164.26766c0,0.25064 -0.09081,0.43589 -0.27243,0.55576c-0.17799,0.11987 -0.32873,0.1798 -0.45224,0.1798c-0.11987,0 -0.23248,-0.01271 -0.33782,-0.03814c-0.10534,-0.02906 -0.1907,-0.08355 -0.25608,-0.16346c-0.17072,-0.11624 -0.25609,-0.29423 -0.25609,-0.53397h0.16891c-0.03996,0.36324 -0.44679,0.62296 -1.22049,0.77916c-0.23248,0.05812 -0.48675,0.08718 -0.76281,0.08718c-0.27243,0 -0.56121,-0.04904 -0.86634,-0.14711c-0.30512,-0.10171 -0.56847,-0.26335 -0.79005,-0.48493c-0.48311,-0.45769 -0.72467,-1.13513 -0.72467,-2.03234v-3.36726c0,-0.23611 0.0781,-0.42318 0.23429,-0.56121c0.15619,-0.13803 0.33418,-0.20705 0.53397,-0.20705c0.19978,0 0.37778,0.06901 0.53397,0.20705c0.15619,0.13803 0.23429,0.3251 0.23429,0.56121v3.44899c0,0.49401 0.08718,0.82456 0.26154,0.99165c0.18162,0.17072 0.46858,0.25609 0.86088,0.25609c0.66837,0 1.12787,-0.26698 1.37851,-0.80095c0.09807,-0.18889 0.15074,-0.40502 0.15801,-0.64839v-3.24739c0,-0.24337 0.08355,-0.43226 0.25064,-0.56666c0.17072,-0.1344 0.35598,-0.2016 0.55576,-0.2016c0.19978,0 0.37777,0.06901 0.53397,0.20705c0.15619,0.13803 0.23429,0.3251 0.23429,0.56121zM258.65084,159.08601c0,-0.22884 0.08355,-0.41047 0.25064,-0.54486c0.16709,-0.13803 0.33963,-0.20705 0.51762,-0.20705c0.35961,0 0.58663,0.12714 0.68108,0.38141c0.09444,0.25427 0.02724,0.56484 -0.2016,0.93172c-0.02543,-0.45405 0.20704,-0.81548 0.6974,-1.08428c0.41773,-0.22884 0.83001,-0.34326 1.23684,-0.34326c0.41046,0 0.76099,0.05267 1.05159,0.15801c0.29059,0.10171 0.55758,0.26154 0.80095,0.47948c0.49038,0.46495 0.73557,1.13513 0.73557,2.01055v3.39995c0,0.25064 -0.09081,0.43589 -0.27243,0.55576c-0.17799,0.11987 -0.35416,0.1798 -0.52852,0.1798c-0.19978,0 -0.37959,-0.06538 -0.53941,-0.19615c-0.15619,-0.13077 -0.23429,-0.31057 -0.23429,-0.53941v-3.46533c0,-0.42136 -0.10898,-0.73738 -0.32692,-0.94806c-0.20342,-0.19978 -0.45769,-0.29968 -0.76281,-0.29968c-0.44316,0 -0.81911,0.12532 -1.12787,0.37596c-0.29421,0.26153 -0.44132,0.68108 -0.44132,1.25864v3.07848c0,0.25064 -0.08718,0.43589 -0.26154,0.55576c-0.17072,0.11987 -0.35053,0.1798 -0.53941,0.1798c-0.20342,0 -0.37777,-0.0672 -0.52307,-0.2016c-0.14166,-0.1344 -0.2125,-0.31239 -0.2125,-0.53397zM265.72129,156.47611c0,-0.27243 0.08536,-0.46858 0.25609,-0.58845c0.17072,-0.1235 0.31784,-0.18525 0.44134,-0.18525c0.12714,0 0.23611,0.00908 0.32692,0.02724c0.09444,0.01816 0.18162,0.0672 0.26153,0.14711c0.18889,0.11987 0.28333,0.31965 0.28333,0.59935v7.75886c0,0.2579 -0.08536,0.45042 -0.25609,0.57755c-0.17072,0.12714 -0.35234,0.1907 -0.54486,0.1907c-0.19615,0 -0.37414,-0.06538 -0.53397,-0.19615c-0.15619,-0.13077 -0.23429,-0.32147 -0.23429,-0.57211zM268.17131,161.68501c0,-0.4141 0.0672,-0.83001 0.2016,-1.24774c0.1344,-0.41773 0.33964,-0.7955 0.6157,-1.13331c0.59572,-0.72285 1.42936,-1.08428 2.50092,-1.08428c1.0752,0 1.90884,0.36324 2.50092,1.08973c0.54486,0.66837 0.8173,1.45479 0.8173,2.35926c0,0.91174 -0.27243,1.69816 -0.8173,2.35926c-0.59208,0.73738 -1.42573,1.10607 -2.50092,1.10607c-1.07156,0 -1.90521,-0.36688 -2.50092,-1.10062c-0.54486,-0.65383 -0.8173,-1.43662 -0.8173,-2.34836zM269.78955,161.68501c0,0.23248 0.03088,0.47766 0.09263,0.73557c0.06538,0.2579 0.17799,0.49583 0.33781,0.71377c0.30876,0.44316 0.73193,0.66473 1.26953,0.66473c0.57029,0 0.99165,-0.21613 1.26408,-0.64839c0.2797,-0.44316 0.41955,-0.93717 0.41955,-1.48203c0,-0.55939 -0.13803,-1.04069 -0.4141,-1.44389c-0.28696,-0.44679 -0.71014,-0.67018 -1.26953,-0.67018c-0.5376,0 -0.96078,0.22703 -1.26953,0.68108c-0.28696,0.38867 -0.43044,0.87178 -0.43044,1.44934zM275.27415,161.66866c0,-0.95896 0.27425,-1.75809 0.82275,-2.3974c0.60298,-0.70106 1.38758,-1.05159 2.35381,-1.05159c0.81366,0 1.44389,0.17617 1.89068,0.52852c0.19252,0.13803 0.28878,0.31057 0.28878,0.51762c0,0.20342 -0.05994,0.36869 -0.17981,0.49583c-0.11624,0.12714 -0.25427,0.1907 -0.4141,0.1907c-0.15983,0 -0.28151,-0.03269 -0.36506,-0.09807c-0.35234,-0.19978 -0.7283,-0.29604 -1.12787,-0.28878c-0.49038,0 -0.87541,0.18344 -1.15511,0.55031c-0.33055,0.39957 -0.49583,0.91719 -0.49583,1.55286c0,0.59572 0.11987,1.09518 0.35961,1.49838c0.26153,0.42136 0.69197,0.63204 1.29132,0.63204c0.34145,0 0.76644,-0.12169 1.27498,-0.36506c0.2797,-0.16346 0.52488,-0.1235 0.73556,0.11987c0.11624,0.11624 0.17436,0.27425 0.17436,0.47403c0,0.19615 -0.09444,0.37051 -0.28333,0.52307c-0.18889,0.15256 -0.39593,0.26516 -0.62114,0.33781c-0.49764,0.17072 -0.9862,0.25427 -1.46568,0.25064c-0.47585,-0.00363 -0.90992,-0.09444 -1.30222,-0.27243c-0.3923,-0.18162 -0.71922,-0.44497 -0.98075,-0.79005c-0.53397,-0.63931 -0.80095,-1.44207 -0.80095,-2.4083zM283.22773,162.15904v2.07593c0,0.25427 -0.08355,0.44679 -0.25064,0.57755c-0.16346,0.12714 -0.34145,0.1907 -0.53397,0.1907c-0.18889,0 -0.36324,-0.06538 -0.52307,-0.19615c-0.15619,-0.13077 -0.23429,-0.32147 -0.23429,-0.57211v-7.75886c0,-0.2688 0.07992,-0.46495 0.23974,-0.58845c0.15983,-0.1235 0.30875,-0.18525 0.44679,-0.18525c0.13803,0 0.25609,0.00908 0.35416,0.02724c0.10171,0.01816 0.19434,0.07265 0.27788,0.16346c0.14893,0.1235 0.22339,0.31784 0.22339,0.583v4.01019l2.28298,-1.91247c0.14166,-0.15983 0.31057,-0.23974 0.50672,-0.23974c0.19252,0 0.36324,0.07083 0.51217,0.2125c0.14893,0.13803 0.22339,0.28696 0.22339,0.44679c0,0.23611 -0.0781,0.41228 -0.23429,0.52852l-2.13042,1.7817l2.47913,2.50637c0.11624,0.11624 0.17436,0.25245 0.17436,0.40865c0,0.15619 -0.02542,0.27788 -0.07628,0.36506c-0.04722,0.08718 -0.11079,0.16346 -0.1907,0.22884c-0.15983,0.12714 -0.33055,0.1907 -0.51217,0.1907c-0.18162,0 -0.35416,-0.08173 -0.51762,-0.24519zM293.67972,161.48886c0,0.4032 -0.21976,0.62296 -0.65928,0.65929h-4.10827c0.03269,0.76281 0.39412,1.28225 1.08428,1.55831c0.18525,0.06175 0.40865,0.09263 0.67018,0.09263c0.5376,0 1.09518,-0.20342 1.67273,-0.61025c0.32329,-0.18525 0.6048,-0.16165 0.84454,0.07083c0.14166,0.15256 0.18889,0.30149 0.14166,0.44679c0,0.20342 -0.0672,0.36506 -0.2016,0.48493c-0.63931,0.63567 -1.48021,0.94988 -2.52272,0.94262c-0.95896,0 -1.73266,-0.31239 -2.32112,-0.93717c-0.65383,-0.64294 -0.98076,-1.48566 -0.98076,-2.52817c0,-0.95533 0.26698,-1.74901 0.80095,-2.38105c0.57392,-0.71195 1.37487,-1.06793 2.40285,-1.06793c1.02797,0 1.81803,0.31602 2.37016,0.94806c0.5158,0.56303 0.7846,1.33673 0.8064,2.32112zM292.14321,160.91675c-0.01816,-0.30512 -0.17435,-0.61933 -0.46858,-0.94262c-0.26517,-0.2797 -0.65565,-0.41955 -1.17146,-0.41955c-0.42862,0 -0.7955,0.15983 -1.10062,0.47948c-0.28333,0.33055 -0.43407,0.62478 -0.45224,0.88268zM299.04758,164.26766c-0.31239,0.57755 -0.97894,0.86634 -1.99965,0.86634c-0.93353,0 -1.66546,-0.37414 -2.1958,-1.12242c-0.43952,-0.6502 -0.65929,-1.43118 -0.65929,-2.34292c0,-1.54741 0.5267,-2.59537 1.5801,-3.14386c0.35961,-0.20342 0.71922,-0.30512 1.07883,-0.30512c0.36324,0 0.66292,0.02179 0.89903,0.06538c0.23611,0.03996 0.46313,0.11987 0.68108,0.23974c0.45042,0.22521 0.65747,0.38141 0.62114,0.46858l-0.11442,-2.54996c0,-0.26153 0.08718,-0.45042 0.26154,-0.56666c0.17436,-0.11624 0.35416,-0.17436 0.53941,-0.17436c0.19615,0 0.37232,0.05994 0.52852,0.17981c0.15983,0.11624 0.23974,0.30331 0.23974,0.56121v7.82424c0,0.247 -0.08536,0.43226 -0.25609,0.55576c-0.17072,0.11987 -0.32147,0.1798 -0.45224,0.1798c-0.12714,0 -0.23974,-0.01271 -0.33782,-0.03814c-0.09807,-0.02906 -0.18525,-0.08173 -0.26153,-0.15801c-0.17436,-0.11987 -0.26154,-0.29968 -0.26154,-0.53941zM297.23863,163.79908c1.11152,0 1.66728,-0.74283 1.66728,-2.22849c0,-0.95896 -0.27243,-1.57828 -0.8173,-1.85798c-0.20705,-0.10534 -0.45768,-0.15801 -0.75191,-0.15801c-0.29059,0 -0.52852,0.05449 -0.71377,0.16346c-0.18162,0.10534 -0.33418,0.25245 -0.45769,0.44134c-0.23611,0.37051 -0.35416,0.84635 -0.35416,1.42754c0,0.87178 0.19797,1.50564 0.5939,1.90158c0.19978,0.20705 0.47766,0.31057 0.83364,0.31057zM301.85691,159.18408c0,-0.39593 0.18707,-0.67381 0.56121,-0.83364c0.10897,-0.03269 0.23974,-0.04904 0.3923,-0.04904c0.15256,0 0.28333,0.02361 0.3923,0.07083c0.10897,0.04722 0.20705,0.1126 0.29423,0.19615c0.18525,0.17436 0.2688,0.38322 0.25064,0.62659c0,0.37777 -0.18162,0.63931 -0.54486,0.7846c-0.10534,0.04359 -0.23066,0.07083 -0.37596,0.08173c-0.1453,0.00727 -0.27243,-0.0109 -0.3814,-0.05449c-0.10897,-0.04722 -0.21431,-0.10352 -0.31602,-0.16891c-0.18162,-0.19978 -0.27243,-0.41773 -0.27243,-0.65384zM301.91684,164.45836c-0.03996,-0.11624 -0.05993,-0.22884 -0.05993,-0.33781c0,-0.10897 0.01998,-0.21795 0.05993,-0.32692c0.04359,-0.10897 0.11079,-0.20523 0.2016,-0.28878c0.09444,-0.08355 0.19797,-0.14893 0.31057,-0.19615c0.11624,-0.04722 0.247,-0.07083 0.3923,-0.07083c0.1453,0 0.27243,0.02361 0.38141,0.07083c0.10897,0.04722 0.20705,0.11442 0.29423,0.2016c0.09081,0.08718 0.15438,0.18525 0.1907,0.29423c0.03996,0.10534 0.05993,0.21249 0.05993,0.32147c0,0.10534 -0.01998,0.21432 -0.05993,0.32692c-0.03632,0.1126 -0.09989,0.20886 -0.1907,0.28878c-0.09081,0.07991 -0.1907,0.14348 -0.29968,0.1907c-0.10534,0.04722 -0.23066,0.07083 -0.37596,0.07083c-0.1453,0 -0.27425,-0.02179 -0.38685,-0.06538c-0.1126,-0.04722 -0.21613,-0.10897 -0.31057,-0.18525c-0.09444,-0.07991 -0.16346,-0.17799 -0.20705,-0.29423z" fill="#000000" stroke-width="1" stroke-linecap="square"/><path d="M170.33942,185.87737c0,-0.35714 0.1208,-0.64338 0.36239,-0.85872c0.2416,-0.21534 0.52258,-0.323 0.84296,-0.323h6.21584c0.3729,0 0.64338,0.11817 0.81145,0.35452c0.16807,0.23109 0.2521,0.47269 0.2521,0.72479c0,0.2521 -0.08403,0.49632 -0.2521,0.73267c-0.16807,0.23109 -0.43855,0.34664 -0.81145,0.34664h-4.96322v3.26942h4.75051c0.36765,0 0.64076,0.11555 0.81933,0.34664c0.17857,0.23109 0.26786,0.48057 0.26786,0.74842c0,0.26261 -0.10242,0.50157 -0.30725,0.71691c-0.19958,0.21534 -0.45956,0.323 -0.77993,0.323h-4.75051v4.75051c0,0.34664 -0.11292,0.63025 -0.33876,0.85084c-0.57773,0.42017 -1.13182,0.44118 -1.66228,0.06303c-0.25735,-0.17332 -0.40966,-0.47006 -0.45693,-0.89023zM182.06861,190.44669c0.17332,-1.37605 0.98477,-2.06407 2.43434,-2.06407c0.35714,0 0.63025,0.11029 0.81933,0.33088c0.19433,0.21534 0.29149,0.44905 0.29149,0.70115c0,0.2521 -0.09716,0.48844 -0.29149,0.70903c-0.18908,0.21534 -0.45693,0.323 -0.80357,0.323c-0.34139,0 -0.63813,0.0499 -0.89023,0.14968c-0.2521,0.09979 -0.4543,0.23897 -0.60662,0.41754c-0.35714,0.43592 -0.53571,1.01891 -0.53571,1.74894v4.36448c0,0.36239 -0.12605,0.63025 -0.37815,0.80357c-0.24685,0.17332 -0.46481,0.25998 -0.65388,0.25998c-0.18908,0 -0.34926,-0.01838 -0.48057,-0.05515c-0.12605,-0.04202 -0.24422,-0.11817 -0.35452,-0.22847c-0.23634,-0.15231 -0.35452,-0.41229 -0.35452,-0.77993v-7.46847c0,-0.32038 0.11029,-0.58561 0.33088,-0.79569c0.22584,-0.21008 0.50157,-0.31513 0.8272,-0.31513c0.32563,0 0.58298,0.11029 0.77206,0.33088c0.19433,0.21534 0.29149,0.47531 0.29149,0.77993l-0.41754,0.78781zM191.10864,191.99868c0.33088,0 0.51733,0 0.55935,0v-0.29937c0,-0.92437 -0.53309,-1.38655 -1.59926,-1.38655c-0.55147,0 -0.94275,0.04464 -1.17384,0.13393c-0.47269,0.17332 -0.8272,0.33351 -1.06355,0.48057c-0.23634,0.14181 -0.46481,0.21271 -0.6854,0.21271c-0.21534,0 -0.42017,-0.08403 -0.61449,-0.2521c-0.19433,-0.16807 -0.29149,-0.39128 -0.29149,-0.66964c0,-0.2521 0.11555,-0.47794 0.34664,-0.67752c0.80357,-0.77206 1.97216,-1.15808 3.50577,-1.15808c1.82247,0 3.00157,0.6355 3.53728,1.90651c0.17332,0.44118 0.25998,0.94275 0.25998,1.50472l-0.04727,5.35713c0,0.33613 -0.11555,0.59349 -0.34664,0.77206c-0.23109,0.17857 -0.47531,0.26786 -0.73267,0.26786c-0.25735,0 -0.5042,-0.07615 -0.74054,-0.22847c-0.23634,-0.15756 -0.35452,-0.42279 -0.35452,-0.79569h0.23634c-0.05777,0.4937 -0.63025,0.85609 -1.71743,1.08718c-0.32038,0.08403 -0.6854,0.12605 -1.09506,0.12605c-0.40966,0 -0.82195,-0.06303 -1.23687,-0.18908c-0.40966,-0.1208 -0.77468,-0.31513 -1.09506,-0.58298c-0.67227,-0.56197 -1.0084,-1.31827 -1.0084,-2.2689c0,-2.22689 1.78571,-3.34033 5.35713,-3.34033zM191.76252,193.83428c-0.01576,0.06303 -0.18908,0.09454 -0.51996,0.09454c-0.33088,0 -0.65914,0.00525 -0.98477,0.01576c-0.32563,0.00525 -0.62762,0.03939 -0.90598,0.10242c-0.27311,0.05777 -0.51733,0.14706 -0.73267,0.26786c-0.38866,0.20483 -0.59349,0.54096 -0.61449,1.0084c0,0.34139 0.14443,0.61187 0.4333,0.81145c0.2416,0.19958 0.60136,0.30462 1.0793,0.31513c0.58823,0 1.09506,-0.18645 1.52048,-0.55935c0.37815,-0.35189 0.58823,-0.90073 0.63025,-1.64653zM195.72669,189.63524c0,-0.33088 0.1208,-0.59349 0.36239,-0.78781c0.2416,-0.19958 0.49107,-0.29937 0.74842,-0.29937c0.51996,0 0.84821,0.18382 0.98477,0.55147c0.13656,0.36765 0.03939,0.8167 -0.29149,1.34716c-0.03676,-0.65651 0.29937,-1.17909 1.0084,-1.56775c0.60399,-0.33088 1.2001,-0.49632 1.78833,-0.49632c0.59349,0 1.10031,0.07615 1.52048,0.22847c0.42017,0.14706 0.8062,0.37815 1.15808,0.69328c0.70903,0.67227 1.06355,1.64128 1.06355,2.90703v4.91595c0,0.36239 -0.1313,0.63025 -0.39391,0.80357c-0.25735,0.17332 -0.51208,0.25998 -0.76418,0.25998c-0.28886,0 -0.54884,-0.09454 -0.77993,-0.28361c-0.22584,-0.18908 -0.33876,-0.44905 -0.33876,-0.77993v-5.01049c0,-0.60924 -0.15756,-1.06617 -0.47269,-1.37079c-0.29412,-0.28886 -0.66176,-0.4333 -1.10294,-0.4333c-0.64076,0 -1.18435,0.1812 -1.63077,0.54359c-0.42542,0.37815 -0.63813,0.98477 -0.63813,1.81985v4.45114c0,0.36239 -0.12605,0.63025 -0.37815,0.80357c-0.24685,0.17332 -0.50683,0.25998 -0.77993,0.25998c-0.29412,0 -0.54622,-0.09716 -0.7563,-0.29149c-0.20483,-0.19433 -0.30725,-0.45168 -0.30725,-0.77206zM208.26597,194.0785v3.00157c0,0.36765 -0.1208,0.64601 -0.36239,0.83508c-0.23634,0.18382 -0.4937,0.27573 -0.77206,0.27573c-0.27311,0 -0.52521,-0.09454 -0.7563,-0.28361c-0.22584,-0.18908 -0.33876,-0.46481 -0.33876,-0.8272v-11.21846c0,-0.38866 0.11555,-0.67227 0.34664,-0.85084c0.23109,-0.17857 0.44643,-0.26786 0.64601,-0.26786c0.19958,0 0.37027,0.01313 0.51208,0.03939c0.14706,0.02626 0.28099,0.10504 0.40178,0.23634c0.21534,0.17857 0.323,0.45956 0.323,0.84296v5.7983l3.30094,-2.76522c0.20483,-0.23109 0.44905,-0.34664 0.73267,-0.34664c0.27836,0 0.52521,0.10242 0.74054,0.30725c0.21534,0.19958 0.323,0.41491 0.323,0.64601c0,0.34139 -0.11292,0.59611 -0.33876,0.76418l-3.08035,2.57615l3.58455,3.62394c0.16807,0.16807 0.2521,0.36502 0.2521,0.59086c0,0.22584 -0.03676,0.40178 -0.11029,0.52783c-0.06828,0.12605 -0.16019,0.23634 -0.27573,0.33088c-0.23109,0.18382 -0.47794,0.27573 -0.74054,0.27573c-0.26261,0 -0.51208,-0.11817 -0.74842,-0.35452zM219.30108,186.85426c-0.36765,0 -0.64338,-0.11555 -0.8272,-0.34664c-0.17857,-0.23109 -0.26786,-0.47531 -0.26786,-0.73267c0,-0.25735 0.08929,-0.50157 0.26786,-0.73267c0.18382,-0.23109 0.45956,-0.34664 0.8272,-0.34664h8.46111c0.35189,0 0.61712,0.11555 0.79569,0.34664c0.17857,0.23109 0.26786,0.47794 0.26786,0.74054c0,0.25735 -0.09454,0.50157 -0.28361,0.73267c-0.18908,0.22584 -0.44905,0.33876 -0.77993,0.33876h-3.01732v10.15491c0,0.54622 -0.24685,0.91649 -0.74054,1.11082c-0.13656,0.04727 -0.31775,0.0709 -0.54359,0.0709c-0.22059,0 -0.46481,-0.09454 -0.73267,-0.28361c-0.26261,-0.19433 -0.39391,-0.4937 -0.39391,-0.89811v-10.15491zM234.18017,191.99868c0.33088,0 0.51733,0 0.55935,0v-0.29937c0,-0.92437 -0.53309,-1.38655 -1.59926,-1.38655c-0.55147,0 -0.94275,0.04464 -1.17384,0.13393c-0.47269,0.17332 -0.8272,0.33351 -1.06355,0.48057c-0.23634,0.14181 -0.46481,0.21271 -0.6854,0.21271c-0.21534,0 -0.42017,-0.08403 -0.61449,-0.2521c-0.19433,-0.16807 -0.29149,-0.39128 -0.29149,-0.66964c0,-0.2521 0.11555,-0.47794 0.34664,-0.67752c0.80357,-0.77206 1.97216,-1.15808 3.50577,-1.15808c1.82247,0 3.00157,0.6355 3.53728,1.90651c0.17332,0.44118 0.25998,0.94275 0.25998,1.50472l-0.04727,5.35713c0,0.33613 -0.11555,0.59349 -0.34664,0.77206c-0.23109,0.17857 -0.47531,0.26786 -0.73267,0.26786c-0.25735,0 -0.5042,-0.07615 -0.74054,-0.22847c-0.23634,-0.15756 -0.35452,-0.42279 -0.35452,-0.79569h0.23634c-0.05777,0.4937 -0.63025,0.85609 -1.71743,1.08718c-0.32038,0.08403 -0.6854,0.12605 -1.09506,0.12605c-0.40966,0 -0.82195,-0.06303 -1.23687,-0.18908c-0.40966,-0.1208 -0.77468,-0.31513 -1.09506,-0.58298c-0.67227,-0.56197 -1.0084,-1.31827 -1.0084,-2.2689c0,-2.22689 1.78571,-3.34033 5.35713,-3.34033zM234.83406,193.83428c-0.01576,0.06303 -0.18908,0.09454 -0.51996,0.09454c-0.33088,0 -0.65914,0.00525 -0.98477,0.01576c-0.32563,0.00525 -0.62762,0.03939 -0.90598,0.10242c-0.27311,0.05777 -0.51733,0.14706 -0.73267,0.26786c-0.38866,0.20483 -0.59349,0.54096 -0.61449,1.0084c0,0.34139 0.14443,0.61187 0.4333,0.81145c0.2416,0.19958 0.60136,0.30462 1.0793,0.31513c0.58823,0 1.09506,-0.18645 1.52048,-0.55935c0.37815,-0.35189 0.58823,-0.90073 0.63025,-1.64653zM238.19161,193.36947c0,-1.38655 0.39653,-2.54201 1.1896,-3.46638c0.87185,-1.01365 2.0063,-1.52048 3.40335,-1.52048c1.17647,0 2.0877,0.25473 2.73371,0.76418c0.27836,0.19958 0.41754,0.44905 0.41754,0.74842c0,0.29412 -0.08666,0.53309 -0.25998,0.71691c-0.16807,0.18382 -0.36765,0.27573 -0.59874,0.27573c-0.23109,0 -0.40704,-0.04727 -0.52783,-0.14181c-0.50945,-0.28886 -1.05304,-0.42805 -1.63077,-0.41754c-0.70903,0 -1.26575,0.26523 -1.67016,0.79569c-0.47794,0.57773 -0.71691,1.32615 -0.71691,2.24527c0,0.86134 0.17332,1.58351 0.51996,2.16649c0.37815,0.60924 1.00052,0.91386 1.86712,0.91386c0.4937,0 1.10819,-0.17595 1.84348,-0.52783c0.40441,-0.23634 0.75893,-0.17857 1.06355,0.17332c0.16807,0.16807 0.2521,0.39653 0.2521,0.6854c0,0.28361 -0.13656,0.53571 -0.40966,0.7563c-0.27311,0.22059 -0.57248,0.3834 -0.89811,0.48844c-0.71954,0.24685 -1.42594,0.36765 -2.11922,0.36239c-0.68802,-0.00525 -1.31565,-0.13656 -1.88287,-0.39391c-0.56723,-0.26261 -1.03991,-0.64338 -1.41806,-1.14233c-0.77206,-0.92437 -1.15808,-2.08508 -1.15808,-3.48213zM246.74519,193.3931c0,-0.59874 0.09716,-1.2001 0.29149,-1.80409c0.19433,-0.60399 0.49107,-1.15021 0.89023,-1.63865c0.86134,-1.04516 2.0667,-1.56775 3.61606,-1.56775c1.55462,0 2.75997,0.52521 3.61606,1.57563c0.78781,0.96638 1.18172,2.10346 1.18172,3.41123c0,1.31827 -0.39391,2.45535 -1.18172,3.41123c-0.85609,1.06617 -2.06144,1.59926 -3.61606,1.59926c-1.54936,0 -2.75472,-0.53046 -3.61606,-1.59138c-0.78781,-0.94538 -1.18172,-2.0772 -1.18172,-3.39548zM249.08499,193.3931c0,0.33614 0.04464,0.69065 0.13393,1.06355c0.09454,0.3729 0.25735,0.71691 0.48844,1.03203c0.44643,0.64076 1.0583,0.96113 1.8356,0.96113c0.82458,0 1.43382,-0.3125 1.82773,-0.9375c0.40441,-0.64076 0.60662,-1.35504 0.60662,-2.14285c0,-0.80882 -0.19958,-1.50472 -0.59874,-2.0877c-0.41491,-0.64601 -1.02678,-0.96901 -1.8356,-0.96901c-0.77731,0 -1.38918,0.32825 -1.8356,0.98477c-0.41491,0.56197 -0.62237,1.2605 -0.62237,2.09558zM265.44038,195.00812c0.32038,0.40966 0.7458,0.72741 1.27626,0.95325c0.53046,0.22059 1.21848,0.33088 2.06407,0.33088c0.84559,0 1.59926,-0.10242 2.26102,-0.30725v-3.12762h-2.0877c-0.30987,0 -0.55672,-0.10504 -0.74054,-0.31513c-0.18382,-0.21008 -0.27573,-0.43592 -0.27573,-0.67752c0,-0.27836 0.08403,-0.51471 0.2521,-0.70903c0.16807,-0.19433 0.42279,-0.29149 0.76418,-0.29149h3.41123c0.72479,0 1.08718,0.35452 1.08718,1.06355v4.64022c0,0.66701 -0.30987,1.05042 -0.92962,1.15021c-1.43907,0.44118 -2.69957,0.66176 -3.7815,0.66176c-1.08193,0 -2.03518,-0.14181 -2.85976,-0.42542c-0.82458,-0.28361 -1.52048,-0.70903 -2.0877,-1.27626c-1.22899,-1.22374 -1.84348,-2.95955 -1.84348,-5.20744c0,-1.8855 0.55935,-3.46638 1.67804,-4.74263c1.16071,-1.39706 2.82825,-2.10346 5.00261,-2.11922c1.3813,0 2.63392,0.22847 3.75787,0.6854c0.36765,0.22059 0.55147,0.48844 0.55147,0.80357c0,0.31513 -0.08403,0.59086 -0.2521,0.8272c-0.16807,0.23109 -0.40704,0.34664 -0.71691,0.34664h-0.09454c-0.06828,0 -0.17857,-0.02101 -0.33088,-0.06303c-0.15231,-0.04202 -0.35714,-0.08929 -0.61449,-0.14181c-0.25735,-0.05252 -0.51996,-0.10242 -0.78781,-0.14968c-0.59874,-0.08929 -1.07143,-0.13393 -1.41806,-0.13393c-1.44432,0 -2.53151,0.47006 -3.26154,1.41018c-0.33613,0.44118 -0.58035,0.96113 -0.73267,1.55987c-0.15231,0.59349 -0.22847,1.21323 -0.22847,1.85924c0,0.64076 0.07615,1.26313 0.22847,1.86712c0.15231,0.60399 0.38866,1.11345 0.70903,1.52836zM280.10305,191.99868c0.33088,0 0.51733,0 0.55935,0v-0.29937c0,-0.92437 -0.53309,-1.38655 -1.59926,-1.38655c-0.55147,0 -0.94275,0.04464 -1.17384,0.13393c-0.47269,0.17332 -0.8272,0.33351 -1.06355,0.48057c-0.23634,0.14181 -0.46481,0.21271 -0.6854,0.21271c-0.21534,0 -0.42017,-0.08403 -0.61449,-0.2521c-0.19433,-0.16807 -0.29149,-0.39128 -0.29149,-0.66964c0,-0.2521 0.11555,-0.47794 0.34664,-0.67752c0.80357,-0.77206 1.97216,-1.15808 3.50577,-1.15808c1.82247,0 3.00157,0.6355 3.53728,1.90651c0.17332,0.44118 0.25998,0.94275 0.25998,1.50472l-0.04727,5.35713c0,0.33613 -0.11555,0.59349 -0.34664,0.77206c-0.23109,0.17857 -0.47531,0.26786 -0.73267,0.26786c-0.25735,0 -0.5042,-0.07615 -0.74054,-0.22847c-0.23634,-0.15756 -0.35452,-0.42279 -0.35452,-0.79569h0.23634c-0.05777,0.4937 -0.63025,0.85609 -1.71743,1.08718c-0.32038,0.08403 -0.6854,0.12605 -1.09506,0.12605c-0.40966,0 -0.82195,-0.06303 -1.23687,-0.18908c-0.40966,-0.1208 -0.77468,-0.31513 -1.09506,-0.58298c-0.67227,-0.56197 -1.0084,-1.31827 -1.0084,-2.2689c0,-2.22689 1.78571,-3.34033 5.35713,-3.34033zM280.75693,193.83428c-0.01576,0.06303 -0.18908,0.09454 -0.51996,0.09454c-0.33088,0 -0.65914,0.00525 -0.98477,0.01576c-0.32563,0.00525 -0.62762,0.03939 -0.90598,0.10242c-0.27311,0.05777 -0.51733,0.14706 -0.73267,0.26786c-0.38866,0.20483 -0.59349,0.54096 -0.61449,1.0084c0,0.34139 0.14443,0.61187 0.4333,0.81145c0.2416,0.19958 0.60136,0.30462 1.0793,0.31513c0.58823,0 1.09506,-0.18645 1.52048,-0.55935c0.37815,-0.35189 0.58823,-0.90073 0.63025,-1.64653zM292.41804,190.07641c0.55147,-1.1292 1.60189,-1.6938 3.15125,-1.6938c1.62289,0 2.71008,0.69328 3.26154,2.07983c0.18908,0.4937 0.28361,1.06092 0.28361,1.70168v4.96322c0,0.35714 -0.1208,0.625 -0.36239,0.80357c-0.2416,0.17332 -0.49107,0.25998 -0.74842,0.25998c-0.28361,0 -0.54622,-0.09191 -0.78781,-0.27573c-0.23634,-0.18908 -0.35452,-0.45168 -0.35452,-0.78781v-5.05776c0,-0.59349 -0.15756,-1.05042 -0.47269,-1.37079c-0.28361,-0.25735 -0.66701,-0.38603 -1.15021,-0.38603c-0.98739,0 -1.65703,0.39653 -2.00892,1.1896c-0.14181,0.30462 -0.21271,0.68015 -0.21271,1.12657v4.49841c0,0.35714 -0.1208,0.625 -0.36239,0.80357c-0.2416,0.17332 -0.49107,0.25998 -0.74842,0.25998c-0.28886,0 -0.55147,-0.09454 -0.78781,-0.28361c-0.23109,-0.18908 -0.34664,-0.44905 -0.34664,-0.77993v-5.05776c0,-0.59874 -0.15231,-1.05567 -0.45693,-1.37079c-0.28361,-0.25735 -0.62762,-0.38603 -1.03203,-0.38603c-0.39916,0 -0.72741,0.04464 -0.98477,0.13393c-0.25735,0.08929 -0.48844,0.23372 -0.69328,0.4333c-0.41491,0.42017 -0.6355,1.02153 -0.66176,1.80409v4.44327c0,0.36239 -0.12605,0.63025 -0.37815,0.80357c-0.24685,0.17332 -0.50157,0.25998 -0.76418,0.25998c-0.25735,0 -0.50945,-0.09191 -0.7563,-0.27573c-0.24685,-0.18382 -0.37027,-0.44643 -0.37027,-0.78781v-7.4921c0,-0.33613 0.1208,-0.60136 0.36239,-0.79569c0.24685,-0.19433 0.48057,-0.29149 0.70115,-0.29149c0.22059,0 0.38866,0.02889 0.5042,0.08666c0.11555,0.05777 0.21796,0.11555 0.30725,0.17332c0.26261,0.22059 0.39391,0.48844 0.39391,0.80357h-0.2521c-0.11555,-0.16807 0.15756,-0.42279 0.81933,-0.76418c0.56723,-0.30987 1.22899,-0.46481 1.98529,-0.46481c1.18172,0 2.09558,0.38603 2.74159,1.15808c0.21008,0.28361 0.27048,0.46218 0.1812,0.53571zM309.66058,193.10949c0,0.58298 -0.31775,0.90074 -0.95325,0.95326h-5.94011c0.04727,1.10294 0.56985,1.85399 1.56775,2.25314c0.26786,0.08929 0.59086,0.13393 0.96901,0.13393c0.77731,0 1.5835,-0.29412 2.41858,-0.88235c0.46744,-0.26786 0.87447,-0.23372 1.22111,0.10242c0.20483,0.22059 0.27311,0.43592 0.20483,0.64601c0,0.29412 -0.09716,0.52783 -0.29149,0.70115c-0.92437,0.91911 -2.14022,1.37342 -3.64757,1.36292c-1.38655,0 -2.50524,-0.45168 -3.35608,-1.35504c-0.94538,-0.92962 -1.41806,-2.1481 -1.41806,-3.65545c0,-1.3813 0.38603,-2.52888 1.15808,-3.44274c0.82983,-1.02941 1.98791,-1.54411 3.47425,-1.54411c1.48634,0 2.62867,0.45693 3.42699,1.37079c0.7458,0.81407 1.13445,1.93277 1.16596,3.35608zM307.43895,192.28229c-0.02626,-0.44118 -0.2521,-0.89548 -0.67752,-1.36292c-0.3834,-0.40441 -0.948,-0.60662 -1.6938,-0.60662c-0.61975,0 -1.15021,0.23109 -1.59138,0.69328c-0.40966,0.47794 -0.62762,0.90336 -0.65388,1.27626z" fill="#000000" stroke-width="1" stroke-linecap="square"/></g></g></svg>