<svg version="1.1" xmlns="http://www.w3.org/2000/svg" xmlns:xlink="http://www.w3.org/1999/xlink" width="504.59734" height="342.51097" viewBox="0,0,504.59734,342.51097"><g transform="translate(12.29868,-8.74453)"><g data-paper-data="{&quot;isPaintingLayer&quot;:true}" fill-rule="nonzero" stroke-miterlimit="10" stroke-dasharray="" stroke-dashoffset="0" style="mix-blend-mode: normal"><path d="M228.69057,191.79047c0.00129,0.00077 1.8215,0.12901 2.40057,1.10457c0.57794,0.97745 -0.2783,1.64058 -0.2783,1.64058c-5.58181,5.13456 -17.85681,16.57116 -18.84697,18.73278c-1.28401,2.80877 -6.74482,12.35268 -12.33795,9.42149c-5.59265,-2.93358 -2.99829,-13.98453 7.49545,-20.92691c8.76695,-5.79539 13.92539,-9.66101 21.56721,-9.97251z" fill="#0f446c" stroke="none" stroke-width="0" stroke-linecap="butt" stroke-linejoin="miter"/><path d="M240.95977,196.5107c-0.00077,0.00129 1.62227,-0.83029 2.62305,-0.29576c0.99921,0.53442 0.61415,1.54554 0.61415,1.54554c-2.11031,7.28432 -6.68036,23.42568 -6.40511,25.79017c0.35736,3.06767 0.63655,14.05738 -5.66235,14.45133c-6.30423,0.39079 -9.81522,-10.40327 -4.44318,-21.78353c4.49077,-9.49837 6.90133,-15.48037 13.27344,-19.70774z" fill="#0f446c" stroke="none" stroke-width="0" stroke-linecap="butt" stroke-linejoin="miter"/><g stroke="none" stroke-width="0" stroke-linecap="butt" stroke-linejoin="miter"><path d="M221.71882,225.51569c0.00077,-0.00129 -1.57542,-0.78989 -2.53688,-1.57176c-0.96086,-0.78152 -3.03768,-2.43805 -3.98216,-3.84903c-0.94333,-1.41135 -1.68596,-3.39155 -1.68596,-3.39155c-0.25646,-0.7064 -0.42404,-1.34407 -0.51427,-1.85872c-0.52092,-2.93693 0.89441,-7.54968 0.89441,-7.54968c0.65098,-1.91193 1.38682,-3.21805 1.65227,-3.66067c0.15524,0.05675 0.88115,-1.21295 0.98453,-1.17794c0.70583,0.23689 0.74192,-0.94106 6.8462,-5.20197c3.35017,-2.33797 3.00218,-3.75127 5.00505,-5.14753c0,0 3.44736,-0.47794 8.65815,2.61189c1.41697,0.84011 4.00213,2.9124 4.92001,4.38956c0.77595,1.24923 0.02884,2.11089 0.11062,2.72035l-2.32673,5.26289l-0.0215,0.16087c-0.90153,2.21685 -1.79956,4.58134 -2.27208,6.27527c-1.16699,4.19592 -3.90095,15.16685 -12.45368,13.11091c-1.20077,-0.28778 -2.2904,-0.67074 -3.278,-1.12287z" fill="#1b75bb"/><path d="M233.6514,222.96767l-0.11463,0.09497c-2.0824,1.19189 -5.2141,-0.04765 -6.77183,-0.96918c-3.11141,-1.84066 -3.23963,-8.51274 0.00086,-13.99041c3.23927,-5.47559 7.20213,-8.18206 11.50552,-6.5812c1.96405,0.73317 1.84347,2.38525 2.20553,3.50118l0.07787,0.21326c-1.13931,2.69477 -2.51064,6.10719 -3.13207,8.35217c-0.61338,2.20838 -1.66371,6.30159 -3.77125,9.37922z" fill="#d0d2d3"/></g><path d="M214.27304,229.64911c0.8496,-1.36465 2.08388,-2.59713 3.92082,-4.27675c0,0 1.32913,-1.18891 2.28954,-2.19231c0.02394,-0.02534 0.8621,-1.07585 2.06866,-0.09414c0.96215,0.78228 1.49427,1.77945 0.60596,3.27945c-0.03783,0.06395 -0.21756,0.19767 -0.21756,0.19767c-0.92382,0.82904 -2.46931,2.38072 -3.83125,4.52481c-2.10148,3.30777 -3.78933,6.76405 -5.35494,5.93046c-2.38077,-1.26726 -0.93462,-5.03103 0.51878,-7.36919z" fill="#0f446c" stroke="none" stroke-width="0" stroke-linecap="butt" stroke-linejoin="miter"/><path d="M208.04616,225.96539c0.85029,-1.36425 2.08398,-2.59707 3.9216,-4.27629c0,0 1.32835,-1.18937 2.28945,-2.19236c0.02394,-0.02534 0.86209,-1.07585 2.06796,-0.09455c0.96223,0.78233 1.49436,1.77949 0.60605,3.2795c-0.03783,0.06395 -0.21764,0.19762 -0.21764,0.19762c-0.92374,0.82908 -2.46923,2.38078 -3.83048,4.52528c-2.10226,3.30732 -3.78933,6.76404 -5.35572,5.93c-2.38077,-1.26726 -0.93384,-5.03057 0.51878,-7.36919z" fill="#0f446c" stroke="none" stroke-width="0" stroke-linecap="butt" stroke-linejoin="miter"/><path d="M286.69009,175.85473c0.08633,0.32716 2.14073,8.31928 -3.47013,15.60646c-3.80057,4.93198 -10.38664,11.20839 -26.99021,12.38631c-8.1298,0.57493 -15.32485,-1.62952 -20.47149,-4.9094c0.07587,0.04836 0.14711,0.09895 0.2238,0.14653l-0.0736,-0.04603c-4.79384,-2.25299 -10.86316,-5.71804 -14.84141,-11.424c0,0 -2.25676,4.52994 -12.06612,4.57083c-12.39599,0.05569 -17.29405,-6.89012 -17.85579,-12.07818c-0.57061,-5.26251 1.12572,-11.25886 11.62548,-12.87572c8.79008,-1.34966 13.51568,1.37133 14.82032,2.29121l0.10041,0.11835c1.01182,-2.97403 2.64361,-4.32593 2.64361,-4.32593l-0.13157,-0.04921c-3.66937,-1.44106 -8.49142,-3.72708 -14.37948,-7.35179c-12.32592,-7.58983 -12.00406,-20.64244 -8.49195,-25.28399c3.63531,-4.79838 14.27817,-10.73435 29.0554,-2.20788c8.31573,4.79462 12.45064,12.04766 14.47842,17.46698l0.44834,-0.16959c0.57988,-0.3224 1.21157,-0.63932 1.8871,-0.93777l0.08973,-0.15186c-3.15182,-7.72951 -7.84589,-23.59574 6.22215,-24.60028c13.37931,-0.95541 11.98426,15.1276 10.8023,21.95679l0.10494,0.01789c1.72425,0.14768 3.4736,0.42746 5.21972,0.86571c-0.03747,-0.08108 -1.96672,-4.29395 0.6854,-10.34776c2.07812,-4.73849 11.23485,-16.03533 18.43897,-9.84907c7.59975,6.52802 3.31067,13.71542 -0.76332,18.10157c-3.52946,3.79778 -7.54568,5.31067 -9.36744,5.97781l0.0506,0.03327c0.44138,0.28685 0.88259,0.58531 1.318,0.90308c12.12013,8.80864 10.79751,26.64327 10.79751,26.64327l-0.02517,-0.1273c-0.04336,-0.20029 -0.07488,-0.31687 -0.08447,-0.35033zM272.80998,147.66553c0.73446,0.40203 1.45214,0.83552 2.14939,1.29729M260.2747,144.41702c-0.17086,0.85639 -0.36416,1.70786 -0.57438,2.55435M245.17996,150.79744c-0.7154,-1.40386 -1.35347,-2.84834 -1.9449,-4.30833M216.91813,175.18337c-0.05204,-1.71799 0.13455,-3.44855 0.63021,-5.0971M207.45275,166.86403M205.50728,191.90629" fill="#1b75bb" stroke="none" stroke-width="0" stroke-linecap="round" stroke-linejoin="round"/><path d="M205.56916,192.00625c-9.88244,-1.11016 -13.91716,-7.21863 -14.42402,-11.89899c-0.57061,-5.26251 1.12572,-11.25886 11.62548,-12.87572c1.52736,-0.23527 2.93212,-0.34698 4.21468,-0.36684l0.09899,0.0077c-4.29793,8.01056 -4.83714,17.50086 -1.577,25.03308z" fill="#cfd0d1" stroke="none" stroke-width="0" stroke-linecap="butt" stroke-linejoin="miter"/><path d="M203.90889,156.61895c-10.36629,-7.7016 -9.89636,-19.60202 -6.57764,-23.98957c3.46224,-4.57189 13.29454,-10.17588 26.99824,-3.31644l-0.13917,0.04349c-7.96117,2.35981 -14.91113,8.49516 -18.26162,17.15482c-1.2842,3.32512 -1.92428,6.73277 -1.98444,10.07114z" fill="#cfd0d1" stroke="none" stroke-width="0" stroke-linecap="butt" stroke-linejoin="miter"/><path d="M240.00564,134.24909c-0.49085,-6.07998 1.36677,-11.64063 9.50896,-12.22077c8.21507,-0.58523 10.86108,5.25135 11.40458,11.42584l-0.06163,-0.06445c-6.81599,-2.76434 -14.31471,-2.30751 -20.81716,0.764z" fill="#cfd0d1" stroke="none" stroke-width="0" stroke-linecap="butt" stroke-linejoin="miter"/><path d="M277.01006,123.51281c2.56863,-1.02649 5.27785,-0.96742 7.75353,1.16054c4.86743,4.18413 4.85842,8.6361 3.14963,12.45002l-0.08369,0.00492c-1.92324,-5.57254 -5.62815,-10.42544 -10.83149,-13.58787z" fill="#cfd0d1" stroke="none" stroke-width="0" stroke-linecap="butt" stroke-linejoin="miter"/><path d="M276.10967,164.83769c6.67246,5.01652 9.04864,5.35146 10.57684,11.00229c0,0 2.26274,8.18102 -3.46586,15.62192c-3.80126,4.93207 -10.38663,11.20769 -26.9901,12.38642c-16.6012,1.17406 -29.32383,-9.22864 -28.604,-16.75515c0.95672,-10.01868 8.20713,-8.59808 22.25736,-16.96854c14.04857,-8.36598 14.39647,-18.55246 14.39647,-18.55246c0,0 7.19128,9.77207 11.82931,13.26553z" fill="#cfd0d1" stroke="none" stroke-width="0" stroke-linecap="butt" stroke-linejoin="miter"/><g stroke="none" stroke-width="0" stroke-linecap="butt" stroke-linejoin="miter"><path d="M252.8296,179.14175c0.10343,0.53013 -0.24038,1.04727 -0.77125,1.15289c-0.5333,0.10799 -1.0502,-0.25123 -1.15223,-0.76824c-0.05326,-0.25924 -0.00369,-0.51931 0.14041,-0.73534c0.14653,-0.2175 0.36704,-0.36735 0.62866,-0.41907c0.07062,-0.01363 0.14194,-0.02114 0.21383,-0.02005c0.45345,0.00691 0.84924,0.33878 0.94058,0.78981z" fill="#ffffff"/><path d="M254.34176,178.84124c0.26939,1.36145 -0.61757,2.69141 -1.9814,2.96547c-0.17706,0.03531 -0.35603,0.05188 -0.53471,0.04916c-1.18066,-0.01799 -2.20388,-0.87168 -2.43084,-2.02506c-0.13546,-0.66064 -0.00528,-1.33354 0.36777,-1.89202c0.37459,-0.56146 0.94458,-0.94362 1.60589,-1.07666c1.32897,-0.26998 2.70425,0.64086 2.9733,1.97912zM250.9061,179.52719c0.10124,0.517 0.61894,0.87543 1.15143,0.76823c0.53167,-0.10571 0.87548,-0.62284 0.77205,-1.15297c-0.09134,-0.45095 -0.48644,-0.7828 -0.94059,-0.78972c-0.07119,-0.00108 -0.14251,0.00633 -0.21383,0.01994c-0.26162,0.05172 -0.48211,0.20088 -0.62866,0.41917c-0.14411,0.21603 -0.19368,0.47611 -0.14042,0.73535z" fill="#231f20"/></g><g stroke="none" stroke-width="0" stroke-linecap="butt" stroke-linejoin="miter"><path d="M276.78469,178.03161c0.10265,0.52942 -0.24038,1.04726 -0.77137,1.15378c-0.53249,0.1072 -1.04939,-0.25132 -1.15212,-0.76904c-0.05255,-0.25923 -0.00369,-0.51931 0.14041,-0.73534c0.14723,-0.21748 0.36774,-0.36744 0.62855,-0.41917c0.07143,-0.01432 0.14274,-0.02103 0.21393,-0.01994c0.45415,0.00692 0.84994,0.33879 0.94059,0.78972z" fill="#ffffff"/><path d="M278.29676,177.7297c0.27027,1.36297 -0.61749,2.69291 -1.9814,2.96617c-0.17695,0.03451 -0.35592,0.05109 -0.5347,0.04836c-1.18066,-0.01799 -2.20309,-0.87086 -2.43084,-2.02506c-0.13466,-0.66063 -0.00519,-1.33343 0.36776,-1.89191c0.3746,-0.56155 0.9446,-0.94442 1.60679,-1.07675c1.32897,-0.26998 2.70415,0.64096 2.9724,1.9792zM274.86041,178.41555c0.10282,0.51783 0.62041,0.87705 1.15143,0.76823c0.53167,-0.10561 0.8755,-0.62353 0.77205,-1.15287c-0.09064,-0.45103 -0.48563,-0.78289 -0.94057,-0.78982c-0.07039,-0.00108 -0.14171,0.00564 -0.21383,0.02005c-0.26082,0.05173 -0.48133,0.20159 -0.62865,0.41907c-0.14411,0.21603 -0.19298,0.47612 -0.14042,0.73535z" fill="#231f20"/></g><path d="M275.72938,183.90551c0,0 -1.36006,2.82321 -9.31425,3.85827c-7.95578,1.04113 -12.75669,-2.47421 -12.75669,-2.47421" fill="none" stroke="#000000" stroke-width="1" stroke-linecap="round" stroke-linejoin="miter"/><path d="M-12.29866,180.00002c0,-94.5818 112.95795,-171.25549 252.29866,-171.25549c139.34071,0 252.29867,76.67369 252.29867,171.25548c0,94.58179 -112.95796,171.25549 -252.29867,171.25549c-139.34071,0 -252.29867,-76.6737 -252.29867,-171.25549z" fill="none" stroke="none" stroke-width="0" stroke-linecap="butt" stroke-linejoin="miter"/></g></g></svg>