<svg version="1.1" xmlns="http://www.w3.org/2000/svg" xmlns:xlink="http://www.w3.org/1999/xlink" width="53.51982" height="79.11595" viewBox="0,0,53.51982,79.11595"><defs><linearGradient x1="224.71869" y1="166.26666" x2="245.8901" y2="166.26666" gradientUnits="userSpaceOnUse" id="color-1"><stop offset="0" stop-color="#74b0ff"/><stop offset="1" stop-color="#6fa0e2"/></linearGradient><linearGradient x1="224.71869" y1="177.02342" x2="245.8901" y2="177.02342" gradientUnits="userSpaceOnUse" id="color-2"><stop offset="0" stop-color="#9bc7ff"/><stop offset="1" stop-color="#69a1ea"/></linearGradient><linearGradient x1="224.7187" y1="133.9562" x2="245.89011" y2="133.9562" gradientUnits="userSpaceOnUse" id="color-3"><stop offset="0" stop-color="#74b0ff"/><stop offset="1" stop-color="#5f8ac1"/></linearGradient><linearGradient x1="224.7187" y1="144.71297" x2="245.89011" y2="144.71297" gradientUnits="userSpaceOnUse" id="color-4"><stop offset="0" stop-color="#9bc7ff"/><stop offset="1" stop-color="#5c8dcd"/></linearGradient><linearGradient x1="249.92492" y1="156.06451" x2="253.13498" y2="156.06451" gradientUnits="userSpaceOnUse" id="color-5"><stop offset="0" stop-color="#e7e7e7"/><stop offset="1" stop-color="#cecece"/></linearGradient><linearGradient x1="248.59963" y1="116.01258" x2="248.59963" y2="149.97172" gradientUnits="userSpaceOnUse" id="color-6"><stop offset="0" stop-color="#ababab"/><stop offset="1" stop-color="#ababab" stop-opacity="0"/></linearGradient><linearGradient x1="248.72423" y1="114.46389" x2="248.72423" y2="127.57816" gradientUnits="userSpaceOnUse" id="color-7"><stop offset="0" stop-color="#74b0ff"/><stop offset="1" stop-color="#70a4ea"/></linearGradient></defs><g transform="translate(-219.7908,-105.54927)"><g data-paper-data="{&quot;isPaintingLayer&quot;:true}" fill-rule="nonzero" stroke-linejoin="miter" stroke-miterlimit="10" stroke-dasharray="" stroke-dashoffset="0" style="mix-blend-mode: normal"><path d="" fill="url(#color-1)" stroke="none" stroke-width="0" stroke-linecap="butt"/><path d="" data-paper-data="{&quot;index&quot;:null}" fill="url(#color-2)" stroke="none" stroke-width="0" stroke-linecap="butt"/><g><path d="M224.7187,139.35299c0,0 6.45907,-3.29294 9.85819,-5.02587c3.64133,-1.85641 11.31322,-5.76766 11.31322,-5.76766v10.79353z" fill="url(#color-3)" stroke="none" stroke-width="0" stroke-linecap="butt"/><path d="M245.89011,139.3162v10.79353c0,0 -6.24425,-3.18342 -9.59198,-4.89015c-3.67824,-1.87523 -11.57943,-5.90338 -11.57943,-5.90338z" data-paper-data="{&quot;index&quot;:null}" fill="url(#color-4)" stroke="none" stroke-width="0" stroke-linecap="butt"/><path d="M249.48082,124.73339l0.15827,56.18183" fill="none" stroke="#cecece" stroke-width="7.5" stroke-linecap="round"/><path d="M247.95715,180.69103l-0.15765,-55.95765" fill="none" stroke="#e7e7e7" stroke-width="7.5" stroke-linecap="round"/><path d="M249.92492,184.56127v-56.99352h3.21006v56.99352z" fill="url(#color-5)" stroke="none" stroke-width="0" stroke-linecap="butt"/><path d="M243.9715,149.97172v-33.95913h9.25626v33.95913z" fill="url(#color-6)" stroke="none" stroke-width="0" stroke-linecap="butt"/><path d="M242.16708,121.02102c0,-3.62141 2.93573,-6.55714 6.55714,-6.55714c3.62141,0 6.55714,2.93573 6.55714,6.55714c0,3.62141 -2.93573,6.55714 -6.55714,6.55714c-3.62141,0 -6.55714,-2.93573 -6.55714,-6.55714z" fill="url(#color-7)" stroke="#72abf5" stroke-width="2" stroke-linecap="butt"/><path d="M219.79081,129.63939c0,-13.30461 11.98082,-24.09012 26.75991,-24.09012c14.77909,0 26.75991,10.78552 26.75991,24.09013c0,13.30461 -11.98082,24.09013 -26.75991,24.09013c-14.77909,0 -26.75991,-10.78552 -26.75991,-24.09012z" fill="none" stroke="none" stroke-width="0" stroke-linecap="butt"/></g></g></g></svg>