<svg version="1.1" xmlns="http://www.w3.org/2000/svg" xmlns:xlink="http://www.w3.org/1999/xlink" width="764.63383" height="492.89311" viewBox="0,0,764.63383,492.89311"><defs><linearGradient x1="357.74061" y1="30.46546" x2="357.74061" y2="98.04581" gradientUnits="userSpaceOnUse" id="color-1"><stop offset="0" stop-color="#ffca1b"/><stop offset="1" stop-color="#dbb432"/></linearGradient><linearGradient x1="306.83245" y1="-28.56374" x2="306.83245" y2="159.30592" gradientUnits="userSpaceOnUse" id="color-2"><stop offset="0" stop-color="#7e7463"/><stop offset="1" stop-color="#847c6b"/></linearGradient><linearGradient x1="306.50657" y1="-13.8619" x2="306.50657" y2="19.20515" gradientUnits="userSpaceOnUse" id="color-3"><stop offset="0" stop-color="#454037"/><stop offset="1" stop-color="#454037" stop-opacity="0"/></linearGradient><linearGradient x1="298.81629" y1="-30.13523" x2="298.81629" y2="-8.13523" gradientUnits="userSpaceOnUse" id="color-4"><stop offset="0" stop-color="#95bd86"/><stop offset="1" stop-color="#80a374"/></linearGradient><linearGradient x1="272.04765" y1="-30.13523" x2="272.04765" y2="-8.13523" gradientUnits="userSpaceOnUse" id="color-5"><stop offset="0" stop-color="#95bd86"/><stop offset="1" stop-color="#80a374"/></linearGradient><linearGradient x1="177.04988" y1="59.98498" x2="177.04988" y2="127.56532" gradientUnits="userSpaceOnUse" id="color-6"><stop offset="0" stop-color="#ffca1b"/><stop offset="1" stop-color="#dbb432"/></linearGradient><linearGradient x1="430.30815" y1="66.997" x2="430.30815" y2="134.57734" gradientUnits="userSpaceOnUse" id="color-7"><stop offset="0" stop-color="#ffca1b"/><stop offset="1" stop-color="#dbb432"/></linearGradient><linearGradient x1="250.12797" y1="86.51652" x2="250.12797" y2="154.09686" gradientUnits="userSpaceOnUse" id="color-8"><stop offset="0" stop-color="#ffca1b"/><stop offset="1" stop-color="#dbb432"/></linearGradient><linearGradient x1="-15.75675" y1="42.66143" x2="-15.75675" y2="144.76353" gradientUnits="userSpaceOnUse" id="color-9"><stop offset="0" stop-color="#7e7463"/><stop offset="1" stop-color="#847c6b"/></linearGradient><linearGradient x1="7.70245" y1="34.18615" x2="7.70245" y2="67.2532" gradientUnits="userSpaceOnUse" id="color-10"><stop offset="0" stop-color="#454037"/><stop offset="1" stop-color="#454037" stop-opacity="0"/></linearGradient><linearGradient x1="-0.02329" y1="17.91283" x2="-0.02329" y2="39.91283" gradientUnits="userSpaceOnUse" id="color-11"><stop offset="0" stop-color="#95bd86"/><stop offset="1" stop-color="#80a374"/></linearGradient><linearGradient x1="-30.19887" y1="17.91283" x2="-30.19887" y2="39.91283" gradientUnits="userSpaceOnUse" id="color-12"><stop offset="0" stop-color="#95bd86"/><stop offset="1" stop-color="#80a374"/></linearGradient><linearGradient x1="-15.75671" y1="42.66143" x2="-15.75671" y2="144.76354" gradientUnits="userSpaceOnUse" id="color-13"><stop offset="0" stop-color="#7e7463"/><stop offset="1" stop-color="#847c6b"/></linearGradient><linearGradient x1="7.7025" y1="34.18617" x2="7.7025" y2="67.25322" gradientUnits="userSpaceOnUse" id="color-14"><stop offset="0" stop-color="#454037"/><stop offset="1" stop-color="#454037" stop-opacity="0"/></linearGradient><linearGradient x1="-0.02324" y1="17.91284" x2="-0.02324" y2="39.91284" gradientUnits="userSpaceOnUse" id="color-15"><stop offset="0" stop-color="#95bd86"/><stop offset="1" stop-color="#80a374"/></linearGradient><linearGradient x1="-30.19882" y1="17.91284" x2="-30.19882" y2="39.91284" gradientUnits="userSpaceOnUse" id="color-16"><stop offset="0" stop-color="#95bd86"/><stop offset="1" stop-color="#80a374"/></linearGradient><linearGradient x1="481.61291" y1="329.2362" x2="481.61291" y2="373.27847" gradientUnits="userSpaceOnUse" id="color-17"><stop offset="0" stop-color="#969696"/><stop offset="1" stop-color="#525252"/></linearGradient><linearGradient x1="479.28713" y1="305.78228" x2="479.28713" y2="373.36262" gradientUnits="userSpaceOnUse" id="color-18"><stop offset="0" stop-color="#8f8f8f"/><stop offset="1" stop-color="#6f6f6f"/></linearGradient><linearGradient x1="289.85925" y1="354.73019" x2="289.85925" y2="398.77246" gradientUnits="userSpaceOnUse" id="color-19"><stop offset="0" stop-color="#969696"/><stop offset="1" stop-color="#525252"/></linearGradient><linearGradient x1="292.18502" y1="331.27627" x2="292.18502" y2="398.85661" gradientUnits="userSpaceOnUse" id="color-20"><stop offset="0" stop-color="#8f8f8f"/><stop offset="1" stop-color="#6f6f6f"/></linearGradient></defs><g transform="translate(165.71958,94.0365)"><g data-paper-data="{&quot;isPaintingLayer&quot;:true}" fill-rule="nonzero" stroke="none" stroke-linecap="butt" stroke-linejoin="miter" stroke-miterlimit="10" stroke-dasharray="" stroke-dashoffset="0" style="mix-blend-mode: normal"><g data-paper-data="{&quot;index&quot;:null}"><path d="M260.30229,97.96165v-44.04227h190.2251v44.04227z" fill="#d2a617" stroke-width="0"/><path d="M452.36774,48.04581c13.80712,0 25,11.19288 25,25c0,13.80712 -11.19288,25 -25,25c-7.65738,0 -14.51068,-3.44268 -19.09655,-8.86468c-1.25232,0.19314 -2.53533,0.29335 -3.84172,0.29335c-6.33076,0 -12.11191,-2.35314 -16.51652,-6.23246c-4.4046,3.87933 -10.18576,6.23246 -16.51652,6.23246c-7.08585,0 -13.48317,-2.94795 -18.03242,-7.68429c-0.97993,0.11673 -1.97726,0.17678 -2.98861,0.17678c-5.30223,0 -10.21893,-1.65063 -14.26427,-4.46609c-4.04534,2.81545 -8.96204,4.46609 -14.26426,4.46609c-6.71196,0 -12.80614,-2.64505 -17.29702,-6.94966c-4.58063,5.18292 -11.27815,8.45116 -18.73901,8.45116c-5.74721,0 -11.04146,-1.93932 -15.26406,-5.19926c-2.63929,1.18951 -5.52218,1.93427 -8.5532,2.13881c-3.16123,10.18343 -12.65703,17.5788 -23.8801,17.5788c-13.80712,0 -25,-11.19288 -25,-25c0,-13.23297 10.28136,-24.0646 23.29173,-24.94256c3.16124,-10.18344 12.65703,-17.57879 23.8801,-17.57879c5.74721,0 11.04146,1.93932 15.26406,5.19926c3.13083,-1.41104 6.60444,-2.19625 10.26147,-2.19625c6.71196,0 12.80614,2.64505 17.29702,6.94965c4.58063,-5.18292 11.27815,-8.45116 18.73901,-8.45116c5.30223,0 10.21892,1.65064 14.26426,4.46609c4.04534,-2.81545 8.96204,-4.46609 14.26427,-4.46609c7.08584,0 13.48317,2.94795 18.03242,7.6843c0.97993,-0.11674 1.97725,-0.17679 2.9886,-0.17679c6.33076,0 12.11191,2.35314 16.51652,6.23247c4.4046,-3.87933 10.18575,-6.23247 16.51652,-6.23247c7.65738,0 14.51068,3.44268 19.09655,8.86468c1.25233,-0.19315 2.53533,-0.29334 3.84172,-0.29334z" fill="url(#color-1)" stroke-width="0.5"/></g><path d="M202.98017,-28.56371h166.50398c0.07049,2.34803 0.07452,8.6674 0.06338,14.80077c-0.00946,5.20045 -0.02981,10.26717 -0.02981,12.66598c0,6.98024 0.53636,64.473 0.95863,108.65315c-3.70771,-0.0004 -7.42752,0.11403 -11.03338,0.2942c-11.10247,-3.29704 -22.9517,-0.85567 -34.19372,-0.06857c-7.4212,0.51959 -15.01601,-0.00636 -22.45263,-0.00636c-3.79212,0 -7.58531,-0.10741 -11.37635,0c-1.04307,0.02955 -2.09582,0.49163 -3.12199,0.26751c-0.92663,-0.20238 -1.60089,-1.30279 -2.52808,-1.5015c-4.14144,-0.88756 -9.06288,-0.26751 -13.31054,-0.26751c-1.02551,0.46192 -2.05797,-0.91802 -3.12198,-1.23399c-0.81753,-0.24278 -1.71055,0.24278 -2.52808,0c-0.91403,-0.27143 -1.6066,-1.26831 -2.52808,-1.5015c-1.40945,-0.35668 -7.51507,-0.35668 -8.92451,0c-0.92148,0.23319 -1.60145,1.29912 -2.52808,1.5015c-2.68212,0.58578 -5.45106,-0.26751 -8.17814,-0.26751c-4.42516,0 -9.50178,0.7201 -13.81999,0.12913c-1.32366,-0.18115 -2.47517,-1.2611 -3.79212,-1.5015c-1.19878,-0.21883 -8.59078,-0.08465 -9.93408,-0.12426c-4.71528,-0.13904 -9.41948,-0.57829 -14.12442,-0.9983z" fill="url(#color-2)" stroke-width="0"/><path d="M291.19407,-10.69593h43v117.1361c-5.8618,0.36308 -11.71773,1.00431 -17.44117,1.34165c-8.44586,0.49781 -17.081,0.0359 -25.55883,-0.0037z" fill="#7c7464" stroke-width="0"/><path d="M207.52745,-10.69592h43v115.79102c-0.06312,-0.0208 -0.12632,-0.03929 -0.18962,-0.05512c-0.97111,-0.24278 -2.03189,0.24278 -3.003,0c-1.08574,-0.27143 -1.90841,-1.26831 -3.003,-1.5015c-1.67422,-0.35668 -8.92685,-0.35668 -10.60106,0c-1.09459,0.23319 -1.9023,1.29912 -3.003,1.5015c-3.18598,0.58578 -6.47509,-0.26751 -9.71448,-0.26751c-4.28349,0 -9.08085,0.47819 -13.48582,0.33542z" fill="#7c7464" stroke-width="0"/><path d="M202.70793,19.20515c0,0 -0.07811,-21.05637 -0.07811,-25.92258c0,-1.56759 12.5912,-7.26319 12.5912,-7.26319l153.42683,0.09417c-0.91935,4.10494 0.86987,8.43796 0.86987,12.7895c0,6.76737 0,13.53474 0,20.30211z" fill="url(#color-3)" stroke-width="0"/><path d="M196.67015,-28.37813c0,0 -0.02698,0.32297 -0.04609,-1.1973c-0.14226,-12.98086 7.39156,-11.54604 12.82201,-11.54604c6.84727,0 26.22978,0 51.19374,0c33.92746,0 47.87763,12.74335 4.5045,12.74334c-37.04272,0 -68.47416,0 -68.47416,0z" fill="#94bc85" stroke-width="0"/><path d="M196.60277,-4.13523c0,-4.21713 0,-14.07115 0,-14.07115c0,0 93.45957,0.17656 133.05383,0.25137c31.92344,0.06031 32.86582,23.20522 3.86025,23.20522c-48.63396,0 -95.63587,0 -112.38018,0c-6.10971,0 -9.62673,0 -14.17734,0c-10.0914,0 -10.35657,-5.9413 -10.35657,-9.38544z" fill="#80a374" stroke-width="0"/><path d="M196.56955,-8.13523v-22c0,0 2.43263,0 5.66263,0c13.42537,0 105.84531,0 159.83412,0c0.01641,0.86766 0.01839,6.7431 0.01533,12.20481c-0.0002,0.3577 -0.00042,0.71363 -0.00066,1.06625c-0.0031,4.53229 -0.00931,8.51984 -0.01306,8.72894z" fill="url(#color-4)" stroke-width="0"/><path d="M227.38649,-41.12147c58.92481,0 124.1856,0 138.05046,0c5.43045,0 12.96427,-1.43482 12.82201,11.54604c-0.01911,1.52027 -0.04609,1.1973 -0.04609,1.1973c0,0 -118.66427,0.00001 -155.82638,0.00001c-20.69812,0 -13.92315,-12.74335 5,-12.74335z" data-paper-data="{&quot;index&quot;:null}" fill="#94bc85" stroke-width="0"/><path d="M378.28028,-4.13523c0,3.44414 -0.26517,9.38544 -10.35657,9.38544c-4.55061,0 -8.06763,0 -14.17734,0c-16.74431,0 -63.74622,0 -112.38018,0c-29.00557,0 -44.90495,-23.11309 -19.02797,-23.16198c40.51813,-0.07655 155.94205,-0.29461 155.94205,-0.29461c0,0 0,9.85402 0,14.07115z" data-paper-data="{&quot;index&quot;:null}" fill="#80a374" stroke-width="0"/><path d="M206.30974,-8.13523c-0.00389,-0.2091 -0.01035,-4.19665 -0.01356,-8.72894c-0.00026,-0.35262 -0.00048,-0.70855 -0.00069,-1.06625c-0.00318,-5.46171 -0.00113,-11.33715 0.01593,-12.20481c56.11098,0 152.16376,0 166.11685,0c3.35696,0 5.88521,0 5.88521,0v22z" data-paper-data="{&quot;index&quot;:null}" fill="url(#color-5)" stroke-width="0"/><g data-paper-data="{&quot;index&quot;:null}"><path d="M79.61156,127.48117v-44.04227h190.2251v44.04227z" fill="#d2a617" stroke-width="0"/><path d="M271.67702,77.56532c13.80712,0 25,11.19288 25,25c0,13.80712 -11.19288,25 -25,25c-7.65738,0 -14.51068,-3.44268 -19.09655,-8.86468c-1.25232,0.19314 -2.53533,0.29335 -3.84172,0.29335c-6.33076,0 -12.11191,-2.35314 -16.51652,-6.23246c-4.4046,3.87933 -10.18576,6.23246 -16.51652,6.23246c-7.08585,0 -13.48317,-2.94795 -18.03242,-7.68429c-0.97993,0.11673 -1.97726,0.17678 -2.98861,0.17678c-5.30223,0 -10.21893,-1.65063 -14.26427,-4.46609c-4.04534,2.81545 -8.96204,4.46609 -14.26426,4.46609c-6.71196,0 -12.80614,-2.64505 -17.29702,-6.94966c-4.58063,5.18292 -11.27815,8.45116 -18.73901,8.45116c-5.74721,0 -11.04146,-1.93932 -15.26406,-5.19926c-2.63929,1.18951 -5.52218,1.93427 -8.5532,2.13881c-3.16123,10.18343 -12.65703,17.5788 -23.8801,17.5788c-13.80712,0 -25,-11.19288 -25,-25c0,-13.23297 10.28136,-24.0646 23.29173,-24.94256c3.16124,-10.18344 12.65703,-17.57879 23.8801,-17.57879c5.74721,0 11.04146,1.93932 15.26406,5.19926c3.13083,-1.41104 6.60444,-2.19625 10.26147,-2.19625c6.71196,0 12.80614,2.64505 17.29702,6.94965c4.58063,-5.18292 11.27815,-8.45116 18.73901,-8.45116c5.30223,0 10.21892,1.65064 14.26426,4.46609c4.04534,-2.81545 8.96204,-4.46609 14.26427,-4.46609c7.08584,0 13.48317,2.94795 18.03242,7.6843c0.97993,-0.11674 1.97725,-0.17679 2.9886,-0.17679c6.33076,0 12.11191,2.35314 16.51652,6.23247c4.4046,-3.87933 10.18575,-6.23247 16.51652,-6.23247c7.65738,0 14.51068,3.44268 19.09655,8.86468c1.25233,-0.19315 2.53533,-0.29334 3.84172,-0.29334z" fill="url(#color-6)" stroke-width="0.5"/></g><g data-paper-data="{&quot;index&quot;:null}"><path d="M332.86984,134.49319v-44.04227h190.2251v44.04227z" fill="#d2a617" stroke-width="0"/><path d="M524.9353,84.57734c13.80712,0 25,11.19288 25,25c0,13.80712 -11.19288,25 -25,25c-7.65738,0 -14.51068,-3.44268 -19.09655,-8.86468c-1.25232,0.19314 -2.53533,0.29335 -3.84172,0.29335c-6.33076,0 -12.11191,-2.35314 -16.51652,-6.23246c-4.4046,3.87933 -10.18576,6.23246 -16.51652,6.23246c-7.08585,0 -13.48317,-2.94795 -18.03242,-7.68429c-0.97993,0.11673 -1.97726,0.17678 -2.98861,0.17678c-5.30223,0 -10.21893,-1.65063 -14.26427,-4.46609c-4.04534,2.81545 -8.96204,4.46609 -14.26426,4.46609c-6.71196,0 -12.80614,-2.64505 -17.29702,-6.94966c-4.58063,5.18292 -11.27815,8.45116 -18.73901,8.45116c-5.74721,0 -11.04146,-1.93932 -15.26406,-5.19926c-2.63929,1.18951 -5.52218,1.93427 -8.5532,2.13881c-3.16123,10.18343 -12.65703,17.5788 -23.8801,17.5788c-13.80712,0 -25,-11.19288 -25,-25c0,-13.23297 10.28136,-24.0646 23.29173,-24.94256c3.16124,-10.18344 12.65703,-17.57879 23.8801,-17.57879c5.74721,0 11.04146,1.93932 15.26406,5.19926c3.13083,-1.41104 6.60444,-2.19625 10.26147,-2.19625c6.71196,0 12.80614,2.64505 17.29702,6.94965c4.58063,-5.18292 11.27815,-8.45116 18.73901,-8.45116c5.30223,0 10.21892,1.65064 14.26426,4.46609c4.04534,-2.81545 8.96204,-4.46609 14.26427,-4.46609c7.08584,0 13.48317,2.94795 18.03242,7.6843c0.97993,-0.11674 1.97725,-0.17679 2.9886,-0.17679c6.33076,0 12.11191,2.35314 16.51652,6.23247c4.4046,-3.87933 10.18575,-6.23247 16.51652,-6.23247c7.65738,0 14.51068,3.44268 19.09655,8.86468c1.25233,-0.19315 2.53533,-0.29334 3.84172,-0.29334z" fill="url(#color-7)" stroke-width="0.5"/></g><g data-paper-data="{&quot;index&quot;:null}"><path d="M152.68965,154.01271v-44.04227h190.2251v44.04227z" fill="#d2a617" stroke-width="0"/><path d="M344.75511,104.09686c13.80712,0 25,11.19288 25,25c0,13.80712 -11.19288,25 -25,25c-7.65738,0 -14.51068,-3.44268 -19.09655,-8.86468c-1.25232,0.19314 -2.53533,0.29335 -3.84172,0.29335c-6.33076,0 -12.11191,-2.35314 -16.51652,-6.23246c-4.4046,3.87933 -10.18576,6.23246 -16.51652,6.23246c-7.08585,0 -13.48317,-2.94795 -18.03242,-7.68429c-0.97993,0.11673 -1.97726,0.17678 -2.98861,0.17678c-5.30223,0 -10.21893,-1.65063 -14.26427,-4.46609c-4.04534,2.81545 -8.96204,4.46609 -14.26426,4.46609c-6.71196,0 -12.80614,-2.64505 -17.29702,-6.94966c-4.58063,5.18292 -11.27815,8.45116 -18.73901,8.45116c-5.74721,0 -11.04146,-1.93932 -15.26406,-5.19926c-2.63929,1.18951 -5.52218,1.93427 -8.5532,2.13881c-3.16123,10.18343 -12.65703,17.5788 -23.8801,17.5788c-13.80712,0 -25,-11.19288 -25,-25c0,-13.23297 10.28136,-24.0646 23.29173,-24.94256c3.16124,-10.18344 12.65703,-17.57879 23.8801,-17.57879c5.74721,0 11.04146,1.93932 15.26406,5.19926c3.13083,-1.41104 6.60444,-2.19625 10.26147,-2.19625c6.71196,0 12.80614,2.64505 17.29702,6.94965c4.58063,-5.18292 11.27815,-8.45116 18.73901,-8.45116c5.30223,0 10.21892,1.65064 14.26426,4.46609c4.04534,-2.81545 8.96204,-4.46609 14.26427,-4.46609c7.08584,0 13.48317,2.94795 18.03242,7.6843c0.97993,-0.11674 1.97725,-0.17679 2.9886,-0.17679c6.33076,0 12.11191,2.35314 16.51652,6.23247c4.4046,-3.87933 10.18575,-6.23247 16.51652,-6.23247c7.65738,0 14.51068,3.44268 19.09655,8.86468c1.25233,-0.19315 2.53533,-0.29334 3.84172,-0.29334z" fill="url(#color-8)" stroke-width="0.5"/></g><g stroke-width="0"><path d="M-115.60659,131.71248c0,-16.4355 0,-89.05105 0,-89.05105h199.6997c0,0 0,70.48838 0,87.19894c0,6.63462 -6.39222,14.90316 -16.82815,14.90316c-41.42075,0 -146.54351,0 -168.52511,0c-7.94007,0 -14.34643,-6.75908 -14.34643,-13.05105z" fill="url(#color-9)"/><path d="M5.74065,37.60214h43v107.10055h-42.99998z" fill="#7c7464"/><path d="M-79.25936,37.35214h43v107.10055h-42.99998z" fill="#7c7464"/><path d="M-115.59572,67.2532c0,0 -0.09279,-21.05637 -0.09279,-25.92258c0,-1.56759 14.95657,-7.26319 14.95657,-7.26319l182.24949,0.09417c-1.09205,4.10494 1.03328,8.43796 1.03328,12.7895c0,6.76737 0,13.53474 0,20.30211z" fill="url(#color-10)"/><path d="M-121.64818,19.66993c0,0 -0.02698,0.32297 -0.04609,-1.1973c-0.14226,-12.98086 7.39156,-11.54604 12.82201,-11.54604c18.31743,0 126.34193,0 190.94752,0c0.08427,0.56076 0.21511,1.10627 0.38845,1.63249c0,2.00437 -0.12131,6.40426 0.05397,11.11086z" fill="#94bc85"/><path d="M-121.71556,43.91281c0,-4.21713 0,-14.07115 0,-14.07115c0,0 115.42392,0.21806 155.94205,0.29461c25.87698,0.04889 9.9776,23.16198 -19.02797,23.16198c-48.63396,0 -95.63587,0 -112.38018,0c-6.10971,0 -9.62673,0 -14.17734,0c-10.0914,0 -10.35657,-5.9413 -10.35657,-9.38544z" fill="#80a374"/><path d="M-121.74878,39.91283v-22c0,0 2.89607,0 6.7414,0c15.983,0 126.00965,0 190.28373,0c0.01954,0.86766 0.02189,6.7431 0.01825,12.20481c-0.00024,0.3577 -0.0005,0.71363 -0.00079,1.06625c-0.00369,4.53229 -0.01108,8.51984 -0.01554,8.72894z" fill="url(#color-11)"/><g><path d="M-112.73979,19.66994c0.17528,-4.7066 0.05397,-9.10649 0.05397,-11.11086c0.17334,-0.52622 0.30418,-1.07173 0.38845,-1.63249c64.60559,0 172.63009,0 190.94752,0c5.43045,0 12.96427,-1.43482 12.82201,11.54604c-0.01911,1.52027 -0.04609,1.1973 -0.04609,1.1973z" data-paper-data="{&quot;index&quot;:null}" fill="#94bc85"/><path d="M91.49345,43.91281c0,3.44414 -0.26517,9.38544 -10.35657,9.38544c-4.55061,0 -8.06763,0 -14.17734,0c-16.74431,0 -63.74622,0 -112.38018,0c-29.00557,0 -44.90496,-23.1131 -19.02798,-23.16198c40.51814,-0.07654 155.94205,-0.2946 155.94205,-0.2946c0,0 0,9.85402 0,14.07115z" data-paper-data="{&quot;index&quot;:null}" fill="#80a374"/><path d="M-105.50036,39.91283c-0.00446,-0.2091 -0.01185,-4.19665 -0.01554,-8.72894c-0.00029,-0.35262 -0.00055,-0.70855 -0.00079,-1.06625c-0.00363,-5.46171 -0.00128,-11.33715 0.01826,-12.20481c64.27409,0 174.30073,0 190.28373,0c3.84533,0 6.7414,0 6.7414,0v22z" data-paper-data="{&quot;index&quot;:null}" fill="url(#color-12)"/></g><path d="M-115.60657,131.71249c0,-16.4355 0,-89.05105 0,-89.05105h199.6997c0,0 0,70.48838 0,87.19894c0,6.63462 -6.39222,14.90316 -16.82815,14.90316c-41.42075,0 -146.54351,0 -168.52511,0c-7.94007,0 -14.34643,-6.75908 -14.34643,-13.05105z" fill="url(#color-13)"/><path d="M5.74068,37.60215h43v107.10055h-42.99998z" fill="#7c7464"/><path d="M-79.25934,37.35215h43v107.10055h-42.99998z" fill="#7c7464"/><path d="M-115.59569,67.25322c0,0 -0.09279,-21.05637 -0.09279,-25.92258c0,-1.56759 14.95657,-7.26319 14.95657,-7.26319l182.24949,0.09417c-1.09205,4.10494 1.03328,8.43796 1.03328,12.7895c0,6.76737 0,13.53474 0,20.30211z" fill="url(#color-14)"/><path d="M-121.64816,19.66994c0,0 -0.02698,0.32297 -0.04609,-1.1973c-0.14226,-12.98086 7.39156,-11.54604 12.82201,-11.54604c18.31743,0 126.34193,0 190.94752,0c0.08427,0.56076 0.21511,1.10627 0.38845,1.63249c0,2.00437 -0.12131,6.40426 0.05397,11.11086z" fill="#94bc85"/><path d="M-121.71554,43.91281c0,-4.21713 0,-14.07115 0,-14.07115c0,0 115.42392,0.21806 155.94205,0.29461c25.87698,0.04889 9.9776,23.16198 -19.02797,23.16198c-48.63396,0 -95.63587,0 -112.38018,0c-6.10971,0 -9.62673,0 -14.17734,0c-10.0914,0 -10.35657,-5.9413 -10.35657,-9.38544z" fill="#80a374"/><path d="M-121.74876,39.91284v-22c0,0 2.89607,0 6.7414,0c15.983,0 126.00965,0 190.28373,0c0.01954,0.86766 0.02189,6.7431 0.01825,12.20481c-0.00024,0.3577 -0.0005,0.71363 -0.00079,1.06625c-0.00369,4.53229 -0.01108,8.51984 -0.01554,8.72894z" fill="url(#color-15)"/><g><path d="M-112.73979,19.66994c0.17528,-4.7066 0.05397,-9.10649 0.05397,-11.11086c0.17334,-0.52622 0.30418,-1.07173 0.38845,-1.63249c64.60559,0 172.63009,0 190.94752,0c5.43045,0 12.96427,-1.43482 12.82201,11.54604c-0.01911,1.52027 -0.04609,1.1973 -0.04609,1.1973z" data-paper-data="{&quot;index&quot;:null}" fill="#94bc85"/><path d="M91.49345,43.91281c0,3.44414 -0.26517,9.38544 -10.35657,9.38544c-4.55061,0 -8.06763,0 -14.17734,0c-16.74431,0 -63.74622,0 -112.38018,0c-29.00557,0 -44.90496,-23.1131 -19.02798,-23.16198c40.51814,-0.07654 155.94205,-0.2946 155.94205,-0.2946c0,0 0,9.85402 0,14.07115z" data-paper-data="{&quot;index&quot;:null}" fill="#80a374"/><path d="M-105.50033,39.91284c-0.00446,-0.2091 -0.01185,-4.19665 -0.01554,-8.72894c-0.00029,-0.35262 -0.00055,-0.70855 -0.00079,-1.06625c-0.00363,-5.46171 -0.00128,-11.33715 0.01826,-12.20481c64.27409,0 174.30073,0 190.28373,0c3.84533,0 6.7414,0 6.7414,0v22z" data-paper-data="{&quot;index&quot;:null}" fill="url(#color-16)"/></g></g><g data-paper-data="{&quot;index&quot;:null}"><path d="M386.50035,373.27847v-44.04226h190.2251v44.04227z" fill="url(#color-17)" stroke-width="0"/><path d="M388.50173,323.65597c4.58587,-5.422 11.43917,-8.86468 19.09655,-8.86468c6.33076,0 12.11191,2.35314 16.51652,6.23247c4.4046,-3.87933 10.18576,-6.23247 16.51652,-6.23247c1.01135,0 2.00867,0.06005 2.9886,0.17679c4.54925,-4.73635 10.94657,-7.6843 18.03242,-7.6843c5.30222,0 10.21892,1.65064 14.26426,4.46609c4.04534,-2.81545 8.96204,-4.46609 14.26426,-4.46609c7.46086,0 14.15838,3.26824 18.73901,8.45116c4.49088,-4.30461 10.58506,-6.94966 17.29702,-6.94966c3.65702,0 7.13064,0.78522 10.26147,2.19626c4.2226,-3.25994 9.51685,-5.19926 15.26406,-5.19926c11.22307,0 20.71886,7.39536 23.88009,17.5788c13.01038,0.87796 23.29174,11.70959 23.29174,24.94256c0,13.80712 -11.19288,25 -25,25c-11.22307,0 -20.71886,-7.39536 -23.8801,-17.57879c-3.03102,-0.20454 -5.91391,-0.9493 -8.5532,-2.13881c-4.2226,3.25994 -9.51686,5.19926 -15.26406,5.19926c-7.46086,0 -14.15838,-3.26824 -18.73901,-8.45116c-4.49088,4.3046 -10.58506,6.94966 -17.29702,6.94966c-5.30222,0 -10.21892,-1.65064 -14.26426,-4.46609c-4.04534,2.81545 -8.96204,4.46609 -14.26426,4.46609c-1.01135,0 -2.00868,-0.06005 -2.98861,-0.17679c-4.54925,4.73635 -10.94657,7.6843 -18.03242,7.6843c-6.33076,0 -12.11192,-2.35314 -16.51652,-6.23247c-4.40461,3.87933 -10.18575,6.23247 -16.51652,6.23247c-1.3064,0 -2.5894,-0.10021 -3.84172,-0.29335c-4.58587,5.422 -11.43917,8.86468 -19.09655,8.86468c-13.80712,0 -25,-11.19288 -25,-25c0,-13.80712 11.19288,-25 25,-25c1.3064,0 2.5894,0.1002 3.84172,0.29335z" fill="url(#color-18)" stroke-width="0.5"/></g><g data-paper-data="{&quot;index&quot;:null}"><path d="M194.7467,398.77246v-44.04226h190.2251v44.04227z" fill="url(#color-19)" stroke-width="0"/><path d="M386.81215,348.85661c13.80712,0 25,11.19288 25,25c0,13.80712 -11.19288,25 -25,25c-7.65738,0 -14.51068,-3.44268 -19.09655,-8.86468c-1.25233,0.19314 -2.53532,0.29335 -3.84173,0.29335c-6.33076,0 -12.11191,-2.35314 -16.51651,-6.23247c-4.40461,3.87933 -10.18576,6.23247 -16.51652,6.23247c-7.08585,0 -13.48317,-2.94795 -18.03242,-7.6843c-0.97993,0.11674 -1.97726,0.17679 -2.98861,0.17679c-5.30222,0 -10.21892,-1.65064 -14.26426,-4.46609c-4.04534,2.81545 -8.96204,4.46609 -14.26426,4.46609c-6.71196,0 -12.80614,-2.64505 -17.29702,-6.94966c-4.58063,5.18292 -11.27815,8.45116 -18.73901,8.45116c-5.7472,0 -11.04146,-1.93932 -15.26406,-5.19926c-2.63929,1.1895 -5.52218,1.93427 -8.5532,2.13881c-3.16124,10.18344 -12.65703,17.5788 -23.8801,17.5788c-13.80712,0 -25,-11.19288 -25,-25c0,-13.23297 10.28136,-24.0646 23.29174,-24.94255c3.16123,-10.18344 12.65702,-17.57879 23.88009,-17.57879c5.7472,0 11.04146,1.93932 15.26406,5.19926c3.13083,-1.41103 6.60444,-2.19626 10.26147,-2.19626c6.71196,0 12.80614,2.64505 17.29703,6.94966c4.58063,-5.18292 11.27815,-8.45116 18.73901,-8.45116c5.30222,0 10.21892,1.65064 14.26426,4.46609c4.04534,-2.81545 8.96204,-4.46609 14.26426,-4.46609c7.08585,0 13.48317,2.94795 18.03242,7.6843c0.97993,-0.11674 1.97725,-0.17679 2.9886,-0.17679c6.33076,0 12.11191,2.35314 16.51652,6.23247c4.40461,-3.87933 10.18576,-6.23247 16.51651,-6.23247c7.65738,0 14.51069,3.44268 19.09655,8.86468c1.25233,-0.19314 2.53532,-0.29335 3.84173,-0.29335z" fill="url(#color-20)" stroke-width="0.5"/></g><path d="M-45.59946,123.24646c0,24.04844 -17.8145,43.54354 -39.78979,43.54354c-21.97529,0 -39.78979,-19.49511 -39.78979,-43.54354c0,-24.04844 17.8145,-43.54354 39.78979,-43.54354c21.97529,0 39.78979,19.49511 39.78979,43.54354z" fill="none" stroke-width="0"/><path d="M-63.61748,96.97018c0,32.75563 -22.85633,59.30931 -51.05105,59.30931c-28.19472,0 -51.05105,-26.55368 -51.05105,-59.30931c0,-32.75563 22.85633,-59.30931 51.05105,-59.30931c28.19472,0 51.05105,26.55368 51.05105,59.30931z" fill="none" stroke-width="0"/><path d="M292.99443,-35.47794c0,32.341 -10.4198,58.55856 -23.27327,58.55856c-12.85347,0 -23.27327,-26.21756 -23.27327,-58.55856c0,-32.341 10.4198,-58.55856 23.27327,-58.55856c12.85347,0 23.27327,26.21756 23.27327,58.55856z" fill="none" stroke-width="0"/><ellipse cx="-209.80694" cy="466.58165" transform="scale(0.5,0.5)" rx="0" ry="0" fill="none" stroke-width="0"/></g></g></svg>