<svg version="1.1" xmlns="http://www.w3.org/2000/svg" xmlns:xlink="http://www.w3.org/1999/xlink" width="339.33933" height="199.6997" viewBox="0,0,339.33933,199.6997"><defs><linearGradient x1="125.60503" y1="240.93594" x2="125.60503" y2="269.89885" gradientUnits="userSpaceOnUse" id="color-1"><stop offset="0" stop-color="#7e9f71"/><stop offset="1" stop-color="#576e4e"/></linearGradient><linearGradient x1="123.45864" y1="234.81005" x2="123.45864" y2="268.50836" gradientUnits="userSpaceOnUse" id="color-2"><stop offset="0" stop-color="#7e9f71"/><stop offset="1" stop-color="#576e4e"/></linearGradient><linearGradient x1="118.50885" y1="229.17148" x2="118.50885" y2="266.62361" gradientUnits="userSpaceOnUse" id="color-3"><stop offset="0" stop-color="#7e9f71"/><stop offset="1" stop-color="#576e4e"/></linearGradient><linearGradient x1="114.82392" y1="247.10549" x2="114.82392" y2="268.12593" gradientUnits="userSpaceOnUse" id="color-4"><stop offset="0" stop-color="#7e9f71"/><stop offset="1" stop-color="#576e4e"/></linearGradient><linearGradient x1="270.82466" y1="245.138" x2="270.82466" y2="264.46975" gradientUnits="userSpaceOnUse" id="color-5"><stop offset="0" stop-color="#77966b"/><stop offset="1" stop-color="#637d59"/></linearGradient><linearGradient x1="253.81435" y1="249.83508" x2="253.81435" y2="269.16682" gradientUnits="userSpaceOnUse" id="color-6"><stop offset="0" stop-color="#77966b"/><stop offset="1" stop-color="#637d59"/></linearGradient><linearGradient x1="263.21702" y1="233.83042" x2="263.21702" y2="264.82147" gradientUnits="userSpaceOnUse" id="color-7"><stop offset="0" stop-color="#77966b"/><stop offset="1" stop-color="#637d59"/></linearGradient></defs><g transform="translate(-29.22299,-116.21621)"><g data-paper-data="{&quot;isPaintingLayer&quot;:true}" fill-rule="nonzero" stroke-linejoin="miter" stroke-miterlimit="10" stroke-dasharray="" stroke-dashoffset="0" style="mix-blend-mode: normal"><path d="" fill="none" stroke="none" stroke-width="0" stroke-linecap="butt"/><path d="M118.13121,267.73427c0,0 2.85925,-4.29508 8.4267,-15.21431c4.70098,-9.2198 6.52096,-11.58402 6.52096,-11.58402c0,0 -2.1073,11.70955 -3.33661,21.0166c-1.51055,11.43623 1.67327,7.16579 1.67327,7.16579z" data-paper-data="{&quot;origRot&quot;:0,&quot;index&quot;:null}" fill="url(#color-1)" stroke="none" stroke-width="0" stroke-linecap="butt"/><path d="M119.62674,267.50039c0,0 1.04941,5.22515 2.16152,-8.11779c0.90504,-10.85876 1.73024,-24.57255 1.73024,-24.57255c0,0 0.61303,2.89814 1.66388,13.97786c1.24453,13.12197 2.10825,18.34554 2.10825,18.34554z" data-paper-data="{&quot;index&quot;:null}" fill="url(#color-2)" stroke="none" stroke-width="0" stroke-linecap="butt"/><path d="M114.43314,265.86303c0,0 2.72203,-4.06874 2.64082,-8.70596c-0.16955,-9.68212 -3.28334,-27.98562 -3.28334,-27.98562c0,0 5.03289,14.38769 6.74425,21.22902c2.10285,8.40642 2.69222,16.22316 2.69222,16.22316z" fill="url(#color-3)" stroke="none" stroke-width="0" stroke-linecap="butt"/><path d="M111.56311,268.02c0,0 2.38207,1.51552 1.35874,-6.91624c-0.83283,-6.86193 -3.83673,-13.99829 -3.83673,-13.99829c0,0 3.25965,1.8792 6.44436,8.67681c3.7717,8.05056 5.03319,11.21726 5.03319,11.21726z" data-paper-data="{&quot;origRot&quot;:0}" fill="url(#color-4)" stroke="none" stroke-width="0" stroke-linecap="butt"/><path d="M264.05888,273.6294c-2.57773,-8.37366 -4.58874,-10.66716 -7.31229,-27.22554c-2.72356,-16.55838 -4.20449,-42.79285 -4.20449,-42.79285" data-paper-data="{&quot;origRot&quot;:0,&quot;index&quot;:null}" fill="none" stroke="#576f4f" stroke-width="3.5" stroke-linecap="round"/><path d="M267.48828,265.30165c-0.14978,-2.86677 -0.19334,-5.82355 -0.09367,-8.9195c0.67908,-21.09545 8.08328,-42.2323 8.08328,-42.2323" data-paper-data="{&quot;origRot&quot;:0,&quot;index&quot;:null}" fill="none" stroke="#708e65" stroke-width="5" stroke-linecap="round"/><path d="M287.61162,174.76691l-15.2988,49.31345" data-paper-data="{&quot;origRot&quot;:0,&quot;index&quot;:null}" fill="none" stroke="#8fa686" stroke-width="10" stroke-linecap="round"/><path d="M253.46562,163.0082l0.10072,51.62716" data-paper-data="{&quot;origRot&quot;:0,&quot;index&quot;:null}" fill="none" stroke="#8fa686" stroke-width="10" stroke-linecap="round"/><path d="M265.54695,263.43383c0,0 1.16013,-2.91229 4.62883,-10.31609c2.92886,-6.2515 5.92663,-7.97973 5.92663,-7.97973c0,0 -2.76256,6.56304 -3.52849,12.8737c-0.94113,7.75437 1.24958,6.3606 1.24958,6.3606z" data-paper-data="{&quot;origRot&quot;:0}" fill="url(#color-5)" stroke="none" stroke-width="0" stroke-linecap="butt"/><path d="M250.81548,269.06939c0,0 2.19069,1.39376 1.24958,-6.3606c-0.7659,-6.31064 -3.52848,-12.87369 -3.52848,-12.87369c0,0 2.99778,1.72824 5.92664,7.97973c3.46871,7.4038 4.62883,10.31609 4.62883,10.31609z" data-paper-data="{&quot;origRot&quot;:0}" fill="url(#color-6)" stroke="none" stroke-width="0" stroke-linecap="butt"/><path d="M259.69289,263.55697c0,0 0.38931,-2.35445 1.01556,-7.90741c0.26829,-2.37894 0.58006,-5.34491 0.92334,-8.96428c0.96642,-10.18959 1.5302,-12.8549 1.5302,-12.8549c0,0 0.7589,12.61205 1.59124,22.59843c1.02277,12.271 1.98785,7.46562 1.98785,7.46562z" data-paper-data="{&quot;index&quot;:null}" fill="url(#color-7)" stroke="none" stroke-width="0" stroke-linecap="butt"/><path d="M368.56232,216.06606c0,55.14555 -75.9637,99.84985 -169.66967,99.84985c-93.70597,0 -169.66966,-44.7043 -169.66966,-99.84985c0,-55.14555 75.96369,-99.84985 169.66966,-99.84985c93.70597,0 169.66967,44.7043 169.66967,99.84985z" fill="none" stroke="none" stroke-width="0" stroke-linecap="butt"/></g></g></svg>