<svg version="1.1" xmlns="http://www.w3.org/2000/svg" xmlns:xlink="http://www.w3.org/1999/xlink" width="267.02018" height="91.36904" viewBox="0,0,267.02018,91.36904"><g transform="translate(-238.32596,-139.08168)"><g data-paper-data="{&quot;isPaintingLayer&quot;:true}" fill="none" fill-rule="nonzero" stroke="#f6fbff" stroke-width="5" stroke-linecap="round" stroke-linejoin="miter" stroke-miterlimit="10" stroke-dasharray="" stroke-dashoffset="0" style="mix-blend-mode: normal"><g data-paper-data="{&quot;index&quot;:null}"><path d="M369.82838,217.9626c15.22225,-8.74648 63.31683,-36.38091 63.31683,-36.38091"/><path d="M389.66964,219.94595c14.29337,-8.21276 44.1765,-25.38316 44.1765,-25.38316"/><path d="M422.63296,187.79428l-7.26344,17.18586l-22.82536,1.00137"/></g><g data-paper-data="{&quot;index&quot;:null}"><path d="M502.14521,141.58168l-83.45891,47.95425"/><path d="M419.38723,202.51704l83.45891,-47.95425"/><path d="M491.63296,147.79428l-7.26344,17.18586l-22.82536,1.00137"/><path d="M458.25163,166.82692l-7.26344,17.18585l-22.82537,1.00137"/></g><g data-paper-data="{&quot;index&quot;:null}"><path d="M341.82596,208.95071l-96,7"/><path d="M240.82596,227.95072l96,-7"/><path d="M329.65925,209.98775l-14,12.33333l-21,-9"/><path d="M291.32595,212.65442l-14,12.33333l-21,-9"/></g></g></g></svg>