<svg version="1.1" xmlns="http://www.w3.org/2000/svg" xmlns:xlink="http://www.w3.org/1999/xlink" width="279.42161" height="207.52682" viewBox="0,0,279.42161,207.52682"><defs><linearGradient x1="328.39709" y1="387.11939" x2="328.39709" y2="419.42031" gradientUnits="userSpaceOnUse" id="color-1"><stop offset="0" stop-color="#ffeaa9"/><stop offset="1" stop-color="#ffdeb0"/></linearGradient><linearGradient x1="344.52205" y1="276.47947" x2="348.2769" y2="299.9996" gradientUnits="userSpaceOnUse" id="color-2"><stop offset="0" stop-color="#5c5549"/><stop offset="1" stop-color="#756c5e"/></linearGradient><linearGradient x1="328.52736" y1="272.82169" x2="358.54836" y2="268.02912" gradientUnits="userSpaceOnUse" id="color-3"><stop offset="0" stop-color="#746b5d"/><stop offset="1" stop-color="#746b5d" stop-opacity="0"/></linearGradient><linearGradient x1="332.13946" y1="270.45302" x2="355.20194" y2="270.42384" gradientUnits="userSpaceOnUse" id="color-4"><stop offset="0" stop-color="#514b41"/><stop offset="1" stop-color="#36322b"/></linearGradient><linearGradient x1="556.95584" y1="251.40884" x2="558.09695" y2="269.763" gradientUnits="userSpaceOnUse" id="color-5"><stop offset="0" stop-color="#5c5549"/><stop offset="1" stop-color="#756c5e"/></linearGradient><linearGradient x1="568.38906" y1="245.95318" x2="544.96188" y2="247.40975" gradientUnits="userSpaceOnUse" id="color-6"><stop offset="0" stop-color="#746b5d"/><stop offset="1" stop-color="#746b5d" stop-opacity="0"/></linearGradient><linearGradient x1="327.99251" y1="377.5155" x2="327.99251" y2="391.09885" gradientUnits="userSpaceOnUse" id="color-7"><stop offset="0" stop-color="#514733"/><stop offset="1" stop-color="#6d6045"/></linearGradient></defs><g transform="translate(-298.06845,-213.48747)"><g data-paper-data="{&quot;isPaintingLayer&quot;:true}" fill-rule="nonzero" stroke-miterlimit="10" stroke-dasharray="" stroke-dashoffset="0" style="mix-blend-mode: normal"><path d="M319.42043,414.45272c-5.50956,-5.87686 -5.66667,-27.33333 -5.66667,-27.33333h28.66667c0,0 2.84886,18.42644 -3.66667,26.66667c-6.51553,8.24023 -13.82377,6.54353 -19.33333,0.66667z" fill="url(#color-1)" stroke="none" stroke-width="0" stroke-linecap="butt" stroke-linejoin="miter"/><path d="M313.90506,391.95898c-0.32871,-4.15274 -0.35131,-7.23961 -0.35131,-7.23961h28.66667c0,0 0.38218,2.96552 0.41827,7.85334c0.00101,0.13669 -8.58371,1.05003 -16.13511,0.85992c-6.76315,-0.17028 -12.57873,-1.22353 -12.59852,-1.47364z" fill="#cebc88" stroke="none" stroke-width="0" stroke-linecap="butt" stroke-linejoin="miter"/><path d="M323.89481,372.82015c0,0 0.84701,-11.6377 11.94402,-12.37464c2.91699,-0.2363 10.10835,2.53151 17.35075,3.34694c9.36787,1.05474 18.75328,0.01869 18.75328,0.01869" fill="none" stroke="#423a2a" stroke-width="5" stroke-linecap="round" stroke-linejoin="miter"/><path d="M321.18354,419.46709c-0.79177,-0.85848 -1.77968,-1.96877 -2.41074,-2.81885c-1.78718,-2.40745 -2.56149,-3.56791 -3.92204,-6.32925c-1.21126,-2.45834 -1.53868,-3.99503 -2.25666,-6.70421c-0.39672,-1.49693 -1.11179,-2.39629 -1.32751,-3.94283c-0.1296,-0.9291 0.53658,-2.38289 0.53658,-2.38289l0.01374,-10.05782h2.74186l0.13929,10.06089c0,0 1.99576,8.36331 4.11192,12.45186c1.57749,3.0478 2.22483,4.49116 4.85187,5.89719c2.62703,1.40603 8.29819,0.5758 8.72941,1.37172c1.03848,1.91677 1.33649,4.0014 1.33649,4.0014l-7.85879,-0.01435c0,0 -1.34688,-0.0786 -1.95209,-0.11391c-0.52613,-0.0307 -2.02603,-0.65205 -2.73334,-1.41895z" data-paper-data="{&quot;index&quot;:null}" fill="#423a2a" stroke="none" stroke-width="0" stroke-linecap="butt" stroke-linejoin="miter"/><path d="M330.15312,417.79996v-32.4h2.91323v32.4z" data-paper-data="{&quot;index&quot;:null}" fill="#322c20" stroke="none" stroke-width="0" stroke-linecap="butt" stroke-linejoin="miter"/><path d="M329.46763,417.59996c0,0 0,-5.89737 0,-9.8c0,-1.40495 -1.19957,-3.6 -1.19957,-3.6l7.19739,0.2c0,0 -1.88503,2.28284 -1.88503,4c0,3.59042 0,9.2 0,9.2z" data-paper-data="{&quot;index&quot;:null}" fill="#322c20" stroke="none" stroke-width="0" stroke-linecap="butt" stroke-linejoin="miter"/><path d="M317.30064,407.59996l-1.71366,-5.6c0,0 2.08143,1 3.0846,1c3.67829,0 5.74687,0 9.42516,0c1.20381,0 1.88079,-0.6 2.74186,-2c0.65251,-1.06089 0.42144,-0.3958 1.53869,-0.32377c0.35304,0.02276 0.57391,2.55605 3.59539,2.50596c1.3593,-0.02253 4.46244,-0.18219 4.46244,-0.18219v3c0,0 -18.7833,0 -21.59217,0c-0.9363,0 -1.54229,1.6 -1.54229,1.6z" data-paper-data="{&quot;index&quot;:null}" fill="#322c20" stroke="none" stroke-width="0" stroke-linecap="butt" stroke-linejoin="miter"/><path d="M326.32106,278.53601l-1.93985,-12.15109l37.07721,-5.91914l1.93985,12.15109z" data-paper-data="{&quot;zoomLevel&quot;:1.5487,&quot;index&quot;:null}" fill="#746b5d" stroke="#837969" stroke-width="11.5" stroke-linecap="butt" stroke-linejoin="round"/><path d="M339.97369,301.32518l-3.75484,-23.52012l16.60642,-2.6511l3.75484,23.52012z" fill="url(#color-2)" stroke="none" stroke-width="0" stroke-linecap="butt" stroke-linejoin="miter"/><path d="M326.51045,279.7222l-1.93985,-12.15109l37.07721,-5.91914l1.93985,12.15109z" data-paper-data="{&quot;zoomLevel&quot;:1.5487,&quot;index&quot;:null}" fill="#746b5d" stroke="#746b5d" stroke-width="11.5" stroke-linecap="butt" stroke-linejoin="round"/><path d="M329.97346,281.87989l-2.89212,-18.1161l30.02094,-4.79266l2.89212,18.1161z" fill="url(#color-3)" stroke="none" stroke-width="0" stroke-linecap="butt" stroke-linejoin="miter"/><path d="M331.81926,284.68674l0.04167,-10.71101l3.5643,10.13533z" fill="#665f56" stroke="none" stroke-width="0" stroke-linecap="butt" stroke-linejoin="miter"/><path d="M335.61507,284.08081l0.04911,-18.17162l6.02409,17.20207z" fill="#665f56" stroke="none" stroke-width="0" stroke-linecap="butt" stroke-linejoin="miter"/><path d="M348.52547,272.07052c0,0 -9.55703,1.81267 -13.89786,2.63407c-1.13706,0.21516 -2.23321,-0.53232 -2.44835,-1.66918c-0.21516,-1.13706 0.53215,-2.23301 1.66922,-2.44819c3.63932,-0.68867 13.88665,-2.63216 13.88665,-2.63216c0,0 -0.81978,-0.56608 -4.59439,-3.13929c-0.9562,-0.65193 -1.20283,-1.95531 -0.55092,-2.91134c0.65235,-0.95611 1.95551,-1.20291 2.91156,-0.55095c3.06063,2.0863 8.78373,5.98854 8.78373,5.98854c0.95604,0.65198 1.20271,1.95551 0.55092,2.91134c0,0 -3.36704,4.93896 -5.94041,8.71361c-0.65224,0.9567 -1.95561,1.20333 -2.91156,0.55095c-0.95621,-0.65177 -1.20291,-1.95551 -0.55084,-2.91097c2.08656,-3.06151 3.09226,-4.53643 3.09226,-4.53643z" fill="url(#color-4)" stroke="none" stroke-width="0" stroke-linecap="butt" stroke-linejoin="miter"/><path d="M374.7248,314.17753c-3.84842,32.52877 -19.09444,57.46391 -34.05293,55.6942c-14.95849,-1.76971 -23.96496,-29.57413 -20.11654,-62.10289c3.84842,-32.52877 19.09443,-57.4639 34.05291,-55.69419c14.95849,1.76971 23.96497,29.57413 20.11655,62.1029z" fill="none" stroke="none" stroke-width="0" stroke-linecap="butt" stroke-linejoin="miter"/><g data-paper-data="{&quot;index&quot;:null}"><path d="M541.47313,252.61054l13.093,-33.37306l17.17393,31.43462z" data-paper-data="{&quot;zoomLevel&quot;:1.5487,&quot;index&quot;:null}" fill="#746b5d" stroke="#837969" stroke-width="11.5" stroke-linecap="butt" stroke-linejoin="round"/><path d="M554.31976,302.59362l-3.84341,-50.78198l12.95899,-0.80568l3.07132,51.94011z" fill="url(#color-5)" stroke="none" stroke-width="0" stroke-linecap="butt" stroke-linejoin="miter"/><path d="M542.13978,252.61054l12.51622,-30.96937l16.41737,29.17054z" data-paper-data="{&quot;zoomLevel&quot;:1.5487,&quot;index&quot;:null}" fill="#746b5d" stroke="#746b5d" stroke-width="11.5" stroke-linecap="butt" stroke-linejoin="round"/><path d="M545.40136,254.47833l-0.87892,-14.13709l23.42716,-1.45649l0.87892,14.13709z" fill="url(#color-6)" stroke="none" stroke-width="0" stroke-linecap="butt" stroke-linejoin="miter"/><path d="M555.55534,240.92184l-0.68937,-13.51158" fill="none" stroke="#3f3a32" stroke-width="6.5" stroke-linecap="round" stroke-linejoin="miter"/><path d="M556.35744,253.34506c-1.38584,0 -2.50929,-1.12345 -2.50929,-2.50929c0,-1.38584 1.12345,-2.50929 2.50929,-2.50929c1.38584,0 2.50929,1.12345 2.50929,2.50929c0,1.38584 -1.12345,2.50929 -2.50929,2.50929z" fill="#3f3a32" stroke="#3f3a32" stroke-width="2" stroke-linecap="butt" stroke-linejoin="miter"/></g><path d="M302.59801,379.30246c0,0 2.00247,-1.37584 4.29191,-1.27617c3.95835,0.17233 -0.06233,-7.92383 6.812,-8.12383c12.67201,-0.36868 19.73978,0.12985 29.29164,-0.04332c5.96525,-0.10815 2.75669,6.28468 5.79041,7.83768c2.23504,1.14414 4.70987,1.60564 4.70987,1.60564c0,0 0.47035,3.77073 2.02931,4.10726c3.21023,0.69298 2.8669,2.68217 0.87476,3.57797c-12.29467,5.52847 -39.85659,5.31796 -56.71713,0.34861c0,0 -4.39302,-2.69556 1.32362,-4.17368c1.45837,-0.37708 1.59361,-3.86015 1.59361,-3.86015z" data-paper-data="{&quot;index&quot;:null}" fill="#6d6045" stroke="none" stroke-width="0" stroke-linecap="butt" stroke-linejoin="miter"/><path d="M330.67823,420.99995c0,0 -7.56078,-2.07028 -6.52229,-3.98704c0.43122,-0.79593 6.10237,0.03431 8.72941,-1.37172c2.62704,-1.40603 3.27439,-2.84939 4.85187,-5.89719c2.11616,-4.08855 4.11191,-12.45186 4.11191,-12.45186l0.13929,-10.06089h2.74186l0.01373,10.05782c0,0 0.66618,1.4538 0.53659,2.38289c-0.21573,1.54654 -0.93081,2.4459 -1.32752,3.94283c-0.71797,2.70918 -1.0454,4.24587 -2.25666,6.70421c-1.36056,2.76134 -2.13486,3.9218 -3.92204,6.32925c-0.64031,0.86253 -1.30349,2.05039 -1.78113,2.96716c-0.41363,0.79392 -1.52908,1.38455 -2.09325,1.38455c-0.85428,0 -3.22177,0 -3.22177,0z" data-paper-data="{&quot;index&quot;:null}" fill="#423a2a" stroke="none" stroke-width="0" stroke-linecap="butt" stroke-linejoin="miter"/><path d="M302.59801,379.30246c0,0 2.00247,-1.37584 4.29191,-1.27617c1.88052,0.08187 9.82442,1.87726 20.9297,1.86328c12.58754,-0.01584 19.37187,-3.00796 20.96435,-2.19275c2.23504,1.14414 4.70987,1.60564 4.70987,1.60564c0,0 0.47035,3.77073 2.02931,4.10726c3.21023,0.69298 2.8669,2.68217 0.87476,3.57797c-12.29467,5.52847 -39.85659,5.31796 -56.71713,0.34861c0,0 -4.39302,-2.69556 1.32362,-4.17368c1.45837,-0.37708 1.59361,-3.86015 1.59361,-3.86015z" data-paper-data="{&quot;index&quot;:null}" fill="url(#color-7)" stroke="none" stroke-width="0" stroke-linecap="butt" stroke-linejoin="miter"/></g></g></svg>