<svg version="1.1" xmlns="http://www.w3.org/2000/svg" xmlns:xlink="http://www.w3.org/1999/xlink" width="190.69069" height="219.37188" viewBox="0,0,190.69069,219.37188"><g transform="translate(-143.15316,-63.48348)"><g data-paper-data="{&quot;isPaintingLayer&quot;:true}" fill-rule="nonzero" stroke-miterlimit="10" stroke-dasharray="" stroke-dashoffset="0" style="mix-blend-mode: normal"><path d="M239.00043,229.95519v0v0v0v0v0c-0.26499,1.96457 -1.37207,5.57777 -2.14673,6.51425c0,0 -3.19687,3.5264 -5.46486,2.26039c-0.96934,-0.54059 -1.4,-1.4867 -1.41927,-2.72863c-0.42297,-0.14171 -1.00883,-0.43164 -1.26987,-1.05603c-0.43453,-1.03483 1.77471,-1.82682 1.77471,-1.82682v0.02022c0.1051,-0.32364 0.21587,-0.64644 0.34784,-0.98753c0.7525,-1.92701 2.40873,-4.54293 3.24599,-6.00352c0,0 0.69182,-1.28816 2.39813,-1.25349c1.81527,0.03661 2.79905,3.09659 2.53405,5.06116z" fill="#be1e2d" stroke="none" stroke-width="0" stroke-linecap="round" stroke-linejoin="round"/><path d="M253.7833,235.53007c-1.4867,-1.70257 -2.40005,-6.63851 -2.61389,-7.64733c-0.21298,-1.00872 0.37191,-3.29223 1.71209,-3.75373c1.34018,-0.46257 2.64965,0.84401 2.64965,0.84401c0.97693,1.37004 2.88371,3.81249 3.82597,5.65184c0.16386,0.32665 0.30545,0.6398 0.44415,0.94804l-0.00192,-0.01927c0,0 2.27677,0.57238 1.94723,1.64382c-0.19939,0.64837 -0.74962,0.99331 -1.15909,1.17547c0.10125,1.23808 -0.22828,2.22657 -1.14261,2.85674c-2.12939,1.49055 -5.66158,-1.69958 -5.66158,-1.69958v0v0v0v0z" fill="#be1e2d" stroke="none" stroke-width="0" stroke-linecap="round" stroke-linejoin="round"/><path d="M249.35317,237.01185c1.66779,-0.48461 3.71519,0 3.71519,0c0,0 0.90673,5.50928 1.18414,7.50275c0.27848,1.99636 1.31139,5.1181 1.31139,5.1181c0,0 0.52121,0.31219 0.37481,1.1273c-0.15037,0.81319 -1.94049,0.97116 -4.18547,1.39808c-2.24113,0.42201 -4.07362,0.06068 -4.42628,-0.74094c-0.35554,-0.79777 0.30738,-1.16969 0.30738,-1.16969c0,0 1.04436,-6.57975 0.09343,-8.844c0.00482,0.00482 -0.50099,-3.77395 1.62541,-4.3916v0z" fill="#be1e2d" stroke="none" stroke-width="0" stroke-linecap="round" stroke-linejoin="round"/><path d="M242.16455,237.6295v0v0v0v0v0c3.00604,1.37871 3.32594,4.14202 3.32691,4.14491c-0.59538,2.37598 1.30946,7.89585 1.30946,7.89585c0,0 0.7129,0.2621 0.48943,1.10515c-0.22743,0.84497 -1.97806,1.48671 -4.26253,1.41446c-2.28062,-0.07428 -4.07266,0.04623 -4.34729,-0.73709c-0.27463,-0.78332 0.19371,-1.17065 0.19371,-1.17065c0,0 0.05298,-1.88559 0.01734,-3.90121c-0.03768,-2.00985 -0.3671,-7.52683 -0.3671,-7.52683c0,0 1.67068,-2.12832 3.64006,-1.22459z" fill="#be1e2d" stroke="none" stroke-width="0" stroke-linecap="round" stroke-linejoin="round"/><g stroke="none" stroke-width="0"><path d="M253.75922,229.94363v0v0v0v0v0c0.44416,2.99845 -0.26981,8.52023 -3.70557,10.4588c-3.39829,1.91352 -7.00271,1.65719 -10.7391,-0.89217c-3.09573,-2.11301 -3.02156,-8.15602 -2.6978,-11.53698v0c0,0 0.02119,-7.82157 6.60383,-8.78513c6.5806,-0.96345 9.63685,5.03815 10.14554,8.78224c0.16001,0.65906 0.29678,1.33162 0.3931,1.97324z" fill="#be1e2d" stroke-linecap="butt" stroke-linejoin="miter"/><path d="M251.94406,238.53611v0v0v0v0v0l-0.01638,0.15315c-0.50495,0.6976 -1.12538,1.28923 -1.87306,1.71124c-3.14774,1.77278 -6.4709,1.68416 -9.9134,-0.36518l-0.03564,-0.15411c0,0 -1.82298,-9.94721 4.51875,-10.39138c7.20114,-0.50099 7.365,7.38234 7.31973,9.04627z" fill="#e6e7e8" stroke-linecap="round" stroke-linejoin="round"/></g><g stroke="none" stroke-width="0" stroke-linecap="round" stroke-linejoin="round"><path d="M292.12369,197.99324l-0.57227,1.6572c-3.17471,8.37083 -7.68779,13.18829 -7.68779,13.18829c0,0 0.16193,-1.49441 0.07524,-3.89543l-0.14074,-0.04913c-0.40659,1.26408 -1.07432,2.89431 -2.18419,4.90811c-2.43388,4.42243 -9.58109,8.12991 -9.58109,8.12991c0,0 0.44427,-1.52041 0.72264,-4.00812l-0.10017,-0.38059c-0.77465,0.59645 -1.57821,1.14464 -2.39043,1.67838c-0.23899,0.15808 -0.47787,0.3122 -0.72071,0.4615c-0.73901,0.45968 -1.49152,0.89805 -2.25943,1.30754c-0.30342,0.1599 -0.6185,0.30834 -0.92588,0.4615c-0.56071,0.28041 -1.12923,0.5453 -1.70632,0.80163c-0.42393,0.1859 -0.85075,0.37095 -1.28539,0.54337c-0.44994,0.1812 -0.9124,0.34398 -1.37196,0.51361c-0.84497,0.30246 -1.70247,0.5848 -2.57933,0.84498c-0.28608,0.08477 -0.57227,0.16953 -0.86327,0.24851c-0.62525,0.17156 -1.25542,0.33916 -1.89704,0.48761l0.00193,0.00192c-3.22106,0.75057 -6.63851,1.24001 -10.29698,1.4654c-3.95804,0.24284 -7.54609,0.20335 -10.89707,-0.02986v0c-2.65157,-0.1859 -5.1335,-0.50388 -7.48347,-0.93359c-0.11366,-0.02023 -0.2284,-0.04142 -0.34302,-0.06164c-0.72649,-0.13785 -1.44143,-0.28426 -2.14277,-0.44223c-0.24477,-0.05694 -0.47894,-0.11859 -0.72264,-0.17734c-0.93177,-0.22154 -1.83742,-0.46439 -2.73056,-0.72264c-0.56456,-0.16375 -1.12538,-0.33146 -1.67357,-0.50966c-0.32568,-0.10306 -0.65232,-0.21106 -0.97126,-0.3199c-0.87098,-0.30063 -1.73425,-0.60598 -2.57152,-0.93552l-0.14556,0.13967c0.31605,2.26328 1.09648,3.48113 1.71991,4.0611c1.27083,1.18413 3.71712,1.46551 3.71712,1.46551c0,0 -7.4777,1.0464 -11.5494,-4.72691c-0.4326,-0.61369 -0.86905,-1.24964 -1.28335,-1.92701l-0.17831,-0.38733c-0.88447,-0.29572 -1.78048,-0.68882 -2.66505,-1.19473c-5.39358,-3.10729 -6.07095,-5.67014 -6.07095,-5.67014l0.1127,0.93937c0.5194,2.44833 1.02616,3.99368 1.02616,3.99368c0,0 -6.45539,-4.08518 -9.33053,-10.20719c-2.31808,-4.94182 -2.50216,-7.93534 -2.51757,-8.43837l-0.21684,-1.79782c-0.13967,-7.04029 0.29774,-14.93709 1.26515,-22.7058l0.05972,-0.2071c0.86231,-6.00545 0.026,-15.95459 7.9941,-26.1348c14.93132,-19.07152 30.18532,-18.40859 39.30865,-32.5035c6.71075,-10.36922 4.9871,-22.26164 4.9871,-22.26164c0,0 4.11515,5.82628 5.75693,9.24769c1.58977,3.33461 3.28742,7.63278 3.28742,7.63278l0.0549,-0.0366c0.03757,-0.12533 0.07128,-0.25344 0.10018,-0.38155c0.44812,-1.9954 0.27077,-4.94568 0.27077,-4.94568c0,0 3.92336,11.49835 10.25738,19.03673c6.33017,7.53464 15.47951,9.688 27.03083,35.49135c1.43757,3.2065 2.7739,5.90527 3.48884,8.89697l0.32376,1.72173c1.0069,5.3802 0.6109,20.24398 -1.505,26.66576v0v0v0v0zM218.12531,172.72267c0,0 -7.48252,7.77244 -6.98923,18.58775c0.43645,9.56941 2.91656,12.52537 4.25289,13.26535c1.374,0.75636 3.50425,0.30834 3.50425,0.30834c0,0 -6.02568,3.19109 -10.93764,-1.13886c-3.28548,-2.89431 -6.86102,-6.62791 -7.86214,-17.15885M280.39128,189.95761c0,0 0.92973,2.6612 -1.33643,8.22346c-2.54936,6.26659 -7.9286,8.20516 -7.9286,8.20516c0,0 4.46962,-9.65429 0.71879,-18.73139c-1.63696,-3.96574 -6.68956,-6.91977 -11.9637,-9.00571c-7.1472,-2.82891 -14.70014,-4.06217 -14.70014,-4.06217M283.83088,208.78917c-0.40274,1.27949 -1.07999,2.94921 -2.22271,5.01695c-2.43291,4.42243 -9.58012,8.12992 -9.58012,8.12992c0,0 1.29116,-4.43591 0.85086,-10.54357M201.61772,194.34632c-0.7342,1.36244 -1.29876,2.82303 -1.61481,4.3656c-1.9848,9.61768 1.50789,20.21134 1.50789,20.21134c0,0 -6.45346,-4.08337 -9.33053,-10.20729c-2.55032,-5.4351 -2.51757,-8.5135 -2.51757,-8.5135M291.5466,199.65717c-3.17664,8.37083 -7.68875,13.18829 -7.68875,13.18829c0,0 0.93176,-8.49027 -2.82689,-17.56833c-0.16953,-0.41045 -0.36131,-0.80934 -0.56456,-1.19666M245.18215,174.58695c0,0 1.2796,0.33917 4.65563,3.02638c3.37614,2.68721 4.61807,5.61908 4.61807,5.61908c0,0 -9.96831,-2.62545 -15.48721,-4.61025c-5.51313,-1.98673 -24.11726,-7.05281 -24.11726,-7.05281M213.6162,214.5566c2.70252,4.24519 5.51409,6.55471 5.51409,6.55471c0,0 -6.61249,2.0474 -12.6874,-1.44914c-5.39358,-3.10718 -6.07095,-5.67013 -6.07095,-5.67013M272.64858,217.54926c-7.12698,5.48327 -15.77244,8.17047 -26.28807,8.81787c-12.53693,0.77176 -21.70071,-1.05977 -29.53299,-4.13238M216.6049,221.67394c0.23707,2.71515 1.10996,4.12286 1.79504,4.7587c1.27179,1.18413 3.71809,1.46551 3.71809,1.46551c0,0 -7.47962,1.0464 -11.55036,-4.72691c-0.4326,-0.61369 -0.86905,-1.24964 -1.28335,-1.92701M245.90576,174.90878c0,0 27.30739,3.33087 27.30739,18.23511" fill="#be1e2d"/><path d="M278.56541,199.58878c-1.01846,10.71887 -13.34058,21.90214 -31.3733,22.95624c-15.91992,0.93937 -39.4465,-6.21939 -42.86021,-19.4019c-0.33917,-1.32487 -0.51929,-2.60437 -0.56842,-3.83378l0.34591,0.25248c1.20822,1.76892 2.5484,3.04457 3.8462,4.18536c4.91196,4.32803 10.93764,1.13693 10.93764,1.13693c0,0 -2.13025,0.44994 -3.50425,-0.30641c-1.33633,-0.73998 -3.81644,-3.69594 -4.25289,-13.26535c-0.49328,-10.81724 6.98923,-18.58775 6.98923,-18.58775l0.02601,-0.24862c5.59982,1.55123 16.75611,4.6826 20.81539,6.14619c5.5189,1.98576 15.48721,4.61025 15.48721,4.61025c0,0 -1.24193,-2.93187 -4.61807,-5.61908c-1.68994,-1.34403 -2.85289,-2.10039 -3.59287,-2.52143l0.69375,0.10885c0,0 21.05428,3.1121 24.91021,12.45409c3.74987,9.07806 -0.71783,18.73139 -0.71783,18.73139c0,0 4.58051,-1.65238 7.28602,-6.8273l0.15026,0.02986v0v0v0v0z" fill="#e6e7e8"/></g><g stroke="none" stroke-width="0" stroke-linecap="round" stroke-linejoin="miter"><path d="M286.00651,180.0211c0,0 9.70234,-10.86337 10.24196,-11.37795c0.53952,-0.51448 4.54958,-5.43018 16.10668,-7.10963c0,0 -7.42172,33.00267 -24.70975,40.55165c0,-0.00097 1.64467,-9.44419 -1.63889,-22.06407v0zM286.07393,180.28706c-0.24959,-1.04351 -1.00305,-2.88671 -1.00305,-2.88671M286.8168,204.61526c0,0 0.66377,-1.58206 0.8286,-2.53106" fill="#be1e2d"/><path d="M294.53531,196.89772c0,0 -1.73136,-1.33065 -1.93086,-5.70781c-0.12811,-2.71515 1.0647,-7.66649 1.0647,-7.66649l-0.09633,0.15797c0.75635,-0.87483 1.55412,-1.89704 2.27677,-3.01856c1.2246,-1.89714 2.65725,-4.74233 3.97056,-7.54705l0.20324,-0.38636c0,0 3.47246,-5.07861 10.66975,-5.7213l0.08284,0.04528c-1.51646,5.01695 -3.98983,12.37521 -6.72905,17.40169c-3.0725,5.63845 -6.6278,9.73328 -9.63877,12.54571l0.12714,-0.10307v0v0v0v0zM290.67177,186.50934c0,0 2.52529,-2.46759 2.99738,-2.98592" fill="#929497"/></g><g stroke="none" stroke-width="0" stroke-linecap="round" stroke-linejoin="miter"><path d="M192.35375,202.0842c-17.28707,-7.54898 -24.7089,-40.55165 -24.7089,-40.55165c11.55722,1.68042 15.56726,6.59613 16.10679,7.10964c0.53952,0.51362 10.24197,11.37794 10.24197,11.37794c-3.28453,12.62084 -1.63986,22.06407 -1.63986,22.06407v0zM194.92816,177.40035c0,0 -0.75346,1.84321 -1.00294,2.88671M192.35375,202.0842c0.16472,0.949 0.8286,2.53106 0.8286,2.53106" fill="#be1e2d"/><path d="M185.59099,197.00079c-3.01096,-2.8134 -6.5653,-6.90822 -9.63887,-12.54571c-2.74019,-5.02648 -5.2125,-12.38474 -6.72906,-17.40169l0.08295,-0.04528c7.19825,0.64365 10.66975,5.7213 10.66975,5.7213l0.20324,0.38636c1.31321,2.80472 2.74597,5.64991 3.97057,7.54705c0.72264,1.12152 1.52041,2.14373 2.27676,3.01856l-0.09632,-0.15797c0,0 1.1928,4.95135 1.06459,7.66649c-0.19939,4.37715 -1.93086,5.70781 -1.93086,5.70781l0.12725,0.10307v0v0v0v0zM186.33,183.52342c0.47209,0.51833 2.99737,2.98592 2.99737,2.98592" fill="#929497"/></g><path d="M231.82144,194.57761v0v0v0v0v0c0.76791,0.2148 1.214,1.01065 0.99716,1.77856c-0.2148,0.76984 -1.0068,1.21592 -1.78049,1.00498c-0.04431,-0.01349 -4.52752,-1.2323 -8.91046,0.04527c-0.13485,0.03853 -0.26885,0.05876 -0.40274,0.05876c-0.62621,0 -1.20436,-0.41237 -1.38834,-1.04244c-0.10896,-0.36807 -0.05501,-0.74672 0.11077,-1.0647c-0.27077,-0.23707 -0.527,-0.54337 -0.70434,-0.96549c-0.20806,-0.48943 0.0212,-1.05591 0.51255,-1.26312c0.48665,-0.20131 1.05506,0.0183 1.26419,0.51169c0.16567,0.3931 0.64548,0.50581 0.65126,0.50774c0.14171,0.03179 0.26596,0.09728 0.37288,0.18205c0.14266,-0.02986 0.28619,-0.06068 0.42682,-0.08476c-0.14834,-0.22347 -0.28608,-0.47402 -0.36903,-0.78236c-0.13678,-0.51544 0.16963,-1.04062 0.68507,-1.17836c0.51929,-0.14256 1.04254,0.17156 1.17836,0.68507c0.10885,0.41045 0.55686,0.59635 0.56071,0.59828c0.20913,0.07138 0.36324,0.21588 0.47605,0.38733c3.45117,-0.16086 6.16535,0.57816 6.31957,0.6215z" fill="#231f20" stroke="none" stroke-width="0" stroke-linecap="butt" stroke-linejoin="miter"/><path d="M266.30011,193.39058v0v0v0v0v0c-0.16964,0.85942 -0.68508,1.37293 -1.10612,1.68223c0.10692,0.27077 0.16193,0.56852 0.08669,0.87291c-0.19169,0.77369 -0.95767,1.25167 -1.74966,1.05795c-3.00133,-0.73998 -6.88713,-1.00872 -7.66852,-0.21287c-0.28223,0.28608 -0.65222,0.43067 -1.02703,0.43067c-0.36902,0 -0.7342,-0.13977 -1.01654,-0.41815c-0.56841,-0.55889 -0.57612,-1.47322 -0.01541,-2.04367c1.50982,-1.53379 4.69609,-1.4943 7.24556,-1.15909c0.12426,-0.10692 0.32172,-0.32557 0.34099,-0.62813c0.02708,-0.52892 0.44234,-0.97223 1.01075,-0.9124c0.53085,0.02697 0.9384,0.47788 0.9124,1.01065c-0.01927,0.33532 -0.1021,0.61861 -0.20517,0.87676c0.12619,0.026 0.24659,0.04912 0.3594,0.07524c0.10017,-0.15422 0.2254,-0.29004 0.4066,-0.36902c0.02697,-0.01541 0.45378,-0.22743 0.53662,-0.6398c0.10595,-0.52122 0.60416,-0.86905 1.13308,-0.75635c0.52121,0.10595 0.85942,0.60994 0.75636,1.13308z" fill="#231f20" stroke="none" stroke-width="0" stroke-linecap="butt" stroke-linejoin="miter"/><path d="M255.07243,203.98616c0,0 -2.78353,7.07207 -11.51472,7.0345c-8.73311,-0.03189 -12.19006,-5.33686 -12.19006,-5.33686" fill="none" stroke="#231f20" stroke-width="1.5" stroke-linecap="round" stroke-linejoin="miter"/><path d="M163.90377,180.00001c0,-56.80544 34.06945,-102.85536 76.09624,-102.85536c42.02679,0 76.09624,46.04992 76.09624,102.85536c0,56.80544 -34.06945,102.85536 -76.09624,102.85536c-42.02679,0 -76.09624,-46.04992 -76.09624,-102.85536z" fill="none" stroke="none" stroke-width="0" stroke-linecap="butt" stroke-linejoin="miter"/><path d="M143.15317,273.6937v-210.21021h190.69069v210.21021z" fill="none" stroke="none" stroke-width="0" stroke-linecap="butt" stroke-linejoin="miter"/></g></g></svg>