<svg version="1.1" xmlns="http://www.w3.org/2000/svg" xmlns:xlink="http://www.w3.org/1999/xlink" width="190.69069" height="219.37188" viewBox="0,0,190.69069,219.37188"><g transform="translate(-144.65466,-70.31406)"><g data-paper-data="{&quot;isPaintingLayer&quot;:true}" fill-rule="nonzero" stroke="none" stroke-width="0" stroke-miterlimit="10" stroke-dasharray="" stroke-dashoffset="0" style="mix-blend-mode: normal"><path d="M259.57279,234.47666c0.63741,1.48336 1.93791,4.14061 2.4501,6.05804c0.0945,0.33882 0.16397,0.65643 0.22764,0.97403l0.00517,-0.0132c0,0 2.01762,0.99092 1.49065,1.92397c-0.31032,0.57227 -0.89937,0.78524 -1.3158,0.87456c-0.15299,1.17748 -0.66012,2.03589 -1.64217,2.4464c-2.29215,0.96019 -4.17947,-0.98279 -4.95816,-2.72895c-0.78745,-1.73656 -5.79893,-12.763 -1.22066,-14.29979c4.57321,-1.53172 4.96323,4.76494 4.96323,4.76494z" fill="#bf631f" stroke-linecap="round" stroke-linejoin="round"/><path d="M250.22155,248.94181l-1.57997,8.69777c0,0 3.70444,0.05924 3.4805,2.30007c-0.21877,2.24379 -5.84508,1.45201 -8.48397,0.1984c-2.64195,-1.25224 0.74279,-13.9179 0.74279,-13.9179" fill="#bf631f" stroke-linecap="round" stroke-linejoin="round"/><g><path d="M249.91715,227.91803c0,0 6.97642,0.35055 8.06468,6.39539c0.33882,2.15668 1.29089,10.42853 -2.39012,12.94377c-3.61745,2.47206 -7.11262,2.72092 -10.40286,0.86432c-3.32688,-1.87498 -4.01551,-7.22022 -3.58525,-10.1256c0.2401,-1.61946 0.74575,-3.4351 1.21993,-4.69093c0,-0.00222 2.05796,-4.92955 7.09362,-5.38695z" fill="#bf631f" stroke-linecap="butt" stroke-linejoin="miter"/><g><path d="M256.53279,246.36584c-2.46984,-2.29721 -3.95109,-8.13648 1.57924,-8.78773" fill="none" stroke-linecap="round" stroke-linejoin="round"/><path d="M258.11202,237.88917v0v0v0v0v0v0v0c0.13979,6.54247 -1.69411,8.08074 -1.69411,8.08074c0,0 -2.37841,-2.34842 -1.90497,-5.08181c0.49762,-2.86505 3.59907,-2.99893 3.59907,-2.99893z" fill="#e6e7e8" stroke-linecap="butt" stroke-linejoin="miter"/></g></g><path d="M254.51886,245.47155c1.20166,0.31106 4.78247,1.29753 5.23617,2.31252c0.5408,1.21042 0.83571,4.96841 0.83423,4.96841c0,0 3.48134,-1.25583 4.0704,0.92355c0.58769,2.17642 -4.95436,3.42634 -7.86851,3.18708c-1.47977,-0.12005 -1.41389,-5.80781 -1.41389,-5.80781c0,0 -4.71511,-2.00738 -6.15898,-2.35275" fill="#bf631f" stroke-linecap="round" stroke-linejoin="round"/><path d="M250.24499,239.232c-1.06334,1.23756 -2.91193,3.59475 -4.43193,4.91055c-0.26492,0.22827 -0.535,0.43247 -0.78967,0.63446l0.01541,-0.00654c0,0 -0.00876,2.27599 -1.09481,2.2138c-0.65569,-0.0359 -1.108,-0.47576 -1.37587,-0.81754c-1.13937,0.38422 -2.14422,0.30082 -2.94846,-0.41273c-1.88955,-1.65684 -0.94773,-4.2328 0.28835,-5.717c1.23313,-1.47967 9.05191,-10.9195 12.47317,-7.42875c3.41757,3.49011 -2.1362,6.62377 -2.1362,6.62377v0v0v0v0z" fill="#bf631f" stroke-linecap="butt" stroke-linejoin="miter"/><g><g><path d="M287.25326,164.41774c0.92651,-1.14898 3.5391,-4.45685 5.08107,-6.98667c2.59285,-4.25708 6.00167,-9.67623 6.00167,-9.67623c0,0 1.55653,7.83272 0.42593,14.48869c-0.99461,5.86039 -4.70561,11.31755 -5.56845,12.5361l-4.30164,-5.3804l-1.63858,-4.9815v0v0v0v0z" fill="#bf631f" stroke-linecap="butt" stroke-linejoin="miter"/><path d="M293.6779,165.33907c1.95396,0.26206 3.7433,-0.62274 4.60393,-1.49435v0c-1.21845,5.4579 -4.19109,9.93375 -5.01592,11.07977l-0.02122,0.08342c-0.50343,-1.14961 -0.73181,-1.87339 -1.27483,-2.9133v0c1.22436,-1.73519 1.59613,-4.64933 1.70805,-6.75554v0v0v0v0v0zM293.6779,165.33907c0.104,-1.34504 -0.259,-3.28517 -0.259,-3.28517" fill="#939598" stroke-linecap="round" stroke-linejoin="round"/></g><g><path d="M220.15168,212.67272c0,0 11.54815,17.61274 34.40814,18.31161c22.85915,0.6975 29.4127,-9.28388 30.67655,-13.76332c1.47681,-5.22741 -1.43437,-9.84528 -1.82451,-10.43581l-0.08193,-0.0322c-2.6279,1.71248 -5.70307,0.72083 -5.70307,0.72083c0,0 1.63266,0.00803 2.47724,-0.86791c0.81892,-0.83866 1.70362,-5.86197 0.44863,-12.71327c-1.67077,-9.12286 -5.11696,-11.08199 -5.11696,-11.08199l-0.32341,-0.28107c-6.13121,1.89694 -13.71728,4.23586 -18.06506,5.55018c-8.1577,2.46552 -12.13953,5.12129 -12.13953,5.12129c0,0 0.57079,-3.79304 3.22446,-6.06903c1.38379,-1.19068 3.18191,-2.32202 4.58704,-3.13872l-0.25541,-0.05268c0,0 -13.18451,1.67067 -20.183,10.76798c-4.93167,6.41081 -3.03261,15.62879 -3.03261,15.62879c0,0 -3.49518,-4.27239 -4.60023,-8.76651l-0.01827,-0.01531c0,0 -3.70962,3.23322 -4.61121,10.07429c-0.03295,0.24665 -0.05861,0.51884 -0.07613,0.81016l0.20927,0.23271v0v0v0v0zM283.49096,224.12501c0.04973,-0.3044 0.09513,-0.60595 0.13536,-0.90529c-0.03949,0.29934 -0.08489,0.60089 -0.13536,0.90529zM283.73243,222.26025c-0.02333,0.27885 -0.05343,0.56203 -0.09144,0.85112c0.03727,-0.29047 0.06811,-0.57375 0.09144,-0.85112zM283.75587,221.95438c0.01468,-0.18804 0.0227,-0.37103 0.02787,-0.54736c-0.00518,0.17706 -0.01468,0.35857 -0.02787,0.54736zM283.79029,221.13545c0.00148,-0.25024 -0.00444,-0.48886 -0.02418,-0.70837l0.00369,-0.00369c0.01752,0.22025 0.02123,0.46109 0.02049,0.71206zM224.63039,201.5599c0,0 -3.70878,3.23174 -4.61048,10.07354c-0.51008,3.87729 0.84384,13.19992 0.84384,13.19992c0,0 -9.64762,-11.29274 -9.33002,-23.38169c0.32129,-12.08832 4.41725,-20.85483 4.41725,-20.85483M209.19555,219.47862l-3.11613,7.42505c0,0 -14.22948,-13.67917 -11.16688,-38.63946M216.65281,219.43767l0.77648,5.90801c0,0 -7.18285,-3.76812 -10.70357,-9.1632c-6.63401,-10.15548 -5.46825,-20.38191 -5.46825,-20.38191M287.59208,188.97776c1.38243,8.94505 -0.4632,12.67368 -2.26722,15.65952c-2.69453,4.45389 -7.69873,2.83728 -7.69873,2.83728c0,0 1.63192,0.00876 2.47871,-0.86432c0.8204,-0.84088 1.70224,-5.86039 0.44863,-12.71613c-1.67374,-9.12296 -5.33289,-11.20785 -5.33289,-11.20785v0c-4.73338,1.46362 -10.566,3.08678 -18.17551,5.3935c-8.1576,2.46403 -12.13952,5.11982 -12.13952,5.11982c0,0 0.56794,-3.79304 3.22446,-6.06903c1.32604,-1.13863 3.03409,-2.22763 4.40775,-3.03409l-0.07612,-0.15954c0,0 -13.1845,1.67077 -20.18289,10.76945c-4.93177,6.41376 -3.03271,15.62742 -3.03271,15.62742c0,0 -3.4879,-4.26363 -4.60024,-8.75268l-0.01826,-0.02776c0,0 -3.70963,3.23617 -4.61122,10.0765c-0.26934,2.05204 -0.01689,5.62916 0.28023,8.54331c0.00074,0.00074 0,0 0.00074,0.00148c0,0.00074 0,0.00137 0,0.00211l-0.00074,-0.00137c0.26417,2.59063 0.56424,4.65651 0.56424,4.65651c0,0 -1.98542,-2.3272 -4.12964,-5.99649l-0.08415,0.59497l0.77647,5.90874c0,0 -4.45093,-2.33892 -8.06616,-5.96439l-0.16397,0.1002l-3.11602,7.42516c0,0 -16.81663,-16.16749 -9.95434,-45.41115c3.57796,-15.23866 28.77096,-33.58701 32.65912,-45.25003c3.88595,-11.66376 -3.73158,-20.68568 -3.73158,-20.68568c0,0 0.77573,0.15806 2.79853,1.55727c2.0191,1.39995 4.81826,5.28601 4.81826,5.28601c0,0 -0.02197,-5.00789 0.46615,-8.86386c0.6616,-5.18792 1.86622,-9.01823 1.86622,-9.01823c0,0 11.51077,22.0812 23.79368,35.61044c12.28513,13.52998 28.43288,15.29874 36.7024,40.90162c8.98465,27.81436 -6.25042,42.31107 -6.25042,42.31107c0,0 0.27726,-1.88152 0.48442,-4.71732l-0.17854,0.13241c0,0 -2.04106,4.25264 -3.51059,6.18538c-1.77098,2.33596 -3.71617,4.4634 -3.71617,4.4634c0,0 0.73033,-2.61408 1.1607,-5.24061l-0.0491,0.0264c-3.26532,4.75101 -11.19106,10.60411 -28.88214,10.06404c-22.14783,-0.67616 -33.56653,-13.28987 -34.25589,-14.07374c-0.26121,-2.56276 -0.48664,-5.63211 -0.35635,-7.73167l0.2078,0.22764c0,0 11.54741,17.612 34.40888,18.31234c18.26631,0.55622 26.11729,-5.70307 29.17926,-10.52872l-0.00369,0.00296c0.01172,-0.01615 0.01827,-0.03295 0.02861,-0.04836c0,-0.00285 0,-0.00581 0,-0.00876l0.01383,-0.01458c0.74279,-1.18562 1.19871,-2.28623 1.45264,-3.1666c1.44029,-5.10303 -1.29532,-9.62861 -1.78924,-10.3846l-0.07982,-0.10316c-2.63529,1.74532 -5.73749,0.74353 -5.73749,0.74353c0,0 1.63351,0.00876 2.47872,-0.86949M252.53851,184.09795c1.12047,-0.90011 2.42454,-1.32604 2.42454,-1.32604M224.62901,201.55632c0,0 -0.30598,-3.56623 -0.0454,-4.51249M289.55344,218.75262c0,0 -2.04107,4.25264 -3.5106,6.18538c-1.77098,2.33596 -3.71617,4.4634 -3.71617,4.4634c0,0 1.77097,-6.32655 1.42413,-9.17925M287.91708,197.42805c0,0 3.76157,11.70114 1.63562,21.32458" fill="#bf631f" stroke-linecap="round" stroke-linejoin="round"/><path d="M220.15168,212.67272v0v0v0v0v0v0v0l-0.20927,-0.23271c0.01753,-0.29131 0.04318,-0.56351 0.07613,-0.81016c0.90159,-6.84107 4.61121,-10.07429 4.61121,-10.07429l0.01827,0.01531c1.10505,4.49412 4.60023,8.76651 4.60023,8.76651c0,0 -1.89906,-9.21799 3.03261,-15.62879c6.99849,-9.09731 20.183,-10.76798 20.183,-10.76798l0.25541,0.05268c-1.40512,0.8167 -3.20324,1.94805 -4.58704,3.13872c-2.65367,2.27599 -3.22446,6.06903 -3.22446,6.06903c0,0 3.98183,-2.65578 12.13953,-5.12129c4.34778,-1.31432 11.93385,-3.65324 18.06506,-5.55018l0.32341,0.28107c0,0 3.44619,1.95913 5.11696,11.08199c1.25498,6.8513 0.37028,11.87461 -0.44863,12.71327c-0.84458,0.87593 -2.47724,0.86791 -2.47724,0.86791c0,0 3.07517,0.99166 5.70307,-0.72083l0.08193,0.0322c0.39013,0.59053 3.30132,5.2084 1.82451,10.43581c-1.26385,4.47944 -7.81741,14.46082 -30.67655,13.76332c-22.85999,-0.69887 -34.40814,-18.31161 -34.40814,-18.31161z" fill="#e6e7e8" stroke-linecap="butt" stroke-linejoin="miter"/></g><g><path d="M211.86822,206.05265v0v0v0v0v0v0v0l-0.45084,-0.11498c0,0 -10.35166,-5.74847 -17.525,-19.97721c-4.6507,-9.22316 -8.14957,-25.27725 -8.14957,-25.27725c0,0 10.2068,1.74912 15.4152,6.32443c4.24821,3.74035 11.13099,12.4074 13.50939,15.46123l0.37177,0.40249c-1.22511,3.35686 -3.28148,10.16583 -3.50395,18.58032c-0.03812,1.55506 0.08489,3.09406 0.33301,4.60097z" fill="#bf631f" stroke-linecap="butt" stroke-linejoin="miter"/><path d="M203.93668,199.94266v0v0v0v0v0v0v0l0.13251,0.12216c-3.23544,-3.20905 -7.01971,-7.83272 -10.17903,-14.10436c-2.82408,-5.59558 -5.21716,-13.70049 -6.66611,-19.21108l0.09883,-0.04393c8.05582,1.07865 11.69227,6.76272 11.69227,6.76272l0.20494,0.43469c1.33259,3.11169 2.79853,6.26151 4.07399,8.38968c0.75451,1.25065 1.59687,2.40258 2.40554,3.38906l-0.09809,-0.17422c0,0 1.08236,5.42718 0.80213,8.35959c-0.45158,4.73348 -2.467,6.07568 -2.467,6.07568zM205.70037,185.68161c0.09809,0.17411 3.60351,2.92872 3.60351,2.92872" fill="#939598" stroke-linecap="round" stroke-linejoin="round"/></g><path d="M272.06064,216.00318v0v0v0v0v0v0v0c-0.59276,3.72937 -4.32286,6.55863 -12.67231,7.00652c-8.34787,0.45222 -11.62712,-6.11073 -11.62712,-6.11073c0,0 6.70571,-0.74944 13.11788,-0.89578c6.40933,-0.14782 11.18156,0 11.18156,0z" fill="#939598" stroke-linecap="butt" stroke-linejoin="miter"/><path d="M247.55627,201.62431v0v0v0v0v0v0v0c0.61989,0.17496 0.98068,0.81818 0.80572,1.43807c-0.17422,0.62063 -0.81448,0.98067 -1.43944,0.81163c-0.03442,-0.01098 -3.6562,-0.99535 -7.19604,0.03579c-0.10907,0.03146 -0.2174,0.04762 -0.32573,0.04762c-0.50564,0 -0.97254,-0.33375 -1.1211,-0.84087c-0.08711,-0.29711 -0.04393,-0.603 0.08996,-0.86063c-0.21803,-0.19027 -0.42519,-0.43765 -0.56858,-0.77869c-0.1683,-0.39584 0.01678,-0.85323 0.41347,-1.0209c0.39372,-0.16387 0.85335,0.0132 1.02165,0.41136c0.13315,0.31834 0.52106,0.40904 0.52613,0.41052c0.11425,0.02566 0.21444,0.07761 0.30081,0.14634c0.11561,-0.02344 0.23123,-0.04973 0.34473,-0.06874c-0.11931,-0.18002 -0.23134,-0.38274 -0.29785,-0.63161c-0.11055,-0.41854 0.13757,-0.84162 0.55327,-0.95354c0.41928,-0.1134 0.84225,0.14128 0.95206,0.55474c0.08784,0.33143 0.45011,0.48073 0.45296,0.4822c0.16841,0.05786 0.29279,0.1757 0.38422,0.31327c2.78755,-0.12882 4.97939,0.46763 5.10377,0.50343z" fill="#231f20" stroke-linecap="butt" stroke-linejoin="miter"/><path d="M278.51674,200.53025v0v0v0v0v0v0v0c-0.1361,0.69306 -0.55253,1.10875 -0.89209,1.35613c0.08637,0.22025 0.13176,0.46025 0.07031,0.70615c-0.15447,0.6257 -0.77362,1.01066 -1.41314,0.85482c-2.42455,-0.59793 -5.56264,-0.81448 -6.19425,-0.172c-0.22902,0.23271 -0.52613,0.34685 -0.82916,0.34685c-0.29849,0 -0.5935,-0.11118 -0.82177,-0.33734c-0.45887,-0.45148 -0.46616,-1.18994 -0.01319,-1.65093c1.22067,-1.23756 3.79452,-1.2061 5.85311,-0.93601c0.1003,-0.08563 0.25984,-0.26206 0.27589,-0.50501c0.02123,-0.42952 0.35645,-0.78598 0.81596,-0.73836c0.42741,0.02196 0.75673,0.38634 0.73625,0.8167c-0.01605,0.26998 -0.08341,0.49836 -0.16609,0.70837c0.10094,0.01975 0.19829,0.04023 0.28983,0.06145c0.08045,-0.12586 0.1814,-0.23493 0.32784,-0.2986c0.0227,-0.01236 0.36807,-0.18287 0.43395,-0.51589c0.08563,-0.42076 0.48886,-0.70256 0.91627,-0.61113c0.42001,0.08489 0.69221,0.49256 0.61028,0.91479z" fill="#231f20" stroke-linecap="butt" stroke-linejoin="miter"/></g><path d="M165.40527,186.83059c0,-56.80544 34.06945,-102.85536 76.09624,-102.85536c42.02679,0 76.09624,46.04992 76.09624,102.85536c0,56.80544 -34.06945,102.85536 -76.09624,102.85536c-42.02679,0 -76.09624,-46.04992 -76.09624,-102.85536z" fill="none" stroke-linecap="butt" stroke-linejoin="miter"/><path d="M144.65467,280.52428v-210.21021h190.69069v210.21021z" fill="none" stroke-linecap="butt" stroke-linejoin="miter"/></g></g></svg>