<svg version="1.1" xmlns="http://www.w3.org/2000/svg" xmlns:xlink="http://www.w3.org/1999/xlink" width="86.24452" height="298.81778" viewBox="0,0,86.24452,298.81778"><defs><linearGradient x1="79.68052" y1="446.46163" x2="79.68052" y2="289.55636" gradientUnits="userSpaceOnUse" id="color-1"><stop offset="0" stop-color="#7e7463"/><stop offset="1" stop-color="#847c6b"/></linearGradient><linearGradient x1="79.68051" y1="160.24859" x2="79.68051" y2="302.2227" gradientUnits="userSpaceOnUse" id="color-2"><stop offset="0" stop-color="#7e7463"/><stop offset="1" stop-color="#847c6b"/></linearGradient><linearGradient x1="90.13121" y1="173.75138" x2="90.13121" y2="304.23652" gradientUnits="userSpaceOnUse" id="color-3"><stop offset="0" stop-color="#736c5d"/><stop offset="1" stop-color="#736c5d" stop-opacity="0"/></linearGradient><linearGradient x1="79.68053" y1="160.24859" x2="79.68053" y2="302.2227" gradientUnits="userSpaceOnUse" id="color-4"><stop offset="0" stop-color="#7e7463"/><stop offset="1" stop-color="#847c6b"/></linearGradient><linearGradient x1="90.13124" y1="173.75138" x2="90.13124" y2="304.23652" gradientUnits="userSpaceOnUse" id="color-5"><stop offset="0" stop-color="#736c5d"/><stop offset="1" stop-color="#736c5d" stop-opacity="0"/></linearGradient><linearGradient x1="256.29434" y1="174.95041" x2="256.29434" y2="208.01748" gradientUnits="userSpaceOnUse" id="color-6"><stop offset="0" stop-color="#454037"/><stop offset="1" stop-color="#454037" stop-opacity="0"/></linearGradient><linearGradient x1="211.98284" y1="158.67709" x2="211.98284" y2="180.67709" gradientUnits="userSpaceOnUse" id="color-7"><stop offset="0" stop-color="#95bd86"/><stop offset="1" stop-color="#80a374"/></linearGradient><linearGradient x1="-22.26583" y1="158.67709" x2="-22.26583" y2="180.67709" gradientUnits="userSpaceOnUse" id="color-8"><stop offset="0" stop-color="#95bd86"/><stop offset="1" stop-color="#80a374"/></linearGradient></defs><g transform="translate(-27.12854,-147.64382)"><g data-paper-data="{&quot;isPaintingLayer&quot;:true}" fill-rule="nonzero" stroke-linecap="butt" stroke-linejoin="miter" stroke-miterlimit="10" stroke-dasharray="" stroke-dashoffset="0" style="mix-blend-mode: normal"><path d="M77.83137,283.59382v149.34706h-40.13837v-149.34706z" fill="#454545" stroke="#454545" stroke-width="10.5"/><path d="M108.91098,289.55637c0,0 -0.66477,124.35131 -0.66477,133.96551c0,2.00343 0.00928,6.23507 0.01359,10.57839c0.00508,5.12248 0.00325,10.4003 -0.02888,12.36133h-75.87594v-156.90524z" fill="url(#color-1)" stroke="none" stroke-width="0"/><path d="M32.35497,302.2227v-141.97408h75.87594c0.03213,1.77442 0.03396,6.55 0.02888,11.18502c-0.00431,3.93001 -0.01359,7.75896 -0.01359,9.57175c0,8.69931 0.66477,121.21731 0.66477,121.21731z" fill="url(#color-2)" stroke="none" stroke-width="0"/><path d="M71.60396,304.23652v-130.48513h37.0545v130.48513z" fill="url(#color-3)" stroke="none" stroke-width="0"/><path d="M32.35497,302.2227v-141.97408h75.87594c0.03213,1.77442 0.03396,6.55 0.02888,11.18502c-0.00431,3.93001 -0.01359,7.75896 -0.01359,9.57175c0,8.69931 0.66477,121.21731 0.66477,121.21731z" fill="url(#color-4)" stroke="none" stroke-width="0"/><path d="M71.60398,304.23652v-130.48513h37.0545v130.48513z" fill="url(#color-5)" stroke="none" stroke-width="0"/><path d="M32.69042,208.01748c0,0 -0.16828,-21.05637 -0.16828,-25.92258c0,-1.56759 27.12405,-7.26319 27.12405,-7.26319l48.29932,0.01177l0.76801,33.924z" fill="url(#color-6)" stroke="none" stroke-width="0"/><path d="M27.22916,160.43419c0,0 -0.02698,0.32297 -0.04609,-1.1973c-0.14226,-12.98086 7.39156,-11.54604 12.82201,-11.54604c4.20622,0 13.14266,0 25.1974,0c0.10654,1.13196 0.2427,2.26044 0.42416,3.38361c0.50932,3.1525 1.24692,6.26039 2.02918,9.35973z" fill="#94bc85" stroke="none" stroke-width="0"/><path d="M27.16176,184.67709c0,-4.21713 0,-14.07115 0,-14.07115l42.99492,0.08123c0.1994,0.94668 0.38434,1.89622 0.54971,2.84963c1.18495,6.83156 2.28203,13.67525 3.33336,20.52574c-9.63954,0 -17.34196,0 -22.34409,0c-6.10971,0 -9.62673,0 -14.17734,0c-10.0914,0 -10.35657,-5.9413 -10.35657,-9.38544z" fill="#80a374" stroke="none" stroke-width="0"/><path d="M27.12855,180.67709v-22c0,0 4.39801,0 10.23759,0c6.33327,0 22.39003,0 44.39882,0c1.64717,4.94364 3.56864,9.84831 4.75328,14.8597c0.56229,2.3787 1.11007,4.75888 1.64577,7.1403z" fill="url(#color-7)" stroke="none" stroke-width="0"/><path d="M72.84585,160.43419c0.78226,-3.09934 1.51986,-6.20723 2.02918,-9.35973c0.18146,-1.12317 0.31762,-2.25165 0.42416,-3.38361c12.05474,0 20.99118,0 25.1974,0c5.43045,0 12.96427,-1.43482 12.82201,11.54604c-0.01911,1.52027 -0.04609,1.1973 -0.04609,1.1973z" data-paper-data="{&quot;index&quot;:null}" fill="#94bc85" stroke="none" stroke-width="0"/><path d="M113.3399,184.67709c0,3.44414 -0.26517,9.38544 -10.35657,9.38544c-4.55061,0 -8.06763,0 -14.17734,0c-5.00213,0 -12.70455,0 -22.34409,0c1.05133,-6.85049 2.14841,-13.69418 3.33336,-20.52574c0.16537,-0.95341 0.35031,-1.90295 0.54971,-2.84963l42.99492,-0.08123c0,0 0,9.85402 0,14.07115z" data-paper-data="{&quot;index&quot;:null}" fill="#80a374" stroke="none" stroke-width="0"/><path d="M68.58761,180.67709c0.39307,-2.38142 0.79501,-4.7616 1.2076,-7.1403c0.86924,-5.01139 2.27914,-9.91606 3.48777,-14.8597c16.1492,0 27.93103,0 32.57814,0c4.28486,0 7.51195,0 7.51195,0v22z" data-paper-data="{&quot;index&quot;:null}" fill="url(#color-8)" stroke="none" stroke-width="0"/><path d="M43.22915,160.43419c0,0 -0.02698,0.32297 -0.04609,-1.1973c-0.14226,-12.98086 7.39156,-11.54604 12.82201,-11.54604c4.20622,0 13.14266,0 25.1974,0c0.10654,1.13196 0.2427,2.26044 0.42416,3.38361c0.50932,3.1525 1.24692,6.26039 2.02918,9.35973z" fill="#94bc85" stroke="none" stroke-width="0"/></g></g></svg>