<svg version="1.1" xmlns="http://www.w3.org/2000/svg" xmlns:xlink="http://www.w3.org/1999/xlink" width="331.8268" height="322.52393" viewBox="0,0,331.8268,322.52393"><defs><linearGradient x1="273.20417" y1="271.00732" x2="273.20417" y2="410.16017" gradientUnits="userSpaceOnUse" id="color-1"><stop offset="0" stop-color="#4e8bba" stop-opacity="0"/><stop offset="1" stop-color="#4e8bba"/></linearGradient><linearGradient x1="306.28821" y1="271.45239" x2="306.28821" y2="410.60522" gradientUnits="userSpaceOnUse" id="color-2"><stop offset="0" stop-color="#7dabcf" stop-opacity="0"/><stop offset="1" stop-color="#7dabcf"/></linearGradient><linearGradient x1="305.62769" y1="280.39412" x2="273.83464" y2="414.66646" gradientUnits="userSpaceOnUse" id="color-3"><stop offset="0" stop-color="#7dabcf" stop-opacity="0"/><stop offset="1" stop-color="#7dabcf"/></linearGradient><linearGradient x1="273.14676" y1="280.61418" x2="306.31556" y2="414.44642" gradientUnits="userSpaceOnUse" id="color-4"><stop offset="0" stop-color="#7dabcf" stop-opacity="0"/><stop offset="1" stop-color="#7dabcf"/></linearGradient></defs><g transform="translate(-22.67321,-72.90001)"><g data-paper-data="{&quot;isPaintingLayer&quot;:true}" fill-rule="nonzero" stroke-linecap="butt" stroke-linejoin="miter" stroke-miterlimit="10" stroke-dasharray="" stroke-dashoffset="0" style="mix-blend-mode: normal"><path d="" fill="none" stroke="none" stroke-width="0"/><path d="M254.4757,271.00732h37.45695v121.36125c-1.05079,-0.1374 -2.10065,-0.28199 -3.14945,-0.43474c-11.55667,-1.68324 -22.9336,-4.46236 -34.3075,-7.20936z" fill="url(#color-1)" stroke="none" stroke-width="0"/><path d="M287.55974,271.45239h37.45695v123.97155c-2.27855,-0.18849 -4.55699,-0.37702 -6.83551,-0.56159c-9.81567,-0.79513 -19.65297,-1.50914 -29.39797,-2.92851c-0.40804,-0.05943 -0.81586,-0.12023 -1.22347,-0.18234z" fill="url(#color-2)" stroke="none" stroke-width="0"/><path d="M287.55608,274.74501l36.14322,11.29826l-25.35484,107.08162c-3.19427,-0.34017 -6.38268,-0.72809 -9.56126,-1.19105c-9.30164,-1.35479 -18.48684,-3.41952 -27.64775,-5.60603z" fill="url(#color-3)" stroke="none" stroke-width="0"/><path d="M255.13439,286.50775l36.02476,-11.78716l29.83262,120.37115c-0.93686,-0.07695 -1.87372,-0.15351 -2.8106,-0.22941c-9.81567,-0.79513 -19.65297,-1.50914 -29.39797,-2.92851c-2.62287,-0.38202 -5.23648,-0.8205 -7.8429,-1.30223z" fill="url(#color-4)" stroke="none" stroke-width="0"/><path d="M82.09386,150.77119c0,0 1.89086,-12.1131 -3.81583,-24.59793c-2.90655,-6.35882 -7.1948,-10.52084 -6.88106,-17.50541c0.30565,-6.80428 8.01864,-16.81829 8.01864,-16.81829c0,0 -5.35651,9.73284 -5.35651,16.45214c0,9.4207 7.34219,13.50084 10.51246,22.37208c2.22781,6.23399 2.4962,19.33219 2.4962,19.33219z" data-paper-data="{&quot;index&quot;:null}" fill="#68845e" stroke="#000000" stroke-width="0"/><path d="M82.13828,158.27567c0,0 2.32006,-12.89388 5.49834,-18.70114c4.52283,-8.26399 12.41423,-11.14168 13.89226,-20.44571c1.0542,-6.63609 -2.70898,-17.08879 -2.70898,-17.08879c0,0 6.04637,11.10009 5.2807,17.86807c-0.78596,6.94729 -5.6741,10.38498 -9.54229,16.20904c-7.59478,11.43489 -7.62777,23.69464 -7.62777,23.69464z" data-paper-data="{&quot;index&quot;:null,&quot;origRot&quot;:0}" fill="#68845e" stroke="#000000" stroke-width="0"/><path d="M33.38638,159.79841c0,0 1.89086,-12.1131 -3.81583,-24.59793c-2.90655,-6.35882 -7.1948,-10.52084 -6.88106,-17.50541c0.30565,-6.80428 8.01864,-16.81829 8.01864,-16.81829c0,0 -5.35651,9.73284 -5.35651,16.45214c0,9.4207 7.34219,13.50084 10.51246,22.37208c2.22781,6.23399 2.4962,19.33219 2.4962,19.33219z" data-paper-data="{&quot;index&quot;:null}" fill="#68845e" stroke="#000000" stroke-width="0"/><path d="M35.12154,126.77911l-0.76186,-0.88114c-0.43535,-0.48952 -0.77741,-0.95458 -0.77741,-1.00353c0,-0.14686 2.6121,2.10496 2.67429,2.3742c0.0311,0.0979 0.79296,1.05248 1.72585,2.15391l1.67921,1.98258l2.30114,3.23087l1.07283,1.8602c0.35128,0.61897 0.54597,0.9712 0.88475,1.60719c1.01636,1.90799 3.38192,6.96003 4.55713,12.19744c0.52864,2.30077 0.96399,5.55612 0.96399,7.07365v0.97905l-1.58592,-0.07343l-1.57037,-0.07342l0.0311,-1.83573c0.04665,-2.52106 -0.32652,-5.21345 -1.13502,-8.34642c-0.62193,-2.44763 -2.65875,-8.12614 -3.45171,-9.7171l-0.34206,-0.66086c0,0 -2.68984,-5.26231 -2.68984,-5.31135c0.01555,-0.17134 -2.62765,-4.35678 -2.73649,-4.35678c-0.01928,0 -0.8396,-1.19934 -0.8396,-1.19934z" data-paper-data="{&quot;index&quot;:null}" fill="#68845e" stroke="none" stroke-width="1"/><path d="M38.10962,153.38047c0,0 3.57242,-3.61024 11.58075,-13.20181c6.76196,-8.09877 8.8837,-10.02624 8.8837,-10.02624c0,0 -6.15037,11.22443 -10.75766,20.25413c-5.66131,11.09546 -1.89426,7.58878 -1.89426,7.58878z" data-paper-data="{&quot;origRot&quot;:0,&quot;index&quot;:null}" fill="#68845e" stroke="none" stroke-width="0"/><path d="M117.17296,116.90001c0,24.30053 -11.86445,44 -26.5,44c-14.63555,0 -26.5,-19.69947 -26.5,-44c0,-24.30053 11.86445,-44 26.5,-44c14.63555,0 26.5,19.69947 26.5,44z" fill="none" stroke="none" stroke-width="0"/><path d="M354.5,296.9c0,45.56349 -31.11621,82.5 -69.5,82.5c-38.38379,0 -69.5,-36.93651 -69.5,-82.5c0,-45.56349 31.11621,-82.5 69.5,-82.5c38.38379,0 69.5,36.93651 69.5,82.5z" fill="none" stroke="none" stroke-width="0"/><path d="M77.5,196.40002v0z" fill="none" stroke="none" stroke-width="0"/></g></g></svg>