<svg version="1.1" xmlns="http://www.w3.org/2000/svg" xmlns:xlink="http://www.w3.org/1999/xlink" width="684.80707" height="527.44123" viewBox="0,0,684.80707,527.44123"><defs><linearGradient x1="543.28175" y1="374.47915" x2="543.28175" y2="562.34876" gradientUnits="userSpaceOnUse" id="color-1"><stop offset="0" stop-color="#7e7463"/><stop offset="1" stop-color="#847c6b"/></linearGradient><linearGradient x1="542.89466" y1="389.18099" x2="542.89466" y2="422.24804" gradientUnits="userSpaceOnUse" id="color-2"><stop offset="0" stop-color="#454037"/><stop offset="1" stop-color="#454037" stop-opacity="0"/></linearGradient><linearGradient x1="515.69016" y1="372.90766" x2="515.69016" y2="394.90766" gradientUnits="userSpaceOnUse" id="color-3"><stop offset="0" stop-color="#95bd86"/><stop offset="1" stop-color="#80a374"/></linearGradient><linearGradient x1="504.99337" y1="372.90766" x2="504.99337" y2="394.90766" gradientUnits="userSpaceOnUse" id="color-4"><stop offset="0" stop-color="#95bd86"/><stop offset="1" stop-color="#80a374"/></linearGradient><linearGradient x1="421.38861" y1="23.1411" x2="421.38861" y2="632.75078" gradientUnits="userSpaceOnUse" id="color-5"><stop offset="0" stop-color="#b7a175"/><stop offset="1" stop-color="#9f8c66"/></linearGradient><linearGradient x1="500.68226" y1="-4.34949" x2="500.68226" y2="10.37737" gradientUnits="userSpaceOnUse" id="color-6"><stop offset="0" stop-color="#a38f68"/><stop offset="1" stop-color="#b7a175"/></linearGradient><linearGradient x1="378.51043" y1="-4.30493" x2="378.51043" y2="8.57698" gradientUnits="userSpaceOnUse" id="color-7"><stop offset="0" stop-color="#a38f68"/><stop offset="1" stop-color="#b7a175"/></linearGradient><linearGradient x1="107.7689" y1="-4.30493" x2="107.7689" y2="8.57698" gradientUnits="userSpaceOnUse" id="color-8"><stop offset="0" stop-color="#a38f68"/><stop offset="1" stop-color="#b7a175"/></linearGradient><linearGradient x1="217.37845" y1="-4.30493" x2="217.37845" y2="8.57698" gradientUnits="userSpaceOnUse" id="color-9"><stop offset="0" stop-color="#a38f68"/><stop offset="1" stop-color="#b7a175"/></linearGradient></defs><g transform="translate(-4.70576,19.15296)"><g data-paper-data="{&quot;isPaintingLayer&quot;:true}" fill-rule="nonzero" stroke="none" stroke-linecap="butt" stroke-linejoin="miter" stroke-miterlimit="10" stroke-dasharray="" stroke-dashoffset="0" style="mix-blend-mode: normal"><path d="M416.20647,391.47996c0.20643,-2.16142 0.37271,-4.38815 -0.07201,-6.51337c-1.38883,-6.637 -3.59683,-13.07583 -5.39525,-19.61375c-1.89764,-6.72118 -3.62122,-13.49395 -5.69293,-20.16354c-0.20012,-0.64427 -0.93935,-1.04433 -1.09832,-1.69997c-0.13723,-0.56597 0.26034,-1.14417 0.26751,-1.72649c0.08208,-6.66616 0,-13.33334 0,-20c0,-1.59492 0.66578,-3.37169 -0.07492,-4.78418c-0.18106,-0.34527 -1.40765,-0.2125 -1.08636,-0.43334c1.59877,-1.09888 4.24054,-0.81069 5.27971,-2.44889c1.47702,-2.32847 1.43458,-5.30622 1.77879,-8.07596h44.84806c0,0 0,55.45931 0,117.20131c-5.24451,-0.57729 -10.49062,-1.13815 -15.74586,-1.6049c-4.91485,-0.43652 -9.88008,-0.41446 -14.75645,-1.16764c-1.59086,-0.24572 -2.87687,-1.95152 -4.47978,-1.8035c-2.51638,0.23238 -5.01285,0.61002 -7.49827,1.06646c1.24428,-9.37143 2.91327,-19.7216 3.72608,-28.23225z" fill="#ac976e" stroke-width="0"/><path d="M419.91986,374.47917h64.76053c-0.29149,6.91253 -0.5278,13.81683 0.41122,20.64466c0.53624,3.89913 2.11529,7.60346 3.63508,11.23403c1.56912,3.7484 4.69726,6.86623 5.60039,10.82817c1.44733,6.34926 0.48657,13.03263 1.31124,19.49233c0.65651,5.14249 4.07829,9.7451 4.39125,14.91986c0.37379,6.1808 -0.59053,12.37014 -0.8594,18.55638c-0.28948,6.66038 -0.54376,13.32224 -0.81564,19.98336c-0.24356,5.96736 -0.48746,11.93471 -0.7308,17.90208c-0.63366,0.06158 -1.27612,0.19466 -1.8835,0.04281c-1.08574,-0.27143 -1.90841,-1.26831 -3.003,-1.5015c-1.67422,-0.35668 -8.92685,-0.35668 -10.60106,0c-1.09459,0.23319 -1.9023,1.29912 -3.003,1.5015c-3.18598,0.58578 -6.47509,-0.26751 -9.71448,-0.26751c-5.25647,0 -11.28678,0.7201 -16.4162,0.12913c-1.57232,-0.18115 -2.94015,-1.2611 -4.5045,-1.5015c-1.42398,-0.21883 -10.20463,-0.08465 -11.80029,-0.12426c-5.60109,-0.13904 -11.18902,-0.57829 -16.77782,-0.9983z" fill="url(#color-1)" stroke-width="0"/><path d="M455.93285,392.34697h28.83926c0.08682,0.92691 0.19239,1.85258 0.31951,2.77686c0.53624,3.89913 2.11529,7.60346 3.63508,11.23403c1.56912,3.7484 4.69726,6.86623 5.60039,10.82817c1.44733,6.34926 0.48657,13.03263 1.31124,19.49233c0.44211,3.46305 2.13824,6.68127 3.29452,9.99427v29.10823c-0.19674,4.78553 -0.38299,9.57151 -0.57832,14.3571c-0.24356,5.96736 -0.48746,11.93472 -0.7308,17.90209c-0.63366,0.06158 -1.27612,0.19465 -1.8835,0.04281c-1.08574,-0.27143 -1.90841,-1.26831 -3.003,-1.5015c-1.67422,-0.35668 -8.92685,-0.35668 -10.60106,0c-1.09459,0.23319 -1.9023,1.29912 -3.003,1.5015c-3.18598,0.58578 -6.47509,-0.26751 -9.71448,-0.26751c-4.28349,0 -9.08085,0.47819 -13.48582,0.33542z" fill="#7c7464" stroke-width="0"/><path d="M419.59648,422.24804c0,0 -0.09279,-21.05637 -0.09279,-25.92258c0,-1.56759 14.95657,-7.26319 14.95657,-7.26319l50.07968,0.02587c0.10139,2.01734 0.27581,4.02981 0.55168,6.03569c0.53624,3.89913 2.11529,7.60346 3.63508,11.23403c1.56912,3.7484 4.69726,6.86623 5.60039,10.82817c0.38015,1.66766 0.59417,3.35836 0.71805,5.06201z" fill="url(#color-2)" stroke-width="0"/><path d="M413.54402,374.66476c0,0 -0.02698,0.32297 -0.04609,-1.1973c-0.14226,-12.98086 7.39156,-11.54604 12.82201,-11.54604c7.51958,0 30.15681,0 58.70193,0c0.03246,4.24054 -0.17074,8.49361 -0.34929,12.74334z" fill="#94bc85" stroke-width="0"/><path d="M413.47664,398.90766c0,-4.21713 0,-14.07115 0,-14.07115c0,0 34.81478,0.06577 70.94888,0.13403c0.02563,3.39758 0.20283,6.78474 0.6661,10.15329c0.53624,3.89913 2.11529,7.60346 3.63508,11.23403c0.27714,0.66204 0.60291,1.30442 0.95646,1.93524c-23.37471,0 -42.28202,0 -51.67262,0c-6.10971,0 -9.62673,0 -14.17734,0c-10.0914,0 -10.35657,-5.9413 -10.35657,-9.38544z" fill="#80a374" stroke-width="0"/><path d="M413.44342,394.90766v-22c0,0 2.43263,0 5.66263,0c6.77895,0 33.69838,0 65.64107,0c-0.31256,7.3643 -0.65882,14.72513 0.31516,22z" fill="url(#color-3)" stroke-width="0"/><path d="M422.45241,374.66477c0.17528,-4.7066 0.05397,-9.10649 0.05397,-11.11086c0.17334,-0.52622 0.30418,-1.07173 0.38845,-1.63249c18.24556,0 39.95411,0 62.12703,0c0.03246,4.24054 -0.17074,8.49361 -0.34929,12.74334z" data-paper-data="{&quot;index&quot;:null}" fill="#94bc85" stroke-width="0"/><path d="M470.74362,385.13112c3.91797,-0.0074 8.53632,-0.01612 13.68299,-0.02585c0.02927,3.3524 0.20785,6.69454 0.66501,10.01856c0.53624,3.89913 2.11529,7.60346 3.63508,11.23403c0.27713,0.66201 0.60288,1.30436 0.95642,1.93516c-28.94941,-0.04692 -44.79016,-23.11307 -18.9395,-23.1619z" data-paper-data="{&quot;index&quot;:null}" fill="#80a374" stroke-width="0"/><path d="M429.69184,394.90766c-0.00446,-0.2091 -0.01185,-4.19665 -0.01554,-8.72894c-0.00029,-0.35262 -0.00055,-0.70855 -0.00079,-1.06625c-0.00364,-5.46171 -0.00129,-11.33715 0.01825,-12.20481c16.1924,0 35.28859,0 55.05336,0c-0.31256,7.3643 -0.65882,14.72513 0.31516,22z" data-paper-data="{&quot;index&quot;:null}" fill="url(#color-4)" stroke-width="0"/><path d="M388.35556,23.14117h66.06607l235.0912,-0.7993l-89.19924,69.37877c0,0 -23.78559,-0.5221 -35.62575,-0.44912c-11.9942,0.07394 -36.21666,1.55658 -36.21666,1.55658c0,0 -73.13138,2.09625 -74.04955,72.88589c0.13343,37.78565 0,74.62944 0,147.61277c-1.7434,-0.36802 -3.55891,-5.49042 -5.27499,-5.49042c-2.74735,0 -11.45213,7.54171 -14.10001,7.1486c-8.74197,-1.29786 -16.98966,-0.64388 -25.64124,-2.0977c-5.28153,-0.88752 -13.86542,3.60067 -21.04983,3.75841z" fill="url(#color-5)" stroke-width="0"/><path d="M395.89025,462.92083c-6.93557,0.78671 -13.87125,1.57244 -20.807,2.35754c-11.92453,-2.90454 -23.82478,-5.95328 -35.74633,-8.78995c-6.86596,-1.63372 -13.6976,-3.43574 -20.60485,-4.86953c-0.60413,-0.12541 -1.24199,0.37686 -1.83704,0.2111c-1.08094,-0.30109 -1.90163,-1.35294 -3.003,-1.55929c-1.80977,-0.33909 -8.82921,-0.27781 -11.30654,-0.27781c-5.29741,0 -10.98711,-0.67651 -16.23685,0.0778c-0.15393,0.02212 -0.30665,0.05163 -0.45838,0.08711v-389.58573h110z" data-paper-data="{&quot;index&quot;:null}" fill="#75674b" stroke-width="0"/><path d="M575.83323,36.9627c0,2.99228 -2.3306,5.50629 -5.37089,5.50629c-17.10749,0 -170.05546,0 -170.05546,0v-36.57579c0,0 151.72559,0 169.51201,0c3.32232,0 5.91435,-6.42051 5.91435,-2.56424c0,8.00073 0,30.99507 0,33.63374z" data-paper-data="{&quot;index&quot;:null}" fill="#b7a175" stroke-width="0"/><path d="M400.40691,10.37732v-14.72686c0,0 173.45576,0 193.78955,0c3.79814,0 6.7614,3.15277 6.7614,7.56133c0,1.88641 0,6.33715 0,6.33715z" data-paper-data="{&quot;index&quot;:null}" fill="url(#color-6)" stroke-width="0"/><path d="M379.8078,204.33496c0,0 0,-111.01593 0,-140.84031c0,-17.68751 -18.47744,-21.82384 -18.47744,-21.82384h45.82105c0,0 13.47911,3.54345 13.47911,22.91075c0,30.12336 0,139.7534 0,139.7534z" data-paper-data="{&quot;index&quot;:null}" fill="#75674b" stroke-width="0"/><path d="M283.8078,64.37801l-0.47744,-22.70724h137.32105l-0.02089,22.91076z" data-paper-data="{&quot;index&quot;:null}" fill="#5d523b" stroke-width="0"/><path d="M420.63053,440.19201c-8.09557,0.94597 -16.18789,1.88201 -24.27794,2.76571c-5.51486,0.6024 -11.0298,1.20421 -16.54478,1.80558c0,-80.44043 0,-262.62318 0,-321.4254c0,-45.24551 40.82272,-46.76212 40.82272,2.78037c0,58.1692 0,232.23594 0,314.07374z" data-paper-data="{&quot;index&quot;:null}" fill="#75674b" stroke-width="0"/><path d="M290.79724,8.57693v-12.88191c0,0 151.72559,0 169.51201,0c3.32232,0 5.91435,2.75779 5.91435,6.61406c0,1.65008 0,5.54324 0,5.54324z" data-paper-data="{&quot;index&quot;:null}" fill="url(#color-7)" stroke-width="0"/><path d="M360.76135,127.97583c0,2.09999 -2.0799,3.80179 -3.86151,3.80179c-2.60617,0 -10.08275,0 -14.98562,0c-2.62987,0 -4.51923,-2.3989 -4.51923,-4.37817c0,-1.42733 0,-4.40537 0,-6.5322c0,-1.89391 2.08167,-3.80179 4.90348,-3.80179c4.67849,0 11.39153,0 14.025,0c2.26053,0 4.43787,2.34057 4.43787,3.99392c0,1.46004 0,4.46055 0,6.91645z" data-paper-data="{&quot;index&quot;:null}" fill="#645a42" stroke-width="NaN"/><path d="M412.76135,157.97583c0,2.09999 -2.0799,3.80179 -3.86151,3.80179c-2.60617,0 -10.08275,0 -14.98562,0c-2.62987,0 -4.51923,-2.3989 -4.51923,-4.37817c0,-1.42733 0,-4.40537 0,-6.5322c0,-1.89391 2.08167,-3.80179 4.90348,-3.80179c4.67849,0 11.39153,0 14.025,0c2.26053,0 4.43787,2.34057 4.43787,3.99392c0,1.46004 0,4.46055 0,6.91645z" data-paper-data="{&quot;index&quot;:null}" fill="#645a42" stroke-width="NaN"/><path d="M407.76135,176.62668c0,2.09999 -2.0799,3.80179 -3.86151,3.80179c-2.60617,0 -10.08275,0 -14.98562,0c-2.62987,0 -4.51923,-2.3989 -4.51923,-4.37817c0,-1.42733 0,-4.40537 0,-6.5322c0,-1.89391 2.08167,-3.80179 4.90348,-3.80179c4.67849,0 11.39153,0 14.025,0c2.26053,0 4.43787,2.34057 4.43787,3.99392c0,1.46004 0,4.46055 0,6.91645z" data-paper-data="{&quot;index&quot;:null}" fill="#645a42" stroke-width="NaN"/><path d="M339.76137,107.97589c0,2.09999 -2.0799,3.80179 -3.86151,3.80179c-2.60617,0 -10.08275,0 -14.98562,0c-2.62987,0 -4.51923,-2.3989 -4.51923,-4.37817c0,-1.42733 0,-4.40537 0,-6.5322c0,-1.89391 2.08167,-3.80179 4.90348,-3.80179c4.67849,0 11.39153,0 14.025,0c2.26053,0 4.43787,2.34057 4.43787,3.99392c0,1.46004 0,4.46055 0,6.91645z" data-paper-data="{&quot;index&quot;:null}" fill="#645a42" stroke-width="NaN"/><path d="M412.76135,85.97589c0,2.09999 -2.0799,3.80179 -3.86151,3.80179c-2.60617,0 -10.08275,0 -14.98562,0c-2.62987,0 -4.51923,-2.3989 -4.51923,-4.37817c0,-1.42733 0,-4.40537 0,-6.5322c0,-1.89391 2.08167,-3.80179 4.90348,-3.80179c4.67849,0 11.39153,0 14.025,0c2.26053,0 4.43787,2.34057 4.43787,3.99392c0,1.46004 0,4.46055 0,6.91645z" data-paper-data="{&quot;index&quot;:null}" fill="#645a42" stroke-width="NaN"/><path d="M199.99856,54.57204h110v396.3242c-0.15173,-0.03609 -0.30445,-0.06611 -0.45838,-0.08862c-5.24974,-0.76737 -10.93944,-0.07915 -16.23685,-0.07915c-2.47733,0 -9.49677,-0.06234 -11.30654,0.28261c-1.10137,0.20993 -1.92206,1.27997 -3.003,1.58626c-0.59505,0.16862 -1.23291,-0.34233 -1.83704,-0.21476c-6.90725,1.45859 -13.73889,3.29178 -20.60485,4.95376c-11.92155,2.88573 -23.8218,5.9872 -35.74633,8.94199c-6.93575,-0.79868 -13.87143,-1.598 -20.807,-2.39832z" fill="#75674b" stroke-width="0"/><path d="M65.64875,204.33496c0,0 0,-109.63004 0,-139.7534c0,-19.3673 -19.02089,-22.91075 -19.02089,-22.91075h78.32105c0,0 -18.47744,4.13633 -18.47744,21.82384c0,29.82438 0,140.84031 0,140.84031z" fill="#75674b" stroke-width="0"/><path d="M65.64875,64.58154c0,0 -0.03538,-1.64109 -0.10308,-2.41848c-1.50218,-17.24788 -18.91781,-20.49228 -18.91781,-20.49228h78.32105c0,0 -16.88933,4.27756 -18.37355,20.11038c-0.06821,0.72766 -0.10389,2.59686 -0.10389,2.59686z" fill="#5d523b" stroke-width="0"/><path d="M65.64875,162.11819c0,-49.54249 40.82272,-48.02588 40.82272,-2.78037c0,56.06414 0,224.28612 0,309.54941c-2.57656,-0.21028 -5.15373,-0.40948 -7.73154,-0.59626c-11.03039,-2.4512 -22.06079,-4.9024 -33.09118,-7.3536c0,-86.5364 0,-244.0501 0,-298.81919z" fill="#75674b" stroke-width="0"/><path d="M20.05555,36.9627c0,-2.63867 0,-25.63301 0,-33.63374c0,-3.85627 2.59203,2.56424 5.91435,2.56424c17.78642,0 169.51201,0 169.51201,0v36.57579c0,0 -152.94797,0 -170.05546,0c-3.04029,0 -5.37089,-2.51401 -5.37089,-5.50629z" fill="#b7a175" stroke-width="0"/><path d="M20.05555,7.85238c0,0 0,-3.89316 0,-5.54324c0,-3.85627 2.59203,-6.61406 5.91435,-6.61406c17.78642,0 169.51201,0 169.51201,0v12.88191z" fill="url(#color-8)" stroke-width="0"/><path d="M175.25832,204.33496c0,0 0,-109.63004 0,-139.7534c0,-19.3673 -19.02089,-22.91075 -19.02089,-22.91075h78.32105c0,0 -18.47744,4.13633 -18.47744,21.82384c0,29.82438 0,140.84031 0,140.84031z" fill="#75674b" stroke-width="0"/><path d="M175.25831,64.58154c0,0 -0.03538,-1.64109 -0.10308,-2.41848c-1.50218,-17.24788 -18.91781,-20.49228 -18.91781,-20.49228h156.32105l-0.47744,22.70724z" fill="#5d523b" stroke-width="0"/><path d="M175.25831,126.11821c0,-49.54249 40.82272,-48.02588 40.82272,-2.78037c0,58.80222 0,240.98497 0,321.4254c-5.51498,-0.60137 -11.02992,-1.20318 -16.54478,-1.80558c-8.09005,-0.8837 -16.18237,-1.81974 -24.27794,-2.76571c0,-81.8378 0,-255.90454 0,-314.07374z" fill="#75674b" stroke-width="0"/><path d="M129.66521,36.9627c0,-2.63867 0,-25.63301 0,-33.63374c0,-3.85627 2.59203,2.56424 5.91435,2.56424c17.78642,0 169.51201,0 169.51201,0v36.57579c0,0 -152.94797,0 -170.05546,0c-3.04029,0 -5.37089,-2.51401 -5.37089,-5.50629z" fill="#b7a175" stroke-width="0"/><path d="M129.66521,7.85238c0,0 0,-3.89316 0,-5.54324c0,-3.85627 2.59203,-6.61406 5.91435,-6.61406c7.81128,0 41.45557,0 76.73608,0c45.05381,0 92.77594,0 92.77594,0v12.88191z" fill="url(#color-9)" stroke-width="0"/><path d="M235.1275,127.97586c0,-2.4559 0,-5.45641 0,-6.91645c0,-1.65335 2.17734,-3.99392 4.43787,-3.99392c2.63347,0 9.34651,0 14.025,0c2.82181,0 4.90348,1.90788 4.90348,3.80179c0,2.12683 0,5.10487 0,6.5322c0,1.97927 -1.88936,4.37817 -4.51923,4.37817c-4.90287,0 -12.37945,0 -14.98562,0c-1.78161,0 -3.86151,-1.7018 -3.86151,-3.80179z" fill="#645a42" stroke-width="NaN"/><path d="M183.1275,157.97583c0,-2.4559 0,-5.45641 0,-6.91645c0,-1.65335 2.17734,-3.99392 4.43787,-3.99392c2.63347,0 9.34651,0 14.025,0c2.82181,0 4.90348,1.90788 4.90348,3.80179c0,2.12683 0,5.10487 0,6.5322c0,1.97927 -1.88936,4.37817 -4.51923,4.37817c-4.90287,0 -12.37945,0 -14.98562,0c-1.78161,0 -3.86151,-1.7018 -3.86151,-3.80179z" fill="#645a42" stroke-width="NaN"/><path d="M188.1275,176.62668c0,-2.4559 0,-5.45641 0,-6.91645c0,-1.65335 2.17734,-3.99392 4.43787,-3.99392c2.63347,0 9.34651,0 14.025,0c2.82181,0 4.90348,1.90788 4.90348,3.80179c0,2.12683 0,5.10487 0,6.5322c0,1.97927 -1.88936,4.37817 -4.51923,4.37817c-4.90287,0 -12.37945,0 -14.98562,0c-1.78161,0 -3.86151,-1.7018 -3.86151,-3.80179z" fill="#645a42" stroke-width="NaN"/><path d="M72.12753,172.07591c0,-2.4559 0,-5.45641 0,-6.91645c0,-1.65335 2.17734,-3.99392 4.43787,-3.99392c2.63347,0 9.34651,0 14.025,0c2.82181,0 4.90348,1.90788 4.90348,3.80179c0,2.12683 0,5.10487 0,6.5322c0,1.97927 -1.88936,4.37817 -4.51923,4.37817c-4.90287,0 -12.37945,0 -14.98562,0c-1.78161,0 -3.86151,-1.7018 -3.86151,-3.80179z" fill="#645a42" stroke-width="NaN"/><path d="M69.12753,91.97589c0,-2.4559 0,-5.45641 0,-6.91645c0,-1.65335 2.17734,-3.99392 4.43787,-3.99392c2.63347,0 9.34651,0 14.025,0c2.82181,0 4.90348,1.90788 4.90348,3.80179c0,2.12683 0,5.10487 0,6.5322c0,1.97927 -1.88936,4.37817 -4.51923,4.37817c-4.90287,0 -12.37945,0 -14.98562,0c-1.78161,0 -3.86151,-1.7018 -3.86151,-3.80179z" fill="#645a42" stroke-width="NaN"/><path d="M78.12753,120.97583c0,-2.4559 0,-5.45641 0,-6.91645c0,-1.65335 2.17734,-3.99392 4.43787,-3.99392c2.63347,0 9.34651,0 14.025,0c2.82181,0 4.90348,1.90788 4.90348,3.80179c0,2.12683 0,5.10487 0,6.5322c0,1.97927 -1.88936,4.37817 -4.51923,4.37817c-4.90287,0 -12.37945,0 -14.98562,0c-1.78161,0 -3.86151,-1.7018 -3.86151,-3.80179z" fill="#645a42" stroke-width="NaN"/><path d="M70.12753,130.97583c0,-2.4559 0,-5.45641 0,-6.91645c0,-1.65335 2.17734,-3.99392 4.43787,-3.99392c2.63347,0 9.34651,0 14.025,0c2.82181,0 4.90348,1.90788 4.90348,3.80179c0,2.12683 0,5.10487 0,6.5322c0,1.97927 -1.88936,4.37817 -4.51923,4.37817c-4.90287,0 -12.37945,0 -14.98562,0c-1.78161,0 -3.86151,-1.7018 -3.86151,-3.80179z" fill="#645a42" stroke-width="NaN"/><path d="M256.12746,107.97589c0,-2.4559 0,-5.45641 0,-6.91645c0,-1.65335 2.17734,-3.99392 4.43787,-3.99392c2.63347,0 9.34651,0 14.025,0c2.82181,0 4.90348,1.90788 4.90348,3.80179c0,2.12683 0,5.10487 0,6.5322c0,1.97927 -1.88936,4.37817 -4.51923,4.37817c-4.90287,0 -12.37945,0 -14.98562,0c-1.78161,0 -3.86151,-1.7018 -3.86151,-3.80179z" fill="#645a42" stroke-width="NaN"/><path d="M183.1275,85.97589c0,-2.4559 0,-5.45641 0,-6.91645c0,-1.65335 2.17734,-3.99392 4.43787,-3.99392c2.63347,0 9.34651,0 14.025,0c2.82181,0 4.90348,1.90788 4.90348,3.80179c0,2.12683 0,5.10487 0,6.5322c0,1.97927 -1.88936,4.37817 -4.51923,4.37817c-4.90287,0 -12.37945,0 -14.98562,0c-1.78161,0 -3.86151,-1.7018 -3.86151,-3.80179z" fill="#645a42" stroke-width="NaN"/><path d="M269.12746,153.97583c0,-2.4559 0,-5.45641 0,-6.91645c0,-1.65335 2.17734,-3.99392 4.43787,-3.99392c2.63347,0 9.34651,0 14.025,0c2.82181,0 4.90348,1.90788 4.90348,3.80179c0,2.12683 0,5.10487 0,6.5322c0,1.97927 -1.88936,4.37817 -4.51923,4.37817c-4.90287,0 -12.37945,0 -14.98562,0c-1.78161,0 -3.86151,-1.7018 -3.86151,-3.80179z" fill="#645a42" stroke-width="NaN"/><path d="M466.22361,36.9627c0,2.99228 -2.3306,5.50629 -5.37089,5.50629c-17.10749,0 -170.05546,0 -170.05546,0v-36.57579c0,0 65.91092,0 115.94196,0c25.87743,0 39.83994,19 45.90339,19c3.32232,0 13.24768,-6.42051 13.24768,-2.56424c0,8.00073 0.33333,11.99507 0.33333,14.63374z" data-paper-data="{&quot;index&quot;:null}" fill="#b7a175" stroke-width="0"/><path d="M59.253,40.15635c0,32.75563 -12.21082,59.30931 -27.27362,59.30931c-15.06281,0 -27.27362,-26.55368 -27.27362,-59.30931c0,-32.75563 12.21082,-59.30931 27.27362,-59.30931c15.06281,0 27.27362,26.55369 27.27362,59.30931z" fill="none" stroke-width="0"/></g></g></svg>