<svg version="1.1" xmlns="http://www.w3.org/2000/svg" xmlns:xlink="http://www.w3.org/1999/xlink" width="564" height="326.73664" viewBox="0,0,564,326.73664"><defs><linearGradient x1="440.34881" y1="127.3112" x2="438.68056" y2="111.3928" gradientUnits="userSpaceOnUse" id="color-1"><stop offset="0" stop-color="#be6969"/><stop offset="1" stop-color="#ff8c8c"/></linearGradient><linearGradient x1="440.34881" y1="127.3112" x2="438.68056" y2="111.3928" gradientUnits="userSpaceOnUse" id="color-2"><stop offset="0" stop-color="#643838"/><stop offset="1" stop-color="#643838" stop-opacity="0"/></linearGradient><linearGradient x1="445.37746" y1="73.33172" x2="436.50559" y2="75.93017" gradientUnits="userSpaceOnUse" id="color-3"><stop offset="0" stop-color="#ffa5a5"/><stop offset="1" stop-color="#d68b8b"/></linearGradient><linearGradient x1="433.08096" y1="71.21562" x2="440.43599" y2="76.79816" gradientUnits="userSpaceOnUse" id="color-4"><stop offset="0" stop-color="#ffa5a5"/><stop offset="1" stop-color="#d68b8b"/></linearGradient><linearGradient x1="441.42337" y1="126.10772" x2="440.15414" y2="113.99713" gradientUnits="userSpaceOnUse" id="color-5"><stop offset="0" stop-color="#d17373"/><stop offset="1" stop-color="#ff8c8c"/></linearGradient><linearGradient x1="440.34881" y1="127.3112" x2="438.68056" y2="111.3928" gradientUnits="userSpaceOnUse" id="color-6"><stop offset="0" stop-color="#643838"/><stop offset="1" stop-color="#ff8c8c"/></linearGradient><linearGradient x1="449.4653" y1="115.9782" x2="428.91552" y2="120.10046" gradientUnits="userSpaceOnUse" id="color-7"><stop offset="0" stop-color="#556c4d" stop-opacity="0"/><stop offset="1" stop-color="#556c4d"/></linearGradient><linearGradient x1="448.36448" y1="115.66631" x2="427.81469" y2="119.78857" gradientUnits="userSpaceOnUse" id="color-8"><stop offset="0" stop-color="#506648"/><stop offset="1" stop-color="#708e65"/></linearGradient><linearGradient x1="453.69746" y1="120.34679" x2="428.31872" y2="123.0065" gradientUnits="userSpaceOnUse" id="color-9"><stop offset="0" stop-color="#556c4d"/><stop offset="1" stop-color="#708e65"/></linearGradient><linearGradient x1="452.91408" y1="82.18967" x2="429.93512" y2="84.28736" gradientUnits="userSpaceOnUse" id="color-10"><stop offset="0" stop-color="#ff8c8c"/><stop offset="1" stop-color="#be6969"/></linearGradient><linearGradient x1="443.20814" y1="84.47246" x2="420.4368" y2="75.22144" gradientUnits="userSpaceOnUse" id="color-11"><stop offset="0" stop-color="#be6969"/><stop offset="1" stop-color="#ff8c8c"/></linearGradient><linearGradient x1="384.1425" y1="145.47872" x2="363.81272" y2="145.47872" gradientUnits="userSpaceOnUse" id="color-12"><stop offset="0" stop-color="#a881e3"/><stop offset="1" stop-color="#c0ade3"/></linearGradient><linearGradient x1="383.2855" y1="148.86354" x2="359.99655" y2="148.86354" gradientUnits="userSpaceOnUse" id="color-13"><stop offset="0" stop-color="#765b9f"/><stop offset="1" stop-color="#c0ade3"/></linearGradient><linearGradient x1="383.2855" y1="148.86354" x2="359.99655" y2="148.86354" gradientUnits="userSpaceOnUse" id="color-14"><stop offset="0" stop-color="#765b9f"/><stop offset="1" stop-color="#765b9f" stop-opacity="0"/></linearGradient><linearGradient x1="367.17922" y1="137.42897" x2="376.83833" y2="159.56024" gradientUnits="userSpaceOnUse" id="color-15"><stop offset="0" stop-color="#556c4d" stop-opacity="0"/><stop offset="1" stop-color="#556c4d"/></linearGradient><linearGradient x1="386.6965" y1="144.13752" x2="364.57418" y2="144.13752" gradientUnits="userSpaceOnUse" id="color-16"><stop offset="0" stop-color="#708e65"/><stop offset="1" stop-color="#506648"/></linearGradient><linearGradient x1="385.28729" y1="149.97363" x2="357.83009" y2="149.97363" gradientUnits="userSpaceOnUse" id="color-17"><stop offset="0" stop-color="#6e8c63"/><stop offset="1" stop-color="#556c4d"/></linearGradient><linearGradient x1="434.34045" y1="75.81776" x2="426.81063" y2="92.65082" gradientUnits="userSpaceOnUse" id="color-18"><stop offset="0" stop-color="#637d59" stop-opacity="0"/><stop offset="1" stop-color="#637d59"/></linearGradient><linearGradient x1="432.4833" y1="75.81776" x2="424.95348" y2="92.65082" gradientUnits="userSpaceOnUse" id="color-19"><stop offset="0" stop-color="#708e65"/><stop offset="1" stop-color="#5c7553"/></linearGradient><linearGradient x1="441.86869" y1="96.64147" x2="438.57964" y2="78.22886" gradientUnits="userSpaceOnUse" id="color-20"><stop offset="0" stop-color="#5c7553"/><stop offset="1" stop-color="#708e65"/></linearGradient><linearGradient x1="419.99155" y1="170.90167" x2="419.99155" y2="205.3451" gradientUnits="userSpaceOnUse" id="color-21"><stop offset="0" stop-color="#77966b"/><stop offset="1" stop-color="#637d59"/></linearGradient><linearGradient x1="423.38045" y1="187.39503" x2="423.38045" y2="206.72678" gradientUnits="userSpaceOnUse" id="color-22"><stop offset="0" stop-color="#77966b"/><stop offset="1" stop-color="#637d59"/></linearGradient><linearGradient x1="415.97784" y1="173.39021" x2="415.97784" y2="204.3814" gradientUnits="userSpaceOnUse" id="color-23"><stop offset="0" stop-color="#77966b"/><stop offset="1" stop-color="#637d59"/></linearGradient><linearGradient x1="412.42566" y1="168.20469" x2="412.42566" y2="202.6481" gradientUnits="userSpaceOnUse" id="color-24"><stop offset="0" stop-color="#77966b"/><stop offset="1" stop-color="#637d59"/></linearGradient><linearGradient x1="402.03677" y1="183.69794" x2="402.03677" y2="203.02977" gradientUnits="userSpaceOnUse" id="color-25"><stop offset="0" stop-color="#77966b"/><stop offset="1" stop-color="#637d59"/></linearGradient><linearGradient x1="469.05051" y1="211.6765" x2="469.05051" y2="399.54616" gradientUnits="userSpaceOnUse" id="color-26"><stop offset="0" stop-color="#7e7463"/><stop offset="1" stop-color="#847c6b"/></linearGradient><linearGradient x1="468.66342" y1="226.37834" x2="468.66342" y2="259.44539" gradientUnits="userSpaceOnUse" id="color-27"><stop offset="0" stop-color="#454037"/><stop offset="1" stop-color="#454037" stop-opacity="0"/></linearGradient><linearGradient x1="441.4589" y1="210.10501" x2="441.4589" y2="232.10501" gradientUnits="userSpaceOnUse" id="color-28"><stop offset="0" stop-color="#95bd86"/><stop offset="1" stop-color="#80a374"/></linearGradient><linearGradient x1="430.76211" y1="210.10501" x2="430.76211" y2="232.10501" gradientUnits="userSpaceOnUse" id="color-29"><stop offset="0" stop-color="#95bd86"/><stop offset="1" stop-color="#80a374"/></linearGradient></defs><g transform="translate(-4.0015,-21.60769)"><g data-paper-data="{&quot;isPaintingLayer&quot;:true}" fill-rule="nonzero" stroke-linejoin="miter" stroke-miterlimit="10" stroke-dasharray="" stroke-dashoffset="0" style="mix-blend-mode: normal"><g data-paper-data="{&quot;index&quot;:null}"><path d="M447.47159,112.8106c-1.13921,0.03027 -2.23704,0.23355 -2.54664,0.85956c-2.84177,5.74616 -8.67303,18.68174 -13.7456,12.92097c-2.45378,-2.78669 19.30431,-13.57009 19.30431,-13.57009c0,0 -1.54056,-0.24955 -3.01207,-0.21044z" data-paper-data="{&quot;origRot&quot;:0,&quot;index&quot;:null}" fill="url(#color-1)" stroke="none" stroke-width="0" stroke-linecap="butt"/><path d="M447.48745,113.92016c-2.84177,5.74616 -11.23553,18.43174 -16.3081,12.67097c-2.45378,-2.78669 16.05431,-17.25759 16.05431,-17.25759c0,0 0.96329,3.152 0.25379,4.58662z" data-paper-data="{&quot;origRot&quot;:0,&quot;index&quot;:null}" fill="url(#color-2)" stroke="none" stroke-width="0" stroke-linecap="butt"/><path d="M443.97661,68.54864c0,0 -3.39479,14.66687 -5.32206,13.92718c-3.98415,-1.52911 1.17883,-10.23883 3.62388,-12.83192c0.61044,-0.6474 1.69818,-1.09526 1.69818,-1.09526z" data-paper-data="{&quot;origRot&quot;:0,&quot;index&quot;:null}" fill="url(#color-3)" stroke="none" stroke-width="0" stroke-linecap="butt"/><path d="M436.46439,80.70449c-2.20145,-0.31576 0.43017,-13.85142 0.43017,-13.85142c0,0 4.13066,14.50559 -0.43017,13.85142z" data-paper-data="{&quot;origRot&quot;:0,&quot;index&quot;:null}" fill="url(#color-4)" stroke="none" stroke-width="0" stroke-linecap="butt"/><path d="M408.44337,67.52942c0,0 4.7112,21.89505 2.75491,42.91056c-1.88604,20.26096 -1.85965,24.48896 -5.84171,46.42543c0,0 0.39329,9.3543 0.65245,14.70457c0.44315,9.14846 1.58931,19.7285 1.58931,19.7285c0,0 -2.89137,-14.17514 -10.0685,-24.25879c-12.13365,-16.81697 -16.7619,-13.41073 -18.38312,-15.99481" data-paper-data="{&quot;origRot&quot;:0}" fill="none" stroke="#576f4f" stroke-width="3.5" stroke-linecap="round"/><path d="M432.94856,90.41205c0,0 -2.45851,15.10549 -8.51244,31.81433c-3.70264,10.21929 -18.48756,38.18567 -18.48756,38.18567" fill="none" stroke="#536a4b" stroke-width="3" stroke-linecap="round"/><path d="M431.94856,126.41205c0,0 -4.7814,4.6731 -7.13714,6.6923c-2.31003,1.98003 -6.86286,5.3077 -6.86286,5.3077" fill="none" stroke="#536a4b" stroke-width="2" stroke-linecap="round"/><path d="M388.96199,89.52163c0,0 10.71747,19.66531 14.79125,40.37481c3.92752,19.96594 0.78633,35.00242 3.17798,57.16874c1.25891,11.66789 7.36243,31.23266 7.36243,31.23266" data-paper-data="{&quot;origRot&quot;:0}" fill="none" stroke="#708e65" stroke-width="5" stroke-linecap="round"/><path d="M370.63309,52.61246l23.05472,46.19902" data-paper-data="{&quot;origRot&quot;:0,&quot;index&quot;:null}" fill="none" stroke="#8fa686" stroke-width="10" stroke-linecap="round"/><path d="M410.01225,77.44376l-9.03128,-50.83606" data-paper-data="{&quot;origRot&quot;:0,&quot;index&quot;:null}" fill="none" stroke="#8fa686" stroke-width="10" stroke-linecap="round"/><path d="M450.46798,112.91625c0,0 -16.17312,16.48168 -18.78548,13.8289c-5.41214,-5.49587 18.78548,-13.8289 18.78548,-13.8289z" data-paper-data="{&quot;origRot&quot;:0,&quot;index&quot;:null}" fill="url(#color-5)" stroke="none" stroke-width="0" stroke-linecap="butt"/><path d="M447.04995,113.98266c-2.84177,5.74616 -10.79803,18.36924 -15.8706,12.60847c-2.45378,-2.78669 16.05431,-17.25759 16.05431,-17.25759c0,0 0.52579,3.2145 -0.18371,4.64912z" data-paper-data="{&quot;origRot&quot;:0,&quot;index&quot;:null}" fill="url(#color-6)" stroke="none" stroke-width="0" stroke-linecap="butt"/><path d="M431.00879,128.54704c-3.26968,-2.97691 7.81636,-16.74136 18.20258,-21.31275c0.34692,-0.15269 0.09373,0.40409 0.43991,0.27104c1.76626,-0.67884 -15.26358,24.11806 -18.64249,21.04171z" data-paper-data="{&quot;origRot&quot;:0}" fill="url(#color-7)" stroke="none" stroke-width="0" stroke-linecap="butt"/><path d="M449.61717,106.94763c0.7545,-0.28998 -4.03843,3.21083 -7.46868,8.33737c-4.76666,7.12381 -11.30296,13.32517 -11.30296,13.32517c0,0 -0.25809,-0.1742 -1.31453,-1.43753c0.43655,-5.65688 10.54141,-20.12448 20.08616,-20.22502z" data-paper-data="{&quot;origRot&quot;:0}" fill="url(#color-8)" stroke="none" stroke-width="0" stroke-linecap="butt"/><path d="M452.04418,111.27747c0,0 -2.65143,5.62599 -6.87691,10.20152c-4.25516,4.60767 -10.34247,7.78916 -12.61925,7.51883c-1.50074,-0.17818 -2.1529,-0.45946 -2.01528,-1.03876c0.04648,-0.19569 0.18309,-0.42538 0.40755,-0.6966c1.90896,-2.3066 6.89517,-6.21495 11.97251,-9.38622c5.50655,-3.43934 9.40922,-7.37693 9.13138,-6.59878z" data-paper-data="{&quot;origRot&quot;:0}" fill="url(#color-9)" stroke="none" stroke-width="0" stroke-linecap="butt"/><path d="M433.183,97.82411c-5.63153,-2.48622 -0.45735,-11.18603 5.76038,-18.44967c4.91495,-7.71973 16.51563,-9.77069 16.51563,-9.77069c0,0 -10.49736,10.42348 -11.7882,14.18186c-0.69939,2.03632 -0.47361,0.57225 -0.47361,0.57225c0,0 -6.82087,14.87606 -10.01422,13.46625z" data-paper-data="{&quot;origRot&quot;:0,&quot;index&quot;:null}" fill="url(#color-10)" stroke="none" stroke-width="0" stroke-linecap="butt"/><path d="M432.99891,70.43303c6.20952,9.40816 13.15529,22.58002 0.79399,24.65366c-3.15534,0.52932 -4.43822,-13.3524 -4.43822,-13.3524c0,0 -0.80763,-7.28512 -1.59202,-10.57571c-1.77167,-7.43234 -2.59132,-7.47283 -2.59132,-7.47283c0,0 2.88712,-0.20489 7.82757,6.74728z" data-paper-data="{&quot;origRot&quot;:0,&quot;index&quot;:null}" fill="url(#color-11)" stroke="none" stroke-width="0" stroke-linecap="butt"/><path d="M383.97068,153.68008c-3.84198,5.87022 -13.54458,-5.2775 -17.72769,-11.63334c-1.11554,-1.69494 -2.42972,-6.14138 -2.42972,-6.14138c0,0 22.50641,14.18562 20.1574,17.77471z" data-paper-data="{&quot;origRot&quot;:0,&quot;index&quot;:null}" fill="url(#color-12)" stroke="none" stroke-width="0" stroke-linecap="butt"/><path d="M372.80027,140.76626c7.16372,1.79662 14.70298,8.26016 9.45528,15.3782c-2.53852,3.44324 -22.259,-14.80654 -22.259,-14.80654c0,0 11.01518,-1.02021 12.80372,-0.57166z" data-paper-data="{&quot;origRot&quot;:0,&quot;index&quot;:null}" fill="url(#color-13)" stroke="none" stroke-width="0" stroke-linecap="butt"/><path d="M359.99656,141.33792c0,0 6.41331,-2.09724 12.41207,-1.84452c7.16371,1.79662 15.09462,9.53302 9.84692,16.65106c-2.53852,3.44324 -22.259,-14.80654 -22.259,-14.80654z" data-paper-data="{&quot;origRot&quot;:0,&quot;index&quot;:null}" fill="url(#color-14)" stroke="none" stroke-width="0" stroke-linecap="butt"/><path d="M357.6187,141.75863c-0.63745,-0.97193 8.99248,4.04944 16.96085,7.35458c6.97704,2.89395 12.48984,3.90098 11.25797,6.02769c-2.63876,4.5556 -20.96893,-2.32824 -28.21883,-13.38227z" data-paper-data="{&quot;origRot&quot;:0}" fill="url(#color-15)" stroke="none" stroke-width="0" stroke-linecap="butt"/><path d="M384.05449,144.31437c2.47088,3.37932 2.44147,7.92937 1.68286,9.78271c-0.26898,0.65716 -1.55107,2.19115 -1.55107,2.19115c0,0 -3.70543,-3.44903 -7.39136,-7.38759c-5.73052,-6.12329 -13.15824,-15.87928 -12.0781,-15.73873c0,0 14.62991,4.71388 19.33767,11.15246z" data-paper-data="{&quot;origRot&quot;:0}" fill="url(#color-16)" stroke="none" stroke-width="0" stroke-linecap="butt"/><path d="M357.86268,142.42147c-0.64428,-0.98234 7.00458,3.90359 14.80292,7.64856c0.73916,0.35497 1.47966,0.69967 2.21458,1.02817c5.90018,2.63727 11.30425,2.18469 10.22222,4.05276c-1.62762,2.80995 -4.23102,3.11744 -12.10398,0.17967c-6.97349,-2.60213 -12.35765,-8.67338 -15.13573,-12.90917z" data-paper-data="{&quot;origRot&quot;:0}" fill="url(#color-17)" stroke="none" stroke-width="0" stroke-linecap="butt"/><path d="M423.74848,73.09098c0,0 4.83897,1.86235 7.55017,5.34398c2.54635,3.26994 3.82029,5.94327 4.17212,8.44744c0.79346,5.64741 -2.06626,12.41647 -3.37647,12.37824c-1.69222,-0.04938 -3.03177,-4.00492 -3.80219,-10.63589c-0.68644,-5.90812 -4.54362,-15.53377 -4.54362,-15.53377z" data-paper-data="{&quot;origRot&quot;:0}" fill="url(#color-18)" stroke="none" stroke-width="0" stroke-linecap="butt"/><path d="M421.89135,73.09096c0,0 4.83897,1.86235 7.55016,5.34398c2.54635,3.26994 3.82028,5.94327 4.17212,8.44744c0.79346,5.64741 -2.06626,12.41648 -3.37647,12.37825c-1.69222,-0.04938 -3.03178,-4.00492 -3.8022,-10.63589c-0.68644,-5.90812 -4.54362,-15.53377 -4.54362,-15.53377z" data-paper-data="{&quot;origRot&quot;:0}" fill="url(#color-19)" stroke="none" stroke-width="0" stroke-linecap="butt"/><path d="M453.76322,81.30319c0,0 -2.0142,-1.13768 -8.57567,7.97267c-5.79661,7.82893 -9.7121,10.0868 -12.55465,10.68167c-0.41811,0.0875 -2.71164,-0.67259 -2.71164,-0.67259c0,0 -0.29029,-0.42414 -0.52308,-1.00537c-0.25307,-0.63184 -0.43818,-1.4493 -0.10855,-2.1093c1.02799,-2.0583 4.06992,-7.89766 7.57055,-11.0707c6.38503,-5.78753 16.90304,-3.79638 16.90304,-3.79638z" data-paper-data="{&quot;origRot&quot;:0}" fill="url(#color-20)" stroke="none" stroke-width="0" stroke-linecap="butt"/></g><path d="M415.65238,205.34509c0,0 0.54203,-7.18875 2.47594,-14.91982c1.57385,-6.29169 6.20242,-19.52349 6.20242,-19.52349c0,0 -2.86365,16.83301 -3.01957,25.73731c-0.07466,4.26468 2.42867,8.00654 2.42867,8.00654z" data-paper-data="{&quot;index&quot;:null}" fill="url(#color-21)" stroke="none" stroke-width="0" stroke-linecap="butt"/><path d="M418.10271,205.69085c0,0 1.16012,-2.91229 4.62883,-10.31609c2.92886,-6.25149 5.92664,-7.97973 5.92664,-7.97973c0,0 -2.76258,6.56305 -3.52848,12.87369c-0.94111,7.75436 1.24958,6.3606 1.24958,6.3606z" data-paper-data="{&quot;origRot&quot;:0,&quot;index&quot;:null}" fill="url(#color-22)" stroke="none" stroke-width="0" stroke-linecap="butt"/><path d="M412.45372,203.4544c0,0 0.96508,4.80538 1.98785,-7.46562c0.83235,-9.98638 1.59125,-22.59843 1.59125,-22.59843c0,0 0.56378,2.66531 1.53021,12.8549c1.14456,12.06777 1.9389,16.87169 1.9389,16.87169z" data-paper-data="{&quot;index&quot;:null}" fill="url(#color-23)" stroke="none" stroke-width="0" stroke-linecap="butt"/><path d="M408.67735,201.94862c0,0 2.50334,-3.74187 2.42867,-8.00654c-0.15592,-8.90428 -3.01956,-25.73731 -3.01956,-25.73731c0,0 4.62858,13.23181 6.20244,19.52352c1.93391,7.73106 2.47593,14.91981 2.47593,14.91981z" data-paper-data="{&quot;index&quot;:null}" fill="url(#color-24)" stroke="none" stroke-width="0" stroke-linecap="butt"/><path d="M399.03797,202.93226c0,0 2.19071,1.39377 1.24958,-6.3606c-0.76592,-6.31066 -3.52849,-12.8737 -3.52849,-12.8737c0,0 2.99777,1.72823 5.92663,7.97973c3.4687,7.4038 4.62883,10.31609 4.62883,10.31609z" data-paper-data="{&quot;origRot&quot;:0,&quot;index&quot;:null}" fill="url(#color-25)" stroke="none" stroke-width="0" stroke-linecap="butt"/><path d="M345.6886,211.67653h197.7833c0.08374,2.34803 0.08852,8.6674 0.07528,14.80077c-0.01123,5.20045 -0.03541,10.26717 -0.03541,12.66598c0,6.98024 0.63713,64.473 1.13872,108.65315c-4.40424,-0.0004 -8.82285,0.11403 -13.10611,0.2942c-13.18817,-3.29704 -27.26339,-0.85567 -40.61733,-0.06857c-8.81535,0.51959 -17.83691,-0.00636 -26.67057,-0.00636c-4.5045,0 -9.01029,-0.10741 -13.51351,0c-1.23902,0.02955 -2.48954,0.49163 -3.70848,0.26751c-1.1007,-0.20238 -1.90163,-1.30279 -3.003,-1.5015c-4.91944,-0.88756 -10.76543,-0.26751 -15.81104,-0.26751c-1.21816,0.46192 -2.44458,-0.91802 -3.70848,-1.23399c-0.97111,-0.24278 -2.03189,0.24278 -3.003,0c-1.08574,-0.27143 -1.90841,-1.26831 -3.003,-1.5015c-1.67422,-0.35668 -8.92685,-0.35668 -10.60106,0c-1.09459,0.23319 -1.9023,1.29912 -3.003,1.5015c-3.18598,0.58578 -6.47509,-0.26751 -9.71448,-0.26751c-5.25647,0 -11.28678,0.7201 -16.4162,0.12913c-1.57232,-0.18115 -2.94015,-1.2611 -4.5045,-1.5015c-1.42398,-0.21883 -10.20463,-0.08465 -11.80029,-0.12426c-5.60109,-0.13904 -11.18902,-0.57829 -16.77782,-0.9983z" fill="url(#color-26)" stroke="none" stroke-width="0" stroke-linecap="butt"/><path d="M465.36821,229.54431h43v117.1361c-5.8618,0.36308 -11.71773,1.00431 -17.44117,1.34165c-8.44586,0.49781 -17.081,0.0359 -25.55883,-0.0037z" fill="#7c7464" stroke="none" stroke-width="0" stroke-linecap="butt"/><path d="M381.70159,229.54432h43v115.79102c-0.06312,-0.0208 -0.12632,-0.03929 -0.18962,-0.05512c-0.97111,-0.24278 -2.03189,0.24278 -3.003,0c-1.08574,-0.27143 -1.90841,-1.26831 -3.003,-1.5015c-1.67422,-0.35668 -8.92685,-0.35668 -10.60106,0c-1.09459,0.23319 -1.9023,1.29912 -3.003,1.5015c-3.18598,0.58578 -6.47509,-0.26751 -9.71448,-0.26751c-4.28349,0 -9.08085,0.47819 -13.48582,0.33542z" fill="#7c7464" stroke="none" stroke-width="0" stroke-linecap="butt"/><path d="M345.36522,259.44539c0,0 -0.09279,-21.05637 -0.09279,-25.92258c0,-1.56759 14.95657,-7.26319 14.95657,-7.26319l182.24949,0.09417c-1.09205,4.10494 1.03328,8.43796 1.03328,12.7895c0,6.76737 0,13.53474 0,20.30211z" fill="url(#color-27)" stroke="none" stroke-width="0" stroke-linecap="butt"/><path d="M339.31276,211.86211c0,0 -0.02698,0.32297 -0.04609,-1.1973c-0.14226,-12.98086 7.39156,-11.54604 12.82201,-11.54604c18.31743,0 126.34193,0 190.94752,0c0.08427,0.56076 0.21511,1.10627 0.38845,1.63249c0,2.00437 -0.12131,6.40426 0.05397,11.11086z" fill="#94bc85" stroke="none" stroke-width="0" stroke-linecap="butt"/><path d="M339.24538,236.10501c0,-4.21713 0,-14.07115 0,-14.07115c0,0 93.45957,0.17656 133.05383,0.25137c31.92344,0.06031 32.86582,23.20522 3.86025,23.20522c-48.63396,0 -95.63587,0 -112.38018,0c-6.10971,0 -9.62673,0 -14.17734,0c-10.0914,0 -10.35657,-5.9413 -10.35657,-9.38544z" fill="#80a374" stroke="none" stroke-width="0" stroke-linecap="butt"/><path d="M339.21216,232.10501v-22c0,0 2.43263,0 5.66263,0c13.42537,0 105.84531,0 159.83412,0c0.01641,0.86766 0.01839,6.7431 0.01533,12.20481c-0.0002,0.3577 -0.00042,0.71363 -0.00066,1.06625c-0.0031,4.53229 -0.00931,8.51984 -0.01306,8.72894z" fill="url(#color-28)" stroke="none" stroke-width="0" stroke-linecap="butt"/><path d="M348.22117,211.86212c0.17528,-4.7066 0.05397,-9.10649 0.05397,-11.11086c0.17334,-0.52622 0.30418,-1.07173 0.38845,-1.63249c64.60559,0 172.63009,0 190.94752,0c5.43045,0 12.96427,-1.43482 12.82201,11.54604c-0.01911,1.52027 -0.04609,1.1973 -0.04609,1.1973z" data-paper-data="{&quot;index&quot;:null}" fill="#94bc85" stroke="none" stroke-width="0" stroke-linecap="butt"/><path d="M552.45442,236.10501c0,3.44414 -0.26517,9.38544 -10.35657,9.38544c-4.55061,0 -8.06763,0 -14.17734,0c-16.74431,0 -63.74622,0 -112.38018,0c-29.00557,0 -44.90495,-23.11309 -19.02797,-23.16198c40.51813,-0.07655 155.94205,-0.29461 155.94205,-0.29461c0,0 0,9.85402 0,14.07115z" data-paper-data="{&quot;index&quot;:null}" fill="#80a374" stroke="none" stroke-width="0" stroke-linecap="butt"/><path d="M355.46058,232.10501c-0.00446,-0.2091 -0.01185,-4.19665 -0.01554,-8.72894c-0.00029,-0.35262 -0.00055,-0.70855 -0.00079,-1.06625c-0.00364,-5.46171 -0.00129,-11.33715 0.01825,-12.20481c64.27408,0 174.30073,0 190.28373,0c3.84533,0 6.7414,0 6.7414,0v22z" data-paper-data="{&quot;index&quot;:null}" fill="url(#color-29)" stroke="none" stroke-width="0" stroke-linecap="butt"/><path d="M568.0015,215.10449c0,-9.66498 -60.88927,-17.5 -136,-17.5c-75.11073,0 -136,7.83502 -136,17.5c0,9.66498 60.88927,17.5 136,17.5c75.11073,0 136,-7.83502 136,-17.5z" fill="none" stroke="none" stroke-width="0" stroke-linecap="butt"/><ellipse cx="8.00301" cy="467.20897" transform="scale(0.5,0.5)" rx="0" ry="0" fill="none" stroke="none" stroke-width="0" stroke-linecap="butt"/></g></g></svg>