<svg version="1.1" xmlns="http://www.w3.org/2000/svg" xmlns:xlink="http://www.w3.org/1999/xlink" width="32.66372" height="109.38771" viewBox="0,0,32.66372,109.38771"><defs><linearGradient x1="240" y1="97.8423" x2="240" y2="196.15772" gradientUnits="userSpaceOnUse" id="color-1"><stop offset="0" stop-color="#444444"/><stop offset="1" stop-color="#8b8b8b"/></linearGradient><linearGradient x1="240" y1="97.8423" x2="240" y2="196.1577" gradientUnits="userSpaceOnUse" id="color-2"><stop offset="0" stop-color="#ffca1b"/><stop offset="1" stop-color="#e5bc34"/></linearGradient><linearGradient x1="242.18439" y1="-139.27103" x2="242.18439" y2="470.3386" gradientUnits="userSpaceOnUse" id="color-3"><stop offset="0" stop-color="#b7a175"/><stop offset="1" stop-color="#9f8c66"/></linearGradient><linearGradient x1="240" y1="190.3423" x2="240" y2="197.90772" gradientUnits="userSpaceOnUse" id="color-4"><stop offset="0" stop-color="#444444"/><stop offset="1" stop-color="#8b8b8b"/></linearGradient></defs><g transform="translate(-223.66814,-91.27001)"><g data-paper-data="{&quot;isPaintingLayer&quot;:true}" fill-rule="nonzero" stroke-linejoin="miter" stroke-miterlimit="10" stroke-dasharray="" stroke-dashoffset="0" style="mix-blend-mode: normal"><path d="M226.41814,196.15772v-98.31542h27.16372v98.31542z" fill="url(#color-1)" stroke="#998239" stroke-width="5.5" stroke-linecap="butt"/><path d="M226.41814,196.1577v-98.31542h27.16372v98.31542z" fill="url(#color-2)" stroke="none" stroke-width="NaN" stroke-linecap="butt"/><g fill="none" stroke="#998239"><path d="M238.64452,140.75327c2.49903,-0.53565 4.95911,1.05599 5.49477,3.55501c0.53565,2.49903 -1.05599,4.95911 -3.55501,5.49477c-2.49903,0.53565 -4.95911,-1.05599 -5.49477,-3.55501c-0.53565,-2.49903 1.05599,-4.95911 3.55501,-5.49477z" data-paper-data="{&quot;index&quot;:null}" stroke-width="5" stroke-linecap="butt"/><path d="M243.91264,162.51222l-2.56899,-12.22637" data-paper-data="{&quot;index&quot;:null}" stroke-width="5" stroke-linecap="round"/><path d="M239.32046,157.26501l3.07718,-0.65957l0.04826,0.22515l-3.07718,0.65957z" data-paper-data="{&quot;index&quot;:null}" stroke-width="3.5" stroke-linecap="butt"/><path d="M239.09633,163.20683l3.07718,-0.65957l0.04826,0.22516l-3.07718,0.65957z" data-paper-data="{&quot;index&quot;:null}" stroke-width="5" stroke-linecap="butt"/></g><path d="M225.558,91.53429c-0.16596,-0.01113 -0.33097,-0.02695 -0.49512,-0.04706c1.5408,-0.02652 3.08371,-0.05489 4.62931,-0.08518c1.42973,-0.02802 2.85966,-0.07459 4.2897,-0.13204c-2.80799,0.27579 -5.61578,0.45265 -8.42389,0.26428z" data-paper-data="{&quot;index&quot;:null}" fill="url(#color-3)" stroke="none" stroke-width="0" stroke-linecap="butt"/><path d="M226.41814,197.90772v-7.56542h27.16372v7.56542z" fill="url(#color-4)" stroke="#665726" stroke-width="5.5" stroke-linecap="butt"/><path d="M226.41814,197.9077v-10.31542h27.16372v10.31542z" fill="#c19915" stroke="none" stroke-width="NaN" stroke-linecap="butt"/></g></g></svg>