<svg version="1.1" xmlns="http://www.w3.org/2000/svg" xmlns:xlink="http://www.w3.org/1999/xlink" width="720" height="540" viewBox="0,0,720,540"><defs><clipPath id="clip-1"><rect x="-240" y="-180" transform="scale(0.5,0.5)" width="1440" height="1080" fill="none" fill-rule="nonzero" stroke-width="0.5" stroke-linecap="butt"/></clipPath></defs><g transform="translate(120,90)"><g clip-path="url(#clip-1)" data-paper-data="{&quot;isPaintingLayer&quot;:true}" stroke="none" stroke-linejoin="miter" stroke-miterlimit="10" stroke-dasharray="" stroke-dashoffset="0" style="mix-blend-mode: normal"><path d="M-240,-180h960v720h-960z" fill-opacity="0" fill="#000000" fill-rule="evenodd" stroke-width="1" stroke-linecap="square"/><path d="M150.40536,-39.32518v-98.89584h900.8819v694.7402h-900.8819l0,-551.16409" fill-opacity="0" fill="#000000" fill-rule="evenodd" stroke-width="1" stroke-linecap="square"/><path d="M-189.47363,-118.58754v8.90625c0,1.09375 -0.50521,1.82813 -1.51562,2.20313c-0.27083,0.09375 -0.63021,0.14063 -1.07812,0.14063c-0.4375,0 -0.92187,-0.1875 -1.45312,-0.5625c-0.52083,-0.38542 -0.78125,-0.97917 -0.78125,-1.78125v-8.85938l-7.98437,-12.10937c-0.26042,-0.32292 -0.39062,-0.67187 -0.39062,-1.04687c0,-0.38542 0.07292,-0.72396 0.21875,-1.01562c0.15625,-0.29167 0.375,-0.55208 0.65625,-0.78125c0.52083,-0.40625 1.05729,-0.60937 1.60938,-0.60937c1,0 1.72917,0.41146 2.1875,1.23438l6.375,11.51563h-0.04687l6.42188,-11.625c0.45833,-0.75 1.11979,-1.125 1.98438,-1.125c0.94792,0 1.61458,0.375 2,1.125c0.19792,0.27083 0.29688,0.57292 0.29688,0.90625c0,0.34375 -0.11458,0.70313 -0.34375,1.07813zM-180.05153,-116.85316c0,-1.1875 0.19271,-2.38021 0.57813,-3.57812c0.38542,-1.19792 0.97396,-2.28125 1.76563,-3.25c1.70833,-2.07292 4.09895,-3.10937 7.17187,-3.10937c3.08333,0 5.47396,1.04167 7.17188,3.125c1.5625,1.91667 2.34375,4.17188 2.34375,6.76563c0,2.61459 -0.78125,4.8698 -2.34375,6.76563c-1.69792,2.11458 -4.08854,3.17188 -7.17187,3.17188c-3.07292,0 -5.46354,-1.05208 -7.17187,-3.15625c-1.5625,-1.875 -2.34375,-4.11979 -2.34375,-6.73438zM-175.4109,-116.85316c0,0.66667 0.08854,1.3698 0.26563,2.10938c0.1875,0.73958 0.51042,1.42188 0.96875,2.04688c0.88542,1.27083 2.09896,1.90625 3.64063,1.90625c1.63542,0 2.84375,-0.61979 3.625,-1.85937c0.80208,-1.27083 1.20313,-2.6875 1.20313,-4.25c0,-1.60417 -0.39583,-2.98437 -1.1875,-4.14062c-0.82292,-1.28125 -2.03646,-1.92187 -3.64062,-1.92187c-1.54167,0 -2.75521,0.65104 -3.64062,1.95313c-0.82292,1.11458 -1.23437,2.5 -1.23437,4.15625zM-141.93277,-109.44691c0,0.71875 -0.26042,1.25 -0.78125,1.59375c-0.51042,0.34375 -0.94271,0.51563 -1.29687,0.51563c-0.34375,0 -0.66667,-0.03646 -0.96875,-0.10937c-0.30208,-0.08333 -0.54687,-0.23958 -0.73437,-0.46875c-0.48958,-0.33333 -0.73437,-0.84375 -0.73437,-1.53125h0.48438c-0.11458,1.04167 -1.28125,1.78646 -3.5,2.23438c-0.66667,0.16667 -1.39583,0.25 -2.1875,0.25c-0.78125,0 -1.60937,-0.14062 -2.48437,-0.42187c-0.875,-0.29167 -1.63021,-0.75521 -2.26562,-1.39062c-1.38542,-1.3125 -2.07812,-3.25521 -2.07812,-5.82812v-9.65625c0,-0.67708 0.22396,-1.21354 0.67188,-1.60937c0.44792,-0.39583 0.95833,-0.59375 1.53125,-0.59375c0.57292,0 1.08333,0.19792 1.53125,0.59375c0.44792,0.39583 0.67188,0.93229 0.67188,1.60938v9.89063c0,1.41667 0.25,2.36458 0.75,2.84375c0.52083,0.48958 1.34375,0.73438 2.46875,0.73438c1.91667,0 3.23438,-0.76562 3.95313,-2.29687c0.28125,-0.54167 0.43229,-1.16146 0.45313,-1.85937v-9.3125c0,-0.69792 0.23958,-1.23958 0.71875,-1.625c0.48958,-0.38542 1.02083,-0.57812 1.59375,-0.57812c0.57292,0 1.08333,0.19792 1.53125,0.59375c0.44792,0.39583 0.67188,0.93229 0.67188,1.60938zM-115.72797,-120.52504l-4.09375,11.10938c-0.45833,1.38542 -1.375,2.07813 -2.75,2.07813c-1.375,0 -2.25,-0.68229 -2.625,-2.04687l-5.28125,-14.09375c-0.09375,-0.27083 -0.14062,-0.53646 -0.14062,-0.79687c0,-0.26042 0.05208,-0.5625 0.15625,-0.90625c0.11458,-0.35417 0.33854,-0.59896 0.67188,-0.73437c0.36458,-0.26042 0.75521,-0.44271 1.17188,-0.54687c1.26042,0 2.00521,0.54167 2.23438,1.625l3.96875,11.21875l4.0625,-10.82813c0.42708,-1.26042 1.32292,-1.93229 2.6875,-2.01562c0.59375,0 1.15104,0.15104 1.67188,0.45313c0.53125,0.30208 0.91667,0.82813 1.15625,1.57813l3.82813,10.625l3.90625,-11.07813c0.32292,-1.05208 0.97917,-1.57812 1.96875,-1.57812c0.60417,0 1.11458,0.21354 1.53125,0.64063c0.42708,0.41667 0.64063,0.83333 0.64063,1.25c0,0.41667 -0.02604,0.76042 -0.07812,1.03125l-5.45312,14.17188c-0.41667,1.35417 -1.25521,2.03125 -2.51562,2.03125c-1.41667,0 -2.3125,-0.69792 -2.6875,-2.09375zM-93.89421,-131.71254c0,0.73958 -0.25521,1.33854 -0.76562,1.79688c-0.5,0.45833 -1.16146,0.6875 -1.98437,0.6875c-0.82292,0 -1.48958,-0.22396 -2,-0.67187c-0.51042,-0.45833 -0.76562,-1.0625 -0.76562,-1.8125c0,-0.66667 0.25521,-1.22917 0.76563,-1.6875c0.51042,-0.46875 1.1875,-0.70312 2.03125,-0.70312c0.84375,0 1.50521,0.23438 1.98438,0.70313c0.48958,0.46875 0.73438,1.03125 0.73438,1.6875zM-98.84734,-124.16566c0,-0.70833 0.23438,-1.26562 0.70313,-1.67187c0.47917,-0.41667 0.92708,-0.625 1.34375,-0.625c0.41667,0 0.75,0.0625 1,0.1875c0.25,0.125 0.46354,0.27083 0.64063,0.4375c0.54167,0.35417 0.8125,0.91146 0.8125,1.67188v14.625c0,0.73958 -0.24479,1.29167 -0.73437,1.65625c-0.48958,0.36458 -1.01042,0.54688 -1.5625,0.54688c-0.5625,0 -1.07292,-0.1875 -1.53125,-0.5625c-0.44792,-0.375 -0.67187,-0.92187 -0.67187,-1.64062zM-90.57146,-124.30629c0,-0.65625 0.23958,-1.17708 0.71875,-1.5625c0.47917,-0.39583 0.97396,-0.59375 1.48438,-0.59375c1.03125,0 1.68229,0.36458 1.95313,1.09375c0.27083,0.72917 0.07813,1.61979 -0.57812,2.67188c-0.07292,-1.30208 0.59375,-2.33854 2,-3.10937c1.19792,-0.65625 2.38021,-0.98437 3.54688,-0.98437c1.17708,0 2.18229,0.15104 3.01563,0.45313c0.83333,0.29167 1.59896,0.75 2.29688,1.375c1.40625,1.33333 2.10938,3.25521 2.10938,5.76563v9.75c0,0.71875 -0.26042,1.25 -0.78125,1.59375c-0.51042,0.34375 -1.01562,0.51563 -1.51562,0.51563c-0.57292,0 -1.08854,-0.1875 -1.54687,-0.5625c-0.44792,-0.375 -0.67187,-0.89062 -0.67187,-1.54687v-9.9375c0,-1.20833 -0.3125,-2.11458 -0.9375,-2.71875c-0.58333,-0.57292 -1.3125,-0.85937 -2.1875,-0.85937c-1.27083,0 -2.34896,0.35938 -3.23437,1.07813c-0.84375,0.75 -1.26562,1.95313 -1.26562,3.60938v8.82813c0,0.71875 -0.25,1.25 -0.75,1.59375c-0.48958,0.34375 -1.00521,0.51563 -1.54687,0.51563c-0.58333,0 -1.08333,-0.19271 -1.5,-0.57812c-0.40625,-0.38542 -0.60937,-0.89583 -0.60937,-1.53125zM-65.34242,-112.16566c0.875,0 1.51563,0.20313 1.92188,0.60938c0.5,0.66667 0.75,1.20833 0.75,1.625c0,0.40625 -0.05208,0.76563 -0.15625,1.07813c-0.09375,0.3125 -0.29167,0.60417 -0.59375,0.875c-0.53125,0.42708 -1.17187,0.64063 -1.92187,0.64063c-0.85417,0 -1.45833,-0.19792 -1.8125,-0.59375c-0.625,-0.5 -0.9375,-1.02083 -0.9375,-1.5625c0,-0.55208 0.0625,-0.9375 0.1875,-1.15625c0.13542,-0.22917 0.28646,-0.46875 0.45313,-0.71875c0.55208,-0.53125 1.25521,-0.79687 2.10938,-0.79687zM-67.9518,-132.79066c0,-0.72917 0.26563,-1.28125 0.79688,-1.65625c0.54167,-0.375 1.09896,-0.5625 1.67188,-0.5625c0.58333,0 1.14063,0.1875 1.67188,0.5625c0.54167,0.375 0.8125,0.92708 0.8125,1.65625l-0.5,16.95313c-0.04167,0.65625 -0.25,1.19792 -0.625,1.625c-0.375,0.41667 -0.82292,0.625 -1.34375,0.625c-0.52083,0 -0.97396,-0.20312 -1.35937,-0.60937c-0.38542,-0.41667 -0.57812,-0.97396 -0.57812,-1.67187z" fill="#000000" fill-rule="nonzero" stroke-width="1" stroke-linecap="square"/><path d="M441.01797,5.55398c-2.67708,0 -4.77604,-1.07292 -6.29687,-3.21875c-1.26042,-1.86458 -1.89062,-4.10417 -1.89062,-6.71875c0,-4.4375 1.51042,-7.44271 4.53125,-9.01562c1.03125,-0.58333 2.0625,-0.875 3.09375,-0.875c1.04167,0 1.90104,0.0625 2.57813,0.1875c0.67708,0.11458 1.32813,0.34375 1.95313,0.6875c1.07536,0.53768 1.66699,0.93818 1.77487,1.2015l-0.32174,-7.17025c0,-0.75 0.25,-1.29167 0.75,-1.625c0.5,-0.33333 1.01563,-0.5 1.54688,-0.5c0.5625,0 1.06771,0.17188 1.51563,0.51563c0.45833,0.33333 0.6875,0.86979 0.6875,1.60937v22.4375c0,0.70833 -0.24479,1.23958 -0.73437,1.59375c-0.48958,0.34375 -0.92187,0.51563 -1.29687,0.51563c-0.36458,0 -0.6875,-0.03646 -0.96875,-0.10937c-0.28125,-0.08333 -0.53125,-0.23437 -0.75,-0.45312c-0.38748,-0.26639 -0.62481,-0.636 -0.71201,-1.10882c-0.98343,1.3642 -2.8034,2.0463 -5.45991,2.0463zM441.56484,1.72585c3.1875,0 4.78125,-2.13021 4.78125,-6.39062c0,-2.75 -0.78125,-4.52604 -2.34375,-5.32812c-0.59375,-0.30208 -1.3125,-0.45312 -2.15625,-0.45312c-0.83333,0 -1.51562,0.15625 -2.04687,0.46875c-0.52083,0.30208 -0.95833,0.72396 -1.3125,1.26563c-0.67708,1.0625 -1.01562,2.42708 -1.01562,4.09375c0,2.5 0.56771,4.31771 1.70313,5.45313c0.57292,0.59375 1.36979,0.89063 2.39063,0.89063z" fill="#000000" fill-rule="nonzero" stroke-width="1" stroke-linecap="butt"/><path d="M392.18579,-4.33665c0,-1.1875 0.19271,-2.38021 0.57813,-3.57812c0.38542,-1.19792 0.97396,-2.28125 1.76563,-3.25c1.70833,-2.07292 4.09896,-3.10937 7.17188,-3.10937c3.08333,0 5.47396,1.04167 7.17188,3.125c1.5625,1.91667 2.34375,4.17188 2.34375,6.76563c0,2.61458 -0.78125,4.86979 -2.34375,6.76563c-1.69792,2.11458 -4.08854,3.17188 -7.17187,3.17188c-3.07292,0 -5.46354,-1.05208 -7.17187,-3.15625c-1.5625,-1.875 -2.34375,-4.11979 -2.34375,-6.73437zM396.82641,-4.33665c0,0.66667 0.08854,1.36979 0.26563,2.10938c0.1875,0.73958 0.51042,1.42188 0.96875,2.04688c0.88542,1.27083 2.09896,1.90625 3.64063,1.90625c1.63542,0 2.84375,-0.61979 3.625,-1.85937c0.80208,-1.27083 1.20313,-2.6875 1.20313,-4.25c0,-1.60417 -0.39583,-2.98437 -1.1875,-4.14062c-0.82292,-1.28125 -2.03646,-1.92187 -3.64062,-1.92187c-1.54167,0 -2.75521,0.65104 -3.64062,1.95313c-0.82292,1.11458 -1.23437,2.5 -1.23437,4.15625z" fill="#000000" fill-rule="nonzero" stroke-width="1" stroke-linecap="butt"/><path d="M373.74963,-4.89915c0,1.15625 -0.63021,1.78646 -1.89062,1.89063h-11.78125c0.09375,2.1875 1.13021,3.67708 3.10938,4.46875c0.53125,0.17708 1.17188,0.26563 1.92188,0.26563c1.54167,0 3.14063,-0.58333 4.79688,-1.75c0.92708,-0.53125 1.73438,-0.46354 2.42188,0.20313c0.40625,0.4375 0.54167,0.86458 0.40625,1.28125c0,0.58333 -0.19271,1.04688 -0.57812,1.39063c-1.83333,1.82292 -4.24479,2.72396 -7.23437,2.70313c-2.75,0 -4.96875,-0.89583 -6.65625,-2.6875c-1.875,-1.84375 -2.8125,-4.26042 -2.8125,-7.25c0,-2.73958 0.76563,-5.01562 2.29688,-6.82812c1.64583,-2.04167 3.94271,-3.0625 6.89063,-3.0625c2.94792,0 5.21354,0.90625 6.79688,2.71875c1.47917,1.61458 2.25,3.83333 2.3125,6.65625zM369.34338,-6.53977c-0.05208,-0.875 -0.5,-1.77604 -1.34375,-2.70312c-0.76042,-0.80208 -1.88021,-1.20312 -3.35937,-1.20312c-1.22917,0 -2.28125,0.45833 -3.15625,1.375c-0.8125,0.94792 -1.24479,1.79167 -1.29687,2.53125z" fill="#000000" fill-rule="nonzero" stroke-width="1" stroke-linecap="butt"/><path d="M413.75765,-11.78977c0,-0.65625 0.23958,-1.17708 0.71875,-1.5625c0.47917,-0.39583 0.97396,-0.59375 1.48438,-0.59375c1.03125,0 1.68229,0.36458 1.95313,1.09375c0.06833,0.18396 0.10715,0.3782 0.11647,0.58272c0.32321,-0.38027 0.75834,-0.72034 1.30541,-1.02021c1.19792,-0.65625 2.38021,-0.98437 3.54688,-0.98437c1.17708,0 2.18229,0.15104 3.01563,0.45313c0.83333,0.29167 1.59896,0.75 2.29688,1.375c1.40625,1.33333 2.10938,3.25521 2.10938,5.76563v9.75c0,0.71875 -0.26042,1.25 -0.78125,1.59375c-0.51042,0.34375 -1.01562,0.51563 -1.51562,0.51563c-0.57292,0 -1.08854,-0.1875 -1.54687,-0.5625c-0.44792,-0.375 -0.67187,-0.89062 -0.67187,-1.54687v-9.9375c0,-1.20833 -0.3125,-2.11458 -0.9375,-2.71875c-0.58333,-0.57292 -1.3125,-0.85937 -2.1875,-0.85937c-1.27083,0 -2.34896,0.35938 -3.23437,1.07813c-0.84375,0.75 -1.26562,1.95313 -1.26562,3.60938v8.82813c0,0.71875 -0.25,1.25 -0.75,1.59375c-0.48958,0.34375 -1.00521,0.51563 -1.54687,0.51563c-0.58333,0 -1.08333,-0.19271 -1.5,-0.57812c-0.40625,-0.38542 -0.60937,-0.89583 -0.60937,-1.53125z" fill="#000000" fill-rule="nonzero" stroke-width="1" stroke-linecap="butt"/><path d="M461.33987,-10.44602c-2.09375,0 -3.11979,0.55729 -3.07812,1.67188c0,0.65625 0.5625,1.13542 1.6875,1.4375c0.51042,0.13542 1.0625,0.26563 1.65625,0.39063c0.59375,0.125 1.25,0.27604 1.96875,0.45313c0.72917,0.16667 1.46875,0.39583 2.21875,0.6875c1.1875,0.34375 2.11979,0.94792 2.79688,1.8125c0.67708,0.86458 1.01563,1.90104 1.01563,3.10938c0,2.13542 -0.90625,3.78646 -2.71875,4.95313c-1.54167,1.01042 -3.46875,1.50521 -5.78125,1.48438c-1.6875,0 -3.34896,-0.29687 -4.98437,-0.89062c-0.71875,-0.28125 -1.32812,-0.65104 -1.82812,-1.10937c-0.48958,-0.45833 -0.73437,-0.96354 -0.73437,-1.51562c0,-0.55208 0.1875,-0.99479 0.5625,-1.32812c0.375,-0.33333 0.78125,-0.5 1.21875,-0.5c0.4375,0 0.84896,0.08854 1.23438,0.26563c0.39583,0.16667 0.85938,0.33854 1.39063,0.51563c1.33333,0.48958 2.39063,0.73438 3.17188,0.73438c0.78125,0 1.39583,-0.04167 1.84375,-0.125c0.45833,-0.09375 0.85417,-0.23958 1.1875,-0.4375c0.65625,-0.4375 0.98438,-1 0.98438,-1.6875c0,-0.45833 -0.15104,-0.81771 -0.45312,-1.07812c-0.30208,-0.26042 -0.77083,-0.48437 -1.40625,-0.67187c-0.625,-0.19792 -1.27083,-0.36979 -1.9375,-0.51562c-0.65625,-0.15625 -1.33333,-0.3125 -2.03125,-0.46875c-0.6875,-0.15625 -1.36979,-0.34896 -2.04687,-0.57812c-0.66667,-0.23958 -1.25,-0.57292 -1.75,-1c-1.25,-0.875 -1.875,-2.13542 -1.875,-3.78125c0,-2.05208 0.86458,-3.53125 2.59375,-4.4375c1.30208,-0.8125 3.01563,-1.21875 5.14063,-1.21875c2.11458,0 3.83333,0.32292 5.15625,0.96875c1.3125,0.67708 1.96875,1.50521 1.96875,2.48438c0,0.52083 -0.19271,0.92708 -0.57812,1.21875c-0.375,0.29167 -0.78125,0.4375 -1.21875,0.4375c-0.625,0 -1.08333,-0.09375 -1.375,-0.28125c-0.29167,-0.19792 -0.55208,-0.35937 -0.78125,-0.48437c-0.21875,-0.125 -0.47396,-0.21354 -0.76562,-0.26562c-0.63542,-0.16667 -1.45312,-0.25 -2.45312,-0.25z" fill="#000000" fill-rule="nonzero" stroke-width="1" stroke-linecap="butt"/><path d="M345.56945,-10.44602c-2.09375,0 -3.11979,0.55729 -3.07812,1.67188c0,0.65625 0.5625,1.13542 1.6875,1.4375c0.51042,0.13542 1.0625,0.26563 1.65625,0.39063c0.59375,0.125 1.25,0.27604 1.96875,0.45313c0.72917,0.16667 1.46875,0.39583 2.21875,0.6875c1.1875,0.34375 2.11979,0.94792 2.79688,1.8125c0.67708,0.86458 1.01563,1.90104 1.01563,3.10938c0,2.13542 -0.90625,3.78646 -2.71875,4.95313c-1.54167,1.01042 -3.46875,1.50521 -5.78125,1.48438c-1.6875,0 -3.34896,-0.29687 -4.98437,-0.89062c-0.71875,-0.28125 -1.32812,-0.65104 -1.82812,-1.10937c-0.48958,-0.45833 -0.73437,-0.96354 -0.73437,-1.51562c0,-0.55208 0.1875,-0.99479 0.5625,-1.32812c0.375,-0.33333 0.78125,-0.5 1.21875,-0.5c0.4375,0 0.84896,0.08854 1.23438,0.26563c0.39583,0.16667 0.85938,0.33854 1.39063,0.51563c1.33333,0.48958 2.39063,0.73438 3.17188,0.73438c0.78125,0 1.39583,-0.04167 1.84375,-0.125c0.45833,-0.09375 0.85417,-0.23958 1.1875,-0.4375c0.65625,-0.4375 0.98438,-1 0.98438,-1.6875c0,-0.45833 -0.15104,-0.81771 -0.45312,-1.07812c-0.30208,-0.26042 -0.77083,-0.48437 -1.40625,-0.67187c-0.625,-0.19792 -1.27083,-0.36979 -1.9375,-0.51562c-0.65625,-0.15625 -1.33333,-0.3125 -2.03125,-0.46875c-0.6875,-0.15625 -1.36979,-0.34896 -2.04687,-0.57812c-0.66667,-0.23958 -1.25,-0.57292 -1.75,-1c-1.25,-0.875 -1.875,-2.13542 -1.875,-3.78125c0,-2.05208 0.86458,-3.53125 2.59375,-4.4375c1.30208,-0.8125 3.01563,-1.21875 5.14063,-1.21875c2.11458,0 3.83333,0.32292 5.15625,0.96875c1.3125,0.67708 1.96875,1.50521 1.96875,2.48438c0,0.52083 -0.19271,0.92708 -0.57812,1.21875c-0.375,0.29167 -0.78125,0.4375 -1.21875,0.4375c-0.625,0 -1.08333,-0.09375 -1.375,-0.28125c-0.29167,-0.19792 -0.55208,-0.35937 -0.78125,-0.48437c-0.21875,-0.125 -0.47396,-0.21354 -0.76562,-0.26562c-0.63542,-0.16667 -1.45312,-0.25 -2.45312,-0.25z" fill="#000000" fill-rule="nonzero" stroke-width="1" stroke-linecap="butt"/><path d="M375.22113,-4.38352c0,-2.75 0.78646,-5.04167 2.35938,-6.875c1.72917,-2.01042 3.97917,-3.01562 6.75,-3.01562c2.33333,0 4.14063,0.50521 5.42188,1.51563c0.55208,0.39583 0.82813,0.89063 0.82813,1.48438c0,0.58333 -0.17187,1.05729 -0.51562,1.42188c-0.33333,0.36458 -0.72917,0.54688 -1.1875,0.54688c-0.45833,0 -0.80729,-0.09375 -1.04687,-0.28125c-1.01042,-0.57292 -2.08854,-0.84896 -3.23437,-0.82812c-1.40625,0 -2.51042,0.52604 -3.3125,1.57813c-0.94792,1.14583 -1.42187,2.63021 -1.42187,4.45313c0,1.70833 0.34375,3.14063 1.03125,4.29688c0.75,1.20833 1.98438,1.8125 3.70313,1.8125c0.97917,0 2.19792,-0.34896 3.65625,-1.04687c0.80208,-0.46875 1.50521,-0.35417 2.10938,0.34375c0.33333,0.33333 0.5,0.78646 0.5,1.35938c0,0.5625 -0.27083,1.0625 -0.8125,1.5c-0.54167,0.4375 -1.13542,0.76042 -1.78125,0.96875c-1.42708,0.48958 -2.82812,0.72917 -4.20312,0.71875c-1.36458,-0.01042 -2.60937,-0.27083 -3.73437,-0.78125c-1.125,-0.52083 -2.0625,-1.27604 -2.8125,-2.26562c-1.53125,-1.83333 -2.29687,-4.13542 -2.29687,-6.90625z" fill="#000000" fill-rule="nonzero" stroke-width="1" stroke-linecap="butt"/><path d="M-201.8955,23.42809c0,-1.66667 0.24479,-3.35937 0.73438,-5.07812c0.48958,-1.71875 1.24479,-3.20312 2.26563,-4.45312c2.17708,-2.78125 5.27083,-4.17187 9.28125,-4.17187c2.27083,0 4.46354,0.49479 6.57813,1.48438c0.85417,0.34375 1.28125,0.95313 1.28125,1.82813c0,1.44792 -0.63542,2.19792 -1.90625,2.25c-0.23958,0 -0.46354,-0.02604 -0.67187,-0.07812c-2.05208,-0.71875 -3.65104,-1.07812 -4.79687,-1.07812c-1.14583,0 -2.08854,0.125 -2.82812,0.375c-0.73958,0.23958 -1.38021,0.57813 -1.92187,1.01563c-0.54167,0.42708 -1.00521,0.93229 -1.39062,1.51563c-0.38542,0.57292 -0.69271,1.22396 -0.92187,1.95313c-0.48958,1.39583 -0.73437,2.875 -0.73437,4.4375c0,2.52083 0.55208,4.63542 1.65625,6.34375c1.25,1.92708 3.19792,2.89063 5.84375,2.89063c1.875,0 3.70313,-0.51562 5.48438,-1.54687c0.375,-0.10417 0.75521,-0.15625 1.14063,-0.15625c0.38542,0 0.75521,0.19271 1.10938,0.57813c0.36458,0.375 0.54688,0.83854 0.54688,1.39063c0,0.55208 -0.17708,1.03125 -0.53125,1.4375c-0.34375,0.40625 -0.75521,0.73958 -1.23437,1c-0.46875,0.26042 -0.97396,0.48958 -1.51562,0.6875c-0.54167,0.19792 -1.09896,0.35938 -1.67187,0.48438c-1.22917,0.33333 -2.40104,0.5 -3.51562,0.5c-4.04167,0 -7.13542,-1.38021 -9.28125,-4.14062c-2,-2.4375 -3,-5.59375 -3,-9.46875zM-178.16645,27.14684c0,-1.1875 0.19271,-2.38021 0.57813,-3.57812c0.38542,-1.19792 0.97396,-2.28125 1.76562,-3.25c1.70833,-2.07292 4.09896,-3.10937 7.17188,-3.10937c3.08333,0 5.47396,1.04167 7.17188,3.125c1.5625,1.91667 2.34375,4.17188 2.34375,6.76563c0,2.61458 -0.78125,4.86979 -2.34375,6.76563c-1.69792,2.11458 -4.08854,3.17188 -7.17187,3.17188c-3.07292,0 -5.46354,-1.05208 -7.17187,-3.15625c-1.5625,-1.875 -2.34375,-4.11979 -2.34375,-6.73437zM-173.52583,27.14684c0,0.66667 0.08854,1.36979 0.26563,2.10938c0.1875,0.73958 0.51042,1.42188 0.96875,2.04688c0.88542,1.27083 2.09896,1.90625 3.64063,1.90625c1.63542,0 2.84375,-0.61979 3.625,-1.85937c0.80208,-1.27083 1.20313,-2.6875 1.20313,-4.25c0,-1.60417 -0.39583,-2.98437 -1.1875,-4.14062c-0.82292,-1.28125 -2.03646,-1.92187 -3.64062,-1.92187c-1.54167,0 -2.75521,0.65104 -3.64062,1.95313c-0.82292,1.11458 -1.23437,2.5 -1.23437,4.15625zM-156.59457,19.69371c0,-0.65625 0.23958,-1.17708 0.71875,-1.5625c0.47917,-0.39583 0.97396,-0.59375 1.48438,-0.59375c1.03125,0 1.68229,0.36458 1.95313,1.09375c0.27083,0.72917 0.07813,1.61979 -0.57812,2.67188c-0.07292,-1.30208 0.59375,-2.33854 2,-3.10937c1.19792,-0.65625 2.38021,-0.98437 3.54688,-0.98437c1.17708,0 2.18229,0.15104 3.01563,0.45313c0.83333,0.29167 1.59896,0.75 2.29688,1.375c1.40625,1.33333 2.10938,3.25521 2.10938,5.76563v9.75c0,0.71875 -0.26042,1.25 -0.78125,1.59375c-0.51042,0.34375 -1.01562,0.51563 -1.51562,0.51563c-0.57292,0 -1.08854,-0.1875 -1.54687,-0.5625c-0.44792,-0.375 -0.67187,-0.89062 -0.67187,-1.54687v-9.9375c0,-1.20833 -0.3125,-2.11458 -0.9375,-2.71875c-0.58333,-0.57292 -1.3125,-0.85937 -2.1875,-0.85937c-1.27083,0 -2.34896,0.35938 -3.23437,1.07813c-0.84375,0.75 -1.26562,1.95313 -1.26562,3.60938v8.82813c0,0.71875 -0.25,1.25 -0.75,1.59375c-0.48958,0.34375 -1.00521,0.51563 -1.54687,0.51563c-0.58333,0 -1.08333,-0.19271 -1.5,-0.57812c-0.40625,-0.38542 -0.60937,-0.89583 -0.60937,-1.53125zM-125.47491,34.81871c0,1.47917 -1.36458,2.21875 -4.09375,2.21875c-1.89583,0 -3.26562,-0.55729 -4.10937,-1.67187c-0.83333,-1.08333 -1.28646,-2.80729 -1.35937,-5.17187v-8.84375h-1.20312c-0.60417,0 -1.09375,-0.19792 -1.46875,-0.59375c-0.36458,-0.39583 -0.54687,-0.82812 -0.54687,-1.29687c0,-0.42708 0.15625,-0.85417 0.46875,-1.28125c0.32292,-0.42708 0.83854,-0.64062 1.54688,-0.64062h1.42188l0.14063,-4.21875c0.10417,-0.625 0.375,-1.09896 0.8125,-1.42187c0.44792,-0.32292 0.92188,-0.48437 1.42188,-0.48437c0.5,0 0.94271,0.17188 1.32813,0.51563c0.38542,0.33333 0.57813,0.82292 0.57813,1.46875v4.14063h2.34375c0.63542,0 1.125,0.21354 1.46875,0.64063c0.34375,0.41667 0.51563,0.84375 0.51563,1.28125c0,0.54167 -0.18229,0.99479 -0.54687,1.35938c-0.35417,0.35417 -0.83333,0.53125 -1.4375,0.53125h-2.34375v7.3125c0,2.17708 0.05208,3.43229 0.15625,3.76563c0.11458,0.32292 0.26042,0.53646 0.4375,0.64063c0.17708,0.09375 0.43229,0.14063 0.76563,0.14063l1.78125,-0.14062c0.625,0 1.09896,0.19792 1.42188,0.59375c0.33333,0.39583 0.5,0.78125 0.5,1.15625zM-119.04367,12.28746c0,0.73958 -0.25521,1.33854 -0.76562,1.79688c-0.5,0.45833 -1.16146,0.6875 -1.98437,0.6875c-0.82292,0 -1.48958,-0.22396 -2,-0.67187c-0.51042,-0.45833 -0.76562,-1.0625 -0.76562,-1.8125c0,-0.66667 0.25521,-1.22917 0.76563,-1.6875c0.51042,-0.46875 1.1875,-0.70312 2.03125,-0.70312c0.84375,0 1.50521,0.23438 1.98438,0.70313c0.48958,0.46875 0.73438,1.03125 0.73438,1.6875zM-123.99679,19.83434c0,-0.70833 0.23438,-1.26562 0.70313,-1.67187c0.47917,-0.41667 0.92708,-0.625 1.34375,-0.625c0.41667,0 0.75,0.0625 1,0.1875c0.25,0.125 0.46354,0.27083 0.64063,0.4375c0.54167,0.35417 0.8125,0.91146 0.8125,1.67188v14.625c0,0.73958 -0.24479,1.29167 -0.73437,1.65625c-0.48958,0.36458 -1.01042,0.54688 -1.5625,0.54688c-0.5625,0 -1.07292,-0.1875 -1.53125,-0.5625c-0.44792,-0.375 -0.67187,-0.92187 -0.67187,-1.64062zM-115.72091,19.69371c0,-0.65625 0.23958,-1.17708 0.71875,-1.5625c0.47917,-0.39583 0.97396,-0.59375 1.48438,-0.59375c1.03125,0 1.68229,0.36458 1.95313,1.09375c0.27083,0.72917 0.07813,1.61979 -0.57812,2.67188c-0.07292,-1.30208 0.59375,-2.33854 2,-3.10937c1.19792,-0.65625 2.38021,-0.98437 3.54688,-0.98437c1.17708,0 2.18229,0.15104 3.01563,0.45313c0.83333,0.29167 1.59896,0.75 2.29688,1.375c1.40625,1.33333 2.10938,3.25521 2.10938,5.76563v9.75c0,0.71875 -0.26042,1.25 -0.78125,1.59375c-0.51042,0.34375 -1.01562,0.51563 -1.51562,0.51563c-0.57292,0 -1.08854,-0.1875 -1.54687,-0.5625c-0.44792,-0.375 -0.67187,-0.89062 -0.67187,-1.54687v-9.9375c0,-1.20833 -0.3125,-2.11458 -0.9375,-2.71875c-0.58333,-0.57292 -1.3125,-0.85937 -2.1875,-0.85937c-1.27083,0 -2.34896,0.35938 -3.23437,1.07813c-0.84375,0.75 -1.26562,1.95313 -1.26562,3.60938v8.82813c0,0.71875 -0.25,1.25 -0.75,1.59375c-0.48958,0.34375 -1.00521,0.51563 -1.54687,0.51563c-0.58333,0 -1.08333,-0.19271 -1.5,-0.57812c-0.40625,-0.38542 -0.60937,-0.89583 -0.60937,-1.53125zM-78.89813,34.55309c0,0.71875 -0.26042,1.25 -0.78125,1.59375c-0.51042,0.34375 -0.94271,0.51563 -1.29687,0.51563c-0.34375,0 -0.66667,-0.03646 -0.96875,-0.10937c-0.30208,-0.08333 -0.54687,-0.23958 -0.73437,-0.46875c-0.48958,-0.33333 -0.73437,-0.84375 -0.73437,-1.53125h0.48438c-0.11458,1.04167 -1.28125,1.78646 -3.5,2.23438c-0.66667,0.16667 -1.39583,0.25 -2.1875,0.25c-0.78125,0 -1.60937,-0.14062 -2.48437,-0.42187c-0.875,-0.29167 -1.63021,-0.75521 -2.26562,-1.39062c-1.38542,-1.3125 -2.07812,-3.25521 -2.07812,-5.82812v-9.65625c0,-0.67708 0.22396,-1.21354 0.67188,-1.60937c0.44792,-0.39583 0.95833,-0.59375 1.53125,-0.59375c0.57292,0 1.08333,0.19792 1.53125,0.59375c0.44792,0.39583 0.67188,0.93229 0.67188,1.60938v9.89063c0,1.41667 0.25,2.36458 0.75,2.84375c0.52083,0.48958 1.34375,0.73438 2.46875,0.73438c1.91667,0 3.23438,-0.76562 3.95313,-2.29687c0.28125,-0.54167 0.43229,-1.16146 0.45313,-1.85937v-9.3125c0,-0.69792 0.23958,-1.23958 0.71875,-1.625c0.48958,-0.38542 1.02083,-0.57812 1.59375,-0.57812c0.57292,0 1.08333,0.19792 1.53125,0.59375c0.44792,0.39583 0.67188,0.93229 0.67188,1.60938zM-57.9816,26.58434c0,1.15625 -0.63021,1.78646 -1.89062,1.89063h-11.78125c0.09375,2.1875 1.13021,3.67708 3.10938,4.46875c0.53125,0.17708 1.17188,0.26563 1.92188,0.26563c1.54167,0 3.14063,-0.58333 4.79688,-1.75c0.92708,-0.53125 1.73438,-0.46354 2.42188,0.20313c0.40625,0.4375 0.54167,0.86458 0.40625,1.28125c0,0.58333 -0.19271,1.04688 -0.57812,1.39063c-1.83333,1.82292 -4.24479,2.72396 -7.23437,2.70313c-2.75,0 -4.96875,-0.89583 -6.65625,-2.6875c-1.875,-1.84375 -2.8125,-4.26042 -2.8125,-7.25c0,-2.73958 0.76563,-5.01562 2.29688,-6.82812c1.64583,-2.04167 3.94271,-3.0625 6.89063,-3.0625c2.94792,0 5.21354,0.90625 6.79688,2.71875c1.47917,1.61458 2.25,3.83333 2.3125,6.65625zM-62.38785,24.94371c-0.05208,-0.875 -0.5,-1.77604 -1.34375,-2.70312c-0.76042,-0.80208 -1.88021,-1.20312 -3.35937,-1.20312c-1.22917,0 -2.28125,0.45833 -3.15625,1.375c-0.8125,0.94792 -1.24479,1.79167 -1.29687,2.53125zM-41.87808,18.42809c0.27083,-0.8125 2.0625,-1.21875 5.375,-1.21875c2.73958,0 4.83854,1.05729 6.29688,3.17188c1.25,1.86458 1.875,4.13542 1.875,6.8125c0,2.76042 -0.66146,5.02083 -1.98437,6.78125c-1.48958,2.0625 -3.56771,3.08333 -6.23437,3.0625c-2.25,0 -4.09375,-0.6875 -5.53125,-2.0625c-0.5,-0.42708 -0.625,-0.77083 -0.375,-1.03125l0.51563,7.26563c0,0.73958 -0.24479,1.28646 -0.73437,1.64063c-0.48958,0.35417 -0.97917,0.53125 -1.46875,0.53125c-0.5625,0 -1.08854,-0.19271 -1.57812,-0.57812c-0.47917,-0.38542 -0.71875,-0.91667 -0.71875,-1.59375v-21.51562c0,-0.72917 0.22917,-1.27083 0.6875,-1.625c0.45833,-0.35417 1.04167,-0.53125 1.75,-0.53125c1.61458,0 2.32292,0.29688 2.125,0.89063zM-40.97183,22.72496c-0.36458,0.5 -0.61979,1.14063 -0.76562,1.92188c-0.13542,0.77083 -0.20312,1.59375 -0.20312,2.46875c0,0.86458 0.09896,1.66667 0.29688,2.40625c0.19792,0.72917 0.48438,1.39583 0.85938,2c0.80208,1.15625 1.98438,1.71875 3.54688,1.6875c1.46875,0 2.57813,-0.60417 3.32813,-1.8125c0.625,-1.05208 0.9375,-2.48437 0.9375,-4.29687c0,-2.78125 -0.74479,-4.63021 -2.23437,-5.54687c-0.51042,-0.32292 -1.20833,-0.48958 -2.09375,-0.5c-0.875,-0.01042 -1.61458,0.14063 -2.21875,0.45313c-0.60417,0.30208 -1.08854,0.70833 -1.45312,1.21875zM-25.7437,12.20934c0,-0.78125 0.24479,-1.34375 0.73438,-1.6875c0.48958,-0.35417 0.91146,-0.53125 1.26563,-0.53125c0.36458,0 0.67708,0.02604 0.9375,0.07813c0.27083,0.05208 0.52083,0.19271 0.75,0.42188c0.54167,0.34375 0.8125,0.91667 0.8125,1.71875v22.25c0,0.73958 -0.24479,1.29167 -0.73437,1.65625c-0.48958,0.36458 -1.01042,0.54688 -1.5625,0.54688c-0.5625,0 -1.07292,-0.1875 -1.53125,-0.5625c-0.44792,-0.375 -0.67187,-0.92187 -0.67187,-1.64062zM-8.37407,24.38121c0.65625,0 1.02604,0 1.10938,0v-0.59375c0,-1.83333 -1.05729,-2.75 -3.17187,-2.75c-1.09375,0 -1.86979,0.08854 -2.32812,0.26563c-0.9375,0.34375 -1.64062,0.66146 -2.10937,0.95313c-0.46875,0.28125 -0.92187,0.42188 -1.35937,0.42188c-0.42708,0 -0.83333,-0.16667 -1.21875,-0.5c-0.38542,-0.33333 -0.57812,-0.77604 -0.57812,-1.32812c0,-0.5 0.22917,-0.94792 0.6875,-1.34375c1.59375,-1.53125 3.91146,-2.29687 6.95313,-2.29687c3.61458,0 5.95313,1.26042 7.01563,3.78125c0.34375,0.875 0.51563,1.86979 0.51563,2.98438l-0.09375,10.625c0,0.66667 -0.22917,1.17708 -0.6875,1.53125c-0.45833,0.35417 -0.94271,0.53125 -1.45312,0.53125c-0.51042,0 -1,-0.15104 -1.46875,-0.45312c-0.46875,-0.3125 -0.70312,-0.83854 -0.70312,-1.57812h0.46875c-0.11458,0.97917 -1.25,1.69792 -3.40625,2.15625c-0.63542,0.16667 -1.35937,0.25 -2.17187,0.25c-0.8125,0 -1.63021,-0.125 -2.45312,-0.375c-0.8125,-0.23958 -1.53646,-0.625 -2.17187,-1.15625c-1.33333,-1.11458 -2,-2.61458 -2,-4.5c0,-4.41667 3.54167,-6.625 10.625,-6.625zM-7.07719,28.02184c-0.03125,0.125 -0.375,0.1875 -1.03125,0.1875c-0.65625,0 -1.30729,0.01042 -1.95312,0.03125c-0.64583,0.01042 -1.24479,0.07813 -1.79687,0.20313c-0.54167,0.11458 -1.02604,0.29167 -1.45312,0.53125c-0.77083,0.40625 -1.17708,1.07292 -1.21875,2c0,0.67708 0.28646,1.21354 0.85938,1.60938c0.47917,0.39583 1.19271,0.60417 2.14063,0.625c1.16667,0 2.17188,-0.36979 3.01563,-1.10937c0.75,-0.69792 1.16667,-1.78646 1.25,-3.26562zM5.67572,35.70934l-6.60937,-15.10937c-0.14583,-0.28125 -0.21875,-0.58333 -0.21875,-0.90625c0,-0.32292 0.08333,-0.63542 0.25,-0.9375c0.16667,-0.30208 0.36979,-0.52083 0.60938,-0.65625c0.44792,-0.28125 0.91667,-0.46875 1.40625,-0.5625c1.0625,0 1.80208,0.47396 2.21875,1.42188l4.71875,11.39063l4.65625,-11.39062c0.41667,-0.94792 0.98958,-1.42187 1.71875,-1.42187c0.73958,0 1.33854,0.20833 1.79688,0.625c0.45833,0.41667 0.6875,0.85417 0.6875,1.3125c0,0.45833 -0.0625,0.82292 -0.1875,1.09375l-8.82812,21.48438c-0.4375,0.9375 -1.125,1.40625 -2.0625,1.40625c-0.54167,0 -1.02083,-0.14583 -1.4375,-0.4375c-0.57292,-0.5 -0.85937,-1 -0.85937,-1.5c0,-0.5 0.08333,-0.84896 0.25,-1.04687zM23.80722,12.28746c0,0.73958 -0.25521,1.33854 -0.76562,1.79688c-0.5,0.45833 -1.16146,0.6875 -1.98437,0.6875c-0.82292,0 -1.48958,-0.22396 -2,-0.67187c-0.51042,-0.45833 -0.76562,-1.0625 -0.76562,-1.8125c0,-0.66667 0.25521,-1.22917 0.76563,-1.6875c0.51042,-0.46875 1.1875,-0.70312 2.03125,-0.70312c0.84375,0 1.50521,0.23438 1.98438,0.70313c0.48958,0.46875 0.73438,1.03125 0.73438,1.6875zM18.8541,19.83434c0,-0.70833 0.23438,-1.26562 0.70313,-1.67187c0.47917,-0.41667 0.92708,-0.625 1.34375,-0.625c0.41667,0 0.75,0.0625 1,0.1875c0.25,0.125 0.46354,0.27083 0.64063,0.4375c0.54167,0.35417 0.8125,0.91146 0.8125,1.67188v14.625c0,0.73958 -0.24479,1.29167 -0.73437,1.65625c-0.48958,0.36458 -1.01042,0.54688 -1.5625,0.54688c-0.5625,0 -1.07292,-0.1875 -1.53125,-0.5625c-0.44792,-0.375 -0.67187,-0.92187 -0.67187,-1.64062zM27.12998,19.69371c0,-0.65625 0.23958,-1.17708 0.71875,-1.5625c0.47917,-0.39583 0.97396,-0.59375 1.48438,-0.59375c1.03125,0 1.68229,0.36458 1.95313,1.09375c0.27083,0.72917 0.07813,1.61979 -0.57812,2.67188c-0.07292,-1.30208 0.59375,-2.33854 2,-3.10937c1.19792,-0.65625 2.38021,-0.98437 3.54688,-0.98437c1.17708,0 2.18229,0.15104 3.01563,0.45313c0.83333,0.29167 1.59896,0.75 2.29688,1.375c1.40625,1.33333 2.10938,3.25521 2.10938,5.76563v9.75c0,0.71875 -0.26042,1.25 -0.78125,1.59375c-0.51042,0.34375 -1.01562,0.51563 -1.51562,0.51563c-0.57292,0 -1.08854,-0.1875 -1.54687,-0.5625c-0.44792,-0.375 -0.67187,-0.89062 -0.67187,-1.54687v-9.9375c0,-1.20833 -0.3125,-2.11458 -0.9375,-2.71875c-0.58333,-0.57292 -1.3125,-0.85937 -2.1875,-0.85937c-1.27083,0 -2.34896,0.35938 -3.23437,1.07813c-0.84375,0.75 -1.26562,1.95313 -1.26562,3.60938v8.82813c0,0.71875 -0.25,1.25 -0.75,1.59375c-0.48958,0.34375 -1.00521,0.51563 -1.54687,0.51563c-0.58333,0 -1.08333,-0.19271 -1.5,-0.57812c-0.40625,-0.38542 -0.60937,-0.89583 -0.60937,-1.53125zM55.21839,21.06871c-2.88542,0 -4.32812,2.01042 -4.32812,6.03125c0,1.9375 0.46875,3.44271 1.40625,4.51563c0.77083,0.89583 1.76563,1.35417 2.98438,1.375c1.25,0 2.3125,-0.47917 3.1875,-1.4375c0.95833,-1.04167 1.4375,-2.49479 1.4375,-4.35937c0,-2.80208 -0.84375,-4.67708 -2.53125,-5.625c-0.55208,-0.33333 -1.27083,-0.5 -2.15625,-0.5zM54.48401,17.20934c3.33333,0 5.28646,0.78125 5.85938,2.34375l-0.34375,-0.07812c0.10417,-0.60417 0.35417,-1.07812 0.75,-1.42187c0.39583,-0.34375 0.86458,-0.51562 1.40625,-0.51562c0.55208,0 1.04688,0.19792 1.48438,0.59375c0.44792,0.39583 0.67188,0.91667 0.67188,1.5625v16.51563c0,2.65625 -0.86979,4.65104 -2.60937,5.98438c-1.52083,1.21875 -3.68229,1.82813 -6.48437,1.82813c-2.5,0 -4.41146,-0.45312 -5.73437,-1.35937c-1.14583,-0.83333 -1.71875,-1.60937 -1.71875,-2.32812c0,-0.53125 0.17708,-0.97917 0.53125,-1.34375c0.36458,-0.35417 0.77604,-0.53125 1.23438,-0.53125c0.45833,0 0.83333,0.09896 1.125,0.29688c0.30208,0.20833 0.60417,0.38021 0.90625,0.51563c0.3125,0.13542 0.63021,0.26042 0.95313,0.375c0.79167,0.28125 1.61458,0.42188 2.46875,0.42188c0.85417,0 1.58333,-0.06771 2.1875,-0.20312c0.60417,-0.13542 1.11458,-0.35937 1.53125,-0.67187c0.80208,-0.52083 1.20313,-1.45833 1.20313,-2.8125l0.125,-1.14062c-0.04167,0.26042 -1.15625,0.66667 -3.34375,1.21875c-0.6875,0.13542 -1.34896,0.20313 -1.98437,0.20313c-2.8125,0 -4.97396,-0.97917 -6.48437,-2.9375c-1.375,-1.70833 -2.0625,-3.88542 -2.0625,-6.53125c0,-2.79167 0.68229,-5.08333 2.04688,-6.875c1.47917,-2.07292 3.57292,-3.10937 6.28125,-3.10937zM76.36841,13.45934c-0.375,-0.26042 -0.79687,-0.43229 -1.26562,-0.51562c-0.46875,-0.09375 -1.17708,-0.14062 -2.125,-0.14062c-0.94792,0 -1.75521,0.08333 -2.42187,0.25c-0.65625,0.16667 -1.16667,0.25 -1.53125,0.25c-0.35417,0 -0.69792,-0.22917 -1.03125,-0.6875c-0.33333,-0.46875 -0.5,-0.95833 -0.5,-1.46875c0,-1.1875 0.54688,-1.89583 1.64063,-2.125c1.33333,-0.39583 2.79167,-0.59375 4.375,-0.59375c1.58333,0 2.84375,0.14583 3.78125,0.4375c0.9375,0.29167 1.77083,0.75 2.5,1.375c1.60417,1.36458 2.40625,3.22917 2.40625,5.59375c0,2.0625 -0.82812,3.95833 -2.48437,5.6875c-0.46875,0.46875 -0.94271,0.92708 -1.42187,1.375c-0.5625,0.625 -1.05729,1.11979 -1.48437,1.48438c-0.42708,0.36458 -0.73437,0.65625 -0.92187,0.875c-0.38542,0.44792 -0.57812,0.89583 -0.57812,1.34375v1.6875c0,0.70833 -0.22917,1.23958 -0.6875,1.59375c-0.45833,0.35417 -0.97917,0.53125 -1.5625,0.53125c-0.58333,0 -1.03646,-0.14583 -1.35937,-0.4375c-0.32292,-0.30208 -0.54687,-0.67187 -0.67187,-1.10937c-0.11458,-0.4375 -0.16667,-0.92187 -0.15625,-1.45312c0.02083,-0.54167 0.04688,-1.13021 0.07813,-1.76562c0.03125,-0.63542 0.23438,-1.26562 0.60938,-1.89062c0.375,-0.625 0.8125,-1.19271 1.3125,-1.70312c0.51042,-0.51042 1.03646,-1 1.57813,-1.46875c0.55208,-0.46875 1.0625,-0.94792 1.53125,-1.4375c0.95833,-1.125 1.4375,-2.15104 1.4375,-3.07812c0,-1.17708 -0.34896,-2.04687 -1.04687,-2.60937zM70.72779,35.28746c-0.13542,-0.32292 -0.20312,-0.64583 -0.20312,-0.96875c0,-0.33333 0.0625,-0.64062 0.1875,-0.92187c0.125,-0.29167 0.28125,-0.58333 0.46875,-0.875c0.59375,-0.48958 1.26563,-0.73437 2.01563,-0.73437c0.76042,0 1.33854,0.17708 1.73438,0.53125c0.40625,0.35417 0.67708,0.69271 0.8125,1.01563c0.13542,0.32292 0.20313,0.64583 0.20313,0.96875c0,0.32292 -0.07292,0.66146 -0.21875,1.01563c-0.13542,0.35417 -0.35417,0.625 -0.65625,0.8125c-0.55208,0.47917 -1.17708,0.71875 -1.875,0.71875c-0.78125,0 -1.35417,-0.18229 -1.71875,-0.54687c-0.36458,-0.36458 -0.61458,-0.70312 -0.75,-1.01562z" fill="#000000" fill-rule="nonzero" stroke-width="1" stroke-linecap="square"/><path d="M-189.47363,73.41246v8.90627c0,1.09375 -0.50521,1.82813 -1.51562,2.20313c-0.27083,0.09375 -0.63021,0.14063 -1.07812,0.14063c-0.4375,0 -0.92187,-0.1875 -1.45312,-0.5625c-0.52083,-0.38542 -0.78125,-0.97917 -0.78125,-1.78125v-8.85939l-7.98437,-12.10937c-0.26042,-0.32292 -0.39062,-0.67187 -0.39062,-1.04687c0,-0.38542 0.07292,-0.72396 0.21875,-1.01562c0.15625,-0.29167 0.375,-0.55208 0.65625,-0.78125c0.52083,-0.40625 1.05729,-0.60937 1.60938,-0.60937c1,0 1.72917,0.41146 2.1875,1.23438l6.375,11.51563h-0.04687l6.42188,-11.625c0.45833,-0.75 1.11979,-1.125 1.98438,-1.125c0.94792,0 1.61458,0.375 2,1.125c0.19792,0.27083 0.29688,0.57292 0.29688,0.90625c0,0.34375 -0.11458,0.70313 -0.34375,1.07813zM-161.61403,74.58434c0,1.15626 -0.63021,1.78647 -1.89062,1.89064h-11.78125c0.09375,2.1875 1.13021,3.67708 3.10938,4.46875c0.53125,0.17708 1.17188,0.26563 1.92188,0.26563c1.54167,0 3.14063,-0.58333 4.79688,-1.75c0.92708,-0.53125 1.73438,-0.46354 2.42188,0.20313c0.40625,0.4375 0.54167,0.86458 0.40625,1.28125c0,0.58333 -0.19271,1.04688 -0.57812,1.39063c-1.83333,1.82292 -4.24479,2.72396 -7.23437,2.70313c-2.75,0 -4.96875,-0.89583 -6.65625,-2.6875c-1.875,-1.84375 -2.8125,-4.26042 -2.8125,-7.25002c0,-2.73958 0.76563,-5.01562 2.29688,-6.82812c1.64583,-2.04167 3.9427,-3.0625 6.89062,-3.0625c2.94792,0 5.21354,0.90625 6.79688,2.71875c1.47917,1.61458 2.25,3.83333 2.3125,6.65625zM-166.02028,72.94371c-0.05208,-0.875 -0.5,-1.77604 -1.34375,-2.70312c-0.76042,-0.80208 -1.88021,-1.20312 -3.35937,-1.20312c-1.22917,0 -2.28125,0.45833 -3.15625,1.375c-0.8125,0.94792 -1.24479,1.79167 -1.29687,2.53125zM-151.95503,69.03746c-2.09375,0 -3.11979,0.55729 -3.07812,1.67188c0,0.65625 0.5625,1.13542 1.6875,1.4375c0.51042,0.13542 1.0625,0.26563 1.65625,0.39063c0.59375,0.125 1.25,0.27604 1.96875,0.45313c0.72917,0.16667 1.46875,0.39583 2.21875,0.6875c1.1875,0.34375 2.11979,0.94792 2.79688,1.8125c0.67708,0.86459 1.01563,1.90106 1.01563,3.10939c0,2.13542 -0.90625,3.78646 -2.71875,4.95313c-1.54167,1.01042 -3.46875,1.50521 -5.78125,1.48438c-1.6875,0 -3.34896,-0.29687 -4.98437,-0.89062c-0.71875,-0.28125 -1.32812,-0.65104 -1.82812,-1.10937c-0.48958,-0.45833 -0.73437,-0.96354 -0.73437,-1.51562c0,-0.55208 0.1875,-0.99479 0.5625,-1.32812c0.375,-0.33333 0.78125,-0.5 1.21875,-0.5c0.4375,0 0.84896,0.08854 1.23438,0.26563c0.39583,0.16667 0.85938,0.33854 1.39063,0.51563c1.33333,0.48958 2.39063,0.73438 3.17188,0.73438c0.78125,0 1.39583,-0.04167 1.84375,-0.125c0.45833,-0.09375 0.85417,-0.23958 1.1875,-0.4375c0.65625,-0.4375 0.98438,-1 0.98438,-1.6875c0,-0.45833 -0.15104,-0.81771 -0.45312,-1.07812c-0.30208,-0.26042 -0.77083,-0.48437 -1.40625,-0.67187c-0.625,-0.19792 -1.27083,-0.36979 -1.9375,-0.51562c-0.65625,-0.15625 -1.33333,-0.3125 -2.03125,-0.46875c-0.6875,-0.15626 -1.36979,-0.34897 -2.04687,-0.57814c-0.66667,-0.23958 -1.25,-0.57292 -1.75,-1c-1.25,-0.875 -1.875,-2.13542 -1.875,-3.78125c0,-2.05208 0.86458,-3.53125 2.59375,-4.4375c1.30208,-0.8125 3.01563,-1.21875 5.14063,-1.21875c2.11458,0 3.83333,0.32292 5.15625,0.96875c1.3125,0.67708 1.96875,1.50521 1.96875,2.48438c0,0.52083 -0.19271,0.92708 -0.57812,1.21875c-0.375,0.29167 -0.78125,0.4375 -1.21875,0.4375c-0.625,0 -1.08333,-0.09375 -1.375,-0.28125c-0.29167,-0.19792 -0.55208,-0.35937 -0.78125,-0.48437c-0.21875,-0.125 -0.47396,-0.21354 -0.76562,-0.26562c-0.63542,-0.16667 -1.45312,-0.25 -2.45312,-0.25zM-122.07332,60.80309c0,-0.82292 0.28125,-1.49479 0.84375,-2.01562c0.5,-0.5 1.07292,-0.79687 1.71875,-0.89062c1.17708,0 2.09896,0.45833 2.76563,1.375l11.82813,17.81252v-16.87501c0,-0.72917 0.17188,-1.26562 0.51563,-1.60937c0.52083,-0.46875 1.01563,-0.70312 1.48438,-0.70312c0.46875,0 0.84896,0.05208 1.14063,0.15625c0.30208,0.09375 0.53646,0.23438 0.70313,0.42188c0.55208,0.38542 0.80208,0.97396 0.75,1.76563v21.53126c0,1.28125 -0.60937,2.17708 -1.82812,2.6875c-0.32292,0.13542 -0.70833,0.20313 -1.15625,0.20313c-1,0 -1.86979,-0.45312 -2.60937,-1.35937l-11.51562,-17.53126v16.68751c0,0.69792 -0.22396,1.22396 -0.67187,1.57813c-0.52083,0.41667 -1.07812,0.625 -1.67187,0.625c-0.58333,0 -1.11458,-0.18229 -1.59375,-0.54687c-0.46875,-0.375 -0.70312,-0.92708 -0.70312,-1.65625zM-97.38467,75.14684c0,-1.1875 0.19271,-2.38021 0.57813,-3.57812c0.38542,-1.19792 0.97396,-2.28125 1.76563,-3.25c1.70833,-2.07292 4.09896,-3.10937 7.17188,-3.10937c3.08333,0 5.47396,1.04167 7.17188,3.125c1.5625,1.91667 2.34375,4.17188 2.34375,6.76563c0,2.61459 -0.78125,4.86981 -2.34375,6.76564c-1.69792,2.11458 -4.08854,3.17188 -7.17187,3.17188c-3.07292,0 -5.46354,-1.05208 -7.17187,-3.15625c-1.5625,-1.875 -2.34375,-4.1198 -2.34375,-6.73439zM-92.74405,75.14684c0,0.66668 0.08854,1.36981 0.26563,2.10939c0.1875,0.73958 0.51042,1.42188 0.96875,2.04688c0.88542,1.27083 2.09896,1.90625 3.64063,1.90625c1.63542,0 2.84375,-0.61979 3.625,-1.85937c0.80208,-1.27083 1.20313,-2.68751 1.20313,-4.25002c0,-1.60417 -0.39583,-2.98437 -1.1875,-4.14062c-0.82292,-1.28125 -2.03646,-1.92187 -3.64062,-1.92187c-1.54167,0 -2.75521,0.65104 -3.64062,1.95313c-0.82292,1.11458 -1.23437,2.5 -1.23437,4.15625z" fill="#000000" fill-rule="nonzero" stroke-width="1" stroke-linecap="square"/></g></g></svg>