<svg version="1.1" xmlns="http://www.w3.org/2000/svg" xmlns:xlink="http://www.w3.org/1999/xlink" width="44.44445" height="26.66667" viewBox="0,0,44.44445,26.66667"><g transform="translate(-338.5,-307.43334)"><g data-paper-data="{&quot;isPaintingLayer&quot;:true}" fill-rule="nonzero" stroke="none" stroke-linecap="butt" stroke-linejoin="miter" stroke-miterlimit="10" stroke-dasharray="" stroke-dashoffset="0" style="mix-blend-mode: normal"><path d="M338.5,328.50252c0,-5.1625 0,-12.45868 0,-15.40881c0,-2.4841 2.04932,-5.66037 5.03145,-5.66037c5.38628,0 24.06694,0 33.6478,0c3.4844,0 5.7652,3.07753 5.7652,5.97484c0,2.99133 0,10.05356 0,15.09434c0,3.20814 -2.80579,5.59749 -5.45074,5.59749c-5.25907,0 -24.24869,0 -33.6478,0c-3.24426,0 -5.34591,-2.38586 -5.34591,-5.59749z" fill="#ffffff" stroke-width="0"/><path d="M348.748,315.6284c0,-0.44651 0.1526,-0.81106 0.45781,-1.09366c0.2713,-0.2713 0.58216,-0.43238 0.93258,-0.48325c0.63868,0 1.13888,0.24869 1.50061,0.74607l6.41786,9.66495v-9.15627c0,-0.39564 0.09326,-0.68672 0.27977,-0.87324c0.2826,-0.25434 0.55107,-0.38151 0.80541,-0.38151c0.25434,0 0.46064,0.02826 0.6189,0.08478c0.16391,0.05087 0.29108,0.12717 0.38151,0.22891c0.29956,0.20912 0.43521,0.52846 0.40694,0.95802v11.68272c0,0.6952 -0.33064,1.18127 -0.99193,1.45822c-0.17521,0.07348 -0.38434,0.11021 -0.62737,0.11021c-0.54259,0 -1.01454,-0.24586 -1.41583,-0.73759l-6.2483,-9.51234v9.05453c0,0.37868 -0.12152,0.66411 -0.36455,0.85628c-0.2826,0.22608 -0.58498,0.33912 -0.90715,0.33912c-0.31651,0 -0.60477,-0.09891 -0.86476,-0.29673c-0.25434,-0.20347 -0.38151,-0.50303 -0.38151,-0.89867z" fill="#404040" stroke-width="1"/><path d="M362.14389,323.41122c0,-0.64433 0.10456,-1.29149 0.31369,-1.94147c0.20912,-0.64998 0.52846,-1.23779 0.95802,-1.76343c0.92693,-1.12475 2.22407,-1.68713 3.89141,-1.68713c1.673,0 2.97013,0.5652 3.89141,1.6956c0.8478,1.03997 1.2717,2.26363 1.2717,3.67098c0,1.41866 -0.4239,2.64232 -1.2717,3.67099c-0.92128,1.14736 -2.21841,1.72104 -3.89141,1.72104c-1.66734,0 -2.96448,-0.57085 -3.89141,-1.71256c-0.8478,-1.01736 -1.2717,-2.23537 -1.2717,-3.65403zM364.66186,323.41122c0,0.36173 0.04804,0.74325 0.14413,1.14454c0.10174,0.40129 0.27695,0.7715 0.52564,1.11062c0.48042,0.68955 1.13888,1.03432 1.97538,1.03432c0.88736,0 1.543,-0.33629 1.9669,-1.00888c0.43521,-0.68955 0.65281,-1.45822 0.65281,-2.30603c0,-0.87041 -0.21478,-1.6193 -0.64433,-2.24667c-0.44651,-0.6952 -1.10497,-1.0428 -1.97538,-1.0428c-0.8365,0 -1.49496,0.35325 -1.97538,1.05975c-0.44651,0.60477 -0.66976,1.35648 -0.66976,2.25515z" fill="#404040" stroke-width="1"/></g></g></svg>