<svg version="1.1" xmlns="http://www.w3.org/2000/svg" xmlns:xlink="http://www.w3.org/1999/xlink" width="3166.85729" height="993.51291" viewBox="0,0,3166.85729,993.51291"><defs><linearGradient x1="-1102.23878" y1="163.16294" x2="-1102.23878" y2="447.76616" gradientUnits="userSpaceOnUse" id="color-1"><stop offset="0" stop-color="#004ed2"/><stop offset="1" stop-color="#00348e"/></linearGradient><linearGradient x1="-1097.23878" y1="168.16294" x2="-1097.23878" y2="452.76616" gradientUnits="userSpaceOnUse" id="color-2"><stop offset="0" stop-color="#004ed2"/><stop offset="1" stop-color="#00348e"/></linearGradient><linearGradient x1="509.54801" y1="140.14492" x2="509.54801" y2="424.74814" gradientUnits="userSpaceOnUse" id="color-3"><stop offset="0" stop-color="#004ed2"/><stop offset="1" stop-color="#00348e"/></linearGradient><linearGradient x1="514.54801" y1="145.14492" x2="514.54801" y2="429.74814" gradientUnits="userSpaceOnUse" id="color-4"><stop offset="0" stop-color="#004ed2"/><stop offset="1" stop-color="#00348e"/></linearGradient><linearGradient x1="1183.49696" y1="140.64042" x2="1183.49696" y2="425.24364" gradientUnits="userSpaceOnUse" id="color-5"><stop offset="0" stop-color="#004ed2"/><stop offset="1" stop-color="#00348e"/></linearGradient><linearGradient x1="1185.49395" y1="145.64042" x2="1185.49395" y2="430.24364" gradientUnits="userSpaceOnUse" id="color-6"><stop offset="0" stop-color="#004ed2"/><stop offset="1" stop-color="#00348e"/></linearGradient><linearGradient x1="-264.62617" y1="141.13591" x2="-264.62617" y2="425.73913" gradientUnits="userSpaceOnUse" id="color-7"><stop offset="0" stop-color="#004ed2"/><stop offset="1" stop-color="#00348e"/></linearGradient><linearGradient x1="-262.62917" y1="146.13591" x2="-262.62917" y2="430.73913" gradientUnits="userSpaceOnUse" id="color-8"><stop offset="0" stop-color="#004ed2"/><stop offset="1" stop-color="#00348e"/></linearGradient></defs><g transform="translate(1542.25332,-27.62762)"><g data-paper-data="{&quot;isPaintingLayer&quot;:true}" fill-rule="nonzero" stroke="none" stroke-width="0" stroke-linecap="butt" stroke-linejoin="miter" stroke-miterlimit="10" stroke-dasharray="" stroke-dashoffset="0" style="mix-blend-mode: normal"><g><path d="M-1542.25331,382.32432v-234c0,0 61.9006,1 119.75728,1c36.67906,0 103.69473,-2.06458 183.2603,-2.16091c41.57407,-0.05033 84.75999,3.95405 130.64942,3.99525c51.39707,0.04614 102.20159,-3.09686 152.42574,-3.33997c62.72093,-0.3036 121.99714,1.71651 170.55242,1.84996c72.85628,0.20024 121.57489,-1.34433 121.57489,-1.34433v234z" fill="#0043b7"/><path d="M-1541.34879,447.76616v-283.19767c0,0 61.9006,1.21024 119.75728,1.21024c36.67906,0 103.69473,-2.49865 183.2603,-2.61523c41.57407,-0.06091 84.75999,4.78537 130.64942,4.83523c51.39707,0.05586 102.20159,-3.74796 152.42574,-4.04217c62.72093,-0.36743 121.99714,2.0774 170.5524,2.2389c72.85626,0.24234 121.57491,-1.62697 121.57491,-1.62697v283.19767z" fill="url(#color-1)"/></g><path d="M-1537.25331,387.32432v-234c0,0 61.9006,1 119.75728,1c36.67906,0 103.69473,-2.06458 183.2603,-2.16091c41.57407,-0.05033 84.75999,3.95405 130.64942,3.99525c51.39707,0.04614 102.20159,-3.09686 152.42574,-3.33997c62.72093,-0.3036 121.99714,1.71651 170.55242,1.84996c72.85628,0.20024 121.57489,-1.34433 121.57489,-1.34433v234z" fill="#0043b7"/><path d="M-1536.34879,452.76616v-283.19767c0,0 61.9006,1.21024 119.75728,1.21024c36.67906,0 103.69473,-2.49865 183.2603,-2.61523c41.57407,-0.06091 84.75999,4.78537 130.64942,4.83523c51.39707,0.05586 102.20159,-3.74796 152.42574,-4.04217c62.72093,-0.36743 121.99714,2.0774 170.5524,2.2389c72.85626,0.24234 121.57491,-1.62697 121.57491,-1.62697v283.19767z" fill="url(#color-2)"/><g><path d="M-56.93693,1021.14053v-606.60661h961.74174v606.60661z" fill="#00358f"/><g><path d="M69.53346,359.3063v-220.48648c0,0 61.9006,-12.51351 119.75728,-12.51351c36.67906,0 103.69473,-2.06458 183.2603,-2.16091c41.57407,-0.05033 84.75999,3.95405 130.64942,3.99525c51.39707,0.04614 102.20159,-3.09686 152.42574,-3.33997c62.72093,-0.3036 121.99714,1.71651 170.55242,1.84996c72.85628,0.20024 121.57489,-1.34433 121.57489,-1.34433v234z" fill="#0043b7"/><path d="M70.43797,424.74814v-283.19767c0,0 61.9006,1.21024 119.75728,1.21024c36.67906,0 103.69473,-2.49865 183.2603,-2.61523c41.57407,-0.06091 84.75999,4.78537 130.64942,4.83523c51.39707,0.05586 102.20159,-3.74796 152.42574,-4.04217c62.72093,-0.36743 121.99714,2.0774 170.5524,2.2389c72.85626,0.24234 121.57491,-1.62697 121.57491,-1.62697v283.19767z" fill="url(#color-3)"/></g><path d="M74.53346,364.3063v-234c0,0 61.9006,1 119.75728,1c36.67906,0 103.69473,-2.06458 183.2603,-2.16091c41.57407,-0.05033 84.75999,3.95405 130.64942,3.99525c51.39707,0.04614 102.20159,-3.09686 152.42574,-3.33997c62.72093,-0.3036 121.99714,1.71651 170.55242,1.84996c72.85628,0.20024 121.57489,-1.34433 121.57489,-1.34433v234z" fill="#0043b7"/><path d="M75.43797,429.74814v-283.19767c0,0 61.9006,1.21024 119.75728,1.21024c36.67906,0 103.69473,-2.49865 183.2603,-2.61523c41.57407,-0.06091 84.75999,4.78537 130.64942,4.83523c51.39707,0.05586 102.20159,-3.74796 152.42574,-4.04217c62.72093,-0.36743 121.99714,2.0774 170.5524,2.2389c72.85626,0.24234 121.57491,-1.62697 121.57491,-1.62697v283.19767z" fill="url(#color-4)"/><g><path d="M743.48242,359.8018v-234c0,0 61.9006,1 119.75728,1c36.67906,0 103.69473,-2.06458 183.2603,-2.16091c41.57407,-0.05033 84.75999,3.95405 130.64942,3.99525c51.39707,0.04614 102.20159,-3.09686 152.42574,-3.33997c62.72093,-0.3036 121.99714,1.71651 170.55242,1.84996c72.85628,0.20024 121.57489,-1.34433 121.57489,-1.34433v234z" fill="#0043b7"/><path d="M744.38694,425.24364v-283.19767c0,0 61.9006,1.21024 119.75728,1.21024c36.67906,0 103.69473,-2.49865 183.2603,-2.61523c41.57407,-0.06091 84.75999,4.78537 130.64942,4.83523c51.39707,0.05586 102.20159,-3.74796 152.42574,-4.04217c62.72093,-0.36743 121.99714,2.0774 170.5524,2.2389c72.85626,0.24234 121.57491,-1.62697 121.57491,-1.62697v283.19767z" fill="url(#color-5)"/></g><path d="M745.47941,364.8018v-234c0,0 61.9006,1 119.75728,1c36.67906,0 103.69473,-2.06458 183.2603,-2.16091c41.57407,-0.05033 84.75999,3.95405 130.64942,3.99525c51.39707,0.04614 102.20159,-3.09686 152.42574,-3.33997c62.72093,-0.3036 121.99714,1.71651 170.55242,1.84996c72.85628,0.20024 121.57489,-1.34433 121.57489,-1.34433v234z" fill="#0043b7"/><path d="M746.38393,430.24364v-283.19767c0,0 61.9006,1.21024 119.75728,1.21024c36.67906,0 103.69473,-2.49865 183.2603,-2.61523c41.57407,-0.06091 84.75999,4.78537 130.64942,4.83523c51.39707,0.05586 102.20159,-3.74796 152.42574,-4.04217c62.72093,-0.36743 121.99714,2.0774 170.5524,2.2389c72.85626,0.24234 121.57491,-1.62697 121.57491,-1.62697v283.19767z" fill="url(#color-6)"/><g><path d="M-704.64071,360.29729v-234c0,0 61.9006,1 119.75728,1c36.67906,0 103.69473,-2.06458 183.2603,-2.16091c41.57407,-0.05033 84.75999,3.95405 130.64942,3.99525c51.39707,0.04614 102.20159,-3.09686 152.42574,-3.33997c62.72093,-0.3036 121.99714,1.71651 170.55242,1.84996c72.85628,0.20024 121.57489,-1.34433 121.57489,-1.34433v234z" fill="#0043b7"/><path d="M-703.73619,425.73913v-283.19767c0,0 61.9006,1.21024 119.75728,1.21024c36.67906,0 103.69473,-2.49865 183.2603,-2.61523c41.57407,-0.06091 84.75999,4.78537 130.64942,4.83523c51.39707,0.05586 102.20159,-3.74796 152.42574,-4.04217c62.72093,-0.36743 121.99714,2.0774 170.5524,2.2389c72.85626,0.24234 121.57491,-1.62697 121.57491,-1.62697v283.19767z" fill="url(#color-7)"/></g><path d="M-702.64372,365.29729v-234c0,0 61.9006,1 119.75728,1c36.67906,0 103.69473,-2.06458 183.2603,-2.16091c41.57407,-0.05033 84.75999,3.95405 130.64942,3.99525c51.39707,0.04614 102.20159,-3.09686 152.42574,-3.33997c62.72093,-0.3036 121.99714,1.71651 170.55242,1.84996c72.85628,0.20024 121.57489,-1.34433 121.57489,-1.34433v234z" fill="#0043b7"/><path d="M-701.7392,430.73913v-283.19767c0,0 61.9006,1.21024 119.75728,1.21024c36.67906,0 103.69473,-2.49865 183.2603,-2.61523c41.57407,-0.06091 84.75999,4.78537 130.64942,4.83523c51.39707,0.05586 102.20159,-3.74796 152.42574,-4.04217c62.72093,-0.36743 121.99714,2.0774 170.5524,2.2389c72.85626,0.24234 121.57491,-1.62697 121.57491,-1.62697v283.19767z" fill="url(#color-8)"/></g><path d="M437.44746,122.97296c0,42.7067 -85.71125,77.32733 -191.44144,77.32733c-105.73019,0 -191.44144,-34.62062 -191.44144,-77.32733c0,-42.7067 85.71125,-77.32733 191.44144,-77.32733c105.73019,0 191.44144,34.62062 191.44144,77.32733z" fill="none"/><path d="M-29.51951,27.62762v0v0v0z" fill="none"/></g></g></svg>