<svg version="1.1" xmlns="http://www.w3.org/2000/svg" xmlns:xlink="http://www.w3.org/1999/xlink" width="406.60976" height="337.52743" viewBox="0,0,406.60976,337.52743"><defs><linearGradient x1="326.02693" y1="17.61285" x2="326.02693" y2="143.89976" gradientUnits="userSpaceOnUse" id="color-1"><stop offset="0" stop-color="#c0ccaa" stop-opacity="0"/><stop offset="1" stop-color="#c0ccaa"/></linearGradient><linearGradient x1="298.19529" y1="16.23542" x2="298.19529" y2="155.29761" gradientUnits="userSpaceOnUse" id="color-2"><stop offset="0" stop-color="#c0ccaa" stop-opacity="0"/><stop offset="1" stop-color="#c0ccaa"/></linearGradient><linearGradient x1="275.28694" y1="11.23628" x2="275.28694" y2="154.48836" gradientUnits="userSpaceOnUse" id="color-3"><stop offset="0" stop-color="#b8cd91" stop-opacity="0"/><stop offset="1" stop-color="#b8cd91"/></linearGradient><linearGradient x1="295.52094" y1="26.91627" x2="295.52094" y2="162.91627" gradientUnits="userSpaceOnUse" id="color-4"><stop offset="0" stop-color="#c0ccaa" stop-opacity="0"/><stop offset="1" stop-color="#c0ccaa"/></linearGradient><linearGradient x1="291.49624" y1="145.09786" x2="291.49624" y2="332.9675" gradientUnits="userSpaceOnUse" id="color-5"><stop offset="0" stop-color="#7e7463"/><stop offset="1" stop-color="#847c6b"/></linearGradient><linearGradient x1="273.67846" y1="162.96567" x2="273.67846" y2="335.63234" gradientUnits="userSpaceOnUse" id="color-6"><stop offset="0" stop-color="#736c5d"/><stop offset="1" stop-color="#736c5d" stop-opacity="0"/></linearGradient><linearGradient x1="357.34513" y1="162.96568" x2="357.34513" y2="335.63234" gradientUnits="userSpaceOnUse" id="color-7"><stop offset="0" stop-color="#736c5d"/><stop offset="1" stop-color="#736c5d" stop-opacity="0"/></linearGradient><linearGradient x1="291.88331" y1="159.7997" x2="291.88331" y2="192.86675" gradientUnits="userSpaceOnUse" id="color-8"><stop offset="0" stop-color="#454037"/><stop offset="1" stop-color="#454037" stop-opacity="0"/></linearGradient><linearGradient x1="123.32804" y1="145.09787" x2="123.32804" y2="332.96751" gradientUnits="userSpaceOnUse" id="color-9"><stop offset="0" stop-color="#7e7463"/><stop offset="1" stop-color="#847c6b"/></linearGradient><linearGradient x1="105.51029" y1="168.97169" x2="105.51029" y2="341.63836" gradientUnits="userSpaceOnUse" id="color-10"><stop offset="0" stop-color="#736c5d"/><stop offset="1" stop-color="#736c5d" stop-opacity="0"/></linearGradient><linearGradient x1="189.17696" y1="168.9717" x2="189.17696" y2="341.63836" gradientUnits="userSpaceOnUse" id="color-11"><stop offset="0" stop-color="#736c5d"/><stop offset="1" stop-color="#736c5d" stop-opacity="0"/></linearGradient><linearGradient x1="123.71513" y1="159.79971" x2="123.71513" y2="192.86676" gradientUnits="userSpaceOnUse" id="color-12"><stop offset="0" stop-color="#454037"/><stop offset="1" stop-color="#454037" stop-opacity="0"/></linearGradient><linearGradient x1="126.99972" y1="143.52638" x2="126.99972" y2="165.52636" gradientUnits="userSpaceOnUse" id="color-13"><stop offset="0" stop-color="#95bd86"/><stop offset="1" stop-color="#80a374"/></linearGradient><linearGradient x1="295.16789" y1="143.52637" x2="295.16789" y2="165.52635" gradientUnits="userSpaceOnUse" id="color-14"><stop offset="0" stop-color="#95bd86"/><stop offset="1" stop-color="#80a374"/></linearGradient></defs><g transform="translate(-36.69511,-11.23629)"><g data-paper-data="{&quot;isPaintingLayer&quot;:true}" fill-rule="nonzero" stroke="none" stroke-width="0" stroke-linecap="butt" stroke-linejoin="miter" stroke-miterlimit="10" stroke-dasharray="" stroke-dashoffset="0" style="mix-blend-mode: normal"><path d="M304.50795,143.89976v-126.28691c6.41027,0.97633 12.89714,1.77184 19.21079,2.58218c7.90115,1.01409 15.85378,1.2526 23.82719,1.1755v122.52923z" fill="url(#color-1)"/><path d="M251.8814,139.31005l44.40837,-123.07463c9.0099,1.67142 18.39669,2.80033 27.42899,3.9596c6.89773,0.88531 13.83471,1.17952 20.79049,1.18867l-48.31946,133.91392z" fill="url(#color-2)"/><path d="M278.16379,154.48836l-46.79141,-129.67904l37.56654,-13.55494c1.32514,-0.03572 2.64716,-0.02729 3.96125,0.10582l46.30131,128.32075z" data-paper-data="{&quot;index&quot;:null}" fill="url(#color-3)"/><path d="M274.00196,162.91627v-136h43.03798v136z" fill="url(#color-4)"/><path d="M256.95458,348.76371c-10.24916,0 -47.2491,0 -47.2491,0c0,0 -15,-67.25025 -15,-83.54636c0,-44.94346 0,-203.10229 0,-203.10229h73.24024c0,0 0,180.40925 0,230.7337c0,24.07993 -6.04788,55.91494 -10.99114,55.91494z" fill="#8e7e5e"/><path d="M256.10977,348.76361c-10.91664,0 -39.29508,0 -47.65519,0c-6.05307,0 -13.74911,-16.6206 -13.74911,-65.96267c0,-51.45182 0,-220.68596 0,-220.68596h65.73274c0,0 0,255.74979 0,280.2595c0,3.70065 -1.63124,6.38913 -4.32844,6.38913z" fill="#ac976e"/><path d="M215.30211,332.9675c0,0 1.73282,-148.89137 1.73282,-160.40288c0,-2.39881 -0.02418,-7.46553 -0.03541,-12.66598c-0.01324,-6.13337 -0.00846,-12.45274 0.07528,-14.80077h197.7833v187.86963z" data-paper-data="{&quot;index&quot;:null}" fill="url(#color-5)"/><path d="M252.17854,335.63234v-172.66667h43v172.66667z" data-paper-data="{&quot;index&quot;:null}" fill="url(#color-6)"/><path d="M335.84513,335.63234v-172.66667h43v172.66667z" data-paper-data="{&quot;index&quot;:null}" fill="url(#color-7)"/><path d="M217.03492,192.86676c0,-6.76737 0,-13.53474 0,-20.30211c0,-4.35154 2.12533,-8.68456 1.03328,-12.7895l182.24949,-0.09417c0,0 14.95657,5.6956 14.95657,7.26319c0,4.86621 -0.09279,25.92258 -0.09279,25.92258z" data-paper-data="{&quot;index&quot;:null}" fill="url(#color-8)"/><path d="M217.06802,145.28348c0.17764,-4.7066 0.0547,-9.10649 0.0547,-11.11086c0.17567,-0.52622 0.30827,-1.07173 0.39367,-1.63249c65.47364,0 198.14379,0 198.14379,0l-0.20093,12.74334z" data-paper-data="{&quot;index&quot;:null}" fill="#94bc85"/><path d="M47.13394,332.96751c0,0 1.73282,-148.89137 1.73282,-160.40288c0,-2.39881 -0.02418,-7.46553 -0.03541,-12.66598c-0.01324,-6.13337 -0.00846,-12.45274 0.07528,-14.80077h197.7833v187.86963z" data-paper-data="{&quot;index&quot;:null}" fill="url(#color-9)"/><path d="M84.01036,341.63836v-172.66667h43v172.66667z" data-paper-data="{&quot;index&quot;:null}" fill="url(#color-10)"/><path d="M167.67699,341.63836v-172.66667h43v172.66667z" data-paper-data="{&quot;index&quot;:null}" fill="url(#color-11)"/><path d="M48.86675,192.86677c0,-6.76737 0,-13.53474 0,-20.30211c0,-4.35154 2.12533,-8.68456 1.03328,-12.7895l182.24949,-0.09417c0,0 14.95657,5.6956 14.95657,7.26319c0,4.86621 -0.09279,25.92258 -0.09279,25.92258z" data-paper-data="{&quot;index&quot;:null}" fill="url(#color-12)"/><path d="M247.00821,178.91182c0,0 -11.01279,0 -16.6959,0c-15.57515,0 -59.2952,0 -104.53334,0c-26.98029,0 -54.50056,0 -76.91217,0c0,-2.11572 0,-4.23144 0,-6.34716c0,-5.22796 0.04893,-16.69466 0.04893,-16.69466l198.05146,-0.41477z" data-paper-data="{&quot;index&quot;:null}" fill="#80a374"/><path d="M48.89984,145.28349c0.17764,-4.7066 0.0547,-9.10649 0.0547,-11.11086c0.17567,-0.52622 0.30827,-1.07173 0.39367,-1.63249c65.47364,0 198.14379,0 198.14379,0l-0.20093,12.74334z" data-paper-data="{&quot;index&quot;:null}" fill="#94bc85"/><path d="M48.95079,165.52636c-0.00462,-0.2091 -0.01229,-4.19665 -0.01611,-8.72894c-0.0003,-0.35262 -0.00057,-0.70855 -0.00082,-1.06625c-0.00377,-5.46171 -0.00133,-11.33715 0.01892,-12.20481c66.61913,0 198.10709,0 198.10709,0l-0.05947,22z" data-paper-data="{&quot;index&quot;:null}" fill="url(#color-13)"/><path d="M36.69511,339.26888v-274.77477h160.66066v274.77477z" fill="#817968"/><path d="M415.17638,178.91181c0,0 -11.01279,0 -16.6959,0c-15.57515,0 -59.2952,0 -104.53334,0c-26.98029,0 -54.50056,0 -76.91217,0c0,-2.11572 0,-4.23144 0,-6.34716c0,-5.22796 0.04893,-16.69466 0.04893,-16.69466l198.05146,-0.41477z" data-paper-data="{&quot;index&quot;:null}" fill="#80a374"/><path d="M217.11897,165.52635c-0.00462,-0.2091 -0.01229,-4.19665 -0.01611,-8.72894c-0.0003,-0.35262 -0.00057,-0.70855 -0.00082,-1.06625c-0.00377,-5.46171 -0.00133,-11.33715 0.01892,-12.20481c66.61913,0 198.10709,0 198.10709,0l-0.05947,22z" data-paper-data="{&quot;index&quot;:null}" fill="url(#color-14)"/><path d="M443.30487,158.79018c0,79.20074 -52.13625,143.40562 -116.44962,143.40562c-64.31336,0 -116.44963,-64.20488 -116.44963,-143.40562c0,-79.20074 52.13626,-143.40563 116.44963,-143.40563c64.31336,0 116.44962,64.20489 116.44962,143.40563z" fill="none"/></g></g></svg>