<svg version="1.1" xmlns="http://www.w3.org/2000/svg" xmlns:xlink="http://www.w3.org/1999/xlink" width="578.26918" height="595.60713" viewBox="0,0,578.26918,595.60713"><defs><linearGradient x1="28.8904" y1="128.35799" x2="28.8904" y2="142.11122" gradientUnits="userSpaceOnUse" id="color-1"><stop offset="0" stop-color="#ecd284"/><stop offset="1" stop-color="#c5af6e"/></linearGradient><linearGradient x1="12.5503" y1="274.39368" x2="12.5503" y2="462.26338" gradientUnits="userSpaceOnUse" id="color-2"><stop offset="0" stop-color="#7e7463"/><stop offset="1" stop-color="#847c6b"/></linearGradient><linearGradient x1="-5.26748" y1="292.26152" x2="-5.26748" y2="464.92822" gradientUnits="userSpaceOnUse" id="color-3"><stop offset="0" stop-color="#736c5d"/><stop offset="1" stop-color="#736c5d" stop-opacity="0"/></linearGradient><linearGradient x1="78.39919" y1="292.26152" x2="78.39919" y2="464.92822" gradientUnits="userSpaceOnUse" id="color-4"><stop offset="0" stop-color="#736c5d"/><stop offset="1" stop-color="#736c5d" stop-opacity="0"/></linearGradient><linearGradient x1="12.93737" y1="289.09551" x2="12.93737" y2="322.16256" gradientUnits="userSpaceOnUse" id="color-5"><stop offset="0" stop-color="#454037"/><stop offset="1" stop-color="#454037" stop-opacity="0"/></linearGradient><linearGradient x1="-155.6179" y1="274.39368" x2="-155.6179" y2="462.26339" gradientUnits="userSpaceOnUse" id="color-6"><stop offset="0" stop-color="#7e7463"/><stop offset="1" stop-color="#847c6b"/></linearGradient><linearGradient x1="-89.76898" y1="298.26752" x2="-89.76898" y2="470.93423" gradientUnits="userSpaceOnUse" id="color-7"><stop offset="0" stop-color="#736c5d"/><stop offset="1" stop-color="#736c5d" stop-opacity="0"/></linearGradient><linearGradient x1="-155.23081" y1="289.09551" x2="-155.23081" y2="322.16256" gradientUnits="userSpaceOnUse" id="color-8"><stop offset="0" stop-color="#454037"/><stop offset="1" stop-color="#454037" stop-opacity="0"/></linearGradient><linearGradient x1="-151.94622" y1="272.82223" x2="-151.94622" y2="294.82223" gradientUnits="userSpaceOnUse" id="color-9"><stop offset="0" stop-color="#95bd86"/><stop offset="1" stop-color="#80a374"/></linearGradient><linearGradient x1="16.22195" y1="272.82223" x2="16.22195" y2="294.82223" gradientUnits="userSpaceOnUse" id="color-10"><stop offset="0" stop-color="#95bd86"/><stop offset="1" stop-color="#80a374"/></linearGradient><linearGradient x1="-51.58439" y1="-70.28539" x2="-51.58439" y2="539.32436" gradientUnits="userSpaceOnUse" id="color-11"><stop offset="0" stop-color="#b7a175"/><stop offset="1" stop-color="#9f8c66"/></linearGradient><linearGradient x1="-51.58439" y1="-70.28539" x2="-51.58439" y2="539.32436" gradientUnits="userSpaceOnUse" id="color-12"><stop offset="0" stop-color="#b7a175"/><stop offset="1" stop-color="#9f8c66"/></linearGradient><linearGradient x1="242.18439" y1="-70.61864" x2="242.18439" y2="538.99096" gradientUnits="userSpaceOnUse" id="color-13"><stop offset="0" stop-color="#b7a175"/><stop offset="1" stop-color="#9f8c66"/></linearGradient><linearGradient x1="-66.59941" y1="-69.95196" x2="-66.59941" y2="539.65766" gradientUnits="userSpaceOnUse" id="color-14"><stop offset="0" stop-color="#b7a175"/><stop offset="1" stop-color="#9f8c66"/></linearGradient><linearGradient x1="-66.59941" y1="-69.95196" x2="-66.59941" y2="539.65766" gradientUnits="userSpaceOnUse" id="color-15"><stop offset="0" stop-color="#b7a175"/><stop offset="1" stop-color="#9f8c66"/></linearGradient><linearGradient x1="-66.59941" y1="-69.95196" x2="-66.59941" y2="539.65766" gradientUnits="userSpaceOnUse" id="color-16"><stop offset="0" stop-color="#b7a175"/><stop offset="1" stop-color="#9f8c66"/></linearGradient><linearGradient x1="-51.58439" y1="-69.95196" x2="-51.58439" y2="539.65766" gradientUnits="userSpaceOnUse" id="color-17"><stop offset="0" stop-color="#b7a175"/><stop offset="1" stop-color="#9f8c66"/></linearGradient><linearGradient x1="242.18439" y1="-70.45194" x2="242.18439" y2="539.15766" gradientUnits="userSpaceOnUse" id="color-18"><stop offset="0" stop-color="#b7a175"/><stop offset="1" stop-color="#9f8c66"/></linearGradient><linearGradient x1="87.96966" y1="-104.23881" x2="87.96966" y2="-91.3569" gradientUnits="userSpaceOnUse" id="color-19"><stop offset="0" stop-color="#a38f68"/><stop offset="1" stop-color="#b7a175"/></linearGradient><linearGradient x1="199.86168" y1="-104.40547" x2="199.86168" y2="-91.52356" gradientUnits="userSpaceOnUse" id="color-20"><stop offset="0" stop-color="#a38f68"/><stop offset="1" stop-color="#b7a175"/></linearGradient><linearGradient x1="200.81899" y1="274.21548" x2="200.81899" y2="462.08519" gradientUnits="userSpaceOnUse" id="color-21"><stop offset="0" stop-color="#7e7463"/><stop offset="1" stop-color="#847c6b"/></linearGradient><linearGradient x1="179.99821" y1="292.08331" x2="179.99821" y2="464.75001" gradientUnits="userSpaceOnUse" id="color-22"><stop offset="0" stop-color="#736c5d"/><stop offset="1" stop-color="#736c5d" stop-opacity="0"/></linearGradient><linearGradient x1="266.6679" y1="292.08331" x2="266.6679" y2="464.75001" gradientUnits="userSpaceOnUse" id="color-23"><stop offset="0" stop-color="#736c5d"/><stop offset="1" stop-color="#736c5d" stop-opacity="0"/></linearGradient><linearGradient x1="201.20607" y1="288.91738" x2="201.20607" y2="321.98438" gradientUnits="userSpaceOnUse" id="color-24"><stop offset="0" stop-color="#454037"/><stop offset="1" stop-color="#454037" stop-opacity="0"/></linearGradient><linearGradient x1="370.48864" y1="274.21547" x2="370.48864" y2="462.08519" gradientUnits="userSpaceOnUse" id="color-25"><stop offset="0" stop-color="#7e7463"/><stop offset="1" stop-color="#847c6b"/></linearGradient><linearGradient x1="352.67093" y1="292.08331" x2="352.67093" y2="464.75001" gradientUnits="userSpaceOnUse" id="color-26"><stop offset="0" stop-color="#736c5d"/><stop offset="1" stop-color="#736c5d" stop-opacity="0"/></linearGradient><linearGradient x1="436.33758" y1="292.08331" x2="436.33758" y2="464.75001" gradientUnits="userSpaceOnUse" id="color-27"><stop offset="0" stop-color="#736c5d"/><stop offset="1" stop-color="#736c5d" stop-opacity="0"/></linearGradient><linearGradient x1="370.87571" y1="288.9173" x2="370.87571" y2="321.98435" gradientUnits="userSpaceOnUse" id="color-28"><stop offset="0" stop-color="#454037"/><stop offset="1" stop-color="#454037" stop-opacity="0"/></linearGradient><linearGradient x1="364.68805" y1="272.64401" x2="364.68805" y2="294.64401" gradientUnits="userSpaceOnUse" id="color-29"><stop offset="0" stop-color="#95bd86"/><stop offset="1" stop-color="#80a374"/></linearGradient><linearGradient x1="200.8548" y1="272.64401" x2="200.8548" y2="294.64401" gradientUnits="userSpaceOnUse" id="color-30"><stop offset="0" stop-color="#95bd86"/><stop offset="1" stop-color="#80a374"/></linearGradient><linearGradient x1="-79.57069" y1="-69.95203" x2="-79.57069" y2="539.65766" gradientUnits="userSpaceOnUse" id="color-31"><stop offset="0" stop-color="#b7a175"/><stop offset="1" stop-color="#9f8c66"/></linearGradient><linearGradient x1="238.30693" y1="124.56044" x2="238.30693" y2="181.61753" gradientUnits="userSpaceOnUse" id="color-32"><stop offset="0" stop-color="#8e7e5e"/><stop offset="1" stop-color="#b7a682"/></linearGradient><linearGradient x1="242.08115" y1="123.96041" x2="242.08115" y2="181.61748" gradientUnits="userSpaceOnUse" id="color-33"><stop offset="0" stop-color="#af9a70"/><stop offset="1" stop-color="#d1bb8c"/></linearGradient></defs><g transform="translate(77.94221,117.54755)"><g data-paper-data="{&quot;isPaintingLayer&quot;:true}" fill-rule="nonzero" stroke-linejoin="miter" stroke-miterlimit="10" stroke-dasharray="" stroke-dashoffset="0" style="mix-blend-mode: normal"><path d="M-21.23612,176.18258v-39.0941h103.19157c0,0 0,22.65063 0,29.77203c0,3.98489 -4.75007,9.32207 -9.59566,9.32207c-11.0491,0 -55.85647,0 -79.2377,0c-8.64298,0 -14.3582,0 -14.3582,0z" fill="#e4cb7f" stroke="none" stroke-width="0" stroke-linecap="butt"/><path d="M-23.21384,143.34868v-11.28631h105.33662v11.28632z" fill="#b7a367" stroke="none" stroke-width="0" stroke-linecap="butt"/><path d="M-26.89489,140.60548l3.90127,-12.24749c0,0 10.15977,0 24.15113,0c28.14688,0 71.80044,0 79.43882,0c2.26927,0 4.07938,2.32239 4.07938,3.9421c0,1.56316 0,4.91963 0,7.35021c0,1.61486 -0.9275,2.66333 -2.45249,2.42795c-4.03457,-0.62275 -12.25123,-1.78947 -18.53902,-2.01986c-10.85173,-0.3976 -18.16428,0.94788 -29.01667,0.62479c-10.2272,-0.30447 -17.59182,-0.56409 -27.82022,-0.56409c-4.07834,0 -18.7521,1.10014 -27.2239,1.24135c-3.29702,0.05496 -6.51829,-0.75497 -6.51829,-0.75497z" fill="url(#color-1)" stroke="none" stroke-width="0" stroke-linecap="butt"/><path d="M92.01056,145.26146c0,27.78009 -10.35601,50.3003 -23.13079,50.3003c-12.77479,0 -23.1308,-22.52021 -23.1308,-50.3003c0,-27.78009 10.35601,-50.30029 23.1308,-50.30029c12.77479,0 23.13079,22.52022 23.13079,50.3003z" fill="none" stroke="none" stroke-width="0" stroke-linecap="butt"/><path d="M-21.99136,478.05959c-10.24916,0 -47.2491,0 -47.2491,0c0,0 -3.08066,-13.81167 -6.44975,-30.43325c0.7702,-7.4339 1.58252,-14.8542 2.43401,-22.26986c1.27155,-8.07268 2.53758,-16.14623 3.78604,-24.22251c0.6905,-4.46683 0.98926,-9.01611 1.73207,-13.47096c5.9926,-2.23067 5.9926,-9.33861 5.9926,-9.33861l-0.02945,-0.73453c0.17768,-2.31054 0.36109,-4.62077 0.54341,-6.9311c0.15454,-0.36093 0.30265,-0.72433 0.44277,-1.0908c0.83997,-2.19693 1.16513,-4.55748 1.7477,-6.83623c0,0 1.06626,-4.26504 -1.04309,-7.84625c0.05235,-0.85149 0.10245,-1.70313 0.14997,-2.55493c0.39506,-7.08146 1.52811,-14.16204 1.16768,-21.24535c-0.31849,-6.25917 -3.74144,-13.04438 -3.00001,-19.68032c1.20605,-10.79435 3.50396,-24.05815 4.50451,-34.53454c0.20643,-2.16142 0.37271,-4.38815 -0.07201,-6.51337c-1.38883,-6.637 -3.59683,-13.07583 -5.39525,-19.61375c-1.89764,-6.72118 -3.62122,-13.49395 -5.69293,-20.16354c-0.20012,-0.64427 -0.93935,-1.04433 -1.09832,-1.69997c-0.13723,-0.56597 0.26034,-1.14417 0.26751,-1.72649c0.08208,-6.66616 0,-13.33334 0,-20c0,-1.59492 0.66578,-3.37169 -0.07492,-4.78418c-0.18106,-0.34527 -1.40765,-0.2125 -1.08636,-0.43334c1.59877,-1.09888 4.24054,-0.81069 5.27971,-2.44889c1.477,-2.32845 1.43458,-5.30616 1.77878,-8.07587h52.35558c0,0 0,180.40925 0,230.7337c0,24.07993 -6.04788,55.91494 -10.99114,55.91494z" fill="#8e7e5e" stroke="none" stroke-width="0" stroke-linecap="butt"/><path d="M-22.83617,478.05949c-10.91664,0 -39.29508,0 -47.65519,0c-2.37551,0 -5.00406,-2.55982 -7.32118,-8.65262c0.06572,-0.7603 0.13341,-1.52039 0.20408,-2.28014c1.30036,-13.97895 2.75765,-27.88272 4.35226,-41.77025c1.27155,-8.07268 2.53758,-16.14623 3.78604,-24.22251c0.6905,-4.46683 0.98926,-9.01611 1.73207,-13.47096c5.9926,-2.23067 5.9926,-9.33861 5.9926,-9.33861l-0.02945,-0.73453c0.17768,-2.31054 0.36109,-4.62077 0.54341,-6.9311c0.15454,-0.36093 0.30265,-0.72433 0.44277,-1.0908c0.83997,-2.19693 1.16513,-4.55748 1.7477,-6.83623c0,0 1.06626,-4.26504 -1.04309,-7.84625c0.05235,-0.85149 0.10245,-1.70313 0.14997,-2.55493c0.39506,-7.08146 1.52811,-14.16204 1.16768,-21.24535c-0.31849,-6.25917 -3.74144,-13.04438 -3.00001,-19.68032c1.20605,-10.79435 3.50396,-24.05815 4.50451,-34.53454c0.20643,-2.16142 0.37271,-4.38815 -0.07201,-6.51337c-1.38883,-6.637 -3.59683,-13.07583 -5.39525,-19.61375c-1.89764,-6.72118 -3.62122,-13.49395 -5.69293,-20.16354c-0.20012,-0.64427 -0.93935,-1.04433 -1.09832,-1.69997c-0.13723,-0.56597 0.26034,-1.14417 0.26751,-1.72649c0.08208,-6.66616 0,-13.33334 0,-20c0,-1.59492 0.66578,-3.37169 -0.07492,-4.78418c-0.18106,-0.34527 -1.40765,-0.2125 -1.08636,-0.43334c1.59877,-1.09888 4.24054,-0.81069 5.27971,-2.44889c1.47702,-2.32847 1.43458,-5.30622 1.77879,-8.07596h44.84806c0,0 0,255.74979 0,280.2595c0,3.70065 -1.63124,6.38913 -4.32844,6.38913z" fill="#ac976e" stroke="none" stroke-width="0" stroke-linecap="butt"/><path d="M-63.64383,462.26338c0,0 0.46058,-39.57441 0.90682,-79.49533c0.99151,-2.30143 0.99151,-4.44366 0.99151,-4.44366l-0.02945,-0.73453c0.17768,-2.31054 0.36109,-4.62077 0.54341,-6.9311c0.15454,-0.36093 0.30265,-0.72433 0.44277,-1.0908c0.83997,-2.19693 1.16513,-4.55748 1.7477,-6.83623c0,0 1.06626,-4.26504 -1.04309,-7.84625c0.05235,-0.85149 0.10245,-1.70313 0.14997,-2.55493c0.39506,-7.08146 1.52811,-14.16204 1.16768,-21.24535c-0.31849,-6.25917 -3.74144,-13.04438 -3.00001,-19.68032c1.20605,-10.79435 3.50396,-24.05815 4.50451,-34.53454c0.07823,-0.81918 0.1507,-1.64774 0.18633,-2.4766h192.98784v187.86963z" data-paper-data="{&quot;index&quot;:null}" fill="url(#color-2)" stroke="none" stroke-width="0" stroke-linecap="butt"/><path d="M-26.7674,464.92822v-172.66667h43v172.66667z" data-paper-data="{&quot;index&quot;:null}" fill="url(#color-3)" stroke="none" stroke-width="0" stroke-linecap="butt"/><path d="M56.89919,464.92822v-172.66667h43v172.66667z" data-paper-data="{&quot;index&quot;:null}" fill="url(#color-4)" stroke="none" stroke-width="0" stroke-linecap="butt"/><path d="M121.37175,288.97686c0,0 14.95657,5.6956 14.95657,7.26319c0,4.86621 -0.09279,25.92258 -0.09279,25.92258l-196.70889,0.00001c-0.88211,-3.55874 -1.6929,-7.17994 -1.29315,-10.75775c0.77029,-6.89418 1.98595,-14.79569 3.02455,-22.33496z" data-paper-data="{&quot;index&quot;:null}" fill="url(#color-5)" stroke="none" stroke-width="0" stroke-linecap="butt"/><path d="M136.71424,261.83595l-0.20093,12.74334l-193.59757,0.00001c0.07016,-1.41981 0.03899,-2.84249 -0.24976,-4.22238c-0.60043,-2.86935 -1.35397,-5.70167 -2.16132,-8.52097c66.11405,0 196.20958,0 196.20958,0z" data-paper-data="{&quot;index&quot;:null}" fill="#94bc85" stroke="none" stroke-width="0" stroke-linecap="butt"/><path d="M-61.74549,378.3244l-0.02945,-0.73453c0.17768,-2.31054 0.36109,-4.62077 0.54341,-6.9311c0.15454,-0.36093 0.30265,-0.72433 0.44277,-1.0908c0.83997,-2.19693 1.16513,-4.55748 1.7477,-6.83623c0,0 1.06626,-4.26504 -1.04309,-7.84625c0.05235,-0.85149 0.10245,-1.70313 0.14997,-2.55493c0.39506,-7.08146 1.52811,-14.16204 1.16768,-21.24535c-0.31849,-6.25917 -3.74144,-13.04438 -3.00001,-19.68032c1.20605,-10.79435 3.50396,-24.05815 4.50451,-34.53454c0.07823,-0.81918 0.1507,-1.64774 0.18633,-2.47659h24.81967v187.86963h-44.89346c1.18143,-12.34213 2.4837,-24.63087 3.89327,-36.90691c1.27155,-8.07268 2.53758,-16.14623 3.78604,-24.22251c0.6905,-4.46683 0.98926,-9.01611 1.73207,-13.47096c5.9926,-2.23067 5.9926,-9.33861 5.9926,-9.33861z" data-paper-data="{&quot;index&quot;:null}" fill="url(#color-6)" stroke="none" stroke-width="0" stroke-linecap="butt"/><path d="M-68.26895,470.93423h-9.67326c0.1061,-1.26974 0.21576,-2.53909 0.33375,-3.80752c1.30036,-13.97895 2.75765,-27.88272 4.35226,-41.77025c1.27155,-8.07268 2.53758,-16.14623 3.78604,-24.22251c0.50004,-3.23474 0.79464,-6.51272 1.20121,-9.76677z" data-paper-data="{&quot;index&quot;:null}" fill="url(#color-7)" stroke="none" stroke-width="0" stroke-linecap="butt"/><path d="M-46.79642,288.97686c0,0 14.95657,5.6956 14.95657,7.26319c0,4.86621 -0.09279,25.92258 -0.09279,25.92258h-28.54072c-0.88211,-3.55875 -1.6929,-7.17994 -1.29315,-10.75775c0.77325,-6.92067 1.99531,-14.85643 3.03652,-22.42185z" data-paper-data="{&quot;index&quot;:null}" fill="url(#color-8)" stroke="none" stroke-width="0" stroke-linecap="butt"/><path d="M-31.93773,308.20769c0,0 -11.01279,0 -16.6959,0c-3.16424,0 -7.49012,0 -12.75439,0c0.92587,-7.44908 2.23093,-15.76205 3.21657,-23.40174l26.1927,-0.05485z" data-paper-data="{&quot;index&quot;:null}" fill="#80a374" stroke="none" stroke-width="0" stroke-linecap="butt"/><path d="M-31.45394,261.83595l-0.20093,12.74334h-25.42939c0.07016,-1.41981 0.03899,-2.84249 -0.24976,-4.22238c-0.60043,-2.86935 -1.35396,-5.70166 -2.16132,-8.52096c17.12093,0 28.0414,0 28.0414,0z" data-paper-data="{&quot;index&quot;:null}" fill="#94bc85" stroke="none" stroke-width="0" stroke-linecap="butt"/><path d="M-31.88607,272.82223l-0.05947,22h-27.60616c0.89021,-6.24502 1.76699,-12.47883 2.2897,-17.95189c0.12774,-1.33754 0.24011,-2.70009 0.20183,-4.04811c15.47057,0 25.17411,0 25.17411,0z" data-paper-data="{&quot;index&quot;:null}" fill="url(#color-9)" stroke="none" stroke-width="0" stroke-linecap="butt"/><path d="M136.23044,308.20762c0,0 -11.01279,0 -16.6959,0c-15.57515,0 -59.2952,0 -104.53334,0c-26.7708,0 -54.07324,0 -76.38922,0c0.91166,-7.33474 2.19096,-15.50704 3.17096,-23.04945l194.40648,-0.40714z" data-paper-data="{&quot;index&quot;:null}" fill="#80a374" stroke="none" stroke-width="0" stroke-linecap="butt"/><path d="M136.28211,272.82223l-0.05947,22h-195.77434c0.89021,-6.24502 1.76699,-12.47883 2.2897,-17.95188c0.12774,-1.33754 0.24011,-2.70009 0.20183,-4.04812c67.91639,0 193.34229,0 193.34229,0z" data-paper-data="{&quot;index&quot;:null}" fill="url(#color-10)" stroke="none" stroke-width="0" stroke-linecap="butt"/><path d="M0.96815,-67.2823l146.20477,65.24336c0,0 -4.89656,-0.15667 -12.38466,-0.3366c-7.43104,-0.17856 -17.41427,-0.38003 -27.69697,-0.47403c-3.11116,-0.02844 -6.24974,-0.04704 -9.35334,-0.0522c-14.37044,-0.02386 -41.98976,1.88524 -41.98976,1.88524c0,0 -6.8983,0.06164 -16.49144,2.17916c-22.15411,4.89012 -57.17889,23.74757 -57.80811,72.1249c0.1325,37.78565 0,60.11592 0,133.09925c-1.7434,-0.36802 -3.55891,-0.98592 -5.27499,-0.98592c-2.74735,0 -11.45213,-31.49732 -14.10001,-31.89043c-8.56504,-1.27159 -16.6556,10.86115 -25.11643,9.98547c-0.08446,-1.63192 -0.24549,-3.14121 -0.47172,-4.16577c-0.3113,-1.40983 -1.37974,-2.56229 -1.77526,-3.95084c-0.02587,-0.09085 -0.05086,-0.1819 -0.07502,-0.27314c1.46607,-1.30691 2.54973,-2.79891 2.85921,-4.65575c1.57124,-9.4274 -0.98578,-21.37408 -2.99127,-32.75373c0.63138,-7.34925 1.0318,-14.71064 0.90841,-22.0581c7.648,-1.94849 27.64631,3.55234 26.38852,-2.68368c-0.31234,-1.54854 -1.12216,-0.67651 -2.17348,-2.61722c2.33048,-0.32094 -23.90269,-21.85951 -21.74278,-22.73878c8.92522,-3.63331 13.08605,-11.23343 12.304,-20.51107c-0.25091,-2.97663 -1.36393,-5.8804 -1.2992,-8.86689c0.43538,-20.08872 6.13126,-40.25378 5.79064,-60.36829c-0.05577,-3.29367 -1.61273,-6.38828 -2.48177,-9.56573c-0.85757,-3.1355 -1.66708,-6.28617 -2.50819,-9.42735c6.17989,-16.38161 28.87631,9.27881 35.0562,-7.10281z" fill="url(#color-11)" stroke="#8e7e5e" stroke-width="15" stroke-linecap="butt"/><path d="M-47.68522,196.06102c-0.12316,-0.53052 -8.05367,-1.8417 -15.83015,-3.13742c0.07313,-0.77221 0.1495,-1.5404 0.26838,-2.2869c0.26258,-1.64888 0.32717,-4.22297 0.22839,-6.61986c4.01154,2.074 19.60963,8.81127 15.33338,12.04418z" fill="url(#color-12)" stroke="#8e7e5e" stroke-width="15" stroke-linecap="butt"/><path d="M209.15134,71.95422c-1.66101,-50.06124 -32.56339,-65.85895 -54.17185,-71.1632c-10.69795,-2.62603 -20.6277,-3.05751 -20.6277,-3.05751l74.79955,-68.35211l45.06607,1c0,0 -6.23544,141.1257 -4.48801,219.14753c-2.68671,0.15611 -5.87155,3.31654 -8.55391,3.48328c-5.8742,0.36514 -7.74516,-1.93158 -13.6175,-2.3255c-3.10255,-0.20812 -6.37219,-4.0541 -9.34987,-4.94996c-2.21419,-0.66616 -9.05679,-1.43149 -9.05679,-6.76593c0,-26.93503 0,-50.05695 0,-67.01659z" data-paper-data="{&quot;index&quot;:null}" fill="url(#color-13)" stroke="#8e7e5e" stroke-width="15" stroke-linecap="butt"/><path d="M-33.56639,-69.95194l235.0912,-0.7993l-89.19924,69.37877c0,0 -23.78559,-0.5221 -35.62575,-0.44912c-11.9942,0.07394 -36.21666,1.55658 -36.21666,1.55658c0,0 -73.13138,2.09625 -74.04955,72.88589c0.13343,37.78565 0,74.62944 0,147.61277c-1.7434,-0.36802 -3.55891,-5.49042 -5.27499,-5.49042c-2.74735,0 -11.45213,7.54171 -14.10001,7.1486c-8.74197,-1.29786 2.52986,2.35913 -6.12172,0.9053c-2.17446,-0.3654 -0.40419,3.18341 -3.37006,3.96307c-2.29157,-10.28632 8.91264,-13.05277 6.51317,-23.30961c0.0214,-0.9029 -11.9605,17.71497 -11.91964,16.81496c0.09073,-1.99837 -0.50275,-5.70487 -1.40899,-10.2306c-0.00267,-0.96059 -0.00437,-1.92118 -0.00437,-2.88175c0,-1.59492 0.66578,-3.37169 -0.07492,-4.78418c-0.18106,-0.34527 -1.40765,-0.2125 -1.08636,-0.43334c1.59877,-1.09888 4.24054,-0.81069 5.27971,-2.44889c1.61574,-2.54716 1.4132,-5.87126 1.88758,-8.85011c0.4629,-2.90676 0.3105,-8.68882 -0.26751,-11.30653c-0.3113,-1.40983 -1.37974,-2.56229 -1.77526,-3.95084c-0.63469,-2.22823 -0.73357,-4.58107 -1.29524,-6.82882c-0.30459,-1.21896 -1.15038,-2.29163 -1.29562,-3.53965c-0.27465,-2.35998 0.3464,-4.76965 0.0542,-7.12752c-0.13201,-1.06528 -0.30881,-2.07945 -0.52267,-3.05818c4.59772,-7.17473 9.52125,-14.10376 9.86234,-22.93979c0.29794,-7.71822 -3.60005,-27.31751 -5.18319,-35.17174c2.7122,-3.87349 5.39689,-10.27613 6.8781,-12.12293c3.11144,-3.87938 -7.5618,-11.88509 -8.03534,-17.50285c-0.25091,-2.97663 -1.36393,-5.8804 -1.2992,-8.86689c0.43538,-20.08872 6.13126,-40.25378 5.79064,-60.36829c-0.05577,-3.29367 -1.61273,-6.38828 -2.48177,-9.56573c-0.85757,-3.1355 -1.66708,-6.28617 -2.50819,-9.42735c6.13798,-16.27051 12.27595,-32.541 18.41393,-48.81151z" fill="url(#color-14)" stroke="none" stroke-width="0" stroke-linecap="butt"/><path d="M-66.62068,99.61092c0.90784,-0.36956 1.86621,-1.37913 2.82344,-2.7174c0.0301,0.92442 0.04747,2.31672 -0.42299,1.71355c-1.00506,0.56016 -3.93119,1.62699 -2.40045,1.00385z" fill="url(#color-15)" stroke="none" stroke-width="0" stroke-linecap="butt"/><path d="M-63.66994,96.71363c-0.04243,0.06059 -0.08486,0.12056 -0.12729,0.17989c-0.02054,-0.63115 -0.04702,-1.0442 0.07179,-0.45512c0.01817,0.09006 0.03667,0.18182 0.0555,0.27523z" fill="url(#color-16)" stroke="none" stroke-width="0" stroke-linecap="butt"/><path d="M-18.55137,-69.95194l235.0912,-0.7993l-89.19924,69.37877c0,0 -23.78559,-0.5221 -35.62575,-0.44912c-11.9942,0.07394 -36.21666,1.55658 -36.21666,1.55658c0,0 -73.13138,2.09625 -74.04955,72.88589c0.13343,37.78565 0,74.62944 0,147.61277c-1.7434,-0.36802 -3.55891,-5.49042 -5.27499,-5.49042c-2.74735,0 -11.45213,7.54171 -14.10001,7.1486c-8.74197,-1.29786 -16.98966,-0.64388 -25.64124,-2.0977c-1.61809,-0.27191 -3.54615,-0.03924 -5.64896,0.41888c-0.00144,-4.35321 -0.03643,-8.70661 -0.03643,-13.05981c0,-1.59492 0.66578,-3.37169 -0.07492,-4.78418c-0.18106,-0.34527 -1.40765,-0.2125 -1.08636,-0.43334c1.59877,-1.09888 4.24054,-0.81069 5.27971,-2.44889c1.61574,-2.54716 1.4132,-5.87126 1.88758,-8.85011c0.4629,-2.90676 0.3105,-8.68882 -0.26751,-11.30653c-0.3113,-1.40983 -1.37974,-2.56229 -1.77526,-3.95084c-0.63469,-2.22823 -0.73357,-4.58107 -1.29524,-6.82882c-0.30459,-1.21896 -1.15038,-2.29163 -1.29562,-3.53965c-0.27465,-2.35998 0.3464,-4.76965 0.0542,-7.12752c-0.53971,-4.35513 -1.82773,-7.85602 -3.33806,-11.57255c1.74181,-9.29772 3.31071,-18.66432 3.66873,-27.93893c0.30148,-7.81002 2.31263,-15.77341 0.76732,-23.43496c-0.31234,-1.54854 -1.12216,-3.67951 -2.17348,-5.62022c2.33048,-0.32094 4.62584,-0.83849 6.78575,-1.71776c8.92522,-3.63331 13.08605,-11.23343 12.304,-20.51107c-0.25091,-2.97663 -1.36393,-5.8804 -1.2992,-8.86689c0.43538,-20.08872 6.13126,-40.25378 5.79064,-60.36829c-0.05577,-3.29367 -1.61273,-6.38828 -2.48177,-9.56573c-0.85757,-3.1355 -1.66708,-6.28617 -2.50819,-9.42735c6.13797,-16.27051 12.27595,-32.541 18.41393,-48.81151z" fill="url(#color-17)" stroke="none" stroke-width="0" stroke-linecap="butt"/><path d="M209.15134,72.12086c-0.59039,-73.33461 -74.99661,-73.10364 -74.99661,-73.10364l-6.88627,-0.36557l81.88288,-69.10361h66.06607v210.81811c-10.69413,0.58761 -21.38761,18.15042 -32.04191,18.8127c-5.8742,0.36514 -11.74516,1.56842 -17.6175,1.1745c-3.10255,-0.20812 -5.87219,-2.0541 -8.84987,-2.94996c-2.21419,-0.66616 -4.80039,-1.31779 -7.55679,-1.83216c0,-32.27947 -0.00363,-82.44002 0,-83.45036z" data-paper-data="{&quot;index&quot;:null}" fill="url(#color-18)" stroke="none" stroke-width="0" stroke-linecap="butt"/><path d="M-69.76293,68.49035c0.00602,0.04377 0.01701,0.0951 0.03208,0.15018c-0.29649,0.02254 -0.66568,0.07958 -1.07713,0.15748c0.02723,-0.65708 0.30423,-1.38855 0.75856,-2.08968c0.10618,0.59341 0.20475,1.18724 0.2865,1.78202z" fill="#b7a075" stroke="none" stroke-width="NaN" stroke-linecap="butt"/><path d="M254.39701,119.60509c0,3.24497 0,7.20953 0,9.13867c0,2.18456 -2.87691,5.27714 -5.86374,5.27714c-3.47959,0 -12.34952,0 -18.53119,0c-3.72844,0 -6.47894,-2.52087 -6.47894,-5.02329c0,-2.81018 0,-6.74503 0,-8.63096c0,-2.61521 2.49641,-5.78485 5.97124,-5.78485c6.47814,0 16.35691,0 19.80044,0c2.35404,0 5.10219,2.24858 5.10219,5.02329z" data-paper-data="{&quot;index&quot;:null}" fill="#bba377" stroke="none" stroke-width="NaN" stroke-linecap="butt"/><path d="M251.39701,69.65009c0,3.24497 0,7.20952 0,9.13867c0,2.18457 -2.87691,5.27715 -5.86374,5.27715c-3.47959,0 -12.34952,0 -18.53119,0c-3.72844,0 -6.47894,-2.52088 -6.47894,-5.02329c0,-2.81018 0,-6.74504 0,-8.63097c0,-2.61521 2.49641,-5.78485 5.97124,-5.78485c6.47814,0 16.35691,0 19.80044,0c2.35404,0 5.10219,2.24858 5.10219,5.0233z" data-paper-data="{&quot;index&quot;:null}" fill="#bba377" stroke="none" stroke-width="NaN" stroke-linecap="butt"/><path d="M263.06367,18.31671c0,3.24497 0,7.20952 0,9.13867c0,2.18457 -2.87691,5.27714 -5.86374,5.27714c-3.47959,0 -12.34951,0 -18.53118,0c-3.72844,0 -6.47894,-2.52087 -6.47894,-5.02329c0,-2.81018 0,-6.74504 0,-8.63097c0,-2.61521 2.49641,-5.78485 5.97124,-5.78485c6.47814,0 16.35691,0 19.80044,0c2.35404,0 5.10219,2.24858 5.10219,5.0233z" data-paper-data="{&quot;index&quot;:null}" fill="#b7a075" stroke="none" stroke-width="NaN" stroke-linecap="butt"/><path d="M249.06367,5.31676c0,3.24497 0,7.20952 0,9.13867c0,2.18457 -2.87691,5.27714 -5.86374,5.27714c-3.47959,0 -12.34951,0 -18.53118,0c-3.72844,0 -6.47894,-2.52087 -6.47894,-5.02329c0,-2.81018 0,-6.74504 0,-8.63097c0,-2.61521 2.49641,-5.78485 5.97124,-5.78485c6.47814,0 16.35691,0 19.80044,0c2.35404,0 5.10219,2.24858 5.10219,5.0233z" data-paper-data="{&quot;index&quot;:null}" fill="#bca579" stroke="none" stroke-width="NaN" stroke-linecap="butt"/><path d="M281.53892,-62.97119c0,2.99228 -5.14326,5.50629 -11.8527,5.50629c-26.86033,0 -205.46358,0 -306.29366,0c4.59935,-12.19193 9.1987,-24.38386 13.79805,-36.57579c101.86227,0 264.65623,0 291.2963,0c7.33183,0 13.05203,-6.42051 13.05203,-2.56424c0,8.00073 0,30.99507 0,33.63374z" data-paper-data="{&quot;index&quot;:null}" fill="#b7a175" stroke="none" stroke-width="0" stroke-linecap="butt"/><path d="M268.48691,-104.23883c7.33183,0 13.05203,2.75779 13.05203,6.61406c0,1.65008 0,5.54324 0,5.54324l-305.30298,0.57144c1.60062,-4.24291 3.20124,-8.48582 4.80186,-12.72874c102.06281,0 261.14196,0 287.4491,0z" data-paper-data="{&quot;index&quot;:null}" fill="url(#color-19)" stroke="none" stroke-width="0" stroke-linecap="butt"/><path d="M245.8865,-30.45497c0,3.24497 0,7.20952 0,9.13867c0,2.18457 -2.87691,5.27715 -5.86374,5.27715c-3.47959,0 -12.34952,0 -18.53119,0c-3.72844,0 -6.47894,-2.52088 -6.47894,-5.02329c0,-2.81018 0,-6.74504 0,-8.63097c0,-2.61521 2.49641,-5.78485 5.97124,-5.78485c6.47814,0 16.35691,0 19.80044,0c2.35404,0 5.10219,2.24858 5.10219,5.0233z" data-paper-data="{&quot;index&quot;:null}" fill="#bba377" stroke="none" stroke-width="NaN" stroke-linecap="butt"/><path d="M180.31593,-37.46704c0,3.24497 0,7.20952 0,9.13867c0,2.18457 -2.87691,5.27715 -5.86374,5.27715c-3.47959,0 -12.34952,0 -18.53119,0c-3.72844,0 -6.47894,-2.52088 -6.47894,-5.02329c0,-2.81018 0,-6.74504 0,-8.63097c0,-2.61521 2.49641,-5.78485 5.97124,-5.78485c6.47814,0 16.35691,0 19.80044,0c2.35404,0 5.10219,2.24858 5.10219,5.0233z" data-paper-data="{&quot;index&quot;:null}" fill="#bba377" stroke="none" stroke-width="NaN" stroke-linecap="butt"/><g stroke="none" stroke-width="0" stroke-linecap="butt"><path d="M287.575,-63.13784c0,2.99228 -2.3306,5.50629 -5.37089,5.50629c-17.10749,0 -170.05546,0 -170.05546,0v-36.57579c0,0 151.72559,0 169.51201,0c3.32232,0 5.91435,-6.42051 5.91435,-2.56424c0,8.00073 0,30.99507 0,33.63374z" data-paper-data="{&quot;index&quot;:null}" fill="#b7a175"/><path d="M112.14865,-91.52357v-12.88191c0,0 151.72559,0 169.51201,0c3.32232,0 5.91435,2.75779 5.91435,6.61406c0,1.65008 0,5.54324 0,5.54324z" data-paper-data="{&quot;index&quot;:null}" fill="url(#color-20)"/></g><path d="M124.62488,462.08519c0,0 1.73282,-148.89137 1.73282,-160.40288c0,-2.39881 -0.02418,-7.46553 -0.03541,-12.66598c-0.01324,-6.13337 -0.00846,-12.45274 0.07528,-14.80077h197.7833v187.86963z" data-paper-data="{&quot;index&quot;:null}" fill="url(#color-21)" stroke="none" stroke-width="0" stroke-linecap="butt"/><path d="M158.49829,464.75001v-172.66667h43v172.66667z" data-paper-data="{&quot;index&quot;:null}" fill="url(#color-22)" stroke="none" stroke-width="0" stroke-linecap="butt"/><path d="M245.16792,464.75001v-172.66667h43v172.66667z" data-paper-data="{&quot;index&quot;:null}" fill="url(#color-23)" stroke="none" stroke-width="0" stroke-linecap="butt"/><path d="M126.35769,321.98438c0,-6.76737 0,-13.53474 0,-20.30211c0,-4.35154 2.12533,-8.68456 1.03328,-12.7895l182.24949,-0.09417c0,0 14.95657,5.6956 14.95657,7.26319c0,4.86621 -0.09279,25.92258 -0.09279,25.92258z" data-paper-data="{&quot;index&quot;:null}" fill="url(#color-24)" stroke="none" stroke-width="0" stroke-linecap="butt"/><path d="M324.49913,308.0295c0,0 -11.01279,0 -16.6959,0c-15.57515,0 -59.2952,0 -104.53334,0c-26.98029,0 -54.50056,0 -76.91217,0c0,-2.11572 0,-4.23144 0,-6.34716c0,-5.22796 0.04893,-16.69466 0.04893,-16.69466l198.05146,-0.41477z" data-paper-data="{&quot;index&quot;:null}" fill="#80a374" stroke="none" stroke-width="0" stroke-linecap="butt"/><path d="M126.39078,274.40109c0.17764,-4.7066 0.0547,-9.10649 0.0547,-11.11086c0.17567,-0.52622 0.30827,-1.07173 0.39367,-1.63249c65.47364,0 198.14379,0 198.14379,0l-0.20093,12.74334z" data-paper-data="{&quot;index&quot;:null}" fill="#94bc85" stroke="none" stroke-width="0" stroke-linecap="butt"/><path d="M294.29454,462.08519c0,0 1.73282,-148.89137 1.73282,-160.40288c0,-2.39881 -0.02418,-7.46553 -0.03541,-12.66598c-0.01324,-6.13337 -0.00846,-12.45274 0.07528,-14.80077h197.7833v187.86963z" data-paper-data="{&quot;index&quot;:null}" fill="url(#color-25)" stroke="none" stroke-width="0" stroke-linecap="butt"/><path d="M331.17093,464.75001v-172.66667h43v172.66667z" data-paper-data="{&quot;index&quot;:null}" fill="url(#color-26)" stroke="none" stroke-width="0" stroke-linecap="butt"/><path d="M414.83757,464.75001v-172.66667h43v172.66667z" data-paper-data="{&quot;index&quot;:null}" fill="url(#color-27)" stroke="none" stroke-width="0" stroke-linecap="butt"/><path d="M296.02736,321.98435c0,-6.76737 0,-13.53474 0,-20.30211c0,-4.35154 2.12533,-8.68456 1.03328,-12.7895l182.24949,-0.09417c0,0 14.95657,5.6956 14.95657,7.26319c0,4.86621 -0.09279,25.92258 -0.09279,25.92258z" data-paper-data="{&quot;index&quot;:null}" fill="url(#color-28)" stroke="none" stroke-width="0" stroke-linecap="butt"/><path d="M296.06052,274.40109c0.17528,-4.7066 0.05397,-9.10649 0.05397,-11.11086c0.17334,-0.52622 0.30418,-1.07173 0.38845,-1.63249c64.60559,0 172.63009,0 190.94752,0c5.43045,0 12.96427,-1.43482 12.82201,11.54604c-0.01911,1.52027 -0.04609,1.1973 -0.04609,1.1973z" data-paper-data="{&quot;index&quot;:null}" fill="#94bc85" stroke="none" stroke-width="0" stroke-linecap="butt"/><path d="M500.29376,298.64401c0,3.44414 -0.26517,9.38544 -10.35657,9.38544c-4.55061,0 -8.06763,0 -14.17734,0c-16.74431,0 -63.74622,0 -112.38018,0c-29.00557,0 -58.59166,0 -82.68561,0c0,-2.11572 0,-4.23144 0,-6.34716c0,-5.22796 0.0526,-16.69466 0.0526,-16.69466l219.54709,-0.41477c0,0 0,9.85402 0,14.07115z" data-paper-data="{&quot;index&quot;:null}" fill="#80a374" stroke="none" stroke-width="0" stroke-linecap="butt"/><path d="M280.77943,294.64401c-0.00497,-0.2091 -0.01321,-4.19665 -0.01732,-8.72894c-0.00032,-0.35262 -0.00061,-0.70855 -0.00088,-1.06625c-0.00405,-5.46171 -0.00143,-11.33715 0.02034,-12.20481c71.62071,0 194.22357,0 212.03345,0c4.28486,0 7.51195,0 7.51195,0v22z" data-paper-data="{&quot;index&quot;:null}" fill="url(#color-29)" stroke="none" stroke-width="0" stroke-linecap="butt"/><path d="M120.44229,294.64401c-0.00476,-0.2091 -0.01266,-4.19665 -0.0166,-8.72894c-0.00031,-0.35262 -0.00059,-0.70855 -0.00084,-1.06625c-0.00388,-5.46171 -0.00137,-11.33715 0.01949,-12.20481c68.63659,0 204.10647,0 204.10647,0l-0.06127,22z" data-paper-data="{&quot;index&quot;:null}" fill="url(#color-30)" stroke="none" stroke-width="0" stroke-linecap="butt"/><path d="M290.82898,287.78352c-0.70353,-0.32689 -1.05529,-0.79946 -1.05529,-1.41771c0,-0.70353 0.37308,-1.19031 1.11924,-1.46035l10.68079,-4.53028c0.13502,-0.03553 0.33755,-0.07106 0.60759,-0.10659c0.27004,-0.03553 0.54719,0.09238 0.83144,0.38374c0.29136,0.28425 0.43704,0.58983 0.43704,0.91671c0,0.57561 -0.29136,0.99844 -0.87408,1.26848l-8.39967,3.53895l8.4423,3.77345c0.55429,0.24872 0.83144,0.59693 0.83144,1.04463c0,0.44059 -0.12791,0.79591 -0.38374,1.06595c-0.24872,0.27004 -0.51521,0.40506 -0.79946,0.40506c-0.28425,0 -0.51876,-0.03553 -0.70353,-0.10659zM306.85695,287.78352c-0.70353,-0.32689 -1.05529,-0.79946 -1.05529,-1.41771c0,-0.70353 0.37308,-1.19031 1.11924,-1.46035l10.68079,-4.53028c0.13502,-0.03553 0.33755,-0.07106 0.60759,-0.10659c0.27004,-0.03553 0.54719,0.09238 0.83144,0.38374c0.29136,0.28425 0.43704,0.58983 0.43704,0.91671c0,0.57561 -0.29136,0.99844 -0.87408,1.26848l-8.39967,3.53895l8.4423,3.77345c0.55429,0.24872 0.83144,0.59693 0.83144,1.04463c0,0.44059 -0.12791,0.79591 -0.38374,1.06595c-0.24872,0.27004 -0.51521,0.40506 -0.79946,0.40506c-0.28425,0 -0.51876,-0.03553 -0.70353,-0.10659zM335.78766,291.59961c0,1.0091 -0.93093,1.51365 -2.79278,1.51365c-1.29335,0 -2.22783,-0.38019 -2.80344,-1.14056c-0.56851,-0.73906 -0.87763,-1.91515 -0.92737,-3.52829v-6.03326h-0.82078c-0.41217,0 -0.74616,-0.13502 -1.00199,-0.40506c-0.24872,-0.27004 -0.37308,-0.56495 -0.37308,-0.88474c0,-0.29136 0.10659,-0.58272 0.31978,-0.87408c0.22029,-0.29136 0.57206,-0.43704 1.05529,-0.43704h0.97001l0.09594,-2.87806c0.07106,-0.42638 0.25583,-0.74972 0.55429,-0.97001c0.30557,-0.22029 0.62891,-0.33044 0.97001,-0.33044c0.3411,0 0.64312,0.11725 0.90606,0.35176c0.26293,0.2274 0.3944,0.5614 0.3944,1.00199v2.82476h1.59892c0.43348,0 0.76748,0.14568 1.00199,0.43704c0.23451,0.28425 0.35176,0.57561 0.35176,0.87408c0,0.36953 -0.12436,0.67865 -0.37308,0.92737c-0.24161,0.24161 -0.56851,0.36242 -0.98067,0.36242h-1.59892v4.98863c0,1.48522 0.03553,2.34153 0.10659,2.56893c0.07817,0.22029 0.17766,0.36598 0.29847,0.43704c0.12081,0.06396 0.29491,0.09594 0.52231,0.09594l1.21518,-0.09594c0.42638,0 0.74972,0.13502 0.97001,0.40506c0.2274,0.27004 0.3411,0.53297 0.3411,0.7888zM345.00384,284.57498c0,-0.80301 -0.21319,-1.42126 -0.63957,-1.85475c-0.36953,-0.34821 -0.82078,-0.52231 -1.35375,-0.52231c-0.52587,0 -0.97357,0.0604 -1.34309,0.18121c-0.36953,0.12081 -0.69287,0.31978 -0.97001,0.59693c-0.59693,0.5614 -0.8954,1.37863 -0.8954,2.45168v5.99062c0,0.49034 -0.17055,0.85276 -0.51165,1.08727c-0.334,0.23451 -0.68576,0.35176 -1.05529,0.35176c-0.39795,0 -0.73906,-0.13147 -1.02331,-0.3944c-0.27715,-0.26293 -0.41572,-0.61114 -0.41572,-1.04463v-15.307c0,-0.49034 0.167,-0.85276 0.501,-1.08727c0.334,-0.24161 0.66799,-0.36242 1.00199,-0.36242c0.36953,0 0.71063,0.11725 1.02331,0.35176c0.31978,0.2274 0.47968,0.59338 0.47968,1.09793l-0.3411,5.11655c-0.15634,-0.21319 0.2274,-0.55074 1.15122,-1.01265c0.81012,-0.41927 1.61313,-0.62891 2.40904,-0.62891c0.80301,0 1.48522,0.09949 2.04662,0.29847c0.5614,0.19898 1.08371,0.49034 1.56694,0.87408c0.96646,0.91671 1.44969,2.23138 1.44969,3.94401v6.71547c0,0.49034 -0.17766,0.85276 -0.53297,1.08727c-0.34821,0.23451 -0.69287,0.35176 -1.03397,0.35176c-0.39085,0 -0.74261,-0.12791 -1.05529,-0.38374c-0.30557,-0.25583 -0.45836,-0.60759 -0.45836,-1.05529zM362.35382,285.98204c0,0.7888 -0.42993,1.21873 -1.2898,1.2898h-8.03724c0.06396,1.49233 0.77104,2.50853 2.12124,3.04861c0.36242,0.12081 0.79946,0.18121 1.31112,0.18121c1.05173,0 2.14255,-0.39795 3.27246,-1.19386c0.63246,-0.36242 1.1832,-0.31623 1.65222,0.13857c0.27715,0.29847 0.36953,0.58983 0.27715,0.87408c0,0.39795 -0.13147,0.71418 -0.3944,0.94869c-1.25071,1.2436 -2.89582,1.8583 -4.93534,1.84409c-1.87607,0 -3.38971,-0.61114 -4.54094,-1.83343c-1.27914,-1.25782 -1.91871,-2.90648 -1.91871,-4.946c0,-1.86896 0.52231,-3.42169 1.56694,-4.65819c1.1228,-1.39284 2.68974,-2.08926 4.70083,-2.08926c2.01109,0 3.55671,0.61825 4.63687,1.85475c1.0091,1.10148 1.53496,2.61513 1.5776,4.54094zM359.34785,284.86277c-0.03553,-0.59693 -0.3411,-1.21163 -0.91671,-1.84409c-0.51876,-0.54719 -1.28269,-0.82078 -2.29179,-0.82078c-0.83854,0 -1.55628,0.31268 -2.15321,0.93803c-0.55429,0.64667 -0.8492,1.22229 -0.88474,1.72683zM374.55492,282.37915v8.97528c0,0.49744 -0.16345,0.87408 -0.49034,1.1299c-0.31978,0.24872 -0.61825,0.37308 -0.8954,0.37308c-0.27715,0 -0.51521,-0.02842 -0.71418,-0.08528c-0.19898,-0.05685 -0.36242,-0.16345 -0.49034,-0.31978c-0.334,-0.23451 -0.48323,-0.60759 -0.4477,-1.11924v-8.95396h-1.09793c-0.42638,0 -0.75327,-0.13147 -0.98067,-0.3944c-0.2274,-0.26293 -0.3411,-0.55785 -0.3411,-0.88474c0,-0.27715 0.10659,-0.5614 0.31978,-0.85276c0.22029,-0.29136 0.55429,-0.43704 1.00199,-0.43704h1.09793v-0.75682c0,-2.40194 0.68931,-3.89426 2.06794,-4.47698c0.4477,-0.17055 0.8954,-0.25583 1.34309,-0.25583c0.73906,0 1.48522,0.12436 2.23849,0.37308c0.5614,0.2274 0.8421,0.6147 0.8421,1.16188c0,0.28425 -0.09949,0.57206 -0.29847,0.86342c-0.19187,0.28425 -0.43348,0.42638 -0.72484,0.42638c-0.28425,0 -0.49389,-0.00711 -0.62891,-0.02132c-0.13502,-0.01421 -0.25227,-0.04619 -0.35176,-0.09594c-0.14213,-0.02842 -0.31978,-0.04264 -0.53297,-0.04264c-0.21319,0 -0.36953,0.02842 -0.46902,0.08528c-0.09238,0.05685 -0.17411,0.15989 -0.24517,0.30912c-0.13502,0.31978 -0.20253,1.19386 -0.20253,2.62223h-0.19187l1.66288,-0.19187c0.41927,0 0.74972,0.13147 0.99133,0.3944c0.24161,0.25583 0.36242,0.55429 0.36242,0.8954c0,0.334 -0.12081,0.63246 -0.36242,0.8954c-0.24161,0.25583 -0.57206,0.38374 -0.99133,0.38374zM381.23598,282.37915c0.23451,-1.86185 1.33243,-2.79278 3.29378,-2.79278c0.48323,0 0.85276,0.14923 1.10859,0.4477c0.26293,0.29136 0.3944,0.60759 0.3944,0.94869c0,0.3411 -0.13147,0.66089 -0.3944,0.95935c-0.25583,0.29136 -0.61825,0.43704 -1.08727,0.43704c-0.46191,0 -0.86342,0.06751 -1.20452,0.20253c-0.3411,0.13502 -0.6147,0.32334 -0.82078,0.56495c-0.48323,0.58983 -0.72484,1.37863 -0.72484,2.3664v5.90535c0,0.49034 -0.17055,0.85276 -0.51165,1.08727c-0.334,0.23451 -0.62891,0.35176 -0.88474,0.35176c-0.25583,0 -0.47257,-0.02487 -0.65023,-0.07462c-0.17055,-0.05685 -0.33044,-0.15989 -0.47968,-0.30912c-0.31978,-0.20608 -0.47968,-0.55785 -0.47968,-1.05529v-10.10518c0,-0.43348 0.14923,-0.79236 0.4477,-1.07661c0.30557,-0.28425 0.67865,-0.42638 1.11924,-0.42638c0.44059,0 0.7888,0.14923 1.04463,0.4477c0.26293,0.29136 0.3944,0.64312 0.3944,1.05529zM393.46756,284.47908c0.4477,0 0.69997,0 0.75682,0v-0.40506c0,-1.25071 -0.72129,-1.87607 -2.16387,-1.87607c-0.74616,0 -1.27558,0.0604 -1.58826,0.18121c-0.63957,0.23451 -1.11924,0.45125 -1.43903,0.65023c-0.31978,0.19187 -0.62891,0.28781 -0.92737,0.28781c-0.29136,0 -0.56851,-0.1137 -0.83144,-0.3411c-0.26293,-0.2274 -0.3944,-0.52942 -0.3944,-0.90606c0,-0.3411 0.15634,-0.64667 0.46902,-0.91671c1.08727,-1.04463 2.66842,-1.56694 4.74347,-1.56694c2.46589,0 4.06126,0.85986 4.7861,2.57959c0.23451,0.59693 0.35176,1.27558 0.35176,2.03596l-0.06396,7.24844c0,0.4548 -0.15634,0.80301 -0.46902,1.04463c-0.31268,0.24161 -0.64312,0.36242 -0.99133,0.36242c-0.34821,0 -0.68221,-0.10304 -1.00199,-0.30912c-0.31978,-0.21319 -0.47968,-0.57206 -0.47968,-1.07661h0.31978c-0.07817,0.66799 -0.85276,1.15833 -2.32377,1.47101c-0.43348,0.1137 -0.92737,0.17055 -1.48167,0.17055c-0.55429,0 -1.11214,-0.08528 -1.67354,-0.25583c-0.55429,-0.16345 -1.04818,-0.42638 -1.48167,-0.7888c-0.90961,-0.76038 -1.36441,-1.78369 -1.36441,-3.06993c0,-3.01308 2.41615,-4.51962 7.24844,-4.51962zM394.35229,286.96269c-0.02132,0.08528 -0.25583,0.12791 -0.70353,0.12791c-0.4477,0 -0.89184,0.00711 -1.33243,0.02132c-0.44059,0.00711 -0.8492,0.0533 -1.22584,0.13857c-0.36953,0.07817 -0.69997,0.19898 -0.99133,0.36242c-0.52587,0.27715 -0.80301,0.73195 -0.83144,1.36441c0,0.46191 0.19542,0.82788 0.58627,1.09793c0.32689,0.27004 0.81367,0.41217 1.46035,0.42638c0.79591,0 1.48167,-0.25227 2.05728,-0.75682c0.51165,-0.47612 0.79591,-1.21873 0.85276,-2.22783zM399.71599,281.28121c0,-0.4477 0.16345,-0.80301 0.49034,-1.06595c0.32689,-0.27004 0.66444,-0.40506 1.01265,-0.40506c0.70353,0 1.14767,0.24872 1.33243,0.74616c0.18477,0.49744 0.0533,1.10503 -0.3944,1.82277c-0.04974,-0.88829 0.40506,-1.59537 1.36441,-2.12124c0.81723,-0.4477 1.62379,-0.67155 2.4197,-0.67155c0.80301,0 1.48877,0.10304 2.05728,0.30912c0.56851,0.19898 1.09082,0.51165 1.56694,0.93803c0.95935,0.90961 1.43903,2.22072 1.43903,3.93335v6.65151c0,0.49034 -0.17766,0.85276 -0.53297,1.08727c-0.34821,0.23451 -0.69287,0.35176 -1.03397,0.35176c-0.39085,0 -0.74261,-0.12791 -1.05529,-0.38374c-0.30557,-0.25583 -0.45836,-0.60759 -0.45836,-1.05529v-6.77943c0,-0.82433 -0.21319,-1.44258 -0.63957,-1.85475c-0.39795,-0.39085 -0.8954,-0.58627 -1.49233,-0.58627c-0.86697,0 -1.60248,0.24517 -2.20651,0.7355c-0.57561,0.51165 -0.86342,1.33243 -0.86342,2.46234v6.0226c0,0.49034 -0.17055,0.85276 -0.51165,1.08727c-0.334,0.23451 -0.68576,0.35176 -1.05529,0.35176c-0.39795,0 -0.73906,-0.13147 -1.02331,-0.3944c-0.27715,-0.26293 -0.41572,-0.61114 -0.41572,-1.04463zM416.68223,287.29319v4.06126c0,0.49744 -0.16345,0.87408 -0.49034,1.1299c-0.31978,0.24872 -0.66799,0.37308 -1.04463,0.37308c-0.36953,0 -0.71063,-0.12791 -1.02331,-0.38374c-0.30557,-0.25583 -0.45836,-0.62891 -0.45836,-1.11924v-15.17909c0,-0.52587 0.15634,-0.90961 0.46902,-1.15122c0.31268,-0.24161 0.60404,-0.36242 0.87408,-0.36242c0.27004,0 0.501,0.01776 0.69287,0.0533c0.19898,0.03553 0.38019,0.14213 0.54363,0.31978c0.29136,0.24161 0.43704,0.6218 0.43704,1.14056v7.84537l4.46632,-3.74148c0.27715,-0.31268 0.60759,-0.46902 0.99133,-0.46902c0.37664,0 0.71063,0.13857 1.00199,0.41572c0.29136,0.27004 0.43704,0.5614 0.43704,0.87408c0,0.46191 -0.15279,0.80657 -0.45836,1.03397l-4.16785,3.48565l4.85006,4.90336c0.2274,0.2274 0.3411,0.49389 0.3411,0.79946c0,0.30557 -0.04974,0.54363 -0.14923,0.71418c-0.09238,0.17055 -0.21674,0.31978 -0.37308,0.4477c-0.31268,0.24872 -0.64667,0.37308 -1.00199,0.37308c-0.35532,0 -0.69287,-0.15989 -1.01265,-0.47968zM430.8884,286.33385c0,-1.87607 0.53653,-3.43946 1.60958,-4.69017c1.17965,-1.37152 2.71461,-2.05728 4.60489,-2.05728c1.59182,0 2.82476,0.34466 3.69884,1.03397c0.37664,0.27004 0.56495,0.60759 0.56495,1.01265c0,0.39795 -0.11725,0.72129 -0.35176,0.97001c-0.2274,0.24872 -0.49744,0.37308 -0.81012,0.37308c-0.31268,0 -0.55074,-0.06396 -0.71418,-0.19187c-0.68931,-0.39085 -1.42482,-0.57917 -2.20651,-0.56495c-0.95935,0 -1.71262,0.35887 -2.25981,1.07661c-0.64667,0.7817 -0.97001,1.79435 -0.97001,3.03795c0,1.16544 0.23451,2.14255 0.70353,2.93136c0.51165,0.82433 1.35375,1.2365 2.5263,1.2365c0.66799,0 1.49943,-0.23806 2.49432,-0.71418c0.54719,-0.31978 1.02686,-0.24161 1.43903,0.23451c0.2274,0.2274 0.3411,0.53653 0.3411,0.92737c0,0.38374 -0.18477,0.72484 -0.55429,1.02331c-0.36953,0.29847 -0.77459,0.51876 -1.21518,0.66089c-0.97357,0.334 -1.92936,0.49744 -2.8674,0.49034c-0.93093,-0.00711 -1.78013,-0.18477 -2.54761,-0.53297c-0.76748,-0.35532 -1.40705,-0.87052 -1.91871,-1.54562c-1.04463,-1.25071 -1.56694,-2.82121 -1.56694,-4.71149zM449.51837,284.47908c0.4477,0 0.69997,0 0.75682,0v-0.40506c0,-1.25071 -0.72129,-1.87607 -2.16387,-1.87607c-0.74616,0 -1.27558,0.0604 -1.58826,0.18121c-0.63957,0.23451 -1.11924,0.45125 -1.43903,0.65023c-0.31978,0.19187 -0.62891,0.28781 -0.92737,0.28781c-0.29136,0 -0.56851,-0.1137 -0.83144,-0.3411c-0.26293,-0.2274 -0.3944,-0.52942 -0.3944,-0.90606c0,-0.3411 0.15634,-0.64667 0.46902,-0.91671c1.08727,-1.04463 2.66842,-1.56694 4.74347,-1.56694c2.46589,0 4.06126,0.85986 4.7861,2.57959c0.23451,0.59693 0.35176,1.27558 0.35176,2.03596l-0.06396,7.24844c0,0.4548 -0.15634,0.80301 -0.46902,1.04463c-0.31268,0.24161 -0.64312,0.36242 -0.99133,0.36242c-0.34821,0 -0.68221,-0.10304 -1.00199,-0.30912c-0.31978,-0.21319 -0.47968,-0.57206 -0.47968,-1.07661h0.31978c-0.07817,0.66799 -0.85276,1.15833 -2.32377,1.47101c-0.43348,0.1137 -0.92737,0.17055 -1.48167,0.17055c-0.55429,0 -1.11214,-0.08528 -1.67354,-0.25583c-0.55429,-0.16345 -1.04818,-0.42638 -1.48167,-0.7888c-0.90961,-0.76038 -1.36441,-1.78369 -1.36441,-3.06993c0,-3.01308 2.41615,-4.51962 7.24844,-4.51962zM450.40309,286.96269c-0.02132,0.08528 -0.25583,0.12791 -0.70353,0.12791c-0.4477,0 -0.89184,0.00711 -1.33243,0.02132c-0.44059,0.00711 -0.8492,0.0533 -1.22584,0.13857c-0.36953,0.07817 -0.69997,0.19898 -0.99133,0.36242c-0.52587,0.27715 -0.80301,0.73195 -0.83144,1.36441c0,0.46191 0.19542,0.82788 0.58627,1.09793c0.32689,0.27004 0.81367,0.41217 1.46035,0.42638c0.79591,0 1.48167,-0.25227 2.05728,-0.75682c0.51165,-0.47612 0.79591,-1.21873 0.85276,-2.22783zM462.87667,291.06665c-0.24872,0.57561 -0.53653,1.01976 -0.86342,1.33243c-0.31978,0.30557 -0.77104,0.45836 -1.35375,0.45836c-0.58983,0 -1.05173,-0.14923 -1.38573,-0.4477c-0.32689,-0.30557 -0.58627,-0.76038 -0.77814,-1.36441l-3.90135,-9.16715c-0.3411,-0.62535 -0.19187,-1.17254 0.4477,-1.64156c0.27715,-0.21319 0.58272,-0.35532 0.91671,-0.42638c0.78168,0 1.27201,0.35887 1.47099,1.07661l3.21916,7.71746l3.11257,-7.73878c0.2274,-0.63246 0.66444,-0.98423 1.31112,-1.05529c0.65378,0 1.14056,0.26649 1.46035,0.79946c0.16345,0.24872 0.22385,0.47257 0.18121,0.67155c-0.03553,0.19898 -0.07817,0.38019 -0.12791,0.54363zM479.75628,285.98204c0,0.7888 -0.42993,1.21873 -1.2898,1.2898h-8.03724c0.06396,1.49233 0.77104,2.50853 2.12124,3.04861c0.36242,0.12081 0.79946,0.18121 1.31112,0.18121c1.05173,0 2.14255,-0.39795 3.27246,-1.19386c0.63246,-0.36242 1.1832,-0.31623 1.65222,0.13857c0.27715,0.29847 0.36953,0.58983 0.27715,0.87408c0,0.39795 -0.13147,0.71418 -0.3944,0.94869c-1.25071,1.2436 -2.89582,1.8583 -4.93534,1.84409c-1.87607,0 -3.38971,-0.61114 -4.54094,-1.83343c-1.27914,-1.25782 -1.91871,-2.90648 -1.91871,-4.946c0,-1.86896 0.52231,-3.42169 1.56694,-4.65819c1.1228,-1.39284 2.68974,-2.08926 4.70083,-2.08926c2.01109,0 3.55671,0.61825 4.63687,1.85475c1.0091,1.10148 1.53496,2.61513 1.5776,4.54094zM476.75031,284.86277c-0.03553,-0.59693 -0.3411,-1.21163 -0.91671,-1.84409c-0.51876,-0.54719 -1.28269,-0.82078 -2.29179,-0.82078c-0.83854,0 -1.55628,0.31268 -2.15321,0.93803c-0.55429,0.64667 -0.8492,1.22229 -0.88474,1.72683z" fill="#b5d9a8" stroke="none" stroke-width="1" stroke-linecap="square"/><path d="M-43.08974,-69.95194l259.62957,-0.7993l-98.50969,69.37877c0,0 -26.26828,-0.5221 -39.3443,-0.44912c-13.24613,0.07394 -39.99689,1.55658 -39.99689,1.55658c0,0 -80.76469,2.09625 -81.7787,72.88589c0.14736,37.78565 0,74.62944 0,147.61277c-1.92537,-0.36802 -3.93038,-5.49042 -5.82558,-5.49042c-3.03411,0 -12.64748,7.54171 -15.57174,7.1486c-0.58719,-0.07894 -1.17236,-0.15065 -1.75573,-0.21606c-0.03781,-4.40826 -0.65709,-8.96395 -1.03437,-13.12973c-0.43744,-4.83001 -9.10284,-9.10478 -9.31822,-10.90886c-0.53491,-4.4805 -2.47184,-20.28148 2.29306,-26.80957c3.99919,-5.47904 2.92634,-3.26469 1.70434,-6.84933c-0.51695,-1.51645 -2.44468,-1.7527 -4.18578,-2.17513c-0.03297,-1.90057 -0.0848,-3.80182 -0.07976,-5.70101c0,0 0,-0.2504 -0.03962,-0.67195c-0.01654,-0.78544 -0.04019,-1.57098 -0.06854,-2.35658c0.07126,-0.48166 0.10817,-0.97451 0.10817,-1.47598c0,-0.02007 -0.00006,-0.04012 -0.00018,-0.06015c3.00318,-2.96278 3.00318,-7.44735 3.00318,-7.44735c0,-6.79989 -0.60894,-13.62537 -0.01932,-20.39965c0.56011,-6.43522 1.61844,-12.81731 2.4228,-19.22658c0.83014,-6.61478 1.67674,-13.22754 2.48069,-19.84556c0.28364,-2.33485 0.03414,-4.78263 0.78203,-7.01257c1.16333,-3.46864 13.40954,-28.6939 12.00435,-33.72641c-1.4091,-5.04651 -7.01013,-7.76031 -11.50385,-10.70828c0.42182,-1.65978 1.00525,-3.28471 1.26589,-4.97624c0.55723,-3.61633 0.65852,-9.68109 0.63139,-15.20081c1.36565,-5.93997 2.3952,-10.50541 2.42556,-10.89918c0.46448,-6.02433 -0.6583,-12.1007 -1.76735,-18.04025c-0.09147,-0.48989 -0.23346,-0.96498 -0.40754,-1.43069c0.22689,-10.79083 0.44259,-21.58184 0.60214,-32.37399c0.14209,-0.54616 1.00798,-3.8671 2.1691,-8.32887c1.64885,-3.95766 3.2977,-7.91533 4.94655,-11.873z" fill="url(#color-31)" stroke="none" stroke-width="0" stroke-linecap="butt"/><path d="M145.12632,-84.51451c0,18.24364 -13.10878,33.03303 -29.27928,33.03303c-16.1705,0 -29.27928,-14.78939 -29.27928,-33.03303c0,-18.24364 13.10878,-33.03304 29.27928,-33.03304c16.1705,0 29.27928,14.78939 29.27928,33.03303z" fill="none" stroke="none" stroke-width="0" stroke-linecap="butt"/><g stroke="none" stroke-width="0" stroke-linecap="butt"><path d="M201.48679,170.48771c0,-10.01702 0,-45.92726 0,-45.92726h73.64024c0,0 0,31.48132 0,40.42726c0,3.24372 -15.08192,16.6298 -15.08192,16.6298c0,0 -37.20201,0 -47.50715,0c-4.97026,0 -11.05117,-3.00339 -11.05117,-11.1298z" fill="url(#color-32)"/><path d="M209.03528,181.1419v-57.18146h66.09174c0,0 0,34.04008 0,44.3892c0,9.92476 -7.73807,13.26786 -13.8242,13.26786c-8.40577,0 -36.9392,0 -47.91546,0c-0.83448,0 -1.85319,-0.01094 -2.46815,-0.09202c-1.38357,-0.18241 -1.88393,-0.38358 -1.88393,-0.38358z" fill="url(#color-33)"/></g></g></g></svg>