<svg version="1.1" xmlns="http://www.w3.org/2000/svg" xmlns:xlink="http://www.w3.org/1999/xlink" width="500.8382" height="352.85285" viewBox="0,0,500.8382,352.85285"><defs><linearGradient x1="106.18767" y1="74.95211" x2="106.18767" y2="242.04044" gradientUnits="userSpaceOnUse" id="color-1"><stop offset="0" stop-color="#7cc8ff"/><stop offset="1" stop-color="#aeddff"/></linearGradient><linearGradient x1="100.37165" y1="4.64113" x2="100.37165" y2="129.26576" gradientUnits="userSpaceOnUse" id="color-2"><stop offset="0" stop-color="#9fd7ff" stop-opacity="0"/><stop offset="1" stop-color="#9fd7ff"/></linearGradient><linearGradient x1="117.37165" y1="4.14113" x2="117.37165" y2="128.76576" gradientUnits="userSpaceOnUse" id="color-3"><stop offset="0" stop-color="#9fd7ff" stop-opacity="0"/><stop offset="1" stop-color="#9fd7ff"/></linearGradient><linearGradient x1="43.84884" y1="172.129" x2="237.60158" y2="172.129" gradientUnits="userSpaceOnUse" id="color-4"><stop offset="0" stop-color="#57b9ff" stop-opacity="0"/><stop offset="1" stop-color="#57b9ff"/></linearGradient><linearGradient x1="238.30531" y1="104.00495" x2="238.30531" y2="351.1521" gradientUnits="userSpaceOnUse" id="color-5"><stop offset="0" stop-color="#57b9ff"/><stop offset="1" stop-color="#b1dfff"/></linearGradient></defs><g transform="translate(15.23686,-6.50697)"><g data-paper-data="{&quot;isPaintingLayer&quot;:true}" fill-rule="nonzero" stroke="none" stroke-width="0" stroke-linecap="butt" stroke-linejoin="miter" stroke-miterlimit="10" stroke-dasharray="" stroke-dashoffset="0" style="mix-blend-mode: normal"><path d="M279.81775,230.6621l6.75,-161.76239c0,0 2.79411,3.25 7.43226,3c5.04526,-0.27194 7.16978,-3 7.16978,-3c0,0 49.56437,-46.95574 60.47817,-57.29511c4.0507,-3.83752 12.4273,-3.6237 16.25129,0.36174c10.04284,10.46683 91.62704,92.93337 91.62704,92.93337l-37,125.76239z" fill="#80caff"/><path d="M9.3113,242.04044v-137.61875c0,0 26.52721,-0.15914 33.79912,-0.20277c3.46512,-0.02079 7.76074,-3.97141 7.82557,-6.91963c0.06957,-3.16363 0.23042,-9.27138 0.34936,-14.68005c0.08102,-3.68468 4.48729,-7.68277 7.8298,-7.66708c19.70788,0.09245 86.09473,0.41514 97.77668,0.46923c3.24946,0.01505 7.24057,4.06411 7.24057,7.78764c0,5.55224 0.00001,11.88624 0.00001,15.00279c0,2.71949 3.48252,6.20987 6.6395,6.20987c6.77735,0 32.29212,0 32.29212,0v137.61875z" fill="url(#color-1)"/><path d="" fill="url(#color-2)"/><path d="" fill="url(#color-3)"/><path d="M43.84884,241.04044v-137.61875c0,0 26.52721,-0.15914 33.79912,-0.20277c3.46512,-0.02079 124.50451,0.20277 127.66149,0.20277c6.77735,0 32.29212,0 32.29212,0v137.61875z" fill="url(#color-4)"/><path d="M124.73768,266.20264v-161.76239h48.28729v161.76239z" fill="#57b9ff"/><path d="M168.21416,266.20264v-161.76239h21.35204c0,0 49.56437,-46.95574 60.47817,-57.29511c4.0507,-3.83752 12.4273,-3.6237 16.25129,0.36174c10.04284,10.46683 54.62704,56.93337 54.62704,56.93337v161.76239z" fill="#57b9ff"/><path d="M261.31523,300.75411v-197.37427h150.57501v197.37427z" fill="#57b9ff"/><path d="M7.41041,351.1521v-247.14715h461.78979v247.14715z" fill="url(#color-5)"/><path d="M-15.23685,359.35982v-352.85285h493.99399v352.85285z" fill="none"/><path d="M485.60135,133.97913c0,32.75563 -13.10625,59.30931 -29.27363,59.30931c-16.16738,0 -29.27362,-26.55369 -29.27362,-59.30931c0,-32.75563 13.10625,-59.3093 29.27362,-59.3093c16.16738,0 29.27363,26.55369 29.27363,59.30932z" fill="none"/></g></g></svg>