<svg version="1.1" xmlns="http://www.w3.org/2000/svg" xmlns:xlink="http://www.w3.org/1999/xlink" width="770.05527" height="580.82198" viewBox="0,0,770.05527,580.82198"><defs><linearGradient x1="226.0621" y1="296.82327" x2="222.75095" y2="320.12489" gradientUnits="userSpaceOnUse" id="color-1"><stop offset="0" stop-color="#ecd284"/><stop offset="1" stop-color="#c5af6e"/></linearGradient><linearGradient x1="102.20135" y1="51.03443" x2="102.20135" y2="63.91633" gradientUnits="userSpaceOnUse" id="color-2"><stop offset="0" stop-color="#a38f68"/><stop offset="1" stop-color="#b7a175"/></linearGradient><linearGradient x1="61.43926" y1="51.03443" x2="61.43926" y2="63.91633" gradientUnits="userSpaceOnUse" id="color-3"><stop offset="0" stop-color="#a38f68"/><stop offset="1" stop-color="#b7a175"/></linearGradient><linearGradient x1="247.62545" y1="-45.06166" x2="247.62545" y2="-32.17976" gradientUnits="userSpaceOnUse" id="color-4"><stop offset="0" stop-color="#a38f68"/><stop offset="1" stop-color="#b7a175"/></linearGradient><linearGradient x1="288.38754" y1="-45.06166" x2="288.38754" y2="-32.17976" gradientUnits="userSpaceOnUse" id="color-5"><stop offset="0" stop-color="#a38f68"/><stop offset="1" stop-color="#b7a175"/></linearGradient><linearGradient x1="-30.43833" y1="-24.40256" x2="-30.43833" y2="-0.86687" gradientUnits="userSpaceOnUse" id="color-6"><stop offset="0" stop-color="#ecd284"/><stop offset="1" stop-color="#c5af6e"/></linearGradient><linearGradient x1="118.75013" y1="-88.36157" x2="111.84885" y2="-65.86042" gradientUnits="userSpaceOnUse" id="color-7"><stop offset="0" stop-color="#ecd284"/><stop offset="1" stop-color="#c5af6e"/></linearGradient><linearGradient x1="493.56467" y1="-20.68184" x2="493.56467" y2="2.85385" gradientUnits="userSpaceOnUse" id="color-8"><stop offset="0" stop-color="#ecd284"/><stop offset="1" stop-color="#c5af6e"/></linearGradient><linearGradient x1="587.20358" y1="108.0168" x2="580.30229" y2="130.51795" gradientUnits="userSpaceOnUse" id="color-9"><stop offset="0" stop-color="#ecd284"/><stop offset="1" stop-color="#c5af6e"/></linearGradient><linearGradient x1="536.07493" y1="39.95373" x2="532.52398" y2="63.22002" gradientUnits="userSpaceOnUse" id="color-10"><stop offset="0" stop-color="#ecd284"/><stop offset="1" stop-color="#c5af6e"/></linearGradient></defs><g transform="translate(121.81602,144.52552)"><g data-paper-data="{&quot;isPaintingLayer&quot;:true}" fill-rule="nonzero" stroke="none" stroke-linecap="butt" stroke-linejoin="miter" stroke-miterlimit="10" stroke-dasharray="" stroke-dashoffset="0" style="mix-blend-mode: normal"><g><path d="M263.94247,312.46934c-0.02338,0.22058 -0.76885,16.03719 -1.38954,26.81848c-0.32234,5.59899 -3.73859,9.68679 -8.52543,9.45234c-16.89889,-0.82768 -55.99236,-2.74242 -63.3781,-3.10415c-6.16049,-0.30173 -8.22649,-5.42095 -8.04343,-9.1586c0.32716,-6.67955 1.36771,-27.9248 1.36771,-27.9248z" data-paper-data="{&quot;index&quot;:null}" fill="#e4cb7f" stroke-width="0"/><path d="M183.57903,315.98445l0.65102,-13.29183l79.9404,3.91536l-0.65102,13.29181z" data-paper-data="{&quot;index&quot;:null}" fill="#b7a367" stroke-width="0"/><path d="M186.47409,298.42945c7.5316,0.36888 76.54665,3.74912 76.54665,3.74912c0,0 4.67581,-0.29748 4.48475,3.61645c0.09107,0.85091 -0.51083,10.33415 -0.51083,10.33415c0,0 -0.36472,2.86022 -2.76194,2.80826c-2.46237,-0.05339 -6.02715,-0.59174 -9.82545,-1.22507c-5.67083,-0.94556 -11.86216,-2.10278 -15.68232,-2.17363c-12.53282,-0.23243 -20.88752,-2.22998 -33.4239,-2.37462c-7.26392,-0.0838 -16.80607,0.82618 -21.49438,1.33173c-1.77209,0.19108 -2.78113,-1.09609 -2.68799,-2.99789c0.1402,-2.86248 0.3338,-6.81537 0.42397,-8.6563c0.09343,-1.90751 2.31468,-4.54035 4.93144,-4.41219z" data-paper-data="{&quot;index&quot;:null}" fill="url(#color-1)" stroke-width="0"/><path d="M238.8305,333.45642c-0.10349,2.11296 -2.28007,3.72276 -4.07268,3.63495c-2.62226,-0.12844 -10.14497,-0.49689 -15.07809,-0.7385c-2.64609,-0.1296 -4.42891,-2.6364 -4.33137,-4.62789c0.07034,-1.43614 0.21711,-4.43254 0.32191,-6.5725c0.09333,-1.9056 2.28187,-3.72266 5.12109,-3.58361c4.70735,0.23055 11.46182,0.56138 14.11153,0.69117c2.27447,0.11141 4.34991,2.57371 4.26843,4.23726c-0.07196,1.46904 -0.21981,4.48806 -0.34085,6.95912z" data-paper-data="{&quot;index&quot;:null}" fill="#e9d18c" stroke-width="NaN"/><path d="M219.45679,338.48586c-0.10349,2.11296 -2.28007,3.72276 -4.07269,3.63496c-2.62226,-0.12844 -10.14497,-0.49689 -15.07809,-0.7385c-2.64609,-0.12959 -4.42891,-2.6364 -4.33137,-4.62789c0.07035,-1.43615 0.21712,-4.43254 0.32192,-6.5725c0.09332,-1.9056 2.28187,-3.72267 5.12109,-3.58361c4.70735,0.23055 11.46181,0.56138 14.11153,0.69117c2.27448,0.11141 4.34992,2.5737 4.26843,4.23725c-0.07196,1.46904 -0.21981,4.48807 -0.34085,6.95912z" data-paper-data="{&quot;index&quot;:null}" fill="#e9d18c" stroke-width="NaN"/></g><path d="M100.90392,129.56019v306.73627l-40.82272,-2.36718v-304.36908z" fill="#75674b" stroke-width="0"/><path d="M63.55998,132.25217c0,-2.4559 0,-5.45641 0,-6.91645c0,-1.65335 2.17734,-3.99392 4.43787,-3.99392c2.63347,0 9.34651,0 14.025,0c2.82181,0 4.90348,1.90788 4.90348,3.80179c0,2.12683 0,5.10487 0,6.5322c0,1.97927 -1.88936,4.37817 -4.51923,4.37817c-4.90287,0 -12.37945,0 -14.98562,0c-1.78161,0 -3.86151,-1.7018 -3.86151,-3.80179z" fill="#645a42" stroke-width="NaN"/><path d="M60.0812,259.67431c0,0 0,-109.63004 0,-139.7534c0,-19.3673 -19.02089,-22.91075 -19.02089,-22.91075h78.32105c0,0 -18.47744,4.13633 -18.47744,21.82384c0,29.82438 0,140.84031 0,140.84031z" fill="#75674b" stroke-width="0"/><path d="M60.0812,119.92087c0,0 -0.03538,-1.64109 -0.10308,-2.41848c-1.50218,-17.24788 -18.91781,-20.49228 -18.91781,-20.49228h78.32105c0,0 -16.88933,4.27756 -18.37355,20.11038c-0.06821,0.72766 -0.10389,2.59686 -0.10389,2.59686z" fill="#5d523b" stroke-width="0"/><path d="M14.488,92.30204c0,-2.63867 0,-25.63301 0,-33.63374c0,-3.85627 2.59203,2.56424 5.91435,2.56424c9.81437,0 60.40946,0 103.7923,0c0.3169,7.07168 0.63917,14.14369 1.15928,21.18972c0.24207,3.27939 0.86026,6.52944 0.98907,9.81523c0.08175,2.08546 0.13317,3.91836 0.1594,5.57084c-44.23373,0 -97.0038,0 -106.6435,0c-3.04029,0 -5.37089,-2.51401 -5.37089,-5.50629z" fill="#b7a175" stroke-width="0"/><path d="M14.488,63.19173c0,0 0,-3.89316 0,-5.54324c0,-3.85627 2.59203,-6.61406 5.91435,-6.61406c9.77858,0 60.04106,0 103.31749,0c0.2118,4.20089 0.39279,8.40636 0.58342,12.6109z" fill="url(#color-2)" stroke-width="0"/><path d="M63.55998,147.31523c0,-2.4559 0,-5.45641 0,-6.91645c0,-1.65335 2.17734,-3.99392 4.43787,-3.99392c2.63347,0 9.34651,0 14.025,0c2.82181,0 4.90348,1.90788 4.90348,3.80179c0,2.12683 0,5.10487 0,6.5322c0,1.97927 -1.88936,4.37817 -4.51923,4.37817c-4.90287,0 -12.37945,0 -14.98562,0c-1.78161,0 -3.86151,-1.7018 -3.86151,-3.80179z" fill="#645a42" stroke-width="NaN"/><path d="M53.68544,95.49569c0,32.75563 -12.21082,59.30931 -27.27362,59.30931c-15.06281,0 -27.27362,-26.55368 -27.27362,-59.30931c0,-32.75563 12.21082,-59.30931 27.27362,-59.30931c15.06281,0 27.27362,26.55369 27.27362,59.30931z" fill="none" stroke-width="0"/><g stroke-width="0"><path d="M149.15259,92.30204c0,2.99228 -2.3306,5.50629 -5.37089,5.50629c-9.6397,0 -62.40976,0 -106.64349,0c0.02623,-1.65249 0.07764,-3.48539 0.1594,-5.57085c0.12881,-3.28579 0.74699,-6.53583 0.98907,-9.81522c0.52011,-7.04603 0.84239,-14.11804 1.15929,-21.18972c43.38284,0 93.97793,0 103.7923,0c3.32232,0 5.91435,-6.42051 5.91435,-2.56424c0,8.00073 0,30.99507 0,33.63374z" data-paper-data="{&quot;index&quot;:null}" fill="#b7a175"/><path d="M39.33733,63.64533c0.19063,-4.20453 0.37162,-8.41001 0.58342,-12.6109c43.27643,0 93.53891,0 103.31749,0c3.32232,0 5.91435,2.75779 5.91435,6.61406c0,1.65008 0,5.54324 0,5.54324z" data-paper-data="{&quot;index&quot;:null}" fill="url(#color-3)"/><path d="M137.22878,36.18638c15.0628,0 27.27362,26.55368 27.27362,59.30931c0,32.75563 -12.21081,59.30931 -27.27362,59.30931c-15.0628,0 -27.27362,-26.55368 -27.27362,-59.30931c0,-32.75562 12.21081,-59.30931 27.27362,-59.30931z" data-paper-data="{&quot;index&quot;:null}" fill="none"/></g><path d="M72.55998,181.31523c0,-2.4559 0,-5.45641 0,-6.91645c0,-1.65335 2.17734,-3.99392 4.43787,-3.99392c2.63347,0 9.34651,0 14.025,0c2.82181,0 4.90348,1.90788 4.90348,3.80179c0,2.12683 0,5.10487 0,6.5322c0,1.97927 -1.88936,4.37817 -4.51923,4.37817c-4.90287,0 -12.37945,0 -14.98562,0c-1.78161,0 -3.86151,-1.7018 -3.86151,-3.80179z" fill="#645a42" stroke-width="NaN"/><path d="M67.54495,252.8768c0,-2.4559 0,-5.45641 0,-6.91645c0,-1.65335 2.17734,-3.99392 4.43787,-3.99392c2.63347,0 9.34651,0 14.025,0c2.82181,0 4.90348,1.90788 4.90348,3.80179c0,2.12683 0,5.10487 0,6.5322c0,1.97927 -1.88936,4.37817 -4.51923,4.37817c-4.90287,0 -12.37945,0 -14.98562,0c-1.78161,0 -3.86151,-1.7018 -3.86151,-3.80179z" fill="#645a42" stroke-width="NaN"/><path d="M71.04345,265.38431c0,-2.4559 0,-5.45641 0,-6.91645c0,-1.65335 2.17734,-3.99392 4.43787,-3.99392c2.63347,0 9.34651,0 14.025,0c2.82181,0 4.90348,1.90788 4.90348,3.80179c0,2.12683 0,5.10487 0,6.5322c0,1.97927 -1.88936,4.37817 -4.51923,4.37817c-4.90287,0 -12.37945,0 -14.98562,0c-1.78161,0 -3.86151,-1.7018 -3.86151,-3.80179z" fill="#645a42" stroke-width="NaN"/><path d="M73.53596,365.4744c0,-2.4559 0,-5.45641 0,-6.91645c0,-1.65335 2.17734,-3.99392 4.43787,-3.99392c2.63347,0 9.34651,0 14.025,0c2.82181,0 4.90348,1.90788 4.90348,3.80179c0,2.12683 0,5.10487 0,6.5322c0,1.97927 -1.88936,4.37817 -4.51923,4.37817c-4.90287,0 -12.37945,0 -14.98562,0c-1.78161,0 -3.86151,-1.7018 -3.86151,-3.80179z" fill="#645a42" stroke-width="NaN"/><path d="M66.52393,379.48341c0,-2.4559 0,-5.45641 0,-6.91645c0,-1.65335 2.17734,-3.99392 4.43787,-3.99392c2.63347,0 9.34651,0 14.025,0c2.82181,0 4.90348,1.90788 4.90348,3.80179c0,2.12683 0,5.10487 0,6.5322c0,1.97927 -1.88936,4.37817 -4.51923,4.37817c-4.90287,0 -12.37945,0 -14.98562,0c-1.78161,0 -3.86151,-1.7018 -3.86151,-3.80179z" fill="#645a42" stroke-width="NaN"/><path d="M289.7456,33.46411v304.36908l-40.82272,2.36718v-306.73627z" data-paper-data="{&quot;index&quot;:null}" fill="#75674b" stroke-width="0"/><path d="M286.26683,36.15608c0,2.09999 -2.0799,3.80179 -3.86151,3.80179c-2.60617,0 -10.08275,0 -14.98562,0c-2.62987,0 -4.51923,-2.3989 -4.51923,-4.37817c0,-1.42733 0,-4.40537 0,-6.5322c0,-1.89391 2.08167,-3.80179 4.90348,-3.80179c4.67849,0 11.39153,0 14.025,0c2.26053,0 4.43787,2.34057 4.43787,3.99392c0,1.46004 0,4.46055 0,6.91645z" data-paper-data="{&quot;index&quot;:null}" fill="#645a42" stroke-width="NaN"/><path d="M248.92287,163.57822c0,0 0,-111.01593 0,-140.84031c0,-17.68751 -18.47744,-21.82384 -18.47744,-21.82384h78.32105c0,0 -19.02089,3.54345 -19.02089,22.91075c0,30.12336 0,139.7534 0,139.7534z" data-paper-data="{&quot;index&quot;:null}" fill="#75674b" stroke-width="0"/><path d="M248.92287,23.62126c0,0 -0.03568,-1.8692 -0.10389,-2.59686c-1.48422,-15.83282 -18.37355,-20.11038 -18.37355,-20.11038h78.32105c0,0 -17.41563,3.2444 -18.91781,20.49228c-0.0677,0.77739 -0.10308,2.41848 -0.10308,2.41848z" data-paper-data="{&quot;index&quot;:null}" fill="#5d523b" stroke-width="0"/><path d="M335.33879,-3.79405c0,2.99228 -2.3306,5.50629 -5.37089,5.50629c-9.6397,0 -62.40977,0 -106.6435,0c0.02623,-1.65248 0.07765,-3.48538 0.1594,-5.57084c0.12881,-3.28579 0.747,-6.53584 0.98907,-9.81523c0.52011,-7.04603 0.84238,-14.11804 1.15928,-21.18972c43.38284,0 93.97793,0 103.7923,0c3.32232,0 5.91435,-6.42051 5.91435,-2.56424c0,8.00073 0,30.99507 0,33.63374z" data-paper-data="{&quot;index&quot;:null}" fill="#b7a175" stroke-width="0"/><path d="M225.52354,-32.45076c0.19063,-4.20454 0.37162,-8.41001 0.58342,-12.6109c43.27643,0 93.53891,0 103.31749,0c3.32232,0 5.91435,2.75779 5.91435,6.61406c0,1.65008 0,5.54324 0,5.54324z" data-paper-data="{&quot;index&quot;:null}" fill="url(#color-4)" stroke-width="0"/><path d="M286.26683,51.21914c0,2.09999 -2.0799,3.80179 -3.86151,3.80179c-2.60617,0 -10.08275,0 -14.98562,0c-2.62987,0 -4.51923,-2.3989 -4.51923,-4.37817c0,-1.42733 0,-4.40537 0,-6.5322c0,-1.89391 2.08167,-3.80179 4.90348,-3.80179c4.67849,0 11.39153,0 14.025,0c2.26053,0 4.43787,2.34057 4.43787,3.99392c0,1.46004 0,4.46055 0,6.91645z" data-paper-data="{&quot;index&quot;:null}" fill="#645a42" stroke-width="NaN"/><path d="M323.41496,-59.90971c15.0628,0 27.27362,26.55368 27.27362,59.30931c0,32.75563 -12.21081,59.30931 -27.27362,59.30931c-15.0628,0 -27.27362,-26.55368 -27.27362,-59.30931c0,-32.75562 12.21081,-59.30931 27.27362,-59.30931z" data-paper-data="{&quot;index&quot;:null}" fill="none" stroke-width="0"/><g data-paper-data="{&quot;index&quot;:null}" stroke-width="0"><path d="M200.67417,-3.79405c0,-2.63867 0,-25.63301 0,-33.63374c0,-3.85627 2.59203,2.56424 5.91435,2.56424c9.81437,0 60.40946,0 103.7923,0c0.3169,7.07168 0.63918,14.14369 1.15929,21.18972c0.24208,3.27939 0.86026,6.52943 0.98907,9.81522c0.08176,2.08546 0.13317,3.91836 0.1594,5.57085c-44.23373,0 -97.00379,0 -106.64349,0c-3.04029,0 -5.37089,-2.51401 -5.37089,-5.50629z" data-paper-data="{&quot;index&quot;:null}" fill="#b7a175"/><path d="M200.67419,-32.90436c0,0 0,-3.89316 0,-5.54324c0,-3.85627 2.59203,-6.61406 5.91435,-6.61406c9.77858,0 60.04106,0 103.31749,0c0.2118,4.20089 0.39279,8.40637 0.58342,12.6109z" data-paper-data="{&quot;index&quot;:null}" fill="url(#color-5)"/><path d="M239.87164,-0.6004c0,32.75563 -12.21082,59.30931 -27.27362,59.30931c-15.06281,0 -27.27362,-26.55368 -27.27362,-59.30931c0,-32.75563 12.21082,-59.30931 27.27362,-59.30931c15.06281,0 27.27362,26.55369 27.27362,59.30931z" data-paper-data="{&quot;index&quot;:null}" fill="none"/></g><path d="M277.26683,85.21914c0,2.09999 -2.0799,3.80179 -3.86151,3.80179c-2.60617,0 -10.08275,0 -14.98562,0c-2.62987,0 -4.51923,-2.3989 -4.51923,-4.37817c0,-1.42733 0,-4.40537 0,-6.5322c0,-1.89391 2.08167,-3.80179 4.90348,-3.80179c4.67849,0 11.39153,0 14.025,0c2.26053,0 4.43787,2.34057 4.43787,3.99392c0,1.46004 0,4.46055 0,6.91645z" data-paper-data="{&quot;index&quot;:null}" fill="#645a42" stroke-width="NaN"/><path d="M282.28185,156.78071c0,2.09999 -2.0799,3.80179 -3.86151,3.80179c-2.60617,0 -10.08275,0 -14.98562,0c-2.62987,0 -4.51923,-2.3989 -4.51923,-4.37817c0,-1.42733 0,-4.40537 0,-6.5322c0,-1.89391 2.08167,-3.80179 4.90348,-3.80179c4.67849,0 11.39153,0 14.025,0c2.26053,0 4.43787,2.34057 4.43787,3.99392c0,1.46004 0,4.46055 0,6.91645z" data-paper-data="{&quot;index&quot;:null}" fill="#645a42" stroke-width="NaN"/><path d="M278.78334,169.28822c0,2.09999 -2.0799,3.80179 -3.86151,3.80179c-2.60617,0 -10.08275,0 -14.98562,0c-2.62987,0 -4.51923,-2.3989 -4.51923,-4.37817c0,-1.42733 0,-4.40537 0,-6.5322c0,-1.89391 2.08167,-3.80179 4.90348,-3.80179c4.67849,0 11.39153,0 14.025,0c2.26053,0 4.43787,2.34057 4.43787,3.99392c0,1.46004 0,4.46055 0,6.91645z" data-paper-data="{&quot;index&quot;:null}" fill="#645a42" stroke-width="NaN"/><path d="M276.29085,269.37831c0,2.09999 -2.0799,3.80179 -3.86151,3.80179c-2.60617,0 -10.08275,0 -14.98562,0c-2.62987,0 -4.51923,-2.3989 -4.51923,-4.37817c0,-1.42733 0,-4.40537 0,-6.5322c0,-1.89391 2.08167,-3.80179 4.90348,-3.80179c4.67849,0 11.39153,0 14.025,0c2.26053,0 4.43787,2.34057 4.43787,3.99392c0,1.46004 0,4.46055 0,6.91645z" data-paper-data="{&quot;index&quot;:null}" fill="#645a42" stroke-width="NaN"/><path d="M283.30286,283.38732c0,2.09999 -2.0799,3.80179 -3.86151,3.80179c-2.60617,0 -10.08275,0 -14.98562,0c-2.62987,0 -4.51923,-2.3989 -4.51923,-4.37817c0,-1.42733 0,-4.40537 0,-6.5322c0,-1.89391 2.08167,-3.80179 4.90348,-3.80179c4.67849,0 11.39153,0 14.025,0c2.26053,0 4.43787,2.34057 4.43787,3.99392c0,1.46004 0,4.46055 0,6.91645z" data-paper-data="{&quot;index&quot;:null}" fill="#645a42" stroke-width="NaN"/><path d="M249.06911,336.30748v-26.5h40.5v26.5z" fill="#5c513a" stroke-width="0"/><path d="M245.35815,340.40327c0,-13.80712 11.19288,-25 25,-25c13.80712,0 25,11.19288 25,25c0,13.80712 -11.19288,25 -25,25c-13.80712,0 -25,-11.19288 -25,-25z" fill="#756c5a" stroke-width="0.5"/><path d="M251.85815,340.65327c0,-10.35534 8.39466,-18.75 18.75,-18.75c10.35534,0 18.75,8.39466 18.75,18.75c0,10.35534 -8.39466,18.75 -18.75,18.75c-10.35534,0 -18.75,-8.39466 -18.75,-18.75z" fill="#655d4e" stroke-width="0.5"/><path d="M9.26648,-14.24138c0.00788,0.22168 1.49501,15.98585 2.39727,26.74723c0.46857,5.58866 -2.3386,10.11642 -7.11082,10.55774c-16.84726,1.558 -55.8213,5.16223 -63.18447,5.84316c-6.14167,0.56796 -8.90733,-4.20968 -9.25192,-7.93591c-0.61582,-6.65915 -2.57453,-27.83948 -2.57453,-27.83948z" data-paper-data="{&quot;index&quot;:null}" fill="#e4cb7f" stroke-width="0"/><path d="M-69.80316,0.54482l-1.22544,-13.25121l79.69616,-7.37012l1.22544,13.2512z" data-paper-data="{&quot;index&quot;:null}" fill="#b7a367" stroke-width="0"/><path d="M-69.40663,-17.24285c7.50859,-0.69438 76.31278,-7.05724 76.31278,-7.05724c0,0 4.58746,-0.95234 4.94893,2.94954c0.20987,0.82964 0.94813,10.30324 0.94813,10.30324c0,0 0.0413,2.88308 -2.33938,3.16889c-2.44539,0.29357 -6.05046,0.26208 -9.90008,0.16942c-5.74746,-0.13834 -12.04002,-0.41302 -15.83214,0.05428c-12.44088,1.53308 -20.99351,0.73078 -33.42555,2.35128c-7.20346,0.93897 -16.52269,3.18236 -21.09324,4.34245c-1.72758,0.43849 -2.90768,-0.69392 -3.08302,-2.58991c-0.26391,-2.85374 -0.62835,-6.79455 -0.79807,-8.62985c-0.17586,-1.90169 1.6529,-4.82084 4.26166,-5.06209z" data-paper-data="{&quot;index&quot;:null}" fill="url(#color-6)" stroke-width="0"/><path d="M-39.60609,15.44065c0.19523,2.11104 -1.7374,4.01515 -3.52839,4.18078c-2.61989,0.24228 -10.1358,0.93734 -15.06447,1.39313c-2.64371,0.24448 -4.76602,-1.99138 -4.95003,-3.98107c-0.13269,-1.43485 -0.40954,-4.42855 -0.60726,-6.56657c-0.17607,-1.90388 1.73919,-4.01532 4.57584,-4.27764c4.7031,-0.43493 11.45147,-1.059 14.0988,-1.30382c2.27243,-0.21015 4.67881,1.94032 4.83251,3.60237c0.13573,1.46772 0.41467,4.48402 0.64298,6.95284z" data-paper-data="{&quot;index&quot;:null}" fill="#e9d18c" stroke-width="NaN"/><path d="M-2.53314,10.2088c0.19523,2.11104 -1.7374,4.01515 -3.52839,4.18078c-2.61989,0.24228 -10.1358,0.93734 -15.06447,1.39313c-2.64371,0.24448 -4.76602,-1.99138 -4.95003,-3.98107c-0.13269,-1.43485 -0.40954,-4.42855 -0.60726,-6.56657c-0.17607,-1.90388 1.73919,-4.01532 4.57584,-4.27764c4.7031,-0.43493 11.45147,-1.059 14.0988,-1.30382c2.27243,-0.21015 4.67881,1.94032 4.83251,3.60237c0.13573,1.46772 0.41467,4.48402 0.64298,6.95284z" data-paper-data="{&quot;index&quot;:null}" fill="#e9d18c" stroke-width="NaN"/><path d="M4.41321,14.55982c0.17878,1.93325 -1.59108,3.67701 -3.23124,3.82869c-2.39925,0.22188 -9.28219,0.85839 -13.79579,1.2758c-2.42106,0.2239 -4.36465,-1.82367 -4.53315,-3.6458c-0.12151,-1.31401 -0.37505,-4.05559 -0.55612,-6.01356c-0.16124,-1.74354 1.59272,-3.67716 4.19048,-3.91739c4.30702,-0.39831 10.48706,-0.96982 12.91144,-1.19402c2.08105,-0.19245 4.28478,1.77691 4.42554,3.29898c0.1243,1.34411 0.37975,4.10639 0.58883,6.36729z" data-paper-data="{&quot;index&quot;:null}" fill="#e9d18c" stroke-width="NaN"/><path d="M153.73009,-67.00455c-0.05747,0.21425 -3.25817,15.72154 -5.55109,26.27445c-1.19077,5.4804 -5.2022,8.98599 -9.89406,8.00858c-16.56355,-3.45054 -54.88127,-11.43294 -62.12045,-12.94101c-6.03824,-1.2579 -7.2814,-6.6365 -6.51822,-10.29998c1.36388,-6.54701 5.70189,-27.37067 5.70189,-27.37067z" data-paper-data="{&quot;index&quot;:null}" fill="#e4cb7f" stroke-width="0"/><path d="M73.8004,-76.05357l2.71402,-13.02806l78.35408,16.32283l-2.71403,13.02805z" data-paper-data="{&quot;index&quot;:null}" fill="#b7a367" stroke-width="0"/><path d="M79.39532,-92.94309c7.38215,1.53786 75.02768,15.62986 75.02768,15.62986c0,0 4.66506,0.43468 3.86651,4.27104c-0.04263,0.85471 -2.11472,10.12836 -2.11472,10.12836c0,0 -0.80591,2.76846 -3.16575,2.34363c-2.42398,-0.43639 -5.86135,-1.52359 -9.51458,-2.74099c-5.45425,-1.81756 -11.38967,-3.92531 -15.15213,-4.5905c-12.34356,-2.1823 -20.28499,-5.45718 -32.64573,-7.55331c-7.16215,-1.21455 -16.72955,-1.80241 -21.43937,-2.03352c-1.78022,-0.08736 -2.57639,-1.51602 -2.18807,-3.38009c0.58448,-2.80569 1.39161,-6.68013 1.76751,-8.48452c0.38949,-1.86966 2.99384,-4.12426 5.55867,-3.58995z" data-paper-data="{&quot;index&quot;:null}" fill="url(#color-7)" stroke-width="0"/><path d="M100.80479,-55.39192c-0.43517,2.08893 -2.85676,3.35077 -4.62899,2.98158c-2.59246,-0.54006 -10.02967,-2.08939 -14.90672,-3.10539c-2.61602,-0.54497 -3.99833,-3.32276 -3.58818,-5.29161c0.29578,-1.41982 0.91291,-4.38217 1.35364,-6.49781c0.39246,-1.88395 2.85854,-3.35041 5.66549,-2.76565c4.65386,0.96949 11.33156,2.3606 13.95116,2.90632c2.24863,0.46844 3.92949,3.24789 3.58687,4.89253c-0.30256,1.45235 -0.92434,4.43706 -1.43326,6.88003z" data-paper-data="{&quot;index&quot;:null}" fill="#e9d18c" stroke-width="NaN"/><path d="M140.68943,-43.47539c-0.44546,2.13834 -2.92434,3.43003 -4.73849,3.0521c-2.65378,-0.55284 -10.26691,-2.13882 -15.25933,-3.17884c-2.6779,-0.55787 -4.09291,-3.40135 -3.67305,-5.41678c0.30278,-1.45341 0.9345,-4.48582 1.38565,-6.65151c0.40175,-1.92851 2.92614,-3.42966 5.79949,-2.83107c4.76394,0.99242 11.59959,2.41645 14.28116,2.97508c2.30181,0.47952 4.02244,3.3247 3.67171,5.00825c-0.30972,1.4867 -0.9462,4.54201 -1.46716,7.04277z" data-paper-data="{&quot;index&quot;:null}" fill="#e9d18c" stroke-width="NaN"/><path d="M111.56895,-47.92159c-0.43517,2.08893 -2.85676,3.35077 -4.62899,2.98158c-2.59246,-0.54006 -10.02967,-2.08939 -14.90673,-3.10539c-2.61602,-0.54497 -3.99833,-3.32276 -3.58818,-5.29161c0.29579,-1.41983 0.91291,-4.38217 1.35363,-6.49781c0.39247,-1.88395 2.85854,-3.35041 5.66548,-2.76566c4.65386,0.96949 11.33156,2.3606 13.95116,2.90632c2.24863,0.46843 3.92949,3.24788 3.58687,4.89253c-0.30256,1.45235 -0.92434,4.43706 -1.43326,6.88003z" data-paper-data="{&quot;index&quot;:null}" fill="#e9d18c" stroke-width="NaN"/><path d="M-121.81601,91.21022v-186.18619h147.14715v186.18619z" fill="none" stroke-width="0"/><path d="M115.42121,11.63064v-156.15616h63.06306v156.15616z" fill="none" stroke-width="0"/><path d="M533.26947,-10.52066c0.00788,0.22168 1.49501,15.98585 2.39727,26.74723c0.46857,5.58866 -2.3386,10.11642 -7.11082,10.55774c-16.84726,1.558 -55.8213,5.16223 -63.18447,5.84316c-6.14167,0.56796 -8.90733,-4.20968 -9.25192,-7.93591c-0.61582,-6.65915 -2.57453,-27.83948 -2.57453,-27.83948z" data-paper-data="{&quot;index&quot;:null}" fill="#e4cb7f" stroke-width="0"/><path d="M454.19984,4.26554l-1.22544,-13.25121l79.69616,-7.37012l1.22544,13.2512z" data-paper-data="{&quot;index&quot;:null}" fill="#b7a367" stroke-width="0"/><path d="M454.59637,-13.52213c7.50859,-0.69438 76.31278,-7.05724 76.31278,-7.05724c0,0 4.58746,-0.95234 4.94893,2.94954c0.20987,0.82964 0.94813,10.30324 0.94813,10.30324c0,0 0.0413,2.88308 -2.33938,3.16889c-2.44539,0.29357 -6.05046,0.26208 -9.90008,0.16942c-5.74746,-0.13834 -12.04002,-0.41302 -15.83214,0.05428c-12.44088,1.53308 -20.99351,0.73078 -33.42555,2.35128c-7.20346,0.93897 -16.52269,3.18236 -21.09324,4.34245c-1.72758,0.43849 -2.90768,-0.69392 -3.08302,-2.58991c-0.26391,-2.85374 -0.62835,-6.79455 -0.79807,-8.62985c-0.17586,-1.90169 1.6529,-4.82084 4.26166,-5.06209z" data-paper-data="{&quot;index&quot;:null}" fill="url(#color-8)" stroke-width="0"/><path d="M521.46985,13.92952c0.19523,2.11104 -1.7374,4.01515 -3.52839,4.18078c-2.61989,0.24228 -10.1358,0.93734 -15.06447,1.39313c-2.64371,0.24448 -4.76602,-1.99138 -4.95003,-3.98107c-0.13269,-1.43485 -0.40954,-4.42855 -0.60726,-6.56657c-0.17607,-1.90388 1.73919,-4.01532 4.57584,-4.27764c4.7031,-0.43493 11.45147,-1.059 14.0988,-1.30382c2.27243,-0.21015 4.67881,1.94032 4.83251,3.60237c0.13573,1.46772 0.41467,4.48402 0.64298,6.95284z" data-paper-data="{&quot;index&quot;:null}" fill="#e9d18c" stroke-width="NaN"/><path d="M622.18355,129.37382c-0.05747,0.21425 -3.25817,15.72154 -5.55109,26.27445c-1.19077,5.4804 -5.2022,8.98599 -9.89406,8.00858c-16.56355,-3.45054 -54.88127,-11.43294 -62.12045,-12.94101c-6.03824,-1.2579 -7.2814,-6.6365 -6.51822,-10.29998c1.36388,-6.54701 5.70189,-27.37067 5.70189,-27.37067z" data-paper-data="{&quot;index&quot;:null}" fill="#e4cb7f" stroke-width="0"/><path d="M542.25384,120.3248l2.71402,-13.02806l78.35408,16.32283l-2.71403,13.02805z" data-paper-data="{&quot;index&quot;:null}" fill="#b7a367" stroke-width="0"/><path d="M547.84876,103.43528c7.38215,1.53786 75.02768,15.62986 75.02768,15.62986c0,0 4.66506,0.43468 3.86651,4.27104c-0.04263,0.85471 -2.11472,10.12836 -2.11472,10.12836c0,0 -0.80591,2.76846 -3.16575,2.34363c-2.42398,-0.43639 -5.86135,-1.52359 -9.51458,-2.74099c-5.45425,-1.81756 -11.38967,-3.92531 -15.15213,-4.5905c-12.34356,-2.1823 -20.28499,-5.45718 -32.64573,-7.55331c-7.16215,-1.21455 -16.72955,-1.80241 -21.43937,-2.03352c-1.78022,-0.08736 -2.57639,-1.51602 -2.18807,-3.38009c0.58448,-2.80569 1.39161,-6.68013 1.76751,-8.48452c0.38949,-1.86966 2.99384,-4.12426 5.55867,-3.58995z" data-paper-data="{&quot;index&quot;:null}" fill="url(#color-9)" stroke-width="0"/><path d="M569.25825,140.98645c-0.43517,2.08893 -2.85676,3.35077 -4.62899,2.98158c-2.59246,-0.54006 -10.02967,-2.08939 -14.90672,-3.10539c-2.61602,-0.54497 -3.99833,-3.32276 -3.58818,-5.29161c0.29578,-1.41982 0.91291,-4.38217 1.35364,-6.49781c0.39246,-1.88395 2.85854,-3.35041 5.66549,-2.76565c4.65386,0.96949 11.33156,2.3606 13.95116,2.90632c2.24863,0.46844 3.92949,3.24789 3.58687,4.89253c-0.30256,1.45235 -0.92434,4.43706 -1.43326,6.88003z" data-paper-data="{&quot;index&quot;:null}" fill="#e9d18c" stroke-width="NaN"/><path d="M609.14288,152.90298c-0.44546,2.13834 -2.92434,3.43003 -4.73849,3.0521c-2.65378,-0.55284 -10.26691,-2.13882 -15.25933,-3.17884c-2.6779,-0.55787 -4.09291,-3.40135 -3.67305,-5.41678c0.30278,-1.45341 0.9345,-4.48582 1.38565,-6.65151c0.40175,-1.92851 2.92614,-3.42966 5.79949,-2.83107c4.76394,0.99242 11.59959,2.41645 14.28116,2.97508c2.30181,0.47952 4.02244,3.3247 3.67171,5.00825c-0.30972,1.4867 -0.9462,4.54201 -1.46716,7.04277z" data-paper-data="{&quot;index&quot;:null}" fill="#e9d18c" stroke-width="NaN"/><path d="M580.02239,148.45678c-0.43517,2.08893 -2.85676,3.35077 -4.62899,2.98158c-2.59246,-0.54006 -10.02967,-2.08939 -14.90673,-3.10539c-2.61602,-0.54497 -3.99833,-3.32276 -3.58818,-5.29161c0.29579,-1.41983 0.91291,-4.38217 1.35363,-6.49781c0.39247,-1.88395 2.85854,-3.35041 5.66548,-2.76566c4.65386,0.96949 11.33156,2.3606 13.95116,2.90632c2.24863,0.46843 3.92949,3.24788 3.58687,4.89253c-0.30256,1.45235 -0.92434,4.43706 -1.43326,6.88003z" data-paper-data="{&quot;index&quot;:null}" fill="#e9d18c" stroke-width="NaN"/><path d="M558.99861,192.10864l27.13714,-153.78011l62.1035,10.95923l-27.13714,153.78011z" fill="none" stroke-width="0"/><path d="M573.79215,55.98905c-0.02566,0.22034 -0.93396,16.02842 -1.66565,26.80274c-0.37998,5.59538 -3.83814,9.64778 -8.62232,9.36405c-16.88947,-1.00166 -55.96116,-3.31888 -63.34278,-3.75665c-6.15705,-0.36516 -8.17023,-5.50539 -7.94869,-9.24095c0.39592,-6.67583 1.6552,-27.90924 1.6552,-27.90924z" data-paper-data="{&quot;index&quot;:null}" fill="#e4cb7f" stroke-width="0"/><path d="M493.39674,58.67641l0.78785,-13.28441l79.89584,4.73837l-0.78786,13.2844z" data-paper-data="{&quot;index&quot;:null}" fill="#b7a367" stroke-width="0"/><path d="M496.47245,41.15217c7.52741,0.44643 76.50398,4.5372 76.50398,4.5372c0,0 4.67863,-0.24931 4.44727,3.66244c0.08229,0.85181 -0.61722,10.32835 -0.61722,10.32835c0,0 -0.39416,2.85631 -2.79071,2.77966c-2.46169,-0.07874 -6.02074,-0.65378 -9.81231,-1.32619c-5.66079,-1.0039 -11.83988,-2.22482 -15.6591,-2.33501c-12.52977,-0.36148 -20.86346,-2.44497 -33.39768,-2.7187c-7.26267,-0.1586 -16.81369,0.65307 -21.50695,1.1103c-1.77396,0.17282 -2.7697,-1.12467 -2.65698,-3.02542c0.16967,-2.8609 0.40397,-6.81157 0.51309,-8.65147c0.11307,-1.90645 2.36132,-4.51628 4.97662,-4.36117z" data-paper-data="{&quot;index&quot;:null}" fill="url(#color-10)" stroke-width="0"/><path d="M523.12216,75.18523c-0.12633,2.13003 -2.33834,3.73107 -4.14545,3.6239c-2.64347,-0.15677 -10.22702,-0.60653 -15.20004,-0.90147c-2.66749,-0.1582 -4.43959,-2.70507 -4.32053,-4.71266c0.08586,-1.44776 0.26502,-4.4684 0.39295,-6.62567c0.11392,-1.92102 2.34016,-3.73097 5.20234,-3.56121c4.74543,0.28143 11.55453,0.68526 14.22567,0.84367c2.29288,0.13599 4.36058,2.64103 4.26112,4.31803c-0.08783,1.48093 -0.26833,4.52437 -0.41606,7.01541z" data-paper-data="{&quot;index&quot;:null}" fill="#e9d18c" stroke-width="NaN"/><path d="M564.31697,81.16646c-0.12931,2.18042 -2.39366,3.81933 -4.24351,3.70961c-2.706,-0.16049 -10.46893,-0.62088 -15.55958,-0.92279c-2.73059,-0.16195 -4.54461,-2.76905 -4.42272,-4.82414c0.0879,-1.48201 0.27128,-4.57409 0.40224,-6.78239c0.11662,-1.96646 2.3955,-3.81922 5.32539,-3.64545c4.85768,0.28808 11.82783,0.70148 14.56217,0.86365c2.3471,0.1392 4.46372,2.70348 4.3619,4.42016c-0.08991,1.51595 -0.27467,4.63138 -0.4259,7.18135z" data-paper-data="{&quot;index&quot;:null}" fill="#e9d18c" stroke-width="NaN"/><path d="M534.85943,81.00838c-0.12633,2.13003 -2.33834,3.73107 -4.14545,3.6239c-2.64347,-0.15677 -10.22702,-0.60653 -15.20005,-0.90147c-2.66749,-0.1582 -4.43959,-2.70507 -4.32053,-4.71266c0.08587,-1.44777 0.26502,-4.4684 0.39294,-6.62567c0.11393,-1.92102 2.34016,-3.73097 5.20233,-3.56122c4.74543,0.28143 11.55453,0.68526 14.22567,0.84367c2.29287,0.13598 4.36058,2.64102 4.26112,4.31803c-0.08783,1.48093 -0.26833,4.52437 -0.41606,7.01541z" data-paper-data="{&quot;index&quot;:null}" fill="#e9d18c" stroke-width="NaN"/><path d="M547.34304,139.36476l-22.74052,-154.49147l62.39078,-9.18367l22.74052,154.49147z" fill="none" stroke-width="0"/></g></g></svg>