<svg version="1.1" xmlns="http://www.w3.org/2000/svg" xmlns:xlink="http://www.w3.org/1999/xlink" width="239.25426" height="67.58034" viewBox="0,0,239.25426,67.58034"><defs><linearGradient x1="239.99998" y1="205.20983" x2="239.99998" y2="272.79017" gradientUnits="userSpaceOnUse" id="color-1"><stop offset="0" stop-color="#ffca1b"/><stop offset="1" stop-color="#dbb432"/></linearGradient></defs><g transform="translate(-120.37287,-205.20983)"><g data-paper-data="{&quot;isPaintingLayer&quot;:true}" fill-rule="nonzero" stroke="none" stroke-linecap="butt" stroke-linejoin="miter" stroke-miterlimit="10" stroke-dasharray="" stroke-dashoffset="0" style="mix-blend-mode: normal"><path d="M142.56167,272.70601v-44.04227h190.2251v44.04227z" fill="#d2a617" stroke-width="0"/><path d="M334.62713,222.79017c13.80712,0 25,11.19288 25,25c0,13.80712 -11.19288,25 -25,25c-7.65738,0 -14.51068,-3.44268 -19.09655,-8.86468c-1.25232,0.19314 -2.53533,0.29335 -3.84172,0.29335c-6.33076,0 -12.11191,-2.35314 -16.51652,-6.23246c-4.4046,3.87933 -10.18576,6.23246 -16.51652,6.23246c-7.08585,0 -13.48317,-2.94795 -18.03242,-7.68429c-0.97993,0.11673 -1.97726,0.17678 -2.98861,0.17678c-5.30223,0 -10.21893,-1.65063 -14.26427,-4.46609c-4.04534,2.81545 -8.96204,4.46609 -14.26426,4.46609c-6.71196,0 -12.80614,-2.64505 -17.29702,-6.94966c-4.58063,5.18292 -11.27815,8.45116 -18.73901,8.45116c-5.74721,0 -11.04146,-1.93932 -15.26406,-5.19926c-2.63929,1.18951 -5.52218,1.93427 -8.5532,2.13881c-3.16123,10.18343 -12.65703,17.5788 -23.8801,17.5788c-13.80712,0 -25,-11.19288 -25,-25c0,-13.23297 10.28136,-24.0646 23.29173,-24.94256c3.16124,-10.18344 12.65703,-17.57879 23.8801,-17.57879c5.74721,0 11.04146,1.93932 15.26406,5.19926c3.13083,-1.41104 6.60444,-2.19625 10.26147,-2.19625c6.71196,0 12.80614,2.64505 17.29702,6.94965c4.58063,-5.18292 11.27815,-8.45116 18.73901,-8.45116c5.30223,0 10.21892,1.65064 14.26426,4.46609c4.04534,-2.81545 8.96204,-4.46609 14.26427,-4.46609c7.08584,0 13.48317,2.94795 18.03242,7.6843c0.97993,-0.11674 1.97725,-0.17679 2.9886,-0.17679c6.33076,0 12.11191,2.35314 16.51652,6.23247c4.4046,-3.87933 10.18575,-6.23247 16.51652,-6.23247c7.65738,0 14.51068,3.44268 19.09655,8.86468c1.25233,-0.19315 2.53533,-0.29334 3.84172,-0.29334z" fill="url(#color-1)" stroke-width="0.5"/></g></g></svg>