<svg version="1.1" xmlns="http://www.w3.org/2000/svg" xmlns:xlink="http://www.w3.org/1999/xlink" width="412.03106" height="88.50151" viewBox="0,0,412.03106,88.50151"><g transform="translate(-88.17078,-104.58327)"><g data-paper-data="{&quot;isPaintingLayer&quot;:true}" fill-rule="nonzero" stroke-linecap="butt" stroke-linejoin="miter" stroke-miterlimit="10" stroke-dasharray="" stroke-dashoffset="0" style="mix-blend-mode: normal"><path d="" fill="#c1c1c1" stroke="none" stroke-width="0"/><path d="" data-paper-data="{&quot;index&quot;:null}" fill="#d9d9d9" stroke="none" stroke-width="0"/><path d="" fill="#d9d9d9" stroke="#c1c1c1" stroke-width="2.5"/><g stroke="none" stroke-width="0"><path d="M271.60449,167.87581l9.67646,24.99503h-19.45z" fill="#924646"/><path d="M272.43618,170.02414l8.84476,22.8467h-17.77826z" fill="#a44f4f"/><path d="M271.7857,171.68769l8.20074,21.18313h-16.48376z" fill="#8a4242"/></g><g stroke="none" stroke-width="0"><path d="M286.61951,167.87581l9.67645,24.99503h-19.45z" fill="#924646"/><path d="M287.4512,170.02415l8.84476,22.8467h-17.77827z" fill="#a44f4f"/><path d="M286.80072,171.68769l8.20074,21.18314h-16.48376z" fill="#8a4242"/></g><g stroke="none" stroke-width="0"><path d="M301.63452,167.87581l9.67646,24.99503h-19.45z" fill="#924646"/><path d="M302.46621,170.02414l8.84476,22.8467h-17.77826z" fill="#a44f4f"/><path d="M301.81573,171.68769l8.20074,21.18313h-16.48376z" fill="#8a4242"/></g><g stroke="none" stroke-width="0"><path d="M316.64953,167.87581l9.67645,24.99503h-19.45z" fill="#924646"/><path d="M317.48123,170.02415l8.84476,22.8467h-17.77827z" fill="#a44f4f"/><path d="M316.83075,171.68769l8.20074,21.18314h-16.48376z" fill="#8a4242"/></g><path d="M354.16521,146.82413c0,23.32897 -32.9955,42.24085 -73.69751,42.24085c-40.70201,0 -73.69751,-18.91188 -73.69751,-42.24085c0,-23.32897 32.9955,-42.24085 73.69751,-42.24085c40.70201,0 73.69751,18.91188 73.69751,42.24085z" fill="none" stroke="none" stroke-width="0"/><g stroke="none" stroke-width="0"><path d="M153.00508,167.87581l9.67646,24.99503h-19.45z" fill="#924646"/><path d="M153.83677,170.02414l8.84476,22.84669h-17.77826z" fill="#a44f4f"/><path d="M153.18629,171.6877l8.20074,21.18313h-16.48376z" fill="#8a4242"/></g><g stroke="none" stroke-width="0"><path d="M168.0201,167.87581l9.67645,24.99503h-19.45z" fill="#924646"/><path d="M168.85179,170.02415l8.84476,22.8467h-17.77827z" fill="#a44f4f"/><path d="M168.20131,171.6877l8.20074,21.18314h-16.48376z" fill="#8a4242"/></g><g stroke="none" stroke-width="0"><path d="M183.03511,167.87581l9.67646,24.99503h-19.45z" fill="#924646"/><path d="M183.8668,170.02414l8.84476,22.84669h-17.77826z" fill="#a44f4f"/><path d="M183.21632,171.6877l8.20074,21.18313h-16.48376z" fill="#8a4242"/></g><g stroke="none" stroke-width="0"><path d="M198.05012,167.87581l9.67645,24.99503h-19.45z" fill="#924646"/><path d="M198.88182,170.02415l8.84476,22.8467h-17.77827z" fill="#a44f4f"/><path d="M198.23134,171.6877l8.20074,21.18314h-16.48376z" fill="#8a4242"/></g><path d="M235.5658,146.82413c0,23.32897 -32.9955,42.24085 -73.69751,42.24085c-40.70201,0 -73.69751,-18.91188 -73.69751,-42.24085c0,-23.32897 32.9955,-42.24084 73.69751,-42.24084c40.70201,0 73.69751,18.91187 73.69751,42.24084z" fill="none" stroke="none" stroke-width="0"/><path d="M307.90492,105.45392c40.70201,0 73.69751,18.91188 73.69751,42.24085c0,23.32897 -32.9955,42.24085 -73.69751,42.24085c-40.70201,0 -73.69751,-18.91188 -73.69751,-42.24085c0,-23.32897 32.9955,-42.24085 73.69751,-42.24085z" data-paper-data="{&quot;index&quot;:null}" fill="none" stroke="none" stroke-width="0"/><g data-paper-data="{&quot;index&quot;:null}" stroke="none" stroke-width="0"><path d="M445.14108,193.08477h-19.45l9.67646,-24.99502z" fill="#924646"/><path d="M443.46935,193.08477h-17.77826l8.84476,-22.8467z" fill="#a44f4f"/><path d="M443.46935,193.08476h-16.48376l8.20074,-21.18313z" fill="#8a4242"/></g><g data-paper-data="{&quot;index&quot;:null}" stroke="none" stroke-width="0"><path d="M430.12607,193.08477h-19.45l9.67645,-24.99502z" fill="#924646"/><path d="M428.45434,193.08478h-17.77827l8.84476,-22.8467z" fill="#a44f4f"/><path d="M428.45433,193.08477h-16.48376l8.20074,-21.18314z" fill="#8a4242"/></g><g data-paper-data="{&quot;index&quot;:null}" stroke="none" stroke-width="0"><path d="M415.11105,193.08477h-19.45l9.67646,-24.99502z" fill="#924646"/><path d="M413.43932,193.08477h-17.77826l8.84476,-22.8467z" fill="#a44f4f"/><path d="M413.43932,193.08476h-16.48376l8.20074,-21.18313z" fill="#8a4242"/></g><g data-paper-data="{&quot;index&quot;:null}" stroke="none" stroke-width="0"><path d="M400.09605,193.08477h-19.45l9.67645,-24.99502z" fill="#924646"/><path d="M398.42431,193.08478h-17.77827l8.84476,-22.8467z" fill="#a44f4f"/><path d="M398.4243,193.08477h-16.48376l8.20074,-21.18314z" fill="#8a4242"/></g><path d="M426.50433,104.79722c40.70201,0 73.69751,18.91188 73.69751,42.24085c0,23.32897 -32.9955,42.24085 -73.69751,42.24085c-40.70201,0 -73.69751,-18.91188 -73.69751,-42.24085c0,-23.32897 32.9955,-42.24085 73.69751,-42.24085z" data-paper-data="{&quot;index&quot;:null}" fill="none" stroke="none" stroke-width="0"/></g></g></svg>