<svg version="1.1" xmlns="http://www.w3.org/2000/svg" xmlns:xlink="http://www.w3.org/1999/xlink" width="54.61018" height="118.59045" viewBox="0,0,54.61018,118.59045"><defs><linearGradient x1="28.29656" y1="63.26793" x2="34.22298" y2="86.33677" gradientUnits="userSpaceOnUse" id="color-1"><stop offset="0" stop-color="#5c5549"/><stop offset="1" stop-color="#756c5e"/></linearGradient><linearGradient x1="12.03097" y1="61.11379" x2="41.47598" y2="53.54943" gradientUnits="userSpaceOnUse" id="color-2"><stop offset="0" stop-color="#746b5d"/><stop offset="1" stop-color="#746b5d" stop-opacity="0"/></linearGradient><linearGradient x1="15.40709" y1="58.41939" x2="38.36683" y2="56.24505" gradientUnits="userSpaceOnUse" id="color-3"><stop offset="0" stop-color="#514b41"/><stop offset="1" stop-color="#36322b"/></linearGradient></defs><g transform="translate(-0.33494,-38.67791)"><g data-paper-data="{&quot;isPaintingLayer&quot;:true}" fill-rule="nonzero" stroke-linecap="butt" stroke-miterlimit="10" stroke-dasharray="" stroke-dashoffset="0" style="mix-blend-mode: normal"><path d="" fill="none" stroke="none" stroke-width="0" stroke-linejoin="miter"/><path d="M10.3658,67.00856l-3.06174,-11.91796l36.36585,-9.34243l3.06174,11.91796z" data-paper-data="{&quot;zoomLevel&quot;:1.5487,&quot;index&quot;:null}" fill="#746b5d" stroke="#837969" stroke-width="11.5" stroke-linejoin="round"/><path d="M26.07908,88.42896l-5.92642,-23.06886l16.28781,-4.18435l5.92642,23.06886z" fill="url(#color-1)" stroke="none" stroke-width="0" stroke-linejoin="miter"/><path d="M10.66472,68.17203l-3.06174,-11.91796l36.36585,-9.34243l3.06174,11.91796z" data-paper-data="{&quot;zoomLevel&quot;:1.5487,&quot;index&quot;:null}" fill="#746b5d" stroke="#746b5d" stroke-width="11.5" stroke-linejoin="round"/><path d="M14.31339,69.9982l-4.56476,-17.76852l29.44496,-7.56445l4.56476,17.76852z" fill="url(#color-2)" stroke="none" stroke-width="0" stroke-linejoin="miter"/><path d="M16.41231,72.6212l-0.95486,-10.66844l4.49164,9.75983z" fill="#665f56" stroke="none" stroke-width="0" stroke-linejoin="miter"/><path d="M20.13527,71.6648l-1.64144,-18.0974l7.59812,16.56712z" fill="#665f56" stroke="none" stroke-width="0" stroke-linejoin="miter"/><path d="M31.87248,58.50564c0,0 -9.34698,2.69381 -13.59258,3.91544c-1.11212,0.32 -2.27304,-0.32228 -2.593,-1.43419c-0.32,-1.11212 0.32213,-2.27283 1.43425,-2.59285c3.55948,-1.02422 13.58159,-3.9125 13.58159,-3.9125c0,0 -0.86888,-0.48737 -4.86649,-2.6983c-1.0127,-0.56016 -1.3795,-1.83494 -0.81935,-2.84747c0.56058,-1.01265 1.83514,-1.3796 2.84769,-0.8194c3.24143,1.79255 9.3027,5.1455 9.3027,5.1455c1.01254,0.56022 1.3794,1.83515 0.81935,2.84747c0,0 -2.89301,5.23075 -5.10411,9.22841c-0.56042,1.01322 -1.8352,1.38003 -2.84769,0.8194c-1.01269,-0.56 -1.3796,-1.83514 -0.81923,-2.84711c1.79273,-3.24233 2.65687,-4.80441 2.65687,-4.80441z" fill="url(#color-3)" stroke="none" stroke-width="0" stroke-linejoin="miter"/><path d="M54.9054,98.64414c-0.80588,32.74571 -13.6663,58.99094 -28.72456,58.62035c-15.05825,-0.37058 -26.61206,-27.21666 -25.80618,-59.96236c0.80588,-32.74571 13.6663,-58.99093 28.72454,-58.62034c15.05825,0.37058 26.61207,27.21666 25.8062,59.96237z" fill="none" stroke="none" stroke-width="0" stroke-linejoin="miter"/></g></g></svg>