<svg version="1.1" xmlns="http://www.w3.org/2000/svg" xmlns:xlink="http://www.w3.org/1999/xlink" width="261.26126" height="475.90497" viewBox="0,0,261.26126,475.90497"><defs><linearGradient x1="79.68051" y1="446.46162" x2="79.68051" y2="289.55635" gradientUnits="userSpaceOnUse" id="color-1"><stop offset="0" stop-color="#7e7463"/><stop offset="1" stop-color="#847c6b"/></linearGradient><linearGradient x1="50.63917" y1="76.26012" x2="52.30742" y2="60.34172" gradientUnits="userSpaceOnUse" id="color-2"><stop offset="0" stop-color="#be6969"/><stop offset="1" stop-color="#ff8c8c"/></linearGradient><linearGradient x1="50.63917" y1="76.26012" x2="52.30742" y2="60.34172" gradientUnits="userSpaceOnUse" id="color-3"><stop offset="0" stop-color="#643838"/><stop offset="1" stop-color="#643838" stop-opacity="0"/></linearGradient><linearGradient x1="45.61052" y1="22.28064" x2="54.48239" y2="24.87911" gradientUnits="userSpaceOnUse" id="color-4"><stop offset="0" stop-color="#ffa5a5"/><stop offset="1" stop-color="#d68b8b"/></linearGradient><linearGradient x1="57.90702" y1="20.16454" x2="50.55199" y2="25.74709" gradientUnits="userSpaceOnUse" id="color-5"><stop offset="0" stop-color="#ffa5a5"/><stop offset="1" stop-color="#d68b8b"/></linearGradient><linearGradient x1="49.56461" y1="75.05664" x2="50.83384" y2="62.94605" gradientUnits="userSpaceOnUse" id="color-6"><stop offset="0" stop-color="#d17373"/><stop offset="1" stop-color="#ff8c8c"/></linearGradient><linearGradient x1="50.63917" y1="76.26012" x2="52.30742" y2="60.34172" gradientUnits="userSpaceOnUse" id="color-7"><stop offset="0" stop-color="#643838"/><stop offset="1" stop-color="#ff8c8c"/></linearGradient><linearGradient x1="41.52268" y1="64.92712" x2="62.07246" y2="69.04938" gradientUnits="userSpaceOnUse" id="color-8"><stop offset="0" stop-color="#556c4d" stop-opacity="0"/><stop offset="1" stop-color="#556c4d"/></linearGradient><linearGradient x1="42.6235" y1="64.61523" x2="63.17329" y2="68.73749" gradientUnits="userSpaceOnUse" id="color-9"><stop offset="0" stop-color="#506648"/><stop offset="1" stop-color="#708e65"/></linearGradient><linearGradient x1="37.29052" y1="69.29572" x2="62.66926" y2="71.95542" gradientUnits="userSpaceOnUse" id="color-10"><stop offset="0" stop-color="#556c4d"/><stop offset="1" stop-color="#708e65"/></linearGradient><linearGradient x1="38.0739" y1="31.1386" x2="61.05286" y2="33.23628" gradientUnits="userSpaceOnUse" id="color-11"><stop offset="0" stop-color="#ff8c8c"/><stop offset="1" stop-color="#be6969"/></linearGradient><linearGradient x1="47.77984" y1="33.42138" x2="70.55118" y2="24.17036" gradientUnits="userSpaceOnUse" id="color-12"><stop offset="0" stop-color="#be6969"/><stop offset="1" stop-color="#ff8c8c"/></linearGradient><linearGradient x1="106.84548" y1="94.42764" x2="127.17526" y2="94.42764" gradientUnits="userSpaceOnUse" id="color-13"><stop offset="0" stop-color="#a881e3"/><stop offset="1" stop-color="#c0ade3"/></linearGradient><linearGradient x1="107.70248" y1="97.81247" x2="130.99143" y2="97.81247" gradientUnits="userSpaceOnUse" id="color-14"><stop offset="0" stop-color="#765b9f"/><stop offset="1" stop-color="#c0ade3"/></linearGradient><linearGradient x1="107.70248" y1="97.81248" x2="130.99143" y2="97.81248" gradientUnits="userSpaceOnUse" id="color-15"><stop offset="0" stop-color="#765b9f"/><stop offset="1" stop-color="#765b9f" stop-opacity="0"/></linearGradient><linearGradient x1="123.80876" y1="86.37789" x2="114.14965" y2="108.50916" gradientUnits="userSpaceOnUse" id="color-16"><stop offset="0" stop-color="#556c4d" stop-opacity="0"/><stop offset="1" stop-color="#556c4d"/></linearGradient><linearGradient x1="104.29148" y1="93.08645" x2="126.4138" y2="93.08645" gradientUnits="userSpaceOnUse" id="color-17"><stop offset="0" stop-color="#708e65"/><stop offset="1" stop-color="#506648"/></linearGradient><linearGradient x1="105.70069" y1="98.92255" x2="133.15789" y2="98.92255" gradientUnits="userSpaceOnUse" id="color-18"><stop offset="0" stop-color="#6e8c63"/><stop offset="1" stop-color="#556c4d"/></linearGradient><linearGradient x1="56.64753" y1="24.76668" x2="64.17735" y2="41.59974" gradientUnits="userSpaceOnUse" id="color-19"><stop offset="0" stop-color="#637d59" stop-opacity="0"/><stop offset="1" stop-color="#637d59"/></linearGradient><linearGradient x1="58.50468" y1="24.76668" x2="66.0345" y2="41.59974" gradientUnits="userSpaceOnUse" id="color-20"><stop offset="0" stop-color="#708e65"/><stop offset="1" stop-color="#5c7553"/></linearGradient><linearGradient x1="49.11929" y1="45.59039" x2="52.40834" y2="27.17778" gradientUnits="userSpaceOnUse" id="color-21"><stop offset="0" stop-color="#5c7553"/><stop offset="1" stop-color="#708e65"/></linearGradient><linearGradient x1="79.6805" y1="160.24858" x2="79.6805" y2="302.22269" gradientUnits="userSpaceOnUse" id="color-22"><stop offset="0" stop-color="#7e7463"/><stop offset="1" stop-color="#847c6b"/></linearGradient><linearGradient x1="90.1312" y1="173.75137" x2="90.1312" y2="304.23651" gradientUnits="userSpaceOnUse" id="color-23"><stop offset="0" stop-color="#736c5d"/><stop offset="1" stop-color="#736c5d" stop-opacity="0"/></linearGradient><linearGradient x1="70.99643" y1="119.85059" x2="70.99643" y2="154.29402" gradientUnits="userSpaceOnUse" id="color-24"><stop offset="0" stop-color="#77966b"/><stop offset="1" stop-color="#637d59"/></linearGradient><linearGradient x1="67.60753" y1="136.34395" x2="67.60753" y2="155.6757" gradientUnits="userSpaceOnUse" id="color-25"><stop offset="0" stop-color="#77966b"/><stop offset="1" stop-color="#637d59"/></linearGradient><linearGradient x1="75.01014" y1="122.33913" x2="75.01014" y2="153.33032" gradientUnits="userSpaceOnUse" id="color-26"><stop offset="0" stop-color="#77966b"/><stop offset="1" stop-color="#637d59"/></linearGradient><linearGradient x1="78.56232" y1="117.15361" x2="78.56232" y2="151.59702" gradientUnits="userSpaceOnUse" id="color-27"><stop offset="0" stop-color="#77966b"/><stop offset="1" stop-color="#637d59"/></linearGradient><linearGradient x1="88.95121" y1="132.64686" x2="88.95121" y2="151.97869" gradientUnits="userSpaceOnUse" id="color-28"><stop offset="0" stop-color="#77966b"/><stop offset="1" stop-color="#637d59"/></linearGradient><linearGradient x1="256.2943" y1="174.9504" x2="256.2943" y2="208.01747" gradientUnits="userSpaceOnUse" id="color-29"><stop offset="0" stop-color="#454037"/><stop offset="1" stop-color="#454037" stop-opacity="0"/></linearGradient><linearGradient x1="211.9828" y1="158.67708" x2="211.9828" y2="180.67708" gradientUnits="userSpaceOnUse" id="color-30"><stop offset="0" stop-color="#95bd86"/><stop offset="1" stop-color="#80a374"/></linearGradient><linearGradient x1="-22.26584" y1="158.67708" x2="-22.26584" y2="180.67708" gradientUnits="userSpaceOnUse" id="color-31"><stop offset="0" stop-color="#95bd86"/><stop offset="1" stop-color="#80a374"/></linearGradient></defs><g transform="translate(-9.51952,29.44338)"><g data-paper-data="{&quot;isPaintingLayer&quot;:true}" fill-rule="nonzero" stroke-linejoin="miter" stroke-miterlimit="10" stroke-dasharray="" stroke-dashoffset="0" style="mix-blend-mode: normal"><path d="M77.83136,283.59381v149.34706h-40.13837v-149.34706z" fill="#454545" stroke="#454545" stroke-width="10.5" stroke-linecap="butt"/><path d="M108.91097,289.55636c0,0 -0.66477,124.35131 -0.66477,133.96551c0,2.00343 0.00928,6.23507 0.01359,10.57839c0.00508,5.12248 0.00325,10.4003 -0.02888,12.36133h-75.87594v-156.90524z" fill="url(#color-1)" stroke="none" stroke-width="0" stroke-linecap="butt"/><g><path d="M40.50432,61.96996c0,0 21.75809,10.7834 19.30431,13.57009c-5.07257,5.76077 -10.90383,-7.17481 -13.7456,-12.92097c-0.3096,-0.62601 -1.40743,-0.82929 -2.54664,-0.85956c-1.47151,-0.03911 -3.01207,0.21044 -3.01207,0.21044z" data-paper-data="{&quot;origRot&quot;:0,&quot;index&quot;:null}" fill="url(#color-2)" stroke="none" stroke-width="0" stroke-linecap="butt"/><path d="M43.75432,58.28246c0,0 18.50809,14.4709 16.05431,17.25759c-5.07257,5.76077 -13.46633,-6.92481 -16.3081,-12.67097c-0.7095,-1.43462 0.25379,-4.58662 0.25379,-4.58662z" data-paper-data="{&quot;origRot&quot;:0,&quot;index&quot;:null}" fill="url(#color-3)" stroke="none" stroke-width="0" stroke-linecap="butt"/><path d="M48.70955,18.59282c2.44505,2.59309 7.60803,11.30281 3.62388,12.83192c-1.92727,0.73969 -5.32206,-13.92718 -5.32206,-13.92718c0,0 1.08774,0.44786 1.69818,1.09526z" data-paper-data="{&quot;origRot&quot;:0,&quot;index&quot;:null}" fill="url(#color-4)" stroke="none" stroke-width="0" stroke-linecap="butt"/><path d="M54.09342,15.80199c0,0 2.63162,13.53566 0.43017,13.85142c-4.56083,0.65417 -0.43017,-13.85142 -0.43017,-13.85142z" data-paper-data="{&quot;origRot&quot;:0,&quot;index&quot;:null}" fill="url(#color-5)" stroke="none" stroke-width="0" stroke-linecap="butt"/><path d="M111.84127,99.9938c-1.62122,2.58408 -6.24947,-0.82216 -18.38312,15.99481c-7.17713,10.08365 -10.0685,24.25879 -10.0685,24.25879c0,0 1.14616,-10.58004 1.58931,-19.7285c0.25916,-5.35027 0.65245,-14.70457 0.65245,-14.70457c-3.98206,-21.93647 -3.95567,-26.16447 -5.84171,-46.42543c-1.95629,-21.01551 2.75491,-42.91056 2.75491,-42.91056" data-paper-data="{&quot;origRot&quot;:0}" fill="none" stroke="#576f4f" stroke-width="3.5" stroke-linecap="round"/><path d="M85.03942,109.36097c0,0 -14.78492,-27.96638 -18.48756,-38.18567c-6.05393,-16.70884 -8.51244,-31.81433 -8.51244,-31.81433" fill="none" stroke="#536a4b" stroke-width="3" stroke-linecap="round"/><path d="M73.03942,87.36097c0,0 -4.55283,-3.32767 -6.86286,-5.3077c-2.35574,-2.0192 -7.13714,-6.6923 -7.13714,-6.6923" fill="none" stroke="#536a4b" stroke-width="2" stroke-linecap="round"/><path d="M76.69433,167.24676c0,0 6.10352,-19.56477 7.36243,-31.23266c2.39165,-22.16632 -0.74954,-37.2028 3.17798,-57.16874c4.07378,-20.7095 14.79125,-40.37481 14.79125,-40.37481" data-paper-data="{&quot;origRot&quot;:0}" fill="none" stroke="#708e65" stroke-width="5" stroke-linecap="round"/><path d="M120.35489,1.56138l-23.05472,46.19902" data-paper-data="{&quot;origRot&quot;:0,&quot;index&quot;:null}" fill="none" stroke="#8fa686" stroke-width="10" stroke-linecap="round"/><path d="M80.97573,26.39268l9.03128,-50.83606" data-paper-data="{&quot;origRot&quot;:0,&quot;index&quot;:null}" fill="none" stroke="#8fa686" stroke-width="10" stroke-linecap="round"/><path d="M59.30548,75.69407c-2.61236,2.65278 -18.78548,-13.8289 -18.78548,-13.8289c0,0 24.19762,8.33303 18.78548,13.8289z" data-paper-data="{&quot;origRot&quot;:0,&quot;index&quot;:null}" fill="url(#color-6)" stroke="none" stroke-width="0" stroke-linecap="butt"/><path d="M43.75432,58.28246c0,0 18.50809,14.4709 16.05431,17.25759c-5.07257,5.76077 -13.02883,-6.86231 -15.8706,-12.60847c-0.7095,-1.43462 -0.18371,-4.64912 -0.18371,-4.64912z" data-paper-data="{&quot;origRot&quot;:0,&quot;index&quot;:null}" fill="url(#color-7)" stroke="none" stroke-width="0" stroke-linecap="butt"/><path d="M41.3367,56.45425c0.34618,0.13305 0.09299,-0.42373 0.43991,-0.27104c10.38622,4.57139 21.47226,18.33584 18.20258,21.31275c-3.37891,3.07635 -20.40875,-21.72055 -18.64249,-21.04171z" data-paper-data="{&quot;origRot&quot;:0}" fill="url(#color-8)" stroke="none" stroke-width="0" stroke-linecap="butt"/><path d="M41.37082,55.89654c9.54475,0.10054 19.64961,14.56814 20.08616,20.22502c-1.05644,1.26333 -1.31453,1.43753 -1.31453,1.43753c0,0 -6.5363,-6.20136 -11.30296,-13.32517c-3.43025,-5.12654 -8.22318,-8.62735 -7.46868,-8.33737z" data-paper-data="{&quot;origRot&quot;:0}" fill="url(#color-9)" stroke="none" stroke-width="0" stroke-linecap="butt"/><path d="M38.9438,60.22638c-0.27784,-0.77815 3.62483,3.15944 9.13138,6.59878c5.07734,3.17127 10.06355,7.07962 11.97251,9.38622c0.22446,0.27122 0.36107,0.50091 0.40755,0.6966c0.13762,0.5793 -0.51454,0.86058 -2.01528,1.03876c-2.27678,0.27033 -8.36409,-2.91116 -12.61925,-7.51883c-4.22548,-4.57553 -6.87691,-10.20152 -6.87691,-10.20152z" data-paper-data="{&quot;origRot&quot;:0}" fill="url(#color-10)" stroke="none" stroke-width="0" stroke-linecap="butt"/><path d="M57.805,46.77303c-3.19335,1.40981 -10.01422,-13.46625 -10.01422,-13.46625c0,0 0.22578,1.46407 -0.47361,-0.57225c-1.29084,-3.75838 -11.7882,-14.18186 -11.7882,-14.18186c0,0 11.60068,2.05096 16.51563,9.77069c6.21773,7.26364 11.39191,15.96345 5.76038,18.44967z" data-paper-data="{&quot;origRot&quot;:0,&quot;index&quot;:null}" fill="url(#color-11)" stroke="none" stroke-width="0" stroke-linecap="butt"/><path d="M65.81664,12.63467c0,0 -0.81965,0.04049 -2.59132,7.47283c-0.78439,3.29059 -1.59202,10.57571 -1.59202,10.57571c0,0 -1.28288,13.88172 -4.43822,13.3524c-12.3613,-2.07364 -5.41553,-15.2455 0.79399,-24.65366c4.94045,-6.95217 7.82757,-6.74728 7.82757,-6.74728z" data-paper-data="{&quot;origRot&quot;:0,&quot;index&quot;:null}" fill="url(#color-12)" stroke="none" stroke-width="0" stroke-linecap="butt"/><path d="M107.01731,102.62899c-2.34901,-3.58909 20.1574,-17.77471 20.1574,-17.77471c0,0 -1.31418,4.44644 -2.42972,6.14138c-4.18311,6.35584 -13.88571,17.50356 -17.72769,11.63334z" data-paper-data="{&quot;origRot&quot;:0,&quot;index&quot;:null}" fill="url(#color-13)" stroke="none" stroke-width="0" stroke-linecap="butt"/><path d="M130.99143,90.28686c0,0 -19.72048,18.24978 -22.259,14.80654c-5.2477,-7.11804 2.29156,-13.58158 9.45528,-15.3782c1.78854,-0.44855 12.80372,0.57166 12.80372,0.57166z" data-paper-data="{&quot;origRot&quot;:0,&quot;index&quot;:null}" fill="url(#color-14)" stroke="none" stroke-width="0" stroke-linecap="butt"/><path d="M130.99143,90.28686c0,0 -19.72048,18.24978 -22.259,14.80654c-5.2477,-7.11804 2.68321,-14.85444 9.84692,-16.65106c5.99876,-0.25272 12.41207,1.84452 12.41207,1.84452z" data-paper-data="{&quot;origRot&quot;:0,&quot;index&quot;:null}" fill="url(#color-15)" stroke="none" stroke-width="0" stroke-linecap="butt"/><path d="M133.36929,90.70755c-7.2499,11.05403 -25.58007,17.93787 -28.21883,13.38227c-1.23187,-2.12671 4.28093,-3.13374 11.25797,-6.02769c7.96837,-3.30514 17.5983,-8.32651 16.96085,-7.35458z" data-paper-data="{&quot;origRot&quot;:0}" fill="url(#color-16)" stroke="none" stroke-width="0" stroke-linecap="butt"/><path d="M126.27116,82.11083c1.08014,-0.14055 -6.34758,9.61544 -12.0781,15.73873c-3.68593,3.93856 -7.39136,7.38759 -7.39136,7.38759c0,0 -1.28209,-1.53399 -1.55107,-2.19115c-0.75861,-1.85334 -0.78802,-6.40339 1.68286,-9.78271c4.70776,-6.43858 19.33767,-11.15246 19.33767,-11.15246z" data-paper-data="{&quot;origRot&quot;:0}" fill="url(#color-17)" stroke="none" stroke-width="0" stroke-linecap="butt"/><path d="M133.12529,91.37041c-2.77808,4.23579 -8.16224,10.30704 -15.13573,12.90917c-7.87296,2.93777 -10.47636,2.63028 -12.10398,-0.17967c-1.08203,-1.86807 4.32204,-1.41549 10.22222,-4.05276c0.73492,-0.3285 1.47542,-0.6732 2.21458,-1.02817c7.79834,-3.74497 15.4472,-8.6309 14.80292,-7.64856z" data-paper-data="{&quot;origRot&quot;:0}" fill="url(#color-18)" stroke="none" stroke-width="0" stroke-linecap="butt"/><path d="M67.23949,22.0399c0,0 -3.85718,9.62565 -4.54362,15.53377c-0.77042,6.63097 -2.10997,10.58651 -3.80219,10.63589c-1.31021,0.03823 -4.16993,-6.73083 -3.37647,-12.37824c0.35183,-2.50417 1.62577,-5.1775 4.17212,-8.44744c2.7112,-3.48163 7.55017,-5.34398 7.55017,-5.34398z" data-paper-data="{&quot;origRot&quot;:0}" fill="url(#color-19)" stroke="none" stroke-width="0" stroke-linecap="butt"/><path d="M69.09664,22.0399c0,0 -3.85718,9.62565 -4.54362,15.53377c-0.77042,6.63097 -2.10998,10.58651 -3.8022,10.63589c-1.31021,0.03823 -4.16993,-6.73084 -3.37647,-12.37825c0.35184,-2.50417 1.62577,-5.1775 4.17212,-8.44744c2.71119,-3.48163 7.55016,-5.34398 7.55016,-5.34398z" data-paper-data="{&quot;origRot&quot;:0}" fill="url(#color-20)" stroke="none" stroke-width="0" stroke-linecap="butt"/><path d="M54.1278,34.04849c3.50063,3.17304 6.54256,9.0124 7.57055,11.0707c0.32963,0.66 0.14452,1.47746 -0.10855,2.1093c-0.23279,0.58123 -0.52308,1.00537 -0.52308,1.00537c0,0 -2.29353,0.76009 -2.71164,0.67259c-2.84255,-0.59487 -6.75804,-2.85274 -12.55465,-10.68167c-6.56147,-9.11035 -8.57567,-7.97267 -8.57567,-7.97267c0,0 10.51801,-1.99115 16.90304,3.79638z" data-paper-data="{&quot;origRot&quot;:0}" fill="url(#color-21)" stroke="none" stroke-width="0" stroke-linecap="butt"/></g><path d="M32.35496,302.22269v-141.97408h75.87594c0.03213,1.77442 0.03396,6.55 0.02888,11.18502c-0.00431,3.93001 -0.01359,7.75896 -0.01359,9.57175c0,8.69931 0.66477,121.21731 0.66477,121.21731z" fill="url(#color-22)" stroke="none" stroke-width="0" stroke-linecap="butt"/><path d="M71.60395,304.23651v-130.48513h37.0545v130.48513z" fill="url(#color-23)" stroke="none" stroke-width="0" stroke-linecap="butt"/><path d="M67.24814,153.59455c0,0 2.50333,-3.74186 2.42867,-8.00654c-0.15592,-8.9043 -3.01957,-25.73731 -3.01957,-25.73731c0,0 4.62857,13.2318 6.20242,19.52349c1.93391,7.73107 2.47594,14.91982 2.47594,14.91982z" fill="url(#color-24)" stroke="none" stroke-width="0" stroke-linecap="butt"/><path d="M64.6087,155.57824c0,0 2.19069,1.39376 1.24958,-6.3606c-0.7659,-6.31064 -3.52848,-12.87369 -3.52848,-12.87369c0,0 2.99778,1.72824 5.92664,7.97973c3.46871,7.4038 4.62883,10.31609 4.62883,10.31609z" data-paper-data="{&quot;origRot&quot;:0}" fill="url(#color-25)" stroke="none" stroke-width="0" stroke-linecap="butt"/><path d="M71.48605,152.06586c0,0 0.79434,-4.80392 1.9389,-16.87169c0.96643,-10.18959 1.53021,-12.8549 1.53021,-12.8549c0,0 0.7589,12.61205 1.59125,22.59843c1.02277,12.271 1.98785,7.46562 1.98785,7.46562z" data-paper-data="{&quot;index&quot;:null}" fill="url(#color-26)" stroke="none" stroke-width="0" stroke-linecap="butt"/><path d="M74.22315,151.59702c0,0 0.54202,-7.18875 2.47593,-14.91981c1.57386,-6.29171 6.20244,-19.52352 6.20244,-19.52352c0,0 -2.86364,16.83303 -3.01956,25.73731c-0.07467,4.26467 2.42867,8.00654 2.42867,8.00654z" fill="url(#color-27)" stroke="none" stroke-width="0" stroke-linecap="butt"/><path d="M83.67346,150.9427c0,0 1.16013,-2.91229 4.62883,-10.31609c2.92886,-6.2515 5.92663,-7.97973 5.92663,-7.97973c0,0 -2.76257,6.56304 -3.52849,12.8737c-0.94113,7.75437 1.24958,6.3606 1.24958,6.3606z" data-paper-data="{&quot;origRot&quot;:0}" fill="url(#color-28)" stroke="none" stroke-width="0" stroke-linecap="butt"/><path d="M32.69039,208.01747c0,0 -0.16828,-21.05637 -0.16828,-25.92258c0,-1.56759 27.12405,-7.26319 27.12405,-7.26319l48.29932,0.01177l0.76801,33.924z" fill="url(#color-29)" stroke="none" stroke-width="0" stroke-linecap="butt"/><path d="M27.22913,160.43419c0,0 -0.02698,0.32297 -0.04609,-1.1973c-0.14226,-12.98086 7.39156,-11.54604 12.82201,-11.54604c4.20622,0 13.14266,0 25.1974,0c0.10654,1.13196 0.2427,2.26044 0.42416,3.38361c0.50932,3.1525 1.24692,6.26039 2.02918,9.35973z" fill="#94bc85" stroke="none" stroke-width="0" stroke-linecap="butt"/><path d="M27.16173,184.67708c0,-4.21713 0,-14.07115 0,-14.07115l42.99492,0.08123c0.1994,0.94668 0.38434,1.89622 0.54971,2.84963c1.18495,6.83156 2.28203,13.67525 3.33336,20.52574c-9.63954,0 -17.34196,0 -22.34409,0c-6.10971,0 -9.62673,0 -14.17734,0c-10.0914,0 -10.35657,-5.9413 -10.35657,-9.38544z" fill="#80a374" stroke="none" stroke-width="0" stroke-linecap="butt"/><path d="M27.12852,180.67708v-22c0,0 4.39801,0 10.23759,0c6.33327,0 22.39003,0 44.39882,0c1.64717,4.94364 3.56864,9.84831 4.75328,14.8597c0.56229,2.3787 1.11007,4.75888 1.64577,7.1403z" fill="url(#color-30)" stroke="none" stroke-width="0" stroke-linecap="butt"/><path d="M72.84582,160.43419c0.78226,-3.09934 1.51986,-6.20723 2.02918,-9.35973c0.18146,-1.12317 0.31762,-2.25165 0.42416,-3.38361c12.05474,0 20.99118,0 25.1974,0c5.43045,0 12.96427,-1.43482 12.82201,11.54604c-0.01911,1.52027 -0.04609,1.1973 -0.04609,1.1973z" data-paper-data="{&quot;index&quot;:null}" fill="#94bc85" stroke="none" stroke-width="0" stroke-linecap="butt"/><path d="M113.33987,184.67708c0,3.44414 -0.26517,9.38544 -10.35657,9.38544c-4.55061,0 -8.06763,0 -14.17734,0c-5.00213,0 -12.70455,0 -22.34409,0c1.05133,-6.85049 2.14841,-13.69418 3.33336,-20.52574c0.16537,-0.95341 0.35031,-1.90295 0.54971,-2.84963l42.99492,-0.08123c0,0 0,9.85402 0,14.07115z" data-paper-data="{&quot;index&quot;:null}" fill="#80a374" stroke="none" stroke-width="0" stroke-linecap="butt"/><path d="M68.58759,180.67708c0.39307,-2.38142 0.79501,-4.7616 1.2076,-7.1403c0.86924,-5.01139 2.27914,-9.91606 3.48777,-14.8597c16.1492,0 27.93103,0 32.57814,0c4.28486,0 7.51195,0 7.51195,0v22z" data-paper-data="{&quot;index&quot;:null}" fill="url(#color-31)" stroke="none" stroke-width="0" stroke-linecap="butt"/><path d="M43.22913,160.43419c0,0 -0.02698,0.32297 -0.04609,-1.1973c-0.14226,-12.98086 7.39156,-11.54604 12.82201,-11.54604c4.20622,0 13.14266,0 25.1974,0c0.10654,1.13196 0.2427,2.26044 0.42416,3.38361c0.50932,3.1525 1.24692,6.26039 2.02918,9.35973z" fill="#94bc85" stroke="none" stroke-width="0" stroke-linecap="butt"/><path d="M9.51952,105.22849c0,-48.09687 36.63736,-87.08709 81.83183,-87.08709c45.19447,0 81.83183,38.99022 81.83183,87.08709c0,48.09687 -36.63736,87.08709 -81.83183,87.08709c-45.19447,0 -81.83183,-38.99022 -81.83183,-87.08709z" fill="none" stroke="none" stroke-width="0" stroke-linecap="butt"/><ellipse cx="541.56156" cy="408.65518" transform="scale(0.5,0.5)" rx="0" ry="0" fill="none" stroke="none" stroke-width="0" stroke-linecap="butt"/></g></g></svg>