<svg version="1.1" xmlns="http://www.w3.org/2000/svg" xmlns:xlink="http://www.w3.org/1999/xlink" width="599.77815" height="356.83091" viewBox="0,0,599.77815,356.83091"><defs><linearGradient x1="64.97343" y1="131.81572" x2="63.30519" y2="115.89735" gradientUnits="userSpaceOnUse" id="color-1"><stop offset="0" stop-color="#be6969"/><stop offset="1" stop-color="#ff8c8c"/></linearGradient><linearGradient x1="64.97343" y1="131.81572" x2="63.30519" y2="115.89735" gradientUnits="userSpaceOnUse" id="color-2"><stop offset="0" stop-color="#643838"/><stop offset="1" stop-color="#643838" stop-opacity="0"/></linearGradient><linearGradient x1="70.00208" y1="77.83625" x2="61.13022" y2="80.4347" gradientUnits="userSpaceOnUse" id="color-3"><stop offset="0" stop-color="#ffa5a5"/><stop offset="1" stop-color="#d68b8b"/></linearGradient><linearGradient x1="57.70559" y1="75.72016" x2="65.06062" y2="81.3027" gradientUnits="userSpaceOnUse" id="color-4"><stop offset="0" stop-color="#ffa5a5"/><stop offset="1" stop-color="#d68b8b"/></linearGradient><linearGradient x1="66.048" y1="130.61227" x2="64.77877" y2="118.50167" gradientUnits="userSpaceOnUse" id="color-5"><stop offset="0" stop-color="#d17373"/><stop offset="1" stop-color="#ff8c8c"/></linearGradient><linearGradient x1="64.97343" y1="131.81572" x2="63.30519" y2="115.89735" gradientUnits="userSpaceOnUse" id="color-6"><stop offset="0" stop-color="#643838"/><stop offset="1" stop-color="#ff8c8c"/></linearGradient><linearGradient x1="74.08992" y1="120.48274" x2="53.54015" y2="124.605" gradientUnits="userSpaceOnUse" id="color-7"><stop offset="0" stop-color="#556c4d" stop-opacity="0"/><stop offset="1" stop-color="#556c4d"/></linearGradient><linearGradient x1="72.9891" y1="120.17086" x2="52.43932" y2="124.29312" gradientUnits="userSpaceOnUse" id="color-8"><stop offset="0" stop-color="#506648"/><stop offset="1" stop-color="#708e65"/></linearGradient><linearGradient x1="78.32209" y1="124.85133" x2="52.94335" y2="127.51104" gradientUnits="userSpaceOnUse" id="color-9"><stop offset="0" stop-color="#556c4d"/><stop offset="1" stop-color="#708e65"/></linearGradient><linearGradient x1="77.5387" y1="86.69421" x2="54.55975" y2="88.7919" gradientUnits="userSpaceOnUse" id="color-10"><stop offset="0" stop-color="#ff8c8c"/><stop offset="1" stop-color="#be6969"/></linearGradient><linearGradient x1="67.83276" y1="88.977" x2="45.06143" y2="79.72598" gradientUnits="userSpaceOnUse" id="color-11"><stop offset="0" stop-color="#be6969"/><stop offset="1" stop-color="#ff8c8c"/></linearGradient><linearGradient x1="8.76713" y1="149.98324" x2="-11.56265" y2="149.98324" gradientUnits="userSpaceOnUse" id="color-12"><stop offset="0" stop-color="#a881e3"/><stop offset="1" stop-color="#c0ade3"/></linearGradient><linearGradient x1="7.91013" y1="153.36808" x2="-15.37882" y2="153.36808" gradientUnits="userSpaceOnUse" id="color-13"><stop offset="0" stop-color="#765b9f"/><stop offset="1" stop-color="#c0ade3"/></linearGradient><linearGradient x1="7.91013" y1="153.36808" x2="-15.37882" y2="153.36808" gradientUnits="userSpaceOnUse" id="color-14"><stop offset="0" stop-color="#765b9f"/><stop offset="1" stop-color="#765b9f" stop-opacity="0"/></linearGradient><linearGradient x1="-8.19615" y1="141.93348" x2="1.46296" y2="164.06479" gradientUnits="userSpaceOnUse" id="color-15"><stop offset="0" stop-color="#556c4d" stop-opacity="0"/><stop offset="1" stop-color="#556c4d"/></linearGradient><linearGradient x1="11.32113" y1="148.64207" x2="-10.80119" y2="148.64207" gradientUnits="userSpaceOnUse" id="color-16"><stop offset="0" stop-color="#708e65"/><stop offset="1" stop-color="#506648"/></linearGradient><linearGradient x1="9.91192" y1="154.47815" x2="-17.54528" y2="154.47815" gradientUnits="userSpaceOnUse" id="color-17"><stop offset="0" stop-color="#6e8c63"/><stop offset="1" stop-color="#556c4d"/></linearGradient><linearGradient x1="58.96508" y1="80.3223" x2="51.43526" y2="97.15537" gradientUnits="userSpaceOnUse" id="color-18"><stop offset="0" stop-color="#637d59" stop-opacity="0"/><stop offset="1" stop-color="#637d59"/></linearGradient><linearGradient x1="57.10793" y1="80.3223" x2="49.57811" y2="97.15537" gradientUnits="userSpaceOnUse" id="color-19"><stop offset="0" stop-color="#708e65"/><stop offset="1" stop-color="#5c7553"/></linearGradient><linearGradient x1="66.49332" y1="101.14601" x2="63.20427" y2="82.73337" gradientUnits="userSpaceOnUse" id="color-20"><stop offset="0" stop-color="#5c7553"/><stop offset="1" stop-color="#708e65"/></linearGradient><linearGradient x1="44.61618" y1="175.40622" x2="44.61618" y2="209.84963" gradientUnits="userSpaceOnUse" id="color-21"><stop offset="0" stop-color="#77966b"/><stop offset="1" stop-color="#637d59"/></linearGradient><linearGradient x1="48.00508" y1="191.89958" x2="48.00508" y2="211.23133" gradientUnits="userSpaceOnUse" id="color-22"><stop offset="0" stop-color="#77966b"/><stop offset="1" stop-color="#637d59"/></linearGradient><linearGradient x1="40.60247" y1="177.89476" x2="40.60247" y2="208.88595" gradientUnits="userSpaceOnUse" id="color-23"><stop offset="0" stop-color="#77966b"/><stop offset="1" stop-color="#637d59"/></linearGradient><linearGradient x1="37.05029" y1="172.70923" x2="37.05029" y2="207.15264" gradientUnits="userSpaceOnUse" id="color-24"><stop offset="0" stop-color="#77966b"/><stop offset="1" stop-color="#637d59"/></linearGradient><linearGradient x1="26.6614" y1="188.20249" x2="26.6614" y2="207.53432" gradientUnits="userSpaceOnUse" id="color-25"><stop offset="0" stop-color="#77966b"/><stop offset="1" stop-color="#637d59"/></linearGradient><linearGradient x1="537.98949" y1="270.97065" x2="532.06307" y2="294.03949" gradientUnits="userSpaceOnUse" id="color-26"><stop offset="0" stop-color="#5c5549"/><stop offset="1" stop-color="#756c5e"/></linearGradient><linearGradient x1="554.25508" y1="268.81651" x2="524.81007" y2="261.25215" gradientUnits="userSpaceOnUse" id="color-27"><stop offset="0" stop-color="#746b5d"/><stop offset="1" stop-color="#746b5d" stop-opacity="0"/></linearGradient><linearGradient x1="550.87896" y1="266.1221" x2="527.91922" y2="263.94775" gradientUnits="userSpaceOnUse" id="color-28"><stop offset="0" stop-color="#514b41"/><stop offset="1" stop-color="#36322b"/></linearGradient></defs><g transform="translate(33.82704,-8.14016)"><g data-paper-data="{&quot;isPaintingLayer&quot;:true}" fill-rule="nonzero" stroke-miterlimit="10" stroke-dasharray="" stroke-dashoffset="0" style="mix-blend-mode: normal"><path d="M252.73988,137.24406c-3.48521,5.55509 -27.53507,18.46707 -28.03495,39.7536c-0.21503,9.15666 1.47949,-10.33004 1.92264,-19.4785c0.25916,-5.35027 -0.09755,-14.45457 -0.09755,-14.45457c-3.98206,-21.93647 -3.95567,-26.16447 -5.84171,-46.42543c-1.95629,-21.01551 2.75491,-42.91056 2.75491,-42.91056" data-paper-data="{&quot;origRot&quot;:0}" fill="none" stroke="#536a4b" stroke-width="5" stroke-linecap="round" stroke-linejoin="miter"/><path d="" fill="none" stroke="none" stroke-width="0" stroke-linecap="butt" stroke-linejoin="miter"/><g data-paper-data="{&quot;index&quot;:null}" fill="none" stroke="#f6fbff" stroke-width="5" stroke-linecap="round" stroke-linejoin="miter"><path d="M135.7517,212.50839c0,0 -52.37793,18.25659 -68.95589,24.03492"/><path d="M134.0382,225.395c0,0 -32.54455,11.34357 -48.1109,16.7693"/><path d="M124.27131,216.66827l-10.31844,15.54481l-22.61641,-3.24005"/></g><g data-paper-data="{&quot;index&quot;:null}" fill="none" stroke="#f6fbff" stroke-width="5" stroke-linecap="round" stroke-linejoin="miter"><path d="M120.0705,217.64943l90.89184,-31.68081"/><path d="M209.24885,198.85525l-90.89184,31.68081"/><path d="M199.48195,190.12848l-10.31844,15.54481l-22.61641,-3.24005"/><path d="M163.155,202.65476l-10.31843,15.5448l-22.61642,-3.24005"/></g><g data-paper-data="{&quot;index&quot;:null}" stroke-linejoin="miter"><path d="M72.09622,117.31515c-1.13921,0.03027 -2.23704,0.23355 -2.54664,0.85956c-2.84177,5.74616 -8.67303,18.68174 -13.7456,12.92097c-2.45378,-2.78669 19.30431,-13.57009 19.30431,-13.57009c0,0 -1.54056,-0.24955 -3.01207,-0.21044z" data-paper-data="{&quot;origRot&quot;:0,&quot;index&quot;:null}" fill="url(#color-1)" stroke="none" stroke-width="0" stroke-linecap="butt"/><path d="M72.11208,118.42471c-2.84177,5.74616 -11.23553,18.43174 -16.3081,12.67097c-2.45378,-2.78669 16.05431,-17.25759 16.05431,-17.25759c0,0 0.96329,3.152 0.25379,4.58662z" data-paper-data="{&quot;origRot&quot;:0,&quot;index&quot;:null}" fill="url(#color-2)" stroke="none" stroke-width="0" stroke-linecap="butt"/><path d="M68.60124,73.05318c0,0 -3.39479,14.66687 -5.32206,13.92718c-3.98415,-1.52911 1.17883,-10.23883 3.62388,-12.83192c0.61044,-0.6474 1.69818,-1.09526 1.69818,-1.09526z" data-paper-data="{&quot;origRot&quot;:0,&quot;index&quot;:null}" fill="url(#color-3)" stroke="none" stroke-width="0" stroke-linecap="butt"/><path d="M61.08902,85.20903c-2.20145,-0.31576 0.43017,-13.85142 0.43017,-13.85142c0,0 4.13066,14.50559 -0.43017,13.85142z" data-paper-data="{&quot;origRot&quot;:0,&quot;index&quot;:null}" fill="url(#color-4)" stroke="none" stroke-width="0" stroke-linecap="butt"/><path d="M33.068,72.03394c0,0 4.7112,21.89505 2.75491,42.91056c-1.88604,20.26096 -1.85965,24.48896 -5.84171,46.42543c0,0 0.39329,9.3543 0.65245,14.70457c0.44315,9.14846 1.58931,19.7285 1.58931,19.7285c0,0 -2.89137,-14.17514 -10.0685,-24.25879c-12.13365,-16.81697 -16.7619,-13.41073 -18.38312,-15.99481" data-paper-data="{&quot;origRot&quot;:0}" fill="none" stroke="#576f4f" stroke-width="3.5" stroke-linecap="round"/><path d="M57.57319,94.9166c0,0 -2.45851,15.10549 -8.51244,31.81433c-3.70264,10.21929 -18.48756,38.18567 -18.48756,38.18567" fill="none" stroke="#536a4b" stroke-width="3" stroke-linecap="round"/><path d="M56.57319,130.9166c0,0 -4.7814,4.6731 -7.13714,6.6923c-2.31003,1.98003 -6.86286,5.3077 -6.86286,5.3077" fill="none" stroke="#536a4b" stroke-width="2" stroke-linecap="round"/><path d="M13.58662,94.02617c0,0 10.71747,19.66531 14.79125,40.37481c3.92752,19.96594 0.78633,35.00242 3.17798,57.16874c1.25891,11.66789 7.36243,31.23266 7.36243,31.23266" data-paper-data="{&quot;origRot&quot;:0}" fill="none" stroke="#708e65" stroke-width="5" stroke-linecap="round"/><path d="M-4.74228,57.117l23.05472,46.19902" data-paper-data="{&quot;origRot&quot;:0,&quot;index&quot;:null}" fill="none" stroke="#8fa686" stroke-width="10" stroke-linecap="round"/><path d="M34.63688,81.94829l-9.03128,-50.83606" data-paper-data="{&quot;origRot&quot;:0,&quot;index&quot;:null}" fill="none" stroke="#8fa686" stroke-width="10" stroke-linecap="round"/><path d="M75.09261,117.42079c0,0 -16.17312,16.48168 -18.78548,13.8289c-5.41214,-5.49587 18.78548,-13.8289 18.78548,-13.8289z" data-paper-data="{&quot;origRot&quot;:0,&quot;index&quot;:null}" fill="url(#color-5)" stroke="none" stroke-width="0" stroke-linecap="butt"/><path d="M71.67458,118.48721c-2.84177,5.74616 -10.79803,18.36924 -15.8706,12.60847c-2.45378,-2.78669 16.05431,-17.25759 16.05431,-17.25759c0,0 0.52579,3.2145 -0.18371,4.64912z" data-paper-data="{&quot;origRot&quot;:0,&quot;index&quot;:null}" fill="url(#color-6)" stroke="none" stroke-width="0" stroke-linecap="butt"/><path d="M55.63342,133.05157c-3.26968,-2.97691 7.81636,-16.74136 18.20258,-21.31275c0.34692,-0.15269 0.09373,0.40409 0.43991,0.27104c1.76626,-0.67884 -15.26358,24.11806 -18.64249,21.04171z" data-paper-data="{&quot;origRot&quot;:0}" fill="url(#color-7)" stroke="none" stroke-width="0" stroke-linecap="butt"/><path d="M74.2418,111.45217c0.7545,-0.28998 -4.03843,3.21083 -7.46868,8.33737c-4.76666,7.12381 -11.30296,13.32517 -11.30296,13.32517c0,0 -0.25809,-0.1742 -1.31453,-1.43753c0.43655,-5.65688 10.54141,-20.12448 20.08616,-20.22502z" data-paper-data="{&quot;origRot&quot;:0}" fill="url(#color-8)" stroke="none" stroke-width="0" stroke-linecap="butt"/><path d="M76.66881,115.78202c0,0 -2.65143,5.62599 -6.87691,10.20152c-4.25516,4.60767 -10.34247,7.78916 -12.61925,7.51883c-1.50074,-0.17818 -2.1529,-0.45946 -2.01528,-1.03876c0.04648,-0.19569 0.18309,-0.42538 0.40755,-0.6966c1.90896,-2.3066 6.89517,-6.21495 11.97251,-9.38622c5.50655,-3.43934 9.40922,-7.37693 9.13138,-6.59878z" data-paper-data="{&quot;origRot&quot;:0}" fill="url(#color-9)" stroke="none" stroke-width="0" stroke-linecap="butt"/><path d="M57.80763,102.32865c-5.63153,-2.48622 -0.45735,-11.18603 5.76038,-18.44967c4.91495,-7.71973 16.51563,-9.77069 16.51563,-9.77069c0,0 -10.49736,10.42348 -11.7882,14.18186c-0.69939,2.03632 -0.47361,0.57225 -0.47361,0.57225c0,0 -6.82087,14.87606 -10.01422,13.46625z" data-paper-data="{&quot;origRot&quot;:0,&quot;index&quot;:null}" fill="url(#color-10)" stroke="none" stroke-width="0" stroke-linecap="butt"/><path d="M57.62354,74.93757c6.20952,9.40816 13.15529,22.58002 0.79399,24.65366c-3.15534,0.52932 -4.43822,-13.3524 -4.43822,-13.3524c0,0 -0.80763,-7.28512 -1.59202,-10.57571c-1.77167,-7.43234 -2.59132,-7.47283 -2.59132,-7.47283c0,0 2.88712,-0.20489 7.82757,6.74728z" data-paper-data="{&quot;origRot&quot;:0,&quot;index&quot;:null}" fill="url(#color-11)" stroke="none" stroke-width="0" stroke-linecap="butt"/><path d="M8.59531,158.1846c-3.84198,5.87022 -13.54458,-5.2775 -17.72769,-11.63334c-1.11554,-1.69494 -2.42972,-6.14138 -2.42972,-6.14138c0,0 22.50641,14.18562 20.1574,17.77471z" data-paper-data="{&quot;origRot&quot;:0,&quot;index&quot;:null}" fill="url(#color-12)" stroke="none" stroke-width="0" stroke-linecap="butt"/><path d="M-2.57511,145.27077c7.16372,1.79662 14.70298,8.26016 9.45528,15.3782c-2.53852,3.44324 -22.259,-14.80654 -22.259,-14.80654c0,0 11.01518,-1.02021 12.80372,-0.57166z" data-paper-data="{&quot;origRot&quot;:0,&quot;index&quot;:null}" fill="url(#color-13)" stroke="none" stroke-width="0" stroke-linecap="butt"/><path d="M-15.37881,145.84247c0,0 6.41331,-2.09724 12.41207,-1.84452c7.16371,1.79662 15.09462,9.53302 9.84692,16.65106c-2.53852,3.44324 -22.259,-14.80654 -22.259,-14.80654z" data-paper-data="{&quot;origRot&quot;:0,&quot;index&quot;:null}" fill="url(#color-14)" stroke="none" stroke-width="0" stroke-linecap="butt"/><path d="M-17.75668,146.26315c-0.63745,-0.97193 8.99248,4.04944 16.96085,7.35458c6.97704,2.89395 12.48984,3.90098 11.25797,6.02769c-2.63876,4.5556 -20.96893,-2.32824 -28.21883,-13.38227z" data-paper-data="{&quot;origRot&quot;:0}" fill="url(#color-15)" stroke="none" stroke-width="0" stroke-linecap="butt"/><path d="M8.67912,148.81892c2.47088,3.37932 2.44147,7.92937 1.68286,9.78271c-0.26898,0.65716 -1.55107,2.19115 -1.55107,2.19115c0,0 -3.70543,-3.44903 -7.39136,-7.38759c-5.73052,-6.12329 -13.15824,-15.87928 -12.0781,-15.73873c0,0 14.62991,4.71388 19.33767,11.15246z" data-paper-data="{&quot;origRot&quot;:0}" fill="url(#color-16)" stroke="none" stroke-width="0" stroke-linecap="butt"/><path d="M-17.51269,146.92601c-0.64428,-0.98234 7.00458,3.90359 14.80292,7.64856c0.73916,0.35497 1.47966,0.69967 2.21458,1.02817c5.90018,2.63727 11.30425,2.18469 10.22222,4.05276c-1.62762,2.80995 -4.23102,3.11744 -12.10398,0.17967c-6.97349,-2.60213 -12.35765,-8.67338 -15.13573,-12.90917z" data-paper-data="{&quot;origRot&quot;:0}" fill="url(#color-17)" stroke="none" stroke-width="0" stroke-linecap="butt"/><path d="M48.37311,77.59552c0,0 4.83897,1.86235 7.55017,5.34398c2.54635,3.26994 3.82029,5.94327 4.17212,8.44744c0.79346,5.64741 -2.06626,12.41647 -3.37647,12.37824c-1.69222,-0.04938 -3.03177,-4.00492 -3.80219,-10.63589c-0.68644,-5.90812 -4.54362,-15.53377 -4.54362,-15.53377z" data-paper-data="{&quot;origRot&quot;:0}" fill="url(#color-18)" stroke="none" stroke-width="0" stroke-linecap="butt"/><path d="M46.51598,77.5955c0,0 4.83897,1.86235 7.55016,5.34398c2.54635,3.26994 3.82028,5.94327 4.17212,8.44744c0.79346,5.64741 -2.06626,12.41648 -3.37647,12.37825c-1.69222,-0.04938 -3.03178,-4.00492 -3.8022,-10.63589c-0.68644,-5.90812 -4.54362,-15.53377 -4.54362,-15.53377z" data-paper-data="{&quot;origRot&quot;:0}" fill="url(#color-19)" stroke="none" stroke-width="0" stroke-linecap="butt"/><path d="M78.38785,85.80773c0,0 -2.0142,-1.13768 -8.57567,7.97267c-5.79661,7.82893 -9.7121,10.0868 -12.55465,10.68167c-0.41811,0.0875 -2.71164,-0.67259 -2.71164,-0.67259c0,0 -0.29029,-0.42414 -0.52308,-1.00537c-0.25307,-0.63184 -0.43818,-1.4493 -0.10855,-2.1093c1.02799,-2.0583 4.06992,-7.89766 7.57055,-11.0707c6.38503,-5.78753 16.90304,-3.79638 16.90304,-3.79638z" data-paper-data="{&quot;origRot&quot;:0}" fill="url(#color-20)" stroke="none" stroke-width="0" stroke-linecap="butt"/></g><path d="M40.27701,209.84963c0,0 0.54203,-7.18875 2.47594,-14.91982c1.57385,-6.29169 6.20242,-19.52349 6.20242,-19.52349c0,0 -2.86365,16.83301 -3.01957,25.73731c-0.07466,4.26468 2.42867,8.00654 2.42867,8.00654z" data-paper-data="{&quot;index&quot;:null}" fill="url(#color-21)" stroke="none" stroke-width="0" stroke-linecap="butt" stroke-linejoin="miter"/><path d="M42.72734,210.19537c0,0 1.16012,-2.91229 4.62883,-10.31609c2.92886,-6.25149 5.92664,-7.97973 5.92664,-7.97973c0,0 -2.76258,6.56305 -3.52848,12.87369c-0.94111,7.75436 1.24958,6.3606 1.24958,6.3606z" data-paper-data="{&quot;origRot&quot;:0,&quot;index&quot;:null}" fill="url(#color-22)" stroke="none" stroke-width="0" stroke-linecap="butt" stroke-linejoin="miter"/><path d="M37.07835,207.95895c0,0 0.96508,4.80538 1.98785,-7.46562c0.83235,-9.98638 1.59125,-22.59843 1.59125,-22.59843c0,0 0.56378,2.66531 1.53021,12.8549c1.14456,12.06777 1.9389,16.87169 1.9389,16.87169z" data-paper-data="{&quot;index&quot;:null}" fill="url(#color-23)" stroke="none" stroke-width="0" stroke-linecap="butt" stroke-linejoin="miter"/><path d="M33.30198,206.45314c0,0 2.50334,-3.74187 2.42867,-8.00654c-0.15592,-8.90428 -3.01956,-25.73731 -3.01956,-25.73731c0,0 4.62858,13.23181 6.20244,19.52352c1.93391,7.73106 2.47593,14.91981 2.47593,14.91981z" data-paper-data="{&quot;index&quot;:null}" fill="url(#color-24)" stroke="none" stroke-width="0" stroke-linecap="butt" stroke-linejoin="miter"/><path d="M23.6626,207.43681c0,0 2.19071,1.39377 1.24958,-6.3606c-0.76592,-6.31066 -3.52849,-12.8737 -3.52849,-12.8737c0,0 2.99777,1.72823 5.92663,7.97973c3.4687,7.4038 4.62883,10.31609 4.62883,10.31609z" data-paper-data="{&quot;origRot&quot;:0,&quot;index&quot;:null}" fill="url(#color-25)" stroke="none" stroke-width="0" stroke-linecap="butt" stroke-linejoin="miter"/><path d="M218.2596,204.8303c0,0 6.10352,-19.56477 7.36243,-31.23266c2.39165,-22.16632 -0.74954,-37.2028 3.17798,-57.16874c4.07378,-20.7095 14.79125,-40.37481 14.79125,-40.37481" data-paper-data="{&quot;origRot&quot;:0}" fill="none" stroke="#708e65" stroke-width="5" stroke-linecap="round" stroke-linejoin="miter"/><path d="M238.86547,85.34403l23.05472,-46.19902" data-paper-data="{&quot;origRot&quot;:0,&quot;index&quot;:null}" fill="none" stroke="#8fa686" stroke-width="10" stroke-linecap="round" stroke-linejoin="miter"/><path d="M231.57224,13.14017l-9.03128,50.83606" data-paper-data="{&quot;origRot&quot;:0,&quot;index&quot;:null}" fill="none" stroke="#8fa686" stroke-width="10" stroke-linecap="round" stroke-linejoin="miter"/><path d="M267.4414,114.03157c2.00745,-0.96318 3.3891,0.04503 3.01469,2.23988c-2.27033,13.30904 -15.61611,27.74126 -19.94726,24.55498c-4.33115,-3.18628 5.64067,-21.37697 16.93257,-26.79487z" data-paper-data="{&quot;origRot&quot;:0,&quot;index&quot;:null,&quot;origPos&quot;:null}" fill="#68845e" stroke="none" stroke-width="0" stroke-linecap="butt" stroke-linejoin="miter"/><path d="M519.5544,265.36885l3.06174,-11.91796l36.36585,9.34243l-3.06174,11.91796z" data-paper-data="{&quot;zoomLevel&quot;:1.5487,&quot;index&quot;:null}" fill="#746b5d" stroke="#837969" stroke-width="11.5" stroke-linecap="butt" stroke-linejoin="round"/><path d="M523.91916,291.94732l5.92642,-23.06886l16.28781,4.18435l-5.92642,23.06886z" data-paper-data="{&quot;index&quot;:null}" fill="url(#color-26)" stroke="none" stroke-width="0" stroke-linecap="butt" stroke-linejoin="miter"/><path d="M519.25548,266.53232l3.06174,-11.91796l36.36585,9.34243l-3.06174,11.91796z" data-paper-data="{&quot;zoomLevel&quot;:1.5487,&quot;index&quot;:null}" fill="#746b5d" stroke="#746b5d" stroke-width="11.5" stroke-linecap="butt" stroke-linejoin="round"/><path d="M522.5277,270.13647l4.56476,-17.76852l29.44496,7.56445l-4.56476,17.76852z" data-paper-data="{&quot;index&quot;:null}" fill="url(#color-27)" stroke="none" stroke-width="0" stroke-linecap="butt" stroke-linejoin="miter"/><path d="M546.33696,279.41531l4.49164,-9.75983l-0.95486,10.66844z" data-paper-data="{&quot;index&quot;:null}" fill="#665f56" stroke="none" stroke-width="0" stroke-linecap="butt" stroke-linejoin="miter"/><path d="M540.1941,277.83724l7.59812,-16.56712l-1.64144,18.0974z" data-paper-data="{&quot;index&quot;:null}" fill="#665f56" stroke="none" stroke-width="0" stroke-linecap="butt" stroke-linejoin="miter"/><path d="M534.41357,266.20835c0,0 0.86414,1.56208 2.65687,4.80441c0.56037,1.01197 0.19346,2.28711 -0.81923,2.84711c-1.01249,0.56063 -2.28727,0.19382 -2.84769,-0.8194c-2.2111,-3.99766 -5.10411,-9.22841 -5.10411,-9.22841c-0.56005,-1.01232 -0.19319,-2.28725 0.81935,-2.84747c0,0 6.06127,-3.35295 9.3027,-5.1455c1.01255,-0.5602 2.28711,-0.19325 2.84769,0.8194c0.56015,1.01253 0.19335,2.28731 -0.81935,2.84747c-3.99761,2.21093 -4.86649,2.6983 -4.86649,2.6983c0,0 10.02211,2.88828 13.58159,3.9125c1.11212,0.32002 1.75425,1.48073 1.43425,2.59285c-0.31996,1.11191 -1.48088,1.75419 -2.593,1.43419c-4.2456,-1.22163 -13.59258,-3.91544 -13.59258,-3.91544z" data-paper-data="{&quot;index&quot;:null}" fill="url(#color-28)" stroke="none" stroke-width="0" stroke-linecap="butt" stroke-linejoin="miter"/><path d="M511.38065,306.34686c-0.80587,-32.74571 10.74795,-59.59179 25.8062,-59.96237c15.05824,-0.37059 27.91866,25.87463 28.72454,58.62034c0.80588,32.7457 -10.74793,59.59178 -25.80618,59.96236c-15.05826,0.37059 -27.91868,-25.87464 -28.72456,-58.62035z" data-paper-data="{&quot;index&quot;:null}" fill="none" stroke="none" stroke-width="0" stroke-linecap="butt" stroke-linejoin="miter"/><path d="M105.17296,126.9c0,58.54218 -31.11621,106 -69.5,106c-38.38379,0 -69.5,-47.45782 -69.5,-106c0,-58.54218 31.11621,-106 69.5,-106c38.38379,0 69.5,47.45782 69.5,106z" fill="none" stroke="none" stroke-width="0" stroke-linecap="butt" stroke-linejoin="miter"/></g></g></svg>