<svg version="1.1" xmlns="http://www.w3.org/2000/svg" xmlns:xlink="http://www.w3.org/1999/xlink" width="561.3181" height="395.02118" viewBox="0,0,561.3181,395.02118"><defs><linearGradient x1="210.47764" y1="23.27843" x2="210.47764" y2="38.25285" gradientUnits="userSpaceOnUse" id="color-1"><stop offset="0" stop-color="#ecd284"/><stop offset="1" stop-color="#c5af6e"/></linearGradient><linearGradient x1="166.47757" y1="23.27843" x2="166.47757" y2="38.25285" gradientUnits="userSpaceOnUse" id="color-2"><stop offset="0" stop-color="#ecd284"/><stop offset="1" stop-color="#c5af6e"/></linearGradient><linearGradient x1="324.17759" y1="23.22839" x2="324.17759" y2="39.44485" gradientUnits="userSpaceOnUse" id="color-3"><stop offset="0" stop-color="#ecd284"/><stop offset="1" stop-color="#c5af6e"/></linearGradient><linearGradient x1="102.86187" y1="-14.39563" x2="102.86187" y2="87.70647" gradientUnits="userSpaceOnUse" id="color-4"><stop offset="0" stop-color="#7e7463"/><stop offset="1" stop-color="#847c6b"/></linearGradient><linearGradient x1="126.32107" y1="-22.87091" x2="126.32107" y2="10.19614" gradientUnits="userSpaceOnUse" id="color-5"><stop offset="0" stop-color="#454037"/><stop offset="1" stop-color="#454037" stop-opacity="0"/></linearGradient><linearGradient x1="118.59533" y1="-39.14423" x2="118.59533" y2="-17.14423" gradientUnits="userSpaceOnUse" id="color-6"><stop offset="0" stop-color="#95bd86"/><stop offset="1" stop-color="#80a374"/></linearGradient><linearGradient x1="88.41975" y1="-39.14423" x2="88.41975" y2="-17.14423" gradientUnits="userSpaceOnUse" id="color-7"><stop offset="0" stop-color="#95bd86"/><stop offset="1" stop-color="#80a374"/></linearGradient><linearGradient x1="102.86191" y1="-14.39563" x2="102.86191" y2="87.70648" gradientUnits="userSpaceOnUse" id="color-8"><stop offset="0" stop-color="#7e7463"/><stop offset="1" stop-color="#847c6b"/></linearGradient><linearGradient x1="126.32112" y1="-22.87089" x2="126.32112" y2="10.19615" gradientUnits="userSpaceOnUse" id="color-9"><stop offset="0" stop-color="#454037"/><stop offset="1" stop-color="#454037" stop-opacity="0"/></linearGradient><linearGradient x1="118.59538" y1="-39.14422" x2="118.59538" y2="-17.14422" gradientUnits="userSpaceOnUse" id="color-10"><stop offset="0" stop-color="#95bd86"/><stop offset="1" stop-color="#80a374"/></linearGradient><linearGradient x1="88.4198" y1="-39.14422" x2="88.4198" y2="-17.14422" gradientUnits="userSpaceOnUse" id="color-11"><stop offset="0" stop-color="#95bd86"/><stop offset="1" stop-color="#80a374"/></linearGradient><linearGradient x1="85.45831" y1="38.96396" x2="85.45831" y2="106.5443" gradientUnits="userSpaceOnUse" id="color-12"><stop offset="0" stop-color="#ffca1b"/><stop offset="1" stop-color="#dbb432"/></linearGradient><linearGradient x1="14.39224" y1="73.00301" x2="14.39224" y2="140.58335" gradientUnits="userSpaceOnUse" id="color-13"><stop offset="0" stop-color="#ffca1b"/><stop offset="1" stop-color="#dbb432"/></linearGradient><linearGradient x1="292.06214" y1="159.65748" x2="289.99725" y2="183.10241" gradientUnits="userSpaceOnUse" id="color-14"><stop offset="0" stop-color="#ecd284"/><stop offset="1" stop-color="#c5af6e"/></linearGradient><linearGradient x1="415.30377" y1="219.476" x2="410.43773" y2="242.50317" gradientUnits="userSpaceOnUse" id="color-15"><stop offset="0" stop-color="#ecd284"/><stop offset="1" stop-color="#c5af6e"/></linearGradient></defs><g transform="translate(105.23487,83.32073)"><g data-paper-data="{&quot;isPaintingLayer&quot;:true}" fill-rule="nonzero" stroke="none" stroke-linecap="butt" stroke-linejoin="miter" stroke-miterlimit="10" stroke-dasharray="" stroke-dashoffset="0" style="mix-blend-mode: normal"><g stroke-width="0"><path d="M141.07321,79.36853v-46.09603h129.67364v46.09603z" fill="#e4cb7f"/><path d="M149.14127,40.85399v-13.30774h121.80288v13.30775z" fill="#b7a367"/><path d="M147.00094,23.27843h126.95339v14.9744c0,0 -14.53489,-0.80408 -24.75119,-1.1784c-12.79532,-0.46881 -21.41758,1.11765 -34.21368,0.7367c-12.05894,-0.359 -20.7426,-0.66512 -32.80295,-0.66512c-6.68025,0 -35.18558,1.10685 -35.18558,1.10685z" fill="url(#color-1)"/><path d="M97.07314,79.36853v-46.09603h129.67364v46.09603z" fill="#e4cb7f"/><path d="M105.14121,40.85399v-13.30774h121.80288v13.30775z" fill="#b7a367"/><path d="M103.00087,23.27843h126.95339v13.9744c0,0 -14.53489,0.19592 -24.75119,-0.1784c-12.79532,-0.46881 -21.41758,1.11765 -34.21368,0.7367c-12.05894,-0.359 -20.7426,0.33488 -32.80295,0.33488c-6.68025,0 -35.18558,0.10685 -35.18558,0.10685z" fill="url(#color-2)"/><path d="M265.07319,79.61853v-46.09603h121.67364c0,0 0,26.70746 0,35.10434c0,4.69861 -5.60083,10.99169 -11.31429,10.99169c-13.02804,0 -65.86062,0 -93.42953,0c-10.19098,0 -16.92982,0 -16.92982,0z" fill="#e4cb7f"/><path d="M262.74125,40.90401v-13.30774h124.20288v13.30775z" fill="#b7a367"/><path d="M258.40091,37.66946l4.6,-14.44107c0,0 11.97943,0 28.4767,0c33.18811,0 84.66022,0 93.66667,0c2.6757,0 4.81002,2.73834 4.81002,4.64815c0,1.84313 0,5.80076 0,8.66667c0,1.90408 -1.09362,3.14035 -2.89175,2.86281c-4.75718,-0.73428 -14.44548,-2.10998 -21.85944,-2.38163c-12.79532,-0.46881 -21.41758,1.11765 -34.21368,0.7367c-12.05894,-0.359 -20.7426,-0.66512 -32.80295,-0.66512c-4.80879,0 -22.11069,1.29717 -32.09983,1.46368c-3.88753,0.0648 -7.68574,-0.89019 -7.68574,-0.89019z" fill="url(#color-3)"/></g><g stroke-width="0"><path d="M3.01203,74.65542c0,-16.4355 0,-89.05105 0,-89.05105h199.6997c0,0 0,70.48838 0,87.19894c0,6.63462 -6.39222,14.90316 -16.82815,14.90316c-41.42075,0 -146.54351,0 -168.52511,0c-7.94007,0 -14.34643,-6.75908 -14.34643,-13.05105z" fill="url(#color-4)"/><path d="M124.35927,-19.45492h43v107.10055h-42.99998z" fill="#7c7464"/><path d="M39.35926,-19.70492h43v107.10055h-42.99998z" fill="#7c7464"/><path d="M3.0229,10.19614c0,0 -0.09279,-21.05637 -0.09279,-25.92258c0,-1.56759 14.95657,-7.26319 14.95657,-7.26319l182.24949,0.09417c-1.09205,4.10494 1.03328,8.43796 1.03328,12.7895c0,6.76737 0,13.53474 0,20.30211z" fill="url(#color-5)"/><path d="M-3.02956,-37.38713c0,0 -0.02698,0.32297 -0.04609,-1.1973c-0.14226,-12.98086 7.39156,-11.54604 12.82201,-11.54604c18.31743,0 126.34193,0 190.94752,0c0.08427,0.56076 0.21511,1.10627 0.38845,1.63249c0,2.00437 -0.12131,6.40426 0.05397,11.11086z" fill="#94bc85"/><path d="M-3.09694,-13.14425c0,-4.21713 0,-14.07115 0,-14.07115c0,0 115.42392,0.21806 155.94205,0.29461c25.87698,0.04889 9.9776,23.16198 -19.02797,23.16198c-48.63396,0 -95.63587,0 -112.38018,0c-6.10971,0 -9.62673,0 -14.17734,0c-10.0914,0 -10.35657,-5.9413 -10.35657,-9.38544z" fill="#80a374"/><path d="M-3.13016,-17.14423v-22c0,0 2.89607,0 6.7414,0c15.983,0 126.00965,0 190.28373,0c0.01954,0.86766 0.02189,6.7431 0.01825,12.20481c-0.00024,0.3577 -0.0005,0.71363 -0.00079,1.06625c-0.00369,4.53229 -0.01108,8.51984 -0.01554,8.72894z" fill="url(#color-6)"/><g><path d="M5.87883,-37.38712c0.17528,-4.7066 0.05397,-9.10649 0.05397,-11.11086c0.17334,-0.52622 0.30418,-1.07173 0.38845,-1.63249c64.60559,0 172.63009,0 190.94752,0c5.43045,0 12.96427,-1.43482 12.82201,11.54604c-0.01911,1.52027 -0.04609,1.1973 -0.04609,1.1973z" data-paper-data="{&quot;index&quot;:null}" fill="#94bc85"/><path d="M210.11207,-13.14425c0,3.44414 -0.26517,9.38544 -10.35657,9.38544c-4.55061,0 -8.06763,0 -14.17734,0c-16.74431,0 -63.74622,0 -112.38018,0c-29.00557,0 -44.90496,-23.1131 -19.02798,-23.16198c40.51814,-0.07654 155.94205,-0.2946 155.94205,-0.2946c0,0 0,9.85402 0,14.07115z" data-paper-data="{&quot;index&quot;:null}" fill="#80a374"/><path d="M13.11826,-17.14423c-0.00446,-0.2091 -0.01185,-4.19665 -0.01554,-8.72894c-0.00029,-0.35262 -0.00055,-0.70855 -0.00079,-1.06625c-0.00363,-5.46171 -0.00128,-11.33715 0.01826,-12.20481c64.27409,0 174.30073,0 190.28373,0c3.84533,0 6.7414,0 6.7414,0v22z" data-paper-data="{&quot;index&quot;:null}" fill="url(#color-7)"/></g><path d="M3.01205,74.65542c0,-16.4355 0,-89.05105 0,-89.05105h199.6997c0,0 0,70.48838 0,87.19894c0,6.63462 -6.39222,14.90316 -16.82815,14.90316c-41.42075,0 -146.54351,0 -168.52511,0c-7.94007,0 -14.34643,-6.75908 -14.34643,-13.05105z" fill="url(#color-8)"/><path d="M124.3593,-19.45491h43v107.10055h-42.99998z" fill="#7c7464"/><path d="M39.35928,-19.70491h43v107.10055h-42.99998z" fill="#7c7464"/><path d="M3.02293,10.19615c0,0 -0.09279,-21.05637 -0.09279,-25.92258c0,-1.56759 14.95657,-7.26319 14.95657,-7.26319l182.24949,0.09417c-1.09205,4.10494 1.03328,8.43796 1.03328,12.7895c0,6.76737 0,13.53474 0,20.30211z" fill="url(#color-9)"/><path d="M-3.02954,-37.38712c0,0 -0.02698,0.32297 -0.04609,-1.1973c-0.14226,-12.98086 7.39156,-11.54604 12.82201,-11.54604c18.31743,0 126.34193,0 190.94752,0c0.08427,0.56076 0.21511,1.10627 0.38845,1.63249c0,2.00437 -0.12131,6.40426 0.05397,11.11086z" fill="#94bc85"/><path d="M-3.09692,-13.14425c0,-4.21713 0,-14.07115 0,-14.07115c0,0 115.42392,0.21806 155.94205,0.29461c25.87698,0.04889 9.9776,23.16198 -19.02797,23.16198c-48.63396,0 -95.63587,0 -112.38018,0c-6.10971,0 -9.62673,0 -14.17734,0c-10.0914,0 -10.35657,-5.9413 -10.35657,-9.38544z" fill="#80a374"/><path d="M-3.13014,-17.14422v-22c0,0 2.89607,0 6.7414,0c15.983,0 126.00965,0 190.28373,0c0.01954,0.86766 0.02189,6.7431 0.01825,12.20481c-0.00024,0.3577 -0.0005,0.71363 -0.00079,1.06625c-0.00369,4.53229 -0.01108,8.51984 -0.01554,8.72894z" fill="url(#color-10)"/><g><path d="M5.87883,-37.38712c0.17528,-4.7066 0.05397,-9.10649 0.05397,-11.11086c0.17334,-0.52622 0.30418,-1.07173 0.38845,-1.63249c64.60559,0 172.63009,0 190.94752,0c5.43045,0 12.96427,-1.43482 12.82201,11.54604c-0.01911,1.52027 -0.04609,1.1973 -0.04609,1.1973z" data-paper-data="{&quot;index&quot;:null}" fill="#94bc85"/><path d="M210.11207,-13.14425c0,3.44414 -0.26517,9.38544 -10.35657,9.38544c-4.55061,0 -8.06763,0 -14.17734,0c-16.74431,0 -63.74622,0 -112.38018,0c-29.00557,0 -44.90496,-23.1131 -19.02798,-23.16198c40.51814,-0.07654 155.94205,-0.2946 155.94205,-0.2946c0,0 0,9.85402 0,14.07115z" data-paper-data="{&quot;index&quot;:null}" fill="#80a374"/><path d="M13.11829,-17.14422c-0.00446,-0.2091 -0.01185,-4.19665 -0.01554,-8.72894c-0.00029,-0.35262 -0.00055,-0.70855 -0.00079,-1.06625c-0.00363,-5.46171 -0.00128,-11.33715 0.01826,-12.20481c64.27409,0 174.30073,0 190.28373,0c3.84533,0 6.7414,0 6.7414,0v22z" data-paper-data="{&quot;index&quot;:null}" fill="url(#color-11)"/></g></g><g data-paper-data="{&quot;index&quot;:null}"><path d="M-11.98,106.46015v-44.04227h190.2251v44.04227z" fill="#d2a617" stroke-width="0"/><path d="M180.08546,56.5443c13.80712,0 25,11.19288 25,25c0,13.80712 -11.19288,25 -25,25c-7.65738,0 -14.51068,-3.44268 -19.09655,-8.86468c-1.25232,0.19314 -2.53533,0.29335 -3.84172,0.29335c-6.33076,0 -12.11191,-2.35314 -16.51652,-6.23246c-4.4046,3.87933 -10.18576,6.23246 -16.51652,6.23246c-7.08585,0 -13.48317,-2.94795 -18.03242,-7.68429c-0.97993,0.11673 -1.97726,0.17678 -2.98861,0.17678c-5.30223,0 -10.21893,-1.65063 -14.26427,-4.46609c-4.04534,2.81545 -8.96204,4.46609 -14.26426,4.46609c-6.71196,0 -12.80614,-2.64505 -17.29702,-6.94966c-4.58063,5.18292 -11.27815,8.45116 -18.73901,8.45116c-5.74721,0 -11.04146,-1.93932 -15.26406,-5.19926c-2.63929,1.18951 -5.52218,1.93427 -8.5532,2.13881c-3.16123,10.18343 -12.65703,17.5788 -23.8801,17.5788c-13.80712,0 -25,-11.19288 -25,-25c0,-13.23297 10.28136,-24.0646 23.29173,-24.94256c3.16124,-10.18344 12.65703,-17.57879 23.8801,-17.57879c5.74721,0 11.04146,1.93932 15.26406,5.19926c3.13083,-1.41104 6.60444,-2.19625 10.26147,-2.19625c6.71196,0 12.80614,2.64505 17.29702,6.94965c4.58063,-5.18292 11.27815,-8.45116 18.73901,-8.45116c5.30223,0 10.21892,1.65064 14.26426,4.46609c4.04534,-2.81545 8.96204,-4.46609 14.26427,-4.46609c7.08584,0 13.48317,2.94795 18.03242,7.6843c0.97993,-0.11674 1.97725,-0.17679 2.9886,-0.17679c6.33076,0 12.11191,2.35314 16.51652,6.23247c4.4046,-3.87933 10.18575,-6.23247 16.51652,-6.23247c7.65738,0 14.51068,3.44268 19.09655,8.86468c1.25233,-0.19315 2.53533,-0.29334 3.84172,-0.29334z" fill="url(#color-12)" stroke-width="0.5"/></g><g data-paper-data="{&quot;index&quot;:null}"><path d="M-83.04607,140.49919v-44.04227h190.2251v44.04227z" fill="#d2a617" stroke-width="0"/><path d="M109.01939,90.58335c13.80712,0 25,11.19288 25,25c0,13.80712 -11.19288,25 -25,25c-7.65738,0 -14.51068,-3.44268 -19.09655,-8.86468c-1.25232,0.19314 -2.53533,0.29335 -3.84172,0.29335c-6.33076,0 -12.11191,-2.35314 -16.51652,-6.23246c-4.4046,3.87933 -10.18576,6.23246 -16.51652,6.23246c-7.08585,0 -13.48317,-2.94795 -18.03242,-7.68429c-0.97993,0.11673 -1.97726,0.17678 -2.98861,0.17678c-5.30223,0 -10.21893,-1.65063 -14.26427,-4.46609c-4.04534,2.81545 -8.96204,4.46609 -14.26426,4.46609c-6.71196,0 -12.80614,-2.64505 -17.29702,-6.94966c-4.58063,5.18292 -11.27815,8.45116 -18.73901,8.45116c-5.74721,0 -11.04146,-1.93932 -15.26406,-5.19926c-2.63929,1.18951 -5.52218,1.93427 -8.5532,2.13881c-3.16123,10.18343 -12.65703,17.5788 -23.8801,17.5788c-13.80712,0 -25,-11.19288 -25,-25c0,-13.23297 10.28136,-24.0646 23.29173,-24.94256c3.16124,-10.18344 12.65703,-17.57879 23.8801,-17.57879c5.74721,0 11.04146,1.93932 15.26406,5.19926c3.13083,-1.41104 6.60444,-2.19625 10.26147,-2.19625c6.71196,0 12.80614,2.64505 17.29702,6.94965c4.58063,-5.18292 11.27815,-8.45116 18.73901,-8.45116c5.30223,0 10.21892,1.65064 14.26426,4.46609c4.04534,-2.81545 8.96204,-4.46609 14.26427,-4.46609c7.08584,0 13.48317,2.94795 18.03242,7.6843c0.97993,-0.11674 1.97725,-0.17679 2.9886,-0.17679c6.33076,0 12.11191,2.35314 16.51652,6.23247c4.4046,-3.87933 10.18575,-6.23247 16.51652,-6.23247c7.65738,0 14.51068,3.44268 19.09655,8.86468c1.25233,-0.19315 2.53533,-0.29334 3.84172,-0.29334z" fill="url(#color-13)" stroke-width="0.5"/></g><path d="M258.03746,67.89305c0.0101,2.11546 -2.07692,3.8398 -3.87165,3.84836c-2.62537,0.01253 -10.15701,0.04849 -15.09599,0.07208c-2.64924,0.01265 -4.56406,-2.39482 -4.57358,-4.38867c-0.00686,-1.43784 -0.02118,-4.43781 -0.03141,-6.58031c-0.00911,-1.90787 2.07872,-3.8398 4.9213,-3.85338c4.71294,-0.02251 11.47543,-0.05479 14.12829,-0.06745c2.27717,-0.01087 4.48181,2.33646 4.48976,4.00199c0.00702,1.47078 0.02146,4.49339 0.03327,6.96738z" data-paper-data="{&quot;index&quot;:null}" fill="#e9d18c" stroke-width="NaN"/><path d="M295.78746,69.39306c0.01009,2.11547 -2.07691,3.83979 -3.87165,3.84836c-2.62537,0.01253 -10.15701,0.0485 -15.09599,0.07209c-2.64924,0.01265 -4.56406,-2.39483 -4.57358,-4.38868c-0.00687,-1.43784 -0.02118,-4.43781 -0.03141,-6.58031c-0.00911,-1.90787 2.07872,-3.8398 4.9213,-3.85337c4.71294,-0.02251 11.47543,-0.0548 14.12829,-0.06745c2.27718,-0.01087 4.48181,2.33646 4.48976,4.00199c0.00702,1.47078 0.02146,4.4934 0.03327,6.96738z" data-paper-data="{&quot;index&quot;:null}" fill="#e9d18c" stroke-width="NaN"/><path d="M240.53746,59.14306c0.01009,2.11547 -2.07691,3.83979 -3.87165,3.84836c-2.62537,0.01253 -10.15701,0.0485 -15.09599,0.07209c-2.64923,0.01265 -4.56406,-2.39483 -4.57358,-4.38868c-0.00687,-1.43784 -0.02118,-4.43781 -0.03142,-6.58031c-0.00911,-1.90787 2.07872,-3.8398 4.92131,-3.85337c4.71294,-0.02251 11.47543,-0.0548 14.12829,-0.06746c2.27717,-0.01087 4.48181,2.33646 4.48976,4.00199c0.00702,1.47078 0.02146,4.4934 0.03327,6.96738z" data-paper-data="{&quot;index&quot;:null}" fill="#e9d18c" stroke-width="NaN"/><path d="M319.53746,65.89306c0.01009,2.11547 -2.07691,3.83979 -3.87165,3.84836c-2.62537,0.01253 -10.15701,0.0485 -15.09599,0.07209c-2.64923,0.01265 -4.56406,-2.39482 -4.57358,-4.38868c-0.00687,-1.43785 -0.02118,-4.43781 -0.03142,-6.58031c-0.00911,-1.90787 2.07872,-3.8398 4.92131,-3.85337c4.71294,-0.02251 11.47543,-0.0548 14.12829,-0.06746c2.27717,-0.01087 4.48181,2.33646 4.48976,4.00199c0.00702,1.47078 0.02146,4.49339 0.03327,6.96738z" data-paper-data="{&quot;index&quot;:null}" fill="#e9d18c" stroke-width="NaN"/><path d="M365.28746,64.14306c0.01009,2.11547 -2.07691,3.8398 -3.87165,3.84836c-2.62537,0.01254 -10.15701,0.0485 -15.09599,0.07209c-2.64924,0.01265 -4.56406,-2.39482 -4.57358,-4.38868c-0.00687,-1.43785 -0.02118,-4.43781 -0.03141,-6.58031c-0.00911,-1.90787 2.07872,-3.8398 4.9213,-3.85337c4.71294,-0.02251 11.47543,-0.0548 14.12829,-0.06745c2.27718,-0.01087 4.48181,2.33646 4.48976,4.00199c0.00702,1.47078 0.02146,4.4934 0.03326,6.96738z" data-paper-data="{&quot;index&quot;:null}" fill="#e9d18c" stroke-width="NaN"/><path d="M330.72234,173.26298c-0.0116,0.22152 0.08674,16.05537 0.04138,26.85441c-0.02355,5.60823 -3.21714,9.87224 -8.00967,9.89317c-16.91899,0.07391 -56.05895,0.24488 -63.45346,0.27717c-6.16782,0.02694 -8.50366,-4.97493 -8.52,-8.71702c-0.02921,-6.6875 -0.12212,-27.958 -0.12212,-27.958z" data-paper-data="{&quot;index&quot;:null}" fill="#e4cb7f" stroke-width="0"/><path d="M250.66036,181.05502l-0.05813,-13.30763l80.03546,-0.34959l0.05814,13.30761z" data-paper-data="{&quot;index&quot;:null}" fill="#b7a367" stroke-width="0"/><path d="M252.61595,163.37072c7.54056,-0.03295 76.63768,-0.33477 76.63768,-0.33477c0,0 4.65332,-0.5462 4.67107,3.37235c0.13626,0.84486 0.04052,10.3467 0.04052,10.3467c0,0 -0.21182,2.87559 -2.60838,2.95143c-2.46172,0.0779 -6.05011,-0.26975 -9.87676,-0.6998c-5.71316,-0.64205 -11.95736,-1.46775 -15.77585,-1.33496c-12.52741,0.43567 -20.97666,-1.1139 -33.50294,-0.59035c-7.25806,0.30336 -16.73817,1.72048 -21.39289,2.4751c-1.75939,0.28524 -2.83558,-0.94635 -2.8439,-2.85041c-0.01251,-2.86588 -0.02982,-6.82348 -0.03786,-8.66659c-0.00834,-1.90979 2.06948,-4.65722 4.68935,-4.66868z" data-paper-data="{&quot;index&quot;:null}" fill="url(#color-14)" stroke-width="0"/><path d="M306.76748,195.37886c0.00923,2.11158 -2.07466,3.83191 -3.86612,3.83974c-2.62056,0.01146 -10.13841,0.04429 -15.06835,0.06582c-2.6444,0.01155 -4.55471,-2.39228 -4.5634,-4.38249c-0.00627,-1.43521 -0.01934,-4.42969 -0.02869,-6.56826c-0.00832,-1.90437 2.07646,-3.83193 4.91385,-3.84433c4.70431,-0.02055 11.45442,-0.05003 14.10244,-0.0616c2.27301,-0.00994 4.47265,2.334 4.47991,3.99648c0.00642,1.4681 0.01959,4.48517 0.03038,6.95463z" data-paper-data="{&quot;index&quot;:null}" fill="#e9d18c" stroke-width="NaN"/><path d="M324.27818,199.97269c0.00781,1.78734 -1.7561,3.24352 -3.27249,3.25014c-2.21817,0.00969 -8.58164,0.03749 -12.75457,0.05572c-2.23834,0.00978 -3.85533,-2.02494 -3.86269,-3.70955c-0.0053,-1.21483 -0.01637,-3.7495 -0.02429,-5.5597c-0.00705,-1.61195 1.75762,-3.24352 4.15931,-3.25402c3.98196,-0.0174 9.69556,-0.04236 11.93697,-0.05214c1.92399,-0.00841 3.78588,1.97561 3.79201,3.38281c0.00543,1.24267 0.01659,3.79647 0.02572,5.88673z" data-paper-data="{&quot;index&quot;:null}" fill="#e9d18c" stroke-width="NaN"/><path d="M452.04983,237.62668c-0.03811,0.21852 -1.84239,15.94955 -3.18455,26.66495c-0.69701,5.56479 -4.37966,9.41434 -9.14,8.85946c-16.80537,-1.95885 -55.68249,-6.49045 -63.02734,-7.34658c-6.1264,-0.71412 -7.84452,-5.96033 -7.41126,-9.67729c0.77426,-6.64259 3.23695,-27.77025 3.23695,-27.77025z" data-paper-data="{&quot;index&quot;:null}" fill="#e4cb7f" stroke-width="0"/><path d="M371.63157,235.74563l1.54074,-13.21826l79.49799,9.26644l-1.54073,13.21825z" data-paper-data="{&quot;index&quot;:null}" fill="#b7a367" stroke-width="0"/><path d="M375.69716,218.42427c7.48992,0.87303 76.12303,8.87302 76.12303,8.87302c0,0 4.68524,0.01669 4.23218,3.909c0.03379,0.85511 -1.20257,10.27666 -1.20257,10.27666c0,0 -0.55569,2.82933 -2.94401,2.61675c-2.45325,-0.21835 -5.97391,-0.99451 -9.72119,-1.88108c-5.59468,-1.32364 -11.69449,-2.89339 -15.50129,-3.22022c-12.48904,-1.07222 -20.69099,-3.62546 -33.18947,-4.6103c-7.24195,-0.57064 -16.82365,-0.30249 -21.5353,-0.11244c-1.78091,0.07184 -2.70138,-1.2801 -2.48093,-3.17137c0.33182,-2.84663 0.79001,-6.77766 1.00342,-8.60839c0.22112,-1.89696 2.6139,-4.37492 5.21618,-4.07162z" data-paper-data="{&quot;index&quot;:null}" fill="url(#color-15)" stroke-width="0"/><path d="M425.61195,256.7051c-0.24447,2.0974 -2.51991,3.55497 -4.29934,3.34756c-2.60296,-0.30339 -10.07033,-1.17381 -14.96716,-1.7446c-2.62664,-0.30617 -4.23438,-2.92205 -4.00396,-4.8989c0.16617,-1.42557 0.51287,-4.39994 0.76047,-6.52415c0.22048,-1.89158 2.5217,-3.55477 5.34004,-3.22627c4.67272,0.54466 11.37751,1.32619 14.00774,1.63277c2.25775,0.26316 4.15992,2.85434 3.96744,4.50565c-0.16997,1.45824 -0.51928,4.45505 -0.8052,6.90793z" data-paper-data="{&quot;index&quot;:null}" fill="#e9d18c" stroke-width="NaN"/><path d="M442.44409,263.36897c-0.20693,1.77534 -2.13298,3.0091 -3.63919,2.83353c-2.20327,-0.25682 -8.52401,-0.99357 -12.66892,-1.4767c-2.22331,-0.25915 -3.58419,-2.47336 -3.38915,-4.14666c0.14065,-1.20667 0.43411,-3.72432 0.64368,-5.52237c0.18662,-1.60113 2.13449,-3.00892 4.52006,-2.73086c3.95522,0.46102 9.63045,1.12253 11.85681,1.38205c1.91107,0.22275 3.52117,2.41605 3.35823,3.8138c-0.14387,1.23433 -0.43954,3.77098 -0.68155,5.8472z" data-paper-data="{&quot;index&quot;:null}" fill="#e9d18c" stroke-width="NaN"/><path d="M452.46246,245.63438c0,36.48728 -17.8145,66.06607 -39.78979,66.06607c-21.97529,0 -39.78979,-29.57879 -39.78979,-66.06607c0,-36.48728 17.8145,-66.06607 39.78979,-66.06607c21.97529,0 39.78979,29.57879 39.78979,66.06607z" fill="none" stroke-width="0"/><path d="M50.06006,245.63438v0v0v0z" fill="none" stroke-width="0"/><path d="M102.30374,-20.25767c0,-34.82877 22.85633,-63.06306 51.05105,-63.06306c28.19472,0 51.05105,28.2343 51.05105,63.06306c0,34.82877 -22.85633,63.06306 -51.05105,63.06306c-28.19472,0 -51.05105,-28.2343 -51.05105,-63.06306z" fill="none" stroke-width="0"/><ellipse cx="33.4363" cy="563.08827" transform="scale(0.5,0.5)" rx="0" ry="0" fill="none" stroke-width="0"/></g></g></svg>