<svg version="1.1" xmlns="http://www.w3.org/2000/svg" xmlns:xlink="http://www.w3.org/1999/xlink" width="476.97655" height="417.14208" viewBox="0,0,476.97655,417.14208"><defs><linearGradient x1="179.97343" y1="23.81574" x2="178.30519" y2="7.89737" gradientUnits="userSpaceOnUse" id="color-1"><stop offset="0" stop-color="#be6969"/><stop offset="1" stop-color="#ff8c8c"/></linearGradient><linearGradient x1="179.97343" y1="23.81574" x2="178.30519" y2="7.89737" gradientUnits="userSpaceOnUse" id="color-2"><stop offset="0" stop-color="#643838"/><stop offset="1" stop-color="#643838" stop-opacity="0"/></linearGradient><linearGradient x1="185.00208" y1="-30.16374" x2="176.13022" y2="-27.56529" gradientUnits="userSpaceOnUse" id="color-3"><stop offset="0" stop-color="#ffa5a5"/><stop offset="1" stop-color="#d68b8b"/></linearGradient><linearGradient x1="172.70559" y1="-32.27982" x2="180.06062" y2="-26.69728" gradientUnits="userSpaceOnUse" id="color-4"><stop offset="0" stop-color="#ffa5a5"/><stop offset="1" stop-color="#d68b8b"/></linearGradient><linearGradient x1="181.048" y1="22.61229" x2="179.77877" y2="10.50169" gradientUnits="userSpaceOnUse" id="color-5"><stop offset="0" stop-color="#d17373"/><stop offset="1" stop-color="#ff8c8c"/></linearGradient><linearGradient x1="179.97343" y1="23.81574" x2="178.30519" y2="7.89737" gradientUnits="userSpaceOnUse" id="color-6"><stop offset="0" stop-color="#643838"/><stop offset="1" stop-color="#ff8c8c"/></linearGradient><linearGradient x1="189.08992" y1="12.48275" x2="168.54015" y2="16.60501" gradientUnits="userSpaceOnUse" id="color-7"><stop offset="0" stop-color="#556c4d" stop-opacity="0"/><stop offset="1" stop-color="#556c4d"/></linearGradient><linearGradient x1="187.9891" y1="12.17087" x2="167.43932" y2="16.29314" gradientUnits="userSpaceOnUse" id="color-8"><stop offset="0" stop-color="#506648"/><stop offset="1" stop-color="#708e65"/></linearGradient><linearGradient x1="193.32209" y1="16.85135" x2="167.94335" y2="19.51106" gradientUnits="userSpaceOnUse" id="color-9"><stop offset="0" stop-color="#556c4d"/><stop offset="1" stop-color="#708e65"/></linearGradient><linearGradient x1="192.5387" y1="-21.30577" x2="169.55975" y2="-19.20808" gradientUnits="userSpaceOnUse" id="color-10"><stop offset="0" stop-color="#ff8c8c"/><stop offset="1" stop-color="#be6969"/></linearGradient><linearGradient x1="182.83276" y1="-19.02299" x2="160.06143" y2="-28.27401" gradientUnits="userSpaceOnUse" id="color-11"><stop offset="0" stop-color="#be6969"/><stop offset="1" stop-color="#ff8c8c"/></linearGradient><linearGradient x1="123.76713" y1="41.98325" x2="103.43735" y2="41.98325" gradientUnits="userSpaceOnUse" id="color-12"><stop offset="0" stop-color="#a881e3"/><stop offset="1" stop-color="#c0ade3"/></linearGradient><linearGradient x1="122.91013" y1="45.3681" x2="99.62118" y2="45.3681" gradientUnits="userSpaceOnUse" id="color-13"><stop offset="0" stop-color="#765b9f"/><stop offset="1" stop-color="#c0ade3"/></linearGradient><linearGradient x1="122.91013" y1="45.3681" x2="99.62118" y2="45.3681" gradientUnits="userSpaceOnUse" id="color-14"><stop offset="0" stop-color="#765b9f"/><stop offset="1" stop-color="#765b9f" stop-opacity="0"/></linearGradient><linearGradient x1="106.80385" y1="33.93349" x2="116.46296" y2="56.06481" gradientUnits="userSpaceOnUse" id="color-15"><stop offset="0" stop-color="#556c4d" stop-opacity="0"/><stop offset="1" stop-color="#556c4d"/></linearGradient><linearGradient x1="126.32113" y1="40.64209" x2="104.19881" y2="40.64209" gradientUnits="userSpaceOnUse" id="color-16"><stop offset="0" stop-color="#708e65"/><stop offset="1" stop-color="#506648"/></linearGradient><linearGradient x1="124.91192" y1="46.47816" x2="97.45472" y2="46.47816" gradientUnits="userSpaceOnUse" id="color-17"><stop offset="0" stop-color="#6e8c63"/><stop offset="1" stop-color="#556c4d"/></linearGradient><linearGradient x1="173.96508" y1="-27.67768" x2="166.43526" y2="-10.84462" gradientUnits="userSpaceOnUse" id="color-18"><stop offset="0" stop-color="#637d59" stop-opacity="0"/><stop offset="1" stop-color="#637d59"/></linearGradient><linearGradient x1="172.10793" y1="-27.67768" x2="164.57811" y2="-10.84462" gradientUnits="userSpaceOnUse" id="color-19"><stop offset="0" stop-color="#708e65"/><stop offset="1" stop-color="#5c7553"/></linearGradient><linearGradient x1="181.49332" y1="-6.85397" x2="178.20427" y2="-25.26661" gradientUnits="userSpaceOnUse" id="color-20"><stop offset="0" stop-color="#5c7553"/><stop offset="1" stop-color="#708e65"/></linearGradient><linearGradient x1="159.61618" y1="67.40623" x2="159.61618" y2="101.84965" gradientUnits="userSpaceOnUse" id="color-21"><stop offset="0" stop-color="#77966b"/><stop offset="1" stop-color="#637d59"/></linearGradient><linearGradient x1="163.00508" y1="83.8996" x2="163.00508" y2="103.23135" gradientUnits="userSpaceOnUse" id="color-22"><stop offset="0" stop-color="#77966b"/><stop offset="1" stop-color="#637d59"/></linearGradient><linearGradient x1="155.60247" y1="69.89477" x2="155.60247" y2="100.88597" gradientUnits="userSpaceOnUse" id="color-23"><stop offset="0" stop-color="#77966b"/><stop offset="1" stop-color="#637d59"/></linearGradient><linearGradient x1="152.05029" y1="64.70925" x2="152.05029" y2="99.15265" gradientUnits="userSpaceOnUse" id="color-24"><stop offset="0" stop-color="#77966b"/><stop offset="1" stop-color="#637d59"/></linearGradient><linearGradient x1="141.6614" y1="80.20251" x2="141.6614" y2="99.53434" gradientUnits="userSpaceOnUse" id="color-25"><stop offset="0" stop-color="#77966b"/><stop offset="1" stop-color="#637d59"/></linearGradient><linearGradient x1="514.80309" y1="283.045" x2="513.23283" y2="306.81107" gradientUnits="userSpaceOnUse" id="color-26"><stop offset="0" stop-color="#5c5549"/><stop offset="1" stop-color="#756c5e"/></linearGradient><linearGradient x1="530.39239" y1="277.92802" x2="500.0574" y2="275.92384" gradientUnits="userSpaceOnUse" id="color-27"><stop offset="0" stop-color="#746b5d"/><stop offset="1" stop-color="#746b5d" stop-opacity="0"/></linearGradient><linearGradient x1="526.57725" y1="275.90251" x2="503.61036" y2="277.99979" gradientUnits="userSpaceOnUse" id="color-28"><stop offset="0" stop-color="#514b41"/><stop offset="1" stop-color="#36322b"/></linearGradient></defs><g transform="translate(-62.70083,99.85981)"><g data-paper-data="{&quot;isPaintingLayer&quot;:true}" fill-rule="nonzero" stroke-miterlimit="10" stroke-dasharray="" stroke-dashoffset="0" style="mix-blend-mode: normal"><path d="M367.73988,29.24408c-3.48521,5.55509 -27.53507,18.46707 -28.03495,39.7536c-0.21503,9.15666 1.47949,-10.33004 1.92264,-19.4785c0.25916,-5.35027 -0.09755,-14.45457 -0.09755,-14.45457c-3.98206,-21.93647 -3.95567,-26.16447 -5.84171,-46.42543c-1.95629,-21.01551 2.75491,-42.91056 2.75491,-42.91056" data-paper-data="{&quot;origRot&quot;:0}" fill="none" stroke="#536a4b" stroke-width="5" stroke-linecap="round" stroke-linejoin="miter"/><g data-paper-data="{&quot;index&quot;:null}" stroke-linejoin="miter"><path d="M187.09622,9.31517c-1.13921,0.03027 -2.23704,0.23355 -2.54664,0.85956c-2.84177,5.74616 -8.67303,18.68174 -13.7456,12.92097c-2.45378,-2.78669 19.30431,-13.57009 19.30431,-13.57009c0,0 -1.54056,-0.24955 -3.01207,-0.21044z" data-paper-data="{&quot;origRot&quot;:0,&quot;index&quot;:null}" fill="url(#color-1)" stroke="none" stroke-width="0" stroke-linecap="butt"/><path d="M187.11208,10.42472c-2.84177,5.74616 -11.23553,18.43174 -16.3081,12.67097c-2.45378,-2.78669 16.05431,-17.25759 16.05431,-17.25759c0,0 0.96329,3.152 0.25379,4.58662z" data-paper-data="{&quot;origRot&quot;:0,&quot;index&quot;:null}" fill="url(#color-2)" stroke="none" stroke-width="0" stroke-linecap="butt"/><path d="M183.60124,-34.9468c0,0 -3.39479,14.66687 -5.32206,13.92718c-3.98415,-1.52911 1.17883,-10.23883 3.62388,-12.83192c0.61044,-0.6474 1.69818,-1.09526 1.69818,-1.09526z" data-paper-data="{&quot;origRot&quot;:0,&quot;index&quot;:null}" fill="url(#color-3)" stroke="none" stroke-width="0" stroke-linecap="butt"/><path d="M176.08902,-22.79095c-2.20145,-0.31576 0.43017,-13.85142 0.43017,-13.85142c0,0 4.13066,14.50559 -0.43017,13.85142z" data-paper-data="{&quot;origRot&quot;:0,&quot;index&quot;:null}" fill="url(#color-4)" stroke="none" stroke-width="0" stroke-linecap="butt"/><path d="M148.068,-35.96604c0,0 4.7112,21.89505 2.75491,42.91056c-1.88604,20.26096 -1.85965,24.48896 -5.84171,46.42543c0,0 0.39329,9.3543 0.65245,14.70457c0.44315,9.14846 1.58931,19.7285 1.58931,19.7285c0,0 -2.89137,-14.17514 -10.0685,-24.25879c-12.13365,-16.81697 -16.7619,-13.41073 -18.38312,-15.99481" data-paper-data="{&quot;origRot&quot;:0}" fill="none" stroke="#576f4f" stroke-width="3.5" stroke-linecap="round"/><path d="M172.57319,-13.08338c0,0 -2.45851,15.10549 -8.51244,31.81433c-3.70264,10.21929 -18.48756,38.18567 -18.48756,38.18567" fill="none" stroke="#536a4b" stroke-width="3" stroke-linecap="round"/><path d="M171.57319,22.91662c0,0 -4.7814,4.6731 -7.13714,6.6923c-2.31003,1.98003 -6.86286,5.3077 -6.86286,5.3077" fill="none" stroke="#536a4b" stroke-width="2" stroke-linecap="round"/><path d="M128.58662,-13.97382c0,0 10.71747,19.66531 14.79125,40.37481c3.92752,19.96594 0.78633,35.00242 3.17798,57.16874c1.25891,11.66789 7.36243,31.23266 7.36243,31.23266" data-paper-data="{&quot;origRot&quot;:0}" fill="none" stroke="#708e65" stroke-width="5" stroke-linecap="round"/><path d="M110.25772,-50.88298l23.05472,46.19902" data-paper-data="{&quot;origRot&quot;:0,&quot;index&quot;:null}" fill="none" stroke="#8fa686" stroke-width="10" stroke-linecap="round"/><path d="M149.63688,-26.05169l-9.03128,-50.83606" data-paper-data="{&quot;origRot&quot;:0,&quot;index&quot;:null}" fill="none" stroke="#8fa686" stroke-width="10" stroke-linecap="round"/><path d="M190.09261,9.42081c0,0 -16.17312,16.48168 -18.78548,13.8289c-5.41214,-5.49587 18.78548,-13.8289 18.78548,-13.8289z" data-paper-data="{&quot;origRot&quot;:0,&quot;index&quot;:null}" fill="url(#color-5)" stroke="none" stroke-width="0" stroke-linecap="butt"/><path d="M186.67458,10.48722c-2.84177,5.74616 -10.79803,18.36924 -15.8706,12.60847c-2.45378,-2.78669 16.05431,-17.25759 16.05431,-17.25759c0,0 0.52579,3.2145 -0.18371,4.64912z" data-paper-data="{&quot;origRot&quot;:0,&quot;index&quot;:null}" fill="url(#color-6)" stroke="none" stroke-width="0" stroke-linecap="butt"/><path d="M170.63342,25.05159c-3.26968,-2.97691 7.81636,-16.74136 18.20258,-21.31275c0.34692,-0.15269 0.09373,0.40409 0.43991,0.27104c1.76626,-0.67884 -15.26358,24.11806 -18.64249,21.04171z" data-paper-data="{&quot;origRot&quot;:0}" fill="url(#color-7)" stroke="none" stroke-width="0" stroke-linecap="butt"/><path d="M189.2418,3.45219c0.7545,-0.28998 -4.03843,3.21083 -7.46868,8.33737c-4.76666,7.12381 -11.30296,13.32517 -11.30296,13.32517c0,0 -0.25809,-0.1742 -1.31453,-1.43753c0.43655,-5.65688 10.54141,-20.12448 20.08616,-20.22502z" data-paper-data="{&quot;origRot&quot;:0}" fill="url(#color-8)" stroke="none" stroke-width="0" stroke-linecap="butt"/><path d="M191.66881,7.78204c0,0 -2.65143,5.62599 -6.87691,10.20152c-4.25516,4.60767 -10.34247,7.78916 -12.61925,7.51883c-1.50074,-0.17818 -2.1529,-0.45946 -2.01528,-1.03876c0.04648,-0.19569 0.18309,-0.42538 0.40755,-0.6966c1.90896,-2.3066 6.89517,-6.21495 11.97251,-9.38622c5.50655,-3.43934 9.40922,-7.37693 9.13138,-6.59878z" data-paper-data="{&quot;origRot&quot;:0}" fill="url(#color-9)" stroke="none" stroke-width="0" stroke-linecap="butt"/><path d="M172.80763,-5.67133c-5.63153,-2.48622 -0.45735,-11.18603 5.76038,-18.44967c4.91495,-7.71973 16.51563,-9.77069 16.51563,-9.77069c0,0 -10.49736,10.42348 -11.7882,14.18186c-0.69939,2.03632 -0.47361,0.57225 -0.47361,0.57225c0,0 -6.82087,14.87606 -10.01422,13.46625z" data-paper-data="{&quot;origRot&quot;:0,&quot;index&quot;:null}" fill="url(#color-10)" stroke="none" stroke-width="0" stroke-linecap="butt"/><path d="M172.62354,-33.06241c6.20952,9.40816 13.15529,22.58002 0.79399,24.65366c-3.15534,0.52932 -4.43822,-13.3524 -4.43822,-13.3524c0,0 -0.80763,-7.28512 -1.59202,-10.57571c-1.77167,-7.43234 -2.59132,-7.47283 -2.59132,-7.47283c0,0 2.88712,-0.20489 7.82757,6.74728z" data-paper-data="{&quot;origRot&quot;:0,&quot;index&quot;:null}" fill="url(#color-11)" stroke="none" stroke-width="0" stroke-linecap="butt"/><path d="M123.59531,50.18462c-3.84198,5.87022 -13.54458,-5.2775 -17.72769,-11.63334c-1.11554,-1.69494 -2.42972,-6.14138 -2.42972,-6.14138c0,0 22.50641,14.18562 20.1574,17.77471z" data-paper-data="{&quot;origRot&quot;:0,&quot;index&quot;:null}" fill="url(#color-12)" stroke="none" stroke-width="0" stroke-linecap="butt"/><path d="M112.42489,37.27078c7.16372,1.79662 14.70298,8.26016 9.45528,15.3782c-2.53852,3.44324 -22.259,-14.80654 -22.259,-14.80654c0,0 11.01518,-1.02021 12.80372,-0.57166z" data-paper-data="{&quot;origRot&quot;:0,&quot;index&quot;:null}" fill="url(#color-13)" stroke="none" stroke-width="0" stroke-linecap="butt"/><path d="M99.62119,37.84249c0,0 6.41331,-2.09724 12.41207,-1.84452c7.16371,1.79662 15.09462,9.53302 9.84692,16.65106c-2.53852,3.44324 -22.259,-14.80654 -22.259,-14.80654z" data-paper-data="{&quot;origRot&quot;:0,&quot;index&quot;:null}" fill="url(#color-14)" stroke="none" stroke-width="0" stroke-linecap="butt"/><path d="M97.24332,38.26316c-0.63745,-0.97193 8.99248,4.04944 16.96085,7.35458c6.97704,2.89395 12.48984,3.90098 11.25797,6.02769c-2.63876,4.5556 -20.96893,-2.32824 -28.21883,-13.38227z" data-paper-data="{&quot;origRot&quot;:0}" fill="url(#color-15)" stroke="none" stroke-width="0" stroke-linecap="butt"/><path d="M123.67912,40.81894c2.47088,3.37932 2.44147,7.92937 1.68286,9.78271c-0.26898,0.65716 -1.55107,2.19115 -1.55107,2.19115c0,0 -3.70543,-3.44903 -7.39136,-7.38759c-5.73052,-6.12329 -13.15824,-15.87928 -12.0781,-15.73873c0,0 14.62991,4.71388 19.33767,11.15246z" data-paper-data="{&quot;origRot&quot;:0}" fill="url(#color-16)" stroke="none" stroke-width="0" stroke-linecap="butt"/><path d="M97.48731,38.92603c-0.64428,-0.98234 7.00458,3.90359 14.80292,7.64856c0.73916,0.35497 1.47966,0.69967 2.21458,1.02817c5.90018,2.63727 11.30425,2.18469 10.22222,4.05276c-1.62762,2.80995 -4.23102,3.11744 -12.10398,0.17967c-6.97349,-2.60213 -12.35765,-8.67338 -15.13573,-12.90917z" data-paper-data="{&quot;origRot&quot;:0}" fill="url(#color-17)" stroke="none" stroke-width="0" stroke-linecap="butt"/><path d="M163.37311,-30.40446c0,0 4.83897,1.86235 7.55017,5.34398c2.54635,3.26994 3.82029,5.94327 4.17212,8.44744c0.79346,5.64741 -2.06626,12.41647 -3.37647,12.37824c-1.69222,-0.04938 -3.03177,-4.00492 -3.80219,-10.63589c-0.68644,-5.90812 -4.54362,-15.53377 -4.54362,-15.53377z" data-paper-data="{&quot;origRot&quot;:0}" fill="url(#color-18)" stroke="none" stroke-width="0" stroke-linecap="butt"/><path d="M161.51598,-30.40448c0,0 4.83897,1.86235 7.55016,5.34398c2.54635,3.26994 3.82028,5.94327 4.17212,8.44744c0.79346,5.64741 -2.06626,12.41648 -3.37647,12.37825c-1.69222,-0.04938 -3.03178,-4.00492 -3.8022,-10.63589c-0.68644,-5.90812 -4.54362,-15.53377 -4.54362,-15.53377z" data-paper-data="{&quot;origRot&quot;:0}" fill="url(#color-19)" stroke="none" stroke-width="0" stroke-linecap="butt"/><path d="M193.38785,-22.19226c0,0 -2.0142,-1.13768 -8.57567,7.97267c-5.79661,7.82893 -9.7121,10.0868 -12.55465,10.68167c-0.41811,0.0875 -2.71164,-0.67259 -2.71164,-0.67259c0,0 -0.29029,-0.42414 -0.52308,-1.00537c-0.25307,-0.63184 -0.43818,-1.4493 -0.10855,-2.1093c1.02799,-2.0583 4.06992,-7.89766 7.57055,-11.0707c6.38503,-5.78753 16.90304,-3.79638 16.90304,-3.79638z" data-paper-data="{&quot;origRot&quot;:0}" fill="url(#color-20)" stroke="none" stroke-width="0" stroke-linecap="butt"/></g><path d="M155.27701,101.84965c0,0 0.54203,-7.18875 2.47594,-14.91982c1.57385,-6.29169 6.20242,-19.52349 6.20242,-19.52349c0,0 -2.86365,16.83301 -3.01957,25.73731c-0.07466,4.26468 2.42867,8.00654 2.42867,8.00654z" data-paper-data="{&quot;index&quot;:null}" fill="url(#color-21)" stroke="none" stroke-width="0" stroke-linecap="butt" stroke-linejoin="miter"/><path d="M157.72734,102.19538c0,0 1.16012,-2.91229 4.62883,-10.31609c2.92886,-6.25149 5.92664,-7.97973 5.92664,-7.97973c0,0 -2.76258,6.56305 -3.52848,12.87369c-0.94111,7.75436 1.24958,6.3606 1.24958,6.3606z" data-paper-data="{&quot;origRot&quot;:0,&quot;index&quot;:null}" fill="url(#color-22)" stroke="none" stroke-width="0" stroke-linecap="butt" stroke-linejoin="miter"/><path d="M152.07835,99.95897c0,0 0.96508,4.80538 1.98785,-7.46562c0.83235,-9.98638 1.59125,-22.59843 1.59125,-22.59843c0,0 0.56378,2.66531 1.53021,12.8549c1.14456,12.06777 1.9389,16.87169 1.9389,16.87169z" data-paper-data="{&quot;index&quot;:null}" fill="url(#color-23)" stroke="none" stroke-width="0" stroke-linecap="butt" stroke-linejoin="miter"/><path d="M148.30198,98.45315c0,0 2.50334,-3.74187 2.42867,-8.00654c-0.15592,-8.90428 -3.01956,-25.73731 -3.01956,-25.73731c0,0 4.62858,13.23181 6.20244,19.52352c1.93391,7.73106 2.47593,14.91981 2.47593,14.91981z" data-paper-data="{&quot;index&quot;:null}" fill="url(#color-24)" stroke="none" stroke-width="0" stroke-linecap="butt" stroke-linejoin="miter"/><path d="M138.6626,99.43683c0,0 2.19071,1.39377 1.24958,-6.3606c-0.76592,-6.31066 -3.52849,-12.8737 -3.52849,-12.8737c0,0 2.99777,1.72823 5.92663,7.97973c3.4687,7.4038 4.62883,10.31609 4.62883,10.31609z" data-paper-data="{&quot;origRot&quot;:0,&quot;index&quot;:null}" fill="url(#color-25)" stroke="none" stroke-width="0" stroke-linecap="butt" stroke-linejoin="miter"/><path d="M333.2596,96.83031c0,0 6.10352,-19.56477 7.36243,-31.23266c2.39165,-22.16632 -0.74954,-37.2028 3.17798,-57.16874c4.07378,-20.7095 14.79125,-40.37481 14.79125,-40.37481" data-paper-data="{&quot;origRot&quot;:0}" fill="none" stroke="#708e65" stroke-width="5" stroke-linecap="round" stroke-linejoin="miter"/><path d="M353.86547,-22.65596l23.05472,-46.19902" data-paper-data="{&quot;origRot&quot;:0,&quot;index&quot;:null}" fill="none" stroke="#8fa686" stroke-width="10" stroke-linecap="round" stroke-linejoin="miter"/><path d="M346.57224,-94.85981l-9.03128,50.83606" data-paper-data="{&quot;origRot&quot;:0,&quot;index&quot;:null}" fill="none" stroke="#8fa686" stroke-width="10" stroke-linecap="round" stroke-linejoin="miter"/><path d="M382.4414,6.03159c2.00745,-0.96318 3.3891,0.04503 3.01469,2.23988c-2.27033,13.30904 -15.61611,27.74126 -19.94726,24.55498c-4.33115,-3.18628 5.64067,-21.37697 16.93257,-26.79487z" data-paper-data="{&quot;origRot&quot;:0,&quot;index&quot;:null}" fill="#68845e" stroke="none" stroke-width="0" stroke-linecap="butt" stroke-linejoin="miter"/><path d="M220.17296,18.90001c0,58.54218 -31.11621,106 -69.5,106c-38.38379,0 -69.5,-47.45782 -69.5,-106c0,-58.54218 31.11621,-106 69.5,-106c38.38379,0 69.5,47.45782 69.5,106z" fill="none" stroke="none" stroke-width="0" stroke-linecap="butt" stroke-linejoin="miter"/><g data-paper-data="{&quot;index&quot;:null}" fill="none" stroke="#f6fbff" stroke-width="5" stroke-linecap="round" stroke-linejoin="miter"><g data-paper-data="{&quot;index&quot;:null}"><path d="M66.65746,314.78227c9.14698,-14.98501 38.04681,-62.33003 38.04681,-62.33003"/><path d="M65.20083,294.89541c8.58882,-14.0706 26.54547,-43.488 26.54547,-43.488"/><path d="M79.23657,292.39212l1.60617,-22.79079l17.37239,-6.80525"/></g><g data-paper-data="{&quot;index&quot;:null}"><path d="M96.36949,266.69518l50.1501,-82.15819"/><path d="M83.41149,265.65035l50.1501,-82.15819"/><path d="M121.05191,224.47689l1.60617,-22.79079l17.37239,-6.80525"/><path d="M101.14092,257.34187l1.60617,-22.7908l17.37238,-6.80524"/></g></g><path d="M396.5,132.5c0,33.68937 -21.26647,61 -47.5,61c-26.23353,0 -47.5,-27.31063 -47.5,-61c0,-33.68937 21.26647,-61 47.5,-61c26.23353,0 47.5,27.31063 47.5,61z" fill="none" stroke="none" stroke-width="5" stroke-linecap="butt" stroke-linejoin="miter"/><path d="M495.65111,280.93923l0.81124,-12.27818l37.46503,2.47537l-0.81124,12.27818z" data-paper-data="{&quot;zoomLevel&quot;:1.5487,&quot;index&quot;:null}" fill="#746b5d" stroke="#837969" stroke-width="11.5" stroke-linecap="butt" stroke-linejoin="round"/><path d="M504.84277,306.25674l1.57027,-23.76613l16.78012,1.10868l-1.57027,23.76613z" data-paper-data="{&quot;index&quot;:null}" fill="url(#color-26)" stroke="none" stroke-width="0" stroke-linecap="butt" stroke-linejoin="miter"/><path d="M495.57191,282.13781l0.81124,-12.27818l37.46503,2.47537l-0.81124,12.27818z" data-paper-data="{&quot;zoomLevel&quot;:1.5487,&quot;index&quot;:null}" fill="#746b5d" stroke="#746b5d" stroke-width="11.5" stroke-linecap="butt" stroke-linejoin="round"/><path d="M499.45268,285.07663l1.20948,-18.30559l30.33496,2.00429l-1.20948,18.30559z" data-paper-data="{&quot;index&quot;:null}" fill="url(#color-27)" stroke="none" stroke-width="0" stroke-linecap="butt" stroke-linejoin="miter"/><path d="M524.56477,289.80532l2.61462,-10.42079l1.02906,10.66154z" data-paper-data="{&quot;index&quot;:null}" fill="#665f56" stroke="none" stroke-width="0" stroke-linecap="butt" stroke-linejoin="miter"/><path d="M518.23626,289.38719l4.41238,-17.68422l1.72435,18.08969z" data-paper-data="{&quot;index&quot;:null}" fill="#665f56" stroke="none" stroke-width="0" stroke-linecap="butt" stroke-linejoin="miter"/><path d="M534.86581,266.67048l-3.37225,13.51554l-1.31786,-13.82542z" data-paper-data="{&quot;index&quot;:null}" fill="#665f56" stroke="none" stroke-width="0" stroke-linecap="butt" stroke-linejoin="miter"/><path d="M510.41023,279.02387c0,0 1.1374,1.37593 3.49735,4.232c0.73739,0.89127 0.61194,2.21221 -0.2801,2.94936c-0.89172,0.73774 -2.21228,0.61232 -2.94995,-0.28016c-2.91044,-3.52131 -6.71852,-8.12878 -6.71852,-8.12878c-0.73715,-0.89166 -0.61171,-2.21239 0.28014,-2.94974c0,0 5.33893,-4.41329 8.19417,-6.7729c0.89186,-0.73733 2.21222,-0.61173 2.94995,0.28016c0.73729,0.89185 0.61188,2.21242 -0.28014,2.94974c-3.52128,2.91028 -4.28538,3.54953 -4.28538,3.54953c0,0 10.38287,0.99041 14.07018,1.34059c1.15206,0.10942 1.99724,1.1318 1.88783,2.28386c-0.10939,1.15186 -1.13195,1.99722 -2.28401,1.88782c-4.39807,-0.41768 -14.08153,-1.34146 -14.08153,-1.34146z" data-paper-data="{&quot;index&quot;:null}" fill="url(#color-28)" stroke="none" stroke-width="0" stroke-linecap="butt" stroke-linejoin="miter"/></g></g></svg>