<svg version="1.1" xmlns="http://www.w3.org/2000/svg" xmlns:xlink="http://www.w3.org/1999/xlink" width="155.01201" height="71.544" viewBox="0,0,155.01201,71.544"><g transform="translate(-162.49399,-144.228)"><g data-paper-data="{&quot;isPaintingLayer&quot;:true}" fill-rule="nonzero" stroke="none" stroke-linejoin="miter" stroke-miterlimit="10" stroke-dasharray="" stroke-dashoffset="0" style="mix-blend-mode: normal"><path d="M162.49399,207.1c0,-15.39767 0,-46.66972 0,-54.92267c0,-3.91529 3.64948,-7.94933 7.94934,-7.94933c15.5113,0 108.45108,0 138.02934,0c5.68841,0 9.03333,4.24438 9.03333,8.31067c0,8.47827 0,40.26824 0,55.284c0,4.84946 -3.20355,7.94933 -8.672,7.94933c-29.17464,0 -122.81565,0 -138.39067,0c-4.29986,0 -7.94934,-3.40853 -7.94934,-8.672z" fill="#ffffff" stroke-width="0" stroke-linecap="butt"/><path d="M182.09959,163.95709c0.01816,0.10534 0.02724,0.20523 0.02724,0.29968c0,0.09444 -0.02724,0.19797 -0.08173,0.31057c-0.05449,0.10897 -0.12532,0.18888 -0.2125,0.23974c-0.14893,0.13077 -0.3251,0.19615 -0.52852,0.19615c-0.38504,0 -0.64476,-0.17254 -0.77916,-0.51762l-0.71377,-1.75991h-3.93391l-0.69743,1.74901c-0.1126,0.35234 -0.34508,0.52852 -0.69742,0.52852c-0.34871,0 -0.61025,-0.1453 -0.7846,-0.43589c-0.05812,-0.1126 -0.08718,-0.21613 -0.08718,-0.31057c0,-0.09444 0.02361,-0.2016 0.07083,-0.32147l2.89867,-7.12137c0.25064,-0.62114 0.56666,-0.98439 0.94806,-1.08973c0.07991,-0.0109 0.18707,-0.02906 0.32147,-0.05449c0.30876,0 0.53941,0.07083 0.69198,0.2125c0.20342,0.15256 0.40138,0.46313 0.5939,0.93172zM176.40576,161.29815h2.88778l-1.44934,-3.63969zM182.38012,161.66866c0,-0.95896 0.27425,-1.75809 0.82274,-2.3974c0.60298,-0.70106 1.38759,-1.05159 2.35381,-1.05159c0.81366,0 1.44389,0.17617 1.89067,0.52852c0.19252,0.13803 0.28878,0.31057 0.28878,0.51762c0,0.20342 -0.05993,0.36869 -0.1798,0.49583c-0.11624,0.12714 -0.25427,0.1907 -0.4141,0.1907c-0.15983,0 -0.28151,-0.03269 -0.36506,-0.09807c-0.35234,-0.19978 -0.7283,-0.29604 -1.12787,-0.28878c-0.49038,0 -0.87541,0.18344 -1.15511,0.55031c-0.33055,0.39957 -0.49583,0.91719 -0.49583,1.55286c0,0.59572 0.11987,1.09518 0.35961,1.49838c0.26153,0.42136 0.69198,0.63204 1.29133,0.63204c0.34145,0 0.76644,-0.12169 1.27498,-0.36506c0.2797,-0.16346 0.52489,-0.1235 0.73557,0.11987c0.11624,0.11624 0.17436,0.27425 0.17436,0.47403c0,0.19615 -0.09444,0.37051 -0.28333,0.52307c-0.18889,0.15256 -0.39593,0.26516 -0.62114,0.33781c-0.49764,0.17072 -0.9862,0.25427 -1.46568,0.25064c-0.47585,-0.00363 -0.90992,-0.09444 -1.30222,-0.27243c-0.3923,-0.18162 -0.71922,-0.44497 -0.98076,-0.79005c-0.53397,-0.63931 -0.80095,-1.44207 -0.80095,-2.4083zM192.92724,160.76964c0,-0.41046 -0.10897,-0.72648 -0.32692,-0.94806c-0.18889,-0.17799 -0.41954,-0.26699 -0.69197,-0.26699c-0.2688,0 -0.49764,0.03088 -0.68653,0.09263c-0.18889,0.06175 -0.35416,0.16346 -0.49583,0.30512c-0.30512,0.28696 -0.45769,0.70469 -0.45769,1.25319v3.06213c0,0.25064 -0.08718,0.43589 -0.26154,0.55576c-0.17072,0.11987 -0.35053,0.1798 -0.53941,0.1798c-0.20342,0 -0.37777,-0.0672 -0.52307,-0.2016c-0.14166,-0.1344 -0.2125,-0.31239 -0.2125,-0.53397v-7.82424c0,-0.25064 0.08536,-0.43589 0.25609,-0.55576c0.17072,-0.1235 0.34145,-0.18525 0.51217,-0.18525c0.18889,0 0.36324,0.05994 0.52307,0.17981c0.16346,0.11624 0.24519,0.30331 0.24519,0.56121l-0.17436,2.61534c-0.07991,-0.10897 0.11624,-0.28151 0.58845,-0.51762c0.4141,-0.21431 0.82456,-0.32147 1.23139,-0.32147c0.41046,0 0.75918,0.05086 1.04614,0.15256c0.28696,0.10171 0.55394,0.25063 0.80095,0.44679c0.49401,0.46858 0.74101,1.14058 0.74101,2.016v3.43264c0,0.25064 -0.09081,0.43589 -0.27243,0.55576c-0.17799,0.11987 -0.35416,0.1798 -0.52852,0.1798c-0.19978,0 -0.37959,-0.06538 -0.53941,-0.19615c-0.15619,-0.13077 -0.23429,-0.31057 -0.23429,-0.53941zM197.52948,156.50336c0,0.2579 -0.089,0.46677 -0.26699,0.62659c-0.17436,0.15983 -0.40501,0.23974 -0.69197,0.23974c-0.28696,0 -0.51944,-0.0781 -0.69742,-0.23429c-0.17799,-0.15983 -0.26699,-0.37051 -0.26699,-0.63204c0,-0.23248 0.089,-0.42863 0.26699,-0.58845c0.17799,-0.16346 0.41409,-0.24519 0.70832,-0.24519c0.29423,0 0.52489,0.08173 0.69198,0.24519c0.17072,0.16346 0.25609,0.35961 0.25609,0.58845zM195.80226,159.13505c0,-0.247 0.08173,-0.44134 0.24519,-0.583c0.16709,-0.1453 0.32328,-0.21795 0.46858,-0.21795c0.1453,0 0.26154,0.02179 0.34872,0.06538c0.08718,0.04359 0.16164,0.09444 0.22339,0.15256c0.18889,0.1235 0.28333,0.31784 0.28333,0.583v5.09992c0,0.2579 -0.08536,0.45042 -0.25608,0.57755c-0.17072,0.12714 -0.35234,0.1907 -0.54486,0.1907c-0.19615,0 -0.37414,-0.06538 -0.53397,-0.19615c-0.15619,-0.13077 -0.23429,-0.32147 -0.23429,-0.57211zM204.68166,161.48886c0,0.4032 -0.21976,0.62296 -0.65928,0.65929h-4.10827c0.03269,0.76281 0.39412,1.28225 1.08428,1.55831c0.18525,0.06175 0.40865,0.09263 0.67018,0.09263c0.5376,0 1.09517,-0.20342 1.67273,-0.61025c0.32329,-0.18525 0.6048,-0.16165 0.84454,0.07083c0.14166,0.15256 0.18889,0.30149 0.14166,0.44679c0,0.20342 -0.0672,0.36506 -0.2016,0.48493c-0.63931,0.63567 -1.48021,0.94988 -2.52272,0.94262c-0.95896,0 -1.73266,-0.31239 -2.32112,-0.93717c-0.65383,-0.64294 -0.98076,-1.48566 -0.98076,-2.52817c0,-0.95533 0.26699,-1.74901 0.80095,-2.38105c0.57392,-0.71195 1.37487,-1.06793 2.40285,-1.06793c1.02797,0 1.81802,0.31602 2.37015,0.94806c0.5158,0.56303 0.7846,1.33673 0.8064,2.32112zM203.14514,160.91675c-0.01816,-0.30512 -0.17435,-0.61933 -0.46858,-0.94262c-0.26517,-0.2797 -0.65565,-0.41955 -1.17145,-0.41955c-0.42862,0 -0.7955,0.15983 -1.10062,0.47948c-0.28333,0.33055 -0.43407,0.62478 -0.45224,0.88268zM209.24857,164.08785c-0.12714,0.29423 -0.27425,0.52125 -0.44134,0.68108c-0.16346,0.15619 -0.39412,0.23429 -0.69197,0.23429c-0.30149,0 -0.5376,-0.07628 -0.70832,-0.22884c-0.16709,-0.15619 -0.29968,-0.38867 -0.39775,-0.69742l-1.9942,-4.68583c-0.17436,-0.31965 -0.09807,-0.59935 0.22884,-0.83909c0.14166,-0.10897 0.29786,-0.18162 0.46858,-0.21795c0.39957,0 0.6502,0.18344 0.75191,0.55031l1.64549,3.94481l1.591,-3.95571c0.11624,-0.32329 0.33963,-0.50309 0.67018,-0.53941c0.33418,0 0.583,0.13622 0.74646,0.40865c0.08355,0.12714 0.11442,0.24156 0.09263,0.34326c-0.01816,0.10171 -0.03996,0.19434 -0.06538,0.27788zM217.87665,161.48886c0,0.4032 -0.21976,0.62296 -0.65928,0.65929h-4.10827c0.03269,0.76281 0.39412,1.28225 1.08428,1.55831c0.18525,0.06175 0.40865,0.09263 0.67018,0.09263c0.5376,0 1.09518,-0.20342 1.67273,-0.61025c0.32329,-0.18525 0.6048,-0.16165 0.84454,0.07083c0.14166,0.15256 0.18889,0.30149 0.14166,0.44679c0,0.20342 -0.0672,0.36506 -0.2016,0.48493c-0.63931,0.63567 -1.48021,0.94988 -2.52272,0.94262c-0.95896,0 -1.73266,-0.31239 -2.32111,-0.93717c-0.65383,-0.64294 -0.98076,-1.48566 -0.98076,-2.52817c0,-0.95533 0.26698,-1.74901 0.80095,-2.38105c0.57392,-0.71195 1.37487,-1.06793 2.40285,-1.06793c1.02797,0 1.81803,0.31602 2.37016,0.94806c0.5158,0.56303 0.7846,1.33673 0.8064,2.32112zM216.34014,160.91675c-0.01816,-0.30512 -0.17435,-0.61933 -0.46858,-0.94262c-0.26517,-0.2797 -0.65565,-0.41955 -1.17146,-0.41955c-0.42862,0 -0.7955,0.15983 -1.10062,0.47948c-0.28333,0.33055 -0.43407,0.62478 -0.45224,0.88268zM224.13264,159.39113c0.38141,-0.78097 1.10789,-1.17145 2.17945,-1.17145c1.12242,0 1.87433,0.47948 2.25573,1.43844c0.13077,0.34145 0.19615,0.73375 0.19615,1.17691v3.43264c0,0.247 -0.08354,0.43226 -0.25063,0.55576c-0.16709,0.11987 -0.33963,0.1798 -0.51762,0.1798c-0.19615,0 -0.37777,-0.06357 -0.54486,-0.1907c-0.16346,-0.13077 -0.24519,-0.31239 -0.24519,-0.54486v-3.49802c0,-0.41046 -0.10898,-0.72648 -0.32692,-0.94806c-0.19615,-0.17799 -0.46132,-0.26699 -0.7955,-0.26699c-0.6829,0 -1.14603,0.27425 -1.3894,0.82275c-0.09807,0.21068 -0.14711,0.4704 -0.14711,0.77915v3.11117c0,0.247 -0.08355,0.43226 -0.25064,0.55576c-0.16709,0.11987 -0.33963,0.1798 -0.51762,0.1798c-0.19978,0 -0.38141,-0.06538 -0.54486,-0.19615c-0.15983,-0.13077 -0.23974,-0.31057 -0.23974,-0.53941v-3.49802c0,-0.4141 -0.10534,-0.73012 -0.31602,-0.94806c-0.19615,-0.17799 -0.43407,-0.26699 -0.71377,-0.26699c-0.27606,0 -0.50309,0.03088 -0.68108,0.09263c-0.17799,0.06175 -0.33782,0.16164 -0.47948,0.29968c-0.28696,0.29059 -0.43952,0.7065 -0.45769,1.24773v3.07303c0,0.25064 -0.08718,0.43589 -0.26153,0.55576c-0.17072,0.11987 -0.3469,0.1798 -0.52852,0.1798c-0.17799,0 -0.35234,-0.06357 -0.52307,-0.1907c-0.17072,-0.12714 -0.25608,-0.30876 -0.25608,-0.54486v-5.18165c0,-0.23248 0.08355,-0.41591 0.25064,-0.55031c0.17072,-0.1344 0.33236,-0.2016 0.48493,-0.2016c0.15256,0 0.2688,0.01998 0.34871,0.05993c0.07991,0.03996 0.15075,0.07992 0.2125,0.11987c0.18162,0.15256 0.27243,0.33782 0.27243,0.55576h-0.17436c-0.07991,-0.11624 0.10897,-0.29241 0.56666,-0.52852c0.3923,-0.21431 0.84999,-0.32147 1.37306,-0.32147c0.8173,0 1.44934,0.26698 1.89612,0.80095c0.1453,0.19615 0.18707,0.31965 0.12532,0.37051zM236.05785,161.48886c0,0.4032 -0.21976,0.62296 -0.65928,0.65929h-4.10827c0.03269,0.76281 0.39412,1.28225 1.08428,1.55831c0.18525,0.06175 0.40865,0.09263 0.67018,0.09263c0.5376,0 1.09518,-0.20342 1.67273,-0.61025c0.32329,-0.18525 0.6048,-0.16165 0.84454,0.07083c0.14166,0.15256 0.18889,0.30149 0.14166,0.44679c0,0.20342 -0.0672,0.36506 -0.2016,0.48493c-0.63931,0.63567 -1.48021,0.94988 -2.52272,0.94262c-0.95896,0 -1.73266,-0.31239 -2.32112,-0.93717c-0.65383,-0.64294 -0.98076,-1.48566 -0.98076,-2.52817c0,-0.95533 0.26698,-1.74901 0.80095,-2.38105c0.57392,-0.71195 1.37487,-1.06793 2.40285,-1.06793c1.02797,0 1.81803,0.31602 2.37016,0.94806c0.5158,0.56303 0.7846,1.33673 0.8064,2.32112zM234.52133,160.91675c-0.01816,-0.30512 -0.17435,-0.61933 -0.46858,-0.94262c-0.26517,-0.2797 -0.65565,-0.41955 -1.17146,-0.41955c-0.42862,0 -0.7955,0.15983 -1.10062,0.47948c-0.28333,0.33055 -0.43408,0.62478 -0.45224,0.88268zM236.99052,159.08601c0,-0.22884 0.08355,-0.41047 0.25064,-0.54486c0.16709,-0.13803 0.33963,-0.20705 0.51762,-0.20705c0.35961,0 0.58663,0.12714 0.68108,0.38141c0.09444,0.25427 0.02724,0.56484 -0.2016,0.93172c-0.02543,-0.45405 0.20705,-0.81548 0.69742,-1.08428c0.41773,-0.22884 0.83001,-0.34326 1.23684,-0.34326c0.41046,0 0.76099,0.05267 1.05159,0.15801c0.29059,0.10171 0.55758,0.26154 0.80095,0.47948c0.49038,0.46495 0.73557,1.13513 0.73557,2.01055v3.39995c0,0.25064 -0.09081,0.43589 -0.27243,0.55576c-0.17799,0.11987 -0.35416,0.1798 -0.52852,0.1798c-0.19978,0 -0.37959,-0.06538 -0.53941,-0.19615c-0.15619,-0.13077 -0.23429,-0.31057 -0.23429,-0.53941v-3.46533c0,-0.42136 -0.10898,-0.73738 -0.32692,-0.94806c-0.20342,-0.19978 -0.45769,-0.29968 -0.76281,-0.29968c-0.44316,0 -0.81911,0.12532 -1.12787,0.37596c-0.29423,0.26153 -0.44134,0.68108 -0.44134,1.25864v3.07848c0,0.25064 -0.08718,0.43589 -0.26153,0.55576c-0.17072,0.11987 -0.35053,0.1798 -0.53941,0.1798c-0.20342,0 -0.37777,-0.0672 -0.52307,-0.2016c-0.14166,-0.1344 -0.2125,-0.31239 -0.2125,-0.53397zM247.84234,164.36029c0,0.5158 -0.47585,0.77371 -1.42754,0.77371c-0.6611,0 -1.13876,-0.19434 -1.43299,-0.583c-0.29059,-0.37777 -0.4486,-0.97894 -0.47403,-1.8035v-3.08393h-0.41955c-0.21068,0 -0.3814,-0.06901 -0.51217,-0.20705c-0.12714,-0.13803 -0.1907,-0.28878 -0.1907,-0.45224c0,-0.14893 0.05449,-0.29786 0.16346,-0.44679c0.1126,-0.14893 0.29241,-0.2234 0.53941,-0.2234h0.49583l0.04904,-1.47113c0.03632,-0.21794 0.13077,-0.38322 0.28333,-0.49583c0.15619,-0.1126 0.32147,-0.16891 0.49583,-0.16891c0.17436,0 0.32874,0.05994 0.46313,0.17981c0.1344,0.11624 0.2016,0.28696 0.2016,0.51217v1.44389h0.81729c0.22158,0 0.3923,0.07447 0.51217,0.2234c0.11987,0.1453 0.1798,0.29422 0.1798,0.44679c0,0.18889 -0.06357,0.3469 -0.1907,0.47403c-0.1235,0.1235 -0.29059,0.18525 -0.50127,0.18525h-0.81729v2.54996c0,0.75918 0.01816,1.19688 0.05449,1.31312c0.03996,0.1126 0.09081,0.18707 0.15256,0.22339c0.06175,0.03269 0.15074,0.04904 0.26698,0.04904l0.62114,-0.04904c0.21794,0 0.38322,0.06901 0.49583,0.20705c0.11624,0.13803 0.17436,0.27243 0.17436,0.4032zM257.35047,164.26766c0,0.25064 -0.09081,0.43589 -0.27243,0.55576c-0.17799,0.11987 -0.32873,0.1798 -0.45224,0.1798c-0.11987,0 -0.23248,-0.01271 -0.33782,-0.03814c-0.10534,-0.02906 -0.1907,-0.08355 -0.25608,-0.16346c-0.17072,-0.11624 -0.25609,-0.29423 -0.25609,-0.53397h0.16891c-0.03996,0.36324 -0.44679,0.62296 -1.22049,0.77916c-0.23248,0.05812 -0.48675,0.08718 -0.76281,0.08718c-0.27243,0 -0.56121,-0.04904 -0.86634,-0.14711c-0.30512,-0.10171 -0.56847,-0.26335 -0.79005,-0.48493c-0.48311,-0.45769 -0.72467,-1.13513 -0.72467,-2.03234v-3.36726c0,-0.23611 0.0781,-0.42318 0.23429,-0.56121c0.15619,-0.13803 0.33418,-0.20705 0.53397,-0.20705c0.19978,0 0.37778,0.06901 0.53397,0.20705c0.15619,0.13803 0.23429,0.3251 0.23429,0.56121v3.44899c0,0.49401 0.08718,0.82456 0.26154,0.99165c0.18162,0.17072 0.46858,0.25609 0.86088,0.25609c0.66837,0 1.12787,-0.26698 1.37851,-0.80095c0.09807,-0.18889 0.15074,-0.40502 0.15801,-0.64839v-3.24739c0,-0.24337 0.08355,-0.43226 0.25064,-0.56666c0.17072,-0.1344 0.35598,-0.2016 0.55576,-0.2016c0.19978,0 0.37777,0.06901 0.53397,0.20705c0.15619,0.13803 0.23429,0.3251 0.23429,0.56121zM258.65084,159.08601c0,-0.22884 0.08355,-0.41047 0.25064,-0.54486c0.16709,-0.13803 0.33963,-0.20705 0.51762,-0.20705c0.35961,0 0.58663,0.12714 0.68108,0.38141c0.09444,0.25427 0.02724,0.56484 -0.2016,0.93172c-0.02543,-0.45405 0.20704,-0.81548 0.6974,-1.08428c0.41773,-0.22884 0.83001,-0.34326 1.23684,-0.34326c0.41046,0 0.76099,0.05267 1.05159,0.15801c0.29059,0.10171 0.55758,0.26154 0.80095,0.47948c0.49038,0.46495 0.73557,1.13513 0.73557,2.01055v3.39995c0,0.25064 -0.09081,0.43589 -0.27243,0.55576c-0.17799,0.11987 -0.35416,0.1798 -0.52852,0.1798c-0.19978,0 -0.37959,-0.06538 -0.53941,-0.19615c-0.15619,-0.13077 -0.23429,-0.31057 -0.23429,-0.53941v-3.46533c0,-0.42136 -0.10898,-0.73738 -0.32692,-0.94806c-0.20342,-0.19978 -0.45769,-0.29968 -0.76281,-0.29968c-0.44316,0 -0.81911,0.12532 -1.12787,0.37596c-0.29421,0.26153 -0.44132,0.68108 -0.44132,1.25864v3.07848c0,0.25064 -0.08718,0.43589 -0.26154,0.55576c-0.17072,0.11987 -0.35053,0.1798 -0.53941,0.1798c-0.20342,0 -0.37777,-0.0672 -0.52307,-0.2016c-0.14166,-0.1344 -0.2125,-0.31239 -0.2125,-0.53397zM265.72129,156.47611c0,-0.27243 0.08536,-0.46858 0.25609,-0.58845c0.17072,-0.1235 0.31784,-0.18525 0.44134,-0.18525c0.12714,0 0.23611,0.00908 0.32692,0.02724c0.09444,0.01816 0.18162,0.0672 0.26153,0.14711c0.18889,0.11987 0.28333,0.31965 0.28333,0.59935v7.75886c0,0.2579 -0.08536,0.45042 -0.25609,0.57755c-0.17072,0.12714 -0.35234,0.1907 -0.54486,0.1907c-0.19615,0 -0.37414,-0.06538 -0.53397,-0.19615c-0.15619,-0.13077 -0.23429,-0.32147 -0.23429,-0.57211zM268.17131,161.68501c0,-0.4141 0.0672,-0.83001 0.2016,-1.24774c0.1344,-0.41773 0.33964,-0.7955 0.6157,-1.13331c0.59572,-0.72285 1.42936,-1.08428 2.50092,-1.08428c1.0752,0 1.90884,0.36324 2.50092,1.08973c0.54486,0.66837 0.8173,1.45479 0.8173,2.35926c0,0.91174 -0.27243,1.69816 -0.8173,2.35926c-0.59208,0.73738 -1.42573,1.10607 -2.50092,1.10607c-1.07156,0 -1.90521,-0.36688 -2.50092,-1.10062c-0.54486,-0.65383 -0.8173,-1.43662 -0.8173,-2.34836zM269.78955,161.68501c0,0.23248 0.03088,0.47766 0.09263,0.73557c0.06538,0.2579 0.17799,0.49583 0.33781,0.71377c0.30876,0.44316 0.73193,0.66473 1.26953,0.66473c0.57029,0 0.99165,-0.21613 1.26408,-0.64839c0.2797,-0.44316 0.41955,-0.93717 0.41955,-1.48203c0,-0.55939 -0.13803,-1.04069 -0.4141,-1.44389c-0.28696,-0.44679 -0.71014,-0.67018 -1.26953,-0.67018c-0.5376,0 -0.96078,0.22703 -1.26953,0.68108c-0.28696,0.38867 -0.43044,0.87178 -0.43044,1.44934zM275.27415,161.66866c0,-0.95896 0.27425,-1.75809 0.82275,-2.3974c0.60298,-0.70106 1.38758,-1.05159 2.35381,-1.05159c0.81366,0 1.44389,0.17617 1.89068,0.52852c0.19252,0.13803 0.28878,0.31057 0.28878,0.51762c0,0.20342 -0.05994,0.36869 -0.17981,0.49583c-0.11624,0.12714 -0.25427,0.1907 -0.4141,0.1907c-0.15983,0 -0.28151,-0.03269 -0.36506,-0.09807c-0.35234,-0.19978 -0.7283,-0.29604 -1.12787,-0.28878c-0.49038,0 -0.87541,0.18344 -1.15511,0.55031c-0.33055,0.39957 -0.49583,0.91719 -0.49583,1.55286c0,0.59572 0.11987,1.09518 0.35961,1.49838c0.26153,0.42136 0.69197,0.63204 1.29132,0.63204c0.34145,0 0.76644,-0.12169 1.27498,-0.36506c0.2797,-0.16346 0.52488,-0.1235 0.73556,0.11987c0.11624,0.11624 0.17436,0.27425 0.17436,0.47403c0,0.19615 -0.09444,0.37051 -0.28333,0.52307c-0.18889,0.15256 -0.39593,0.26516 -0.62114,0.33781c-0.49764,0.17072 -0.9862,0.25427 -1.46568,0.25064c-0.47585,-0.00363 -0.90992,-0.09444 -1.30222,-0.27243c-0.3923,-0.18162 -0.71922,-0.44497 -0.98075,-0.79005c-0.53397,-0.63931 -0.80095,-1.44207 -0.80095,-2.4083zM283.22773,162.15904v2.07593c0,0.25427 -0.08355,0.44679 -0.25064,0.57755c-0.16346,0.12714 -0.34145,0.1907 -0.53397,0.1907c-0.18889,0 -0.36324,-0.06538 -0.52307,-0.19615c-0.15619,-0.13077 -0.23429,-0.32147 -0.23429,-0.57211v-7.75886c0,-0.2688 0.07992,-0.46495 0.23974,-0.58845c0.15983,-0.1235 0.30875,-0.18525 0.44679,-0.18525c0.13803,0 0.25609,0.00908 0.35416,0.02724c0.10171,0.01816 0.19434,0.07265 0.27788,0.16346c0.14893,0.1235 0.22339,0.31784 0.22339,0.583v4.01019l2.28298,-1.91247c0.14166,-0.15983 0.31057,-0.23974 0.50672,-0.23974c0.19252,0 0.36324,0.07083 0.51217,0.2125c0.14893,0.13803 0.22339,0.28696 0.22339,0.44679c0,0.23611 -0.0781,0.41228 -0.23429,0.52852l-2.13042,1.7817l2.47913,2.50637c0.11624,0.11624 0.17436,0.25245 0.17436,0.40865c0,0.15619 -0.02542,0.27788 -0.07628,0.36506c-0.04722,0.08718 -0.11079,0.16346 -0.1907,0.22884c-0.15983,0.12714 -0.33055,0.1907 -0.51217,0.1907c-0.18162,0 -0.35416,-0.08173 -0.51762,-0.24519zM293.67972,161.48886c0,0.4032 -0.21976,0.62296 -0.65928,0.65929h-4.10827c0.03269,0.76281 0.39412,1.28225 1.08428,1.55831c0.18525,0.06175 0.40865,0.09263 0.67018,0.09263c0.5376,0 1.09518,-0.20342 1.67273,-0.61025c0.32329,-0.18525 0.6048,-0.16165 0.84454,0.07083c0.14166,0.15256 0.18889,0.30149 0.14166,0.44679c0,0.20342 -0.0672,0.36506 -0.2016,0.48493c-0.63931,0.63567 -1.48021,0.94988 -2.52272,0.94262c-0.95896,0 -1.73266,-0.31239 -2.32112,-0.93717c-0.65383,-0.64294 -0.98076,-1.48566 -0.98076,-2.52817c0,-0.95533 0.26698,-1.74901 0.80095,-2.38105c0.57392,-0.71195 1.37487,-1.06793 2.40285,-1.06793c1.02797,0 1.81803,0.31602 2.37016,0.94806c0.5158,0.56303 0.7846,1.33673 0.8064,2.32112zM292.14321,160.91675c-0.01816,-0.30512 -0.17435,-0.61933 -0.46858,-0.94262c-0.26517,-0.2797 -0.65565,-0.41955 -1.17146,-0.41955c-0.42862,0 -0.7955,0.15983 -1.10062,0.47948c-0.28333,0.33055 -0.43407,0.62478 -0.45224,0.88268zM299.04758,164.26766c-0.31239,0.57755 -0.97894,0.86634 -1.99965,0.86634c-0.93353,0 -1.66546,-0.37414 -2.1958,-1.12242c-0.43952,-0.6502 -0.65929,-1.43118 -0.65929,-2.34292c0,-1.54741 0.5267,-2.59537 1.5801,-3.14386c0.35961,-0.20342 0.71922,-0.30512 1.07883,-0.30512c0.36324,0 0.66292,0.02179 0.89903,0.06538c0.23611,0.03996 0.46313,0.11987 0.68108,0.23974c0.45042,0.22521 0.65747,0.38141 0.62114,0.46858l-0.11442,-2.54996c0,-0.26153 0.08718,-0.45042 0.26154,-0.56666c0.17436,-0.11624 0.35416,-0.17436 0.53941,-0.17436c0.19615,0 0.37232,0.05994 0.52852,0.17981c0.15983,0.11624 0.23974,0.30331 0.23974,0.56121v7.82424c0,0.247 -0.08536,0.43226 -0.25609,0.55576c-0.17072,0.11987 -0.32147,0.1798 -0.45224,0.1798c-0.12714,0 -0.23974,-0.01271 -0.33782,-0.03814c-0.09807,-0.02906 -0.18525,-0.08173 -0.26153,-0.15801c-0.17436,-0.11987 -0.26154,-0.29968 -0.26154,-0.53941zM297.23863,163.79908c1.11152,0 1.66728,-0.74283 1.66728,-2.22849c0,-0.95896 -0.27243,-1.57828 -0.8173,-1.85798c-0.20705,-0.10534 -0.45768,-0.15801 -0.75191,-0.15801c-0.29059,0 -0.52852,0.05449 -0.71377,0.16346c-0.18162,0.10534 -0.33418,0.25245 -0.45769,0.44134c-0.23611,0.37051 -0.35416,0.84635 -0.35416,1.42754c0,0.87178 0.19797,1.50564 0.5939,1.90158c0.19978,0.20705 0.47766,0.31057 0.83364,0.31057zM301.85691,159.18408c0,-0.39593 0.18707,-0.67381 0.56121,-0.83364c0.10897,-0.03269 0.23974,-0.04904 0.3923,-0.04904c0.15256,0 0.28333,0.02361 0.3923,0.07083c0.10897,0.04722 0.20705,0.1126 0.29423,0.19615c0.18525,0.17436 0.2688,0.38322 0.25064,0.62659c0,0.37777 -0.18162,0.63931 -0.54486,0.7846c-0.10534,0.04359 -0.23066,0.07083 -0.37596,0.08173c-0.1453,0.00727 -0.27243,-0.0109 -0.3814,-0.05449c-0.10897,-0.04722 -0.21431,-0.10352 -0.31602,-0.16891c-0.18162,-0.19978 -0.27243,-0.41773 -0.27243,-0.65384zM301.91684,164.45836c-0.03996,-0.11624 -0.05993,-0.22884 -0.05993,-0.33781c0,-0.10897 0.01998,-0.21795 0.05993,-0.32692c0.04359,-0.10897 0.11079,-0.20523 0.2016,-0.28878c0.09444,-0.08355 0.19797,-0.14893 0.31057,-0.19615c0.11624,-0.04722 0.247,-0.07083 0.3923,-0.07083c0.1453,0 0.27243,0.02361 0.38141,0.07083c0.10897,0.04722 0.20705,0.11442 0.29423,0.2016c0.09081,0.08718 0.15438,0.18525 0.1907,0.29423c0.03996,0.10534 0.05993,0.21249 0.05993,0.32147c0,0.10534 -0.01998,0.21432 -0.05993,0.32692c-0.03632,0.1126 -0.09989,0.20886 -0.1907,0.28878c-0.09081,0.07991 -0.1907,0.14348 -0.29968,0.1907c-0.10534,0.04722 -0.23066,0.07083 -0.37596,0.07083c-0.1453,0 -0.27425,-0.02179 -0.38685,-0.06538c-0.1126,-0.04722 -0.21613,-0.10897 -0.31057,-0.18525c-0.09444,-0.07991 -0.16346,-0.17799 -0.20705,-0.29423z" fill="#000000" stroke-width="1" stroke-linecap="square"/><path d="M208.3934,181.76327c0,-0.5197 0.17577,-0.93622 0.52734,-1.24956c0.35156,-0.31333 0.76043,-0.47002 1.22662,-0.47002h9.04494c0.54263,0 0.9362,0.17195 1.18078,0.51587c0.24455,0.33627 0.36684,0.68784 0.36684,1.05467c0,0.36684 -0.12228,0.72222 -0.36684,1.06613c-0.24455,0.33627 -0.63815,0.50441 -1.18078,0.50441h-7.2222v4.75747h6.91266c0.53498,0 0.93239,0.16813 1.19223,0.50441c0.25984,0.33627 0.38977,0.69929 0.38977,1.08906c0,0.38214 -0.14904,0.72986 -0.44709,1.04322c-0.29042,0.31333 -0.66872,0.47001 -1.13491,0.47001h-6.91266v6.91266c0,0.50441 -0.16431,0.91711 -0.49294,1.23808c-0.84069,0.61141 -1.64697,0.64197 -2.41888,0.09171c-0.37448,-0.25221 -0.59611,-0.684 -0.6649,-1.2954zM225.46104,188.41226c0.25221,-2.00235 1.43296,-3.00351 3.54231,-3.00351c0.5197,0 0.91711,0.16049 1.19223,0.48148c0.28278,0.31333 0.42416,0.65343 0.42416,1.02028c0,0.36684 -0.14138,0.71077 -0.42416,1.03174c-0.27513,0.31333 -0.6649,0.47001 -1.16932,0.47001c-0.49676,0 -0.92857,0.0726 -1.2954,0.21782c-0.36684,0.14521 -0.66108,0.34772 -0.88271,0.60758c-0.5197,0.63432 -0.77954,1.48265 -0.77954,2.54496v6.35095c0,0.52734 -0.18343,0.91711 -0.55026,1.16932c-0.3592,0.25221 -0.67636,0.37831 -0.9515,0.37831c-0.27513,0 -0.50824,-0.02676 -0.69929,-0.08026c-0.18343,-0.06115 -0.35538,-0.17195 -0.51587,-0.33245c-0.34392,-0.22163 -0.51587,-0.59993 -0.51587,-1.13491v-10.86767c0,-0.46619 0.16049,-0.85214 0.48148,-1.15784c0.32863,-0.3057 0.72986,-0.45855 1.20371,-0.45855c0.47383,0 0.84832,0.16049 1.12345,0.48148c0.28278,0.31333 0.42416,0.69165 0.42416,1.13491zM238.61558,190.67064c0.48148,0 0.75279,0 0.81393,0v-0.43563c0,-1.34508 -0.77573,-2.01763 -2.32716,-2.01763c-0.80246,0 -1.37184,0.06497 -1.70811,0.19488c-0.68783,0.25221 -1.20371,0.48531 -1.54761,0.69929c-0.34392,0.20634 -0.67636,0.30953 -0.99735,0.30953c-0.31333,0 -0.61141,-0.12228 -0.89418,-0.36684c-0.28278,-0.24455 -0.42416,-0.56937 -0.42416,-0.97441c0,-0.36684 0.16813,-0.69547 0.50441,-0.98589c1.16932,-1.12345 2.86977,-1.68517 5.1014,-1.68517c2.65195,0 4.3677,0.92474 5.14724,2.77423c0.25221,0.64197 0.37831,1.37184 0.37831,2.18958l-0.06878,7.79538c0,0.48912 -0.16814,0.8636 -0.50441,1.12345c-0.33627,0.25984 -0.69165,0.38977 -1.06613,0.38977c-0.37448,0 -0.73368,-0.11082 -1.07758,-0.33246c-0.34392,-0.22928 -0.51587,-0.61521 -0.51587,-1.15784h0.34392c-0.08406,0.7184 -0.91711,1.24573 -2.49911,1.582c-0.46619,0.12228 -0.99735,0.18341 -1.59347,0.18341c-0.59611,0 -1.19605,-0.09171 -1.79982,-0.27512c-0.59611,-0.17577 -1.12727,-0.45856 -1.59346,-0.84833c-0.97825,-0.81775 -1.46738,-1.91827 -1.46738,-3.30158c0,-3.24043 2.59846,-4.86064 7.79538,-4.86064zM239.56707,193.34169c-0.02293,0.09171 -0.27513,0.13756 -0.75662,0.13756c-0.48148,0 -0.95914,0.00764 -1.43299,0.02293c-0.47383,0.00764 -0.91329,0.05732 -1.31834,0.14904c-0.39741,0.08406 -0.75279,0.21399 -1.06613,0.38977c-0.56554,0.29806 -0.86361,0.78718 -0.89418,1.46738c0,0.49676 0.21016,0.89035 0.63051,1.18078c0.35156,0.29042 0.87508,0.44326 1.57055,0.45855c0.85596,0 1.59346,-0.27131 2.21251,-0.81393c0.55026,-0.51204 0.85596,-1.3107 0.91711,-2.39594zM245.33551,187.23149c0,-0.48148 0.17577,-0.8636 0.52734,-1.14639c0.35156,-0.29042 0.71458,-0.43563 1.08906,-0.43563c0.75662,0 1.23427,0.26749 1.43299,0.80246c0.19871,0.53498 0.05732,1.18841 -0.42416,1.9603c-0.0535,-0.95531 0.43562,-1.71575 1.46735,-2.28129c0.8789,-0.48148 1.74632,-0.72222 2.60228,-0.72222c0.8636,0 1.6011,0.11082 2.21251,0.33245c0.61141,0.21399 1.17312,0.55026 1.68518,1.0088c1.03174,0.97825 1.54761,2.38829 1.54761,4.23014v7.15342c0,0.52734 -0.19106,0.91711 -0.57319,1.16932c-0.37448,0.25221 -0.74515,0.37831 -1.112,0.37831c-0.42035,0 -0.79864,-0.13756 -1.13491,-0.4127c-0.32863,-0.27513 -0.49294,-0.65345 -0.49294,-1.13491v-7.29098c0,-0.88653 -0.22928,-1.55143 -0.68784,-1.9947c-0.42798,-0.42035 -0.96296,-0.63051 -1.60494,-0.63051c-0.93239,0 -1.72339,0.26367 -2.37301,0.79101c-0.61904,0.55026 -0.92857,1.43299 -0.92857,2.64813v6.47705c0,0.52734 -0.18343,0.91711 -0.55026,1.16932c-0.3592,0.25221 -0.7375,0.37831 -1.13491,0.37831c-0.42798,0 -0.79483,-0.14138 -1.10052,-0.42417c-0.29806,-0.28278 -0.44709,-0.65726 -0.44709,-1.12345zM263.58193,193.69707v4.3677c0,0.53498 -0.17577,0.94002 -0.52733,1.21517c-0.34392,0.26749 -0.7184,0.40124 -1.12345,0.40124c-0.39741,0 -0.76425,-0.13756 -1.10052,-0.4127c-0.32863,-0.27513 -0.49294,-0.67636 -0.49294,-1.20369v-16.32446c0,-0.56554 0.16813,-0.97825 0.50441,-1.23808c0.33627,-0.25984 0.64962,-0.38977 0.94005,-0.38977c0.29042,0 0.5388,0.01911 0.74515,0.05732c0.21399,0.03821 0.40887,0.15286 0.58465,0.34392c0.31333,0.25984 0.47001,0.66871 0.47001,1.22662v8.43736l4.80334,-4.02379c0.29806,-0.33627 0.65345,-0.50441 1.06613,-0.50441c0.40505,0 0.76425,0.14904 1.07761,0.44709c0.31333,0.29042 0.47001,0.60376 0.47001,0.94002c0,0.49676 -0.16431,0.86742 -0.49294,1.112l-4.48235,3.74867l5.21603,5.27335c0.24455,0.24455 0.36684,0.53115 0.36684,0.85979c0,0.32863 -0.0535,0.58465 -0.16049,0.76807c-0.09935,0.18343 -0.2331,0.34392 -0.40124,0.48148c-0.33627,0.26749 -0.69547,0.40124 -1.07761,0.40124c-0.38214,0 -0.74515,-0.17196 -1.08906,-0.51587z" fill="#000000" stroke-width="0" stroke-linecap="square"/></g></g></svg>