<svg version="1.1" xmlns="http://www.w3.org/2000/svg" xmlns:xlink="http://www.w3.org/1999/xlink" width="447.99475" height="426.06066" viewBox="0,0,447.99475,426.06066"><g transform="translate(-0.51051,80.66067)"><g data-paper-data="{&quot;isPaintingLayer&quot;:true}" stroke="none" stroke-linecap="butt" stroke-linejoin="miter" stroke-miterlimit="10" stroke-dasharray="" stroke-dashoffset="0" style="mix-blend-mode: normal"><path d="M174.2078,227.2776c-18.168,0 -7.17,-75.622 39.166,-74.5c47.198,1.144 64.334,74.5 64.334,74.5z" fill="#efab00" fill-rule="evenodd" stroke-width="1"/><path d="M311.9324,196.924c0,0 -94.3,25.11 -111.226,27.604c-22.666,3.34 -30.178,-3.948 -32.914,-15.75c-4.526,-19.522 11.248,-20.166 16.082,-30.832c4.832,-10.668 -6.536,-28.022 16.082,-28.918c18.918,-0.75 19.206,-15.286 28.506,-16.354c14.424,-1.656 17.574,12.038 28.246,15.854c10.08,3.604 15.384,-5.618 26.666,-1.084c9.666,3.886 10.102,24.54 22.834,28.834c20.75,7 5.724,20.646 5.724,20.646" fill="#59c059" fill-rule="evenodd" stroke-width="1"/><path d="M189.403,190.9416c-2.058,-0.624 -3.234,-2.822 -2.608,-4.88l1.254,-4.136c0.624,-2.058 2.82,-3.232 4.88,-2.608l11.012,3.338c2.06,0.626 3.234,2.822 2.608,4.882l-1.254,4.134c-0.624,2.06 -2.82,3.232 -4.88,2.608l-11.012,-3.338" fill="#e8511c" fill-rule="evenodd" stroke-width="1"/><path d="M182.0242,188.0216c2.28,0.58 5.54,3.06 8.2,3.72c-6.88,17.82 -8.12,34.9 -16.64,35.5h-0.04c-6.54,-0.54 -13.6,-6.66 -9.52,-12.96c2.42,-3.74 -1.34,-8.38 -0.32,-12.68c1.46,-6.2 7.8,-7.54 10,-8.16c2.4,-0.66 4.94,-6.28 8.32,-5.42" fill="#c18500" fill-rule="evenodd" stroke-width="1"/><path d="M199.1638,181.2208c-2.02,3.66 -3.68,7.42 -5.08,11.14l-1.88,-0.58l-1.8,-0.538c1.46,-3.722 3.18,-7.462 5.26,-11.08z" fill="#c6431a" fill-rule="evenodd" stroke-width="1"/><path d="M194.0838,192.3616c-6.62,17.44 -7.96,34 -16.18,34.86c-0.96,0 -1.44,0 -3.04,0.06h-0.4c-0.3,0 -0.58,-0.02 -0.88,-0.04c8.52,-0.6 9.76,-17.68 16.64,-35.5c0.72,0.18 1.38,0.22 1.98,0.04z" fill="#a06b00" fill-rule="evenodd" stroke-width="1"/><path d="M197.7048,168.0608c-1.94,0.93 -4.29,0.102 -5.218,-1.84l-0.36,-0.748c-0.928,-1.942 -0.1,-4.288 1.84,-5.218l5.37,-2.57c1.942,-0.93 4.29,-0.102 5.218,1.838l0.36,0.75c0.928,1.94 0.1,4.29 -1.84,5.218l-5.37,2.57" fill="#e8511c" fill-rule="evenodd" stroke-width="1"/><path d="M252.2038,151.5618c-1.46,0.02 -2.96,0.1 -4.5,0.22c-26.84,2.06 -40.54,14.92 -48.54,29.44l-3.5,-1.06c8.08,-14.1 21.76,-26.36 47.94,-28.38c3,-0.24 5.86,-0.3 8.6,-0.22" fill="#4ba04b" fill-rule="evenodd" stroke-width="1"/><path d="M298.526,181.754c-1.076,-1.864 -0.432,-4.27 1.434,-5.346l1.904,-1.1c1.864,-1.076 4.27,-0.43 5.346,1.432l4.066,7.044c1.076,1.864 0.432,4.268 -1.434,5.346l-1.904,1.098c-1.864,1.076 -4.27,0.432 -5.346,-1.432l-4.066,-7.042" fill="#e8511c" fill-rule="evenodd" stroke-width="1"/><path d="M252.3992,154.7638c-2.03,0.716 -4.276,-0.356 -4.992,-2.386l-0.732,-2.074c-0.718,-2.03 0.354,-4.276 2.384,-4.994l7.668,-2.71c2.03,-0.716 4.276,0.358 4.992,2.386l0.734,2.074c0.718,2.03 -0.356,4.278 -2.386,4.994l-7.668,2.71" fill="#e8511c" fill-rule="evenodd" stroke-width="1"/><path d="M177.2074,227.2776c18,0 4.446,-70.43 70.5,-75.5c52.584,-4.036 65.6,40.576 68.334,64.004c0.714,6.114 -4,11.496 -10.152,11.496z" fill="#ffbf00" fill-rule="evenodd" stroke-width="1"/><path d="M225.1804,149.7648c-0.58,0 -1.156,-0.252 -1.552,-0.738c-0.698,-0.856 -0.568,-2.116 0.288,-2.812l10.5,-8.552c0.858,-0.694 2.118,-0.568 2.814,0.288c0.698,0.856 0.568,2.116 -0.288,2.814l-10.5,8.55c-0.372,0.302 -0.818,0.45 -1.262,0.45" fill="#ffbf00" fill-rule="evenodd" stroke-width="1"/><path d="M293.362,156.0246c-0.124,0 -0.248,-0.01 -0.374,-0.036l-13.306,-2.518c-1.086,-0.204 -1.798,-1.252 -1.594,-2.336c0.206,-1.086 1.254,-1.81 2.336,-1.594l13.308,2.52c1.086,0.204 1.798,1.252 1.592,2.336c-0.18,0.96 -1.02,1.628 -1.962,1.628" fill="#ffbf00" fill-rule="evenodd" stroke-width="1"/><path d="M179.699,197.0822c-0.444,0 -0.892,-0.146 -1.264,-0.452l-10.494,-8.56c-0.856,-0.696 -0.984,-1.956 -0.284,-2.812c0.698,-0.854 1.956,-0.986 2.814,-0.286l10.494,8.562c0.856,0.696 0.984,1.956 0.284,2.812c-0.394,0.484 -0.97,0.736 -1.55,0.736" fill="#ffbf00" fill-rule="evenodd" stroke-width="1"/><path d="M292.5378,191.3694c-3.262,0 -3.268,-5.07 0,-5.07c3.264,0 3.268,5.07 0,5.07" fill="#efab00" fill-rule="evenodd" stroke-width="1"/><path d="M266.573,195.9044c-3.262,0 -3.268,-5.07 0,-5.07c3.264,0 3.268,5.07 0,5.07" fill="#efab00" fill-rule="evenodd" stroke-width="1"/><path d="M263.4342,216.7794c-3.262,0 -3.268,-5.07 0,-5.07c3.264,0 3.27,5.07 0,5.07" fill="#efab00" fill-rule="evenodd" stroke-width="1"/><path d="M220.491,219.3146c-3.262,0 -3.268,-5.07 0,-5.07c3.262,0 3.268,5.07 0,5.07" fill="#efab00" fill-rule="evenodd" stroke-width="1"/><path d="M225.5154,175.2326c-3.262,0 -3.268,-5.07 0,-5.07c3.262,0 3.268,5.07 0,5.07" fill="#efab00" fill-rule="evenodd" stroke-width="1"/><path d="M252.3932,163.7444c-3.262,0 -3.268,-5.072 0,-5.072c3.262,0 3.268,5.072 0,5.072" fill="#efab00" fill-rule="evenodd" stroke-width="1"/><path d="M239.2174,198.9748c-3.262,0 -3.268,-5.07 0,-5.07c3.262,0 3.268,5.07 0,5.07" fill="#efab00" fill-rule="evenodd" stroke-width="1"/><path d="M211.152,200.9748c-3.262,0 -3.268,-5.07 0,-5.07c3.262,0 3.268,5.07 0,5.07" fill="#efab00" fill-rule="evenodd" stroke-width="1"/><path d="M297.489,211.9612c-3.262,0 -3.268,-5.07 0,-5.07c3.262,0 3.268,5.07 0,5.07" fill="#efab00" fill-rule="evenodd" stroke-width="1"/><path d="M277.7078,172.6974c-3.264,0 -3.27,-5.07 0,-5.07c3.262,0 3.268,5.07 0,5.07" fill="#efab00" fill-rule="evenodd" stroke-width="1"/><path d="M190.404,191.2424l1.8,0.54c-0.6,0.178 -1.26,0.14 -1.98,-0.04c0.06,-0.16 0.12,-0.32 0.18,-0.5" fill="#4ba04b" fill-rule="evenodd" stroke-width="1"/><path d="M392.4024,196.36636c0,52.65778 -62.5188,95.34535 -139.63964,95.34535c-77.12084,0 -139.63964,-42.68757 -139.63964,-95.34535c0,-52.65778 62.5188,-95.34535 139.63964,-95.34535c77.12084,0 139.63964,42.68757 139.63964,95.34535z" fill="none" fill-rule="nonzero" stroke-width="0"/><path d="M0.51051,-80.66067v0v0z" fill="none" fill-rule="nonzero" stroke-width="0"/><path d="M448.50526,180.89999c0,90.85084 -76.33545,164.5 -170.5,164.5c-94.16455,0 -170.5,-73.64916 -170.5,-164.5c0,-90.85084 76.33545,-164.5 170.5,-164.5c94.16455,0 170.5,73.64916 170.5,164.5z" fill="none" fill-rule="nonzero" stroke-width="0"/><ellipse cx="111.01051" cy="402.79999" transform="scale(0.5,0.5)" rx="0" ry="0" fill="none" fill-rule="nonzero" stroke-width="0"/></g></g></svg>