<svg version="1.1" xmlns="http://www.w3.org/2000/svg" xmlns:xlink="http://www.w3.org/1999/xlink" width="155.01201" height="71.544" viewBox="0,0,155.01201,71.544"><g transform="translate(-162.494,-144.228)"><g data-paper-data="{&quot;isPaintingLayer&quot;:true}" fill-rule="nonzero" stroke="none" stroke-linejoin="miter" stroke-miterlimit="10" stroke-dasharray="" stroke-dashoffset="0" style="mix-blend-mode: normal"><path d="M162.494,207.1c0,-15.39767 0,-46.66972 0,-54.92267c0,-3.91529 3.64948,-7.94933 7.94934,-7.94933c15.5113,0 108.45108,0 138.02934,0c5.68841,0 9.03333,4.24438 9.03333,8.31067c0,8.47827 0,40.26824 0,55.284c0,4.84946 -3.20355,7.94933 -8.672,7.94933c-29.17464,0 -122.81565,0 -138.39067,0c-4.29986,0 -7.94934,-3.40853 -7.94934,-8.672z" fill="#ffffff" stroke-width="0" stroke-linecap="butt"/><path d="M173.40253,169.7993v4.47653c0,0.54975 -0.25393,0.91887 -0.7618,1.10735c-0.13613,0.04712 -0.31676,0.07068 -0.5419,0.07068c-0.2199,0 -0.46336,-0.09424 -0.73038,-0.28273c-0.26179,-0.19372 -0.39268,-0.49216 -0.39268,-0.89531v-4.45297l-4.01317,-6.08652c-0.13089,-0.16231 -0.19634,-0.3377 -0.19634,-0.52619c0,-0.19372 0.03665,-0.36388 0.10995,-0.51048c0.07853,-0.1466 0.18849,-0.27749 0.32985,-0.39268c0.26179,-0.20419 0.53143,-0.30629 0.80892,-0.30629c0.50263,0 0.86913,0.20681 1.0995,0.62043l3.20426,5.78808h-0.02356l3.22782,-5.84306c0.23037,-0.37697 0.56284,-0.56546 0.9974,-0.56546c0.47645,0 0.81154,0.18849 1.00526,0.56546c0.09948,0.13613 0.14922,0.28796 0.14922,0.45551c0,0.17278 -0.05759,0.35341 -0.17278,0.5419zM178.13835,170.67105c0,-0.59687 0.09686,-1.19636 0.29058,-1.79847c0.19372,-0.60211 0.48954,-1.14662 0.88746,-1.63354c0.85866,-1.04191 2.06025,-1.56286 3.60479,-1.56286c1.54977,0 2.75137,0.52357 3.60479,1.57071c0.78536,0.96337 1.17804,2.09691 1.17804,3.4006c0,1.31417 -0.39268,2.4477 -1.17804,3.4006c-0.85342,1.06285 -2.05502,1.59427 -3.60479,1.59427c-1.54453,0 -2.74613,-0.52881 -3.60479,-1.58642c-0.78536,-0.94243 -1.17804,-2.07072 -1.17804,-3.38489zM180.47086,170.67105c0,0.33508 0.04451,0.6885 0.13351,1.06023c0.09424,0.37174 0.25655,0.71468 0.48692,1.02882c0.44504,0.63876 1.055,0.95814 1.82988,0.95814c0.82201,0 1.42935,-0.31152 1.82203,-0.93457c0.40315,-0.63876 0.60472,-1.35082 0.60472,-2.13617c0,-0.8063 -0.19896,-1.50003 -0.59687,-2.0812c-0.41362,-0.64399 -1.02358,-0.96599 -1.82988,-0.96599c-0.77489,0 -1.38485,0.32723 -1.82988,0.9817c-0.41362,0.56022 -0.62043,1.25657 -0.62043,2.08905zM197.29793,174.39364c0,0.36127 -0.13089,0.62829 -0.39268,0.80107c-0.25655,0.17278 -0.47383,0.25917 -0.65185,0.25917c-0.17278,0 -0.33509,-0.01832 -0.48692,-0.05497c-0.15183,-0.04189 -0.27488,-0.12042 -0.36912,-0.23561c-0.24608,-0.16754 -0.36912,-0.42409 -0.36912,-0.76965h0.24346c-0.05759,0.52357 -0.64399,0.89792 -1.7592,1.12306c-0.33508,0.08377 -0.70159,0.12566 -1.0995,0.12566c-0.39268,0 -0.80892,-0.07068 -1.24872,-0.21204c-0.4398,-0.1466 -0.81939,-0.37959 -1.13877,-0.69897c-0.69635,-0.6597 -1.04453,-1.63616 -1.04453,-2.92938v-4.85351c0,-0.34032 0.11257,-0.60996 0.3377,-0.80892c0.22514,-0.19896 0.48168,-0.29843 0.76965,-0.29843c0.28797,0 0.54451,0.09948 0.76965,0.29843c0.22514,0.19896 0.3377,0.4686 0.3377,0.80892v4.97131c0,0.71206 0.12566,1.1885 0.37697,1.42935c0.26179,0.24608 0.67541,0.36912 1.24086,0.36912c0.96337,0 1.62569,-0.38483 1.98695,-1.15448c0.14136,-0.27226 0.21728,-0.58378 0.22775,-0.93457v-4.68073c0,-0.35079 0.12042,-0.62305 0.36126,-0.81677c0.24608,-0.19372 0.5131,-0.29058 0.80107,-0.29058c0.28797,0 0.54451,0.09948 0.76965,0.29843c0.22514,0.19896 0.3377,0.4686 0.3377,0.80892zM206.81729,167.73381v6.61271c0,0.3665 -0.12042,0.64399 -0.36127,0.83248c-0.23561,0.18325 -0.45551,0.27487 -0.6597,0.27487c-0.20419,0 -0.37959,-0.02094 -0.52619,-0.06283c-0.1466,-0.04189 -0.26702,-0.12042 -0.36126,-0.2356c-0.24608,-0.17278 -0.35603,-0.44766 -0.32985,-0.82463v-6.597h-0.80892c-0.31414,0 -0.55498,-0.09686 -0.72253,-0.29058c-0.16754,-0.19372 -0.25131,-0.411 -0.25131,-0.65185c0,-0.20419 0.07854,-0.41362 0.23561,-0.62829c0.16231,-0.21466 0.40838,-0.32199 0.73823,-0.32199h0.80892v-0.5576c0,-1.76967 0.50786,-2.86917 1.52359,-3.2985c0.32985,-0.12566 0.6597,-0.18849 0.98955,-0.18849c0.54452,0 1.09426,0.09163 1.64925,0.27488c0.41362,0.16754 0.62043,0.45289 0.62043,0.85604c0,0.20943 -0.0733,0.42147 -0.2199,0.63614c-0.14136,0.20943 -0.31938,0.31414 -0.53404,0.31414c-0.20943,0 -0.36388,-0.00524 -0.46336,-0.01571c-0.09948,-0.01047 -0.18587,-0.03403 -0.25917,-0.07068c-0.10472,-0.02094 -0.23561,-0.03141 -0.39268,-0.03141c-0.15707,0 -0.27226,0.02094 -0.34556,0.06283c-0.06806,0.04189 -0.12827,0.1178 -0.18063,0.22775c-0.09948,0.23561 -0.14922,0.8796 -0.14922,1.93198h-0.14136l1.22516,-0.14136c0.30891,0 0.55237,0.09686 0.73038,0.29058c0.17801,0.18849 0.26702,0.40838 0.26702,0.6597c0,0.24608 -0.08901,0.46598 -0.26702,0.6597c-0.17801,0.18849 -0.42147,0.28273 -0.73038,0.28273zM209.31293,170.67105c0,-0.59687 0.09686,-1.19636 0.29058,-1.79847c0.19372,-0.60211 0.48954,-1.14662 0.88746,-1.63354c0.85866,-1.04191 2.06025,-1.56286 3.60479,-1.56286c1.54977,0 2.75137,0.52357 3.60479,1.57071c0.78536,0.96337 1.17803,2.09691 1.17803,3.4006c0,1.31417 -0.39268,2.4477 -1.17803,3.4006c-0.85342,1.06285 -2.05502,1.59427 -3.60479,1.59427c-1.54453,0 -2.74613,-0.52881 -3.60479,-1.58642c-0.78536,-0.94243 -1.17804,-2.07072 -1.17804,-3.38489zM211.64544,170.67105c0,0.33508 0.04451,0.6885 0.13351,1.06023c0.09424,0.37174 0.25655,0.71468 0.48692,1.02882c0.44504,0.63876 1.055,0.95814 1.82988,0.95814c0.82201,0 1.42935,-0.31152 1.82203,-0.93457c0.40315,-0.63876 0.60472,-1.35082 0.60472,-2.13617c0,-0.8063 -0.19896,-1.50003 -0.59687,-2.0812c-0.41362,-0.64399 -1.02358,-0.96599 -1.82988,-0.96599c-0.77489,0 -1.38485,0.32723 -1.82988,0.9817c-0.41362,0.56022 -0.62043,1.25657 -0.62043,2.08905zM228.47249,174.39364c0,0.36127 -0.13089,0.62829 -0.39268,0.80107c-0.25655,0.17278 -0.47383,0.25917 -0.65185,0.25917c-0.17278,0 -0.33508,-0.01832 -0.48692,-0.05497c-0.15183,-0.04189 -0.27488,-0.12042 -0.36912,-0.23561c-0.24608,-0.16754 -0.36912,-0.42409 -0.36912,-0.76965h0.24346c-0.05759,0.52357 -0.64399,0.89792 -1.7592,1.12306c-0.33508,0.08377 -0.70159,0.12566 -1.0995,0.12566c-0.39268,0 -0.80892,-0.07068 -1.24872,-0.21204c-0.4398,-0.1466 -0.81939,-0.37959 -1.13877,-0.69897c-0.69635,-0.6597 -1.04453,-1.63616 -1.04453,-2.92938v-4.85351c0,-0.34032 0.11257,-0.60996 0.3377,-0.80892c0.22514,-0.19896 0.48168,-0.29843 0.76965,-0.29843c0.28797,0 0.54451,0.09948 0.76965,0.29843c0.22514,0.19896 0.3377,0.4686 0.3377,0.80892v4.97131c0,0.71206 0.12566,1.1885 0.37697,1.42935c0.26179,0.24608 0.67541,0.36912 1.24086,0.36912c0.96337,0 1.62569,-0.38483 1.98695,-1.15448c0.14136,-0.27226 0.21728,-0.58378 0.22775,-0.93457v-4.68073c0,-0.35079 0.12042,-0.62305 0.36127,-0.81677c0.24608,-0.19372 0.5131,-0.29058 0.80106,-0.29058c0.28797,0 0.54451,0.09948 0.76965,0.29843c0.22514,0.19896 0.3377,0.4686 0.3377,0.80892zM230.34683,166.9249c0,-0.32985 0.12042,-0.59164 0.36126,-0.78536c0.24084,-0.19896 0.48954,-0.29843 0.74609,-0.29843c0.51834,0 0.84557,0.18325 0.9817,0.54975c0.13613,0.3665 0.03926,0.81416 -0.29059,1.34296c-0.03665,-0.65446 0.29844,-1.17542 1.00526,-1.56286c0.60211,-0.32985 1.19636,-0.49477 1.78276,-0.49477c0.59163,0 1.09688,0.07592 1.51574,0.22775c0.41886,0.1466 0.80368,0.37697 1.15448,0.69111c0.70682,0.67017 1.06023,1.63616 1.06023,2.89797v4.90063c0,0.36127 -0.1309,0.62829 -0.39268,0.80107c-0.25655,0.17278 -0.51048,0.25917 -0.76179,0.25917c-0.28797,0 -0.54713,-0.09424 -0.7775,-0.28273c-0.22514,-0.18849 -0.3377,-0.44766 -0.3377,-0.7775v-4.99487c0,-0.60734 -0.15707,-1.06285 -0.47122,-1.36652c-0.2932,-0.28797 -0.6597,-0.43195 -1.0995,-0.43195c-0.63876,0 -1.18065,0.18063 -1.62569,0.5419c-0.42409,0.37697 -0.63614,0.9817 -0.63614,1.81417v4.43727c0,0.36127 -0.12566,0.62829 -0.37697,0.80107c-0.24608,0.17278 -0.50525,0.25917 -0.7775,0.25917c-0.2932,0 -0.54452,-0.09686 -0.75394,-0.29058c-0.20419,-0.19372 -0.30629,-0.45027 -0.30629,-0.76965zM246.93088,174.39364c-0.45027,0.83248 -1.41102,1.24872 -2.88226,1.24872c-1.34558,0 -2.40057,-0.53928 -3.16499,-1.61783c-0.63352,-0.93719 -0.95028,-2.06287 -0.95028,-3.37704c0,-2.23041 0.75918,-3.74092 2.27754,-4.53151c0.51834,-0.2932 1.03667,-0.4398 1.55501,-0.4398c0.52357,0 0.95552,0.03141 1.29584,0.09424c0.34032,0.05759 0.66755,0.17278 0.9817,0.34556c0.64923,0.32461 0.94766,0.54975 0.89531,0.67541l-0.16492,-3.67547c0,-0.37697 0.12566,-0.64923 0.37697,-0.81677c0.25131,-0.16754 0.51048,-0.25131 0.7775,-0.25131c0.28273,0 0.53666,0.08639 0.7618,0.25917c0.23037,0.16754 0.34556,0.43718 0.34556,0.80892v11.27772c0,0.35603 -0.12304,0.62305 -0.36912,0.80107c-0.24608,0.17278 -0.46336,0.25917 -0.65185,0.25917c-0.18325,0 -0.34556,-0.01832 -0.48692,-0.05497c-0.14136,-0.04189 -0.26702,-0.1178 -0.37697,-0.22775c-0.25131,-0.17278 -0.37697,-0.43195 -0.37697,-0.7775zM244.32348,173.71823c1.60213,0 2.40319,-1.0707 2.40319,-3.21211c0,-1.38223 -0.39268,-2.27492 -1.17803,-2.67807c-0.29844,-0.15183 -0.6597,-0.22775 -1.08379,-0.22775c-0.41886,0 -0.7618,0.07854 -1.02882,0.23561c-0.26179,0.15183 -0.48168,0.36388 -0.6597,0.63614c-0.34032,0.53404 -0.51048,1.21992 -0.51048,2.05763c0,1.25657 0.28535,2.1702 0.85604,2.74089c0.28797,0.29844 0.6885,0.44766 1.2016,0.44766zM260.84779,174.52715c0,0.74347 -0.68588,1.11521 -2.05763,1.11521c-0.9529,0 -1.6414,-0.28011 -2.06549,-0.84033c-0.41886,-0.54452 -0.64661,-1.41103 -0.68326,-2.59953v-4.44512h-0.60472c-0.30367,0 -0.54975,-0.09948 -0.73824,-0.29844c-0.18325,-0.19896 -0.27487,-0.41624 -0.27487,-0.65185c0,-0.21466 0.07853,-0.42933 0.2356,-0.64399c0.16231,-0.21466 0.42147,-0.32199 0.7775,-0.32199h0.71468l0.07068,-2.12046c0.05236,-0.31414 0.18849,-0.55237 0.40839,-0.71468c0.22514,-0.16231 0.46336,-0.24346 0.71467,-0.24346c0.25131,0 0.47383,0.08639 0.66755,0.25917c0.19372,0.16754 0.29058,0.41362 0.29058,0.73824v2.0812h1.17804c0.31938,0 0.56545,0.10733 0.73823,0.32199c0.17278,0.20943 0.25917,0.42409 0.25917,0.64399c0,0.27226 -0.09163,0.50001 -0.27488,0.68326c-0.17801,0.17801 -0.41886,0.26702 -0.72253,0.26702h-1.17804v3.67547c0,1.09426 0.02618,1.72517 0.07854,1.89271c0.05759,0.16231 0.13089,0.26964 0.2199,0.32199c0.08901,0.04712 0.21728,0.07068 0.38483,0.07068l0.89531,-0.07068c0.31414,0 0.55236,0.09948 0.71467,0.29844c0.16754,0.19896 0.25131,0.39268 0.25131,0.58116zM267.63801,169.35165c0,-0.59163 -0.15707,-1.04714 -0.47121,-1.36652c-0.27226,-0.25655 -0.60472,-0.38483 -0.9974,-0.38483c-0.38744,0 -0.7173,0.04451 -0.98955,0.13351c-0.27226,0.08901 -0.51048,0.23561 -0.71467,0.4398c-0.4398,0.41362 -0.6597,1.01573 -0.6597,1.80632v4.41371c0,0.36127 -0.12566,0.62829 -0.37697,0.80107c-0.24608,0.17278 -0.50524,0.25917 -0.7775,0.25917c-0.2932,0 -0.54452,-0.09686 -0.75394,-0.29058c-0.20419,-0.19372 -0.30629,-0.45027 -0.30629,-0.76965v-11.27772c0,-0.36127 0.12304,-0.62829 0.36912,-0.80107c0.24608,-0.17801 0.49215,-0.26702 0.73823,-0.26702c0.27226,0 0.52357,0.08639 0.75394,0.25917c0.23561,0.16754 0.35341,0.43718 0.35341,0.80892l-0.25131,3.76971c-0.11519,-0.15707 0.16754,-0.40577 0.84819,-0.74609c0.59687,-0.30891 1.1885,-0.46336 1.7749,-0.46336c0.59163,0 1.09427,0.0733 1.50789,0.2199c0.41362,0.1466 0.79845,0.36127 1.15448,0.64399c0.71206,0.67541 1.06808,1.64401 1.06808,2.90582v4.94775c0,0.36127 -0.13089,0.62829 -0.39268,0.80107c-0.25655,0.17278 -0.51048,0.25917 -0.76179,0.25917c-0.28797,0 -0.54713,-0.09424 -0.7775,-0.28273c-0.22514,-0.18849 -0.3377,-0.44766 -0.3377,-0.7775zM280.42091,170.38832c0,0.58116 -0.31676,0.89792 -0.95028,0.95028h-5.92159c0.04712,1.0995 0.56807,1.84821 1.56286,2.24612c0.26702,0.08901 0.58902,0.13351 0.96599,0.13351c0.77489,0 1.57857,-0.2932 2.41105,-0.8796c0.46598,-0.26702 0.87175,-0.23299 1.2173,0.1021c0.20419,0.2199 0.27226,0.43456 0.20419,0.64399c0,0.2932 -0.09686,0.52619 -0.29058,0.69897c-0.92148,0.91625 -2.13355,1.36914 -3.6362,1.35867c-1.38223,0 -2.49743,-0.45027 -3.34562,-1.35081c-0.94243,-0.92672 -1.41365,-2.1414 -1.41365,-3.64406c0,-1.37699 0.38483,-2.521 1.15448,-3.43201c0.82724,-1.0262 1.98172,-1.5393 3.46343,-1.5393c1.48171,0 2.62048,0.45551 3.4163,1.36652c0.74347,0.81154 1.13092,1.92675 1.16233,3.34562zM278.20621,169.56369c-0.02618,-0.4398 -0.25131,-0.89269 -0.67541,-1.35867c-0.38221,-0.40315 -0.94505,-0.60472 -1.68852,-0.60472c-0.61782,0 -1.14662,0.23037 -1.58642,0.69111c-0.40838,0.47645 -0.62567,0.90054 -0.65185,1.27228zM288.7192,171.35431v2.99221c0,0.3665 -0.12042,0.64399 -0.36127,0.83248c-0.23561,0.18325 -0.49216,0.27487 -0.76965,0.27487c-0.27226,0 -0.52357,-0.09424 -0.75394,-0.28273c-0.22514,-0.18849 -0.3377,-0.46336 -0.3377,-0.82462v-11.18349c0,-0.38744 0.11518,-0.67017 0.34556,-0.84818c0.23037,-0.17801 0.44504,-0.26702 0.64399,-0.26702c0.19896,0 0.36912,0.01309 0.51048,0.03927c0.1466,0.02618 0.28011,0.10472 0.40053,0.23561c0.21466,0.17801 0.322,0.45812 0.322,0.84033v5.78023l3.29065,-2.7566c0.20419,-0.23037 0.44766,-0.34556 0.73038,-0.34556c0.27749,0 0.52357,0.1021 0.73824,0.30629c0.21466,0.19896 0.32199,0.41362 0.32199,0.64399c0,0.34032 -0.11257,0.59425 -0.3377,0.7618l-3.07074,2.56812l3.57337,3.61264c0.16754,0.16754 0.25131,0.36388 0.25131,0.58902c0,0.22514 -0.03665,0.40053 -0.10995,0.52619c-0.06806,0.12566 -0.15969,0.23561 -0.27487,0.32985c-0.23037,0.18325 -0.47645,0.27487 -0.73824,0.27487c-0.26179,0 -0.51048,-0.1178 -0.74609,-0.35341zM303.78452,170.38832c0,0.58116 -0.31676,0.89792 -0.95028,0.95028h-5.92159c0.04712,1.0995 0.56807,1.84821 1.56286,2.24612c0.26702,0.08901 0.58902,0.13351 0.96599,0.13351c0.77489,0 1.57857,-0.2932 2.41105,-0.8796c0.46598,-0.26702 0.87175,-0.23299 1.2173,0.1021c0.20419,0.2199 0.27226,0.43456 0.2042,0.64399c0,0.2932 -0.09686,0.52619 -0.29059,0.69897c-0.92148,0.91625 -2.13355,1.36914 -3.6362,1.35867c-1.38223,0 -2.49743,-0.45027 -3.34562,-1.35081c-0.94243,-0.92672 -1.41365,-2.1414 -1.41365,-3.64406c0,-1.37699 0.38483,-2.521 1.15448,-3.43201c0.82724,-1.0262 1.98172,-1.5393 3.46343,-1.5393c1.48171,0 2.62048,0.45551 3.4163,1.36652c0.74347,0.81154 1.13092,1.92675 1.16233,3.34562zM301.56981,169.56369c-0.02618,-0.4398 -0.25131,-0.89269 -0.67541,-1.35867c-0.38221,-0.40315 -0.94505,-0.60472 -1.68852,-0.60472c-0.61782,0 -1.14662,0.23037 -1.58642,0.69111c-0.40838,0.47645 -0.62567,0.90054 -0.65185,1.27228zM307.58704,174.9748l-3.32206,-7.5944c-0.0733,-0.14136 -0.10995,-0.2932 -0.10995,-0.45551c0,-0.16231 0.04188,-0.31938 0.12565,-0.47122c0.08377,-0.15183 0.18587,-0.26179 0.30629,-0.32985c0.22514,-0.14136 0.46074,-0.2356 0.70682,-0.28273c0.53404,0 0.90578,0.23822 1.11521,0.71467l2.37178,5.72526l2.34036,-5.72526c0.20943,-0.47645 0.49739,-0.71467 0.86389,-0.71467c0.37174,0 0.67279,0.10472 0.90316,0.31414c0.23037,0.20943 0.34556,0.42933 0.34556,0.6597c0,0.23037 -0.03142,0.41362 -0.09424,0.54975l-4.43727,10.79866c-0.2199,0.47121 -0.56546,0.70682 -1.03667,0.70682c-0.27226,0 -0.5131,-0.0733 -0.72253,-0.2199c-0.28797,-0.25131 -0.43195,-0.50263 -0.43195,-0.75394c0,-0.25131 0.04189,-0.42671 0.12566,-0.52619z" fill="#373737" stroke-width="1" stroke-linecap="square"/><path d="M175.06256,198.92937c0,0.74347 -0.68588,1.11521 -2.05764,1.11521c-0.9529,0 -1.6414,-0.28011 -2.06549,-0.84033c-0.41886,-0.54452 -0.64661,-1.41102 -0.68326,-2.59953v-4.44512h-0.60472c-0.30367,0 -0.54975,-0.09948 -0.73823,-0.29844c-0.18325,-0.19896 -0.27488,-0.41624 -0.27488,-0.65184c0,-0.21466 0.07854,-0.42933 0.23561,-0.64399c0.16231,-0.21466 0.42147,-0.322 0.7775,-0.322h0.71468l0.07068,-2.12046c0.05236,-0.31414 0.18849,-0.55237 0.40838,-0.71468c0.22514,-0.16231 0.46336,-0.24346 0.71468,-0.24346c0.25131,0 0.47383,0.08639 0.66755,0.25917c0.19372,0.16754 0.29058,0.41362 0.29058,0.73824v2.0812h1.17803c0.31938,0 0.56546,0.10733 0.73824,0.322c0.17278,0.20943 0.25917,0.42409 0.25917,0.64399c0,0.27226 -0.09163,0.50001 -0.27488,0.68326c-0.17801,0.17801 -0.41886,0.26702 -0.72253,0.26702h-1.17803v3.67547c0,1.09426 0.02618,1.72517 0.07853,1.89271c0.05759,0.16231 0.13089,0.26964 0.2199,0.32199c0.08901,0.04712 0.21728,0.07068 0.38483,0.07068l0.89531,-0.07068c0.31414,0 0.55237,0.09948 0.71468,0.29844c0.16754,0.19896 0.25131,0.39268 0.25131,0.58116zM175.17721,195.07327c0,-0.59687 0.09686,-1.19636 0.29058,-1.79847c0.19372,-0.60211 0.48954,-1.14662 0.88746,-1.63354c0.85866,-1.04191 2.06025,-1.56286 3.60479,-1.56286c1.54977,0 2.75137,0.52357 3.60479,1.57072c0.78536,0.96337 1.17803,2.0969 1.17803,3.40059c0,1.31417 -0.39268,2.4477 -1.17803,3.4006c-0.85342,1.06285 -2.05502,1.59428 -3.60479,1.59428c-1.54453,0 -2.74613,-0.52881 -3.60479,-1.58642c-0.78536,-0.94243 -1.17804,-2.07072 -1.17804,-3.38489zM177.50972,195.07327c0,0.33508 0.04451,0.6885 0.13351,1.06023c0.09424,0.37174 0.25655,0.71468 0.48692,1.02882c0.44504,0.63876 1.055,0.95814 1.82988,0.95814c0.82201,0 1.42935,-0.31152 1.82203,-0.93457c0.40315,-0.63876 0.60472,-1.35082 0.60472,-2.13617c0,-0.8063 -0.19896,-1.50003 -0.59687,-2.0812c-0.41362,-0.64399 -1.02358,-0.96599 -1.82988,-0.96599c-0.77489,0 -1.38485,0.32723 -1.82988,0.9817c-0.41362,0.56022 -0.62043,1.25657 -0.62043,2.08905zM196.11522,198.92937c0,0.74347 -0.68588,1.11521 -2.05764,1.11521c-0.9529,0 -1.64139,-0.28011 -2.06549,-0.84033c-0.41886,-0.54452 -0.64661,-1.41102 -0.68326,-2.59953v-4.44512h-0.60472c-0.30367,0 -0.54975,-0.09948 -0.73823,-0.29844c-0.18325,-0.19896 -0.27488,-0.41624 -0.27488,-0.65184c0,-0.21466 0.07854,-0.42933 0.23561,-0.64399c0.16231,-0.21466 0.42147,-0.322 0.7775,-0.322h0.71468l0.07068,-2.12046c0.05236,-0.31414 0.18849,-0.55237 0.40838,-0.71468c0.22514,-0.16231 0.46336,-0.24346 0.71468,-0.24346c0.25131,0 0.47383,0.08639 0.66755,0.25917c0.19372,0.16754 0.29058,0.41362 0.29058,0.73824v2.0812h1.17803c0.31938,0 0.56546,0.10733 0.73824,0.322c0.17278,0.20943 0.25917,0.42409 0.25917,0.64399c0,0.27226 -0.09162,0.50001 -0.27487,0.68326c-0.17801,0.17801 -0.41886,0.26702 -0.72253,0.26702h-1.17803v3.67547c0,1.09426 0.02618,1.72517 0.07853,1.89271c0.05759,0.16231 0.13089,0.26964 0.2199,0.32199c0.08901,0.04712 0.21728,0.07068 0.38483,0.07068l0.89531,-0.07068c0.31414,0 0.55237,0.09948 0.71468,0.29844c0.16754,0.19896 0.25131,0.39268 0.25131,0.58116zM202.90543,193.75387c0,-0.59163 -0.15707,-1.04714 -0.47122,-1.36652c-0.27226,-0.25655 -0.60472,-0.38482 -0.9974,-0.38482c-0.38744,0 -0.71729,0.0445 -0.98955,0.13351c-0.27226,0.08901 -0.51048,0.23561 -0.71468,0.4398c-0.4398,0.41362 -0.6597,1.01573 -0.6597,1.80632v4.41371c0,0.36127 -0.12566,0.62828 -0.37697,0.80106c-0.24608,0.17278 -0.50525,0.25917 -0.7775,0.25917c-0.2932,0 -0.54452,-0.09686 -0.75394,-0.29058c-0.20419,-0.19372 -0.30629,-0.45027 -0.30629,-0.76965v-11.27773c0,-0.36127 0.12304,-0.62829 0.36912,-0.80107c0.24608,-0.17801 0.49216,-0.26702 0.73824,-0.26702c0.27226,0 0.52357,0.08639 0.75394,0.25917c0.23561,0.16754 0.35341,0.43718 0.35341,0.80892l-0.25131,3.76971c-0.11519,-0.15707 0.16754,-0.40577 0.84818,-0.74609c0.59687,-0.30891 1.18851,-0.46336 1.77491,-0.46336c0.59163,0 1.09426,0.0733 1.50788,0.2199c0.41362,0.1466 0.79845,0.36127 1.15448,0.644c0.71206,0.67541 1.06809,1.64401 1.06809,2.90582v4.94775c0,0.36127 -0.13089,0.62828 -0.39268,0.80106c-0.25655,0.17278 -0.51048,0.25917 -0.7618,0.25917c-0.28797,0 -0.54713,-0.09424 -0.7775,-0.28273c-0.22514,-0.18849 -0.3377,-0.44765 -0.3377,-0.7775zM215.68834,194.79054c0,0.58116 -0.31676,0.89792 -0.95028,0.95028h-5.92159c0.04712,1.0995 0.56807,1.84821 1.56286,2.24612c0.26702,0.08901 0.58902,0.13351 0.96599,0.13351c0.77489,0 1.57857,-0.2932 2.41105,-0.8796c0.46598,-0.26702 0.87175,-0.23299 1.2173,0.1021c0.20419,0.2199 0.27226,0.43456 0.20419,0.64399c0,0.2932 -0.09686,0.52619 -0.29058,0.69897c-0.92148,0.91625 -2.13355,1.36914 -3.6362,1.35867c-1.38223,0 -2.49743,-0.45027 -3.34562,-1.35081c-0.94243,-0.92672 -1.41364,-2.14141 -1.41364,-3.64406c0,-1.37699 0.38482,-2.521 1.15447,-3.43201c0.82724,-1.0262 1.98172,-1.5393 3.46343,-1.5393c1.48171,0 2.62048,0.45551 3.4163,1.36652c0.74347,0.81154 1.13092,1.92675 1.16233,3.34562zM213.47363,193.96591c-0.02618,-0.4398 -0.25131,-0.89269 -0.67541,-1.35867c-0.38221,-0.40315 -0.94505,-0.60472 -1.68852,-0.60472c-0.61782,0 -1.14662,0.23037 -1.58642,0.69111c-0.40838,0.47645 -0.62567,0.90054 -0.65184,1.27228zM221.90542,187.58096c0,-0.35603 0.12042,-0.64138 0.36127,-0.85604c0.24084,-0.21466 0.52095,-0.322 0.84033,-0.322h6.19647c0.37174,0 0.64137,0.1178 0.80892,0.35341c0.16754,0.23037 0.25131,0.47122 0.25131,0.72253c0,0.25131 -0.08377,0.49477 -0.25131,0.73038c-0.16754,0.23037 -0.43718,0.34556 -0.80892,0.34556h-4.94775v3.25923h4.7357c0.3665,0 0.63876,0.11518 0.81677,0.34556c0.17801,0.23037 0.26702,0.47907 0.26702,0.74609c0,0.26179 -0.1021,0.50001 -0.30629,0.71468c-0.19896,0.21466 -0.45813,0.322 -0.7775,0.322h-4.7357v4.7357c0,0.34556 -0.11257,0.62829 -0.3377,0.84819c-0.57593,0.41886 -1.1283,0.4398 -1.65711,0.06283c-0.25655,-0.17278 -0.40838,-0.4686 -0.45551,-0.88746zM233.59807,192.13603c0.17278,-1.37176 0.9817,-2.05763 2.42675,-2.05763c0.35603,0 0.62829,0.10995 0.81677,0.32985c0.19372,0.21466 0.29058,0.44766 0.29058,0.69897c0,0.25131 -0.09686,0.48692 -0.29058,0.70682c-0.18849,0.21466 -0.45551,0.32199 -0.80107,0.32199c-0.34032,0 -0.63614,0.04974 -0.88745,0.14922c-0.25131,0.09948 -0.45289,0.23822 -0.60472,0.41624c-0.35603,0.43456 -0.53404,1.01573 -0.53404,1.74349v4.35088c0,0.36127 -0.12565,0.62828 -0.37697,0.80106c-0.24608,0.17278 -0.46336,0.25917 -0.65185,0.25917c-0.18849,0 -0.34818,-0.01833 -0.47907,-0.05498c-0.12566,-0.04189 -0.24346,-0.1178 -0.35341,-0.22775c-0.23561,-0.15183 -0.35341,-0.411 -0.35341,-0.7775v-7.44519c0,-0.31938 0.10995,-0.58378 0.32985,-0.79321c0.22514,-0.20943 0.50001,-0.31414 0.82462,-0.31414c0.32461,0 0.58116,0.10995 0.76965,0.32985c0.19372,0.21466 0.29058,0.47383 0.29058,0.7775zM242.60991,193.68319c0.32985,0 0.51572,0 0.55761,0v-0.29844c0,-0.92148 -0.53143,-1.38223 -1.59428,-1.38223c-0.54975,0 -0.93981,0.0445 -1.17018,0.13351c-0.47121,0.17278 -0.82462,0.33247 -1.06023,0.47907c-0.23561,0.14136 -0.46336,0.21205 -0.68326,0.21205c-0.21466,0 -0.41886,-0.08377 -0.61258,-0.25131c-0.19372,-0.16754 -0.29058,-0.39006 -0.29058,-0.66755c0,-0.25131 0.11519,-0.47645 0.34556,-0.67541c0.80107,-0.76965 1.96601,-1.15448 3.49484,-1.15448c1.81679,0 2.99221,0.63352 3.52625,1.90056c0.17278,0.4398 0.25917,0.93981 0.25917,1.50003l-0.04712,5.34043c0,0.33508 -0.11518,0.59164 -0.34556,0.76965c-0.23037,0.17801 -0.47383,0.26702 -0.73038,0.26702c-0.25655,0 -0.50263,-0.07592 -0.73823,-0.22775c-0.23561,-0.15707 -0.35341,-0.42147 -0.35341,-0.79321h0.2356c-0.05759,0.49216 -0.62829,0.85342 -1.71208,1.08379c-0.31938,0.08377 -0.68326,0.12566 -1.09164,0.12566c-0.40838,0 -0.81939,-0.06283 -1.23301,-0.18849c-0.40838,-0.12042 -0.77227,-0.31414 -1.09165,-0.58116c-0.67017,-0.56022 -1.00525,-1.31417 -1.00525,-2.26183c0,-2.21994 1.78014,-3.32991 5.34043,-3.32991zM243.26176,195.51307c-0.01571,0.06283 -0.18849,0.09424 -0.51834,0.09424c-0.32985,0 -0.65708,0.00524 -0.9817,0.01571c-0.32461,0.00524 -0.62567,0.03927 -0.90316,0.1021c-0.27226,0.05759 -0.51572,0.1466 -0.73038,0.26702c-0.38744,0.20419 -0.59163,0.53928 -0.61258,1.00526c0,0.34032 0.14398,0.60996 0.43195,0.80892c0.24084,0.19896 0.59949,0.30367 1.07594,0.31414c0.5864,0 1.09165,-0.18587 1.51574,-0.5576c0.37697,-0.35079 0.5864,-0.89792 0.62829,-1.6414zM247.21356,191.32712c0,-0.32985 0.12042,-0.59163 0.36127,-0.78536c0.24084,-0.19896 0.48954,-0.29844 0.74609,-0.29844c0.51834,0 0.84557,0.18325 0.9817,0.54975c0.13613,0.3665 0.03927,0.81415 -0.29058,1.34296c-0.03665,-0.65446 0.29843,-1.17542 1.00525,-1.56286c0.60211,-0.32985 1.19636,-0.49477 1.78276,-0.49477c0.59163,0 1.09688,0.07592 1.51574,0.22775c0.41886,0.1466 0.80368,0.37697 1.15448,0.69111c0.70682,0.67017 1.06023,1.63616 1.06023,2.89797v4.90063c0,0.36127 -0.13089,0.62828 -0.39268,0.80106c-0.25655,0.17278 -0.51048,0.25917 -0.7618,0.25917c-0.28797,0 -0.54713,-0.09424 -0.7775,-0.28273c-0.22514,-0.18849 -0.3377,-0.44765 -0.3377,-0.7775v-4.99487c0,-0.60734 -0.15707,-1.06285 -0.47122,-1.36652c-0.2932,-0.28797 -0.6597,-0.43195 -1.0995,-0.43195c-0.63876,0 -1.18065,0.18063 -1.62569,0.5419c-0.42409,0.37697 -0.63614,0.9817 -0.63614,1.81417v4.43727c0,0.36127 -0.12566,0.62828 -0.37697,0.80106c-0.24608,0.17278 -0.50525,0.25917 -0.7775,0.25917c-0.2932,0 -0.54452,-0.09686 -0.75394,-0.29058c-0.20419,-0.19372 -0.30629,-0.45027 -0.30629,-0.76965zM259.71376,195.75653v2.99221c0,0.3665 -0.12042,0.64399 -0.36127,0.83248c-0.23561,0.18325 -0.49216,0.27488 -0.76965,0.27488c-0.27226,0 -0.52357,-0.09424 -0.75394,-0.28273c-0.22514,-0.18849 -0.3377,-0.46336 -0.3377,-0.82462v-11.18348c0,-0.38744 0.11518,-0.67017 0.34556,-0.84819c0.23037,-0.17801 0.44504,-0.26702 0.64399,-0.26702c0.19896,0 0.36912,0.01309 0.51048,0.03927c0.1466,0.02618 0.28011,0.10472 0.40053,0.23561c0.21466,0.17801 0.32199,0.45813 0.32199,0.84033v5.78023l3.29065,-2.7566c0.20419,-0.23037 0.44766,-0.34556 0.73038,-0.34556c0.27749,0 0.52357,0.1021 0.73824,0.30629c0.21466,0.19896 0.32199,0.41362 0.32199,0.64399c0,0.34032 -0.11257,0.59425 -0.3377,0.7618l-3.07074,2.56812l3.57337,3.61264c0.16754,0.16754 0.25131,0.36388 0.25131,0.58902c0,0.22514 -0.03665,0.40053 -0.10995,0.52619c-0.06806,0.12566 -0.15969,0.23561 -0.27488,0.32985c-0.23037,0.18325 -0.47645,0.27488 -0.73824,0.27488c-0.26179,0 -0.51048,-0.1178 -0.74609,-0.35341zM270.18043,195.04971c0,-1.38223 0.3953,-2.53409 1.18589,-3.45557c0.86913,-1.01049 2.00004,-1.51574 3.39274,-1.51574c1.1728,0 2.0812,0.25393 2.72519,0.76179c0.27749,0.19896 0.41624,0.44766 0.41624,0.74609c0,0.2932 -0.08639,0.53142 -0.25917,0.71467c-0.16754,0.18325 -0.3665,0.27488 -0.59687,0.27488c-0.23037,0 -0.40577,-0.04712 -0.52619,-0.14136c-0.50786,-0.28797 -1.04976,-0.42671 -1.62569,-0.41624c-0.70682,0 -1.26181,0.2644 -1.66496,0.79321c-0.47645,0.57593 -0.71468,1.32202 -0.71468,2.23827c0,0.85866 0.17278,1.57857 0.51834,2.15973c0.37697,0.60734 0.9974,0.91101 1.8613,0.91101c0.49216,0 1.10474,-0.1754 1.83774,-0.52619c0.40315,-0.23561 0.75656,-0.17801 1.06023,0.17278c0.16754,0.16754 0.25131,0.39529 0.25131,0.68326c0,0.28273 -0.13613,0.53404 -0.40839,0.75394c-0.27226,0.2199 -0.57069,0.38221 -0.89531,0.48692c-0.71729,0.24608 -1.42149,0.3665 -2.11261,0.36126c-0.68588,-0.00524 -1.31155,-0.13613 -1.877,-0.39268c-0.56546,-0.26179 -1.03667,-0.64137 -1.41364,-1.13877c-0.76965,-0.92148 -1.15448,-2.07858 -1.15448,-3.47128zM283.90641,193.68319c0.32985,0 0.51572,0 0.55761,0v-0.29844c0,-0.92148 -0.53143,-1.38223 -1.59428,-1.38223c-0.54975,0 -0.93981,0.0445 -1.17018,0.13351c-0.47121,0.17278 -0.82462,0.33247 -1.06023,0.47907c-0.23561,0.14136 -0.46336,0.21205 -0.68326,0.21205c-0.21466,0 -0.41886,-0.08377 -0.61258,-0.25131c-0.19372,-0.16754 -0.29058,-0.39006 -0.29058,-0.66755c0,-0.25131 0.11519,-0.47645 0.34556,-0.67541c0.80107,-0.76965 1.96601,-1.15448 3.49484,-1.15448c1.81679,0 2.99221,0.63352 3.52625,1.90056c0.17278,0.4398 0.25917,0.93981 0.25917,1.50003l-0.04712,5.34043c0,0.33508 -0.11519,0.59164 -0.34556,0.76965c-0.23037,0.17801 -0.47383,0.26702 -0.73038,0.26702c-0.25655,0 -0.50263,-0.07592 -0.73823,-0.22775c-0.23561,-0.15707 -0.35341,-0.42147 -0.35341,-0.79321h0.2356c-0.05759,0.49216 -0.62828,0.85342 -1.71208,1.08379c-0.31938,0.08377 -0.68326,0.12566 -1.09165,0.12566c-0.40838,0 -0.81939,-0.06283 -1.23301,-0.18849c-0.40838,-0.12042 -0.77227,-0.31414 -1.09164,-0.58116c-0.67017,-0.56022 -1.00526,-1.31417 -1.00526,-2.26183c0,-2.21994 1.78014,-3.32991 5.34043,-3.32991zM284.55826,195.51307c-0.01571,0.06283 -0.18849,0.09424 -0.51834,0.09424c-0.32985,0 -0.65708,0.00524 -0.9817,0.01571c-0.32461,0.00524 -0.62567,0.03927 -0.90316,0.1021c-0.27226,0.05759 -0.51572,0.1466 -0.73038,0.26702c-0.38744,0.20419 -0.59164,0.53928 -0.61258,1.00526c0,0.34032 0.14398,0.60996 0.43195,0.80892c0.24084,0.19896 0.59949,0.30367 1.07594,0.31414c0.5864,0 1.09164,-0.18587 1.51574,-0.5576c0.37697,-0.35079 0.5864,-0.89792 0.62829,-1.6414zM293.74841,198.53669c-0.18325,0.42409 -0.39529,0.75132 -0.63614,0.9817c-0.23561,0.22514 -0.56807,0.3377 -0.9974,0.3377c-0.43456,0 -0.77489,-0.10995 -1.02096,-0.32985c-0.24084,-0.22514 -0.43195,-0.56022 -0.57331,-1.00526l-2.87441,-6.75407c-0.25131,-0.46074 -0.14136,-0.86389 0.32985,-1.20945c0.20419,-0.15707 0.42933,-0.26179 0.67541,-0.31414c0.57593,0 0.93719,0.2644 1.08379,0.79321l2.37178,5.68598l2.29324,-5.70169c0.16754,-0.46598 0.48954,-0.72515 0.96599,-0.7775c0.48169,0 0.84033,0.19634 1.07594,0.58902c0.12042,0.18325 0.16492,0.34818 0.13351,0.49477c-0.02618,0.1466 -0.05759,0.28011 -0.09424,0.40053zM306.18478,194.79054c0,0.58116 -0.31676,0.89792 -0.95028,0.95028h-5.92159c0.04712,1.0995 0.56807,1.84821 1.56286,2.24612c0.26702,0.08901 0.58902,0.13351 0.96599,0.13351c0.77489,0 1.57857,-0.2932 2.41105,-0.8796c0.46598,-0.26702 0.87175,-0.23299 1.2173,0.1021c0.20419,0.2199 0.27226,0.43456 0.20419,0.64399c0,0.2932 -0.09686,0.52619 -0.29058,0.69897c-0.92148,0.91625 -2.13355,1.36914 -3.6362,1.35867c-1.38223,0 -2.49744,-0.45027 -3.34562,-1.35081c-0.94243,-0.92672 -1.41364,-2.14141 -1.41364,-3.64406c0,-1.37699 0.38483,-2.521 1.15448,-3.43201c0.82724,-1.0262 1.98172,-1.5393 3.46342,-1.5393c1.48171,0 2.62048,0.45551 3.4163,1.36652c0.74347,0.81154 1.13092,1.92675 1.16233,3.34562zM303.97007,193.96591c-0.02618,-0.4398 -0.25131,-0.89269 -0.67541,-1.35867c-0.38221,-0.40315 -0.94505,-0.60472 -1.68852,-0.60472c-0.61782,0 -1.14662,0.23037 -1.58642,0.69111c-0.40838,0.47645 -0.62567,0.90054 -0.65185,1.27228zM310.0187,197.42934c0.4398,0 0.7618,0.1021 0.96599,0.30629c0.25131,0.33508 0.37697,0.60734 0.37697,0.81677c0,0.20419 -0.02618,0.38483 -0.07853,0.5419c-0.04712,0.15707 -0.1466,0.30367 -0.29843,0.4398c-0.26702,0.21466 -0.58902,0.322 -0.96599,0.322c-0.42933,0 -0.733,-0.09948 -0.91101,-0.29844c-0.31414,-0.25131 -0.47122,-0.5131 -0.47122,-0.78536c0,-0.27749 0.03142,-0.47121 0.09424,-0.58116c0.06806,-0.11519 0.14398,-0.23561 0.22775,-0.36127c0.27749,-0.26702 0.6309,-0.40053 1.06023,-0.40053zM308.70716,187.06263c0,-0.3665 0.13351,-0.64399 0.40053,-0.83248c0.27226,-0.18849 0.55236,-0.28273 0.84033,-0.28273c0.2932,0 0.57331,0.09424 0.84033,0.28273c0.27226,0.18849 0.40838,0.46598 0.40838,0.83248l-0.25131,8.52112c-0.02094,0.32985 -0.12565,0.60211 -0.31414,0.81677c-0.18849,0.20943 -0.41362,0.31414 -0.67541,0.31414c-0.26179,0 -0.48954,-0.1021 -0.68326,-0.30629c-0.19372,-0.20943 -0.29058,-0.48954 -0.29058,-0.84033z" fill="#373737" stroke-width="1" stroke-linecap="square"/></g></g></svg>