<svg version="1.1" xmlns="http://www.w3.org/2000/svg" xmlns:xlink="http://www.w3.org/1999/xlink" width="207.20721" height="199.6997" viewBox="0,0,207.20721,199.6997"><defs><linearGradient x1="96.96336" y1="145.03662" x2="96.96336" y2="288.28867" gradientUnits="userSpaceOnUse" id="color-1"><stop offset="0" stop-color="#b8cd91" stop-opacity="0"/><stop offset="1" stop-color="#b8cd91"/></linearGradient><linearGradient x1="147.70335" y1="151.41318" x2="147.70335" y2="277.7001" gradientUnits="userSpaceOnUse" id="color-2"><stop offset="0" stop-color="#c0ccaa" stop-opacity="0"/><stop offset="1" stop-color="#c0ccaa"/></linearGradient><linearGradient x1="119.87171" y1="150.03576" x2="119.87171" y2="289.09795" gradientUnits="userSpaceOnUse" id="color-3"><stop offset="0" stop-color="#c0ccaa" stop-opacity="0"/><stop offset="1" stop-color="#c0ccaa"/></linearGradient><linearGradient x1="117.19736" y1="160.71661" x2="117.19736" y2="296.7166" gradientUnits="userSpaceOnUse" id="color-4"><stop offset="0" stop-color="#c0ccaa" stop-opacity="0"/><stop offset="1" stop-color="#c0ccaa"/></linearGradient></defs><g transform="translate(-29.22297,-116.21621)"><g data-paper-data="{&quot;isPaintingLayer&quot;:true}" fill-rule="nonzero" stroke="none" stroke-width="0" stroke-linecap="butt" stroke-linejoin="miter" stroke-miterlimit="10" stroke-dasharray="" stroke-dashoffset="0" style="mix-blend-mode: normal"><path d="" fill="none"/><path d="M99.84021,288.28867l-46.79141,-129.67904l37.56654,-13.55494c1.32514,-0.03572 2.64716,-0.02729 3.96125,0.10582l46.30131,128.32075z" data-paper-data="{&quot;index&quot;:null}" fill="url(#color-1)"/><path d="M126.18437,277.7001v-126.28691c6.41027,0.97633 12.89714,1.77184 19.21079,2.58218c7.90115,1.01409 15.85378,1.2526 23.82719,1.1755v122.52923z" fill="url(#color-2)"/><path d="M73.55782,273.11038l44.40837,-123.07463c9.0099,1.67142 18.39669,2.80033 27.42899,3.9596c6.89773,0.88531 13.83471,1.17952 20.79049,1.18867l-48.31946,133.91392z" fill="url(#color-3)"/><path d="M95.67838,296.7166v-136h43.03798v136z" fill="url(#color-4)"/><path d="M236.43018,216.06606c0,55.14555 -46.38491,99.84985 -103.6036,99.84985c-57.21869,0 -103.6036,-44.7043 -103.6036,-99.84985c0,-55.14555 46.38491,-99.84985 103.6036,-99.84985c57.21869,0 103.6036,44.7043 103.6036,99.84985z" fill="none"/></g></g></svg>