<svg version="1.1" xmlns="http://www.w3.org/2000/svg" xmlns:xlink="http://www.w3.org/1999/xlink" width="504.59734" height="342.51097" viewBox="0,0,504.59734,342.51097"><g transform="translate(12.29868,-8.74452)"><g data-paper-data="{&quot;isPaintingLayer&quot;:true}" fill-rule="nonzero" stroke-miterlimit="10" stroke-dasharray="" stroke-dashoffset="0" style="mix-blend-mode: normal"><path d="M232.07077,221.50479v0v0v0v0v0v0c2.56488,4.76485 -2.66087,11.88536 -3.09446,12.51139c-0.74837,0.73018 0,0 -0.0126,0.01785c0,0 -3.75536,4.05474 -6.23931,2.67964c-1.05788,-0.58382 -1.53569,-1.61907 -1.55994,-2.97528c-0.46416,-0.14834 -1.10617,-0.46287 -1.39353,-1.14255c-0.47885,-1.12996 1.93244,-2.00311 1.93244,-2.00311v0.0168c0.11056,-0.34929 0.22951,-0.70801 0.37366,-1.08051c0.81473,-2.1083 2.82285,-6.23045 2.82285,-6.23045c0,0 4.57324,-6.61973 7.1709,-1.79377z" fill="#706058" stroke="none" stroke-width="0" stroke-linecap="round" stroke-linejoin="round"/><path d="M261.02445,228.54424v0v0v0v0v0v0c0,0 2.41141,0.87537 1.92929,2.00428c-0.28526,0.68492 -0.92936,0.99841 -1.39143,1.14885c-0.02426,1.34979 -0.50101,2.38925 -1.55983,2.97318c-1.61663,0.89321 -3.64597,-0.42602 -4.8711,-1.45918c-0.5767,-0.38823 -1.22407,-0.81018 -1.79762,-1.14045c-1.44728,-0.83432 -4.8901,-6.48935 -4.23224,-9.66767c0.65786,-3.17831 7.61814,0 7.61814,0c1.61977,1.55714 3.37121,3.6181 3.93217,5.0732c0.14216,0.37343 0.26322,0.73542 0.37261,1.0889z" fill="#706058" stroke="none" stroke-width="0" stroke-linecap="round" stroke-linejoin="round"/><path d="M234.85571,233.49402v0v0v0v0v0v0c4.54898,1.39557 6.34451,2.15563 5.70355,5.07469c-0.48095,2.18868 1.83879,6.99483 1.83879,6.99483c0,0 1.12622,0.26009 0.73986,0.9914c-0.38626,0.73967 -3.1796,1.23119 -6.80027,1.07611c-3.61962,-0.15422 -6.46358,-0.12032 -6.87398,-0.82026c-0.41157,-0.69647 0.3431,-1.02098 0.3431,-1.02098c0,0 0.13995,-1.65152 0.14414,-3.42665c0,-1.77522 -0.35046,-6.63218 -0.35046,-6.63218c0,0 0.70627,-3.63253 5.25526,-2.23696z" fill="#706058" stroke="none" stroke-width="0" stroke-linecap="butt" stroke-linejoin="miter"/><path d="M246.60184,234.09571v0v0v0v0v0v0c3.42066,-1.21661 5.5004,-1.41836 6.37716,0.00163c0,0 1.71459,2.49566 2.57759,5.09538c0.86103,2.59817 1.47773,5.58649 1.47773,5.58649c0,0 1.14314,0.47393 1.13462,0.94124c-0.00629,0.46731 -0.99036,1.38147 -6.17925,1.49543c-5.18691,0.10896 -7.03503,-0.55428 -7.19504,-1.16589c-0.16421,-0.6108 0.4441,-0.6649 0.4441,-0.6649c0,0 0.0716,-0.66323 0,-2.26773c-0.07044,-1.60441 -0.92517,-4.55918 -0.92517,-4.55918c0,0 -1.13252,-3.24577 2.28825,-4.46248z" fill="#706058" stroke="none" stroke-width="0" stroke-linecap="butt" stroke-linejoin="miter"/><path d="M238.78893,217.28386v0v0v0v0v0v0c9.45378,-0.73123 13.06489,4.7512 13.06278,4.75016c0.76947,1.41603 1.72509,3.41401 2.12195,5.23834c0.10939,0.50393 0.1768,1.07095 0.19359,1.67913c0,0 -0.05574,2.1125 -0.261,2.75743c-0.86091,2.7018 -2.26295,5.65924 -5.6162,6.99643c-5.2647,2.1083 -10.8683,1.84952 -16.69092,-0.92062c-1.96497,-0.93216 -3.1291,-2.5208 -3.75746,-4.32927c-0.44842,-1.30151 -0.63991,-2.99848 -0.63991,-2.99848c-0.27582,-2.82273 0.21785,-5.57818 0.48095,-6.77648c0,0 1.6536,-5.66553 11.1062,-6.39664z" fill="#706058" stroke="none" stroke-width="0" stroke-linecap="butt" stroke-linejoin="miter"/><path d="M189.87097,201.19214v0v0v0v0v0v0c-0.05574,-0.0968 -1.68403,-2.81632 -1.68403,-2.81749c-4.51633,-7.24985 -5.5173,-23.64652 -5.12475,-28.76393l0.03475,-0.24514c1.28309,-21.69076 11.37036,-33.2679 17.32767,-39.39525c13.5217,-13.91693 34.01743,-14.48302 34.01743,-14.48302l0.72621,14.08009c0,0 -0.03895,-4.04949 8.2065,-11.12895c8.24335,-7.07946 20.43358,-6.04525 20.43358,-6.04525l-6.46871,17.64443c0,0 3.81321,-5.49608 6.93824,-7.50456c5.54039,-3.55489 10.22512,-2.02725 10.22512,-2.02725l-1.29136,10.94376c0,0 8.24545,10.68916 14.55626,20.73341c1.35049,2.14306 2.91557,4.31247 3.90802,6.80796c3.60912,9.06694 4.13007,25.22688 0.0842,33.23117c-0.6988,1.41615 -1.45976,2.79125 -2.24918,4.14314c-0.20525,0.34719 -0.41157,0.69228 -0.62101,1.03316c-0.72306,1.18885 -1.47773,2.35449 -2.27134,3.48446c-0.10729,0.15045 -0.20525,0.31034 -0.31255,0.4609c-0.89998,1.2572 -1.84929,2.46808 -2.83661,3.64539c-0.2357,0.28409 -0.4841,0.55863 -0.72516,0.84062c-0.84621,0.97217 -1.72298,1.91693 -2.62285,2.82588c-0.20735,0.21261 -0.40947,0.42824 -0.61892,0.63337c-1.08308,1.05847 -2.21128,2.06737 -3.37331,3.03102c-0.2589,0.21156 -0.5241,0.41354 -0.78522,0.62079c-0.97567,0.77858 -1.98399,1.52239 -3.0154,2.23145c-0.29786,0.20199 -0.58836,0.41447 -0.88832,0.61227c-1.25988,0.82802 -2.55031,1.60554 -3.88283,2.32406c-0.2378,0.12946 -0.4904,0.24304 -0.73145,0.36829c-1.13882,0.59233 -2.304,1.1373 -3.49437,1.64228c-5.0353,2.13466 -10.50304,3.52445 -16.37406,3.94745c-6.70977,0.48294 -12.78394,0.27978 -18.27069,-0.43559c-1.35668,-0.1768 -2.67649,-0.38823 -3.96167,-0.62498c-0.24421,-0.04945 -0.48736,-0.0968 -0.72936,-0.14414c-1.30303,-0.25669 -2.58191,-0.53227 -3.80913,-0.84691c-0.00734,-0.0021 -0.0168,-0.0042 -0.02519,-0.00629c-1.22944,-0.31139 -2.41141,-0.66066 -3.56597,-1.03106c-0.20211,-0.06414 -0.40947,-0.12829 -0.61052,-0.19359c-1.10932,-0.36292 -2.19029,-0.75117 -3.2322,-1.16249c-0.18321,-0.06939 -0.36002,-0.14834 -0.54206,-0.21983c-1.02838,-0.41459 -2.03134,-0.84598 -2.99336,-1.30256c-0.03685,-0.02099 -0.07791,-0.03475 -0.11371,-0.05365c-0.98511,-0.47128 -1.92614,-0.96366 -2.8407,-1.4677c-0.17062,-0.09458 -0.34007,-0.18718 -0.50626,-0.28188c-0.87991,-0.49972 -1.73255,-1.01007 -2.54506,-1.53604c-0.1242,-0.07896 -0.24211,-0.16106 -0.36526,-0.24094c-0.77146,-0.50918 -1.51773,-1.02896 -2.23135,-1.55924c-0.07359,-0.0505 -0.15464,-0.10415 -0.2252,-0.15989c-0.74416,-0.55863 -1.44717,-1.12996 -2.12498,-1.70537c-0.13166,-0.11056 -0.26112,-0.22205 -0.38743,-0.33249c-0.6609,-0.57553 -1.29662,-1.152 -1.89454,-1.74222c-0.06834,-0.06426 -0.1305,-0.1326 -0.19779,-0.19779c-0.56317,-0.56083 -1.09777,-1.12575 -1.60298,-1.69079c-0.07055,-0.08198 -0.15056,-0.16199 -0.22217,-0.24187c-0.51781,-0.59443 -1.63668,-2.00428 -1.72298,-2.11682c-0.45039,-0.59548 -0.87991,-1.1899 -1.26827,-1.78118c-0.02414,-0.03685 -0.04735,-0.07371 -0.06939,-0.11044c-0.37261,-0.56924 -0.71151,-1.12996 -1.02838,-1.6887z" fill="#9a8479" stroke="none" stroke-width="0" stroke-linecap="butt" stroke-linejoin="miter"/><path d="M269.4699,169.54762v0v0v0v0v0v0c0,0 12.26183,13.86223 8.47276,28.24217c-3.78697,14.37561 -26.41818,20.46611 -43.80685,19.37301c-22.98703,-1.44658 -33.64389,-15.13634 -29.86112,-28.20111c3.78802,-13.06477 34.22059,-19.17206 34.22059,-19.17206l-4.99739,9.3866c0,0 3.93648,-0.60808 7.11608,-2.4261c3.17866,-1.81476 6.66464,-4.23561 6.66464,-4.23561l-7.28134,10.31563c0,0 9.61682,-0.1031 17.94438,-3.43605c8.32756,-3.32876 11.52827,-9.84645 11.52827,-9.84645z" fill="#e6e7e8" stroke="none" stroke-width="0" stroke-linecap="butt" stroke-linejoin="miter"/><path d="M285.15985,162.05253c0,0 19.73675,-11.0858 24.24784,-1.65907c4.5112,9.42661 -3.55851,20.47358 -20.39882,30.46838c0,0 0.37156,-16.41149 -3.84902,-28.80929v0v0v0v0v0zM285.15985,162.05253c-0.35266,-1.45079 -1.51785,-4.22512 -1.51785,-4.22512M288.57106,193.41726l0.21156,-2.65433" fill="#9a8479" stroke="none" stroke-width="0" stroke-linecap="round" stroke-linejoin="miter"/><path d="M288.78262,190.76188c0.10939,-3.03954 0.10519,-8.04429 -0.57997,-14.29362c-0.39477,-3.63711 -1.15783,-7.38886 -1.94083,-10.62922l0.0021,0.0042c11.56081,-2.94274 21.85031,7.74223 21.85031,7.74223h0.0042c-5.7783,9.59187 -19.24321,16.91122 -19.24321,16.91122l-0.09259,0.2652v0v0v0v0v0z" fill="#edcd37" stroke="none" stroke-width="0" stroke-linecap="butt" stroke-linejoin="miter"/><path d="M192.52856,198.09173c-16.39294,-6.52294 -25.23831,-15.34358 -22.76066,-24.60936c2.47869,-9.26672 21.59246,-2.19251 21.59246,-2.19251c-1.75248,11.92432 1.16821,26.80187 1.16821,26.80187v0v0v0v0zM192.02861,167.21413c0,0 -0.58731,2.70063 -0.6672,4.07572M192.71179,197.96542l0.60621,2.384" fill="#9a8479" stroke="none" stroke-width="0" stroke-linecap="round" stroke-linejoin="miter"/><path d="M192.58863,197.7393c0,0 -13.00179,-4.60496 -19.60113,-12.44935l0.00315,-0.00105c0,0 7.36239,-11.29304 17.99709,-10.38094l0.00105,-0.00315c-0.1768,3.06683 -0.2547,6.59757 -0.02636,9.96645c0.38521,5.79172 1.17253,10.34618 1.74934,13.09416l-0.12315,-0.22614v0v0v0v0v0z" fill="#edcd37" stroke="none" stroke-width="0" stroke-linecap="butt" stroke-linejoin="miter"/><path d="M256.0766,192.16952c-0.76306,0 -1.43038,-0.55232 -1.55668,-1.32985c-0.13797,-0.86056 0.4483,-1.67074 1.30933,-1.80847c0.783,-0.12315 7.72334,-1.20576 10.28099,-0.88797c0.86523,0.10939 1.47983,0.89846 1.37568,1.75902c-0.10951,0.86697 -0.91047,1.46875 -1.76194,1.3751c-1.60928,-0.19569 -6.61087,0.42719 -9.39688,0.86907c-0.0842,0.0168 -0.1684,0.02309 -0.25051,0.02309v0v0v0v0v0v0z" fill="#231f20" stroke="none" stroke-width="0" stroke-linecap="butt" stroke-linejoin="miter"/><path d="M230.49298,192.5062c-0.0989,0 -0.19896,-0.01049 -0.30205,-0.02846c-3.64492,-0.70487 -10.05474,0.01271 -10.11783,0.019c-0.85158,0.09469 -1.64624,-0.51979 -1.74724,-1.38664c-0.0989,-0.86488 0.52201,-1.64765 1.38933,-1.74654c0.28421,-0.02834 6.95187,-0.77636 11.07565,0.019c0.85462,0.16409 1.41673,0.99211 1.25043,1.85161c-0.14636,0.74802 -0.80831,1.27201 -1.54828,1.27201v0v0v0v0v0v0z" fill="#231f20" stroke="none" stroke-width="0" stroke-linecap="butt" stroke-linejoin="miter"/><path d="M257.13648,199.55091c0,0 -4.25952,5.74332 -13.79752,5.74332c-9.53577,0 -12.08923,-3.77484 -12.08923,-3.77484" fill="none" stroke="#000000" stroke-width="1" stroke-linecap="round" stroke-linejoin="miter"/><path d="M-12.29867,180.00001c0,-94.5818 112.95795,-171.25549 252.29866,-171.25549c139.34071,0 252.29867,76.67369 252.29867,171.25548c0,94.58179 -112.95796,171.25549 -252.29867,171.25549c-139.34071,0 -252.29867,-76.6737 -252.29867,-171.25549z" fill="none" stroke="none" stroke-width="0" stroke-linecap="butt" stroke-linejoin="miter"/></g></g></svg>