<svg version="1.1" xmlns="http://www.w3.org/2000/svg" xmlns:xlink="http://www.w3.org/1999/xlink" width="212.66666" height="147" viewBox="0,0,212.66666,147"><g transform="translate(-147.67117,-99.02081)"><g data-paper-data="{&quot;isPaintingLayer&quot;:true}" fill-rule="nonzero" stroke-linejoin="miter" stroke-miterlimit="10" stroke-dasharray="" stroke-dashoffset="0" style="mix-blend-mode: normal"><g stroke="none" stroke-linecap="butt"><path d="M314.52413,162.96489c-0.01625,0.2687 0.12148,19.47501 0.05795,32.57414c-0.03298,6.80272 -4.50534,11.97493 -11.2169,12.00031c-23.69369,0.08965 -78.50608,0.29704 -88.8615,0.33621c-8.63754,0.03268 -11.9087,-6.03454 -11.93158,-10.57366c-0.04091,-8.11187 -0.17101,-33.91278 -0.17101,-33.91278z" data-paper-data="{&quot;index&quot;:null}" fill="#e4cb7f" stroke-width="0"/><path d="M202.40109,196.61089c0,0 0.1301,-25.80091 0.17101,-33.91278c0.02288,-4.53912 3.29404,-10.60634 11.93158,-10.57366c10.35542,0.03916 65.16781,0.24657 88.8615,0.33621c6.71156,0.02538 11.18392,5.19759 11.2169,12.00032c0.06352,13.09913 -0.07419,32.30543 -0.05795,32.57413z" data-paper-data="{&quot;index&quot;:null}" fill="#e4cb7f" stroke-width="0"/><path d="M277.52413,162.96489c-0.01625,0.2687 0.12148,19.47501 0.05795,32.57414c-0.03298,6.80272 -4.50534,11.97493 -11.2169,12.00031c-23.69369,0.08965 -78.50608,0.29704 -88.8615,0.33621c-8.63754,0.03268 -11.9087,-6.03454 -11.93158,-10.57366c-0.04091,-8.11187 -0.17101,-33.91278 -0.17101,-33.91278z" data-paper-data="{&quot;index&quot;:null}" fill="#e4cb7f" stroke-width="0"/><path d="M165.40109,196.61089c0,0 0.1301,-25.80091 0.17101,-33.91278c0.02288,-4.53912 3.29404,-10.60634 11.93158,-10.57366c10.35542,0.03916 65.16781,0.24657 88.8615,0.33621c6.71156,0.02538 11.18392,5.19759 11.2169,12.00032c0.06352,13.09913 -0.07419,32.30543 -0.05795,32.57413z" data-paper-data="{&quot;index&quot;:null}" fill="#e4cb7f" stroke-width="0"/><path d="M266.19052,195.86351c0.00948,2.16803 -2.13013,3.93436 -3.9695,3.94239c-2.69062,0.01175 -10.40944,0.04547 -15.47117,0.06759c-2.71509,0.01187 -4.67647,-2.45622 -4.68541,-4.49964c-0.00643,-1.47358 -0.01986,-4.54812 -0.02946,-6.74386c-0.00856,-1.95528 2.13198,-3.93435 5.04521,-3.94709c4.83007,-0.02111 11.76062,-0.05138 14.47943,-0.06324c2.33378,-0.0102 4.59224,2.3964 4.59967,4.10332c0.00659,1.50734 0.02012,4.60508 0.0312,7.14055z" data-paper-data="{&quot;index&quot;:null}" fill="#e9d18c" stroke-width="NaN"/><path d="M201.69053,171.86351c0.00948,2.16803 -2.13013,3.93436 -3.9695,3.94239c-2.69062,0.01175 -10.40944,0.04547 -15.47117,0.06759c-2.71509,0.01187 -4.67647,-2.45622 -4.68541,-4.49964c-0.00643,-1.47358 -0.01986,-4.54812 -0.02946,-6.74386c-0.00856,-1.95528 2.13198,-3.93435 5.04521,-3.94709c4.83007,-0.02111 11.76062,-0.05138 14.47943,-0.06324c2.33378,-0.0102 4.59224,2.3964 4.59967,4.10332c0.00659,1.50734 0.02012,4.60508 0.0312,7.14055z" data-paper-data="{&quot;index&quot;:null}" fill="#e9d18c" stroke-width="NaN"/><path d="M293.19052,178.36351c0.00948,2.16803 -2.13013,3.93436 -3.9695,3.94239c-2.69062,0.01175 -10.40945,0.04547 -15.47118,0.06759c-2.71509,0.01187 -4.67647,-2.45622 -4.68541,-4.49964c-0.00643,-1.47358 -0.01986,-4.54812 -0.02946,-6.74386c-0.00856,-1.95528 2.13198,-3.93435 5.04521,-3.94709c4.83007,-0.02111 11.76063,-0.05138 14.47943,-0.06324c2.33378,-0.0102 4.59224,2.3964 4.59966,4.10332c0.00658,1.50734 0.02012,4.60508 0.0312,7.14055z" data-paper-data="{&quot;index&quot;:null}" fill="#e9d18c" stroke-width="NaN"/></g><path d="M360.33784,172.52081c0,40.59293 -47.60705,73.5 -106.33333,73.5c-58.72628,0 -106.33333,-32.90707 -106.33333,-73.5c0,-40.59293 47.60705,-73.5 106.33333,-73.5c58.72628,0 106.33333,32.90707 106.33333,73.5z" fill="none" stroke="none" stroke-width="0" stroke-linecap="butt"/><path d="M215.78656,186.46091c-0.64584,1.11459 -1.51563,1.98438 -2.60938,2.60938c-1.09375,0.61459 -2.31771,0.92188 -3.67187,0.92188c-1.34375,0 -2.5625,-0.30729 -3.65625,-0.92187c-1.09375,-0.625 -1.96875,-1.49479 -2.625,-2.60937c-0.64584,-1.11459 -0.96875,-2.40104 -0.96875,-3.85937c0,-1.44791 0.32291,-2.72916 0.96875,-3.84375c0.65625,-1.11459 1.53125,-1.98437 2.625,-2.60937c1.09375,-0.63541 2.3125,-0.95312 3.65625,-0.95312c1.35416,0 2.57813,0.31771 3.67188,0.95313c1.09375,0.625 1.96354,1.49479 2.60938,2.60938c0.64584,1.11459 0.96875,2.39584 0.96875,3.84375c0,0 -0.32292,2.74474 -0.96876,3.85933zM213.56781,182.60153c0,-0.90625 -0.18229,-1.6875 -0.54687,-2.34375c-0.36459,-0.66666 -0.85416,-1.1875 -1.46875,-1.5625c-0.61459,-0.375 -1.29687,-0.5625 -2.04687,-0.5625c-0.73959,0 -1.41666,0.1875 -2.03125,0.5625c-0.61459,0.375 -1.10416,0.89584 -1.46875,1.5625c-0.36459,0.65625 -0.54687,1.4375 -0.54687,2.34375c0,0.89584 0.18229,1.67709 0.54688,2.34375c0.36459,0.66666 0.85416,1.1875 1.46875,1.5625c0.61459,0.36459 1.29166,0.54688 2.03125,0.54688c0.75,0 1.43229,-0.18229 2.04688,-0.54687c0.61459,-0.375 1.10416,-0.89584 1.46875,-1.5625c0.36459,-0.66666 0.54688,-1.44791 0.54688,-2.34375zM227.18561,175.19528c1.3125,0 2.30729,0.27604 2.98438,0.82813c0.6875,0.55209 1.16146,1.28646 1.42188,2.20313c0.26041,0.91666 0.39063,1.93229 0.39063,3.04688v6.82813c0,0.45834 -0.15104,0.84375 -0.45312,1.15625c-0.30209,0.3125 -0.68229,0.46875 -1.14062,0.46875c-0.46875,0 -0.85416,-0.15625 -1.15625,-0.46875c-0.30209,-0.3125 -0.45312,-0.69791 -0.45312,-1.15625v-6.82812c0,-0.58334 -0.07812,-1.10937 -0.23437,-1.57812c-0.14584,-0.47916 -0.41666,-0.85937 -0.8125,-1.14062c-0.38541,-0.28125 -0.94271,-0.42187 -1.67187,-0.42187c-0.70834,0 -1.30729,0.14063 -1.79687,0.42188c-0.48959,0.28125 -0.86459,0.66146 -1.125,1.14063c-0.25,0.46875 -0.375,0.99479 -0.375,1.57813v6.82813c0,0.45834 -0.15104,0.84375 -0.45312,1.15625c-0.30209,0.3125 -0.6875,0.46875 -1.15625,0.46875c-0.45834,0 -0.83854,-0.15625 -1.14062,-0.46875c-0.30209,-0.3125 -0.45312,-0.69791 -0.45312,-1.15625v-11.01562c0,-0.45834 0.15104,-0.84375 0.45313,-1.15625c0.30209,-0.3125 0.68229,-0.46875 1.14063,-0.46875c0.46875,0 0.85416,0.15625 1.15625,0.46875c0.30209,0.3125 0.45313,0.69791 0.45313,1.15625v1.15625l-0.40625,-0.07812c0.15625,-0.30209 0.38541,-0.625 0.6875,-0.96875c0.30209,-0.35416 0.65625,-0.68229 1.0625,-0.98437c0.41666,-0.30209 0.88021,-0.54687 1.39063,-0.73437c0.52084,-0.1875 1.08334,-0.28125 1.6875,-0.28125zM238.91645,188.10153c0,0.45834 -0.15625,0.84375 -0.46875,1.15625c-0.3125,0.3125 -0.69791,0.46875 -1.15625,0.46875c-0.44791,0 -0.82291,-0.15625 -1.125,-0.46875c-0.30209,-0.3125 -0.45312,-0.69791 -0.45312,-1.15625v-16.46875c0,-0.46875 0.15625,-0.85416 0.46875,-1.15625c0.3125,-0.3125 0.69791,-0.46875 1.15625,-0.46875c0.45834,0 0.83334,0.15625 1.125,0.46875c0.30209,0.30209 0.45313,0.6875 0.45313,1.15625zM245.66046,188.10153c0,0.45834 -0.15104,0.84375 -0.45312,1.15625c-0.30209,0.3125 -0.6875,0.46875 -1.15625,0.46875c-0.45834,0 -0.83854,-0.15625 -1.14062,-0.46875c-0.30209,-0.3125 -0.45312,-0.69791 -0.45312,-1.15625v-11.01562c0,-0.45834 0.15104,-0.84375 0.45313,-1.15625c0.30209,-0.3125 0.68229,-0.46875 1.14063,-0.46875c0.46875,0 0.85416,0.15625 1.15625,0.46875c0.30209,0.3125 0.45313,0.69791 0.45313,1.15625zM244.03546,173.72653c-0.60416,0 -1.03125,-0.09375 -1.28125,-0.28125c-0.25,-0.19791 -0.375,-0.54687 -0.375,-1.04687v-0.5c0,-0.52084 0.13541,-0.875 0.40625,-1.0625c0.28125,-0.1875 0.70834,-0.28125 1.28125,-0.28125c0.61459,0 1.04688,0.09896 1.29688,0.29688c0.25,0.19791 0.375,0.54688 0.375,1.04688v0.5c0,0.52084 -0.13541,0.875 -0.40625,1.0625c-0.26041,0.17709 -0.69271,0.26563 -1.29687,0.26563zM256.5607,175.19528c1.3125,0 2.30729,0.27604 2.98438,0.82813c0.6875,0.55209 1.16146,1.28646 1.42188,2.20313c0.26041,0.91666 0.39063,1.93229 0.39063,3.04688v6.82813c0,0.45834 -0.15104,0.84375 -0.45312,1.15625c-0.30209,0.3125 -0.68229,0.46875 -1.14062,0.46875c-0.46875,0 -0.85416,-0.15625 -1.15625,-0.46875c-0.30209,-0.3125 -0.45312,-0.69791 -0.45312,-1.15625v-6.82812c0,-0.58334 -0.07812,-1.10937 -0.23437,-1.57812c-0.14584,-0.47916 -0.41666,-0.85937 -0.8125,-1.14062c-0.38541,-0.28125 -0.94271,-0.42187 -1.67187,-0.42187c-0.70834,0 -1.30729,0.14063 -1.79687,0.42188c-0.48959,0.28125 -0.86459,0.66146 -1.125,1.14063c-0.25,0.46875 -0.375,0.99479 -0.375,1.57813v6.82813c0,0.45834 -0.15104,0.84375 -0.45312,1.15625c-0.30209,0.3125 -0.6875,0.46875 -1.15625,0.46875c-0.45834,0 -0.83854,-0.15625 -1.14062,-0.46875c-0.30209,-0.3125 -0.45312,-0.69791 -0.45312,-1.15625v-11.01562c0,-0.45834 0.15104,-0.84375 0.45313,-1.15625c0.30209,-0.3125 0.68229,-0.46875 1.14063,-0.46875c0.46875,0 0.85416,0.15625 1.15625,0.46875c0.30209,0.3125 0.45313,0.69791 0.45313,1.15625v1.15625l-0.40625,-0.07812c0.15625,-0.30209 0.38541,-0.625 0.6875,-0.96875c0.30209,-0.35416 0.65625,-0.68229 1.0625,-0.98437c0.41666,-0.30209 0.88021,-0.54687 1.39063,-0.73437c0.52084,-0.1875 1.08334,-0.28125 1.6875,-0.28125zM271.54154,189.99216c-1.51041,0 -2.82291,-0.3125 -3.9375,-0.9375c-1.10416,-0.63541 -1.95834,-1.49479 -2.5625,-2.57812c-0.59375,-1.08334 -0.89062,-2.3125 -0.89062,-3.6875c0,-1.59375 0.32291,-2.95312 0.96875,-4.07812c0.65625,-1.13541 1.50521,-2.00521 2.54688,-2.60937c1.05209,-0.60416 2.16666,-0.90625 3.34375,-0.90625c0.90625,0 1.76041,0.1875 2.5625,0.5625c0.8125,0.375 1.52604,0.88541 2.14063,1.53125c0.625,0.64584 1.11979,1.39584 1.48438,2.25c0.36459,0.85416 0.54688,1.76041 0.54688,2.71875c-0.01041,0.42709 -0.17709,0.77604 -0.5,1.04688c-0.32291,0.26041 -0.69791,0.39063 -1.125,0.39063h-10.17187l-0.8125,-2.65625l9.20313,0.53125v-0.71875c-0.03125,-0.52084 -0.21354,-0.98437 -0.54687,-1.39062c-0.33334,-0.40625 -0.74479,-0.72916 -1.23437,-0.96875c-0.47916,-0.23959 -0.99479,-0.35937 -1.54687,-0.35937c-0.53125,0 -1.03125,0.07291 -1.5,0.21875c-0.45834,0.13541 -0.85937,0.375 -1.20312,0.71875c-0.33334,0.33334 -0.59896,0.78646 -0.79687,1.35938c-0.19791,0.5625 -0.29687,1.28125 -0.29687,2.15625c0,0.95834 0.19791,1.77084 0.59375,2.4375c0.40625,0.66666 0.92188,1.17188 1.54688,1.51563c0.63541,0.34375 1.3125,0.51563 2.03125,0.51563c0.65625,0 1.17709,-0.05209 1.5625,-0.15625c0.39584,-0.10416 0.71354,-0.22916 0.95313,-0.375c0.23959,-0.15625 0.45834,-0.28646 0.65625,-0.39062c0.3125,-0.16666 0.61459,-0.25 0.90625,-0.25c0.38541,0 0.70834,0.13541 0.96875,0.40625c0.26041,0.27084 0.39063,0.58334 0.39063,0.9375c0,0.47916 -0.25,0.91146 -0.75,1.29688c-0.46875,0.39584 -1.11979,0.73959 -1.95312,1.03125c-0.83334,0.29166 -1.69271,0.4375 -2.57812,0.4375z" fill="#ffffff" stroke="#a18e5a" stroke-width="5" stroke-linecap="square"/><path d="M216.75532,182.60153c0,1.45834 -0.32291,2.74479 -0.96875,3.85938c-0.64584,1.11459 -1.51563,1.98438 -2.60938,2.60938c-1.09375,0.61459 -2.31771,0.92188 -3.67187,0.92188c-1.34375,0 -2.5625,-0.30729 -3.65625,-0.92187c-1.09375,-0.625 -1.96875,-1.49479 -2.625,-2.60937c-0.64584,-1.11459 -0.96875,-2.40104 -0.96875,-3.85937c0,-1.44791 0.32291,-2.72916 0.96875,-3.84375c0.65625,-1.11459 1.53125,-1.98437 2.625,-2.60937c1.09375,-0.63541 2.3125,-0.95312 3.65625,-0.95312c1.35416,0 2.57813,0.31771 3.67188,0.95313c1.09375,0.625 1.96354,1.49479 2.60938,2.60938c0.64584,1.11459 0.96875,2.39584 0.96875,3.84375zM213.56782,182.60153c0,-0.90625 -0.18229,-1.6875 -0.54687,-2.34375c-0.36459,-0.66666 -0.85416,-1.1875 -1.46875,-1.5625c-0.61459,-0.375 -1.29687,-0.5625 -2.04687,-0.5625c-0.73959,0 -1.41666,0.1875 -2.03125,0.5625c-0.61459,0.375 -1.10416,0.89584 -1.46875,1.5625c-0.36459,0.65625 -0.54687,1.4375 -0.54687,2.34375c0,0.89584 0.18229,1.67709 0.54688,2.34375c0.36459,0.66666 0.85416,1.1875 1.46875,1.5625c0.61459,0.36459 1.29166,0.54688 2.03125,0.54688c0.75,0 1.43229,-0.18229 2.04688,-0.54687c0.61459,-0.375 1.10416,-0.89584 1.46875,-1.5625c0.36459,-0.66666 0.54688,-1.44791 0.54688,-2.34375zM227.18562,175.19528c1.3125,0 2.30729,0.27604 2.98438,0.82813c0.6875,0.55209 1.16146,1.28646 1.42188,2.20313c0.26041,0.91666 0.39063,1.93229 0.39063,3.04688v6.82813c0,0.45834 -0.15104,0.84375 -0.45312,1.15625c-0.30209,0.3125 -0.68229,0.46875 -1.14062,0.46875c-0.46875,0 -0.85416,-0.15625 -1.15625,-0.46875c-0.30209,-0.3125 -0.45312,-0.69791 -0.45312,-1.15625v-6.82812c0,-0.58334 -0.07812,-1.10937 -0.23437,-1.57812c-0.14584,-0.47916 -0.41666,-0.85937 -0.8125,-1.14062c-0.38541,-0.28125 -0.94271,-0.42187 -1.67187,-0.42187c-0.70834,0 -1.30729,0.14063 -1.79687,0.42188c-0.48959,0.28125 -0.86459,0.66146 -1.125,1.14063c-0.25,0.46875 -0.375,0.99479 -0.375,1.57813v6.82813c0,0.45834 -0.15104,0.84375 -0.45312,1.15625c-0.30209,0.3125 -0.6875,0.46875 -1.15625,0.46875c-0.45834,0 -0.83854,-0.15625 -1.14062,-0.46875c-0.30209,-0.3125 -0.45312,-0.69791 -0.45312,-1.15625v-11.01562c0,-0.45834 0.15104,-0.84375 0.45313,-1.15625c0.30209,-0.3125 0.68229,-0.46875 1.14063,-0.46875c0.46875,0 0.85416,0.15625 1.15625,0.46875c0.30209,0.3125 0.45313,0.69791 0.45313,1.15625v1.15625l-0.40625,-0.07812c0.15625,-0.30209 0.38541,-0.625 0.6875,-0.96875c0.30209,-0.35416 0.65625,-0.68229 1.0625,-0.98437c0.41666,-0.30209 0.88021,-0.54687 1.39063,-0.73437c0.52084,-0.1875 1.08334,-0.28125 1.6875,-0.28125zM238.91646,188.10153c0,0.45834 -0.15625,0.84375 -0.46875,1.15625c-0.3125,0.3125 -0.69791,0.46875 -1.15625,0.46875c-0.44791,0 -0.82291,-0.15625 -1.125,-0.46875c-0.30209,-0.3125 -0.45312,-0.69791 -0.45312,-1.15625v-16.46875c0,-0.46875 0.15625,-0.85416 0.46875,-1.15625c0.3125,-0.3125 0.69791,-0.46875 1.15625,-0.46875c0.45834,0 0.83334,0.15625 1.125,0.46875c0.30209,0.30209 0.45313,0.6875 0.45313,1.15625zM245.66047,188.10153c0,0.45834 -0.15104,0.84375 -0.45312,1.15625c-0.30209,0.3125 -0.6875,0.46875 -1.15625,0.46875c-0.45834,0 -0.83854,-0.15625 -1.14062,-0.46875c-0.30209,-0.3125 -0.45312,-0.69791 -0.45312,-1.15625v-11.01562c0,-0.45834 0.15104,-0.84375 0.45313,-1.15625c0.30209,-0.3125 0.68229,-0.46875 1.14063,-0.46875c0.46875,0 0.85416,0.15625 1.15625,0.46875c0.30209,0.3125 0.45313,0.69791 0.45313,1.15625zM244.03547,173.72653c-0.60416,0 -1.03125,-0.09375 -1.28125,-0.28125c-0.25,-0.19791 -0.375,-0.54687 -0.375,-1.04687v-0.5c0,-0.52084 0.13541,-0.875 0.40625,-1.0625c0.28125,-0.1875 0.70834,-0.28125 1.28125,-0.28125c0.61459,0 1.04688,0.09896 1.29688,0.29688c0.25,0.19791 0.375,0.54688 0.375,1.04688v0.5c0,0.52084 -0.13541,0.875 -0.40625,1.0625c-0.26041,0.17709 -0.69271,0.26563 -1.29687,0.26563zM256.56071,175.19528c1.3125,0 2.30729,0.27604 2.98438,0.82813c0.6875,0.55209 1.16146,1.28646 1.42188,2.20313c0.26041,0.91666 0.39063,1.93229 0.39063,3.04688v6.82813c0,0.45834 -0.15104,0.84375 -0.45312,1.15625c-0.30209,0.3125 -0.68229,0.46875 -1.14062,0.46875c-0.46875,0 -0.85416,-0.15625 -1.15625,-0.46875c-0.30209,-0.3125 -0.45312,-0.69791 -0.45312,-1.15625v-6.82812c0,-0.58334 -0.07812,-1.10937 -0.23437,-1.57812c-0.14584,-0.47916 -0.41666,-0.85937 -0.8125,-1.14062c-0.38541,-0.28125 -0.94271,-0.42187 -1.67187,-0.42187c-0.70834,0 -1.30729,0.14063 -1.79687,0.42188c-0.48959,0.28125 -0.86459,0.66146 -1.125,1.14063c-0.25,0.46875 -0.375,0.99479 -0.375,1.57813v6.82813c0,0.45834 -0.15104,0.84375 -0.45312,1.15625c-0.30209,0.3125 -0.6875,0.46875 -1.15625,0.46875c-0.45834,0 -0.83854,-0.15625 -1.14062,-0.46875c-0.30209,-0.3125 -0.45312,-0.69791 -0.45312,-1.15625v-11.01562c0,-0.45834 0.15104,-0.84375 0.45313,-1.15625c0.30209,-0.3125 0.68229,-0.46875 1.14063,-0.46875c0.46875,0 0.85416,0.15625 1.15625,0.46875c0.30209,0.3125 0.45313,0.69791 0.45313,1.15625v1.15625l-0.40625,-0.07812c0.15625,-0.30209 0.38541,-0.625 0.6875,-0.96875c0.30209,-0.35416 0.65625,-0.68229 1.0625,-0.98437c0.41666,-0.30209 0.88021,-0.54687 1.39063,-0.73437c0.52084,-0.1875 1.08334,-0.28125 1.6875,-0.28125zM271.54155,189.99216c-1.51041,0 -2.82291,-0.3125 -3.9375,-0.9375c-1.10416,-0.63541 -1.95834,-1.49479 -2.5625,-2.57812c-0.59375,-1.08334 -0.89062,-2.3125 -0.89062,-3.6875c0,-1.59375 0.32291,-2.95312 0.96875,-4.07812c0.65625,-1.13541 1.50521,-2.00521 2.54688,-2.60937c1.05209,-0.60416 2.16666,-0.90625 3.34375,-0.90625c0.90625,0 1.76041,0.1875 2.5625,0.5625c0.8125,0.375 1.52604,0.88541 2.14063,1.53125c0.625,0.64584 1.11979,1.39584 1.48438,2.25c0.36459,0.85416 0.54688,1.76041 0.54688,2.71875c-0.01041,0.42709 -0.17709,0.77604 -0.5,1.04688c-0.32291,0.26041 -0.69791,0.39063 -1.125,0.39063h-10.17187l-0.8125,-2.65625h9.78125l-0.57812,0.53125v-0.71875c-0.03125,-0.52084 -0.21354,-0.98437 -0.54687,-1.39062c-0.33334,-0.40625 -0.74479,-0.72916 -1.23437,-0.96875c-0.47916,-0.23959 -0.99479,-0.35937 -1.54687,-0.35937c-0.53125,0 -1.03125,0.07291 -1.5,0.21875c-0.45834,0.13541 -0.85937,0.375 -1.20312,0.71875c-0.33334,0.33334 -0.59896,0.78646 -0.79687,1.35938c-0.19791,0.5625 -0.29687,1.28125 -0.29687,2.15625c0,0.95834 0.19791,1.77084 0.59375,2.4375c0.40625,0.66666 0.92188,1.17188 1.54688,1.51563c0.63541,0.34375 1.3125,0.51563 2.03125,0.51563c0.65625,0 1.17709,-0.05209 1.5625,-0.15625c0.39584,-0.10416 0.71354,-0.22916 0.95313,-0.375c0.23959,-0.15625 0.45834,-0.28646 0.65625,-0.39062c0.3125,-0.16666 0.61459,-0.25 0.90625,-0.25c0.38541,0 0.70834,0.13541 0.96875,0.40625c0.26041,0.27084 0.39063,0.58334 0.39063,0.9375c0,0.47916 -0.25,0.91146 -0.75,1.29688c-0.46875,0.39584 -1.11979,0.73959 -1.95312,1.03125c-0.83334,0.29166 -1.69271,0.4375 -2.57812,0.4375z" fill="#ffffff" stroke="none" stroke-width="1" stroke-linecap="square"/></g></g></svg>