<svg version="1.1" xmlns="http://www.w3.org/2000/svg" xmlns:xlink="http://www.w3.org/1999/xlink" width="44.44445" height="26.66666" viewBox="0,0,44.44445,26.66666"><g transform="translate(-284.83333,-307.43333)"><g data-paper-data="{&quot;isPaintingLayer&quot;:true}" fill-rule="nonzero" stroke="none" stroke-linecap="butt" stroke-linejoin="miter" stroke-miterlimit="10" stroke-dasharray="" stroke-dashoffset="0" style="mix-blend-mode: normal"><path d="M284.83333,328.50252c0,-5.1625 0,-12.45867 0,-15.40881c0,-2.4841 2.04932,-5.66038 5.03145,-5.66038c5.38627,0 24.06694,0 33.6478,0c3.48439,0 5.7652,3.07753 5.7652,5.97484c0,2.99133 0,10.05356 0,15.09434c0,3.20814 -2.8058,5.59748 -5.45073,5.59748c-5.25907,0 -24.24868,0 -33.6478,0c-3.24426,0 -5.34591,-2.38586 -5.34591,-5.59748z" fill="#ffffff" stroke-width="0"/><g fill="#404040" stroke-width="1"><path d="M313.10797,322.3836c0,0.64661 -0.35243,0.99905 -1.05729,1.0573h-6.5884c0.05243,1.22331 0.63204,2.05633 1.73885,2.49905c0.29709,0.09903 0.65534,0.14854 1.07477,0.14854c0.86214,0 1.75632,-0.32622 2.68254,-0.97865c0.51845,-0.29709 0.96991,-0.25922 1.35438,0.11359c0.22719,0.24466 0.30291,0.4835 0.22719,0.71651c0,0.32622 -0.10777,0.58544 -0.3233,0.77768c-1.02525,1.01942 -2.3738,1.52331 -4.04566,1.51166c-1.53788,0 -2.77866,-0.50098 -3.72236,-1.50292c-1.04855,-1.03108 -1.57283,-2.38254 -1.57283,-4.05441c0,-1.53205 0.42816,-2.80488 1.28448,-3.81848c0.92039,-1.14176 2.20487,-1.71263 3.85342,-1.71263c1.64856,0 2.91556,0.5068 3.801,1.5204c0.82719,0.90292 1.25826,2.14371 1.29321,3.72236zM310.64387,321.46612c-0.02913,-0.48932 -0.27961,-0.99321 -0.75146,-1.51166c-0.42525,-0.44855 -1.05147,-0.67282 -1.87865,-0.67282c-0.68738,0 -1.27574,0.25631 -1.76506,0.76894c-0.45437,0.5301 -0.69612,1.00195 -0.72525,1.41554z"/><path d="M297.52812,321.72825v4.98063c0,0.61166 -0.28253,1.02234 -0.84758,1.23205c-0.15146,0.05243 -0.35243,0.07864 -0.60292,0.07864c-0.24466,0 -0.51554,-0.10486 -0.81263,-0.31457c-0.29127,-0.21553 -0.4369,-0.54758 -0.4369,-0.99612v-4.95441l-4.46508,-6.7719c-0.14563,-0.18058 -0.21845,-0.37573 -0.21845,-0.58544c0,-0.21553 0.04078,-0.40486 0.12233,-0.56797c0.08738,-0.16311 0.20971,-0.30874 0.36699,-0.4369c0.29127,-0.22719 0.59127,-0.34078 0.90001,-0.34078c0.55923,0 0.967,0.2301 1.22331,0.6903l3.55196,6.41615l3.57819,-6.47732c0.25631,-0.41942 0.62622,-0.62913 1.10972,-0.62913c0.5301,0 0.90292,0.20971 1.11846,0.62913c0.11068,0.15146 0.16602,0.32039 0.16602,0.5068c0,0.19223 -0.06408,0.39321 -0.19223,0.60292z"/><path d="M316.78818,320.21659c0,0.36699 0.31457,0.63496 0.9437,0.80389c0.28544,0.07573 0.59418,0.14854 0.92622,0.21845c0.33204,0.0699 0.69903,0.15437 1.10098,0.2534c0.40777,0.0932 0.82137,0.22136 1.24079,0.38447c0.66408,0.19223 1.18544,0.5301 1.56409,1.0136c0.37864,0.48351 0.56797,1.06312 0.56797,1.73886c0,1.19418 -0.5068,2.11749 -1.5204,2.76992c-0.86214,0.56505 -1.93982,0.84175 -3.23303,0.8301c-0.9437,0 -1.87283,-0.16602 -2.7874,-0.49806c-0.40194,-0.15728 -0.74272,-0.36408 -1.02234,-0.62039c-0.27379,-0.25631 -0.41068,-0.53884 -0.41068,-0.84758c0,-0.30874 0.10486,-0.55631 0.31457,-0.74272c0.20971,-0.18641 0.4369,-0.27961 0.68156,-0.27961c0.24466,0 0.47476,0.04951 0.6903,0.14854c0.22136,0.0932 0.48059,0.18932 0.77768,0.28835c0.74564,0.27379 1.3369,0.41068 1.7738,0.41068c0.4369,0 0.78059,-0.0233 1.03108,-0.0699c0.25631,-0.05243 0.47767,-0.13398 0.66408,-0.24466c0.36699,-0.24466 0.55049,-0.55923 0.55049,-0.9437c0,-0.25631 -0.08447,-0.45729 -0.2534,-0.60292c-0.16893,-0.14563 -0.43107,-0.27088 -0.78641,-0.37573c-0.34952,-0.11068 -0.71069,-0.2068 -1.0835,-0.28835c-0.36699,-0.08738 -0.74564,-0.17476 -1.13593,-0.26214c-0.38447,-0.08738 -0.76602,-0.19516 -1.14467,-0.32331c-0.37282,-0.13398 -0.69903,-0.32039 -0.97865,-0.55923c-0.69903,-0.48932 -1.04855,-1.19418 -1.04855,-2.11458c0,-1.14758 0.4835,-1.97477 1.4505,-2.48157c0.72816,-0.45437 1.68642,-0.68156 2.87478,-0.68156c1.18253,0 2.14371,0.18058 2.88352,0.54175c0.73399,0.37864 1.10098,0.84175 1.10098,1.38933c0,0.29127 -0.10777,0.51845 -0.3233,0.68156c-0.20971,0.16311 -0.4369,0.24466 -0.68156,0.24466c-0.34952,0 -0.60583,-0.05243 -0.76894,-0.15728c-0.16311,-0.11068 -0.30874,-0.20097 -0.4369,-0.27088c-0.12233,-0.0699 -0.26505,-0.11942 -0.42816,-0.14854c-0.35534,-0.0932 -0.81263,-0.13981 -1.37186,-0.13981c-1.17088,0 -1.74467,0.31165 -1.72137,0.93496z"/></g></g></g></svg>