<svg version="1.1" xmlns="http://www.w3.org/2000/svg" xmlns:xlink="http://www.w3.org/1999/xlink" width="178.66667" height="50.33333" viewBox="0,0,178.66667,50.33333"><g transform="translate(-150.66667,-154.83333)"><g data-paper-data="{&quot;isPaintingLayer&quot;:true}" fill-rule="nonzero" stroke-linejoin="miter" stroke-miterlimit="10" stroke-dasharray="" stroke-dashoffset="0" style="mix-blend-mode: normal"><path d="M175.66667,179.83333l128.66667,0.33333" fill="none" stroke="#ffffff" stroke-width="50" stroke-linecap="round"/><path d="M173.22208,180.7674c0,-2.30875 0.66027,-4.2327 1.9808,-5.77187c1.45171,-1.68783 3.34068,-2.53175 5.66692,-2.53175c1.95894,0 3.47624,0.42415 4.5519,1.27243c0.4635,0.33232 0.69525,0.74772 0.69525,1.2462c0,0.48974 -0.1443,0.88764 -0.43289,1.19373c-0.27985,0.30609 -0.61217,0.45913 -0.99696,0.45913c-0.38479,0 -0.67776,-0.07871 -0.8789,-0.23612c-0.84829,-0.48099 -1.75342,-0.71274 -2.7154,-0.69525c-1.18061,0 -2.1076,0.44163 -2.78099,1.32491c-0.79582,0.96198 -1.19373,2.20818 -1.19373,3.7386c0,1.43422 0.28859,2.63669 0.86578,3.60742c0.62966,1.01445 1.66597,1.52167 3.10894,1.52167c0.82205,0 1.84525,-0.29297 3.06958,-0.8789c0.67339,-0.39354 1.26369,-0.29734 1.77091,0.28859c0.27985,0.27985 0.41977,0.66027 0.41977,1.14126c0,0.47224 -0.22738,0.89202 -0.68213,1.25932c-0.45475,0.3673 -0.95323,0.6384 -1.49544,0.81331c-1.1981,0.41103 -2.37434,0.61217 -3.52871,0.60342c-1.14563,-0.00874 -2.19069,-0.22738 -3.13517,-0.65589c-0.94449,-0.43726 -1.73156,-1.07129 -2.36122,-1.90209c-1.28555,-1.53917 -1.92833,-3.47186 -1.92833,-5.7981zM187.46466,180.80675c0,-0.99696 0.16179,-1.99829 0.48536,-3.00399c0.32357,-1.0057 0.81768,-1.91521 1.48232,-2.72852c1.43422,-1.7403 3.44126,-2.61046 6.02111,-2.61046c2.5886,0 4.59563,0.87452 6.02111,2.62358c1.31179,1.60913 1.96768,3.50247 1.96768,5.68004c0,2.19506 -0.65589,4.0884 -1.96768,5.68004c-1.42547,1.77529 -3.43251,2.66293 -6.02111,2.66293c-2.57985,0 -4.58688,-0.88327 -6.02111,-2.64981c-1.31179,-1.57415 -1.96768,-3.45875 -1.96768,-5.65381zM191.36067,180.80675c0,0.5597 0.07433,1.15 0.223,1.77091c0.15741,0.62091 0.42852,1.19373 0.81331,1.71844c0.74335,1.06692 1.76217,1.60038 3.05647,1.60038c1.373,0 2.38745,-0.52034 3.04335,-1.56103c0.67339,-1.06692 1.01008,-2.25627 1.01008,-3.56806c0,-1.34677 -0.33232,-2.50551 -0.99696,-3.47624c-0.69087,-1.07567 -1.7097,-1.6135 -3.05647,-1.6135c-1.2943,0 -2.31312,0.54658 -3.05647,1.63973c-0.69087,0.93574 -1.03631,2.09886 -1.03631,3.48936zM218.39138,175.28412c0.91825,-1.88023 2.6673,-2.82034 5.24715,-2.82034c2.70228,0 4.51255,1.15437 5.4308,3.46312c0.31483,0.82205 0.47224,1.76654 0.47224,2.83346v8.26426c0,0.59468 -0.20114,1.04069 -0.60342,1.33802c-0.40228,0.28859 -0.81768,0.43289 -1.2462,0.43289c-0.47224,0 -0.90951,-0.15304 -1.31179,-0.45913c-0.39354,-0.31483 -0.5903,-0.75209 -0.5903,-1.31179v-8.42168c0,-0.98821 -0.26236,-1.74905 -0.78707,-2.28251c-0.47224,-0.42852 -1.11065,-0.64278 -1.91521,-0.64278c-1.64411,0 -2.75913,0.66027 -3.34506,1.9808c-0.23612,0.50722 -0.35418,1.13251 -0.35418,1.87586v7.49031c0,0.59468 -0.20114,1.04069 -0.60342,1.33802c-0.40228,0.28859 -0.81768,0.43289 -1.2462,0.43289c-0.48099,0 -0.91825,-0.15741 -1.31179,-0.47224c-0.38479,-0.31483 -0.57719,-0.74772 -0.57719,-1.29867v-8.42168c0,-0.99696 -0.25361,-1.7578 -0.76084,-2.28251c-0.47224,-0.42852 -1.04506,-0.64278 -1.71844,-0.64278c-0.66464,0 -1.21122,0.07433 -1.63973,0.223c-0.42852,0.14867 -0.81331,0.38916 -1.15437,0.72148c-0.69087,0.69962 -1.05817,1.70095 -1.1019,3.00399v7.39848c0,0.60342 -0.20989,1.04943 -0.62966,1.33802c-0.41103,0.28859 -0.83517,0.43289 -1.27243,0.43289c-0.42852,0 -0.84829,-0.15304 -1.25932,-0.45913c-0.41103,-0.30609 -0.61654,-0.74335 -0.61654,-1.31179v-12.4751c0,-0.55969 0.20114,-1.00133 0.60342,-1.32491c0.41103,-0.32357 0.80019,-0.48536 1.16749,-0.48536c0.3673,0 0.64715,0.0481 0.83954,0.1443c0.19239,0.0962 0.36293,0.19239 0.5116,0.28859c0.43726,0.3673 0.65589,0.81331 0.65589,1.33802h-0.41977c-0.19239,-0.27985 0.26236,-0.70399 1.36426,-1.27243c0.94449,-0.51597 2.04639,-0.77395 3.30571,-0.77395c1.96768,0 3.48936,0.64278 4.56502,1.92833c0.34981,0.47224 0.45038,0.76958 0.30171,0.89202zM236.18788,173.48697c0.22738,-0.68213 1.73156,-1.02319 4.51255,-1.02319c2.3,0 4.06217,0.88764 5.2865,2.66293c1.04943,1.5654 1.57415,3.47186 1.57415,5.71939c0,2.31749 -0.55532,4.21521 -1.66597,5.69316c-1.25057,1.73156 -2.99525,2.5886 -5.23403,2.5711c-1.88897,0 -3.43688,-0.57719 -4.64373,-1.73156c-0.41977,-0.35856 -0.52472,-0.64715 -0.31483,-0.86578l0.43289,6.09981c0,0.62091 -0.20551,1.08004 -0.61654,1.37738c-0.41103,0.29734 -0.82205,0.44601 -1.23308,0.44601c-0.47224,0 -0.91388,-0.16179 -1.32491,-0.48536c-0.40228,-0.32357 -0.60342,-0.76958 -0.60342,-1.33802v-18.06332c0,-0.61217 0.19239,-1.06692 0.57719,-1.36426c0.38479,-0.29734 0.87452,-0.44601 1.4692,-0.44601c1.35552,0 1.95019,0.24924 1.78403,0.74772zM236.94872,177.09439c-0.30609,0.41977 -0.52034,0.95761 -0.64278,1.6135c-0.11369,0.64715 -0.17053,1.33802 -0.17053,2.07262c0,0.72586 0.08308,1.39924 0.24924,2.02015c0.16616,0.61217 0.40665,1.17187 0.72148,1.67909c0.67339,0.97072 1.66597,1.44297 2.97776,1.41673c1.23308,0 2.16445,-0.50722 2.79411,-1.52167c0.52472,-0.88327 0.78707,-2.08574 0.78707,-3.60742c0,-2.33498 -0.62528,-3.88727 -1.87586,-4.65685c-0.42852,-0.2711 -1.01445,-0.41103 -1.7578,-0.41977c-0.7346,-0.00874 -1.35552,0.11806 -1.86274,0.38042c-0.50722,0.25361 -0.91388,0.59468 -1.21996,1.02319zM249.73341,168.26606c0,-0.65589 0.20551,-1.12814 0.61654,-1.41673c0.41103,-0.29734 0.76521,-0.44601 1.06255,-0.44601c0.30609,0 0.56844,0.02186 0.78707,0.06559c0.22738,0.04373 0.43726,0.16179 0.62966,0.35418c0.45475,0.28859 0.68213,0.76958 0.68213,1.44297v18.67986c0,0.62091 -0.20551,1.08441 -0.61654,1.3905c-0.41103,0.30609 -0.84829,0.45913 -1.31179,0.45913c-0.47224,0 -0.90076,-0.15741 -1.28555,-0.47224c-0.37604,-0.31483 -0.56407,-0.77395 -0.56407,-1.37738zM271.11104,180.33451c0,0.97073 -0.52909,1.49981 -1.58726,1.58726h-9.89088c0.07871,1.8365 0.94886,3.08708 2.61046,3.75171c0.44601,0.14867 0.98384,0.223 1.6135,0.223c1.2943,0 2.63669,-0.48974 4.02719,-1.4692c0.77833,-0.44601 1.45608,-0.38916 2.03327,0.17053c0.34106,0.3673 0.45475,0.72586 0.34106,1.07567c0,0.48974 -0.16179,0.8789 -0.48536,1.16749c-1.53917,1.53042 -3.56369,2.28688 -6.07358,2.26939c-2.30875,0 -4.17149,-0.75209 -5.58822,-2.25628c-1.57415,-1.54791 -2.36122,-3.57681 -2.36122,-6.0867c0,-2.3 0.64278,-4.21084 1.92833,-5.73251c1.38175,-1.71407 3.31008,-2.5711 5.78498,-2.5711c2.4749,0 4.377,0.76084 5.70628,2.28251c1.24182,1.35552 1.88897,3.21825 1.94145,5.58822zM267.4118,178.95713c-0.04373,-0.7346 -0.41977,-1.49106 -1.12814,-2.26939c-0.6384,-0.67339 -1.57852,-1.01008 -2.82034,-1.01008c-1.03194,0 -1.91521,0.38479 -2.64981,1.15437c-0.68213,0.79582 -1.04506,1.50418 -1.08878,2.1251zM282.46031,187.24763c0,1.24182 -1.14563,1.86274 -3.43688,1.86274c-1.59164,0 -2.74164,-0.46787 -3.45,-1.40361c-0.69962,-0.90951 -1.08004,-2.35684 -1.14126,-4.34202v-7.42472h-1.01008c-0.50722,0 -0.91825,-0.16616 -1.23308,-0.49848c-0.30609,-0.33232 -0.45913,-0.69525 -0.45913,-1.08878c0,-0.35856 0.13118,-0.71711 0.39354,-1.07567c0.2711,-0.35856 0.70399,-0.53783 1.29867,-0.53783h1.19373l0.11806,-3.54183c0.08745,-0.52472 0.31483,-0.92263 0.68213,-1.19373c0.37604,-0.2711 0.77395,-0.40665 1.19373,-0.40665c0.41977,0 0.79145,0.1443 1.11502,0.43289c0.32357,0.27985 0.48536,0.69087 0.48536,1.23308v3.47624h1.96768c0.53346,0 0.94449,0.17928 1.23308,0.53783c0.28859,0.34981 0.43289,0.70837 0.43289,1.07567c0,0.45475 -0.15304,0.83517 -0.45913,1.14126c-0.29734,0.29734 -0.69962,0.44601 -1.20684,0.44601h-1.96768v6.13917c0,1.82776 0.04373,2.88156 0.13118,3.16141c0.0962,0.2711 0.21863,0.45038 0.3673,0.53783c0.14867,0.07871 0.36293,0.11806 0.64278,0.11806l1.49544,-0.11806c0.52472,0 0.92263,0.16616 1.19373,0.49848c0.27985,0.33232 0.41977,0.65589 0.41977,0.97072zM298.13093,180.33451c0,0.97073 -0.52909,1.49981 -1.58726,1.58726h-9.89088c0.07871,1.8365 0.94886,3.08708 2.61046,3.75171c0.44601,0.14867 0.98384,0.223 1.6135,0.223c1.2943,0 2.63669,-0.48974 4.02719,-1.4692c0.77833,-0.44601 1.45608,-0.38916 2.03327,0.17053c0.34106,0.3673 0.45475,0.72586 0.34106,1.07567c0,0.48974 -0.16179,0.8789 -0.48536,1.16749c-1.53917,1.53042 -3.56369,2.28688 -6.07358,2.26939c-2.30875,0 -4.17149,-0.75209 -5.58822,-2.25628c-1.57415,-1.54791 -2.36122,-3.57681 -2.36122,-6.0867c0,-2.3 0.64278,-4.21084 1.92833,-5.73251c1.38175,-1.71407 3.31008,-2.5711 5.78498,-2.5711c2.4749,0 4.377,0.76084 5.70628,2.28251c1.24182,1.35552 1.88897,3.21825 1.94145,5.58822zM294.43169,178.95713c-0.04373,-0.7346 -0.41977,-1.49106 -1.12814,-2.26939c-0.6384,-0.67339 -1.57852,-1.01008 -2.82034,-1.01008c-1.03194,0 -1.91521,0.38479 -2.64981,1.15437c-0.68213,0.79582 -1.04506,1.50418 -1.08878,2.1251zM304.53476,184.74211c0.7346,0 1.27243,0.17053 1.6135,0.5116c0.41977,0.55969 0.62966,1.01445 0.62966,1.36426c0,0.34106 -0.04373,0.64278 -0.13118,0.90513c-0.07871,0.26236 -0.24487,0.50722 -0.49848,0.7346c-0.44601,0.35856 -0.98384,0.53783 -1.6135,0.53783c-0.71711,0 -1.22434,-0.16616 -1.52167,-0.49848c-0.52472,-0.41977 -0.78707,-0.85704 -0.78707,-1.31179c0,-0.4635 0.05247,-0.78707 0.15741,-0.97072c0.11369,-0.19239 0.2405,-0.39354 0.38042,-0.60342c0.4635,-0.44601 1.0538,-0.66901 1.77091,-0.66901zM302.34407,167.42651c0,-0.61217 0.223,-1.07567 0.66901,-1.3905c0.45475,-0.31483 0.92263,-0.47224 1.40361,-0.47224c0.48974,0 0.95761,0.15741 1.40361,0.47224c0.45475,0.31483 0.68213,0.77833 0.68213,1.3905l-0.41977,14.2329c-0.03498,0.55095 -0.20989,1.0057 -0.52472,1.36426c-0.31483,0.34981 -0.69087,0.52472 -1.12814,0.52472c-0.43726,0 -0.81768,-0.17053 -1.14126,-0.5116c-0.32357,-0.34981 -0.48536,-0.81768 -0.48536,-1.40361z" fill="#000000" stroke="none" stroke-width="1" stroke-linecap="square"/></g></g></svg>