<svg version="1.1" xmlns="http://www.w3.org/2000/svg" xmlns:xlink="http://www.w3.org/1999/xlink" width="296.71981" height="147.18555" viewBox="0,0,296.71981,147.18555"><defs><linearGradient x1="224.7187" y1="166.26666" x2="245.89011" y2="166.26666" gradientUnits="userSpaceOnUse" id="color-1"><stop offset="0" stop-color="#74b0ff"/><stop offset="1" stop-color="#6fa0e2"/></linearGradient><linearGradient x1="224.7187" y1="177.02342" x2="245.89011" y2="177.02342" gradientUnits="userSpaceOnUse" id="color-2"><stop offset="0" stop-color="#9bc7ff"/><stop offset="1" stop-color="#69a1ea"/></linearGradient><linearGradient x1="240" y1="153.87502" x2="240" y2="206.68614" gradientUnits="userSpaceOnUse" id="color-3"><stop offset="0" stop-color="#9aeb00"/><stop offset="1" stop-color="#b0f129"/></linearGradient><linearGradient x1="240.34798" y1="160.9165" x2="240.34798" y2="201.24168" gradientUnits="userSpaceOnUse" id="color-4"><stop offset="0" stop-color="#90f000"/><stop offset="1" stop-color="#a0de26"/></linearGradient></defs><g transform="translate(-15.73814,-109.93938)"><g data-paper-data="{&quot;isPaintingLayer&quot;:true}" fill-rule="nonzero" stroke-linejoin="miter" stroke-miterlimit="10" stroke-dasharray="" stroke-dashoffset="0" style="mix-blend-mode: normal"><path d="" fill="url(#color-1)" stroke="none" stroke-width="0" stroke-linecap="butt"/><path d="" data-paper-data="{&quot;index&quot;:null}" fill="url(#color-2)" stroke="none" stroke-width="0" stroke-linecap="butt"/><path d="M264.5,180.28056c0,14.58338 -10.96902,26.40554 -24.5,26.40554c-13.53098,0 -24.5,-11.82215 -24.5,-26.40554c0,-6.37516 1.55175,-12.22264 5.04182,-16.7855c0.75791,-0.99088 1.59706,-1.92118 2.505,-2.78316c4.47513,-4.24851 10.62183,-6.83692 16.95318,-6.83692c7.28666,0 14.37481,3.42844 18.86259,8.87026c3.84583,4.6634 5.63741,10.80534 5.63741,17.53532z" fill="url(#color-3)" stroke="none" stroke-width="7.5" stroke-linecap="butt"/><path d="M240.34798,201.24168c-10.3319,0 -18.70756,-9.02709 -18.70756,-20.16259c0,-4.86791 1.18489,-9.3329 3.84982,-12.81698c3.43117,-4.48585 9.04246,-7.34562 14.85774,-7.34562c5.5639,0 10.97621,2.61785 14.40298,6.77309c2.93657,3.56083 4.30459,8.25067 4.30459,13.38951c0,11.13549 -8.37567,20.16259 -18.70756,20.16259z" fill="url(#color-4)" stroke="none" stroke-width="7.5" stroke-linecap="butt"/><path d="M219.80111,164.4917c0,0 0.73301,-1.14085 0.84719,-3.06362c0.14876,-1.63654 -0.03053,-5.91972 -0.03053,-5.91972h38.65556c0,0 -0.13347,4.38733 0.01727,6.04542c0.11719,1.5214 0.86606,2.93792 0.86606,2.93792z" fill="#84df00" stroke="none" stroke-width="7.5" stroke-linecap="butt"/><path d="M235.91667,190.57056c0,-2.25516 1.82818,-4.08334 4.08334,-4.08334c2.25516,0 4.08334,1.82818 4.08334,4.08334c0,2.25516 -1.82818,4.08333 -4.08334,4.08333c-2.25516,0 -4.08334,-1.82817 -4.08334,-4.08333z" fill="#63c204" stroke="none" stroke-width="7.5" stroke-linecap="butt"/><path d="M231.01667,181.99069c0,0 5.66878,-5.87873 7.21107,-7.47814c0.7285,-0.7555 2.58161,-0.6611 3.37072,0.15618c1.61558,1.67327 7.38489,7.64864 7.38489,7.64864" fill="none" stroke="#63c204" stroke-width="7.5" stroke-linecap="round"/><path d="M220.66971,158.92955v-2.94908h38.50318v2.94908z" fill="#6cb500" stroke="none" stroke-width="7.5" stroke-linecap="butt"/><path d="M221.14444,153.3139c0,0 15.09282,0 21.90556,0c5.95734,0 16.75,0 16.75,0" fill="none" stroke="#cdfe4c" stroke-width="7.5" stroke-linecap="round"/><path d="M312.45796,183.53216c0,40.64417 -30.31973,73.59278 -67.72101,73.59278c-37.40128,0 -67.72101,-32.94861 -67.72101,-73.59278c0,-40.64417 30.31973,-73.59278 67.72101,-73.59278c37.40128,0 67.72101,32.94861 67.72101,73.59278z" fill="none" stroke="none" stroke-width="0" stroke-linecap="butt"/><ellipse cx="31.47629" cy="230.83938" transform="scale(0.5,0.5)" rx="0" ry="0" fill="none" stroke="none" stroke-width="0" stroke-linecap="butt"/></g></g></svg>