<svg version="1.1" xmlns="http://www.w3.org/2000/svg" xmlns:xlink="http://www.w3.org/1999/xlink" width="190.69069" height="219.37188" viewBox="0,0,190.69069,219.37188"><g transform="translate(-143.15316,-63.48348)"><g data-paper-data="{&quot;isPaintingLayer&quot;:true}" fill-rule="nonzero" stroke="none" stroke-width="0" stroke-miterlimit="10" stroke-dasharray="" stroke-dashoffset="0" style="mix-blend-mode: normal"><path d="M253.46727,239.67675l7.54498,7.44589c0,0 2.13981,-3.04962 3.88346,-1.60462c1.74953,1.4553 -2.08885,5.69425 -4.62493,7.18959c-2.53618,1.49166 -14.06583,-11.94997 -14.06583,-11.94997" fill="#be1e2d" stroke-linecap="round" stroke-linejoin="round"/><path d="M244.52027,232.23591c-1.43848,0.75387 -4.01608,2.25499 -5.90253,2.91343c-0.32996,0.1136 -0.6533,0.20323 -0.96287,0.29718h0.01681c0,0 -0.8456,2.10272 -1.82603,1.64603c-0.59288,-0.27384 -0.84992,-0.84708 -0.97234,-1.26153c-1.19522,-0.06263 -2.094,-0.5084 -2.57612,-1.46613c-1.13911,-2.22651 0.67883,-4.26376 2.36784,-5.18292c1.68396,-0.91622 12.38481,-6.77357 14.26685,-2.2884c1.87837,4.48443 -4.41161,5.34233 -4.41161,5.34233v0v0v0v0v0v0z" fill="#be1e2d" stroke-linecap="butt" stroke-linejoin="miter"/><g><path d="M247.4234,221.12649c0,0 6.94339,0.34888 8.02638,6.365c0.33732,2.14643 1.28485,10.37898 -2.37878,12.88228c-3.60016,2.46032 -7.07873,2.70799 -10.35344,0.86021c-3.31097,-1.86607 -3.99643,-7.18591 -3.56811,-10.07749c0.23886,-1.61177 0.7422,-3.41878 1.21413,-4.66864c0,-0.00221 2.04808,-4.90614 7.05982,-5.36136v0v0v0v0v0z" fill="#be1e2d" stroke-linecap="butt" stroke-linejoin="miter"/><g><path d="M254.00772,239.48666c-2.45821,-2.2863 -3.93232,-8.09782 1.57173,-8.74598" fill="none" stroke-linecap="round" stroke-linejoin="round"/><path d="M255.57945,231.05025v0v0v0v0v0v0v0c0.13913,6.51138 -1.68606,8.04234 -1.68606,8.04234c0,0 -2.36711,-2.33726 -1.89592,-5.05766c0.49526,-2.85144 3.58198,-2.98468 3.58198,-2.98468z" fill="#e6e7e8" stroke-linecap="butt" stroke-linejoin="miter"/></g></g><path d="M247.16196,242.11448l-12.38986,7.18948c0,0 2.3627,2.88643 0.49379,4.17129c-1.86817,1.29504 -4.91633,-3.54993 -5.6702,-6.3898c-0.74872,-2.8464 12.30547,-8.94038 12.30547,-8.94038" fill="#be1e2d" stroke-linecap="butt" stroke-linejoin="miter"/><path d="M254.77031,226.83525c1.57688,0.41298 4.48874,1.03065 6.32854,1.8048c0.32492,0.13692 0.50114,0.2273 0.91264,0.42832l-0.00504,-0.01166c0,0 2.03494,-0.98978 2.44644,0.00872c0.26218,0.60013 0.06557,1.20037 -0.11728,1.5856c0.83909,0.85369 1.20184,1.7859 0.92505,2.8216c-0.65698,2.4123 -3.36719,2.70369 -5.23683,2.24626c-1.8646,-0.45228 -13.72861,-3.30088 -12.11096,-7.88577c1.62206,-4.58784 6.85743,-0.99787 6.85743,-0.99787v0v0v0v0v0v0z" fill="#be1e2d" stroke-linecap="round" stroke-linejoin="round"/><g><g><path d="M284.58223,157.92789c0.9221,-1.14352 3.52229,-4.43567 5.05693,-6.95347c2.58053,-4.23685 5.97315,-9.63026 5.97315,-9.63026c0,0 1.54914,7.7955 0.4239,14.41985c-0.98989,5.83255 -4.68336,11.26378 -5.54199,12.47654l-4.2812,-5.35483l-1.63079,-4.95784v0v0v0v0v0v0z" fill="#be1e2d" stroke-linecap="butt" stroke-linejoin="miter"/><path d="M290.97635,158.84485c1.94468,0.26082 3.72552,-0.61978 4.58206,-1.48725v0c-1.21276,5.43197 -4.17129,9.88655 -4.99209,11.02713l-0.02112,0.08302c-0.50115,-1.14415 -0.72833,-1.8645 -1.26878,-2.89946v0c1.21855,-1.72694 1.58854,-4.62724 1.69993,-6.72344v0v0v0v0v0v0zM290.97635,158.84485c0.1034,-1.33865 -0.25787,-3.26956 -0.25787,-3.26956" fill="#939598" stroke-linecap="round" stroke-linejoin="round"/></g><g><path d="M217.79946,205.95361c0,0 11.49328,17.52906 34.24467,18.2246c22.75055,0.69418 29.27286,-9.23977 30.53081,-13.69793c1.4698,-5.20257 -1.42755,-9.7985 -1.81584,-10.38622l-0.08155,-0.03205c-2.61552,1.70434 -5.67597,0.7174 -5.67597,0.7174c0,0 1.62491,0.00798 2.46546,-0.86379c0.81492,-0.83468 1.69552,-5.83412 0.44639,-12.65287c-1.66273,-9.07951 -5.09255,-11.02934 -5.09255,-11.02934l-0.32198,-0.27973c-6.10208,1.88793 -13.65211,4.21573 -17.97923,5.52381c-8.11884,2.4538 -12.08175,5.09697 -12.08175,5.09697c0,0 0.56808,-3.77501 3.20904,-6.04019c1.37733,-1.18502 3.1669,-2.311 4.56535,-3.12382l-0.2542,-0.05244c0,0 -13.12186,1.66274 -20.0871,10.71682c-4.90834,6.38035 -3.0182,15.55454 -3.0182,15.55454c0,0 -3.47858,-4.25209 -4.57837,-8.72486l-0.01829,-0.01523c0,0 -3.692,3.21786 -4.5893,10.02642c-0.03278,0.24547 -0.05821,0.51638 -0.07576,0.80631l0.20838,0.2316v0v0v0v0v0v0zM280.83781,217.35148c0.04949,-0.30295 0.09468,-0.60307 0.13471,-0.90098c-0.0393,0.29791 -0.08448,0.59803 -0.13471,0.90098v0v0v0v0v0zM281.07813,215.4956c-0.02333,0.27752 -0.05317,0.55936 -0.091,0.84708c0.0371,-0.28909 0.06767,-0.57102 0.091,-0.84708v0v0v0v0v0zM281.10146,215.19118c0.0145,-0.18715 0.02259,-0.36926 0.02763,-0.54475c-0.00504,0.17622 -0.0145,0.35686 -0.02763,0.54475v0v0v0v0v0zM281.13571,214.37615c0.00137,-0.24905 -0.00441,-0.48653 -0.02406,-0.705l0.00367,-0.00368c0.01745,0.2192 0.02112,0.4589 0.02038,0.70868v0v0v0v0v0v0zM222.25689,194.89359c0,0 -3.69127,3.21639 -4.58857,10.02569c-0.50766,3.85887 0.83982,13.1372 0.83982,13.1372c0,0 -9.60178,-11.23908 -9.28569,-23.2706c0.31977,-12.03089 4.39626,-20.75575 4.39626,-20.75575M206.89538,212.72718l-3.10133,7.38977c0,0 -14.16198,-13.61417 -11.11383,-38.45588M214.31721,212.68641l0.77278,5.87994c0,0 -7.14872,-3.75021 -10.65283,-9.11966c-6.60238,-10.10723 -5.44216,-20.28508 -5.44216,-20.28508M284.91945,182.37123c1.37586,8.90256 -0.46111,12.61347 -2.25646,15.58512c-2.68172,4.43273 -7.66215,2.8238 -7.66215,2.8238c0,0 1.62417,0.00872 2.46683,-0.86021c0.8165,-0.83688 1.69416,-5.83255 0.4465,-12.65572c-1.66568,-9.07962 -5.30745,-11.15459 -5.30745,-11.15459v0c-4.71089,1.45666 -10.51579,3.07211 -18.08915,5.36786c-8.11895,2.45233 -12.08186,5.09549 -12.08186,5.09549c0,0 0.56525,-3.77501 3.20914,-6.04019c1.31974,-1.13322 3.01968,-2.21705 4.38681,-3.01968l-0.07576,-0.15878c0,0 -13.12187,1.66284 -20.08711,10.7183c-4.90823,6.38329 -3.0182,15.55318 -3.0182,15.55318c0,0 -3.47133,-4.24337 -4.57838,-8.71109l-0.01818,-0.02764c0,0 -3.692,3.2208 -4.58941,10.02863c-0.26797,2.04229 -0.01671,5.60242 0.279,8.50271c0.00073,0.00073 0,0 0.00073,0.00147c0,0.00073 0,0.00136 0,0.0021l-0.00073,-0.00136c0.26292,2.57833 0.56157,4.63439 0.56157,4.63439c0,0 -1.97598,-2.31615 -4.11002,-5.968l-0.08375,0.59215l0.77268,5.88067c0,0 -4.42979,-2.32781 -8.02774,-5.93606l-0.16319,0.09973l-3.10133,7.38988c0,0 -16.73663,-16.09068 -9.90695,-45.1954c3.56086,-15.16626 28.63416,-33.42744 32.50396,-45.03505c3.86749,-11.60835 -3.71385,-20.5874 -3.71385,-20.5874c0,0 0.77205,0.15731 2.78513,1.54988c2.00951,1.3933 4.79548,5.2609 4.79548,5.2609c0,0 -0.02186,-4.98411 0.46394,-8.82175c0.65845,-5.16327 1.85725,-8.97537 1.85725,-8.97537c0,0 11.45619,21.97629 23.68075,35.44125c12.22677,13.4657 28.29768,15.22606 36.52802,40.7073c8.94186,27.68221 -6.22082,42.11005 -6.22082,42.11005c0,0 0.27605,-1.87259 0.48223,-4.69492l-0.1778,0.13178c0,0 -2.03126,4.23244 -3.49381,6.15599c-1.76256,2.32486 -3.69852,4.44219 -3.69852,4.44219c0,0 0.72686,-2.60165 1.15508,-5.21571l-0.04876,0.02627c-3.24991,4.72843 -11.13789,10.55373 -28.74492,10.01623c-22.04271,-0.67296 -33.40704,-13.22673 -34.09313,-14.00687c-0.25997,-2.55059 -0.48433,-5.60536 -0.35466,-7.69494l0.2068,0.22656c0,0 11.49255,17.52832 34.24541,18.22535c18.17953,0.55358 25.99321,-5.67597 29.04063,-10.4787l-0.00368,0.00295c0.01166,-0.01608 0.01818,-0.03279 0.02837,-0.04813c0,-0.00284 0,-0.00578 0,-0.00872l0.01387,-0.0145c0.73926,-1.17998 1.19302,-2.27537 1.44574,-3.15155c1.43344,-5.07879 -1.28916,-9.58287 -1.78074,-10.33526l-0.07945,-0.10267c-2.62277,1.73703 -5.71022,0.73999 -5.71022,0.73999c0,0 1.62564,0.00873 2.46693,-0.86536M250.03241,177.51459c1.11504,-0.89584 2.41303,-1.31975 2.41303,-1.31975M222.25542,194.89002c0,0 -0.30443,-3.5493 -0.04509,-4.49105M286.87138,212.00463c0,0 -2.03137,4.23244 -3.49381,6.15599c-1.76267,2.32486 -3.69862,4.44219 -3.69862,4.44219c0,0 1.76267,-6.2965 1.41736,-9.13564M285.2428,190.78136c0,0 3.7437,11.64555 1.62784,21.22327" fill="#be1e2d" stroke-linecap="round" stroke-linejoin="round"/><path d="M217.79946,205.95361v0v0v0v0v0v0v0l-0.20838,-0.2316c0.01755,-0.28993 0.04298,-0.56083 0.07576,-0.80631c0.8973,-6.80856 4.5893,-10.02642 4.5893,-10.02642l0.01829,0.01523c1.0998,4.47277 4.57837,8.72486 4.57837,8.72486c0,0 -1.89014,-9.1742 3.0182,-15.55454c6.96524,-9.05408 20.0871,-10.71682 20.0871,-10.71682l0.2542,0.05244c-1.39845,0.81282 -3.18802,1.93879 -4.56535,3.12382c-2.64095,2.26517 -3.20903,6.04019 -3.20903,6.04019c0,0 3.96291,-2.64317 12.08175,-5.09697c4.32712,-1.30808 11.87715,-3.63588 17.97923,-5.52381l0.32198,0.27973c0,0 3.42982,1.94983 5.09255,11.02934c1.24912,6.81876 0.36852,11.8182 -0.44639,12.65287c-0.84056,0.87177 -2.46546,0.86379 -2.46546,0.86379c0,0 3.06045,0.98694 5.67597,-0.7174l0.08155,0.03205c0.38828,0.58773 3.28564,5.18365 1.81584,10.38622c-1.25795,4.45816 -7.78027,14.39211 -30.53081,13.69793c-22.75138,-0.69555 -34.24466,-18.2246 -34.24466,-18.2246z" fill="#e6e7e8" stroke-linecap="butt" stroke-linejoin="miter"/></g><g><path d="M209.55525,199.36499v0v0v0v0v0v0v0l-0.4486,-0.11444c0,0 -10.30247,-5.72116 -17.44173,-19.88229c-4.6286,-9.17935 -8.11086,-25.15716 -8.11086,-25.15716c0,0 10.1582,1.74081 15.34186,6.29439c4.22803,3.72258 11.0782,12.34846 13.44531,15.38778l0.37,0.40058c-1.21928,3.34091 -3.26589,10.11753 -3.4873,18.49204c-0.03794,1.54767 0.08449,3.07936 0.33133,4.57911z" fill="#be1e2d" stroke-linecap="butt" stroke-linejoin="miter"/><path d="M201.6615,193.28403v0v0v0v0v0v0v0l0.13177,0.12158c-3.21997,-3.1938 -6.98625,-7.7955 -10.13056,-14.03735c-2.81066,-5.569 -5.19238,-13.6354 -6.63444,-19.11981l0.09825,-0.04371c8.01765,1.07353 11.63683,6.73058 11.63683,6.73058l0.20397,0.43263c1.32626,3.09691 2.78513,6.23176 4.05464,8.34982c0.75092,1.24471 1.58928,2.39117 2.39411,3.37296l-0.09762,-0.17339c0,0 1.07721,5.40139 0.79832,8.31987c-0.44944,4.71099 -2.45527,6.04681 -2.45527,6.04681zM203.41681,179.09074c0.09762,0.17328 3.58639,2.9148 3.58639,2.9148" fill="#939598" stroke-linecap="round" stroke-linejoin="round"/></g><path d="M269.4618,209.26826v0v0v0v0v0v0v0c-0.59004,3.71165 -4.30242,6.52746 -12.6121,6.97322c-8.3082,0.45007 -11.57199,-6.08169 -11.57199,-6.08169c0,0 6.67385,-0.74588 13.05566,-0.89153c6.37887,-0.14712 11.12843,0 11.12843,0z" fill="#939598" stroke-linecap="butt" stroke-linejoin="miter"/><path d="M245.07385,194.95769v0v0v0v0v0v0v0c0.61684,0.17413 0.97591,0.81429 0.80189,1.43123c-0.17339,0.61768 -0.81072,0.97601 -1.43271,0.80777c-0.03415,-0.01093 -3.63882,-0.99062 -7.16174,0.03563c-0.10855,0.03132 -0.21637,0.04739 -0.32418,0.04739c-0.50324,0 -0.96792,-0.33217 -1.11577,-0.83689c-0.08669,-0.2957 -0.04371,-0.60012 0.08953,-0.85653c-0.21699,-0.18936 -0.42317,-0.43557 -0.56588,-0.77499c-0.16751,-0.39396 0.01671,-0.84919 0.41151,-1.01605c0.39185,-0.16309 0.84928,0.01314 1.01678,0.4094c0.13251,0.31682 0.51859,0.40709 0.52363,0.40857c0.1136,0.02553 0.21342,0.07724 0.29938,0.14565c0.11506,-0.02333 0.23013,-0.04949 0.343,-0.06841c-0.11864,-0.17917 -0.23013,-0.38093 -0.29644,-0.62861c-0.10992,-0.41655 0.13692,-0.83762 0.55063,-0.94901c0.41739,-0.11286 0.83836,0.1406 0.94764,0.55211c0.08743,0.32986 0.44787,0.47844 0.45081,0.47992c0.16751,0.05758 0.2914,0.17486 0.3824,0.31178c2.7743,-0.1282 4.95562,0.46542 5.07952,0.50104z" fill="#231f20" stroke-linecap="butt" stroke-linejoin="miter"/><path d="M275.88723,193.86882v0v0v0v0v0v0v0c-0.13545,0.68976 -0.5499,1.10348 -0.88785,1.34969c0.08596,0.2192 0.13104,0.45806 0.06988,0.7028c-0.15363,0.62273 -0.76984,1.00586 -1.40644,0.85076c-2.41303,-0.59509 -5.53611,-0.81061 -6.16472,-0.17118c-0.22793,0.23161 -0.52363,0.3452 -0.82522,0.3452c-0.29717,0 -0.59067,-0.11065 -0.81786,-0.33574c-0.45669,-0.44933 -0.46405,-1.18429 -0.01313,-1.64308c1.21487,-1.23168 3.77648,-1.20037 5.82529,-0.93156c0.09983,-0.08523 0.25861,-0.26082 0.27459,-0.50261c0.02112,-0.42748 0.35466,-0.78224 0.81209,-0.73485c0.42537,0.02185 0.75313,0.3845 0.73274,0.81282c-0.01608,0.2687 -0.08301,0.49599 -0.1653,0.705c0.10046,0.01965 0.19735,0.04004 0.28835,0.06116c0.08018,-0.12526 0.18064,-0.23381 0.32628,-0.29717c0.0226,-0.01229 0.36643,-0.18201 0.432,-0.51344c0.08522,-0.41876 0.48653,-0.69922 0.9118,-0.60822c0.41812,0.08449 0.68904,0.49021 0.60749,0.91044z" fill="#231f20" stroke-linecap="butt" stroke-linejoin="miter"/></g><path d="M163.90377,180.00001c0,-56.80544 34.06945,-102.85536 76.09624,-102.85536c42.02679,0 76.09624,46.04992 76.09624,102.85536c0,56.80544 -34.06945,102.85536 -76.09624,102.85536c-42.02679,0 -76.09624,-46.04992 -76.09624,-102.85536z" fill="none" stroke-linecap="butt" stroke-linejoin="miter"/><path d="M143.15317,273.6937v-210.21021h190.69069v210.21021z" fill="none" stroke-linecap="butt" stroke-linejoin="miter"/></g></g></svg>