<svg version="1.1" xmlns="http://www.w3.org/2000/svg" xmlns:xlink="http://www.w3.org/1999/xlink" width="463.96397" height="331.76756" viewBox="0,0,463.96397,331.76756"><defs><linearGradient x1="410.16153" y1="180.79094" x2="412.17621" y2="204.52346" gradientUnits="userSpaceOnUse" id="color-1"><stop offset="0" stop-color="#5c5549"/><stop offset="1" stop-color="#756c5e"/></linearGradient><linearGradient x1="394.47923" y1="175.96658" x2="424.77139" y2="173.39511" gradientUnits="userSpaceOnUse" id="color-2"><stop offset="0" stop-color="#746b5d"/><stop offset="1" stop-color="#746b5d" stop-opacity="0"/></linearGradient><linearGradient x1="398.25582" y1="173.87011" x2="421.25789" y2="175.53719" gradientUnits="userSpaceOnUse" id="color-3"><stop offset="0" stop-color="#514b41"/><stop offset="1" stop-color="#36322b"/></linearGradient><linearGradient x1="351.90573" y1="182.07492" x2="351.90573" y2="201.40667" gradientUnits="userSpaceOnUse" id="color-4"><stop offset="0" stop-color="#77966b"/><stop offset="1" stop-color="#637d59"/></linearGradient><linearGradient x1="334.89543" y1="186.772" x2="334.89543" y2="206.10375" gradientUnits="userSpaceOnUse" id="color-5"><stop offset="0" stop-color="#77966b"/><stop offset="1" stop-color="#637d59"/></linearGradient><linearGradient x1="344.29809" y1="170.76734" x2="344.29809" y2="201.75839" gradientUnits="userSpaceOnUse" id="color-6"><stop offset="0" stop-color="#77966b"/><stop offset="1" stop-color="#637d59"/></linearGradient><linearGradient x1="309.38212" y1="211.6736" x2="309.38212" y2="399.5433" gradientUnits="userSpaceOnUse" id="color-7"><stop offset="0" stop-color="#7e7463"/><stop offset="1" stop-color="#847c6b"/></linearGradient><linearGradient x1="309.76921" y1="226.37548" x2="309.76921" y2="259.44246" gradientUnits="userSpaceOnUse" id="color-8"><stop offset="0" stop-color="#454037"/><stop offset="1" stop-color="#454037" stop-opacity="0"/></linearGradient><linearGradient x1="303.58153" y1="210.10214" x2="303.58153" y2="232.10213" gradientUnits="userSpaceOnUse" id="color-9"><stop offset="0" stop-color="#95bd86"/><stop offset="1" stop-color="#80a374"/></linearGradient><linearGradient x1="90.28431" y1="171.27878" x2="90.28431" y2="205.72207" gradientUnits="userSpaceOnUse" id="color-10"><stop offset="0" stop-color="#77966b"/><stop offset="1" stop-color="#637d59"/></linearGradient><linearGradient x1="86.89543" y1="187.772" x2="86.89543" y2="207.10375" gradientUnits="userSpaceOnUse" id="color-11"><stop offset="0" stop-color="#77966b"/><stop offset="1" stop-color="#637d59"/></linearGradient><linearGradient x1="96.29804" y1="171.76732" x2="96.29804" y2="202.75836" gradientUnits="userSpaceOnUse" id="color-12"><stop offset="0" stop-color="#77966b"/><stop offset="1" stop-color="#637d59"/></linearGradient><linearGradient x1="100.85021" y1="166.58157" x2="100.85021" y2="201.02505" gradientUnits="userSpaceOnUse" id="color-13"><stop offset="0" stop-color="#77966b"/><stop offset="1" stop-color="#637d59"/></linearGradient><linearGradient x1="104.23909" y1="183.07498" x2="104.23909" y2="202.40673" gradientUnits="userSpaceOnUse" id="color-14"><stop offset="0" stop-color="#77966b"/><stop offset="1" stop-color="#637d59"/></linearGradient><linearGradient x1="61.89539" y1="186.772" x2="61.89539" y2="206.10375" gradientUnits="userSpaceOnUse" id="color-15"><stop offset="0" stop-color="#77966b"/><stop offset="1" stop-color="#637d59"/></linearGradient><linearGradient x1="66.23909" y1="183.07498" x2="66.23909" y2="202.40673" gradientUnits="userSpaceOnUse" id="color-16"><stop offset="0" stop-color="#77966b"/><stop offset="1" stop-color="#637d59"/></linearGradient><linearGradient x1="173.25474" y1="211.67664" x2="173.25474" y2="399.54633" gradientUnits="userSpaceOnUse" id="color-17"><stop offset="0" stop-color="#7e7463"/><stop offset="1" stop-color="#847c6b"/></linearGradient><linearGradient x1="172.86765" y1="226.37845" x2="172.86765" y2="259.44543" gradientUnits="userSpaceOnUse" id="color-18"><stop offset="0" stop-color="#454037"/><stop offset="1" stop-color="#454037" stop-opacity="0"/></linearGradient><linearGradient x1="179.05533" y1="210.10513" x2="179.05533" y2="232.10513" gradientUnits="userSpaceOnUse" id="color-19"><stop offset="0" stop-color="#95bd86"/><stop offset="1" stop-color="#80a374"/></linearGradient></defs><g transform="translate(-9.51952,-18.14142)"><g data-paper-data="{&quot;isPaintingLayer&quot;:true}" fill-rule="nonzero" stroke-miterlimit="10" stroke-dasharray="" stroke-dashoffset="0" style="mix-blend-mode: normal"><path d="M396.88953,188.0416l0.82939,-10.67892l2.80915,10.37005z" data-paper-data="{&quot;index&quot;:null}" fill="#665f56" stroke="none" stroke-width="0" stroke-linecap="butt" stroke-linejoin="miter"/><path d="M400.71957,187.71647l1.38557,-18.11879l4.7425,17.59857z" data-paper-data="{&quot;index&quot;:null}" fill="#665f56" stroke="none" stroke-width="0" stroke-linecap="butt" stroke-linejoin="miter"/><path d="M394.47945,164.39712l-1.05894,13.84766l-3.62455,-13.45008z" data-paper-data="{&quot;index&quot;:null}" fill="#665f56" stroke="none" stroke-width="0" stroke-linecap="butt" stroke-linejoin="miter"/><path d="M391.85863,181.50318l-1.04083,-12.26085l37.41215,-3.17595l1.04083,12.26085z" data-paper-data="{&quot;zoomLevel&quot;:1.5487,&quot;index&quot;:null}" fill="#746b5d" stroke="#837969" stroke-width="11.5" stroke-linecap="butt" stroke-linejoin="round"/><path d="M403.79798,205.23471l-2.01468,-23.73259l16.75644,-1.42247l2.01468,23.73259z" data-paper-data="{&quot;index&quot;:null}" fill="url(#color-1)" stroke="none" stroke-width="0" stroke-linecap="butt" stroke-linejoin="miter"/><path d="M391.96024,182.70008l-1.04083,-12.26085l37.41215,-3.17595l1.04083,12.26085z" data-paper-data="{&quot;zoomLevel&quot;:1.5487,&quot;index&quot;:null}" fill="#746b5d" stroke="#746b5d" stroke-width="11.5" stroke-linecap="butt" stroke-linejoin="round"/><path d="M395.25512,185.10651l-1.55178,-18.27976l30.29215,-2.57153l1.55178,18.27976z" data-paper-data="{&quot;index&quot;:null}" fill="url(#color-2)" stroke="none" stroke-width="0" stroke-linecap="butt" stroke-linejoin="miter"/><path d="M414.47838,176.68833c0,0 -9.66447,1.1048 -14.05396,1.6047c-1.14982,0.13095 -2.18802,-0.69514 -2.31894,-1.84475c-0.13095,-1.14982 0.69496,-2.18783 1.84477,-2.31878c3.6801,-0.41912 14.04263,-1.60363 14.04263,-1.60363c0,0 -0.77592,-0.62484 -4.35104,-3.46872c-0.90566,-0.7205 -1.05576,-2.03849 -0.33528,-2.94398c0.7209,-0.90554 2.03869,-1.05583 2.94419,-0.33531c2.89889,2.30577 8.31946,6.6184 8.31946,6.6184c0.90549,0.72053 1.05561,2.03868 0.33528,2.94398c0,0 -3.7212,4.67792 -6.56524,8.25307c-0.72084,0.90613 -2.03882,1.05623 -2.94419,0.33531c-0.90568,-0.72033 -1.05583,-2.03869 -0.33524,-2.9436c2.30609,-2.89974 3.41755,-4.2967 3.41755,-4.2967z" data-paper-data="{&quot;index&quot;:null}" fill="url(#color-3)" stroke="none" stroke-width="0" stroke-linecap="butt" stroke-linejoin="miter"/><path d="M52.70911,205.5776" data-paper-data="{&quot;origRot&quot;:0,&quot;index&quot;:null}" fill="none" stroke="#708e65" stroke-width="5" stroke-linecap="round" stroke-linejoin="miter"/><path d="M345.13995,210.56632c-2.57773,-8.37366 -4.58874,-10.66716 -7.31229,-27.22554c-2.72356,-16.55838 -4.20449,-42.79285 -4.20449,-42.79285" data-paper-data="{&quot;origRot&quot;:0,&quot;index&quot;:null}" fill="none" stroke="#576f4f" stroke-width="3.5" stroke-linecap="round" stroke-linejoin="miter"/><path d="M348.56935,202.23857c-0.14978,-2.86677 -0.19334,-5.82355 -0.09367,-8.9195c0.67908,-21.09545 8.08328,-42.2323 8.08328,-42.2323" data-paper-data="{&quot;origRot&quot;:0,&quot;index&quot;:null}" fill="none" stroke="#708e65" stroke-width="5" stroke-linecap="round" stroke-linejoin="miter"/><path d="M368.69269,111.70383l-15.2988,49.31345" data-paper-data="{&quot;origRot&quot;:0,&quot;index&quot;:null}" fill="none" stroke="#8fa686" stroke-width="10" stroke-linecap="round" stroke-linejoin="miter"/><path d="M334.54669,99.94512l0.10072,51.62716" data-paper-data="{&quot;origRot&quot;:0,&quot;index&quot;:null}" fill="none" stroke="#8fa686" stroke-width="10" stroke-linecap="round" stroke-linejoin="miter"/><path d="M346.62802,200.37075c0,0 1.16013,-2.91229 4.62883,-10.31609c2.92886,-6.2515 5.92663,-7.97973 5.92663,-7.97973c0,0 -2.76256,6.56304 -3.52849,12.8737c-0.94113,7.75437 1.24958,6.3606 1.24958,6.3606z" data-paper-data="{&quot;origRot&quot;:0}" fill="url(#color-4)" stroke="none" stroke-width="0" stroke-linecap="butt" stroke-linejoin="miter"/><path d="M331.89655,206.00631c0,0 2.19069,1.39376 1.24958,-6.3606c-0.7659,-6.31064 -3.52848,-12.87369 -3.52848,-12.87369c0,0 2.99778,1.72824 5.92664,7.97973c3.46871,7.4038 4.62883,10.31609 4.62883,10.31609z" data-paper-data="{&quot;origRot&quot;:0}" fill="url(#color-5)" stroke="none" stroke-width="0" stroke-linecap="butt" stroke-linejoin="miter"/><path d="M340.77396,200.49389c0,0 0.38931,-2.35445 1.01556,-7.90741c0.26829,-2.37894 0.58006,-5.34491 0.92334,-8.96428c0.96642,-10.18959 1.5302,-12.8549 1.5302,-12.8549c0,0 0.7589,12.61205 1.59124,22.59843c1.02277,12.271 1.98785,7.46562 1.98785,7.46562z" data-paper-data="{&quot;index&quot;:null}" fill="url(#color-6)" stroke="none" stroke-width="0" stroke-linecap="butt" stroke-linejoin="miter"/><path d="M234.92086,239.14041c0,-2.39881 -0.02418,-7.46553 -0.03541,-12.66598c-0.01324,-6.13337 -0.00846,-12.45274 0.07528,-14.80077h197.7833v132.44072c-17.67898,0.39773 -35.33555,0.85616 -53.02475,0.90873c-17.72638,1.5935 -35.81456,4.51559 -53.60091,4.49423c-3.50349,-0.00421 -7.00702,0 -10.51051,0c-1.23937,0 -2.5325,0.65881 -3.70848,0.26751c-1.06191,-0.35335 -1.8973,-1.3285 -3.003,-1.5015c-8.82454,-1.38068 -17.9294,0.50666 -26.63118,1.23879c-7.7893,0.65536 -15.59439,-1.12938 -23.40235,-1.50143c-7.57787,-0.36108 -15.55672,-0.24785 -23.11423,0.07005c-0.65281,-0.1632 -1.30779,-0.31234 -1.96475,-0.44832c0.50132,-44.16003 1.137,-101.52975 1.137,-108.50204z" fill="url(#color-7)" stroke="none" stroke-width="0" stroke-linecap="butt" stroke-linejoin="miter"/><path d="M270.06444,229.54143h43v120.35197c-0.39667,0.03451 -0.78691,0.01726 -1.16504,-0.10856c-1.06191,-0.35335 -1.8973,-1.3285 -3.003,-1.5015c-8.82454,-1.38068 -17.9294,0.50666 -26.63118,1.23879c-4.06324,0.34186 -8.13077,0.01975 -12.20077,-0.41946z" fill="#7c7464" stroke="none" stroke-width="0" stroke-linecap="butt" stroke-linejoin="miter"/><path d="M353.73109,229.54143h43v115.32123c-5.66844,0.08496 -11.33842,0.14357 -17.01176,0.16044c-8.60282,0.77335 -17.29085,1.85961 -25.98824,2.77048z" fill="#7c7464" stroke="none" stroke-width="0" stroke-linecap="butt" stroke-linejoin="miter"/><path d="M234.92086,259.44246c0,-6.76737 0,-13.53474 0,-20.30211c0,-4.35154 2.12533,-8.68456 1.03328,-12.7895l182.24949,-0.09417c0,0 14.95657,5.6956 14.95657,7.26319c0,4.86621 -0.09279,25.92258 -0.09279,25.92258z" fill="url(#color-8)" stroke="none" stroke-width="0" stroke-linecap="butt" stroke-linejoin="miter"/><path d="M234.95405,211.85925c0.17528,-4.7066 0.05397,-9.10649 0.05397,-11.11086c0.17334,-0.52622 0.30418,-1.07173 0.38845,-1.63249c64.60559,0 172.63009,0 190.94752,0c5.43045,0 12.96427,-1.43482 12.82201,11.54604c-0.01911,1.52027 -0.04609,1.1973 -0.04609,1.1973z" fill="#94bc85" stroke="none" stroke-width="0" stroke-linecap="butt" stroke-linejoin="miter"/><path d="M439.18728,236.10213c0,3.44414 -0.26517,9.38544 -10.35657,9.38544c-4.55061,0 -8.06763,0 -14.17734,0c-16.74431,0 -63.74622,0 -112.38018,0c-29.00557,0 -58.59166,0 -82.68561,0c0,-2.11572 0,-4.23144 0,-6.34716c0,-5.22796 0.0526,-16.69466 0.0526,-16.69466l219.54709,-0.41477c0,0 0,9.85402 0,14.07115z" fill="#80a374" stroke="none" stroke-width="0" stroke-linecap="butt" stroke-linejoin="miter"/><path d="M219.67297,232.10213c-0.00497,-0.2091 -0.01321,-4.19665 -0.01732,-8.72894c-0.00032,-0.35262 -0.00061,-0.70855 -0.00088,-1.06625c-0.00405,-5.46171 -0.00143,-11.33715 0.02034,-12.20481c71.62071,0 194.22357,0 212.03345,0c4.28486,0 7.51195,0 7.51195,0v22z" fill="url(#color-9)" stroke="none" stroke-width="0" stroke-linecap="butt" stroke-linejoin="miter"/><path d="M86.53601,205.02261c0,0 2.50333,-3.74186 2.42867,-8.00654c-0.15591,-8.9043 -3.01957,-25.73731 -3.01957,-25.73731c0,0 4.62857,13.2318 6.20242,19.52349c1.93391,7.73107 2.47594,14.91982 2.47594,14.91982z" data-paper-data="{&quot;origPos&quot;:null}" fill="url(#color-10)" stroke="none" stroke-width="0" stroke-linecap="butt" stroke-linejoin="miter"/><path d="M83.89659,207.00631c0,0 2.19069,1.39376 1.24958,-6.3606c-0.7659,-6.31064 -3.52848,-12.87369 -3.52848,-12.87369c0,0 2.99778,1.72824 5.92664,7.97973c3.46871,7.4038 4.62883,10.31609 4.62883,10.31609z" data-paper-data="{&quot;origPos&quot;:null,&quot;origRot&quot;:0}" fill="url(#color-11)" stroke="none" stroke-width="0" stroke-linecap="butt" stroke-linejoin="miter"/><path d="M92.77395,201.49389c0,0 0.79434,-4.80392 1.9389,-16.87169c0.96642,-10.18959 1.5302,-12.8549 1.5302,-12.8549c0,0 0.7589,12.61205 1.59124,22.59843c1.02277,12.271 1.98785,7.46562 1.98785,7.46562z" data-paper-data="{&quot;index&quot;:null}" fill="url(#color-12)" stroke="none" stroke-width="0" stroke-linecap="butt" stroke-linejoin="miter"/><path d="M96.51103,201.02505c0,0 0.54202,-7.18875 2.47593,-14.91981c1.57386,-6.29171 6.20244,-19.52352 6.20244,-19.52352c0,0 -2.86364,16.83303 -3.01956,25.73731c-0.07468,4.26467 2.42866,8.00654 2.42866,8.00654z" data-paper-data="{&quot;origPos&quot;:null}" fill="url(#color-13)" stroke="none" stroke-width="0" stroke-linecap="butt" stroke-linejoin="miter"/><path d="M98.96136,201.37075c0,0 1.16013,-2.91229 4.62883,-10.31609c2.92886,-6.2515 5.92663,-7.97973 5.92663,-7.97973c0,0 -2.76256,6.56304 -3.52849,12.8737c-0.94113,7.75437 1.24958,6.3606 1.24958,6.3606z" data-paper-data="{&quot;origPos&quot;:null,&quot;origRot&quot;:0}" fill="url(#color-14)" stroke="none" stroke-width="0" stroke-linecap="butt" stroke-linejoin="miter"/><path d="M58.89659,206.00631c0,0 2.19069,1.39376 1.24958,-6.3606c-0.7659,-6.31064 -3.52848,-12.87369 -3.52848,-12.87369c0,0 2.99778,1.72824 5.92664,7.97973c3.46871,7.4038 4.62883,10.31609 4.62883,10.31609z" data-paper-data="{&quot;origRot&quot;:0}" fill="url(#color-15)" stroke="none" stroke-width="0" stroke-linecap="butt" stroke-linejoin="miter"/><path d="M60.96135,201.37075c0,0 1.16013,-2.91229 4.62883,-10.31609c2.92886,-6.2515 5.92663,-7.97973 5.92663,-7.97973c0,0 -2.76256,6.56304 -3.52849,12.8737c-0.94113,7.75437 1.24958,6.3606 1.24958,6.3606z" data-paper-data="{&quot;origRot&quot;:0}" fill="url(#color-16)" stroke="none" stroke-width="0" stroke-linecap="butt" stroke-linejoin="miter"/><path d="M78.58988,135.51155c0,0 2.77121,26.12969 2.75491,42.91056c-0.0163,16.78087 -1.63092,19.36878 -2.82385,28.04863" data-paper-data="{&quot;origRot&quot;:0,&quot;index&quot;:null}" fill="none" stroke="#576f4f" stroke-width="3.5" stroke-linecap="round" stroke-linejoin="miter"/><path d="M59.1085,158.50376c0,0 10.71747,19.66531 14.79125,40.37481c0.59787,3.0393 1.03193,5.96437 1.34665,8.81775" data-paper-data="{&quot;origRot&quot;:0,&quot;index&quot;:null}" fill="none" stroke="#708e65" stroke-width="5" stroke-linecap="round" stroke-linejoin="miter"/><path d="M63.02267,167.79373l-22.24307,-46.19902" data-paper-data="{&quot;origRot&quot;:0,&quot;index&quot;:null}" fill="none" stroke="#8fa686" stroke-width="10" stroke-linecap="round" stroke-linejoin="miter"/><path d="M71.12752,95.5899l8.36256,50.83606" data-paper-data="{&quot;origRot&quot;:0,&quot;index&quot;:null}" fill="none" stroke="#8fa686" stroke-width="10" stroke-linecap="round" stroke-linejoin="miter"/><path d="M49.89283,211.6767h197.7833c0.08374,2.34803 0.08852,8.6674 0.07528,14.80077c-0.01123,5.20045 -0.03541,10.26717 -0.03541,12.66598c0,6.98024 0.63713,64.473 1.13872,108.65315c-4.40424,-0.0004 -8.82285,0.11403 -13.10611,0.2942c-13.18817,-3.29704 -27.26339,-0.85567 -40.61733,-0.06857c-8.81535,0.51959 -17.83691,-0.00636 -26.67057,-0.00636c-4.5045,0 -9.01029,-0.10741 -13.51351,0c-1.23902,0.02955 -2.48954,0.49163 -3.70848,0.26751c-1.1007,-0.20238 -1.90163,-1.30279 -3.003,-1.5015c-4.91944,-0.88756 -10.76543,-0.26751 -15.81104,-0.26751c-1.21816,0.46192 -2.44458,-0.91802 -3.70848,-1.23399c-0.97111,-0.24278 -2.03189,0.24278 -3.003,0c-1.08574,-0.27143 -1.90841,-1.26831 -3.003,-1.5015c-1.67422,-0.35668 -8.92685,-0.35668 -10.60106,0c-1.09459,0.23319 -1.9023,1.29912 -3.003,1.5015c-3.18598,0.58578 -6.47509,-0.26751 -9.71448,-0.26751c-5.25647,0 -11.28678,0.7201 -16.4162,0.12913c-1.57232,-0.18115 -2.94015,-1.2611 -4.5045,-1.5015c-1.42398,-0.21883 -10.20463,-0.08465 -11.80029,-0.12426c-5.60109,-0.13904 -11.18902,-0.57829 -16.77782,-0.9983z" fill="url(#color-17)" stroke="none" stroke-width="0" stroke-linecap="butt" stroke-linejoin="miter"/><path d="M169.57243,229.54445h43v117.1361c-5.8618,0.36308 -11.71773,1.00431 -17.44117,1.34165c-8.44586,0.49781 -17.081,0.0359 -25.55883,-0.0037z" fill="#7c7464" stroke="none" stroke-width="0" stroke-linecap="butt" stroke-linejoin="miter"/><path d="M85.90581,229.54447h43v115.79102c-0.06312,-0.0208 -0.12632,-0.03929 -0.18962,-0.05512c-0.97111,-0.24278 -2.03189,0.24278 -3.003,0c-1.08574,-0.27143 -1.90841,-1.26831 -3.003,-1.5015c-1.67422,-0.35668 -8.92685,-0.35668 -10.60106,0c-1.09459,0.23319 -1.9023,1.29912 -3.003,1.5015c-3.18598,0.58578 -6.47509,-0.26751 -9.71448,-0.26751c-4.28349,0 -9.08085,0.47819 -13.48582,0.33542z" fill="#7c7464" stroke="none" stroke-width="0" stroke-linecap="butt" stroke-linejoin="miter"/><path d="M49.56945,259.44543c0,0 -0.09279,-21.05637 -0.09279,-25.92258c0,-1.56759 14.95657,-7.26319 14.95657,-7.26319l182.24949,0.09417c-1.09205,4.10494 1.03328,8.43796 1.03328,12.7895c0,6.76737 0,13.53474 0,20.30211z" fill="url(#color-18)" stroke="none" stroke-width="0" stroke-linecap="butt" stroke-linejoin="miter"/><path d="M43.44961,236.10513c0,-4.21713 0,-14.07115 0,-14.07115l219.54709,0.41477c0,0 0.0526,11.4667 0.0526,16.69466c0,2.11572 0,4.23144 0,6.34716c-24.09395,0 -53.68004,0 -82.68561,0c-48.63396,0 -95.63587,0 -112.38018,0c-6.10971,0 -9.62673,0 -14.17734,0c-10.0914,0 -10.35657,-5.9413 -10.35657,-9.38544z" fill="#80a374" stroke="none" stroke-width="0" stroke-linecap="butt" stroke-linejoin="miter"/><path d="M43.41639,232.10513v-22c0,0 3.22709,0 7.51195,0c17.80988,0 140.41274,0 212.03345,0c0.02177,0.86766 0.02439,6.7431 0.02034,12.20481c-0.00027,0.3577 -0.00056,0.71363 -0.00088,1.06625c-0.00411,4.53229 -0.01235,8.51984 -0.01732,8.72894z" fill="url(#color-19)" stroke="none" stroke-width="0" stroke-linecap="butt" stroke-linejoin="miter"/><path d="M43.51699,211.86224c0,0 -0.02698,0.32297 -0.04609,-1.1973c-0.14226,-12.98086 7.39156,-11.54604 12.82201,-11.54604c18.31743,0 126.34193,0 190.94752,0c0.08427,0.56076 0.21511,1.10627 0.38845,1.63249c0,2.00437 -0.12131,6.40426 0.05397,11.11086z" fill="#94bc85" stroke="none" stroke-width="0" stroke-linecap="butt" stroke-linejoin="miter"/><path d="M9.51952,105.22851c0,-48.09687 103.86186,-87.08708 231.98198,-87.08708c128.12012,0 231.98199,38.99021 231.98199,87.08709c0,48.09687 -103.86187,87.08709 -231.98199,87.08709c-128.12012,0 -231.98198,-38.99022 -231.98198,-87.08709z" fill="none" stroke="none" stroke-width="0" stroke-linecap="butt" stroke-linejoin="miter"/></g></g></svg>