<svg version="1.1" xmlns="http://www.w3.org/2000/svg" xmlns:xlink="http://www.w3.org/1999/xlink" width="617.26074" height="305.02951" viewBox="0,0,617.26074,305.02951"><defs><linearGradient x1="82.27339" y1="176.09894" x2="82.27339" y2="199.63463" gradientUnits="userSpaceOnUse" id="color-1"><stop offset="0" stop-color="#ecd284"/><stop offset="1" stop-color="#c5af6e"/></linearGradient><linearGradient x1="316.09389" y1="-15.58342" x2="315.39295" y2="7.94183" gradientUnits="userSpaceOnUse" id="color-2"><stop offset="0" stop-color="#ecd284"/><stop offset="1" stop-color="#c5af6e"/></linearGradient><linearGradient x1="210.79373" y1="230.30207" x2="209.46138" y2="253.80002" gradientUnits="userSpaceOnUse" id="color-3"><stop offset="0" stop-color="#ecd284"/><stop offset="1" stop-color="#c5af6e"/></linearGradient></defs><g transform="translate(174.7197,23.09253)"><g data-paper-data="{&quot;isPaintingLayer&quot;:true}" fill-rule="nonzero" stroke-linejoin="miter" stroke-miterlimit="10" stroke-dasharray="" stroke-dashoffset="0" style="mix-blend-mode: normal"><g data-paper-data="{&quot;index&quot;:null}" fill="none" stroke="#f6fbff" stroke-width="5" stroke-linecap="round"><path d="M346.34994,1.475l93.69111,-22.06752"/><path d="M343.30705,14.11387l93.69111,-22.06752"/><path d="M428.19063,-17.64776l-11.87741,14.38883l-22.15747,-5.57192"/><path d="M390.75899,-8.96293l-11.87741,14.38882l-22.15748,-5.57192"/></g><path d="" fill="none" stroke="none" stroke-width="0" stroke-linecap="butt"/><g data-paper-data="{&quot;index&quot;:null}" fill="none" stroke="#f6fbff" stroke-width="5" stroke-linecap="round"><path d="M53.56172,209.44622l-96,7"/><path d="M-47.43828,228.44623l96,-7"/><path d="M41.395,210.48326l-14,12.33333l-21,-9"/><path d="M3.06171,213.14993l-14,12.33333l-21,-9"/></g><path d="M121.97821,186.26013c0.00788,0.22168 1.49501,15.98585 2.39727,26.74723c0.46857,5.58866 -2.3386,10.11642 -7.11082,10.55774c-16.84726,1.558 -55.8213,5.16223 -63.18447,5.84316c-6.14167,0.56796 -8.90733,-4.20968 -9.25192,-7.93591c-0.61582,-6.65915 -2.57453,-27.83948 -2.57453,-27.83948z" data-paper-data="{&quot;index&quot;:null}" fill="#e4cb7f" stroke="none" stroke-width="0" stroke-linecap="butt"/><path d="M42.90857,201.04633l-1.22544,-13.25121l79.69616,-7.37012l1.22544,13.2512z" data-paper-data="{&quot;index&quot;:null}" fill="#b7a367" stroke="none" stroke-width="0" stroke-linecap="butt"/><path d="M43.30509,183.25865c7.50859,-0.69438 76.31278,-7.05724 76.31278,-7.05724c0,0 4.58746,-0.95234 4.94893,2.94954c0.20987,0.82964 0.94813,10.30324 0.94813,10.30324c0,0 0.0413,2.88308 -2.33938,3.16889c-2.44539,0.29357 -6.05046,0.26208 -9.90008,0.16942c-5.74746,-0.13834 -12.04002,-0.41302 -15.83214,0.05428c-12.44088,1.53308 -20.99351,0.73078 -33.42555,2.35128c-7.20346,0.93897 -16.52269,3.18236 -21.09324,4.34245c-1.72758,0.43849 -2.90768,-0.69392 -3.08302,-2.58991c-0.26391,-2.85374 -0.62835,-6.79455 -0.79807,-8.62985c-0.17586,-1.90169 1.6529,-4.82084 4.26166,-5.06209z" data-paper-data="{&quot;index&quot;:null}" fill="url(#color-1)" stroke="none" stroke-width="0" stroke-linecap="butt"/><path d="M80.56655,219.20596c0.25551,2.76292 -2.2739,5.25501 -4.61794,5.47178c-3.4289,0.3171 -13.26569,1.22678 -19.71631,1.82332c-3.46007,0.31998 -6.23775,-2.60631 -6.47857,-5.21041c-0.17366,-1.87792 -0.536,-5.79606 -0.79478,-8.5943c-0.23044,-2.49179 2.27624,-5.25523 5.98884,-5.59856c6.1554,-0.56924 14.98763,-1.38602 18.45244,-1.70644c2.97414,-0.27504 6.12361,2.53948 6.32477,4.71476c0.17764,1.92094 0.54272,5.86866 0.84153,9.09984z" data-paper-data="{&quot;index&quot;:null}" fill="#eed68f" stroke="none" stroke-width="NaN" stroke-linecap="butt"/><path d="M107.6581,213.52041c0.25551,2.76292 -2.2739,5.25501 -4.61794,5.47178c-3.4289,0.3171 -13.26569,1.22678 -19.71631,1.82332c-3.46007,0.31998 -6.23775,-2.60631 -6.47857,-5.21041c-0.17366,-1.87792 -0.536,-5.79606 -0.79478,-8.5943c-0.23044,-2.49179 2.27624,-5.25523 5.98884,-5.59856c6.1554,-0.56924 14.98763,-1.38602 18.45244,-1.70644c2.97414,-0.27504 6.12361,2.53948 6.32477,4.71476c0.17764,1.92094 0.54272,5.86866 0.84153,9.09984z" data-paper-data="{&quot;index&quot;:null}" fill="#e9d18c" stroke="none" stroke-width="NaN" stroke-linecap="butt"/><path d="M355.47846,-4.24424c0.00128,0.22182 1.01826,16.02329 1.59963,26.80676c0.30192,5.60014 -2.63885,10.04229 -7.42209,10.34129c-16.88619,1.05557 -55.95028,3.49747 -63.33046,3.9588c-6.15587,0.3848 -8.77801,-4.47309 -9.01147,-8.20793c-0.41723,-6.67453 -1.74427,-27.90381 -1.74427,-27.90381z" data-paper-data="{&quot;index&quot;:null}" fill="#e4cb7f" stroke="none" stroke-width="0" stroke-linecap="butt"/><path d="M276.00354,8.18052l-0.83025,-13.28183l79.88031,-4.99332l0.83026,13.28181z" data-paper-data="{&quot;index&quot;:null}" fill="#b7a367" stroke="none" stroke-width="0" stroke-linecap="butt"/><path d="M276.92966,-9.58745c7.52594,-0.47046 76.48911,-4.78136 76.48911,-4.78136c0,0 4.61379,-0.8153 4.85889,3.09562c0.18506,0.83553 0.64085,10.32691 0.64085,10.32691c0,0 -0.04459,2.88303 -2.43272,3.09781c-2.45305,0.22062 -6.05557,0.08178 -9.90073,-0.12549c-5.74079,-0.30945 -12.02238,-0.77141 -15.82674,-0.41726c-12.48102,1.16188 -21.00595,0.10522 -33.48074,1.35476c-7.22823,0.72402 -16.61014,2.68887 -21.21322,3.71232c-1.73987,0.38685 -2.88572,-0.78021 -3.00451,-2.68058c-0.17879,-2.86033 -0.42572,-6.81025 -0.5407,-8.64979c-0.11915,-1.90609 1.79574,-4.76946 4.41053,-4.93292z" data-paper-data="{&quot;index&quot;:null}" fill="url(#color-2)" stroke="none" stroke-width="0" stroke-linecap="butt"/><path d="M313.10399,27.45363c0.17311,2.7693 -2.42939,5.18496 -4.77886,5.33183c-3.43682,0.21484 -13.29634,0.83116 -19.76186,1.23532c-3.46807,0.21679 -6.15736,-2.79093 -6.32052,-5.40104c-0.11766,-1.88226 -0.36314,-5.80945 -0.53848,-8.61416c-0.15612,-2.49755 2.43174,-5.1851 6.15292,-5.41772c6.16962,-0.38567 15.02225,-0.93905 18.49507,-1.15613c2.98102,-0.18635 6.04527,2.72073 6.18155,4.90103c0.12036,1.92538 0.36769,5.88222 0.57014,9.12087z" data-paper-data="{&quot;index&quot;:null}" fill="#eed68f" stroke="none" stroke-width="NaN" stroke-linecap="butt"/><path d="M340.35285,22.57746c0.17311,2.7693 -2.42939,5.18496 -4.77885,5.33183c-3.43682,0.21484 -13.29633,0.83116 -19.76186,1.23532c-3.46807,0.21679 -6.15736,-2.79093 -6.32051,-5.40105c-0.11766,-1.88226 -0.36314,-5.80945 -0.53848,-8.61416c-0.15612,-2.49755 2.43174,-5.18511 6.15292,-5.41773c6.16962,-0.38567 15.02226,-0.93905 18.49508,-1.15613c2.98102,-0.18635 6.04526,2.72073 6.18154,4.90104c0.12036,1.92538 0.3677,5.88222 0.57015,9.12087z" data-paper-data="{&quot;index&quot;:null}" fill="#e9d18c" stroke="none" stroke-width="NaN" stroke-linecap="butt"/><g data-paper-data="{&quot;index&quot;:null}" fill="none" stroke="#f6fbff" stroke-width="5" stroke-linecap="round"><path d="M180.10585,253.06698l-96.12476,-5.00313"/><path d="M173.65114,264.35134l-96.12476,-5.00313"/><path d="M167.90467,252.58162l-15.42621,10.49491l-19.71651,-11.54379"/><path d="M129.53752,250.45637l-15.42621,10.49491l-19.71651,-11.54379"/></g><path d="M249.85965,242.69463c-0.00468,0.22177 0.58766,16.04485 0.87928,26.84005c0.15145,5.60622 -2.90753,9.96781 -7.69708,10.13827c-16.90844,0.60179 -56.02402,1.99395 -63.41393,2.25696c-6.16397,0.21937 -8.65474,-4.70717 -8.78784,-8.44693c-0.23786,-6.68333 -0.99443,-27.94058 -0.99443,-27.94058z" data-paper-data="{&quot;index&quot;:null}" fill="#e4cb7f" stroke="none" stroke-width="0" stroke-linecap="butt"/><path d="M170.07976,252.98104l-0.47333,-13.29933l79.98558,-2.84676l0.47333,13.29932z" data-paper-data="{&quot;index&quot;:null}" fill="#b7a367" stroke="none" stroke-width="0" stroke-linecap="butt"/><path d="M171.48259,235.24433c7.53586,-0.26821 76.58991,-2.72591 76.58991,-2.72591c0,0 4.63401,-0.69112 4.77402,3.22497c0.16257,0.84019 0.36335,10.34039 0.36335,10.34039c0,0 -0.12198,2.88079 -2.51502,3.03138c-2.45809,0.15467 -6.05559,-0.08085 -9.8938,-0.39129c-5.73041,-0.46348 -11.99733,-1.09394 -15.80982,-0.84205c-12.50772,0.82635 -21.00121,-0.45882 -33.50505,0.45531c-7.24506,0.52968 -16.67635,2.24192 -21.30524,3.14141c-1.74963,0.33999 -2.86373,-0.85741 -2.93146,-2.76028c-0.10194,-2.8641 -0.24271,-6.81922 -0.30826,-8.66119c-0.06792,-1.9086 1.92315,-4.71954 4.54139,-4.81272z" data-paper-data="{&quot;index&quot;:null}" fill="url(#color-3)" stroke="none" stroke-width="0" stroke-linecap="butt"/><path d="M206.64935,273.24334c0.09869,2.77295 -2.56774,5.11786 -4.92029,5.20159c-3.44135,0.12248 -13.31386,0.47385 -19.78791,0.70427c-3.47264,0.12359 -6.08021,-2.95525 -6.17322,-5.5688c-0.06707,-1.88474 -0.20703,-5.81711 -0.30699,-8.62551c-0.08901,-2.50084 2.57008,-5.11795 6.29617,-5.25056c6.17775,-0.21987 15.04206,-0.53536 18.51945,-0.65912c2.98494,-0.10623 5.97003,2.88206 6.04773,5.06524c0.06861,1.92792 0.20963,5.88997 0.32504,9.13289z" data-paper-data="{&quot;index&quot;:null}" fill="#eed68f" stroke="none" stroke-width="NaN" stroke-linecap="butt"/><path d="M234.01931,269.10053c0.09869,2.77295 -2.56774,5.11786 -4.92029,5.20159c-3.44135,0.12248 -13.31386,0.47385 -19.78791,0.70427c-3.47264,0.12359 -6.08021,-2.95525 -6.17322,-5.5688c-0.06707,-1.88474 -0.20703,-5.81711 -0.30699,-8.62551c-0.08901,-2.50084 2.57008,-5.11795 6.29617,-5.25056c6.17775,-0.21987 15.04206,-0.53536 18.51945,-0.65912c2.98494,-0.10623 5.97003,2.88206 6.04773,5.06524c0.06861,1.92792 0.20963,5.88997 0.32504,9.13289z" data-paper-data="{&quot;index&quot;:null}" fill="#e9d18c" stroke="none" stroke-width="NaN" stroke-linecap="butt"/><g data-paper-data="{&quot;index&quot;:null}" fill="none" stroke="#f6fbff" stroke-width="5" stroke-linecap="round"><path d="M97.35977,248.47488l-96.12476,-5.00313"/><path d="M90.90507,259.75925l-96.12476,-5.00313"/><path d="M85.1586,247.98952l-15.42621,10.49491l-19.71651,-11.54379"/><path d="M46.79147,245.86428l-15.42621,10.49491l-19.71651,-11.5438"/></g><g data-paper-data="{&quot;index&quot;:null}" fill="none" stroke="#f6fbff" stroke-width="5" stroke-linecap="round"><path d="M13.10585,245.06698l-96.12476,-5.00313"/><path d="M-89.47362,251.34821l96.12476,5.00314"/><path d="M0.90467,244.58162l-15.42621,10.49491l-19.71652,-11.54379"/><path d="M-37.46246,242.45638l-15.42621,10.4949l-19.71651,-11.54379"/></g><g data-paper-data="{&quot;index&quot;:null}" fill="none" stroke="#f6fbff" stroke-width="5" stroke-linecap="round"><path d="M-165.76499,235.47176l96.12476,5.00313"/><path d="M-76.09494,251.75925l-96.12476,-5.00313"/><path d="M-81.8414,239.98952l-15.42621,10.49491l-19.71651,-11.54379"/><path d="M-120.20853,237.86428l-15.42621,10.49491l-19.71651,-11.54379"/></g></g></g></svg>