<svg version="1.1" xmlns="http://www.w3.org/2000/svg" xmlns:xlink="http://www.w3.org/1999/xlink" width="442.97481" height="247.38634" viewBox="0,0,442.97481,247.38634"><defs><linearGradient x1="309.3821" y1="211.67349" x2="309.3821" y2="399.54315" gradientUnits="userSpaceOnUse" id="color-1"><stop offset="0" stop-color="#7e7463"/><stop offset="1" stop-color="#847c6b"/></linearGradient><linearGradient x1="309.76919" y1="226.37533" x2="309.76919" y2="259.44238" gradientUnits="userSpaceOnUse" id="color-2"><stop offset="0" stop-color="#454037"/><stop offset="1" stop-color="#454037" stop-opacity="0"/></linearGradient><linearGradient x1="303.58151" y1="210.102" x2="303.58151" y2="232.102" gradientUnits="userSpaceOnUse" id="color-3"><stop offset="0" stop-color="#95bd86"/><stop offset="1" stop-color="#80a374"/></linearGradient><linearGradient x1="173.25472" y1="211.67649" x2="173.25472" y2="399.54615" gradientUnits="userSpaceOnUse" id="color-4"><stop offset="0" stop-color="#7e7463"/><stop offset="1" stop-color="#847c6b"/></linearGradient><linearGradient x1="172.86763" y1="226.37833" x2="172.86763" y2="259.44538" gradientUnits="userSpaceOnUse" id="color-5"><stop offset="0" stop-color="#454037"/><stop offset="1" stop-color="#454037" stop-opacity="0"/></linearGradient><linearGradient x1="179.0553" y1="210.105" x2="179.0553" y2="232.105" gradientUnits="userSpaceOnUse" id="color-6"><stop offset="0" stop-color="#95bd86"/><stop offset="1" stop-color="#80a374"/></linearGradient></defs><g transform="translate(-43.41637,-102.52251)"><g data-paper-data="{&quot;isPaintingLayer&quot;:true}" fill-rule="nonzero" stroke="none" stroke-width="0" stroke-linecap="butt" stroke-linejoin="miter" stroke-miterlimit="10" stroke-dasharray="" stroke-dashoffset="0" style="mix-blend-mode: normal"><path d="M234.92084,239.14027c0,-2.39881 -0.02418,-7.46553 -0.03541,-12.66598c-0.01324,-6.13337 -0.00846,-12.45274 0.07528,-14.80077h197.7833v132.44072c-17.67898,0.39773 -35.33555,0.85616 -53.02475,0.90873c-17.72638,1.5935 -35.81456,4.51559 -53.60091,4.49423c-3.50349,-0.00421 -7.00702,0 -10.51051,0c-1.23937,0 -2.5325,0.65881 -3.70848,0.26751c-1.06191,-0.35335 -1.8973,-1.3285 -3.003,-1.5015c-8.82454,-1.38068 -17.9294,0.50666 -26.63118,1.23879c-7.7893,0.65536 -15.59439,-1.12938 -23.40235,-1.50143c-7.57787,-0.36108 -15.55672,-0.24785 -23.11423,0.07005c-0.65281,-0.1632 -1.30779,-0.31234 -1.96475,-0.44832c0.50132,-44.16003 1.137,-101.52975 1.137,-108.50204z" fill="url(#color-1)"/><path d="M270.0644,229.5413h43v120.35197c-0.39667,0.03451 -0.78691,0.01726 -1.16504,-0.10856c-1.06191,-0.35335 -1.8973,-1.3285 -3.003,-1.5015c-8.82454,-1.38068 -17.9294,0.50666 -26.63118,1.23879c-4.06324,0.34186 -8.13077,0.01975 -12.20077,-0.41946z" fill="#7c7464"/><path d="M353.73102,229.54131h43v115.32123c-5.66844,0.08496 -11.33842,0.14357 -17.01176,0.16044c-8.60282,0.77335 -17.29085,1.85961 -25.98824,2.77048z" fill="#7c7464"/><path d="M234.92084,259.44239c0,-6.76737 0,-13.53474 0,-20.30211c0,-4.35154 2.12533,-8.68456 1.03328,-12.7895l182.24949,-0.09417c0,0 14.95657,5.6956 14.95657,7.26319c0,4.86621 -0.09279,25.92258 -0.09279,25.92258z" fill="url(#color-2)"/><path d="M234.95399,211.85911c0.17528,-4.7066 0.05397,-9.10649 0.05397,-11.11086c0.17334,-0.52622 0.30418,-1.07173 0.38845,-1.63249c64.60559,0 172.63009,0 190.94752,0c5.43045,0 12.96427,-1.43482 12.82201,11.54604c-0.01911,1.52027 -0.04609,1.1973 -0.04609,1.1973z" fill="#94bc85"/><path d="M439.18724,236.102c0,3.44414 -0.26517,9.38544 -10.35657,9.38544c-4.55061,0 -8.06763,0 -14.17734,0c-16.74431,0 -63.74622,0 -112.38018,0c-29.00557,0 -58.59166,0 -82.68561,0c0,-2.11572 0,-4.23144 0,-6.34716c0,-5.22796 0.0526,-16.69466 0.0526,-16.69466l219.54709,-0.41477c0,0 0,9.85402 0,14.07115z" fill="#80a374"/><path d="M219.67291,232.102c-0.00497,-0.2091 -0.01321,-4.19665 -0.01732,-8.72894c-0.00032,-0.35262 -0.00061,-0.70855 -0.00088,-1.06625c-0.00405,-5.46171 -0.00143,-11.33715 0.02034,-12.20481c71.62071,0 194.22357,0 212.03345,0c4.28486,0 7.51195,0 7.51195,0v22z" fill="url(#color-3)"/><path d="M49.89281,211.67652h197.7833c0.08374,2.34803 0.08852,8.6674 0.07528,14.80077c-0.01123,5.20045 -0.03541,10.26717 -0.03541,12.66598c0,6.98024 0.63713,64.473 1.13872,108.65315c-4.40424,-0.0004 -8.82285,0.11403 -13.10611,0.2942c-13.18817,-3.29704 -27.26339,-0.85567 -40.61733,-0.06857c-8.81535,0.51959 -17.83691,-0.00636 -26.67057,-0.00636c-4.5045,0 -9.01029,-0.10741 -13.51351,0c-1.23902,0.02955 -2.48954,0.49163 -3.70848,0.26751c-1.1007,-0.20238 -1.90163,-1.30279 -3.003,-1.5015c-4.91944,-0.88756 -10.76543,-0.26751 -15.81104,-0.26751c-1.21816,0.46192 -2.44458,-0.91802 -3.70848,-1.23399c-0.97111,-0.24278 -2.03189,0.24278 -3.003,0c-1.08574,-0.27143 -1.90841,-1.26831 -3.003,-1.5015c-1.67422,-0.35668 -8.92685,-0.35668 -10.60106,0c-1.09459,0.23319 -1.9023,1.29912 -3.003,1.5015c-3.18598,0.58578 -6.47509,-0.26751 -9.71448,-0.26751c-5.25647,0 -11.28678,0.7201 -16.4162,0.12913c-1.57232,-0.18115 -2.94015,-1.2611 -4.5045,-1.5015c-1.42398,-0.21883 -10.20463,-0.08465 -11.80029,-0.12426c-5.60109,-0.13904 -11.18902,-0.57829 -16.77782,-0.9983z" fill="url(#color-4)"/><path d="M169.57242,229.5443h43v117.1361c-5.8618,0.36308 -11.71773,1.00431 -17.44117,1.34165c-8.44586,0.49781 -17.081,0.0359 -25.55883,-0.0037z" fill="#7c7464"/><path d="M85.9058,229.54431h43v115.79102c-0.06312,-0.0208 -0.12632,-0.03929 -0.18962,-0.05512c-0.97111,-0.24278 -2.03189,0.24278 -3.003,0c-1.08574,-0.27143 -1.90841,-1.26831 -3.003,-1.5015c-1.67422,-0.35668 -8.92685,-0.35668 -10.60106,0c-1.09459,0.23319 -1.9023,1.29912 -3.003,1.5015c-3.18598,0.58578 -6.47509,-0.26751 -9.71448,-0.26751c-4.28349,0 -9.08085,0.47819 -13.48582,0.33542z" fill="#7c7464"/><path d="M49.56943,259.44538c0,0 -0.09279,-21.05637 -0.09279,-25.92258c0,-1.56759 14.95657,-7.26319 14.95657,-7.26319l182.24949,0.09417c-1.09205,4.10494 1.03328,8.43796 1.03328,12.7895c0,6.76737 0,13.53474 0,20.30211z" fill="url(#color-5)"/><path d="M43.51697,211.8621c0,0 -0.02698,0.32297 -0.04609,-1.1973c-0.14226,-12.98086 7.39156,-11.54604 12.82201,-11.54604c18.31743,0 126.34193,0 190.94752,0c0.08427,0.56076 0.21511,1.10627 0.38845,1.63249c0,2.00437 -0.12131,6.40426 0.05397,11.11086z" fill="#94bc85"/><path d="M43.44959,236.105c0,-4.21713 0,-14.07115 0,-14.07115l219.54709,0.41477c0,0 0.0526,11.4667 0.0526,16.69466c0,2.11572 0,4.23144 0,6.34716c-24.09395,0 -53.68004,0 -82.68561,0c-48.63396,0 -95.63587,0 -112.38018,0c-6.10971,0 -9.62673,0 -14.17734,0c-10.0914,0 -10.35657,-5.9413 -10.35657,-9.38544z" fill="#80a374"/><path d="M43.41637,232.105v-22c0,0 3.22709,0 7.51195,0c17.80988,0 140.41274,0 212.03345,0c0.02177,0.86766 0.02439,6.7431 0.02034,12.20481c-0.00027,0.3577 -0.00056,0.71363 -0.00088,1.06625c-0.00411,4.53229 -0.01235,8.51984 -0.01732,8.72894z" fill="url(#color-6)"/><path d="M364.76955,308.22822v-205.70571h121.62162v205.70571z" fill="none"/></g></g></svg>