<svg version="1.1" xmlns="http://www.w3.org/2000/svg" xmlns:xlink="http://www.w3.org/1999/xlink" width="155.01201" height="67.0395" viewBox="0,0,155.01201,67.0395"><g transform="translate(-162.494,-146.48025)"><g data-paper-data="{&quot;isPaintingLayer&quot;:true}" fill-rule="nonzero" stroke-linejoin="miter" stroke-miterlimit="10" stroke-dasharray="" stroke-dashoffset="0" style="mix-blend-mode: normal"><path d="M162.494,205.39375c0,-14.42821 0,-43.73133 0,-51.46467c0,-3.66878 3.64948,-7.44883 7.94934,-7.44883c15.5113,0 108.45108,0 138.02934,0c5.68841,0 9.03333,3.97715 9.03333,7.78742c0,7.94447 0,37.7329 0,51.80325c0,4.54413 -3.20355,7.44883 -8.672,7.44883c-29.17464,0 -122.81565,0 -138.39067,0c-4.29986,0 -7.94934,-3.19392 -7.94934,-8.126z" data-paper-data="{&quot;index&quot;:null}" fill="#ffffff" stroke="none" stroke-width="NaN" stroke-linecap="butt"/><path d="M183.59912,167.52269c0,-0.97259 0.14284,-1.96038 0.42855,-2.96336c0.2857,-1.00298 0.7264,-1.86919 1.32211,-2.59863c1.27045,-1.623 3.07581,-2.43451 5.4161,-2.43451c1.32515,0 2.60472,0.28873 3.83868,0.86621c0.49845,0.20059 0.74767,0.5562 0.74767,1.0668c0,0.84493 -0.3708,1.2826 -1.1124,1.31299c-0.13981,0 -0.2705,-0.01519 -0.39208,-0.04559c-1.1975,-0.41943 -2.13057,-0.62914 -2.79923,-0.62914c-0.66865,0 -1.21877,0.07295 -1.65036,0.21884c-0.43159,0.13981 -0.80542,0.33736 -1.12152,0.59267c-0.31609,0.24922 -0.5866,0.54404 -0.81151,0.88445c-0.22491,0.33433 -0.40423,0.71425 -0.53797,1.13975c-0.2857,0.81454 -0.42855,1.67772 -0.42855,2.58951c0,1.47104 0.32217,2.70501 0.96651,3.70192c0.72944,1.12456 1.86615,1.68683 3.41014,1.68683c1.09416,0 2.16097,-0.30089 3.20042,-0.90268c0.21884,-0.06079 0.44071,-0.09118 0.66562,-0.09118c0.22491,0 0.44071,0.11245 0.64738,0.33736c0.21275,0.21884 0.31913,0.48933 0.31913,0.81151c0,0.32217 -0.10333,0.60179 -0.31001,0.83886c-0.20059,0.23707 -0.44071,0.43159 -0.72032,0.58355c-0.27354,0.15196 -0.56836,0.2857 -0.88445,0.40119c-0.31609,0.11549 -0.6413,0.20971 -0.97563,0.28266c-0.71728,0.19452 -1.40113,0.29178 -2.05155,0.29178c-2.35853,0 -4.16389,-0.80542 -5.4161,-2.41627c-1.1671,-1.42241 -1.75066,-3.26425 -1.75066,-5.52552zM197.44626,169.69278c0,-0.69297 0.11245,-1.38897 0.33736,-2.08803c0.22491,-0.69904 0.56836,-1.33123 1.03033,-1.89654c0.99691,-1.20966 2.39196,-1.81449 4.18516,-1.81449c1.79929,0 3.19434,0.60787 4.18516,1.8236c0.9118,1.11847 1.36771,2.43451 1.36771,3.9481c0,1.52574 -0.4559,2.84178 -1.36771,3.94811c-0.99082,1.23397 -2.38588,1.85096 -4.18516,1.85096c-1.79321,0 -3.18827,-0.61395 -4.18516,-1.84184c-0.9118,-1.09416 -1.36771,-2.40412 -1.36771,-3.92986zM200.15431,169.69278c0,0.38904 0.05167,0.79935 0.15501,1.23094c0.10942,0.43159 0.29785,0.82974 0.56532,1.19446c0.51669,0.7416 1.22485,1.1124 2.1245,1.1124c0.95435,0 1.65948,-0.36168 2.11538,-1.08505c0.46806,-0.7416 0.70209,-1.5683 0.70209,-2.4801c0,-0.93612 -0.23099,-1.74154 -0.69297,-2.41627c-0.48022,-0.74767 -1.18838,-1.12152 -2.1245,-1.12152c-0.89965,0 -1.60781,0.37992 -2.1245,1.13975c-0.48022,0.65042 -0.72032,1.45888 -0.72032,2.42539zM210.0346,165.34349c0,-0.38296 0.13981,-0.68689 0.41943,-0.9118c0.27962,-0.23099 0.56836,-0.34648 0.86621,-0.34648c0.60179,0 0.9817,0.21275 1.13975,0.63826c0.15805,0.4255 0.04559,0.94523 -0.33736,1.55918c-0.04255,-0.75984 0.34648,-1.36466 1.1671,-1.81449c0.69904,-0.38296 1.38897,-0.57443 2.06979,-0.57443c0.68689,0 1.27348,0.08814 1.75977,0.26442c0.48629,0.17021 0.93308,0.43766 1.34034,0.80239c0.82062,0.77807 1.23094,1.89959 1.23094,3.36455v5.68964c0,0.41943 -0.15196,0.72944 -0.4559,0.93004c-0.29785,0.20059 -0.59267,0.30089 -0.88445,0.30089c-0.33433,0 -0.63522,-0.10942 -0.90268,-0.32825c-0.26138,-0.21884 -0.39208,-0.51973 -0.39208,-0.90268v-5.79906c0,-0.70513 -0.18236,-1.23397 -0.54708,-1.58653c-0.34041,-0.33433 -0.76591,-0.50149 -1.27652,-0.50149c-0.7416,0 -1.37074,0.20971 -1.88743,0.62914c-0.49237,0.43766 -0.73856,1.13975 -0.73856,2.10626v5.15168c0,0.41943 -0.14589,0.72944 -0.43766,0.93004c-0.2857,0.20059 -0.5866,0.30089 -0.90268,0.30089c-0.34041,0 -0.63218,-0.11245 -0.87533,-0.33736c-0.23707,-0.22491 -0.3556,-0.52276 -0.3556,-0.89356zM221.86666,165.34349c0,-0.38296 0.13981,-0.68689 0.41943,-0.9118c0.27962,-0.23099 0.56836,-0.34648 0.86621,-0.34648c0.60179,0 0.9817,0.21275 1.13975,0.63826c0.15805,0.4255 0.04559,0.94523 -0.33736,1.55918c-0.04255,-0.75984 0.34648,-1.36466 1.1671,-1.81449c0.69904,-0.38296 1.38897,-0.57443 2.06979,-0.57443c0.68689,0 1.27348,0.08814 1.75977,0.26442c0.48629,0.17021 0.93308,0.43766 1.34034,0.80239c0.82062,0.77807 1.23094,1.89959 1.23094,3.36455v5.68964c0,0.41943 -0.15196,0.72944 -0.4559,0.93004c-0.29785,0.20059 -0.59267,0.30089 -0.88445,0.30089c-0.33433,0 -0.63522,-0.10942 -0.90268,-0.32825c-0.26138,-0.21884 -0.39208,-0.51973 -0.39208,-0.90268v-5.79906c0,-0.70513 -0.18236,-1.23397 -0.54708,-1.58653c-0.34041,-0.33433 -0.76591,-0.50149 -1.27652,-0.50149c-0.7416,0 -1.37074,0.20971 -1.88743,0.62914c-0.49237,0.43766 -0.73856,1.13975 -0.73856,2.10626v5.15168c0,0.41943 -0.14589,0.72944 -0.43766,0.93004c-0.2857,0.20059 -0.5866,0.30089 -0.90268,0.30089c-0.34041,0 -0.63218,-0.11245 -0.87533,-0.33736c-0.23707,-0.22491 -0.3556,-0.52276 -0.3556,-0.89356zM243.72853,169.36453c0,0.67474 -0.36776,1.0425 -1.10328,1.10329h-6.87498c0.0547,1.27652 0.65953,2.14578 1.81449,2.60775c0.31001,0.10333 0.68385,0.15501 1.12152,0.15501c0.89965,0 1.83272,-0.34041 2.79923,-1.02122c0.541,-0.31001 1.0121,-0.2705 1.41329,0.11854c0.23707,0.25531 0.31609,0.50453 0.23707,0.74767c0,0.34041 -0.11245,0.6109 -0.33736,0.81151c-1.06985,1.06377 -2.47706,1.58958 -4.22164,1.57742c-1.60477,0 -2.89952,-0.52276 -3.88427,-1.5683c-1.09416,-1.07593 -1.64124,-2.48618 -1.64124,-4.23076c0,-1.59869 0.44678,-2.92688 1.34034,-3.98457c0.96043,-1.19142 2.30078,-1.78713 4.02104,-1.78713c1.72026,0 3.04238,0.52885 3.96634,1.58653c0.86317,0.94219 1.31299,2.23695 1.34946,3.88427zM241.15725,168.40714c-0.0304,-0.51061 -0.29178,-1.03642 -0.78415,-1.57742c-0.44374,-0.46806 -1.0972,-0.70209 -1.96038,-0.70209c-0.71728,0 -1.33123,0.26747 -1.84184,0.80239c-0.47413,0.55316 -0.7264,1.04553 -0.75679,1.47711zM244.58723,169.66543c0,-1.60477 0.45894,-2.94208 1.37682,-4.01192c1.00905,-1.17319 2.32206,-1.75977 3.93899,-1.75977c1.36162,0 2.41627,0.29482 3.16395,0.88445c0.32217,0.23099 0.48325,0.51973 0.48325,0.86621c0,0.34041 -0.1003,0.61699 -0.30089,0.82974c-0.19452,0.21275 -0.4255,0.31913 -0.69297,0.31913c-0.26747,0 -0.4711,-0.0547 -0.6109,-0.16412c-0.58963,-0.33433 -1.21877,-0.49541 -1.88743,-0.48325c-0.82062,0 -1.46496,0.30697 -1.93302,0.92091c-0.55316,0.66865 -0.82974,1.53486 -0.82974,2.59863c0,0.99691 0.20059,1.83273 0.60179,2.50746c0.43766,0.70513 1.15799,1.05769 2.16097,1.05769c0.57139,0 1.2826,-0.20364 2.13362,-0.6109c0.46806,-0.27354 0.87837,-0.20668 1.23094,0.20059c0.19452,0.19452 0.29178,0.45894 0.29178,0.79327c0,0.32825 -0.15805,0.62002 -0.47413,0.87533c-0.31609,0.25531 -0.66257,0.44374 -1.03945,0.56532c-0.83278,0.2857 -1.65036,0.4255 -2.45274,0.41943c-0.79631,-0.00607 -1.52271,-0.15805 -2.1792,-0.4559c-0.6565,-0.30394 -1.20357,-0.74464 -1.64124,-1.32211c-0.89356,-1.06985 -1.34034,-2.41323 -1.34034,-4.03016zM261.54435,174.16972c0,0.86317 -0.79631,1.29476 -2.38892,1.29476c-1.10632,0 -1.90566,-0.32521 -2.39804,-0.97563c-0.48629,-0.63218 -0.75072,-1.6382 -0.79327,-3.01806v-5.1608h-0.70209c-0.35256,0 -0.63826,-0.11549 -0.85709,-0.34648c-0.21275,-0.23099 -0.31913,-0.48325 -0.31913,-0.75679c0,-0.24922 0.09118,-0.49845 0.27354,-0.74767c0.18844,-0.24922 0.48933,-0.37384 0.90268,-0.37384h0.82974l0.08207,-2.46186c0.06079,-0.36472 0.21884,-0.6413 0.47413,-0.82974c0.26138,-0.18844 0.53797,-0.28266 0.82974,-0.28266c0.29178,0 0.55012,0.1003 0.77503,0.30089c0.22491,0.19452 0.33736,0.48022 0.33736,0.85709v2.41627h1.36771c0.3708,0 0.6565,0.12461 0.85709,0.37384c0.20059,0.24315 0.30089,0.49237 0.30089,0.74767c0,0.31609 -0.10637,0.58051 -0.31913,0.79327c-0.20668,0.20668 -0.48629,0.31001 -0.83886,0.31001h-1.36771v4.26723c0,1.27045 0.0304,2.00292 0.09118,2.19744c0.06687,0.18844 0.15196,0.31305 0.25531,0.37384c0.10333,0.0547 0.25226,0.08207 0.44678,0.08207l1.03945,-0.08207c0.36472,0 0.6413,0.11549 0.82974,0.34648c0.19452,0.23099 0.29178,0.4559 0.29178,0.67474zM272.43673,169.36453c0,0.67474 -0.36776,1.0425 -1.10328,1.10329h-6.87498c0.0547,1.27652 0.65953,2.14578 1.81449,2.60775c0.31001,0.10333 0.68385,0.15501 1.12152,0.15501c0.89965,0 1.83272,-0.34041 2.79923,-1.02122c0.541,-0.31001 1.0121,-0.2705 1.41329,0.11854c0.23707,0.25531 0.31609,0.50453 0.23707,0.74767c0,0.34041 -0.11245,0.6109 -0.33736,0.81151c-1.06985,1.06377 -2.47706,1.58958 -4.22164,1.57742c-1.60477,0 -2.89952,-0.52276 -3.88427,-1.5683c-1.09416,-1.07593 -1.64124,-2.48618 -1.64124,-4.23076c0,-1.59869 0.44678,-2.92688 1.34034,-3.98457c0.96043,-1.19142 2.30078,-1.78713 4.02104,-1.78713c1.72026,0 3.04238,0.52885 3.96634,1.58653c0.86317,0.94219 1.31299,2.23695 1.34946,3.88427zM269.86546,168.40714c-0.0304,-0.51061 -0.29178,-1.03642 -0.78415,-1.57742c-0.44374,-0.46806 -1.0972,-0.70209 -1.96038,-0.70209c-0.71728,0 -1.33123,0.26747 -1.84184,0.80239c-0.47413,0.55316 -0.7264,1.04553 -0.75679,1.47711zM281.41955,174.01472c-0.52276,0.96651 -1.6382,1.44976 -3.34631,1.44976c-1.56222,0 -2.78706,-0.62611 -3.67452,-1.87831c-0.73552,-1.08808 -1.10328,-2.395 -1.10328,-3.92074c0,-2.58951 0.8814,-4.34321 2.64419,-5.26109c0.60179,-0.34041 1.20357,-0.51061 1.80537,-0.51061c0.60787,0 1.10936,0.03647 1.50448,0.10942c0.39511,0.06687 0.77503,0.20059 1.13975,0.40119c0.75376,0.37688 1.10024,0.63826 1.03945,0.78415l-0.19147,-4.26723c0,-0.43766 0.14589,-0.75376 0.43766,-0.94828c0.29178,-0.19452 0.59267,-0.29178 0.90268,-0.29178c0.32825,0 0.62306,0.1003 0.88445,0.30089c0.26747,0.19452 0.40119,0.50757 0.40119,0.93916v13.09347c0,0.41336 -0.14284,0.72337 -0.42855,0.93004c-0.2857,0.20059 -0.53797,0.30089 -0.75679,0.30089c-0.21275,0 -0.40119,-0.02128 -0.56532,-0.06382c-0.16412,-0.04863 -0.31001,-0.13677 -0.43766,-0.26442c-0.29178,-0.20059 -0.43766,-0.50149 -0.43766,-0.90268zM278.39237,173.23057c1.86007,0 2.79011,-1.24309 2.79011,-3.72927c0,-1.60477 -0.4559,-2.64118 -1.36771,-3.10924c-0.34648,-0.17628 -0.76591,-0.26442 -1.25829,-0.26442c-0.48629,0 -0.88445,0.09118 -1.19446,0.27354c-0.30394,0.17628 -0.55924,0.42247 -0.76591,0.73856c-0.39511,0.62002 -0.59267,1.41634 -0.59267,2.38892c0,1.45888 0.33129,2.51961 0.99386,3.18219c0.33433,0.34648 0.79935,0.51973 1.39506,0.51973zM291.16716,170.57723c-0.35864,0 -0.65042,-0.11854 -0.87533,-0.3556c-0.22491,-0.24315 -0.33736,-0.53492 -0.33736,-0.87533c0,-0.34041 0.11854,-0.62306 0.3556,-0.84798c0.24315,-0.22491 0.52885,-0.33736 0.85709,-0.33736h3.99369c0.34648,0 0.63826,0.11245 0.87533,0.33736c0.24315,0.22491 0.36472,0.50757 0.36472,0.84798c0,0.34041 -0.11549,0.63218 -0.34648,0.87533c-0.22491,0.23707 -0.52276,0.3556 -0.89356,0.3556z" fill="#000000" stroke="#000000" stroke-width="0" stroke-linecap="square"/><path d="M198.47903,195.82283c0.37444,0.47879 0.87165,0.85016 1.49162,1.11411c0.61998,0.25781 1.4241,0.38672 2.41237,0.38672c0.98827,0 1.86913,-0.1197 2.64256,-0.3591v-3.65539h-2.43999c-0.36216,0 -0.65066,-0.12277 -0.8655,-0.3683c-0.21484,-0.24554 -0.32227,-0.50949 -0.32227,-0.79184c0,-0.32533 0.09821,-0.60156 0.29464,-0.82867c0.19643,-0.22712 0.49413,-0.34068 0.89313,-0.34068h3.98686c0.84709,0 1.27064,0.41434 1.27064,1.24302v5.42323c0,0.77957 -0.36216,1.22767 -1.08649,1.3443c-1.68191,0.51562 -3.15512,0.77343 -4.41961,0.77343c-1.2645,0 -2.37862,-0.16573 -3.34234,-0.49721c-0.96372,-0.33148 -1.77705,-0.82867 -2.43999,-1.49162c-1.43637,-1.43024 -2.15457,-3.45896 -2.15457,-6.08617c0,-2.20367 0.65373,-4.05131 1.9612,-5.54293c1.35658,-1.6328 3.30551,-2.45841 5.84678,-2.47682c1.61438,0 3.07839,0.26701 4.39199,0.80105c0.42968,0.25781 0.64453,0.57087 0.64453,0.93917c0,0.3683 -0.09821,0.69056 -0.29464,0.96679c-0.19643,0.27009 -0.47572,0.40513 -0.83788,0.40513h-0.11049c-0.07979,0 -0.20871,-0.02455 -0.38672,-0.07366c-0.17801,-0.04911 -0.41741,-0.10435 -0.71819,-0.16573c-0.30078,-0.06138 -0.6077,-0.1197 -0.92076,-0.17494c-0.69977,-0.10435 -1.25222,-0.15653 -1.65736,-0.15653c-1.68805,0 -2.95869,0.54938 -3.81191,1.64815c-0.39285,0.51562 -0.67828,1.12332 -0.8563,1.82309c-0.17801,0.69364 -0.26701,1.41796 -0.26701,2.17298c0,0.74888 0.089,1.47627 0.26701,2.18219c0.17801,0.70591 0.45423,1.30133 0.82867,1.78626zM215.61596,192.30555c0.38672,0 0.60462,0 0.65373,0v-0.34989c0,-1.08035 -0.62304,-1.62053 -1.86913,-1.62053c-0.64453,0 -1.10183,0.05217 -1.37192,0.15653c-0.55245,0.20256 -0.96679,0.38978 -1.24302,0.56166c-0.27622,0.16573 -0.54325,0.2486 -0.80105,0.2486c-0.25167,0 -0.49107,-0.09821 -0.71819,-0.29464c-0.22712,-0.19643 -0.34068,-0.45731 -0.34068,-0.78264c0,-0.29464 0.13505,-0.55859 0.40513,-0.79184c0.93917,-0.90234 2.30495,-1.3535 4.09735,-1.3535c2.13001,0 3.50807,0.74274 4.13418,2.22822c0.20256,0.51562 0.30385,1.10183 0.30385,1.75864l-0.05524,6.26112c0,0.39285 -0.13505,0.69364 -0.40513,0.90234c-0.27009,0.20871 -0.55553,0.31306 -0.8563,0.31306c-0.30078,0 -0.58928,-0.089 -0.8655,-0.26701c-0.27622,-0.18415 -0.41434,-0.49413 -0.41434,-0.92996h0.27622c-0.06753,0.577 -0.7366,1.00055 -2.00724,1.27064c-0.37444,0.09821 -0.80105,0.14732 -1.27984,0.14732c-0.47879,0 -0.96065,-0.07366 -1.44558,-0.22098c-0.47879,-0.14118 -0.90541,-0.3683 -1.27984,-0.68136c-0.78571,-0.65681 -1.17856,-1.54072 -1.17856,-2.65176c0,-2.60266 2.08704,-3.904 6.26112,-3.904zM216.38019,194.45091c-0.01841,0.07366 -0.22098,0.11049 -0.6077,0.11049c-0.38672,0 -0.77037,0.00613 -1.15094,0.01841c-0.38058,0.00613 -0.73354,0.04604 -1.05887,0.1197c-0.31919,0.06753 -0.60462,0.17188 -0.8563,0.31306c-0.45423,0.23939 -0.69364,0.63225 -0.71819,1.17856c0,0.39899 0.16881,0.71512 0.50642,0.94838c0.28237,0.23326 0.70284,0.35602 1.26143,0.3683c0.68749,0 1.27984,-0.21791 1.77705,-0.65373c0.44196,-0.41127 0.68749,-1.05272 0.7366,-1.92437zM230.00906,190.05891c0.64453,-1.31975 1.8722,-1.97962 3.68301,-1.97962c1.89675,0 3.16739,0.81026 3.81191,2.43079c0.22098,0.577 0.33148,1.23994 0.33148,1.98882v5.80075c0,0.41741 -0.14118,0.73047 -0.42355,0.93917c-0.28237,0.20256 -0.57394,0.30385 -0.87471,0.30385c-0.33148,0 -0.63839,-0.10742 -0.92076,-0.32227c-0.27622,-0.22098 -0.41434,-0.5279 -0.41434,-0.92076v-5.91123c0,-0.69364 -0.18415,-1.22767 -0.55245,-1.60211c-0.33148,-0.30078 -0.77957,-0.45117 -1.3443,-0.45117c-1.15402,0 -1.93665,0.46344 -2.34792,1.39033c-0.16573,0.35602 -0.2486,0.79492 -0.2486,1.31667v5.2575c0,0.41741 -0.14118,0.73047 -0.42355,0.93917c-0.28237,0.20256 -0.57394,0.30385 -0.87471,0.30385c-0.33761,0 -0.64453,-0.11049 -0.92076,-0.33148c-0.27009,-0.22098 -0.40513,-0.52483 -0.40513,-0.91155v-5.91123c0,-0.69977 -0.17801,-1.23381 -0.53404,-1.60211c-0.33148,-0.30078 -0.73354,-0.45117 -1.20619,-0.45117c-0.46651,0 -0.85016,0.05217 -1.15094,0.15653c-0.30078,0.10435 -0.57087,0.27316 -0.81026,0.50642c-0.48493,0.49107 -0.74274,1.19391 -0.77343,2.10853v5.19305c0,0.42355 -0.14732,0.7366 -0.44196,0.93917c-0.2885,0.20256 -0.58621,0.30385 -0.89313,0.30385c-0.30078,0 -0.59542,-0.10742 -0.88392,-0.32227c-0.2885,-0.21484 -0.43276,-0.52176 -0.43276,-0.92076v-8.75636c0,-0.39285 0.14118,-0.70284 0.42355,-0.92996c0.2885,-0.22712 0.56166,-0.34068 0.81947,-0.34068c0.25781,0 0.45423,0.03376 0.58928,0.10128c0.13505,0.06753 0.25474,0.13505 0.3591,0.20256c0.30692,0.25781 0.46038,0.57087 0.46038,0.93917h-0.29464c-0.13505,-0.19643 0.18415,-0.49413 0.95759,-0.89313c0.66294,-0.36216 1.43637,-0.54325 2.3203,-0.54325c1.38113,0 2.4492,0.45117 3.20422,1.3535c0.24554,0.33148 0.31612,0.54017 0.21177,0.62611zM250.16121,193.60381c0,0.68136 -0.37137,1.05272 -1.11411,1.11411h-6.94248c0.05524,1.28905 0.66601,2.16684 1.8323,2.63335c0.31306,0.10435 0.69056,0.15653 1.13253,0.15653c0.90848,0 1.85071,-0.34375 2.82671,-1.03125c0.54632,-0.31306 1.02204,-0.27316 1.42716,0.1197c0.23939,0.25781 0.31919,0.50949 0.23939,0.75501c0,0.34375 -0.11356,0.6169 -0.34068,0.81947c-1.08035,1.07421 -2.50138,1.60518 -4.26308,1.59291c-1.62053,0 -2.92799,-0.5279 -3.92241,-1.5837c-1.1049,-1.08649 -1.65736,-2.51059 -1.65736,-4.27229c0,-1.61438 0.45117,-2.95562 1.3535,-4.02369c0.96986,-1.20311 2.32337,-1.80468 4.06052,-1.80468c1.73715,0 3.07224,0.53404 4.00528,1.60211c0.87165,0.95144 1.32588,2.25891 1.36271,3.92241zM247.56468,192.63703c-0.0307,-0.51562 -0.29464,-1.04659 -0.79184,-1.59291c-0.4481,-0.47265 -1.10798,-0.70898 -1.97962,-0.70898c-0.72433,0 -1.3443,0.27009 -1.85992,0.81026c-0.47879,0.55859 -0.73354,1.05579 -0.76422,1.49162zM256.44649,193.93529c0,-0.69977 0.11356,-1.40261 0.34068,-2.10853c0.22712,-0.70591 0.57394,-1.3443 1.04045,-1.91516c1.00669,-1.22153 2.41545,-1.8323 4.22625,-1.8323c1.81696,0 3.2257,0.61383 4.22625,1.8415c0.92076,1.12945 1.38113,2.45841 1.38113,3.98686c0,1.54072 -0.46038,2.86968 -1.38113,3.98686c-1.00055,1.24609 -2.4093,1.86913 -4.22625,1.86913c-1.81081,0 -3.21957,-0.61998 -4.22625,-1.85992c-0.92076,-1.1049 -1.38113,-2.42771 -1.38113,-3.96845zM259.18113,193.93529c0,0.39285 0.05217,0.8072 0.15653,1.24302c0.11049,0.43582 0.30078,0.83788 0.57087,1.20619c0.52176,0.74888 1.23688,1.12332 2.14536,1.12332c0.96372,0 1.67577,-0.36523 2.13615,-1.0957c0.47265,-0.74888 0.70898,-1.5837 0.70898,-2.50445c0,-0.94531 -0.23326,-1.75864 -0.69977,-2.43999c-0.48493,-0.75501 -1.20005,-1.13253 -2.14536,-1.13253c-0.90848,0 -1.62359,0.38365 -2.14536,1.15094c-0.48493,0.65681 -0.72739,1.4732 -0.72739,2.4492zM269.15842,189.54329c0,-0.38672 0.14118,-0.69364 0.42355,-0.92076c0.28237,-0.23326 0.57394,-0.34989 0.87471,-0.34989c0.6077,0 0.99134,0.21484 1.15094,0.64453c0.1596,0.42968 0.04604,0.95451 -0.34068,1.57449c-0.04296,-0.7673 0.34989,-1.37806 1.17856,-1.8323c0.70591,-0.38672 1.40261,-0.58007 2.09011,-0.58007c0.69364,0 1.28598,0.089 1.77705,0.26701c0.49107,0.17188 0.94224,0.44196 1.3535,0.81026c0.82867,0.78571 1.24302,1.91824 1.24302,3.39758v5.7455c0,0.42355 -0.15346,0.7366 -0.46038,0.93917c-0.30078,0.20256 -0.59849,0.30385 -0.89313,0.30385c-0.33761,0 -0.64145,-0.11049 -0.91155,-0.33148c-0.26395,-0.22098 -0.39593,-0.52483 -0.39593,-0.91155v-5.85599c0,-0.71205 -0.18415,-1.24609 -0.55245,-1.60211c-0.34375,-0.33761 -0.77343,-0.50642 -1.28905,-0.50642c-0.74888,0 -1.3842,0.21177 -1.90596,0.63532c-0.49721,0.44196 -0.74581,1.15094 -0.74581,2.12694v5.20226c0,0.42355 -0.14732,0.7366 -0.44196,0.93917c-0.2885,0.20256 -0.59236,0.30385 -0.91155,0.30385c-0.34375,0 -0.63839,-0.11356 -0.88392,-0.34068c-0.23939,-0.22712 -0.3591,-0.5279 -0.3591,-0.90234zM284.02541,196.69754c0.51562,0 0.89313,0.1197 1.13253,0.3591c0.29464,0.39285 0.44196,0.71205 0.44196,0.95759c0,0.23939 -0.0307,0.45117 -0.09207,0.63532c-0.05524,0.18415 -0.17188,0.35602 -0.34989,0.51562c-0.31306,0.25167 -0.69056,0.37751 -1.13253,0.37751c-0.50334,0 -0.85937,-0.11663 -1.06808,-0.34989c-0.3683,-0.29464 -0.55245,-0.60156 -0.55245,-0.92076c0,-0.32533 0.03683,-0.55245 0.11049,-0.68136c0.07979,-0.13505 0.16881,-0.27622 0.26701,-0.42355c0.32533,-0.31306 0.73967,-0.46959 1.24302,-0.46959zM282.48776,184.54361c0,-0.42968 0.15653,-0.75501 0.46959,-0.976c0.31919,-0.22098 0.6476,-0.33148 0.98521,-0.33148c0.34375,0 0.67215,0.11049 0.98521,0.33148c0.31919,0.22098 0.47879,0.54632 0.47879,0.976l-0.29464,9.99017c-0.02455,0.38672 -0.14732,0.70591 -0.3683,0.95759c-0.22098,0.24554 -0.48493,0.3683 -0.79184,0.3683c-0.30692,0 -0.57394,-0.1197 -0.80105,-0.3591c-0.22712,-0.24554 -0.34068,-0.57394 -0.34068,-0.98521z" fill="#000000" stroke="#000000" stroke-width="0" stroke-linecap="square"/></g></g></svg>