<svg version="1.1" xmlns="http://www.w3.org/2000/svg" xmlns:xlink="http://www.w3.org/1999/xlink" width="470.71305" height="319.51097" viewBox="0,0,470.71305,319.51097"><g transform="translate(-4.64348,-20.24453)"><g data-paper-data="{&quot;isPaintingLayer&quot;:true}" fill-rule="nonzero" stroke="none" stroke-linecap="butt" stroke-linejoin="miter" stroke-miterlimit="10" stroke-dasharray="" stroke-dashoffset="0" style="mix-blend-mode: normal"><path d="M182.34816,202.21006v5.79785c-3.76952,-0.23493 -9.18838,-0.70576 -10.05173,-2.8211c3.45531,-0.93972 6.75304,-1.88041 10.05173,-2.97675z" fill="#82783c" stroke-width="1"/><path d="M167.97682,193.82605c0.15759,1.33224 0.4718,2.5852 1.10021,3.76082h-30.70527c-1.17755,-7.05177 0.47179,-15.98395 2.67027,-23.50558c2.43438,-7.99149 9.57993,-16.45381 9.57993,-16.45381l29.05593,4.85812c0.07831,-0.07831 -12.40779,24.4453 -11.70107,31.34045z" fill="#bfc572" stroke-width="1"/><path d="M185.80347,131.14515l7.61735,28.20612l-15.70648,14.02523l-34.23793,-9.32373c0,0 7.69566,-14.65171 20.18176,-21.86011c8.32407,-4.77981 19.94586,-10.26441 22.14531,-11.04752z" fill="#825726" stroke-width="1"/><g stroke-width="1"><path d="M306.73739,202.99316c-0.94262,2.11534 -6.28221,2.5852 -10.05172,2.82109v-5.79881c3.29773,1.09731 6.59641,2.03703 10.05172,2.97772z" fill="#82783c"/><path d="M299.66918,167.42203l21.59617,-16.84633c0,0 15.94141,11.20511 18.68903,22.09503c1.96355,7.60091 2.67028,16.29719 1.49273,23.34896h-30.70527c0.62842,-1.17465 0.94263,-2.42857 1.10021,-3.76081c0.70673,-6.89515 -12.17287,-24.91516 -12.17287,-24.83686z" fill="#bfc572"/><path d="M315.37566,142.27097c12.4861,7.20839 19.94585,19.35225 19.94585,19.35225l-37.85082,10.73427l-11.85769,-13.00623l7.61735,-28.20612c2.19848,0.7831 13.74293,6.2677 22.14531,11.12582z" fill="#825726"/></g><g stroke-width="1"><path d="M268.96487,229.35284l24.02958,3.68251c0,0.39155 -3.61193,21.5459 -3.61193,21.5459l9.50162,0.15662c0,0 -0.07831,0.62745 -0.15662,0.86238c-3.1411,0.07831 -30.46938,-0.07831 -30.46938,-0.07831c0,0 0.55011,-25.69923 0.70673,-26.16909z" fill="#6d7041"/><path d="M262.52604,244.08286c-1.49273,-13.00624 -1.33514,-48.89157 -1.33514,-51.00691l37.85082,16.29719c0.31421,2.19365 -1.57103,21.86011 -1.96355,26.09078c-0.2359,2.74182 -0.07832,5.71953 -0.2359,8.54063z" fill="#005a5a"/><path d="M259.38494,238.12743h40.44182v12.92792h-40.44182z" fill="#006482"/></g><g stroke-width="1"><path d="M209.75474,255.52193c0,0 -27.32827,0.15662 -30.46937,0.07831c-0.07831,-0.23493 -0.15759,-0.86238 -0.15759,-0.86238l9.50259,-0.15662c0,0 -3.6129,-21.15435 -3.6129,-21.54589l24.03055,-3.68251c0.07831,0.46986 0.70672,26.16909 0.70672,26.16909z" fill="#6d7041"/><path d="M183.60402,242.82894c-2.04186,-8.0698 -3.69024,-31.88862 -3.69024,-31.88862l34.31721,-9.87287l0.07831,41.68318z" fill="#005a5a"/><path d="M178.89285,239.6946h38.39996v12.92792h-38.39996z" fill="#006482"/></g><g stroke-width="1"><path d="M263.86022,117.27653c0,4.85813 -4.31865,5.48461 -7.22386,5.32798c-7.46072,-0.39155 -6.9899,-6.81587 -5.34055,-8.93218c1.41345,-2.03703 3.76952,-3.13337 6.28221,-3.05506c2.67028,0 6.2822,1.8021 6.2822,6.65926z" fill="#ffc800"/><path d="M265.43125,132.86893l-59.21109,0.23493c0.786,-6.97346 2.12114,-20.29293 4.16204,-24.52361c2.43438,-5.01475 7.38241,-3.83913 12.32948,-3.9184c5.26128,-0.07831 29.21255,-1.01803 36.594,1.019c1.96355,1.88041 5.41886,20.84111 6.12559,27.18809z" fill="#bfc572"/><path d="M263.23277,118.8437c0,0 0.07831,0 0.07831,0.07831z" fill="#a0aa1e"/><path d="M261.11163,117.43315c-3.06182,1.019 -12.87862,0.47082 -13.27114,0.15758c-0.07831,-3.29095 -0.23493,-5.64219 6.36148,-6.03374c6.59641,-0.39155 6.51714,2.42954 6.90965,5.87615z" fill="#82783c"/><path d="M259.14905,115.00457c0.62842,0.07831 1.02093,0.54817 1.09924,1.09731c0,0.7831 -0.62841,0.86141 -1.09924,0.86141c-1.25683,-0.07831 -1.25683,-1.17466 -1.02093,-1.48886c0.2359,-0.31324 0.62842,-0.46986 1.02093,-0.46986z" fill="#645a1e"/><path d="M251.5317,115.08288c0.54913,0 1.02093,0.54817 0.94262,1.09731c0,0.7831 -0.62841,0.86141 -1.10021,0.86141c-1.25586,-0.07831 -1.25586,-1.17466 -1.01996,-1.48886c0.23493,-0.31324 0.62745,-0.46986 1.01996,-0.46986c0,0 0.07928,0 0.15759,0z" fill="#645a1e"/><path d="M253.65188,119.94101c0,0 2.90521,-0.15662 4.31866,-0.07831c0.15758,0.39155 0.23589,0.86141 0.15758,1.25296c-0.07831,0.07831 -0.07831,0.2359 -0.15758,0.2359c-0.54913,0 -4.08276,0.31324 -4.31866,-0.2359c0,-0.31324 0,-0.7831 0,-1.17465z" fill="#000000"/><path d="M267.00132,115.78864c0,1.17465 -0.62745,1.33127 -1.09924,1.33127c-1.25586,-0.07831 -1.25586,-1.64548 -1.02093,-2.19365c0.2359,-0.39155 0.62841,-0.70479 1.10021,-0.70479c0.47082,0 1.01997,0.39156 1.01997,1.56717z" fill="#000000"/><path d="M236.06112,116.2585c0,1.17465 -0.62745,1.33223 -1.09924,1.33223c-1.25586,-0.07927 -1.33513,-1.72379 -1.02093,-2.19461c0.15759,-0.39155 0.55011,-0.70479 1.02093,-0.70479c0.47179,0 1.09924,0.39156 1.09924,1.56717z" fill="#000000"/><path d="M217.4504,115.70936v2.03799c-3.29869,0.07831 -8.40238,-0.07831 -10.05172,-0.07831v-2.03799c2.8269,0 7.22483,0 10.05172,0.07831z" fill="#fab414"/><path d="M214.78012,117.27653c0,4.85813 -4.31865,5.48461 -7.22483,5.32798c-7.38145,-0.39155 -6.91062,-6.81587 -5.26127,-8.93218c1.41345,-2.03703 3.76951,-3.13337 6.2822,-3.05506c2.67028,0 6.2039,1.8021 6.2039,6.65926z" fill="#ffc800"/><path d="M208.26202,115.00457c0.94262,0.07831 1.64934,0.86238 1.57103,1.8021c0,1.33224 -1.17852,1.56717 -1.96355,1.48886c-1.96258,-0.07831 -1.88428,-1.88041 -1.41345,-2.42858c0.39252,-0.54914 1.02093,-0.86238 1.72765,-0.86238c0.07831,0 0.07831,0 0.07831,0z" fill="#fab414"/></g><g stroke-width="1"><path d="M176.38016,156.29621c-0.39348,-7.05177 -0.07928,-20.76377 -0.07928,-20.76377c0,0 7.14652,-3.52588 12.87862,-5.64122c5.73307,-2.11534 13.82124,-3.29096 13.82124,-3.29096l67.14168,-0.15662c0,0 17.66907,2.27292 23.48045,4.93643c0.2359,1.25393 1.88428,18.80408 1.96355,19.11732c0.94166,4.85813 1.88428,21.8601 1.88428,21.8601l-61.0161,23.89714l-58.74027,-22.87814c0,0 -0.78503,-7.13008 -1.33417,-17.08029z" fill="#a0640a"/><path d="M244.22857,179.40927l-7.46072,44.11175l-56.93237,0.70576l-2.19945,-50.85029c0,0 19.47503,-25.77754 23.87296,-27.42302c0.07831,0.23493 3.53362,0 3.53362,0c0,0 15.8631,-0.15662 31.72524,-0.15662z" fill="#5e968a"/><path d="M236.84712,145.79686c14.37037,0 29.21255,0.07831 34.23792,0.39155c5.10465,2.8211 26.38565,26.16909 26.38565,26.16909l1.57103,50.38043l-62.27389,0.7831z" fill="#5e968a"/><path d="M273.51942,124.71985c1.33514,8.07077 1.09924,35.18055 1.09924,35.18055l-7.53807,-0.07928l-0.786,-35.10127z" fill="#005a5a"/><path d="M271.16336,153.86666c1.17852,0.07831 2.12113,1.0973 2.04186,2.27195c0,1.64548 -1.25586,1.95968 -2.27679,1.88137c-2.59197,-0.07927 -2.67028,-2.42954 -2.12018,-3.13433c0.54913,-0.70576 1.33418,-1.09731 2.19849,-1.09731c0,0 0.07831,0 0.15662,0.07831z" fill="#ffc800"/><path d="M205.51343,124.71985l-0.78503,35.10127l-7.45976,0.07928c0,0 -0.2359,-27.10978 1.09924,-35.18055z" fill="#005a5a"/><path d="M200.80226,153.78835c0.86335,0 1.64934,0.39155 2.19848,1.09731c0.55011,0.70479 0.47179,3.05506 -2.12017,3.13433c-1.02093,0.07831 -2.27679,-0.23589 -2.27679,-1.88137c-0.07927,-1.17465 0.86335,-2.19365 2.0409,-2.27195c0,-0.07831 0.07928,-0.07831 0.15759,-0.07831z" fill="#ffc800"/><path d="M249.80405,164.91417c0.07831,1.09731 0.07831,2.19365 0.07831,3.29095c0.07831,4.77982 -1.17755,10.8909 -5.88969,13.55441c-4.08372,2.35124 -12.80031,2.038 -16.64814,-0.7831c-3.21941,-3.44758 -5.41789,-10.73427 -4.16203,-16.06226z" fill="#005a5a"/><path d="M221.29823,159.9004h30.15516v8.46135h-30.15516z" fill="#006482"/><path d="M236.84712,162.25066c1.25586,0.07831 2.19848,1.17465 2.12017,2.42858c0,1.72379 -1.17852,2.03703 -2.27776,1.95872c-2.67028,-0.15662 -2.8269,-2.50689 -2.19848,-3.29096c0.54914,-0.70479 1.41344,-1.17465 2.27679,-1.09634z" fill="#fab414"/></g><path d="M341.44711,195.94139c-0.31421,1.64548 -0.70673,3.29095 -1.25683,4.93643c-6.75304,19.03901 -24.02958,21.70349 -31.64693,21.70349c-7.61734,0 -13.89955,0.23493 -18.4541,0.23493c-4.55455,0 -5.41886,-0.62744 -5.26128,-1.8021c0.15662,-1.17561 6.75303,-2.19364 8.48068,-3.52588c-0.07831,-0.31324 -0.15662,-0.62649 -0.15662,-0.86238c-1.96355,-1.5662 -9.8951,0.31421 -9.81679,-2.19365c0.07927,-2.50689 12.1719,-2.74182 12.4861,-4.62223c0.31421,-1.88041 -9.34403,-0.62744 -8.95152,-2.89941c0.39252,-2.27196 10.44424,-0.46986 17.6681,-4.07405c2.90618,-1.41055 6.754,-7.59994 7.53903,-8.85387z" fill="#bfc572" stroke-width="1"/><path d="M167.74189,195.54984c0.78503,1.25393 4.63287,7.44332 7.53807,8.85387c7.22483,3.6042 17.27655,1.80209 17.66907,4.07405c0.39252,2.27196 -9.26572,1.01899 -8.95151,2.89941c0.31324,1.88041 12.40682,2.03703 12.48513,4.62223c0.07927,2.5852 -7.85227,0.62648 -9.81582,2.19365c0,0.23493 -0.07831,0.54913 -0.15662,0.86237c1.72765,1.33127 8.32406,2.35027 8.48068,3.52589c0.15759,1.17465 -0.70673,1.8021 -5.26128,1.8021c-4.55455,0 -10.83675,-0.23493 -18.4541,-0.23493c-7.61734,0 -24.89389,-2.58617 -31.64693,-21.62518c-0.55011,-1.64548 -0.94262,-3.29095 -1.25683,-4.93643z" fill="#bfc572" stroke-width="1"/><path d="M4.64348,180.00002c0,-88.23052 105.37269,-159.75549 235.35652,-159.75549c129.98383,0 235.35653,71.52496 235.35653,159.75548c0,88.23051 -105.3727,159.75549 -235.35653,159.75549c-129.98382,0 -235.35652,-71.52498 -235.35652,-159.75549z" fill="none" stroke-width="0"/></g></g></svg>