<svg version="1.1" xmlns="http://www.w3.org/2000/svg" xmlns:xlink="http://www.w3.org/1999/xlink" width="394.52781" height="305.83528" viewBox="0,0,394.52781,305.83528"><defs><linearGradient x1="99.79473" y1="169.43159" x2="99.79473" y2="198.39452" gradientUnits="userSpaceOnUse" id="color-1"><stop offset="0" stop-color="#7e9f71"/><stop offset="1" stop-color="#576e4e"/></linearGradient><linearGradient x1="97.64834" y1="163.3057" x2="97.64834" y2="197.00402" gradientUnits="userSpaceOnUse" id="color-2"><stop offset="0" stop-color="#7e9f71"/><stop offset="1" stop-color="#576e4e"/></linearGradient><linearGradient x1="95.99843" y1="164.44126" x2="95.99843" y2="198.01022" gradientUnits="userSpaceOnUse" id="color-3"><stop offset="0" stop-color="#7e9f71"/><stop offset="1" stop-color="#576e4e"/></linearGradient><linearGradient x1="92.69856" y1="157.66713" x2="92.69856" y2="195.11928" gradientUnits="userSpaceOnUse" id="color-4"><stop offset="0" stop-color="#7e9f71"/><stop offset="1" stop-color="#576e4e"/></linearGradient><linearGradient x1="89.01362" y1="175.60114" x2="89.01362" y2="196.6216" gradientUnits="userSpaceOnUse" id="color-5"><stop offset="0" stop-color="#7e9f71"/><stop offset="1" stop-color="#576e4e"/></linearGradient><linearGradient x1="254.94606" y1="163.07368" x2="254.94606" y2="197.51699" gradientUnits="userSpaceOnUse" id="color-6"><stop offset="0" stop-color="#77966b"/><stop offset="1" stop-color="#637d59"/></linearGradient><linearGradient x1="258.33497" y1="179.56691" x2="258.33497" y2="198.89866" gradientUnits="userSpaceOnUse" id="color-7"><stop offset="0" stop-color="#77966b"/><stop offset="1" stop-color="#637d59"/></linearGradient><linearGradient x1="250.90629" y1="169.19598" x2="250.90629" y2="195.8321" gradientUnits="userSpaceOnUse" id="color-8"><stop offset="0" stop-color="#77966b"/><stop offset="1" stop-color="#637d59"/></linearGradient><linearGradient x1="248.93235" y1="163.56223" x2="248.93235" y2="194.55328" gradientUnits="userSpaceOnUse" id="color-9"><stop offset="0" stop-color="#77966b"/><stop offset="1" stop-color="#637d59"/></linearGradient><linearGradient x1="247.41496" y1="164.60656" x2="247.41496" y2="195.47867" gradientUnits="userSpaceOnUse" id="color-10"><stop offset="0" stop-color="#77966b"/><stop offset="1" stop-color="#637d59"/></linearGradient><linearGradient x1="244.38018" y1="158.37665" x2="244.38018" y2="192.81999" gradientUnits="userSpaceOnUse" id="color-11"><stop offset="0" stop-color="#77966b"/><stop offset="1" stop-color="#637d59"/></linearGradient><linearGradient x1="240.99129" y1="174.86987" x2="240.99129" y2="194.20162" gradientUnits="userSpaceOnUse" id="color-12"><stop offset="0" stop-color="#77966b"/><stop offset="1" stop-color="#637d59"/></linearGradient><linearGradient x1="152.94606" y1="164.07368" x2="152.94606" y2="198.51699" gradientUnits="userSpaceOnUse" id="color-13"><stop offset="0" stop-color="#77966b"/><stop offset="1" stop-color="#637d59"/></linearGradient><linearGradient x1="156.33494" y1="180.56691" x2="156.33494" y2="199.89866" gradientUnits="userSpaceOnUse" id="color-14"><stop offset="0" stop-color="#77966b"/><stop offset="1" stop-color="#637d59"/></linearGradient><linearGradient x1="148.90628" y1="170.19598" x2="148.90628" y2="196.8321" gradientUnits="userSpaceOnUse" id="color-15"><stop offset="0" stop-color="#77966b"/><stop offset="1" stop-color="#637d59"/></linearGradient><linearGradient x1="146.93235" y1="164.56223" x2="146.93235" y2="195.55328" gradientUnits="userSpaceOnUse" id="color-16"><stop offset="0" stop-color="#77966b"/><stop offset="1" stop-color="#637d59"/></linearGradient><linearGradient x1="145.41494" y1="165.60656" x2="145.41494" y2="196.47867" gradientUnits="userSpaceOnUse" id="color-17"><stop offset="0" stop-color="#77966b"/><stop offset="1" stop-color="#637d59"/></linearGradient><linearGradient x1="142.38016" y1="159.37665" x2="142.38016" y2="193.81999" gradientUnits="userSpaceOnUse" id="color-18"><stop offset="0" stop-color="#77966b"/><stop offset="1" stop-color="#637d59"/></linearGradient><linearGradient x1="138.99127" y1="175.86987" x2="138.99127" y2="195.20162" gradientUnits="userSpaceOnUse" id="color-19"><stop offset="0" stop-color="#77966b"/><stop offset="1" stop-color="#637d59"/></linearGradient><linearGradient x1="-27.69401" y1="203.47157" x2="-27.69401" y2="391.34121" gradientUnits="userSpaceOnUse" id="color-20"><stop offset="0" stop-color="#7e7463"/><stop offset="1" stop-color="#847c6b"/></linearGradient><linearGradient x1="-48.51479" y1="221.33938" x2="-48.51479" y2="394.00604" gradientUnits="userSpaceOnUse" id="color-21"><stop offset="0" stop-color="#736c5d"/><stop offset="1" stop-color="#736c5d" stop-opacity="0"/></linearGradient><linearGradient x1="38.1549" y1="221.33938" x2="38.1549" y2="394.00604" gradientUnits="userSpaceOnUse" id="color-22"><stop offset="0" stop-color="#736c5d"/><stop offset="1" stop-color="#736c5d" stop-opacity="0"/></linearGradient><linearGradient x1="-27.30693" y1="218.17341" x2="-27.30693" y2="251.24046" gradientUnits="userSpaceOnUse" id="color-23"><stop offset="0" stop-color="#454037"/><stop offset="1" stop-color="#454037" stop-opacity="0"/></linearGradient><linearGradient x1="141.97564" y1="203.47154" x2="141.97564" y2="391.34121" gradientUnits="userSpaceOnUse" id="color-24"><stop offset="0" stop-color="#7e7463"/><stop offset="1" stop-color="#847c6b"/></linearGradient><linearGradient x1="124.15793" y1="221.33936" x2="124.15793" y2="394.00603" gradientUnits="userSpaceOnUse" id="color-25"><stop offset="0" stop-color="#736c5d"/><stop offset="1" stop-color="#736c5d" stop-opacity="0"/></linearGradient><linearGradient x1="207.82458" y1="221.33936" x2="207.82458" y2="394.00604" gradientUnits="userSpaceOnUse" id="color-26"><stop offset="0" stop-color="#736c5d"/><stop offset="1" stop-color="#736c5d" stop-opacity="0"/></linearGradient><linearGradient x1="142.36271" y1="218.17339" x2="142.36271" y2="251.24043" gradientUnits="userSpaceOnUse" id="color-27"><stop offset="0" stop-color="#454037"/><stop offset="1" stop-color="#454037" stop-opacity="0"/></linearGradient><linearGradient x1="136.17505" y1="201.90006" x2="136.17505" y2="223.90006" gradientUnits="userSpaceOnUse" id="color-28"><stop offset="0" stop-color="#95bd86"/><stop offset="1" stop-color="#80a374"/></linearGradient><linearGradient x1="-27.6582" y1="201.90008" x2="-27.6582" y2="223.90006" gradientUnits="userSpaceOnUse" id="color-29"><stop offset="0" stop-color="#95bd86"/><stop offset="1" stop-color="#80a374"/></linearGradient></defs><g transform="translate(122.71383,-120.74322)"><g data-paper-data="{&quot;isPaintingLayer&quot;:true}" fill-rule="nonzero" stroke="none" stroke-linejoin="miter" stroke-miterlimit="10" stroke-dasharray="" stroke-dashoffset="0" style="mix-blend-mode: normal"><g data-paper-data="{&quot;index&quot;:null}" stroke-width="0" stroke-linecap="butt"><path d="M92.3209,196.22992c0,0 2.85925,-4.29508 8.4267,-15.21431c4.70098,-9.2198 6.52096,-11.58402 6.52096,-11.58402c0,0 -2.1073,11.70955 -3.33661,21.0166c-1.51055,11.43623 1.67327,7.16579 1.67327,7.16579z" data-paper-data="{&quot;origRot&quot;:0,&quot;index&quot;:null}" fill="url(#color-1)"/><path d="M93.81644,195.99605c0,0 1.04941,5.22515 2.16152,-8.11779c0.90504,-10.85876 1.73024,-24.57255 1.73024,-24.57255c0,0 0.61303,2.89814 1.66388,13.97786c1.24453,13.12197 2.10825,18.34554 2.10825,18.34554z" data-paper-data="{&quot;index&quot;:null}" fill="url(#color-2)"/><path d="M94.1365,197.16875c0,0 2.19841,4.78093 0.25916,-8.44888c-1.57819,-10.76669 -3.87929,-24.2786 -3.87929,-24.2786c0,0 1.24938,2.6434 4.77295,13.09741c4.17302,12.38092 6.19113,17.21031 6.19113,17.21031z" data-paper-data="{&quot;origRot&quot;:0,&quot;index&quot;:null}" fill="url(#color-3)"/><path d="M88.62283,194.35869c0,0 2.72203,-4.06874 2.64082,-8.70596c-0.16955,-9.68212 -3.28334,-27.98562 -3.28334,-27.98562c0,0 5.03289,14.38769 6.74425,21.22902c2.10285,8.40642 2.69222,16.22316 2.69222,16.22316z" data-paper-data="{&quot;origPos&quot;:null}" fill="url(#color-4)"/><path d="M85.75282,196.51565c0,0 2.38207,1.51552 1.35874,-6.91624c-0.83283,-6.86193 -3.83673,-13.99829 -3.83673,-13.99829c0,0 3.25965,1.8792 6.44436,8.67681c3.7717,8.05056 5.03319,11.21726 5.03319,11.21726z" data-paper-data="{&quot;origPos&quot;:null,&quot;origRot&quot;:0}" fill="url(#color-5)"/></g><path d="M110.18541,283.17288c0,79.20074 -52.13625,143.40562 -116.44962,143.40562c-64.31336,0 -116.44962,-64.20488 -116.44962,-143.40562c0,-79.20074 52.13625,-143.40562 116.44962,-143.40562c64.31336,0 116.44962,64.20488 116.44962,143.40562z" fill="none" stroke-width="0" stroke-linecap="butt"/><path d="M113.6839,264.14885c0,79.20074 -52.13625,143.40562 -116.44962,143.40562c-64.31336,0 -116.44962,-64.20488 -116.44962,-143.40562c0,-79.20074 52.13625,-143.40563 116.44962,-143.40563c64.31336,0 116.44962,64.20489 116.44962,143.40563z" fill="none" stroke-width="0" stroke-linecap="butt"/><g data-paper-data="{&quot;index&quot;:null}" stroke-width="0" stroke-linecap="butt"><path d="M250.60691,197.51699c0,0 0.54203,-7.18875 2.47594,-14.91982c1.57385,-6.29169 6.20242,-19.52349 6.20242,-19.52349c0,0 -2.86365,16.83301 -3.01957,25.73731c-0.07466,4.26468 2.42867,8.00654 2.42867,8.00654z" data-paper-data="{&quot;origPos&quot;:null}" fill="url(#color-6)"/><path d="M253.05723,197.86273c0,0 1.16012,-2.91229 4.62883,-10.31609c2.92886,-6.25149 5.92664,-7.97973 5.92664,-7.97973c0,0 -2.76258,6.56305 -3.52848,12.87369c-0.94111,7.75436 1.24958,6.3606 1.24958,6.3606z" data-paper-data="{&quot;origPos&quot;:null,&quot;origRot&quot;:0}" fill="url(#color-7)"/><path d="M244.03289,193.84137c0,0 2.62956,-3.95001 7.74972,-13.99201c4.32331,-8.47909 5.99706,-10.65338 5.99706,-10.65338c0,0 -1.93799,10.76881 -3.06855,19.32815c-1.38918,10.51747 1.53885,6.59011 1.53885,6.59011z" data-paper-data="{&quot;origRot&quot;:0,&quot;index&quot;:null}" fill="url(#color-8)"/><path d="M245.40824,193.62629c0,0 0.96508,4.80538 1.98785,-7.46562c0.83235,-9.98638 1.59125,-22.59843 1.59125,-22.59843c0,0 0.56378,2.66531 1.53021,12.8549c1.14456,12.06777 1.9389,16.87169 1.9389,16.87169z" data-paper-data="{&quot;index&quot;:null}" fill="url(#color-9)"/><path d="M245.70259,194.70479c0,0 2.02179,4.39684 0.23834,-7.77011c-1.45141,-9.90172 -3.56763,-22.3281 -3.56763,-22.3281c0,0 1.14902,2.43103 4.3895,12.04518c3.83778,11.38625 5.69375,15.82766 5.69375,15.82766z" data-paper-data="{&quot;origRot&quot;:0,&quot;index&quot;:null}" fill="url(#color-10)"/><path d="M240.63187,192.12051c0,0 2.50334,-3.74187 2.42867,-8.00654c-0.15592,-8.90428 -3.01956,-25.73731 -3.01956,-25.73731c0,0 4.62858,13.23181 6.20244,19.52352c1.93391,7.73106 2.47593,14.91981 2.47593,14.91981z" data-paper-data="{&quot;origPos&quot;:null}" fill="url(#color-11)"/><path d="M237.99248,194.10417c0,0 2.19071,1.39377 1.24958,-6.3606c-0.76592,-6.31066 -3.52849,-12.8737 -3.52849,-12.8737c0,0 2.99777,1.72823 5.92663,7.97973c3.4687,7.4038 4.62883,10.31609 4.62883,10.31609z" data-paper-data="{&quot;origPos&quot;:null,&quot;origRot&quot;:0}" fill="url(#color-12)"/></g><g data-paper-data="{&quot;index&quot;:null}" stroke-width="0" stroke-linecap="butt"><path d="M148.6069,198.51699c0,0 0.54203,-7.18875 2.47594,-14.91982c1.57385,-6.29169 6.20242,-19.52349 6.20242,-19.52349c0,0 -2.86366,16.83301 -3.01957,25.73731c-0.07466,4.26468 2.42867,8.00654 2.42867,8.00654z" data-paper-data="{&quot;origPos&quot;:null}" fill="url(#color-13)"/><path d="M151.05723,198.86273c0,0 1.16012,-2.91229 4.62883,-10.31609c2.92886,-6.25149 5.92664,-7.97973 5.92664,-7.97973c0,0 -2.76258,6.56305 -3.52848,12.87369c-0.94111,7.75436 1.24958,6.3606 1.24958,6.3606z" data-paper-data="{&quot;origPos&quot;:null,&quot;origRot&quot;:0}" fill="url(#color-14)"/><path d="M142.03287,194.84137c0,0 2.62956,-3.95001 7.74972,-13.99201c4.32331,-8.47909 5.99706,-10.65338 5.99706,-10.65338c0,0 -1.938,10.76881 -3.06856,19.32815c-1.38918,10.51747 1.53885,6.59011 1.53885,6.59011z" data-paper-data="{&quot;origRot&quot;:0,&quot;index&quot;:null}" fill="url(#color-15)"/><path d="M143.40823,194.62629c0,0 0.96508,4.80538 1.98785,-7.46562c0.83234,-9.98638 1.59124,-22.59843 1.59124,-22.59843c0,0 0.56378,2.66531 1.5302,12.8549c1.14456,12.06777 1.9389,16.87169 1.9389,16.87169z" data-paper-data="{&quot;index&quot;:null}" fill="url(#color-16)"/><path d="M143.70259,195.70479c0,0 2.02179,4.39684 0.23834,-7.77011c-1.4514,-9.90172 -3.56763,-22.3281 -3.56763,-22.3281c0,0 1.14902,2.43103 4.3895,12.04518c3.83778,11.38625 5.69375,15.82766 5.69375,15.82766z" data-paper-data="{&quot;origRot&quot;:0,&quot;index&quot;:null}" fill="url(#color-17)"/><path d="M138.63189,193.12051c0,0 2.50334,-3.74187 2.42866,-8.00654c-0.15592,-8.90428 -3.01956,-25.73731 -3.01956,-25.73731c0,0 4.62858,13.23181 6.20244,19.52352c1.93391,7.73106 2.47593,14.91981 2.47593,14.91981z" data-paper-data="{&quot;origPos&quot;:null}" fill="url(#color-18)"/><path d="M135.99248,195.10417c0,0 2.19071,1.39377 1.24958,-6.3606c-0.76593,-6.31066 -3.52849,-12.8737 -3.52849,-12.8737c0,0 2.99777,1.72823 5.92663,7.97973c3.4687,7.4038 4.62883,10.31609 4.62883,10.31609z" data-paper-data="{&quot;origPos&quot;:null,&quot;origRot&quot;:0}" fill="url(#color-19)"/></g><path d="M-103.88812,391.34121c0,0 1.73282,-148.89137 1.73282,-160.40288c0,-2.39881 -0.02418,-7.46553 -0.03541,-12.66598c-0.01324,-6.13337 -0.00846,-12.45274 0.07528,-14.80077h197.7833v187.86963z" data-paper-data="{&quot;index&quot;:null}" fill="url(#color-20)" stroke-width="0" stroke-linecap="butt"/><path d="M-70.01471,394.00604v-172.66667h43v172.66667z" data-paper-data="{&quot;index&quot;:null}" fill="url(#color-21)" stroke-width="0" stroke-linecap="butt"/><path d="M16.65492,394.00604v-172.66667h43v172.66667z" data-paper-data="{&quot;index&quot;:null}" fill="url(#color-22)" stroke-width="0" stroke-linecap="butt"/><path d="M-102.15531,251.24047c0,-6.76737 0,-13.53474 0,-20.30211c0,-4.35154 2.12533,-8.68456 1.03328,-12.7895l182.24949,-0.09417c0,0 14.95657,5.6956 14.95657,7.26319c0,4.86621 -0.09279,25.92258 -0.09279,25.92258z" data-paper-data="{&quot;index&quot;:null}" fill="url(#color-23)" stroke-width="0" stroke-linecap="butt"/><path d="M95.98613,237.28552c0,0 -11.01279,0 -16.6959,0c-15.57515,0 -59.2952,0 -104.53334,0c-26.98029,0 -54.50056,0 -76.91217,0c0,-2.11572 0,-4.23144 0,-6.34716c0,-5.22796 0.04893,-16.69466 0.04893,-16.69466l198.05146,-0.41477z" data-paper-data="{&quot;index&quot;:null}" fill="#80a374" stroke-width="0" stroke-linecap="butt"/><path d="M-102.12222,203.65719c0.17764,-4.7066 0.0547,-9.10649 0.0547,-11.11086c0.17567,-0.52622 0.30827,-1.07173 0.39367,-1.63249c65.47364,0 198.14379,0 198.14379,0l-0.20093,12.74334z" data-paper-data="{&quot;index&quot;:null}" fill="#94bc85" stroke-width="0" stroke-linecap="butt"/><path d="M65.78154,391.34121c0,0 1.73282,-148.89137 1.73282,-160.40288c0,-2.39881 -0.02418,-7.46553 -0.03541,-12.66598c-0.01324,-6.13337 -0.00846,-12.45274 0.07528,-14.80077h197.7833v187.86963z" data-paper-data="{&quot;index&quot;:null}" fill="url(#color-24)" stroke-width="0" stroke-linecap="butt"/><path d="M102.65793,394.00603v-172.66667h43v172.66667z" data-paper-data="{&quot;index&quot;:null}" fill="url(#color-25)" stroke-width="0" stroke-linecap="butt"/><path d="M186.32457,394.00604v-172.66667h43v172.66667z" data-paper-data="{&quot;index&quot;:null}" fill="url(#color-26)" stroke-width="0" stroke-linecap="butt"/><path d="M67.51437,251.24045c0,-6.76737 0,-13.53474 0,-20.30211c0,-4.35154 2.12533,-8.68456 1.03328,-12.7895l182.24949,-0.09417c0,0 14.95657,5.6956 14.95657,7.26319c0,4.86621 -0.09279,25.92258 -0.09279,25.92258z" data-paper-data="{&quot;index&quot;:null}" fill="url(#color-27)" stroke-width="0" stroke-linecap="butt"/><path d="M67.54752,203.65717c0.17528,-4.7066 0.05397,-9.10649 0.05397,-11.11086c0.17334,-0.52622 0.30418,-1.07173 0.38845,-1.63249c64.60559,0 172.63009,0 190.94752,0c5.43045,0 12.96427,-1.43482 12.82201,11.54604c-0.01911,1.52027 -0.04609,1.1973 -0.04609,1.1973z" data-paper-data="{&quot;index&quot;:null}" fill="#94bc85" stroke-width="0" stroke-linecap="butt"/><path d="M271.78076,227.90006c0,3.44414 -0.26517,9.38544 -10.35657,9.38544c-4.55061,0 -8.06763,0 -14.17734,0c-16.74431,0 -63.74622,0 -112.38018,0c-29.00557,0 -58.59166,0 -82.68561,0c0,-2.11572 0,-4.23144 0,-6.34716c0,-5.22796 0.0526,-16.69466 0.0526,-16.69466l219.54709,-0.41477c0,0 0,9.85402 0,14.07115z" data-paper-data="{&quot;index&quot;:null}" fill="#80a374" stroke-width="0" stroke-linecap="butt"/><path d="M52.26644,223.90006c-0.00497,-0.2091 -0.01321,-4.19665 -0.01732,-8.72894c-0.00032,-0.35262 -0.00061,-0.70855 -0.00088,-1.06625c-0.00405,-5.46171 -0.00143,-11.33715 0.02034,-12.20481c71.62071,0 194.22357,0 212.03345,0c4.28486,0 7.51195,0 7.51195,0v22z" data-paper-data="{&quot;index&quot;:null}" fill="url(#color-28)" stroke-width="0" stroke-linecap="butt"/><path d="M-108.07071,223.90006c-0.00476,-0.2091 -0.01266,-4.19665 -0.0166,-8.72894c-0.00031,-0.35262 -0.00059,-0.70855 -0.00084,-1.06625c-0.00388,-5.46171 -0.00137,-11.33715 0.01949,-12.20481c68.63659,0 204.10647,0 204.10647,0l-0.06127,22z" data-paper-data="{&quot;index&quot;:null}" fill="url(#color-29)" stroke-width="0" stroke-linecap="butt"/><path d="M62.31598,217.03957c-0.70353,-0.32689 -1.05529,-0.79946 -1.05529,-1.41771c0,-0.70353 0.37308,-1.19031 1.11924,-1.46035l10.68079,-4.53028c0.13502,-0.03553 0.33755,-0.07106 0.60759,-0.10659c0.27004,-0.03553 0.54719,0.09238 0.83144,0.38374c0.29136,0.28425 0.43704,0.58983 0.43704,0.91671c0,0.57561 -0.29136,0.99844 -0.87408,1.26848l-8.39967,3.53895l8.4423,3.77345c0.55429,0.24872 0.83144,0.59693 0.83144,1.04463c0,0.44059 -0.12791,0.79591 -0.38374,1.06595c-0.24872,0.27004 -0.51521,0.40506 -0.79946,0.40506c-0.28425,0 -0.51876,-0.03553 -0.70353,-0.10659zM78.34395,217.03957c-0.70353,-0.32689 -1.05529,-0.79946 -1.05529,-1.41771c0,-0.70353 0.37308,-1.19031 1.11924,-1.46035l10.68079,-4.53028c0.13502,-0.03553 0.33755,-0.07106 0.60759,-0.10659c0.27004,-0.03553 0.54719,0.09238 0.83144,0.38374c0.29136,0.28425 0.43704,0.58983 0.43704,0.91671c0,0.57561 -0.29136,0.99844 -0.87408,1.26848l-8.39967,3.53895l8.4423,3.77345c0.55429,0.24872 0.83144,0.59693 0.83144,1.04463c0,0.44059 -0.12791,0.79591 -0.38374,1.06595c-0.24872,0.27004 -0.51521,0.40506 -0.79946,0.40506c-0.28425,0 -0.51876,-0.03553 -0.70353,-0.10659zM107.27466,220.85566c0,1.0091 -0.93093,1.51365 -2.79278,1.51365c-1.29335,0 -2.22783,-0.38019 -2.80344,-1.14056c-0.56851,-0.73906 -0.87763,-1.91515 -0.92737,-3.52829v-6.03326h-0.82078c-0.41217,0 -0.74616,-0.13502 -1.00199,-0.40506c-0.24872,-0.27004 -0.37308,-0.56495 -0.37308,-0.88474c0,-0.29136 0.10659,-0.58272 0.31978,-0.87408c0.22029,-0.29136 0.57206,-0.43704 1.05529,-0.43704h0.97001l0.09594,-2.87806c0.07106,-0.42638 0.25583,-0.74972 0.55429,-0.97001c0.30557,-0.22029 0.62891,-0.33044 0.97001,-0.33044c0.3411,0 0.64312,0.11725 0.90606,0.35176c0.26293,0.2274 0.3944,0.5614 0.3944,1.00199v2.82476h1.59892c0.43348,0 0.76748,0.14568 1.00199,0.43704c0.23451,0.28425 0.35176,0.57561 0.35176,0.87408c0,0.36953 -0.12436,0.67865 -0.37308,0.92737c-0.24161,0.24161 -0.56851,0.36242 -0.98067,0.36242h-1.59892v4.98863c0,1.48522 0.03553,2.34153 0.10659,2.56893c0.07817,0.22029 0.17766,0.36598 0.29847,0.43704c0.12081,0.06396 0.29491,0.09594 0.52231,0.09594l1.21518,-0.09594c0.42638,0 0.74972,0.13502 0.97001,0.40506c0.2274,0.27004 0.3411,0.53297 0.3411,0.7888zM116.49084,213.83107c0,-0.80301 -0.21319,-1.42126 -0.63957,-1.85475c-0.36953,-0.34821 -0.82078,-0.52231 -1.35375,-0.52231c-0.52587,0 -0.97357,0.0604 -1.34309,0.18121c-0.36953,0.12081 -0.69287,0.31978 -0.97001,0.59693c-0.59693,0.5614 -0.8954,1.37863 -0.8954,2.45168v5.99062c0,0.49034 -0.17055,0.85276 -0.51165,1.08727c-0.334,0.23451 -0.68576,0.35176 -1.05529,0.35176c-0.39795,0 -0.73906,-0.13147 -1.02331,-0.3944c-0.27715,-0.26293 -0.41572,-0.61114 -0.41572,-1.04463v-15.307c0,-0.49034 0.167,-0.85276 0.501,-1.08727c0.334,-0.24161 0.66799,-0.36242 1.00199,-0.36242c0.36953,0 0.71063,0.11725 1.02331,0.35176c0.31978,0.2274 0.47968,0.59338 0.47968,1.09793l-0.3411,5.11655c-0.15634,-0.21319 0.2274,-0.55074 1.15122,-1.01265c0.81012,-0.41927 1.61313,-0.62891 2.40904,-0.62891c0.80301,0 1.48522,0.09949 2.04662,0.29847c0.5614,0.19898 1.08371,0.49034 1.56694,0.87408c0.96646,0.91671 1.44969,2.23138 1.44969,3.94401v6.71547c0,0.49034 -0.17766,0.85276 -0.53297,1.08727c-0.34821,0.23451 -0.69287,0.35176 -1.03397,0.35176c-0.39085,0 -0.74261,-0.12791 -1.05529,-0.38374c-0.30557,-0.25583 -0.45836,-0.60759 -0.45836,-1.05529zM133.84082,215.23812c0,0.7888 -0.42993,1.21873 -1.2898,1.2898h-8.03724c0.06396,1.49233 0.77104,2.50853 2.12124,3.04861c0.36242,0.12081 0.79946,0.18121 1.31112,0.18121c1.05173,0 2.14255,-0.39795 3.27246,-1.19386c0.63246,-0.36242 1.1832,-0.31623 1.65222,0.13857c0.27715,0.29847 0.36953,0.58983 0.27715,0.87408c0,0.39795 -0.13147,0.71418 -0.3944,0.94869c-1.25071,1.2436 -2.89582,1.8583 -4.93534,1.84409c-1.87607,0 -3.38971,-0.61114 -4.54094,-1.83343c-1.27914,-1.25782 -1.91871,-2.90648 -1.91871,-4.946c0,-1.86896 0.52231,-3.42169 1.56694,-4.65819c1.1228,-1.39284 2.68974,-2.08926 4.70083,-2.08926c2.01109,0 3.55671,0.61825 4.63687,1.85475c1.0091,1.10148 1.53496,2.61513 1.5776,4.54094zM130.83485,214.11887c-0.03553,-0.59693 -0.3411,-1.21163 -0.91671,-1.84409c-0.51876,-0.54719 -1.28269,-0.82078 -2.29179,-0.82078c-0.83854,0 -1.55628,0.31268 -2.15321,0.93803c-0.55429,0.64667 -0.8492,1.22229 -0.88474,1.72683zM146.04192,211.63522v8.97528c0,0.49744 -0.16345,0.87408 -0.49034,1.1299c-0.31978,0.24872 -0.61825,0.37308 -0.8954,0.37308c-0.27715,0 -0.51521,-0.02842 -0.71418,-0.08528c-0.19898,-0.05685 -0.36242,-0.16345 -0.49034,-0.31978c-0.334,-0.23451 -0.48323,-0.60759 -0.4477,-1.11924v-8.95396h-1.09793c-0.42638,0 -0.75327,-0.13147 -0.98067,-0.3944c-0.2274,-0.26293 -0.3411,-0.55785 -0.3411,-0.88474c0,-0.27715 0.10659,-0.5614 0.31978,-0.85276c0.22029,-0.29136 0.55429,-0.43704 1.00199,-0.43704h1.09793v-0.75682c0,-2.40194 0.68931,-3.89426 2.06794,-4.47698c0.4477,-0.17055 0.8954,-0.25583 1.34309,-0.25583c0.73906,0 1.48522,0.12436 2.23849,0.37308c0.5614,0.2274 0.8421,0.6147 0.8421,1.16188c0,0.28425 -0.09949,0.57206 -0.29847,0.86342c-0.19187,0.28425 -0.43348,0.42638 -0.72484,0.42638c-0.28425,0 -0.49389,-0.00711 -0.62891,-0.02132c-0.13502,-0.01421 -0.25227,-0.04619 -0.35176,-0.09594c-0.14213,-0.02842 -0.31978,-0.04264 -0.53297,-0.04264c-0.21319,0 -0.36953,0.02842 -0.46902,0.08528c-0.09238,0.05685 -0.17411,0.15989 -0.24517,0.30912c-0.13502,0.31978 -0.20253,1.19386 -0.20253,2.62223h-0.19187l1.66288,-0.19187c0.41927,0 0.74972,0.13147 0.99133,0.3944c0.24161,0.25583 0.36242,0.55429 0.36242,0.8954c0,0.334 -0.12081,0.63246 -0.36242,0.8954c-0.24161,0.25583 -0.57206,0.38374 -0.99133,0.38374zM152.72298,211.63522c0.23451,-1.86185 1.33243,-2.79278 3.29378,-2.79278c0.48323,0 0.85276,0.14923 1.10859,0.4477c0.26293,0.29136 0.3944,0.60759 0.3944,0.94869c0,0.3411 -0.13147,0.66089 -0.3944,0.95935c-0.25583,0.29136 -0.61825,0.43704 -1.08727,0.43704c-0.46191,0 -0.86342,0.06751 -1.20452,0.20253c-0.3411,0.13502 -0.6147,0.32334 -0.82078,0.56495c-0.48323,0.58983 -0.72484,1.37863 -0.72484,2.3664v5.90535c0,0.49034 -0.17055,0.85276 -0.51165,1.08727c-0.334,0.23451 -0.62891,0.35176 -0.88474,0.35176c-0.25583,0 -0.47257,-0.02487 -0.65023,-0.07462c-0.17055,-0.05685 -0.33044,-0.15989 -0.47968,-0.30912c-0.31978,-0.20608 -0.47968,-0.55785 -0.47968,-1.05529v-10.10518c0,-0.43348 0.14923,-0.79236 0.4477,-1.07661c0.30557,-0.28425 0.67865,-0.42638 1.11924,-0.42638c0.44059,0 0.7888,0.14923 1.04463,0.4477c0.26293,0.29136 0.3944,0.64312 0.3944,1.05529zM164.95456,213.73513c0.4477,0 0.69997,0 0.75682,0v-0.40506c0,-1.25071 -0.72129,-1.87607 -2.16387,-1.87607c-0.74616,0 -1.27558,0.0604 -1.58826,0.18121c-0.63957,0.23451 -1.11924,0.45125 -1.43903,0.65023c-0.31978,0.19187 -0.62891,0.28781 -0.92737,0.28781c-0.29136,0 -0.56851,-0.1137 -0.83144,-0.3411c-0.26293,-0.2274 -0.3944,-0.52942 -0.3944,-0.90606c0,-0.3411 0.15634,-0.64667 0.46902,-0.91671c1.08727,-1.04463 2.66842,-1.56694 4.74347,-1.56694c2.46589,0 4.06126,0.85986 4.7861,2.57959c0.23451,0.59693 0.35176,1.27558 0.35176,2.03596l-0.06396,7.24844c0,0.4548 -0.15634,0.80301 -0.46902,1.04463c-0.31268,0.24161 -0.64312,0.36242 -0.99133,0.36242c-0.34821,0 -0.68221,-0.10304 -1.00199,-0.30912c-0.31978,-0.21319 -0.47968,-0.57206 -0.47968,-1.07661h0.31978c-0.07817,0.66799 -0.85276,1.15833 -2.32377,1.47101c-0.43348,0.1137 -0.92737,0.17055 -1.48167,0.17055c-0.55429,0 -1.11214,-0.08528 -1.67354,-0.25583c-0.55429,-0.16345 -1.04818,-0.42638 -1.48167,-0.7888c-0.90961,-0.76038 -1.36441,-1.78369 -1.36441,-3.06993c0,-3.01308 2.41615,-4.51962 7.24844,-4.51962zM165.83929,216.21879c-0.02132,0.08528 -0.25583,0.12791 -0.70353,0.12791c-0.4477,0 -0.89184,0.00711 -1.33243,0.02132c-0.44059,0.00711 -0.8492,0.0533 -1.22584,0.13857c-0.36953,0.07817 -0.69997,0.19898 -0.99133,0.36242c-0.52587,0.27715 -0.80301,0.73195 -0.83144,1.36441c0,0.46191 0.19542,0.82788 0.58627,1.09793c0.32689,0.27004 0.81367,0.41217 1.46035,0.42638c0.79591,0 1.48167,-0.25227 2.05728,-0.75682c0.51165,-0.47612 0.79591,-1.21873 0.85276,-2.22783zM171.20299,210.53729c0,-0.4477 0.16345,-0.80301 0.49034,-1.06595c0.32689,-0.27004 0.66444,-0.40506 1.01265,-0.40506c0.70353,0 1.14767,0.24872 1.33243,0.74616c0.18477,0.49744 0.0533,1.10503 -0.3944,1.82277c-0.04974,-0.88829 0.40506,-1.59537 1.36441,-2.12124c0.81723,-0.4477 1.62379,-0.67155 2.4197,-0.67155c0.80301,0 1.48877,0.10304 2.05728,0.30912c0.56851,0.19898 1.09082,0.51165 1.56694,0.93803c0.95935,0.90961 1.43903,2.22072 1.43903,3.93335v6.65151c0,0.49034 -0.17766,0.85276 -0.53297,1.08727c-0.34821,0.23451 -0.69287,0.35176 -1.03397,0.35176c-0.39085,0 -0.74261,-0.12791 -1.05529,-0.38374c-0.30557,-0.25583 -0.45836,-0.60759 -0.45836,-1.05529v-6.77943c0,-0.82433 -0.21319,-1.44258 -0.63957,-1.85475c-0.39795,-0.39085 -0.8954,-0.58627 -1.49233,-0.58627c-0.86697,0 -1.60248,0.24517 -2.20651,0.7355c-0.57561,0.51165 -0.86342,1.33243 -0.86342,2.46234v6.0226c0,0.49034 -0.17055,0.85276 -0.51165,1.08727c-0.334,0.23451 -0.68576,0.35176 -1.05529,0.35176c-0.39795,0 -0.73906,-0.13147 -1.02331,-0.3944c-0.27715,-0.26293 -0.41572,-0.61114 -0.41572,-1.04463zM188.16923,216.54923v4.06126c0,0.49744 -0.16345,0.87408 -0.49034,1.1299c-0.31978,0.24872 -0.66799,0.37308 -1.04463,0.37308c-0.36953,0 -0.71063,-0.12791 -1.02331,-0.38374c-0.30557,-0.25583 -0.45836,-0.62891 -0.45836,-1.11924v-15.17909c0,-0.52587 0.15634,-0.90961 0.46902,-1.15122c0.31268,-0.24161 0.60404,-0.36242 0.87408,-0.36242c0.27004,0 0.501,0.01776 0.69287,0.0533c0.19898,0.03553 0.38019,0.14213 0.54363,0.31978c0.29136,0.24161 0.43704,0.6218 0.43704,1.14056v7.84537l4.46632,-3.74148c0.27715,-0.31268 0.60759,-0.46902 0.99133,-0.46902c0.37664,0 0.71063,0.13857 1.00199,0.41572c0.29136,0.27004 0.43704,0.5614 0.43704,0.87408c0,0.46191 -0.15279,0.80657 -0.45836,1.03397l-4.16785,3.48565l4.85006,4.90336c0.2274,0.2274 0.3411,0.49389 0.3411,0.79946c0,0.30557 -0.04974,0.54363 -0.14923,0.71418c-0.09238,0.17055 -0.21674,0.31978 -0.37308,0.4477c-0.31268,0.24872 -0.64667,0.37308 -1.00199,0.37308c-0.35532,0 -0.69287,-0.15989 -1.01265,-0.47968zM202.3754,215.58988c0,-1.87607 0.53653,-3.43946 1.60958,-4.69017c1.17965,-1.37152 2.71461,-2.05728 4.60489,-2.05728c1.59182,0 2.82476,0.34466 3.69884,1.03397c0.37664,0.27004 0.56495,0.60759 0.56495,1.01265c0,0.39795 -0.11725,0.72129 -0.35176,0.97001c-0.2274,0.24872 -0.49744,0.37308 -0.81012,0.37308c-0.31268,0 -0.55074,-0.06396 -0.71418,-0.19187c-0.68931,-0.39085 -1.42482,-0.57917 -2.20651,-0.56495c-0.95935,0 -1.71262,0.35887 -2.25981,1.07661c-0.64667,0.7817 -0.97001,1.79435 -0.97001,3.03795c0,1.16544 0.23451,2.14255 0.70353,2.93136c0.51165,0.82433 1.35375,1.2365 2.5263,1.2365c0.66799,0 1.49943,-0.23806 2.49432,-0.71418c0.54719,-0.31978 1.02686,-0.24161 1.43903,0.23451c0.2274,0.2274 0.3411,0.53653 0.3411,0.92737c0,0.38374 -0.18477,0.72484 -0.55429,1.02331c-0.36953,0.29847 -0.77459,0.51876 -1.21518,0.66089c-0.97357,0.334 -1.92936,0.49744 -2.8674,0.49034c-0.93093,-0.00711 -1.78013,-0.18477 -2.54761,-0.53297c-0.76748,-0.35532 -1.40705,-0.87052 -1.91871,-1.54562c-1.04463,-1.25071 -1.56694,-2.82121 -1.56694,-4.71149zM221.00537,213.73513c0.4477,0 0.69997,0 0.75682,0v-0.40506c0,-1.25071 -0.72129,-1.87607 -2.16387,-1.87607c-0.74616,0 -1.27558,0.0604 -1.58826,0.18121c-0.63957,0.23451 -1.11924,0.45125 -1.43903,0.65023c-0.31978,0.19187 -0.62891,0.28781 -0.92737,0.28781c-0.29136,0 -0.56851,-0.1137 -0.83144,-0.3411c-0.26293,-0.2274 -0.3944,-0.52942 -0.3944,-0.90606c0,-0.3411 0.15634,-0.64667 0.46902,-0.91671c1.08727,-1.04463 2.66842,-1.56694 4.74347,-1.56694c2.46589,0 4.06126,0.85986 4.7861,2.57959c0.23451,0.59693 0.35176,1.27558 0.35176,2.03596l-0.06396,7.24844c0,0.4548 -0.15634,0.80301 -0.46902,1.04463c-0.31268,0.24161 -0.64312,0.36242 -0.99133,0.36242c-0.34821,0 -0.68221,-0.10304 -1.00199,-0.30912c-0.31978,-0.21319 -0.47968,-0.57206 -0.47968,-1.07661h0.31978c-0.07817,0.66799 -0.85276,1.15833 -2.32377,1.47101c-0.43348,0.1137 -0.92737,0.17055 -1.48167,0.17055c-0.55429,0 -1.11214,-0.08528 -1.67354,-0.25583c-0.55429,-0.16345 -1.04818,-0.42638 -1.48167,-0.7888c-0.90961,-0.76038 -1.36441,-1.78369 -1.36441,-3.06993c0,-3.01308 2.41615,-4.51962 7.24844,-4.51962zM221.89009,216.21879c-0.02132,0.08528 -0.25583,0.12791 -0.70353,0.12791c-0.4477,0 -0.89184,0.00711 -1.33243,0.02132c-0.44059,0.00711 -0.8492,0.0533 -1.22584,0.13857c-0.36953,0.07817 -0.69997,0.19898 -0.99133,0.36242c-0.52587,0.27715 -0.80301,0.73195 -0.83144,1.36441c0,0.46191 0.19542,0.82788 0.58627,1.09793c0.32689,0.27004 0.81367,0.41217 1.46035,0.42638c0.79591,0 1.48167,-0.25227 2.05728,-0.75682c0.51165,-0.47612 0.79591,-1.21873 0.85276,-2.22783zM234.36367,220.32269c-0.24872,0.57561 -0.53653,1.01976 -0.86342,1.33243c-0.31978,0.30557 -0.77104,0.45836 -1.35375,0.45836c-0.58983,0 -1.05173,-0.14923 -1.38573,-0.4477c-0.32689,-0.30557 -0.58627,-0.76038 -0.77814,-1.36441l-3.90135,-9.16715c-0.3411,-0.62535 -0.19187,-1.17254 0.4477,-1.64156c0.27715,-0.21319 0.58272,-0.35532 0.91671,-0.42638c0.78168,0 1.27201,0.35887 1.47099,1.07661l3.21916,7.71746l3.11257,-7.73878c0.2274,-0.63246 0.66444,-0.98423 1.31112,-1.05529c0.65378,0 1.14056,0.26649 1.46035,0.79946c0.16345,0.24872 0.22385,0.47257 0.18121,0.67155c-0.03553,0.19898 -0.07817,0.38019 -0.12791,0.54363zM251.24328,215.23812c0,0.7888 -0.42993,1.21873 -1.2898,1.2898h-8.03724c0.06396,1.49233 0.77104,2.50853 2.12124,3.04861c0.36242,0.12081 0.79946,0.18121 1.31112,0.18121c1.05173,0 2.14255,-0.39795 3.27246,-1.19386c0.63246,-0.36242 1.1832,-0.31623 1.65222,0.13857c0.27715,0.29847 0.36953,0.58983 0.27715,0.87408c0,0.39795 -0.13147,0.71418 -0.3944,0.94869c-1.25071,1.2436 -2.89582,1.8583 -4.93534,1.84409c-1.87607,0 -3.38971,-0.61114 -4.54094,-1.83343c-1.27914,-1.25782 -1.91871,-2.90648 -1.91871,-4.946c0,-1.86896 0.52231,-3.42169 1.56694,-4.65819c1.1228,-1.39284 2.68974,-2.08926 4.70083,-2.08926c2.01109,0 3.55671,0.61825 4.63687,1.85475c1.0091,1.10148 1.53496,2.61513 1.5776,4.54094zM248.23731,214.11887c-0.03553,-0.59693 -0.3411,-1.21163 -0.91671,-1.84409c-0.51876,-0.54719 -1.28269,-0.82078 -2.29179,-0.82078c-0.83854,0 -1.55628,0.31268 -2.15321,0.93803c-0.55429,0.64667 -0.8492,1.22229 -0.88474,1.72683z" fill="#b5d9a8" stroke-width="1" stroke-linecap="square"/></g></g></svg>