<svg version="1.1" xmlns="http://www.w3.org/2000/svg" xmlns:xlink="http://www.w3.org/1999/xlink" width="190.69069" height="210.21021" viewBox="0,0,190.69069,210.21021"><g transform="translate(-144.65469,-70.31409)"><g data-paper-data="{&quot;isPaintingLayer&quot;:true}" fill-rule="nonzero" stroke-miterlimit="10" stroke-dasharray="" stroke-dashoffset="0" style="mix-blend-mode: normal"><path d="M200.46047,143.4885c0,0 0.90808,-3.72191 8.63496,-11.63232c7.72304,-7.90661 16.08365,-10.62963 21.62836,-12.9026c5.54481,-2.27297 9.2677,-13.63008 9.2677,-13.63008c0,0 5.10533,6.35031 10.35334,12.12445c5.3534,5.88848 17.82253,11.04851 31.18305,24.49691c1.59434,1.61002 2.94953,3.29527 4.08901,5.02445l0.22945,0.20111c2.98572,2.58829 13.56752,12.91525 12.21134,27.94836c-1.0369,11.4527 -6.24481,15.07303 -8.76869,16.04747l-0.0205,0.08392c1.30048,-2.57666 2.07471,-5.31035 2.44082,-8.08626c1.20488,-9.17874 -3.73944,-15.14429 -6.91068,-23.12797c-4.11146,-10.35343 -15.35815,-16.17838 -29.9216,-15.88832c-27.71687,0.5487 -33.82115,16.1304 -33.82115,16.1304l-0.01951,0.20111c5.14151,9.54792 7.19485,30.72905 -3.33331,37.0676c-11.34043,6.81595 -28.13193,4.43759 -34.67158,-21.90763c-5.98605,-24.1093 11.93797,-31.70636 17.21038,-31.6439l0.21865,-0.50673v0v0v0zM285.61584,146.96929c0,0 2.46483,3.91654 4.05694,10.00673c1.14237,4.36983 1.83543,9.85874 0.84629,15.82289M200.24084,143.99427c5.09856,0.13864 8.5158,3.7883 8.5158,3.7883M221.03533,160.47621c-0.85816,-1.33852 -1.45665,-2.44083 -1.45665,-2.44083" fill="#0078d1" stroke="none" stroke-width="0" stroke-linecap="round" stroke-linejoin="miter"/><path d="M253.5159,224.19119c0,0 6.19989,9.3674 1.78959,12.89132c-2.36803,1.90289 -5.655,-1.86178 -6.56312,-3.22385c-1.31472,-1.97735 -1.74808,-2.45332 -2.02839,-4.93252c-0.27933,-2.47382 -1.39185,-11.57025 -0.94068,-14.86328c0.70963,-5.16031 3.95814,-13.74842 6.31427,-1.73013c0,0 0.7423,6.80617 1.33362,11.35553l0.09472,0.50294v0v0v0v0v0v0v0v0v0v0v0v0v0v0v0v0v0v0v0v0v0v0v0v0v0v0v0v0v0v0v0v0v0v0v0v0zM252.1744,222.30125l1.34149,1.88995" fill="#539ad1" stroke="none" stroke-width="0" stroke-linecap="round" stroke-linejoin="miter"/><path d="M249.83413,213.42492c-0.42648,3.09882 -1.56259,11.16886 -1.37994,12.76412l-0.26557,-0.65089c0.5449,1.68375 1.09569,4.07879 0.92091,6.56879c-0.33952,4.83422 -2.76676,7.42457 -5.34595,8.80727l-0.02961,0.15753l-2.21301,9.65129c0.04239,-0.00107 0.4185,0.02374 3.06586,0.30332c3.35404,0.35176 1.79254,2.56123 1.79254,2.56123l-6.25221,-0.12205l-0.31975,-0.00431l-12.63367,-0.2471c-0.15501,-0.56229 -0.03157,-2.30119 0.76895,-6.69936c0.30894,-1.72798 0.59515,-3.21427 0.84498,-4.4296l0.00197,-0.00863c-4.26817,-3.62752 -3.75583,-9.24115 -2.45488,-13.21299c0.82914,-2.54072 5.56214,-21.71921 5.56214,-21.71921c0,0 2.05713,-7.36523 10.57065,-4.80184c0,0 9.79973,1.78301 7.36757,11.0781c0,0.00324 -0.00098,0.00324 -0.00098,0.00431v0v0v0v0v0v0v0v0v0v0v0v0v0v0v0v0v0v0v0v0v0v0v0v0v0v0v0v0v0v0v0v0v0v0v0v0zM237.36726,237.31468c0,0 3.35344,-2.56884 7.2396,-4.27416M248.45322,226.19012c-0.22209,-1.1139 -1.5438,-3.08046 -1.5438,-3.08046" fill="#539ad1" stroke="none" stroke-width="0" stroke-linecap="round" stroke-linejoin="round"/><path d="M233.71118,217.05253l-3.23857,5.82942l0.01474,-0.10155c0.10465,4.09605 -0.149,11.20879 -3.13097,12.37447c-1.60596,0.62378 -5.38156,1.62762 -5.03811,-9.63942c0.2754,-9.07606 7.68645,-17.09647 10.55688,-19.86918c0,0 2.5545,1.55414 2.65522,4.55368c0.09963,3.00157 -1.82116,6.84825 -1.8192,6.85258v0v0v0v0v0v0v0v0v0v0v0v0v0v0v0v0v0v0v0v0v0v0v0v0v0v0v0v0v0v0v0v0v0v0v0v0zM230.48734,222.78042c0,-1.73769 -0.44024,-2.81695 -0.44024,-2.81695" fill="#539ad1" stroke="none" stroke-width="0" stroke-linecap="round" stroke-linejoin="miter"/><path d="M291.41515,189.01376c0,0 2.31963,-4.19247 3.88517,-11.87914c1.56357,-7.6906 -0.52316,-18.14763 -0.52316,-18.14763c2.5911,4.6822 4.55439,10.69113 3.91969,17.72869c-1.01671,11.24084 -6.25211,15.07435 -8.86888,16.16207l1.58717,-3.86398v0v0v0v0v0v0v0v0v0v0v0v0v0v0v0v0v0v0v0v0v0v0v0v0v0v0v0v0v0v0v0v0v0v0v0v0z" fill="#404041" stroke="none" stroke-width="0" stroke-linecap="butt" stroke-linejoin="miter"/><g stroke="none" stroke-width="0" stroke-linejoin="miter"><path d="M183.00793,179.60415v0v0v0v0v0v0v0v0v0v0v0v0v0v0v0v0v0v0v0v0v0v0v0v0v0v0v0v0v0v0v0v0v0v0v0v0v0c-1.18254,-4.55341 -2.21203,-11.65399 -1.26349,-17.17604c0.9752,-5.69716 4.3382,-9.38908 8.03974,-10.28399c6.93028,-1.68275 15.30757,8.27078 18.71798,22.22605c3.20995,13.15464 0.86956,25.1676 -5.21279,27.9183c0,0 -1.99191,0.25366 -6.01134,-1.94625c-4.01637,-2.1951 -7.48894,-5.96666 -8.90537,-8.40559c-1.42036,-2.43609 -4.17925,-7.77133 -5.36474,-12.33249z" fill="#404041" stroke-linecap="butt"/><path d="M187.31359,167.99932c2.66604,-1.13786 7.19082,3.43816 10.10768,10.225c2.9138,6.78193 3.11819,13.20872 0.45499,14.34559c-2.668,1.13589 -7.19082,-3.44209 -10.10571,-10.22686c-2.91872,-6.7839 -3.12114,-13.20587 -0.45696,-14.34373v0v0v0v0zM199.03901,191.46167c-10.97823,-6.93246 -10.85587,-23.63342 -10.85587,-23.63342" fill="#929497" stroke-linecap="round"/></g><path d="M216.54388,199.93117v0v0v0v0v0v0v0v0v0v0v0v0v0v0v0v0v0v0v0v0v0v0v0v0v0v0v0v0v0v0v0v0v0v0v0v0v0l-0.05921,-0.07483c0.32772,-0.17697 0.65152,-0.3618 0.97127,-0.55265c10.65749,-6.39248 8.55995,-27.77574 3.35011,-37.3713l0.0425,-0.16911c0,0 6.17127,-15.69691 34.1963,-16.2476c14.72237,-0.29211 26.09047,5.57514 30.24809,16.00366c3.20504,8.04268 8.20753,14.04966 6.98556,23.29608c-1.27638,9.6221 -7.44557,18.81346 -23.34054,22.56044c-15.89584,3.75976 -15.25524,1.74469 -20.58448,4.02631c-5.32727,2.29342 -5.60267,3.29942 -5.60267,3.29942c0,0 1.70668,-3.32793 -5.12091,-5.02839c-10.30912,-2.55996 -19.80177,-8.86779 -21.08601,-9.74205z" fill="#e8eae9" stroke="none" stroke-width="0" stroke-linecap="round" stroke-linejoin="miter"/><path d="M269.85799,181.50811c0,0 -0.80052,2.96995 -8.58365,3.53844c-7.78608,0.57232 -14.88317,-2.73497 -14.88317,-2.73497" fill="none" stroke="#231f20" stroke-width="0.90192" stroke-linecap="round" stroke-linejoin="miter"/><path d="M238.1007,164.19391c1.09788,0 2.09219,0.44461 2.81286,1.16178c0.71979,0.71805 1.16605,1.70865 1.16605,2.80249c0,1.09383 -0.44625,2.08455 -1.16605,2.80259c-0.72067,0.71717 -1.71498,1.16178 -2.81286,1.16178c-1.09788,0 -2.09219,-0.44461 -2.81286,-1.16178c-0.71979,-0.71805 -1.16605,-1.70876 -1.16605,-2.80259c0,-1.09383 0.44625,-2.08444 1.16605,-2.80249c0.72067,-0.71717 1.71498,-1.16178 2.81286,-1.16178v0v0v0z" fill="#ffffff" stroke="#000000" stroke-width="2.63981" stroke-linecap="butt" stroke-linejoin="miter"/><path d="M274.04116,163.92077c1.09788,0 2.09219,0.44461 2.81286,1.16178c0.71979,0.71805 1.16604,1.70865 1.16604,2.80249c0,1.09383 -0.44625,2.08454 -1.16604,2.80259c-0.72067,0.71717 -1.71498,1.16178 -2.81286,1.16178c-1.09788,0 -2.0922,-0.44462 -2.81286,-1.16178c-0.71979,-0.71805 -1.16604,-1.70875 -1.16604,-2.80259c0,-1.09383 0.44625,-2.08444 1.16604,-2.80249c0.72067,-0.71717 1.71498,-1.16178 2.81286,-1.16178v0v0v0z" fill="#ffffff" stroke="#000000" stroke-width="2.63981" stroke-linecap="butt" stroke-linejoin="miter"/><path d="M144.65469,280.5243v-210.21021h190.69069v210.21021z" fill="none" stroke="none" stroke-width="0" stroke-linecap="butt" stroke-linejoin="miter"/></g></g></svg>