<svg version="1.1" xmlns="http://www.w3.org/2000/svg" xmlns:xlink="http://www.w3.org/1999/xlink" width="364.59316" height="240.18912" viewBox="0,0,364.59316,240.18912"><defs><linearGradient x1="207.47464" y1="90.84601" x2="207.47464" y2="105.82043" gradientUnits="userSpaceOnUse" id="color-1"><stop offset="0" stop-color="#ecd284"/><stop offset="1" stop-color="#c5af6e"/></linearGradient><linearGradient x1="163.47457" y1="90.84601" x2="163.47457" y2="105.82043" gradientUnits="userSpaceOnUse" id="color-2"><stop offset="0" stop-color="#ecd284"/><stop offset="1" stop-color="#c5af6e"/></linearGradient><linearGradient x1="321.17459" y1="90.79597" x2="321.17459" y2="107.01243" gradientUnits="userSpaceOnUse" id="color-3"><stop offset="0" stop-color="#ecd284"/><stop offset="1" stop-color="#c5af6e"/></linearGradient><linearGradient x1="105.79279" y1="90.79598" x2="105.79279" y2="107.01243" gradientUnits="userSpaceOnUse" id="color-4"><stop offset="0" stop-color="#ecd284"/><stop offset="1" stop-color="#c5af6e"/></linearGradient></defs><g transform="translate(-22.35813,93.003)"><g data-paper-data="{&quot;isPaintingLayer&quot;:true}" fill-rule="nonzero" stroke="none" stroke-linecap="butt" stroke-linejoin="miter" stroke-miterlimit="10" stroke-dasharray="" stroke-dashoffset="0" style="mix-blend-mode: normal"><g><g data-paper-data="{&quot;index&quot;:null}" stroke-width="0"><path d="M138.07021,146.93611v-46.09603h129.67364v46.09603z" fill="#e4cb7f"/><path d="M146.13827,108.42156v-13.30774h121.80288v13.30775z" fill="#b7a367"/><path d="M143.99794,90.84601h126.95339v14.9744c0,0 -14.53489,-0.80408 -24.75119,-1.1784c-12.79532,-0.46881 -21.41758,1.11765 -34.21368,0.7367c-12.05894,-0.359 -20.7426,-0.66512 -32.80295,-0.66512c-6.68025,0 -35.18558,1.10685 -35.18558,1.10685z" fill="url(#color-1)"/><path d="M94.07014,146.93611v-46.09603h129.67364v46.09603z" fill="#e4cb7f"/><path d="M102.13821,108.42156v-13.30774h121.80288v13.30775z" fill="#b7a367"/><path d="M99.99787,90.84601h126.95339v13.9744c0,0 -14.53489,0.19592 -24.75119,-0.1784c-12.79532,-0.46881 -21.41758,1.11765 -34.21368,0.7367c-12.05894,-0.359 -20.7426,0.33488 -32.80295,0.33488c-6.68025,0 -35.18558,0.10685 -35.18558,0.10685z" fill="url(#color-2)"/><path d="M262.07019,147.18611v-46.09603h121.67364c0,0 0,26.70746 0,35.10434c0,4.69861 -5.60083,10.99169 -11.31429,10.99169c-13.02804,0 -65.86062,0 -93.42953,0c-10.19098,0 -16.92982,0 -16.92982,0z" fill="#e4cb7f"/><path d="M259.73825,108.47159v-13.30774h124.20288v13.30775z" fill="#b7a367"/><path d="M255.39791,105.23704l4.6,-14.44107c0,0 11.97943,0 28.4767,0c33.18811,0 84.66022,0 93.66667,0c2.6757,0 4.81002,2.73834 4.81002,4.64815c0,1.84313 0,5.80076 0,8.66667c0,1.90408 -1.09362,3.14035 -2.89175,2.86281c-4.75718,-0.73428 -14.44548,-2.10998 -21.85944,-2.38163c-12.79532,-0.46881 -21.41758,1.11765 -34.21368,0.7367c-12.05894,-0.359 -20.7426,-0.66512 -32.80295,-0.66512c-4.80879,0 -22.11069,1.29717 -32.09983,1.46368c-3.88753,0.0648 -7.68574,-0.89019 -7.68574,-0.89019z" fill="url(#color-3)"/></g><path d="M255.03446,135.46063c0.0101,2.11546 -2.07692,3.8398 -3.87165,3.84836c-2.62537,0.01253 -10.15701,0.04849 -15.09599,0.07208c-2.64924,0.01265 -4.56406,-2.39482 -4.57358,-4.38867c-0.00686,-1.43784 -0.02118,-4.43781 -0.03141,-6.58031c-0.00911,-1.90787 2.07872,-3.8398 4.9213,-3.85338c4.71294,-0.02251 11.47543,-0.05479 14.12829,-0.06745c2.27717,-0.01087 4.48181,2.33646 4.48976,4.00199c0.00702,1.47078 0.02146,4.49339 0.03327,6.96738z" data-paper-data="{&quot;index&quot;:null}" fill="#e9d18c" stroke-width="NaN"/><path d="M292.78446,136.96064c0.01009,2.11547 -2.07691,3.83979 -3.87165,3.84836c-2.62537,0.01253 -10.15701,0.0485 -15.09599,0.07209c-2.64924,0.01265 -4.56406,-2.39483 -4.57358,-4.38868c-0.00687,-1.43784 -0.02118,-4.43781 -0.03141,-6.58031c-0.00911,-1.90787 2.07872,-3.8398 4.9213,-3.85337c4.71294,-0.02251 11.47543,-0.0548 14.12829,-0.06745c2.27718,-0.01087 4.48181,2.33646 4.48976,4.00199c0.00702,1.47078 0.02146,4.4934 0.03327,6.96738z" data-paper-data="{&quot;index&quot;:null}" fill="#e9d18c" stroke-width="NaN"/><path d="M237.53446,126.71064c0.01009,2.11547 -2.07691,3.83979 -3.87165,3.84836c-2.62537,0.01253 -10.15701,0.0485 -15.09599,0.07209c-2.64923,0.01265 -4.56406,-2.39483 -4.57358,-4.38868c-0.00687,-1.43784 -0.02118,-4.43781 -0.03142,-6.58031c-0.00911,-1.90787 2.07872,-3.8398 4.92131,-3.85337c4.71294,-0.02251 11.47543,-0.0548 14.12829,-0.06746c2.27717,-0.01087 4.48181,2.33646 4.48976,4.00199c0.00702,1.47078 0.02146,4.4934 0.03327,6.96738z" data-paper-data="{&quot;index&quot;:null}" fill="#e9d18c" stroke-width="NaN"/><path d="M316.53446,133.46064c0.01009,2.11547 -2.07691,3.83979 -3.87165,3.84836c-2.62537,0.01253 -10.15701,0.0485 -15.09599,0.07209c-2.64923,0.01265 -4.56406,-2.39482 -4.57358,-4.38868c-0.00687,-1.43785 -0.02118,-4.43781 -0.03142,-6.58031c-0.00911,-1.90787 2.07872,-3.8398 4.92131,-3.85337c4.71294,-0.02251 11.47543,-0.0548 14.12829,-0.06746c2.27717,-0.01087 4.48181,2.33646 4.48976,4.00199c0.00702,1.47078 0.02146,4.49339 0.03327,6.96738z" data-paper-data="{&quot;index&quot;:null}" fill="#e9d18c" stroke-width="NaN"/></g><path d="M60.08118,130.54517v-200.83987l40.82272,-1.562v202.40187z" fill="#75674b" stroke-width="0"/><path d="M66.56296,6.17407c0,-2.4559 0,-5.45641 0,-6.91645c0,-1.65335 2.17734,-3.99392 4.43787,-3.99392c2.63347,0 9.34651,0 14.025,0c2.82181,0 4.90348,1.90788 4.90348,3.80179c0,2.12683 0,5.10487 0,6.5322c0,1.97927 -1.88936,4.37817 -4.51923,4.37817c-4.90287,0 -12.37945,0 -14.98562,0c-1.78161,0 -3.86151,-1.7018 -3.86151,-3.80179z" fill="#645a42" stroke-width="NaN"/><path d="M72.55996,52.18608c0,-2.4559 0,-5.45641 0,-6.91645c0,-1.65335 2.17734,-3.99392 4.43787,-3.99392c2.63347,0 9.34651,0 14.025,0c2.82181,0 4.90348,1.90788 4.90348,3.80179c0,2.12683 0,5.10487 0,6.5322c0,1.97927 -1.88936,4.37817 -4.51923,4.37817c-4.90287,0 -12.37945,0 -14.98562,0c-1.78161,0 -3.86151,-1.7018 -3.86151,-3.80179z" fill="#645a42" stroke-width="NaN"/><path d="M63.55996,66.18608c0,-2.4559 0,-5.45641 0,-6.91645c0,-1.65335 2.17734,-3.99392 4.43787,-3.99392c2.63347,0 9.34651,0 14.025,0c2.82181,0 4.90348,1.90788 4.90348,3.80179c0,2.12683 0,5.10487 0,6.5322c0,1.97927 -1.88936,4.37817 -4.51923,4.37817c-4.90287,0 -12.37945,0 -14.98562,0c-1.78161,0 -3.86151,-1.7018 -3.86151,-3.80179z" fill="#645a42" stroke-width="NaN"/><path d="M147.96738,147.18611c-27.56891,0 -80.40149,0 -93.42953,0c-5.71346,0 -11.31429,-6.29308 -11.31429,-10.99169c0,-8.39688 0,-35.10434 0,-35.10434h121.67364v46.09603c0,0 -6.73884,0 -16.92982,0z" fill="#e4cb7f" stroke-width="0"/><path d="M43.02626,108.47161v-13.30775h124.20288v13.30774z" fill="#b7a367" stroke-width="0"/><path d="M163.88374,106.12723c-9.98914,-0.16651 -27.29104,-1.46368 -32.09983,-1.46368c-12.06035,0 -20.74401,0.30612 -32.80295,0.66512c-12.7961,0.38095 -21.41836,-1.20551 -34.21368,-0.7367c-7.41396,0.27165 -17.10226,1.64735 -21.85944,2.38163c-1.79813,0.27754 -2.89175,-0.95873 -2.89175,-2.86281c0,-2.86591 0,-6.82354 0,-8.66667c0,-1.90981 2.13432,-4.64815 4.81002,-4.64815c9.00645,0 60.47856,0 93.66667,0c16.49727,0 28.4767,0 28.4767,0l4.6,14.44107c0,0 -3.79821,0.95499 -7.68574,0.89019z" fill="url(#color-4)" stroke-width="0"/><path d="M171.93294,135.46064c0.01181,-2.47399 0.02625,-5.4966 0.03327,-6.96738c0.00795,-1.66553 2.21259,-4.01286 4.48976,-4.00199c2.65286,0.01266 9.41535,0.04494 14.12829,0.06745c2.84258,0.01358 4.93041,1.94551 4.9213,3.85338c-0.01023,2.1425 -0.02455,5.14247 -0.03141,6.58031c-0.00952,1.99385 -1.92434,4.40132 -4.57358,4.38867c-4.93898,-0.02359 -12.47062,-0.05955 -15.09599,-0.07208c-1.79473,-0.00856 -3.88175,-1.7329 -3.87165,-3.84836z" data-paper-data="{&quot;index&quot;:null}" fill="#e9d18c" stroke-width="NaN"/><path d="M134.18294,136.96065c0.01181,-2.47398 0.02625,-5.4966 0.03327,-6.96738c0.00795,-1.66553 2.21258,-4.01286 4.48976,-4.00199c2.65286,0.01265 9.41535,0.04494 14.12829,0.06745c2.84258,0.01357 4.93041,1.9455 4.9213,3.85337c-0.01023,2.1425 -0.02454,5.14247 -0.03141,6.58031c-0.00952,1.99385 -1.92434,4.40133 -4.57358,4.38868c-4.93898,-0.02359 -12.47062,-0.05956 -15.09599,-0.07209c-1.79474,-0.00857 -3.88174,-1.73289 -3.87165,-3.84836z" data-paper-data="{&quot;index&quot;:null}" fill="#e9d18c" stroke-width="NaN"/><path d="M189.43294,126.71065c0.01181,-2.47398 0.02625,-5.4966 0.03327,-6.96738c0.00795,-1.66553 2.21259,-4.01286 4.48976,-4.00199c2.65286,0.01266 9.41535,0.04495 14.12829,0.06746c2.84259,0.01357 4.93042,1.9455 4.92131,3.85337c-0.01024,2.1425 -0.02455,5.14247 -0.03142,6.58031c-0.00952,1.99385 -1.92435,4.40133 -4.57358,4.38868c-4.93898,-0.02359 -12.47062,-0.05956 -15.09599,-0.07209c-1.79474,-0.00857 -3.88174,-1.73289 -3.87165,-3.84836z" data-paper-data="{&quot;index&quot;:null}" fill="#e9d18c" stroke-width="NaN"/><path d="M110.43293,133.46065c0.01181,-2.47399 0.02625,-5.4966 0.03327,-6.96738c0.00795,-1.66553 2.21259,-4.01286 4.48976,-4.00199c2.65286,0.01266 9.41535,0.04495 14.12829,0.06746c2.84259,0.01357 4.93042,1.9455 4.92131,3.85337c-0.01024,2.1425 -0.02455,5.14246 -0.03142,6.58031c-0.00952,1.99386 -1.92435,4.40133 -4.57358,4.38868c-4.93898,-0.02359 -12.47062,-0.05956 -15.09599,-0.07209c-1.79474,-0.00857 -3.88174,-1.73289 -3.87165,-3.84836z" data-paper-data="{&quot;index&quot;:null}" fill="#e9d18c" stroke-width="NaN"/><path d="M64.68295,131.71065c0.0118,-2.47398 0.02624,-5.4966 0.03326,-6.96738c0.00795,-1.66553 2.21258,-4.01286 4.48976,-4.00199c2.65286,0.01265 9.41535,0.04494 14.12829,0.06745c2.84258,0.01357 4.93041,1.9455 4.9213,3.85337c-0.01023,2.1425 -0.02454,5.14246 -0.03141,6.58031c-0.00952,1.99386 -1.92434,4.40133 -4.57358,4.38868c-4.93898,-0.02359 -12.47062,-0.05955 -15.09599,-0.07209c-1.79474,-0.00856 -3.88174,-1.73289 -3.87165,-3.84836z" data-paper-data="{&quot;index&quot;:null}" fill="#e9d18c" stroke-width="NaN"/><path d="M72.52993,-37.93403c0,-2.4559 0,-5.45641 0,-6.91645c0,-1.65335 2.17734,-3.99392 4.43787,-3.99392c2.63347,0 9.34651,0 14.025,0c2.82181,0 4.90348,1.90788 4.90348,3.80179c0,2.12683 0,5.10487 0,6.5322c0,1.97927 -1.88936,4.37817 -4.51923,4.37817c-4.90287,0 -12.37945,0 -14.98562,0c-1.78161,0 -3.86151,-1.7018 -3.86151,-3.80179z" fill="#645a42" stroke-width="NaN"/><path d="M22.35813,1.10626v-94.10926h136.63664v94.10926z" fill="none" stroke-width="0"/></g></g></svg>