<svg version="1.1" xmlns="http://www.w3.org/2000/svg" xmlns:xlink="http://www.w3.org/1999/xlink" width="213.27547" height="149.2726" viewBox="0,0,213.27547,149.2726"><defs><linearGradient x1="469.05051" y1="211.6765" x2="469.05051" y2="399.54616" gradientUnits="userSpaceOnUse" id="color-1"><stop offset="0" stop-color="#7e7463"/><stop offset="1" stop-color="#847c6b"/></linearGradient><linearGradient x1="468.66342" y1="226.37834" x2="468.66342" y2="259.44539" gradientUnits="userSpaceOnUse" id="color-2"><stop offset="0" stop-color="#454037"/><stop offset="1" stop-color="#454037" stop-opacity="0"/></linearGradient><linearGradient x1="441.45892" y1="210.10501" x2="441.45892" y2="232.10501" gradientUnits="userSpaceOnUse" id="color-3"><stop offset="0" stop-color="#95bd86"/><stop offset="1" stop-color="#80a374"/></linearGradient><linearGradient x1="430.76213" y1="210.10501" x2="430.76213" y2="232.10501" gradientUnits="userSpaceOnUse" id="color-4"><stop offset="0" stop-color="#95bd86"/><stop offset="1" stop-color="#80a374"/></linearGradient></defs><g transform="translate(-339.21217,-199.07174)"><g data-paper-data="{&quot;isPaintingLayer&quot;:true}" fill-rule="nonzero" stroke="none" stroke-width="0" stroke-linecap="butt" stroke-linejoin="miter" stroke-miterlimit="10" stroke-dasharray="" stroke-dashoffset="0" style="mix-blend-mode: normal"><path d="M345.68862,211.67653h197.7833c0.08374,2.34803 0.08852,8.6674 0.07528,14.80077c-0.01123,5.20045 -0.03541,10.26717 -0.03541,12.66598c0,6.98024 0.63713,64.473 1.13872,108.65315c-4.40424,-0.0004 -8.82285,0.11403 -13.10611,0.2942c-13.18817,-3.29704 -27.26339,-0.85567 -40.61733,-0.06857c-8.81535,0.51959 -17.83691,-0.00636 -26.67057,-0.00636c-4.5045,0 -9.01029,-0.10741 -13.51351,0c-1.23902,0.02955 -2.48954,0.49163 -3.70848,0.26751c-1.1007,-0.20238 -1.90163,-1.30279 -3.003,-1.5015c-4.91944,-0.88756 -10.76543,-0.26751 -15.81104,-0.26751c-1.21816,0.46192 -2.44458,-0.91802 -3.70848,-1.23399c-0.97111,-0.24278 -2.03189,0.24278 -3.003,0c-1.08574,-0.27143 -1.90841,-1.26831 -3.003,-1.5015c-1.67422,-0.35668 -8.92685,-0.35668 -10.60106,0c-1.09459,0.23319 -1.9023,1.29912 -3.003,1.5015c-3.18598,0.58578 -6.47509,-0.26751 -9.71448,-0.26751c-5.25647,0 -11.28678,0.7201 -16.4162,0.12913c-1.57232,-0.18115 -2.94015,-1.2611 -4.5045,-1.5015c-1.42398,-0.21883 -10.20463,-0.08465 -11.80029,-0.12426c-5.60109,-0.13904 -11.18902,-0.57829 -16.77782,-0.9983z" fill="url(#color-1)"/><path d="M465.36823,229.54431h43v117.1361c-5.8618,0.36308 -11.71773,1.00431 -17.44117,1.34165c-8.44586,0.49781 -17.081,0.0359 -25.55883,-0.0037z" fill="#7c7464"/><path d="M381.70161,229.54432h43v115.79102c-0.06312,-0.0208 -0.12632,-0.03929 -0.18962,-0.05512c-0.97111,-0.24278 -2.03189,0.24278 -3.003,0c-1.08574,-0.27143 -1.90841,-1.26831 -3.003,-1.5015c-1.67422,-0.35668 -8.92685,-0.35668 -10.60106,0c-1.09459,0.23319 -1.9023,1.29912 -3.003,1.5015c-3.18598,0.58578 -6.47509,-0.26751 -9.71448,-0.26751c-4.28349,0 -9.08085,0.47819 -13.48582,0.33542z" fill="#7c7464"/><path d="M345.36524,259.44539c0,0 -0.09279,-21.05637 -0.09279,-25.92258c0,-1.56759 14.95657,-7.26319 14.95657,-7.26319l182.24949,0.09417c-1.09205,4.10494 1.03328,8.43796 1.03328,12.7895c0,6.76737 0,13.53474 0,20.30211z" fill="url(#color-2)"/><path d="M339.31278,211.86211c0,0 -0.02698,0.32297 -0.04609,-1.1973c-0.14226,-12.98086 7.39156,-11.54604 12.82201,-11.54604c18.31743,0 126.34193,0 190.94752,0c0.08427,0.56076 0.21511,1.10627 0.38845,1.63249c0,2.00437 -0.12131,6.40426 0.05397,11.11086z" fill="#94bc85"/><path d="M339.2454,236.10501c0,-4.21713 0,-14.07115 0,-14.07115c0,0 93.45957,0.17656 133.05383,0.25137c31.92344,0.06031 32.86582,23.20522 3.86025,23.20522c-48.63396,0 -95.63587,0 -112.38018,0c-6.10971,0 -9.62673,0 -14.17734,0c-10.0914,0 -10.35657,-5.9413 -10.35657,-9.38544z" fill="#80a374"/><path d="M339.21218,232.10501v-22c0,0 2.43263,0 5.66263,0c13.42537,0 105.84531,0 159.83412,0c0.01641,0.86766 0.01839,6.7431 0.01533,12.20481c-0.0002,0.3577 -0.00042,0.71363 -0.00066,1.06625c-0.0031,4.53229 -0.00931,8.51984 -0.01306,8.72894z" fill="url(#color-3)"/><path d="M348.22117,211.86212c0.17528,-4.7066 0.05397,-9.10649 0.05397,-11.11086c0.17334,-0.52622 0.30418,-1.07173 0.38845,-1.63249c64.60559,0 172.63009,0 190.94752,0c5.43045,0 12.96427,-1.43482 12.82201,11.54604c-0.01911,1.52027 -0.04609,1.1973 -0.04609,1.1973z" data-paper-data="{&quot;index&quot;:null}" fill="#94bc85"/><path d="M552.45444,236.10501c0,3.44414 -0.26517,9.38544 -10.35657,9.38544c-4.55061,0 -8.06763,0 -14.17734,0c-16.74431,0 -63.74622,0 -112.38018,0c-29.00557,0 -44.90495,-23.11309 -19.02797,-23.16198c40.51813,-0.07655 155.94205,-0.29461 155.94205,-0.29461c0,0 0,9.85402 0,14.07115z" data-paper-data="{&quot;index&quot;:null}" fill="#80a374"/><path d="M355.4606,232.10501c-0.00446,-0.2091 -0.01185,-4.19665 -0.01554,-8.72894c-0.00029,-0.35262 -0.00055,-0.70855 -0.00079,-1.06625c-0.00364,-5.46171 -0.00129,-11.33715 0.01825,-12.20481c64.27408,0 174.30073,0 190.28373,0c3.84533,0 6.7414,0 6.7414,0v22z" data-paper-data="{&quot;index&quot;:null}" fill="url(#color-4)"/></g></g></svg>