<svg version="1.1" xmlns="http://www.w3.org/2000/svg" xmlns:xlink="http://www.w3.org/1999/xlink" width="604.77541" height="338.08439" viewBox="0,0,604.77541,338.08439"><defs><linearGradient x1="126.0865" y1="121.70417" x2="122.09724" y2="144.89931" gradientUnits="userSpaceOnUse" id="color-1"><stop offset="0" stop-color="#ecd284"/><stop offset="1" stop-color="#c5af6e"/></linearGradient><linearGradient x1="336.69755" y1="108.1891" x2="336.69755" y2="189.96865" gradientUnits="userSpaceOnUse" id="color-2"><stop offset="0" stop-color="#7e7463"/><stop offset="1" stop-color="#847c6b"/></linearGradient><linearGradient x1="338.25278" y1="122.89092" x2="338.25278" y2="155.95796" gradientUnits="userSpaceOnUse" id="color-3"><stop offset="0" stop-color="#454037"/><stop offset="1" stop-color="#454037" stop-opacity="0"/></linearGradient><linearGradient x1="241.11631" y1="106.61759" x2="241.11631" y2="128.61759" gradientUnits="userSpaceOnUse" id="color-4"><stop offset="0" stop-color="#95bd86"/><stop offset="1" stop-color="#80a374"/></linearGradient><linearGradient x1="404.94956" y1="106.61761" x2="404.94956" y2="128.61759" gradientUnits="userSpaceOnUse" id="color-5"><stop offset="0" stop-color="#95bd86"/><stop offset="1" stop-color="#80a374"/></linearGradient><linearGradient x1="354.62179" y1="302.55772" x2="354.62179" y2="317.53214" gradientUnits="userSpaceOnUse" id="color-6"><stop offset="0" stop-color="#ecd284"/><stop offset="1" stop-color="#c5af6e"/></linearGradient><linearGradient x1="310.62172" y1="302.55772" x2="310.62172" y2="317.53214" gradientUnits="userSpaceOnUse" id="color-7"><stop offset="0" stop-color="#ecd284"/><stop offset="1" stop-color="#c5af6e"/></linearGradient><linearGradient x1="468.32174" y1="302.50768" x2="468.32174" y2="318.72414" gradientUnits="userSpaceOnUse" id="color-8"><stop offset="0" stop-color="#ecd284"/><stop offset="1" stop-color="#c5af6e"/></linearGradient><linearGradient x1="252.93994" y1="302.50769" x2="252.93994" y2="318.72414" gradientUnits="userSpaceOnUse" id="color-9"><stop offset="0" stop-color="#ecd284"/><stop offset="1" stop-color="#c5af6e"/></linearGradient><linearGradient x1="-27.43534" y1="196.31815" x2="-27.43534" y2="219.85384" gradientUnits="userSpaceOnUse" id="color-10"><stop offset="0" stop-color="#ecd284"/><stop offset="1" stop-color="#c5af6e"/></linearGradient><linearGradient x1="72.20357" y1="290.01679" x2="65.3023" y2="312.51794" gradientUnits="userSpaceOnUse" id="color-11"><stop offset="0" stop-color="#ecd284"/><stop offset="1" stop-color="#c5af6e"/></linearGradient><linearGradient x1="388.14715" y1="87.70648" x2="388.14715" y2="189.80858" gradientUnits="userSpaceOnUse" id="color-12"><stop offset="0" stop-color="#7e7463"/><stop offset="1" stop-color="#847c6b"/></linearGradient><linearGradient x1="411.60635" y1="79.2312" x2="411.60635" y2="112.29825" gradientUnits="userSpaceOnUse" id="color-13"><stop offset="0" stop-color="#454037"/><stop offset="1" stop-color="#454037" stop-opacity="0"/></linearGradient><linearGradient x1="403.88061" y1="62.95788" x2="403.88061" y2="84.95788" gradientUnits="userSpaceOnUse" id="color-14"><stop offset="0" stop-color="#95bd86"/><stop offset="1" stop-color="#80a374"/></linearGradient><linearGradient x1="373.70503" y1="62.95788" x2="373.70503" y2="84.95788" gradientUnits="userSpaceOnUse" id="color-15"><stop offset="0" stop-color="#95bd86"/><stop offset="1" stop-color="#80a374"/></linearGradient><linearGradient x1="388.14719" y1="87.70648" x2="388.14719" y2="189.80859" gradientUnits="userSpaceOnUse" id="color-16"><stop offset="0" stop-color="#7e7463"/><stop offset="1" stop-color="#847c6b"/></linearGradient><linearGradient x1="411.6064" y1="79.23122" x2="411.6064" y2="112.29827" gradientUnits="userSpaceOnUse" id="color-17"><stop offset="0" stop-color="#454037"/><stop offset="1" stop-color="#454037" stop-opacity="0"/></linearGradient><linearGradient x1="403.88066" y1="62.95789" x2="403.88066" y2="84.95789" gradientUnits="userSpaceOnUse" id="color-18"><stop offset="0" stop-color="#95bd86"/><stop offset="1" stop-color="#80a374"/></linearGradient><linearGradient x1="373.70508" y1="62.95789" x2="373.70508" y2="84.95789" gradientUnits="userSpaceOnUse" id="color-19"><stop offset="0" stop-color="#95bd86"/><stop offset="1" stop-color="#80a374"/></linearGradient></defs><g transform="translate(70.67696,-51.92461)"><g data-paper-data="{&quot;isPaintingLayer&quot;:true}" fill-rule="nonzero" stroke="none" stroke-linecap="butt" stroke-linejoin="miter" stroke-miterlimit="10" stroke-dasharray="" stroke-dashoffset="0" style="mix-blend-mode: normal"><path d="M163.4945,138.44821c-0.02981,0.21981 -1.23619,16.00794 -2.17102,26.76654c-0.48548,5.58722 -4.01948,9.57365 -8.79745,9.1997c-16.86757,-1.32012 -55.88858,-4.37407 -63.26063,-4.95104c-6.14907,-0.48126 -8.06491,-5.65854 -7.77293,-9.38926c0.5218,-6.66718 2.18146,-27.87303 2.18146,-27.87303z" data-paper-data="{&quot;index&quot;:null}" fill="#e4cb7f" stroke-width="0"/><path d="M83.06272,139.61831l1.03835,-13.26718l79.79222,6.24487l-1.03835,13.26717z" data-paper-data="{&quot;index&quot;:null}" fill="#b7a367" stroke-width="0"/><path d="M86.46849,122.15523c7.51764,0.58836 76.40476,5.97975 76.40476,5.97975c0,0 4.6825,-0.16099 4.37738,3.7457c0.06621,0.85321 -0.81197,10.31486 -0.81197,10.31486c0,0 -0.44797,2.84836 -2.84265,2.72652c-2.45977,-0.12517 -6.00733,-0.76725 -9.78555,-1.51108c-5.64085,-1.11052 -11.7958,-2.4478 -15.61226,-2.63002c-12.52072,-0.59781 -20.81361,-2.83815 -33.34044,-3.34831c-7.25838,-0.29559 -16.82302,0.33575 -21.52407,0.70435c-1.77691,0.13932 -2.74799,-1.17673 -2.59943,-3.075c0.22361,-2.85718 0.53241,-6.80274 0.67622,-8.64025c0.14902,-1.90398 2.44611,-4.47092 5.05801,-4.2665z" data-paper-data="{&quot;index&quot;:null}" fill="url(#color-1)" stroke-width="0"/><path d="M147.72136,141.5446c-0.16541,2.11359 -2.39282,3.66257 -4.18597,3.52223c-2.62305,-0.20529 -10.14802,-0.79422 -15.08263,-1.18043c-2.6469,-0.20716 -4.35952,-2.7704 -4.20362,-4.76249c0.11243,-1.43658 0.34702,-4.43389 0.51455,-6.57448c0.14918,-1.90618 2.39461,-3.66243 5.23468,-3.44015c4.70877,0.36853 11.46527,0.89733 14.11579,1.10477c2.27517,0.17806 4.28223,2.70529 4.15199,4.36935c-0.11501,1.46949 -0.35136,4.48942 -0.54482,6.96122z" data-paper-data="{&quot;index&quot;:null}" fill="#e9d18c" stroke-width="NaN"/><path d="M121.24129,189.96865c-5.32883,0 -9.28746,-4.67134 -9.28746,-9.19027c0,-12.70011 0,-72.58927 0,-72.58927h360.32646c0.15256,1.0221 0.16126,3.77292 0.13714,6.44277c-0.02046,2.26375 -0.06451,4.46929 -0.06451,5.51349c0,5.01095 3.1569,69.82328 3.1569,69.82328c0,0 -321.35687,0 -354.26853,0z" data-paper-data="{&quot;index&quot;:null}" fill="url(#color-2)" stroke-width="0"/><path d="M111.70814,155.95797c0,0 -0.17049,-21.05637 -0.17049,-25.92258c0,-1.56759 27.48077,-7.26319 27.48077,-7.26319l334.86005,0.09417c-2.0065,4.10494 1.89852,8.43796 1.89852,12.7895c0,6.76737 0,13.53474 0,20.30211z" data-paper-data="{&quot;index&quot;:null}" fill="url(#color-3)" stroke-width="0"/><path d="M281.34625,118.54645l198.05146,0.41477c0,0 0.04893,11.4667 0.04893,16.69466c0,2.11572 0,4.23144 0,6.34716c-22.41161,0 -49.93188,0 -76.91217,0c-45.23814,0 -88.95819,0 -104.53334,0c-5.68311,0 -16.6959,0 -16.6959,0z" data-paper-data="{&quot;index&quot;:null}" fill="#80a374" stroke-width="0"/><path d="M281.02235,108.37471l-0.20093,-12.74334c0,0 132.67015,0 198.14379,0c0.0854,0.56076 0.218,1.10627 0.39367,1.63249c0,2.00437 -0.12294,6.40426 0.0547,11.11086z" data-paper-data="{&quot;index&quot;:null}" fill="#94bc85" stroke-width="0"/><path d="M105.57798,108.37469c0,0 -0.02698,0.32297 -0.04609,-1.1973c-0.14226,-12.98086 7.39156,-11.54604 12.82201,-11.54604c18.31743,0 126.34193,0 190.94752,0c0.08427,0.56076 0.21511,1.10627 0.38845,1.63249c0,2.00437 -0.12131,6.40426 0.05397,11.11086z" data-paper-data="{&quot;index&quot;:null}" fill="#94bc85" stroke-width="0"/><path d="M105.51061,132.61759c0,-4.21713 0,-14.07115 0,-14.07115l219.54709,0.41477c0,0 0.0526,11.4667 0.0526,16.69466c0,2.11572 0,4.23144 0,6.34716c-24.09395,0 -53.68004,0 -82.68561,0c-48.63396,0 -95.63587,0 -112.38018,0c-6.10971,0 -9.62673,0 -14.17734,0c-10.0914,0 -10.35657,-5.9413 -10.35657,-9.38544z" data-paper-data="{&quot;index&quot;:null}" fill="#80a374" stroke-width="0"/><path d="M105.47738,128.61759v-22c0,0 3.22709,0 7.51195,0c17.80988,0 140.41274,0 212.03345,0c0.02177,0.86766 0.02439,6.7431 0.02034,12.20481c-0.00027,0.3577 -0.00056,0.71363 -0.00088,1.06625c-0.00411,4.53229 -0.01235,8.51984 -0.01732,8.72894z" data-paper-data="{&quot;index&quot;:null}" fill="url(#color-4)" stroke-width="0"/><path d="M281.31482,128.61759l-0.06127,-22c0,0 135.46988,0 204.10647,0c0.02086,0.86766 0.02337,6.7431 0.01949,12.20481c-0.00025,0.3577 -0.00053,0.71363 -0.00084,1.06625c-0.00394,4.53229 -0.01184,8.51984 -0.0166,8.72894z" data-paper-data="{&quot;index&quot;:null}" fill="url(#color-5)" stroke-width="0"/><g><g><g data-paper-data="{&quot;index&quot;:null}" stroke-width="0"><path d="M285.21736,358.64782v-46.09603h129.67364v46.09603z" fill="#e4cb7f"/><path d="M293.28542,320.13327v-13.30774h121.80288v13.30775z" fill="#b7a367"/><path d="M291.14509,302.55772h126.95339v14.9744c0,0 -14.53489,-0.80408 -24.75119,-1.1784c-12.79532,-0.46881 -21.41758,1.11765 -34.21368,0.7367c-12.05894,-0.359 -20.7426,-0.66512 -32.80295,-0.66512c-6.68025,0 -35.18558,1.10685 -35.18558,1.10685z" fill="url(#color-6)"/><path d="M241.21729,358.64782v-46.09603h129.67364v46.09603z" fill="#e4cb7f"/><path d="M249.28536,320.13327v-13.30774h121.80288v13.30775z" fill="#b7a367"/><path d="M247.14502,302.55772h126.95339v13.9744c0,0 -14.53489,0.19592 -24.75119,-0.1784c-12.79532,-0.46881 -21.41758,1.11765 -34.21368,0.7367c-12.05894,-0.359 -20.7426,0.33488 -32.80295,0.33488c-6.68025,0 -35.18558,0.10685 -35.18558,0.10685z" fill="url(#color-7)"/><path d="M409.21734,358.89782v-46.09603h121.67364c0,0 0,26.70746 0,35.10434c0,4.69861 -5.60083,10.99169 -11.31429,10.99169c-13.02804,0 -65.86062,0 -93.42953,0c-10.19098,0 -16.92982,0 -16.92982,0z" fill="#e4cb7f"/><path d="M406.8854,320.1833v-13.30774h124.20288v13.30775z" fill="#b7a367"/><path d="M402.54506,316.94875l4.6,-14.44107c0,0 11.97943,0 28.4767,0c33.18811,0 84.66022,0 93.66667,0c2.6757,0 4.81002,2.73834 4.81002,4.64815c0,1.84313 0,5.80076 0,8.66667c0,1.90408 -1.09362,3.14035 -2.89175,2.86281c-4.75718,-0.73428 -14.44548,-2.10998 -21.85944,-2.38163c-12.79532,-0.46881 -21.41758,1.11765 -34.21368,0.7367c-12.05894,-0.359 -20.7426,-0.66512 -32.80295,-0.66512c-4.80879,0 -22.11069,1.29717 -32.09983,1.46368c-3.88753,0.0648 -7.68574,-0.89019 -7.68574,-0.89019z" fill="url(#color-8)"/></g><path d="M402.18161,347.17234c0.0101,2.11546 -2.07692,3.8398 -3.87165,3.84836c-2.62537,0.01253 -10.15701,0.04849 -15.09599,0.07208c-2.64924,0.01265 -4.56406,-2.39482 -4.57358,-4.38867c-0.00686,-1.43784 -0.02118,-4.43781 -0.03141,-6.58031c-0.00911,-1.90787 2.07872,-3.8398 4.9213,-3.85338c4.71294,-0.02251 11.47543,-0.05479 14.12829,-0.06745c2.27717,-0.01087 4.48181,2.33646 4.48976,4.00199c0.00702,1.47078 0.02146,4.49339 0.03327,6.96738z" data-paper-data="{&quot;index&quot;:null}" fill="#e9d18c" stroke-width="NaN"/><path d="M439.93161,348.67235c0.01009,2.11547 -2.07691,3.83979 -3.87165,3.84836c-2.62537,0.01253 -10.15701,0.0485 -15.09599,0.07209c-2.64924,0.01265 -4.56406,-2.39483 -4.57358,-4.38868c-0.00687,-1.43784 -0.02118,-4.43781 -0.03141,-6.58031c-0.00911,-1.90787 2.07872,-3.8398 4.9213,-3.85337c4.71294,-0.02251 11.47543,-0.0548 14.12829,-0.06745c2.27718,-0.01087 4.48181,2.33646 4.48976,4.00199c0.00702,1.47078 0.02146,4.4934 0.03327,6.96738z" data-paper-data="{&quot;index&quot;:null}" fill="#e9d18c" stroke-width="NaN"/><path d="M384.68161,338.42235c0.01009,2.11547 -2.07691,3.83979 -3.87165,3.84836c-2.62537,0.01253 -10.15701,0.0485 -15.09599,0.07209c-2.64923,0.01265 -4.56406,-2.39483 -4.57358,-4.38868c-0.00687,-1.43784 -0.02118,-4.43781 -0.03142,-6.58031c-0.00911,-1.90787 2.07872,-3.8398 4.92131,-3.85337c4.71294,-0.02251 11.47543,-0.0548 14.12829,-0.06746c2.27717,-0.01087 4.48181,2.33646 4.48976,4.00199c0.00702,1.47078 0.02146,4.4934 0.03327,6.96738z" data-paper-data="{&quot;index&quot;:null}" fill="#e9d18c" stroke-width="NaN"/><path d="M463.68161,345.17235c0.01009,2.11547 -2.07691,3.83979 -3.87165,3.84836c-2.62537,0.01253 -10.15701,0.0485 -15.09599,0.07209c-2.64923,0.01265 -4.56406,-2.39482 -4.57358,-4.38868c-0.00687,-1.43785 -0.02118,-4.43781 -0.03142,-6.58031c-0.00911,-1.90787 2.07872,-3.8398 4.92131,-3.85337c4.71294,-0.02251 11.47543,-0.0548 14.12829,-0.06746c2.27717,-0.01087 4.48181,2.33646 4.48976,4.00199c0.00702,1.47078 0.02146,4.49339 0.03327,6.96738z" data-paper-data="{&quot;index&quot;:null}" fill="#e9d18c" stroke-width="NaN"/></g><path d="M295.11453,358.89782c-27.56891,0 -80.40149,0 -93.42953,0c-5.71346,0 -11.31429,-6.29308 -11.31429,-10.99169c0,-8.39688 0,-35.10434 0,-35.10434h121.67364v46.09603c0,0 -6.73884,0 -16.92982,0z" fill="#e4cb7f" stroke-width="0"/><path d="M190.17341,320.18332v-13.30775h124.20288v13.30774z" fill="#b7a367" stroke-width="0"/><path d="M311.03089,317.83894c-9.98914,-0.16651 -27.29104,-1.46368 -32.09983,-1.46368c-12.06035,0 -20.74401,0.30612 -32.80295,0.66512c-12.7961,0.38095 -21.41836,-1.20551 -34.21368,-0.7367c-7.41396,0.27165 -17.10226,1.64735 -21.85944,2.38163c-1.79813,0.27754 -2.89175,-0.95873 -2.89175,-2.86281c0,-2.86591 0,-6.82354 0,-8.66667c0,-1.90981 2.13432,-4.64815 4.81002,-4.64815c9.00645,0 60.47856,0 93.66667,0c16.49727,0 28.4767,0 28.4767,0l4.6,14.44107c0,0 -3.79821,0.95499 -7.68574,0.89019z" fill="url(#color-9)" stroke-width="0"/><path d="M319.08009,347.17235c0.01181,-2.47399 0.02625,-5.4966 0.03327,-6.96738c0.00795,-1.66553 2.21259,-4.01286 4.48976,-4.00199c2.65286,0.01266 9.41535,0.04494 14.12829,0.06745c2.84258,0.01358 4.93041,1.94551 4.9213,3.85338c-0.01023,2.1425 -0.02455,5.14247 -0.03141,6.58031c-0.00952,1.99385 -1.92434,4.40132 -4.57358,4.38867c-4.93898,-0.02359 -12.47062,-0.05955 -15.09599,-0.07208c-1.79473,-0.00856 -3.88175,-1.7329 -3.87165,-3.84836z" data-paper-data="{&quot;index&quot;:null}" fill="#e9d18c" stroke-width="NaN"/><path d="M281.33009,348.67236c0.01181,-2.47398 0.02625,-5.4966 0.03327,-6.96738c0.00795,-1.66553 2.21258,-4.01286 4.48976,-4.00199c2.65286,0.01265 9.41535,0.04494 14.12829,0.06745c2.84258,0.01357 4.93041,1.9455 4.9213,3.85337c-0.01023,2.1425 -0.02454,5.14247 -0.03141,6.58031c-0.00952,1.99385 -1.92434,4.40133 -4.57358,4.38868c-4.93898,-0.02359 -12.47062,-0.05956 -15.09599,-0.07209c-1.79474,-0.00857 -3.88174,-1.73289 -3.87165,-3.84836z" data-paper-data="{&quot;index&quot;:null}" fill="#e9d18c" stroke-width="NaN"/><path d="M336.58009,338.42236c0.01181,-2.47398 0.02625,-5.4966 0.03327,-6.96738c0.00795,-1.66553 2.21259,-4.01286 4.48976,-4.00199c2.65286,0.01266 9.41535,0.04495 14.12829,0.06746c2.84259,0.01357 4.93042,1.9455 4.92131,3.85337c-0.01024,2.1425 -0.02455,5.14247 -0.03142,6.58031c-0.00952,1.99385 -1.92435,4.40133 -4.57358,4.38868c-4.93898,-0.02359 -12.47062,-0.05956 -15.09599,-0.07209c-1.79474,-0.00857 -3.88174,-1.73289 -3.87165,-3.84836z" data-paper-data="{&quot;index&quot;:null}" fill="#e9d18c" stroke-width="NaN"/><path d="M257.58008,345.17236c0.01181,-2.47399 0.02625,-5.4966 0.03327,-6.96738c0.00795,-1.66553 2.21259,-4.01286 4.48976,-4.00199c2.65286,0.01266 9.41535,0.04495 14.12829,0.06746c2.84259,0.01357 4.93042,1.9455 4.92131,3.85337c-0.01024,2.1425 -0.02455,5.14246 -0.03142,6.58031c-0.00952,1.99386 -1.92435,4.40133 -4.57358,4.38868c-4.93898,-0.02359 -12.47062,-0.05956 -15.09599,-0.07209c-1.79474,-0.00857 -3.88174,-1.73289 -3.87165,-3.84836z" data-paper-data="{&quot;index&quot;:null}" fill="#e9d18c" stroke-width="NaN"/><path d="M211.8301,343.42236c0.0118,-2.47398 0.02624,-5.4966 0.03326,-6.96738c0.00795,-1.66553 2.21258,-4.01286 4.48976,-4.00199c2.65286,0.01265 9.41535,0.04494 14.12829,0.06745c2.84258,0.01357 4.93041,1.9455 4.9213,3.85337c-0.01023,2.1425 -0.02454,5.14246 -0.03141,6.58031c-0.00952,1.99386 -1.92434,4.40133 -4.57358,4.38868c-4.93898,-0.02359 -12.47062,-0.05955 -15.09599,-0.07209c-1.79474,-0.00856 -3.88174,-1.73289 -3.87165,-3.84836z" data-paper-data="{&quot;index&quot;:null}" fill="#e9d18c" stroke-width="NaN"/></g><path d="M12.26947,206.47933c0.00788,0.22168 1.49501,15.98585 2.39727,26.74723c0.46857,5.58866 -2.3386,10.11642 -7.11082,10.55774c-16.84726,1.558 -55.8213,5.16223 -63.18447,5.84316c-6.14167,0.56796 -8.90733,-4.20968 -9.25192,-7.93591c-0.61582,-6.65915 -2.57453,-27.83948 -2.57453,-27.83948z" data-paper-data="{&quot;index&quot;:null}" fill="#e4cb7f" stroke-width="0"/><path d="M-66.80017,221.26553l-1.22544,-13.25121l79.69616,-7.37012l1.22544,13.2512z" data-paper-data="{&quot;index&quot;:null}" fill="#b7a367" stroke-width="0"/><path d="M-66.40364,203.47786c7.50859,-0.69438 76.31278,-7.05724 76.31278,-7.05724c0,0 4.58746,-0.95234 4.94893,2.94954c0.20987,0.82964 0.94813,10.30324 0.94813,10.30324c0,0 0.0413,2.88308 -2.33938,3.16889c-2.44539,0.29357 -6.05046,0.26208 -9.90008,0.16942c-5.74746,-0.13834 -12.04002,-0.41302 -15.83214,0.05428c-12.44088,1.53308 -20.99351,0.73078 -33.42555,2.35128c-7.20346,0.93897 -16.52269,3.18236 -21.09324,4.34245c-1.72758,0.43849 -2.90768,-0.69392 -3.08302,-2.58991c-0.26391,-2.85374 -0.62835,-6.79455 -0.79807,-8.62985c-0.17586,-1.90169 1.6529,-4.82084 4.26166,-5.06209z" data-paper-data="{&quot;index&quot;:null}" fill="url(#color-10)" stroke-width="0"/><path d="M0.46985,230.92951c0.19523,2.11104 -1.7374,4.01515 -3.52839,4.18078c-2.61989,0.24228 -10.1358,0.93734 -15.06447,1.39313c-2.64371,0.24448 -4.76602,-1.99138 -4.95003,-3.98107c-0.13269,-1.43485 -0.40954,-4.42855 -0.60726,-6.56657c-0.17607,-1.90388 1.73919,-4.01532 4.57584,-4.27764c4.7031,-0.43493 11.45147,-1.059 14.0988,-1.30382c2.27243,-0.21015 4.67881,1.94032 4.83251,3.60237c0.13573,1.46772 0.41467,4.48402 0.64298,6.95284z" data-paper-data="{&quot;index&quot;:null}" fill="#e9d18c" stroke-width="NaN"/><path d="M107.18354,311.37381c-0.05747,0.21425 -3.25817,15.72154 -5.55109,26.27445c-1.19077,5.4804 -5.2022,8.98599 -9.89406,8.00858c-16.56355,-3.45054 -54.88127,-11.43294 -62.12045,-12.94101c-6.03824,-1.2579 -7.2814,-6.6365 -6.51822,-10.29998c1.36388,-6.54701 5.70189,-27.37067 5.70189,-27.37067z" data-paper-data="{&quot;index&quot;:null}" fill="#e4cb7f" stroke-width="0"/><path d="M27.25385,302.32479l2.71402,-13.02806l78.35408,16.32283l-2.71403,13.02805z" data-paper-data="{&quot;index&quot;:null}" fill="#b7a367" stroke-width="0"/><path d="M32.84876,285.43527c7.38215,1.53786 75.02768,15.62986 75.02768,15.62986c0,0 4.66506,0.43468 3.86651,4.27104c-0.04263,0.85471 -2.11472,10.12836 -2.11472,10.12836c0,0 -0.80591,2.76846 -3.16575,2.34363c-2.42398,-0.43639 -5.86135,-1.52359 -9.51458,-2.74099c-5.45425,-1.81756 -11.38967,-3.92531 -15.15213,-4.5905c-12.34356,-2.1823 -20.28499,-5.45718 -32.64573,-7.55331c-7.16215,-1.21455 -16.72955,-1.80241 -21.43937,-2.03352c-1.78022,-0.08736 -2.57639,-1.51602 -2.18807,-3.38009c0.58448,-2.80569 1.39161,-6.68013 1.76751,-8.48452c0.38949,-1.86966 2.99384,-4.12426 5.55867,-3.58995z" data-paper-data="{&quot;index&quot;:null}" fill="url(#color-11)" stroke-width="0"/><path d="M54.25824,322.98644c-0.43517,2.08893 -2.85676,3.35077 -4.62899,2.98158c-2.59246,-0.54006 -10.02967,-2.08939 -14.90672,-3.10539c-2.61602,-0.54497 -3.99833,-3.32276 -3.58818,-5.29161c0.29578,-1.41982 0.91291,-4.38217 1.35364,-6.49781c0.39246,-1.88395 2.85854,-3.35041 5.66549,-2.76565c4.65386,0.96949 11.33156,2.3606 13.95116,2.90632c2.24863,0.46844 3.92949,3.24789 3.58687,4.89253c-0.30256,1.45235 -0.92434,4.43706 -1.43326,6.88003z" data-paper-data="{&quot;index&quot;:null}" fill="#e9d18c" stroke-width="NaN"/><path d="M94.14287,334.90297c-0.44546,2.13834 -2.92434,3.43003 -4.73849,3.0521c-2.65378,-0.55284 -10.26691,-2.13882 -15.25933,-3.17884c-2.6779,-0.55787 -4.09291,-3.40135 -3.67305,-5.41678c0.30278,-1.45341 0.9345,-4.48582 1.38565,-6.65151c0.40175,-1.92851 2.92614,-3.42966 5.79949,-2.83107c4.76394,0.99242 11.59959,2.41645 14.28116,2.97508c2.30181,0.47952 4.02244,3.3247 3.67171,5.00825c-0.30972,1.4867 -0.9462,4.54201 -1.46716,7.04277z" data-paper-data="{&quot;index&quot;:null}" fill="#e9d18c" stroke-width="NaN"/><path d="M65.02239,330.45677c-0.43517,2.08893 -2.85676,3.35077 -4.62899,2.98158c-2.59246,-0.54006 -10.02967,-2.08939 -14.90673,-3.10539c-2.61602,-0.54497 -3.99833,-3.32276 -3.58818,-5.29161c0.29579,-1.41983 0.91291,-4.38217 1.35363,-6.49781c0.39247,-1.88395 2.85854,-3.35041 5.66548,-2.76566c4.65386,0.96949 11.33156,2.3606 13.95116,2.90632c2.24863,0.46843 3.92949,3.24788 3.58687,4.89253c-0.30256,1.45235 -0.92434,4.43706 -1.43326,6.88003z" data-paper-data="{&quot;index&quot;:null}" fill="#e9d18c" stroke-width="NaN"/><path d="M68.87466,390.009v-156.15616h63.06306v156.15616z" fill="none" stroke-width="0"/><g stroke-width="0"><path d="M288.29731,176.75753c0,-16.4355 0,-89.05105 0,-89.05105h199.6997c0,0 0,70.48838 0,87.19894c0,6.63462 -6.39222,14.90316 -16.82815,14.90316c-41.42075,0 -146.54351,0 -168.52511,0c-7.94007,0 -14.34643,-6.75908 -14.34643,-13.05105z" fill="url(#color-12)"/><path d="M409.64455,82.64719h43v107.10055h-42.99998z" fill="#7c7464"/><path d="M324.64454,82.39719h43v107.10055h-42.99998z" fill="#7c7464"/><path d="M288.30818,112.29825c0,0 -0.09279,-21.05637 -0.09279,-25.92258c0,-1.56759 14.95657,-7.26319 14.95657,-7.26319l182.24949,0.09417c-1.09205,4.10494 1.03328,8.43796 1.03328,12.7895c0,6.76737 0,13.53474 0,20.30211z" fill="url(#color-13)"/><path d="M282.25572,64.71498c0,0 -0.02698,0.32297 -0.04609,-1.1973c-0.14226,-12.98086 7.39156,-11.54604 12.82201,-11.54604c18.31743,0 126.34193,0 190.94752,0c0.08427,0.56076 0.21511,1.10627 0.38845,1.63249c0,2.00437 -0.12131,6.40426 0.05397,11.11086z" fill="#94bc85"/><path d="M282.18834,88.95786c0,-4.21713 0,-14.07115 0,-14.07115c0,0 115.42392,0.21806 155.94205,0.29461c25.87698,0.04889 9.9776,23.16198 -19.02797,23.16198c-48.63396,0 -95.63587,0 -112.38018,0c-6.10971,0 -9.62673,0 -14.17734,0c-10.0914,0 -10.35657,-5.9413 -10.35657,-9.38544z" fill="#80a374"/><path d="M282.15512,84.95788v-22c0,0 2.89607,0 6.7414,0c15.983,0 126.00965,0 190.28373,0c0.01954,0.86766 0.02189,6.7431 0.01825,12.20481c-0.00024,0.3577 -0.0005,0.71363 -0.00079,1.06625c-0.00369,4.53229 -0.01108,8.51984 -0.01554,8.72894z" fill="url(#color-14)"/><g><path d="M291.16411,64.71499c0.17528,-4.7066 0.05397,-9.10649 0.05397,-11.11086c0.17334,-0.52622 0.30418,-1.07173 0.38845,-1.63249c64.60559,0 172.63009,0 190.94752,0c5.43045,0 12.96427,-1.43482 12.82201,11.54604c-0.01911,1.52027 -0.04609,1.1973 -0.04609,1.1973z" data-paper-data="{&quot;index&quot;:null}" fill="#94bc85"/><path d="M495.39735,88.95786c0,3.44414 -0.26517,9.38544 -10.35657,9.38544c-4.55061,0 -8.06763,0 -14.17734,0c-16.74431,0 -63.74622,0 -112.38018,0c-29.00557,0 -44.90496,-23.1131 -19.02798,-23.16198c40.51814,-0.07654 155.94205,-0.2946 155.94205,-0.2946c0,0 0,9.85402 0,14.07115z" data-paper-data="{&quot;index&quot;:null}" fill="#80a374"/><path d="M298.40354,84.95788c-0.00446,-0.2091 -0.01185,-4.19665 -0.01554,-8.72894c-0.00029,-0.35262 -0.00055,-0.70855 -0.00079,-1.06625c-0.00363,-5.46171 -0.00128,-11.33715 0.01826,-12.20481c64.27409,0 174.30073,0 190.28373,0c3.84533,0 6.7414,0 6.7414,0v22z" data-paper-data="{&quot;index&quot;:null}" fill="url(#color-15)"/></g><path d="M288.29733,176.75754c0,-16.4355 0,-89.05105 0,-89.05105h199.6997c0,0 0,70.48838 0,87.19894c0,6.63462 -6.39222,14.90316 -16.82815,14.90316c-41.42075,0 -146.54351,0 -168.52511,0c-7.94007,0 -14.34643,-6.75908 -14.34643,-13.05105z" fill="url(#color-16)"/><path d="M409.64458,82.6472h43v107.10055h-42.99998z" fill="#7c7464"/><path d="M324.64456,82.3972h43v107.10055h-42.99998z" fill="#7c7464"/><path d="M288.30821,112.29827c0,0 -0.09279,-21.05637 -0.09279,-25.92258c0,-1.56759 14.95657,-7.26319 14.95657,-7.26319l182.24949,0.09417c-1.09205,4.10494 1.03328,8.43796 1.03328,12.7895c0,6.76737 0,13.53474 0,20.30211z" fill="url(#color-17)"/><path d="M282.25574,64.71499c0,0 -0.02698,0.32297 -0.04609,-1.1973c-0.14226,-12.98086 7.39156,-11.54604 12.82201,-11.54604c18.31743,0 126.34193,0 190.94752,0c0.08427,0.56076 0.21511,1.10627 0.38845,1.63249c0,2.00437 -0.12131,6.40426 0.05397,11.11086z" fill="#94bc85"/><path d="M282.18836,88.95786c0,-4.21713 0,-14.07115 0,-14.07115c0,0 115.42392,0.21806 155.94205,0.29461c25.87698,0.04889 9.9776,23.16198 -19.02797,23.16198c-48.63396,0 -95.63587,0 -112.38018,0c-6.10971,0 -9.62673,0 -14.17734,0c-10.0914,0 -10.35657,-5.9413 -10.35657,-9.38544z" fill="#80a374"/><path d="M282.15514,84.95789v-22c0,0 2.89607,0 6.7414,0c15.983,0 126.00965,0 190.28373,0c0.01954,0.86766 0.02189,6.7431 0.01825,12.20481c-0.00024,0.3577 -0.0005,0.71363 -0.00079,1.06625c-0.00369,4.53229 -0.01108,8.51984 -0.01554,8.72894z" fill="url(#color-18)"/><g><path d="M291.16411,64.71499c0.17528,-4.7066 0.05397,-9.10649 0.05397,-11.11086c0.17334,-0.52622 0.30418,-1.07173 0.38845,-1.63249c64.60559,0 172.63009,0 190.94752,0c5.43045,0 12.96427,-1.43482 12.82201,11.54604c-0.01911,1.52027 -0.04609,1.1973 -0.04609,1.1973z" data-paper-data="{&quot;index&quot;:null}" fill="#94bc85"/><path d="M495.39735,88.95786c0,3.44414 -0.26517,9.38544 -10.35657,9.38544c-4.55061,0 -8.06763,0 -14.17734,0c-16.74431,0 -63.74622,0 -112.38018,0c-29.00557,0 -44.90496,-23.1131 -19.02798,-23.16198c40.51814,-0.07654 155.94205,-0.2946 155.94205,-0.2946c0,0 0,9.85402 0,14.07115z" data-paper-data="{&quot;index&quot;:null}" fill="#80a374"/><path d="M298.40357,84.95789c-0.00446,-0.2091 -0.01185,-4.19665 -0.01554,-8.72894c-0.00029,-0.35262 -0.00055,-0.70855 -0.00079,-1.06625c-0.00363,-5.46171 -0.00128,-11.33715 0.01826,-12.20481c64.27409,0 174.30073,0 190.28373,0c3.84533,0 6.7414,0 6.7414,0v22z" data-paper-data="{&quot;index&quot;:null}" fill="url(#color-19)"/></g></g></g></g></svg>