<svg version="1.1" xmlns="http://www.w3.org/2000/svg" xmlns:xlink="http://www.w3.org/1999/xlink" width="94.63164" height="96.02534" viewBox="0,0,94.63164,96.02534"><defs><linearGradient x1="240" y1="180.00002" x2="240" y2="180.00002" gradientUnits="userSpaceOnUse" id="color-1"><stop offset="0" stop-color="#74b0ff"/><stop offset="1" stop-color="#6fa0e2"/></linearGradient><linearGradient x1="240" y1="180.00002" x2="240" y2="180.00002" gradientUnits="userSpaceOnUse" id="color-2"><stop offset="0" stop-color="#9bc7ff"/><stop offset="1" stop-color="#69a1ea"/></linearGradient><radialGradient cx="240" cy="180.00001" r="21.98339" gradientUnits="userSpaceOnUse" id="color-3"><stop offset="0" stop-color="#453c23"/><stop offset="1" stop-color="#453c23" stop-opacity="0"/></radialGradient><radialGradient cx="240.37634" cy="180.51635" r="18.7479" gradientUnits="userSpaceOnUse" id="color-4"><stop offset="0" stop-color="#ffeab6"/><stop offset="1" stop-color="#e0b445"/></radialGradient></defs><g transform="translate(-192.68418,-131.98734)"><g data-paper-data="{&quot;isPaintingLayer&quot;:true}" fill-rule="nonzero" stroke-linejoin="miter" stroke-miterlimit="10" stroke-dasharray="" stroke-dashoffset="0" style="mix-blend-mode: normal"><path d="" fill="url(#color-1)" stroke="none" stroke-width="0" stroke-linecap="butt"/><path d="" data-paper-data="{&quot;index&quot;:null}" fill="url(#color-2)" stroke="none" stroke-width="0" stroke-linecap="butt"/><path d="M260.23291,171.95283c4.73967,11.21962 -0.47666,23.91776 -11.65098,28.36211c-11.17432,4.44433 -24.07517,-1.04813 -28.81483,-12.26775c-4.73967,-11.21962 0.47666,-23.91776 11.65098,-28.3621c11.17432,-4.44432 24.07516,1.04812 28.81481,12.26775z" data-paper-data="{&quot;origRot&quot;:0}" fill="url(#color-3)" stroke="none" stroke-width="0" stroke-linecap="butt"/><path d="M257.25505,173.13721c4.04208,9.56833 -0.4065,20.39759 -9.9362,24.18781c-9.5297,3.79022 -20.53182,-0.89386 -24.5739,-10.46221c-4.04208,-9.56833 0.4065,-20.39759 9.9362,-24.1878c9.5297,-3.79021 20.53181,0.89385 24.57389,10.46219z" data-paper-data="{&quot;origRot&quot;:0}" fill="url(#color-4)" stroke="none" stroke-width="0" stroke-linecap="butt"/><path d="M256.30793,175.16234c3.5428,8.38644 -0.35629,17.87805 -8.70887,21.2001c-8.35258,3.32205 -17.9957,-0.78345 -21.5385,-9.1699c-3.5428,-8.38644 0.35629,-17.87805 8.70887,-21.20009c8.35258,-3.32204 17.99569,0.78344 21.53849,9.16989z" data-paper-data="{&quot;origRot&quot;:0}" fill="none" stroke="none" stroke-width="0" stroke-linecap="butt"/><path d="M256.23326,173.88705c3.74493,8.86491 -0.37662,18.89804 -9.20574,22.40963c-8.82912,3.51158 -19.02241,-0.82815 -22.76733,-9.69307c-3.74493,-8.86491 0.37662,-18.89804 9.20574,-22.40962c8.82912,-3.51157 19.0224,0.82814 22.76732,9.69306z" data-paper-data="{&quot;origRot&quot;:0}" fill="none" stroke="#ffe7a9" stroke-width="5" stroke-linecap="butt"/><path d="M255.12368,173.98489c3.5428,8.38644 -0.35629,17.87805 -8.70887,21.2001c-8.35258,3.32205 -17.9957,-0.78345 -21.5385,-9.1699c-3.5428,-8.38644 0.35629,-17.87805 8.70887,-21.20009c8.35258,-3.32204 17.99569,0.78344 21.53849,9.16989z" data-paper-data="{&quot;origRot&quot;:0}" fill="none" stroke="#ffd66f" stroke-width="5" stroke-linecap="butt"/><path d="M230.24673,180.40988c0,-5.52285 4.47715,-10 10,-10c5.52285,0 10,4.47715 10,10c0,5.52285 -4.47715,10 -10,10c-5.52285,0 -10,-4.47715 -10,-10z" fill="#eecd79" stroke="none" stroke-width="0.5" stroke-linecap="butt"/><path d="M240.22835,185.59738l0.03676,-10.375" fill="none" stroke="#fad578" stroke-width="5.5" stroke-linecap="round"/><path d="M240,228.01268c-26.13181,0 -47.31582,-21.49601 -47.31582,-48.01267c0,-26.51667 21.18401,-48.01267 47.31582,-48.01267c26.13181,0 47.31582,21.49601 47.31582,48.01267c0,26.51667 -21.18401,48.01267 -47.31582,48.01267z" fill="none" stroke="none" stroke-width="0" stroke-linecap="butt"/></g></g></svg>