<svg version="1.1" xmlns="http://www.w3.org/2000/svg" xmlns:xlink="http://www.w3.org/1999/xlink" width="239.25426" height="67.58034" viewBox="0,0,239.25426,67.58034"><defs><linearGradient x1="307.00002" y1="223.20983" x2="307.00002" y2="290.79017" gradientUnits="userSpaceOnUse" id="color-1"><stop offset="0" stop-color="#ffca1b"/><stop offset="1" stop-color="#dbb432"/></linearGradient></defs><g transform="translate(-187.37287,-223.20983)"><g data-paper-data="{&quot;isPaintingLayer&quot;:true}" fill-rule="nonzero" stroke="none" stroke-linecap="butt" stroke-linejoin="miter" stroke-miterlimit="10" stroke-dasharray="" stroke-dashoffset="0" style="mix-blend-mode: normal"><path d="M214.21323,290.70601v-44.04227h190.2251v44.04227z" data-paper-data="{&quot;index&quot;:null}" fill="#d2a617" stroke-width="0"/><path d="M212.37288,240.79018c1.30639,0 2.58939,0.10019 3.84172,0.29334c4.58587,-5.422 11.43917,-8.86468 19.09655,-8.86468c6.33077,0 12.11192,2.35314 16.51652,6.23247c4.40461,-3.87933 10.18576,-6.23247 16.51652,-6.23247c1.01135,0 2.00867,0.06005 2.9886,0.17679c4.54925,-4.73635 10.94658,-7.6843 18.03242,-7.6843c5.30223,0 10.21893,1.65064 14.26427,4.46609c4.04534,-2.81545 8.96203,-4.46609 14.26426,-4.46609c7.46086,0 14.15838,3.26824 18.73901,8.45116c4.49088,-4.3046 10.58506,-6.94965 17.29702,-6.94965c3.65703,0 7.13064,0.78521 10.26147,2.19625c4.2226,-3.25994 9.51685,-5.19926 15.26406,-5.19926c11.22307,0 20.71886,7.39535 23.8801,17.57879c13.01037,0.87796 23.29173,11.70959 23.29173,24.94256c0,13.80712 -11.19288,25 -25,25c-11.22307,0 -20.71887,-7.39537 -23.8801,-17.5788c-3.03102,-0.20454 -5.91391,-0.9493 -8.5532,-2.13881c-4.2226,3.25994 -9.51685,5.19926 -15.26406,5.19926c-7.46086,0 -14.15838,-3.26824 -18.73901,-8.45116c-4.49088,4.30461 -10.58506,6.94966 -17.29702,6.94966c-5.30222,0 -10.21892,-1.65064 -14.26426,-4.46609c-4.04534,2.81546 -8.96204,4.46609 -14.26427,4.46609c-1.01135,0 -2.00868,-0.06005 -2.98861,-0.17678c-4.54925,4.73634 -10.94657,7.68429 -18.03242,7.68429c-6.33076,0 -12.11192,-2.35313 -16.51652,-6.23246c-4.40461,3.87932 -10.18576,6.23246 -16.51652,6.23246c-1.30639,0 -2.5894,-0.10021 -3.84172,-0.29335c-4.58587,5.422 -11.43917,8.86468 -19.09655,8.86468c-13.80712,0 -25,-11.19288 -25,-25c0,-13.80712 11.19288,-25 25,-25z" data-paper-data="{&quot;index&quot;:null}" fill="url(#color-1)" stroke-width="0.5"/></g></g></svg>