<svg version="1.1" xmlns="http://www.w3.org/2000/svg" xmlns:xlink="http://www.w3.org/1999/xlink" width="155.01201" height="71.544" viewBox="0,0,155.01201,71.544"><g transform="translate(-162.49399,-144.228)"><g data-paper-data="{&quot;isPaintingLayer&quot;:true}" fill-rule="nonzero" stroke-linejoin="miter" stroke-miterlimit="10" stroke-dasharray="" stroke-dashoffset="0" style="mix-blend-mode: normal"><path d="M162.49399,207.1c0,-15.39767 0,-46.66972 0,-54.92267c0,-3.91529 3.64948,-7.94933 7.94934,-7.94933c15.5113,0 108.45108,0 138.02934,0c5.68841,0 9.03333,4.24438 9.03333,8.31067c0,8.47827 0,40.26824 0,55.284c0,4.84946 -3.20355,7.94933 -8.672,7.94933c-29.17464,0 -122.81565,0 -138.39067,0c-4.29986,0 -7.94934,-3.40853 -7.94934,-8.672z" fill="#ffffff" stroke="none" stroke-width="NaN" stroke-linecap="butt"/><path d="M182.09959,163.95709c0.01816,0.10534 0.02724,0.20523 0.02724,0.29968c0,0.09444 -0.02724,0.19797 -0.08173,0.31057c-0.05449,0.10897 -0.12532,0.18888 -0.2125,0.23974c-0.14893,0.13077 -0.3251,0.19615 -0.52852,0.19615c-0.38504,0 -0.64476,-0.17254 -0.77916,-0.51762l-0.71377,-1.75991h-3.93391l-0.69743,1.74901c-0.1126,0.35234 -0.34508,0.52852 -0.69742,0.52852c-0.34871,0 -0.61025,-0.1453 -0.7846,-0.43589c-0.05812,-0.1126 -0.08718,-0.21613 -0.08718,-0.31057c0,-0.09444 0.02361,-0.2016 0.07083,-0.32147l2.89867,-7.12137c0.25064,-0.62114 0.56666,-0.98439 0.94806,-1.08973c0.07991,-0.0109 0.18707,-0.02906 0.32147,-0.05449c0.30876,0 0.53941,0.07083 0.69198,0.2125c0.20342,0.15256 0.40138,0.46313 0.5939,0.93172zM176.40576,161.29815h2.88778l-1.44934,-3.63969zM182.38012,161.66866c0,-0.95896 0.27425,-1.75809 0.82274,-2.3974c0.60298,-0.70106 1.38759,-1.05159 2.35381,-1.05159c0.81366,0 1.44389,0.17617 1.89067,0.52852c0.19252,0.13803 0.28878,0.31057 0.28878,0.51762c0,0.20342 -0.05993,0.36869 -0.1798,0.49583c-0.11624,0.12714 -0.25427,0.1907 -0.4141,0.1907c-0.15983,0 -0.28151,-0.03269 -0.36506,-0.09807c-0.35234,-0.19978 -0.7283,-0.29604 -1.12787,-0.28878c-0.49038,0 -0.87541,0.18344 -1.15511,0.55031c-0.33055,0.39957 -0.49583,0.91719 -0.49583,1.55286c0,0.59572 0.11987,1.09518 0.35961,1.49838c0.26153,0.42136 0.69198,0.63204 1.29133,0.63204c0.34145,0 0.76644,-0.12169 1.27498,-0.36506c0.2797,-0.16346 0.52489,-0.1235 0.73557,0.11987c0.11624,0.11624 0.17436,0.27425 0.17436,0.47403c0,0.19615 -0.09444,0.37051 -0.28333,0.52307c-0.18889,0.15256 -0.39593,0.26516 -0.62114,0.33781c-0.49764,0.17072 -0.9862,0.25427 -1.46568,0.25064c-0.47585,-0.00363 -0.90992,-0.09444 -1.30222,-0.27243c-0.3923,-0.18162 -0.71922,-0.44497 -0.98076,-0.79005c-0.53397,-0.63931 -0.80095,-1.44207 -0.80095,-2.4083zM192.92724,160.76964c0,-0.41046 -0.10897,-0.72648 -0.32692,-0.94806c-0.18889,-0.17799 -0.41954,-0.26699 -0.69197,-0.26699c-0.2688,0 -0.49764,0.03088 -0.68653,0.09263c-0.18889,0.06175 -0.35416,0.16346 -0.49583,0.30512c-0.30512,0.28696 -0.45769,0.70469 -0.45769,1.25319v3.06213c0,0.25064 -0.08718,0.43589 -0.26154,0.55576c-0.17072,0.11987 -0.35053,0.1798 -0.53941,0.1798c-0.20342,0 -0.37777,-0.0672 -0.52307,-0.2016c-0.14166,-0.1344 -0.2125,-0.31239 -0.2125,-0.53397v-7.82424c0,-0.25064 0.08536,-0.43589 0.25609,-0.55576c0.17072,-0.1235 0.34145,-0.18525 0.51217,-0.18525c0.18889,0 0.36324,0.05994 0.52307,0.17981c0.16346,0.11624 0.24519,0.30331 0.24519,0.56121l-0.17436,2.61534c-0.07991,-0.10897 0.11624,-0.28151 0.58845,-0.51762c0.4141,-0.21431 0.82456,-0.32147 1.23139,-0.32147c0.41046,0 0.75918,0.05086 1.04614,0.15256c0.28696,0.10171 0.55394,0.25063 0.80095,0.44679c0.49401,0.46858 0.74101,1.14058 0.74101,2.016v3.43264c0,0.25064 -0.09081,0.43589 -0.27243,0.55576c-0.17799,0.11987 -0.35416,0.1798 -0.52852,0.1798c-0.19978,0 -0.37959,-0.06538 -0.53941,-0.19615c-0.15619,-0.13077 -0.23429,-0.31057 -0.23429,-0.53941zM197.52948,156.50336c0,0.2579 -0.089,0.46677 -0.26699,0.62659c-0.17436,0.15983 -0.40501,0.23974 -0.69197,0.23974c-0.28696,0 -0.51944,-0.0781 -0.69742,-0.23429c-0.17799,-0.15983 -0.26699,-0.37051 -0.26699,-0.63204c0,-0.23248 0.089,-0.42863 0.26699,-0.58845c0.17799,-0.16346 0.41409,-0.24519 0.70832,-0.24519c0.29423,0 0.52489,0.08173 0.69198,0.24519c0.17072,0.16346 0.25609,0.35961 0.25609,0.58845zM195.80226,159.13505c0,-0.247 0.08173,-0.44134 0.24519,-0.583c0.16709,-0.1453 0.32328,-0.21795 0.46858,-0.21795c0.1453,0 0.26154,0.02179 0.34872,0.06538c0.08718,0.04359 0.16164,0.09444 0.22339,0.15256c0.18889,0.1235 0.28333,0.31784 0.28333,0.583v5.09992c0,0.2579 -0.08536,0.45042 -0.25608,0.57755c-0.17072,0.12714 -0.35234,0.1907 -0.54486,0.1907c-0.19615,0 -0.37414,-0.06538 -0.53397,-0.19615c-0.15619,-0.13077 -0.23429,-0.32147 -0.23429,-0.57211zM204.68166,161.48886c0,0.4032 -0.21976,0.62296 -0.65928,0.65929h-4.10827c0.03269,0.76281 0.39412,1.28225 1.08428,1.55831c0.18525,0.06175 0.40865,0.09263 0.67018,0.09263c0.5376,0 1.09517,-0.20342 1.67273,-0.61025c0.32329,-0.18525 0.6048,-0.16165 0.84454,0.07083c0.14166,0.15256 0.18889,0.30149 0.14166,0.44679c0,0.20342 -0.0672,0.36506 -0.2016,0.48493c-0.63931,0.63567 -1.48021,0.94988 -2.52272,0.94262c-0.95896,0 -1.73266,-0.31239 -2.32112,-0.93717c-0.65383,-0.64294 -0.98076,-1.48566 -0.98076,-2.52817c0,-0.95533 0.26699,-1.74901 0.80095,-2.38105c0.57392,-0.71195 1.37487,-1.06793 2.40285,-1.06793c1.02797,0 1.81802,0.31602 2.37015,0.94806c0.5158,0.56303 0.7846,1.33673 0.8064,2.32112zM203.14514,160.91675c-0.01816,-0.30512 -0.17435,-0.61933 -0.46858,-0.94262c-0.26517,-0.2797 -0.65565,-0.41955 -1.17145,-0.41955c-0.42862,0 -0.7955,0.15983 -1.10062,0.47948c-0.28333,0.33055 -0.43407,0.62478 -0.45224,0.88268zM209.24857,164.08785c-0.12714,0.29423 -0.27425,0.52125 -0.44134,0.68108c-0.16346,0.15619 -0.39412,0.23429 -0.69197,0.23429c-0.30149,0 -0.5376,-0.07628 -0.70832,-0.22884c-0.16709,-0.15619 -0.29968,-0.38867 -0.39775,-0.69742l-1.9942,-4.68583c-0.17436,-0.31965 -0.09807,-0.59935 0.22884,-0.83909c0.14166,-0.10897 0.29786,-0.18162 0.46858,-0.21795c0.39957,0 0.6502,0.18344 0.75191,0.55031l1.64549,3.94481l1.591,-3.95571c0.11624,-0.32329 0.33963,-0.50309 0.67018,-0.53941c0.33418,0 0.583,0.13622 0.74646,0.40865c0.08355,0.12714 0.11442,0.24156 0.09263,0.34326c-0.01816,0.10171 -0.03996,0.19434 -0.06538,0.27788zM217.87665,161.48886c0,0.4032 -0.21976,0.62296 -0.65928,0.65929h-4.10827c0.03269,0.76281 0.39412,1.28225 1.08428,1.55831c0.18525,0.06175 0.40865,0.09263 0.67018,0.09263c0.5376,0 1.09518,-0.20342 1.67273,-0.61025c0.32329,-0.18525 0.6048,-0.16165 0.84454,0.07083c0.14166,0.15256 0.18889,0.30149 0.14166,0.44679c0,0.20342 -0.0672,0.36506 -0.2016,0.48493c-0.63931,0.63567 -1.48021,0.94988 -2.52272,0.94262c-0.95896,0 -1.73266,-0.31239 -2.32111,-0.93717c-0.65383,-0.64294 -0.98076,-1.48566 -0.98076,-2.52817c0,-0.95533 0.26698,-1.74901 0.80095,-2.38105c0.57392,-0.71195 1.37487,-1.06793 2.40285,-1.06793c1.02797,0 1.81803,0.31602 2.37016,0.94806c0.5158,0.56303 0.7846,1.33673 0.8064,2.32112zM216.34014,160.91675c-0.01816,-0.30512 -0.17435,-0.61933 -0.46858,-0.94262c-0.26517,-0.2797 -0.65565,-0.41955 -1.17146,-0.41955c-0.42862,0 -0.7955,0.15983 -1.10062,0.47948c-0.28333,0.33055 -0.43407,0.62478 -0.45224,0.88268zM224.13264,159.39113c0.38141,-0.78097 1.10789,-1.17145 2.17945,-1.17145c1.12242,0 1.87433,0.47948 2.25573,1.43844c0.13077,0.34145 0.19615,0.73375 0.19615,1.17691v3.43264c0,0.247 -0.08354,0.43226 -0.25063,0.55576c-0.16709,0.11987 -0.33963,0.1798 -0.51762,0.1798c-0.19615,0 -0.37777,-0.06357 -0.54486,-0.1907c-0.16346,-0.13077 -0.24519,-0.31239 -0.24519,-0.54486v-3.49802c0,-0.41046 -0.10898,-0.72648 -0.32692,-0.94806c-0.19615,-0.17799 -0.46132,-0.26699 -0.7955,-0.26699c-0.6829,0 -1.14603,0.27425 -1.3894,0.82275c-0.09807,0.21068 -0.14711,0.4704 -0.14711,0.77915v3.11117c0,0.247 -0.08355,0.43226 -0.25064,0.55576c-0.16709,0.11987 -0.33963,0.1798 -0.51762,0.1798c-0.19978,0 -0.38141,-0.06538 -0.54486,-0.19615c-0.15983,-0.13077 -0.23974,-0.31057 -0.23974,-0.53941v-3.49802c0,-0.4141 -0.10534,-0.73012 -0.31602,-0.94806c-0.19615,-0.17799 -0.43407,-0.26699 -0.71377,-0.26699c-0.27606,0 -0.50309,0.03088 -0.68108,0.09263c-0.17799,0.06175 -0.33782,0.16164 -0.47948,0.29968c-0.28696,0.29059 -0.43952,0.7065 -0.45769,1.24773v3.07303c0,0.25064 -0.08718,0.43589 -0.26153,0.55576c-0.17072,0.11987 -0.3469,0.1798 -0.52852,0.1798c-0.17799,0 -0.35234,-0.06357 -0.52307,-0.1907c-0.17072,-0.12714 -0.25608,-0.30876 -0.25608,-0.54486v-5.18165c0,-0.23248 0.08355,-0.41591 0.25064,-0.55031c0.17072,-0.1344 0.33236,-0.2016 0.48493,-0.2016c0.15256,0 0.2688,0.01998 0.34871,0.05993c0.07991,0.03996 0.15075,0.07992 0.2125,0.11987c0.18162,0.15256 0.27243,0.33782 0.27243,0.55576h-0.17436c-0.07991,-0.11624 0.10897,-0.29241 0.56666,-0.52852c0.3923,-0.21431 0.84999,-0.32147 1.37306,-0.32147c0.8173,0 1.44934,0.26698 1.89612,0.80095c0.1453,0.19615 0.18707,0.31965 0.12532,0.37051zM236.05785,161.48886c0,0.4032 -0.21976,0.62296 -0.65928,0.65929h-4.10827c0.03269,0.76281 0.39412,1.28225 1.08428,1.55831c0.18525,0.06175 0.40865,0.09263 0.67018,0.09263c0.5376,0 1.09518,-0.20342 1.67273,-0.61025c0.32329,-0.18525 0.6048,-0.16165 0.84454,0.07083c0.14166,0.15256 0.18889,0.30149 0.14166,0.44679c0,0.20342 -0.0672,0.36506 -0.2016,0.48493c-0.63931,0.63567 -1.48021,0.94988 -2.52272,0.94262c-0.95896,0 -1.73266,-0.31239 -2.32112,-0.93717c-0.65383,-0.64294 -0.98076,-1.48566 -0.98076,-2.52817c0,-0.95533 0.26698,-1.74901 0.80095,-2.38105c0.57392,-0.71195 1.37487,-1.06793 2.40285,-1.06793c1.02797,0 1.81803,0.31602 2.37016,0.94806c0.5158,0.56303 0.7846,1.33673 0.8064,2.32112zM234.52133,160.91675c-0.01816,-0.30512 -0.17435,-0.61933 -0.46858,-0.94262c-0.26517,-0.2797 -0.65565,-0.41955 -1.17146,-0.41955c-0.42862,0 -0.7955,0.15983 -1.10062,0.47948c-0.28333,0.33055 -0.43408,0.62478 -0.45224,0.88268zM236.99052,159.08601c0,-0.22884 0.08355,-0.41047 0.25064,-0.54486c0.16709,-0.13803 0.33963,-0.20705 0.51762,-0.20705c0.35961,0 0.58663,0.12714 0.68108,0.38141c0.09444,0.25427 0.02724,0.56484 -0.2016,0.93172c-0.02543,-0.45405 0.20705,-0.81548 0.69742,-1.08428c0.41773,-0.22884 0.83001,-0.34326 1.23684,-0.34326c0.41046,0 0.76099,0.05267 1.05159,0.15801c0.29059,0.10171 0.55758,0.26154 0.80095,0.47948c0.49038,0.46495 0.73557,1.13513 0.73557,2.01055v3.39995c0,0.25064 -0.09081,0.43589 -0.27243,0.55576c-0.17799,0.11987 -0.35416,0.1798 -0.52852,0.1798c-0.19978,0 -0.37959,-0.06538 -0.53941,-0.19615c-0.15619,-0.13077 -0.23429,-0.31057 -0.23429,-0.53941v-3.46533c0,-0.42136 -0.10898,-0.73738 -0.32692,-0.94806c-0.20342,-0.19978 -0.45769,-0.29968 -0.76281,-0.29968c-0.44316,0 -0.81911,0.12532 -1.12787,0.37596c-0.29423,0.26153 -0.44134,0.68108 -0.44134,1.25864v3.07848c0,0.25064 -0.08718,0.43589 -0.26153,0.55576c-0.17072,0.11987 -0.35053,0.1798 -0.53941,0.1798c-0.20342,0 -0.37777,-0.0672 -0.52307,-0.2016c-0.14166,-0.1344 -0.2125,-0.31239 -0.2125,-0.53397zM247.84234,164.36029c0,0.5158 -0.47585,0.77371 -1.42754,0.77371c-0.6611,0 -1.13876,-0.19434 -1.43299,-0.583c-0.29059,-0.37777 -0.4486,-0.97894 -0.47403,-1.8035v-3.08393h-0.41955c-0.21068,0 -0.3814,-0.06901 -0.51217,-0.20705c-0.12714,-0.13803 -0.1907,-0.28878 -0.1907,-0.45224c0,-0.14893 0.05449,-0.29786 0.16346,-0.44679c0.1126,-0.14893 0.29241,-0.2234 0.53941,-0.2234h0.49583l0.04904,-1.47113c0.03632,-0.21794 0.13077,-0.38322 0.28333,-0.49583c0.15619,-0.1126 0.32147,-0.16891 0.49583,-0.16891c0.17436,0 0.32874,0.05994 0.46313,0.17981c0.1344,0.11624 0.2016,0.28696 0.2016,0.51217v1.44389h0.81729c0.22158,0 0.3923,0.07447 0.51217,0.2234c0.11987,0.1453 0.1798,0.29422 0.1798,0.44679c0,0.18889 -0.06357,0.3469 -0.1907,0.47403c-0.1235,0.1235 -0.29059,0.18525 -0.50127,0.18525h-0.81729v2.54996c0,0.75918 0.01816,1.19688 0.05449,1.31312c0.03996,0.1126 0.09081,0.18707 0.15256,0.22339c0.06175,0.03269 0.15074,0.04904 0.26698,0.04904l0.62114,-0.04904c0.21794,0 0.38322,0.06901 0.49583,0.20705c0.11624,0.13803 0.17436,0.27243 0.17436,0.4032zM257.35047,164.26766c0,0.25064 -0.09081,0.43589 -0.27243,0.55576c-0.17799,0.11987 -0.32873,0.1798 -0.45224,0.1798c-0.11987,0 -0.23248,-0.01271 -0.33782,-0.03814c-0.10534,-0.02906 -0.1907,-0.08355 -0.25608,-0.16346c-0.17072,-0.11624 -0.25609,-0.29423 -0.25609,-0.53397h0.16891c-0.03996,0.36324 -0.44679,0.62296 -1.22049,0.77916c-0.23248,0.05812 -0.48675,0.08718 -0.76281,0.08718c-0.27243,0 -0.56121,-0.04904 -0.86634,-0.14711c-0.30512,-0.10171 -0.56847,-0.26335 -0.79005,-0.48493c-0.48311,-0.45769 -0.72467,-1.13513 -0.72467,-2.03234v-3.36726c0,-0.23611 0.0781,-0.42318 0.23429,-0.56121c0.15619,-0.13803 0.33418,-0.20705 0.53397,-0.20705c0.19978,0 0.37778,0.06901 0.53397,0.20705c0.15619,0.13803 0.23429,0.3251 0.23429,0.56121v3.44899c0,0.49401 0.08718,0.82456 0.26154,0.99165c0.18162,0.17072 0.46858,0.25609 0.86088,0.25609c0.66837,0 1.12787,-0.26698 1.37851,-0.80095c0.09807,-0.18889 0.15074,-0.40502 0.15801,-0.64839v-3.24739c0,-0.24337 0.08355,-0.43226 0.25064,-0.56666c0.17072,-0.1344 0.35598,-0.2016 0.55576,-0.2016c0.19978,0 0.37777,0.06901 0.53397,0.20705c0.15619,0.13803 0.23429,0.3251 0.23429,0.56121zM258.65084,159.08601c0,-0.22884 0.08355,-0.41047 0.25064,-0.54486c0.16709,-0.13803 0.33963,-0.20705 0.51762,-0.20705c0.35961,0 0.58663,0.12714 0.68108,0.38141c0.09444,0.25427 0.02724,0.56484 -0.2016,0.93172c-0.02543,-0.45405 0.20704,-0.81548 0.6974,-1.08428c0.41773,-0.22884 0.83001,-0.34326 1.23684,-0.34326c0.41046,0 0.76099,0.05267 1.05159,0.15801c0.29059,0.10171 0.55758,0.26154 0.80095,0.47948c0.49038,0.46495 0.73557,1.13513 0.73557,2.01055v3.39995c0,0.25064 -0.09081,0.43589 -0.27243,0.55576c-0.17799,0.11987 -0.35416,0.1798 -0.52852,0.1798c-0.19978,0 -0.37959,-0.06538 -0.53941,-0.19615c-0.15619,-0.13077 -0.23429,-0.31057 -0.23429,-0.53941v-3.46533c0,-0.42136 -0.10898,-0.73738 -0.32692,-0.94806c-0.20342,-0.19978 -0.45769,-0.29968 -0.76281,-0.29968c-0.44316,0 -0.81911,0.12532 -1.12787,0.37596c-0.29421,0.26153 -0.44132,0.68108 -0.44132,1.25864v3.07848c0,0.25064 -0.08718,0.43589 -0.26154,0.55576c-0.17072,0.11987 -0.35053,0.1798 -0.53941,0.1798c-0.20342,0 -0.37777,-0.0672 -0.52307,-0.2016c-0.14166,-0.1344 -0.2125,-0.31239 -0.2125,-0.53397zM265.72129,156.47611c0,-0.27243 0.08536,-0.46858 0.25609,-0.58845c0.17072,-0.1235 0.31784,-0.18525 0.44134,-0.18525c0.12714,0 0.23611,0.00908 0.32692,0.02724c0.09444,0.01816 0.18162,0.0672 0.26153,0.14711c0.18889,0.11987 0.28333,0.31965 0.28333,0.59935v7.75886c0,0.2579 -0.08536,0.45042 -0.25609,0.57755c-0.17072,0.12714 -0.35234,0.1907 -0.54486,0.1907c-0.19615,0 -0.37414,-0.06538 -0.53397,-0.19615c-0.15619,-0.13077 -0.23429,-0.32147 -0.23429,-0.57211zM268.17131,161.68501c0,-0.4141 0.0672,-0.83001 0.2016,-1.24774c0.1344,-0.41773 0.33964,-0.7955 0.6157,-1.13331c0.59572,-0.72285 1.42936,-1.08428 2.50092,-1.08428c1.0752,0 1.90884,0.36324 2.50092,1.08973c0.54486,0.66837 0.8173,1.45479 0.8173,2.35926c0,0.91174 -0.27243,1.69816 -0.8173,2.35926c-0.59208,0.73738 -1.42573,1.10607 -2.50092,1.10607c-1.07156,0 -1.90521,-0.36688 -2.50092,-1.10062c-0.54486,-0.65383 -0.8173,-1.43662 -0.8173,-2.34836zM269.78955,161.68501c0,0.23248 0.03088,0.47766 0.09263,0.73557c0.06538,0.2579 0.17799,0.49583 0.33781,0.71377c0.30876,0.44316 0.73193,0.66473 1.26953,0.66473c0.57029,0 0.99165,-0.21613 1.26408,-0.64839c0.2797,-0.44316 0.41955,-0.93717 0.41955,-1.48203c0,-0.55939 -0.13803,-1.04069 -0.4141,-1.44389c-0.28696,-0.44679 -0.71014,-0.67018 -1.26953,-0.67018c-0.5376,0 -0.96078,0.22703 -1.26953,0.68108c-0.28696,0.38867 -0.43044,0.87178 -0.43044,1.44934zM275.27415,161.66866c0,-0.95896 0.27425,-1.75809 0.82275,-2.3974c0.60298,-0.70106 1.38758,-1.05159 2.35381,-1.05159c0.81366,0 1.44389,0.17617 1.89068,0.52852c0.19252,0.13803 0.28878,0.31057 0.28878,0.51762c0,0.20342 -0.05994,0.36869 -0.17981,0.49583c-0.11624,0.12714 -0.25427,0.1907 -0.4141,0.1907c-0.15983,0 -0.28151,-0.03269 -0.36506,-0.09807c-0.35234,-0.19978 -0.7283,-0.29604 -1.12787,-0.28878c-0.49038,0 -0.87541,0.18344 -1.15511,0.55031c-0.33055,0.39957 -0.49583,0.91719 -0.49583,1.55286c0,0.59572 0.11987,1.09518 0.35961,1.49838c0.26153,0.42136 0.69197,0.63204 1.29132,0.63204c0.34145,0 0.76644,-0.12169 1.27498,-0.36506c0.2797,-0.16346 0.52488,-0.1235 0.73556,0.11987c0.11624,0.11624 0.17436,0.27425 0.17436,0.47403c0,0.19615 -0.09444,0.37051 -0.28333,0.52307c-0.18889,0.15256 -0.39593,0.26516 -0.62114,0.33781c-0.49764,0.17072 -0.9862,0.25427 -1.46568,0.25064c-0.47585,-0.00363 -0.90992,-0.09444 -1.30222,-0.27243c-0.3923,-0.18162 -0.71922,-0.44497 -0.98075,-0.79005c-0.53397,-0.63931 -0.80095,-1.44207 -0.80095,-2.4083zM283.22773,162.15904v2.07593c0,0.25427 -0.08355,0.44679 -0.25064,0.57755c-0.16346,0.12714 -0.34145,0.1907 -0.53397,0.1907c-0.18889,0 -0.36324,-0.06538 -0.52307,-0.19615c-0.15619,-0.13077 -0.23429,-0.32147 -0.23429,-0.57211v-7.75886c0,-0.2688 0.07992,-0.46495 0.23974,-0.58845c0.15983,-0.1235 0.30875,-0.18525 0.44679,-0.18525c0.13803,0 0.25609,0.00908 0.35416,0.02724c0.10171,0.01816 0.19434,0.07265 0.27788,0.16346c0.14893,0.1235 0.22339,0.31784 0.22339,0.583v4.01019l2.28298,-1.91247c0.14166,-0.15983 0.31057,-0.23974 0.50672,-0.23974c0.19252,0 0.36324,0.07083 0.51217,0.2125c0.14893,0.13803 0.22339,0.28696 0.22339,0.44679c0,0.23611 -0.0781,0.41228 -0.23429,0.52852l-2.13042,1.7817l2.47913,2.50637c0.11624,0.11624 0.17436,0.25245 0.17436,0.40865c0,0.15619 -0.02542,0.27788 -0.07628,0.36506c-0.04722,0.08718 -0.11079,0.16346 -0.1907,0.22884c-0.15983,0.12714 -0.33055,0.1907 -0.51217,0.1907c-0.18162,0 -0.35416,-0.08173 -0.51762,-0.24519zM293.67972,161.48886c0,0.4032 -0.21976,0.62296 -0.65928,0.65929h-4.10827c0.03269,0.76281 0.39412,1.28225 1.08428,1.55831c0.18525,0.06175 0.40865,0.09263 0.67018,0.09263c0.5376,0 1.09518,-0.20342 1.67273,-0.61025c0.32329,-0.18525 0.6048,-0.16165 0.84454,0.07083c0.14166,0.15256 0.18889,0.30149 0.14166,0.44679c0,0.20342 -0.0672,0.36506 -0.2016,0.48493c-0.63931,0.63567 -1.48021,0.94988 -2.52272,0.94262c-0.95896,0 -1.73266,-0.31239 -2.32112,-0.93717c-0.65383,-0.64294 -0.98076,-1.48566 -0.98076,-2.52817c0,-0.95533 0.26698,-1.74901 0.80095,-2.38105c0.57392,-0.71195 1.37487,-1.06793 2.40285,-1.06793c1.02797,0 1.81803,0.31602 2.37016,0.94806c0.5158,0.56303 0.7846,1.33673 0.8064,2.32112zM292.14321,160.91675c-0.01816,-0.30512 -0.17435,-0.61933 -0.46858,-0.94262c-0.26517,-0.2797 -0.65565,-0.41955 -1.17146,-0.41955c-0.42862,0 -0.7955,0.15983 -1.10062,0.47948c-0.28333,0.33055 -0.43407,0.62478 -0.45224,0.88268zM299.04758,164.26766c-0.31239,0.57755 -0.97894,0.86634 -1.99965,0.86634c-0.93353,0 -1.66546,-0.37414 -2.1958,-1.12242c-0.43952,-0.6502 -0.65929,-1.43118 -0.65929,-2.34292c0,-1.54741 0.5267,-2.59537 1.5801,-3.14386c0.35961,-0.20342 0.71922,-0.30512 1.07883,-0.30512c0.36324,0 0.66292,0.02179 0.89903,0.06538c0.23611,0.03996 0.46313,0.11987 0.68108,0.23974c0.45042,0.22521 0.65747,0.38141 0.62114,0.46858l-0.11442,-2.54996c0,-0.26153 0.08718,-0.45042 0.26154,-0.56666c0.17436,-0.11624 0.35416,-0.17436 0.53941,-0.17436c0.19615,0 0.37232,0.05994 0.52852,0.17981c0.15983,0.11624 0.23974,0.30331 0.23974,0.56121v7.82424c0,0.247 -0.08536,0.43226 -0.25609,0.55576c-0.17072,0.11987 -0.32147,0.1798 -0.45224,0.1798c-0.12714,0 -0.23974,-0.01271 -0.33782,-0.03814c-0.09807,-0.02906 -0.18525,-0.08173 -0.26153,-0.15801c-0.17436,-0.11987 -0.26154,-0.29968 -0.26154,-0.53941zM297.23863,163.79908c1.11152,0 1.66728,-0.74283 1.66728,-2.22849c0,-0.95896 -0.27243,-1.57828 -0.8173,-1.85798c-0.20705,-0.10534 -0.45768,-0.15801 -0.75191,-0.15801c-0.29059,0 -0.52852,0.05449 -0.71377,0.16346c-0.18162,0.10534 -0.33418,0.25245 -0.45769,0.44134c-0.23611,0.37051 -0.35416,0.84635 -0.35416,1.42754c0,0.87178 0.19797,1.50564 0.5939,1.90158c0.19978,0.20705 0.47766,0.31057 0.83364,0.31057zM301.85691,159.18408c0,-0.39593 0.18707,-0.67381 0.56121,-0.83364c0.10897,-0.03269 0.23974,-0.04904 0.3923,-0.04904c0.15256,0 0.28333,0.02361 0.3923,0.07083c0.10897,0.04722 0.20705,0.1126 0.29423,0.19615c0.18525,0.17436 0.2688,0.38322 0.25064,0.62659c0,0.37777 -0.18162,0.63931 -0.54486,0.7846c-0.10534,0.04359 -0.23066,0.07083 -0.37596,0.08173c-0.1453,0.00727 -0.27243,-0.0109 -0.3814,-0.05449c-0.10897,-0.04722 -0.21431,-0.10352 -0.31602,-0.16891c-0.18162,-0.19978 -0.27243,-0.41773 -0.27243,-0.65384zM301.91684,164.45836c-0.03996,-0.11624 -0.05993,-0.22884 -0.05993,-0.33781c0,-0.10897 0.01998,-0.21795 0.05993,-0.32692c0.04359,-0.10897 0.11079,-0.20523 0.2016,-0.28878c0.09444,-0.08355 0.19797,-0.14893 0.31057,-0.19615c0.11624,-0.04722 0.247,-0.07083 0.3923,-0.07083c0.1453,0 0.27243,0.02361 0.38141,0.07083c0.10897,0.04722 0.20705,0.11442 0.29423,0.2016c0.09081,0.08718 0.15438,0.18525 0.1907,0.29423c0.03996,0.10534 0.05993,0.21249 0.05993,0.32147c0,0.10534 -0.01998,0.21432 -0.05993,0.32692c-0.03632,0.1126 -0.09989,0.20886 -0.1907,0.28878c-0.09081,0.07991 -0.1907,0.14348 -0.29968,0.1907c-0.10534,0.04722 -0.23066,0.07083 -0.37596,0.07083c-0.1453,0 -0.27425,-0.02179 -0.38685,-0.06538c-0.1126,-0.04722 -0.21613,-0.10897 -0.31057,-0.18525c-0.09444,-0.07991 -0.16346,-0.17799 -0.20705,-0.29423z" fill="#000000" stroke="none" stroke-width="1" stroke-linecap="square"/><path d="M219.28424,192.80968c0.46783,0.59821 1.08906,1.06222 1.86367,1.392c0.77461,0.32212 1.77931,0.48318 3.01408,0.48318c1.23477,0 2.33535,-0.14956 3.30169,-0.44867v-4.56714h-3.0486c-0.4525,0 -0.81297,-0.1534 -1.0814,-0.46016c-0.26843,-0.30678 -0.40265,-0.63655 -0.40265,-0.98936c0,-0.40647 0.12271,-0.75161 0.36813,-1.03537c0.24541,-0.28377 0.6174,-0.42565 1.11591,-0.42565h4.9813c1.05838,0 1.58757,0.51769 1.58757,1.55306v6.77592c0,0.97401 -0.4525,1.53388 -1.35749,1.6796c-2.10141,0.64423 -3.94209,0.96635 -5.52198,0.96635c-1.57991,0 -2.9719,-0.20707 -4.176,-0.62122c-1.2041,-0.41416 -2.2203,-1.03537 -3.0486,-1.86367c-1.79465,-1.78697 -2.69197,-4.32173 -2.69197,-7.60423c0,-2.75332 0.8168,-5.06182 2.45038,-6.92549c1.69494,-2.04007 4.12998,-3.07161 7.30511,-3.09461c2.01706,0 3.84621,0.33362 5.48747,1.00086c0.53686,0.32212 0.80529,0.71325 0.80529,1.17343c0,0.46016 -0.12271,0.86281 -0.36813,1.20792c-0.24541,0.33745 -0.59438,0.50618 -1.04689,0.50618h-0.13804c-0.0997,0 -0.26076,-0.03068 -0.48318,-0.09204c-0.22241,-0.06136 -0.52152,-0.13038 -0.89732,-0.20708c-0.3758,-0.07669 -0.75928,-0.14954 -1.15042,-0.21859c-0.87431,-0.13038 -1.56456,-0.19557 -2.07073,-0.19557c-2.10909,0 -3.69667,0.68642 -4.76271,2.05924c-0.49084,0.64423 -0.84748,1.40352 -1.06988,2.27782c-0.22241,0.86664 -0.33362,1.77164 -0.33362,2.71497c0,0.93567 0.11121,1.8445 0.33362,2.72648c0.22241,0.88199 0.56753,1.62591 1.03537,2.23179zM237.647,179.51092c0,0.54454 -0.18791,0.98552 -0.56371,1.32297c-0.36813,0.33745 -0.85514,0.50618 -1.46102,0.50618c-0.60588,0 -1.09673,-0.16488 -1.47254,-0.49467c-0.3758,-0.33745 -0.5637,-0.78228 -0.5637,-1.33448c0,-0.49084 0.1879,-0.90498 0.5637,-1.24243c0.3758,-0.34513 0.87431,-0.51769 1.49553,-0.51769c0.62122,0 1.10823,0.17256 1.46102,0.51769c0.36047,0.34513 0.54069,0.75928 0.54069,1.24243zM234.00019,185.06741c0,-0.52152 0.17256,-0.93183 0.51769,-1.23094c0.35279,-0.30678 0.68258,-0.46016 0.98936,-0.46016c0.30678,0 0.5522,0.04601 0.73626,0.13804c0.18407,0.09204 0.34129,0.19941 0.47166,0.32212c0.39881,0.26076 0.59822,0.67107 0.59822,1.23094v10.76786c0,0.54454 -0.18023,0.95101 -0.54069,1.21944c-0.36047,0.26843 -0.74392,0.40265 -1.15042,0.40265c-0.41416,0 -0.78995,-0.13804 -1.1274,-0.41416c-0.32979,-0.2761 -0.49467,-0.67874 -0.49467,-1.20794zM245.84548,185.97623c-2.12442,0 -3.18664,1.4802 -3.18664,4.4406c0,1.42651 0.34513,2.53473 1.03537,3.32469c0.56753,0.65957 1.29996,0.99702 2.19728,1.01235c0.92034,0 1.70261,-0.35279 2.34685,-1.05838c0.70559,-0.76694 1.05838,-1.83682 1.05838,-3.20965c0,-2.06307 -0.62122,-3.44357 -1.86367,-4.14149c-0.40647,-0.24541 -0.93567,-0.36813 -1.58757,-0.36813zM245.3048,183.13471c2.45422,0 3.89222,0.5752 4.31405,1.72562l-0.2531,-0.05753c0.07669,-0.44482 0.26076,-0.79379 0.5522,-1.04689c0.29144,-0.2531 0.63655,-0.37964 1.03537,-0.37964c0.40647,0 0.77077,0.14572 1.09289,0.43715c0.32979,0.29144 0.49467,0.67492 0.49467,1.15042v12.15986c0,1.9557 -0.64039,3.42441 -1.92119,4.40608c-1.11973,0.89732 -2.71115,1.34599 -4.77421,1.34599c-1.84066,0 -3.24799,-0.33363 -4.22201,-1.00086c-0.84364,-0.61356 -1.26545,-1.18492 -1.26545,-1.71412c0,-0.39114 0.13038,-0.72093 0.39114,-0.98936c0.26843,-0.26076 0.57137,-0.39114 0.90882,-0.39114c0.33745,0 0.61356,0.07286 0.82829,0.21859c0.22241,0.1534 0.44484,0.27993 0.66724,0.37964c0.23008,0.0997 0.464,0.19173 0.70175,0.2761c0.58286,0.20707 1.18876,0.31062 1.81765,0.31062c0.62889,0 1.16575,-0.04984 1.61058,-0.14956c0.44482,-0.0997 0.82063,-0.26459 1.1274,-0.49467c0.59055,-0.38348 0.88582,-1.07371 0.88582,-2.07073l0.09204,-0.8398c-0.03068,0.19173 -0.8513,0.49085 -2.46188,0.89732c-0.50618,0.0997 -0.99318,0.14956 -1.46102,0.14956c-2.07073,0 -3.66214,-0.72093 -4.77421,-2.16277c-1.01235,-1.25779 -1.51855,-2.86069 -1.51855,-4.80872c0,-2.0554 0.50235,-3.74268 1.50705,-5.06182c1.08906,-1.52622 2.63061,-2.28932 4.62465,-2.28932zM261.75111,188.41512c0.48318,0 0.75544,0 0.81679,0v-0.43715c0,-1.34981 -0.77844,-2.02473 -2.33533,-2.02473c-0.80529,0 -1.37666,0.0652 -1.71412,0.19557c-0.69024,0.2531 -1.20792,0.48701 -1.55306,0.70175c-0.34513,0.20707 -0.67874,0.31062 -1.00086,0.31062c-0.31444,0 -0.61356,-0.12271 -0.89732,-0.36813c-0.28377,-0.24541 -0.42565,-0.57137 -0.42565,-0.97784c0,-0.36813 0.16872,-0.69792 0.50618,-0.98936c1.17343,-1.1274 2.87987,-1.69111 5.11934,-1.69111c2.66128,0 4.38307,0.928 5.16535,2.78399c0.2531,0.64423 0.37964,1.37666 0.37964,2.19728l-0.06902,7.82281c0,0.49084 -0.16872,0.86664 -0.50618,1.1274c-0.33745,0.26076 -0.69408,0.39114 -1.06988,0.39114c-0.3758,0 -0.73626,-0.11121 -1.0814,-0.33362c-0.34513,-0.23008 -0.51769,-0.61738 -0.51769,-1.16192h0.34513c-0.08435,0.72093 -0.92034,1.25012 -2.50791,1.58757c-0.46783,0.12271 -1.00086,0.18407 -1.59906,0.18407c-0.59821,0 -1.20026,-0.09204 -1.80615,-0.2761c-0.59821,-0.17639 -1.13124,-0.46016 -1.59908,-0.8513c-0.98169,-0.82063 -1.47254,-1.92502 -1.47254,-3.31319c0,-3.25183 2.6076,-4.87775 7.82281,-4.87775zM262.70596,191.09558c-0.02301,0.09204 -0.2761,0.13804 -0.75928,0.13804c-0.48318,0 -0.96251,0.00767 -1.43803,0.02301c-0.4755,0.00767 -0.9165,0.05753 -1.32297,0.14956c-0.39881,0.08435 -0.75544,0.21474 -1.06988,0.39114c-0.56753,0.2991 -0.86664,0.78995 -0.89732,1.47252c0,0.49851 0.2109,0.89349 0.63273,1.18493c0.35279,0.29144 0.87815,0.44482 1.57607,0.46016c0.85898,0 1.59906,-0.27226 2.2203,-0.81679c0.5522,-0.51384 0.85898,-1.3153 0.92034,-2.40437z" fill="#000000" stroke="#383838" stroke-width="0" stroke-linecap="square"/></g></g></svg>