<svg version="1.1" xmlns="http://www.w3.org/2000/svg" xmlns:xlink="http://www.w3.org/1999/xlink" width="391.89189" height="372.37238" viewBox="0,0,391.89189,372.37238"><g transform="translate(-0.51051,80.66067)"><g data-paper-data="{&quot;isPaintingLayer&quot;:true}" fill-rule="nonzero" stroke="none" stroke-linecap="butt" stroke-linejoin="miter" stroke-miterlimit="10" stroke-dasharray="" stroke-dashoffset="0" style="mix-blend-mode: normal"><path d="M392.4024,196.36636c0,52.65778 -62.5188,95.34535 -139.63964,95.34535c-77.12084,0 -139.63964,-42.68757 -139.63964,-95.34535c0,-52.65778 62.5188,-95.34535 139.63964,-95.34535c77.12084,0 139.63964,42.68757 139.63964,95.34535z" fill="none" stroke-width="0"/><path d="M0.51051,-80.66067v0v0z" fill="none" stroke-width="0"/><g><g stroke-width="0"><path d="M237.59493,156.10388l-12.74682,5.25605l1.05056,-15.44656z" fill="#924646"/><path d="M236.49933,156.55564l-11.65123,4.8043l0.96026,-14.11893z" fill="#a44f4f"/><path d="M236.49933,156.55564l-10.80286,4.45447l0.89035,-13.09088z" fill="#8a4242"/></g><g data-paper-data="{&quot;index&quot;:null}" stroke-width="0"><path d="M274.20363,166.1683l-10.2805,11.57632l-5.18594,-12.7755z" fill="#924646"/><path d="M273.32001,167.16329l-9.39689,10.58134l-4.74021,-11.67744z" fill="#a44f4f"/><path d="M272.29065,167.08347l-8.71267,9.81087l-4.39506,-10.82715z" fill="#8a4242"/></g><path d="M249.37915,202.56449c-12.51079,5.06648 -26.75998,-0.96833 -31.82646,-13.47912c-5.06648,-12.51079 0.96833,-26.75998 13.47912,-31.82646c12.51079,-5.06648 26.75998,0.96833 31.82646,13.47912c5.06648,12.51079 -0.96833,26.75998 -13.47912,31.82646z" data-paper-data="{&quot;index&quot;:null}" fill="#a04d4d" stroke-width="0.5"/><g stroke-width="0"><path d="M216.10399,182.23423l5.16486,12.78404l-15.43865,-1.16087z" fill="#924646"/><path d="M216.54792,183.33301l4.72094,11.68524l-14.11171,-1.06109z" fill="#a44f4f"/><path d="M216.54792,183.33302l4.37719,10.8344l-13.08418,-0.98383z" fill="#8a4242"/></g><g data-paper-data="{&quot;index&quot;:null}" stroke-width="0"><path d="M254.07545,214.08728l-11.64946,-10.19754l12.73813,-5.27707z" fill="#924646"/><path d="M253.07418,213.2108l-10.6482,-9.32107l11.64328,-4.8235z" fill="#a44f4f"/><path d="M253.14664,212.18088l-9.87285,-8.64236l10.79549,-4.47229z" fill="#8a4242"/></g><path d="M217.50287,189.5234c-5.15571,-12.47429 0.77716,-26.76622 13.25143,-31.92193c12.47429,-5.15571 26.76622,0.77716 31.92193,13.25143c5.15571,12.47429 -0.77716,26.76622 -13.25143,31.92193c-12.47429,5.15571 -26.76622,-0.77716 -31.92193,-13.25143z" data-paper-data="{&quot;index&quot;:null}" fill="#a04d4d" stroke-width="0.5"/><g stroke-width="0"><path d="M220.98931,165.33807l-4.9353,12.87441l-10.50476,-11.37321z" fill="#924646"/><path d="M220.56513,166.44463l-4.51111,11.76785l-9.60188,-10.39568z" fill="#a44f4f"/><path d="M220.56512,166.44463l-4.18264,10.91098l-8.90273,-9.63874z" fill="#8a4242"/></g><g data-paper-data="{&quot;index&quot;:null}" stroke-width="0"><path d="M253.44918,145.64425l1.35222,15.42308l-12.84709,-5.00595z" fill="#924646"/><path d="M253.5654,146.96987l1.23598,14.09746l-11.74289,-4.57569z" fill="#a44f4f"/><path d="M252.80036,147.66317l1.14599,13.07097l-10.88783,-4.24252z" fill="#8a4242"/></g><path d="M262.8504,188.68557c-4.91096,12.57265 -19.08423,18.78367 -31.65688,13.87271c-12.57265,-4.91096 -18.78367,-19.08423 -13.87271,-31.65688c4.91096,-12.57265 19.08423,-18.78367 31.65688,-13.87271c12.57265,4.91096 18.78367,19.08423 13.87271,31.65688z" data-paper-data="{&quot;index&quot;:null}" fill="#a04d4d" stroke-width="0.5"/><g stroke-width="0"><path d="M225.21914,198.90537l12.83882,5.02713l-11.44796,10.42325z" fill="#924646"/><path d="M226.32264,199.33745l11.73533,4.59505l-10.46401,9.52737z" fill="#a44f4f"/><path d="M226.32264,199.33746l10.88083,4.26046l-9.70208,8.83364z" fill="#8a4242"/></g><g data-paper-data="{&quot;index&quot;:null}" stroke-width="0"><path d="M274.45075,193.18694l-15.41303,1.46235l4.91406,-12.88253z" fill="#924646"/><path d="M273.12598,193.31262l-14.08827,1.33666l4.49169,-11.77527z" fill="#a44f4f"/><path d="M272.42722,192.55255l-13.06245,1.23933l4.16463,-10.91786z" fill="#8a4242"/></g><path d="M231.47767,202.89536c-12.60741,-4.82103 -18.91951,-18.94956 -14.09849,-31.55697c4.82103,-12.60741 18.94957,-18.91951 31.55698,-14.09849c12.60741,4.82103 18.91951,18.94956 14.09849,31.55697c-4.82103,12.60741 -18.94957,18.91951 -31.55698,14.09849z" data-paper-data="{&quot;index&quot;:null}" fill="#a04d4d" stroke-width="0.5"/></g></g></g></svg>