<svg version="1.1" xmlns="http://www.w3.org/2000/svg" xmlns:xlink="http://www.w3.org/1999/xlink" width="202.91996" height="429.1465" viewBox="0,0,202.91996,429.1465"><defs><linearGradient x1="307.86152" y1="525.65876" x2="347.24629" y2="373.7769" gradientUnits="userSpaceOnUse" id="color-1"><stop offset="0" stop-color="#7e7463"/><stop offset="1" stop-color="#847c6b"/></linearGradient><linearGradient x1="379.70381" y1="248.60897" x2="344.06691" y2="386.03771" gradientUnits="userSpaceOnUse" id="color-2"><stop offset="0" stop-color="#7e7463"/><stop offset="1" stop-color="#847c6b"/></linearGradient><linearGradient x1="546.97293" y1="307.1719" x2="538.67278" y2="339.18032" gradientUnits="userSpaceOnUse" id="color-3"><stop offset="0" stop-color="#454037"/><stop offset="1" stop-color="#454037" stop-opacity="0"/></linearGradient><linearGradient x1="508.16486" y1="280.29696" x2="502.64263" y2="301.59262" gradientUnits="userSpaceOnUse" id="color-4"><stop offset="0" stop-color="#95bd86"/><stop offset="1" stop-color="#80a374"/></linearGradient><linearGradient x1="281.41579" y1="221.49824" x2="275.89358" y2="242.7939" gradientUnits="userSpaceOnUse" id="color-5"><stop offset="0" stop-color="#95bd86"/><stop offset="1" stop-color="#80a374"/></linearGradient><linearGradient x1="336.54976" y1="462.51606" x2="323.5687" y2="306.14869" gradientUnits="userSpaceOnUse" id="color-6"><stop offset="0" stop-color="#7e7463"/><stop offset="1" stop-color="#847c6b"/></linearGradient><linearGradient x1="312.87081" y1="177.28421" x2="324.6166" y2="318.77161" gradientUnits="userSpaceOnUse" id="color-7"><stop offset="0" stop-color="#7e7463"/><stop offset="1" stop-color="#847c6b"/></linearGradient><linearGradient x1="324.4028" y1="189.87611" x2="335.19807" y2="319.91392" gradientUnits="userSpaceOnUse" id="color-8"><stop offset="0" stop-color="#736c5d"/><stop offset="1" stop-color="#736c5d" stop-opacity="0"/></linearGradient><linearGradient x1="490.09545" y1="177.32404" x2="492.83116" y2="210.27775" gradientUnits="userSpaceOnUse" id="color-9"><stop offset="0" stop-color="#454037"/><stop offset="1" stop-color="#454037" stop-opacity="0"/></linearGradient><linearGradient x1="444.58955" y1="164.77247" x2="446.40964" y2="186.69706" gradientUnits="userSpaceOnUse" id="color-10"><stop offset="0" stop-color="#95bd86"/><stop offset="1" stop-color="#80a374"/></linearGradient><linearGradient x1="211.14394" y1="184.15231" x2="212.96405" y2="206.07689" gradientUnits="userSpaceOnUse" id="color-11"><stop offset="0" stop-color="#95bd86"/><stop offset="1" stop-color="#80a374"/></linearGradient></defs><g transform="translate(-210.4391,-103.67867)"><g data-paper-data="{&quot;isPaintingLayer&quot;:true}" fill-rule="nonzero" stroke-linecap="butt" stroke-linejoin="miter" stroke-miterlimit="10" stroke-dasharray="" stroke-dashoffset="0" style="mix-blend-mode: normal"><path d="M346.95301,367.54109l-37.48759,144.56564l-38.85332,-10.07512l37.48758,-144.56565z" fill="#454545" stroke="#454545" stroke-width="10.5"/><path d="M375.54093,381.11404c0,0 -31.85689,120.20328 -34.27015,129.50968c-0.50288,1.93929 -1.55608,6.03778 -2.64213,10.24313c-1.28088,4.95975 -2.60743,10.06814 -3.13077,11.95832l-73.44674,-19.04561l39.38476,-151.88184z" fill="url(#color-1)" stroke="none" stroke-width="0"/><path d="M298.25651,374.15853l35.63689,-137.42871l73.44674,19.04561c-0.41429,1.72567 -1.61124,6.34882 -2.77959,10.83418c-0.99064,3.80311 -1.96073,7.50714 -2.41577,9.2619c-2.18362,8.4208 -29.78325,117.50334 -29.78325,117.50334z" fill="url(#color-2)" stroke="none" stroke-width="0"/><path d="M322.22765,283.05353c0,0 5.12247,-20.42448 6.34392,-25.13489c0.39348,-1.5174 28.0788,-0.22225 28.0788,-0.22225l46.75004,12.13499l-7.77184,33.03068z" fill="url(#color-3)" stroke="none" stroke-width="0"/><path d="M328.88511,235.62282c0,0 -0.10719,0.30586 0.25592,-1.17054c3.12062,-12.60098 10.05308,-9.32102 15.30968,-7.95793c4.07155,1.0558 12.7219,3.29893 24.39069,6.32479c-0.181,1.12247 -0.33247,2.24899 -0.43875,3.38175c-0.29829,3.17942 -0.36441,6.37296 -0.38517,9.56943z" fill="#94bc85" stroke="none" stroke-width="0"/><path d="M322.73465,259.07265c1.05854,-4.08211 3.532,-13.62066 3.532,-13.62066l41.59803,10.87078c-0.04462,0.96643 -0.10394,1.932 -0.18317,2.89639c-0.56778,6.91028 -1.22365,13.81025 -1.92552,20.70531c-9.33092,-2.41962 -16.78676,-4.35301 -21.62873,-5.60859c-5.9141,-1.5336 -9.31852,-2.4164 -13.72344,-3.55865c-9.76832,-2.53303 -8.53368,-8.35068 -7.66916,-11.68456z" fill="#80a374" stroke="none" stroke-width="0"/><path d="M323.70655,255.19237l5.52221,-21.29566c0,0 4.25721,1.10394 9.90983,2.56973c6.13051,1.58972 21.6732,5.62012 42.97737,11.14454c0.35353,5.19883 0.98237,10.42878 0.87117,15.57708c-0.05279,2.44368 -0.11999,4.88516 -0.19921,7.32481z" fill="url(#color-4)" stroke="none" stroke-width="0"/><path d="M373.04136,247.07307c1.53518,-2.80375 3.02927,-5.62699 4.31359,-8.55072c0.45758,-1.04167 0.87264,-2.09984 1.25991,-3.16881c11.66879,3.02586 20.31914,5.269 24.3907,6.3248c5.2566,1.36309 12.90936,1.86528 9.51333,14.39484c-0.4001,1.4668 -0.34515,1.1474 -0.34515,1.1474z" data-paper-data="{&quot;index&quot;:null}" fill="#94bc85" stroke="none" stroke-width="0"/><path d="M406.15377,280.70421c-0.86451,3.33387 -2.61252,9.01839 -12.38084,6.48536c-4.40492,-1.14225 -7.80934,-2.02505 -13.72344,-3.55865c-4.84197,-1.25558 -12.29781,-3.18897 -21.62873,-5.60859c2.73721,-6.36727 5.51699,-12.71648 8.3788,-19.03188c0.3994,-0.88137 0.81676,-1.7541 1.2474,-2.62042l41.63881,10.71352c0,0 -2.47346,9.53854 -3.532,13.62066z" data-paper-data="{&quot;index&quot;:null}" fill="#80a374" stroke="none" stroke-width="0"/><path d="M363.83829,265.599c0.97825,-2.20651 1.96477,-4.4096 2.96123,-6.60859c2.09932,-4.63276 4.6952,-9.02651 7.10604,-13.50849c15.63218,4.0536 27.0368,7.01097 31.53513,8.17744c4.14768,1.07555 7.27146,1.88557 7.27146,1.88557l-5.52221,21.29566z" data-paper-data="{&quot;index&quot;:null}" fill="url(#color-5)" stroke="none" stroke-width="0"/><path d="M344.37287,239.63898c0,0 -0.10719,0.30585 0.25592,-1.17054c3.12062,-12.60098 10.05308,-9.32103 15.30968,-7.95793c4.07155,1.0558 12.7219,3.29894 24.39069,6.32479c-0.181,1.12247 -0.33247,2.24899 -0.43875,3.38175c-0.29829,3.17942 -0.36442,6.37295 -0.38517,9.56942z" fill="#94bc85" stroke="none" stroke-width="0"/><path d="M321.2326,300.35958l12.35576,148.83508l-40.00076,3.32072l-12.35576,-148.83508z" fill="#454545" stroke="#454545" stroke-width="10.5"/><path d="M352.69895,303.73041c0,0 9.62533,123.98001 10.42073,133.56126c0.16575,1.99656 0.52509,6.21293 0.88871,10.541c0.42885,5.1045 0.86368,10.36437 0.9939,12.32133l-75.61583,6.27736l-12.98106,-156.36734z" fill="url(#color-6)" stroke="none" stroke-width="0"/><path d="M277.4533,322.68694l-11.74579,-141.48737l75.61583,-6.27736c0.17882,1.76567 0.57574,6.52473 0.95415,11.14429c0.32084,3.9169 0.62837,7.73349 0.77834,9.54006c0.7197,8.66949 10.69103,120.74676 10.69103,120.74676z" fill="url(#color-7)" stroke="none" stroke-width="0"/><path d="M316.73434,321.44672l-10.79527,-130.0378l36.92747,-3.06559l10.79528,130.03781z" fill="url(#color-8)" stroke="none" stroke-width="0"/><path d="M269.9938,228.77692c0,0 -1.90974,-20.97026 -2.31234,-25.81978c-0.12969,-1.56222 26.43017,-9.48231 26.43017,-9.48231l48.13471,-3.98417l3.57197,33.74417z" fill="url(#color-9)" stroke="none" stroke-width="0"/><path d="M260.61461,181.80858c0,0 -0.00017,0.32409 -0.14499,-1.18939c-1.2157,-12.92459 6.411,-12.11797 11.82283,-12.56724c4.1918,-0.34799 13.0976,-1.08732 25.11102,-2.08463c0.19983,1.11927 0.42888,2.23261 0.70263,3.33692c0.76839,3.09956 1.76058,6.13577 2.79657,9.15977z" fill="#94bc85" stroke="none" stroke-width="0"/><path d="M262.5531,205.97394c-0.34888,-4.20267 -1.16413,-14.02291 -1.16413,-14.02291l42.85425,-3.4761c0.27704,0.92694 0.5399,1.85793 0.78359,2.79438c1.74607,6.71011 3.40559,13.43958 5.02006,20.1796c-9.60649,0.79749 -17.28251,1.43473 -22.26749,1.84856c-6.08876,0.50546 -9.59372,0.79644 -14.12873,1.17292c-10.0568,0.83489 -10.8126,-5.06411 -11.09754,-8.49644z" fill="#80a374" stroke="none" stroke-width="0"/><path d="M262.18907,201.9904l-1.82011,-21.92458c0,0 4.38293,-0.36386 10.20249,-0.84698c6.31155,-0.52396 22.31328,-1.85237 44.24662,-3.67319c2.05052,4.79042 4.37118,9.51932 5.96635,14.41551c0.75716,2.32402 1.49998,4.65072 2.23086,6.97966z" fill="url(#color-10)" stroke="none" stroke-width="0"/><path d="M306.07491,178.03463c0.52317,-3.15343 1.00112,-6.31168 1.24788,-9.49551c0.08791,-1.13433 0.13025,-2.27021 0.14278,-3.4071c12.01341,-0.99731 20.91922,-1.73663 25.11102,-2.08462c5.41184,-0.44928 12.80111,-2.50246 13.73327,10.44566c0.10672,1.51664 0.05313,1.19701 0.05313,1.19701z" data-paper-data="{&quot;index&quot;:null}" fill="#94bc85" stroke="none" stroke-width="0"/><path d="M348.43581,198.84427c0.28494,3.43233 0.51221,9.37519 -9.5446,10.21008c-4.53501,0.37648 -8.03998,0.66745 -14.12874,1.17292c-4.98498,0.41383 -12.661,1.05107 -22.26749,1.84857c0.48098,-6.91398 1.00809,-13.82497 1.6238,-20.73114c0.08593,-0.96382 0.19167,-1.92541 0.31207,-2.88534l42.84081,-3.63801c0,0 0.81524,9.82025 1.16413,14.02292z" data-paper-data="{&quot;index&quot;:null}" fill="#80a374" stroke="none" stroke-width="0"/><path d="M303.50601,198.56041c0.19471,-2.40578 0.39835,-4.81105 0.61273,-7.21573c0.45166,-5.06612 1.45096,-10.07063 2.24644,-15.09731c16.09384,-1.33606 27.83527,-2.31078 32.46645,-2.69524c4.27017,-0.35449 7.4862,-0.62148 7.4862,-0.62148l1.82011,21.92458z" data-paper-data="{&quot;index&quot;:null}" fill="url(#color-11)" stroke="none" stroke-width="0"/><path d="M276.55976,180.48487c0,0 -0.00017,0.32409 -0.14499,-1.18938c-1.2157,-12.92459 6.41099,-12.11797 11.82283,-12.56725c4.1918,-0.34799 13.09761,-1.08732 25.11102,-2.08463c0.19983,1.11927 0.42888,2.23261 0.70264,3.33692c0.76839,3.09956 1.76058,6.13577 2.79657,9.15977z" fill="#94bc85" stroke="none" stroke-width="0"/><path d="M389.12735,230.07796c0,69.8084 -40.00073,126.39929 -89.34412,126.39929c-49.3434,0 -89.34412,-56.59089 -89.34412,-126.39929c0,-69.8084 40.00073,-126.39929 89.34412,-126.39929c49.3434,0 89.34412,56.59089 89.34412,126.39929z" fill="none" stroke="none" stroke-width="0"/></g></g></svg>