<svg version="1.1" xmlns="http://www.w3.org/2000/svg" xmlns:xlink="http://www.w3.org/1999/xlink" width="194.58258" height="18.73934" viewBox="0,0,194.58258,18.73934"><g transform="translate(-152.25417,-106.035)"><g data-paper-data="{&quot;isPaintingLayer&quot;:true}" fill-rule="nonzero" stroke="none" stroke-width="1" stroke-linecap="butt" stroke-linejoin="miter" stroke-miterlimit="10" stroke-dasharray="" stroke-dashoffset="0" style="mix-blend-mode: normal"><path d="" fill="#000000"/><path d="" fill="#000000"/><path d="" fill="#000000"/><path d="" fill="#000000"/><path d="" fill="#000000"/><path d="" fill="#000000"/><path d="" fill="#000000"/><g fill="#ffffff"><path d="M158.35305,112.79529c0,-0.45284 0.16533,-0.81224 0.49598,-1.0782c0.33065,-0.27314 0.67208,-0.40972 1.02428,-0.40972c0.71161,0 1.16086,0.25158 1.34776,0.75474c0.04716,0.12694 0.07394,0.26098 0.08037,0.4021c0.22303,-0.2624 0.52329,-0.49706 0.90079,-0.70399c0.82662,-0.45284 1.64246,-0.67927 2.44752,-0.67927c0.81225,0 1.50588,0.10423 2.08092,0.31268c0.57504,0.20127 1.10336,0.51753 1.58495,0.94881c0.97037,0.92006 1.45557,2.24625 1.45557,3.97856v6.72795c0,0.49597 -0.17969,0.86256 -0.5391,1.09977c-0.3522,0.2372 -0.70083,0.35581 -1.04585,0.35581c-0.39533,0 -0.75114,-0.12939 -1.06742,-0.38816c-0.30908,-0.25877 -0.46363,-0.61458 -0.46363,-1.06743v-6.85733c0,-0.83381 -0.21564,-1.45916 -0.64692,-1.87606c-0.40253,-0.39534 -0.90569,-0.59301 -1.50948,-0.59301c-0.87694,0 -1.62089,0.24798 -2.23186,0.74396c-0.58223,0.51753 -0.87333,1.34775 -0.87333,2.49064v6.09183c0,0.49597 -0.17252,0.86255 -0.51754,1.09976c-0.33784,0.2372 -0.69365,0.35581 -1.06742,0.35581c-0.40253,0 -0.74755,-0.13298 -1.03507,-0.39893c-0.28033,-0.26596 -0.4205,-0.61818 -0.4205,-1.05663z"/><path d="M152.64231,112.89232c0,-0.48878 0.16173,-0.87333 0.4852,-1.15367c0.33065,-0.28753 0.63974,-0.43129 0.92725,-0.43129c0.28752,0 0.51754,0.04313 0.69004,0.12938c0.17251,0.08625 0.31987,0.18689 0.44207,0.30189c0.37377,0.24439 0.56066,0.62895 0.56066,1.15368v10.09193c0,0.51035 -0.16892,0.89132 -0.50675,1.1429c-0.33784,0.25158 -0.69723,0.37738 -1.0782,0.37738c-0.38816,0 -0.74036,-0.12939 -1.05663,-0.38816c-0.30908,-0.25877 -0.46363,-0.63614 -0.46363,-1.13211z"/><path d="M156.06019,107.68463c0,0.51035 -0.17611,0.92366 -0.52831,1.23994c-0.34502,0.31628 -0.80146,0.47441 -1.36931,0.47441c-0.56785,0 -1.02789,-0.15454 -1.38009,-0.46362c-0.3522,-0.31628 -0.52831,-0.73318 -0.52831,-1.25071c0,-0.46003 0.17611,-0.84819 0.52832,-1.16446c0.3522,-0.32345 0.81942,-0.48519 1.40166,-0.48519c0.58223,0 1.03867,0.16173 1.36932,0.4852c0.33784,0.32345 0.50676,0.71161 0.50676,1.16446z"/><path d="M327.11001,124.76329c-1.84731,0 -3.29569,-0.74036 -4.34514,-2.22108c-0.86975,-1.28665 -1.30462,-2.83208 -1.30462,-4.63626c0,-3.06208 1.04226,-5.13582 3.12678,-6.2212c0.71161,-0.40252 1.42322,-0.60379 2.13483,-0.60379c0.7188,0 1.31181,0.04313 1.77904,0.12938c0.46722,0.07906 0.91647,0.2372 1.34775,0.47441c0.74205,0.37102 1.1503,0.64739 1.22474,0.82909l-0.22201,-4.94781c0,-0.51753 0.17251,-0.89131 0.51754,-1.12132c0.34503,-0.23001 0.70084,-0.34503 1.06743,-0.34503c0.38815,0 0.73677,0.1186 1.04586,0.3558c0.31627,0.23001 0.47441,0.60019 0.47441,1.11055v15.48292c0,0.48878 -0.16892,0.85537 -0.50675,1.09977c-0.33783,0.2372 -0.63614,0.35581 -0.8949,0.35581c-0.25158,0 -0.4744,-0.02517 -0.66848,-0.07547c-0.19407,-0.0575 -0.3666,-0.16172 -0.51754,-0.31267c-0.26738,-0.18382 -0.43114,-0.43887 -0.49132,-0.76514c-0.67861,0.94136 -1.93448,1.41205 -3.7676,1.41205zM327.48737,122.12169c2.19952,0 3.29929,-1.46994 3.29929,-4.40983c0,-1.89763 -0.5391,-3.12318 -1.61729,-3.67665c-0.40972,-0.20845 -0.90568,-0.31268 -1.48791,-0.31268c-0.57504,0 -1.04585,0.10782 -1.41244,0.32346c-0.3594,0.20845 -0.66129,0.49956 -0.90569,0.87334c-0.46722,0.73318 -0.70083,1.67479 -0.70083,2.82487c0,1.72512 0.39175,2.97943 1.17525,3.76292c0.39534,0.40972 0.94522,0.61458 1.64964,0.61458z"/><path d="M293.41352,117.93828c0,-0.81943 0.13298,-1.64245 0.39894,-2.46907c0.26596,-0.82663 0.67208,-1.57416 1.21837,-2.24265c1.17883,-1.43041 2.82848,-2.14561 4.94893,-2.14561c2.12764,0 3.77729,0.7188 4.94893,2.1564c1.0782,1.32259 1.61729,2.87879 1.61729,4.6686c0,1.80418 -0.53909,3.36038 -1.61729,4.6686c-1.17165,1.45916 -2.82129,2.18874 -4.94893,2.18874c-2.12045,0 -3.7701,-0.72599 -4.94893,-2.17796c-1.0782,-1.29384 -1.61729,-2.84285 -1.61729,-4.64703zM296.61577,117.93828c0,0.46004 0.06109,0.94522 0.18329,1.45557c0.12938,0.51034 0.35222,0.98117 0.66848,1.41245c0.61098,0.87693 1.44838,1.3154 2.51221,1.3154c1.12851,0 1.96232,-0.42768 2.50142,-1.28305c0.55347,-0.87693 0.83021,-1.8545 0.83021,-2.93269c0,-1.10695 -0.27313,-2.05935 -0.81942,-2.85721c-0.56785,-0.88412 -1.40526,-1.32618 -2.5122,-1.32618c-1.06383,0 -1.90123,0.44925 -2.5122,1.34775c-0.56785,0.76911 -0.85177,1.72512 -0.85177,2.868z"/><path d="M280.69171,117.55014c0,0.79787 -0.43487,1.23275 -1.30462,1.30463h-8.12961c0.06469,1.50948 0.7799,2.53735 2.14561,3.08364c0.36659,0.1222 0.80865,0.1833 1.32619,0.1833c1.06383,0 2.16718,-0.40252 3.31007,-1.20758c0.63973,-0.36659 1.1968,-0.31987 1.6712,0.14016c0.28033,0.30189 0.37378,0.5966 0.28033,0.88412c0,0.40252 -0.13298,0.7224 -0.39893,0.9596c-1.26508,1.2579 -2.92911,1.87966 -4.99206,1.86529c-1.89763,0 -3.42867,-0.61817 -4.59313,-1.8545c-1.29384,-1.27228 -1.94075,-2.9399 -1.94075,-5.00285c0,-1.89044 0.52832,-3.46101 1.58495,-4.71172c1.13569,-1.40884 2.72066,-2.11326 4.75486,-2.11326c2.0342,0 3.59759,0.62535 4.69017,1.87606c1.0207,1.11414 1.55261,2.64518 1.59573,4.59313zM277.65119,116.41803c-0.03594,-0.60379 -0.34503,-1.22555 -0.92724,-1.86528c-0.52472,-0.55348 -1.29744,-0.83021 -2.31813,-0.83021c-0.84819,0 -1.57416,0.31627 -2.17795,0.94881c-0.56067,0.65411 -0.85897,1.23633 -0.8949,1.74668z"/><path d="M308.29911,112.79529c0,-0.45284 0.16532,-0.81224 0.49597,-1.0782c0.33065,-0.27314 0.67208,-0.40972 1.02429,-0.40972c0.71161,0 1.16086,0.25158 1.34775,0.75474c0.04715,0.12694 0.07394,0.26098 0.08036,0.4021c0.22303,-0.2624 0.52329,-0.49706 0.9008,-0.70399c0.82662,-0.45284 1.64245,-0.67927 2.44752,-0.67927c0.81224,0 1.50588,0.10423 2.08092,0.31268c0.57504,0.20127 1.10336,0.51753 1.58496,0.94881c0.97037,0.92006 1.45557,2.24625 1.45557,3.97856v6.72795c0,0.49597 -0.17971,0.86256 -0.5391,1.09977c-0.35222,0.2372 -0.70083,0.35581 -1.04585,0.35581c-0.39534,0 -0.75114,-0.12939 -1.06742,-0.38816c-0.30909,-0.25877 -0.46362,-0.61457 -0.46362,-1.06742v-6.85733c0,-0.8338 -0.21564,-1.45916 -0.64692,-1.87607c-0.40252,-0.39534 -0.90569,-0.59301 -1.50948,-0.59301c-0.87693,0 -1.6209,0.24798 -2.23187,0.74396c-0.58223,0.51753 -0.87333,1.34776 -0.87333,2.49065v6.09182c0,0.49597 -0.17251,0.86255 -0.51753,1.09976c-0.33783,0.2372 -0.69365,0.35581 -1.06742,0.35581c-0.40252,0 -0.74755,-0.13298 -1.03508,-0.39893c-0.28033,-0.26596 -0.42049,-0.61817 -0.42049,-1.05664z"/><path d="M341.13307,113.72254c-1.44479,0 -2.1528,0.38456 -2.12404,1.15368c0,0.45284 0.38815,0.78349 1.16445,0.99194c0.35222,0.09345 0.73317,0.1833 1.14289,0.26955c0.40972,0.08625 0.86255,0.19048 1.35853,0.31267c0.50316,0.115 1.01351,0.27314 1.53104,0.47441c0.81943,0.2372 1.46276,0.65411 1.92998,1.25071c0.46722,0.5966 0.70083,1.31181 0.70083,2.14562c0,1.47355 -0.62535,2.61283 -1.87606,3.41789c-1.06383,0.69724 -2.39361,1.03866 -3.98934,1.02429c-1.16445,0 -2.31093,-0.20485 -3.43944,-0.61457c-0.49597,-0.19407 -0.91646,-0.44924 -1.26149,-0.76551c-0.33783,-0.31627 -0.50675,-0.66488 -0.50675,-1.04585c0,-0.38096 0.12938,-0.68644 0.38815,-0.91646c0.25876,-0.23002 0.53911,-0.34503 0.841,-0.34503c0.30189,0 0.58582,0.0611 0.85177,0.1833c0.27314,0.115 0.59301,0.23361 0.9596,0.35581c0.92006,0.33783 1.64964,0.50676 2.18874,0.50676c0.5391,0 0.96318,-0.02875 1.27227,-0.08625c0.31627,-0.06469 0.58942,-0.16532 0.81943,-0.30189c0.45285,-0.30189 0.67927,-0.69004 0.67927,-1.16445c0,-0.31627 -0.10423,-0.56426 -0.31268,-0.74396c-0.20845,-0.1797 -0.53192,-0.33424 -0.97038,-0.46362c-0.43128,-0.13657 -0.87693,-0.25517 -1.33696,-0.3558c-0.45285,-0.10782 -0.92006,-0.21564 -1.40166,-0.32346c-0.47441,-0.10782 -0.94522,-0.2408 -1.41244,-0.39893c-0.46004,-0.16532 -0.86256,-0.39534 -1.20758,-0.69004c-0.86255,-0.60379 -1.29384,-1.47355 -1.29384,-2.60924c0,-1.41603 0.59661,-2.43673 1.78981,-3.06208c0.8985,-0.56067 2.08092,-0.841 3.54727,-0.841c1.45916,0 2.64518,0.22284 3.55805,0.66849c0.90569,0.46721 1.35853,1.03866 1.35853,1.71434c0,0.3594 -0.13298,0.63974 -0.39893,0.841c-0.25876,0.20127 -0.53911,0.30189 -0.841,0.30189c-0.43128,0 -0.74755,-0.0647 -0.94881,-0.19407c-0.20127,-0.13657 -0.38096,-0.24798 -0.5391,-0.33424c-0.15094,-0.08625 -0.32705,-0.14736 -0.52831,-0.18328c-0.43847,-0.115 -1.00273,-0.17251 -1.69277,-0.17251z"/><path d="M261.24607,113.72254c-1.44478,0 -2.15281,0.38456 -2.12404,1.15368c0,0.45284 0.38816,0.78349 1.16446,0.99194c0.35222,0.09345 0.73317,0.1833 1.14289,0.26955c0.40972,0.08625 0.86256,0.19048 1.35853,0.31267c0.50316,0.115 1.01351,0.27314 1.53104,0.47441c0.81943,0.2372 1.46276,0.65411 1.92998,1.25071c0.46722,0.5966 0.70084,1.31181 0.70084,2.14562c0,1.47355 -0.62536,2.61283 -1.87607,3.41789c-1.06383,0.69724 -2.3936,1.03866 -3.98933,1.02429c-1.16446,0 -2.31093,-0.20485 -3.43944,-0.61457c-0.49597,-0.19407 -0.91647,-0.44924 -1.26149,-0.76551c-0.33783,-0.31627 -0.50675,-0.66488 -0.50675,-1.04585c0,-0.38096 0.12939,-0.68644 0.38816,-0.91646c0.25877,-0.23002 0.5391,-0.34503 0.84099,-0.34503c0.30189,0 0.58583,0.0611 0.85178,0.1833c0.27314,0.115 0.59301,0.23361 0.9596,0.35581c0.92006,0.33783 1.64964,0.50676 2.18874,0.50676c0.5391,0 0.96319,-0.02875 1.27228,-0.08625c0.31627,-0.06469 0.58941,-0.16532 0.81942,-0.30189c0.45284,-0.30189 0.67927,-0.69004 0.67927,-1.16445c0,-0.31627 -0.10422,-0.56426 -0.31267,-0.74396c-0.20845,-0.1797 -0.53192,-0.33424 -0.97038,-0.46362c-0.43128,-0.13657 -0.87693,-0.25517 -1.33696,-0.3558c-0.45284,-0.10782 -0.92006,-0.21564 -1.40166,-0.32346c-0.47441,-0.10782 -0.94522,-0.2408 -1.41244,-0.39893c-0.46004,-0.16532 -0.86255,-0.39534 -1.20758,-0.69004c-0.86255,-0.60379 -1.29384,-1.47355 -1.29384,-2.60924c0,-1.41603 0.59661,-2.43673 1.78981,-3.06208c0.89849,-0.56067 2.08092,-0.841 3.54727,-0.841c1.45916,0 2.64518,0.22284 3.55805,0.66849c0.90569,0.46721 1.35853,1.03866 1.35853,1.71434c0,0.3594 -0.13298,0.63974 -0.39893,0.841c-0.25877,0.20127 -0.5391,0.30189 -0.84099,0.30189c-0.43128,0 -0.74755,-0.0647 -0.94881,-0.19407c-0.20127,-0.13657 -0.38096,-0.24798 -0.5391,-0.33424c-0.15095,-0.08625 -0.32706,-0.14736 -0.52832,-0.18328c-0.43847,-0.115 -1.00272,-0.17251 -1.69277,-0.17251z"/><path d="M281.70711,117.90594c0,-1.89763 0.54269,-3.47899 1.62808,-4.74407c1.1932,-1.38728 2.74581,-2.08092 4.65782,-2.08092c1.6101,0 2.85722,0.34862 3.74135,1.04586c0.38096,0.27314 0.57145,0.61458 0.57145,1.02429c0,0.40252 -0.1186,0.72957 -0.35581,0.98116c-0.23001,0.25158 -0.50315,0.37738 -0.81942,0.37738c-0.31627,0 -0.55707,-0.06469 -0.72239,-0.19407c-0.69723,-0.39534 -1.4412,-0.58583 -2.23187,-0.57145c-0.97037,0 -1.7323,0.363 -2.28578,1.08899c-0.65411,0.79067 -0.98116,1.81497 -0.98116,3.07287c0,1.17883 0.2372,2.16718 0.71161,2.96505c0.51754,0.83381 1.36932,1.25071 2.55534,1.25071c0.67567,0 1.51667,-0.2408 2.52299,-0.72239c0.55347,-0.32345 1.03866,-0.24439 1.45557,0.2372c0.23001,0.23002 0.34503,0.54269 0.34503,0.93803c0,0.38816 -0.18688,0.73318 -0.56066,1.03508c-0.37378,0.30189 -0.78349,0.52472 -1.22915,0.66848c-0.98475,0.33783 -1.95154,0.50317 -2.90035,0.49598c-0.94162,-0.00719 -1.80059,-0.18689 -2.57689,-0.5391c-0.7763,-0.3594 -1.42323,-0.88053 -1.94076,-1.56338c-1.05664,-1.26508 -1.58494,-2.85363 -1.58494,-4.76563z"/></g></g></g></svg>