<svg version="1.1" xmlns="http://www.w3.org/2000/svg" xmlns:xlink="http://www.w3.org/1999/xlink" width="300.3003" height="235.73574" viewBox="0,0,300.3003,235.73574"><defs><linearGradient x1="370.56166" y1="174.59742" x2="370.56166" y2="198.13311" gradientUnits="userSpaceOnUse" id="color-1"><stop offset="0" stop-color="#ecd284"/><stop offset="1" stop-color="#c5af6e"/></linearGradient><linearGradient x1="519.75011" y1="110.63842" x2="512.84884" y2="133.13956" gradientUnits="userSpaceOnUse" id="color-2"><stop offset="0" stop-color="#ecd284"/><stop offset="1" stop-color="#c5af6e"/></linearGradient></defs><g transform="translate(-279.18397,-54.47447)"><g data-paper-data="{&quot;isPaintingLayer&quot;:true}" fill-rule="nonzero" stroke="none" stroke-linecap="butt" stroke-linejoin="miter" stroke-miterlimit="10" stroke-dasharray="" stroke-dashoffset="0" style="mix-blend-mode: normal"><path d="M410.26647,184.75861c0.00788,0.22168 1.49501,15.98585 2.39727,26.74723c0.46857,5.58866 -2.3386,10.11642 -7.11082,10.55774c-16.84726,1.558 -55.8213,5.16223 -63.18447,5.84316c-6.14167,0.56796 -8.90733,-4.20968 -9.25192,-7.93591c-0.61582,-6.65915 -2.57453,-27.83948 -2.57453,-27.83948z" data-paper-data="{&quot;index&quot;:null}" fill="#e4cb7f" stroke-width="0"/><path d="M331.19683,199.54481l-1.22544,-13.25121l79.69616,-7.37012l1.22544,13.2512z" data-paper-data="{&quot;index&quot;:null}" fill="#b7a367" stroke-width="0"/><path d="M331.59335,181.75713c7.50859,-0.69438 76.31278,-7.05724 76.31278,-7.05724c0,0 4.58746,-0.95234 4.94893,2.94954c0.20987,0.82964 0.94813,10.30324 0.94813,10.30324c0,0 0.0413,2.88308 -2.33938,3.16889c-2.44539,0.29357 -6.05046,0.26208 -9.90008,0.16942c-5.74746,-0.13834 -12.04002,-0.41302 -15.83214,0.05428c-12.44088,1.53308 -20.99351,0.73078 -33.42555,2.35128c-7.20346,0.93897 -16.52269,3.18236 -21.09324,4.34245c-1.72758,0.43849 -2.90768,-0.69392 -3.08302,-2.58991c-0.26391,-2.85374 -0.62835,-6.79455 -0.79807,-8.62985c-0.17586,-1.90169 1.6529,-4.82084 4.26166,-5.06209z" data-paper-data="{&quot;index&quot;:null}" fill="url(#color-1)" stroke-width="0"/><path d="M361.39389,214.44063c0.19523,2.11104 -1.7374,4.01515 -3.52839,4.18078c-2.61989,0.24228 -10.1358,0.93734 -15.06447,1.39313c-2.64371,0.24448 -4.76602,-1.99138 -4.95003,-3.98107c-0.13269,-1.43485 -0.40954,-4.42855 -0.60726,-6.56657c-0.17607,-1.90388 1.73919,-4.01532 4.57584,-4.27764c4.7031,-0.43493 11.45147,-1.059 14.0988,-1.30382c2.27243,-0.21015 4.67881,1.94032 4.83251,3.60237c0.13573,1.46772 0.41467,4.48402 0.64298,6.95284z" data-paper-data="{&quot;index&quot;:null}" fill="#e9d18c" stroke-width="NaN"/><path d="M398.46684,209.20878c0.19523,2.11104 -1.7374,4.01515 -3.52839,4.18078c-2.61989,0.24228 -10.1358,0.93734 -15.06447,1.39313c-2.64371,0.24448 -4.76602,-1.99138 -4.95003,-3.98107c-0.13269,-1.43485 -0.40954,-4.42855 -0.60726,-6.56657c-0.17607,-1.90388 1.73919,-4.01532 4.57584,-4.27764c4.7031,-0.43493 11.45147,-1.059 14.0988,-1.30382c2.27243,-0.21015 4.67881,1.94032 4.83251,3.60237c0.13573,1.46772 0.41467,4.48402 0.64298,6.95284z" data-paper-data="{&quot;index&quot;:null}" fill="#e9d18c" stroke-width="NaN"/><path d="M405.4132,213.5598c0.17878,1.93325 -1.59108,3.67701 -3.23124,3.82869c-2.39925,0.22188 -9.28219,0.85839 -13.79579,1.2758c-2.42106,0.2239 -4.36465,-1.82367 -4.53315,-3.6458c-0.12151,-1.31401 -0.37505,-4.05559 -0.55612,-6.01356c-0.16124,-1.74354 1.59272,-3.67716 4.19048,-3.91739c4.30702,-0.39831 10.48706,-0.96982 12.91144,-1.19402c2.08105,-0.19245 4.28478,1.77691 4.42554,3.29898c0.1243,1.34411 0.37975,4.10639 0.58883,6.36729z" data-paper-data="{&quot;index&quot;:null}" fill="#e9d18c" stroke-width="NaN"/><path d="M554.73009,131.99543c-0.05747,0.21425 -3.25817,15.72154 -5.55109,26.27445c-1.19077,5.4804 -5.2022,8.98599 -9.89406,8.00858c-16.56355,-3.45054 -54.88127,-11.43294 -62.12045,-12.94101c-6.03824,-1.2579 -7.2814,-6.6365 -6.51822,-10.29998c1.36388,-6.54701 5.70189,-27.37067 5.70189,-27.37067z" data-paper-data="{&quot;index&quot;:null}" fill="#e4cb7f" stroke-width="0"/><path d="M474.8004,122.94641l2.71402,-13.02806l78.35408,16.32283l-2.71403,13.02805z" data-paper-data="{&quot;index&quot;:null}" fill="#b7a367" stroke-width="0"/><path d="M480.3953,106.05689c7.38215,1.53786 75.02768,15.62986 75.02768,15.62986c0,0 4.66506,0.43468 3.86651,4.27104c-0.04263,0.85471 -2.11472,10.12836 -2.11472,10.12836c0,0 -0.80591,2.76846 -3.16575,2.34363c-2.42398,-0.43639 -5.86135,-1.52359 -9.51458,-2.74099c-5.45425,-1.81756 -11.38967,-3.92531 -15.15213,-4.5905c-12.34356,-2.1823 -20.28499,-5.45718 -32.64573,-7.55331c-7.16215,-1.21455 -16.72955,-1.80241 -21.43937,-2.03352c-1.78022,-0.08736 -2.57639,-1.51602 -2.18807,-3.38009c0.58448,-2.80569 1.39161,-6.68013 1.76751,-8.48452c0.38949,-1.86966 2.99384,-4.12426 5.55867,-3.58995z" data-paper-data="{&quot;index&quot;:null}" fill="url(#color-2)" stroke-width="0"/><path d="M501.80479,143.60806c-0.43517,2.08893 -2.85676,3.35077 -4.62899,2.98158c-2.59246,-0.54006 -10.02967,-2.08939 -14.90672,-3.10539c-2.61602,-0.54497 -3.99833,-3.32276 -3.58818,-5.29161c0.29578,-1.41982 0.91291,-4.38217 1.35364,-6.49781c0.39246,-1.88395 2.85854,-3.35041 5.66549,-2.76565c4.65386,0.96949 11.33156,2.3606 13.95116,2.90632c2.24863,0.46844 3.92949,3.24789 3.58687,4.89253c-0.30256,1.45235 -0.92434,4.43706 -1.43326,6.88003z" data-paper-data="{&quot;index&quot;:null}" fill="#e9d18c" stroke-width="NaN"/><path d="M541.68941,155.52459c-0.44546,2.13834 -2.92434,3.43003 -4.73849,3.0521c-2.65378,-0.55284 -10.26691,-2.13882 -15.25933,-3.17884c-2.6779,-0.55787 -4.09291,-3.40135 -3.67305,-5.41678c0.30278,-1.45341 0.9345,-4.48582 1.38565,-6.65151c0.40175,-1.92851 2.92614,-3.42966 5.79949,-2.83107c4.76394,0.99242 11.59959,2.41645 14.28116,2.97508c2.30181,0.47952 4.02244,3.3247 3.67171,5.00825c-0.30972,1.4867 -0.9462,4.54201 -1.46716,7.04277z" data-paper-data="{&quot;index&quot;:null}" fill="#e9d18c" stroke-width="NaN"/><path d="M512.56893,151.0784c-0.43517,2.08893 -2.85676,3.35077 -4.62899,2.98158c-2.59246,-0.54006 -10.02967,-2.08939 -14.90673,-3.10539c-2.61602,-0.54497 -3.99833,-3.32276 -3.58818,-5.29161c0.29579,-1.41983 0.91291,-4.38217 1.35363,-6.49781c0.39247,-1.88395 2.85854,-3.35041 5.66548,-2.76566c4.65386,0.96949 11.33156,2.3606 13.95116,2.90632c2.24863,0.46843 3.92949,3.24788 3.58687,4.89253c-0.30256,1.45235 -0.92434,4.43706 -1.43326,6.88003z" data-paper-data="{&quot;index&quot;:null}" fill="#e9d18c" stroke-width="NaN"/><path d="M279.18397,290.2102v-186.18619h147.14715v186.18619z" fill="none" stroke-width="0"/><path d="M516.4212,210.63062v-156.15616h63.06306v156.15616z" fill="none" stroke-width="0"/></g></g></svg>