<svg version="1.1" xmlns="http://www.w3.org/2000/svg" xmlns:xlink="http://www.w3.org/1999/xlink" width="213.4368" height="95.27436" viewBox="0,0,213.4368,95.27436"><g transform="translate(-200.23322,-179.79288)"><g data-paper-data="{&quot;isPaintingLayer&quot;:true}" fill-rule="nonzero" stroke="none" stroke-width="0" stroke-linecap="butt" stroke-linejoin="miter" stroke-miterlimit="10" stroke-dasharray="" stroke-dashoffset="0" style="mix-blend-mode: normal"><g data-paper-data="{&quot;index&quot;:null}"><path d="M284.883,249.01253l12.87663,26.05471h-25.88245z" fill="#924646"/><path d="M285.98975,251.25194l11.76987,23.8153h-23.65783z" fill="#a44f4f"/><path d="M285.12415,252.98602l10.91286,22.0812h-21.93522z" fill="#8a4242"/></g><g data-paper-data="{&quot;index&quot;:null}"><path d="M200.23322,179.7929h25.88244l-12.87663,26.05471z" fill="#924646"/><path d="M202.45781,179.7929h23.65783l-11.76987,23.8153z" fill="#a44f4f"/><path d="M202.45782,179.79292h21.93522l-10.91286,22.0812z" fill="#8a4242"/></g><g data-paper-data="{&quot;index&quot;:null}"><path d="M367.80682,180.7989h25.88245l-12.87662,26.05471z" fill="#924646"/><path d="M370.03142,180.79889h23.65785l-11.76987,23.8153z" fill="#a44f4f"/><path d="M370.03144,180.7989h21.93522l-10.91287,22.08121z" fill="#8a4242"/></g><g data-paper-data="{&quot;index&quot;:null}"><path d="M387.78757,180.7989h25.88245l-12.87663,26.05471z" fill="#924646"/><path d="M390.01217,180.7989h23.65784l-11.76987,23.8153z" fill="#a44f4f"/><path d="M390.01217,180.79891h21.93522l-10.91287,22.0812z" fill="#8a4242"/></g><g data-paper-data="{&quot;index&quot;:null}"><path d="M305.82375,249.01252l12.87662,26.05471h-25.88245z" fill="#924646"/><path d="M306.9305,251.25194l11.76988,23.8153h-23.65785z" fill="#a44f4f"/><path d="M306.06489,252.98601l10.91286,22.08121h-21.93522z" fill="#8a4242"/></g><g data-paper-data="{&quot;index&quot;:null}"><path d="M325.80448,249.01252l12.87663,26.05471h-25.88245z" fill="#924646"/><path d="M326.91123,251.25193l11.76987,23.8153h-23.65783z" fill="#a44f4f"/><path d="M326.04563,252.98601l10.91286,22.0812h-21.93522z" fill="#8a4242"/></g><g data-paper-data="{&quot;index&quot;:null}"><path d="M220.69396,179.79289h25.88244l-12.87663,26.05471z" fill="#924646"/><path d="M222.91855,179.79289h23.65783l-11.76987,23.8153z" fill="#a44f4f"/><path d="M222.91856,179.79291h21.93522l-10.91286,22.0812z" fill="#8a4242"/></g><g data-paper-data="{&quot;index&quot;:null}"><path d="M240.67469,179.79289h25.88245l-12.87662,26.05471z" fill="#924646"/><path d="M242.89929,179.79288h23.65785l-11.76988,23.81529z" fill="#a44f4f"/><path d="M242.89931,179.79289h21.93522l-10.91287,22.08121z" fill="#8a4242"/></g><g data-paper-data="{&quot;index&quot;:null}"><path d="M347.93068,180.79891h25.88245l-12.87662,26.05471z" fill="#924646"/><path d="M350.15528,180.7989h23.65785l-11.76987,23.8153z" fill="#a44f4f"/><path d="M350.1553,180.79891h21.93522l-10.91287,22.08121z" fill="#8a4242"/></g></g></g></svg>