<svg version="1.1" xmlns="http://www.w3.org/2000/svg" xmlns:xlink="http://www.w3.org/1999/xlink" width="155.01201" height="67.0395" viewBox="0,0,155.01201,67.0395"><g transform="translate(-162.494,-146.48025)"><g data-paper-data="{&quot;isPaintingLayer&quot;:true}" fill-rule="nonzero" stroke-linejoin="miter" stroke-miterlimit="10" stroke-dasharray="" stroke-dashoffset="0" style="mix-blend-mode: normal"><path d="M162.494,205.39375c0,-14.42821 0,-43.73133 0,-51.46467c0,-3.66878 3.64948,-7.44883 7.94934,-7.44883c15.5113,0 108.45108,0 138.02934,0c5.68841,0 9.03333,3.97715 9.03333,7.78742c0,7.94447 0,37.7329 0,51.80325c0,4.54413 -3.20355,7.44883 -8.672,7.44883c-29.17464,0 -122.81565,0 -138.39067,0c-4.29986,0 -7.94934,-3.19392 -7.94934,-8.126z" fill="#ffffff" stroke="none" stroke-width="NaN" stroke-linecap="butt"/><path d="M182.0996,166.20934c0.01816,0.10534 0.02724,0.20523 0.02724,0.29968c0,0.09444 -0.02724,0.19797 -0.08173,0.31057c-0.05449,0.10897 -0.12532,0.18888 -0.2125,0.23974c-0.14893,0.13077 -0.3251,0.19615 -0.52852,0.19615c-0.38504,0 -0.64476,-0.17254 -0.77916,-0.51762l-0.71377,-1.75991h-3.93391l-0.69743,1.74901c-0.1126,0.35234 -0.34508,0.52852 -0.69742,0.52852c-0.34871,0 -0.61025,-0.1453 -0.7846,-0.43589c-0.05812,-0.1126 -0.08718,-0.21613 -0.08718,-0.31057c0,-0.09444 0.02361,-0.2016 0.07083,-0.32147l2.89867,-7.12137c0.25064,-0.62114 0.56666,-0.98439 0.94806,-1.08973c0.07991,-0.0109 0.18707,-0.02906 0.32147,-0.05449c0.30876,0 0.53941,0.07083 0.69198,0.2125c0.20342,0.15256 0.40138,0.46313 0.5939,0.93172zM176.40577,163.5504h2.88778l-1.44934,-3.63969zM182.38013,163.92091c0,-0.95896 0.27425,-1.75809 0.82274,-2.3974c0.60298,-0.70106 1.38759,-1.05159 2.35381,-1.05159c0.81366,0 1.44389,0.17617 1.89067,0.52852c0.19252,0.13803 0.28878,0.31057 0.28878,0.51762c0,0.20342 -0.05993,0.36869 -0.1798,0.49583c-0.11624,0.12714 -0.25427,0.1907 -0.4141,0.1907c-0.15983,0 -0.28151,-0.03269 -0.36506,-0.09807c-0.35234,-0.19978 -0.7283,-0.29604 -1.12787,-0.28878c-0.49038,0 -0.87541,0.18344 -1.15511,0.55031c-0.33055,0.39957 -0.49583,0.91719 -0.49583,1.55286c0,0.59572 0.11987,1.09518 0.35961,1.49838c0.26153,0.42136 0.69198,0.63204 1.29133,0.63204c0.34145,0 0.76644,-0.12169 1.27498,-0.36506c0.2797,-0.16346 0.52489,-0.1235 0.73557,0.11987c0.11624,0.11624 0.17436,0.27425 0.17436,0.47403c0,0.19615 -0.09444,0.37051 -0.28333,0.52307c-0.18889,0.15256 -0.39593,0.26516 -0.62114,0.33781c-0.49764,0.17072 -0.9862,0.25427 -1.46568,0.25064c-0.47585,-0.00363 -0.90992,-0.09444 -1.30222,-0.27243c-0.3923,-0.18162 -0.71922,-0.44497 -0.98076,-0.79005c-0.53397,-0.63931 -0.80095,-1.44207 -0.80095,-2.4083zM192.92725,163.02189c0,-0.41046 -0.10897,-0.72648 -0.32692,-0.94806c-0.18889,-0.17799 -0.41954,-0.26699 -0.69197,-0.26699c-0.2688,0 -0.49764,0.03088 -0.68653,0.09263c-0.18889,0.06175 -0.35416,0.16346 -0.49583,0.30512c-0.30512,0.28696 -0.45769,0.70469 -0.45769,1.25319v3.06213c0,0.25064 -0.08718,0.43589 -0.26154,0.55576c-0.17072,0.11987 -0.35053,0.1798 -0.53941,0.1798c-0.20342,0 -0.37777,-0.0672 -0.52307,-0.2016c-0.14166,-0.1344 -0.2125,-0.31239 -0.2125,-0.53397v-7.82424c0,-0.25064 0.08536,-0.43589 0.25609,-0.55576c0.17072,-0.1235 0.34145,-0.18525 0.51217,-0.18525c0.18889,0 0.36324,0.05994 0.52307,0.17981c0.16346,0.11624 0.24519,0.30331 0.24519,0.56121l-0.17436,2.61534c-0.07991,-0.10897 0.11624,-0.28151 0.58845,-0.51762c0.4141,-0.21431 0.82456,-0.32147 1.23139,-0.32147c0.41046,0 0.75918,0.05086 1.04614,0.15256c0.28696,0.10171 0.55394,0.25063 0.80095,0.44679c0.49401,0.46858 0.74101,1.14058 0.74101,2.016v3.43264c0,0.25064 -0.09081,0.43589 -0.27243,0.55576c-0.17799,0.11987 -0.35416,0.1798 -0.52852,0.1798c-0.19978,0 -0.37959,-0.06538 -0.53941,-0.19615c-0.15619,-0.13077 -0.23429,-0.31057 -0.23429,-0.53941zM197.52949,158.75561c0,0.2579 -0.089,0.46677 -0.26699,0.62659c-0.17436,0.15983 -0.40501,0.23974 -0.69197,0.23974c-0.28696,0 -0.51944,-0.0781 -0.69742,-0.23429c-0.17799,-0.15983 -0.26699,-0.37051 -0.26699,-0.63204c0,-0.23248 0.089,-0.42863 0.26699,-0.58845c0.17799,-0.16346 0.41409,-0.24519 0.70832,-0.24519c0.29423,0 0.52489,0.08173 0.69198,0.24519c0.17072,0.16346 0.25609,0.35961 0.25609,0.58845zM195.80227,161.3873c0,-0.247 0.08173,-0.44134 0.24519,-0.583c0.16709,-0.1453 0.32328,-0.21795 0.46858,-0.21795c0.1453,0 0.26154,0.02179 0.34872,0.06538c0.08718,0.04359 0.16164,0.09444 0.22339,0.15256c0.18889,0.1235 0.28333,0.31784 0.28333,0.583v5.09992c0,0.2579 -0.08536,0.45042 -0.25608,0.57755c-0.17072,0.12714 -0.35234,0.1907 -0.54486,0.1907c-0.19615,0 -0.37414,-0.06538 -0.53397,-0.19615c-0.15619,-0.13077 -0.23429,-0.32147 -0.23429,-0.57211zM204.68167,163.74111c0,0.4032 -0.21976,0.62296 -0.65928,0.65929h-4.10827c0.03269,0.76281 0.39412,1.28225 1.08428,1.55831c0.18525,0.06175 0.40865,0.09263 0.67018,0.09263c0.5376,0 1.09517,-0.20342 1.67273,-0.61025c0.32329,-0.18525 0.6048,-0.16165 0.84454,0.07083c0.14166,0.15256 0.18889,0.30149 0.14166,0.44679c0,0.20342 -0.0672,0.36506 -0.2016,0.48493c-0.63931,0.63567 -1.48021,0.94988 -2.52272,0.94262c-0.95896,0 -1.73266,-0.31239 -2.32112,-0.93717c-0.65383,-0.64294 -0.98076,-1.48566 -0.98076,-2.52817c0,-0.95533 0.26699,-1.74901 0.80095,-2.38105c0.57392,-0.71195 1.37487,-1.06793 2.40285,-1.06793c1.02797,0 1.81802,0.31602 2.37015,0.94806c0.5158,0.56303 0.7846,1.33673 0.8064,2.32112zM203.14515,163.169c-0.01816,-0.30512 -0.17435,-0.61933 -0.46858,-0.94262c-0.26517,-0.2797 -0.65565,-0.41955 -1.17145,-0.41955c-0.42862,0 -0.7955,0.15983 -1.10062,0.47948c-0.28333,0.33055 -0.43407,0.62478 -0.45224,0.88268zM209.24858,166.3401c-0.12714,0.29423 -0.27425,0.52125 -0.44134,0.68108c-0.16346,0.15619 -0.39412,0.23429 -0.69197,0.23429c-0.30149,0 -0.5376,-0.07628 -0.70832,-0.22884c-0.16709,-0.15619 -0.29968,-0.38867 -0.39775,-0.69742l-1.9942,-4.68583c-0.17436,-0.31965 -0.09807,-0.59935 0.22884,-0.83909c0.14166,-0.10897 0.29786,-0.18162 0.46858,-0.21795c0.39957,0 0.6502,0.18344 0.75191,0.55031l1.64549,3.94481l1.591,-3.95571c0.11624,-0.32329 0.33963,-0.50309 0.67018,-0.53941c0.33418,0 0.583,0.13622 0.74646,0.40865c0.08355,0.12714 0.11442,0.24156 0.09263,0.34326c-0.01816,0.10171 -0.03996,0.19434 -0.06538,0.27788zM217.87666,163.74111c0,0.4032 -0.21976,0.62296 -0.65928,0.65929h-4.10827c0.03269,0.76281 0.39412,1.28225 1.08428,1.55831c0.18525,0.06175 0.40865,0.09263 0.67018,0.09263c0.5376,0 1.09518,-0.20342 1.67273,-0.61025c0.32329,-0.18525 0.6048,-0.16165 0.84454,0.07083c0.14166,0.15256 0.18889,0.30149 0.14166,0.44679c0,0.20342 -0.0672,0.36506 -0.2016,0.48493c-0.63931,0.63567 -1.48021,0.94988 -2.52272,0.94262c-0.95896,0 -1.73266,-0.31239 -2.32111,-0.93717c-0.65383,-0.64294 -0.98076,-1.48566 -0.98076,-2.52817c0,-0.95533 0.26698,-1.74901 0.80095,-2.38105c0.57392,-0.71195 1.37487,-1.06793 2.40285,-1.06793c1.02797,0 1.81803,0.31602 2.37016,0.94806c0.5158,0.56303 0.7846,1.33673 0.8064,2.32112zM216.34015,163.169c-0.01816,-0.30512 -0.17435,-0.61933 -0.46858,-0.94262c-0.26517,-0.2797 -0.65565,-0.41955 -1.17146,-0.41955c-0.42862,0 -0.7955,0.15983 -1.10062,0.47948c-0.28333,0.33055 -0.43407,0.62478 -0.45224,0.88268zM224.13265,161.64338c0.38141,-0.78097 1.10789,-1.17145 2.17945,-1.17145c1.12242,0 1.87433,0.47948 2.25573,1.43844c0.13077,0.34145 0.19615,0.73375 0.19615,1.17691v3.43264c0,0.247 -0.08354,0.43226 -0.25063,0.55576c-0.16709,0.11987 -0.33963,0.1798 -0.51762,0.1798c-0.19615,0 -0.37777,-0.06357 -0.54486,-0.1907c-0.16346,-0.13077 -0.24519,-0.31239 -0.24519,-0.54486v-3.49802c0,-0.41046 -0.10898,-0.72648 -0.32692,-0.94806c-0.19615,-0.17799 -0.46132,-0.26699 -0.7955,-0.26699c-0.6829,0 -1.14603,0.27425 -1.3894,0.82275c-0.09807,0.21068 -0.14711,0.4704 -0.14711,0.77915v3.11117c0,0.247 -0.08355,0.43226 -0.25064,0.55576c-0.16709,0.11987 -0.33963,0.1798 -0.51762,0.1798c-0.19978,0 -0.38141,-0.06538 -0.54486,-0.19615c-0.15983,-0.13077 -0.23974,-0.31057 -0.23974,-0.53941v-3.49802c0,-0.4141 -0.10534,-0.73012 -0.31602,-0.94806c-0.19615,-0.17799 -0.43407,-0.26699 -0.71377,-0.26699c-0.27606,0 -0.50309,0.03088 -0.68108,0.09263c-0.17799,0.06175 -0.33782,0.16164 -0.47948,0.29968c-0.28696,0.29059 -0.43952,0.7065 -0.45769,1.24773v3.07303c0,0.25064 -0.08718,0.43589 -0.26153,0.55576c-0.17072,0.11987 -0.3469,0.1798 -0.52852,0.1798c-0.17799,0 -0.35234,-0.06357 -0.52307,-0.1907c-0.17072,-0.12714 -0.25608,-0.30876 -0.25608,-0.54486v-5.18165c0,-0.23248 0.08355,-0.41591 0.25064,-0.55031c0.17072,-0.1344 0.33236,-0.2016 0.48493,-0.2016c0.15256,0 0.2688,0.01998 0.34871,0.05993c0.07991,0.03996 0.15075,0.07992 0.2125,0.11987c0.18162,0.15256 0.27243,0.33782 0.27243,0.55576h-0.17436c-0.07991,-0.11624 0.10897,-0.29241 0.56666,-0.52852c0.3923,-0.21431 0.84999,-0.32147 1.37306,-0.32147c0.8173,0 1.44934,0.26698 1.89612,0.80095c0.1453,0.19615 0.18707,0.31965 0.12532,0.37051zM236.05786,163.74111c0,0.4032 -0.21976,0.62296 -0.65928,0.65929h-4.10827c0.03269,0.76281 0.39412,1.28225 1.08428,1.55831c0.18525,0.06175 0.40865,0.09263 0.67018,0.09263c0.5376,0 1.09518,-0.20342 1.67273,-0.61025c0.32329,-0.18525 0.6048,-0.16165 0.84454,0.07083c0.14166,0.15256 0.18889,0.30149 0.14166,0.44679c0,0.20342 -0.0672,0.36506 -0.2016,0.48493c-0.63931,0.63567 -1.48021,0.94988 -2.52272,0.94262c-0.95896,0 -1.73266,-0.31239 -2.32112,-0.93717c-0.65383,-0.64294 -0.98076,-1.48566 -0.98076,-2.52817c0,-0.95533 0.26698,-1.74901 0.80095,-2.38105c0.57392,-0.71195 1.37487,-1.06793 2.40285,-1.06793c1.02797,0 1.81803,0.31602 2.37016,0.94806c0.5158,0.56303 0.7846,1.33673 0.8064,2.32112zM234.52134,163.169c-0.01816,-0.30512 -0.17435,-0.61933 -0.46858,-0.94262c-0.26517,-0.2797 -0.65565,-0.41955 -1.17146,-0.41955c-0.42862,0 -0.7955,0.15983 -1.10062,0.47948c-0.28333,0.33055 -0.43408,0.62478 -0.45224,0.88268zM236.99053,161.33826c0,-0.22884 0.08355,-0.41047 0.25064,-0.54486c0.16709,-0.13803 0.33963,-0.20705 0.51762,-0.20705c0.35961,0 0.58663,0.12714 0.68108,0.38141c0.09444,0.25427 0.02724,0.56484 -0.2016,0.93172c-0.02543,-0.45405 0.20705,-0.81548 0.69742,-1.08428c0.41773,-0.22884 0.83001,-0.34326 1.23684,-0.34326c0.41046,0 0.76099,0.05267 1.05159,0.15801c0.29059,0.10171 0.55758,0.26154 0.80095,0.47948c0.49038,0.46495 0.73557,1.13513 0.73557,2.01055v3.39995c0,0.25064 -0.09081,0.43589 -0.27243,0.55576c-0.17799,0.11987 -0.35416,0.1798 -0.52852,0.1798c-0.19978,0 -0.37959,-0.06538 -0.53941,-0.19615c-0.15619,-0.13077 -0.23429,-0.31057 -0.23429,-0.53941v-3.46533c0,-0.42136 -0.10898,-0.73738 -0.32692,-0.94806c-0.20342,-0.19978 -0.45769,-0.29968 -0.76281,-0.29968c-0.44316,0 -0.81911,0.12532 -1.12787,0.37596c-0.29423,0.26153 -0.44134,0.68108 -0.44134,1.25864v3.07848c0,0.25064 -0.08718,0.43589 -0.26153,0.55576c-0.17072,0.11987 -0.35053,0.1798 -0.53941,0.1798c-0.20342,0 -0.37777,-0.0672 -0.52307,-0.2016c-0.14166,-0.1344 -0.2125,-0.31239 -0.2125,-0.53397zM247.84235,166.61254c0,0.5158 -0.47585,0.77371 -1.42754,0.77371c-0.6611,0 -1.13876,-0.19434 -1.43299,-0.583c-0.29059,-0.37777 -0.4486,-0.97894 -0.47403,-1.8035v-3.08393h-0.41955c-0.21068,0 -0.3814,-0.06901 -0.51217,-0.20705c-0.12714,-0.13803 -0.1907,-0.28878 -0.1907,-0.45224c0,-0.14893 0.05449,-0.29786 0.16346,-0.44679c0.1126,-0.14893 0.29241,-0.2234 0.53941,-0.2234h0.49583l0.04904,-1.47113c0.03632,-0.21794 0.13077,-0.38322 0.28333,-0.49583c0.15619,-0.1126 0.32147,-0.16891 0.49583,-0.16891c0.17436,0 0.32874,0.05994 0.46313,0.17981c0.1344,0.11624 0.2016,0.28696 0.2016,0.51217v1.44389h0.81729c0.22158,0 0.3923,0.07447 0.51217,0.2234c0.11987,0.1453 0.1798,0.29422 0.1798,0.44679c0,0.18889 -0.06357,0.3469 -0.1907,0.47403c-0.1235,0.1235 -0.29059,0.18525 -0.50127,0.18525h-0.81729v2.54996c0,0.75918 0.01816,1.19688 0.05449,1.31312c0.03996,0.1126 0.09081,0.18707 0.15256,0.22339c0.06175,0.03269 0.15074,0.04904 0.26698,0.04904l0.62114,-0.04904c0.21794,0 0.38322,0.06901 0.49583,0.20705c0.11624,0.13803 0.17436,0.27243 0.17436,0.4032zM257.35048,166.51991c0,0.25064 -0.09081,0.43589 -0.27243,0.55576c-0.17799,0.11987 -0.32873,0.1798 -0.45224,0.1798c-0.11987,0 -0.23248,-0.01271 -0.33782,-0.03814c-0.10534,-0.02906 -0.1907,-0.08355 -0.25608,-0.16346c-0.17072,-0.11624 -0.25609,-0.29423 -0.25609,-0.53397h0.16891c-0.03996,0.36324 -0.44679,0.62296 -1.22049,0.77916c-0.23248,0.05812 -0.48675,0.08718 -0.76281,0.08718c-0.27243,0 -0.56121,-0.04904 -0.86634,-0.14711c-0.30512,-0.10171 -0.56847,-0.26335 -0.79005,-0.48493c-0.48311,-0.45769 -0.72467,-1.13513 -0.72467,-2.03234v-3.36726c0,-0.23611 0.0781,-0.42318 0.23429,-0.56121c0.15619,-0.13803 0.33418,-0.20705 0.53397,-0.20705c0.19978,0 0.37778,0.06901 0.53397,0.20705c0.15619,0.13803 0.23429,0.3251 0.23429,0.56121v3.44899c0,0.49401 0.08718,0.82456 0.26154,0.99165c0.18162,0.17072 0.46858,0.25609 0.86088,0.25609c0.66837,0 1.12787,-0.26698 1.37851,-0.80095c0.09807,-0.18889 0.15074,-0.40502 0.15801,-0.64839v-3.24739c0,-0.24337 0.08355,-0.43226 0.25064,-0.56666c0.17072,-0.1344 0.35598,-0.2016 0.55576,-0.2016c0.19978,0 0.37777,0.06901 0.53397,0.20705c0.15619,0.13803 0.23429,0.3251 0.23429,0.56121zM258.65085,161.33826c0,-0.22884 0.08355,-0.41047 0.25064,-0.54486c0.16709,-0.13803 0.33963,-0.20705 0.51762,-0.20705c0.35961,0 0.58663,0.12714 0.68108,0.38141c0.09444,0.25427 0.02724,0.56484 -0.2016,0.93172c-0.02543,-0.45405 0.20704,-0.81548 0.6974,-1.08428c0.41773,-0.22884 0.83001,-0.34326 1.23684,-0.34326c0.41046,0 0.76099,0.05267 1.05159,0.15801c0.29059,0.10171 0.55758,0.26154 0.80095,0.47948c0.49038,0.46495 0.73557,1.13513 0.73557,2.01055v3.39995c0,0.25064 -0.09081,0.43589 -0.27243,0.55576c-0.17799,0.11987 -0.35416,0.1798 -0.52852,0.1798c-0.19978,0 -0.37959,-0.06538 -0.53941,-0.19615c-0.15619,-0.13077 -0.23429,-0.31057 -0.23429,-0.53941v-3.46533c0,-0.42136 -0.10898,-0.73738 -0.32692,-0.94806c-0.20342,-0.19978 -0.45769,-0.29968 -0.76281,-0.29968c-0.44316,0 -0.81911,0.12532 -1.12787,0.37596c-0.29421,0.26153 -0.44132,0.68108 -0.44132,1.25864v3.07848c0,0.25064 -0.08718,0.43589 -0.26154,0.55576c-0.17072,0.11987 -0.35053,0.1798 -0.53941,0.1798c-0.20342,0 -0.37777,-0.0672 -0.52307,-0.2016c-0.14166,-0.1344 -0.2125,-0.31239 -0.2125,-0.53397zM265.7213,158.72836c0,-0.27243 0.08536,-0.46858 0.25609,-0.58845c0.17072,-0.1235 0.31784,-0.18525 0.44134,-0.18525c0.12714,0 0.23611,0.00908 0.32692,0.02724c0.09444,0.01816 0.18162,0.0672 0.26153,0.14711c0.18889,0.11987 0.28333,0.31965 0.28333,0.59935v7.75886c0,0.2579 -0.08536,0.45042 -0.25609,0.57755c-0.17072,0.12714 -0.35234,0.1907 -0.54486,0.1907c-0.19615,0 -0.37414,-0.06538 -0.53397,-0.19615c-0.15619,-0.13077 -0.23429,-0.32147 -0.23429,-0.57211zM268.17132,163.93726c0,-0.4141 0.0672,-0.83001 0.2016,-1.24774c0.1344,-0.41773 0.33964,-0.7955 0.6157,-1.13331c0.59572,-0.72285 1.42936,-1.08428 2.50092,-1.08428c1.0752,0 1.90884,0.36324 2.50092,1.08973c0.54486,0.66837 0.8173,1.45479 0.8173,2.35926c0,0.91174 -0.27243,1.69816 -0.8173,2.35926c-0.59208,0.73738 -1.42573,1.10607 -2.50092,1.10607c-1.07156,0 -1.90521,-0.36688 -2.50092,-1.10062c-0.54486,-0.65383 -0.8173,-1.43662 -0.8173,-2.34836zM269.78956,163.93726c0,0.23248 0.03088,0.47766 0.09263,0.73557c0.06538,0.2579 0.17799,0.49583 0.33781,0.71377c0.30876,0.44316 0.73193,0.66473 1.26953,0.66473c0.57029,0 0.99165,-0.21613 1.26408,-0.64839c0.2797,-0.44316 0.41955,-0.93717 0.41955,-1.48203c0,-0.55939 -0.13803,-1.04069 -0.4141,-1.44389c-0.28696,-0.44679 -0.71014,-0.67018 -1.26953,-0.67018c-0.5376,0 -0.96078,0.22703 -1.26953,0.68108c-0.28696,0.38867 -0.43044,0.87178 -0.43044,1.44934zM275.27416,163.92091c0,-0.95896 0.27425,-1.75809 0.82275,-2.3974c0.60298,-0.70106 1.38758,-1.05159 2.35381,-1.05159c0.81366,0 1.44389,0.17617 1.89068,0.52852c0.19252,0.13803 0.28878,0.31057 0.28878,0.51762c0,0.20342 -0.05994,0.36869 -0.17981,0.49583c-0.11624,0.12714 -0.25427,0.1907 -0.4141,0.1907c-0.15983,0 -0.28151,-0.03269 -0.36506,-0.09807c-0.35234,-0.19978 -0.7283,-0.29604 -1.12787,-0.28878c-0.49038,0 -0.87541,0.18344 -1.15511,0.55031c-0.33055,0.39957 -0.49583,0.91719 -0.49583,1.55286c0,0.59572 0.11987,1.09518 0.35961,1.49838c0.26153,0.42136 0.69197,0.63204 1.29132,0.63204c0.34145,0 0.76644,-0.12169 1.27498,-0.36506c0.2797,-0.16346 0.52488,-0.1235 0.73556,0.11987c0.11624,0.11624 0.17436,0.27425 0.17436,0.47403c0,0.19615 -0.09444,0.37051 -0.28333,0.52307c-0.18889,0.15256 -0.39593,0.26516 -0.62114,0.33781c-0.49764,0.17072 -0.9862,0.25427 -1.46568,0.25064c-0.47585,-0.00363 -0.90992,-0.09444 -1.30222,-0.27243c-0.3923,-0.18162 -0.71922,-0.44497 -0.98075,-0.79005c-0.53397,-0.63931 -0.80095,-1.44207 -0.80095,-2.4083zM283.22774,164.41129v2.07593c0,0.25427 -0.08355,0.44679 -0.25064,0.57755c-0.16346,0.12714 -0.34145,0.1907 -0.53397,0.1907c-0.18889,0 -0.36324,-0.06538 -0.52307,-0.19615c-0.15619,-0.13077 -0.23429,-0.32147 -0.23429,-0.57211v-7.75886c0,-0.2688 0.07992,-0.46495 0.23974,-0.58845c0.15983,-0.1235 0.30875,-0.18525 0.44679,-0.18525c0.13803,0 0.25609,0.00908 0.35416,0.02724c0.10171,0.01816 0.19434,0.07265 0.27788,0.16346c0.14893,0.1235 0.22339,0.31784 0.22339,0.583v4.01019l2.28298,-1.91247c0.14166,-0.15983 0.31057,-0.23974 0.50672,-0.23974c0.19252,0 0.36324,0.07083 0.51217,0.2125c0.14893,0.13803 0.22339,0.28696 0.22339,0.44679c0,0.23611 -0.0781,0.41228 -0.23429,0.52852l-2.13042,1.7817l2.47913,2.50637c0.11624,0.11624 0.17436,0.25245 0.17436,0.40865c0,0.15619 -0.02542,0.27788 -0.07628,0.36506c-0.04722,0.08718 -0.11079,0.16346 -0.1907,0.22884c-0.15983,0.12714 -0.33055,0.1907 -0.51217,0.1907c-0.18162,0 -0.35416,-0.08173 -0.51762,-0.24519zM293.67973,163.74111c0,0.4032 -0.21976,0.62296 -0.65928,0.65929h-4.10827c0.03269,0.76281 0.39412,1.28225 1.08428,1.55831c0.18525,0.06175 0.40865,0.09263 0.67018,0.09263c0.5376,0 1.09518,-0.20342 1.67273,-0.61025c0.32329,-0.18525 0.6048,-0.16165 0.84454,0.07083c0.14166,0.15256 0.18889,0.30149 0.14166,0.44679c0,0.20342 -0.0672,0.36506 -0.2016,0.48493c-0.63931,0.63567 -1.48021,0.94988 -2.52272,0.94262c-0.95896,0 -1.73266,-0.31239 -2.32112,-0.93717c-0.65383,-0.64294 -0.98076,-1.48566 -0.98076,-2.52817c0,-0.95533 0.26698,-1.74901 0.80095,-2.38105c0.57392,-0.71195 1.37487,-1.06793 2.40285,-1.06793c1.02797,0 1.81803,0.31602 2.37016,0.94806c0.5158,0.56303 0.7846,1.33673 0.8064,2.32112zM292.14322,163.169c-0.01816,-0.30512 -0.17435,-0.61933 -0.46858,-0.94262c-0.26517,-0.2797 -0.65565,-0.41955 -1.17146,-0.41955c-0.42862,0 -0.7955,0.15983 -1.10062,0.47948c-0.28333,0.33055 -0.43407,0.62478 -0.45224,0.88268zM299.04758,166.51991c-0.31239,0.57755 -0.97894,0.86634 -1.99965,0.86634c-0.93353,0 -1.66546,-0.37414 -2.1958,-1.12242c-0.43952,-0.6502 -0.65929,-1.43118 -0.65929,-2.34292c0,-1.54741 0.5267,-2.59537 1.5801,-3.14386c0.35961,-0.20342 0.71922,-0.30512 1.07883,-0.30512c0.36324,0 0.66292,0.02179 0.89903,0.06538c0.23611,0.03996 0.46313,0.11987 0.68108,0.23974c0.45042,0.22521 0.65747,0.38141 0.62114,0.46858l-0.11442,-2.54996c0,-0.26153 0.08718,-0.45042 0.26154,-0.56666c0.17436,-0.11624 0.35416,-0.17436 0.53941,-0.17436c0.19615,0 0.37232,0.05994 0.52852,0.17981c0.15983,0.11624 0.23974,0.30331 0.23974,0.56121v7.82424c0,0.247 -0.08536,0.43226 -0.25609,0.55576c-0.17072,0.11987 -0.32147,0.1798 -0.45224,0.1798c-0.12714,0 -0.23974,-0.01271 -0.33782,-0.03814c-0.09807,-0.02906 -0.18525,-0.08173 -0.26153,-0.15801c-0.17436,-0.11987 -0.26154,-0.29968 -0.26154,-0.53941zM297.23864,166.05133c1.11152,0 1.66728,-0.74283 1.66728,-2.22849c0,-0.95896 -0.27243,-1.57828 -0.8173,-1.85798c-0.20705,-0.10534 -0.45768,-0.15801 -0.75191,-0.15801c-0.29059,0 -0.52852,0.05449 -0.71377,0.16346c-0.18162,0.10534 -0.33418,0.25245 -0.45769,0.44134c-0.23611,0.37051 -0.35416,0.84635 -0.35416,1.42754c0,0.87178 0.19797,1.50564 0.5939,1.90158c0.19978,0.20705 0.47766,0.31057 0.83364,0.31057zM301.85692,161.43633c0,-0.39593 0.18707,-0.67381 0.56121,-0.83364c0.10897,-0.03269 0.23974,-0.04904 0.3923,-0.04904c0.15256,0 0.28333,0.02361 0.3923,0.07083c0.10897,0.04722 0.20705,0.1126 0.29423,0.19615c0.18525,0.17436 0.2688,0.38322 0.25064,0.62659c0,0.37777 -0.18162,0.63931 -0.54486,0.7846c-0.10534,0.04359 -0.23066,0.07083 -0.37596,0.08173c-0.1453,0.00727 -0.27243,-0.0109 -0.3814,-0.05449c-0.10897,-0.04722 -0.21431,-0.10352 -0.31602,-0.16891c-0.18162,-0.19978 -0.27243,-0.41773 -0.27243,-0.65384zM301.91685,166.71061c-0.03996,-0.11624 -0.05993,-0.22884 -0.05993,-0.33781c0,-0.10897 0.01998,-0.21795 0.05993,-0.32692c0.04359,-0.10897 0.11079,-0.20523 0.2016,-0.28878c0.09444,-0.08355 0.19797,-0.14893 0.31057,-0.19615c0.11624,-0.04722 0.247,-0.07083 0.3923,-0.07083c0.1453,0 0.27243,0.02361 0.38141,0.07083c0.10897,0.04722 0.20705,0.11442 0.29423,0.2016c0.09081,0.08718 0.15438,0.18525 0.1907,0.29423c0.03996,0.10534 0.05993,0.21249 0.05993,0.32147c0,0.10534 -0.01998,0.21432 -0.05993,0.32692c-0.03632,0.1126 -0.09989,0.20886 -0.1907,0.28878c-0.09081,0.07991 -0.1907,0.14348 -0.29968,0.1907c-0.10534,0.04722 -0.23066,0.07083 -0.37596,0.07083c-0.1453,0 -0.27425,-0.02179 -0.38685,-0.06538c-0.1126,-0.04722 -0.21613,-0.10897 -0.31057,-0.18525c-0.09444,-0.07991 -0.16346,-0.17799 -0.20705,-0.29423z" fill="#000000" stroke="none" stroke-width="1" stroke-linecap="square"/><path d="M193.0472,183.24173c-0.28855,0 -0.556,0.02814 -0.80233,0.08445c-0.24633,0.05631 -0.49971,0.13373 -0.76011,0.23226c-0.4434,0.13373 -0.85863,0.31319 -1.24573,0.53841c-0.3871,0.21819 -0.74955,0.32727 -1.08738,0.32727c-0.33079,0 -0.62287,-0.12668 -0.87623,-0.38006c-0.25338,-0.25337 -0.38006,-0.54545 -0.38006,-0.87624c0,-0.33782 0.10206,-0.62286 0.30615,-0.85512c0.21114,-0.23928 0.45395,-0.45042 0.72844,-0.63341c0.28152,-0.19002 0.59471,-0.36246 0.93958,-0.51729c0.34487,-0.16188 0.71435,-0.28857 1.10848,-0.38005c0.82345,-0.2604 1.57299,-0.39061 2.24865,-0.39061c0.67566,0 1.34779,0.09149 2.0164,0.27448c0.67566,0.18299 1.2774,0.48211 1.80525,0.89735c1.14015,0.85864 1.71024,1.97769 1.71024,3.35713c0,2.24513 -1.66098,4.98996 -4.98292,8.23449c-0.61935,0.59824 -1.25628,1.23517 -1.91083,1.91083c-0.65454,0.67566 -1.03458,0.96773 -1.14015,0.87624l6.6087,-0.21114c0.47154,0 0.82698,0.15484 1.06626,0.46451c0.23928,0.30967 0.35894,0.6475 0.35894,1.01347c0,0.35894 -0.12316,0.67916 -0.36949,0.96068c-0.24633,0.28153 -0.59824,0.42228 -1.05571,0.42228h-8.60399c-0.64046,0 -1.13664,-0.15483 -1.48854,-0.46451c-0.3519,-0.30967 -0.52785,-0.68269 -0.52785,-1.11905c0,-0.72492 0.25338,-1.31963 0.76011,-1.78414c0.51378,-0.46452 1.06978,-1.00644 1.66802,-1.62579c0.59824,-0.61934 1.18591,-1.21757 1.76303,-1.79469c0.58415,-0.58415 1.15775,-1.18944 1.7208,-1.81582c0.56304,-0.62639 1.04866,-1.23869 1.45687,-1.83693c0.92199,-1.28092 1.38297,-2.2944 1.38297,-3.04043c0,-0.57712 -0.23577,-1.02754 -0.70732,-1.3513c-0.43635,-0.34486 -1.00644,-0.5173 -1.71024,-0.5173zM206.80756,183.18894c-1.23165,0 -2.0903,0.68621 -2.57592,2.05863c-0.25338,0.84457 -0.40468,1.65393 -0.45395,2.42811c-0.04926,0.76714 -0.07389,1.41817 -0.07389,1.95306c0,0.53489 0.02112,1.04514 0.06334,1.53078c0.04222,0.47859 0.09501,0.96068 0.15835,1.44631c0.07038,0.48563 0.17242,0.93958 0.30615,1.36186c0.14077,0.41525 0.34134,0.78826 0.60176,1.11905c0.47154,0.65453 1.12608,0.97477 1.9636,0.9607c1.851,0 2.868,-1.62931 3.05099,-4.88791c0.04222,-0.47859 0.05279,-0.98884 0.03167,-1.53077c-0.02112,-0.54193 -0.0352,-1.05219 -0.04223,-1.53078c-0.00705,-0.48563 -0.05631,-0.96422 -0.1478,-1.43577c-0.08446,-0.47859 -0.20409,-0.93606 -0.35893,-1.37241c-0.1478,-0.43635 -0.34839,-0.81993 -0.60176,-1.15072c-0.45747,-0.63342 -1.09794,-0.95013 -1.92138,-0.95013zM206.80756,198.84503c-4.26504,0 -6.39756,-3.04746 -6.39756,-9.1424c0,-1.78766 0.11965,-3.14951 0.35893,-4.08557c0.23928,-0.93606 0.52081,-1.69616 0.84457,-2.28032c0.33079,-0.58415 0.73547,-1.10497 1.21406,-1.56244c1.04163,-0.92199 2.3683,-1.38298 3.98001,-1.38298c4.24392,0 6.36589,3.10377 6.36589,9.31131c0,3.7372 -0.80586,6.31312 -2.41757,7.72776c-1.03459,0.9431 -2.3507,1.41464 -3.94834,1.41464zM225.19664,196.04742c1.7032,0 2.5724,-1.14015 2.60759,-3.42049v-10.55704c0,-0.78826 0.35541,-1.27388 1.06626,-1.45686c0.1126,-0.02112 0.24633,-0.0563 0.40116,-0.10557c0.76011,0 1.28797,0.28856 1.58357,0.86568c0.10557,0.20409 0.15835,0.43635 0.15835,0.69677v10.74707c0,1.99176 -0.60879,3.52605 -1.82637,4.60287c-0.9994,0.95013 -2.32959,1.4252 -3.99056,1.4252c-1.74543,0 -3.15656,-0.65102 -4.23338,-1.95306c-0.34487,-0.47154 -0.58415,-0.90087 -0.71787,-1.28796c-0.13373,-0.3871 -0.20058,-0.74252 -0.20058,-1.06626c0,-0.32375 0.14428,-0.61232 0.43283,-0.86568c0.29559,-0.2604 0.60527,-0.3906 0.92901,-0.3906c0.58415,0 1.03459,0.2604 1.3513,0.78121c0.4434,1.32315 1.25628,1.98472 2.43867,1.98472zM244.92608,197.16647c0,0.48563 -0.17595,0.84457 -0.52785,1.07683c-0.34487,0.23226 -0.63694,0.34839 -0.87624,0.34839c-0.23226,0 -0.45042,-0.02463 -0.65453,-0.07389c-0.20409,-0.05631 -0.36951,-0.16188 -0.49619,-0.31672c-0.33079,-0.22521 -0.49619,-0.57007 -0.49619,-1.03459h0.32727c-0.07741,0.7038 -0.86569,1.20702 -2.36478,1.50966c-0.45042,0.1126 -0.9431,0.16891 -1.47798,0.16891c-0.52785,0 -1.08738,-0.09501 -1.67857,-0.28504c-0.5912,-0.19707 -1.10145,-0.51026 -1.53078,-0.93958c-0.93606,-0.88679 -1.40408,-2.19939 -1.40408,-3.93778v-6.52425c0,-0.45747 0.15131,-0.81993 0.45395,-1.08738c0.30264,-0.26745 0.64749,-0.40116 1.03459,-0.40116c0.3871,0 0.73195,0.13372 1.03459,0.40116c0.30264,0.26745 0.45395,0.62991 0.45395,1.08738v6.6826c0,0.95717 0.16892,1.59762 0.50674,1.92138c0.3519,0.33079 0.90791,0.49618 1.66802,0.49618c1.29499,0 2.18531,-0.51729 2.67093,-1.55188c0.19002,-0.36598 0.29208,-0.78474 0.30615,-1.25628v-6.29201c0,-0.47154 0.16188,-0.83752 0.48564,-1.09793c0.33079,-0.2604 0.68973,-0.3906 1.07682,-0.3906c0.3871,0 0.73195,0.13372 1.03459,0.40116c0.30264,0.26745 0.45395,0.6299 0.45395,1.08737zM257.75983,187.71791c0.73899,-1.51318 2.14659,-2.26977 4.22282,-2.26977c2.17476,0 3.63164,0.92902 4.37063,2.78706c0.25338,0.66158 0.38005,1.42169 0.38005,2.28032v6.65094c0,0.47859 -0.16187,0.83753 -0.48561,1.07683c-0.32374,0.23226 -0.65805,0.34839 -1.00292,0.34839c-0.38006,0 -0.73197,-0.12318 -1.05571,-0.36951c-0.31671,-0.25338 -0.47506,-0.60527 -0.47506,-1.05571v-6.77762c0,-0.79529 -0.21114,-1.4076 -0.63342,-1.83692c-0.38007,-0.34486 -0.89384,-0.5173 -1.54135,-0.5173c-1.32315,0 -2.2205,0.53137 -2.69205,1.59412c-0.19002,0.4082 -0.28503,0.91142 -0.28503,1.50966v6.02807c0,0.47859 -0.16187,0.83753 -0.48563,1.07683c-0.32374,0.23226 -0.65805,0.34839 -1.00292,0.34839c-0.3871,0 -0.739,-0.12668 -1.05571,-0.38005c-0.30967,-0.25338 -0.46452,-0.60177 -0.46452,-1.04515v-6.77762c0,-0.80233 -0.20409,-1.41465 -0.61231,-1.83693c-0.38006,-0.34486 -0.84105,-0.5173 -1.38297,-0.5173c-0.53488,0 -0.97477,0.05984 -1.31964,0.17947c-0.34487,0.11965 -0.65454,0.31319 -0.92901,0.58064c-0.556,0.56305 -0.85161,1.3689 -0.8868,2.41757v5.95417c0,0.48563 -0.16891,0.84457 -0.50673,1.07683c-0.33079,0.23226 -0.67213,0.34839 -1.02402,0.34839c-0.34487,0 -0.68268,-0.12317 -1.01347,-0.3695c-0.33079,-0.24633 -0.49618,-0.59824 -0.49618,-1.05571v-10.03974c0,-0.45042 0.16188,-0.80586 0.48562,-1.06626c0.33079,-0.2604 0.64399,-0.39061 0.93958,-0.39061c0.29559,0 0.52081,0.0387 0.67565,0.11613c0.15484,0.07742 0.29208,0.15484 0.41172,0.23226c0.3519,0.29559 0.52786,0.65453 0.52786,1.07682h-0.33782c-0.15484,-0.22521 0.21114,-0.56656 1.09793,-1.02403c0.76011,-0.41525 1.6469,-0.62287 2.66037,-0.62287c1.58355,0 2.80818,0.5173 3.67385,1.55189c0.28152,0.38005 0.36246,0.61935 0.24281,0.71787zM272.08216,186.27159c0.18299,-0.54896 1.39353,-0.82345 3.63163,-0.82345c1.851,0 3.26916,0.71437 4.25449,2.14309c0.84457,1.25981 1.26684,2.7941 1.26684,4.60288c0,1.86507 -0.44692,3.39232 -1.34074,4.58175c-1.00644,1.39353 -2.41052,2.08326 -4.21225,2.06919c-1.52022,0 -2.76596,-0.46452 -3.73721,-1.39353c-0.33782,-0.28856 -0.42228,-0.52081 -0.25338,-0.69677l0.34839,4.90903c0,0.4997 -0.16539,0.86919 -0.49618,1.10849c-0.33079,0.23929 -0.66156,0.35894 -0.99235,0.35894c-0.38006,0 -0.73547,-0.1302 -1.06626,-0.39061c-0.32374,-0.2604 -0.48564,-0.61935 -0.48564,-1.07682v-14.53704c0,-0.49266 0.15485,-0.85864 0.46452,-1.09793c0.30967,-0.23928 0.7038,-0.35894 1.18239,-0.35894c1.0909,0 1.56949,0.20058 1.43577,0.60174zM272.69448,189.17478c-0.24633,0.33782 -0.41876,0.77066 -0.51729,1.29851c-0.09149,0.52081 -0.13725,1.07683 -0.13725,1.66802c0,0.58415 0.06686,1.12608 0.20059,1.62579c0.13373,0.49266 0.32727,0.9431 0.58064,1.3513c0.54193,0.78122 1.34074,1.16127 2.39645,1.14015c0.99237,0 1.74192,-0.4082 2.24865,-1.22461c0.42228,-0.71084 0.63341,-1.67857 0.63341,-2.90318c0,-1.87916 -0.50321,-3.1284 -1.50965,-3.74776c-0.34487,-0.21819 -0.81641,-0.33079 -1.41465,-0.33782c-0.5912,-0.00705 -1.0909,0.09501 -1.4991,0.30615c-0.40821,0.20409 -0.73548,0.47858 -0.98181,0.82345zM287.70236,188.03462c-1.41465,0 -2.10789,0.37654 -2.07973,1.1296c0,0.4434 0.38005,0.76714 1.14015,0.97125c0.34487,0.09149 0.71787,0.17947 1.11905,0.26393c0.40118,0.08446 0.84456,0.18651 1.33018,0.30615c0.49266,0.11261 0.99236,0.26745 1.49911,0.46452c0.80234,0.23226 1.43224,0.64047 1.88971,1.22462c0.45747,0.58415 0.68621,1.28444 0.68621,2.10085c0,1.44279 -0.61232,2.55832 -1.83693,3.34658c-1.04163,0.68268 -2.34366,1.01699 -3.90611,1.00292c-1.14015,0 -2.26272,-0.20058 -3.3677,-0.60174c-0.48563,-0.19002 -0.89734,-0.43988 -1.23517,-0.74956c-0.33079,-0.30967 -0.49619,-0.65102 -0.49619,-1.02402c0,-0.37301 0.12668,-0.67213 0.38006,-0.89735c0.25338,-0.22521 0.52785,-0.33782 0.82345,-0.33782c0.29559,0 0.5736,0.05983 0.834,0.17947c0.26745,0.1126 0.58064,0.22873 0.93958,0.34838c0.90087,0.33079 1.61523,0.49618 2.14308,0.49618c0.52785,0 0.94309,-0.02815 1.24573,-0.08446c0.30967,-0.06334 0.57712,-0.16187 0.80234,-0.2956c0.4434,-0.29559 0.66508,-0.67565 0.66508,-1.14015c0,-0.30967 -0.10206,-0.55248 -0.30615,-0.72844c-0.20409,-0.17594 -0.52081,-0.32727 -0.95013,-0.45395c-0.42228,-0.13372 -0.85864,-0.24985 -1.30907,-0.34839c-0.4434,-0.10556 -0.90087,-0.21113 -1.37241,-0.3167c-0.46452,-0.10556 -0.9255,-0.23578 -1.38297,-0.39061c-0.45042,-0.16188 -0.84457,-0.3871 -1.18239,-0.67565c-0.84457,-0.59119 -1.26684,-1.44279 -1.26684,-2.5548c0,-1.3865 0.58415,-2.3859 1.75247,-2.9982c0.87975,-0.54896 2.03751,-0.82345 3.47326,-0.82345c1.42872,0 2.58999,0.21818 3.48383,0.65453c0.88679,0.45747 1.33019,1.017 1.33019,1.67857c0,0.35191 -0.1302,0.62638 -0.39061,0.82345c-0.25338,0.19707 -0.52785,0.2956 -0.82345,0.2956c-0.42228,0 -0.73197,-0.06334 -0.92901,-0.19002c-0.19707,-0.13372 -0.37302,-0.24281 -0.52786,-0.32727c-0.1478,-0.08446 -0.32022,-0.14428 -0.51728,-0.17947c-0.42932,-0.11261 -0.9818,-0.16891 -1.65746,-0.16891z" fill="#000000" stroke="#373737" stroke-width="0" stroke-linecap="square"/></g></g></svg>