<svg version="1.1" xmlns="http://www.w3.org/2000/svg" xmlns:xlink="http://www.w3.org/1999/xlink" width="156.53476" height="96.02534" viewBox="0,0,156.53476,96.02534"><g transform="translate(-130.78106,-131.98733)"><g data-paper-data="{&quot;isPaintingLayer&quot;:true}" fill="none" fill-rule="nonzero" stroke-linejoin="miter" stroke-miterlimit="10" stroke-dasharray="" stroke-dashoffset="0" style="mix-blend-mode: normal"><path d="M287.31582,180.00001c0,26.51666 -21.18402,48.01266 -47.31582,48.01266c-26.1318,0 -47.31582,-21.49601 -47.31582,-48.01267c0,-26.51667 21.18402,-48.01267 47.31582,-48.01267c26.1318,0 47.31582,21.49601 47.31582,48.01267z" stroke="none" stroke-width="0" stroke-linecap="butt"/><path d="M238.51258,179.2681l14.25765,0.05763" stroke="#d2b15d" stroke-width="5" stroke-linecap="round"/><path d="M245.8166,183.19503v-3.59152h0.26279v3.59152z" stroke="#d2b15d" stroke-width="3.5" stroke-linecap="butt"/><path d="M252.39337,184.8663v-3.59152h0.2628v3.59152z" stroke="#d2b15d" stroke-width="5" stroke-linecap="butt"/><path d="M227.22977,180c0,-2.91674 2.36448,-5.28122 5.28122,-5.28122c2.91674,0 5.28122,2.36448 5.28122,5.28122c0,2.91674 -2.36448,5.28122 -5.28122,5.28122c-2.91674,0 -5.28122,-2.36448 -5.28122,-5.28122z" stroke="#d2b15d" stroke-width="5" stroke-linecap="butt"/><path d="M276.11439,180.52323c0,15.09578 -16.86394,27.33333 -37.66667,27.33333c-20.80273,0 -37.66667,-12.23755 -37.66667,-27.33333c0,-15.09578 16.86394,-27.33333 37.66667,-27.33333c20.80273,0 37.66667,12.23755 37.66667,27.33333z" stroke="none" stroke-width="0" stroke-linecap="butt"/><ellipse cx="261.56212" cy="357.71312" transform="scale(0.5,0.5)" rx="0" ry="0" stroke="none" stroke-width="0" stroke-linecap="butt"/></g></g></svg>