<svg version="1.1" xmlns="http://www.w3.org/2000/svg" xmlns:xlink="http://www.w3.org/1999/xlink" width="111.11111" height="285.28529" viewBox="0,0,111.11111,285.28529"><g transform="translate(-81.3476,67.39115)"><g data-paper-data="{&quot;isPaintingLayer&quot;:true}" fill-rule="nonzero" stroke-linecap="butt" stroke-linejoin="miter" stroke-miterlimit="10" stroke-dasharray="" stroke-dashoffset="0" style="mix-blend-mode: normal"><path d="" fill="#c1c1c1" stroke="none" stroke-width="0"/><path d="" data-paper-data="{&quot;index&quot;:null}" fill="#d9d9d9" stroke="none" stroke-width="0"/><path d="" fill="#d9d9d9" stroke="#c1c1c1" stroke-width="2.5"/><g stroke="none" stroke-width="0"><path d="M154.32502,21.52868l-19.57146,9.6926l-0.01604,-19.44999z" fill="#924646"/><path d="M152.64285,22.36175l-17.88929,8.85951l-0.01466,-17.77825z" fill="#a44f4f"/><path d="M151.33919,21.71236l-16.58669,8.21442l-0.01359,-16.48375z" fill="#8a4242"/></g><g stroke="none" stroke-width="0"><path d="M154.3374,36.5437l-19.57146,9.69259l-0.01604,-19.44999z" fill="#924646"/><path d="M152.65522,37.37678l-17.88929,8.85951l-0.01466,-17.77826z" fill="#a44f4f"/><path d="M151.35157,36.72737l-16.5867,8.21442l-0.01359,-16.48375z" fill="#8a4242"/></g><g stroke="none" stroke-width="0"><path d="M154.34979,51.5587l-19.57146,9.6926l-0.01604,-19.44999z" fill="#924646"/><path d="M152.66761,52.39178l-17.88929,8.85951l-0.01466,-17.77825z" fill="#a44f4f"/><path d="M151.36396,51.74238l-16.58669,8.21442l-0.01359,-16.48375z" fill="#8a4242"/></g><g stroke="none" stroke-width="0"><path d="M154.32503,-25.01786l-19.57147,9.6926l-0.01604,-19.45z" fill="#924646"/><path d="M152.64285,-24.1848l-17.88929,8.85952l-0.01466,-17.77826z" fill="#a44f4f"/><path d="M151.33919,-24.83419l-16.58669,8.21442l-0.01359,-16.48375z" fill="#8a4242"/></g><g stroke="none" stroke-width="0"><path d="M154.3374,-10.00285l-19.57146,9.69259l-0.01604,-19.44999z" fill="#924646"/><path d="M152.65522,-9.16977l-17.88929,8.85951l-0.01466,-17.77826z" fill="#a44f4f"/><path d="M151.35158,-9.81918l-16.5867,8.21442l-0.01359,-16.48375z" fill="#8a4242"/></g><g stroke="none" stroke-width="0"><path d="M154.34979,5.01216l-19.57146,9.6926l-0.01604,-19.45z" fill="#924646"/><path d="M152.66762,5.84523l-17.8893,8.85952l-0.01466,-17.77826z" fill="#a44f4f"/><path d="M151.36396,5.19583l-16.58669,8.21442l-0.0136,-16.48376z" fill="#8a4242"/></g><path d="M192.45871,75.25149c0,78.77935 -24.87307,142.64264 -55.55556,142.64264c-30.68248,0 -55.55556,-63.86329 -55.55556,-142.64264c0,-78.77936 24.87307,-142.64265 55.55556,-142.64265c30.68249,0 55.55556,63.86329 55.55556,142.64265z" fill="none" stroke="none" stroke-width="0"/></g></g></svg>