<svg version="1.1" xmlns="http://www.w3.org/2000/svg" xmlns:xlink="http://www.w3.org/1999/xlink" width="203.58014" height="354.35435" viewBox="0,0,203.58014,354.35435"><g transform="translate(-91.8581,-6.18242)"><g data-paper-data="{&quot;isPaintingLayer&quot;:true}" fill-rule="nonzero" stroke-linecap="butt" stroke-linejoin="miter" stroke-miterlimit="10" stroke-dasharray="" stroke-dashoffset="0" style="mix-blend-mode: normal"><path d="" fill="#c1c1c1" stroke="none" stroke-width="0"/><path d="" data-paper-data="{&quot;index&quot;:null}" fill="#d9d9d9" stroke="none" stroke-width="0"/><path d="" fill="#d9d9d9" stroke="#c1c1c1" stroke-width="2.5"/><g stroke="none" stroke-width="0"><path d="M154.32502,195.70286l-19.57146,9.6926l-0.01604,-19.44999z" fill="#924646"/><path d="M152.64285,196.53593l-17.88929,8.85951l-0.01466,-17.77825z" fill="#a44f4f"/><path d="M151.33919,195.88654l-16.58669,8.21442l-0.01359,-16.48375z" fill="#8a4242"/></g><g stroke="none" stroke-width="0"><path d="M154.3374,210.71788l-19.57146,9.69259l-0.01604,-19.44999z" fill="#924646"/><path d="M152.65522,211.55096l-17.88929,8.85951l-0.01466,-17.77826z" fill="#a44f4f"/><path d="M151.35157,210.90155l-16.5867,8.21442l-0.01359,-16.48375z" fill="#8a4242"/></g><g stroke="none" stroke-width="0"><path d="M154.34979,225.73288l-19.57146,9.6926l-0.01604,-19.44999z" fill="#924646"/><path d="M152.66761,226.56596l-17.88929,8.85951l-0.01466,-17.77825z" fill="#a44f4f"/><path d="M151.36396,225.91656l-16.58669,8.21442l-0.01359,-16.48375z" fill="#8a4242"/></g><g stroke="none" stroke-width="0"><path d="M154.32503,149.15632l-19.57147,9.6926l-0.01604,-19.45z" fill="#924646"/><path d="M152.64285,149.98938l-17.88929,8.85952l-0.01466,-17.77826z" fill="#a44f4f"/><path d="M151.33919,149.33999l-16.58669,8.21442l-0.01359,-16.48376z" fill="#8a4242"/></g><g stroke="none" stroke-width="0"><path d="M154.3374,164.17133l-19.57146,9.69259l-0.01604,-19.45z" fill="#924646"/><path d="M152.65522,165.00441l-17.88929,8.85952l-0.01466,-17.77827z" fill="#a44f4f"/><path d="M151.35158,164.355l-16.5867,8.21442l-0.01359,-16.48376z" fill="#8a4242"/></g><g stroke="none" stroke-width="0"><path d="M154.34979,179.18634l-19.57146,9.6926l-0.01604,-19.45z" fill="#924646"/><path d="M152.66762,180.01941l-17.8893,8.85952l-0.01466,-17.77826z" fill="#a44f4f"/><path d="M151.36396,179.37001l-16.58669,8.21442l-0.0136,-16.48376z" fill="#8a4242"/></g><g stroke="none" stroke-width="0"><g><path d="M154.32502,287.29445l-19.57146,9.6926l-0.01604,-19.44999z" fill="#924646"/><path d="M152.64285,288.12752l-17.88929,8.85951l-0.01466,-17.77825z" fill="#a44f4f"/><path d="M151.33919,287.47813l-16.58669,8.21442l-0.01359,-16.48375z" fill="#8a4242"/></g><g><path d="M154.3374,302.30947l-19.57146,9.69259l-0.01604,-19.44999z" fill="#924646"/><path d="M152.65522,303.14255l-17.88929,8.85951l-0.01466,-17.77826z" fill="#a44f4f"/><path d="M151.35157,302.49314l-16.5867,8.21442l-0.01359,-16.48375z" fill="#8a4242"/></g><g><path d="M154.34979,317.32447l-19.57146,9.6926l-0.01604,-19.44999z" fill="#924646"/><path d="M152.66761,318.15755l-17.88929,8.85951l-0.01466,-17.77825z" fill="#a44f4f"/><path d="M151.36396,317.50815l-16.58669,8.21442l-0.01359,-16.48375z" fill="#8a4242"/></g><g><path d="M154.32503,240.74791l-19.57147,9.6926l-0.01604,-19.45z" fill="#924646"/><path d="M152.64285,241.58097l-17.88929,8.85951l-0.01466,-17.77826z" fill="#a44f4f"/><path d="M151.33919,240.93158l-16.58669,8.21442l-0.01359,-16.48376z" fill="#8a4242"/></g><g><path d="M154.3374,255.76292l-19.57146,9.69259l-0.01604,-19.44999z" fill="#924646"/><path d="M152.65522,256.596l-17.88929,8.85951l-0.01466,-17.77826z" fill="#a44f4f"/><path d="M151.35158,255.94659l-16.5867,8.21442l-0.01359,-16.48375z" fill="#8a4242"/></g><g><path d="M154.34979,270.77793l-19.57146,9.6926l-0.01604,-19.44999z" fill="#924646"/><path d="M152.66762,271.611l-17.8893,8.85951l-0.01466,-17.77825z" fill="#a44f4f"/><path d="M151.36396,270.9616l-16.58669,8.21442l-0.0136,-16.48375z" fill="#8a4242"/></g></g><g stroke="none" stroke-width="0"><path d="M154.32503,134.1413l-19.57147,9.6926l-0.01604,-19.45z" fill="#924646"/><path d="M152.64285,134.97436l-17.88929,8.85952l-0.01466,-17.77826z" fill="#a44f4f"/><path d="M151.33919,134.32497l-16.58669,8.21442l-0.01359,-16.48376z" fill="#8a4242"/></g><path d="M202.96922,217.89413c0,78.77936 -24.87307,142.64264 -55.55556,142.64264c-30.68249,0 -55.55556,-63.86329 -55.55556,-142.64264c0,-78.77936 24.87307,-142.64264 55.55556,-142.64264c30.68249,0 55.55556,63.86329 55.55556,142.64264z" fill="none" stroke="none" stroke-width="0"/><g data-paper-data="{&quot;index&quot;:null}" stroke="none" stroke-width="0"><path d="M252.55882,116.8764l-0.01604,19.44999l-19.57146,-9.6926z" fill="#924646"/><path d="M252.55744,118.54812l-0.01466,17.77825l-17.88929,-8.85951z" fill="#a44f4f"/><path d="M252.55743,118.54814l-0.01359,16.48375l-16.58669,-8.21442z" fill="#8a4242"/></g><g data-paper-data="{&quot;index&quot;:null}" stroke="none" stroke-width="0"><path d="M252.54644,131.89141l-0.01604,19.44999l-19.57146,-9.69259z" fill="#924646"/><path d="M252.54507,133.56314l-0.01466,17.77826l-17.88929,-8.85951z" fill="#a44f4f"/><path d="M252.54506,133.56315l-0.01359,16.48375l-16.5867,-8.21442z" fill="#8a4242"/></g><g data-paper-data="{&quot;index&quot;:null}" stroke="none" stroke-width="0"><path d="M252.53405,146.90642l-0.01604,19.44999l-19.57146,-9.6926z" fill="#924646"/><path d="M252.53268,148.57815l-0.01466,17.77825l-17.88929,-8.85951z" fill="#a44f4f"/><path d="M252.53266,148.57816l-0.01359,16.48375l-16.58669,-8.21442z" fill="#8a4242"/></g><g data-paper-data="{&quot;index&quot;:null}" stroke="none" stroke-width="0"><path d="M252.55882,70.32985l-0.01604,19.45l-19.57147,-9.6926z" fill="#924646"/><path d="M252.55744,72.00157l-0.01466,17.77826l-17.88929,-8.85952z" fill="#a44f4f"/><path d="M252.55743,72.00158l-0.01359,16.48376l-16.58669,-8.21442z" fill="#8a4242"/></g><g data-paper-data="{&quot;index&quot;:null}" stroke="none" stroke-width="0"><path d="M252.54644,85.34485l-0.01604,19.45l-19.57146,-9.69259z" fill="#924646"/><path d="M252.54507,87.01659l-0.01466,17.77827l-17.88929,-8.85952z" fill="#a44f4f"/><path d="M252.54505,87.01659l-0.01359,16.48376l-16.5867,-8.21442z" fill="#8a4242"/></g><g data-paper-data="{&quot;index&quot;:null}" stroke="none" stroke-width="0"><path d="M252.53405,100.35987l-0.01604,19.45l-19.57146,-9.6926z" fill="#924646"/><path d="M252.53268,102.0316l-0.01466,17.77826l-17.8893,-8.85952z" fill="#a44f4f"/><path d="M252.53267,102.0316l-0.0136,16.48376l-16.58669,-8.21442z" fill="#8a4242"/></g><g data-paper-data="{&quot;index&quot;:null}" stroke="none" stroke-width="0"><g><path d="M252.55882,208.46799l-0.01604,19.44999l-19.57146,-9.6926z" fill="#924646"/><path d="M252.55744,210.13971l-0.01466,17.77825l-17.88929,-8.85951z" fill="#a44f4f"/><path d="M252.55743,210.13973l-0.01359,16.48375l-16.58669,-8.21442z" fill="#8a4242"/></g><g><path d="M252.54644,223.483l-0.01604,19.44999l-19.57146,-9.69259z" fill="#924646"/><path d="M252.54507,225.15473l-0.01466,17.77826l-17.88929,-8.85951z" fill="#a44f4f"/><path d="M252.54506,225.15474l-0.01359,16.48375l-16.5867,-8.21442z" fill="#8a4242"/></g><g><path d="M252.53405,238.49801l-0.01604,19.44999l-19.57146,-9.6926z" fill="#924646"/><path d="M252.53268,240.16974l-0.01466,17.77825l-17.88929,-8.85951z" fill="#a44f4f"/><path d="M252.53266,240.16975l-0.01359,16.48375l-16.58669,-8.21442z" fill="#8a4242"/></g><g><path d="M252.55882,161.92144l-0.01604,19.45l-19.57147,-9.6926z" fill="#924646"/><path d="M252.55744,163.59315l-0.01466,17.77826l-17.88929,-8.85951z" fill="#a44f4f"/><path d="M252.55743,163.59317l-0.01359,16.48376l-16.58669,-8.21442z" fill="#8a4242"/></g><g><path d="M252.54644,176.93645l-0.01604,19.44999l-19.57146,-9.69259z" fill="#924646"/><path d="M252.54507,178.60818l-0.01466,17.77826l-17.88929,-8.85951z" fill="#a44f4f"/><path d="M252.54505,178.60819l-0.01359,16.48375l-16.5867,-8.21442z" fill="#8a4242"/></g><g><path d="M252.53405,191.95147l-0.01604,19.44999l-19.57146,-9.6926z" fill="#924646"/><path d="M252.53268,193.62319l-0.01466,17.77825l-17.8893,-8.85951z" fill="#a44f4f"/><path d="M252.53267,193.6232l-0.0136,16.48375l-16.58669,-8.21442z" fill="#8a4242"/></g></g><g data-paper-data="{&quot;index&quot;:null}" stroke="none" stroke-width="0"><path d="M252.55882,55.31483l-0.01604,19.45l-19.57147,-9.6926z" fill="#924646"/><path d="M252.55744,56.98655l-0.01466,17.77826l-17.88929,-8.85952z" fill="#a44f4f"/><path d="M252.55743,56.98656l-0.01359,16.48376l-16.58669,-8.21442z" fill="#8a4242"/></g><path d="M239.88268,6.18242c30.68249,0 55.55556,63.86328 55.55556,142.64264c0,78.77935 -24.87307,142.64264 -55.55556,142.64264c-30.68249,0 -55.55556,-63.86328 -55.55556,-142.64264c0,-78.77935 24.87307,-142.64264 55.55556,-142.64264z" data-paper-data="{&quot;index&quot;:null}" fill="none" stroke="none" stroke-width="0"/></g></g></svg>