<svg version="1.1" xmlns="http://www.w3.org/2000/svg" xmlns:xlink="http://www.w3.org/1999/xlink" width="118.59102" height="201" viewBox="0,0,118.59102,201"><defs><linearGradient x1="104.0331" y1="321.42709" x2="80.96573" y2="327.35923" gradientUnits="userSpaceOnUse" id="color-1"><stop offset="0" stop-color="#5c5549"/><stop offset="1" stop-color="#756c5e"/></linearGradient><linearGradient x1="106.1832" y1="305.16096" x2="113.75487" y2="334.60411" gradientUnits="userSpaceOnUse" id="color-2"><stop offset="0" stop-color="#746b5d"/><stop offset="1" stop-color="#746b5d" stop-opacity="0"/></linearGradient><linearGradient x1="108.87843" y1="308.53642" x2="111.05847" y2="331.49562" gradientUnits="userSpaceOnUse" id="color-3"><stop offset="0" stop-color="#514b41"/><stop offset="1" stop-color="#36322b"/></linearGradient></defs><g transform="translate(-43.03222,-152.39999)"><g data-paper-data="{&quot;isPaintingLayer&quot;:true}" fill-rule="nonzero" stroke-linecap="butt" stroke-miterlimit="10" stroke-dasharray="" stroke-dashoffset="0" style="mix-blend-mode: normal"><path d="" fill="none" stroke="none" stroke-width="0" stroke-linejoin="miter"/><path d="M100.28802,303.49726l11.91719,-3.06469l9.35145,36.36353l-11.91719,3.0647z" data-paper-data="{&quot;zoomLevel&quot;:1.5487,&quot;index&quot;:null}" fill="#746b5d" stroke="#837969" stroke-width="11.5" stroke-linejoin="round"/><path d="M78.87152,319.21585l23.06739,-5.93215l4.18839,16.28677l-23.06739,5.93214z" fill="url(#color-1)" stroke="none" stroke-width="0" stroke-linejoin="miter"/><path d="M99.12462,303.79647l11.9172,-3.0647l9.35146,36.36353l-11.9172,3.06469z" data-paper-data="{&quot;zoomLevel&quot;:1.5487,&quot;index&quot;:null}" fill="#746b5d" stroke="#746b5d" stroke-width="11.5" stroke-linejoin="round"/><path d="M97.29937,307.44559l17.76739,-4.56916l7.57176,29.44308l-17.76739,4.56916z" fill="url(#color-2)" stroke="none" stroke-width="0" stroke-linejoin="miter"/><path d="M94.67687,309.54517l10.66821,-0.9575l-9.75871,4.49406z" fill="#665f56" stroke="none" stroke-width="0" stroke-linejoin="miter"/><path d="M95.63421,313.26788l18.097,-1.64593l-16.56524,7.60223z" fill="#665f56" stroke="none" stroke-width="0" stroke-linejoin="miter"/><path d="M108.79627,325.00183c0,0 -2.69613,-9.34631 -3.91881,-13.59161c-0.32027,-1.11204 0.32171,-2.27313 1.43355,-2.59335c1.11204,-0.32027 2.27291,0.32156 2.5932,1.4336c1.0251,3.55922 3.91587,13.58062 3.91587,13.58062c0,0 0.48715,-0.869 2.6971,-4.86715c0.55991,-1.01283 1.8346,-1.37996 2.84727,-0.82005c1.01278,0.56033 1.38005,1.83479 0.8201,2.84748c-1.79175,3.24187 -5.1432,9.30397 -5.1432,9.30397c-0.55997,1.01268 -1.83481,1.37986 -2.84726,0.82005c0,0 -5.23146,-2.89172 -9.22967,-5.10182c-1.01336,-0.56016 -1.38048,-1.83486 -0.8201,-2.84748c0.55975,-1.01283 1.83479,-1.38005 2.8469,-0.81994c3.24277,1.79193 4.80506,2.65568 4.80506,2.65568z" fill="url(#color-3)" stroke="none" stroke-width="0" stroke-linejoin="miter"/><path d="M101.66349,349.0447c-32.74591,-0.79776 -58.99432,-13.65168 -58.62747,-28.71001c0.36686,-15.05834 27.21005,-26.61882 59.95596,-25.82105c32.74591,0.79776 58.99432,13.65166 58.62746,28.71c-0.36686,15.05834 -27.21005,26.61883 -59.95597,25.82107z" fill="none" stroke="none" stroke-width="0" stroke-linejoin="miter"/><path d="M148.5,308.39999c0,24.85281 -19.92333,45 -44.5,45c-24.57667,0 -44.5,-20.14719 -44.5,-45c0,-24.85281 19.92333,-45 44.5,-45c24.57667,0 44.5,20.14719 44.5,45z" fill="none" stroke="none" stroke-width="0" stroke-linejoin="miter"/><ellipse cx="143" cy="304.79999" transform="scale(0.5,0.5)" rx="0" ry="0" fill="none" stroke="none" stroke-width="0" stroke-linejoin="miter"/></g></g></svg>