<svg version="1.1" xmlns="http://www.w3.org/2000/svg" xmlns:xlink="http://www.w3.org/1999/xlink" width="190.69069" height="219.37188" viewBox="0,0,190.69069,219.37188"><g transform="translate(-144.65467,-70.31407)"><g data-paper-data="{&quot;isPaintingLayer&quot;:true}" fill-rule="nonzero" stroke="none" stroke-width="0" stroke-miterlimit="10" stroke-dasharray="" stroke-dashoffset="0" style="mix-blend-mode: normal"><path d="M258.30331,247.86763c0.80228,0.93352 3.15679,3.76326 2.95219,4.84622c-0.2451,1.29112 -2.13181,4.51541 -2.13327,4.51468c0,0 3.54411,0.94953 2.7905,3.05527c-0.75435,2.10428 -5.97052,-0.01444 -8.20687,-1.85908c-1.13665,-0.93435 2.1362,-5.52522 2.1362,-5.52522c0,0 -2.7005,-4.30212 -3.67974,-5.40036" fill="#bf631f" stroke-linecap="round" stroke-linejoin="round"/><path d="M252.19642,250.44484l-1.56615,8.6211c0,0 3.6719,0.05871 3.44992,2.27979c-0.21695,2.22401 -5.79355,1.4392 -8.40928,0.19665c-2.61855,-1.2412 0.73624,-13.7952 0.73624,-13.7952" fill="#bf631f" stroke-linecap="round" stroke-linejoin="round"/><path d="M250.62159,237.93951c-1.104,1.15988 -3.01969,3.37949 -4.56836,4.59233c-0.272,0.21758 -0.53457,0.4047 -0.79935,0.5868l0.01308,-0.00073c0,0 -0.11826,2.22401 -1.17296,2.10794c-0.64195,-0.06018 -1.06559,-0.515 -1.30933,-0.8589c-1.13299,0.31846 -2.1137,0.19078 -2.86951,-0.54472c-1.76845,-1.71476 -0.73195,-4.19192 0.55634,-5.58173c1.27594,-1.3942 9.37544,-10.25527 12.55829,-6.67997c3.17939,3.57247 -2.4082,6.37899 -2.4082,6.37899v0v0v0v0z" fill="#bf631f" stroke-linecap="round" stroke-linejoin="round"/><g fill="#bf631f"><path d="M251.8946,229.60642c0,0 6.91502,0.34745 7.99359,6.33901c0.33584,2.13767 1.27961,10.33659 -2.36906,12.82966c-3.58545,2.45027 -7.04982,2.69694 -10.31116,0.8567c-3.29755,-1.85845 -3.9801,-7.15657 -3.55353,-10.03633c0.23788,-1.60519 0.73907,-3.40482 1.20917,-4.64958c0,-0.0022 2.03971,-4.88609 7.03098,-5.33946v0v0v0v0z" stroke-linecap="butt" stroke-linejoin="miter"/><g><path d="M258.45202,247.8916c-2.44817,-2.27696 -3.91637,-8.06475 1.56531,-8.71026" stroke-linecap="round" stroke-linejoin="round"/><path d="M260.01733,239.48965v0v0v0v0v0v0v0c0.13856,6.48479 -1.67928,8.0095 -1.67928,8.0095c0,0 -2.35744,-2.32772 -1.88807,-5.037c0.49324,-2.83979 3.56735,-2.97249 3.56735,-2.97249z" stroke-linecap="butt" stroke-linejoin="miter"/></g></g><path d="M253.0908,236.57942c0.27419,1.59294 0.90526,4.49364 0.95162,6.48699c0.00733,0.34672 -0.00795,0.68109 -0.01444,1.00395l0.00502,-0.01674c0,0 1.73297,1.44496 0.99882,2.23489c-0.44028,0.47879 -1.06339,0.54619 -1.49352,0.53457c-0.42647,1.11342 -1.12503,1.82799 -2.17827,1.99115c-2.45906,0.39674 -3.83212,-1.94981 -4.18543,-3.83139c-0.35028,-1.87802 -2.62148,-13.8111 2.2059,-14.2202c4.82592,-0.40543 3.7103,5.81678 3.7103,5.81678v0v0z" fill="#bf631f" stroke-linecap="butt" stroke-linejoin="miter"/><path d="M294.10814,175.55486c1.10598,-0.95767 4.2366,-3.72443 6.18595,-5.92069c3.27844,-3.69612 7.55732,-8.38215 7.55732,-8.38215c0,0 0.13976,7.91426 -2.13468,14.20769c-2.00156,5.54137 -6.58199,10.21126 -7.63811,11.24801l-3.24895,-6.00534l-0.72152,-5.14752v0v0v0v0z" fill="#bf631f" stroke-linecap="butt" stroke-linejoin="miter"/><path d="M300.21287,177.58437c1.85982,0.59954 3.76095,0.05142 4.75384,-0.64729v0c-2.14926,5.10933 -5.83666,8.952 -6.84283,9.92471l-0.03538,0.07763c-0.28882,-1.20999 -0.3842,-1.95619 -0.73074,-3.06611v0c1.49959,-1.47707 2.37514,-4.25419 2.85512,-6.28893v0v0v0v0v0zM300.21287,177.58437c0.33808,-1.29371 0.32548,-3.25006 0.32548,-3.25006" fill="#939598" stroke-linecap="round" stroke-linejoin="round"/><path d="M220.16181,210.81375c0,0 8.16452,19.21262 30.33976,23.91788c22.17487,4.70381 30.32413,-3.87886 32.34536,-8.0258c2.36061,-4.83904 0.33373,-9.85585 0.05722,-10.50053l-0.07425,-0.04583c-2.86486,1.20785 -5.68993,-0.30069 -5.68993,-0.30069c0,0 1.59124,0.29521 2.56913,-0.41057c0.94641,-0.67392 2.69363,-5.41808 2.67527,-12.32197c-0.02402,-9.1928 -3.04061,-11.71034 -3.04061,-11.71034l-0.26609,-0.3311c-6.31446,0.77118 -14.12582,1.71741 -18.59812,2.23419c-8.39114,0.96912 -12.74257,2.85882 -12.74257,2.85882c0,0 1.22438,-3.59938 4.21334,-5.3524c1.55947,-0.91785 3.51254,-1.70491 5.02689,-2.25423l-0.23986,-0.09635c0,0 -13.15474,-0.69099 -21.58239,6.95102c-5.93897,5.38526 -5.70903,14.71103 -5.70903,14.71103c0,0 -2.65733,-4.78261 -2.94422,-9.36082l-0.01512,-0.01815c0,0 -4.18756,2.50086 -6.27109,9.01516c-0.07555,0.23479 -0.14838,0.4958 -0.21685,0.77685l0.16317,0.26383v0v0v0v0zM279.92932,233.133c0.10209,-0.28817 0.19945,-0.57432 0.29137,-0.85922c-0.0912,0.28503 -0.18857,0.57118 -0.29137,0.85922v0v0zM280.49307,231.35658c-0.07194,0.26787 -0.15104,0.53882 -0.2391,0.8141c0.08758,-0.27675 0.16741,-0.54767 0.2391,-0.8141v0v0zM280.56977,231.06234c0.04731,-0.18086 0.08734,-0.35793 0.12343,-0.52902c-0.03621,0.17181 -0.07743,0.34717 -0.12343,0.52902v0v0zM280.74738,230.26959c0.04549,-0.24383 0.08182,-0.47761 0.1012,-0.6952l0.00415,-0.00297c-0.02157,0.21794 -0.06046,0.4535 -0.10535,0.69818v0v0v0v0zM226.48654,200.76227c0,0 -4.18658,2.49955 -6.27024,9.01457c-1.17999,3.69225 -1.50031,13.02412 -1.50031,13.02412c0,0 -7.42296,-12.71336 -4.98529,-24.44939c2.44096,-11.73479 7.97938,-19.56498 7.97938,-19.56498M208.27705,215.52407l-4.34645,6.69416c0,0 -11.47232,-15.84764 -4.09161,-39.65562M215.5583,216.79666l-0.28247,5.89952c0,0 -6.34314,-4.93979 -8.82789,-10.82202c-4.68356,-11.07363 -1.74638,-20.84361 -1.74638,-20.84361M290.11594,199.57112c-0.22606,8.96859 -2.68262,12.28076 -4.96775,14.87573c-3.41226,3.8702 -8.00907,1.4125 -8.00907,1.4125c0,0 1.59039,0.2958 2.56994,-0.40681c0.94824,-0.67582 2.6919,-5.4168 2.67577,-12.32475c-0.02678,-9.1934 -3.22907,-11.87111 -3.22907,-11.87111v0c-4.8748,0.59452 -10.84981,1.1512 -18.67837,2.0619c-8.39088,0.96768 -12.74231,2.85737 -12.74231,2.85737c0,0 1.2215,-3.5999 4.21334,-5.3524c1.49398,-0.87724 3.35173,-1.63885 4.83359,-2.18372l-0.04618,-0.16902c0,0 -13.15465,-0.69087 -21.58265,6.95246c-5.93949,5.38814 -5.70868,14.70971 -5.70868,14.70971c0,0 -2.65176,-4.77278 -2.94665,-9.34732l-0.01303,-0.03032c0,0 -4.18808,2.50374 -6.27148,9.01732c-0.62381,1.95424 -1.00716,5.4879 -1.23026,8.38275c0.00059,0.00085 0,0 0.00046,0.00157c-0.00013,0.00072 -0.00024,0.00134 -0.00037,0.00206l-0.00048,-0.00147c-0.19829,2.57348 -0.26921,4.64142 -0.26921,4.64142c0,0 -1.52703,-2.61948 -2.97284,-6.57604l-0.1868,0.56554l-0.2826,5.90024c0,0 -3.92991,-3.06486 -6.8182,-7.23758l-0.17748,0.0689l-4.34647,6.69426c0,0 -13.55773,-18.73015 -1.71687,-46.04751c6.1721,-14.23453 33.97563,-27.69787 39.82108,-38.39c5.84352,-10.69322 0.00098,-20.83426 0.00098,-20.83426c0,0 0.72885,0.29071 2.45568,2.01158c1.72309,1.72094 3.7696,6.00422 3.7696,6.00422c0,0 0.86002,-4.88872 2.01483,-8.56404c1.55836,-4.94403 3.40756,-8.46821 3.40756,-8.46821c0,0 7.34156,23.56472 16.94143,38.92348c9.60189,15.35987 25.04149,19.92731 28.60159,46.3567c3.86821,28.71237 -13.54412,40.1714 -13.54412,40.1714c0,0 0.60172,-1.78648 1.30282,-4.51616l-0.19746,0.09773c0,0 -2.73942,3.78892 -4.51293,5.41553c-2.13872,1.96684 -4.41057,3.69963 -4.41057,3.69963c0,0 1.17259,-2.42129 2.05458,-4.90756l-0.05243,0.01712c-4.02142,4.05954 -12.78254,8.37385 -29.94392,4.73325c-21.48477,-4.5578 -30.40269,-18.8714 -30.93716,-19.75734c0.19617,-2.54579 0.51662,-5.5794 1.01315,-7.60446l0.16272,0.25864c0,0 8.16382,19.21175 30.34025,23.91871c17.71963,3.7576 26.47953,-0.96604 30.31552,-5.13422l-0.00402,0.00225c0.01428,-0.01369 0.02362,-0.02892 0.03632,-0.04215c0.0005,-0.00278 0.00102,-0.00566 0.00154,-0.00855l0.01616,-0.01176c0.93322,-1.02575 1.57165,-2.01908 1.9743,-2.83312c2.30298,-4.72417 0.43124,-9.62004 0.0824,-10.44441l-0.0596,-0.11465c-2.87774,1.2386 -5.72739,-0.28459 -5.72739,-0.28459c0,0 1.59173,0.29604 2.57085,-0.41185M256.78247,188.64142c1.25127,-0.6808 2.59827,-0.86674 2.59827,-0.86674M226.48573,200.75851c0,0 0.32933,-3.53246 0.74996,-4.40962M286.78834,228.95966c0,0 -2.73942,3.78892 -4.51303,5.41552c-2.13862,1.96686 -4.41047,3.69965 -4.41047,3.69965c0,0 2.841,-5.8594 3.00478,-8.70306M288.94551,207.87098c0,0 1.60964,12.07573 -2.1579,21.08855" fill="#bf631f" stroke-linecap="round" stroke-linejoin="round"/><path d="M220.16181,210.81375v0v0v0v0v0v0v0l-0.16317,-0.26383c0.06847,-0.28105 0.14131,-0.54206 0.21685,-0.77685c2.08353,-6.5143 6.27109,-9.01516 6.27109,-9.01516l0.01512,0.01815c0.28689,4.57821 2.94422,9.36082 2.94422,9.36082c0,0 -0.22994,-9.32577 5.70903,-14.71103c8.42766,-7.64202 21.58239,-6.95102 21.58239,-6.95102l0.23986,0.09635c-1.51435,0.54932 -3.46741,1.33638 -5.02689,2.25423c-2.98896,1.75302 -4.21334,5.3524 -4.21334,5.3524c0,0 4.35144,-1.88969 12.74257,-2.85882c4.47229,-0.51678 12.28366,-1.46301 18.59812,-2.23419l0.26609,0.3311c0,0 3.01659,2.51754 3.04061,11.71034c0.01836,6.90389 -1.72886,11.64805 -2.67527,12.32197c-0.97789,0.70578 -2.56913,0.41057 -2.56913,0.41057c0,0 2.82507,1.50855 5.68993,0.30069l0.07425,0.04583c0.27651,0.64468 2.30338,5.66149 -0.05722,10.50053c-2.02123,4.14694 -10.17049,12.72961 -32.34536,8.0258c-22.17525,-4.70526 -30.33976,-23.91788 -30.33976,-23.91788z" fill="#e6e7e8" stroke-linecap="butt" stroke-linejoin="miter"/><path d="M213.24706,202.89835v0v0v0v0v0v0v0l-0.41953,-0.19151c0,0 -9.08544,-7.42921 -13.57815,-22.57095c-2.91318,-9.81515 -3.50031,-26.09064 -3.50031,-26.09064c0,0 9.64806,3.50262 13.9232,8.88226c3.4855,4.39618 8.67369,14.06173 10.45626,17.45917l0.29179,0.45804c-1.78584,3.05876 -4.99024,9.33848 -6.68828,17.50708c-0.31078,1.51016 -0.46178,3.03299 -0.48498,4.54655z" fill="#bf631f" stroke-linecap="butt" stroke-linejoin="miter"/><path d="M206.5858,195.54245v0v0v0v0v0v0v0l0.10775,0.14248c-2.59102,-3.69965 -5.46851,-8.8758 -7.44634,-15.54942c-1.76982,-5.95517 -2.67757,-14.28217 -3.1211,-19.91241l0.10413,-0.02545c7.66815,2.47008 10.21481,8.65454 10.21481,8.65454l0.12329,0.46007c0.75226,3.26981 1.62769,6.60024 2.49734,8.90064c0.51585,1.35273 1.13476,2.62462 1.74993,3.7292l-0.06501,-0.1872c0,0 0.10052,5.48434 -0.68905,8.29537c-1.27353,4.53772 -3.47576,5.49219 -3.47576,5.49219zM210.81634,181.94222c0.06493,0.18708 2.99939,3.491 2.99939,3.491" fill="#939598" stroke-linecap="round" stroke-linejoin="round"/><path d="M270.20924,223.19887v0v0v0v0v0v0v0c-1.2346,3.53341 -5.37104,5.63662 -13.59408,4.60394c-8.22237,-1.0282 -10.26602,-8.0071 -10.26602,-8.0071c0,0 6.67286,0.44924 12.95336,1.43512c6.27777,0.9839 10.90674,1.96804 10.90674,1.96804z" fill="#939598" stroke-linecap="butt" stroke-linejoin="miter"/><path d="M248.83773,204.86025v0v0v0v0v0v0v0c0.57387,0.27976 0.81257,0.97068 0.53291,1.54457c-0.27917,0.57472 -0.96718,0.8132 -1.54703,0.53832c-0.03164,-0.01677 -3.39118,-1.61442 -7.02554,-1.23166c-0.11182,0.01151 -0.22034,0.0082 -0.32601,-0.01086c-0.49322,-0.089 -0.89001,-0.49675 -0.94566,-1.01756c-0.03257,-0.30513 0.06339,-0.59589 0.23933,-0.82363c-0.17929,-0.22398 -0.33771,-0.50174 -0.41765,-0.85965c-0.0945,-0.41574 0.16666,-0.8293 0.5831,-0.92303c0.4129,-0.09054 0.82995,0.16305 0.92403,0.58105c0.07394,0.33397 0.43627,0.4907 0.44105,0.49305c0.10682,0.04512 0.19552,0.11344 0.26766,0.19569c0.1169,-0.00251 0.2343,-0.00781 0.34826,-0.00639c-0.08469,-0.1966 -0.15818,-0.41404 -0.17937,-0.66852c-0.03406,-0.42769 0.28233,-0.79673 0.7075,-0.83273c0.42904,-0.0368 0.7968,0.28606 0.83113,0.7087c0.02725,0.33873 0.35433,0.54812 0.35696,0.55008c0.15398,0.08606 0.25457,0.22289 0.31965,0.3732c2.74163,0.36497 4.77464,1.33255 4.88966,1.38935z" fill="#231f20" stroke-linecap="butt" stroke-linejoin="miter"/><path d="M279.23022,209.24242v0v0v0v0v0v0v0c-0.25484,0.65206 -0.7341,0.98426 -1.10886,1.1658c0.04548,0.23004 0.04742,0.47211 -0.0558,0.70116c-0.2607,0.58315 -0.9324,0.84968 -1.52889,0.58509c-2.25974,-1.00998 -5.28251,-1.77353 -6.01169,-1.258c-0.26435,0.18668 -0.57436,0.2457 -0.86984,0.19239c-0.29126,-0.05256 -0.55934,-0.21291 -0.74231,-0.47371c-0.36803,-0.52114 -0.24526,-1.24276 0.27781,-1.61267c1.4085,-0.99231 3.91347,-0.50861 5.87405,0.11719c0.11281,-0.06589 0.29948,-0.20991 0.358,-0.44405c0.0963,-0.41523 0.48593,-0.70394 0.92587,-0.5766c0.41304,0.09665 0.67014,0.51004 0.57441,0.92622c-0.06328,0.2605 -0.16908,0.47144 -0.28679,0.66171c0.09509,0.03704 0.18644,0.07416 0.27189,0.11095c0.10063,-0.1086 0.21839,-0.19721 0.37234,-0.23356c0.02432,-0.00805 0.39132,-0.11358 0.51409,-0.42683c0.15758,-0.39535 0.60051,-0.59926 1.00132,-0.43484c0.39486,0.15675 0.58862,0.60231 0.43438,0.99975z" fill="#231f20" stroke-linecap="butt" stroke-linejoin="miter"/><path d="M165.40527,186.83059c0,-56.80544 34.06945,-102.85536 76.09624,-102.85536c42.02679,0 76.09624,46.04992 76.09624,102.85536c0,56.80544 -34.06945,102.85536 -76.09624,102.85536c-42.02679,0 -76.09624,-46.04992 -76.09624,-102.85536z" fill="none" stroke-linecap="butt" stroke-linejoin="miter"/><path d="M144.65467,280.52428v-210.21021h190.69069v210.21021z" fill="none" stroke-linecap="butt" stroke-linejoin="miter"/></g></g></svg>