<svg version="1.1" xmlns="http://www.w3.org/2000/svg" xmlns:xlink="http://www.w3.org/1999/xlink" width="212.66666" height="147" viewBox="0,0,212.66666,147"><g transform="translate(-147.67117,-99.02081)"><g data-paper-data="{&quot;isPaintingLayer&quot;:true}" fill-rule="nonzero" stroke-linejoin="miter" stroke-miterlimit="10" stroke-dasharray="" stroke-dashoffset="0" style="mix-blend-mode: normal"><path d="M296.02412,162.9649c-0.01625,0.2687 0.12148,19.47501 0.05795,32.57414c-0.03298,6.80272 -4.50534,11.97493 -11.2169,12.00031c-23.69369,0.08965 -78.50608,0.29704 -88.8615,0.33621c-8.63754,0.03268 -11.9087,-6.03454 -11.93158,-10.57366c-0.04091,-8.11187 -0.17101,-33.91278 -0.17101,-33.91278z" data-paper-data="{&quot;index&quot;:null}" fill="#e4cb7f" stroke="none" stroke-width="0" stroke-linecap="butt"/><path d="M183.90108,196.6109c0,0 0.1301,-25.80091 0.17101,-33.91278c0.02288,-4.53912 3.29404,-10.60634 11.93158,-10.57366c10.35542,0.03916 65.16781,0.24657 88.8615,0.33621c6.71156,0.02538 11.18392,5.19759 11.2169,12.00032c0.06352,13.09913 -0.07419,32.30543 -0.05795,32.57413z" data-paper-data="{&quot;index&quot;:null}" fill="#e4cb7f" stroke="none" stroke-width="0" stroke-linecap="butt"/><path d="M240.69052,192.36352c0.00948,2.16803 -2.13013,3.93436 -3.9695,3.94239c-2.69062,0.01175 -10.40944,0.04547 -15.47117,0.06759c-2.71509,0.01187 -4.67647,-2.45622 -4.68541,-4.49964c-0.00643,-1.47358 -0.01986,-4.54812 -0.02946,-6.74386c-0.00856,-1.95528 2.13198,-3.93435 5.04521,-3.94709c4.83007,-0.02111 11.76062,-0.05138 14.47943,-0.06324c2.33378,-0.0102 4.59224,2.3964 4.59967,4.10332c0.00659,1.50734 0.02012,4.60508 0.0312,7.14055z" data-paper-data="{&quot;index&quot;:null}" fill="#e9d18c" stroke="none" stroke-width="NaN" stroke-linecap="butt"/><path d="M220.19052,171.86352c0.00948,2.16803 -2.13013,3.93436 -3.9695,3.94239c-2.69062,0.01175 -10.40944,0.04547 -15.47117,0.06759c-2.71509,0.01187 -4.67647,-2.45622 -4.68541,-4.49964c-0.00643,-1.47358 -0.01986,-4.54812 -0.02946,-6.74386c-0.00856,-1.95528 2.13198,-3.93435 5.04521,-3.94709c4.83007,-0.02111 11.76062,-0.05138 14.47943,-0.06324c2.33378,-0.0102 4.59224,2.3964 4.59967,4.10332c0.00659,1.50734 0.02012,4.60508 0.0312,7.14055z" data-paper-data="{&quot;index&quot;:null}" fill="#e9d18c" stroke="none" stroke-width="NaN" stroke-linecap="butt"/><path d="M273.19052,195.36352c0.00948,2.16803 -2.13013,3.93436 -3.9695,3.94239c-2.69062,0.01175 -10.40945,0.04547 -15.47118,0.06759c-2.71509,0.01187 -4.67647,-2.45622 -4.68541,-4.49964c-0.00643,-1.47358 -0.01986,-4.54812 -0.02946,-6.74386c-0.00856,-1.95528 2.13198,-3.93435 5.04521,-3.94709c4.83007,-0.02111 11.76063,-0.05138 14.47943,-0.06324c2.33378,-0.0102 4.59224,2.3964 4.59966,4.10332c0.00658,1.50734 0.02012,4.60508 0.0312,7.14055z" data-paper-data="{&quot;index&quot;:null}" fill="#e9d18c" stroke="none" stroke-width="NaN" stroke-linecap="butt"/><path d="M360.33783,172.52081c0,40.59293 -47.60705,73.5 -106.33333,73.5c-58.72628,0 -106.33333,-32.90707 -106.33333,-73.5c0,-40.59293 47.60705,-73.5 106.33333,-73.5c58.72628,0 106.33333,32.90707 106.33333,73.5z" fill="none" stroke="none" stroke-width="0" stroke-linecap="butt"/><path d="M211.62126,176.8282c-2.08325,0 -3.10414,0.55449 -3.06268,1.66348c0,0.65296 0.55967,1.12971 1.67902,1.43029c0.50786,0.13474 1.05717,0.2643 1.64794,0.38867c0.59077,0.12437 1.24373,0.27466 1.95886,0.45085c0.7255,0.16583 1.46138,0.39384 2.20762,0.68405c1.18154,0.34203 2.10914,0.94315 2.78284,1.80341c0.67368,0.86024 1.01052,1.8915 1.01052,3.09377c0,2.1247 -0.9017,3.76745 -2.70511,4.92827c-1.53393,1.00534 -3.45134,1.49766 -5.75224,1.47692c-1.67903,0 -3.33216,-0.29538 -4.95937,-0.88615c-0.71514,-0.27984 -1.32146,-0.64777 -1.81895,-1.1038c-0.48713,-0.45603 -0.73069,-0.95871 -0.73069,-1.50803c0,-0.54932 0.18656,-0.98979 0.55968,-1.32146c0.37312,-0.33166 0.77733,-0.49749 1.21264,-0.49749c0.43531,0 0.8447,0.0881 1.22818,0.26429c0.39384,0.16583 0.85506,0.33684 1.38364,0.51303c1.32664,0.48713 2.37863,0.73069 3.15596,0.73069c0.77733,0 1.38883,-0.04145 1.8345,-0.12437c0.45603,-0.09328 0.84987,-0.23838 1.18154,-0.43531c0.65296,-0.43531 0.97943,-0.99498 0.97943,-1.67903c0,-0.45603 -0.15028,-0.81361 -0.45085,-1.07271c-0.30056,-0.25911 -0.76697,-0.48194 -1.3992,-0.66851c-0.62186,-0.19693 -1.26445,-0.36793 -1.92777,-0.51303c-0.65296,-0.15547 -1.32665,-0.31093 -2.02106,-0.4664c-0.68405,-0.15547 -1.36292,-0.34721 -2.0366,-0.57523c-0.66331,-0.23839 -1.24373,-0.57004 -1.74122,-0.99498c-1.24373,-0.87061 -1.86559,-2.12471 -1.86559,-3.76228c0,-2.04179 0.86024,-3.51352 2.58074,-4.41523c1.29555,-0.80842 3.00049,-1.21264 5.11482,-1.21264c2.10397,0 3.8141,0.32129 5.13037,0.96389c1.30592,0.67368 1.95887,1.49766 1.95887,2.47191c0,0.51823 -0.19174,0.92243 -0.57523,1.21264c-0.37312,0.2902 -0.77733,0.43531 -1.21264,0.43531c-0.62186,0 -1.0779,-0.09328 -1.36809,-0.27984c-0.2902,-0.19693 -0.54932,-0.35758 -0.77733,-0.48194c-0.21765,-0.12437 -0.47158,-0.21247 -0.76178,-0.26429c-0.63222,-0.16583 -1.44583,-0.24875 -2.44081,-0.24875zM233.34809,190.54029c0,1.47174 -1.35773,2.20761 -4.0732,2.20761c-1.88632,0 -3.24924,-0.55449 -4.08875,-1.66348c-0.82916,-1.0779 -1.28001,-2.7932 -1.35255,-5.14591v-8.79937h-1.19708c-0.60113,0 -1.08826,-0.19693 -1.46138,-0.59077c-0.36275,-0.39384 -0.54414,-0.82397 -0.54414,-1.29036c0,-0.42494 0.15547,-0.84987 0.4664,-1.27482c0.32129,-0.42494 0.83433,-0.63742 1.53911,-0.63742h1.41474l0.13991,-4.19758c0.10364,-0.62186 0.37312,-1.09345 0.80841,-1.41475c0.44567,-0.32129 0.91726,-0.48194 1.41475,-0.48194c0.49749,0 0.93798,0.17101 1.32146,0.51303c0.38348,0.33166 0.57522,0.81879 0.57522,1.46138v4.11985h2.33198c0.63222,0 1.11936,0.21247 1.46138,0.63742c0.34203,0.41457 0.51303,0.83952 0.51303,1.27482c0,0.53895 -0.18138,0.9898 -0.54413,1.35255c-0.35238,0.35238 -0.82916,0.52858 -1.43029,0.52858h-2.33198v7.27581c0,2.16616 0.05182,3.41507 0.15547,3.74673c0.114,0.32129 0.25911,0.53377 0.43531,0.63741c0.1762,0.09328 0.43012,0.13991 0.76178,0.13991l1.7723,-0.13991c0.62186,0 1.09345,0.19693 1.41474,0.59077c0.33166,0.39384 0.49749,0.77733 0.49749,1.15045zM243.86691,180.15518c0.65296,0 1.02089,0 1.10382,0v-0.59077c0,-1.82413 -1.05199,-2.7362 -3.15596,-2.7362c-1.08826,0 -1.86041,0.0881 -2.31645,0.26429c-0.9328,0.34203 -1.63239,0.65814 -2.09879,0.94835c-0.4664,0.27984 -0.91726,0.41975 -1.35255,0.41975c-0.42494,0 -0.82916,-0.16583 -1.21264,-0.49749c-0.38348,-0.33166 -0.57522,-0.77215 -0.57522,-1.32146c0,-0.49749 0.22802,-0.94315 0.68405,-1.33701c1.58575,-1.52357 3.89183,-2.28535 6.91823,-2.28535c3.59645,0 5.92326,1.25409 6.98043,3.76227c0.34203,0.87061 0.51303,1.86041 0.51303,2.9694l-0.09328,10.57168c0,0.66331 -0.22802,1.17119 -0.68405,1.52357c-0.45603,0.35238 -0.93798,0.52857 -1.44584,0.52857c-0.50786,0 -0.99498,-0.15028 -1.46138,-0.45085c-0.4664,-0.31093 -0.69959,-0.83433 -0.69959,-1.5702h0.4664c-0.114,0.97425 -1.24373,1.68939 -3.38915,2.14543c-0.63222,0.16583 -1.35255,0.24873 -2.16097,0.24873c-0.80842,0 -1.62202,-0.12437 -2.44081,-0.37312c-0.80842,-0.23839 -1.52875,-0.62186 -2.16097,-1.15045c-1.32664,-1.109 -1.98997,-2.60146 -1.98997,-4.47741c0,-4.3945 3.52389,-6.59177 10.57168,-6.59177zM245.15728,183.77753c-0.03109,0.12437 -0.37312,0.18656 -1.02608,0.18656c-0.65296,0 -1.30073,0.01036 -1.94332,0.03109c-0.64259,0.01036 -1.23855,0.07774 -1.78787,0.2021c-0.53895,0.114 -1.02089,0.2902 -1.44583,0.52858c-0.76696,0.40421 -1.17117,1.06754 -1.21264,1.98997c0,0.67368 0.28502,1.20744 0.85507,1.6013c0.47677,0.39384 1.18673,0.60113 2.12988,0.62186c1.16081,0 2.16097,-0.36793 3.00049,-1.1038c0.74624,-0.69441 1.16081,-1.7775 1.24373,-3.24924zM256.54028,177.09249c0.34203,-2.71547 1.94333,-4.0732 4.8039,-4.0732c0.70478,0 1.24373,0.21765 1.61685,0.65296c0.38348,0.42494 0.57523,0.88615 0.57523,1.38364c0,0.49749 -0.19174,0.96389 -0.57523,1.3992c-0.37312,0.42494 -0.9017,0.63741 -1.58575,0.63741c-0.67368,0 -1.25927,0.09846 -1.75676,0.29539c-0.49749,0.19693 -0.89652,0.47158 -1.1971,0.82397c-0.70478,0.86024 -1.05717,2.01069 -1.05717,3.45134v8.61283c0,0.71514 -0.24875,1.24373 -0.74624,1.58575c-0.48713,0.34203 -0.91726,0.51303 -1.29036,0.51303c-0.37312,0 -0.68922,-0.03628 -0.94834,-0.10883c-0.24875,-0.08291 -0.48194,-0.23319 -0.69959,-0.45085c-0.4664,-0.30056 -0.69959,-0.81361 -0.69959,-1.53911v-14.73817c0,-0.63222 0.21765,-1.15563 0.65296,-1.5702c0.44567,-0.41457 0.9898,-0.62186 1.63239,-0.62186c0.64259,0 1.15045,0.21766 1.52357,0.65296c0.38348,0.42494 0.57523,0.93798 0.57523,1.53911zM276.12097,190.54029c0,1.47174 -1.35773,2.20761 -4.0732,2.20761c-1.88632,0 -3.24924,-0.55449 -4.08875,-1.66348c-0.82916,-1.0779 -1.28001,-2.7932 -1.35255,-5.14591v-8.79937h-1.1971c-0.60113,0 -1.08826,-0.19693 -1.46138,-0.59077c-0.36275,-0.39384 -0.54413,-0.82397 -0.54413,-1.29036c0,-0.42494 0.15547,-0.84987 0.4664,-1.27482c0.32129,-0.42494 0.83433,-0.63742 1.53911,-0.63742h1.41474l0.13991,-4.19758c0.10364,-0.62186 0.37312,-1.09345 0.80842,-1.41475c0.44567,-0.32129 0.91724,-0.48194 1.41474,-0.48194c0.49749,0 0.93798,0.17101 1.32146,0.51303c0.38348,0.33166 0.57522,0.81879 0.57522,1.46138v4.11985h2.33199c0.63222,0 1.11936,0.21247 1.46138,0.63742c0.34203,0.41457 0.51303,0.83952 0.51303,1.27482c0,0.53895 -0.18138,0.9898 -0.54413,1.35255c-0.35238,0.35238 -0.82916,0.52858 -1.43029,0.52858h-2.33199v7.27581c0,2.16616 0.05183,3.41507 0.15547,3.74673c0.114,0.32129 0.2591,0.53377 0.43531,0.63741c0.1762,0.09328 0.43012,0.13991 0.76178,0.13991l1.77231,-0.13991c0.62186,0 1.09345,0.19693 1.41474,0.59077c0.33166,0.39384 0.49749,0.77733 0.49749,1.15045z" fill="#ffffff" stroke="#a18e5a" stroke-width="5" stroke-linecap="square"/><path d="M211.62125,176.8282c-2.08325,0 -3.10414,0.55449 -3.06268,1.66349c0,0.65296 0.55968,1.12971 1.67903,1.43028c0.50786,0.13473 1.05717,0.2643 1.64793,0.38867c0.59076,0.12437 1.24373,0.27466 1.95887,0.45085c0.72551,0.16583 1.46138,0.39384 2.20761,0.68405c1.18154,0.34203 2.10914,0.94317 2.78284,1.80341c0.67368,0.86024 1.01052,1.8915 1.01052,3.09377c0,2.12471 -0.9017,3.76745 -2.70511,4.92826c-1.53393,1.00535 -3.45134,1.49766 -5.75224,1.47692c-1.67903,0 -3.33215,-0.29538 -4.95937,-0.88616c-0.71514,-0.27984 -1.32146,-0.64776 -1.81895,-1.10382c-0.48713,-0.45603 -0.73069,-0.95871 -0.73069,-1.50803c0,-0.54932 0.18656,-0.98979 0.55968,-1.32146c0.37312,-0.33166 0.77733,-0.49749 1.21264,-0.49749c0.43531,0 0.8447,0.0881 1.22819,0.2643c0.39384,0.16583 0.85506,0.33684 1.38365,0.51303c1.32665,0.48713 2.37863,0.73069 3.15596,0.73069c0.77733,0 1.38884,-0.04146 1.8345,-0.12437c0.45603,-0.09328 0.84987,-0.23838 1.18154,-0.43531c0.65296,-0.43531 0.97943,-0.99498 0.97943,-1.67903c0,-0.45603 -0.15029,-0.81361 -0.45085,-1.07271c-0.30056,-0.2591 -0.76697,-0.48195 -1.3992,-0.66851c-0.62186,-0.19692 -1.26447,-0.36792 -1.92777,-0.51303c-0.65296,-0.15547 -1.32665,-0.31094 -2.02106,-0.4664c-0.68405,-0.15547 -1.36292,-0.34722 -2.0366,-0.57523c-0.66333,-0.23838 -1.24373,-0.57004 -1.74122,-0.99498c-1.24373,-0.8706 -1.86559,-2.12471 -1.86559,-3.76228c0,-2.04179 0.86024,-3.51352 2.58074,-4.41523c1.29555,-0.80841 3.00049,-1.21264 5.11483,-1.21264c2.10397,0 3.8141,0.3213 5.13037,0.96389c1.30592,0.67368 1.95887,1.49766 1.95887,2.47191c0,0.51822 -0.19174,0.92243 -0.57522,1.21264c-0.37312,0.2902 -0.77733,0.43531 -1.21264,0.43531c-0.62186,0 -1.0779,-0.09328 -1.36809,-0.27984c-0.2902,-0.19692 -0.54932,-0.35757 -0.77733,-0.48195c-0.21765,-0.12437 -0.47157,-0.21247 -0.76179,-0.2643c-0.63222,-0.16583 -1.44584,-0.24873 -2.44081,-0.24873zM233.34809,190.54031c0,1.47174 -1.35773,2.20761 -4.0732,2.20761c-1.88633,0 -3.24924,-0.55449 -4.08875,-1.66349c-0.82916,-1.0779 -1.28001,-2.7932 -1.35255,-5.14591v-8.79937h-1.19708c-0.60114,0 -1.08825,-0.19692 -1.46138,-0.59076c-0.36276,-0.39384 -0.54414,-0.82398 -0.54414,-1.29036c0,-0.42495 0.15547,-0.84987 0.4664,-1.27482c0.3213,-0.42495 0.83433,-0.63741 1.53911,-0.63741h1.41474l0.13991,-4.19758c0.10365,-0.62186 0.37312,-1.09345 0.80841,-1.41474c0.44567,-0.3213 0.91724,-0.48195 1.41474,-0.48195c0.49749,0 0.93798,0.17101 1.32146,0.51303c0.38349,0.33166 0.57522,0.81878 0.57522,1.46138v4.11985h2.33198c0.63222,0 1.11936,0.21247 1.46138,0.63741c0.34203,0.41457 0.51303,0.83952 0.51303,1.27482c0,0.53894 -0.18138,0.98979 -0.54414,1.35255c-0.35238,0.35238 -0.82916,0.52857 -1.43028,0.52857h-2.33198v7.27581c0,2.16617 0.05182,3.41506 0.15547,3.74672c0.114,0.3213 0.2591,0.53377 0.43531,0.63741c0.17619,0.09328 0.43013,0.13991 0.76179,0.13991l1.7723,-0.13991c0.62186,0 1.09345,0.19692 1.41474,0.59076c0.33166,0.39384 0.49749,0.77733 0.49749,1.15044zM243.86692,180.15518c0.65296,0 1.02089,0 1.10382,0v-0.59076c0,-1.82413 -1.05199,-2.7362 -3.15596,-2.7362c-1.08825,0 -1.86041,0.0881 -2.31644,0.2643c-0.9328,0.34203 -1.63239,0.65814 -2.09879,0.94835c-0.4664,0.27984 -0.91724,0.41975 -1.35255,0.41975c-0.42495,0 -0.82916,-0.16583 -1.21264,-0.49749c-0.38349,-0.33166 -0.57522,-0.77215 -0.57522,-1.32146c0,-0.49749 0.22802,-0.94317 0.68405,-1.33701c1.58575,-1.52357 3.89183,-2.28536 6.91824,-2.28536c3.59645,0 5.92326,1.25409 6.98043,3.76228c0.34203,0.8706 0.51303,1.86041 0.51303,2.9694l-0.09328,10.57169c0,0.66333 -0.22802,1.17117 -0.68405,1.52357c-0.45603,0.35238 -0.93798,0.52857 -1.44584,0.52857c-0.50786,0 -0.99498,-0.15029 -1.46138,-0.45085c-0.4664,-0.31094 -0.69959,-0.83433 -0.69959,-1.5702h0.4664c-0.114,0.97425 -1.24373,1.68939 -3.38915,2.14543c-0.63222,0.16583 -1.35255,0.24873 -2.16097,0.24873c-0.80841,0 -1.62203,-0.12437 -2.44081,-0.37312c-0.80841,-0.23838 -1.52874,-0.62186 -2.16097,-1.15044c-1.32665,-1.109 -1.98996,-2.60146 -1.98996,-4.47741c0,-4.3945 3.52389,-6.59175 10.57169,-6.59175zM245.15728,183.77753c-0.0311,0.12437 -0.37312,0.18656 -1.02608,0.18656c-0.65296,0 -1.30073,0.01036 -1.94332,0.0311c-0.6426,0.01036 -1.23855,0.07773 -1.78787,0.20211c-0.53894,0.114 -1.02089,0.2902 -1.44584,0.52857c-0.76697,0.40421 -1.17117,1.06754 -1.21264,1.98996c0,0.67368 0.28502,1.20744 0.85506,1.6013c0.47676,0.39384 1.18673,0.60114 2.12988,0.62186c1.16081,0 2.16097,-0.36792 3.00049,-1.10382c0.74624,-0.69441 1.16081,-1.7775 1.24373,-3.24924zM256.54028,177.0925c0.34203,-2.71547 1.94332,-4.0732 4.8039,-4.0732c0.70479,0 1.24373,0.21765 1.61685,0.65296c0.38349,0.42495 0.57522,0.88616 0.57522,1.38365c0,0.49749 -0.19174,0.96389 -0.57522,1.3992c-0.37312,0.42495 -0.9017,0.63741 -1.58575,0.63741c-0.67368,0 -1.25927,0.09846 -1.75676,0.29538c-0.49749,0.19692 -0.89652,0.47157 -1.19708,0.82398c-0.70479,0.86024 -1.05717,2.01069 -1.05717,3.45134v8.61281c0,0.71514 -0.24873,1.24373 -0.74624,1.58575c-0.48713,0.34203 -0.91724,0.51303 -1.29036,0.51303c-0.37312,0 -0.68922,-0.03628 -0.94835,-0.10883c-0.24873,-0.08292 -0.48195,-0.23319 -0.69959,-0.45085c-0.4664,-0.30056 -0.69959,-0.81361 -0.69959,-1.53911v-14.73817c0,-0.63222 0.21765,-1.15563 0.65296,-1.5702c0.44567,-0.41457 0.98979,-0.62186 1.63239,-0.62186c0.6426,0 1.15044,0.21765 1.52357,0.65296c0.38349,0.42495 0.57522,0.93798 0.57522,1.53911zM276.12097,190.54031c0,1.47174 -1.35773,2.20761 -4.0732,2.20761c-1.88633,0 -3.24924,-0.55449 -4.08875,-1.66349c-0.82916,-1.0779 -1.28001,-2.7932 -1.35255,-5.14591v-8.79937h-1.19708c-0.60114,0 -1.08825,-0.19692 -1.46138,-0.59076c-0.36276,-0.39384 -0.54414,-0.82398 -0.54414,-1.29036c0,-0.42495 0.15547,-0.84987 0.4664,-1.27482c0.3213,-0.42495 0.83433,-0.63741 1.53911,-0.63741h1.41474l0.13991,-4.19758c0.10365,-0.62186 0.37312,-1.09345 0.80841,-1.41474c0.44567,-0.3213 0.91724,-0.48195 1.41474,-0.48195c0.49749,0 0.93798,0.17101 1.32146,0.51303c0.38349,0.33166 0.57522,0.81878 0.57522,1.46138v4.11985h2.33198c0.63222,0 1.11936,0.21247 1.46138,0.63741c0.34203,0.41457 0.51303,0.83952 0.51303,1.27482c0,0.53894 -0.18138,0.98979 -0.54414,1.35255c-0.35238,0.35238 -0.82916,0.52857 -1.43028,0.52857h-2.33198v7.27581c0,2.16617 0.05182,3.41506 0.15547,3.74672c0.114,0.3213 0.2591,0.53377 0.43531,0.63741c0.17619,0.09328 0.43013,0.13991 0.76179,0.13991l1.7723,-0.13991c0.62186,0 1.09345,0.19692 1.41474,0.59076c0.33166,0.39384 0.49749,0.77733 0.49749,1.15044z" fill="#ffffff" stroke="none" stroke-width="0" stroke-linecap="square"/></g></g></svg>