<svg version="1.1" xmlns="http://www.w3.org/2000/svg" xmlns:xlink="http://www.w3.org/1999/xlink" width="155.01201" height="71.544" viewBox="0,0,155.01201,71.544"><g transform="translate(-162.49399,-144.228)"><g data-paper-data="{&quot;isPaintingLayer&quot;:true}" fill-rule="nonzero" stroke="none" stroke-linejoin="miter" stroke-miterlimit="10" stroke-dasharray="" stroke-dashoffset="0" style="mix-blend-mode: normal"><path d="M162.49399,207.1c0,-15.39767 0,-46.66972 0,-54.92267c0,-3.91529 3.64948,-7.94933 7.94934,-7.94933c15.5113,0 108.45108,0 138.02934,0c5.68841,0 9.03333,4.24438 9.03333,8.31067c0,8.47827 0,40.26824 0,55.284c0,4.84946 -3.20355,7.94933 -8.672,7.94933c-29.17464,0 -122.81565,0 -138.39067,0c-4.29986,0 -7.94934,-3.40853 -7.94934,-8.672z" fill="#ffffff" stroke-width="0" stroke-linecap="butt"/><path d="M182.09959,163.95709c0.01816,0.10534 0.02724,0.20523 0.02724,0.29968c0,0.09444 -0.02724,0.19797 -0.08173,0.31057c-0.05449,0.10897 -0.12532,0.18888 -0.2125,0.23974c-0.14893,0.13077 -0.3251,0.19615 -0.52852,0.19615c-0.38504,0 -0.64476,-0.17254 -0.77916,-0.51762l-0.71377,-1.75991h-3.93391l-0.69743,1.74901c-0.1126,0.35234 -0.34508,0.52852 -0.69742,0.52852c-0.34871,0 -0.61025,-0.1453 -0.7846,-0.43589c-0.05812,-0.1126 -0.08718,-0.21613 -0.08718,-0.31057c0,-0.09444 0.02361,-0.2016 0.07083,-0.32147l2.89867,-7.12137c0.25064,-0.62114 0.56666,-0.98439 0.94806,-1.08973c0.07991,-0.0109 0.18707,-0.02906 0.32147,-0.05449c0.30876,0 0.53941,0.07083 0.69198,0.2125c0.20342,0.15256 0.40138,0.46313 0.5939,0.93172zM176.40576,161.29815h2.88778l-1.44934,-3.63969zM182.38012,161.66866c0,-0.95896 0.27425,-1.75809 0.82274,-2.3974c0.60298,-0.70106 1.38759,-1.05159 2.35381,-1.05159c0.81366,0 1.44389,0.17617 1.89067,0.52852c0.19252,0.13803 0.28878,0.31057 0.28878,0.51762c0,0.20342 -0.05993,0.36869 -0.1798,0.49583c-0.11624,0.12714 -0.25427,0.1907 -0.4141,0.1907c-0.15983,0 -0.28151,-0.03269 -0.36506,-0.09807c-0.35234,-0.19978 -0.7283,-0.29604 -1.12787,-0.28878c-0.49038,0 -0.87541,0.18344 -1.15511,0.55031c-0.33055,0.39957 -0.49583,0.91719 -0.49583,1.55286c0,0.59572 0.11987,1.09518 0.35961,1.49838c0.26153,0.42136 0.69198,0.63204 1.29133,0.63204c0.34145,0 0.76644,-0.12169 1.27498,-0.36506c0.2797,-0.16346 0.52489,-0.1235 0.73557,0.11987c0.11624,0.11624 0.17436,0.27425 0.17436,0.47403c0,0.19615 -0.09444,0.37051 -0.28333,0.52307c-0.18889,0.15256 -0.39593,0.26516 -0.62114,0.33781c-0.49764,0.17072 -0.9862,0.25427 -1.46568,0.25064c-0.47585,-0.00363 -0.90992,-0.09444 -1.30222,-0.27243c-0.3923,-0.18162 -0.71922,-0.44497 -0.98076,-0.79005c-0.53397,-0.63931 -0.80095,-1.44207 -0.80095,-2.4083zM192.92724,160.76964c0,-0.41046 -0.10897,-0.72648 -0.32692,-0.94806c-0.18889,-0.17799 -0.41954,-0.26699 -0.69197,-0.26699c-0.2688,0 -0.49764,0.03088 -0.68653,0.09263c-0.18889,0.06175 -0.35416,0.16346 -0.49583,0.30512c-0.30512,0.28696 -0.45769,0.70469 -0.45769,1.25319v3.06213c0,0.25064 -0.08718,0.43589 -0.26154,0.55576c-0.17072,0.11987 -0.35053,0.1798 -0.53941,0.1798c-0.20342,0 -0.37777,-0.0672 -0.52307,-0.2016c-0.14166,-0.1344 -0.2125,-0.31239 -0.2125,-0.53397v-7.82424c0,-0.25064 0.08536,-0.43589 0.25609,-0.55576c0.17072,-0.1235 0.34145,-0.18525 0.51217,-0.18525c0.18889,0 0.36324,0.05994 0.52307,0.17981c0.16346,0.11624 0.24519,0.30331 0.24519,0.56121l-0.17436,2.61534c-0.07991,-0.10897 0.11624,-0.28151 0.58845,-0.51762c0.4141,-0.21431 0.82456,-0.32147 1.23139,-0.32147c0.41046,0 0.75918,0.05086 1.04614,0.15256c0.28696,0.10171 0.55394,0.25063 0.80095,0.44679c0.49401,0.46858 0.74101,1.14058 0.74101,2.016v3.43264c0,0.25064 -0.09081,0.43589 -0.27243,0.55576c-0.17799,0.11987 -0.35416,0.1798 -0.52852,0.1798c-0.19978,0 -0.37959,-0.06538 -0.53941,-0.19615c-0.15619,-0.13077 -0.23429,-0.31057 -0.23429,-0.53941zM197.52948,156.50336c0,0.2579 -0.089,0.46677 -0.26699,0.62659c-0.17436,0.15983 -0.40501,0.23974 -0.69197,0.23974c-0.28696,0 -0.51944,-0.0781 -0.69742,-0.23429c-0.17799,-0.15983 -0.26699,-0.37051 -0.26699,-0.63204c0,-0.23248 0.089,-0.42863 0.26699,-0.58845c0.17799,-0.16346 0.41409,-0.24519 0.70832,-0.24519c0.29423,0 0.52489,0.08173 0.69198,0.24519c0.17072,0.16346 0.25609,0.35961 0.25609,0.58845zM195.80226,159.13505c0,-0.247 0.08173,-0.44134 0.24519,-0.583c0.16709,-0.1453 0.32328,-0.21795 0.46858,-0.21795c0.1453,0 0.26154,0.02179 0.34872,0.06538c0.08718,0.04359 0.16164,0.09444 0.22339,0.15256c0.18889,0.1235 0.28333,0.31784 0.28333,0.583v5.09992c0,0.2579 -0.08536,0.45042 -0.25608,0.57755c-0.17072,0.12714 -0.35234,0.1907 -0.54486,0.1907c-0.19615,0 -0.37414,-0.06538 -0.53397,-0.19615c-0.15619,-0.13077 -0.23429,-0.32147 -0.23429,-0.57211zM204.68166,161.48886c0,0.4032 -0.21976,0.62296 -0.65928,0.65929h-4.10827c0.03269,0.76281 0.39412,1.28225 1.08428,1.55831c0.18525,0.06175 0.40865,0.09263 0.67018,0.09263c0.5376,0 1.09517,-0.20342 1.67273,-0.61025c0.32329,-0.18525 0.6048,-0.16165 0.84454,0.07083c0.14166,0.15256 0.18889,0.30149 0.14166,0.44679c0,0.20342 -0.0672,0.36506 -0.2016,0.48493c-0.63931,0.63567 -1.48021,0.94988 -2.52272,0.94262c-0.95896,0 -1.73266,-0.31239 -2.32112,-0.93717c-0.65383,-0.64294 -0.98076,-1.48566 -0.98076,-2.52817c0,-0.95533 0.26699,-1.74901 0.80095,-2.38105c0.57392,-0.71195 1.37487,-1.06793 2.40285,-1.06793c1.02797,0 1.81802,0.31602 2.37015,0.94806c0.5158,0.56303 0.7846,1.33673 0.8064,2.32112zM203.14514,160.91675c-0.01816,-0.30512 -0.17435,-0.61933 -0.46858,-0.94262c-0.26517,-0.2797 -0.65565,-0.41955 -1.17145,-0.41955c-0.42862,0 -0.7955,0.15983 -1.10062,0.47948c-0.28333,0.33055 -0.43407,0.62478 -0.45224,0.88268zM209.24857,164.08785c-0.12714,0.29423 -0.27425,0.52125 -0.44134,0.68108c-0.16346,0.15619 -0.39412,0.23429 -0.69197,0.23429c-0.30149,0 -0.5376,-0.07628 -0.70832,-0.22884c-0.16709,-0.15619 -0.29968,-0.38867 -0.39775,-0.69742l-1.9942,-4.68583c-0.17436,-0.31965 -0.09807,-0.59935 0.22884,-0.83909c0.14166,-0.10897 0.29786,-0.18162 0.46858,-0.21795c0.39957,0 0.6502,0.18344 0.75191,0.55031l1.64549,3.94481l1.591,-3.95571c0.11624,-0.32329 0.33963,-0.50309 0.67018,-0.53941c0.33418,0 0.583,0.13622 0.74646,0.40865c0.08355,0.12714 0.11442,0.24156 0.09263,0.34326c-0.01816,0.10171 -0.03996,0.19434 -0.06538,0.27788zM217.87665,161.48886c0,0.4032 -0.21976,0.62296 -0.65928,0.65929h-4.10827c0.03269,0.76281 0.39412,1.28225 1.08428,1.55831c0.18525,0.06175 0.40865,0.09263 0.67018,0.09263c0.5376,0 1.09518,-0.20342 1.67273,-0.61025c0.32329,-0.18525 0.6048,-0.16165 0.84454,0.07083c0.14166,0.15256 0.18889,0.30149 0.14166,0.44679c0,0.20342 -0.0672,0.36506 -0.2016,0.48493c-0.63931,0.63567 -1.48021,0.94988 -2.52272,0.94262c-0.95896,0 -1.73266,-0.31239 -2.32111,-0.93717c-0.65383,-0.64294 -0.98076,-1.48566 -0.98076,-2.52817c0,-0.95533 0.26698,-1.74901 0.80095,-2.38105c0.57392,-0.71195 1.37487,-1.06793 2.40285,-1.06793c1.02797,0 1.81803,0.31602 2.37016,0.94806c0.5158,0.56303 0.7846,1.33673 0.8064,2.32112zM216.34014,160.91675c-0.01816,-0.30512 -0.17435,-0.61933 -0.46858,-0.94262c-0.26517,-0.2797 -0.65565,-0.41955 -1.17146,-0.41955c-0.42862,0 -0.7955,0.15983 -1.10062,0.47948c-0.28333,0.33055 -0.43407,0.62478 -0.45224,0.88268zM224.13264,159.39113c0.38141,-0.78097 1.10789,-1.17145 2.17945,-1.17145c1.12242,0 1.87433,0.47948 2.25573,1.43844c0.13077,0.34145 0.19615,0.73375 0.19615,1.17691v3.43264c0,0.247 -0.08354,0.43226 -0.25063,0.55576c-0.16709,0.11987 -0.33963,0.1798 -0.51762,0.1798c-0.19615,0 -0.37777,-0.06357 -0.54486,-0.1907c-0.16346,-0.13077 -0.24519,-0.31239 -0.24519,-0.54486v-3.49802c0,-0.41046 -0.10898,-0.72648 -0.32692,-0.94806c-0.19615,-0.17799 -0.46132,-0.26699 -0.7955,-0.26699c-0.6829,0 -1.14603,0.27425 -1.3894,0.82275c-0.09807,0.21068 -0.14711,0.4704 -0.14711,0.77915v3.11117c0,0.247 -0.08355,0.43226 -0.25064,0.55576c-0.16709,0.11987 -0.33963,0.1798 -0.51762,0.1798c-0.19978,0 -0.38141,-0.06538 -0.54486,-0.19615c-0.15983,-0.13077 -0.23974,-0.31057 -0.23974,-0.53941v-3.49802c0,-0.4141 -0.10534,-0.73012 -0.31602,-0.94806c-0.19615,-0.17799 -0.43407,-0.26699 -0.71377,-0.26699c-0.27606,0 -0.50309,0.03088 -0.68108,0.09263c-0.17799,0.06175 -0.33782,0.16164 -0.47948,0.29968c-0.28696,0.29059 -0.43952,0.7065 -0.45769,1.24773v3.07303c0,0.25064 -0.08718,0.43589 -0.26153,0.55576c-0.17072,0.11987 -0.3469,0.1798 -0.52852,0.1798c-0.17799,0 -0.35234,-0.06357 -0.52307,-0.1907c-0.17072,-0.12714 -0.25608,-0.30876 -0.25608,-0.54486v-5.18165c0,-0.23248 0.08355,-0.41591 0.25064,-0.55031c0.17072,-0.1344 0.33236,-0.2016 0.48493,-0.2016c0.15256,0 0.2688,0.01998 0.34871,0.05993c0.07991,0.03996 0.15075,0.07992 0.2125,0.11987c0.18162,0.15256 0.27243,0.33782 0.27243,0.55576h-0.17436c-0.07991,-0.11624 0.10897,-0.29241 0.56666,-0.52852c0.3923,-0.21431 0.84999,-0.32147 1.37306,-0.32147c0.8173,0 1.44934,0.26698 1.89612,0.80095c0.1453,0.19615 0.18707,0.31965 0.12532,0.37051zM236.05785,161.48886c0,0.4032 -0.21976,0.62296 -0.65928,0.65929h-4.10827c0.03269,0.76281 0.39412,1.28225 1.08428,1.55831c0.18525,0.06175 0.40865,0.09263 0.67018,0.09263c0.5376,0 1.09518,-0.20342 1.67273,-0.61025c0.32329,-0.18525 0.6048,-0.16165 0.84454,0.07083c0.14166,0.15256 0.18889,0.30149 0.14166,0.44679c0,0.20342 -0.0672,0.36506 -0.2016,0.48493c-0.63931,0.63567 -1.48021,0.94988 -2.52272,0.94262c-0.95896,0 -1.73266,-0.31239 -2.32112,-0.93717c-0.65383,-0.64294 -0.98076,-1.48566 -0.98076,-2.52817c0,-0.95533 0.26698,-1.74901 0.80095,-2.38105c0.57392,-0.71195 1.37487,-1.06793 2.40285,-1.06793c1.02797,0 1.81803,0.31602 2.37016,0.94806c0.5158,0.56303 0.7846,1.33673 0.8064,2.32112zM234.52133,160.91675c-0.01816,-0.30512 -0.17435,-0.61933 -0.46858,-0.94262c-0.26517,-0.2797 -0.65565,-0.41955 -1.17146,-0.41955c-0.42862,0 -0.7955,0.15983 -1.10062,0.47948c-0.28333,0.33055 -0.43408,0.62478 -0.45224,0.88268zM236.99052,159.08601c0,-0.22884 0.08355,-0.41047 0.25064,-0.54486c0.16709,-0.13803 0.33963,-0.20705 0.51762,-0.20705c0.35961,0 0.58663,0.12714 0.68108,0.38141c0.09444,0.25427 0.02724,0.56484 -0.2016,0.93172c-0.02543,-0.45405 0.20705,-0.81548 0.69742,-1.08428c0.41773,-0.22884 0.83001,-0.34326 1.23684,-0.34326c0.41046,0 0.76099,0.05267 1.05159,0.15801c0.29059,0.10171 0.55758,0.26154 0.80095,0.47948c0.49038,0.46495 0.73557,1.13513 0.73557,2.01055v3.39995c0,0.25064 -0.09081,0.43589 -0.27243,0.55576c-0.17799,0.11987 -0.35416,0.1798 -0.52852,0.1798c-0.19978,0 -0.37959,-0.06538 -0.53941,-0.19615c-0.15619,-0.13077 -0.23429,-0.31057 -0.23429,-0.53941v-3.46533c0,-0.42136 -0.10898,-0.73738 -0.32692,-0.94806c-0.20342,-0.19978 -0.45769,-0.29968 -0.76281,-0.29968c-0.44316,0 -0.81911,0.12532 -1.12787,0.37596c-0.29423,0.26153 -0.44134,0.68108 -0.44134,1.25864v3.07848c0,0.25064 -0.08718,0.43589 -0.26153,0.55576c-0.17072,0.11987 -0.35053,0.1798 -0.53941,0.1798c-0.20342,0 -0.37777,-0.0672 -0.52307,-0.2016c-0.14166,-0.1344 -0.2125,-0.31239 -0.2125,-0.53397zM247.84234,164.36029c0,0.5158 -0.47585,0.77371 -1.42754,0.77371c-0.6611,0 -1.13876,-0.19434 -1.43299,-0.583c-0.29059,-0.37777 -0.4486,-0.97894 -0.47403,-1.8035v-3.08393h-0.41955c-0.21068,0 -0.3814,-0.06901 -0.51217,-0.20705c-0.12714,-0.13803 -0.1907,-0.28878 -0.1907,-0.45224c0,-0.14893 0.05449,-0.29786 0.16346,-0.44679c0.1126,-0.14893 0.29241,-0.2234 0.53941,-0.2234h0.49583l0.04904,-1.47113c0.03632,-0.21794 0.13077,-0.38322 0.28333,-0.49583c0.15619,-0.1126 0.32147,-0.16891 0.49583,-0.16891c0.17436,0 0.32874,0.05994 0.46313,0.17981c0.1344,0.11624 0.2016,0.28696 0.2016,0.51217v1.44389h0.81729c0.22158,0 0.3923,0.07447 0.51217,0.2234c0.11987,0.1453 0.1798,0.29422 0.1798,0.44679c0,0.18889 -0.06357,0.3469 -0.1907,0.47403c-0.1235,0.1235 -0.29059,0.18525 -0.50127,0.18525h-0.81729v2.54996c0,0.75918 0.01816,1.19688 0.05449,1.31312c0.03996,0.1126 0.09081,0.18707 0.15256,0.22339c0.06175,0.03269 0.15074,0.04904 0.26698,0.04904l0.62114,-0.04904c0.21794,0 0.38322,0.06901 0.49583,0.20705c0.11624,0.13803 0.17436,0.27243 0.17436,0.4032zM257.35047,164.26766c0,0.25064 -0.09081,0.43589 -0.27243,0.55576c-0.17799,0.11987 -0.32873,0.1798 -0.45224,0.1798c-0.11987,0 -0.23248,-0.01271 -0.33782,-0.03814c-0.10534,-0.02906 -0.1907,-0.08355 -0.25608,-0.16346c-0.17072,-0.11624 -0.25609,-0.29423 -0.25609,-0.53397h0.16891c-0.03996,0.36324 -0.44679,0.62296 -1.22049,0.77916c-0.23248,0.05812 -0.48675,0.08718 -0.76281,0.08718c-0.27243,0 -0.56121,-0.04904 -0.86634,-0.14711c-0.30512,-0.10171 -0.56847,-0.26335 -0.79005,-0.48493c-0.48311,-0.45769 -0.72467,-1.13513 -0.72467,-2.03234v-3.36726c0,-0.23611 0.0781,-0.42318 0.23429,-0.56121c0.15619,-0.13803 0.33418,-0.20705 0.53397,-0.20705c0.19978,0 0.37778,0.06901 0.53397,0.20705c0.15619,0.13803 0.23429,0.3251 0.23429,0.56121v3.44899c0,0.49401 0.08718,0.82456 0.26154,0.99165c0.18162,0.17072 0.46858,0.25609 0.86088,0.25609c0.66837,0 1.12787,-0.26698 1.37851,-0.80095c0.09807,-0.18889 0.15074,-0.40502 0.15801,-0.64839v-3.24739c0,-0.24337 0.08355,-0.43226 0.25064,-0.56666c0.17072,-0.1344 0.35598,-0.2016 0.55576,-0.2016c0.19978,0 0.37777,0.06901 0.53397,0.20705c0.15619,0.13803 0.23429,0.3251 0.23429,0.56121zM258.65084,159.08601c0,-0.22884 0.08355,-0.41047 0.25064,-0.54486c0.16709,-0.13803 0.33963,-0.20705 0.51762,-0.20705c0.35961,0 0.58663,0.12714 0.68108,0.38141c0.09444,0.25427 0.02724,0.56484 -0.2016,0.93172c-0.02543,-0.45405 0.20704,-0.81548 0.6974,-1.08428c0.41773,-0.22884 0.83001,-0.34326 1.23684,-0.34326c0.41046,0 0.76099,0.05267 1.05159,0.15801c0.29059,0.10171 0.55758,0.26154 0.80095,0.47948c0.49038,0.46495 0.73557,1.13513 0.73557,2.01055v3.39995c0,0.25064 -0.09081,0.43589 -0.27243,0.55576c-0.17799,0.11987 -0.35416,0.1798 -0.52852,0.1798c-0.19978,0 -0.37959,-0.06538 -0.53941,-0.19615c-0.15619,-0.13077 -0.23429,-0.31057 -0.23429,-0.53941v-3.46533c0,-0.42136 -0.10898,-0.73738 -0.32692,-0.94806c-0.20342,-0.19978 -0.45769,-0.29968 -0.76281,-0.29968c-0.44316,0 -0.81911,0.12532 -1.12787,0.37596c-0.29421,0.26153 -0.44132,0.68108 -0.44132,1.25864v3.07848c0,0.25064 -0.08718,0.43589 -0.26154,0.55576c-0.17072,0.11987 -0.35053,0.1798 -0.53941,0.1798c-0.20342,0 -0.37777,-0.0672 -0.52307,-0.2016c-0.14166,-0.1344 -0.2125,-0.31239 -0.2125,-0.53397zM265.72129,156.47611c0,-0.27243 0.08536,-0.46858 0.25609,-0.58845c0.17072,-0.1235 0.31784,-0.18525 0.44134,-0.18525c0.12714,0 0.23611,0.00908 0.32692,0.02724c0.09444,0.01816 0.18162,0.0672 0.26153,0.14711c0.18889,0.11987 0.28333,0.31965 0.28333,0.59935v7.75886c0,0.2579 -0.08536,0.45042 -0.25609,0.57755c-0.17072,0.12714 -0.35234,0.1907 -0.54486,0.1907c-0.19615,0 -0.37414,-0.06538 -0.53397,-0.19615c-0.15619,-0.13077 -0.23429,-0.32147 -0.23429,-0.57211zM268.17131,161.68501c0,-0.4141 0.0672,-0.83001 0.2016,-1.24774c0.1344,-0.41773 0.33964,-0.7955 0.6157,-1.13331c0.59572,-0.72285 1.42936,-1.08428 2.50092,-1.08428c1.0752,0 1.90884,0.36324 2.50092,1.08973c0.54486,0.66837 0.8173,1.45479 0.8173,2.35926c0,0.91174 -0.27243,1.69816 -0.8173,2.35926c-0.59208,0.73738 -1.42573,1.10607 -2.50092,1.10607c-1.07156,0 -1.90521,-0.36688 -2.50092,-1.10062c-0.54486,-0.65383 -0.8173,-1.43662 -0.8173,-2.34836zM269.78955,161.68501c0,0.23248 0.03088,0.47766 0.09263,0.73557c0.06538,0.2579 0.17799,0.49583 0.33781,0.71377c0.30876,0.44316 0.73193,0.66473 1.26953,0.66473c0.57029,0 0.99165,-0.21613 1.26408,-0.64839c0.2797,-0.44316 0.41955,-0.93717 0.41955,-1.48203c0,-0.55939 -0.13803,-1.04069 -0.4141,-1.44389c-0.28696,-0.44679 -0.71014,-0.67018 -1.26953,-0.67018c-0.5376,0 -0.96078,0.22703 -1.26953,0.68108c-0.28696,0.38867 -0.43044,0.87178 -0.43044,1.44934zM275.27415,161.66866c0,-0.95896 0.27425,-1.75809 0.82275,-2.3974c0.60298,-0.70106 1.38758,-1.05159 2.35381,-1.05159c0.81366,0 1.44389,0.17617 1.89068,0.52852c0.19252,0.13803 0.28878,0.31057 0.28878,0.51762c0,0.20342 -0.05994,0.36869 -0.17981,0.49583c-0.11624,0.12714 -0.25427,0.1907 -0.4141,0.1907c-0.15983,0 -0.28151,-0.03269 -0.36506,-0.09807c-0.35234,-0.19978 -0.7283,-0.29604 -1.12787,-0.28878c-0.49038,0 -0.87541,0.18344 -1.15511,0.55031c-0.33055,0.39957 -0.49583,0.91719 -0.49583,1.55286c0,0.59572 0.11987,1.09518 0.35961,1.49838c0.26153,0.42136 0.69197,0.63204 1.29132,0.63204c0.34145,0 0.76644,-0.12169 1.27498,-0.36506c0.2797,-0.16346 0.52488,-0.1235 0.73556,0.11987c0.11624,0.11624 0.17436,0.27425 0.17436,0.47403c0,0.19615 -0.09444,0.37051 -0.28333,0.52307c-0.18889,0.15256 -0.39593,0.26516 -0.62114,0.33781c-0.49764,0.17072 -0.9862,0.25427 -1.46568,0.25064c-0.47585,-0.00363 -0.90992,-0.09444 -1.30222,-0.27243c-0.3923,-0.18162 -0.71922,-0.44497 -0.98075,-0.79005c-0.53397,-0.63931 -0.80095,-1.44207 -0.80095,-2.4083zM283.22773,162.15904v2.07593c0,0.25427 -0.08355,0.44679 -0.25064,0.57755c-0.16346,0.12714 -0.34145,0.1907 -0.53397,0.1907c-0.18889,0 -0.36324,-0.06538 -0.52307,-0.19615c-0.15619,-0.13077 -0.23429,-0.32147 -0.23429,-0.57211v-7.75886c0,-0.2688 0.07992,-0.46495 0.23974,-0.58845c0.15983,-0.1235 0.30875,-0.18525 0.44679,-0.18525c0.13803,0 0.25609,0.00908 0.35416,0.02724c0.10171,0.01816 0.19434,0.07265 0.27788,0.16346c0.14893,0.1235 0.22339,0.31784 0.22339,0.583v4.01019l2.28298,-1.91247c0.14166,-0.15983 0.31057,-0.23974 0.50672,-0.23974c0.19252,0 0.36324,0.07083 0.51217,0.2125c0.14893,0.13803 0.22339,0.28696 0.22339,0.44679c0,0.23611 -0.0781,0.41228 -0.23429,0.52852l-2.13042,1.7817l2.47913,2.50637c0.11624,0.11624 0.17436,0.25245 0.17436,0.40865c0,0.15619 -0.02542,0.27788 -0.07628,0.36506c-0.04722,0.08718 -0.11079,0.16346 -0.1907,0.22884c-0.15983,0.12714 -0.33055,0.1907 -0.51217,0.1907c-0.18162,0 -0.35416,-0.08173 -0.51762,-0.24519zM293.67972,161.48886c0,0.4032 -0.21976,0.62296 -0.65928,0.65929h-4.10827c0.03269,0.76281 0.39412,1.28225 1.08428,1.55831c0.18525,0.06175 0.40865,0.09263 0.67018,0.09263c0.5376,0 1.09518,-0.20342 1.67273,-0.61025c0.32329,-0.18525 0.6048,-0.16165 0.84454,0.07083c0.14166,0.15256 0.18889,0.30149 0.14166,0.44679c0,0.20342 -0.0672,0.36506 -0.2016,0.48493c-0.63931,0.63567 -1.48021,0.94988 -2.52272,0.94262c-0.95896,0 -1.73266,-0.31239 -2.32112,-0.93717c-0.65383,-0.64294 -0.98076,-1.48566 -0.98076,-2.52817c0,-0.95533 0.26698,-1.74901 0.80095,-2.38105c0.57392,-0.71195 1.37487,-1.06793 2.40285,-1.06793c1.02797,0 1.81803,0.31602 2.37016,0.94806c0.5158,0.56303 0.7846,1.33673 0.8064,2.32112zM292.14321,160.91675c-0.01816,-0.30512 -0.17435,-0.61933 -0.46858,-0.94262c-0.26517,-0.2797 -0.65565,-0.41955 -1.17146,-0.41955c-0.42862,0 -0.7955,0.15983 -1.10062,0.47948c-0.28333,0.33055 -0.43407,0.62478 -0.45224,0.88268zM299.04758,164.26766c-0.31239,0.57755 -0.97894,0.86634 -1.99965,0.86634c-0.93353,0 -1.66546,-0.37414 -2.1958,-1.12242c-0.43952,-0.6502 -0.65929,-1.43118 -0.65929,-2.34292c0,-1.54741 0.5267,-2.59537 1.5801,-3.14386c0.35961,-0.20342 0.71922,-0.30512 1.07883,-0.30512c0.36324,0 0.66292,0.02179 0.89903,0.06538c0.23611,0.03996 0.46313,0.11987 0.68108,0.23974c0.45042,0.22521 0.65747,0.38141 0.62114,0.46858l-0.11442,-2.54996c0,-0.26153 0.08718,-0.45042 0.26154,-0.56666c0.17436,-0.11624 0.35416,-0.17436 0.53941,-0.17436c0.19615,0 0.37232,0.05994 0.52852,0.17981c0.15983,0.11624 0.23974,0.30331 0.23974,0.56121v7.82424c0,0.247 -0.08536,0.43226 -0.25609,0.55576c-0.17072,0.11987 -0.32147,0.1798 -0.45224,0.1798c-0.12714,0 -0.23974,-0.01271 -0.33782,-0.03814c-0.09807,-0.02906 -0.18525,-0.08173 -0.26153,-0.15801c-0.17436,-0.11987 -0.26154,-0.29968 -0.26154,-0.53941zM297.23863,163.79908c1.11152,0 1.66728,-0.74283 1.66728,-2.22849c0,-0.95896 -0.27243,-1.57828 -0.8173,-1.85798c-0.20705,-0.10534 -0.45768,-0.15801 -0.75191,-0.15801c-0.29059,0 -0.52852,0.05449 -0.71377,0.16346c-0.18162,0.10534 -0.33418,0.25245 -0.45769,0.44134c-0.23611,0.37051 -0.35416,0.84635 -0.35416,1.42754c0,0.87178 0.19797,1.50564 0.5939,1.90158c0.19978,0.20705 0.47766,0.31057 0.83364,0.31057zM301.85691,159.18408c0,-0.39593 0.18707,-0.67381 0.56121,-0.83364c0.10897,-0.03269 0.23974,-0.04904 0.3923,-0.04904c0.15256,0 0.28333,0.02361 0.3923,0.07083c0.10897,0.04722 0.20705,0.1126 0.29423,0.19615c0.18525,0.17436 0.2688,0.38322 0.25064,0.62659c0,0.37777 -0.18162,0.63931 -0.54486,0.7846c-0.10534,0.04359 -0.23066,0.07083 -0.37596,0.08173c-0.1453,0.00727 -0.27243,-0.0109 -0.3814,-0.05449c-0.10897,-0.04722 -0.21431,-0.10352 -0.31602,-0.16891c-0.18162,-0.19978 -0.27243,-0.41773 -0.27243,-0.65384zM301.91684,164.45836c-0.03996,-0.11624 -0.05993,-0.22884 -0.05993,-0.33781c0,-0.10897 0.01998,-0.21795 0.05993,-0.32692c0.04359,-0.10897 0.11079,-0.20523 0.2016,-0.28878c0.09444,-0.08355 0.19797,-0.14893 0.31057,-0.19615c0.11624,-0.04722 0.247,-0.07083 0.3923,-0.07083c0.1453,0 0.27243,0.02361 0.38141,0.07083c0.10897,0.04722 0.20705,0.11442 0.29423,0.2016c0.09081,0.08718 0.15438,0.18525 0.1907,0.29423c0.03996,0.10534 0.05993,0.21249 0.05993,0.32147c0,0.10534 -0.01998,0.21432 -0.05993,0.32692c-0.03632,0.1126 -0.09989,0.20886 -0.1907,0.28878c-0.09081,0.07991 -0.1907,0.14348 -0.29968,0.1907c-0.10534,0.04722 -0.23066,0.07083 -0.37596,0.07083c-0.1453,0 -0.27425,-0.02179 -0.38685,-0.06538c-0.1126,-0.04722 -0.21613,-0.10897 -0.31057,-0.18525c-0.09444,-0.07991 -0.16346,-0.17799 -0.20705,-0.29423z" fill="#000000" stroke-width="1" stroke-linecap="square"/><path d="M174.33509,184.43278c-0.41642,0 -0.72874,-0.13087 -0.93695,-0.39262c-0.20226,-0.26175 -0.30339,-0.53837 -0.30339,-0.82986c0,-0.29149 0.10113,-0.56811 0.30339,-0.82986c0.20821,-0.26175 0.52052,-0.39262 0.93695,-0.39262h9.58356c0.39856,0 0.69899,0.13088 0.90125,0.39262c0.20226,0.26175 0.30339,0.54134 0.30339,0.83877c0,0.29149 -0.10708,0.56811 -0.32124,0.82986c-0.21416,0.2558 -0.50863,0.3837 -0.8834,0.3837h-3.4176v11.50206c0,0.61868 -0.2796,1.03807 -0.83877,1.25817c-0.15467,0.05354 -0.3599,0.08031 -0.61571,0.08031c-0.24985,0 -0.52647,-0.10708 -0.82986,-0.32124c-0.29745,-0.22011 -0.44616,-0.55919 -0.44616,-1.01726v-11.50206zM195.81029,191.51782c0,0.66032 -0.3599,1.02022 -1.07971,1.07971h-6.72813c0.05354,1.24926 0.64544,2.09994 1.77572,2.55204c0.30339,0.10113 0.66924,0.1517 1.09756,0.1517c0.88043,0 1.79358,-0.33313 2.73944,-0.9994c0.52945,-0.30339 0.99049,-0.26472 1.3831,0.11601c0.232,0.24985 0.30934,0.49375 0.232,0.7317c0,0.33313 -0.11005,0.59786 -0.33016,0.79417c-1.04699,1.04105 -2.42414,1.55562 -4.13146,1.54372c-1.57049,0 -2.8376,-0.5116 -3.8013,-1.5348c-1.07079,-1.05294 -1.60618,-2.43306 -1.60618,-4.14039c0,-1.56454 0.43724,-2.86437 1.31172,-3.89946c0.93991,-1.16597 2.25164,-1.74896 3.93515,-1.74896c1.68353,0 2.97739,0.51755 3.88161,1.55264c0.84473,0.92207 1.28495,2.18917 1.32064,3.8013zM193.29394,190.58089c-0.02974,-0.4997 -0.28554,-1.01428 -0.7674,-1.54372c-0.43427,-0.45806 -1.07377,-0.68709 -1.9185,-0.68709c-0.70197,0 -1.3028,0.26175 -1.80249,0.78524c-0.464,0.54134 -0.71089,1.0232 -0.74063,1.44556zM199.38115,188.50177c0.19632,-1.5586 1.11541,-2.33789 2.75728,-2.33789c0.40452,0 0.71386,0.12493 0.92802,0.37478c0.22011,0.24389 0.33016,0.50862 0.33016,0.79417c0,0.28554 -0.11005,0.55325 -0.33016,0.80309c-0.21416,0.24389 -0.51755,0.36585 -0.91016,0.36585c-0.38667,0 -0.72278,0.05651 -1.00833,0.16955c-0.28554,0.11303 -0.51457,0.27066 -0.68709,0.47293c-0.40452,0.49375 -0.60678,1.15407 -0.60678,1.98096v4.94348c0,0.41047 -0.14278,0.71387 -0.42832,0.91018c-0.2796,0.19632 -0.52647,0.29447 -0.74063,0.29447c-0.21416,0 -0.39561,-0.02083 -0.54432,-0.06247c-0.14278,-0.0476 -0.27662,-0.13384 -0.40155,-0.25877c-0.2677,-0.17251 -0.40155,-0.46698 -0.40155,-0.8834v-8.45923c0,-0.36288 0.12493,-0.66329 0.37478,-0.90125c0.2558,-0.23795 0.56811,-0.35693 0.93693,-0.35693c0.36882,0 0.66032,0.12493 0.87448,0.37478c0.22011,0.24389 0.33016,0.53837 0.33016,0.8834zM209.62044,190.25965c0.37478,0 0.58596,0 0.63355,0v-0.33909c0,-1.04699 -0.6038,-1.57049 -1.81141,-1.57049c-0.62462,0 -1.06782,0.05057 -1.32956,0.1517c-0.53539,0.19632 -0.93693,0.37776 -1.20464,0.54432c-0.2677,0.16061 -0.52647,0.24094 -0.77632,0.24094c-0.24389,0 -0.47591,-0.09518 -0.69601,-0.28554c-0.22011,-0.19036 -0.33016,-0.44319 -0.33016,-0.75847c0,-0.28554 0.13087,-0.54134 0.39262,-0.7674c0.91018,-0.87448 2.23379,-1.31171 3.97085,-1.31171c2.06424,0 3.39975,0.71981 4.00653,2.15942c0.19632,0.4997 0.29447,1.06782 0.29447,1.70434l-0.05354,6.06781c0,0.38072 -0.13087,0.67221 -0.39262,0.87448c-0.26175,0.20226 -0.53837,0.30339 -0.82986,0.30339c-0.29149,0 -0.57109,-0.08626 -0.83879,-0.25878c-0.2677,-0.17846 -0.40155,-0.47887 -0.40155,-0.90125h0.2677c-0.06543,0.55919 -0.71387,0.96966 -1.94527,1.23141c-0.36288,0.09518 -0.77632,0.14276 -1.24033,0.14276c-0.464,0 -0.93099,-0.07139 -1.40095,-0.21415c-0.464,-0.13682 -0.87745,-0.35694 -1.24033,-0.66033c-0.76145,-0.63653 -1.14218,-1.49315 -1.14218,-2.5699c0,-2.5223 2.0226,-3.78345 6.06781,-3.78345zM210.36107,192.33876c-0.01785,0.07139 -0.21416,0.10708 -0.58894,0.10708c-0.37478,0 -0.74658,0.00595 -1.11541,0.01785c-0.36882,0.00595 -0.71089,0.04462 -1.02617,0.11601c-0.30934,0.06543 -0.58596,0.16656 -0.82986,0.30339c-0.44021,0.232 -0.67222,0.61273 -0.69601,1.14218c0,0.38667 0.16359,0.69304 0.49078,0.9191c0.27365,0.22606 0.68115,0.34503 1.22249,0.35693c0.66627,0 1.24032,-0.21118 1.72219,-0.63355c0.42832,-0.39856 0.66627,-1.02023 0.71387,-1.86496zM222.7522,186.08357c0,0.26175 0.09518,0.52052 0.28554,0.77632c0.19036,0.2558 0.45806,0.47887 0.80309,0.66924c0.34503,0.18441 0.75549,0.35396 1.23141,0.50863c0.47591,0.15467 0.9875,0.32124 1.5348,0.4997c0.54729,0.17251 1.09756,0.36882 1.6508,0.58894c0.55324,0.22011 1.04105,0.50268 1.46341,0.84771c0.95181,0.7793 1.42772,1.82926 1.42772,3.14991c0,0.63653 -0.14872,1.24032 -0.44616,1.81141c-0.29745,0.56514 -0.71089,1.0351 -1.24033,1.40988c-1.04699,0.76145 -2.42712,1.14217 -4.14039,1.14217c-1.61808,0 -3.04283,-0.41344 -4.27423,-1.24032c-0.86259,-0.54134 -1.29387,-1.05592 -1.29387,-1.54372c0,-0.4521 0.19929,-0.80606 0.59786,-1.06186c0.13682,-0.13682 0.31528,-0.20523 0.5354,-0.20523c0.22606,0 0.41939,0.05948 0.58001,0.17846c0.16656,0.11898 0.33016,0.23795 0.49078,0.35693c0.16061,0.11898 0.3599,0.24985 0.59786,0.39262c0.23795,0.13682 0.48781,0.26175 0.74955,0.37478c0.63058,0.2558 1.2552,0.37478 1.87388,0.35693c0.61868,-0.01785 1.10649,-0.06543 1.46342,-0.14276c0.36288,-0.08328 0.67816,-0.21118 0.94587,-0.3837c0.52349,-0.35693 0.7912,-0.80309 0.80309,-1.33849c0,-0.69006 -0.34801,-1.22843 -1.04402,-1.6151c-0.35693,-0.19036 -0.7674,-0.36585 -1.23141,-0.52647c-0.464,-0.16656 -0.96669,-0.32719 -1.50804,-0.48185c-0.54134,-0.16061 -1.08863,-0.3599 -1.64187,-0.59786c-0.54729,-0.23795 -1.04105,-0.52647 -1.48126,-0.86554c-0.97561,-0.7793 -1.46341,-1.78167 -1.46341,-3.00713c0,-0.64248 0.15467,-1.2433 0.46401,-1.80249c0.30934,-0.55919 0.72872,-1.01726 1.25817,-1.37418c0.9875,-0.69601 2.21594,-1.05294 3.68531,-1.07079c2.11183,0 3.83105,0.69899 5.15763,2.09697c0.13088,0.20821 0.19632,0.40452 0.19632,0.58894c0,0.18441 -0.00892,0.35395 -0.02677,0.50862c-0.01189,0.14872 -0.0922,0.29745 -0.24094,0.44616c-0.20821,0.2677 -0.48781,0.40155 -0.83879,0.40155c-0.35099,0 -0.67519,-0.17252 -0.97264,-0.51755c-0.5116,-0.37478 -0.92504,-0.61571 -1.24032,-0.72278c-0.64842,-0.26175 -1.27304,-0.39262 -1.87388,-0.39262c-0.7793,0 -1.43961,0.15467 -1.98096,0.464c-0.57109,0.33313 -0.85663,0.77334 -0.85663,1.32064zM235.28109,186.85989c0.15467,-0.464 1.17787,-0.69601 3.0696,-0.69601c1.56454,0 2.76324,0.6038 3.59607,1.81141c0.71387,1.06483 1.07079,2.36169 1.07079,3.89054c0,1.57643 -0.37776,2.86733 -1.13325,3.87269c-0.85068,1.17787 -2.03747,1.76086 -3.56038,1.74896c-1.28495,0 -2.33789,-0.39262 -3.15883,-1.17787c-0.28554,-0.24389 -0.35693,-0.44021 -0.21416,-0.58894l0.29447,4.14931c0,0.42238 -0.13979,0.73468 -0.41939,0.93693c-0.2796,0.20226 -0.55919,0.30339 -0.83877,0.30339c-0.32124,0 -0.62165,-0.11005 -0.90125,-0.33016c-0.27365,-0.22011 -0.41047,-0.52349 -0.41047,-0.91016v-12.28731c0,-0.41642 0.13087,-0.72576 0.39262,-0.92802c0.26175,-0.20226 0.59488,-0.30339 0.9994,-0.30339c0.92207,0 1.3266,0.16955 1.21356,0.50862zM235.79864,189.31379c-0.20821,0.28554 -0.35395,0.65139 -0.43723,1.09756c-0.07733,0.44021 -0.11601,0.91018 -0.11601,1.40988c0,0.49375 0.05651,0.95181 0.16955,1.37418c0.11303,0.41642 0.27662,0.79715 0.49078,1.14218c0.45806,0.66032 1.13325,0.98155 2.02558,0.9637c0.83879,0 1.47233,-0.34503 1.90065,-1.03509c0.35693,-0.60083 0.53539,-1.4188 0.53539,-2.45389c0,-1.58834 -0.42533,-2.64425 -1.27603,-3.16775c-0.29149,-0.18441 -0.69006,-0.2796 -1.19572,-0.28554c-0.4997,-0.00595 -0.92206,0.08031 -1.2671,0.25877c-0.34503,0.17251 -0.62165,0.40452 -0.82986,0.69601zM254.31079,191.51782c0,0.66032 -0.3599,1.02022 -1.07971,1.07971h-6.72813c0.05354,1.24926 0.64544,2.09994 1.77572,2.55204c0.30339,0.10113 0.66924,0.1517 1.09756,0.1517c0.88043,0 1.79358,-0.33313 2.73944,-0.9994c0.52945,-0.30339 0.99049,-0.26472 1.3831,0.11601c0.232,0.24985 0.30934,0.49375 0.232,0.7317c0,0.33313 -0.11005,0.59786 -0.33016,0.79417c-1.04699,1.04105 -2.42414,1.55562 -4.13146,1.54372c-1.57049,0 -2.83758,-0.5116 -3.8013,-1.5348c-1.07079,-1.05294 -1.60618,-2.43306 -1.60618,-4.14039c0,-1.56454 0.43723,-2.86437 1.31171,-3.89946c0.93991,-1.16597 2.25164,-1.74896 3.93515,-1.74896c1.68353,0 2.97739,0.51755 3.88161,1.55264c0.84473,0.92207 1.28495,2.18917 1.32064,3.8013zM251.79445,190.58089c-0.02974,-0.4997 -0.28554,-1.01428 -0.7674,-1.54372c-0.43427,-0.45806 -1.07377,-0.68709 -1.9185,-0.68709c-0.70197,0 -1.3028,0.26175 -1.80249,0.78524c-0.464,0.54134 -0.71089,1.0232 -0.74063,1.44556zM265.65383,191.51782c0,0.66032 -0.3599,1.02022 -1.07971,1.07971h-6.72815c0.05354,1.24926 0.64544,2.09994 1.77572,2.55204c0.3034,0.10113 0.66925,0.1517 1.09758,0.1517c0.88043,0 1.79358,-0.33313 2.73944,-0.9994c0.52945,-0.30339 0.99049,-0.26472 1.3831,0.11601c0.232,0.24985 0.30934,0.49375 0.232,0.7317c0,0.33313 -0.11005,0.59786 -0.33016,0.79417c-1.04699,1.04105 -2.42414,1.55562 -4.13146,1.54372c-1.57051,0 -2.83761,-0.5116 -3.80133,-1.5348c-1.07079,-1.05294 -1.60618,-2.43306 -1.60618,-4.14039c0,-1.56454 0.43724,-2.86437 1.31172,-3.89946c0.93991,-1.16597 2.25164,-1.74896 3.93517,-1.74896c1.68353,0 2.97739,0.51755 3.88161,1.55264c0.84473,0.92207 1.28495,2.18917 1.32064,3.8013zM263.13748,190.58089c-0.02974,-0.4997 -0.28554,-1.01428 -0.7674,-1.54372c-0.43427,-0.45806 -1.07377,-0.68709 -1.9185,-0.68709c-0.70198,0 -1.30281,0.26175 -1.80252,0.78524c-0.464,0.54134 -0.71089,1.0232 -0.74063,1.44556zM274.44479,196.06867c-0.5116,0.94587 -1.60322,1.4188 -3.27483,1.4188c-1.52885,0 -2.72753,-0.61273 -3.59607,-1.83818c-0.71981,-1.06483 -1.07971,-2.34384 -1.07971,-3.837c0,-2.5342 0.86259,-4.25045 2.58775,-5.14871c0.58894,-0.33313 1.17787,-0.4997 1.76681,-0.4997c0.59488,0 1.08566,0.03569 1.47233,0.10708c0.38667,0.06543 0.75847,0.19632 1.11541,0.39262c0.73766,0.36882 1.07674,0.62462 1.01726,0.7674l-0.18738,-4.17608c0,-0.42832 0.14278,-0.73766 0.42832,-0.92802c0.28554,-0.19036 0.58,-0.28554 0.88336,-0.28554c0.32124,0 0.60976,0.09816 0.86554,0.29447c0.26175,0.19036 0.39262,0.49672 0.39262,0.9191v12.81378c0,0.40452 -0.13979,0.70791 -0.41939,0.91018c-0.2796,0.19632 -0.52647,0.29447 -0.74063,0.29447c-0.20821,0 -0.39261,-0.02083 -0.5532,-0.06247c-0.16061,-0.0476 -0.30339,-0.13384 -0.42832,-0.25877c-0.28554,-0.19632 -0.42832,-0.49078 -0.42832,-0.8834h0.17846zM271.48228,195.30129c1.82034,0 2.73051,-1.21653 2.73051,-3.64961c0,-1.57049 -0.44616,-2.58477 -1.33849,-3.04283c-0.33909,-0.17251 -0.74955,-0.25878 -1.23141,-0.25878c-0.47591,0 -0.86556,0.08924 -1.16895,0.2677c-0.29745,0.17251 -0.54728,0.41344 -0.74955,0.72278c-0.38667,0.60678 -0.58001,1.38608 -0.58001,2.33789c0,1.42772 0.32422,2.46579 0.97264,3.11421c0.32719,0.33909 0.78228,0.50863 1.36526,0.50863zM280.83025,188.50177c0.19632,-1.5586 1.1154,-2.33789 2.75728,-2.33789c0.40452,0 0.71387,0.12493 0.92802,0.37478c0.22011,0.24389 0.33016,0.50862 0.33016,0.79417c0,0.28554 -0.11005,0.55325 -0.33016,0.80309c-0.21416,0.24389 -0.51755,0.36585 -0.91016,0.36585c-0.38667,0 -0.72278,0.05651 -1.00833,0.16955c-0.28554,0.11303 -0.51457,0.27066 -0.68709,0.47293c-0.40452,0.49375 -0.60678,1.15407 -0.60678,1.98096v4.94348c0,0.41047 -0.14278,0.71387 -0.42832,0.91018c-0.2796,0.19632 -0.52647,0.29447 -0.74063,0.29447c-0.21416,0 -0.39561,-0.02083 -0.54432,-0.06247c-0.14278,-0.0476 -0.27662,-0.13384 -0.40155,-0.25877c-0.2677,-0.17251 -0.40155,-0.46698 -0.40155,-0.8834v-8.45923c0,-0.36288 0.12493,-0.66329 0.37478,-0.90125c0.2558,-0.23795 0.56811,-0.35693 0.93695,-0.35693c0.36882,0 0.66032,0.12493 0.87448,0.37478c0.22011,0.24389 0.33016,0.53837 0.33016,0.8834zM295.32592,196.06867c0,0.41047 -0.14872,0.71387 -0.44616,0.91018c-0.29149,0.19632 -0.53837,0.29447 -0.74063,0.29447c-0.19632,0 -0.38073,-0.02083 -0.55324,-0.06247c-0.17251,-0.0476 -0.31232,-0.13682 -0.41939,-0.2677c-0.2796,-0.19036 -0.41939,-0.48185 -0.41939,-0.87448h0.27662c-0.06543,0.59488 -0.7317,1.02023 -1.99881,1.27603c-0.38072,0.09518 -0.79715,0.14276 -1.24926,0.14276c-0.44616,0 -0.9191,-0.08031 -1.4188,-0.24092c-0.4997,-0.16656 -0.93099,-0.43129 -1.29387,-0.79417c-0.7912,-0.74955 -1.18679,-1.85901 -1.18679,-3.32837v-5.51457c0,-0.38667 0.1279,-0.69304 0.3837,-0.9191c0.2558,-0.22606 0.54728,-0.33909 0.87448,-0.33909c0.32719,0 0.61867,0.11303 0.87448,0.33909c0.2558,0.22606 0.3837,0.53243 0.3837,0.9191v5.64841c0,0.80905 0.14278,1.35039 0.42832,1.62403c0.29745,0.2796 0.7674,0.41939 1.40987,0.41939c1.09459,0 1.84711,-0.43724 2.25758,-1.31172c0.16061,-0.30934 0.24688,-0.66329 0.25877,-1.06186v-5.31826c0,-0.39856 0.13682,-0.70791 0.41047,-0.92802c0.2796,-0.22011 0.58299,-0.33016 0.91016,-0.33016c0.32719,0 0.61867,0.11303 0.87448,0.33909c0.2558,0.22606 0.3837,0.53243 0.3837,0.9191zM297.45555,187.58268c0,-0.37478 0.13682,-0.67221 0.41047,-0.89233c0.27365,-0.22606 0.55622,-0.33909 0.84771,-0.33909c0.58894,0 0.96073,0.20821 1.1154,0.62462c0.15467,0.41642 0.04462,0.92504 -0.33016,1.52587c-0.04165,-0.7436 0.33909,-1.33551 1.14218,-1.77572c0.68412,-0.37478 1.35931,-0.56216 2.02558,-0.56216c0.67221,0 1.24627,0.08626 1.72219,0.25877c0.47591,0.16656 0.91314,0.42832 1.31171,0.78524c0.80309,0.76145 1.20464,1.85901 1.20464,3.29268v5.56811c0,0.41047 -0.14873,0.71387 -0.44616,0.91018c-0.29149,0.19632 -0.58001,0.29447 -0.86554,0.29447c-0.32719,0 -0.62165,-0.10708 -0.8834,-0.32124c-0.2558,-0.21416 -0.3837,-0.50863 -0.3837,-0.8834v-5.67518c0,-0.69006 -0.17846,-1.20761 -0.53539,-1.55264c-0.33313,-0.32719 -0.74955,-0.49078 -1.24926,-0.49078c-0.72576,0 -1.34146,0.20523 -1.84711,0.61571c-0.48185,0.42832 -0.72278,1.11541 -0.72278,2.06126v5.04163c0,0.41047 -0.14276,0.71387 -0.42832,0.91018c-0.2796,0.19632 -0.57406,0.29447 -0.8834,0.29447c-0.33313,0 -0.61868,-0.11005 -0.85663,-0.33017c-0.232,-0.22011 -0.34801,-0.5116 -0.34801,-0.87448z" fill="#000000" stroke-width="0" stroke-linecap="square"/></g></g></svg>