<svg version="1.1" xmlns="http://www.w3.org/2000/svg" xmlns:xlink="http://www.w3.org/1999/xlink" width="397.48983" height="419.11992" viewBox="0,0,397.48983,419.11992"><defs><linearGradient x1="307.79361" y1="319.26918" x2="307.79361" y2="470.80762" gradientUnits="userSpaceOnUse" id="color-1"><stop offset="0" stop-color="#b6b6b6" stop-opacity="0"/><stop offset="1" stop-color="#b6b6b6"/></linearGradient><linearGradient x1="287.04949" y1="316.22969" x2="287.04949" y2="453.84678" gradientUnits="userSpaceOnUse" id="color-2"><stop offset="0" stop-color="#b6b6b6" stop-opacity="0"/><stop offset="1" stop-color="#b6b6b6"/></linearGradient><linearGradient x1="328.67981" y1="316.77455" x2="328.67981" y2="454.39164" gradientUnits="userSpaceOnUse" id="color-3"><stop offset="0" stop-color="#b6b6b6" stop-opacity="0"/><stop offset="1" stop-color="#b6b6b6"/></linearGradient><linearGradient x1="294.12694" y1="309.29355" x2="319.70619" y2="459.31533" gradientUnits="userSpaceOnUse" id="color-4"><stop offset="0" stop-color="#b6b6b6" stop-opacity="0"/><stop offset="1" stop-color="#b6b6b6"/></linearGradient></defs><g transform="translate(-212.18464,-51.68778)"><g data-paper-data="{&quot;isPaintingLayer&quot;:true}" fill-rule="nonzero" stroke-linejoin="miter" stroke-miterlimit="10" stroke-dasharray="" stroke-dashoffset="0" style="mix-blend-mode: normal"><path d="" fill="none" stroke="none" stroke-width="0" stroke-linecap="butt"/><path d="M267.48568,453.38579l38.64948,-134.11659c7.84149,1.82138 16.011,3.05157 23.87199,4.31485c6.00323,0.96474 12.04062,1.28534 18.09437,1.29531l-42.05338,145.92835z" fill="url(#color-1)" stroke="none" stroke-width="0" stroke-linecap="butt"/><path d="M268.3211,453.84678v-137.61707c5.57898,1.06392 11.22463,1.93081 16.71953,2.81385c6.87653,1.10507 13.79786,1.36498 20.73727,1.28096v133.52226z" fill="url(#color-2)" stroke="none" stroke-width="0" stroke-linecap="butt"/><path d="M309.95142,454.39164v-137.61707c5.57898,1.06392 11.22463,1.93081 16.71953,2.81385c6.87653,1.10507 13.79786,1.36498 20.73727,1.28096v133.52226z" fill="url(#color-3)" stroke="none" stroke-width="0" stroke-linecap="butt"/><path d="M309.89632,461.93751l-41.08715,-138.98614l35.12767,-16.27998l41.08715,138.98614z" fill="url(#color-4)" stroke="none" stroke-width="0" stroke-linecap="butt"/><g data-paper-data="{&quot;index&quot;:null}" fill="none" stroke="#f6fbff" stroke-width="5" stroke-linecap="round"><path d="M413.37194,305.0497c15.22225,-8.74648 63.31683,-36.38091 63.31683,-36.38091"/><path d="M433.2132,307.03306c14.29337,-8.21276 44.1765,-25.38316 44.1765,-25.38316"/><path d="M466.17652,274.88138l-7.26344,17.18586l-22.82536,1.00137"/></g><g data-paper-data="{&quot;index&quot;:null}" fill="none" stroke="#f6fbff" stroke-width="5" stroke-linecap="round"><path d="M462.22986,276.62304l83.45891,-47.95425"/><path d="M546.3897,241.64989l-83.45891,47.95425"/><path d="M535.17652,234.88139l-7.26344,17.18586l-22.82536,1.00137"/><path d="M501.79519,253.91401l-7.26344,17.18585l-22.82537,1.00137"/></g><g data-paper-data="{&quot;index&quot;:null}" fill="none" stroke="#f6fbff" stroke-width="5" stroke-linecap="round"><path d="M214.68465,54.18778c16.65235,5.5603 69.26533,23.12803 69.26533,23.12803"/><path d="M226.39001,70.33069c15.63621,5.221 48.3268,16.13655 48.3268,16.13655"/><path d="M272.32129,73.59054l-17.66824,5.99538l-15.91879,-16.38878"/></g><g data-paper-data="{&quot;index&quot;:null}" fill="none" stroke="#f6fbff" stroke-width="5" stroke-linecap="round"><path d="M359.69662,102.28472l-91.29972,-30.48542"/><path d="M259.16373,80.95073l91.29972,30.48542"/><path d="M348.06794,98.55945l-17.66824,5.99538l-15.91879,-16.38878"/><path d="M311.66091,86.26789l-17.66823,5.99537l-15.91879,-16.38878"/></g><g data-paper-data="{&quot;index&quot;:null}" fill="none" stroke="#f6fbff" stroke-width="5" stroke-linecap="round"><path d="M543.57721,217.19654l57.84284,-76.93637"/><path d="M607.17447,151.91723l-57.84284,76.93637"/><path d="M594.2022,150.10935l0.08833,18.65753l-20.5882,9.90584"/><path d="M571.00844,180.74599l0.08832,18.65752l-20.58821,9.90584"/></g></g></g></svg>