<svg version="1.1" xmlns="http://www.w3.org/2000/svg" xmlns:xlink="http://www.w3.org/1999/xlink" width="69.56486" height="202.12917" viewBox="0,0,69.56486,202.12917"><g transform="translate(-217.95108,-3.76125)"><g data-paper-data="{&quot;isPaintingLayer&quot;:true}" fill-rule="nonzero" stroke-linecap="butt" stroke-linejoin="miter" stroke-miterlimit="10" stroke-dasharray="" stroke-dashoffset="0" style="mix-blend-mode: normal"><path d="M287.51593,198.83841c0,3.89471 -13.4142,7.05201 -29.96146,7.05201c-16.54725,0 -29.96146,-3.1573 -29.96146,-7.05201c0,-3.89471 13.4142,-7.05201 29.96146,-7.05201c16.54725,0 29.96146,3.1573 29.96146,7.05201z" fill-opacity="0.10588" fill="#1a1a1a" stroke="none" stroke-width="0"/><path d="M248.32774,89.91c-0.30378,-0.28914 -0.83985,-0.41472 -1.29235,-0.41472c-0.83243,0 -1.39987,0.54789 -1.54204,1.33939l-0.31931,1.62705c-2.5271,10.14763 -0.92989,22.33462 -0.92989,32.75433c0.00157,1.9112 -0.36429,3.65957 -0.49821,5.5412c-0.03829,0.53781 -0.06548,1.09747 -0.08202,1.6681c-0.92886,-3.74221 -1.78548,-7.78997 -2.96982,-11.58301c-0.08975,-0.58337 -0.19193,-1.30164 -0.28169,-1.88501l0.01261,-1.60982c0,-0.93529 -0.76289,-1.69319 -1.69816,-1.69319c-0.93529,0 -1.69846,0.75815 -1.69846,1.69342l0.00604,1.87388h0.0108c0.0318,0.20671 0.05817,0.54878 0.08997,0.75549c-0.46144,0.77506 -0.13122,1.75802 0.23356,3.04836c-0.0222,9.55943 -0.00148,19.11914 -0.00148,28.67857c0,0.38875 -0.03921,1.05273 -0.08505,1.65801c-0.30905,-0.33048 -0.75041,-0.53709 -1.23858,-0.53709c-0.84202,0 -1.54233,0.61446 -1.67325,1.4195l-0.31721,1.7434c-0.59292,1.98998 -1.34169,4.00165 -2.24145,5.93153c-0.13396,-7.06683 -0.44441,-14.13182 -0.44441,-21.2086c0,-3.09678 -0.10728,-6.2173 -0.00356,-9.31178c0.02092,-0.62404 0.38205,-3.84737 0.15615,-4.44634c-0.02322,-0.06157 -0.04739,-0.12282 -0.07206,-0.18371l0.03819,-0.00896l-0.66442,-2.8135c-0.16291,-0.76514 -0.84676,-1.34022 -1.66048,-1.34022c-0.89663,0 -1.58815,0.56817 -1.64728,1.44982l-0.1636,2.11329c-0.34666,2.25008 -0.57802,4.74762 -1.23113,6.95233c0.17951,-6.33121 0.50522,-12.64491 0.70359,-18.99118c0.12033,-3.84965 0.43247,-7.0574 -0.33467,-10.37895l0.47943,-0.03892l-0.17099,-1.99934c-0.06381,-0.87707 -0.80105,-1.57788 -1.69441,-1.57788c-0.69485,0 -1.29155,0.41929 -1.55262,1.01797c0.19933,-5.42262 0.09966,-10.94959 0.09966,-16.24274c0,-5.21789 -0.55891,-12.26731 1.26153,-17.18598c1.77896,-4.80658 7.7405,-7.22122 9.24512,-11.76246c0.99678,-3.00846 0.32845,-7.48425 -0.27039,-10.50053c-0.90743,-3.59453 -1.89538,-8.99419 -0.72295,-12.6346c1.511,-4.69172 9.39604,-8.0537 14.42772,-7.37485c0.02632,6.92526 0.63767,13.67173 1.52577,20.5094c0.16379,1.26107 0.11106,4.04809 1.35533,4.7771c0.45731,0.26792 1.42211,0.13789 2.20064,-0.12417c-0.13507,0.42544 -0.23402,0.89288 -0.32225,1.21734c-0.64905,2.38684 -1.39638,4.81283 -2.31582,7.10722c-1.68152,6.13229 -2.28402,12.07977 -1.7423,18.43452c0.1202,1.40993 0.17184,3.23118 1.04863,4.44449c0.4353,0.60238 1.8752,0.31916 1.49043,1.38396c-0.81556,2.25695 -1.69174,4.45458 -2.50287,6.70786z" data-paper-data="{&quot;noHover&quot;:false,&quot;origItem&quot;:[&quot;Path&quot;,{&quot;applyMatrix&quot;:true,&quot;segments&quot;:[[[240.03521,206.24716],[-0.60199,1.66592],[0.28401,-0.78596]],[[238.9393,205.23015],[0.32131,0.44463],[-0.64718,-0.89558]],[[238.17319,201.95567],[0.08872,1.04071],[-0.39987,-4.69063]],[[239.46949,188.35352],[-1.24118,4.52641],[0.67866,-1.69356]],[[241.17899,183.10753],[-0.47908,1.76179],[0.06512,-0.23949]],[[241.41695,182.20901],[-0.0997,0.31403],[-0.57466,0.19343]],[[239.79478,182.30134],[0.33755,0.19776],[-0.91843,-0.5381]],[[238.79697,178.77591],[0.1209,0.93083],[-0.65552,-5.04707]],[[237.67512,163.63815],[0.01943,5.11173],[-3.71402,-0.50107]],[[227.03656,169.08205],[1.11531,-3.46309],[-0.8654,2.68709]],[[227.56174,178.30836],[-0.6698,-2.65322],[0.44203,2.2264]],[[227.77095,186.15862],[0.73575,-2.22063],[-1.1106,3.35202]],[[220.96434,194.83564],[1.3131,-3.54787],[-1.34372,3.63061]],[[220.05328,207.50236],[0,-3.85147],[0,3.90702]],[[219.98135,219.44287],[0.14713,-4.00259],[0.1927,-0.4419]],[[221.12768,218.69207],[-0.51289,0],[0.6594,0]],[[222.37435,219.85005],[-0.0471,-0.64739],[0,0]],[222.49695,221.32133],[[222.1437,221.35077],[0,0],[0.56625,2.45174]],[[222.37714,229.00077],[0.08882,-2.84153],[-0.14642,4.68436]],[[221.84819,243.01463],[0.1325,-4.67324],[0.48208,-1.62736]],[[222.72664,237.97821],[-0.25588,1.66085],[0,0]],[[222.84665,236.41808],[0,0],[0.04364,-0.65077]],[[224.09381,235.25296],[-0.66183,0],[0.60064,0]],[[225.3164,236.24137],[-0.12025,-0.56477],[0,0]],[225.80494,238.31767],[[225.7768,238.3243],[0,0],[0.01821,0.04494]],[[225.82983,238.45986],[-0.01714,-0.04545],[0.16674,0.44213]],[[225.71366,241.74166],[0.01544,-0.46062],[-0.07656,2.28412]],[[225.71458,248.61466],[0,-2.28582],[0,5.22357]],[[226.04011,264.26902],[-0.09888,-5.21622],[0.66414,-1.4245]],[[227.69324,259.89069],[-0.43765,1.46886],[0,0]],[[227.92721,258.60382],[0,0],[0.09663,-0.59422]],[[229.16095,257.55599],[-0.62152,0],[0.36033,0]],[[230.07413,257.9524],[-0.22812,-0.24394],[0.03385,-0.44678]],[[230.13555,256.82857],[0,0.28695],[0,-7.05608]],[[230.136,235.66011],[-0.01639,7.05608],[-0.26925,-0.95244]],[[229.96678,233.31008],[-0.3406,0.57209],[-0.02347,-0.15258]],[[229.89636,232.85235],[0.02347,0.15258],[0,0]],[229.88837,232.85235],[[229.88837,231.36929],[0,0],[0,-0.69036]],[[231.13837,230.11929],[-0.69036,0],[0.69036,0]],[[232.38837,231.36929],[0,-0.69036],[0,0]],[[232.38837,232.6571],[0,0],[0.06625,0.4306]],[[232.58711,233.9489],[-0.06625,-0.4306],[0.8742,2.79975]],[[234.77685,242.49892],[-0.68562,-2.76223],[0.01221,-0.4212]],[[234.83697,241.26772],[-0.02826,0.39697],[0.09885,-1.38888]],[[235.20269,237.17796],[0.00116,1.41071],[0,-7.69108]],[[235.84926,213.05843],[-1.86532,7.49025],[0,0]],[[236.08754,211.867],[0,0],[0.10494,-0.58424]],[[237.31781,210.83944],[-0.61444,0],[0.334,0]],[[238.17944,211.18385],[-0.22423,-0.21342],[0.59872,-1.66321]]],&quot;closed&quot;:true}]}" fill="#ffffff" stroke="none" stroke-width="0.5"/><path d="M255.54127,202.23631c0,0 -15.08511,-2.84899 -15.08511,-4.3124c0,-1.59418 10.31652,-5.18487 10.31652,-7.64186c0,-4.61179 0,-15.48046 0,-29.59313c0,-0.63918 0,-1.28502 0,-1.93724c0,-2.21508 1.49018,0.11589 1.49018,-2.23528c0,-1.80276 -1.49018,-8.26189 -1.49018,-10.13326c0,-17.44382 0,-37.65397 0,-56.62701c0,-1.49856 2.23528,-5.96977 2.23528,-7.45092c0,-1.65218 -2.23528,-0.31192 -2.23528,-1.93724c0,-0.99926 0,-1.99293 0,-2.98036c0,-15.06987 3.87448,-18.10871 3.87448,-28.01546c0,-3.72085 -2.0172,3.86238 -2.68248,-0.508c-1.1386,-7.47959 -1.192,-26.39985 -1.192,-26.39985h12.91417c0,0 0,40.16729 0,64.65253c0,0.79981 -1.64332,3.61259 -1.54973,8.44539c0.12837,6.62927 1.94839,15.87708 1.37713,18.15606c-1.01782,4.0605 -3.83939,-8.69259 -3.83939,-6.15945c0,8.13226 4.01197,10.41982 4.01197,20.0599c0,9.55978 1.40641,37.69249 0,28.59964c-4.17252,-26.9767 0,9.93142 0,14.45479c0,7.94127 0,14.81669 0,19.79993c0,2.33186 5.46433,4.55811 7.5254,5.8942c2.64218,1.71278 2.02693,2.20852 2.02693,2.20852z" fill="#a66221" stroke="#000000" stroke-width="2.5"/><path d="M255.42523,62.31976c-0.20108,-2.61402 0.60689,-5.51356 2.04983,-5.6064c1.64779,-0.10603 2.063,2.60271 3.0755,4.59369c0.29213,0.57447 0.49615,1.20978 0.57644,1.8907c0.35369,2.99935 0.05946,13.40571 -2.83475,15.05956c-5.944,3.39657 -5.46636,-6.4177 -4.83326,-9.58322z" data-paper-data="{&quot;index&quot;:null}" fill="#89501b" stroke="none" stroke-width="0.5"/><path d="M258.12116,126.90221c1.75422,1.00241 2.80418,2.1719 3.3862,3.45887c1.83249,4.05202 -0.97372,9.26863 -1.04238,14.10196c-0.0377,2.65324 0.56921,7.16604 -3.38695,6.94625c-7.36371,-0.40909 -1.22709,-12.95521 -1.59872,-16.6797c-0.12883,-1.29117 -1.86561,-5.25171 -0.27707,-6.15945z" fill="#89501b" stroke="none" stroke-width="0.5"/><path d="M251.48113,25.12153c-0.47596,0.04265 -0.87455,-0.11646 -0.87455,-0.11646c-12.9586,-5.29614 -3.74714,-22.96807 8.31733,-21.10719c3.1596,0.48734 5.06437,2.3802 7.0757,4.62509c3.28069,3.81511 2.46243,7.46537 0.56954,11.69319c-0.31514,0.70386 -1.66814,3.80469 -1.9726,4.01292c-1.29388,0.88496 -3.21879,0.24348 -4.60136,0.11922c-2.30372,-0.20706 -4.64882,0.29561 -6.93132,0.56982l0.17435,0.09916c0,0 -0.91408,0.60308 -1.75709,0.10424zM251.95549,21.90284l0.70438,-0.3475c2.53789,-0.30489 5.07628,-0.79187 7.63934,-0.58032c0.79608,0.06571 1.75982,1.02702 2.34675,0.4852c0.67509,-0.6232 0.45651,-1.78915 0.83178,-2.62777c1.27481,-2.8489 2.45789,-5.46842 -0.00134,-8.05011c-1.45544,-1.62637 -2.70761,-3.15467 -5.01054,-3.52863c-8.11983,-1.31855 -15.97489,10.9802 -6.60368,14.60574c0,0 0.03533,0.0141 0.09332,0.04339z" fill="#000000" stroke="#000000" stroke-width="0"/><path d="M251.82734,21.91756c-9.37121,-3.62554 -1.46163,-16.04722 6.6582,-14.72866c2.30293,0.37397 3.59553,1.93588 5.05097,3.56226c2.45925,2.58169 1.27421,5.26708 -0.0006,8.11598c-0.37526,0.83862 -0.16897,2.01969 -0.84405,2.64289c-0.58693,0.54183 -1.56057,-0.41189 -2.35667,-0.4776c-2.56307,-0.21155 -5.16831,0.27833 -7.7062,0.58323l-0.70764,0.34571c-0.05798,-0.02928 -0.09402,-0.0438 -0.09402,-0.0438z" data-paper-data="{&quot;noHover&quot;:false,&quot;origItem&quot;:[&quot;Path&quot;,{&quot;applyMatrix&quot;:true,&quot;segments&quot;:[[[481.80828,321.93739],[-0.08559,-0.04323],[0,0]],[[482.84812,321.4244],[0,0],[3.74658,-0.45011]],[[494.12574,320.5677],[-3.78374,-0.3123],[1.17523,0.097]],[[497.59014,321.28397],[-0.86646,0.79988],[0.99659,-0.92]],[[498.81805,317.40471],[-0.55398,1.23802],[1.88194,-4.20569]],[[498.81607,305.5207],[3.63047,3.81124],[-2.1486,-2.40093]],[[491.41924,300.31153],[3.39971,0.55207],[-11.98695,-1.94652]],[[481.67052,321.87334],[-13.8343,-5.35222],[0,0]]],&quot;closed&quot;:true}]}" fill="#d0b500" stroke="none" stroke-width="0.5"/><path d="M250.96694,25.04966c0,5.12085 0.83717,10.18439 0.83717,15.23663c0,1.86862 0.41322,3.45635 0.6559,5.30935c0.06706,0.51208 0.20525,1.03137 0.18833,1.54441c0.93049,-0.84549 2.49846,-0.92061 3.66373,0.49008c0.70526,0.8538 -0.0619,2.21844 -0.21431,3.31531c-0.41601,2.99378 -1.76021,6.34335 -2.8745,9.13407c-1.68346,6.21 -2.1956,12.31136 -1.44995,18.73023c0.09715,0.83629 1.31596,1.10978 1.7231,1.8467c0.50497,0.91402 0.70691,2.02596 0.6348,3.06769c-0.11838,1.70984 -1.93652,3.54126 -2.38971,5.23989c-0.45344,1.6996 -0.93117,3.38382 -1.31357,5.08878l0.28887,0.96287c0.0537,0.16509 0.08274,0.34131 0.08274,0.52431c0,0.38274 -0.12697,0.73583 -0.34109,1.01944c0.38052,0.83286 0.82219,1.67558 1.39617,2.53543l0.27307,0.5169c0,0 0.75735,1.51468 -0.75734,2.27203c-1.51468,0.75734 -2.27205,-0.75735 -2.27205,-0.75735l-0.06179,-0.15285c-0.34863,-0.52366 -0.97125,-1.37956 -1.57983,-2.34598c-0.9769,8.62479 0.16161,18.16797 0.16161,26.52193c-0.00153,2.00438 -0.36775,3.87318 -0.50914,5.8449c-0.15126,2.10943 0.08396,4.26249 0.00684,6.37791c-0.07795,2.13819 0.34182,5.55943 -3.94745,4.9399c-1.12646,-0.1627 -1.53956,-3.76079 -1.74871,-4.76538c-0.19451,-0.93428 -0.41765,-1.8587 -0.65967,-2.77661c-0.0015,4.99744 -0.00671,9.99491 -0.00671,14.99231c0,3.89748 0.39864,7.30853 -0.58264,10.68395l0.52296,0.14263l-0.49262,1.8063c-0.18333,0.73714 -0.84962,1.28338 -1.64348,1.28338c-0.64882,0 -1.21241,-0.36487 -1.49679,-0.90062l-0.82075,-1.47735l0.06997,-0.03887l-0.16475,-0.16164c-0.04106,-0.16004 -0.08925,-0.31938 -0.14204,-0.47765c-1.04768,2.68815 -2.33943,5.30662 -3.90606,7.65996c0,0 -0.93936,1.40905 -2.34843,0.46969c-0.49506,-0.33004 -0.70023,-0.71806 -0.75809,-1.08258l-0.49831,0.09853c0,-9.76533 -0.50231,-19.52413 -0.50231,-29.3012c0,-0.17165 -0.00243,-0.34773 -0.00681,-0.52775c-0.44461,1.10382 -0.96111,2.17489 -1.56932,3.20459l0.45389,0.20949l-0.98862,2.14201c-0.26078,0.59937 -0.85824,1.01846 -1.55359,1.01846c-0.93529,0 -1.69347,-0.75819 -1.69347,-1.69347v-2.00923c0,-8.85806 0.55881,-17.62937 0.8941,-26.4553c-0.62751,1.41677 -1.38668,2.79941 -2.33403,4.15291c0,0 -0.97115,1.38735 -2.35849,0.4162c-1.05719,-0.74002 -0.74486,-1.72172 -0.53633,-2.14707c-0.77595,-0.9302 -0.00577,-2.00845 -0.00577,-2.00845l0.55462,-0.51984c1.93378,-9.407 1.47404,-19.71716 1.47404,-29.30396c0,-5.59507 -0.54954,-13.07079 1.44467,-18.3357c1.00023,-2.64074 3.24127,-5.78931 5.24645,-7.80964c1.14312,-1.15178 3.44981,-2.1811 3.94999,-3.87587c0.73117,-2.47744 0.11113,-6.32129 -0.3863,-8.78715c-1.05089,-4.24157 -1.97813,-10.0108 -0.62798,-14.29006c1.96252,-6.22018 11.03797,-10.29446 17.64761,-9.7039c0.79584,-0.39163 1.4409,-0.00473 1.7767,0.28888c0.1422,0.03475 0.28254,0.07218 0.42093,0.11234c0,0 1.62205,0.48661 1.13544,2.10867c-0.02153,0.07178 -0.04529,0.13942 -0.07103,0.20316zM250.77828,83.24515c0.38477,-1.0648 -1.04941,-0.77545 -1.48472,-1.37782c-0.87679,-1.21331 -0.91771,-3.02626 -1.03791,-4.4362c-0.54174,-6.35477 0.07468,-12.29562 1.7562,-18.42791c0.91943,-2.2944 1.66693,-4.72033 2.31599,-7.10717c0.08822,-0.32446 0.18731,-0.79184 0.32238,-1.2173c-0.77854,0.26205 -1.74038,0.39301 -2.19768,0.12509c-1.24427,-0.72901 -1.18802,-3.51512 -1.35181,-4.77618c-0.88808,-6.83766 -1.49354,-13.58304 -1.51986,-20.50831c-5.03168,-0.67884 -12.9019,2.68356 -14.4129,7.37527c-1.17243,3.64041 -0.19594,8.90508 0.71149,12.49961c0.59885,3.01628 1.28021,7.6269 0.28345,10.63537c-1.50462,4.54125 -7.44251,6.94886 -9.22145,11.75544c-1.82044,4.91867 -1.23428,11.94272 -1.23428,17.16062c0,5.29315 0.10188,10.75413 -0.09745,16.17675c0.26107,-0.59868 0.85817,-1.01717 1.55302,-1.01717c0.89334,0 1.62514,0.69174 1.68896,1.56879l0.1661,1.99326l-0.47858,0.03988c0.76714,3.32157 0.43659,6.51441 0.31626,10.36406c-0.19837,6.34627 -0.53712,12.65448 -0.71661,18.98568c0.65311,-2.20471 0.84344,-4.57314 1.19009,-6.82324l0.16259,-2.11363c0.05912,-0.88165 0.79299,-1.57848 1.68963,-1.57848c0.81373,0 1.49341,0.57393 1.65634,1.33908l0.66186,2.81293l-0.03812,0.00898c0.02467,0.06088 0.04862,0.12209 0.07184,0.18365c0.2259,0.59899 -0.13647,3.82208 -0.15738,4.44611c-0.10372,3.09448 0.00125,6.21462 0.00125,9.3114c0,7.07678 0.30706,14.14137 0.44102,21.2082c0.89976,-1.92988 1.64672,-3.94169 2.23963,-5.93167l0.31698,-1.74341c0.13091,-0.80504 0.82942,-1.41958 1.67145,-1.41958c0.48817,0 0.9281,0.20656 1.23716,0.53705c0.04586,-0.60529 0.08321,-1.13379 0.08321,-1.52254c0,-9.55943 -0.0216,-19.11917 0.00061,-28.6786c-0.36477,-1.29035 -0.69068,-2.4087 -0.22926,-3.18376c-0.0318,-0.20671 -0.06361,-0.41341 -0.0954,-0.62012h-0.01082v-2.00923c0,-0.93529 0.75819,-1.69347 1.69347,-1.69347c0.93529,0 1.69347,0.75819 1.69347,1.69347v1.74471c0.08975,0.58337 0.17949,1.16674 0.26924,1.7501c1.18435,3.79304 2.03775,7.84118 2.96661,11.58339c0.01654,-0.57063 0.04318,-1.1302 0.08145,-1.668c0.13392,-1.88163 0.49704,-3.62953 0.49546,-5.54072c0,-10.41971 -1.65114,-22.529 0.87596,-32.67663l0.32282,-1.61412c0.14217,-0.79152 0.83431,-1.39212 1.66674,-1.39212c0.4525,0 0.86354,0.17748 1.16733,0.4666c0.81113,-2.25328 1.69858,-4.43117 2.51416,-6.68814z" fill="#000000" stroke="none" stroke-width="0.5"/><path d="M234.39105,107.98992c-1.05321,0.00707 -1.06026,-1.04613 -1.06026,-1.04613l0.13658,-0.32675c-1.15636,-2.73201 -5.38564,1.22246 -2.89771,3.12377c0.22562,-0.82744 1.131,-0.72044 1.131,-0.72044c2.61825,0.31447 5.97349,0.50044 8.52081,-0.17528l0.82079,-0.03696c0,0 1.05319,-0.00707 1.06026,1.04613c0.00707,1.05321 -1.04613,1.06026 -1.04613,1.06026l-0.31034,-0.02936c-2.83206,0.70988 -6.38992,0.56519 -9.29263,0.22709c0,0 -0.19835,-0.02344 -0.4121,-0.13629c-0.04305,0.11157 -0.11112,0.22763 -0.21155,0.3464c-0.68004,0.80425 -1.4843,0.12421 -1.4843,0.12421c-4.48883,-4.24185 2.43803,-11.19954 5.94374,-5.88688l0.14797,1.36995c0,0 0.00707,1.05319 -1.04613,1.06026z" fill="#000000" stroke="none" stroke-width="0.5"/><path d="M241.27831,96.14052c0.42452,0.98425 -0.55973,1.40877 -0.55973,1.40877l-0.8657,0.37286c-1.15099,0.45186 -1.98537,0.96441 -3.06507,1.23747c-0.05033,0.32302 -0.24474,0.82457 -0.96174,0.886c-1.06799,0.09149 -1.15947,-0.9765 -1.15947,-0.9765l-0.01614,-0.48738c-0.9112,-3.63398 -4.45523,1.65439 -1.58432,1.92803c0,0 0.22137,0.06205 0.43033,0.23122c0.37003,-0.32157 0.89665,-0.23684 0.89665,-0.23684c2.23594,0.37721 4.41429,-0.13847 6.65699,0.47711l0.40549,0.15477c0,0 0.99614,0.39579 0.60036,1.39194c-0.39579,0.99616 -1.39194,0.60036 -1.39194,0.60036l-0.19258,-0.08284c-2.12802,-0.61186 -4.2606,-0.091 -6.41886,-0.42476c0,0 -0.3001,-0.04828 -0.55497,-0.25322c-0.41319,0.37384 -1.01015,0.2065 -1.01015,0.2065c-6.55262,-2.3741 0.97235,-10.99444 3.84587,-5.47942c0.95429,-0.21713 1.75444,-0.77655 2.7305,-1.16572l0.80569,-0.34804c0,0 0.98425,-0.42452 1.40877,0.55973z" fill="#000000" stroke="none" stroke-width="0.5"/><path d="M235.77325,67.40938c1.12761,0.29915 0.82846,1.42676 0.82846,1.42676l-0.20645,0.74308c-0.17158,0.42275 -0.32469,0.85312 -0.46378,1.28814c1.76618,0.21961 3.58087,0.33422 5.11227,0.54214l0.71229,0.04105c0,0 1.16438,0.0722 1.09218,1.23657c-0.0722,1.16438 -1.23657,1.09218 -1.23657,1.09218l-0.88184,-0.05779c-1.1486,-0.15599 -2.40808,-0.2752 -3.68753,-0.41734c2.30797,1.2814 3.12077,4.60609 1.82124,7.06903c-0.50525,0.95757 -1.26954,1.55802 -2.1341,1.85887c0.78125,0.96208 1.25225,2.26726 1.17121,3.89947c0.27976,0.11319 0.9515,0.48527 0.71249,1.38618c-0.29915,1.12761 -1.42676,0.82846 -1.42676,0.82846l-0.60552,-0.16064c-0.95783,-0.2541 -1.98857,-0.40538 -3.02242,-0.55729c1.35208,1.11963 2.30237,2.76561 2.13027,4.16707c-0.59762,4.86675 -7.40453,4.03105 -7.99276,0.21254c-0.21191,-0.22278 -0.29851,-0.47671 -0.29851,-0.47671l-0.20572,-1.2102c0.10647,-0.40131 0.71539,-2.81184 0.91607,-3.02351c0.30518,-0.32191 0.63874,-0.557 0.99032,-0.71634c-0.14664,-0.06456 -0.29046,-0.13341 -0.43117,-0.20705c0,0 -0.11512,-0.06354 -0.24673,-0.18659c-0.93589,-0.15491 -0.92141,-1.16355 -0.92141,-1.16355c0.13637,-2.67091 1.76555,-4.1891 3.69626,-4.63389c-0.59673,-0.86875 -0.85354,-1.96494 -0.52652,-3.20027c-0.12476,-0.2119 -0.18533,-0.49726 -0.08481,-0.87616c0.11907,-0.44881 0.36938,-0.67159 0.6276,-0.77718c0.71531,-1.0877 1.40117,-2.29879 2.7162,-2.65424c-0.00377,-0.00163 -0.00752,-0.00325 -0.01124,-0.00489c-1.0405,-0.18252 -2.04347,-0.41463 -2.95667,-0.73069c-0.23377,0.13055 -0.54892,0.18573 -0.95847,0.02689c-1.08767,-0.42184 -0.66583,-1.50952 -0.66583,-1.50952c0.50052,-1.28554 0.83854,-2.59026 1.35281,-3.87044l0.38694,-0.79452c0,0 0.51448,-1.04704 1.56152,-0.53256c1.04704,0.51448 0.53256,1.56152 0.53256,1.56152l-0.31742,0.63897c-0.32051,0.78967 -0.57074,1.59096 -0.83332,2.39192c0.49905,0.1704 1.03302,0.31136 1.58932,0.43039c0.18399,-0.60281 0.38928,-1.19916 0.62398,-1.7834l0.11483,-0.46797c0,0 0.29915,-1.1276 1.42676,-0.82846zM233.37377,76.71918c-0.0549,0.19315 -0.13391,0.3218 -0.13391,0.3218c-2.07941,3.1585 3.75316,4.44905 4.05561,0.35827c0.23892,-3.23131 -2.53609,-1.93754 -3.92171,-0.68007zM229.5839,90.15616c0.59896,0.43216 0.38823,1.22648 0.38823,1.22648c-0.73447,1.37297 2.85322,1.98285 3.15719,1.08101c0.52607,-1.56079 0.42093,-2.05883 -0.9938,-2.9192c-0.67243,-0.40894 -1.90495,-1.46116 -2.23921,-0.74865c-0.19818,0.42242 -0.25049,0.89233 -0.31241,1.36036zM235.60558,85.6241c0.03146,-3.87913 -5.1042,-3.87807 -5.71772,-1.23859c1.47152,0.82816 3.7408,0.94717 5.71772,1.23859z" fill="#000000" stroke="none" stroke-width="0.5"/><path d="M240.71592,64.81876c0.10791,0.12323 0.18376,0.30174 0.17207,0.56023c-0.0361,0.79763 -0.83373,0.76152 -0.83373,0.76152l-0.39198,-0.35074c0.23794,2.22043 2.11308,4.87665 4.53356,2.46066c2.23693,-2.23277 -1.07399,-3.94334 -2.71851,-4.02562c-0.59828,0.01642 -0.73242,0.20388 -0.76141,0.59395zM239.23394,64.3934c0.23383,-1.05147 0.79706,-1.48588 2.15805,-1.76319c0.9351,0.0386 2.29808,-0.10654 3.13209,0.41212c1.747,1.08647 2.22829,4.77633 0.85025,6.28569c-3.5066,3.84073 -7.48606,-0.56699 -7.3285,-4.25734c0,0 0.0361,-0.79763 0.83373,-0.76152c0.14339,0.00649 0.25983,0.0376 0.35438,0.08424z" fill="#000000" stroke="#000000" stroke-width="0.5"/><path d="M247.28673,54.20976c0.53847,0.58953 -0.05106,1.12802 -0.05106,1.12802l-0.53388,0.45534c-1.70289,0.91847 -3.38582,2.04295 -5.15209,2.87477l0.05617,0.08241l-0.73485,0.50086c-0.13907,0.097 -0.30999,0.15066 -0.49246,0.1424c-0.44052,-0.01994 -0.78146,-0.39321 -0.76152,-0.83373l0.04058,-0.89644c0.17874,-2.76575 -2.50906,0.2985 -2.6094,2.04792c0.29716,-0.34071 0.78778,-0.21927 0.78778,-0.21927c2.38039,0.60091 5.09268,0.39466 7.54559,0.5057l0.35858,0.01623c0,0 0.79763,0.0361 0.76152,0.83373c-0.0361,0.79763 -0.83373,0.76152 -0.83373,0.76152l-0.35858,-0.01623c-2.20607,-0.09986 -4.56696,0.01436 -6.77315,-0.33536c0.04177,0.12456 0.05173,0.27754 0.00547,0.46445c-0.19184,0.77506 -0.96688,0.58322 -0.96688,0.58322c-6.4889,-2.12806 3.13033,-11.06023 3.65915,-5.31037c1.09877,-1.07465 3.92217,-2.18136 4.70898,-2.60688l0.21575,-0.22935c0,0 0.58953,-0.53847 1.12802,0.05106z" fill="#000000" stroke="#000000" stroke-width="0.5"/><path d="M240.97579,48.05529c0.72956,-0.32442 1.05398,0.40515 1.05398,0.40515l0.23111,0.72722c-0.03833,0.84661 -0.10924,1.35708 0.06327,1.99884c0.09931,0.03799 0.22709,0.07955 0.37632,0.12293c-0.17506,-0.79736 -0.08937,-1.51411 -0.04641,-2.4633l0.03246,-0.71715c0,0 0.0361,-0.79763 0.83373,-0.76152c0.79763,0.0361 0.76152,0.83373 0.76152,0.83373l-0.03246,0.71715c-0.0427,0.9434 -0.24658,1.68746 0.16066,2.52435c0,0 0.04952,0.11136 0.06636,0.26643c1.00506,0.1778 2.00788,0.27734 2.28776,0.11845c0.14072,-0.07989 0.0423,-3.42794 0.06232,-3.8705l-0.12543,-0.2919c0,0 -0.21798,-0.76811 0.55014,-0.98609c0.76811,-0.21798 0.98609,0.55014 0.98609,0.55014l0.18445,0.80006c-0.05288,1.16804 0.34589,4.25192 -0.70205,5.07774c-0.84068,0.66249 -3.77672,0.19163 -5.36455,-0.24683c-0.04845,0.03363 -0.10397,0.06495 -0.16748,0.09318c-0.72956,0.32442 -1.05398,-0.40515 -1.05398,-0.40515c-0.5584,-1.30971 -0.53072,-2.04641 -0.46795,-3.43278l-0.095,-0.00618c0,0 -0.32442,-0.72956 0.40515,-1.05398z" fill="#000000" stroke="#000000" stroke-width="0.5"/><path d="M244.44225,40.461c0.53847,0.58953 -0.05106,1.12802 -0.05106,1.12802l-0.77627,0.65355c-1.11235,0.49084 -3.58922,2.46201 -4.85373,1.69002c-0.54006,-0.3297 0.17756,-1.37488 -0.192,-1.88849c-0.26426,-0.36727 -2.00208,0.48227 -2.13306,0.86043c-0.76229,2.20074 1.21426,2.48775 3.02267,2.7672c0.84676,0.0095 1.69495,-0.02352 2.46394,0.01436l0.06881,0.04948l0.00849,-0.03434l0.87397,0.21632c0.36977,0.08383 0.6379,0.42264 0.62015,0.81471c-0.01994,0.44052 -0.39321,0.78146 -0.83373,0.76152l-1.25503,-0.05681l0.00566,-0.12514c-1.27624,0.21483 -2.60115,0.23323 -3.82385,-0.20507c-0.6966,-0.09217 -1.37364,-0.25137 -2.00907,-0.52971c0,0 -0.72716,-0.32975 -0.39741,-1.05692c0.0365,-0.0805 0.07787,-0.14805 0.12259,-0.20452c-0.86131,-1.32763 -0.898,-3.03775 0.70358,-4.23524c0.81071,-0.60617 2.9534,-0.94131 3.74134,-0.11322c0.2277,0.23931 0.22114,0.96395 0.15911,1.42321c0.5999,-0.59411 2.73576,-1.46233 3.05871,-1.60692l0.34815,-0.3735c0,0 0.58953,-0.53847 1.12802,0.05106z" fill="#000000" stroke="#000000" stroke-width="0.5"/></g></g></svg>