<svg version="1.1" xmlns="http://www.w3.org/2000/svg" xmlns:xlink="http://www.w3.org/1999/xlink" width="69.33333" height="82.85333" viewBox="0,0,69.33333,82.85333"><g transform="translate(-205.33333,-138.57334)"><g data-paper-data="{&quot;isPaintingLayer&quot;:true}" fill-rule="nonzero" stroke-linejoin="miter" stroke-miterlimit="10" stroke-dasharray="" stroke-dashoffset="0" style="mix-blend-mode: normal"><path d="M231.70001,161.13333c0,-4.58397 3.71604,-8.3 8.3,-8.3c4.58397,0 8.3,3.71604 8.3,8.3c0,4.58397 -3.71604,8.3 -8.3,8.3c-4.58397,0 -8.3,-3.71603 -8.3,-8.3z" fill="#ff0000" stroke="none" stroke-width="0" stroke-linecap="butt"/><path d="M240.00004,185.43334v-24.2" fill="none" stroke="#ff0000" stroke-width="5" stroke-linecap="round"/><path d="M237.50004,204.93334l2.4,-18" fill="none" stroke="#ff0000" stroke-width="5" stroke-linecap="round"/><path d="M245.10004,196.73334c0,0 -1.6083,-1.1241 -2.4295,-3.1279c-0.8448,-2.0612 -2.5705,-9.0721 -2.5705,-9.0721" data-paper-data="{&quot;index&quot;:null}" fill="none" stroke="#ff0000" stroke-width="5" stroke-linecap="round"/><path d="M240.83324,166.53334c0,0 3.4903,7.9752 4.7133,11.4189c1.0793,3.039 0.2475,8.5811 0.2475,8.5811" data-paper-data="{&quot;index&quot;:null}" fill="none" stroke="#ff0000" stroke-width="5" stroke-linecap="round"/><path d="M233.59404,179.73334l6.9608,-13.2" data-paper-data="{&quot;index&quot;:null}" fill="none" stroke="#ff0000" stroke-width="5" stroke-linecap="round"/><path d="M205.33334,221.42668v-82.85333h69.33333v82.85333z" fill="none" stroke="none" stroke-width="0" stroke-linecap="butt"/></g></g></svg>