<svg version="1.1" xmlns="http://www.w3.org/2000/svg" xmlns:xlink="http://www.w3.org/1999/xlink" width="351.14865" height="98.4655" viewBox="0,0,351.14865,98.4655"><g transform="translate(-64.42568,-130.76725)"><g data-paper-data="{&quot;isPaintingLayer&quot;:true}" fill-rule="nonzero" stroke-linecap="butt" stroke-linejoin="miter" stroke-miterlimit="10" stroke-dasharray="" stroke-dashoffset="0" style="mix-blend-mode: normal"><path d="M64.42568,229.23275v-98.4655h351.14865v98.4655z" fill="none" stroke="none" stroke-width="0"/><path d="M369.83394,157.33765c0,0 7.87302,-0.61985 12.3143,3.87243c4.44126,4.49228 3.87243,12.50017 3.87243,12.50017v12.5795c0,0 0.61985,7.95631 -3.87243,12.50017c-4.49228,4.54386 -12.3143,3.87243 -12.3143,3.87243h-259.43037c0,0 -8.00927,0.65212 -12.54664,-3.87243c-4.53737,-4.52455 -3.87243,-12.50017 -3.87243,-12.50017v-12.5795c0,0 -0.61985,-7.95631 3.87243,-12.50017c4.49228,-4.54386 12.3143,-3.87243 12.3143,-3.87243z" data-paper-data="{&quot;index&quot;:null}" fill="#deffde" stroke="#999999" stroke-width="5"/><text transform="translate(105.99189,188.80376) scale(0.65871,0.65871)" font-size="40" xml:space="preserve" fill="#999999" fill-rule="nonzero" stroke="#999999" stroke-width="2" stroke-linecap="butt" stroke-linejoin="miter" stroke-miterlimit="10" stroke-dasharray="" stroke-dashoffset="0" font-family="Sans Serif" font-weight="normal" text-anchor="start" style="mix-blend-mode: normal"><tspan x="0" dy="0">SEEKER  FOUND  YOU</tspan></text></g></g></svg>