<svg version="1.1" xmlns="http://www.w3.org/2000/svg" xmlns:xlink="http://www.w3.org/1999/xlink" width="69.33333" height="82.85333" viewBox="0,0,69.33333,82.85333"><g transform="translate(-205.33335,-138.57336)"><g data-paper-data="{&quot;isPaintingLayer&quot;:true}" fill-rule="nonzero" stroke-linejoin="miter" stroke-miterlimit="10" stroke-dasharray="" stroke-dashoffset="0" style="mix-blend-mode: normal"><path d="M240.00004,185.43334v-24.2" fill="none" stroke="#ff0000" stroke-width="5" stroke-linecap="round"/><path d="M239.90004,184.53334c0,0 2.2562,7.2356 1.4081,10.56c-0.8175,3.2045 -4.0081,6.04 -4.0081,6.04" fill="none" stroke="#ff0000" stroke-width="5" stroke-linecap="round"/><path d="M240.10004,184.53334c0,0 1.1748,6.3575 2.0285,9.7037c0.8108,3.1785 -0.8285,9.8963 -0.8285,9.8963" data-paper-data="{&quot;index&quot;:null}" fill="none" stroke="#ff0000" stroke-width="5" stroke-linecap="round"/><path d="M242.27134,186.94744c0,0 -5.6594,-4.8306 -5.1814,-8.188c0.4974,-3.4939 2.8788,-11.0421 2.8788,-11.0421" fill="none" stroke="#ff0000" stroke-width="5" stroke-linecap="round"/><path d="M245.83854,187.05024c0,0 -3.4846,-5.2749 -4.7088,-8.2518c-1.5151,-3.6839 -2.1094,-11.982 -2.1094,-11.982" data-paper-data="{&quot;index&quot;:null}" fill="none" stroke="#ff0000" stroke-width="5" stroke-linecap="round"/><path d="M231.7,161.13333c0,-4.58397 3.71604,-8.3 8.3,-8.3c4.58397,0 8.3,3.71604 8.3,8.3c0,4.58397 -3.71604,8.3 -8.3,8.3c-4.58397,0 -8.3,-3.71603 -8.3,-8.3z" fill="#ff0000" stroke="none" stroke-width="0" stroke-linecap="butt"/><path d="M205.33336,221.4267v-82.85333h69.33333v82.85333z" fill="none" stroke="none" stroke-width="0" stroke-linecap="butt"/></g></g></svg>