<svg version="1.1" xmlns="http://www.w3.org/2000/svg" xmlns:xlink="http://www.w3.org/1999/xlink" width="700.35535" height="587.02099" viewBox="0,0,700.35535,587.02099"><defs><linearGradient x1="111.62051" y1="38.08042" x2="113.32829" y2="40.22244" gradientUnits="userSpaceOnUse" id="color-1"><stop offset="0" stop-color="#1a1a1a"/><stop offset="1" stop-color="#f30000" stop-opacity="0"/></linearGradient><linearGradient x1="112.85246" y1="34.36579" x2="113.50832" y2="37.83832" gradientUnits="userSpaceOnUse" id="color-2"><stop offset="0" stop-color="#1a1a1a"/><stop offset="1" stop-color="#f30000" stop-opacity="0"/></linearGradient></defs><g transform="translate(78.35712,220.50146)"><g data-paper-data="{&quot;isPaintingLayer&quot;:true}" stroke-dasharray="" stroke-dashoffset="0" style="mix-blend-mode: normal"><g fill-rule="nonzero" stroke="none" stroke-width="0" stroke-linecap="butt" stroke-linejoin="miter" stroke-miterlimit="10"><path d="M-19.66967,366.51953v-376h521.33934v376z" fill="#95e447"/><path d="M401.69634,244.70404c0,4.77648 17.97684,10.96182 -8.3984,12.62043c-8.12072,0.51067 -53.60338,-1.30901 -62.86914,-1.30901c-12.4798,0 -15.05291,-4.95689 -25.25476,-5.85142c-21.97375,-1.92672 -46.01278,-1.19365 -46.01278,-5.46001c0,-6.24712 31.90756,-11.31143 71.26754,-11.31143c12.78824,0 42.05817,1.77009 52.43425,2.70617c21.55969,1.945 18.83329,4.38785 18.83329,8.60525z" fill="#9df04a"/><path d="M552.40222,204.68089c0,4.77648 17.97684,10.96182 -8.3984,12.62043c-8.12072,0.51067 -53.60338,-1.30901 -62.86914,-1.30901c-12.4798,0 -15.05291,-4.95689 -25.25476,-5.85142c-21.97375,-1.92672 -46.01278,-1.19365 -46.01278,-5.46001c0,-6.24712 31.90756,-11.31143 71.26754,-11.31143c12.78824,0 42.05817,1.77009 52.43425,2.70617c21.55969,1.945 18.83329,4.38785 18.83329,8.60525z" fill="#9df04a"/><path d="M122.26252,211.35253c0,4.77648 17.97684,10.96182 -8.3984,12.62043c-8.12072,0.51067 -53.60338,-1.30901 -62.86914,-1.30901c-12.4798,0 -15.05291,-4.95689 -25.25476,-5.85142c-21.97375,-1.92672 -46.01278,-1.19365 -46.01278,-5.46001c0,-6.24712 31.90756,-11.31143 71.26754,-11.31143c12.78824,0 42.05817,1.77009 52.43425,2.70617c21.55969,1.945 18.83329,4.38785 18.83329,8.60525z" fill="#9df04a"/><path d="M312.21472,152.79031c0,4.77648 17.97684,10.96182 -8.3984,12.62043c-8.12072,0.51067 -53.60338,-1.30901 -62.86914,-1.30901c-12.4798,0 -15.05291,-4.95689 -25.25476,-5.85142c-21.97375,-1.92672 -46.01278,-1.19365 -46.01278,-5.46001c0,-6.24712 31.90756,-11.31143 71.26754,-11.31143c12.78824,0 42.05817,1.77009 52.43425,2.70617c21.55969,1.945 18.83329,4.38785 18.83329,8.60525z" fill="#9df04a"/><path d="M538.27355,109.05401c0,4.77648 17.97684,10.96182 -8.3984,12.62043c-8.12072,0.51067 -53.60338,-1.30901 -62.86914,-1.30901c-12.4798,0 -15.05291,-4.95689 -25.25476,-5.85142c-21.97375,-1.92672 -46.01278,-1.19365 -46.01278,-5.46001c0,-6.24712 31.90756,-11.31143 71.26754,-11.31143c12.78824,0 42.05817,1.77009 52.43425,2.70617c21.55969,1.945 18.83329,4.38785 18.83329,8.60525z" fill="#9df04a"/><path d="M115.98311,105.34755c0,4.77648 17.97684,10.96182 -8.3984,12.62043c-8.12072,0.51067 -53.60338,-1.30901 -62.86914,-1.30901c-12.4798,0 -15.05291,-4.95689 -25.25476,-5.85142c-21.97375,-1.92672 -46.01278,-1.19365 -46.01278,-5.46001c0,-6.24712 31.90756,-11.31143 71.26754,-11.31143c12.78824,0 42.05817,1.77009 52.43425,2.70617c21.55969,1.945 18.83329,4.38785 18.83329,8.60525z" fill="#9df04a"/><path d="M64.17796,294.37737c0,4.77648 17.97684,10.96182 -8.3984,12.62043c-8.12072,0.51067 -53.60338,-1.30901 -62.86914,-1.30901c-12.4798,0 -15.05291,-4.95689 -25.25476,-5.85142c-21.97375,-1.92672 -46.01278,-1.19365 -46.01278,-5.46001c0,-6.24712 31.90756,-11.31143 71.26754,-11.31143c12.78824,0 42.05817,1.77009 52.43425,2.70617c21.55969,1.945 18.83329,4.38785 18.83329,8.60525z" fill="#9df04a"/><path d="M560.25149,321.80527c0,4.77648 17.97684,10.96182 -8.3984,12.62043c-8.12072,0.51067 -53.60338,-1.30901 -62.86914,-1.30901c-12.4798,0 -15.05291,-4.95689 -25.25476,-5.85142c-21.97375,-1.92672 -46.01278,-1.19365 -46.01278,-5.46001c0,-6.24712 31.90756,-11.31143 71.26754,-11.31143c12.78824,0 42.05817,1.77009 52.43425,2.70617c21.55969,1.945 18.83329,4.38785 18.83329,8.60525z" fill="#9df04a"/><path d="M302.79561,311.42713c0,4.77648 17.97684,10.96182 -8.3984,12.62043c-8.12072,0.51067 -53.60338,-1.30901 -62.86914,-1.30901c-12.4798,0 -15.05291,-4.95689 -25.25476,-5.85142c-21.97375,-1.92672 -46.01278,-1.19365 -46.01278,-5.46001c0,-6.24712 31.90756,-11.31143 71.26754,-11.31143c12.78824,0 42.05817,1.77009 52.43425,2.70617c21.55969,1.945 18.83329,4.38785 18.83329,8.60525z" fill="#9df04a"/><path d="M222.9238,200.77495c5.18229,-0.46752 19.80106,-1.35158 26.18808,-1.35158c19.65819,0 35.5943,2.52934 35.5943,5.64945c0,2.13082 -12.00622,1.76469 -22.9809,2.72699c-5.09527,0.44677 -6.3804,2.92247 -12.61338,2.92247c-4.62775,0 -27.34389,0.90884 -31.39974,0.65378c-13.173,-0.82838 -4.19455,-3.91763 -4.19455,-6.30323c0,-2.10636 -1.36169,-3.32644 9.40621,-4.29786z" data-paper-data="{&quot;index&quot;:null}" fill="#7ec03c"/><path d="M410.7522,157.24469c5.22125,-0.47104 19.94988,-1.36175 26.38493,-1.36175c19.80596,0 35.86183,2.54836 35.86183,5.69191c0,2.14683 -12.09645,1.77795 -23.15364,2.74748c-5.13356,0.45013 -6.42836,2.94444 -12.7082,2.94444c-4.66253,0 -27.54941,0.91566 -31.63577,0.6587c-13.27202,-0.83461 -4.22608,-3.94707 -4.22608,-6.3506c0,-2.1222 -1.37193,-3.35143 9.47692,-4.33016z" data-paper-data="{&quot;index&quot;:null}" fill="#7ec03c"/><path d="M90.07571,255.09064c6.4277,-0.57988 24.55961,-1.6764 32.48158,-1.6764c24.38242,0 44.14828,3.13719 44.14828,7.00711c0,2.64289 -14.89152,2.18878 -28.50365,3.38233c-6.31976,0.55414 -7.91374,3.6248 -15.64462,3.6248c-5.73988,0 -33.91513,1.12724 -38.9457,0.81089c-16.33873,-1.02747 -5.20259,-4.8591 -5.20259,-7.81801c0,-2.61256 -1.68893,-4.12584 11.66671,-5.33072z" data-paper-data="{&quot;index&quot;:null}" fill="#7ec03c"/><path d="M239.95031,97.28059c5.76963,-0.52051 22.04521,-1.50478 29.15614,-1.50478c21.88617,0 39.62839,2.81601 39.62839,6.28974c0,2.37232 -13.36694,1.96469 -25.58546,3.03605c-5.67274,0.4974 -7.10352,3.25369 -14.04293,3.25369c-5.15223,0 -30.44293,1.01183 -34.95847,0.72788c-14.66597,-0.92227 -4.66995,-4.36164 -4.66995,-7.01761c0,-2.34509 -1.51602,-3.70344 10.47227,-4.78496z" data-paper-data="{&quot;index&quot;:null}" fill="#7ec03c"/><path d="M-29.8168,157.93097c5.00188,-0.45125 19.11175,-1.30454 25.27645,-1.30454c18.97387,0 34.35521,2.4413 34.35521,5.45278c0,2.05664 -11.58825,1.70327 -22.18091,2.63205c-4.91789,0.43122 -6.1583,2.82073 -12.1743,2.82073c-4.46664,0 -26.39201,0.87719 -30.30669,0.63102c-12.71444,-0.79954 -4.04854,-3.78125 -4.04854,-6.0838c0,-2.03304 -1.31428,-3.21064 9.07877,-4.14824z" data-paper-data="{&quot;index&quot;:null}" fill="#7ec03c"/><path d="M318.52308,280.92324c5.76963,-0.52051 22.04521,-1.50478 29.15613,-1.50478c21.88617,0 39.62839,2.81601 39.62839,6.28973c0,2.37232 -13.36694,1.96469 -25.58546,3.03605c-5.67274,0.4974 -7.10354,3.25369 -14.04293,3.25369c-5.15224,0 -30.4429,1.01183 -34.95846,0.72788c-14.66597,-0.92227 -4.66994,-4.36164 -4.66994,-7.01761c0,-2.34509 -1.51602,-3.70344 10.47227,-4.78496z" data-paper-data="{&quot;index&quot;:null}" fill="#7ec03c"/><path d="M35.9239,332.97498c6.20833,-0.56009 23.72148,-1.61919 31.37309,-1.61919c23.55032,0 42.64165,3.03013 42.64165,6.76799c0,2.5527 -14.38332,2.11409 -27.53092,3.2669c-6.10409,0.53522 -7.64366,3.50108 -15.11073,3.50108c-5.544,0 -32.75773,1.08877 -37.61661,0.78322c-15.78115,-0.9924 -5.02504,-4.69329 -5.02504,-7.55121c0,-2.52341 -1.6313,-3.98505 11.26856,-5.1488z" data-paper-data="{&quot;index&quot;:null}" fill="#7ec03c"/><path d="M342.87471,340.05155c7.74382,-0.69861 29.58842,-2.01965 39.13246,-2.01965c29.37495,0 53.18803,3.77957 53.18803,8.44188c0,3.18405 -17.9407,2.63695 -34.34003,4.07489c-7.61379,0.66759 -9.53414,4.36699 -18.848,4.36699c-6.91517,0 -40.85957,1.35806 -46.92017,0.97694c-19.68423,-1.23784 -6.26786,-5.85406 -6.26786,-9.41882c0,-3.14751 -2.03475,-4.97065 14.05557,-6.42223z" data-paper-data="{&quot;index&quot;:null}" fill="#7ec03c"/></g><path d="M-27.46304,127.07228l1,-144l534,6.81081c0,0 -188.48951,72.94025 -305,105.08108c-116.51049,32.14083 -230,32.10811 -230,32.10811z" fill="#f3e93e" fill-rule="nonzero" stroke="none" stroke-width="0" stroke-linecap="butt" stroke-linejoin="miter" stroke-miterlimit="10"/><g data-paper-data="{&quot;index&quot;:null}" fill-rule="nonzero" stroke-linecap="butt" stroke-linejoin="miter" stroke-miterlimit="10"><path d="M243.93001,-7.08291c1.58456,-6.72762 4.63791,-11.76483 6.81984,-11.25091c2.18194,0.51391 2.6662,6.38434 1.08163,13.11196c-0.63023,2.67581 -5.20576,8.62859 -8.60013,10.46226c-5.13986,2.77661 -9.74571,0.76019 -11.05981,0.45067c-1.14437,-0.26954 -6.88715,-7.40321 -3.68491,-9.8821c2.90336,-2.24752 14.68987,0.30727 15.44337,-2.89188z" data-paper-data="{&quot;index&quot;:null}" fill="#7fbe26" stroke="#71b123" stroke-width="2.5"/><path d="M196.96774,3.85827c0,-2.24164 8.21777,8.51674 15.12948,8.51674c6.91171,0 12.51476,1.81719 12.51476,4.05883c0,2.24163 -5.60305,4.05883 -12.51476,4.05883c-2.74903,0 -9.31548,-1.28076 -11.87851,-4.16433c-3.88101,-4.36641 -3.25097,-11.12003 -3.25097,-12.47009z" fill="#7fbe26" stroke="#71b123" stroke-width="2.5"/><path d="M237.38614,-20.11829c2.4907,4.25439 -3.18363,14.10274 -3.73259,24.3839c-0.55882,10.46587 3.98475,21.37116 3.98475,26.24253c0,12.54832 -6.14834,9.07578 -13.26941,9.07578c-7.12108,0 -12.51831,3.47254 -12.51831,-9.07578c0,-4.31716 3.58026,-14.54544 3.63943,-25.22759c0.0581,-10.48723 -3.42241,-21.42549 -1.56837,-26.18905c1.74663,-4.48756 8.80728,-8.73386 11.07316,-8.73386c1.64095,0 10.88635,6.95335 12.39136,9.52407z" data-paper-data="{&quot;index&quot;:null}" fill="#7fbe26" stroke="#71b123" stroke-width="2.5"/><path d="M227.95319,4.28311c-0.686,-0.11202 -0.57398,-0.79802 -0.57398,-0.79802l0.18945,-1.15785c0.54892,-2.37546 0.81284,-4.8172 1.26739,-7.21482c0.25996,-1.37121 0.30709,-2.52504 1.17661,-3.65354c0,0 0.43421,-0.54277 0.97699,-0.10856c0.54277,0.43421 0.10856,0.97699 0.10856,0.97699c-0.7352,0.86977 -0.68915,1.95207 -0.89634,3.04413c-0.4555,2.40092 -0.72087,4.84498 -1.26921,7.22425l-0.18145,1.11344c0,0 -0.11202,0.686 -0.79802,0.57398z" fill="#75af23" stroke="none" stroke-width="0.5"/><path d="M222.46225,17.11679c-0.69509,0 -0.69509,-0.69509 -0.69509,-0.69509v-0.0834c0,-5.00871 0.79556,-9.88912 1.50111,-14.83168c0,0 0.0983,-0.6881 0.7864,-0.5898c0.6881,0.0983 0.5898,0.7864 0.5898,0.7864c-0.69716,4.87656 -1.48714,9.69314 -1.48714,14.63508v0.0834c0,0 0,0.69509 -0.69509,0.69509z" fill="#75af23" stroke="none" stroke-width="0.5"/><path d="M229.48682,27.62766l0.00072,-1.02758c0.35499,-3.92275 0.2483,-7.86203 0.2483,-11.79702c0,0 0,-0.69509 0.69509,-0.69509c0.69509,0 0.69509,0.69509 0.69509,0.69509c0,3.95541 0.11037,7.91709 -0.24973,11.86002l0.00072,0.96458c0,0 0,0.69509 -0.69509,0.69509c-0.69509,0 -0.69509,-0.69509 -0.69509,-0.69509z" fill="#75af23" stroke="none" stroke-width="0.5"/><path d="M223.38751,33.1818l0.00567,-0.08045c0.1512,-2.14574 0.61499,-4.38093 0.3704,-6.5175c0,0 -0.07676,-0.69083 0.61408,-0.7676c0.69083,-0.07676 0.7676,0.61408 0.7676,0.61408c0.24154,2.23367 -0.20745,4.52818 -0.36533,6.76873l-0.00567,0.08045c0,0 -0.04885,0.69337 -0.74223,0.64451c-0.69337,-0.04886 -0.64451,-0.74223 -0.64451,-0.74223z" fill="#75af23" stroke="none" stroke-width="0.5"/><path d="M221.54658,-5.4404c-0.67434,-0.16859 -0.50575,-0.84292 -0.50575,-0.84292l0.24009,-0.95516c0.54046,-4.35577 1.75253,-9.59737 0.87325,-13.93024c0,0 -0.13632,-0.68159 0.54527,-0.81791c0.68159,-0.13632 0.81791,0.54527 0.81791,0.54527c0.89425,4.53071 -0.29631,9.90911 -0.8699,14.4582l-0.25795,1.03701c0,0 -0.16858,0.67433 -0.84292,0.50575z" fill="#75af23" stroke="none" stroke-width="0.5"/><path d="M247.96067,-2.82148c-0.67853,-0.15078 -0.52775,-0.82931 -0.52775,-0.82931l0.14393,-0.64765c0.55647,-2.50414 0.51785,-4.80098 0.71315,-7.34807c0,0 0.05331,-0.69303 0.74635,-0.63972c0.69303,0.05331 0.63972,0.74635 0.63972,0.74635c-0.20136,2.60893 -0.17086,4.97219 -0.74216,7.54303l-0.14393,0.64765c0,0 -0.15079,0.67853 -0.82932,0.52775z" fill="#75af23" stroke="none" stroke-width="0.5"/><path d="M243.58514,2.77735c-0.67438,-0.16842 -0.50596,-0.8428 -0.50596,-0.8428l0.11535,-0.45583c0.2889,-1.57012 0.22822,-2.96924 0.11473,-4.55568c0,0 -0.04952,-0.69332 0.6438,-0.74285c0.69332,-0.04952 0.74285,0.6438 0.74285,0.6438c0.12142,1.70244 0.16986,3.21574 -0.13362,4.9034l-0.13435,0.54399c0,0 -0.16842,0.67438 -0.8428,0.50596z" fill="#75af23" stroke="none" stroke-width="0.5"/><path d="M239.29543,1.17214c-0.68782,-0.10029 -0.58753,-0.7881 -0.58753,-0.7881l0.14604,-1.00144c0.19819,-1.17654 0.24885,-2.00094 0.10107,-3.16993c0,0 -0.08621,-0.68972 0.6035,-0.77593c0.68972,-0.08621 0.77593,0.6035 0.77593,0.6035c0.15902,1.28562 0.10546,2.26932 -0.107,3.55693l-0.14394,0.98745c0,0 -0.10029,0.68782 -0.7881,0.58753z" fill="#75af23" stroke="none" stroke-width="0.5"/><path d="M201.81447,14.82786l-0.39336,-0.92348c-0.35684,-1.42735 -0.78177,-2.57221 -0.78343,-4.08174c0,0 0,-0.69509 0.69509,-0.69509c0.69509,0 0.69509,0.69509 0.69509,0.69509c-0.00164,1.35594 0.38877,2.35028 0.71069,3.63793l0.3537,0.81967c0,0 0.27381,0.63889 -0.36508,0.9127c-0.63889,0.27381 -0.9127,-0.36508 -0.9127,-0.36508z" fill="#75af23" stroke="none" stroke-width="0.5"/><path d="M212.03414,18.78087c-0.4915,0.4915 -0.983,0 -0.983,0l-0.46037,-0.47947c-0.86205,-1.2963 -1.89834,-2.27735 -2.54705,-3.71408c0,0 -0.2823,-0.63518 0.35288,-0.91748c0.63518,-0.2823 0.91748,0.35288 0.91748,0.35288c0.59008,1.35305 1.6176,2.28666 2.43339,3.50754l0.28669,0.2676c0,0 0.4915,0.4915 0,0.983z" fill="#75af23" stroke="none" stroke-width="0.5"/></g><g fill-rule="nonzero" stroke="#82cc29" stroke-width="5" stroke-linejoin="miter" stroke-miterlimit="10"><path d="M382.25059,88.40432c3.97676,-3.9537 3.19564,-21.48986 8.0783,-23.49716c5.33368,-2.19232 16.39013,11.33227 22.06588,11.46024c5.19311,0.11729 16.64865,-15.81005 21.50931,-13.75193c4.80361,2.03379 3.01959,22.0304 6.92457,25.95804c4.14321,4.16692 24.27079,1.98079 26.27637,7.12712c1.55649,3.99429 -14.58409,15.19452 -14.31383,19.41421c0.38864,6.07294 16.87769,18.08099 14.6044,23.81615c-2.03528,5.13497 -22.56905,4.07761 -26.73594,8.22058c-3.68748,3.66611 -1.2877,21.47042 -5.77252,23.46276c-4.88203,2.16881 -16.70078,-11.62904 -21.94389,-11.44167c-5.43496,0.19399 -15.1005,15.0988 -20.25729,13.16542c-5.40399,-2.0261 -6.26905,-20.99503 -10.60433,-25.35575c-3.27469,-3.29349 -22.10198,-0.81466 -24.04111,-4.76472c-2.64612,-5.3903 12.17088,-17.41995 12.00934,-23.29184c-0.14934,-5.41936 -13.34681,-17.54964 -11.38184,-22.67907c2.03058,-5.30122 19.29584,-3.58022 23.58261,-7.84242z" fill="#98e62e" stroke-linecap="butt"/><g><path d="M320.44561,57.14528c5.93729,-5.00289 6.85546,-29.28918 13.82153,-31.50301c7.60912,-2.41824 21.32607,17.50225 29.14312,18.32501c7.15226,0.75271 24.77214,-19.9205 31.24502,-16.52737c6.39642,3.35319 1.65885,30.74227 6.60005,36.6063c5.24251,6.22138 33.26447,5.49578 35.44616,12.82535c1.69319,5.68872 -21.85326,19.3059 -21.96073,25.15928c-0.15486,8.42396 21.23075,26.87012 17.44102,34.52518c-3.39283,6.85366 -31.60584,3.05742 -37.82741,8.29989c-5.50529,4.63891 -4.22034,29.47932 -10.63578,31.71799c-6.98338,2.43686 -21.72089,-17.94728 -28.9768,-18.28557c-7.52175,-0.351 -22.55529,19.11552 -29.45054,15.86075c-7.22625,-3.41092 -6.2606,-29.68381 -11.74659,-36.1941c-4.14351,-4.91754 -30.40443,-3.63999 -32.63055,-9.31113c-3.03782,-7.73892 18.77675,-22.65171 19.22218,-30.77259c0.41091,-7.49451 -16.41913,-25.73487 -13.12383,-32.58907c3.40537,-7.08372 27.03319,-2.7439 33.43311,-8.13693z" fill="#98e62e" stroke-linecap="butt"/><path d="M342.2271,93.17652c0,0 10.91987,-22.27937 18.99989,-22.89271c8.08004,-0.61354 22.99451,19.70459 22.99451,19.70459" fill="none" stroke-linecap="round"/><path d="M358.5296,134.3254c0,0 8.98849,-14.52161 15.30796,-12.31462c6.3193,2.20673 8.64884,16.43462 8.64884,16.43462" fill="none" stroke-linecap="round"/></g><g><path d="M271.02296,89.88784c3.4836,-2.71714 4.52865,-16.50709 8.53731,-17.61588c4.37892,-1.21128 11.7497,10.41136 16.17697,11.04744c4.05073,0.58202 14.51489,-10.79395 18.12225,-8.72503c3.56516,2.04426 0.28139,17.51628 2.96496,20.95711c2.8472,3.65061 18.79661,3.84117 19.8792,8.05606c0.84039,3.27103 -12.84168,10.50722 -13.02889,13.83324c-0.26952,4.78679 11.49379,15.7361 9.17406,20.00722c-2.07682,3.82422 -18.03767,1.05819 -21.68803,3.90519c-3.23033,2.51938 -3.03455,16.67176 -6.73063,17.80645c-4.02353,1.23546 -11.96477,-10.67277 -16.08329,-11.02127c-4.26932,-0.36135 -13.23695,10.38376 -17.08776,8.38464c-4.03548,-2.09499 -2.9207,-17.01349 -5.90001,-20.83369c-2.25027,-2.88536 -17.21025,-2.72424 -18.35404,-5.99703c-1.56082,-4.46587 11.16468,-12.47589 11.59273,-17.08388c0.39484,-4.2528 -8.78225,-14.98692 -6.76088,-18.81352c2.08891,-3.95466 15.43069,-0.97823 19.18606,-3.90704z" fill="#98e62e" stroke-linecap="butt"/><path d="M280.86515,123.028c0,0 2.28197,-14.81242 6.34086,-16.32316c3.66141,-1.36268 16.94358,7.65666 16.94358,7.65666" fill="none" stroke-linecap="round"/></g></g><g fill-rule="nonzero" stroke-width="15" stroke-linejoin="miter" stroke-miterlimit="10"><path d="M200.35594,58.3675c0,-14.076 11.41084,-25.48681 25.48681,-25.48681c14.076,0 25.48681,11.41084 25.48681,25.48681c0,14.076 -11.41084,25.48681 -25.48681,25.48681c-14.076,0 -25.48681,-11.41081 -25.48681,-25.48681z" fill="#f21818" stroke="none" stroke-linecap="butt"/><path d="M208.16187,129.71124c0,0 2.63153,-22.91914 4.70811,-33.1264c1.81805,-8.9365 7.07921,-16.95505 7.07921,-16.95505" fill="none" stroke="#f21818" stroke-linecap="round"/><path d="M167.74791,185.75821l40.10687,-58.81055" fill="none" stroke="#f21818" stroke-linecap="round"/><path d="M208.46893,126.94766c0,0 9.11975,3.64339 11.29058,12.15301c2.79,10.9368 4.06293,48.03273 4.06293,48.03273" data-paper-data="{&quot;index&quot;:null}" fill="none" stroke="#f21818" stroke-linecap="round"/><path d="M218.15154,79.8607c0,0 -12.63294,15.71336 -22.06224,24.15733c-9.42929,8.44397 -26.22457,19.08369 -26.22457,19.08369" fill="none" stroke="#f21818" stroke-linecap="round"/><path d="M263.15769,102.14647c0,0 -17.54724,13.58222 -28.2486,3.96531c-10.70136,-9.6169 -13.16257,-26.5785 -13.16257,-26.5785" data-paper-data="{&quot;index&quot;:null}" fill="none" stroke="#f21818" stroke-linecap="round"/></g><g fill-rule="nonzero" stroke="#82cc29" stroke-width="5" stroke-linejoin="miter" stroke-miterlimit="10"><g><path d="M56.23253,139.40428c4.28678,4.2622 21.55203,2.54121 23.58261,7.84242c1.96497,5.12943 -11.23251,17.25971 -11.38184,22.67907c-0.16154,5.87189 14.65545,17.90154 12.00934,23.29184c-1.93913,3.95006 -20.76642,1.47123 -24.04111,4.76472c-4.33528,4.36071 -5.20034,23.32965 -10.60434,25.35575c-5.1568,1.93338 -14.82233,-12.97143 -20.25729,-13.16542c-5.2431,-0.18737 -17.06186,13.61048 -21.94389,11.44167c-4.48483,-1.99233 -2.08505,-19.79665 -5.77252,-23.46275c-4.16689,-4.14298 -24.70066,-3.08561 -26.73594,-8.22059c-2.2733,-5.73515 14.21575,-17.7432 14.6044,-23.81615c0.27025,-4.21969 -15.87032,-15.41992 -14.31383,-19.41421c2.00559,-5.14633 22.13318,-2.96021 26.27638,-7.12712c3.90498,-3.92764 2.12096,-23.92425 6.92457,-25.95804c4.86066,-2.05811 16.3162,13.86921 21.50931,13.75193c5.67575,-0.12797 16.7322,-13.65257 22.06588,-11.46024c4.88267,2.0073 4.10155,19.54346 8.07831,23.49715z" fill="#98e62e" stroke-linecap="butt"/><g><path d="M144.03756,117.14524c6.39992,5.39304 30.02775,1.05322 33.43311,8.13694c3.29531,6.8542 -13.53474,25.09456 -13.12383,32.58907c0.44543,8.12088 22.26001,23.03367 19.22219,30.77259c-2.22612,5.67114 -28.48703,4.3936 -32.63055,9.31113c-5.48598,6.5103 -4.52034,32.78318 -11.74659,36.19411c-6.89524,3.25477 -21.92879,-16.21174 -29.45054,-15.86075c-7.2559,0.33829 -21.99342,20.72243 -28.9768,18.28557c-6.41544,-2.23866 -5.13048,-27.07907 -10.63577,-31.71798c-6.22158,-5.24248 -34.43458,-1.44624 -37.82741,-8.29989c-3.78974,-7.65506 17.59588,-26.10121 17.44102,-34.52518c-0.10747,-5.85338 -23.65391,-19.47056 -21.96072,-25.15928c2.18169,-7.32957 30.20365,-6.60397 35.44616,-12.82534c4.94119,-5.86403 0.20362,-33.25312 6.60004,-36.6063c6.47288,-3.39314 24.09276,17.28008 31.24502,16.52737c7.81705,-0.82277 21.534,-20.74326 29.14311,-18.32501c6.96606,2.21382 7.88424,26.50011 13.82153,31.50301z" fill="#98e62e" stroke-linecap="butt"/><path d="M80.26164,149.98838c0,0 14.91448,-20.31813 22.99451,-19.70459c8.08002,0.61334 18.99988,22.89271 18.99988,22.89271" fill="none" stroke-linecap="round"/><path d="M81.99674,198.44543c0,0 2.32954,-14.22789 8.64883,-16.43462c6.31947,-2.20699 15.30796,12.31462 15.30796,12.31462" fill="none" stroke-linecap="round"/></g><g><path d="M196.46016,169.88786c3.75537,2.92881 17.09715,-0.04762 19.18606,3.90703c2.02137,3.8266 -7.15573,14.56073 -6.76088,18.81353c0.42806,4.60799 13.15355,12.618 11.59273,17.08388c-1.1438,3.27278 -16.10377,3.11166 -18.35404,5.99703c-2.97931,3.8202 -1.86453,18.73869 -5.90001,20.83369c-3.85081,1.99911 -12.81844,-8.74599 -17.08776,-8.38464c-4.11852,0.3485 -12.05976,12.25672 -16.08329,11.02127c-3.69608,-1.13469 -3.50029,-15.28707 -6.73063,-17.80645c-3.65036,-2.84701 -19.6112,-0.08097 -21.68803,-3.90519c-2.31973,-4.27112 9.44358,-15.22043 9.17406,-20.00722c-0.18721,-3.32603 -13.86927,-10.56222 -13.02889,-13.83325c1.08259,-4.21489 17.032,-4.40545 19.8792,-8.05606c2.68357,-3.44083 -0.60019,-18.91285 2.96497,-20.95711c3.60736,-2.06892 14.07152,9.30705 18.12224,8.72503c4.42727,-0.63608 11.79804,-12.25871 16.17697,-11.04744c4.00867,1.10879 5.05372,14.89874 8.53732,17.61588z" fill="#98e62e" stroke-linecap="butt"/><path d="M163.33354,194.36152c0,0 13.28217,-9.01935 16.94358,-7.65667c4.0589,1.51074 6.34087,16.32316 6.34087,16.32316" fill="none" stroke-linecap="round"/></g></g><g data-paper-data="{&quot;index&quot;:null}"><path d="M11.89278,198.88784c3.4836,-2.71714 4.52865,-16.50709 8.53732,-17.61588c4.37893,-1.21127 11.7497,10.41136 16.17697,11.04744c4.05072,0.58202 14.51488,-10.79395 18.12224,-8.72503c3.56516,2.04426 0.2814,17.51628 2.96497,20.95711c2.8472,3.65061 18.79661,3.84117 19.8792,8.05606c0.84038,3.27103 -12.84168,10.50722 -13.02889,13.83325c-0.26952,4.78679 11.49379,15.7361 9.17406,20.00722c-2.07683,3.82422 -18.03767,1.05818 -21.68803,3.90519c-3.23034,2.51938 -3.03455,16.67176 -6.73063,17.80645c-4.02353,1.23545 -11.96477,-10.67277 -16.08329,-11.02127c-4.26932,-0.36135 -13.23695,10.38375 -17.08776,8.38464c-4.03548,-2.095 -2.9207,-17.01349 -5.90001,-20.83369c-2.25027,-2.88537 -17.21024,-2.72425 -18.35404,-5.99703c-1.56082,-4.46588 11.16467,-12.47589 11.59273,-17.08388c0.39485,-4.2528 -8.78225,-14.98693 -6.76088,-18.81353c2.08891,-3.95465 15.43069,-0.97822 19.18606,-3.90703z" fill="#98e62e" stroke-linecap="butt"/><path d="M21.73497,232.02799c0,0 2.28197,-14.81242 6.34087,-16.32316c3.66141,-1.36268 16.94358,7.65667 16.94358,7.65667" fill="none" stroke-linecap="round"/></g></g><g data-paper-data="{&quot;index&quot;:null}" fill-rule="nonzero" stroke-linejoin="miter" stroke-miterlimit="10"><path d="M379.15429,202.51911c-15.72014,-2.51152 -26.42786,-17.29119 -23.91634,-33.01136c2.51152,-15.72014 17.29119,-26.42786 33.01136,-23.91634c15.72014,2.51152 26.42786,17.29119 23.91634,33.01136c-2.51153,15.72017 -17.29119,26.42786 -33.01136,23.91634z" fill="#002966" stroke="none" stroke-width="15" stroke-linecap="butt"/><path d="M382.95557,203.69488c0,0 3.24349,16.05523 3.89226,24.9597c0.74683,10.2503 0.33607,33.07478 0.33607,33.07478" fill="none" stroke="#002966" stroke-width="17" stroke-linecap="round"/><path d="M434.12699,330.43107c0,0 -26.98837,-28.11247 -33.29031,-41.34809c-5.17833,-10.87575 -12.81673,-30.38525 -12.81673,-30.38525" fill="none" stroke="#002966" stroke-width="17" stroke-linecap="round"/><path d="M360.0414,331.21197c0,0 3.78823,-38.55757 7.72767,-47.58112c5.51006,-12.62115 19.565,-25.04271 19.565,-25.04271" data-paper-data="{&quot;index&quot;:null}" fill="none" stroke="#002966" stroke-width="17" stroke-linecap="round"/><path d="M385.8595,203.8472c0,0 17.80845,-0.37859 26.67975,5.07736c8.8713,5.45595 24.78677,34.68339 24.78677,34.68339" fill="none" stroke="#002966" stroke-width="17" stroke-linecap="round"/><path d="M339.342,254.79813c0,0 1.11115,-1.15948 7.16037,-8.60433c6.14701,-7.56521 9.50925,-24.99858 17.27771,-32.8072c7.76846,-7.80861 17.18545,-8.0465 17.18545,-8.0465" data-paper-data="{&quot;index&quot;:null}" fill="none" stroke="#002966" stroke-width="17" stroke-linecap="round"/></g><g fill="#f21818" fill-rule="nonzero" stroke="none" stroke-width="0" stroke-linecap="butt" stroke-linejoin="miter" stroke-miterlimit="10"><path d="M424.59655,158.58801l9.16141,-39.44111l15.46341,4.69546l-14.31588,37.87596z"/><path d="M418.53597,170.82205c1.22458,-4.03288 5.48659,-6.30945 9.51947,-5.08487c4.03288,1.22458 6.30945,5.48659 5.08487,9.51947c-1.22458,4.03288 -5.48659,6.30945 -9.51947,5.08487c-4.03288,-1.22458 -6.30945,-5.48659 -5.08487,-9.51947z"/></g><g data-paper-data="{&quot;index&quot;:null}" fill="#ffffff" fill-rule="nonzero" stroke="none" stroke-linecap="butt" stroke-linejoin="miter" stroke-miterlimit="10"><path d="M261.88243,41.45457l26.95667,-29.82763l6.1827,13.6111z" stroke-width="NaN"/><path d="M277.58756,44.09583l16.38529,-7.9117l3.342,7.35735z" stroke-width="NaN"/></g><g fill-rule="nonzero" stroke-linecap="butt" stroke-linejoin="miter" stroke-miterlimit="10"><path d="M48.08562,16.92356c3.84574,2.97703 -3.05108,11.54426 -4.42542,11.86796c-1.57817,0.37171 -7.1096,2.79335 -13.28234,-0.54124c-4.07648,-2.20216 -9.57149,-9.35118 -10.32837,-12.56471c-1.903,-8.07957 -1.32142,-15.1297 1.29899,-15.74688c2.6204,-0.61719 6.28734,5.43228 8.19033,13.51185c0.90492,3.84204 15.06,0.77385 18.54681,3.47302z" data-paper-data="{&quot;index&quot;:null}" fill="#7fbe26" stroke="#71b123" stroke-width="2.5"/><path d="M85.93841,26.59039c0,1.62136 0.75665,9.73217 -3.90427,14.97603c-3.07808,3.46304 -10.9641,5.00118 -14.26556,5.00118c-8.30066,0 -15.02967,-2.18238 -15.02967,-4.87448c0,-2.69211 6.72901,-4.87448 15.02967,-4.87448c8.30066,0 18.16984,-12.92034 18.16984,-10.22823z" fill="#7fbe26" stroke="#71b123" stroke-width="2.5"/><path d="M37.39769,-2.20438c1.80744,-3.08732 12.91076,-11.43799 14.88147,-11.43799c2.72123,0 11.20076,5.09962 13.29838,10.48898c2.22662,5.72082 -1.95332,18.85719 -1.88354,31.45189c0.07107,12.82879 4.3708,25.1125 4.3708,30.29722c0,15.06998 -6.48184,10.89961 -15.03394,10.89961c-8.5521,0 -15.93598,4.17037 -15.93598,-10.89961c0,-5.8503 5.45663,-18.94707 4.78551,-31.51612c-0.65928,-12.34721 -7.4739,-24.17464 -4.48268,-29.28398z" data-paper-data="{&quot;index&quot;:null}" fill="#7fbe26" stroke="#71b123" stroke-width="2.5"/><path d="M48.72626,27.10062c-0.82386,0.13453 -0.95839,-0.68932 -0.95839,-0.68932l-0.21791,-1.33719c-0.65853,-2.85739 -0.97722,-5.7926 -1.52426,-8.676c-0.24882,-1.31152 -0.19352,-2.61131 -1.07646,-3.65587c0,0 -0.52147,-0.65185 0.13037,-1.17332c0.65185,-0.52147 1.17332,0.13037 1.17332,0.13037c1.04426,1.35528 1.10086,2.74098 1.41306,4.38774c0.54589,2.87944 0.86285,5.81186 1.52208,8.66468l0.22752,1.39053c0,0 0.13453,0.82386 -0.68932,0.95839z" fill="#75af23" stroke="none" stroke-width="0.5"/><path d="M55.32066,42.51331c-0.83477,0 -0.83477,-0.83477 -0.83477,-0.83477v-0.10016c0,-5.93505 -0.94873,-11.71955 -1.78599,-17.57608c0,0 -0.11806,-0.82638 0.70832,-0.94443c0.82638,-0.11806 0.94443,0.70832 0.94443,0.70832c0.84734,5.93579 1.80277,11.79695 1.80277,17.81219v0.10016c0,0 0,0.83477 -0.83477,0.83477z" fill="#75af23" stroke="none" stroke-width="0.5"/><path d="M46.04968,55.97116c-0.83477,0 -0.83477,-0.83477 -0.83477,-0.83477l0.00086,-1.15842c-0.43247,-4.73528 -0.29992,-9.49309 -0.29992,-14.24336c0,0 0,-0.83477 0.83477,-0.83477c0.83477,0 0.83477,0.83477 0.83477,0.83477c0,4.72575 -0.12813,9.45665 0.2982,14.1677l0.00086,1.23408c0,0 0,0.83477 -0.83477,0.83477z" fill="#75af23" stroke="none" stroke-width="0.5"/><path d="M53.43542,62.69805c-0.83271,0.05868 -0.89138,-0.77403 -0.89138,-0.77403l-0.00681,-0.09662c-0.18961,-2.6908 -0.72883,-5.44641 -0.43875,-8.12895c0,0 0.09219,-0.82966 0.92185,-0.73748c0.82966,0.09219 0.73748,0.92185 0.73748,0.92185c-0.29375,2.56593 0.26324,5.25029 0.44483,7.82723l0.00681,0.09662c0,0 0.05868,0.8327 -0.77403,0.89138z" fill="#75af23" stroke="none" stroke-width="0.5"/><path d="M56.42031,15.42312c-0.80985,0.20246 -1.01231,-0.60738 -1.01231,-0.60738l-0.30979,-1.2454c-0.68886,-5.46326 -2.11866,-11.92248 -1.04471,-17.36366c0,0 0.16371,-0.81856 0.98227,-0.65485c0.81856,0.16371 0.65485,0.98227 0.65485,0.98227c-1.05597,5.20358 0.39967,11.49851 1.04874,16.7296l0.28834,1.14711c0,0 0.20247,0.80984 -0.60738,1.01231z" fill="#75af23" stroke="none" stroke-width="0.5"/><path d="M24.69818,18.56832c-0.81489,0.18109 -0.99598,-0.6338 -0.99598,-0.6338l-0.17285,-0.7778c-0.6861,-3.08746 -0.64947,-5.92563 -0.8913,-9.05884c0,0 -0.06402,-0.83231 0.76828,-0.89633c0.83231,-0.06402 0.89633,0.76828 0.89633,0.76828c0.23454,3.05895 0.18816,5.81735 0.85646,8.82471l0.17285,0.7778c0,0 0.18109,0.81489 -0.6338,0.99597z" fill="#75af23" stroke="none" stroke-width="0.5"/><path d="M29.95298,25.29227c-0.80989,0.20227 -1.01216,-0.60763 -1.01216,-0.60763l-0.16135,-0.65331c-0.36446,-2.02681 -0.30629,-3.84421 -0.16047,-5.88877c0,0 0.05948,-0.83265 0.89213,-0.77318c0.83265,0.05948 0.77318,0.89213 0.77318,0.89213c-0.1363,1.90524 -0.20918,3.58553 0.13778,5.47117l0.13853,0.54743c0,0 0.20227,0.80989 -0.60763,1.01216z" fill="#75af23" stroke="none" stroke-width="0.5"/><path d="M35.10476,23.3645c-0.82603,0.12044 -0.94647,-0.7056 -0.94647,-0.7056l-0.17286,-1.18588c-0.25515,-1.54636 -0.31948,-2.72774 -0.1285,-4.27171c0,0 0.10354,-0.82832 0.93186,-0.72478c0.82832,0.10354 0.72478,0.93186 0.72478,0.93186c-0.17748,1.40391 -0.11664,2.39398 0.12138,3.80695l0.17539,1.20269c0,0 0.12044,0.82603 -0.7056,0.94647z" fill="#75af23" stroke="none" stroke-width="0.5"/><path d="M79.0216,40.20283c-0.76727,-0.32883 -0.43844,-1.09611 -0.43844,-1.09611l0.42478,-0.98439c0.38661,-1.54641 0.85548,-2.74056 0.85351,-4.36899c0,0 0,-0.83477 0.83477,-0.83477c0.83477,0 0.83477,0.83477 0.83477,0.83477c-0.002,1.81288 -0.51232,3.1878 -0.94087,4.90199l-0.47241,1.10906c0,0 -0.32883,0.76727 -1.09611,0.43844z" fill="#75af23" stroke="none" stroke-width="0.5"/><path d="M67.84433,44.51179c-0.59027,-0.59027 0,-1.18054 0,-1.18054l0.3443,-0.32137c0.97972,-1.46622 2.21373,-2.58745 2.92239,-4.2124c0,0 0.33903,-0.76282 1.10185,-0.42379c0.76282,0.33903 0.42379,1.10185 0.42379,1.10185c-0.77907,1.72544 -2.02361,2.90364 -3.05889,4.46044l-0.55289,0.57582c0,0 -0.59027,0.59027 -1.18054,0z" fill="#75af23" stroke="none" stroke-width="0.5"/></g><g fill="#ffffff" fill-rule="nonzero" stroke="none" stroke-linecap="butt" stroke-linejoin="miter" stroke-miterlimit="10"><path d="M-39.52504,38.16807v-37l148,76z" stroke-width="NaN"/><path d="M-17.52503,266.16806v-35l100,-13z" stroke-width="NaN"/><path d="M114.47497,363.16808h-75l120,-76z" stroke-width="NaN"/><path d="M-17.52503,87.16807v-20l73,19z" stroke-width="NaN"/><path d="M499.47497,285.16806v20l-69,-32z" data-paper-data="{&quot;index&quot;:null}" stroke-width="NaN"/><path d="M386.47497,27.16806l18,-32h24z" data-paper-data="{&quot;index&quot;:null}" stroke-width="NaN"/><path d="M397.47497,76.16807l86,-90l14,41z" data-paper-data="{&quot;index&quot;:null}" stroke-width="NaN"/></g><g fill-rule="nonzero" stroke="#999999" stroke-linecap="butt" stroke-linejoin="miter" stroke-miterlimit="10"><path d="M281.27422,276.89597c0,0 10.80571,-0.85075 16.90136,5.3149c6.09562,6.16565 5.3149,17.15647 5.3149,17.15647v17.26535c0,0 0.85075,10.92003 -5.3149,17.15647c-6.16565,6.23644 -16.90136,5.3149 -16.90136,5.3149h-234.22242c0,0 -10.99271,0.89504 -17.22025,-5.3149c-6.22754,-6.20994 -5.3149,-17.15647 -5.3149,-17.15647v-17.26535c0,0 -0.85075,-10.92003 5.3149,-17.15647c6.16565,-6.23644 16.90136,-5.3149 16.90136,-5.3149z" data-paper-data="{&quot;index&quot;:null}" fill="#deffde" stroke-width="5"/><text transform="translate(44.82345,321.64073) scale(1.00895,1.00895)" font-size="40" xml:space="preserve" fill="#999999" fill-rule="nonzero" stroke="#999999" stroke-width="2" stroke-linecap="butt" stroke-linejoin="miter" stroke-miterlimit="10" stroke-dasharray="" stroke-dashoffset="0" font-family="Sans Serif" font-weight="normal" text-anchor="start" style="mix-blend-mode: normal"><tspan x="0" dy="0">HIDE'N'SEEK</tspan></text></g><path d="M621.99823,-218.50147" fill="none" fill-rule="nonzero" stroke="#50c775" stroke-width="19" stroke-linecap="round" stroke-linejoin="miter" stroke-miterlimit="10"/><path d="M561.83686,-219.50147" fill="none" fill-rule="nonzero" stroke="#50c775" stroke-width="19" stroke-linecap="round" stroke-linejoin="miter" stroke-miterlimit="10"/><path d="M523.16164,-220.50145" fill="none" fill-rule="nonzero" stroke="#50c775" stroke-width="19" stroke-linecap="round" stroke-linejoin="miter" stroke-miterlimit="10"/><path d="M114.14581,43.96501c1.3509,-2.38956 5.48721,-2.63889 9.52538,-0.69513l2.67063,1.93132c-0.37856,-0.17363 -0.68053,-0.31957 -0.79328,-0.3838c-3.52068,-2.00602 -8.95922,-2.32078 -10.40901,0.24367c-0.17509,0.30974 -0.29133,0.64027 -0.36022,0.98761l-1.06744,-0.47319c0.01485,-0.57642 0.15708,-1.1208 0.43396,-1.61051z" data-paper-data="{&quot;index&quot;:null}" fill="url(#color-1)" fill-rule="nonzero" stroke="none" stroke-width="1" stroke-linecap="butt" stroke-linejoin="miter" stroke-miterlimit="10"/><path d="M110.29905,40.24822c2.44444,-2.83792 8.23019,-1.86964 13.02075,2.14144l8.18878,5.82172l-0.75371,0.5942c-0.51334,-0.56532 -5.63338,-4.08067 -6.2409,-4.60753c-3.94933,-3.42498 -10.75268,-5.19626 -13.23298,-2.31667c-0.29955,0.34778 -0.53199,0.73675 -0.70665,1.15888l-1.22816,-0.86498c0.164,-0.72558 0.47926,-1.37716 0.95288,-1.92701z" data-paper-data="{&quot;index&quot;:null}" fill="url(#color-2)" fill-rule="nonzero" stroke="none" stroke-width="1" stroke-linecap="butt" stroke-linejoin="miter" stroke-miterlimit="10"/><g fill-rule="evenodd" stroke-linecap="round" stroke-linejoin="round" stroke-miterlimit="1.5"><path d="M81.14319,70.18883c1.79849,4.78609 -0.62333,10.12373 -5.4094,11.92215l-21.23534,7.97936c-4.78606,1.7984 -10.12371,-0.62353 -11.92221,-5.40964l-16.67478,-44.37454c-1.79849,-4.78609 0.62333,-10.12373 5.4094,-11.92215l21.23534,-7.97936c4.78606,-1.7984 10.12371,0.62353 11.92222,5.40962z" fill="none" stroke="#ffffff" stroke-width="15.5"/><path d="M81.14319,70.18883c1.79849,4.78609 -0.62333,10.12373 -5.4094,11.92215l-21.23534,7.97936c-4.78606,1.7984 -10.12371,-0.62353 -11.92221,-5.40964l-16.67478,-44.37454c-1.79849,-4.78609 0.62333,-10.12373 5.4094,-11.92215l21.23534,-7.97936c4.78606,-1.7984 10.12371,0.62353 11.92222,5.40962z" fill="#000000" stroke="none" stroke-width="1"/><path d="M46.78572,84.17863l-17.39032,-46.27976l30.85352,-11.59379l17.39032,46.27976z" fill="#ffffff" stroke="none" stroke-width="1"/><path d="M62.97825,54.63072l-0.68116,-6.95398" fill="none" stroke="#000000" stroke-width="5.33"/><path d="M43.2111,47.24122l0.68116,6.95398" fill="none" stroke="#000000" stroke-width="5.33"/><path d="M61.08775,66.45844c-4.23348,3.03026 -10.13045,2.05341 -13.16068,-2.18008" fill="none" stroke="#000000" stroke-width="6"/></g></g></g></svg>