<svg version="1.1" xmlns="http://www.w3.org/2000/svg" xmlns:xlink="http://www.w3.org/1999/xlink" width="181.5238" height="102.34356" viewBox="0,0,181.5238,102.34356"><g transform="translate(-242.25345,-110.73152)"><g data-paper-data="{&quot;isPaintingLayer&quot;:true}" fill-rule="nonzero" stroke="none" stroke-linecap="butt" stroke-linejoin="miter" stroke-miterlimit="10" stroke-dasharray="" stroke-dashoffset="0" style="mix-blend-mode: normal"><path d="M409.8497,176.73151c0,26.04692 -19.70659,24.05993 -46.97656,20.80373c-10.8924,-1.30062 -22.99149,-2.80373 -35.52344,-2.80373c-43.90664,0 -76.5,18.4508 -76.5,-18c0,-9.85859 13.2981,-13.33041 19.04918,-18.20995c4.77333,-4.04996 1.39203,-9.69191 7.80112,-15.09541c5.73172,-4.83239 26.72176,-1.48887 33.25186,-7.15328c5.08285,-4.40903 14.03741,3.47494 16.05895,-1.91878c1.91512,-5.10979 -3.16091,-23.62257 3.33889,-23.62257c8.81687,0 9.79853,2.69156 17.72405,4.89128c0.5579,0.15484 8.61304,-1.18532 9.16535,-1.02054c11.94574,3.56379 2.06631,17.43461 10.58212,24.96523c13.35092,11.80634 42.02848,19.69237 42.02848,37.16403z" fill="#737373" stroke-width="0"/><path d="M242.25345,197.39698c0,-8.6588 40.63546,-15.67811 90.7619,-15.67811c50.12643,0 90.7619,7.01933 90.7619,15.67811c0,8.65878 -40.63551,15.6781 -90.7619,15.6781c-50.12643,0 -90.7619,-7.01931 -90.7619,-15.6781z" data-paper-data="{&quot;index&quot;:null}" fill-opacity="0.10588" fill="#1a1a1a" stroke-width="0"/><path d="M414.8497,181.73151c0,26.04692 -19.70659,24.05993 -46.97656,20.80373c-10.8924,-1.30062 -22.99149,-2.80373 -35.52344,-2.80373c-43.90664,0 -76.5,18.4508 -76.5,-18c0,-9.8586 13.2981,-13.33041 19.04918,-18.20995c4.77333,-4.04997 1.39203,-9.69191 7.80112,-15.0954c5.73172,-4.83239 26.72176,-1.48887 33.25186,-7.15328c5.08285,-4.40903 14.03741,3.47494 16.05895,-1.91878c1.91512,-5.10979 -3.16091,-23.62258 3.33889,-23.62258c8.81687,0 9.79853,2.69156 17.72405,4.89129c0.5579,0.15484 8.61304,-1.18532 9.16535,-1.02054c11.94574,3.56379 2.06631,17.43461 10.58212,24.96523c13.35092,11.80634 42.02848,19.69237 42.02848,37.16403z" fill="#a4a4a4" stroke-width="0"/><path d="M259.73794,185.58131c0.77555,-0.32747 2.7176,-2.18048 3.74717,-1.5995c0.25966,0.14652 2.87109,1.7643 3.07162,1.89836c1.26996,0.84905 -0.14256,8.96485 -0.03125,9.3678c0.21639,0.7833 1.56334,-0.47331 2.28888,-0.83934c1.25405,-0.63268 5.29354,-2.97189 6.46112,-2.65346c0.88471,0.24129 2.90742,1.03793 3.28125,1.875c0.4015,0.89902 0.64766,1.98496 0.33115,2.9254c-0.01869,0.05553 -0.09799,0.18974 -0.04263,0.17053c4.79071,-1.66276 9.54611,-3.1321 14.46586,-4.35232c1.19434,-0.29623 3.6815,-1.4526 4.924,-1.14198c1.13689,0.28422 2.53352,1.02715 3.14447,2.09632c0.22144,0.38752 -0.25055,1.29221 0.19458,1.32475c2.21445,0.16189 4.71259,-1.1525 6.95132,-1.39771c1.05217,-0.11524 2.06122,1.44993 3.01605,0.99319c2.23061,-1.067 8.70105,-5.26451 11.44358,-4.51655c0.86421,0.23569 1.69669,0.62483 2.44202,1.12171c0.43237,0.28824 0.15955,1.37926 0.67862,1.40345c6.2213,0.28994 14.20791,-8.11221 16.23098,1.26601c0.08905,0.41283 3.47459,1.80165 3.61579,1.8781c2.88522,1.56213 9.3812,3.52857 9.59317,7.34409c0.15152,2.72723 -3.03204,4.52887 -5.46033,3.64022c-7.63763,-2.79504 -13.82647,-9.80428 -22.29575,-6.81965c-2.81788,0.99303 -5.3756,2.81194 -8.30451,3.46281c-1.25744,0.27943 -3.13182,-1.0622 -3.85411,-1.92705c-0.11446,-0.13705 0.13754,-0.59737 -0.02971,-0.53485c-1.59562,0.59644 -4.77584,4.02059 -6.61618,3.71191c-1.35573,-0.2274 -4.06048,-2.68095 -4.53673,-2.58142c-3.3422,0.69845 -6.73124,1.17553 -10.06125,1.95806c-5.25086,1.2339 -8.79942,3.93718 -13.26713,0.24812c-0.92345,-0.76251 -9.58117,4.85855 -10.59452,4.35188c-2.33104,-1.16552 -4.19176,-2.03737 -3.56565,-4.98739c0.05757,-0.27128 -0.35385,0.4271 -0.53269,0.63905c-0.4779,0.56635 -1.29176,1.16108 -1.9746,1.45245c-2.10895,0.89992 -3.12673,-0.25805 -4.9583,-1.4791c-0.53604,-0.35736 -0.44115,-1.23136 -0.46875,-1.875c-0.1104,-2.57424 0.0725,-5.15423 0,-7.72982c-0.01528,-0.54292 -1.0613,0.34159 -1.47382,0.6949c-0.85904,0.73576 -1.91699,1.31356 -3.02618,1.53491l-3.75,-3.75c0,-0.69055 0.18665,-1.33751 0.51226,-1.89317c1.48314,-2.87667 5.79827,-4.16092 8.45019,-5.28069z" fill="#95e447" stroke-width="0.5"/><path d="M390.43312,204.9545c-0.04482,0.00117 -0.09347,0.00556 -0.14539,0.01249c-0.32279,0.12101 -0.6667,0.19881 -1.02469,0.22634c-0.09622,0.0074 -0.19345,0.01117 -0.29157,0.01117c-0.75344,0 -1.45499,-0.2222 -2.04268,-0.60465c-1.81916,0.76375 -3.67072,1.42162 -5.54782,1.74268c-1.92103,0.32858 -4.42509,0.01438 -5.44075,-1.76304c-0.61408,-1.07465 0.15823,-2.77631 -1.21985,-2.625c-5.07038,0.55669 -14.90237,4.37429 -19.39337,0.09632c-0.57263,-0.54547 -0.28938,-1.88253 -0.60553,-2.58937c-0.00911,-0.02037 -1.00558,0.52822 -1.06415,0.55062c-0.71679,0.27415 -1.46046,0.47266 -2.18414,0.72805c-0.73555,0.25958 -2.51877,1.06627 -4.41292,1.64587c-0.64123,0.51226 -1.45425,0.81851 -2.33879,0.81851c-0.41003,0 -0.80469,-0.0658 -1.17399,-0.18743c-1.69056,-0.0244 -2.87443,-0.80005 -2.55376,-3.15162c-0.01471,-0.13496 -0.02225,-0.27207 -0.02225,-0.41094c0,-0.65241 0.16661,-1.26591 0.45959,-1.80026c0.29009,-0.84311 0.70482,-1.5912 1.4402,-2.40926c0.95709,-1.06468 3.082,-0.569 4.41574,-0.94505c3.16865,-0.89344 6.25219,-2.65572 9.0775,-4.29531c0.62979,-0.36548 2.36759,-1.46792 3.0666,-1.07348c1.96591,1.10934 3.05701,1.53151 3.54037,3.77336c0.23057,1.06941 -1.69271,3.15121 -0.60131,3.2264c5.83876,0.40226 13.78942,-3.79739 19.47631,-1.25765c0.99547,0.44457 1.10845,1.98645 1.67827,2.93699c0.10369,0.17297 5.8171,-2.28634 5.9393,-2.34015c1.05349,-0.46389 4.80807,-2.41869 8.44496,-3.51353c1.80435,-4.87088 4.3216,-9.55175 7.3181,-10.69808c5.99908,-2.29499 5.02614,10.86467 5.3824,12.68338c0.15251,0.77857 1.64315,5.14883 1.38533,5.92227c-1.11804,3.3541 -2.51558,4.05288 -5.86968,2.93484c-0.71369,-0.2379 -1.31745,-1.51242 -1.63547,-2.25176c-0.21104,-0.49062 -0.34785,-1.72654 -0.51715,-2.10063c-0.16224,0.24421 -0.31937,0.48981 -0.46287,0.7378c-0.24972,0.83264 -0.3838,1.74109 -0.54894,2.63575c0.09724,1.25536 0.30358,2.69779 -0.458,3.45936c-0.89076,0.89076 -2.02152,1.875 -3.28125,1.875c-1.16651,0 -1.96447,-0.30965 -2.50848,-0.7906c-0.62653,-0.25028 -1.14466,-0.68131 -1.42438,-1.33822c-1.60786,0.32973 -3.53629,0.0944 -4.8555,0.12882z" fill="#95e447" stroke-width="0.5"/><path d="M250.24423,198.98151c-1.14699,-3.74151 -0.50663,-7.65536 3.47574,-8.86112c1.21449,-0.36772 4.53278,-0.92866 5.20876,0.25431c0.2338,0.13798 0.45132,0.30061 0.64898,0.48432c2.11619,-0.28354 4.22808,0.12155 5.57277,1.46624c2.55934,2.55934 2.23192,6.57898 -1.63667,7.00962c-2.78759,3.18249 -12.32127,2.74006 -13.26958,-0.35337z" fill="#95e447" stroke-width="0.5"/><path d="M331.96833,156.3243c-0.07965,0.4399 -0.09065,0.82003 0.05716,0.99334c0.73704,0.86418 2.5121,0.6447 2.95952,1.68867c2.92525,6.82558 -4.72429,6.73498 -8.28965,3.97039c-2.23802,-1.73537 -2.63244,-4.36052 -2.22817,-7.07853c-4.38079,-0.41416 -8.47672,-1.56766 -11.58617,-5.19535c-1.28371,-1.49767 -1.48314,-14.66406 1.54816,-15.49078c1.05001,-0.28636 7.14336,-0.6537 6.22751,2.70442c0.07754,0.30041 0.1188,0.61541 0.1188,0.94004c0,0.97421 -0.37149,1.86167 -0.98055,2.52841c-0.51443,1.57426 -0.761,3.17715 -0.26945,5.02896c0.47873,1.80352 5.77057,2.11548 7.1595,2.30459c6.48608,0.88313 13.6019,-0.43975 19.67062,2.76785c2.12618,1.12378 5.62419,4.9518 7.11575,8.43524c6.60886,-0.94663 9.83361,1.05777 11.11168,7.24909c0.57842,2.80204 1.02488,8.43586 -3.55756,8.43586c-5.66026,0 -2.9384,-7.77148 -4.17791,-8.25c-0.83709,-0.32317 -4.89687,1.05202 -5.60542,0.41806l-1.82097,-2.25149c-2.78408,-1.72486 -5.20515,-7.03503 -8.37358,-8.08788c-2.78719,-0.92617 -5.87052,-1.13729 -9.00864,-1.23015c-0.02283,0.04021 -0.04639,0.07997 -0.07064,0.11925z" fill="#00991b" stroke-width="0.5"/><path d="M347.02549,168.21505c-0.09879,5.65259 3.44977,9.18908 2.21231,15.17179c-0.52109,2.51931 -2.68788,5.42451 -5.88936,3.82377c-1.12673,-0.56337 -1.69795,-1.94939 -2.09631,-3.14447c-0.13702,-0.41107 0.79779,-4.78321 0.77337,-5.32438c-0.20658,-4.57686 -5.49719,-8.13284 -1.74468,-14.53115c0.71066,-1.21173 5.98647,-6.87342 8.03648,-5.84842c0.06892,-0.00377 0.13834,-0.00568 0.2082,-0.00568c2.07107,0 3.75,1.67893 3.75,3.75c0.65015,1.03671 -0.02417,1.87156 -1.08132,2.63451c-0.39136,0.3964 -0.87038,0.70604 -1.40564,0.89747c-1.37142,0.82106 -2.74628,1.61727 -2.76304,2.57656z" fill="#00991b" stroke-width="0.5"/><path d="M269.02548,169.8036c0.58765,0.67134 3.32626,0.7364 4.125,1.02166c2.56586,0.91638 6.31797,3.7247 7.02102,6.53688c0.52377,2.09507 1.32828,16.16128 -4.14602,14.99437c-6.48366,-1.38207 -1.81573,-8.25089 -3.10049,-12.40197c-1.35089,-4.36473 -9.66084,-1.5499 -11.00361,-6.92098c-0.80455,-3.21818 -0.87026,-8.1282 1.92474,-10.39265c0.51065,-0.41372 2.57526,-1.60652 3.14967,-1.28429c0.00989,-0.00008 0.01978,-0.00012 0.02969,-0.00012c2.07107,0 3.75,1.67893 3.75,3.75c0,0.68727 -0.18488,1.33136 -0.50763,1.88524c-0.21278,0.36517 -0.48549,0.69113 -0.80465,0.96441c-0.53934,0.66637 -0.91567,1.30141 -0.43772,1.84743z" fill="#00991b" stroke-width="0.5"/></g></g></svg>