<svg version="1.1" xmlns="http://www.w3.org/2000/svg" xmlns:xlink="http://www.w3.org/1999/xlink" width="216.65192" height="107.53974" viewBox="0,0,216.65192,107.53974"><g transform="translate(-46.67447,-109.16339)"><g data-paper-data="{&quot;isPaintingLayer&quot;:true}" fill-rule="nonzero" stroke="none" stroke-linecap="butt" stroke-linejoin="miter" stroke-miterlimit="10" stroke-dasharray="" stroke-dashoffset="0" style="mix-blend-mode: normal"><path d="M152.63816,216.70313c-50.37224,0 -91.20701,-8.99744 -91.20701,-20.09636c0,-11.09892 40.83477,-20.09636 91.20701,-20.09636c50.37224,0 91.207,8.99743 91.207,20.09636c0,11.09892 -40.83476,20.09636 -91.207,20.09636z" data-paper-data="{&quot;index&quot;:null}" fill-opacity="0.10588" fill="#1a1a1a" stroke-width="0"/><path d="M119.84114,126.8041c19.06511,0 28.60831,22.42211 40.83395,31.66585c11.56188,8.74187 26.33272,3.93688 26.33272,17.00081c0,26.87786 -36.07154,13.00001 -73.16667,13.00001c-37.09512,0 -61.16666,13.87785 -61.16666,-13.00001c0,-10.89115 0.93758,-9.61338 9.27929,-17.72226c12.24447,-11.90271 35.82353,-30.9444 57.88737,-30.9444z" data-paper-data="{&quot;index&quot;:null}" fill="#818181" stroke-width="0"/><path d="M113.84114,130.13743c19.06511,0 28.60831,22.42211 40.83395,31.66585c11.56187,8.74187 26.33272,3.93688 26.33272,17.00081c0,26.87786 -36.07155,13.00001 -73.16667,13.00001c-37.09512,0 -61.16666,13.87785 -61.16666,-13.00001c0,-10.89115 0.93758,-9.61338 9.27929,-17.72226c12.24447,-11.90271 35.82353,-30.9444 57.88737,-30.9444z" data-paper-data="{&quot;index&quot;:null}" fill="#474747" stroke-width="0"/><path d="M242.84841,146.17206c0,5.11113 -0.31493,10.06457 -0.90544,14.77604c-3.03373,24.20482 -13.34128,42.0229 -25.59015,42.0229c-5.94632,0 -16.97533,1.82278 -21.39655,-5.26775c-6.45882,-10.35834 -5.09904,-32.90919 -5.09904,-51.53118c0,-17.62565 3.44453,-27.8664 9.05853,-33.45655c3.57995,-3.56474 1.47105,5.88452 6.77826,5.98004c1.18235,0.02128 9.74321,-9.46144 10.91127,-9.46144c6.42307,0 11.29134,-0.87176 16.08369,3.50587c6.12563,5.59553 10.15944,15.83212 10.15944,33.43209z" fill="#9a9a9a" stroke-width="0"/><path d="M244.55847,161.97703c-3.03373,24.20482 -13.34128,42.02291 -25.59015,42.02291c-5.94632,0 -16.97533,1.82278 -21.39655,-5.26775c-6.45882,-10.35834 -5.09904,-32.90919 -5.09904,-51.53118c0,-17.62565 3.44453,-27.8664 9.05853,-33.45655c3.57995,-3.56474 1.47105,5.88452 6.77826,5.98004c1.18235,0.02128 9.74321,-9.46145 10.91127,-9.46145c6.42307,0 11.29134,-0.87176 16.08369,3.50587c0.28331,0.25879 0.56214,0.52751 0.83631,0.80643c0.61043,0.81255 1.26732,1.55553 1.94956,2.26578c4.53323,6.0075 7.37358,15.59129 7.37358,30.35988v0.00001c0,5.11112 -0.31493,10.06457 -0.90544,14.77603z" fill="#737373" stroke-width="0"/><path d="M199.04595,191.64926c0,13.31876 39.50994,11.74056 13.48578,11.74056c-26.02416,0 -107.72758,1.5782 -107.72758,-11.74056c0,-5.74052 17.87712,-11.99335 27.30522,-22.30577c12.4463,-13.61372 18.65265,-31.00273 33.46012,-31.00273c26.02416,0 33.47646,39.98974 33.47646,53.3085z" fill="#555555" stroke-width="0"/><path d="M178.70733,186.02148c0,7.80946 23.16668,6.88408 7.9074,6.88408c-15.25928,0 -63.16614,0.92538 -63.16614,-6.88408c0,-3.36596 10.48226,-7.03231 16.01044,-13.079c7.2979,-7.98242 10.93699,-18.17847 19.61936,-18.17847c15.25928,0 19.62895,23.44801 19.62895,31.25748z" fill="#555555" stroke-width="0"/><path d="M194.36326,192.04357c0,13.31876 39.50993,11.74056 13.48578,11.74056c-26.02416,0 -107.72758,1.5782 -107.72758,-11.74056c0,-5.74052 17.87712,-11.99335 27.30522,-22.30577c12.4463,-13.61372 18.65265,-31.00272 33.46012,-31.00272c26.02415,0 33.47646,39.98973 33.47646,53.30849z" fill="#9a9a9a" stroke-width="0"/><path d="M175.92852,186.73311c0,7.80946 23.16668,6.88408 7.9074,6.88408c-15.25928,0 -63.16614,0.92538 -63.16614,-6.88408c0,-3.36596 10.48226,-7.03231 16.01044,-13.079c7.2979,-7.98242 10.93699,-18.17847 19.61936,-18.17847c15.25928,0 19.62895,23.44801 19.62895,31.25748z" fill="#bcbcbc" stroke-width="0"/><path d="M232.87445,123.17881c-0.12219,4.71165 2.58731,8.56926 0.59481,13.52942c-1.98496,4.9414 -8.00004,6.89979 -10.27513,11.88985c-0.96855,2.12436 1.24654,8.57947 -1.02513,9.7153c-4.77776,2.38888 -4.75141,-7.98939 -4.36758,-9.5247c0.99002,-3.96005 3.9809,-7.74799 7.00226,-10.30452c1.36802,-1.15756 3.45564,-1.90386 4.07071,-3.76654c1.54631,-4.68282 -1.01552,-4.9455 -1.01552,-8.46797c0,-4.3226 2.03869,-9.72271 6.44155,-11.48386l0.98111,-0.19987c0.1159,0 0.22996,0.00789 0.34168,0.02316c0.20511,0.01686 0.39702,0.03828 0.5763,0.06404c0.62941,0.82926 1.30705,1.5865 2.01006,2.31154c-0.13871,0.3363 -0.35286,0.6921 -0.61716,1.05682c-0.19341,0.46721 -0.52438,0.86305 -0.94243,1.13699c-1.60998,1.75844 -3.76135,3.47285 -3.77555,4.02034z" fill="#00991b" stroke-width="0.5"/><path d="M224.51382,157.29014c1.21442,4.85768 -3.00341,7.64167 -7.31393,5.17718c-2.60009,-1.48657 -3.14218,-5.24911 -1.2344,-7.57623c0.26724,-0.32598 2.26961,-2.37811 2.86399,-2.216c0.20027,-0.05169 0.41027,-0.0792 0.6267,-0.0792c1.00046,0 1.86366,0.58767 2.26324,1.43665c1.25422,0.84225 2.44583,1.86332 2.79441,3.25761z" fill="#00991b" stroke-width="0.5"/><path d="M222.54633,144.64763c-2.03641,2.0363 -10.27317,-0.89808 -9.49725,-4.77766c0.58276,-2.91376 6.9687,-2.93452 8.79098,-2.73141c0.77668,0.08656 3.09963,0.73342 3.14951,1.63127c0.25403,0.39132 0.40157,0.85815 0.40157,1.35944c0,0.91587 -0.4925,1.71672 -1.22711,2.15214c-0.45739,0.85425 -0.93909,1.68766 -1.61769,2.36623z" fill="#00991b" stroke-width="0.5"/><path d="M234.96378,129.89676c2.69574,2.4912 4.97809,7.15021 3.11864,10.86911c-1.93935,3.8787 -7.25391,-0.99429 -7.62615,-3.77172c-0.15022,-1.12083 0.87138,-2.09995 1.48217,-3.05166c0.06348,-0.09891 -0.67793,-0.5208 -1.37961,-0.9864c-0.31581,-0.14507 -0.59618,-0.354 -0.82458,-0.61028c-0.39376,-0.44182 -0.63305,-1.02432 -0.63305,-1.66271c0,-1.38071 1.11929,-2.5 2.5,-2.5c0.48448,-0.46817 2.80408,1.19753 3.36257,1.71365z" fill="#00991b" stroke-width="0.5"/><path d="M231.03429,120.86892c-0.70763,1.23835 -1.07346,1.7229 -1.5057,2.29446c-0.26067,0.3447 -0.5455,0.72105 -0.94401,1.31347c-0.84958,1.26297 -3.00074,1.00767 -4.22132,0.97758c-6.90157,-0.17014 -2.75217,-6.40677 2.15497,-7.01087c0.46429,-0.05716 2.89799,-0.40626 3.28489,0.27082z" fill="#00991b" stroke-width="0.5"/><path d="M155.06548,169.52219c-0.21725,0.43397 0.78421,0.74137 0.78421,1.22668c0,0.83982 -0.06907,1.83684 -0.66291,2.43068c-1.45296,1.45296 -2.42246,0.74875 -3.53554,0c-2.31339,-1.55618 -1.62807,-6.95196 -0.01902,-8.84324c-0.29396,-0.68868 -0.51274,-1.43589 -0.63857,-2.25485c-0.73638,-4.79289 2.74974,-8.51103 2.74694,-12.98193c-0.00133,-2.11073 -5.29949,-4.97217 -4.4126,-6.74595c-0.00251,-0.04595 -0.00379,-0.09222 -0.00379,-0.1388c0,-1.38071 1.11929,-2.5 2.5,-2.5c0.45421,-0.28484 0.98759,0.01935 1.46086,0.471c0.31842,0.22966 0.58062,0.53244 0.76198,0.88373c0.18213,0.2441 0.32507,0.45573 0.40911,0.57243c1.50868,2.09506 3.85929,3.77774 4.23589,6.70712c0.49547,3.85396 -1.02172,5.58053 -2.18389,8.91612c-0.63231,1.81482 -0.74361,3.39455 -0.07798,5.23039c1.49508,4.12347 8.56442,7.66413 11.61066,10.5319c0.94163,0.88647 2.49894,4.45227 1.18285,5.76836c-1.66666,1.66666 -2.70834,1.66666 -4.375,0c-0.45335,-0.45335 -1.40368,-3.38365 -2.49468,-4.47466c-1.99477,-1.99477 -4.69363,-3.5044 -6.97368,-5.36566c-0.11493,0.19559 -0.22425,0.38571 -0.31485,0.56667z" fill="#00991b" stroke-width="0.5"/><path d="M155.68078,153.06751c2.40562,0.06887 5.6766,4.14671 3.26435,6.15692c-0.76591,0.63825 -5.55429,-0.5713 -5.51447,-2.44318c-0.19351,-0.35499 -0.30348,-0.76208 -0.30348,-1.19485c0,-1.29432 0.98361,-2.35892 2.24413,-2.48707c0.09804,-0.02367 0.20094,-0.03492 0.30946,-0.03182z" fill="#00991b" stroke-width="0.5"/><path d="M168.32499,177.52857c0.07718,1.6483 -1.57268,5.21598 -3.37432,5.21598c-3.66282,0 -2.82722,-7.0454 -0.50069,-7.17466c0.39131,-0.25403 0.85814,-0.40157 1.35943,-0.40157c1.22776,0 2.2488,0.88504 2.45996,2.05193c0.03131,0.09689 0.05052,0.19936 0.05562,0.30831z" fill="#00991b" stroke-width="0.5"/><path d="M113.69702,147.87303c0.34884,2.93049 -7.01566,5.10505 -13.80905,5.91372c-6.7934,0.80867 -10.44317,-0.05476 -10.79201,-2.98525c-0.34884,-2.93049 13.65682,-9.64107 20.45021,-10.44974c6.7934,-0.80867 3.80201,4.59078 4.15085,7.52127z" fill="#787878" stroke-width="0"/><path d="M246.27747,129.12864c-6.37234,-0.86016 -13.50764,-2.50682 -17.92331,3.3935c0,0 -1.53485,1.97338 -3.50824,0.43853c-1.97338,-1.53485 -0.43853,-3.50823 -0.43853,-3.50823c4.29805,-5.37738 10.40861,-6.82695 17.13237,-6.25438c2.64766,0.22547 5.16292,1.07933 7.83777,1.19686c1.74,0.07646 3.36756,0.07694 4.95962,-0.0294c0.59153,1.52304 1.20199,3.02765 1.77814,4.54752c0.04194,0.11043 0.08318,0.22088 0.12378,0.33135c-3.27343,0.38191 -6.58257,0.34036 -9.9616,-0.11575z" fill="#00991b" stroke-width="0.5"/><path d="M232.80287,191.52946c-1.76776,-1.76776 0,-3.53554 0,-3.53554l1.3259,-1.31807c4.84579,-4.23529 8.9684,-9.55588 12.93116,-14.6006c5.0956,-6.48685 10.64586,-12.7803 14.2128,-20.32425c0.5045,2.53202 1.05039,5.17757 1.14625,7.65389c0.00687,0.17054 0.01569,0.34223 0.02636,0.51494c-3.40062,5.37305 -7.54017,10.26472 -11.45856,15.25057c-4.15324,5.28468 -8.49345,10.82562 -13.56549,15.26835l-1.08288,1.09072c0,0 -1.76777,1.76776 -3.53554,0z" fill="#00991b" stroke-width="0.5"/><path d="M248.8641,187.6754c-1.76776,1.76776 -3.53553,0 -3.53553,0l-0.92825,-0.95555c-1.22503,-1.61894 -2.21883,-3.45715 -2.82997,-5.39318c0,0 -0.71837,-2.39457 1.6762,-3.11294c2.39457,-0.71837 3.11293,1.6762 3.11293,1.6762c0.37918,1.36608 1.09652,2.65751 1.9876,3.76021l0.51702,0.48972c0,0 1.76776,1.76777 0,3.53554z" fill="#00991b" stroke-width="0.5"/><path d="M260.82641,177.56809c-2.5,0 -2.5,-2.5 -2.5,-2.5v-1.2044c0.02918,-2.78331 0.15562,-5.77497 -2.97537,-6.25972c0,0 -2.41191,-0.65779 -1.75412,-3.06971c0.6578,-2.41191 3.0697,-1.75411 3.0697,-1.75411c1.1807,0.39107 2.5894,0.3736 3.54208,1.17321c2.82315,2.36952 3.09095,6.62641 3.1177,9.91033v1.2044c0,0 0,2.5 -2.5,2.5z" fill="#00991b" stroke-width="0.5"/><path d="M231.46539,136.77358c-1.76777,1.76777 -3.53553,0 -3.53553,0l-1.18441,-1.20603c-3.18404,-4.0327 -3.77624,-7.05465 -3.1259,-12.09215c0,0 0.33041,-2.47807 2.80848,-2.14766c2.47807,0.33041 2.14766,2.80848 2.14766,2.80848c-0.51647,3.73246 -0.32536,5.35791 2.0741,8.30785l0.81559,0.79397c0,0 1.76777,1.76777 0,3.53553z" fill="#00991b" stroke-width="0.5"/></g></g></svg>