<svg version="1.1" xmlns="http://www.w3.org/2000/svg" xmlns:xlink="http://www.w3.org/1999/xlink" width="511.80857" height="392.27283" viewBox="0,0,511.80857,392.27283"><g transform="translate(21.80858,25.77283)"><g data-paper-data="{&quot;isPaintingLayer&quot;:true}" fill-rule="nonzero" stroke-linecap="butt" stroke-linejoin="miter" stroke-miterlimit="10" stroke-dasharray="" stroke-dashoffset="0" style="mix-blend-mode: normal"><path d="M-10,366.5v-373h500v373z" fill-opacity="0.59829" fill="#434d43" stroke="none" stroke-width="0"/><path d="M-21.80858,-24.44519l311.80446,-1.32764l-311.05607,337.52796z" fill-opacity="0.60477" fill="#ceffcf" stroke="none" stroke-width="0"/><path d="M420.60636,126.6896c0,0 12.101,-0.95273 18.92735,5.952c6.82631,6.90473 5.952,19.21304 5.952,19.21304v56.29072c0,0 0.95273,12.22903 -5.952,19.21304c-6.90473,6.98401 -18.92735,5.952 -18.92735,5.952h-360.84762c0,0 -12.31042,1.00233 -19.28446,-5.952c-6.97404,-6.95433 -5.952,-19.21304 -5.952,-19.21304v-56.29072c0,0 -0.95273,-12.22903 5.952,-19.21304c6.90473,-6.98401 18.92735,-5.952 18.92735,-5.952z" data-paper-data="{&quot;index&quot;:null}" fill="#deffde" stroke="#999999" stroke-width="5"/><text transform="translate(62.14644,170.26952) scale(0.97754,0.97754)" font-size="40" xml:space="preserve" fill="#999999" fill-rule="nonzero" stroke="#999999" stroke-width="2" stroke-linecap="butt" stroke-linejoin="miter" stroke-miterlimit="10" stroke-dasharray="" stroke-dashoffset="0" font-family="Sans Serif" font-weight="normal" text-anchor="start" style="mix-blend-mode: normal"><tspan x="0" dy="0">PRESS GREEN FLAG</tspan><tspan x="0" dy="48px">TO PLAY AGAIN :)</tspan></text></g></g></svg>