<svg version="1.1" xmlns="http://www.w3.org/2000/svg" xmlns:xlink="http://www.w3.org/1999/xlink" width="185.47437" height="128.25781" viewBox="0,0,185.47437,128.25781"><g transform="translate(-254.85716,-78.29842)"><g data-paper-data="{&quot;isPaintingLayer&quot;:true}" fill-rule="nonzero" stroke="none" stroke-linecap="butt" stroke-linejoin="miter" stroke-miterlimit="10" stroke-dasharray="" stroke-dashoffset="0" style="mix-blend-mode: normal"><path d="M268.91874,182.58822c0,-13.2372 38.0888,-23.96803 85.07374,-23.96803c46.98494,0 85.07375,10.73084 85.07375,23.96803c0,13.23719 -38.08882,23.96802 -85.07375,23.96802c-46.98494,0 -85.07374,-10.73084 -85.07374,-23.96802z" data-paper-data="{&quot;index&quot;:null}" fill-opacity="0.10588" fill="#1a1a1a" stroke-width="0"/><path d="M270.10751,122.43703c0,-20.99069 4.81094,-33.19941 12.1167,-39.87295c5.71562,-5.22101 11.52179,-4.1813 19.1823,-4.1813c1.3931,0 11.60324,11.30961 13.01338,11.28423c6.32967,-0.11392 3.81448,-11.38363 8.08413,-7.13213c6.69556,6.66712 10.8037,18.88081 10.8037,39.90213c0,22.20961 1.62175,49.105 -6.0814,61.45892c-5.27299,8.45656 -18.42679,6.28261 -25.5187,6.28261c-14.60868,0 -26.90203,-21.25083 -30.52022,-50.11883c-0.70427,-5.61916 -1.07988,-11.52691 -1.07988,-17.62272z" data-paper-data="{&quot;index&quot;:null}" fill="#9a9a9a" stroke-width="0"/><path d="M268.06799,141.2869c-0.70427,-5.61915 -1.07988,-11.5269 -1.07988,-17.62271v-0.00001c0,-17.61384 3.38756,-29.04399 8.79414,-36.20886c0.81367,-0.84709 1.59712,-1.7332 2.32515,-2.7023c0.32699,-0.33266 0.65954,-0.65315 0.99743,-0.96179c5.71562,-5.22101 11.52179,-4.1813 19.1823,-4.1813c1.3931,0 11.60324,11.30962 13.01338,11.28424c6.32967,-0.11392 3.81448,-11.38363 8.08413,-7.13213c6.69556,6.66712 10.8037,18.8808 10.8037,39.90213c0,22.20961 1.62175,49.105 -6.08139,61.45892c-5.27299,8.45655 -18.4268,6.28261 -25.51871,6.28261c-14.60868,0 -26.90202,-21.25083 -30.52022,-50.11883z" data-paper-data="{&quot;index&quot;:null}" fill="#737373" stroke-width="0"/><path d="M362.27462,113.09696c17.66021,0 25.06223,20.7391 39.90638,36.97557c11.24447,12.29916 32.56571,19.75663 32.56571,26.60309c0,15.88468 -97.444,14.00243 -128.48185,14.00243c-31.03785,0 16.08389,1.88225 16.08389,-14.00243c0,-15.88469 8.88803,-63.57866 39.92587,-63.57866z" data-paper-data="{&quot;index&quot;:null}" fill="#555555" stroke-width="0"/><path d="M346.6057,169.96363c0,-9.31401 5.21151,-37.27939 23.41056,-37.27939c10.35507,0 14.69526,12.16037 23.39913,21.68064c6.59321,7.21161 19.09494,11.58431 19.09494,15.59874c0,9.31399 -57.13637,8.21033 -75.33542,8.21033c-18.19905,0 9.4308,1.10366 9.4308,-8.21033z" data-paper-data="{&quot;index&quot;:null}" fill="#555555" stroke-width="0"/><path d="M367.85946,113.56725c17.66021,0 25.06223,20.73908 39.90638,36.97555c11.24447,12.29916 32.5657,19.75663 32.5657,26.60309c0,15.88468 -97.44399,14.00244 -128.48184,14.00244c-31.03784,0 16.08389,1.88224 16.08389,-14.00244c0,-15.88468 8.88804,-63.57864 39.92587,-63.57864z" data-paper-data="{&quot;index&quot;:null}" fill="#9a9a9a" stroke-width="0"/><path d="M349.91986,170.81236c0,-9.314 5.21152,-37.27939 23.41057,-37.27939c10.35507,0 14.69526,12.16037 23.39913,21.68065c6.59321,7.21161 19.09493,11.58431 19.09493,15.59874c0,9.31399 -57.13636,8.21033 -75.33542,8.21033c-18.19905,0 9.4308,1.10366 9.4308,-8.21033z" data-paper-data="{&quot;index&quot;:null}" fill="#bcbcbc" stroke-width="0"/><path d="M282.00304,95.01399c-0.01693,-0.65297 -2.58278,-2.69767 -4.50293,-4.79488c-0.49859,-0.32671 -0.89333,-0.79881 -1.12399,-1.35603c-0.31522,-0.43498 -0.57063,-0.85933 -0.73606,-1.26042c0.83845,-0.86472 1.64664,-1.76785 2.39731,-2.75687c0.21382,-0.03073 0.4427,-0.05627 0.68732,-0.07638c0.13324,-0.01821 0.26927,-0.02762 0.40751,-0.02762l1.17013,0.23838c5.2511,2.10044 7.68255,8.54091 7.68255,13.69628c0,4.20109 -3.05538,4.51438 -1.21116,10.09937c0.73356,2.22153 3.22338,3.11162 4.85496,4.49219c3.60344,3.04906 7.17053,7.56676 8.35128,12.28973c0.45778,1.8311 0.4892,14.2088 -5.20902,11.35969c-2.70932,-1.35466 -0.06748,-9.05338 -1.22263,-11.58701c-2.7134,-5.95142 -9.88731,-8.2871 -12.25468,-14.18049c-2.37637,-5.91576 0.85514,-10.51655 0.70941,-16.13593z" data-paper-data="{&quot;index&quot;:null}" fill="#00991b" stroke-width="0.5"/><path d="M291.97436,135.69705c0.41573,-1.6629 1.83691,-2.88069 3.33276,-3.8852c0.47656,-1.01254 1.50606,-1.71343 2.69927,-1.71343c0.25813,0 0.50858,0.03281 0.74744,0.09446c0.70889,-0.19334 3.09703,2.25414 3.41575,2.64292c2.27533,2.77545 1.62879,7.26287 -1.47222,9.03583c-5.14096,2.93928 -10.17138,-0.38106 -8.72299,-6.17459z" data-paper-data="{&quot;index&quot;:null}" fill="#00991b" stroke-width="0.5"/><path d="M294.32088,120.6189c-0.80933,-0.8093 -1.38384,-1.80327 -1.92935,-2.82209c-0.87613,-0.5193 -1.46352,-1.47444 -1.46352,-2.56676c0,-0.59787 0.17597,-1.15463 0.47894,-1.62135c0.05949,-1.07082 2.82997,-1.84231 3.75628,-1.94554c2.17335,-0.24224 9.78958,-0.21748 10.4846,3.25763c0.92541,4.627 -8.8982,8.12671 -11.32694,5.6981z" data-paper-data="{&quot;index&quot;:null}" fill="#00991b" stroke-width="0.5"/><path d="M279.51117,103.02617c0.66609,-0.61556 3.43257,-2.60216 4.01038,-2.04379c1.64671,0 2.98164,1.33492 2.98164,2.98163c0,0.76138 -0.28539,1.4561 -0.75501,1.98304c-0.2724,0.30566 -0.60679,0.55484 -0.98344,0.72786c-0.83686,0.5553 -1.72111,1.05847 -1.6454,1.17643c0.72846,1.13506 1.94688,2.30281 1.76772,3.63958c-0.44396,3.31251 -6.7824,9.12431 -9.09537,4.49836c-2.21768,-4.43536 0.50437,-9.99195 3.71946,-12.96309z" data-paper-data="{&quot;index&quot;:null}" fill="#00991b" stroke-width="0.5"/><path d="M285.66605,89.68946c0.46144,-0.80752 3.364,-0.39117 3.91774,-0.32299c5.85253,0.72048 10.80133,8.15863 2.57013,8.36155c-1.45573,0.03588 -4.02132,0.34037 -5.03458,-1.16592c-0.47528,-0.70655 -0.81499,-1.1554 -1.12588,-1.56651c-0.51551,-0.68168 -0.95182,-1.25958 -1.79578,-2.7365z" data-paper-data="{&quot;index&quot;:null}" fill="#00991b" stroke-width="0.5"/><path d="M374.80229,150.28564c-0.10805,-0.21582 -0.23844,-0.44257 -0.37551,-0.67584c-2.71931,2.21984 -5.93812,4.02031 -8.31719,6.39938c-1.30118,1.3012 -2.43461,4.79604 -2.9753,5.33673c-1.98775,1.98775 -3.23012,1.98775 -5.21787,0c-1.56964,-1.56964 0.2877,-5.82241 1.41074,-6.87966c3.63311,-3.42026 12.06439,-7.64305 13.84751,-12.56092c0.79386,-2.18953 0.66112,-4.0736 -0.09301,-6.23806c-1.38607,-3.97821 -3.19555,-6.03741 -2.60462,-10.63385c0.44916,-3.49374 3.25262,-5.5006 5.05195,-7.99928c0.10023,-0.13918 0.27071,-0.39159 0.48793,-0.68271c0.2163,-0.41897 0.52901,-0.78008 0.90878,-1.05399c0.56445,-0.53866 1.20059,-0.90145 1.74231,-0.56174c1.64671,0 2.98163,1.33492 2.98163,2.98163c0,0.05555 -0.00153,0.11074 -0.00452,0.16554c1.05775,2.11551 -5.26112,5.52822 -5.26271,8.04559c-0.00334,5.33224 4.1544,9.7667 3.27615,15.48296c-0.15007,0.97674 -0.411,1.8679 -0.76159,2.68926c1.91904,2.25565 2.73639,8.69095 -0.02268,10.54694c-1.32752,0.893 -2.4838,1.73288 -4.21668,0c-0.70824,-0.70825 -0.79063,-1.89735 -0.79063,-2.89896c0,-0.57881 1.1944,-0.94544 0.93529,-1.46301z" data-paper-data="{&quot;index&quot;:null}" fill="#00991b" stroke-width="0.5"/><path d="M374.06844,130.66091c0.12943,-0.00369 0.25215,0.00972 0.36908,0.03795c1.50336,0.15284 2.67647,1.42255 2.67647,2.96622c0,0.51614 -0.13115,1.00167 -0.36194,1.42505c0.04749,2.23251 -5.6634,3.67508 -6.57686,2.91387c-2.87698,-2.39749 1.02416,-7.26095 3.89324,-7.34309z" data-paper-data="{&quot;index&quot;:null}" fill="#00991b" stroke-width="0.5"/><path d="M358.98826,159.83449c0.00608,-0.12994 0.029,-0.25216 0.06633,-0.36771c0.25184,-1.3917 1.46958,-2.44724 2.93388,-2.44724c0.59787,0 1.15464,0.17596 1.62134,0.47893c2.77475,0.15417 3.77133,8.55689 -0.59715,8.55689c-2.14873,0 -4.11645,-4.25501 -4.0244,-6.22087z" data-paper-data="{&quot;index&quot;:null}" fill="#00991b" stroke-width="0.5"/><path d="M266.19872,122.50181c1.5,2 -0.5,3.5 -0.5,3.5l-2.70866,1.83984c-2.07263,0.62161 -4.15022,1.06746 -6.2417,1.33987c-0.05403,-0.14871 -0.10921,-0.29737 -0.16563,-0.44597c-0.56014,-1.4728 -1.15126,-2.93249 -1.72556,-4.40869c2.21498,-0.18166 4.37707,-0.57842 6.69616,-1.27434l1.1454,-1.05071c0,0 2,-1.5 3.5,0.5z" fill="#00991b" stroke-width="0.5"/><path d="M268.84357,122.16114c1.11804,2.23607 -1.11803,3.35411 -1.11803,3.35411l-0.67132,0.326c-0.80293,0.32117 -1.60586,0.64235 -2.40879,0.96352c0,0 -2.32119,0.92847 -3.24967,-1.39272c-0.92847,-2.32119 1.39272,-3.24966 1.39272,-3.24966c0.80293,-0.32117 1.60586,-0.64235 2.40879,-0.96352l0.2922,-0.15575c0,0 2.23606,-1.11804 3.3541,1.11803z" fill="#00991b" stroke-width="0.5"/><path d="M264.79139,142.52818c0,0 0.98479,-2.29787 3.28266,-1.31306c2.29787,0.9848 1.31307,3.28266 1.31307,3.28266c-1.26666,2.94626 -2.05687,6.06392 -3.39833,8.97116c-0.91172,1.97591 -1.95083,3.87106 -3.07991,5.70784c-0.13702,-2.67119 -0.76142,-5.50437 -1.28387,-8.19305c1.21353,-2.74597 1.98308,-5.68643 3.16638,-8.45555z" fill="#00991b" stroke-width="0.5"/><path d="M280.37965,184.49808c-2.4445,0.52382 -2.96833,-1.92068 -2.96833,-1.92068l-0.76422,-3.63275c0,-2.44362 0.26117,-4.89965 0.76422,-7.29093c0,0 0.00957,-0.04467 0.03217,-0.12065c-1.71534,-0.65531 -3.30889,-1.54122 -4.65476,-2.88709c-3.67729,-3.67729 -3.17565,-7.56851 -3.37933,-12.25314c-0.20544,-4.72496 -0.99198,-8.50153 -3.11094,-12.72534c0,0 -1.11804,-2.23607 1.11803,-3.3541c2.23607,-1.11803 3.3541,1.11803 3.3541,1.11803c2.4152,4.84519 3.39869,9.3304 3.63367,14.73483c0.14317,3.2929 -0.68025,6.34393 1.92,8.94418c3.77855,3.77855 11.0033,3.07676 15.55327,5.5869c2.75498,1.51988 4.28607,4.57373 5.95641,7.07893l0.41051,-0.03434c0,0 2.14373,1.28624 0.85749,3.42997c-1.28624,2.14373 -3.42998,0.85749 -3.42998,0.85749l-1.99828,-1.47962c-1.06074,-1.59133 -2.32908,-4.55696 -4.16049,-5.44676c-2.22019,-1.07869 -4.74685,-1.61529 -7.25663,-2.199c-0.38566,1.81041 -0.63729,3.66398 -0.63729,5.51388l0.68105,3.11186c0,0 0.52382,2.4445 -1.92068,2.96833z" fill="#00991b" stroke-width="0.5"/></g></g></svg>