<svg version="1.1" xmlns="http://www.w3.org/2000/svg" xmlns:xlink="http://www.w3.org/1999/xlink" width="117.87722" height="58.00781" viewBox="0,0,117.87722,58.00781"><g transform="translate(-238.94192,-154.62106)"><g data-paper-data="{&quot;isPaintingLayer&quot;:true}" fill="#e6bb44" fill-rule="nonzero" stroke="#bf931c" stroke-width="2.5" stroke-linecap="butt" stroke-linejoin="miter" stroke-miterlimit="10" stroke-dasharray="" stroke-dashoffset="0" style="mix-blend-mode: normal"><path d="M250.82785,203.99115l0.60948,-28.81543l3.07744,-12.23494l2.18146,11.96199l-1.20925,26.88069z"/><path d="M245.86202,206.45409l-5.66669,-28.25932l0.34524,-12.6113l4.72868,11.20212l4.66085,26.50113z"/><path d="M255.42887,204.56247l4.66084,-26.50113l4.72869,-11.20213l0.34523,12.61131l-5.66669,28.25932z" data-paper-data="{&quot;index&quot;:null}"/><path d="M264.57245,206.74007l0.60948,-28.81543l3.07744,-12.23494l2.18146,11.96199l-1.20925,26.88069z"/><path d="M270.18739,207.16243l2.16544,-28.74041l3.73397,-12.0508l1.53199,12.06239l-2.6598,26.77609z"/><path d="M278.65046,205.82057l-2.65981,-26.77609l1.532,-12.06239l3.73397,12.0508l2.16544,28.74041z" data-paper-data="{&quot;index&quot;:null}"/><path d="M309.62986,202.69977l-1.20925,-26.88069l2.18146,-11.96199l3.07744,12.23494l0.60948,28.81543z" data-paper-data="{&quot;index&quot;:null}"/><path d="M315.18673,204.20304l4.66085,-26.50114l4.72868,-11.20212l0.34524,12.6113l-5.66669,28.25932z" data-paper-data="{&quot;index&quot;:null}"/><path d="M305.61989,208.64614l-5.66669,-28.25932l0.34523,-12.61131l4.72869,11.20213l4.66084,26.50113z" data-paper-data="{&quot;index&quot;:null}"/><path d="M295.88525,205.44869l-1.20925,-26.88069l2.18146,-11.96199l3.07744,12.23494l0.60948,28.81543z" data-paper-data="{&quot;index&quot;:null}"/><path d="M290.15785,206.12601l-2.6598,-26.77609l1.53199,-12.06238l3.73397,12.0508l2.16544,28.74041z" data-paper-data="{&quot;index&quot;:null}"/><path d="M281.69477,208.68961l2.16544,-28.74041l3.73397,-12.0508l1.53199,12.06238l-2.6598,26.77609z" data-paper-data="{&quot;index&quot;:null}"/><path d="M274.70457,205.31988l0.66515,-31.44735l3.35852,-13.35245l2.38071,13.05457l-1.3197,29.3359z"/><path d="M269.28519,208.00778l-6.18427,-30.84045l0.37677,-13.76319l5.16059,12.2253l5.08655,28.92168z"/><path d="M279.72585,205.94338l5.08655,-28.92168l5.16059,-12.2253l0.37677,13.76319l-6.18427,30.84045z" data-paper-data="{&quot;index&quot;:null}"/><path d="M289.70457,208.31988l0.66515,-31.44735l3.35852,-13.35245l2.38071,13.05457l-1.3197,29.3359z"/><path d="M295.83237,208.78082l2.36322,-31.36548l4.07502,-13.15149l1.67192,13.16413l-2.90274,29.22175z"/><path d="M305.06843,207.31639l-2.90274,-29.22175l1.67192,-13.16413l4.07502,13.15149l2.36322,31.36548z" data-paper-data="{&quot;index&quot;:null}"/><path d="M338.87741,203.91055l-1.3197,-29.3359l2.38071,-13.05457l3.35852,13.35245l0.66515,31.44735z" data-paper-data="{&quot;index&quot;:null}"/><path d="M344.94184,205.55112l5.08655,-28.92168l5.16059,-12.2253l0.37677,13.76319l-6.18427,30.84045z" data-paper-data="{&quot;index&quot;:null}"/><path d="M334.50118,210.40004l-6.18427,-30.84045l0.37677,-13.76319l5.16059,12.2253l5.08655,28.92168z" data-paper-data="{&quot;index&quot;:null}"/><path d="M323.87741,206.91055l-1.3197,-29.3359l2.38071,-13.05457l3.35852,13.35245l0.66515,31.44735z" data-paper-data="{&quot;index&quot;:null}"/><path d="M317.62688,207.64973l-2.90274,-29.22175l1.67192,-13.16413l4.07502,13.15149l2.36322,31.36548z" data-paper-data="{&quot;index&quot;:null}"/><path d="M308.39081,210.44749l2.36322,-31.36548l4.07502,-13.15149l1.67192,13.16413l-2.90274,29.22175z" data-paper-data="{&quot;index&quot;:null}"/></g></g></svg>