<svg version="1.1" xmlns="http://www.w3.org/2000/svg" xmlns:xlink="http://www.w3.org/1999/xlink" width="795.61901" height="567.2426" viewBox="0,0,795.61901,567.2426"><defs><linearGradient x1="-47.53754" y1="177.74778" x2="96.60661" y2="177.74778" gradientUnits="userSpaceOnUse" id="color-1"><stop offset="0" stop-color="#000000"/><stop offset="1" stop-color="#000000" stop-opacity="0"/></linearGradient></defs><g transform="translate(144.26484,87.52253)"><g data-paper-data="{&quot;isPaintingLayer&quot;:true}" fill-rule="nonzero" stroke="none" stroke-width="0" stroke-linecap="butt" stroke-linejoin="miter" stroke-miterlimit="10" stroke-dasharray="" stroke-dashoffset="0" style="mix-blend-mode: normal"><path d="M-32,381.00001v-402h544v402z" data-paper-data="{&quot;index&quot;:null}" fill="#95e447"/><path d="M265.93076,50.50454c25.0724,0 45.39759,6.83171 45.39759,15.25904c0,8.42734 -20.32519,15.25904 -45.39759,15.25904c-25.0724,0 -45.39759,-6.83171 -45.39759,-15.25904c0,-8.42734 20.32519,-15.25904 45.39759,-15.25904z" data-paper-data="{&quot;index&quot;:null}" fill="#9df04a"/><path d="M298.37423,141.6957c25.0724,0 45.39759,6.83171 45.39759,15.25904c0,8.42734 -20.32519,15.25904 -45.39759,15.25904c-25.0724,0 -45.39759,-6.83171 -45.39759,-15.25904c0,-8.42734 20.32519,-15.25904 45.39759,-15.25904z" data-paper-data="{&quot;index&quot;:null}" fill="#9df04a"/><path d="M99.62538,129.57529c25.0724,0 45.39759,6.83171 45.39759,15.25904c0,8.42734 -20.32519,15.25904 -45.39759,15.25904c-25.0724,0 -45.39759,-6.83171 -45.39759,-15.25904c0,-8.42734 20.32519,-15.25904 45.39759,-15.25904z" data-paper-data="{&quot;index&quot;:null}" fill="#9df04a"/><path d="M430.33735,74.10241c25.0724,0 45.39759,6.83171 45.39759,15.25904c0,8.42734 -20.32519,15.25904 -45.39759,15.25904c-25.0724,0 -45.39759,-6.83171 -45.39759,-15.25904c0,-8.42734 20.32519,-15.25904 45.39759,-15.25904z" data-paper-data="{&quot;index&quot;:null}" fill="#9df04a"/><path d="M419.29364,202.44442c25.0724,0 45.39759,6.83171 45.39759,15.25904c0,8.42734 -20.32519,15.25904 -45.39759,15.25904c-25.0724,0 -45.39759,-6.83171 -45.39759,-15.25904c0,-8.42734 20.32519,-15.25904 45.39759,-15.25904z" data-paper-data="{&quot;index&quot;:null}" fill="#9df04a"/><path d="M317.74381,307.99546c25.0724,0 45.39759,6.83171 45.39759,15.25904c0,8.42734 -20.32519,15.25904 -45.39759,15.25904c-25.0724,0 -45.39759,-6.83171 -45.39759,-15.25904c0,-8.42734 20.32519,-15.25904 45.39759,-15.25904z" data-paper-data="{&quot;index&quot;:null}" fill="#9df04a"/><path d="M270.00156,251.97426c25.0724,0 45.39759,6.83171 45.39759,15.25904c0,8.42734 -20.32519,15.25904 -45.39759,15.25904c-25.0724,0 -45.39759,-6.83171 -45.39759,-15.25904c0,-8.42734 20.32519,-15.25904 45.39759,-15.25904z" data-paper-data="{&quot;index&quot;:null}" fill="#9df04a"/><path d="M150.02101,199.36592c25.0724,0 45.39759,6.83171 45.39759,15.25904c0,8.42734 -20.32519,15.25904 -45.39759,15.25904c-25.0724,0 -45.39759,-6.83171 -45.39759,-15.25904c0,-8.42734 20.32519,-15.25904 45.39759,-15.25904z" data-paper-data="{&quot;index&quot;:null}" fill="#9df04a"/><path d="M80.32391,53.01806c25.0724,0 45.39759,6.83171 45.39759,15.25904c0,8.42734 -20.32519,15.25904 -45.39759,15.25904c-25.0724,0 -45.39759,-6.83171 -45.39759,-15.25904c0,-8.42734 20.32519,-15.25904 45.39759,-15.25904z" data-paper-data="{&quot;index&quot;:null}" fill="#9df04a"/><path d="M-37,391.00001v-402h544v402z" fill="#95e447"/><path d="M280.87952,159.67171c0,6.44345 11.45129,14.78743 -5.3498,17.02488c-5.17292,0.68889 -34.14548,-1.76584 -40.04779,-1.76584c-7.94966,0 -9.58874,-6.68681 -16.08734,-7.89352c-13.99733,-2.59913 -29.31025,-1.61023 -29.31025,-7.36552c0,-8.42733 20.32519,-15.25904 45.39759,-15.25904c8.14614,0 26.79115,2.38784 33.40074,3.65061c13.73357,2.6238 11.99685,5.91918 11.99685,11.60843z" fill="#9df04a"/><path d="M384.87952,105.68072c0,6.44345 11.45129,14.78743 -5.3498,17.02488c-5.17292,0.68889 -34.14548,-1.76584 -40.04779,-1.76584c-7.94966,0 -9.58874,-6.68681 -16.08734,-7.89352c-13.99733,-2.59913 -29.31025,-1.61023 -29.31025,-7.36552c0,-8.42733 20.32519,-15.25904 45.39759,-15.25904c8.14614,0 26.79115,2.38784 33.40074,3.65061c13.73357,2.6238 11.99685,5.91918 11.99685,11.60843z" fill="#9df04a"/><path d="M426.87952,344.68073c0,6.44345 11.45129,14.78743 -5.3498,17.02488c-5.17292,0.68889 -34.14548,-1.76584 -40.04779,-1.76584c-7.94966,0 -9.58874,-6.68681 -16.08734,-7.89352c-13.99733,-2.59913 -29.31025,-1.61023 -29.31025,-7.36552c0,-8.42733 20.32519,-15.25904 45.39759,-15.25904c8.14614,0 26.79115,2.38784 33.40074,3.65061c13.73357,2.6238 11.99685,5.91918 11.99685,11.60843z" fill="#9df04a"/><path d="M202.89151,69.0723c6.60959,-1.26277 25.2546,-3.65061 33.40074,-3.65061c25.0724,0 45.39759,6.83171 45.39759,15.25904c0,5.75529 -15.31292,4.76639 -29.31025,7.36552c-6.4986,1.20671 -8.13768,7.89352 -16.08734,7.89352c-5.90231,0 -34.87487,2.45473 -40.04779,1.76584c-16.80109,-2.23745 -5.3498,-10.58143 -5.3498,-17.02488c0,-5.68925 -1.73672,-8.98463 11.99685,-11.60843z" data-paper-data="{&quot;index&quot;:null}" fill="#9df04a"/><path d="M433.87952,55.68073c0,6.44345 11.45129,14.78743 -5.3498,17.02488c-5.17292,0.68889 -34.14548,-1.76584 -40.04779,-1.76584c-7.94966,0 -9.58874,-6.68681 -16.08734,-7.89352c-13.99733,-2.59913 -29.31025,-1.61023 -29.31025,-7.36552c0,-8.42733 20.32519,-15.25904 45.39759,-15.25904c8.14614,0 26.79115,2.38784 33.40074,3.65061c13.73357,2.6238 11.99685,5.91918 11.99685,11.60843z" fill="#9df04a"/><path d="M153.87952,38.68072c0,6.44345 11.45129,14.78743 -5.3498,17.02488c-5.17292,0.68889 -34.14548,-1.76584 -40.04779,-1.76584c-7.94966,0 -9.58874,-6.68681 -16.08734,-7.89352c-13.99733,-2.59913 -29.31025,-1.61023 -29.31025,-7.36552c0,-8.42733 20.32519,-15.25904 45.39759,-15.25904c8.14614,0 26.79115,2.38784 33.40074,3.65061c13.73357,2.6238 11.99685,5.91918 11.99685,11.60843z" fill="#9df04a"/><path d="M227.87952,286.68073c0,6.44345 11.45129,14.78743 -5.3498,17.02488c-5.17292,0.68889 -34.14548,-1.76584 -40.04779,-1.76584c-7.94966,0 -9.58874,-6.68681 -16.08734,-7.89352c-13.99733,-2.59913 -29.31025,-1.61023 -29.31025,-7.36552c0,-8.42733 20.32519,-15.25904 45.39759,-15.25904c8.14614,0 26.79115,2.38784 33.40074,3.65061c13.73357,2.6238 11.99685,5.91918 11.99685,11.60843z" fill="#9df04a"/><path d="M55.89151,186.07229c6.60959,-1.26277 25.2546,-3.65061 33.40074,-3.65061c25.0724,0 45.39759,6.83171 45.39759,15.25904c0,5.75529 -15.31292,4.76639 -29.31025,7.36552c-6.4986,1.20671 -8.13768,7.89352 -16.08734,7.89352c-5.90231,0 -34.87487,2.45473 -40.04779,1.76584c-16.80109,-2.23745 -5.3498,-10.58143 -5.3498,-17.02488c0,-5.68925 -1.73672,-8.98463 11.99685,-11.60843z" data-paper-data="{&quot;index&quot;:null}" fill="#9df04a"/><path d="M223.87952,356.68073c0,6.44345 11.45129,14.78743 -5.3498,17.02488c-5.17292,0.68889 -34.14548,-1.76584 -40.04779,-1.76584c-7.94966,0 -9.58874,-6.68681 -16.08734,-7.89352c-13.99733,-2.59913 -29.31025,-1.61023 -29.31025,-7.36552c0,-8.42733 20.32519,-15.25904 45.39759,-15.25904c8.14614,0 26.79115,2.38784 33.40074,3.65061c13.73357,2.6238 11.99685,5.91918 11.99685,11.60843z" fill="#9df04a"/><path d="M288.00099,254.41164c3.30113,-0.63068 12.61332,-1.82328 16.68187,-1.82328c12.52231,0 22.67365,3.41207 22.67365,7.62107c0,2.87446 -7.64799,2.38055 -14.63889,3.67868c-3.2457,0.60269 -4.06433,3.94239 -8.03475,3.94239c-2.94789,0 -17.41812,1.22601 -20.00171,0.88194c-8.39123,-1.11748 -2.67194,-5.28485 -2.67194,-8.50301c0,-2.84147 -0.8674,-4.48734 5.99178,-5.79778z" data-paper-data="{&quot;index&quot;:null}" fill="#7ec03c"/><path d="M336.3453,183.68963c6.91074,1.3203 6.03682,2.97853 6.03682,5.84136c0,3.24234 5.76228,7.44104 -2.69203,8.56692c-2.60301,0.34664 -17.18201,-0.88858 -20.15205,-0.88858c-4.00027,0 -4.82505,-3.3648 -8.09515,-3.97202c-7.04345,-1.30789 -14.74892,-0.81028 -14.74892,-3.70634c0,-4.24063 10.22764,-7.67835 22.84408,-7.67835c4.09914,0 13.48131,1.20157 16.80726,1.83699z" data-paper-data="{&quot;index&quot;:null}" fill="#7ec03c"/><path d="M171.37645,226.68315c4.09446,-0.78225 15.64453,-2.26145 20.69083,-2.26145c15.53167,0 28.12256,4.23205 28.12256,9.45255c0,3.56525 -9.48593,2.95265 -18.15689,4.56274c-4.0257,0.74752 -5.04107,4.88981 -9.96566,4.88981c-3.65632,0 -21.60403,1.52064 -24.8085,1.09389c-10.40781,-1.38603 -3.31405,-6.5549 -3.31405,-10.54644c0,-3.52433 -1.07585,-5.56573 7.43172,-7.1911z" data-paper-data="{&quot;index&quot;:null}" fill="#7ec03c"/><path d="M259.84692,19.79845c3.67527,-0.70216 14.04285,-2.02993 18.57252,-2.02993c13.94154,0 25.24338,3.79877 25.24338,8.48481c0,3.20023 -8.51477,2.65035 -16.298,4.0956c-3.61356,0.67099 -4.52496,4.3892 -8.94538,4.3892c-3.28198,0 -19.39221,1.36496 -22.26862,0.9819c-9.34226,-1.24413 -2.97477,-5.88382 -2.97477,-9.4667c0,-3.16352 -0.9657,-4.99591 6.67087,-6.45488z" data-paper-data="{&quot;index&quot;:null}" fill="#7ec03c"/><path d="M61.00465,109.61544c3.18622,-0.60873 12.17423,-1.75981 16.10116,-1.75981c12.08639,0 21.88435,3.29329 21.88435,7.35577c0,2.77439 -7.38174,2.29769 -14.12929,3.55062c-3.13271,0.58171 -3.92284,3.80515 -7.75505,3.80515c-2.84526,0 -16.81177,1.18332 -19.30543,0.85124c-8.09913,-1.07859 -2.57892,-5.10089 -2.57892,-8.20701c0,-2.74255 -0.8372,-4.33112 5.7832,-5.59595z" data-paper-data="{&quot;index&quot;:null}" fill="#7ec03c"/><path d="M401.68618,201.2818c4.16433,-0.79559 15.91148,-2.30005 21.0439,-2.30005c15.79669,0 28.60242,4.30427 28.60242,9.61384c0,3.62608 -9.6478,3.00303 -18.46671,4.64059c-4.0944,0.76027 -5.12708,4.97325 -10.1357,4.97325c-3.7187,0 -21.97265,1.54659 -25.23181,1.11257c-10.5854,-1.40969 -3.37061,-6.66676 -3.37061,-10.72641c0,-3.58447 -1.0942,-5.6607 7.55853,-7.3138z" data-paper-data="{&quot;index&quot;:null}" fill="#7ec03c"/><path d="M249.89796,321.53119c3.67527,-0.70217 14.04285,-2.02993 18.57252,-2.02993c13.94154,0 25.24338,3.79878 25.24338,8.4848c0,3.20024 -8.51477,2.65036 -16.298,4.09561c-3.61355,0.67099 -4.52497,4.3892 -8.94538,4.3892c-3.28199,0 -19.3922,1.36496 -22.26862,0.9819c-9.34226,-1.24414 -2.97476,-5.88382 -2.97476,-9.46671c0,-3.16351 -0.96571,-4.99592 6.67086,-6.45488z" data-paper-data="{&quot;index&quot;:null}" fill="#7ec03c"/><path d="M-11.8903,232.68223c4.93283,-0.94242 18.84789,-2.7245 24.92747,-2.7245c18.7119,0 33.8809,5.0986 33.8809,11.38805c0,4.29526 -11.42826,3.55723 -21.87468,5.497c-4.85,0.90058 -6.07327,5.89105 -12.00622,5.89105c-4.40498,0 -26.02764,1.83201 -29.88826,1.31788c-12.5389,-1.66984 -3.99264,-7.89708 -3.99264,-12.70593c0,-4.24597 -1.29614,-6.70537 8.95343,-8.66354z" data-paper-data="{&quot;index&quot;:null}" fill="#7ec03c"/><path d="M108.57124,302.74861c8.21724,1.56989 7.1781,3.54163 7.1781,6.94569c0,3.85532 6.85167,8.8478 -3.20096,10.18653c-3.09512,0.41218 -20.43033,-1.05656 -23.96187,-1.05656c-4.75654,0 -5.73725,-4.00094 -9.62557,-4.72295c-8.37506,-1.55515 -17.53726,-0.96345 -17.53726,-4.40703c0,-5.04234 12.16121,-9.12997 27.16283,-9.12997c4.87409,0 16.03001,1.42873 19.98473,2.18428z" data-paper-data="{&quot;index&quot;:null}" fill="#7ec03c"/><path d="M422.42124,265.29485c10.24957,1.95818 8.95343,4.41758 8.95343,8.66355c0,4.80884 8.54626,11.03608 -3.99264,12.70592c-3.86062,0.51413 -25.48328,-1.31788 -29.88826,-1.31788c-5.93295,0 -7.15622,-4.99047 -12.00622,-5.89105c-10.44641,-1.93977 -21.87468,-1.20174 -21.87468,-5.497c0,-6.28944 15.16899,-11.38805 33.8809,-11.38805c6.07958,0 19.99464,1.78208 24.92747,2.7245z" data-paper-data="{&quot;index&quot;:null}" fill="#7ec03c"/><path d="M643.01744,226.03603c0,58.62807 27.09355,230.80639 -16.40508,253.5784c-9.434,4.93881 23.53563,-164.89559 7.32632,-174.50246c-46.8213,-27.74988 -160.74023,68.46727 -202.60067,70.8829c-18.29916,1.05599 -43.23687,-30.80271 -62.58519,-29.14379c-38.7874,3.32563 -69.44524,64.62039 -111.62127,64.62039c-55.998,0 -76.06428,-44.0059 -123.66438,-60.96401c-25.84993,-9.20936 -49.95574,13.84822 -74.34028,2.83527c-94.95273,-42.88412 -172.86621,-134.53283 -172.86621,-224.9043c0,-156.31483 181.05956,-185.43543 385.88589,-185.43543c204.82632,0 370.87087,126.71821 370.87087,283.03304z" data-paper-data="{&quot;index&quot;:null}" fill="#f2ed83"/><path d="M612.49191,195.51051c0,58.62807 27.09355,230.80639 -16.40508,253.5784c-9.434,4.93881 23.53563,-164.89559 7.32632,-174.50246c-46.8213,-27.74988 -160.74023,68.46727 -202.60067,70.8829c-18.29916,1.05599 -43.23687,-30.80271 -62.58519,-29.14379c-38.7874,3.32563 -69.44524,64.62039 -111.62127,64.62039c-55.998,0 -76.06428,-44.0059 -123.66437,-60.964c-25.84993,-9.20936 -49.95574,13.84822 -74.34028,2.83527c-94.95273,-42.88412 -172.86621,-134.53283 -172.86621,-224.9043c0,-156.31483 181.05956,-185.43543 385.88589,-185.43543c204.82632,0 370.87087,126.71821 370.87087,283.03304z" data-paper-data="{&quot;index&quot;:null}" fill="#f3e93e"/><path d="M-47.53754,407.47751v-459.45946h144.14414v459.45946z" fill="url(#color-1)"/></g></g></svg>