<svg version="1.1" xmlns="http://www.w3.org/2000/svg" xmlns:xlink="http://www.w3.org/1999/xlink" width="69.33333" height="82.85333" viewBox="0,0,69.33333,82.85333"><g transform="translate(-205.33339,-138.57339)"><g data-paper-data="{&quot;isPaintingLayer&quot;:true}" fill-rule="nonzero" stroke-width="0" stroke-linecap="butt" stroke-linejoin="miter" stroke-miterlimit="10" stroke-dasharray="" stroke-dashoffset="0" style="mix-blend-mode: normal"><path d="M205.3334,221.42673v-82.85333h69.33333v82.85333z" data-paper-data="{&quot;index&quot;:null}" fill="none" stroke="#000000"/><path d="M245.70584,179.93641c0,0.5954 -0.96426,1.01859 -2.21598,1.55632c-0.98682,0.42393 -2.09213,1.03939 -3.45807,1.03939c-1.30833,0 -2.47115,-0.43191 -3.45156,-0.82745c-1.34154,-0.54123 -2.28608,-1.15305 -2.28608,-1.76825c0,-0.60959 1.0453,-1.0441 2.35733,-1.54887c0.97975,-0.37694 2.02385,-0.91965 3.34852,-0.91965c1.27252,0 2.17601,0.49112 3.13624,0.84391c1.37793,0.50626 2.5696,0.9971 2.5696,1.62461z" fill="#d8d8d8" stroke="none"/><path d="M242.14621,180c0,1.0624 -0.96089,1.92364 -2.14621,1.92364c-1.18532,0 -2.14621,-0.86124 -2.14621,-1.92364c0,-1.0624 0.96089,-1.92364 2.14621,-1.92364c1.18532,0 2.14621,0.86124 2.14621,1.92364z" fill="#e6e6e6" stroke="none"/><path d="M240.98567,180c0,0.51803 -0.4413,0.93797 -0.98567,0.93797c-0.54437,0 -0.98567,-0.41994 -0.98567,-0.93797c0,-0.51803 0.4413,-0.93797 0.98567,-0.93797c0.54437,0 0.98567,0.41994 0.98567,0.93797z" fill="#b0b0b0" stroke="none"/></g></g></svg>