<svg version="1.1" xmlns="http://www.w3.org/2000/svg" xmlns:xlink="http://www.w3.org/1999/xlink" width="511.80859" height="392.27283" viewBox="0,0,511.80859,392.27283"><g transform="translate(21.80859,25.77283)"><g data-paper-data="{&quot;isPaintingLayer&quot;:true}" fill-rule="nonzero" stroke-linecap="butt" stroke-linejoin="miter" stroke-miterlimit="10" stroke-dasharray="" stroke-dashoffset="0" style="mix-blend-mode: normal"><path d="M-21.80859,-24.44519l311.80446,-1.32764l-311.05607,337.52796z" fill-opacity="0.60477" fill="#ceffcf" stroke="none" stroke-width="0"/><path d="M-10,366.5v-373h500v373z" fill-opacity="0.2999" fill="#434d43" stroke="none" stroke-width="0"/><path d="M357.27421,148.89596c0,0 10.80571,-0.85075 16.90136,5.3149c6.09562,6.16565 5.3149,17.15647 5.3149,17.15647v17.26535c0,0 0.85075,10.92003 -5.3149,17.15647c-6.16565,6.23644 -16.90136,5.3149 -16.90136,5.3149h-234.22242c0,0 -10.99271,0.89504 -17.22025,-5.3149c-6.22754,-6.20994 -5.3149,-17.15647 -5.3149,-17.15647v-17.26535c0,0 -0.85075,-10.92003 5.3149,-17.15647c6.16565,-6.23644 16.90136,-5.3149 16.90136,-5.3149z" data-paper-data="{&quot;index&quot;:null}" fill="#deffde" stroke="#999999" stroke-width="5"/><text transform="translate(115.52033,193.73046) scale(0.97754,0.97754)" font-size="40" xml:space="preserve" fill="#999999" fill-rule="nonzero" stroke="#999999" stroke-width="2" stroke-linecap="butt" stroke-linejoin="miter" stroke-miterlimit="10" stroke-dasharray="" stroke-dashoffset="0" font-family="Sans Serif" font-weight="normal" text-anchor="start" style="mix-blend-mode: normal"><tspan x="0" dy="0">SEEKERS WIN</tspan></text></g></g></svg>