<svg version="1.1" xmlns="http://www.w3.org/2000/svg" xmlns:xlink="http://www.w3.org/1999/xlink" width="69.33333" height="82.85333" viewBox="0,0,69.33333,82.85333"><g transform="translate(-205.33334,-138.57334)"><g data-paper-data="{&quot;isPaintingLayer&quot;:true}" fill-rule="nonzero" stroke-linejoin="miter" stroke-miterlimit="10" stroke-dasharray="" stroke-dashoffset="0" style="mix-blend-mode: normal"><path d="M205.33335,221.42668v-82.85333h69.33333v82.85333z" fill="none" stroke="none" stroke-width="0" stroke-linecap="butt"/><path d="M240.00004,185.43334v-24.2" fill="none" stroke="#ff0000" stroke-width="5" stroke-linecap="round"/><path d="M239.90004,184.53334c0,0 0.1785,5.6194 -1.7919,9.56c-1.9703,3.9407 -8.2081,6.04 -8.2081,6.04" fill="none" stroke="#ff0000" stroke-width="5" stroke-linecap="round"/><path d="M240.10004,184.53334c0,0 3.7748,6.9575 4.6285,10.3038c0.8108,3.1784 2.5715,9.4962 2.5715,9.4962" data-paper-data="{&quot;index&quot;:null}" fill="none" stroke="#ff0000" stroke-width="5" stroke-linecap="round"/><path d="M232.10004,185.13334c0,0 0.9163,-4.8838 2.2124,-8.0176c1.3488,-3.2611 5.5287,-10.5824 5.5287,-10.5824" fill="none" stroke="#ff0000" stroke-width="5" stroke-linecap="round"/><path d="M249.10004,185.13334c0,0 -2.5284,-4.5879 -4.122,-7.3844c-1.9722,-3.4609 -4.8192,-11.2156 -4.8192,-11.2156" data-paper-data="{&quot;index&quot;:null}" fill="none" stroke="#ff0000" stroke-width="5" stroke-linecap="round"/><path d="M231.70001,161.13333c0,-4.58397 3.71604,-8.3 8.3,-8.3c4.58397,0 8.3,3.71604 8.3,8.3c0,4.58397 -3.71604,8.3 -8.3,8.3c-4.58397,0 -8.3,-3.71603 -8.3,-8.3z" fill="#ff0000" stroke="none" stroke-width="0" stroke-linecap="butt"/></g></g></svg>