<svg version="1.1" xmlns="http://www.w3.org/2000/svg" xmlns:xlink="http://www.w3.org/1999/xlink" width="170.14749" height="224.54626" viewBox="0,0,170.14749,224.54626"><g transform="translate(-144.91874,4.24002)"><g data-paper-data="{&quot;isPaintingLayer&quot;:true}" fill-rule="nonzero" stroke-linejoin="miter" stroke-miterlimit="10" stroke-dasharray="" stroke-dashoffset="0" style="mix-blend-mode: normal"><path d="M144.91874,196.33822c0,-13.2372 38.0888,-23.96803 85.07374,-23.96803c46.98494,0 85.07375,10.73084 85.07375,23.96803c0,13.23719 -38.08882,23.96802 -85.07375,23.96802c-46.98494,0 -85.07374,-10.73084 -85.07374,-23.96802z" data-paper-data="{&quot;index&quot;:null}" fill-opacity="0.10588" fill="#1a1a1a" stroke="none" stroke-width="0" stroke-linecap="butt"/><path d="M266.46169,164.66649c0,0 -0.20451,-0.40901 -0.26366,-0.96463c-9.32776,-3.51038 -19.19176,-6.19295 -29.25027,-6.17981c-14.54684,0 -30.31071,0.4292 -43.72829,6.64088c-0.00052,0.20792 -0.02676,0.40458 -0.06438,0.58015c13.37721,6.13013 29.06286,6.55538 43.54267,6.55538c10.28236,0.01344 20.36145,-2.79016 29.87223,-6.41539c-0.03609,-0.0722 -0.0722,-0.14438 -0.10829,-0.21658zM236.94776,152.52204c12.02103,0.01422 23.67961,3.55444 34.67848,7.92881l0.61209,0.19948c0,0 2.37171,0.79057 1.58114,3.16228c-0.00045,0.00135 -0.0009,0.00269 -0.00135,0.00404c0.62964,0.73478 0.62964,1.73181 0.62964,1.73181c0,9.41667 0,18.83333 0,28.25v0.25c0,0 0,2.5 -2.5,2.5c-0.73167,0 -1.2492,-0.21413 -1.61527,-0.51706c-10.69166,4.18265 -21.99323,7.5033 -33.63473,7.51706c-16.36717,0 -34.00093,-0.6868 -48.71569,-8.54221c-0.16404,0.02738 -0.34176,0.04221 -0.53431,0.04221c-1.70433,0 -2.24676,-1.16189 -2.4194,-1.90148c-0.50775,-0.56964 -1.01642,-1.56461 -0.22433,-2.88476c0.04038,-0.0673 0.0816,-0.13122 0.12358,-0.19191c-0.09344,-4.72844 -0.49001,-9.42377 -0.72675,-14.14732c-0.20352,-4.06068 -0.76745,-6.81508 0.50343,-10.4672c-0.34543,-0.58626 -0.51651,-1.41651 0.09974,-2.44358c0.62502,-1.04171 1.45253,-1.2735 2.13814,-1.23652c14.96691,-8.52588 33.15732,-9.25366 50.00559,-9.25366zM236.69776,176.29846c-15.93358,0 -33.06752,-0.6509 -47.54016,-7.93288l-0.15674,0.03818c-0.51331,2.36248 0.05462,4.48049 0.1938,7.27016c0.24489,4.90837 0.65759,9.78787 0.73893,14.70453c14.03501,7.67265 31.10474,8.17001 46.76417,8.17001c11.32591,0.01479 22.40519,-3.38825 32.75,-7.54245c0,-7.25342 0,-14.62212 0,-21.88105c-10.42968,4.01948 -21.42911,7.16012 -32.75,7.1735z" fill="#000000" stroke="none" stroke-width="0.5" stroke-linecap="butt"/><path d="M266.61996,164.88371c-9.51078,3.62523 -19.60464,6.46367 -29.887,6.45024c-14.47982,0 -30.25068,-0.46029 -43.62788,-6.59042c0.03761,-0.17557 0.06385,-0.37302 0.06437,-0.58094c13.41759,-6.21168 29.2673,-6.6754 43.81415,-6.6754c10.05852,-0.01314 19.93665,2.70331 29.26441,6.21369c0.05915,0.55563 0.26367,0.96596 0.26367,0.96596c0.03609,0.0722 0.0722,0.14467 0.10829,0.21687z" data-paper-data="{&quot;noHover&quot;:false,&quot;origItem&quot;:[&quot;Path&quot;,{&quot;applyMatrix&quot;:true,&quot;segments&quot;:[[[542.92632,523.4861],[0.07219,0.14439],[0,0]],[[542.399,521.55683],[0.11831,1.11125],[-18.65553,-7.02077]],[[483.89845,509.1972],[20.11703,-0.02628],[-29.09368,0]],[[396.44186,522.47897],[26.83517,-12.42337],[-0.00103,0.41584]],[[396.31311,523.63927],[0.07523,-0.35115],[26.75441,12.26026]],[[483.39845,536.75003],[-28.95963,0],[20.56472,0.02687]],[[543.1429,523.91926],[-19.02155,7.25045],[-0.07219,-0.14439]]],&quot;closed&quot;:true}]}" fill="#696969" stroke="none" stroke-width="0.5" stroke-linecap="butt"/><path d="M226.81067,158.82838c3.06434,1.22574 5.76063,5.81501 1.64054,7.52928c-4.51969,1.88054 -13.41847,2.62276 -17.7836,-0.01064c-2.25021,-1.35751 -2.80168,-4.77362 0,-5.97214c3.81084,-1.63021 12.22685,-4.11268 15.87528,-1.68039z" fill="#545454" stroke="none" stroke-width="0.5" stroke-linecap="butt"/><path d="M269.49486,169.10821c0,7.25894 0.00204,14.65358 0.00204,21.90699c-10.34481,4.1542 -21.4508,7.59272 -32.77671,7.57793c-15.65942,0 -32.80083,-0.53334 -46.83584,-8.20599c-0.08135,-4.91665 -0.49389,-9.81442 -0.73878,-14.72279c-0.13918,-2.78967 -0.70484,-4.91568 -0.19153,-7.27816l0.15677,-0.03828c14.47264,7.28198 31.68972,7.91621 47.6233,7.91621c11.32089,-0.01339 22.33108,-3.13643 32.76076,-7.15591z" data-paper-data="{&quot;noHover&quot;:false,&quot;origItem&quot;:[&quot;Path&quot;,{&quot;applyMatrix&quot;:true,&quot;segments&quot;:[[[483.39845,546.75003],[22.64178,-0.02677],[-31.86716,0]],[[388.31812,530.88428],[28.94528,14.56396],[0,0]],[[388.00464,530.96064],[0,0],[-1.02661,4.72496]],[[388.39225,545.50096],[-0.27836,-5.57934],[0.48978,9.81674]],[[389.87012,574.91001],[-0.1627,-9.83331],[28.07002,15.3453]],[[483.39845,591.25003],[-31.31885,0],[22.65182,0.02959]],[[548.89845,576.16513],[-20.68962,8.30841],[0,-14.50683]],[[548.89845,532.40303],[0,14.51787],[-20.85936,8.03897]]],&quot;closed&quot;:true}]}" fill="#404040" stroke="none" stroke-width="0.5" stroke-linecap="butt"/><path d="M208.53778,39.34004c0,-12.47241 10.11088,-22.58326 22.58326,-22.58326c12.47241,0 22.58326,10.11088 22.58326,22.58326c0,12.47241 -10.11088,22.58326 -22.58326,22.58326c-12.47241,0 -22.58326,-10.11085 -22.58326,-22.58326z" fill="#004c4c" stroke="#004c4c" stroke-width="0" stroke-linecap="butt"/><path d="M231.12116,105.45731v-65.84518" fill="none" stroke="#004c4c" stroke-width="12.5" stroke-linecap="round"/><path d="M217.24466,156.33772c0,0 -7.7601,-19.9104 -5.67911,-28.06788c2.40637,-9.43296 19.28349,-25.26127 19.28349,-25.26127" fill="none" stroke="#004c4c" stroke-width="12.5" stroke-linecap="round"/><path d="M248.73947,30.48303c0,1.5255 1.48293,6.30853 -1.62647,7.3185c-3.19459,1.03764 -11.04775,-1.7185 -15.97353,-1.7185c-3.78796,0 -13.29642,1.61924 -16.16797,0.97145c-4.49707,-1.01449 -1.43203,-4.68392 -1.43203,-6.57145c0,-3.0928 7.87979,-5.6 17.6,-5.6c9.72021,0 17.6,2.5072 17.6,5.6z" fill="#005d5d" stroke="none" stroke-width="0" stroke-linecap="butt"/><path d="M231.39323,103.00857c0,0 4.94043,19.36646 7.28205,28.54563c2.18187,8.55293 1.57233,33.03352 1.57233,33.03352" data-paper-data="{&quot;index&quot;:null}" fill="none" stroke="#004c4c" stroke-width="12.5" stroke-linecap="round"/><path d="M226.41759,53.78281c0,0 -8.25613,18.03145 -12.16248,26.56296c-3.63154,7.93131 -34.76139,-17.29303 -34.76139,-17.29303" fill="none" stroke="#004c4c" stroke-width="12.5" stroke-linecap="round"/><path d="M231.57445,54.03282c0,0 10.90956,6.22239 13.96979,12.90587c4.15675,9.07826 8.70435,36.61406 8.70435,36.61406" data-paper-data="{&quot;index&quot;:null}" fill="none" stroke="#004c4c" stroke-width="12.5" stroke-linecap="round"/><path d="M235.54169,9.47333l-0.2971,-0.79238c-1.16238,-2.90666 -2.52252,-5.76361 -3.51261,-8.73512c-0.02621,-0.07866 -0.05501,-0.15864 -0.08527,-0.23949c-1.21345,3.06962 -3.07992,5.77694 -4.12745,8.85002c0.77213,2.29956 1.45456,4.64325 2.04776,6.86132c0.53704,2.00809 0.83008,3.91076 2.17144,5.5528l0.01195,0.01591l0.16213,-0.21591c1.34136,-1.64204 1.6344,-3.54471 2.17144,-5.5528c0.47681,-1.78288 1.01127,-3.64691 1.60362,-5.50395c-0.10135,-0.12157 -0.14591,-0.24041 -0.14591,-0.24041zM230.90395,-2.81679l0.09455,-0.75638c0.04137,-0.37508 0.35933,-0.66685 0.74544,-0.66685c0.3893,0 0.70933,0.29661 0.74641,0.67617l0.099,0.89101l-0.04209,0.00468c1.51658,3.22704 2.57783,6.88597 3.86195,10.21145c0.29556,-0.85193 0.60357,-1.69496 0.92406,-2.5203l-0.08701,-0.00966l0.19834,-1.78501c0.06181,-0.6326 0.59518,-1.12695 1.24402,-1.12695c0.5623,0 1.03789,0.37129 1.19497,0.88206l0.3697,1.10911c0.21149,0.42041 0.42389,0.84494 0.63633,1.27286c1.16198,-2.26255 2.20894,-4.21037 2.20431,-7.2554v-0.8c0,-0.41421 0.33578,-0.75 0.75,-0.75c0.36866,0 0.6752,0.266 0.73816,0.61653l0.19728,0.98637l-0.08158,0.01632c0.98425,1.87338 1.7994,3.92421 2.63362,5.83098c0.17077,0.39033 1.31852,2.78104 1.67173,3.753c0.2046,-0.56851 0.89121,-1.52988 0.91071,-1.56002c0.71438,-1.10405 1.27234,-1.94216 1.7341,-3.17266c0.1082,-0.25162 0.21642,-0.50324 0.32462,-0.75486l0.03439,-0.02967l-0.01421,-0.00812l0.39278,-0.68736c0.12733,-0.23271 0.37444,-0.39053 0.65841,-0.39053c0.41422,0 0.75,0.33579 0.75,0.75v1h-0.1173c0.14595,0.7182 0.26488,1.43955 0.4229,2.15304c0.08086,-0.18719 0.15393,-0.37097 0.21867,-0.55058c0,0 0.24473,-0.65264 0.85605,-0.80046c0.08804,-0.37007 0.36113,-0.94397 1.20811,-0.94397c1.25,0 1.25,1.25 1.25,1.25c0,3.94713 -1.61228,7.20902 -2.00426,11.1031c-0.47194,4.68842 -0.32907,9.49501 -0.32907,14.23023v1.33334c0,0 0,1.25 -1.25,1.25c-0.28261,0 -0.50134,-0.0639 -0.6706,-0.1628c-5.38213,2.2602 -12.40593,1.22946 -18.08981,1.22946l-1.08389,-0.56611c0,0 -0.12204,-0.12204 -0.23008,-0.32078l-0.45984,-0.36827c-0.08602,-0.09561 -1.29249,-1.33748 -1.78233,-2.1611c-0.55352,1.02953 -2.01199,2.81244 -2.14849,3.01827c0,0 -0.45285,0.67928 -1.17557,0.57394l-0.04605,0.02406c-5.68389,0 -12.70769,1.03074 -18.08982,-1.22946c-0.16926,0.0989 -0.38798,0.16279 -0.6706,0.16279c-1.25,0 -1.25,-1.25 -1.25,-1.25v-1.33334c0,-4.73522 0.14286,-9.54181 -0.32908,-14.23023c-0.39198,-3.89408 -2.00426,-7.15597 -2.00426,-11.1031c0,0 0,-1.25 1.25,-1.25c0.84477,0 1.11863,0.57091 1.20741,0.94107c0.36964,-0.31907 0.84,-0.05029 0.84,-0.05029c1.49539,0.86213 2.8182,2.00744 4.31277,2.90747c0.59176,0.35636 1.20574,1.90147 1.59087,1.32802c1.28488,-1.91317 1.63415,-4.85497 1.8844,-7.10725c0.06329,-0.2797 0.12657,-0.5594 0.18986,-0.83911v-0.73795c0,-0.41421 0.33578,-0.75 0.75,-0.75c0.36345,0 0.66652,0.25853 0.73534,0.60172l0.1968,0.88558l-0.05451,0.01211c1.2271,2.0687 2.23571,4.36674 3.27641,6.54925c0.39927,-0.8167 0.80111,-1.62374 1.19972,-2.41612l0.3697,-1.10911c0.15708,-0.51078 0.63267,-0.88206 1.19497,-0.88206c0.64883,0 1.18221,0.49435 1.24402,1.12695l0.19833,1.78501l-0.087,0.00966c0.1527,0.39325 0.30257,0.79051 0.44961,1.19084c1.36484,-3.05396 3.28459,-5.83597 4.13661,-9.23061zM252.44013,5.00638c-0.18822,0.37434 -0.40469,0.73953 -0.68394,1.13679c-0.58274,0.829 -1.68658,3.62289 -2.95408,3.50328c-0.5158,-0.04868 -1.47471,-2.22322 -1.71943,-2.68257c-1.01713,-1.90923 -1.93462,-3.94088 -2.83147,-5.92357c-0.51993,2.15412 -1.55282,3.88729 -2.54541,5.98749c1.15161,2.3748 2.27137,4.82173 3.21849,7.21976l0.16905,-0.08206c2.80848,-0.89615 6.07165,-4.13756 7.97209,-7.16751c-0.22197,-0.5704 -0.47384,-1.29309 -0.6253,-1.99161zM218.42401,2.46116c-0.26934,1.77464 -0.69848,3.36205 -1.49927,5.06347c-0.30281,0.64337 -0.44554,1.71341 -1.25655,2.00104c-0.82882,0.29395 -1.54502,-0.62703 -2.0683,-1.01126c-1.15353,-0.84701 -2.45416,-1.77002 -3.72991,-2.57448c1.68967,3.33044 5.48442,7.40347 8.68767,8.42558l0.16905,0.08206c0.78762,-1.99422 1.69465,-4.02226 2.6401,-6.01451c-1.00106,-1.99537 -2.03128,-3.9385 -2.94279,-5.97189zM231.88273,26.36059c0.75511,0.00454 2.88933,3.04565 3.49033,3.7132l0.22088,0.1362c0,0 0.1437,0.10777 0.28129,0.29608c5.25463,0.08128 12.21311,1.1574 16.9238,-1.20605c-0.00095,-4.78827 -0.13379,-9.64377 0.3376,-14.3851c0.18244,-1.83497 0.64937,-3.53371 1.08573,-5.22885c-2.22273,3.0238 -5.35799,5.82583 -8.33846,6.85114l-0.63627,0.33218c0,0 -0.69073,0.34537 -1.25781,-0.04973c-0.76998,-0.02502 -1.07162,-0.8294 -1.07162,-0.8294c-0.99959,-2.69783 -2.28593,-5.46755 -3.59442,-8.14756c-0.20411,0.55937 -0.45919,1.13214 -0.64932,1.70395c-1.34233,4.03708 -2.17668,9.44078 -4.80977,12.78559l-0.57608,0.76913c0,0 -0.50786,0.67715 -1.24498,0.4991c-0.96544,0.65535 -1.68127,-0.2991 -1.68127,-0.2991l-0.57609,-0.76913c-2.63309,-3.3448 -3.46744,-8.7485 -4.80977,-12.78558c-0.19012,-0.57181 -0.4452,-1.14458 -0.64932,-1.70395c-1.30848,2.68002 -2.59483,5.44974 -3.59442,8.14757c0,0 -0.30164,0.80438 -1.07162,0.8294c-0.56708,0.3951 -1.2578,0.04973 -1.2578,0.04973l-0.63627,-0.33218c-2.98047,-1.02531 -6.11572,-3.82733 -8.33846,-6.85113c0.43636,1.69514 0.90329,3.39388 1.08573,5.22885c0.4714,4.74133 0.33855,9.59682 0.3376,14.38509c4.73138,2.37384 11.73036,1.27781 16.99296,1.20504c0.93529,-1.39629 2.98415,-4.3508 4.0378,-4.34447z" fill="#000000" stroke="none" stroke-width="0.5" stroke-linecap="butt"/><path d="M253.11511,6.99234c-1.90044,3.02996 -5.22987,6.32419 -8.03835,7.22033l-0.16993,0.08174c-0.94711,-2.39803 -2.09912,-4.89721 -3.25073,-7.27201c0.99258,-2.1002 2.05374,-3.87315 2.57367,-6.02727c0.89685,1.9827 1.81543,4.01384 2.83256,5.92307c0.24472,0.45934 1.1951,2.63875 1.7109,2.68742c1.2675,0.11961 2.35293,-2.61723 2.93567,-3.44623c0.27925,-0.39726 0.58733,-0.80181 0.77555,-1.17615c0.15147,0.69852 0.40869,1.43869 0.63066,2.00909z" data-paper-data="{&quot;noHover&quot;:false,&quot;origItem&quot;:[&quot;Path&quot;,{&quot;applyMatrix&quot;:true,&quot;segments&quot;:[[[218.3416,111.48294],[0.15147,0.69852],[-0.18822,0.37434]],[[217.65766,112.61973],[0.27925,-0.39726],[-0.58274,0.829]],[[214.70358,116.12301],[1.2675,0.11961],[-0.5158,-0.04868]],[[212.98415,113.44044],[0.24472,0.45934],[-1.01713,-1.90923]],[[210.15268,107.51687],[0.89685,1.9827],[-0.51993,2.15412]],[[207.60728,113.50436],[0.99258,-2.1002],[1.15161,2.3748]],[[210.82576,120.72412],[-0.94711,-2.39803],[0,0]],[[210.99481,120.64206],[0,0],[2.80848,-0.89615]],[[218.9669,113.47455],[-1.90044,3.02996],[-0.22197,-0.5704]]],&quot;closed&quot;:true}]}" fill="#a27c00" stroke="none" stroke-width="0.5" stroke-linecap="butt"/><path d="M235.73702,9.70608c-0.59236,1.85704 -1.15354,3.77328 -1.63035,5.55616c-0.53704,2.00809 -0.85129,3.91618 -2.19265,5.55822l-0.16292,0.21593l-0.01201,-0.01591c-1.34136,-1.64204 -1.65367,-3.54831 -2.19071,-5.5564c-0.59319,-2.21807 -1.30279,-4.62823 -2.07492,-6.92779c1.04753,-3.07309 2.96,-5.81033 4.17344,-8.87995c0.03027,0.08085 0.05948,0.16083 0.08569,0.23949c0.99009,2.97151 2.39508,5.85765 3.55746,8.76431l0.30044,0.80236c0,0 0.04516,0.122 0.14651,0.24358z" data-paper-data="{&quot;noHover&quot;:false,&quot;origItem&quot;:[&quot;Path&quot;,{&quot;applyMatrix&quot;:true,&quot;segments&quot;:[[201.44316,115.94989],[[201.14606,115.1575],[0,0],[-1.16238,-2.90666]],[[197.63345,106.42239],[0.99009,2.97151],[-0.02621,-0.07866]],[[197.54818,106.1829],[0.03027,0.08085],[-1.21345,3.06962]],[[193.42073,115.03292],[1.04753,-3.07309],[0.77213,2.29956]],[[195.46849,121.89425],[-0.59319,-2.21807],[0.53704,2.00809]],[[197.63993,127.44705],[-1.34136,-1.64204],[0,0]],[197.65188,127.46296],[[197.81401,127.24705],[0,0],[1.34136,-1.64204]],[[199.98545,121.69425],[-0.53704,2.00809],[0.47681,-1.78288]],[[201.58907,116.19029],[-0.59236,1.85704],[-0.10135,-0.12157]]],&quot;closed&quot;:true}]}" fill="#a27c00" stroke="none" stroke-width="0.5" stroke-linecap="butt"/><path d="M221.4168,8.43286c-0.94545,1.99225 -1.87945,4.06486 -2.66707,6.05908l-0.16981,-0.08167c-3.20325,-1.02211 -7.06607,-5.15995 -8.75574,-8.49039c1.27575,0.80447 2.67216,1.74602 3.82569,2.59304c0.52328,0.38424 1.18718,1.25676 2.016,0.96281c0.811,-0.28763 0.91532,-1.27873 1.21813,-1.9221c0.80079,-1.70143 1.29187,-3.36311 1.56121,-5.13775c0.91152,2.03339 1.97054,4.02161 2.9716,6.01699z" data-paper-data="{&quot;noHover&quot;:false,&quot;origItem&quot;:[&quot;Path&quot;,{&quot;applyMatrix&quot;:true,&quot;segments&quot;:[[[184.32548,108.93772],[0.91152,2.03339],[-0.26934,1.77464]],[[182.82621,114.0012],[0.80079,-1.70143],[-0.30281,0.64337]],[[181.56967,116.00223],[0.811,-0.28763],[-0.82882,0.29395]],[[179.50137,114.99097],[0.52328,0.38424],[-1.15353,-0.84701]],[[175.77146,112.41648],[1.27575,0.80447],[1.68967,3.33044]],[[184.45913,120.84206],[-3.20325,-1.02211],[0,0]],[[184.62818,120.92412],[0,0],[0.78762,-1.99422]],[[187.26828,114.90961],[-0.94545,1.99225],[-1.00106,-1.99537]]],&quot;closed&quot;:true}]}" fill="#a27c00" stroke="none" stroke-width="0.5" stroke-linecap="butt"/><path d="M227.82828,30.7522c-5.26261,0.07277 -12.29,1.14329 -17.02139,-1.23054c0.00095,-4.78827 0.12987,-9.67533 -0.34153,-14.41666c-0.18244,-1.83497 -0.55436,-3.50418 -0.99073,-5.19932c2.22274,3.0238 5.36109,5.81563 8.34156,6.84094l0.63641,0.33143c0,0 0.59244,0.32697 1.15952,-0.06813c0.76998,-0.02502 1.07267,-0.83369 1.07267,-0.83369c0.99959,-2.69783 2.30643,-5.49528 3.61492,-8.1753c0.20411,0.55937 0.51555,1.21472 0.70568,1.78653c1.34233,4.03708 2.17528,9.35818 4.80837,12.70299l0.56629,0.76414c0,0 0.69554,0.95128 1.66098,0.29593c0.73711,0.17806 1.22907,-0.49561 1.22907,-0.49561l0.56585,-0.76359c2.63309,-3.3448 3.46772,-8.6665 4.81005,-12.70358c0.19012,-0.57181 0.50084,-1.22765 0.70495,-1.78702c1.30848,2.68002 2.61542,5.4769 3.61501,8.17473c0,0 0.30277,0.80869 1.07275,0.83371c0.56708,0.3951 1.15981,0.06961 1.15981,0.06961l0.63641,-0.33147c2.98047,-1.02531 6.11885,-3.81746 8.34158,-6.84127c-0.43636,1.69514 -0.80853,3.36356 -0.99097,5.19853c-0.4714,4.74133 -0.34222,9.62847 -0.34127,14.41675c-4.71069,2.36345 -11.69725,1.313 -16.95188,1.23172c-0.1376,-0.18831 -0.28196,-0.29584 -0.28196,-0.29584l-0.22157,-0.13597c-0.601,-0.66755 -2.75062,-3.70609 -3.50573,-3.71063c-1.05365,-0.00634 -3.11957,2.94532 -4.05486,4.34161z" data-paper-data="{&quot;noHover&quot;:false,&quot;origItem&quot;:[&quot;Path&quot;,{&quot;applyMatrix&quot;:true,&quot;segments&quot;:[[[197.7842,132.83715],[-1.05365,-0.00634],[0.75511,0.00454]],[[201.27453,136.55034],[-0.601,-0.66755],[0,0]],[201.49541,136.68655],[[201.7767,136.98263],[-0.1376,-0.18831],[5.25463,0.08128]],[[218.70051,135.77658],[-4.71069,2.36345],[-0.00095,-4.78827]],[[219.03811,121.39148],[-0.4714,4.74133],[0.18244,-1.83497]],[[220.12384,116.16263],[-0.43636,1.69514],[-2.22273,3.0238]],[[211.78538,123.01377],[2.98047,-1.02531],[0,0]],[211.14911,123.34595],[[209.89131,123.29621],[0.56708,0.3951],[-0.76998,-0.02502]],[[208.81969,122.46682],[0,0],[-0.99959,-2.69783]],[[205.22527,114.31925],[1.30848,2.68002],[-0.20411,0.55937]],[[204.57595,116.0232],[0.19012,-0.57181],[-1.34233,4.03708]],[[199.76618,128.80878],[2.63309,-3.3448],[0,0]],[199.1901,129.57791],[[197.94512,130.07701],[0.73711,0.17806],[-0.96544,0.65535]],[196.26385,129.77791],[[195.68776,129.00878],[0,0],[-2.63309,-3.3448]],[[190.87799,116.2232],[1.34233,4.03708],[-0.19012,-0.57181]],[[190.22868,114.51925],[0.20411,0.55937],[-1.30848,2.68002]],[[186.63426,122.66682],[0.99959,-2.69783],[0,0]],[[185.56264,123.49621],[0.76998,-0.02502],[-0.56708,0.3951]],[184.30483,123.54595],[[183.66856,123.21377],[0,0],[-2.98047,-1.02531]],[[175.33011,116.36263],[2.22274,3.0238],[0.43636,1.69514]],[[176.41584,121.59148],[-0.18244,-1.83497],[0.4714,4.74133]],[[176.75344,135.97658],[0.00095,-4.78827],[4.73138,2.37384]],[[193.7464,137.18161],[-5.26261,0.07277],[0.93529,-1.39629]]],&quot;closed&quot;:true}]}" fill="#d4a400" stroke="none" stroke-width="0.5" stroke-linecap="butt"/></g></g></svg>