<svg version="1.1" xmlns="http://www.w3.org/2000/svg" xmlns:xlink="http://www.w3.org/1999/xlink" width="230.3939" height="110.71733" viewBox="0,0,230.3939,110.71733"><g transform="translate(-79.95506,-108.25)"><g data-paper-data="{&quot;isPaintingLayer&quot;:true}" fill="#f2ea48" fill-rule="nonzero" stroke-linecap="butt" stroke-linejoin="miter" stroke-miterlimit="10" stroke-dasharray="" stroke-dashoffset="0" style="mix-blend-mode: normal"><path d="M309.59896,183.33334c0,18.96177 -51.11415,34.33333 -114.16666,34.33333c-63.05251,0 -114.16667,-15.37155 -114.16667,-34.33333c0,-9.88602 36.44014,-13.66902 67.17619,-30.34187c28.21693,-15.30634 49.47804,-43.99147 79.65715,-43.99147c63.05251,0 81.5,55.37156 81.5,74.33334z" stroke="#000000" stroke-width="1.5"/><path d="M275.73599,209.77023c-0.07066,0.31424 -8.39435,2.77502 -13.69757,3.83878c-5.44335,1.09186 -13.29367,1.12852 -20.58207,2.08677c-10.13,1.33186 -20.52888,2.63464 -24.3326,3.05084c-4.89606,0.53573 -10.5759,-0.08217 -16.18475,-0.00536c-13.01002,0.17815 -22.6986,-0.77324 -25.90544,-0.31035c-9.70093,1.40029 -29.86414,-2.49768 -45.57037,-6.02922c-11.36772,-2.55604 -22.98806,-5.34766 -31.53391,-9.67201c-12.01168,-6.07812 -18.81663,-13.99188 -17.89045,-18.11101c0.38455,-1.71023 4.72566,-0.94114 7.42753,-1.89956c8.43549,-2.99229 26.91421,-2.28153 47.62598,2.37551c14.56092,3.27402 27.28948,7.83832 35.7693,12.45484c4.61259,2.51116 56.19962,-3.1117 72.96636,0.72385c2.77697,0.63526 50.45378,-21.19184 53.68843,-19.95518c3.63811,1.39091 14.05755,10.17325 8.09236,16.26522c-8.39794,8.57641 -29.75239,14.65138 -29.87279,15.18686z" stroke="none" stroke-width="0"/></g></g></svg>