<svg version="1.1" xmlns="http://www.w3.org/2000/svg" xmlns:xlink="http://www.w3.org/1999/xlink" width="108.95823" height="80.54912" viewBox="0,0,108.95823,80.54912"><g transform="translate(-186.65446,-127.61717)"><g data-paper-data="{&quot;isPaintingLayer&quot;:true}" fill-rule="nonzero" stroke-linejoin="miter" stroke-miterlimit="10" stroke-dasharray="" stroke-dashoffset="0" style="mix-blend-mode: normal"><path d="M240.33866,208.16629c-22.0811,0 -39.98137,-3.77895 -39.98137,-8.44051c0,-4.66157 17.90027,-8.44051 39.98137,-8.44051c22.0811,0 39.98137,3.77895 39.98137,8.44051c0,4.66157 -17.90027,8.44051 -39.98137,8.44051z" data-paper-data="{&quot;index&quot;:null}" fill-opacity="0.10588" fill="#000000" stroke="none" stroke-width="NaN" stroke-linecap="butt"/><path d="M252.74796,162.12102c1.9503,-1.93899 1.56722,-10.53916 3.9618,-11.52359c2.61577,-1.07517 8.03813,5.55763 10.82166,5.62039c2.54683,0.05752 8.16491,-7.75364 10.5487,-6.74429c2.35581,0.99742 1.48088,10.80426 3.39598,12.73047c2.03193,2.04356 11.903,0.97143 12.88659,3.49532c0.76334,1.9589 -7.1524,7.45177 -7.01986,9.52121c0.1906,2.97832 8.27724,8.86737 7.16236,11.68003c-0.99815,2.51832 -11.06842,1.99976 -13.11197,4.03158c-1.80843,1.79795 -0.63152,10.52963 -2.83099,11.50672c-2.39427,1.06364 -8.19048,-5.70317 -10.76183,-5.61128c-2.66544,0.09514 -7.40566,7.40483 -9.93468,6.45665c-2.65025,-0.99365 -3.0745,-10.29649 -5.20063,-12.43509c-1.60599,-1.61521 -10.83936,-0.39953 -11.79036,-2.33674c-1.29772,-2.64354 5.9689,-8.54318 5.88968,-11.4229c-0.07324,-2.65779 -6.54561,-8.60678 -5.58194,-11.12238c0.99585,-2.59985 9.46316,-1.75583 11.5655,-3.84612z" fill="#98e62e" stroke="#82cc29" stroke-width="2.5" stroke-linecap="butt"/><path d="M216.85097,146.50277c2.70023,-2.68462 2.16982,-14.59192 5.48533,-15.95482c3.62157,-1.48874 11.12909,7.69465 14.98296,7.78162c3.52612,0.07953 11.30459,-10.73521 14.60511,-9.33774c3.26154,1.38103 2.05026,14.95886 4.70177,17.62577c2.81319,2.82942 16.48008,1.34498 17.84193,4.83945c1.05693,2.71218 -9.90272,10.31713 -9.71925,13.18239c0.26395,4.12358 11.4602,12.27718 9.91655,16.1715c-1.38197,3.48662 -15.32455,2.76865 -18.15407,5.58183c-2.50376,2.4893 -0.8742,14.57861 -3.91958,15.93145c-3.31498,1.47261 -11.34001,-7.89625 -14.90008,-7.76905c-3.69052,0.13171 -10.25353,10.25238 -13.75491,8.93957c-3.66946,-1.37579 -4.25676,-14.25598 -7.2006,-17.2168c-2.22347,-2.23646 -15.00737,-0.55325 -16.32407,-3.23535c-1.7968,-3.66003 8.26414,-11.8284 8.15443,-15.81556c-0.10133,-3.67962 -9.06268,-11.91631 -7.7284,-15.39926c1.37882,-3.59957 13.10224,-2.43105 16.01286,-5.32501z" fill="#98e62e" stroke="#82cc29" stroke-width="2.5" stroke-linecap="butt"/><path d="M197.25875,172.02301c1.53641,-1.52772 1.23464,-8.30333 3.12124,-9.07882c2.06085,-0.84716 6.3328,4.37851 8.52578,4.42797c2.00647,0.04527 6.43266,-6.10867 8.31066,-5.31338c1.856,0.78576 1.16664,8.51195 2.6755,10.02951c1.60086,1.61008 9.37766,0.76533 10.15252,2.75388c0.60145,1.54323 -5.63485,5.87071 -5.53049,7.50112c0.15015,2.34648 6.5212,6.98612 5.64281,9.20204c-0.78639,1.98405 -8.72015,1.5755 -10.33012,3.17625c-1.42472,1.41654 -0.4975,8.29568 -2.23038,9.06541c-1.88639,0.83804 -6.45288,-4.49315 -8.47863,-4.42074c-2.09993,0.07502 -5.83456,5.83383 -7.82699,5.08684c-2.08798,-0.78282 -2.42214,-8.112 -4.09729,-9.79689c-1.26524,-1.27258 -8.53962,-0.31476 -9.2889,-1.84101c-1.02246,-2.08264 4.70261,-6.73066 4.64016,-8.9994c-0.05774,-2.09385 -5.15694,-6.78074 -4.39769,-8.76269c0.78461,-2.04827 7.45554,-1.38333 9.11183,-3.03008z" fill="#98e62e" stroke="#82cc29" stroke-width="2.5" stroke-linecap="butt"/><path d="M228.94971,163.23538c0,0 4.43898,-11.32964 8.36348,-11.95519c3.9245,-0.62565 12.03336,8.70381 12.03336,8.70381" fill="none" stroke="#82cc29" stroke-width="2.5" stroke-linecap="round"/><path d="M203.99884,187.58007c0,0 0.24037,-7.34615 2.1278,-8.3203c1.7026,-0.8787 8.69972,2.73198 8.69972,2.73198" fill="none" stroke="#82cc29" stroke-width="2.5" stroke-linecap="round"/><path d="M238.57685,182.69022c0,0 3.80777,-7.46005 6.98549,-6.63614c3.17762,0.82379 4.88986,7.68396 4.88986,7.68396" fill="none" stroke="#82cc29" stroke-width="2.5" stroke-linecap="round"/></g></g></svg>