<svg version="1.1" xmlns="http://www.w3.org/2000/svg" xmlns:xlink="http://www.w3.org/1999/xlink" width="923.03153" height="584.45142" viewBox="0,0,923.03153,584.45142"><defs><linearGradient x1="259.19224" y1="381.86394" x2="259.19224" y2="327.23932" gradientUnits="userSpaceOnUse" id="color-1"><stop offset="0" stop-color="#000000"/><stop offset="1" stop-color="#000000" stop-opacity="0"/></linearGradient><linearGradient x1="-22.11941" y1="132.74243" x2="32.50387" y2="132.36084" gradientUnits="userSpaceOnUse" id="color-2"><stop offset="0" stop-color="#000000"/><stop offset="1" stop-color="#000000" stop-opacity="0"/></linearGradient></defs><g transform="translate(36,159.67408)"><g data-paper-data="{&quot;isPaintingLayer&quot;:true}" fill-rule="nonzero" stroke-linejoin="miter" stroke-miterlimit="10" stroke-dasharray="" stroke-dashoffset="0" style="mix-blend-mode: normal"><path d="M-32,381.00006v-402h544v402z" fill="#95e447" stroke="none" stroke-width="0" stroke-linecap="butt"/><path d="M117.61446,236.24101c0,8.42733 -20.32519,15.25904 -45.39759,15.25904c-25.0724,0 -45.39759,-6.8317 -45.39759,-15.25904c0,-8.42733 20.32519,-15.25904 45.39759,-15.25904c25.0724,0 45.39759,6.8317 45.39759,15.25904z" fill="#9df04a" stroke="none" stroke-width="0" stroke-linecap="butt"/><path d="M198.71084,314.741c0,8.42733 -20.32519,15.25904 -45.39759,15.25904c-25.0724,0 -45.39759,-6.8317 -45.39759,-15.25904c0,-8.42733 20.32519,-15.25904 45.39759,-15.25904c25.0724,0 45.39759,6.8317 45.39759,15.25904z" fill="#9df04a" stroke="none" stroke-width="0" stroke-linecap="butt"/><path d="M291.87952,246.68077c0,8.42733 -20.32519,15.25904 -45.39759,15.25904c-25.0724,0 -45.39759,-6.8317 -45.39759,-15.25904c0,-8.42733 20.32519,-15.25904 45.39759,-15.25904c25.0724,0 45.39759,6.8317 45.39759,15.25904z" fill="#9df04a" stroke="none" stroke-width="0" stroke-linecap="butt"/><path d="M420.40361,188.10246c0,8.42733 -20.32519,15.25904 -45.39759,15.25904c-25.0724,0 -45.39759,-6.8317 -45.39759,-15.25904c0,-8.42733 20.32519,-15.25904 45.39759,-15.25904c25.0724,0 45.39759,6.8317 45.39759,15.25904z" fill="#9df04a" stroke="none" stroke-width="0" stroke-linecap="butt"/><path d="M464.53614,69.26511c0,8.42733 -20.32519,15.25904 -45.39759,15.25904c-25.0724,0 -45.39759,-6.8317 -45.39759,-15.25904c0,-8.42733 20.32519,-15.25904 45.39759,-15.25904c25.0724,0 45.39759,6.8317 45.39759,15.25904z" fill="#9df04a" stroke="none" stroke-width="0" stroke-linecap="butt"/><path d="M446.18072,291.30126c0,8.42733 -20.32519,15.25904 -45.39759,15.25904c-25.0724,0 -45.39759,-6.8317 -45.39759,-15.25904c0,-8.42733 20.32519,-15.25904 45.39759,-15.25904c25.0724,0 45.39759,6.8317 45.39759,15.25904z" fill="#9df04a" stroke="none" stroke-width="0" stroke-linecap="butt"/><path d="M-36,389.00006v-402h544v402z" data-paper-data="{&quot;index&quot;:null}" fill="#95e447" stroke="none" stroke-width="0" stroke-linecap="butt"/><path d="M320.00564,163.58883c6.60959,-1.26277 25.2546,-3.65061 33.40074,-3.65061c25.0724,0 45.39759,6.83171 45.39759,15.25904c0,5.75529 -15.31292,4.76639 -29.31025,7.36552c-6.4986,1.20671 -8.13768,7.89352 -16.08734,7.89352c-5.90231,0 -34.87487,2.45473 -40.04779,1.76584c-16.80109,-2.23745 -5.3498,-10.58143 -5.3498,-17.02488c0,-5.68925 -1.73672,-8.98463 11.99685,-11.60843z" data-paper-data="{&quot;index&quot;:null}" fill="#9df04a" stroke="none" stroke-width="0" stroke-linecap="butt"/><path d="M471.38403,235.19729c0,6.44345 11.45129,14.78743 -5.3498,17.02488c-5.17292,0.68889 -34.14548,-1.76584 -40.04779,-1.76584c-7.94966,0 -9.58874,-6.68681 -16.08734,-7.89352c-13.99733,-2.59913 -29.31025,-1.61023 -29.31025,-7.36552c0,-8.42733 20.32519,-15.25904 45.39759,-15.25904c8.14614,0 26.79115,2.38784 33.40074,3.65061c13.73357,2.6238 11.99685,5.91918 11.99685,11.60843z" fill="#9df04a" stroke="none" stroke-width="0" stroke-linecap="butt"/><path d="M379.87952,104.68077c0,6.44345 11.45129,14.78743 -5.3498,17.02488c-5.17292,0.68889 -34.14548,-1.76584 -40.04779,-1.76584c-7.94966,0 -9.58874,-6.68681 -16.08734,-7.89352c-13.99733,-2.59913 -29.31025,-1.61023 -29.31025,-7.36552c0,-8.42733 20.32519,-15.25904 45.39759,-15.25904c8.14614,0 26.79115,2.38784 33.40074,3.65061c13.73357,2.6238 11.99685,5.91918 11.99685,11.60843z" fill="#9df04a" stroke="none" stroke-width="0" stroke-linecap="butt"/><path d="M299.87952,37.68077c0,6.44345 11.45129,14.78743 -5.3498,17.02488c-5.17292,0.68889 -34.14548,-1.76584 -40.04779,-1.76584c-7.94966,0 -9.58874,-6.68681 -16.08734,-7.89352c-13.99733,-2.59913 -29.31025,-1.61023 -29.31025,-7.36552c0,-8.42733 20.32519,-15.25904 45.39759,-15.25904c8.14614,0 26.79115,2.38784 33.40074,3.65061c13.73357,2.6238 11.99685,5.91918 11.99685,11.60843z" fill="#9df04a" stroke="none" stroke-width="0" stroke-linecap="butt"/><path d="M410.88267,57.17698c-6.60959,1.26277 -25.2546,3.65061 -33.40074,3.65061c-25.0724,0 -45.39759,-6.83171 -45.39759,-15.25904c0,-5.75529 15.31292,-4.76639 29.31025,-7.36552c6.4986,-1.20671 8.13768,-7.89352 16.08734,-7.89352c5.90231,0 34.87487,-2.45473 40.04779,-1.76584c16.80109,2.23745 5.3498,10.58143 5.3498,17.02488c0,5.68925 1.73672,8.98463 -11.99685,11.60843z" data-paper-data="{&quot;index&quot;:null}" fill="#9df04a" stroke="none" stroke-width="0" stroke-linecap="butt"/><path d="M153.87952,38.68077c0,6.44345 11.45129,14.78743 -5.3498,17.02488c-5.17292,0.68889 -34.14548,-1.76584 -40.04779,-1.76584c-7.94966,0 -9.58874,-6.68681 -16.08734,-7.89352c-13.99733,-2.59913 -29.31025,-1.61023 -29.31025,-7.36552c0,-8.42733 20.32519,-15.25904 45.39759,-15.25904c8.14614,0 26.79115,2.38784 33.40074,3.65061c13.73357,2.6238 11.99685,5.91918 11.99685,11.60843z" fill="#9df04a" stroke="none" stroke-width="0" stroke-linecap="butt"/><path d="M81.94272,249.02201c0,-6.44345 -11.45129,-14.78743 5.3498,-17.02488c5.17292,-0.68889 34.14548,1.76584 40.04779,1.76584c7.94966,0 9.58874,6.68681 16.08734,7.89352c13.99733,2.59913 29.31025,1.61023 29.31025,7.36552c0,8.42733 -20.32519,15.25904 -45.39759,15.25904c-8.14614,0 -26.79115,-2.38784 -33.40074,-3.65061c-13.73357,-2.6238 -11.99685,-5.91918 -11.99685,-11.60843z" data-paper-data="{&quot;index&quot;:null}" fill="#9df04a" stroke="none" stroke-width="0" stroke-linecap="butt"/><path d="M336.27892,254.10421c0,6.44345 11.45129,14.78743 -5.3498,17.02488c-5.17292,0.68889 -34.14548,-1.76584 -40.04779,-1.76584c-7.94966,0 -9.58874,-6.68681 -16.08734,-7.89352c-13.99733,-2.59913 -29.31025,-1.61023 -29.31025,-7.36552c0,-8.42733 20.32519,-15.25904 45.39759,-15.25904c8.14614,0 26.79115,2.38784 33.40074,3.65061c13.73357,2.6238 11.99685,5.91918 11.99685,11.60843z" fill="#9df04a" stroke="none" stroke-width="0" stroke-linecap="butt"/><path d="M271.37802,339.2033c0,6.44345 11.45129,14.78743 -5.3498,17.02488c-5.17292,0.68889 -34.14548,-1.76584 -40.04779,-1.76584c-7.94966,0 -9.58874,-6.68681 -16.08734,-7.89352c-13.99733,-2.59913 -29.31025,-1.61023 -29.31025,-7.36552c0,-8.42733 20.32519,-15.25904 45.39759,-15.25904c8.14614,0 26.79115,2.38784 33.40074,3.65061c13.73357,2.6238 11.99685,5.91918 11.99685,11.60843z" fill="#9df04a" stroke="none" stroke-width="0" stroke-linecap="butt"/><path d="M122.00099,185.41169c3.30113,-0.63068 12.61332,-1.82328 16.68187,-1.82328c12.52231,0 22.67365,3.41207 22.67365,7.62107c0,2.87446 -7.64799,2.38055 -14.63889,3.67868c-3.2457,0.60269 -4.06433,3.94239 -8.03475,3.94239c-2.94789,0 -17.41812,1.22601 -20.00171,0.88194c-8.39123,-1.11748 -2.67194,-5.28485 -2.67194,-8.50301c0,-2.84147 -0.8674,-4.48734 5.99178,-5.79778z" data-paper-data="{&quot;index&quot;:null}" fill="#7ec03c" stroke="none" stroke-width="0" stroke-linecap="butt"/><path d="M265.37533,142.69268c6.91074,1.3203 6.03682,2.97853 6.03682,5.84136c0,3.24234 5.76228,7.44104 -2.69203,8.56692c-2.60301,0.34664 -17.18201,-0.88858 -20.15205,-0.88858c-4.00027,0 -4.82505,-3.3648 -8.09515,-3.97202c-7.04345,-1.30789 -14.74892,-0.81028 -14.74892,-3.70634c0,-4.24063 10.22764,-7.67835 22.84408,-7.67835c4.09914,0 13.48131,1.20157 16.80726,1.83699z" data-paper-data="{&quot;index&quot;:null}" fill="#7ec03c" stroke="none" stroke-width="0" stroke-linecap="butt"/><path d="M18.75783,320.26277c4.09446,-0.78225 15.64453,-2.26145 20.69083,-2.26145c15.53167,0 28.12256,4.23205 28.12256,9.45255c0,3.56525 -9.48593,2.95265 -18.15689,4.56274c-4.0257,0.74752 -5.04107,4.88981 -9.96566,4.88981c-3.65632,0 -21.60403,1.52064 -24.8085,1.09389c-10.40781,-1.38603 -3.31405,-6.5549 -3.31405,-10.54644c0,-3.52433 -1.07585,-5.56573 7.43172,-7.1911z" data-paper-data="{&quot;index&quot;:null}" fill="#7ec03c" stroke="none" stroke-width="0" stroke-linecap="butt"/><path d="M151.84692,109.7985c3.67527,-0.70216 14.04285,-2.02993 18.57252,-2.02993c13.94154,0 25.24338,3.79877 25.24338,8.48481c0,3.20023 -8.51477,2.65035 -16.298,4.0956c-3.61356,0.67099 -4.52496,4.3892 -8.94538,4.3892c-3.28198,0 -19.39221,1.36496 -22.26862,0.9819c-9.34226,-1.24413 -2.97477,-5.88382 -2.97477,-9.4667c0,-3.16352 -0.9657,-4.99591 6.67087,-6.45488z" data-paper-data="{&quot;index&quot;:null}" fill="#7ec03c" stroke="none" stroke-width="0" stroke-linecap="butt"/><path d="M61.00465,109.61548c3.18622,-0.60873 12.17423,-1.75981 16.10116,-1.75981c12.08639,0 21.88435,3.29329 21.88435,7.35577c0,2.77439 -7.38174,2.29769 -14.12929,3.55062c-3.13271,0.58171 -3.92284,3.80515 -7.75505,3.80515c-2.84526,0 -16.81177,1.18332 -19.30543,0.85124c-8.09913,-1.07859 -2.57892,-5.10089 -2.57892,-8.20701c0,-2.74255 -0.8372,-4.33112 5.7832,-5.59595z" data-paper-data="{&quot;index&quot;:null}" fill="#7ec03c" stroke="none" stroke-width="0" stroke-linecap="butt"/><path d="M230.51501,202.73831c4.16433,-0.79559 15.91148,-2.30005 21.0439,-2.30005c15.79669,0 28.60242,4.30427 28.60242,9.61384c0,3.62608 -9.6478,3.00303 -18.46671,4.64059c-4.0944,0.76027 -5.12708,4.97325 -10.1357,4.97325c-3.7187,0 -21.97265,1.54659 -25.23181,1.11257c-10.5854,-1.40969 -3.37061,-6.66676 -3.37061,-10.72641c0,-3.58447 -1.0942,-5.6607 7.55853,-7.3138z" data-paper-data="{&quot;index&quot;:null}" fill="#7ec03c" stroke="none" stroke-width="0" stroke-linecap="butt"/><path d="M218.3334,287.54321c3.67527,-0.70217 14.04285,-2.02993 18.57252,-2.02993c13.94154,0 25.24338,3.79878 25.24338,8.4848c0,3.20024 -8.51477,2.65036 -16.298,4.09561c-3.61355,0.67099 -4.52497,4.3892 -8.94538,4.3892c-3.28199,0 -19.3922,1.36496 -22.26862,0.9819c-9.34226,-1.24414 -2.97476,-5.88382 -2.97476,-9.46671c0,-3.16351 -0.96571,-4.99592 6.67086,-6.45488z" data-paper-data="{&quot;index&quot;:null}" fill="#7ec03c" stroke="none" stroke-width="0" stroke-linecap="butt"/><path d="M-11.8903,232.68227c4.93283,-0.94242 18.84789,-2.7245 24.92747,-2.7245c18.7119,0 33.8809,5.0986 33.8809,11.38805c0,4.29526 -11.42826,3.55723 -21.87468,5.497c-4.85,0.90058 -6.07327,5.89105 -12.00622,5.89105c-4.40498,0 -26.02764,1.83201 -29.88826,1.31788c-12.5389,-1.66984 -3.99264,-7.89708 -3.99264,-12.70593c0,-4.24597 -1.29614,-6.70537 8.95343,-8.66354z" data-paper-data="{&quot;index&quot;:null}" fill="#7ec03c" stroke="none" stroke-width="0" stroke-linecap="butt"/><path d="M102.88162,345.74866c3.95472,-0.75555 15.11064,-2.18428 19.98473,-2.18428c15.00162,0 27.16283,4.08763 27.16283,9.12997c0,3.44358 -9.1622,2.85188 -17.53726,4.40703c-3.88832,0.72201 -4.86903,4.72295 -9.62557,4.72295c-3.53154,0 -20.86675,1.46874 -23.96187,1.05656c-10.05263,-1.33873 -3.20096,-6.33121 -3.20096,-10.18653c0,-3.40406 -1.03914,-5.3758 7.1781,-6.94569z" data-paper-data="{&quot;index&quot;:null}" fill="#7ec03c" stroke="none" stroke-width="0" stroke-linecap="butt"/><path d="M337.44904,314.75434c4.93283,-0.94242 18.84789,-2.7245 24.92747,-2.7245c18.71191,0 33.8809,5.09861 33.8809,11.38805c0,4.29526 -11.42827,3.55723 -21.87468,5.497c-4.85,0.90058 -6.07327,5.89105 -12.00622,5.89105c-4.40498,0 -26.02764,1.83201 -29.88826,1.31788c-12.5389,-1.66984 -3.99264,-7.89708 -3.99264,-12.70592c0,-4.24597 -1.29614,-6.70537 8.95343,-8.66355z" data-paper-data="{&quot;index&quot;:null}" fill="#7ec03c" stroke="none" stroke-width="0" stroke-linecap="butt"/><path d="M515.11075,38.61169c0,6.44345 11.45129,14.78743 -5.3498,17.02488c-5.17292,0.68889 -34.14548,-1.76584 -40.04779,-1.76584c-7.94966,0 -9.58874,-6.68681 -16.08734,-7.89352c-13.99733,-2.59913 -29.31025,-1.61023 -29.31025,-7.36552c0,-8.42733 20.32519,-15.25904 45.39759,-15.25904c8.14614,0 26.79115,2.38784 33.40074,3.65061c13.73357,2.6238 11.99685,5.91918 11.99685,11.60843z" fill="#9df04a" stroke="none" stroke-width="0" stroke-linecap="butt"/><path d="M297.23588,45.54641c3.18622,-0.60873 12.17423,-1.75981 16.10116,-1.75981c12.08639,0 21.88435,3.29329 21.88435,7.35577c0,2.77439 -7.38174,2.29769 -14.12929,3.55062c-3.13271,0.58171 -3.92284,3.80515 -7.75505,3.80515c-2.84526,0 -16.81177,1.18332 -19.30543,0.85124c-8.09913,-1.07859 -2.57892,-5.10089 -2.57892,-8.20701c0,-2.74255 -0.8372,-4.33112 5.7832,-5.59595z" data-paper-data="{&quot;index&quot;:null}" fill="#7ec03c" stroke="none" stroke-width="0" stroke-linecap="butt"/><path d="M551.23427,327.23932v54.62462h-584.08408v-54.62462z" data-paper-data="{&quot;index&quot;:null}" fill="url(#color-1)" stroke="none" stroke-width="0" stroke-linecap="butt"/><path d="M652.30122,145.7825c0,18.61826 -44.90386,33.71136 -100.29558,33.71136c-55.39173,0 -100.29558,-15.09308 -100.29558,-33.71136c0,-18.61826 44.90386,-33.71136 100.29558,-33.71136c55.39173,0 100.29558,15.09308 100.29558,33.71136z" fill="#9df04a" stroke="none" stroke-width="0" stroke-linecap="butt"/><path d="M288.53011,76.00414c0,14.23533 25.299,32.66944 -11.81916,37.61258c-11.42838,1.52194 -75.43662,-3.90122 -88.47643,-3.90122c-17.56295,0 -21.18413,-14.77298 -35.5413,-17.43893c-30.9239,-5.74218 -64.75429,-3.55743 -64.75429,-16.27243c0,-18.61826 44.90386,-33.71136 100.29558,-33.71136c17.99703,0 59.18891,5.27539 73.79129,8.06519c30.34118,5.79669 26.50429,13.07707 26.50429,25.64617z" fill="#9df04a" stroke="none" stroke-width="0" stroke-linecap="butt"/><path d="M533.76616,119.07658c-14.60238,2.7898 -55.79426,8.06519 -73.79129,8.06519c-55.39173,0 -100.29558,-15.0931 -100.29558,-33.71136c0,-12.715 33.83039,-10.53025 64.75429,-16.27243c14.35717,-2.66595 17.97834,-17.43893 35.5413,-17.43893c13.0398,0 77.04804,-5.42316 88.47643,-3.90122c37.11816,4.94313 11.81916,23.37725 11.81916,37.61258c0,12.5691 3.83689,19.84948 -26.50429,25.64617z" data-paper-data="{&quot;index&quot;:null}" fill="#9df04a" stroke="none" stroke-width="0" stroke-linecap="butt"/><path d="M764.03425,78.06082c0,14.23533 25.299,32.66944 -11.81916,37.61258c-11.42838,1.52194 -75.43662,-3.90122 -88.47643,-3.90122c-17.56295,0 -21.18413,-14.77298 -35.5413,-17.43893c-30.9239,-5.74218 -64.75429,-3.55743 -64.75429,-16.27243c0,-18.61826 44.90386,-33.71136 100.29558,-33.71136c17.99703,0 59.18891,5.27539 73.79129,8.06519c30.34118,5.79669 26.50429,13.07707 26.50429,25.64617z" fill="#9df04a" stroke="none" stroke-width="0" stroke-linecap="butt"/><path d="M662.33576,-87.37439c8.11967,-1.55126 31.02446,-4.48467 41.03173,-4.48467c30.80064,0 55.76947,8.39251 55.76947,18.74525c0,7.07018 -18.81144,5.85534 -36.0067,9.04829c-7.98333,1.4824 -9.99686,9.69693 -19.76277,9.69693c-7.25078,0 -42.84265,3.01557 -49.19742,2.16928c-20.63959,-2.74862 -6.57207,-12.99895 -6.57207,-20.91451c0,-6.98907 -2.13349,-11.03732 14.73776,-14.26058z" data-paper-data="{&quot;index&quot;:null}" fill="#7ec03c" stroke="none" stroke-width="0" stroke-linecap="butt"/><path d="M282.68959,93.3815c7.03922,-1.34485 26.89617,-3.8879 35.57183,-3.8879c26.70211,0 48.34846,7.27577 48.34846,16.25089c0,6.12938 -16.30827,5.07622 -31.21543,7.84428c-6.92101,1.28516 -8.66662,8.40661 -17.13301,8.40661c-6.28595,0 -37.14176,2.61427 -42.65093,1.88062c-17.89317,-2.3829 -5.69753,-11.26925 -5.69753,-18.13151c0,-6.05904 -1.8496,-9.56862 12.77666,-12.36297z" data-paper-data="{&quot;index&quot;:null}" fill="#7ec03c" stroke="none" stroke-width="0" stroke-linecap="butt"/><g fill="#7b8040" stroke="#b3e645" stroke-width="40" stroke-linecap="butt"><path d="M587.55873,-84.49892c154.34852,0 279.4728,45.99437 279.4728,102.73111c0,56.73673 -125.12428,102.73111 -279.4728,102.73111c-154.34852,0 -279.4728,-45.99437 -279.4728,-102.73111c0,-56.73695 125.12428,-102.73111 279.4728,-102.73111z"/><path d="M361.10844,133.39156c0,-42.24833 106.33089,-76.49712 237.49665,-76.49712c131.16575,0 237.49665,34.24878 237.49665,76.49712c0,42.24811 -106.33089,76.4969 -237.49665,76.4969c-131.16575,0 -237.49665,-34.24878 -237.49665,-76.4969z"/><path d="M129.13497,73.42172c0,-55.54019 117.70577,-100.56425 262.90326,-100.56425c145.1975,0 262.90326,45.02406 262.90326,100.56425c0,55.53997 -117.70577,100.56403 -262.90326,100.56403c-145.1975,0 -262.90326,-45.02406 -262.90326,-100.56403z"/></g><g fill="#45b5e6" stroke="none" stroke-width="0" stroke-linecap="butt"><path d="M587.55873,-84.49894c154.34856,0 279.4728,45.99429 279.4728,102.73111c0,56.73682 -125.12424,102.73111 -279.4728,102.73111c-154.34856,0 -279.4728,-45.99429 -279.4728,-102.73111c0,-56.73682 125.12424,-102.73111 279.4728,-102.73111z"/><path d="M361.10844,133.39147c0,-42.24816 106.33087,-76.49705 237.49665,-76.49705c131.16577,0 237.49665,34.24889 237.49665,76.49705c0,42.24816 -106.33087,76.49705 -237.49665,76.49705c-131.16577,0 -237.49665,-34.24889 -237.49665,-76.49705z"/><path d="M392.03824,-27.14239c145.19747,0 262.90326,45.02408 262.90326,100.5641c0,55.54002 -117.70579,100.5641 -262.90326,100.5641c-145.19747,0 -262.90326,-45.02408 -262.90326,-100.5641c0,-55.54002 117.70579,-100.5641 262.90326,-100.5641z"/></g><g fill="none" stroke-linecap="round"><path d="M382.47711,147.43921l-9.8522,24.31427" stroke="#2acc00" stroke-width="2.5"/><path d="M367.64475,173.05663l5.30701,-24.70624" stroke="#2acc00" stroke-width="2.5"/><path d="M360.60948,173.31622l-2.15854,-13.71689" stroke="#2acc00" stroke-width="2.5"/><path d="M386.71334,138.97654l-5.28614,11.54856" stroke="#b38824" stroke-width="5"/><path d="M375.77337,133.33035l-2.75308,13.74711" stroke="#b38824" stroke-width="5"/><path d="M356.8197,148.85681l1.69976,9.4696" stroke="#b38824" stroke-width="5"/></g><path d="M716.80109,98.20781c0,9.76118 -39.56498,17.67417 -88.37085,17.67417c-48.80587,0 -88.37085,-7.91299 -88.37085,-17.67417c0,-9.76118 39.56498,-17.67417 88.37085,-17.67417c48.80587,0 88.37085,7.91299 88.37085,17.67417z" fill="#91cce6" stroke="none" stroke-width="0" stroke-linecap="butt"/><path d="M400.87532,61.75483c0,9.15111 -34.61934,16.56953 -77.32449,16.56953c-42.70514,0 -77.32449,-7.41842 -77.32449,-16.56953c0,-9.15111 34.61934,-16.56953 77.32449,-16.56953c42.70514,0 77.32449,7.41842 77.32449,16.56953z" fill="#91cce6" stroke="none" stroke-width="0" stroke-linecap="butt"/><path d="M654.9415,2.10446c0,9.15111 -38.08129,16.56953 -85.05694,16.56953c-46.97564,0 -85.05694,-7.41842 -85.05694,-16.56953c0,-9.15111 38.08129,-16.56953 85.05694,-16.56953c46.97564,0 85.05694,7.41842 85.05694,16.56953z" fill="#91cce6" stroke="none" stroke-width="0" stroke-linecap="butt"/><g fill="none" stroke-linecap="round"><path d="M794.95406,119.69297l-7.73245,57.44105" stroke="#2acc00" stroke-width="2.5"/><path d="M775.07062,126.8731l2.20927,55.7841" stroke="#2acc00" stroke-width="2.5"/><path d="M750.21632,158.9075l12.15099,28.16821" stroke="#2acc00" stroke-width="2.5"/><path d="M794.40174,126.87311l4.97086,-27.61589" stroke="#b38824" stroke-width="5"/><path d="M772.86135,93.18171l1.65695,30.9298" stroke="#b38824" stroke-width="5"/><path d="M740.82692,136.81482l8.83708,19.33112" stroke="#b38824" stroke-width="5"/></g><path d="M34.54398,424.39574l-54.62329,0.38159l-4.08021,-584.06983l54.62329,-0.38159z" data-paper-data="{&quot;index&quot;:null}" fill="url(#color-2)" stroke="none" stroke-width="0" stroke-linecap="butt"/></g></g></svg>