<svg version="1.1" xmlns="http://www.w3.org/2000/svg" xmlns:xlink="http://www.w3.org/1999/xlink" width="242.99829" height="235.59732" viewBox="0,0,242.99829,235.59732"><g transform="translate(-118.50085,-62.20134)"><g data-paper-data="{&quot;isPaintingLayer&quot;:true}" fill-rule="nonzero" stroke-linejoin="miter" stroke-miterlimit="10" stroke-dasharray="" stroke-dashoffset="0" style="mix-blend-mode: normal"><path d="M237.32185,219.2474c-37.42688,0 -67.76737,-8.52394 -67.76737,-19.03875c0,-10.51481 30.34049,-19.03875 67.76737,-19.03875c37.42688,0 67.76737,8.52394 67.76737,19.03875c0,10.51481 -30.34049,19.03875 -67.76737,19.03875z" data-paper-data="{&quot;index&quot;:null}" fill-opacity="0.10588" fill="#000000" stroke="none" stroke-width="0" stroke-linecap="butt"/><path d="M281.86134,117.61708l-27.32926,-20.85625" fill="none" stroke="#e7c945" stroke-width="1" stroke-linecap="round"/><path d="M118.50086,297.79866v-235.59732h242.99829v235.59732z" fill="none" stroke="none" stroke-width="2.5" stroke-linecap="butt"/><path d="M241.60533,111.67798c40.30536,0 72.97944,-6.43784 72.97944,47.46713c0,53.90497 -32.67408,47.46713 -72.97944,47.46713c-40.30536,0 -72.97944,6.43784 -72.97944,-47.46713c0,-53.90497 32.67408,-47.46713 72.97944,-47.46713z" fill="#d9c283" stroke="#bfa661" stroke-width="2.5" stroke-linecap="butt"/><path d="M204.54827,182.27311c0,-13.22623 -2.68381,-23.94806 19.78814,-23.94806c22.47224,0 19.78843,10.72183 19.78843,23.94806c0,13.22623 2.68381,23.94806 -19.78843,23.94806c-22.47195,0 -19.78814,-10.72183 -19.78814,-23.94806z" fill="#99895c" stroke="#bfa661" stroke-width="2.5" stroke-linecap="butt"/><path d="M207.0153,182.27311c0,-13.22623 -2.68381,-23.94806 19.78814,-23.94806c22.47224,0 19.78843,10.72183 19.78843,23.94806c0,13.22623 2.68381,23.94806 -19.78843,23.94806c-22.47224,0 -19.78814,-10.72183 -19.78814,-23.94806z" fill="#99895c" stroke="#bfa661" stroke-width="2.5" stroke-linecap="butt"/><path d="M274.9734,210.30094l14.06683,-28.13366l8.75255,-10.62828l-3.43855,12.81663l-13.75421,25.9453z" fill="#e6bb44" stroke="#bf931c" stroke-width="2.5" stroke-linecap="butt"/><path d="M261.62622,212.45364l8.25424,-22.75149l9.39861,-11.27406l-1.50121,11.30943l-10.52502,22.71612z" fill="#e6bb44" stroke="#bf931c" stroke-width="2.5" stroke-linecap="butt"/><path d="M173.38623,202.17392l-13.75421,-25.9453l-3.43855,-12.81634l8.75283,10.62799l14.06654,28.13366z" data-paper-data="{&quot;index&quot;:null}" fill="#e6bb44" stroke="#bf931c" stroke-width="2.5" stroke-linecap="butt"/><path d="M185.87227,210.78499l-10.52502,-22.71612l-1.50093,-11.30943l9.39861,11.27406l8.25424,22.75149z" data-paper-data="{&quot;index&quot;:null}" fill="#e6bb44" stroke="#bf931c" stroke-width="2.5" stroke-linecap="butt"/><path d="M179.439,159.02074c0,0 3.33558,-3.1439 5.75526,-3.50644c2.41939,-0.36225 6.02196,1.74252 6.02196,1.74252" fill="none" stroke="#ccb168" stroke-width="2.5" stroke-linecap="round"/><path d="M185.29323,170.57861c0,0 3.42087,-2.78279 5.88875,-2.45362c2.46788,0.32888 5.15284,3.92574 5.15284,3.92574" fill="none" stroke="#ccb168" stroke-width="2.5" stroke-linecap="round"/><path d="M256.9409,164.93517c0,0 4.34704,-5.51908 8.34266,-6.87054c3.99534,-1.35118 8.34237,1.22681 8.34237,1.22681" fill="none" stroke="#ccb168" stroke-width="2.5" stroke-linecap="round"/><path d="M277.30665,168.6156c0,0 4.31224,-3.91547 9.32388,-3.68043c5.01164,0.23475 6.37965,4.41663 6.37965,4.41663" fill="none" stroke="#ccb168" stroke-width="2.5" stroke-linecap="round"/><path d="M255.46878,182.35612c0,0 1.20513,-5.35136 4.66194,-6.62495c3.45681,-1.27331 9.32388,1.4724 9.32388,1.4724" fill="none" stroke="#ccb168" stroke-width="2.5" stroke-linecap="round"/><path d="M188.97367,187.75426c0,0 4.6009,-4.01901 7.36115,-2.69893c2.76025,1.32008 3.92602,8.09707 3.92602,8.09707" fill="none" stroke="#ccb168" stroke-width="2.5" stroke-linecap="round"/><path d="M240.99178,152.91207c0,0 4.42804,-4.04012 7.85205,-3.92602c3.424,0.1141 6.87026,4.41663 6.87026,4.41663" fill="none" stroke="#ccb168" stroke-width="2.5" stroke-linecap="round"/><path d="M289.57505,151.19437c0,0 5.72445,-3.74433 9.81478,-3.68043c4.09032,0.06389 5.88875,3.92574 5.88875,3.92574" fill="none" stroke="#ccb168" stroke-width="2.5" stroke-linecap="round"/><path d="M201.73296,153.89358c0,0 5.14257,-4.05838 7.60646,-4.41663c2.46361,-0.35854 5.88875,2.45362 5.88875,2.45362" fill="none" stroke="#ccb168" stroke-width="2.5" stroke-linecap="round"/><path d="M175.23315,148.49544c0,0 3.78426,-3.81364 6.87026,-3.92602c3.086,-0.1121 6.62495,3.43513 6.62495,3.43513" fill="none" stroke="#ccb168" stroke-width="2.5" stroke-linecap="round"/><path d="M273.98447,145.76171c-18.56019,2.47473 -40.06775,3.41231 -65.37498,0c-25.30723,-3.41231 -44.40595,-14.80189 -44.40595,-14.80189l67.98748,-51.84298l-2.55888,-10.35188l22.14963,-0.71338l-2.38545,10.37584l70.22746,52.5324c0,0 -27.07884,12.32716 -45.63932,14.80189z" data-paper-data="{&quot;index&quot;:null}" fill="#f9da4a" stroke="#cdb23d" stroke-width="2.5" stroke-linecap="round"/><path d="M183.93949,127.87611l30.22046,-22.20297" fill="none" stroke="#e7c945" stroke-width="2.5" stroke-linecap="round"/><path d="M230.81218,93.95497l-22.20269,40.70526" fill="none" stroke="#e7c945" stroke-width="2.5" stroke-linecap="round"/><path d="M238.82996,98.88902l-6.16743,20.96932" fill="none" stroke="#e7c945" stroke-width="2.5" stroke-linecap="round"/><path d="M241.91367,137.12725v-22.20297" fill="none" stroke="#e7c945" stroke-width="2.5" stroke-linecap="round"/><path d="M259.18259,132.81017l-12.33486,-34.53783" fill="none" stroke="#e7c945" stroke-width="2.5" stroke-linecap="round"/><path d="M279.53522,135.27691l-9.86783,-11.1012" fill="none" stroke="#e7c945" stroke-width="2.5" stroke-linecap="round"/><path d="M286.93629,120.47502l11.10149,7.40109" fill="none" stroke="#e7c945" stroke-width="2.5" stroke-linecap="round"/><path d="M227.72847,132.81017l-3.08371,7.4008" fill="none" stroke="#e7c945" stroke-width="2.5" stroke-linecap="round"/><path d="M193.19064,135.27691l7.40109,-8.63446" fill="none" stroke="#e7c945" stroke-width="2.5" stroke-linecap="round"/><path d="M243.7444,85.97315l-2.87678,-3.59589l2.15767,-9.34946" fill="none" stroke="#e7c945" stroke-width="1" stroke-linecap="round"/><path d="M231.51848,88.13048l4.31501,-5.75323" fill="none" stroke="#e7c945" stroke-width="1" stroke-linecap="round"/></g></g></svg>