<svg version="1.1" xmlns="http://www.w3.org/2000/svg" xmlns:xlink="http://www.w3.org/1999/xlink" width="584.08408" height="463.09482" viewBox="0,0,584.08408,463.09482"><defs><linearGradient x1="542.50533" y1="176.87862" x2="398.36119" y2="176.87862" gradientUnits="userSpaceOnUse" id="color-1"><stop offset="0" stop-color="#000000"/><stop offset="1" stop-color="#000000" stop-opacity="0"/></linearGradient><linearGradient x1="255.01503" y1="-56.48642" x2="255.01503" y2="68.13814" gradientUnits="userSpaceOnUse" id="color-2"><stop offset="0" stop-color="#000000"/><stop offset="1" stop-color="#000000" stop-opacity="0"/></linearGradient></defs><g transform="translate(37.02702,56.48648)"><g data-paper-data="{&quot;isPaintingLayer&quot;:true}" fill-rule="nonzero" stroke-linecap="butt" stroke-linejoin="miter" stroke-miterlimit="10" stroke-dasharray="" stroke-dashoffset="0" style="mix-blend-mode: normal"><path d="M-31.99999,381.00007v-402h544v402z" fill="#95e447" stroke="none" stroke-width="0"/><path d="M415.45183,49.2591c0,8.42733 -20.32519,15.25904 -45.39759,15.25904c-25.0724,0 -45.39759,-6.8317 -45.39759,-15.25904c0,-8.42733 20.32519,-15.25904 45.39759,-15.25904c25.0724,0 45.39759,6.8317 45.39759,15.25904z" fill="#9df04a" stroke="none" stroke-width="0"/><path d="M468.45183,117.2591c0,8.42733 -20.32519,15.25904 -45.39759,15.25904c-25.0724,0 -45.39759,-6.8317 -45.39759,-15.25904c0,-8.42733 20.32519,-15.25904 45.39759,-15.25904c25.0724,0 45.39759,6.8317 45.39759,15.25904z" fill="#9df04a" stroke="none" stroke-width="0"/><path d="M112.77712,220.92777c0,8.42733 -20.32519,15.25904 -45.39759,15.25904c-25.0724,0 -45.39759,-6.8317 -45.39759,-15.25904c0,-8.42733 20.32519,-15.25904 45.39759,-15.25904c25.0724,0 45.39759,6.8317 45.39759,15.25904z" fill="#9df04a" stroke="none" stroke-width="0"/><path d="M190.61448,285.241c0,8.42733 -20.32519,15.25904 -45.39759,15.25904c-25.0724,0 -45.39759,-6.8317 -45.39759,-15.25904c0,-8.42733 20.32519,-15.25904 45.39759,-15.25904c25.0724,0 45.39759,6.8317 45.39759,15.25904z" fill="#9df04a" stroke="none" stroke-width="0"/><path d="M355.71086,295.741c0,8.42733 -20.32519,15.25904 -45.39759,15.25904c-25.0724,0 -45.39759,-6.8317 -45.39759,-15.25904c0,-8.42733 20.32519,-15.25904 45.39759,-15.25904c25.0724,0 45.39759,6.8317 45.39759,15.25904z" fill="#9df04a" stroke="none" stroke-width="0"/><path d="M94.87953,113.68079c0,8.42733 -20.32519,15.25904 -45.39759,15.25904c-25.0724,0 -45.39759,-6.8317 -45.39759,-15.25904c0,-8.42733 20.32519,-15.25904 45.39759,-15.25904c25.0724,0 45.39759,6.8317 45.39759,15.25904z" fill="#9df04a" stroke="none" stroke-width="0"/><path d="M186.87953,58.68079c0,8.42733 -20.32519,15.25904 -45.39759,15.25904c-25.0724,0 -45.39759,-6.8317 -45.39759,-15.25904c0,-8.42733 20.32519,-15.25904 45.39759,-15.25904c25.0724,0 45.39759,6.8317 45.39759,15.25904z" fill="#9df04a" stroke="none" stroke-width="0"/><path d="M312.53616,92.26513c0,8.42733 -20.32519,15.25904 -45.39759,15.25904c-25.0724,0 -45.39759,-6.8317 -45.39759,-15.25904c0,-8.42733 20.32519,-15.25904 45.39759,-15.25904c25.0724,0 45.39759,6.8317 45.39759,15.25904z" fill="#9df04a" stroke="none" stroke-width="0"/><path d="M452.18074,243.30127c0,8.42733 -20.32519,15.25904 -45.39759,15.25904c-25.0724,0 -45.39759,-6.8317 -45.39759,-15.25904c0,-8.42733 20.32519,-15.25904 45.39759,-15.25904c25.0724,0 45.39759,6.8317 45.39759,15.25904z" fill="#9df04a" stroke="none" stroke-width="0"/><path d="M345.39761,180.00008c0,26.97668 -47.1881,48.84562 -105.39759,48.84562c-58.20949,0 -105.39759,-21.86892 -105.39759,-48.84562c0,-26.97668 47.1881,-48.84562 105.39759,-48.84562c58.20949,0 105.39759,21.86892 105.39759,48.84562z" fill="#9df04a" stroke="none" stroke-width="0"/><path d="M-36.99999,391.00007v-402h544v402z" fill="#95e447" stroke="none" stroke-width="0"/><path d="M335.87953,226.67177c0,6.44345 11.45129,14.78743 -5.3498,17.02488c-5.17292,0.68889 -34.14548,-1.76584 -40.04779,-1.76584c-7.94966,0 -9.58874,-6.68681 -16.08734,-7.89352c-13.99733,-2.59913 -29.31025,-1.61023 -29.31025,-7.36552c0,-8.42733 20.32519,-15.25904 45.39759,-15.25904c8.14614,0 26.79115,2.38784 33.40074,3.65061c13.73357,2.6238 11.99685,5.91918 11.99685,11.60843z" fill="#9df04a" stroke="none" stroke-width="0"/><path d="M431.87953,172.68079c0,6.44345 11.45129,14.78743 -5.3498,17.02488c-5.17292,0.68889 -34.14548,-1.76584 -40.04779,-1.76584c-7.94966,0 -9.58874,-6.68681 -16.08734,-7.89352c-13.99733,-2.59913 -29.31025,-1.61023 -29.31025,-7.36552c0,-8.42733 20.32519,-15.25904 45.39759,-15.25904c8.14614,0 26.79115,2.38784 33.40074,3.65061c13.73357,2.6238 11.99685,5.91918 11.99685,11.60843z" fill="#9df04a" stroke="none" stroke-width="0"/><path d="M157.87953,181.68079c0,6.44345 11.45129,14.78743 -5.3498,17.02488c-5.17292,0.68889 -34.14548,-1.76584 -40.04779,-1.76584c-7.94966,0 -9.58874,-6.68681 -16.08734,-7.89352c-13.99733,-2.59913 -29.31025,-1.61023 -29.31025,-7.36552c0,-8.42733 20.32519,-15.25904 45.39759,-15.25904c8.14614,0 26.79115,2.38784 33.40074,3.65061c13.73357,2.6238 11.99685,5.91918 11.99685,11.60843z" fill="#9df04a" stroke="none" stroke-width="0"/><path d="M278.87953,102.68079c0,6.44345 11.45129,14.78743 -5.3498,17.02488c-5.17292,0.68889 -34.14548,-1.76584 -40.04779,-1.76584c-7.94966,0 -9.58874,-6.68681 -16.08734,-7.89352c-13.99733,-2.59913 -29.31025,-1.61023 -29.31025,-7.36552c0,-8.42733 20.32519,-15.25904 45.39759,-15.25904c8.14614,0 26.79115,2.38784 33.40074,3.65061c13.73357,2.6238 11.99685,5.91918 11.99685,11.60843z" fill="#9df04a" stroke="none" stroke-width="0"/><path d="M422.87953,43.68079c0,6.44345 11.45129,14.78743 -5.3498,17.02488c-5.17292,0.68889 -34.14548,-1.76584 -40.04779,-1.76584c-7.94966,0 -9.58874,-6.68681 -16.08734,-7.89352c-13.99733,-2.59913 -29.31025,-1.61023 -29.31025,-7.36552c0,-8.42733 20.32519,-15.25904 45.39759,-15.25904c8.14614,0 26.79115,2.38784 33.40074,3.65061c13.73357,2.6238 11.99685,5.91918 11.99685,11.60843z" fill="#9df04a" stroke="none" stroke-width="0"/><path d="M153.87953,38.68077c0,6.44345 11.45129,14.78743 -5.3498,17.02488c-5.17292,0.68889 -34.14548,-1.76584 -40.04779,-1.76584c-7.94966,0 -9.58874,-6.68681 -16.08734,-7.89352c-13.99733,-2.59913 -29.31025,-1.61023 -29.31025,-7.36552c0,-8.42733 20.32519,-15.25904 45.39759,-15.25904c8.14614,0 26.79115,2.38784 33.40074,3.65061c13.73357,2.6238 11.99685,5.91918 11.99685,11.60843z" fill="#9df04a" stroke="none" stroke-width="0"/><path d="M120.87953,293.68075c0,6.44345 11.45129,14.78743 -5.3498,17.02488c-5.17292,0.68889 -34.14548,-1.76584 -40.04779,-1.76584c-7.94966,0 -9.58874,-6.68681 -16.08734,-7.89352c-13.99733,-2.59913 -29.31025,-1.61023 -29.31025,-7.36552c0,-8.42733 20.32519,-15.25904 45.39759,-15.25904c8.14614,0 26.79115,2.38784 33.40074,3.65061c13.73357,2.6238 11.99685,5.91918 11.99685,11.60843z" fill="#9df04a" stroke="none" stroke-width="0"/><path d="M436.87953,330.68075c0,6.44345 11.45129,14.78743 -5.3498,17.02488c-5.17292,0.68889 -34.14548,-1.76584 -40.04779,-1.76584c-7.94966,0 -9.58874,-6.68681 -16.08734,-7.89352c-13.99733,-2.59913 -29.31025,-1.61023 -29.31025,-7.36552c0,-8.42733 20.32519,-15.25904 45.39759,-15.25904c8.14614,0 26.79115,2.38784 33.40074,3.65061c13.73357,2.6238 11.99685,5.91918 11.99685,11.60843z" fill="#9df04a" stroke="none" stroke-width="0"/><path d="M272.87953,316.68075c0,6.44345 11.45129,14.78743 -5.3498,17.02488c-5.17292,0.68889 -34.14548,-1.76584 -40.04779,-1.76584c-7.94966,0 -9.58874,-6.68681 -16.08734,-7.89352c-13.99733,-2.59913 -29.31025,-1.61023 -29.31025,-7.36552c0,-8.42733 20.32519,-15.25904 45.39759,-15.25904c8.14614,0 26.79115,2.38784 33.40074,3.65061c13.73357,2.6238 11.99685,5.91918 11.99685,11.60843z" fill="#9df04a" stroke="none" stroke-width="0"/><path d="M222.001,167.41163c3.30113,-0.63068 12.61332,-1.82328 16.68187,-1.82328c12.52231,0 22.67365,3.41207 22.67365,7.62107c0,2.87446 -7.64799,2.38055 -14.63889,3.67868c-3.2457,0.60269 -4.06433,3.94239 -8.03475,3.94239c-2.94789,0 -17.41812,1.22601 -20.00171,0.88194c-8.39123,-1.11748 -2.67194,-5.28485 -2.67194,-8.50301c0,-2.84147 -0.8674,-4.48734 5.99178,-5.79778z" data-paper-data="{&quot;index&quot;:null}" fill="#7ec03c" stroke="none" stroke-width="0"/><path d="M341.64814,108.68966c3.32595,-0.63542 12.70812,-1.83699 16.80726,-1.83699c12.61644,0 22.84408,3.43772 22.84408,7.67835c0,2.89606 -7.70547,2.39845 -14.74892,3.70634c-3.2701,0.60722 -4.09488,3.97202 -8.09515,3.97202c-2.97004,0 -17.54904,1.23522 -20.15205,0.88858c-8.45431,-1.12588 -2.69203,-5.32458 -2.69203,-8.56692c0,-2.86283 -0.87392,-4.52106 6.03682,-5.84136z" data-paper-data="{&quot;index&quot;:null}" fill="#7ec03c" stroke="none" stroke-width="0"/><path d="M137.37646,240.6832c4.09446,-0.78225 15.64453,-2.26145 20.69083,-2.26145c15.53167,0 28.12256,4.23205 28.12256,9.45255c0,3.56525 -9.48593,2.95265 -18.15689,4.56274c-4.0257,0.74752 -5.04107,4.88981 -9.96566,4.88981c-3.65632,0 -21.60403,1.52064 -24.8085,1.09389c-10.40781,-1.38603 -3.31405,-6.5549 -3.31405,-10.54644c0,-3.52433 -1.07585,-5.56573 7.43172,-7.1911z" data-paper-data="{&quot;index&quot;:null}" fill="#7ec03c" stroke="none" stroke-width="0"/><path d="M232.84693,27.79851c3.67527,-0.70216 14.04285,-2.02993 18.57252,-2.02993c13.94154,0 25.24338,3.79877 25.24338,8.48481c0,3.20023 -8.51477,2.65035 -16.298,4.0956c-3.61356,0.67099 -4.52496,4.3892 -8.94538,4.3892c-3.28198,0 -19.39221,1.36496 -22.26862,0.9819c-9.34226,-1.24413 -2.97477,-5.88382 -2.97477,-9.4667c0,-3.16352 -0.9657,-4.99591 6.67087,-6.45488z" data-paper-data="{&quot;index&quot;:null}" fill="#7ec03c" stroke="none" stroke-width="0"/><path d="M61.00466,109.6155c3.18622,-0.60873 12.17423,-1.75981 16.10116,-1.75981c12.08639,0 21.88435,3.29329 21.88435,7.35577c0,2.77439 -7.38174,2.29769 -14.12929,3.55062c-3.13271,0.58171 -3.92284,3.80515 -7.75505,3.80515c-2.84526,0 -16.81177,1.18332 -19.30543,0.85124c-8.09913,-1.07859 -2.57892,-5.10089 -2.57892,-8.20701c0,-2.74255 -0.8372,-4.33112 5.7832,-5.59595z" data-paper-data="{&quot;index&quot;:null}" fill="#7ec03c" stroke="none" stroke-width="0"/><path d="M401.68619,246.28186c4.16433,-0.79559 15.91148,-2.30005 21.0439,-2.30005c15.79669,0 28.60242,4.30427 28.60242,9.61384c0,3.62608 -9.6478,3.00303 -18.46671,4.64059c-4.0944,0.76027 -5.12708,4.97325 -10.1357,4.97325c-3.7187,0 -21.97265,1.54659 -25.23181,1.11257c-10.5854,-1.40969 -3.37061,-6.66676 -3.37061,-10.72641c0,-3.58447 -1.0942,-5.6607 7.55853,-7.3138z" data-paper-data="{&quot;index&quot;:null}" fill="#7ec03c" stroke="none" stroke-width="0"/><path d="M282.89797,275.53121c3.67527,-0.70217 14.04285,-2.02993 18.57252,-2.02993c13.94154,0 25.24338,3.79878 25.24338,8.4848c0,3.20024 -8.51477,2.65036 -16.298,4.09561c-3.61355,0.67099 -4.52497,4.3892 -8.94538,4.3892c-3.28199,0 -19.3922,1.36496 -22.26862,0.9819c-9.34226,-1.24414 -2.97476,-5.88382 -2.97476,-9.46671c0,-3.16351 -0.96571,-4.99592 6.67086,-6.45488z" data-paper-data="{&quot;index&quot;:null}" fill="#7ec03c" stroke="none" stroke-width="0"/><path d="M-11.89029,232.68229c4.93283,-0.94242 18.84789,-2.7245 24.92747,-2.7245c18.7119,0 33.8809,5.0986 33.8809,11.38805c0,4.29526 -11.42826,3.55723 -21.87468,5.497c-4.85,0.90058 -6.07327,5.89105 -12.00622,5.89105c-4.40498,0 -26.02764,1.83201 -29.88826,1.31788c-12.5389,-1.66984 -3.99264,-7.89708 -3.99264,-12.70593c0,-4.24597 -1.29614,-6.70537 8.95343,-8.66354z" data-paper-data="{&quot;index&quot;:null}" fill="#7ec03c" stroke="none" stroke-width="0"/><path d="M102.88163,345.74868c3.95472,-0.75555 15.11064,-2.18428 19.98473,-2.18428c15.00162,0 27.16283,4.08763 27.16283,9.12997c0,3.44358 -9.1622,2.85188 -17.53726,4.40703c-3.88832,0.72201 -4.86903,4.72295 -9.62557,4.72295c-3.53154,0 -20.86675,1.46874 -23.96187,1.05656c-10.05263,-1.33873 -3.20096,-6.33121 -3.20096,-10.18653c0,-3.40406 -1.03914,-5.3758 7.1781,-6.94569z" data-paper-data="{&quot;index&quot;:null}" fill="#7ec03c" stroke="none" stroke-width="0"/><path d="M298.41001,355.29491c4.93283,-0.94242 18.84789,-2.7245 24.92747,-2.7245c18.71191,0 33.8809,5.09861 33.8809,11.38805c0,4.29526 -11.42827,3.55723 -21.87468,5.497c-4.85,0.90058 -6.07327,5.89105 -12.00622,5.89105c-4.40498,0 -26.02764,1.83201 -29.88826,1.31788c-12.5389,-1.66984 -3.99264,-7.89708 -3.99264,-12.70592c0,-4.24597 -1.29614,-6.70537 8.95343,-8.66355z" data-paper-data="{&quot;index&quot;:null}" fill="#7ec03c" stroke="none" stroke-width="0"/><path d="M398.3612,406.60835v-459.45946h144.14414v459.45946z" data-paper-data="{&quot;index&quot;:null}" fill="url(#color-1)" stroke="none" stroke-width="0"/><path d="M-37.02702,68.13814v-124.62462h584.08408v124.62462z" fill="url(#color-2)" stroke="none" stroke-width="0"/><path d="M208.62878,122.67799c122.03041,0 220.956,-6.43784 220.956,47.46713c0,53.90497 5.07441,123.46713 -116.956,123.46713c-122.03041,0 -324.956,-69.56216 -324.956,-123.46713c0,-53.90497 98.92559,-47.46713 220.95601,-47.46713z" fill="#d9c283" stroke="#bfa661" stroke-width="2.5"/><path d="M248.79688,194.56093c0,2.5 -2.5,2.5 -2.5,2.5h-1c-11.02001,0 -22.39054,0.69165 -33.37599,-0.36755c-9.1787,-0.885 -18.77964,-2.74277 -27.78052,-4.69275c-9.83633,-2.13345 -19.11555,-3.007 -29.18642,-2.93476c-4.62543,0.03317 -9.97532,-0.49289 -14.53483,0.39728c-3.33987,0.65205 -6.48987,2.247 -9.8759,2.58562c-1.5497,0.15498 -3.14935,-0.3822 -4.67196,-0.05472c-3.91347,0.8417 -7.15789,4.74641 -10.84992,5.95961c-1.13071,0.37156 -2.38204,0.01638 -3.56911,0.10244c-2.62874,0.19056 -5.22997,0.65862 -7.84526,0.98553c0,0 -2.48069,0.31008 -2.79078,-2.17061c-0.31009,-2.48069 2.17061,-2.79078 2.17061,-2.79078c2.71805,-0.33975 5.41922,-0.87252 8.15474,-1.01447c0.80993,-0.04203 1.66309,0.36364 2.43089,0.10244c0.95876,-0.32616 1.59428,-1.2603 2.46965,-1.76955c0.42881,-0.24946 8.43247,-4.21428 8.68043,-4.27084c1.73163,-0.39499 3.5604,0.11855 5.32804,-0.05472c3.23577,-0.31717 6.22882,-1.91178 9.42277,-2.51968c4.88414,-0.92959 10.48936,-0.45188 15.44478,-0.48743c10.43533,-0.07485 20.0881,0.83722 30.28212,3.04826c8.81043,1.91323 18.21614,3.73594 27.20055,4.60221c10.82356,1.0436 22.03853,0.34447 32.89613,0.34447h1c0,0 2.5,0 2.5,2.5z" fill="#d9c283" stroke="none" stroke-width="0.5"/><path d="M371.79249,252.709c-0.14806,2.49561 -2.64367,2.34755 -2.64367,2.34755l-4.49043,-0.26642c-13.37187,-0.79335 -26.91525,-1.46213 -40.09421,-3.96666c-14.02366,-2.67118 -27.69529,-6.28164 -41.53267,-9.7655c-6.49976,-1.63646 -13.10661,-3.1055 -19.50325,-5.11812c-2.62889,-0.82715 -5.04976,-2.29409 -7.73148,-2.92944c-1.11696,-0.26463 -2.35174,0.18205 -3.43855,-0.18736c-0.45968,-0.15625 -8.58313,-4.69209 -9.27545,-5.07671c0,0 -2.18539,-1.21411 -0.97129,-3.3995c1.2141,-2.18539 3.3995,-0.97129 3.3995,-0.97129c2.74677,1.52598 5.22709,3.64147 8.2077,4.63614c0.97385,0.32498 2.08032,-0.14109 3.07831,0.09978c1.94758,0.47006 6.0374,2.36962 8.26852,3.07056c6.29265,1.97695 12.7935,3.41762 19.18677,5.02726c13.74322,3.46015 27.31965,7.04957 41.24747,9.70248c12.96209,2.47486 26.30132,3.10674 39.45478,3.88714l4.49043,0.26642c0,0 2.49561,0.14806 2.34755,2.64367z" fill="#d9c283" stroke="none" stroke-width="0.5"/><path d="M310.21488,240.16445c-1.60352,1.918 -3.52152,0.31448 -3.52152,0.31448l-2.56363,-2.14329c-3.79896,-3.17608 -7.5156,-6.53322 -11.43326,-9.56105c-5.27101,-4.07378 -11.39362,-7.32291 -16.4012,-11.71261c-12.15009,-10.65091 -20.96232,-24.45936 -30.95056,-36.9393c0,0 -1.56174,-1.95217 0.39043,-3.51391c1.95217,-1.56174 3.51391,0.39043 3.51391,0.39043c9.79486,12.24867 18.42121,25.85285 30.34217,36.30291c4.92489,4.31722 10.97684,7.50826 16.16283,11.51633c3.96822,3.0669 7.73469,6.46411 11.58272,9.68121l2.56363,2.14329c0,0 1.918,1.60352 0.31448,3.52152z" fill="#d9c283" stroke="none" stroke-width="0.5"/></g></g></svg>