<svg version="1.1" xmlns="http://www.w3.org/2000/svg" xmlns:xlink="http://www.w3.org/1999/xlink" width="931.56607" height="636.22471" viewBox="0,0,931.56607,636.22471"><defs><linearGradient x1="-47.53754" y1="177.74778" x2="96.60661" y2="177.74778" gradientUnits="userSpaceOnUse" id="color-1"><stop offset="0" stop-color="#000000"/><stop offset="1" stop-color="#000000" stop-opacity="0"/></linearGradient></defs><g transform="translate(47.53754,51.98196)"><g data-paper-data="{&quot;isPaintingLayer&quot;:true}" fill-rule="nonzero" stroke-linejoin="miter" stroke-miterlimit="10" stroke-dasharray="" stroke-dashoffset="0" style="mix-blend-mode: normal"><path d="M-32,381.00001v-402h544v402z" fill="#95e447" stroke="none" stroke-width="0" stroke-linecap="butt"/><path d="M117.61446,236.24099c0,8.42733 -20.32519,15.25904 -45.39759,15.25904c-25.0724,0 -45.39759,-6.8317 -45.39759,-15.25904c0,-8.42733 20.32519,-15.25904 45.39759,-15.25904c25.0724,0 45.39759,6.8317 45.39759,15.25904z" fill="#9df04a" stroke="none" stroke-width="0" stroke-linecap="butt"/><path d="M198.71084,314.74098c0,8.42733 -20.32519,15.25904 -45.39759,15.25904c-25.0724,0 -45.39759,-6.8317 -45.39759,-15.25904c0,-8.42733 20.32519,-15.25904 45.39759,-15.25904c25.0724,0 45.39759,6.8317 45.39759,15.25904z" fill="#9df04a" stroke="none" stroke-width="0" stroke-linecap="butt"/><path d="M291.87952,246.68075c0,8.42733 -20.32519,15.25904 -45.39759,15.25904c-25.0724,0 -45.39759,-6.8317 -45.39759,-15.25904c0,-8.42733 20.32519,-15.25904 45.39759,-15.25904c25.0724,0 45.39759,6.8317 45.39759,15.25904z" fill="#9df04a" stroke="none" stroke-width="0" stroke-linecap="butt"/><path d="M420.40361,188.10244c0,8.42733 -20.32519,15.25904 -45.39759,15.25904c-25.0724,0 -45.39759,-6.8317 -45.39759,-15.25904c0,-8.42733 20.32519,-15.25904 45.39759,-15.25904c25.0724,0 45.39759,6.8317 45.39759,15.25904z" fill="#9df04a" stroke="none" stroke-width="0" stroke-linecap="butt"/><path d="M464.53614,69.26509c0,8.42733 -20.32519,15.25904 -45.39759,15.25904c-25.0724,0 -45.39759,-6.8317 -45.39759,-15.25904c0,-8.42733 20.32519,-15.25904 45.39759,-15.25904c25.0724,0 45.39759,6.8317 45.39759,15.25904z" fill="#9df04a" stroke="none" stroke-width="0" stroke-linecap="butt"/><path d="M446.18072,291.30123c0,8.42733 -20.32519,15.25904 -45.39759,15.25904c-25.0724,0 -45.39759,-6.8317 -45.39759,-15.25904c0,-8.42733 20.32519,-15.25904 45.39759,-15.25904c25.0724,0 45.39759,6.8317 45.39759,15.25904z" fill="#9df04a" stroke="none" stroke-width="0" stroke-linecap="butt"/><path d="M-43,388.33334v-402h544v402z" fill="#95e447" stroke="none" stroke-width="0" stroke-linecap="butt"/><path d="M449.99364,252.19727c0,6.44345 11.45129,14.78743 -5.3498,17.02488c-5.17292,0.68889 -34.14548,-1.76584 -40.04779,-1.76584c-7.94966,0 -9.58874,-6.68681 -16.08734,-7.89352c-13.99733,-2.59913 -29.31025,-1.61023 -29.31025,-7.36552c0,-8.42733 20.32519,-15.25904 45.39759,-15.25904c8.14614,0 26.79115,2.38784 33.40074,3.65061c13.73357,2.6238 11.99685,5.91918 11.99685,11.60843z" fill="#9df04a" stroke="none" stroke-width="0" stroke-linecap="butt"/><path d="M436.38403,189.19727c0,6.44345 11.45129,14.78743 -5.3498,17.02488c-5.17292,0.68889 -34.14548,-1.76584 -40.04779,-1.76584c-7.94966,0 -9.58874,-6.68681 -16.08734,-7.89352c-13.99733,-2.59913 -29.31025,-1.61023 -29.31025,-7.36552c0,-8.42733 20.32519,-15.25904 45.39759,-15.25904c8.14614,0 26.79115,2.38784 33.40074,3.65061c13.73357,2.6238 11.99685,5.91918 11.99685,11.60843z" fill="#9df04a" stroke="none" stroke-width="0" stroke-linecap="butt"/><path d="M157.87952,181.68074c0,6.44345 11.45129,14.78743 -5.3498,17.02488c-5.17292,0.68889 -34.14548,-1.76584 -40.04779,-1.76584c-7.94966,0 -9.58874,-6.68681 -16.08734,-7.89352c-13.99733,-2.59913 -29.31025,-1.61023 -29.31025,-7.36552c0,-8.42733 20.32519,-15.25904 45.39759,-15.25904c8.14614,0 26.79115,2.38784 33.40074,3.65061c13.73357,2.6238 11.99685,5.91918 11.99685,11.60843z" fill="#9df04a" stroke="none" stroke-width="0" stroke-linecap="butt"/><path d="M278.87952,102.68075c0,6.44345 11.45129,14.78743 -5.3498,17.02488c-5.17292,0.68889 -34.14548,-1.76584 -40.04779,-1.76584c-7.94966,0 -9.58874,-6.68681 -16.08734,-7.89352c-13.99733,-2.59913 -29.31025,-1.61023 -29.31025,-7.36552c0,-8.42733 20.32519,-15.25904 45.39759,-15.25904c8.14614,0 26.79115,2.38784 33.40074,3.65061c13.73357,2.6238 11.99685,5.91918 11.99685,11.60843z" fill="#9df04a" stroke="none" stroke-width="0" stroke-linecap="butt"/><path d="M422.87952,43.68075c0,6.44345 11.45129,14.78743 -5.3498,17.02488c-5.17292,0.68889 -34.14548,-1.76584 -40.04779,-1.76584c-7.94966,0 -9.58874,-6.68681 -16.08734,-7.89352c-13.99733,-2.59913 -29.31025,-1.61023 -29.31025,-7.36552c0,-8.42733 20.32519,-15.25904 45.39759,-15.25904c8.14614,0 26.79115,2.38784 33.40074,3.65061c13.73357,2.6238 11.99685,5.91918 11.99685,11.60843z" fill="#9df04a" stroke="none" stroke-width="0" stroke-linecap="butt"/><path d="M153.87952,38.68075c0,6.44345 11.45129,14.78743 -5.3498,17.02488c-5.17292,0.68889 -34.14548,-1.76584 -40.04779,-1.76584c-7.94966,0 -9.58874,-6.68681 -16.08734,-7.89352c-13.99733,-2.59913 -29.31025,-1.61023 -29.31025,-7.36552c0,-8.42733 20.32519,-15.25904 45.39759,-15.25904c8.14614,0 26.79115,2.38784 33.40074,3.65061c13.73357,2.6238 11.99685,5.91918 11.99685,11.60843z" fill="#9df04a" stroke="none" stroke-width="0" stroke-linecap="butt"/><path d="M168.92757,247.13421c0,6.44345 11.45129,14.78743 -5.3498,17.02488c-5.17292,0.68889 -34.14548,-1.76584 -40.04779,-1.76584c-7.94966,0 -9.58874,-6.68681 -16.08734,-7.89352c-13.99733,-2.59913 -29.31025,-1.61023 -29.31025,-7.36552c0,-8.42733 20.32519,-15.25904 45.39759,-15.25904c8.14614,0 26.79115,2.38784 33.40074,3.65061c13.73357,2.6238 11.99685,5.91918 11.99685,11.60843z" fill="#9df04a" stroke="none" stroke-width="0" stroke-linecap="butt"/><path d="M336.27892,254.10418c0,6.44345 11.45129,14.78743 -5.3498,17.02488c-5.17292,0.68889 -34.14548,-1.76584 -40.04779,-1.76584c-7.94966,0 -9.58874,-6.68681 -16.08734,-7.89352c-13.99733,-2.59913 -29.31025,-1.61023 -29.31025,-7.36552c0,-8.42733 20.32519,-15.25904 45.39759,-15.25904c8.14614,0 26.79115,2.38784 33.40074,3.65061c13.73357,2.6238 11.99685,5.91918 11.99685,11.60843z" fill="#9df04a" stroke="none" stroke-width="0" stroke-linecap="butt"/><path d="M271.37802,339.20327c0,6.44345 11.45129,14.78743 -5.3498,17.02488c-5.17292,0.68889 -34.14548,-1.76584 -40.04779,-1.76584c-7.94966,0 -9.58874,-6.68681 -16.08734,-7.89352c-13.99733,-2.59913 -29.31025,-1.61023 -29.31025,-7.36552c0,-8.42733 20.32519,-15.25904 45.39759,-15.25904c8.14614,0 26.79115,2.38784 33.40074,3.65061c13.73357,2.6238 11.99685,5.91918 11.99685,11.60843z" fill="#9df04a" stroke="none" stroke-width="0" stroke-linecap="butt"/><path d="M222.00099,167.41162c3.30113,-0.63068 12.61332,-1.82328 16.68187,-1.82328c12.52231,0 22.67365,3.41207 22.67365,7.62107c0,2.87446 -7.64799,2.38055 -14.63889,3.67868c-3.2457,0.60269 -4.06433,3.94239 -8.03475,3.94239c-2.94789,0 -17.41812,1.22601 -20.00171,0.88194c-8.39123,-1.11748 -2.67194,-5.28485 -2.67194,-8.50301c0,-2.84147 -0.8674,-4.48734 5.99178,-5.79778z" data-paper-data="{&quot;index&quot;:null}" fill="#7ec03c" stroke="none" stroke-width="0" stroke-linecap="butt"/><path d="M371.67816,111.69264c3.32595,-0.63542 12.70812,-1.83699 16.80726,-1.83699c12.61644,0 22.84408,3.43772 22.84408,7.67835c0,2.89606 -7.70547,2.39845 -14.74892,3.70634c-3.2701,0.60722 -4.09488,3.97202 -8.09515,3.97202c-2.97004,0 -17.54904,1.23522 -20.15205,0.88858c-8.45431,-1.12588 -2.69203,-5.32458 -2.69203,-8.56692c0,-2.86283 -0.87392,-4.52106 6.03682,-5.84136z" data-paper-data="{&quot;index&quot;:null}" fill="#7ec03c" stroke="none" stroke-width="0" stroke-linecap="butt"/><path d="M18.75783,320.26275c4.09446,-0.78225 15.64453,-2.26145 20.69083,-2.26145c15.53167,0 28.12256,4.23205 28.12256,9.45255c0,3.56525 -9.48593,2.95265 -18.15689,4.56274c-4.0257,0.74752 -5.04107,4.88981 -9.96566,4.88981c-3.65632,0 -21.60403,1.52064 -24.8085,1.09389c-10.40781,-1.38603 -3.31405,-6.5549 -3.31405,-10.54644c0,-3.52433 -1.07585,-5.56573 7.43172,-7.1911z" data-paper-data="{&quot;index&quot;:null}" fill="#7ec03c" stroke="none" stroke-width="0" stroke-linecap="butt"/><path d="M232.84692,27.79846c3.67527,-0.70216 14.04285,-2.02993 18.57252,-2.02993c13.94154,0 25.24338,3.79877 25.24338,8.48481c0,3.20023 -8.51477,2.65035 -16.298,4.0956c-3.61356,0.67099 -4.52496,4.3892 -8.94538,4.3892c-3.28198,0 -19.39221,1.36496 -22.26862,0.9819c-9.34226,-1.24413 -2.97477,-5.88382 -2.97477,-9.4667c0,-3.16352 -0.9657,-4.99591 6.67087,-6.45488z" data-paper-data="{&quot;index&quot;:null}" fill="#7ec03c" stroke="none" stroke-width="0" stroke-linecap="butt"/><path d="M61.00465,109.61546c3.18622,-0.60873 12.17423,-1.75981 16.10116,-1.75981c12.08639,0 21.88435,3.29329 21.88435,7.35577c0,2.77439 -7.38174,2.29769 -14.12929,3.55062c-3.13271,0.58171 -3.92284,3.80515 -7.75505,3.80515c-2.84526,0 -16.81177,1.18332 -19.30543,0.85124c-8.09913,-1.07859 -2.57892,-5.10089 -2.57892,-8.20701c0,-2.74255 -0.8372,-4.33112 5.7832,-5.59595z" data-paper-data="{&quot;index&quot;:null}" fill="#7ec03c" stroke="none" stroke-width="0" stroke-linecap="butt"/><path d="M230.51501,202.73828c4.16433,-0.79559 15.91148,-2.30005 21.0439,-2.30005c15.79669,0 28.60242,4.30427 28.60242,9.61384c0,3.62608 -9.6478,3.00303 -18.46671,4.64059c-4.0944,0.76027 -5.12708,4.97325 -10.1357,4.97325c-3.7187,0 -21.97265,1.54659 -25.23181,1.11257c-10.5854,-1.40969 -3.37061,-6.66676 -3.37061,-10.72641c0,-3.58447 -1.0942,-5.6607 7.55853,-7.3138z" data-paper-data="{&quot;index&quot;:null}" fill="#7ec03c" stroke="none" stroke-width="0" stroke-linecap="butt"/><path d="M218.3334,287.54321c3.67527,-0.70217 14.04285,-2.02993 18.57252,-2.02993c13.94154,0 25.24338,3.79878 25.24338,8.4848c0,3.20024 -8.51477,2.65036 -16.298,4.09561c-3.61355,0.67099 -4.52497,4.3892 -8.94538,4.3892c-3.28199,0 -19.3922,1.36496 -22.26862,0.9819c-9.34226,-1.24414 -2.97476,-5.88382 -2.97476,-9.46671c0,-3.16351 -0.96571,-4.99592 6.67086,-6.45488z" data-paper-data="{&quot;index&quot;:null}" fill="#7ec03c" stroke="none" stroke-width="0" stroke-linecap="butt"/><path d="M-11.8903,232.68225c4.93283,-0.94242 18.84789,-2.7245 24.92747,-2.7245c18.7119,0 33.8809,5.0986 33.8809,11.38805c0,4.29526 -11.42826,3.55723 -21.87468,5.497c-4.85,0.90058 -6.07327,5.89105 -12.00622,5.89105c-4.40498,0 -26.02764,1.83201 -29.88826,1.31788c-12.5389,-1.66984 -3.99264,-7.89708 -3.99264,-12.70593c0,-4.24597 -1.29614,-6.70537 8.95343,-8.66354z" data-paper-data="{&quot;index&quot;:null}" fill="#7ec03c" stroke="none" stroke-width="0" stroke-linecap="butt"/><path d="M102.88162,345.74863c3.95472,-0.75555 15.11064,-2.18428 19.98473,-2.18428c15.00162,0 27.16283,4.08763 27.16283,9.12997c0,3.44358 -9.1622,2.85188 -17.53726,4.40703c-3.88832,0.72201 -4.86903,4.72295 -9.62557,4.72295c-3.53154,0 -20.86675,1.46874 -23.96187,1.05656c-10.05263,-1.33873 -3.20096,-6.33121 -3.20096,-10.18653c0,-3.40406 -1.03914,-5.3758 7.1781,-6.94569z" data-paper-data="{&quot;index&quot;:null}" fill="#7ec03c" stroke="none" stroke-width="0" stroke-linecap="butt"/><path d="M337.44904,314.75431c4.93283,-0.94242 18.84789,-2.7245 24.92747,-2.7245c18.71191,0 33.8809,5.09861 33.8809,11.38805c0,4.29526 -11.42827,3.55723 -21.87468,5.497c-4.85,0.90058 -6.07327,5.89105 -12.00622,5.89105c-4.40498,0 -26.02764,1.83201 -29.88826,1.31788c-12.5389,-1.66984 -3.99264,-7.89708 -3.99264,-12.70592c0,-4.24597 -1.29614,-6.70537 8.95343,-8.66355z" data-paper-data="{&quot;index&quot;:null}" fill="#7ec03c" stroke="none" stroke-width="0" stroke-linecap="butt"/><g fill="#7b8040" stroke="#b3e645" stroke-width="40" stroke-linecap="butt"><path d="M199,29.10002c69.864,0 126.5,20.8188 126.5,46.5c0,25.6812 -56.636,46.5 -126.5,46.5c-69.864,0 -126.5,-20.8188 -126.5,-46.5c0,-25.6813 56.636,-46.5 126.5,-46.5z"/><path d="M96.5,127.72553c0,-19.1232 48.1294,-34.6255 107.5,-34.6255c59.3706,0 107.5,15.5023 107.5,34.6255c0,19.1231 -48.1294,34.6254 -107.5,34.6254c-59.3706,0 -107.5,-15.5023 -107.5,-34.6254z"/><path d="M-8.5,100.58093c0,-25.1396 53.2781,-45.5192 119,-45.5192c65.7219,0 119,20.3796 119,45.5192c0,25.1395 -53.2781,45.5191 -119,45.5191c-65.7219,0 -119,-20.3796 -119,-45.5191z"/></g><g fill="#93994c" stroke="none" stroke-width="0" stroke-linecap="butt"><path d="M199,29.1c69.86402,0 126.5,20.81876 126.5,46.5c0,25.68124 -56.63598,46.5 -126.5,46.5c-69.86402,0 -126.5,-20.81876 -126.5,-46.5c0,-25.68124 56.63598,-46.5 126.5,-46.5z"/><path d="M96.5,127.72547c0,-19.12312 48.12939,-34.62547 107.5,-34.62547c59.37061,0 107.5,15.50235 107.5,34.62547c0,19.12312 -48.12939,34.62547 -107.5,34.62547c-59.37061,0 -107.5,-15.50235 -107.5,-34.62547z"/><path d="M110.5,55.06176c65.72189,0 119,20.37961 119,45.51913c0,25.13952 -53.27811,45.51913 -119,45.51913c-65.72189,0 -119,-20.37961 -119,-45.51913c0,-25.13952 53.27811,-45.51913 119,-45.51913z"/></g><path d="M257.5,111.80003c0,4.41828 -17.90861,8 -40,8c-22.09139,0 -40,-3.58172 -40,-8c0,-4.41828 17.90861,-8 40,-8c22.09139,0 40,3.58172 40,8z" fill="#989f47" stroke="none" stroke-width="0" stroke-linecap="butt"/><path d="M114.5,95.30003c0,4.14214 -15.67003,7.5 -35,7.5c-19.32997,0 -35,-3.35786 -35,-7.5c0,-4.14214 15.67003,-7.5 35,-7.5c19.32997,0 35,3.35786 35,7.5z" fill="#989f47" stroke="none" stroke-width="0" stroke-linecap="butt"/><path d="M229.5,68.30003c0,4.14214 -17.23704,7.5 -38.5,7.5c-21.26296,0 -38.5,-3.35786 -38.5,-7.5c0,-4.14214 17.23704,-7.5 38.5,-7.5c21.26296,0 38.5,3.35786 38.5,7.5z" fill="#989f47" stroke="none" stroke-width="0" stroke-linecap="butt"/><g fill="none" stroke-linecap="round"><path d="M289.375,147.52502l3.5,-26" stroke="#2acc00" stroke-width="2.5"/><path d="M284.875,150.02503l-1,-25.25" stroke="#2acc00" stroke-width="2.5"/><path d="M272.625,139.27503l5.5,12.75" stroke="#2acc00" stroke-width="2.5"/><path d="M294.875,112.27503l-2.25,12.5" stroke="#b38824" stroke-width="5"/><path d="M282.875,109.52503l0.75,14" stroke="#b38824" stroke-width="5"/><path d="M268.375,129.27503l4,8.75" stroke="#b38824" stroke-width="5"/></g><g data-paper-data="{&quot;index&quot;:null}" fill="none" stroke-linecap="round"><path d="M101.875,119.02503l3.5,26" stroke="#2acc00" stroke-width="2.5"/><path d="M110.875,120.27503l-1,25.25" stroke="#2acc00" stroke-width="2.5"/><path d="M116.625,147.52503l5.5,-12.75" stroke="#2acc00" stroke-width="2.5"/><path d="M99.875,109.77503l2.25,12.5" stroke="#b38824" stroke-width="5"/><path d="M111.125,119.02503l0.75,-14" stroke="#b38824" stroke-width="5"/><path d="M126.375,124.77503l-4,8.75" stroke="#b38824" stroke-width="5"/></g><path d="M-47.53754,407.47751v-459.45946h144.14414v459.45946z" fill="url(#color-1)" stroke="none" stroke-width="0" stroke-linecap="butt"/><path d="M446.51812,407.10293c0,8.42733 -20.32519,15.25904 -45.39759,15.25904c-25.0724,0 -45.39759,-6.8317 -45.39759,-15.25904c0,-8.42733 20.32519,-15.25904 45.39759,-15.25904c25.0724,0 45.39759,6.8317 45.39759,15.25904z" fill="#9df04a" stroke="none" stroke-width="0" stroke-linecap="butt"/><path d="M281.8615,375.51859c0,6.44345 11.45129,14.78743 -5.3498,17.02488c-5.17292,0.68889 -34.14548,-1.76584 -40.04779,-1.76584c-7.94966,0 -9.58874,-6.68681 -16.08734,-7.89352c-13.99733,-2.59913 -29.31025,-1.61023 -29.31025,-7.36552c0,-8.42733 20.32519,-15.25904 45.39759,-15.25904c8.14614,0 26.79115,2.38784 33.40074,3.65061c13.73357,2.6238 11.99685,5.91918 11.99685,11.60843z" fill="#9df04a" stroke="none" stroke-width="0" stroke-linecap="butt"/><path d="M392.86465,395.01478c-6.60959,1.26277 -25.2546,3.65061 -33.40074,3.65061c-25.0724,0 -45.39759,-6.83171 -45.39759,-15.25904c0,-5.75529 15.31292,-4.76639 29.31025,-7.36552c6.4986,-1.20671 8.13768,-7.89352 16.08734,-7.89352c5.90231,0 34.87487,-2.45473 40.04779,-1.76584c16.80109,2.23745 5.3498,10.58143 5.3498,17.02488c0,5.68925 1.73672,8.98463 -11.99685,11.60843z" data-paper-data="{&quot;index&quot;:null}" fill="#9df04a" stroke="none" stroke-width="0" stroke-linecap="butt"/><path d="M497.09273,376.44951c0,6.44345 11.45129,14.78743 -5.3498,17.02488c-5.17292,0.68889 -34.14548,-1.76584 -40.04779,-1.76584c-7.94966,0 -9.58874,-6.68681 -16.08734,-7.89352c-13.99733,-2.59913 -29.31025,-1.61023 -29.31025,-7.36552c0,-8.42733 20.32519,-15.25904 45.39759,-15.25904c8.14614,0 26.79115,2.38784 33.40074,3.65061c13.73357,2.6238 11.99685,5.91918 11.99685,11.60843z" fill="#9df04a" stroke="none" stroke-width="0" stroke-linecap="butt"/><path d="M451.06013,301.56725c3.67527,-0.70216 14.04285,-2.02993 18.57252,-2.02993c13.94154,0 25.24338,3.79877 25.24338,8.48481c0,3.20023 -8.51477,2.65035 -16.298,4.0956c-3.61356,0.67099 -4.52496,4.3892 -8.94538,4.3892c-3.28198,0 -19.39221,1.36496 -22.26862,0.9819c-9.34226,-1.24413 -2.97477,-5.88382 -2.97477,-9.4667c0,-3.16352 -0.9657,-4.99591 6.67087,-6.45488z" data-paper-data="{&quot;index&quot;:null}" fill="#7ec03c" stroke="none" stroke-width="0" stroke-linecap="butt"/><path d="M279.21786,383.38423c3.18622,-0.60873 12.17423,-1.75981 16.10116,-1.75981c12.08639,0 21.88435,3.29329 21.88435,7.35577c0,2.77439 -7.38174,2.29769 -14.12929,3.55062c-3.13271,0.58171 -3.92284,3.80515 -7.75505,3.80515c-2.84526,0 -16.81177,1.18332 -19.30543,0.85124c-8.09913,-1.07859 -2.57892,-5.10089 -2.57892,-8.20701c0,-2.74255 -0.8372,-4.33112 5.7832,-5.59595z" data-paper-data="{&quot;index&quot;:null}" fill="#7ec03c" stroke="none" stroke-width="0" stroke-linecap="butt"/><path d="M649.29822,500.13685c0,18.61826 -44.90386,33.71136 -100.29559,33.71136c-55.39173,0 -100.29559,-15.09307 -100.29559,-33.71136c0,-18.61825 44.90385,-33.71136 100.29559,-33.71136c55.39173,0 100.29559,15.09308 100.29559,33.71136z" fill="#9df04a" stroke="none" stroke-width="0" stroke-linecap="butt"/><path d="M285.5271,430.35848c0,14.23533 25.29901,32.66944 -11.81916,37.61257c-11.42838,1.52195 -75.43662,-3.90122 -88.47643,-3.90122c-17.56295,0 -21.18412,-14.77297 -35.54129,-17.43892c-30.9239,-5.74219 -64.75429,-3.55743 -64.75429,-16.27243c0,-18.61825 44.90386,-33.71136 100.29559,-33.71136c17.99703,0 59.18892,5.27539 73.7913,8.06519c30.34118,5.79669 26.50429,13.07708 26.50429,25.64617z" fill="#9df04a" stroke="none" stroke-width="0" stroke-linecap="butt"/><path d="M530.76316,473.43089c-14.60237,2.7898 -55.79426,8.06519 -73.79129,8.06519c-55.39173,0 -100.29559,-15.09311 -100.29559,-33.71136c0,-12.715 33.8304,-10.53025 64.75429,-16.27243c14.35717,-2.66595 17.97834,-17.43893 35.54129,-17.43893c13.0398,0 77.04804,-5.42316 88.47643,-3.90122c37.11817,4.94313 11.81916,23.37725 11.81916,37.61257c0,12.56909 3.83689,19.84948 -26.50429,25.64617z" data-paper-data="{&quot;index&quot;:null}" fill="#9df04a" stroke="none" stroke-width="0" stroke-linecap="butt"/><path d="M761.03125,432.41516c0,14.23533 25.29901,32.66944 -11.81916,37.61258c-11.42838,1.52194 -75.43662,-3.90122 -88.47642,-3.90122c-17.56296,0 -21.18412,-14.77297 -35.54129,-17.43892c-30.9239,-5.74219 -64.75429,-3.55743 -64.75429,-16.27243c0,-18.61825 44.90386,-33.71135 100.29559,-33.71135c17.99703,0 59.18891,5.27538 73.79129,8.06518c30.34118,5.79669 26.50429,13.07708 26.50429,25.64617z" fill="#9df04a" stroke="none" stroke-width="0" stroke-linecap="butt"/><path d="M659.33275,266.9799c8.11967,-1.55126 31.02447,-4.48466 41.03174,-4.48466c30.80064,0 55.76947,8.39251 55.76947,18.74524c0,7.07018 -18.81144,5.85535 -36.0067,9.0483c-7.98334,1.4824 -9.99687,9.69693 -19.76277,9.69693c-7.25078,0 -42.84265,3.01557 -49.19742,2.16928c-20.63958,-2.74862 -6.57207,-12.99895 -6.57207,-20.91451c0,-6.98907 -2.1335,-11.03732 14.73776,-14.26058z" data-paper-data="{&quot;index&quot;:null}" fill="#7ec03c" stroke="none" stroke-width="0" stroke-linecap="butt"/><path d="M279.68659,447.73581c7.03922,-1.34485 26.89617,-3.8879 35.57183,-3.8879c26.70211,0 48.34846,7.27577 48.34846,16.25089c0,6.12938 -16.30826,5.07623 -31.21543,7.84429c-6.921,1.28516 -8.66662,8.40661 -17.13301,8.40661c-6.28595,0 -37.14176,2.61428 -42.65093,1.88062c-17.89317,-2.3829 -5.69753,-11.26925 -5.69753,-18.13151c0,-6.05903 -1.8496,-9.56862 12.77666,-12.36297z" data-paper-data="{&quot;index&quot;:null}" fill="#7ec03c" stroke="none" stroke-width="0" stroke-linecap="butt"/><g fill="#7b8040" stroke="#b3e645" stroke-width="40" stroke-linecap="butt"><path d="M584.55573,269.8554c154.34852,0 279.4728,45.99437 279.4728,102.7311c0,56.73674 -125.12428,102.73111 -279.4728,102.73111c-154.34852,0 -279.4728,-45.99437 -279.4728,-102.73111c0,-56.73695 125.12427,-102.7311 279.4728,-102.7311z"/><path d="M358.10544,487.74587c0,-42.24834 106.3309,-76.49712 237.49665,-76.49712c131.16575,0 237.49664,34.24879 237.49664,76.49712c0,42.24811 -106.33089,76.49689 -237.49664,76.49689c-131.16576,0 -237.49665,-34.24878 -237.49665,-76.49689z"/><path d="M126.13197,427.77609c0,-55.54019 117.70577,-100.56425 262.90326,-100.56425c145.19749,0 262.90326,45.02406 262.90326,100.56426c0,55.53997 -117.70577,100.56403 -262.90326,100.56403c-145.19749,0 -262.90326,-45.02406 -262.90326,-100.56403z"/></g><g fill="#45b5e6" stroke="none" stroke-width="0" stroke-linecap="butt"><path d="M584.55573,269.85535c154.34856,0 279.4728,45.99429 279.4728,102.73111c0,56.73682 -125.12424,102.73111 -279.4728,102.73111c-154.34856,0 -279.4728,-45.99428 -279.4728,-102.73111c0,-56.73682 125.12423,-102.73111 279.4728,-102.73111z"/><path d="M358.10544,487.74578c0,-42.24815 106.33088,-76.49705 237.49665,-76.49705c131.16577,0 237.49664,34.24889 237.49664,76.49705c0,42.24816 -106.33087,76.49705 -237.49664,76.49705c-131.16578,0 -237.49665,-34.24889 -237.49665,-76.49705z"/><path d="M389.03524,327.21191c145.19747,0 262.90326,45.02408 262.90326,100.5641c0,55.54001 -117.70579,100.5641 -262.90326,100.5641c-145.19747,0 -262.90326,-45.02409 -262.90326,-100.5641c0,-55.54002 117.70579,-100.5641 262.90326,-100.5641z"/></g><path d="M713.79809,452.56212c0,9.76118 -39.56497,17.67417 -88.37085,17.67417c-48.80587,0 -88.37084,-7.91299 -88.37084,-17.67417c0,-9.76118 39.56497,-17.67417 88.37084,-17.67417c48.80587,0 88.37085,7.91299 88.37085,17.67417z" fill="#91cce6" stroke="none" stroke-width="0" stroke-linecap="butt"/><path d="M397.87232,416.10915c0,9.15111 -34.61934,16.56953 -77.32448,16.56953c-42.70515,0 -77.32449,-7.41842 -77.32449,-16.56953c0,-9.15111 34.61934,-16.56954 77.32449,-16.56954c42.70515,0 77.32448,7.41843 77.32448,16.56954z" fill="#91cce6" stroke="none" stroke-width="0" stroke-linecap="butt"/><path d="M651.9385,356.45882c0,9.15111 -38.08129,16.56953 -85.05694,16.56953c-46.97564,0 -85.05694,-7.41843 -85.05694,-16.56953c0,-9.15111 38.08129,-16.56953 85.05694,-16.56953c46.97565,0 85.05694,7.41842 85.05694,16.56953z" fill="#91cce6" stroke="none" stroke-width="0" stroke-linecap="butt"/><g fill="none" stroke-linecap="round"><path d="M784.21861,531.48831l7.73245,-57.44105" stroke="#2acc00" stroke-width="2.5"/><path d="M774.27689,537.01151l-2.20927,-55.78409" stroke="#2acc00" stroke-width="2.5"/><path d="M759.36431,541.43004l-12.15099,-28.16821" stroke="#2acc00" stroke-width="2.5"/><path d="M791.39874,481.22741l4.97086,-27.61589" stroke="#b38824" stroke-width="5"/><path d="M769.85835,447.53603l1.65695,30.9298" stroke="#b38824" stroke-width="5"/><path d="M746.661,510.50025l-8.83709,-19.33112" stroke="#b38824" stroke-width="5"/></g><g data-paper-data="{&quot;index&quot;:null}" fill="none" stroke-linecap="round"><path d="M377.71272,525.96515l-7.73245,-57.44105" stroke="#2acc00" stroke-width="2.5"/><path d="M389.86371,471.28569l-2.20927,55.7841" stroke="#2acc00" stroke-width="2.5"/><path d="M402.56702,531.48831l12.15099,-28.16821" stroke="#2acc00" stroke-width="2.5"/><path d="M365.56173,448.08834l4.97086,27.61589" stroke="#b38824" stroke-width="5"/><path d="M392.07299,437.5943l-1.65696,30.9298" stroke="#b38824" stroke-width="5"/><path d="M415.27032,500.55853l8.83709,-19.33112" stroke="#b38824" stroke-width="5"/></g><g fill="none" stroke-linecap="round"><path d="M405.375,271.85836l3.5,-26" stroke="#2acc00" stroke-width="2.5"/><path d="M400.875,274.35836l-1,-25.25" stroke="#2acc00" stroke-width="2.5"/><path d="M388.625,263.60836l5.5,12.75" stroke="#2acc00" stroke-width="2.5"/><path d="M408.625,249.10836l2.25,-12.5" stroke="#b38824" stroke-width="5"/><path d="M398.875,233.85836l0.75,14" stroke="#b38824" stroke-width="5"/><path d="M384.375,253.60836l4,8.75" stroke="#b38824" stroke-width="5"/></g><g fill="none" stroke-linecap="round"><path d="M234.875,299.52503l-3.5,26" stroke="#2acc00" stroke-width="2.5"/><path d="M226.875,328.02503l-1,-25.25" stroke="#2acc00" stroke-width="2.5"/><path d="M220.125,330.02503l-5.5,-12.75" stroke="#2acc00" stroke-width="2.5"/><path d="M234.625,302.77503l2.25,-12.5" stroke="#b38824" stroke-width="5"/><path d="M224.875,287.52503l0.75,14" stroke="#b38824" stroke-width="5"/><path d="M210.375,307.27503l4,8.75" stroke="#b38824" stroke-width="5"/></g></g></g></svg>