<svg version="1.1" xmlns="http://www.w3.org/2000/svg" xmlns:xlink="http://www.w3.org/1999/xlink" width="69.33333" height="82.85333" viewBox="0,0,69.33333,82.85333"><g transform="translate(-205.33333,-138.57334)"><g data-paper-data="{&quot;isPaintingLayer&quot;:true}" fill-rule="nonzero" stroke-linejoin="miter" stroke-miterlimit="10" stroke-dasharray="" stroke-dashoffset="0" style="mix-blend-mode: normal"><path d="M240.00005,185.43334v-24.2" fill="none" stroke="#ff0000" stroke-width="5" stroke-linecap="round"/><path d="M239.90004,184.53335c0,0 -2.0215,6.6194 -3.9919,10.56c-1.9703,3.9407 -5.8081,9.04 -5.8081,9.04" fill="none" stroke="#ff0000" stroke-width="5" stroke-linecap="round"/><path d="M240.10005,184.53335c0,0 6.1748,4.9575 7.0285,8.3038c0.8108,3.1784 -0.6285,9.8962 -0.6285,9.8962" data-paper-data="{&quot;index&quot;:null}" fill="none" stroke="#ff0000" stroke-width="5" stroke-linecap="round"/><path d="M232.30005,185.13335c0,0 -1.8837,-5.4838 -0.5876,-8.6176c1.3488,-3.2611 8.1287,-9.9824 8.1287,-9.9824" fill="none" stroke="#ff0000" stroke-width="5" stroke-linecap="round"/><path d="M251.70005,183.53335c0,0 -4.9284,-2.5879 -6.522,-5.3844c-1.9722,-3.4609 -5.0192,-11.6156 -5.0192,-11.6156" data-paper-data="{&quot;index&quot;:null}" fill="none" stroke="#ff0000" stroke-width="5" stroke-linecap="round"/><path d="M231.70001,161.13333c0,-4.58397 3.71604,-8.3 8.3,-8.3c4.58397,0 8.3,3.71604 8.3,8.3c0,4.58397 -3.71604,8.3 -8.3,8.3c-4.58397,0 -8.3,-3.71603 -8.3,-8.3z" fill="#ff0000" stroke="#ff0000" stroke-width="0" stroke-linecap="butt"/><path d="M205.33334,221.42668v-82.85333h69.33333v82.85333z" fill="none" stroke="none" stroke-width="0" stroke-linecap="butt"/></g></g></svg>