<svg version="1.1" xmlns="http://www.w3.org/2000/svg" xmlns:xlink="http://www.w3.org/1999/xlink" width="577.67284" height="459.45946" viewBox="0,0,577.67284,459.45946"><defs><linearGradient x1="-47.53754" y1="173.24324" x2="96.60661" y2="173.24324" gradientUnits="userSpaceOnUse" id="color-1"><stop offset="0" stop-color="#000000"/><stop offset="1" stop-color="#000000" stop-opacity="0"/></linearGradient></defs><g transform="translate(47.53753,56.48649)"><g data-paper-data="{&quot;isPaintingLayer&quot;:true}" fill-rule="nonzero" stroke-linejoin="miter" stroke-miterlimit="10" stroke-dasharray="" stroke-dashoffset="0" style="mix-blend-mode: normal"><path d="M-31.99999,381.00001v-402h544v402z" fill="#95e447" stroke="none" stroke-width="0" stroke-linecap="butt"/><path d="M267.45182,52.25904c0,8.42733 -20.32519,15.25904 -45.39759,15.25904c-25.0724,0 -45.39759,-6.8317 -45.39759,-15.25904c0,-8.42733 20.32519,-15.25904 45.39759,-15.25904c25.0724,0 45.39759,6.8317 45.39759,15.25904z" fill="#9df04a" stroke="none" stroke-width="0" stroke-linecap="butt"/><path d="M377.77712,98.92771c0,8.42733 -20.32519,15.25904 -45.39759,15.25904c-25.0724,0 -45.39759,-6.8317 -45.39759,-15.25904c0,-8.42733 20.32519,-15.25904 45.39759,-15.25904c25.0724,0 45.39759,6.8317 45.39759,15.25904z" fill="#9df04a" stroke="none" stroke-width="0" stroke-linecap="butt"/><path d="M109.61447,266.24096c0,8.42733 -20.32519,15.25904 -45.39759,15.25904c-25.0724,0 -45.39759,-6.8317 -45.39759,-15.25904c0,-8.42733 20.32519,-15.25904 45.39759,-15.25904c25.0724,0 45.39759,6.8317 45.39759,15.25904z" fill="#9df04a" stroke="none" stroke-width="0" stroke-linecap="butt"/><path d="M246.71085,298.74096c0,8.42733 -20.32519,15.25904 -45.39759,15.25904c-25.0724,0 -45.39759,-6.8317 -45.39759,-15.25904c0,-8.42733 20.32519,-15.25904 45.39759,-15.25904c25.0724,0 45.39759,6.8317 45.39759,15.25904z" fill="#9df04a" stroke="none" stroke-width="0" stroke-linecap="butt"/><path d="M115.87953,45.68073c0,8.42733 -20.32519,15.25904 -45.39759,15.25904c-25.0724,0 -45.39759,-6.8317 -45.39759,-15.25904c0,-8.42733 20.32519,-15.25904 45.39759,-15.25904c25.0724,0 45.39759,6.8317 45.39759,15.25904z" fill="#9df04a" stroke="none" stroke-width="0" stroke-linecap="butt"/><path d="M438.53615,62.26506c0,8.42733 -20.32519,15.25904 -45.39759,15.25904c-25.0724,0 -45.39759,-6.8317 -45.39759,-15.25904c0,-8.42733 20.32519,-15.25904 45.39759,-15.25904c25.0724,0 45.39759,6.8317 45.39759,15.25904z" fill="#9df04a" stroke="none" stroke-width="0" stroke-linecap="butt"/><path d="M446.18073,324.30123c0,8.42733 -20.32519,15.25904 -45.39759,15.25904c-25.0724,0 -45.39759,-6.8317 -45.39759,-15.25904c0,-8.42733 20.32519,-15.25904 45.39759,-15.25904c25.0724,0 45.39759,6.8317 45.39759,15.25904z" fill="#9df04a" stroke="none" stroke-width="0" stroke-linecap="butt"/><path d="M-34,394.00001v-402h544v402z" fill="#95e447" stroke="none" stroke-width="0" stroke-linecap="butt"/><path d="M335.87952,226.67171c0,6.44345 11.45129,14.78743 -5.3498,17.02488c-5.17292,0.68889 -34.14548,-1.76584 -40.04779,-1.76584c-7.94966,0 -9.58874,-6.68681 -16.08734,-7.89352c-13.99733,-2.59913 -29.31025,-1.61023 -29.31025,-7.36552c0,-8.42733 20.32519,-15.25904 45.39759,-15.25904c8.14614,0 26.79115,2.38784 33.40074,3.65061c13.73357,2.6238 11.99685,5.91918 11.99685,11.60843z" fill="#9df04a" stroke="none" stroke-width="0" stroke-linecap="butt"/><path d="M431.87952,172.68074c0,6.44345 11.45129,14.78743 -5.3498,17.02488c-5.17292,0.68889 -34.14548,-1.76584 -40.04779,-1.76584c-7.94966,0 -9.58874,-6.68681 -16.08734,-7.89352c-13.99733,-2.59913 -29.31025,-1.61023 -29.31025,-7.36552c0,-8.42733 20.32519,-15.25904 45.39759,-15.25904c8.14614,0 26.79115,2.38784 33.40074,3.65061c13.73357,2.6238 11.99685,5.91918 11.99685,11.60843z" fill="#9df04a" stroke="none" stroke-width="0" stroke-linecap="butt"/><path d="M157.87952,181.68074c0,6.44345 11.45129,14.78743 -5.3498,17.02488c-5.17292,0.68889 -34.14548,-1.76584 -40.04779,-1.76584c-7.94966,0 -9.58874,-6.68681 -16.08734,-7.89352c-13.99733,-2.59913 -29.31025,-1.61023 -29.31025,-7.36552c0,-8.42733 20.32519,-15.25904 45.39759,-15.25904c8.14614,0 26.79115,2.38784 33.40074,3.65061c13.73357,2.6238 11.99685,5.91918 11.99685,11.60843z" fill="#9df04a" stroke="none" stroke-width="0" stroke-linecap="butt"/><path d="M205.89151,103.07231c6.60959,-1.26277 25.2546,-3.65061 33.40074,-3.65061c25.0724,0 45.39759,6.83171 45.39759,15.25904c0,5.75529 -15.31292,4.76639 -29.31025,7.36552c-6.4986,1.20671 -8.13768,7.89352 -16.08734,7.89352c-5.90231,0 -34.87487,2.45473 -40.04779,1.76584c-16.80109,-2.23745 -5.3498,-10.58143 -5.3498,-17.02488c0,-5.68925 -1.73672,-8.98463 11.99685,-11.60843z" data-paper-data="{&quot;index&quot;:null}" fill="#9df04a" stroke="none" stroke-width="0" stroke-linecap="butt"/><path d="M416.87952,94.68073c0,6.44345 11.45129,14.78743 -5.3498,17.02488c-5.17292,0.68889 -34.14548,-1.76584 -40.04779,-1.76584c-7.94966,0 -9.58874,-6.68681 -16.08734,-7.89352c-13.99733,-2.59913 -29.31025,-1.61023 -29.31025,-7.36552c0,-8.42733 20.32519,-15.25904 45.39759,-15.25904c8.14614,0 26.79115,2.38784 33.40074,3.65061c13.73357,2.6238 11.99685,5.91918 11.99685,11.60843z" fill="#9df04a" stroke="none" stroke-width="0" stroke-linecap="butt"/><path d="M153.87952,38.68072c0,6.44345 11.45129,14.78743 -5.3498,17.02488c-5.17292,0.68889 -34.14548,-1.76584 -40.04779,-1.76584c-7.94966,0 -9.58874,-6.68681 -16.08734,-7.89352c-13.99733,-2.59913 -29.31025,-1.61023 -29.31025,-7.36552c0,-8.42733 20.32519,-15.25904 45.39759,-15.25904c8.14614,0 26.79115,2.38784 33.40074,3.65061c13.73357,2.6238 11.99685,5.91918 11.99685,11.60843z" fill="#9df04a" stroke="none" stroke-width="0" stroke-linecap="butt"/><path d="M120.87952,293.68073c0,6.44345 11.45129,14.78743 -5.3498,17.02488c-5.17292,0.68889 -34.14548,-1.76584 -40.04779,-1.76584c-7.94966,0 -9.58874,-6.68681 -16.08734,-7.89352c-13.99733,-2.59913 -29.31025,-1.61023 -29.31025,-7.36552c0,-8.42733 20.32519,-15.25904 45.39759,-15.25904c8.14614,0 26.79115,2.38784 33.40074,3.65061c13.73357,2.6238 11.99685,5.91918 11.99685,11.60843z" fill="#9df04a" stroke="none" stroke-width="0" stroke-linecap="butt"/><path d="M355.87952,319.68073c0,6.44345 11.45129,14.78743 -5.3498,17.02488c-5.17292,0.68889 -34.14548,-1.76584 -40.04779,-1.76584c-7.94966,0 -9.58874,-6.68681 -16.08734,-7.89352c-13.99733,-2.59913 -29.31025,-1.61023 -29.31025,-7.36552c0,-8.42733 20.32519,-15.25904 45.39759,-15.25904c8.14614,0 26.79115,2.38784 33.40074,3.65061c13.73357,2.6238 11.99685,5.91918 11.99685,11.60843z" fill="#9df04a" stroke="none" stroke-width="0" stroke-linecap="butt"/><path d="M254.87952,360.68074c0,6.44345 11.45129,14.78743 -5.3498,17.02488c-5.17292,0.68889 -34.14548,-1.76584 -40.04779,-1.76584c-7.94966,0 -9.58874,-6.68681 -16.08734,-7.89352c-13.99733,-2.59913 -29.31025,-1.61023 -29.31025,-7.36552c0,-8.42733 20.32519,-15.25904 45.39759,-15.25904c8.14614,0 26.79115,2.38784 33.40074,3.65061c13.73357,2.6238 11.99685,5.91918 11.99685,11.60843z" fill="#9df04a" stroke="none" stroke-width="0" stroke-linecap="butt"/><path d="M222.00099,167.41163c3.30113,-0.63068 12.61332,-1.82328 16.68187,-1.82328c12.52231,0 22.67365,3.41207 22.67365,7.62107c0,2.87446 -7.64799,2.38055 -14.63889,3.67868c-3.2457,0.60269 -4.06433,3.94239 -8.03475,3.94239c-2.94789,0 -17.41812,1.22601 -20.00171,0.88194c-8.39123,-1.11748 -2.67194,-5.28485 -2.67194,-8.50301c0,-2.84147 -0.8674,-4.48734 5.99178,-5.79778z" data-paper-data="{&quot;index&quot;:null}" fill="#7ec03c" stroke="none" stroke-width="0" stroke-linecap="butt"/><path d="M369.64813,30.6896c3.32595,-0.63542 12.70812,-1.83699 16.80726,-1.83699c12.61644,0 22.84408,3.43772 22.84408,7.67835c0,2.89606 -7.70547,2.39845 -14.74892,3.70634c-3.2701,0.60722 -4.09488,3.97202 -8.09515,3.97202c-2.97004,0 -17.54904,1.23522 -20.15205,0.88858c-8.45431,-1.12588 -2.69203,-5.32458 -2.69203,-8.56692c0,-2.86283 -0.87392,-4.52106 6.03682,-5.84136z" data-paper-data="{&quot;index&quot;:null}" fill="#7ec03c" stroke="none" stroke-width="0" stroke-linecap="butt"/><path d="M137.37645,240.68314c4.09446,-0.78225 15.64453,-2.26145 20.69083,-2.26145c15.53167,0 28.12256,4.23205 28.12256,9.45255c0,3.56525 -9.48593,2.95265 -18.15689,4.56274c-4.0257,0.74752 -5.04107,4.88981 -9.96566,4.88981c-3.65632,0 -21.60403,1.52064 -24.8085,1.09389c-10.40781,-1.38603 -3.31405,-6.5549 -3.31405,-10.54644c0,-3.52433 -1.07585,-5.56573 7.43172,-7.1911z" data-paper-data="{&quot;index&quot;:null}" fill="#7ec03c" stroke="none" stroke-width="0" stroke-linecap="butt"/><path d="M232.84692,27.79845c3.67527,-0.70216 14.04285,-2.02993 18.57252,-2.02993c13.94154,0 25.24338,3.79877 25.24338,8.48481c0,3.20023 -8.51477,2.65035 -16.298,4.0956c-3.61356,0.67099 -4.52496,4.3892 -8.94538,4.3892c-3.28198,0 -19.39221,1.36496 -22.26862,0.9819c-9.34226,-1.24413 -2.97477,-5.88382 -2.97477,-9.4667c0,-3.16352 -0.9657,-4.99591 6.67087,-6.45488z" data-paper-data="{&quot;index&quot;:null}" fill="#7ec03c" stroke="none" stroke-width="0" stroke-linecap="butt"/><path d="M61.00465,109.61545c3.18622,-0.60873 12.17423,-1.75981 16.10116,-1.75981c12.08639,0 21.88435,3.29329 21.88435,7.35577c0,2.77439 -7.38174,2.29769 -14.12929,3.55062c-3.13271,0.58171 -3.92284,3.80515 -7.75505,3.80515c-2.84526,0 -16.81177,1.18332 -19.30543,0.85124c-8.09913,-1.07859 -2.57892,-5.10089 -2.57892,-8.20701c0,-2.74255 -0.8372,-4.33112 5.7832,-5.59595z" data-paper-data="{&quot;index&quot;:null}" fill="#7ec03c" stroke="none" stroke-width="0" stroke-linecap="butt"/><path d="M401.68618,246.2818c4.16433,-0.79559 15.91148,-2.30005 21.0439,-2.30005c15.79669,0 28.60242,4.30427 28.60242,9.61384c0,3.62608 -9.6478,3.00303 -18.46671,4.64059c-4.0944,0.76027 -5.12708,4.97325 -10.1357,4.97325c-3.7187,0 -21.97265,1.54659 -25.23181,1.11257c-10.5854,-1.40969 -3.37061,-6.66676 -3.37061,-10.72641c0,-3.58447 -1.0942,-5.6607 7.55853,-7.3138z" data-paper-data="{&quot;index&quot;:null}" fill="#7ec03c" stroke="none" stroke-width="0" stroke-linecap="butt"/><path d="M207.89796,281.53119c3.67527,-0.70217 14.04285,-2.02993 18.57252,-2.02993c13.94154,0 25.24338,3.79878 25.24338,8.4848c0,3.20024 -8.51477,2.65036 -16.298,4.09561c-3.61355,0.67099 -4.52497,4.3892 -8.94538,4.3892c-3.28199,0 -19.3922,1.36496 -22.26862,0.9819c-9.34226,-1.24414 -2.97476,-5.88382 -2.97476,-9.46671c0,-3.16351 -0.96571,-4.99592 6.67086,-6.45488z" data-paper-data="{&quot;index&quot;:null}" fill="#7ec03c" stroke="none" stroke-width="0" stroke-linecap="butt"/><path d="M-11.8903,232.68224c4.93283,-0.94242 18.84789,-2.7245 24.92747,-2.7245c18.7119,0 33.8809,5.0986 33.8809,11.38805c0,4.29526 -11.42826,3.55723 -21.87468,5.497c-4.85,0.90058 -6.07327,5.89105 -12.00622,5.89105c-4.40498,0 -26.02764,1.83201 -29.88826,1.31788c-12.5389,-1.66984 -3.99264,-7.89708 -3.99264,-12.70593c0,-4.24597 -1.29614,-6.70537 8.95343,-8.66354z" data-paper-data="{&quot;index&quot;:null}" fill="#7ec03c" stroke="none" stroke-width="0" stroke-linecap="butt"/><path d="M102.88162,345.74862c3.95472,-0.75555 15.11064,-2.18428 19.98473,-2.18428c15.00162,0 27.16283,4.08763 27.16283,9.12997c0,3.44358 -9.1622,2.85188 -17.53726,4.40703c-3.88832,0.72201 -4.86903,4.72295 -9.62557,4.72295c-3.53154,0 -20.86675,1.46874 -23.96187,1.05656c-10.05263,-1.33873 -3.20096,-6.33121 -3.20096,-10.18653c0,-3.40406 -1.03914,-5.3758 7.1781,-6.94569z" data-paper-data="{&quot;index&quot;:null}" fill="#7ec03c" stroke="none" stroke-width="0" stroke-linecap="butt"/><path d="M393.41,315.29485c4.93283,-0.94242 18.84789,-2.7245 24.92747,-2.7245c18.71191,0 33.8809,5.09861 33.8809,11.38805c0,4.29526 -11.42827,3.55723 -21.87468,5.497c-4.85,0.90058 -6.07327,5.89105 -12.00622,5.89105c-4.40498,0 -26.02764,1.83201 -29.88826,1.31788c-12.5389,-1.66984 -3.99264,-7.89708 -3.99264,-12.70592c0,-4.24597 -1.29614,-6.70537 8.95343,-8.66355z" data-paper-data="{&quot;index&quot;:null}" fill="#7ec03c" stroke="none" stroke-width="0" stroke-linecap="butt"/><path d="M-10.35495,197.23572l-7.5809,-102.7206c0,0 125.3716,50.9106 197.8899,45.5587c93.1369,-6.8736 323.4009,34.2905 323.4009,34.2905l7.5809,102.7207c0,0 -191.166,-44.0496 -279.5203,-37.529c-82.0468,6.0551 -241.7705,-42.3203 -241.7705,-42.3203z" fill="#45b5e6" stroke="#b3e645" stroke-width="35" stroke-linecap="butt"/><path d="M-10.35496,197.23572l-7.58086,-102.72064c0,0 125.37156,50.91066 197.88987,45.55876c93.1369,-6.87357 323.40093,34.29051 323.40093,34.29051l7.58086,102.72064c0,0 -191.16599,-44.04954 -279.52027,-37.52893c-82.04677,6.05511 -241.77053,-42.32033 -241.77053,-42.32033z" fill="#45b5e6" stroke="none" stroke-width="0" stroke-linecap="butt"/><g data-paper-data="{&quot;index&quot;:null}" fill="none" stroke-linecap="round"><path d="M43.87496,187.02502l3.5,26" stroke="#2acc00" stroke-width="2.5"/><path d="M52.87496,188.27503l-1,25.25" stroke="#2acc00" stroke-width="2.5"/><path d="M64.12496,202.775l-5.5,12.75" stroke="#2acc00" stroke-width="2.5"/><path d="M41.87496,177.77503l2.25,12.5" stroke="#b38824" stroke-width="5"/><path d="M53.12496,187.02503l0.75,-14" stroke="#b38824" stroke-width="5"/><path d="M68.37496,192.77502l-4,8.75" stroke="#b38824" stroke-width="5"/></g><g data-paper-data="{&quot;index&quot;:null}" fill="none" stroke-linecap="round"><path d="M334.37505,245.025l-3.5,-26" stroke="#2acc00" stroke-width="2.5"/><path d="M338.87506,245.525l1,-25.25" stroke="#2acc00" stroke-width="2.5"/><path d="M345.62506,247.525l5.5,-12.75" stroke="#2acc00" stroke-width="2.5"/><path d="M331.12505,222.275l-2.25,-12.5" stroke="#b38824" stroke-width="5"/><path d="M340.12506,219.025l0.75,-14" stroke="#b38824" stroke-width="5"/><path d="M355.37506,224.775l-4,8.75" stroke="#b38824" stroke-width="5"/></g><path d="M96.60661,-56.48649v459.45946h-144.14414v-459.45946z" data-paper-data="{&quot;index&quot;:null}" fill="url(#color-1)" stroke="none" stroke-width="0" stroke-linecap="butt"/></g></g></svg>