<svg version="1.1" xmlns="http://www.w3.org/2000/svg" xmlns:xlink="http://www.w3.org/1999/xlink" width="720.00678" height="516.96096" viewBox="0,0,720.00678,516.96096"><defs><radialGradient cx="240" cy="180" r="91" gradientUnits="userSpaceOnUse" id="color-1"><stop offset="0" stop-color="#000000" stop-opacity="0"/><stop offset="1" stop-color="#000000"/></radialGradient><radialGradient cx="240" cy="180" r="107" gradientUnits="userSpaceOnUse" id="color-2"><stop offset="0" stop-color="#000000" stop-opacity="0"/><stop offset="1" stop-color="#000000"/></radialGradient></defs><g transform="translate(12.62955,51.0015)"><g data-paper-data="{&quot;isPaintingLayer&quot;:true}" fill-rule="nonzero" stroke-linecap="butt" stroke-linejoin="miter" stroke-miterlimit="10" stroke-dasharray="" stroke-dashoffset="0" style="mix-blend-mode: normal"><path d="M331,180c0,46.11578 -40.74209,83.5 -91,83.5c-50.25791,0 -91,-37.38422 -91,-83.5c0,-46.11578 40.74209,-83.5 91,-83.5c50.25791,0 91,37.38422 91,83.5z" fill="url(#color-1)" stroke="none" stroke-width="0"/><path d="M-12.20312,417.5v-369h163v369z" fill="#000000" stroke="none" stroke-width="0"/><path d="M-12.62955,96.9985v-148h592v148z" fill="#000000" stroke="none" stroke-width="0"/><path d="M332.37723,465.95946v-516h375v516z" fill="#000000" stroke="none" stroke-width="0"/><path d="M-12.20312,458.41411v-197.41561h497.86487v197.41561z" fill="#000000" stroke="none" stroke-width="0"/><path d="M382.29688,344.375c2.5,0 2.5,2.5 2.5,2.5v0.75c0,2.82281 -0.22266,5.75998 -0.00629,8.57277c0.24238,3.15091 1.46057,6.28694 0.98756,9.48269c-0.5737,3.87604 -2.21982,7.52157 -3.66008,11.12302c0,0 -0.92847,2.32119 -3.24966,1.39272c-2.32119,-0.92847 -1.39272,-3.24966 -1.39272,-3.24966c1.27578,-3.18872 2.78645,-6.453 3.33992,-9.87698c0.44038,-2.72433 -0.80589,-5.83216 -1.01244,-8.51731c-0.22539,-2.93007 -0.00629,-5.98642 -0.00629,-8.92723v-0.75c0,0 0,-2.5 2.5,-2.5z" fill="#000000" stroke="none" stroke-width="0.5"/><path d="M145.19629,374.0625c2.5,0 2.5,2.5 2.5,2.5l-0.08809,0.0922c1.0147,3.82511 1.77227,7.69835 -1.07447,11.10303c-0.71825,0.85902 -1.91556,1.16011 -2.87334,1.74017c0,0 -2.18539,1.21411 -3.3995,-0.97129c-1.2141,-2.1854 0.97128,-3.3995 0.97128,-3.3995c3.21515,-1.50184 2.40278,-4.14255 1.5522,-7.15681l-0.08809,-1.4078c0,0 0,-2.5 2.5,-2.5z" fill="#000000" stroke="none" stroke-width="0.5"/><path d="M246.95358,90.27003c0.0601,-0.05844 0.12312,-0.11389 0.18884,-0.16609c-0.3348,-0.08174 -0.6694,-0.16361 -1.00379,-0.24563l-3.48756,-0.85543c-1.11852,-0.2488 -1.95477,-1.24693 -1.95477,-2.44038c0,-1.38071 1.11929,-2.5 2.5,-2.5c0.07113,0 0.14156,0.00297 0.21119,0.0088l4.95982,0.36739l-0.00216,0.02919c0.05951,-0.00369 0.11908,-0.00696 0.17871,-0.00978c1.72391,-0.08156 3.37253,0.73485 5.05847,1.10379c0.91407,0.20003 1.82333,0.39964 2.72886,0.60175c-0.05885,-0.2127 -0.09031,-0.43679 -0.09031,-0.66823c0,-0.09244 0.00502,-0.18372 0.01479,-0.27356c-0.45798,-0.16452 -0.91619,-0.32862 -1.37464,-0.49235l-0.01367,-0.01114l-0.002,0.00537l-3.4866,-1.29796c-0.97925,-0.33869 -1.68248,-1.26886 -1.68248,-2.36328c0,-1.38071 1.11929,-2.5 2.5,-2.5c0.05669,0 0.11294,0.00189 0.16869,0.0056l0.42897,0.02523c0.34483,-0.17942 0.73675,-0.28083 1.15234,-0.28083c0.29767,0 0.58321,0.05203 0.84798,0.14749l0.9112,0.30461l0.88763,0.05222l-0.00265,0.045c0.10107,-0.00472 0.20236,-0.00771 0.30388,-0.00884c1.76751,-0.01977 3.38018,1.03553 5.06892,1.55772c4.81957,1.49031 9.54011,3.18687 14.28955,4.88487c3.58171,1.28051 7.18487,2.53099 10.77661,3.81768c-0.23971,-0.26165 -0.47918,-0.52349 -0.71841,-0.78554c-5.31926,-3.25428 -10.66272,-6.4949 -15.54529,-10.22367l-0.21531,0.43061l-4.4237,-2.21184c-0.84562,-0.40086 -1.43041,-1.26228 -1.43041,-2.26029c0,-1.38071 1.11929,-2.5 2.5,-2.5c0.29807,0 0.58397,0.05217 0.84905,0.14787l3.20254,1.07224l-0.01611,0.04812l0.13299,-0.00573c1.39601,0.6281 2.74804,1.28696 4.06207,1.97753c-0.10273,-0.27346 -0.15892,-0.5697 -0.15892,-0.87905c0,-1.38071 1.11929,-2.5 2.5,-2.5c0.52747,0 1.0168,0.16336 1.42013,0.44224l1.15778,0.77614c0.43362,-0.36173 0.99163,-0.57937 1.60047,-0.57937c0.71112,0 1.3529,0.29691 1.80813,0.77353l3.45637,3.60665c0.76378,0.51171 1.89825,1.85159 2.9511,3.21217c1.80043,1.66184 3.50344,3.39865 4.99972,4.79646c0.12318,0.11508 0.2462,0.23033 0.36905,0.34576c-0.96398,-1.64669 -1.92706,-3.29423 -2.88968,-4.94245l-0.01457,-0.06399l-0.01536,0.00796l-2.2773,-4.39641c-0.19295,-0.3546 -0.30257,-0.76109 -0.30257,-1.1932c0,-1.38071 1.11929,-2.5 2.5,-2.5c0.57542,0 1.10544,0.19441 1.52795,0.52112l3.9678,3.00194c3.51342,1.77588 6.58422,5.50337 9.13515,9.02379l4.60143,1.80056l-0.01934,0.04942c0.13851,0.04532 0.2762,0.09392 0.41298,0.1461c0.36579,0.13956 0.70112,0.32988 1.01581,0.55457l-1.28208,-3.07699c-0.13745,-0.30969 -0.21381,-0.6525 -0.21381,-1.01314c0,-1.38071 1.11929,-2.5 2.5,-2.5c0.87701,0 1.64854,0.45159 2.09476,1.13492l2.77197,4.11553l-0.0145,0.00977c0.02359,0.02564 0.04708,0.05137 0.07049,0.0772c0.90714,1.00111 1.62522,2.14068 2.26192,3.33813c0.40735,-0.28794 0.90463,-0.45713 1.44142,-0.45713c0.06638,0 0.13216,0.00258 0.19723,0.00767c-1.49665,-2.90762 -3.05896,-5.7847 -4.71352,-8.62025c0,0 -1.25968,-2.15945 0.89977,-3.41913c2.15945,-1.25968 3.41913,0.89977 3.41913,0.89977c1.69833,2.91227 3.30648,5.86836 4.84882,8.85664c0.23766,-0.07498 0.49064,-0.11541 0.75308,-0.11541c1.23666,0 2.2636,0.89791 2.46443,2.07735l0.92037,4.84345c0.58826,1.47044 1.05727,3.03655 1.44526,4.65865c2.93489,6.32876 5.71916,12.73261 8.57029,19.1076c0.86837,1.94164 1.69485,3.9311 2.41786,5.95484c1.0917,1.30121 2.18567,2.60075 3.28199,3.8986c2.56374,3.03503 7.62025,7.50862 9.18623,11.1484c0.68056,1.58182 1.99624,4.02496 0.66931,5.12249c-0.80263,0.66387 -1.8284,0.92039 -2.92138,0.94604c-0.11509,1.27393 -1.18585,2.27217 -2.48976,2.27217c-0.11273,0 -0.22371,-0.00746 -0.33248,-0.02192l-4.26814,-0.50665l0.00522,-0.04397c-0.17325,-0.01815 -0.34624,-0.04221 -0.51894,-0.07292c-1.66065,-0.29523 -2.94893,-1.60519 -4.37039,-2.54595c0.11534,0.28754 0.17881,0.60149 0.17881,0.93026c0,1.38071 -1.11929,2.5 -2.5,2.5c-0.41683,0 -0.80982,-0.10201 -1.15539,-0.28243c0.28592,3.05795 0.52011,6.11869 0.7014,9.17726c2.30145,3.00903 4.39961,6.13191 5.62025,9.7135l0.5352,2.65138c0,0 0.49029,2.45145 -1.96116,2.94174c-2.45145,0.49029 -2.94174,-1.96116 -2.94174,-1.96116l-0.4648,-2.34862c-0.25637,-0.79411 -0.57523,-1.56853 -0.94361,-2.32639c-0.37731,0.45371 -0.91215,0.77178 -1.52057,0.87027c0.27892,4.5727 0.5021,9.14328 0.59088,13.72208l0.05899,0.44363c0.03884,0.02137 0.07797,0.04385 0.11738,0.0675c2.14373,1.28624 0.85749,3.42997 0.85749,3.42997c-0.58451,0.89069 -0.93306,1.8128 -1.17181,2.76372l-0.07457,1.49125c-0.00241,0.05557 -0.00662,0.11066 -0.0126,0.16523c1.61281,-2.37588 3.29846,-4.71753 5.07082,-7.02252l0.0505,-0.03354l-0.01342,-0.01135l3.21806,-3.80376c0.45859,-0.54925 1.14846,-0.89872 1.91995,-0.89872c0.73593,0 1.39759,0.31799 1.85507,0.82406c0.42025,-0.32037 0.94503,-0.51061 1.51426,-0.51061c1.38071,0 2.5,1.11929 2.5,2.5c0,0.32061 -0.06035,0.62712 -0.17031,0.90879l-0.57891,1.592c0.31349,0.4177 0.49922,0.93676 0.49922,1.4992c0,0.24775 -0.03604,0.48708 -0.10316,0.71304l-0.73494,2.69475l-0.04615,-0.01259c-0.01202,0.09267 -0.02607,0.18524 -0.04234,0.27769c-0.66922,3.80445 -5.06607,8.14226 -7.34186,11.10137l-1.02939,1.28746c0,0 -0.89647,1.12059 -2.18,0.98455c-0.39693,0.60731 -0.79198,1.21619 -1.18404,1.82747c-1.91105,2.97959 -3.81078,5.97772 -5.68938,8.994c2.62926,-3.56817 5.27932,-7.12287 7.91262,-10.69627l5.78817,-2.84282c-0.6968,1.936 -1.26079,3.9266 -2.00432,5.84339l0.09342,0.15644c-0.11446,0.15611 -0.22899,0.31216 -0.3436,0.46814c-0.13094,0.31621 -0.26781,0.62999 -0.41203,0.94074c-1.14843,2.47442 -3.31439,4.33378 -4.96321,6.50703c-0.317,0.41781 -0.63434,0.83632 -0.95155,1.25564c0.79629,0.00569 1.50406,0.38365 1.95795,0.96851c0.31248,-0.14044 0.65902,-0.21857 1.02381,-0.21857c0.05373,0 0.10707,0.00169 0.15996,0.00503l3.31984,-2.48988c0.42124,-0.32311 0.94829,-0.51515 1.5202,-0.51515c1.38071,0 2.5,1.11929 2.5,2.5c0,0.36479 -0.07813,0.71133 -0.21857,1.02381c0.58931,0.45735 0.96857,1.17248 0.96857,1.97619c0,0.50548 -0.15001,0.97592 -0.40796,1.36923c0.01372,0.01153 0.02732,0.02321 0.04079,0.03503c1.45974,-0.63891 3.09545,-1.23678 4.19303,-0.34504c1.40074,1.13805 0.72708,3.67487 0.22883,5.40951c-0.99617,3.46812 -4.90398,7.35905 -7.80497,10.49299c0.00019,0.01274 0.00029,0.0255 0.00029,0.03829c0,0.38813 -0.08845,0.7556 -0.24629,1.08336l-1.2278,2.70114l-0.05614,-0.02551c-0.04291,0.12914 -0.09061,0.25709 -0.14363,0.38371c-0.69641,1.66303 -2.45102,2.64484 -3.68247,3.96171c-0.87097,0.93139 -1.73879,1.86585 -2.60202,2.80451c0.12599,-0.01955 0.25509,-0.02971 0.38656,-0.02971c1.26284,0 2.30698,0.93634 2.47606,2.15263c0.79973,0.41701 1.34573,1.25382 1.34573,2.21815c0,0.57826 -0.19632,1.11065 -0.52595,1.53418l-3.01568,3.95809l-0.00826,-0.00629c-0.00904,0.01728 -0.01812,0.03454 -0.02724,0.05179c-0.00642,0.01216 -4.44122,5.30211 -5.93836,7.08949c-1.46836,2.35715 -2.98829,4.67417 -4.63708,6.86119c-1.26,1.67131 -2.08721,4.09664 -4.06296,4.7875c-0.08913,0.03117 -0.18063,0.06101 -0.27422,0.08945c-0.17883,0.24177 -0.35762,0.4835 -0.5364,0.72517l-0.09139,0.06043l0.02327,0.02045l-3.26902,3.71886c-0.15495,0.17808 -0.3347,0.33401 -0.53387,0.46242l-1.77469,2.66203c-0.44513,0.68926 -1.2201,1.14551 -2.10163,1.14551c-1.38071,0 -2.5,-1.11929 -2.5,-2.5c0,-0.52533 0.16203,-1.0128 0.43884,-1.41519l2.66632,-3.99949l0.65985,-1.75962c-0.08333,0.12679 -0.16656,0.25367 -0.24971,0.38061c-0.28249,0.54185 -0.58969,1.06173 -0.98093,1.50821c-0.2062,0.31928 -0.41179,0.63906 -0.61676,0.95935l-0.02535,0.01904l0.00876,0.0059l-2.53354,3.7572c-0.44633,0.68266 -1.21748,1.13374 -2.09398,1.13374c-0.24598,0 -0.48365,-0.03553 -0.70819,-0.10172c-0.44741,0.42088 -1.04991,0.67877 -1.71264,0.67877c-1.00163,0 -1.86568,-0.58904 -2.26463,-1.43962c-0.30629,0.41471 -0.61288,0.82922 -0.91979,1.24352l-0.17442,0.08938l0.04744,0.04744l-2.25,2.25l-0.77272,-0.77272l-1.98352,1.01648l0.00624,0.00624l-2.75,2.75l-0.8594,-0.8594l-2.2227,1.21825c0.00653,-0.08711 0.01262,-0.17428 0.0183,-0.26152c-0.38547,0.54266 -0.77199,1.08459 -1.15964,1.62568l-0.39035,0.1312l0.09601,0.12801l-1.9798,1.48485c-0.42124,0.32311 -0.94829,0.51515 -1.5202,0.51515c-1.38071,0 -2.5,-1.11929 -2.5,-2.5c0,-0.31379 0.05782,-0.61407 0.16336,-0.89078l1.65262,-4.65738c0.36642,-2.02531 1.75161,-4.45012 2.87519,-6.38802c-0.07227,-0.94056 0.23194,-1.94777 0.63995,-2.95529c-0.0963,0.03393 -0.1953,0.06214 -0.2966,0.0842c-0.36277,0.46011 -0.72611,0.91972 -1.09016,1.37872l-0.01987,0.01344l0.00533,0.00439l-3.16565,3.844c-0.45835,0.56516 -1.15835,0.92638 -1.94271,0.92638c-0.26079,0 -0.51226,-0.03993 -0.74862,-0.11401c-2.41134,3.9017 -4.78529,7.8298 -7.13245,11.77937c-3.48543,5.76531 -6.4316,10.82795 -8.26881,17.349l0.07828,0.9018c0,0 -0.0258,2.49986 -2.52567,2.47406c-2.49986,-0.0258 -2.47406,-2.52567 -2.47406,-2.52567l0.11041,-2.21173c1.11437,-3.92131 2.59106,-7.37587 4.33394,-10.74598c-0.39471,0.06108 -0.85753,0.01634 -1.3936,-0.20365c-2.31283,-0.94912 -1.36371,-3.26195 -1.36371,-3.26195l0.95192,-2.26027c4.67777,-8.0962 10.1263,-15.60092 16.00181,-22.78298c-0.78267,0.4968 -1.5661,0.99306 -2.35075,1.48777c-0.0193,0.0193 -0.03861,0.03861 -0.05791,0.05791c-6.72599,6.72637 -13.57909,13.62195 -18.31162,21.93705l-0.68454,1.37769c0,0 -1.11804,2.23607 -3.35411,1.11803c-2.23607,-1.11804 -1.11803,-3.35411 -1.11803,-3.35411l0.81546,-1.62231c0.53307,-0.92948 1.08991,-1.84226 1.66798,-2.73991c-0.20133,-1.06892 0.49332,-2.00725 0.49332,-2.00725l1.26689,-1.71116c0.79469,-1.09305 1.59835,-2.17517 2.4109,-3.24711l-0.8779,0.31747c0,0 -2.37171,0.79057 -3.16228,-1.58114c-0.09742,-0.29226 -0.14682,-0.56051 -0.15855,-0.80623c-1.16649,0.60885 -2.33185,1.24252 -3.49769,1.90605l-3.7013,2.84389c0,0 -1.95763,1.50033 -3.47423,-0.4239c-1.27695,1.02035 -2.54001,2.0495 -3.78911,3.08041l-2.16627,1.78751c0,0 -1.92828,1.59114 -3.51942,-0.33715c-0.56617,-0.68614 -0.68674,-1.32959 -0.60713,-1.87385c-0.18166,0.118 -0.3631,0.23593 -0.54433,0.35377l-0.80778,0.52506c0,0 -2.09611,1.36247 -3.45858,-0.73364c-0.32429,-0.49891 -0.45264,-0.95626 -0.45996,-1.36356l-1.63362,0.76511c0,0 -1.54498,0.72357 -2.6801,-0.30102c-0.74765,0.12448 -2.04048,0.07365 -2.69248,-1.51253c-0.0488,-0.11873 -0.08901,-0.23387 -0.12136,-0.34548c-1.0575,0.64806 -2.10752,1.30145 -3.15034,1.95533l-2.91602,2.18969c0,0 -2,1.5 -3.5,-0.5c-1.5,-2 0.5,-3.5 0.5,-3.5l3.08398,-2.31031c9.34906,-5.88041 18.80637,-10.76581 29.3984,-13.93448c3.67095,-1.09819 7.74611,-1.46209 11.60681,-2.20805c3.17298,-1.20301 6.38802,-2.28717 9.6679,-3.1858c2.22389,-1.21974 4.45887,-2.41966 6.70289,-3.60263c3.69164,-1.9461 7.25925,-3.93705 11.07627,-5.26459c5.28187,-5.03239 10.95343,-9.69624 17.21935,-13.35804c0.96724,-1.32808 1.93347,-2.65332 2.89435,-3.97747c3.4361,-4.73517 6.62618,-9.55878 10.25182,-14.02736c0.57192,-1.66124 1.15203,-3.3193 1.74411,-4.97276c1.15256,-3.21868 2.2878,-6.39465 3.60142,-9.48181c0.6871,-3.49568 1.38538,-7.11322 2.77441,-10.29705c0.52196,-2.64846 1.10304,-5.25794 1.51205,-7.9401l-0.15903,-0.20765l0.03679,-0.02818c-0.11813,-0.1552 -0.23101,-0.31494 -0.33798,-0.47979c-1.39798,-2.15434 -1.11596,-8.49216 -1.12661,-10.92273c-0.01255,-2.86385 -0.09398,-5.72571 -0.0908,-8.57804c-0.5288,-0.7316 -0.46096,-1.64453 -0.42263,-1.93369c-0.85429,-2.70928 -1.76385,-5.39918 -2.74472,-8.06562c-0.85149,-1.25343 -1.70995,-2.48668 -2.29575,-3.70989c-0.82162,-1.71562 -1.27328,-3.62875 -2.33516,-5.20698c-1.36178,-2.02397 -3.17432,-3.72231 -4.50918,-5.76413c-3.5177,-5.38069 -6.93575,-10.58005 -10.7726,-15.58112c-0.2518,-0.21398 -0.50626,-0.42556 -0.76353,-0.6346c-7.60069,-6.96398 -15.92212,-12.38448 -25.02949,-17.17838c-0.06637,-0.03494 -0.1327,-0.06989 -0.19895,-0.10485c-2.37606,-1.05487 -4.67349,-2.04672 -7.28136,-2.69148c-4.26608,-1.21888 -8.56712,-2.26338 -12.72998,-3.82366c-0.96846,-0.36298 -1.91282,-0.74512 -2.85197,-1.12248c-0.76448,0.0186 -1.52256,0.03122 -2.27139,0.03122h-3.5c-0.9701,0 -1.81115,-0.55254 -2.22559,-1.36009l-1.49567,-0.14956c-1.00057,-0.08774 -1.83208,-0.76491 -2.14524,-1.68221c-4.4252,-0.67118 -8.81396,-0.99586 -13.28938,-1.34534c-0.32677,0.17264 -0.67032,0.33189 -1.02782,0.47957c-0.28819,0.70764 -0.89124,1.25355 -1.63517,1.46373l-0.04943,0.01521c-0.32964,0.67604 -0.95521,1.18129 -1.7081,1.34716l-4.80841,1.1687l-0.00242,-0.00993c-0.01776,0.00763 -0.03553,0.01524 -0.05333,0.0228c-1.55127,0.65975 -3.30899,0.64608 -4.96351,0.96896c-0.84035,0.16399 -1.67437,0.32823 -2.50408,0.49467c-1.15035,0.29109 -2.30237,0.57564 -3.45696,0.85019c-0.80803,0.19214 -1.60824,0.52833 -2.41211,0.7974l-3.22623,1.8558l-0.01291,-0.02245c-0.04075,0.03207 -0.08181,0.06382 -0.12318,0.09523c-1.38439,1.05124 -3.18724,1.39041 -4.80462,2.02737c-1.22066,0.48073 -2.44443,0.95355 -3.66956,1.42302c-2.58203,1.24858 -5.15577,2.51253 -7.72615,3.785c-1.97827,1.45787 -7.07673,5.21412 -7.18563,5.29364c-0.82237,0.60052 -1.64418,1.20162 -2.46544,1.80332c-0.14959,0.31462 -0.36298,0.59304 -0.62343,0.81855l-1.98936,1.74069l-0.03503,-0.04004l-0.05259,0.11325c-1.651,1.19813 -3.26975,2.43161 -4.87846,3.67714c-0.52597,1.43283 -1.62579,2.64521 -2.376,3.9915c-1.4247,2.5567 -2.81905,5.13041 -4.19216,7.71517c-4.2368,7.97542 -8.3421,15.98686 -13.73204,23.23833c-0.39731,1.77546 -0.81315,3.54212 -1.23891,5.30442c-1.04086,5.315 -2.17751,10.61737 -3.38885,15.89165l-0.54275,2.67797c-0.12629,0.69344 -0.53865,1.28711 -1.11033,1.65426c-0.23121,0.38727 -0.60276,0.81607 -1.17587,1.0294c-0.04002,0.1423 -0.08028,0.28456 -0.12079,0.42676c0.54581,0.12312 1.02398,0.42477 1.36991,0.84037l0.08729,-0.87288c0.11199,-1.27707 1.18419,-2.27874 2.49034,-2.27874c1.38071,0 2.5,1.11929 2.5,2.5v1.61445c0.8767,0.27535 1.54529,1.02066 1.71053,1.94067l0.49092,2.45459l-0.07564,0.01513l0.108,0.19116c0.1333,4.06085 0.33471,8.12798 0.61919,12.19205c1.01112,2.3825 1.62195,4.77906 2.52578,7.57294c0.49865,1.5414 1.01379,3.0923 1.5478,4.64371c0.8734,1.22222 1.73049,2.45148 2.5952,3.65478c0.90177,1.25489 1.7881,2.51931 2.66171,3.79167c0.6903,0.23679 1.14414,0.72305 1.14414,0.72305c1.83503,1.97437 3.38941,4.06193 4.83452,6.20882c2.98934,3.29336 5.89394,6.66037 8.76962,10.05291c0.46063,0.39417 0.91983,0.78997 1.37774,1.18725c0.34298,0.16866 0.55535,0.34835 0.55535,0.34835c4.3082,3.65007 8.90965,6.22452 13.57571,9.07291c0.89508,0.15416 1.78787,0.42118 2.68603,0.85378c0.09819,0.04729 0.19572,0.09595 0.29263,0.14589c0.80131,0.2073 1.58935,0.44914 2.33794,0.79712c0.86035,0.04635 1.52769,0.56538 1.52769,0.56538c2.74752,2.17596 5.76276,2.88737 8.88536,4.0499c7.0101,1.0072 13.91197,4.03433 21.05613,4.68374l1.39169,0.50367c0,0 2.23606,1.11804 1.11803,3.35411c-1.11803,2.23607 -3.3541,1.11803 -3.3541,1.11803l0.39169,0.00367c-1.07579,-0.09781 -2.1334,-0.21698 -3.17931,-0.35731c-0.29858,0.87768 -0.8623,1.29139 -1.41768,1.4756c-0.52308,2.27907 -2.87389,1.85165 -2.87389,1.85165l-2.9559,-0.54649c-1.36804,-0.49415 -2.7241,-0.93728 -4.06784,-1.36933c-1.21355,1.34108 -2.95551,0.41203 -2.95551,0.41203l-1.5945,-0.8526c-0.09758,0.3495 -0.29642,0.71803 -0.64202,1.09242c-0.07635,0.08271 -0.15299,0.15826 -0.22973,0.22713c0.47684,0.31272 0.95453,0.62428 1.43245,0.93554l2.17437,1.20624c0,0 2.18539,1.21411 0.97128,3.3995c-1.2141,2.1854 -3.3995,0.97129 -3.3995,0.97129l-2.31062,-1.28542c-0.04462,0.07999 -0.09434,0.16108 -0.14949,0.24325c-0.31982,0.4765 -0.6756,0.77021 -1.034,0.93993c1.58244,1.95108 3.15202,3.92424 4.71088,5.9204l0.01683,0.05394l0.01484,-0.0106l2.48309,3.47633c0.3034,0.41378 0.48257,0.92435 0.48257,1.47677c0,1.17007 -0.80381,2.15239 -1.88936,2.42489c0.09028,0.25832 0.13936,0.53598 0.13936,0.82511c0,1.38071 -1.11929,2.5 -2.5,2.5c-0.59071,0 -1.13358,-0.20487 -1.56141,-0.54744l-3.48315,-2.73676l0.01011,-0.01286l-0.04768,-0.01726c-3.06544,-2.60485 -6.12355,-5.2219 -9.19366,-7.82524c-0.17471,1.20992 -1.21589,2.13957 -2.47421,2.13957c-0.64409,0 -1.2313,-0.24358 -1.67453,-0.64364l-2.94604,-2.63594l-0.91126,-0.42872c-0.45766,0.58344 -1.16914,0.9583 -1.96817,0.9583c-0.59805,0 -1.14705,-0.20999 -1.57729,-0.56027l-2.82656,-2.26125c-0.19105,0.04674 -0.3907,0.07152 -0.59615,0.07152c-0.62103,0 -1.18918,-0.22645 -1.62636,-0.60127l-2.49084,-2.10763c0.47907,2.11507 0.89175,4.23644 1.22856,6.3696c0.24609,0.38715 0.38864,0.84658 0.38864,1.33931c0,0.23542 -0.03254,0.46324 -0.09337,0.67921c0.34758,2.58318 0.58037,5.18604 0.68175,7.81818c0.10155,2.63651 0.83671,6.36329 -2.27406,8.12923c-1.44783,0.82191 -3.32931,0.05171 -4.99397,0.07756c-2.90884,-3.92946 -5.00712,-8.17003 -7.46323,-12.29553c-1.01111,0.05554 -2.32138,-0.1274 -3.96449,-0.56027c-1.06197,-0.27977 -1.9773,-0.90568 -2.83792,-1.62806c-0.37886,0.89877 -1.2681,1.52967 -2.30471,1.52967c-0.0183,0 -0.03656,-0.0002 -0.05478,-0.00059c-0.06387,1.04596 -0.14424,2.09229 -0.24184,3.13978c1.62563,3.77269 3.48726,7.4488 5.12651,11.2348l1.46437,3.38286c0,0 0.99315,2.29427 -1.30112,3.28742c-2.29427,0.99315 -3.28742,-1.30112 -3.28742,-1.30112l-1.46437,-3.38286c-0.56829,-1.31311 -1.16025,-2.61284 -1.75903,-3.90753l-1.03939,4.33083c-0.24444,1.12435 -1.24535,1.96643 -2.44294,1.96643c-1.04459,0 -1.93953,-0.64065 -2.31337,-1.55048l-1.72703,-3.94748l0.04796,-0.02098l-0.11595,-0.15162c-3.68168,-13.54455 -6.50805,-27.537 -7.87455,-41.53292c-2.05575,-4.82373 -3.66026,-9.85561 -4.87673,-14.98876c-0.86676,-2.05811 -1.63369,-4.16892 -2.28489,-6.3394c0,0 -0.45704,-1.52348 0.57316,-2.50463c-0.67246,-4.40902 -1.09313,-8.84694 -1.30025,-13.24913c-6.8723,-4.63538 -13.77169,-9.2234 -20.70659,-13.76836l-0.54212,-0.35529c0,0 -2.09096,-1.37036 -0.7206,-3.46132c1.37037,-2.09096 3.46133,-0.72059 3.46133,-0.72059l0.54212,0.35529c3.33113,2.18314 6.65415,4.37609 9.96986,6.57951c0.0392,-0.0333 0.07943,-0.0654 0.12064,-0.09626l-1.3803,-0.91119c0,0 -2.08639,-1.37731 -0.70908,-3.4637c1.37731,-2.08639 3.4637,-0.70908 3.4637,-0.70908l1.60388,1.05878c1.48959,0.98334 2.96791,1.97682 4.43626,2.98072c0.00504,-0.08938 0.01049,-0.17844 0.01636,-0.26713c-0.60245,-3.38414 -1.08074,-6.78292 -1.42139,-10.18722c0,0 -0.24876,-2.48759 2.23883,-2.73636c2.48759,-0.24876 2.73635,2.23883 2.73635,2.23883c0.06984,0.69883 0.14571,1.39744 0.22749,2.09573c0.13103,-0.03647 0.26746,-0.05985 0.40964,-0.06864c0.81606,-0.05044 1.5861,0.2424 2.29127,0.72239c-0.45621,-2.7313 -0.87051,-5.46922 -1.20533,-8.21569l-0.95219,-1.928l0.04547,-0.02246c-0.09011,-0.16565 -0.1702,-0.33734 -0.23846,-0.51617c-0.46731,-1.22418 -0.20712,-4.53699 0.10003,-7.27542c-0.02647,-0.51224 -0.0099,-1.02201 0.08454,-1.5273c0.01004,-0.05375 0.02052,-0.10738 0.03142,-0.1609l-0.02715,-0.0016l0.01753,-0.29805l-0.0749,0.13792c0,0 -1.19308,2.19694 -3.39003,1.00387c-0.26913,-0.14615 -0.48738,-0.30737 -0.6632,-0.47777c-0.12826,0.02029 -0.25976,0.03082 -0.39372,0.03082c-1.38071,0 -2.5,-1.11929 -2.5,-2.5c0,-0.13119 0.0101,-0.26003 0.02958,-0.38577l0.68203,-4.91061c-0.16885,-3.15419 1.36627,-6.42795 2.37977,-9.25485c1.39452,-3.88968 2.76891,-7.58033 4.43734,-11.31887c-0.81258,0.80178 -1.68656,1.51912 -2.69151,2.05162c-0.05738,0.03041 -0.1151,0.05991 -0.17317,0.08855l0.01961,0.02802l-1.4575,1.02025c-0.40462,0.40016 -0.80853,0.80103 -1.21165,1.20269l-1.49674,1.49675c0,0 -0.86021,0.8602 -1.98056,0.78045c-0.4524,0.43401 -0.90462,0.86822 -1.35665,1.30265l-0.06749,0.03105l0.01391,0.01623l-3.48942,2.99093c-0.43867,0.38059 -1.01121,0.61093 -1.63756,0.61093c-1.38071,0 -2.5,-1.11929 -2.5,-2.5c0,-0.43974 0.11353,-0.85297 0.31289,-1.21196l2.22763,-4.20776l0.04117,0.0218c0.0467,-0.10815 0.09542,-0.2156 0.1463,-0.32228c0.51307,-1.07578 1.44296,-1.86344 2.37339,-2.65036c-0.17464,-0.15331 -0.32773,-0.33059 -0.45414,-0.52668c-0.24748,-0.15955 -0.46499,-0.36158 -0.6422,-0.59581c-0.37147,0.21874 -0.80443,0.3442 -1.2667,0.3442c-1.22252,0 -2.24009,-0.8775 -2.45721,-2.037l-0.42412,0.351c-0.43454,0.36501 -0.9951,0.58486 -1.60702,0.58486c-0.29042,0 -0.56927,-0.04952 -0.82858,-0.14058l-2.01605,1.76405c-0.44092,0.38989 -1.02051,0.62653 -1.65537,0.62653c-1.38071,0 -2.5,-1.11929 -2.5,-2.5c0,-0.66784 0.26187,-1.27452 0.68851,-1.72295l3.43533,-3.62617l0.00927,0.00878c0.01311,-0.01963 0.02627,-0.03924 0.03948,-0.05881c0.0007,-0.00104 0.32848,-0.3107 0.84498,-0.79842c-0.47313,-0.45487 -0.76757,-1.09426 -0.76757,-1.80242c0,-0.72183 0.30592,-1.37221 0.79518,-1.82856l1.32601,-1.24314c0.06118,-0.61997 0.34885,-1.17339 0.77911,-1.57641l0.9858,-0.92781c-1.0839,-0.27364 -1.88611,-1.25518 -1.88611,-2.42407c0,-0.56757 0.18913,-1.09096 0.50781,-1.51059l2.96367,-3.99451c0.25548,-0.52068 0.54233,-1.03483 0.85587,-1.54272c0.04183,-0.37649 0.16727,-0.72774 0.35732,-1.03479l2.53512,-4.26132c2.47198,-6.0761 8.63876,-11.02815 12.98455,-15.77419c1.4589,-1.59328 2.96606,-3.15058 4.51709,-4.67041c-0.29665,-0.41103 -0.47144,-0.91584 -0.47144,-1.46147c0,-0.60723 0.21649,-1.16389 0.5765,-1.59702l2.23861,-2.73607l0.1796,0.14695l0.26245,-0.5692c1.17711,-0.51745 2.3542,-1.03489 3.53131,-1.55234c0,0 1.2202,-0.50842 2.25575,0.10141c2.22093,-1.81574 4.50424,-3.56234 6.84007,-5.2364c0.07639,-0.06523 0.1524,-0.13062 0.22799,-0.1962l0.00051,-0.00023l-0.0001,-0.00012l3.7402,-3.24151c0.43989,-0.38556 1.01622,-0.61926 1.64713,-0.61926c0.1128,0 0.22385,0.00747 0.33269,0.02195c5.91783,-3.79746 12.1012,-7.14285 18.40514,-9.98615l0.17469,-0.00854l-0.01349,-0.04538l2.75567,-0.81877c1.09984,-0.58584 2.20626,-1.15635 3.31917,-1.7108l4.4313,-2.20482c0.34641,-0.18154 0.74064,-0.28423 1.15886,-0.28423c1.38071,0 2.5,1.11929 2.5,2.5c0,0.66663 -0.26092,1.27232 -0.68621,1.72052l-3.4299,3.63096c-0.39776,0.58598 -0.83396,1.12993 -1.2994,1.64177c1.11805,-0.66353 2.23651,-1.32218 3.35494,-1.976l0.08014,-0.01414l-0.0111,-0.02202l4.42023,-2.22811c0.34906,-0.18518 0.74724,-0.29007 1.16992,-0.29007c0.58147,0 1.11656,0.19852 1.54123,0.53146c0.66798,-0.32667 1.33597,-0.65336 2.00395,-0.98004l0.06423,-0.00943l-0.00687,-0.01602l4.54493,-1.94782c0.31554,-0.14379 0.66621,-0.22391 1.0356,-0.22391c0.51123,0 0.98662,0.15345 1.38262,0.4168l1.87521,-0.91943c0.3434,-0.17752 0.73322,-0.27778 1.14645,-0.27778c1.14146,0 2.10424,0.76499 2.40364,1.81025c0.99591,0.32932 1.71453,1.2678 1.71453,2.37412c0,0.21772 -0.02783,0.42893 -0.08013,0.63029c0.2175,-0.08088 0.43512,-0.16153 0.65288,-0.24197l0.1429,0.01662l-0.01336,-0.05302l2.76398,-0.69673c0.21191,-0.05838 0.43509,-0.08956 0.66556,-0.08956c1.38071,0 2.5,1.11929 2.5,2.5c0,0.70482 -0.29167,1.34153 -0.76091,1.79599l1.14602,-0.39235c0.26952,-0.09938 0.56087,-0.15364 0.86489,-0.15364c1.38071,0 2.5,1.11929 2.5,2.5c0,0.65414 -0.25124,1.24961 -0.66248,1.69516l-1.13801,1.24147c0.32004,0.1315 0.60678,0.32748 0.84404,0.57177c0.06808,-0.00557 0.13693,-0.0084 0.20645,-0.0084c0.6077,0 1.16475,0.21683 1.59802,0.57733c0.57855,-0.21547 1.15623,-0.43314 1.73191,-0.65583c0.32837,-0.14011 0.65689,-0.27985 0.98558,-0.4192c1.20102,-0.59394 2.35324,-1.44067 3.64417,-1.53838l3.22777,-1.37244c0.3139,-0.14199 0.66235,-0.22103 1.02927,-0.22103c1.38071,0 2.5,1.11929 2.5,2.5c0,1.02392 -0.61556,1.90407 -1.4968,2.29057l-1.75233,0.81485c0.39369,0.28594 0.70073,0.68394 0.87427,1.14715c3.14714,0.26798 6.27301,0.5872 9.41543,1.08451zM170.79132,269.30832c-0.93739,-0.82567 -1.87203,-1.65449 -2.80429,-2.48597c1.38781,2.1377 2.83221,4.23971 4.32952,6.30221c-0.25523,-0.99707 -0.51609,-1.99311 -0.77814,-2.98915c-0.25128,-0.27352 -0.50026,-0.54995 -0.74708,-0.82709zM169.26244,277.43436c-0.82104,-0.90668 -1.65336,-1.80274 -2.4927,-2.69234c0.2505,1.79216 0.47817,3.58769 0.70273,5.37901l-0.00188,0.01043l0.00308,-0.00036l0.16649,1.42156c0.04151,0.12736 0.08118,0.25287 0.119,0.3765c2.92284,4.39975 5.09273,9.01824 7.61678,13.67917c0.02124,0.27333 0.13135,-0.53893 0.12444,-0.813c-0.02318,-0.9194 -0.15781,-1.83286 -0.2102,-2.75106c-0.09222,-1.61636 -0.0553,-3.24161 -0.22358,-4.85183c-0.10369,-0.99215 -0.23172,-1.9789 -0.38013,-2.96119l-2.65033,-3.0688l0.01307,-0.01129c-0.02489,-0.02078 -0.04971,-0.04164 -0.07445,-0.0626c-1.15786,-0.98073 -1.85743,-2.39015 -2.71232,-3.65419zM136.70517,210.34793c-0.01533,0.23856 -0.03134,0.47715 -0.04744,0.71576c0.08804,0.43574 0.17816,0.8712 0.27032,1.30632c-0.0686,-0.6756 -0.14262,-1.34975 -0.22287,-2.02208zM148.50631,283.81705c0.68646,3.20747 1.43117,6.39955 2.22548,9.57049c0.11137,-0.76498 0.2426,-1.5404 0.3646,-2.33892c-0.77054,-1.843 -1.48217,-3.71182 -2.0882,-5.62953c-0.16761,-0.53289 -0.33493,-1.06691 -0.50188,-1.60204zM143.17363,233.69833l0.08697,0.05371c-0.02258,-0.15625 -0.04502,-0.31251 -0.06731,-0.46876c-0.01221,-0.0088 -0.02441,-0.0176 -0.03662,-0.02639c0.00571,0.14712 0.01136,0.29427 0.01697,0.44144zM346.81771,133.85351c0.19009,0.2038 0.37943,0.40866 0.56799,0.61461c-0.17764,-0.23194 -0.35844,-0.46075 -0.54382,-0.68493c-0.00709,0.02146 -0.01443,0.0429 -0.02204,0.06431c-0.00071,0.002 -0.00142,0.00401 -0.00214,0.00601zM339.32554,124.76431c-0.74318,-0.91631 -1.48113,-1.83764 -2.21246,-2.76575c-0.35784,-0.45413 -0.71713,-0.90744 -1.07775,-1.36l0.22017,0.75697c0.07513,0.23786 0.11565,0.49111 0.11565,0.7538c0,0.39745 -0.09275,0.77324 -0.25778,1.1069c0.88749,0.93276 1.77463,1.86281 2.65213,2.79407c0.4645,0.41561 0.92706,0.83347 1.38735,1.2541c-0.0987,-0.3225 -0.19745,-0.64498 -0.30081,-0.96585c-0.17138,-0.53199 -0.34692,-1.05621 -0.5265,-1.57425zM342.71757,137.38848c0.07693,0.04398 0.15389,0.08776 0.23084,0.13136c-0.04624,-0.04113 -0.0924,-0.08235 -0.1385,-0.12364c-0.03074,-0.0022 -0.06152,-0.00477 -0.09234,-0.00772z" fill="#000000" stroke="none" stroke-width="0.5"/><text transform="translate(229.18369,64.26126) scale(1.18324,1.18324)" font-size="40" xml:space="preserve" fill="#ffffff" fill-rule="nonzero" stroke="#ffffff" stroke-width="5" stroke-linecap="butt" stroke-linejoin="miter" stroke-miterlimit="10" stroke-dasharray="" stroke-dashoffset="0" font-family="Sans Serif" font-weight="normal" text-anchor="start" style="mix-blend-mode: normal"><tspan x="0" dy="0">9</tspan></text><path d="M347,180c0,49.15334 -47.90553,89 -107,89c-59.09447,0 -107,-39.84666 -107,-89c0,-49.15334 47.90553,-89 107,-89c59.09447,0 107,39.84666 107,89z" fill="url(#color-2)" stroke="none" stroke-width="0"/><text transform="translate(172.29688,302.99925) scale(0.5,0.5)" font-size="40" xml:space="preserve" fill="#808080" fill-rule="nonzero" stroke="#808080" stroke-width="3" stroke-linecap="butt" stroke-linejoin="miter" stroke-miterlimit="10" stroke-dasharray="" stroke-dashoffset="0" font-family="Sans Serif" font-weight="normal" text-anchor="start" style="mix-blend-mode: normal"><tspan x="0" dy="0">You are seeker </tspan></text><text transform="translate(107.29688,334.99925) scale(0.5,0.5)" font-size="40" xml:space="preserve" fill="#808080" fill-rule="nonzero" stroke="#808080" stroke-width="3" stroke-linecap="butt" stroke-linejoin="miter" stroke-miterlimit="10" stroke-dasharray="" stroke-dashoffset="0" font-family="Sans Serif" font-weight="normal" text-anchor="start" style="mix-blend-mode: normal"><tspan x="0" dy="0">your role is to find the hiders</tspan></text></g></g></svg>