<svg version="1.1" xmlns="http://www.w3.org/2000/svg" xmlns:xlink="http://www.w3.org/1999/xlink" width="996.51111" height="435.99999" viewBox="0,0,996.51111,435.99999"><g transform="translate(79,20.99998)"><g data-paper-data="{&quot;isPaintingLayer&quot;:true}" fill-rule="nonzero" stroke-linejoin="miter" stroke-miterlimit="10" stroke-dasharray="" stroke-dashoffset="0" style="mix-blend-mode: normal"><path d="M-32,381.00003v-402h544v402z" fill="#95e447" stroke="none" stroke-width="0" stroke-linecap="butt"/><path d="M244.45181,61.25906c0,8.42733 -20.32519,15.25904 -45.39759,15.25904c-25.0724,0 -45.39759,-6.8317 -45.39759,-15.25904c0,-8.42733 20.32519,-15.25904 45.39759,-15.25904c25.0724,0 45.39759,6.8317 45.39759,15.25904z" fill="#9df04a" stroke="none" stroke-width="0" stroke-linecap="butt"/><path d="M480.77711,129.92773c0,8.42733 -20.32519,15.25904 -45.39759,15.25904c-25.0724,0 -45.39759,-6.8317 -45.39759,-15.25904c0,-8.42733 20.32519,-15.25904 45.39759,-15.25904c25.0724,0 45.39759,6.8317 45.39759,15.25904z" fill="#9df04a" stroke="none" stroke-width="0" stroke-linecap="butt"/><path d="M298.14458,141.83136c0,8.42733 -20.32519,15.25904 -45.39759,15.25904c-25.0724,0 -45.39759,-6.8317 -45.39759,-15.25904c0,-8.42733 20.32519,-15.25904 45.39759,-15.25904c25.0724,0 45.39759,6.8317 45.39759,15.25904z" fill="#9df04a" stroke="none" stroke-width="0" stroke-linecap="butt"/><path d="M95.06024,89.36147c0,8.42733 -20.32519,15.25904 -45.39759,15.25904c-25.0724,0 -45.39759,-6.8317 -45.39759,-15.25904c0,-8.42733 20.32519,-15.25904 45.39759,-15.25904c25.0724,0 45.39759,6.8317 45.39759,15.25904z" fill="#9df04a" stroke="none" stroke-width="0" stroke-linecap="butt"/><path d="M116.61446,255.24098c0,8.42733 -20.32519,15.25904 -45.39759,15.25904c-25.0724,0 -45.39759,-6.8317 -45.39759,-15.25904c0,-8.42733 20.32519,-15.25904 45.39759,-15.25904c25.0724,0 45.39759,6.8317 45.39759,15.25904z" fill="#9df04a" stroke="none" stroke-width="0" stroke-linecap="butt"/><path d="M264.71084,309.74098c0,8.42733 -20.32519,15.25904 -45.39759,15.25904c-25.0724,0 -45.39759,-6.8317 -45.39759,-15.25904c0,-8.42733 20.32519,-15.25904 45.39759,-15.25904c25.0724,0 45.39759,6.8317 45.39759,15.25904z" fill="#9df04a" stroke="none" stroke-width="0" stroke-linecap="butt"/><path d="M238.87952,214.68074c0,8.42733 -20.32519,15.25904 -45.39759,15.25904c-25.0724,0 -45.39759,-6.8317 -45.39759,-15.25904c0,-8.42733 20.32519,-15.25904 45.39759,-15.25904c25.0724,0 45.39759,6.8317 45.39759,15.25904z" fill="#9df04a" stroke="none" stroke-width="0" stroke-linecap="butt"/><path d="M402.40361,192.10243c0,8.42733 -20.32519,15.25904 -45.39759,15.25904c-25.0724,0 -45.39759,-6.8317 -45.39759,-15.25904c0,-8.42733 20.32519,-15.25904 45.39759,-15.25904c25.0724,0 45.39759,6.8317 45.39759,15.25904z" fill="#9df04a" stroke="none" stroke-width="0" stroke-linecap="butt"/><path d="M407.53614,56.26508c0,8.42733 -20.32519,15.25904 -45.39759,15.25904c-25.0724,0 -45.39759,-6.8317 -45.39759,-15.25904c0,-8.42733 20.32519,-15.25904 45.39759,-15.25904c25.0724,0 45.39759,6.8317 45.39759,15.25904z" fill="#9df04a" stroke="none" stroke-width="0" stroke-linecap="butt"/><path d="M446.18072,291.30124c0,8.42733 -20.32519,15.25904 -45.39759,15.25904c-25.0724,0 -45.39759,-6.8317 -45.39759,-15.25904c0,-8.42733 20.32519,-15.25904 45.39759,-15.25904c25.0724,0 45.39759,6.8317 45.39759,15.25904z" fill="#9df04a" stroke="none" stroke-width="0" stroke-linecap="butt"/><path d="M-79,415.00002v-402h544v402z" fill="#95e447" stroke="none" stroke-width="0" stroke-linecap="butt"/><path d="M335.87952,226.67173c0,6.44345 11.45129,14.78743 -5.3498,17.02488c-5.17292,0.68889 -34.14548,-1.76584 -40.04779,-1.76584c-7.94966,0 -9.58874,-6.68681 -16.08734,-7.89352c-13.99733,-2.59913 -29.31025,-1.61023 -29.31025,-7.36552c0,-8.42733 20.32519,-15.25904 45.39759,-15.25904c8.14614,0 26.79115,2.38784 33.40074,3.65061c13.73357,2.6238 11.99685,5.91918 11.99685,11.60843z" fill="#9df04a" stroke="none" stroke-width="0" stroke-linecap="butt"/><path d="M431.87952,172.68074c0,6.44345 11.45129,14.78743 -5.3498,17.02488c-5.17292,0.68889 -34.14548,-1.76584 -40.04779,-1.76584c-7.94966,0 -9.58874,-6.68681 -16.08734,-7.89352c-13.99733,-2.59913 -29.31025,-1.61023 -29.31025,-7.36552c0,-8.42733 20.32519,-15.25904 45.39759,-15.25904c8.14614,0 26.79115,2.38784 33.40074,3.65061c13.73357,2.6238 11.99685,5.91918 11.99685,11.60843z" fill="#9df04a" stroke="none" stroke-width="0" stroke-linecap="butt"/><path d="M157.87952,181.68074c0,6.44345 11.45129,14.78743 -5.3498,17.02488c-5.17292,0.68889 -34.14548,-1.76584 -40.04779,-1.76584c-7.94966,0 -9.58874,-6.68681 -16.08734,-7.89352c-13.99733,-2.59913 -29.31025,-1.61023 -29.31025,-7.36552c0,-8.42733 20.32519,-15.25904 45.39759,-15.25904c8.14614,0 26.79115,2.38784 33.40074,3.65061c13.73357,2.6238 11.99685,5.91918 11.99685,11.60843z" fill="#9df04a" stroke="none" stroke-width="0" stroke-linecap="butt"/><path d="M278.87952,102.68074c0,6.44345 11.45129,14.78743 -5.3498,17.02488c-5.17292,0.68889 -34.14548,-1.76584 -40.04779,-1.76584c-7.94966,0 -9.58874,-6.68681 -16.08734,-7.89352c-13.99733,-2.59913 -29.31025,-1.61023 -29.31025,-7.36552c0,-8.42733 20.32519,-15.25904 45.39759,-15.25904c8.14614,0 26.79115,2.38784 33.40074,3.65061c13.73357,2.6238 11.99685,5.91918 11.99685,11.60843z" fill="#9df04a" stroke="none" stroke-width="0" stroke-linecap="butt"/><path d="M422.87952,43.68074c0,6.44345 11.45129,14.78743 -5.3498,17.02488c-5.17292,0.68889 -34.14548,-1.76584 -40.04779,-1.76584c-7.94966,0 -9.58874,-6.68681 -16.08734,-7.89352c-13.99733,-2.59913 -29.31025,-1.61023 -29.31025,-7.36552c0,-8.42733 20.32519,-15.25904 45.39759,-15.25904c8.14614,0 26.79115,2.38784 33.40074,3.65061c13.73357,2.6238 11.99685,5.91918 11.99685,11.60843z" fill="#9df04a" stroke="none" stroke-width="0" stroke-linecap="butt"/><path d="M153.87952,38.68074c0,6.44345 11.45129,14.78743 -5.3498,17.02488c-5.17292,0.68889 -34.14548,-1.76584 -40.04779,-1.76584c-7.94966,0 -9.58874,-6.68681 -16.08734,-7.89352c-13.99733,-2.59913 -29.31025,-1.61023 -29.31025,-7.36552c0,-8.42733 20.32519,-15.25904 45.39759,-15.25904c8.14614,0 26.79115,2.38784 33.40074,3.65061c13.73357,2.6238 11.99685,5.91918 11.99685,11.60843z" fill="#9df04a" stroke="none" stroke-width="0" stroke-linecap="butt"/><path d="M120.87952,293.68074c0,6.44345 11.45129,14.78743 -5.3498,17.02488c-5.17292,0.68889 -34.14548,-1.76584 -40.04779,-1.76584c-7.94966,0 -9.58874,-6.68681 -16.08734,-7.89352c-13.99733,-2.59913 -29.31025,-1.61023 -29.31025,-7.36552c0,-8.42733 20.32519,-15.25904 45.39759,-15.25904c8.14614,0 26.79115,2.38784 33.40074,3.65061c13.73357,2.6238 11.99685,5.91918 11.99685,11.60843z" fill="#9df04a" stroke="none" stroke-width="0" stroke-linecap="butt"/><path d="M436.87952,330.68074c0,6.44345 11.45129,14.78743 -5.3498,17.02488c-5.17292,0.68889 -34.14548,-1.76584 -40.04779,-1.76584c-7.94966,0 -9.58874,-6.68681 -16.08734,-7.89352c-13.99733,-2.59913 -29.31025,-1.61023 -29.31025,-7.36552c0,-8.42733 20.32519,-15.25904 45.39759,-15.25904c8.14614,0 26.79115,2.38784 33.40074,3.65061c13.73357,2.6238 11.99685,5.91918 11.99685,11.60843z" fill="#9df04a" stroke="none" stroke-width="0" stroke-linecap="butt"/><path d="M272.87952,316.68074c0,6.44345 11.45129,14.78743 -5.3498,17.02488c-5.17292,0.68889 -34.14548,-1.76584 -40.04779,-1.76584c-7.94966,0 -9.58874,-6.68681 -16.08734,-7.89352c-13.99733,-2.59913 -29.31025,-1.61023 -29.31025,-7.36552c0,-8.42733 20.32519,-15.25904 45.39759,-15.25904c8.14614,0 26.79115,2.38784 33.40074,3.65061c13.73357,2.6238 11.99685,5.91918 11.99685,11.60843z" fill="#9df04a" stroke="none" stroke-width="0" stroke-linecap="butt"/><path d="M222.00099,167.41163c3.30113,-0.63068 12.61332,-1.82328 16.68187,-1.82328c12.52231,0 22.67365,3.41207 22.67365,7.62107c0,2.87446 -7.64799,2.38055 -14.63889,3.67868c-3.2457,0.60269 -4.06433,3.94239 -8.03475,3.94239c-2.94789,0 -17.41812,1.22601 -20.00171,0.88194c-8.39123,-1.11748 -2.67194,-5.28485 -2.67194,-8.50301c0,-2.84147 -0.8674,-4.48734 5.99178,-5.79778z" data-paper-data="{&quot;index&quot;:null}" fill="#7ec03c" stroke="none" stroke-width="0" stroke-linecap="butt"/><path d="M341.64813,108.68962c3.32595,-0.63542 12.70812,-1.83699 16.80726,-1.83699c12.61644,0 22.84408,3.43772 22.84408,7.67835c0,2.89606 -7.70547,2.39845 -14.74892,3.70634c-3.2701,0.60722 -4.09488,3.97202 -8.09515,3.97202c-2.97004,0 -17.54904,1.23522 -20.15205,0.88858c-8.45431,-1.12588 -2.69203,-5.32458 -2.69203,-8.56692c0,-2.86283 -0.87392,-4.52106 6.03682,-5.84136z" data-paper-data="{&quot;index&quot;:null}" fill="#7ec03c" stroke="none" stroke-width="0" stroke-linecap="butt"/><path d="M137.37645,240.68316c4.09446,-0.78225 15.64453,-2.26145 20.69083,-2.26145c15.53167,0 28.12256,4.23205 28.12256,9.45255c0,3.56525 -9.48593,2.95265 -18.15689,4.56274c-4.0257,0.74752 -5.04107,4.88981 -9.96566,4.88981c-3.65632,0 -21.60403,1.52064 -24.8085,1.09389c-10.40781,-1.38603 -3.31405,-6.5549 -3.31405,-10.54644c0,-3.52433 -1.07585,-5.56573 7.43172,-7.1911z" data-paper-data="{&quot;index&quot;:null}" fill="#7ec03c" stroke="none" stroke-width="0" stroke-linecap="butt"/><path d="M232.84692,27.79847c3.67527,-0.70216 14.04285,-2.02993 18.57252,-2.02993c13.94154,0 25.24338,3.79877 25.24338,8.48481c0,3.20023 -8.51477,2.65035 -16.298,4.0956c-3.61356,0.67099 -4.52496,4.3892 -8.94538,4.3892c-3.28198,0 -19.39221,1.36496 -22.26862,0.9819c-9.34226,-1.24413 -2.97477,-5.88382 -2.97477,-9.4667c0,-3.16352 -0.9657,-4.99591 6.67087,-6.45488z" data-paper-data="{&quot;index&quot;:null}" fill="#7ec03c" stroke="none" stroke-width="0" stroke-linecap="butt"/><path d="M61.00465,109.61545c3.18622,-0.60873 12.17423,-1.75981 16.10116,-1.75981c12.08639,0 21.88435,3.29329 21.88435,7.35577c0,2.77439 -7.38174,2.29769 -14.12929,3.55062c-3.13271,0.58171 -3.92284,3.80515 -7.75505,3.80515c-2.84526,0 -16.81177,1.18332 -19.30543,0.85124c-8.09913,-1.07859 -2.57892,-5.10089 -2.57892,-8.20701c0,-2.74255 -0.8372,-4.33112 5.7832,-5.59595z" data-paper-data="{&quot;index&quot;:null}" fill="#7ec03c" stroke="none" stroke-width="0" stroke-linecap="butt"/><path d="M401.68618,246.28181c4.16433,-0.79559 15.91148,-2.30005 21.0439,-2.30005c15.79669,0 28.60242,4.30427 28.60242,9.61384c0,3.62608 -9.6478,3.00303 -18.46671,4.64059c-4.0944,0.76027 -5.12708,4.97325 -10.1357,4.97325c-3.7187,0 -21.97265,1.54659 -25.23181,1.11257c-10.5854,-1.40969 -3.37061,-6.66676 -3.37061,-10.72641c0,-3.58447 -1.0942,-5.6607 7.55853,-7.3138z" data-paper-data="{&quot;index&quot;:null}" fill="#7ec03c" stroke="none" stroke-width="0" stroke-linecap="butt"/><path d="M282.89796,275.5312c3.67527,-0.70217 14.04285,-2.02993 18.57252,-2.02993c13.94154,0 25.24338,3.79878 25.24338,8.4848c0,3.20024 -8.51477,2.65036 -16.298,4.09561c-3.61355,0.67099 -4.52497,4.3892 -8.94538,4.3892c-3.28199,0 -19.3922,1.36496 -22.26862,0.9819c-9.34226,-1.24414 -2.97476,-5.88382 -2.97476,-9.46671c0,-3.16351 -0.96571,-4.99592 6.67086,-6.45488z" data-paper-data="{&quot;index&quot;:null}" fill="#7ec03c" stroke="none" stroke-width="0" stroke-linecap="butt"/><path d="M-11.8903,232.68224c4.93283,-0.94242 18.84789,-2.7245 24.92747,-2.7245c18.7119,0 33.8809,5.0986 33.8809,11.38805c0,4.29526 -11.42826,3.55723 -21.87468,5.497c-4.85,0.90058 -6.07327,5.89105 -12.00622,5.89105c-4.40498,0 -26.02764,1.83201 -29.88826,1.31788c-12.5389,-1.66984 -3.99264,-7.89708 -3.99264,-12.70593c0,-4.24597 -1.29614,-6.70537 8.95343,-8.66354z" data-paper-data="{&quot;index&quot;:null}" fill="#7ec03c" stroke="none" stroke-width="0" stroke-linecap="butt"/><path d="M102.88162,345.74862c3.95472,-0.75555 15.11064,-2.18428 19.98473,-2.18428c15.00162,0 27.16283,4.08763 27.16283,9.12997c0,3.44358 -9.1622,2.85188 -17.53726,4.40703c-3.88832,0.72201 -4.86903,4.72295 -9.62557,4.72295c-3.53154,0 -20.86675,1.46874 -23.96187,1.05656c-10.05263,-1.33873 -3.20096,-6.33121 -3.20096,-10.18653c0,-3.40406 -1.03914,-5.3758 7.1781,-6.94569z" data-paper-data="{&quot;index&quot;:null}" fill="#7ec03c" stroke="none" stroke-width="0" stroke-linecap="butt"/><path d="M298.41,355.29485c4.93283,-0.94242 18.84789,-2.7245 24.92747,-2.7245c18.71191,0 33.8809,5.09861 33.8809,11.38805c0,4.29526 -11.42827,3.55723 -21.87468,5.497c-4.85,0.90058 -6.07327,5.89105 -12.00622,5.89105c-4.40498,0 -26.02764,1.83201 -29.88826,1.31788c-12.5389,-1.66984 -3.99264,-7.89708 -3.99264,-12.70592c0,-4.24597 -1.29614,-6.70537 8.95343,-8.66355z" data-paper-data="{&quot;index&quot;:null}" fill="#7ec03c" stroke="none" stroke-width="0" stroke-linecap="butt"/><path d="M785.14583,209.14331c0,15.53008 27.60005,35.64085 -12.89415,41.03358c-12.46784,1.66037 -82.29787,-4.25605 -96.5237,-4.25605c-19.16038,0 -23.11091,-16.11664 -38.77391,-19.02507c-33.73654,-6.26445 -70.64395,-3.88099 -70.64395,-17.75247c0,-20.31166 48.98804,-36.77753 109.41786,-36.77753c19.63393,0 64.57237,5.7552 80.50289,8.79875c33.10083,6.32392 28.91496,14.26648 28.91496,27.97879z" fill="#9df04a" stroke="none" stroke-width="0" stroke-linecap="butt"/><path d="M648.05646,365.15859c7.95642,-1.52008 30.40079,-4.3945 40.20686,-4.3945c30.18143,0 54.64833,8.22382 54.64833,18.3684c0,6.92806 -18.43329,5.73763 -35.28284,8.8664c-7.82283,1.45261 -9.7959,9.502 -19.36546,9.502c-7.10504,0 -41.98138,2.95495 -48.20838,2.12567c-20.22465,-2.69337 -6.43995,-12.73762 -6.43995,-20.49407c0,-6.84855 -2.09062,-10.81545 14.44146,-13.97388z" data-paper-data="{&quot;index&quot;:null}" fill="#7ec03c" stroke="none" stroke-width="0" stroke-linecap="butt"/><path d="M674.19746,28.6611c8.85819,-1.69235 33.84626,-4.89257 44.76373,-4.89257c33.60208,0 60.84192,9.15584 60.84192,20.4502c0,7.71323 -20.52241,6.38791 -39.28165,9.87127c-8.70945,1.61723 -10.90611,10.57891 -21.56027,10.57891c-7.91027,0 -46.73935,3.28984 -53.67211,2.36659c-22.51684,-2.99862 -7.16983,-14.18125 -7.16983,-22.81676c0,-7.62475 -2.32754,-12.0412 16.07822,-15.55763z" data-paper-data="{&quot;index&quot;:null}" fill="#7ec03c" stroke="none" stroke-width="0" stroke-linecap="butt"/><path d="M260.02101,225.85744c7.67947,-1.46717 29.34248,-4.24152 38.80722,-4.24152c29.13077,0 52.74595,7.93753 52.74595,17.72897c0,6.68687 -17.79156,5.53792 -34.0546,8.55775c-7.5505,1.40204 -9.45488,9.17122 -18.69132,9.17122c-6.85768,0 -40.51995,2.85206 -46.5302,2.05167c-19.52063,-2.59963 -6.21574,-12.29423 -6.21574,-19.78064c0,-6.61013 -2.01783,-10.43892 13.93874,-13.48743z" data-paper-data="{&quot;index&quot;:null}" fill="#7ec03c" stroke="none" stroke-width="0" stroke-linecap="butt"/><g fill="#7b8040" stroke="#b3e645" stroke-width="40" stroke-linecap="butt"><path d="M592.61918,31.79811c168.38712,0 304.89193,50.17774 304.89193,112.0749c0,61.89716 -136.50481,112.0749 -304.89193,112.0749c-168.38711,0 -304.89193,-50.17774 -304.89193,-112.0749c0,-61.8974 136.50482,-112.0749 304.89193,-112.0749z"/><path d="M345.57236,269.50657c0,-46.09098 116.0021,-83.45483 259.09789,-83.45483c143.09578,0 259.09789,37.36385 259.09789,83.45483c0,46.09074 -116.0021,83.45459 -259.09789,83.45459c-143.09578,0 -259.09789,-37.36385 -259.09789,-83.45459z"/><path d="M92.5,204.0823c0,-60.59179 128.41157,-109.71096 286.81534,-109.71096c158.40377,0 286.81534,49.11918 286.81534,109.71097c0,60.59155 -128.41156,109.71072 -286.81533,109.71072c-158.40377,0 -286.81533,-49.11917 -286.81533,-109.71072z"/></g><g fill="#93994c" stroke="none" stroke-width="0" stroke-linecap="butt"><path d="M592.61918,31.79809c168.38716,0 304.89193,50.17765 304.89193,112.0749c0,61.89726 -136.50477,112.0749 -304.89193,112.0749c-168.38716,0 -304.89193,-50.17765 -304.89193,-112.0749c0,-61.89725 136.50477,-112.0749 304.89193,-112.0749z"/><path d="M345.57236,269.50647c0,-46.09079 116.00208,-83.45476 259.09789,-83.45476c143.09581,0 259.09789,37.36397 259.09789,83.45476c0,46.09079 -116.00207,83.45475 -259.09789,83.45475c-143.09581,0 -259.09789,-37.36396 -259.09789,-83.45475z"/><path d="M379.31534,94.37143c158.40374,0 286.81534,49.1192 286.81534,109.71079c0,60.5916 -128.41159,109.71079 -286.81533,109.71079c-158.40374,0 -286.81533,-49.1192 -286.81533,-109.71079c0,-60.5916 128.41159,-109.71079 286.81534,-109.71079z"/></g><path d="M733.61663,231.12272c0,10.649 -43.16356,19.28171 -96.40851,19.28171c-53.24495,0 -96.40851,-8.63271 -96.40851,-19.28171c0,-10.649 43.16356,-19.2817 96.40851,-19.2817c53.24496,0 96.40851,8.6327 96.40851,19.2817z" fill="#989f47" stroke="none" stroke-width="0" stroke-linecap="butt"/><path d="M388.95619,191.35421c0,9.98344 -37.76811,18.07659 -84.35745,18.07659c-46.58934,0 -84.35745,-8.09315 -84.35745,-18.07659c0,-9.98344 37.7681,-18.07659 84.35745,-18.07659c46.58934,0 84.35745,8.09315 84.35745,18.07659z" fill="#989f47" stroke="none" stroke-width="0" stroke-linecap="butt"/><path d="M666.13067,126.27846c0,9.98344 -41.54494,18.0766 -92.7932,18.0766c-51.24826,0 -92.7932,-8.09316 -92.7932,-18.0766c0,-9.98344 41.54494,-18.0766 92.7932,-18.0766c51.24826,0 92.7932,8.09316 92.7932,18.0766z" fill="#989f47" stroke="none" stroke-width="0" stroke-linecap="butt"/><g fill="none" stroke-linecap="round"><path d="M810.44217,317.22758l8.43574,-62.66554" stroke="#2acc00" stroke-width="2.5"/><path d="M799.59621,323.25309l-2.41021,-60.85787" stroke="#2acc00" stroke-width="2.5"/><path d="M770.0711,297.34332l13.25617,30.73021" stroke="#2acc00" stroke-width="2.5"/><path d="M823.69834,232.26757l-5.42298,30.12766" stroke="#b38824" stroke-width="5"/><path d="M796.58344,259.38247l-1.80766,-33.74298" stroke="#b38824" stroke-width="5"/><path d="M769.46855,294.33054l-9.64085,-21.08936" stroke="#b38824" stroke-width="5"/></g></g></g></svg>