<svg version="1.1" xmlns="http://www.w3.org/2000/svg" xmlns:xlink="http://www.w3.org/1999/xlink" width="504.80861" height="388.77283" viewBox="0,0,504.80861,388.77283"><g transform="translate(21.80859,25.77283)"><g data-paper-data="{&quot;isPaintingLayer&quot;:true}" fill-rule="nonzero" stroke-linecap="butt" stroke-miterlimit="10" stroke-dasharray="" stroke-dashoffset="0" style="mix-blend-mode: normal"><path d="M-2.99998,363v-366h486v366z" fill="#ffffff" stroke="none" stroke-width="0" stroke-linejoin="miter"/><path d="M-21.80859,-24.44519l311.80446,-1.32764l-311.05607,337.52796z" fill="#ceffcf" stroke="none" stroke-width="0" stroke-linejoin="miter"/><path d="M357.27423,278.89595c0,0 10.80571,-0.85075 16.90136,5.3149c6.09562,6.16565 5.3149,17.15647 5.3149,17.15647v17.26535c0,0 0.85075,10.92003 -5.3149,17.15647c-6.16565,6.23644 -16.90136,5.3149 -16.90136,5.3149h-234.22242c0,0 -10.99271,0.89504 -17.22025,-5.3149c-6.22754,-6.20994 -5.3149,-17.15647 -5.3149,-17.15647v-17.26535c0,0 -0.85075,-10.92003 5.3149,-17.15647c6.16565,-6.23644 16.90136,-5.3149 16.90136,-5.3149z" data-paper-data="{&quot;index&quot;:null}" fill="#deffde" stroke="#999999" stroke-width="5" stroke-linejoin="miter"/><text transform="translate(114.66404,299.06373) scale(0.32402,0.32402)" font-size="40" xml:space="preserve" fill="#999999" fill-rule="nonzero" stroke="#999999" stroke-width="3" stroke-linecap="butt" stroke-linejoin="miter" stroke-miterlimit="10" stroke-dasharray="" stroke-dashoffset="0" font-family="Sans Serif" font-weight="normal" text-anchor="start" style="mix-blend-mode: normal"><tspan x="0" dy="0">Essayer de fuir le seeker en ligne droite </tspan><tspan x="0" dy="46.150000000000006px">Est inutile , il va plus vite que vous ...</tspan><tspan x="0" dy="46.150000000000006px">Essayer plutôt de changer de chunk.</tspan></text><g fill="#999999" stroke="#999999" stroke-width="2" stroke-linejoin="round" font-family="Sans Serif" font-weight="normal" font-size="40" text-anchor="start"><text transform="translate(48.37724,122.54324) scale(1.42027,1.42027)" font-size="40" xml:space="preserve" fill="#999999" fill-rule="nonzero" stroke="#999999" stroke-width="2" stroke-linecap="butt" stroke-linejoin="round" stroke-miterlimit="10" stroke-dasharray="" stroke-dashoffset="0" font-family="Sans Serif" font-weight="normal" text-anchor="start" style="mix-blend-mode: normal"><tspan x="0" dy="0">GAME  BEGAN</tspan></text><text transform="translate(116.7206,191.54324) scale(1.42027,1.42027)" font-size="40" xml:space="preserve" fill="#999999" fill-rule="nonzero" stroke="#999999" stroke-width="2" stroke-linecap="butt" stroke-linejoin="round" stroke-miterlimit="10" stroke-dasharray="" stroke-dashoffset="0" font-family="Sans Serif" font-weight="normal" text-anchor="start" style="mix-blend-mode: normal"><tspan x="0" dy="0">ALREADY</tspan></text></g><text transform="translate(87.50775,251.36589) scale(0.78049,0.78049)" font-size="40" xml:space="preserve" fill="#999999" fill-rule="nonzero" stroke="#999999" stroke-width="2" stroke-linecap="butt" stroke-linejoin="round" stroke-miterlimit="10" stroke-dasharray="" stroke-dashoffset="0" font-family="Sans Serif" font-weight="normal" text-anchor="start" style="mix-blend-mode: normal"><tspan x="0" dy="0">WAIT FOR IT TO END</tspan></text></g></g></svg>