<svg version="1.1" xmlns="http://www.w3.org/2000/svg" xmlns:xlink="http://www.w3.org/1999/xlink" width="230.39391" height="110.71733" viewBox="0,0,230.39391,110.71733"><g transform="translate(-79.20507,-108.25)"><g data-paper-data="{&quot;isPaintingLayer&quot;:true}" fill="#f2ea48" fill-rule="nonzero" stroke-linecap="butt" stroke-linejoin="miter" stroke-miterlimit="10" stroke-dasharray="" stroke-dashoffset="0" style="mix-blend-mode: normal"><path d="M79.95507,183.33334c0,-18.96178 18.44749,-74.33334 81.5,-74.33334c30.17911,0 51.44022,28.68513 79.65715,43.99147c30.73605,16.67285 67.17619,20.45585 67.17619,30.34187c0,18.96178 -51.11416,34.33333 -114.16667,34.33333c-63.05251,0 -114.16666,-15.37156 -114.16666,-34.33333z" data-paper-data="{&quot;index&quot;:null}" stroke="#000000" stroke-width="1.5"/><path d="M113.81804,209.77021c-0.1204,-0.53548 -21.47485,-6.61045 -29.87279,-15.18686c-5.96519,-6.09197 4.45425,-14.87431 8.09236,-16.26522c3.23465,-1.23666 50.91146,20.59044 53.68843,19.95518c16.76674,-3.83555 68.35377,1.78731 72.96636,-0.72385c8.47982,-4.61652 21.20838,-9.18082 35.7693,-12.45484c20.71177,-4.65704 39.19049,-5.3678 47.62598,-2.37551c2.70187,0.95842 7.04298,0.18933 7.42753,1.89956c0.92618,4.11913 -5.87877,12.03289 -17.89045,18.11101c-8.54585,4.32435 -20.16619,7.11597 -31.53391,9.67201c-15.70623,3.53154 -35.86944,7.42951 -45.57037,6.02922c-3.20684,-0.46289 -12.89542,0.4885 -25.90544,0.31035c-5.60885,-0.07681 -11.28869,0.54109 -16.18475,0.00536c-3.80372,-0.4162 -14.2026,-1.71898 -24.3326,-3.05084c-7.2884,-0.95825 -15.13872,-0.99491 -20.58207,-2.08677c-5.30322,-1.06376 -13.62691,-3.52454 -13.69757,-3.83878z" data-paper-data="{&quot;index&quot;:null}" stroke="none" stroke-width="0"/></g></g></svg>