<svg version="1.1" xmlns="http://www.w3.org/2000/svg" xmlns:xlink="http://www.w3.org/1999/xlink" width="610.95945" height="322.56716" viewBox="0,0,610.95945,322.56716"><defs><linearGradient x1="55.02491" y1="306.89322" x2="56.97231" y2="312.22908" gradientUnits="userSpaceOnUse" id="color-1"><stop offset="0" stop-color="#1a1a1a"/><stop offset="1" stop-color="#f30000" stop-opacity="0"/></linearGradient><linearGradient x1="48.29656" y1="303.39027" x2="50.00434" y2="305.53229" gradientUnits="userSpaceOnUse" id="color-2"><stop offset="0" stop-color="#1a1a1a"/><stop offset="1" stop-color="#f30000" stop-opacity="0"/></linearGradient><linearGradient x1="49.97176" y1="302.6098" x2="58.19161" y2="315.13759" gradientUnits="userSpaceOnUse" id="color-3"><stop offset="0" stop-color="#1a1a1a"/><stop offset="1" stop-color="#f30000" stop-opacity="0"/></linearGradient><linearGradient x1="49.52851" y1="299.67563" x2="50.18437" y2="303.14817" gradientUnits="userSpaceOnUse" id="color-4"><stop offset="0" stop-color="#1a1a1a"/><stop offset="1" stop-color="#f30000" stop-opacity="0"/></linearGradient><linearGradient x1="53.67115" y1="301.30261" x2="50.80058" y2="316.81828" gradientUnits="userSpaceOnUse" id="color-5"><stop offset="0" stop-color="#1a1a1a"/><stop offset="1" stop-color="#f30000" stop-opacity="0"/></linearGradient><linearGradient x1="52.80051" y1="306.35895" x2="63.64801" y2="319.69837" gradientUnits="userSpaceOnUse" id="color-6"><stop offset="0" stop-color="#1a1a1a"/><stop offset="1" stop-color="#f30000" stop-opacity="0"/></linearGradient><linearGradient x1="57.96583" y1="308.49791" x2="66.04352" y2="320.08706" gradientUnits="userSpaceOnUse" id="color-7"><stop offset="0" stop-color="#1a1a1a"/><stop offset="1" stop-color="#f30000" stop-opacity="0"/></linearGradient></defs><g transform="translate(-15.03878,-31.49852)"><g data-paper-data="{&quot;isPaintingLayer&quot;:true}" stroke-dasharray="" stroke-dashoffset="0" style="mix-blend-mode: normal"><path d="M625.99823,33.49851" fill="none" fill-rule="nonzero" stroke="#50c775" stroke-width="19" stroke-linecap="round" stroke-linejoin="miter" stroke-miterlimit="10"/><path d="M565.83686,32.49851" fill="none" fill-rule="nonzero" stroke="#50c775" stroke-width="19" stroke-linecap="round" stroke-linejoin="miter" stroke-miterlimit="10"/><path d="M527.16164,31.49853" fill="none" fill-rule="nonzero" stroke="#50c775" stroke-width="19" stroke-linecap="round" stroke-linejoin="miter" stroke-miterlimit="10"/><g><path d="M38.20852,288.37863c5.00986,-1.25267 10.05532,-1.5523 15.0264,-0.76374l1.64126,0.26152l-1.35589,0.9578c-5.44644,3.82191 -12.05945,4.25234 -15.62198,0.67773l-0.84222,-0.84519z" data-paper-data="{&quot;index&quot;:null}" fill="#4d4d4d" fill-rule="nonzero" stroke="#4d4d4d" stroke-width="1" stroke-linecap="butt" stroke-linejoin="miter" stroke-miterlimit="4"/><path d="M68.67373,324.63928c0,0 -15.6059,-11.30341 -21.02258,-14.64712c-5.65705,-3.4921 -21.39274,-12.42438 -21.39274,-12.42438c0,0 9.01899,-4.52045 14.9735,-2.77311c21.14924,6.20621 43.35731,34.75816 43.35731,34.75816" data-paper-data="{&quot;index&quot;:null}" fill="none" fill-rule="nonzero" stroke="#292929" stroke-width="1.5" stroke-linecap="round" stroke-linejoin="round" stroke-miterlimit="4" opacity="0.5"/><path d="M52.87347,310.20072c1.3509,-2.38956 5.48721,-2.63889 9.52538,-0.69513l2.67063,1.93132c-0.37856,-0.17363 -0.68054,-0.31959 -0.79327,-0.3838c-3.52068,-2.00602 -8.95922,-2.32078 -10.40901,0.24367c-0.17509,0.30974 -0.29133,0.64027 -0.36022,0.98762l-1.06744,-0.4732c0.01485,-0.57642 0.15709,-1.1208 0.43396,-1.6105z" data-paper-data="{&quot;index&quot;:null}" fill="url(#color-1)" fill-rule="nonzero" stroke="none" stroke-width="1" stroke-linecap="butt" stroke-linejoin="miter" stroke-miterlimit="10"/><path d="M50.82186,309.27486c1.3509,-2.38956 5.48721,-2.63889 9.52538,-0.69513l2.67063,1.93132c-0.37856,-0.17363 -0.68053,-0.31957 -0.79328,-0.3838c-3.52068,-2.00602 -8.95922,-2.32078 -10.40901,0.24367c-0.17509,0.30974 -0.29133,0.64027 -0.36022,0.98761l-1.06744,-0.47319c0.01485,-0.57642 0.15708,-1.1208 0.43396,-1.61051z" data-paper-data="{&quot;index&quot;:null}" fill="url(#color-2)" fill-rule="nonzero" stroke="none" stroke-width="1" stroke-linecap="butt" stroke-linejoin="miter" stroke-miterlimit="10"/><path d="M49.67225,308.34809c1.3509,-2.38957 5.48721,-2.63889 9.52538,-0.69513l2.67063,1.93132c-0.37856,-0.17363 -0.68054,-0.31958 -0.79327,-0.3838c-3.52068,-2.00602 -8.95923,-2.32078 -10.40901,0.24367c-0.17509,0.30974 -0.29133,0.64027 -0.36022,0.98762l-1.06744,-0.4732c0.01485,-0.57642 0.15708,-1.1208 0.43396,-1.6105z" data-paper-data="{&quot;index&quot;:null}" fill="url(#color-3)" fill-rule="nonzero" stroke="none" stroke-width="1" stroke-linecap="butt" stroke-linejoin="miter" stroke-miterlimit="10"/><path d="M46.9751,305.55806c2.44444,-2.83792 8.23019,-1.86964 13.02075,2.14144l8.18878,5.82172l-0.75371,0.5942c-0.51334,-0.56532 -5.63338,-4.08067 -6.2409,-4.60753c-3.94933,-3.42498 -10.75268,-5.19626 -13.23298,-2.31667c-0.29955,0.34778 -0.53199,0.73675 -0.70665,1.15888l-1.22816,-0.86498c0.164,-0.72558 0.47926,-1.37716 0.95288,-1.92701z" data-paper-data="{&quot;index&quot;:null}" fill="url(#color-4)" fill-rule="nonzero" stroke="none" stroke-width="1" stroke-linecap="butt" stroke-linejoin="miter" stroke-miterlimit="10"/><path d="M46.9751,305.55806c2.44444,-2.83792 8.23019,-1.86964 13.02075,2.14144l8.18878,5.82172l-0.75371,0.5942c-0.51334,-0.56532 -5.63338,-4.08067 -6.2409,-4.60753c-3.94933,-3.42498 -10.75268,-5.19626 -13.23298,-2.31667c-0.29955,0.34778 -0.53199,0.73675 -0.70665,1.15888l-1.22816,-0.86498c0.164,-0.72558 0.47926,-1.37716 0.95288,-1.92701z" data-paper-data="{&quot;index&quot;:null}" fill="url(#color-5)" fill-rule="nonzero" stroke="none" stroke-width="1" stroke-linecap="butt" stroke-linejoin="miter" stroke-miterlimit="10"/><path d="M55.13409,313.49307c0.01329,-0.51494 0.14032,-1.00125 0.38764,-1.43869c1.2068,-2.13468 4.90184,-2.35736 8.50922,-0.62097l2.38573,1.72528c-0.33813,-0.15513 -0.60796,-0.28546 -0.70865,-0.34287c-3.14508,-1.79201 -8.00348,-2.0732 -9.29861,0.2177c-0.15644,0.27667 -0.26022,0.57195 -0.32177,0.88226l-0.95357,-0.42272z" data-paper-data="{&quot;index&quot;:null}" fill="url(#color-6)" fill-rule="nonzero" stroke="none" stroke-width="1" stroke-linecap="butt" stroke-linejoin="miter" stroke-miterlimit="10"/><path d="M57.77592,315.50122c0.01329,-0.51493 0.14032,-1.00125 0.38764,-1.43869c1.2068,-2.13468 4.90184,-2.35736 8.50922,-0.62097l2.38573,1.72528c-0.33813,-0.15513 -0.60796,-0.28546 -0.70865,-0.34287c-3.1451,-1.792 -8.0035,-2.0732 -9.29861,0.2177c-0.15644,0.27667 -0.26022,0.57195 -0.32176,0.88226l-0.95357,-0.42272z" data-paper-data="{&quot;index&quot;:null}" fill="url(#color-7)" fill-rule="nonzero" stroke="none" stroke-width="1" stroke-linecap="butt" stroke-linejoin="miter" stroke-miterlimit="10"/><path d="M78.03051,326.41418c1.79849,4.78609 -0.62333,10.12373 -5.4094,11.92215l-21.23534,7.97936c-4.78606,1.7984 -10.12371,-0.62353 -11.92221,-5.40964l-16.67478,-44.37454c-1.79849,-4.78609 0.62333,-10.12373 5.4094,-11.92215l21.23534,-7.97936c4.78606,-1.7984 10.12371,0.62353 11.92222,5.40962z" fill="none" fill-rule="evenodd" stroke="#ffffff" stroke-width="15.5" stroke-linecap="round" stroke-linejoin="round" stroke-miterlimit="1.5"/><path d="M78.03051,326.41418c1.79849,4.78609 -0.62333,10.12373 -5.4094,11.92215l-21.23534,7.97936c-4.78606,1.7984 -10.12371,-0.62353 -11.92221,-5.40964l-16.67478,-44.37454c-1.79849,-4.78609 0.62333,-10.12373 5.4094,-11.92215l21.23534,-7.97936c4.78606,-1.7984 10.12371,0.62353 11.92222,5.40962z" fill="#000000" fill-rule="evenodd" stroke="none" stroke-width="1" stroke-linecap="round" stroke-linejoin="round" stroke-miterlimit="1.5"/><path d="M43.67304,340.40397l-17.39032,-46.27976l30.85352,-11.59379l17.39032,46.27976z" fill="#ffffff" fill-rule="evenodd" stroke="none" stroke-width="1" stroke-linecap="round" stroke-linejoin="round" stroke-miterlimit="1.5"/><path d="M59.86557,310.85606l-0.68116,-6.95398" fill="none" fill-rule="evenodd" stroke="#000000" stroke-width="5.33" stroke-linecap="round" stroke-linejoin="round" stroke-miterlimit="1.5"/><path d="M40.09842,303.46657l0.68116,6.95398" fill="none" fill-rule="evenodd" stroke="#000000" stroke-width="5.33" stroke-linecap="round" stroke-linejoin="round" stroke-miterlimit="1.5"/><path d="M57.97507,322.68379c-4.23348,3.03026 -10.13045,2.05341 -13.16068,-2.18008" fill="none" fill-rule="evenodd" stroke="#000000" stroke-width="6" stroke-linecap="round" stroke-linejoin="round" stroke-miterlimit="1.5"/></g></g></g></svg>