<svg version="1.1" xmlns="http://www.w3.org/2000/svg" xmlns:xlink="http://www.w3.org/1999/xlink" width="97.14749" height="126.96421" viewBox="0,0,97.14749,126.96421"><g transform="translate(-255.16874,-79.52556)"><g data-paper-data="{&quot;isPaintingLayer&quot;:true}" fill-rule="nonzero" stroke-linecap="butt" stroke-linejoin="miter" stroke-miterlimit="10" stroke-dasharray="" stroke-dashoffset="0" style="mix-blend-mode: normal"><path d="M255.16874,192.80499c0,-7.55792 21.74719,-13.6848 48.57374,-13.6848c26.82655,0 48.57375,6.12689 48.57375,13.6848c0,7.55791 -21.74722,13.68479 -48.57375,13.68479c-26.82655,0 -48.57374,-6.12688 -48.57374,-13.68479z" data-paper-data="{&quot;index&quot;:null}" fill-opacity="0.10588" fill="#1a1a1a" stroke="none" stroke-width="0"/><path d="M268.06799,141.28689c-0.70427,-5.61915 -1.07988,-11.5269 -1.07988,-17.62271v-0.00001c0,-17.61384 3.38756,-29.04399 8.79414,-36.20886c0.81367,-0.84709 1.59712,-1.7332 2.32515,-2.7023c0.32699,-0.33266 0.65954,-0.65315 0.99743,-0.96179c5.71562,-5.22101 11.52179,-4.1813 19.1823,-4.1813c1.3931,0 11.60324,11.30962 13.01338,11.28424c6.32967,-0.11392 3.81448,-11.38363 8.08413,-7.13213c6.69556,6.66712 10.8037,18.8808 10.8037,39.90213c0,22.20961 1.62175,49.105 -6.08139,61.45892c-5.27299,8.45655 -18.4268,6.28261 -25.51871,6.28261c-7.08977,0 -15.88423,5.61983 -21.15639,-2.83213c-2.19608,-3.52059 -1.9214,-18.26422 -3.62343,-22.86826c-2.6314,-7.11799 -4.60959,-15.3962 -5.7404,-24.41844z" data-paper-data="{&quot;index&quot;:null}" fill="#737373" stroke="none" stroke-width="0"/><path d="M273.06799,146.28689c-0.70427,-5.61915 -1.07988,-11.5269 -1.07988,-17.62271v-0.00001c0,-17.61384 3.38756,-29.04399 8.79414,-36.20886c0.81367,-0.84709 1.59712,-1.7332 2.32515,-2.7023c0.32699,-0.33266 0.65954,-0.65315 0.99743,-0.96179c5.71562,-5.22101 11.52179,-4.1813 19.1823,-4.1813c1.3931,0 11.60324,11.30962 13.01338,11.28424c6.32967,-0.11392 3.81448,-11.38363 8.08413,-7.13213c6.69556,6.66712 10.8037,18.8808 10.8037,39.90213c0,22.20961 1.62175,49.105 -6.08139,61.45892c-5.27299,8.45655 -18.4268,6.28261 -25.51871,6.28261c-5.43469,0 -16.04895,1.80894 -20.51532,-3.37124c-4.93041,-5.71837 -0.96925,-16.32163 -2.25232,-27.95874c-0.67896,-6.15798 -6.9663,-12.51546 -7.75258,-18.78885z" data-paper-data="{&quot;index&quot;:null}" fill="#a4a4a4" stroke="none" stroke-width="0"/><path d="M289.53857,141.72731c-2.5,0 -2.5,-2.5 -2.5,-2.5c0,-3.88889 0,-9.11111 0,-13c0.00996,-6.50391 1.7215,-13.47632 0.69317,-19.9703c-0.63124,-3.98633 -3.54451,-7.04912 -4.30878,-10.86036c-1.15792,-5.77422 2.43528,-12.08563 8.33622,-13.29589c2.39594,-0.49139 4.36304,0.18747 6.65505,0.68609c0,0 2.44047,0.54232 1.89814,2.98279c-0.54233,2.44047 -2.9828,1.89814 -2.9828,1.89814c-1.55786,-0.35492 -3.05311,-0.89615 -4.67828,-0.64725c-1.17676,0.18022 -2.0925,1.22956 -2.85884,2.14058c-3.51599,4.17983 0.42137,8.25889 1.79619,12.64498c0.38695,1.23448 0.88877,2.44692 1.09009,3.72486c1.06696,6.77284 -0.65167,13.92457 -0.64017,20.69637c0,3.88889 0,7.77778 0,11.66667v1.33333c0,0 0,2.5 -2.5,2.5z" fill="#00991b" stroke="none" stroke-width="0.5"/><path d="M290.26839,143.92094c0.05111,0.78812 2.05758,1.3761 2.1875,2.28554c0.41686,2.91801 -1.99602,4.38183 -4.21004,2.72131c-2.93561,-2.20171 -3.31807,-4.64547 -2.7501,-8.29977c0.13613,-0.87585 1.47106,-3.59286 2.5542,-3.40069c0.2635,-0.09442 0.54747,-0.14585 0.84344,-0.14585c1.38071,0 2.5,1.11929 2.5,2.5c0,0.10573 -0.00657,0.20992 -0.01931,0.3122c-0.04845,0.38888 -0.1862,0.75002 -0.39209,1.06226c-0.3488,0.89909 -0.77203,2.06389 -0.7136,2.965z" fill="#00991b" stroke="none" stroke-width="0.5"/><path d="M294.16116,116.43871c3.22677,2.66175 2.36812,6.36805 5.86127,8.71684c1.7783,1.19572 6.71941,-0.06233 7.74856,1.99597c2.77832,5.55663 -6.64883,4.0039 -9.41817,2.80166c-1.93161,-0.83856 -4.65867,-3.01382 -5.52193,-4.9967c-0.38999,-0.89581 -0.55283,-3.9702 -1.48424,-4.31317c-0.22159,0.09147 -0.4592,0.15201 -0.70745,0.17624c-0.08087,0.0079 -0.16287,0.01193 -0.24582,0.01193c-1.38071,0 -2.5,-1.11929 -2.5,-2.5c0,-1.1809 0.81877,-2.17057 1.91959,-2.43228c1.30194,-0.69693 2.97579,-0.59256 4.34818,0.53951z" fill="#00991b" stroke="none" stroke-width="0.5"/><path d="M289.20589,102.95648c-0.10954,0.24771 -0.25323,0.45742 -0.42319,0.63729c-0.32817,0.37835 -0.76808,0.65713 -1.2684,0.785c-1.51333,0.57985 -3.43454,0.63556 -3.87091,2.12753c-0.16566,0.56638 2.63038,16.47358 -4.4375,9.70019c-0.78348,-0.75083 0.06558,-4.69876 0.0625,-5.37745c-0.02146,-4.7209 -1.52021,-7.82776 4.02803,-10.17248c1.08225,-0.45736 2.24123,-1.6512 3.31964,-1.18486c0.09106,-0.01005 0.18359,-0.0152 0.27733,-0.0152c1.38071,0 2.5,1.11929 2.5,2.5c0,0.00186 0,0.00373 -0.00001,0.00559c0.03942,0.27792 -0.01307,0.59996 -0.18749,0.99441z" fill="#00991b" stroke="none" stroke-width="0.5"/><path d="M320.87889,199.7767c0.13243,0.12588 0.24914,0.30164 0.33315,0.54468c0.40835,1.18143 -0.77308,1.58977 -0.77308,1.58977l-2.02429,-0.9142c-0.16454,-1.53785 0.36944,-2.78569 0.21444,-2.68457c-1.74328,1.13724 -6.85978,4.25619 -8.79707,2.71582c-0.62206,-0.4946 0.00572,-1.59234 0.0917,-2.3824c0.12773,-1.17372 0.00457,-2.72937 0.40826,-3.87043c-2.7637,1.23855 -5.69779,3.00573 -8.10422,4.67787c-0.84706,0.58859 -1.32867,1.81014 -2.33675,2.0286c-0.92624,0.20072 -2.14929,0.3345 -2.82386,-0.33123c-0.5499,-0.54269 -0.55153,-1.55898 -0.21229,-2.40882c-2.17874,0.57565 -4.18313,1.51756 -6.38353,1.98311c-0.84074,0.17789 -1.93881,0.69562 -2.57533,0.11829c-0.60166,-0.5457 -0.03956,-1.62659 0.01915,-2.43674c0.04133,-0.57037 0.16264,-1.33413 0.39787,-2.04161c-0.54345,0.27319 -1.08108,0.55638 -1.59811,0.87567c-0.77404,0.478 -1.37851,1.54937 -2.28632,1.49039c-0.42435,-0.02757 -2.06763,-2.23552 -2.68531,-3.84333c-0.01566,0.03366 -0.03093,0.06504 -0.04557,0.09367c-0.53197,1.04013 -1.41371,4.55772 -3.11897,4.31725c-0.88297,-0.12451 -1.10821,-1.40941 -1.5259,-2.19723c-0.43363,-0.81788 -1.06528,-2.76973 -1.19417,-4.38872c-0.809,0.9172 -1.64639,1.80609 -2.45491,2.73682c0,0 -0.8201,0.94337 -1.76347,0.12327c-0.94337,-0.8201 -0.12328,-1.76346 -0.12328,-1.76346c1.31506,-1.51166 2.70594,-2.91051 3.92065,-4.5087l0.03275,-0.0195l-0.00967,-0.00827l0.85931,-1.00423c0.22627,-0.26723 0.56293,-0.43843 0.94055,-0.4426c0.69032,-0.00762 1.2561,0.54581 1.26372,1.23613c0.00048,0.04347 -0.00127,0.08644 -0.00513,0.12881l-0.10857,1.3607l-0.18566,-0.01481c0.18378,1.40821 0.31553,2.81059 0.69894,4.21446c0.00159,0.00586 0.00392,0.01277 0.00689,0.02067c0.61418,-1.3744 1.99079,-4.13428 3.06534,-3.99562c1.54349,0.19917 1.87779,2.64212 2.35967,3.72288c0.19006,0.42627 0.56559,0.77024 0.6994,1.21486c0.87026,-1.44517 3.04538,-1.97754 4.48019,-2.77919l0.07719,-0.00753l-0.00942,-0.02283l1.2182,-0.50294c0.1499,-0.06598 0.31531,-0.10342 0.48943,-0.10534c0.69032,-0.00762 1.2561,0.54581 1.26372,1.23613c0.00214,0.19405 -0.04006,0.37827 -0.11717,0.54301l-0.59896,1.35726l-0.31631,-0.13958c-0.2935,0.71145 -0.62495,1.31574 -0.97506,2.50145c-0.00047,0.00159 -0.00013,0.04578 -0.0023,0.11769c0.22344,-0.11712 0.44191,-0.21567 0.6082,-0.28157c2.39781,-0.95022 4.99933,-1.49894 7.55311,-1.7848l1.23183,-0.13692c0.04626,-0.00571 0.09331,-0.00891 0.14101,-0.00944c0.69032,-0.00762 1.2561,0.54581 1.26372,1.23613c0.00034,0.03124 -0.00046,0.06222 -0.00238,0.0929c0.37771,-0.24253 0.75667,-0.47058 1.11467,-0.68412c2.49436,-1.48787 5.20382,-3.18148 7.87783,-4.29695l0.00857,-0.00099l-0.00083,-0.00211l1.59138,-0.63231c0.1459,-0.06194 0.30608,-0.09698 0.47441,-0.09884c0.69032,-0.00762 1.2561,0.54581 1.26372,1.23613c0.00217,0.19654 -0.04115,0.38299 -0.12014,0.54933l-0.53888,1.20227c-0.0989,1.03962 -0.1782,2.06726 -0.29497,3.15068c-0.0242,0.22456 -0.11873,0.56456 -0.24155,0.90553c0.55877,-0.26936 1.29019,-0.45858 1.7671,-0.71462c1.2263,-0.65833 4.51748,-2.88303 5.96314,-1.79168c0.8392,0.63353 0.68682,2.5548 0.65423,3.92601z" fill="#95e447" stroke="#95e447" stroke-width="2.5"/><path d="M329.32461,197.32399c0.27202,-1.39866 0.57532,-2.78758 0.91366,-4.16981c-0.68224,1.01286 -1.41211,1.93272 -2.27894,2.55747c-0.74496,0.5369 -1.76562,1.36992 -2.58434,0.95407c-0.40506,-0.20575 -0.68725,-1.04421 -0.80109,-2.03148c-0.99503,1.92644 -1.97432,3.84704 -2.67323,5.94967c0,0 -0.39529,1.18586 -1.58114,0.79057c-1.18586,-0.39529 -0.79057,-1.58114 -0.79057,-1.58114c1.13319,-3.39071 2.94796,-6.3307 4.44526,-9.54358l0.02835,-0.02919l-0.01012,-0.00552l0.73784,-1.35271c0.20835,-0.40034 0.62702,-0.67372 1.10953,-0.67372c0.5753,0 1.05983,0.38864 1.20535,0.91771l0.36693,1.22311l-0.4139,0.12417c0.17119,0.60441 0.25632,1.22467 0.21236,1.83812c-0.00015,0.00213 0.01246,0.06169 0.02925,0.15989c0.03262,-0.04495 0.06328,-0.08724 0.09136,-0.12632c1.39875,-1.94709 2.74896,-3.99448 4.42308,-5.68924l0.70185,-0.9358c0.22746,-0.31022 0.59457,-0.51164 1.00873,-0.51164c0.69036,0 1.25,0.55964 1.25,1.25c0,0.04347 -0.00222,0.08642 -0.00655,0.12875l-0.12358,1.35942l-0.47873,-0.04352c-0.16836,3.60765 -1.87924,7.41513 -2.5363,11.02895l-2.5199,0.09477c0,0 -0.66055,-0.99081 0.27486,-1.68301z" fill="#94e347" stroke="#95e447" stroke-width="2.5"/></g></g></svg>