<svg version="1.1" xmlns="http://www.w3.org/2000/svg" xmlns:xlink="http://www.w3.org/1999/xlink" width="204.59787" height="52.64333" viewBox="0,0,204.59787,52.64333"><g transform="translate(-137.70106,-153.67833)"><g data-paper-data="{&quot;isPaintingLayer&quot;:true}" fill-rule="nonzero" stroke-linejoin="miter" stroke-miterlimit="10" stroke-dasharray="" stroke-dashoffset="0" style="mix-blend-mode: normal"><path d="M137.7344,180.03974v-14.5l9.92973,-0.18247l3.11314,2.08931l3.31824,-1.4624l2.13889,2.46249l-0.96628,4.92192l1.96628,6.67115z" fill="#9a9a9a" stroke="none" stroke-width="0" stroke-linecap="butt"/><path d="M137.70106,193.53974v-27.83334l20.02088,15.04438l4.71698,5.75044l5.76544,3.72729l6.92773,3.31123z" fill="#9a9a9a" stroke="none" stroke-width="0" stroke-linecap="butt"/><path d="M137.76217,206.32167v-13.25h57.75v13.25z" fill="#9a9a9a" stroke="none" stroke-width="0" stroke-linecap="butt"/><path d="M180.38718,200.69667l-0.57345,-6.04545l2.129,-8.98234l-2.70292,-6.42302l1.14737,-7.29921h15.125v28.75z" fill="#9a9a9a" stroke="none" stroke-width="0" stroke-linecap="butt"/><path d="M220.68624,206.1538l0.85714,-12.4068l-0.85714,-21.9432h15.125l1.14737,8.72096l-2.70292,7.67411l2.129,10.73194l-0.57345,7.22299z" data-paper-data="{&quot;index&quot;:null}" fill="#9a9a9a" stroke="none" stroke-width="0" stroke-linecap="butt"/><path d="M194.16063,200.7126l7.11519,-4.39302l8.19127,-7.5538l6.28986,-3.41056l5.94012,8.35329l-19.0095,9.44009c0,0 -1.21793,-0.34946 -1.83938,-0.11669c-0.51291,0.19211 -1.62657,1.4149 -1.62657,1.4149z" fill="#9a9a9a" stroke="none" stroke-width="0" stroke-linecap="butt"/><path d="M235.32394,206.19145v-9.88889c0,0 7.55889,2.72702 11.22222,1.22222c1.81357,-0.74497 4.21868,-3.0802 6.91751,-3.21829c3.74164,-0.19144 7.63804,1.99607 7.63804,1.99607v9.88889z" fill="#9a9a9a" stroke="none" stroke-width="0" stroke-linecap="butt"/><path d="M261.03943,206.09701l-0.03841,-9.92889l31.29792,-27.07111v37z" fill="#9a9a9a" stroke="none" stroke-width="0" stroke-linecap="butt"/><path d="M291.28995,175.81952l0.78458,-6.57838l19.98338,2.38334l-0.78458,6.57838z" fill="#9a9a9a" stroke="none" stroke-width="0" stroke-linecap="butt"/><path d="M311.001,206.09702v-37l31.29793,27.0711l-0.03841,9.9289z" data-paper-data="{&quot;index&quot;:null}" fill="#9a9a9a" stroke="none" stroke-width="0" stroke-linecap="butt"/><path d="M298.52808,203.90263l7.01206,-26.94375l5.99395,2.29679l-7.01206,26.94375z" fill="#9a9a9a" stroke="none" stroke-width="0" stroke-linecap="butt"/><path d="M293.12998,169.74477l1.03912,-16.06643l1.89604,0.12263l-1.06843,9.07579l0.02931,6.99064z" fill="#9a9a9a" stroke="none" stroke-width="0" stroke-linecap="butt"/><path d="M308.29921,171.26785l0.54404,-4.2223l0.49509,-11.84413l1.89604,0.12262l-1.03912,16.06643z" fill="#9a9a9a" stroke="none" stroke-width="0" stroke-linecap="butt"/><path d="M294.30459,156.54415l0.28012,-2.83234l16.15197,1.59745l-0.28012,2.83234l-8.41446,-1.39348z" fill="#9a9a9a" stroke="none" stroke-width="0" stroke-linecap="butt"/><path d="M165.51428,189.02857c0,0 -11.6808,-3.45788 -15.89271,-7.03943c-4.60157,-3.9129 -10.65129,-15.53199 -10.65129,-15.53199" fill="none" stroke="#00ad0e" stroke-width="2" stroke-linecap="round"/><path d="M184.05714,177.77715c0,0 -6.04971,11.61909 -10.65129,15.53199c-4.21191,3.58155 -15.89271,7.03943 -15.89271,7.03943" data-paper-data="{&quot;index&quot;:null}" fill="none" stroke="#00ad0e" stroke-width="2" stroke-linecap="round"/><path d="M167.08524,191.48106c0,0 3.61089,-2.19282 6.71724,-3.48713c3.00863,-1.2536 11.63706,-4.16049 11.63706,-4.16049" fill="none" stroke="#00ad0e" stroke-width="2" stroke-linecap="round"/><path d="M205.06696,197.04695c0,0 -4.26221,1.51113 -6.28242,1.20033c-1.88243,-0.28961 -5.45471,-3.00605 -5.45471,-3.00605" fill="none" stroke="#00ad0e" stroke-width="2" stroke-linecap="round"/><path d="M223.50895,197.21501c0,0 -3.7817,2.47967 -5.81795,2.65729c-1.89737,0.1655 -6.01236,-1.62534 -6.01236,-1.62534" fill="none" stroke="#00ad0e" stroke-width="2" stroke-linecap="round"/><path d="M223.1241,179.17039c0,0 -9.48951,3.01405 -14.26572,2.98493c-5.07668,-0.03096 -15.34798,-3.1655 -15.34798,-3.1655" fill="none" stroke="#00ad0e" stroke-width="2" stroke-linecap="round"/><path d="M313.2498,185.49039c0,0 -1.3446,1.00553 -4.86644,0.96777c-3.06083,-0.03281 -8.20801,-1.07455 -10.00594,-1.47908c-3.24764,-0.73072 -6.79618,-4.36412 -6.79618,-4.36412" fill="none" stroke="#00ad0e" stroke-width="2" stroke-linecap="round"/><path d="M312.65209,189.94866c0,0 -3.54854,3.6334 -6.79618,4.36411c-1.79793,0.40454 -6.94511,1.44627 -10.00594,1.47908c-3.52184,0.03776 -4.86644,-0.96777 -4.86644,-0.96777" data-paper-data="{&quot;index&quot;:null}" fill="none" stroke="#00ad0e" stroke-width="2" stroke-linecap="round"/><path d="M311.15153,203.97724c0,0 -1.3446,1.00553 -4.86644,0.96777c-3.06083,-0.03281 -8.208,-1.07455 -10.00594,-1.47908c-3.24764,-0.73072 -6.79618,-4.36411 -6.79618,-4.36411" data-paper-data="{&quot;index&quot;:null}" fill="none" stroke="#00ad0e" stroke-width="2" stroke-linecap="round"/><path d="M309.41552,163.09953c0,0 -5.04429,2.51825 -7.57371,2.42612c-2.42337,-0.08827 -7.2983,-2.96783 -7.2983,-2.96783c0,0 -18.11261,11.85264 -28.16135,14.75904c-9.48001,2.74191 -30.52435,2.21467 -30.52435,2.21467" fill="none" stroke="#00ad0e" stroke-width="2" stroke-linecap="round"/><path d="M257.96982,179.17039l3.61143,18.59885" fill="none" stroke="#00ad0e" stroke-width="2" stroke-linecap="round"/></g></g></svg>