<svg version="1.1" xmlns="http://www.w3.org/2000/svg" xmlns:xlink="http://www.w3.org/1999/xlink" width="219.79148" height="213.09732" viewBox="0,0,219.79148,213.09732"><g transform="translate(-133.20767,-70.70134)"><g data-paper-data="{&quot;isPaintingLayer&quot;:true}" fill-rule="nonzero" stroke-linejoin="miter" stroke-miterlimit="10" stroke-dasharray="" stroke-dashoffset="0" style="mix-blend-mode: normal"><path d="M178.32584,197.47816c0,-9.51063 27.44291,-17.22051 61.29546,-17.22051c33.85254,0 61.29546,7.70989 61.29546,17.22051c0,9.51063 -27.44291,17.22051 -61.29546,17.22051c-33.85254,0 -61.29546,-7.70989 -61.29546,-17.22051z" data-paper-data="{&quot;index&quot;:null}" fill-opacity="0.10588" fill="#000000" stroke="none" stroke-width="0" stroke-linecap="butt"/><path d="M199.33542,122.77425l24.71926,-18.86444" data-paper-data="{&quot;index&quot;:null}" fill="none" stroke="#e7c945" stroke-width="1" stroke-linecap="round"/><path d="M133.20767,283.79866v-213.09732h219.79148v213.09732z" data-paper-data="{&quot;index&quot;:null}" fill="none" stroke="none" stroke-width="2.5" stroke-linecap="butt"/><path d="M301.75666,160.33627c0,48.75694 -29.55364,42.93393 -66.00976,42.93393c-36.45612,0 -66.00976,5.82301 -66.00976,-42.93393c0,-48.75694 29.55364,-42.93393 66.00976,-42.93393c36.45612,0 66.00976,-5.82301 66.00976,42.93393z" data-paper-data="{&quot;index&quot;:null}" fill="#a78629" stroke="#bfa661" stroke-width="2.5" stroke-linecap="butt"/><path d="M251.36661,202.91648c-20.3261,0 -17.8986,-9.69787 -17.8986,-21.66097c0,-11.9631 -2.4275,-21.66097 17.8986,-21.66097c20.32584,0 17.89833,9.69787 17.89833,21.66097c0,11.9631 2.4275,21.66097 -17.89833,21.66097z" data-paper-data="{&quot;index&quot;:null}" fill="#99895c" stroke="#bfa661" stroke-width="2.5" stroke-linecap="butt"/><path d="M249.13518,202.91648c-20.3261,0 -17.8986,-9.69787 -17.8986,-21.66097c0,-11.9631 -2.4275,-21.66097 17.8986,-21.66097c20.32584,0 17.89833,9.69787 17.89833,21.66097c0,11.9631 2.42776,21.66097 -17.89833,21.66097z" data-paper-data="{&quot;index&quot;:null}" fill="#99895c" stroke="#bfa661" stroke-width="2.5" stroke-linecap="butt"/><path d="M200.47628,206.60661l-12.44066,-23.46747l-3.11016,-11.59262l7.91666,9.61326l12.72342,25.44684z" data-paper-data="{&quot;index&quot;:null}" fill="#e6bb44" stroke="#bf931c" stroke-width="2.5" stroke-linecap="butt"/><path d="M212.54877,208.55373l-9.51986,-20.54669l-1.35784,-10.22936l8.50102,10.19737l7.46594,20.57868z" data-paper-data="{&quot;index&quot;:null}" fill="#e6bb44" stroke="#bf931c" stroke-width="2.5" stroke-linecap="butt"/><path d="M292.36169,199.25576l12.72316,-25.44684l7.91692,-9.613l-3.11016,11.59235l-12.44066,23.46747z" data-paper-data="{&quot;index&quot;:null}" fill="#e6bb44" stroke="#bf931c" stroke-width="2.5" stroke-linecap="butt"/><path d="M281.06783,207.04444l7.46594,-20.57868l8.50102,-10.19737l-1.35759,10.22936l-9.51986,20.54669z" data-paper-data="{&quot;index&quot;:null}" fill="#e6bb44" stroke="#bf931c" stroke-width="2.5" stroke-linecap="butt"/><path d="M281.32375,158.62832c0,0 3.25852,-1.90376 5.44685,-1.57611c2.1886,0.32792 5.20562,3.17157 5.20562,3.17157" data-paper-data="{&quot;index&quot;:null}" fill="none" stroke="#ccb168" stroke-width="2.5" stroke-linecap="round"/><path d="M276.69399,172.00938c0,0 2.42854,-3.25335 4.66073,-3.55082c2.23219,-0.29773 5.32636,2.21929 5.32636,2.21929" data-paper-data="{&quot;index&quot;:null}" fill="none" stroke="#ccb168" stroke-width="2.5" stroke-linecap="round"/><path d="M206.78433,160.46863c0,0 3.93188,-2.33179 7.54566,-1.10965c3.61403,1.22239 7.54592,6.21439 7.54592,6.21439" data-paper-data="{&quot;index&quot;:null}" fill="none" stroke="#ccb168" stroke-width="2.5" stroke-linecap="round"/><path d="M189.25131,169.5682c0,0 1.23736,-3.7825 5.77038,-3.99483c4.53302,-0.21259 8.43343,3.32894 8.43343,3.32894" data-paper-data="{&quot;index&quot;:null}" fill="none" stroke="#ccb168" stroke-width="2.5" stroke-linecap="round"/><path d="M210.55729,176.67011c0,0 5.30675,-2.48349 8.43343,-1.33178c3.12668,1.15196 4.21672,5.99225 4.21672,5.99225" data-paper-data="{&quot;index&quot;:null}" fill="none" stroke="#ccb168" stroke-width="2.5" stroke-linecap="round"/><path d="M273.14291,191.0958c0,0 1.05444,-6.12977 3.55108,-7.32378c2.49664,-1.19401 6.65815,2.44118 6.65815,2.44118" data-paper-data="{&quot;index&quot;:null}" fill="none" stroke="#ccb168" stroke-width="2.5" stroke-linecap="round"/><path d="M222.98556,155.14225c0,0 3.11714,-3.89163 6.21414,-3.99483c3.09701,-0.1032 7.10216,3.55108 7.10216,3.55108" data-paper-data="{&quot;index&quot;:null}" fill="none" stroke="#ccb168" stroke-width="2.5" stroke-linecap="round"/><path d="M178.15457,153.36672c0,0 1.62668,-3.49304 5.32636,-3.55082c3.6997,-0.0578 8.87745,3.32894 8.87745,3.32894" data-paper-data="{&quot;index&quot;:null}" fill="none" stroke="#ccb168" stroke-width="2.5" stroke-linecap="round"/><path d="M259.60499,153.81073c0,0 3.09803,-2.54359 5.32636,-2.21929c2.22858,0.32404 6.88003,3.99483 6.88003,3.99483" data-paper-data="{&quot;index&quot;:null}" fill="none" stroke="#ccb168" stroke-width="2.5" stroke-linecap="round"/><path d="M283.57402,150.25966c0,0 3.20097,-3.20846 5.99225,-3.10707c2.79128,0.10165 6.21414,3.55108 6.21414,3.55108" data-paper-data="{&quot;index&quot;:null}" fill="none" stroke="#ccb168" stroke-width="2.5" stroke-linecap="round"/><path d="M206.46003,148.23101c-16.78792,-2.23839 -41.28068,-13.38828 -41.28068,-13.38828l63.5206,-47.51545l-2.15763,-9.38493l20.0343,0.64525l-2.3145,9.36326l61.49454,46.89188c0,0 -17.27476,10.30185 -40.1651,13.38828c-22.89034,3.08643 -42.34389,2.23839 -59.13154,0z" data-paper-data="{&quot;index&quot;:null}" fill="#ffe77e" stroke="#cdb23d" stroke-width="2.5" stroke-linecap="round"/><path d="M260.5712,111.97098l27.33435,20.08254" data-paper-data="{&quot;index&quot;:null}" fill="none" stroke="#e7c945" stroke-width="2.5" stroke-linecap="round"/><path d="M265.59158,138.18974l-20.08229,-36.81783" data-paper-data="{&quot;index&quot;:null}" fill="none" stroke="#e7c945" stroke-width="2.5" stroke-linecap="round"/><path d="M243.83565,124.80146l-5.57843,-18.96671" data-paper-data="{&quot;index&quot;:null}" fill="none" stroke="#e7c945" stroke-width="2.5" stroke-linecap="round"/><path d="M235.46801,120.33862v20.08254" data-paper-data="{&quot;index&quot;:null}" fill="none" stroke="#e7c945" stroke-width="2.5" stroke-linecap="round"/><path d="M231.00516,105.27697l-11.15686,31.2394" data-paper-data="{&quot;index&quot;:null}" fill="none" stroke="#e7c945" stroke-width="2.5" stroke-linecap="round"/><path d="M210.36482,128.70652l-8.92543,10.04101" data-paper-data="{&quot;index&quot;:null}" fill="none" stroke="#e7c945" stroke-width="2.5" stroke-linecap="round"/><path d="M194.74513,125.35925l-10.04128,6.69427" data-paper-data="{&quot;index&quot;:null}" fill="none" stroke="#e7c945" stroke-width="2.5" stroke-linecap="round"/><path d="M251.0877,143.21038l-2.78921,-6.69401" data-paper-data="{&quot;index&quot;:null}" fill="none" stroke="#e7c945" stroke-width="2.5" stroke-linecap="round"/><path d="M272.84362,130.93768l6.69427,7.80985" data-paper-data="{&quot;index&quot;:null}" fill="none" stroke="#e7c945" stroke-width="2.5" stroke-linecap="round"/><path d="M234.46255,82.44333l1.95161,8.45657l-2.60204,3.25248" data-paper-data="{&quot;index&quot;:null}" fill="none" stroke="#e7c945" stroke-width="1" stroke-linecap="round"/><path d="M244.87044,96.10368l-3.90292,-5.20379" data-paper-data="{&quot;index&quot;:null}" fill="none" stroke="#e7c945" stroke-width="1" stroke-linecap="round"/></g></g></svg>