<svg version="1.1" xmlns="http://www.w3.org/2000/svg" xmlns:xlink="http://www.w3.org/1999/xlink" width="69.33333" height="82.85333" viewBox="0,0,69.33333,82.85333"><g transform="translate(-205.33333,-138.57334)"><g data-paper-data="{&quot;isPaintingLayer&quot;:true}" fill-rule="nonzero" stroke-linejoin="miter" stroke-miterlimit="10" stroke-dasharray="" stroke-dashoffset="0" style="mix-blend-mode: normal"><path d="M240.00002,169.43334c-4.58396,0 -8.3,-3.71603 -8.3,-8.3c0,-4.58396 3.71603,-8.3 8.3,-8.3c4.58396,0 8.3,3.71603 8.3,8.3c0,4.58397 -3.71603,8.3 -8.3,8.3z" data-paper-data="{&quot;index&quot;:null}" fill="#ff0000" stroke="none" stroke-width="0" stroke-linecap="butt"/><path d="M240.00005,185.43334v-24.2" data-paper-data="{&quot;index&quot;:null}" fill="none" stroke="#ff0000" stroke-width="5" stroke-linecap="round"/><path d="M242.50005,204.93334l-2.4,-18" data-paper-data="{&quot;index&quot;:null}" fill="none" stroke="#ff0000" stroke-width="5" stroke-linecap="round"/><path d="M239.90005,184.53335c0,0 -1.7258,7.0109 -2.5705,9.0721c-0.8213,2.0038 -2.4295,3.1279 -2.4295,3.1279" data-paper-data="{&quot;index&quot;:null}" fill="none" stroke="#ff0000" stroke-width="5" stroke-linecap="round"/><path d="M234.20595,186.53335c0,0 -0.8317,-5.5421 0.2475,-8.5811c1.223,-3.4436 4.7133,-11.4189 4.7133,-11.4189" data-paper-data="{&quot;index&quot;:null}" fill="none" stroke="#ff0000" stroke-width="5" stroke-linecap="round"/><path d="M246.40595,179.73335l-6.9607,-13.2" data-paper-data="{&quot;index&quot;:null}" fill="none" stroke="#ff0000" stroke-width="5" stroke-linecap="round"/><path d="M205.33334,221.42668v-82.85333h69.33333v82.85333z" fill="none" stroke="none" stroke-width="0" stroke-linecap="butt"/></g></g></svg>