<svg version="1.1" xmlns="http://www.w3.org/2000/svg" xmlns:xlink="http://www.w3.org/1999/xlink" width="69.33333" height="82.85333" viewBox="0,0,69.33333,82.85333"><g transform="translate(-205.33334,-138.57334)"><g data-paper-data="{&quot;isPaintingLayer&quot;:true}" fill-rule="nonzero" stroke-linejoin="miter" stroke-miterlimit="10" stroke-dasharray="" stroke-dashoffset="0" style="mix-blend-mode: normal"><path d="M239.99998,161.23334v24.2" data-paper-data="{&quot;index&quot;:null}" fill="none" stroke="#ff0000" stroke-width="5" stroke-linecap="round"/><path d="M249.89998,204.13334c0,0 -3.8378,-5.0993 -5.8081,-9.04c-1.9704,-3.9406 -3.9919,-10.56 -3.9919,-10.56" data-paper-data="{&quot;index&quot;:null}" fill="none" stroke="#ff0000" stroke-width="5" stroke-linecap="round"/><path d="M233.49998,202.73334c0,0 -1.4393,-6.7178 -0.6285,-9.8962c0.8537,-3.3463 7.0285,-8.3038 7.0285,-8.3038" data-paper-data="{&quot;index&quot;:null}" fill="none" stroke="#ff0000" stroke-width="5" stroke-linecap="round"/><path d="M240.15888,166.53334c0,0 6.7799,6.7213 8.1287,9.9824c1.2961,3.1338 -0.5876,8.6176 -0.5876,8.6176" data-paper-data="{&quot;index&quot;:null}" fill="none" stroke="#ff0000" stroke-width="5" stroke-linecap="round"/><path d="M239.84118,166.53334c0,0 -3.047,8.1547 -5.0192,11.6156c-1.5936,2.7965 -6.522,5.3844 -6.522,5.3844" data-paper-data="{&quot;index&quot;:null}" fill="none" stroke="#ff0000" stroke-width="5" stroke-linecap="round"/><path d="M240.00001,169.43333c-4.58396,0 -8.3,-3.71603 -8.3,-8.3c0,-4.58396 3.71603,-8.3 8.3,-8.3c4.58396,0 8.3,3.71603 8.3,8.3c0,4.58397 -3.71603,8.3 -8.3,8.3z" data-paper-data="{&quot;index&quot;:null}" fill="#ff0000" stroke="none" stroke-width="0" stroke-linecap="butt"/><path d="M205.33335,221.42667v-82.85333h69.33333v82.85333z" data-paper-data="{&quot;index&quot;:null}" fill="none" stroke="none" stroke-width="0" stroke-linecap="butt"/></g></g></svg>