<svg version="1.1" xmlns="http://www.w3.org/2000/svg" xmlns:xlink="http://www.w3.org/1999/xlink" width="159.58395" height="150.6443" viewBox="0,0,159.58395,150.6443"><g transform="translate(-191.03014,-69.93221)"><g data-paper-data="{&quot;isPaintingLayer&quot;:true}" fill-rule="nonzero" stroke-linejoin="miter" stroke-miterlimit="10" stroke-dasharray="" stroke-dashoffset="0" style="mix-blend-mode: normal"><path d="M305.00703,138.04947c0,3.50739 7.77134,9.90753 6.42082,12.91179c-1.30681,2.90702 -11.69709,2.43908 -13.98798,4.59467c-2.48227,2.33577 -1.37046,13.35382 -4.67091,14.4701c-2.41873,0.81807 -9.10086,-7.94278 -11.79572,-7.94278c-3.56784,0 -11.72684,7.40425 -14.7713,6.00959c-2.90522,-1.3309 -0.72649,-11.40549 -2.87014,-13.72133c-2.06784,-2.23385 -12.5802,-1.45223 -13.68497,-4.34828c-1.015,-2.66053 7.29252,-8.95682 7.29252,-11.97377c0,-3.40952 -8.83527,-11.42597 -7.55512,-14.36402c1.42985,-3.28168 13.11639,-1.40948 15.77425,-3.73395c1.84683,-1.61515 -0.14777,-12.83843 2.13256,-13.832c2.93805,-1.28016 12.76038,26.73184 16.1699,26.73184c3.21366,0 21.54608,1.94438 21.54608,5.19813z" data-paper-data="{&quot;index&quot;:null}" fill="#7fbe26" stroke="#71b123" stroke-width="2.5" stroke-linecap="butt"/><path d="M275.52775,116.90892c0,0 9.15576,10.7579 13.55266,13.02288c4.39701,2.26498 12.66454,0.48202 12.66454,0.48202l8.21732,-10.30638l5.08693,2.13235l-8.21732,16.34796l0.39129,12.08337l5.47821,-5.68622l2.34782,6.7524c0,0 -7.07907,9.18562 -8.6086,15.9926c-0.66689,2.9677 -0.50462,14.83602 0.78257,18.83566c2.28236,7.09165 7.68274,8.40529 9.9522,14.51915c1.77358,4.77805 -1.43443,7.6033 -3.15737,7.57004c-3.92747,-0.07591 -7.03973,-4.42952 -8.75126,-4.3196c-1.0103,0.06493 -2.23502,6.49363 -8.99882,6.18647c-6.76391,-0.30716 -8.61745,-7.13749 -9.78374,-7.25264c-3.46559,-0.34213 -5.38534,3.78545 -9.61368,3.78545c-2.00963,0 -3.63597,-2.17456 -1.09357,-6.6945c2.80713,-4.99034 8.22212,-11.77685 9.14201,-17.7036c0.79877,-5.146 0.87415,-41.50805 0.39139,-43.71311c-0.535,-2.44345 -14.08692,-18.83576 -14.08692,-18.83576z" data-paper-data="{&quot;index&quot;:null}" fill="#daae35" stroke="#bf931c" stroke-width="2" stroke-linecap="round"/><g data-paper-data="{&quot;index&quot;:null}" fill="none" stroke="#bf931c" stroke-width="1" stroke-linecap="round"><path d="M311.13624,198.29347c0,0 -8.11198,-7.05359 -9.25332,-21.29596c-1.05338,-13.14378 6.9055,-21.35097 6.9055,-21.35097"/><path d="M303.31019,196.87195l-3.91307,-12.08326c0,0 -1.71899,-16.03589 -1.56514,-19.90194c0.15385,-3.86605 2.73911,-9.59556 2.73911,-9.59556l2.73911,-10.30638"/><path d="M313.09266,205.04598l-6.65207,-7.10786"/><path d="M302.13624,201.13664c0,0 -3.44502,-4.07886 -4.69564,-7.10786c-1.25062,-3.02889 -1.17386,-7.10775 -1.17386,-7.10775"/><path d="M295.48416,176.97012c0,0 -1.66994,4.91985 -1.95653,8.17392c-0.28669,3.25417 1.168,5.91172 0.39129,9.59556c-0.77671,3.68395 -3.91307,7.10786 -3.91307,7.10786"/><path d="M294.70149,200.42593l3.1305,6.39704"/><path d="M284.91893,198.29358l4.69564,-8.52939"/><path d="M290.29937,186.86772c0,0 -1.42164,-5.57118 -0.88045,-8.47608c0.54119,-2.905 3.71743,-6.7525 3.71743,-6.7525"/><path d="M289.61457,138.58776c0,0 -0.2659,7.99086 0,11.37255c0.26601,3.38169 1.56525,3.64344 1.56525,8.52939c0,4.88595 -1.56525,12.43872 -1.56525,12.43872"/><path d="M291.96238,148.53878c0,0 2.48792,5.51265 2.73911,9.2401c0.2513,3.72755 -1.56514,8.17403 -1.56514,8.17403"/><path d="M299.00585,143.20792l-2.73911,7.46321"/><path d="M281.00597,198.29358l-2.73911,4.62005"/></g><path d="M339.14668,108.46707c0,3.01653 6.68352,8.52076 5.52214,11.10452c-1.12386,2.50018 -10.05988,2.0977 -12.03017,3.95156c-2.1348,2.00878 -1.17855,11.48471 -4.01702,12.4448c-2.08021,0.70357 -7.827,-6.83108 -10.14475,-6.83108c-3.06845,0 -10.08536,6.36793 -12.70378,5.16838c-2.49847,-1.14454 -0.62478,-9.80901 -2.4683,-11.80073c-1.77848,-1.92114 -10.81942,-1.24902 -11.76959,-3.73971c-0.87298,-2.28811 6.27187,-7.70299 6.27187,-10.29774c0,-2.9323 -7.59873,-9.82671 -6.49769,-12.35354c1.22972,-2.82238 11.28054,-1.21213 13.56631,-3.21121c1.58838,-1.38912 -0.12709,-11.04151 1.83403,-11.89594c2.52694,-1.10104 8.83484,6.79088 11.76714,6.79088c2.76384,0 9.21249,-7.66685 11.62225,-6.68267c2.43845,0.99602 0.83268,10.65363 2.70126,12.45013c2.04225,1.96336 10.71834,1.11757 11.81906,3.77639c1.00775,2.43408 -5.47277,8.32756 -5.47277,11.12595z" data-paper-data="{&quot;index&quot;:null}" fill="#7fbe26" stroke="#71b123" stroke-width="2.5" stroke-linecap="butt"/><path d="M305.96849,109.20248c0,4.17642 9.25364,11.79732 7.64553,15.37465c-1.55597,3.46155 -13.92828,2.90437 -16.65608,5.47118c-2.95575,2.78122 -1.63189,15.90091 -5.5618,17.23021c-2.88006,0.97405 -10.8368,-9.45792 -14.04577,-9.45792c-4.24838,0 -13.96357,8.81662 -17.58877,7.15584c-3.4593,-1.58466 -0.86498,-13.58092 -3.41751,-16.33847c-2.46232,-2.65999 -14.97984,-1.72933 -16.29539,-5.17776c-1.20862,-3.16802 8.68366,-10.66514 8.68366,-14.25772c0,-4.05988 -10.52068,-13.60533 -8.99637,-17.10387c1.70268,-3.90763 15.61838,-1.67826 18.7831,-4.44605c2.19909,-1.92327 -0.17591,-15.28732 2.53931,-16.47035c3.49854,-1.52441 12.2321,9.40216 16.29198,9.40216c3.8267,0 12.75495,-10.61493 16.09143,-9.25225c3.37615,1.37899 1.15296,14.7504 3.74003,17.23757c2.8276,2.71842 14.83996,1.54734 16.36395,5.22862c1.3952,3.37007 -7.57729,11.52981 -7.57729,15.40418z" data-paper-data="{&quot;index&quot;:null}" fill="#7fbe26" stroke="#71b123" stroke-width="2.5" stroke-linecap="butt"/><path d="M349.36409,160.75178c-0.88545,1.96976 -7.92561,1.65268 -9.47785,3.11323c-1.68189,1.58263 -0.92853,9.04819 -3.16483,9.80453c-1.63882,0.5543 -6.16643,-5.38183 -7.99236,-5.38183c-2.41755,0 -7.94577,5.01688 -10.0086,4.07193c-1.96848,-0.90177 -0.49225,-7.72805 -1.9447,-9.29714c-1.40106,-1.51364 -8.52395,-0.98397 -9.27251,-2.94626c-0.68779,-1.80269 4.94118,-6.06888 4.94118,-8.11305c0,-2.31018 -5.98656,-7.7418 -5.11912,-9.73267c0.96883,-2.2235 8.8873,-0.95497 10.68817,-2.52992c1.25137,-1.09432 -0.10022,-8.69891 1.44488,-9.37209c1.99076,-0.86744 6.96041,5.35016 9.2707,5.35016c2.17744,0 7.25787,-6.0403 9.1564,-5.26487c1.92114,0.78471 0.65612,8.39334 2.12819,9.80869c1.60896,1.54691 8.44441,0.88044 9.31164,2.97526c0.79387,1.91762 -4.31171,6.56081 -4.31171,8.76544c0,2.3765 5.26562,6.71305 4.35052,8.74859z" data-paper-data="{&quot;index&quot;:null}" fill="#7fbe26" stroke="#71b123" stroke-width="2.5" stroke-linecap="butt"/><path d="M191.03014,199.07607c0,-11.87439 32.62277,-21.50045 72.865,-21.50045c40.24224,0 72.865,9.62608 72.865,21.50045c0,11.87439 -32.62277,21.50045 -72.865,21.50045c-40.24224,0 -72.865,-9.62608 -72.865,-21.50045z" data-paper-data="{&quot;index&quot;:null}" fill-opacity="0.10588" fill="#1a1a1a" stroke="none" stroke-width="0" stroke-linecap="butt"/><path d="M243.20523,170.19846c2.09129,2.07931 10.51411,1.23972 11.50473,3.82591c0.95861,2.50239 -5.47976,8.42012 -5.55261,11.06395c-0.07879,2.86458 7.14965,8.73322 5.85874,11.36288c-0.946,1.92703 -10.13086,0.71774 -11.72841,2.32446c-2.11497,2.12736 -2.53698,11.38133 -5.17331,12.36975c-2.51573,0.94319 -7.23105,-6.32809 -9.88248,-6.42273c-2.55784,-0.0914 -8.3236,6.63986 -10.70529,5.5818c-2.18792,-0.97196 -1.0172,-9.65776 -2.81612,-11.44626c-2.03282,-2.02114 -12.05018,-1.5053 -13.04308,-4.01039c-1.10901,-2.79788 6.93513,-8.65599 7.12473,-11.61866c0.13185,-2.05856 -7.7423,-7.52258 -6.98297,-9.47118c0.97842,-2.51062 10.79762,-1.44413 12.81888,-3.47695c1.90503,-1.9161 1.03471,-11.67142 3.37814,-12.66359c2.37126,-1.00406 7.95982,6.76607 10.49327,6.70885c2.76892,-0.06243 8.16279,-6.66037 10.76481,-5.59086c2.38201,0.97927 2.00094,9.53425 3.94099,11.46305z" data-paper-data="{&quot;index&quot;:null}" fill="#7fbe26" stroke="#71b123" stroke-width="2.5" stroke-linecap="butt"/><path d="M278.91365,154.66231c2.89533,2.87875 14.55714,1.71637 15.92872,5.29703c1.32727,3.46465 -7.587,11.65807 -7.6878,15.31835c-0.10914,3.96621 9.89894,12.09167 8.11158,15.73247c-1.30979,2.668 -14.02651,0.99364 -16.2383,3.21835c-2.92836,2.94526 -3.51258,15.75777 -7.16276,17.12634c-3.48298,1.30591 -10.01151,-8.76159 -13.68264,-8.8926c-3.54136,-0.12653 -11.52423,9.19311 -14.82179,7.72823c-3.02938,-1.34574 -1.40838,-13.37152 -3.89899,-15.84775c-2.81465,-2.79841 -16.68397,-2.08421 -18.05868,-5.55251c-1.53553,-3.87385 9.60189,-11.98461 9.86445,-16.08653c0.1825,-2.8502 -10.71955,-10.41521 -9.66818,-13.11313c1.3547,-3.47612 14.94978,-1.99947 17.74819,-4.81403c2.63758,-2.6529 1.43266,-16.15939 4.67707,-17.53316c3.28318,-1.39012 11.02078,9.36779 14.52837,9.28868c3.83361,-0.08651 11.30169,-9.22164 14.90423,-7.74073c3.29809,1.35574 2.77046,13.20047 5.45651,15.87099z" data-paper-data="{&quot;index&quot;:null}" fill="#7fbe26" stroke="#71b123" stroke-width="2.5" stroke-linecap="butt"/><path d="M298.40295,180.04846c1.64758,1.63809 8.28346,0.97665 9.06395,3.01416c0.75525,1.97154 -4.31715,6.63381 -4.37459,8.71665c-0.06212,2.25683 5.63287,6.88043 4.61578,8.95212c-0.74534,1.51823 -7.9815,0.56545 -9.24009,1.83134c-1.66636,1.67604 -1.99876,8.96671 -4.07577,9.74542c-1.98196,0.74307 -5.69697,-4.98549 -7.78587,-5.06011c-2.01511,-0.07204 -6.55761,5.23115 -8.43409,4.39751c-1.72378,-0.76569 -0.80143,-7.60868 -2.21867,-9.01778c-1.60151,-1.59235 -9.49359,-1.18595 -10.27584,-3.15957c-0.87378,-2.20428 5.4638,-6.81954 5.61316,-9.15369c0.10381,-1.62185 -6.09973,-5.92659 -5.50144,-7.46171c0.77078,-1.97811 8.50672,-1.13779 10.09917,-2.73941c1.50093,-1.50958 0.8152,-9.19518 2.66144,-9.97681c1.86813,-0.7911 6.27106,5.33051 8.26699,5.28547c2.18146,-0.04921 6.43096,-5.24742 8.48098,-4.40471c1.8767,0.7714 1.57651,7.51141 3.10485,9.03111z" data-paper-data="{&quot;index&quot;:null}" fill="#7fbe26" stroke="#71b123" stroke-width="2.5" stroke-linecap="butt"/></g></g></svg>