<svg version="1.1" xmlns="http://www.w3.org/2000/svg" xmlns:xlink="http://www.w3.org/1999/xlink" width="72.05206" height="198.57727" viewBox="0,0,72.05206,198.57727"><g transform="translate(-230.37687,-10.2286)"><g data-paper-data="{&quot;isPaintingLayer&quot;:true}" fill-rule="nonzero" stroke-linecap="butt" stroke-linejoin="miter" stroke-miterlimit="10" stroke-dasharray="" stroke-dashoffset="0" style="mix-blend-mode: normal"><path d="M300.76323,200.52247c0,4.57479 -15.75651,8.2834 -35.19317,8.2834c-19.43664,0 -35.19319,-3.70861 -35.19319,-8.2834c0,-4.57479 15.75652,-8.28339 35.19319,-8.28339c19.43664,0 35.19317,3.70861 35.19317,8.28339z" fill-opacity="0.10588" fill="#1a1a1a" stroke="none" stroke-width="0"/><path d="M248.27416,201.04974c0,0 -0.60266,-0.48557 1.98537,-2.16325c2.01884,-1.3087 7.37114,-3.48932 7.37114,-5.77338c0,-4.88109 0,-11.61557 0,-19.39406c0,-4.43063 4.08698,-40.58222 0,-14.15848c-1.37757,8.90645 0,-18.64957 0,-28.01339c0,-9.44248 3.92974,-11.68313 3.92974,-19.6487c0,-2.48121 -2.76373,10.01046 -3.76068,6.03319c-0.55954,-2.23227 1.22316,-11.2905 1.3489,-17.78389c0.09168,-4.73373 -1.51797,-7.48886 -1.51797,-8.27227c0,-23.98332 0,-63.32725 0,-63.32725h12.64945c0,0 -0.0523,18.53242 -1.16756,25.85867c-0.65164,4.2808 -2.62749,-3.14699 -2.62749,0.49759c0,9.70367 3.79506,12.68021 3.79506,27.44119c0,0.9672 0,1.9405 0,2.91928c0,1.592 -2.18945,0.27922 -2.18945,1.89752c0,1.45079 2.18945,5.83034 2.18945,7.29819c0,18.58412 0,38.37999 0,55.46623c0,1.83301 -1.45963,8.15973 -1.45963,9.92554c0,2.30297 1.45963,0.01979 1.45963,2.18946c0,0.63884 0,1.27144 0,1.89751c0,13.82337 0,24.46927 0,28.98651c0,2.40662 10.10505,5.92372 10.10505,7.48522c0,1.43341 -14.77588,4.22399 -14.77588,4.22399z" data-paper-data="{&quot;index&quot;:null}" fill="#a66221" stroke="#000000" stroke-width="2.5"/><path d="M267.64886,73.81084c0.62013,3.10064 1.08798,12.71371 -4.73418,9.38678c-2.83489,-1.61993 -3.12307,-11.81299 -2.77665,-14.75086c0.07866,-0.66697 0.2785,-1.28925 0.56463,-1.85195c0.99174,-1.95018 1.39844,-4.60336 3.01245,-4.49952c1.41337,0.09094 2.20478,2.93104 2.00782,5.49148z" data-paper-data="{&quot;index&quot;:null}" fill="#89501b" stroke="none" stroke-width="0.5"/><path d="M265.94134,132.4791c1.55599,0.88913 -0.1452,4.76848 -0.27139,6.03318c-0.36401,3.64814 5.64682,15.93708 -1.56595,16.33779c-3.87507,0.21529 -3.28059,-4.205 -3.31752,-6.80386c-0.06725,-4.73426 -2.81594,-9.84393 -1.02101,-13.81288c0.5701,-1.2606 1.59852,-2.40611 3.31679,-3.38798z" data-paper-data="{&quot;index&quot;:null}" fill="#89501b" stroke="none" stroke-width="0.5"/><path d="M269.58621,31.15102c-0.82573,0.48862 -1.72107,-0.10209 -1.72107,-0.10209l0.17076,-0.09713c-2.23572,-0.26859 -4.53274,-0.76097 -6.78922,-0.55815c-1.35423,0.12172 -3.23969,0.75003 -4.50704,-0.11678c-0.29822,-0.20396 -1.62348,-3.24123 -1.93217,-3.93066c-1.8541,-4.14115 -2.65558,-7.71659 0.55785,-11.45349c1.97009,-2.19887 3.83583,-4.05293 6.93065,-4.53029c11.81716,-1.82273 20.8398,15.48693 8.14684,20.67451c0,0 -0.39042,0.15585 -0.85662,0.11407zM269.21295,27.95582c9.17911,-3.55121 1.48507,-15.59786 -6.46831,-14.30634c-2.25572,0.3663 -3.48223,1.86327 -4.90784,3.4563c-2.40882,2.52877 -1.25,5.0946 -0.00132,7.8851c0.36758,0.82143 0.15349,1.96348 0.81474,2.5739c0.5749,0.53071 1.51888,-0.41089 2.29864,-0.47525c2.51053,-0.20721 4.99686,0.26979 7.48274,0.56842l0.68994,0.34038c0.05681,-0.0287 0.09141,-0.04251 0.09141,-0.04251z" data-paper-data="{&quot;index&quot;:null}" fill="#000000" stroke="#000000" stroke-width="0"/><path d="M269.24708,28.01276c0,0 -0.03529,0.01422 -0.0921,0.04289l-0.69314,-0.33863c-2.48588,-0.29865 -5.03771,-0.7785 -7.54823,-0.57128c-0.77979,0.06436 -1.73345,0.99855 -2.30836,0.46781c-0.66125,-0.61043 -0.45917,-1.76728 -0.82675,-2.58872c-1.24867,-2.7905 -2.40943,-5.42085 -0.00059,-7.94962c1.4256,-1.59303 2.69171,-3.12292 4.94743,-3.48923c7.95339,-1.29153 15.70083,10.87552 6.52172,14.42674z" data-paper-data="{&quot;noHover&quot;:false,&quot;origItem&quot;:[&quot;Path&quot;,{&quot;applyMatrix&quot;:true,&quot;segments&quot;:[[[481.80828,321.93739],[-0.08559,-0.04323],[0,0]],[[482.84812,321.4244],[0,0],[3.74658,-0.45011]],[[494.12574,320.5677],[-3.78374,-0.3123],[1.17523,0.097]],[[497.59014,321.28397],[-0.86646,0.79988],[0.99659,-0.92]],[[498.81805,317.40471],[-0.55398,1.23802],[1.88194,-4.20569]],[[498.81607,305.5207],[3.63047,3.81124],[-2.1486,-2.40093]],[[491.41924,300.31153],[3.39971,0.55207],[-11.98695,-1.94652]],[[481.67052,321.87334],[-13.8343,-5.35222],[0,0]]],&quot;closed&quot;:true}],&quot;index&quot;:null}" fill="#d0b500" stroke="none" stroke-width="0.5"/><path d="M270.19773,30.89138c-0.02522,-0.06243 -0.04849,-0.12871 -0.06958,-0.19899c-0.47663,-1.58882 1.11218,-2.06544 1.11218,-2.06544c0.13557,-0.03932 0.27302,-0.076 0.4123,-0.11004c0.32892,-0.28759 0.96075,-0.66655 1.74027,-0.28297c6.47415,-0.57846 15.36356,3.41232 17.28585,9.50498c1.32247,4.19155 0.41424,9.84251 -0.61509,13.99713c-0.48724,2.41531 -1.09457,6.18036 -0.37838,8.60702c0.48993,1.66004 2.74933,2.66826 3.86901,3.79643c1.96408,1.97892 4.15917,5.06294 5.13891,7.64955c1.95332,5.157 1.41505,12.47946 1.41505,17.95984c0,9.39029 -0.45032,19.48911 1.44384,28.70327l0.54324,0.50918c0,0 0.7544,1.05614 -0.00565,1.96727c0.20425,0.41663 0.51018,1.3782 -0.52534,2.10306c-1.35891,0.95124 -2.31015,-0.40767 -2.31015,-0.40767c-0.92793,-1.32576 -1.67154,-2.68005 -2.28617,-4.06779c0.32842,8.645 0.87576,17.23652 0.87576,25.913v1.96805c0,0.91612 -0.74265,1.65877 -1.65877,1.65877c-0.6811,0 -1.26631,-0.41049 -1.52175,-0.99757l-0.96835,-2.09811l0.44459,-0.2052c-0.59575,-1.00859 -1.10166,-2.05772 -1.53715,-3.13891c-0.0043,0.17633 -0.00667,0.34881 -0.00667,0.51693c0,9.57666 -0.49201,19.13542 -0.49201,28.70058l-0.4881,-0.09652c-0.05667,0.35704 -0.25763,0.7371 -0.74255,1.06038c-1.38019,0.9201 -2.3003,-0.46006 -2.3003,-0.46006c-1.53451,-2.30511 -2.79977,-4.86987 -3.82598,-7.50294c-0.0517,0.15504 -0.09891,0.31111 -0.13913,0.46787l-0.16138,0.15832l0.06854,0.03806l-0.80394,1.44706c-0.27855,0.52476 -0.83058,0.88215 -1.4661,0.88215c-0.77758,0 -1.43022,-0.53505 -1.6098,-1.25707l-0.48254,-1.76928l0.51223,-0.13971c-0.96117,-3.30622 -0.57068,-6.64736 -0.57068,-10.46493c0,-4.89496 -0.00509,-9.79 -0.00656,-14.68499c-0.23706,0.8991 -0.45564,1.80456 -0.64615,2.71969c-0.20486,0.98399 -0.60949,4.50834 -1.71286,4.6677c-4.20135,0.60683 -3.79017,-2.74428 -3.86653,-4.83866c-0.07553,-2.07206 0.15486,-4.18099 0.0067,-6.24716c-0.13849,-1.9313 -0.49721,-3.76178 -0.4987,-5.72509c0,-8.18271 1.11518,-17.53027 0.1583,-25.97827c-0.5961,0.94661 -1.20597,1.78496 -1.54745,2.29788l-0.06053,0.14972c0,0 -0.74184,1.48364 -2.22547,0.74182c-1.48363,-0.74182 -0.7418,-2.22546 -0.7418,-2.22546l0.26747,-0.5063c0.5622,-0.84223 0.99483,-1.66768 1.36756,-2.48347c-0.20973,-0.2778 -0.3341,-0.62366 -0.3341,-0.99856c0,-0.17925 0.02843,-0.35185 0.08105,-0.51356l0.28295,-0.94313c-0.37456,-1.67002 -0.8425,-3.3197 -1.28663,-4.98447c-0.4439,-1.66382 -2.22477,-3.4577 -2.34073,-5.13249c-0.07064,-1.02037 0.12718,-2.10953 0.62179,-3.00481c0.3988,-0.72182 1.59262,-0.98969 1.68778,-1.80884c0.73035,-6.28729 0.22872,-12.26358 -1.42024,-18.34629c-1.09146,-2.73352 -2.40809,-6.01443 -2.81558,-8.94683c-0.14929,-1.07439 -0.90072,-2.41105 -0.20993,-3.24734c1.14138,-1.38177 2.67722,-1.3082 3.58864,-0.48003c-0.01657,-0.50254 0.11878,-1.01116 0.18448,-1.51273c0.2377,-1.81501 0.64245,-3.3702 0.64245,-5.20052c0,-4.94868 0.82001,-9.90841 0.82001,-14.9243zM270.27465,88.08319c0.79886,2.21071 1.6681,4.34395 2.46262,6.55104c0.29758,-0.2832 0.70018,-0.45703 1.14341,-0.45703c0.81538,0 1.49332,0.58828 1.63258,1.36359l0.3162,1.58103c2.4753,9.93962 0.85801,21.80068 0.85801,32.00681c-0.00155,1.872 0.35412,3.5841 0.4853,5.42715c0.0375,0.52678 0.06358,1.07488 0.07978,1.6338c0.90983,-3.66551 1.74573,-7.63067 2.9058,-11.34595c0.08791,-0.57141 0.1758,-1.14282 0.26371,-1.71424v-1.70894c0,-0.91611 0.74265,-1.65876 1.65877,-1.65876c0.91612,0 1.65877,0.74265 1.65877,1.65876v1.96805h-0.01059c-0.03115,0.20248 -0.0623,0.40494 -0.09346,0.60741c0.45197,0.75917 0.13275,1.85459 -0.22456,3.1185c0.02174,9.36348 0.0006,18.72724 0.0006,28.09073c0,0.38079 0.03659,0.89845 0.0815,1.49132c0.30272,-0.32371 0.73364,-0.52604 1.21179,-0.52604c0.82476,0 1.50896,0.60194 1.63719,1.39048l0.31047,1.70768c0.58075,1.94919 1.3124,3.91976 2.19372,5.81009c0.13122,-6.92196 0.43197,-13.84173 0.43197,-20.77346c0,-3.0333 0.10282,-6.08947 0.00123,-9.12052c-0.02048,-0.61124 -0.37543,-3.76826 -0.15416,-4.35497c0.02275,-0.0603 0.0462,-0.12025 0.07037,-0.17988l-0.03734,-0.0088l0.6483,-2.75526c0.15959,-0.74946 0.82533,-1.31163 1.62239,-1.31163c0.87826,0 1.59709,0.68254 1.655,1.54612l0.15925,2.0703c0.33955,2.20397 0.52597,4.52386 1.1657,6.68337c-0.1758,-6.20142 -0.50762,-12.38032 -0.70192,-18.59651c-0.11787,-3.77073 -0.44164,-6.89814 0.30978,-10.15161l-0.46877,-0.03907l0.16269,-1.9524c0.06251,-0.85908 0.77931,-1.53664 1.65434,-1.53664c0.6806,0 1.26548,0.40992 1.5212,0.99631c-0.19523,-5.31147 -0.09545,-10.66051 -0.09545,-15.84515c0,-5.11095 0.57413,-11.99101 -1.20898,-16.80884c-1.74247,-4.70806 -7.55866,-7.06632 -9.03242,-11.51447c-0.97634,-2.94679 -0.30894,-7.4629 0.27763,-10.41735c0.88883,-3.52084 1.8453,-8.67761 0.69691,-12.24338c-1.48001,-4.59553 -9.18891,-7.88901 -14.11745,-7.22409c-0.02578,6.7833 -0.61883,13.39042 -1.48872,20.08791c-0.16044,1.2352 -0.10534,3.9642 -1.32411,4.67827c-0.44792,0.26243 -1.39005,0.13417 -2.15264,-0.12252c0.13231,0.41673 0.22936,0.87453 0.31578,1.19235c0.63576,2.3379 1.36793,4.71411 2.26852,6.96149c1.64706,6.00658 2.25083,11.82566 1.7202,18.05017c-0.11774,1.38104 -0.15782,3.15681 -1.01662,4.34526c-0.42637,0.59003 -1.83116,0.30661 -1.45428,1.34958z" data-paper-data="{&quot;index&quot;:null}" fill="#000000" stroke="none" stroke-width="0.5"/><path d="M270.22338,88.04107c-0.37689,-1.04298 1.03351,-0.76557 1.45989,-1.3556c0.85881,-1.18845 0.90938,-2.97235 1.02712,-4.35339c0.53063,-6.22451 -0.05952,-12.05005 -1.70657,-18.05665c-0.90059,-2.24737 -1.63259,-4.62363 -2.26835,-6.96154c-0.08641,-0.31781 -0.18334,-0.77565 -0.31565,-1.19238c0.76259,0.25669 1.7076,0.38405 2.15554,0.12162c1.21875,-0.71406 1.1671,-3.44396 1.32754,-4.67917c0.86989,-6.6975 1.46869,-13.30567 1.49448,-20.08897c4.92853,-0.66492 12.65195,2.62815 14.13197,7.22368c1.14838,3.56579 0.1807,8.85476 -0.70813,12.3756c-0.58657,2.95445 -1.2412,7.33849 -0.26487,10.28529c1.47377,4.44816 7.31314,6.81331 9.0556,11.52136c1.78314,4.81784 1.23566,11.72275 1.23566,16.83369c0,5.18465 -0.09762,10.59832 0.09761,15.9098c-0.25571,-0.5864 -0.84018,-0.9971 -1.52079,-0.9971c-0.87503,0 -1.59716,0.68645 -1.65967,1.54552l-0.16747,1.95836l0.4696,0.03813c-0.75143,3.25347 -0.44568,6.39547 -0.32782,10.1662c0.19429,6.21618 0.51337,12.40047 0.68919,18.60189c-0.63973,-2.15953 -0.86636,-4.60585 -1.20589,-6.80983l-0.16025,-2.06995c-0.05791,-0.86358 -0.73525,-1.42009 -1.61349,-1.42009c-0.79706,0 -1.46687,0.56327 -1.62647,1.31274l-0.6508,2.75583l0.0374,0.00879c-0.02416,0.05964 -0.04782,0.11964 -0.07057,0.17993c-0.22126,0.58671 0.13245,3.74396 0.15296,4.3552c0.10159,3.03105 -0.00349,6.08759 -0.00349,9.12089c0,6.93173 -0.30408,13.85188 -0.4353,20.77385c-0.88131,-1.89032 -1.61475,-3.86075 -2.19549,-5.80993l-0.3107,-1.70766c-0.12823,-0.78853 -0.81418,-1.3904 -1.63894,-1.3904c-0.47817,0 -0.91048,0.20235 -1.21319,0.52606c-0.04491,-0.59288 -0.08331,-1.24324 -0.08331,-1.62401c0,-9.36348 0.02031,-18.72723 -0.00144,-28.09071c0.35729,-1.26391 0.68075,-2.22669 0.22878,-2.98586c0.03115,-0.20248 0.05699,-0.53753 0.08814,-0.74001h0.01057l0.00592,-1.83548c0,-0.91611 -0.74751,-1.65872 -1.66362,-1.65872c-0.91612,0 -1.66338,0.74236 -1.66338,1.65847l0.01236,1.57682c-0.08792,0.57141 -0.188,1.27496 -0.2759,1.84636c-1.16006,3.71528 -1.99912,7.68007 -2.90895,11.34558c-0.0162,-0.55894 -0.04283,-1.10711 -0.08032,-1.63389c-0.13118,-1.84305 -0.48955,-3.55559 -0.488,-5.42761c0,-10.20613 1.56446,-22.14329 -0.91083,-32.08292l-0.31276,-1.5937c-0.13925,-0.77528 -0.69508,-1.31194 -1.51044,-1.31194c-0.44322,0 -0.96829,0.12301 -1.26586,0.40621c-0.7945,-2.20709 -1.65271,-4.35967 -2.45158,-6.57036z" data-paper-data="{&quot;noHover&quot;:false,&quot;origItem&quot;:[&quot;Path&quot;,{&quot;applyMatrix&quot;:true,&quot;segments&quot;:[[[406.18694,412.4943],[0,0],[1.204,3.33186]],[[409.89848,422.3677],[-1.19744,-3.32642],[0.44848,-0.42682]],[[411.62176,421.67888],[-0.668,0],[1.22888,0]],[[414.0823,423.734],[-0.20988,-1.16848],[0,0]],[[414.55886,426.11686],[0,0],[3.73064,14.9805]],[[415.852,474.35592],[0,-15.38216],[-0.00234,2.8214]],[[416.58342,482.53544],[-0.1977,-2.77776],[0.0565,0.79394]],[[416.70366,484.99784],[-0.02442,-0.8424],[1.37124,-5.52446]],[[421.08314,467.8978],[-1.7484,5.5995],[0.13248,-0.8612]],[[421.4806,465.3142],[-0.1325,0.8612],[0,0]],[[421.4806,462.73856],[0,0],[0,-1.38072]],[[423.9806,460.23856],[-1.38072,0],[1.38072,0]],[[426.4806,462.73856],[0,-1.38072],[0,0]],[426.4806,465.7047],[[426.46462,465.7047],[0,0],[-0.04694,0.30516]],[[426.32378,466.62016],[0.04694,-0.30516],[0.68118,1.14418]],[[425.98534,471.3202],[0.5385,-1.90488],[0.03278,14.11216]],[[425.98624,513.65714],[0,-14.11216],[0,0.5739]],[[426.10908,515.9048],[-0.0677,-0.89356],[0.45624,-0.48788]],[[427.93544,515.11198],[-0.72066,0],[1.24304,0]],[[430.40292,517.20764],[-0.19326,-1.18844],[0,0]],[[430.87086,519.78136],[0,0],[0.87528,2.93772]],[[434.17712,528.53802],[-1.32828,-2.849],[0.19776,-10.43244]],[[434.82818,497.2293],[0,10.44714],[0,-4.57164]],[[434.83002,483.4833],[0.15312,4.56824],[-0.03088,-0.92124]],[[434.59768,476.9197],[-0.33348,0.88426],[0.03428,-0.09088]],[[434.70374,476.64858],[-0.03642,0.08988],[0,0]],[434.64746,476.63532],[[435.62454,472.48272],[0,0],[0.24052,-1.12956]],[[438.06972,470.5059],[-1.20128,0],[1.32366,0]],[[440.56404,472.83614],[-0.08728,-1.30154],[0,0]],[[440.80406,475.9564],[0,0],[0.51174,3.32172]],[[442.56094,486.02924],[-0.96416,-3.25472],[-0.26498,-9.34648]],[[441.50304,458.00152],[0.29284,9.36872],[-0.17764,-5.68306]],[[441.96992,442.70152],[-1.1325,4.90348],[0,0]],[441.26342,442.64264],[[441.50862,439.70008],[0,0],[0.09422,-1.29476]],[[444.00196,437.38414],[-1.3188,0],[1.02578,0]],[[446.29462,438.88574],[-0.3854,-0.8838],[-0.29426,-8.00518]],[[446.15076,415.00472],[0,7.81404],[0,-7.70296]],[[444.32864,389.67126],[2.68744,7.26122],[-2.62618,-7.09574]],[[430.71542,372.31722],[2.2212,6.70404],[-1.47148,-4.44126]],[[431.13386,356.6167],[-0.88406,4.4528],[1.3396,-5.30644]],[[432.1842,338.16408],[1.7308,5.37418],[-2.23062,-6.92616]],[[410.90708,327.2763],[7.42804,-1.00214],[-0.03886,10.22346]],[[408.66338,357.5518],[1.31104,-10.09414],[-0.2418,1.86164]],[[406.66776,364.60266],[1.83686,-1.0762],[-0.6751,0.39552]],[[403.42342,364.418],[1.14932,0.38686],[0.1994,0.62808]],[[403.89934,366.21504],[-0.13024,-0.47898],[0.95818,3.52358]],[[407.31834,376.70704],[-1.35732,-3.38712],[2.48236,9.05282]],[[409.91094,403.91134],[0.79974,-9.38126],[-0.17744,2.08142]],[[408.37872,410.4603],[1.29436,-1.79116],[-0.64262,0.88926]],[[406.1869,412.49432],[-0.56802,-1.57192],[0,0]]],&quot;closed&quot;:true,&quot;fillColor&quot;:[0,0,0,1]}]}" fill="#ffffff" stroke="none" stroke-width="0.5"/><path d="M274.09852,52.06414c0.535,-0.07635 0.82096,0.17925 0.97058,0.42882c0.89578,0.31351 1.88881,0.69199 2.88949,1.12653c0.65788,-1.13564 1.15229,-2.26548 1.28122,-3.1836c0,0 0.17816,-0.97917 1.15733,-0.80103c0.97918,0.17816 0.80103,1.15734 0.80103,1.15734c-0.23398,1.11736 -0.77865,2.39157 -1.48055,3.65218c1.46883,0.74672 2.83597,1.60784 3.79863,2.55317c0,0 0.70366,0.70384 -0.00017,1.40751c-0.70384,0.70366 -1.40751,-0.00017 -1.40751,-0.00017c-0.81785,-0.83811 -2.06817,-1.61274 -3.41892,-2.28413c-0.86295,1.28972 -1.82547,2.47757 -2.70348,3.35907l-0.15397,0.45331c0,0 -0.42952,0.8978 -1.32733,0.46827c-0.8978,-0.42952 -0.46827,-1.32732 -0.46827,-1.32732l0.54224,-1.00194c0.694,-0.69052 1.52739,-1.68387 2.29812,-2.77411c-1.04945,-0.43725 -2.07235,-0.80415 -2.92103,-1.08302l-0.70204,-1.02498c0,0 -0.14062,-0.98527 0.84464,-1.1259z" fill="#000000" stroke="none" stroke-width="0.5"/><path d="M279.52534,95.50333l-0.21418,-0.97478c0.7354,-0.10498 1.47068,-0.21084 2.20624,-0.3149c0.50579,-0.07155 1.91943,0.1181 1.51943,-0.19961c-0.54842,-0.43558 -1.38993,-0.92223 -2.10597,-1.44117c-0.30188,-0.00027 -0.59652,-0.01579 -0.88001,-0.05439l-1.26997,0.03953c-0.50558,0.02246 -0.95525,-0.34236 -1.02823,-0.85376c-0.06814,-0.47746 0.21465,-0.92408 0.65259,-1.07884l1.26341,-0.47617l0.01776,0.04714c0.08462,-0.0412 0.17177,-0.07766 0.26193,-0.10854c0.6862,-0.235 1.54721,-0.00694 2.35481,0.48183c0.92716,-0.05372 1.85148,-0.15487 2.754,-0.13364c-0.19234,-0.26449 -0.21076,-0.57812 -0.21076,-0.57812c-0.32505,-6.27754 -2.77815,1.59 -5.9297,-0.07752c-0.69878,-0.36974 -0.86766,-2.3165 -0.97434,-3.05576l-0.14694,-1.02958c0,0 -0.09111,-0.63826 0.38704,-0.96069c-0.01043,-0.01865 -0.02064,-0.03796 -0.03062,-0.05793c-0.44499,-0.89024 0.44527,-1.33522 0.44527,-1.33522l0.58668,-0.27529c0.55974,-0.16318 1.11999,-0.32338 1.6806,-0.4823c0.01352,-0.07234 0.02824,-0.11645 0.02824,-0.11645l0.05413,0.01702c-0.00517,-0.50243 -0.05778,-1.00741 -0.15599,-1.50202c-0.83957,-0.08253 -1.68203,-0.15436 -2.51124,-0.37026c0,0 -0.96101,-0.25886 -0.70215,-1.21986c0.0204,-0.07571 0.04514,-0.14384 0.07345,-0.20515c-0.32118,-0.58402 0.18338,-1.121 0.18338,-1.121l0.7658,-0.79746c0.71361,-0.55202 1.84054,-1.5577 2.78625,-1.54725c0.41761,0.00461 0.58681,0.62446 0.96767,0.79588c0.03348,0.01507 1.02693,-0.52443 0.86279,-0.6249c-0.33054,-0.20235 -0.70316,-0.322 -1.09118,-0.39879c-1.14799,0.16622 -2.26916,0.31785 -3.44438,0.31789l-0.06373,-0.03455l-0.00379,0.0276l-1.04976,-0.14422c-0.439,-0.05016 -0.80625,-0.39049 -0.8716,-0.84835c-0.04722,-0.33084 0.07405,-0.64686 0.29868,-0.86124c-0.26461,-0.15357 -0.40692,-0.40079 -0.40692,-0.40079l-0.52182,-1.0493c-0.42864,-3.31322 1.12341,-4.79871 3.0162,-4.90389c-0.14602,-0.22241 -0.17901,-0.4536 -0.17901,-0.4536l-0.10498,-0.7354c-0.09802,-0.69641 -0.25082,-1.3859 -0.43694,-2.0641c0,0 -0.26175,-0.96022 0.69846,-1.22198c0.96022,-0.26175 1.22198,0.69846 1.22198,0.69846c0.20549,0.75838 0.37465,1.5287 0.48704,2.30636l0.10498,0.7354c0,0 0.08243,0.57756 -0.32111,0.91139c1.9837,0.56915 3.89288,2.43618 4.0282,5.13754c0,0 0.01069,0.61326 -0.46615,0.88531c1.09052,0.42783 1.62017,1.35809 0.86888,3.09936c-1.04108,2.41291 -3.57704,0.70804 -5.15788,1.94455l-0.01697,0.01863c2.18047,0.23689 5.91942,0.23662 6.28613,2.51232c0.42463,2.63504 -4.64752,3.10971 -6.35015,3.60608l-0.10729,0.06121c0.10661,0.19536 0.13236,0.3757 0.13236,0.3757l0.14694,1.02958c0.07486,0.53105 -0.17925,1.1005 -0.00842,1.60888c0.14782,0.43981 0.63262,-0.68395 0.99642,-0.97193c0.65062,-0.51499 1.16801,-1.24933 1.93495,-1.56613c1.99764,-0.82512 3.43327,0.38459 3.87273,2.29238c0.14506,0.62974 0.08325,1.28978 0.1249,1.93467c0,0 0.03238,0.55163 -0.36215,0.85695c0.1333,0.0303 0.26586,0.06552 0.39761,0.1063c0,0 0.94415,0.31484 0.62929,1.25899c-0.31484,0.94415 -1.25899,0.62929 -1.25899,0.62929c-0.61294,-0.22827 -1.32158,-0.27076 -2.06838,-0.24227c0.71024,1.05817 0.96322,2.26024 0.2155,3.1245c-0.78036,0.902 -3.67913,0.86498 -4.79392,1.0241zM284.13831,81.75674c-0.42357,-0.2079 -0.85404,-0.35455 -1.28901,-0.46275c0.03316,0.25795 0.0573,0.51702 0.07227,0.77621c0.71535,-0.07727 1.63322,-0.10904 1.21671,-0.31346zM278.7317,73.3714l0.1171,0.45397c0.17229,-0.00046 0.34372,-0.00505 0.51444,-0.01313c0.86429,-0.185 1.81545,-0.31354 2.69957,-0.31964c0.17869,-0.02689 0.35791,-0.05359 0.53786,-0.07927c0,0 0.03885,-0.00554 0.10223,-0.00671c-0.11212,-0.23494 -0.11608,-0.46135 -0.11608,-0.46135c0.11792,-3.11196 -5.36091,-5.71666 -4.55405,-0.72608l0.27643,0.33755c0,0 0.26641,0.46286 0.06988,0.90562z" fill="#000000" stroke="none" stroke-width="0.5"/><path d="M283.79863,105.48366c-0.98625,0.16915 -1.11971,-1.08101 -1.11971,-1.08101l-0.11951,-1.11972c-0.09927,-1.06045 -0.02267,-2.16126 0.18997,-3.19458c0,0 0.26587,-1.21571 1.22497,-0.87872c0.95908,0.33698 0.69323,1.55268 0.69323,1.55268c-0.16583,0.69876 -0.22658,1.46177 -0.13563,2.18232l0.11951,1.11973c0,0 0.13344,1.25012 -0.85283,1.41928z" fill="#000000" stroke="none" stroke-width="0.5"/><path d="M289.13921,114.38637c-0.59724,0.79611 -1.39339,0.19887 -1.39339,0.19887l-0.57385,-0.43561c-0.75693,-0.68326 -1.50502,-1.35548 -2.26421,-2.00642c-0.61304,0.76998 -1.17237,1.5849 -1.68499,2.42002l-0.18032,0.39004c0,0 -0.42952,0.89779 -1.32732,0.46827c-0.8978,-0.42952 -0.46829,-1.32731 -0.46829,-1.32731l0.28205,-0.57645c0.56669,-0.91379 1.18036,-1.79975 1.85023,-2.6368c-0.99881,-0.78903 -2.03717,-1.5323 -3.15648,-2.20841c0,0 -0.85161,-0.51507 -0.33654,-1.36668c0.51508,-0.85161 1.36668,-0.33654 1.36668,-0.33654c1.2208,0.73925 2.3514,1.55241 3.43939,2.41614c0.78128,-0.80768 1.63101,-1.54686 2.55991,-2.19291c0,0 0.81836,-0.5664 1.38476,0.25197c0.5664,0.81836 -0.25197,1.38476 -0.25197,1.38476c-0.77855,0.53591 -1.49651,1.15123 -2.16019,1.82381c0.76476,0.6553 1.51912,1.33119 2.28101,2.01894l0.43459,0.32093c0,0 0.79612,0.59724 0.19888,1.39339z" fill="#000000" stroke="none" stroke-width="0.5"/></g></g></svg>