<svg version="1.1" xmlns="http://www.w3.org/2000/svg" xmlns:xlink="http://www.w3.org/1999/xlink" width="69.33333" height="82.85333" viewBox="0,0,69.33333,82.85333"><g transform="translate(-205.33335,-138.57336)"><g data-paper-data="{&quot;isPaintingLayer&quot;:true}" fill-rule="nonzero" stroke-linejoin="miter" stroke-miterlimit="10" stroke-dasharray="" stroke-dashoffset="0" style="mix-blend-mode: normal"><path d="M240.00003,185.43334v-24.2" fill="none" stroke="#ff0000" stroke-width="5" stroke-linecap="round"/><path d="M239.90003,184.53334c0,0 -0.9438,7.2356 -1.7919,10.56c-0.8174,3.2045 -3.2081,9.04 -3.2081,9.04" fill="none" stroke="#ff0000" stroke-width="5" stroke-linecap="round"/><path d="M240.10004,184.53334c0,0 4.7748,6.3575 5.6285,9.7037c0.8108,3.1785 -9.0285,6.4963 -9.0285,6.4963" data-paper-data="{&quot;index&quot;:null}" fill="none" stroke="#ff0000" stroke-width="5" stroke-linecap="round"/><path d="M237.30003,185.73334c0,0 -4.2837,-6.0838 -2.9876,-9.2176c1.3488,-3.2611 5.5287,-9.9824 5.5287,-9.9824" fill="none" stroke="#ff0000" stroke-width="5" stroke-linecap="round"/><path d="M249.50003,185.73334c0,0 -4.1284,-4.7879 -5.722,-7.5844c-1.9722,-3.4609 -3.6192,-11.6156 -3.6192,-11.6156" data-paper-data="{&quot;index&quot;:null}" fill="none" stroke="#ff0000" stroke-width="5" stroke-linecap="round"/><path d="M231.7,161.13333c0,-4.58397 3.71604,-8.3 8.3,-8.3c4.58397,0 8.3,3.71604 8.3,8.3c0,4.58397 -3.71604,8.3 -8.3,8.3c-4.58397,0 -8.3,-3.71603 -8.3,-8.3z" fill="#ff0000" stroke="none" stroke-width="0" stroke-linecap="butt"/><path d="M205.33336,221.4267v-82.85333h69.33333v82.85333z" fill="none" stroke="none" stroke-width="0" stroke-linecap="butt"/></g></g></svg>