<svg version="1.1" xmlns="http://www.w3.org/2000/svg" xmlns:xlink="http://www.w3.org/1999/xlink" width="112.17313" height="147.93116" viewBox="0,0,112.17313,147.93116"><g transform="translate(-193.31575,-60.5291)"><g data-paper-data="{&quot;isPaintingLayer&quot;:true}" fill-rule="nonzero" stroke-linejoin="miter" stroke-miterlimit="10" stroke-dasharray="" stroke-dashoffset="0" style="mix-blend-mode: normal"><path d="M247.82895,208.46026c-15.86514,0 -28.72638,-7.05393 -28.72638,-15.75541c0,-8.70147 12.86124,-15.75541 28.72638,-15.75541c15.86514,0 28.72638,7.05393 28.72638,15.75541c0,8.70147 -12.86124,15.75541 -28.72638,15.75541z" data-paper-data="{&quot;index&quot;:null}" fill-opacity="0.10588" fill="#1a1a1a" stroke="none" stroke-width="0" stroke-linecap="butt"/><path d="M238.96784,128.49643c0,-3.25375 18.33242,-5.19813 21.54608,-5.19813c3.40952,0 13.23185,-28.012 16.1699,-26.73184c2.28033,0.99357 0.28573,12.21685 2.13256,13.832c2.65786,2.32447 14.3444,0.45227 15.77425,3.73395c1.28015,2.93805 -7.55512,10.9545 -7.55512,14.36402c0,3.01695 8.30752,9.31324 7.29252,11.97377c-1.10477,2.89605 -11.61713,2.11443 -13.68497,4.34828c-2.14365,2.31584 0.03508,12.39043 -2.87014,13.72133c-3.04446,1.39466 -11.20346,-6.00959 -14.7713,-6.00959c-2.69486,0 -9.37699,8.76085 -11.79572,7.94278c-3.30045,-1.11628 -2.18864,-12.13433 -4.67091,-14.4701c-2.29089,-2.15559 -12.68117,-1.68765 -13.98798,-4.59467c-1.35052,-3.00426 6.42082,-9.4044 6.42082,-12.91179z" data-paper-data="{&quot;index&quot;:null}" fill="#7fbe26" stroke="#71b123" stroke-width="2.5" stroke-linecap="butt"/><path d="M272.75145,110.55443c0,0 -13.55192,16.39231 -14.08692,18.83576c-0.48276,2.20506 -0.40738,38.56711 0.39139,43.71311c0.91989,5.92675 6.33488,12.71326 9.14201,17.7036c2.5424,4.51994 0.91606,6.6945 -1.09357,6.6945c-4.22834,0 -6.14809,-4.12758 -9.61368,-3.78545c-1.16629,0.11515 -3.01983,6.94548 -9.78374,7.25264c-6.7638,0.30716 -7.98852,-6.12154 -8.99882,-6.18647c-1.71153,-0.10992 -4.82379,4.24369 -8.75126,4.3196c-1.72294,0.03326 -4.93095,-2.79199 -3.15737,-7.57004c2.26946,-6.11386 7.66984,-7.4275 9.9522,-14.51915c1.28719,-3.99964 1.44946,-15.86796 0.78257,-18.83566c-1.52953,-6.80698 -8.6086,-15.9926 -8.6086,-15.9926l2.34782,-6.7524l5.47821,5.68622l0.39129,-12.08337l-8.21732,-16.34796l5.08693,-2.13235l8.21732,10.30638c0,0 8.26753,1.78296 12.66454,-0.48202c4.3969,-2.26498 13.55266,-13.02288 13.55266,-13.02288z" data-paper-data="{&quot;index&quot;:null}" fill="#daae35" stroke="#bf931c" stroke-width="2" stroke-linecap="round"/><g data-paper-data="{&quot;index&quot;:null}" fill="none" stroke="#bf931c" stroke-width="1" stroke-linecap="round"><path d="M235.18644,146.09351c0,0 7.95888,8.20719 6.9055,21.35097c-1.14134,14.24237 -9.25332,21.29596 -9.25332,21.29596"/><path d="M240.66466,135.43178l2.73911,10.30638c0,0 2.58526,5.72951 2.73911,9.59556c0.15385,3.86605 -1.56514,19.90194 -1.56514,19.90194l-3.91307,12.08326"/><path d="M230.8822,195.49295l6.65207,-7.10786"/><path d="M247.70812,177.368c0,0 0.07676,4.07886 -1.17386,7.10775c-1.25062,3.029 -4.69564,7.10786 -4.69564,7.10786"/><path d="M253.96901,192.29443c0,0 -3.13636,-3.42391 -3.91307,-7.10786c-0.77671,-3.68384 0.67798,-6.34139 0.39129,-9.59556c-0.28659,-3.25407 -1.95653,-8.17392 -1.95653,-8.17392"/><path d="M246.14287,197.26994l3.1305,-6.39704"/><path d="M254.36029,180.21116l4.69564,8.52939"/><path d="M250.83851,162.08611c0,0 3.17624,3.8475 3.71743,6.7525c0.54119,2.9049 -0.88045,8.47608 -0.88045,8.47608"/><path d="M254.36029,161.3754c0,0 -1.56525,-7.55277 -1.56525,-12.43872c0,-4.88595 1.29924,-5.1477 1.56525,-8.52939c0.2659,-3.38169 0,-11.37255 0,-11.37255"/><path d="M250.83851,156.39989c0,0 -1.81644,-4.44648 -1.56514,-8.17403c0.25119,-3.72745 2.73911,-9.2401 2.73911,-9.2401"/><path d="M244.96901,133.65489l2.73911,7.46321"/><path d="M262.96889,188.74055l2.73911,4.62005"/></g><path d="M204.82819,98.91403c0,-2.79839 -6.48052,-8.69187 -5.47277,-11.12595c1.10072,-2.65882 9.77681,-1.81303 11.81906,-3.77639c1.86858,-1.7965 0.26281,-11.45411 2.70126,-12.45013c2.40976,-0.98418 8.85841,6.68267 11.62225,6.68267c2.9323,0 9.2402,-7.89192 11.76714,-6.79088c1.96112,0.85443 0.24565,10.50682 1.83403,11.89594c2.28577,1.99908 12.33659,0.38883 13.56631,3.21121c1.10104,2.52683 -6.49769,9.42124 -6.49769,12.35354c0,2.59475 7.14485,8.00963 6.27187,10.29774c-0.95017,2.49069 -9.99111,1.81857 -11.76959,3.73971c-1.84352,1.99172 0.03017,10.65619 -2.4683,11.80073c-2.61842,1.19955 -9.63533,-5.16838 -12.70378,-5.16838c-2.31775,0 -8.06454,7.53465 -10.14475,6.83108c-2.83847,-0.96009 -1.88222,-10.43602 -4.01702,-12.4448c-1.97029,-1.85386 -10.90631,-1.45138 -12.03017,-3.95156c-1.16138,-2.58376 5.52214,-8.08799 5.52214,-11.10452z" data-paper-data="{&quot;index&quot;:null}" fill="#7fbe26" stroke="#71b123" stroke-width="2.5" stroke-linecap="butt"/><path d="M238.00636,99.64947c0,-3.87437 -8.97249,-12.03411 -7.57729,-15.40418c1.52399,-3.68128 13.53635,-2.5102 16.36395,-5.22862c2.58707,-2.48717 0.36388,-15.85858 3.74003,-17.23757c3.33648,-1.36268 12.26473,9.25225 16.09143,9.25225c4.05988,0 12.79344,-10.92657 16.29198,-9.40216c2.71522,1.18303 0.34022,14.54708 2.53931,16.47035c3.16472,2.76779 17.08042,0.53842 18.7831,4.44605c1.52431,3.49854 -8.99637,13.04399 -8.99637,17.10387c0,3.59258 9.89228,11.0897 8.68366,14.25772c-1.31555,3.44843 -13.83307,2.51777 -16.29539,5.17776c-2.55253,2.75755 0.04179,14.75381 -3.41751,16.33847c-3.6252,1.66078 -13.34039,-7.15584 -17.58877,-7.15584c-3.20897,0 -11.16571,10.43197 -14.04577,9.45792c-3.92991,-1.3293 -2.60605,-14.44899 -5.5618,-17.23021c-2.7278,-2.56681 -15.10011,-2.00963 -16.65608,-5.47118c-1.60811,-3.57733 7.64553,-11.19823 7.64553,-15.37465z" data-paper-data="{&quot;index&quot;:null}" fill="#7fbe26" stroke="#71b123" stroke-width="2.5" stroke-linecap="butt"/><path d="M198.96129,142.45016c0,-2.20463 -5.10558,-6.84782 -4.31171,-8.76544c0.86723,-2.09482 7.70268,-1.42835 9.31164,-2.97526c1.47207,-1.41535 0.20705,-9.02398 2.12819,-9.80869c1.89853,-0.77543 6.97896,5.26487 9.1564,5.26487c2.31029,0 7.27994,-6.2176 9.2707,-5.35016c1.5451,0.67318 0.19351,8.27777 1.44488,9.37209c1.80087,1.57495 9.71934,0.30642 10.68817,2.52992c0.86744,1.99087 -5.11912,7.42249 -5.11912,9.73267c0,2.04417 5.62897,6.31036 4.94118,8.11305c-0.74856,1.96229 -7.87145,1.43262 -9.27251,2.94626c-1.45245,1.56909 0.02378,8.39537 -1.9447,9.29714c-2.06283,0.94495 -7.59105,-4.07193 -10.0086,-4.07193c-1.82593,0 -6.35354,5.93613 -7.99236,5.38183c-2.2363,-0.75634 -1.48294,-8.2219 -3.16483,-9.80453c-1.55224,-1.46055 -8.5924,-1.14347 -9.47785,-3.11323c-0.9151,-2.03554 4.35052,-6.37209 4.35052,-8.74859z" data-paper-data="{&quot;index&quot;:null}" fill="#7fbe26" stroke="#71b123" stroke-width="2.5" stroke-linecap="butt"/></g></g></svg>