<svg version="1.1" xmlns="http://www.w3.org/2000/svg" xmlns:xlink="http://www.w3.org/1999/xlink" width="929.36804" height="605.24275" viewBox="0,0,929.36804,605.24275"><g transform="translate(375.86803,21)"><g data-paper-data="{&quot;isPaintingLayer&quot;:true}" fill-rule="nonzero" stroke-linejoin="miter" stroke-miterlimit="10" stroke-dasharray="" stroke-dashoffset="0" style="mix-blend-mode: normal"><path d="M-31.99999,381v-402h544v402z" fill="#95e447" stroke="none" stroke-width="0" stroke-linecap="butt"/><path d="M244.45183,61.25904c0,8.42733 -20.32519,15.25904 -45.39759,15.25904c-25.0724,0 -45.39759,-6.8317 -45.39759,-15.25904c0,-8.42733 20.32519,-15.25904 45.39759,-15.25904c25.0724,0 45.39759,6.8317 45.39759,15.25904z" fill="#9df04a" stroke="none" stroke-width="0" stroke-linecap="butt"/><path d="M480.77712,129.92771c0,8.42733 -20.32519,15.25904 -45.39759,15.25904c-25.0724,0 -45.39759,-6.8317 -45.39759,-15.25904c0,-8.42733 20.32519,-15.25904 45.39759,-15.25904c25.0724,0 45.39759,6.8317 45.39759,15.25904z" fill="#9df04a" stroke="none" stroke-width="0" stroke-linecap="butt"/><path d="M298.14459,141.83133c0,8.42733 -20.32519,15.25904 -45.39759,15.25904c-25.0724,0 -45.39759,-6.8317 -45.39759,-15.25904c0,-8.42733 20.32519,-15.25904 45.39759,-15.25904c25.0724,0 45.39759,6.8317 45.39759,15.25904z" fill="#9df04a" stroke="none" stroke-width="0" stroke-linecap="butt"/><path d="M95.06025,89.36145c0,8.42733 -20.32519,15.25904 -45.39759,15.25904c-25.0724,0 -45.39759,-6.8317 -45.39759,-15.25904c0,-8.42733 20.32519,-15.25904 45.39759,-15.25904c25.0724,0 45.39759,6.8317 45.39759,15.25904z" fill="#9df04a" stroke="none" stroke-width="0" stroke-linecap="butt"/><path d="M116.61447,255.24096c0,8.42733 -20.32519,15.25904 -45.39759,15.25904c-25.0724,0 -45.39759,-6.8317 -45.39759,-15.25904c0,-8.42733 20.32519,-15.25904 45.39759,-15.25904c25.0724,0 45.39759,6.8317 45.39759,15.25904z" fill="#9df04a" stroke="none" stroke-width="0" stroke-linecap="butt"/><path d="M264.71085,309.74096c0,8.42733 -20.32519,15.25904 -45.39759,15.25904c-25.0724,0 -45.39759,-6.8317 -45.39759,-15.25904c0,-8.42733 20.32519,-15.25904 45.39759,-15.25904c25.0724,0 45.39759,6.8317 45.39759,15.25904z" fill="#9df04a" stroke="none" stroke-width="0" stroke-linecap="butt"/><path d="M238.87953,214.68072c0,8.42733 -20.32519,15.25904 -45.39759,15.25904c-25.0724,0 -45.39759,-6.8317 -45.39759,-15.25904c0,-8.42733 20.32519,-15.25904 45.39759,-15.25904c25.0724,0 45.39759,6.8317 45.39759,15.25904z" fill="#9df04a" stroke="none" stroke-width="0" stroke-linecap="butt"/><path d="M402.40364,192.10241c0,8.42733 -20.32519,15.25904 -45.39759,15.25904c-25.0724,0 -45.39759,-6.8317 -45.39759,-15.25904c0,-8.42733 20.32519,-15.25904 45.39759,-15.25904c25.0724,0 45.39759,6.8317 45.39759,15.25904z" fill="#9df04a" stroke="none" stroke-width="0" stroke-linecap="butt"/><path d="M407.53617,56.26506c0,8.42733 -20.32519,15.25904 -45.39759,15.25904c-25.0724,0 -45.39759,-6.8317 -45.39759,-15.25904c0,-8.42733 20.32519,-15.25904 45.39759,-15.25904c25.0724,0 45.39759,6.8317 45.39759,15.25904z" fill="#9df04a" stroke="none" stroke-width="0" stroke-linecap="butt"/><path d="M446.18075,291.30121c0,8.42733 -20.32519,15.25904 -45.39759,15.25904c-25.0724,0 -45.39759,-6.8317 -45.39759,-15.25904c0,-8.42733 20.32519,-15.25904 45.39759,-15.25904c25.0724,0 45.39759,6.8317 45.39759,15.25904z" fill="#9df04a" stroke="none" stroke-width="0" stroke-linecap="butt"/><path d="M9.50001,385.5v-402h544v402z" fill="#95e447" stroke="none" stroke-width="0" stroke-linecap="butt"/><path d="M335.87953,226.67171c0,6.44345 11.45129,14.78743 -5.3498,17.02488c-5.17292,0.68889 -34.14548,-1.76584 -40.04779,-1.76584c-7.94966,0 -9.58874,-6.68681 -16.08734,-7.89352c-13.99733,-2.59913 -29.31025,-1.61023 -29.31025,-7.36552c0,-8.42733 20.32519,-15.25904 45.39759,-15.25904c8.14614,0 26.79115,2.38784 33.40074,3.65061c13.73357,2.6238 11.99685,5.91918 11.99685,11.60843z" fill="#9df04a" stroke="none" stroke-width="0" stroke-linecap="butt"/><path d="M431.87953,172.68072c0,6.44345 11.45129,14.78743 -5.3498,17.02488c-5.17292,0.68889 -34.14548,-1.76584 -40.04779,-1.76584c-7.94966,0 -9.58874,-6.68681 -16.08734,-7.89352c-13.99733,-2.59913 -29.31025,-1.61023 -29.31025,-7.36552c0,-8.42733 20.32519,-15.25904 45.39759,-15.25904c8.14614,0 26.79115,2.38784 33.40074,3.65061c13.73357,2.6238 11.99685,5.91918 11.99685,11.60843z" fill="#9df04a" stroke="none" stroke-width="0" stroke-linecap="butt"/><path d="M157.87953,181.68072c0,6.44345 11.45129,14.78743 -5.3498,17.02488c-5.17292,0.68889 -34.14548,-1.76584 -40.04779,-1.76584c-7.94966,0 -9.58874,-6.68681 -16.08734,-7.89352c-13.99733,-2.59913 -29.31025,-1.61023 -29.31025,-7.36552c0,-8.42733 20.32519,-15.25904 45.39759,-15.25904c8.14614,0 26.79115,2.38784 33.40074,3.65061c13.73357,2.6238 11.99685,5.91918 11.99685,11.60843z" fill="#9df04a" stroke="none" stroke-width="0" stroke-linecap="butt"/><path d="M278.87953,102.68072c0,6.44345 11.45129,14.78743 -5.3498,17.02488c-5.17292,0.68889 -34.14548,-1.76584 -40.04779,-1.76584c-7.94966,0 -9.58874,-6.68681 -16.08734,-7.89352c-13.99733,-2.59913 -29.31025,-1.61023 -29.31025,-7.36552c0,-8.42733 20.32519,-15.25904 45.39759,-15.25904c8.14614,0 26.79115,2.38784 33.40074,3.65061c13.73357,2.6238 11.99685,5.91918 11.99685,11.60843z" fill="#9df04a" stroke="none" stroke-width="0" stroke-linecap="butt"/><path d="M422.87953,43.68072c0,6.44345 11.45129,14.78743 -5.3498,17.02488c-5.17292,0.68889 -34.14548,-1.76584 -40.04779,-1.76584c-7.94966,0 -9.58874,-6.68681 -16.08734,-7.89352c-13.99733,-2.59913 -29.31025,-1.61023 -29.31025,-7.36552c0,-8.42733 20.32519,-15.25904 45.39759,-15.25904c8.14614,0 26.79115,2.38784 33.40074,3.65061c13.73357,2.6238 11.99685,5.91918 11.99685,11.60843z" fill="#9df04a" stroke="none" stroke-width="0" stroke-linecap="butt"/><path d="M153.87953,38.68072c0,6.44345 11.45129,14.78743 -5.3498,17.02488c-5.17292,0.68889 -34.14548,-1.76584 -40.04779,-1.76584c-7.94966,0 -9.58874,-6.68681 -16.08734,-7.89352c-13.99733,-2.59913 -29.31025,-1.61023 -29.31025,-7.36552c0,-8.42733 20.32519,-15.25904 45.39759,-15.25904c8.14614,0 26.79115,2.38784 33.40074,3.65061c13.73357,2.6238 11.99685,5.91918 11.99685,11.60843z" fill="#9df04a" stroke="none" stroke-width="0" stroke-linecap="butt"/><path d="M120.87953,293.68072c0,6.44345 11.45129,14.78743 -5.3498,17.02488c-5.17292,0.68889 -34.14548,-1.76584 -40.04779,-1.76584c-7.94966,0 -9.58874,-6.68681 -16.08734,-7.89352c-13.99733,-2.59913 -29.31025,-1.61023 -29.31025,-7.36552c0,-8.42733 20.32519,-15.25904 45.39759,-15.25904c8.14614,0 26.79115,2.38784 33.40074,3.65061c13.73357,2.6238 11.99685,5.91918 11.99685,11.60843z" fill="#9df04a" stroke="none" stroke-width="0" stroke-linecap="butt"/><path d="M436.87953,330.68072c0,6.44345 11.45129,14.78743 -5.3498,17.02488c-5.17292,0.68889 -34.14548,-1.76584 -40.04779,-1.76584c-7.94966,0 -9.58874,-6.68681 -16.08734,-7.89352c-13.99733,-2.59913 -29.31025,-1.61023 -29.31025,-7.36552c0,-8.42733 20.32519,-15.25904 45.39759,-15.25904c8.14614,0 26.79115,2.38784 33.40074,3.65061c13.73357,2.6238 11.99685,5.91918 11.99685,11.60843z" fill="#9df04a" stroke="none" stroke-width="0" stroke-linecap="butt"/><path d="M272.87953,316.68072c0,6.44345 11.45129,14.78743 -5.3498,17.02488c-5.17292,0.68889 -34.14548,-1.76584 -40.04779,-1.76584c-7.94966,0 -9.58874,-6.68681 -16.08734,-7.89352c-13.99733,-2.59913 -29.31025,-1.61023 -29.31025,-7.36552c0,-8.42733 20.32519,-15.25904 45.39759,-15.25904c8.14614,0 26.79115,2.38784 33.40074,3.65061c13.73357,2.6238 11.99685,5.91918 11.99685,11.60843z" fill="#9df04a" stroke="none" stroke-width="0" stroke-linecap="butt"/><path d="M222.001,167.41163c3.30113,-0.63068 12.61332,-1.82328 16.68187,-1.82328c12.52231,0 22.67365,3.41207 22.67365,7.62107c0,2.87446 -7.64799,2.38055 -14.63889,3.67868c-3.2457,0.60269 -4.06433,3.94239 -8.03475,3.94239c-2.94789,0 -17.41812,1.22601 -20.00171,0.88194c-8.39123,-1.11748 -2.67194,-5.28485 -2.67194,-8.50301c0,-2.84147 -0.8674,-4.48734 5.99178,-5.79778z" data-paper-data="{&quot;index&quot;:null}" fill="#7ec03c" stroke="none" stroke-width="0" stroke-linecap="butt"/><path d="M341.64816,108.6896c3.32595,-0.63542 12.70812,-1.83699 16.80726,-1.83699c12.61644,0 22.84408,3.43772 22.84408,7.67835c0,2.89606 -7.70547,2.39845 -14.74892,3.70634c-3.2701,0.60722 -4.09488,3.97202 -8.09515,3.97202c-2.97004,0 -17.54904,1.23522 -20.15205,0.88858c-8.45431,-1.12588 -2.69203,-5.32458 -2.69203,-8.56692c0,-2.86283 -0.87392,-4.52106 6.03682,-5.84136z" data-paper-data="{&quot;index&quot;:null}" fill="#7ec03c" stroke="none" stroke-width="0" stroke-linecap="butt"/><path d="M137.37647,240.68314c4.09446,-0.78225 15.64453,-2.26145 20.69083,-2.26145c15.53167,0 28.12256,4.23205 28.12256,9.45255c0,3.56525 -9.48593,2.95265 -18.15689,4.56274c-4.0257,0.74752 -5.04107,4.88981 -9.96566,4.88981c-3.65632,0 -21.60403,1.52064 -24.8085,1.09389c-10.40781,-1.38603 -3.31405,-6.5549 -3.31405,-10.54644c0,-3.52433 -1.07585,-5.56573 7.43172,-7.1911z" data-paper-data="{&quot;index&quot;:null}" fill="#7ec03c" stroke="none" stroke-width="0" stroke-linecap="butt"/><path d="M232.84693,27.79845c3.67527,-0.70216 14.04285,-2.02993 18.57252,-2.02993c13.94154,0 25.24338,3.79877 25.24338,8.48481c0,3.20023 -8.51477,2.65035 -16.298,4.0956c-3.61356,0.67099 -4.52496,4.3892 -8.94538,4.3892c-3.28198,0 -19.39221,1.36496 -22.26862,0.9819c-9.34226,-1.24413 -2.97477,-5.88382 -2.97477,-9.4667c0,-3.16352 -0.9657,-4.99591 6.67087,-6.45488z" data-paper-data="{&quot;index&quot;:null}" fill="#7ec03c" stroke="none" stroke-width="0" stroke-linecap="butt"/><path d="M61.00466,109.61543c3.18622,-0.60873 12.17423,-1.75981 16.10116,-1.75981c12.08639,0 21.88435,3.29329 21.88435,7.35577c0,2.77439 -7.38174,2.29769 -14.12929,3.55062c-3.13271,0.58171 -3.92284,3.80515 -7.75505,3.80515c-2.84526,0 -16.81177,1.18332 -19.30543,0.85124c-8.09913,-1.07859 -2.57892,-5.10089 -2.57892,-8.20701c0,-2.74255 -0.8372,-4.33112 5.7832,-5.59595z" data-paper-data="{&quot;index&quot;:null}" fill="#7ec03c" stroke="none" stroke-width="0" stroke-linecap="butt"/><path d="M401.68621,246.28179c4.16433,-0.79559 15.91148,-2.30005 21.0439,-2.30005c15.79669,0 28.60242,4.30427 28.60242,9.61384c0,3.62608 -9.6478,3.00303 -18.46671,4.64059c-4.0944,0.76027 -5.12708,4.97325 -10.1357,4.97325c-3.7187,0 -21.97265,1.54659 -25.23181,1.11257c-10.5854,-1.40969 -3.37061,-6.66676 -3.37061,-10.72641c0,-3.58447 -1.0942,-5.6607 7.55853,-7.3138z" data-paper-data="{&quot;index&quot;:null}" fill="#7ec03c" stroke="none" stroke-width="0" stroke-linecap="butt"/><path d="M282.89797,275.53118c3.67527,-0.70217 14.04285,-2.02993 18.57252,-2.02993c13.94154,0 25.24338,3.79878 25.24338,8.4848c0,3.20024 -8.51477,2.65036 -16.298,4.09561c-3.61355,0.67099 -4.52497,4.3892 -8.94538,4.3892c-3.28199,0 -19.3922,1.36496 -22.26862,0.9819c-9.34226,-1.24414 -2.97476,-5.88382 -2.97476,-9.46671c0,-3.16351 -0.96571,-4.99592 6.67086,-6.45488z" data-paper-data="{&quot;index&quot;:null}" fill="#7ec03c" stroke="none" stroke-width="0" stroke-linecap="butt"/><path d="M-11.89029,232.68222c4.93283,-0.94242 18.84789,-2.7245 24.92747,-2.7245c18.7119,0 33.8809,5.0986 33.8809,11.38805c0,4.29526 -11.42826,3.55723 -21.87468,5.497c-4.85,0.90058 -6.07327,5.89105 -12.00622,5.89105c-4.40498,0 -26.02764,1.83201 -29.88826,1.31788c-12.5389,-1.66984 -3.99264,-7.89708 -3.99264,-12.70593c0,-4.24597 -1.29614,-6.70537 8.95343,-8.66354z" data-paper-data="{&quot;index&quot;:null}" fill="#7ec03c" stroke="none" stroke-width="0" stroke-linecap="butt"/><path d="M102.88163,345.7486c3.95472,-0.75555 15.11064,-2.18428 19.98473,-2.18428c15.00162,0 27.16283,4.08763 27.16283,9.12997c0,3.44358 -9.1622,2.85188 -17.53726,4.40703c-3.88832,0.72201 -4.86903,4.72295 -9.62557,4.72295c-3.53154,0 -20.86675,1.46874 -23.96187,1.05656c-10.05263,-1.33873 -3.20096,-6.33121 -3.20096,-10.18653c0,-3.40406 -1.03914,-5.3758 7.1781,-6.94569z" data-paper-data="{&quot;index&quot;:null}" fill="#7ec03c" stroke="none" stroke-width="0" stroke-linecap="butt"/><path d="M298.41002,355.29483c4.93283,-0.94242 18.84789,-2.7245 24.92747,-2.7245c18.71191,0 33.8809,5.09861 33.8809,11.38805c0,4.29526 -11.42827,3.55723 -21.87468,5.497c-4.85,0.90058 -6.07327,5.89105 -12.00622,5.89105c-4.40498,0 -26.02764,1.83201 -29.88826,1.31788c-12.5389,-1.66984 -3.99264,-7.89708 -3.99264,-12.70592c0,-4.24597 -1.29614,-6.70537 8.95343,-8.66355z" data-paper-data="{&quot;index&quot;:null}" fill="#7ec03c" stroke="none" stroke-width="0" stroke-linecap="butt"/><path d="M-156.57693,408.55159c0,6.44345 11.45129,14.78743 -5.3498,17.02488c-5.17292,0.68889 -34.14548,-1.76584 -40.04779,-1.76584c-7.94966,0 -9.58874,-6.68681 -16.08734,-7.89352c-13.99733,-2.59913 -29.31025,-1.61023 -29.31025,-7.36552c0,-8.42733 20.32519,-15.25904 45.39759,-15.25904c8.14614,0 26.79115,2.38784 33.40074,3.65061c13.73357,2.6238 11.99685,5.91918 11.99685,11.60843z" fill="#9df04a" stroke="none" stroke-width="0" stroke-linecap="butt"/><path d="M12.6217,334.60025c3.67527,-0.70216 14.04285,-2.02993 18.57252,-2.02993c13.94154,0 25.24338,3.79877 25.24338,8.48481c0,3.20023 -8.51477,2.65035 -16.298,4.0956c-3.61356,0.67099 -4.52496,4.3892 -8.94538,4.3892c-3.28198,0 -19.39221,1.36496 -22.26862,0.9819c-9.34226,-1.24413 -2.97477,-5.88382 -2.97477,-9.4667c0,-3.16352 -0.9657,-4.99591 6.67087,-6.45488z" data-paper-data="{&quot;index&quot;:null}" fill="#7ec03c" stroke="none" stroke-width="0" stroke-linecap="butt"/><path d="M-144.55096,314.75431c4.93283,-0.94242 18.84789,-2.7245 24.92747,-2.7245c18.71191,0 33.8809,5.09861 33.8809,11.38805c0,4.29526 -11.42827,3.55723 -21.87468,5.497c-4.85,0.90058 -6.07327,5.89105 -12.00622,5.89105c-4.40498,0 -26.02764,1.83201 -29.88826,1.31788c-12.5389,-1.66984 -3.99264,-7.89708 -3.99264,-12.70592c0,-4.24597 -1.29614,-6.70537 8.95343,-8.66355z" data-paper-data="{&quot;index&quot;:null}" fill="#7ec03c" stroke="none" stroke-width="0" stroke-linecap="butt"/><path d="M-35.48188,407.10292c0,8.42733 -20.32519,15.25904 -45.39759,15.25904c-25.0724,0 -45.39759,-6.8317 -45.39759,-15.25904c0,-8.42733 20.32519,-15.25904 45.39759,-15.25904c25.0724,0 45.39759,6.8317 45.39759,15.25904z" fill="#9df04a" stroke="none" stroke-width="0" stroke-linecap="butt"/><path d="M-200.1385,375.51858c0,6.44345 11.45129,14.78743 -5.3498,17.02488c-5.17292,0.68889 -34.14548,-1.76584 -40.04779,-1.76584c-7.94966,0 -9.58874,-6.68681 -16.08734,-7.89352c-13.99733,-2.59913 -29.31025,-1.61023 -29.31025,-7.36552c0,-8.42733 20.32519,-15.25904 45.39759,-15.25904c8.14614,0 26.79115,2.38784 33.40074,3.65061c13.73357,2.6238 11.99685,5.91918 11.99685,11.60843z" fill="#9df04a" stroke="none" stroke-width="0" stroke-linecap="butt"/><path d="M-89.13535,395.01478c-6.60959,1.26277 -25.2546,3.65061 -33.40074,3.65061c-25.0724,0 -45.39759,-6.83171 -45.39759,-15.25904c0,-5.75529 15.31292,-4.76639 29.31025,-7.36552c6.4986,-1.20671 8.13768,-7.89352 16.08734,-7.89352c5.90231,0 34.87487,-2.45473 40.04779,-1.76584c16.80109,2.23745 5.3498,10.58143 5.3498,17.02488c0,5.68925 1.73672,8.98463 -11.99685,11.60843z" data-paper-data="{&quot;index&quot;:null}" fill="#9df04a" stroke="none" stroke-width="0" stroke-linecap="butt"/><path d="M15.09273,376.4495c0,6.44345 11.45129,14.78743 -5.3498,17.02488c-5.17292,0.68889 -34.14548,-1.76584 -40.04779,-1.76584c-7.94966,0 -9.58874,-6.68681 -16.08734,-7.89352c-13.99733,-2.59913 -29.31025,-1.61023 -29.31025,-7.36552c0,-8.42733 20.32519,-15.25904 45.39759,-15.25904c8.14614,0 26.79115,2.38784 33.40074,3.65061c13.73357,2.6238 11.99685,5.91918 11.99685,11.60843z" fill="#9df04a" stroke="none" stroke-width="0" stroke-linecap="butt"/><path d="M-30.93987,301.56724c3.67527,-0.70216 14.04285,-2.02993 18.57252,-2.02993c13.94154,0 25.24338,3.79877 25.24338,8.48481c0,3.20023 -8.51477,2.65035 -16.298,4.0956c-3.61356,0.67099 -4.52496,4.3892 -8.94538,4.3892c-3.28198,0 -19.39221,1.36496 -22.26862,0.9819c-9.34226,-1.24413 -2.97477,-5.88382 -2.97477,-9.4667c0,-3.16352 -0.9657,-4.99591 6.67087,-6.45488z" data-paper-data="{&quot;index&quot;:null}" fill="#7ec03c" stroke="none" stroke-width="0" stroke-linecap="butt"/><path d="M-202.78214,383.38422c3.18622,-0.60873 12.17423,-1.75981 16.10116,-1.75981c12.08639,0 21.88435,3.29329 21.88435,7.35577c0,2.77439 -7.38174,2.29769 -14.12929,3.55062c-3.13271,0.58171 -3.92284,3.80515 -7.75505,3.80515c-2.84526,0 -16.81177,1.18332 -19.30543,0.85124c-8.09913,-1.07859 -2.57892,-5.10089 -2.57892,-8.20701c0,-2.74255 -0.8372,-4.33112 5.7832,-5.59595z" data-paper-data="{&quot;index&quot;:null}" fill="#7ec03c" stroke="none" stroke-width="0" stroke-linecap="butt"/><path d="M167.29822,500.13684c0,18.61826 -44.90386,33.71136 -100.29559,33.71136c-55.39173,0 -100.29559,-15.09307 -100.29559,-33.71136c0,-18.61825 44.90385,-33.71136 100.29559,-33.71136c55.39173,0 100.29559,15.09308 100.29559,33.71136z" fill="#9df04a" stroke="none" stroke-width="0" stroke-linecap="butt"/><path d="M48.76316,473.43087c-14.60237,2.7898 -55.79426,8.06519 -73.79129,8.06519c-55.39173,0 -100.29559,-15.09311 -100.29559,-33.71136c0,-12.715 33.8304,-10.53025 64.75429,-16.27243c14.35717,-2.66595 17.97834,-17.43893 35.54129,-17.43893c13.0398,0 77.04804,-5.42316 88.47643,-3.90122c37.11817,4.94313 11.81916,23.37725 11.81916,37.61257c0,12.56909 3.83689,19.84948 -26.50429,25.64617z" data-paper-data="{&quot;index&quot;:null}" fill="#9df04a" stroke="none" stroke-width="0" stroke-linecap="butt"/><path d="M279.03125,432.41515c0,14.23533 25.29901,32.66944 -11.81916,37.61258c-11.42838,1.52194 -75.43662,-3.90122 -88.47642,-3.90122c-17.56296,0 -21.18412,-14.77297 -35.54129,-17.43892c-30.9239,-5.74219 -64.75429,-3.55743 -64.75429,-16.27243c0,-18.61825 44.90386,-33.71135 100.29559,-33.71135c17.99703,0 59.18891,5.27538 73.79129,8.06518c30.34118,5.79669 26.50429,13.07708 26.50429,25.64617z" fill="#9df04a" stroke="none" stroke-width="0" stroke-linecap="butt"/><path d="M177.33275,266.9799c8.11967,-1.55126 31.02447,-4.48466 41.03174,-4.48466c30.80064,0 55.76947,8.39251 55.76947,18.74524c0,7.07018 -18.81144,5.85535 -36.0067,9.0483c-7.98334,1.4824 -9.99687,9.69693 -19.76277,9.69693c-7.25078,0 -42.84265,3.01557 -49.19742,2.16928c-20.63958,-2.74862 -6.57207,-12.99895 -6.57207,-20.91451c0,-6.98907 -2.1335,-11.03732 14.73776,-14.26058z" data-paper-data="{&quot;index&quot;:null}" fill="#7ec03c" stroke="none" stroke-width="0" stroke-linecap="butt"/><path d="M-202.31341,447.73579c7.03922,-1.34485 26.89617,-3.8879 35.57183,-3.8879c26.70211,0 48.34846,7.27577 48.34846,16.25089c0,6.12938 -16.30826,5.07623 -31.21543,7.84429c-6.921,1.28516 -8.66662,8.40661 -17.13301,8.40661c-6.28595,0 -37.14176,2.61428 -42.65093,1.88062c-17.89317,-2.3829 -5.69753,-11.26925 -5.69753,-18.13151c0,-6.05903 -1.8496,-9.56862 12.77666,-12.36297z" data-paper-data="{&quot;index&quot;:null}" fill="#7ec03c" stroke="none" stroke-width="0" stroke-linecap="butt"/><g fill="#7b8040" stroke="#b3e645" stroke-width="40" stroke-linecap="butt"><path d="M102.55573,269.85539c69.53065,0 167.10068,-129.75032 261.03368,-95.22159c93.933,34.52873 18.43912,166.77462 18.43912,197.95269c0,56.73674 -125.12428,102.73111 -279.4728,102.73111c-154.34852,0 -279.4728,-45.99437 -279.4728,-102.73111c0,-56.73695 125.12427,-102.7311 279.4728,-102.7311z"/><path d="M-123.89456,487.74586c0,-42.24834 106.3309,-76.49712 237.49665,-76.49712c131.16575,0 237.49664,34.24879 237.49664,76.49712c0,42.24811 -106.33089,76.49689 -237.49664,76.49689c-131.16576,0 -237.49665,-34.24878 -237.49665,-76.49689z"/><path d="M-355.86803,427.77608c0,-55.54019 117.70577,-100.56425 262.90326,-100.56425c145.19749,0 262.90326,45.02406 262.90326,100.56426c0,55.53997 -117.70577,100.56403 -262.90326,100.56403c-145.19749,0 -262.90326,-45.02406 -262.90326,-100.56403z"/></g><g fill="#45b5e6" stroke="none" stroke-width="0" stroke-linecap="butt"><path d="M102.55573,269.85535c56.65236,0 170.48757,-126.57391 261.40378,-93.15412c90.91621,33.41979 18.06902,159.97319 18.06902,195.88523c0,56.73682 -125.12424,102.73111 -279.4728,102.73111c-154.34856,0 -279.4728,-45.99428 -279.4728,-102.73111c0,-56.73682 125.12423,-102.73111 279.4728,-102.73111z"/><path d="M-123.89456,487.74577c0,-42.24815 106.33088,-76.49705 237.49665,-76.49705c131.16577,0 237.49664,34.24889 237.49664,76.49705c0,42.24816 -106.33087,76.49705 -237.49664,76.49705c-131.16578,0 -237.49665,-34.24889 -237.49665,-76.49705z"/><path d="M-92.96476,327.21191c145.19747,0 262.90326,45.02408 262.90326,100.5641c0,55.54001 -117.70579,100.5641 -262.90326,100.5641c-145.19747,0 -262.90326,-45.02409 -262.90326,-100.5641c0,-55.54002 117.70579,-100.5641 262.90326,-100.5641z"/></g><path d="M231.79809,452.56211c0,9.76118 -39.56497,17.67417 -88.37085,17.67417c-48.80587,0 -88.37084,-7.91299 -88.37084,-17.67417c0,-9.76118 39.56497,-17.67417 88.37084,-17.67417c48.80587,0 88.37085,7.91299 88.37085,17.67417z" fill="#91cce6" stroke="none" stroke-width="0" stroke-linecap="butt"/><path d="M-84.12768,416.10914c0,9.15111 -34.61934,16.56953 -77.32448,16.56953c-42.70515,0 -77.32449,-7.41842 -77.32449,-16.56953c0,-9.15111 34.61934,-16.56954 77.32449,-16.56954c42.70515,0 77.32448,7.41843 77.32448,16.56954z" fill="#91cce6" stroke="none" stroke-width="0" stroke-linecap="butt"/><path d="M169.9385,356.45881c0,9.15111 -38.08129,16.56953 -85.05694,16.56953c-46.97564,0 -85.05694,-7.41843 -85.05694,-16.56953c0,-9.15111 38.08129,-16.56953 85.05694,-16.56953c46.97565,0 85.05694,7.41842 85.05694,16.56953z" fill="#91cce6" stroke="none" stroke-width="0" stroke-linecap="butt"/><g fill="none" stroke-linecap="round"><path d="M309.95106,474.04726l-7.73245,57.44105" stroke="#2acc00" stroke-width="2.5"/><path d="M290.06762,481.22741l2.20927,55.78409" stroke="#2acc00" stroke-width="2.5"/><path d="M277.36431,541.43004l-12.15099,-28.16821" stroke="#2acc00" stroke-width="2.5"/><path d="M314.3696,453.61151l-4.97086,27.61589" stroke="#b38824" stroke-width="5"/><path d="M287.85835,447.53602l1.65695,30.9298" stroke="#b38824" stroke-width="5"/><path d="M264.661,510.50024l-8.83709,-19.33112" stroke="#b38824" stroke-width="5"/></g><g data-paper-data="{&quot;index&quot;:null}" fill="none" stroke-linecap="round"><path d="M-104.28728,525.96514l-7.73245,-57.44105" stroke="#2acc00" stroke-width="2.5"/><path d="M-92.13629,471.28568l-2.20927,55.7841" stroke="#2acc00" stroke-width="2.5"/><path d="M-67.28199,503.3201l-12.15099,28.16821" stroke="#2acc00" stroke-width="2.5"/><path d="M-111.46741,475.70422l-4.97086,-27.61589" stroke="#b38824" stroke-width="5"/><path d="M-91.58397,468.52409l1.65696,-30.9298" stroke="#b38824" stroke-width="5"/><path d="M-57.89259,481.2274l-8.83709,19.33112" stroke="#b38824" stroke-width="5"/></g><g fill="none" stroke-linecap="round"><path d="M87.33827,221.84023l-6.38373,25.44598" stroke="#2acc00" stroke-width="2.5"/><path d="M78.03144,224.06406l-1.8281,25.20359" stroke="#2acc00" stroke-width="2.5"/><path d="M65.23146,237.21598l4.04066,13.28479" stroke="#2acc00" stroke-width="2.5"/><path d="M86.72663,225.04193l3.63286,-12.17024" stroke="#b38824" stroke-width="5"/><path d="M78.74199,208.79784l-0.81928,13.99612" stroke="#b38824" stroke-width="5"/><path d="M62.12564,226.80366l2.99708,9.14221" stroke="#b38824" stroke-width="5"/></g><g fill="none" stroke-linecap="round"><path d="M346.02932,171.43067l3.13175,-26.04692" stroke="#2acc00" stroke-width="2.5"/><path d="M340.20796,148.76077l1.35719,25.23333" stroke="#2acc00" stroke-width="2.5"/><path d="M334.84412,176.0894l-5.67985,-12.6709" stroke="#2acc00" stroke-width="2.5"/><path d="M348.95708,148.63696l2.0729,-12.53059" stroke="#b38824" stroke-width="5"/><path d="M338.99228,133.52645l0.94802,13.98799" stroke="#b38824" stroke-width="5"/><path d="M324.77319,153.47964l4.12341,8.69252" stroke="#b38824" stroke-width="5"/></g></g></g></svg>