<svg version="1.1" xmlns="http://www.w3.org/2000/svg" xmlns:xlink="http://www.w3.org/1999/xlink" width="697.7027" height="632.62762" viewBox="0,0,697.7027,632.62762"><defs><linearGradient x1="-47.53754" y1="177.74777" x2="96.60661" y2="177.74777" gradientUnits="userSpaceOnUse" id="color-1"><stop offset="0" stop-color="#000000"/><stop offset="1" stop-color="#000000" stop-opacity="0"/></linearGradient><linearGradient x1="255.01502" y1="-56.48647" x2="255.01502" y2="68.13815" gradientUnits="userSpaceOnUse" id="color-2"><stop offset="0" stop-color="#000000"/><stop offset="1" stop-color="#000000" stop-opacity="0"/></linearGradient></defs><g transform="translate(66.36355,56.48647)"><g data-paper-data="{&quot;isPaintingLayer&quot;:true}" fill-rule="nonzero" stroke-linejoin="miter" stroke-miterlimit="10" stroke-dasharray="" stroke-dashoffset="0" style="mix-blend-mode: normal"><path d="M-32,381.00002v-402h544v402z" fill="#95e447" stroke="none" stroke-width="0" stroke-linecap="butt"/><path d="M117.61446,236.24098c0,8.42733 -20.32519,15.25904 -45.39759,15.25904c-25.0724,0 -45.39759,-6.8317 -45.39759,-15.25904c0,-8.42733 20.32519,-15.25904 45.39759,-15.25904c25.0724,0 45.39759,6.8317 45.39759,15.25904z" fill="#9df04a" stroke="none" stroke-width="0" stroke-linecap="butt"/><path d="M198.71084,314.74098c0,8.42733 -20.32519,15.25904 -45.39759,15.25904c-25.0724,0 -45.39759,-6.8317 -45.39759,-15.25904c0,-8.42733 20.32519,-15.25904 45.39759,-15.25904c25.0724,0 45.39759,6.8317 45.39759,15.25904z" fill="#9df04a" stroke="none" stroke-width="0" stroke-linecap="butt"/><path d="M291.87952,246.68074c0,8.42733 -20.32519,15.25904 -45.39759,15.25904c-25.0724,0 -45.39759,-6.8317 -45.39759,-15.25904c0,-8.42733 20.32519,-15.25904 45.39759,-15.25904c25.0724,0 45.39759,6.8317 45.39759,15.25904z" fill="#9df04a" stroke="none" stroke-width="0" stroke-linecap="butt"/><path d="M420.40361,188.10243c0,8.42733 -20.32519,15.25904 -45.39759,15.25904c-25.0724,0 -45.39759,-6.8317 -45.39759,-15.25904c0,-8.42733 20.32519,-15.25904 45.39759,-15.25904c25.0724,0 45.39759,6.8317 45.39759,15.25904z" fill="#9df04a" stroke="none" stroke-width="0" stroke-linecap="butt"/><path d="M464.53614,69.26508c0,8.42733 -20.32519,15.25904 -45.39759,15.25904c-25.0724,0 -45.39759,-6.8317 -45.39759,-15.25904c0,-8.42733 20.32519,-15.25904 45.39759,-15.25904c25.0724,0 45.39759,6.8317 45.39759,15.25904z" fill="#9df04a" stroke="none" stroke-width="0" stroke-linecap="butt"/><path d="M446.18072,291.30123c0,8.42733 -20.32519,15.25904 -45.39759,15.25904c-25.0724,0 -45.39759,-6.8317 -45.39759,-15.25904c0,-8.42733 20.32519,-15.25904 45.39759,-15.25904c25.0724,0 45.39759,6.8317 45.39759,15.25904z" fill="#9df04a" stroke="none" stroke-width="0" stroke-linecap="butt"/><path d="M-37,391.00002v-402h544v402z" fill="#95e447" stroke="none" stroke-width="0" stroke-linecap="butt"/><path d="M255.00564,240.58883c6.60959,-1.26277 25.2546,-3.65061 33.40074,-3.65061c25.0724,0 45.39759,6.83171 45.39759,15.25904c0,5.75529 -15.31292,4.76639 -29.31025,7.36552c-6.4986,1.20671 -8.13768,7.89352 -16.08734,7.89352c-5.90231,0 -34.87487,2.45473 -40.04779,1.76584c-16.80109,-2.23745 -5.3498,-10.58143 -5.3498,-17.02488c0,-5.68925 -1.73672,-8.98463 11.99685,-11.60843z" data-paper-data="{&quot;index&quot;:null}" fill="#9df04a" stroke="none" stroke-width="0" stroke-linecap="butt"/><path d="M361.39603,177.58883c6.60959,-1.26277 25.2546,-3.65061 33.40074,-3.65061c25.0724,0 45.39759,6.83171 45.39759,15.25904c0,5.75529 -15.31292,4.76639 -29.31025,7.36552c-6.4986,1.20671 -8.13768,7.89352 -16.08734,7.89352c-5.90231,0 -34.87487,2.45473 -40.04779,1.76584c-16.80109,-2.23745 -5.3498,-10.58143 -5.3498,-17.02488c0,-5.68925 -1.73672,-8.98463 11.99685,-11.60843z" data-paper-data="{&quot;index&quot;:null}" fill="#9df04a" stroke="none" stroke-width="0" stroke-linecap="butt"/><path d="M157.87952,181.68074c0,6.44345 11.45129,14.78743 -5.3498,17.02488c-5.17292,0.68889 -34.14548,-1.76584 -40.04779,-1.76584c-7.94966,0 -9.58874,-6.68681 -16.08734,-7.89352c-13.99733,-2.59913 -29.31025,-1.61023 -29.31025,-7.36552c0,-8.42733 20.32519,-15.25904 45.39759,-15.25904c8.14614,0 26.79115,2.38784 33.40074,3.65061c13.73357,2.6238 11.99685,5.91918 11.99685,11.60843z" fill="#9df04a" stroke="none" stroke-width="0" stroke-linecap="butt"/><path d="M278.87952,102.68074c0,6.44345 11.45129,14.78743 -5.3498,17.02488c-5.17292,0.68889 -34.14548,-1.76584 -40.04779,-1.76584c-7.94966,0 -9.58874,-6.68681 -16.08734,-7.89352c-13.99733,-2.59913 -29.31025,-1.61023 -29.31025,-7.36552c0,-8.42733 20.32519,-15.25904 45.39759,-15.25904c8.14614,0 26.79115,2.38784 33.40074,3.65061c13.73357,2.6238 11.99685,5.91918 11.99685,11.60843z" fill="#9df04a" stroke="none" stroke-width="0" stroke-linecap="butt"/><path d="M422.87952,43.68074c0,6.44345 11.45129,14.78743 -5.3498,17.02488c-5.17292,0.68889 -34.14548,-1.76584 -40.04779,-1.76584c-7.94966,0 -9.58874,-6.68681 -16.08734,-7.89352c-13.99733,-2.59913 -29.31025,-1.61023 -29.31025,-7.36552c0,-8.42733 20.32519,-15.25904 45.39759,-15.25904c8.14614,0 26.79115,2.38784 33.40074,3.65061c13.73357,2.6238 11.99685,5.91918 11.99685,11.60843z" fill="#9df04a" stroke="none" stroke-width="0" stroke-linecap="butt"/><path d="M153.87952,38.68074c0,6.44345 11.45129,14.78743 -5.3498,17.02488c-5.17292,0.68889 -34.14548,-1.76584 -40.04779,-1.76584c-7.94966,0 -9.58874,-6.68681 -16.08734,-7.89352c-13.99733,-2.59913 -29.31025,-1.61023 -29.31025,-7.36552c0,-8.42733 20.32519,-15.25904 45.39759,-15.25904c8.14614,0 26.79115,2.38784 33.40074,3.65061c13.73357,2.6238 11.99685,5.91918 11.99685,11.60843z" fill="#9df04a" stroke="none" stroke-width="0" stroke-linecap="butt"/><path d="M168.92757,247.1342c0,6.44345 11.45129,14.78743 -5.3498,17.02488c-5.17292,0.68889 -34.14548,-1.76584 -40.04779,-1.76584c-7.94966,0 -9.58874,-6.68681 -16.08734,-7.89352c-13.99733,-2.59913 -29.31025,-1.61023 -29.31025,-7.36552c0,-8.42733 20.32519,-15.25904 45.39759,-15.25904c8.14614,0 26.79115,2.38784 33.40074,3.65061c13.73357,2.6238 11.99685,5.91918 11.99685,11.60843z" fill="#9df04a" stroke="none" stroke-width="0" stroke-linecap="butt"/><path d="M448.27892,260.10417c0,6.44345 11.45129,14.78743 -5.3498,17.02488c-5.17292,0.68889 -34.14548,-1.76584 -40.04779,-1.76584c-7.94966,0 -9.58874,-6.68681 -16.08734,-7.89352c-13.99733,-2.59913 -29.31025,-1.61023 -29.31025,-7.36552c0,-8.42733 20.32519,-15.25904 45.39759,-15.25904c8.14614,0 26.79115,2.38784 33.40074,3.65061c13.73357,2.6238 11.99685,5.91918 11.99685,11.60843z" fill="#9df04a" stroke="none" stroke-width="0" stroke-linecap="butt"/><path d="M201.37802,362.20327c0,6.44345 11.45129,14.78743 -5.3498,17.02488c-5.17292,0.68889 -34.14548,-1.76584 -40.04779,-1.76584c-7.94966,0 -9.58874,-6.68681 -16.08734,-7.89352c-13.99733,-2.59913 -29.31025,-1.61023 -29.31025,-7.36552c0,-8.42733 20.32519,-15.25904 45.39759,-15.25904c8.14614,0 26.79115,2.38784 33.40074,3.65061c13.73357,2.6238 11.99685,5.91918 11.99685,11.60843z" fill="#9df04a" stroke="none" stroke-width="0" stroke-linecap="butt"/><path d="M222.00099,167.41164c3.30113,-0.63068 12.61332,-1.82328 16.68187,-1.82328c12.52231,0 22.67365,3.41207 22.67365,7.62107c0,2.87446 -7.64799,2.38055 -14.63889,3.67868c-3.2457,0.60269 -4.06433,3.94239 -8.03475,3.94239c-2.94789,0 -17.41812,1.22601 -20.00171,0.88194c-8.39123,-1.11748 -2.67194,-5.28485 -2.67194,-8.50301c0,-2.84147 -0.8674,-4.48734 5.99178,-5.79778z" data-paper-data="{&quot;index&quot;:null}" fill="#7ec03c" stroke="none" stroke-width="0" stroke-linecap="butt"/><path d="M403.37533,111.69265c6.91074,1.3203 6.03682,2.97853 6.03682,5.84136c0,3.24234 5.76228,7.44104 -2.69203,8.56692c-2.60301,0.34664 -17.18201,-0.88858 -20.15205,-0.88858c-4.00027,0 -4.82505,-3.3648 -8.09515,-3.97202c-7.04345,-1.30789 -14.74892,-0.81028 -14.74892,-3.70634c0,-4.24063 10.22764,-7.67835 22.84408,-7.67835c4.09914,0 13.48131,1.20157 16.80726,1.83699z" data-paper-data="{&quot;index&quot;:null}" fill="#7ec03c" stroke="none" stroke-width="0" stroke-linecap="butt"/><path d="M18.75783,320.26273c4.09446,-0.78225 15.64453,-2.26145 20.69083,-2.26145c15.53167,0 28.12256,4.23205 28.12256,9.45255c0,3.56525 -9.48593,2.95265 -18.15689,4.56274c-4.0257,0.74752 -5.04107,4.88981 -9.96566,4.88981c-3.65632,0 -21.60403,1.52064 -24.8085,1.09389c-10.40781,-1.38603 -3.31405,-6.5549 -3.31405,-10.54644c0,-3.52433 -1.07585,-5.56573 7.43172,-7.1911z" data-paper-data="{&quot;index&quot;:null}" fill="#7ec03c" stroke="none" stroke-width="0" stroke-linecap="butt"/><path d="M232.84692,27.79847c3.67527,-0.70216 14.04285,-2.02993 18.57252,-2.02993c13.94154,0 25.24338,3.79877 25.24338,8.48481c0,3.20023 -8.51477,2.65035 -16.298,4.0956c-3.61356,0.67099 -4.52496,4.3892 -8.94538,4.3892c-3.28198,0 -19.39221,1.36496 -22.26862,0.9819c-9.34226,-1.24413 -2.97477,-5.88382 -2.97477,-9.4667c0,-3.16352 -0.9657,-4.99591 6.67087,-6.45488z" data-paper-data="{&quot;index&quot;:null}" fill="#7ec03c" stroke="none" stroke-width="0" stroke-linecap="butt"/><path d="M61.00465,109.61545c3.18622,-0.60873 12.17423,-1.75981 16.10116,-1.75981c12.08639,0 21.88435,3.29329 21.88435,7.35577c0,2.77439 -7.38174,2.29769 -14.12929,3.55062c-3.13271,0.58171 -3.92284,3.80515 -7.75505,3.80515c-2.84526,0 -16.81177,1.18332 -19.30543,0.85124c-8.09913,-1.07859 -2.57892,-5.10089 -2.57892,-8.20701c0,-2.74255 -0.8372,-4.33112 5.7832,-5.59595z" data-paper-data="{&quot;index&quot;:null}" fill="#7ec03c" stroke="none" stroke-width="0" stroke-linecap="butt"/><path d="M230.51501,202.73827c4.16433,-0.79559 15.91148,-2.30005 21.0439,-2.30005c15.79669,0 28.60242,4.30427 28.60242,9.61384c0,3.62608 -9.6478,3.00303 -18.46671,4.64059c-4.0944,0.76027 -5.12708,4.97325 -10.1357,4.97325c-3.7187,0 -21.97265,1.54659 -25.23181,1.11257c-10.5854,-1.40969 -3.37061,-6.66676 -3.37061,-10.72641c0,-3.58447 -1.0942,-5.6607 7.55853,-7.3138z" data-paper-data="{&quot;index&quot;:null}" fill="#7ec03c" stroke="none" stroke-width="0" stroke-linecap="butt"/><path d="M408.35971,324.54321c7.63657,1.45896 6.67086,3.29137 6.67086,6.45488c0,3.58289 6.3675,8.22257 -2.97476,9.46671c-2.87642,0.38306 -18.98663,-0.9819 -22.26862,-0.9819c-4.42041,0 -5.33183,-3.71821 -8.94538,-4.3892c-7.78323,-1.44525 -16.298,-0.89537 -16.298,-4.09561c0,-4.68602 11.30184,-8.4848 25.24338,-8.4848c4.52967,0 14.89725,1.32776 18.57252,2.02993z" data-paper-data="{&quot;index&quot;:null}" fill="#7ec03c" stroke="none" stroke-width="0" stroke-linecap="butt"/><path d="M-11.8903,232.68224c4.93283,-0.94242 18.84789,-2.7245 24.92747,-2.7245c18.7119,0 33.8809,5.0986 33.8809,11.38805c0,4.29526 -11.42826,3.55723 -21.87468,5.497c-4.85,0.90058 -6.07327,5.89105 -12.00622,5.89105c-4.40498,0 -26.02764,1.83201 -29.88826,1.31788c-12.5389,-1.66984 -3.99264,-7.89708 -3.99264,-12.70593c0,-4.24597 -1.29614,-6.70537 8.95343,-8.66354z" data-paper-data="{&quot;index&quot;:null}" fill="#7ec03c" stroke="none" stroke-width="0" stroke-linecap="butt"/><path d="M126.88162,297.74862c3.95472,-0.75555 15.11064,-2.18428 19.98473,-2.18428c15.00162,0 27.16283,4.08763 27.16283,9.12997c0,3.44358 -9.1622,2.85188 -17.53726,4.40703c-3.88832,0.72201 -4.86903,4.72295 -9.62557,4.72295c-3.53154,0 -20.86675,1.46874 -23.96187,1.05656c-10.05263,-1.33873 -3.20096,-6.33121 -3.20096,-10.18653c0,-3.40406 -1.03914,-5.3758 7.1781,-6.94569z" data-paper-data="{&quot;index&quot;:null}" fill="#7ec03c" stroke="none" stroke-width="0" stroke-linecap="butt"/><path d="M251.44904,303.75431c4.93283,-0.94242 18.84789,-2.7245 24.92747,-2.7245c18.71191,0 33.8809,5.09861 33.8809,11.38805c0,4.29526 -11.42827,3.55723 -21.87468,5.497c-4.85,0.90058 -6.07327,5.89105 -12.00622,5.89105c-4.40498,0 -26.02764,1.83201 -29.88826,1.31788c-12.5389,-1.66984 -3.99264,-7.89708 -3.99264,-12.70592c0,-4.24597 -1.29614,-6.70537 8.95343,-8.66355z" data-paper-data="{&quot;index&quot;:null}" fill="#7ec03c" stroke="none" stroke-width="0" stroke-linecap="butt"/><g fill="#7b8040" stroke="#b3e645" stroke-width="40" stroke-linecap="butt"><path d="M199,29.10002c69.864,0 126.5,20.8188 126.5,46.5c0,25.6812 -56.636,46.5 -126.5,46.5c-69.864,0 -126.5,-20.8188 -126.5,-46.5c0,-25.6813 56.636,-46.5 126.5,-46.5z"/><path d="M96.5,127.72552c0,-19.1232 48.1294,-34.6255 107.5,-34.6255c59.3706,0 107.5,15.5023 107.5,34.6255c0,19.1231 -48.1294,34.6254 -107.5,34.6254c-59.3706,0 -107.5,-15.5023 -107.5,-34.6254z"/><path d="M-8.5,100.58092c0,-25.1396 53.2781,-45.5192 119,-45.5192c65.7219,0 119,20.3796 119,45.5192c0,25.1395 -53.2781,45.5191 -119,45.5191c-65.7219,0 -119,-20.3796 -119,-45.5191z"/></g><g fill="#93994c" stroke="none" stroke-width="0" stroke-linecap="butt"><path d="M199,29.10001c69.86402,0 126.5,20.81876 126.5,46.5c0,25.68124 -56.63598,46.5 -126.5,46.5c-69.86402,0 -126.5,-20.81876 -126.5,-46.5c0,-25.68124 56.63598,-46.5 126.5,-46.5z"/><path d="M96.5,127.72548c0,-19.12312 48.12939,-34.62547 107.5,-34.62547c59.37061,0 107.5,15.50235 107.5,34.62547c0,19.12312 -48.12939,34.62547 -107.5,34.62547c-59.37061,0 -107.5,-15.50235 -107.5,-34.62547z"/><path d="M110.5,55.06176c65.72189,0 119,20.37961 119,45.51913c0,25.13952 -53.27811,45.51913 -119,45.51913c-65.72189,0 -119,-20.37961 -119,-45.51913c0,-25.13952 53.27811,-45.51913 119,-45.51913z"/></g><path d="M257.5,111.80002c0,4.41828 -17.90861,8 -40,8c-22.09139,0 -40,-3.58172 -40,-8c0,-4.41828 17.90861,-8 40,-8c22.09139,0 40,3.58172 40,8z" fill="#989f47" stroke="none" stroke-width="0" stroke-linecap="butt"/><path d="M114.5,95.30002c0,4.14214 -15.67003,7.5 -35,7.5c-19.32997,0 -35,-3.35786 -35,-7.5c0,-4.14214 15.67003,-7.5 35,-7.5c19.32997,0 35,3.35786 35,7.5z" fill="#989f47" stroke="none" stroke-width="0" stroke-linecap="butt"/><path d="M229.5,68.30002c0,4.14214 -17.23704,7.5 -38.5,7.5c-21.26296,0 -38.5,-3.35786 -38.5,-7.5c0,-4.14214 17.23704,-7.5 38.5,-7.5c21.26296,0 38.5,3.35786 38.5,7.5z" fill="#989f47" stroke="none" stroke-width="0" stroke-linecap="butt"/><g fill="none" stroke-linecap="round"><path d="M289.375,147.52502l3.5,-26" stroke="#2acc00" stroke-width="2.5"/><path d="M284.875,150.02502l-1,-25.25" stroke="#2acc00" stroke-width="2.5"/><path d="M278.125,152.02502l-5.5,-12.75" stroke="#2acc00" stroke-width="2.5"/><path d="M294.875,112.27502l-2.25,12.5" stroke="#b38824" stroke-width="5"/><path d="M282.875,109.52502l0.75,14" stroke="#b38824" stroke-width="5"/><path d="M268.375,129.27502l4,8.75" stroke="#b38824" stroke-width="5"/></g><g data-paper-data="{&quot;index&quot;:null}" fill="none" stroke-linecap="round"><path d="M101.875,119.02502l3.5,26" stroke="#2acc00" stroke-width="2.5"/><path d="M110.875,120.27502l-1,25.25" stroke="#2acc00" stroke-width="2.5"/><path d="M116.625,147.52502l5.5,-12.75" stroke="#2acc00" stroke-width="2.5"/><path d="M102.125,122.27502l-2.25,-12.5" stroke="#b38824" stroke-width="5"/><path d="M111.875,105.02502l-0.75,14" stroke="#b38824" stroke-width="5"/><path d="M126.375,124.77502l-4,8.75" stroke="#b38824" stroke-width="5"/></g><path d="M-47.53754,407.4775v-459.45946h144.14414v459.45946z" fill="url(#color-1)" stroke="none" stroke-width="0" stroke-linecap="butt"/><path d="M-37.02703,68.13815v-124.62462h584.08408v124.62462z" fill="url(#color-2)" stroke="none" stroke-width="0" stroke-linecap="butt"/><path d="M621.32414,376.93694c0,91.2182 -134.44903,165.16517 -300.3003,165.16517c-165.85127,0 -387.38738,-64.93796 -387.38738,-156.15616c0,-44.49944 99.56416,-105.90964 151.59397,-135.6087c19.459,-11.10736 60.71367,4.8289 88.34035,-0.98109c49.92611,-10.49964 92.76924,-37.58439 147.45306,-37.58439c30.22132,0 59.39995,23.47635 86.91244,28.04409c123.47304,20.49954 213.38786,62.5246 213.38786,137.12108z" fill="#f2ec7e" stroke="none" stroke-width="0" stroke-linecap="butt"/><path d="M631.33915,410.97598c0,91.2182 -134.44902,165.16517 -300.3003,165.16517c-165.85128,0 -387.38739,-64.93795 -387.38739,-156.15616c0,-44.49944 99.56416,-105.90964 151.59397,-135.6087c19.459,-11.10736 60.71367,4.8289 88.34035,-0.98109c49.9261,-10.49963 92.76924,-37.58438 147.45306,-37.58438c30.22132,0 59.39995,23.47635 86.91244,28.04409c123.47304,20.49954 213.38786,62.52459 213.38786,137.12107z" fill="#f3e93e" stroke="none" stroke-width="0" stroke-linecap="butt"/></g></g></svg>