<svg version="1.1" xmlns="http://www.w3.org/2000/svg" xmlns:xlink="http://www.w3.org/1999/xlink" width="68.43437" height="90.38112" viewBox="0,0,68.43437,90.38112"><g transform="translate(-215.79949,-109.1076)"><g data-paper-data="{&quot;isPaintingLayer&quot;:true}" fill-rule="nonzero" stroke-linecap="butt" stroke-linejoin="miter" stroke-miterlimit="10" stroke-dasharray="" stroke-dashoffset="0" style="mix-blend-mode: normal"><path d="M245.08562,140.92353c3.84574,2.97703 -3.05108,11.54426 -4.42542,11.86796c-1.57817,0.37171 -7.1096,2.79335 -13.28234,-0.54124c-4.07648,-2.20216 -9.57149,-9.35118 -10.32837,-12.56471c-1.903,-8.07957 -1.32142,-15.1297 1.29899,-15.74688c2.6204,-0.61719 6.28734,5.43228 8.19033,13.51185c0.90492,3.84204 15.06,0.77385 18.54681,3.47302z" data-paper-data="{&quot;index&quot;:null}" fill="#7fbe26" stroke="#71b123" stroke-width="2.5"/><path d="M271.55069,192.07241c0,4.09591 -9.45035,7.41631 -21.10796,7.41631c-11.6576,0 -21.10796,-3.3204 -21.10796,-7.41631c0,-4.09591 9.45035,-7.41631 21.10796,-7.41631c11.6576,0 21.10796,3.3204 21.10796,7.41631z" fill-opacity="0.10588" fill="#1a1a1a" stroke="none" stroke-width="0"/><path d="M282.93841,150.59036c0,1.62136 0.75665,9.73217 -3.90427,14.97603c-3.07808,3.46304 -10.9641,5.00118 -14.26556,5.00118c-8.30066,0 -15.02967,-2.18238 -15.02967,-4.87448c0,-2.69211 6.72901,-4.87448 15.02967,-4.87448c8.30066,0 18.16984,-12.92034 18.16984,-10.22823z" fill="#7fbe26" stroke="#71b123" stroke-width="2.5"/><path d="M234.39769,121.79559c1.80744,-3.08732 12.91076,-11.43799 14.88147,-11.43799c2.72123,0 11.20076,5.09962 13.29838,10.48898c2.22662,5.72082 -1.95332,18.85719 -1.88354,31.45189c0.07107,12.82879 4.3708,25.1125 4.3708,30.29722c0,15.06998 -6.48184,10.89961 -15.03394,10.89961c-8.5521,0 -15.93598,4.17037 -15.93598,-10.89961c0,-5.8503 5.45663,-18.94707 4.78551,-31.51612c-0.65928,-12.34721 -7.4739,-24.17464 -4.48268,-29.28398z" data-paper-data="{&quot;index&quot;:null}" fill="#7fbe26" stroke="#71b123" stroke-width="2.5"/><path d="M245.72626,151.10059c-0.82386,0.13453 -0.95839,-0.68932 -0.95839,-0.68932l-0.21791,-1.33719c-0.65853,-2.85739 -0.97722,-5.7926 -1.52426,-8.676c-0.24882,-1.31152 -0.19352,-2.61131 -1.07646,-3.65587c0,0 -0.52147,-0.65185 0.13037,-1.17332c0.65185,-0.52147 1.17332,0.13037 1.17332,0.13037c1.04426,1.35528 1.10086,2.74098 1.41306,4.38774c0.54589,2.87944 0.86285,5.81186 1.52208,8.66468l0.22752,1.39053c0,0 0.13453,0.82386 -0.68932,0.95839z" fill="#75af23" stroke="none" stroke-width="0.5"/><path d="M252.32066,166.51328c-0.83477,0 -0.83477,-0.83477 -0.83477,-0.83477v-0.10016c0,-5.93505 -0.94873,-11.71955 -1.78599,-17.57608c0,0 -0.11806,-0.82638 0.70832,-0.94443c0.82638,-0.11806 0.94443,0.70832 0.94443,0.70832c0.84734,5.93579 1.80277,11.79695 1.80277,17.81219v0.10016c0,0 0,0.83477 -0.83477,0.83477z" fill="#75af23" stroke="none" stroke-width="0.5"/><path d="M243.04968,179.97114c-0.83477,0 -0.83477,-0.83477 -0.83477,-0.83477l0.00086,-1.15842c-0.43247,-4.73528 -0.29992,-9.49309 -0.29992,-14.24336c0,0 0,-0.83477 0.83477,-0.83477c0.83477,0 0.83477,0.83477 0.83477,0.83477c0,4.72575 -0.12813,9.45665 0.2982,14.1677l0.00086,1.23408c0,0 0,0.83477 -0.83477,0.83477z" fill="#75af23" stroke="none" stroke-width="0.5"/><path d="M250.43542,186.69802c-0.83271,0.05868 -0.89138,-0.77403 -0.89138,-0.77403l-0.00681,-0.09662c-0.18961,-2.6908 -0.72883,-5.44641 -0.43875,-8.12895c0,0 0.09219,-0.82966 0.92185,-0.73748c0.82966,0.09219 0.73748,0.92185 0.73748,0.92185c-0.29375,2.56593 0.26324,5.25029 0.44483,7.82723l0.00681,0.09662c0,0 0.05868,0.8327 -0.77403,0.89138z" fill="#75af23" stroke="none" stroke-width="0.5"/><path d="M253.42031,139.42309c-0.80985,0.20246 -1.01231,-0.60738 -1.01231,-0.60738l-0.30979,-1.2454c-0.68886,-5.46326 -2.11866,-11.92248 -1.04471,-17.36366c0,0 0.16371,-0.81856 0.98227,-0.65485c0.81856,0.16371 0.65485,0.98227 0.65485,0.98227c-1.05597,5.20358 0.39967,11.49851 1.04874,16.7296l0.28834,1.14711c0,0 0.20247,0.80984 -0.60738,1.01231z" fill="#75af23" stroke="none" stroke-width="0.5"/><path d="M221.69818,142.56831c-0.81489,0.18109 -0.99598,-0.6338 -0.99598,-0.6338l-0.17285,-0.7778c-0.6861,-3.08746 -0.64947,-5.92563 -0.8913,-9.05884c0,0 -0.06402,-0.83231 0.76828,-0.89633c0.83231,-0.06402 0.89633,0.76828 0.89633,0.76828c0.23454,3.05895 0.18816,5.81735 0.85646,8.82471l0.17285,0.7778c0,0 0.18109,0.81489 -0.6338,0.99597z" fill="#75af23" stroke="none" stroke-width="0.5"/><path d="M226.95298,149.29224c-0.80989,0.20227 -1.01216,-0.60763 -1.01216,-0.60763l-0.16135,-0.65331c-0.36446,-2.02681 -0.30629,-3.84421 -0.16047,-5.88877c0,0 0.05948,-0.83265 0.89213,-0.77318c0.83265,0.05948 0.77318,0.89213 0.77318,0.89213c-0.1363,1.90524 -0.20918,3.58553 0.13778,5.47117l0.13853,0.54743c0,0 0.20227,0.80989 -0.60763,1.01216z" fill="#75af23" stroke="none" stroke-width="0.5"/><path d="M232.10476,147.36447c-0.82603,0.12044 -0.94647,-0.7056 -0.94647,-0.7056l-0.17286,-1.18588c-0.25515,-1.54636 -0.31948,-2.72774 -0.1285,-4.27171c0,0 0.10354,-0.82832 0.93186,-0.72478c0.82832,0.10354 0.72478,0.93186 0.72478,0.93186c-0.17748,1.40391 -0.11664,2.39398 0.12138,3.80695l0.17539,1.20269c0,0 0.12044,0.82603 -0.7056,0.94647z" fill="#75af23" stroke="none" stroke-width="0.5"/><path d="M276.0216,164.20281c-0.76727,-0.32883 -0.43844,-1.09611 -0.43844,-1.09611l0.42478,-0.98439c0.38661,-1.54641 0.85548,-2.74056 0.85351,-4.36899c0,0 0,-0.83477 0.83477,-0.83477c0.83477,0 0.83477,0.83477 0.83477,0.83477c-0.002,1.81288 -0.51232,3.1878 -0.94087,4.90199l-0.47241,1.10906c0,0 -0.32883,0.76727 -1.09611,0.43844z" fill="#75af23" stroke="none" stroke-width="0.5"/><path d="M264.84433,168.51176c-0.59027,-0.59027 0,-1.18054 0,-1.18054l0.3443,-0.32137c0.97972,-1.46622 2.21373,-2.58745 2.92239,-4.2124c0,0 0.33903,-0.76282 1.10185,-0.42379c0.76282,0.33903 0.42379,1.10185 0.42379,1.10185c-0.77907,1.72544 -2.02361,2.90364 -3.05889,4.46044l-0.55289,0.57582c0,0 -0.59027,0.59027 -1.18054,0z" fill="#75af23" stroke="none" stroke-width="0.5"/></g></g></svg>