<svg version="1.1" xmlns="http://www.w3.org/2000/svg" xmlns:xlink="http://www.w3.org/1999/xlink" width="69.33333" height="82.85333" viewBox="0,0,69.33333,82.85333"><g transform="translate(-205.33335,-138.57335)"><g data-paper-data="{&quot;isPaintingLayer&quot;:true}" fill-rule="nonzero" stroke-linejoin="miter" stroke-miterlimit="10" stroke-dasharray="" stroke-dashoffset="0" style="mix-blend-mode: normal"><path d="M205.33336,221.42669v-82.85333h69.33333v82.85333z" data-paper-data="{&quot;index&quot;:null}" fill="none" stroke="none" stroke-width="0" stroke-linecap="butt"/><path d="M240,161.23334v24.2" data-paper-data="{&quot;index&quot;:null}" fill="none" stroke="#ff0000" stroke-width="5" stroke-linecap="round"/><path d="M250.1,200.13335c0,0 -6.2378,-2.0993 -8.2081,-6.04c-1.9704,-3.9406 -1.7919,-9.56 -1.7919,-9.56" data-paper-data="{&quot;index&quot;:null}" fill="none" stroke="#ff0000" stroke-width="5" stroke-linecap="round"/><path d="M232.7,204.33334c0,0 1.7607,-6.3178 2.5715,-9.4962c0.8537,-3.3463 4.6285,-10.3038 4.6285,-10.3038" data-paper-data="{&quot;index&quot;:null}" fill="none" stroke="#ff0000" stroke-width="5" stroke-linecap="round"/><path d="M240.1589,166.53335c0,0 4.1799,7.3213 5.5287,10.5824c1.2961,3.1338 2.2124,8.0176 2.2124,8.0176" data-paper-data="{&quot;index&quot;:null}" fill="none" stroke="#ff0000" stroke-width="5" stroke-linecap="round"/><path d="M239.84119,166.53335c0,0 -2.847,7.7547 -4.8192,11.2156c-1.5936,2.7965 -4.122,7.3844 -4.122,7.3844" data-paper-data="{&quot;index&quot;:null}" fill="none" stroke="#ff0000" stroke-width="5" stroke-linecap="round"/><path d="M240.00003,169.43334c-4.58396,0 -8.3,-3.71603 -8.3,-8.3c0,-4.58396 3.71603,-8.3 8.3,-8.3c4.58396,0 8.3,3.71603 8.3,8.3c0,4.58397 -3.71603,8.3 -8.3,8.3z" data-paper-data="{&quot;index&quot;:null}" fill="#ff0000" stroke="none" stroke-width="0" stroke-linecap="butt"/></g></g></svg>