<svg version="1.1" xmlns="http://www.w3.org/2000/svg" xmlns:xlink="http://www.w3.org/1999/xlink" width="212.56473" height="121.91714" viewBox="0,0,212.56473,121.91714"><defs><linearGradient x1="92.3" y1="34.21033" x2="92.3" y2="113.69378" gradientUnits="userSpaceOnUse" id="color-1"><stop offset="0" stop-color="#854d00"/><stop offset="1" stop-color="#a56000"/></linearGradient></defs><g transform="translate(-41.31192,-41.12711)"><g data-paper-data="{&quot;isPaintingLayer&quot;:true}" fill-rule="nonzero" stroke-linejoin="miter" stroke-miterlimit="10" stroke-dasharray="" stroke-dashoffset="0" style="mix-blend-mode: normal"><path d="M113.6,51.49379l1.6,62.2l-24.41322,-9.20335l-21.38678,9.20335l0.4,-60.87285z" data-paper-data="{&quot;index&quot;:null}" fill="url(#color-1)" stroke="none" stroke-width="0" stroke-linecap="butt"/><path d="M91.45,80.21045v-17.5h1.25v17.5z" fill="#c1c1c1" stroke="none" stroke-width="0" stroke-linecap="butt"/><path d="M93.25,79.94379v-17.5h1.25v17.5z" fill="#c1c1c1" stroke="none" stroke-width="0" stroke-linecap="butt"/><path d="M92.25,79.87713v-17.5h1.25v17.5z" fill="#b1b1b1" stroke="none" stroke-width="0" stroke-linecap="butt"/><path d="M106.83912,157.59294l0.98508,-77.3652l28.09012,-0.6781l-7.02675,40.27073l-1.34651,38.45067z" data-paper-data="{&quot;index&quot;:null}" fill="#a56000" stroke="none" stroke-width="0" stroke-linecap="butt"/><path d="M53.05098,158.10052l-1.13812,-38.45067l-5.93921,-40.27073l23.74258,0.6781l0.83263,77.3652z" fill="#a56000" stroke="none" stroke-width="0" stroke-linecap="butt"/><path d="M41.31192,73.4634l42.17777,-32.33629l13.85841,18.07619l-42.17777,32.33629z" fill="#d1d1d1" stroke="none" stroke-width="0" stroke-linecap="butt"/><path d="M131.32302,91.78959l-42.17777,-32.33629l13.85841,-18.07618l42.17778,32.33629z" data-paper-data="{&quot;index&quot;:null}" fill="#d1d1d1" stroke="none" stroke-width="0" stroke-linecap="butt"/><path d="M83.5,55.62712v-14.5h19.5v14.5z" fill="#d1d1d1" stroke="none" stroke-width="0" stroke-linecap="butt"/><path d="M67,82.62713v-3.5h54.5v3.5z" fill="#d1d1d1" stroke="none" stroke-width="0" stroke-linecap="butt"/><path d="M73.16667,67.62712l8.33333,-6.5" fill="none" stroke="#bfbfbf" stroke-width="2.5" stroke-linecap="round"/><path d="M59.5,67.29379l6.66667,-4.66667" fill="none" stroke="#bfbfbf" stroke-width="2.5" stroke-linecap="round"/><path d="M63,76.62712l-6.66667,4.66667" fill="none" stroke="#bfbfbf" stroke-width="2.5" stroke-linecap="round"/><path d="M102.16667,58.46045l6.66666,4.66667" data-paper-data="{&quot;index&quot;:null}" fill="none" stroke="#bfbfbf" stroke-width="2.5" stroke-linecap="round"/><path d="M116.5,59.62713l6.66667,4.66666" data-paper-data="{&quot;index&quot;:null}" fill="none" stroke="#bfbfbf" stroke-width="2.5" stroke-linecap="round"/><path d="M131.28572,81.96046l-10.95238,-7.66667" data-paper-data="{&quot;index&quot;:null}" fill="none" stroke="#bfbfbf" stroke-width="2.5" stroke-linecap="round"/><path d="M68.8,157.49379v-19l21.2,2.2l24.2,-2.2v19z" fill="#a56000" stroke="none" stroke-width="0" stroke-linecap="butt"/><path d="M70.2,138.62712v-27l20.40882,-5l18.14118,5v27z" fill="none" stroke="#d1d1d1" stroke-width="5" stroke-linecap="butt"/><path d="M138.64839,156.93302l-1.29006,-21.67125l4.52389,0.01278l1.29006,21.67125z" fill="#b36900" stroke="none" stroke-width="0" stroke-linecap="butt"/><path d="M165.53295,162.65593l-1.29006,-21.67125l4.52389,0.01278l1.29006,21.67125z" fill="#b36900" stroke="none" stroke-width="0" stroke-linecap="butt"/><path d="M152.26224,157.83407l-1.29006,-21.67125l4.52389,0.01278l1.29006,21.67125z" fill="#b36900" stroke="none" stroke-width="0" stroke-linecap="butt"/><path d="M184.25668,159.05714l-1.29006,-21.67124l4.52389,0.01277l1.29006,21.67125z" fill="#b36900" stroke="none" stroke-width="0" stroke-linecap="butt"/><path d="M201.49664,162.4756l-1.29006,-21.67124l4.52389,0.01277l1.29006,21.67125z" fill="#b36900" stroke="none" stroke-width="0" stroke-linecap="butt"/><path d="M216.74501,159.05678l-1.29006,-21.67124l4.52389,0.01277l1.29006,21.67125z" fill="#b36900" stroke="none" stroke-width="0" stroke-linecap="butt"/><path d="M231.07577,161.51819l-1.29006,-21.67125l4.52389,0.01278l1.29006,21.67125z" fill="#b36900" stroke="none" stroke-width="0" stroke-linecap="butt"/><path d="M246.30094,163.03327l-1.10928,-18.63444l3.88996,0.01098l1.10927,18.63445z" fill="#b36900" stroke="none" stroke-width="0" stroke-linecap="butt"/><path d="M168.43703,145.82905l-33.54819,-10.89624l89.99868,0.25412l28.98913,11.1714z" data-paper-data="{&quot;index&quot;:null}" fill="#995900" stroke="none" stroke-width="0" stroke-linecap="butt"/></g></g></svg>