<svg version="1.1" xmlns="http://www.w3.org/2000/svg" xmlns:xlink="http://www.w3.org/1999/xlink" width="118.11686" height="95.71858" viewBox="0,0,118.11686,95.71858"><g transform="translate(-181.66908,-116.8197)"><g data-paper-data="{&quot;isPaintingLayer&quot;:true}" fill-rule="nonzero" stroke-linecap="butt" stroke-linejoin="miter" stroke-miterlimit="10" stroke-dasharray="" stroke-dashoffset="0" style="mix-blend-mode: normal"><path d="M241.82275,212.53828c-28.40747,0 -51.43627,-10.51929 -51.43627,-23.49552c0,-12.97622 23.0288,-23.49552 51.43627,-23.49552c28.40747,0 51.43627,10.51929 51.43627,23.49552c0,12.97622 -23.0288,23.49552 -51.43627,23.49552z" data-paper-data="{&quot;index&quot;:null}" fill-opacity="0.10588" fill="#1a1a1a" stroke="none" stroke-width="0"/><path d="M228.31131,155.76852c2.28534,2.27226 11.48973,1.35476 12.57227,4.18093c1.04755,2.73458 -5.98824,9.20143 -6.06785,12.0906c-0.0861,3.1304 7.81308,9.5436 6.40239,12.41727c-1.03379,2.10584 -11.07093,0.78433 -12.81672,2.54015c-2.31122,2.32477 -2.77239,12.43743 -5.65336,13.51757c-2.74917,1.03071 -7.90203,-6.91528 -10.79949,-7.0187c-2.79519,-0.09988 -9.09596,7.25598 -11.69866,6.09975c-2.39095,-1.06214 -1.11158,-10.55393 -3.07743,-12.50838c-2.22145,-2.20869 -13.16834,-1.64499 -14.25338,-4.38253c-1.21193,-3.05749 7.57866,-9.4592 7.78585,-12.69678c0.14408,-2.24958 -8.46072,-8.22062 -7.63095,-10.35003c1.06921,-2.74358 11.79956,-1.57814 14.00837,-3.79958c2.0818,-2.09389 1.13072,-12.75443 3.6916,-13.83867c2.5913,-1.09722 8.69844,7.39391 11.46697,7.33138c3.02584,-0.06822 8.92022,-7.27841 11.76369,-6.10965c2.60304,1.07013 2.18661,10.41894 4.30668,12.52673z" data-paper-data="{&quot;index&quot;:null}" fill="#7fbe26" stroke="#71b123" stroke-width="2.5"/><path d="M268.45704,137.10498c3.16399,3.14587 15.90794,1.87563 17.40679,5.78855c1.45043,3.78614 -8.29101,12.73984 -8.40117,16.73977c-0.11926,4.33424 10.81749,13.21367 8.86428,17.19232c-1.43132,2.91558 -15.32806,1.08585 -17.74509,3.51699c-3.20009,3.21857 -3.83853,17.21998 -7.82741,18.71554c-3.80618,1.42708 -10.94051,-9.57459 -14.95229,-9.71776c-3.86998,-0.13828 -12.59359,10.04616 -16.19714,8.44535c-3.31048,-1.47061 -1.53907,-14.6123 -4.26079,-17.3183c-3.07583,-3.05808 -18.23211,-2.2776 -19.73439,-6.06774c-1.67802,-4.23331 10.49287,-13.09669 10.77979,-17.57923c0.19943,-3.11468 -11.71424,-11.38166 -10.56531,-14.32993c1.4804,-3.79868 16.33701,-2.18501 19.39509,-5.26073c2.88232,-2.89906 1.5656,-17.65886 5.11106,-19.16011c3.58784,-1.51912 12.04341,10.23705 15.87649,10.15059c4.18935,-0.09454 12.3504,-10.07734 16.28723,-8.45902c3.60413,1.48155 3.02754,14.42538 5.96284,17.34371z" data-paper-data="{&quot;index&quot;:null}" fill="#7fbe26" stroke="#71b123" stroke-width="2.5"/><path d="M288.63092,166.53255c1.80047,1.79009 9.05211,1.06727 9.90502,3.29385c0.82534,2.15449 -4.71775,7.24938 -4.78051,9.52549c-0.06788,2.46624 6.15556,7.51887 5.04409,9.78281c-0.8145,1.65912 -8.72213,0.61793 -10.0975,2.00128c-1.82098,1.83156 -2.18422,9.79875 -4.45397,10.64972c-2.16588,0.81203 -6.2256,-5.4481 -8.50834,-5.52964c-2.2021,-0.07872 -7.1661,5.71656 -9.21671,4.80557c-1.88374,-0.83674 -0.87579,-8.31472 -2.42454,-9.85456c-1.75011,-1.7401 -10.37452,-1.29599 -11.22936,-3.45275c-0.95486,-2.40883 5.9708,-7.45234 6.13401,-10.00309c0.11344,-1.77235 -6.66574,-6.47653 -6.01193,-8.1541c0.8423,-2.16166 9.29609,-1.24337 11.0363,-2.99361c1.64021,-1.64966 0.89084,-10.04842 2.90839,-10.90259c2.04148,-0.86451 6.85296,5.82513 9.0341,5.77592c2.38388,-0.05378 7.02772,-5.73434 9.26796,-4.81343c2.05084,0.84298 1.7228,8.20842 3.39296,9.86914z" data-paper-data="{&quot;index&quot;:null}" fill="#7fbe26" stroke="#71b123" stroke-width="2.5"/></g></g></svg>