<svg version="1.1" xmlns="http://www.w3.org/2000/svg" xmlns:xlink="http://www.w3.org/1999/xlink" width="228.95336" height="155.70297" viewBox="0,0,228.95336,155.70297"><g transform="translate(-106.12619,-65.07489)"><g data-paper-data="{&quot;isPaintingLayer&quot;:true}" fill-rule="nonzero" stroke-linecap="butt" stroke-linejoin="miter" stroke-miterlimit="10" stroke-dasharray="" stroke-dashoffset="0" style="mix-blend-mode: normal"><path d="M307.37818,94.76673c0,3.61259 2.10628,11.08762 -6.1184,13.95431c-2.3917,0.83362 -4.53538,1.72364 -6.56785,2.63262c-3.14012,1.40436 -19.02223,1.89051 -22.13595,3.24749c-3.07367,1.33952 6.62715,3.55226 2.60227,4.57844c-6.31312,1.60959 -14.39333,2.67047 -26.11341,2.67047c-8.02365,0 -18.84014,-1.6837 -34.7623,-6.46304c-3.11691,-0.9356 4.06987,-1.55268 -0.79671,-3.45453c-1.89953,-0.74233 -17.27368,-3.51802 -18.35885,-3.82877c-3.09162,-0.88532 -0.17578,3.49473 -2.47469,2.97071c-5.24078,-1.1946 -14.33049,-6.64528 -17.86902,-6.85726c-3.35874,-0.20121 -6.67466,-0.05124 -9.88789,0.27679c-2.83837,0.28976 2.1115,-0.24506 -0.5254,0.20324c-0.84469,0.1436 8.44753,3.0885 6.17864,3.41351c-3.48909,0.49981 -18.86661,-1.57959 -20.05494,-1.3819c-5.5586,0.92474 -10.29481,1.43851 -13.70402,0.0814c-6.66886,-2.65469 -5.07816,-8.81682 -5.07816,-12.04348c0,-3.14577 -0.02806,-9.61139 6.33205,-12.21811c4.58117,-1.87761 6.13191,-1.71872 13.75499,-4.40398c4.39972,-1.54982 14.03499,-6.61728 19.16828,-6.95068c4.80647,-0.31216 12.33216,1.6191 20.8684,4.33612c2.66947,0.84967 10.73709,6.83463 13.55195,7.79341c4.99687,1.70199 4.84117,-1.55281 9.83926,0.10314c10.25492,3.39763 19.89711,6.17342 26.40172,6.17342c2.58732,0 5.02846,-0.10918 7.33891,-0.30628c4.41322,-0.37649 21.35708,-1.55554 24.92469,-2.42557c6.00225,-1.46376 -2.0469,-2.93471 2.38173,-4.67117c8.05748,-3.15934 14.36161,-5.60288 22.00974,-3.08361c0.0439,0.01446 -1.31233,-0.77102 -1.26867,-0.75644c8.77472,2.93116 10.36361,12.66803 10.36361,16.40975z" fill="#ffffff" stroke="#000000" stroke-width="2.5"/><path d="M335.07955,211.27311c0,3.5147 -12.10535,6.36394 -27.03807,6.36394c-14.9327,0 -27.03809,-2.84924 -27.03809,-6.36394c0,-3.5147 12.10536,-6.36393 27.03809,-6.36393c14.9327,0 27.03807,2.84924 27.03807,6.36393z" fill-opacity="0.10588" fill="#1a1a1a" stroke="none" stroke-width="0"/><path d="M294.75345,211.6782c0,0 -0.46301,-0.37306 1.52531,-1.66198c1.55102,-1.00545 5.66307,-2.68076 5.66307,-4.43555c0,-3.75002 0,-8.92396 0,-14.89999c0,-3.40394 3.13993,-31.17836 0,-10.87763c-1.05836,6.84261 0,-14.32801 0,-21.52201c0,-7.25443 3.01913,-8.97588 3.01913,-15.09563c0,-1.90625 -2.12331,7.6908 -2.88924,4.63515c-0.42988,-1.715 0.93972,-8.67422 1.03633,-13.66294c0.07043,-3.63681 -1.16622,-5.75351 -1.16622,-6.35539c0,-18.42581 0,-48.65281 0,-48.65281h9.71827c0,0 -0.04018,14.23802 -0.89701,19.8666c-0.50064,3.28884 -2.01864,-2.41776 -2.01864,0.38228c0,7.4551 2.91566,9.7419 2.91566,21.08241c0,0.74308 0,1.49084 0,2.24282c0,1.2231 -1.6821,0.21451 -1.6821,1.45781c0,1.1146 1.6821,4.47931 1.6821,5.60703c0,14.27774 0,29.48643 0,42.61338c0,1.40826 -1.1214,6.26892 -1.1214,7.62555c0,1.76932 1.1214,0.0152 1.1214,1.68211c0,0.4908 0,0.97682 0,1.45782c0,10.62017 0,18.79915 0,22.26964c0,1.84895 7.76346,4.55105 7.76346,5.75072c0,1.10126 -11.35195,3.24519 -11.35195,3.24519z" data-paper-data="{&quot;index&quot;:null}" fill="#a66221" stroke="#000000" stroke-width="2.5"/><path d="M309.63857,113.9236c0.47643,2.38215 0.83586,9.76763 -3.63716,7.21164c-2.17798,-1.24456 -2.39937,-9.07564 -2.13323,-11.33273c0.06043,-0.51242 0.21396,-0.9905 0.43379,-1.42281c0.76193,-1.49828 1.07439,-3.53665 2.31439,-3.45687c1.08586,0.06986 1.69388,2.25185 1.54256,4.21898z" data-paper-data="{&quot;index&quot;:null}" fill="#89501b" stroke="none" stroke-width="0.5"/><path d="M308.32671,158.99702c1.19543,0.6831 -0.11155,3.66351 -0.2085,4.63515c-0.27966,2.80278 4.33832,12.24408 -1.20308,12.55193c-2.97713,0.1654 -2.52041,-3.2306 -2.54878,-5.22724c-0.05167,-3.63722 -2.16341,-7.56285 -0.78441,-10.6121c0.438,-0.96849 1.2281,-1.84856 2.54821,-2.6029z" data-paper-data="{&quot;index&quot;:null}" fill="#89501b" stroke="none" stroke-width="0.5"/><path d="M311.12699,81.14908c-0.63439,0.37539 -1.32226,-0.07843 -1.32226,-0.07843l0.13119,-0.07462c-1.71765,-0.20635 -3.4824,-0.58463 -5.216,-0.42881c-1.04043,0.09351 -2.48897,0.57623 -3.46265,-0.08972c-0.22911,-0.1567 -1.24728,-2.49016 -1.48444,-3.01984c-1.42446,-3.18154 -2.04021,-5.92847 0.42858,-8.79944c1.51358,-1.68934 2.94698,-3.11377 5.32465,-3.48051c9.07884,-1.40036 16.01072,11.89824 6.25903,15.88374c0,0 -0.29995,0.11973 -0.65812,0.08763zM310.84022,78.69428c7.05209,-2.72831 1.14094,-11.98346 -4.96945,-10.99122c-1.73302,0.28142 -2.67532,1.43151 -3.77058,2.65539c-1.85064,1.9428 -0.96035,3.91406 -0.00101,6.05794c0.2824,0.63108 0.11792,1.50849 0.62595,1.97746c0.44168,0.40773 1.16692,-0.31568 1.76599,-0.36513c1.92878,-0.15919 3.83897,0.20728 5.74881,0.43671l0.53006,0.2615c0.04365,-0.02205 0.07022,-0.03266 0.07022,-0.03266z" data-paper-data="{&quot;index&quot;:null}" fill="#000000" stroke="#000000" stroke-width="0"/><path d="M310.86644,78.73802c0,0 -0.02711,0.01093 -0.07076,0.03295l-0.53253,-0.26016c-1.90984,-0.22944 -3.87035,-0.5981 -5.79913,-0.4389c-0.59909,0.04945 -1.33176,0.76716 -1.77345,0.35941c-0.50802,-0.46898 -0.35277,-1.35776 -0.63518,-1.98886c-0.95932,-2.14387 -1.85111,-4.1647 -0.00045,-6.1075c1.09526,-1.22388 2.06797,-2.39927 3.80099,-2.68069c6.1104,-0.99225 12.06258,8.35541 5.01049,11.08372z" data-paper-data="{&quot;noHover&quot;:false,&quot;origItem&quot;:[&quot;Path&quot;,{&quot;applyMatrix&quot;:true,&quot;segments&quot;:[[[481.80828,321.93739],[-0.08559,-0.04323],[0,0]],[[482.84812,321.4244],[0,0],[3.74658,-0.45011]],[[494.12574,320.5677],[-3.78374,-0.3123],[1.17523,0.097]],[[497.59014,321.28397],[-0.86646,0.79988],[0.99659,-0.92]],[[498.81805,317.40471],[-0.55398,1.23802],[1.88194,-4.20569]],[[498.81607,305.5207],[3.63047,3.81124],[-2.1486,-2.40093]],[[491.41924,300.31153],[3.39971,0.55207],[-11.98695,-1.94652]],[[481.67052,321.87334],[-13.8343,-5.35222],[0,0]]],&quot;closed&quot;:true}],&quot;index&quot;:null}" fill="#d0b500" stroke="none" stroke-width="0.5"/><path d="M160.20234,214.41392c0,3.5147 -12.10536,6.36394 -27.03807,6.36394c-14.9327,0 -27.03808,-2.84924 -27.03808,-6.36394c0,-3.5147 12.10536,-6.36393 27.03808,-6.36393c14.9327,0 27.03807,2.84924 27.03807,6.36393z" fill-opacity="0.10588" fill="#1a1a1a" stroke="none" stroke-width="0"/><path d="M119.87624,214.81901c0,0 -0.46301,-0.37306 1.52531,-1.66198c1.55102,-1.00545 5.66308,-2.68076 5.66308,-4.43555c0,-3.75002 0,-8.92396 0,-14.89999c0,-3.40394 3.13993,-31.17836 0,-10.87763c-1.05836,6.84261 0,-14.32801 0,-21.52201c0,-7.25443 3.01913,-8.97588 3.01913,-15.09563c0,-1.90625 -2.12331,7.6908 -2.88924,4.63515c-0.42988,-1.715 0.93972,-8.67422 1.03633,-13.66294c0.07044,-3.63681 -1.16622,-5.75351 -1.16622,-6.35539c0,-18.42581 0,-48.65281 0,-48.65281h9.71827c0,0 -0.04018,14.23802 -0.89701,19.8666c-0.50064,3.28884 -2.01863,-2.41776 -2.01863,0.38228c0,7.4551 2.91565,9.7419 2.91565,21.08241c0,0.74308 0,1.49084 0,2.24282c0,1.2231 -1.68211,0.21451 -1.68211,1.45781c0,1.1146 1.68211,4.47931 1.68211,5.60703c0,14.27774 0,29.48643 0,42.61338c0,1.40826 -1.1214,6.26892 -1.1214,7.62555c0,1.76932 1.1214,0.0152 1.1214,1.68211c0,0.4908 0,0.97682 0,1.45782c0,10.62017 0,18.79915 0,22.26964c0,1.84895 7.76346,4.55105 7.76346,5.75072c0,1.10126 -11.35196,3.24519 -11.35196,3.24519z" data-paper-data="{&quot;index&quot;:null}" fill="#a66221" stroke="#000000" stroke-width="2.5"/><path d="M134.76136,117.0644c0.47643,2.38215 0.83587,9.76763 -3.63716,7.21163c-2.17798,-1.24456 -2.39937,-9.07563 -2.13323,-11.33273c0.06044,-0.51242 0.21397,-0.9905 0.43379,-1.42281c0.76193,-1.49828 1.07439,-3.53665 2.3144,-3.45687c1.08586,0.06986 1.69388,2.25185 1.54256,4.21898z" data-paper-data="{&quot;index&quot;:null}" fill="#89501b" stroke="none" stroke-width="0.5"/><path d="M133.44951,162.1378c1.19543,0.6831 -0.11155,3.66351 -0.2085,4.63515c-0.27966,2.80278 4.33832,12.24408 -1.20308,12.55193c-2.97713,0.1654 -2.5204,-3.2306 -2.54877,-5.22724c-0.05167,-3.63722 -2.16342,-7.56285 -0.78442,-10.6121c0.438,-0.96849 1.2281,-1.84856 2.54821,-2.6029z" data-paper-data="{&quot;index&quot;:null}" fill="#89501b" stroke="none" stroke-width="0.5"/><path d="M136.24978,84.28988c-0.63439,0.37539 -1.32226,-0.07843 -1.32226,-0.07843l0.1312,-0.07462c-1.71765,-0.20635 -3.4824,-0.58463 -5.216,-0.42881c-1.04042,0.09351 -2.48897,0.57623 -3.46265,-0.08972c-0.22911,-0.1567 -1.24728,-2.49016 -1.48444,-3.01984c-1.42446,-3.18154 -2.04022,-5.92847 0.42858,-8.79944c1.51358,-1.68934 2.94698,-3.11377 5.32465,-3.48051c9.07884,-1.40036 16.01072,11.89824 6.25902,15.88374c0,0 -0.29995,0.11973 -0.65812,0.08763zM135.96301,81.83508c7.05209,-2.72831 1.14094,-11.98346 -4.96945,-10.99122c-1.73301,0.28142 -2.67531,1.43151 -3.77057,2.65539c-1.85064,1.9428 -0.96034,3.91406 -0.00101,6.05794c0.2824,0.63108 0.11792,1.50849 0.62595,1.97746c0.44168,0.40773 1.16692,-0.31568 1.76599,-0.36513c1.92878,-0.15919 3.83897,0.20728 5.74881,0.43671l0.53007,0.2615c0.04364,-0.02205 0.07022,-0.03266 0.07022,-0.03266z" data-paper-data="{&quot;index&quot;:null}" fill="#000000" stroke="#000000" stroke-width="0"/><path d="M135.98924,81.87883c0,0 -0.02712,0.01093 -0.07076,0.03295l-0.53252,-0.26016c-1.90984,-0.22944 -3.87035,-0.5981 -5.79913,-0.4389c-0.5991,0.04945 -1.33176,0.76716 -1.77345,0.35941c-0.50803,-0.46898 -0.35277,-1.35776 -0.63518,-1.98886c-0.95933,-2.14387 -1.85111,-4.1647 -0.00045,-6.1075c1.09525,-1.22388 2.06798,-2.39927 3.80099,-2.68069c6.1104,-0.99225 12.06257,8.35541 5.01048,11.08372z" data-paper-data="{&quot;noHover&quot;:false,&quot;origItem&quot;:[&quot;Path&quot;,{&quot;applyMatrix&quot;:true,&quot;segments&quot;:[[[481.80828,321.93739],[-0.08559,-0.04323],[0,0]],[[482.84812,321.4244],[0,0],[3.74658,-0.45011]],[[494.12574,320.5677],[-3.78374,-0.3123],[1.17523,0.097]],[[497.59014,321.28397],[-0.86646,0.79988],[0.99659,-0.92]],[[498.81805,317.40471],[-0.55398,1.23802],[1.88194,-4.20569]],[[498.81607,305.5207],[3.63047,3.81124],[-2.1486,-2.40093]],[[491.41924,300.31153],[3.39971,0.55207],[-11.98695,-1.94652]],[[481.67052,321.87334],[-13.8343,-5.35222],[0,0]]],&quot;closed&quot;:true}],&quot;index&quot;:null}" fill="#d0b500" stroke="none" stroke-width="0.5"/><path d="M151.07128,91.18878l0.4195,-0.13983c0,0 0.10545,-0.03515 0.26394,-0.05304c0,-1.81268 0,-3.62626 0,-5.19335c0,0 0,-1.25 1.25,-1.25c1.25,0 1.25,1.25 1.25,1.25c0,3.1229 0,6.24581 0,9.36871v0.97882c0,0 0,1.25 -1.25,1.25c-1.25,0 -1.25,-1.25 -1.25,-1.25c0,-0.79841 0,-1.6608 0,-2.55445c-1.68473,0.54713 -3.28714,0.80203 -5.02417,0.8566c0.02439,0.9013 0.01512,1.81582 0.01512,2.77618v0.81282c0,0 0,1.25 -1.25,1.25c-1.25,0 -1.25,-1.25 -1.25,-1.25v-0.81282c0,-2.22599 0.1016,-4.20039 -0.45037,-6.36191c0,0 -0.30317,-1.21268 0.90951,-1.51584c1.21268,-0.30317 1.51585,0.90951 1.51585,0.90951c0.14169,0.57737 0.24554,1.1407 0.32157,1.69761c1.57456,-0.03727 3.00181,-0.25664 4.52906,-0.76901z" fill="#000000" stroke="none" stroke-width="0.5"/><path d="M157.4448,99.19361c-1.22573,0.24514 -1.47087,-0.98058 -1.47087,-0.98058l-0.16411,-0.9443c0,-1.81498 0.01432,-3.59093 0.14301,-5.40266c0,0 0.08906,-1.24683 1.33588,-1.15776c1.24683,0.08906 1.15777,1.33589 1.15777,1.33589c-0.1259,1.75247 -0.13666,3.46871 -0.13666,5.22454l0.11556,0.45401c0,0 0.24514,1.22573 -0.98059,1.47087z" fill="#000000" stroke="none" stroke-width="0.5"/><path d="M167.54719,82.31525c1.25,0 1.25,1.25 1.25,1.25c0,0.51272 0,1.30509 0,1.8178c0,3.40684 0.06782,6.72841 -0.43169,10.10216c-0.34404,2.32374 -0.76031,4.18223 -3.69199,3.71371c-5.99989,-0.95885 -2.94677,-10.78048 1.42169,-9.98701c0.0856,-0.02362 0.1749,-0.03838 0.26682,-0.04319c-0.0171,-1.27076 -0.06484,-2.5412 -0.06484,-3.78567c0,-0.51271 0,-1.02543 0,-1.53814v-0.27966c0,0 0,-1.25 1.25,-1.25zM166.31325,92.06024c-1.22832,-2.16643 -2.59407,2.63084 -2.4436,3.66282c0.08832,0.60579 1.19343,1.51243 1.78515,1.1675c0.28226,-0.16454 0.48707,-3.08237 0.51336,-3.28151c0.06755,-0.51177 0.11406,-1.02864 0.1451,-1.54881z" fill="#000000" stroke="none" stroke-width="0.5"/><path d="M180.80568,96.50391c0.2055,1.23299 -1.02749,1.43849 -1.02749,1.43849l-1.04449,0.15684c-1.99927,0 -5.38181,0.53292 -7.1619,-0.5674c-2.40389,-1.4859 -1.84016,-4.91411 -0.21241,-6.81779c1.21579,-1.42189 5.07836,-3.20777 6.80576,-1.65143c1.74833,1.5752 0.22978,4.83481 -1.32224,5.79219c-0.64816,0.39982 -2.67746,0.51147 -3.44947,0.5825c0,0 -0.60757,0.05524 -1.01238,-0.33593c0.15543,0.40219 0.91207,0.31411 1.37065,0.37282c1.64971,0.21122 3.32143,0.12503 4.98199,0.12503l0.63349,-0.12282c0,0 1.23299,-0.20549 1.43849,1.0275zM172.87203,93.01503c0.16863,-0.05596 0.29507,-0.06745 0.29507,-0.06745c0.49063,-0.044 0.98203,-0.08017 1.4719,-0.13202c0.47411,-0.05017 2.43592,-1.72168 1.86662,-1.88318c-1.25404,-0.35575 -2.82122,0.76235 -3.6336,2.08265z" fill="#000000" stroke="none" stroke-width="0.5"/><path d="M218.47435,104.67509c-0.39529,1.18586 -1.58113,0.79057 -1.58113,0.79057l-0.97329,-0.5122c-0.6134,-0.71671 -1.65083,-2.04348 -2.51139,-3.47064c-1.97687,1.59968 -5.63098,1.6591 -7.35145,-0.23441c-2.42316,-2.66688 -1.21042,-8.75806 2.77713,-9.1238c1.23275,-0.11307 3.16806,0.67934 4.33886,1.02988c0,0 0.81162,0.24348 0.89792,0.99774c0.48475,0.172 0.83189,0.63464 0.83189,1.17836v1.39831c-0.00333,0.46736 0.01282,0.88118 0.01031,1.27273c1.04624,1.61964 1.77564,4.00953 2.90489,5.32485l-0.1343,-0.23253c0,0 1.18586,0.39528 0.79057,1.58114zM212.19268,98.95414c-0.20824,-0.64441 -0.29846,-1.24431 -0.20789,-1.74641c0.02022,-0.11207 0.04743,-0.22156 0.08065,-0.32885l-0.05005,-0.01155l0.31291,-1.35593c-0.807,-0.23829 -1.62481,-0.43941 -2.44238,-0.63854c-2.31309,-0.56339 -3.59634,3.04243 -2.06107,4.60779c1.18322,1.20641 3.60459,0.89565 4.36783,-0.5265z" fill="#000000" stroke="none" stroke-width="0.5"/><path d="M225.50929,104.92493c0.02839,0.25056 0.05691,1.15017 -0.95793,1.35064c-1.18209,0.23351 -1.41559,-0.94858 -1.41559,-0.94858l-0.03931,-0.51802c0.1323,-1.01783 0.24508,-1.44563 0.13572,-2.4966c-0.08938,-0.85899 -0.24983,-1.71557 -0.49982,-2.54223c-0.56023,-1.85255 -1.87425,-2.563 -2.7219,-0.1769c-0.7391,2.08055 -1.13266,3.75643 -0.69778,5.9394c0,0 0.23351,1.18209 -0.94858,1.4156c-1.18209,0.23351 -1.41559,-0.94858 -1.41559,-0.94858c-0.5341,-2.72433 -0.23701,-6.37901 1.58969,-8.65257c1.18983,-1.4809 3.34414,-2.55662 5.1326,-1.1253c2.04755,1.63868 2.10377,6.32447 1.8385,8.70314z" fill="#000000" stroke="none" stroke-width="0.5"/><path d="M230.46569,92.8973c1.41183,0.07161 1.34022,1.48345 1.34022,1.48345c-0.02937,0.57909 -0.07478,1.47406 -0.10415,2.05315c-0.19519,3.84792 -0.30889,7.60343 -1.06636,11.38536c-0.52173,2.60488 -1.09837,4.68014 -4.38276,3.983c-6.72174,-1.42675 -2.71064,-12.34505 2.17795,-11.19857c0.09805,-0.02178 0.19974,-0.03333 0.30384,-0.0335c0.05348,-1.43627 0.07235,-2.87391 0.14365,-4.27952c0.02937,-0.57909 0.05876,-1.15819 0.08813,-1.73729l0.01602,-0.31587c0,0 0.07162,-1.41183 1.48345,-1.34022zM228.51367,103.83327c-1.26323,-2.51729 -3.08065,2.82283 -2.96983,3.99703c0.06506,0.68928 1.26129,1.77662 1.94938,1.42093c0.32823,-0.16967 0.72673,-3.45352 0.76782,-3.67694c0.10562,-0.57416 0.18777,-1.1553 0.25262,-1.74102z" fill="#000000" stroke="none" stroke-width="0.5"/><path d="M250.75106,109.86259c-0.18462,-1.23629 1.05167,-1.4209 1.05167,-1.4209l0.55319,-0.08261c1.62359,-0.24175 4.68882,-0.28645 5.60524,-2.0136c1.2994,-2.44894 -2.33534,-1.24048 -3.54635,-2.17433c-2.70571,-2.08648 -0.82876,-4.23952 1.6958,-4.71428c0.54487,-0.10246 1.10678,-0.06757 1.66018,-0.10135c0,0 1.24793,-0.07193 1.31986,1.176c0.07193,1.24792 -1.176,1.31986 -1.176,1.31986c-3.48051,0.18676 -2.08154,-0.01919 0.11996,0.48033c1.92807,0.43747 2.50511,0.79282 2.61037,2.95866c0.21055,4.33252 -4.74828,5.0664 -7.91983,5.54131l-0.55319,0.08261c0,0 -1.23629,0.18461 -1.42091,-1.05168z" fill="#000000" stroke="none" stroke-width="0.5"/><path d="M282.66177,102.59491c0.70503,1.0322 -0.32717,1.73723 -0.32717,1.73723l-1.26162,0.81539c-3.58994,1.30924 -9.99607,3.00808 -10.81457,-2.47663c-0.10757,-0.72082 -0.27961,-1.47506 -0.10928,-2.18367c0.56709,-2.35923 3.93354,-4.58035 6.36053,-3.66848c2.68728,1.00967 2.96702,4.1011 0.49313,5.54155c-1.0052,0.58529 -2.9744,0.65251 -4.10882,0.75456c0,0 -0.0098,0.00086 -0.02774,0.00156c0.01434,0.03185 0.02919,0.06356 0.04457,0.09511c1.02628,2.10564 5.8891,0.10876 7.30225,-0.41146l0.71148,-0.53232c0,0 1.0322,-0.70504 1.73723,0.32716zM272.85034,100.61829c0.79555,-0.02919 3.9747,-0.1909 3.40264,-1.19795c-0.28636,-0.50412 -1.99138,-0.0579 -2.30788,0.10588c-0.50916,0.26347 -0.87157,0.64654 -1.09476,1.09207z" fill="#000000" stroke="none" stroke-width="0.5"/><path d="M272.14095,105.02658c0.71449,1.02568 -0.31119,1.74016 -0.31119,1.74016l-1.25408,0.82695c-3.57775,1.34218 -9.968,3.09982 -10.83687,-2.37713c-0.11419,-0.7198 -0.29316,-1.47242 -0.12935,-2.18257c0.54539,-2.36434 3.89128,-4.61631 6.32655,-3.72679c2.69644,0.98493 3.00459,4.07365 0.54404,5.53679c-0.99978,0.5945 -2.96828,0.67982 -4.10171,0.79229c0,0 -0.00979,0.00095 -0.02773,0.00182c0.01463,0.03172 0.02978,0.06329 0.04545,0.0947c1.04559,2.09611 5.88985,0.05463 7.29815,-0.47856l0.70656,-0.53884c0,0 1.02568,-0.7145 1.74016,0.31118zM262.31176,103.14021c0.79525,-0.0365 3.97277,-0.22741 3.39148,-1.22917c-0.29099,-0.50146 -1.99183,-0.03959 -2.3068,0.12709c-0.50671,0.26814 -0.86559,0.65452 -1.08468,1.10209z" fill="#000000" stroke="none" stroke-width="0.5"/><path d="M285.65056,92.73669c0.16493,-0.50564 0.67426,-0.75465 0.67426,-0.75465l1.6679,1.82046c-1.15844,1.5136 -2.76657,2.88519 -3.79185,4.51309c1.15574,1.04475 2.32655,2.05631 3.41955,3.16765l0.83516,0.78833c0,0 0.90836,0.85871 0.04966,1.76707c-0.8587,0.90836 -1.76707,0.04966 -1.76707,0.04966l-0.90122,-0.85314c-0.48065,-0.48995 -0.97787,-0.95908 -1.48245,-1.42015c0.12343,0.53017 0.2459,1.06005 0.36786,1.58935l0.52238,1.36278c0,0 0.44509,1.16808 -0.72298,1.61317c-1.16807,0.44509 -1.61317,-0.72299 -1.61317,-0.72299l-0.57751,-1.52374c-1.0022,-4.29408 -2.00908,-8.63285 -3.32259,-12.8425c0,0 -0.37187,-1.1934 0.82153,-1.56527c1.1934,-0.37188 1.56527,0.82153 1.56527,0.82153c0.55174,1.77289 1.05258,3.56791 1.52148,5.37287c0.86249,-1.08377 1.84577,-2.08682 2.73378,-3.18351z" fill="#000000" stroke="none" stroke-width="0.5"/></g></g></svg>