<svg version="1.1" xmlns="http://www.w3.org/2000/svg" xmlns:xlink="http://www.w3.org/1999/xlink" width="159.62898" height="150.49439" viewBox="0,0,159.62898,150.49439"><g transform="translate(-189.84192,-70.08212)"><g data-paper-data="{&quot;isPaintingLayer&quot;:true}" fill-rule="nonzero" stroke-linejoin="miter" stroke-miterlimit="10" stroke-dasharray="" stroke-dashoffset="0" style="mix-blend-mode: normal"><path d="M235.49402,138.04945c0,-3.25375 18.33242,-5.19813 21.54608,-5.19813c3.40952,0 13.23185,-28.012 16.1699,-26.73184c2.28033,0.99357 0.28573,12.21685 2.13256,13.832c2.65786,2.32447 14.3444,0.45227 15.77425,3.73395c1.28015,2.93805 -7.55512,10.9545 -7.55512,14.36402c0,3.01695 8.30752,9.31324 7.29252,11.97377c-1.10477,2.89605 -11.61713,2.11443 -13.68497,4.34828c-2.14365,2.31584 0.03508,12.39043 -2.87014,13.72133c-3.04446,1.39466 -11.20346,-6.00959 -14.7713,-6.00959c-2.69486,0 -9.37699,8.76085 -11.79572,7.94278c-3.30045,-1.11628 -2.18864,-12.13433 -4.67091,-14.4701c-2.29089,-2.15559 -12.68117,-1.68765 -13.98798,-4.59467c-1.35052,-3.00426 6.42082,-9.4044 6.42082,-12.91179z" fill="#7fbe26" stroke="#71b123" stroke-width="2.5" stroke-linecap="butt"/><path d="M269.27763,120.10745c0,0 -13.55192,16.39231 -14.08692,18.83576c-0.48276,2.20506 -0.40738,38.56711 0.39139,43.71311c0.91989,5.92675 6.33488,12.71326 9.14201,17.7036c2.5424,4.51994 0.91606,6.6945 -1.09357,6.6945c-4.22834,0 -6.14809,-4.12758 -9.61368,-3.78545c-1.16629,0.11515 -3.01983,6.94548 -9.78374,7.25264c-6.7638,0.30716 -7.98852,-6.12154 -8.99882,-6.18647c-1.71153,-0.10992 -4.82379,4.24369 -8.75126,4.3196c-1.72294,0.03326 -4.93095,-2.79199 -3.15737,-7.57004c2.26946,-6.11386 7.66984,-7.4275 9.9522,-14.51915c1.28719,-3.99964 1.44946,-15.86796 0.78257,-18.83566c-1.52953,-6.80698 -8.6086,-15.9926 -8.6086,-15.9926l2.34782,-6.7524l5.47821,5.68622l0.39129,-12.08337l-8.21732,-16.34796l5.08693,-2.13235l8.21732,10.30638c0,0 8.26753,1.78296 12.66454,-0.48202c4.3969,-2.26498 13.55266,-13.02288 13.55266,-13.02288z" fill="#daae35" stroke="#bf931c" stroke-width="2" stroke-linecap="round"/><g fill="none" stroke="#bf931c" stroke-width="1" stroke-linecap="round"><path d="M231.71262,155.64653c0,0 7.95888,8.20719 6.9055,21.35097c-1.14134,14.24237 -9.25332,21.29596 -9.25332,21.29596"/><path d="M237.19084,144.9848l2.73911,10.30638c0,0 2.58526,5.72951 2.73911,9.59556c0.15385,3.86605 -1.56514,19.90194 -1.56514,19.90194l-3.91307,12.08326"/><path d="M234.06045,197.93811l-6.65207,7.10786"/><path d="M244.2343,186.92102c0,0 0.07676,4.07886 -1.17386,7.10775c-1.25062,3.029 -4.69564,7.10786 -4.69564,7.10786"/><path d="M250.49519,201.84745c0,0 -3.13636,-3.42391 -3.91307,-7.10786c-0.77671,-3.68384 0.67798,-6.34139 0.39129,-9.59556c-0.28659,-3.25407 -1.95653,-8.17392 -1.95653,-8.17392"/><path d="M242.66905,206.82296l3.1305,-6.39704"/><path d="M250.88647,189.76418l4.69564,8.52939"/><path d="M247.36469,171.63913c0,0 3.17624,3.8475 3.71743,6.7525c0.54119,2.9049 -0.88045,8.47608 -0.88045,8.47608"/><path d="M250.88647,170.92842c0,0 -1.56525,-7.55277 -1.56525,-12.43872c0,-4.88595 1.29924,-5.1477 1.56525,-8.52939c0.2659,-3.38169 0,-11.37255 0,-11.37255"/><path d="M247.36469,165.95291c0,0 -1.81644,-4.44648 -1.56514,-8.17403c0.25119,-3.72745 2.73911,-9.2401 2.73911,-9.2401"/><path d="M241.49519,143.20791l2.73911,7.46321"/><path d="M259.49507,198.29357l2.73911,4.62005"/></g><path d="M201.35437,108.46705c0,-2.79839 -6.48052,-8.69187 -5.47277,-11.12595c1.10072,-2.65882 9.77681,-1.81303 11.81906,-3.77639c1.86858,-1.7965 0.26281,-11.45411 2.70126,-12.45013c2.40976,-0.98418 8.85841,6.68267 11.62225,6.68267c2.9323,0 9.2402,-7.89192 11.76714,-6.79088c1.96112,0.85443 0.24565,10.50682 1.83403,11.89594c2.28577,1.99908 12.33659,0.38883 13.56631,3.21121c1.10104,2.52683 -6.49769,9.42124 -6.49769,12.35354c0,2.59475 7.14485,8.00963 6.27187,10.29774c-0.95017,2.49069 -9.99111,1.81857 -11.76959,3.73971c-1.84352,1.99172 0.03017,10.65619 -2.4683,11.80073c-2.61842,1.19955 -9.63533,-5.16838 -12.70378,-5.16838c-2.31775,0 -8.06454,7.53465 -10.14475,6.83108c-2.83847,-0.96009 -1.88222,-10.43602 -4.01702,-12.4448c-1.97029,-1.85386 -10.90631,-1.45138 -12.03017,-3.95156c-1.16138,-2.58376 5.52214,-8.08799 5.52214,-11.10452z" fill="#7fbe26" stroke="#71b123" stroke-width="2.5" stroke-linecap="butt"/><path d="M234.53254,109.20249c0,-3.87437 -8.97249,-12.03411 -7.57729,-15.40418c1.52399,-3.68128 13.53635,-2.5102 16.36395,-5.22862c2.58707,-2.48717 0.36388,-15.85858 3.74003,-17.23757c3.33648,-1.36268 12.26473,9.25225 16.09143,9.25225c4.05988,0 12.79344,-10.92657 16.29198,-9.40216c2.71522,1.18303 0.34022,14.54708 2.53931,16.47035c3.16472,2.76779 17.08042,0.53842 18.7831,4.44605c1.52431,3.49854 -8.99637,13.04399 -8.99637,17.10387c0,3.59258 9.89228,11.0897 8.68366,14.25772c-1.31555,3.44843 -13.83307,2.51777 -16.29539,5.17776c-2.55253,2.75755 0.04179,14.75381 -3.41751,16.33847c-3.6252,1.66078 -13.34039,-7.15584 -17.58877,-7.15584c-3.20897,0 -11.16571,10.43197 -14.04577,9.45792c-3.92991,-1.3293 -2.60605,-14.44899 -5.5618,-17.23021c-2.7278,-2.56681 -15.10011,-2.00963 -16.65608,-5.47118c-1.60811,-3.57733 7.64553,-11.19823 7.64553,-15.37465z" fill="#7fbe26" stroke="#71b123" stroke-width="2.5" stroke-linecap="butt"/><path d="M195.48747,152.00318c0,-2.20463 -5.10558,-6.84782 -4.31171,-8.76544c0.86723,-2.09482 7.70268,-1.42835 9.31164,-2.97526c1.47207,-1.41535 0.20705,-9.02398 2.12819,-9.80869c1.89853,-0.77543 6.97896,5.26487 9.1564,5.26487c2.31029,0 7.27994,-6.2176 9.2707,-5.35016c1.5451,0.67318 0.19351,8.27777 1.44488,9.37209c1.80087,1.57495 9.71934,0.30642 10.68817,2.52992c0.86744,1.99087 -5.11912,7.42249 -5.11912,9.73267c0,2.04417 5.62897,6.31036 4.94118,8.11305c-0.74856,1.96229 -7.87145,1.43262 -9.27251,2.94626c-1.45245,1.56909 0.02378,8.39537 -1.9447,9.29714c-2.06283,0.94495 -7.59105,-4.07193 -10.0086,-4.07193c-1.82593,0 -6.35354,5.93613 -7.99236,5.38183c-2.2363,-0.75634 -1.48294,-8.2219 -3.16483,-9.80453c-1.55224,-1.46055 -8.5924,-1.14347 -9.47785,-3.11323c-0.9151,-2.03554 4.35052,-6.37209 4.35052,-8.74859z" fill="#7fbe26" stroke="#71b123" stroke-width="2.5" stroke-linecap="butt"/><path d="M276.6059,220.57651c-40.24223,0 -72.865,-9.62606 -72.865,-21.50045c0,-11.87437 32.62276,-21.50045 72.865,-21.50045c40.24223,0 72.865,9.62606 72.865,21.50045c0,11.87437 -32.62276,21.50045 -72.865,21.50045z" data-paper-data="{&quot;index&quot;:null}" fill-opacity="0.10588" fill="#1a1a1a" stroke="none" stroke-width="0" stroke-linecap="butt"/><path d="M297.29579,170.19848c1.94005,-1.9288 1.55898,-10.48378 3.94099,-11.46305c2.60202,-1.06951 7.99589,5.52843 10.76481,5.59086c2.53345,0.05722 8.12201,-7.71291 10.49327,-6.70885c2.34343,0.99217 1.47311,10.74749 3.37814,12.66359c2.02126,2.03282 11.84046,0.96633 12.81888,3.47695c0.75933,1.9486 -7.11482,7.41262 -6.98297,9.47118c0.1896,2.96267 8.23374,8.82078 7.12473,11.61866c-0.9929,2.50509 -11.01026,1.98925 -13.04308,4.01039c-1.79892,1.7885 -0.6282,10.4743 -2.81612,11.44626c-2.38169,1.05806 -8.14745,-5.6732 -10.70529,-5.5818c-2.65143,0.09464 -7.36675,7.36592 -9.88248,6.42273c-2.63633,-0.98842 -3.05834,-10.24239 -5.17331,-12.36975c-1.59755,-1.60672 -10.78241,-0.39743 -11.72841,-2.32446c-1.29091,-2.62966 5.93753,-8.4983 5.85874,-11.36288c-0.07285,-2.64383 -6.51122,-8.56156 -5.55261,-11.06395c0.99062,-2.58619 9.41344,-1.7466 11.50473,-3.82591z" fill="#7fbe26" stroke="#71b123" stroke-width="2.5" stroke-linecap="butt"/><path d="M261.58741,154.6623c2.68605,-2.67052 2.15842,-14.51525 5.45651,-15.87099c3.60254,-1.48091 11.07062,7.65422 14.90423,7.74073c3.50759,0.07911 11.24519,-10.6788 14.52837,-9.28868c3.24441,1.37377 2.03949,14.88026 4.67707,17.53316c2.79841,2.81456 16.39349,1.33791 17.74819,4.81403c1.05137,2.69792 -9.85068,10.26293 -9.66818,13.11313c0.26256,4.10192 11.39998,12.21268 9.86445,16.08653c-1.37471,3.4683 -15.24403,2.7541 -18.05868,5.55251c-2.49061,2.47623 -0.86961,14.50201 -3.89899,15.84775c-3.29756,1.46488 -11.28043,-7.85476 -14.82179,-7.72823c-3.67113,0.13101 -10.19966,10.19851 -13.68264,8.8926c-3.65018,-1.36857 -4.2344,-14.18108 -7.16276,-17.12634c-2.21179,-2.22471 -14.92851,-0.55035 -16.2383,-3.21835c-1.78736,-3.6408 8.22072,-11.76626 8.11158,-15.73247c-0.1008,-3.66028 -9.01507,-11.8537 -7.6878,-15.31835c1.37158,-3.58066 13.03339,-2.41828 15.92872,-5.29703z" fill="#7fbe26" stroke="#71b123" stroke-width="2.5" stroke-linecap="butt"/><path d="M242.09813,180.04844c1.52834,-1.5197 1.22815,-8.25971 3.10485,-9.03111c2.05002,-0.84271 6.29952,4.3555 8.48098,4.40471c1.99593,0.04504 6.39886,-6.07657 8.26699,-5.28547c1.84624,0.78163 1.16051,8.46723 2.66144,9.97681c1.59245,1.60162 9.32839,0.7613 10.09917,2.73941c0.59829,1.53512 -5.60525,5.83986 -5.50144,7.46171c0.14936,2.33415 6.48694,6.94941 5.61316,9.15369c-0.78225,1.97362 -8.67433,1.56722 -10.27584,3.15957c-1.41724,1.4091 -0.49489,8.25209 -2.21867,9.01778c-1.87648,0.83364 -6.41898,-4.46955 -8.43409,-4.39751c-2.0889,0.07462 -5.80391,5.80318 -7.78587,5.06011c-2.07701,-0.77871 -2.40941,-8.06938 -4.07577,-9.74542c-1.25859,-1.26589 -8.49475,-0.31311 -9.24009,-1.83134c-1.01709,-2.07169 4.6779,-6.69529 4.61578,-8.95212c-0.05744,-2.08284 -5.12984,-6.74511 -4.37459,-8.71665c0.78049,-2.03751 7.41637,-1.37607 9.06395,-3.01416z" fill="#7fbe26" stroke="#71b123" stroke-width="2.5" stroke-linecap="butt"/></g></g></svg>