<svg version="1.1" xmlns="http://www.w3.org/2000/svg" xmlns:xlink="http://www.w3.org/1999/xlink" width="69.33333" height="82.85333" viewBox="0,0,69.33333,82.85333"><g transform="translate(-205.33336,-138.57337)"><g data-paper-data="{&quot;isPaintingLayer&quot;:true}" fill-rule="nonzero" stroke-linejoin="miter" stroke-miterlimit="10" stroke-dasharray="" stroke-dashoffset="0" style="mix-blend-mode: normal"><path d="M240.00002,185.43334v-24.2" data-paper-data="{&quot;index&quot;:null}" fill="none" stroke="#ff0000" stroke-width="5" stroke-linecap="round"/><path d="M242.70002,201.13335c0,0 -3.1906,-2.8355 -4.0081,-6.04c-0.8481,-3.3244 1.4081,-10.56 1.4081,-10.56" data-paper-data="{&quot;index&quot;:null}" fill="none" stroke="#ff0000" stroke-width="5" stroke-linecap="round"/><path d="M238.70001,204.13335c0,0 -1.6393,-6.7178 -0.8285,-9.8963c0.8537,-3.3462 2.0285,-9.7037 2.0285,-9.7037" data-paper-data="{&quot;index&quot;:null}" fill="none" stroke="#ff0000" stroke-width="5" stroke-linecap="round"/><path d="M240.03131,167.71735c0,0 2.3814,7.5482 2.8788,11.0421c0.478,3.3574 -5.1814,8.188 -5.1814,8.188" data-paper-data="{&quot;index&quot;:null}" fill="none" stroke="#ff0000" stroke-width="5" stroke-linecap="round"/><path d="M240.97972,166.81644c0,0 -0.5943,8.2981 -2.1094,11.982c-1.2242,2.9769 -4.7088,8.2518 -4.7088,8.2518" data-paper-data="{&quot;index&quot;:null}" fill="none" stroke="#ff0000" stroke-width="5" stroke-linecap="round"/><path d="M240.00006,169.43334c-4.58396,0 -8.3,-3.71603 -8.3,-8.3c0,-4.58396 3.71603,-8.3 8.3,-8.3c4.58396,0 8.3,3.71603 8.3,8.3c0,4.58397 -3.71603,8.3 -8.3,8.3z" data-paper-data="{&quot;index&quot;:null}" fill="#ff0000" stroke="none" stroke-width="0" stroke-linecap="butt"/><path d="M205.33337,221.42671v-82.85333h69.33333v82.85333z" data-paper-data="{&quot;index&quot;:null}" fill="none" stroke="none" stroke-width="0" stroke-linecap="butt"/></g></g></svg>