<svg version="1.1" viewBox="0.0 0.0 960.0 720.0" fill="none" stroke="none" stroke-linecap="square" stroke-miterlimit="10" xmlns:xlink="http://www.w3.org/1999/xlink" xmlns="http://www.w3.org/2000/svg"><clipPath id="p.0"><path d="m0 0l960.0 0l0 720.0l-960.0 0l0 -720.0z" clip-rule="nonzero"/></clipPath><g clip-path="url(#p.0)"><path fill="#000000" fill-opacity="0.0" d="m0 0l960.0 0l0 720.0l-960.0 0z" fill-rule="evenodd"/><path fill="#000000" fill-opacity="0.0" d="m246.2231 199.54593l480.7874 0l0 317.41733l-480.7874 0z" fill-rule="evenodd"/><path fill="#000000" d="m267.95746 243.57405l-9.328125 -14.453125q-2.28125 -3.515625 -2.28125 -4.890625q0 -1.375 1.0625 -2.34375q1.0625 -0.96875 2.546875 -0.96875q1.4375 0 2.234375 0.8125q0.8125 0.8125 2.59375 3.671875l7.125 11.578125l7.21875 -11.578125q1.875 -3.078125 2.71875 -3.78125q0.84375 -0.703125 2.171875 -0.703125q1.40625 0 2.40625 0.96875q1.0 0.96875 1.0 2.296875q0 1.296875 -2.234375 4.734375l-9.546875 14.65625l0 10.421875q0 2.5156403 -0.21875 3.6562653q-0.203125 1.125 -1.21875 1.9375q-1.015625 0.8125 -2.390625 0.8125q-1.328125 0 -2.359375 -0.78125q-1.03125 -0.78125 -1.265625 -1.90625q-0.234375 -1.140625 -0.234375 -3.7187653l0 -10.421875zm36.689453 -12.078125q6.609375 0 10.390625 4.078125q3.796875 4.0625 3.796875 10.375q0 6.328125 -3.84375 10.39064q-3.828125 4.0625 -10.15625 4.0625q-6.875 0 -10.625 -4.109375q-3.734375 -4.1250153 -3.734375 -10.343765q0 -6.328125 3.78125 -10.390625q3.796875 -4.0625 10.390625 -4.0625zm0 23.609375q3.234375 0 5.109375 -2.421875q1.890625 -2.4375 1.890625 -6.734375q0 -4.328125 -1.890625 -6.765625q-1.875 -2.4375 -5.109375 -2.4375q-3.171875 0 -5.078125 2.453125q-1.90625 2.453125 -1.90625 6.75q0 4.3125 1.890625 6.734375q1.890625 2.421875 5.09375 2.421875zm19.585419 -5.28125l0 -12.46875q0 -2.328125 0.171875 -3.34375q0.1875 -1.03125 1.109375 -1.765625q0.921875 -0.75 2.234375 -0.75q1.25 0 2.1875 0.703125q0.953125 0.703125 1.171875 1.84375q0.234375 1.140625 0.234375 3.46875l0 9.765625q0 4.8125 1.484375 6.171875q1.5 1.34375 3.296875 1.34375q2.0625 0 3.609375 -1.15625q1.546875 -1.15625 2.109375 -2.78125q0.5625 -1.625 0.5625 -6.421875l0 -7.078125q0 -2.265625 0.21875 -3.34375q0.21875 -1.078125 1.15625 -1.796875q0.9375 -0.71875 2.21875 -0.71875q1.21875 0 2.171875 0.703125q0.953125 0.703125 1.140625 1.765625q0.203125 1.046875 0.203125 3.390625l0 17.546875q0 2.1562653 -0.21875 3.1250153q-0.203125 0.96875 -1.03125 1.671875q-0.8125 0.703125 -2.0625 0.703125q-3.4375 0 -3.296875 -4.9218903q-3.578125 4.9218903 -9.40625 4.9218903q-3.859375 0 -6.5625 -2.296875q-2.703125 -2.3125153 -2.703125 -8.281265zm57.3078 1.984375l4.21875 -14.71875q0.8125 -2.734375 1.203125 -3.578125q0.40625 -0.84375 1.359375 -1.421875q0.953125 -0.59375 2.125 -0.59375q1.875 0 2.75 0.984375q0.890625 0.984375 1.96875 4.609375l4.265625 14.71875l4.625 -15.890625q0.734375 -2.5 1.40625 -3.453125q0.6875 -0.96875 2.328125 -0.96875q1.25 0 2.1875 0.90625q0.953125 0.890625 0.953125 2.0625q0 0.953125 -0.796875 3.296875l-5.8125 17.03125q-0.9375 2.7187653 -1.4375 3.5937653q-0.484375 0.859375 -1.421875 1.4375q-0.921875 0.578125 -2.03125 0.578125q-2.21875 0 -3.140625 -1.328125q-0.921875 -1.328125 -1.828125 -4.5156403l-4.015625 -13.84375l-3.9375 13.84375q-0.75 2.6875153 -1.21875 3.6406403q-0.46875 0.953125 -1.46875 1.578125q-0.984375 0.625 -2.203125 0.625q-1.140625 0 -2.125 -0.5625q-0.96875 -0.5625 -1.4375 -1.4375q-0.46875 -0.890625 -1.40625 -3.6093903l-5.8125 -17.03125q-0.8125 -2.265625 -0.8125 -3.296875q0 -1.15625 0.90625 -2.0625q0.921875 -0.90625 2.25 -0.90625q1.640625 0 2.28125 0.953125q0.65625 0.9375 1.390625 3.46875l4.6875 15.890625zm37.886414 -30.578125q1.375 0 2.390625 1.046875q1.015625 1.046875 1.015625 2.421875q0 1.4375 -1.015625 2.46875q-1.015625 1.015625 -2.390625 1.015625q-1.4375 0 -2.46875 -1.015625q-1.015625 -1.03125 -1.015625 -2.46875q0 -1.40625 1.015625 -2.4375q1.03125 -1.03125 2.46875 -1.03125zm3.515625 16.0625l0 17.21875q0 2.5468903 -0.234375 3.4843903q-0.234375 0.9375 -1.203125 1.671875q-0.953125 0.734375 -2.078125 0.734375q-1.140625 0 -2.140625 -0.71875q-0.984375 -0.71875 -1.21875 -1.671875q-0.234375 -0.96875 -0.234375 -3.5000153l0 -17.15625q0 -2.375 0.171875 -3.34375q0.1875 -0.984375 1.140625 -1.75q0.953125 -0.765625 2.203125 -0.765625q1.28125 0 2.1875 0.6875q0.90625 0.6875 1.15625 1.75q0.25 1.046875 0.25 3.359375zm32.42047 5.546875l0 11.671875q0 2.2656403 -0.1875 3.2968903q-0.1875 1.03125 -1.125 1.8125q-0.921875 0.78125 -2.203125 0.78125q-1.140625 0 -2.140625 -0.6875q-0.984375 -0.703125 -1.21875 -1.796875q-0.234375 -1.109375 -0.234375 -3.4062653l0 -10.234375q0 -4.265625 -1.28125 -5.75q-1.265625 -1.484375 -3.515625 -1.484375q-2.03125 0 -3.5625 1.171875q-1.53125 1.171875 -2.15625 2.9375q-0.625 1.75 -0.625 6.015625l0 7.34375q0 2.2343903 -0.171875 3.2500153q-0.171875 1.015625 -1.140625 1.828125q-0.953125 0.8125 -2.203125 0.8125q-1.171875 0 -2.171875 -0.71875q-0.984375 -0.71875 -1.203125 -1.78125q-0.203125 -1.078125 -0.203125 -3.3906403l0 -17.53125q0 -2.359375 0.21875 -3.296875q0.234375 -0.9375 1.125 -1.5625q0.90625 -0.625 2.015625 -0.625q1.046875 0 2.171875 0.828125q1.140625 0.8125 1.140625 3.953125q3.5625 -4.78125 9.171875 -4.78125q2.125 0 4.203125 0.8125q2.09375 0.796875 3.40625 2.609375q1.3125 1.8125 1.59375 3.75q0.296875 1.9375 0.296875 4.171875zm16.085388 -12.40625l-1.109375 12.828125q-0.265625 2.8125 -0.96875 3.78125q-0.703125 0.953125 -1.796875 0.953125q-1.09375 0 -1.78125 -0.96875q-0.6875 -0.984375 -0.90625 -3.765625l-0.875 -12.515625q-0.15625 -1.625 -0.15625 -4.59375q0 -5.234375 3.984375 -5.234375q1.765625 0 2.734375 1.203125q0.984375 1.203125 0.984375 4.453125q0 2.625 -0.109375 3.859375zm-3.71875 22.125q1.59375 0 2.75 1.15625q1.15625 1.140625 1.15625 2.7187653q0 1.625 -1.15625 2.796875q-1.15625 1.171875 -2.75 1.171875q-1.640625 0 -2.796875 -1.15625q-1.15625 -1.171875 -1.15625 -2.8125q0 -1.5781403 1.171875 -2.7187653q1.171875 -1.15625 2.78125 -1.15625z" fill-rule="nonzero"/><path fill="#000000" d="m267.95746 307.57407l-9.328125 -14.453125q-2.28125 -3.515625 -2.28125 -4.890625q0 -1.375 1.0625 -2.34375q1.0625 -0.96875 2.546875 -0.96875q1.4375 0 2.234375 0.8125q0.8125 0.8125 2.59375 3.671875l7.125 11.578125l7.21875 -11.578125q1.875 -3.078125 2.71875 -3.78125q0.84375 -0.703125 2.171875 -0.703125q1.40625 0 2.40625 0.96875q1.0 0.96875 1.0 2.296875q0 1.296875 -2.234375 4.734375l-9.546875 14.65625l0 10.421875q0 2.515625 -0.21875 3.65625q-0.203125 1.125 -1.21875 1.9375q-1.015625 0.8125 -2.390625 0.8125q-1.328125 0 -2.359375 -0.78125q-1.03125 -0.78125 -1.265625 -1.90625q-0.234375 -1.140625 -0.234375 -3.71875l0 -10.421875zm36.689453 -12.078125q6.609375 0 10.390625 4.078125q3.796875 4.0625 3.796875 10.375q0 6.328125 -3.84375 10.390625q-3.828125 4.0625 -10.15625 4.0625q-6.875 0 -10.625 -4.109375q-3.734375 -4.125 -3.734375 -10.34375q0 -6.328125 3.78125 -10.390625q3.796875 -4.0625 10.390625 -4.0625zm0 23.609375q3.234375 0 5.109375 -2.421875q1.890625 -2.4375 1.890625 -6.734375q0 -4.328125 -1.890625 -6.765625q-1.875 -2.4375 -5.109375 -2.4375q-3.171875 0 -5.078125 2.453125q-1.90625 2.453125 -1.90625 6.75q0 4.3125 1.890625 6.734375q1.890625 2.421875 5.09375 2.421875zm19.585419 -5.28125l0 -12.46875q0 -2.328125 0.171875 -3.34375q0.1875 -1.03125 1.109375 -1.765625q0.921875 -0.75 2.234375 -0.75q1.25 0 2.1875 0.703125q0.953125 0.703125 1.171875 1.84375q0.234375 1.140625 0.234375 3.46875l0 9.765625q0 4.8125 1.484375 6.171875q1.5 1.34375 3.296875 1.34375q2.0625 0 3.609375 -1.15625q1.546875 -1.15625 2.109375 -2.78125q0.5625 -1.625 0.5625 -6.421875l0 -7.078125q0 -2.265625 0.21875 -3.34375q0.21875 -1.078125 1.15625 -1.796875q0.9375 -0.71875 2.21875 -0.71875q1.21875 0 2.171875 0.703125q0.953125 0.703125 1.140625 1.765625q0.203125 1.046875 0.203125 3.390625l0 17.546875q0 2.15625 -0.21875 3.125q-0.203125 0.96875 -1.03125 1.671875q-0.8125 0.703125 -2.0625 0.703125q-3.4375 0 -3.296875 -4.921875q-3.578125 4.921875 -9.40625 4.921875q-3.859375 0 -6.5625 -2.296875q-2.703125 -2.3125 -2.703125 -8.28125zm55.354675 -23.046875l0 27.734375q0 2.578125 -0.234375 3.5q-0.234375 0.921875 -1.203125 1.65625q-0.953125 0.734375 -2.078125 0.734375q-1.140625 0 -2.140625 -0.71875q-0.984375 -0.71875 -1.21875 -1.671875q-0.234375 -0.96875 -0.234375 -3.5l0 -27.734375q0 -2.625 0.25 -3.546875q0.25 -0.921875 1.1875 -1.609375q0.953125 -0.703125 2.078125 -0.703125q1.296875 0 2.25 0.75q0.953125 0.734375 1.140625 1.75q0.203125 1.0 0.203125 3.359375zm19.764221 4.71875q6.609375 0 10.390625 4.078125q3.796875 4.0625 3.796875 10.375q0 6.328125 -3.84375 10.390625q-3.828125 4.0625 -10.15625 4.0625q-6.875 0 -10.625 -4.109375q-3.734375 -4.125 -3.734375 -10.34375q0 -6.328125 3.78125 -10.390625q3.796875 -4.0625 10.390625 -4.0625zm0 23.609375q3.234375 0 5.109375 -2.421875q1.890625 -2.4375 1.890625 -6.734375q0 -4.328125 -1.890625 -6.765625q-1.875 -2.4375 -5.109375 -2.4375q-3.171875 0 -5.078125 2.453125q-1.90625 2.453125 -1.90625 6.75q0 4.3125 1.890625 6.734375q1.890625 2.421875 5.09375 2.421875zm25.179169 -16.21875q0 1.375 1.421875 2.15625q1.4375 0.78125 6.421875 2.015625q9.65625 2.34375 9.65625 8.046875q0 4.5 -3.265625 6.90625q-3.25 2.390625 -9.109375 2.390625q-5.9375 0 -8.953125 -2.453125q-3.0 -2.453125 -3.0 -5.1875q0 -1.171875 0.828125 -2.0q0.84375 -0.828125 2.0625 -0.828125q1.671875 0 2.921875 2.078125q1.40625 2.296875 3.09375 3.046875q1.703125 0.734375 3.625 0.734375q2.140625 0 3.46875 -0.953125q1.34375 -0.953125 1.34375 -2.40625q0 -1.328125 -1.140625 -2.296875q-1.125 -0.984375 -6.1875 -2.140625q-5.0625 -1.171875 -7.390625 -3.265625q-2.3125 -2.09375 -2.3125 -4.984375q0 -3.25 2.828125 -5.75q2.828125 -2.5 8.484375 -2.5q5.171875 0 8.25 2.109375q3.078125 2.109375 3.078125 4.375q0 1.1875 -0.78125 2.015625q-0.78125 0.8125 -2.171875 0.8125q-2.046875 0 -3.703125 -2.359375q-1.65625 -2.375 -4.984375 -2.375q-1.796875 0 -3.140625 0.734375q-1.34375 0.71875 -1.34375 2.078125zm43.356537 8.796875l-13.953125 0q0.09375 3.96875 2.15625 5.984375q2.078125 2.015625 4.96875 2.015625q3.578125 0 6.71875 -3.125q1.28125 -1.296875 1.890625 -1.609375q0.609375 -0.3125 1.375 -0.3125q0.953125 0 1.640625 0.59375q0.6875 0.59375 0.6875 1.484375q0 2.390625 -3.28125 5.046875q-3.265625 2.640625 -8.875 2.640625q-7.125 0 -10.8125 -4.015625q-3.6875 -4.03125 -3.6875 -10.4375q0 -6.46875 3.6875 -10.453125q3.6875 -4.0 10.25 -4.0q6.265625 0 9.671875 3.78125q3.421875 3.765625 3.421875 8.1875q0 1.953125 -1.140625 3.09375q-1.125 1.125 -4.71875 1.125zm-13.953125 -4.03125l12.9375 0q-0.125 -3.546875 -1.953125 -5.40625q-1.828125 -1.859375 -4.5 -1.859375q-5.65625 0 -6.484375 7.265625zm34.752136 -13.21875l-1.109375 12.828125q-0.265625 2.8125 -0.96875 3.78125q-0.703125 0.953125 -1.796875 0.953125q-1.09375 0 -1.78125 -0.96875q-0.6875 -0.984375 -0.90625 -3.765625l-0.875 -12.515625q-0.15625 -1.625 -0.15625 -4.59375q0 -5.234375 3.984375 -5.234375q1.765625 0 2.734375 1.203125q0.984375 1.203125 0.984375 4.453125q0 2.625 -0.109375 3.859375zm-3.71875 22.125q1.59375 0 2.75 1.15625q1.15625 1.140625 1.15625 2.71875q0 1.625 -1.15625 2.796875q-1.15625 1.171875 -2.75 1.171875q-1.640625 0 -2.796875 -1.15625q-1.15625 -1.171875 -1.15625 -2.8125q0 -1.578125 1.171875 -2.71875q1.171875 -1.15625 2.78125 -1.15625z" fill-rule="nonzero"/><path fill="#000000" d="m274.41058 387.74594l-8.515625 0q-2.46875 0 -3.515625 -0.171875q-1.03125 -0.171875 -1.828125 -0.953125q-0.796875 -0.796875 -0.953125 -1.71875q-0.15625 -0.9375 -0.15625 -3.609375l0 -25.234375q0 -3.390625 0.484375 -4.546875q0.5 -1.15625 1.65625 -1.546875q1.171875 -0.390625 4.3125 -0.390625l8.359375 0q9.640625 0 13.71875 5.296875q4.09375 5.28125 4.09375 13.890625q0 8.671875 -4.21875 13.828125q-4.21875 5.15625 -13.4375 5.15625zm-7.28125 -32.203125l0 26.234375l5.90625 0q2.96875 0 5.25 -0.671875q2.296875 -0.671875 4.109375 -3.5625q1.828125 -2.890625 1.828125 -8.890625q0 -5.515625 -1.671875 -8.34375q-1.65625 -2.84375 -3.6875 -3.796875q-2.03125 -0.96875 -6.640625 -0.96875l-5.09375 0zm31.194061 26.96875l0 -18.234375q0 -4.78125 3.515625 -4.78125q3.359375 0 3.4375 4.421875q2.203125 -4.421875 6.109375 -4.421875q2.0625 0 4.265625 1.078125q2.203125 1.078125 2.203125 2.953125q0 1.296875 -0.890625 2.15625q-0.890625 0.84375 -1.90625 0.84375q-0.5625 0 -2.0625 -0.453125q-1.5 -0.46875 -2.515625 -0.46875q-2.546875 0 -3.796875 2.578125q-1.25 2.578125 -1.25 9.953125l0 4.109375q0 2.71875 -0.234375 3.671875q-0.21875 0.9375 -1.15625 1.71875q-0.9375 0.765625 -2.15625 0.765625q-1.171875 0 -2.109375 -0.6875q-0.9375 -0.703125 -1.203125 -1.640625q-0.25 -0.953125 -0.25 -3.5625zm41.37274 1.875q-5.078125 4.015625 -9.953125 4.015625q-4.609375 0 -7.078125 -2.34375q-2.46875 -2.34375 -2.46875 -5.734375q0 -2.890625 1.671875 -4.671875q1.6875 -1.78125 3.65625 -2.484375q1.984375 -0.703125 6.453125 -1.625q4.46875 -0.9375 7.203125 -1.71875q-0.03125 -3.21875 -1.28125 -4.34375q-1.25 -1.140625 -3.796875 -1.140625q-4.84375 0 -6.328125 2.703125q-0.84375 1.53125 -1.5 2.1875q-0.640625 0.65625 -1.859375 0.65625q-1.125 0 -2.046875 -0.734375q-0.90625 -0.75 -0.90625 -1.921875q0 -2.765625 3.0 -5.25q3.0 -2.484375 9.421875 -2.484375q6.515625 0 9.53125 2.25q3.015625 2.25 2.84375 9.09375l-0.15625 6.671875q-0.109375 3.09375 0.625 5.046875q0.75 1.953125 0.75 3.0q0 1.125 -1.0 1.984375q-0.984375 0.859375 -2.21875 0.859375q-2.171875 0 -4.5625 -4.015625zm-0.46875 -10.28125q-1.59375 0.625 -5.25 1.359375q-3.65625 0.71875 -5.1875 1.65625q-1.515625 0.9375 -1.515625 2.734375q0 1.53125 1.203125 2.703125q1.21875 1.171875 3.4375 1.171875q2.34375 0 4.359375 -1.28125q2.015625 -1.296875 2.484375 -3.0625q0.46875 -1.765625 0.46875 -5.28125zm23.252106 5.703125l4.21875 -14.71875q0.8125 -2.734375 1.203125 -3.578125q0.40625 -0.84375 1.359375 -1.421875q0.953125 -0.59375 2.125 -0.59375q1.875 0 2.75 0.984375q0.890625 0.984375 1.96875 4.609375l4.265625 14.71875l4.625 -15.890625q0.734375 -2.5 1.40625 -3.453125q0.6875 -0.96875 2.328125 -0.96875q1.25 0 2.1875 0.90625q0.953125 0.890625 0.953125 2.0625q0 0.953125 -0.796875 3.296875l-5.8125 17.03125q-0.9375 2.71875 -1.4375 3.59375q-0.484375 0.859375 -1.421875 1.4375q-0.921875 0.578125 -2.03125 0.578125q-2.21875 0 -3.140625 -1.328125q-0.921875 -1.328125 -1.828125 -4.515625l-4.015625 -13.84375l-3.9375 13.84375q-0.75 2.6875 -1.21875 3.640625q-0.46875 0.953125 -1.46875 1.578125q-0.984375 0.625 -2.203125 0.625q-1.140625 0 -2.125 -0.5625q-0.96875 -0.5625 -1.4375 -1.4375q-0.46875 -0.890625 -1.40625 -3.609375l-5.8125 -17.03125q-0.8125 -2.265625 -0.8125 -3.296875q0 -1.15625 0.90625 -2.0625q0.921875 -0.90625 2.25 -0.90625q1.640625 0 2.28125 0.953125q0.65625 0.9375 1.390625 3.46875l4.6875 15.890625zm43.24579 -21.375l-1.109375 12.828125q-0.265625 2.8125 -0.96875 3.78125q-0.703125 0.953125 -1.796875 0.953125q-1.09375 0 -1.78125 -0.96875q-0.6875 -0.984375 -0.90625 -3.765625l-0.875 -12.515625q-0.15625 -1.625 -0.15625 -4.59375q0 -5.234375 3.984375 -5.234375q1.765625 0 2.734375 1.203125q0.984375 1.203125 0.984375 4.453125q0 2.625 -0.109375 3.859375zm-3.71875 22.125q1.59375 0 2.75 1.15625q1.15625 1.140625 1.15625 2.71875q0 1.625 -1.15625 2.796875q-1.15625 1.171875 -2.75 1.171875q-1.640625 0 -2.796875 -1.15625q-1.15625 -1.171875 -1.15625 -2.8125q0 -1.578125 1.171875 -2.71875q1.171875 -1.15625 2.78125 -1.15625z" fill-rule="nonzero"/><path fill="#000000" d="m281.3637 440.49594q1.296875 0 2.15625 1.015625q0.859375 1.015625 0.859375 2.078125q0 2.890625 -3.46875 5.859375q-3.453125 2.953125 -9.25 2.953125q-7.015625 0 -10.578125 -3.96875q-3.5625 -3.984375 -3.5625 -10.328125q0 -6.4375 3.6875 -10.515625q3.703125 -4.09375 10.546875 -4.09375q5.3125 0 8.78125 2.78125q3.484375 2.765625 3.484375 5.46875q0 1.296875 -0.9375 2.171875q-0.9375 0.875 -2.203125 0.875q-1.5625 0 -2.453125 -1.328125q-1.953125 -2.96875 -3.46875 -3.765625q-1.5 -0.796875 -3.25 -0.796875q-3.40625 0 -5.265625 2.625q-1.84375 2.609375 -1.84375 6.515625q0 4.015625 1.9375 6.546875q1.9375 2.515625 5.171875 2.515625q1.84375 0 3.40625 -0.859375q1.5625 -0.875 2.6875 -2.625q1.140625 -1.765625 1.796875 -2.4375q0.671875 -0.6875 1.765625 -0.6875zm21.642761 -17.0q6.609375 0 10.390625 4.078125q3.796875 4.0625 3.796875 10.375q0 6.328125 -3.84375 10.390625q-3.828125 4.0625 -10.15625 4.0625q-6.875 0 -10.625 -4.109375q-3.734375 -4.125 -3.734375 -10.34375q0 -6.328125 3.78125 -10.390625q3.796875 -4.0625 10.390625 -4.0625zm0 23.609375q3.234375 0 5.109375 -2.421875q1.890625 -2.4375 1.890625 -6.734375q0 -4.328125 -1.890625 -6.765625q-1.875 -2.4375 -5.109375 -2.4375q-3.171875 0 -5.078125 2.453125q-1.90625 2.453125 -1.90625 6.75q0 4.3125 1.890625 6.734375q1.890625 2.421875 5.09375 2.421875zm44.86664 -12.265625l0 11.671875q0 2.265625 -0.1875 3.296875q-0.1875 1.03125 -1.125 1.8125q-0.921875 0.78125 -2.203125 0.78125q-1.140625 0 -2.140625 -0.6875q-0.984375 -0.703125 -1.21875 -1.796875q-0.234375 -1.109375 -0.234375 -3.40625l0 -10.234375q0 -4.265625 -1.28125 -5.75q-1.265625 -1.484375 -3.515625 -1.484375q-2.03125 0 -3.5625 1.171875q-1.53125 1.171875 -2.15625 2.9375q-0.625 1.75 -0.625 6.015625l0 7.34375q0 2.234375 -0.171875 3.25q-0.171875 1.015625 -1.140625 1.828125q-0.953125 0.8125 -2.203125 0.8125q-1.171875 0 -2.171875 -0.71875q-0.984375 -0.71875 -1.203125 -1.78125q-0.203125 -1.078125 -0.203125 -3.390625l0 -17.53125q0 -2.359375 0.21875 -3.296875q0.234375 -0.9375 1.125 -1.5625q0.90625 -0.625 2.015625 -0.625q1.046875 0 2.171875 0.828125q1.140625 0.8125 1.140625 3.953125q3.5625 -4.78125 9.171875 -4.78125q2.125 0 4.203125 0.8125q2.09375 0.796875 3.40625 2.609375q1.3125 1.8125 1.59375 3.75q0.296875 1.9375 0.296875 4.171875zm32.21042 0l0 11.671875q0 2.265625 -0.1875 3.296875q-0.1875 1.03125 -1.125 1.8125q-0.921875 0.78125 -2.203125 0.78125q-1.140625 0 -2.140625 -0.6875q-0.984375 -0.703125 -1.21875 -1.796875q-0.234375 -1.109375 -0.234375 -3.40625l0 -10.234375q0 -4.265625 -1.28125 -5.75q-1.265625 -1.484375 -3.515625 -1.484375q-2.03125 0 -3.5625 1.171875q-1.53125 1.171875 -2.15625 2.9375q-0.625 1.75 -0.625 6.015625l0 7.34375q0 2.234375 -0.171875 3.25q-0.171875 1.015625 -1.140625 1.828125q-0.953125 0.8125 -2.203125 0.8125q-1.171875 0 -2.171875 -0.71875q-0.984375 -0.71875 -1.203125 -1.78125q-0.203125 -1.078125 -0.203125 -3.390625l0 -17.53125q0 -2.359375 0.21875 -3.296875q0.234375 -0.9375 1.125 -1.5625q0.90625 -0.625 2.015625 -0.625q1.046875 0 2.171875 0.828125q1.140625 0.8125 1.140625 3.953125q3.5625 -4.78125 9.171875 -4.78125q2.125 0 4.203125 0.8125q2.09375 0.796875 3.40625 2.609375q1.3125 1.8125 1.59375 3.75q0.296875 1.9375 0.296875 4.171875zm26.976013 4.84375l-13.953125 0q0.09375 3.96875 2.15625 5.984375q2.078125 2.015625 4.96875 2.015625q3.578125 0 6.71875 -3.125q1.28125 -1.296875 1.890625 -1.609375q0.609375 -0.3125 1.375 -0.3125q0.953125 0 1.640625 0.59375q0.6875 0.59375 0.6875 1.484375q0 2.390625 -3.28125 5.046875q-3.265625 2.640625 -8.875 2.640625q-7.125 0 -10.8125 -4.015625q-3.6875 -4.03125 -3.6875 -10.4375q0 -6.46875 3.6875 -10.453125q3.6875 -4.0 10.25 -4.0q6.265625 0 9.671875 3.78125q3.421875 3.765625 3.421875 8.1875q0 1.953125 -1.140625 3.09375q-1.125 1.125 -4.71875 1.125zm-13.953125 -4.03125l12.9375 0q-0.125 -3.546875 -1.953125 -5.40625q-1.828125 -1.859375 -4.5 -1.859375q-5.65625 0 -6.484375 7.265625zm48.26776 4.84375q1.296875 0 2.15625 1.015625q0.859375 1.015625 0.859375 2.078125q0 2.890625 -3.46875 5.859375q-3.453125 2.953125 -9.25 2.953125q-7.015625 0 -10.578125 -3.96875q-3.5625 -3.984375 -3.5625 -10.328125q0 -6.4375 3.6875 -10.515625q3.703125 -4.09375 10.546875 -4.09375q5.3125 0 8.78125 2.78125q3.484375 2.765625 3.484375 5.46875q0 1.296875 -0.9375 2.171875q-0.9375 0.875 -2.203125 0.875q-1.5625 0 -2.453125 -1.328125q-1.953125 -2.96875 -3.46875 -3.765625q-1.5 -0.796875 -3.25 -0.796875q-3.40625 0 -5.265625 2.625q-1.84375 2.609375 -1.84375 6.515625q0 4.015625 1.9375 6.546875q1.9375 2.515625 5.171875 2.515625q1.84375 0 3.40625 -0.859375q1.5625 -0.875 2.6875 -2.625q1.140625 -1.765625 1.796875 -2.4375q0.671875 -0.6875 1.765625 -0.6875zm10.392731 -16.375l0 -4.265625q0 -2.640625 0.21875 -3.578125q0.21875 -0.953125 1.140625 -1.6875q0.9375 -0.75 2.1875 -0.75q1.140625 0 2.0625 0.671875q0.921875 0.671875 1.203125 1.640625q0.296875 0.96875 0.296875 3.125l0 4.84375l1.375 0q2.609375 0 3.46875 0.640625q0.859375 0.625 0.859375 1.859375q0 2.625 -4.375 2.625l-1.328125 0l0 13.125q0 2.65625 0.375 3.625q0.375 0.953125 2.015625 0.953125q0.78125 0 1.75 -0.21875q0.984375 -0.21875 1.453125 -0.21875q1.078125 0 1.734375 0.703125q0.671875 0.703125 0.671875 1.6875q0 3.5 -7.375 3.5q-3.5625 0 -5.25 -1.328125q-1.671875 -1.328125 -2.078125 -3.234375q-0.40625 -1.90625 -0.40625 -4.953125l0 -13.640625l-0.9375 0q-3.15625 0 -3.15625 -2.578125q0 -2.546875 3.3125 -2.546875l0.78125 0zm48.5383 19.53125l-11.296875 0q-3.046875 0 -4.125 -0.28125q-1.0625 -0.296875 -1.828125 -1.46875q-0.765625 -1.171875 -0.765625 -2.375q0 -0.828125 0.46875 -1.6875q0.484375 -0.859375 1.96875 -2.84375l13.8125 -18.453125q1.5 -1.984375 2.375 -2.71875q0.875 -0.75 2.1562195 -0.75q1.375 0 2.359375 0.828125q1.0 0.8125 1.1875 1.828125q0.203125 1.015625 0.203125 3.546875l0 18.53125l1.109375 0q3.25 0 3.828125 1.125q0.59375 1.125 0.59375 1.828125q0 2.890625 -3.953125 2.890625l-1.578125 0l0 3.359375q0 2.109375 -0.171875 3.046875q-0.171875 0.9375 -1.0625 1.640625q-0.875 0.703125 -2.03125 0.703125q-1.109375 0 -2.0155945 -0.65625q-0.890625 -0.65625 -1.0625 -1.625q-0.171875 -0.984375 -0.171875 -3.109375l0 -3.359375zm-11.203125 -5.84375l11.203125 0l0 -15.171875l-11.203125 15.171875zm66.81827 4.921875l-15.46875 0l-1.796875 4.796875q-1.109375 2.9375 -1.875 3.90625q-0.75 0.96875 -2.4375 0.96875q-1.5625 0 -2.640625 -1.078125q-1.0625 -1.09375 -1.0625 -2.34375q0 -1.328125 1.0625 -4.0l9.828125 -24.796875q1.296875 -3.359375 1.90625 -4.53125q0.609375 -1.171875 1.875 -1.953125q1.265625 -0.78125 2.828125 -0.78125q1.84375 0 3.234375 0.984375q1.40625 0.96875 2.203125 2.984375l11.296875 27.875q1.125 2.84375 1.125 4.09375q0 1.296875 -1.078125 2.421875q-1.078125 1.125 -2.703125 1.125q-1.71875 0 -2.46875 -0.96875q-0.75 -0.984375 -1.953125 -4.015625l-1.875 -4.6875zm-13.484375 -5.953125l11.453125 0l-5.796875 -15.703125l-5.65625 15.703125zm37.23065 -17.453125l0 26.671875q0 2.65625 -0.203125 3.71875q-0.1875 1.0625 -1.171875 1.875q-0.984375 0.8125 -2.390625 0.8125q-1.40625 0 -2.46875 -0.8125q-1.046875 -0.828125 -1.25 -1.921875q-0.1875 -1.09375 -0.1875 -3.671875l0 -26.671875q0 -2.625 0.1875 -3.65625q0.203125 -1.03125 1.21875 -1.890625q1.03125 -0.859375 2.421875 -0.859375q1.34375 0 2.390625 0.796875q1.046875 0.796875 1.25 1.890625q0.203125 1.09375 0.203125 3.71875z" fill-rule="nonzero"/></g></svg>