<svg version="1.1" xmlns="http://www.w3.org/2000/svg" xmlns:xlink="http://www.w3.org/1999/xlink" width="46.5" height="46.5" viewBox="0,0,46.5,46.5"><g transform="translate(-216.77102,-156.77102)"><g data-paper-data="{&quot;isPaintingLayer&quot;:true}" fill-rule="nonzero" stroke-linecap="butt" stroke-linejoin="miter" stroke-miterlimit="10" stroke-dasharray="" stroke-dashoffset="0" style="mix-blend-mode: normal"><path d="M221.4287,180.02102c0,-10.26826 8.32406,-18.59232 18.59232,-18.59232c10.26826,0 18.59233,8.32406 18.59233,18.59232c0,10.26826 -8.32407,18.59232 -18.59233,18.59232c-10.26826,0 -18.59232,-8.32406 -18.59232,-18.59232z" fill="none" stroke="#0033ff" stroke-width="8"/><path d="M219.52102,200.52102v-41h41v41z" fill="none" stroke="#0033ff" stroke-width="5.5"/><path d="M251.71009,195.77067l0.7227,0.21842c0.59713,-0.33174 1.25995,-0.55188 1.81785,-0.94605l0.11098,-0.09711c0.29984,-0.31103 0.5155,-0.90892 0.88902,-0.77789l0.99089,-0.86702c0.2589,-0.22894 0.56561,-0.40504 0.90325,-0.51141c0.00138,-0.04112 0.00213,-0.07958 0.00213,-0.11512l2.0063,-4.00471c0,0 -0.99529,0.2563 0.49841,2.261c1.48668,1.99528 1.25777,1.48435 1.23913,1.49831c0,0 -0.0241,5.19826 -0.77046,7.28024c-0.12433,0.34682 -1.21608,-0.46355 -1.42397,-0.15937c-0.62366,0.91255 -5.97603,0.87452 -11.79941,0.87452c0,0 -0.28918,0.45192 -0.61684,0.34435c-0.98296,-0.32268 -0.88316,0.60856 -0.88316,-0.59435c0,-2.5 2.5,-2.5 2.5,-2.5c0.66392,0 1.3304,0.00884 1.998,0.01946c0.2207,-1.46769 1.81519,-1.92326 1.81519,-1.92326z" data-paper-data="{&quot;origPos&quot;:null}" fill="#0033ff" stroke="none" stroke-width="0.5"/><path d="M258.39679,158.67448c1.38071,0 2.5,1.11929 2.5,2.5c0,1.0447 -0.6408,1.93974 -1.55079,2.3135c0.68469,1.12484 1.25515,2.46595 1.87198,4.00802c0,0 0.92848,2.32119 -1.39272,3.24967c-2.32119,0.92848 -3.24967,-1.39272 -3.24967,-1.39272c-0.56108,-1.40269 -1.03747,-3.85131 -2,-5c-0.13534,-0.16152 0.1928,0.63064 -0.01792,0.63192c-0.90686,0.00549 -1.75727,-0.48256 -2.65965,-0.5728l-2.90153,-1.35968c0,0 -1.87791,-1.65029 -0.22763,-3.5282c1.65029,-1.87791 3.5282,-0.22763 3.5282,-0.22763l0.09847,0.14032c1.47474,0.14747 2.65813,0.45841 3.63641,0.9246c0.33739,-0.9816 1.26873,-1.687 2.36483,-1.687z" data-paper-data="{&quot;origPos&quot;:null}" fill="#0033ff" stroke="none" stroke-width="0.5"/><path d="M221.26675,188.45355c1.89027,-0.29081 2.55695,1.08691 2.76589,1.75049c0.73284,0.9655 2.27474,2.93483 1.93544,3.54196l0.47894,1.19736c0.12865,0.30123 0.19986,0.63286 0.19986,0.98112c0,0.08396 -0.00414,0.16695 -0.01222,0.24878c0.5686,0.09027 1.1376,0.18758 1.70944,0.29155c0,0 2.45967,0.44721 2.01246,2.90689c-0.44721,2.45967 -2.90689,2.01246 -2.90689,2.01246c-1.68981,-0.30724 -3.34369,-0.5513 -5.05155,-0.72208l-1.52732,-0.00288c0,0 -2.48471,-0.27608 -2.20863,-2.76079c0.14649,-1.31838 0.91478,-1.85951 1.60378,-2.07703c-0.12707,-0.14501 -0.23764,-0.30484 -0.32878,-0.47657c-0.32314,-0.5567 -0.56907,-1.38995 -0.03397,-2.31615c-0.11625,-0.15319 -0.23011,-0.30793 -0.33644,-0.46743l-0.3908,-1.25661c0,0 -0.38014,-2.47093 2.09079,-2.85107z" data-paper-data="{&quot;origPos&quot;:null}" fill="#0033ff" stroke="none" stroke-width="0.5"/><path d="M226.14688,163.92448c0,1.20948 -0.85888,2.21836 -2,2.44999c0,0.68334 0,1.36667 0,2.05001c0,0 0,2.5 -2.5,2.5c-2.5,0 -2.5,-2.5 -2.5,-2.5c0,-1.66667 0,-3.33333 0,-5l0.252,-1.34992c0,0 0.08872,-2.21798 2.18893,-2.3904c0.6331,-0.44118 1.35146,-0.50104 1.35146,-0.50104c1.82149,-0.15179 3.64016,-0.31436 5.45885,-0.49623l1.31408,-0.00558c0,0 2.49317,-0.18468 2.67785,2.30849c0.18468,2.49317 -2.30849,2.67785 -2.30849,2.67785l-1.18592,-0.00558c-0.91613,0.09161 -1.83227,0.17842 -2.74876,0.26146c0,0.00032 0,0.00063 0,0.00095z" data-paper-data="{&quot;origPos&quot;:null}" fill="#0033ff" stroke="none" stroke-width="0.5"/></g></g></svg>