<svg version="1.1" xmlns="http://www.w3.org/2000/svg" xmlns:xlink="http://www.w3.org/1999/xlink" width="63.07807" height="63.07807" viewBox="0,0,63.07807,63.07807"><defs><radialGradient cx="240.00001" cy="180.00001" r="31.53904" gradientUnits="userSpaceOnUse" id="color-1"><stop offset="0" stop-color="#000000"/><stop offset="1" stop-color="#000000" stop-opacity="0"/></radialGradient><linearGradient x1="239.8048" y1="182.0202" x2="239.8048" y2="201.07566" gradientUnits="userSpaceOnUse" id="color-2"><stop offset="0" stop-color="#c500e4"/><stop offset="1" stop-color="#7e8fff"/></linearGradient><linearGradient x1="250.24302" y1="161.13439" x2="250.24302" y2="168.28798" gradientUnits="userSpaceOnUse" id="color-3"><stop offset="0" stop-color="#ffb773"/><stop offset="1" stop-color="#ffab94"/></linearGradient><linearGradient x1="225.43699" y1="180.17206" x2="243.29482" y2="180.17206" gradientUnits="userSpaceOnUse" id="color-4"><stop offset="0" stop-color="#6b66ff"/><stop offset="1" stop-color="#fc5eff"/></linearGradient><linearGradient x1="225.62345" y1="171.24168" x2="254.64528" y2="171.24168" gradientUnits="userSpaceOnUse" id="color-5"><stop offset="0" stop-color="#c2bfff"/><stop offset="1" stop-color="#ffbfc8"/></linearGradient><linearGradient x1="225.91525" y1="180.17204" x2="243.29483" y2="180.17204" gradientUnits="userSpaceOnUse" id="color-6"><stop offset="0" stop-color="#c7bffb"/><stop offset="1" stop-color="#d9b2cc"/></linearGradient></defs><g transform="translate(-208.46098,-148.46097)"><g data-paper-data="{&quot;isPaintingLayer&quot;:true}" fill-rule="nonzero" stroke="none" stroke-width="0" stroke-linecap="butt" stroke-linejoin="miter" stroke-miterlimit="10" stroke-dasharray="" stroke-dashoffset="0" style="mix-blend-mode: normal"><path d="M208.46098,180.00001c0,-17.41853 14.12051,-31.53904 31.53904,-31.53904c17.41853,0 31.53903,14.12051 31.53903,31.53904c0,17.41853 -14.12051,31.53903 -31.53903,31.53903c-17.41853,0 -31.53904,-14.1205 -31.53904,-31.53903z" fill="url(#color-1)"/><path d="M214.76879,180.00001c0,-13.93481 11.29641,-25.23124 25.23122,-25.23124c13.93483,0 25.23122,11.29641 25.23122,25.23124c0,13.93483 -11.2964,25.23122 -25.23122,25.23122c-13.93482,0 -25.23122,-11.29641 -25.23122,-25.23122z" fill="#000000"/><g><path d="M236.32194,182.0202l6.93321,3.55864c0,0 0.08365,6.03871 0.10425,8.15933c0.00867,0.89281 -0.12813,2.09869 -1.57779,3.14628c-0.29723,0.20242 -1.65646,1.23204 -2.95308,2.22002c-0.40157,0.30599 -0.79714,0.60798 -1.15328,0.88017c-0.81621,0.6238 -1.42252,0.33099 -1.41906,-0.58257c0.00134,-0.35171 0.00275,-0.72618 0.00412,-1.0888c0.01199,-3.16806 0.06164,-16.29306 0.06164,-16.29306z" fill="url(#color-2)"/><path d="M254.43306,166.99629c-0.21866,0.28182 -0.69864,0.8456 -1.24796,1.14665c-0.29264,0.16037 -0.66922,0.02117 -0.94029,0.06173c-1.57073,0.23504 -6.24354,-0.10196 -6.24354,-0.10196c0,0 3.0605,-4.80385 3.85287,-5.96143c0.32564,-0.47574 1.14468,-0.66462 1.48692,-0.15025c0.94848,1.42546 2.7763,4.17254 3.07292,4.61832c0.08046,0.12091 0.09966,0.2831 0.01906,0.38695z" fill="url(#color-3)"/><path d="M232.92934,173.41698l8.62676,4.44283c0,0 1.62713,0.71151 1.67559,2.53338c-0.02902,1.38901 0.06314,7.4851 0.06314,7.4851c0,0 -0.2241,-1.72088 -2.08663,-2.7686c-2.9989,-1.71299 -9.60774,-5.39924 -13.28159,-7.54269c-1.6127,-0.94091 -2.19059,-1.47391 -1.96418,-2.33007c0.0494,-0.18678 0.13707,-0.37904 0.26063,-0.58001c0.04131,-0.06718 0.20063,-0.06785 0.2352,-0.124c0.59724,-0.97006 0.98199,-0.06065 1.14026,-0.32075c0.16048,-0.26375 0.8625,-0.26417 0.8625,-0.26417c0,0 -0.00635,-1.31808 0.54909,-1.41476c2.10878,-0.36709 3.91921,0.88375 3.91921,0.88375z" fill="url(#color-4)"/><path d="M227.30577,172.93148c0.87804,-1.39619 1.75534,-2.70709 1.77257,-2.72976c1.36528,-2.16138 1.98896,-2.30877 3.6033,-2.36433c2.04242,0.0209 15.61043,-0.02828 20.00749,-0.02387c0.60604,-0.01265 0.93919,-0.18338 1.17002,-0.3214c0.15838,-0.0947 0.3725,-0.32464 0.52589,-0.48933c0.09779,-0.105 0.11364,-0.08131 -0.0013,0.09765c-0.72149,1.12341 -3.39464,5.2729 -4.09373,6.17546c-0.52264,0.67475 -1.29028,1.67577 -3.15986,1.6542c-3.45854,-0.03991 -16.022,-0.2387 -19.82453,-0.29713c-0.66659,-0.01024 -1.0504,-0.01617 -1.0504,-0.01617c0,0 0.42531,-0.69114 1.05055,-1.68534z" fill="url(#color-5)"/><path d="M225.92067,175.46912c0,0 0.01325,-0.10741 0.02489,-0.16174c0.01467,-0.06852 0.0346,-0.13775 0.05969,-0.20782c0.05136,-0.14349 0.12431,-0.29056 0.21781,-0.44262c0.04131,-0.06718 0.0791,-0.12862 0.11367,-0.18476c0.59724,-0.97006 0.23255,-0.36449 0.39082,-0.62458c0.16048,-0.26375 0.2751,-0.44646 0.2751,-0.44646c0,0 1.08941,-0.5786 1.74195,-0.79629c0.10081,-0.03363 0.19118,-0.05865 0.26551,-0.07158c0.84331,-0.1468 1.63891,-0.03485 2.29008,0.15236c-0.039,0.50105 -3.14217,1.95009 -3.14217,1.95009c0,0 -0.90766,-0.10328 -1.54891,0.20259c-0.58589,0.31523 -0.68845,0.63082 -0.68845,0.63082z" fill="url(#color-6)"/></g></g></g></svg>