<svg version="1.1" viewBox="0.0 0.0 960.0 720.0" fill="none" stroke="none" stroke-linecap="square" stroke-miterlimit="10" xmlns:xlink="http://www.w3.org/1999/xlink" xmlns="http://www.w3.org/2000/svg"><clipPath id="p.0"><path d="m0 0l960.0 0l0 720.0l-960.0 0l0 -720.0z" clip-rule="nonzero"/></clipPath><g clip-path="url(#p.0)"><path fill="#000000" fill-opacity="0.0" d="m0 0l960.0 0l0 720.0l-960.0 0z" fill-rule="evenodd"/><path fill="#000000" fill-opacity="0.0" d="m246.2231 199.54593l480.7874 0l0 317.41733l-480.7874 0z" fill-rule="evenodd"/><path fill="#000000" d="m267.95746 243.57405l-9.328125 -14.453125q-2.28125 -3.515625 -2.28125 -4.890625q0 -1.375 1.0625 -2.34375q1.0625 -0.96875 2.546875 -0.96875q1.4375 0 2.234375 0.8125q0.8125 0.8125 2.59375 3.671875l7.125 11.578125l7.21875 -11.578125q1.875 -3.078125 2.71875 -3.78125q0.84375 -0.703125 2.171875 -0.703125q1.40625 0 2.40625 0.96875q1.0 0.96875 1.0 2.296875q0 1.296875 -2.234375 4.734375l-9.546875 14.65625l0 10.421875q0 2.5156403 -0.21875 3.6562653q-0.203125 1.125 -1.21875 1.9375q-1.015625 0.8125 -2.390625 0.8125q-1.328125 0 -2.359375 -0.78125q-1.03125 -0.78125 -1.265625 -1.90625q-0.234375 -1.140625 -0.234375 -3.7187653l0 -10.421875zm36.689453 -12.078125q6.609375 0 10.390625 4.078125q3.796875 4.0625 3.796875 10.375q0 6.328125 -3.84375 10.39064q-3.828125 4.0625 -10.15625 4.0625q-6.875 0 -10.625 -4.109375q-3.734375 -4.1250153 -3.734375 -10.343765q0 -6.328125 3.78125 -10.390625q3.796875 -4.0625 10.390625 -4.0625zm0 23.609375q3.234375 0 5.109375 -2.421875q1.890625 -2.4375 1.890625 -6.734375q0 -4.328125 -1.890625 -6.765625q-1.875 -2.4375 -5.109375 -2.4375q-3.171875 0 -5.078125 2.453125q-1.90625 2.453125 -1.90625 6.75q0 4.3125 1.890625 6.734375q1.890625 2.421875 5.09375 2.421875zm19.585419 -5.28125l0 -12.46875q0 -2.328125 0.171875 -3.34375q0.1875 -1.03125 1.109375 -1.765625q0.921875 -0.75 2.234375 -0.75q1.25 0 2.1875 0.703125q0.953125 0.703125 1.171875 1.84375q0.234375 1.140625 0.234375 3.46875l0 9.765625q0 4.8125 1.484375 6.171875q1.5 1.34375 3.296875 1.34375q2.0625 0 3.609375 -1.15625q1.546875 -1.15625 2.109375 -2.78125q0.5625 -1.625 0.5625 -6.421875l0 -7.078125q0 -2.265625 0.21875 -3.34375q0.21875 -1.078125 1.15625 -1.796875q0.9375 -0.71875 2.21875 -0.71875q1.21875 0 2.171875 0.703125q0.953125 0.703125 1.140625 1.765625q0.203125 1.046875 0.203125 3.390625l0 17.546875q0 2.1562653 -0.21875 3.1250153q-0.203125 0.96875 -1.03125 1.671875q-0.8125 0.703125 -2.0625 0.703125q-3.4375 0 -3.296875 -4.9218903q-3.578125 4.9218903 -9.40625 4.9218903q-3.859375 0 -6.5625 -2.296875q-2.703125 -2.3125153 -2.703125 -8.281265z" fill-rule="nonzero"/><path fill="#000000" d="m281.9887 314.73032l-15.46875 0l-1.796875 4.796875q-1.109375 2.9375 -1.875 3.90625q-0.75 0.96875 -2.4375 0.96875q-1.5625 0 -2.640625 -1.078125q-1.0625 -1.09375 -1.0625 -2.34375q0 -1.328125 1.0625 -4.0l9.828125 -24.796875q1.296875 -3.359375 1.90625 -4.53125q0.609375 -1.171875 1.875 -1.953125q1.265625 -0.78125 2.828125 -0.78125q1.84375 0 3.234375 0.984375q1.40625 0.96875 2.203125 2.984375l11.296875 27.875q1.125 2.84375 1.125 4.09375q0 1.296875 -1.078125 2.421875q-1.078125 1.125 -2.703125 1.125q-1.71875 0 -2.46875 -0.96875q-0.75 -0.984375 -1.953125 -4.015625l-1.875 -4.6875zm-13.484375 -5.953125l11.453125 0l-5.796875 -15.703125l-5.65625 15.703125zm37.23065 -17.453125l0 26.671875q0 2.65625 -0.203125 3.71875q-0.1875 1.0625 -1.171875 1.875q-0.984375 0.8125 -2.390625 0.8125q-1.40625 0 -2.46875 -0.8125q-1.046875 -0.828125 -1.25 -1.921875q-0.1875 -1.09375 -0.1875 -3.671875l0 -26.671875q0 -2.625 0.1875 -3.65625q0.203125 -1.03125 1.21875 -1.890625q1.03125 -0.859375 2.421875 -0.859375q1.34375 0 2.390625 0.796875q1.046875 0.796875 1.25 1.890625q0.203125 1.09375 0.203125 3.71875z" fill-rule="nonzero"/></g></svg>