<svg version="1.1" viewBox="0.0 0.0 960.0 720.0" fill="none" stroke="none" stroke-linecap="square" stroke-miterlimit="10" xmlns:xlink="http://www.w3.org/1999/xlink" xmlns="http://www.w3.org/2000/svg"><clipPath id="p.0"><path d="m0 0l960.0 0l0 720.0l-960.0 0l0 -720.0z" clip-rule="nonzero"/></clipPath><g clip-path="url(#p.0)"><path fill="#000000" fill-opacity="0.0" d="m0 0l960.0 0l0 720.0l-960.0 0z" fill-rule="evenodd"/><path fill="#000000" fill-opacity="0.0" d="m55.72441 47.422573l993.3858 0l0 695.4016l-993.3858 0z" fill-rule="evenodd"/><path stroke="#000000" stroke-width="1.0" stroke-linejoin="round" stroke-linecap="butt" d="m55.72441 47.422573l993.3858 0l0 695.4016l-993.3858 0z" fill-rule="evenodd"/><path fill="#000000" d="m90.88066 112.54131q2.34375 1.609375 2.34375 3.328125q0 1.015625 -1.0625 2.59375l-8.5 12.703133l0 7.390625q0 0.984375 -0.078125 1.546875q-0.078125 0.5625 -0.515625 1.375q-0.4375 0.796875 -1.421875 1.109375q-0.96875 0.3125 -2.375 0.3125q-1.40625 0 -2.390625 -0.3125q-0.984375 -0.3125 -1.421875 -1.140625q-0.421875 -0.84375 -0.5 -1.390625q-0.078125 -0.5625 -0.078125 -1.578125l0 -7.3125l-8.5 -12.703133q-1.0625 -1.578125 -1.0625 -2.59375q0 -1.71875 2.046875 -3.09375q2.0625 -1.375 3.078125 -1.375q1.03125 0 1.65625 0.46875q0.828125 0.53125 1.671875 1.890625l5.5 8.796875l5.5 -8.796875q0.859375 -1.359375 1.578125 -1.859375q0.734375 -0.5 1.71875 -0.5q1.0 0 2.8125 1.140625zm-2.5162811 18.937508q0 -5.1562576 3.609375 -8.515633q3.609375 -3.359375 8.25 -3.359375q4.65625 0 8.21875 3.34375q3.578125 3.328125 3.578125 8.484383q0 3.578125 -1.859375 6.359375q-1.84375 2.765625 -4.5 4.078125q-2.640625 1.3125 -5.484375 1.3125q-2.828125 0 -5.5 -1.390625q-2.65625 -1.390625 -4.484375 -4.125q-1.828125 -2.734375 -1.828125 -6.1875zm9.734375 2.234375q1.015625 0.765625 2.046875 0.765625q1.046875 0 2.09375 -0.78125q1.046875 -0.796875 1.046875 -2.34375q0 -1.546875 -0.96875 -2.296875q-0.96875 -0.75 -2.125 -0.75q-1.140625 0 -2.125 0.78125q-0.96875 0.78125 -0.96875 2.328125q0 1.53125 1.0 2.296875zm25.04686 9.03125q-4.40625 0 -7.296875 -3.3125q-2.890625 -3.328125 -2.890625 -8.03125l0 -7.0000076q0 -1.03125 0.078125 -1.546875q0.078125 -0.53125 0.40625 -1.265625q0.8125 -1.546875 3.875 -1.546875q3.40625 0 4.0625 2.09375q0.28125 0.765625 0.28125 2.296875l0 7.0000076q0 1.296875 0.6875 1.984375q0.703125 0.671875 1.9375 0.671875q1.25 0 1.984375 -0.71875q0.734375 -0.71875 0.734375 -1.9375l0 -7.0781326q0 -0.984375 0.078125 -1.53125q0.078125 -0.5625 0.453125 -1.28125q0.734375 -1.5 3.8125 -1.5q3.046875 0 3.828125 1.546875q0.328125 0.734375 0.40625 1.28125q0.078125 0.546875 0.078125 1.53125l0 14.156258q0 0.9375 -0.078125 1.5q-0.078125 0.5625 -0.46875 1.265625q-0.859375 1.453125 -3.796875 1.453125q-2.90625 0 -3.71875 -1.359375q-0.515625 -0.890625 0.234375 -1.734375q0.578125 0.46875 -0.0625 1.0625q-0.625 0.578125 -1.1875 0.984375q-1.578125 1.015625 -3.4375 1.015625zm52.313095 -22.421883q3.046875 1.328125 3.046875 3.515625q0 0.84375 -0.671875 2.421875q-0.671875 1.5625 -1.109375 2.6875076l-4.390625 10.703125q-0.703125 2.046875 -2.421875 2.9375q-0.765625 0.359375 -1.9375 0.359375q-1.15625 0 -2.21875 -0.859375q-1.046875 -0.875 -1.40625 -1.765625l-0.328125 -0.6875q-0.3125 -0.828125 -1.609375 -5.4375q0.40625 0.140625 -0.375 2.328125q-0.78125 2.171875 -1.0 2.71875q-0.21875 0.53125 -0.296875 0.734375q-0.078125 0.203125 -0.40625 0.765625q-0.328125 0.5625 -0.75 0.984375q-1.203125 1.21875 -2.765625 1.21875q-1.5625 0 -2.609375 -0.859375q-1.046875 -0.875 -1.375 -1.796875l-6.0625 -14.718758q-0.453125 -1.359375 -0.453125 -1.859375q0 -2.15625 2.796875 -3.28125q1.4375 -0.578125 2.4375 -0.578125q1.015625 0 1.703125 0.46875q0.6875 0.453125 0.9375 0.921875q0.265625 0.453125 0.40625 0.859375q0.671875 1.59375 2.078125 5.40625l1.578125 -4.34375q0.28125 -0.984375 1.078125 -1.71875q1.390625 -1.40625 2.90625 -1.40625q1.515625 0 2.5625 0.78125q1.046875 0.78125 1.453125 1.609375l0.34375 0.734375q2.0 5.5937576 1.5625 5.7656326l1.6875 -6.0000076q1.171875 -3.078125 3.65625 -3.078125q0.953125 0 1.953125 0.46875zm3.5793457 4.109375q0 -0.984375 0.078125 -1.53125q0.078125 -0.546875 0.421875 -1.28125q0.796875 -1.5 3.859375 -1.5q2.234375 0 3.25 0.890625q0.953125 0.78125 1.015625 2.296875q0.03125 0.421875 0.03125 1.203125l0 14.000008q0 0.96875 -0.078125 1.546875q-0.0625 0.5625 -0.453125 1.28125q-0.734375 1.484375 -3.8125 1.484375q-3.015625 0 -3.828125 -1.546875q-0.328125 -0.734375 -0.40625 -1.25q-0.078125 -0.53125 -0.078125 -1.546875l0 -14.046883zm8.09375 -6.953125q-0.40625 0.796875 -1.390625 1.109375q-0.984375 0.3125 -2.375 0.3125q-1.375 0 -2.375 -0.3125q-0.984375 -0.3125 -1.390625 -1.125q-0.40625 -0.8125 -0.484375 -1.359375q-0.078125 -0.5625 -0.078125 -1.546875q0 -0.984375 0.078125 -1.53125q0.078125 -0.5625 0.421875 -1.25q0.796875 -1.53125 3.859375 -1.53125q3.03125 0 3.765625 1.53125q0.390625 0.734375 0.453125 1.296875q0.078125 0.5625 0.078125 1.53125q0 0.953125 -0.078125 1.515625q-0.0625 0.5625 -0.484375 1.359375zm14.653122 2.609375q4.375 0 7.265625 3.328125q2.890625 3.3125 2.890625 8.015633l0 7.046875q0 0.984375 -0.078125 1.53125q-0.078125 0.546875 -0.421875 1.234375q-0.765625 1.53125 -3.84375 1.53125q-3.46875 0 -4.0625 -2.03125q-0.296875 -0.8125 -0.296875 -2.3125l0 -7.03125q0 -1.296875 -0.703125 -1.96875q-0.6875 -0.6875 -1.921875 -0.6875q-1.234375 0 -1.984375 0.71875q-0.734375 0.71875 -0.734375 1.9375l0 7.078125q0 0.96875 -0.078125 1.53125q-0.0625 0.5625 -0.453125 1.25q-0.734375 1.515625 -3.8125 1.515625q-3.015625 0 -3.8125 -1.53125q-0.34375 -0.734375 -0.421875 -1.28125q-0.078125 -0.546875 -0.078125 -1.53125l0 -14.156258q0 -0.9375 0.078125 -1.5q0.078125 -0.578125 0.484375 -1.265625q0.78125 -1.421875 3.796875 -1.421875q2.90625 0 3.71875 1.328125q0.5 0.875 -0.234375 1.734375q-0.578125 -0.484375 0.046875 -1.0625q0.640625 -0.59375 1.203125 -0.953125q1.578125 -1.046875 3.453125 -1.046875zm12.22435 15.375008q0.53125 -1.015625 1.5625 -1.375q1.046875 -0.359375 3.015625 -0.359375q1.96875 0 3.0 1.0q1.03125 1.0 1.03125 2.984375l0 0.640625q0 1.015625 -0.078125 1.578125q-0.078125 0.546875 -0.453125 1.3125q-0.890625 1.625 -3.734375 1.625q-2.828125 0 -3.859375 -1.015625q-1.015625 -1.03125 -1.015625 -3.625q0 -1.75 0.53125 -2.765625zm6.375 -3.453125q-0.96875 0.25 -2.359375 0.25q-1.375 0 -2.359375 -0.25q-0.984375 -0.25 -1.40625 -0.984375q-0.421875 -0.75 -0.5 -1.25q-0.078125 -0.515625 -0.078125 -1.421875l0 -12.671883q0 -0.90625 0.078125 -1.4375q0.078125 -0.53125 0.53125 -1.265625q0.453125 -0.734375 1.421875 -1.015625q0.96875 -0.28125 2.359375 -0.28125q1.390625 0 2.375 0.28125q0.984375 0.28125 1.40625 1.046875q0.421875 0.765625 0.484375 1.296875q0.078125 0.515625 0.078125 1.40625l0 12.687508q0 0.890625 -0.078125 1.421875q-0.0625 0.515625 -0.53125 1.234375q-0.453125 0.703125 -1.421875 0.953125z" fill-rule="nonzero"/><path fill="#000000" d="m90.88066 160.54132q2.34375 1.609375 2.34375 3.328125q0 1.015625 -1.0625 2.59375l-8.5 12.703125l0 7.390625q0 0.984375 -0.078125 1.546875q-0.078125 0.5625 -0.515625 1.375q-0.4375 0.796875 -1.421875 1.109375q-0.96875 0.3125 -2.375 0.3125q-1.40625 0 -2.390625 -0.3125q-0.984375 -0.3125 -1.421875 -1.140625q-0.421875 -0.84375 -0.5 -1.390625q-0.078125 -0.5625 -0.078125 -1.578125l0 -7.3125l-8.5 -12.703125q-1.0625 -1.578125 -1.0625 -2.59375q0 -1.71875 2.046875 -3.09375q2.0625 -1.375 3.078125 -1.375q1.03125 0 1.65625 0.46875q0.828125 0.53125 1.671875 1.890625l5.5 8.796875l5.5 -8.796875q0.859375 -1.359375 1.578125 -1.859375q0.734375 -0.5 1.71875 -0.5q1.0 0 2.8125 1.140625zm-2.5162811 18.9375q0 -5.15625 3.609375 -8.515625q3.609375 -3.359375 8.25 -3.359375q4.65625 0 8.21875 3.34375q3.578125 3.328125 3.578125 8.484375q0 3.578125 -1.859375 6.359375q-1.84375 2.765625 -4.5 4.078125q-2.640625 1.3125 -5.484375 1.3125q-2.828125 0 -5.5 -1.390625q-2.65625 -1.390625 -4.484375 -4.125q-1.828125 -2.734375 -1.828125 -6.1875zm9.734375 2.234375q1.015625 0.765625 2.046875 0.765625q1.046875 0 2.09375 -0.78125q1.046875 -0.796875 1.046875 -2.34375q0 -1.546875 -0.96875 -2.296875q-0.96875 -0.75 -2.125 -0.75q-1.140625 0 -2.125 0.78125q-0.96875 0.78125 -0.96875 2.328125q0 1.53125 1.0 2.296875zm25.04686 9.03125q-4.40625 0 -7.296875 -3.3125q-2.890625 -3.328125 -2.890625 -8.03125l0 -7.0q0 -1.03125 0.078125 -1.546875q0.078125 -0.53125 0.40625 -1.265625q0.8125 -1.546875 3.875 -1.546875q3.40625 0 4.0625 2.09375q0.28125 0.765625 0.28125 2.296875l0 7.0q0 1.296875 0.6875 1.984375q0.703125 0.671875 1.9375 0.671875q1.25 0 1.984375 -0.71875q0.734375 -0.71875 0.734375 -1.9375l0 -7.078125q0 -0.984375 0.078125 -1.53125q0.078125 -0.5625 0.453125 -1.28125q0.734375 -1.5 3.8125 -1.5q3.046875 0 3.828125 1.546875q0.328125 0.734375 0.40625 1.28125q0.078125 0.546875 0.078125 1.53125l0 14.15625q0 0.9375 -0.078125 1.5q-0.078125 0.5625 -0.46875 1.265625q-0.859375 1.453125 -3.796875 1.453125q-2.90625 0 -3.71875 -1.359375q-0.515625 -0.890625 0.234375 -1.734375q0.578125 0.46875 -0.0625 1.0625q-0.625 0.578125 -1.1875 0.984375q-1.578125 1.015625 -3.4375 1.015625zm24.17247 -28.234375q0 -0.984375 0.078125 -1.515625q0.078125 -0.546875 0.40625 -1.28125q0.8125 -1.546875 3.875 -1.546875q2.921875 0 3.765625 1.515625q0.390625 0.75 0.453125 1.328125q0.078125 0.578125 0.078125 1.546875l0 18.515625q0 1.203125 0.046875 1.296875q0.0625 0.078125 0.703125 0.078125q0.640625 0 1.046875 0.09375q0.40625 0.09375 0.921875 0.453125q1.171875 0.75 1.171875 3.515625q0 2.96875 -1.15625 3.765625q-1.296875 0.890625 -5.546875 0.390625q-3.484375 -0.46875 -4.609375 -2.46875q-1.234375 -2.140625 -1.234375 -6.640625l0 -19.046875zm12.486237 16.96875q0 -5.15625 3.609375 -8.515625q3.609375 -3.359375 8.25 -3.359375q4.65625 0 8.21875 3.34375q3.578125 3.328125 3.578125 8.484375q0 3.578125 -1.859375 6.359375q-1.84375 2.765625 -4.5 4.078125q-2.640625 1.3125 -5.484375 1.3125q-2.828125 0 -5.5 -1.390625q-2.65625 -1.390625 -4.484375 -4.125q-1.828125 -2.734375 -1.828125 -6.1875zm9.734375 2.234375q1.015625 0.765625 2.046875 0.765625q1.046875 0 2.09375 -0.78125q1.046875 -0.796875 1.046875 -2.34375q0 -1.546875 -0.96875 -2.296875q-0.96875 -0.75 -2.125 -0.75q-1.140625 0 -2.125 0.78125q-0.96875 0.78125 -0.96875 2.328125q0 1.53125 1.0 2.296875zm15.42186 7.109375q-1.15625 -0.734375 -1.15625 -2.125q0 -1.40625 1.65625 -3.734375q0.671875 -1.03125 1.984375 -1.03125q1.328125 0 3.0 0.984375q1.6875 0.96875 2.828125 0.96875q1.609375 0 1.609375 -0.125q0 -0.046875 -1.953125 -0.296875q-2.703125 -0.390625 -5.328125 -2.0q-1.375 -0.84375 -2.234375 -2.578125q-0.84375 -1.75 -0.84375 -4.046875q0 -7.15625 9.515625 -7.15625q3.0 0 6.171875 1.4375q1.890625 0.859375 1.890625 2.203125q0 1.34375 -1.078125 3.046875q-1.0625 1.6875 -2.4375 1.6875q-0.640625 0 -1.953125 -0.59375q-1.296875 -0.59375 -2.640625 -0.59375q-1.53125 0 -1.53125 0.046875q0 0.484375 1.984375 0.734375q2.78125 0.296875 5.390625 1.59375q1.390625 0.6875 2.28125 2.265625q0.90625 1.578125 0.90625 3.875q0 2.296875 -0.890625 3.96875q-0.890625 1.671875 -2.53125 2.5q-2.734375 1.328125 -6.8125 1.328125q-4.078125 0 -7.828125 -2.359375zm40.981857 -11.828125q0 2.75 -1.46875 4.171875q-1.46875 1.421875 -3.28125 1.421875l-8.65625 0q0 -0.203125 1.015625 0.390625q1.015625 0.59375 2.125 0.59375q2.171875 0 3.359375 -0.4375l0.40625 -0.140625q1.078125 -0.515625 1.90625 -0.515625q1.796875 0 2.953125 2.28125q0.59375 1.25 0.59375 2.1875q0 4.390625 -9.34375 4.390625q-3.125 0 -5.609375 -1.09375q-2.484375 -1.09375 -3.890625 -2.953125q-2.6875 -3.453125 -2.6875 -7.734375q0 -5.40625 3.5 -8.65625q3.515625 -3.25 8.734375 -3.25q5.984375 0 8.84375 4.296875q1.5 2.28125 1.5 5.046875zm-9.265625 0.296875q0.6875 0 0.6875 -0.453125q0 -0.53125 -0.4375 -0.875q-0.4375 -0.34375 -1.4375 -0.34375q-1.0 0 -2.015625 0.84375q-1.015625 0.84375 -1.015625 0.828125l4.21875 0zm10.732483 6.171875q0.53125 -1.015625 1.5625 -1.375q1.046875 -0.359375 3.015625 -0.359375q1.96875 0 3.0 1.0q1.03125 1.0 1.03125 2.984375l0 0.640625q0 1.015625 -0.078125 1.578125q-0.078125 0.546875 -0.453125 1.3125q-0.890625 1.625 -3.734375 1.625q-2.828125 0 -3.859375 -1.015625q-1.015625 -1.03125 -1.015625 -3.625q0 -1.75 0.53125 -2.765625zm6.375 -3.453125q-0.96875 0.25 -2.359375 0.25q-1.375 0 -2.359375 -0.25q-0.984375 -0.25 -1.40625 -0.984375q-0.421875 -0.75 -0.5 -1.25q-0.078125 -0.515625 -0.078125 -1.421875l0 -12.671875q0 -0.90625 0.078125 -1.4375q0.078125 -0.53125 0.53125 -1.265625q0.453125 -0.734375 1.421875 -1.015625q0.96875 -0.28125 2.359375 -0.28125q1.390625 0 2.375 0.28125q0.984375 0.28125 1.40625 1.046875q0.421875 0.765625 0.484375 1.296875q0.078125 0.515625 0.078125 1.40625l0 12.6875q0 0.890625 -0.078125 1.421875q-0.0625 0.515625 -0.53125 1.234375q-0.453125 0.703125 -1.421875 0.953125z" fill-rule="nonzero"/><path fill="#000000" d="m70.708786 207.80695l7.40625 0.046875q6.125 0 10.765625 4.421875q4.65625 4.40625 4.65625 10.859375q0 6.4375 -4.546875 11.046875q-4.53125 4.59375 -11.0 4.59375l-7.3125 0q-2.90625 0 -3.765625 -1.40625q-0.59375 -1.03125 -0.59375 -2.96875l0 -22.25q0 -1.015625 0.078125 -1.5625q0.078125 -0.546875 0.46875 -1.265625q0.765625 -1.515625 3.84375 -1.515625zm7.40625 22.234375q2.546875 0 4.609375 -1.90625q2.078125 -1.90625 2.078125 -4.78125q0 -2.875 -2.015625 -4.8125q-2.0 -1.953125 -4.71875 -1.953125l-3.0 0l0 13.453125l3.046875 0zm31.847473 -13.640625q0.90625 0.28125 1.578125 1.0625q0.6875 0.78125 0.6875 2.328125q0 1.53125 -0.921875 3.359375q-0.921875 1.828125 -2.875 1.828125q-0.90625 0 -1.5625 -0.3125q-0.65625 -0.328125 -1.5 -0.328125q-0.84375 0 -1.515625 0.546875q-0.671875 0.546875 -0.671875 1.234375l0 8.390625q0 0.984375 -0.078125 1.546875q-0.078125 0.546875 -0.46875 1.296875q-0.859375 1.46875 -3.84375 1.46875q-2.21875 0 -3.296875 -0.890625q-0.890625 -0.765625 -1.015625 -2.3125q0 -0.421875 0 -1.1875l0 -14.03125q0 -0.984375 0.078125 -1.53125q0.078125 -0.5625 0.421875 -1.25q0.796875 -1.53125 3.859375 -1.53125q2.828125 0 3.6875 1.28125q0.578125 0.859375 -0.140625 1.4375q-0.546875 -0.46875 -0.109375 -0.921875q0.4375 -0.46875 1.828125 -1.234375q1.390625 -0.765625 2.46875 -0.765625q1.078125 0 1.78125 0.109375q0.703125 0.109375 1.609375 0.40625zm15.970612 2.25q-0.375 -2.5625 3.296875 -2.5625q1.6875 0 2.671875 0.3125q0.984375 0.3125 1.40625 1.125q0.421875 0.8125 0.484375 1.375q0.0625 0.5625 0.0625 1.53125l0 14.0q0 0.96875 -0.0625 1.53125q-0.0625 0.546875 -0.421875 1.28125q-0.796875 1.5 -3.359375 1.5q-2.5625 0 -3.5625 -0.71875q-1.0 -0.734375 -0.609375 -1.140625q-0.765625 1.859375 -4.625 1.859375q-3.859375 0 -7.0625 -3.40625q-3.1875 -3.421875 -3.1875 -7.921875q0 -4.515625 3.203125 -7.90625q3.21875 -3.390625 7.140625 -3.390625q1.53125 0 2.796875 0.546875q1.28125 0.546875 1.796875 1.046875q0.515625 0.5 0.03125 0.9375zm-6.3125 8.8125q0 0.984375 0.796875 1.8125q0.796875 0.8125 1.921875 0.8125q1.125 0 1.875 -0.8125q0.75 -0.828125 0.75 -1.828125q0 -1.0 -0.71875 -1.84375q-0.71875 -0.859375 -1.921875 -0.859375q-1.203125 0 -1.953125 0.859375q-0.75 0.859375 -0.75 1.859375zm43.918106 -11.140625q3.046875 1.328125 3.046875 3.515625q0 0.84375 -0.671875 2.421875q-0.671875 1.5625 -1.109375 2.6875l-4.390625 10.703125q-0.703125 2.046875 -2.421875 2.9375q-0.765625 0.359375 -1.9375 0.359375q-1.15625 0 -2.21875 -0.859375q-1.046875 -0.875 -1.40625 -1.765625l-0.328125 -0.6875q-0.3125 -0.828125 -1.609375 -5.4375q0.40625 0.140625 -0.375 2.328125q-0.78125 2.171875 -1.0 2.71875q-0.21875 0.53125 -0.296875 0.734375q-0.078125 0.203125 -0.40625 0.765625q-0.328125 0.5625 -0.75 0.984375q-1.203125 1.21875 -2.765625 1.21875q-1.5625 0 -2.609375 -0.859375q-1.046875 -0.875 -1.375 -1.796875l-6.0625 -14.71875q-0.453125 -1.359375 -0.453125 -1.859375q0 -2.15625 2.796875 -3.28125q1.4375 -0.578125 2.4375 -0.578125q1.015625 0 1.703125 0.46875q0.6875 0.453125 0.9375 0.921875q0.265625 0.453125 0.40625 0.859375q0.671875 1.59375 2.078125 5.40625l1.578125 -4.34375q0.28125 -0.984375 1.078125 -1.71875q1.390625 -1.40625 2.90625 -1.40625q1.515625 0 2.5625 0.78125q1.046875 0.78125 1.453125 1.609375l0.34375 0.734375q2.0 5.59375 1.5625 5.765625l1.6875 -6.0q1.171875 -3.078125 3.65625 -3.078125q0.953125 0 1.953125 0.46875zm4.1105957 15.140625q0.53125 -1.015625 1.5625 -1.375q1.046875 -0.359375 3.015625 -0.359375q1.96875 0 3.0 1.0q1.03125 1.0 1.03125 2.984375l0 0.640625q0 1.015625 -0.078125 1.578125q-0.078125 0.546875 -0.453125 1.3125q-0.890625 1.625 -3.734375 1.625q-2.828125 0 -3.859375 -1.015625q-1.015625 -1.03125 -1.015625 -3.625q0 -1.75 0.53125 -2.765625zm6.375 -3.453125q-0.96875 0.25 -2.359375 0.25q-1.375 0 -2.359375 -0.25q-0.984375 -0.25 -1.40625 -0.984375q-0.421875 -0.75 -0.5 -1.25q-0.078125 -0.515625 -0.078125 -1.421875l0 -12.671875q0 -0.90625 0.078125 -1.4375q0.078125 -0.53125 0.53125 -1.265625q0.453125 -0.734375 1.421875 -1.015625q0.96875 -0.28125 2.359375 -0.28125q1.390625 0 2.375 0.28125q0.984375 0.28125 1.40625 1.046875q0.421875 0.765625 0.484375 1.296875q0.078125 0.515625 0.078125 1.40625l0 12.6875q0 0.890625 -0.078125 1.421875q-0.0625 0.515625 -0.53125 1.234375q-0.453125 0.703125 -1.421875 0.953125z" fill-rule="nonzero"/></g></svg>