<svg version="1.1" xmlns="http://www.w3.org/2000/svg" xmlns:xlink="http://www.w3.org/1999/xlink" width="372.1722" height="198.29188" viewBox="0,0,372.1722,198.29188"><g transform="translate(-61.74696,-79.94445)"><g data-paper-data="{&quot;isPaintingLayer&quot;:true}" fill-rule="nonzero" stroke-miterlimit="10" stroke-dasharray="" stroke-dashoffset="0" style="mix-blend-mode: normal"><path d="M169.0419,188.86715v-20.09873h141.9162v20.09873z" data-paper-data="{&quot;zoomLevel&quot;:2.5}" fill="#ffffff" stroke="#f5f5f5" stroke-width="22.5" stroke-linecap="butt" stroke-linejoin="round"/><path d="M185.37007,179.76125v4.01358c0,1.24164 -0.16036,2.02283 -0.48108,2.34355c-0.32072,0.31614 -0.73307,0.4742 -1.23706,0.4742c-0.3757,0 -0.71016,-0.10767 -1.00339,-0.32301c-0.29323,-0.21534 -0.4765,-0.47878 -0.54981,-0.79035c-0.07331,-0.31155 -0.10996,-0.87969 -0.10996,-1.7044v-11.40844c0,-0.953 0.06414,-1.60588 0.19243,-1.95868c0.13287,-0.3528 0.36883,-0.58875 0.70787,-0.70787c0.33905,-0.1237 0.84533,-0.18556 1.51884,-0.18556h4.09604c2.44205,0 4.09604,0.4742 4.96198,1.42262c0.87052,0.94383 1.30578,2.11904 1.30578,3.52562c0,3.5325 -2.08926,5.29874 -6.26778,5.29874zM187.67925,172.13958h-2.30918v4.98948h2.30918c1.40658,0 2.36416,-0.22451 2.87273,-0.67351c0.51315,-0.45359 0.76972,-1.06524 0.76972,-1.83497c0,-0.54981 -0.14432,-1.03776 -0.43297,-1.46385c-0.28407,-0.4261 -0.66664,-0.701 -1.14771,-0.82471c-0.48108,-0.12829 -1.16833,-0.19243 -2.06177,-0.19243zM200.52025,171.80283v12.19879c0,0.75599 -0.03436,1.26914 -0.10309,1.53946c-0.06873,0.27032 -0.24512,0.51315 -0.52919,0.72849c-0.27949,0.21534 -0.58417,0.32301 -0.91405,0.32301c-0.33446,0 -0.64831,-0.10538 -0.94154,-0.31614c-0.28865,-0.21076 -0.46733,-0.45588 -0.53606,-0.73536c-0.06873,-0.28407 -0.10309,-0.79722 -0.10309,-1.53946v-12.19879c0,-0.76972 0.03665,-1.28975 0.10996,-1.56007c0.07331,-0.27032 0.24741,-0.50628 0.52231,-0.70787c0.27949,-0.20618 0.58417,-0.30927 0.91405,-0.30927c0.38028,0 0.71016,0.10996 0.98965,0.32988c0.27949,0.21534 0.44672,0.47192 0.5017,0.76972c0.05956,0.29323 0.08934,0.78577 0.08934,1.4776zM211.65317,184.82633c-1.48906,1.1775 -2.94833,1.76625 -4.37782,1.76625c-1.35161,0 -2.38936,-0.34363 -3.11327,-1.03088c-0.72391,-0.68726 -1.08587,-1.528 -1.08587,-2.52224c0,-0.84761 0.24512,-1.53258 0.73536,-2.0549c0.49483,-0.52231 1.03088,-0.88656 1.60818,-1.09274c0.58187,-0.20618 1.528,-0.44442 2.83837,-0.71474c1.31036,-0.2749 2.36645,-0.52689 3.16825,-0.75599c-0.00917,-0.94383 -0.19701,-1.58069 -0.56355,-1.91057c-0.36654,-0.33446 -0.92322,-0.5017 -1.67003,-0.5017c-1.42033,0 -2.34812,0.39632 -2.78339,1.18896c-0.24741,0.44901 -0.46733,0.76972 -0.65976,0.96216c-0.18785,0.19243 -0.46047,0.28865 -0.81783,0.28865c-0.32988,0 -0.62998,-0.10767 -0.90031,-0.32301c-0.26574,-0.21992 -0.39861,-0.5017 -0.39861,-0.84533c0,-0.81096 0.43984,-1.58069 1.31953,-2.30918c0.87969,-0.72849 2.26107,-1.09274 4.14415,-1.09274c1.91057,0 3.30799,0.32988 4.19226,0.98965c0.88427,0.65976 1.3012,1.99304 1.2508,3.99983l-0.06873,2.93458c-0.03207,0.90717 0.05956,1.64713 0.2749,2.21984c0.21992,0.57271 0.32988,1.01257 0.32988,1.31954c0,0.32988 -0.14662,0.62082 -0.43984,0.87281c-0.28865,0.25199 -0.61395,0.37799 -0.9759,0.37799c-0.63685,0 -1.30578,-0.58875 -2.00679,-1.76625zM211.44701,180.30418c-0.46733,0.18326 -1.23706,0.38257 -2.30918,0.59791c-1.07212,0.21076 -1.83268,0.45359 -2.28169,0.72849c-0.44442,0.2749 -0.66664,0.6758 -0.66664,1.20269c0,0.44901 0.1764,0.84533 0.52919,1.18896c0.35738,0.34363 0.86136,0.51544 1.51196,0.51544c0.68726,0 1.32641,-0.18785 1.91745,-0.56355c0.59104,-0.38028 0.95528,-0.82929 1.09274,-1.34702c0.13745,-0.51773 0.20618,-1.29205 0.20618,-2.32292zM220.86333,186.28331l-3.82802,-9.69031c-0.23824,-0.6277 -0.35738,-1.06067 -0.35738,-1.29891c0,-0.35738 0.1489,-0.68268 0.44672,-0.9759c0.29781,-0.29323 0.6506,-0.43984 1.05837,-0.43984c0.34821,0 0.64602,0.10996 0.89344,0.32988c0.25199,0.21534 0.49483,0.65748 0.72849,1.32641l2.64594,7.69726l2.50849,-7.13372c0.32988,-0.93009 0.59104,-1.53258 0.78347,-1.80748c0.19701,-0.2749 0.53148,-0.41236 1.00339,-0.41236c0.43068,0 0.76972,0.14432 1.01714,0.43297c0.24741,0.28407 0.37111,0.575 0.37111,0.87281c0,0.34821 -0.126,0.84761 -0.37799,1.49821l-4.07543,10.67309c-0.54523,1.42033 -1.10877,2.42143 -1.69065,3.0033c-0.57729,0.58187 -1.56465,0.87281 -2.96207,0.87281c-1.81894,0 -2.7284,-0.46275 -2.7284,-1.38826c0,-0.30697 0.10309,-0.56355 0.30927,-0.76972c0.20618,-0.20618 0.48108,-0.30927 0.82471,-0.30927c0.05498,0 0.23138,0.01145 0.52919,0.03436c0.29781,0.02291 0.4742,0.03436 0.52919,0.03436c0.57729,0 1.0011,-0.13974 1.27142,-0.41922c0.2749,-0.2749 0.54523,-0.75369 0.81096,-1.43637zM245.26816,184.82633c-1.48906,1.1775 -2.94833,1.76625 -4.37782,1.76625c-1.35161,0 -2.38936,-0.34363 -3.11327,-1.03088c-0.72391,-0.68726 -1.08587,-1.528 -1.08587,-2.52224c0,-0.84761 0.24512,-1.53258 0.73536,-2.0549c0.49483,-0.52231 1.03088,-0.88656 1.60818,-1.09274c0.58187,-0.20618 1.528,-0.44442 2.83837,-0.71474c1.31036,-0.2749 2.36645,-0.52689 3.16825,-0.75599c-0.00917,-0.94383 -0.19701,-1.58069 -0.56355,-1.91057c-0.36654,-0.33446 -0.92322,-0.5017 -1.67003,-0.5017c-1.42033,0 -2.34812,0.39632 -2.78339,1.18896c-0.24741,0.44901 -0.46733,0.76972 -0.65976,0.96216c-0.18785,0.19243 -0.46047,0.28865 -0.81783,0.28865c-0.32988,0 -0.62998,-0.10767 -0.90031,-0.32301c-0.26574,-0.21992 -0.39861,-0.5017 -0.39861,-0.84533c0,-0.81096 0.43984,-1.58069 1.31953,-2.30918c0.87969,-0.72849 2.26107,-1.09274 4.14415,-1.09274c1.91057,0 3.30799,0.32988 4.19226,0.98965c0.88427,0.65976 1.3012,1.99304 1.2508,3.99983l-0.06873,2.93458c-0.03207,0.90717 0.05956,1.64713 0.2749,2.21984c0.21992,0.57271 0.32988,1.01257 0.32988,1.31954c0,0.32988 -0.14662,0.62082 -0.43984,0.87281c-0.28865,0.25199 -0.61395,0.37799 -0.9759,0.37799c-0.63685,0 -1.30578,-0.58875 -2.00679,-1.76625zM245.06199,180.30418c-0.46733,0.18326 -1.23706,0.38257 -2.30918,0.59791c-1.07212,0.21076 -1.83268,0.45359 -2.28169,0.72849c-0.44442,0.2749 -0.66664,0.6758 -0.66664,1.20269c0,0.44901 0.1764,0.84533 0.52919,1.18896c0.35738,0.34363 0.86136,0.51544 1.51196,0.51544c0.68726,0 1.32641,-0.18785 1.91745,-0.56355c0.59104,-0.38028 0.95528,-0.82929 1.09274,-1.34702c0.13745,-0.51773 0.20618,-1.29205 0.20618,-2.32292zM259.87327,176.00884v-0.4261c0,-0.56355 0.13745,-0.98736 0.41236,-1.27142c0.27949,-0.28865 0.63457,-0.43297 1.06524,-0.43297c0.47192,0 0.83387,0.16723 1.08587,0.5017c0.25657,0.32988 0.38486,1.04463 0.38486,2.14424v8.3914c0,2.49245 -0.52461,4.16706 -1.57382,5.02384c-1.04921,0.86136 -2.56575,1.29205 -4.54964,1.29205c-1.7777,0 -3.16825,-0.32988 -4.17165,-0.98965c-0.99881,-0.65518 -1.49821,-1.34931 -1.49821,-2.08238c0,-0.39861 0.13058,-0.71933 0.39174,-0.96216c0.26574,-0.23824 0.57729,-0.35738 0.93467,-0.35738c0.32988,0 0.59104,0.07789 0.78347,0.23367c0.19701,0.16036 0.52689,0.53377 0.98965,1.12023c0.46733,0.58646 1.25539,0.87969 2.36416,0.87969c0.60937,0 1.17521,-0.09622 1.69752,-0.28865c0.52689,-0.18785 0.91405,-0.52461 1.16146,-1.01026c0.24741,-0.48566 0.36425,-1.66316 0.3505,-3.5325c-0.95758,1.37451 -2.26336,2.06177 -3.91736,2.06177c-1.59901,0 -2.86357,-0.59791 -3.79365,-1.79374c-0.9255,-1.19583 -1.38826,-2.72383 -1.38826,-4.584c0,-1.85559 0.4765,-3.32632 1.42949,-4.41219c0.95758,-1.09045 2.19922,-1.63566 3.72493,-1.63566c1.67232,0 3.04455,0.71016 4.11667,2.13049zM253.76358,180.17361c0,1.21415 0.26574,2.14194 0.79722,2.78339c0.53148,0.63685 1.25997,0.95528 2.18547,0.95528c0.8018,0 1.49364,-0.30927 2.07551,-0.9278c0.58646,-0.61853 0.87969,-1.54404 0.87969,-2.77651c0,-1.21415 -0.27032,-2.17631 -0.81096,-2.88648c-0.53606,-0.71016 -1.26684,-1.06524 -2.19235,-1.06524c-0.88427,0 -1.59443,0.33217 -2.13049,0.99652c-0.53606,0.66435 -0.80409,1.63796 -0.80409,2.92084zM273.86667,184.82633c-1.48906,1.1775 -2.94833,1.76625 -4.37782,1.76625c-1.35161,0 -2.38936,-0.34363 -3.11327,-1.03088c-0.72391,-0.68726 -1.08587,-1.528 -1.08587,-2.52224c0,-0.84761 0.24512,-1.53258 0.73536,-2.0549c0.49483,-0.52231 1.03088,-0.88656 1.60818,-1.09274c0.58187,-0.20618 1.528,-0.44442 2.83837,-0.71474c1.31036,-0.2749 2.36645,-0.52689 3.16825,-0.75599c-0.00917,-0.94383 -0.19701,-1.58069 -0.56355,-1.91057c-0.36654,-0.33446 -0.92322,-0.5017 -1.67003,-0.5017c-1.42033,0 -2.34812,0.39632 -2.78339,1.18896c-0.24741,0.44901 -0.46733,0.76972 -0.65976,0.96216c-0.18785,0.19243 -0.46047,0.28865 -0.81783,0.28865c-0.32988,0 -0.62998,-0.10767 -0.90031,-0.32301c-0.26574,-0.21992 -0.39861,-0.5017 -0.39861,-0.84533c0,-0.81096 0.43984,-1.58069 1.31953,-2.30918c0.87969,-0.72849 2.26107,-1.09274 4.14415,-1.09274c1.91057,0 3.30799,0.32988 4.19226,0.98965c0.88427,0.65976 1.3012,1.99304 1.2508,3.99983l-0.06873,2.93458c-0.03207,0.90717 0.05956,1.64713 0.2749,2.21984c0.21992,0.57271 0.32988,1.01257 0.32988,1.31954c0,0.32988 -0.14662,0.62082 -0.43984,0.87281c-0.28865,0.25199 -0.61395,0.37799 -0.9759,0.37799c-0.63685,0 -1.30578,-0.58875 -2.00679,-1.76625zM273.66049,180.30418c-0.46733,0.18326 -1.23706,0.38257 -2.30918,0.59791c-1.07212,0.21076 -1.83268,0.45359 -2.28169,0.72849c-0.44442,0.2749 -0.66664,0.6758 -0.66664,1.20269c0,0.44901 0.1764,0.84533 0.52919,1.18896c0.35738,0.34363 0.86136,0.51544 1.51196,0.51544c0.68726,0 1.32641,-0.18785 1.91745,-0.56355c0.59104,-0.38028 0.95528,-0.82929 1.09274,-1.34702c0.13745,-0.51773 0.20618,-1.29205 0.20618,-2.32292zM281.4824,169.36307c0.40319,0 0.75369,0.15349 1.0515,0.46047c0.29781,0.30697 0.44672,0.66206 0.44672,1.06524c0,0.42152 -0.1489,0.78347 -0.44672,1.08587c-0.29781,0.29781 -0.64831,0.44672 -1.0515,0.44672c-0.42152,0 -0.78347,-0.1489 -1.08587,-0.44672c-0.29781,-0.30239 -0.44672,-0.66435 -0.44672,-1.08587c0,-0.41236 0.1489,-0.76972 0.44672,-1.07212c0.30239,-0.30239 0.66435,-0.45359 1.08587,-0.45359zM283.02873,176.42806v7.57356c0,0.74682 -0.03436,1.25769 -0.10309,1.53258c-0.06873,0.2749 -0.24512,0.52003 -0.52919,0.73536c-0.27949,0.21534 -0.58417,0.32301 -0.91405,0.32301c-0.33446,0 -0.64831,-0.10538 -0.94154,-0.31614c-0.28865,-0.21076 -0.46733,-0.45588 -0.53606,-0.73536c-0.06873,-0.28407 -0.10309,-0.79722 -0.10309,-1.53946v-7.54607c0,-0.69642 0.0252,-1.18666 0.07559,-1.47073c0.05498,-0.28865 0.22221,-0.54523 0.5017,-0.76972c0.27949,-0.22451 0.60249,-0.33675 0.96903,-0.33675c0.3757,0 0.69642,0.1008 0.96216,0.30239c0.26574,0.2016 0.43526,0.45817 0.50857,0.76972c0.07331,0.30697 0.10996,0.7995 0.10996,1.4776zM297.28866,178.86783v5.1338c0,0.66435 -0.02749,1.14772 -0.08247,1.45012c-0.05498,0.30239 -0.21992,0.56813 -0.49483,0.79722c-0.27032,0.22909 -0.59334,0.34363 -0.96903,0.34363c-0.33446,0 -0.64831,-0.1008 -0.94154,-0.30239c-0.28865,-0.20618 -0.46733,-0.46962 -0.53606,-0.79035c-0.06873,-0.3253 -0.10309,-0.82471 -0.10309,-1.49822v-4.50153c0,-1.2508 -0.18785,-2.09384 -0.56355,-2.5291c-0.37111,-0.43526 -0.88656,-0.6529 -1.54632,-0.6529c-0.59562,0 -1.11793,0.17181 -1.56694,0.51544c-0.44901,0.34363 -0.76514,0.7743 -0.94842,1.29205c-0.18326,0.51315 -0.2749,1.39513 -0.2749,2.64594v3.2301c0,0.65519 -0.0252,1.13169 -0.07559,1.42949c-0.0504,0.29781 -0.21763,0.56584 -0.5017,0.80409c-0.27949,0.23824 -0.60249,0.35738 -0.96903,0.35738c-0.34363,0 -0.66206,-0.10538 -0.95528,-0.31614c-0.28865,-0.21076 -0.46504,-0.47192 -0.52919,-0.78347c-0.05956,-0.31614 -0.08934,-0.81325 -0.08934,-1.49135v-7.71101c0,-0.69184 0.03207,-1.17521 0.09622,-1.45011c0.06873,-0.2749 0.23367,-0.50398 0.49483,-0.68726c0.26574,-0.18326 0.56126,-0.2749 0.88656,-0.2749c0.30697,0 0.6254,0.12142 0.95528,0.36425c0.33446,0.23824 0.5017,0.81783 0.5017,1.73875c1.04463,-1.402 2.38936,-2.103 4.03419,-2.103c0.62311,0 1.23935,0.11912 1.84872,0.35738c0.61395,0.23367 1.11335,0.61624 1.49821,1.14771c0.38486,0.53148 0.61853,1.08129 0.701,1.64941c0.08705,0.56813 0.13058,1.17979 0.13058,1.83497z" fill="#404040" stroke="#404040" stroke-width="0" stroke-linecap="square" stroke-linejoin="miter"/><path d="M433.91916,177.29325c0,42.80207 -75.21616,77.5 -168,77.5c-92.78384,0 -168,-34.69793 -168,-77.5c0,-42.80207 75.21616,-77.5 168,-77.5c92.78384,0 168,34.69793 168,77.5z" fill="none" stroke="none" stroke-width="0" stroke-linecap="butt" stroke-linejoin="miter"/><path d="M64,79.94445z" fill="none" stroke="none" stroke-width="0" stroke-linecap="butt" stroke-linejoin="miter"/><path d="M388.48318,184.30341c0,51.87772 -63.72981,93.93292 -142.34451,93.93292c-78.6147,0 -142.34451,-42.0552 -142.34451,-93.93292c0,-51.87772 63.72981,-93.93292 142.34451,-93.93292c78.6147,0 142.34451,42.0552 142.34451,93.93292z" fill="none" stroke="none" stroke-width="0" stroke-linecap="butt" stroke-linejoin="miter"/><path d="M61.74696,117.83876v0v0v0z" fill="none" stroke="none" stroke-width="0" stroke-linecap="butt" stroke-linejoin="miter"/></g></g></svg>