<svg version="1.1" viewBox="0.0 0.0 960.0 720.0" fill="none" stroke="none" stroke-linecap="square" stroke-miterlimit="10" xmlns:xlink="http://www.w3.org/1999/xlink" xmlns="http://www.w3.org/2000/svg"><clipPath id="p.0"><path d="m0 0l960.0 0l0 720.0l-960.0 0l0 -720.0z" clip-rule="nonzero"/></clipPath><g clip-path="url(#p.0)"><path fill="#000000" fill-opacity="0.0" d="m0 0l960.0 0l0 720.0l-960.0 0z" fill-rule="evenodd"/><path fill="#000000" fill-opacity="0.0" d="m246.2231 199.54593l480.7874 0l0 317.41733l-480.7874 0z" fill-rule="evenodd"/><path fill="#000000" d="m267.12933 244.87093l0 9.125q0 4.2343903 -1.09375 5.3281403q-1.09375 1.078125 -2.8125 1.078125q-1.28125 0 -2.28125 -0.734375q-1.0 -0.734375 -1.25 -1.796875q-0.25 -1.0625 -0.25 -3.8750153l0 -25.9375q0 -3.25 0.4375 -4.453125q0.453125 -1.203125 1.609375 -1.609375q1.15625 -0.421875 3.453125 -0.421875l9.3125 0q8.328125 0 11.28125 3.234375q2.96875 3.21875 2.96875 8.015625q0 12.046875 -14.25 12.046875l-7.125 0zm5.25 -17.328125l-5.25 0l0 11.34375l5.25 0q4.796875 0 6.53125 -1.53125q1.75 -1.546875 1.75 -4.171875q0 -1.875 -0.984375 -3.328125q-0.96875 -1.453125 -2.609375 -1.875q-1.640625 -0.4375 -4.6875 -0.4375zm29.194458 -0.765625l0 27.734375q0 2.5781403 -0.234375 3.5000153q-0.234375 0.921875 -1.203125 1.65625q-0.953125 0.734375 -2.078125 0.734375q-1.140625 0 -2.140625 -0.71875q-0.984375 -0.71875 -1.21875 -1.671875q-0.234375 -0.96875 -0.234375 -3.5000153l0 -27.734375q0 -2.625 0.25 -3.546875q0.25 -0.921875 1.1875 -1.609375q0.953125 -0.703125 2.078125 -0.703125q1.296875 0 2.25 0.75q0.953125 0.734375 1.140625 1.75q0.203125 1.0 0.203125 3.359375zm25.311096 29.60939q-5.078125 4.015625 -9.953125 4.015625q-4.609375 0 -7.078125 -2.34375q-2.46875 -2.3437653 -2.46875 -5.7343903q0 -2.890625 1.671875 -4.671875q1.6875 -1.78125 3.65625 -2.484375q1.984375 -0.703125 6.453125 -1.625q4.46875 -0.9375 7.203125 -1.71875q-0.03125 -3.21875 -1.28125 -4.34375q-1.25 -1.140625 -3.796875 -1.140625q-4.84375 0 -6.328125 2.703125q-0.84375 1.53125 -1.5 2.1875q-0.640625 0.65625 -1.859375 0.65625q-1.125 0 -2.046875 -0.734375q-0.90625 -0.75 -0.90625 -1.921875q0 -2.765625 3.0 -5.25q3.0 -2.484375 9.421875 -2.484375q6.515625 0 9.53125 2.25q3.015625 2.25 2.84375 9.09375l-0.15625 6.671875q-0.109375 3.09375 0.625 5.046875q0.75 1.9531403 0.75 3.0000153q0 1.125 -1.0 1.984375q-0.984375 0.859375 -2.21875 0.859375q-2.171875 0 -4.5625 -4.015625zm-0.46875 -10.281265q-1.59375 0.625 -5.25 1.359375q-3.65625 0.71875 -5.1875 1.65625q-1.515625 0.9375 -1.515625 2.734375q0 1.53125 1.203125 2.703125q1.21875 1.171875 3.4375 1.171875q2.34375 0 4.359375 -1.28125q2.015625 -1.296875 2.484375 -3.0625q0.46875 -1.765625 0.46875 -5.28125zm21.408356 13.593765l-8.703125 -22.031265q-0.8125 -2.140625 -0.8125 -2.953125q0 -1.21875 1.015625 -2.21875q1.015625 -1.0 2.40625 -1.0q1.1875 0 2.03125 0.75q0.859375 0.734375 1.65625 3.015625l6.015625 17.5l5.703125 -16.21875q1.125 -3.171875 1.78125 -4.109375q0.671875 -0.9375 2.28125 -0.9375q1.46875 0 2.3125 0.984375q0.84375 0.96875 0.84375 1.984375q0 1.1875 -0.859375 3.40625l-9.265625 24.26564q-1.859375 4.84375 -3.84375 6.828125q-1.96875 1.984375 -6.734375 1.984375q-6.203125 0 -6.203125 -3.15625q0 -1.046875 0.703125 -1.75q0.703125 -0.703125 1.875 -0.703125q0.1875 0 1.203125 0.078125q1.015625 0.078125 1.203125 0.078125q1.96875 0 2.890625 -0.953125q0.9375 -0.9375 1.84375 -3.265625l0.65625 -1.578125zm55.48523 -3.3125q-5.078125 4.015625 -9.953125 4.015625q-4.609375 0 -7.078125 -2.34375q-2.46875 -2.3437653 -2.46875 -5.7343903q0 -2.890625 1.671875 -4.671875q1.6875 -1.78125 3.65625 -2.484375q1.984375 -0.703125 6.453125 -1.625q4.46875 -0.9375 7.203125 -1.71875q-0.03125 -3.21875 -1.28125 -4.34375q-1.25 -1.140625 -3.796875 -1.140625q-4.84375 0 -6.328125 2.703125q-0.84375 1.53125 -1.5 2.1875q-0.640625 0.65625 -1.859375 0.65625q-1.125 0 -2.046875 -0.734375q-0.90625 -0.75 -0.90625 -1.921875q0 -2.765625 3.0 -5.25q3.0 -2.484375 9.421875 -2.484375q6.515625 0 9.53125 2.25q3.015625 2.25 2.84375 9.09375l-0.15625 6.671875q-0.109375 3.09375 0.625 5.046875q0.75 1.9531403 0.75 3.0000153q0 1.125 -1.0 1.984375q-0.984375 0.859375 -2.21875 0.859375q-2.171875 0 -4.5625 -4.015625zm-0.46875 -10.281265q-1.59375 0.625 -5.25 1.359375q-3.65625 0.71875 -5.1875 1.65625q-1.515625 0.9375 -1.515625 2.734375q0 1.53125 1.203125 2.703125q1.21875 1.171875 3.4375 1.171875q2.34375 0 4.359375 -1.28125q2.015625 -1.296875 2.484375 -3.0625q0.46875 -1.765625 0.46875 -5.28125zm33.67398 -9.765625l0 -0.96875q0 -1.921875 0.9375 -2.890625q0.953125 -0.984375 2.421875 -0.984375q1.609375 0 2.46875 1.140625q0.875 1.125 0.875 4.875l0 19.07814q0 8.5 -3.578125 11.421875q-3.578125 2.9375 -10.34375 2.9375q-6.0625 0 -9.484375 -2.25q-3.40625 -2.234375 -3.40625 -4.734375q0 -1.359375 0.890625 -2.1875q0.90625 -0.8125 2.125 -0.8125q1.125 0 1.78125 0.53125q0.671875 0.546875 2.25 2.546875q1.59375 2.0 5.375 2.0q2.078125 0 3.859375 -0.65625q1.796875 -0.640625 2.640625 -2.296875q0.84375 -1.65625 0.796875 -8.031265q-3.265625 4.6875153 -8.90625 4.6875153q-5.453125 0 -8.625 -4.0781403q-3.15625 -4.078125 -3.15625 -10.421875q0 -6.328125 3.25 -10.03125q3.265625 -3.71875 8.46875 -3.71875q5.703125 0 9.359375 4.84375zm-13.890625 9.46875q0 4.140625 1.8125 6.328125q1.8125 2.171875 4.96875 2.171875q2.734375 0 4.71875 -2.109375q2.0 -2.109375 2.0 -6.3125q0 -4.140625 -1.84375 -6.5625q-1.828125 -2.421875 -4.984375 -2.421875q-3.015625 0 -4.84375 2.265625q-1.828125 2.265625 -1.828125 6.640625zm45.70508 10.57814q-5.078125 4.015625 -9.953125 4.015625q-4.609375 0 -7.078125 -2.34375q-2.46875 -2.3437653 -2.46875 -5.7343903q0 -2.890625 1.671875 -4.671875q1.6875 -1.78125 3.65625 -2.484375q1.984375 -0.703125 6.453125 -1.625q4.46875 -0.9375 7.203125 -1.71875q-0.03125 -3.21875 -1.28125 -4.34375q-1.25 -1.140625 -3.796875 -1.140625q-4.84375 0 -6.328125 2.703125q-0.84375 1.53125 -1.5 2.1875q-0.640625 0.65625 -1.859375 0.65625q-1.125 0 -2.046875 -0.734375q-0.90625 -0.75 -0.90625 -1.921875q0 -2.765625 3.0 -5.25q3.0 -2.484375 9.421875 -2.484375q6.515625 0 9.53125 2.25q3.015625 2.25 2.84375 9.09375l-0.15625 6.671875q-0.109375 3.09375 0.625 5.046875q0.75 1.9531403 0.75 3.0000153q0 1.125 -1.0 1.984375q-0.984375 0.859375 -2.21875 0.859375q-2.171875 0 -4.5625 -4.015625zm-0.46875 -10.281265q-1.59375 0.625 -5.25 1.359375q-3.65625 0.71875 -5.1875 1.65625q-1.515625 0.9375 -1.515625 2.734375q0 1.53125 1.203125 2.703125q1.21875 1.171875 3.4375 1.171875q2.34375 0 4.359375 -1.28125q2.015625 -1.296875 2.484375 -3.0625q0.46875 -1.765625 0.46875 -5.28125zm17.783386 -24.875q1.375 0 2.390625 1.046875q1.015625 1.046875 1.015625 2.421875q0 1.4375 -1.015625 2.46875q-1.015625 1.015625 -2.390625 1.015625q-1.4375 0 -2.46875 -1.015625q-1.015625 -1.03125 -1.015625 -2.46875q0 -1.40625 1.015625 -2.4375q1.03125 -1.03125 2.46875 -1.03125zm3.515625 16.0625l0 17.21875q0 2.5468903 -0.234375 3.4843903q-0.234375 0.9375 -1.203125 1.671875q-0.953125 0.734375 -2.078125 0.734375q-1.140625 0 -2.140625 -0.71875q-0.984375 -0.71875 -1.21875 -1.671875q-0.234375 -0.96875 -0.234375 -3.5000153l0 -17.15625q0 -2.375 0.171875 -3.34375q0.1875 -0.984375 1.140625 -1.75q0.953125 -0.765625 2.203125 -0.765625q1.28125 0 2.1875 0.6875q0.90625 0.6875 1.15625 1.75q0.25 1.046875 0.25 3.359375zm32.42047 5.546875l0 11.671875q0 2.2656403 -0.1875 3.2968903q-0.1875 1.03125 -1.125 1.8125q-0.921875 0.78125 -2.203125 0.78125q-1.140625 0 -2.140625 -0.6875q-0.984375 -0.703125 -1.21875 -1.796875q-0.234375 -1.109375 -0.234375 -3.4062653l0 -10.234375q0 -4.265625 -1.28125 -5.75q-1.265625 -1.484375 -3.515625 -1.484375q-2.03125 0 -3.5625 1.171875q-1.53125 1.171875 -2.15625 2.9375q-0.625 1.75 -0.625 6.015625l0 7.34375q0 2.2343903 -0.171875 3.2500153q-0.171875 1.015625 -1.140625 1.828125q-0.953125 0.8125 -2.203125 0.8125q-1.171875 0 -2.171875 -0.71875q-0.984375 -0.71875 -1.203125 -1.78125q-0.203125 -1.078125 -0.203125 -3.3906403l0 -17.53125q0 -2.359375 0.21875 -3.296875q0.234375 -0.9375 1.125 -1.5625q0.90625 -0.625 2.015625 -0.625q1.046875 0 2.171875 0.828125q1.140625 0.8125 1.140625 3.953125q3.5625 -4.78125 9.171875 -4.78125q2.125 0 4.203125 0.8125q2.09375 0.796875 3.40625 2.609375q1.3125 1.8125 1.59375 3.75q0.296875 1.9375 0.296875 4.171875z" fill-rule="nonzero"/></g></svg>