<svg version="1.1" xmlns="http://www.w3.org/2000/svg" xmlns:xlink="http://www.w3.org/1999/xlink" width="108.33333" height="128.66667" viewBox="0,0,108.33333,128.66667"><g transform="translate(-183.37507,-110.23156)"><g data-paper-data="{&quot;isPaintingLayer&quot;:true}" fill-rule="nonzero" stroke="none" stroke-width="0" stroke-linecap="butt" stroke-linejoin="miter" stroke-miterlimit="10" stroke-dasharray="" stroke-dashoffset="0" style="mix-blend-mode: normal"><path d="M221.62308,180.00005c0,-10.14932 8.22765,-18.37697 18.37697,-18.37697c10.14932,0 18.37696,8.22765 18.37696,18.37697c0,10.14932 -8.22764,18.37697 -18.37696,18.37697c-10.14932,0 -18.37697,-8.22765 -18.37697,-18.37697z" data-paper-data="{&quot;origPos&quot;:null}" fill="#ff4242"/><path d="M285.54174,172.65748c0,-22.96584 -17.72206,-41.58333 -39.58333,-41.58333c-21.86127,0 -39.58333,18.61749 -39.58333,41.58333c0,22.96584 17.72206,41.58333 39.58333,41.58333c21.86127,0 39.58333,-18.61749 39.58333,-41.58333z" fill="none"/><path d="M280.2084,163.40748c0,-27.89038 -16.15506,-50.5 -36.08333,-50.5c-19.92827,0 -36.08333,22.60962 -36.08333,50.5c0,27.89038 16.15506,50.5 36.08333,50.5c19.92827,0 36.08333,-22.60962 36.08333,-50.5z" fill="none"/><path d="M183.37507,168.56489c0,-32.21661 23.95277,-58.33333 53.5,-58.33333c29.54723,0 53.5,26.11672 53.5,58.33333c0,32.21661 -23.95277,58.33333 -53.5,58.33333c-29.54723,0 -53.5,-26.11672 -53.5,-58.33333z" fill="none"/><path d="M187.04174,183.56489c0,-30.55976 23.43043,-55.33333 52.33333,-55.33333c28.9029,0 52.33333,24.77358 52.33333,55.33333c0,30.55976 -23.43043,55.33333 -52.33333,55.33333c-28.9029,0 -52.33333,-24.77358 -52.33333,-55.33333z" fill="none"/></g></g></svg>