<svg version="1.1" xmlns="http://www.w3.org/2000/svg" xmlns:xlink="http://www.w3.org/1999/xlink" width="126" height="38" viewBox="0,0,126,38"><defs><radialGradient cx="212.75" cy="171.19444" r="11.83333" gradientUnits="userSpaceOnUse" id="color-1"><stop offset="0" stop-color="#bababa"/><stop offset="1" stop-color="#bababa" stop-opacity="0"/></radialGradient><radialGradient cx="237.34809" cy="174.55222" r="19.83275" gradientUnits="userSpaceOnUse" id="color-2"><stop offset="0" stop-color="#894c4c"/><stop offset="1" stop-color="#7d4c89"/></radialGradient></defs><g transform="translate(-177,-152)"><g data-paper-data="{&quot;isPaintingLayer&quot;:true}" fill-rule="nonzero" stroke="none" stroke-linejoin="miter" stroke-miterlimit="10" stroke-dasharray="" stroke-dashoffset="0" style="mix-blend-mode: normal"><path d="M177,190v-38h126v38z" fill="#f4f4f4" stroke-width="0" stroke-linecap="butt"/><path d="M208.5,174.44444c0,-1.38071 1.11929,-2.5 2.5,-2.5c1.38071,0 2.5,1.11929 2.5,2.5c0,1.38071 -1.11929,2.5 -2.5,2.5c-1.38071,0 -2.5,-1.11929 -2.5,-2.5z" fill="#f4f4f4" stroke-width="0.5" stroke-linecap="butt"/><path d="M200.91667,171.19444c0,-6.53537 5.29797,-11.83333 11.83333,-11.83333c6.53537,0 11.83333,5.29797 11.83333,11.83333c0,6.53537 -5.29797,11.83333 -11.83333,11.83333c-6.53537,0 -11.83333,-5.29798 -11.83333,-11.83333z" fill="url(#color-1)" stroke-width="0.5" stroke-linecap="butt"/><path d="M205.66667,171.44444c0,-4.05009 3.28325,-7.33333 7.33333,-7.33333c4.05009,0 7.33333,3.28325 7.33333,7.33333c0,4.05009 -3.28325,7.33333 -7.33333,7.33333c-4.05009,0 -7.33333,-3.28325 -7.33333,-7.33333z" fill="#f4f4f4" stroke-width="0.5" stroke-linecap="butt"/><path d="M235.29082,171.93875l-3.97148,-6.15347c-0.6475,-0.99785 -0.97124,-1.69192 -0.97124,-2.0822c0,-0.39028 0.15079,-0.72289 0.45236,-0.99785c0.30158,-0.27497 0.66303,-0.41244 1.08434,-0.41244c0.40801,0 0.72511,0.11531 0.95129,0.34592c0.23062,0.23062 0.59871,0.75172 1.10429,1.56331l3.0335,4.92942l3.07341,-4.92942c0.53219,-0.87368 0.91803,-1.41031 1.15751,-1.60988c0.23949,-0.19957 0.54771,-0.29936 0.92468,-0.29936c0.39914,0 0.74063,0.13748 1.02447,0.41244c0.28383,0.27497 0.42575,0.60093 0.42575,0.9779c0,0.3681 -0.3171,1.03999 -0.95129,2.01567l-4.06461,6.23994v4.43714c0,0.71403 -0.03105,1.23291 -0.09314,1.55666c-0.05765,0.31931 -0.23061,0.59428 -0.51888,0.8249c-0.28827,0.23062 -0.62754,0.34592 -1.01782,0.34592c-0.37697,0 -0.71181,-0.11087 -1.00451,-0.33262c-0.29271,-0.22174 -0.47232,-0.49228 -0.53884,-0.81159c-0.06652,-0.32375 -0.09979,-0.85151 -0.09979,-1.58328zM250.91147,166.79645c1.87597,0 3.35058,0.57876 4.42384,1.73627c1.07769,1.15308 1.61653,2.62547 1.61653,4.41718c0,1.79614 -0.5455,3.27076 -1.63649,4.42385c-1.08656,1.15308 -2.52791,1.72962 -4.32405,1.72962c-1.95137,0 -3.45925,-0.5832 -4.52363,-1.74959c-1.05995,-1.17083 -1.58992,-2.63878 -1.58992,-4.40389c0,-1.79614 0.53663,-3.27076 1.60988,-4.42383c1.07769,-1.15308 2.5523,-1.72962 4.42384,-1.72962zM250.91147,176.84821c0.91803,0 1.64314,-0.3437 2.17533,-1.03112c0.53663,-0.69185 0.80494,-1.64758 0.80494,-2.86719c0,-1.22848 -0.26832,-2.18864 -0.80494,-2.88049c-0.53219,-0.69185 -1.2573,-1.03777 -2.17533,-1.03777c-0.90029,0 -1.62097,0.34814 -2.16203,1.04443c-0.54106,0.69628 -0.81159,1.65423 -0.81159,2.87384c0,1.22404 0.26832,2.17977 0.80494,2.86719c0.53662,0.68741 1.25952,1.03112 2.16868,1.03112zM259.25001,174.59971v-5.30861c0,-0.66081 0.0244,-1.13534 0.07318,-1.42361c0.05322,-0.29271 0.21065,-0.54328 0.47232,-0.75172c0.26166,-0.21287 0.57876,-0.31932 0.95129,-0.31932c0.3548,0 0.66524,0.09979 0.93133,0.29936c0.27053,0.19957 0.43683,0.46123 0.49893,0.78498c0.06652,0.32375 0.09979,0.81602 0.09979,1.47683v4.15775c0,1.36596 0.21066,2.24185 0.63197,2.62769c0.42575,0.38141 0.89364,0.5721 1.40366,0.5721c0.58541,0 1.09765,-0.1641 1.5367,-0.49228c0.43905,-0.32818 0.73842,-0.72289 0.89808,-1.18412c0.15966,-0.46123 0.23949,-1.37261 0.23949,-2.73414v-3.01353c0,-0.64306 0.03104,-1.1176 0.09314,-1.42361c0.06209,-0.30601 0.22618,-0.56102 0.49228,-0.76502c0.26609,-0.204 0.58097,-0.30601 0.94464,-0.30601c0.34593,0 0.65416,0.09979 0.92468,0.29936c0.27053,0.19957 0.4324,0.45013 0.48562,0.75171c0.05765,0.29715 0.08648,0.77833 0.08648,1.44357v7.47064c0,0.61202 -0.03104,1.05552 -0.09314,1.33048c-0.05765,0.27497 -0.204,0.51224 -0.43905,0.71181c-0.23062,0.19957 -0.52332,0.29936 -0.87812,0.29936c-0.97568,0 -1.44357,-0.6985 -1.40366,-2.09551c-1.0156,1.39701 -2.35051,2.09551 -4.00474,2.09551c-1.09542,0 -2.02677,-0.32597 -2.79401,-0.9779c-0.76724,-0.65637 -1.15086,-1.83164 -1.15086,-3.52578z" fill="url(#color-2)" stroke-width="1" stroke-linecap="square"/></g></g></svg>