<svg version="1.1" xmlns="http://www.w3.org/2000/svg" xmlns:xlink="http://www.w3.org/1999/xlink" width="126" height="38" viewBox="0,0,126,38"><defs><radialGradient cx="212.75" cy="171.19444" r="11.83333" gradientUnits="userSpaceOnUse" id="color-1"><stop offset="0" stop-color="#b9a3a3"/><stop offset="1" stop-color="#b9a3a3" stop-opacity="0"/></radialGradient></defs><g transform="translate(-177,-152)"><g data-paper-data="{&quot;isPaintingLayer&quot;:true}" fill-rule="nonzero" stroke="none" stroke-linejoin="miter" stroke-miterlimit="10" stroke-dasharray="" stroke-dashoffset="0" style="mix-blend-mode: normal"><path d="M177,190v-38h126v38z" fill="#f4f4f4" stroke-width="0" stroke-linecap="butt"/><path d="M208.5,174.44444c0,-1.38071 1.11929,-2.5 2.5,-2.5c1.38071,0 2.5,1.11929 2.5,2.5c0,1.38071 -1.11929,2.5 -2.5,2.5c-1.38071,0 -2.5,-1.11929 -2.5,-2.5z" fill="#f4f4f4" stroke-width="0.5" stroke-linecap="butt"/><path d="M200.91667,171.19444c0,-6.53537 5.29797,-11.83333 11.83333,-11.83333c6.53537,0 11.83333,5.29797 11.83333,11.83333c0,6.53537 -5.29797,11.83333 -11.83333,11.83333c-6.53537,0 -11.83333,-5.29798 -11.83333,-11.83333z" fill="url(#color-1)" stroke-width="0.5" stroke-linecap="butt"/><path d="M205.66667,171.44444c0,-4.05009 3.28325,-7.33333 7.33333,-7.33333c4.05009,0 7.33333,3.28325 7.33333,7.33333c0,4.05009 -3.28325,7.33333 -7.33333,7.33333c-4.05009,0 -7.33333,-3.28325 -7.33333,-7.33333z" fill="#c06969" stroke-width="0.5" stroke-linecap="butt"/><path d="M245.41625,175.55574h-6.95152l-0.8075,2.15567c-0.33236,0.88006 -0.61323,1.4652 -0.84261,1.75543c-0.2247,0.29023 -0.58983,0.43535 -1.09539,0.43535c-0.46811,0 -0.86367,-0.1615 -1.18667,-0.4845c-0.31832,-0.32768 -0.47748,-0.67877 -0.47748,-1.05326c0,-0.3979 0.15916,-0.99709 0.47748,-1.79756l4.41667,-11.14349c0.38854,-1.00645 0.67409,-1.68522 0.85665,-2.0363c0.18257,-0.35109 0.46343,-0.64366 0.84261,-0.87772c0.37917,-0.23406 0.80282,-0.35109 1.27093,-0.35109c0.55238,0 1.03688,0.14746 1.4535,0.44237c0.4213,0.29023 0.75133,0.73728 0.99006,1.34115l5.07671,12.52677c0.33704,0.85197 0.50556,1.4652 0.50556,1.83969c0,0.38854 -0.1615,0.75133 -0.4845,1.08837c-0.323,0.33704 -0.72792,0.50556 -1.21476,0.50556c-0.51493,0 -0.88474,-0.14512 -1.10943,-0.43535c-0.2247,-0.29491 -0.51727,-0.89644 -0.87772,-1.80459zM239.3565,172.88046h5.14693l-2.60506,-7.05684zM256.08761,165.03719v11.9861c0,0.7958 -0.03043,1.35285 -0.09128,1.67117c-0.05617,0.31832 -0.23172,0.59919 -0.52663,0.84261c-0.29491,0.24342 -0.65302,0.36513 -1.07433,0.36513c-0.4213,0 -0.79111,-0.12171 -1.10943,-0.36513c-0.31364,-0.2481 -0.50088,-0.53599 -0.56174,-0.86367c-0.05617,-0.32768 -0.08426,-0.87772 -0.08426,-1.65011v-11.9861c0,-0.78643 0.02809,-1.33413 0.08426,-1.64309c0.06085,-0.30896 0.24342,-0.59217 0.5477,-0.84963c0.30896,-0.25746 0.67175,-0.3862 1.08837,-0.3862c0.40258,0 0.76069,0.11937 1.07433,0.35811c0.31364,0.23874 0.50088,0.52195 0.56174,0.84963c0.06085,0.32768 0.09128,0.88474 0.09128,1.67117z" fill="#894c4c" stroke-width="1" stroke-linecap="square"/></g></g></svg>