<svg version="1.1" xmlns="http://www.w3.org/2000/svg" xmlns:xlink="http://www.w3.org/1999/xlink" width="397.5072" height="288.55706" viewBox="0,0,397.5072,288.55706"><g transform="translate(-41.24641,-35.72148)"><g data-paper-data="{&quot;isPaintingLayer&quot;:true}" fill-rule="evenodd" stroke="none" stroke-width="0" stroke-miterlimit="10" stroke-dasharray="" stroke-dashoffset="0" style="mix-blend-mode: normal"><path d="M274.40441,36.21652c1.48508,-0.99006 3.96022,-0.49503 4.45525,1.48508l12.87072,52.96796c0,0 31.68177,23.2663 41.0873,39.60221c15.84088,27.22652 16.33591,49.50277 16.33591,49.50277c0,0 35.14696,10.39558 41.0873,38.61216c5.94033,28.21658 -15.84088,81.67956 -108.90608,99.99559c-93.0652,18.31602 -167.81438,-6.93039 -202.96134,-63.36354c-35.14696,-56.43315 20.29613,-123.75691 17.32597,-119.79669l-10.39558,-88.60995c-0.49503,-1.98011 1.98011,-3.46519 3.96022,-2.47514l59.89835,39.10718c0,0 22.27624,-8.41547 45.54254,-9.40553c13.86077,-0.99006 25.74144,0 37.12707,1.98011z" fill="#ffab19" stroke-linecap="butt" stroke-linejoin="miter"/><path d="M347.66851,181.75465c0,0 34.15691,8.9105 40.09724,37.12707c5.94033,28.21658 -17.821,79.20442 -109.89614,97.02542c-119.79669,24.75138 -176.72487,-46.5326 -143.55802,-99.00553c33.16685,-52.96796 90.09503,-7.92044 131.67736,-10.89061c35.64199,-2.47514 39.60221,-33.66188 81.67956,-24.25636z" fill="#ffffff" stroke-linecap="butt" stroke-linejoin="miter"/><path d="M191.73481,234.72261c0,-1.98011 1.98011,-3.46519 3.96022,-2.97017c9.40553,3.46519 36.13702,11.38564 65.83868,13.36575c26.73149,1.48508 42.57238,0 49.99779,-1.48508c2.47514,-0.49503 4.45525,1.98011 3.46519,4.45525c-4.45525,13.36575 -23.2663,50.49282 -75.2442,47.52265c-45.04752,-4.95028 -49.50277,-36.63205 -48.01768,-60.8884z" fill="#7f0000" stroke-linecap="round" stroke-linejoin="round"/><path d="M438.75361,187.19996c-23.2663,18.81105 -58.90829,19.30608 -58.90829,19.30608" fill="none" stroke-linecap="round" stroke-linejoin="round"/><path d="M264.00883,193.14029c10.39558,0 21.28619,0.99006 21.78122,4.45525c0.49503,6.93039 -6.93039,20.79116 -14.85083,21.28619c-8.9105,0.99006 -29.70166,-11.38564 -29.70166,-19.30608c-0.49503,-5.94033 12.87072,-6.43536 22.77127,-6.43536z" fill="#001026" stroke-linecap="round" stroke-linejoin="round"/><path d="M41.24641,185.71488c0,0 42.57238,13.86077 59.89835,29.20663" fill="none" stroke-linecap="round" stroke-linejoin="round"/><g><path d="M322.42211,135.22205c14.3558,22.27624 14.85083,47.52265 0.99006,56.43315c-13.86077,8.9105 -36.63205,-1.48508 -51.48288,-23.76133c-14.3558,-22.27624 -14.85083,-47.52265 -0.99006,-56.43315c13.86077,-9.40553 37.12707,1.48508 51.48288,23.76133z" fill="#ffffff" stroke-linecap="round" stroke-linejoin="round"/><path d="M320.44197,163.43863c0,5.4453 -3.96022,9.90055 -8.9105,9.90055c-4.95028,0 -8.9105,-4.45525 -8.9105,-9.90055c0,-5.4453 3.96022,-9.90055 8.9105,-9.90055c4.95028,0 8.9105,4.45525 8.9105,9.90055" fill="#001026" stroke-linecap="butt" stroke-linejoin="miter"/></g><g><path d="M199.65526,149.08283c14.85083,21.78122 13.86077,48.51271 0.49503,57.91824c-16.33591,9.40553 -38.11713,2.47514 -52.96796,-19.30608c-15.34586,-21.78122 -16.33591,-49.99779 -0.99006,-60.8884c15.34586,-11.38564 38.61216,0.49503 53.46299,22.27624z" fill="#ffffff" stroke-linecap="round" stroke-linejoin="round"/><path d="M196.68509,177.79443c0,5.4453 -3.96022,9.90055 -8.9105,9.90055c-4.95028,0 -8.9105,-4.45525 -8.9105,-9.90055c0,-5.4453 3.96022,-9.90055 8.9105,-9.90055c4.95028,0.49503 8.9105,4.45525 8.9105,9.90055" fill="#001026" stroke-linecap="butt" stroke-linejoin="miter"/></g></g></g></svg>