<svg version="1.1" xmlns="http://www.w3.org/2000/svg" xmlns:xlink="http://www.w3.org/1999/xlink" width="104.66668" height="110.66668" viewBox="0,0,104.66668,110.66668"><defs><linearGradient x1="240.00005" y1="161.62308" x2="240.00005" y2="198.37702" gradientUnits="userSpaceOnUse" id="color-1"><stop offset="0" stop-color="#ffca43"/><stop offset="1" stop-color="#ffc01f"/></linearGradient></defs><g transform="translate(-187.04174,-128.23155)"><g data-paper-data="{&quot;isPaintingLayer&quot;:true}" fill-rule="nonzero" stroke="none" stroke-width="0" stroke-linecap="butt" stroke-linejoin="miter" stroke-miterlimit="10" stroke-dasharray="" stroke-dashoffset="0" style="mix-blend-mode: normal"><path d="M221.62308,180.00005c0,-10.14932 8.22765,-18.37697 18.37697,-18.37697c10.14932,0 18.37696,8.22765 18.37696,18.37697c0,10.14932 -8.22764,18.37697 -18.37696,18.37697c-10.14932,0 -18.37697,-8.22765 -18.37697,-18.37697z" data-paper-data="{&quot;origPos&quot;:null}" fill="url(#color-1)"/><path d="M187.04175,183.56489c0,-30.55975 23.43044,-55.33334 52.33334,-55.33334c28.9029,0 52.33334,24.77358 52.33334,55.33334c0,30.55975 -23.43044,55.33334 -52.33334,55.33334c-28.9029,0 -52.33334,-24.77358 -52.33334,-55.33334z" fill="none"/></g></g></svg>