<svg width="480px" height="360px" xmlns="http://www.w3.org/2000/svg"><path fill="#F00" d="M246.896 180.294L246.896 180.294Q245.620 180.294 244.528 179.865Q243.436 179.436 242.626 178.626Q241.816 177.816 241.350 176.626Q240.883 175.436 240.883 173.914L240.883 173.914Q240.883 172.393 241.399 171.202Q241.914 170.012 242.785 169.202Q243.656 168.393 244.810 167.963Q245.963 167.534 247.215 167.534L247.215 167.534Q248.344 167.534 249.215 167.902Q250.086 168.270 250.773 168.834L250.773 168.834L249.080 171.166Q248.221 170.454 247.436 170.454L247.436 170.454Q246.110 170.454 245.350 171.387Q244.589 172.319 244.589 173.914L244.589 173.914Q244.589 175.509 245.362 176.442Q246.135 177.374 247.313 177.374L247.313 177.374Q247.902 177.374 248.454 177.117Q249.006 176.859 249.497 176.491L249.497 176.491L250.920 178.847Q250.012 179.632 248.957 179.963Q247.902 180.294 246.896 180.294Z"/></svg>