<svg width="480px" height="360px" xmlns="http://www.w3.org/2000/svg"><path fill="#F00" d="M241.280 173.160L241.280 173.160Q241.280 168.443 243.114 166.107Q244.947 163.770 248.536 163.770L248.536 163.770Q249.773 163.770 250.484 163.978L250.484 163.978L250.484 165.543Q249.642 165.269 248.558 165.269L248.558 165.269Q245.986 165.269 244.629 166.873Q243.272 168.476 243.141 171.912L243.141 171.912L243.272 171.912Q244.476 170.030 247.081 170.030L247.081 170.030Q249.237 170.030 250.479 171.332Q251.721 172.635 251.721 174.867L251.721 174.867Q251.721 177.363 250.358 178.791Q248.996 180.219 246.676 180.219L246.676 180.219Q244.192 180.219 242.736 178.353Q241.280 176.487 241.280 173.160ZM246.654 178.676L246.654 178.676Q248.208 178.676 249.067 177.696Q249.926 176.717 249.926 174.867L249.926 174.867Q249.926 173.280 249.127 172.372Q248.328 171.464 246.741 171.464L246.741 171.464Q245.756 171.464 244.936 171.869Q244.115 172.274 243.628 172.985Q243.141 173.696 243.141 174.462L243.141 174.462Q243.141 175.590 243.579 176.564Q244.016 177.538 244.821 178.107Q245.625 178.676 246.654 178.676Z"/></svg>