<svg width="480px" height="360px" xmlns="http://www.w3.org/2000/svg"><path fill="#F00" d="M244.878 180.293L244.878 180.293Q243.951 180.293 243.232 179.890Q242.512 179.488 242.024 178.780Q241.537 178.073 241.280 177.110Q241.024 176.146 241.024 175L241.024 175Q241.024 172.829 241.549 170.854Q242.073 168.878 242.951 167.390Q243.829 165.902 245 165.024Q246.171 164.146 247.463 164.146L247.463 164.146Q248.366 164.146 249.085 164.561Q249.805 164.976 250.280 165.683Q250.756 166.390 251.012 167.378Q251.268 168.366 251.268 169.488L251.268 169.488Q251.268 171.683 250.756 173.634Q250.244 175.585 249.366 177.073Q248.488 178.561 247.329 179.427Q246.171 180.293 244.878 180.293ZM244.976 178.805L244.976 178.805Q245.927 178.805 246.756 177.963Q247.585 177.122 248.207 175.768Q248.829 174.415 249.183 172.744Q249.537 171.073 249.537 169.415L249.537 169.415Q249.537 167.780 249 166.720Q248.463 165.659 247.341 165.659L247.341 165.659Q246.390 165.659 245.561 166.512Q244.732 167.366 244.110 168.720Q243.488 170.073 243.134 171.756Q242.780 173.439 242.780 175.073L242.780 175.073Q242.780 175.878 242.915 176.561Q243.049 177.244 243.317 177.744Q243.585 178.244 244 178.524Q244.415 178.805 244.976 178.805Z"/></svg>