<svg width="480px" height="360px" xmlns="http://www.w3.org/2000/svg"><path fill="#F00" d="M245.146 175.244L243.537 175.098Q243.585 174.073 243.976 173.280Q244.366 172.488 244.902 171.841Q245.439 171.195 246.049 170.646Q246.659 170.098 247.171 169.549Q247.683 169 248.024 168.402Q248.366 167.805 248.366 167.049L248.366 167.049Q248.366 166.024 247.805 165.476Q247.244 164.927 246.268 164.927L246.268 164.927Q245.561 164.927 244.902 165.268Q244.244 165.610 243.707 166.171L243.707 166.171L242.707 165.049Q243.415 164.317 244.402 163.841Q245.390 163.366 246.488 163.366L246.488 163.366Q248.195 163.366 249.195 164.256Q250.195 165.146 250.195 166.732L250.195 166.732Q250.195 167.732 249.841 168.488Q249.488 169.244 248.951 169.878Q248.415 170.512 247.780 171.085Q247.146 171.659 246.585 172.268Q246.024 172.878 245.622 173.598Q245.220 174.317 245.146 175.244L245.146 175.244ZM243.439 180.293L243.439 180.293Q242.902 180.293 242.598 179.951Q242.293 179.610 242.293 179.073L242.293 179.073Q242.293 178.439 242.756 177.902Q243.220 177.366 243.927 177.366L243.927 177.366Q244.463 177.366 244.756 177.720Q245.049 178.073 245.049 178.610L245.049 178.610Q245.049 179.244 244.598 179.768Q244.146 180.293 243.439 180.293Z"/></svg>