<svg width="480px" height="360px" xmlns="http://www.w3.org/2000/svg"><path fill="#F00" d="M244.805 180L242.561 180L241.707 168.146L243.561 168.146L243.951 175.122Q243.976 175.976 243.988 176.793Q244 177.610 244.024 178.439L244.024 178.439L244.122 178.439Q244.488 177.610 244.817 176.793Q245.146 175.976 245.537 175.122L245.537 175.122L248.659 168.146L250.488 168.146L250.902 175.122Q250.951 175.976 250.963 176.793Q250.976 177.610 251.024 178.439L251.024 178.439L251.122 178.439Q251.463 177.610 251.780 176.793Q252.098 175.976 252.488 175.122L252.488 175.122L255.585 168.146L257.341 168.146L251.951 180L249.634 180L249.293 173.512Q249.268 172.659 249.256 171.780Q249.244 170.902 249.220 170.024L249.220 170.024L249.122 170.024Q248.756 170.902 248.402 171.780Q248.049 172.659 247.683 173.512L247.683 173.512L244.805 180Z"/></svg>