<svg width="480px" height="360px" xmlns="http://www.w3.org/2000/svg"><path fill="#F00" d="M250.331 180L250.090 178.391L249.992 178.391Q248.733 180.219 246.227 180.219L246.227 180.219Q243.874 180.219 242.566 178.610Q241.259 177.001 241.259 174.036L241.259 174.036Q241.259 171.070 242.572 169.428Q243.885 167.787 246.227 167.787L246.227 167.787Q248.668 167.787 249.970 169.560L249.970 169.560L250.112 169.560L250.036 168.695L249.992 167.852L249.992 162.971L251.808 162.971L251.808 180L250.331 180ZM246.457 178.698L246.457 178.698Q248.317 178.698 249.155 177.685Q249.992 176.673 249.992 174.419L249.992 174.419L249.992 174.036Q249.992 171.486 249.144 170.397Q248.295 169.308 246.435 169.308L246.435 169.308Q244.837 169.308 243.989 170.550Q243.141 171.792 243.141 174.057L243.141 174.057Q243.141 176.356 243.984 177.527Q244.826 178.698 246.457 178.698Z"/></svg>