<svg width="480px" height="360px" xmlns="http://www.w3.org/2000/svg"><path fill="#F00" d="M248.564 180.294L248.564 180.294Q247.043 180.294 245.693 179.767Q244.344 179.239 243.325 178.209Q242.307 177.178 241.718 175.644Q241.129 174.110 241.129 172.098L241.129 172.098Q241.129 170.110 241.742 168.552Q242.356 166.994 243.387 165.914Q244.417 164.834 245.791 164.270Q247.166 163.706 248.687 163.706L248.687 163.706Q250.233 163.706 251.460 164.331Q252.687 164.957 253.497 165.791L253.497 165.791L251.583 168.098Q250.969 167.534 250.294 167.178Q249.620 166.822 248.761 166.822L248.761 166.822Q247.951 166.822 247.227 167.178Q246.503 167.534 245.975 168.196Q245.448 168.859 245.141 169.816Q244.834 170.773 244.834 171.975L244.834 171.975Q244.834 174.454 245.890 175.816Q246.945 177.178 248.712 177.178L248.712 177.178Q249.693 177.178 250.466 176.748Q251.239 176.319 251.828 175.681L251.828 175.681L253.742 177.939Q251.730 180.294 248.564 180.294Z"/></svg>