<svg width="480px" height="360px" xmlns="http://www.w3.org/2000/svg"><path fill="#F00" d="M251.228 175.743L251.228 175.743Q251.228 177.855 249.696 179.037Q248.164 180.219 245.538 180.219L245.538 180.219Q242.692 180.219 241.160 179.486L241.160 179.486L241.160 177.691Q242.145 178.107 243.305 178.347Q244.465 178.588 245.603 178.588L245.603 178.588Q247.464 178.588 248.405 177.882Q249.346 177.176 249.346 175.918L249.346 175.918Q249.346 175.086 249.012 174.555Q248.679 174.025 247.896 173.576Q247.114 173.127 245.516 172.558L245.516 172.558Q243.283 171.759 242.326 170.665Q241.368 169.570 241.368 167.808L241.368 167.808Q241.368 165.959 242.758 164.865Q244.148 163.770 246.435 163.770L246.435 163.770Q248.821 163.770 250.824 164.646L250.824 164.646L250.244 166.265Q248.263 165.434 246.391 165.434L246.391 165.434Q244.914 165.434 244.082 166.068Q243.250 166.703 243.250 167.830L243.250 167.830Q243.250 168.662 243.557 169.193Q243.863 169.724 244.591 170.167Q245.319 170.610 246.818 171.146L246.818 171.146Q249.335 172.044 250.282 173.073Q251.228 174.101 251.228 175.743Z"/></svg>