<svg width="480px" height="360px" xmlns="http://www.w3.org/2000/svg"><path fill="#F00" d="M243.681 172.344L243.681 172.344Q242.748 172.344 242.123 171.693Q241.497 171.043 241.497 170.086L241.497 170.086Q241.497 169.104 242.123 168.454Q242.748 167.804 243.681 167.804L243.681 167.804Q244.613 167.804 245.239 168.454Q245.865 169.104 245.865 170.086L245.865 170.086Q245.865 171.043 245.239 171.693Q244.613 172.344 243.681 172.344ZM241.865 184.761L241.865 184.761L241.129 182.847Q242.503 182.356 243.215 181.571Q243.926 180.785 243.902 179.853L243.902 179.853L243.706 179.853Q242.847 179.853 242.184 179.325Q241.521 178.798 241.521 177.816L241.521 177.816Q241.521 176.883 242.184 176.319Q242.847 175.755 243.779 175.755L243.779 175.755Q245.006 175.755 245.644 176.650Q246.282 177.546 246.282 179.166L246.282 179.166Q246.282 181.202 245.153 182.663Q244.025 184.123 241.865 184.761Z"/></svg>