<svg width="480px" height="360px" xmlns="http://www.w3.org/2000/svg"><path fill="#F00" d="M247.244 180.293L247.244 180.293Q246.415 180.293 245.524 179.890Q244.634 179.488 243.854 178.780L243.854 178.780L243.780 178.780L243.610 180L242 180L242 162.634L244 162.634L244 167.366L243.951 169.512Q244.756 168.805 245.707 168.329Q246.659 167.854 247.659 167.854L247.659 167.854Q248.805 167.854 249.683 168.280Q250.561 168.707 251.159 169.500Q251.756 170.293 252.061 171.402Q252.366 172.512 252.366 173.878L252.366 173.878Q252.366 175.390 251.951 176.585Q251.537 177.780 250.829 178.610Q250.122 179.439 249.195 179.866Q248.268 180.293 247.244 180.293ZM246.902 178.610L246.902 178.610Q247.634 178.610 248.256 178.280Q248.878 177.951 249.329 177.354Q249.780 176.756 250.037 175.878Q250.293 175 250.293 173.902L250.293 173.902Q250.293 172.927 250.122 172.122Q249.951 171.317 249.573 170.744Q249.195 170.171 248.598 169.854Q248 169.537 247.171 169.537L247.171 169.537Q245.732 169.537 244 171.146L244 171.146L244 177.366Q244.780 178.049 245.549 178.329Q246.317 178.610 246.902 178.610Z"/></svg>