<svg width="480px" height="360px" xmlns="http://www.w3.org/2000/svg"><path fill="#F00" d="M245.732 172.439L245.732 172.439Q246.512 172.439 247.378 171.951Q248.244 171.463 249 170.366L249 170.366Q248.805 168.073 247.927 166.902Q247.049 165.732 245.561 165.732L245.561 165.732Q245 165.732 244.500 165.976Q244 166.220 243.634 166.671Q243.268 167.122 243.061 167.756Q242.854 168.390 242.854 169.146L242.854 169.146Q242.854 170.683 243.561 171.561Q244.268 172.439 245.732 172.439ZM245 180.293L245 180.293Q243.756 180.293 242.817 179.829Q241.878 179.366 241.244 178.659L241.244 178.659L242.366 177.390Q242.854 177.951 243.524 178.293Q244.195 178.634 244.927 178.634L244.927 178.634Q245.756 178.634 246.488 178.293Q247.220 177.951 247.780 177.159Q248.341 176.366 248.683 175.098Q249.024 173.829 249.049 171.951L249.049 171.951Q248.317 172.878 247.341 173.415Q246.366 173.951 245.390 173.951L245.390 173.951Q243.366 173.951 242.171 172.756Q240.976 171.561 240.976 169.146L240.976 169.146Q240.976 168.024 241.341 167.110Q241.707 166.195 242.329 165.537Q242.951 164.878 243.793 164.512Q244.634 164.146 245.561 164.146L245.561 164.146Q246.707 164.146 247.695 164.610Q248.683 165.073 249.402 166.012Q250.122 166.951 250.524 168.354Q250.927 169.756 250.927 171.634L250.927 171.634Q250.927 173.976 250.439 175.622Q249.951 177.268 249.122 178.305Q248.293 179.341 247.232 179.817Q246.171 180.293 245 180.293Z"/></svg>