<svg version="1.1" xmlns="http://www.w3.org/2000/svg" xmlns:xlink="http://www.w3.org/1999/xlink" width="253.14904" height="178.90404" viewBox="0,0,253.14904,178.90404"><defs><linearGradient x1="116.86833" y1="155.93634" x2="65.73281" y2="155.93634" gradientUnits="userSpaceOnUse" id="color-1"><stop offset="0" stop-color="#02ca41" stop-opacity="0"/><stop offset="1" stop-color="#02ca41"/></linearGradient></defs><g transform="translate(-22.06916,-40.73401)"><g data-paper-data="{&quot;isPaintingLayer&quot;:true}" stroke-miterlimit="10" stroke-dasharray="" stroke-dashoffset="0" style="mix-blend-mode: normal"><path d="M167.05991,177.77776l-144.0884,0.60702l0.61471,-49.52456l77.96199,-0.42893l46.26668,-46.38059l0.19958,-39.95629l61.52642,-1.36039l63.0422,64.03842l0.55595,109.11644l-61.25482,-2.03572l-1.56094,-78.61126l-41.28661,-0.28495z" fill="#04b33b" fill-rule="nonzero" stroke="none" stroke-width="0" stroke-linecap="butt" stroke-linejoin="miter"/><path d="M65.73281,134.57279h37.25758v42.72703h-37.25758z" data-paper-data="{&quot;index&quot;:null}" fill="url(#color-1)" fill-rule="nonzero" stroke="none" stroke-width="0" stroke-linecap="butt" stroke-linejoin="miter"/><g data-paper-data="{&quot;index&quot;:null}" fill-rule="nonzero" stroke-linejoin="miter"><g fill="none" stroke="#51da7c" stroke-width="2" stroke-linecap="round"><path d="M82.2584,152.19803l4.90079,3.61166" data-paper-data="{&quot;index&quot;:null}"/><path d="M87.18084,155.85197l-4.82178,3.78576" data-paper-data="{&quot;index&quot;:null}"/><path d="M82.28436,159.56601l-0.1155,-7.37379" data-paper-data="{&quot;index&quot;:null}"/></g><path d="M82.13246,152.68613l4.73069,3.18132l-4.94941,2.96794z" fill="#51da7c" stroke="none" stroke-width="0" stroke-linecap="butt"/></g><path d="M209.29905,215.06192h65.91915v4.51853l-65.90033,0.05761z" data-paper-data="{&quot;index&quot;:null}" fill="#000000" fill-rule="evenodd" stroke="none" stroke-width="1" stroke-linecap="round" stroke-linejoin="round" opacity="0.21849"/><path d="M168.59269,133.91232h45.42054v4.51853l-45.40757,0.05761z" data-paper-data="{&quot;index&quot;:null}" fill="#000000" fill-rule="evenodd" stroke="none" stroke-width="1" stroke-linecap="round" stroke-linejoin="round" opacity="0.21849"/><path d="M22.06916,179.63255h148.74462v4.51853l-148.70216,0.05761z" data-paper-data="{&quot;index&quot;:null}" fill="#000000" fill-rule="evenodd" stroke="none" stroke-width="1" stroke-linecap="round" stroke-linejoin="round" opacity="0.21849"/><path d="M26.79215,130.29931h76.44546v4.51853l-76.42364,0.05761z" data-paper-data="{&quot;index&quot;:null}" fill="#000000" fill-rule="evenodd" stroke="none" stroke-width="1" stroke-linecap="round" stroke-linejoin="round" opacity="0.21849"/><path d="M150.29794,83.44957l-0.04418,5.08181l-47.06598,47.01445l-0.16449,-4.61879z" data-paper-data="{&quot;index&quot;:null}" fill="#000000" fill-rule="evenodd" stroke="none" stroke-width="1" stroke-linecap="round" stroke-linejoin="round" opacity="0.21849"/><path d="M270.92086,107.30124l-1.21031,3.64669l-63.11337,-62.79987l-0.14453,-4.82153z" data-paper-data="{&quot;index&quot;:null}" fill="#000000" fill-rule="evenodd" stroke="none" stroke-width="1" stroke-linecap="round" stroke-linejoin="round" opacity="0.21849"/><path d="M148.37785,42.89304h58.40743v4.51853l-58.39076,0.05761z" data-paper-data="{&quot;index&quot;:null}" fill="#000000" fill-rule="evenodd" stroke="none" stroke-width="1" stroke-linecap="round" stroke-linejoin="round" opacity="0.21849"/></g></g></svg>