<svg width="480px" height="360px" xmlns="http://www.w3.org/2000/svg"><path fill="#F00" d="M247.779 180L243.313 180L240.344 164L244.049 164L245.153 171.485Q245.301 172.736 245.472 174Q245.644 175.264 245.791 176.540L245.791 176.540L245.890 176.540Q246.135 175.264 246.368 174Q246.601 172.736 246.847 171.485L246.847 171.485L248.564 164L251.632 164L253.350 171.485Q253.595 172.712 253.828 173.975Q254.061 175.239 254.307 176.540L254.307 176.540L254.405 176.540Q254.577 175.239 254.736 173.988Q254.896 172.736 255.067 171.485L255.067 171.485L256.172 164L259.632 164L256.785 180L252.245 180L250.675 172.736Q250.479 171.804 250.319 170.859Q250.160 169.914 250.037 169.031L250.037 169.031L249.939 169.031Q249.791 169.914 249.632 170.859Q249.472 171.804 249.276 172.736L249.276 172.736L247.779 180Z"/></svg>