<svg width="480px" height="360px" xmlns="http://www.w3.org/2000/svg"><path fill="#F00" d="M247.508 167.808L247.508 167.808Q249.871 167.808 251.179 169.423Q252.487 171.037 252.487 173.992L252.487 173.992Q252.487 176.947 251.168 178.583Q249.850 180.219 247.508 180.219L247.508 180.219Q246.337 180.219 245.368 179.787Q244.399 179.354 243.743 178.457L243.743 178.457L243.611 178.457L243.228 180L241.926 180L241.926 162.971L243.743 162.971L243.743 167.108Q243.743 168.498 243.655 169.603L243.655 169.603L243.743 169.603Q245.012 167.808 247.508 167.808ZM247.245 169.330L247.245 169.330Q245.384 169.330 244.564 170.397Q243.743 171.464 243.743 173.992L243.743 173.992Q243.743 176.520 244.585 177.609Q245.428 178.698 247.289 178.698L247.289 178.698Q248.963 178.698 249.784 177.477Q250.605 176.257 250.605 173.970L250.605 173.970Q250.605 171.628 249.784 170.479Q248.963 169.330 247.245 169.330Z"/></svg>