<svg version="1.1" xmlns="http://www.w3.org/2000/svg" xmlns:xlink="http://www.w3.org/1999/xlink" width="13.40541" height="14.21622" viewBox="0,0,13.40541,14.21622"><g transform="translate(-232.79836,-173.24494)"><g data-paper-data="{&quot;isPaintingLayer&quot;:true}" stroke-miterlimit="10" stroke-dasharray="" stroke-dashoffset="0" style="mix-blend-mode: normal"><path d="M236.25266,181.56698c0,-1.91615 0.62889,-4.25933 3.49255,-4.35289c3.34531,-0.06193 4.06068,2.34473 4.06068,4.35289c0,2.00816 -1.69087,3.63613 -3.77661,3.63613c-2.08575,0 -3.77661,-1.62797 -3.77661,-3.63613z" fill="#000000" fill-rule="evenodd" stroke="none" stroke-width="1" stroke-linecap="round" stroke-linejoin="round" opacity="0.21849"/><path d="M243.37288,180.00001c0,1.8628 -1.51009,3.37287 -3.37287,3.37287c-1.8628,0 -3.37288,-1.51009 -3.37288,-3.37287c0,-1.8628 1.51009,-3.37288 3.37288,-3.37288c1.8628,0 3.37287,1.51009 3.37287,3.37288z" fill="#ffffff" fill-rule="nonzero" stroke="#d3d3d3" stroke-width="0.7" stroke-linecap="butt" stroke-linejoin="miter"/><path d="M232.79836,187.46116v-14.21622h13.40541v14.21622z" fill="none" fill-rule="nonzero" stroke="none" stroke-width="0" stroke-linecap="butt" stroke-linejoin="miter"/></g></g></svg>