<svg width="480px" height="360px" xmlns="http://www.w3.org/2000/svg"><path fill="#F00" d="M248.700 165.412L248.700 165.412Q245.209 165.412 244.345 169.822L244.345 169.822L249.926 169.822L249.926 171.234L244.192 171.234L244.170 171.858L244.170 172.558L244.192 173.051L249.259 173.051L249.259 174.462L244.367 174.462Q244.772 176.432 245.882 177.510Q246.993 178.588 248.854 178.588L248.854 178.588Q250.561 178.588 252.235 177.866L252.235 177.866L252.235 179.508Q250.637 180.219 248.766 180.219L248.766 180.219Q246.172 180.219 244.591 178.747Q243.010 177.275 242.506 174.462L242.506 174.462L240.689 174.462L240.689 173.051L242.353 173.051L242.331 172.591L242.331 172.109L242.353 171.234L240.689 171.234L240.689 169.822L242.484 169.822Q242.911 166.966 244.509 165.368Q246.107 163.770 248.700 163.770L248.700 163.770Q250.900 163.770 252.706 164.832L252.706 164.832L251.929 166.353Q250.112 165.412 248.700 165.412Z"/></svg>