<svg width="480px" height="360px" xmlns="http://www.w3.org/2000/svg"><path fill="#F00" d="M243.049 171.488L243.049 171.488Q242.439 171.488 242.012 171.061Q241.585 170.634 241.585 169.976L241.585 169.976Q241.585 169.268 242.012 168.841Q242.439 168.415 243.049 168.415L243.049 168.415Q243.634 168.415 244.061 168.841Q244.488 169.268 244.488 169.976L244.488 169.976Q244.488 170.634 244.061 171.061Q243.634 171.488 243.049 171.488ZM243.049 180.293L243.049 180.293Q242.439 180.293 242.012 179.866Q241.585 179.439 241.585 178.780L241.585 178.780Q241.585 178.073 242.012 177.646Q242.439 177.220 243.049 177.220L243.049 177.220Q243.634 177.220 244.061 177.646Q244.488 178.073 244.488 178.780L244.488 178.780Q244.488 179.439 244.061 179.866Q243.634 180.293 243.049 180.293Z"/></svg>