<svg width="480px" height="360px" xmlns="http://www.w3.org/2000/svg"><path fill="#F00" d="M243.122 169.659L241.585 169.659L241.854 168.268L243.439 168.146L243.829 166.171Q244.195 164.366 245.134 163.354Q246.073 162.341 247.585 162.341L247.585 162.341Q248.220 162.341 248.732 162.500Q249.244 162.659 249.683 162.927L249.683 162.927L249.024 164.268Q248.756 164.098 248.439 163.976Q248.122 163.854 247.707 163.854L247.707 163.854Q246.902 163.854 246.402 164.463Q245.902 165.073 245.707 166.122L245.707 166.122L245.293 168.146L247.683 168.146L247.390 169.659L244.976 169.659L242.902 180L241.049 180L243.122 169.659Z"/></svg>