<svg width="480px" height="360px" xmlns="http://www.w3.org/2000/svg"><path fill="#F00" d="M242.171 172.976L242.171 172.976L243.976 164L245.878 164L244.049 173.146Q243.829 174.244 243.829 175.073L243.829 175.073Q243.829 176.805 244.610 177.732Q245.390 178.659 247.073 178.659L247.073 178.659Q247.756 178.659 248.378 178.390Q249 178.122 249.537 177.537Q250.073 176.951 250.476 176.037Q250.878 175.122 251.146 173.805L251.146 173.805L253.122 164L254.976 164L252.976 173.878Q252.634 175.610 252.061 176.829Q251.488 178.049 250.707 178.817Q249.927 179.585 248.988 179.939Q248.049 180.293 246.976 180.293L246.976 180.293Q244.537 180.293 243.232 179.024Q241.927 177.756 241.927 175.244L241.927 175.244Q241.927 174.732 241.988 174.159Q242.049 173.585 242.171 172.976Z"/></svg>