<svg version="1.1" xmlns="http://www.w3.org/2000/svg" xmlns:xlink="http://www.w3.org/1999/xlink" width="188.04607" height="297.06655" viewBox="0,0,188.04607,297.06655"><g transform="translate(-203.46935,80.24861)"><g data-paper-data="{&quot;isPaintingLayer&quot;:true}" fill-rule="nonzero" stroke="none" stroke-width="0" stroke-linecap="butt" stroke-linejoin="miter" stroke-miterlimit="10" stroke-dasharray="" stroke-dashoffset="0" style="mix-blend-mode: normal"><path d="M203.46935,216.81794v-297.06655h188.04607v297.06655z" fill="none"/><path d="M266.62282,83.60106l5.5,-0.00227l0.01577,127.80774l-5.5,0.00227z" fill="#ffffff"/><path d="M211.5223,211.42335v-5.5h60.57943v5.5z" fill="#ffffff"/><path d="M211.59797,-27.5581l5.5,-0.00421l0.01578,237.89872l-5.5,0.00425z" fill="#ffffff"/><path d="M323.7995,26.10266l3.89011,3.88807l-57.31028,57.33259l-3.89011,-3.88806z" data-paper-data="{&quot;index&quot;:null}" fill="#ffffff"/><path d="M211.67359,-22.31984l-0.00083,-5.5l46.7454,-0.01578l0.00084,5.5z" fill="#ffffff"/><path d="M258.49379,-22.33255l-5.5,0.00091l-0.01578,-51.45233l5.5,-0.00092z" fill="#ffffff"/><path d="M253.02364,-69.3584l-0.00234,-5.5l131.99299,-0.01578l0.00235,5.5z" fill="#ffffff"/><path d="M385.61444,-23.34706l-5.5,0.00091l-0.01578,-51.45232l5.5,-0.00092z" fill="#ffffff"/><path d="M325.98095,-21.50384l-0.00105,-5.5l59.55869,-0.01578l0.00106,5.5z" fill="#ffffff"/><path d="M327.82287,29.73742l-5.5,0.001l-0.01578,-56.68224l5.5,-0.00101z" fill="#ffffff"/></g></g></svg>