<svg width="480px" height="360px" xmlns="http://www.w3.org/2000/svg"><path fill="#F00" d="M251.010 167.765L251.010 167.765Q251.010 169.297 250.150 170.271Q249.291 171.245 247.715 171.573L247.715 171.573L247.715 171.661Q249.642 171.902 250.572 172.886Q251.502 173.871 251.502 175.469L251.502 175.469Q251.502 177.756 249.915 178.988Q248.328 180.219 245.406 180.219L245.406 180.219Q244.137 180.219 243.081 180.027Q242.025 179.836 241.029 179.354L241.029 179.354L241.029 177.625Q242.068 178.140 243.245 178.408Q244.421 178.676 245.472 178.676L245.472 178.676Q249.620 178.676 249.620 175.425L249.620 175.425Q249.620 172.514 245.045 172.514L245.045 172.514L243.469 172.514L243.469 170.949L245.067 170.949Q246.938 170.949 248.033 170.123Q249.127 169.297 249.127 167.830L249.127 167.830Q249.127 166.659 248.323 165.992Q247.518 165.324 246.140 165.324L246.140 165.324Q245.089 165.324 244.159 165.609Q243.228 165.893 242.036 166.659L242.036 166.659L241.116 165.434Q242.101 164.657 243.387 164.213Q244.673 163.770 246.096 163.770L246.096 163.770Q248.427 163.770 249.718 164.837Q251.010 165.904 251.010 167.765Z"/></svg>