<svg width="480px" height="360px" xmlns="http://www.w3.org/2000/svg"><path fill="#F00" d="M244.220 180L242.195 180L242.195 164L247.195 164Q248.415 164 249.451 164.232Q250.488 164.463 251.232 165Q251.976 165.537 252.390 166.390Q252.805 167.244 252.805 168.488L252.805 168.488Q252.805 170.366 251.829 171.488Q250.854 172.610 249.195 173.024L249.195 173.024L253.268 180L250.976 180L247.122 173.244L244.220 173.244L244.220 180ZM244.220 165.634L244.220 171.585L246.902 171.585Q248.780 171.585 249.780 170.817Q250.780 170.049 250.780 168.488L250.780 168.488Q250.780 166.902 249.780 166.268Q248.780 165.634 246.902 165.634L246.902 165.634L244.220 165.634Z"/></svg>