<svg width="480px" height="360px" xmlns="http://www.w3.org/2000/svg"><path fill="#F00" d="M242.780 178.512L242.293 180L240.756 180L244.220 162.634L246.098 162.634L245.146 167.268L244.610 169.610L244.659 169.610Q245.537 168.902 246.561 168.378Q247.585 167.854 248.683 167.854L248.683 167.854Q250.244 167.854 251.171 168.951Q252.098 170.049 252.098 172.146L252.098 172.146Q252.098 173.854 251.561 175.341Q251.024 176.829 250.134 177.927Q249.244 179.024 248.085 179.659Q246.927 180.293 245.707 180.293L245.707 180.293Q244.756 180.293 244.012 179.805Q243.268 179.317 242.854 178.512L242.854 178.512L242.780 178.512ZM248 169.415L248 169.415Q247.171 169.415 246.183 169.927Q245.195 170.439 244.341 171.341L244.341 171.341L243.220 176.976Q243.707 177.902 244.317 178.317Q244.927 178.732 245.634 178.732L245.634 178.732Q246.512 178.732 247.341 178.207Q248.171 177.683 248.793 176.805Q249.415 175.927 249.793 174.793Q250.171 173.659 250.171 172.415L250.171 172.415Q250.171 170.902 249.598 170.159Q249.024 169.415 248 169.415Z"/></svg>