<svg width="480px" height="360px" xmlns="http://www.w3.org/2000/svg"><path fill="#F00" d="M246.993 180.219L246.993 180.219Q244.334 180.219 242.796 178.599Q241.259 176.979 241.259 174.101L241.259 174.101Q241.259 171.201 242.687 169.494Q244.115 167.787 246.523 167.787L246.523 167.787Q248.777 167.787 250.090 169.269Q251.404 170.752 251.404 173.182L251.404 173.182L251.404 174.331L243.141 174.331Q243.196 176.443 244.208 177.538Q245.220 178.632 247.059 178.632L247.059 178.632Q248.996 178.632 250.889 177.822L250.889 177.822L250.889 179.442Q249.926 179.858 249.067 180.038Q248.208 180.219 246.993 180.219ZM246.501 169.308L246.501 169.308Q245.056 169.308 244.197 170.249Q243.338 171.190 243.185 172.854L243.185 172.854L249.456 172.854Q249.456 171.135 248.689 170.222Q247.923 169.308 246.501 169.308Z"/></svg>