<svg width="480px" height="360px" xmlns="http://www.w3.org/2000/svg"><path fill="#F00" d="M245.634 180.293L245.634 180.293Q243.976 180.293 242.622 179.598Q241.268 178.902 240.293 177.463L240.293 177.463L241.683 176.415Q242.390 177.488 243.427 178.085Q244.463 178.683 245.805 178.683L245.805 178.683Q246.537 178.683 247.171 178.463Q247.805 178.244 248.256 177.854Q248.707 177.463 248.976 176.902Q249.244 176.341 249.244 175.659L249.244 175.659Q249.244 174.780 248.695 174.183Q248.146 173.585 247.244 173.024L247.244 173.024L245.390 171.902Q244.366 171.268 243.646 170.390Q242.927 169.512 242.927 168.146L242.927 168.146Q242.927 167.244 243.305 166.439Q243.683 165.634 244.341 165.024Q245 164.415 245.915 164.061Q246.829 163.707 247.902 163.707L247.902 163.707Q249.341 163.707 250.512 164.341Q251.683 164.976 252.439 165.951L252.439 165.951L251.195 167.073Q250.561 166.341 249.720 165.841Q248.878 165.341 247.756 165.341L247.756 165.341Q247.073 165.341 246.537 165.561Q246 165.780 245.622 166.146Q245.244 166.512 245.049 166.976Q244.854 167.439 244.854 167.927L244.854 167.927Q244.854 168.854 245.451 169.427Q246.049 170 246.927 170.537L246.927 170.537L248.780 171.634Q249.951 172.317 250.573 173.183Q251.195 174.049 251.195 175.390L251.195 175.390Q251.195 176.463 250.780 177.366Q250.366 178.268 249.634 178.915Q248.902 179.561 247.878 179.927Q246.854 180.293 245.634 180.293Z"/></svg>