<svg width="480px" height="360px" xmlns="http://www.w3.org/2000/svg"><path fill="#F00" d="M239.854 185.098L239.854 185.098Q239.585 185.098 239.207 185.024Q238.829 184.951 238.488 184.756L238.488 184.756L239.098 183.366Q239.537 183.585 239.976 183.585L239.976 183.585Q240.878 183.585 241.671 182.854Q242.463 182.122 243.073 180.878L243.073 180.878L243.512 180.024L241.488 168.146L243.341 168.146L244.268 174.805Q244.390 175.610 244.488 176.549Q244.585 177.488 244.659 178.341L244.659 178.341L244.756 178.341Q245.171 177.488 245.622 176.573Q246.073 175.659 246.512 174.805L246.512 174.805L249.927 168.146L251.780 168.146L244.805 181Q244.341 181.878 243.829 182.622Q243.317 183.366 242.720 183.915Q242.122 184.463 241.415 184.780Q240.707 185.098 239.854 185.098Z"/></svg>