<svg version="1.1" xmlns="http://www.w3.org/2000/svg" xmlns:xlink="http://www.w3.org/1999/xlink" width="76.15744" height="27.03088" viewBox="0,0,76.15744,27.03088"><g transform="translate(-201.92128,-166.48456)"><g data-paper-data="{&quot;isPaintingLayer&quot;:true}" stroke-miterlimit="10" stroke-dasharray="" stroke-dashoffset="0" style="mix-blend-mode: normal"><path d="M271.74052,175.73724h-63.69801" fill="none" fill-rule="nonzero" stroke="#ffc8c8" stroke-width="7.5" stroke-linecap="round" stroke-linejoin="miter"/><path d="M208.04617,185.85692h63.69802" fill="none" fill-rule="nonzero" stroke="#ffc8c8" stroke-width="7.5" stroke-linecap="round" stroke-linejoin="miter"/><path d="M204.25554,185.62712v-10.15996h71.29813v10.15996z" fill="#ffc8c8" fill-rule="nonzero" stroke="none" stroke-width="0" stroke-linecap="butt" stroke-linejoin="miter"/><path d="M201.92128,193.51544v-27.03088h76.15744v27.03088z" fill="none" fill-rule="nonzero" stroke="none" stroke-width="NaN" stroke-linecap="butt" stroke-linejoin="miter"/><g fill="#000000" fill-rule="evenodd" stroke="none" stroke-width="1" stroke-linecap="round" stroke-linejoin="round"><path d="M268.05617,176.64414v0c0.43587,0.42084 0.44801,1.11538 0.02717,1.55125l-7.46547,7.73051c-0.42083,0.43587 -1.11538,0.44801 -1.55124,0.02717v0c-0.43587,-0.42083 -0.44801,-1.11538 -0.02717,-1.55125l7.46546,-7.73051c0.42084,-0.43586 1.11539,-0.448 1.55125,-0.02717z"/><path d="M268.21572,185.79352v0c-0.42084,0.43587 -1.11538,0.44772 -1.55125,0.02688l-7.73051,-7.46517c-0.43586,-0.42084 -0.448,-1.11539 -0.02716,-1.55125v0c0.42112,-0.43587 1.11567,-0.448 1.55124,-0.02717l7.7308,7.46547c0.43586,0.42083 0.44801,1.11538 0.02688,1.55124z"/></g><g fill="#000000" fill-rule="evenodd" stroke="none" stroke-width="1" stroke-linecap="round" stroke-linejoin="round"><path d="M218.34072,178.47746c0,0.41662 -0.31942,0.69437 -0.94436,0.69437c-1.22211,0 -2.01368,0.94435 -2.11091,1.68039v3.5691c0,0.40274 -0.33331,0.73604 -0.73604,0.73604c-0.40274,0 -0.73604,-0.3333 -0.73604,-0.73604v-5.84666c0,-0.41662 0.3333,-0.74993 0.73604,-0.74993c0.40274,0 0.73604,0.3333 0.73604,0.74993v0.91658c0.06943,-0.48606 0.94435,-1.69427 2.30533,-1.69427c0.48606,0 0.74994,0.30552 0.74994,0.68049z"/><path d="M225.9789,181.24107c0,0.56939 -0.31942,0.79159 -0.91658,0.79159l-4.65234,-0.0139c0.15276,1.29154 1.16656,1.93037 2.27757,1.93037c0.56939,0 0.95823,-0.13887 1.38877,-0.40274c0.23608,-0.12499 0.38884,-0.22221 0.58328,-0.22221c0.31941,0 0.51383,0.2222 0.51383,0.52772c0,0.18055 -0.06943,0.37497 -0.37497,0.62494c-0.52772,0.43052 -1.29154,0.68049 -2.16645,0.68049c-1.80539,0 -3.73576,-1.15267 -3.73576,-3.66632c0,-2.49976 2.01369,-3.70797 3.59688,-3.70797c1.58317,0 3.48577,1.24988 3.48577,3.458zM220.40996,180.96333h4.13849c-0.12499,-1.31933 -1.12488,-1.90259 -2.05536,-1.90259c-0.91658,0 -1.95816,0.58328 -2.08313,1.90259z"/><path d="M227.67317,175.7694c0,-0.40274 0.3472,-0.73604 0.74994,-0.73604c0.40274,0 0.74993,0.3333 0.74993,0.73604c0,0.40274 -0.3472,0.73604 -0.74993,0.73604c-0.40274,0 -0.74994,-0.33331 -0.74994,-0.73604zM229.15913,178.57466v7.29097c0,1.41653 -0.83326,2.06924 -1.95816,2.06924c-0.38884,0 -0.74993,-0.06944 -1.08323,-0.23608c-0.24998,-0.13887 -0.55551,-0.37497 -0.55551,-0.74993c0,-0.41662 0.40275,-0.76382 0.84715,-0.62494c0.16665,0.06943 0.3333,0.20831 0.62494,0.20831c0.52772,0 0.65272,-0.48606 0.65272,-0.9999v-6.95767c0,-0.41662 0.3333,-0.74993 0.73604,-0.74993c0.40274,0 0.73604,0.3333 0.73604,0.74993z"/><path d="M237.64442,181.24107c0,0.56939 -0.31941,0.79159 -0.91658,0.79159l-4.65233,-0.0139c0.15276,1.29154 1.16656,1.93037 2.27757,1.93037c0.56939,0 0.95823,-0.13887 1.38876,-0.40274c0.23608,-0.12499 0.38884,-0.22221 0.58328,-0.22221c0.31941,0 0.51384,0.2222 0.51384,0.52772c0,0.18055 -0.06943,0.37497 -0.37497,0.62494c-0.52772,0.43052 -1.29154,0.68049 -2.16645,0.68049c-1.80539,0 -3.73576,-1.15267 -3.73576,-3.66632c0,-2.49976 2.01368,-3.70797 3.59688,-3.70797c1.58317,0 3.48577,1.24988 3.48577,3.458zM232.07551,180.96333h4.1385c-0.12499,-1.31933 -1.12489,-1.90259 -2.05536,-1.90259c-0.91658,0 -1.95815,0.58328 -2.08312,1.90259z"/><path d="M244.99094,183.54641c0,0.3333 -0.23608,0.51383 -0.38884,0.66661c-0.59716,0.62494 -1.37486,0.94436 -2.33311,0.94436c-1.65262,0 -3.65243,-1.20821 -3.65243,-3.68019c0,-2.48587 1.99981,-3.69408 3.65243,-3.69408c0.95823,0 1.73595,0.31942 2.33311,0.94436c0.15276,0.15276 0.38884,0.3333 0.38884,0.66661c0,0.34719 -0.29163,0.56939 -0.59716,0.56939c-0.27776,0 -0.48607,-0.15276 -0.59717,-0.26385c-0.37497,-0.4444 -0.95823,-0.63882 -1.47208,-0.63882c-1.16656,0 -2.24979,0.83325 -2.24979,2.41642c0,1.56929 1.08323,2.40255 2.24979,2.40255c0.51384,0 1.09711,-0.19444 1.47208,-0.63883c0.1111,-0.1111 0.31942,-0.26385 0.59717,-0.26385c0.30552,0 0.59716,0.2222 0.59716,0.56939z"/><path d="M250.03213,184.338c0,0.56939 -0.65272,0.81937 -1.43042,0.81937c-0.83325,0 -1.65263,-0.29163 -1.65263,-1.88871v-4.22183h-0.52772c-0.36108,0 -0.59716,-0.23607 -0.59716,-0.59716c0,-0.34719 0.23607,-0.58328 0.59716,-0.58328h0.52772v-1.08323c0,-0.38884 0.3333,-0.72215 0.72215,-0.72215c0.40274,0 0.73604,0.3333 0.73604,0.72215v1.08323h1.01379c0.36108,0 0.61105,0.23608 0.61105,0.58328c0,0.36108 -0.24998,0.59716 -0.61105,0.59716h-1.01379v4.23571c0,0.41662 0.16665,0.61105 0.48606,0.61105c0.18055,0 0.38884,-0.05555 0.54162,-0.06943c0.34719,-0.05555 0.59717,0.16666 0.59717,0.51383z"/></g></g></g></svg>