<svg width="480px" height="360px" xmlns="http://www.w3.org/2000/svg"><path fill="#F00" d="M244.074 180L240.344 180L244.074 173.669L240.564 167.828L244.442 167.828L245.521 169.791Q245.767 170.307 246.025 170.834Q246.282 171.362 246.552 171.877L246.552 171.877L246.650 171.877Q246.847 171.362 247.067 170.834Q247.288 170.307 247.485 169.791L247.485 169.791L248.319 167.828L252.049 167.828L248.515 174.086L252.270 180L248.393 180L247.215 177.988Q246.920 177.472 246.638 176.933Q246.356 176.393 246.061 175.877L246.061 175.877L245.963 175.877Q245.742 176.393 245.497 176.920Q245.252 177.448 245.031 177.988L245.031 177.988L244.074 180Z"/></svg>