<svg width="480px" height="360px" xmlns="http://www.w3.org/2000/svg"><path fill="#F00" d="M242.610 180L240.756 180L243.098 168.146L244.634 168.146L244.463 169.927L244.561 169.927Q245.488 169.049 246.512 168.451Q247.537 167.854 248.463 167.854L248.463 167.854Q249.171 167.854 249.659 168.037Q250.146 168.220 250.463 168.524Q250.780 168.829 250.951 169.256Q251.122 169.683 251.195 170.171L251.195 170.171Q252.341 169.073 253.402 168.463Q254.463 167.854 255.390 167.854L255.390 167.854Q256.878 167.854 257.537 168.634Q258.195 169.415 258.195 170.805L258.195 170.805Q258.195 171.220 258.146 171.585Q258.098 171.951 258 172.439L258 172.439L256.488 180L254.610 180L256.098 172.683Q256.195 172.195 256.244 171.902Q256.293 171.610 256.293 171.293L256.293 171.293Q256.293 169.463 254.561 169.463L254.561 169.463Q254.049 169.463 253.171 169.976Q252.293 170.488 251.220 171.610L251.220 171.610L249.537 180L247.683 180L249.146 172.683Q249.244 172.195 249.293 171.902Q249.341 171.610 249.341 171.293L249.341 171.293Q249.341 169.463 247.634 169.463L247.634 169.463Q247.098 169.463 246.220 169.976Q245.341 170.488 244.293 171.610L244.293 171.610L242.610 180Z"/></svg>