<svg version="1.1" xmlns="http://www.w3.org/2000/svg" xmlns:xlink="http://www.w3.org/1999/xlink" width="280.83574" height="236.69625" viewBox="0,0,280.83574,236.69625"><g transform="translate(0.39435,10.94047)"><g data-paper-data="{&quot;isPaintingLayer&quot;:true}" fill-rule="nonzero" stroke="none" stroke-width="0" stroke-linecap="butt" stroke-linejoin="miter" stroke-miterlimit="10" stroke-dasharray="" stroke-dashoffset="0" style="mix-blend-mode: normal"><path d="M265.1461,92.9734l5.5,0.00221l-0.01578,123.46631l-5.5,-0.00219z" data-paper-data="{&quot;index&quot;:null}" fill="#ffffff"/><path d="M270.28972,211.12408v5.5h-60.57943v-5.5z" fill="#ffffff"/><path d="M214.38804,166.23782l-0.00192,5.5l-107.2118,-0.01578l0.00189,-5.5z" data-paper-data="{&quot;index&quot;:null}" fill="#ffffff"/><path d="M208.8146,169.11794l5.5,0.00085l-0.01578,47.41661l-5.5,-0.00084z" data-paper-data="{&quot;index&quot;:null}" fill="#ffffff"/><path d="M201.01309,31.21746l3.89026,-3.88791l65.78767,65.80998l-3.89025,3.88793z" data-paper-data="{&quot;index&quot;:null}" fill="#ffffff"/><g fill="#ffffff"><path d="M192.90298,77.69812l0.00073,5.5l-45.66406,0.01578l-0.00073,-5.5z" data-paper-data="{&quot;index&quot;:null}"/><path d="M147.03973,77.87097l5.5,-0.00073l0.01578,46.05104l-5.5,0.00073z" data-paper-data="{&quot;index&quot;:null}"/><path d="M147.04046,123.92205l-0.00073,-5.5l45.66406,-0.01578l0.00073,5.5z" data-paper-data="{&quot;index&quot;:null}"/><path d="M192.9037,123.74916l-5.5,0.00072l-0.01578,-46.05102l5.5,-0.00073z" data-paper-data="{&quot;index&quot;:null}"/></g><path d="M201.19783,1.42379l5.5,0.00054l-0.01578,30.15866l-5.5,-0.00053z" data-paper-data="{&quot;index&quot;:null}" fill="#ffffff"/><path d="M206.77127,-3.90959l-0.00096,5.5l-53.73642,-0.01578l0.00095,-5.5z" data-paper-data="{&quot;index&quot;:null}" fill="#ffffff"/><path d="M80.29575,43.19482l-3.88847,3.8897l-34.87894,-34.85661l3.88846,-3.88971z" data-paper-data="{&quot;index&quot;:null}" fill="#ffffff"/><path d="M76.70331,46.81399l0.00059,-5.5l33.14561,0.01578l-0.00059,5.5z" data-paper-data="{&quot;index&quot;:null}" fill="#ffffff"/><path d="M104.63961,101.34422l5.5,0.00126l-0.01578,70.31659l-5.5,-0.00125z" data-paper-data="{&quot;index&quot;:null}" fill="#ffffff"/><path d="M110.08659,46.82944l-3.88825,-3.88992l47.0358,-47.01349l3.88826,3.88992z" data-paper-data="{&quot;index&quot;:null}" fill="#ffffff"/><path d="M6.69822,13.51486l0.00069,-5.5l38.66227,0.01578l-0.00069,5.5z" data-paper-data="{&quot;index&quot;:null}" fill="#ffffff"/><path d="M3.22504,106.90767l0.00191,-5.5l106.40899,0.01578l-0.00188,5.5z" data-paper-data="{&quot;index&quot;:null}" fill="#ffffff"/><path d="M2.9662,7.94704l5.5,0.00173l-0.01578,96.57105l-5.5,-0.00171z" data-paper-data="{&quot;index&quot;:null}" fill="#ffffff"/><path d="M-0.39435,225.75578v-236.69625h280.83574v236.69625z" fill="none"/></g></g></svg>