<svg width="480px" height="360px" xmlns="http://www.w3.org/2000/svg"><path fill="#F00" d="M240.883 184.810L240.883 184.810Q240.123 184.810 239.620 184.712Q239.117 184.613 238.748 184.466L238.748 184.466L239.387 181.816Q239.632 181.890 239.853 181.939Q240.074 181.988 240.344 181.988L240.344 181.988Q241.055 181.988 241.337 181.521Q241.620 181.055 241.620 180.025L241.620 180.025L241.620 167.828L245.227 167.828L245.227 179.926Q245.227 180.933 245.018 181.816Q244.810 182.699 244.307 183.362Q243.804 184.025 242.969 184.417Q242.135 184.810 240.883 184.810ZM243.436 166.037L243.436 166.037Q242.528 166.037 241.939 165.509Q241.350 164.982 241.350 164.147L241.350 164.147Q241.350 163.313 241.939 162.798Q242.528 162.282 243.436 162.282L243.436 162.282Q244.344 162.282 244.933 162.798Q245.521 163.313 245.521 164.147L245.521 164.147Q245.521 164.982 244.933 165.509Q244.344 166.037 243.436 166.037Z"/></svg>