<svg width="480px" height="360px" xmlns="http://www.w3.org/2000/svg"><path fill="#F00" d="M252.123 173.178L240.834 173.178L240.834 170.626L252.123 170.626L252.123 173.178ZM246.479 178.209L246.479 178.209Q245.620 178.209 245.055 177.681Q244.491 177.153 244.491 176.319L244.491 176.319Q244.491 175.485 245.055 174.957Q245.620 174.429 246.479 174.429L246.479 174.429Q247.337 174.429 247.902 174.957Q248.466 175.485 248.466 176.319L248.466 176.319Q248.466 177.153 247.902 177.681Q247.337 178.209 246.479 178.209ZM246.479 169.374L246.479 169.374Q245.620 169.374 245.055 168.847Q244.491 168.319 244.491 167.485L244.491 167.485Q244.491 166.650 245.055 166.123Q245.620 165.595 246.479 165.595L246.479 165.595Q247.337 165.595 247.902 166.123Q248.466 166.650 248.466 167.485L248.466 167.485Q248.466 168.319 247.902 168.847Q247.337 169.374 246.479 169.374Z"/></svg>