<svg width="480px" height="360px" xmlns="http://www.w3.org/2000/svg"><path fill="#F00" d="M248.195 173.732L248.195 173.732Q247.463 173.732 246.890 173.415Q246.317 173.098 245.817 172.707Q245.317 172.317 244.854 172Q244.390 171.683 243.878 171.683L243.878 171.683Q243.341 171.683 242.878 172.037Q242.415 172.390 242 173.171L242 173.171L240.878 172.366Q241.537 171.195 242.341 170.683Q243.146 170.171 243.927 170.171L243.927 170.171Q244.659 170.171 245.232 170.488Q245.805 170.805 246.305 171.195Q246.805 171.585 247.268 171.902Q247.732 172.220 248.244 172.220L248.244 172.220Q248.780 172.220 249.244 171.866Q249.707 171.512 250.122 170.732L250.122 170.732L251.244 171.561Q250.585 172.732 249.780 173.232Q248.976 173.732 248.195 173.732Z"/></svg>