<svg width="480px" height="360px" xmlns="http://www.w3.org/2000/svg"><path fill="#F00" d="M242.634 180L240.854 180L244.049 164L246.317 164L247.707 172.634L248.244 175.951L248.341 175.951L250.049 172.634L254.805 164L257.073 164L253.878 180L252.049 180L253.902 170.976Q254.122 169.878 254.439 168.598Q254.756 167.317 255.049 166.268L255.049 166.268L254.951 166.268L253.024 169.829L248.317 178.317L247.244 178.317L245.756 169.829L245.220 166.268L245.122 166.268Q244.976 167.366 244.805 168.622Q244.634 169.878 244.439 170.976L244.439 170.976L242.634 180Z"/></svg>