<svg width="480px" height="360px" xmlns="http://www.w3.org/2000/svg"><path fill="#F00" d="M244.908 180.294L244.908 180.294Q243.975 180.294 243.337 180Q242.699 179.706 242.319 179.178Q241.939 178.650 241.767 177.902Q241.595 177.153 241.595 176.221L241.595 176.221L241.595 162.798L245.202 162.798L245.202 176.368Q245.202 176.933 245.411 177.153Q245.620 177.374 245.840 177.374L245.840 177.374Q245.963 177.374 246.049 177.374Q246.135 177.374 246.282 177.325L246.282 177.325L246.724 180Q246.429 180.123 245.975 180.209Q245.521 180.294 244.908 180.294Z"/></svg>