<svg width="480px" height="360px" xmlns="http://www.w3.org/2000/svg"><path fill="#F00" d="M253.899 170.161L250.736 170.161L250.014 173.882L253.111 173.882L253.111 175.294L249.751 175.294L248.832 180L247.332 180L248.252 175.294L244.936 175.294L244.038 180L242.550 180L243.425 175.294L240.558 175.294L240.558 173.882L243.699 173.882L244.443 170.161L241.412 170.161L241.412 168.772L244.684 168.772L245.581 164L247.103 164L246.205 168.772L249.543 168.772L250.462 164L251.929 164L251.010 168.772L253.899 168.772L253.899 170.161ZM245.921 170.161L245.198 173.882L248.514 173.882L249.237 170.161L245.921 170.161Z"/></svg>