<svg width="480px" height="360px" xmlns="http://www.w3.org/2000/svg"><path fill="#F00" d="M247.043 180.294L247.043 180.294Q245.742 180.294 244.613 179.865Q243.485 179.436 242.650 178.613Q241.816 177.791 241.350 176.613Q240.883 175.436 240.883 173.914L240.883 173.914Q240.883 172.442 241.374 171.252Q241.865 170.061 242.663 169.239Q243.460 168.417 244.491 167.975Q245.521 167.534 246.626 167.534L246.626 167.534Q247.926 167.534 248.896 167.975Q249.865 168.417 250.515 169.202Q251.166 169.988 251.485 171.055Q251.804 172.123 251.804 173.374L251.804 173.374Q251.804 173.865 251.755 174.307Q251.706 174.748 251.656 174.969L251.656 174.969L244.368 174.969Q244.613 176.294 245.460 176.920Q246.307 177.546 247.534 177.546L247.534 177.546Q248.834 177.546 250.160 176.736L250.160 176.736L251.362 178.920Q250.429 179.558 249.288 179.926Q248.147 180.294 247.043 180.294ZM244.344 172.589L244.344 172.589L248.736 172.589Q248.736 171.558 248.270 170.920Q247.804 170.282 246.699 170.282L246.699 170.282Q245.840 170.282 245.190 170.847Q244.540 171.411 244.344 172.589Z"/></svg>