<svg width="480px" height="360px" xmlns="http://www.w3.org/2000/svg"><path fill="#F00" d="M248.270 180L244.663 180L244.663 176.393L240.908 176.393L240.908 174.675L244.663 174.675L244.663 173.325L240.908 173.325L240.908 171.607L243.902 171.607L240.294 164.417L244 164.417L245.252 167.681Q245.546 168.491 245.840 169.301Q246.135 170.110 246.479 170.896L246.479 170.896L246.577 170.896Q246.896 170.086 247.190 169.276Q247.485 168.466 247.804 167.681L247.804 167.681L249.031 164.417L252.663 164.417L249.055 171.607L252.049 171.607L252.049 173.325L248.270 173.325L248.270 174.675L252.049 174.675L252.049 176.393L248.270 176.393L248.270 180Z"/></svg>