<svg width="480px" height="360px" xmlns="http://www.w3.org/2000/svg"><path fill="#F00" d="M240.976 180L238.927 180L244.244 173.707L242.024 168.146L243.927 168.146L244.951 170.780Q245.146 171.317 245.305 171.793Q245.463 172.268 245.659 172.780L245.659 172.780L245.756 172.780Q246.122 172.293 246.512 171.793Q246.902 171.293 247.268 170.780L247.268 170.780L249.341 168.146L251.366 168.146L246.488 174.122L248.902 180L246.976 180L245.902 177.220Q245.707 176.683 245.500 176.134Q245.293 175.585 245.049 175.024L245.049 175.024L244.951 175.024Q244.561 175.585 244.146 176.110Q243.732 176.634 243.268 177.195L243.268 177.195L240.976 180Z"/></svg>