<svg width="480px" height="360px" xmlns="http://www.w3.org/2000/svg"><path fill="#F00" d="M244.613 173.865L244.613 173.865Q243.755 173.865 243.018 173.521Q242.282 173.178 241.755 172.515Q241.227 171.853 240.933 170.908Q240.638 169.963 240.638 168.761L240.638 168.761Q240.638 167.558 240.933 166.626Q241.227 165.693 241.755 165.043Q242.282 164.393 243.018 164.049Q243.755 163.706 244.613 163.706L244.613 163.706Q245.472 163.706 246.209 164.049Q246.945 164.393 247.472 165.043Q248 165.693 248.307 166.626Q248.613 167.558 248.613 168.761L248.613 168.761Q248.613 169.963 248.307 170.908Q248 171.853 247.472 172.515Q246.945 173.178 246.209 173.521Q245.472 173.865 244.613 173.865ZM244.613 171.853L244.613 171.853Q245.227 171.853 245.656 171.166Q246.086 170.479 246.086 168.761L246.086 168.761Q246.086 167.043 245.656 166.380Q245.227 165.718 244.613 165.718L244.613 165.718Q244 165.718 243.571 166.380Q243.141 167.043 243.141 168.761L243.141 168.761Q243.141 170.479 243.571 171.166Q244 171.853 244.613 171.853ZM247.239 180.294L245.153 180.294L253.791 163.706L255.877 163.706L247.239 180.294ZM256.417 180.294L256.417 180.294Q255.558 180.294 254.822 179.951Q254.086 179.607 253.558 178.945Q253.031 178.282 252.736 177.337Q252.442 176.393 252.442 175.190L252.442 175.190Q252.442 173.988 252.736 173.055Q253.031 172.123 253.558 171.472Q254.086 170.822 254.822 170.479Q255.558 170.135 256.417 170.135L256.417 170.135Q257.276 170.135 258.012 170.479Q258.748 170.822 259.276 171.472Q259.804 172.123 260.110 173.055Q260.417 173.988 260.417 175.190L260.417 175.190Q260.417 176.393 260.110 177.337Q259.804 178.282 259.276 178.945Q258.748 179.607 258.012 179.951Q257.276 180.294 256.417 180.294ZM256.417 178.282L256.417 178.282Q257.031 178.282 257.460 177.595Q257.890 176.908 257.890 175.190L257.890 175.190Q257.890 173.472 257.460 172.810Q257.031 172.147 256.417 172.147L256.417 172.147Q255.804 172.147 255.374 172.810Q254.945 173.472 254.945 175.190L254.945 175.190Q254.945 176.908 255.374 177.595Q255.804 178.282 256.417 178.282Z"/></svg>