<svg width="480px" height="360px" xmlns="http://www.w3.org/2000/svg"><path fill="#F00" d="M252.279 173.992L252.279 173.992Q252.279 176.925 250.802 178.572Q249.324 180.219 246.720 180.219L246.720 180.219Q245.111 180.219 243.863 179.464Q242.616 178.709 241.937 177.297Q241.259 175.885 241.259 173.992L241.259 173.992Q241.259 171.059 242.725 169.423Q244.192 167.787 246.796 167.787L246.796 167.787Q249.313 167.787 250.796 169.461Q252.279 171.135 252.279 173.992ZM243.141 173.992L243.141 173.992Q243.141 176.290 244.060 177.494Q244.979 178.698 246.763 178.698L246.763 178.698Q248.547 178.698 249.472 177.499Q250.397 176.301 250.397 173.992L250.397 173.992Q250.397 171.705 249.472 170.517Q248.547 169.330 246.741 169.330L246.741 169.330Q244.958 169.330 244.049 170.501Q243.141 171.672 243.141 173.992Z"/></svg>