<svg width="480px" height="360px" xmlns="http://www.w3.org/2000/svg"><path fill="#F00" d="M245.268 180.293L245.268 180.293Q243.317 180.293 242.110 179.061Q240.902 177.829 240.902 175.537L240.902 175.537Q240.902 173.878 241.451 172.476Q242 171.073 242.915 170.049Q243.829 169.024 245.024 168.439Q246.220 167.854 247.512 167.854L247.512 167.854Q248.585 167.854 249.317 168.268Q250.049 168.683 250.585 169.293L250.585 169.293L249.488 170.463Q249.024 169.902 248.561 169.646Q248.098 169.390 247.390 169.390L247.390 169.390Q246.512 169.390 245.683 169.878Q244.854 170.366 244.207 171.183Q243.561 172 243.183 173.098Q242.805 174.195 242.805 175.415L242.805 175.415Q242.805 177.024 243.500 177.878Q244.195 178.732 245.610 178.732L245.610 178.732Q246.390 178.732 247.037 178.415Q247.683 178.098 248.244 177.683L248.244 177.683L249.073 178.902Q248.439 179.390 247.512 179.841Q246.585 180.293 245.268 180.293Z"/></svg>