<svg width="480px" height="360px" xmlns="http://www.w3.org/2000/svg"><path fill="#F00" d="M245.171 180.293L245.171 180.293Q243.244 180.293 242.098 179.024Q240.951 177.756 240.951 175.537L240.951 175.537Q240.951 173.854 241.488 172.439Q242.024 171.024 242.927 170.012Q243.829 169 244.976 168.427Q246.122 167.854 247.341 167.854L247.341 167.854Q249.268 167.854 250.427 169.122Q251.585 170.390 251.585 172.610L251.585 172.610Q251.585 174.293 251.037 175.707Q250.488 177.122 249.598 178.134Q248.707 179.146 247.549 179.720Q246.390 180.293 245.171 180.293ZM245.366 178.732L245.366 178.732Q246.195 178.732 246.963 178.256Q247.732 177.780 248.341 176.976Q248.951 176.171 249.317 175.073Q249.683 173.976 249.683 172.732L249.683 172.732Q249.683 171.122 249.037 170.256Q248.390 169.390 247.146 169.390L247.146 169.390Q246.341 169.390 245.561 169.866Q244.780 170.341 244.171 171.159Q243.561 171.976 243.195 173.073Q242.829 174.171 242.829 175.415L242.829 175.415Q242.829 177.024 243.476 177.878Q244.122 178.732 245.366 178.732Z"/></svg>