<svg width="480px" height="360px" xmlns="http://www.w3.org/2000/svg"><path fill="#F00" d="M242.659 180.293L242.659 180.293Q241.878 180.293 241.476 179.890Q241.073 179.488 241.073 178.756L241.073 178.756Q241.073 178.366 241.220 177.732L241.220 177.732L244.220 162.634L246.098 162.634L243.049 177.829Q243 178.024 243 178.122Q243 178.220 243 178.293L243 178.293Q243 178.732 243.415 178.732L243.415 178.732Q243.488 178.732 243.561 178.720Q243.634 178.707 243.805 178.659L243.805 178.659L243.829 180.098Q243.585 180.195 243.317 180.244Q243.049 180.293 242.659 180.293Z"/></svg>