<svg width="480px" height="360px" xmlns="http://www.w3.org/2000/svg"><path fill="#F00" d="M241.795 168.005L243.633 168.005L243.633 175.787Q243.633 177.253 244.301 177.975Q244.969 178.698 246.391 178.698L246.391 178.698Q248.274 178.698 249.144 177.669Q250.014 176.640 250.014 174.309L250.014 174.309L250.014 168.005L251.830 168.005L251.830 180L250.331 180L250.068 178.391L249.970 178.391Q249.412 179.278 248.421 179.748Q247.431 180.219 246.161 180.219L246.161 180.219Q243.973 180.219 242.884 179.179Q241.795 178.140 241.795 175.852L241.795 175.852L241.795 168.005Z"/></svg>