<svg width="480px" height="360px" xmlns="http://www.w3.org/2000/svg"><path fill="#F00" d="M240.471 185.384L240.471 185.384Q239.431 185.384 238.785 185.111L238.785 185.111L238.785 183.633Q239.540 183.852 240.274 183.852L240.274 183.852Q241.127 183.852 241.527 183.387Q241.926 182.922 241.926 181.970L241.926 181.970L241.926 168.005L243.743 168.005L243.743 181.839Q243.743 185.384 240.471 185.384ZM241.773 164.755L241.773 164.755Q241.773 164.131 242.079 163.841Q242.386 163.551 242.845 163.551L242.845 163.551Q243.283 163.551 243.601 163.847Q243.918 164.142 243.918 164.755L243.918 164.755Q243.918 165.368 243.601 165.669Q243.283 165.970 242.845 165.970L242.845 165.970Q242.386 165.970 242.079 165.669Q241.773 165.368 241.773 164.755Z"/></svg>