<svg width="480px" height="360px" xmlns="http://www.w3.org/2000/svg"><path fill="#F00" d="M248.564 174.110L248.564 174.110Q247.804 174.110 247.239 173.816Q246.675 173.521 246.196 173.178Q245.718 172.834 245.288 172.540Q244.859 172.245 244.344 172.245L244.344 172.245Q243.853 172.245 243.411 172.613Q242.969 172.982 242.577 173.669L242.577 173.669L240.712 172.221Q241.620 170.822 242.540 170.258Q243.460 169.693 244.393 169.693L244.393 169.693Q245.153 169.693 245.718 169.988Q246.282 170.282 246.761 170.626Q247.239 170.969 247.669 171.264Q248.098 171.558 248.613 171.558L248.613 171.558Q249.129 171.558 249.558 171.190Q249.988 170.822 250.380 170.135L250.380 170.135L252.245 171.583Q251.337 172.982 250.417 173.546Q249.497 174.110 248.564 174.110Z"/></svg>