<svg version="1.1" xmlns="http://www.w3.org/2000/svg" xmlns:xlink="http://www.w3.org/1999/xlink" width="277.75823" height="196.2514" viewBox="0,0,277.75823,196.2514"><g transform="translate(-7.92581,-51.76908)"><g data-paper-data="{&quot;isPaintingLayer&quot;:true}" fill-rule="nonzero" stroke="none" stroke-width="0" stroke-linecap="butt" stroke-linejoin="miter" stroke-miterlimit="10" stroke-dasharray="" stroke-dashoffset="0" style="mix-blend-mode: normal"><path d="M269.06381,149.43669h5.5v58.96488h-5.5z" data-paper-data="{&quot;index&quot;:null}" fill="#ffffff"/><path d="M273.91758,149.51236l0.00083,5.5l-46.43151,0.01578l-0.00083,-5.5z" data-paper-data="{&quot;index&quot;:null}" fill="#ffffff"/><path d="M274.35364,203.7111l0.00182,5.5l-102.31432,0.01578l-0.00182,-5.5z" data-paper-data="{&quot;index&quot;:null}" fill="#ffffff"/><path d="M7.92581,248.02048v-196.2514h277.75823v196.2514z" fill="none"/><path d="M181.41827,60.94434l5.5,-0.00088l0.01578,48.96581l-5.5,0.00088z" data-paper-data="{&quot;index&quot;:null}" fill="#ffffff"/><path d="M231.03023,151.25885l-3.88828,3.88989l-45.56361,-45.5413l3.88827,-3.8899z" data-paper-data="{&quot;index&quot;:null}" fill="#ffffff"/><path d="M183.85959,60.73156l0.00146,5.5l-79.36993,0.01578l-0.00146,-5.5z" data-paper-data="{&quot;index&quot;:null}" fill="#ffffff"/><path d="M68.07073,144.77158l5.5,-0.0017l0.01578,95.38626l-5.5,0.0017z" data-paper-data="{&quot;index&quot;:null}" fill="#ffffff"/><path d="M143.41699,241.80476l-5.95697,-3.82978c0,0 1.47928,0.02213 1.70191,-0.19835c2.14716,-2.1264 32.94939,-34.11796 32.94939,-34.11796l4.12364,4.07977z" data-paper-data="{&quot;index&quot;:null}" fill="#ffffff"/><path d="M142.73967,236.36036l0.00132,5.5l-74.39493,0.01578l-0.00132,-5.5z" data-paper-data="{&quot;index&quot;:null}" fill="#ffffff"/><path d="M70.18738,96.92685v5.5h-57.9197v-5.5z" data-paper-data="{&quot;index&quot;:null}" fill="#ffffff"/><path d="M12.35912,96.6974l5.5,0.00083l-0.01578,47.28535l-5.5,-0.00083z" data-paper-data="{&quot;index&quot;:null}" fill="#ffffff"/><path d="M73.22891,143.90201l-0.00108,5.5l-60.80052,-0.01578l0.00108,-5.5z" data-paper-data="{&quot;index&quot;:null}" fill="#ffffff"/><g fill="#ffffff"><path d="M158.93624,135.80476l0.00073,5.5l-43.56127,0.01578l-0.00073,-5.5z" data-paper-data="{&quot;index&quot;:null}"/><path d="M115.17578,135.97761l5.5,-0.00073l0.01578,43.24731l-5.5,0.00073z" data-paper-data="{&quot;index&quot;:null}"/><path d="M115.17651,179.22496l-0.00073,-5.5l43.56127,-0.01578l0.00073,5.5z" data-paper-data="{&quot;index&quot;:null}"/><path d="M158.93696,179.05207l-5.5,0.00072l-0.01578,-43.2473l5.5,-0.00073z" data-paper-data="{&quot;index&quot;:null}"/></g><path d="M104.49104,60.28447l3.86813,3.86952l-38.71964,38.69745l-3.86814,-3.86951z" data-paper-data="{&quot;index&quot;:null}" fill="#ffffff"/></g></g></svg>