<svg width="480px" height="360px" xmlns="http://www.w3.org/2000/svg"><path fill="#F00" d="M246.098 180.293L246.098 180.293Q245 180.293 244.061 179.976Q243.122 179.659 242.451 179.085Q241.780 178.512 241.390 177.732Q241 176.951 241 176.024L241 176.024Q241 175.268 241.256 174.622Q241.512 173.976 241.915 173.451Q242.317 172.927 242.841 172.524Q243.366 172.122 243.927 171.829L243.927 171.829L243.927 171.732Q243.073 171.122 242.415 170.256Q241.756 169.390 241.756 168.146L241.756 168.146Q241.756 167.244 242.098 166.512Q242.439 165.780 243.024 165.256Q243.610 164.732 244.415 164.439Q245.220 164.146 246.171 164.146L246.171 164.146Q247.195 164.146 248 164.451Q248.805 164.756 249.378 165.305Q249.951 165.854 250.256 166.622Q250.561 167.390 250.561 168.293L250.561 168.293Q250.561 168.902 250.354 169.463Q250.146 170.024 249.841 170.512Q249.537 171 249.159 171.390Q248.780 171.780 248.415 172.049L248.415 172.049L248.415 172.146Q248.927 172.439 249.415 172.817Q249.902 173.195 250.280 173.671Q250.659 174.146 250.890 174.756Q251.122 175.366 251.122 176.146L251.122 176.146Q251.122 177.024 250.756 177.780Q250.390 178.537 249.732 179.098Q249.073 179.659 248.146 179.976Q247.220 180.293 246.098 180.293ZM247.195 171.512L247.195 171.512Q247.976 170.805 248.402 170.024Q248.829 169.244 248.829 168.390L248.829 168.390Q248.829 167.220 248.122 166.427Q247.415 165.634 246.122 165.634L246.122 165.634Q245.024 165.634 244.317 166.317Q243.610 167 243.610 168.146L243.610 168.146Q243.610 168.854 243.902 169.354Q244.195 169.854 244.695 170.244Q245.195 170.634 245.841 170.939Q246.488 171.244 247.195 171.512ZM246.146 178.805L246.146 178.805Q247.512 178.805 248.354 178.049Q249.195 177.293 249.195 176.073L249.195 176.073Q249.195 175.317 248.854 174.780Q248.512 174.244 247.927 173.841Q247.341 173.439 246.573 173.110Q245.805 172.780 244.976 172.439L244.976 172.439Q244.049 173.073 243.427 173.915Q242.805 174.756 242.805 175.829L242.805 175.829Q242.805 176.488 243.061 177.024Q243.317 177.561 243.768 177.963Q244.220 178.366 244.829 178.585Q245.439 178.805 246.146 178.805Z"/></svg>