<svg width="480px" height="360px" xmlns="http://www.w3.org/2000/svg"><path fill="#F00" d="M246.073 180.293L246.073 180.293Q243.707 180.293 242.390 178.195Q241.073 176.098 241.073 172.171L241.073 172.171Q241.073 168.244 242.390 166.195Q243.707 164.146 246.073 164.146L246.073 164.146Q248.415 164.146 249.732 166.195Q251.049 168.244 251.049 172.171L251.049 172.171Q251.049 176.098 249.732 178.195Q248.415 180.293 246.073 180.293ZM246.073 178.683L246.073 178.683Q246.756 178.683 247.305 178.305Q247.854 177.927 248.256 177.134Q248.659 176.341 248.878 175.110Q249.098 173.878 249.098 172.171L249.098 172.171Q249.098 170.463 248.878 169.244Q248.659 168.024 248.256 167.256Q247.854 166.488 247.305 166.122Q246.756 165.756 246.073 165.756L246.073 165.756Q245.390 165.756 244.829 166.122Q244.268 166.488 243.866 167.256Q243.463 168.024 243.244 169.244Q243.024 170.463 243.024 172.171L243.024 172.171Q243.024 175.585 243.866 177.134Q244.707 178.683 246.073 178.683Z"/></svg>