<svg version="1.1" xmlns="http://www.w3.org/2000/svg" xmlns:xlink="http://www.w3.org/1999/xlink" width="173.18302" height="287.58363" viewBox="0,0,173.18302,287.58363"><defs><linearGradient x1="241.52594" y1="110.27224" x2="241.52594" y2="160.61133" gradientUnits="userSpaceOnUse" id="color-1"><stop offset="0" stop-color="#02ca41" stop-opacity="0"/><stop offset="1" stop-color="#02ca41"/></linearGradient></defs><g transform="translate(-212.27481,73.0272)"><g data-paper-data="{&quot;isPaintingLayer&quot;:true}" stroke-miterlimit="10" stroke-dasharray="" stroke-dashoffset="0" style="mix-blend-mode: normal"><path d="M213.3255,208.49092v-233.45248l43.03611,-1.30525l-1.24708,-46.76039l127.34283,1.65523l1.25516,46.37942l-58.96027,1.28042l0.81911,52.46561l-56.06112,56.26255l0.54166,123.76245z" fill="#04b33b" fill-rule="nonzero" stroke="none" stroke-width="0" stroke-linecap="butt" stroke-linejoin="miter"/><path d="M215.01821,160.61133v-36.67729h53.01546v36.67729z" data-paper-data="{&quot;index&quot;:null}" fill="url(#color-1)" fill-rule="nonzero" stroke="none" stroke-width="0" stroke-linecap="butt" stroke-linejoin="miter"/><g data-paper-data="{&quot;index&quot;:null}" fill-rule="nonzero" stroke-linejoin="miter"><g fill="none" stroke="#51da7c" stroke-width="2" stroke-linecap="round"><path d="M245.61512,145.82118l-3.61166,-4.90079" data-paper-data="{&quot;index&quot;:null}"/><path d="M241.96119,140.89874l-3.78576,4.82178" data-paper-data="{&quot;index&quot;:null}"/><path d="M238.24714,145.79522l7.37379,0.1155" data-paper-data="{&quot;index&quot;:null}"/></g><path d="M238.97776,146.16583l2.96794,-4.94941l3.18132,4.73069z" fill="#51da7c" stroke="none" stroke-width="0" stroke-linecap="butt"/></g><path d="M212.27481,209.98029h59.71415v4.51853l-59.69711,0.05761z" data-paper-data="{&quot;index&quot;:null}" fill="#000000" fill-rule="evenodd" stroke="none" stroke-width="1" stroke-linecap="round" stroke-linejoin="round" opacity="0.21849"/><path d="M213.16781,-23.84133h45.33968v4.51853l-45.32674,0.05761z" data-paper-data="{&quot;index&quot;:null}" fill="#000000" fill-rule="evenodd" stroke="none" stroke-width="1" stroke-linecap="round" stroke-linejoin="round" opacity="0.21849"/><path d="M256.77354,-70.79479h123.98859v4.51853l-123.9532,0.05761z" data-paper-data="{&quot;index&quot;:null}" fill="#000000" fill-rule="evenodd" stroke="none" stroke-width="1" stroke-linecap="round" stroke-linejoin="round" opacity="0.21849"/><path d="M326.56507,-23.15368h58.89276v4.51853l-58.87595,0.05761z" data-paper-data="{&quot;index&quot;:null}" fill="#000000" fill-rule="evenodd" stroke="none" stroke-width="1" stroke-linecap="round" stroke-linejoin="round" opacity="0.21849"/><path d="M327.728,27.14879l-0.04418,7.0529l-55.63615,55.58861l-2.57837,-4.33641z" data-paper-data="{&quot;index&quot;:null}" fill="#000000" fill-rule="evenodd" stroke="none" stroke-width="1" stroke-linecap="round" stroke-linejoin="round" opacity="0.21849"/></g></g></svg>