<svg version="1.1" xmlns="http://www.w3.org/2000/svg" xmlns:xlink="http://www.w3.org/1999/xlink" width="312.11936" height="55.44978" viewBox="0,0,312.11936,55.44978"><g transform="translate(-82.52572,-117.33508)"><g data-paper-data="{&quot;isPaintingLayer&quot;:true}" stroke-miterlimit="10" stroke-dasharray="" stroke-dashoffset="0" style="mix-blend-mode: normal"><g fill="none" fill-rule="evenodd" stroke="#ffffff" stroke-width="3.5" stroke-linecap="butt" stroke-linejoin="miter"><path d="M111.07355,135.93714v13.731c0,0.69 -0.575,1.288 -1.242,1.288c-0.713,0 -1.288,-0.598 -1.288,-1.288v-13.731c0,-0.69 0.575,-1.288 1.288,-1.288c0.667,0 1.242,0.598 1.242,1.288z"/><path d="M119.88255,149.57614c0,0.943 -1.081,1.357 -2.369,1.357c-1.38,0 -2.737,-0.483 -2.737,-3.128v-6.992h-0.874c-0.598,0 -0.989,-0.391 -0.989,-0.989c0,-0.575 0.391,-0.966 0.989,-0.966h0.874v-1.794c0,-0.644 0.552,-1.196 1.196,-1.196c0.667,0 1.219,0.552 1.219,1.196v1.794h1.679c0.598,0 1.012,0.391 1.012,0.966c0,0.598 -0.414,0.989 -1.012,0.989h-1.679v7.015c0,0.69 0.276,1.012 0.805,1.012c0.299,0 0.644,-0.092 0.897,-0.115c0.575,-0.092 0.989,0.276 0.989,0.851z"/><path d="M121.35455,139.24914l1.196,-3.565c0.253,-0.69 0.644,-0.83794 1.265,-0.83794l0.759,0.25613c0.782,0 0.897,0.02981 0.506,0.78881l-1.817,3.611c-0.299,0.598 -0.759,0.58494 -1.219,0.58494l-0.138,0.12806c-0.575,0 -0.759,-0.414 -0.552,-0.966z"/><path d="M135.17755,140.51414c0.138,0.207 0.322,0.46 0.322,0.851c0,0.575 -0.437,0.92 -0.989,0.92c-0.368,0 -0.713,-0.161 -1.058,-0.621c-0.46,-0.575 -1.104,-0.966 -2.047,-0.966c-1.15,0 -1.84,0.575 -1.84,1.403c0,0.575 0.322,1.127 1.541,1.472l1.426,0.391c1.955,0.529 3.427,1.403 3.427,3.335c0,2.415 -2.277,3.634 -4.669,3.634c-2.001,0 -3.404,-0.874 -4.002,-1.817c-0.115,-0.161 -0.483,-0.621 -0.483,-1.173c0,-0.483 0.299,-0.989 0.943,-0.989c0.529,0 0.805,0.322 1.035,0.667c0.575,0.966 1.518,1.288 2.507,1.288c1.334,0 2.254,-0.552 2.254,-1.472c0,-0.69 -0.483,-1.196 -1.633,-1.518l-1.541,-0.414c-2.231,-0.621 -3.197,-1.817 -3.197,-3.381c0,-2.162 1.955,-3.404 4.186,-3.404c1.656,0 3.082,0.667 3.818,1.794z"/><path d="M155.34845,139.89314c0,0.23 -0.069,0.391 -0.138,0.552l-6.141,14.03c-0.253,0.575 -0.69,0.828 -1.15,0.828c-0.644,0 -1.081,-0.506 -1.081,-1.104c0,-0.23 0.069,-0.391 0.138,-0.552l1.426,-3.289l-4.393,-9.913c-0.069,-0.161 -0.138,-0.322 -0.138,-0.552c0,-0.598 0.483,-1.104 1.127,-1.104c0.46,0 0.897,0.253 1.15,0.828l3.45,8.027l3.473,-8.027c0.253,-0.575 0.69,-0.828 1.15,-0.828c0.644,0 1.127,0.506 1.127,1.104z"/><path d="M169.07945,144.86113c0,4.117 -3.427,6.118 -6.072,6.118c-2.645,0 -6.049,-2.001 -6.049,-6.118c0,-4.094 3.404,-6.141 6.049,-6.141c2.645,0 6.072,2.047 6.072,6.141zM159.37345,144.86113c0,2.599 1.863,4.002 3.634,4.002c1.794,0 3.657,-1.403 3.657,-4.002c0,-2.622 -1.863,-4.025 -3.657,-4.025c-1.771,0 -3.634,1.403 -3.634,4.025z"/><path d="M171.37945,145.66614v-5.658c0,-0.667 0.529,-1.219 1.196,-1.219c0.667,0 1.219,0.552 1.219,1.219v5.658c0,2.3 1.311,3.22 2.806,3.22c2.208,0 3.174,-1.978 3.312,-2.967v-5.911c0,-0.667 0.552,-1.219 1.219,-1.219c0.667,0 1.219,0.552 1.219,1.219v9.683c0,0.69 -0.552,1.242 -1.219,1.242c-0.667,0 -1.219,-0.552 -1.219,-1.242v-1.518c-0.115,0.805 -1.495,2.806 -4.117,2.806c-2.231,0 -4.416,-1.403 -4.416,-5.313z"/><path d="M192.60845,139.87014c0,0.69 -0.529,1.15 -1.564,1.15c-2.024,0 -3.335,1.564 -3.496,2.783v5.911c0,0.667 -0.552,1.219 -1.219,1.219c-0.667,0 -1.219,-0.552 -1.219,-1.219v-9.683c0,-0.69 0.552,-1.242 1.219,-1.242c0.667,0 1.219,0.552 1.219,1.242v1.518c0.115,-0.805 1.564,-2.806 3.818,-2.806c0.805,0 1.242,0.506 1.242,1.127z"/><path d="M212.75645,144.86113c0,4.117 -3.427,6.118 -6.072,6.118c-2.645,0 -6.049,-2.001 -6.049,-6.118c0,-4.094 3.404,-6.141 6.049,-6.141c2.645,0 6.072,2.047 6.072,6.141zM203.05045,144.86113c0,2.599 1.863,4.002 3.634,4.002c1.794,0 3.657,-1.403 3.657,-4.002c0,-2.622 -1.863,-4.025 -3.657,-4.025c-1.771,0 -3.634,1.403 -3.634,4.025z"/><path d="M226.90145,144.83814c0,4.163 -3.059,6.141 -5.612,6.141c-2.185,0 -3.611,-1.449 -3.772,-2.484v1.242c0,0.069 0,0.161 -0.023,0.23v4.14c0,0.667 -0.552,1.219 -1.219,1.219c-0.667,0 -1.219,-0.552 -1.219,-1.219v-14.099c0,-0.667 0.575,-1.219 1.242,-1.219c0.667,0 1.219,0.552 1.219,1.219v0.92c0.598,-1.334 2.07,-2.208 3.772,-2.208c2.53,0 5.612,2.024 5.612,6.118zM224.46345,144.83814c0,-2.714 -1.886,-4.025 -3.565,-4.025c-1.564,0 -3.496,1.15 -3.496,4.025c0,2.852 1.932,4.048 3.496,4.048c1.679,0 3.565,-1.311 3.565,-4.048z"/><path d="M241.04645,144.83814c0,4.163 -3.059,6.141 -5.612,6.141c-2.185,0 -3.611,-1.449 -3.772,-2.484v1.242c0,0.069 0,0.161 -0.023,0.23v4.14c0,0.667 -0.552,1.219 -1.219,1.219c-0.667,0 -1.219,-0.552 -1.219,-1.219v-14.099c0,-0.667 0.575,-1.219 1.242,-1.219c0.667,0 1.219,0.552 1.219,1.219v0.92c0.598,-1.334 2.07,-2.208 3.772,-2.208c2.53,0 5.612,2.024 5.612,6.118zM238.60845,144.83814c0,-2.714 -1.886,-4.025 -3.565,-4.025c-1.564,0 -3.496,1.15 -3.496,4.025c0,2.852 1.932,4.048 3.496,4.048c1.679,0 3.565,-1.311 3.565,-4.048z"/><path d="M255.00745,144.86113c0,4.117 -3.427,6.118 -6.072,6.118c-2.645,0 -6.049,-2.001 -6.049,-6.118c0,-4.094 3.404,-6.141 6.049,-6.141c2.645,0 6.072,2.047 6.072,6.141zM245.30145,144.86113c0,2.599 1.863,4.002 3.634,4.002c1.794,0 3.657,-1.403 3.657,-4.002c0,-2.622 -1.863,-4.025 -3.657,-4.025c-1.771,0 -3.634,1.403 -3.634,4.025z"/><path d="M268.27845,144.05614v5.658c0,0.667 -0.529,1.219 -1.196,1.219c-0.667,0 -1.219,-0.552 -1.219,-1.219v-5.658c0,-2.3 -1.311,-3.22 -2.806,-3.22c-2.208,0 -3.174,1.978 -3.312,2.967v5.911c0,0.667 -0.552,1.219 -1.219,1.219c-0.667,0 -1.219,-0.552 -1.219,-1.219v-9.683c0,-0.69 0.552,-1.242 1.219,-1.242c0.667,0 1.219,0.552 1.219,1.242v1.518c0.115,-0.805 1.495,-2.806 4.117,-2.806c2.231,0 4.416,1.403 4.416,5.313z"/><path d="M282.30845,144.44714c0,0.943 -0.529,1.311 -1.518,1.311l-7.705,-0.023c0.253,2.139 1.932,3.197 3.772,3.197c0.943,0 1.587,-0.23 2.3,-0.667c0.391,-0.207 0.644,-0.368 0.966,-0.368c0.529,0 0.851,0.368 0.851,0.874c0,0.299 -0.115,0.621 -0.621,1.035c-0.874,0.713 -2.139,1.127 -3.588,1.127c-2.99,0 -6.187,-1.909 -6.187,-6.072c0,-4.14 3.335,-6.141 5.957,-6.141c2.622,0 5.773,2.07 5.773,5.727zM273.08545,143.98714h6.854c-0.207,-2.185 -1.863,-3.151 -3.404,-3.151c-1.518,0 -3.243,0.966 -3.45,3.151z"/><path d="M295.57945,144.05614v5.658c0,0.667 -0.529,1.219 -1.196,1.219c-0.667,0 -1.219,-0.552 -1.219,-1.219v-5.658c0,-2.3 -1.311,-3.22 -2.806,-3.22c-2.208,0 -3.174,1.978 -3.312,2.967v5.911c0,0.667 -0.552,1.219 -1.219,1.219c-0.667,0 -1.219,-0.552 -1.219,-1.219v-9.683c0,-0.69 0.552,-1.242 1.219,-1.242c0.667,0 1.219,0.552 1.219,1.242v1.518c0.115,-0.805 1.495,-2.806 4.117,-2.806c2.231,0 4.416,1.403 4.416,5.313z"/><path d="M304.38845,149.57614c0,0.943 -1.081,1.357 -2.369,1.357c-1.38,0 -2.737,-0.483 -2.737,-3.128v-6.992h-0.874c-0.598,0 -0.989,-0.391 -0.989,-0.989c0,-0.575 0.391,-0.966 0.989,-0.966h0.874v-1.794c0,-0.644 0.552,-1.196 1.196,-1.196c0.667,0 1.219,0.552 1.219,1.196v1.794h1.679c0.598,0 1.012,0.391 1.012,0.966c0,0.598 -0.414,0.989 -1.012,0.989h-1.679v7.015c0,0.69 0.276,1.012 0.805,1.012c0.299,0 0.644,-0.092 0.897,-0.115c0.575,-0.092 0.989,0.276 0.989,0.851z"/><path d="M305.86045,139.24914l1.196,-3.565c0.253,-0.69 0.644,-0.966 1.265,-0.966h0.759c0.782,0 0.897,0.414 0.506,1.173l-1.817,3.611c-0.299,0.598 -0.759,0.713 -1.219,0.713h-0.138c-0.575,0 -0.759,-0.414 -0.552,-0.966z"/><path d="M319.68345,140.51414c0.138,0.207 0.322,0.46 0.322,0.851c0,0.575 -0.437,0.92 -0.989,0.92c-0.368,0 -0.713,-0.161 -1.058,-0.621c-0.46,-0.575 -1.104,-0.966 -2.047,-0.966c-1.15,0 -1.84,0.575 -1.84,1.403c0,0.575 0.322,1.127 1.541,1.472l1.426,0.391c1.955,0.529 3.427,1.403 3.427,3.335c0,2.415 -2.277,3.634 -4.669,3.634c-2.001,0 -3.404,-0.874 -4.002,-1.817c-0.115,-0.161 -0.483,-0.621 -0.483,-1.173c0,-0.483 0.299,-0.989 0.943,-0.989c0.529,0 0.805,0.322 1.035,0.667c0.575,0.966 1.518,1.288 2.507,1.288c1.334,0 2.254,-0.552 2.254,-1.472c0,-0.69 -0.483,-1.196 -1.633,-1.518l-1.541,-0.414c-2.231,-0.621 -3.197,-1.817 -3.197,-3.381c0,-2.162 1.955,-3.404 4.186,-3.404c1.656,0 3.082,0.667 3.818,1.794z"/><path d="M335.11645,149.57614c0,0.943 -1.081,1.357 -2.369,1.357c-1.38,0 -2.737,-0.483 -2.737,-3.128v-6.992h-0.874c-0.598,0 -0.989,-0.391 -0.989,-0.989c0,-0.575 0.391,-0.966 0.989,-0.966h0.874v-1.794c0,-0.644 0.552,-1.196 1.196,-1.196c0.667,0 1.219,0.552 1.219,1.196v1.794h1.679c0.598,0 1.012,0.391 1.012,0.966c0,0.598 -0.414,0.989 -1.012,0.989h-1.679v7.015c0,0.69 0.276,1.012 0.805,1.012c0.299,0 0.644,-0.092 0.897,-0.115c0.575,-0.092 0.989,0.276 0.989,0.851z"/><path d="M337.18645,145.66614v-5.658c0,-0.667 0.529,-1.219 1.196,-1.219c0.667,0 1.219,0.552 1.219,1.219v5.658c0,2.3 1.311,3.22 2.806,3.22c2.208,0 3.174,-1.978 3.312,-2.967v-5.911c0,-0.667 0.552,-1.219 1.219,-1.219c0.667,0 1.219,0.552 1.219,1.219v9.683c0,0.69 -0.552,1.242 -1.219,1.242c-0.667,0 -1.219,-0.552 -1.219,-1.242v-1.518c-0.115,0.805 -1.495,2.806 -4.117,2.806c-2.231,0 -4.416,-1.403 -4.416,-5.313z"/><path d="M358.41545,139.87014c0,0.69 -0.529,1.15 -1.564,1.15c-2.024,0 -3.335,1.564 -3.496,2.783v5.911c0,0.667 -0.552,1.219 -1.219,1.219c-0.667,0 -1.219,-0.552 -1.219,-1.219v-9.683c0,-0.69 0.552,-1.242 1.219,-1.242c0.667,0 1.219,0.552 1.219,1.242v1.518c0.115,-0.805 1.564,-2.806 3.818,-2.806c0.805,0 1.242,0.506 1.242,1.127z"/><path d="M371.45645,144.05614v5.658c0,0.667 -0.529,1.219 -1.196,1.219c-0.667,0 -1.219,-0.552 -1.219,-1.219v-5.658c0,-2.3 -1.311,-3.22 -2.806,-3.22c-2.208,0 -3.174,1.978 -3.312,2.967v5.911c0,0.667 -0.552,1.219 -1.219,1.219c-0.667,0 -1.219,-0.552 -1.219,-1.219v-9.683c0,-0.69 0.552,-1.242 1.219,-1.242c0.667,0 1.219,0.552 1.219,1.242v1.518c0.115,-0.805 1.495,-2.806 4.117,-2.806c2.231,0 4.416,1.403 4.416,5.313z"/></g><g fill="#000000" fill-rule="evenodd" stroke="none" stroke-width="1" stroke-linecap="round" stroke-linejoin="round"><path d="M111.07355,135.93714v13.731c0,0.69 -0.575,1.288 -1.242,1.288c-0.713,0 -1.288,-0.598 -1.288,-1.288v-13.731c0,-0.69 0.575,-1.288 1.288,-1.288c0.667,0 1.242,0.598 1.242,1.288z"/><path d="M119.88255,149.57614c0,0.943 -1.081,1.357 -2.369,1.357c-1.38,0 -2.737,-0.483 -2.737,-3.128v-6.992h-0.874c-0.598,0 -0.989,-0.391 -0.989,-0.989c0,-0.575 0.391,-0.966 0.989,-0.966h0.874v-1.794c0,-0.644 0.552,-1.196 1.196,-1.196c0.667,0 1.219,0.552 1.219,1.196v1.794h1.679c0.598,0 1.012,0.391 1.012,0.966c0,0.598 -0.414,0.989 -1.012,0.989h-1.679v7.015c0,0.69 0.276,1.012 0.805,1.012c0.299,0 0.644,-0.092 0.897,-0.115c0.575,-0.092 0.989,0.276 0.989,0.851z"/><path d="M121.35455,139.24914l1.196,-3.565c0.253,-0.69 0.644,-0.966 1.265,-0.966h0.759c0.782,0 0.897,0.414 0.506,1.173l-1.817,3.611c-0.299,0.598 -0.759,0.713 -1.219,0.713h-0.138c-0.575,0 -0.759,-0.414 -0.552,-0.966z"/><path d="M135.17755,140.51414c0.138,0.207 0.322,0.46 0.322,0.851c0,0.575 -0.437,0.92 -0.989,0.92c-0.368,0 -0.713,-0.161 -1.058,-0.621c-0.46,-0.575 -1.104,-0.966 -2.047,-0.966c-1.15,0 -1.84,0.575 -1.84,1.403c0,0.575 0.322,1.127 1.541,1.472l1.426,0.391c1.955,0.529 3.427,1.403 3.427,3.335c0,2.415 -2.277,3.634 -4.669,3.634c-2.001,0 -3.404,-0.874 -4.002,-1.817c-0.115,-0.161 -0.483,-0.621 -0.483,-1.173c0,-0.483 0.299,-0.989 0.943,-0.989c0.529,0 0.805,0.322 1.035,0.667c0.575,0.966 1.518,1.288 2.507,1.288c1.334,0 2.254,-0.552 2.254,-1.472c0,-0.69 -0.483,-1.196 -1.633,-1.518l-1.541,-0.414c-2.231,-0.621 -3.197,-1.817 -3.197,-3.381c0,-2.162 1.955,-3.404 4.186,-3.404c1.656,0 3.082,0.667 3.818,1.794z"/><path d="M155.34845,139.89314c0,0.23 -0.069,0.391 -0.138,0.552l-6.141,14.03c-0.253,0.575 -0.69,0.828 -1.15,0.828c-0.644,0 -1.081,-0.506 -1.081,-1.104c0,-0.23 0.069,-0.391 0.138,-0.552l1.426,-3.289l-4.393,-9.913c-0.069,-0.161 -0.138,-0.322 -0.138,-0.552c0,-0.598 0.483,-1.104 1.127,-1.104c0.46,0 0.897,0.253 1.15,0.828l3.45,8.027l3.473,-8.027c0.253,-0.575 0.69,-0.828 1.15,-0.828c0.644,0 1.127,0.506 1.127,1.104z"/><path d="M169.07945,144.86113c0,4.117 -3.427,6.118 -6.072,6.118c-2.645,0 -6.049,-2.001 -6.049,-6.118c0,-4.094 3.404,-6.141 6.049,-6.141c2.645,0 6.072,2.047 6.072,6.141zM159.37345,144.86113c0,2.599 1.863,4.002 3.634,4.002c1.794,0 3.657,-1.403 3.657,-4.002c0,-2.622 -1.863,-4.025 -3.657,-4.025c-1.771,0 -3.634,1.403 -3.634,4.025z"/><path d="M171.37945,145.66614v-5.658c0,-0.667 0.529,-1.219 1.196,-1.219c0.667,0 1.219,0.552 1.219,1.219v5.658c0,2.3 1.311,3.22 2.806,3.22c2.208,0 3.174,-1.978 3.312,-2.967v-5.911c0,-0.667 0.552,-1.219 1.219,-1.219c0.667,0 1.219,0.552 1.219,1.219v9.683c0,0.69 -0.552,1.242 -1.219,1.242c-0.667,0 -1.219,-0.552 -1.219,-1.242v-1.518c-0.115,0.805 -1.495,2.806 -4.117,2.806c-2.231,0 -4.416,-1.403 -4.416,-5.313z"/><path d="M192.60845,139.87014c0,0.69 -0.529,1.15 -1.564,1.15c-2.024,0 -3.335,1.564 -3.496,2.783v5.911c0,0.667 -0.552,1.219 -1.219,1.219c-0.667,0 -1.219,-0.552 -1.219,-1.219v-9.683c0,-0.69 0.552,-1.242 1.219,-1.242c0.667,0 1.219,0.552 1.219,1.242v1.518c0.115,-0.805 1.564,-2.806 3.818,-2.806c0.805,0 1.242,0.506 1.242,1.127z"/><path d="M212.75645,144.86113c0,4.117 -3.427,6.118 -6.072,6.118c-2.645,0 -6.049,-2.001 -6.049,-6.118c0,-4.094 3.404,-6.141 6.049,-6.141c2.645,0 6.072,2.047 6.072,6.141zM203.05045,144.86113c0,2.599 1.863,4.002 3.634,4.002c1.794,0 3.657,-1.403 3.657,-4.002c0,-2.622 -1.863,-4.025 -3.657,-4.025c-1.771,0 -3.634,1.403 -3.634,4.025z"/><path d="M226.90145,144.83814c0,4.163 -3.059,6.141 -5.612,6.141c-2.185,0 -3.611,-1.449 -3.772,-2.484v1.242c0,0.069 0,0.161 -0.023,0.23v4.14c0,0.667 -0.552,1.219 -1.219,1.219c-0.667,0 -1.219,-0.552 -1.219,-1.219v-14.099c0,-0.667 0.575,-1.219 1.242,-1.219c0.667,0 1.219,0.552 1.219,1.219v0.92c0.598,-1.334 2.07,-2.208 3.772,-2.208c2.53,0 5.612,2.024 5.612,6.118zM224.46345,144.83814c0,-2.714 -1.886,-4.025 -3.565,-4.025c-1.564,0 -3.496,1.15 -3.496,4.025c0,2.852 1.932,4.048 3.496,4.048c1.679,0 3.565,-1.311 3.565,-4.048z"/><path d="M241.04645,144.83814c0,4.163 -3.059,6.141 -5.612,6.141c-2.185,0 -3.611,-1.449 -3.772,-2.484v1.242c0,0.069 0,0.161 -0.023,0.23v4.14c0,0.667 -0.552,1.219 -1.219,1.219c-0.667,0 -1.219,-0.552 -1.219,-1.219v-14.099c0,-0.667 0.575,-1.219 1.242,-1.219c0.667,0 1.219,0.552 1.219,1.219v0.92c0.598,-1.334 2.07,-2.208 3.772,-2.208c2.53,0 5.612,2.024 5.612,6.118zM238.60845,144.83814c0,-2.714 -1.886,-4.025 -3.565,-4.025c-1.564,0 -3.496,1.15 -3.496,4.025c0,2.852 1.932,4.048 3.496,4.048c1.679,0 3.565,-1.311 3.565,-4.048z"/><path d="M255.00745,144.86113c0,4.117 -3.427,6.118 -6.072,6.118c-2.645,0 -6.049,-2.001 -6.049,-6.118c0,-4.094 3.404,-6.141 6.049,-6.141c2.645,0 6.072,2.047 6.072,6.141zM245.30145,144.86113c0,2.599 1.863,4.002 3.634,4.002c1.794,0 3.657,-1.403 3.657,-4.002c0,-2.622 -1.863,-4.025 -3.657,-4.025c-1.771,0 -3.634,1.403 -3.634,4.025z"/><path d="M268.27845,144.05614v5.658c0,0.667 -0.529,1.219 -1.196,1.219c-0.667,0 -1.219,-0.552 -1.219,-1.219v-5.658c0,-2.3 -1.311,-3.22 -2.806,-3.22c-2.208,0 -3.174,1.978 -3.312,2.967v5.911c0,0.667 -0.552,1.219 -1.219,1.219c-0.667,0 -1.219,-0.552 -1.219,-1.219v-9.683c0,-0.69 0.552,-1.242 1.219,-1.242c0.667,0 1.219,0.552 1.219,1.242v1.518c0.115,-0.805 1.495,-2.806 4.117,-2.806c2.231,0 4.416,1.403 4.416,5.313z"/><path d="M282.30845,144.44714c0,0.943 -0.529,1.311 -1.518,1.311l-7.705,-0.023c0.253,2.139 1.932,3.197 3.772,3.197c0.943,0 1.587,-0.23 2.3,-0.667c0.391,-0.207 0.644,-0.368 0.966,-0.368c0.529,0 0.851,0.368 0.851,0.874c0,0.299 -0.115,0.621 -0.621,1.035c-0.874,0.713 -2.139,1.127 -3.588,1.127c-2.99,0 -6.187,-1.909 -6.187,-6.072c0,-4.14 3.335,-6.141 5.957,-6.141c2.622,0 5.773,2.07 5.773,5.727zM273.08545,143.98714h6.854c-0.207,-2.185 -1.863,-3.151 -3.404,-3.151c-1.518,0 -3.243,0.966 -3.45,3.151z"/><path d="M295.57945,144.05614v5.658c0,0.667 -0.529,1.219 -1.196,1.219c-0.667,0 -1.219,-0.552 -1.219,-1.219v-5.658c0,-2.3 -1.311,-3.22 -2.806,-3.22c-2.208,0 -3.174,1.978 -3.312,2.967v5.911c0,0.667 -0.552,1.219 -1.219,1.219c-0.667,0 -1.219,-0.552 -1.219,-1.219v-9.683c0,-0.69 0.552,-1.242 1.219,-1.242c0.667,0 1.219,0.552 1.219,1.242v1.518c0.115,-0.805 1.495,-2.806 4.117,-2.806c2.231,0 4.416,1.403 4.416,5.313z"/><path d="M304.38845,149.57614c0,0.943 -1.081,1.357 -2.369,1.357c-1.38,0 -2.737,-0.483 -2.737,-3.128v-6.992h-0.874c-0.598,0 -0.989,-0.391 -0.989,-0.989c0,-0.575 0.391,-0.966 0.989,-0.966h0.874v-1.794c0,-0.644 0.552,-1.196 1.196,-1.196c0.667,0 1.219,0.552 1.219,1.196v1.794h1.679c0.598,0 1.012,0.391 1.012,0.966c0,0.598 -0.414,0.989 -1.012,0.989h-1.679v7.015c0,0.69 0.276,1.012 0.805,1.012c0.299,0 0.644,-0.092 0.897,-0.115c0.575,-0.092 0.989,0.276 0.989,0.851z"/><path d="M305.86045,139.24914l1.196,-3.565c0.253,-0.69 0.644,-0.83794 1.265,-0.83794l0.759,-0.12806c0.782,0 0.897,0.414 0.506,1.173l-1.817,3.611c-0.299,0.598 -0.759,0.58494 -1.219,0.58494l-0.138,0.12806c-0.575,0 -0.759,-0.414 -0.552,-0.966z"/><path d="M319.68345,140.51414c0.138,0.207 0.322,0.46 0.322,0.851c0,0.575 -0.437,0.92 -0.989,0.92c-0.368,0 -0.713,-0.161 -1.058,-0.621c-0.46,-0.575 -1.104,-0.966 -2.047,-0.966c-1.15,0 -1.84,0.575 -1.84,1.403c0,0.575 0.322,1.127 1.541,1.472l1.426,0.391c1.955,0.529 3.427,1.403 3.427,3.335c0,2.415 -2.277,3.634 -4.669,3.634c-2.001,0 -3.404,-0.874 -4.002,-1.817c-0.115,-0.161 -0.483,-0.621 -0.483,-1.173c0,-0.483 0.299,-0.989 0.943,-0.989c0.529,0 0.805,0.322 1.035,0.667c0.575,0.966 1.518,1.288 2.507,1.288c1.334,0 2.254,-0.552 2.254,-1.472c0,-0.69 -0.483,-1.196 -1.633,-1.518l-1.541,-0.414c-2.231,-0.621 -3.197,-1.817 -3.197,-3.381c0,-2.162 1.955,-3.404 4.186,-3.404c1.656,0 3.082,0.667 3.818,1.794z"/><path d="M335.11645,149.57614c0,0.943 -1.081,1.357 -2.369,1.357c-1.38,0 -2.737,-0.483 -2.737,-3.128v-6.992h-0.874c-0.598,0 -0.989,-0.391 -0.989,-0.989c0,-0.575 0.391,-0.966 0.989,-0.966h0.874v-1.794c0,-0.644 0.552,-1.196 1.196,-1.196c0.667,0 1.219,0.552 1.219,1.196v1.794h1.679c0.598,0 1.012,0.391 1.012,0.966c0,0.598 -0.414,0.989 -1.012,0.989h-1.679v7.015c0,0.69 0.276,1.012 0.805,1.012c0.299,0 0.644,-0.092 0.897,-0.115c0.575,-0.092 0.989,0.276 0.989,0.851z"/><path d="M337.18645,145.66614v-5.658c0,-0.667 0.529,-1.219 1.196,-1.219c0.667,0 1.219,0.552 1.219,1.219v5.658c0,2.3 1.311,3.22 2.806,3.22c2.208,0 3.174,-1.978 3.312,-2.967v-5.911c0,-0.667 0.552,-1.219 1.219,-1.219c0.667,0 1.219,0.552 1.219,1.219v9.683c0,0.69 -0.552,1.242 -1.219,1.242c-0.667,0 -1.219,-0.552 -1.219,-1.242v-1.518c-0.115,0.805 -1.495,2.806 -4.117,2.806c-2.231,0 -4.416,-1.403 -4.416,-5.313z"/><path d="M358.41545,139.87014c0,0.69 -0.529,1.15 -1.564,1.15c-2.024,0 -3.335,1.564 -3.496,2.783v5.911c0,0.667 -0.552,1.219 -1.219,1.219c-0.667,0 -1.219,-0.552 -1.219,-1.219v-9.683c0,-0.69 0.552,-1.242 1.219,-1.242c0.667,0 1.219,0.552 1.219,1.242v1.518c0.115,-0.805 1.564,-2.806 3.818,-2.806c0.805,0 1.242,0.506 1.242,1.127z"/><path d="M371.45645,144.05614v5.658c0,0.667 -0.529,1.219 -1.196,1.219c-0.667,0 -1.219,-0.552 -1.219,-1.219v-5.658c0,-2.3 -1.311,-3.22 -2.806,-3.22c-2.208,0 -3.174,1.978 -3.312,2.967v5.911c0,0.667 -0.552,1.219 -1.219,1.219c-0.667,0 -1.219,-0.552 -1.219,-1.219v-9.683c0,-0.69 0.552,-1.242 1.219,-1.242c0.667,0 1.219,0.552 1.219,1.242v1.518c0.115,-0.805 1.495,-2.806 4.117,-2.806c2.231,0 4.416,1.403 4.416,5.313z"/></g><path d="M82.52572,172.78487v-55.44978h312.11936v55.44978z" fill="none" fill-rule="nonzero" stroke="none" stroke-width="NaN" stroke-linecap="butt" stroke-linejoin="miter"/></g></g></svg>