<svg version="1.1" xmlns="http://www.w3.org/2000/svg" xmlns:xlink="http://www.w3.org/1999/xlink" width="267.69219" height="220.88147" viewBox="0,0,267.69219,220.88147"><defs><linearGradient x1="136.92875" y1="148.64893" x2="189.07232" y2="148.64893" gradientUnits="userSpaceOnUse" id="color-1"><stop offset="0" stop-color="#02ca41" stop-opacity="0"/><stop offset="1" stop-color="#02ca41"/></linearGradient></defs><g transform="translate(-2.89019,1.38924)"><g data-paper-data="{&quot;isPaintingLayer&quot;:true}" stroke-miterlimit="10" stroke-dasharray="" stroke-dashoffset="0" style="mix-blend-mode: normal"><path d="M106.17801,104.38689l-101.88447,-0.2769l0.78785,-92.67955l38.34357,-0.10973l35.15189,32.8248l29.57081,0.70877l46.91656,-46.24352l48.44136,0.81893l-0.06679,29.9211l64.52847,65.30096l-0.02871,118.33168l-56.31299,0.96479l-0.70123,-43.67214l-103.12283,-1.47037zM149.25923,121.23515l40.60448,-0.12759l0.20149,-41.9208l-40.60448,1.77299z" fill="#04b33b" fill-rule="nonzero" stroke="none" stroke-width="0" stroke-linecap="butt" stroke-linejoin="miter"/><path d="M147.11034,122.50826h45.94942v4.51853l-45.9363,0.05761z" data-paper-data="{&quot;index&quot;:null}" fill="#000000" fill-rule="evenodd" stroke="none" stroke-width="1" stroke-linecap="round" stroke-linejoin="round" opacity="0.21849"/><path d="M104.65034,170.22226h105.9216v4.51853l-105.89136,0.05761z" data-paper-data="{&quot;index&quot;:null}" fill="#000000" fill-rule="evenodd" stroke="none" stroke-width="1" stroke-linecap="round" stroke-linejoin="round" opacity="0.21849"/><path d="M208.66916,214.91609h61.91323v4.51853l-61.89556,0.05761z" data-paper-data="{&quot;index&quot;:null}" fill="#000000" fill-rule="evenodd" stroke="none" stroke-width="1" stroke-linecap="round" stroke-linejoin="round" opacity="0.21849"/><path d="M201.1654,35.30863l-0.0597,-9.16396l66.96487,68.61585l-1.31692,6.40312z" data-paper-data="{&quot;index&quot;:null}" fill="#000000" fill-rule="evenodd" stroke="none" stroke-width="1" stroke-linecap="round" stroke-linejoin="round" opacity="0.21849"/><path d="M154.01095,1.18852l2.05705,4.00642l-45.03744,45.54483l-2.31667,-3.79048z" data-paper-data="{&quot;index&quot;:null}" fill="#000000" fill-rule="evenodd" stroke="none" stroke-width="1" stroke-linecap="round" stroke-linejoin="round" opacity="0.21849"/><path d="M76.45557,47.22049l-1.50089,3.33109l-33.16559,-33.76017l0.88755,-5.00324z" data-paper-data="{&quot;index&quot;:null}" fill="#000000" fill-rule="evenodd" stroke="none" stroke-width="1" stroke-linecap="round" stroke-linejoin="round" opacity="0.21849"/><path d="M2.8902,105.32663h105.31871v4.51853l-105.28863,0.05761z" data-paper-data="{&quot;index&quot;:null}" fill="#000000" fill-rule="evenodd" stroke="none" stroke-width="1" stroke-linecap="round" stroke-linejoin="round" opacity="0.21849"/><path d="M8.10592,12.17072h34.78004l-1.2341,4.51853l-33.53586,0.05761z" data-paper-data="{&quot;index&quot;:null}" fill="#000000" fill-rule="evenodd" stroke="none" stroke-width="1" stroke-linecap="round" stroke-linejoin="round" opacity="0.21849"/><path d="M152.79904,0.12826l49.47435,0.21573v4.51853l-46.36732,0.05761z" data-paper-data="{&quot;index&quot;:null}" fill="#000000" fill-rule="evenodd" stroke="none" stroke-width="1" stroke-linecap="round" stroke-linejoin="round" opacity="0.21849"/><path d="M148.59606,81.27999l42.06633,0.21572v4.51853l-42.05277,0.05761z" data-paper-data="{&quot;index&quot;:null}" fill="#000000" fill-rule="evenodd" stroke="none" stroke-width="1" stroke-linecap="round" stroke-linejoin="round" opacity="0.21849"/><path d="M189.07232,170.30198h-37.99205v-43.30617h37.99205z" data-paper-data="{&quot;index&quot;:null}" fill="url(#color-1)" fill-rule="nonzero" stroke="none" stroke-width="0" stroke-linecap="butt" stroke-linejoin="miter"/><g data-paper-data="{&quot;index&quot;:null}" fill-rule="nonzero" stroke-linejoin="miter"><g fill="none" stroke="#51da7c" stroke-width="2" stroke-linecap="round"><path d="M172.45879,144.12841l-4.90079,3.61166" data-paper-data="{&quot;index&quot;:null}"/><path d="M172.35813,151.56809l-4.82178,-3.78576" data-paper-data="{&quot;index&quot;:null}"/><path d="M172.54833,144.12259l-0.1155,7.37379" data-paper-data="{&quot;index&quot;:null}"/></g><path d="M172.80346,150.76578l-4.94941,-2.96794l4.73069,-3.18132z" fill="#51da7c" stroke="none" stroke-width="0" stroke-linecap="butt"/></g><path d="M76.35218,46.3182h32.25973l2.35974,4.35394l-36.01678,0.05761z" data-paper-data="{&quot;index&quot;:null}" fill="#000000" fill-rule="evenodd" stroke="none" stroke-width="1" stroke-linecap="round" stroke-linejoin="round" opacity="0.21849"/></g></g></svg>