<svg width="480px" height="360px" xmlns="http://www.w3.org/2000/svg"><path fill="#F00" d="M245.198 176.618L245.198 179.869Q245.198 180.985 245.839 181.488Q246.479 181.992 247.715 182.014L247.715 182.014L247.715 183.546Q245.636 183.524 244.498 182.594Q243.360 181.663 243.360 179.978L243.360 179.978L243.360 176.662Q243.360 175.524 242.670 175.037Q241.981 174.550 240.668 174.550L240.668 174.550L240.668 173.007Q242.090 172.985 242.725 172.482Q243.360 171.978 243.360 170.927L243.360 170.927L243.360 167.579Q243.360 165.882 244.542 164.941Q245.724 164 247.715 164L247.715 164L247.715 165.521Q245.198 165.587 245.198 167.699L245.198 167.699L245.198 170.927Q245.198 173.280 242.758 173.707L242.758 173.707L242.758 173.839Q245.198 174.265 245.198 176.618L245.198 176.618Z"/></svg>