<svg width="480px" height="360px" xmlns="http://www.w3.org/2000/svg"><path fill="#F00" d="M244.220 180L242.195 180L242.195 164L246.756 164Q248.098 164 249.207 164.244Q250.317 164.488 251.098 165.037Q251.878 165.585 252.317 166.488Q252.756 167.390 252.756 168.707L252.756 168.707Q252.756 169.976 252.329 170.902Q251.902 171.829 251.122 172.439Q250.341 173.049 249.256 173.354Q248.171 173.659 246.854 173.659L246.854 173.659L244.220 173.659L244.220 180ZM244.220 165.634L244.220 172L246.610 172Q248.707 172 249.720 171.207Q250.732 170.415 250.732 168.707L250.732 168.707Q250.732 166.976 249.671 166.305Q248.610 165.634 246.512 165.634L246.512 165.634L244.220 165.634Z"/></svg>