<svg width="480px" height="360px" xmlns="http://www.w3.org/2000/svg"><path fill="#F00" d="M243.677 174.397L243.677 174.397Q243.086 174.397 242.391 174.747Q241.696 175.097 241.073 175.721L241.073 175.721L241.073 174.079Q242.254 172.876 243.874 172.876L243.874 172.876Q244.607 172.876 245.220 173.029Q245.833 173.182 246.796 173.587L246.796 173.587Q247.639 173.948 248.137 174.085Q248.635 174.222 249.127 174.222L249.127 174.222Q249.707 174.222 250.408 173.860Q251.108 173.499 251.699 172.876L251.699 172.876L251.699 174.528Q250.594 175.721 248.919 175.721L248.919 175.721Q248.186 175.721 247.579 175.562Q246.971 175.404 246.008 174.999L246.008 174.999Q245.209 174.670 244.711 174.534Q244.213 174.397 243.677 174.397ZM243.677 169.953L243.677 169.953Q243.053 169.953 242.353 170.326Q241.653 170.698 241.073 171.278L241.073 171.278L241.073 169.647Q242.233 168.454 243.874 168.454L243.874 168.454Q244.629 168.454 245.264 168.629Q245.899 168.804 246.796 169.176L246.796 169.176Q247.551 169.494 248.071 169.636Q248.591 169.778 249.127 169.778L249.127 169.778Q249.729 169.778 250.435 169.417Q251.141 169.056 251.699 168.454L251.699 168.454L251.699 170.096Q250.605 171.300 248.919 171.300L248.919 171.300Q248.164 171.300 247.518 171.124Q246.873 170.949 246.008 170.588L246.008 170.588Q245.089 170.216 244.624 170.085Q244.159 169.953 243.677 169.953Z"/></svg>