<svg width="480px" height="360px" xmlns="http://www.w3.org/2000/svg"><path fill="#F00" d="M247.098 178.659L247.098 178.659Q248.390 178.659 249.451 177.915Q250.512 177.171 251.268 176Q252.024 174.829 252.439 173.390Q252.854 171.951 252.854 170.561L252.854 170.561Q252.854 168.195 251.951 166.768Q251.049 165.341 249.146 165.341L249.146 165.341Q247.854 165.341 246.793 166.073Q245.732 166.805 244.976 167.976Q244.220 169.146 243.805 170.585Q243.390 172.024 243.390 173.439L243.390 173.439Q243.390 174.610 243.610 175.573Q243.829 176.537 244.280 177.220Q244.732 177.902 245.439 178.280Q246.146 178.659 247.098 178.659ZM251.195 183.951L251.195 183.951Q249.146 183.951 247.683 183.037Q246.220 182.122 245.610 180.146L245.610 180.146Q243.561 179.683 242.512 177.951Q241.463 176.220 241.463 173.585L241.463 173.585Q241.463 171.756 242.037 169.988Q242.610 168.220 243.634 166.817Q244.659 165.415 246.085 164.561Q247.512 163.707 249.244 163.707L249.244 163.707Q250.585 163.707 251.622 164.183Q252.659 164.659 253.354 165.537Q254.049 166.415 254.415 167.646Q254.780 168.878 254.780 170.390L254.780 170.390Q254.780 172.146 254.256 173.866Q253.732 175.585 252.780 176.951Q251.829 178.317 250.500 179.220Q249.171 180.122 247.561 180.268L247.561 180.268Q247.976 181.341 249 181.854Q250.024 182.366 251.317 182.366L251.317 182.366Q251.683 182.366 252 182.317Q252.317 182.268 252.659 182.195L252.659 182.195L252.780 183.683Q251.976 183.951 251.195 183.951Z"/></svg>