<svg width="480px" height="360px" xmlns="http://www.w3.org/2000/svg"><path fill="#F00" d="M240.780 185.293L240.780 185.293Q240.220 185.293 239.780 185.195Q239.341 185.098 239.024 184.976L239.024 184.976L239.439 183.463Q239.659 183.537 239.951 183.598Q240.244 183.659 240.561 183.659L240.561 183.659Q241.439 183.659 241.732 183.049Q242.024 182.439 242.024 181.341L242.024 181.341L242.024 168.146L244.024 168.146L244.024 181.341Q244.024 183.146 243.293 184.220Q242.561 185.293 240.780 185.293ZM243.049 165.707L243.049 165.707Q242.463 165.707 242.061 165.341Q241.659 164.976 241.659 164.415L241.659 164.415Q241.659 163.829 242.061 163.476Q242.463 163.122 243.049 163.122L243.049 163.122Q243.610 163.122 244.012 163.476Q244.415 163.829 244.415 164.415L244.415 164.415Q244.415 164.976 244.012 165.341Q243.610 165.707 243.049 165.707Z"/></svg>