<svg width="480px" height="360px" xmlns="http://www.w3.org/2000/svg"><path fill="#F00" d="M247.313 183.730L245.767 183.730Q244.147 183.730 243.387 182.982Q242.626 182.233 242.626 180.245L242.626 180.245Q242.626 179.583 242.663 179.067Q242.699 178.552 242.748 178.074Q242.798 177.595 242.834 177.117Q242.871 176.638 242.871 176.049L242.871 176.049Q242.871 175.730 242.761 175.411Q242.650 175.092 242.405 174.834Q242.160 174.577 241.755 174.417Q241.350 174.258 240.761 174.233L240.761 174.233L240.761 172.123Q241.350 172.098 241.755 171.939Q242.160 171.779 242.405 171.521Q242.650 171.264 242.761 170.945Q242.871 170.626 242.871 170.307L242.871 170.307Q242.871 169.718 242.834 169.239Q242.798 168.761 242.748 168.282Q242.699 167.804 242.663 167.288Q242.626 166.773 242.626 166.110L242.626 166.110Q242.626 164.123 243.387 163.374Q244.147 162.626 245.767 162.626L245.767 162.626L247.313 162.626L247.313 164.540L246.847 164.540Q246.086 164.540 245.816 164.896Q245.546 165.252 245.546 166.258L245.546 166.258Q245.546 167.264 245.595 168.196Q245.644 169.129 245.644 170.258L245.644 170.258Q245.644 171.656 245.202 172.282Q244.761 172.908 243.828 173.129L243.828 173.129L243.828 173.227Q244.761 173.448 245.202 174.074Q245.644 174.699 245.644 176.098L245.644 176.098Q245.644 177.227 245.595 178.160Q245.546 179.092 245.546 180.098L245.546 180.098Q245.546 181.104 245.816 181.460Q246.086 181.816 246.847 181.816L246.847 181.816L247.313 181.816L247.313 183.730Z"/></svg>