<svg width="480px" height="360px" xmlns="http://www.w3.org/2000/svg"><path fill="#F00" d="M242.675 183.730L241.129 183.730L241.129 181.816L241.595 181.816Q242.356 181.816 242.626 181.460Q242.896 181.104 242.896 180.098L242.896 180.098Q242.896 179.092 242.847 178.160Q242.798 177.227 242.798 176.098L242.798 176.098Q242.798 174.699 243.239 174.074Q243.681 173.448 244.613 173.227L244.613 173.227L244.613 173.129Q243.681 172.908 243.239 172.282Q242.798 171.656 242.798 170.258L242.798 170.258Q242.798 169.129 242.847 168.196Q242.896 167.264 242.896 166.258L242.896 166.258Q242.896 165.252 242.626 164.896Q242.356 164.540 241.595 164.540L241.595 164.540L241.129 164.540L241.129 162.626L242.675 162.626Q244.294 162.626 245.055 163.374Q245.816 164.123 245.816 166.110L245.816 166.110Q245.816 166.773 245.779 167.288Q245.742 167.804 245.693 168.282Q245.644 168.761 245.607 169.239Q245.571 169.718 245.571 170.307L245.571 170.307Q245.571 170.626 245.681 170.945Q245.791 171.264 246.037 171.521Q246.282 171.779 246.687 171.939Q247.092 172.098 247.681 172.123L247.681 172.123L247.681 174.233Q247.092 174.258 246.687 174.417Q246.282 174.577 246.037 174.834Q245.791 175.092 245.681 175.411Q245.571 175.730 245.571 176.049L245.571 176.049Q245.571 176.638 245.607 177.117Q245.644 177.595 245.693 178.074Q245.742 178.552 245.779 179.067Q245.816 179.583 245.816 180.245L245.816 180.245Q245.816 182.233 245.055 182.982Q244.294 183.730 242.675 183.730L242.675 183.730Z"/></svg>