<svg width="480px" height="360px" xmlns="http://www.w3.org/2000/svg"><path fill="#F00" d="M249.390 180L239.756 180L239.951 178.878Q242.293 176.902 244.024 175.415Q245.756 173.927 246.902 172.707Q248.049 171.488 248.622 170.427Q249.195 169.366 249.195 168.220L249.195 168.220Q249.195 167.146 248.573 166.415Q247.951 165.683 246.659 165.683L246.659 165.683Q245.878 165.683 245.085 166.085Q244.293 166.488 243.463 167.244L243.463 167.244L242.512 166.073Q243.585 165.146 244.646 164.646Q245.707 164.146 246.878 164.146L246.878 164.146Q247.878 164.146 248.646 164.427Q249.415 164.707 249.951 165.220Q250.488 165.732 250.756 166.439Q251.024 167.146 251.024 167.976L251.024 167.976Q251.024 169.268 250.512 170.402Q250 171.537 249 172.732Q248 173.927 246.476 175.280Q244.951 176.634 242.951 178.390L242.951 178.390L249.683 178.390L249.390 180Z"/></svg>