<svg width="480px" height="360px" xmlns="http://www.w3.org/2000/svg"><path fill="#F00" d="M242.854 178.585L242.805 178.585L242.366 181.122L241.610 185L239.756 185L243.122 168.146L244.659 168.146L244.512 169.707L244.585 169.707Q245.488 168.951 246.524 168.402Q247.561 167.854 248.683 167.854L248.683 167.854Q250.244 167.854 251.171 168.963Q252.098 170.073 252.098 172.146L252.098 172.146Q252.098 173.854 251.561 175.341Q251.024 176.829 250.134 177.927Q249.244 179.024 248.085 179.659Q246.927 180.293 245.707 180.293L245.707 180.293Q244.780 180.293 244.049 179.817Q243.317 179.341 242.854 178.585L242.854 178.585ZM248 169.415L248 169.415Q247.171 169.415 246.183 169.927Q245.195 170.439 244.341 171.366L244.341 171.366L243.220 177.024Q243.707 177.951 244.317 178.341Q244.927 178.732 245.634 178.732L245.634 178.732Q246.512 178.732 247.341 178.207Q248.171 177.683 248.793 176.805Q249.415 175.927 249.793 174.793Q250.171 173.659 250.171 172.415L250.171 172.415Q250.171 170.902 249.598 170.159Q249.024 169.415 248 169.415Z"/></svg>