<svg width="480px" height="360px" xmlns="http://www.w3.org/2000/svg"><path fill="#F00" d="M243.656 171.706L243.656 171.706Q242.503 171.706 241.926 170.859Q241.350 170.012 241.350 168.491L241.350 168.491Q241.350 166.748 242.209 165.423Q243.067 164.098 244.834 163.239L244.834 163.239L245.620 164.810Q244.515 165.374 243.963 166.098Q243.411 166.822 243.411 167.926L243.411 167.926Q243.485 167.902 243.656 167.902L243.656 167.902Q244.442 167.902 244.994 168.380Q245.546 168.859 245.546 169.693L245.546 169.693Q245.546 170.626 245.006 171.166Q244.466 171.706 243.656 171.706Z"/></svg>