<svg width="480px" height="360px" xmlns="http://www.w3.org/2000/svg"><path fill="#F00" d="M247.656 182.699L245.276 182.699L245.276 180.245Q244.196 180.123 243.006 179.644Q241.816 179.166 240.957 178.380L240.957 178.380L242.528 175.951Q243.460 176.663 244.307 177.018Q245.153 177.374 246.037 177.374L246.037 177.374Q247.067 177.374 247.546 176.957Q248.025 176.540 248.025 175.681L248.025 175.681Q248.025 175.043 247.546 174.601Q247.067 174.160 246.344 173.755Q245.620 173.350 244.785 172.945Q243.951 172.540 243.227 171.975Q242.503 171.411 242.025 170.650Q241.546 169.890 241.546 168.785L241.546 168.785Q241.546 166.969 242.540 165.779Q243.534 164.589 245.276 164.245L245.276 164.245L245.276 161.718L247.656 161.718L247.656 164.196Q248.834 164.368 249.718 164.908Q250.601 165.448 251.313 166.209L251.313 166.209L249.497 168.270Q248.834 167.656 248.221 167.350Q247.607 167.043 246.822 167.043L246.822 167.043Q245.939 167.043 245.472 167.411Q245.006 167.779 245.006 168.613L245.006 168.613Q245.006 169.202 245.485 169.607Q245.963 170.012 246.687 170.380Q247.411 170.748 248.245 171.141Q249.080 171.534 249.804 172.098Q250.528 172.663 251.006 173.460Q251.485 174.258 251.485 175.436L251.485 175.436Q251.485 177.202 250.528 178.466Q249.571 179.730 247.656 180.147L247.656 180.147L247.656 182.699Z"/></svg>