<svg width="480px" height="360px" xmlns="http://www.w3.org/2000/svg"><path fill="#F00" d="M249.663 176.728L249.663 176.728Q249.663 178.402 248.416 179.311Q247.168 180.219 244.914 180.219L244.914 180.219Q242.528 180.219 241.193 179.464L241.193 179.464L241.193 177.778Q242.057 178.216 243.048 178.468Q244.038 178.720 244.958 178.720L244.958 178.720Q246.380 178.720 247.146 178.265Q247.912 177.811 247.912 176.881L247.912 176.881Q247.912 176.181 247.305 175.683Q246.698 175.185 244.936 174.506L244.936 174.506Q243.261 173.882 242.555 173.417Q241.850 172.952 241.505 172.361Q241.160 171.770 241.160 170.949L241.160 170.949Q241.160 169.483 242.353 168.635Q243.546 167.787 245.625 167.787L245.625 167.787Q247.562 167.787 249.412 168.575L249.412 168.575L248.766 170.052Q246.960 169.308 245.494 169.308L245.494 169.308Q244.202 169.308 243.546 169.713Q242.889 170.118 242.889 170.829L242.889 170.829Q242.889 171.311 243.135 171.650Q243.382 171.989 243.929 172.295Q244.476 172.602 246.030 173.182L246.030 173.182Q248.164 173.959 248.914 174.747Q249.663 175.535 249.663 176.728Z"/></svg>