<svg width="480px" height="360px" xmlns="http://www.w3.org/2000/svg"><path fill="#F00" d="M241.634 184.146L241.634 184.146L241.146 182.976Q242.195 182.512 242.780 181.744Q243.366 180.976 243.341 180L243.341 180Q243.268 180.024 243.098 180.024L243.098 180.024Q242.512 180.024 242.085 179.671Q241.659 179.317 241.659 178.634L241.659 178.634Q241.659 177.976 242.098 177.598Q242.537 177.220 243.146 177.220L243.146 177.220Q243.927 177.220 244.378 177.854Q244.829 178.488 244.829 179.585L244.829 179.585Q244.829 181.171 243.976 182.341Q243.122 183.512 241.634 184.146Z"/></svg>