<svg width="480px" height="360px" xmlns="http://www.w3.org/2000/svg"><path fill="#F00" d="M246.479 180.294L246.479 180.294Q245.227 180.294 244.196 179.767Q243.166 179.239 242.442 178.209Q241.718 177.178 241.313 175.656Q240.908 174.135 240.908 172.147L240.908 172.147Q240.908 170.160 241.313 168.663Q241.718 167.166 242.442 166.147Q243.166 165.129 244.196 164.626Q245.227 164.123 246.479 164.123L246.479 164.123Q247.730 164.123 248.761 164.626Q249.791 165.129 250.515 166.147Q251.239 167.166 251.644 168.663Q252.049 170.160 252.049 172.147L252.049 172.147Q252.049 174.135 251.644 175.656Q251.239 177.178 250.515 178.209Q249.791 179.239 248.761 179.767Q247.730 180.294 246.479 180.294ZM246.479 177.497L246.479 177.497Q246.945 177.497 247.337 177.264Q247.730 177.031 248.025 176.417Q248.319 175.804 248.479 174.773Q248.638 173.742 248.638 172.147L248.638 172.147Q248.638 170.552 248.479 169.534Q248.319 168.515 248.025 167.939Q247.730 167.362 247.337 167.141Q246.945 166.920 246.479 166.920L246.479 166.920Q246.037 166.920 245.644 167.141Q245.252 167.362 244.957 167.939Q244.663 168.515 244.491 169.534Q244.319 170.552 244.319 172.147L244.319 172.147Q244.319 173.742 244.491 174.773Q244.663 175.804 244.957 176.417Q245.252 177.031 245.644 177.264Q246.037 177.497 246.479 177.497Z"/></svg>