<svg width="480px" height="360px" xmlns="http://www.w3.org/2000/svg"><path fill="#F00" d="M245.800 178.720L245.800 178.720Q246.282 178.720 246.731 178.648Q247.179 178.577 247.442 178.501L247.442 178.501L247.442 179.891Q247.146 180.033 246.572 180.126Q245.997 180.219 245.538 180.219L245.538 180.219Q242.057 180.219 242.057 176.553L242.057 176.553L242.057 169.417L240.339 169.417L240.339 168.542L242.057 167.787L242.824 165.226L243.874 165.226L243.874 168.005L247.354 168.005L247.354 169.417L243.874 169.417L243.874 176.476Q243.874 177.560 244.389 178.140Q244.903 178.720 245.800 178.720Z"/></svg>