<svg width="480px" height="360px" xmlns="http://www.w3.org/2000/svg"><path fill="#F00" d="M243.681 172.344L243.681 172.344Q242.748 172.344 242.123 171.693Q241.497 171.043 241.497 170.086L241.497 170.086Q241.497 169.104 242.123 168.454Q242.748 167.804 243.681 167.804L243.681 167.804Q244.613 167.804 245.239 168.454Q245.865 169.104 245.865 170.086L245.865 170.086Q245.865 171.043 245.239 171.693Q244.613 172.344 243.681 172.344ZM243.681 180.294L243.681 180.294Q242.748 180.294 242.123 179.644Q241.497 178.994 241.497 178.037L241.497 178.037Q241.497 177.055 242.123 176.405Q242.748 175.755 243.681 175.755L243.681 175.755Q244.613 175.755 245.239 176.405Q245.865 177.055 245.865 178.037L245.865 178.037Q245.865 178.994 245.239 179.644Q244.613 180.294 243.681 180.294Z"/></svg>