<svg width="480px" height="360px" xmlns="http://www.w3.org/2000/svg"><path fill="#F00" d="M244 180L242 180L242 168.146L243.659 168.146L243.829 169.854L243.902 169.854Q244.683 169 245.598 168.427Q246.512 167.854 247.585 167.854L247.585 167.854Q248.951 167.854 249.720 168.451Q250.488 169.049 250.854 170.122L250.854 170.122Q251.780 169.098 252.720 168.476Q253.659 167.854 254.756 167.854L254.756 167.854Q256.585 167.854 257.476 169.024Q258.366 170.195 258.366 172.488L258.366 172.488L258.366 180L256.366 180L256.366 172.756Q256.366 171.073 255.829 170.329Q255.293 169.585 254.171 169.585L254.171 169.585Q252.829 169.585 251.195 171.415L251.195 171.415L251.195 180L249.195 180L249.195 172.756Q249.195 171.073 248.659 170.329Q248.122 169.585 246.976 169.585L246.976 169.585Q245.634 169.585 244 171.415L244 171.415L244 180Z"/></svg>