<svg width="480px" height="360px" xmlns="http://www.w3.org/2000/svg"><path fill="#F00" d="M243.268 171.293L243.268 171.293Q242.732 171.293 242.427 170.951Q242.122 170.610 242.122 170.073L242.122 170.073Q242.122 169.439 242.585 168.902Q243.049 168.366 243.756 168.366L243.756 168.366Q244.293 168.366 244.585 168.720Q244.878 169.073 244.878 169.610L244.878 169.610Q244.878 170.244 244.427 170.768Q243.976 171.293 243.268 171.293ZM241.707 180.293L241.707 180.293Q241.171 180.293 240.866 179.951Q240.561 179.610 240.561 179.073L240.561 179.073Q240.561 178.439 241.024 177.902Q241.488 177.366 242.195 177.366L242.195 177.366Q242.732 177.366 243.024 177.720Q243.317 178.073 243.317 178.610L243.317 178.610Q243.317 179.244 242.866 179.768Q242.415 180.293 241.707 180.293Z"/></svg>