<svg width="480px" height="360px" xmlns="http://www.w3.org/2000/svg"><path fill="#F00" d="M251.024 180L240.976 180L240.976 178.805Q242.732 177.049 244.098 175.634Q245.463 174.220 246.390 173.012Q247.317 171.805 247.805 170.793Q248.293 169.780 248.293 168.829L248.293 168.829Q248.293 167.488 247.561 166.634Q246.829 165.780 245.341 165.780L245.341 165.780Q244.366 165.780 243.537 166.329Q242.707 166.878 242.024 167.659L242.024 167.659L240.878 166.512Q241.854 165.439 242.951 164.793Q244.049 164.146 245.585 164.146L245.585 164.146Q247.756 164.146 249 165.402Q250.244 166.659 250.244 168.732L250.244 168.732Q250.244 169.829 249.768 170.939Q249.293 172.049 248.451 173.232Q247.610 174.415 246.451 175.695Q245.293 176.976 243.902 178.415L243.902 178.415Q244.537 178.366 245.220 178.317Q245.902 178.268 246.512 178.268L246.512 178.268L251.024 178.268L251.024 180Z"/></svg>