<svg version="1.1" xmlns="http://www.w3.org/2000/svg" xmlns:xlink="http://www.w3.org/1999/xlink" width="85.59804" height="121.3379" viewBox="0,0,85.59804,121.3379"><defs><linearGradient x1="239.99887" y1="177.7969" x2="239.99887" y2="185.53241" gradientUnits="userSpaceOnUse" id="color-1"><stop offset="0" stop-color="#e8e8e8"/><stop offset="1" stop-color="#e8e8e8" stop-opacity="0"/></linearGradient></defs><g transform="translate(-203.8064,-86.78262)"><g data-paper-data="{&quot;isPaintingLayer&quot;:true}" fill-rule="nonzero" stroke-linecap="butt" stroke-linejoin="miter" stroke-miterlimit="10" stroke-dasharray="" stroke-dashoffset="0" style="mix-blend-mode: normal"><path d="M241.89456,123.96073c0,0 -0.55466,0.34319 -0.57956,-0.13354c-0.1308,-2.50457 0.00171,-11.08685 0.02363,-12.69697c0.00819,-0.60182 0.55593,-0.38613 0.55593,-0.38613l19.5877,6.52044c0,0 0.39719,0.16491 0.08677,0.26637c-1.86856,0.61076 -19.67447,6.42983 -19.67447,6.42983z" fill="#fe0504" stroke="#fe0504" stroke-width="3.5"/><path d="M238.28645,177.94132v-71.61989c0,0 0.02063,-2.26606 1.69116,-2.26606c1.67053,0 1.78617,2.26606 1.78617,2.26606v71.61989z" fill="#e8e8e8" stroke="none" stroke-width="0"/><path d="M238.26019,185.53241v-7.73551h3.47733v7.73551z" fill="url(#color-1)" stroke="none" stroke-width="0"/><path d="M203.8064,208.12052v-121.3379h85.59804v121.3379z" fill="none" stroke="none" stroke-width="0"/></g></g></svg>