<svg width="480px" height="360px" xmlns="http://www.w3.org/2000/svg"><path fill="#F00" d="M245.816 180L242.209 180L242.209 170.650L240.589 170.650L240.589 167.975L242.209 167.853L242.209 167.190Q242.209 166.233 242.442 165.374Q242.675 164.515 243.215 163.877Q243.755 163.239 244.613 162.871Q245.472 162.503 246.699 162.503L246.699 162.503Q247.460 162.503 248.086 162.650Q248.712 162.798 249.129 162.945L249.129 162.945L248.466 165.595Q247.779 165.350 247.215 165.350L247.215 165.350Q246.552 165.350 246.184 165.755Q245.816 166.160 245.816 167.092L245.816 167.092L245.816 167.828L248 167.828L248 170.650L245.816 170.650L245.816 180Z"/></svg>