<svg width="480px" height="360px" xmlns="http://www.w3.org/2000/svg"><path fill="#F00" d="M241.146 180L239.122 180L245.268 171.707L242.634 164L244.683 164L246.049 168.244Q246.220 168.805 246.366 169.329Q246.512 169.854 246.707 170.488L246.707 170.488L246.780 170.488Q247.195 169.902 247.610 169.317Q248.024 168.732 248.390 168.171L248.390 168.171L251.317 164L253.317 164L247.537 171.854L250.390 180L248.341 180L246.878 175.512Q246.683 174.902 246.500 174.280Q246.317 173.659 246.122 173.024L246.122 173.024L246.049 173.024Q245.561 173.659 245.122 174.329Q244.683 175 244.268 175.610L244.268 175.610L241.146 180Z"/></svg>