<svg width="480px" height="360px" xmlns="http://www.w3.org/2000/svg"><path fill="#F00" d="M245.129 180L241.890 180L241.890 164L245.840 164L248.417 171.117Q248.663 171.828 248.883 172.577Q249.104 173.325 249.350 174.061L249.350 174.061L249.448 174.061Q249.693 173.325 249.902 172.577Q250.110 171.828 250.356 171.117L250.356 171.117L252.883 164L256.810 164L256.810 180L253.521 180L253.521 174.135Q253.521 173.546 253.571 172.834Q253.620 172.123 253.693 171.399Q253.767 170.675 253.840 169.975Q253.914 169.276 253.988 168.687L253.988 168.687L253.890 168.687L252.589 172.491L250.307 178.601L248.319 178.601L246.037 172.491L244.761 168.687L244.663 168.687Q244.736 169.276 244.810 169.975Q244.883 170.675 244.957 171.399Q245.031 172.123 245.080 172.834Q245.129 173.546 245.129 174.135L245.129 174.135L245.129 180Z"/></svg>