<svg width="480px" height="360px" xmlns="http://www.w3.org/2000/svg"><path fill="#F00" d="M250.220 168.146L252.073 168.146L249.707 180L248.171 180L248.366 178.195L248.268 178.195Q247.293 179.049 246.280 179.671Q245.268 180.293 244.171 180.293L244.171 180.293Q242.659 180.293 242.012 179.500Q241.366 178.707 241.366 177.341L241.366 177.341Q241.366 176.927 241.402 176.561Q241.439 176.195 241.561 175.707L241.561 175.707L243.073 168.146L244.951 168.146L243.463 175.463Q243.366 175.951 243.317 176.244Q243.268 176.537 243.268 176.854L243.268 176.854Q243.268 177.756 243.683 178.220Q244.098 178.683 245.024 178.683L245.024 178.683Q245.732 178.683 246.585 178.171Q247.439 177.659 248.537 176.537L248.537 176.537L250.220 168.146Z"/></svg>