<svg width="480px" height="360px" xmlns="http://www.w3.org/2000/svg"><path fill="#F00" d="M243.976 169.415L243.976 169.415Q243.415 169.415 243.049 168.976Q242.683 168.537 242.683 167.756L242.683 167.756Q242.683 166.927 242.927 166.207Q243.171 165.488 243.610 164.902Q244.049 164.317 244.634 163.878Q245.220 163.439 245.902 163.146L245.902 163.146L246.293 164.073Q245.171 164.634 244.573 165.451Q243.976 166.268 243.976 166.951L243.976 166.951L244.098 166.951Q244.610 166.951 244.951 167.232Q245.293 167.512 245.293 168.024L245.293 168.024Q245.293 168.585 244.927 169Q244.561 169.415 243.976 169.415Z"/></svg>