<svg width="480px" height="360px" xmlns="http://www.w3.org/2000/svg"><path fill="#F00" d="M245.497 180L241.890 180L241.890 164L247.387 164Q248.712 164 249.865 164.258Q251.018 164.515 251.877 165.117Q252.736 165.718 253.239 166.712Q253.742 167.706 253.742 169.153L253.742 169.153Q253.742 170.552 253.239 171.583Q252.736 172.613 251.877 173.276Q251.018 173.939 249.890 174.258Q248.761 174.577 247.485 174.577L247.485 174.577L245.497 174.577L245.497 180ZM245.497 166.871L245.497 171.706L247.264 171.706Q250.209 171.706 250.209 169.153L250.209 169.153Q250.209 167.902 249.423 167.387Q248.638 166.871 247.166 166.871L247.166 166.871L245.497 166.871Z"/></svg>