<svg width="480px" height="360px" xmlns="http://www.w3.org/2000/svg"><path fill="#F00" d="M244.531 167.185L244.531 167.185Q244.531 167.940 244.925 168.624Q245.319 169.308 246.271 170.271L246.271 170.271Q247.683 169.450 248.235 168.755Q248.788 168.060 248.788 167.152L248.788 167.152Q248.788 166.309 248.224 165.778Q247.661 165.248 246.720 165.248L246.720 165.248Q245.746 165.248 245.138 165.773Q244.531 166.298 244.531 167.185ZM246.227 178.588L246.227 178.588Q248.865 178.588 250.605 176.903L250.605 176.903L245.822 172.263Q244.607 173.007 244.104 173.494Q243.601 173.981 243.360 174.539Q243.119 175.097 243.119 175.808L243.119 175.808Q243.119 177.089 243.967 177.839Q244.815 178.588 246.227 178.588ZM241.237 175.852L241.237 175.852Q241.237 174.430 241.997 173.335Q242.758 172.241 244.728 171.124L244.728 171.124Q243.798 170.085 243.464 169.549Q243.130 169.012 242.933 168.432Q242.736 167.852 242.736 167.228L242.736 167.228Q242.736 165.587 243.808 164.668Q244.881 163.748 246.796 163.748L246.796 163.748Q248.569 163.748 249.587 164.662Q250.605 165.576 250.605 167.207L250.605 167.207Q250.605 168.378 249.860 169.368Q249.116 170.358 247.398 171.376L247.398 171.376L251.852 175.655Q252.465 174.977 252.832 174.063Q253.198 173.149 253.450 172.066L253.450 172.066L255.289 172.066Q254.544 175.196 253.045 176.815L253.045 176.815L256.317 180L253.811 180L251.787 178.052Q250.495 179.212 249.160 179.715Q247.825 180.219 246.183 180.219L246.183 180.219Q243.830 180.219 242.534 179.059Q241.237 177.899 241.237 175.852Z"/></svg>