<svg version="1.1" xmlns="http://www.w3.org/2000/svg" xmlns:xlink="http://www.w3.org/1999/xlink" width="169.16844" height="64.96583" viewBox="0,0,169.16844,64.96583"><g transform="translate(-156.09862,-183.24642)"><g data-paper-data="{&quot;isPaintingLayer&quot;:true}" stroke="none" stroke-miterlimit="10" stroke-dasharray="" stroke-dashoffset="0" style="mix-blend-mode: normal"><path d="M192.65675,207.42234h94.34188c5.34586,0 9.67879,4.15379 9.67879,9.27864v1.78998c0,5.12485 -4.33292,9.27863 -9.67879,9.27863h-94.34188c-5.345,0 -9.67792,-4.15379 -9.67792,-9.27863v-1.78998c0,-5.12485 4.33292,-9.27864 9.67792,-9.27864z" fill="#cbf0ff" fill-rule="evenodd" stroke-width="1" stroke-linecap="round" stroke-linejoin="round"/><g fill="#000000" fill-rule="evenodd" stroke-width="1" stroke-linecap="round" stroke-linejoin="round"><path d="M237.23581,219.28093c0,3.38366 -2.81657,5.02823 -4.99043,5.02823c-2.17386,0 -4.97152,-1.64457 -4.97152,-5.02823c0,-3.36476 2.79766,-5.04714 4.97152,-5.04714c2.17386,0 4.99043,1.68238 4.99043,5.04714zM229.25869,219.28093c0,2.13605 1.53115,3.28915 2.9867,3.28915c1.47444,0 3.0056,-1.15309 3.0056,-3.28915c0,-2.15496 -1.53115,-3.30805 -3.0056,-3.30805c-1.45554,0 -2.9867,1.15309 -2.9867,3.30805z"/><path d="M247.70814,223.40182c0,0.47258 -0.39697,0.86954 -0.88845,0.86954c-0.24574,0 -0.47258,-0.11342 -0.6238,-0.26464l-3.74282,-4.06417l-1.32322,1.26651v2.06044c0,0.54819 -0.45368,1.00187 -1.00187,1.00187c-0.54819,0 -1.00187,-0.45368 -1.00187,-1.00187v-11.58762c0,-0.54819 0.45368,-1.00187 1.00187,-1.00187c0.54819,0 1.00187,0.45368 1.00187,1.00187v7.16429l4.25321,-4.27211c0.17013,-0.15123 0.43477,-0.28355 0.68051,-0.28355c0.51038,0 0.90735,0.41587 0.90735,0.90735c0,0.24574 -0.09452,0.47258 -0.24574,0.64271l-3.0434,2.92999l3.76172,4.00746c0.15123,0.15123 0.26464,0.37806 0.26464,0.6238z"/></g><path d="M156.09862,248.21225v-64.96583h169.16844v64.96583z" fill="none" fill-rule="nonzero" stroke-width="0" stroke-linecap="butt" stroke-linejoin="miter"/></g></g></svg>