<svg width="480px" height="360px" xmlns="http://www.w3.org/2000/svg"><path fill="#F00" d="M244.098 185.463L244.098 185.463Q242.902 185.463 241.854 185Q240.805 184.537 239.951 183.829L239.951 183.829L240.829 182.537Q241.512 183.122 242.341 183.537Q243.171 183.951 244.171 183.951L244.171 183.951Q245.707 183.951 246.610 182.988Q247.512 182.024 247.902 180.415L247.902 180.415L248.512 177.878Q247.585 178.805 246.561 179.341Q245.537 179.878 244.390 179.878L244.390 179.878Q242.878 179.878 241.915 178.829Q240.951 177.780 240.951 175.707L240.951 175.707Q240.951 174.073 241.476 172.646Q242 171.220 242.878 170.159Q243.756 169.098 244.890 168.476Q246.024 167.854 247.220 167.854L247.220 167.854Q248.146 167.854 248.902 168.341Q249.659 168.829 250.073 169.634L250.073 169.634L250.146 169.634L250.610 168.146L252.146 168.146L249.659 180.561Q249.171 182.927 247.756 184.195Q246.341 185.463 244.098 185.463ZM245 178.317L245 178.317Q245.854 178.317 246.829 177.793Q247.805 177.268 248.659 176.244L248.659 176.244L249.707 171.171Q249.146 170.244 248.561 169.829Q247.976 169.415 247.293 169.415L247.293 169.415Q246.439 169.415 245.634 169.915Q244.829 170.415 244.220 171.256Q243.610 172.098 243.244 173.183Q242.878 174.268 242.878 175.439L242.878 175.439Q242.878 176.902 243.439 177.610Q244 178.317 245 178.317Z"/></svg>