<svg width="480px" height="360px" xmlns="http://www.w3.org/2000/svg"><path fill="#F00" d="M238.805 185.293L238.805 185.293Q238.244 185.293 237.817 185.171Q237.390 185.049 236.976 184.829L236.976 184.829L237.585 183.439Q237.829 183.585 238.073 183.671Q238.317 183.756 238.707 183.756L238.707 183.756Q239.390 183.756 239.793 183.171Q240.195 182.585 240.439 181.512L240.439 181.512L243.146 168.146L245.024 168.146L242.317 181.488Q241.976 183.195 241.159 184.244Q240.341 185.293 238.805 185.293ZM244.707 165.683L244.707 165.683Q244.244 165.683 243.890 165.402Q243.537 165.122 243.537 164.585L243.537 164.585Q243.537 163.976 243.951 163.573Q244.366 163.171 244.951 163.171L244.951 163.171Q245.415 163.171 245.768 163.463Q246.122 163.756 246.122 164.293L246.122 164.293Q246.122 164.902 245.695 165.293Q245.268 165.683 244.707 165.683Z"/></svg>