<svg width="480px" height="360px" xmlns="http://www.w3.org/2000/svg"><path fill="#F00" d="M243.512 180L242.195 180L242.805 175.024L240.854 175.024L240.854 173.634L242.976 173.634L243.415 170.024L241.341 170.024L241.341 168.610L243.585 168.610L244.146 164.146L245.439 164.146L244.878 168.610L248.122 168.610L248.707 164.146L250 164.146L249.415 168.610L251.390 168.610L251.390 170.024L249.268 170.024L248.829 173.634L250.902 173.634L250.902 175.024L248.659 175.024L248.049 180L246.756 180L247.341 175.024L244.122 175.024L243.512 180ZM244.732 170.024L244.293 173.634L247.512 173.634L247.951 170.024L244.732 170.024Z"/></svg>