<svg width="480px" height="360px" xmlns="http://www.w3.org/2000/svg"><path fill="#F00" d="M246.366 180L243.951 180L240.561 164L242.659 164L244.341 172.707Q244.561 174.024 244.805 175.293Q245.049 176.561 245.268 177.878L245.268 177.878L245.366 177.878Q245.634 176.561 245.927 175.280Q246.220 174 246.488 172.707L246.488 172.707L248.707 164L250.561 164L252.780 172.707Q253.073 173.976 253.366 175.268Q253.659 176.561 253.951 177.878L253.951 177.878L254.049 177.878Q254.268 176.561 254.488 175.280Q254.707 174 254.951 172.707L254.951 172.707L256.634 164L258.585 164L255.268 180L252.829 180L250.415 170.366Q250.195 169.439 250.012 168.549Q249.829 167.659 249.634 166.732L249.634 166.732L249.537 166.732Q249.341 167.659 249.134 168.549Q248.927 169.439 248.732 170.366L248.732 170.366L246.366 180Z"/></svg>