<svg version="1.1" xmlns="http://www.w3.org/2000/svg" xmlns:xlink="http://www.w3.org/1999/xlink" width="485.89121" height="367.71835" viewBox="0,0,485.89121,367.71835"><g transform="translate(2.94556,3.85914)"><g data-paper-data="{&quot;isPaintingLayer&quot;:true}" stroke-miterlimit="10" stroke-dasharray="" stroke-dashoffset="0" style="mix-blend-mode: normal"><path d="M-2.86645,-2.73299l485.30278,-1.12615l0.50933,367.08698l-485.89121,0.63137z" fill="#ffffff" fill-rule="nonzero" stroke="none" stroke-width="1" stroke-linecap="butt" stroke-linejoin="miter" opacity="0.29331"/><g fill="#ffffff" fill-rule="evenodd" stroke="#ffffff" stroke-width="5.5" stroke-linecap="butt" stroke-linejoin="miter"><path d="M153.94579,160.77254c0,0.63364 -0.19008,1.26726 -0.57026,1.83752l-13.43212,19.45233v17.17126c0,1.83752 -1.5207,3.35822 -3.35823,3.35822c-1.83752,0 -3.42157,-1.5207 -3.42157,-3.35822v-17.17126l-13.43287,-19.45233c-0.31681,-0.57026 -0.5069,-1.20389 -0.5069,-1.83752c0,-1.71078 1.39397,-3.10475 3.16812,-3.10475c1.01381,0 1.90087,0.50689 2.53451,1.3306l11.65871,17.23463l11.59537,-17.23463c0.63364,-0.82372 1.5207,-1.3306 2.59787,-1.3306c1.77341,0 3.16739,1.39397 3.16739,3.10475z"/><path d="M186.32409,185.80079c0,11.3419 -9.44103,16.85444 -16.72773,16.85444c-7.2867,0 -16.66436,-5.51254 -16.66436,-16.85444c0,-11.27855 9.37766,-16.91783 16.66436,-16.91783c7.2867,0 16.72773,5.63927 16.72773,16.91783zM159.58507,185.80079c0,7.15997 5.13238,11.02508 10.0113,11.02508c4.94229,0 10.07467,-3.86512 10.07467,-11.02508c0,-7.22332 -5.13238,-11.08845 -10.07467,-11.08845c-4.87892,0 -10.0113,3.86513 -10.0113,11.08845z"/><path d="M192.66035,188.01848v-15.58719c0,-1.83752 1.45734,-3.35823 3.29486,-3.35823c1.83752,0 3.35822,1.5207 3.35822,3.35823v15.58719c0,6.33626 3.61168,8.87077 7.73025,8.87077c6.08282,0 8.74403,-5.44917 9.12421,-8.17377v-16.28419c0,-1.83752 1.5207,-3.35823 3.35822,-3.35823c1.83752,0 3.35823,1.5207 3.35823,3.35823v26.67566c0,1.90087 -1.5207,3.42159 -3.35823,3.42159c-1.83752,0 -3.35822,-1.5207 -3.35822,-3.42159v-4.18194c-0.31681,2.21769 -4.11857,7.73024 -11.34192,7.73024c-6.14618,0 -12.16562,-3.86512 -12.16562,-14.63675z"/><path d="M295.05431,172.24119c0,0.50689 -0.25344,0.95044 -0.44353,1.5207l-8.93413,26.04204c-0.57026,1.64742 -1.77415,2.53451 -3.16812,2.53451c-1.45733,0 -2.59787,-0.88709 -3.29486,-2.53451l-8.55397,-20.90966l-8.61731,20.90966c-0.63364,1.64742 -1.83752,2.53451 -3.23148,2.53451c-1.45734,0 -2.59787,-0.88709 -3.16812,-2.53451l-8.93413,-26.04204c-0.19008,-0.57026 -0.44353,-1.01381 -0.44353,-1.5207c0,-1.77415 1.39397,-3.16812 3.16812,-3.16812c1.20389,0 2.47114,0.76036 2.85132,1.83752l6.96987,21.54328l8.36386,-21.28983c0.50689,-1.3306 1.58407,-2.09097 3.0414,-2.09097c1.45733,0 2.47114,0.76036 3.04141,2.09097l8.36386,21.28983l6.96987,-21.54328c0.31682,-1.14052 1.64742,-1.83752 2.85132,-1.83752c1.77415,0 3.16812,1.39397 3.16812,3.16812z"/><path d="M300.75694,159.69537c0,-1.83752 1.58405,-3.35823 3.42159,-3.35823c1.83752,0 3.42159,1.5207 3.42159,3.35823c0,1.83752 -1.58407,3.35822 -3.42159,3.35822c-1.83752,0 -3.42159,-1.5207 -3.42159,-3.35822zM307.53673,172.49464v26.67565c0,1.90087 -1.5207,3.42159 -3.35823,3.42159c-1.83752,0 -3.35822,-1.5207 -3.35822,-3.42159v-26.67565c0,-1.90087 1.5207,-3.42159 3.35822,-3.42159c1.83752,0 3.35823,1.5207 3.35823,3.42159z"/><path d="M345.42756,183.5831v15.58721c0,1.83752 -1.45734,3.35823 -3.29486,3.35823c-1.83752,0 -3.35822,-1.5207 -3.35822,-3.35823v-15.58721c0,-6.33626 -3.61167,-8.87077 -7.73024,-8.87077c-6.08282,0 -8.74403,5.44917 -9.12421,8.17377v16.28419c0,1.83752 -1.5207,3.35823 -3.35823,3.35823c-1.83752,0 -3.35822,-1.5207 -3.35822,-3.35823v-26.67565c0,-1.90087 1.5207,-3.42159 3.35822,-3.42159c1.83752,0 3.35823,1.5207 3.35823,3.42159v4.18194c0.31682,-2.21769 4.11857,-7.73025 11.3419,-7.73025c6.14618,0 12.16562,3.86512 12.16562,14.63675z"/><path d="M360.69798,161.40619v24.26789c0,2.02761 -1.71078,3.73839 -3.67504,3.73839c-2.09097,0 -3.80175,-1.71078 -3.80175,-3.73839v-24.26789c0,-2.02761 1.71078,-3.73839 3.80175,-3.73839c1.96426,0 3.67504,1.71078 3.67504,3.73839zM353.03111,198.40995c0,-2.15434 1.77415,-3.92849 3.99184,-3.92849c2.09097,0 3.86513,1.77415 3.86513,3.92849c0,2.21769 -1.77416,3.99184 -3.86513,3.99184c-2.21769,0 -3.99184,-1.77415 -3.99184,-3.99184z"/></g><g fill="#000000" fill-rule="evenodd" stroke="none" stroke-width="1" stroke-linecap="round" stroke-linejoin="round"><path d="M153.88966,161.2763c0,0.63364 -0.19008,1.26727 -0.57026,1.83752l-13.43215,19.45237v17.1713c0,1.83752 -1.5207,3.35823 -3.35824,3.35823c-1.83752,0 -3.42158,-1.5207 -3.42158,-3.35823v-17.1713l-13.4329,-19.45237c-0.31681,-0.57026 -0.5069,-1.2039 -0.5069,-1.83752c0,-1.71078 1.39398,-3.10476 3.16813,-3.10476c1.01382,0 1.90088,0.50689 2.53452,1.33061l11.65873,17.23467l11.59539,-17.23467c0.63364,-0.82372 1.5207,-1.33061 2.59787,-1.33061c1.77341,0 3.16739,1.39398 3.16739,3.10476z"/><path d="M186.26803,186.3046c0,11.34193 -9.44105,16.85448 -16.72777,16.85448c-7.28672,0 -16.6644,-5.51255 -16.6644,-16.85448c0,-11.27857 9.37768,-16.91787 16.6644,-16.91787c7.28672,0 16.72777,5.63928 16.72777,16.91787zM159.52894,186.3046c0,7.15998 5.13239,11.02511 10.01132,11.02511c4.9423,0 10.07469,-3.86513 10.07469,-11.02511c0,-7.22334 -5.13239,-11.08848 -10.07469,-11.08848c-4.87893,0 -10.01132,3.86514 -10.01132,11.08848z"/><path d="M192.6043,188.52231v-15.58723c0,-1.83752 1.45735,-3.35824 3.29487,-3.35824c1.83752,0 3.35823,1.5207 3.35823,3.35824v15.58723c0,6.33627 3.61169,8.87079 7.73027,8.87079c6.08284,0 8.74405,-5.44918 9.12423,-8.17378v-16.28423c0,-1.83752 1.5207,-3.35824 3.35823,-3.35824c1.83752,0 3.35824,1.5207 3.35824,3.35824v26.67572c0,1.90088 -1.5207,3.42159 -3.35824,3.42159c-1.83752,0 -3.35823,-1.5207 -3.35823,-3.42159v-4.18195c-0.31681,2.2177 -4.11858,7.73025 -11.34194,7.73025c-6.14619,0 -12.16565,-3.86513 -12.16565,-14.63678z"/><path d="M294.9985,172.74498c0,0.50689 -0.25344,0.95045 -0.44353,1.5207l-8.93415,26.04209c-0.57026,1.64743 -1.77415,2.53452 -3.16813,2.53452c-1.45733,0 -2.59787,-0.88709 -3.29487,-2.53452l-8.55399,-20.9097l-8.61733,20.9097c-0.63364,1.64743 -1.83752,2.53452 -3.23149,2.53452c-1.45735,0 -2.59787,-0.88709 -3.16813,-2.53452l-8.93415,-26.04209c-0.19008,-0.57026 -0.44353,-1.01382 -0.44353,-1.5207c0,-1.77415 1.39398,-3.16813 3.16813,-3.16813c1.2039,0 2.47115,0.76037 2.85132,1.83752l6.96989,21.54333l8.36388,-21.28988c0.50689,-1.33061 1.58407,-2.09097 3.04141,-2.09097c1.45733,0 2.47115,0.76037 3.04142,2.09097l8.36388,21.28988l6.96989,-21.54333c0.31682,-1.14053 1.64743,-1.83752 2.85132,-1.83752c1.77415,0 3.16813,1.39398 3.16813,3.16813z"/><path d="M300.70115,160.19913c0,-1.83752 1.58406,-3.35824 3.42159,-3.35824c1.83752,0 3.42159,1.5207 3.42159,3.35824c0,1.83752 -1.58407,3.35823 -3.42159,3.35823c-1.83752,0 -3.42159,-1.5207 -3.42159,-3.35823zM307.48094,172.99843v26.67571c0,1.90088 -1.5207,3.42159 -3.35824,3.42159c-1.83752,0 -3.35823,-1.5207 -3.35823,-3.42159v-26.67571c0,-1.90088 1.5207,-3.42159 3.35823,-3.42159c1.83752,0 3.35824,1.5207 3.35824,3.42159z"/><path d="M345.37186,184.08691v15.58724c0,1.83752 -1.45735,3.35824 -3.29487,3.35824c-1.83752,0 -3.35823,-1.5207 -3.35823,-3.35824v-15.58724c0,-6.33627 -3.61168,-8.87079 -7.73025,-8.87079c-6.08284,0 -8.74405,5.44918 -9.12423,8.17378v16.28423c0,1.83752 -1.5207,3.35824 -3.35824,3.35824c-1.83752,0 -3.35823,-1.5207 -3.35823,-3.35824v-26.67571c0,-1.90088 1.5207,-3.42159 3.35823,-3.42159c1.83752,0 3.35824,1.5207 3.35824,3.42159v4.18195c0.31682,-2.2177 4.11858,-7.73027 11.34193,-7.73027c6.14619,0 12.16565,3.86513 12.16565,14.63678z"/><path d="M360.64232,161.90993v24.26794c0,2.02762 -1.71078,3.7384 -3.67505,3.7384c-2.09097,0 -3.80176,-1.71078 -3.80176,-3.7384v-24.26794c0,-2.02762 1.71078,-3.7384 3.80176,-3.7384c1.96426,0 3.67505,1.71078 3.67505,3.7384zM352.97542,198.9138c0,-2.15434 1.77415,-3.9285 3.99185,-3.9285c2.09097,0 3.86514,1.77415 3.86514,3.9285c0,2.2177 -1.77417,3.99185 -3.86514,3.99185c-2.2177,0 -3.99185,-1.77415 -3.99185,-3.99185z"/></g><path d="M29.19396,252.52715v-136.62599h420.57045v136.62599z" fill="none" fill-rule="nonzero" stroke="none" stroke-width="NaN" stroke-linecap="butt" stroke-linejoin="miter"/></g></g></svg>