<svg width="480px" height="360px" xmlns="http://www.w3.org/2000/svg"><path fill="#F00" d="M242.195 185.098L242.195 185.098Q241.780 185.098 241.439 185.037Q241.098 184.976 240.805 184.854L240.805 184.854L241.195 183.268Q241.390 183.317 241.634 183.378Q241.878 183.439 242.098 183.439L242.098 183.439Q243.122 183.439 243.768 182.720Q244.415 182 244.780 180.902L244.780 180.902L245.049 180.024L240.293 168.146L242.366 168.146L244.780 174.707Q245.049 175.488 245.354 176.354Q245.659 177.220 245.927 178.049L245.927 178.049L246.024 178.049Q246.293 177.244 246.537 176.366Q246.780 175.488 247.024 174.707L247.024 174.707L249.146 168.146L251.098 168.146L246.634 180.976Q246.317 181.854 245.927 182.610Q245.537 183.366 245 183.915Q244.463 184.463 243.780 184.780Q243.098 185.098 242.195 185.098Z"/></svg>