<svg width="480px" height="360px" xmlns="http://www.w3.org/2000/svg"><path fill="#F00" d="M248.098 171.073L248.098 171.073Q247.439 171.073 246.890 170.744Q246.341 170.415 245.841 170.024Q245.341 169.634 244.890 169.305Q244.439 168.976 243.951 168.976L243.951 168.976Q243.415 168.976 242.988 169.329Q242.561 169.683 242.146 170.463L242.146 170.463L241.098 169.780Q241.707 168.634 242.476 168.122Q243.244 167.610 244 167.610L244 167.610Q244.659 167.610 245.207 167.939Q245.756 168.268 246.256 168.659Q246.756 169.049 247.207 169.378Q247.659 169.707 248.146 169.707L248.146 169.707Q248.683 169.707 249.110 169.354Q249.537 169 249.951 168.220L249.951 168.220L251 168.902Q250.390 170.049 249.622 170.561Q248.854 171.073 248.098 171.073ZM248.098 176.244L248.098 176.244Q247.439 176.244 246.890 175.915Q246.341 175.585 245.841 175.195Q245.341 174.805 244.890 174.476Q244.439 174.146 243.951 174.146L243.951 174.146Q243.415 174.146 242.988 174.500Q242.561 174.854 242.146 175.634L242.146 175.634L241.098 174.951Q241.707 173.805 242.476 173.293Q243.244 172.780 244 172.780L244 172.780Q244.659 172.780 245.207 173.110Q245.756 173.439 246.256 173.829Q246.756 174.220 247.207 174.549Q247.659 174.878 248.146 174.878L248.146 174.878Q248.683 174.878 249.110 174.524Q249.537 174.171 249.951 173.390L249.951 173.390L251 174.073Q250.390 175.220 249.622 175.732Q248.854 176.244 248.098 176.244Z"/></svg>