<svg width="480px" height="360px" xmlns="http://www.w3.org/2000/svg"><path fill="#F00" d="M247.317 180.293L247.317 180.293Q245.878 180.293 244.768 179.829Q243.659 179.366 242.902 178.524Q242.146 177.683 241.768 176.488Q241.390 175.293 241.390 173.829L241.390 173.829Q241.390 171.927 241.988 170.110Q242.585 168.293 243.683 166.866Q244.780 165.439 246.354 164.573Q247.927 163.707 249.902 163.707L249.902 163.707Q251.341 163.707 252.329 164.378Q253.317 165.049 253.927 166.073L253.927 166.073L252.585 167.073Q252.122 166.293 251.451 165.817Q250.780 165.341 249.805 165.341L249.805 165.341Q248.293 165.341 247.098 166.098Q245.902 166.854 245.061 168.049Q244.220 169.244 243.780 170.720Q243.341 172.195 243.341 173.659L243.341 173.659Q243.341 174.732 243.573 175.646Q243.805 176.561 244.317 177.244Q244.829 177.927 245.634 178.305Q246.439 178.683 247.585 178.683L247.585 178.683Q248.463 178.683 249.146 178.402Q249.829 178.122 250.317 177.707L250.317 177.707L251.220 173.293L247.902 173.293L248.220 171.732L253.244 171.732L251.854 178.659Q250.976 179.390 249.841 179.841Q248.707 180.293 247.317 180.293Z"/></svg>