<svg width="480px" height="360px" xmlns="http://www.w3.org/2000/svg"><path fill="#F00" d="M246.720 180.219L246.720 180.219Q244.115 180.219 242.687 178.616Q241.259 177.012 241.259 174.079L241.259 174.079Q241.259 171.070 242.709 169.428Q244.159 167.787 246.840 167.787L246.840 167.787Q247.705 167.787 248.569 167.973Q249.434 168.159 249.926 168.410L249.926 168.410L249.368 169.953Q248.766 169.713 248.055 169.554Q247.343 169.395 246.796 169.395L246.796 169.395Q243.141 169.395 243.141 174.057L243.141 174.057Q243.141 176.268 244.033 177.450Q244.925 178.632 246.676 178.632L246.676 178.632Q248.175 178.632 249.751 177.986L249.751 177.986L249.751 179.595Q248.547 180.219 246.720 180.219Z"/></svg>