<svg width="480px" height="360px" xmlns="http://www.w3.org/2000/svg"><path fill="#F00" d="M246.896 180.294L246.896 180.294Q245.767 180.294 244.699 179.853Q243.632 179.411 242.810 178.479Q241.988 177.546 241.497 176.086Q241.006 174.626 241.006 172.564L241.006 172.564Q241.006 170.380 241.534 168.785Q242.061 167.190 242.933 166.160Q243.804 165.129 244.945 164.626Q246.086 164.123 247.313 164.123L247.313 164.123Q248.859 164.123 249.988 164.675Q251.117 165.227 251.853 165.988L251.853 165.988L249.963 168.147Q249.546 167.706 248.883 167.374Q248.221 167.043 247.534 167.043L247.534 167.043Q246.896 167.043 246.331 167.288Q245.767 167.534 245.337 168.110Q244.908 168.687 244.638 169.620Q244.368 170.552 244.319 171.902L244.319 171.902Q244.613 171.509 245.006 171.202Q245.399 170.896 245.816 170.687Q246.233 170.479 246.650 170.368Q247.067 170.258 247.436 170.258L247.436 170.258Q248.442 170.258 249.288 170.552Q250.135 170.847 250.761 171.436Q251.387 172.025 251.730 172.933Q252.074 173.840 252.074 175.067L252.074 175.067Q252.074 176.294 251.656 177.252Q251.239 178.209 250.540 178.896Q249.840 179.583 248.896 179.939Q247.951 180.294 246.896 180.294ZM246.822 177.595L246.822 177.595Q247.632 177.595 248.209 176.994Q248.785 176.393 248.785 175.067L248.785 175.067Q248.785 173.816 248.209 173.313Q247.632 172.810 246.748 172.810L246.748 172.810Q246.135 172.810 245.509 173.166Q244.883 173.521 244.393 174.356L244.393 174.356Q244.515 175.288 244.761 175.902Q245.006 176.515 245.325 176.896Q245.644 177.276 246.025 177.436Q246.405 177.595 246.822 177.595Z"/></svg>