<svg version="1.1" xmlns="http://www.w3.org/2000/svg" xmlns:xlink="http://www.w3.org/1999/xlink" width="76.15744" height="27.03088" viewBox="0,0,76.15744,27.03088"><g transform="translate(-201.92128,-165.88456)"><g data-paper-data="{&quot;isPaintingLayer&quot;:true}" stroke-miterlimit="10" stroke-dasharray="" stroke-dashoffset="0" style="mix-blend-mode: normal"><path d="M208.04252,175.13724h63.69801" fill="none" fill-rule="nonzero" stroke="#ffffff" stroke-width="7.5" stroke-linecap="round" stroke-linejoin="miter"/><path d="M208.04617,185.25692h63.69802" fill="none" fill-rule="nonzero" stroke="#ffffff" stroke-width="7.5" stroke-linecap="round" stroke-linejoin="miter"/><path d="M204.25555,185.02712v-10.15996h71.29813v10.15996z" fill="#ffffff" fill-rule="nonzero" stroke="none" stroke-width="0" stroke-linecap="butt" stroke-linejoin="miter"/><path d="M201.92128,192.91544v-27.03088h76.15744v27.03088z" fill="none" fill-rule="nonzero" stroke="none" stroke-width="NaN" stroke-linecap="butt" stroke-linejoin="miter"/><g fill="#000000" fill-rule="evenodd" stroke="none" stroke-width="1" stroke-linecap="round" stroke-linejoin="round"><path d="M215.22753,183.12061c0,0.33362 -0.23632,0.51434 -0.38923,0.66725c-0.59775,0.62554 -1.37621,0.94527 -2.33537,0.94527c-1.65422,0 -3.65598,-1.20939 -3.65598,-3.68378c0,-2.48828 2.00175,-3.69767 3.65598,-3.69767c0.95918,0 1.73764,0.31972 2.33537,0.94527c0.15292,0.15292 0.38923,0.33362 0.38923,0.66725c0,0.34753 -0.29192,0.56995 -0.59775,0.56995c-0.27801,0 -0.48654,-0.15292 -0.59775,-0.26412c-0.37533,-0.44483 -0.95918,-0.63945 -1.47351,-0.63945c-1.16768,0 -2.25197,0.83406 -2.25197,2.41878c0,1.57081 1.08428,2.40488 2.25197,2.40488c0.51434,0 1.09818,-0.19462 1.47351,-0.63945c0.11121,-0.11121 0.31972,-0.26412 0.59775,-0.26412c0.30582,0 0.59775,0.22241 0.59775,0.56995z"/><path d="M223.24843,180.57671v3.41966c0,0.40313 -0.31972,0.73675 -0.72285,0.73675c-0.40313,0 -0.73675,-0.33362 -0.73675,-0.73675v-3.41966c0,-1.39011 -0.79236,-1.94614 -1.69593,-1.94614c-1.33451,0 -1.91835,1.19549 -2.00175,1.79324v3.57257c0,0.40313 -0.33362,0.73675 -0.73675,0.73675c-0.40313,0 -0.73675,-0.33362 -0.73675,-0.73675v-8.52133c0,-0.40313 0.33362,-0.73675 0.73675,-0.73675c0.40313,0 0.73675,0.33362 0.73675,0.73675v3.58646c0.06951,-0.48654 0.90357,-1.69593 2.48829,-1.69593c1.3484,0 2.669,0.84796 2.669,3.21114z"/><path d="M230.31016,178.68617v-0.55605c0,-0.40313 0.33362,-0.73675 0.73675,-0.73675c0.40313,0 0.75066,0.33362 0.75066,0.73675v5.88014c0,0.40313 -0.34753,0.73675 -0.75066,0.73675c-0.40313,0 -0.73675,-0.33362 -0.73675,-0.73675v-0.75066c-0.09731,0.62554 -0.95918,1.5013 -2.27978,1.5013c-1.54301,0 -3.39186,-1.19549 -3.39186,-3.71157c0,-2.47439 1.86274,-3.69767 3.39186,-3.69767c1.02868,0 1.91834,0.52825 2.27978,1.33451zM230.37967,181.04935c0,-1.73764 -1.16768,-2.43268 -2.11296,-2.43268c-1.01478,0 -2.15466,0.79236 -2.15466,2.43268c0,1.65422 1.13988,2.44658 2.15466,2.44658c0.94527,0 2.11296,-0.72285 2.11296,-2.44658z"/><path d="M234.13295,184.73313c-0.40313,0 -0.73675,-0.33362 -0.73675,-0.73675v-8.52133c0,-0.40313 0.33362,-0.73675 0.73675,-0.73675c0.40313,0 0.73675,0.33362 0.73675,0.73675v8.52133c0,0.40313 -0.33362,0.73675 -0.73675,0.73675z"/><path d="M237.27458,184.73313c-0.40313,0 -0.73675,-0.33362 -0.73675,-0.73675v-8.52133c0,-0.40313 0.33362,-0.73675 0.73675,-0.73675c0.40313,0 0.73675,0.33362 0.73675,0.73675v8.52133c0,0.40313 -0.33362,0.73675 -0.73675,0.73675z"/><path d="M246.49097,180.81303c0,0.56995 -0.31972,0.79235 -0.91747,0.79235l-4.65685,-0.0139c0.15292,1.2928 1.16768,1.93224 2.27978,1.93224c0.56995,0 0.95918,-0.13902 1.39011,-0.40313c0.23632,-0.12512 0.38922,-0.22241 0.58384,-0.22241c0.31972,0 0.51434,0.22241 0.51434,0.52825c0,0.18072 -0.06951,0.37533 -0.37533,0.62554c-0.52825,0.43093 -1.2928,0.68115 -2.16857,0.68115c-1.80714,0 -3.73938,-1.15379 -3.73938,-3.66987c0,-2.50219 2.01565,-3.71158 3.60037,-3.71158c1.58472,0 3.48916,1.2511 3.48916,3.46137zM240.91665,180.53501h4.14251c-0.12512,-1.3206 -1.12597,-1.90444 -2.05735,-1.90444c-0.91747,0 -1.96005,0.58385 -2.08516,1.90444z"/><path d="M254.51188,180.57671v3.41966c0,0.40313 -0.31972,0.73675 -0.72285,0.73675c-0.40313,0 -0.73675,-0.33362 -0.73675,-0.73675v-3.41966c0,-1.39011 -0.79236,-1.94614 -1.69593,-1.94614c-1.33451,0 -1.91835,1.19549 -2.00175,1.79324v3.57257c0,0.40313 -0.33362,0.73675 -0.73675,0.73675c-0.40313,0 -0.73675,-0.33362 -0.73675,-0.73675v-5.85234c0,-0.41703 0.33362,-0.75066 0.73675,-0.75066c0.40313,0 0.73675,0.33363 0.73675,0.75066v0.91747c0.06951,-0.48654 0.90357,-1.69593 2.48829,-1.69593c1.3484,0 2.669,0.84796 2.669,3.21114z"/><path d="M263.06102,184.01027c0,0.0417 0,0.09731 -0.0139,0.13901v0.37533c0,2.27978 -2.05736,2.98873 -3.53086,2.98873c-0.88967,0 -1.58472,-0.25022 -1.90444,-0.41704c-0.29192,-0.12512 -0.45874,-0.34753 -0.45874,-0.62554c0,-0.33362 0.26412,-0.58385 0.58385,-0.58385c0.08341,0 0.19462,0.0139 0.34753,0.06951c0.30582,0.12512 0.82017,0.29192 1.4596,0.29192c1.20939,0 2.02955,-0.62554 2.02955,-1.72373v-1.265c-0.09731,0.62554 -0.95918,1.5013 -2.27978,1.5013c-1.54301,0 -3.39186,-1.19549 -3.39186,-3.71157c0,-2.47439 1.86274,-3.69767 3.39186,-3.69767c1.02868,0 1.91835,0.52825 2.27978,1.33451v-0.55605c0,-0.40313 0.33362,-0.73675 0.73675,-0.73675c0.40313,0 0.75066,0.33362 0.75066,0.73675zM261.64311,181.04935c0,-1.73764 -1.16769,-2.43268 -2.11297,-2.43268c-1.01478,0 -2.15466,0.79236 -2.15466,2.43268c0,1.65422 1.13988,2.44658 2.15466,2.44658c0.94527,0 2.11297,-0.72285 2.11297,-2.44658z"/><path d="M271.54065,180.81303c0,0.56995 -0.31972,0.79235 -0.91747,0.79235l-4.65685,-0.0139c0.15292,1.2928 1.16768,1.93224 2.27978,1.93224c0.56995,0 0.95917,-0.13902 1.3901,-0.40313c0.23632,-0.12512 0.38923,-0.22241 0.58385,-0.22241c0.31972,0 0.51434,0.22241 0.51434,0.52825c0,0.18072 -0.06951,0.37533 -0.37533,0.62554c-0.52825,0.43093 -1.2928,0.68115 -2.16857,0.68115c-1.80714,0 -3.73938,-1.15379 -3.73938,-3.66987c0,-2.50219 2.01565,-3.71158 3.60037,-3.71158c1.58472,0 3.48916,1.2511 3.48916,3.46137zM265.96634,180.53501h4.14251c-0.12512,-1.3206 -1.12598,-1.90444 -2.05736,-1.90444c-0.91747,0 -1.96004,0.58385 -2.08515,1.90444z"/></g></g></g></svg>