<svg width="480px" height="360px" xmlns="http://www.w3.org/2000/svg"><path fill="#F00" d="M243.098 169.195L243.098 169.195L242.707 168.293Q243.854 167.732 244.451 166.902Q245.049 166.073 245.049 165.415L245.049 165.415L244.927 165.415Q244.390 165.415 244.049 165.134Q243.707 164.854 243.707 164.317L243.707 164.317Q243.707 163.756 244.073 163.341Q244.439 162.927 245.049 162.927L245.049 162.927Q245.610 162.927 245.976 163.366Q246.341 163.805 246.341 164.585L246.341 164.585Q246.341 165.439 246.098 166.146Q245.854 166.854 245.415 167.439Q244.976 168.024 244.378 168.463Q243.780 168.902 243.098 169.195Z"/></svg>