<svg width="480px" height="360px" xmlns="http://www.w3.org/2000/svg"><path fill="#F00" d="M244.829 182.683L243.463 182.683L243.951 180.195Q242.854 179.976 241.951 179.366Q241.049 178.756 240.415 178L240.415 178L241.610 176.829Q242.171 177.561 243.024 178.146Q243.878 178.732 244.976 178.732L244.976 178.732Q246.317 178.732 247.171 177.951Q248.024 177.171 248.024 175.902L248.024 175.902Q248.024 175.024 247.634 174.378Q247.244 173.732 246.671 173.207Q246.098 172.683 245.415 172.207Q244.732 171.732 244.159 171.183Q243.585 170.634 243.195 169.951Q242.805 169.268 242.805 168.341L242.805 168.341Q242.805 167.439 243.122 166.683Q243.439 165.927 244.012 165.366Q244.585 164.805 245.366 164.463Q246.146 164.122 247.098 164.073L247.098 164.073L247.585 161.683L248.951 161.683L248.439 164.195Q249.293 164.415 250.037 164.951Q250.780 165.488 251.317 166.195L251.317 166.195L250.098 167.293Q249.610 166.585 248.902 166.098Q248.195 165.610 247.341 165.610L247.341 165.610Q246.171 165.610 245.415 166.305Q244.659 167 244.659 168.098L244.659 168.098Q244.659 168.854 245.049 169.402Q245.439 169.951 246.012 170.427Q246.585 170.902 247.256 171.378Q247.927 171.854 248.500 172.439Q249.073 173.024 249.463 173.793Q249.854 174.561 249.854 175.610L249.854 175.610Q249.854 176.561 249.537 177.390Q249.220 178.220 248.622 178.841Q248.024 179.463 247.183 179.841Q246.341 180.220 245.317 180.293L245.317 180.293L244.829 182.683Z"/></svg>