<svg width="480px" height="360px" xmlns="http://www.w3.org/2000/svg"><path fill="#F00" d="M248.098 180.293L248.098 180.293Q246.585 180.293 245.329 179.707Q244.073 179.122 243.171 178.037Q242.268 176.951 241.768 175.402Q241.268 173.854 241.268 171.927L241.268 171.927Q241.268 170 241.768 168.476Q242.268 166.951 243.171 165.890Q244.073 164.829 245.329 164.268Q246.585 163.707 248.098 163.707L248.098 163.707Q249.610 163.707 250.866 164.280Q252.122 164.854 253.037 165.915Q253.951 166.976 254.451 168.500Q254.951 170.024 254.951 171.927L254.951 171.927Q254.951 173.854 254.451 175.402Q253.951 176.951 253.037 178.037Q252.122 179.122 250.866 179.707Q249.610 180.293 248.098 180.293ZM248.098 178.512L248.098 178.512Q249.171 178.512 250.037 178.049Q250.902 177.585 251.524 176.720Q252.146 175.854 252.488 174.646Q252.829 173.439 252.829 171.927L252.829 171.927Q252.829 170.439 252.488 169.244Q252.146 168.049 251.524 167.220Q250.902 166.390 250.037 165.939Q249.171 165.488 248.098 165.488L248.098 165.488Q247.024 165.488 246.159 165.939Q245.293 166.390 244.671 167.220Q244.049 168.049 243.707 169.244Q243.366 170.439 243.366 171.927L243.366 171.927Q243.366 173.439 243.707 174.646Q244.049 175.854 244.671 176.720Q245.293 177.585 246.159 178.049Q247.024 178.512 248.098 178.512Z"/></svg>