<svg width="480px" height="360px" xmlns="http://www.w3.org/2000/svg"><path fill="#F00" d="M245.073 169.463L245.073 169.463Q243.927 169.463 243.195 168.720Q242.463 167.976 242.463 166.756L242.463 166.756Q242.463 166.049 242.720 165.427Q242.976 164.805 243.402 164.329Q243.829 163.854 244.415 163.573Q245 163.293 245.659 163.293L245.659 163.293Q246.780 163.293 247.512 164.037Q248.244 164.780 248.244 166L248.244 166Q248.244 166.707 247.988 167.329Q247.732 167.951 247.305 168.427Q246.878 168.902 246.305 169.183Q245.732 169.463 245.073 169.463ZM245.146 168.390L245.146 168.390Q245.585 168.390 245.939 168.195Q246.293 168 246.549 167.671Q246.805 167.341 246.951 166.915Q247.098 166.488 247.098 166.049L247.098 166.049Q247.098 165.341 246.695 164.841Q246.293 164.341 245.561 164.341L245.561 164.341Q245.122 164.341 244.756 164.549Q244.390 164.756 244.134 165.085Q243.878 165.415 243.744 165.841Q243.610 166.268 243.610 166.707L243.610 166.707Q243.610 167.415 244.012 167.902Q244.415 168.390 245.146 168.390Z"/></svg>