<svg width="480px" height="360px" xmlns="http://www.w3.org/2000/svg"><path fill="#F00" d="M242.945 184.761L242.945 184.761Q242.380 184.761 241.988 184.699Q241.595 184.638 241.227 184.515L241.227 184.515L241.865 181.767Q242.037 181.816 242.258 181.865Q242.479 181.914 242.675 181.914L242.675 181.914Q243.583 181.914 244.074 181.472Q244.564 181.031 244.810 180.319L244.810 180.319L244.982 179.681L240.294 167.828L243.926 167.828L245.669 173.055Q245.939 173.890 246.160 174.748Q246.380 175.607 246.626 176.515L246.626 176.515L246.724 176.515Q246.920 175.656 247.129 174.785Q247.337 173.914 247.558 173.055L247.558 173.055L249.031 167.828L252.491 167.828L248.270 180.123Q247.828 181.276 247.350 182.147Q246.871 183.018 246.245 183.595Q245.620 184.172 244.822 184.466Q244.025 184.761 242.945 184.761Z"/></svg>