<svg width="480px" height="360px" xmlns="http://www.w3.org/2000/svg"><path fill="#F00" d="M256.088 171.978L256.088 171.978Q256.088 175.819 254.145 178.019Q252.202 180.219 248.744 180.219L248.744 180.219Q245.209 180.219 243.289 178.057Q241.368 175.896 241.368 171.956L241.368 171.956Q241.368 168.049 243.294 165.899Q245.220 163.748 248.766 163.748L248.766 163.748Q252.213 163.748 254.150 165.937Q256.088 168.126 256.088 171.978ZM243.338 171.978L243.338 171.978Q243.338 175.228 244.722 176.908Q246.107 178.588 248.744 178.588L248.744 178.588Q251.404 178.588 252.761 176.914Q254.118 175.239 254.118 171.978L254.118 171.978Q254.118 168.750 252.766 167.081Q251.415 165.412 248.766 165.412L248.766 165.412Q246.107 165.412 244.722 167.092Q243.338 168.772 243.338 171.978Z"/></svg>