<svg width="480px" height="360px" xmlns="http://www.w3.org/2000/svg"><path fill="#F00" d="M243.976 180.293L243.976 180.293Q243.390 180.293 242.793 180.122Q242.195 179.951 241.646 179.646Q241.098 179.341 240.646 178.927Q240.195 178.512 239.902 178.049L239.902 178.049L241.073 177.122Q241.634 177.902 242.415 178.378Q243.195 178.854 244.122 178.854L244.122 178.854Q244.634 178.854 245.085 178.695Q245.537 178.537 245.890 178.268Q246.244 178 246.439 177.646Q246.634 177.293 246.634 176.878L246.634 176.878Q246.634 176.561 246.524 176.293Q246.415 176.024 246.171 175.768Q245.927 175.512 245.500 175.244Q245.073 174.976 244.463 174.634L244.463 174.634Q243.073 173.878 242.415 173.146Q241.756 172.415 241.756 171.390L241.756 171.390Q241.756 170.610 242.085 169.951Q242.415 169.293 242.963 168.829Q243.512 168.366 244.256 168.110Q245 167.854 245.829 167.854L245.829 167.854Q246.927 167.854 247.793 168.293Q248.659 168.732 249.317 169.439L249.317 169.439L248.244 170.488Q247.756 170 247.171 169.659Q246.585 169.317 245.780 169.317L245.780 169.317Q244.829 169.317 244.183 169.866Q243.537 170.415 243.537 171.171L243.537 171.171Q243.537 171.537 243.707 171.829Q243.878 172.122 244.171 172.366Q244.463 172.610 244.841 172.829Q245.220 173.049 245.634 173.268L245.634 173.268Q246.439 173.707 246.963 174.110Q247.488 174.512 247.817 174.915Q248.146 175.317 248.280 175.732Q248.415 176.146 248.415 176.634L248.415 176.634Q248.415 177.463 248.085 178.146Q247.756 178.829 247.159 179.305Q246.561 179.780 245.744 180.037Q244.927 180.293 243.976 180.293Z"/></svg>