<svg width="480px" height="360px" xmlns="http://www.w3.org/2000/svg"><path fill="#F00" d="M245.497 180L241.890 180L241.890 164L247.656 164Q248.933 164 250.049 164.245Q251.166 164.491 252 165.067Q252.834 165.644 253.325 166.601Q253.816 167.558 253.816 168.982L253.816 168.982Q253.816 170.748 253.043 171.890Q252.270 173.031 250.969 173.595L250.969 173.595L254.601 180L250.552 180L247.485 174.233L245.497 174.233L245.497 180ZM245.497 166.871L245.497 171.362L247.362 171.362Q248.785 171.362 249.534 170.761Q250.282 170.160 250.282 168.982L250.282 168.982Q250.282 167.804 249.534 167.337Q248.785 166.871 247.362 166.871L247.362 166.871L245.497 166.871Z"/></svg>