<svg width="480px" height="360px" xmlns="http://www.w3.org/2000/svg"><path fill="#F00" d="M248.393 177.350L248.393 177.350Q250.037 177.350 250.994 175.926Q251.951 174.503 251.951 171.926L251.951 171.926Q251.951 169.521 250.994 168.172Q250.037 166.822 248.393 166.822L248.393 166.822Q246.748 166.822 245.791 168.172Q244.834 169.521 244.834 171.926L244.834 171.926Q244.834 174.503 245.791 175.926Q246.748 177.350 248.393 177.350ZM253.669 184.466L253.669 184.466Q252.393 184.466 251.313 184.135Q250.233 183.804 249.362 183.227Q248.491 182.650 247.828 181.853Q247.166 181.055 246.748 180.123L246.748 180.123Q245.472 179.853 244.429 179.178Q243.387 178.503 242.650 177.448Q241.914 176.393 241.521 175.006Q241.129 173.620 241.129 171.926L241.129 171.926Q241.129 169.963 241.656 168.429Q242.184 166.896 243.141 165.853Q244.098 164.810 245.436 164.258Q246.773 163.706 248.393 163.706L248.393 163.706Q250.012 163.706 251.350 164.258Q252.687 164.810 253.644 165.865Q254.601 166.920 255.129 168.454Q255.656 169.988 255.656 171.926L255.656 171.926Q255.656 175.166 254.282 177.252Q252.908 179.337 250.577 180L250.577 180Q251.141 180.859 252.098 181.215Q253.055 181.571 254.086 181.571L254.086 181.571Q254.601 181.571 255.055 181.497Q255.509 181.423 255.853 181.301L255.853 181.301L256.491 183.926Q256.049 184.147 255.325 184.307Q254.601 184.466 253.669 184.466Z"/></svg>