<svg width="480px" height="360px" xmlns="http://www.w3.org/2000/svg"><path fill="#F00" d="M244.147 180L240.270 180L244.712 171.779L240.540 164L244.564 164L245.963 167.018Q246.233 167.583 246.503 168.209Q246.773 168.834 247.117 169.595L247.117 169.595L247.215 169.595Q247.485 168.834 247.742 168.209Q248 167.583 248.245 167.018L248.245 167.018L249.521 164L253.374 164L249.227 171.951L253.644 180L249.620 180L248.025 176.736Q247.730 176.098 247.448 175.472Q247.166 174.847 246.822 174.110L246.822 174.110L246.724 174.110Q246.454 174.847 246.184 175.472Q245.914 176.098 245.644 176.736L245.644 176.736L244.147 180Z"/></svg>