<svg width="480px" height="360px" xmlns="http://www.w3.org/2000/svg"><path fill="#F00" d="M252.466 184.515L248.859 184.515L248.859 180.810L249.006 178.945Q248.393 179.534 247.583 179.914Q246.773 180.294 245.939 180.294L245.939 180.294Q244.810 180.294 243.890 179.853Q242.969 179.411 242.319 178.589Q241.669 177.767 241.313 176.589Q240.957 175.411 240.957 173.914L240.957 173.914Q240.957 172.417 241.387 171.239Q241.816 170.061 242.515 169.239Q243.215 168.417 244.135 167.975Q245.055 167.534 246.012 167.534L246.012 167.534Q247.018 167.534 247.779 167.890Q248.540 168.245 249.252 169.031L249.252 169.031L249.350 169.031L249.644 167.828L252.466 167.828L252.466 184.515ZM246.871 177.350L246.871 177.350Q247.460 177.350 247.939 177.104Q248.417 176.859 248.859 176.245L248.859 176.245L248.859 171.264Q248.368 170.822 247.853 170.650Q247.337 170.479 246.847 170.479L246.847 170.479Q245.988 170.479 245.325 171.301Q244.663 172.123 244.663 173.865L244.663 173.865Q244.663 175.681 245.239 176.515Q245.816 177.350 246.871 177.350Z"/></svg>