<svg width="480px" height="360px" xmlns="http://www.w3.org/2000/svg"><path fill="#F00" d="M241.663 178.840L241.663 178.840Q241.663 178.107 241.997 177.729Q242.331 177.352 242.955 177.352L242.955 177.352Q243.590 177.352 243.945 177.729Q244.301 178.107 244.301 178.840L244.301 178.840Q244.301 179.551 243.940 179.934Q243.579 180.317 242.955 180.317L242.955 180.317Q242.397 180.317 242.030 179.973Q241.663 179.628 241.663 178.840ZM241.663 169.176L241.663 169.176Q241.663 167.699 242.955 167.699L242.955 167.699Q244.301 167.699 244.301 169.176L244.301 169.176Q244.301 169.888 243.940 170.271Q243.579 170.654 242.955 170.654L242.955 170.654Q242.397 170.654 242.030 170.309Q241.663 169.964 241.663 169.176Z"/></svg>