<svg width="480px" height="360px" xmlns="http://www.w3.org/2000/svg"><path fill="#F00" d="M246.878 182.683L245.415 182.683L245.415 180.268Q244.244 180.146 243.146 179.622Q242.049 179.098 241.268 178.390L241.268 178.390L242.195 177Q242.976 177.683 243.915 178.159Q244.854 178.634 245.976 178.634L245.976 178.634Q247.341 178.634 248.012 177.951Q248.683 177.268 248.683 176.122L248.683 176.122Q248.683 175.146 248.183 174.500Q247.683 173.854 246.927 173.378Q246.171 172.902 245.280 172.488Q244.390 172.073 243.634 171.537Q242.878 171 242.378 170.232Q241.878 169.463 241.878 168.268L241.878 168.268Q241.878 166.634 242.841 165.549Q243.805 164.463 245.415 164.220L245.415 164.220L245.415 161.756L246.878 161.756L246.878 164.171Q248.049 164.293 248.866 164.805Q249.683 165.317 250.341 166.024L250.341 166.024L249.268 167.220Q248.585 166.561 247.939 166.195Q247.293 165.829 246.293 165.829L246.293 165.829Q245.171 165.829 244.512 166.463Q243.854 167.098 243.854 168.171L243.854 168.171Q243.854 169.049 244.354 169.610Q244.854 170.171 245.610 170.598Q246.366 171.024 247.256 171.427Q248.146 171.829 248.902 172.402Q249.659 172.976 250.159 173.817Q250.659 174.659 250.659 175.976L250.659 175.976Q250.659 177.732 249.646 178.854Q248.634 179.976 246.878 180.220L246.878 180.220L246.878 182.683Z"/></svg>