<svg version="1.1" xmlns="http://www.w3.org/2000/svg" xmlns:xlink="http://www.w3.org/1999/xlink" width="76.15744" height="27.03088" viewBox="0,0,76.15744,27.03088"><g transform="translate(-201.92128,-166.48456)"><g data-paper-data="{&quot;isPaintingLayer&quot;:true}" stroke-miterlimit="10" stroke-dasharray="" stroke-dashoffset="0" style="mix-blend-mode: normal"><path d="M271.74053,175.73724h-63.69801" fill="none" fill-rule="nonzero" stroke="#cbf8c4" stroke-width="7.5" stroke-linecap="round" stroke-linejoin="miter"/><path d="M208.04618,185.85692h63.69802" fill="none" fill-rule="nonzero" stroke="#cbf8c4" stroke-width="7.5" stroke-linecap="round" stroke-linejoin="miter"/><path d="M204.25554,185.62712v-10.15996h71.29813v10.15996z" fill="#cbf8c4" fill-rule="nonzero" stroke="none" stroke-width="0" stroke-linecap="butt" stroke-linejoin="miter"/><path d="M201.92128,193.51544v-27.03088h76.15744v27.03088z" fill="none" fill-rule="nonzero" stroke="none" stroke-width="NaN" stroke-linecap="butt" stroke-linejoin="miter"/><g fill="#000000" fill-rule="evenodd" stroke="none" stroke-width="1" stroke-linecap="round" stroke-linejoin="round"><path d="M270.82223,176.34775v0c0.46303,0.33337 0.56828,0.97924 0.23491,1.44227l-5.50027,7.63966c-0.33365,0.46331 -0.97924,0.56828 -1.44254,0.23491v0c-0.46303,-0.33337 -0.56828,-0.97924 -0.23491,-1.44254l5.50027,-7.63939c0.33365,-0.46331 0.97924,-0.56828 1.44254,-0.23491z"/><path d="M260.12035,180.41117v0c0.39739,-0.40987 1.05166,-0.4199 1.46126,-0.02251l3.79732,3.68176c0.4096,0.39712 0.41963,1.05139 0.02251,1.46126v0c-0.39739,0.4096 -1.05166,0.41963 -1.46126,0.02251l-3.79705,-3.68176c-0.40987,-0.39739 -0.4199,-1.05166 -0.02279,-1.46126z"/></g><g fill="#000000" fill-rule="evenodd" stroke="none" stroke-width="1" stroke-linecap="round" stroke-linejoin="round"><path d="M216.27719,178.78139v-0.56168c0,-0.40721 0.33701,-0.74423 0.74423,-0.74423c0.40721,0 0.75828,0.33701 0.75828,0.74423v5.93977c0,0.40721 -0.35105,0.74423 -0.75828,0.74423c-0.40721,0 -0.74423,-0.33701 -0.74423,-0.74423v-0.75828c-0.09829,0.63189 -0.9689,1.51653 -2.30288,1.51653c-1.55866,0 -3.42625,-1.20762 -3.42625,-3.74921c0,-2.49947 1.88162,-3.73517 3.42625,-3.73517c1.0391,0 1.93779,0.5336 2.30288,1.34803zM216.3474,181.16852c0,-1.75524 -1.17953,-2.45735 -2.13437,-2.45735c-1.02508,0 -2.17652,0.80039 -2.17652,2.45735c0,1.67099 1.15144,2.47139 2.17652,2.47139c0.95485,0 2.13437,-0.73018 2.13437,-2.47139z"/><path d="M225.62917,183.26078c0,0.33701 -0.23871,0.51955 -0.39319,0.67402c-0.60381,0.63189 -1.39016,0.95485 -2.35905,0.95485c-1.67099,0 -3.69305,-1.22165 -3.69305,-3.72113c0,-2.51351 2.02205,-3.73517 3.69305,-3.73517c0.9689,0 1.75524,0.32296 2.35905,0.95485c0.15446,0.15446 0.39319,0.33701 0.39319,0.67402c0,0.35105 -0.29489,0.57572 -0.60381,0.57572c-0.28085,0 -0.49148,-0.15446 -0.60381,-0.2668c-0.37914,-0.44934 -0.9689,-0.64594 -1.48845,-0.64594c-1.17953,0 -2.27481,0.84252 -2.27481,2.44332c0,1.58675 1.09528,2.42927 2.27481,2.42927c0.51955,0 1.10932,-0.19658 1.48845,-0.64594c0.11234,-0.11234 0.32296,-0.2668 0.60381,-0.2668c0.30892,0 0.60381,0.22467 0.60381,0.57572z"/><path d="M233.05738,183.26078c0,0.33701 -0.23871,0.51955 -0.39319,0.67402c-0.60381,0.63189 -1.39016,0.95485 -2.35905,0.95485c-1.67099,0 -3.69305,-1.22165 -3.69305,-3.72113c0,-2.51351 2.02205,-3.73517 3.69305,-3.73517c0.9689,0 1.75524,0.32296 2.35905,0.95485c0.15446,0.15446 0.39319,0.33701 0.39319,0.67402c0,0.35105 -0.29489,0.57572 -0.60381,0.57572c-0.28085,0 -0.49148,-0.15446 -0.60381,-0.2668c-0.37914,-0.44934 -0.9689,-0.64594 -1.48845,-0.64594c-1.17953,0 -2.27481,0.84252 -2.27481,2.44332c0,1.58675 1.09528,2.42927 2.27481,2.42927c0.51955,0 1.10932,-0.19658 1.48845,-0.64594c0.11234,-0.11234 0.32296,-0.2668 0.60381,-0.2668c0.30892,0 0.60381,0.22467 0.60381,0.57572z"/><path d="M241.20175,180.92981c0,0.57572 -0.32296,0.80039 -0.92677,0.80039l-4.70408,-0.01405c0.15446,1.3059 1.17953,1.95184 2.30288,1.95184c0.57572,0 0.9689,-0.14041 1.40419,-0.40721c0.23871,-0.12639 0.39319,-0.22467 0.58976,-0.22467c0.32296,0 0.51955,0.22467 0.51955,0.5336c0,0.18255 -0.07021,0.37914 -0.37914,0.63189c-0.5336,0.4353 -1.3059,0.68805 -2.19055,0.68805c-1.82546,0 -3.7773,-1.16548 -3.7773,-3.70709c0,-2.52756 2.03608,-3.74921 3.63689,-3.74921c1.60079,0 3.52455,1.26379 3.52455,3.49646zM235.57089,180.64896h4.1845c-0.12639,-1.33399 -1.1374,-1.92375 -2.07821,-1.92375c-0.92677,0 -1.97992,0.58976 -2.10631,1.92375z"/><path d="M249.83758,181.16852c0,2.54161 -1.86758,3.74921 -3.42625,3.74921c-1.33399,0 -2.20459,-0.88465 -2.30288,-1.51653v0.75828c0,0.04213 0,0.09829 -0.01405,0.14041v2.52756c0,0.40721 -0.33701,0.74423 -0.74423,0.74423c-0.40721,0 -0.74423,-0.33701 -0.74423,-0.74423v-8.60774c0,-0.40721 0.35105,-0.74423 0.75828,-0.74423c0.40721,0 0.74423,0.33701 0.74423,0.74423v0.56168c0.36509,-0.81444 1.26379,-1.34803 2.30288,-1.34803c1.54462,0 3.42625,1.2357 3.42625,3.73517zM248.34912,181.16852c0,-1.65695 -1.15144,-2.45735 -2.17652,-2.45735c-0.95485,0 -2.13437,0.7021 -2.13437,2.45735c0,1.74122 1.17953,2.47139 2.13437,2.47139c1.02508,0 2.17652,-0.80039 2.17652,-2.47139z"/><path d="M254.93482,184.06118c0,0.57572 -0.65998,0.82848 -1.44632,0.82848c-0.84252,0 -1.67099,-0.29489 -1.67099,-1.90972v-4.26877h-0.5336c-0.36509,0 -0.60381,-0.23871 -0.60381,-0.60381c0,-0.35105 0.23871,-0.58976 0.60381,-0.58976h0.5336v-1.09528c0,-0.39319 0.33701,-0.73018 0.73018,-0.73018c0.40721,0 0.74423,0.33701 0.74423,0.73018v1.09528h1.02508c0.36509,0 0.61785,0.23871 0.61785,0.58976c0,0.36509 -0.25275,0.60381 -0.61785,0.60381h-1.02508v4.28282c0,0.42126 0.16851,0.61785 0.49148,0.61785c0.18255,0 0.39319,-0.05617 0.54764,-0.07021c0.35105,-0.05617 0.60381,0.16851 0.60381,0.51955z"/></g></g></g></svg>