<svg width="480px" height="360px" xmlns="http://www.w3.org/2000/svg"><path fill="#F00" d="M244.859 180.066L240.022 168.005L241.970 168.005L244.596 174.845Q245.461 177.187 245.669 178.227L245.669 178.227L245.756 178.227Q245.899 177.669 246.353 176.317Q246.807 174.966 249.324 168.005L249.324 168.005L251.272 168.005L246.118 181.663Q245.352 183.688 244.328 184.536Q243.305 185.384 241.817 185.384L241.817 185.384Q240.985 185.384 240.175 185.198L240.175 185.198L240.175 183.743Q240.777 183.874 241.521 183.874L241.521 183.874Q243.393 183.874 244.192 181.773L244.192 181.773L244.859 180.066Z"/></svg>