<svg width="480px" height="360px" xmlns="http://www.w3.org/2000/svg"><path fill="#F00" d="M246.610 180.293L246.610 180.293Q245.512 180.293 244.524 179.878Q243.537 179.463 242.780 178.671Q242.024 177.878 241.573 176.720Q241.122 175.561 241.122 174.098L241.122 174.098Q241.122 172.610 241.573 171.451Q242.024 170.293 242.780 169.488Q243.537 168.683 244.524 168.268Q245.512 167.854 246.610 167.854L246.610 167.854Q247.707 167.854 248.695 168.268Q249.683 168.683 250.439 169.488Q251.195 170.293 251.646 171.451Q252.098 172.610 252.098 174.098L252.098 174.098Q252.098 175.561 251.646 176.720Q251.195 177.878 250.439 178.671Q249.683 179.463 248.695 179.878Q247.707 180.293 246.610 180.293ZM246.610 178.634L246.610 178.634Q247.366 178.634 248 178.305Q248.634 177.976 249.085 177.378Q249.537 176.780 249.780 175.951Q250.024 175.122 250.024 174.098L250.024 174.098Q250.024 173.073 249.780 172.232Q249.537 171.390 249.085 170.780Q248.634 170.171 248 169.841Q247.366 169.512 246.610 169.512L246.610 169.512Q245.854 169.512 245.220 169.841Q244.585 170.171 244.134 170.780Q243.683 171.390 243.439 172.232Q243.195 173.073 243.195 174.098L243.195 174.098Q243.195 175.122 243.439 175.951Q243.683 176.780 244.134 177.378Q244.585 177.976 245.220 178.305Q245.854 178.634 246.610 178.634Z"/></svg>