<svg width="480px" height="360px" xmlns="http://www.w3.org/2000/svg"><path fill="#F00" d="M244.663 180.294L244.663 180.294Q243.828 180.294 243.153 180.012Q242.479 179.730 242.012 179.227Q241.546 178.724 241.288 178.061Q241.031 177.399 241.031 176.613L241.031 176.613Q241.031 174.699 242.650 173.620Q244.270 172.540 247.877 172.172L247.877 172.172Q247.828 171.362 247.399 170.883Q246.969 170.405 245.963 170.405L245.963 170.405Q245.178 170.405 244.405 170.699Q243.632 170.994 242.748 171.509L242.748 171.509L241.448 169.129Q242.626 168.417 243.914 167.975Q245.202 167.534 246.650 167.534L246.650 167.534Q249.006 167.534 250.245 168.871Q251.485 170.209 251.485 173.031L251.485 173.031L251.485 180L248.540 180L248.294 178.748L248.196 178.748Q247.411 179.436 246.552 179.865Q245.693 180.294 244.663 180.294ZM245.890 177.497L245.890 177.497Q246.503 177.497 246.945 177.227Q247.387 176.957 247.877 176.466L247.877 176.466L247.877 174.331Q245.963 174.601 245.227 175.117Q244.491 175.632 244.491 176.344L244.491 176.344Q244.491 176.933 244.871 177.215Q245.252 177.497 245.890 177.497Z"/></svg>