<svg width="480px" height="360px" xmlns="http://www.w3.org/2000/svg"><path fill="#F00" d="M251.338 175.086L251.338 175.086Q251.338 176.575 250.222 177.543Q249.105 178.512 247.103 178.763L247.103 178.763L247.103 181.302L245.691 181.302L245.691 178.862Q244.465 178.862 243.316 178.670Q242.167 178.479 241.434 178.140L241.434 178.140L241.434 176.432Q242.342 176.837 243.529 177.094Q244.717 177.352 245.691 177.352L245.691 177.352L245.691 172.536Q243.447 171.825 242.544 170.884Q241.642 169.943 241.642 168.454L241.642 168.454Q241.642 167.021 242.752 166.101Q243.863 165.182 245.691 164.985L245.691 164.985L245.691 162.993L247.103 162.993L247.103 164.963Q249.116 165.018 250.988 165.773L250.988 165.773L250.419 167.207Q248.788 166.561 247.103 166.440L247.103 166.440L247.103 171.190Q248.821 171.737 249.674 172.257Q250.528 172.777 250.933 173.450Q251.338 174.123 251.338 175.086ZM249.477 175.228L249.477 175.228Q249.477 174.440 248.990 173.953Q248.503 173.466 247.103 172.985L247.103 172.985L247.103 177.242Q249.477 176.914 249.477 175.228ZM243.491 168.432L243.491 168.432Q243.491 169.264 243.984 169.767Q244.476 170.271 245.691 170.720L245.691 170.720L245.691 166.484Q244.607 166.659 244.049 167.168Q243.491 167.677 243.491 168.432Z"/></svg>