<svg width="480px" height="360px" xmlns="http://www.w3.org/2000/svg"><path fill="#F00" d="M244.732 180.293L244.732 180.293Q243.244 180.293 242.256 179.415Q241.268 178.537 241.268 176.927L241.268 176.927Q241.268 174.976 243 173.939Q244.732 172.902 248.537 172.488L248.537 172.488Q248.537 171.927 248.427 171.390Q248.317 170.854 248.049 170.439Q247.780 170.024 247.305 169.768Q246.829 169.512 246.098 169.512L246.098 169.512Q245.073 169.512 244.171 169.902Q243.268 170.293 242.561 170.780L242.561 170.780L241.780 169.390Q242.610 168.854 243.805 168.354Q245 167.854 246.439 167.854L246.439 167.854Q248.610 167.854 249.585 169.183Q250.561 170.512 250.561 172.732L250.561 172.732L250.561 180L248.902 180L248.732 178.585L248.659 178.585Q247.805 179.293 246.829 179.793Q245.854 180.293 244.732 180.293ZM245.317 178.683L245.317 178.683Q246.171 178.683 246.927 178.280Q247.683 177.878 248.537 177.098L248.537 177.098L248.537 173.805Q247.049 174 246.037 174.268Q245.024 174.537 244.402 174.902Q243.780 175.268 243.500 175.744Q243.220 176.220 243.220 176.780L243.220 176.780Q243.220 177.805 243.829 178.244Q244.439 178.683 245.317 178.683Z"/></svg>