<svg width="480px" height="360px" xmlns="http://www.w3.org/2000/svg"><path fill="#F00" d="M250.503 184.221L250.503 184.221Q248.663 184.221 246.982 183.656Q245.301 183.092 244.012 181.939Q242.724 180.785 241.963 179.055Q241.202 177.325 241.202 174.969L241.202 174.969Q241.202 172.393 242.086 170.294Q242.969 168.196 244.479 166.699Q245.988 165.202 248 164.393Q250.012 163.583 252.270 163.583L252.270 163.583Q254.258 163.583 255.865 164.221Q257.472 164.859 258.601 166.025Q259.730 167.190 260.344 168.798Q260.957 170.405 260.957 172.319L260.957 172.319Q260.957 174.012 260.442 175.276Q259.926 176.540 259.117 177.387Q258.307 178.233 257.313 178.650Q256.319 179.067 255.362 179.067L255.362 179.067Q254.307 179.067 253.521 178.577Q252.736 178.086 252.540 177.202L252.540 177.202L252.491 177.202Q251.975 177.914 251.141 178.368Q250.307 178.822 249.546 178.822L249.546 178.822Q248.074 178.822 247.190 177.828Q246.307 176.834 246.307 175.141L246.307 175.141Q246.307 174.012 246.687 172.933Q247.067 171.853 247.730 171.006Q248.393 170.160 249.301 169.644Q250.209 169.129 251.264 169.129L251.264 169.129Q251.877 169.129 252.344 169.411Q252.810 169.693 253.129 170.356L253.129 170.356L253.178 170.356L253.521 169.325L255.755 169.325L254.626 174.724Q254.110 176.834 255.755 176.834L255.755 176.834Q256.294 176.834 256.822 176.528Q257.350 176.221 257.767 175.644Q258.184 175.067 258.429 174.245Q258.675 173.423 258.675 172.417L258.675 172.417Q258.675 171.092 258.307 169.890Q257.939 168.687 257.129 167.767Q256.319 166.847 255.043 166.307Q253.767 165.767 251.975 165.767L251.975 165.767Q250.405 165.767 248.908 166.417Q247.411 167.067 246.233 168.258Q245.055 169.448 244.344 171.129Q243.632 172.810 243.632 174.871L243.632 174.871Q243.632 176.687 244.209 178.037Q244.785 179.387 245.779 180.270Q246.773 181.153 248.061 181.595Q249.350 182.037 250.798 182.037L250.798 182.037Q251.755 182.037 252.748 181.767Q253.742 181.497 254.528 181.080L254.528 181.080L255.313 183.043Q254.184 183.656 253.006 183.939Q251.828 184.221 250.503 184.221ZM250.307 176.564L250.307 176.564Q250.699 176.564 251.080 176.319Q251.460 176.074 251.926 175.460L251.926 175.460L252.515 172.147Q252.147 171.436 251.387 171.436L251.387 171.436Q250.822 171.436 250.393 171.779Q249.963 172.123 249.656 172.638Q249.350 173.153 249.190 173.767Q249.031 174.380 249.031 174.920L249.031 174.920Q249.031 176.564 250.307 176.564Z"/></svg>