<svg width="480px" height="360px" xmlns="http://www.w3.org/2000/svg"><path fill="#F00" d="M243.878 180.293L243.878 180.293Q242.439 180.293 241.451 179.622Q240.463 178.951 239.951 177.829L239.951 177.829L241.195 176.780Q241.537 177.659 242.220 178.159Q242.902 178.659 243.927 178.659L243.927 178.659Q245.146 178.659 245.902 177.756Q246.659 176.854 246.976 175.244L246.976 175.244L249.220 164L251.122 164L248.829 175.512Q248.634 176.537 248.220 177.415Q247.805 178.293 247.195 178.939Q246.585 179.585 245.756 179.939Q244.927 180.293 243.878 180.293Z"/></svg>