<svg width="480px" height="360px" xmlns="http://www.w3.org/2000/svg"><path fill="#F00" d="M245.732 180.293L245.732 180.293Q244.780 180.293 244.134 180Q243.488 179.707 243.085 179.195Q242.683 178.683 242.512 177.951Q242.341 177.220 242.341 176.341L242.341 176.341L242.341 169.780L240.585 169.780L240.585 168.268L242.439 168.146L242.683 164.829L244.366 164.829L244.366 168.146L247.561 168.146L247.561 169.780L244.366 169.780L244.366 176.366Q244.366 177.463 244.768 178.061Q245.171 178.659 246.195 178.659L246.195 178.659Q246.512 178.659 246.878 178.561Q247.244 178.463 247.537 178.341L247.537 178.341L247.927 179.854Q247.439 180.024 246.866 180.159Q246.293 180.293 245.732 180.293Z"/></svg>