<svg width="480px" height="360px" xmlns="http://www.w3.org/2000/svg"><path fill="#F00" d="M247.878 180.293L247.878 180.293Q246.659 180.293 245.598 179.939Q244.537 179.585 243.768 178.768Q243 177.951 242.561 176.634Q242.122 175.317 242.122 173.390L242.122 173.390L242.122 164L244.146 164L244.146 173.439Q244.146 174.878 244.439 175.854Q244.732 176.829 245.232 177.415Q245.732 178 246.415 178.256Q247.098 178.512 247.878 178.512L247.878 178.512Q248.683 178.512 249.366 178.256Q250.049 178 250.561 177.415Q251.073 176.829 251.366 175.854Q251.659 174.878 251.659 173.439L251.659 173.439L251.659 164L253.610 164L253.610 173.390Q253.610 175.317 253.171 176.634Q252.732 177.951 251.963 178.768Q251.195 179.585 250.146 179.939Q249.098 180.293 247.878 180.293Z"/></svg>