<svg width="480px" height="360px" xmlns="http://www.w3.org/2000/svg"><path fill="#F00" d="M244.488 180.293L244.488 180.293Q242.878 180.293 241.744 179.524Q240.610 178.756 239.902 177.659L239.902 177.659L241.122 176.659Q241.390 177.073 241.707 177.439Q242.024 177.805 242.439 178.098Q242.854 178.390 243.390 178.561Q243.927 178.732 244.610 178.732L244.610 178.732Q245.366 178.732 246.061 178.439Q246.756 178.146 247.293 177.598Q247.829 177.049 248.146 176.293Q248.463 175.537 248.463 174.585L248.463 174.585Q248.463 173.073 247.695 172.341Q246.927 171.610 245.659 171.610L245.659 171.610Q244.902 171.610 244.366 171.805Q243.829 172 243.049 172.415L243.049 172.415L242.244 171.780L244.195 164.439L251.488 164.439L251.171 166.049L245.488 166.049L244.220 170.634Q244.634 170.439 245.146 170.293Q245.659 170.146 246.268 170.146L246.268 170.146Q247.146 170.146 247.890 170.402Q248.634 170.659 249.183 171.171Q249.732 171.683 250.037 172.451Q250.341 173.220 250.341 174.244L250.341 174.244Q250.341 175.634 249.854 176.756Q249.366 177.878 248.561 178.659Q247.756 179.439 246.695 179.866Q245.634 180.293 244.488 180.293Z"/></svg>