<svg width="480px" height="360px" xmlns="http://www.w3.org/2000/svg"><path fill="#F00" d="M251.293 172.707L240.829 172.707L240.829 171.195L251.293 171.195L251.293 172.707ZM246.073 177.659L246.073 177.659Q245.512 177.659 245.122 177.293Q244.732 176.927 244.732 176.341L244.732 176.341Q244.732 175.780 245.122 175.415Q245.512 175.049 246.073 175.049L246.073 175.049Q246.634 175.049 247.012 175.415Q247.390 175.780 247.390 176.341L247.390 176.341Q247.390 176.927 247.012 177.293Q246.634 177.659 246.073 177.659ZM246.073 168.878L246.073 168.878Q245.512 168.878 245.122 168.512Q244.732 168.146 244.732 167.561L244.732 167.561Q244.732 167 245.122 166.634Q245.512 166.268 246.073 166.268L246.073 166.268Q246.634 166.268 247.012 166.634Q247.390 167 247.390 167.561L247.390 167.561Q247.390 168.146 247.012 168.512Q246.634 168.878 246.073 168.878Z"/></svg>