<svg width="480px" height="360px" xmlns="http://www.w3.org/2000/svg"><path fill="#F00" d="M245.561 180.293L245.561 180.293Q244.561 180.293 243.768 179.902Q242.976 179.512 242.415 178.817Q241.854 178.122 241.549 177.146Q241.244 176.171 241.244 175.024L241.244 175.024Q241.244 172.659 241.793 170.659Q242.341 168.659 243.317 167.207Q244.293 165.756 245.622 164.951Q246.951 164.146 248.512 164.146L248.512 164.146Q249.780 164.146 250.598 164.744Q251.415 165.341 251.902 166.122L251.902 166.122L250.634 167.122Q250.220 166.439 249.695 166.073Q249.171 165.707 248.415 165.707L248.415 165.707Q247.488 165.707 246.659 166.183Q245.829 166.659 245.134 167.524Q244.439 168.390 243.939 169.622Q243.439 170.854 243.195 172.390L243.195 172.390Q244 171.463 245 171.024Q246 170.585 246.805 170.585L246.805 170.585Q248.537 170.585 249.561 171.659Q250.585 172.732 250.585 174.634L250.585 174.634Q250.585 175.780 250.207 176.805Q249.829 177.829 249.146 178.610Q248.463 179.390 247.549 179.841Q246.634 180.293 245.561 180.293ZM245.659 178.829L245.659 178.829Q246.317 178.829 246.902 178.488Q247.488 178.146 247.927 177.598Q248.366 177.049 248.610 176.341Q248.854 175.634 248.854 174.902L248.854 174.902Q248.854 173.561 248.232 172.768Q247.610 171.976 246.366 171.976L246.366 171.976Q245.780 171.976 244.829 172.402Q243.878 172.829 243.024 173.951L243.024 173.951Q243 174.220 243 174.500Q243 174.780 243 175.073L243 175.073Q243 176.756 243.707 177.793Q244.415 178.829 245.659 178.829Z"/></svg>