<svg width="480px" height="360px" xmlns="http://www.w3.org/2000/svg"><path fill="#F00" d="M246.184 171.607L246.184 171.607Q246.798 171.607 247.423 171.252Q248.049 170.896 248.515 170.061L248.515 170.061Q248.270 168.221 247.595 167.521Q246.920 166.822 246.086 166.822L246.086 166.822Q245.301 166.822 244.712 167.423Q244.123 168.025 244.123 169.350L244.123 169.350Q244.123 170.601 244.712 171.104Q245.301 171.607 246.184 171.607ZM245.620 180.294L245.620 180.294Q244.074 180.294 242.933 179.730Q241.791 179.166 241.055 178.429L241.055 178.429L242.969 176.270Q243.362 176.712 244.025 177.043Q244.687 177.374 245.374 177.374L245.374 177.374Q246.037 177.374 246.601 177.129Q247.166 176.883 247.595 176.307Q248.025 175.730 248.282 174.810Q248.540 173.890 248.589 172.515L248.589 172.515Q248.294 172.908 247.902 173.215Q247.509 173.521 247.092 173.730Q246.675 173.939 246.258 174.049Q245.840 174.160 245.472 174.160L245.472 174.160Q244.466 174.160 243.620 173.865Q242.773 173.571 242.160 172.982Q241.546 172.393 241.190 171.485Q240.834 170.577 240.834 169.350L240.834 169.350Q240.834 168.147 241.252 167.178Q241.669 166.209 242.368 165.521Q243.067 164.834 244.012 164.479Q244.957 164.123 246.012 164.123L246.012 164.123Q247.141 164.123 248.209 164.564Q249.276 165.006 250.098 165.939Q250.920 166.871 251.423 168.331Q251.926 169.791 251.926 171.853L251.926 171.853Q251.926 174.037 251.399 175.632Q250.871 177.227 250 178.258Q249.129 179.288 247.988 179.791Q246.847 180.294 245.620 180.294Z"/></svg>