<svg width="480px" height="360px" xmlns="http://www.w3.org/2000/svg"><path fill="#F00" d="M244.683 180L242.317 180L242.537 164L244.488 164L244.244 172.805Q244.171 174.098 244.134 175.390Q244.098 176.683 244 178L244 178L244.098 178Q244.659 176.683 245.244 175.390Q245.829 174.098 246.366 172.805L246.366 172.805L250.366 164L252.098 164L252.317 172.805Q252.341 174.073 252.341 175.378Q252.341 176.683 252.341 178L252.341 178L252.439 178Q252.927 176.683 253.451 175.390Q253.976 174.098 254.463 172.805L254.463 172.805L257.927 164L259.805 164L253.220 180L250.805 180L250.634 170.220Q250.634 169.341 250.646 168.378Q250.659 167.415 250.707 166.463L250.707 166.463L250.610 166.463Q250.268 167.415 249.866 168.341Q249.463 169.268 249.049 170.220L249.049 170.220L244.683 180Z"/></svg>