<svg version="1.1" xmlns="http://www.w3.org/2000/svg" xmlns:xlink="http://www.w3.org/1999/xlink" width="485.89121" height="367.71835" viewBox="0,0,485.89121,367.71835"><g transform="translate(2.94558,3.85915)"><g data-paper-data="{&quot;isPaintingLayer&quot;:true}" stroke-miterlimit="10" stroke-dasharray="" stroke-dashoffset="0" style="mix-blend-mode: normal"><path d="M-2.86648,-2.733l485.30278,-1.12615l0.50933,367.08698l-485.89121,0.63137z" fill="#000000" fill-rule="nonzero" stroke="none" stroke-width="1" stroke-linecap="butt" stroke-linejoin="miter" opacity="0.29331"/><path d="M148.71283,92.78176h186.41719c6.94672,0 12.57716,5.81726 12.57716,12.99452v120.2311c0,7.17723 -5.63044,12.99451 -12.57716,12.99451h-186.41718c-6.94559,0 -12.57603,-5.81727 -12.57603,-12.99451v-120.2311c0,-7.17723 5.63044,-12.99452 12.57603,-12.99452z" fill="#ffffff" fill-rule="evenodd" stroke="none" stroke-width="1" stroke-linecap="round" stroke-linejoin="round"/><g><g stroke="none"><path d="M83.69347,249.60681v-192.96181h374.26109v192.96181z" fill="none" fill-rule="nonzero" stroke-width="0" stroke-linecap="butt" stroke-linejoin="miter"/><path d="M184.1041,138.25611c0.6231,0 1.1008,0.51925 1.1008,1.14236v12.37887c0,0.6231 -0.47771,1.14234 -1.1008,1.14234c-0.64387,0 -1.14234,-0.51925 -1.14234,-1.14234v-5.08864h-6.95793v5.08864c0,0.6231 -0.49848,1.14234 -1.1008,1.14234c-0.64387,0 -1.14236,-0.51925 -1.14236,-1.14234v-12.37887c0,-0.6231 0.49849,-1.14236 1.14236,-1.14236c0.60233,0 1.1008,0.51925 1.1008,1.14236v5.35864h6.95793v-5.35864c0,-0.6231 0.49848,-1.14236 1.14234,-1.14236z" fill="#000000" fill-rule="evenodd" stroke-width="1" stroke-linecap="round" stroke-linejoin="round"/><path d="M197.87457,147.1041c0,0.85157 -0.47771,1.18388 -1.37081,1.18388l-6.95793,-0.02077c0.22847,1.9316 1.74467,2.88703 3.40626,2.88703c0.85157,0 1.43313,-0.2077 2.077,-0.60233c0.35309,-0.18693 0.58156,-0.33232 0.87234,-0.33232c0.47771,0 0.76849,0.33232 0.76849,0.78926c0,0.27001 -0.10385,0.56079 -0.56079,0.93465c-0.78926,0.64387 -1.93161,1.01773 -3.24011,1.01773c-2.70009,0 -5.58711,-1.7239 -5.58711,-5.48326c0,-3.73859 3.01165,-5.54556 5.37941,-5.54556c2.36777,0 5.21324,1.86929 5.21324,5.17172zM189.54582,146.6887h6.18943c-0.18693,-1.97314 -1.68236,-2.84548 -3.07395,-2.84548c-1.37081,0 -2.92857,0.87234 -3.11548,2.84548z" fill="#000000" fill-rule="evenodd" stroke-width="1" stroke-linecap="round" stroke-linejoin="round"/><path d="M207.8026,143.9263v-0.8308c0,-0.60233 0.49848,-1.1008 1.1008,-1.1008c0.60233,0 1.12157,0.49848 1.12157,1.1008v8.78568c0,0.60233 -0.51925,1.1008 -1.12157,1.1008c-0.60233,0 -1.1008,-0.49848 -1.1008,-1.1008v-1.12157c-0.14539,0.93465 -1.43312,2.24315 -3.40627,2.24315c-2.30546,0 -5.06786,-1.78621 -5.06786,-5.54556c0,-3.69705 2.78317,-5.5248 5.06786,-5.5248c1.53697,0 2.86626,0.78926 3.40627,1.99391zM207.90645,147.45719c0,-2.59625 -1.74467,-3.63473 -3.15702,-3.63473c-1.5162,0 -3.21935,1.18388 -3.21935,3.63473c0,2.47162 1.70313,3.6555 3.21935,3.6555c1.41235,0 3.15702,-1.08003 3.15702,-3.6555z" fill="#000000" fill-rule="evenodd" stroke-width="1" stroke-linecap="round" stroke-linejoin="round"/><path d="M219.28836,142.97088c0,0.6231 -0.47771,1.03849 -1.41235,1.03849c-1.82775,0 -3.01164,1.41235 -3.15702,2.51316v5.33787c0,0.60233 -0.49848,1.1008 -1.1008,1.1008c-0.60233,0 -1.1008,-0.49848 -1.1008,-1.1008v-8.74414c0,-0.6231 0.49848,-1.12157 1.1008,-1.12157c0.60233,0 1.1008,0.49848 1.1008,1.12157v1.37081c0.10385,-0.72695 1.41235,-2.53393 3.4478,-2.53393c0.72695,0 1.12157,0.45694 1.12157,1.01773z" fill="#000000" fill-rule="evenodd" stroke-width="1" stroke-linecap="round" stroke-linejoin="round"/><path d="M226.82785,151.73579c0,0.85157 -0.9762,1.22542 -2.1393,1.22542c-1.24619,0 -2.47162,-0.43617 -2.47162,-2.82471v-6.31406h-0.78926c-0.54002,0 -0.89311,-0.35309 -0.89311,-0.89311c0,-0.51925 0.35309,-0.87234 0.89311,-0.87234h0.78926v-1.62006c0,-0.58156 0.49848,-1.08003 1.08003,-1.08003c0.60233,0 1.1008,0.49848 1.1008,1.08003v1.62006h1.5162c0.54002,0 0.91388,0.35309 0.91388,0.87234c0,0.54002 -0.37386,0.89311 -0.91388,0.89311h-1.5162v6.33483c0,0.6231 0.24924,0.91388 0.72695,0.91388c0.27001,0 0.58156,-0.08308 0.81003,-0.10385c0.51925,-0.08308 0.89311,0.24924 0.89311,0.76849z" fill="#000000" fill-rule="evenodd" stroke-width="1" stroke-linecap="round" stroke-linejoin="round"/><path d="M242.55066,143.9263v-0.8308c0,-0.60233 0.49848,-1.1008 1.1008,-1.1008c0.60233,0 1.12157,0.49848 1.12157,1.1008v8.78568c0,0.60233 -0.51925,1.1008 -1.12157,1.1008c-0.60233,0 -1.1008,-0.49848 -1.1008,-1.1008v-1.12157c-0.14539,0.93465 -1.43312,2.24315 -3.40626,2.24315c-2.30546,0 -5.06787,-1.78621 -5.06787,-5.54556c0,-3.69705 2.78317,-5.5248 5.06787,-5.5248c1.53697,0 2.86625,0.78926 3.40626,1.99391zM242.65452,147.45719c0,-2.59625 -1.74467,-3.63473 -3.15702,-3.63473c-1.5162,0 -3.21935,1.18388 -3.21935,3.63473c0,2.47162 1.70313,3.6555 3.21935,3.6555c1.41235,0 3.15702,-1.08003 3.15702,-3.6555z" fill="#000000" fill-rule="evenodd" stroke-width="1" stroke-linecap="round" stroke-linejoin="round"/><path d="M257.17269,146.75101v5.1094c0,0.60233 -0.47771,1.1008 -1.08003,1.1008c-0.60233,0 -1.1008,-0.49848 -1.1008,-1.1008v-5.1094c0,-2.07699 -1.18388,-2.9078 -2.53393,-2.9078c-1.99391,0 -2.86625,1.78621 -2.99087,2.67932v5.33787c0,0.60233 -0.49848,1.1008 -1.1008,1.1008c-0.60233,0 -1.1008,-0.49848 -1.1008,-1.1008v-8.74414c0,-0.6231 0.49848,-1.12157 1.1008,-1.12157c0.60233,0 1.1008,0.49848 1.1008,1.12157v1.37081c0.10385,-0.72695 1.35004,-2.53393 3.71782,-2.53393c2.01468,0 3.98782,1.26697 3.98782,4.79786z" fill="#000000" fill-rule="evenodd" stroke-width="1" stroke-linecap="round" stroke-linejoin="round"/><path d="M269.9462,139.12845v12.75273c0,0.60233 -0.51925,1.1008 -1.12159,1.1008c-0.60233,0 -1.1008,-0.49848 -1.1008,-1.1008v-1.12157c-0.14539,0.93465 -1.43312,2.24315 -3.40626,2.24315c-2.30546,0 -5.06786,-1.78621 -5.06786,-5.54556c0,-3.69705 2.78317,-5.5248 5.06786,-5.5248c1.53697,0 2.86625,0.78926 3.40626,1.99391v-0.8308c0,-0.06231 0.00001,-0.14539 0.02077,-0.2077v-3.75935c0,-0.60233 0.49847,-1.1008 1.08003,-1.1008c0.60233,0 1.12159,0.49848 1.12159,1.1008zM267.82765,147.45719c0,-2.59625 -1.74467,-3.63473 -3.15702,-3.63473c-1.5162,0 -3.21933,1.18388 -3.21933,3.63473c0,2.47162 1.70313,3.6555 3.21933,3.6555c1.41235,0 3.15702,-1.08003 3.15702,-3.6555z" fill="#000000" fill-rule="evenodd" stroke-width="1" stroke-linecap="round" stroke-linejoin="round"/><path d="M285.27441,143.55244c0.12462,0.18693 0.29078,0.4154 0.29078,0.76849c0,0.51925 -0.39463,0.8308 -0.89311,0.8308c-0.33232,0 -0.64387,-0.14538 -0.95542,-0.56079c-0.4154,-0.51925 -0.99696,-0.87234 -1.84852,-0.87234c-1.03849,0 -1.66159,0.51925 -1.66159,1.26696c0,0.51925 0.29078,1.01773 1.39158,1.32927l1.28773,0.35309c1.76544,0.47771 3.09473,1.26696 3.09473,3.01164c0,2.18084 -2.05622,3.28164 -4.2163,3.28164c-1.80698,0 -3.07396,-0.78926 -3.61396,-1.64082c-0.10385,-0.14539 -0.43617,-0.56079 -0.43617,-1.05926c0,-0.43617 0.27001,-0.89311 0.85157,-0.89311c0.47771,0 0.72695,0.29078 0.93465,0.60233c0.51925,0.87234 1.37081,1.16311 2.26393,1.16311c1.20465,0 2.03545,-0.49848 2.03545,-1.32927c0,-0.6231 -0.43617,-1.08003 -1.47467,-1.37081l-1.39158,-0.37386c-2.01468,-0.56079 -2.88703,-1.64082 -2.88703,-3.05319c0,-1.95237 1.76544,-3.07395 3.78012,-3.07395c1.49543,0 2.78317,0.60233 3.4478,1.62005z" fill="#000000" fill-rule="evenodd" stroke-width="1" stroke-linecap="round" stroke-linejoin="round"/><path d="M293.2085,151.73579c0,0.85157 -0.9762,1.22542 -2.1393,1.22542c-1.24619,0 -2.47162,-0.43617 -2.47162,-2.82471v-6.31406h-0.78926c-0.54002,0 -0.89311,-0.35309 -0.89311,-0.89311c0,-0.51925 0.35309,-0.87234 0.89311,-0.87234h0.78926v-1.62006c0,-0.58156 0.49848,-1.08003 1.08003,-1.08003c0.60233,0 1.1008,0.49848 1.1008,1.08003v1.62006h1.5162c0.54002,0 0.91388,0.35309 0.91388,0.87234c0,0.54002 -0.37386,0.89311 -0.91388,0.89311h-1.5162v6.33483c0,0.6231 0.24924,0.91388 0.72695,0.91388c0.27001,0 0.58156,-0.08308 0.81003,-0.10385c0.51925,-0.08308 0.89311,0.24924 0.89311,0.76849z" fill="#000000" fill-rule="evenodd" stroke-width="1" stroke-linecap="round" stroke-linejoin="round"/><path d="M302.92883,143.9263v-0.8308c0,-0.60233 0.49848,-1.1008 1.1008,-1.1008c0.60233,0 1.12157,0.49848 1.12157,1.1008v8.78568c0,0.60233 -0.51925,1.1008 -1.12157,1.1008c-0.60233,0 -1.1008,-0.49848 -1.1008,-1.1008v-1.12157c-0.14539,0.93465 -1.43312,2.24315 -3.40627,2.24315c-2.30546,0 -5.06786,-1.78621 -5.06786,-5.54556c0,-3.69705 2.78317,-5.5248 5.06786,-5.5248c1.53697,0 2.86626,0.78926 3.40627,1.99391zM303.03269,147.45719c0,-2.59625 -1.74467,-3.63473 -3.15702,-3.63473c-1.5162,0 -3.21933,1.18388 -3.21933,3.63473c0,2.47162 1.70313,3.6555 3.21933,3.6555c1.41235,0 3.15702,-1.08003 3.15702,-3.6555z" fill="#000000" fill-rule="evenodd" stroke-width="1" stroke-linecap="round" stroke-linejoin="round"/><path d="M314.41481,142.97088c0,0.6231 -0.47771,1.03849 -1.41235,1.03849c-1.82775,0 -3.01165,1.41235 -3.15704,2.51316v5.33787c0,0.60233 -0.49847,1.1008 -1.10098,1.1008c-0.60233,0 -1.1008,-0.49848 -1.1008,-1.1008v-8.74414c0,-0.6231 0.49848,-1.12157 1.1008,-1.12157c0.60252,0 1.10098,0.49848 1.10098,1.12157v1.37081c0.10385,-0.72695 1.41235,-2.53393 3.4478,-2.53393c0.72695,0 1.12159,0.45694 1.12159,1.01773z" fill="#000000" fill-rule="evenodd" stroke-width="1" stroke-linecap="round" stroke-linejoin="round"/></g><g fill="#000000" fill-rule="evenodd" stroke="none" stroke-width="1" stroke-linecap="round" stroke-linejoin="round"><path d="M275.10483,177.44175l1.08003,-3.21935c0.22847,-0.6231 0.58156,-0.87234 1.14236,-0.87234h0.68541c0.70618,0 0.81003,0.37386 0.45694,1.05926l-1.64082,3.26087c-0.27001,0.54002 -0.68541,0.64388 -1.1008,0.64388h-0.12462c-0.51925,0 -0.68541,-0.37386 -0.49848,-0.87234z"/><g><path d="M168.36822,162.34202c0,0.56079 -0.45694,0.99696 -0.99696,0.99696h-3.28164v11.48577c0,0.64387 -0.51925,1.18388 -1.1008,1.18388c-0.6231,0 -1.14234,-0.54002 -1.14234,-1.18388v-11.48577h-3.28164c-0.54002,0 -0.99696,-0.43617 -0.99696,-0.99696c0,-0.56079 0.45695,-0.99696 0.99696,-0.99696h8.80645c0.54002,0 0.99696,0.43617 0.99696,0.99696z"/><path d="M180.58094,161.28276c0.6231,0 1.1008,0.51925 1.1008,1.14234v12.37887c0,0.6231 -0.47771,1.14234 -1.1008,1.14234c-0.64387,0 -1.14234,-0.51925 -1.14234,-1.14234v-5.08863h-6.95793v5.08863c0,0.6231 -0.49848,1.14234 -1.1008,1.14234c-0.64387,0 -1.14234,-0.51925 -1.14234,-1.14234v-12.37887c0,-0.6231 0.49848,-1.14234 1.14234,-1.14234c0.60233,0 1.1008,0.51925 1.1008,1.14234v5.35864h6.95793v-5.35864c0,-0.6231 0.49848,-1.14234 1.14234,-1.14234z"/><path d="M186.45882,162.44587v12.39964c0,0.6231 -0.51925,1.16311 -1.12157,1.16311c-0.64387,0 -1.16311,-0.54002 -1.16311,-1.16311v-12.39964c0,-0.6231 0.51925,-1.16311 1.16311,-1.16311c0.60233,0 1.12157,0.54002 1.12157,1.16311z"/><path d="M197.44611,163.02743c0.31155,0.39463 0.47771,0.70618 0.47771,1.03849c0,0.49848 -0.39463,0.89311 -0.93465,0.89311c-0.39463,0 -0.72695,-0.2077 -0.95542,-0.47772c-0.58156,-0.76849 -1.22542,-1.28773 -2.40931,-1.28773c-1.47466,0 -2.38854,0.74772 -2.38854,1.89006c0,0.91388 0.58156,1.57852 1.9316,2.09777l1.01773,0.39463c2.92857,1.12157 4.424,2.18084 4.424,4.2786c0,2.76241 -2.72087,4.17476 -5.13018,4.17476c-1.76544,0 -3.57243,-0.76849 -4.50708,-2.20161c-0.16616,-0.22847 -0.43617,-0.60233 -0.43617,-1.05926c0,-0.49848 0.31155,-0.97619 0.93465,-0.97619c0.49848,0 0.85157,0.31155 1.08003,0.66464c0.70618,1.08003 1.80698,1.55774 2.92857,1.55774c1.28773,0 2.82471,-0.54002 2.82471,-2.16007c0,-1.3085 -0.97619,-1.82775 -2.57547,-2.45085l-1.12159,-0.43617c-2.07699,-0.81003 -3.61396,-1.86929 -3.61396,-3.90475c0,-2.347 2.03545,-3.8632 4.54862,-3.8632c1.91083,0 3.11548,0.8308 3.90475,1.82775z"/><path d="M217.17754,170.48383c0,3.75935 -2.7624,5.54556 -5.06786,5.54556c-1.97314,0 -3.26087,-1.3085 -3.40627,-2.24315v1.12157c0,0.06231 0,0.14539 -0.02077,0.2077v3.73859c0,0.60233 -0.49848,1.1008 -1.1008,1.1008c-0.60233,0 -1.1008,-0.49848 -1.1008,-1.1008v-12.73196c0,-0.60233 0.51925,-1.1008 1.12157,-1.1008c0.60233,0 1.1008,0.49848 1.1008,1.1008v0.8308c0.54002,-1.20465 1.86929,-1.99391 3.40627,-1.99391c2.2847,0 5.06786,1.82775 5.06786,5.5248zM214.97593,170.48383c0,-2.45085 -1.70313,-3.63473 -3.21935,-3.63473c-1.41235,0 -3.15702,1.03849 -3.15702,3.63473c0,2.57547 1.74467,3.6555 3.15702,3.6555c1.5162,0 3.21935,-1.18388 3.21935,-3.6555z"/><path d="M226.02553,165.99752c0,0.6231 -0.47771,1.03849 -1.41235,1.03849c-1.82775,0 -3.01164,1.41235 -3.15702,2.51316v5.33787c0,0.60233 -0.49848,1.1008 -1.1008,1.1008c-0.60233,0 -1.1008,-0.49848 -1.1008,-1.1008v-8.74414c0,-0.6231 0.49848,-1.12157 1.1008,-1.12157c0.60233,0 1.1008,0.49848 1.1008,1.12157v1.37081c0.10385,-0.72695 1.41235,-2.53393 3.4478,-2.53393c0.72695,0 1.12157,0.45694 1.12157,1.01773z"/><path d="M237.80207,170.5046c0,3.71782 -3.09473,5.5248 -5.48326,5.5248c-2.38854,0 -5.46249,-1.80698 -5.46249,-5.5248c0,-3.69705 3.07396,-5.54556 5.46249,-5.54556c2.38854,0 5.48326,1.84852 5.48326,5.54556zM229.03717,170.5046c0,2.347 1.68236,3.61396 3.28164,3.61396c1.62005,0 3.30241,-1.26696 3.30241,-3.61396c0,-2.36777 -1.68236,-3.63473 -3.30241,-3.63473c-1.59928,0 -3.28164,1.26696 -3.28164,3.63473z"/><path d="M240.33601,161.94739c0,-0.60233 0.51925,-1.1008 1.12157,-1.1008c0.60233,0 1.12157,0.49848 1.12157,1.1008c0,0.60233 -0.51925,1.1008 -1.12157,1.1008c-0.60233,0 -1.12157,-0.49848 -1.12157,-1.1008zM242.55839,166.14291v10.90421c0,2.11853 -1.24619,3.09473 -2.92856,3.09473c-0.58156,0 -1.12159,-0.10385 -1.62006,-0.35309c-0.37386,-0.2077 -0.8308,-0.56079 -0.8308,-1.12157c0,-0.6231 0.60233,-1.14234 1.26696,-0.93465c0.24924,0.10385 0.49848,0.31155 0.93465,0.31155c0.78926,0 0.97619,-0.72695 0.97619,-1.49543v-10.40573c0,-0.6231 0.49848,-1.12157 1.1008,-1.12157c0.60233,0 1.1008,0.49848 1.1008,1.12157z"/><path d="M255.24881,170.13073c0,0.85157 -0.47771,1.18388 -1.37081,1.18388l-6.95793,-0.02077c0.22847,1.9316 1.74467,2.88702 3.40627,2.88702c0.85157,0 1.43312,-0.2077 2.07699,-0.60233c0.35309,-0.18693 0.58156,-0.33232 0.87234,-0.33232c0.47771,0 0.76849,0.33232 0.76849,0.78926c0,0.27001 -0.10385,0.56079 -0.56079,0.93465c-0.78926,0.64387 -1.93161,1.01773 -3.24011,1.01773c-2.70009,0 -5.5871,-1.7239 -5.5871,-5.48326c0,-3.73859 3.01164,-5.54556 5.3794,-5.54556c2.36777,0 5.21324,1.86929 5.21324,5.17171zM246.92008,169.71535h6.18944c-0.18693,-1.97314 -1.68236,-2.84548 -3.07396,-2.84548c-1.37081,0 -2.92857,0.87234 -3.11548,2.84548z"/><path d="M266.23609,173.57855c0,0.49848 -0.35309,0.7685 -0.58156,0.99696c-0.89311,0.93465 -2.05622,1.41235 -3.48934,1.41235c-2.47162,0 -5.46249,-1.80698 -5.46249,-5.50403c0,-3.71782 2.99087,-5.5248 5.46249,-5.5248c1.43312,0 2.59624,0.47771 3.48934,1.41235c0.22847,0.22847 0.58156,0.49848 0.58156,0.99696c0,0.51925 -0.43617,0.85157 -0.89311,0.85157c-0.4154,0 -0.72695,-0.22847 -0.89311,-0.39463c-0.56079,-0.66464 -1.43312,-0.95542 -2.20161,-0.95542c-1.74467,0 -3.36473,1.24619 -3.36473,3.61396c0,2.347 1.62006,3.59319 3.36473,3.59319c0.76849,0 1.64082,-0.29079 2.20161,-0.95543c0.16616,-0.16616 0.4777,-0.39463 0.89311,-0.39463c0.45694,0 0.89311,0.33232 0.89311,0.85157z"/><path d="M273.77558,174.76243c0,0.85157 -0.9762,1.22542 -2.1393,1.22542c-1.24619,0 -2.47162,-0.43617 -2.47162,-2.82471v-6.31406h-0.78926c-0.54002,0 -0.89311,-0.35309 -0.89311,-0.89311c0,-0.51925 0.35309,-0.87234 0.89311,-0.87234h0.78926v-1.62005c0,-0.58156 0.49848,-1.08003 1.08003,-1.08003c0.60233,0 1.1008,0.49848 1.1008,1.08003v1.62005h1.5162c0.54002,0 0.91388,0.35309 0.91388,0.87234c0,0.54002 -0.37386,0.89311 -0.91388,0.89311h-1.5162v6.33483c0,0.6231 0.24924,0.91388 0.72695,0.91388c0.27001,0 0.58156,-0.08308 0.81003,-0.10385c0.51925,-0.08308 0.89311,0.24924 0.89311,0.76849z"/><path d="M291.90771,174.76243c0,0.85157 -0.9762,1.22542 -2.1393,1.22542c-1.24619,0 -2.47162,-0.43617 -2.47162,-2.82471v-6.31406h-0.78926c-0.54002,0 -0.89311,-0.35309 -0.89311,-0.89311c0,-0.51925 0.35309,-0.87234 0.89311,-0.87234h0.78926v-1.62005c0,-0.58156 0.49848,-1.08003 1.08003,-1.08003c0.60233,0 1.1008,0.49848 1.1008,1.08003v1.62005h1.5162c0.54002,0 0.91388,0.35309 0.91388,0.87234c0,0.54002 -0.37386,0.89311 -0.91388,0.89311h-1.5162v6.33483c0,0.6231 0.24924,0.91388 0.72695,0.91388c0.27001,0 0.58156,-0.08308 0.81003,-0.10385c0.51925,-0.08308 0.89311,0.24924 0.89311,0.76849z"/><path d="M303.68446,169.77764v5.10941c0,0.60233 -0.47771,1.1008 -1.08003,1.1008c-0.60233,0 -1.1008,-0.49848 -1.1008,-1.1008v-5.10941c0,-2.07699 -1.18388,-2.90779 -2.53393,-2.90779c-1.99391,0 -2.86625,1.78621 -2.99087,2.67932v5.33787c0,0.60233 -0.49848,1.1008 -1.1008,1.1008c-0.60233,0 -1.1008,-0.49848 -1.1008,-1.1008v-12.73196c0,-0.60233 0.49848,-1.1008 1.1008,-1.1008c0.60233,0 1.1008,0.49848 1.1008,1.1008v5.35864c0.10385,-0.72695 1.35004,-2.53393 3.71782,-2.53393c2.01468,0 3.98782,1.26696 3.98782,4.79785z"/><path d="M316.35411,170.13073c0,0.85157 -0.47771,1.18388 -1.37081,1.18388l-6.95793,-0.02077c0.22847,1.9316 1.74467,2.88702 3.40627,2.88702c0.85157,0 1.43312,-0.2077 2.07699,-0.60233c0.35309,-0.18693 0.58156,-0.33232 0.87234,-0.33232c0.47771,0 0.76849,0.33232 0.76849,0.78926c0,0.27001 -0.10385,0.56079 -0.56079,0.93465c-0.78926,0.64387 -1.93161,1.01773 -3.24011,1.01773c-2.70009,0 -5.5871,-1.7239 -5.5871,-5.48326c0,-3.73859 3.01164,-5.54556 5.3794,-5.54556c2.36777,0 5.21324,1.86929 5.21324,5.17171zM308.02537,169.71535h6.18943c-0.18693,-1.97314 -1.68236,-2.84548 -3.07395,-2.84548c-1.37081,0 -2.92857,0.87234 -3.11548,2.84548z"/><path d="M328.33835,169.77764v5.10941c0,0.60233 -0.47771,1.1008 -1.08003,1.1008c-0.60233,0 -1.1008,-0.49848 -1.1008,-1.1008v-5.10941c0,-2.07699 -1.18388,-2.90779 -2.53393,-2.90779c-1.99391,0 -2.86625,1.78621 -2.99087,2.67932v5.33787c0,0.60233 -0.49848,1.1008 -1.1008,1.1008c-0.60233,0 -1.1008,-0.49848 -1.1008,-1.1008v-8.74414c0,-0.6231 0.49848,-1.12157 1.1008,-1.12157c0.60233,0 1.1008,0.49848 1.1008,1.12157v1.37081c0.10385,-0.72695 1.35004,-2.53393 3.71782,-2.53393c2.01468,0 3.98782,1.26696 3.98782,4.79785z"/></g></g><g stroke-linecap="round"><path d="M185.82852,197.78908c0,0.85157 -0.9762,1.22542 -2.1393,1.22542c-1.24619,0 -2.47162,-0.43617 -2.47162,-2.82471v-6.31406h-0.78926c-0.54002,0 -0.89311,-0.35309 -0.89311,-0.89311c0,-0.51925 0.35309,-0.87234 0.89311,-0.87234h0.78926v-1.62005c0,-0.58156 0.49848,-1.08003 1.08003,-1.08003c0.60233,0 1.1008,0.49848 1.1008,1.08003v1.62005h1.5162c0.54002,0 0.91388,0.35309 0.91388,0.87234c0,0.54002 -0.37386,0.89311 -0.91388,0.89311h-1.5162v6.33483c0,0.6231 0.24924,0.91388 0.72695,0.91388c0.27001,0 0.58156,-0.08308 0.81003,-0.10385c0.51925,-0.08308 0.89311,0.24924 0.89311,0.76849z" fill="#000000" fill-rule="evenodd" stroke="none" stroke-width="1" stroke-linejoin="round"/><path d="M194.4688,189.02417c0,0.6231 -0.47771,1.03849 -1.41235,1.03849c-1.82775,0 -3.01164,1.41235 -3.15702,2.51316v5.33787c0,0.60233 -0.49848,1.1008 -1.1008,1.1008c-0.60233,0 -1.1008,-0.49848 -1.1008,-1.1008v-8.74414c0,-0.6231 0.49848,-1.12157 1.1008,-1.12157c0.60233,0 1.1008,0.49848 1.1008,1.12157v1.37081c0.10385,-0.72695 1.41235,-2.53393 3.4478,-2.53393c0.72695,0 1.12157,0.45694 1.12157,1.01773z" fill="#000000" fill-rule="evenodd" stroke="none" stroke-width="1" stroke-linejoin="round"/><path d="M206.0792,189.04494c0,0.2077 -0.06231,0.35309 -0.12462,0.49848l-5.54556,12.66966c-0.22847,0.51925 -0.6231,0.74772 -1.03849,0.74772c-0.58156,0 -0.97619,-0.45695 -0.97619,-0.99696c0,-0.2077 0.06231,-0.35309 0.12462,-0.49848l1.28773,-2.9701l-3.96705,-8.95184c-0.06231,-0.14539 -0.12462,-0.29078 -0.12462,-0.49848c0,-0.54002 0.43617,-0.99696 1.01773,-0.99696c0.4154,0 0.81004,0.22847 1.03849,0.74772l3.11548,7.24871l3.13625,-7.24871c0.22847,-0.51925 0.6231,-0.74772 1.03849,-0.74772c0.58156,0 1.01773,0.45694 1.01773,0.99696z" fill="#000000" fill-rule="evenodd" stroke="none" stroke-width="1" stroke-linejoin="round"/><path d="M220.78431,189.60572c0.12462,0.18693 0.29078,0.4154 0.29078,0.76849c0,0.51925 -0.39463,0.8308 -0.89311,0.8308c-0.33232,0 -0.64387,-0.14539 -0.95542,-0.56079c-0.4154,-0.51925 -0.99696,-0.87234 -1.84852,-0.87234c-1.03849,0 -1.66159,0.51925 -1.66159,1.26696c0,0.51925 0.29078,1.01773 1.39158,1.32927l1.28773,0.35309c1.76544,0.47771 3.09473,1.26697 3.09473,3.01165c0,2.18084 -2.05622,3.28164 -4.2163,3.28164c-1.80698,0 -3.07396,-0.78926 -3.61396,-1.64082c-0.10385,-0.14539 -0.43617,-0.56079 -0.43617,-1.05926c0,-0.43617 0.27001,-0.89311 0.85157,-0.89311c0.47771,0 0.72695,0.29078 0.93465,0.60233c0.51925,0.87234 1.37081,1.16311 2.26392,1.16311c1.20465,0 2.03545,-0.49849 2.03545,-1.32927c0,-0.6231 -0.43617,-1.08003 -1.47466,-1.37081l-1.39158,-0.37386c-2.01468,-0.56079 -2.88702,-1.64082 -2.88702,-3.05318c0,-1.95237 1.76544,-3.07396 3.78012,-3.07396c1.49543,0 2.78317,0.60233 3.4478,1.62005z" fill="#000000" fill-rule="evenodd" stroke="none" stroke-width="1" stroke-linejoin="round"/><path d="M233.43318,193.15738c0,0.85157 -0.47771,1.18388 -1.37081,1.18388l-6.95793,-0.02077c0.22847,1.9316 1.74467,2.88702 3.40627,2.88702c0.85157,0 1.43312,-0.2077 2.07699,-0.60233c0.35309,-0.18693 0.58156,-0.33232 0.87234,-0.33232c0.47771,0 0.76849,0.33232 0.76849,0.78926c0,0.27001 -0.10385,0.56079 -0.56079,0.93465c-0.78926,0.64387 -1.93161,1.01773 -3.24011,1.01773c-2.70009,0 -5.5871,-1.7239 -5.5871,-5.48326c0,-3.73859 3.01164,-5.54556 5.3794,-5.54556c2.36777,0 5.21324,1.86929 5.21324,5.17172zM225.10445,192.74198h6.18943c-0.18693,-1.97314 -1.68236,-2.84548 -3.07395,-2.84548c-1.37081,0 -2.92857,0.87234 -3.11548,2.84548z" fill="#000000" fill-rule="evenodd" stroke="none" stroke-width="1" stroke-linejoin="round"/><path d="M242.28117,189.02417c0,0.6231 -0.47771,1.03849 -1.41235,1.03849c-1.82775,0 -3.01164,1.41235 -3.15702,2.51316v5.33787c0,0.60233 -0.49848,1.1008 -1.1008,1.1008c-0.60233,0 -1.1008,-0.49848 -1.1008,-1.1008v-8.74414c0,-0.6231 0.49848,-1.12157 1.1008,-1.12157c0.60233,0 1.1008,0.49848 1.1008,1.12157v1.37081c0.10385,-0.72695 1.41235,-2.53393 3.4478,-2.53393c0.72695,0 1.12157,0.45694 1.12157,1.01773z" fill="#000000" fill-rule="evenodd" stroke="none" stroke-width="1" stroke-linejoin="round"/><path d="M253.62155,189.04494c0,0.2077 -0.06231,0.35309 -0.12462,0.49848l-3.82166,8.57798c-0.24924,0.51925 -0.5608,0.8308 -1.10082,0.8308c-0.54002,0 -0.85157,-0.31155 -1.1008,-0.8308l-3.82166,-8.57798c-0.06231,-0.14539 -0.12462,-0.29078 -0.12462,-0.49848c0,-0.54002 0.43617,-0.99696 1.01773,-0.99696c0.4154,0 0.81003,0.22847 1.03849,0.74772l2.99087,7.04101l2.99088,-7.04101c0.2077,-0.51925 0.6231,-0.74772 1.03849,-0.74772c0.58156,0 1.01773,0.45694 1.01773,0.99696z" fill="#000000" fill-rule="evenodd" stroke="none" stroke-width="1" stroke-linejoin="round"/><path d="M265.04499,193.15738c0,0.85157 -0.4777,1.18388 -1.37081,1.18388l-6.95793,-0.02077c0.22847,1.9316 1.74467,2.88702 3.40627,2.88702c0.85157,0 1.43312,-0.2077 2.07699,-0.60233c0.35309,-0.18693 0.58156,-0.33232 0.87234,-0.33232c0.47771,0 0.76849,0.33232 0.76849,0.78926c0,0.27001 -0.10385,0.56079 -0.56079,0.93465c-0.78926,0.64387 -1.93161,1.01773 -3.24011,1.01773c-2.70009,0 -5.5871,-1.7239 -5.5871,-5.48326c0,-3.73859 3.01164,-5.54556 5.3794,-5.54556c2.36777,0 5.21324,1.86929 5.21324,5.17172zM256.71626,192.74198h6.18944c-0.18693,-1.97314 -1.68236,-2.84548 -3.07396,-2.84548c-1.37081,0 -2.92857,0.87234 -3.11548,2.84548z" fill="#000000" fill-rule="evenodd" stroke="none" stroke-width="1" stroke-linejoin="round"/><path d="M273.89297,189.02417c0,0.6231 -0.47771,1.03849 -1.41235,1.03849c-1.82775,0 -3.01164,1.41235 -3.15702,2.51316v5.33787c0,0.60233 -0.49848,1.1008 -1.1008,1.1008c-0.60233,0 -1.1008,-0.49848 -1.1008,-1.1008v-8.74414c0,-0.6231 0.49848,-1.12157 1.1008,-1.12157c0.60233,0 1.1008,0.49848 1.1008,1.12157v1.37081c0.10385,-0.72695 1.41235,-2.53393 3.4478,-2.53393c0.72695,0 1.12157,0.45694 1.12157,1.01773z" fill="#000000" fill-rule="evenodd" stroke="none" stroke-width="1" stroke-linejoin="round"/><path d="M290.50892,188.48415c0,1.91083 -1.39158,3.09473 -3.92551,5.62865l-2.80394,2.84548h5.85711c0.51925,0 0.97619,0.4154 0.97619,0.9762c0,0.56079 -0.45694,0.97619 -0.97619,0.97619h-6.68792c-1.53697,0 -2.32623,-1.59929 -1.20465,-2.72087l2.70009,-2.7624c2.61701,-2.63778 3.8632,-3.59319 3.8632,-5.02633c0,-1.53697 -1.3085,-2.24315 -2.43008,-2.24315c-1.03849,0 -2.18084,0.58156 -2.49239,2.05622c-0.12462,0.45694 -0.56079,0.89311 -1.14234,0.89311c-0.76849,0 -1.16311,-0.72695 -0.93465,-1.53697c0.45694,-1.86929 2.07699,-3.34396 4.46553,-3.34396c2.78317,0 4.73554,1.99391 4.73554,4.25783z" fill="#000000" fill-rule="evenodd" stroke="none" stroke-width="1" stroke-linejoin="round"/><path d="M293.07049,197.66446c0,-0.70618 0.58156,-1.28773 1.30851,-1.28773c0.68541,0 1.26696,0.58156 1.26696,1.28773c0,0.72695 -0.58156,1.3085 -1.26696,1.3085c-0.72695,0 -1.30851,-0.58156 -1.30851,-1.3085z" fill="#000000" fill-rule="evenodd" stroke="none" stroke-width="1" stroke-linejoin="round"/><path d="M294.24839,193.9553v-8.3233" fill="none" fill-rule="nonzero" stroke="#000000" stroke-width="2" stroke-linejoin="miter"/></g></g><path d="M157.18478,129.05685h167.00526" fill="none" fill-rule="nonzero" stroke="#000000" stroke-width="2.5" stroke-linecap="round" stroke-linejoin="miter"/><path d="M320.9554,212.98092l-6.3869,3.03503c-0.5604,0.26816 -1.18442,-0.22427 -1.05505,-0.83238l1.47472,-6.91681c0.05218,-0.24084 -0.01868,-0.49194 -0.18802,-0.67134l-4.86168,-5.13559c-0.42655,-0.45128 -0.15097,-1.19555 0.46631,-1.26096l7.03363,-0.73358c0.24531,-0.02596 0.46219,-0.16989 0.57979,-0.38685l3.38315,-6.21068c0.29678,-0.54561 1.09069,-0.51363 1.34394,0.05413l2.87134,6.46261c0.09976,0.22572 0.30436,0.38663 0.54679,0.43223l6.95184,1.29691c0.61002,0.11485 0.82617,0.87892 0.36338,1.29438l-5.25765,4.72799c-0.18454,0.16515 -0.27405,0.40979 -0.24273,0.65399l0.91363,7.01301c0.08137,0.6166 -0.58024,1.05724 -1.11726,0.74488l-6.1221,-3.53889c-0.21405,-0.12412 -0.47382,-0.13458 -0.69715,-0.02808z" fill="#ffbf00" fill-rule="evenodd" stroke="#ffbf00" stroke-width="2.5" stroke-linecap="butt" stroke-linejoin="miter"/><path d="M169.3472,203.34609c0.02885,0.25854 0.03781,0.51931 0.04678,0.78006c0.1872,7.99305 -10.31503,15.46742 -10.31503,15.46742c0,0 -11.89151,-4.97544 -13.47087,-12.81315c-0.04873,-0.25632 -0.09748,-0.51265 -0.12633,-0.77119c-0.42832,-3.83836 2.34565,-7.30919 6.18401,-7.73751c1.94902,-0.21749 3.8078,0.38051 5.20721,1.55329c1.10646,-1.45241 2.7877,-2.44544 4.73672,-2.66293c3.83836,-0.42832 7.30919,2.34565 7.73751,6.18401" fill="#ff6680" fill-rule="evenodd" stroke="#ff6680" stroke-width="2.5" stroke-linecap="round" stroke-linejoin="round"/><path d="M76.56159,279.0471v-182h353v182z" fill="none" fill-rule="nonzero" stroke="none" stroke-width="0" stroke-linecap="butt" stroke-linejoin="miter"/><g fill="#000000" fill-rule="evenodd" stroke="none" stroke-width="1" stroke-linecap="round" stroke-linejoin="round"><path d="M164.94674,105.7432c0,0.56849 -0.46321,1.01064 -1.01064,1.01064h-3.32669v11.64341c0,0.6527 -0.52637,1.20014 -1.11591,1.20014c-0.63165,0 -1.15803,-0.54743 -1.15803,-1.20014v-11.64341h-3.32669c-0.54743,0 -1.01064,-0.44216 -1.01064,-1.01064c0,-0.56849 0.46321,-1.01064 1.01064,-1.01064h8.92731c0.54743,0 1.01064,0.44216 1.01064,1.01064z"/><path d="M172.23178,109.44888c0,0.63165 -0.48426,1.05275 -1.43174,1.05275c-1.85284,0 -3.05297,1.43174 -3.20036,2.54766v5.41113c0,0.61059 -0.50532,1.11591 -1.11591,1.11591c-0.61059,0 -1.11591,-0.50532 -1.11591,-1.11591v-8.86415c0,-0.63165 0.50532,-1.13696 1.11591,-1.13696c0.61059,0 1.11591,0.50532 1.11591,1.13696v1.38963c0.10528,-0.73693 1.43174,-2.56871 3.49513,-2.56871c0.73693,0 1.13696,0.46321 1.13696,1.0317z"/><path d="M181.66439,110.41741v-0.84219c0,-0.61059 0.50532,-1.11591 1.11591,-1.11591c0.61059,0 1.13696,0.50532 1.13696,1.11591v8.90626c0,0.61059 -0.52637,1.11591 -1.13696,1.11591c-0.61059,0 -1.11591,-0.50532 -1.11591,-1.11591v-1.13696c-0.14739,0.94747 -1.45279,2.27394 -3.45301,2.27394c-2.3371,0 -5.13741,-1.81073 -5.13741,-5.62169c0,-3.74778 2.82136,-5.60062 5.13741,-5.60062c1.55807,0 2.90559,0.80009 3.45301,2.02128zM181.76967,113.99675c0,-2.63187 -1.76862,-3.68462 -3.20036,-3.68462c-1.53701,0 -3.26352,1.20014 -3.26352,3.68462c0,2.50554 1.72651,3.70568 3.26352,3.70568c1.43174,0 3.20036,-1.09486 3.20036,-3.70568z"/><path d="M193.58153,105.70109c0,0.48426 -0.35793,0.82114 -0.82114,0.82114c-0.18949,0 -0.46321,-0.08422 -0.80009,-0.21055c-0.29477,-0.12633 -0.56849,-0.25266 -0.98958,-0.25266c-1.17908,0 -1.55807,0.88431 -1.55807,1.74756v0.71587h2.1055c0.54743,0 0.92642,0.35793 0.92642,0.88431c0,0.54743 -0.37898,0.90537 -0.92642,0.90537h-2.1055v8.16933c0,0.61059 -0.50532,1.11591 -1.09486,1.11591c-0.61059,0 -1.11591,-0.50532 -1.11591,-1.11591v-8.16933h-0.69482c-0.54743,0 -0.90537,-0.35793 -0.90537,-0.90537c0,-0.52637 0.35793,-0.88431 0.90537,-0.88431h0.69482v-0.80009c0,-2.88454 2.12656,-3.55829 3.49513,-3.55829c0.94747,0 1.74756,0.25266 2.31605,0.6527c0.35793,0.23161 0.56849,0.50532 0.56849,0.88431z"/><path d="M201.77192,105.70109c0,0.48426 -0.35793,0.82114 -0.82114,0.82114c-0.18949,0 -0.46321,-0.08422 -0.80009,-0.21055c-0.29477,-0.12633 -0.56849,-0.25266 -0.98958,-0.25266c-1.17908,0 -1.55807,0.88431 -1.55807,1.74756v0.71587h2.1055c0.54743,0 0.92642,0.35793 0.92642,0.88431c0,0.54743 -0.37898,0.90537 -0.92642,0.90537h-2.1055v8.16933c0,0.61059 -0.50532,1.11591 -1.09486,1.11591c-0.61059,0 -1.11591,-0.50532 -1.11591,-1.11591v-8.16933h-0.69482c-0.54743,0 -0.90537,-0.35793 -0.90537,-0.90537c0,-0.52637 0.35793,-0.88431 0.90537,-0.88431h0.69482v-0.80009c0,-2.88454 2.12656,-3.55829 3.49513,-3.55829c0.94747,0 1.74756,0.25266 2.31605,0.6527c0.35793,0.23161 0.56849,0.50532 0.56849,0.88431z"/><path d="M203.0352,105.34316c0,-0.61059 0.52637,-1.11591 1.13696,-1.11591c0.61059,0 1.13696,0.50532 1.13696,1.11591c0,0.61059 -0.52637,1.11591 -1.13696,1.11591c-0.61059,0 -1.13696,-0.50532 -1.13696,-1.11591zM205.28809,109.59627v8.86415c0,0.63165 -0.50532,1.13696 -1.11591,1.13696c-0.61059,0 -1.11591,-0.50532 -1.11591,-1.13696v-8.86415c0,-0.63165 0.50532,-1.13696 1.11591,-1.13696c0.61059,0 1.11591,0.50532 1.11591,1.13696z"/><path d="M217.07887,117.13395c0,0.50532 -0.35793,0.77903 -0.58954,1.01064c-0.90537,0.94747 -2.08445,1.43174 -3.53724,1.43174c-2.50554,0 -5.53746,-1.83178 -5.53746,-5.57957c0,-3.76885 3.03192,-5.60062 5.53746,-5.60062c1.45279,0 2.63187,0.48426 3.53724,1.43174c0.23161,0.23161 0.58954,0.50532 0.58954,1.01064c0,0.52637 -0.44216,0.86326 -0.90537,0.86326c-0.4211,0 -0.73693,-0.23161 -0.90537,-0.40005c-0.56849,-0.67376 -1.45279,-0.96853 -2.23183,-0.96853c-1.76862,0 -3.41091,1.2633 -3.41091,3.66357c0,2.37921 1.64229,3.64252 3.41091,3.64252c0.77903,0 1.66335,-0.29477 2.23183,-0.96853c0.16844,-0.16844 0.48426,-0.40005 0.90537,-0.40005c0.46321,0 0.90537,0.33688 0.90537,0.86326z"/><path d="M225.05871,105.34316c0,-0.61059 0.52637,-1.11591 1.13696,-1.11591c0.61059,0 1.13696,0.50532 1.13696,1.11591c0,0.61059 -0.52637,1.11591 -1.13696,1.11591c-0.61059,0 -1.13696,-0.50532 -1.13696,-1.11591zM227.31159,109.59627v8.86415c0,0.63165 -0.50532,1.13696 -1.11591,1.13696c-0.61059,0 -1.11591,-0.50532 -1.11591,-1.13696v-8.86415c0,-0.63165 0.50532,-1.13696 1.11591,-1.13696c0.61059,0 1.11591,0.50532 1.11591,1.13696z"/><path d="M236.99689,110.03841c0.12633,0.18949 0.29477,0.4211 0.29477,0.77903c0,0.52637 -0.40005,0.84219 -0.90537,0.84219c-0.33688,0 -0.6527,-0.14739 -0.96853,-0.56849c-0.4211,-0.52637 -1.01064,-0.88431 -1.87389,-0.88431c-1.05275,0 -1.6844,0.52637 -1.6844,1.28435c0,0.52637 0.29477,1.0317 1.41068,1.34752l1.3054,0.35793c1.78968,0.48426 3.13719,1.28435 3.13719,3.05297c0,2.21077 -2.08445,3.32669 -4.27416,3.32669c-1.83178,0 -3.11613,-0.80009 -3.66357,-1.66335c-0.10528,-0.14739 -0.44216,-0.56849 -0.44216,-1.0738c0,-0.44216 0.27372,-0.90537 0.86326,-0.90537c0.48426,0 0.73693,0.29477 0.94747,0.61059c0.52637,0.88431 1.38963,1.17908 2.29499,1.17908c1.22119,0 2.06338,-0.50532 2.06338,-1.34752c0,-0.63165 -0.44216,-1.09486 -1.49491,-1.38963l-1.41068,-0.37898c-2.04233,-0.56849 -2.92664,-1.66335 -2.92664,-3.09508c0,-1.97917 1.78968,-3.11613 3.83201,-3.11613c1.51596,0 2.82136,0.61059 3.49513,1.64229z"/><path d="M251.1248,118.33408c0,0.86326 -0.98958,1.24224 -2.16866,1.24224c-1.2633,0 -2.50554,-0.44216 -2.50554,-2.86348v-6.40072h-0.80009c-0.54743,0 -0.90537,-0.35793 -0.90537,-0.90537c0,-0.52637 0.35793,-0.88431 0.90537,-0.88431h0.80009v-1.64229c0,-0.58954 0.50532,-1.09486 1.09486,-1.09486c0.61059,0 1.11591,0.50532 1.11591,1.09486v1.64229h1.53701c0.54743,0 0.92642,0.35793 0.92642,0.88431c0,0.54743 -0.37898,0.90537 -0.92642,0.90537h-1.53701v6.42177c0,0.63165 0.25266,0.92642 0.73693,0.92642c0.27372,0 0.58954,-0.08422 0.82114,-0.10528c0.52637,-0.08422 0.90537,0.25266 0.90537,0.77903z"/><path d="M263.48407,114.01781c0,3.76885 -3.13719,5.60062 -5.55851,5.60062c-2.42133,0 -5.53746,-1.83178 -5.53746,-5.60062c0,-3.74778 3.11613,-5.62169 5.53746,-5.62169c2.42133,0 5.55851,1.87389 5.55851,5.62169zM254.59886,114.01781c0,2.37921 1.70545,3.66357 3.32669,3.66357c1.64229,0 3.34774,-1.28435 3.34774,-3.66357c0,-2.40027 -1.70545,-3.68462 -3.34774,-3.68462c-1.62124,0 -3.32669,1.28435 -3.32669,3.68462z"/><path d="M276.05388,114.01781c0,3.76885 -3.13719,5.60062 -5.55851,5.60062c-2.42133,0 -5.53746,-1.83178 -5.53746,-5.60062c0,-3.74778 3.11613,-5.62169 5.53746,-5.62169c2.42133,0 5.55851,1.87389 5.55851,5.62169zM267.1687,114.01781c0,2.37921 1.70545,3.66357 3.32669,3.66357c1.64229,0 3.34774,-1.28435 3.34774,-3.66357c0,-2.40027 -1.70545,-3.68462 -3.34774,-3.68462c-1.62124,0 -3.32669,1.28435 -3.32669,3.68462z"/><path d="M294.07694,113.28089v5.17953c0,0.61059 -0.48426,1.11591 -1.09486,1.11591c-0.61059,0 -1.11591,-0.50532 -1.11591,-1.11591v-5.17953c0,-2.1055 -1.20014,-2.9477 -2.56871,-2.9477c-2.02128,0 -2.90559,1.81073 -3.03192,2.7161v5.41113c0,0.61059 -0.50532,1.11591 -1.11591,1.11591c-0.61059,0 -1.11591,-0.50532 -1.11591,-1.11591v-12.90671c0,-0.61059 0.50532,-1.11591 1.11591,-1.11591c0.61059,0 1.11591,0.50532 1.11591,1.11591v5.43218c0.10528,-0.73693 1.36858,-2.56871 3.76885,-2.56871c2.04233,0 4.04255,1.28435 4.04255,4.86371z"/><path d="M296.60357,105.34316c0,-0.61059 0.52637,-1.11591 1.13696,-1.11591c0.61059,0 1.13696,0.50532 1.13696,1.11591c0,0.61059 -0.52637,1.11591 -1.13696,1.11591c-0.61059,0 -1.13696,-0.50532 -1.13696,-1.11591zM298.85645,109.59627v8.86415c0,0.63165 -0.50532,1.13696 -1.11591,1.13696c-0.61059,0 -1.11591,-0.50532 -1.11591,-1.13696v-8.86415c0,-0.63165 0.50532,-1.13696 1.11591,-1.13696c0.61059,0 1.11591,0.50532 1.11591,1.13696z"/><path d="M311.8263,118.48146c0,0.06316 0,0.14739 -0.02105,0.21055v0.56849c0,3.45301 -3.11613,4.52682 -5.34797,4.52682c-1.34752,0 -2.40027,-0.37898 -2.88454,-0.63165c-0.44216,-0.18949 -0.69482,-0.52637 -0.69482,-0.94747c0,-0.50532 0.40005,-0.88431 0.88431,-0.88431c0.12633,0 0.29477,0.02105 0.52637,0.10528c0.46321,0.18949 1.24224,0.44216 2.21077,0.44216c1.83178,0 3.07403,-0.94747 3.07403,-2.61082v-1.916c-0.14739,0.94747 -1.45279,2.27394 -3.45301,2.27394c-2.3371,0 -5.13741,-1.81073 -5.13741,-5.62169c0,-3.74778 2.82136,-5.60062 5.13741,-5.60062c1.55807,0 2.90559,0.80009 3.45301,2.02128v-0.84219c0,-0.61059 0.50532,-1.11591 1.11591,-1.11591c0.61059,0 1.13696,0.50532 1.13696,1.11591zM309.6787,113.99675c0,-2.63187 -1.76862,-3.68462 -3.20036,-3.68462c-1.53701,0 -3.26352,1.20014 -3.26352,3.68462c0,2.50554 1.72651,3.70568 3.26352,3.70568c1.43174,0 3.20036,-1.09486 3.20036,-3.70568z"/><path d="M324.39616,113.28089v5.17953c0,0.61059 -0.48426,1.11591 -1.09486,1.11591c-0.61059,0 -1.11591,-0.50532 -1.11591,-1.11591v-5.17953c0,-2.1055 -1.20014,-2.9477 -2.56871,-2.9477c-2.02128,0 -2.90559,1.81073 -3.03192,2.7161v5.41113c0,0.61059 -0.50532,1.11591 -1.11591,1.11591c-0.61059,0 -1.11591,-0.50532 -1.11591,-1.11591v-12.90671c0,-0.61059 0.50532,-1.11591 1.11591,-1.11591c0.61059,0 1.11591,0.50532 1.11591,1.11591v5.43218c0.10528,-0.73693 1.36858,-2.56871 3.76885,-2.56871c2.04233,0 4.04255,1.28435 4.04255,4.86371z"/><path d="M329.4704,105.91165v8.06405c0,0.67376 -0.56849,1.24224 -1.22119,1.24224c-0.69482,0 -1.2633,-0.56849 -1.2633,-1.24224v-8.06405c0,-0.67376 0.56849,-1.24224 1.2633,-1.24224c0.6527,0 1.22119,0.56849 1.22119,1.24224zM326.92274,118.20776c0,-0.71587 0.58954,-1.3054 1.32647,-1.3054c0.69482,0 1.28435,0.58954 1.28435,1.3054c0,0.73693 -0.58954,1.32647 -1.28435,1.32647c-0.73693,0 -1.32647,-0.58954 -1.32647,-1.32647z"/></g></g></g></svg>