<svg width="480px" height="360px" xmlns="http://www.w3.org/2000/svg"><path fill="#F00" d="M245.976 180L240.854 180L244.049 164L248.317 164Q250.634 164 251.951 164.890Q253.268 165.780 253.268 167.537L253.268 167.537Q253.268 168.341 252.963 169.012Q252.659 169.683 252.146 170.195Q251.634 170.707 251 171.049Q250.366 171.390 249.707 171.537L249.707 171.537L249.683 171.634Q250.927 171.927 251.780 172.720Q252.634 173.512 252.634 174.878L252.634 174.878Q252.634 176.220 252.134 177.183Q251.634 178.146 250.732 178.768Q249.829 179.390 248.610 179.695Q247.390 180 245.976 180L245.976 180ZM245.634 165.488L244.561 170.878L246.854 170.878Q249.146 170.878 250.244 170.024Q251.341 169.171 251.341 167.805L251.341 167.805Q251.341 166.707 250.512 166.098Q249.683 165.488 247.854 165.488L247.854 165.488L245.634 165.488ZM244.293 172.268L243.024 178.512L245.805 178.512Q248.098 178.512 249.439 177.683Q250.780 176.854 250.780 174.976L250.780 174.976Q250.780 173.756 249.841 173.012Q248.902 172.268 247.122 172.268L247.122 172.268L244.293 172.268Z"/></svg>