<svg width="480px" height="360px" xmlns="http://www.w3.org/2000/svg"><path fill="#F00" d="M241.829 183.707L240.756 183.707L240.756 182.561L241.390 182.561Q242.390 182.561 242.720 182.049Q243.049 181.537 243.049 180.341L243.049 180.341Q243.049 179.220 242.988 178.195Q242.927 177.171 242.927 175.927L242.927 175.927Q242.927 174.756 243.256 174.122Q243.585 173.488 244.366 173.268L244.366 173.268L244.366 173.171Q243.585 172.951 243.256 172.329Q242.927 171.707 242.927 170.512L242.927 170.512Q242.927 169.268 242.988 168.244Q243.049 167.220 243.049 166.098L243.049 166.098Q243.049 164.902 242.720 164.390Q242.390 163.878 241.390 163.878L241.390 163.878L240.756 163.878L240.756 162.732L241.829 162.732Q242.561 162.732 243.098 162.890Q243.634 163.049 243.988 163.415Q244.341 163.780 244.512 164.402Q244.683 165.024 244.683 165.976L244.683 165.976Q244.683 167.317 244.573 168.390Q244.463 169.463 244.463 170.707L244.463 170.707Q244.463 171.415 244.902 171.988Q245.341 172.561 246.561 172.585L246.561 172.585L246.561 173.854Q245.951 173.854 245.549 174.024Q245.146 174.195 244.902 174.463Q244.659 174.732 244.561 175.061Q244.463 175.390 244.463 175.756L244.463 175.756Q244.463 176.366 244.500 176.927Q244.537 177.488 244.573 178.049Q244.610 178.610 244.646 179.207Q244.683 179.805 244.683 180.463L244.683 180.463Q244.683 181.415 244.512 182.037Q244.341 182.659 243.988 183.024Q243.634 183.390 243.098 183.549Q242.561 183.707 241.829 183.707L241.829 183.707Z"/></svg>