<svg width="480px" height="360px" xmlns="http://www.w3.org/2000/svg"><path fill="#F00" d="M249.051 165.434L249.051 165.434Q246.413 165.434 244.886 167.190Q243.360 168.947 243.360 172L243.360 172Q243.360 175.141 244.832 176.854Q246.304 178.566 249.029 178.566L249.029 178.566Q250.703 178.566 252.848 177.964L252.848 177.964L252.848 179.595Q251.185 180.219 248.744 180.219L248.744 180.219Q245.209 180.219 243.289 178.074Q241.368 175.929 241.368 171.978L241.368 171.978Q241.368 169.505 242.293 167.644Q243.218 165.784 244.963 164.777Q246.709 163.770 249.073 163.770L249.073 163.770Q251.590 163.770 253.472 164.689L253.472 164.689L252.684 166.287Q250.867 165.434 249.051 165.434Z"/></svg>