<svg width="480px" height="360px" xmlns="http://www.w3.org/2000/svg"><path fill="#F00" d="M242.756 180L240.854 180L244.049 164L248.561 164Q249.683 164 250.610 164.220Q251.537 164.439 252.195 164.915Q252.854 165.390 253.220 166.122Q253.585 166.854 253.585 167.902L253.585 167.902Q253.585 169.366 253.061 170.439Q252.537 171.512 251.610 172.207Q250.683 172.902 249.402 173.232Q248.122 173.561 246.585 173.561L246.585 173.561L244.024 173.561L242.756 180ZM245.634 165.512L244.341 172.024L246.659 172.024Q249.146 172.024 250.427 171.049Q251.707 170.073 251.707 168.146L251.707 168.146Q251.707 166.756 250.780 166.134Q249.854 165.512 248.098 165.512L248.098 165.512L245.634 165.512Z"/></svg>