<svg width="480px" height="360px" xmlns="http://www.w3.org/2000/svg"><path fill="#F00" d="M245.939 185.178L245.939 185.178Q244.859 185.178 243.939 184.994Q243.018 184.810 242.319 184.442Q241.620 184.074 241.227 183.485Q240.834 182.896 240.834 182.086L240.834 182.086Q240.834 180.613 242.577 179.632L242.577 179.632L242.577 179.534Q242.086 179.215 241.767 178.724Q241.448 178.233 241.448 177.472L241.448 177.472Q241.448 176.810 241.840 176.209Q242.233 175.607 242.822 175.190L242.822 175.190L242.822 175.092Q242.184 174.650 241.681 173.828Q241.178 173.006 241.178 171.926L241.178 171.926Q241.178 170.822 241.595 170Q242.012 169.178 242.712 168.626Q243.411 168.074 244.319 167.804Q245.227 167.534 246.209 167.534L246.209 167.534Q247.288 167.534 248.098 167.828L248.098 167.828L252.540 167.828L252.540 170.454L250.601 170.454Q250.773 170.724 250.883 171.141Q250.994 171.558 250.994 172.049L250.994 172.049Q250.994 173.104 250.626 173.877Q250.258 174.650 249.607 175.153Q248.957 175.656 248.086 175.902Q247.215 176.147 246.209 176.147L246.209 176.147Q245.497 176.147 244.736 175.902L244.736 175.902Q244.491 176.098 244.393 176.294Q244.294 176.491 244.294 176.810L244.294 176.810Q244.294 177.276 244.699 177.497Q245.104 177.718 246.135 177.718L246.135 177.718L248.098 177.718Q250.356 177.718 251.546 178.442Q252.736 179.166 252.736 180.810L252.736 180.810Q252.736 181.767 252.258 182.564Q251.779 183.362 250.896 183.939Q250.012 184.515 248.761 184.847Q247.509 185.178 245.939 185.178ZM246.209 173.963L246.209 173.963Q246.920 173.963 247.399 173.460Q247.877 172.957 247.877 171.926L247.877 171.926Q247.877 170.969 247.399 170.466Q246.920 169.963 246.209 169.963L246.209 169.963Q245.497 169.963 245.018 170.454Q244.540 170.945 244.540 171.926L244.540 171.926Q244.540 172.957 245.018 173.460Q245.497 173.963 246.209 173.963ZM246.503 182.920L246.503 182.920Q247.730 182.920 248.515 182.491Q249.301 182.061 249.301 181.423L249.301 181.423Q249.301 180.859 248.822 180.663Q248.344 180.466 247.436 180.466L247.436 180.466L246.184 180.466Q245.546 180.466 245.153 180.429Q244.761 180.393 244.466 180.319L244.466 180.319Q243.804 180.908 243.804 181.521L243.804 181.521Q243.804 182.209 244.540 182.564Q245.276 182.920 246.503 182.920Z"/></svg>