<svg width="480px" height="360px" xmlns="http://www.w3.org/2000/svg"><path fill="#F00" d="M248.564 171.264L248.564 171.264Q247.804 171.264 247.239 170.969Q246.675 170.675 246.196 170.331Q245.718 169.988 245.288 169.693Q244.859 169.399 244.344 169.399L244.344 169.399Q243.853 169.399 243.411 169.767Q242.969 170.135 242.577 170.822L242.577 170.822L240.712 169.374Q241.620 167.975 242.540 167.411Q243.460 166.847 244.393 166.847L244.393 166.847Q245.153 166.847 245.718 167.141Q246.282 167.436 246.761 167.779Q247.239 168.123 247.669 168.417Q248.098 168.712 248.613 168.712L248.613 168.712Q249.129 168.712 249.558 168.344Q249.988 167.975 250.380 167.288L250.380 167.288L252.245 168.736Q251.337 170.135 250.417 170.699Q249.497 171.264 248.564 171.264ZM248.564 176.933L248.564 176.933Q247.804 176.933 247.239 176.638Q246.675 176.344 246.196 176Q245.718 175.656 245.288 175.362Q244.859 175.067 244.344 175.067L244.344 175.067Q243.853 175.067 243.411 175.436Q242.969 175.804 242.577 176.491L242.577 176.491L240.712 175.043Q241.620 173.644 242.540 173.080Q243.460 172.515 244.393 172.515L244.393 172.515Q245.153 172.515 245.718 172.810Q246.282 173.104 246.761 173.448Q247.239 173.791 247.669 174.086Q248.098 174.380 248.613 174.380L248.613 174.380Q249.129 174.380 249.558 174.012Q249.988 173.644 250.380 172.957L250.380 172.957L252.245 174.405Q251.337 175.804 250.417 176.368Q249.497 176.933 248.564 176.933Z"/></svg>