<svg width="480px" height="360px" xmlns="http://www.w3.org/2000/svg"><path fill="#F00" d="M245.546 180.294L245.546 180.294Q243.706 180.294 242.466 179.583Q241.227 178.871 240.393 177.399L240.393 177.399L242.847 175.583Q243.288 176.393 243.877 176.785Q244.466 177.178 245.080 177.178L245.080 177.178Q246.061 177.178 246.564 176.577Q247.067 175.975 247.067 174.380L247.067 174.380L247.067 164L250.675 164L250.675 174.675Q250.675 175.828 250.368 176.859Q250.061 177.890 249.436 178.650Q248.810 179.411 247.840 179.853Q246.871 180.294 245.546 180.294Z"/></svg>