<svg width="480px" height="360px" xmlns="http://www.w3.org/2000/svg"><path fill="#F00" d="M246 185.463L246 185.463Q244.902 185.463 244 185.256Q243.098 185.049 242.451 184.634Q241.805 184.220 241.451 183.634Q241.098 183.049 241.098 182.268L241.098 182.268Q241.098 181.512 241.561 180.829Q242.024 180.146 242.829 179.585L242.829 179.585L242.829 179.488Q242.390 179.220 242.085 178.744Q241.780 178.268 241.780 177.561L241.780 177.561Q241.780 176.805 242.195 176.244Q242.610 175.683 243.073 175.366L243.073 175.366L243.073 175.268Q242.488 174.780 242.012 173.963Q241.537 173.146 241.537 172.073L241.537 172.073Q241.537 171.098 241.890 170.317Q242.244 169.537 242.854 168.988Q243.463 168.439 244.280 168.146Q245.098 167.854 246 167.854L246 167.854Q246.488 167.854 246.915 167.939Q247.341 168.024 247.683 168.146L247.683 168.146L251.805 168.146L251.805 169.683L249.366 169.683Q249.780 170.098 250.061 170.732Q250.341 171.366 250.341 172.122L250.341 172.122Q250.341 173.073 250 173.841Q249.659 174.610 249.073 175.134Q248.488 175.659 247.695 175.951Q246.902 176.244 246 176.244L246 176.244Q245.561 176.244 245.098 176.134Q244.634 176.024 244.220 175.829L244.220 175.829Q243.902 176.098 243.683 176.427Q243.463 176.756 243.463 177.244L243.463 177.244Q243.463 177.805 243.902 178.171Q244.341 178.537 245.561 178.537L245.561 178.537L247.854 178.537Q249.927 178.537 250.963 179.207Q252 179.878 252 181.366L252 181.366Q252 182.195 251.585 182.939Q251.171 183.683 250.390 184.244Q249.610 184.805 248.500 185.134Q247.390 185.463 246 185.463ZM246 174.902L246 174.902Q246.512 174.902 246.963 174.707Q247.415 174.512 247.768 174.146Q248.122 173.780 248.317 173.256Q248.512 172.732 248.512 172.073L248.512 172.073Q248.512 170.756 247.780 170.037Q247.049 169.317 246 169.317L246 169.317Q244.951 169.317 244.220 170.037Q243.488 170.756 243.488 172.073L243.488 172.073Q243.488 172.732 243.683 173.256Q243.878 173.780 244.232 174.146Q244.585 174.512 245.037 174.707Q245.488 174.902 246 174.902ZM246.293 184.073L246.293 184.073Q247.146 184.073 247.841 183.866Q248.537 183.659 249.024 183.329Q249.512 183 249.780 182.561Q250.049 182.122 250.049 181.659L250.049 181.659Q250.049 180.829 249.439 180.512Q248.829 180.195 247.659 180.195L247.659 180.195L245.610 180.195Q245.268 180.195 244.866 180.159Q244.463 180.122 244.073 180L244.073 180Q243.439 180.463 243.146 180.976Q242.854 181.488 242.854 182L242.854 182Q242.854 182.951 243.768 183.512Q244.683 184.073 246.293 184.073Z"/></svg>