<svg width="480px" height="360px" xmlns="http://www.w3.org/2000/svg"><path fill="#F00" d="M248.270 180.294L248.270 180.294Q245.963 180.294 244.282 178.883Q242.601 177.472 242.037 174.724L242.037 174.724L240.515 174.724L240.515 173.031L241.840 172.933Q241.816 172.761 241.816 172.613Q241.816 172.466 241.816 172.294L241.816 172.294Q241.816 172.123 241.816 171.963Q241.816 171.804 241.840 171.656L241.840 171.656L240.515 171.656L240.515 169.988L242.037 169.865Q242.331 168.491 242.920 167.423Q243.509 166.356 244.356 165.620Q245.202 164.883 246.258 164.503Q247.313 164.123 248.540 164.123L248.540 164.123Q249.644 164.123 250.699 164.613Q251.755 165.104 252.540 166.037L252.540 166.037L250.528 167.975Q250.061 167.509 249.558 167.215Q249.055 166.920 248.417 166.920L248.417 166.920Q247.362 166.920 246.663 167.681Q245.963 168.442 245.669 169.840L245.669 169.840L250.920 169.840L250.920 171.656L245.448 171.656L245.448 172.172Q245.448 172.368 245.448 172.540Q245.448 172.712 245.472 172.883L245.472 172.883L249.939 172.883L249.939 174.724L245.718 174.724Q246.061 176.074 246.761 176.785Q247.460 177.497 248.491 177.497L248.491 177.497Q249.202 177.497 249.730 177.153Q250.258 176.810 250.748 176.172L250.748 176.172L252.736 178.037Q251.853 179.141 250.724 179.718Q249.595 180.294 248.270 180.294Z"/></svg>