<svg width="480px" height="360px" xmlns="http://www.w3.org/2000/svg"><path fill="#F00" d="M246.822 180.294L246.822 180.294Q245.669 180.294 244.589 179.865Q243.509 179.436 242.687 178.626Q241.865 177.816 241.374 176.626Q240.883 175.436 240.883 173.914L240.883 173.914Q240.883 172.393 241.374 171.202Q241.865 170.012 242.687 169.202Q243.509 168.393 244.589 167.963Q245.669 167.534 246.822 167.534L246.822 167.534Q247.975 167.534 249.043 167.963Q250.110 168.393 250.933 169.202Q251.755 170.012 252.245 171.202Q252.736 172.393 252.736 173.914L252.736 173.914Q252.736 175.436 252.245 176.626Q251.755 177.816 250.933 178.626Q250.110 179.436 249.043 179.865Q247.975 180.294 246.822 180.294ZM246.822 177.374L246.822 177.374Q247.926 177.374 248.491 176.442Q249.055 175.509 249.055 173.914L249.055 173.914Q249.055 172.319 248.491 171.387Q247.926 170.454 246.822 170.454L246.822 170.454Q245.693 170.454 245.141 171.387Q244.589 172.319 244.589 173.914L244.589 173.914Q244.589 175.509 245.141 176.442Q245.693 177.374 246.822 177.374Z"/></svg>