<svg version="1.1" xmlns="http://www.w3.org/2000/svg" xmlns:xlink="http://www.w3.org/1999/xlink" width="278.33483" height="207.13243" viewBox="0,0,278.33483,207.13243"><g transform="translate(-18.44913,-62.66094)"><g data-paper-data="{&quot;isPaintingLayer&quot;:true}" fill-rule="nonzero" stroke="none" stroke-width="0" stroke-linecap="butt" stroke-linejoin="miter" stroke-miterlimit="10" stroke-dasharray="" stroke-dashoffset="0" style="mix-blend-mode: normal"><path d="M207.68762,211.53282v-5.5h67.22245v5.5z" data-paper-data="{&quot;index&quot;:null}" fill="#ffffff"/><path d="M229.59408,77.66121l3.91626,-4.01611l42.86036,43.06593l-3.94049,3.78629z" data-paper-data="{&quot;index&quot;:null}" fill="#ffffff"/><path d="M207.76329,129.38535l5.5,-0.00144l0.01578,81.06475l-5.5,0.00145z" data-paper-data="{&quot;index&quot;:null}" fill="#ffffff"/><path d="M158.80891,134.49562v-5.5h54.59941v5.5z" data-paper-data="{&quot;index&quot;:null}" fill="#ffffff"/><path d="M270.8094,116.61439l5.5,-0.00169l0.01578,94.94161l-5.5,0.00169z" data-paper-data="{&quot;index&quot;:null}" fill="#ffffff"/><path d="M104.0399,73.79166l5.5,-0.0016l0.01578,91.80609l-5.5,0.00164z" data-paper-data="{&quot;index&quot;:null}" fill="#ffffff"/><path d="M104.72806,79.51837v-5.5h128.78838v5.5z" data-paper-data="{&quot;index&quot;:null}" fill="#ffffff"/><path d="M74.11875,201.37701l-3.92725,-3.79953l35.48045,-35.68602l3.92484,4.00753z" data-paper-data="{&quot;index&quot;:null}" fill="#ffffff"/><path d="M163.70475,256.68089h-5.5v-127.65118h5.5z" data-paper-data="{&quot;index&quot;:null}" fill="#ffffff"/><path d="M28.74606,195.59106l5.5,-0.00111l0.01578,62.20979l-5.5,0.00111z" data-paper-data="{&quot;index&quot;:null}" fill="#ffffff"/><path d="M28.76777,260.21115v-5.5h134.65123v5.5z" data-paper-data="{&quot;index&quot;:null}" fill="#ffffff"/><path d="M28.79323,201.22984l-0.0008,-5.5l45.47033,-0.01578l0.00081,5.5z" data-paper-data="{&quot;index&quot;:null}" fill="#ffffff"/><path d="M18.44913,269.79337v-207.13243h278.33483v207.13243z" fill="none"/></g></g></svg>