<svg width="480px" height="360px" xmlns="http://www.w3.org/2000/svg"><path fill="#F00" d="M244.982 172.466L244.982 172.466Q244.982 173.571 245.436 174.368Q245.890 175.166 246.748 175.534L246.748 175.534L246.748 169.399Q245.865 169.791 245.423 170.577Q244.982 171.362 244.982 172.466ZM248.736 181.006L246.748 181.006L246.748 178.675Q245.546 178.528 244.577 178.037Q243.607 177.546 242.920 176.748Q242.233 175.951 241.853 174.871Q241.472 173.791 241.472 172.466L241.472 172.466Q241.472 171.166 241.865 170.110Q242.258 169.055 242.969 168.282Q243.681 167.509 244.638 167.006Q245.595 166.503 246.748 166.307L246.748 166.307L246.748 163.926L248.736 163.926L248.736 166.209Q249.693 166.307 250.466 166.663Q251.239 167.018 251.779 167.583L251.779 167.583L250.135 169.791Q249.399 169.202 248.736 169.129L248.736 169.129L248.736 175.804Q249.252 175.706 249.693 175.472Q250.135 175.239 250.503 174.945L250.503 174.945L251.951 177.227Q251.239 177.840 250.405 178.196Q249.571 178.552 248.736 178.675L248.736 178.675L248.736 181.006Z"/></svg>