<svg width="480px" height="360px" xmlns="http://www.w3.org/2000/svg"><path fill="#F00" d="M258.824 172.022L258.824 172.022Q258.824 173.576 258.342 174.867Q257.860 176.159 256.985 176.870Q256.109 177.581 254.971 177.581L254.971 177.581Q254.030 177.581 253.384 177.012Q252.739 176.443 252.618 175.557L252.618 175.557L252.531 175.557Q252.093 176.509 251.278 177.045Q250.462 177.581 249.346 177.581L249.346 177.581Q247.705 177.581 246.780 176.460Q245.855 175.338 245.855 173.412L245.855 173.412Q245.855 171.179 247.146 169.784Q248.438 168.389 250.539 168.389L250.539 168.389Q251.283 168.389 252.224 168.525Q253.166 168.662 253.921 168.903L253.921 168.903L253.647 174.047L253.647 174.287Q253.647 176.235 255.103 176.235L255.103 176.235Q256.098 176.235 256.722 175.059Q257.346 173.882 257.346 172L257.346 172Q257.346 170.019 256.536 168.531Q255.726 167.042 254.233 166.238Q252.739 165.434 250.802 165.434L250.802 165.434Q248.361 165.434 246.555 166.446Q244.750 167.458 243.798 169.335Q242.845 171.212 242.845 173.674L242.845 173.674Q242.845 177.012 244.607 178.807Q246.369 180.602 249.685 180.602L249.685 180.602Q251.984 180.602 254.457 179.661L254.457 179.661L254.457 181.116Q252.356 182.036 249.685 182.036L249.685 182.036Q245.713 182.036 243.518 179.852Q241.324 177.669 241.324 173.751L241.324 173.751Q241.324 170.906 242.495 168.684Q243.666 166.462 245.833 165.242Q248 164.022 250.802 164.022L250.802 164.022Q253.155 164.022 254.988 165.012Q256.821 166.003 257.822 167.825Q258.824 169.647 258.824 172.022ZM247.508 173.456L247.508 173.456Q247.508 176.235 249.642 176.235L249.642 176.235Q251.907 176.235 252.104 172.810L252.104 172.810L252.257 169.953Q251.469 169.735 250.539 169.735L250.539 169.735Q249.116 169.735 248.312 170.720Q247.508 171.705 247.508 173.456Z"/></svg>