<svg version="1.1" xmlns="http://www.w3.org/2000/svg" xmlns:xlink="http://www.w3.org/1999/xlink" width="160.54961" height="295.55507" viewBox="0,0,160.54961,295.55507"><defs><linearGradient x1="286.66616" y1="41.13441" x2="286.66616" y2="93.27798" gradientUnits="userSpaceOnUse" id="color-1"><stop offset="0" stop-color="#02ca41" stop-opacity="0"/><stop offset="1" stop-color="#02ca41"/></linearGradient><linearGradient x1="243.33287" y1="-47.03561" x2="243.33287" y2="3.27798" gradientUnits="userSpaceOnUse" id="color-2"><stop offset="0" stop-color="#02ca41" stop-opacity="0"/><stop offset="1" stop-color="#02ca41"/></linearGradient></defs><g transform="translate(-208.61633,76.38534)"><g data-paper-data="{&quot;isPaintingLayer&quot;:true}" stroke-miterlimit="10" stroke-dasharray="" stroke-dashoffset="0" style="mix-blend-mode: normal"><path d="M211.89984,213.29325l-0.54522,-120.8698l47.09199,-1.02329l0.24151,-45.84853l-42.50485,-43.82283v-78.05555l53.25381,1.24521l0.37734,76.34424l46.83099,0.6792l0.51574,109.41256l49.07079,1.78465l0.01974,50.31653l-94.1662,1.07005l0.48492,48.76757z" fill="#04b33b" fill-rule="nonzero" stroke="none" stroke-width="0" stroke-linecap="butt" stroke-linejoin="miter"/><path d="M257.65815,93.27798v-37.99205h58.01612v37.99205z" data-paper-data="{&quot;index&quot;:null}" fill="url(#color-1)" fill-rule="nonzero" stroke="none" stroke-width="0" stroke-linecap="butt" stroke-linejoin="miter"/><g data-paper-data="{&quot;index&quot;:null}" fill-rule="nonzero" stroke-linejoin="miter"><g fill="none" stroke="#51da7c" stroke-width="2" stroke-linecap="round"><path d="M287.03022,71.21885l3.61166,4.90079" data-paper-data="{&quot;index&quot;:null}"/><path d="M286.98796,71.1972l-3.78576,4.82178" data-paper-data="{&quot;index&quot;:null}"/><path d="M290.6477,76.20918l-7.37379,-0.1155" data-paper-data="{&quot;index&quot;:null}"/></g><path d="M284.00451,76.46431l2.96794,-4.94941l3.18132,4.73069z" fill="#51da7c" stroke="none" stroke-width="0" stroke-linecap="butt"/></g><path d="M216.65816,3.27798v-36.65872h53.34945v36.65872z" data-paper-data="{&quot;index&quot;:null}" fill="url(#color-2)" fill-rule="nonzero" stroke="none" stroke-width="0" stroke-linecap="butt" stroke-linejoin="miter"/><g data-paper-data="{&quot;index&quot;:null}" fill-rule="nonzero" stroke-linejoin="miter"><g fill="none" stroke="#51da7c" stroke-width="2" stroke-linecap="round"><path d="M246.97524,-13.54703l-3.61166,-4.90079" data-paper-data="{&quot;index&quot;:null}"/><path d="M239.53551,-13.64769l3.78576,-4.82178" data-paper-data="{&quot;index&quot;:null}"/><path d="M239.60724,-13.57299l7.37379,0.1155" data-paper-data="{&quot;index&quot;:null}"/></g><path d="M240.33788,-13.20237l2.96794,-4.94941l3.18132,4.73069z" fill="#51da7c" stroke="none" stroke-width="0" stroke-linecap="butt"/></g><path d="M211.12352,93.12789h50.47969v4.51853l-50.46528,0.05761z" data-paper-data="{&quot;index&quot;:null}" fill="#000000" fill-rule="evenodd" stroke="none" stroke-width="1" stroke-linecap="round" stroke-linejoin="round" opacity="0.21849"/><path d="M313.65659,113.09784h51.74635v4.51853l-51.73158,0.05761z" data-paper-data="{&quot;index&quot;:null}" fill="#000000" fill-rule="evenodd" stroke="none" stroke-width="1" stroke-linecap="round" stroke-linejoin="round" opacity="0.21849"/><path d="M273.63007,164.56709h95.53587v4.51853l-95.50859,0.05761z" data-paper-data="{&quot;index&quot;:null}" fill="#000000" fill-rule="evenodd" stroke="none" stroke-width="1" stroke-linecap="round" stroke-linejoin="round" opacity="0.21849"/><path d="M208.61634,214.59359h66.59026v4.51853l-66.57125,0.05761z" data-paper-data="{&quot;index&quot;:null}" fill="#000000" fill-rule="evenodd" stroke="none" stroke-width="1" stroke-linecap="round" stroke-linejoin="round" opacity="0.21849"/><path d="M266.0827,2.23293h49.0234v4.51853l-49.0094,0.05761z" data-paper-data="{&quot;index&quot;:null}" fill="#000000" fill-rule="evenodd" stroke="none" stroke-width="1" stroke-linecap="round" stroke-linejoin="round" opacity="0.21849"/><path d="M214.4821,7.37977l-0.03797,-5.82801l42.58768,43.63766c-0.9181,0.01695 -0.83752,4.20939 -0.83752,4.20939z" data-paper-data="{&quot;index&quot;:null}" fill="#000000" fill-rule="evenodd" stroke="none" stroke-width="1" stroke-linecap="round" stroke-linejoin="round" opacity="0.21849"/><path d="M218.14789,-76.38534h49.0234v4.51853l-49.0094,0.05761z" data-paper-data="{&quot;index&quot;:null}" fill="#000000" fill-rule="evenodd" stroke="none" stroke-width="1" stroke-linecap="round" stroke-linejoin="round" opacity="0.21849"/></g></g></svg>