<svg width="480px" height="360px" xmlns="http://www.w3.org/2000/svg"><path fill="#F00" d="M242.098 169.488L242.098 169.488L241.537 168.561Q242.463 167.951 242.915 167.256Q243.366 166.561 243.366 165.512L243.366 165.512Q243.293 165.537 243.171 165.537L243.171 165.537Q242.659 165.537 242.268 165.220Q241.878 164.902 241.878 164.317L241.878 164.317Q241.878 163.683 242.244 163.317Q242.610 162.951 243.171 162.951L243.171 162.951Q243.878 162.951 244.293 163.524Q244.707 164.098 244.707 165.171L244.707 165.171Q244.707 166.634 244.037 167.695Q243.366 168.756 242.098 169.488Z"/></svg>