<svg version="1.1" xmlns="http://www.w3.org/2000/svg" xmlns:xlink="http://www.w3.org/1999/xlink" width="246.95438" height="184.91579" viewBox="0,0,246.95438,184.91579"><defs><linearGradient x1="146.16311" y1="107.27196" x2="207.58789" y2="107.27196" gradientUnits="userSpaceOnUse" id="color-1"><stop offset="0" stop-color="#02ca41" stop-opacity="0"/><stop offset="1" stop-color="#02ca41"/></linearGradient><linearGradient x1="135.92485" y1="181.97641" x2="135.92485" y2="131.54743" gradientUnits="userSpaceOnUse" id="color-2"><stop offset="0" stop-color="#02ca41" stop-opacity="0"/><stop offset="1" stop-color="#02ca41"/></linearGradient></defs><g transform="translate(-29.24246,-77.91427)"><g data-paper-data="{&quot;isPaintingLayer&quot;:true}" stroke-miterlimit="10" stroke-dasharray="" stroke-dashoffset="0" style="mix-blend-mode: normal"><path d="M31.82676,257.92269l1.76813,-61.40201l43.29818,-0.50075l30.70675,-33.27932l0.4723,-84.82633l123.62396,0.32755l41.62031,41.55786l0.63288,89.33344l-61.57623,1.1318l-2.36439,-78.63117l-48.40922,0.23443l-1.91145,124.25165z" fill="#04b33b" fill-rule="nonzero" stroke="none" stroke-width="0" stroke-linecap="butt" stroke-linejoin="miter"/><path d="M207.58789,131.31169h-44.75438v-48.07947h44.75438z" data-paper-data="{&quot;index&quot;:null}" fill="url(#color-1)" fill-rule="nonzero" stroke="none" stroke-width="0" stroke-linecap="butt" stroke-linejoin="miter"/><g data-paper-data="{&quot;index&quot;:null}" fill-rule="nonzero" stroke-linejoin="miter"><g fill="none" stroke="#51da7c" stroke-width="2" stroke-linecap="round"><path d="M182.51222,106.57008l4.90079,-3.61166" data-paper-data="{&quot;index&quot;:null}"/><path d="M187.31235,110.39811l-4.82178,-3.78576" data-paper-data="{&quot;index&quot;:null}"/><path d="M187.38705,110.3264l0.1155,-7.37379" data-paper-data="{&quot;index&quot;:null}"/></g><path d="M187.75766,109.59578l-4.94941,-2.96794l4.73069,-3.18132z" fill="#51da7c" stroke="none" stroke-width="0" stroke-linecap="butt"/></g><path d="M160.84277,131.54743v37.56224l-55.84976,-0.20487l1.6311,-37.35737z" data-paper-data="{&quot;index&quot;:null}" fill="url(#color-2)" fill-rule="nonzero" stroke="none" stroke-width="0" stroke-linecap="butt" stroke-linejoin="miter"/><g data-paper-data="{&quot;index&quot;:null}" fill-rule="nonzero" stroke-linejoin="miter"><g fill="none" stroke="#51da7c" stroke-width="2" stroke-linecap="round"><path d="M133.76117,153.96257l-3.61166,-4.90079" data-paper-data="{&quot;index&quot;:null}"/><path d="M133.80342,153.98421l3.78576,-4.82178" data-paper-data="{&quot;index&quot;:null}"/><path d="M137.51748,149.08773l-7.37379,-0.1155" data-paper-data="{&quot;index&quot;:null}"/></g><path d="M136.78687,148.71712l-2.96794,4.94941l-3.18132,-4.73069z" fill="#51da7c" stroke="none" stroke-width="0" stroke-linecap="butt"/></g><path d="M108.25889,78.25288h123.09701v4.51853l-121.7821,0.05761z" data-paper-data="{&quot;index&quot;:null}" fill="#000000" fill-rule="evenodd" stroke="none" stroke-width="1" stroke-linecap="round" stroke-linejoin="round" opacity="0.21849"/><path d="M274.91013,121.41833l-2.71249,3.02174l-41.31799,-41.17076l0.18573,-4.42343z" data-paper-data="{&quot;index&quot;:null}" fill="#000000" fill-rule="evenodd" stroke="none" stroke-width="1" stroke-linecap="round" stroke-linejoin="round" opacity="0.21849"/><path d="M32.02974,199.92024h42.46513l0.59727,4.51853l-42.60879,0.05761z" data-paper-data="{&quot;index&quot;:null}" fill="#000000" fill-rule="evenodd" stroke="none" stroke-width="1" stroke-linecap="round" stroke-linejoin="round" opacity="0.21849"/><path d="M74.0351,200.24471l35.49774,-36.69228l0.20872,6.18145l-34.65837,34.93893z" data-paper-data="{&quot;index&quot;:null}" fill="#000000" fill-rule="evenodd" stroke="none" stroke-width="1" stroke-linecap="round" stroke-linejoin="round" opacity="0.21849"/><path d="M29.24246,258.25392h134.04702v4.51853l-134.00878,0.05761z" data-paper-data="{&quot;index&quot;:null}" fill="#000000" fill-rule="evenodd" stroke="none" stroke-width="1" stroke-linecap="round" stroke-linejoin="round" opacity="0.21849"/><path d="M208.04896,209.69843h68.14788v4.51853l-68.12844,0.05761z" data-paper-data="{&quot;index&quot;:null}" fill="#000000" fill-rule="evenodd" stroke="none" stroke-width="1" stroke-linecap="round" stroke-linejoin="round" opacity="0.21849"/><path d="M160.48892,132.92439h49.03513v4.51853l-49.02114,0.05761z" data-paper-data="{&quot;index&quot;:null}" fill="#000000" fill-rule="evenodd" stroke="none" stroke-width="1" stroke-linecap="round" stroke-linejoin="round" opacity="0.21849"/></g></g></svg>