<svg version="1.1" xmlns="http://www.w3.org/2000/svg" xmlns:xlink="http://www.w3.org/1999/xlink" width="522.09117" height="403.58264" viewBox="0,0,522.09117,403.58264"><defs><linearGradient x1="184.61592" y1="271.50928" x2="83.66713" y2="260.80422" gradientUnits="userSpaceOnUse" id="color-1"><stop offset="0" stop-color="#02ca41" stop-opacity="0"/><stop offset="1" stop-color="#02ca41"/></linearGradient><linearGradient x1="33.35419" y1="255.81102" x2="32.34275" y2="265.34898" gradientUnits="userSpaceOnUse" id="color-2"><stop offset="0" stop-color="#ffffff"/><stop offset="1" stop-color="#ffffff" stop-opacity="0"/></linearGradient><linearGradient x1="428.11951" y1="279.66229" x2="374.84688" y2="207.215" gradientUnits="userSpaceOnUse" id="color-3"><stop offset="0" stop-color="#cafccf" stop-opacity="0"/><stop offset="1" stop-color="#cafccf"/></linearGradient></defs><g transform="translate(29.41128,3.85916)"><g data-paper-data="{&quot;isPaintingLayer&quot;:true}" stroke-miterlimit="10" stroke-dasharray="" stroke-dashoffset="0" style="mix-blend-mode: normal"><path d="M-2.26575,374.59834v-363.42573h483.60619v363.42573z" data-paper-data="{&quot;index&quot;:null}" fill="#a9b9b9" fill-rule="nonzero" stroke="none" stroke-width="0" stroke-linecap="butt" stroke-linejoin="miter"/><path d="M270.79231,333.92517l-286.16705,-25.29133l4.54485,-109.36284c0,0 91.72041,8.37849 123.25748,11.25935c19.64244,1.7943 47.81471,4.36779 47.81471,4.36779l93.76928,-75.97943l8.12792,-73.15976l112.97854,9.46052l112.80729,140.95644l2.60978,165.01253l-134.10589,1.33646l10.11563,-114.06539l-87.39288,-10.23908z" data-paper-data="{&quot;index&quot;:null}" fill="#04b33b" fill-rule="nonzero" stroke="none" stroke-width="0" stroke-linecap="butt" stroke-linejoin="miter"/><path d="M88.1395,218.6296l73.55171,7.79975l-9.55747,90.12715l-73.55172,-7.79974z" data-paper-data="{&quot;index&quot;:null}" fill="url(#color-1)" fill-rule="nonzero" stroke="none" stroke-width="0" stroke-linecap="butt" stroke-linejoin="miter"/><g data-paper-data="{&quot;index&quot;:null}" fill-rule="nonzero" stroke-linejoin="miter"><g fill="none" stroke="#51da7c" stroke-width="3.5" stroke-linecap="round"><path d="M127.87012,271.51005l-10.68938,-9.77506" data-paper-data="{&quot;index&quot;:null}"/><path d="M115.55223,279.36303l12.35851,-7.74753" data-paper-data="{&quot;index&quot;:null}"/><path d="M115.39347,279.17462l1.57687,-17.47584" data-paper-data="{&quot;index&quot;:null}"/></g><path d="M116.76028,262.8583l10.39489,8.71418l-12.45528,5.78049z" fill="#51da7c" stroke="none" stroke-width="0" stroke-linecap="butt"/></g><path d="M283.00933,261.10344l83.20885,8.82383l-0.87781,8.27779l-83.19628,-8.71578z" data-paper-data="{&quot;index&quot;:null}" fill="#000000" fill-rule="evenodd" stroke="none" stroke-width="1" stroke-linecap="round" stroke-linejoin="round" opacity="0.21849"/><path d="M258.28871,141.96379l-1.06816,9.30112l-95.3567,76.98534l0.59593,-8.49341z" data-paper-data="{&quot;index&quot;:null}" fill="#000000" fill-rule="evenodd" stroke="none" stroke-width="1" stroke-linecap="round" stroke-linejoin="round" opacity="0.21849"/><path d="M484.27829,225.58353l-2.92569,6.44548l-113.06759,-143.79911l0.6719,-8.86094z" data-paper-data="{&quot;index&quot;:null}" fill="#000000" fill-rule="evenodd" stroke="none" stroke-width="1" stroke-linecap="round" stroke-linejoin="round" opacity="0.21849"/><path d="M262.65009,67.2926l107.00037,11.34679l-0.87781,8.2778l-106.98103,-11.23802z" data-paper-data="{&quot;index&quot;:null}" fill="#000000" fill-rule="evenodd" stroke="none" stroke-width="1" stroke-linecap="round" stroke-linejoin="round" opacity="0.21849"/><path d="M367.41573,77.19264l7.88212,-6.36675l117.38204,149.83308l-7.8821,6.36679z" data-paper-data="{&quot;index&quot;:null}" fill="#ffffff" fill-rule="nonzero" stroke="none" stroke-width="0" stroke-linecap="butt" stroke-linejoin="miter"/><path d="M365.07866,262.65477l10.07554,1.07092l-14.45103,135.99779l-10.07554,-1.07092z" data-paper-data="{&quot;index&quot;:null}" fill="#ffffff" fill-rule="nonzero" stroke="none" stroke-width="0" stroke-linecap="butt" stroke-linejoin="miter"/><path d="M263.70509,69.29319l1.06847,-10.07581l110.97941,11.76874l-1.06848,10.07581z" data-paper-data="{&quot;index&quot;:null}" fill="#ffffff" fill-rule="nonzero" stroke="none" stroke-width="0" stroke-linecap="butt" stroke-linejoin="miter"/><path d="M278.99683,263.81458l1.06848,-10.0758l91.92876,9.74852l-1.06848,10.0758z" data-paper-data="{&quot;index&quot;:null}" fill="#ffffff" fill-rule="nonzero" stroke="none" stroke-width="0" stroke-linecap="butt" stroke-linejoin="miter"/><path d="M161.81623,220.97907l-6.36915,-7.88021l95.88469,-77.49839l6.36914,7.88022z" data-paper-data="{&quot;index&quot;:null}" fill="#ffffff" fill-rule="nonzero" stroke="none" stroke-width="0" stroke-linecap="butt" stroke-linejoin="miter"/><path d="M256.50649,58.26116l10.07565,1.06999l-8.93588,83.98979l-10.07564,-1.06996z" data-paper-data="{&quot;index&quot;:null}" fill="#ffffff" fill-rule="nonzero" stroke="none" stroke-width="0" stroke-linecap="butt" stroke-linejoin="miter"/><path d="M279.90801,254.48973l10.07567,1.06976l-8.92161,83.85515l-10.07567,-1.06975z" data-paper-data="{&quot;index&quot;:null}" fill="#ffffff" fill-rule="nonzero" stroke="none" stroke-width="0" stroke-linecap="butt" stroke-linejoin="miter"/><path d="M-16.76169,305.99379l297.2904,31.52597l-0.87781,8.27779l-297.21671,-31.41144z" data-paper-data="{&quot;index&quot;:null}" fill="#000000" fill-rule="evenodd" stroke="none" stroke-width="1" stroke-linecap="round" stroke-linejoin="round" opacity="0.21849"/><path d="M-29.41128,307.88262l1.06847,-10.07581l309.3647,32.46565l-1.06848,10.07581z" data-paper-data="{&quot;index&quot;:null}" fill="#ffffff" fill-rule="nonzero" stroke="none" stroke-width="0" stroke-linecap="butt" stroke-linejoin="miter"/><path d="M-8.42061,200.47303l171.39497,18.17547l-0.87781,8.27779l-171.35721,-18.06474z" data-paper-data="{&quot;index&quot;:null}" fill="#000000" fill-rule="evenodd" stroke="none" stroke-width="1" stroke-linecap="round" stroke-linejoin="round" opacity="0.21849"/><path d="M-18.24845,201.93804l1.07171,-10.07545l180.50517,19.17079l-1.07167,10.07546z" data-paper-data="{&quot;index&quot;:null}" fill="#ffffff" fill-rule="nonzero" stroke="none" stroke-width="0" stroke-linecap="butt" stroke-linejoin="miter"/><g data-paper-data="{&quot;index&quot;:null}" fill-rule="nonzero" stroke-linecap="butt" stroke-linejoin="miter"><path d="M22.72359,260.73321c0.59451,-5.60626 5.6212,-9.66907 11.22748,-9.07456c5.60625,0.59451 9.66908,5.6212 9.07456,11.22748c-0.59451,5.60626 -5.62121,9.66907 -11.22748,9.07456c-5.60625,-0.59451 -9.66907,-5.62121 -9.07455,-11.22747z" fill="#000000" stroke="none" stroke-width="NaN"/><g><path d="M42.73092,189.6783c0,0 -0.72879,0.35064 -0.69715,-0.24043c0.16621,-3.10526 1.45176,-13.66998 1.68931,-15.65241c0.08878,-0.74099 0.73596,-0.40341 0.73596,-0.40341l23.29929,10.60095c0,0 0.46819,0.25527 0.07217,0.33979c-2.38381,0.50875 -25.09958,5.35553 -25.09958,5.35553z" fill="#fe0504" stroke="#fe0504" stroke-width="3.5"/><path d="M31.2239,255.76519l9.36458,-88.30812c0,0 0.32172,-2.79138 2.38153,-2.57295c2.05978,0.21843 1.90606,3.02762 1.90606,3.02762l-9.36458,88.30812z" fill="#ebebeb" stroke="none" stroke-width="0"/><path d="M30.19894,265.12163l1.01145,-9.53797l4.28759,0.45468l-1.01145,9.53797z" fill="url(#color-2)" stroke="none" stroke-width="0"/><path d="M-15.23643,288.46808l15.86539,-149.61099l105.54333,11.19228l-15.86539,149.61099z" fill="none" stroke="none" stroke-width="0"/></g></g><g data-paper-data="{&quot;index&quot;:null}" fill-rule="nonzero" stroke-linejoin="miter"><path d="M244.12699,214.02403l15.55786,-146.71094l150.44856,15.95422l-15.55786,146.71094z" fill="none" stroke="#000000" stroke-width="0" stroke-linecap="butt"/><path d="M295.08153,142.499c1.50871,-14.22718 14.26518,-24.53753 28.49236,-23.02882c14.22718,1.50871 24.53754,14.26518 23.02882,28.49235c-1.50871,14.22719 -14.26518,24.53754 -28.49235,23.02883c-14.22718,-1.50871 -24.53754,-14.26518 -23.02883,-28.49236z" fill="#ffdf43" stroke="none" stroke-width="0" stroke-linecap="butt"/><path d="M319.05778,132.15558l0.33939,-3.20042l5.14006,0.54507l-0.33938,3.20043z" fill="#82744e" stroke="none" stroke-width="0" stroke-linecap="butt"/><path d="M322.30681,158.1636l-0.33939,3.20042l-5.14007,-0.54508l0.33939,-3.20042z" fill="#82744e" stroke="none" stroke-width="0" stroke-linecap="butt"/><path d="M330.63946,137.83051l2.9636,-1.255l2.0156,4.7597l-2.96359,1.25499z" fill="#82744e" stroke="none" stroke-width="0" stroke-linecap="butt"/><path d="M310.45034,152.92588l-3.01571,1.12401l-1.8052,-4.84342l3.01571,-1.124z" fill="#82744e" stroke="none" stroke-width="0" stroke-linecap="butt"/><path d="M309.39975,140.06036l-2.64632,-1.83165l2.94173,-4.25015l2.64632,1.83164z" fill="#82744e" stroke="none" stroke-width="0" stroke-linecap="butt"/><path d="M332.37111,150.0632l2.67185,1.79418l-2.88155,4.29117l-2.67186,-1.79418z" fill="#82744e" stroke="none" stroke-width="0" stroke-linecap="butt"/><path d="M317.92008,145.19521c0.16359,-1.54268 1.54682,-2.66065 3.08949,-2.49706c1.54268,0.16359 2.66065,1.54681 2.49706,3.08948c-0.16359,1.54268 -1.54681,2.66065 -3.08948,2.49706c-1.54268,-0.16359 -2.66066,-1.54681 -2.49707,-3.08948z" fill="#82744e" stroke="none" stroke-width="0" stroke-linecap="butt"/><g fill="none" stroke="#82744e" stroke-linecap="round"><path d="M330.65889,151.7307l-3.72436,-2.50095" stroke-width="3.7"/><g><path d="M317.52759,131.80078l4.72241,-3.874" data-paper-data="{&quot;index&quot;:null}" stroke-width="2.5"/><path d="M325.98357,132.79452l-3.68288,-4.88103" data-paper-data="{&quot;index&quot;:null}" stroke-width="2.5"/><path d="M317.50956,131.88029l8.3831,0.97081" data-paper-data="{&quot;index&quot;:null}" stroke-width="2.5"/><path d="M315.6063,157.54874l3.80488,4.77828" data-paper-data="{&quot;index&quot;:null}" stroke-width="2.5"/><path d="M319.45802,162.35066l4.62468,-4.00006" data-paper-data="{&quot;index&quot;:null}" stroke-width="2.5"/><path d="M324.00561,158.27616l-8.40025,-0.80896" data-paper-data="{&quot;index&quot;:null}" stroke-width="2.5"/><path d="M321.67942,133.24799l-0.47308,4.46113" stroke-width="3.7"/><path d="M319.63453,157.33397l0.47307,-4.46113" stroke-width="3.7"/><path d="M330.21797,136.22441l5.67792,2.25172" data-paper-data="{&quot;index&quot;:null}" stroke-width="2.5"/><path d="M335.93213,138.51403l-2.48312,5.5877" data-paper-data="{&quot;index&quot;:null}" stroke-width="2.5"/><path d="M333.35542,144.04968l-3.21573,-7.80241" data-paper-data="{&quot;index&quot;:null}" stroke-width="2.5"/><path d="M307.85907,146.5906l-2.57905,5.53692" data-paper-data="{&quot;index&quot;:null}" stroke-width="2.5"/><path d="M310.92283,154.53448l-5.64309,-2.35451" data-paper-data="{&quot;index&quot;:null}" stroke-width="2.5"/><path d="M310.95502,154.43232l-3.02342,-7.87893" data-paper-data="{&quot;index&quot;:null}" stroke-width="2.5"/><path d="M330.96541,140.55727l-4.13102,1.74938" stroke-width="3.7"/><path d="M314.05197,148.53327l-4.20367,1.56675" stroke-width="3.7"/><path d="M307.06431,135.37308l6.01726,-1.04955" data-paper-data="{&quot;index&quot;:null}" stroke-width="2.5"/><path d="M308.31559,141.37882l-1.29448,-5.976" data-paper-data="{&quot;index&quot;:null}" stroke-width="2.5"/><path d="M313.15353,134.36176l-4.73573,6.98509" data-paper-data="{&quot;index&quot;:null}" stroke-width="2.5"/><path d="M334.63084,154.76452l-1.22142,-5.98474" data-paper-data="{&quot;index&quot;:null}" stroke-width="2.5"/><path d="M334.61893,154.8156l-6.03581,0.97836" data-paper-data="{&quot;index&quot;:null}" stroke-width="2.5"/><path d="M333.34748,148.72677l-4.77198,6.96038" data-paper-data="{&quot;index&quot;:null}" stroke-width="2.5"/><path d="M311.46828,138.41369l3.68877,2.55315" stroke-width="3.7"/></g></g></g><path d="M358.14778,203.55406c30.21782,11.11786 50.90543,58.33374 50.90543,58.33374c0,0 -15.93293,-34.45937 -52.76672,-43.36425c0,0 -3.91476,-16.82862 1.86129,-14.96949z" data-paper-data="{&quot;origRot&quot;:0,&quot;index&quot;:null}" fill="url(#color-3)" fill-rule="nonzero" stroke="none" stroke-width="0" stroke-linecap="round" stroke-linejoin="miter"/><g><path d="M198.62954,275.28031c1.01831,-5.14223 3.95125,-11.09624 11.68598,-9.82547c9.01047,1.61162 9.65128,8.45035 8.58407,13.83953c-1.0672,5.38914 -6.47003,8.85941 -12.06737,7.75098c-5.59738,-1.10844 -9.26985,-6.37587 -8.20264,-11.76501z" fill="#000000" fill-rule="evenodd" stroke="none" stroke-width="1" stroke-linecap="round" stroke-linejoin="round" opacity="0.21849"/><path d="M218.5703,274.85907c-0.98996,4.99906 -5.84497,8.249 -10.84398,7.25905c-4.99906,-0.98996 -8.24904,-5.84498 -7.25909,-10.84398c0.98996,-4.99906 5.84498,-8.24904 10.84401,-7.2591c4.99906,0.98996 8.24902,5.84498 7.25908,10.84401z" fill="#cacaca" fill-rule="nonzero" stroke="#b1b1b1" stroke-width="2" stroke-linecap="butt" stroke-linejoin="miter"/><path d="M157.61135,310.06458l18.01786,-90.98623l85.79691,16.99023l-18.01786,90.98624z" fill="none" fill-rule="nonzero" stroke="none" stroke-width="0" stroke-linecap="butt" stroke-linejoin="miter"/></g><g data-paper-data="{&quot;index&quot;:null}"><path d="M338.71075,211.48743c0.63634,-5.21204 3.12512,-11.37676 10.94552,-10.68024c9.12001,0.94252 10.26661,7.72633 9.59967,13.18867c-0.66692,5.46231 -5.80682,9.32893 -11.48014,8.63625c-5.67335,-0.69266 -9.73194,-5.68237 -9.06502,-11.14467z" fill="#000000" fill-rule="evenodd" stroke="none" stroke-width="1" stroke-linecap="round" stroke-linejoin="round" opacity="0.21849"/><path d="M358.09821,209.58782c-0.61863,5.06693 -5.22766,8.67289 -10.29451,8.05426c-5.06693,-0.61863 -8.67291,-5.22766 -8.05428,-10.29452c0.61863,-5.06693 5.22767,-8.67293 10.29456,-8.05428c5.06693,0.61863 8.67289,5.22767 8.05426,10.29455z" fill="#ffffff" fill-rule="nonzero" stroke="#d3d3d3" stroke-width="2" stroke-linecap="butt" stroke-linejoin="miter"/><path d="M326.85713,226.37078l4.72119,-38.66892l36.46345,4.45194l-4.7212,38.6689z" fill="none" fill-rule="nonzero" stroke="none" stroke-width="0" stroke-linecap="butt" stroke-linejoin="miter"/></g><path d="M-2.8665,-2.73301l485.30278,-1.12615l0.50933,367.08698l-485.89121,0.63137z" fill="#ffffff" fill-rule="nonzero" stroke="none" stroke-width="1" stroke-linecap="butt" stroke-linejoin="miter" opacity="0.29331"/><path d="M-4.03873,35.08441v-37.07976h489.1826v37.07976z" fill="#ffffff" fill-rule="nonzero" stroke="none" stroke-width="0" stroke-linecap="butt" stroke-linejoin="miter"/><g fill="#000000" fill-rule="evenodd" stroke="none" stroke-width="1" stroke-linecap="round" stroke-linejoin="round"><path d="M54.17802,10.58372v8.61358c0,3.62907 -2.60156,5.74967 -5.99015,5.74967c-3.41045,0 -5.99015,-2.1206 -5.99015,-5.74967v-8.61358c0,-0.63399 0.50282,-1.15868 1.15868,-1.15868c0.65586,0 1.2024,0.52469 1.2024,1.15868v8.59172c0,2.55784 1.57406,3.7821 3.62907,3.7821c2.05502,0 3.62907,-1.22427 3.62907,-3.7821v-8.59172c0,-0.63399 0.54655,-1.15868 1.22427,-1.15868c0.63399,0 1.13682,0.52469 1.13682,1.15868z"/><path d="M64.32192,14.99982c0.13117,0.19676 0.30607,0.43724 0.30607,0.80889c0,0.54655 -0.41538,0.87448 -0.94006,0.87448c-0.34979,0 -0.67772,-0.15303 -1.00565,-0.59027c-0.43724,-0.54655 -1.04937,-0.9182 -1.94571,-0.9182c-1.09309,0 -1.74895,0.54655 -1.74895,1.33357c0,0.54655 0.30607,1.07123 1.46475,1.39916l1.35544,0.37165c1.85826,0.50282 3.25742,1.33357 3.25742,3.16997c0,2.2955 -2.16433,3.45418 -4.43796,3.45418c-1.90198,0 -3.23556,-0.83075 -3.80397,-1.72709c-0.10931,-0.15303 -0.4591,-0.59027 -0.4591,-1.11496c0,-0.4591 0.2842,-0.94006 0.89634,-0.94006c0.50282,0 0.76517,0.30607 0.98378,0.63399c0.54655,0.9182 1.44288,1.22427 2.38294,1.22427c1.26799,0 2.14246,-0.52469 2.14246,-1.39916c0,-0.65586 -0.4591,-1.13682 -1.55219,-1.44288l-1.46475,-0.39351c-2.1206,-0.59027 -3.0388,-1.72709 -3.0388,-3.2137c0,-2.05502 1.85826,-3.23556 3.97886,-3.23556c1.57406,0 2.92949,0.63399 3.62907,1.70523z"/><path d="M77.85443,18.73817c0,0.89634 -0.50282,1.24613 -1.44288,1.24613l-7.32373,-0.02186c0.24048,2.03315 1.8364,3.0388 3.58535,3.0388c0.89634,0 1.50847,-0.21862 2.18619,-0.63399c0.37165,-0.19676 0.61213,-0.34979 0.9182,-0.34979c0.50282,0 0.80889,0.34979 0.80889,0.83075c0,0.2842 -0.10931,0.59027 -0.59027,0.98378c-0.83075,0.67772 -2.03315,1.07123 -3.41045,1.07123c-2.84204,0 -5.88085,-1.81454 -5.88085,-5.77154c0,-3.93514 3.16997,-5.83712 5.66223,-5.83712c2.49225,0 5.48733,1.96757 5.48733,5.44361zM69.08782,18.30095h6.51484c-0.19676,-2.07688 -1.77081,-2.99508 -3.23556,-2.99508c-1.44288,0 -3.08252,0.9182 -3.27928,2.99508z"/><path d="M87.16763,14.38769c0,0.65586 -0.50282,1.09309 -1.48661,1.09309c-1.92385,0 -3.16997,1.48661 -3.32301,2.64529v5.6185c0,0.63399 -0.52469,1.15868 -1.15868,1.15868c-0.63399,0 -1.15868,-0.52469 -1.15868,-1.15868v-9.20385c0,-0.65586 0.52469,-1.18054 1.15868,-1.18054c0.63399,0 1.15868,0.52469 1.15868,1.18054v1.44288c0.10931,-0.76517 1.48661,-2.66715 3.62907,-2.66715c0.76517,0 1.18054,0.48096 1.18054,1.07123z"/><path d="M99.56331,18.36655v5.37802c0,0.63399 -0.50282,1.15868 -1.13682,1.15868c-0.63399,0 -1.15868,-0.52469 -1.15868,-1.15868v-5.37802c0,-2.18619 -1.24613,-3.06066 -2.66715,-3.06066c-2.09874,0 -3.01694,1.88012 -3.14811,2.82018v5.6185c0,0.63399 -0.52469,1.15868 -1.15868,1.15868c-0.63399,0 -1.15868,-0.52469 -1.15868,-1.15868v-9.20385c0,-0.65586 0.52469,-1.18054 1.15868,-1.18054c0.63399,0 1.15868,0.52469 1.15868,1.18054v1.44288c0.10931,-0.76517 1.42102,-2.66715 3.91328,-2.66715c2.1206,0 4.19748,1.33357 4.19748,5.05009z"/><path d="M110.66915,15.39333v-0.87448c0,-0.63399 0.52469,-1.15868 1.15868,-1.15868c0.63399,0 1.18054,0.52469 1.18054,1.15868v9.24757c0,0.63399 -0.54655,1.15868 -1.18054,1.15868c-0.63399,0 -1.15868,-0.52469 -1.15868,-1.15868v-1.18054c-0.15303,0.98378 -1.50847,2.36108 -3.58535,2.36108c-2.42667,0 -5.3343,-1.88012 -5.3343,-5.83712c0,-3.89141 2.92949,-5.81526 5.3343,-5.81526c1.61778,0 3.01694,0.83075 3.58535,2.09874zM110.77843,19.10985c0,-2.73273 -1.8364,-3.82583 -3.32301,-3.82583c-1.59592,0 -3.38859,1.24613 -3.38859,3.82583c0,2.60156 1.79267,3.84769 3.38859,3.84769c1.48661,0 3.32301,-1.13682 3.32301,-3.84769z"/><path d="M134.19251,18.36655v5.37802c0,0.63399 -0.52469,1.15868 -1.13682,1.15868c-0.63399,0 -1.15868,-0.52469 -1.15868,-1.15868v-5.37802c0,-2.18619 -1.24613,-3.06066 -2.66715,-3.06066c-2.09874,0 -3.01694,1.88012 -3.16997,2.82018v0.24048v5.37802c0,0.63399 -0.50282,1.15868 -1.13682,1.15868c-0.63399,0 -1.15868,-0.52469 -1.15868,-1.15868v-5.37802c0,-2.18619 -1.24613,-3.06066 -2.66715,-3.06066c-2.09874,0 -3.01694,1.88012 -3.14811,2.82018v5.6185c0,0.63399 -0.52469,1.15868 -1.15868,1.15868c-0.63399,0 -1.15868,-0.52469 -1.15868,-1.15868v-9.20385c0,-0.65586 0.52469,-1.18054 1.15868,-1.18054c0.63399,0 1.15868,0.52469 1.15868,1.18054v1.44288c0.10931,-0.76517 1.42102,-2.66715 3.91328,-2.66715c1.61778,0 3.23556,0.78703 3.89141,2.82018c0.61213,-1.35544 2.01129,-2.82018 4.2412,-2.82018c2.1206,0 4.19748,1.33357 4.19748,5.05009z"/><path d="M147.52821,18.73817c0,0.89634 -0.50282,1.24613 -1.44288,1.24613l-7.32373,-0.02186c0.24048,2.03315 1.8364,3.0388 3.58535,3.0388c0.89634,0 1.50847,-0.21862 2.18619,-0.63399c0.37165,-0.19676 0.61213,-0.34979 0.9182,-0.34979c0.50282,0 0.80889,0.34979 0.80889,0.83075c0,0.2842 -0.10931,0.59027 -0.59027,0.98378c-0.83075,0.67772 -2.03315,1.07123 -3.41045,1.07123c-2.84204,0 -5.88085,-1.81454 -5.88085,-5.77154c0,-3.93514 3.16997,-5.83712 5.66223,-5.83712c2.49225,0 5.48733,1.96757 5.48733,5.44361zM138.76164,18.30095h6.51484c-0.19676,-2.07688 -1.77081,-2.99508 -3.23556,-2.99508c-1.44288,0 -3.08252,0.9182 -3.27928,2.99508z"/></g><g fill="#000000" fill-rule="evenodd" stroke="none" stroke-width="1" stroke-linecap="round" stroke-linejoin="round"><path d="M279.09576,11.53236c0.33807,0.42822 0.51837,0.76629 0.51837,1.12689c0,0.54091 -0.42822,0.96913 -1.0142,0.96913c-0.42822,0 -0.78882,-0.22538 -1.03674,-0.51837c-0.63106,-0.8339 -1.32973,-1.39734 -2.61439,-1.39734c-1.60018,0 -2.59185,0.81136 -2.59185,2.05094c0,0.99166 0.63106,1.71287 2.09602,2.27632l1.10435,0.42822c3.17783,1.21704 4.80055,2.36647 4.80055,4.64279c0,2.99753 -2.95245,4.5301 -5.56684,4.5301c-1.91571,0 -3.8765,-0.8339 -4.89071,-2.38901c-0.1803,-0.24792 -0.47329,-0.6536 -0.47329,-1.14943c0,-0.54091 0.33807,-1.05928 1.0142,-1.05928c0.54091,0 0.92405,0.33807 1.17197,0.72121c0.76629,1.17197 1.96079,1.69034 3.17783,1.69034c1.39734,0 3.06514,-0.58598 3.06514,-2.34393c0,-1.41988 -1.05928,-1.98333 -2.79469,-2.65946l-1.21704,-0.47329c-2.25378,-0.87897 -3.92158,-2.0284 -3.92158,-4.23711c0,-2.54677 2.20871,-4.19203 4.93578,-4.19203c2.07348,0 3.38067,0.90151 4.23711,1.98333z"/><path d="M288.31372,24.26622c0,0.92405 -1.05928,1.32973 -2.32139,1.32973c-1.35227,0 -2.682,-0.47329 -2.682,-3.06514v-6.8515h-0.85644c-0.58598,0 -0.96913,-0.38314 -0.96913,-0.96913c0,-0.56345 0.38314,-0.94659 0.96913,-0.94659h0.85644v-1.75795c0,-0.63106 0.54091,-1.17197 1.17197,-1.17197c0.6536,0 1.1945,0.54091 1.1945,1.17197v1.75795h1.64526c0.58598,0 0.99166,0.38314 0.99166,0.94659c0,0.58598 -0.40568,0.96913 -0.99166,0.96913h-1.64526v6.87403c0,0.67613 0.27045,0.99166 0.78882,0.99166c0.29299,0 0.63106,-0.09015 0.87897,-0.11269c0.56345,-0.09015 0.96913,0.27045 0.96913,0.8339z"/><path d="M298.86143,15.792v-0.90151c0,-0.6536 0.54091,-1.1945 1.1945,-1.1945c0.6536,0 1.21704,0.54091 1.21704,1.1945v9.5335c0,0.6536 -0.56345,1.1945 -1.21704,1.1945c-0.6536,0 -1.1945,-0.54091 -1.1945,-1.1945v-1.21704c-0.15776,1.0142 -1.55511,2.43408 -3.6962,2.43408c-2.5017,0 -5.49923,-1.93825 -5.49923,-6.0176c0,-4.01173 3.02007,-5.99506 5.49923,-5.99506c1.6678,0 3.11022,0.85644 3.6962,2.16363zM298.97409,19.6234c0,-2.81723 -1.89318,-3.94412 -3.42575,-3.94412c-1.64526,0 -3.49336,1.28466 -3.49336,3.94412c0,2.682 1.8481,3.96666 3.49336,3.96666c1.53257,0 3.42575,-1.17197 3.42575,-3.96666z"/><path d="M309.90495,24.26622c0,0.92405 -1.05928,1.32973 -2.32139,1.32973c-1.35227,0 -2.682,-0.47329 -2.682,-3.06514v-6.8515h-0.85644c-0.58598,0 -0.96913,-0.38314 -0.96913,-0.96913c0,-0.56345 0.38314,-0.94659 0.96913,-0.94659h0.85644v-1.75795c0,-0.63106 0.54091,-1.17197 1.17197,-1.17197c0.6536,0 1.1945,0.54091 1.1945,1.17197v1.75795h1.64526c0.58598,0 0.99166,0.38314 0.99166,0.94659c0,0.58598 -0.40568,0.96913 -0.99166,0.96913h-1.64526v6.87403c0,0.67613 0.27045,0.99166 0.78882,0.99166c0.29299,0 0.63106,-0.09015 0.87897,-0.11269c0.56345,-0.09015 0.96913,0.27045 0.96913,0.8339z"/><path d="M311.93334,20.43477v-5.5443c0,-0.6536 0.51837,-1.1945 1.17197,-1.1945c0.6536,0 1.1945,0.54091 1.1945,1.1945v5.5443c0,2.25378 1.28466,3.15529 2.74961,3.15529c2.16363,0 3.11022,-1.93825 3.24545,-2.90738v-5.79222c0,-0.6536 0.54091,-1.1945 1.1945,-1.1945c0.6536,0 1.1945,0.54091 1.1945,1.1945v9.48842c0,0.67613 -0.54091,1.21704 -1.1945,1.21704c-0.6536,0 -1.1945,-0.54091 -1.1945,-1.21704v-1.4875c-0.11269,0.78882 -1.46496,2.74961 -4.03427,2.74961c-2.18617,0 -4.32726,-1.37481 -4.32726,-5.20624z"/><path d="M333.02871,15.38632c0.13523,0.20284 0.31553,0.45076 0.31553,0.8339c0,0.56345 -0.42822,0.90151 -0.96913,0.90151c-0.36061,0 -0.69867,-0.15776 -1.03674,-0.60852c-0.45076,-0.56345 -1.08182,-0.94659 -2.00587,-0.94659c-1.12689,0 -1.80303,0.56345 -1.80303,1.37481c0,0.56345 0.31553,1.10435 1.51003,1.44242l1.39734,0.38314c1.91571,0.51837 3.35813,1.37481 3.35813,3.26798c0,2.36647 -2.23124,3.56097 -4.57518,3.56097c-1.96079,0 -3.3356,-0.85644 -3.92158,-1.78049c-0.11269,-0.15776 -0.47329,-0.60852 -0.47329,-1.14943c0,-0.47329 0.29299,-0.96913 0.92405,-0.96913c0.51837,0 0.78882,0.31553 1.0142,0.6536c0.56345,0.94659 1.4875,1.26212 2.45662,1.26212c1.30719,0 2.20871,-0.54091 2.20871,-1.44242c0,-0.67613 -0.47329,-1.17197 -1.60018,-1.4875l-1.51003,-0.40568c-2.18617,-0.60852 -3.13276,-1.78049 -3.13276,-3.31306c0,-2.11855 1.91571,-3.3356 4.10188,-3.3356c1.62272,0 3.02007,0.6536 3.74128,1.75795z"/></g><path d="M-4.03873,365.0844v-37.07976h489.1826v37.07976z" fill="#ffffff" fill-rule="nonzero" stroke="none" stroke-width="0" stroke-linecap="butt" stroke-linejoin="miter"/><text transform="translate(37.19589,350.97924) scale(0.5,0.5)" font-size="40" xml:space="preserve" fill="#000000" fill-rule="nonzero" stroke="none" stroke-width="1" stroke-linecap="butt" stroke-linejoin="miter" stroke-miterlimit="10" stroke-dasharray="" stroke-dashoffset="0" font-family="Sans Serif" font-weight="normal" text-anchor="start" style="mix-blend-mode: normal"><tspan x="0" dy="0">wins:</tspan></text><text transform="translate(192.19589,350.97924) scale(0.5,0.5)" font-size="40" xml:space="preserve" fill="#000000" fill-rule="nonzero" stroke="none" stroke-width="1" stroke-linecap="butt" stroke-linejoin="miter" stroke-miterlimit="10" stroke-dasharray="" stroke-dashoffset="0" font-family="Sans Serif" font-weight="normal" text-anchor="start" style="mix-blend-mode: normal"><tspan x="0" dy="0">losses:</tspan></text><text transform="translate(344.19589,350.97924) scale(0.5,0.5)" font-size="40" xml:space="preserve" fill="#000000" fill-rule="nonzero" stroke="none" stroke-width="1" stroke-linecap="butt" stroke-linejoin="miter" stroke-miterlimit="10" stroke-dasharray="" stroke-dashoffset="0" font-family="Sans Serif" font-weight="normal" text-anchor="start" style="mix-blend-mode: normal"><tspan x="0" dy="0">total:</tspan></text></g></g></svg>