<svg width="480px" height="360px" xmlns="http://www.w3.org/2000/svg"><path fill="#F00" d="M244.491 170.233L244.491 170.233Q243.755 170.233 243.104 169.975Q242.454 169.718 241.975 169.239Q241.497 168.761 241.227 168.123Q240.957 167.485 240.957 166.699L240.957 166.699Q240.957 165.939 241.227 165.288Q241.497 164.638 241.975 164.160Q242.454 163.681 243.104 163.423Q243.755 163.166 244.491 163.166L244.491 163.166Q245.227 163.166 245.877 163.423Q246.528 163.681 247.006 164.160Q247.485 164.638 247.767 165.288Q248.049 165.939 248.049 166.699L248.049 166.699Q248.049 167.485 247.767 168.123Q247.485 168.761 247.006 169.239Q246.528 169.718 245.877 169.975Q245.227 170.233 244.491 170.233ZM244.491 168.515L244.491 168.515Q245.227 168.515 245.681 168.012Q246.135 167.509 246.135 166.699L246.135 166.699Q246.135 165.914 245.681 165.411Q245.227 164.908 244.491 164.908L244.491 164.908Q243.779 164.908 243.313 165.411Q242.847 165.914 242.847 166.699L242.847 166.699Q242.847 167.509 243.313 168.012Q243.779 168.515 244.491 168.515Z"/></svg>