<svg width="480px" height="360px" xmlns="http://www.w3.org/2000/svg"><path fill="#F00" d="M251.171 172.634L241.171 172.634L241.171 171.244L251.171 171.244L251.171 172.634ZM246.171 177.634L246.171 177.634Q245.634 177.634 245.280 177.280Q244.927 176.927 244.927 176.390L244.927 176.390Q244.927 175.878 245.280 175.524Q245.634 175.171 246.171 175.171L246.171 175.171Q246.707 175.171 247.061 175.524Q247.415 175.878 247.415 176.390L247.415 176.390Q247.415 176.927 247.061 177.280Q246.707 177.634 246.171 177.634ZM246.171 168.780L246.171 168.780Q245.634 168.780 245.280 168.415Q244.927 168.049 244.927 167.512L244.927 167.512Q244.927 167 245.280 166.646Q245.634 166.293 246.171 166.293L246.171 166.293Q246.707 166.293 247.061 166.646Q247.415 167 247.415 167.512L247.415 167.512Q247.415 168.049 247.061 168.415Q246.707 168.780 246.171 168.780Z"/></svg>