<svg width="480px" height="360px" xmlns="http://www.w3.org/2000/svg"><path fill="#F00" d="M246.683 180.293L246.683 180.293Q245.512 180.293 244.488 179.878Q243.463 179.463 242.720 178.671Q241.976 177.878 241.549 176.720Q241.122 175.561 241.122 174.098L241.122 174.098Q241.122 172.610 241.585 171.451Q242.049 170.293 242.829 169.488Q243.610 168.683 244.646 168.268Q245.683 167.854 246.829 167.854L246.829 167.854Q248 167.854 248.829 168.268Q249.659 168.683 250.293 169.244L250.293 169.244L249.268 170.561Q248.756 170.098 248.183 169.805Q247.610 169.512 246.902 169.512L246.902 169.512Q246.098 169.512 245.415 169.841Q244.732 170.171 244.244 170.780Q243.756 171.390 243.476 172.232Q243.195 173.073 243.195 174.098L243.195 174.098Q243.195 175.122 243.463 175.951Q243.732 176.780 244.207 177.378Q244.683 177.976 245.366 178.305Q246.049 178.634 246.854 178.634L246.854 178.634Q247.683 178.634 248.378 178.280Q249.073 177.927 249.634 177.439L249.634 177.439L250.512 178.780Q249.707 179.488 248.732 179.890Q247.756 180.293 246.683 180.293Z"/></svg>