<svg width="480px" height="360px" xmlns="http://www.w3.org/2000/svg"><path fill="#F00" d="M244.049 169.537L244.049 169.537Q243.439 169.537 242.890 169.317Q242.341 169.098 241.915 168.695Q241.488 168.293 241.244 167.720Q241 167.146 241 166.439L241 166.439Q241 165.707 241.244 165.134Q241.488 164.561 241.915 164.146Q242.341 163.732 242.890 163.512Q243.439 163.293 244.049 163.293L244.049 163.293Q244.659 163.293 245.207 163.512Q245.756 163.732 246.183 164.146Q246.610 164.561 246.854 165.134Q247.098 165.707 247.098 166.439L247.098 166.439Q247.098 167.146 246.854 167.720Q246.610 168.293 246.183 168.695Q245.756 169.098 245.207 169.317Q244.659 169.537 244.049 169.537ZM244.049 168.415L244.049 168.415Q244.854 168.415 245.366 167.854Q245.878 167.293 245.878 166.439L245.878 166.439Q245.878 165.537 245.366 164.976Q244.854 164.415 244.049 164.415L244.049 164.415Q243.244 164.415 242.732 164.976Q242.220 165.537 242.220 166.439L242.220 166.439Q242.220 167.293 242.732 167.854Q243.244 168.415 244.049 168.415Z"/></svg>