<svg version="1.1" xmlns="http://www.w3.org/2000/svg" xmlns:xlink="http://www.w3.org/1999/xlink" width="261.42148" height="182.93248" viewBox="0,0,261.42148,182.93248"><defs><linearGradient x1="94.06881" y1="131.77056" x2="94.06881" y2="178.9501" gradientUnits="userSpaceOnUse" id="color-1"><stop offset="0" stop-color="#02ca41" stop-opacity="0"/><stop offset="1" stop-color="#02ca41"/></linearGradient></defs><g transform="translate(-12.56613,-63.11425)"><g data-paper-data="{&quot;isPaintingLayer&quot;:true}" stroke-miterlimit="10" stroke-dasharray="" stroke-dashoffset="0" style="mix-blend-mode: normal"><path d="M13.61652,100.05972l55.17679,-0.95898l41.49605,-35.98648l72.98885,1.44945l2.05564,44.59058l42.31994,42.32663l42.93333,1.74894l1.04352,51.66721l-99.13893,2.2203l-30.90604,30.21468l-71.17326,0.03072l-0.42655,-91.23924l-56.21251,0.83522zM156.59847,175.3953l-0.3509,-35.29393l-35.98315,-0.24065l-0.32596,35.38336z" fill="#04b33b" fill-rule="nonzero" stroke="none" stroke-width="0" stroke-linecap="butt" stroke-linejoin="miter"/><path d="M105.95638,64.70879h77.13779v4.51853l-77.11578,0.05761z" data-paper-data="{&quot;index&quot;:null}" fill="#000000" fill-rule="evenodd" stroke="none" stroke-width="1" stroke-linecap="round" stroke-linejoin="round" opacity="0.21849"/><path d="M70.95976,100.76137l35.49774,-36.69228l0.20872,6.18145l-34.65837,34.93893z" data-paper-data="{&quot;index&quot;:null}" fill="#000000" fill-rule="evenodd" stroke="none" stroke-width="1" stroke-linecap="round" stroke-linejoin="round" opacity="0.21849"/><path d="M17.64005,100.99099h53.0134l1.85572,4.51853l-54.85346,0.05761z" data-paper-data="{&quot;index&quot;:null}" fill="#000000" fill-rule="evenodd" stroke="none" stroke-width="1" stroke-linecap="round" stroke-linejoin="round" opacity="0.21849"/><path d="M12.56613,147.40632h56.34318l1.97228,4.51853l-58.29882,0.05761z" data-paper-data="{&quot;index&quot;:null}" fill="#000000" fill-rule="evenodd" stroke="none" stroke-width="1" stroke-linecap="round" stroke-linejoin="round" opacity="0.21849"/><path d="M226.54139,153.48142h43.20458v4.51853l-43.98733,0.05761z" data-paper-data="{&quot;index&quot;:null}" fill="#000000" fill-rule="evenodd" stroke="none" stroke-width="1" stroke-linecap="round" stroke-linejoin="round" opacity="0.21849"/><path d="M227.48237,154.02683l-1.69161,3.85092l-43.98389,-44.166l-0.2108,-4.99646z" fill="#000000" fill-rule="evenodd" stroke="none" stroke-width="1" stroke-linecap="round" stroke-linejoin="round" opacity="0.21849"/><path d="M176.17608,211.96227l-32.24424,34.08447l-0.8396,-5.38192l31.96375,-35.49892z" data-paper-data="{&quot;index&quot;:null}" fill="#000000" fill-rule="evenodd" stroke="none" stroke-width="1" stroke-linecap="round" stroke-linejoin="round" opacity="0.21849"/><path d="M175.37646,207.68095h98.61115v4.51853l-98.58301,0.05761z" data-paper-data="{&quot;index&quot;:null}" fill="#000000" fill-rule="evenodd" stroke="none" stroke-width="1" stroke-linecap="round" stroke-linejoin="round" opacity="0.21849"/><path d="M68.2378,240.45756h75.01696l0.53021,4.51853l-75.52576,0.05761z" data-paper-data="{&quot;index&quot;:null}" fill="#000000" fill-rule="evenodd" stroke="none" stroke-width="1" stroke-linecap="round" stroke-linejoin="round" opacity="0.21849"/><path d="M118.83555,139.44167h36.32029l0.2567,4.51853l-36.56663,0.05761z" data-paper-data="{&quot;index&quot;:null}" fill="#000000" fill-rule="evenodd" stroke="none" stroke-width="1" stroke-linecap="round" stroke-linejoin="round" opacity="0.21849"/><path d="M70.02908,178.9501v-34.37523h48.07947v34.37523z" data-paper-data="{&quot;index&quot;:null}" fill="url(#color-1)" fill-rule="nonzero" stroke="none" stroke-width="0" stroke-linecap="butt" stroke-linejoin="miter"/><g data-paper-data="{&quot;index&quot;:null}" fill-rule="nonzero" stroke-linejoin="miter"><g fill="none" stroke="#51da7c" stroke-width="2" stroke-linecap="round"><path d="M94.44634,160.03705l3.61166,4.90079" data-paper-data="{&quot;index&quot;:null}"/><path d="M94.40407,160.0154l-3.78576,4.82178" data-paper-data="{&quot;index&quot;:null}"/><path d="M90.69002,164.91188l7.37379,0.1155" data-paper-data="{&quot;index&quot;:null}"/></g><path d="M91.42064,165.28249l2.96794,-4.94941l3.18132,4.73069z" fill="#51da7c" stroke="none" stroke-width="0" stroke-linecap="butt"/></g><path d="M114.83458,177.55416l44.25245,0.05761l-0.31066,4.51853h-43.95433z" data-paper-data="{&quot;index&quot;:null}" fill="#000000" fill-rule="evenodd" stroke="none" stroke-width="1" stroke-linecap="round" stroke-linejoin="round" opacity="0.21849"/></g></g></svg>