<svg width="480px" height="360px" xmlns="http://www.w3.org/2000/svg"><path fill="#F00" d="M246.659 183.707L245.561 183.707Q244.122 183.707 243.415 183.024Q242.707 182.341 242.707 180.463L242.707 180.463Q242.707 179.805 242.744 179.207Q242.780 178.610 242.817 178.049Q242.854 177.488 242.890 176.927Q242.927 176.366 242.927 175.756L242.927 175.756Q242.927 175.390 242.829 175.061Q242.732 174.732 242.500 174.463Q242.268 174.195 241.854 174.024Q241.439 173.854 240.829 173.854L240.829 173.854L240.829 172.585Q241.439 172.585 241.854 172.415Q242.268 172.244 242.500 171.988Q242.732 171.732 242.829 171.390Q242.927 171.049 242.927 170.707L242.927 170.707Q242.927 169.463 242.817 168.390Q242.707 167.317 242.707 165.976L242.707 165.976Q242.707 164.098 243.415 163.415Q244.122 162.732 245.561 162.732L245.561 162.732L246.659 162.732L246.659 163.878L246 163.878Q245 163.878 244.671 164.390Q244.341 164.902 244.341 166.098L244.341 166.098Q244.341 167.220 244.415 168.244Q244.488 169.268 244.488 170.512L244.488 170.512Q244.488 171.707 244.146 172.329Q243.805 172.951 243.024 173.171L243.024 173.171L243.024 173.268Q243.805 173.488 244.146 174.122Q244.488 174.756 244.488 175.927L244.488 175.927Q244.488 177.171 244.415 178.195Q244.341 179.220 244.341 180.341L244.341 180.341Q244.341 181.537 244.671 182.049Q245 182.561 246 182.561L246 182.561L246.659 182.561L246.659 183.707Z"/></svg>