<svg version="1.1" xmlns="http://www.w3.org/2000/svg" xmlns:xlink="http://www.w3.org/1999/xlink" width="187.19346" height="306.37335" viewBox="0,0,187.19346,306.37335"><g transform="translate(-191.60852,80.11687)"><g data-paper-data="{&quot;isPaintingLayer&quot;:true}" fill-rule="nonzero" stroke="none" stroke-width="0" stroke-linecap="butt" stroke-linejoin="miter" stroke-miterlimit="10" stroke-dasharray="" stroke-dashoffset="0" style="mix-blend-mode: normal"><path d="M214.24834,216.43973l-5.5,0.00219l-0.01578,-123.46631l5.5,-0.00221z" data-paper-data="{&quot;index&quot;:null}" fill="#ffffff"/><path d="M270.28972,211.12408v5.5h-60.57943v-5.5z" fill="#ffffff"/><path d="M275.21407,216.74809l-5.5,0.00091l-0.01578,-51.56554l5.5,-0.00092z" data-paper-data="{&quot;index&quot;:null}" fill="#ffffff"/><path d="M191.60853,226.25647v-299.28206h187.19346v299.28207z" fill="none"/><path d="M214.60302,4.15399l3.88986,-3.88832l43.12709,43.14941l-3.88986,3.88832z" data-paper-data="{&quot;index&quot;:null}" fill="#ffffff"/><path d="M369.12519,160.96505l0.00176,5.5l-99.57848,0.01578l-0.00178,-5.5z" data-paper-data="{&quot;index&quot;:null}" fill="#ffffff"/><path d="M369.23236,166.37452l-5.5,0.00091l-0.01578,-51.56554l5.5,-0.00092z" data-paper-data="{&quot;index&quot;:null}" fill="#ffffff"/><path d="M369.21953,109.54007l0.00091,5.5l-51.56554,0.01578l-0.00092,-5.5z" data-paper-data="{&quot;index&quot;:null}" fill="#ffffff"/><path d="M319.20925,114.94842l-5.5,0.00203l-0.01578,-114.44729l5.5,-0.00204z" data-paper-data="{&quot;index&quot;:null}" fill="#ffffff"/><path d="M260.31818,89.30654l0.00092,5.5l-51.56554,0.01578l-0.00092,-5.5z" data-paper-data="{&quot;index&quot;:null}" fill="#ffffff"/><path d="M261.47587,94.71601l-5.5,0.00091l-0.01578,-51.56554l5.5,-0.00092z" data-paper-data="{&quot;index&quot;:null}" fill="#ffffff"/><path d="M219.82368,4.47996l-5.5,0.00118l-0.01578,-84.45351l5.5,-0.00119z" data-paper-data="{&quot;index&quot;:null}" fill="#ffffff"/><path d="M319.19701,-1.47882l0.00091,5.5l-51.56554,0.01578l-0.00092,-5.5z" data-paper-data="{&quot;index&quot;:null}" fill="#ffffff"/><path d="M271.67142,3.89975l-5.5,0.00117l-0.01578,-83.98317l5.5,-0.00118z" data-paper-data="{&quot;index&quot;:null}" fill="#ffffff"/><path d="M269.19306,-80.11687l0.00097,5.5l-54.62271,0.01578l-0.00097,-5.5z" data-paper-data="{&quot;index&quot;:null}" fill="#ffffff"/></g></g></svg>