<svg width="480px" height="360px" xmlns="http://www.w3.org/2000/svg"><path fill="#F00" d="M244.575 175.590L243.163 175.590L243.163 174.999Q243.163 173.718 243.557 172.892Q243.951 172.066 245.023 171.146L245.023 171.146Q246.512 169.888 246.900 169.253Q247.289 168.618 247.289 167.721L247.289 167.721Q247.289 166.605 246.572 165.997Q245.855 165.390 244.509 165.390L244.509 165.390Q243.644 165.390 242.824 165.592Q242.003 165.795 240.941 166.331L240.941 166.331L240.295 164.854Q242.364 163.770 244.618 163.770L244.618 163.770Q246.709 163.770 247.869 164.799Q249.029 165.828 249.029 167.699L249.029 167.699Q249.029 168.498 248.815 169.105Q248.602 169.713 248.186 170.254Q247.770 170.796 246.391 172L246.391 172Q245.286 172.941 244.930 173.565Q244.575 174.189 244.575 175.228L244.575 175.228L244.575 175.590ZM242.627 178.840L242.627 178.840Q242.627 177.352 243.940 177.352L243.940 177.352Q244.575 177.352 244.919 177.735Q245.264 178.118 245.264 178.840L245.264 178.840Q245.264 179.540 244.914 179.929Q244.564 180.317 243.940 180.317L243.940 180.317Q243.371 180.317 242.999 179.973Q242.627 179.628 242.627 178.840Z"/></svg>