<svg width="480px" height="360px" xmlns="http://www.w3.org/2000/svg"><path fill="#F00" d="M244.512 180.293L244.512 180.293Q243.732 180.293 243.195 180.085Q242.659 179.878 242.317 179.524Q241.976 179.171 241.829 178.695Q241.683 178.220 241.683 177.659L241.683 177.659Q241.683 177.293 241.720 176.988Q241.756 176.683 241.805 176.341L241.805 176.341L243.195 169.659L241.463 169.659L241.732 168.268L243.585 168.146L244.463 164.878L246.049 164.878L245.390 168.146L248.390 168.146L248.098 169.659L245.049 169.659L243.659 176.439Q243.585 176.878 243.585 177.317L243.585 177.317Q243.585 178.049 243.915 178.415Q244.244 178.780 245.098 178.780L245.098 178.780Q245.439 178.780 245.756 178.659Q246.073 178.537 246.341 178.415L246.341 178.415L246.756 179.756Q246.341 179.951 245.780 180.122Q245.220 180.293 244.512 180.293Z"/></svg>