<svg width="480px" height="360px" xmlns="http://www.w3.org/2000/svg"><path fill="#F00" d="M246.601 180L241.890 180L241.890 164L246.405 164Q248.245 164 249.718 164.466Q251.190 164.933 252.245 165.902Q253.301 166.871 253.865 168.368Q254.429 169.865 254.429 171.926L254.429 171.926Q254.429 173.988 253.865 175.509Q253.301 177.031 252.270 178.025Q251.239 179.018 249.804 179.509Q248.368 180 246.601 180L246.601 180ZM245.497 166.920L245.497 177.080L246.184 177.080Q247.215 177.080 248.049 176.810Q248.883 176.540 249.472 175.939Q250.061 175.337 250.393 174.356Q250.724 173.374 250.724 171.926L250.724 171.926Q250.724 170.503 250.393 169.534Q250.061 168.564 249.472 167.988Q248.883 167.411 248.049 167.166Q247.215 166.920 246.184 166.920L246.184 166.920L245.497 166.920Z"/></svg>