<svg width="480px" height="360px" xmlns="http://www.w3.org/2000/svg"><path fill="#F00" d="M245.939 180.294L245.939 180.294Q244.638 180.294 243.644 179.926Q242.650 179.558 241.975 178.933Q241.301 178.307 240.957 177.485Q240.613 176.663 240.613 175.730L240.613 175.730Q240.613 174.896 240.847 174.221Q241.080 173.546 241.485 173.006Q241.890 172.466 242.417 172.025Q242.945 171.583 243.534 171.215L243.534 171.215Q243.067 170.356 242.810 169.509Q242.552 168.663 242.552 167.902L242.552 167.902Q242.552 167.043 242.859 166.282Q243.166 165.521 243.730 164.945Q244.294 164.368 245.092 164.037Q245.890 163.706 246.896 163.706L246.896 163.706Q248.712 163.706 249.767 164.687Q250.822 165.669 250.822 167.337L250.822 167.337Q250.822 168.123 250.540 168.773Q250.258 169.423 249.779 169.975Q249.301 170.528 248.699 170.994Q248.098 171.460 247.485 171.877L247.485 171.877Q248.172 172.663 248.994 173.411Q249.816 174.160 250.699 174.798L250.699 174.798Q251.313 174.012 251.779 173.055Q252.245 172.098 252.540 170.969L252.540 170.969L255.828 170.969Q255.387 172.442 254.736 173.779Q254.086 175.117 253.153 176.368L253.153 176.368Q253.914 176.761 254.613 177.018Q255.313 177.276 255.926 177.374L255.926 177.374L255.067 180.294Q254.061 180.098 253.031 179.681Q252 179.264 250.969 178.675L250.969 178.675Q249.939 179.436 248.699 179.865Q247.460 180.294 245.939 180.294ZM245.521 167.877L245.521 167.877Q245.521 168.319 245.656 168.810Q245.791 169.301 246.037 169.791L246.037 169.791Q246.896 169.276 247.485 168.712Q248.074 168.147 248.074 167.337L248.074 167.337Q248.074 166.773 247.804 166.429Q247.534 166.086 246.969 166.086L246.969 166.086Q246.356 166.086 245.939 166.564Q245.521 167.043 245.521 167.877ZM246.405 177.546L246.405 177.546Q247.411 177.546 248.417 176.908L248.417 176.908Q247.485 176.147 246.650 175.313Q245.816 174.479 245.104 173.595L245.104 173.595Q244.613 174.012 244.319 174.479Q244.025 174.945 244.025 175.509L244.025 175.509Q244.025 176.417 244.675 176.982Q245.325 177.546 246.405 177.546Z"/></svg>