<svg width="480px" height="360px" xmlns="http://www.w3.org/2000/svg"><path fill="#F00" d="M245.202 180L241.595 180L241.595 167.828L244.540 167.828L244.785 169.399L244.883 169.399Q245.644 168.638 246.503 168.086Q247.362 167.534 248.564 167.534L248.564 167.534Q249.865 167.534 250.663 168.061Q251.460 168.589 251.926 169.571L251.926 169.571Q252.736 168.736 253.632 168.135Q254.528 167.534 255.755 167.534L255.755 167.534Q257.718 167.534 258.638 168.847Q259.558 170.160 259.558 172.442L259.558 172.442L259.558 180L255.951 180L255.951 172.908Q255.951 171.583 255.595 171.092Q255.239 170.601 254.454 170.601L254.454 170.601Q253.546 170.601 252.368 171.779L252.368 171.779L252.368 180L248.761 180L248.761 172.908Q248.761 171.583 248.405 171.092Q248.049 170.601 247.264 170.601L247.264 170.601Q246.331 170.601 245.202 171.779L245.202 171.779L245.202 180Z"/></svg>