<svg width="480px" height="360px" xmlns="http://www.w3.org/2000/svg"><path fill="#F00" d="M252.196 180L241.178 180L241.178 177.767Q242.282 177.276 243.031 176.307Q243.779 175.337 243.779 174.012L243.779 174.012Q243.779 173.840 243.767 173.681Q243.755 173.521 243.730 173.350L243.730 173.350L241.276 173.350L241.276 171.239L242.945 171.117L243.092 171.117Q242.920 170.626 242.810 170.135Q242.699 169.644 242.699 169.153L242.699 169.153Q242.699 168 243.092 167.067Q243.485 166.135 244.184 165.485Q244.883 164.834 245.840 164.479Q246.798 164.123 247.951 164.123L247.951 164.123Q249.325 164.123 250.344 164.638Q251.362 165.153 252.196 166.110L252.196 166.110L250.233 168.074Q249.816 167.558 249.350 167.301Q248.883 167.043 248.294 167.043L248.294 167.043Q247.313 167.043 246.736 167.607Q246.160 168.172 246.160 169.350L246.160 169.350Q246.160 169.791 246.233 170.233Q246.307 170.675 246.429 171.117L246.429 171.117L250.061 171.117L250.061 173.350L246.896 173.350Q246.920 173.521 246.933 173.681Q246.945 173.840 246.945 174.037L246.945 174.037Q246.945 174.920 246.687 175.558Q246.429 176.196 245.840 176.859L245.840 176.859L245.840 176.957L252.196 176.957L252.196 180Z"/></svg>