<svg width="480px" height="360px" xmlns="http://www.w3.org/2000/svg"><path fill="#F00" d="M251.699 171.978L251.699 171.978Q251.699 176.126 250.391 178.172Q249.083 180.219 246.391 180.219L246.391 180.219Q243.808 180.219 242.462 178.123Q241.116 176.027 241.116 171.978L241.116 171.978Q241.116 167.798 242.419 165.773Q243.721 163.748 246.391 163.748L246.391 163.748Q248.996 163.748 250.347 165.860Q251.699 167.973 251.699 171.978ZM242.955 171.978L242.955 171.978Q242.955 175.469 243.776 177.062Q244.596 178.654 246.391 178.654L246.391 178.654Q248.208 178.654 249.023 177.040Q249.839 175.425 249.839 171.978L249.839 171.978Q249.839 168.531 249.023 166.927Q248.208 165.324 246.391 165.324L246.391 165.324Q244.596 165.324 243.776 166.906Q242.955 168.487 242.955 171.978Z"/></svg>