<svg width="480px" height="360px" xmlns="http://www.w3.org/2000/svg"><path fill="#F00" d="M243.268 171.293L243.268 171.293Q242.732 171.293 242.427 170.951Q242.122 170.610 242.122 170.073L242.122 170.073Q242.122 169.439 242.585 168.902Q243.049 168.366 243.756 168.366L243.756 168.366Q244.293 168.366 244.585 168.720Q244.878 169.073 244.878 169.610L244.878 169.610Q244.878 170.244 244.427 170.768Q243.976 171.293 243.268 171.293ZM239.512 184L239.512 184L239.244 182.878Q240.415 182.439 241.098 181.707Q241.780 180.976 241.951 180.098L241.951 180.098L241.902 180.098Q241.341 180.098 240.988 179.793Q240.634 179.488 240.634 178.927L240.634 178.927Q240.634 178.317 241.061 177.841Q241.488 177.366 242.195 177.366L242.195 177.366Q242.829 177.366 243.171 177.805Q243.512 178.244 243.512 178.976L243.512 178.976Q243.512 180.780 242.415 182.134Q241.317 183.488 239.512 184Z"/></svg>