<svg width="480px" height="360px" xmlns="http://www.w3.org/2000/svg"><path fill="#F00" d="M246.049 180.293L246.049 180.293Q243.805 180.293 242.476 178.683Q241.146 177.073 241.146 174.098L241.146 174.098Q241.146 172.659 241.573 171.500Q242 170.341 242.707 169.537Q243.415 168.732 244.341 168.293Q245.268 167.854 246.293 167.854L246.293 167.854Q247.317 167.854 248.073 168.220Q248.829 168.585 249.610 169.220L249.610 169.220L249.512 167.195L249.512 162.634L251.537 162.634L251.537 180L249.878 180L249.707 178.610L249.634 178.610Q248.927 179.293 248.012 179.793Q247.098 180.293 246.049 180.293ZM246.488 178.610L246.488 178.610Q247.317 178.610 248.049 178.207Q248.780 177.805 249.512 176.976L249.512 176.976L249.512 170.780Q248.756 170.098 248.061 169.817Q247.366 169.537 246.634 169.537L246.634 169.537Q245.927 169.537 245.305 169.866Q244.683 170.195 244.220 170.793Q243.756 171.390 243.488 172.220Q243.220 173.049 243.220 174.073L243.220 174.073Q243.220 176.220 244.073 177.415Q244.927 178.610 246.488 178.610Z"/></svg>