<svg width="480px" height="360px" xmlns="http://www.w3.org/2000/svg"><path fill="#F00" d="M247.464 163.792L247.464 163.792Q249.543 163.792 251.404 164.711L251.404 164.711L250.736 166.167Q249.051 165.324 247.486 165.324L247.486 165.324Q246.140 165.324 245.456 166.003Q244.772 166.681 244.772 168.213L244.772 168.213L244.772 171.442L249.390 171.442L249.390 172.832L244.772 172.832L244.772 175.250Q244.772 176.345 244.416 177.089Q244.060 177.833 243.250 178.315L243.250 178.315L251.951 178.315L251.951 180L240.689 180L240.689 178.457Q242.933 177.943 242.933 175.272L242.933 175.272L242.933 172.832L240.766 172.832L240.766 171.442L242.933 171.442L242.933 167.984Q242.933 166.036 244.159 164.914Q245.384 163.792 247.464 163.792Z"/></svg>