<svg width="480px" height="360px" xmlns="http://www.w3.org/2000/svg"><path fill="#F00" d="M242.512 180L240.366 180L245.024 171.732L240.683 164L242.927 164L245.098 168.098Q245.415 168.659 245.695 169.183Q245.976 169.707 246.341 170.415L246.341 170.415L246.439 170.415Q246.780 169.707 247.037 169.183Q247.293 168.659 247.585 168.098L247.585 168.098L249.707 164L251.854 164L247.488 171.829L252.146 180L249.902 180L247.561 175.683Q247.244 175.098 246.915 174.476Q246.585 173.854 246.195 173.122L246.195 173.122L246.098 173.122Q245.756 173.854 245.439 174.476Q245.122 175.098 244.829 175.683L244.829 175.683L242.512 180Z"/></svg>