<svg width="480px" height="360px" xmlns="http://www.w3.org/2000/svg"><path fill="#F00" d="M246.945 174.331L243.779 174.331Q243.656 173.497 243.840 172.810Q244.025 172.123 244.368 171.534Q244.712 170.945 245.141 170.454Q245.571 169.963 245.963 169.509Q246.356 169.055 246.613 168.626Q246.871 168.196 246.871 167.730L246.871 167.730Q246.871 166.969 246.417 166.577Q245.963 166.184 245.227 166.184L245.227 166.184Q244.540 166.184 244.012 166.503Q243.485 166.822 242.994 167.313L242.994 167.313L241.006 165.497Q241.865 164.491 243.055 163.877Q244.245 163.264 245.693 163.264L245.693 163.264Q246.675 163.264 247.521 163.509Q248.368 163.755 248.994 164.270Q249.620 164.785 249.975 165.583Q250.331 166.380 250.331 167.460L250.331 167.460Q250.331 168.221 250.061 168.822Q249.791 169.423 249.387 169.939Q248.982 170.454 248.528 170.933Q248.074 171.411 247.693 171.926Q247.313 172.442 247.092 173.018Q246.871 173.595 246.945 174.331L246.945 174.331ZM245.350 180.294L245.350 180.294Q244.417 180.294 243.804 179.644Q243.190 178.994 243.190 178.037L243.190 178.037Q243.190 177.055 243.804 176.405Q244.417 175.755 245.350 175.755L245.350 175.755Q246.282 175.755 246.908 176.405Q247.534 177.055 247.534 178.037L247.534 178.037Q247.534 178.994 246.908 179.644Q246.282 180.294 245.350 180.294Z"/></svg>