<svg width="480px" height="360px" xmlns="http://www.w3.org/2000/svg"><path fill="#F00" d="M246.537 180.293L246.537 180.293Q245.390 180.293 244.415 179.829Q243.439 179.366 242.720 178.427Q242 177.488 241.585 176.085Q241.171 174.683 241.171 172.805L241.171 172.805Q241.171 170.463 241.659 168.817Q242.146 167.171 242.976 166.134Q243.805 165.098 244.866 164.622Q245.927 164.146 247.098 164.146L247.098 164.146Q248.366 164.146 249.280 164.622Q250.195 165.098 250.854 165.805L250.854 165.805L249.732 167.049Q249.244 166.488 248.573 166.159Q247.902 165.829 247.171 165.829L247.171 165.829Q246.366 165.829 245.634 166.171Q244.902 166.512 244.341 167.293Q243.780 168.073 243.439 169.329Q243.098 170.585 243.073 172.439L243.073 172.439Q243.805 171.537 244.780 171.012Q245.756 170.488 246.707 170.488L246.707 170.488Q248.732 170.488 249.939 171.683Q251.146 172.878 251.146 175.293L251.146 175.293Q251.146 176.415 250.780 177.329Q250.415 178.244 249.780 178.902Q249.146 179.561 248.317 179.927Q247.488 180.293 246.537 180.293ZM246.537 178.707L246.537 178.707Q247.122 178.707 247.610 178.463Q248.098 178.220 248.463 177.768Q248.829 177.317 249.037 176.695Q249.244 176.073 249.244 175.293L249.244 175.293Q249.244 173.756 248.537 172.878Q247.829 172 246.366 172L246.366 172Q245.610 172 244.732 172.476Q243.854 172.951 243.122 174.049L243.122 174.049Q243.317 176.341 244.183 177.524Q245.049 178.707 246.537 178.707Z"/></svg>