<svg width="480px" height="360px" xmlns="http://www.w3.org/2000/svg"><path fill="#F00" d="M239.854 183.707L238.732 183.707L238.951 182.610L239.585 182.610Q240.561 182.610 240.988 182.073Q241.415 181.537 241.634 180.341L241.634 180.341Q241.829 179.293 242 178.195Q242.171 177.098 242.366 175.951L242.366 175.951Q242.634 174.732 243.098 174.073Q243.561 173.415 244.415 173.195L244.415 173.195L244.415 173.098Q243.805 172.902 243.573 172.524Q243.341 172.146 243.341 171.610L243.341 171.610Q243.341 170.976 243.537 170.085Q243.732 169.195 243.976 168.268Q244.220 167.341 244.415 166.488Q244.610 165.634 244.610 165.049L244.610 165.049Q244.610 164.415 244.341 164.122Q244.073 163.829 243.293 163.829L243.293 163.829L242.683 163.829L242.927 162.732L244 162.732Q245.171 162.732 245.671 163.207Q246.171 163.683 246.171 164.683L246.171 164.683Q246.171 165.366 245.963 166.280Q245.756 167.195 245.500 168.122Q245.244 169.049 245.037 169.902Q244.829 170.756 244.829 171.293L244.829 171.293Q244.829 171.537 244.902 171.768Q244.976 172 245.159 172.183Q245.341 172.366 245.671 172.488Q246 172.610 246.537 172.610L246.537 172.610L246.268 173.829Q245.634 173.829 245.207 174Q244.780 174.171 244.500 174.451Q244.220 174.732 244.085 175.073Q243.951 175.415 243.878 175.756L243.878 175.756Q243.659 176.927 243.524 178.061Q243.390 179.195 243.122 180.463L243.122 180.463Q242.927 181.415 242.659 182.037Q242.390 182.659 242.012 183.024Q241.634 183.390 241.098 183.549Q240.561 183.707 239.854 183.707L239.854 183.707Z"/></svg>