<svg width="480px" height="360px" xmlns="http://www.w3.org/2000/svg"><path fill="#F00" d="M244.366 180.293L244.366 180.293Q242.805 180.293 241.878 179.195Q240.951 178.098 240.951 176L240.951 176Q240.951 174.293 241.488 172.805Q242.024 171.317 242.927 170.220Q243.829 169.122 244.976 168.488Q246.122 167.854 247.366 167.854L247.366 167.854Q248.317 167.854 249.061 168.341Q249.805 168.829 250.220 169.634L250.220 169.634L250.317 169.634L250.780 168.146L252.293 168.146L249.927 180L248.390 180L248.585 178.244L248.488 178.244Q247.634 179.171 246.561 179.732Q245.488 180.293 244.366 180.293ZM245.049 178.732L245.049 178.732Q245.976 178.732 246.939 178.183Q247.902 177.634 248.780 176.463L248.780 176.463L249.854 171.171Q249.341 170.244 248.732 169.829Q248.122 169.415 247.439 169.415L247.439 169.415Q246.561 169.415 245.732 169.939Q244.902 170.463 244.268 171.341Q243.634 172.220 243.256 173.354Q242.878 174.488 242.878 175.707L242.878 175.707Q242.878 177.244 243.463 177.988Q244.049 178.732 245.049 178.732Z"/></svg>