<svg width="480px" height="360px" xmlns="http://www.w3.org/2000/svg"><path fill="#F00" d="M250.627 175.765L250.627 177.373Q249.477 177.964 247.869 178.030L247.869 178.030L247.869 180.219L246.413 180.219L246.413 177.964Q244.192 177.614 243.135 176.120Q242.079 174.627 242.079 171.891L242.079 171.891Q242.079 166.331 246.413 165.653L246.413 165.653L246.413 163.770L247.891 163.770L247.891 165.565Q248.711 165.598 249.488 165.778Q250.265 165.959 250.802 166.211L250.802 166.211L250.265 167.743Q248.810 167.185 247.617 167.185L247.617 167.185Q245.735 167.185 244.848 168.339Q243.962 169.494 243.962 171.869L243.962 171.869Q243.962 174.189 244.832 175.300Q245.702 176.410 247.529 176.410L247.529 176.410Q249.073 176.410 250.627 175.765L250.627 175.765Z"/></svg>