<svg width="480px" height="360px" xmlns="http://www.w3.org/2000/svg"><path fill="#F00" d="M248.244 180.293L248.244 180.293Q246.732 180.293 245.463 179.732Q244.195 179.171 243.256 178.110Q242.317 177.049 241.793 175.500Q241.268 173.951 241.268 172L241.268 172Q241.268 170.073 241.805 168.537Q242.341 167 243.293 165.927Q244.244 164.854 245.537 164.280Q246.829 163.707 248.366 163.707L248.366 163.707Q249.829 163.707 250.939 164.305Q252.049 164.902 252.756 165.683L252.756 165.683L251.659 167Q251.024 166.317 250.220 165.902Q249.415 165.488 248.390 165.488L248.390 165.488Q247.244 165.488 246.317 165.939Q245.390 166.390 244.732 167.232Q244.073 168.073 243.720 169.268Q243.366 170.463 243.366 171.951L243.366 171.951Q243.366 173.463 243.720 174.671Q244.073 175.878 244.707 176.732Q245.341 177.585 246.256 178.049Q247.171 178.512 248.317 178.512L248.317 178.512Q249.488 178.512 250.366 178.037Q251.244 177.561 252.024 176.707L252.024 176.707L253.146 177.976Q252.195 179.073 251 179.683Q249.805 180.293 248.244 180.293Z"/></svg>