<svg width="480px" height="360px" xmlns="http://www.w3.org/2000/svg"><path fill="#F00" d="M248.393 180.294L248.393 180.294Q246.773 180.294 245.436 179.718Q244.098 179.141 243.141 178.061Q242.184 176.982 241.656 175.436Q241.129 173.890 241.129 171.926L241.129 171.926Q241.129 169.963 241.656 168.429Q242.184 166.896 243.141 165.853Q244.098 164.810 245.436 164.258Q246.773 163.706 248.393 163.706L248.393 163.706Q250.012 163.706 251.350 164.258Q252.687 164.810 253.644 165.865Q254.601 166.920 255.129 168.454Q255.656 169.988 255.656 171.926L255.656 171.926Q255.656 173.890 255.129 175.436Q254.601 176.982 253.644 178.061Q252.687 179.141 251.350 179.718Q250.012 180.294 248.393 180.294ZM248.393 177.178L248.393 177.178Q250.037 177.178 250.994 175.767Q251.951 174.356 251.951 171.926L251.951 171.926Q251.951 169.521 250.994 168.172Q250.037 166.822 248.393 166.822L248.393 166.822Q246.748 166.822 245.791 168.172Q244.834 169.521 244.834 171.926L244.834 171.926Q244.834 174.356 245.791 175.767Q246.748 177.178 248.393 177.178Z"/></svg>