<svg width="480px" height="360px" xmlns="http://www.w3.org/2000/svg"><path fill="#F00" d="M242.610 180L240.756 180L244.220 162.634L246.098 162.634L244.927 168.366L244.537 169.854L244.634 169.854Q245.659 169 246.634 168.427Q247.610 167.854 248.707 167.854L248.707 167.854Q250.220 167.854 250.866 168.634Q251.512 169.415 251.512 170.805L251.512 170.805Q251.512 171.220 251.476 171.585Q251.439 171.951 251.317 172.439L251.317 172.439L249.805 180L247.951 180L249.415 172.683Q249.512 172.195 249.561 171.902Q249.610 171.610 249.610 171.293L249.610 171.293Q249.610 170.390 249.195 169.927Q248.780 169.463 247.854 169.463L247.854 169.463Q247.146 169.463 246.280 169.976Q245.415 170.488 244.293 171.610L244.293 171.610L242.610 180Z"/></svg>