<svg width="480px" height="360px" xmlns="http://www.w3.org/2000/svg"><path fill="#F00" d="M249.237 173.280L249.237 171.617L254.676 171.617L254.676 179.398Q253.406 179.803 252.093 180.011Q250.780 180.219 249.051 180.219L249.051 180.219Q245.417 180.219 243.393 178.057Q241.368 175.896 241.368 172L241.368 172Q241.368 169.505 242.369 167.628Q243.371 165.751 245.253 164.761Q247.135 163.770 249.663 163.770L249.663 163.770Q252.224 163.770 254.435 164.711L254.435 164.711L253.713 166.353Q251.546 165.434 249.543 165.434L249.543 165.434Q246.621 165.434 244.979 167.174Q243.338 168.914 243.338 172L243.338 172Q243.338 175.239 244.919 176.914Q246.501 178.588 249.565 178.588L249.565 178.588Q251.228 178.588 252.815 178.205L252.815 178.205L252.815 173.280L249.237 173.280Z"/></svg>