<svg width="480px" height="360px" xmlns="http://www.w3.org/2000/svg"><path fill="#F00" d="M244.196 180L242.110 180L242.650 175.411L240.834 175.411L240.834 173.104L242.920 173.104L243.264 170.405L241.325 170.405L241.325 168.098L243.558 168.098L244.074 164.049L246.135 164.049L245.644 168.098L248.196 168.098L248.712 164.049L250.773 164.049L250.282 168.098L252.221 168.098L252.221 170.405L249.988 170.405L249.669 173.104L251.730 173.104L251.730 175.411L249.399 175.411L248.834 180L246.748 180L247.288 175.411L244.761 175.411L244.196 180ZM245.350 170.405L245.031 173.104L247.558 173.104L247.902 170.405L245.350 170.405Z"/></svg>