<svg width="480px" height="360px" xmlns="http://www.w3.org/2000/svg"><path fill="#F00" d="M245.756 180.293L245.756 180.293Q244.829 180.293 244.061 180.110Q243.293 179.927 242.659 179.622Q242.024 179.317 241.524 178.927Q241.024 178.537 240.634 178.098L240.634 178.098L241.659 176.780Q242.366 177.512 243.305 178.073Q244.244 178.634 245.634 178.634L245.634 178.634Q247.049 178.634 247.951 177.866Q248.854 177.098 248.854 175.780L248.854 175.780Q248.854 175.098 248.598 174.524Q248.341 173.951 247.756 173.537Q247.171 173.122 246.220 172.902Q245.268 172.683 243.878 172.683L243.878 172.683L243.878 171.146Q245.122 171.146 245.963 170.927Q246.805 170.707 247.329 170.317Q247.854 169.927 248.073 169.390Q248.293 168.854 248.293 168.244L248.293 168.244Q248.293 167.098 247.573 166.439Q246.854 165.780 245.610 165.780L245.610 165.780Q244.634 165.780 243.817 166.220Q243 166.659 242.293 167.366L242.293 167.366L241.220 166.098Q242.122 165.244 243.207 164.695Q244.293 164.146 245.683 164.146L245.683 164.146Q246.707 164.146 247.561 164.415Q248.415 164.683 249.037 165.183Q249.659 165.683 250 166.415Q250.341 167.146 250.341 168.098L250.341 168.098Q250.341 169.512 249.561 170.415Q248.780 171.317 247.512 171.805L247.512 171.805L247.512 171.902Q248.220 172.073 248.829 172.402Q249.439 172.732 249.902 173.232Q250.366 173.732 250.622 174.390Q250.878 175.049 250.878 175.854L250.878 175.854Q250.878 176.878 250.476 177.707Q250.073 178.537 249.378 179.110Q248.683 179.683 247.756 179.988Q246.829 180.293 245.756 180.293Z"/></svg>