<svg width="480px" height="360px" xmlns="http://www.w3.org/2000/svg"><path fill="#F00" d="M246.061 180.294L246.061 180.294Q244.147 180.294 242.822 179.669Q241.497 179.043 240.564 178.110L240.564 178.110L242.184 175.828Q242.896 176.466 243.718 176.920Q244.540 177.374 245.546 177.374L245.546 177.374Q246.748 177.374 247.460 176.761Q248.172 176.147 248.172 174.945L248.172 174.945Q248.172 173.767 247.497 173.153Q246.822 172.540 245.718 172.540L245.718 172.540Q245.374 172.540 245.104 172.577Q244.834 172.613 244.577 172.712Q244.319 172.810 244.037 172.957Q243.755 173.104 243.411 173.325L243.411 173.325L241.791 172.294L242.233 164.417L251.067 164.417L251.067 167.460L245.350 167.460L245.080 170.380Q245.521 170.184 245.926 170.098Q246.331 170.012 246.822 170.012L246.822 170.012Q247.828 170.012 248.724 170.307Q249.620 170.601 250.307 171.190Q250.994 171.779 251.387 172.687Q251.779 173.595 251.779 174.847L251.779 174.847Q251.779 176.147 251.313 177.153Q250.847 178.160 250.061 178.859Q249.276 179.558 248.233 179.926Q247.190 180.294 246.061 180.294Z"/></svg>