<svg width="480px" height="360px" xmlns="http://www.w3.org/2000/svg"><path fill="#F00" d="M241.390 167.185L241.390 167.185Q241.390 165.762 242.380 164.766Q243.371 163.770 244.793 163.770L244.793 163.770Q246.216 163.770 247.212 164.761Q248.208 165.751 248.208 167.185L248.208 167.185Q248.208 168.104 247.759 168.886Q247.311 169.669 246.512 170.129Q245.713 170.588 244.793 170.588L244.793 170.588Q243.371 170.588 242.380 169.603Q241.390 168.618 241.390 167.185ZM242.648 167.185L242.648 167.185Q242.648 168.082 243.289 168.706Q243.929 169.330 244.815 169.330L244.815 169.330Q245.691 169.330 246.320 168.711Q246.949 168.093 246.949 167.185L246.949 167.185Q246.949 166.265 246.331 165.647Q245.713 165.029 244.815 165.029L244.815 165.029Q243.907 165.029 243.278 165.653Q242.648 166.276 242.648 167.185Z"/></svg>