<svg version="1.1" xmlns="http://www.w3.org/2000/svg" xmlns:xlink="http://www.w3.org/1999/xlink" width="295.60107" height="249.82956" viewBox="0,0,295.60107,249.82956"><g transform="translate(-144.27527,-144.79511)"><g data-paper-data="{&quot;isPaintingLayer&quot;:true}" fill-rule="nonzero" stroke="none" stroke-width="0" stroke-linecap="butt" stroke-linejoin="miter" stroke-miterlimit="10" stroke-dasharray="" stroke-dashoffset="0" style="mix-blend-mode: normal"><path d="M144.27528,394.62467v-249.82956h295.60107v249.82956z" fill="none"/><path d="M266.62284,155.70946l5.5,-0.00227l0.01577,127.80774l-5.5,0.00227z" fill="#ffffff"/><path d="M211.598,160.72193l5.5,-0.00121l0.01578,68.1921l-5.5,0.00122z" fill="#ffffff"/><path d="M211.52233,161.16599v-5.5h60.57943v5.5z" fill="#ffffff"/><path d="M213.40926,225.09563l3.89011,3.88807l-57.31028,57.33259l-3.89011,-3.88806z" data-paper-data="{&quot;index&quot;:null}" fill="#ffffff"/><path d="M324.73861,278.12666v5.5h-57.9197v-5.5z" data-paper-data="{&quot;index&quot;:null}" fill="#ffffff"/><path d="M373.60893,327.25816l-3.88996,3.88821l-49.09383,-49.11614l3.88996,-3.88822z" data-paper-data="{&quot;index&quot;:null}" fill="#ffffff"/><path d="M369.79387,331.69344l0.00104,-5.5l58.77664,0.01577l-0.00104,5.5z" data-paper-data="{&quot;index&quot;:null}" fill="#ffffff"/><path d="M297.47659,382.46585l0.00226,-5.5l126.38871,0.01578l-0.00224,5.5z" data-paper-data="{&quot;index&quot;:null}" fill="#ffffff"/><path d="M423.11275,326.2303h5.5v56.327h-5.5z" data-paper-data="{&quot;index&quot;:null}" fill="#ffffff"/><path d="M155.79363,282.57367l5.5,-0.00115l0.01578,64.94014l-5.5,0.00116z" fill="#ffffff"/><path d="M302.60177,342.5604v5.5h-146.86862v-5.5z" data-paper-data="{&quot;index&quot;:null}" fill="#ffffff"/><path d="M297.03234,346.81505l5.5,-0.00057l0.01578,35.77018l-5.5,0.00057z" fill="#ffffff"/></g></g></svg>