<svg width="480px" height="360px" xmlns="http://www.w3.org/2000/svg"><path fill="#F00" d="M242.439 180L240.341 180L244.220 173.805L240.634 168.146L242.805 168.146L244.390 170.756Q244.659 171.244 244.951 171.744Q245.244 172.244 245.561 172.732L245.561 172.732L245.659 172.732Q245.927 172.244 246.195 171.744Q246.463 171.244 246.732 170.756L246.732 170.756L248.171 168.146L250.268 168.146L246.683 174.024L250.537 180L248.366 180L246.634 177.244Q246.317 176.707 246 176.171Q245.683 175.634 245.341 175.122L245.341 175.122L245.244 175.122Q244.927 175.634 244.634 176.159Q244.341 176.683 244.049 177.244L244.049 177.244L242.439 180Z"/></svg>