<svg width="480px" height="360px" xmlns="http://www.w3.org/2000/svg"><path fill="#F00" d="M249.415 180L240.098 180L240.317 178.878Q242.073 178.024 242.951 176.537Q243.829 175.049 243.829 173.293L243.829 173.293L243.829 173.098L241.488 173.098L241.756 171.780L243.732 171.659Q243.683 171.073 243.634 170.500Q243.585 169.927 243.585 169.439L243.585 169.439Q243.585 168.195 243.963 167.207Q244.341 166.220 245 165.524Q245.659 164.829 246.573 164.451Q247.488 164.073 248.561 164.073L248.561 164.073Q249.805 164.073 250.634 164.671Q251.463 165.268 251.976 166.098L251.976 166.098L250.707 167.098Q250.293 166.439 249.744 166.024Q249.195 165.610 248.463 165.610L248.463 165.610Q247.122 165.610 246.232 166.659Q245.341 167.707 245.341 169.561L245.341 169.561Q245.341 170.049 245.390 170.573Q245.439 171.098 245.488 171.659L245.488 171.659L249.268 171.659L248.976 173.098L245.561 173.098Q245.537 174.780 245.024 176.012Q244.512 177.244 243.415 178.293L243.415 178.293L243.390 178.390L249.707 178.390L249.415 180Z"/></svg>