<svg width="480px" height="360px" xmlns="http://www.w3.org/2000/svg"><path fill="#F00" d="M245.252 180.294L245.252 180.294Q243.264 180.294 242.368 178.994Q241.472 177.693 241.472 175.387L241.472 175.387L241.472 167.828L245.080 167.828L245.080 174.920Q245.080 176.245 245.448 176.736Q245.816 177.227 246.601 177.227L246.601 177.227Q247.288 177.227 247.755 176.908Q248.221 176.589 248.761 175.877L248.761 175.877L248.761 167.828L252.368 167.828L252.368 180L249.423 180L249.153 178.307L249.080 178.307Q248.294 179.239 247.399 179.767Q246.503 180.294 245.252 180.294Z"/></svg>