<svg width="480px" height="360px" xmlns="http://www.w3.org/2000/svg"><path fill="#F00" d="M247.595 168.005L251.743 168.005L251.743 169.155L249.521 169.417Q249.828 169.800 250.068 170.419Q250.309 171.037 250.309 171.814L250.309 171.814Q250.309 173.576 249.105 174.627Q247.902 175.677 245.800 175.677L245.800 175.677Q245.264 175.677 244.793 175.590L244.793 175.590Q243.633 176.202 243.633 177.133L243.633 177.133Q243.633 177.625 244.038 177.860Q244.443 178.096 245.428 178.096L245.428 178.096L247.551 178.096Q249.499 178.096 250.544 178.917Q251.590 179.737 251.590 181.302L251.590 181.302Q251.590 183.294 249.992 184.339Q248.394 185.384 245.330 185.384L245.330 185.384Q242.977 185.384 241.702 184.509Q240.427 183.633 240.427 182.036L240.427 182.036Q240.427 180.941 241.127 180.142Q241.828 179.343 243.097 179.059L243.097 179.059Q242.637 178.851 242.326 178.413Q242.014 177.975 242.014 177.395L242.014 177.395Q242.014 176.739 242.364 176.246Q242.714 175.754 243.469 175.294L243.469 175.294Q242.539 174.911 241.953 173.992Q241.368 173.073 241.368 171.891L241.368 171.891Q241.368 169.921 242.550 168.854Q243.732 167.787 245.899 167.787L245.899 167.787Q246.840 167.787 247.595 168.005L247.595 168.005ZM242.178 182.014L242.178 182.014Q242.178 182.988 242.999 183.491Q243.819 183.995 245.352 183.995L245.352 183.995Q247.639 183.995 248.739 183.311Q249.839 182.627 249.839 181.456L249.839 181.456Q249.839 180.482 249.237 180.104Q248.635 179.726 246.971 179.726L246.971 179.726L244.793 179.726Q243.557 179.726 242.867 180.317Q242.178 180.908 242.178 182.014ZM243.163 171.847L243.163 171.847Q243.163 173.105 243.874 173.751Q244.585 174.397 245.855 174.397L245.855 174.397Q248.514 174.397 248.514 171.814L248.514 171.814Q248.514 169.111 245.822 169.111L245.822 169.111Q244.542 169.111 243.852 169.800Q243.163 170.490 243.163 171.847Z"/></svg>