<svg width="480px" height="360px" xmlns="http://www.w3.org/2000/svg"><path fill="#F00" d="M244.488 173.707L244.488 173.707Q243.780 173.707 243.220 173.427Q242.659 173.146 242.280 172.646Q241.902 172.146 241.695 171.476Q241.488 170.805 241.488 170L241.488 170Q241.488 168.878 241.780 167.732Q242.073 166.585 242.646 165.659Q243.220 164.732 244.037 164.159Q244.854 163.585 245.927 163.585L245.927 163.585Q246.634 163.585 247.195 163.866Q247.756 164.146 248.134 164.646Q248.512 165.146 248.720 165.817Q248.927 166.488 248.927 167.293L248.927 167.293Q248.927 168.439 248.634 169.585Q248.341 170.732 247.768 171.646Q247.195 172.561 246.366 173.134Q245.537 173.707 244.488 173.707ZM244.610 172.488L244.610 172.488Q245.293 172.488 245.829 172.024Q246.366 171.561 246.732 170.829Q247.098 170.098 247.293 169.195Q247.488 168.293 247.488 167.415L247.488 167.415Q247.488 166.293 247.098 165.549Q246.707 164.805 245.805 164.805L245.805 164.805Q245.122 164.805 244.585 165.268Q244.049 165.732 243.683 166.476Q243.317 167.220 243.122 168.122Q242.927 169.024 242.927 169.902L242.927 169.902Q242.927 171.024 243.317 171.756Q243.707 172.488 244.610 172.488ZM244.537 180.293L243.268 180.293L255.073 163.610L256.341 163.610L244.537 180.293ZM253.902 180.293L253.902 180.293Q253.195 180.293 252.634 180.012Q252.073 179.732 251.695 179.232Q251.317 178.732 251.110 178.061Q250.902 177.390 250.902 176.585L250.902 176.585Q250.902 175.463 251.195 174.317Q251.488 173.171 252.061 172.244Q252.634 171.317 253.451 170.744Q254.268 170.171 255.341 170.171L255.341 170.171Q256.049 170.171 256.610 170.451Q257.171 170.732 257.549 171.232Q257.927 171.732 258.134 172.402Q258.341 173.073 258.341 173.878L258.341 173.878Q258.341 175.024 258.049 176.171Q257.756 177.317 257.183 178.232Q256.610 179.146 255.780 179.720Q254.951 180.293 253.902 180.293ZM254.024 179.073L254.024 179.073Q254.707 179.073 255.244 178.610Q255.780 178.146 256.146 177.415Q256.512 176.683 256.707 175.780Q256.902 174.878 256.902 174L256.902 174Q256.902 172.878 256.512 172.134Q256.122 171.390 255.220 171.390L255.220 171.390Q254.537 171.390 254 171.854Q253.463 172.317 253.098 173.061Q252.732 173.805 252.537 174.707Q252.341 175.610 252.341 176.488L252.341 176.488Q252.341 177.610 252.732 178.341Q253.122 179.073 254.024 179.073Z"/></svg>