<svg width="480px" height="360px" xmlns="http://www.w3.org/2000/svg"><path fill="#F00" d="M243.699 172.197L243.699 172.197Q243.119 172.197 242.424 172.564Q241.729 172.930 241.138 173.521L241.138 173.521L241.138 171.869Q242.233 170.676 243.808 170.676L243.808 170.676Q244.553 170.676 245.171 170.829Q245.789 170.982 246.763 171.398L246.763 171.398Q247.486 171.705 248.022 171.852Q248.558 172 249.073 172L249.073 172Q249.663 172 250.364 171.650Q251.064 171.300 251.655 170.676L251.655 170.676L251.655 172.317Q250.539 173.521 248.985 173.521L248.985 173.521Q248.197 173.521 247.508 173.341Q246.818 173.160 246.030 172.810L246.030 172.810Q245.209 172.460 244.717 172.328Q244.224 172.197 243.699 172.197Z"/></svg>