<svg width="480px" height="360px" xmlns="http://www.w3.org/2000/svg"><path fill="#F00" d="M247.755 180L243.632 180L240.589 167.828L244.172 167.828L245.350 173.472Q245.497 174.380 245.620 175.264Q245.742 176.147 245.890 177.080L245.890 177.080L245.988 177.080Q246.160 176.147 246.319 175.239Q246.479 174.331 246.699 173.472L246.699 173.472L248.049 167.828L251.166 167.828L252.540 173.472Q252.761 174.380 252.933 175.264Q253.104 176.147 253.301 177.080L253.301 177.080L253.399 177.080Q253.571 176.147 253.681 175.264Q253.791 174.380 253.963 173.472L253.963 173.472L255.117 167.828L258.454 167.828L255.534 180L251.313 180L250.209 175.141Q250.012 174.282 249.865 173.423Q249.718 172.564 249.546 171.583L249.546 171.583L249.448 171.583Q249.276 172.564 249.141 173.423Q249.006 174.282 248.834 175.141L248.834 175.141L247.755 180Z"/></svg>