<svg width="480px" height="360px" xmlns="http://www.w3.org/2000/svg"><path fill="#F00" d="M242.195 180L240.927 180L242.512 175L240.585 175L240.902 173.659L242.902 173.659L244.024 170L242.073 170L242.415 168.659L244.463 168.659L245.902 164.146L247.146 164.146L245.732 168.659L248.780 168.659L250.220 164.146L251.463 164.146L250.049 168.659L251.976 168.659L251.634 170L249.634 170L248.512 173.659L250.488 173.659L250.146 175L248.073 175L246.512 180L245.244 180L246.829 175L243.756 175L242.195 180ZM245.293 170L244.171 173.659L247.268 173.659L248.390 170L245.293 170Z"/></svg>