<svg version="1.1" xmlns="http://www.w3.org/2000/svg" xmlns:xlink="http://www.w3.org/1999/xlink" width="250.64884" height="275.10632" viewBox="0,0,250.64884,275.10632"><defs><linearGradient x1="333.15305" y1="136.85292" x2="266.49485" y2="136.85292" gradientUnits="userSpaceOnUse" id="color-1"><stop offset="0" stop-color="#02ca41" stop-opacity="0"/><stop offset="1" stop-color="#02ca41"/></linearGradient></defs><g transform="translate(-211.43072,-102.00652)"><g data-paper-data="{&quot;isPaintingLayer&quot;:true}" stroke-miterlimit="10" stroke-dasharray="" stroke-dashoffset="0" style="mix-blend-mode: normal"><path d="M212.06201,209.65854v-67.29609l42.90514,-40.35593l113.6285,0.09147l-0.32796,46.96125l43.08747,43.80833l47.76434,-0.11311l0.09491,98.07315l-72.2796,-0.03696l-1.44978,81.50471l-112.6664,-2.13621l2.7715,-57.72674l39.28763,-38.80957l-1.4952,-108.29081l-44.02144,-0.41119l-1.23928,44.7377z" fill="#04b33b" fill-rule="nonzero" stroke="none" stroke-width="0" stroke-linecap="butt" stroke-linejoin="miter"/><path d="M267.84917,166.46613h46.9543v4.51852h-46.95429z" fill="#000000" fill-rule="evenodd" stroke="none" stroke-width="1" stroke-linecap="round" stroke-linejoin="round" opacity="0.21849"/><path d="M211.43073,209.86696h60.64159v4.51853h-60.64159z" fill="#000000" fill-rule="evenodd" stroke="none" stroke-width="1" stroke-linecap="round" stroke-linejoin="round" opacity="0.21849"/><path d="M409.60827,194.66941l-1.59127,3.6225l-41.37493,-41.54624l-0.1983,-4.70009z" fill="#000000" fill-rule="evenodd" stroke="none" stroke-width="1" stroke-linecap="round" stroke-linejoin="round" opacity="0.21849"/><path d="M256.32439,102.98504l1.38573,4.42343l-41.31799,41.17076l-2.71249,-3.02174z" data-paper-data="{&quot;index&quot;:null}" fill="#000000" fill-rule="evenodd" stroke="none" stroke-width="1" stroke-linecap="round" stroke-linejoin="round" opacity="0.21849"/><path d="M409.24661,194.60851l49.88187,-0.94716v4.51852l-51.36669,-0.08919z" fill="#000000" fill-rule="evenodd" stroke="none" stroke-width="1" stroke-linecap="round" stroke-linejoin="round" opacity="0.21849"/><path d="M317.04125,273.40348l-0.1983,4.70009l-41.37494,41.54625l-1.59126,-3.6225z" data-paper-data="{&quot;index&quot;:null}" fill="#000000" fill-rule="evenodd" stroke="none" stroke-width="1" stroke-linecap="round" stroke-linejoin="round" opacity="0.21849"/><path d="M270.26078,372.59431h117.57726v4.51853h-117.57725z" fill="#000000" fill-rule="evenodd" stroke="none" stroke-width="1" stroke-linecap="round" stroke-linejoin="round" opacity="0.21849"/><path d="M387.88254,291.80437h74.19703v4.51853h-74.19703z" fill="#000000" fill-rule="evenodd" stroke="none" stroke-width="1" stroke-linecap="round" stroke-linejoin="round" opacity="0.21849"/><path d="M266.49485,107.18208h48.56748v59.3417h-48.56748z" data-paper-data="{&quot;index&quot;:null}" fill="url(#color-1)" fill-rule="nonzero" stroke="none" stroke-width="0" stroke-linecap="butt" stroke-linejoin="miter"/><path d="M256.25889,102.50105h114.09701v4.51853l-112.87824,0.05761z" data-paper-data="{&quot;index&quot;:null}" fill="#000000" fill-rule="evenodd" stroke="none" stroke-width="1" stroke-linecap="round" stroke-linejoin="round" opacity="0.21849"/><g fill-rule="nonzero" stroke-linejoin="miter"><g fill="none" stroke="#51da7c" stroke-width="2" stroke-linecap="round"><path d="M292.81752,137.32151l-4.90079,-3.61166" data-paper-data="{&quot;index&quot;:null}"/><path d="M292.83918,137.36378l-4.82178,3.78576" data-paper-data="{&quot;index&quot;:null}"/><path d="M287.9427,141.07783l-0.1155,-7.37379" data-paper-data="{&quot;index&quot;:null}"/></g><path d="M287.7908,134.19795l4.73069,3.18132l-4.94941,2.96794z" fill="#51da7c" stroke="none" stroke-width="0" stroke-linecap="butt"/></g></g></g></svg>