<svg width="480px" height="360px" xmlns="http://www.w3.org/2000/svg"><path fill="#F00" d="M247.508 180.219L247.508 180.219Q246.337 180.219 245.368 179.787Q244.399 179.354 243.743 178.457L243.743 178.457L243.611 178.457Q243.743 179.508 243.743 180.449L243.743 180.449L243.743 185.384L241.926 185.384L241.926 168.005L243.404 168.005L243.655 169.647L243.743 169.647Q244.443 168.662 245.373 168.224Q246.304 167.787 247.508 167.787L247.508 167.787Q249.893 167.787 251.190 169.417Q252.487 171.048 252.487 173.992L252.487 173.992Q252.487 176.947 251.168 178.583Q249.850 180.219 247.508 180.219ZM247.245 169.330L247.245 169.330Q245.406 169.330 244.585 170.347Q243.765 171.365 243.743 173.587L243.743 173.587L243.743 173.992Q243.743 176.520 244.585 177.609Q245.428 178.698 247.289 178.698L247.289 178.698Q248.843 178.698 249.724 177.439Q250.605 176.181 250.605 173.970L250.605 173.970Q250.605 171.726 249.724 170.528Q248.843 169.330 247.245 169.330Z"/></svg>