<svg width="480px" height="360px" xmlns="http://www.w3.org/2000/svg"><path fill="#F00" d="M246.634 180.293L246.634 180.293Q244.951 180.293 243.512 179.659Q242.073 179.024 241.024 177.927L241.024 177.927L242.244 176.512Q243.098 177.415 244.256 177.963Q245.415 178.512 246.659 178.512L246.659 178.512Q248.244 178.512 249.122 177.793Q250 177.073 250 175.902L250 175.902Q250 175.293 249.793 174.866Q249.585 174.439 249.232 174.134Q248.878 173.829 248.390 173.585Q247.902 173.341 247.341 173.073L247.341 173.073L245.049 172.073Q244.488 171.829 243.902 171.488Q243.317 171.146 242.854 170.659Q242.390 170.171 242.098 169.500Q241.805 168.829 241.805 167.951L241.805 167.951Q241.805 167.049 242.183 166.268Q242.561 165.488 243.232 164.915Q243.902 164.341 244.817 164.024Q245.732 163.707 246.829 163.707L246.829 163.707Q248.268 163.707 249.488 164.256Q250.707 164.805 251.561 165.683L251.561 165.683L250.463 167Q249.732 166.293 248.841 165.890Q247.951 165.488 246.829 165.488L246.829 165.488Q245.488 165.488 244.671 166.110Q243.854 166.732 243.854 167.829L243.854 167.829Q243.854 168.415 244.085 168.817Q244.317 169.220 244.707 169.524Q245.098 169.829 245.561 170.061Q246.024 170.293 246.512 170.488L246.512 170.488L248.780 171.463Q249.463 171.756 250.073 172.134Q250.683 172.512 251.122 173.012Q251.561 173.512 251.817 174.183Q252.073 174.854 252.073 175.732L252.073 175.732Q252.073 176.683 251.695 177.512Q251.317 178.341 250.610 178.963Q249.902 179.585 248.902 179.939Q247.902 180.293 246.634 180.293Z"/></svg>