<svg width="480px" height="360px" xmlns="http://www.w3.org/2000/svg"><path fill="#F00" d="M248.098 173.659L248.098 173.659Q247.439 173.659 246.890 173.329Q246.341 173 245.841 172.610Q245.341 172.220 244.890 171.890Q244.439 171.561 243.951 171.561L243.951 171.561Q243.415 171.561 242.988 171.915Q242.561 172.268 242.146 173.049L242.146 173.049L241.098 172.366Q241.707 171.220 242.476 170.707Q243.244 170.195 244 170.195L244 170.195Q244.659 170.195 245.207 170.524Q245.756 170.854 246.256 171.244Q246.756 171.634 247.207 171.963Q247.659 172.293 248.146 172.293L248.146 172.293Q248.683 172.293 249.110 171.939Q249.537 171.585 249.951 170.805L249.951 170.805L251 171.488Q250.390 172.634 249.622 173.146Q248.854 173.659 248.098 173.659Z"/></svg>