<svg width="480px" height="360px" xmlns="http://www.w3.org/2000/svg"><path fill="#F00" d="M244.390 180.293L244.390 180.293Q242.561 180.293 241.463 179.280Q240.366 178.268 240.366 176.561L240.366 176.561Q240.366 175.585 240.707 174.793Q241.049 174 241.610 173.341Q242.171 172.683 242.902 172.159Q243.634 171.634 244.415 171.146L244.415 171.146Q243.976 169.732 243.976 168.390L243.976 168.390Q243.976 167.366 244.317 166.512Q244.659 165.659 245.232 165.037Q245.805 164.415 246.561 164.061Q247.317 163.707 248.171 163.707L248.171 163.707Q249.488 163.707 250.146 164.451Q250.805 165.195 250.805 166.317L250.805 166.317Q250.805 167.244 250.415 168Q250.024 168.756 249.390 169.402Q248.756 170.049 247.951 170.598Q247.146 171.146 246.317 171.659L246.317 171.659Q246.829 172.951 247.610 174.146Q248.390 175.341 249.317 176.317L249.317 176.317Q250.317 175.268 251.061 174.049Q251.805 172.829 252.439 171.415L252.439 171.415L254.146 171.415Q253.390 173.024 252.463 174.524Q251.537 176.024 250.366 177.293L250.366 177.293Q251.707 178.366 252.854 178.780L252.854 178.780L252.073 180.293Q250.585 179.805 249.073 178.512L249.073 178.512Q248.049 179.341 246.878 179.817Q245.707 180.293 244.390 180.293ZM245.585 168.293L245.585 168.293Q245.585 169.220 245.854 170.293L245.854 170.293Q246.537 169.878 247.159 169.463Q247.780 169.049 248.244 168.585Q248.707 168.122 248.988 167.585Q249.268 167.049 249.268 166.390L249.268 166.390Q249.268 165.829 248.976 165.427Q248.683 165.024 248.049 165.024L248.049 165.024Q247.537 165.024 247.085 165.268Q246.634 165.512 246.305 165.951Q245.976 166.390 245.780 166.988Q245.585 167.585 245.585 168.293ZM244.732 178.805L244.732 178.805Q245.585 178.805 246.427 178.463Q247.268 178.122 248.049 177.512L248.049 177.512Q247.098 176.463 246.293 175.207Q245.488 173.951 244.927 172.585L244.927 172.585Q243.780 173.366 243 174.244Q242.220 175.122 242.220 176.317L242.220 176.317Q242.220 177.439 242.915 178.122Q243.610 178.805 244.732 178.805Z"/></svg>