<svg width="480px" height="360px" xmlns="http://www.w3.org/2000/svg"><path fill="#F00" d="M248.488 180.293L248.488 180.293Q246.902 180.293 245.573 179.732Q244.244 179.171 243.293 178.110Q242.341 177.049 241.805 175.500Q241.268 173.951 241.268 172L241.268 172Q241.268 170.073 241.817 168.537Q242.366 167 243.341 165.927Q244.317 164.854 245.671 164.280Q247.024 163.707 248.610 163.707L248.610 163.707Q249.439 163.707 250.134 163.878Q250.829 164.049 251.402 164.329Q251.976 164.610 252.427 164.963Q252.878 165.317 253.220 165.683L253.220 165.683L252.098 167Q251.488 166.366 250.683 165.927Q249.878 165.488 248.659 165.488L248.659 165.488Q247.439 165.488 246.463 165.939Q245.488 166.390 244.805 167.232Q244.122 168.073 243.744 169.268Q243.366 170.463 243.366 171.951L243.366 171.951Q243.366 173.463 243.720 174.671Q244.073 175.878 244.744 176.732Q245.415 177.585 246.402 178.049Q247.390 178.512 248.683 178.512L248.683 178.512Q249.537 178.512 250.305 178.256Q251.073 178 251.561 177.561L251.561 177.561L251.561 173.390L248.171 173.390L248.171 171.707L253.415 171.707L253.415 178.439Q252.634 179.244 251.366 179.768Q250.098 180.293 248.488 180.293Z"/></svg>