<svg width="480px" height="360px" xmlns="http://www.w3.org/2000/svg"><path fill="#F00" d="M251.049 180L241.317 180L241.317 178.780Q242.561 178.098 243.232 176.939Q243.902 175.780 243.902 174.390L243.902 174.390Q243.902 174.049 243.854 173.720Q243.805 173.390 243.732 173.049L243.732 173.049L241.293 173.049L241.293 171.780L242.927 171.683L243.366 171.683Q243.122 170.902 242.915 170.159Q242.707 169.415 242.707 168.634L242.707 168.634Q242.707 167.610 243.037 166.780Q243.366 165.951 243.963 165.366Q244.561 164.780 245.390 164.463Q246.220 164.146 247.244 164.146L247.244 164.146Q248.561 164.146 249.476 164.671Q250.390 165.195 251.024 165.976L251.024 165.976L249.854 167.122Q249.390 166.561 248.805 166.195Q248.220 165.829 247.390 165.829L247.390 165.829Q246.073 165.829 245.378 166.622Q244.683 167.415 244.683 168.683L244.683 168.683Q244.683 169.463 244.866 170.183Q245.049 170.902 245.268 171.683L245.268 171.683L249.146 171.683L249.146 173.049L245.585 173.049Q245.634 173.390 245.671 173.720Q245.707 174.049 245.707 174.415L245.707 174.415Q245.707 175.707 245.317 176.561Q244.927 177.415 244.195 178.171L244.195 178.171L244.195 178.268L251.049 178.268L251.049 180Z"/></svg>