<svg width="480px" height="360px" xmlns="http://www.w3.org/2000/svg"><path fill="#F00" d="M247.780 180.293L247.780 180.293Q246.683 180.293 245.744 179.890Q244.805 179.488 244.073 178.707Q243.341 177.927 242.841 176.817Q242.341 175.707 242.122 174.268L242.122 174.268L240.561 174.268L240.561 173.220L242 173.122Q241.976 172.902 241.976 172.683Q241.976 172.463 241.976 172.244L241.976 172.244Q241.976 172.049 241.976 171.854Q241.976 171.659 242 171.463L242 171.463L240.561 171.463L240.561 170.390L242.122 170.268Q242.341 168.829 242.854 167.695Q243.366 166.561 244.134 165.768Q244.902 164.976 245.915 164.561Q246.927 164.146 248.122 164.146L248.122 164.146Q249.220 164.146 250.171 164.695Q251.122 165.244 251.756 166.049L251.756 166.049L250.561 167.195Q250.049 166.561 249.439 166.159Q248.829 165.756 248.049 165.756L248.049 165.756Q246.439 165.756 245.463 166.951Q244.488 168.146 244.171 170.268L244.171 170.268L250.366 170.268L250.366 171.463L244.073 171.463Q244.049 171.634 244.049 171.805Q244.049 171.976 244.049 172.171L244.049 172.171Q244.049 172.415 244.049 172.646Q244.049 172.878 244.073 173.098L244.073 173.098L249.390 173.098L249.390 174.268L244.195 174.268Q244.512 176.341 245.451 177.512Q246.390 178.683 247.902 178.683L247.902 178.683Q248.805 178.683 249.476 178.244Q250.146 177.805 250.780 176.951L250.780 176.951L251.976 178.024Q251.171 179.098 250.146 179.695Q249.122 180.293 247.780 180.293Z"/></svg>