<svg width="480px" height="360px" xmlns="http://www.w3.org/2000/svg"><path fill="#F00" d="M244 180L242 180L242 168.146L243.659 168.146L243.829 169.854L243.902 169.854Q244.756 169 245.695 168.427Q246.634 167.854 247.878 167.854L247.878 167.854Q249.756 167.854 250.622 169.024Q251.488 170.195 251.488 172.488L251.488 172.488L251.488 180L249.488 180L249.488 172.756Q249.488 171.073 248.951 170.329Q248.415 169.585 247.244 169.585L247.244 169.585Q246.317 169.585 245.610 170.049Q244.902 170.512 244 171.415L244 171.415L244 180Z"/></svg>