<svg version="1.1" xmlns="http://www.w3.org/2000/svg" xmlns:xlink="http://www.w3.org/1999/xlink" width="234.36911" height="247.77584" viewBox="0,0,234.36911,247.77584"><g transform="translate(-111.99959,22.99361)"><g data-paper-data="{&quot;isPaintingLayer&quot;:true}" fill-rule="nonzero" stroke="none" stroke-width="0" stroke-linecap="butt" stroke-linejoin="miter" stroke-miterlimit="10" stroke-dasharray="" stroke-dashoffset="0" style="mix-blend-mode: normal"><path d="M214.24832,216.43972l-5.5,0.00219l-0.01578,-123.46631l5.5,-0.00221z" data-paper-data="{&quot;index&quot;:null}" fill="#ffffff"/><path d="M270.28972,211.12408v5.5h-60.57943v-5.5z" fill="#ffffff"/><path d="M275.21405,216.74765l-5.5,0.00135l-0.01578,-76.0977l5.5,-0.00136z" data-paper-data="{&quot;index&quot;:null}" fill="#ffffff"/><path d="M111.99959,224.78222v-247.77583h234.36911v247.77584z" fill="none"/><path d="M273.59461,144.34033l-3.89025,-3.88793l65.78767,-65.80998l3.89026,3.88791z" data-paper-data="{&quot;index&quot;:null}" fill="#ffffff"/><path d="M339.68906,78.61646l-5.5,0.00104l-0.01578,-58.8116l5.5,-0.00106z" data-paper-data="{&quot;index&quot;:null}" fill="#ffffff"/><path d="M214.21331,89.82846l0.00078,5.5l-43.68605,0.01578l-0.00078,-5.5z" data-paper-data="{&quot;index&quot;:null}" fill="#ffffff"/><path d="M339.29365,19.71913l0.001,5.5l-56.34213,0.01578l-0.001,-5.5z" data-paper-data="{&quot;index&quot;:null}" fill="#ffffff"/><path d="M189.31205,39.39856l-5.5,0.00098l-0.01578,-54.9829l5.5,-0.00098z" data-paper-data="{&quot;index&quot;:null}" fill="#ffffff"/><path d="M248.40701,-16.44957l0.00115,5.5l-64.54478,0.01578l-0.00114,-5.5z" data-paper-data="{&quot;index&quot;:null}" fill="#ffffff"/><path d="M244.41749,-12.64347l3.88977,-3.88841l38.17084,38.19316l-3.88977,3.88841z" data-paper-data="{&quot;index&quot;:null}" fill="#ffffff"/><path d="M183.90205,33.83184l0.00105,5.5l-58.8491,0.01578l-0.00104,-5.5z" data-paper-data="{&quot;index&quot;:null}" fill="#ffffff"/><path d="M167.13933,89.94388l5.5,-0.00119l0.01578,65.91136l-5.5,0.00118z" data-paper-data="{&quot;index&quot;:null}" fill="#ffffff"/><path d="M130.49345,152.30318l-5.5,0.00211l-0.01578,-118.45295l5.5,-0.00212z" data-paper-data="{&quot;index&quot;:null}" fill="#ffffff"/><path d="M172.66195,151.37975l0.00085,5.5l-47.72439,0.01578l-0.00085,-5.5z" data-paper-data="{&quot;index&quot;:null}" fill="#ffffff"/></g></g></svg>