<svg width="480px" height="360px" xmlns="http://www.w3.org/2000/svg"><path fill="#F00" d="M242.927 169.561L242.927 169.561Q242.195 169.561 241.793 169Q241.390 168.439 241.390 167.366L241.390 167.366Q241.390 165.902 242.049 164.829Q242.707 163.756 243.976 163.024L243.976 163.024L244.561 163.976Q243.634 164.585 243.171 165.280Q242.707 165.976 242.707 167L242.707 167Q242.780 166.976 242.927 166.976L242.927 166.976Q243.415 166.976 243.817 167.293Q244.220 167.610 244.220 168.220L244.220 168.220Q244.220 168.854 243.854 169.207Q243.488 169.561 242.927 169.561Z"/></svg>