<svg version="1.1" xmlns="http://www.w3.org/2000/svg" xmlns:xlink="http://www.w3.org/1999/xlink" width="185.21368" height="46.87507" viewBox="0,0,185.21368,46.87507"><g transform="translate(-149.40844,-120.76497)"><g data-paper-data="{&quot;isPaintingLayer&quot;:true}" stroke-miterlimit="10" stroke-dasharray="" stroke-dashoffset="0" style="mix-blend-mode: normal"><g fill="none" fill-rule="evenodd" stroke="#ffffff" stroke-width="3.5" stroke-linecap="butt" stroke-linejoin="miter"><path d="M175.05965,135.94863v13.731c0,0.69 -0.575,1.288 -1.242,1.288c-0.713,0 -1.288,-0.598 -1.288,-1.288v-13.731c0,-0.69 0.575,-1.288 1.288,-1.288c0.667,0 1.242,0.598 1.242,1.288z"/><path d="M183.86865,149.58763c0,0.943 -1.081,1.357 -2.369,1.357c-1.38,0 -2.737,-0.483 -2.737,-3.128v-6.992h-0.874c-0.598,0 -0.989,-0.391 -0.989,-0.989c0,-0.575 0.391,-0.966 0.989,-0.966h0.874v-1.794c0,-0.644 0.552,-1.196 1.196,-1.196c0.667,0 1.219,0.552 1.219,1.196v1.794h1.679c0.598,0 1.012,0.391 1.012,0.966c0,0.598 -0.414,0.989 -1.012,0.989h-1.679v7.015c0,0.69 0.276,1.012 0.805,1.012c0.299,0 0.644,-0.092 0.897,-0.115c0.575,-0.092 0.989,0.276 0.989,0.851z"/><path d="M185.34065,139.26063l1.196,-3.565c0.253,-0.69 0.644,-0.966 1.265,-0.966h0.759c0.782,0 0.897,0.414 0.506,1.173l-1.817,3.611c-0.299,0.598 -0.759,0.713 -1.219,0.713h-0.138c-0.575,0 -0.759,-0.414 -0.552,-0.966z"/><path d="M199.16365,140.52563c0.138,0.207 0.322,0.46 0.322,0.851c0,0.575 -0.437,0.92 -0.989,0.92c-0.368,0 -0.713,-0.161 -1.058,-0.621c-0.46,-0.575 -1.104,-0.966 -2.047,-0.966c-1.15,0 -1.84,0.575 -1.84,1.403c0,0.575 0.322,1.127 1.541,1.472l1.426,0.391c1.955,0.529 3.427,1.403 3.427,3.335c0,2.415 -2.277,3.634 -4.669,3.634c-2.001,0 -3.404,-0.874 -4.002,-1.817c-0.115,-0.161 -0.483,-0.621 -0.483,-1.173c0,-0.483 0.299,-0.989 0.943,-0.989c0.529,0 0.805,0.322 1.035,0.667c0.575,0.966 1.518,1.288 2.507,1.288c1.334,0 2.254,-0.552 2.254,-1.472c0,-0.69 -0.483,-1.196 -1.633,-1.518l-1.541,-0.414c-2.231,-0.621 -3.197,-1.817 -3.197,-3.381c0,-2.162 1.955,-3.404 4.186,-3.404c1.656,0 3.082,0.667 3.818,1.794z"/><path d="M219.33435,139.90463c0,0.23 -0.069,0.391 -0.138,0.552l-6.141,14.03c-0.253,0.575 -0.69,0.828 -1.15,0.828c-0.644,0 -1.081,-0.506 -1.081,-1.104c0,-0.23 0.069,-0.391 0.138,-0.552l1.426,-3.289l-4.393,-9.913c-0.069,-0.161 -0.138,-0.322 -0.138,-0.552c0,-0.598 0.483,-1.104 1.127,-1.104c0.46,0 0.897,0.253 1.15,0.828l3.45,8.027l3.473,-8.027c0.253,-0.575 0.69,-0.828 1.15,-0.828c0.644,0 1.127,0.506 1.127,1.104z"/><path d="M233.06535,144.87263c0,4.117 -3.427,6.118 -6.072,6.118c-2.645,0 -6.049,-2.001 -6.049,-6.118c0,-4.094 3.404,-6.141 6.049,-6.141c2.645,0 6.072,2.047 6.072,6.141zM223.35935,144.87263c0,2.599 1.863,4.002 3.634,4.002c1.794,0 3.657,-1.403 3.657,-4.002c0,-2.622 -1.863,-4.025 -3.657,-4.025c-1.771,0 -3.634,1.403 -3.634,4.025z"/><path d="M235.36535,145.67763v-5.658c0,-0.667 0.529,-1.219 1.196,-1.219c0.667,0 1.219,0.552 1.219,1.219v5.658c0,2.3 1.311,3.22 2.806,3.22c2.208,0 3.174,-1.978 3.312,-2.967v-5.911c0,-0.667 0.552,-1.219 1.219,-1.219c0.667,0 1.219,0.552 1.219,1.219v9.683c0,0.69 -0.552,1.242 -1.219,1.242c-0.667,0 -1.219,-0.552 -1.219,-1.242v-1.518c-0.115,0.805 -1.495,2.806 -4.117,2.806c-2.231,0 -4.416,-1.403 -4.416,-5.313z"/><path d="M256.59435,139.88163c0,0.69 -0.529,1.15 -1.564,1.15c-2.024,0 -3.335,1.564 -3.496,2.783v5.911c0,0.667 -0.552,1.219 -1.219,1.219c-0.667,0 -1.219,-0.552 -1.219,-1.219v-9.683c0,-0.69 0.552,-1.242 1.219,-1.242c0.667,0 1.219,0.552 1.219,1.242v1.518c0.115,-0.805 1.564,-2.806 3.818,-2.806c0.805,0 1.242,0.506 1.242,1.127z"/><path d="M271.13035,149.58763c0,0.943 -1.081,1.357 -2.369,1.357c-1.38,0 -2.737,-0.483 -2.737,-3.128v-6.992h-0.874c-0.598,0 -0.989,-0.391 -0.989,-0.989c0,-0.575 0.391,-0.966 0.989,-0.966h0.874v-1.794c0,-0.644 0.552,-1.196 1.196,-1.196c0.667,0 1.219,0.552 1.219,1.196v1.794h1.679c0.598,0 1.012,0.391 1.012,0.966c0,0.598 -0.414,0.989 -1.012,0.989h-1.679v7.015c0,0.69 0.276,1.012 0.805,1.012c0.299,0 0.644,-0.092 0.897,-0.115c0.575,-0.092 0.989,0.276 0.989,0.851z"/><path d="M273.20035,145.67763v-5.658c0,-0.667 0.529,-1.219 1.196,-1.219c0.667,0 1.219,0.552 1.219,1.219v5.658c0,2.3 1.311,3.22 2.806,3.22c2.208,0 3.174,-1.978 3.312,-2.967v-5.911c0,-0.667 0.552,-1.219 1.219,-1.219c0.667,0 1.219,0.552 1.219,1.219v9.683c0,0.69 -0.552,1.242 -1.219,1.242c-0.667,0 -1.219,-0.552 -1.219,-1.242v-1.518c-0.115,0.805 -1.495,2.806 -4.117,2.806c-2.231,0 -4.416,-1.403 -4.416,-5.313z"/><path d="M294.42935,139.88163c0,0.69 -0.529,1.15 -1.564,1.15c-2.024,0 -3.335,1.564 -3.496,2.783v5.911c0,0.667 -0.552,1.219 -1.219,1.219c-0.667,0 -1.219,-0.552 -1.219,-1.219v-9.683c0,-0.69 0.552,-1.242 1.219,-1.242c0.667,0 1.219,0.552 1.219,1.242v1.518c0.115,-0.805 1.564,-2.806 3.818,-2.806c0.805,0 1.242,0.506 1.242,1.127z"/><path d="M307.47035,144.06763v5.658c0,0.667 -0.529,1.219 -1.196,1.219c-0.667,0 -1.219,-0.552 -1.219,-1.219v-5.658c0,-2.3 -1.311,-3.22 -2.806,-3.22c-2.208,0 -3.174,1.978 -3.312,2.967v5.911c0,0.667 -0.552,1.219 -1.219,1.219c-0.667,0 -1.219,-0.552 -1.219,-1.219v-9.683c0,-0.69 0.552,-1.242 1.219,-1.242c0.667,0 1.219,0.552 1.219,1.242v1.518c0.115,-0.805 1.495,-2.806 4.117,-2.806c2.231,0 4.416,1.403 4.416,5.313z"/></g><g fill="#000000" fill-rule="evenodd" stroke="none" stroke-width="1" stroke-linecap="round" stroke-linejoin="round"><path d="M175.05965,135.94863v13.731c0,0.69 -0.575,1.288 -1.242,1.288c-0.713,0 -1.288,-0.598 -1.288,-1.288v-13.731c0,-0.69 0.575,-1.288 1.288,-1.288c0.667,0 1.242,0.598 1.242,1.288z"/><path d="M183.86865,149.58763c0,0.943 -1.081,1.357 -2.369,1.357c-1.38,0 -2.737,-0.483 -2.737,-3.128v-6.992h-0.874c-0.598,0 -0.989,-0.391 -0.989,-0.989c0,-0.575 0.391,-0.966 0.989,-0.966h0.874v-1.794c0,-0.644 0.552,-1.196 1.196,-1.196c0.667,0 1.219,0.552 1.219,1.196v1.794h1.679c0.598,0 1.012,0.391 1.012,0.966c0,0.598 -0.414,0.989 -1.012,0.989h-1.679v7.015c0,0.69 0.276,1.012 0.805,1.012c0.299,0 0.644,-0.092 0.897,-0.115c0.575,-0.092 0.989,0.276 0.989,0.851z"/><path d="M185.34065,139.26063l1.196,-3.565c0.253,-0.69 0.644,-0.966 1.265,-0.966h0.759c0.782,0 0.897,0.414 0.506,1.173l-1.817,3.611c-0.299,0.598 -0.759,0.713 -1.219,0.713h-0.138c-0.575,0 -0.759,-0.414 -0.552,-0.966z"/><path d="M199.16365,140.52563c0.138,0.207 0.322,0.46 0.322,0.851c0,0.575 -0.437,0.92 -0.989,0.92c-0.368,0 -0.713,-0.161 -1.058,-0.621c-0.46,-0.575 -1.104,-0.966 -2.047,-0.966c-1.15,0 -1.84,0.575 -1.84,1.403c0,0.575 0.322,1.127 1.541,1.472l1.426,0.391c1.955,0.529 3.427,1.403 3.427,3.335c0,2.415 -2.277,3.634 -4.669,3.634c-2.001,0 -3.404,-0.874 -4.002,-1.817c-0.115,-0.161 -0.483,-0.621 -0.483,-1.173c0,-0.483 0.299,-0.989 0.943,-0.989c0.529,0 0.805,0.322 1.035,0.667c0.575,0.966 1.518,1.288 2.507,1.288c1.334,0 2.254,-0.552 2.254,-1.472c0,-0.69 -0.483,-1.196 -1.633,-1.518l-1.541,-0.414c-2.231,-0.621 -3.197,-1.817 -3.197,-3.381c0,-2.162 1.955,-3.404 4.186,-3.404c1.656,0 3.082,0.667 3.818,1.794z"/><path d="M219.33435,139.90463c0,0.23 -0.069,0.391 -0.138,0.552l-6.141,14.03c-0.253,0.575 -0.69,0.828 -1.15,0.828c-0.644,0 -1.081,-0.506 -1.081,-1.104c0,-0.23 0.069,-0.391 0.138,-0.552l1.426,-3.289l-4.393,-9.913c-0.069,-0.161 -0.138,-0.322 -0.138,-0.552c0,-0.598 0.483,-1.104 1.127,-1.104c0.46,0 0.897,0.253 1.15,0.828l3.45,8.027l3.473,-8.027c0.253,-0.575 0.69,-0.828 1.15,-0.828c0.644,0 1.127,0.506 1.127,1.104z"/><path d="M233.06535,144.87263c0,4.117 -3.427,6.118 -6.072,6.118c-2.645,0 -6.049,-2.001 -6.049,-6.118c0,-4.094 3.404,-6.141 6.049,-6.141c2.645,0 6.072,2.047 6.072,6.141zM223.35935,144.87263c0,2.599 1.863,4.002 3.634,4.002c1.794,0 3.657,-1.403 3.657,-4.002c0,-2.622 -1.863,-4.025 -3.657,-4.025c-1.771,0 -3.634,1.403 -3.634,4.025z"/><path d="M235.36535,145.67763v-5.658c0,-0.667 0.529,-1.219 1.196,-1.219c0.667,0 1.219,0.552 1.219,1.219v5.658c0,2.3 1.311,3.22 2.806,3.22c2.208,0 3.174,-1.978 3.312,-2.967v-5.911c0,-0.667 0.552,-1.219 1.219,-1.219c0.667,0 1.219,0.552 1.219,1.219v9.683c0,0.69 -0.552,1.242 -1.219,1.242c-0.667,0 -1.219,-0.552 -1.219,-1.242v-1.518c-0.115,0.805 -1.495,2.806 -4.117,2.806c-2.231,0 -4.416,-1.403 -4.416,-5.313z"/><path d="M256.59435,139.88163c0,0.69 -0.529,1.15 -1.564,1.15c-2.024,0 -3.335,1.564 -3.496,2.783v5.911c0,0.667 -0.552,1.219 -1.219,1.219c-0.667,0 -1.219,-0.552 -1.219,-1.219v-9.683c0,-0.69 0.552,-1.242 1.219,-1.242c0.667,0 1.219,0.552 1.219,1.242v1.518c0.115,-0.805 1.564,-2.806 3.818,-2.806c0.805,0 1.242,0.506 1.242,1.127z"/><path d="M271.13035,149.58763c0,0.943 -1.081,1.357 -2.369,1.357c-1.38,0 -2.737,-0.483 -2.737,-3.128v-6.992h-0.874c-0.598,0 -0.989,-0.391 -0.989,-0.989c0,-0.575 0.391,-0.966 0.989,-0.966h0.874v-1.794c0,-0.644 0.552,-1.196 1.196,-1.196c0.667,0 1.219,0.552 1.219,1.196v1.794h1.679c0.598,0 1.012,0.391 1.012,0.966c0,0.598 -0.414,0.989 -1.012,0.989h-1.679v7.015c0,0.69 0.276,1.012 0.805,1.012c0.299,0 0.644,-0.092 0.897,-0.115c0.575,-0.092 0.989,0.276 0.989,0.851z"/><path d="M273.20035,145.67763v-5.658c0,-0.667 0.529,-1.219 1.196,-1.219c0.667,0 1.219,0.552 1.219,1.219v5.658c0,2.3 1.311,3.22 2.806,3.22c2.208,0 3.174,-1.978 3.312,-2.967v-5.911c0,-0.667 0.552,-1.219 1.219,-1.219c0.667,0 1.219,0.552 1.219,1.219v9.683c0,0.69 -0.552,1.242 -1.219,1.242c-0.667,0 -1.219,-0.552 -1.219,-1.242v-1.518c-0.115,0.805 -1.495,2.806 -4.117,2.806c-2.231,0 -4.416,-1.403 -4.416,-5.313z"/><path d="M294.42935,139.88163c0,0.69 -0.529,1.15 -1.564,1.15c-2.024,0 -3.335,1.564 -3.496,2.783v5.911c0,0.667 -0.552,1.219 -1.219,1.219c-0.667,0 -1.219,-0.552 -1.219,-1.219v-9.683c0,-0.69 0.552,-1.242 1.219,-1.242c0.667,0 1.219,0.552 1.219,1.242v1.518c0.115,-0.805 1.564,-2.806 3.818,-2.806c0.805,0 1.242,0.506 1.242,1.127z"/><path d="M307.47035,144.06763v5.658c0,0.667 -0.529,1.219 -1.196,1.219c-0.667,0 -1.219,-0.552 -1.219,-1.219v-5.658c0,-2.3 -1.311,-3.22 -2.806,-3.22c-2.208,0 -3.174,1.978 -3.312,2.967v5.911c0,0.667 -0.552,1.219 -1.219,1.219c-0.667,0 -1.219,-0.552 -1.219,-1.219v-9.683c0,-0.69 0.552,-1.242 1.219,-1.242c0.667,0 1.219,0.552 1.219,1.242v1.518c0.115,-0.805 1.495,-2.806 4.117,-2.806c2.231,0 4.416,1.403 4.416,5.313z"/></g><path d="M149.40844,167.64004v-46.87507h185.21368v46.87507z" fill="none" fill-rule="nonzero" stroke="none" stroke-width="NaN" stroke-linecap="butt" stroke-linejoin="miter"/></g></g></svg>