<svg version="1.1" xmlns="http://www.w3.org/2000/svg" xmlns:xlink="http://www.w3.org/1999/xlink" width="272.58909" height="226.60412" viewBox="0,0,272.58909,226.60412"><g transform="translate(-156.0255,-159.35484)"><g data-paper-data="{&quot;isPaintingLayer&quot;:true}" stroke="none" stroke-miterlimit="10" stroke-dasharray="" stroke-dashoffset="0" style="mix-blend-mode: normal"><path d="M215.48805,228.69063l-1.446,-69.33579h54.7924l0.60736,120.62747l53.60648,1.62799l47.47332,46.6477l55.54188,1.44548l-0.00489,49.4423l-125.6471,-0.24473l-0.78249,-33.08058l-141.07823,-1.3136l-0.75687,-61.21232z" fill="#04b33b" fill-rule="nonzero" stroke-width="0" stroke-linecap="butt" stroke-linejoin="miter"/><path d="M215.12585,159.8115h54.00779v4.51853l-53.99237,0.05761z" data-paper-data="{&quot;index&quot;:null}" fill="#000000" fill-rule="evenodd" stroke-width="1" stroke-linecap="round" stroke-linejoin="round" opacity="0.21849"/><path d="M266.31104,282.49496h54.78481v4.51853l-54.76917,0.05761z" data-paper-data="{&quot;index&quot;:null}" fill="#000000" fill-rule="evenodd" stroke-width="1" stroke-linecap="round" stroke-linejoin="round" opacity="0.21849"/><path d="M217.14996,226.76658l-0.04418,7.0529l-55.63615,55.58861l-2.57837,-4.33641z" data-paper-data="{&quot;index&quot;:null}" fill="#000000" fill-rule="evenodd" stroke-width="1" stroke-linecap="round" stroke-linejoin="round" opacity="0.21849"/><path d="M320.89403,287.2539l-0.04418,-7.0529l49.54719,50.76875c-1.06814,0.01973 -0.19932,4.15959 -0.97439,4.35227z" data-paper-data="{&quot;index&quot;:null}" fill="#000000" fill-rule="evenodd" stroke-width="1" stroke-linecap="round" stroke-linejoin="round" opacity="0.21849"/><path d="M369.53301,330.49342h54.78482v4.51853l-54.76918,0.05761z" data-paper-data="{&quot;index&quot;:null}" fill="#000000" fill-rule="evenodd" stroke-width="1" stroke-linecap="round" stroke-linejoin="round" opacity="0.21849"/><path d="M156.0255,346.79805h143.80017v4.51853l-143.75911,0.05761z" data-paper-data="{&quot;index&quot;:null}" fill="#000000" fill-rule="evenodd" stroke-width="1" stroke-linecap="round" stroke-linejoin="round" opacity="0.21849"/><path d="M297.27117,381.38282h131.34342v4.51853l-131.30592,0.05761z" data-paper-data="{&quot;index&quot;:null}" fill="#000000" fill-rule="evenodd" stroke-width="1" stroke-linecap="round" stroke-linejoin="round" opacity="0.21849"/></g></g></svg>