<svg width="480px" height="360px" xmlns="http://www.w3.org/2000/svg"><path fill="#F00" d="M251.951 180L250.134 180L250.134 172.241Q250.134 170.774 249.466 170.052Q248.799 169.330 247.376 169.330L247.376 169.330Q245.494 169.330 244.618 170.347Q243.743 171.365 243.743 173.707L243.743 173.707L243.743 180L241.926 180L241.926 168.005L243.404 168.005L243.699 169.647L243.787 169.647Q244.345 168.761 245.352 168.274Q246.358 167.787 247.595 167.787L247.595 167.787Q249.762 167.787 250.856 168.832Q251.951 169.877 251.951 172.175L251.951 172.175L251.951 180Z"/></svg>