<svg width="480px" height="360px" xmlns="http://www.w3.org/2000/svg"><path fill="#F00" d="M244.366 183.707L243.293 183.707Q242.146 183.707 241.646 183.244Q241.146 182.780 241.146 181.756L241.146 181.756Q241.146 181.073 241.354 180.171Q241.561 179.268 241.817 178.329Q242.073 177.390 242.280 176.561Q242.488 175.732 242.488 175.195L242.488 175.195Q242.488 174.951 242.415 174.695Q242.341 174.439 242.159 174.256Q241.976 174.073 241.634 173.951Q241.293 173.829 240.780 173.829L240.780 173.829L241.049 172.610Q241.659 172.610 242.085 172.439Q242.512 172.268 242.793 171.988Q243.073 171.707 243.220 171.366Q243.366 171.024 243.439 170.683L243.439 170.683Q243.659 169.512 243.793 168.390Q243.927 167.268 244.195 166.024L244.195 166.024Q244.366 165.073 244.634 164.439Q244.902 163.805 245.280 163.427Q245.659 163.049 246.195 162.890Q246.732 162.732 247.463 162.732L247.463 162.732L248.585 162.732L248.341 163.829L247.707 163.829Q246.732 163.829 246.317 164.390Q245.902 164.951 245.659 166.122L245.659 166.122Q245.463 167.171 245.305 168.280Q245.146 169.390 244.927 170.512L244.927 170.512Q244.683 171.707 244.207 172.366Q243.732 173.024 242.878 173.244L242.878 173.244L242.878 173.341Q243.463 173.537 243.707 173.915Q243.951 174.293 243.951 174.829L243.951 174.829Q243.951 175.463 243.756 176.354Q243.561 177.244 243.317 178.183Q243.073 179.122 242.878 179.976Q242.683 180.829 242.683 181.415L242.683 181.415Q242.683 182.024 242.963 182.317Q243.244 182.610 244.024 182.610L244.024 182.610L244.610 182.610L244.366 183.707Z"/></svg>