<svg width="480px" height="360px" xmlns="http://www.w3.org/2000/svg"><path fill="#F00" d="M249.829 183.780L249.829 183.780Q248.024 183.780 246.463 183.220Q244.902 182.659 243.744 181.549Q242.585 180.439 241.915 178.805Q241.244 177.171 241.244 175.049L241.244 175.049Q241.244 172.610 242.061 170.610Q242.878 168.610 244.280 167.195Q245.683 165.780 247.524 165.012Q249.366 164.244 251.415 164.244L251.415 164.244Q253.268 164.244 254.744 164.829Q256.220 165.415 257.256 166.476Q258.293 167.537 258.854 169.024Q259.415 170.512 259.415 172.317L259.415 172.317Q259.415 173.927 258.963 175.134Q258.512 176.341 257.805 177.159Q257.098 177.976 256.232 178.390Q255.366 178.805 254.537 178.805L254.537 178.805Q253.537 178.805 252.841 178.341Q252.146 177.878 252.024 176.951L252.024 176.951L251.976 176.951Q251.366 177.659 250.585 178.134Q249.805 178.610 249 178.610L249 178.610Q247.756 178.610 246.915 177.732Q246.073 176.854 246.073 175.171L246.073 175.171Q246.073 174.195 246.402 173.183Q246.732 172.171 247.341 171.354Q247.951 170.537 248.817 170.024Q249.683 169.512 250.756 169.512L250.756 169.512Q251.390 169.512 251.878 169.793Q252.366 170.073 252.707 170.683L252.707 170.683L252.756 170.683L253.024 169.707L254.366 169.707L253.415 174.585Q252.683 177.439 254.732 177.439L254.732 177.439Q255.317 177.439 255.890 177.098Q256.463 176.756 256.939 176.110Q257.415 175.463 257.707 174.524Q258 173.585 258 172.390L258 172.390Q258 170.927 257.573 169.671Q257.146 168.415 256.293 167.512Q255.439 166.610 254.171 166.098Q252.902 165.585 251.244 165.585L251.244 165.585Q249.610 165.585 248.073 166.256Q246.537 166.927 245.341 168.146Q244.146 169.366 243.427 171.098Q242.707 172.829 242.707 174.976L242.707 174.976Q242.707 176.756 243.256 178.146Q243.805 179.537 244.780 180.488Q245.756 181.439 247.085 181.939Q248.415 182.439 249.976 182.439L249.976 182.439Q251.098 182.439 252.098 182.134Q253.098 181.829 253.927 181.341L253.927 181.341L254.463 182.537Q252.390 183.780 249.829 183.780ZM249.390 177.244L249.390 177.244Q249.902 177.244 250.451 176.902Q251 176.561 251.634 175.805L251.634 175.805L252.341 171.927Q252 171.366 251.634 171.134Q251.268 170.902 250.780 170.902L250.780 170.902Q250.049 170.902 249.476 171.293Q248.902 171.683 248.500 172.293Q248.098 172.902 247.890 173.634Q247.683 174.366 247.683 175.049L247.683 175.049Q247.683 176.220 248.171 176.732Q248.659 177.244 249.390 177.244Z"/></svg>