<svg width="480px" height="360px" xmlns="http://www.w3.org/2000/svg"><path fill="#F00" d="M251.655 172.854L241.138 172.854L241.138 171.343L251.655 171.343L251.655 172.854ZM245.155 175.918L245.155 175.918Q245.155 175.261 245.477 174.927Q245.800 174.594 246.391 174.594L246.391 174.594Q246.960 174.594 247.278 174.938Q247.595 175.283 247.595 175.918L247.595 175.918Q247.595 176.542 247.272 176.892Q246.949 177.242 246.391 177.242L246.391 177.242Q245.822 177.242 245.488 176.897Q245.155 176.553 245.155 175.918ZM245.155 168.279L245.155 168.279Q245.155 167.622 245.477 167.289Q245.800 166.955 246.391 166.955L246.391 166.955Q246.960 166.955 247.278 167.300Q247.595 167.644 247.595 168.279L247.595 168.279Q247.595 168.903 247.272 169.253Q246.949 169.603 246.391 169.603L246.391 169.603Q245.822 169.603 245.488 169.259Q245.155 168.914 245.155 168.279Z"/></svg>