<svg width="480px" height="360px" xmlns="http://www.w3.org/2000/svg"><path fill="#F00" d="M245.098 180.293L245.098 180.293Q243.829 180.293 242.683 179.829Q241.537 179.366 240.683 178.659L240.683 178.659L241.683 177.317Q242.463 177.951 243.280 178.341Q244.098 178.732 245.171 178.732L245.171 178.732Q246.341 178.732 246.927 178.195Q247.512 177.659 247.512 176.878L247.512 176.878Q247.512 176.415 247.268 176.073Q247.024 175.732 246.646 175.476Q246.268 175.220 245.780 175.024Q245.293 174.829 244.805 174.634L244.805 174.634Q244.171 174.415 243.537 174.134Q242.902 173.854 242.402 173.451Q241.902 173.049 241.585 172.512Q241.268 171.976 241.268 171.220L241.268 171.220Q241.268 170.512 241.549 169.890Q241.829 169.268 242.354 168.817Q242.878 168.366 243.634 168.110Q244.390 167.854 245.341 167.854L245.341 167.854Q246.463 167.854 247.402 168.244Q248.341 168.634 249.024 169.195L249.024 169.195L248.073 170.463Q247.463 170 246.805 169.707Q246.146 169.415 245.366 169.415L245.366 169.415Q244.244 169.415 243.720 169.927Q243.195 170.439 243.195 171.122L243.195 171.122Q243.195 171.537 243.415 171.841Q243.634 172.146 244 172.378Q244.366 172.610 244.841 172.793Q245.317 172.976 245.829 173.171L245.829 173.171Q246.463 173.415 247.110 173.683Q247.756 173.951 248.268 174.354Q248.780 174.756 249.110 175.341Q249.439 175.927 249.439 176.756L249.439 176.756Q249.439 177.488 249.159 178.122Q248.878 178.756 248.329 179.244Q247.780 179.732 246.963 180.012Q246.146 180.293 245.098 180.293Z"/></svg>