<svg width="480px" height="360px" xmlns="http://www.w3.org/2000/svg"><path fill="#F00" d="M244.341 180L242.341 180L242.341 169.780L240.732 169.780L240.732 168.268L242.341 168.146L242.341 166.268Q242.341 164.439 243.183 163.390Q244.024 162.341 245.805 162.341L245.805 162.341Q246.366 162.341 246.866 162.451Q247.366 162.561 247.780 162.732L247.780 162.732L247.341 164.268Q246.683 163.976 246 163.976L246 163.976Q244.341 163.976 244.341 166.268L244.341 166.268L244.341 168.146L246.854 168.146L246.854 169.780L244.341 169.780L244.341 180Z"/></svg>