<svg width="480px" height="360px" xmlns="http://www.w3.org/2000/svg"><path fill="#F00" d="M242.528 171.362L242.528 171.362L241.742 169.791Q242.847 169.227 243.399 168.503Q243.951 167.779 243.951 166.675L243.951 166.675Q243.877 166.699 243.730 166.699L243.730 166.699Q242.945 166.699 242.393 166.221Q241.840 165.742 241.840 164.908L241.840 164.908Q241.840 163.975 242.368 163.436Q242.896 162.896 243.730 162.896L243.730 162.896Q244.859 162.896 245.448 163.730Q246.037 164.564 246.037 166.110L246.037 166.110Q246.037 167.853 245.166 169.178Q244.294 170.503 242.528 171.362ZM248.319 171.362L248.319 171.362L247.534 169.791Q248.638 169.227 249.190 168.503Q249.742 167.779 249.742 166.675L249.742 166.675Q249.669 166.699 249.521 166.699L249.521 166.699Q248.736 166.699 248.184 166.221Q247.632 165.742 247.632 164.908L247.632 164.908Q247.632 163.975 248.160 163.436Q248.687 162.896 249.521 162.896L249.521 162.896Q250.650 162.896 251.239 163.730Q251.828 164.564 251.828 166.110L251.828 166.110Q251.828 167.853 250.957 169.178Q250.086 170.503 248.319 171.362Z"/></svg>