<svg width="480px" height="360px" xmlns="http://www.w3.org/2000/svg"><path fill="#F00" d="M248.195 171.122L248.195 171.122Q247.463 171.122 246.890 170.805Q246.317 170.488 245.817 170.098Q245.317 169.707 244.854 169.390Q244.390 169.073 243.878 169.073L243.878 169.073Q243.341 169.073 242.878 169.427Q242.415 169.780 242 170.561L242 170.561L240.878 169.756Q241.537 168.585 242.341 168.073Q243.146 167.561 243.927 167.561L243.927 167.561Q244.659 167.561 245.232 167.878Q245.805 168.195 246.305 168.585Q246.805 168.976 247.268 169.293Q247.732 169.610 248.244 169.610L248.244 169.610Q248.780 169.610 249.244 169.256Q249.707 168.902 250.122 168.122L250.122 168.122L251.244 168.951Q250.585 170.122 249.780 170.622Q248.976 171.122 248.195 171.122ZM248.195 176.317L248.195 176.317Q247.463 176.317 246.890 176Q246.317 175.683 245.817 175.293Q245.317 174.902 244.854 174.585Q244.390 174.268 243.878 174.268L243.878 174.268Q243.341 174.268 242.878 174.622Q242.415 174.976 242 175.756L242 175.756L240.878 174.951Q241.537 173.780 242.341 173.268Q243.146 172.756 243.927 172.756L243.927 172.756Q244.659 172.756 245.232 173.073Q245.805 173.390 246.305 173.780Q246.805 174.171 247.268 174.488Q247.732 174.805 248.244 174.805L248.244 174.805Q248.780 174.805 249.244 174.451Q249.707 174.098 250.122 173.317L250.122 173.317L251.244 174.146Q250.585 175.317 249.780 175.817Q248.976 176.317 248.195 176.317Z"/></svg>