<svg width="480px" height="360px" xmlns="http://www.w3.org/2000/svg"><path fill="#F00" d="M245.178 180.294L245.178 180.294Q243.975 180.294 242.712 179.828Q241.448 179.362 240.515 178.601L240.515 178.601L242.135 176.344Q242.969 176.982 243.730 177.301Q244.491 177.620 245.276 177.620L245.276 177.620Q246.086 177.620 246.454 177.350Q246.822 177.080 246.822 176.589L246.822 176.589Q246.822 176.294 246.613 176.061Q246.405 175.828 246.049 175.632Q245.693 175.436 245.252 175.276Q244.810 175.117 244.344 174.920L244.344 174.920Q243.779 174.699 243.215 174.405Q242.650 174.110 242.184 173.681Q241.718 173.252 241.423 172.675Q241.129 172.098 241.129 171.337L241.129 171.337Q241.129 170.503 241.460 169.791Q241.791 169.080 242.405 168.589Q243.018 168.098 243.877 167.816Q244.736 167.534 245.791 167.534L245.791 167.534Q247.190 167.534 248.245 168.012Q249.301 168.491 250.086 169.080L250.086 169.080L248.466 171.239Q247.804 170.748 247.166 170.479Q246.528 170.209 245.890 170.209L245.890 170.209Q244.515 170.209 244.515 171.166L244.515 171.166Q244.515 171.460 244.712 171.669Q244.908 171.877 245.239 172.049Q245.571 172.221 246 172.380Q246.429 172.540 246.896 172.712L246.896 172.712Q247.485 172.933 248.061 173.215Q248.638 173.497 249.117 173.914Q249.595 174.331 249.890 174.933Q250.184 175.534 250.184 176.368L250.184 176.368Q250.184 177.202 249.865 177.914Q249.546 178.626 248.908 179.153Q248.270 179.681 247.337 179.988Q246.405 180.294 245.178 180.294Z"/></svg>