<svg width="480px" height="360px" xmlns="http://www.w3.org/2000/svg"><path fill="#F00" d="M248.957 180.294L248.957 180.294Q247.313 180.294 245.877 179.767Q244.442 179.239 243.387 178.209Q242.331 177.178 241.730 175.644Q241.129 174.110 241.129 172.098L241.129 172.098Q241.129 170.110 241.742 168.552Q242.356 166.994 243.423 165.914Q244.491 164.834 245.914 164.270Q247.337 163.706 248.933 163.706L248.933 163.706Q250.675 163.706 251.926 164.344Q253.178 164.982 253.963 165.791L253.963 165.791L252.074 168.098Q251.460 167.558 250.773 167.190Q250.086 166.822 249.055 166.822L249.055 166.822Q248.123 166.822 247.350 167.178Q246.577 167.534 246.012 168.196Q245.448 168.859 245.141 169.816Q244.834 170.773 244.834 171.975L244.834 171.975Q244.834 174.454 245.951 175.816Q247.067 177.178 249.325 177.178L249.325 177.178Q249.816 177.178 250.282 177.055Q250.748 176.933 251.043 176.687L251.043 176.687L251.043 173.939L248.393 173.939L248.393 170.994L254.233 170.994L254.233 178.356Q253.399 179.166 252.025 179.730Q250.650 180.294 248.957 180.294Z"/></svg>