<svg width="480px" height="360px" xmlns="http://www.w3.org/2000/svg"><path fill="#F00" d="M247.828 180L241.890 180L241.890 164L247.362 164Q248.613 164 249.681 164.184Q250.748 164.368 251.546 164.834Q252.344 165.301 252.798 166.061Q253.252 166.822 253.252 167.975L253.252 167.975Q253.252 168.515 253.104 169.055Q252.957 169.595 252.687 170.061Q252.417 170.528 252.037 170.896Q251.656 171.264 251.166 171.436L251.166 171.436L251.166 171.534Q251.779 171.681 252.294 171.988Q252.810 172.294 253.202 172.761Q253.595 173.227 253.816 173.853Q254.037 174.479 254.037 175.288L254.037 175.288Q254.037 176.515 253.558 177.399Q253.080 178.282 252.233 178.859Q251.387 179.436 250.258 179.718Q249.129 180 247.828 180L247.828 180ZM245.497 166.798L245.497 170.405L247.190 170.405Q248.515 170.405 249.117 169.890Q249.718 169.374 249.718 168.515L249.718 168.515Q249.718 167.583 249.104 167.190Q248.491 166.798 247.215 166.798L247.215 166.798L245.497 166.798ZM245.497 173.080L245.497 177.202L247.534 177.202Q250.503 177.202 250.503 175.043L250.503 175.043Q250.503 173.988 249.767 173.534Q249.031 173.080 247.534 173.080L247.534 173.080L245.497 173.080Z"/></svg>