<svg width="480px" height="360px" xmlns="http://www.w3.org/2000/svg"><path fill="#F00" d="M240.024 184.293L240.024 184.293L238.927 183.659Q244.122 177.098 244.122 169.512L244.122 169.512Q244.122 168.659 244.061 167.732Q244 166.805 243.878 165.902Q243.756 165 243.561 164.171Q243.366 163.341 243.098 162.634L243.098 162.634L244.317 162.171Q244.902 163.732 245.305 165.707Q245.707 167.683 245.707 169.683L245.707 169.683Q245.707 171.829 245.329 173.732Q244.951 175.634 244.220 177.415Q243.488 179.195 242.427 180.890Q241.366 182.585 240.024 184.293Z"/></svg>