<svg width="480px" height="360px" xmlns="http://www.w3.org/2000/svg"><path fill="#F00" d="M244 185L242 185L242 168.146L243.659 168.146L243.829 169.512L243.902 169.512Q244.707 168.829 245.671 168.341Q246.634 167.854 247.683 167.854L247.683 167.854Q248.829 167.854 249.707 168.280Q250.585 168.707 251.171 169.500Q251.756 170.293 252.061 171.402Q252.366 172.512 252.366 173.902L252.366 173.902Q252.366 175.415 251.951 176.598Q251.537 177.780 250.829 178.610Q250.122 179.439 249.195 179.866Q248.268 180.293 247.244 180.293L247.244 180.293Q246.415 180.293 245.598 179.927Q244.780 179.561 243.951 178.927L243.951 178.927L244 181L244 185ZM246.902 178.610L246.902 178.610Q247.634 178.610 248.256 178.280Q248.878 177.951 249.329 177.354Q249.780 176.756 250.037 175.878Q250.293 175 250.293 173.902L250.293 173.902Q250.293 172.927 250.122 172.122Q249.951 171.317 249.573 170.744Q249.195 170.171 248.598 169.854Q248 169.537 247.171 169.537L247.171 169.537Q246.415 169.537 245.646 169.951Q244.878 170.366 244 171.146L244 171.146L244 177.366Q244.805 178.049 245.561 178.329Q246.317 178.610 246.902 178.610Z"/></svg>