<svg width="480px" height="360px" xmlns="http://www.w3.org/2000/svg"><path fill="#F00" d="M245.202 184.515L241.595 184.515L241.595 167.828L244.540 167.828L244.785 169.031L244.883 169.031Q245.595 168.393 246.491 167.963Q247.387 167.534 248.344 167.534L248.344 167.534Q249.448 167.534 250.331 167.975Q251.215 168.417 251.828 169.227Q252.442 170.037 252.773 171.178Q253.104 172.319 253.104 173.718L253.104 173.718Q253.104 175.288 252.675 176.503Q252.245 177.718 251.521 178.564Q250.798 179.411 249.877 179.853Q248.957 180.294 247.975 180.294L247.975 180.294Q247.190 180.294 246.454 179.963Q245.718 179.632 245.080 179.018L245.080 179.018L245.202 180.957L245.202 184.515ZM247.141 177.350L247.141 177.350Q248.074 177.350 248.736 176.503Q249.399 175.656 249.399 173.767L249.399 173.767Q249.399 170.479 247.288 170.479L247.288 170.479Q246.233 170.479 245.202 171.583L245.202 171.583L245.202 176.564Q245.693 177.006 246.184 177.178Q246.675 177.350 247.141 177.350Z"/></svg>