<svg width="480px" height="360px" xmlns="http://www.w3.org/2000/svg"><path fill="#F00" d="M251.611 170.829L251.611 170.829Q251.611 180.219 244.345 180.219L244.345 180.219Q243.075 180.219 242.331 180L242.331 180L242.331 178.435Q243.207 178.720 244.323 178.720L244.323 178.720Q246.949 178.720 248.290 177.094Q249.631 175.469 249.751 172.109L249.751 172.109L249.620 172.109Q249.018 173.018 248.022 173.494Q247.026 173.970 245.778 173.970L245.778 173.970Q243.655 173.970 242.408 172.700Q241.160 171.431 241.160 169.155L241.160 169.155Q241.160 166.659 242.555 165.215Q243.951 163.770 246.227 163.770L246.227 163.770Q247.858 163.770 249.078 164.607Q250.298 165.445 250.955 167.048Q251.611 168.651 251.611 170.829ZM246.227 165.324L246.227 165.324Q244.662 165.324 243.808 166.331Q242.955 167.338 242.955 169.133L242.955 169.133Q242.955 170.709 243.743 171.611Q244.531 172.514 246.140 172.514L246.140 172.514Q247.135 172.514 247.973 172.109Q248.810 171.705 249.291 171.004Q249.773 170.304 249.773 169.538L249.773 169.538Q249.773 168.389 249.324 167.415Q248.876 166.440 248.071 165.882Q247.267 165.324 246.227 165.324Z"/></svg>