<svg width="480px" height="360px" xmlns="http://www.w3.org/2000/svg"><path fill="#F00" d="M242.648 168.772L242.648 168.772Q242.648 170.632 243.053 171.562Q243.458 172.492 244.367 172.492L244.367 172.492Q246.161 172.492 246.161 168.772L246.161 168.772Q246.161 165.073 244.367 165.073L244.367 165.073Q243.458 165.073 243.053 165.992Q242.648 166.911 242.648 168.772ZM247.661 168.772L247.661 168.772Q247.661 171.267 246.824 172.542Q245.986 173.817 244.367 173.817L244.367 173.817Q242.834 173.817 241.986 172.514Q241.138 171.212 241.138 168.772L241.138 168.772Q241.138 166.287 241.953 165.029Q242.769 163.770 244.367 163.770L244.367 163.770Q245.953 163.770 246.807 165.073Q247.661 166.375 247.661 168.772ZM252.279 175.185L252.279 175.185Q252.279 177.056 252.684 177.981Q253.089 178.906 254.008 178.906L254.008 178.906Q254.927 178.906 255.365 177.992Q255.803 177.078 255.803 175.185L255.803 175.185Q255.803 173.313 255.365 172.410Q254.927 171.508 254.008 171.508L254.008 171.508Q253.089 171.508 252.684 172.410Q252.279 173.313 252.279 175.185ZM257.302 175.185L257.302 175.185Q257.302 177.669 256.465 178.944Q255.628 180.219 254.008 180.219L254.008 180.219Q252.454 180.219 251.617 178.917Q250.780 177.614 250.780 175.185L250.780 175.185Q250.780 172.700 251.595 171.442Q252.410 170.183 254.008 170.183L254.008 170.183Q255.562 170.183 256.432 171.469Q257.302 172.755 257.302 175.185ZM252.870 164L254.479 164L245.603 180L243.995 180L252.870 164Z"/></svg>