<svg width="480px" height="360px" xmlns="http://www.w3.org/2000/svg"><path fill="#F00" d="M247.073 180.293L247.073 180.293Q245.707 180.293 244.646 179.817Q243.585 179.341 242.866 178.488Q242.146 177.634 241.768 176.451Q241.390 175.268 241.390 173.829L241.390 173.829Q241.390 171.951 241.988 170.134Q242.585 168.317 243.671 166.890Q244.756 165.463 246.280 164.585Q247.805 163.707 249.659 163.707L249.659 163.707Q251.049 163.707 252.024 164.378Q253 165.049 253.585 166.073L253.585 166.073L252.268 167.073Q251.780 166.293 251.134 165.817Q250.488 165.341 249.561 165.341L249.561 165.341Q248.122 165.341 246.976 166.098Q245.829 166.854 245.024 168.049Q244.220 169.244 243.780 170.720Q243.341 172.195 243.341 173.659L243.341 173.659Q243.341 174.756 243.573 175.671Q243.805 176.585 244.293 177.244Q244.780 177.902 245.561 178.280Q246.341 178.659 247.415 178.659L247.415 178.659Q248.390 178.659 249.207 178.268Q250.024 177.878 250.805 177.220L250.805 177.220L251.659 178.439Q250.780 179.220 249.659 179.756Q248.537 180.293 247.073 180.293Z"/></svg>