<svg width="480px" height="360px" xmlns="http://www.w3.org/2000/svg"><path fill="#F00" d="M242.200 180L242.200 164L246.720 164Q249.904 164 251.327 164.952Q252.750 165.904 252.750 167.962L252.750 167.962Q252.750 169.384 251.956 170.309Q251.163 171.234 249.642 171.508L249.642 171.508L249.642 171.617Q253.286 172.241 253.286 175.447L253.286 175.447Q253.286 177.592 251.836 178.796Q250.386 180 247.781 180L247.781 180L242.200 180ZM244.060 165.609L244.060 170.851L247.124 170.851Q249.094 170.851 249.959 170.233Q250.824 169.614 250.824 168.148L250.824 168.148Q250.824 166.802 249.860 166.205Q248.897 165.609 246.796 165.609L246.796 165.609L244.060 165.609ZM247.245 172.427L244.060 172.427L244.060 178.413L247.398 178.413Q249.335 178.413 250.315 177.663Q251.294 176.914 251.294 175.316L251.294 175.316Q251.294 173.828 250.293 173.127Q249.291 172.427 247.245 172.427L247.245 172.427Z"/></svg>