<svg width="480px" height="360px" xmlns="http://www.w3.org/2000/svg"><path fill="#F00" d="M259.031 180L257.215 180L257.215 172.197Q257.215 170.763 256.602 170.047Q255.989 169.330 254.698 169.330L254.698 169.330Q253.001 169.330 252.192 170.304Q251.382 171.278 251.382 173.302L251.382 173.302L251.382 180L249.565 180L249.565 172.197Q249.565 170.763 248.952 170.047Q248.339 169.330 247.037 169.330L247.037 169.330Q245.330 169.330 244.536 170.353Q243.743 171.376 243.743 173.707L243.743 173.707L243.743 180L241.926 180L241.926 168.005L243.404 168.005L243.699 169.647L243.787 169.647Q244.301 168.772 245.237 168.279Q246.172 167.787 247.332 167.787L247.332 167.787Q250.145 167.787 251.010 169.822L251.010 169.822L251.097 169.822Q251.633 168.881 252.651 168.334Q253.669 167.787 254.971 167.787L254.971 167.787Q257.007 167.787 258.019 168.832Q259.031 169.877 259.031 172.175L259.031 172.175L259.031 180Z"/></svg>