<svg width="480px" height="360px" xmlns="http://www.w3.org/2000/svg"><path fill="#F00" d="M245.659 175.171L243.902 175.171Q243.756 174.220 243.963 173.451Q244.171 172.683 244.537 172.037Q244.902 171.390 245.378 170.829Q245.854 170.268 246.268 169.720Q246.683 169.171 246.963 168.610Q247.244 168.049 247.244 167.390L247.244 167.390Q247.244 166.415 246.646 165.720Q246.049 165.024 244.878 165.024L244.878 165.024Q244.073 165.024 243.354 165.402Q242.634 165.780 242.073 166.439L242.073 166.439L240.927 165.390Q241.707 164.512 242.744 163.939Q243.780 163.366 245.122 163.366L245.122 163.366Q246.976 163.366 248.085 164.402Q249.195 165.439 249.195 167.268L249.195 167.268Q249.195 168.073 248.902 168.732Q248.610 169.390 248.183 169.976Q247.756 170.561 247.280 171.134Q246.805 171.707 246.402 172.317Q246 172.927 245.780 173.622Q245.561 174.317 245.659 175.171L245.659 175.171ZM244.829 180.293L244.829 180.293Q244.220 180.293 243.805 179.866Q243.390 179.439 243.390 178.780L243.390 178.780Q243.390 178.073 243.805 177.646Q244.220 177.220 244.829 177.220L244.829 177.220Q245.439 177.220 245.866 177.646Q246.293 178.073 246.293 178.780L246.293 178.780Q246.293 179.439 245.866 179.866Q245.439 180.293 244.829 180.293Z"/></svg>