<svg width="480px" height="360px" xmlns="http://www.w3.org/2000/svg"><path fill="#F00" d="M248.098 178.610L248.098 178.610Q249.171 178.610 250.037 178.146Q250.902 177.683 251.524 176.805Q252.146 175.927 252.488 174.695Q252.829 173.463 252.829 171.927L252.829 171.927Q252.829 170.439 252.488 169.244Q252.146 168.049 251.524 167.220Q250.902 166.390 250.037 165.939Q249.171 165.488 248.098 165.488L248.098 165.488Q247.024 165.488 246.159 165.939Q245.293 166.390 244.671 167.220Q244.049 168.049 243.707 169.244Q243.366 170.439 243.366 171.927L243.366 171.927Q243.366 173.463 243.707 174.695Q244.049 175.927 244.671 176.805Q245.293 177.683 246.159 178.146Q247.024 178.610 248.098 178.610ZM253 184.024L253 184.024Q251.902 184.024 250.963 183.744Q250.024 183.463 249.280 182.951Q248.537 182.439 247.988 181.744Q247.439 181.049 247.098 180.220L247.098 180.220Q245.780 180.049 244.707 179.390Q243.634 178.732 242.866 177.659Q242.098 176.585 241.683 175.134Q241.268 173.683 241.268 171.927L241.268 171.927Q241.268 170 241.768 168.476Q242.268 166.951 243.171 165.890Q244.073 164.829 245.329 164.268Q246.585 163.707 248.098 163.707L248.098 163.707Q249.610 163.707 250.866 164.280Q252.122 164.854 253.037 165.915Q253.951 166.976 254.451 168.500Q254.951 170.024 254.951 171.927L254.951 171.927Q254.951 173.659 254.549 175.085Q254.146 176.512 253.402 177.573Q252.659 178.634 251.610 179.305Q250.561 179.976 249.293 180.195L249.293 180.195Q249.854 181.268 250.878 181.793Q251.902 182.317 253.220 182.317L253.220 182.317Q253.756 182.317 254.159 182.256Q254.561 182.195 254.902 182.098L254.902 182.098L255.293 183.659Q254.927 183.805 254.317 183.915Q253.707 184.024 253 184.024Z"/></svg>