<svg version="1.1" xmlns="http://www.w3.org/2000/svg" xmlns:xlink="http://www.w3.org/1999/xlink" width="264.06258" height="196.09423" viewBox="0,0,264.06258,196.09423"><g transform="translate(-22.08991,-29.16211)"><g data-paper-data="{&quot;isPaintingLayer&quot;:true}" fill-rule="nonzero" stroke="none" stroke-width="0" stroke-linecap="butt" stroke-linejoin="miter" stroke-miterlimit="10" stroke-dasharray="" stroke-dashoffset="0" style="mix-blend-mode: normal"><path d="M269.71405,104.22539l5.5,0.00201l-0.01578,112.21449l-5.5,-0.00199z" data-paper-data="{&quot;index&quot;:null}" fill="#ffffff"/><path d="M270.28972,211.12407v5.5h-60.57943v-5.5z" fill="#ffffff"/><path d="M205.49616,42.24l3.89026,-3.88791l65.78767,65.80998l-3.89025,3.88793z" data-paper-data="{&quot;index&quot;:null}" fill="#ffffff"/><path d="M208.74828,134.57369l5.5,0.00147l-0.01578,82.14856l-5.5,-0.00146z" data-paper-data="{&quot;index&quot;:null}" fill="#ffffff"/><path d="M149.06185,43.91254v-5.5h60.57943v5.5z" fill="#ffffff"/><path d="M165.68751,135.60545v-5.5h48.71209v5.5z" fill="#ffffff"/><path d="M102.74589,131.62362l-3.88909,-3.88909l47.32161,-47.32161l3.88909,3.88909z" fill="#ffffff"/><path d="M144.54461,38.3696l5.5,0.00082l-0.01578,45.8485l-5.5,-0.00081z" data-paper-data="{&quot;index&quot;:null}" fill="#ffffff"/><path d="M165.57533,130.2561l5.5,0.00091l-0.01578,50.49927l-5.5,-0.0009z" data-paper-data="{&quot;index&quot;:null}" fill="#ffffff"/><path d="M22.1106,181.1923v-5.5h148.87622v5.5z" fill="#ffffff"/><path d="M22.52601,131.65268l0.00144,-5.5l80.51016,0.01578l-0.00143,5.5z" data-paper-data="{&quot;index&quot;:null}" fill="#ffffff"/><path d="M22.10569,126.10869l5.5,0.00095l-0.01578,54.86588l-5.5,-0.00094z" data-paper-data="{&quot;index&quot;:null}" fill="#ffffff"/><path d="M22.86064,225.25634v-196.09423h263.29185v196.09423z" fill="none"/></g></g></svg>