<svg width="480px" height="360px" xmlns="http://www.w3.org/2000/svg"><path fill="#F00" d="M251.877 180L240.908 180L240.908 177.939Q242.405 176.540 243.644 175.325Q244.883 174.110 245.779 173.043Q246.675 171.975 247.178 171.055Q247.681 170.135 247.681 169.301L247.681 169.301Q247.681 168.147 247.092 167.546Q246.503 166.945 245.472 166.945L245.472 166.945Q244.613 166.945 243.951 167.423Q243.288 167.902 242.699 168.540L242.699 168.540L240.736 166.601Q241.890 165.374 243.092 164.748Q244.294 164.123 245.963 164.123L245.963 164.123Q247.117 164.123 248.061 164.479Q249.006 164.834 249.693 165.485Q250.380 166.135 250.748 167.043Q251.117 167.951 251.117 169.080L251.117 169.080Q251.117 170.061 250.699 171.080Q250.282 172.098 249.583 173.117Q248.883 174.135 247.988 175.153Q247.092 176.172 246.135 177.153L246.135 177.153Q246.724 177.080 247.448 177.018Q248.172 176.957 248.736 176.957L248.736 176.957L251.877 176.957L251.877 180Z"/></svg>