<svg version="1.1" xmlns="http://www.w3.org/2000/svg" xmlns:xlink="http://www.w3.org/1999/xlink" width="485.89121" height="367.71835" viewBox="0,0,485.89121,367.71835"><g transform="translate(2.94559,3.85915)"><g data-paper-data="{&quot;isPaintingLayer&quot;:true}" stroke-miterlimit="10" stroke-dasharray="" stroke-dashoffset="0" style="mix-blend-mode: normal"><path d="M-2.86648,-2.733l485.30278,-1.12615l0.50933,367.08698l-485.89121,0.63137z" fill="#ffffff" fill-rule="nonzero" stroke="none" stroke-width="1" stroke-linecap="butt" stroke-linejoin="miter" opacity="0.29331"/><g fill-rule="evenodd"><path d="M215.76913,232.35399c0,0.40353 -0.20177,0.75663 -0.35309,1.21061l-7.11234,20.73173c-0.45398,1.3115 -1.41239,2.01769 -2.52212,2.01769c-1.16016,0 -2.06813,-0.7062 -2.62299,-2.01769l-6.80969,-16.64591l-6.86014,16.64591c-0.50443,1.3115 -1.46283,2.01769 -2.57256,2.01769c-1.16016,0 -2.06813,-0.7062 -2.52211,-2.01769l-7.11234,-20.73173c-0.15133,-0.45398 -0.3531,-0.80708 -0.3531,-1.21061c0,-1.41238 1.10973,-2.52211 2.52211,-2.52211c0.9584,0 1.96724,0.6053 2.2699,1.46282l5.54863,17.15033l6.65836,-16.94856c0.40353,-1.05928 1.26106,-1.66459 2.42122,-1.66459c1.16017,0 1.96724,0.60531 2.42122,1.66459l6.65836,16.94856l5.54864,-17.15033c0.25222,-0.90796 1.31148,-1.46282 2.26989,-1.46282c1.41238,0 2.52211,1.10973 2.52211,2.52211z" fill="#ffffff" stroke="#ffffff" stroke-width="3.5" stroke-linecap="butt" stroke-linejoin="miter"/><path d="M220.30893,222.36643c0,-1.46283 1.26106,-2.67344 2.72388,-2.67344c1.46283,0 2.72388,1.21061 2.72388,2.67344c0,1.46283 -1.26105,2.67343 -2.72388,2.67343c-1.46282,0 -2.72388,-1.21061 -2.72388,-2.67343zM225.70624,232.55576v21.23614c0,1.51327 -1.21061,2.72388 -2.67343,2.72388c-1.46282,0 -2.67343,-1.21061 -2.67343,-2.72388v-21.23614c0,-1.51327 1.21061,-2.72388 2.67343,-2.72388c1.46283,0 2.67343,1.21061 2.67343,2.72388z" fill="#ffffff" stroke="#ffffff" stroke-width="3.5" stroke-linecap="butt" stroke-linejoin="miter"/><path d="M255.87065,241.38312v12.40876c0,1.46283 -1.16017,2.67344 -2.62299,2.67344c-1.46283,0 -2.67343,-1.21061 -2.67343,-2.67344v-12.40876c0,-5.04421 -2.8752,-7.06191 -6.15395,-7.06191c-4.84245,0 -6.96101,4.33802 -7.26366,6.50703v12.96364c0,1.46283 -1.21061,2.67344 -2.67343,2.67344c-1.46283,0 -2.67343,-1.21061 -2.67343,-2.67344v-21.23614c0,-1.51327 1.21061,-2.72388 2.67343,-2.72388c1.46282,0 2.67343,1.21061 2.67343,2.72388v3.32918c0.25222,-1.76547 3.27874,-6.15394 9.02914,-6.15394c4.89289,0 9.68489,3.07697 9.68489,11.65214z" fill="#ffffff" stroke="#ffffff" stroke-width="3.5" stroke-linecap="butt" stroke-linejoin="miter"/><path d="M279.0236,233.61503c0.30266,0.45398 0.70618,1.00884 0.70618,1.86636c0,1.26106 -0.9584,2.01768 -2.16901,2.01768c-0.80707,0 -1.5637,-0.35309 -2.32034,-1.36193c-1.00884,-1.26106 -2.42122,-2.11857 -4.48935,-2.11857c-2.52211,0 -4.03537,1.26106 -4.03537,3.07697c0,1.26106 0.70618,2.47166 3.37963,3.22829l3.12742,0.85751c4.28758,1.16017 7.51588,3.07697 7.51588,7.31411c0,5.29642 -4.99378,7.96986 -10.23976,7.96986c-4.38847,0 -7.46543,-1.91681 -8.77693,-3.98494c-0.25222,-0.35309 -1.05929,-1.36193 -1.05929,-2.57254c0,-1.05928 0.65575,-2.169 2.06813,-2.169c1.16016,0 1.76547,0.70618 2.2699,1.46282c1.26105,2.11857 3.32918,2.82476 5.49819,2.82476c2.92565,0 4.94333,-1.21061 4.94333,-3.2283c0,-1.51327 -1.05929,-2.62299 -3.5814,-3.32919l-3.37963,-0.90796c-4.89289,-1.36193 -7.01146,-3.98492 -7.01146,-7.41499c0,-4.74157 4.28758,-7.46543 9.18047,-7.46543c3.63183,0 6.75925,1.46283 8.3734,3.93449z" fill="#ffffff" stroke="#ffffff" stroke-width="3.5" stroke-linecap="butt" stroke-linejoin="miter"/><path d="M291.63414,223.72838v19.31935c0,1.61415 -1.36193,2.97608 -2.92565,2.97608c-1.66459,0 -3.02653,-1.36193 -3.02653,-2.97608v-19.31935c0,-1.61415 1.36194,-2.9761 3.02653,-2.9761c1.56371,0 2.92565,1.36194 2.92565,2.9761zM285.53064,253.18659c0,-1.71504 1.41238,-3.12742 3.17785,-3.12742c1.66459,0 3.07697,1.41238 3.07697,3.12742c0,1.76547 -1.41238,3.17785 -3.07697,3.17785c-1.76547,0 -3.17785,-1.41238 -3.17785,-3.17785z" fill="#ffffff" stroke="#ffffff" stroke-width="3.5" stroke-linecap="butt" stroke-linejoin="miter"/><path d="M215.76913,232.35399c0,0.40353 -0.20177,0.75663 -0.35309,1.21061l-7.11234,20.73173c-0.45398,1.3115 -1.41239,2.01769 -2.52212,2.01769c-1.16016,0 -2.06813,-0.7062 -2.62299,-2.01769l-6.80969,-16.64591l-6.86014,16.64591c-0.50443,1.3115 -1.46283,2.01769 -2.57256,2.01769c-1.16016,0 -2.06813,-0.7062 -2.52211,-2.01769l-7.11234,-20.73173c-0.15133,-0.45398 -0.3531,-0.80708 -0.3531,-1.21061c0,-1.41238 1.10973,-2.52211 2.52211,-2.52211c0.9584,0 1.96724,0.6053 2.2699,1.46282l5.54863,17.15033l6.65836,-16.94856c0.40353,-1.05928 1.26106,-1.66459 2.42122,-1.66459c1.16017,0 1.96724,0.60531 2.42122,1.66459l6.65836,16.94856l5.54864,-17.15033c0.25222,-0.90796 1.31148,-1.46282 2.26989,-1.46282c1.41238,0 2.52211,1.10973 2.52211,2.52211z" fill="#000000" stroke="none" stroke-width="1" stroke-linecap="round" stroke-linejoin="round"/><path d="M220.30893,222.36643c0,-1.46283 1.26106,-2.67344 2.72388,-2.67344c1.46283,0 2.72388,1.21061 2.72388,2.67344c0,1.46283 -1.26105,2.67343 -2.72388,2.67343c-1.46282,0 -2.72388,-1.21061 -2.72388,-2.67343zM225.70624,232.55576v21.23614c0,1.51327 -1.21061,2.72388 -2.67343,2.72388c-1.46282,0 -2.67343,-1.21061 -2.67343,-2.72388v-21.23614c0,-1.51327 1.21061,-2.72388 2.67343,-2.72388c1.46283,0 2.67343,1.21061 2.67343,2.72388z" fill="#000000" stroke="none" stroke-width="1" stroke-linecap="round" stroke-linejoin="round"/><path d="M255.87065,241.38312v12.40876c0,1.46283 -1.16017,2.67344 -2.62299,2.67344c-1.46283,0 -2.67343,-1.21061 -2.67343,-2.67344v-12.40876c0,-5.04421 -2.8752,-7.06191 -6.15395,-7.06191c-4.84245,0 -6.96101,4.33802 -7.26366,6.50703v12.96364c0,1.46283 -1.21061,2.67344 -2.67343,2.67344c-1.46283,0 -2.67343,-1.21061 -2.67343,-2.67344v-21.23614c0,-1.51327 1.21061,-2.72388 2.67343,-2.72388c1.46282,0 2.67343,1.21061 2.67343,2.72388v3.32918c0.25222,-1.76547 3.27874,-6.15394 9.02914,-6.15394c4.89289,0 9.68489,3.07697 9.68489,11.65214z" fill="#000000" stroke="none" stroke-width="1" stroke-linecap="round" stroke-linejoin="round"/><path d="M279.0236,233.61503c0.30266,0.45398 0.70618,1.00884 0.70618,1.86636c0,1.26106 -0.9584,2.01768 -2.16901,2.01768c-0.80707,0 -1.5637,-0.35309 -2.32034,-1.36193c-1.00884,-1.26106 -2.42122,-2.11857 -4.48935,-2.11857c-2.52211,0 -4.03537,1.26106 -4.03537,3.07697c0,1.26106 0.70618,2.47166 3.37963,3.22829l3.12742,0.85751c4.28758,1.16017 7.51588,3.07697 7.51588,7.31411c0,5.29642 -4.99378,7.96986 -10.23976,7.96986c-4.38847,0 -7.46543,-1.91681 -8.77693,-3.98494c-0.25222,-0.35309 -1.05929,-1.36193 -1.05929,-2.57254c0,-1.05928 0.65575,-2.169 2.06813,-2.169c1.16016,0 1.76547,0.70618 2.2699,1.46282c1.26105,2.11857 3.32918,2.82476 5.49819,2.82476c2.92565,0 4.94333,-1.21061 4.94333,-3.2283c0,-1.51327 -1.05929,-2.62299 -3.5814,-3.32919l-3.37963,-0.90796c-4.89289,-1.36193 -7.01146,-3.98492 -7.01146,-7.41499c0,-4.74157 4.28758,-7.46543 9.18047,-7.46543c3.63183,0 6.75925,1.46283 8.3734,3.93449z" fill="#000000" stroke="none" stroke-width="1" stroke-linecap="round" stroke-linejoin="round"/><path d="M291.63414,223.72838v19.31935c0,1.61415 -1.36193,2.97608 -2.92565,2.97608c-1.66459,0 -3.02653,-1.36193 -3.02653,-2.97608v-19.31935c0,-1.61415 1.36194,-2.9761 3.02653,-2.9761c1.56371,0 2.92565,1.36194 2.92565,2.9761zM285.53064,253.18659c0,-1.71504 1.41238,-3.12742 3.17785,-3.12742c1.66459,0 3.07697,1.41238 3.07697,3.12742c0,1.76547 -1.41238,3.17785 -3.07697,3.17785c-1.76547,0 -3.17785,-1.41238 -3.17785,-3.17785z" fill="#000000" stroke="none" stroke-width="1" stroke-linecap="round" stroke-linejoin="round"/></g><g fill-rule="evenodd"><path d="M205.45408,130.38194c0,0.50443 -0.15132,1.00884 -0.45398,1.46282l-10.69374,15.48574v13.66982c0,1.46283 -1.21061,2.67343 -2.67344,2.67343c-1.46282,0 -2.72388,-1.21061 -2.72388,-2.67343v-13.66982l-10.69374,-15.48574c-0.25222,-0.45398 -0.40353,-0.9584 -0.40353,-1.46282c0,-1.36193 1.10973,-2.47167 2.52211,-2.47167c0.80708,0 1.51327,0.40354 2.01769,1.05929l9.28136,13.72027l9.23092,-13.72027c0.50443,-0.65575 1.21061,-1.05929 2.06813,-1.05929c1.41238,0 2.52211,1.10974 2.52211,2.47167z" fill="#ffffff" stroke="#ffffff" stroke-width="3.5" stroke-linecap="butt" stroke-linejoin="miter"/><path d="M235.76983,150.30659c0,9.02914 -7.51588,13.41762 -13.31673,13.41762c-5.80085,0 -13.26629,-4.38848 -13.26629,-13.41762c0,-8.9787 7.46543,-13.46805 13.26629,-13.46805c5.80085,0 13.31673,4.48935 13.31673,13.46805zM214.48323,150.30659c0,5.69996 4.08581,8.77694 7.96986,8.77694c3.93449,0 8.02031,-3.07697 8.02031,-8.77694c0,-5.7504 -4.08582,-8.82737 -8.02031,-8.82737c-3.88405,0 -7.96986,3.07697 -7.96986,8.82737z" fill="#ffffff" stroke="#ffffff" stroke-width="3.5" stroke-linecap="butt" stroke-linejoin="miter"/><path d="M240.81404,152.07206v-12.40876c0,-1.46283 1.16016,-2.67344 2.62299,-2.67344c1.46283,0 2.67343,1.21061 2.67343,2.67344v12.40876c0,5.04421 2.87521,7.06191 6.15395,7.06191c4.84244,0 6.96101,-4.33803 7.26366,-6.50704v-12.96363c0,-1.46283 1.21061,-2.67344 2.67343,-2.67344c1.46283,0 2.67344,1.21061 2.67344,2.67344v21.23614c0,1.51327 -1.21061,2.72388 -2.67344,2.72388c-1.46283,0 -2.67343,-1.21061 -2.67343,-2.72388v-3.32919c-0.25221,1.76547 -3.27874,6.15395 -9.02915,6.15395c-4.89289,0 -9.6849,-3.07697 -9.6849,-11.65213z" fill="#ffffff" stroke="#ffffff" stroke-width="3.5" stroke-linecap="butt" stroke-linejoin="miter"/><path d="M287.3717,139.36064c0,1.51327 -1.15972,2.52211 -3.42962,2.52211c-4.4389,0 -7.31411,3.43006 -7.66721,6.1035v12.96364c0,1.46283 -1.21061,2.67344 -2.67343,2.67344c-1.46283,0 -2.67343,-1.21061 -2.67343,-2.67344v-21.23614c0,-1.51327 1.21061,-2.72388 2.67343,-2.72388c1.46283,0 2.67343,1.21061 2.67343,2.72388v3.32918c0.25222,-1.76547 3.43006,-6.15394 8.37339,-6.15394c1.76547,0 2.72344,1.10973 2.72344,2.47167z" fill="#ffffff" stroke="#ffffff" stroke-width="3.5" stroke-linecap="butt" stroke-linejoin="miter"/><path d="M205.45408,130.38194c0,0.50443 -0.15132,1.00884 -0.45398,1.46282l-10.69374,15.48574v13.66982c0,1.46283 -1.21061,2.67343 -2.67344,2.67343c-1.46282,0 -2.72388,-1.21061 -2.72388,-2.67343v-13.66982l-10.69374,-15.48574c-0.25222,-0.45398 -0.40353,-0.9584 -0.40353,-1.46282c0,-1.36193 1.10973,-2.47167 2.52211,-2.47167c0.80708,0 1.51327,0.40354 2.01769,1.05929l9.28136,13.72027l9.23092,-13.72027c0.50443,-0.65575 1.21061,-1.05929 2.06813,-1.05929c1.41238,0 2.52211,1.10974 2.52211,2.47167z" fill="#000000" stroke="none" stroke-width="1" stroke-linecap="round" stroke-linejoin="round"/><path d="M235.76983,150.30659c0,9.02914 -7.51588,13.41762 -13.31673,13.41762c-5.80085,0 -13.26629,-4.38848 -13.26629,-13.41762c0,-8.9787 7.46543,-13.46805 13.26629,-13.46805c5.80085,0 13.31673,4.48935 13.31673,13.46805zM214.48323,150.30659c0,5.69996 4.08581,8.77694 7.96986,8.77694c3.93449,0 8.02031,-3.07697 8.02031,-8.77694c0,-5.7504 -4.08582,-8.82737 -8.02031,-8.82737c-3.88405,0 -7.96986,3.07697 -7.96986,8.82737z" fill="#000000" stroke="none" stroke-width="1" stroke-linecap="round" stroke-linejoin="round"/><path d="M240.81404,152.07206v-12.40876c0,-1.46283 1.16016,-2.67344 2.62299,-2.67344c1.46283,0 2.67343,1.21061 2.67343,2.67344v12.40876c0,5.04421 2.87521,7.06191 6.15395,7.06191c4.84244,0 6.96101,-4.33803 7.26366,-6.50704v-12.96363c0,-1.46283 1.21061,-2.67344 2.67343,-2.67344c1.46283,0 2.67344,1.21061 2.67344,2.67344v21.23614c0,1.51327 -1.21061,2.72388 -2.67344,2.72388c-1.46283,0 -2.67343,-1.21061 -2.67343,-2.72388v-3.32919c-0.25221,1.76547 -3.27874,6.15395 -9.02915,6.15395c-4.89289,0 -9.6849,-3.07697 -9.6849,-11.65213z" fill="#000000" stroke="none" stroke-width="1" stroke-linecap="round" stroke-linejoin="round"/><path d="M287.3717,139.36064c0,1.51327 -1.15972,2.52211 -3.42962,2.52211c-4.4389,0 -7.31411,3.43006 -7.66721,6.1035v12.96364c0,1.46283 -1.21061,2.67344 -2.67343,2.67344c-1.46283,0 -2.67343,-1.21061 -2.67343,-2.67344v-21.23614c0,-1.51327 1.21061,-2.72388 2.67343,-2.72388c1.46283,0 2.67343,1.21061 2.67343,2.72388v3.32918c0.25222,-1.76547 3.43006,-6.15394 8.37339,-6.15394c1.76547,0 2.72344,1.10973 2.72344,2.47167z" fill="#000000" stroke="none" stroke-width="1" stroke-linecap="round" stroke-linejoin="round"/></g><g fill-rule="evenodd"><path d="M148.9082,193.89609c0,9.02914 -7.51588,13.41762 -13.31672,13.41762c-5.80085,0 -13.26629,-4.38848 -13.26629,-13.41762c0,-8.9787 7.46545,-13.46805 13.26629,-13.46805c5.80085,0 13.31673,4.48935 13.31673,13.46805zM127.62162,193.89609c0,5.69996 4.08582,8.77694 7.96986,8.77694c3.93449,0 8.0203,-3.07697 8.0203,-8.77694c0,-5.7504 -4.08581,-8.82737 -8.0203,-8.82737c-3.88404,0 -7.96986,3.07697 -7.96986,8.82737z" fill="#ffffff" stroke="#ffffff" stroke-width="3.5" stroke-linecap="butt" stroke-linejoin="miter"/><path d="M179.93012,193.84566c0,9.13002 -6.7088,13.46805 -12.30788,13.46805c-4.79201,0 -7.91942,-3.17785 -8.27252,-5.44775v2.72388c0,0.15132 0,0.3531 -0.05045,0.50443v9.07959c0,1.46283 -1.21061,2.67344 -2.67343,2.67344c-1.46283,0 -2.67344,-1.21061 -2.67344,-2.67344v-30.92104c0,-1.46283 1.26105,-2.67344 2.72388,-2.67344c1.46283,0 2.67344,1.21061 2.67344,2.67344v2.01768c1.3115,-2.92565 4.5398,-4.84244 8.27252,-4.84244c5.54864,0 12.30788,4.43891 12.30788,13.41762zM174.58327,193.84566c0,-5.95218 -4.13627,-8.82738 -7.81854,-8.82738c-3.43007,0 -7.66721,2.52212 -7.66721,8.82738c0,6.25484 4.23713,8.87782 7.66721,8.87782c3.68227,0 7.81854,-2.8752 7.81854,-8.87782z" fill="#ffffff" stroke="#ffffff" stroke-width="3.5" stroke-linecap="butt" stroke-linejoin="miter"/><path d="M210.95205,193.84566c0,9.13002 -6.7088,13.46805 -12.30788,13.46805c-4.79201,0 -7.91942,-3.17785 -8.27252,-5.44775v2.72388c0,0.15132 0,0.3531 -0.05045,0.50443v9.07959c0,1.46283 -1.21061,2.67344 -2.67343,2.67344c-1.46283,0 -2.67344,-1.21061 -2.67344,-2.67344v-30.92104c0,-1.46283 1.26106,-2.67344 2.72388,-2.67344c1.46283,0 2.67343,1.21061 2.67343,2.67344v2.01768c1.3115,-2.92565 4.5398,-4.84244 8.27252,-4.84244c5.54864,0 12.30788,4.43891 12.30788,13.41762zM205.60519,193.84566c0,-5.95218 -4.13627,-8.82738 -7.81854,-8.82738c-3.43007,0 -7.66721,2.52212 -7.66721,8.82738c0,6.25484 4.23713,8.87782 7.66721,8.87782c3.68227,0 7.81854,-2.8752 7.81854,-8.87782z" fill="#ffffff" stroke="#ffffff" stroke-width="3.5" stroke-linecap="butt" stroke-linejoin="miter"/><path d="M241.57045,193.89609c0,9.02914 -7.51588,13.41762 -13.31673,13.41762c-5.80085,0 -13.26629,-4.38848 -13.26629,-13.41762c0,-8.9787 7.46545,-13.46805 13.26629,-13.46805c5.80085,0 13.31673,4.48935 13.31673,13.46805zM220.28385,193.89609c0,5.69996 4.08582,8.77694 7.96986,8.77694c3.93449,0 8.02031,-3.07697 8.02031,-8.77694c0,-5.7504 -4.08582,-8.82737 -8.02031,-8.82737c-3.88404,0 -7.96986,3.07697 -7.96986,8.82737z" fill="#ffffff" stroke="#ffffff" stroke-width="3.5" stroke-linecap="butt" stroke-linejoin="miter"/><path d="M270.67556,192.13062v12.40876c0,1.46283 -1.16016,2.67344 -2.62299,2.67344c-1.46282,0 -2.67343,-1.21061 -2.67343,-2.67344v-12.40876c0,-5.04421 -2.87521,-7.06191 -6.15394,-7.06191c-4.84244,0 -6.96101,4.33802 -7.26366,6.50703v12.96364c0,1.46283 -1.21061,2.67344 -2.67344,2.67344c-1.46283,0 -2.67343,-1.21061 -2.67343,-2.67344v-21.23614c0,-1.51327 1.21061,-2.72388 2.67343,-2.72388c1.46283,0 2.67344,1.21061 2.67344,2.72388v3.32918c0.25221,-1.76547 3.27875,-6.15394 9.02915,-6.15394c4.89289,0 9.68489,3.07697 9.68489,11.65214z" fill="#ffffff" stroke="#ffffff" stroke-width="3.5" stroke-linecap="butt" stroke-linejoin="miter"/><path d="M301.44528,192.98814c0,2.06813 -1.16017,2.87521 -3.32919,2.87521l-16.89811,-0.05045c0.55486,4.69112 4.23714,7.01146 8.2725,7.01146c2.06813,0 3.48051,-0.50443 5.04423,-1.46283c0.85752,-0.45398 1.41238,-0.80707 2.11858,-0.80707c1.16016,0 1.86636,0.80708 1.86636,1.91681c0,0.65575 -0.25222,1.36193 -1.36194,2.2699c-1.91681,1.56371 -4.69112,2.47167 -7.86898,2.47167c-6.55748,0 -13.56895,-4.18671 -13.56895,-13.31673c0,-9.07959 7.31411,-13.46805 13.06452,-13.46805c5.75041,0 12.66098,4.53979 12.66098,12.5601zM281.21797,191.97928h15.03177c-0.45398,-4.79201 -4.08581,-6.91057 -7.46543,-6.91057c-3.32918,0 -7.11234,2.11857 -7.56632,6.91057z" fill="#ffffff" stroke="#ffffff" stroke-width="3.5" stroke-linecap="butt" stroke-linejoin="miter"/><path d="M330.5504,192.13062v12.40876c0,1.46283 -1.16017,2.67344 -2.62299,2.67344c-1.46283,0 -2.67344,-1.21061 -2.67344,-2.67344v-12.40876c0,-5.04421 -2.8752,-7.06191 -6.15394,-7.06191c-4.84245,0 -6.96102,4.33802 -7.26366,6.50703v12.96364c0,1.46283 -1.21061,2.67344 -2.67343,2.67344c-1.46283,0 -2.67344,-1.21061 -2.67344,-2.67344v-21.23614c0,-1.51327 1.21061,-2.72388 2.67344,-2.72388c1.46282,0 2.67343,1.21061 2.67343,2.72388v3.32918c0.25222,-1.76547 3.27874,-6.15394 9.02914,-6.15394c4.89289,0 9.6849,3.07697 9.6849,11.65214z" fill="#ffffff" stroke="#ffffff" stroke-width="3.5" stroke-linecap="butt" stroke-linejoin="miter"/><path d="M349.86975,204.23674c0,2.06813 -2.37077,2.97608 -5.19554,2.97608c-3.02653,0 -6.00262,-1.05929 -6.00262,-6.86014v-15.33442h-1.91681c-1.3115,0 -2.16901,-0.85752 -2.16901,-2.16901c0,-1.26106 0.85752,-2.11857 2.16901,-2.11857h1.91681v-3.93449c0,-1.41238 1.21061,-2.62299 2.62299,-2.62299c1.46283,0 2.67344,1.21061 2.67344,2.62299v3.93449h3.68227c1.3115,0 2.21945,0.85752 2.21945,2.11857c0,1.3115 -0.90796,2.16901 -2.21945,2.16901h-3.68227v15.38486c0,1.51327 0.6053,2.21945 1.76547,2.21945c0.65575,0 1.41238,-0.20177 1.96724,-0.25221c1.26105,-0.20177 2.16901,0.6053 2.16901,1.86636z" fill="#ffffff" stroke="#ffffff" stroke-width="3.5" stroke-linecap="butt" stroke-linejoin="miter"/><path d="M148.9082,193.89609c0,9.02914 -7.51588,13.41762 -13.31672,13.41762c-5.80085,0 -13.26629,-4.38848 -13.26629,-13.41762c0,-8.9787 7.46545,-13.46805 13.26629,-13.46805c5.80085,0 13.31673,4.48935 13.31673,13.46805zM127.62162,193.89609c0,5.69996 4.08582,8.77694 7.96986,8.77694c3.93449,0 8.0203,-3.07697 8.0203,-8.77694c0,-5.7504 -4.08581,-8.82737 -8.0203,-8.82737c-3.88404,0 -7.96986,3.07697 -7.96986,8.82737z" fill="#000000" stroke="none" stroke-width="1" stroke-linecap="round" stroke-linejoin="round"/><path d="M179.93012,193.84566c0,9.13002 -6.7088,13.46805 -12.30788,13.46805c-4.79201,0 -7.91942,-3.17785 -8.27252,-5.44775v2.72388c0,0.15132 0,0.3531 -0.05045,0.50443v9.07959c0,1.46283 -1.21061,2.67344 -2.67343,2.67344c-1.46283,0 -2.67344,-1.21061 -2.67344,-2.67344v-30.92104c0,-1.46283 1.26105,-2.67344 2.72388,-2.67344c1.46283,0 2.67344,1.21061 2.67344,2.67344v2.01768c1.3115,-2.92565 4.5398,-4.84244 8.27252,-4.84244c5.54864,0 12.30788,4.43891 12.30788,13.41762zM174.58327,193.84566c0,-5.95218 -4.13627,-8.82738 -7.81854,-8.82738c-3.43007,0 -7.66721,2.52212 -7.66721,8.82738c0,6.25484 4.23713,8.87782 7.66721,8.87782c3.68227,0 7.81854,-2.8752 7.81854,-8.87782z" fill="#000000" stroke="none" stroke-width="1" stroke-linecap="round" stroke-linejoin="round"/><path d="M210.95205,193.84566c0,9.13002 -6.7088,13.46805 -12.30788,13.46805c-4.79201,0 -7.91942,-3.17785 -8.27252,-5.44775v2.72388c0,0.15132 0,0.3531 -0.05045,0.50443v9.07959c0,1.46283 -1.21061,2.67344 -2.67343,2.67344c-1.46283,0 -2.67344,-1.21061 -2.67344,-2.67344v-30.92104c0,-1.46283 1.26106,-2.67344 2.72388,-2.67344c1.46283,0 2.67343,1.21061 2.67343,2.67344v2.01768c1.3115,-2.92565 4.5398,-4.84244 8.27252,-4.84244c5.54864,0 12.30788,4.43891 12.30788,13.41762zM205.60519,193.84566c0,-5.95218 -4.13627,-8.82738 -7.81854,-8.82738c-3.43007,0 -7.66721,2.52212 -7.66721,8.82738c0,6.25484 4.23713,8.87782 7.66721,8.87782c3.68227,0 7.81854,-2.8752 7.81854,-8.87782z" fill="#000000" stroke="none" stroke-width="1" stroke-linecap="round" stroke-linejoin="round"/><path d="M241.57045,193.89609c0,9.02914 -7.51588,13.41762 -13.31673,13.41762c-5.80085,0 -13.26629,-4.38848 -13.26629,-13.41762c0,-8.9787 7.46545,-13.46805 13.26629,-13.46805c5.80085,0 13.31673,4.48935 13.31673,13.46805zM220.28385,193.89609c0,5.69996 4.08582,8.77694 7.96986,8.77694c3.93449,0 8.02031,-3.07697 8.02031,-8.77694c0,-5.7504 -4.08582,-8.82737 -8.02031,-8.82737c-3.88404,0 -7.96986,3.07697 -7.96986,8.82737z" fill="#000000" stroke="none" stroke-width="1" stroke-linecap="round" stroke-linejoin="round"/><path d="M270.67556,192.13062v12.40876c0,1.46283 -1.16016,2.67344 -2.62299,2.67344c-1.46282,0 -2.67343,-1.21061 -2.67343,-2.67344v-12.40876c0,-5.04421 -2.87521,-7.06191 -6.15394,-7.06191c-4.84244,0 -6.96101,4.33802 -7.26366,6.50703v12.96364c0,1.46283 -1.21061,2.67344 -2.67344,2.67344c-1.46283,0 -2.67343,-1.21061 -2.67343,-2.67344v-21.23614c0,-1.51327 1.21061,-2.72388 2.67343,-2.72388c1.46283,0 2.67344,1.21061 2.67344,2.72388v3.32918c0.25221,-1.76547 3.27875,-6.15394 9.02915,-6.15394c4.89289,0 9.68489,3.07697 9.68489,11.65214z" fill="#000000" stroke="none" stroke-width="1" stroke-linecap="round" stroke-linejoin="round"/><path d="M301.44528,192.98814c0,2.06813 -1.16017,2.87521 -3.32919,2.87521l-16.89811,-0.05045c0.55486,4.69112 4.23714,7.01146 8.2725,7.01146c2.06813,0 3.48051,-0.50443 5.04423,-1.46283c0.85752,-0.45398 1.41238,-0.80707 2.11858,-0.80707c1.16016,0 1.86636,0.80708 1.86636,1.91681c0,0.65575 -0.25222,1.36193 -1.36194,2.2699c-1.91681,1.56371 -4.69112,2.47167 -7.86898,2.47167c-6.55748,0 -13.56895,-4.18671 -13.56895,-13.31673c0,-9.07959 7.31411,-13.46805 13.06452,-13.46805c5.75041,0 12.66098,4.53979 12.66098,12.5601zM281.21797,191.97928h15.03177c-0.45398,-4.79201 -4.08581,-6.91057 -7.46543,-6.91057c-3.32918,0 -7.11234,2.11857 -7.56632,6.91057z" fill="#000000" stroke="none" stroke-width="1" stroke-linecap="round" stroke-linejoin="round"/><path d="M330.5504,192.13062v12.40876c0,1.46283 -1.16017,2.67344 -2.62299,2.67344c-1.46283,0 -2.67344,-1.21061 -2.67344,-2.67344v-12.40876c0,-5.04421 -2.8752,-7.06191 -6.15394,-7.06191c-4.84245,0 -6.96102,4.33802 -7.26366,6.50703v12.96364c0,1.46283 -1.21061,2.67344 -2.67343,2.67344c-1.46283,0 -2.67344,-1.21061 -2.67344,-2.67344v-21.23614c0,-1.51327 1.21061,-2.72388 2.67344,-2.72388c1.46282,0 2.67343,1.21061 2.67343,2.72388v3.32918c0.25222,-1.76547 3.27874,-6.15394 9.02914,-6.15394c4.89289,0 9.6849,3.07697 9.6849,11.65214z" fill="#000000" stroke="none" stroke-width="1" stroke-linecap="round" stroke-linejoin="round"/><path d="M349.86975,204.23674c0,2.06813 -2.37077,2.97608 -5.19554,2.97608c-3.02653,0 -6.00262,-1.05929 -6.00262,-6.86014v-15.33442h-1.91681c-1.3115,0 -2.16901,-0.85752 -2.16901,-2.16901c0,-1.26106 0.85752,-2.11857 2.16901,-2.11857h1.91681v-3.93449c0,-1.41238 1.21061,-2.62299 2.62299,-2.62299c1.46283,0 2.67344,1.21061 2.67344,2.62299v3.93449h3.68227c1.3115,0 2.21945,0.85752 2.21945,2.11857c0,1.3115 -0.90796,2.16901 -2.21945,2.16901h-3.68227v15.38486c0,1.51327 0.6053,2.21945 1.76547,2.21945c0.65575,0 1.41238,-0.20177 1.96724,-0.25221c1.26105,-0.20177 2.16901,0.6053 2.16901,1.86636z" fill="#000000" stroke="none" stroke-width="1" stroke-linecap="round" stroke-linejoin="round"/></g><path d="M64.76231,300.13035v-242.6368h350.47537v242.6368z" fill="none" fill-rule="nonzero" stroke="none" stroke-width="0" stroke-linecap="butt" stroke-linejoin="miter"/></g></g></svg>