<svg width="480px" height="360px" xmlns="http://www.w3.org/2000/svg"><path fill="#F00" d="M240.902 175.341L240.902 175.341Q240.902 173.659 241.463 172.280Q242.024 170.902 242.915 169.915Q243.805 168.927 244.939 168.390Q246.073 167.854 247.244 167.854L247.244 167.854Q248.244 167.854 248.939 168.183Q249.634 168.512 250.073 169.085Q250.512 169.659 250.707 170.451Q250.902 171.244 250.902 172.146L250.902 172.146Q250.902 172.854 250.756 173.488Q250.610 174.122 250.488 174.463L250.488 174.463L242.780 174.463Q242.610 175.610 242.805 176.427Q243 177.244 243.451 177.780Q243.902 178.317 244.561 178.561Q245.220 178.805 246 178.805L246 178.805Q246.707 178.805 247.402 178.500Q248.098 178.195 248.659 177.780L248.659 177.780L249.390 179.024Q248.683 179.537 247.707 179.915Q246.732 180.293 245.561 180.293L245.561 180.293Q243.439 180.293 242.171 179.012Q240.902 177.732 240.902 175.341ZM242.976 173.195L242.976 173.195L249.195 173.195Q249.244 172.902 249.280 172.610Q249.317 172.317 249.317 171.976L249.317 171.976Q249.317 171.463 249.195 170.988Q249.073 170.512 248.805 170.146Q248.537 169.780 248.098 169.561Q247.659 169.341 247.024 169.341L247.024 169.341Q246.366 169.341 245.744 169.610Q245.122 169.878 244.585 170.390Q244.049 170.902 243.622 171.610Q243.195 172.317 242.976 173.195Z"/></svg>