<svg width="480px" height="360px" xmlns="http://www.w3.org/2000/svg"><path fill="#F00" d="M245.963 180.294L245.963 180.294Q244.049 180.294 242.724 179.693Q241.399 179.092 240.540 178.086L240.540 178.086L242.209 175.804Q242.920 176.491 243.767 176.933Q244.613 177.374 245.620 177.374L245.620 177.374Q246.773 177.374 247.460 176.896Q248.147 176.417 248.147 175.534L248.147 175.534Q248.147 175.018 247.963 174.601Q247.779 174.184 247.313 173.902Q246.847 173.620 246.037 173.460Q245.227 173.301 243.951 173.301L243.951 173.301L243.951 170.748Q245.006 170.748 245.706 170.601Q246.405 170.454 246.834 170.172Q247.264 169.890 247.448 169.509Q247.632 169.129 247.632 168.663L247.632 168.663Q247.632 167.853 247.141 167.399Q246.650 166.945 245.718 166.945L245.718 166.945Q244.883 166.945 244.209 167.313Q243.534 167.681 242.798 168.319L242.798 168.319L240.982 166.110Q242.061 165.178 243.252 164.650Q244.442 164.123 245.890 164.123L245.890 164.123Q247.092 164.123 248.086 164.405Q249.080 164.687 249.779 165.239Q250.479 165.791 250.871 166.577Q251.264 167.362 251.264 168.393L251.264 168.393Q251.264 169.620 250.589 170.466Q249.914 171.313 248.663 171.853L248.663 171.853L248.663 171.951Q250.012 172.344 250.883 173.288Q251.755 174.233 251.755 175.755L251.755 175.755Q251.755 176.834 251.288 177.681Q250.822 178.528 250.037 179.104Q249.252 179.681 248.196 179.988Q247.141 180.294 245.963 180.294Z"/></svg>