<svg width="480px" height="360px" xmlns="http://www.w3.org/2000/svg"><path fill="#F00" d="M247 180.293L247 180.293Q245.659 180.293 244.622 179.817Q243.585 179.341 242.890 178.463Q242.195 177.585 241.829 176.341Q241.463 175.098 241.463 173.585L241.463 173.585Q241.463 171.756 242.037 169.988Q242.610 168.220 243.634 166.817Q244.659 165.415 246.085 164.561Q247.512 163.707 249.244 163.707L249.244 163.707Q250.585 163.707 251.622 164.183Q252.659 164.659 253.354 165.537Q254.049 166.415 254.415 167.646Q254.780 168.878 254.780 170.390L254.780 170.390Q254.780 172.220 254.207 174Q253.634 175.780 252.610 177.183Q251.585 178.585 250.146 179.439Q248.707 180.293 247 180.293ZM247.098 178.659L247.098 178.659Q248.390 178.659 249.451 177.915Q250.512 177.171 251.268 176Q252.024 174.829 252.439 173.390Q252.854 171.951 252.854 170.561L252.854 170.561Q252.854 168.195 251.951 166.768Q251.049 165.341 249.146 165.341L249.146 165.341Q247.854 165.341 246.793 166.073Q245.732 166.805 244.976 167.976Q244.220 169.146 243.805 170.585Q243.390 172.024 243.390 173.439L243.390 173.439Q243.390 174.610 243.610 175.573Q243.829 176.537 244.280 177.220Q244.732 177.902 245.439 178.280Q246.146 178.659 247.098 178.659Z"/></svg>