<svg width="480px" height="360px" xmlns="http://www.w3.org/2000/svg"><path fill="#F00" d="M244.024 180L242.195 180L242.195 164L244.634 164L247.707 172.537Q248 173.366 248.280 174.207Q248.561 175.049 248.854 175.878L248.854 175.878L248.951 175.878Q249.244 175.049 249.500 174.207Q249.756 173.366 250.049 172.537L250.049 172.537L253.073 164L255.537 164L255.537 180L253.634 180L253.634 171.195Q253.634 170.122 253.732 168.829Q253.829 167.537 253.902 166.463L253.902 166.463L253.805 166.463L252.537 170.098L249.512 178.390L248.171 178.390L245.146 170.098L243.878 166.463L243.780 166.463Q243.854 167.537 243.939 168.829Q244.024 170.122 244.024 171.195L244.024 171.195L244.024 180Z"/></svg>