<svg width="480px" height="360px" xmlns="http://www.w3.org/2000/svg"><path fill="#F00" d="M246.610 180.293L246.610 180.293Q244.488 180.293 243.256 178.732Q242.024 177.171 242 174.146L242 174.146L240.488 174.146L240.732 173.171L242.049 173.073Q242.098 172.610 242.146 172.183Q242.195 171.756 242.293 171.341L242.293 171.341L241.049 171.341L241.268 170.366L242.561 170.293Q242.976 168.902 243.659 167.756Q244.341 166.610 245.207 165.793Q246.073 164.976 247.085 164.524Q248.098 164.073 249.195 164.073L249.195 164.073Q250.537 164.073 251.354 164.756Q252.171 165.439 252.683 166.415L252.683 166.415L251.268 167.317Q250.902 166.561 250.390 166.085Q249.878 165.610 249.024 165.610L249.024 165.610Q248.268 165.610 247.573 165.951Q246.878 166.293 246.293 166.915Q245.707 167.537 245.232 168.390Q244.756 169.244 244.439 170.268L244.439 170.268L250.537 170.268L250.317 171.341L244.171 171.341Q244.073 171.756 244.024 172.183Q243.976 172.610 243.927 173.049L243.927 173.049L249.049 173.049L248.805 174.146L243.878 174.146Q243.902 176.390 244.720 177.561Q245.537 178.732 246.951 178.732L246.951 178.732Q247.805 178.732 248.524 178.329Q249.244 177.927 249.854 177.341L249.854 177.341L250.780 178.488Q249.878 179.341 248.854 179.817Q247.829 180.293 246.610 180.293Z"/></svg>