<svg width="480px" height="360px" xmlns="http://www.w3.org/2000/svg"><path fill="#F00" d="M246.096 170.227L246.096 170.227Q248.624 170.227 250.074 171.480Q251.524 172.733 251.524 174.911L251.524 174.911Q251.524 177.395 249.943 178.807Q248.361 180.219 245.581 180.219L245.581 180.219Q242.878 180.219 241.456 179.354L241.456 179.354L241.456 177.603Q242.222 178.096 243.360 178.375Q244.498 178.654 245.603 178.654L245.603 178.654Q247.529 178.654 248.596 177.746Q249.663 176.837 249.663 175.119L249.663 175.119Q249.663 171.770 245.560 171.770L245.560 171.770Q244.520 171.770 242.780 172.088L242.780 172.088L241.839 171.486L242.440 164L250.397 164L250.397 165.674L243.995 165.674L243.590 170.479Q244.848 170.227 246.096 170.227Z"/></svg>