<svg width="480px" height="360px" xmlns="http://www.w3.org/2000/svg"><path fill="#F00" d="M246.293 180L242.195 180L242.195 164L246.195 164Q249.902 164 251.829 166.049Q253.756 168.098 253.756 171.927L253.756 171.927Q253.756 173.829 253.268 175.329Q252.780 176.829 251.829 177.866Q250.878 178.902 249.488 179.451Q248.098 180 246.293 180L246.293 180ZM244.220 165.659L244.220 178.341L246.049 178.341Q248.854 178.341 250.256 176.659Q251.659 174.976 251.659 171.927L251.659 171.927Q251.659 168.878 250.256 167.268Q248.854 165.659 246.049 165.659L246.049 165.659L244.220 165.659Z"/></svg>