<svg width="480px" height="360px" xmlns="http://www.w3.org/2000/svg"><path fill="#F00" d="M244.561 180.293L244.561 180.293Q242.951 180.293 241.732 179.500Q240.512 178.707 239.780 177.610L239.780 177.610L241.024 176.634Q241.585 177.463 242.476 178.098Q243.366 178.732 244.585 178.732L244.585 178.732Q245.415 178.732 246.110 178.488Q246.805 178.244 247.305 177.817Q247.805 177.390 248.085 176.805Q248.366 176.220 248.366 175.512L248.366 175.512Q248.366 174.902 248.122 174.378Q247.878 173.854 247.341 173.463Q246.805 173.073 245.951 172.866Q245.098 172.659 243.854 172.659L243.854 172.659L244.146 171.244Q245.585 171.244 246.561 170.951Q247.537 170.659 248.134 170.195Q248.732 169.732 248.988 169.159Q249.244 168.585 249.244 168.024L249.244 168.024Q249.244 167 248.634 166.341Q248.024 165.683 246.780 165.683L246.780 165.683Q246.073 165.683 245.256 166.024Q244.439 166.366 243.732 166.927L243.732 166.927L242.780 165.683Q244.805 164.146 247.073 164.146L247.073 164.146Q249.049 164.146 250.098 165.122Q251.146 166.098 251.146 167.707L251.146 167.707Q251.146 169.195 250.244 170.317Q249.341 171.439 247.512 171.951L247.512 171.951L247.512 172.049Q248.805 172.463 249.524 173.341Q250.244 174.220 250.244 175.439L250.244 175.439Q250.244 176.561 249.817 177.451Q249.390 178.341 248.634 178.976Q247.878 179.610 246.829 179.951Q245.780 180.293 244.561 180.293Z"/></svg>