<svg width="480px" height="360px" xmlns="http://www.w3.org/2000/svg"><path fill="#F00" d="M245.659 180.293L245.659 180.293Q244.561 180.293 243.671 179.963Q242.780 179.634 242.134 179.049Q241.488 178.463 241.134 177.646Q240.780 176.829 240.780 175.854L240.780 175.854Q240.780 175.049 241.037 174.390Q241.293 173.732 241.732 173.171Q242.171 172.610 242.744 172.134Q243.317 171.659 243.927 171.244L243.927 171.244Q243.439 170.244 243.159 169.305Q242.878 168.366 242.878 167.488L242.878 167.488Q242.878 166.683 243.146 166Q243.415 165.317 243.902 164.805Q244.390 164.293 245.073 164Q245.756 163.707 246.585 163.707L246.585 163.707Q248.073 163.707 248.902 164.585Q249.732 165.463 249.732 166.878L249.732 166.878Q249.732 167.659 249.415 168.317Q249.098 168.976 248.585 169.549Q248.073 170.122 247.427 170.622Q246.780 171.122 246.122 171.610L246.122 171.610Q246.902 172.854 247.963 174Q249.024 175.146 250.171 176.098L250.171 176.098Q250.902 175.098 251.476 173.927Q252.049 172.756 252.415 171.366L252.415 171.366L254.293 171.366Q253.805 172.951 253.122 174.390Q252.439 175.829 251.488 177.098L251.488 177.098Q252.317 177.659 253.073 178.049Q253.829 178.439 254.488 178.634L254.488 178.634L253.951 180.293Q253.098 180.049 252.171 179.598Q251.244 179.146 250.268 178.463L250.268 178.463Q249.341 179.293 248.207 179.793Q247.073 180.293 245.659 180.293ZM244.610 167.463L244.610 167.463Q244.610 168.122 244.817 168.829Q245.024 169.537 245.366 170.268L245.366 170.268Q245.902 169.902 246.402 169.524Q246.902 169.146 247.280 168.744Q247.659 168.341 247.878 167.890Q248.098 167.439 248.098 166.902L248.098 166.902Q248.098 166.195 247.744 165.671Q247.390 165.146 246.585 165.146L246.585 165.146Q245.683 165.146 245.146 165.805Q244.610 166.463 244.610 167.463ZM245.878 178.683L245.878 178.683Q246.707 178.683 247.463 178.341Q248.220 178 248.927 177.390L248.927 177.390Q247.756 176.366 246.671 175.159Q245.585 173.951 244.732 172.634L244.732 172.634Q243.878 173.317 243.305 174.061Q242.732 174.805 242.732 175.732L242.732 175.732Q242.732 176.390 242.976 176.939Q243.220 177.488 243.646 177.878Q244.073 178.268 244.646 178.476Q245.220 178.683 245.878 178.683Z"/></svg>