<svg width="480px" height="360px" xmlns="http://www.w3.org/2000/svg"><path fill="#F00" d="M245.463 180.293L245.463 180.293Q243.561 180.293 242.695 179.122Q241.829 177.951 241.829 175.659L241.829 175.659L241.829 168.146L243.854 168.146L243.854 175.390Q243.854 177.073 244.378 177.817Q244.902 178.561 246.073 178.561L246.073 178.561Q247 178.561 247.707 178.085Q248.415 177.610 249.268 176.561L249.268 176.561L249.268 168.146L251.268 168.146L251.268 180L249.610 180L249.439 178.146L249.366 178.146Q248.537 179.122 247.622 179.707Q246.707 180.293 245.463 180.293Z"/></svg>