<svg width="480px" height="360px" xmlns="http://www.w3.org/2000/svg"><path fill="#F00" d="M245.707 180.293L245.707 180.293Q244.780 180.293 244.012 180.110Q243.244 179.927 242.622 179.634Q242 179.341 241.500 178.963Q241 178.585 240.610 178.171L240.610 178.171L241.585 176.854Q242.268 177.561 243.207 178.098Q244.146 178.634 245.512 178.634L245.512 178.634Q246.220 178.634 246.841 178.378Q247.463 178.122 247.927 177.659Q248.390 177.195 248.659 176.537Q248.927 175.878 248.927 175.073L248.927 175.073Q248.927 173.463 248.024 172.561Q247.122 171.659 245.610 171.659L245.610 171.659Q244.805 171.659 244.232 171.902Q243.659 172.146 242.951 172.610L242.951 172.610L241.878 171.927L242.390 164.439L250.171 164.439L250.171 166.171L244.146 166.171L243.732 170.780Q244.293 170.488 244.854 170.317Q245.415 170.146 246.122 170.146L246.122 170.146Q247.122 170.146 248 170.439Q248.878 170.732 249.537 171.329Q250.195 171.927 250.573 172.841Q250.951 173.756 250.951 175.024L250.951 175.024Q250.951 176.293 250.512 177.268Q250.073 178.244 249.341 178.915Q248.610 179.585 247.671 179.939Q246.732 180.293 245.707 180.293Z"/></svg>