<svg width="480px" height="360px" xmlns="http://www.w3.org/2000/svg"><path fill="#F00" d="M246.457 178.698L246.457 178.698Q248.274 178.698 249.105 177.724Q249.937 176.750 249.992 174.440L249.992 174.440L249.992 174.036Q249.992 171.518 249.138 170.413Q248.285 169.308 246.435 169.308L246.435 169.308Q244.837 169.308 243.989 170.550Q243.141 171.792 243.141 174.057L243.141 174.057Q243.141 176.323 243.978 177.510Q244.815 178.698 246.457 178.698ZM246.183 180.219L246.183 180.219Q243.863 180.219 242.561 178.588Q241.259 176.958 241.259 174.036L241.259 174.036Q241.259 171.092 242.572 169.439Q243.885 167.787 246.227 167.787L246.227 167.787Q248.689 167.787 250.014 169.647L250.014 169.647L250.112 169.647L250.375 168.005L251.808 168.005L251.808 185.384L249.992 185.384L249.992 180.252Q249.992 179.157 250.112 178.391L250.112 178.391L249.970 178.391Q248.711 180.219 246.183 180.219Z"/></svg>