<svg width="480px" height="360px" xmlns="http://www.w3.org/2000/svg"><path fill="#F00" d="M243.756 172.683L243.756 172.683Q243.756 174.073 244.256 174.976Q244.756 175.878 245.780 176.146L245.780 176.146L247.463 167.732Q246.732 167.854 246.061 168.268Q245.390 168.683 244.878 169.329Q244.366 169.976 244.061 170.829Q243.756 171.683 243.756 172.683ZM246.171 180.341L244.951 180.341L245.463 177.756Q243.805 177.512 242.854 176.293Q241.902 175.073 241.902 173L241.902 173Q241.902 171.488 242.415 170.256Q242.927 169.024 243.768 168.146Q244.610 167.268 245.659 166.756Q246.707 166.244 247.780 166.146L247.780 166.146L248.268 163.659L249.463 163.659L248.976 166.171Q249.878 166.293 250.524 166.756Q251.171 167.220 251.659 167.780L251.659 167.780L250.512 168.878Q250.098 168.390 249.671 168.098Q249.244 167.805 248.659 167.707L248.659 167.707L246.976 176.220Q247.756 176.171 248.415 175.878Q249.073 175.585 249.634 175.171L249.634 175.171L250.293 176.439Q249.512 176.927 248.659 177.317Q247.805 177.707 246.683 177.780L246.683 177.780L246.171 180.341Z"/></svg>