<svg width="480px" height="360px" xmlns="http://www.w3.org/2000/svg"><path fill="#F00" d="M246.391 163.770L246.391 163.770Q248.580 163.770 249.860 164.788Q251.141 165.806 251.141 167.601L251.141 167.601Q251.141 168.782 250.408 169.756Q249.674 170.731 248.066 171.529L248.066 171.529Q250.014 172.460 250.834 173.483Q251.655 174.506 251.655 175.852L251.655 175.852Q251.655 177.844 250.265 179.031Q248.876 180.219 246.457 180.219L246.457 180.219Q243.896 180.219 242.517 179.097Q241.138 177.975 241.138 175.918L241.138 175.918Q241.138 173.171 244.487 171.639L244.487 171.639Q242.977 170.785 242.320 169.795Q241.663 168.804 241.663 167.579L241.663 167.579Q241.663 165.839 242.949 164.804Q244.235 163.770 246.391 163.770ZM242.933 175.962L242.933 175.962Q242.933 177.275 243.847 178.008Q244.761 178.741 246.413 178.741L246.413 178.741Q248.044 178.741 248.952 177.975Q249.860 177.209 249.860 175.874L249.860 175.874Q249.860 174.813 249.007 173.986Q248.153 173.160 246.030 172.383L246.030 172.383Q244.399 173.083 243.666 173.932Q242.933 174.780 242.933 175.962ZM246.369 165.248L246.369 165.248Q245.001 165.248 244.224 165.904Q243.447 166.561 243.447 167.655L243.447 167.655Q243.447 168.662 244.093 169.384Q244.739 170.107 246.479 170.829L246.479 170.829Q248.044 170.172 248.695 169.417Q249.346 168.662 249.346 167.655L249.346 167.655Q249.346 166.550 248.553 165.899Q247.759 165.248 246.369 165.248Z"/></svg>