<svg width="480px" height="360px" xmlns="http://www.w3.org/2000/svg"><path fill="#F00" d="M244.195 183.829L242.976 184.293Q242.390 182.732 241.988 180.756Q241.585 178.780 241.585 176.756L241.585 176.756Q241.585 174.634 241.963 172.732Q242.341 170.829 243.073 169.049Q243.805 167.268 244.854 165.573Q245.902 163.878 247.268 162.171L247.268 162.171L248.366 162.780Q245.780 166.073 244.463 169.585Q243.146 173.098 243.146 176.951L243.146 176.951Q243.146 177.805 243.207 178.720Q243.268 179.634 243.402 180.537Q243.537 181.439 243.732 182.293Q243.927 183.146 244.195 183.829L244.195 183.829Z"/></svg>