<svg width="480px" height="360px" xmlns="http://www.w3.org/2000/svg"><path fill="#F00" d="M245.146 180L240.854 180L244.049 164L247.024 164Q250.366 164 252.085 165.646Q253.805 167.293 253.805 170.244L253.805 170.244Q253.805 172.415 253.207 174.220Q252.610 176.024 251.500 177.305Q250.390 178.585 248.780 179.293Q247.171 180 245.146 180L245.146 180ZM245.634 165.537L243.049 178.439L245.146 178.439Q246.707 178.439 247.951 177.841Q249.195 177.244 250.073 176.183Q250.951 175.122 251.415 173.634Q251.878 172.146 251.878 170.366L251.878 170.366Q251.878 168.073 250.634 166.805Q249.390 165.537 246.951 165.537L246.951 165.537L245.634 165.537Z"/></svg>