<svg width="480px" height="360px" xmlns="http://www.w3.org/2000/svg"><path fill="#F00" d="M246.282 180.294L246.282 180.294Q245.153 180.294 244.356 179.951Q243.558 179.607 243.055 178.994Q242.552 178.380 242.319 177.509Q242.086 176.638 242.086 175.583L242.086 175.583L242.086 170.650L240.417 170.650L240.417 167.975L242.282 167.828L242.699 164.589L245.693 164.589L245.693 167.828L248.613 167.828L248.613 170.650L245.693 170.650L245.693 175.534Q245.693 176.564 246.123 177.018Q246.552 177.472 247.264 177.472L247.264 177.472Q247.558 177.472 247.865 177.399Q248.172 177.325 248.417 177.227L248.417 177.227L248.982 179.853Q248.491 180 247.828 180.147Q247.166 180.294 246.282 180.294Z"/></svg>