<svg width="480px" height="360px" xmlns="http://www.w3.org/2000/svg"><path fill="#F00" d="M260.443 164L256.164 180L254.326 180L251.097 169.286Q250.867 168.575 250.583 167.491Q250.298 166.408 250.287 166.189L250.287 166.189Q250.047 167.633 249.521 169.352L249.521 169.352L246.391 180L244.553 180L240.295 164L242.265 164L244.793 173.882Q245.319 175.962 245.560 177.647L245.560 177.647Q245.855 175.644 246.435 173.729L246.435 173.729L249.302 164L251.272 164L254.282 173.817Q254.807 175.513 255.168 177.647L255.168 177.647Q255.376 176.093 255.956 173.860L255.956 173.860L258.473 164L260.443 164Z"/></svg>