<svg width="480px" height="360px" xmlns="http://www.w3.org/2000/svg"><path fill="#F00" d="M243.488 172.439L243.488 172.439Q243.488 174.073 244.244 175.146Q245 176.220 246.390 176.537L246.390 176.537L246.390 168.366Q245.049 168.683 244.268 169.756Q243.488 170.829 243.488 172.439ZM247.659 180.805L246.390 180.805L246.390 178.268Q245.293 178.146 244.390 177.695Q243.488 177.244 242.841 176.512Q242.195 175.780 241.841 174.756Q241.488 173.732 241.488 172.439L241.488 172.439Q241.488 171.171 241.866 170.171Q242.244 169.171 242.902 168.439Q243.561 167.707 244.463 167.256Q245.366 166.805 246.390 166.659L246.390 166.659L246.390 164.073L247.659 164.073L247.659 166.585Q248.732 166.634 249.512 167.049Q250.293 167.463 250.854 168L250.854 168L249.878 169.268Q249.390 168.829 248.841 168.561Q248.293 168.293 247.659 168.244L247.659 168.244L247.659 176.634Q248.439 176.585 249.073 176.256Q249.707 175.927 250.195 175.488L250.195 175.488L251.073 176.756Q250.366 177.390 249.488 177.805Q248.610 178.220 247.659 178.293L247.659 178.293L247.659 180.805Z"/></svg>