<svg width="480px" height="360px" xmlns="http://www.w3.org/2000/svg"><path fill="#F00" d="M246.454 180.294L246.454 180.294Q245.276 180.294 244.282 179.988Q243.288 179.681 242.564 179.117Q241.840 178.552 241.436 177.767Q241.031 176.982 241.031 176.025L241.031 176.025Q241.031 174.601 241.804 173.693Q242.577 172.785 243.681 172.196L243.681 172.196L243.681 172.098Q242.773 171.411 242.184 170.540Q241.595 169.669 241.595 168.417L241.595 168.417Q241.595 167.436 241.963 166.638Q242.331 165.840 242.994 165.276Q243.656 164.712 244.577 164.417Q245.497 164.123 246.577 164.123L246.577 164.123Q247.632 164.123 248.515 164.429Q249.399 164.736 250.012 165.288Q250.626 165.840 250.969 166.638Q251.313 167.436 251.313 168.393L251.313 168.393Q251.313 169.521 250.699 170.393Q250.086 171.264 249.276 171.804L249.276 171.804L249.276 171.902Q250.405 172.515 251.190 173.472Q251.975 174.429 251.975 175.975L251.975 175.975Q251.975 176.908 251.583 177.693Q251.190 178.479 250.466 179.055Q249.742 179.632 248.724 179.963Q247.706 180.294 246.454 180.294ZM247.436 170.920L247.436 170.920Q248.393 169.816 248.393 168.638L248.393 168.638Q248.393 167.730 247.890 167.178Q247.387 166.626 246.503 166.626L246.503 166.626Q245.791 166.626 245.276 167.067Q244.761 167.509 244.761 168.417L244.761 168.417Q244.761 169.374 245.497 169.914Q246.233 170.454 247.436 170.920ZM246.528 177.791L246.528 177.791Q247.436 177.791 248.025 177.313Q248.613 176.834 248.613 175.853L248.613 175.853Q248.613 175.337 248.380 174.969Q248.147 174.601 247.706 174.294Q247.264 173.988 246.663 173.718Q246.061 173.448 245.325 173.129L245.325 173.129Q244.810 173.620 244.466 174.258Q244.123 174.896 244.123 175.607L244.123 175.607Q244.123 176.638 244.834 177.215Q245.546 177.791 246.528 177.791Z"/></svg>