<svg width="480px" height="360px" xmlns="http://www.w3.org/2000/svg"><path fill="#F00" d="M245.202 180L241.595 180L241.595 167.828L244.540 167.828L244.785 169.374L244.883 169.374Q245.669 168.638 246.601 168.086Q247.534 167.534 248.785 167.534L248.785 167.534Q250.773 167.534 251.669 168.834Q252.564 170.135 252.564 172.442L252.564 172.442L252.564 180L248.957 180L248.957 172.908Q248.957 171.583 248.601 171.092Q248.245 170.601 247.460 170.601L247.460 170.601Q246.773 170.601 246.282 170.908Q245.791 171.215 245.202 171.779L245.202 171.779L245.202 180Z"/></svg>