<svg width="480px" height="360px" xmlns="http://www.w3.org/2000/svg"><path fill="#F00" d="M247.975 180.294L247.975 180.294Q247.166 180.294 246.344 179.890Q245.521 179.485 244.810 178.699L244.810 178.699L244.712 178.699L244.417 180L241.595 180L241.595 162.798L245.202 162.798L245.202 167.018L245.104 168.883Q245.816 168.245 246.638 167.890Q247.460 167.534 248.319 167.534L248.319 167.534Q249.423 167.534 250.307 167.975Q251.190 168.417 251.816 169.215Q252.442 170.012 252.773 171.153Q253.104 172.294 253.104 173.693L253.104 173.693Q253.104 175.264 252.675 176.491Q252.245 177.718 251.521 178.564Q250.798 179.411 249.877 179.853Q248.957 180.294 247.975 180.294ZM247.141 177.350L247.141 177.350Q248.074 177.350 248.736 176.503Q249.399 175.656 249.399 173.767L249.399 173.767Q249.399 170.479 247.288 170.479L247.288 170.479Q246.209 170.479 245.202 171.583L245.202 171.583L245.202 176.564Q245.693 177.006 246.184 177.178Q246.675 177.350 247.141 177.350Z"/></svg>