<svg width="480px" height="360px" xmlns="http://www.w3.org/2000/svg"><path fill="#F00" d="M244.488 173.805L244.488 173.805Q242.829 173.805 241.841 172.488Q240.854 171.171 240.854 168.732L240.854 168.732Q240.854 166.317 241.841 165.012Q242.829 163.707 244.488 163.707L244.488 163.707Q246.122 163.707 247.122 165.012Q248.122 166.317 248.122 168.732L248.122 168.732Q248.122 171.171 247.122 172.488Q246.122 173.805 244.488 173.805ZM244.488 172.561L244.488 172.561Q245.415 172.561 246 171.598Q246.585 170.634 246.585 168.732L246.585 168.732Q246.585 166.829 246 165.890Q245.415 164.951 244.488 164.951L244.488 164.951Q243.537 164.951 242.951 165.890Q242.366 166.829 242.366 168.732L242.366 168.732Q242.366 170.634 242.951 171.598Q243.537 172.561 244.488 172.561ZM246.293 180.293L244.927 180.293L253.756 163.707L255.122 163.707L246.293 180.293ZM255.634 180.293L255.634 180.293Q253.976 180.293 252.988 178.976Q252 177.659 252 175.220L252 175.220Q252 172.805 252.988 171.500Q253.976 170.195 255.634 170.195L255.634 170.195Q257.268 170.195 258.268 171.500Q259.268 172.805 259.268 175.220L259.268 175.220Q259.268 177.659 258.268 178.976Q257.268 180.293 255.634 180.293ZM255.634 179.049L255.634 179.049Q256.561 179.049 257.146 178.085Q257.732 177.122 257.732 175.220L257.732 175.220Q257.732 173.317 257.146 172.378Q256.561 171.439 255.634 171.439L255.634 171.439Q254.683 171.439 254.098 172.378Q253.512 173.317 253.512 175.220L253.512 175.220Q253.512 177.122 254.098 178.085Q254.683 179.049 255.634 179.049Z"/></svg>