<svg width="480px" height="360px" xmlns="http://www.w3.org/2000/svg"><path fill="#F00" d="M242.756 180L240.854 180L244.049 164L248.439 164Q249.561 164 250.476 164.207Q251.390 164.415 252.049 164.866Q252.707 165.317 253.073 166.024Q253.439 166.732 253.439 167.732L253.439 167.732Q253.439 168.829 253.085 169.732Q252.732 170.634 252.098 171.305Q251.463 171.976 250.610 172.415Q249.756 172.854 248.732 173.049L248.732 173.049L251.537 180L249.512 180L246.878 173.220L244.098 173.220L242.756 180ZM245.634 165.512L244.415 171.683L246.829 171.683Q249.122 171.683 250.341 170.683Q251.561 169.683 251.561 167.976L251.561 167.976Q251.561 166.659 250.646 166.085Q249.732 165.512 247.976 165.512L247.976 165.512L245.634 165.512Z"/></svg>