<svg width="480px" height="360px" xmlns="http://www.w3.org/2000/svg"><path fill="#F00" d="M251.951 180L250.134 180L250.134 172.241Q250.134 170.774 249.466 170.052Q248.799 169.330 247.376 169.330L247.376 169.330Q245.483 169.330 244.613 170.358Q243.743 171.387 243.743 173.729L243.743 173.729L243.743 180L241.926 180L241.926 162.971L243.743 162.971L243.743 168.126Q243.743 169.056 243.655 169.669L243.655 169.669L243.765 169.669Q244.301 168.804 245.291 168.306Q246.282 167.808 247.551 167.808L247.551 167.808Q249.751 167.808 250.851 168.854Q251.951 169.899 251.951 172.175L251.951 172.175L251.951 180Z"/></svg>