<svg width="480px" height="360px" xmlns="http://www.w3.org/2000/svg"><path fill="#F00" d="M245.415 180.293L245.415 180.293Q244.561 180.293 243.744 180.049Q242.927 179.805 242.293 179.305Q241.659 178.805 241.256 178.037Q240.854 177.268 240.854 176.244L240.854 176.244Q240.854 175.366 241.159 174.634Q241.463 173.902 241.963 173.329Q242.463 172.756 243.122 172.317Q243.780 171.878 244.488 171.561L244.488 171.561L244.488 171.463Q243.805 170.780 243.451 170.061Q243.098 169.341 243.098 168.390L243.098 168.390Q243.098 167.390 243.463 166.610Q243.829 165.829 244.463 165.280Q245.098 164.732 245.915 164.439Q246.732 164.146 247.659 164.146L247.659 164.146Q248.390 164.146 249.085 164.366Q249.780 164.585 250.317 165.037Q250.854 165.488 251.171 166.171Q251.488 166.854 251.488 167.756L251.488 167.756Q251.488 169.317 250.659 170.366Q249.829 171.415 248.512 172.146L248.512 172.146L248.512 172.244Q248.854 172.488 249.232 172.829Q249.610 173.171 249.915 173.610Q250.220 174.049 250.415 174.598Q250.610 175.146 250.610 175.756L250.610 175.756Q250.610 176.805 250.183 177.646Q249.756 178.488 249.049 179.073Q248.341 179.659 247.402 179.976Q246.463 180.293 245.415 180.293ZM247.512 171.585L247.512 171.585Q247.951 171.293 248.378 170.927Q248.805 170.561 249.134 170.110Q249.463 169.659 249.659 169.134Q249.854 168.610 249.854 168L249.854 168Q249.854 166.829 249.183 166.195Q248.512 165.561 247.512 165.561L247.512 165.561Q246.976 165.561 246.488 165.744Q246 165.927 245.622 166.280Q245.244 166.634 245.024 167.146Q244.805 167.659 244.805 168.293L244.805 168.293Q244.805 169.512 245.512 170.244Q246.220 170.976 247.512 171.585ZM245.512 178.902L245.512 178.902Q246.146 178.902 246.744 178.695Q247.341 178.488 247.817 178.110Q248.293 177.732 248.573 177.159Q248.854 176.585 248.854 175.854L248.854 175.854Q248.854 175.171 248.573 174.659Q248.293 174.146 247.805 173.720Q247.317 173.293 246.683 172.927Q246.049 172.561 245.366 172.195L245.366 172.195Q244.122 172.878 243.341 173.780Q242.561 174.683 242.561 176.049L242.561 176.049Q242.561 176.732 242.793 177.256Q243.024 177.780 243.427 178.146Q243.829 178.512 244.366 178.707Q244.902 178.902 245.512 178.902Z"/></svg>