<svg width="480px" height="360px" xmlns="http://www.w3.org/2000/svg"><path fill="#F00" d="M251.611 178.315L251.611 180L241.094 180L241.094 178.435L245.308 174.200Q247.234 172.252 247.847 171.420Q248.460 170.588 248.766 169.800Q249.073 169.012 249.073 168.104L249.073 168.104Q249.073 166.824 248.295 166.074Q247.518 165.324 246.140 165.324L246.140 165.324Q245.144 165.324 244.252 165.653Q243.360 165.981 242.265 166.845L242.265 166.845L241.302 165.609Q243.513 163.770 246.118 163.770L246.118 163.770Q248.372 163.770 249.653 164.925Q250.933 166.079 250.933 168.027L250.933 168.027Q250.933 169.549 250.079 171.037Q249.226 172.525 246.884 174.802L246.884 174.802L243.382 178.227L243.382 178.315L251.611 178.315Z"/></svg>