<svg width="480px" height="360px" xmlns="http://www.w3.org/2000/svg"><path fill="#F00" d="M243.098 169.195L243.098 169.195L242.707 168.293Q243.854 167.732 244.451 166.902Q245.049 166.073 245.049 165.415L245.049 165.415L244.927 165.415Q244.390 165.415 244.049 165.134Q243.707 164.854 243.707 164.317L243.707 164.317Q243.707 163.756 244.073 163.341Q244.439 162.927 245.049 162.927L245.049 162.927Q245.610 162.927 245.976 163.366Q246.341 163.805 246.341 164.585L246.341 164.585Q246.341 165.439 246.098 166.146Q245.854 166.854 245.415 167.439Q244.976 168.024 244.378 168.463Q243.780 168.902 243.098 169.195ZM247.146 169.195L247.146 169.195L246.756 168.293Q247.902 167.732 248.500 166.902Q249.098 166.073 249.098 165.415L249.098 165.415L248.976 165.415Q248.439 165.415 248.098 165.134Q247.756 164.854 247.756 164.317L247.756 164.317Q247.756 163.756 248.122 163.341Q248.488 162.927 249.098 162.927L249.098 162.927Q249.659 162.927 250.024 163.366Q250.390 163.805 250.390 164.585L250.390 164.585Q250.390 165.439 250.146 166.146Q249.902 166.854 249.463 167.439Q249.024 168.024 248.427 168.463Q247.829 168.902 247.146 169.195Z"/></svg>