<svg version="1.1" xmlns="http://www.w3.org/2000/svg" xmlns:xlink="http://www.w3.org/1999/xlink" width="278.33483" height="304.31442" viewBox="0,0,278.33483,304.31442"><g transform="translate(-199.33533,-83.94167)"><g data-paper-data="{&quot;isPaintingLayer&quot;:true}" fill-rule="nonzero" stroke="none" stroke-width="0" stroke-linecap="butt" stroke-linejoin="miter" stroke-miterlimit="10" stroke-dasharray="" stroke-dashoffset="0" style="mix-blend-mode: normal"><path d="M266.7701,167.95547v-5.5h48.30032v5.5z" fill="#ffffff"/><path d="M266.62282,162.50723l5.5,-0.00087l0.01577,48.90157l-5.5,0.00087z" fill="#ffffff"/><path d="M211.5223,211.42334v-5.5h60.57943v5.5z" fill="#ffffff"/><path d="M311.42538,162.46637l5.5,-0.00198l0.01578,111.6272l-5.5,0.00198z" fill="#ffffff"/><path d="M366.61848,152.22909l4.12185,-3.65632l42.60337,42.60335l-3.88909,3.88909z" fill="#ffffff"/><path d="M366.67121,98.29657l5.5,-0.00097l0.01578,54.15136l-5.5,0.00096z" fill="#ffffff"/><path d="M215.49683,145.08259l-3.94049,-3.78629l42.86036,-43.06593l3.91626,4.01611z" data-paper-data="{&quot;index&quot;:null}" fill="#ffffff"/><path d="M211.59797,141.40797l5.5,-0.00122l0.01578,68.93267l-5.5,0.00123z" fill="#ffffff"/><path d="M254.29935,103.79433v-5.5h116.29642l-0.16451,5.5z" data-paper-data="{&quot;index&quot;:null}" fill="#ffffff"/><path d="M199.33533,388.25609v-304.31442h278.33483v304.31442z" fill="none"/><path d="M456.63816,189.2417l5.5,-0.00185l0.01578,104.06365l-5.5,0.00185z" fill="#ffffff"/><path d="M382.50289,288.24765l5.5,-0.00151l0.01578,85.51386l-5.5,0.00152z" fill="#ffffff"/><path d="M409.6032,194.83399v-5.5h52.03223l-0.07361,5.5z" data-paper-data="{&quot;index&quot;:null}" fill="#ffffff"/><path d="M274.06576,316.3781l-3.88909,-3.88909l42.60337,-42.60335l4.12185,3.65632z" data-paper-data="{&quot;index&quot;:null}" fill="#ffffff"/><path d="M270.21892,311.92709l5.5,-0.00108l0.01578,61.08328l-5.5,0.00108z" fill="#ffffff"/><path d="M270.45264,373.81772v-5.5h116.29642l-0.16451,5.5z" data-paper-data="{&quot;index&quot;:null}" fill="#ffffff"/><path d="M382.58448,293.11072v-5.5h77.64182l-0.10984,5.5z" data-paper-data="{&quot;index&quot;:null}" fill="#ffffff"/></g></g></svg>