<svg width="480px" height="360px" xmlns="http://www.w3.org/2000/svg"><path fill="#F00" d="M246.805 180.293L246.805 180.293Q245.610 180.293 244.573 179.866Q243.537 179.439 242.768 178.646Q242 177.854 241.561 176.707Q241.122 175.561 241.122 174.098L241.122 174.098Q241.122 172.634 241.573 171.476Q242.024 170.317 242.768 169.512Q243.512 168.707 244.463 168.280Q245.415 167.854 246.439 167.854L246.439 167.854Q247.561 167.854 248.451 168.244Q249.341 168.634 249.939 169.366Q250.537 170.098 250.854 171.122Q251.171 172.146 251.171 173.415L251.171 173.415Q251.171 173.732 251.159 174.037Q251.146 174.341 251.098 174.561L251.098 174.561L243.098 174.561Q243.220 176.463 244.280 177.573Q245.341 178.683 247.049 178.683L247.049 178.683Q247.902 178.683 248.622 178.427Q249.341 178.171 250 177.756L250 177.756L250.707 179.073Q249.927 179.561 248.976 179.927Q248.024 180.293 246.805 180.293ZM243.073 173.122L243.073 173.122L249.415 173.122Q249.415 171.317 248.646 170.378Q247.878 169.439 246.488 169.439L246.488 169.439Q245.854 169.439 245.280 169.683Q244.707 169.927 244.244 170.402Q243.780 170.878 243.476 171.561Q243.171 172.244 243.073 173.122Z"/></svg>