<svg width="480px" height="360px" xmlns="http://www.w3.org/2000/svg"><path fill="#F00" d="M245.713 173.839L245.713 173.707Q243.272 173.280 243.272 170.927L243.272 170.927L243.272 167.699Q243.272 165.587 240.788 165.521L240.788 165.521L240.788 164Q242.802 164 243.956 164.952Q245.111 165.904 245.111 167.579L245.111 167.579L245.111 170.927Q245.111 171.989 245.756 172.487Q246.402 172.985 247.825 173.007L247.825 173.007L247.825 174.550Q246.490 174.550 245.800 175.037Q245.111 175.524 245.111 176.662L245.111 176.662L245.111 179.978Q245.111 181.653 243.989 182.588Q242.867 183.524 240.788 183.546L240.788 183.546L240.788 182.014Q242.003 181.992 242.637 181.488Q243.272 180.985 243.272 179.869L243.272 179.869L243.272 176.618Q243.272 175.371 243.874 174.714Q244.476 174.057 245.713 173.839L245.713 173.839Z"/></svg>