<svg width="480px" height="360px" xmlns="http://www.w3.org/2000/svg"><path fill="#F00" d="M247.398 173.346L244.060 173.346L244.060 180L242.200 180L242.200 164L246.588 164Q249.532 164 250.938 165.127Q252.345 166.254 252.345 168.520L252.345 168.520Q252.345 171.694 249.127 172.810L249.127 172.810L253.472 180L251.272 180L247.398 173.346ZM244.060 165.631L244.060 171.748L246.610 171.748Q248.580 171.748 249.499 170.966Q250.419 170.183 250.419 168.618L250.419 168.618Q250.419 167.031 249.483 166.331Q248.547 165.631 246.479 165.631L246.479 165.631L244.060 165.631Z"/></svg>