<svg version="1.1" xmlns="http://www.w3.org/2000/svg" xmlns:xlink="http://www.w3.org/1999/xlink" width="198.56883" height="193.63574" viewBox="0,0,198.56883,193.63574"><g transform="translate(-149.39519,-86.76887)"><g data-paper-data="{&quot;isPaintingLayer&quot;:true}" fill-rule="nonzero" stroke-linejoin="miter" stroke-miterlimit="10" stroke-dasharray="" stroke-dashoffset="0" style="mix-blend-mode: normal"><path d="M149.3952,280.40461v-193.63574h198.56883v193.63574z" fill="none" stroke="#000000" stroke-width="0" stroke-linecap="butt"/><path d="M206.00004,180.00003c0,-18.77768 15.22232,-34 34,-34c18.77768,0 34,15.22232 34,34c0,18.77768 -15.22232,34 -34,34c-18.77768,0 -34,-15.22232 -34,-34z" fill="#ffdf43" stroke="none" stroke-width="0" stroke-linecap="butt"/><path d="M235.86147,163.18168v-4.22406h6.7841v4.22406z" fill="#82744e" stroke="none" stroke-width="0" stroke-linecap="butt"/><path d="M243.70167,196.67683v4.22405h-6.7841v-4.22405z" fill="#82744e" stroke="none" stroke-width="0" stroke-linecap="butt"/><path d="M251.76295,168.98547l3.69428,-2.04816l3.28947,5.93324l-3.69428,2.04815z" fill="#82744e" stroke="none" stroke-width="0" stroke-linecap="butt"/><path d="M227.50205,191.48174l-3.78044,1.8844l-3.02644,-6.07163l3.78043,-1.88439z" fill="#82744e" stroke="none" stroke-width="0" stroke-linecap="butt"/><path d="M224.35021,174.83548l-3.70739,-2.02433l3.25121,-5.9543l3.70739,2.02433z" fill="#82744e" stroke="none" stroke-width="0" stroke-linecap="butt"/><path d="M255.71612,184.71146l3.73555,1.9719l-3.16699,5.99952l-3.73555,-1.9719z" fill="#82744e" stroke="none" stroke-width="0" stroke-linecap="butt"/><path d="M236.18136,180.35804c0,-2.0361 1.6506,-3.68669 3.6867,-3.68669c2.0361,0 3.68669,1.65059 3.68669,3.68669c0,2.0361 -1.65059,3.68669 -3.68669,3.68669c-2.0361,0 -3.6867,-1.65059 -3.6867,-3.68669z" fill="#82744e" stroke="none" stroke-width="0" stroke-linecap="butt"/><g fill="none" stroke="#82744e" stroke-linecap="round"><path d="M253.71219,187.12484l-5.20707,-2.74868" stroke-width="3.7"/><g><path d="M239.4425,157.22055l-5.62735,5.70982" data-paper-data="{&quot;index&quot;:null}" stroke-width="2.5"/><path d="M239.50686,157.19617l5.48234,5.86084" data-paper-data="{&quot;index&quot;:null}" stroke-width="2.5"/><path d="M244.8784,163.14347l-11.07571,-0.10679" data-paper-data="{&quot;index&quot;:null}" stroke-width="2.5"/><path d="M234.87125,196.80174l5.62735,5.70982" data-paper-data="{&quot;index&quot;:null}" stroke-width="2.5"/><path d="M240.56296,202.53595l5.48234,-5.86084" data-paper-data="{&quot;index&quot;:null}" stroke-width="2.5"/><path d="M245.93449,196.58864l-11.0757,0.10679" data-paper-data="{&quot;index&quot;:null}" stroke-width="2.5"/><path d="M239.43432,164.24459v5.88801" stroke-width="3.7"/><path d="M240.09909,195.96389v-5.88801" stroke-width="3.7"/><path d="M258.7128,169.10057l-7.72229,-2.15301" data-paper-data="{&quot;index&quot;:null}" stroke-width="2.5"/><path d="M256.29782,176.78157l2.46752,-7.63655" data-paper-data="{&quot;index&quot;:null}" stroke-width="2.5"/><path d="M256.16847,176.72659l-5.27698,-9.73838" data-paper-data="{&quot;index&quot;:null}" stroke-width="2.5"/><path d="M223.24314,183.57177l-2.59975,7.58357" data-paper-data="{&quot;index&quot;:null}" stroke-width="2.5"/><path d="M220.65026,191.22383l7.69106,2.29199" data-paper-data="{&quot;index&quot;:null}" stroke-width="2.5"/><path d="M228.36927,193.37807l-5.03656,-9.86487" data-paper-data="{&quot;index&quot;:null}" stroke-width="2.5"/><path d="M252.56576,172.49921l-5.14955,2.85498" stroke-width="3.7"/><path d="M231.59483,185.25012l-5.26965,2.62668" stroke-width="3.7"/><path d="M228.36152,166.83834l-7.70826,2.20267" data-paper-data="{&quot;index&quot;:null}" stroke-width="2.5"/><path d="M220.60101,169.0858l2.51662,7.62052" data-paper-data="{&quot;index&quot;:null}" stroke-width="2.5"/><path d="M223.24663,176.65048l5.21416,-9.77216" data-paper-data="{&quot;index&quot;:null}" stroke-width="2.5"/><path d="M256.8936,182.89272l2.42249,7.64203" data-paper-data="{&quot;index&quot;:null}" stroke-width="2.5"/><path d="M259.30762,190.60305l-7.74233,2.11232" data-paper-data="{&quot;index&quot;:null}" stroke-width="2.5"/><path d="M256.80545,182.83208l-5.26488,9.74493" data-paper-data="{&quot;index&quot;:null}" stroke-width="2.5"/><path d="M226.82205,172.40002l5.16783,2.82175" stroke-width="3.7"/></g></g></g></g></svg>