<svg width="480px" height="360px" xmlns="http://www.w3.org/2000/svg"><path fill="#F00" d="M247.049 180L245.049 180L245.049 176.146L241.098 176.146L241.098 174.976L245.049 174.976L245.049 173.390L241.098 173.390L241.098 172.244L244.537 172.244L240.561 164.439L242.659 164.439L244.561 168.610Q244.927 169.415 245.280 170.232Q245.634 171.049 246.024 171.902L246.024 171.902L246.122 171.902Q246.537 171.049 246.890 170.232Q247.244 169.415 247.610 168.610L247.610 168.610L249.512 164.439L251.561 164.439L247.561 172.244L251.024 172.244L251.024 173.390L247.049 173.390L247.049 174.976L251.024 174.976L251.024 176.146L247.049 176.146L247.049 180Z"/></svg>