<svg width="480px" height="360px" xmlns="http://www.w3.org/2000/svg"><path fill="#F00" d="M250.648 180L249.302 180L248.941 178.293L248.854 178.293Q247.956 179.420 247.064 179.819Q246.172 180.219 244.837 180.219L244.837 180.219Q243.053 180.219 242.041 179.300Q241.029 178.380 241.029 176.684L241.029 176.684Q241.029 173.051 246.840 172.876L246.840 172.876L248.876 172.810L248.876 172.066Q248.876 170.654 248.268 169.981Q247.661 169.308 246.326 169.308L246.326 169.308Q244.826 169.308 242.933 170.227L242.933 170.227L242.375 168.837Q243.261 168.356 244.317 168.082Q245.373 167.808 246.435 167.808L246.435 167.808Q248.580 167.808 249.614 168.761Q250.648 169.713 250.648 171.814L250.648 171.814L250.648 180ZM245.198 178.720L245.198 178.720Q246.895 178.720 247.863 177.789Q248.832 176.859 248.832 175.185L248.832 175.185L248.832 174.101L247.015 174.178Q244.848 174.254 243.891 174.851Q242.933 175.447 242.933 176.706L242.933 176.706Q242.933 177.691 243.529 178.205Q244.126 178.720 245.198 178.720Z"/></svg>