<svg width="480px" height="360px" xmlns="http://www.w3.org/2000/svg"><path fill="#F00" d="M248.585 183.780L248.585 183.780Q247 183.780 245.634 183.256Q244.268 182.732 243.268 181.744Q242.268 180.756 241.683 179.317Q241.098 177.878 241.098 176.024L241.098 176.024Q241.098 173.512 241.988 171.366Q242.878 169.220 244.354 167.646Q245.829 166.073 247.744 165.183Q249.659 164.293 251.707 164.293L251.707 164.293Q253.439 164.293 254.780 164.829Q256.122 165.366 257.049 166.329Q257.976 167.293 258.463 168.622Q258.951 169.951 258.951 171.512L258.951 171.512Q258.951 173.293 258.524 174.659Q258.098 176.024 257.378 176.963Q256.659 177.902 255.732 178.378Q254.805 178.854 253.829 178.854L253.829 178.854Q252.976 178.854 252.390 178.354Q251.805 177.854 251.634 177L251.634 177L251.561 177Q251 177.707 250.280 178.171Q249.561 178.634 248.756 178.634L248.756 178.634Q248.195 178.634 247.683 178.415Q247.171 178.195 246.793 177.780Q246.415 177.366 246.183 176.744Q245.951 176.122 245.951 175.341L245.951 175.341Q245.951 174.268 246.329 173.220Q246.707 172.171 247.354 171.354Q248 170.537 248.866 170.037Q249.732 169.537 250.732 169.537L250.732 169.537Q251.878 169.537 252.512 170.780L252.512 170.780L252.561 170.780L252.878 169.732L254.122 169.732L252.902 175.024Q252.634 176.171 252.915 176.866Q253.195 177.561 254.171 177.561L254.171 177.561Q254.756 177.561 255.378 177.183Q256 176.805 256.488 176.061Q256.976 175.317 257.293 174.232Q257.610 173.146 257.610 171.756L257.610 171.756Q257.610 170.439 257.256 169.293Q256.902 168.146 256.146 167.317Q255.390 166.488 254.244 166.012Q253.098 165.537 251.537 165.537L251.537 165.537Q249.878 165.537 248.256 166.317Q246.634 167.098 245.354 168.476Q244.073 169.854 243.280 171.720Q242.488 173.585 242.488 175.756L242.488 175.756Q242.488 177.390 242.988 178.646Q243.488 179.902 244.329 180.768Q245.171 181.634 246.305 182.073Q247.439 182.512 248.732 182.512L248.732 182.512Q250.561 182.512 252.024 181.610L252.024 181.610L252.585 182.732Q250.634 183.780 248.585 183.780ZM249.098 177.341L249.098 177.341Q250.195 177.341 251.293 175.854L251.293 175.854L252.171 171.927Q251.829 171.293 251.488 171.061Q251.146 170.829 250.732 170.829L250.732 170.829Q250 170.829 249.402 171.244Q248.805 171.659 248.366 172.293Q247.927 172.927 247.683 173.695Q247.439 174.463 247.439 175.171L247.439 175.171Q247.439 176.268 247.915 176.805Q248.390 177.341 249.098 177.341Z"/></svg>