<svg width="480px" height="360px" xmlns="http://www.w3.org/2000/svg"><path fill="#F00" d="M247.293 180L242.195 180L242.195 164L246.951 164Q248.171 164 249.183 164.220Q250.195 164.439 250.915 164.902Q251.634 165.366 252.037 166.110Q252.439 166.854 252.439 167.902L252.439 167.902Q252.439 169.098 251.841 170.061Q251.244 171.024 250.098 171.390L250.098 171.390L250.098 171.488Q251.561 171.756 252.463 172.707Q253.366 173.659 253.366 175.317L253.366 175.317Q253.366 176.488 252.927 177.366Q252.488 178.244 251.683 178.829Q250.878 179.415 249.756 179.707Q248.634 180 247.293 180L247.293 180ZM244.220 165.610L244.220 170.805L246.585 170.805Q248.634 170.805 249.537 170.098Q250.439 169.390 250.439 168.171L250.439 168.171Q250.439 166.780 249.500 166.195Q248.561 165.610 246.683 165.610L246.683 165.610L244.220 165.610ZM244.220 172.366L244.220 178.390L247 178.390Q249.073 178.390 250.220 177.622Q251.366 176.854 251.366 175.244L251.366 175.244Q251.366 173.756 250.244 173.061Q249.122 172.366 247 172.366L247 172.366L244.220 172.366Z"/></svg>