<svg width="480px" height="360px" xmlns="http://www.w3.org/2000/svg"><path fill="#F00" d="M245.976 172.463L245.976 172.463Q246.268 172.463 246.671 172.366Q247.073 172.268 247.512 172.037Q247.951 171.805 248.415 171.427Q248.878 171.049 249.317 170.488L249.317 170.488Q249.341 170.220 249.341 169.939Q249.341 169.659 249.341 169.366L249.341 169.366Q249.341 167.683 248.634 166.646Q247.927 165.610 246.683 165.610L246.683 165.610Q246.024 165.610 245.439 165.951Q244.854 166.293 244.427 166.841Q244 167.390 243.756 168.098Q243.512 168.805 243.512 169.537L243.512 169.537Q243.512 170.902 244.134 171.683Q244.756 172.463 245.976 172.463ZM243.829 180.293L243.829 180.293Q242.561 180.293 241.744 179.695Q240.927 179.098 240.439 178.317L240.439 178.317L241.707 177.317Q242.122 178 242.646 178.366Q243.171 178.732 243.951 178.732L243.951 178.732Q244.854 178.732 245.683 178.256Q246.512 177.780 247.195 176.915Q247.878 176.049 248.378 174.829Q248.878 173.610 249.122 172.098L249.122 172.098Q248.317 173 247.329 173.427Q246.341 173.854 245.561 173.854L245.561 173.854Q243.805 173.854 242.780 172.780Q241.756 171.707 241.756 169.805L241.756 169.805Q241.756 168.659 242.134 167.634Q242.512 166.610 243.195 165.829Q243.878 165.049 244.793 164.598Q245.707 164.146 246.780 164.146L246.780 164.146Q247.780 164.146 248.585 164.537Q249.390 164.927 249.951 165.622Q250.512 166.317 250.805 167.293Q251.098 168.268 251.098 169.415L251.098 169.415Q251.098 171.805 250.549 173.793Q250 175.780 249.024 177.232Q248.049 178.683 246.720 179.488Q245.390 180.293 243.829 180.293Z"/></svg>