<svg width="480px" height="360px" xmlns="http://www.w3.org/2000/svg"><path fill="#F00" d="M253.877 180L251.721 180L249.521 172.963Q249.313 172.317 248.744 170.030L248.744 170.030L248.657 170.030Q248.219 171.945 247.891 172.985L247.891 172.985L245.625 180L243.524 180L240.252 168.005L242.156 168.005Q243.316 172.525 243.923 174.889Q244.531 177.253 244.618 178.074L244.618 178.074L244.706 178.074Q244.826 177.450 245.094 176.460Q245.363 175.469 245.560 174.889L245.560 174.889L247.759 168.005L249.729 168.005L251.874 174.889Q252.487 176.772 252.706 178.052L252.706 178.052L252.793 178.052Q252.837 177.658 253.029 176.837Q253.220 176.016 255.311 168.005L255.311 168.005L257.193 168.005L253.877 180Z"/></svg>