<svg width="480px" height="360px" xmlns="http://www.w3.org/2000/svg"><path fill="#F00" d="M245.537 180L243.683 180L244.488 176.073L240.683 176.073L240.902 175.049L244.707 175.049L245 173.366L241.220 173.366L241.439 172.317L244.756 172.317L242.537 164.439L244.439 164.439L245.439 168.732Q245.610 169.537 245.793 170.354Q245.976 171.171 246.171 172.049L246.171 172.049L246.244 172.049Q246.805 171.146 247.305 170.329Q247.805 169.512 248.341 168.732L248.341 168.732L250.976 164.439L252.854 164.439L247.585 172.317L250.902 172.317L250.659 173.366L246.878 173.366L246.561 175.049L250.366 175.049L250.122 176.073L246.317 176.073L245.537 180Z"/></svg>