<svg width="480px" height="360px" xmlns="http://www.w3.org/2000/svg"><path fill="#F00" d="M246.773 180.294L246.773 180.294Q245.202 180.294 243.644 179.718Q242.086 179.141 240.859 177.988L240.859 177.988L242.920 175.509Q243.779 176.245 244.822 176.712Q245.865 177.178 246.871 177.178L246.871 177.178Q248 177.178 248.552 176.761Q249.104 176.344 249.104 175.632L249.104 175.632Q249.104 175.264 248.945 174.994Q248.785 174.724 248.479 174.515Q248.172 174.307 247.742 174.123Q247.313 173.939 246.798 173.718L246.798 173.718L244.712 172.834Q244.098 172.589 243.521 172.196Q242.945 171.804 242.491 171.276Q242.037 170.748 241.767 170.049Q241.497 169.350 241.497 168.466L241.497 168.466Q241.497 167.485 241.914 166.613Q242.331 165.742 243.092 165.092Q243.853 164.442 244.896 164.074Q245.939 163.706 247.190 163.706L247.190 163.706Q248.589 163.706 249.951 164.245Q251.313 164.785 252.344 165.816L252.344 165.816L250.503 168.098Q249.718 167.485 248.933 167.153Q248.147 166.822 247.190 166.822L247.190 166.822Q246.258 166.822 245.706 167.202Q245.153 167.583 245.153 168.270L245.153 168.270Q245.153 168.638 245.337 168.896Q245.521 169.153 245.853 169.362Q246.184 169.571 246.626 169.755Q247.067 169.939 247.583 170.160L247.583 170.160L249.644 170.994Q251.117 171.583 251.963 172.613Q252.810 173.644 252.810 175.337L252.810 175.337Q252.810 176.344 252.405 177.239Q252 178.135 251.227 178.810Q250.454 179.485 249.325 179.890Q248.196 180.294 246.773 180.294Z"/></svg>