<svg width="480px" height="360px" xmlns="http://www.w3.org/2000/svg"><path fill="#F00" d="M246.220 180L243.878 180L240.585 168.146L242.634 168.146L244.390 175Q244.585 175.854 244.756 176.659Q244.927 177.463 245.098 178.293L245.098 178.293L245.195 178.293Q245.390 177.463 245.585 176.646Q245.780 175.829 246 175L246 175L247.829 168.146L249.780 168.146L251.634 175Q251.854 175.854 252.061 176.659Q252.268 177.463 252.463 178.293L252.463 178.293L252.561 178.293Q252.756 177.463 252.927 176.659Q253.098 175.854 253.293 175L253.293 175L255.024 168.146L256.927 168.146L253.756 180L251.317 180L249.610 173.634Q249.390 172.780 249.207 171.951Q249.024 171.122 248.805 170.220L248.805 170.220L248.707 170.220Q248.512 171.122 248.317 171.963Q248.122 172.805 247.878 173.659L247.878 173.659L246.220 180Z"/></svg>