<svg version="1.1" xmlns="http://www.w3.org/2000/svg" xmlns:xlink="http://www.w3.org/1999/xlink" width="213.84894" height="234.13127" viewBox="0,0,213.84894,234.13127"><defs><linearGradient x1="242.33283" y1="190.93285" x2="242.33283" y2="140.61926" gradientUnits="userSpaceOnUse" id="color-1"><stop offset="0" stop-color="#02ca41" stop-opacity="0"/><stop offset="1" stop-color="#02ca41"/></linearGradient></defs><g transform="translate(-125.57639,14.56697)"><g data-paper-data="{&quot;isPaintingLayer&quot;:true}" stroke-miterlimit="10" stroke-dasharray="" stroke-dashoffset="0" style="mix-blend-mode: normal"><path d="M128.4178,154.17249l-0.31939,-117.04041l59.53425,-1.2279l-2.25304,-50.47115l62.66896,0.79802l34.88442,36.41198l54.91036,0.42566l-1.33407,54.91316l-62.76502,63.90637l-1.02715,72.30258l-60.71037,-0.52386l-0.70848,-120.35466l-41.94769,-0.55147l-0.49396,62.25985z" fill="#04b33b" fill-rule="nonzero" stroke="none" stroke-width="0" stroke-linecap="butt" stroke-linejoin="miter"/><path d="M271.3409,140.61926v36.65872h-58.01612v-36.65872z" data-paper-data="{&quot;index&quot;:null}" fill="url(#color-1)" fill-rule="nonzero" stroke="none" stroke-width="0" stroke-linecap="butt" stroke-linejoin="miter"/><g data-paper-data="{&quot;index&quot;:null}" fill-rule="nonzero" stroke-linejoin="miter"><g fill="none" stroke="#51da7c" stroke-width="2" stroke-linecap="round"><path d="M242.03021,162.34506l3.61166,-4.90079" data-paper-data="{&quot;index&quot;:null}"/><path d="M238.20218,157.54493l3.78576,4.82178" data-paper-data="{&quot;index&quot;:null}"/><path d="M245.64768,157.35473l-7.37379,0.1155" data-paper-data="{&quot;index&quot;:null}"/></g><path d="M245.15377,157.31833l-3.18132,4.73069l-2.96794,-4.94941z" fill="#51da7c" stroke="none" stroke-width="0" stroke-linecap="butt"/></g><path d="M187.04117,-12.12261h58.40743v4.51853l-58.39076,0.05761z" data-paper-data="{&quot;index&quot;:null}" fill="#000000" fill-rule="evenodd" stroke="none" stroke-width="1" stroke-linecap="round" stroke-linejoin="round" opacity="0.21849"/><path d="M244.87459,-7.56728l-0.03384,-5.4029l37.9558,38.89158c-0.81825,0.01511 -0.15269,3.18647 -0.74643,3.33407z" data-paper-data="{&quot;index&quot;:null}" fill="#000000" fill-rule="evenodd" stroke="none" stroke-width="1" stroke-linecap="round" stroke-linejoin="round" opacity="0.21849"/><path d="M282.492,23.84632h53.65686v4.51853l-54.02159,0.05761z" data-paper-data="{&quot;index&quot;:null}" fill="#000000" fill-rule="evenodd" stroke="none" stroke-width="1" stroke-linecap="round" stroke-linejoin="round" opacity="0.21849"/><path d="M130.11143,37.89238h59.093v4.51853l-59.07613,0.05761z" data-paper-data="{&quot;index&quot;:null}" fill="#000000" fill-rule="evenodd" stroke="none" stroke-width="1" stroke-linecap="round" stroke-linejoin="round" opacity="0.21849"/><path d="M125.57639,155.21987h46.99977v4.51853l-46.98636,0.05761z" data-paper-data="{&quot;index&quot;:null}" fill="#000000" fill-rule="evenodd" stroke="none" stroke-width="1" stroke-linecap="round" stroke-linejoin="round" opacity="0.21849"/><path d="M168.94913,93.70712h43.7439v4.51853l-43.73142,0.05761z" data-paper-data="{&quot;index&quot;:null}" fill="#000000" fill-rule="evenodd" stroke="none" stroke-width="1" stroke-linecap="round" stroke-linejoin="round" opacity="0.21849"/><path d="M208.83345,214.98816h66.30242v4.51853l-66.2835,0.05761z" data-paper-data="{&quot;index&quot;:null}" fill="#000000" fill-rule="evenodd" stroke="none" stroke-width="1" stroke-linecap="round" stroke-linejoin="round" opacity="0.21849"/><path d="M273.73009,147.85414c-1.04829,-0.2606 0.12679,-6.09237 -1.31787,-6.11906l67.01311,-68.66529l-0.05976,9.53913z" data-paper-data="{&quot;index&quot;:null}" fill="#000000" fill-rule="evenodd" stroke="none" stroke-width="1" stroke-linecap="round" stroke-linejoin="round" opacity="0.21849"/></g></g></svg>