<svg width="480px" height="360px" xmlns="http://www.w3.org/2000/svg"><path fill="#F00" d="M241.839 177.395L243.830 177.395L243.995 177.647Q243.710 178.741 243.174 180.192Q242.637 181.642 242.057 182.889L242.057 182.889L240.689 182.889Q240.985 181.751 241.341 180.077Q241.696 178.402 241.839 177.395L241.839 177.395ZM241.609 169.176L241.609 169.176Q241.609 167.699 242.911 167.699L242.911 167.699Q244.257 167.699 244.257 169.176L244.257 169.176Q244.257 169.888 243.896 170.271Q243.535 170.654 242.911 170.654L242.911 170.654Q242.276 170.654 241.943 170.271Q241.609 169.888 241.609 169.176Z"/></svg>