<svg width="480px" height="360px" xmlns="http://www.w3.org/2000/svg"><path fill="#F00" d="M243.976 169.415L243.976 169.415Q243.415 169.415 243.049 168.976Q242.683 168.537 242.683 167.756L242.683 167.756Q242.683 166.927 242.927 166.207Q243.171 165.488 243.610 164.902Q244.049 164.317 244.634 163.878Q245.220 163.439 245.902 163.146L245.902 163.146L246.293 164.073Q245.171 164.634 244.573 165.451Q243.976 166.268 243.976 166.951L243.976 166.951L244.098 166.951Q244.610 166.951 244.951 167.232Q245.293 167.512 245.293 168.024L245.293 168.024Q245.293 168.585 244.927 169Q244.561 169.415 243.976 169.415ZM248.024 169.415L248.024 169.415Q247.463 169.415 247.098 168.976Q246.732 168.537 246.732 167.756L246.732 167.756Q246.732 166.927 246.976 166.207Q247.220 165.488 247.659 164.902Q248.098 164.317 248.683 163.878Q249.268 163.439 249.951 163.146L249.951 163.146L250.341 164.073Q249.220 164.634 248.622 165.451Q248.024 166.268 248.024 166.951L248.024 166.951L248.146 166.951Q248.659 166.951 249 167.232Q249.341 167.512 249.341 168.024L249.341 168.024Q249.341 168.585 248.976 169Q248.610 169.415 248.024 169.415Z"/></svg>